<svg width="30" height="22" viewBox="0 0 30 22" fill="none" xmlns="http://www.w3.org/2000/svg">
<path d="M14.8563 10.5975C16.3634 10.5975 17.6682 10.0753 18.7347 9.04505C19.8008 8.015 20.3415 6.75464 20.3415 5.29861C20.3415 3.843 19.801 2.58251 18.7345 1.55207C17.6681 0.522156 16.3632 0 14.8563 0C13.3491 0 12.0443 0.522156 10.9781 1.55225C9.91182 2.58234 9.37109 3.84287 9.37109 5.29861C9.37109 6.75464 9.91178 8.01518 10.9781 9.04527C12.0447 10.0752 13.3496 10.5975 14.8563 10.5975H14.8563ZM11.9219 2.46383C12.74 1.67342 13.6999 1.28923 14.8563 1.28923C16.0126 1.28923 16.9726 1.67342 17.7909 2.46383C18.6091 3.25437 19.007 4.18172 19.007 5.29856C19.007 6.41575 18.6091 7.34297 17.7909 8.13351C16.9726 8.92409 16.0126 9.30828 14.8563 9.30828C13.7002 9.30828 12.7404 8.92392 11.9219 8.13351C11.1035 7.34314 10.7056 6.41579 10.7056 5.29861C10.7056 4.18172 11.1035 3.25437 11.9219 2.46383ZM24.454 16.9169C24.4232 16.4883 24.361 16.0206 24.2694 15.5268C24.177 15.0293 24.058 14.559 23.9155 14.1292C23.7682 13.6849 23.5682 13.2461 23.3206 12.8257C23.0639 12.3893 22.7624 12.0092 22.4239 11.6966C22.07 11.3694 21.6366 11.1064 21.1355 10.9145C20.6362 10.7238 20.0828 10.6271 19.4909 10.6271C19.2584 10.6271 19.0336 10.7192 18.5994 10.9923C18.2907 11.1865 17.9812 11.3793 17.6707 11.5707C17.3724 11.7543 16.9682 11.9264 16.469 12.0821C15.982 12.2344 15.4875 12.3116 14.9993 12.3116C14.5114 12.3116 14.0169 12.2344 13.5296 12.0821C13.0309 11.9265 12.6266 11.7545 12.3288 11.5708C11.9832 11.3575 11.6705 11.1628 11.3993 10.9921C10.9654 10.719 10.7406 10.6269 10.5081 10.6269C9.91596 10.6269 9.36277 10.7237 8.86358 10.9148C8.36283 11.1063 7.92933 11.3693 7.57505 11.6967C7.23661 12.0096 6.93499 12.3894 6.67853 12.8257C6.43131 13.2461 6.23115 13.6847 6.08379 14.1293C5.94146 14.5592 5.82248 15.0293 5.73005 15.5268C5.63829 16.02 5.57628 16.4878 5.5455 16.9174C5.51526 17.3375 5.5 17.7748 5.5 18.2166C5.5 19.365 5.8779 20.2947 6.6231 20.9803C7.35911 21.657 8.3328 22 9.5172 22H20.4828C21.6668 22 22.6405 21.6569 23.3767 20.9804C24.1221 20.2952 24.5 19.3652 24.5 18.2164C24.4998 17.7731 24.4844 17.3359 24.454 16.9169ZM22.4566 20.0463C21.9702 20.4934 21.3246 20.7108 20.4826 20.7108H9.51725C8.67512 20.7108 8.02945 20.4934 7.54329 20.0465C7.06639 19.6078 6.8346 19.0092 6.8346 18.2166C6.8346 17.8043 6.84866 17.3973 6.87686 17.0066C6.90426 16.6232 6.96039 16.2021 7.04366 15.7546C7.12581 15.3126 7.23038 14.8979 7.35479 14.5224C7.47417 14.1624 7.63697 13.8059 7.83886 13.4625C8.03155 13.1352 8.25323 12.8544 8.49787 12.6281C8.72671 12.4165 9.01516 12.2433 9.35499 12.1134C9.66928 11.9931 10.0225 11.9274 10.406 11.9174C10.4527 11.9415 10.536 11.9873 10.6708 12.0722C10.9451 12.2449 11.2613 12.442 11.6109 12.6576C12.005 12.9004 12.5127 13.1196 13.1192 13.3087C13.7393 13.5024 14.3718 13.6008 14.9995 13.6008C15.6273 13.6008 16.2599 13.5024 16.8797 13.3089C17.4867 13.1194 17.9942 12.9004 18.3888 12.6573C18.7466 12.4364 19.0539 12.2451 19.3282 12.0722C19.4631 11.9874 19.5463 11.9414 19.5931 11.9175C19.9767 11.9274 20.3299 11.9931 20.6444 12.1133C20.9841 12.2433 21.2725 12.4166 21.5013 12.6281C21.746 12.8542 21.9677 13.135 22.1603 13.4627C22.3624 13.8059 22.5254 14.1626 22.6446 14.5223C22.7692 14.8983 22.8739 15.3128 22.9559 15.7544C23.039 16.2027 23.0953 16.6241 23.1227 17.0067V17.0071C23.1511 17.3963 23.1653 17.8032 23.1655 18.2166C23.1653 19.0093 22.9335 19.6079 22.4566 20.0463H22.4566Z" fill="#244A65"/>
</svg>
