<svg width="117" height="193" viewBox="0 0 117 193" fill="none" xmlns="http://www.w3.org/2000/svg">
<path d="M108.004 107.903C91.156 93.0674 75.081 88.3414 75.081 88.3414L65.802 88.5434C63.498 87.9894 61.11 87.6914 58.659 87.6914C58.563 87.6914 58.469 87.6994 58.374 87.7004C58.278 87.6994 58.185 87.6914 58.089 87.6914C55.638 87.6914 53.249 87.9894 50.946 88.5434L41.667 88.3414C41.667 88.3414 25.592 93.0674 8.74399 107.903C8.74399 107.903 -2.505 109.528 1.088 116.551C4.681 123.574 12.257 121.871 13.859 118.558C13.859 118.558 22.391 117.642 30.843 115.727C29.537 118.358 28.032 121.911 27.722 124.379C23.918 154.637 32.32 166.67 39.654 181.72C40.864 184.203 40.173 184.987 38.902 185.695C33.496 188.707 32.544 189.027 32.328 190.203C32.168 191.073 32.817 191.928 33.618 192.301C34.712 192.811 34.147 192.683 53.521 192.637C54.641 192.634 56.047 192.432 56.37 191.36C56.49 190.962 56.416 190.535 56.342 190.126C55.55 185.789 54.867 181.58 54.666 177.17C54.614 176.023 54.42 163.462 54.741 163.462C56.128 163.614 57.191 163.652 58.376 163.64C59.561 163.652 60.624 163.614 62.011 163.462C62.332 163.462 62.138 176.023 62.086 177.17C61.885 181.58 61.201 185.789 60.41 190.126C60.335 190.535 60.262 190.962 60.382 191.36C60.705 192.432 62.112 192.635 63.231 192.637C82.605 192.683 82.04 192.812 83.134 192.301C83.935 191.927 84.585 191.072 84.424 190.203C84.207 189.027 83.256 188.707 77.85 185.695C76.579 184.987 75.888 184.203 77.098 181.72C84.432 166.669 92.834 154.637 89.03 124.379C88.72 121.911 87.214 118.358 85.908 115.727C94.36 117.642 102.892 118.558 102.892 118.558C104.494 121.871 112.069 123.574 115.663 116.551C119.254 109.528 108.004 107.903 108.004 107.903Z" fill="#E8CEBA"/>
<path d="M108.64 108.019C108.246 107.939 108.004 107.903 108.004 107.903C91.156 93.0674 75.0809 88.3414 75.0809 88.3414L65.802 88.5434C63.498 87.9894 61.11 87.6914 58.659 87.6914C58.563 87.6914 58.4689 87.6994 58.3739 87.7004C58.2779 87.6994 58.1849 87.6914 58.0889 87.6914C55.6379 87.6914 53.25 87.9894 50.946 88.5434L41.6669 88.3414C41.6669 88.3414 25.5919 93.0674 8.74394 107.903C8.74394 107.903 8.70195 107.909 8.62695 107.922C10.791 111.57 12.077 115.527 13.075 119.623C13.402 119.295 13.6739 118.939 13.8579 118.558C13.8579 118.558 22.3889 117.642 30.8419 115.727C29.5359 118.358 28.0309 121.911 27.7209 124.379C23.9169 154.637 32.319 166.67 39.653 181.72C40.863 184.203 40.1719 184.987 38.9009 185.695C33.4949 188.707 32.5429 189.027 32.327 190.203C32.167 191.073 32.8159 191.928 33.6169 192.301C34.7109 192.811 34.1459 192.683 53.5199 192.637C54.6399 192.634 56.0459 192.432 56.3689 191.36C56.4889 190.962 56.4149 190.535 56.3409 190.126C55.5489 185.789 54.8659 181.58 54.6649 177.17C54.6129 176.023 54.4189 163.462 54.7399 163.462C56.1269 163.614 57.19 163.652 58.375 163.64C59.56 163.652 60.6229 163.614 62.0099 163.462C62.3309 163.462 62.1369 176.023 62.0849 177.17C61.8839 181.58 61.201 185.789 60.409 190.126C60.334 190.535 60.261 190.962 60.381 191.36C60.704 192.432 62.111 192.635 63.2299 192.637C82.604 192.683 82.0389 192.812 83.1319 192.301C83.9329 191.927 84.583 191.072 84.423 190.203C84.206 189.027 83.255 188.707 77.849 185.695C76.5779 184.987 75.8869 184.203 77.0969 181.72C84.4309 166.669 92.8329 154.637 89.0289 124.379C88.7189 121.911 87.2129 118.358 85.9069 115.727C92.1479 117.141 98.4219 118.009 101.283 118.367C102.671 114.275 105.151 110.677 108.64 108.019Z" fill="#56A2B2"/>
<path d="M48.5381 147.258C47.6841 147.134 46.9461 146.598 46.5641 145.824C46.2031 145.093 45.5871 144.637 44.9071 144.454C44.6801 144.393 44.4471 144.363 44.2131 144.363C43.2781 144.363 42.3431 144.85 41.8621 145.824C41.4801 146.598 40.7421 147.134 39.8881 147.258C37.7381 147.57 36.8791 150.213 38.4351 151.729C39.0531 152.331 39.3351 153.199 39.1891 154.049C38.8221 156.19 41.0691 157.823 42.9921 156.812C43.3741 156.611 43.7931 156.511 44.2121 156.511C44.4211 156.511 44.6311 156.536 44.8361 156.586C45.0411 156.636 45.2411 156.711 45.4321 156.812C46.6341 157.444 47.9631 157.043 48.7011 156.131C49.1441 155.584 49.3741 154.852 49.2361 154.049C49.0901 153.199 49.3721 152.331 49.9901 151.729C51.5461 150.213 50.6881 147.571 48.5381 147.258Z" fill="#FCCD04"/>
<path d="M39.9078 164.043C39.5488 163.728 39.0928 163.504 38.5548 163.426C37.7008 163.302 36.9628 162.766 36.5808 161.992C35.6188 160.044 32.8408 160.044 31.8798 161.992C31.6638 162.43 31.3258 162.779 30.9258 163.033C32.2038 166.519 33.6848 169.74 35.2408 172.902C35.3098 172.931 35.3828 172.946 35.4498 172.981C37.3728 173.992 39.6208 172.359 39.2528 170.218C39.1068 169.368 39.3888 168.5 40.0068 167.898C41.1748 166.76 40.9838 164.989 39.9078 164.043Z" fill="#FCCD04"/>
<path d="M28.7758 140.648C29.5398 140.247 30.4518 140.247 31.2158 140.648C33.1388 141.659 35.3868 140.026 35.0188 137.885C34.8728 137.035 35.1548 136.167 35.7728 135.565C37.3288 134.048 36.4698 131.406 34.3198 131.094C33.4658 130.97 32.7278 130.434 32.3458 129.66C31.3838 127.712 28.6058 127.712 27.6448 129.66C27.5108 129.932 27.3208 130.161 27.1088 130.366C26.8118 134.149 26.7248 137.621 26.8108 140.839C27.4268 141.025 28.1188 140.994 28.7758 140.648Z" fill="#FCCD04"/>
<path d="M20.1027 114.926C19.2487 114.802 18.5107 114.266 18.1287 113.492C17.1667 111.544 14.3887 111.544 13.4277 113.492C13.0867 114.182 12.4567 114.666 11.7197 114.854C12.2397 116.416 12.6817 118.009 13.0747 119.626C13.4017 119.298 13.6737 118.942 13.8577 118.561C13.8577 118.561 17.4837 118.17 22.3407 117.37C22.2677 116.208 21.4347 115.12 20.1027 114.926Z" fill="#FCCD04"/>
<path d="M44.3027 114.926C43.4487 114.802 42.7107 114.266 42.3287 113.492C41.3667 111.544 38.5887 111.544 37.6277 113.492C37.2457 114.266 36.5077 114.802 35.6537 114.926C33.5037 115.238 32.6447 117.881 34.2007 119.397C34.8187 119.999 35.1007 120.867 34.9547 121.717C34.5877 123.858 36.8347 125.491 38.7577 124.48C39.5217 124.079 40.4337 124.079 41.1977 124.48C43.1207 125.491 45.3687 123.858 45.0007 121.717C44.8547 120.867 45.1367 119.999 45.7547 119.397C47.3107 117.881 46.4527 115.239 44.3027 114.926Z" fill="#FCCD04"/>
<path d="M77.9577 179.972C77.6667 179.794 77.3477 179.649 76.9717 179.594C76.1177 179.47 75.3797 178.934 74.9977 178.16C74.0367 176.212 71.2577 176.212 70.2967 178.16C69.9147 178.934 69.1767 179.47 68.3227 179.594C66.1727 179.906 65.3137 182.549 66.8697 184.065C67.4877 184.667 67.7697 185.535 67.6237 186.385C67.2567 188.526 69.5037 190.159 71.4267 189.148C72.1907 188.746 73.1027 188.746 73.8667 189.148C75.7897 190.159 78.0377 188.526 77.6697 186.385C77.6237 186.117 77.6347 185.85 77.6707 185.588C76.5197 184.904 75.9437 184.081 77.0937 181.72C77.3817 181.133 77.6697 180.551 77.9577 179.972Z" fill="#FCCD04"/>
<path d="M62.7549 163.426C61.9009 163.302 61.1629 162.766 60.7809 161.992C59.8189 160.044 57.0409 160.044 56.0799 161.992C55.6979 162.766 54.9599 163.302 54.1059 163.426C51.9559 163.738 51.0969 166.381 52.6529 167.897C53.2709 168.499 53.5529 169.367 53.4069 170.217C53.2129 171.349 53.7519 172.334 54.5859 172.867C54.5389 168.829 54.5289 163.461 54.7389 163.461C56.1259 163.613 57.1889 163.651 58.3739 163.639C59.5589 163.651 60.6219 163.613 62.0089 163.461C62.2199 163.461 62.2079 168.893 62.1609 172.939C63.0589 172.427 63.6569 171.401 63.4539 170.217C63.3079 169.367 63.5899 168.499 64.2079 167.897C65.7639 166.38 64.9049 163.738 62.7549 163.426Z" fill="#FCCD04"/>
<path d="M54.9198 89.3804C54.5528 91.5214 56.7998 93.1544 58.7228 92.1434C59.4868 91.7424 60.3988 91.7424 61.1628 92.1434C63.0858 93.1544 65.3338 91.5214 64.9658 89.3804C64.9078 89.0414 64.9358 88.7034 65.0078 88.3764C62.9498 87.9374 60.8308 87.6914 58.6588 87.6914C58.5628 87.6914 58.4688 87.6994 58.3738 87.7004C58.2778 87.6994 58.1848 87.6914 58.0888 87.6914C56.9498 87.6914 55.8268 87.7624 54.7178 87.8864C54.9228 88.3524 55.0078 88.8664 54.9198 89.3804Z" fill="#FCCD04"/>
<path d="M52.7725 179.594C51.9185 179.47 51.1805 178.934 50.7985 178.16C49.8365 176.212 47.0585 176.212 46.0975 178.16C45.7155 178.934 44.9775 179.47 44.1235 179.594C41.9735 179.906 41.1145 182.549 42.6705 184.065C43.2885 184.667 43.5705 185.535 43.4245 186.385C43.0575 188.526 45.3045 190.159 47.2275 189.148C47.9915 188.746 48.9035 188.746 49.6675 189.148C51.5905 190.159 53.8385 188.526 53.4705 186.385C53.3245 185.535 53.6065 184.667 54.2245 184.065C55.7805 182.549 54.9225 179.907 52.7725 179.594Z" fill="#FCCD04"/>
<path d="M82.9225 92.1429C83.2065 91.9929 83.5135 91.9189 83.8235 91.8799C81.9965 91.0109 80.3965 90.323 79.0805 89.793C79.0465 91.723 81.1255 93.0879 82.9225 92.1429Z" fill="#FCCD04"/>
<path d="M52.9755 140.648C53.7395 140.247 54.6515 140.247 55.4155 140.648C57.3385 141.659 59.5865 140.026 59.2185 137.885C59.0725 137.035 59.3545 136.167 59.9725 135.565C60.1675 135.375 60.3235 135.168 60.4455 134.95C60.6875 134.514 60.7885 134.035 60.7635 133.566C60.7025 132.394 59.8635 131.289 58.5195 131.094C57.6655 130.97 56.9275 130.434 56.5455 129.66C55.5835 127.712 52.8055 127.712 51.8445 129.66C51.4625 130.434 50.7245 130.97 49.8705 131.094C47.7205 131.406 46.8615 134.049 48.4175 135.565C49.0355 136.167 49.3175 137.035 49.1715 137.885C48.8045 140.027 51.0525 141.66 52.9755 140.648Z" fill="#FCCD04"/>
<path d="M47.6101 97.325C47.2281 98.099 46.4901 98.635 45.6361 98.759C43.4861 99.071 42.6272 101.714 44.1832 103.23C44.8012 103.832 45.0832 104.7 44.9372 105.55C44.5702 107.691 46.8171 109.324 48.7401 108.313C49.5041 107.911 50.4162 107.911 51.1802 108.313C53.1032 109.324 55.3511 107.691 54.9831 105.55C54.8371 104.7 55.1192 103.832 55.7372 103.23C57.2932 101.713 56.4342 99.071 54.2842 98.759C53.4302 98.635 52.6922 98.099 52.3102 97.325C51.3502 95.376 48.5721 95.376 47.6101 97.325Z" fill="#FCCD04"/>
<path d="M94.0355 98.7569C91.8855 99.0689 91.0266 101.712 92.5826 103.228C93.2006 103.83 93.4826 104.698 93.3366 105.548C92.9696 107.689 95.2166 109.322 97.1396 108.311C97.9036 107.909 98.8156 107.909 99.5796 108.311C101.503 109.322 103.751 107.689 103.383 105.548C103.303 105.079 103.364 104.609 103.528 104.177C100.672 101.926 97.8815 99.9619 95.2295 98.2539C94.8845 98.5139 94.4765 98.6919 94.0355 98.7569Z" fill="#FCCD04"/>
<path d="M71.8094 97.325C71.5234 97.905 71.0364 98.352 70.4504 98.591C70.2554 98.671 70.0494 98.728 69.8354 98.759C67.6854 99.071 66.8264 101.714 68.3824 103.23C69.0004 103.832 69.2824 104.7 69.1364 105.55C68.7694 107.691 71.0164 109.324 72.9394 108.313C73.3214 108.112 73.7404 108.012 74.1594 108.012C74.3694 108.012 74.5784 108.037 74.7834 108.087C74.9884 108.137 75.1884 108.212 75.3794 108.313C77.3024 109.324 79.5504 107.691 79.1824 105.55C79.1094 105.125 79.1434 104.695 79.2734 104.297C79.4024 103.899 79.6274 103.531 79.9364 103.23C81.4924 101.713 80.6334 99.071 78.4834 98.759C77.6294 98.635 76.8914 98.099 76.5094 97.325C75.5494 95.376 72.7704 95.376 71.8094 97.325Z" fill="#FCCD04"/>
<path d="M23.41 97.3243C23.028 98.0983 22.29 98.6343 21.436 98.7583C19.286 99.0703 18.427 101.713 19.983 103.229C20.601 103.831 20.883 104.699 20.737 105.549C20.37 107.69 22.617 109.323 24.54 108.312C25.304 107.91 26.216 107.91 26.98 108.312C28.903 109.323 31.151 107.69 30.784 105.549C30.638 104.699 30.92 103.831 31.538 103.229C33.094 101.712 32.235 99.0703 30.085 98.7583C29.231 98.6343 28.493 98.0983 28.111 97.3243C27.551 96.1903 26.379 95.7373 25.306 95.9233C24.785 96.2283 24.257 96.5443 23.721 96.8713C23.61 97.0133 23.496 97.1513 23.41 97.3243Z" fill="#FCCD04"/>
<path d="M32.2344 92.2117C32.9224 92.5237 33.7484 92.5507 34.5234 92.1427C35.2874 91.7417 36.1994 91.7417 36.9634 92.1427C38.8864 93.1537 41.1344 91.5207 40.7664 89.3797C40.7234 89.1307 40.7284 88.8817 40.7564 88.6367C39.3284 89.1227 36.2894 90.2437 32.2344 92.2117Z" fill="#FCCD04"/>
<path d="M80.7457 129.66C79.7837 127.712 77.0057 127.712 76.0447 129.66C75.6627 130.434 74.9247 130.97 74.0707 131.094C71.9207 131.406 71.0617 134.049 72.6177 135.565C73.2357 136.167 73.5177 137.035 73.3717 137.885C73.0047 140.026 75.2517 141.659 77.1747 140.648C77.9387 140.247 78.8507 140.247 79.6147 140.648C81.5377 141.659 83.7857 140.026 83.4177 137.885C83.2717 137.035 83.5537 136.167 84.1717 135.565C85.7277 134.048 84.8687 131.406 82.7187 131.094C81.8657 130.97 81.1277 130.433 80.7457 129.66Z" fill="#FCCD04"/>
<path d="M88.2875 147.259C86.1375 147.571 85.2785 150.214 86.8345 151.73C87.4525 152.332 87.7345 153.2 87.5885 154.05C87.4665 154.764 87.6385 155.418 87.9885 155.94C88.6865 153.093 89.2295 150.031 89.5695 146.676C89.2045 146.977 88.7695 147.189 88.2875 147.259Z" fill="#FCCD04"/>
<path d="M67.1923 156.816C67.9563 156.415 68.8683 156.415 69.6323 156.816C71.5553 157.827 73.8033 156.194 73.4353 154.053C73.2893 153.203 73.5713 152.335 74.1893 151.733C75.7453 150.216 74.8863 147.574 72.7363 147.262C71.8823 147.138 71.1443 146.602 70.7623 145.828C69.8003 143.88 67.0223 143.88 66.0613 145.828C65.6793 146.602 64.9413 147.138 64.0873 147.262C61.9373 147.574 61.0783 150.217 62.6343 151.733C63.2523 152.335 63.5343 153.203 63.3883 154.053C63.0223 156.194 65.2693 157.827 67.1923 156.816Z" fill="#FCCD04"/>
<path d="M70.7459 117.395C70.6979 116.458 70.1509 115.563 69.2459 115.142C69.0199 115.037 68.7709 114.961 68.5029 114.922C67.6489 114.798 66.9109 114.262 66.5289 113.488C65.5669 111.54 62.7889 111.54 61.8279 113.488C61.6369 113.875 61.3569 114.202 61.0179 114.449C60.6789 114.695 60.2809 114.86 59.8539 114.922C57.7039 115.234 56.8449 117.877 58.4009 119.393C59.0189 119.995 59.3009 120.863 59.1549 121.713C58.7879 123.854 61.0349 125.487 62.9579 124.476C63.7219 124.075 64.6339 124.075 65.3979 124.476C67.3209 125.487 69.5689 123.854 69.2009 121.713C69.0549 120.863 69.3369 119.995 69.9549 119.393C70.5389 118.826 70.7829 118.099 70.7459 117.395Z" fill="#FCCD04"/>
<path d="M84.9811 161.992C84.0191 160.044 81.2411 160.044 80.2801 161.992C79.8981 162.766 79.1601 163.302 78.3061 163.426C76.1561 163.738 75.2971 166.381 76.8531 167.897C77.4711 168.499 77.7531 169.367 77.6071 170.217C77.2401 172.358 79.4871 173.991 81.4101 172.98C81.4321 172.968 81.4571 172.965 81.4801 172.954C83.0541 169.76 84.5511 166.506 85.8401 162.98C85.4811 162.73 85.1811 162.396 84.9811 161.992Z" fill="#FCCD04"/>
<path d="M92.7021 114.926C91.8481 114.802 91.1101 114.266 90.7281 113.492C89.7661 111.544 86.9882 111.544 86.0272 113.492C85.6452 114.266 84.9071 114.802 84.0531 114.926C81.9031 115.238 81.0442 117.881 82.6002 119.397C83.2182 119.999 83.5002 120.867 83.3542 121.717C82.9872 123.858 85.2341 125.491 87.1571 124.48C87.7311 124.178 88.3892 124.104 89.0052 124.256C88.6632 121.794 87.1901 118.317 85.9051 115.728C89.0571 116.442 92.2152 117.017 94.9402 117.457C94.9062 116.264 94.0691 115.125 92.7021 114.926Z" fill="#FCCD04"/>
<path d="M58.3736 99.0508C56.6126 99.0508 55.1855 100.479 55.1855 102.239C55.1855 104 56.6126 105.427 58.3736 105.427C60.1346 105.427 61.5616 104 61.5616 102.239C61.5616 100.479 60.1346 99.0508 58.3736 99.0508ZM57.4496 103.736C57.1206 103.736 56.8535 103.469 56.8535 103.14C56.8535 102.811 57.1206 102.544 57.4496 102.544C57.7786 102.544 58.0455 102.811 58.0455 103.14C58.0455 103.469 57.7786 103.736 57.4496 103.736ZM57.4496 101.935C57.1206 101.935 56.8535 101.668 56.8535 101.339C56.8535 101.01 57.1206 100.743 57.4496 100.743C57.7786 100.743 58.0455 101.01 58.0455 101.339C58.0455 101.669 57.7786 101.935 57.4496 101.935ZM59.2975 103.736C58.9685 103.736 58.7016 103.469 58.7016 103.14C58.7016 102.811 58.9685 102.544 59.2975 102.544C59.6265 102.544 59.8936 102.811 59.8936 103.14C59.8936 103.469 59.6265 103.736 59.2975 103.736ZM59.2975 101.935C58.9685 101.935 58.7016 101.668 58.7016 101.339C58.7016 101.01 58.9685 100.743 59.2975 100.743C59.6265 100.743 59.8936 101.01 59.8936 101.339C59.8936 101.669 59.6265 101.935 59.2975 101.935Z" fill="#32355B"/>
<path d="M57.1252 103.543L57.0703 103.488C56.8933 103.312 56.8933 103.026 57.0703 102.849L58.9822 100.937C59.1582 100.761 59.4452 100.761 59.6212 100.937L59.6762 100.992C59.8532 101.169 59.8532 101.455 59.6762 101.631L57.7643 103.543C57.5883 103.719 57.3022 103.719 57.1252 103.543Z" fill="#FCCD04"/>
<path d="M59.6212 103.543L59.6762 103.488C59.8532 103.312 59.8532 103.026 59.6762 102.849L57.7643 100.937C57.5883 100.761 57.3012 100.761 57.1252 100.937L57.0703 100.992C56.8933 101.169 56.8933 101.455 57.0703 101.631L58.9822 103.543C59.1582 103.719 59.4442 103.719 59.6212 103.543Z" fill="#FCCD04"/>
<path d="M58.3736 109.496C56.6126 109.496 55.1855 110.924 55.1855 112.684C55.1855 114.445 56.6126 115.872 58.3736 115.872C60.1346 115.872 61.5616 114.445 61.5616 112.684C61.5616 110.924 60.1346 109.496 58.3736 109.496ZM57.4496 114.181C57.1206 114.181 56.8535 113.914 56.8535 113.585C56.8535 113.256 57.1206 112.989 57.4496 112.989C57.7786 112.989 58.0455 113.256 58.0455 113.585C58.0455 113.914 57.7786 114.181 57.4496 114.181ZM57.4496 112.38C57.1206 112.38 56.8535 112.113 56.8535 111.784C56.8535 111.455 57.1206 111.188 57.4496 111.188C57.7786 111.188 58.0455 111.455 58.0455 111.784C58.0455 112.113 57.7786 112.38 57.4496 112.38ZM59.2975 114.181C58.9685 114.181 58.7016 113.914 58.7016 113.585C58.7016 113.256 58.9685 112.989 59.2975 112.989C59.6265 112.989 59.8936 113.256 59.8936 113.585C59.8936 113.914 59.6265 114.181 59.2975 114.181ZM59.2975 112.38C58.9685 112.38 58.7016 112.113 58.7016 111.784C58.7016 111.455 58.9685 111.188 59.2975 111.188C59.6265 111.188 59.8936 111.455 59.8936 111.784C59.8936 112.113 59.6265 112.38 59.2975 112.38Z" fill="#32355B"/>
<path d="M57.1252 113.988L57.0703 113.933C56.8933 113.757 56.8933 113.471 57.0703 113.294L58.9822 111.382C59.1582 111.206 59.4452 111.206 59.6212 111.382L59.6762 111.437C59.8532 111.613 59.8532 111.899 59.6762 112.076L57.7643 113.988C57.5883 114.164 57.3022 114.164 57.1252 113.988Z" fill="#FCCD04"/>
<path d="M59.6212 113.988L59.6762 113.933C59.8532 113.757 59.8532 113.471 59.6762 113.294L57.7643 111.382C57.5883 111.206 57.3012 111.206 57.1252 111.382L57.0703 111.437C56.8933 111.613 56.8933 111.899 57.0703 112.076L58.9822 113.988C59.1582 114.164 59.4442 114.164 59.6212 113.988Z" fill="#FCCD04"/>
<path d="M58.3736 119.945C56.6126 119.945 55.1855 121.373 55.1855 123.133C55.1855 124.894 56.6126 126.321 58.3736 126.321C60.1346 126.321 61.5616 124.894 61.5616 123.133C61.5616 121.373 60.1346 119.945 58.3736 119.945ZM57.4496 124.63C57.1206 124.63 56.8535 124.363 56.8535 124.034C56.8535 123.705 57.1206 123.438 57.4496 123.438C57.7786 123.438 58.0455 123.705 58.0455 124.034C58.0455 124.363 57.7786 124.63 57.4496 124.63ZM57.4496 122.829C57.1206 122.829 56.8535 122.562 56.8535 122.233C56.8535 121.904 57.1206 121.637 57.4496 121.637C57.7786 121.637 58.0455 121.904 58.0455 122.233C58.0455 122.562 57.7786 122.829 57.4496 122.829ZM59.2975 124.63C58.9685 124.63 58.7016 124.363 58.7016 124.034C58.7016 123.705 58.9685 123.438 59.2975 123.438C59.6265 123.438 59.8936 123.705 59.8936 124.034C59.8936 124.363 59.6265 124.63 59.2975 124.63ZM59.2975 122.829C58.9685 122.829 58.7016 122.562 58.7016 122.233C58.7016 121.904 58.9685 121.637 59.2975 121.637C59.6265 121.637 59.8936 121.904 59.8936 122.233C59.8936 122.562 59.6265 122.829 59.2975 122.829Z" fill="#32355B"/>
<path d="M57.1252 124.437L57.0703 124.382C56.8933 124.206 56.8933 123.92 57.0703 123.743L58.9822 121.831C59.1582 121.655 59.4452 121.655 59.6212 121.831L59.6762 121.886C59.8532 122.062 59.8532 122.348 59.6762 122.525L57.7643 124.437C57.5883 124.614 57.3022 124.614 57.1252 124.437Z" fill="#FCCD04"/>
<path d="M59.6212 124.437L59.6762 124.382C59.8532 124.206 59.8532 123.92 59.6762 123.743L57.7643 121.831C57.5883 121.655 57.3012 121.655 57.1252 121.831L57.0703 121.886C56.8933 122.062 56.8933 122.348 57.0703 122.525L58.9822 124.437C59.1582 124.614 59.4442 124.614 59.6212 124.437Z" fill="#FCCD04"/>
<path d="M23.6954 59.2453C23.7274 63.6963 20.4834 66.9403 16.0324 66.9083C11.5814 66.9403 8.33738 63.6963 8.36938 59.2453C8.33738 54.7943 11.5814 51.5503 16.0324 51.5823C20.4834 51.5503 23.7274 54.7933 23.6954 59.2453Z" fill="#E8CEBA"/>
<path d="M109.471 59.2453C109.503 63.6963 106.259 66.9403 101.808 66.9083C97.3568 66.9403 94.1128 63.6963 94.1448 59.2453C94.1128 54.7943 97.3568 51.5503 101.808 51.5823C106.259 51.5503 109.503 54.7933 109.471 59.2453Z" fill="#E8CEBA"/>
<path d="M105.301 46.4068C105.494 73.3478 85.8606 92.9808 58.9186 92.7888C31.9776 92.9818 12.3446 73.3478 12.5366 46.4068C12.3446 19.4658 31.9776 -0.167166 58.9186 0.0248335C85.8606 -0.167166 105.494 19.4658 105.301 46.4068Z" fill="#F7DCC6"/>
<path d="M77.8921 15.1759C84.6621 19.5349 92.3951 22.4689 100.334 24.2449C96.8931 17.3749 91.7921 11.6599 85.4511 7.50988C85.4551 7.50588 85.4591 7.50188 85.4621 7.49788C78.0791 2.66288 69.0121 -0.0481254 58.9191 0.0248746C39.1861 -0.116125 23.3861 10.3869 16.4131 26.5989C23.3481 26.7369 30.1381 26.0329 36.6081 23.0919C32.7741 28.0349 29.2991 30.7479 23.5701 32.8709C34.4351 31.7839 42.4741 32.1819 51.1671 25.6619C50.0651 28.7129 48.5341 30.2189 45.5731 32.9509C56.2981 30.0899 69.6821 22.7659 77.8921 15.1759Z" fill="#F9B233"/>
<path d="M54.665 67.3977C54.905 66.5217 55.503 65.8087 56.244 65.2747C56.994 64.7507 57.95 64.4377 58.915 64.4667C59.872 64.4967 60.819 64.7957 61.546 65.3377C61.931 65.5767 62.215 65.9417 62.519 66.2467C62.775 66.6117 63.009 66.9827 63.173 67.3967C62.712 67.3137 62.336 67.1667 61.955 67.0507C61.566 66.9607 61.216 66.8207 60.861 66.7537C60.166 66.5567 59.517 66.4987 58.884 66.4657C57.61 66.4137 56.328 66.8027 54.665 67.3977Z" fill="#E8CEBA"/>
<path d="M92.4221 68.2693C92.4221 70.7023 88.3541 72.6753 83.3351 72.6753C78.3161 72.6753 74.248 70.7023 74.248 68.2693C74.248 65.8363 78.3161 63.8633 83.3351 63.8633C88.3541 63.8633 92.4221 65.8363 92.4221 68.2693Z" fill="#EDBDA9"/>
<path d="M43.591 68.2693C43.591 70.7023 39.523 72.6753 34.504 72.6753C29.485 72.6753 25.417 70.7023 25.417 68.2693C25.417 65.8363 29.485 63.8633 34.504 63.8633C39.522 63.8633 43.591 65.8363 43.591 68.2693Z" fill="#EDBDA9"/>
<path d="M58.9198 73.5466C55.1848 72.3886 43.5078 64.0636 43.5078 79.0936C43.5078 93.5046 55.1438 83.8726 58.9198 82.5676C62.6948 83.8716 74.3318 93.5046 74.3318 79.0936C74.3308 64.0636 62.6548 72.3886 58.9198 73.5466ZM49.1818 84.3776C48.0598 84.3776 47.1498 83.4676 47.1498 82.3456C47.1498 81.2236 48.0598 80.3136 49.1818 80.3136C50.3038 80.3136 51.2138 81.2236 51.2138 82.3456C51.2138 83.4686 50.3038 84.3776 49.1818 84.3776ZM49.4338 76.7226C48.3118 76.7226 47.4018 75.8126 47.4018 74.6906C47.4018 73.5686 48.3118 72.6586 49.4338 72.6586C50.5558 72.6586 51.4658 73.5686 51.4658 74.6906C51.4658 75.8126 50.5558 76.7226 49.4338 76.7226ZM68.4048 72.6586C69.5268 72.6586 70.4368 73.5686 70.4368 74.6906C70.4368 75.8126 69.5268 76.7226 68.4048 76.7226C67.2828 76.7226 66.3738 75.8126 66.3738 74.6906C66.3738 73.5686 67.2828 72.6586 68.4048 72.6586ZM68.6568 84.3776C67.5348 84.3776 66.6248 83.4676 66.6248 82.3456C66.6248 81.2236 67.5348 80.3136 68.6568 80.3136C69.7788 80.3136 70.6888 81.2236 70.6888 82.3456C70.6888 83.4686 69.7788 84.3776 68.6568 84.3776Z" fill="#FCCD04"/>
<path d="M59.1088 93.1014C54.4358 93.1014 50.6328 89.2985 50.6328 84.6245C50.6328 79.9505 54.4358 76.1484 59.1088 76.1484C63.7828 76.1484 67.5858 79.9515 67.5858 84.6245C67.5858 89.2995 63.7828 93.1014 59.1088 93.1014ZM59.1088 78.1314C55.5288 78.1314 52.6158 81.0445 52.6158 84.6245C52.6158 88.2045 55.5288 91.1184 59.1088 91.1184C62.6898 91.1184 65.6028 88.2055 65.6028 84.6245C65.6028 81.0435 62.6898 78.1314 59.1088 78.1314Z" fill="#ED8A00"/>
<path d="M61.1884 81.5606H57.0284C55.3014 81.5606 53.9014 80.1606 53.9014 78.4336V77.8926C53.9014 76.1656 55.3014 74.7656 57.0284 74.7656H61.1884C62.9154 74.7656 64.3154 76.1656 64.3154 77.8926V78.4336C64.3154 80.1606 62.9154 81.5606 61.1884 81.5606Z" fill="#56A2B2"/>
<path d="M38.2193 56.4495C38.2193 59.2865 36.7873 61.5865 35.0203 61.5865C33.2543 61.5865 31.8213 59.2865 31.8213 56.4495C31.8213 53.6125 33.2533 51.3125 35.0203 51.3125C36.7873 51.3125 38.2193 53.6125 38.2193 56.4495Z" fill="#575756"/>
<path d="M86.0171 56.4495C86.0171 59.2865 84.5851 61.5865 82.8181 61.5865C81.0521 61.5865 79.6201 59.2865 79.6201 56.4495C79.6201 53.6125 81.0521 51.3125 82.8181 51.3125C84.5851 51.3125 86.0171 53.6125 86.0171 56.4495Z" fill="#575756"/>
<path d="M82.2784 57.4446C83.1322 57.4446 83.8244 56.4995 83.8244 55.3336C83.8244 54.1678 83.1322 53.2227 82.2784 53.2227C81.4246 53.2227 80.7324 54.1678 80.7324 55.3336C80.7324 56.4995 81.4246 57.4446 82.2784 57.4446Z" fill="#9D9D9C"/>
<path d="M34.4796 57.4446C35.3334 57.4446 36.0256 56.4995 36.0256 55.3336C36.0256 54.1678 35.3334 53.2227 34.4796 53.2227C33.6258 53.2227 32.9336 54.1678 32.9336 55.3336C32.9336 56.4995 33.6258 57.4446 34.4796 57.4446Z" fill="#9D9D9C"/>
</svg>
