<svg width="117" height="210" viewBox="0 0 117 210" fill="none" xmlns="http://www.w3.org/2000/svg">
<path d="M107.833 124.665C90.9854 109.829 74.9104 105.103 74.9104 105.103L65.6314 105.305C63.3274 104.751 60.9394 104.453 58.4884 104.453C58.3924 104.453 58.2994 104.461 58.2034 104.462C58.1084 104.461 58.0144 104.453 57.9184 104.453C55.4674 104.453 53.0784 104.751 50.7754 105.305L41.4964 105.103C41.4964 105.103 25.4214 109.829 8.57342 124.665C8.57342 124.665 -2.67659 126.29 0.917412 133.313C4.51041 140.336 12.0864 138.633 13.6884 135.32C13.6884 135.32 22.2194 134.404 30.6724 132.489C29.3664 135.12 27.8614 138.673 27.5504 141.141C23.7464 171.399 32.1484 183.431 39.4824 198.482C40.6924 200.965 40.0014 201.749 38.7304 202.457C33.3244 205.469 32.3724 205.789 32.1564 206.965C31.9964 207.835 32.6454 208.69 33.4464 209.064C34.5404 209.574 33.9754 209.445 53.3494 209.4C54.4694 209.397 55.8754 209.195 56.1984 208.123C56.3184 207.725 56.2444 207.298 56.1704 206.889C55.3784 202.552 54.6954 198.343 54.4944 193.933C54.4424 192.786 54.2484 180.225 54.5694 180.225C55.9564 180.377 57.0194 180.415 58.2044 180.403C59.3894 180.414 60.4534 180.377 61.8394 180.225C62.1604 180.225 61.9664 192.786 61.9144 193.933C61.7134 198.343 61.0304 202.552 60.2384 206.889C60.1634 207.298 60.0904 207.725 60.2104 208.123C60.5334 209.195 61.9404 209.398 63.0604 209.4C82.4344 209.446 81.8694 209.575 82.9624 209.064C83.7634 208.69 84.4134 207.835 84.2524 206.965C84.0354 205.789 83.0844 205.469 77.6784 202.457C76.4074 201.749 75.7164 200.965 76.9264 198.482C84.2604 183.431 92.6624 171.399 88.8584 141.141C88.5484 138.673 87.0424 135.12 85.7364 132.489C94.1884 134.404 102.72 135.32 102.72 135.32C104.322 138.633 111.897 140.336 115.491 133.313C119.083 126.29 107.833 124.665 107.833 124.665Z" fill="#E8CEBA"/>
<path d="M107.833 124.665C90.985 109.829 74.91 105.103 74.91 105.103L65.631 105.305C63.327 104.751 60.939 104.453 58.488 104.453C58.392 104.453 58.298 104.461 58.203 104.462C58.108 104.461 58.014 104.453 57.918 104.453C55.467 104.453 53.078 104.751 50.775 105.305L41.496 105.103C41.496 105.103 25.421 109.829 8.57297 124.665C8.57297 124.665 8.40698 124.689 8.12598 124.743C9.60698 128.853 11.688 132.197 14.374 135.24C16.542 134.984 23.624 134.084 30.67 132.487C29.364 135.118 27.859 138.671 27.548 141.139C23.745 171.397 32.146 183.429 39.4799 198.48C40.6899 200.963 39.999 201.747 38.728 202.455C33.322 205.467 32.37 205.787 32.154 206.963C31.994 207.833 32.643 208.688 33.444 209.062C34.538 209.572 33.973 209.443 53.347 209.398C54.467 209.395 55.873 209.193 56.196 208.121C56.316 207.723 56.242 207.296 56.168 206.887C55.376 202.55 54.693 198.341 54.492 193.931C54.44 192.784 54.246 180.223 54.567 180.223C55.954 180.375 57.017 180.413 58.202 180.401C59.387 180.412 60.451 180.375 61.837 180.223C62.158 180.223 61.964 192.784 61.912 193.931C61.711 198.341 61.028 202.55 60.236 206.887C60.161 207.296 60.088 207.723 60.208 208.121C60.531 209.193 61.938 209.396 63.058 209.398C82.432 209.444 81.867 209.573 82.96 209.062C83.761 208.688 84.411 207.833 84.25 206.963C84.033 205.787 83.082 205.467 77.676 202.455C76.405 201.747 75.714 200.963 76.924 198.48C84.2579 183.429 92.66 171.397 88.856 141.139C88.546 138.671 87.04 135.118 85.735 132.487C93.256 134.191 100.823 135.103 102.403 135.283C104.725 131.807 107.249 128.701 108.446 124.775C108.066 124.699 107.833 124.665 107.833 124.665Z" fill="#FA8F9F"/>
<path d="M58.2036 115.258C56.4426 115.258 55.0156 116.685 55.0156 118.446C55.0156 120.207 56.4426 121.634 58.2036 121.634C59.9646 121.634 61.3916 120.207 61.3916 118.446C61.3916 116.685 59.9646 115.258 58.2036 115.258ZM57.2796 119.943C56.9506 119.943 56.6836 119.676 56.6836 119.347C56.6836 119.018 56.9506 118.751 57.2796 118.751C57.6086 118.751 57.8756 119.018 57.8756 119.347C57.8756 119.676 57.6096 119.943 57.2796 119.943ZM57.2796 118.142C56.9506 118.142 56.6836 117.875 56.6836 117.546C56.6836 117.217 56.9506 116.95 57.2796 116.95C57.6086 116.95 57.8756 117.217 57.8756 117.546C57.8756 117.875 57.6096 118.142 57.2796 118.142ZM59.1276 119.943C58.7986 119.943 58.5316 119.676 58.5316 119.347C58.5316 119.018 58.7986 118.751 59.1276 118.751C59.4566 118.751 59.7236 119.018 59.7236 119.347C59.7236 119.676 59.4566 119.943 59.1276 119.943ZM59.1276 118.142C58.7986 118.142 58.5316 117.875 58.5316 117.546C58.5316 117.217 58.7986 116.95 59.1276 116.95C59.4566 116.95 59.7236 117.217 59.7236 117.546C59.7236 117.875 59.4566 118.142 59.1276 118.142Z" fill="#FFDA6E"/>
<path d="M56.9555 119.75L56.9006 119.695C56.7246 119.519 56.7246 119.233 56.9006 119.056L58.8125 117.144C58.9885 116.968 59.2755 116.968 59.4515 117.144L59.5065 117.199C59.6825 117.375 59.6825 117.662 59.5065 117.838L57.5946 119.75C57.4186 119.927 57.1325 119.927 56.9555 119.75Z" fill="#F09928"/>
<path d="M59.4515 119.75L59.5065 119.695C59.6825 119.519 59.6825 119.233 59.5065 119.056L57.5946 117.144C57.4186 116.968 57.1325 116.968 56.9555 117.144L56.9006 117.199C56.7246 117.375 56.7246 117.662 56.9006 117.838L58.8125 119.75C58.9885 119.927 59.2745 119.927 59.4515 119.75Z" fill="#F09928"/>
<path d="M58.2036 123.914C56.4426 123.914 55.0156 125.341 55.0156 127.102C55.0156 128.863 56.4426 130.29 58.2036 130.29C59.9646 130.29 61.3916 128.863 61.3916 127.102C61.3916 125.341 59.9646 123.914 58.2036 123.914ZM57.2796 128.599C56.9506 128.599 56.6836 128.332 56.6836 128.003C56.6836 127.674 56.9506 127.407 57.2796 127.407C57.6086 127.407 57.8756 127.674 57.8756 128.003C57.8756 128.332 57.6096 128.599 57.2796 128.599ZM57.2796 126.798C56.9506 126.798 56.6836 126.531 56.6836 126.202C56.6836 125.873 56.9506 125.606 57.2796 125.606C57.6086 125.606 57.8756 125.873 57.8756 126.202C57.8756 126.531 57.6096 126.798 57.2796 126.798ZM59.1276 128.599C58.7986 128.599 58.5316 128.332 58.5316 128.003C58.5316 127.674 58.7986 127.407 59.1276 127.407C59.4566 127.407 59.7236 127.674 59.7236 128.003C59.7236 128.332 59.4566 128.599 59.1276 128.599ZM59.1276 126.798C58.7986 126.798 58.5316 126.531 58.5316 126.202C58.5316 125.873 58.7986 125.606 59.1276 125.606C59.4566 125.606 59.7236 125.873 59.7236 126.202C59.7236 126.531 59.4566 126.798 59.1276 126.798Z" fill="#FFDA6E"/>
<path d="M56.9555 128.406L56.9006 128.351C56.7246 128.175 56.7246 127.889 56.9006 127.712L58.8125 125.8C58.9885 125.624 59.2755 125.624 59.4515 125.8L59.5065 125.855C59.6825 126.031 59.6825 126.318 59.5065 126.494L57.5946 128.406C57.4186 128.582 57.1325 128.582 56.9555 128.406Z" fill="#F09928"/>
<path d="M59.4515 128.406L59.5065 128.351C59.6825 128.175 59.6825 127.889 59.5065 127.712L57.5946 125.8C57.4186 125.624 57.1325 125.624 56.9555 125.8L56.9006 125.855C56.7246 126.031 56.7246 126.318 56.9006 126.494L58.8125 128.406C58.9885 128.582 59.2745 128.582 59.4515 128.406Z" fill="#F09928"/>
<path d="M26.429 151.516C26.429 151.516 57.9599 161.173 89.7299 151.516L110.878 169.14C110.878 169.14 51.849 183.625 8.12695 169.14L26.429 151.516Z" fill="#D97179"/>
<path d="M23.5245 76.007C23.5565 80.458 20.3125 83.702 15.8615 83.67C11.4105 83.702 8.16648 80.458 8.19848 76.007C8.16648 71.556 11.4105 68.312 15.8615 68.344C20.3125 68.313 23.5565 71.556 23.5245 76.007Z" fill="#E8CEBA"/>
<path d="M109.3 76.007C109.332 80.458 106.088 83.702 101.637 83.67C97.1859 83.702 93.9419 80.458 93.9739 76.007C93.9419 71.556 97.1859 68.312 101.637 68.344C106.089 68.313 109.332 71.556 109.3 76.007Z" fill="#E8CEBA"/>
<path d="M105.131 63.1686C105.323 90.1096 85.6906 109.743 58.7486 109.551C31.8076 109.744 12.1746 90.1096 12.3666 63.1686C12.1736 36.2276 31.8066 16.5946 58.7486 16.7866C85.6906 16.5946 105.324 36.2276 105.131 63.1686Z" fill="#F7DCC6"/>
<path d="M54.4941 84.1555C54.7341 83.2795 55.3322 82.5665 56.0732 82.0325C56.8232 81.5085 57.7801 81.1955 58.7441 81.2245C59.7011 81.2545 60.6482 81.5535 61.3752 82.0955C61.7602 82.3345 62.0441 82.6995 62.3481 83.0055C62.6041 83.3705 62.8381 83.7415 63.0021 84.1555C62.5411 84.0725 62.1651 83.9255 61.7841 83.8095C61.3951 83.7195 61.0452 83.5795 60.6902 83.5115C59.9952 83.3145 59.3461 83.2565 58.7131 83.2235C57.4391 83.1725 56.1571 83.5615 54.4941 84.1555Z" fill="#E8CEBA"/>
<path d="M100.164 41.006C92.2252 39.229 84.4922 36.296 77.7222 31.937C69.5112 39.527 56.1272 46.851 45.4032 49.711C48.3642 46.979 49.8952 45.473 50.9972 42.422C42.3052 48.941 34.2662 48.544 23.4002 49.631C29.1302 47.508 32.6052 44.796 36.4382 39.852C29.9682 42.793 23.1772 43.497 16.2432 43.359C23.0352 27.567 38.2052 17.197 57.2252 16.8C56.2692 14.357 53.1932 7.604 47.8542 5.896C47.8542 5.896 55.1922 6.42 55.7162 8.124C55.7162 8.124 57.8132 2.227 53.2262 0C53.2262 0 60.9572 2.752 59.1232 7.469C59.1232 7.469 62.1372 0.654999 65.8062 0.261999C65.8062 0.261999 63.9712 4.979 64.4962 6.814C64.4962 6.814 68.8202 2.228 72.8822 3.014C72.8822 3.014 64.5752 11.899 63.8762 17C71.9182 17.719 79.1832 20.259 85.2932 24.26C85.2892 24.264 85.2852 24.268 85.2822 24.272C91.6222 28.422 96.7232 34.136 100.164 41.006Z" fill="#BF863F"/>
<path d="M28.9277 76.7439C28.9277 74.7929 31.1977 73.2109 33.9977 73.2109C36.7977 73.2109 39.0677 74.7929 39.0677 76.7439" stroke="#575756" stroke-miterlimit="10" stroke-linecap="round" stroke-linejoin="round"/>
<path d="M78.4316 76.7439C78.4316 74.7929 80.7016 73.2109 83.5016 73.2109C86.3016 73.2109 88.5716 74.7929 88.5716 76.7439" stroke="#575756" stroke-miterlimit="10" stroke-linecap="round" stroke-linejoin="round"/>
<path d="M92.2521 85.0271C92.2521 87.4601 88.1841 89.4331 83.1651 89.4331C78.1461 89.4331 74.0781 87.4601 74.0781 85.0271C74.0781 82.5941 78.1461 80.6211 83.1651 80.6211C88.1831 80.6211 92.2521 82.5941 92.2521 85.0271Z" fill="#EDBDA9"/>
<path d="M43.4201 85.0271C43.4201 87.4601 39.3511 89.4331 34.3331 89.4331C29.3141 89.4331 25.2461 87.4601 25.2461 85.0271C25.2461 82.5941 29.3141 80.6211 34.3331 80.6211C39.3521 80.6211 43.4201 82.5941 43.4201 85.0271Z" fill="#EDBDA9"/>
<path d="M66.9971 89.8984C67.9011 89.8984 68.5971 90.7144 68.4421 91.6044C67.6341 96.2254 63.6021 99.7384 58.7491 99.7384C53.8961 99.7384 49.8641 96.2254 49.0561 91.6044C48.9001 90.7134 49.5961 89.8984 50.5001 89.8984H66.9971Z" fill="#DDAA99"/>
<path d="M12.3662 69.0919C12.3662 69.0919 14.7632 33.1349 46.0692 28.8539C54.4122 27.7129 67.5132 28.3009 82.0772 31.2019C99.2632 34.6249 104.835 69.0909 104.835 69.0909C104.835 69.0909 96.5792 40.8539 83.3822 37.0719C71.5612 33.6849 43.9642 31.5649 35.7632 36.9419C27.5622 42.3189 18.6442 53.2169 12.3662 69.0919Z" fill="#FA8F9F"/>
<path d="M83.9049 22.0084C84.4309 25.1584 83.1289 33.0834 79.9779 33.6094C76.8279 34.1354 73.0219 27.0634 72.4959 23.9124C71.9699 20.7624 74.0979 17.7814 77.2479 17.2554C80.3989 16.7304 83.3789 18.8584 83.9049 22.0084Z" fill="#F0CAB8"/>
<path d="M68.3765 29.6838C71.5265 29.1578 79.4515 30.4598 79.9775 33.6108C80.5035 36.7608 73.4315 40.5668 70.2805 41.0928C67.1295 41.6188 64.1495 39.4908 63.6235 36.3408C63.0985 33.1898 65.2265 30.2098 68.3765 29.6838Z" fill="#F0CAB8"/>
<path d="M76.0519 45.2108C75.5259 42.0608 76.8279 34.1358 79.9779 33.6098C83.1289 33.0838 86.9339 40.1558 87.4599 43.3068C87.9859 46.4568 85.8579 49.4378 82.7079 49.9638C79.5579 50.4888 76.5779 48.3608 76.0519 45.2108Z" fill="#F0CAB8"/>
<path d="M91.58 37.5347C88.43 38.0607 80.505 36.7587 79.979 33.6087C79.453 30.4577 86.525 26.6527 89.676 26.1267C92.826 25.6007 95.807 27.7287 96.333 30.8787C96.858 34.0287 94.73 37.0087 91.58 37.5347Z" fill="#F0CAB8"/>
<path d="M75.2029 23.9473C77.4909 25.5803 81.6119 31.3223 79.9789 33.6103C78.3459 35.8983 71.5769 33.8653 69.2889 32.2323C67.0009 30.5993 66.4709 27.4203 68.1039 25.1333C69.7369 22.8453 72.9149 22.3143 75.2029 23.9473Z" fill="#FA8F9F"/>
<path d="M70.3156 38.3873C71.9486 36.0993 77.6906 31.9783 79.9776 33.6113C82.2656 35.2443 80.2326 42.0133 78.5996 44.3013C76.9666 46.5893 73.7876 47.1193 71.5006 45.4863C69.2136 43.8533 68.6826 40.6753 70.3156 38.3873Z" fill="#FA8F9F"/>
<path d="M84.7535 43.2756C82.4655 41.6426 78.3445 35.9006 79.9775 33.6136C81.6105 31.3256 88.3795 33.3586 90.6675 34.9916C92.9555 36.6246 93.4855 39.8036 91.8525 42.0906C90.2205 44.3776 87.0415 44.9086 84.7535 43.2756Z" fill="#FA8F9F"/>
<path d="M89.6409 28.8357C88.0079 31.1237 82.2659 35.2447 79.9779 33.6117C77.6899 31.9787 79.7229 25.2097 81.3559 22.9217C82.9889 20.6337 86.1669 20.1037 88.4549 21.7367C90.7429 23.3697 91.2739 26.5477 89.6409 28.8357Z" fill="#FA8F9F"/>
<path d="M82.8308 33.1347C83.0938 34.7097 82.0298 36.1997 80.4548 36.4627C78.8798 36.7257 77.3898 35.6617 77.1268 34.0867C76.8638 32.5117 77.9278 31.0217 79.5028 30.7587C81.0778 30.4957 82.5678 31.5597 82.8308 33.1347Z" fill="#FDD934"/>
<path d="M63.9053 17.033H56.5673C55.8793 17.033 55.3223 16.476 55.3223 15.788C55.3223 15.1 55.8793 14.543 56.5673 14.543H63.9053C64.5933 14.543 65.1503 15.1 65.1503 15.788C65.1503 16.476 64.5933 17.033 63.9053 17.033Z" fill="#FA8F9F"/>
</svg>
