<svg width="252" height="785" viewBox="0 0 252 785" fill="none" xmlns="http://www.w3.org/2000/svg">
<path d="M192.375 497.297C190.973 485.031 188.191 472.953 186.79 460.687C182.076 419.428 192.83 375.799 177.616 337.165C176.35 333.946 174.818 330.667 172.134 328.481C168.383 325.423 163.182 325.072 158.344 324.888C132.961 323.919 107.552 323.773 82.1581 324.449C78.7918 324.541 75.301 324.671 72.281 326.175C67.1179 328.746 64.5958 334.622 62.9559 340.147C59.6167 351.418 58.2366 363.159 56.8673 374.836C52.0993 415.532 47.3315 456.228 42.5688 496.924C41.9302 502.395 41.2969 508.016 42.6878 513.352C45.9566 525.883 54.1505 524.309 64.2657 522.334C76.7459 519.894 89.3236 517.94 101.95 516.468C126.726 513.584 151.719 512.562 176.653 513.433C181.361 513.601 186.703 513.584 189.934 510.159C193.024 506.875 192.889 501.783 192.375 497.297Z" fill="#BF9DB9"/>
<path d="M45.2094 338.94C45.2094 338.94 34.802 685.702 34.6396 741.949L46.8872 742.734C46.8872 742.734 81.1619 425.743 98.1829 408.893C98.1829 408.893 105.224 407.6 107.946 408.893C110.668 410.186 123.398 724.715 118.857 745.58H131.559C131.559 745.58 170.753 421.425 168.318 341.224C168.318 341.224 169.893 300.939 115.718 304.564C61.5431 308.19 50.654 298.931 45.2094 338.94Z" fill="#98B99D"/>
<path d="M13.9226 770.503C17.2997 768.587 20.6173 766.385 22.9877 763.306C24.9956 760.698 26.2297 757.592 27.4366 754.53C28.5839 751.624 29.7259 748.718 30.8733 745.813C31.3333 744.644 31.8313 743.421 32.7892 742.609C33.5685 741.949 34.5752 741.624 35.5656 741.354C39.327 740.326 43.2289 739.812 47.131 739.844C47.7155 739.85 48.3976 739.915 48.7278 740.396C48.9334 740.694 48.9496 741.083 48.955 741.446C49.1878 753.02 49.4203 764.594 49.653 776.168C49.6584 776.52 49.6532 776.915 49.4043 777.164C49.204 777.364 48.9009 777.418 48.6194 777.456C47.537 777.613 46.4491 777.764 45.3667 777.921C45.3396 774.859 45.0476 771.791 44.4847 768.777C44.3819 768.219 44.1708 767.559 43.6133 767.435C43.1804 767.343 42.7744 767.64 42.4443 767.927C40.3065 769.81 38.6395 772.223 37.6275 774.886C37.1675 776.092 36.7833 777.445 35.7334 778.203C35.0731 778.679 34.2504 778.846 33.4548 779.003C24.7522 780.708 15.9792 782.423 7.11424 782.445C4.31079 782.456 -2.57885 780.805 1.01476 776.947C2.38943 775.47 5.04682 774.907 6.8328 774.101C9.24658 773.019 11.6116 771.812 13.9226 770.503Z" fill="#E2E2E2"/>
<path d="M88.133 772.461C93.3773 769.502 99.8609 768.311 105.176 765.433C110.636 762.473 114.614 757.727 116.032 752.495C116.974 749.005 116.892 745.179 119.263 742.176C122.959 742.09 126.651 741.998 130.347 741.911C130.845 741.9 131.392 741.9 131.781 742.155C132.203 742.425 132.317 742.901 132.393 743.334C134.52 754.838 135.294 766.509 134.698 778.132C134.655 779.003 134.558 779.956 133.816 780.583C132.582 781.622 130.45 781.141 128.74 781.53C128.485 779.669 128.225 777.802 127.971 775.941C127.847 775.037 127.673 774.047 126.845 773.435C125.389 772.359 122.96 773.219 121.818 774.523C120.676 775.827 120.221 777.477 119.019 778.744C116.968 780.902 113.31 781.438 109.998 781.817C104.288 782.466 98.5836 783.121 92.8738 783.77C89.4426 784.16 83.2294 784.798 82.2499 781.189C81.3623 777.867 85.1076 774.166 88.133 772.461Z" fill="#E2E2E2"/>
<path d="M91.9916 162.564C93.4096 165.248 93.8209 168.332 94.3026 171.33C95.4175 178.288 97.0303 185.171 99.1194 191.902C100.05 194.895 101.154 197.984 103.455 200.111C107.151 203.525 112.758 203.509 117.786 203.287C120.968 203.146 124.47 202.87 126.716 200.614C128.805 198.509 129.178 195.295 129.438 192.341C130.471 180.485 131.511 168.63 132.544 156.774C136.041 155.438 140.1 157.586 142.145 160.719C144.191 163.852 144.695 167.715 145.101 171.433C150.312 219.79 158.982 289.857 170.808 337.035C171.517 339.86 172.269 342.885 171.251 345.612C169.476 350.357 151.286 331.164 146.259 331.819C118.798 335.374 72.9087 350.546 45.226 349.838C43.5699 325.764 66.5496 290.133 67.4913 266.022C68.7361 234.092 63.5406 201.079 73.856 170.837C76.2861 163.657 85.6162 150.498 91.9916 162.564Z" fill="#E2E2E2"/>
<path d="M89.7894 181.746C91.5917 190.587 95.2017 199.905 103.017 204.423C109.939 208.422 119.372 207.453 125.336 202.134C133.367 194.97 133.947 182.823 133.93 172.055C133.925 167.726 133.92 163.392 133.914 159.063C133.914 157.829 133.903 156.542 133.373 155.427C132.501 153.593 130.477 152.646 128.562 151.98C117.965 148.279 105.945 148.918 95.7049 153.452C83.8525 158.695 87.5326 170.653 89.7894 181.746Z" fill="#F9E9DE"/>
<path d="M216.685 520.494C210.413 474.707 205.986 428.676 203.09 382.552C200.563 342.317 199.188 301.837 191.562 262.25C183.937 222.664 169.638 183.537 144.001 152.419C141.393 149.259 138.513 146.066 134.665 144.654C131.808 143.604 128.707 143.658 125.654 143.994C126.147 145.601 126.482 147.332 126.455 149.302C126.45 149.61 126.472 149.924 126.472 150.233C126.872 152.132 126.937 154.139 126.563 156.223C127.148 185.902 133.605 215.64 135.477 245.244C137.777 281.633 138.102 318.194 139.482 354.637C140.754 388.212 141.863 421.82 141.273 455.427C140.884 477.477 143.243 500.425 141.723 522.345C141.528 525.191 141.014 528.189 140.224 531.159C163.057 528.21 185.934 525.651 208.968 527.383C211.63 527.583 214.861 527.572 216.258 525.299C217.107 523.898 216.913 522.123 216.685 520.494Z" fill="#CFA8C6"/>
<path d="M93.0691 517.524C81.931 454.973 80.8757 391.232 77.3254 328.048C74.0781 270.199 70.7712 204.58 97.9668 150.53C97.9668 150.292 97.9617 150.054 97.9563 149.821C82.0556 153.842 67.8216 160.551 59.828 173.873C54.8327 182.201 55.0221 199.05 52.5 208.308C32.0262 283.424 19.0537 361.049 24.3304 438.415C25.8458 460.622 28.8764 482.731 29.8073 504.976C30.6678 525.591 26.5656 532.783 50.5736 535.796C66.2577 537.766 82.115 537.582 97.875 536.5C95.4071 530.266 94.1136 523.411 93.0691 517.524Z" fill="#CFA8C6"/>
<path d="M64.0543 93.4607C66.414 108.541 69.6774 124.606 80.6043 135.26C88.5493 143.003 100.115 146.878 111.123 145.476C122.131 144.075 132.36 137.436 138.113 127.945C140.841 123.448 142.578 118.421 144.061 113.378C148.943 96.7884 151.308 79.4625 151.053 62.1744C150.967 56.1195 150.366 49.5885 146.388 45.0271C142.291 40.3358 135.688 38.9289 129.562 37.7872C117.017 35.4497 104.207 33.1013 91.5639 34.8707C80.9508 36.3533 66.5764 42.1863 61.4025 52.4726C56.0066 63.2079 62.225 81.7513 64.0543 93.4607Z" fill="#F9E9DE"/>
<path d="M173.687 104.932C173.281 92.4001 174.477 79.8142 173.448 67.3257C171.668 45.6926 162.565 24.2327 146.588 11.36C131.435 -0.841684 109.873 -3.93135 93.3499 5.61901C77.958 7.07456 63.4429 17.3175 54.5617 31.3969C44.1922 47.8354 40.8039 68.6622 42.1137 88.5854C42.8335 99.5859 44.9335 110.565 49.1549 120.575C56.3097 137.544 69.6776 151.255 85.6107 157.965C70.917 139.243 65.6888 112.139 72.2104 88.5096C74.0721 81.7676 76.9891 75.0796 82.0115 70.6805C89.3611 64.2522 99.5629 63.9384 108.969 63.9222C116.275 63.9059 123.587 63.8951 130.894 63.8789C132.209 63.8735 133.551 63.8789 134.806 64.3172C136.955 65.0693 138.562 67.001 139.959 68.949C148.18 80.4256 152.331 94.6565 157.846 107.935C163.36 121.214 171.083 134.492 183.244 140.45C176.311 130.461 174.093 117.464 173.687 104.932Z" fill="#EFBF6A"/>
<path d="M20.0488 287.698C16.3415 257.543 24.3458 226.922 37.2644 199.424C40.6686 192.178 44.4464 185.041 49.4634 178.802C53.9121 173.278 59.308 168.516 65.3425 164.788C69.7696 162.05 76.0205 160.064 79.7603 163.679C81.7952 165.643 82.3307 168.668 82.5634 171.487C83.9597 188.239 78.4774 204.813 71.6365 220.169C64.8011 235.531 56.5044 250.335 51.7093 266.449C49.7014 273.202 48.3269 280.123 47.0659 287.054C43.9215 304.31 41.6376 323.021 49.6583 338.621C49.3498 338.02 38.125 340.991 35.6409 339.227C32.1393 336.743 30.9163 329.211 29.6174 325.477C25.3472 313.195 21.6399 300.636 20.0488 287.698Z" fill="#E2BCDB"/>
<path d="M38.3472 362.045C38.3797 363.37 38.4449 364.766 39.1701 365.876C39.8087 366.85 40.8693 367.456 41.9247 367.943C44.2627 369.025 46.7848 369.701 49.3501 369.945C51.3904 370.134 53.6203 369.988 55.1952 368.684C56.7052 367.44 57.295 365.394 57.4682 363.441C57.7821 360.005 57.0351 356.482 55.3574 353.463C54.1722 351.326 52.5433 349.459 51.3634 347.316C49.9184 344.681 49.193 341.71 47.9049 338.994C47.1039 337.3 45.9566 335.607 44.1977 334.957C42.7959 334.438 41.1345 334.703 39.9655 335.634C38.4664 336.824 38.3853 338.296 38.4936 340.006C38.6343 342.316 38.4447 344.654 38.3743 346.981C38.239 352.002 38.2228 357.023 38.3472 362.045Z" fill="#F9E9DE"/>
<path d="M67.8157 350.33C68.2649 350.298 68.7735 350.287 69.1037 350.59C69.3851 350.844 69.4557 351.25 69.5152 351.623C71.2471 362.7 72.0208 373.927 71.8206 385.134C71.8044 386.162 71.7558 387.26 71.1659 388.11C70.6788 388.813 69.894 389.235 69.1255 389.603C58.9508 394.522 46.6384 394.798 36.2527 390.339C35.4246 389.982 34.5857 389.581 34.0012 388.9C33.303 388.088 33.054 386.995 32.8483 385.951C31.4845 379.122 26.5758 359.735 33.763 355.151C37.4053 352.83 44.2732 353.793 48.408 353.203C54.8809 352.273 61.2779 350.823 67.8157 350.33Z" fill="#E2E2E2"/>
<path d="M251.681 361.601C244.315 326.879 234.898 292.595 223.489 258.988C223.164 258.024 222.786 256.996 221.947 256.417C220.983 255.757 219.712 255.887 218.559 256.066C214.04 253.798 208.833 253.025 203.762 253.328C198.036 253.663 192.456 255.167 186.92 256.661C179.316 258.712 171.701 260.762 164.27 263.387C162.008 264.182 156.72 265.053 156.655 267.699C156.212 267.732 155.768 267.77 155.324 267.802C160.157 279.176 163.729 291.085 165.959 303.238C167.241 310.229 168.091 317.339 170.31 324.092C171.82 328.675 173.942 333.031 175.76 337.501C181.151 350.731 183.873 364.859 187.878 378.57C188.159 379.522 188.484 380.54 189.263 381.156C189.886 381.643 190.703 381.8 191.482 381.936C194.594 382.488 197.381 381.389 200.493 381.941C202.085 385.913 246.334 366.13 250.133 364.437C250.755 364.161 251.426 363.831 251.691 363.203C251.902 362.705 251.794 362.131 251.681 361.601Z" fill="#E2E2E2"/>
<path d="M213.433 312.546C213.006 311.837 212.448 311.171 211.777 311.112C211.09 311.058 210.478 311.647 209.899 312.151C209.32 312.659 208.611 313.125 207.967 312.805C207.523 312.583 207.312 311.821 207.415 311.258C206.933 311.815 206.197 311.977 205.645 311.539C204.931 310.976 204.687 309.542 205.147 308.606C204.606 309.337 203.594 308.763 203.296 307.806C202.999 306.848 203.188 305.755 203.399 304.754C203.518 304.186 200.46 304.467 200.119 304.851C199.427 305.636 199.584 306.458 199.394 307.622C198.853 311.003 197.343 313.839 196.277 316.928C194.518 322.02 194.226 328.524 196.797 332.929C198.464 335.791 201.158 337.387 203.843 337.458C206.527 337.533 209.174 336.17 211.328 333.995C212.551 332.756 213.644 331.24 214.364 329.406C215.252 327.144 215.522 324.525 215.517 321.961C215.506 318.622 214.986 315.137 213.433 312.546Z" fill="white"/>
<path d="M200.104 302.232C200.986 301.047 199.021 298.201 198.231 297.46C196.818 296.145 194.778 295.588 192.922 296.01C193.452 297.73 194.183 299.435 195.411 300.717C196.147 301.485 199.124 303.558 200.104 302.232Z" fill="white"/>
<path d="M218.33 354.15C218.991 354.123 222.617 353.734 223.635 353.284C224.176 353.046 227.991 352.289 228.505 352.105C226.947 337.825 220.82 324.146 218.59 309.948C213.855 279.793 209.033 249.329 197.51 221.062C190.583 204.066 181.328 188.12 171.462 172.645C167.701 166.741 163.679 160.735 157.84 156.877C152 153.019 143.833 151.823 138.102 155.838C132.539 159.734 130.774 167.45 132.014 174.127C133.253 180.804 136.922 186.735 140.418 192.557C157.737 221.376 172.512 251.629 187.265 281.838C194.252 296.15 201.266 310.489 206.949 325.38C209.682 332.523 212.843 346.705 218.33 354.15Z" fill="#E2BCDB"/>
<path d="M218.948 377.206C218.981 378.532 219.046 379.934 219.771 381.037C220.41 382.011 221.47 382.617 222.526 383.104C224.864 384.187 227.386 384.863 229.951 385.106C231.991 385.296 234.221 385.15 235.801 383.846C237.311 382.601 237.901 380.55 238.074 378.608C238.388 375.172 237.642 371.644 235.964 368.63C234.779 366.493 233.144 364.626 231.97 362.483C230.519 359.848 229.799 356.877 228.511 354.156C227.71 352.462 226.563 350.768 224.804 350.119C223.402 349.6 221.741 349.865 220.572 350.795C219.073 351.986 218.991 353.458 219.1 355.168C219.24 357.478 219.051 359.816 218.981 362.142C218.835 367.164 218.824 372.19 218.948 377.206Z" fill="#F9E9DE"/>
</svg>
