<svg width="180" height="727" viewBox="0 0 180 727" fill="none" xmlns="http://www.w3.org/2000/svg">
<path d="M133.548 51.8047H51.1309V137.393H133.548V51.8047Z" fill="#FBE9DC"/>
<path d="M92.1303 95.157C115.198 95.157 133.897 73.9459 133.897 47.7806C133.897 21.6154 115.198 0.404297 92.1303 0.404297C69.063 0.404297 50.3633 21.6154 50.3633 47.7806C50.3633 73.9459 69.063 95.157 92.1303 95.157Z" fill="#FBE9DC"/>
<path d="M149.92 304.543C149.392 330.655 145.93 354.514 137.283 401.239H146.421V402.407H154.44L155.218 399.457C163.085 369.661 169.962 336.629 174.38 308.457L149.92 304.543Z" fill="#FF9985"/>
<path d="M179.241 267L179.291 266.098L179.195 265.215C178.169 255.782 176.481 250.849 163.351 212.45C160.271 203.445 156.669 192.911 152.324 180.144L140.497 148.204C137.772 140.839 132.924 135.942 127.194 134.765C122.478 133.791 117.769 135.459 113.967 139.46C105.958 147.894 104.097 165.053 109.907 176.935L123.249 204.23C143.118 246.34 146.246 255.336 148.939 263.383C149.765 279.373 150.168 292.208 149.917 304.542L174.375 308.457C176.861 292.62 178.572 278.314 179.241 267Z" fill="#000544"/>
<path d="M122.885 405.233C123.681 406.401 125.337 406.669 126.565 405.83L137.667 398.26C138.898 397.423 139.252 395.782 138.456 394.615C137.662 393.447 136.004 393.179 134.775 394.019L123.674 401.588C122.446 402.425 122.091 404.066 122.885 405.233Z" fill="#FF9985"/>
<path d="M153.432 411.069C152.228 412.923 150.825 414.689 149.182 415.424C147.91 415.993 146.616 415.893 145.372 415.711C142.171 415.24 139.066 414.266 136.129 412.807C133.433 411.469 130.596 409.15 130.451 404.99C130.312 400.971 132.15 397.143 134.634 394.417C139.341 389.249 141.068 387.444 146.639 386.036C153.614 384.272 158.473 387.119 156.912 396.927C156.111 401.975 156.048 407.034 153.432 411.069Z" fill="#FF9985"/>
<path d="M134.912 405.468L132.148 424.623C131.961 425.92 130.746 426.831 129.447 426.642C128.151 426.455 127.243 425.24 127.43 423.94L130.194 404.786C130.38 403.488 131.595 402.578 132.894 402.767C134.191 402.954 135.098 404.169 134.912 405.468Z" fill="#FF9985"/>
<path d="M141.025 408.296L138.261 427.451C138.074 428.749 136.86 429.659 135.561 429.47C134.264 429.283 133.356 428.068 133.543 426.771L136.307 407.614C136.493 406.317 137.708 405.406 139.007 405.595C140.304 405.784 141.212 406.999 141.025 408.296Z" fill="#FF9985"/>
<path d="M148.506 406.661L145.743 425.819C145.556 427.116 144.341 428.026 143.042 427.837C141.746 427.651 140.838 426.433 141.024 425.136L143.788 405.981C143.975 404.684 145.19 403.773 146.489 403.962C147.785 404.149 148.693 405.364 148.506 406.661Z" fill="#FF9985"/>
<path d="M154.698 402.661L151.934 421.818C151.748 423.116 150.533 424.026 149.234 423.837C147.937 423.65 147.027 422.435 147.216 421.136L149.98 401.978C150.167 400.681 151.382 399.773 152.681 399.96C153.977 400.149 154.885 401.364 154.698 402.661Z" fill="#FF9985"/>
<path d="M76.1817 669.717C77.8924 632.22 82.1101 595.109 86.5712 557.687C86.8192 555.607 88.0817 549.697 88.3092 547.728L127.954 546.656C123.549 575.03 100.412 663.941 95.4546 713.914C94.8905 719.603 80.5746 721.583 76.4115 713.709C74.0388 709.219 75.2331 695.446 75.29 688.722C75.3491 682.331 75.8928 676.037 76.1817 669.717Z" fill="#FBE9DC"/>
<path d="M68.7108 548.059L29.0322 546.129C37.2423 655.337 46.3009 705.772 47.5658 708.014C54.1538 719.659 65.1825 721.98 68.729 710.824C70.4534 705.401 68.9861 689.646 68.5448 678.463C66.6907 631.569 66.461 590.287 68.7108 548.059Z" fill="#FBE9DC"/>
<path d="M74.9391 703.466C75.0233 703.166 75.4897 702.806 76.1653 702.436C83.3858 714.522 100.684 718.748 112.691 709.998L123.226 713.823C132.662 717.251 129.07 726.87 118.403 726.736L77.8078 726.219C75.8604 726.194 74.4023 724.986 74.7617 723.698L74.9391 703.466Z" fill="#F75B37"/>
<path d="M74.9053 703.401C77.5942 699.628 84.0162 699.582 85.4744 700.113L112.691 709.998C100.684 718.746 82.1258 715.488 74.9053 703.401Z" fill="#FBE9DC"/>
<path d="M69.5415 703.164C69.4573 702.863 68.991 702.504 68.3153 702.133C61.0948 714.219 43.7966 718.445 31.7897 709.695L21.2547 713.521C11.8185 716.948 15.4105 726.567 26.0775 726.431L66.6706 725.914C68.6179 725.889 70.0784 724.681 69.7167 723.393L69.5415 703.164Z" fill="#F75B37"/>
<path d="M69.576 703.098C66.8871 699.325 60.4651 699.28 59.0069 699.81L31.79 709.696C43.7969 718.444 62.3555 715.185 69.576 703.098Z" fill="#FBE9DC"/>
<path d="M147.058 331.693C132.264 227.646 153.403 181.453 140.129 146.68C124.655 106.172 80.2172 102.2 45.2544 127.582C5.42566 159.287 52.6865 238.718 43.0569 282.221C35.7226 315.308 0.175223 352.969 19.0159 395.261C34.8491 410.297 96.0801 406.048 113.224 402.992C170.781 392.731 149.717 350.4 147.058 331.693Z" fill="#000544"/>
<path d="M15.7763 356.412C15.7763 356.412 4.07434 524.653 7.69369 644.819C8.06905 657.263 12.8987 668.057 19.0022 670.207C55.4596 683.047 156.758 719.406 156.153 645.611C156.153 645.611 158.357 421.858 152.006 357.837L15.7763 356.412Z" fill="#000544"/>
<path d="M90.5315 146.103C103.211 146.103 113.49 138.566 113.49 129.269C113.49 119.972 103.211 112.436 90.5315 112.436C77.852 112.436 67.5732 119.972 67.5732 129.269C67.5732 138.566 77.852 146.103 90.5315 146.103Z" fill="#000544"/>
<path d="M89.9422 76.3545C94.1598 75.6491 95.1812 73.2709 95.3678 71.3184L84.2891 72.5359C83.759 77.1534 89.9422 76.3545 89.9422 76.3545Z" fill="white"/>
<path d="M83.684 60.4758C82.9446 62.4876 83.8933 64.7975 85.7041 65.3846L88.7296 66.3677C90.4722 66.9343 92.1079 65.1433 91.7302 63.0815L91.6666 62.7402C91.1069 63.6391 90.1629 64.1898 89.121 63.853L86.0976 62.8699C84.8578 62.4671 84.073 61.2427 83.9069 59.875L83.684 60.4758Z" fill="#FA694F"/>
<path d="M101.951 47.2871C100.834 47.2871 99.9287 48.6798 99.9287 50.4003C99.9287 52.1207 100.834 53.5135 101.951 53.5135C103.068 53.5135 103.973 52.1207 103.973 50.4003C103.973 49.8723 103.867 49.399 103.716 48.9643L105.391 47.2871H101.951Z" fill="#000543"/>
<path d="M77.5527 100.944L77.6847 127.744C77.7006 130.977 79.6479 133.615 82.0115 133.601L99.2097 133.517C101.573 133.506 103.498 130.85 103.482 127.616L103.332 96.9551H77.5322L77.5527 100.944Z" fill="#000544"/>
<path d="M114.889 69.0128C115.271 69.0856 115.655 69.1516 116.053 69.1494C118.597 69.138 120.812 67.5336 122.086 65.1304C120.628 63.7718 119.306 62.2629 118.167 60.6198C114.745 55.6883 112.975 49.7555 109.675 44.742C105.671 38.6613 95.0334 28.095 76.8138 26.907C75.9402 26.8502 72.4301 26.8024 69.0291 26.5156C66.5381 30.8099 65.0844 35.8894 65.1117 41.358L65.1641 52.359C62.4456 53.6129 60.5142 56.7716 60.5324 60.4924C60.5506 64.4044 62.7254 67.6633 65.6827 68.7397C67.0477 76.6388 71.4564 83.3545 77.4894 87.3644L77.5349 96.9521H103.334L103.321 94.36L103.284 87.2688C104.558 86.4086 105.757 85.4346 106.867 84.3445C110.901 80.3983 113.797 75.0617 114.889 69.0128ZM83.6862 60.4765L83.9068 59.8757C84.0729 61.2434 84.86 62.4701 86.0976 62.8706L89.1209 63.8537C90.1628 64.1928 91.1092 63.6398 91.6665 62.7408L91.7302 63.0822C92.1078 65.144 90.4722 66.9327 88.7296 66.3684L85.704 65.3853C83.8955 64.7959 82.9446 62.4883 83.6862 60.4765ZM89.9422 76.3543C89.9422 76.3543 83.7567 77.1531 84.289 72.5357L95.37 71.3181C95.1812 73.2707 94.1598 75.6488 89.9422 76.3543Z" fill="#FF9985"/>
<path d="M75.8042 41.5977H70.117C69.2866 41.5977 68.6064 42.4078 68.6064 43.3977C68.6064 44.3877 69.2866 45.1956 70.117 45.1956H75.8042C76.6345 45.1956 77.3147 44.3854 77.3147 43.3977C77.3147 42.4078 76.6345 41.5977 75.8042 41.5977Z" fill="#452A51"/>
<path d="M105.218 41.5977H99.9612C99.1923 41.5977 98.5645 42.4078 98.5645 43.3977C98.5645 44.3877 99.1923 45.1956 99.9612 45.1956H105.218C105.985 45.1956 106.615 44.3854 106.615 43.3977C106.613 42.4078 105.985 41.5977 105.218 41.5977Z" fill="#452A51"/>
<path d="M71.8818 49.8612C71.8818 51.5817 72.7872 52.9745 73.9042 52.9745C75.0211 52.9745 75.9266 51.5817 75.9266 49.8612C75.9266 48.143 75.0211 46.748 73.9042 46.748C72.7872 46.7503 71.8818 48.143 71.8818 49.8612Z" fill="#000543"/>
<path d="M73.9045 46.75H70.4648L72.5851 48.871L73.9045 46.75Z" fill="#000543"/>
<path d="M103.758 49.8612C103.758 51.5817 102.852 52.9745 101.735 52.9745C100.618 52.9745 99.7129 51.5817 99.7129 49.8612C99.7129 48.143 100.618 46.748 101.735 46.748C102.855 46.7503 103.758 48.143 103.758 49.8612Z" fill="#000543"/>
<path d="M101.737 46.75H105.177L103.057 48.871L101.737 46.75Z" fill="#000543"/>
<path d="M33.147 398.451L34.1252 401.339L42.1237 400.79L42.0441 399.625L51.1596 398.999C38.8388 351.049 33.8318 327.477 31.6547 300.111L6.8584 304.793C13.2167 333.483 22.7576 367.787 33.147 398.451Z" fill="#FF9985"/>
<path d="M51.6719 201.491L63.1146 173.345C68.0989 161.095 65.0687 144.102 56.4992 136.237C52.4339 132.507 47.6203 131.164 42.9818 132.459C37.3446 134.025 32.8449 139.243 30.6292 146.778L21.0177 179.453C17.5554 192.489 14.6867 203.244 12.2298 212.44C1.76078 251.649 0.411804 256.685 0.0364477 266.166L0 267.053L0.111495 267.95C1.42183 278.179 3.76727 290.823 6.86112 304.792L31.6574 300.111C30.7588 288.805 30.3403 276.855 30.0923 262.267C32.2284 254.056 34.7331 244.865 51.6719 201.491Z" fill="#000544"/>
<path d="M65.7355 403.686C64.9393 404.854 63.2832 405.123 62.0547 404.283L50.9533 396.714C49.7248 395.876 49.3677 394.235 50.1639 393.068C50.9578 391.9 52.6162 391.632 53.8446 392.472L64.9461 400.041C66.1768 400.881 66.5317 402.521 65.7355 403.686Z" fill="#FF9985"/>
<path d="M35.1907 409.524C36.3941 411.379 37.7977 413.145 39.4401 413.88C40.7118 414.449 42.0062 414.349 43.2506 414.167C46.4514 413.695 49.5543 412.719 52.4935 411.263C55.1869 409.925 58.026 407.606 58.1693 403.446C58.3081 399.427 56.47 395.599 53.9858 392.87C49.279 387.702 47.5524 385.897 41.9812 384.491C35.0064 382.727 30.1472 385.572 31.7078 395.383C32.5108 400.43 32.5723 405.489 35.1907 409.524Z" fill="#FF9985"/>
<path d="M53.7108 403.923L56.4748 423.078C56.6614 424.375 57.8762 425.285 59.1751 425.096C60.4718 424.91 61.3818 423.695 61.1929 422.395L58.429 403.24C58.2424 401.943 57.0276 401.035 55.7286 401.222C54.432 401.408 53.5243 402.623 53.7108 403.923Z" fill="#FF9985"/>
<path d="M47.5975 406.751L50.3615 425.908C50.5481 427.206 51.7652 428.116 53.0619 427.927C54.3585 427.74 55.2685 426.525 55.0797 425.226L52.3157 406.071C52.1291 404.774 50.9143 403.863 49.6154 404.052C48.3187 404.239 47.411 405.454 47.5975 406.751Z" fill="#FF9985"/>
<path d="M40.1161 405.117L42.8801 424.272C43.0666 425.569 44.2814 426.479 45.5804 426.29C46.8771 426.104 47.787 424.888 47.5982 423.589L44.8342 404.434C44.6477 403.137 43.4329 402.227 42.134 402.415C40.8373 402.602 39.9296 403.817 40.1161 405.117Z" fill="#FF9985"/>
<path d="M33.9232 401.117L36.6872 420.272C36.8738 421.569 38.0886 422.479 39.3875 422.291C40.6842 422.104 41.5942 420.889 41.4054 419.589L38.6414 400.432C38.4548 399.135 37.24 398.225 35.9411 398.413C34.6444 398.602 33.7344 399.818 33.9232 401.117Z" fill="#FF9985"/>
<path d="M68.4425 68.6233C75.0806 89.4691 93.9258 103.852 112.748 114.994C102.122 113.617 91.4985 112.24 80.8725 110.866C77.0644 110.372 73.1925 109.862 69.6846 108.292C60.7466 104.293 56.0671 94.3688 53.6967 84.8653C48.8011 65.2257 50.7279 43.9544 59.0722 25.5163C60.3052 22.7923 64.896 15.1458 68.9953 16.6386C72.3326 17.8516 68.1695 28.4361 67.6349 31.3559C65.376 43.654 64.5979 56.5483 68.4425 68.6233Z" fill="#FBE9DC"/>
<path d="M59.4471 134.948C62.2474 135.69 65.2184 134.787 68.103 135.051C76.0446 135.779 80.3828 144.434 86.7116 149.285C92.235 153.521 99.7035 154.847 106.521 153.457C113.339 152.066 119.493 148.127 124.179 142.982C127.553 139.277 132.159 137.718 132.967 132.77C133.775 127.825 130.551 119.466 126.879 116.055C120.321 109.963 109.788 112.316 101.241 109.658C94.5417 107.573 89.3095 102.462 83.9021 97.9926C78.4924 93.523 72.0522 89.3743 65.0524 89.8636C54.6311 90.5941 52.6269 100.478 52.5291 108.704C52.4381 116.13 49.1532 132.222 59.4471 134.948Z" fill="#FBE9DC"/>
</svg>
