<svg width="249" height="786" viewBox="0 0 249 786" fill="none" xmlns="http://www.w3.org/2000/svg">
<path d="M247.459 284.247C246.128 281.228 242.621 279.642 239.319 279.615C236.018 279.588 232.852 280.811 229.778 282.018C230.768 280.989 230.27 279.096 229.053 278.354C227.83 277.613 226.217 277.829 224.961 278.506C223.7 279.182 222.704 280.248 221.687 281.249C218.174 284.701 211.918 288.911 205.894 291.66C204.877 291.995 203.892 292.304 202.972 292.482C183.245 296.297 167.074 299.571 150.307 303.304C150.361 304.993 150.323 306.638 150.145 308.212C149.939 310.057 149.842 311.875 149.804 313.683C149.874 313.959 149.928 314.234 150.004 314.51C151.628 320.533 152.337 326.512 152.396 332.372C152.613 332.285 152.835 332.199 153.051 332.112C168.189 326.144 183.332 320.17 198.469 314.202C201.814 312.882 207.437 310.966 212.308 308.391C222.813 307.433 235.688 302.525 243.151 295.924C246.479 292.98 249.251 288.316 247.459 284.247Z" fill="#C49D80"/>
<path d="M107.334 771.943C105.256 771.05 102.144 769.681 98.7563 768.134C99.1081 766.819 99.3571 765.417 99.3625 763.837C99.4707 737.919 99.5844 712.006 99.303 686.087C99.1353 670.969 99.4978 655.499 97.6415 640.424C97.7714 627.616 97.5764 614.803 98.2584 602.017C100.948 551.695 108.969 501.6 115.886 451.971C116.898 444.72 126.964 411.34 125.871 404.419C124.28 394.317 113.483 418.747 105.424 418.547C80.9939 417.947 55.0323 383.435 30.5264 381.877C22.0295 378.338 10.0904 382.678 10.0417 394.999C9.86311 437.48 24.0481 476.791 35.7436 516.816C41.3126 601.243 46.8546 691.655 52.4994 759.698C52.7321 759.698 52.9648 759.698 53.1975 759.703C50.8271 765.201 50.248 771.57 51.7309 777.408C51.9528 778.274 52.2341 779.167 52.8403 779.8C53.5926 780.59 54.7074 780.833 55.752 781.033C73.1842 784.393 90.9196 785.99 108.639 785.795C110.955 785.768 113.569 785.568 115.052 783.685C116.746 781.531 116.01 778.095 114.197 776.05C112.373 774.01 109.786 772.993 107.334 771.943Z" fill="#333333"/>
<path d="M81.1727 131.284C86.0706 132.691 91.2932 133.644 96.2561 132.734C101.116 131.847 105.338 129.244 108.839 126.16C120.177 116.199 124.756 101.497 126.488 87.1741C127.927 75.2916 127.646 62.9167 122.851 51.5699C113.234 28.8331 83.1426 14.099 61.3752 32.1554C51.4387 40.4017 49.1927 53.5937 47.4987 65.7792C43.6129 93.7214 46.3731 121.279 81.1727 131.284Z" fill="#C49D80"/>
<path d="M44.0404 37.4257C41.1395 30.6674 41.0583 22.8485 45.9292 15.7277C50.1344 9.58625 56.7425 6.9511 63.6375 8.25515C76.8862 10.7658 80.1228 23.2056 95.6392 14.6671C109.84 6.85369 124.772 -7.44209 140.976 4.71095C153.997 14.4723 152.682 35.1314 142.015 46.3538C128.306 60.774 104.948 58.8315 87.6076 56.0773C85.0585 56.4128 82.5094 56.6184 79.9657 56.6725C74.3534 71.9098 61.0669 90.399 47.8831 89.1112C26.3484 87.0009 39.662 51.6024 44.0404 37.4257Z" fill="#534741"/>
<path d="M131.895 381.942C128.409 354.584 126.537 327.064 126.851 299.538C127.165 271.91 125.433 244.401 123.062 216.832C122.104 205.68 121.011 194.538 119.799 183.403C119.674 182.223 118.462 181.033 116.725 179.907L118.808 165.292L46.0161 143.903L53.409 159.811C53.0896 159.757 52.8352 159.724 52.7215 159.746C51.4984 159.962 50.4593 160.617 49.4852 161.283C30.478 174.237 25.3095 195.301 20.0922 214.462C1.6479 282.191 -4.15924 352.165 2.92516 421.285C48.3378 427.843 94.2592 432.102 140.321 434.039C137.772 433.936 132.485 386.595 131.895 381.942Z" fill="#FCEE9F"/>
<path d="M164.4 307.725L140.273 238.881C140.23 238.454 140.186 238.032 140.138 237.583C137.832 216.323 129.649 172.391 101.187 177.386C83.1702 180.546 85.1131 202.244 90.3357 220.782C91.8511 226.16 93.637 231.273 95.2985 235.586C105.111 264.372 126.818 325.543 135.602 329.937C135.602 329.937 142.183 335.694 149.592 335.694C156.996 335.694 172.161 329.856 164.4 307.725Z" fill="#FCEE9F"/>
</svg>
