<svg width="371" height="763" viewBox="0 0 371 763" fill="none" xmlns="http://www.w3.org/2000/svg">
<path d="M347.015 37.3906C345.161 31.3811 341.83 25.9462 338.299 20.7426C334.837 15.6365 330.805 10.4184 324.994 8.35143C319.65 6.45065 313.727 7.56364 308.274 9.13196C304.661 10.1691 300.592 11.9181 299.641 15.557C278.141 -1.30422 246.562 -4.07949 222.449 8.7706C216.096 12.1566 210.087 16.7134 206.654 23.0372C204.092 27.753 203.116 33.1554 202.408 38.4747C200.721 51.1585 200.359 64.1676 203.167 76.6527C205.935 88.968 211.876 100.683 220.834 109.577C229.792 118.47 241.839 124.403 254.436 125.216C262.473 125.733 270.498 124.215 278.336 122.354C280.833 121.762 283.337 121.126 285.672 120.06C290.311 117.939 294.04 114.213 297.13 110.151C309.123 94.374 312.26 73.7474 314.24 54.0314C314.88 47.6569 315.433 41.1343 313.919 34.908C312.404 28.6817 308.451 22.7012 302.467 20.4065C306.778 16.8037 313.77 18.4082 317.586 22.5349C321.399 26.6581 322.689 32.4977 323.223 38.0916C325.37 60.5721 317.756 82.6767 314.186 104.976C312.643 114.603 312.05 125.202 317.395 133.358C321.326 139.357 327.852 143.05 334.133 146.519C330.992 145.601 328.716 142.753 327.628 139.671C326.537 136.588 326.45 133.253 326.371 129.986C327.578 135.559 332.669 139.631 338.122 141.283C343.578 142.934 349.411 142.605 355.102 142.262C343.532 132.852 341.45 116.056 342.285 101.164C342.007 106.96 344.337 112.832 348.518 116.858C345.653 96.7518 349.071 76.3311 349.151 56.0225C349.172 49.742 348.865 43.3856 347.015 37.3906Z" fill="#F39C35"/>
<path d="M84.2902 181.375L67.415 184.627L46.2578 172.583C46.2578 172.583 43.4319 169.262 46.8286 168.604C50.2253 167.947 50.4313 169.016 50.4313 169.016C50.4313 169.016 48.2127 166.953 48.7908 166.176C49.369 165.399 51.2373 163.73 53.7198 165.258C53.7198 165.258 52.3898 163.404 53.9436 162.013C55.4974 160.618 71.5091 170.549 71.5091 170.549L92.858 170.328C92.858 170.328 101.046 176.244 96.6341 177.946C92.222 179.644 84.2902 181.375 84.2902 181.375Z" fill="#E6B89C"/>
<path d="M120.671 199.764L110.477 170.786C109.722 169.294 105.321 168.087 103.647 168.116C97.2406 168.224 84.4234 172.21 85.3629 172.156C86.5518 172.087 98.8596 176.272 82.0385 179.788C72.8674 181.703 72.7301 183.539 72.7301 183.539C72.7301 183.539 47.0305 175.704 46.2897 176.369C45.549 177.031 43.4857 178.733 46.0224 181.154C48.5555 183.575 75.021 192.128 75.021 192.128C75.021 192.128 79.3284 192.674 85.999 190.249C92.6696 187.828 100.616 185.833 100.616 185.833L108.782 200.606L120.671 199.764Z" fill="#E6B89C"/>
<path d="M218.485 161.339C218.485 161.339 213.668 133.033 157.055 248.669L117.891 178.612L100.048 189.229L146.814 284.206C149.647 290.779 164.853 288.56 168.496 282.399L216.675 190.855L218.485 161.339Z" fill="#C8D7DB"/>
<path d="M238.815 710.315C238.815 710.315 236.326 718.616 239.231 729.406C242.136 740.196 220.972 732.727 220.972 732.727L214.33 727.332C214.33 727.332 222.63 723.183 225.12 713.636C227.614 704.089 238.815 710.315 238.815 710.315Z" fill="#E6B89C"/>
<path d="M311.086 713.928C311.086 713.928 308.596 722.229 311.501 733.019C314.407 743.81 293.242 736.34 293.242 736.34L286.601 730.945C286.601 730.945 294.901 726.797 297.391 717.249C299.884 707.702 311.086 713.928 311.086 713.928Z" fill="#E6B89C"/>
<path d="M194.51 364.905C201.256 341.134 229.181 299.137 229.181 299.137L210.442 242.348C188.89 235.486 195.449 214.046 195.449 214.046C213.253 201.305 216.064 158.422 216.064 158.422L269.476 155.982C269.476 155.982 311.643 159.914 317.265 163.835C322.888 167.756 314.454 208.944 314.454 208.944C314.454 208.944 277.906 277.596 280.718 294.258C283.529 310.921 330.382 333.546 336.005 359.029C341.628 384.512 332.008 410.382 332.008 410.382L309.615 530.81C309.615 530.81 361.22 550.711 312.134 718.145L294.67 716.638C294.67 716.638 298.496 579.58 287.837 538.005C261.093 433.698 273.212 397.059 266.058 391.338C253.067 380.949 251.538 392.936 251.538 392.936L235.65 525.852C235.65 525.852 284.125 551.014 241.337 712.865L224.502 710.018C224.502 710.018 224.592 575.417 214.109 533.795C209.267 514.524 183.152 404.919 194.51 364.905Z" fill="#333333"/>
<path d="M251.278 157.109H275.969V124.431H251.278V157.109Z" fill="#CC9C81"/>
<path d="M297.51 104.713C299.121 105.385 273.071 139.891 245.392 140.188C219.743 140.462 207.431 85.3904 207.421 85.3109C207.215 83.4318 205.874 49.7094 205.874 33.2385C205.874 16.2941 287.854 -3.32069 303.649 43.5771C306.124 50.9308 299.963 90.164 299.963 90.164C299.963 90.164 311.151 83.4318 310.876 98.1682C310.779 103.646 297.51 104.713 297.51 104.713Z" fill="#E6B89C"/>
<path d="M271.145 72.2015C272.627 72.6206 274.354 71.822 274.99 70.4199C275.019 71.4209 274.542 72.4219 273.751 73.0326C274.6 73.5349 275.789 73.3614 276.461 72.6387C276.403 73.5313 275.691 74.2793 274.871 74.6406C274.051 75.0056 273.133 75.0562 272.237 75.1068C272.013 75.1177 271.771 75.1285 271.583 75.002C271.344 74.843 271.279 74.525 271.232 74.2395C271.142 73.6758 271.055 73.1085 270.965 72.5448" fill="#1A1A1A"/>
<path d="M260.053 76.9425C259.948 73.2024 262.9 70.0839 266.64 69.9791C270.384 69.8779 273.498 72.8266 273.603 76.5667C273.708 80.3069 270.756 83.4254 267.016 83.5302C263.272 83.635 260.154 80.6863 260.053 76.9425Z" fill="#333333"/>
<path d="M218.258 73.0892C216.711 73.1036 215.294 71.7882 215.11 70.1621C214.781 71.1884 214.929 72.3556 215.504 73.212C214.536 73.4939 213.448 72.9771 213.025 72.0412C212.808 72.9808 213.264 73.9528 213.939 74.5599C214.615 75.167 215.479 75.4814 216.324 75.7849C216.534 75.8608 216.765 75.9367 216.982 75.8608C217.26 75.7633 217.419 75.4525 217.549 75.1706C217.806 74.6105 218.063 74.054 218.323 73.4939" fill="#1A1A1A"/>
<path d="M216.527 77.216C216.527 73.8662 219.241 71.1523 222.591 71.1523C225.941 71.1523 228.654 73.8662 228.654 77.216C228.654 80.5659 225.941 83.2797 222.591 83.2797C219.241 83.2833 216.527 80.5659 216.527 77.216Z" fill="#333333"/>
<path opacity="0.43" d="M263.908 74.1118C263.879 73.0097 264.746 72.0918 265.848 72.0593C266.95 72.0304 267.868 72.8977 267.901 73.9998C267.93 75.102 267.063 76.0199 265.96 76.0524C264.858 76.0849 263.937 75.214 263.908 74.1118Z" fill="white"/>
<path opacity="0.43" d="M218.24 76.097C218.24 75.1864 218.977 74.4492 219.888 74.4492C220.799 74.4492 221.536 75.1864 221.536 76.097C221.536 77.0076 220.799 77.7448 219.888 77.7448C218.977 77.7448 218.24 77.0076 218.24 76.097Z" fill="white"/>
<path d="M230.208 69.6569C230.208 69.6569 221.918 64.6376 216.552 65.4651C216.137 65.5301 213.3 66.1625 209.314 67.9982L215.765 62.4115C215.765 62.4115 220.462 61.0203 229.68 64.287C229.68 64.287 232.611 66.4191 230.208 69.6569Z" fill="#93561B"/>
<path d="M255.04 67.6625C255.04 67.6625 264.811 62.4264 271.139 63.1166C271.63 63.1708 274.976 63.7309 279.674 65.4654L272.068 60.0414C272.068 60.0414 266.531 58.7694 255.662 62.2746C255.662 62.2746 252.204 64.4825 255.04 67.6625Z" fill="#93561B"/>
<path opacity="0.49" d="M239.744 82.5574L239.856 96.5674C239.867 97.6949 238.468 96.2422 237.341 96.2061C235.848 96.1555 234.952 98.7031 234.952 100.026C234.952 102.183 236.589 103.245 245.254 102.432C246.205 102.342 247.054 101.493 247.115 100.542C247.455 95.2123 247.983 79.4894 239.744 82.5574Z" fill="#1A1A1A"/>
<path d="M240.908 82.1207L240.752 95.1153C240.752 95.1153 235.433 94.295 235.798 99.4047C235.961 101.66 238.049 102.65 248.055 101.555C248.066 101.555 248.081 101.558 248.081 101.544C248.037 100.984 250.556 78.5323 240.908 82.1207Z" fill="#FE938C"/>
<path opacity="0.43" d="M237.287 99.5238C238.722 100.543 240.597 100.478 241.988 99.3576C242.183 99.1986 242.382 99.0071 242.458 98.7288C242.671 97.9808 241.938 97.3845 241.334 97.1605C240.373 96.8064 239.332 96.557 238.389 96.9798C237.446 97.399 236.687 98.7071 236.976 99.9177" fill="white"/>
<path opacity="0.51" d="M258.198 90.9113C257.551 92.5374 258.202 94.4599 259.412 95.721C260.623 96.9822 262.296 97.6869 263.969 98.1964C270.636 100.224 277.867 99.5804 284.595 97.77C286.376 97.2894 288.187 96.704 289.614 95.5331C291.041 94.3623 292.017 92.476 291.631 90.6728C291.248 88.8804 289.618 87.5687 287.865 87.0339C286.113 86.499 284.241 86.5966 282.412 86.7014C276.674 87.0303 270.932 87.3591 265.194 87.6879C262.476 87.8505 259.203 88.3854 258.198 90.9113Z" fill="#FE938C"/>
<path opacity="0.51" d="M228.687 91.4171C227.715 90.9076 226.587 90.8173 225.496 90.7161C222.425 90.427 219.371 89.9681 216.354 89.3429C214.944 89.0502 213.322 88.7647 212.187 89.6501C211.313 90.3331 211.017 91.652 211.515 92.6422C211.83 93.2673 212.397 93.7263 212.972 94.1274C215.212 95.6993 217.835 96.7653 220.56 97.0219C223.284 97.2784 226.11 96.7075 228.434 95.2584C229.225 94.7634 230.035 94.0153 229.973 93.083C229.923 92.3495 229.334 91.7568 228.687 91.4171Z" fill="#FE938C"/>
<path opacity="0.13" d="M307.06 94.8914C306.804 93.3556 305.019 92.4016 303.49 92.7015C301.962 93.005 300.769 94.2734 300.148 95.7044C301.008 96.0766 301.593 97.009 301.557 97.9449C301.521 98.8808 300.867 99.7662 299.981 100.073C301.159 100.568 302.666 100.095 303.346 99.0145C304.025 97.9304 303.805 96.3693 302.847 95.5201C302.648 95.3467 302.406 95.1516 302.424 94.8914C302.45 94.5589 302.862 94.4252 303.194 94.3891C304.582 94.2337 305.994 94.2987 307.36 94.5806" fill="#1A1A1A"/>
<path d="M210.441 242.346L229.181 299.134C229.181 299.134 222.395 309.343 214.709 322.533C226.442 323.942 296.707 316.039 297.715 315.132C288.888 307.457 281.762 300.442 280.717 294.252C277.906 277.59 314.453 208.938 314.453 208.938C314.453 208.938 322.887 167.75 317.265 163.829C311.642 159.908 269.476 155.977 269.476 155.977L216.064 158.416C216.064 158.416 213.253 201.299 195.449 214.04C195.449 214.04 188.886 235.487 210.441 242.346Z" fill="#DAECF3"/>
<path opacity="0.26" d="M244.781 229.055C244.781 229.055 265.042 244.199 287.858 230.446C287.858 230.446 263.897 260.164 244.781 229.055Z" fill="#020202"/>
<path d="M263.912 111.914C263.912 111.914 252.981 107.983 248.5 109.511C244.33 110.935 243.86 112.366 243.86 112.366C243.86 112.366 242.158 110.382 239.679 110.631C237.204 110.881 232.452 113.378 232.452 113.378C232.452 113.378 235.112 127.066 246.581 126.336C261.039 125.418 263.912 111.914 263.912 111.914Z" fill="#EA615E"/>
<path opacity="0.43" d="M242.609 125.05C244.477 125.863 246.779 125.588 248.398 124.349C248.615 124.183 248.842 123.937 248.77 123.673C248.673 123.319 248.174 123.315 247.812 123.391C245.792 123.821 243.585 124.327 241.756 123.373C241.456 124.049 241.854 124.941 242.558 125.169" fill="white"/>
<path d="M264.052 111.561C264.052 111.561 246.371 116.428 232.448 113.382C232.448 113.382 242.158 131.638 264.052 111.561Z" fill="white"/>
<path opacity="0.21" d="M251.253 152.864C251.253 152.864 256.785 156.59 258.932 156.817C261.078 157.045 275.984 150.945 275.984 150.945L281.914 157.439C281.914 157.439 276.436 171.384 258.82 161.335C258.82 161.335 253.06 165.964 245.608 165.06L251.253 152.864Z" fill="#020202"/>
<path d="M251.253 149.251C251.253 149.251 256.785 152.977 258.932 153.204C261.078 153.432 275.984 147.332 275.984 147.332L282.083 157.494C282.083 157.494 276.436 167.771 258.82 157.721C258.82 157.721 253.06 162.35 245.608 161.447L251.253 149.251Z" fill="#DAECF3"/>
<path d="M262.57 161.483L276.739 159.127C276.739 159.127 277.917 166.148 275.192 173.318L261.472 166.578L262.57 161.483Z" fill="#A31C19"/>
<path d="M258.83 161.009L245.692 155.209C245.692 155.209 242.808 161.721 243.668 169.338L258.632 166.216L258.83 161.009Z" fill="#A31C19"/>
<path d="M260.724 159.882C259 159.665 257.41 160.898 257.19 162.625L256.85 165.313C256.633 167.041 257.865 168.627 259.593 168.848C261.316 169.064 262.906 167.832 263.127 166.105L263.466 163.416C263.683 161.693 262.451 160.103 260.724 159.882Z" fill="#F24738"/>
<path d="M256.337 174.657C256.337 173.971 255.73 173.414 254.982 173.414C254.234 173.414 253.627 173.971 253.627 174.657C253.627 175.344 254.234 175.9 254.982 175.9C255.73 175.9 256.337 175.344 256.337 174.657Z" fill="#666666"/>
<path d="M249.111 185.499C249.111 184.812 248.503 184.256 247.755 184.256C247.007 184.256 246.4 184.812 246.4 185.499C246.4 186.186 247.007 186.742 247.755 186.742C248.503 186.742 249.111 186.186 249.111 185.499Z" fill="#666666"/>
<path d="M241.883 199.954C241.883 199.267 241.276 198.711 240.528 198.711C239.78 198.711 239.173 199.267 239.173 199.954C239.173 200.641 239.78 201.197 240.528 201.197C241.276 201.197 241.883 200.641 241.883 199.954Z" fill="#666666"/>
<path d="M234.656 218.022C234.656 217.336 234.049 216.779 233.301 216.779C232.553 216.779 231.946 217.336 231.946 218.022C231.946 218.709 232.553 219.265 233.301 219.265C234.049 219.265 234.656 218.709 234.656 218.022Z" fill="#666666"/>
<path d="M234.656 236.091C234.656 235.404 234.049 234.848 233.301 234.848C232.553 234.848 231.946 235.404 231.946 236.091C231.946 236.777 232.553 237.334 233.301 237.334C234.049 237.334 234.656 236.777 234.656 236.091Z" fill="#666666"/>
<path d="M238.27 257.772C238.27 257.086 237.663 256.529 236.915 256.529C236.167 256.529 235.56 257.086 235.56 257.772C235.56 258.459 236.167 259.015 236.915 259.015C237.663 259.015 238.27 258.459 238.27 257.772Z" fill="#666666"/>
<path d="M241.883 275.841C241.883 275.154 241.276 274.598 240.528 274.598C239.78 274.598 239.173 275.154 239.173 275.841C239.173 276.527 239.78 277.084 240.528 277.084C241.276 277.084 241.883 276.527 241.883 275.841Z" fill="#666666"/>
<path d="M245.496 293.907C245.496 293.221 244.889 292.664 244.141 292.664C243.393 292.664 242.786 293.221 242.786 293.907C242.786 294.594 243.393 295.15 244.141 295.15C244.889 295.15 245.496 294.594 245.496 293.907Z" fill="#666666"/>
<path d="M245.496 311.976C245.496 311.289 244.889 310.732 244.141 310.732C243.393 310.732 242.786 311.289 242.786 311.976C242.786 312.662 243.393 313.219 244.141 313.219C244.889 313.219 245.496 312.662 245.496 311.976Z" fill="#666666"/>
<path d="M143.638 164.156C143.638 164.156 143.938 92.1836 69.2605 92.1836C1.80655 92.1836 4.21678 166.263 4.21678 166.263L143.638 164.156Z" fill="#C5D9DD"/>
<path d="M152.672 164.156H0V169.577H152.672V164.156Z" fill="#BECACE"/>
<path d="M75.5843 89.777C75.5843 86.6187 73.6981 84.0566 71.3674 84.0566C69.0402 84.0566 67.1504 86.6187 67.1504 89.777C67.1504 92.9353 69.0366 95.4974 71.3674 95.4974C73.6945 95.4974 75.5843 92.9353 75.5843 89.777Z" fill="#C5D9DD"/>
<path opacity="0.32" d="M17.3126 134.359C15.7262 139.877 15.4623 146.356 19.0686 150.826C23.8602 156.763 33.0531 156.445 40.3054 154.089C53.372 149.843 64.7547 140.614 71.6132 128.707C73.9837 124.595 75.8518 120.063 76.047 115.322C76.2421 110.581 74.5511 105.591 70.8472 102.624C65.5823 98.4068 57.9142 99.2235 51.4965 101.298C35.7921 106.364 21.8729 118.495 17.3126 134.359Z" fill="white"/>
<path d="M268.208 259.406C268.208 259.406 235.53 248.583 232.361 246.509C229.192 244.435 224.769 247.401 228.126 250.534C231.479 253.671 238.389 255.984 238.389 255.984L219.692 255.753C219.692 255.753 217.701 255.424 217.314 258.17C216.928 260.913 220.769 260.754 220.769 260.754L229.709 262.217L220.769 262.347C220.769 262.347 216.252 262.272 216.483 264.855C216.714 267.435 221.535 267.949 221.535 267.949L231.31 269.033L221.831 268.404C221.831 268.404 217.401 267.735 217.95 270.615C218.5 273.496 225.539 273.9 225.539 273.9L233.832 275.53L223.212 274.533C223.212 274.533 221.437 274.901 221.571 277.355C221.672 279.183 226.54 279.075 226.54 279.075C226.54 279.075 248.123 280.202 256.279 275.805C262.953 272.202 268.009 269.672 268.009 269.672L269.27 263.023L268.208 259.406Z" fill="#E6B89C"/>
<path d="M108.182 192.726C108.182 192.039 107.575 191.482 106.827 191.482C106.079 191.482 105.472 192.039 105.472 192.726C105.472 193.412 106.079 193.969 106.827 193.969C107.575 193.969 108.182 193.412 108.182 192.726Z" fill="#666666"/>
<path d="M313.927 161.899C313.927 161.899 321.154 156.478 345.997 204.811C360.173 232.39 367.819 252.276 370.305 261.653C371.639 266.676 367.906 271.594 362.71 271.663L264.24 272.566L260.627 256.757L340.125 249.981L312.572 205.714C312.572 205.714 303.086 183.129 313.927 161.899Z" fill="#C8D7DB"/>
<path d="M337.628 249.724L276.306 252.047C275.706 252.069 275.233 252.564 275.236 253.16L275.536 365.013L339.976 366.82L338.784 250.822C338.773 250.197 338.253 249.698 337.628 249.724Z" fill="#E6E6E6"/>
<path d="M239.173 729.554C239.173 729.554 244.351 731.223 247.108 752.905H173.19C173.19 752.905 165.63 744.041 190.163 737.908C211.844 732.488 218.847 724.426 218.847 724.426C218.847 724.426 229.193 734.779 231.946 734.331C234.7 733.883 239.173 729.554 239.173 729.554Z" fill="#CCCCCC"/>
<path d="M247.104 750.773H172.73V762.214H247.104V750.773Z" fill="#E6E6E6"/>
<path d="M311.216 730.233C311.216 730.233 311.964 731.227 314.718 752.909H240.799C240.799 752.909 236.087 744.478 260.999 740.149C282.98 736.33 291.111 728.268 291.111 728.268C291.111 728.268 296.35 737.186 299.104 736.734C301.865 736.283 311.216 730.233 311.216 730.233Z" fill="#E6E6E6"/>
<path d="M314.718 750.773H240.344V762.214H314.718V750.773Z" fill="#F2F2F2"/>
<path d="M279.666 13.1098C276.36 11.6933 272.977 10.3671 269.429 9.7672C266.509 9.27214 263.528 9.28298 260.565 9.30467C251.686 9.37694 242.754 9.59014 234.056 11.3753C225.358 13.1568 216.837 16.6078 210.189 22.4944C208.606 23.8929 207.114 25.4612 206.203 27.3656C205.491 28.8544 205.159 30.4914 204.833 32.1103C202.456 43.9739 200.071 56.1699 202.149 68.0877C203.074 73.3889 204.862 78.4949 206.64 83.5685C205.075 73.5804 209.408 63.5345 215.255 55.2882C221.101 47.0418 228.491 39.9844 234.334 31.7345C232.82 37.3465 230.096 42.6296 226.395 47.1141C229.333 42.8573 233.192 39.3195 236.354 35.2253C239.516 31.131 242.027 26.1478 241.565 20.9948C243.148 25.8443 246.205 30.0758 249.529 33.946C261.815 48.2488 278.257 58.75 289.365 73.9887C286.539 67.4661 282.72 61.3771 278.08 55.9964C287.215 66.1688 296.585 76.7315 300.928 89.6972C307.404 79.3802 307.422 66.429 307.237 54.2474C307.122 46.5576 306.93 38.5606 303.44 31.7092C298.778 22.5559 289.112 17.1535 279.666 13.1098Z" fill="#F39C35"/>
</svg>
