<svg width="427" height="817" viewBox="0 0 427 817" fill="none" xmlns="http://www.w3.org/2000/svg">
<path d="M36.6665 278.797C0.815566 253.838 -11.4303 223.001 12.0308 186.635C35.4918 150.269 84.4537 146.752 87.8328 102.172C91.2118 57.5919 85.9306 38.2379 115.257 30.0306C144.583 21.8165 153.457 -9.8519 178.642 3.05307C203.827 15.958 222.597 32.3796 218.49 57.0151C214.383 81.6506 196.203 85.4072 188.58 97.3095C180.956 109.212 206.759 148.092 196.203 174.993C185.647 201.882 78.8979 308.198 36.6665 278.797Z" fill="#9E4835"/>
<path d="M151.774 90.4414C151.774 96.8905 143.855 123.284 143.855 123.284C143.855 123.284 154.851 131.203 169.514 133.257C184.177 135.31 176.698 130.763 176.698 130.763C176.698 130.763 177.433 110.235 178.608 104.226C179.782 98.2161 151.774 90.4414 151.774 90.4414Z" fill="#FF8883"/>
<path d="M154.412 81.0598C155.73 79.0818 155.511 67.8596 156.829 66.3968C158.148 64.927 165.263 67.3513 167.241 65.3733C169.219 63.3953 175.744 50.7857 181.98 50.9299C188.209 51.0741 197.453 41.2529 197.453 41.2529C197.453 41.2529 213.03 109.548 189.061 113.724C165.085 117.9 152.99 90.7368 152.99 90.7368C152.99 90.7368 147.269 101.623 140.895 94.9125C134.515 88.2025 140.127 74.2399 144.192 72.5915C148.251 70.9432 154.412 81.0598 154.412 81.0598Z" fill="#FFCCC2"/>
<path d="M105.291 748.245C99.1304 759.976 92.9762 794.288 98.5462 800.737C104.116 807.186 108.224 805.724 131.101 809.24C153.978 812.756 185.942 824.198 187.7 806.012C189.458 787.832 148.401 748.238 148.401 748.238H105.291V748.245Z" fill="#9BAECC"/>
<path d="M93.5605 449.988C96.4932 481.663 102.358 680.643 97.6673 711.363C92.9765 742.084 99.1579 751.857 105.744 752.544C112.331 753.231 152.412 761.246 157.591 752.544C162.769 743.842 178.023 449.404 178.023 446.472C178.023 443.539 93.5605 449.988 93.5605 449.988Z" fill="#243354"/>
<path opacity="0.25" d="M125.242 755.326L142.296 402.188" stroke="black" stroke-width="0.3594" stroke-miterlimit="10" stroke-linecap="round"/>
<path d="M221.367 755.883C217.404 768.527 217.473 803.388 224.107 808.739C230.742 814.089 234.519 811.919 257.657 811.294C280.796 810.669 314.291 816.211 312.773 798.004C311.255 779.797 263.783 748.184 263.783 748.184L221.367 755.883Z" fill="#9BAECC"/>
<path d="M156.54 422.42C165.084 453.058 206.402 689.894 207.274 720.958C208.146 752.022 215.976 760.538 222.576 760.03C229.176 759.529 270.047 760.25 273.591 750.765C277.135 741.281 239.32 448.882 239.011 445.963C234.684 404.824 156.54 422.42 156.54 422.42Z" fill="#243354"/>
<path opacity="0.25" d="M234.684 759.646L183.003 412.51" stroke="black" stroke-width="0.3594" stroke-miterlimit="10" stroke-linecap="round"/>
<path d="M385.945 147.921C383.596 135.888 390.052 115.291 394.448 114.157C398.85 113.024 400.313 126.403 400.313 126.403C400.313 126.403 411.707 108.917 411.144 100.119C410.58 91.3214 427.881 104 426.706 126.403C425.532 148.807 407.353 161.705 402.071 172.851C396.796 183.998 385.945 147.921 385.945 147.921Z" fill="#FFCCC2"/>
<path d="M225.817 143.229C243.413 144.987 305.294 204.519 308.522 207.452C311.75 210.385 366.591 142.749 375.973 137.124C385.354 131.499 397.971 159.651 409.702 169.328C421.432 179.005 358.967 288.103 319.964 293.673C280.961 299.243 239.025 251.442 239.025 251.442L225.817 143.229Z" fill="#A82D3D"/>
<path d="M77.723 330.335C70.0996 387.813 60.711 432.393 65.9924 457.028C71.2739 481.664 189.754 470.517 192.687 457.028C195.619 443.54 197.968 430.051 197.968 430.051C197.968 430.051 195.619 448.821 205.008 454.096C214.39 459.377 239.025 453.512 246.065 444.123C253.104 434.742 255.446 177.274 229.053 145.585C202.659 113.903 138.004 131.018 138.004 131.018L91.8024 217.72L77.723 330.335Z" fill="#842132"/>
<path opacity="0.25" d="M151.877 299.01C151.877 299.01 163.649 348.961 127.139 382.827" stroke="black" stroke-width="0.3594" stroke-miterlimit="10" stroke-linecap="round"/>
<path opacity="0.25" d="M197.961 430.044C197.961 430.044 202.363 224.464 186.086 162.439" stroke="black" stroke-width="0.3594" stroke-miterlimit="10" stroke-linecap="round"/>
<path d="M112.619 139.864C82.7093 144.844 18.0405 276.812 24.2011 330.918C30.3616 385.024 118.341 366.989 131.981 369.187C145.614 371.384 155.737 320.355 150.455 305.404C145.174 290.445 105.745 278.79 105.745 278.79C105.745 278.79 160.977 169.033 142.296 149.239C123.615 129.445 112.619 139.864 112.619 139.864Z" fill="#A82D3D"/>
<path d="M158.113 152.151C158.113 152.151 152.413 202.501 154.109 234.471C155.806 266.442 168.786 317.279 174.912 316.194C181.039 315.108 200.606 298.55 214.307 296.572C228.009 294.594 203.106 275.13 197.79 246.25C192.474 217.363 187.343 153.772 187.343 153.772L158.113 152.151Z" fill="#6C86AD"/>
<path d="M130.627 100.655C142.941 115.613 162.962 128.587 185.832 123.093C208.71 117.592 209.808 104.803 217.507 112.516C225.206 120.229 233.785 126.829 234.664 135.847C235.543 144.864 204.746 176.759 175.935 171.038C147.124 165.317 106.431 140.249 105.772 133.869C105.112 127.488 115.009 127.928 118.746 118.91C122.489 109.892 126.225 99.556 130.627 100.655Z" fill="#9BAECC"/>
<path opacity="0.25" d="M308.523 207.459C308.523 207.459 296.792 268.749 319.958 293.68" stroke="black" stroke-width="0.3594" stroke-miterlimit="10" stroke-linecap="round"/>
<path opacity="0.25" d="M105.744 278.797C105.744 278.797 31.8304 300.465 27.3594 342.971" stroke="black" stroke-width="0.3594" stroke-miterlimit="10" stroke-linecap="round"/>
<path opacity="0.25" d="M229.052 312.079C229.052 312.079 217.59 350.533 242.898 363.857" stroke="black" stroke-width="0.3594" stroke-miterlimit="10" stroke-linecap="round"/>
</svg>
