<svg width="120" height="162" viewBox="0 0 120 162" fill="none" xmlns="http://www.w3.org/2000/svg">
<path d="M118.97 138.982C118.609 138.208 117.783 137.581 116.943 137.736C115.807 137.945 115.498 138.864 112.589 144.086C111.905 145.314 111.148 145.981 108.749 144.813C102.588 141.811 96.9505 138.624 90.2745 136.228C90.3885 131.598 90.1325 126.427 89.3915 120.531C89.0915 118.147 87.6375 114.716 86.3765 112.174C94.5395 114.024 102.779 114.909 102.779 114.909C104.326 118.109 111.644 119.754 115.114 112.971C118.584 106.188 107.718 104.619 107.718 104.619C91.4455 90.2897 75.9205 85.7257 75.9205 85.7257L66.9585 85.9207C64.7335 85.3857 62.4275 85.0977 60.0595 85.0977C59.9675 85.0977 59.8765 85.1057 59.7845 85.1067C59.6925 85.1057 59.6015 85.0977 59.5095 85.0977C57.1425 85.0977 54.8355 85.3857 52.6105 85.9207L43.6485 85.7257C43.6485 85.7257 28.1235 90.2897 11.8505 104.619C11.8505 104.619 0.985486 106.189 4.45549 112.971C7.92549 119.754 15.2425 118.109 16.7895 114.909C16.7895 114.909 25.0295 114.024 33.1925 112.174C31.9315 114.715 30.4775 118.147 30.1775 120.531C29.4365 126.426 29.1805 131.597 29.2935 136.228C22.6175 138.624 16.9795 141.811 10.8195 144.813C8.4215 145.982 7.66448 145.314 6.98048 144.086C4.07148 138.865 3.76251 137.946 2.62651 137.736C1.78651 137.581 0.960498 138.209 0.599498 138.982C0.106498 140.038 0.231493 139.492 0.275493 158.204C0.278493 159.285 0.473502 160.644 1.5095 160.956C1.8935 161.072 2.30649 161.001 2.70149 160.929C6.89049 160.164 10.9555 159.505 15.2145 159.31C16.1685 159.266 25.2855 159.122 27.8055 159.28C27.8055 159.28 65.8015 159.175 91.7565 159.248C91.7575 159.259 91.7605 159.269 91.7615 159.28C91.9465 159.268 92.1765 159.259 92.4275 159.25C92.7005 159.251 92.9795 159.251 93.2495 159.252L93.2415 159.229C96.7665 159.162 103.537 159.272 104.352 159.309C108.611 159.503 112.676 160.163 116.865 160.928C117.26 161 117.674 161.071 118.058 160.955C119.093 160.643 119.288 159.284 119.291 158.203C119.339 139.492 119.463 140.038 118.97 138.982Z" fill="#E8CEBA"/>
<path d="M118.97 138.983C118.609 138.209 117.783 137.582 116.943 137.737C115.807 137.946 115.498 138.865 112.589 144.087C111.905 145.315 111.148 145.982 108.749 144.814C102.588 141.812 96.9505 138.625 90.2745 136.229C90.3885 131.599 90.1325 126.428 89.3915 120.532C89.0915 118.148 87.6375 114.717 86.3765 112.175C94.1785 113.943 102.031 114.827 102.712 114.902C103.377 110.99 104.956 107.294 107.808 104.633C107.753 104.624 107.718 104.619 107.718 104.619C91.4454 90.2897 75.9204 85.7256 75.9204 85.7256L66.9585 85.9207C64.7335 85.3857 62.4275 85.0977 60.0595 85.0977C59.9675 85.0977 59.8765 85.1057 59.7845 85.1067C59.6925 85.1057 59.6015 85.0977 59.5095 85.0977C57.1425 85.0977 54.8355 85.3857 52.6105 85.9207L43.6484 85.7256C43.6484 85.7256 28.4265 90.2067 12.3305 104.205C14.8175 107.418 17.1025 110.765 18.4995 114.705C21.3275 114.348 27.2725 113.517 33.1935 112.175C31.9325 114.716 30.4784 118.148 30.1784 120.532C29.4374 126.427 29.1815 131.598 29.2945 136.229C22.6185 138.625 16.9805 141.812 10.8205 144.814C8.42248 145.983 7.66546 145.315 6.98146 144.087C4.07246 138.866 3.76345 137.947 2.62745 137.737C1.78745 137.582 0.961475 138.21 0.600475 138.983C0.107475 140.039 0.23247 139.493 0.27647 158.205C0.27947 159.286 0.474448 160.645 1.51045 160.957C1.89445 161.073 2.30746 161.002 2.70246 160.93C6.89146 160.165 10.9565 159.506 15.2155 159.311C16.1695 159.267 25.2865 159.123 27.8065 159.281C27.8065 159.281 65.8025 159.176 91.7575 159.249C91.7585 159.26 91.7615 159.27 91.7625 159.281C91.9475 159.269 92.1774 159.26 92.4284 159.251C92.7014 159.252 92.9805 159.252 93.2505 159.253L93.2425 159.23C96.7675 159.163 103.538 159.273 104.353 159.31C108.612 159.504 112.677 160.164 116.866 160.929C117.261 161.001 117.674 161.072 118.058 160.956C119.093 160.644 119.289 159.285 119.292 158.204C119.339 139.493 119.463 140.039 118.97 138.983Z" fill="#DBACD7"/>
<path d="M62.5503 110.335C62.5503 115.598 61.5853 119.865 60.3943 119.865C59.2043 119.865 58.2383 115.598 58.2383 110.335C58.2383 105.072 59.2033 100.805 60.3943 100.805C61.5853 100.805 62.5503 105.072 62.5503 110.335Z" fill="#765D89"/>
<path d="M53.276 113.33C57.834 115.962 61.047 118.931 60.452 119.962C59.857 120.993 55.679 119.695 51.121 117.064C46.563 114.432 43.35 111.463 43.945 110.432C44.54 109.401 48.718 110.698 53.276 113.33Z" fill="#765D89"/>
<path d="M51.2343 122.861C55.7923 120.229 59.9703 118.932 60.5653 119.963C61.1603 120.994 57.9483 123.963 53.3893 126.595C48.8313 129.227 44.6533 130.524 44.0583 129.493C43.4633 128.462 46.6753 125.493 51.2343 122.861Z" fill="#765D89"/>
<path d="M58.4658 129.393C58.4658 124.13 59.4308 119.863 60.6218 119.863C61.8128 119.863 62.7778 124.13 62.7778 129.393C62.7778 134.656 61.8128 138.923 60.6218 138.923C59.4308 138.924 58.4658 134.657 58.4658 129.393Z" fill="#765D89"/>
<path d="M67.7403 126.4C63.1823 123.768 59.9693 120.799 60.5653 119.768C61.1603 118.737 65.3383 120.035 69.8963 122.666C74.4543 125.298 77.6673 128.267 77.0723 129.298C76.4763 130.329 72.2983 129.032 67.7403 126.4Z" fill="#765D89"/>
<path d="M69.7818 116.869C65.2238 119.501 61.0458 120.798 60.4508 119.767C59.8558 118.736 63.0679 115.767 67.6259 113.135C72.1839 110.503 76.3619 109.206 76.9569 110.237C77.5529 111.268 74.3408 114.237 69.7818 116.869Z" fill="#765D89"/>
<path d="M57.5115 110.591C60.1435 115.149 61.4405 119.327 60.4095 119.922C59.3785 120.517 56.4095 117.305 53.7775 112.746C51.1455 108.188 49.8485 104.01 50.8795 103.415C51.9115 102.82 54.8805 106.033 57.5115 110.591Z" fill="#FFEFDC"/>
<path d="M50.9782 122.136C56.2415 122.136 60.5082 121.171 60.5082 119.98C60.5082 118.789 56.2415 117.824 50.9782 117.824C45.715 117.824 41.4482 118.789 41.4482 119.98C41.4482 121.171 45.715 122.136 50.9782 122.136Z" fill="#FFEFDC"/>
<path d="M53.9746 127.099C56.6066 122.541 59.5756 119.328 60.6066 119.923C61.6376 120.518 60.3406 124.696 57.7086 129.254C55.0766 133.812 52.1076 137.024 51.0766 136.429C50.0456 135.834 51.3436 131.657 53.9746 127.099Z" fill="#FFEFDC"/>
<path d="M63.504 129.14C60.872 124.582 59.575 120.404 60.606 119.809C61.637 119.214 64.606 122.426 67.238 126.985C69.87 131.543 71.167 135.721 70.136 136.316C69.105 136.911 66.136 133.698 63.504 129.14Z" fill="#FFEFDC"/>
<path d="M70.0378 121.906C64.7748 121.906 60.5078 120.941 60.5078 119.75C60.5078 118.559 64.7748 117.594 70.0378 117.594C75.3008 117.594 79.5678 118.559 79.5678 119.75C79.5678 120.941 75.3008 121.906 70.0378 121.906Z" fill="#FFEFDC"/>
<path d="M67.0426 112.632C64.4106 117.19 61.4416 120.403 60.4106 119.808C59.3796 119.213 60.6776 115.035 63.3086 110.477C65.9406 105.919 68.9096 102.706 69.9406 103.301C70.9716 103.896 69.6736 108.074 67.0426 112.632Z" fill="#FFEFDC"/>
<path d="M67.0345 119.866C67.0345 123.47 64.1125 126.393 60.5085 126.393C56.9035 126.393 53.9814 123.471 53.9814 119.866C53.9814 116.261 56.9035 113.34 60.5085 113.34C64.1125 113.34 67.0345 116.262 67.0345 119.866Z" fill="#ECE83E"/>
<path d="M26.2925 57.6239C26.3235 61.9229 23.1905 65.0559 18.8915 65.0249C14.5925 65.0559 11.4595 61.9229 11.4905 57.6239C11.4595 53.3249 14.5925 50.1919 18.8915 50.2229C23.1905 50.1929 26.3235 53.3249 26.2925 57.6239Z" fill="#E8CEBA"/>
<path d="M109.135 57.6239C109.166 61.9229 106.033 65.0559 101.734 65.0249C97.4352 65.0559 94.3022 61.9229 94.3332 57.6239C94.3022 53.3249 97.4352 50.1919 101.734 50.2229C106.033 50.1929 109.166 53.3249 109.135 57.6239Z" fill="#E8CEBA"/>
<path d="M105.109 45.2231C105.295 71.2431 86.333 90.2051 60.313 90.0191C34.293 90.2051 15.331 71.2431 15.517 45.2231C15.331 19.2031 34.293 0.241138 60.313 0.427138C86.333 0.241138 105.295 19.2031 105.109 45.2231Z" fill="#F7DCC6"/>
<path d="M78.6378 15.0611C85.1758 19.2711 92.6447 22.1041 100.313 23.8201C96.9897 17.1851 92.0627 11.6661 85.9377 7.65714C85.9417 7.65314 85.9448 7.64915 85.9488 7.64515C78.8178 2.97615 70.0607 0.358132 60.3127 0.427132C41.2547 0.291132 25.9938 10.4341 19.2598 26.0921C25.9578 26.2251 32.5158 25.5451 38.7648 22.7051C35.0618 27.4801 31.7058 30.0992 26.1718 32.1502C36.6658 31.1012 44.4298 31.4841 52.8248 25.1881C51.7608 28.1351 50.2818 29.5891 47.4218 32.2281C57.7818 29.4661 70.7078 22.3921 78.6378 15.0611Z" fill="#F6C227"/>
<path d="M56.2041 65.4957C56.4261 64.6397 57.0011 63.9437 57.7181 63.4207C58.4431 62.9087 59.3731 62.6027 60.3101 62.6307C61.2401 62.6597 62.1591 62.9527 62.8621 63.4827C63.2351 63.7157 63.5081 64.0727 63.8001 64.3717C64.0451 64.7277 64.2681 65.0907 64.4221 65.4957C63.9721 65.4207 63.6061 65.2827 63.2361 65.1747C62.8591 65.0907 62.5201 64.9597 62.1781 64.8977C61.5071 64.7137 60.8851 64.6607 60.2801 64.6297C59.0591 64.5797 57.8291 64.9407 56.2041 65.4957Z" fill="#E8CEBA"/>
<path d="M92.6702 66.337C92.6702 68.687 88.7412 70.592 83.8932 70.592C79.0462 70.592 75.1172 68.687 75.1172 66.337C75.1172 63.987 79.0462 62.082 83.8932 62.082C88.7412 62.082 92.6702 63.987 92.6702 66.337Z" fill="#EDBDA9"/>
<path d="M45.5081 66.337C45.5081 68.687 41.5791 70.592 36.7311 70.592C31.8831 70.592 27.9551 68.687 27.9551 66.337C27.9551 63.987 31.8841 62.082 36.7311 62.082C41.5781 62.082 45.5081 63.987 45.5081 66.337Z" fill="#EDBDA9"/>
<path d="M60.7479 70.3708C57.0129 69.2128 45.3359 60.8878 45.3359 75.9178C45.3359 90.3288 56.9719 80.6958 60.7479 79.3918C64.5229 80.6958 76.1599 90.3288 76.1599 75.9178C76.1599 60.8888 64.4829 69.2138 60.7479 70.3708ZM51.0109 81.2028C49.8889 81.2028 48.9789 80.2928 48.9789 79.1708C48.9789 78.0488 49.8889 77.1388 51.0109 77.1388C52.1329 77.1388 53.0429 78.0488 53.0429 79.1708C53.0429 80.2928 52.1329 81.2028 51.0109 81.2028ZM51.2629 73.5468C50.1409 73.5468 49.2309 72.6368 49.2309 71.5148C49.2309 70.3928 50.1409 69.4828 51.2629 69.4828C52.3849 69.4828 53.295 70.3928 53.295 71.5148C53.295 72.6368 52.3849 73.5468 51.2629 73.5468ZM70.2339 69.4838C71.3559 69.4838 72.2659 70.3938 72.2659 71.5158C72.2659 72.6378 71.3559 73.5478 70.2339 73.5478C69.1119 73.5478 68.2019 72.6378 68.2019 71.5158C68.2019 70.3938 69.1119 69.4838 70.2339 69.4838ZM70.4859 81.2028C69.3639 81.2028 68.4539 80.2928 68.4539 79.1708C68.4539 78.0488 69.3639 77.1388 70.4859 77.1388C71.6079 77.1388 72.5179 78.0488 72.5179 79.1708C72.5179 80.2928 71.6079 81.2028 70.4859 81.2028Z" fill="#765D89"/>
<path d="M60.9379 89.9257C56.2649 89.9257 52.4619 86.1227 52.4619 81.4487C52.4619 76.7747 56.2649 72.9727 60.9379 72.9727C65.6119 72.9727 69.4149 76.7757 69.4149 81.4487C69.4149 86.1227 65.6119 89.9257 60.9379 89.9257ZM60.9379 74.9557C57.3569 74.9557 54.4449 77.8687 54.4449 81.4487C54.4449 85.0297 57.3579 87.9427 60.9379 87.9427C64.5179 87.9427 67.4319 85.0297 67.4319 81.4487C67.4319 77.8687 64.5189 74.9557 60.9379 74.9557Z" fill="#DBACD7"/>
<path d="M63.0184 78.3849H58.8594C57.1324 78.3849 55.7324 76.9848 55.7324 75.2578V74.7169C55.7324 72.9899 57.1324 71.5898 58.8594 71.5898H63.0184C64.7454 71.5898 66.1454 72.9899 66.1454 74.7169V75.2578C66.1454 76.9848 64.7454 78.3849 63.0184 78.3849Z" fill="#FFEFDC"/>
<path d="M81.0137 54.805C81.0137 51.968 82.4457 49.668 84.2127 49.668C85.9787 49.668 87.4117 51.968 87.4117 54.805C87.4117 57.642 85.9797 59.942 84.2127 59.942C82.4467 59.942 81.0137 57.642 81.0137 54.805Z" fill="#575756"/>
<path d="M33.2158 54.805C33.2158 51.968 34.6478 49.668 36.4138 49.668C38.1808 49.668 39.6128 51.968 39.6128 54.805C39.6128 57.642 38.1808 59.942 36.4138 59.942C34.6478 59.942 33.2158 57.642 33.2158 54.805Z" fill="#575756"/>
<path d="M35.4092 55.9235C35.4092 54.7575 36.1012 53.8125 36.9552 53.8125C37.8092 53.8125 38.5012 54.7575 38.5012 55.9235C38.5012 57.0895 37.8092 58.0345 36.9552 58.0345C36.1012 58.0345 35.4092 57.0895 35.4092 55.9235Z" fill="#9D9D9C"/>
<path d="M83.207 55.9235C83.207 54.7575 83.899 53.8125 84.753 53.8125C85.607 53.8125 86.299 54.7575 86.299 55.9235C86.299 57.0895 85.607 58.0345 84.753 58.0345C83.9 58.0345 83.207 57.0895 83.207 55.9235Z" fill="#9D9D9C"/>
</svg>
