<svg width="116" height="193" viewBox="0 0 116 193" fill="none" xmlns="http://www.w3.org/2000/svg">
<path d="M107.624 108.009C90.7764 93.1729 74.7014 88.4469 74.7014 88.4469L65.4224 88.6489C63.1184 88.0949 60.7304 87.7969 58.2794 87.7969C58.1834 87.7969 58.0894 87.8049 57.9944 87.8059C57.8994 87.8049 57.8054 87.7969 57.7094 87.7969C55.2584 87.7969 52.8704 88.0949 50.5664 88.6489L41.2874 88.4469C41.2874 88.4469 25.2124 93.1729 8.36443 108.009C8.36443 108.009 -2.88557 109.634 0.708428 116.657C4.30143 123.68 11.8774 121.977 13.4794 118.664C13.4794 118.664 22.0114 117.748 30.4634 115.833C29.1574 118.464 27.6524 122.017 27.3414 124.485C23.5374 154.743 31.9394 166.775 39.2734 181.827C40.4834 184.31 39.7924 185.094 38.5214 185.802C33.1154 188.814 32.1634 189.134 31.9474 190.31C31.7874 191.18 32.4364 192.035 33.2374 192.409C34.3314 192.919 33.7664 192.79 53.1404 192.744C54.2604 192.741 55.6664 192.539 55.9894 191.467C56.1094 191.069 56.0354 190.642 55.9614 190.233C55.1694 185.896 54.4864 181.687 54.2854 177.277C54.2334 176.13 54.0394 163.569 54.3604 163.569C55.7474 163.721 56.8104 163.759 57.9954 163.747C59.1804 163.759 60.2444 163.721 61.6304 163.569C61.9514 163.569 61.7574 176.13 61.7054 177.277C61.5044 181.687 60.8214 185.896 60.0294 190.233C59.9544 190.642 59.8814 191.069 60.0014 191.467C60.3244 192.539 61.7314 192.742 62.8504 192.744C82.2244 192.79 81.6594 192.919 82.7534 192.409C83.5544 192.035 84.2044 191.18 84.0434 190.31C83.8264 189.134 82.8754 188.814 77.4694 185.802C76.1984 185.094 75.5074 184.31 76.7174 181.827C84.0514 166.776 92.4534 154.744 88.6494 124.485C88.3394 122.017 86.8334 118.464 85.5284 115.833C93.9804 117.748 102.512 118.664 102.512 118.664C104.114 121.977 111.689 123.68 115.282 116.657C118.873 109.634 107.624 108.009 107.624 108.009Z" fill="#E8CEBA"/>
<path d="M74.701 88.4469L65.422 88.6489C63.118 88.0949 60.73 87.7969 58.279 87.7969C58.183 87.7969 58.089 87.8049 57.994 87.8059C57.899 87.8049 57.805 87.7969 57.709 87.7969C55.258 87.7969 52.87 88.0949 50.566 88.6489L41.287 88.4469C41.287 88.4469 25.22 93.1709 8.375 107.999C9.963 111.716 10.664 116.167 12.923 119.473C13.143 119.216 13.34 118.949 13.478 118.663C13.478 118.663 22.01 117.747 30.462 115.832C29.156 118.463 27.651 122.016 27.34 124.484C23.536 154.742 31.938 166.775 39.272 181.825C40.482 184.308 39.791 185.092 38.52 185.8C33.114 188.812 32.162 189.132 31.946 190.308C31.786 191.178 32.435 192.033 33.236 192.406C34.33 192.916 33.765 192.788 53.139 192.742C54.259 192.739 55.665 192.537 55.988 191.465C56.108 191.067 56.034 190.64 55.96 190.231C55.168 185.894 54.485 181.685 54.284 177.275C54.232 176.128 54.038 163.567 54.359 163.567C55.746 163.719 56.809 163.757 57.994 163.745C59.179 163.757 60.243 163.719 61.629 163.567C61.95 163.567 61.756 176.128 61.704 177.275C61.503 181.685 60.82 185.894 60.028 190.231C59.953 190.64 59.88 191.067 60 191.465C60.323 192.537 61.73 192.74 62.849 192.742C82.223 192.788 81.658 192.917 82.752 192.406C83.553 192.032 84.203 191.177 84.042 190.308C83.825 189.132 82.874 188.812 77.468 185.8C76.197 185.092 75.506 184.308 76.716 181.825C84.05 166.774 92.452 154.742 88.648 124.484C88.338 122.016 86.832 118.463 85.527 115.832C92.854 117.493 100.231 118.401 102.068 118.613C104.246 115.012 104.598 110.593 107.226 107.664C90.523 93.1039 74.701 88.4469 74.701 88.4469Z" fill="#658DA7"/>
<path d="M89.2 129.725C89.466 132.857 89.586 135.772 89.587 138.513C88.082 137.557 87.077 135.886 87.077 133.971C87.077 132.231 87.916 130.704 89.2 129.725ZM78.273 146.66C73.522 146.66 69.608 150.215 69.027 154.808C66.839 155.494 65.241 157.513 65.241 159.927C65.241 162.904 67.654 165.316 70.63 165.316C71.851 165.316 72.964 164.895 73.868 164.21C75.18 164.914 76.679 165.316 78.273 165.316C79.89 165.316 81.411 164.903 82.737 164.179C83.266 164.674 83.924 165.028 84.653 165.198C85.786 162.363 86.791 159.366 87.596 156.091C87.596 156.056 87.601 156.022 87.601 155.987C87.602 150.837 83.425 146.66 78.273 146.66ZM40.508 113.404C41.729 113.404 42.842 112.983 43.746 112.298C45.058 113.002 46.557 113.404 48.151 113.404C49.768 113.404 51.289 112.991 52.615 112.267C53.362 112.967 54.36 113.404 55.465 113.404C57.774 113.404 59.645 111.533 59.645 109.224C59.645 107.6 58.71 106.209 57.357 105.516C57.43 105.045 57.48 104.566 57.48 104.075C57.48 98.9231 53.303 94.7461 48.151 94.7461C43.4 94.7461 39.486 98.3011 38.905 102.894C36.717 103.58 35.119 105.599 35.119 108.013C35.119 110.992 37.532 113.404 40.508 113.404ZM20.46 105.517C20.533 105.046 20.582 104.567 20.582 104.076C20.582 102.416 20.144 100.861 19.384 99.5111C15.866 101.876 12.141 104.683 8.375 107.999C9.096 109.687 9.637 111.525 10.221 113.34C10.561 113.378 10.904 113.405 11.253 113.405C12.871 113.405 14.391 112.992 15.717 112.268C16.464 112.968 17.462 113.405 18.567 113.405C20.875 113.405 22.747 111.534 22.747 109.225C22.748 107.601 21.812 106.209 20.46 105.517ZM54.284 177.275C54.266 176.873 54.23 175.069 54.205 172.896C50.507 173.807 47.678 176.917 47.191 180.766C45.003 181.452 43.405 183.471 43.405 185.885C43.405 188.861 45.818 191.274 48.794 191.274C50.015 191.274 51.128 190.853 52.032 190.168C53.23 190.811 54.589 191.185 56.028 191.248C56.075 190.914 56.02 190.567 55.959 190.231C55.168 185.894 54.485 181.686 54.284 177.275ZM48.69 165.318C50.998 165.318 52.87 163.447 52.87 161.138C52.87 159.514 51.935 158.123 50.582 157.43C50.655 156.959 50.704 156.48 50.704 155.989C50.704 150.837 46.528 146.66 41.375 146.66C36.624 146.66 32.71 150.215 32.129 154.808C30.646 155.273 29.448 156.359 28.821 157.757C29.483 160.17 30.252 162.435 31.098 164.603C31.88 165.044 32.77 165.317 33.732 165.317C34.953 165.317 36.066 164.896 36.97 164.211C38.282 164.915 39.781 165.317 41.375 165.317C42.993 165.317 44.513 164.904 45.84 164.18C46.588 164.881 47.585 165.318 48.69 165.318ZM80.583 187.522C81.108 189.159 82.38 190.442 84.01 190.98C84.067 190.763 84.083 190.537 84.041 190.309C83.876 189.41 83.273 189.007 80.583 187.522ZM65.644 183.387C65.717 182.916 65.767 182.437 65.767 181.946C65.767 178.776 64.182 175.98 61.765 174.294C61.743 175.808 61.718 176.964 61.704 177.276C61.503 181.686 60.82 185.895 60.028 190.232C60.007 190.345 59.988 190.46 59.972 190.575C60.29 190.444 60.603 190.302 60.903 190.138C61.65 190.838 62.648 191.275 63.753 191.275C66.061 191.275 67.933 189.404 67.933 187.095C67.931 185.471 66.996 184.079 65.644 183.387ZM33.629 139.361C35.937 139.361 37.809 137.49 37.809 135.181C37.809 133.557 36.874 132.166 35.521 131.473C35.594 131.002 35.644 130.523 35.644 130.032C35.644 125.554 32.487 121.816 28.278 120.914C27.824 122.196 27.471 123.438 27.34 124.483C26.646 130.006 26.362 134.917 26.4 139.355C27.985 139.341 29.477 138.935 30.779 138.224C31.527 138.924 32.524 139.361 33.629 139.361ZM94.254 105.517C94.327 105.046 94.377 104.567 94.377 104.076C94.377 98.9241 90.201 94.7471 85.048 94.7471C80.297 94.7471 76.383 98.3021 75.802 102.895C73.614 103.581 72.016 105.6 72.016 108.014C72.016 110.991 74.429 113.403 77.405 113.403C78.626 113.403 79.739 112.982 80.643 112.297C81.955 113.001 83.454 113.403 85.048 113.403C86.666 113.403 88.186 112.99 89.513 112.266C90.26 112.966 91.258 113.403 92.363 113.403C94.671 113.403 96.543 111.532 96.543 109.223C96.542 107.601 95.606 106.209 94.254 105.517ZM67.676 138.224C68.423 138.924 69.421 139.361 70.526 139.361C72.834 139.361 74.706 137.49 74.706 135.181C74.706 133.557 73.771 132.166 72.418 131.473C72.491 131.002 72.54 130.523 72.54 130.032C72.54 124.88 68.364 120.703 63.212 120.703C58.461 120.703 54.547 124.258 53.966 128.851C51.778 129.537 50.18 131.556 50.18 133.97C50.18 136.946 52.593 139.359 55.569 139.359C56.79 139.359 57.903 138.938 58.807 138.253C60.119 138.957 61.618 139.359 63.212 139.359C64.83 139.361 66.35 138.949 67.676 138.224Z" fill="#6B97AF"/>
<path d="M23.3155 59.3507C23.3475 63.8017 20.1035 67.0457 15.6525 67.0137C11.2015 67.0457 7.95749 63.8017 7.98949 59.3507C7.95749 54.8997 11.2015 51.6557 15.6525 51.6877C20.1035 51.6557 23.3465 54.8997 23.3155 59.3507Z" fill="#E8CEBA"/>
<path d="M109.091 59.3507C109.123 63.8017 105.879 67.0457 101.428 67.0137C96.9769 67.0457 93.7329 63.8017 93.7649 59.3507C93.7329 54.8997 96.9769 51.6557 101.428 51.6877C105.879 51.6557 109.123 54.8997 109.091 59.3507Z" fill="#E8CEBA"/>
<path d="M104.922 46.5123C105.114 73.4533 85.4817 93.0863 58.5396 92.8943C31.5986 93.0873 11.9656 73.4533 12.1576 46.5123C11.9656 19.5713 31.5977 -0.0616977 58.5396 0.130302C85.4807 -0.0616977 105.115 19.5713 104.922 46.5123Z" fill="#F7DCC6"/>
<path d="M39.569 15.2501C32.799 19.6091 25.066 22.5421 17.127 24.3191C20.568 17.4491 25.669 11.7351 32.01 7.58406C32.006 7.58006 32.002 7.57606 31.999 7.57206C39.382 2.73706 48.449 0.0270587 58.542 0.0990587C78.275 -0.0419413 94.075 10.4601 101.048 26.6731C94.113 26.8111 87.323 26.1071 80.852 23.1661C84.686 28.1101 88.1609 30.8221 93.89 32.9451C83.025 31.8581 74.986 32.2561 66.293 25.7361C67.395 28.7871 68.926 30.2931 71.887 33.0251C61.164 30.1641 47.78 22.8401 39.569 15.2501Z" fill="#A86100"/>
<path d="M54.2852 67.4993C54.5252 66.6233 55.1232 65.9103 55.8642 65.3763C56.6142 64.8523 57.5712 64.5393 58.5352 64.5683C59.4922 64.5983 60.4392 64.8973 61.1662 65.4393C61.5512 65.6783 61.8352 66.0433 62.1392 66.3493C62.3952 66.7143 62.6292 67.0853 62.7932 67.4993C62.3322 67.4163 61.9561 67.2693 61.5751 67.1533C61.1861 67.0633 60.8362 66.9233 60.4812 66.8563C59.7862 66.6593 59.1372 66.6013 58.5042 66.5683C57.2292 66.5153 55.9472 66.9043 54.2852 67.4993Z" fill="#E8CEBA"/>
<path d="M88.6822 57.987C88.1552 59.866 85.5432 60.777 82.8472 60.021C80.1512 59.265 78.3932 57.129 78.9192 55.25" stroke="#575756" stroke-miterlimit="10" stroke-linecap="round" stroke-linejoin="round"/>
<path d="M28.3975 57.987C28.9245 59.866 31.5365 60.777 34.2325 60.021C36.9285 59.265 38.6865 57.129 38.1605 55.25" stroke="#575756" stroke-miterlimit="10" stroke-linecap="round" stroke-linejoin="round"/>
<path d="M92.0422 68.3747C92.0422 70.8077 87.9742 72.7808 82.9552 72.7808C77.9362 72.7808 73.8682 70.8077 73.8682 68.3747C73.8682 65.9417 77.9362 63.9688 82.9552 63.9688C87.9742 63.9688 92.0422 65.9417 92.0422 68.3747Z" fill="#EDBDA9"/>
<path d="M43.2111 68.3747C43.2111 70.8077 39.1431 72.7808 34.1241 72.7808C29.1051 72.7808 25.0371 70.8077 25.0371 68.3747C25.0371 65.9417 29.1051 63.9688 34.1241 63.9688C39.1421 63.9688 43.2111 65.9417 43.2111 68.3747Z" fill="#EDBDA9"/>
<path d="M50.2911 81.4806C49.3871 81.4806 48.6911 80.6646 48.8471 79.7746C49.6551 75.1536 53.6871 71.6406 58.5401 71.6406C63.3931 71.6406 67.4251 75.1536 68.2331 79.7746C68.3891 80.6646 67.6931 81.4806 66.7881 81.4806H50.2911Z" fill="#DDAA99"/>
<path d="M85.7589 62.5781C85.7589 62.5781 81.0559 69.4731 83.8339 71.8891C86.6119 74.3041 89.7379 68.0441 85.7589 62.5781Z" fill="#81C9CF"/>
<path d="M81.3777 61.2109C81.3777 61.2109 79.3727 64.1499 80.5567 65.1799C81.7407 66.2089 83.0727 63.5409 81.3777 61.2109Z" fill="#81C9CF"/>
<path d="M31.7908 62.5781C31.7908 62.5781 36.4938 69.4731 33.7158 71.8891C30.9378 74.3041 27.8118 68.0441 31.7908 62.5781Z" fill="#81C9CF"/>
<path d="M36.1711 61.2109C36.1711 61.2109 38.1761 64.1499 36.9921 65.1799C35.8081 66.2089 34.4761 63.5409 36.1711 61.2109Z" fill="#81C9CF"/>
<path d="M37.4254 66.4375C37.4254 66.4375 40.0634 70.3045 38.5054 71.6595C36.9474 73.0135 35.1944 69.5035 37.4254 66.4375Z" fill="#81C9CF"/>
</svg>
