<svg width="694" height="810" viewBox="0 0 694 810" fill="none" xmlns="http://www.w3.org/2000/svg">
<path d="M412.607 760.932C422.784 750.479 399.012 730.301 399.012 730.301L377.969 736.544C377.969 736.544 348.886 772.284 335.623 782.122C334.846 782.705 334.117 783.264 333.413 783.798C330.482 786.583 326.855 791.644 333.445 794.268C334.061 794.519 334.247 795.15 334.109 795.725C334.652 797.466 335.826 798.478 337.639 798.745C338.133 798.842 338.247 799.612 338.312 800.17C338.336 800.34 338.765 800.802 339.429 801.369C339.979 801.498 340.562 801.571 341.073 801.636C341.275 801.652 341.453 801.733 341.591 801.822C341.696 801.871 341.761 801.968 341.842 802.041C341.842 802.041 341.85 802.073 341.866 802.073C341.923 802.138 341.995 802.186 342.036 802.259C342.246 802.64 342.473 803.037 342.684 803.417C342.732 803.498 342.781 803.579 342.838 803.636C343.971 804.219 345.145 804.648 346.182 804.68C346.797 804.697 347.396 804.98 347.493 805.612C347.509 808.599 352.003 811.02 354.926 808.883C367.387 804.324 374.917 796.519 384.989 780.527C396.664 762.033 402.421 771.401 412.607 760.932Z" fill="#F6BA9E"/>
<path d="M347.898 805.765L347.89 805.749C347.728 805.134 347.946 804.486 348.238 803.911L348.213 803.895C348.375 803.466 348.594 803.069 348.845 802.68C349.428 801.603 350.181 800.607 350.918 799.806C350.95 799.725 351.007 799.636 351.047 799.555C349.638 800.551 347.776 802.276 347.064 804.033C345.218 804.446 342.943 804.235 342.894 801.846C342.886 800.721 343.501 799.587 344.149 798.729C344.821 797.863 345.307 797.004 346.084 796.243C346.238 795.927 346.376 795.595 346.529 795.296C346.246 795.45 345.955 795.595 345.72 795.741C344.821 796.292 344.092 797.037 343.436 797.863C342.829 798.656 341.931 799.887 341.68 801.085C338.579 801.782 338.271 798.616 339.291 796.608C339.866 795.45 340.667 794.381 341.526 793.409C341.679 793.029 341.825 792.648 341.971 792.284C340.271 793.644 338.02 795.855 337.744 798.105C337.437 798.292 337.259 798.518 336.028 797.555C334.797 796.608 334.279 795.765 334.595 794.235C334.733 794.17 334.732 794.073 334.668 794.017C334.959 792.907 335.623 791.879 336.36 790.931C336.538 790.397 336.765 789.887 337.056 789.385C335.866 790.632 334.482 792.122 333.931 793.798C330.749 793.814 329.745 789.482 331.13 787.312C332.66 784.94 335.243 783.029 337.356 781.191C337.469 781.094 337.21 781.029 337.137 781.061C334.854 782.454 333.016 784.162 331.097 785.992C330.028 787.021 328.765 788.567 329.194 790.178C329.648 791.952 331.591 794.64 333.769 794.429C333.68 794.964 333.656 795.539 333.809 796.106C334.101 797.271 336.247 798.826 337.753 798.68C337.761 798.842 337.736 798.996 337.761 799.158C338.109 801.15 339.842 802.211 341.639 801.798C341.647 801.96 341.663 802.097 341.696 802.243C342.222 804.267 344.797 805.482 346.829 804.915C346.691 805.814 346.934 806.688 347.752 807.433C347.963 807.62 348.197 807.765 348.464 807.895C348.052 807.231 347.865 806.502 347.898 805.765Z" fill="#B35831"/>
<path d="M545.432 609.914C547.246 620.319 553.852 639.298 554.103 644.132C554.103 644.132 566.111 639.29 594.562 638.974C628.301 638.594 645.029 644.602 645.029 644.602C645.029 644.602 649.175 641.485 650.47 653.93C651.749 666.391 638.779 667.897 638.779 667.897C638.779 667.897 584.288 675.031 551.61 672.456C520.454 669.986 513.183 667.079 501.961 612.521C524.478 615.185 534.024 610.481 545.432 609.914Z" fill="#F6BA9E"/>
<path d="M551.528 633.226C549.375 625.679 546.533 616.222 545.431 609.914C534.023 610.481 524.477 615.177 501.969 612.521C503.904 621.946 505.725 629.792 507.563 636.4C521.611 639.25 537.578 638.116 551.528 633.226Z" fill="#F2A686"/>
<path d="M677.481 645.516C672.558 631.776 643.993 644.269 643.993 644.269L640.357 665.937C640.357 665.937 659.684 707.75 662.704 724.009C662.874 724.957 663.061 725.863 663.231 726.714C664.421 730.592 667.392 736.058 672.639 731.297C673.133 730.851 673.797 730.965 674.242 731.345C676.056 731.612 677.464 730.997 678.501 729.491C678.808 729.078 679.554 729.329 680.064 729.491C680.234 729.556 680.841 729.378 681.634 729.029C682.007 728.6 682.323 728.114 682.606 727.669C682.711 727.499 682.857 727.386 683.011 727.288C683.092 727.24 683.189 727.207 683.31 727.175L683.343 727.159C683.432 727.127 683.505 727.078 683.594 727.078C684.039 727.046 684.476 727.029 684.914 726.997C685.003 726.981 685.092 726.981 685.173 726.965C686.185 726.203 687.1 725.337 687.585 724.422C687.861 723.88 688.395 723.459 689.002 723.661C691.706 724.957 693.059 721.305 693.447 719.183C692.759 711.119 690.241 701.2 687.261 690.099C681.602 668.965 682.42 659.273 677.481 645.516Z" fill="#F6BA9E"/>
<path d="M658.268 649.467C657.798 648.091 656.746 647.176 655.426 646.649C654.754 646.398 654.041 646.317 653.345 646.253C652.827 646.204 652.195 646.471 651.701 646.253C651.499 646.155 651.256 646.52 651.41 646.665C651.758 647.014 652.357 647.014 652.803 647.062C653.798 647.176 654.721 647.645 655.507 648.261C657.701 649.969 657.021 652.722 656.567 654.981C656.519 655.216 656.584 655.613 656.924 655.532C659.183 655.005 658.818 651.03 658.268 649.467Z" fill="#B35831"/>
<path d="M692.84 716.398C692.759 718.593 692.322 724.334 689.407 723.338L689.31 723.354C688.686 723.224 688.2 722.755 687.812 722.245H687.787C687.188 721.613 686.735 720.787 686.362 719.937C686.087 719.443 685.82 718.941 685.585 718.431C685.431 718.212 685.278 718.002 685.116 717.799C685.383 719.492 686.12 721.929 687.383 723.354C686.945 725.176 685.763 727.135 683.577 726.123C682.581 725.645 681.82 724.593 681.351 723.621C680.865 722.641 680.306 721.832 679.966 720.787C679.739 720.52 679.513 720.253 679.302 719.961C679.318 720.293 679.326 720.625 679.359 720.892C679.456 721.953 679.812 722.917 680.258 723.88C680.679 724.763 681.415 726.123 682.387 726.868C681.65 729.953 678.67 728.844 677.31 727.038C676.525 726.01 675.91 724.844 675.424 723.621C675.157 723.321 674.873 723.038 674.598 722.738C675.092 724.876 676.088 727.864 677.99 729.111C678.015 729.459 678.128 729.71 676.744 730.39C675.351 731.087 674.347 731.184 673.116 730.22C673.116 730.074 673.043 730.034 672.946 730.05C672.088 729.305 671.456 728.261 670.93 727.176C670.525 726.795 670.161 726.366 669.845 725.896C670.444 727.508 671.181 729.427 672.42 730.641C671.052 733.508 666.712 732.495 665.384 730.309C663.91 727.888 663.327 724.714 662.607 722.026C662.558 721.88 662.404 722.091 662.412 722.172C662.647 724.844 663.376 727.232 664.194 729.767C664.647 731.192 665.481 732.989 667.109 733.338C668.89 733.702 672.169 733.135 672.946 731.095C673.391 731.41 673.877 731.661 674.46 731.791C675.642 732.042 677.982 730.811 678.517 729.37C678.663 729.435 678.792 729.532 678.946 729.572C680.889 730.139 682.606 729.054 683.027 727.249C683.164 727.313 683.294 727.362 683.44 727.394C685.504 727.823 687.715 726.034 688.103 723.961C688.848 724.479 689.731 724.657 690.767 724.228C692.864 723.386 693.39 720.115 693.382 717.605C693.212 717.2 693.01 716.787 692.84 716.398Z" fill="#B35831"/>
<path d="M349.743 552.999C349.743 552.999 340.149 551.954 331.793 556.748C331.793 556.748 347.12 612.212 401.805 629.492C401.805 629.492 411.82 608.253 391.797 579.104C371.758 549.962 349.743 552.999 349.743 552.999Z" fill="#843416"/>
<path d="M300.2 591.128C297.787 595.047 296.33 599.557 296.637 605.128C297.423 619.152 306.928 626.844 318.604 628.375C345.663 609.938 374.325 598.375 389.45 592.982C383.491 579.808 374.155 564.197 360.132 552.084C338.295 560.683 318.134 574.804 300.2 591.128Z" fill="#F6BA9E"/>
<path d="M354.666 572.084C359.872 578.011 365.248 586.124 362.05 594.254C360.374 598.537 355.848 602.019 352.512 604.942C348.14 608.756 343.574 612.31 338.942 615.808C359.135 604.529 378.106 597.007 389.441 592.974C383.482 579.801 374.147 564.189 360.123 552.076C353.435 554.7 346.91 557.849 340.554 561.42C345.995 563.865 350.893 567.768 354.666 572.084Z" fill="#F2A686"/>
<path d="M398.915 513.826C398.915 513.826 411.222 507.882 466.805 502.959C518.478 498.385 542.177 516.668 542.177 516.668C542.177 516.668 566.872 570.392 570.718 622.059C570.718 622.059 541.376 630.852 488.205 628.383C488.205 628.383 481.841 600.108 463.04 571.242C463.04 571.242 431.552 611.193 401.821 629.484C401.821 629.484 376.576 545.08 331.81 556.74C331.81 556.74 377.175 533.574 397.336 530.943L398.915 513.826Z" fill="#FDB845"/>
<path opacity="0.5" d="M434.629 539.955C452.709 542.926 471.582 544.448 489.865 543.088C508.106 541.744 529.708 537.38 546.598 527.145C543.942 520.538 542.169 516.676 542.169 516.676C542.169 516.676 518.47 498.392 466.797 502.967C411.222 507.882 398.907 513.833 398.907 513.833L397.555 528.303C409.125 534.214 421.917 537.882 434.629 539.955Z" fill="#FDB845"/>
<path opacity="0.5" d="M499.524 628.748C498.083 622.959 495.613 617.266 493.549 612.222C492.043 608.554 473.096 577.21 477.428 571.057C480.667 566.474 485.484 563.802 489.784 560.441C477.015 562.15 464.724 564.741 451.835 561.235C445.309 559.462 439.098 556.838 432.573 555.081C432.5 555.065 432.427 555.049 432.37 555.016C438.572 559.381 444.604 563.98 450.531 568.725C450.993 569.089 451.227 569.672 450.879 570.214C447.875 574.992 442.953 577.882 438.418 581.032C438.305 581.129 438.175 581.202 438.046 581.299C430.888 586.457 411.335 605.607 406.955 605.493C404.404 605.429 402.987 600.983 402.008 599.323C393.919 585.866 382.964 572.822 369.84 563.996C360.658 557.826 344.367 551.47 333.146 556.417C377.07 546.798 401.805 629.477 401.805 629.477C431.544 611.177 463.024 571.235 463.024 571.235C481.825 600.093 488.189 628.376 488.189 628.376C492.107 628.578 495.872 628.691 499.524 628.748Z" fill="#FDB845"/>
<path opacity="0.5" d="M542.169 516.677C542.169 516.677 518.947 498.774 468.384 502.855C492.212 509.64 515.571 518.053 531.246 538.676C549.626 562.838 557.31 593.898 564.127 623.647C568.475 622.732 570.718 622.068 570.718 622.068C566.864 570.393 542.169 516.677 542.169 516.677Z" fill="#FDB845"/>
<path d="M469.089 581.307C468.433 579.745 467.656 578.222 466.895 576.708C466.109 575.202 465.292 573.72 464.385 572.279C463.47 570.838 462.604 569.372 461.616 567.98C460.555 566.603 459.462 565.226 458.353 563.899L458.223 563.753L457.972 563.656C455.6 562.708 453.147 561.834 450.799 560.797C449.616 560.271 448.353 559.899 447.228 559.275C446.054 558.741 444.912 558.15 443.682 557.615C444.645 558.482 445.706 559.275 446.75 560.101C447.268 560.546 447.835 560.895 448.402 561.21L450.102 562.206C451.244 562.87 452.394 563.502 453.6 564.044C454.782 564.611 455.98 565.17 457.219 565.639L456.839 565.405C457.835 566.7 458.863 567.963 459.899 569.235L462.863 573.299C463.907 574.627 464.871 575.988 465.907 577.332C466.417 578.012 466.96 578.66 467.486 579.34C468.004 579.996 468.538 580.659 469.089 581.307Z" fill="#FDB845"/>
<g opacity="0.5">
<path opacity="0.5" d="M533.522 518.741C493.119 499.575 439.592 506.376 439.527 506.376C447.341 505.081 456.385 503.874 466.805 502.959C518.478 498.385 542.177 516.668 542.177 516.668C542.177 516.668 566.872 570.392 570.718 622.059C570.718 622.059 570.572 622.091 570.337 622.172C561.075 559.574 533.522 518.741 533.522 518.741Z" fill="#FDB845"/>
</g>
<path d="M427.723 401.414C427.723 401.414 328.304 399.123 261.571 321.869C249.653 328.986 240.002 321.998 235.338 316.176C231.767 323.512 223.508 317.666 218.845 310.735C214.181 303.812 221.339 301.164 221.339 301.164C216.181 291.561 220.966 282.978 225.735 285.837C224.828 274.938 234.552 271.084 237.014 272.962C237.257 265.416 248.26 261.432 263.247 274.153C278.242 286.881 278.477 299.61 278.469 305.513C278.218 308.363 343.793 358.71 439.657 359.471C439.657 359.471 431.512 385.746 427.723 401.414Z" fill="#F6BA9E"/>
<path d="M428.791 359.156C422.241 367.472 416.849 376.994 408.849 383.982C400.016 391.698 390.956 390.451 379.993 388.411C373.491 387.196 367.127 385.472 360.698 383.966C354.383 382.508 347.954 381.577 341.752 379.666C340.092 379.156 338.465 378.573 336.821 378.022C385.037 400.419 427.714 401.415 427.714 401.415C431.504 385.739 439.641 359.472 439.641 359.472C435.981 359.448 432.378 359.318 428.791 359.156Z" fill="#F2A686"/>
<g opacity="0.5">
<path d="M266.121 309.593C264.833 308.678 263.7 307.504 262.744 306.241C262.275 305.593 261.838 304.929 261.433 304.216C261.068 303.52 260.68 302.791 260.421 302.03C260.089 301.269 259.943 300.467 259.74 299.69C259.627 298.88 259.482 298.079 259.49 297.253C259.498 296.84 259.441 296.443 259.49 296.038L259.595 294.808C259.668 293.998 259.886 293.213 260.032 292.403L261.012 293.002C260.048 293.901 259.068 294.791 258.04 295.609C256.996 296.435 255.903 297.188 254.785 297.885C253.644 298.581 252.47 299.212 251.223 299.723C249.976 300.233 248.664 300.638 247.28 300.816C245.895 300.945 244.43 300.88 243.053 300.322C241.669 299.787 240.543 298.694 239.798 297.488C239.628 297.156 239.434 296.937 239.272 296.492C239.143 296.225 239.029 295.909 238.94 295.447C238.794 294.654 238.835 293.917 238.989 293.188C239.305 291.763 239.977 290.516 240.77 289.391C242.389 287.196 244.478 285.456 246.697 284.014C248.964 282.589 251.393 281.504 253.911 280.694C258.931 279.067 264.38 278.751 269.448 279.901C266.866 279.601 264.267 279.569 261.708 279.885C259.174 280.233 256.648 280.784 254.251 281.69C251.854 282.557 249.571 283.731 247.458 285.172C245.377 286.597 243.426 288.257 242.001 290.281C241.304 291.277 240.746 292.387 240.519 293.504C240.398 294.038 240.398 294.646 240.495 295.099C240.511 295.302 240.616 295.593 240.762 295.909C240.827 296.079 241.045 296.387 241.175 296.621C241.806 297.585 242.624 298.411 243.677 298.832C244.721 299.277 245.919 299.366 247.11 299.261C248.308 299.123 249.506 298.783 250.672 298.33C251.846 297.885 252.964 297.302 254.057 296.654C256.235 295.342 258.283 293.787 260.21 292.111L261.586 290.945L261.206 292.735C261.044 293.48 260.801 294.208 260.696 294.978L260.558 296.103C260.477 296.484 260.526 296.864 260.502 297.245C260.461 298.022 260.574 298.775 260.647 299.536C260.809 300.297 260.915 301.059 261.166 301.779C261.36 302.524 261.684 303.253 261.991 303.949C262.315 304.678 262.696 305.342 263.117 306.006C263.943 307.318 264.939 308.532 266.121 309.593Z" fill="#F2A686"/>
<path d="M221.33 301.164C221.33 301.164 221.856 301.747 222.852 302.711C223.832 303.69 225.314 305.002 227.176 306.427C228.115 307.14 229.176 307.836 230.342 308.451C231.524 309.051 232.811 309.593 234.171 309.828C235.524 310.144 236.94 309.974 238.244 309.496L239.208 309.067C239.216 309.083 239.596 308.832 239.596 308.832C239.531 308.816 239.548 308.816 239.548 308.799C239.612 308.702 239.118 307.917 238.624 307.423C237.604 306.297 236.422 305.196 235.345 304.055C234.236 302.929 233.208 301.747 232.269 300.557C230.382 298.184 228.973 295.715 227.969 293.504C226.949 291.318 226.463 289.358 226.131 287.998C225.824 286.638 225.735 285.828 225.735 285.828C225.735 285.828 225.97 286.605 226.439 287.917C226.884 289.213 227.678 291.035 228.795 293.107C229.904 295.18 231.492 297.407 233.386 299.642C234.333 300.767 235.386 301.836 236.479 302.945C237.556 304.071 238.714 305.115 239.847 306.33C240.122 306.646 240.398 306.978 240.657 307.358C240.892 307.739 241.215 308.233 241.143 309.002C241.094 309.382 240.908 309.747 240.624 310.014C240.301 310.297 240.341 310.249 240.001 310.459L238.819 310.978C237.208 311.561 235.426 311.642 233.896 311.245C232.317 310.913 230.973 310.2 229.759 309.488C228.576 308.727 227.524 307.941 226.617 307.148C224.771 305.553 223.516 303.982 222.634 302.929C221.751 301.828 221.33 301.164 221.33 301.164Z" fill="#F2A686"/>
<path d="M240.025 307.383C240.025 307.383 240.811 307.164 241.888 306.8C242.956 306.452 244.349 305.917 245.369 305.124C245.58 304.905 245.879 304.711 246.025 304.46C246.219 304.225 246.406 303.982 246.519 303.699C246.697 303.448 246.738 303.148 246.843 302.857C246.964 302.589 246.972 302.29 247.021 302.031C247.134 301.496 247.142 301.002 247.159 300.654C247.183 300.306 247.207 300.104 247.207 300.104C247.207 300.104 247.329 300.274 247.474 300.597C247.596 300.913 247.895 301.375 247.96 302.006C248.009 302.306 248.114 302.654 248.057 303.035C248.025 303.415 248.041 303.828 247.879 304.217C247.75 304.63 247.588 305.043 247.313 305.391C247.078 305.804 246.721 306.087 246.406 306.403C246.033 306.638 245.669 306.921 245.272 307.083C244.892 307.286 244.495 307.399 244.114 307.496C243.345 307.699 242.624 307.747 242.009 307.731C240.795 307.666 240.025 307.383 240.025 307.383Z" fill="#F2A686"/>
<path d="M237.005 272.971C237.005 272.971 237.313 274.064 237.726 275.643C237.904 276.452 238.155 277.384 238.365 278.38C238.576 279.375 238.819 280.42 239.054 281.481C239.288 282.525 239.564 283.57 239.758 284.566C240.041 285.529 240.276 286.428 240.462 287.238C240.973 288.768 241.248 289.877 241.248 289.877C241.248 289.877 240.543 289.035 239.588 287.618C239.191 286.873 238.794 285.975 238.39 284.995C238.033 283.999 237.734 282.922 237.45 281.845C237.005 279.651 236.77 277.432 236.803 275.756C236.803 274.08 237.005 272.971 237.005 272.971Z" fill="#F2A686"/>
<path d="M247.741 275.311C247.741 275.311 248.178 275.643 248.64 276.226C249.109 276.809 249.628 277.667 249.911 278.63C250.041 279.108 250.186 279.562 250.259 280.039C250.316 280.517 250.291 280.97 250.259 281.351C250.178 282.128 250.008 282.598 250.008 282.598C250.008 282.598 249.66 282.136 249.328 281.505C249.158 281.173 249.012 280.808 248.858 280.412C248.664 280.015 248.502 279.57 248.348 279.149C248.089 278.25 247.838 277.343 247.782 276.606C247.741 276.226 247.749 275.91 247.717 275.691C247.717 275.456 247.741 275.311 247.741 275.311Z" fill="#F2A686"/>
</g>
<path d="M509.895 365.722C495.524 343.504 460.7 350.03 448.223 354.589C448.223 354.589 417.383 355.366 405.966 422.798C398.331 467.98 398.153 506.66 397.902 524.627C405.4 526.813 468.108 535.809 495.88 532.222C515.636 529.68 541.602 516.773 542.169 516.676C526.154 475.462 517.361 377.301 509.895 365.722Z" fill="#F6BA9E"/>
<path d="M535.91 496.604C524.267 521.923 486.221 522.684 461.615 522.7C442.231 522.7 411.642 524.563 398.137 509.656C398.008 515.559 397.959 520.627 397.902 524.636C405.4 526.822 468.108 535.818 495.88 532.231C515.636 529.688 541.602 516.781 542.169 516.684C539.95 510.96 537.877 504.118 535.91 496.604Z" fill="#F2A686"/>
<path d="M458.263 372.41C442.62 379.544 426.095 387.042 412.039 397.43C409.804 404.345 407.813 412.361 406.169 421.673C420.37 423.859 434.936 423.017 449.259 421.163C458.838 419.948 468.295 417.891 477.832 416.604C483.678 415.843 489.751 416.094 494.544 420.021C506.292 429.681 511.749 446.336 518.575 459.526C522.907 467.907 527.449 476.482 532.93 484.279C522.494 437.851 515.782 374.839 509.887 365.714C505.701 359.244 499.758 355.261 493.168 352.904C488.755 364.013 467.153 368.362 458.263 372.41Z" fill="#F2A686"/>
<path d="M438.499 343.342L444.96 362.257C444.96 362.257 440.094 367.698 445.802 374.467C451.51 381.253 462.093 375.747 468.513 369.641C474.934 363.52 478.149 360.281 472.683 342.111L438.499 343.342Z" fill="#F6BA9E"/>
<g opacity="0.5">
<path d="M475.38 358.192C475.687 354.524 474.926 349.585 472.675 342.111L438.491 343.342L441.714 352.799C452.369 358.071 464.384 361.18 475.38 358.192Z" fill="#F2A686"/>
</g>
<path d="M304.459 587.348C304.459 587.348 287.982 601.914 293.585 621.21C299.196 640.537 376.406 746.949 376.406 746.949L402.218 733.281L334.376 601.356L304.459 587.348Z" fill="#F6BA9E"/>
<path d="M314.32 168.738L321.696 162.414L335.347 177.321L328.903 183.353L314.32 168.738Z" fill="#23B9E5"/>
<path d="M318.126 159.897L328.182 151.281L346.796 171.597L338.019 179.791L318.126 159.897Z" fill="#DE476A"/>
<path d="M237.459 165.176C271.894 180.026 289.464 165.078 297.431 153.192C269.198 132.253 234.463 118.966 196.587 116.609C196.83 129.233 203.032 150.342 237.459 165.176Z" fill="#FBF5E7"/>
<path d="M242.487 151.944C264.672 161.515 275.983 151.88 281.117 144.244C262.931 130.738 240.56 122.18 216.165 120.682C216.327 128.803 220.311 142.406 242.487 151.944Z" fill="#FBF5E7"/>
<path d="M202.668 137.564C198.069 129.767 196.7 122.301 196.595 116.609C192.571 116.342 188.539 116.18 184.45 116.18C82.586 116.18 0 195.142 0 292.542C0 336.031 16.5009 375.82 43.8191 406.581C1.99977 210.057 170.386 147.621 202.668 137.564Z" fill="#1BD7E6"/>
<path d="M237.945 165.369C237.775 165.305 237.629 165.24 237.459 165.183C218.586 157.054 208.246 147.046 202.66 137.572C170.386 147.629 2.00015 210.065 43.8113 406.597C70.506 436.678 107.54 458.046 149.691 465.73C125.037 325.869 213.671 197.377 237.945 165.369Z" fill="#FFC709"/>
<path d="M283.634 166.349C273.603 172.09 258.932 174.268 237.945 165.369C213.671 197.377 125.037 325.869 149.699 465.721C160.97 467.794 172.573 468.904 184.45 468.904C217.46 468.904 248.398 460.572 275.206 446.086C386.899 328.841 309.981 202.486 283.634 166.349Z" fill="#DE476A"/>
<path d="M368.901 292.55C368.901 235.87 340.911 185.45 297.44 153.191C294.379 157.75 289.91 162.73 283.635 166.349C309.981 202.486 386.9 328.841 275.206 446.078C331.138 415.779 368.901 358.387 368.901 292.55Z" fill="#BDD34C"/>
<path d="M144.299 126.779C83.0803 138.876 30.3224 194.324 17.1572 254.494C15.7646 260.834 24.2337 253.927 25.1568 250.923C34.0793 222.065 47.3011 196.6 69.8261 176.041C91.3389 156.365 115.508 140.349 143.093 130.665C144.202 130.293 146.485 126.35 144.299 126.779Z" fill="#FBF5E7"/>
<path d="M20.3311 265.409C20.0963 262.421 15.862 266.534 15.6838 268.049C14.7527 275.959 10.4858 283.344 10.2753 291.279C10.1619 294.947 15.368 290.032 15.8457 288.793C18.5581 281.482 20.9626 273.271 20.3311 265.409Z" fill="#FBF5E7"/>
<path d="M329.899 184.268C370.253 265.238 347.023 376.986 224.124 405.358C109.84 431.722 29.6342 378.929 1.54688 315.262C6.20246 349.844 21.3349 381.285 43.8194 406.589C70.5141 436.669 107.548 458.037 149.699 465.721C160.97 467.794 172.573 468.904 184.451 468.904C217.461 468.904 248.398 460.572 275.206 446.086C331.138 415.787 368.901 358.395 368.901 292.558C368.901 251.684 354.302 214.138 329.899 184.268Z" fill="#C7C3BA"/>
<path opacity="0.5" d="M160.792 141.378C160.792 141.378 45.9892 185.613 28.1118 315.481C23.3995 373.804 -1.99961 270.3 36.5729 208.195C75.1616 146.091 189.948 116.917 160.792 141.378Z" fill="#1BD7E6"/>
<path opacity="0.5" d="M199.445 183.807C199.445 183.807 117.588 280.737 122.3 405.877C120.413 454.824 38.9608 407.14 57.3645 320.259C87.4679 178.163 239.912 126.415 199.445 183.807Z" fill="#FFC709"/>
<path opacity="0.5" d="M223.671 219.741C223.671 219.741 167.528 306.582 167.528 398.727C167.528 490.863 292.508 444.273 296.743 317.189C300.977 190.09 260.729 153.013 223.671 219.741Z" fill="#DE476A"/>
<path d="M349.209 151.28C349.209 151.28 348.181 170.859 332.084 200.575C318.911 224.899 289.375 262.663 370.56 323.124C420.314 356.605 481.338 365.617 563.034 308.557C563.034 308.557 605.501 255.514 583.413 196.777C561.309 138.041 356.577 95.8314 349.209 151.28Z" fill="#F6BA9E"/>
<path opacity="0.5" d="M487.695 272.42C495.063 254.898 491.201 214.664 464.538 217.652C448.628 219.441 440.84 234.162 439.568 248.793C438.5 261.068 441.722 284.566 458.539 283.667C459.551 283.602 459.98 284.76 459.413 285.505C457.6 287.91 456.183 290.582 455.349 293.457C455.6 293.376 468.344 279.384 489.112 276.801C493.516 276.25 498.051 275.092 502.698 274.574C496.852 271.449 487.371 273.173 487.695 272.42Z" fill="#F2A686"/>
<path d="M475.728 225.83C473.461 224.17 470.943 222.972 468.19 222.381C462.927 221.255 454.871 223.563 451.049 227.49C441.406 237.344 441.099 254.17 444.515 266.696C446.021 272.235 449.762 277.643 454.903 280.421C459.016 282.631 467.364 281.894 471.688 280.736C476.926 279.344 481.63 276.105 484.707 271.611C490.885 262.664 489.808 249.66 485.889 240C483.881 234.972 480.181 229.102 475.728 225.83Z" fill="white"/>
<path d="M443.455 248.268C445.212 239.126 449.738 230.146 459.357 227.377C473.162 223.41 482.667 233.798 487.727 245.515C487.234 243.604 486.626 241.749 485.906 239.992C483.881 234.964 480.181 229.094 475.728 225.823C473.461 224.163 470.943 222.964 468.19 222.373C462.927 221.248 454.871 223.555 451.05 227.482C444.532 234.138 442.289 243.992 442.572 253.531C442.823 251.701 443.131 249.927 443.455 248.268Z" fill="#D5D7D8"/>
<path d="M488.31 253.012C488.901 265.19 483.97 275.327 477.29 275.659C470.611 275.975 464.692 266.38 464.109 254.202C463.51 242.024 468.449 231.887 475.129 231.571C481.816 231.239 487.719 240.834 488.31 253.012Z" fill="#462D1B"/>
<path d="M486.181 253.376C486.667 263.384 482.618 271.74 477.104 272.008C471.607 272.259 466.757 264.372 466.271 254.356C465.777 244.332 469.834 236.008 475.331 235.741C480.837 235.474 485.687 243.368 486.181 253.376Z" fill="#63442F"/>
<path d="M482.748 253.562C483.047 259.853 480.497 265.076 477.064 265.23C473.615 265.4 470.562 260.436 470.263 254.177C469.955 247.902 472.497 242.679 475.946 242.509C479.404 242.356 482.44 247.303 482.748 253.562Z" fill="#170000"/>
<path d="M474.902 245.796C474.157 248.533 472.343 250.444 470.821 250.039C469.291 249.626 468.684 247.068 469.437 244.315C470.174 241.562 472.003 239.667 473.509 240.08C475.04 240.485 475.647 243.052 474.902 245.796Z" fill="white"/>
<path d="M470.093 255.53C470.141 256.809 469.607 257.886 468.91 257.902C468.206 257.935 467.599 256.922 467.55 255.627C467.485 254.364 468.02 253.271 468.724 253.271C469.42 253.23 470.028 254.242 470.093 255.53Z" fill="white"/>
<path opacity="0.5" d="M330.238 241.181C330.238 241.181 352.172 246.039 366.908 262.501C366.147 256.63 360.909 252.695 360.909 252.695C360.909 252.695 380.422 248.679 383.369 214.979C383.239 197.506 370.074 185.498 354.69 200.299C339.323 215.1 337.687 231.392 337.671 238.315C332.522 239.473 330.238 241.181 330.238 241.181Z" fill="#F2A686"/>
<path d="M378.365 228.275C378.365 228.275 386.737 202.097 371.523 197.117C356.318 192.121 333.38 230.388 341.711 241.465C350.035 252.55 369.386 257.027 378.365 228.275Z" fill="white"/>
<path opacity="0.5" d="M377.928 209.774C379.159 215.498 379.272 222 378.3 228.486C378.325 228.405 378.341 228.356 378.365 228.284C378.365 228.284 386.737 202.106 371.523 197.126C367.702 195.863 363.37 197.361 359.192 200.462C367.232 197.49 375.661 199.304 377.928 209.774Z" fill="#D5D7D8"/>
<path d="M378.737 226.379C376.292 237.861 369.199 246.103 362.9 244.759C356.585 243.431 353.468 233.027 355.897 221.529C358.35 210.047 365.434 201.821 371.734 203.148C378.049 204.493 381.175 214.881 378.737 226.379Z" fill="#462D1B"/>
<path d="M376.664 226.194C374.648 235.635 368.818 242.42 363.637 241.311C358.447 240.201 355.864 231.651 357.88 222.21C359.888 212.752 365.709 205.999 370.899 207.093C376.097 208.194 378.664 216.752 376.664 226.194Z" fill="#63442F"/>
<path d="M373.41 225.537C372.171 231.448 368.511 235.691 365.248 234.995C362.01 234.314 360.382 228.938 361.645 223.019C362.892 217.092 366.56 212.849 369.807 213.546C373.062 214.25 374.673 219.61 373.41 225.537Z" fill="#170000"/>
<path d="M368.017 216.355C366.649 218.744 364.487 220.056 363.167 219.295C361.855 218.55 361.904 216.007 363.281 213.619C364.657 211.246 366.827 209.934 368.138 210.679C369.434 211.449 369.385 213.983 368.017 216.355Z" fill="white"/>
<path d="M361.135 224.225C360.876 225.44 360.107 226.298 359.443 226.152C358.779 226.015 358.471 224.906 358.73 223.699C359.005 222.485 359.766 221.626 360.422 221.772C361.094 221.934 361.402 223.027 361.135 224.225Z" fill="white"/>
<path d="M349.104 264.275C349.104 264.21 349.08 264.162 349.031 264.105C349.023 264.089 349.015 264.056 348.991 264.024C348.958 264.008 348.934 263.975 348.893 263.943C348.578 263.692 348.043 263.595 347.396 263.943C347.29 263.975 347.209 264.024 347.12 264.089H347.112C346.408 264.518 346.392 264.931 346.683 265.182C346.853 265.514 347.298 265.692 348.084 265.4C348.132 265.384 348.197 265.352 348.254 265.336C348.991 265.044 349.201 264.623 349.104 264.275Z" fill="#EC8862"/>
<path d="M357.225 260.648C357.298 259.587 354.91 260.13 354.586 261.093L354.464 261.425C354.108 262.421 355.574 262.389 356.124 262.105C356.586 261.903 356.853 261.595 357.144 261.223C357.33 260.98 357.314 260.81 357.225 260.648Z" fill="#EC8862"/>
<path d="M362.803 263.813C361.532 262.866 359.678 265.255 361.152 265.392C361.71 265.441 364.131 264.809 362.803 263.813Z" fill="#EC8862"/>
<path d="M372.171 261.952C372.188 261.887 372.188 261.839 372.204 261.79C372.236 261.588 372.171 261.41 372.026 261.28L372.009 261.264C371.937 261.199 371.872 261.134 371.815 261.061C371.086 260.333 369.629 261.142 369.159 261.774C368.957 262.025 368.941 262.341 368.884 262.64C368.795 263.053 369.313 263.304 369.621 263.337C370.52 263.434 371.362 263.037 371.896 262.357C372.018 262.244 372.115 262.106 372.171 261.976C372.171 261.976 372.163 261.968 372.171 261.952Z" fill="#EC8862"/>
<path d="M370.763 272.388C370.382 271.457 368.148 272.469 368.585 273.352C368.722 273.603 368.747 273.635 368.722 273.902C368.666 274.882 370.431 274.218 370.698 273.757C370.997 273.238 371.014 272.939 370.763 272.388Z" fill="#EC8862"/>
<path d="M363.986 261.691C363.184 261.408 361.387 262.752 362.48 263.133C363.273 263.4 365.079 262.072 363.986 261.691Z" fill="#EC8862"/>
<path d="M359.605 256.931C358.892 256.697 357.33 257.863 358.269 258.178C358.973 258.437 360.544 257.263 359.605 256.931Z" fill="#EC8862"/>
<path d="M349.695 263.797L349.671 264.113C349.638 264.761 350.828 264.283 350.998 263.999C351.063 263.902 351.136 263.797 351.184 263.684C351.727 262.801 349.76 262.866 349.695 263.797Z" fill="#EC8862"/>
<path d="M350.432 253.197C350.408 253.278 350.384 253.367 350.359 253.448C350.019 254.679 352.181 254.031 352.513 253.287C352.537 253.189 352.578 253.116 352.602 253.035C353.039 251.983 350.699 252.266 350.432 253.197Z" fill="#EC8862"/>
<path d="M356.69 253.141C356.658 252.979 356.609 252.825 356.56 252.647C356.358 251.854 354.123 252.728 354.795 253.594C354.901 253.756 354.998 253.862 355.103 254.007C355.532 254.558 356.868 253.789 356.69 253.141Z" fill="#EC8862"/>
<path d="M346.853 259.895C346.375 259.733 345.323 260.526 345.962 260.745C346.44 260.907 347.484 260.113 346.853 259.895Z" fill="#EC8862"/>
<path d="M342.473 254.202C342.384 254.186 342.295 254.17 342.214 254.138C341.526 253.992 339.785 255.15 340.878 255.684C340.943 255.7 341.024 255.749 341.097 255.797C342.101 256.283 343.939 254.534 342.473 254.202Z" fill="#EC8862"/>
<path d="M349.193 249.278C349.136 249.133 349.072 248.979 349.007 248.817C348.796 248.339 347.622 248.882 347.865 249.327C347.946 249.473 348.035 249.626 348.116 249.772C348.351 250.193 349.387 249.756 349.193 249.278Z" fill="#EC8862"/>
<path d="M333.259 262.323C333.259 262.468 333.283 262.606 333.324 262.752C333.485 263.286 334.498 262.881 334.716 262.638C334.854 262.476 334.975 262.339 335.105 262.177C335.777 261.108 333.291 261.14 333.259 262.323Z" fill="#EC8862"/>
<path d="M327.721 255.449C327.656 255.433 327.607 255.401 327.559 255.368C327.559 255.368 327.542 255.368 327.526 255.352C327.494 255.336 327.461 255.32 327.429 255.287C327.356 255.255 327.291 255.255 327.21 255.239H327.202L327.186 255.223C327.065 255.223 326.943 255.223 326.814 255.239V255.255C326.133 255.368 325.397 255.935 325.478 256.429C325.478 256.478 325.478 256.51 325.486 256.542C325.494 256.575 325.526 256.607 325.551 256.64C325.567 256.688 325.632 256.753 325.721 256.802C325.737 256.802 325.745 256.834 325.794 256.866C325.834 256.883 325.915 256.883 325.98 256.899L326.02 256.915C326.142 256.947 326.247 256.964 326.385 256.996C327.081 257.109 328.789 256.032 327.721 255.449Z" fill="#EC8862"/>
<path d="M406.898 264.363C405.838 264.396 404.688 265.853 405.919 266.007C406.809 266.12 407.781 265.626 407.951 264.695C408.056 264.145 407.441 264.193 406.898 264.363Z" fill="#EC8862"/>
<path d="M377.872 250.769C377.766 250.704 377.685 250.672 377.596 250.607C376.73 250.113 375.216 251.732 376.422 251.935C376.552 251.967 376.657 251.983 376.795 252.016C377.361 252.113 378.722 251.271 377.872 250.769Z" fill="#EC8862"/>
<path d="M352.132 275.214C352.116 274.979 352.059 274.784 351.987 274.598C351.476 273.392 348.586 274.76 349.218 275.813C349.388 276.096 349.509 276.307 349.857 276.428C350.57 276.736 352.181 276.161 352.132 275.214Z" fill="#EC8862"/>
<path d="M348.294 267.813C348.294 267.91 348.294 267.999 348.294 268.113C348.294 268.777 349.419 268.283 349.606 268.016C349.678 267.886 349.759 267.797 349.816 267.684C350.431 266.801 348.278 266.801 348.294 267.813Z" fill="#EC8862"/>
<path d="M337.048 269.053C336.448 268.834 335.121 269.83 335.922 270.113C336.529 270.316 337.857 269.32 337.048 269.053Z" fill="#EC8862"/>
<path d="M339.128 244.219C339.096 244.316 339.088 244.421 339.088 244.518C339.161 245.385 340.545 244.769 340.82 244.389C340.901 244.275 340.95 244.186 341.007 244.073C341.655 242.907 339.282 243.069 339.128 244.219Z" fill="#EC8862"/>
<path d="M328.943 247.983C328.441 248.267 328.061 248.761 328.619 248.996C329.478 249.36 330.255 248.898 330.643 248.129C331.008 247.384 329.477 247.384 328.943 247.983Z" fill="#EC8862"/>
<path d="M333.599 248.809C333.486 248.776 333.397 248.728 333.291 248.679C332.619 248.412 331.356 249.546 332.125 249.772C332.239 249.805 332.352 249.837 332.473 249.869C333.032 250.023 334.457 249.165 333.599 248.809Z" fill="#EC8862"/>
<path d="M375.443 257.993C375.321 257.976 375.2 257.96 375.062 257.944C374.722 257.895 373.289 258.559 373.937 259.005C374.026 259.053 374.107 259.102 374.188 259.167C375.143 259.814 376.536 258.138 375.443 257.993Z" fill="#EC8862"/>
<path d="M368.827 256.396C368.819 256.51 368.803 256.599 368.803 256.712C368.738 257.595 370.357 256.979 370.6 256.566C370.665 256.453 370.73 256.364 370.794 256.234C371.507 255.068 368.908 255.149 368.827 256.396Z" fill="#EC8862"/>
<path d="M446.596 283.296C445.551 282.931 443.203 284.672 444.62 285.158C445.657 285.531 448.013 283.79 446.596 283.296Z" fill="#EC8862"/>
<path d="M443.252 292.339C443.033 291.545 440.977 292.339 441.309 293.205C441.446 293.586 441.333 293.869 441.487 294.217C441.722 294.711 442.564 294.379 442.831 294.12C443.365 293.577 443.454 293.084 443.252 292.339Z" fill="#EC8862"/>
<path d="M447.551 289.004C447.527 289.085 447.503 289.158 447.478 289.239C447.211 290.267 449.001 289.733 449.268 289.109C449.3 289.028 449.332 288.947 449.373 288.874C449.721 287.992 447.762 288.219 447.551 289.004Z" fill="#EC8862"/>
<path d="M467.154 291.66C467.04 291.757 466.935 291.83 466.822 291.927C466.482 292.194 466.838 292.445 467.154 292.372C467.299 292.34 467.445 292.307 467.599 292.275C468.684 292.008 468.052 290.939 467.154 291.66Z" fill="#EC8862"/>
<path d="M464.004 300.583C463.712 299.903 462.587 300.065 462.061 300.332C461.324 300.729 460.684 301.126 460.393 301.943C460.126 302.688 460.887 302.972 461.494 302.956C462.215 302.939 463.437 302.437 463.615 301.709C463.956 301.409 464.206 301.012 464.004 300.583Z" fill="#EC8862"/>
<path d="M455.664 294.857C454.975 294.76 454.214 295.189 453.907 295.805C453.947 295.74 453.988 295.691 454.028 295.635C453.04 296.428 454.376 297.044 455.145 296.631C455.55 296.428 455.818 296.202 456.109 295.853C456.441 295.408 456.174 294.938 455.664 294.857Z" fill="#EC8862"/>
<path d="M467.177 288.12C466.692 288.468 466.376 288.987 467.161 289.181C467.849 289.367 468.627 288.978 469.023 288.404C469.728 287.391 467.72 287.278 467.177 288.12Z" fill="#EC8862"/>
<path d="M476.141 288.599C476.124 288.68 476.116 288.761 476.1 288.834C475.817 290.243 478.043 289.401 478.432 288.656C478.464 288.575 478.505 288.486 478.545 288.421C479.063 287.328 476.367 287.457 476.141 288.599Z" fill="#EC8862"/>
<path d="M457.818 285.78C457.785 285.894 457.761 285.999 457.721 286.096C457.518 286.874 458.886 286.493 459.081 285.999C459.129 285.886 459.186 285.78 459.226 285.667C459.51 284.971 457.996 285.181 457.818 285.78Z" fill="#EC8862"/>
<path d="M483.8 289.019C483.638 288.574 483.403 288.355 483.144 287.958C482.456 286.979 479.865 288.104 480.456 289.141C480.748 289.618 481.08 289.902 481.468 290.282C482.156 290.954 484.132 290.031 483.8 289.019Z" fill="#EC8862"/>
<path d="M491.913 296.72C491.727 296.324 491.516 295.975 491.168 295.708C489.938 294.745 487.29 296.907 488.764 297.587C489.257 297.789 489.565 298.048 490.116 298.113C490.715 298.194 492.334 297.595 491.913 296.72Z" fill="#EC8862"/>
<path d="M476.076 304.129C475.566 304.065 474.975 304.226 474.489 304.542C474.157 304.672 473.857 304.858 473.639 305.06C473.209 305.457 472.845 306.372 473.647 306.623C473.946 306.72 474.222 306.737 474.489 306.72C474.489 306.72 474.545 306.72 474.586 306.72C474.756 306.704 474.934 306.688 475.129 306.639C475.509 306.558 475.995 306.291 476.294 305.927C476.432 305.797 476.57 305.676 476.699 305.514C477.137 304.882 476.829 304.218 476.076 304.129Z" fill="#EC8862"/>
<path d="M470.068 296.979C469.598 297.23 469.258 297.595 469.695 297.91C470.594 298.542 471.614 297.927 472.06 297.044C472.489 296.186 470.586 296.218 470.068 296.979Z" fill="#EC8862"/>
<path d="M491.921 298.922C491.711 298.889 491.508 298.873 491.297 298.889C490.933 298.922 489.711 299.44 490.091 300.015C490.196 300.177 490.261 300.233 490.423 300.347C491.581 301.043 493.265 299.124 491.921 298.922Z" fill="#EC8862"/>
<path d="M474.27 298.241C474.262 298.355 474.23 298.46 474.206 298.573C474.003 299.537 475.55 298.97 475.801 298.46C475.849 298.33 475.898 298.225 475.955 298.112C476.311 297.359 474.449 297.448 474.27 298.241Z" fill="#EC8862"/>
<path d="M478.554 295.619C478.505 295.733 478.481 295.838 478.448 295.951C478.189 296.882 479.841 296.413 480.084 295.838C480.116 295.708 480.181 295.603 480.222 295.49C480.562 294.672 478.748 294.907 478.554 295.619Z" fill="#EC8862"/>
<path d="M475.922 283.554C475.898 283.635 475.882 283.716 475.857 283.773C475.598 284.833 477.396 284.259 477.671 283.643C477.712 283.562 477.752 283.481 477.776 283.408C478.165 282.526 476.125 282.728 475.922 283.554Z" fill="#EC8862"/>
<path d="M488.755 285.084C488.52 284.986 487.978 285.383 488.31 285.513C488.553 285.586 489.095 285.197 488.755 285.084Z" fill="#EC8862"/>
<path d="M496.625 289.068C497.079 287.788 494.455 288.258 494.172 289.238C494.05 289.651 494.002 289.934 494.123 290.347C494.293 290.93 495.297 290.711 495.645 290.55C496.423 290.226 496.326 289.91 496.625 289.068Z" fill="#EC8862"/>
<path d="M503.272 306.687C501.596 305.343 498.277 308.509 500.714 309.092C500.179 308.962 501.078 309.262 501.127 309.278C501.71 309.343 502.317 309.116 502.77 308.768C503.394 308.314 504.098 307.335 503.272 306.687Z" fill="#EC8862"/>
<path d="M440.151 279.627C440.11 279.611 440.086 279.595 440.062 279.562C439.738 279.344 439.212 279.465 438.782 279.692C438.54 279.773 438.272 279.862 438.054 280.072C437.819 280.307 437.665 280.623 437.908 280.898C438.353 281.424 439.633 280.85 439.989 280.501C440.167 280.291 440.475 279.854 440.151 279.627Z" fill="#EC8862"/>
<path d="M432.443 284.971C432.394 284.922 432.329 284.89 432.256 284.874C432.208 284.857 432.159 284.857 432.119 284.857C431.641 284.809 430.985 285.06 430.945 285.619C430.945 285.651 430.937 285.683 430.929 285.732C430.904 286.177 431.455 286.177 431.916 285.951C432.119 285.886 432.313 285.781 432.402 285.619C432.435 285.57 432.459 285.521 432.475 285.489C432.629 285.246 432.58 285.068 432.443 284.971Z" fill="#EC8862"/>
<path d="M439.552 286.89C439.511 287.019 439.487 287.108 439.447 287.238C439.244 287.983 440.58 287.602 440.758 287.141C440.815 287.011 440.855 286.89 440.912 286.793C441.187 286.129 439.714 286.299 439.552 286.89Z" fill="#EC8862"/>
<path d="M429.123 273.901C428.394 273.65 426.743 274.849 427.73 275.197C428.483 275.464 430.119 274.233 429.123 273.901Z" fill="#EC8862"/>
<path d="M397.668 257.328C397.635 257.295 397.619 257.263 397.603 257.231C397.74 256.915 397.627 256.583 397.174 256.502C395.627 256.202 394.769 258.478 396.664 258.243C397.004 258.218 397.919 257.822 397.668 257.328Z" fill="#EC8862"/>
<path d="M380.139 249.725C379.629 249.79 379.021 250.106 378.876 250.47C378.827 250.583 378.778 250.689 378.73 250.802C378.414 251.563 379.596 251.482 379.968 251.32C380.632 251.004 381.345 250.672 381.507 249.895C381.701 249.077 380.463 249.409 380.139 249.725Z" fill="#EC8862"/>
<path d="M422.015 262.979C421.925 262.93 421.836 262.865 421.739 262.817C420.93 262.339 419.48 263.861 420.63 264.08C420.759 264.096 420.881 264.112 421.002 264.145C421.521 264.242 422.824 263.432 422.015 262.979Z" fill="#EC8862"/>
<path d="M417.464 258.566C417.407 258.404 417.375 258.25 417.326 258.072C417.14 257.359 415.075 258.153 415.707 258.971C415.804 259.1 415.893 259.222 415.99 259.367C416.387 259.878 417.609 259.149 417.464 258.566Z" fill="#EC8862"/>
<path d="M424.848 256.906C424.249 256.703 422.921 257.699 423.723 257.967C424.322 258.185 425.658 257.189 424.848 256.906Z" fill="#EC8862"/>
<path d="M430.322 262.137C430.014 262.024 429.301 262.55 429.731 262.688C430.046 262.801 430.759 262.283 430.322 262.137Z" fill="#EC8862"/>
<path d="M422.994 273.125C423.011 273.222 423.019 273.319 423.027 273.425C423.075 274.024 424.006 273.595 424.209 273.344C424.298 273.23 424.379 273.125 424.444 273.012C425.051 272.21 422.913 272.162 422.994 273.125Z" fill="#EC8862"/>
<path d="M402.882 253.198C402.874 253.296 402.866 253.401 402.858 253.514C402.801 254.292 404.226 253.733 404.429 253.369C404.494 253.271 404.566 253.166 404.615 253.053C405.271 252.033 402.947 252.097 402.882 253.198Z" fill="#EC8862"/>
<path d="M388.397 249.094C388.308 249.045 388.211 248.997 388.114 248.932C387.321 248.47 385.912 249.96 387.053 250.163C387.167 250.179 387.28 250.195 387.41 250.227C387.928 250.325 389.183 249.547 388.397 249.094Z" fill="#EC8862"/>
<path d="M413.067 271.011C413.059 271.124 413.035 271.23 413.019 271.343C412.921 272.023 414.29 271.546 414.476 271.23L414.654 270.898C415.173 269.918 413.213 270.064 413.067 271.011Z" fill="#EC8862"/>
<path opacity="0.6" d="M483.63 276.89C470.837 279.481 462.012 289.181 463.914 298.541C465.817 307.901 477.727 313.391 490.512 310.784C503.288 308.193 512.106 298.493 510.219 289.133C508.316 279.789 496.406 274.299 483.63 276.89ZM474.869 291.238C474.788 293.116 473.671 294.954 472.124 296.015C470.554 297.092 468.092 297.011 467.242 295.019C466.392 292.962 467.153 290.355 468.829 288.946C468.95 288.849 469.056 288.784 469.177 288.76C469.881 287.999 470.78 287.546 471.76 287.651C473.549 287.869 474.95 289.432 474.869 291.238ZM478.302 285.181C478.448 285.627 478.326 286.129 477.808 286.38C477.549 286.728 477.185 286.995 476.877 287.262C476.302 287.797 475.274 287.497 475.136 286.679C475.015 285.95 474.991 285.157 475.549 284.574C475.776 284.355 476.035 284.21 476.302 284.08C476.359 284.015 476.391 283.942 476.448 283.878C476.626 283.691 476.853 283.61 477.08 283.61C477.954 283.327 478.82 284.388 478.302 285.181Z" fill="url(#paint0_radial_504_3550)"/>
<path opacity="0.6" d="M352.416 251.035C342.975 246.274 332.49 248.015 329 254.938C325.518 261.853 330.36 271.302 339.801 276.063C349.25 280.824 359.743 279.083 363.216 272.16C366.698 265.253 361.864 255.796 352.416 251.035ZM339.655 255.78C338.651 256.938 337.016 257.537 335.502 257.44C333.971 257.326 332.425 256.047 332.894 254.355C333.388 252.614 335.17 251.351 336.959 251.286C337.081 251.286 337.17 251.286 337.275 251.335C338.101 251.221 338.886 251.383 339.469 251.934C340.481 252.962 340.603 254.671 339.655 255.78ZM344.861 253.626C344.724 253.99 344.408 254.241 343.947 254.144C343.615 254.241 343.242 254.241 342.918 254.258C342.287 254.29 341.768 253.594 342.084 253.011C342.384 252.476 342.756 251.966 343.42 251.885C343.655 251.837 343.906 251.885 344.141 251.934C344.214 251.918 344.262 251.885 344.335 251.885C344.537 251.837 344.724 251.918 344.869 252.015C345.574 252.266 345.598 253.391 344.861 253.626Z" fill="url(#paint1_radial_504_3550)"/>
<path opacity="0.5" d="M383.919 267.959C380.559 266.348 377.433 263.74 376.705 260.178C374.114 267.797 374.575 279.441 384.113 280.987C391.506 282.202 400.307 274.761 400.501 267.182C395.141 269.255 389.433 270.631 383.919 267.959Z" fill="#F2A686"/>
<path d="M380.924 256.145C385.49 253.975 393.036 258.663 396.623 262.185C396.672 262.121 396.672 262.04 396.623 261.951C395.668 260.477 394.154 258.898 392.372 257.457C394.008 254.817 395.012 251.117 394.955 247.554C394.769 246.89 394.55 246.226 394.324 245.578C394 244.752 393.587 243.983 393.142 243.238C393.231 247.522 392.129 252.113 388.923 254.623C388.899 254.655 388.842 254.655 388.842 254.655C388.737 254.768 388.664 254.874 388.575 254.987C384.681 252.93 380.292 252.137 377.134 254.655C370.892 259.57 374.9 274.015 379.134 278.882C379.167 278.914 379.223 278.93 379.248 278.962C377.855 272.874 376.187 266.501 377.717 260.558C378.001 259.465 378.422 258.615 378.899 257.902C379.385 256.93 380.082 256.364 380.924 256.145Z" fill="#EC8862"/>
<path d="M384.931 256.842C384.931 256.842 379.628 254.389 379.855 259.927C380.057 265.482 389.708 267.692 392.234 264.113C394.769 260.559 387.546 257.377 384.931 256.842Z" fill="#F6BA9E"/>
<g opacity="0.5">
<path d="M583.406 196.777C561.31 138.041 356.578 95.8314 349.21 151.28C349.21 151.28 348.181 170.859 332.085 200.575C329.243 205.838 326.142 211.741 323.843 218.348C329.13 213.903 334.708 209.757 340.311 205.668C349.331 189.393 352.537 178.17 361.711 176.851C372.002 175.952 398.421 174.478 398.421 174.478C402.891 173.264 395.069 182.357 404.923 189.474C414.768 196.607 433.545 201.304 468.117 198.089C470.344 210.648 498.204 209.984 508.657 206.186C498.609 229.036 518.446 254.291 534.769 236.898C537.044 261.902 544.509 259.384 553.586 254.024C562.662 248.68 566.362 314.007 508.657 338.63C506.981 339.359 505.402 340.103 503.913 340.824C521.774 334.217 541.279 323.747 563.043 308.549C563.043 308.549 605.501 255.514 583.406 196.777Z" fill="#F2A686"/>
</g>
<path d="M340.562 198.436C340.562 198.436 344.845 176.283 324.822 177.214C304.815 178.129 289.917 219.011 320.441 232.784L340.562 198.436Z" fill="#F6BA9E"/>
<path d="M320.992 187.271C324.547 186.461 326.433 191.603 327 194.089C329.138 203.384 323.591 216.024 317.503 222.777C317.219 223.092 316.871 222.226 317.025 221.967C319.333 218.121 321.478 213.999 323.146 209.74C319.6 211.781 313.608 211.368 311.956 207.83C311.859 207.611 311.989 207.182 312.216 207.498C313.414 209.093 316.895 209.076 318.628 208.858C320.944 208.542 322.636 207.4 324.425 206.137C324.79 205.012 325.114 203.911 325.389 202.769C326.32 198.955 326.887 187.036 319.357 189.757C317.033 190.599 314.928 192.996 313.203 194.72C313.033 194.882 312.823 194.388 312.928 194.243C315.057 191.255 317.219 188.154 320.992 187.271Z" fill="#EC8862"/>
<path opacity="0.5" d="M303.576 211.383C303.504 211.367 303.439 211.334 303.374 211.302C304.669 219.861 309.77 227.974 320.442 232.775L340.562 198.428C340.562 198.428 344.392 178.533 327.737 177.254C332.49 182.064 333.979 192.355 331.988 198.824C331.729 199.699 330.336 199.569 330.376 198.622C330.789 190.096 324.304 182.363 316.159 188.614C310.961 192.614 307.536 200.031 306.969 206.452C306.831 208.112 306.224 212.096 303.576 211.383ZM310.135 210.719C312.369 210.087 315.098 211.318 317.3 211.65C317.535 211.683 317.673 211.796 317.778 211.934C318.126 211.934 318.466 211.934 318.822 211.934C319.341 211.917 319.77 212.452 319.616 212.962C318.264 217.156 312.021 222.29 309.131 216.46C308.2 214.581 307.495 211.48 310.135 210.719Z" fill="#F2A686"/>
<path opacity="0.5" d="M382.058 180.314C387.79 187.999 388.948 199.61 389.005 208.622C387.118 209.334 385.239 210.031 383.353 210.759C382.891 208.606 382.438 206.46 381.823 204.403C380.187 198.824 378.171 193.14 374.204 188.735C369.678 183.723 363.095 181.78 356.958 179.44C358.011 177.019 359.152 168.42 360.877 164.922C367.046 168.404 373.159 172.209 378.625 176.703C379.936 177.764 381.054 178.978 382.058 180.314Z" fill="#F2A686"/>
<path d="M383.524 177.91C389.248 185.611 390.406 197.222 390.47 206.234C388.592 206.946 386.697 207.643 384.811 208.372C384.366 206.218 383.904 204.072 383.289 202.015C381.645 196.42 379.637 190.752 375.678 186.339C371.144 181.311 364.561 179.384 358.424 177.044C359.476 174.623 360.626 166.024 362.335 162.51C368.512 165.992 374.617 169.813 380.09 174.307C381.394 175.36 382.528 176.582 383.524 177.91Z" fill="#B34424"/>
<path opacity="0.5" d="M477.808 201.611C466.214 199.303 454.344 199.206 442.361 204.096C442.782 206.485 443.462 210.785 443.892 213.173C446.531 212.687 449.179 212.21 451.826 211.942C458.352 211.246 484.828 214.517 495.168 227.74C497.686 225.57 507.888 218.469 510.616 214.995C510.64 214.946 494.593 207.975 493.249 207.246C488.108 204.477 482.958 202.639 477.808 201.611Z" fill="#F2A686"/>
<path d="M478.456 198.639C466.877 196.315 455.227 198.145 443.235 203.036C443.681 205.424 444.118 207.813 444.539 210.202C447.178 209.708 449.826 209.238 452.474 208.955C458.991 208.275 485.484 211.546 495.815 224.768C498.349 222.598 506.486 217.319 509.207 213.837C509.231 213.805 495.24 204.995 493.896 204.267C488.755 201.505 483.613 199.651 478.456 198.639Z" fill="#B34424"/>
<path d="M690.144 186.146C690.637 175.263 687.31 163.749 684.184 153.474C677.788 132.519 662.161 116.211 646.219 101.92C643.167 99.1669 636.114 94.3411 629.232 92.0496C628.18 87.1914 626.819 82.6732 623.961 77.402C620.043 70.2199 614.553 63.9285 608.772 58.1877C595.089 44.5847 578.887 34.0504 561.787 25.2651C526.146 6.93334 488.545 -0.953201 448.507 0.0913199C411.853 1.05487 376.665 10.0588 344.149 26.8845C339.153 29.4594 315.324 42.1312 319.486 50.9408C321.292 54.7869 325.591 56.2363 330.465 56.4792C321.964 60.3982 314.053 65.4427 307.276 72.8353C303.762 76.6652 296.354 84.5517 303.285 88.5112C305.317 89.6691 308.426 89.5395 311.819 88.7946C308.232 91.831 304.88 95.1184 301.908 98.252C294.378 106.163 281.837 117.798 282.808 129.79C283.407 137.353 311.041 147.158 320.239 170.656C324.385 181.239 331.542 192.421 333.072 203.838C333.242 205.133 335.25 204.704 335.914 204.04C339.615 200.275 340.821 193.87 342.78 189.077C345.865 181.482 348.82 173.878 352.431 166.543C356.455 167.741 360.965 168.089 364.447 168.518C373.264 169.579 382.017 169.547 390.875 169.215C396.453 168.996 402.744 169.045 409.157 168.883C403.651 173.425 401.813 179.02 407.375 185.457C411.359 190.056 419.359 191.15 424.897 192.145C434.831 193.951 444.928 194.583 455.016 194.202C463.793 193.87 472.513 192.558 481.128 190.882C476.902 193.441 474.23 196.453 477.647 199.392C481.282 202.526 491.047 200.834 495.2 200.704C501.896 200.518 508.884 199.295 515.304 197.052C513.41 209.028 514.907 222.388 522.146 230.882C528.923 238.809 536.979 228.857 541.375 220.267C541.942 222.874 542.549 225.392 543.011 227.683C544.404 234.55 547.423 244.938 555.269 246.728C559.973 247.805 563.795 243.108 565.924 239.181C566.621 242.768 567.333 246.363 568.005 249.886C570.467 262.825 566.135 284.614 570.467 297.01C575.665 311.86 589.251 271.853 645.717 260.404C647.466 260.039 649.984 260.387 651.441 259.553C658.243 255.586 657.506 244.153 657.903 237.554C658.202 232.777 657.166 227.829 656.251 223.165C655.482 219.303 653.255 215.287 651.636 211.368C655.182 215.165 658.736 220.607 659.894 222.485C662.056 225.983 664.048 229.287 668.096 230.299C669.238 230.598 670.606 229.918 671.335 229.068C675.966 223.789 673.448 213.06 672.817 206.599C672.29 201.303 670.849 196.526 669.165 191.749C672.282 196.429 674.695 201.902 678.079 206.08C679.958 208.388 683.091 208.704 685.367 206.761C690.127 202.672 689.893 191.554 690.144 186.146Z" fill="#CD4F2E"/>
<path d="M690.144 186.145C690.638 175.262 687.31 163.748 684.184 153.473C677.788 132.518 662.162 116.21 646.219 101.919C643.167 99.166 636.115 94.3402 629.233 92.0487C628.18 87.1905 626.82 82.6723 623.962 77.4011C620.043 70.219 614.553 63.9276 608.772 58.1868C595.089 44.5838 578.888 34.0495 561.787 25.2642C529.546 8.68949 495.702 0.673401 459.907 0.0742188C475.728 2.16326 491.33 5.66928 506.277 10.2603C530 17.5315 555.059 27.1184 574.888 42.3975C584.668 49.944 593.494 59.0856 599.137 70.1867C601.89 75.5955 604.521 81.5225 605.388 87.5548C605.817 90.5588 605.785 93.5143 605.615 96.4778C613.217 99.0203 620.334 102.664 626.342 108.575C636.56 118.648 645.62 132.566 644.179 147.514C644.082 148.526 642.892 148.655 642.301 148.032C637.265 142.825 634.649 136.186 630.917 130.113C629.273 127.457 627.362 125.036 625.387 122.696C631.475 134.761 634.779 147.635 635.362 161.602C635.936 175.27 636.236 193.375 626.731 204.412C626.261 204.962 625.209 205.108 625.063 204.412C616.286 165.902 609.598 154.866 602.4 145.522C605.194 157.287 609.695 169.432 605.89 181.359C605.696 182.007 604.764 182.209 604.279 181.805C596.886 175.602 592.725 166.436 588.887 157.311C589.219 162.574 589.292 167.878 589.397 172.906C589.551 179.23 589.567 185.618 588.887 191.918C588.458 195.869 588.069 200.825 585.697 204.209C579.082 213.618 570.604 193.294 569.301 189.359C566.459 180.728 564.832 171.805 562.208 163.109C560.403 157.084 558.03 151.182 555.626 145.303C553.699 155.424 550.015 165.279 545.934 174.606C543.926 179.181 538.194 194.679 530.907 188.647C523.595 182.639 526.049 167.837 527.781 160.072C529.012 154.55 530.639 149.141 532.485 143.813C525.336 146.599 517.879 148.655 510.39 150.25C503.961 151.627 497.475 152.858 490.998 154.032C485.978 154.93 480.351 155.918 475.631 153.481C474.983 153.133 474.643 152.137 475.38 151.659C483.711 146.218 494.464 143.797 503.321 138.882C499.751 139.757 496.148 140.591 492.553 141.4C476.724 144.955 460.352 148.534 444.086 148.704C439.26 148.769 421.845 148.258 425.561 138.728C428.233 131.846 437.463 127.295 443.924 123.692C422.581 131.295 399.902 135.724 377.353 136.534C363.888 137.012 350.262 136.437 337.032 133.732C328.701 132.056 317.867 130.38 311.56 124.089C300.913 113.506 324.102 100.891 343.493 92.8098C339.121 94.6317 332.725 94.3726 328.093 94.2025C322.061 93.9677 322.596 91.6439 326.976 88.4293C332.271 84.5751 338.805 81.9436 345.031 79.9517C342.853 80.1541 340.683 80.3161 338.514 80.4294C333.542 80.6642 318.928 82.2837 316.774 75.5388C315.721 72.2838 317.867 69.1016 319.988 66.7778C325.106 61.1503 331.729 56.9075 338.522 53.5553C344.165 50.7537 350.1 48.3489 356.156 46.3246C342.23 47.0372 330.012 45.5311 331.874 37.515C332.255 35.8713 332.967 34.3248 333.874 32.8187C325.818 37.9766 316.806 45.2801 319.503 50.9723C321.308 54.8184 325.607 56.2678 330.482 56.5107C321.98 60.4297 314.07 65.4742 307.293 72.8668C303.779 76.6967 296.37 84.5832 303.301 88.5427C305.333 89.7006 308.443 89.571 311.835 88.8261C308.248 91.8625 304.896 95.1499 301.925 98.2834C294.395 106.194 281.853 117.83 282.825 129.822C283.424 137.384 311.058 147.19 320.256 170.687C324.401 181.27 331.559 192.452 333.089 203.869C333.259 205.165 335.267 204.735 335.931 204.072C339.631 200.306 340.837 193.902 342.797 189.108C345.882 181.513 348.837 173.91 352.448 166.574C356.472 167.772 360.982 168.121 364.464 168.55C373.281 169.61 382.033 169.578 390.891 169.246C396.469 169.027 402.761 169.076 409.173 168.914C403.668 173.457 401.83 179.052 407.392 185.489C411.376 190.088 419.375 191.181 424.913 192.177C434.848 193.983 444.944 194.614 455.033 194.234C463.81 193.902 472.53 192.59 481.144 190.914C476.918 193.472 474.246 196.485 477.663 199.424C481.298 202.557 491.063 200.865 495.216 200.736C501.912 200.549 508.9 199.327 515.321 197.084C513.426 209.059 514.924 222.419 522.162 230.913C528.939 238.84 536.995 228.889 541.392 220.298C541.959 222.905 542.566 225.423 543.027 227.715C544.42 234.581 547.44 244.97 555.286 246.759C559.99 247.836 563.812 243.14 565.941 239.213C566.637 242.8 567.35 246.395 568.022 249.917C570.483 262.856 566.151 284.645 570.483 297.042C575.681 311.892 589.267 271.884 645.733 260.435C647.482 260.071 650 260.419 651.458 259.585C658.259 255.617 657.522 244.184 657.919 237.585C658.219 232.808 657.182 227.861 656.267 223.197C655.498 219.335 653.272 215.318 651.652 211.399C655.199 215.197 658.753 220.638 659.911 222.517C662.073 226.015 664.064 229.318 668.113 230.33C669.254 230.63 670.623 229.95 671.351 229.1C675.983 223.82 673.465 213.092 672.833 206.63C672.307 201.335 670.865 196.557 669.181 191.78C672.299 196.46 674.712 201.934 678.096 206.112C679.974 208.42 683.108 208.735 685.383 206.792C690.128 202.671 689.893 191.553 690.144 186.145Z" fill="#CD4F2E"/>
<path d="M344.076 39.5476C344.076 39.5476 421.254 -21.2775 528.016 19.7341C528.016 19.7341 439.674 -9.71492 344.076 39.5476Z" fill="#3E3D57"/>
<path d="M567.528 256.413C567.528 256.413 585.47 233.53 601.485 253.805C617.5 274.064 590.304 323.124 551.1 305.06L567.528 256.413Z" fill="#F6BA9E"/>
<path d="M594.935 266.055C592.717 261.877 586.126 264.412 583.227 265.942C572.378 271.732 564.775 287.796 563.334 299.44C563.269 299.99 564.411 299.602 564.524 299.221C566.321 293.715 568.508 288.152 571.244 282.93C572.264 288.12 577.713 293.585 582.571 292.193C582.847 292.112 583.154 291.626 582.669 291.675C580.102 291.845 577.179 288.452 575.932 286.582C574.264 284.047 573.973 281.44 573.681 278.63C574.467 277.351 575.276 276.072 576.143 274.849C579.057 270.719 590.207 260.096 593.915 269.723C595.048 272.695 594.49 276.776 594.287 279.893C594.263 280.209 594.919 280.007 594.984 279.764C596.085 275.181 597.267 270.436 594.935 266.055Z" fill="#EC8862"/>
<path opacity="0.5" d="M588.125 295.903C593.898 289.927 598.23 280.324 597.728 271.895C596.934 258.656 583.907 258.899 575.964 266.502C575.081 267.353 573.77 266.106 574.393 265.126C579.016 257.693 590.287 250.438 598.991 251.005C583.656 235.887 567.535 256.413 567.535 256.413L551.115 305.061C564.799 311.368 577.008 309.49 586.441 303.514C586.36 303.482 586.263 303.433 586.19 303.401C583.251 301.425 586.619 297.449 588.125 295.903ZM576.539 302.275C568.434 304.413 568.151 293.96 571.098 289.117C571.438 288.534 572.329 288.502 572.766 289.004C573.049 289.352 573.349 289.684 573.64 290.032C573.851 290.016 574.094 290.049 574.312 290.251C576.498 292.105 580.004 293.733 581.275 296.437C582.781 299.636 579.17 301.595 576.539 302.275Z" fill="#F2A686"/>
<path d="M369.435 312.03C369.435 312.03 361.387 303.423 368.277 299.537C375.175 295.618 389.757 317.31 450.62 313.042C450.62 313.042 465.032 306.273 466.417 315.86C467.801 325.447 452.239 340.103 425.844 339.52C399.433 338.945 375.434 322.629 369.435 312.03Z" fill="#F6948D"/>
<path d="M411.092 323.115C429.512 326.718 450.247 326.184 466.416 315.982C466.416 315.933 466.416 315.901 466.416 315.852C465.032 306.265 450.62 313.034 450.62 313.034C401.603 316.467 382.616 303.083 373.475 299.779C376.908 314.913 397.724 320.524 411.092 323.115Z" fill="white"/>
<path d="M454.134 316.776C456.992 316.873 458.951 317.724 460.49 319.197C462.522 318.25 464.506 317.189 466.416 315.983C466.416 315.934 466.416 315.902 466.416 315.853C465.032 306.266 450.62 313.035 450.62 313.035C402.218 316.436 383.094 303.416 373.831 299.91C403.562 321.44 449.357 316.647 454.134 316.776Z" fill="#D5D7D8"/>
<path d="M419.926 339.107C421.877 339.325 423.845 339.487 425.845 339.52C442.022 339.884 454.086 334.508 460.701 328.103C446.11 327.374 429.893 328.953 419.926 339.107Z" fill="#CF5957"/>
<path d="M375.232 298.193C375.232 298.193 401.636 312.582 448.856 311.302C448.856 311.302 405.376 310.274 375.232 298.193Z" fill="#F6BA9E"/>
<path opacity="0.5" d="M425.051 344.831C425.051 344.831 449.3 352.03 464.109 338.629C464.109 338.629 450.215 346.224 425.051 344.831Z" fill="#F2A686"/>
<path d="M466.708 368.363C383.41 398.242 315.139 378.631 298.702 371.262C295.869 379.076 293.294 386.962 290.792 394.889C383.078 442.031 477.882 409.691 477.882 409.691C499.281 401.132 516.908 384.307 500.083 365.076C493.144 357.133 466.708 368.363 466.708 368.363Z" fill="#F6BA9E"/>
<path d="M230.342 410.84C227.938 403.739 268.672 393.123 268.672 393.123C268.672 393.123 219.809 389.075 219.404 382.241C218.991 375.407 262.429 374.646 262.429 374.646C262.429 374.646 218.254 361.075 217.849 354.257C217.444 347.424 265.409 362.865 265.409 362.865C265.409 362.865 229.808 336.282 231.881 331.157C233.945 326.015 280.857 358.929 280.857 358.929C280.857 358.929 269.627 341.61 274.915 338.622C282.307 334.412 290.136 353.043 302.71 368.719C307.253 374.379 304.192 385.828 300.702 392.516C296.193 401.164 232.739 417.941 230.342 410.84Z" fill="#F6BA9E"/>
<defs>
<radialGradient id="paint0_radial_504_3550" cx="0" cy="0" r="1" gradientUnits="userSpaceOnUse" gradientTransform="translate(485.198 255.914) rotate(3.155) scale(63.1658 63.1689)">
<stop offset="0.0011" stop-color="#EF7B63"/>
<stop offset="0.1221" stop-color="#F2907C"/>
<stop offset="0.42" stop-color="#F7BFB4"/>
<stop offset="0.6763" stop-color="#FBE2DD"/>
<stop offset="0.8779" stop-color="#FEF7F6"/>
<stop offset="1" stop-color="white"/>
</radialGradient>
<radialGradient id="paint1_radial_504_3550" cx="0" cy="0" r="1" gradientUnits="userSpaceOnUse" gradientTransform="translate(344.736 231.629) rotate(3.155) scale(52.5874 52.5901)">
<stop offset="0.0011" stop-color="#EF7B63"/>
<stop offset="0.1221" stop-color="#F2907C"/>
<stop offset="0.42" stop-color="#F7BFB4"/>
<stop offset="0.6763" stop-color="#FBE2DD"/>
<stop offset="0.8779" stop-color="#FEF7F6"/>
<stop offset="1" stop-color="white"/>
</radialGradient>
</defs>
</svg>
