<svg width="304" height="810" viewBox="0 0 304 810" fill="none" xmlns="http://www.w3.org/2000/svg">
<path d="M91.6305 751.736C91.1704 764.023 68.2175 797.065 68.1213 807.01C68.0321 816.955 91.5481 799.105 102.283 793.555C113.017 788.006 137.639 775.664 135.476 767.965C133.306 760.266 121.966 743.041 121.966 743.041L91.6305 751.736Z" fill="#243354"/>
<path d="M190.77 757.794C194.781 769.421 226.339 794.373 229.313 803.858C232.287 813.349 204.602 803.095 192.721 800.897C180.839 798.707 153.69 794.05 153.532 786.049C153.367 778.048 159.218 758.275 159.218 758.275L190.77 757.794Z" fill="#243354"/>
<path d="M135.798 437.807C135.798 437.807 153.119 749.284 153.435 760.328C153.751 771.372 181.91 759.449 194.045 762.636C206.181 765.822 200.302 559.288 216.057 491.631C231.813 423.974 135.798 437.807 135.798 437.807Z" fill="#9E4835"/>
<path opacity="0.45" d="M163.95 765.005C163.95 765.005 159.939 517.812 158.092 483.596" stroke="white" stroke-width="0.1932" stroke-miterlimit="10"/>
<path d="M62.338 479.118C41.1228 535.703 31.7685 617.123 31.4526 639.369C31.1366 661.614 84.2538 735.686 87.6741 750.562C91.0943 765.438 96.3071 748.687 106.087 751.606C115.867 754.532 131.272 750.191 130.53 738.309C129.782 726.428 92.0969 630.962 93.4224 615.88C94.7548 600.798 149.871 447.601 149.871 447.601L78.5051 453.026L62.338 479.118Z" fill="#9E4835"/>
<path opacity="0.45" d="M117.975 751.887C117.975 751.887 73.8964 631.677 75.3455 617.226C76.7947 602.783 120.592 458.102 120.592 458.102" stroke="white" stroke-width="0.1932" stroke-miterlimit="10"/>
<path d="M158.366 110.101C158.366 110.101 159.245 123.885 162.459 129.757C165.68 135.622 146.079 147.064 138.387 144.969C130.688 142.875 124.521 134.709 124.521 134.709C124.521 134.709 126.114 119.166 125.791 112.278C125.475 105.389 158.366 110.101 158.366 110.101Z" fill="#FF8883"/>
<path d="M174.656 21.6544C174.018 32.9523 164.334 41.5991 153.036 40.9535C141.738 40.3147 133.091 30.6309 133.737 19.333C134.376 8.03515 144.06 -0.611669 155.357 0.0339232C166.655 0.672647 175.295 10.3497 174.656 21.6544Z" fill="#682318"/>
<path d="M105.125 88.3429C105.125 88.3429 85.9224 55.301 104.59 31.0226C123.257 6.73733 173.098 13.3581 177.981 52.4782C182.864 91.5983 152.865 102.69 152.865 102.69L105.125 88.3429Z" fill="#9E4835"/>
<path d="M110.894 90.3003C110.894 90.3003 109.823 82.5395 101.65 83.4735C93.4703 84.4076 99.7681 110.472 114.472 103.885" fill="#FF8883"/>
<path d="M166.697 86.3645C166.697 86.3645 168.64 78.7754 176.655 80.6228C184.677 82.4703 175.467 107.662 161.601 99.448" fill="#FF8883"/>
<path d="M108.525 74.3521C108.525 74.3521 103.03 129.461 142.357 125.732C168.372 123.266 170.055 66.9484 170.055 66.9484C170.055 66.9484 142.343 71.1928 128.95 52.4844C128.95 52.4844 122.151 63.7547 108.525 74.3521Z" fill="#FFCCC2"/>
<path d="M85.0504 212.475C88.4982 249.672 76.2388 334.32 68.897 363.591C61.5482 392.863 32.0777 466.982 34.7699 497.449C37.4622 527.922 105.586 540.628 117.687 538.787C129.796 536.947 144.507 453.782 144.507 453.782C144.507 453.782 152.247 528.753 161.848 538.767C171.443 548.787 243.433 515.608 242.657 495.986C241.874 476.364 216.209 338.846 213.146 303.75C210.082 268.655 200.563 141.48 200.563 141.48L149.761 138.596L107.894 152.249L85.0504 212.475Z" fill="#9BAECC"/>
<path opacity="0.45" d="M144.507 453.775L150.317 182.008" stroke="black" stroke-width="0.1932" stroke-miterlimit="10"/>
<path d="M106.795 143.327C111.238 154.543 106.657 230.709 99.4803 243.552C92.3101 256.388 71.6716 272.487 70.662 280.722C69.6524 288.956 107.234 310.817 107.138 317.761C107.035 324.704 106.493 368.254 91.7881 382.588C69.1649 385.493 3.99441 338.612 0.271954 310.02C-3.44363 281.429 30.8552 197.09 106.795 143.327Z" fill="#5F7EAA"/>
<path d="M144.541 190.559C144.541 190.559 153.998 254.575 158.38 308.352C175.172 302.198 188.675 297.94 188.675 297.94C188.675 297.94 183.846 213.367 171.436 187.221C159.026 161.06 144.541 190.559 144.541 190.559Z" fill="#A82D3D"/>
<path d="M107.893 152.235C99.8576 168.595 106.712 193.615 128.799 211.451C150.887 229.287 191.312 164.021 182.04 154.165C172.768 144.316 107.893 152.235 107.893 152.235Z" fill="#842132"/>
<path d="M115.901 115.478C115.901 115.478 119.37 129.44 137.927 132.146C156.484 134.859 173.943 111 179.176 110.691C184.403 110.389 181.278 115.416 185.481 120.629C189.684 125.842 195.021 127.806 196.064 134.495C197.108 141.185 165.948 176.843 139.905 172.516C113.861 168.196 100.902 152.304 103.8 139.914C106.691 127.538 115.901 115.478 115.901 115.478Z" fill="#A82D3D"/>
<path d="M302.745 310.866C298.26 339.32 231.902 384.511 209.402 381.057C195.089 366.318 195.646 322.754 195.721 315.852C195.776 311.175 213.145 300.097 224.251 290.894C229.553 286.464 233.399 282.432 233.124 279.754C232.431 272.323 216.016 258.106 207.72 245.881C206.786 244.5 205.961 243.175 205.288 241.863C198.427 228.821 195.845 152.552 200.563 141.494C275.074 197.18 307.182 282.364 302.745 310.866Z" fill="#5F7EAA"/>
<path opacity="0.45" d="M109.487 308.489C109.487 308.489 120.758 351.799 90.0439 402.272" stroke="black" stroke-width="0.1932" stroke-miterlimit="10"/>
<path opacity="0.45" d="M196.326 303.132C196.326 303.132 173.353 350.143 213.572 395.314" stroke="black" stroke-width="0.1932" stroke-miterlimit="10"/>
<path opacity="0.45" d="M83.9521 262.577L88.2172 187.358" stroke="black" stroke-width="0.1932" stroke-miterlimit="10"/>
<path opacity="0.45" d="M208.6 247.13L203.38 178.855" stroke="black" stroke-width="0.1932" stroke-miterlimit="10"/>
<path opacity="0.45" d="M233.139 279.747C233.139 279.747 283.096 271.58 302.972 308.846" stroke="black" stroke-width="0.1932" stroke-miterlimit="10"/>
<path opacity="0.45" d="M70.6625 280.715C70.6625 280.715 18.6993 275.282 0.279297 310.014" stroke="black" stroke-width="0.1932" stroke-miterlimit="10"/>
</svg>
