<svg width="259" height="845" viewBox="0 0 259 845" fill="none" xmlns="http://www.w3.org/2000/svg">
<path d="M75.5605 681.796L78.4746 805.534C78.4746 805.534 95.4377 822.636 107.145 795.473V673.748L75.5605 681.796Z" fill="#EFD0CE"/>
<path d="M126.386 679.045L139.784 808.032C139.784 808.032 158.979 824.471 168.966 795.122L158.787 667.992L126.386 679.045Z" fill="#EFD0CE"/>
<mask id="mask0_467_46364" style="mask-type:luminance" maskUnits="userSpaceOnUse" x="16" y="355" width="215" height="350">
<path d="M61.9483 356.038C62.749 354.365 97.646 374.116 118.562 378.967C139.477 383.818 180.643 375.701 180.643 375.701C180.643 375.701 230.305 602.122 230.903 692.909C230.903 692.909 101.231 726.867 16.377 679.741C16.3788 679.741 39.3984 403.101 61.9483 356.038Z" fill="white"/>
</mask>
<g mask="url(#mask0_467_46364)">
<path d="M61.9483 356.038C62.749 354.365 97.646 374.116 118.562 378.967C139.477 383.818 187.785 385.198 187.785 385.198C187.785 385.198 230.305 602.122 230.903 692.909C230.903 692.909 101.231 726.867 16.377 679.741C16.377 679.741 39.3984 403.101 61.9483 356.038Z" fill="#C0CAD9"/>
</g>
<mask id="mask1_467_46364" style="mask-type:luminance" maskUnits="userSpaceOnUse" x="16" y="355" width="215" height="350">
<path d="M61.9483 356.038C62.749 354.365 97.646 374.116 118.562 378.967C139.477 383.818 180.643 375.701 180.643 375.701C180.643 375.701 230.305 602.122 230.903 692.909C230.903 692.909 101.231 726.867 16.377 679.741C16.3788 679.741 39.3984 403.101 61.9483 356.038Z" fill="white"/>
</mask>
<g mask="url(#mask1_467_46364)">
<path opacity="0.54" d="M178.346 380.336C177.968 376.611 172.877 376.566 173.259 380.336C185.176 497.73 197.092 615.125 209.01 732.519C209.388 736.244 214.479 736.289 214.097 732.519C202.18 615.125 190.264 497.73 178.346 380.336Z" fill="#E9F4FC"/>
</g>
<mask id="mask2_467_46364" style="mask-type:luminance" maskUnits="userSpaceOnUse" x="16" y="355" width="215" height="350">
<path d="M61.9483 356.038C62.749 354.365 97.646 374.116 118.562 378.967C139.477 383.818 180.643 375.701 180.643 375.701C180.643 375.701 230.305 602.122 230.903 692.909C230.903 692.909 101.231 726.867 16.377 679.741C16.3788 679.741 39.3984 403.101 61.9483 356.038Z" fill="white"/>
</mask>
<g mask="url(#mask2_467_46364)">
<path opacity="0.54" d="M164.822 377.296C164.654 373.518 159.565 373.494 159.735 377.296C165.104 497.253 170.471 617.21 175.84 737.167C176.009 740.946 181.098 740.969 180.928 737.167C175.559 617.21 170.19 497.253 164.822 377.296Z" fill="#E9F4FC"/>
</g>
<mask id="mask3_467_46364" style="mask-type:luminance" maskUnits="userSpaceOnUse" x="16" y="355" width="215" height="350">
<path d="M61.9483 356.038C62.749 354.365 97.646 374.116 118.562 378.967C139.477 383.818 180.643 375.701 180.643 375.701C180.643 375.701 230.305 602.122 230.903 692.909C230.903 692.909 101.231 726.867 16.377 679.741C16.3788 679.741 39.3984 403.101 61.9483 356.038Z" fill="white"/>
</mask>
<g mask="url(#mask3_467_46364)">
<path opacity="0.54" d="M141.221 375.789C140.491 497.763 138.903 619.726 136.451 741.671C136.374 745.469 141.462 745.467 141.539 741.671C143.988 619.728 145.579 497.763 146.308 375.789C146.33 371.991 141.243 371.988 141.221 375.789Z" fill="#E9F4FC"/>
</g>
<mask id="mask4_467_46364" style="mask-type:luminance" maskUnits="userSpaceOnUse" x="16" y="355" width="215" height="350">
<path d="M61.9483 356.038C62.749 354.365 97.646 374.116 118.562 378.967C139.477 383.818 180.643 375.701 180.643 375.701C180.643 375.701 230.305 602.122 230.903 692.909C230.903 692.909 101.231 726.867 16.377 679.741C16.3788 679.741 39.3984 403.101 61.9483 356.038Z" fill="white"/>
</mask>
<g mask="url(#mask4_467_46364)">
<path opacity="0.54" d="M125.412 372.886C121.827 496.315 118.242 619.742 114.657 743.17C114.547 746.969 119.635 746.963 119.745 743.17C123.33 619.743 126.914 496.315 130.499 372.886C130.609 369.087 125.522 369.093 125.412 372.886Z" fill="#E9F4FC"/>
</g>
<mask id="mask5_467_46364" style="mask-type:luminance" maskUnits="userSpaceOnUse" x="16" y="355" width="215" height="350">
<path d="M61.9483 356.038C62.749 354.365 97.646 374.116 118.562 378.967C139.477 383.818 180.643 375.701 180.643 375.701C180.643 375.701 230.305 602.122 230.903 692.909C230.903 692.909 101.231 726.867 16.377 679.741C16.3788 679.741 39.3984 403.101 61.9483 356.038Z" fill="white"/>
</mask>
<g mask="url(#mask5_467_46364)">
<path opacity="0.54" d="M108.609 363.927C98.0513 489.628 90.121 615.605 84.8249 741.751C84.6659 745.546 89.7535 745.537 89.9125 741.751C95.2086 615.605 103.139 489.628 113.696 363.927C114.013 360.151 108.923 360.174 108.609 363.927Z" fill="#E9F4FC"/>
</g>
<mask id="mask6_467_46364" style="mask-type:luminance" maskUnits="userSpaceOnUse" x="16" y="355" width="215" height="350">
<path d="M61.9483 356.038C62.749 354.365 97.646 374.116 118.562 378.967C139.477 383.818 180.643 375.701 180.643 375.701C180.643 375.701 230.305 602.122 230.903 692.909C230.903 692.909 101.231 726.867 16.377 679.741C16.3788 679.741 39.3984 403.101 61.9483 356.038Z" fill="white"/>
</mask>
<g mask="url(#mask6_467_46364)">
<path opacity="0.54" d="M90.9059 361.144C78.27 490.952 63.6102 620.482 46.9286 749.674C46.4478 753.388 51.3509 754.991 51.8336 751.242C68.5828 621.529 83.3064 491.475 95.9935 361.142C96.3591 357.377 91.2679 357.408 90.9059 361.144Z" fill="#E9F4FC"/>
</g>
<mask id="mask7_467_46364" style="mask-type:luminance" maskUnits="userSpaceOnUse" x="16" y="355" width="215" height="350">
<path d="M61.9483 356.038C62.749 354.365 97.646 374.116 118.562 378.967C139.477 383.818 180.643 375.701 180.643 375.701C180.643 375.701 230.305 602.122 230.903 692.909C230.903 692.909 101.231 726.867 16.377 679.741C16.3788 679.741 39.3984 403.101 61.9483 356.038Z" fill="white"/>
</mask>
<g mask="url(#mask7_467_46364)">
<path opacity="0.54" d="M73.2264 347.136C54.6655 479.42 36.1064 611.705 17.5455 743.989C17.0245 747.703 21.9258 749.303 22.4505 745.557C41.0114 613.273 59.5703 480.988 78.1312 348.704C78.6541 344.99 73.7529 343.39 73.2264 347.136Z" fill="#E9F4FC"/>
</g>
<path d="M225.374 222.098C215.505 211.55 201.292 206.261 187.449 203.612C180.711 202.324 173.888 201.666 167.111 200.64C161.313 199.763 151.678 197.858 147.198 193.727C141.792 184.822 146.523 176.4 151.227 167.736C153.993 162.64 156.684 157.455 157.837 151.714C158.653 147.651 158.984 143.551 159.135 139.435C160.715 131.074 161.163 122.422 161.091 114.127C161.038 107.891 160.512 101.351 159.305 94.9262C158.219 76.0945 152.582 55.4587 133.726 47.5097C112.441 38.5352 89.0306 51.6204 78.6323 70.7646C73.8262 79.613 70.6196 89.8523 69.2338 100.4C65.9323 112.407 65.4369 125.24 68.1333 137.572C70.8006 149.767 77.1515 161.511 86.3214 170.089C86.3232 170.098 86.3232 170.105 86.325 170.114C86.325 170.114 99.6392 190.679 86.325 198.842C76.5373 200.147 66.3364 198.895 56.6144 201.114C30.2584 207.132 32.3625 237.037 31.6989 260.449C31.538 266.101 28.9111 267.245 34.2821 267.411C67.1188 268.418 99.9572 269.425 132.794 270.434C165.313 271.432 197.855 273.107 230.156 268.183C233.377 267.691 236.609 264.158 237.253 261.036C240.222 246.593 235.309 232.718 225.374 222.098Z" fill="#EFD0CE"/>
<path d="M211.751 290.165C211.751 290.165 215.436 341.136 216.05 352.803C216.665 364.472 188.614 411.711 181.243 411.711L179.013 441.924C179.013 441.924 230.792 393.95 237.547 375.526C244.304 357.102 245.532 346.049 244.918 330.696C244.304 315.342 241.233 282.795 241.233 282.795L211.751 290.165Z" fill="#EFD0CE"/>
<path d="M178.553 428.72C179.418 418.856 183.378 409.494 183.429 399.569C183.442 397.202 179.764 397.2 179.751 399.569C179.696 410.166 175.316 420.316 174.718 430.956C174.162 440.875 175.506 450.71 178.329 460.217C179.001 462.48 182.551 461.516 181.875 459.239C178.932 449.329 177.648 439.046 178.553 428.72Z" fill="#B6C1CD"/>
<mask id="mask8_467_46364" style="mask-type:luminance" maskUnits="userSpaceOnUse" x="0" y="450" width="55" height="74">
<path d="M36.8741 462.241C36.2544 462.228 35.5817 462.239 34.8687 462.269C34.5086 456.275 30.5287 450.074 22.8397 450.569C21.9987 450.624 21.1396 450.777 20.2858 451C18.0025 451.446 15.8874 452.539 14.286 454.071C13.754 454.521 13.2567 454.994 12.8436 455.502C12.3482 456.111 12.0008 456.767 11.7632 457.454C10.4286 460.037 10.2769 463.089 11.445 465.919C8.26046 466.599 6.14713 467.099 6.14713 467.099C-4.79782 471.086 -2.05011 522.01 21.8983 522.955C45.8466 523.9 53.404 514.452 53.404 514.452C58.828 495.134 46.2798 462.442 36.8741 462.241ZM14.8252 465.215C14.8325 465.113 14.8307 465.007 14.8033 464.895C13.7612 460.496 17.0848 455.875 22.3407 455.668C27.2748 455.475 29.8323 458.781 30.4685 462.545C30.4703 462.57 30.4739 462.598 30.4757 462.623C25.4539 463.182 19.5582 464.257 14.8252 465.215Z" fill="white"/>
</mask>
<g mask="url(#mask8_467_46364)">
<path d="M36.8741 462.241C36.2544 462.228 35.5817 462.239 34.8687 462.269C34.5086 456.275 30.5287 450.074 22.8397 450.569C21.9987 450.624 21.1396 450.777 20.2858 451C18.0025 451.446 15.8874 452.539 14.286 454.071C13.754 454.521 13.2567 454.994 12.8436 455.502C12.3482 456.111 12.0008 456.767 11.7632 457.454C10.4286 460.037 10.2769 463.089 11.445 465.919C8.26046 466.599 6.14713 467.099 6.14713 467.099C-4.79782 471.086 -2.05011 522.01 21.8983 522.955C45.8466 523.9 53.404 514.452 53.404 514.452C58.828 495.134 46.2798 462.442 36.8741 462.241ZM14.8252 465.215C14.8325 465.113 14.8307 465.007 14.8033 464.895C13.7612 460.496 17.0848 455.875 22.3407 455.668C27.2748 455.475 29.8323 458.781 30.4685 462.545C30.4703 462.57 30.4739 462.598 30.4757 462.623C25.4539 463.182 19.5582 464.257 14.8252 465.215Z" fill="#1F2018"/>
</g>
<mask id="mask9_467_46364" style="mask-type:luminance" maskUnits="userSpaceOnUse" x="0" y="450" width="55" height="74">
<path d="M36.8741 462.241C36.2544 462.228 35.5817 462.239 34.8687 462.269C34.5086 456.275 30.5287 450.074 22.8397 450.569C21.9987 450.624 21.1396 450.777 20.2858 451C18.0025 451.446 15.8874 452.539 14.286 454.071C13.754 454.521 13.2567 454.994 12.8436 455.502C12.3482 456.111 12.0008 456.767 11.7632 457.454C10.4286 460.037 10.2769 463.089 11.445 465.919C8.26046 466.599 6.14713 467.099 6.14713 467.099C-4.79782 471.086 -2.05011 522.01 21.8983 522.955C45.8466 523.9 53.404 514.452 53.404 514.452C58.828 495.134 46.2798 462.442 36.8741 462.241ZM14.8252 465.215C14.8325 465.113 14.8307 465.007 14.8033 464.895C13.7612 460.496 17.0848 455.875 22.3407 455.668C27.2748 455.475 29.8323 458.781 30.4685 462.545C30.4703 462.57 30.4739 462.598 30.4757 462.623C25.4539 463.182 19.5582 464.257 14.8252 465.215Z" fill="white"/>
</mask>
<g mask="url(#mask9_467_46364)">
<path d="M30.1501 494.181C27.3458 482.492 20.2271 471.871 8.77763 465.516C7.47418 464.792 6.42485 466.742 7.71551 467.459C18.516 473.454 25.1576 483.666 27.8065 494.656C29.1813 500.359 29.6346 506.462 28.6182 512.28C27.3787 519.383 23.238 524.826 18.2399 530.351C17.26 531.435 19.0736 532.813 20.0571 531.726C24.9747 526.29 29.2525 520.832 30.7424 513.874C32.1299 507.392 31.6803 500.56 30.1501 494.181Z" fill="#474646"/>
</g>
<path d="M47.519 277.605C44.8646 276.018 41.4478 275.651 38.4534 275.174C34.5266 274.549 30.5724 274.231 26.6017 274.081C26.333 272.112 23.1173 271.699 22.7407 273.969C18.1503 301.653 13.3076 329.308 9.00607 357.037C6.89276 370.66 5.81961 384.249 5.43753 398.022C5.07556 411.094 3.97687 424.43 4.84705 437.491C5.37172 445.36 8.33143 465.41 20.163 462.93V462.939C20.163 462.939 20.2471 462.925 20.3915 462.89C20.3989 462.888 20.4062 462.888 20.4153 462.886C20.4226 462.885 20.43 462.881 20.4373 462.879C21.514 462.605 25.4829 461.263 25.885 456.268C25.885 456.268 25.0222 455.332 23.4263 455.149C22.6566 455.062 22.1795 454.709 21.9034 454.217C22.3093 449.373 23.2819 444.63 24.8303 440.03C25.2526 444.329 25.673 448.628 26.0953 452.927C26.3183 455.202 29.417 455.241 29.9819 453.139C33.5522 439.845 31.8777 427.109 27.0496 414.411C24.3202 407.236 23.3037 401.043 25.4042 393.533C27.3018 386.752 29.3274 380.303 30.1811 373.273C30.8593 367.68 31.2488 362.038 32.2542 356.492C32.8228 353.866 33.4224 351.457 34.0458 349.227C35.7678 343.82 38.2139 338.671 40.3602 333.418C44.6635 322.887 47.7805 311.871 49.5958 300.641C51.1241 295.6 52.241 290.8 51.2849 286.707C51.411 283.083 50.7749 279.552 47.519 277.605Z" fill="#EFD0CE"/>
<path d="M42.9747 495.622C42.0497 493.682 39.1668 495.375 40.09 497.307C44.4464 506.437 46.5542 516.389 46.152 526.506C45.9417 531.83 45.035 537.111 43.4536 542.199C42.1465 546.407 39.993 554.904 34.5123 555.363C22.7959 556.343 21.6515 532.949 20.902 525.583C19.8215 514.954 19.9934 504.278 21.1835 493.666C21.423 491.533 18.0793 491.549 17.8417 493.666C16.1561 508.683 16.6242 523.828 19.4687 538.681C21.0098 546.723 24.8087 561.307 36.3003 558.472C45.4263 556.22 48.1117 539.527 49.0422 531.964C50.5797 519.46 48.386 506.965 42.9747 495.622Z" fill="#1F2018"/>
<path d="M62.1027 473.973C58.5251 459.969 44.368 452.404 30.6188 455.739C28.531 456.246 29.4141 459.468 31.5073 458.96C43.465 456.059 55.8158 462.654 58.8815 474.86C61.3202 484.573 56.6366 502.768 45.5326 505.271C43.4357 505.742 44.3224 508.965 46.4211 508.491C59.558 505.534 65.0442 485.485 62.1027 473.973Z" fill="#1F2018"/>
<path d="M166.773 73.9027C163.649 63.3582 156.991 54.2357 148.117 48.2058C153.698 42.0717 154.376 32.5745 150.459 24.8393C145.071 14.1979 133.028 8.02911 121.748 7.11339C99.4413 5.30205 73.1475 22.7483 80.4782 47.8585C74.2443 53.6672 68.144 59.6204 62.2318 65.7727C57.2977 70.9051 51.6049 76.1344 49.1936 83.1075C44.1078 97.8194 53.9833 111.425 63.9045 120.912C64.9283 121.891 66.1147 122.05 67.1549 121.72C72.3651 122.571 77.0889 120.541 80.0523 116.938C81.5697 116.223 83.0559 115.445 84.491 114.58C89.6737 111.46 88.1162 104.886 89.6482 99.3876C90.65 95.7905 92.0064 92.3561 93.6115 89.0496C95.7101 97.3532 99.8856 104.555 108.639 108.464C118.728 112.97 130.002 113.39 140.548 110.716C146.402 113.5 151.888 117.017 156.925 121.168C158.795 122.71 161.992 122.427 162.627 119.621C166.003 104.681 171.297 89.1702 166.773 73.9027Z" fill="#3A3023"/>
<path d="M114.231 140.955C111.866 139.725 110.292 138.153 111.37 135.923C112.003 134.616 112.515 133.287 112.866 131.918C113.514 129.387 113.608 126.822 113.27 124.258C113.196 123.706 112.059 123.7 112.132 124.258C112.677 128.387 111.833 132.152 110.098 136.045C108.961 138.597 110.869 140.255 113.657 141.704C114.264 142.02 114.834 141.267 114.231 140.955Z" fill="#E4ABA4" stroke="#E4ABA4" stroke-miterlimit="10"/>
<mask id="mask10_467_46364" style="mask-type:luminance" maskUnits="userSpaceOnUse" x="71" y="111" width="37" height="37">
<path d="M89.5533 111.166C65.4112 111.166 65.371 147.141 89.5533 147.141C113.695 147.141 113.736 111.166 89.5533 111.166Z" fill="white"/>
</mask>
<g mask="url(#mask10_467_46364)">
<path d="M89.5533 111.166C65.4112 111.166 65.371 147.141 89.5533 147.141C113.695 147.141 113.736 111.166 89.5533 111.166Z" fill="#171716"/>
</g>
<mask id="mask11_467_46364" style="mask-type:luminance" maskUnits="userSpaceOnUse" x="71" y="111" width="37" height="37">
<path d="M89.5533 111.166C65.4112 111.166 65.371 147.141 89.5533 147.141C113.695 147.141 113.736 111.166 89.5533 111.166Z" fill="white"/>
</mask>
<g mask="url(#mask11_467_46364)">
<path opacity="0.4" d="M70.2974 145.626C70.6758 144.818 70.2974 144.818 70.2974 144.818L68.0762 96.4805L108.984 108.085L70.2974 145.626Z" fill="#B6B7B7"/>
</g>
<mask id="mask12_467_46364" style="mask-type:luminance" maskUnits="userSpaceOnUse" x="121" y="109" width="37" height="37">
<path d="M139.422 109.648C115.28 109.648 115.24 145.623 139.422 145.623C163.565 145.625 163.605 109.648 139.422 109.648Z" fill="white"/>
</mask>
<g mask="url(#mask12_467_46364)">
<path d="M139.422 109.648C115.28 109.648 115.24 145.623 139.422 145.623C163.565 145.625 163.605 109.648 139.422 109.648Z" fill="#171716"/>
</g>
<mask id="mask13_467_46364" style="mask-type:luminance" maskUnits="userSpaceOnUse" x="121" y="109" width="37" height="37">
<path d="M139.422 109.648C115.28 109.648 115.24 145.623 139.422 145.623C163.565 145.625 163.605 109.648 139.422 109.648Z" fill="white"/>
</mask>
<g mask="url(#mask13_467_46364)">
<path opacity="0.4" d="M122.84 143.082L155.115 102.956L112.944 96.4785L122.84 143.082Z" fill="#B6B7B7"/>
</g>
<path d="M121.332 125.241C115.933 122.536 110.07 122.457 104.577 124.941C102.581 125.844 104.312 128.785 106.299 127.886C110.611 125.936 115.388 126.069 119.61 128.186C121.567 129.167 123.297 126.226 121.332 125.241Z" fill="#171716"/>
<path d="M78.3671 800.983C78.3671 800.983 95.6502 810.847 107.144 792.729C107.144 792.729 113.626 811.419 113.218 819.08C112.811 826.74 111.891 829.498 111.891 829.498L107.142 831.03C107.142 831.03 104.23 824.289 103.617 819.999C103.617 819.999 91.0177 837.771 75.5591 842.368C60.1005 846.964 46.0021 842.368 46.0021 842.368C46.0021 842.368 41.4043 839.917 53.3566 826.435C65.3106 812.951 73.3416 802.496 78.3671 800.983Z" fill="#4F2C32"/>
<path d="M168.788 792.895C168.788 792.895 153.715 806.794 138.127 792.076C138.127 792.076 136.911 812.43 139.278 819.727C141.647 827.024 143.247 829.451 143.247 829.451L148.231 829.707C148.231 829.707 149.306 822.443 148.792 818.14C148.792 818.14 165.548 832.063 181.671 832.518C197.793 832.973 210.228 824.898 210.228 824.898C210.228 824.898 214.037 821.345 199.012 811.4C183.987 801.454 174.033 793.061 168.788 792.895Z" fill="#4F2C32"/>
<path d="M80.8513 54.1647C80.8513 54.1647 67.7747 39.3852 76.3028 20.6266C84.831 1.868 116.67 -3.81644 130.315 2.43643C130.315 2.43643 176.935 20.6266 147.94 55.8701L80.8513 54.1647Z" fill="#3A3023"/>
<path d="M120.021 156.122C117.452 158.151 114.158 158.516 111.138 157.369C109.769 156.848 109.177 159.047 110.533 159.562C114.361 161.015 118.449 160.244 121.63 157.731C122.776 156.824 121.158 155.225 120.021 156.122Z" fill="#912829"/>
<path d="M254.166 241.256C260.246 233.488 259.818 221.694 250.544 216.603C240.375 211.021 230.991 217.934 221.243 220.495C208.741 223.779 197.783 218.084 185.657 216.123C180.655 215.313 175.665 215.232 170.718 216.441C165.1 217.813 160.257 221.017 154.93 223.116C142.603 227.97 131.956 224.242 120.364 219.531C108.768 214.819 96.7027 214.229 84.4945 217.113C78.0631 218.632 74.1784 222.348 68.8312 225.795C63.3322 229.341 56.7985 227.866 50.8809 226.269C40.7915 223.545 25.6821 218.283 17.9674 228.623C14.6311 233.095 14.653 238.712 16.887 243.684C18.2891 246.806 21.6749 249.875 24.0258 253.093C21.6109 271.002 16.3787 300.724 16.3787 300.724C22.6949 312.902 49.146 311.594 49.146 311.594C51.9101 319.331 61.3834 322.297 62.9629 331.69C64.5423 341.085 56.122 373.006 56.122 373.006C80.5987 387.619 183.224 387.692 183.224 387.692C183.224 387.692 183.767 357.785 196.004 338.301C208.242 318.817 207.059 301.767 207.059 301.767C231.931 305.942 252.458 295.853 252.458 295.853C253.314 286.553 251.078 261.826 247.837 247.445C250.221 245.581 252.382 243.536 254.166 241.256Z" fill="#211D17"/>
<path d="M145.108 191.817C128.131 195.809 110.109 195.719 92.5318 193.246C84.5063 192.116 81.0822 199.545 89.1241 200.676C108.771 203.44 129.495 203.719 148.516 199.247C156.112 197.459 152.807 190.005 145.108 191.817Z" fill="#211D17"/>
</svg>
