<svg width="513" height="810" viewBox="0 0 513 810" fill="none" xmlns="http://www.w3.org/2000/svg">
<path d="M386.323 314.084C386.323 314.084 441.308 314.724 449.024 279.105C449.024 279.105 450.635 301.129 430.693 311.55C430.693 311.55 469.517 308.813 480.212 286.546C490.398 265.324 480.212 249.607 480.212 249.607C480.212 249.607 497.102 263.186 491.159 289.461C491.159 289.461 503.919 277.712 501.093 253.713C498.357 230.498 481.467 221.972 481.467 221.972C481.467 221.972 491.159 228.361 506.802 226.952C506.802 226.952 486.641 223.235 489.216 179.074C491.791 134.913 458.586 34.8977 344.358 7.50538C218.463 -22.7209 187.914 48.1121 187.914 48.1121C187.914 48.1121 143.885 48.2579 119.441 85.0752C94.9971 121.876 101.426 185.673 53.2021 189.948C53.2021 189.948 71.1931 208.952 96.2928 189.349C96.2928 189.349 71.1849 239.016 112.988 262.943C112.988 262.943 106.584 256.19 107.215 239.016C107.215 239.016 117.514 278.271 147.091 287.477C147.091 287.477 133.586 275.186 134.217 251.907C134.217 251.907 140.347 286.498 186.959 306.044C228.131 323.331 269.707 316.643 269.707 316.643C269.707 316.643 308.514 340.554 386.323 314.084Z" fill="#F89A42"/>
<path opacity="0.8" d="M53.2021 189.94C53.2021 189.94 71.1931 208.944 96.2928 189.341C96.2928 189.341 71.1849 239.008 112.988 262.935C112.988 262.935 106.584 256.182 107.215 239.008C107.215 239.008 117.514 278.263 147.091 287.469C147.091 287.469 133.586 275.178 134.217 251.899C134.217 251.899 140.347 286.489 186.959 306.036C228.131 323.323 269.707 316.635 269.707 316.635C269.707 316.635 308.522 340.561 386.323 314.092C386.323 314.092 441.308 314.732 449.024 279.113C449.024 279.113 450.635 301.137 430.693 311.558C430.693 311.558 469.517 308.821 480.212 286.554C490.398 265.332 480.212 249.615 480.212 249.615C480.212 249.615 497.102 263.194 491.159 289.469C491.159 289.469 503.919 277.72 501.093 253.72C498.762 233.923 486.171 224.83 482.512 222.579C485.378 224.142 494.122 228.101 506.802 226.96C506.802 226.96 486.641 223.243 489.216 179.082C491.791 134.92 458.586 34.9055 344.358 7.51319C218.463 -22.7131 187.914 48.1199 187.914 48.1199C187.914 48.1199 143.885 48.2656 119.441 85.083C94.9971 121.868 101.426 185.665 53.2021 189.94ZM478.617 163.382C476.674 112.977 451.194 79.0425 451.194 79.0425C451.194 79.0425 486.382 112.362 486.884 172.183C487.24 214.765 497.191 222.433 499.515 223.64C499.652 223.713 499.83 223.786 499.976 223.85C499.976 223.85 499.806 223.802 499.515 223.64C486.261 217.899 480.253 205.883 478.617 163.382ZM475.589 221.405C475.589 221.405 510.51 237.559 495.078 277.752C495.078 277.752 499.077 246.708 475.589 221.405ZM477.322 246.984C477.322 246.984 487.507 265.979 478.374 284.23C467.46 306.027 438.911 307.274 438.911 307.274C438.911 307.274 486.333 290.036 477.322 246.984ZM413.779 304.821C451.542 282.149 438.903 224.166 438.903 224.166C470.909 293.153 413.779 304.821 413.779 304.821ZM274.136 25.4725C256.064 32.2335 247.312 43.9337 251.805 37.7962C269.327 13.8775 309.373 11.4888 302.426 15.3187C295.463 19.1648 283.018 28.9542 292.475 25.1323C316.554 15.3835 336.958 17.8612 323.987 22.3956C311.024 26.9461 298.053 33.699 309.024 31.7477C329.274 28.1283 352.811 34.9298 333.978 35.0594C276.444 35.5452 257.91 64.3626 260.193 57.6745C266.177 39.8933 299.276 28.3631 285.941 32.0634C264.306 38.0229 254.218 53.5045 254.234 51.5288C254.388 37.9095 286.483 20.8734 274.136 25.4725ZM135.991 234.207C173.624 301.712 231.491 313.064 231.491 313.064C146.12 302.473 135.991 234.207 135.991 234.207ZM194.246 88.0061C202.918 86.1356 165.883 103.002 167.851 159.616C168.466 178.175 158.507 154.669 162.345 134.872C164.41 124.2 156.111 136.605 150.735 149.163C145.367 161.73 141.189 141.511 152.937 118.281C157.528 109.123 145.229 120.912 140.509 127.576C135.764 134.248 137.14 94.9209 167.762 78.824C175.608 74.6945 160.613 82.7349 152.573 100.241C147.051 112.168 167.989 81.3745 185.89 81.8765C188.481 81.9494 168.604 91.1477 161.722 112.184C157.512 125.123 171.146 93.0829 194.246 88.0061ZM109.936 217.041C116.704 260.53 138.412 277.752 138.412 277.752C103.596 256.263 109.936 217.041 109.936 217.041ZM107.045 180.223C88.9732 217.041 104.632 250.231 104.632 250.231C74.2617 215.227 107.045 180.223 107.045 180.223ZM58.8131 192.005C58.8131 192.005 99.2236 188.418 110.437 119.277C119.587 62.6946 168.142 47.958 192.1 50.7272C192.1 50.7272 225.354 -23.3285 336.958 10.2581C336.958 10.2581 241.15 -16.1303 203.039 55.4882C203.039 55.4882 142.751 51.6583 126.364 110.079C109.936 168.507 92.0904 189.195 58.8131 192.005Z" fill="#F89A42"/>
<path d="M203.039 248.076C203.039 248.076 197.25 263.266 180.855 260.756C160.856 257.695 148.047 203.923 175.535 197.016C203.048 190.117 204.424 217.72 204.424 217.72C212.148 83.4303 337.136 64.4022 398.38 102.134C448.198 132.83 434.086 185.526 428.928 209.825C422.977 238.068 433.406 250.367 426.677 274.286C416.484 310.375 386.324 314.091 386.324 314.091C308.523 340.56 269.707 316.634 269.707 316.634C216.269 293.622 203.039 248.076 203.039 248.076Z" fill="#F6BA9E"/>
<path opacity="0.6" d="M180.854 260.756C197.25 263.267 203.039 248.076 203.039 248.076C203.039 248.076 216.269 293.622 269.699 316.626C269.699 316.626 270.751 317.258 272.84 318.221C224.665 291.145 218.787 237.882 232.3 220.344C245.789 202.79 254.793 200.215 254.793 200.215C254.793 200.215 248.68 205.445 254.793 204.846C323.274 198.061 325.865 157.608 332.31 169.64C351.143 204.765 378.923 198.595 378.923 198.595C367.992 190.166 358.981 173.26 367.66 181.551C376.316 189.834 393.068 195.939 403.35 198.595C413.649 201.259 429.632 220.279 424.782 264.343C421.276 295.971 397.472 309.566 384.307 314.723C384.979 314.505 385.651 314.318 386.307 314.084C386.307 314.084 416.475 310.367 426.661 274.278C433.389 250.36 422.961 238.06 428.912 209.818C434.069 185.519 448.182 132.823 398.363 102.127C337.12 64.4028 212.132 83.4228 204.407 217.712C204.407 217.712 203.023 190.118 175.518 197.008C148.046 203.931 160.855 257.696 180.854 260.756ZM165.106 235.065C167.163 233.178 170.369 235.21 170.863 237.534C172.126 243.574 167.033 242.457 164.92 239.72C163.819 238.344 163.511 236.562 165.106 235.065ZM162.847 228.708C161.552 226.781 161.616 224.239 161.39 222.052C160.661 215.332 163.066 208.215 167.381 202.976C168.831 201.219 171.227 199.316 173.389 198.45C178.32 196.474 189.202 196.118 189.072 203.47C189.032 206.466 186.651 208.547 184.352 210.263C180.878 212.83 177.065 214.765 173.737 217.526C171.049 219.802 169.43 222.571 168.774 225.955C168.41 227.915 167.219 230.174 165.713 230.482C164.823 230.668 163.843 230.231 162.847 228.708Z" fill="#F6BA9E"/>
<path d="M185.348 249.145C185.348 249.145 185.55 249.072 185.842 248.821C186.182 248.578 186.676 248.222 187.17 247.68C187.736 247.169 188.206 246.416 188.87 245.59C189.428 244.716 189.979 243.696 190.522 242.554C190.918 241.364 191.493 240.076 191.833 238.692C192.092 237.267 192.529 235.785 192.675 234.238C192.797 232.676 192.902 231.056 193.023 229.404C192.975 228.57 192.934 227.753 192.869 226.911C192.837 226.085 192.61 225.186 192.457 224.352C192.287 223.477 191.922 222.684 191.639 221.85C191.323 221.024 190.813 220.295 190.424 219.526C189.388 218.117 188.19 216.765 186.579 215.971C185.874 215.478 184.983 215.299 184.19 215.016C183.324 214.943 182.481 214.757 181.664 214.927C180.012 215.008 178.652 215.793 177.542 216.554C177.032 217.016 176.603 217.453 176.166 217.89C175.834 218.392 175.543 218.862 175.267 219.291C174.757 220.222 174.466 221.089 174.215 221.761C173.891 223.186 173.745 223.996 173.745 223.996C173.745 223.996 174.037 223.226 174.571 221.882C174.911 221.259 175.3 220.457 175.85 219.656C176.166 219.291 176.522 218.894 176.862 218.473C177.3 218.125 177.729 217.761 178.198 217.38C179.219 216.822 180.401 216.223 181.761 216.271C182.425 216.158 183.105 216.409 183.785 216.473C184.392 216.781 185.113 216.903 185.704 217.364C186.991 218.028 187.922 219.259 188.821 220.457C189.161 221.154 189.59 221.785 189.866 222.522C190.1 223.259 190.424 223.979 190.562 224.733C190.683 225.51 190.918 226.19 190.975 227.008C191.048 227.817 191.088 228.619 191.153 229.404C191.08 230.975 191.032 232.562 190.967 234.076C190.894 235.582 190.578 237 190.424 238.408C190.222 239.769 189.777 240.999 189.493 242.19C189.04 243.315 188.667 244.36 188.254 245.258C187.72 246.101 187.356 246.918 186.878 247.453C186.457 248.036 186.076 248.465 185.777 248.724C185.542 249.032 185.348 249.129 185.348 249.145Z" fill="#EC8862"/>
<path d="M192.1 226.148C192.1 226.148 192.003 226.545 191.857 227.242C191.76 227.566 191.711 228.003 191.598 228.472C191.428 228.934 191.282 229.436 191.137 229.978C190.934 230.521 190.675 231.104 190.44 231.719C190.157 232.286 189.857 232.918 189.485 233.525C189.096 234.124 188.699 234.707 188.197 235.241C187.728 235.833 187.129 236.294 186.578 236.764L185.663 237.379L184.651 237.865C184.003 238.124 183.315 238.424 182.619 238.48C181.939 238.65 181.242 238.61 180.595 238.65C179.947 238.529 179.283 238.529 178.749 238.351C178.481 238.27 178.198 238.189 177.931 238.132C177.688 238.027 177.437 237.922 177.226 237.833C176.765 237.671 176.36 237.484 176.052 237.29C175.429 236.958 175.057 236.74 175.057 236.74C175.057 236.74 175.324 237.063 175.834 237.582C176.052 237.857 176.384 238.156 176.846 238.456C177.064 238.602 177.283 238.764 177.518 238.95C177.785 239.08 178.06 239.201 178.344 239.339C178.943 239.679 179.647 239.824 180.4 240.011C181.162 240.108 181.987 240.245 182.845 240.116C183.687 240.059 184.57 239.824 185.396 239.525L186.627 238.958L187.744 238.213C188.432 237.646 189.121 237.071 189.614 236.383C190.189 235.744 190.586 235.015 190.983 234.302C191.339 233.598 191.574 232.861 191.8 232.181C191.971 231.484 192.141 230.829 192.197 230.221C192.327 228.974 192.327 227.962 192.23 227.282C192.141 226.553 192.1 226.148 192.1 226.148Z" fill="#EC8862"/>
<path opacity="0.6" d="M399.245 279.469C400.306 285.695 407.965 289.736 416.734 289.039C417.803 287.12 418.985 285.25 419.916 283.242C420.928 281.031 421.592 278.594 422.426 276.295C422.442 276.278 422.442 276.254 422.442 276.254C423.446 272.659 424.814 269.007 424.75 265.291C421.713 264.351 418.159 264.076 414.459 264.643C404.889 266.149 398.079 272.78 399.245 279.469ZM420.774 267.444C420.928 267.396 421.13 267.372 421.284 267.461C421.357 267.493 421.406 267.534 421.462 267.558C421.673 267.59 421.9 267.615 422.086 267.712C422.628 267.955 422.823 268.473 422.952 269.007C423.082 269.574 422.426 270.035 421.9 269.817C421.592 269.72 421.276 269.631 421.001 269.453C420.588 269.42 420.377 269.104 420.345 268.797C419.77 268.4 420.11 267.485 420.774 267.444Z" fill="url(#paint0_radial_504_2089)"/>
<path opacity="0.6" d="M263.505 246.611C259.756 255.105 266.938 266.109 279.56 271.194C292.183 276.271 305.454 273.469 309.21 264.983C312.984 256.465 305.794 245.461 293.155 240.376C280.54 235.324 267.261 238.117 263.505 246.611ZM303.267 253.04C304.304 253.129 305.13 253.737 305.729 254.595C305.842 254.643 305.923 254.733 306.012 254.838C307.47 256.554 307.769 259.162 306.498 260.943C305.259 262.652 302.684 262.238 301.3 260.894C299.915 259.575 299.106 257.599 299.381 255.801C299.648 254.06 301.405 252.87 303.267 253.04ZM298.596 248.125C298.831 248.166 299.065 248.287 299.195 248.498C299.227 248.587 299.268 248.66 299.308 248.725C299.543 248.911 299.794 249.089 299.988 249.348C300.45 250.02 300.264 250.757 299.988 251.429C299.721 252.166 298.596 252.255 298.11 251.631C297.843 251.316 297.511 250.959 297.308 250.595C296.823 250.231 296.822 249.745 297.049 249.348C296.652 248.49 297.746 247.64 298.596 248.125Z" fill="url(#paint1_radial_504_2089)"/>
<path opacity="0.5" d="M372.461 267.081C375.975 267.437 379.756 266.903 382.121 264.514C380.412 271.583 374.291 280.303 365.863 277.008C359.296 274.449 355.912 264.563 359.491 258.668C362.794 262.789 366.705 266.53 372.461 267.081Z" fill="#F2A686"/>
<path d="M380.712 259.421C378.121 255.623 369.733 255.631 365.102 256.66C365.102 256.587 365.102 256.53 365.215 256.482C366.721 255.81 368.721 255.308 370.858 255.057C370.858 252.247 371.87 248.911 373.668 246.215C374.154 245.81 374.656 245.397 375.166 245.016C375.83 244.506 376.542 244.126 377.271 243.777C375.068 247 373.716 251.04 375.036 254.498C375.06 254.53 375.101 254.546 375.125 254.579C375.125 254.676 375.125 254.814 375.125 254.935C379.287 255.202 383.222 256.66 384.517 260.085C387.092 266.805 376.745 275.996 370.915 277.728C370.867 277.753 370.842 277.728 370.842 277.728C374.915 273.72 379.408 269.607 381.133 264.32C381.441 263.364 381.546 262.514 381.481 261.753C381.57 260.781 381.287 260.012 380.712 259.421Z" fill="#EC8862"/>
<path d="M377.15 258.076C377.15 258.076 382.639 258.683 379.708 262.829C376.785 266.991 367.936 264.132 367.669 260.213C367.393 256.278 374.786 257.266 377.15 258.076Z" fill="#F6BA9E"/>
<path opacity="0.5" d="M341.873 196.053C341.873 196.053 332.221 178.515 312.287 189.64C312.287 189.64 319.153 179.252 329.954 180.725C340.731 182.223 341.873 196.053 341.873 196.053Z" fill="#F2A686"/>
<path d="M343.629 194.603C343.629 194.603 333.994 177.065 314.044 188.19C314.044 188.19 320.918 177.802 331.711 179.283C342.488 180.781 343.629 194.603 343.629 194.603Z" fill="#CD5425"/>
<path opacity="0.5" d="M422.386 210.506C422.386 210.506 414.832 189.34 396.639 203.154C396.639 203.154 402.614 191.211 411.998 192.919C421.406 194.628 422.386 210.506 422.386 210.506Z" fill="#F2A686"/>
<path d="M423.397 209.081C423.397 209.081 415.859 187.932 397.634 201.745C397.634 201.745 403.609 189.786 413.001 191.503C422.385 193.211 423.397 209.081 423.397 209.081Z" fill="#CD5425"/>
<path opacity="0.5" d="M426.369 236.344C421.276 207.251 392.566 202.976 384.922 237.526C381.959 250.943 386.096 264.416 402.905 266.473C409.164 267.226 416.402 260.319 428.142 264.392C428.142 264.392 426.369 261.404 420.41 261.088C420.41 261.088 429.705 255.534 426.369 236.344Z" fill="#F2A686"/>
<path opacity="0.5" d="M306.247 207.259C334.253 179.778 353.134 210.231 345.167 235.356C337.273 260.206 314.157 257.542 303.372 246.983C292.587 236.425 279.973 236.886 279.973 236.886C279.973 236.886 287.843 234.408 294.952 238.02C294.952 238.02 291.316 221.931 306.247 207.259Z" fill="#F2A686"/>
<mask id="mask0_504_2089" style="mask-type:luminance" maskUnits="userSpaceOnUse" x="294" y="196" width="54" height="58">
<path d="M297.802 220.344C305.073 204.077 320.255 192.434 332.319 197.211C344.391 202.004 353.831 224.976 343.047 240.651C333.897 253.995 320.991 255.842 310.15 251.186C307.3 247.097 302.239 241.348 294.904 238.141C294.199 233.834 294.45 227.826 297.802 220.344Z" fill="white"/>
</mask>
<g mask="url(#mask0_504_2089)">
<path d="M332.724 199.543C354.487 207.292 347.087 258.676 315.437 251.769C277.796 243.542 308.531 190.952 332.724 199.543Z" fill="white"/>
<path opacity="0.5" d="M332.724 202.523C317.129 196.984 298.855 216.854 297.868 233.866C296.685 216.296 316.231 193.689 332.724 199.543C341.573 202.701 345.605 213.057 345.128 223.786C344.804 214.158 340.739 205.365 332.724 202.523Z" fill="#D5D7D8"/>
<path d="M314.264 223.826C311.098 234.644 314.029 244.887 320.814 246.7C327.615 248.53 335.687 241.219 338.853 230.393C342.035 219.583 339.104 209.332 332.311 207.519C325.534 205.705 317.454 213.008 314.264 223.826Z" fill="#462D1B"/>
<path d="M316.385 224.644C313.786 233.535 316.191 241.963 321.769 243.461C327.348 244.943 333.995 238.951 336.611 230.053C339.201 221.138 336.813 212.717 331.226 211.235C325.648 209.729 318.992 215.737 316.385 224.644Z" fill="#63442F"/>
<path d="M319.875 225.583C318.231 231.162 319.729 236.458 323.243 237.397C326.733 238.304 330.902 234.547 332.538 228.976C334.149 223.405 332.667 218.126 329.17 217.179C325.656 216.247 321.494 220.012 319.875 225.583Z" fill="#170000"/>
<path d="M329.542 220.385C329.736 223.016 331.202 225.154 332.838 225.138C334.489 225.105 335.663 222.943 335.469 220.304C335.291 217.64 333.809 215.535 332.165 215.551C330.554 215.583 329.364 217.753 329.542 220.385Z" fill="white"/>
<path d="M332.425 230.231C332.125 231.373 332.425 232.458 333.153 232.636C333.874 232.822 334.716 232.053 335.04 230.911C335.356 229.77 335.04 228.684 334.335 228.498C333.615 228.312 332.773 229.089 332.425 230.231Z" fill="white"/>
</g>
<mask id="mask1_504_2089" style="mask-type:luminance" maskUnits="userSpaceOnUse" x="385" y="213" width="43" height="52">
<path d="M406.088 213.081C423.439 212.879 430.871 240.344 425.633 252.393C423.811 256.53 421.933 259.243 420.232 261.072C416.362 260.749 410.144 261.202 401.918 264.838C397.732 264.287 391.683 262.093 387.684 254.635C381.028 242.271 388.744 213.276 406.088 213.081Z" fill="white"/>
</mask>
<g mask="url(#mask1_504_2089)">
<path d="M409.108 215.511C428.483 217.276 434.523 263.203 407.319 264.385C375.029 265.754 387.562 213.544 409.108 215.511Z" fill="white"/>
<path opacity="0.5" d="M409.788 218.053C395.926 216.798 385.814 238.02 388.988 252.911C383.927 238.045 394.412 214.183 409.108 215.519C416.994 216.231 422.654 224.247 424.799 233.591C422.265 225.381 416.945 218.717 409.788 218.053Z" fill="#D5D7D8"/>
<path d="M399.861 240.571C399.829 250.596 404.598 258.774 410.509 258.798C416.419 258.838 421.221 250.725 421.277 240.717C421.294 230.677 416.541 222.515 410.646 222.483C404.736 222.434 399.91 230.523 399.861 240.571Z" fill="#462D1B"/>
<path d="M401.773 240.807C401.748 249.034 405.667 255.762 410.525 255.803C415.383 255.835 419.334 249.155 419.375 240.904C419.407 232.653 415.489 225.941 410.631 225.9C405.773 225.876 401.813 232.54 401.773 240.807Z" fill="#63442F"/>
<path d="M404.817 240.83C404.792 245.996 407.254 250.215 410.29 250.231C413.342 250.231 415.844 246.069 415.844 240.903C415.869 235.729 413.415 231.527 410.371 231.494C407.318 231.486 404.825 235.656 404.817 240.83Z" fill="#170000"/>
<path d="M411.423 234.158C412.184 236.393 413.86 237.907 415.188 237.51C416.484 237.121 416.945 234.992 416.176 232.749C415.391 230.522 413.723 229.024 412.403 229.413C411.091 229.794 410.654 231.923 411.423 234.158Z" fill="white"/>
<path d="M416.054 241.997C416.054 243.066 416.572 243.916 417.196 243.916C417.803 243.916 418.305 243.066 418.305 241.997C418.305 240.936 417.803 240.086 417.155 240.086C416.54 240.078 416.022 240.936 416.054 241.997Z" fill="white"/>
</g>
<path d="M312.983 255.801C312.983 255.801 312.4 253.865 310.87 251.226C310.085 249.922 309.097 248.424 307.874 246.934C307.283 246.181 306.611 245.444 305.915 244.708C305.186 244.011 304.457 243.25 303.672 242.586C302.846 241.955 302.069 241.258 301.17 240.7C300.328 240.1 299.47 239.55 298.596 239.113C297.745 238.619 296.879 238.214 296.005 237.898C295.171 237.558 294.377 237.234 293.6 237.056C292.831 236.837 292.143 236.675 291.511 236.538C290.88 236.457 290.337 236.368 289.843 236.327C288.936 236.214 288.418 236.189 288.418 236.189C288.418 236.189 288.912 236.368 289.762 236.683C290.199 236.829 290.709 236.999 291.317 237.202C291.851 237.453 292.499 237.752 293.195 238.052C293.892 238.319 294.604 238.732 295.381 239.129C296.159 239.509 296.903 239.995 297.689 240.489C298.498 240.951 299.26 241.566 300.061 242.116C300.887 242.651 301.591 243.331 302.361 243.971C303.146 244.578 303.842 245.282 304.579 245.938C305.227 246.643 305.972 247.274 306.579 247.987C307.866 249.331 308.975 250.659 309.923 251.817C310.862 252.991 311.663 253.954 312.149 254.691C312.684 255.388 312.983 255.801 312.983 255.801Z" fill="#CE7B61"/>
<path d="M425.025 262.083C425.025 262.083 424.62 261.824 423.867 261.533C423.47 261.363 422.985 261.185 422.442 261.031C421.892 260.893 421.236 260.658 420.547 260.585C419.835 260.48 419.042 260.391 418.224 260.326C417.398 260.197 416.54 260.318 415.649 260.343C414.758 260.415 413.811 260.342 412.896 260.545C411.973 260.731 411.034 260.925 410.103 261.104C409.164 261.306 408.224 261.517 407.358 261.881C406.492 262.173 405.642 262.537 404.816 262.845C403.982 263.177 403.18 263.468 402.476 263.832C401.763 264.229 401.115 264.626 400.524 264.982C399.31 265.678 398.338 266.326 397.65 266.755C396.986 267.201 396.598 267.484 396.598 267.484C396.598 267.484 397.075 267.347 397.844 267.079C398.606 266.788 399.723 266.432 400.994 265.93C401.626 265.679 402.346 265.395 403.059 265.087C403.796 264.804 404.597 264.626 405.423 264.351C406.241 264.083 407.091 263.865 407.941 263.565C408.767 263.233 409.666 263.071 410.548 262.885C411.414 262.691 412.337 262.48 413.196 262.286C414.07 262.075 414.928 262.067 415.77 261.922C416.612 261.881 417.446 261.63 418.216 261.679C418.985 261.679 419.714 261.638 420.418 261.614C421.13 261.614 421.746 261.695 422.296 261.703C422.879 261.711 423.349 261.784 423.738 261.857C424.547 261.97 425.025 262.083 425.025 262.083Z" fill="#CE7B61"/>
<path d="M426.369 92.5967C426.369 92.5967 449.939 99.7059 461.226 126.936C476.374 163.373 459.161 199.275 459.161 199.275C459.161 199.275 459.639 156.078 426.369 128.483C426.369 128.483 443.235 146.264 443.559 172.628C443.874 199.008 428.442 212.32 428.442 212.32C428.442 212.32 431.657 192.555 412.378 177.834C393.076 163.13 372.178 148.709 368.972 132.151C368.972 132.151 372.187 168.037 413.35 194.401C413.35 194.401 360.94 195.025 344.844 139.819C344.844 139.819 344.212 174.774 374.429 196.854C374.429 196.854 328.772 183.057 325.234 137.965C325.234 137.965 322.999 192.863 261.57 200.539C261.57 200.539 291.139 183.786 291.787 152.45C291.787 152.45 277.334 179.373 248.38 198.085C219.443 216.781 217.184 245.906 217.184 245.906C217.184 245.906 182.514 207.308 184.724 150.993C186.635 102.111 217.516 64.5241 263.27 68.6617C306.733 33.3019 390.534 39.5124 426.369 92.5967Z" fill="#F89A42"/>
<path opacity="0.8" d="M184.717 151.01C185.559 129.641 191.939 110.443 202.667 95.9253C167.025 163.252 214.601 223.656 214.601 223.656C217.937 206.904 236.697 184.289 263.173 168.645C289.649 152.993 292.742 133.374 292.742 133.374C304.968 167.107 287.099 184.102 287.099 184.102C329.202 162.629 323.947 118.961 323.947 118.961C329.517 156.621 347.443 169.349 347.443 169.349C331.695 141.763 343.233 120.208 343.233 120.208C354.018 166.507 387.684 180.499 387.684 180.499C349.986 145.908 365.102 113.455 365.102 113.455C365.102 113.455 368.956 129.706 401.764 148.143C434.588 166.621 432.458 179.131 432.458 179.131C440.814 139.666 406.679 113.302 406.679 113.302C450.571 126.289 463.396 163.382 463.396 163.382C463.647 113.302 426.362 92.6055 426.362 92.6055C426.362 92.6055 449.931 99.7147 461.218 126.945C476.367 163.382 459.153 199.284 459.153 199.284C459.153 199.284 459.631 156.086 426.362 128.492C426.362 128.492 443.227 146.273 443.551 172.637C443.866 199.017 428.434 212.329 428.434 212.329C428.434 212.329 431.649 192.564 412.371 177.843C393.068 163.139 372.17 148.718 368.964 132.16C368.964 132.16 372.179 168.046 413.342 194.41C413.342 194.41 360.932 195.033 344.836 139.828C344.836 139.828 344.205 174.783 374.421 196.863C374.421 196.863 328.764 183.066 325.226 137.973C325.226 137.973 322.991 192.871 261.562 200.547C261.562 200.547 291.131 183.795 291.779 152.459C291.779 152.459 277.326 179.382 248.373 198.094C219.435 216.79 217.176 245.915 217.176 245.915C217.176 245.915 182.506 207.325 184.717 151.01Z" fill="#F89A42"/>
<path opacity="0.8" d="M443.558 172.627C445.048 146.312 426.369 128.482 426.369 128.482C459.63 156.077 459.161 199.275 459.161 199.275C459.161 199.275 476.374 163.372 461.225 126.936C461.225 126.936 483.742 164.336 456.262 211.104C456.262 211.104 455.566 192.433 448.133 173.51C448.133 173.51 446.254 202.165 428.442 212.311C428.442 212.327 441.947 201.161 443.558 172.627Z" fill="#F89A42"/>
<path opacity="0.6" d="M413.78 92.5962C413.78 92.5962 403.367 62.9771 359.743 55.8436C296.678 45.5037 268.882 79.7543 268.882 79.7543C268.882 79.7543 249.312 69.4143 222.107 85.7218C198.716 99.7621 190.044 136.563 194.87 154.271C194.87 154.271 193.413 117.64 224.05 95.8512C251.539 76.3291 271.788 88.3048 271.788 88.3048C271.788 88.3048 308.847 54.3133 358.034 63.7382C398.218 71.4871 413.78 92.5962 413.78 92.5962Z" fill="#F89A42"/>
<path d="M181.283 673.658C175.178 674.962 154.353 649.059 166.013 623.238C169.664 623.424 173.227 624.347 175.129 624.946C180.02 626.469 241.74 615.942 262.768 614.695C262.768 614.695 257.869 608.404 251.125 598.388C258.136 597.489 267.504 595.4 279.204 590.841C279.309 590.817 279.414 590.744 279.544 590.712C279.771 590.631 279.997 590.534 280.192 590.453C284.807 588.55 293.381 584.688 303.996 578.291C307.777 592.007 316.602 627.116 313.736 646.023C310.149 669.869 211.661 652.055 187.906 648.363C187.906 648.363 188.845 655.059 189.185 663.262C189.177 663.318 187.59 672.282 181.283 673.658Z" fill="#EDA385"/>
<path d="M151.504 632.768C151.358 625.327 160.224 622.938 166.021 623.238C154.362 649.059 175.186 674.97 181.291 673.658C187.59 672.281 189.185 663.318 189.202 663.269C189.663 675.464 189.299 693.739 181.874 695.585C169.446 698.686 152.095 662.929 151.504 632.768Z" fill="#BD1F37"/>
<path opacity="0.5" d="M166.021 623.238C169.673 623.424 173.235 624.347 175.138 624.946C180.028 626.469 241.749 615.942 262.776 614.695C262.776 614.695 257.878 608.404 251.134 598.388C258.145 597.489 267.513 595.4 279.213 590.841C279.318 590.817 279.423 590.744 279.553 590.712C279.779 590.631 280.006 590.534 280.201 590.453C284.816 588.55 293.39 584.688 304.005 578.291C304.968 581.74 306.207 586.534 307.551 592.08C290.354 586.38 260.607 602.833 277.723 625.27C288.241 639.027 279.974 628.08 262.21 622.42C244.478 616.76 195.161 626.315 184.895 629.124C174.628 631.95 169.73 627.286 167.414 640.598C165.317 652.493 180.531 669.035 189.137 662.46C189.153 662.727 189.186 662.978 189.202 663.262C189.186 663.31 187.599 672.274 181.292 673.65C175.179 674.962 154.354 649.059 166.021 623.238Z" fill="#EDA385"/>
<path d="M188.213 593.602C199.176 595.966 210.163 599.351 221.24 599.715C227.158 623.682 233.425 652.767 236.162 675.026C238.729 695.762 247.424 765.195 247.424 765.195L275.617 756.725C275.617 756.725 290.385 755.632 258.946 777.065C240.712 789.47 229.725 791.883 223.709 791.737C224.673 782.773 226.17 776.223 225.847 768.053C225.474 758.158 219.637 754.612 207.815 728.418C195.954 702.208 199.209 666.152 191.76 652.006C185.015 639.156 172.927 608.5 164.077 586.314C171.332 590.144 179.939 591.837 188.213 593.602Z" fill="#F6BA9E"/>
<path d="M293.098 766.943C303.51 758.336 310.627 760.255 311.42 762.894C310.052 772.554 295.413 785.793 265.043 798.959C242.283 808.805 231.66 811.064 226.818 809.007C243.497 809.995 279.131 778.416 293.098 766.943Z" fill="#710803"/>
<path d="M223.175 797.671C223.321 795.55 223.491 793.591 223.71 791.736C229.718 791.882 240.713 789.477 258.947 777.064C290.386 755.64 275.618 756.725 275.618 756.725C280.443 749.729 299.462 746.377 307.535 753.486C309.575 755.291 311.858 759.639 311.413 762.894C310.62 760.255 303.503 758.336 293.09 766.943C279.124 778.417 243.49 809.995 226.811 809.007C223.054 807.38 222.844 803.08 223.175 797.671Z" fill="#BD1F37"/>
<path opacity="0.6" d="M188.214 593.602C199.08 595.942 210.01 599.286 220.981 599.683C222.042 603.537 222.803 606.371 223.086 607.278C213.265 602.533 186.538 596.25 187.177 610.776C187.979 628.848 198.448 643.31 202.043 656.524C205.654 669.755 211.71 716.758 227.515 749.122C232.478 759.203 233.733 761.51 232.413 770.676C231.086 779.875 237.207 783.948 258.234 768.701C263.926 764.563 266.646 761.486 267.561 759.138L275.609 756.725C275.609 756.725 290.377 755.632 258.938 777.065C240.704 789.47 229.717 791.883 223.701 791.737C224.665 782.773 226.163 776.223 225.839 768.053C225.467 758.158 219.629 754.612 207.808 728.418C195.946 702.208 199.201 666.152 191.752 652.006C185.007 639.156 172.919 608.5 164.069 586.314C171.332 590.144 179.939 591.837 188.214 593.602Z" fill="#F6BA9E"/>
<path d="M310.595 336.852C323.873 339.896 350.147 349.119 379.578 377.111C379.578 377.111 370.64 398.495 341.233 414.146C341.233 414.146 321.695 398.033 310.125 371.977C304.304 358.876 299.826 335.176 310.595 336.852Z" fill="#00C0ED"/>
<path opacity="0.5" d="M310.595 336.852C313.518 337.54 317.129 338.504 321.226 339.929C322.319 345.734 324.246 351.864 326.351 356.617C337.945 382.681 357.466 398.786 357.466 398.786C362.624 396.041 367.142 393.135 371.093 390.171C365.166 397.402 355.661 406.462 341.233 414.146C341.233 414.146 321.695 398.033 310.125 371.977C304.304 358.876 299.826 335.176 310.595 336.852Z" fill="#00C0ED"/>
<path d="M303.033 348.981C300.296 366.471 275.771 366.309 266.857 353.58C259.456 342.981 255.465 327.5 255.465 327.5C256.25 325.046 262.501 329.03 262.501 329.03C272.063 333.329 275.213 349.119 286.483 349.572C297.737 350.026 294.191 333.629 294.191 333.629L295.122 332.787C295.074 332.989 295.001 333.192 294.944 333.402C294.944 333.402 298.774 331.232 301.446 335.378C301.446 335.394 304.709 338.147 303.033 348.981Z" fill="#C33D3E"/>
<path d="M192.099 381.475C192.099 381.475 215.79 340.009 236.129 325.014C242.793 325.524 249.319 326.334 255.472 327.5C255.472 327.5 259.464 342.981 266.864 353.58C275.779 366.301 300.303 366.471 303.04 348.981C304.716 338.147 301.453 335.394 301.453 335.394C301.453 335.394 304.781 335.54 310.602 336.86C332.917 354.819 328.221 401.725 328.221 401.725C328.221 401.725 321.371 461.53 298.538 498.647C298.538 498.647 232.607 517.942 146.944 468.153C146.944 468.153 170.546 407.847 192.099 381.475Z" fill="#75D0F2"/>
<path opacity="0.7" d="M192.1 381.475C192.1 381.475 215.791 340.009 236.13 325.014C242.793 325.524 249.319 326.334 255.472 327.5C255.472 327.5 255.804 329.038 256.323 330.447C253.894 355.677 247.878 368.139 223.28 377.329C190.918 488.793 264.881 496.056 290.442 500.315C270.346 503.651 214.859 507.602 146.937 468.137C146.937 468.137 170.546 407.847 192.1 381.475Z" fill="#75D0F2"/>
<path d="M184.384 377.67C165.284 381.872 164.936 379.969 155.26 379.969C155.26 379.969 143.22 361.119 146.605 324.772C146.605 324.772 191.42 317.614 226.899 321.217C235.862 322.132 245.53 330.326 240.332 345.784C234.292 363.735 205.2 373.079 184.384 377.67Z" fill="#00C0ED"/>
<path opacity="0.5" d="M152.378 366.618C162.021 366.618 162.377 368.537 181.493 364.335C202.302 359.743 231.426 350.391 237.433 332.44C238.016 330.748 238.373 329.153 238.591 327.639C241.733 331.752 243.02 337.784 240.34 345.776C234.3 363.735 205.209 373.079 184.392 377.662C165.292 381.865 164.944 379.962 155.268 379.962C155.268 379.962 149.649 371.152 147.18 353.954C149.657 362.359 152.378 366.618 152.378 366.618Z" fill="#00C0ED"/>
<path d="M255.594 595.393C310.975 583.352 332.893 582.826 332.893 582.826C332.893 582.826 318.821 596.761 237.774 601.045C210.512 602.486 189.728 600.599 174.166 597.458C184.797 599.482 216.244 603.919 255.594 595.393Z" fill="#006D5D"/>
<path d="M160.418 475.475C215.613 503.725 261.1 503.83 283.488 501.296L280.168 509.15C280.168 509.15 312.684 546.648 332.893 582.834C332.893 582.834 310.976 583.352 255.594 595.4C216.245 603.926 184.797 599.489 174.158 597.465C173.915 597.432 173.664 597.368 173.446 597.319C173.324 597.295 173.203 597.271 173.081 597.246C143.188 591.012 132.922 580.21 132.922 580.21C132.922 580.21 131.221 519.093 160.418 475.475Z" fill="#00897A"/>
<path opacity="0.7" d="M160.418 475.475C215.613 503.725 261.1 503.83 283.488 501.296L280.168 509.15C280.168 509.15 283.633 513.183 288.993 519.814C288.993 519.814 253.789 507.158 212.666 507.158C176.927 507.158 161.479 531.466 193.647 599.894C184.789 599.262 178.053 598.202 174.158 597.457C173.915 597.424 173.664 597.36 173.446 597.311C173.324 597.287 173.203 597.262 173.081 597.238C143.188 591.003 132.922 580.202 132.922 580.202C132.922 580.202 131.221 519.093 160.418 475.475Z" fill="#00897A"/>
<path d="M376.963 381.937C380.898 385.873 389.756 394.48 394.679 396.836C401.124 399.88 410.127 368.893 410.127 368.893C410.127 368.893 396.12 358.286 402.711 344.683C406.888 336.092 417.511 339.169 417.438 339.104C417.398 339.064 417.511 339.177 417.511 339.177C417.511 339.177 417.487 339.153 417.438 339.104C416.847 338.472 412.273 333.379 415.584 326.529C419.131 319.242 428.142 319.461 429.413 325.023C429.413 325.023 443.234 316.991 444.53 331.436C444.53 331.436 457.703 324.448 456.731 338.561C456.731 338.561 465.103 335.792 462.528 348.067C459.962 360.334 451.703 381.387 434.773 375.46C434.773 375.46 430.385 415.524 404.969 425.338C385.837 432.722 365.425 413.986 356.511 404.269C367.506 395.71 373.821 387.111 376.963 381.937Z" fill="#F6BA9E"/>
<path opacity="0.6" d="M376.963 381.938C377.473 382.456 378.072 383.047 378.712 383.687C370.081 393.452 365.101 412.634 392.112 417.978C422.839 424.034 428.677 377.816 427.753 373.97C426.839 370.132 448.862 379.298 461.152 353.42C457.549 365.525 449.404 380.578 434.765 375.452C434.765 375.452 430.377 415.516 404.961 425.33C385.829 432.715 365.417 413.978 356.503 404.261C367.506 395.711 373.822 387.112 376.963 381.938Z" fill="#F6BA9E"/>
<path d="M411.561 338.692C413.706 338.951 415.86 339.161 417.997 339.461C420.119 339.712 422.224 340.012 424.378 340.376C426.499 340.692 428.62 341.056 430.709 341.518L433.859 342.101C434.895 342.352 435.891 342.619 436.854 342.967C437.818 343.299 438.749 343.72 439.462 344.222C439.802 344.497 440.109 344.764 440.174 345.024C440.304 345.267 440.223 345.485 440.109 345.777C439.769 346.384 438.887 347.113 438.101 347.412C437.251 347.793 436.255 348.141 435.268 348.408C434.272 348.667 433.179 348.918 432.223 349.121C431.154 349.267 430.061 349.509 429.049 349.566C427.025 349.793 424.839 349.817 422.693 349.866C422.248 349.866 421.884 350.246 421.892 350.675C421.892 350.991 422.062 351.258 422.329 351.372L422.37 351.388L423.495 351.955C423.867 352.157 424.151 352.416 424.507 352.659C424.831 352.918 425.074 353.234 425.373 353.526C425.624 353.858 425.827 354.206 426.062 354.554L426.531 355.696C426.62 356.1 426.742 356.513 426.798 356.918C426.936 357.76 426.968 358.594 426.904 359.461C426.839 360.303 426.677 361.161 426.475 362.011C426.24 362.87 425.989 363.704 425.649 364.53C424.936 366.141 424.037 367.712 422.815 369.072C423.487 368.465 424.135 367.801 424.677 367.064C425.252 366.343 425.738 365.574 426.183 364.764C426.637 363.955 426.985 363.112 427.325 362.254L427.689 360.934L427.964 359.558C428.07 358.651 428.094 357.704 428.029 356.764C427.964 356.311 427.859 355.833 427.794 355.372C427.632 354.902 427.47 354.44 427.3 353.995C427.049 353.558 426.839 353.129 426.572 352.708C426.24 352.335 425.932 351.922 425.568 351.574C425.171 351.266 424.815 350.926 424.378 350.635L423.033 349.93L422.702 351.453C424.888 351.469 427.033 351.542 429.292 351.323C430.434 351.258 431.478 351.024 432.531 350.886C433.689 350.675 434.701 350.441 435.778 350.165C436.863 349.882 437.899 349.542 439 349.007C440.15 348.449 441.016 347.809 441.761 346.594C441.923 346.303 442.028 345.906 442.093 345.542C442.093 345.153 442.093 344.716 441.907 344.376C441.623 343.639 441.081 343.218 440.587 342.821C439.567 342.109 438.498 341.728 437.446 341.364C435.259 340.667 433.13 340.343 430.992 340.068C428.823 339.736 426.693 339.469 424.539 339.275L421.317 338.943L418.054 338.797C415.884 338.692 413.722 338.659 411.561 338.692Z" fill="#DD8E6F"/>
<path d="M459.953 338.4C459.953 338.4 459.152 338.473 457.792 338.668C457.087 338.757 456.286 339 455.298 339.234C454.351 339.404 453.339 339.931 452.221 340.376C451.185 340.975 450.003 341.558 448.877 342.336C447.752 343.072 446.553 343.842 445.363 344.724C443.031 346.489 440.473 348.74 439.242 351.866C438.651 353.428 438.465 355.145 438.675 356.724C438.829 357.599 439.161 358.522 439.849 359.21C440.546 359.914 441.461 360.271 442.319 360.408C442.764 360.457 443.145 360.513 443.614 360.489C443.987 360.457 444.311 360.457 444.748 360.36C445.59 360.19 446.254 359.947 446.934 359.663C448.229 359.088 449.355 358.368 450.294 357.607C451.274 356.74 451.938 356.06 452.456 355.161C452.998 354.344 453.379 353.631 453.695 353.048C454.407 351.906 454.804 351.259 454.804 351.259C454.804 351.259 454.682 351.396 454.44 351.663C454.197 351.939 453.824 352.319 453.379 352.854C452.982 353.372 452.513 354.052 451.889 354.724C451.379 355.404 450.432 356.149 449.654 356.773C448.699 357.412 447.622 357.987 446.392 358.416C445.809 358.619 445.145 358.781 444.57 358.829C444.286 358.894 443.906 358.886 443.542 358.894C443.299 358.91 442.934 358.829 442.651 358.813C442.044 358.667 441.55 358.416 441.185 358.036C440.837 357.623 440.659 357.088 440.546 356.514C440.384 355.145 440.554 353.76 441.064 352.497C442.028 349.874 444.27 347.769 446.456 345.947C447.598 345.064 448.675 344.19 449.744 343.38C450.748 342.538 451.833 341.914 452.756 341.242C453.792 340.773 454.683 340.125 455.565 339.834C456.439 339.502 457.2 339.153 457.889 338.991C459.192 338.635 459.953 338.4 459.953 338.4Z" fill="#DD8E6F"/>
<path d="M447.891 330.271C447.891 330.271 447.624 330.288 447.13 330.32C446.62 330.417 445.948 330.417 445.138 330.709C444.312 330.952 443.332 331.284 442.433 331.802C441.964 332.029 441.47 332.304 441.025 332.62C440.563 332.968 440.11 333.267 439.665 333.624C439.268 334.012 438.871 334.401 438.466 334.773C438.037 335.154 437.786 335.624 437.454 336.02C436.766 336.814 436.361 337.696 435.989 338.417C435.616 339.154 435.495 339.85 435.357 340.296C435.236 340.749 435.203 341.024 435.203 341.024C435.203 341.024 435.398 340.822 435.713 340.458C436.045 340.101 436.41 339.551 436.944 338.976C437.211 338.684 437.495 338.401 437.778 338.053C438.053 337.705 438.426 337.389 438.741 337.049C439.405 336.344 440.175 335.68 440.944 335.008C441.324 334.652 441.737 334.36 442.142 334.069C442.531 333.729 442.911 333.437 443.324 333.178C443.721 332.887 444.118 332.62 444.482 332.36C444.863 332.142 445.219 331.899 445.551 331.697C446.19 331.235 446.854 330.968 447.235 330.701C447.656 330.417 447.891 330.271 447.891 330.271Z" fill="#DD8E6F"/>
<path d="M431.51 350.197C431.51 350.197 431.405 350.392 431.332 350.748C431.267 350.918 431.195 351.128 431.195 351.404C431.162 351.647 431.097 351.946 431.138 352.294C431.138 352.934 431.243 353.703 431.616 354.489C431.81 354.885 431.996 355.29 432.312 355.647C432.603 356.019 432.976 356.351 433.381 356.659C433.826 356.902 434.279 357.136 434.789 357.266C435.267 357.387 435.769 357.452 436.239 357.412C436.717 357.412 437.146 357.274 437.526 357.169C437.915 357.047 438.247 356.861 438.571 356.715C439.137 356.335 439.542 355.987 439.809 355.703C440.052 355.428 440.19 355.25 440.19 355.25C440.19 355.25 439.98 355.29 439.599 355.396C439.259 355.509 438.733 355.598 438.158 355.728C437.567 355.792 436.919 355.889 436.271 355.792C435.947 355.792 435.664 355.647 435.332 355.582C435.041 355.476 434.79 355.323 434.498 355.153C433.413 354.432 432.676 353.153 432.223 352.092C432.012 351.574 431.826 351.112 431.713 350.748C431.583 350.392 431.51 350.197 431.51 350.197Z" fill="#DD8E6F"/>
<path d="M431.989 323.963C431.989 323.963 431.681 324.076 431.155 324.23C430.644 324.424 429.9 324.74 429.114 325.242C428.305 325.736 427.438 326.416 426.613 327.25C425.746 328.076 425.001 329.072 424.337 330.125C424.054 330.675 423.738 331.218 423.519 331.809C423.26 332.36 423.131 332.967 422.977 333.566C422.799 334.716 422.774 335.849 423.058 336.781C423.139 337.258 423.301 337.647 423.495 337.979C423.641 338.335 423.851 338.602 424.013 338.821C424.37 339.242 424.58 339.469 424.58 339.469C424.58 339.469 424.499 339.161 424.37 338.651C424.281 338.441 424.24 338.125 424.216 337.777C424.135 337.461 424.11 337.08 424.143 336.643C424.135 335.841 424.345 334.902 424.645 333.93C424.815 333.445 425.017 332.967 425.236 332.473C425.438 331.979 425.746 331.509 426.021 331.015C426.58 330.068 427.244 329.137 427.884 328.279C428.564 327.428 429.203 326.676 429.827 326.036C430.434 325.388 430.928 324.878 431.349 324.538C431.762 324.198 431.989 323.963 431.989 323.963Z" fill="#DD8E6F"/>
<path d="M0.435599 425.208C3.3423 409.572 20.0701 406.803 27.4624 406.803C34.8546 406.803 30.3609 399.451 68.6257 366.626C98.6158 340.918 132.832 332.407 146.224 329.93C145.471 343.573 146.864 354.512 148.807 362.634C92.2681 376.755 49.6472 415.427 49.6472 415.427C49.6472 415.427 56.5456 424.325 53.8494 435.961C50.6027 449.75 35.6643 442.77 35.6643 442.77C35.6643 442.77 39.0243 457.734 20.7096 460.179C9.50385 461.669 -2.44681 440.843 0.435599 425.208Z" fill="#F6BA9E"/>
<path d="M45.3077 437.475C45.3077 437.475 44.9435 437.402 44.2877 437.273C43.6723 437.16 42.6682 437.087 41.5185 437.119C40.3607 437.143 39.0167 437.338 37.6241 437.662C36.2234 438.002 34.7822 438.512 33.3976 439.184C32.0212 439.848 30.7258 440.674 29.6327 441.605C29.0659 442.058 28.58 442.536 28.1428 443.038C27.6651 443.508 27.3737 444.058 27.0417 444.52C26.7745 445.03 26.5154 445.467 26.3696 445.912C26.2482 446.366 26.1186 446.738 26.0781 447.054C26.0214 447.71 26.0215 448.066 26.0215 448.066C26.0215 448.066 26.1672 447.75 26.4344 447.167C26.5801 446.876 26.8312 446.593 27.0417 446.236C27.2684 445.888 27.6327 445.548 27.9322 445.135C28.329 444.803 28.6934 444.374 29.163 444.002C29.6326 443.621 30.1346 443.24 30.669 442.876C31.1953 442.479 31.8429 442.172 32.3935 441.799C33.0007 441.467 33.6163 441.119 34.2721 440.852C35.5271 440.188 36.8467 439.678 38.126 439.224C39.389 438.787 40.6199 438.415 41.6725 438.18C42.7493 437.904 43.5994 437.734 44.2795 437.645C44.9434 437.524 45.3077 437.475 45.3077 437.475Z" fill="#DD8E6F"/>
<path opacity="0.6" d="M0.435579 425.208C0.864702 423.087 1.51243 421.224 2.35448 419.564C1.22095 425.921 2.73513 432.123 7.22069 437.451C14.3539 446.009 23.2843 443.313 39.0242 433.2C54.8046 423.07 42.5789 412.026 42.5789 412.026C42.5789 412.026 43.2346 406.512 74.4311 386.423C105.611 366.342 140.67 360.213 140.986 345.784C141.131 339.242 138.881 334.902 136.379 332.108C140.297 331.112 143.674 330.4 146.24 329.922C145.487 343.565 146.88 354.505 148.823 362.626C92.2841 376.747 49.6634 415.419 49.6634 415.419C49.6634 415.419 56.5617 424.317 53.8655 435.953C50.6187 449.742 35.6803 442.763 35.6803 442.763C35.6803 442.763 39.0406 457.726 20.7259 460.171C9.50394 461.669 -2.44683 440.844 0.435579 425.208Z" fill="#F6BA9E"/>
<path d="M286.482 349.581C275.212 349.128 272.062 333.338 262.5 329.039L268.354 316.043C268.354 316.043 281.948 321.986 297.802 325.12C297.802 325.12 296.352 328.885 295.13 332.804L294.199 333.646C294.199 333.646 297.737 350.034 286.482 349.581Z" fill="#E19B7D"/>
<path d="M317.598 297.93C317.598 297.93 296.676 304.237 299.429 311.322C302.182 318.423 318.157 324.448 334.958 311.84C351.75 299.25 340.738 290.578 317.598 297.93Z" fill="white"/>
<path d="M317.598 297.93C317.598 297.93 296.676 304.237 299.429 311.322C302.182 318.423 318.157 324.448 334.958 311.84C351.75 299.25 340.738 290.578 317.598 297.93Z" fill="#F6948D"/>
<path d="M341.572 305.251C346.819 297.13 337.71 292.603 321.177 296.911C325.581 303.097 333.791 306.546 341.572 305.251Z" fill="white"/>
<path d="M311.388 300.189C305.478 302.643 297.681 306.821 299.43 311.323C301.284 316.1 309.17 320.383 319.25 318.813C318.173 312.165 315.947 305.088 311.388 300.189Z" fill="#CF5957"/>
<path d="M470.205 199.528C470.205 199.528 481.322 164.03 503.085 166.33C524.841 168.629 473.112 192.143 470.205 199.528Z" fill="#78CAF1"/>
<path d="M464.674 216.353C464.674 216.353 502.51 207.94 511.205 227.098C519.901 246.264 472.827 215.09 464.674 216.353Z" fill="#78CAF1"/>
<path d="M231.085 187.802C231.085 187.802 224.543 151.268 202.65 151.058C180.781 150.839 229.142 180.142 231.085 187.802Z" fill="#78CAF1"/>
<path d="M234.454 205.146C234.454 205.146 197.954 192.433 186.893 210.449C175.833 228.473 226.511 202.951 234.454 205.146Z" fill="#78CAF1"/>
<defs>
<radialGradient id="paint0_radial_504_2089" cx="0" cy="0" r="1" gradientUnits="userSpaceOnUse" gradientTransform="translate(413.885 250.629) rotate(168.767) scale(46.0131 44.0442)">
<stop offset="0.0011" stop-color="#EF7B63"/>
<stop offset="0.1221" stop-color="#F2907C"/>
<stop offset="0.42" stop-color="#F7BFB4"/>
<stop offset="0.6763" stop-color="#FBE2DD"/>
<stop offset="0.8779" stop-color="#FEF7F6"/>
<stop offset="1" stop-color="white"/>
</radialGradient>
<radialGradient id="paint1_radial_504_2089" cx="0" cy="0" r="1" gradientUnits="userSpaceOnUse" gradientTransform="translate(295.155 235.502) rotate(180) scale(40.4924 38.614)">
<stop offset="0.0011" stop-color="#EF7B63"/>
<stop offset="0.1221" stop-color="#F2907C"/>
<stop offset="0.42" stop-color="#F7BFB4"/>
<stop offset="0.6763" stop-color="#FBE2DD"/>
<stop offset="0.8779" stop-color="#FEF7F6"/>
<stop offset="1" stop-color="white"/>
</radialGradient>
</defs>
</svg>
