<svg width="328" height="774" viewBox="0 0 328 774" fill="none" xmlns="http://www.w3.org/2000/svg">
<path d="M141.422 168.552C141.422 168.552 122.177 157.415 81.9 230.106C81.4989 230.829 80.9605 231.469 80.4872 232.159L75.5944 152.887L60.9164 153.837L55.4092 262.528C55.4092 262.528 56.4536 279.433 69.7948 276.112C83.136 272.791 138.308 216.974 138.308 216.974L141.422 168.552Z" fill="#E6B89C"/>
<path d="M164.392 168.344H189.427V132.984H164.392V168.344Z" fill="#CC9C81"/>
<path d="M215.229 108.842C216.866 109.489 190.451 142.807 162.389 143.089C136.382 143.353 123.897 90.1853 123.89 90.1094C123.684 88.2953 119.973 55.61 119.973 39.7064C119.973 23.3475 153.719 15.1662 156.665 10.0239C159.61 4.88175 220.968 42.3335 221.459 49.8137C221.95 57.2904 217.723 94.789 217.723 94.789C217.723 94.789 229.066 88.2917 228.791 102.515C228.682 107.813 215.229 108.842 215.229 108.842Z" fill="#E6B89C"/>
<path d="M177.248 78.2611C177.143 74.6475 180.135 71.6409 183.929 71.5397C187.723 71.4385 190.882 74.2861 190.986 77.8998C191.091 81.5134 188.099 84.5235 184.305 84.6211C180.514 84.7222 177.353 81.8712 177.248 78.2611Z" fill="#1A1A1A"/>
<path d="M133.119 78.5241C133.119 75.2899 135.873 72.6699 139.269 72.6699C142.666 72.6699 145.42 75.2899 145.42 78.5241C145.42 81.7583 142.666 84.3782 139.269 84.3782C135.873 84.3782 133.119 81.7583 133.119 78.5241Z" fill="#1A1A1A"/>
<path opacity="0.43" d="M181.157 75.5279C181.125 74.4619 182.006 73.5765 183.126 73.5476C184.243 73.5187 185.175 74.3571 185.208 75.4231C185.237 76.4855 184.359 77.3745 183.238 77.4034C182.122 77.4287 181.19 76.5903 181.157 75.5279Z" fill="white"/>
<path opacity="0.43" d="M134.856 77.4435C134.856 76.5654 135.604 75.8535 136.53 75.8535C137.451 75.8535 138.199 76.5654 138.199 77.4435C138.199 78.3216 137.451 79.0335 136.53 79.0335C135.604 79.0335 134.856 78.3216 134.856 77.4435Z" fill="white"/>
<path d="M188.496 73.6829C189.999 74.0876 191.748 73.3144 192.395 71.9629C192.424 72.9277 191.94 73.8962 191.138 74.4852C191.998 74.973 193.205 74.8032 193.884 74.1057C193.826 74.9694 193.103 75.6885 192.272 76.039C191.441 76.3896 190.509 76.4438 189.602 76.4907C189.374 76.5016 189.128 76.5089 188.94 76.3896C188.698 76.2342 188.63 75.927 188.586 75.6524C188.496 75.1067 188.406 74.5611 188.315 74.0154" fill="#1A1A1A"/>
<path d="M134.875 74.5387C133.307 74.5531 131.872 73.2848 131.684 71.7129C131.348 72.703 131.503 73.8305 132.085 74.658C131.106 74.929 130 74.4303 129.574 73.5269C129.354 74.4339 129.816 75.3735 130.503 75.9589C131.189 76.5443 132.064 76.8478 132.92 77.1405C133.133 77.2128 133.368 77.2851 133.589 77.2129C133.87 77.1189 134.033 76.819 134.163 76.548C134.423 76.0095 134.683 75.471 134.944 74.929" fill="#1A1A1A"/>
<path d="M180.525 112.532C180.525 112.532 169.232 108.388 164.506 109.811C160.112 111.138 159.577 112.554 159.577 112.554C159.577 112.554 157.86 110.545 155.266 110.74C152.671 110.935 147.638 113.317 147.638 113.317C147.638 113.317 150.001 126.994 161.994 126.51C177.117 125.903 180.525 112.532 180.525 112.532Z" fill="#F44E7A"/>
<path d="M174.209 67.2926C174.209 67.2926 183.849 62.9779 189.794 64.1089C190.253 64.1957 193.382 64.987 197.707 66.9998L190.896 61.2144C190.896 61.2144 185.743 59.5775 175.188 62.1504C175.188 62.1504 171.755 64.0223 174.209 67.2926Z" fill="#754C24"/>
<path d="M149.701 67.2926C149.701 67.2926 140.06 62.9779 134.116 64.1089C133.657 64.1957 130.528 64.987 126.202 66.9998L133.014 61.2144C133.014 61.2144 138.167 59.5775 148.722 62.1504C148.722 62.1504 152.155 64.0223 149.701 67.2926Z" fill="#754C24"/>
<path opacity="0.49" d="M156.661 83.6807L156.777 97.2065C156.788 98.2942 155.368 96.8922 154.226 96.856C152.715 96.8091 151.805 99.2699 151.805 100.546C151.805 102.627 153.463 103.653 162.248 102.869C163.209 102.782 164.073 101.962 164.134 101.044C164.477 95.8984 165.012 80.7176 156.661 83.6807Z" fill="#1A1A1A"/>
<path d="M157.839 83.2578L157.684 95.8007C157.684 95.8007 152.289 95.0094 152.661 99.942C152.827 102.121 154.941 103.075 165.088 102.016C165.103 102.016 165.113 102.02 165.113 102.005C165.07 101.471 167.621 79.7924 157.839 83.2578Z" fill="#FE938C"/>
<path opacity="0.43" d="M154.168 100.058C155.624 101.041 157.525 100.98 158.934 99.8992C159.133 99.7475 159.331 99.5596 159.411 99.2922C159.628 98.5694 158.883 97.9949 158.273 97.7781C157.301 97.4348 156.242 97.1963 155.284 97.601C154.327 98.0094 153.557 99.2669 153.853 100.438" fill="white"/>
<path opacity="0.43" d="M157.933 125.725C159.87 126.694 162.277 126.462 163.997 125.14C164.228 124.963 164.47 124.695 164.401 124.399C164.307 124.002 163.787 123.98 163.408 124.052C161.29 124.461 158.967 124.956 157.077 123.828C156.751 124.573 157.149 125.577 157.875 125.855" fill="white"/>
<path opacity="0.51" d="M175.368 91.7466C174.714 93.315 175.372 95.1724 176.597 96.3902C177.825 97.608 179.52 98.2909 181.218 98.7787C187.979 100.734 195.311 100.116 202.13 98.3668C203.937 97.9043 205.772 97.3405 207.218 96.2094C208.663 95.0784 209.653 93.2572 209.263 91.5154C208.876 89.7881 207.221 88.5196 205.447 88.0029C203.673 87.4861 201.772 87.5837 199.918 87.6813C194.101 87.9993 188.279 88.3172 182.461 88.6352C179.708 88.7906 176.387 89.3074 175.368 91.7466Z" fill="#FE938C"/>
<path opacity="0.51" d="M145.445 92.2338C144.458 91.7423 143.316 91.6556 142.207 91.5581C139.096 91.2798 135.999 90.8389 132.938 90.2319C131.507 89.95 129.867 89.6717 128.714 90.5282C127.829 91.1859 127.529 92.4615 128.031 93.4155C128.349 94.019 128.927 94.4597 129.509 94.85C131.782 96.3677 134.441 97.3977 137.202 97.647C139.966 97.8964 142.832 97.3435 145.184 95.945C145.99 95.468 146.807 94.7453 146.745 93.8418C146.702 93.1336 146.106 92.5626 145.445 92.2338Z" fill="#FE938C"/>
<path d="M105.862 388.644C112.88 363.413 141.929 318.839 141.929 318.839L122.434 258.567C100.012 251.286 106.838 228.527 106.838 228.527C125.357 215.005 183.846 166.9 183.846 166.9C183.846 166.9 227.711 171.071 233.561 175.233C239.412 179.396 230.638 223.11 230.638 223.11C230.638 223.11 192.62 295.976 195.547 313.661C198.47 331.346 247.21 355.359 253.06 382.407C258.91 409.455 244.684 436.629 244.684 436.629L225.608 564.725C225.608 564.725 269.328 591.022 226.005 744.146L212.888 742.025C212.888 742.025 214.041 616.487 202.951 572.361C175.13 461.654 187.738 422.767 180.298 416.693C166.783 405.664 165.193 418.388 165.193 418.388L148.665 559.46C148.665 559.46 193.169 584.21 154.584 738.769L141.409 737.11C141.409 737.11 137.163 612.064 126.257 567.884C121.213 547.445 94.0496 431.115 105.862 388.644Z" fill="#E6B89C"/>
<path d="M180.684 112.182C180.684 112.182 162.078 116.644 147.635 113.313C147.635 113.313 157.221 131.684 180.684 112.182Z" fill="white"/>
<path d="M171.606 1.00839C171.606 1.00839 251.101 -3.99646 222.698 93.3007L217.719 94.7931C217.719 94.7931 202.087 25.2017 170.548 28.23C170.02 28.2806 154.471 27.4927 153.947 27.4385C125.173 24.6271 121.808 71.9585 121.808 71.9585C121.808 71.9585 102.628 -0.747834 171.606 1.00839Z" fill="#754C24"/>
<path d="M217.719 24.2765C217.719 24.2765 231.829 12.16 250.642 20.0631C269.454 27.9661 274.957 75.5684 270.285 103.838C265.58 132.288 285.223 128.075 285.223 128.075C285.223 128.075 251.982 147.126 243.169 135.714C229.336 117.801 242.891 38.5034 229.336 41.1378C215.782 43.7721 217.719 24.2765 217.719 24.2765Z" fill="#754C24"/>
<path d="M201.459 287.003C187.904 286.963 131.782 287.462 131.782 287.462L122.434 258.564C100.012 251.282 106.838 228.523 106.838 228.523C134.72 206.621 140.805 167.944 140.805 167.944L183.846 166.896C183.846 166.896 227.711 171.067 233.561 175.23C239.412 179.392 230.638 223.107 230.638 223.107C230.638 223.107 211.797 259.908 201.459 287.003Z" fill="#29ABE2"/>
<path d="M141.929 318.838L141.542 320.406C162.407 324.54 172.543 323.904 198.015 319.524C208.44 336.498 247.828 358.23 253.056 382.402C258.907 409.45 244.68 436.624 244.68 436.624L225.604 564.72C225.604 564.72 263.76 588.581 233.055 715.828L212.787 712.966C212.787 712.966 213.904 616.352 202.951 572.356C175.228 461.013 187.738 422.762 180.298 416.688C166.783 405.659 165.193 418.383 165.193 418.383L148.665 559.455C148.665 559.455 188.345 582.536 161.514 709.147L140.054 707.557C140.054 707.557 137.163 612.059 126.257 567.882C121.213 547.44 94.0496 431.11 105.862 388.639C112.88 363.412 141.929 318.838 141.929 318.838Z" fill="#1A4F63"/>
<path d="M169.279 758.374C169.333 759.035 169.384 759.718 169.189 760.347C168.679 761.991 166.819 762.566 165.229 762.891C162.49 763.455 85.1451 765.71 80.8631 761.377C79.0129 759.505 77.6254 757.008 77.3869 754.298C77.1484 751.588 78.1927 748.69 80.3139 747.172C83.1072 745.17 86.8363 745.922 90.1318 745.199C91.9386 744.801 128.724 724.756 138.188 725.476C141.076 725.696 144.834 730.723 147.616 731.572C150.399 732.421 154.72 733.483 156.335 730.921C157.734 728.699 157.922 725.898 159.783 724.106C161.745 722.216 163.769 722.23 165.351 724.489C166.934 726.747 167.216 729.718 167.447 732.526C168.058 739.988 168.669 750.912 169.279 758.374Z" fill="#1D93BC"/>
<path d="M78.9766 758.84L169.413 759.707C169.413 759.707 170.594 767.715 170.327 767.715L95.1978 768.04C95.1978 768.04 81.5458 765.764 78.9766 758.84Z" fill="#C6C6C6"/>
<path d="M124.196 729.081C124.196 729.081 131.023 719.125 133.592 718.691C133.592 718.691 142.38 723.595 143.999 727.205C143.999 727.205 146.799 733.612 107.74 749.96C107.48 750.068 107.22 750.177 106.956 750.289C106.956 750.289 97.7996 748.666 99.5558 740.442L124.196 729.081Z" fill="#0A5D8C"/>
<path d="M169.413 759.702L168.094 742.172C168.094 742.172 152.986 745.742 141.329 755.806L136.765 759.376L169.413 759.702Z" fill="#0A5D8C"/>
<path d="M86.0742 745.745C86.0742 745.745 78.3701 744.665 77.5571 752.56C77.5571 752.56 77.0512 755.806 78.9772 758.837L120.139 759.162C120.139 759.162 115.882 752.994 112.637 752.669C109.392 752.344 87.6389 756.846 85.2612 755.159C80.7009 751.91 86.0742 745.745 86.0742 745.745Z" fill="#0A5D8C"/>
<path d="M163.534 722.914C163.534 722.914 167.184 723.023 167.69 735.247C167.69 735.247 164.546 738.276 162.013 733.733C159.48 729.187 155.219 733.842 155.219 733.842C155.219 733.842 153.394 734.492 154.103 732.545C154.103 732.545 156.434 732.328 157.854 728.215C159.277 724.103 160.9 722.914 163.534 722.914Z" fill="#0A5D8C"/>
<path d="M131.092 739.362C131.204 739.362 131.316 739.337 131.424 739.287C131.833 739.091 132.013 738.575 131.833 738.141C128.711 730.704 124.743 728.409 124.573 728.315C124.175 728.091 123.691 728.254 123.478 728.677C123.269 729.096 123.42 729.62 123.814 729.848C123.85 729.869 127.478 732.012 130.347 738.853C130.485 739.175 130.781 739.362 131.092 739.362Z" fill="#EAEAEA"/>
<path d="M124.602 742.823C124.714 742.823 124.826 742.798 124.934 742.748C125.343 742.552 125.523 742.039 125.343 741.602C122.221 734.165 118.253 731.87 118.083 731.776C117.685 731.552 117.201 731.715 116.992 732.138C116.782 732.557 116.934 733.081 117.328 733.309C117.364 733.33 120.992 735.473 123.861 742.314C123.998 742.636 124.291 742.823 124.602 742.823Z" fill="#EAEAEA"/>
<path d="M118.112 746.284C118.224 746.284 118.336 746.259 118.444 746.208C118.852 746.013 119.033 745.5 118.852 745.063C115.73 737.626 111.763 735.331 111.593 735.237C111.195 735.013 110.711 735.176 110.502 735.599C110.292 736.018 110.444 736.542 110.838 736.77C110.874 736.791 114.502 738.934 117.371 745.775C117.508 746.096 117.801 746.284 118.112 746.284Z" fill="#EAEAEA"/>
<path opacity="0.29" d="M229.893 709.155C231.032 709.155 231.996 708.226 232.094 706.994C240.875 599.242 240.955 586.62 220.065 568.288L238.169 425.434C273.046 379.942 197.903 328.44 197.314 328.046C196.28 327.356 194.914 327.678 194.264 328.784C193.613 329.886 193.921 331.345 194.954 332.043C195.51 332.415 242.707 368.797 226.294 423.052L215.522 568.888C215.407 569.795 215.793 570.687 216.509 571.186C216.671 571.316 237.287 588.727 227.682 706.593C227.577 707.89 228.477 709.039 229.695 709.147C229.763 709.147 229.828 709.155 229.893 709.155Z" fill="white"/>
<path d="M235.968 177.405C235.968 177.405 226.016 174.507 223.302 175.475C220.588 176.44 221.943 216.992 228.278 221.82C234.612 226.648 292.061 262.857 292.061 262.857L248.181 342.996L261.298 349.754C261.298 349.754 326.44 276.372 327.343 269.13C328.246 261.888 329.605 261.888 292.512 228.578C255.419 195.267 235.968 177.405 235.968 177.405Z" fill="#E6B89C"/>
<path d="M240.82 763.464C240.874 764.125 240.925 764.808 240.73 765.437C240.221 767.081 238.36 767.656 236.77 767.981C234.031 768.545 156.686 770.799 152.404 766.467C150.554 764.595 149.166 762.098 148.928 759.388C148.689 756.677 149.734 753.779 151.855 752.262C154.648 750.26 158.378 751.011 161.673 750.285C163.48 749.887 200.265 729.843 209.729 730.565C212.617 730.786 216.375 735.812 219.157 736.662C221.94 737.511 226.261 738.573 227.877 736.011C229.275 733.789 229.463 730.988 231.324 729.196C233.286 727.306 235.313 727.32 236.892 729.579C238.472 731.837 238.757 734.808 238.988 737.616C239.599 745.078 240.21 756.002 240.82 763.464Z" fill="#29ABE2"/>
<path d="M150.518 763.926L240.954 764.793C240.954 764.793 242.135 772.801 241.868 772.801L166.739 773.126C166.739 773.126 153.087 770.85 150.518 763.926Z" fill="#E6E6E6"/>
<path d="M195.738 734.17C195.738 734.17 202.564 724.215 205.133 723.781C205.133 723.781 213.921 728.685 215.543 732.291C215.543 732.291 218.344 738.698 179.285 755.046C179.025 755.155 178.765 755.263 178.501 755.372C178.501 755.372 169.341 753.749 171.101 745.524L195.738 734.17Z" fill="#0071BC"/>
<path d="M240.954 764.792L239.635 747.262C239.635 747.262 224.527 750.832 212.87 760.896L208.306 764.466L240.954 764.792Z" fill="#0071BC"/>
<path d="M157.615 750.831C157.615 750.831 149.911 749.751 149.098 757.646C149.098 757.646 148.592 760.891 150.518 763.923L191.68 764.249C191.68 764.249 187.423 758.08 184.178 757.755C180.933 757.43 159.18 761.932 156.802 760.245C152.242 757 157.615 750.831 157.615 750.831Z" fill="#0071BC"/>
<path d="M235.075 728C235.075 728 238.725 728.108 239.231 740.337C239.231 740.337 236.087 743.365 233.554 738.823C231.021 734.277 226.76 738.931 226.76 738.931C226.76 738.931 224.936 739.582 225.644 737.634C225.644 737.634 227.974 737.417 229.395 733.305C230.815 729.193 232.441 728 235.075 728Z" fill="#0071BC"/>
<path d="M202.632 744.452C202.744 744.452 202.856 744.427 202.965 744.376C203.373 744.181 203.554 743.668 203.373 743.231C200.251 735.794 196.283 733.499 196.113 733.405C195.716 733.181 195.232 733.344 195.022 733.767C194.812 734.186 194.964 734.71 195.358 734.938C195.394 734.959 199.026 737.102 201.891 743.943C202.025 744.261 202.321 744.452 202.632 744.452Z" fill="#EAEAEA"/>
<path d="M196.143 747.913C196.255 747.913 196.367 747.888 196.475 747.837C196.884 747.642 197.064 747.125 196.884 746.692C193.761 739.255 189.794 736.96 189.624 736.866C189.227 736.642 188.742 736.805 188.533 737.228C188.323 737.647 188.475 738.171 188.869 738.399C188.905 738.42 192.533 740.563 195.402 747.404C195.536 747.722 195.832 747.913 196.143 747.913Z" fill="#EAEAEA"/>
<path d="M189.653 751.374C189.765 751.374 189.877 751.349 189.985 751.298C190.393 751.103 190.574 750.586 190.394 750.153C187.271 742.716 183.304 740.421 183.134 740.327C182.736 740.103 182.252 740.266 182.043 740.689C181.833 741.108 181.985 741.632 182.379 741.859C182.415 741.881 186.043 744.024 188.912 750.865C189.049 751.183 189.342 751.374 189.653 751.374Z" fill="#EAEAEA"/>
<path d="M250.946 395.704C250.946 395.704 256.825 398.27 266.867 382.023C268.652 379.132 263.72 379.58 263.72 379.58C263.72 379.58 265.57 375.916 264.088 374.694C262.607 373.473 260.757 374.694 260.757 374.694C260.757 374.694 262.238 371.276 260.941 369.809C259.644 368.342 247.795 373.961 247.795 373.961L250.946 395.704Z" fill="#C9987D"/>
<path d="M249.464 339.519C249.464 339.519 247.983 338.052 229.471 361.996C229.471 361.996 227.433 368.837 230.211 371.768C232.987 374.698 234.284 375.19 234.284 375.19C234.284 375.19 248.839 397.703 250.946 395.712C259.463 387.65 261.498 344.167 261.498 344.167L249.464 339.519Z" fill="#E6B89C"/>
<path d="M214.398 170.896C214.398 170.896 232.636 171.511 235.967 177.405C239.299 183.298 231.273 219.615 231.273 219.615L230.442 224.046L222.42 239.693C222.42 239.693 190.328 211.94 214.398 170.896Z" fill="#E6B89C"/>
<path d="M216.935 83.5155C210.643 63.1526 200.663 43.8306 187.567 26.655C186.035 24.6458 184.42 22.6257 182.252 21.2453C179.086 19.2289 174.866 18.8133 171.332 20.1684C167.801 21.5236 165.062 24.6132 164.249 28.1546C170.385 28.5521 175.733 32.5018 179.339 37.2465C182.946 41.9876 185.157 47.5345 187.77 52.8357C192.933 63.3044 199.806 73.007 208.067 81.4882C198.712 69.509 191.679 55.8892 187.426 41.5214C191.083 48.9402 197.205 54.9425 202.531 61.382C208.19 68.2081 213.028 75.6522 216.935 83.5155Z" fill="#754C24"/>
<path d="M131.822 44.8015C126.896 53.9368 123.576 63.8562 122.043 74.0213C121.447 64.7126 121.154 55.2593 123.333 46.1674C125.512 37.0755 130.434 28.2618 138.467 22.9245C142.344 20.348 147.009 18.6243 151.729 18.9098C156.448 19.1952 161.146 21.7609 163.064 25.8732C163.444 26.6899 163.679 27.7342 163.061 28.4027C162.537 28.9664 161.644 29.0062 160.857 29.046C156.249 29.2809 151.743 31.0696 148.321 34.0184C144.552 37.267 142.214 41.7154 139.963 46.0554C134.734 56.1229 129.509 66.1905 124.28 76.2581C127.713 61.3302 132.346 46.171 142.297 34.1846C137.354 35.8251 134.21 40.3748 131.822 44.8015Z" fill="#754C24"/>
<path d="M198.35 168.436L180.828 166.072L164.964 167.254L150.763 167.648C150.763 167.648 137.483 202.686 160.169 203.668C182.859 204.655 198.35 168.436 198.35 168.436Z" fill="#CC9C81"/>
<path d="M131.782 287.461L128.815 278.271L204.624 278.864L201.459 287.002L131.782 287.461Z" fill="#E6E6E6"/>
<path d="M219.656 24.4252C219.656 24.4252 226.573 27.8436 227.404 45.9118H233.214C233.214 45.9118 232.661 25.025 224.914 22.3906L219.656 24.4252Z" fill="#6FB07F"/>
<path d="M196.623 255.636C198.99 253.157 200.884 249.822 200.638 246.291C193.451 254.465 182.043 258.115 171.827 255.506C167.104 254.299 162.743 251.896 158.432 249.511C155.263 247.758 151.942 245.861 150.056 242.627C154.829 251.065 161.998 258.26 170.794 261.27C179.589 264.28 190.032 262.542 196.623 255.636Z" fill="#1D95BF"/>
<path opacity="0.13" d="M160.076 317.566C159.527 303.766 155.386 290.467 152.516 276.999C151.877 274.004 151.277 270.925 149.759 268.316C148.242 265.707 145.567 263.622 142.698 263.842C144.332 282.788 157.142 298.797 160.076 317.566Z" fill="#1A1A1A"/>
<path opacity="0.13" d="M224.914 99.3614C224.653 97.8762 222.843 96.9548 221.293 97.2475C219.742 97.5402 218.532 98.7652 217.903 100.146C218.774 100.507 219.367 101.407 219.331 102.31C219.295 103.214 218.63 104.066 217.733 104.363C218.929 104.843 220.455 104.384 221.145 103.34C221.835 102.296 221.607 100.785 220.639 99.9685C220.44 99.7987 220.191 99.6144 220.209 99.3614C220.234 99.0398 220.65 98.9133 220.989 98.8772C222.395 98.7254 223.826 98.7905 225.213 99.0651" fill="#1A1A1A"/>
<path opacity="0.13" d="M143.338 243.791C137.646 246.382 131.951 249.197 125.841 250.249C119.734 251.3 113.009 250.35 108.275 246.097C110.66 253.494 118.755 257.346 126.072 256.873C133.386 256.399 140.1 252.59 146.514 248.807C147.425 255.21 152.968 259.702 158.554 262.232C173.8 269.134 192.619 265.947 205.111 254.347C207.164 251.897 203.832 247.936 200.771 248.29C197.711 248.644 195.373 251.221 192.825 253.068C187.051 257.245 179.466 257.823 172.698 256.013C165.929 254.202 159.844 250.238 154.185 245.884C152.082 244.265 149.795 242.508 147.208 242.61C145.856 242.66 144.577 243.224 143.338 243.791Z" fill="#0071BC"/>
<path d="M186.425 413.692C165.944 409.175 147.67 394.366 138.091 374.527C142.698 385.426 148.639 395.681 155.71 404.954C150.033 402.327 144.653 398.981 139.71 395.013C142.817 406.371 154.157 414.447 165.174 413.157C161.658 414.595 159.302 418.307 158.33 422.188C157.354 426.072 157.546 430.166 157.745 434.181C158.186 443.082 158.623 451.978 159.064 460.879C161.196 448.043 163.324 435.211 165.456 422.375C166.016 419.008 166.804 415.253 169.5 413.399C174.349 410.057 180.89 415.466 186.425 413.692Z" fill="#0F3744"/>
<path opacity="0.19" d="M255.346 85.2893C253.464 83.9125 251.82 82.2394 250.511 80.3531C249.467 83.4608 247.772 86.3661 245.561 88.8559C242.872 78.4703 240.777 67.9475 239.284 57.3487C241.199 57.2113 242.587 58.9857 243.573 60.5504C245.879 64.2002 248.184 67.8499 250.49 71.4961C251.856 60.4058 249.583 48.9325 244.072 39.0781C248.275 42.6267 251.173 47.3281 254.002 51.9463C256.485 55.9972 258.964 60.0517 261.446 64.1026C260.94 56.879 260.431 49.6516 259.925 42.428C268.966 58.6207 272.117 77.7332 268.727 95.7869C266.426 89.0511 263.166 82.6152 259.065 76.7069C257.822 79.5689 256.582 82.4273 255.346 85.2893Z" fill="white"/>
<path opacity="0.19" d="M182.541 22.2427C186.476 22.4631 190.444 22.2355 194.321 21.5598C195.647 17.3426 195.694 12.7678 194.462 8.52539C205.212 10.4298 214.795 17.545 219.359 27.0091C215.355 25.2131 210.878 24.3856 206.459 24.6241C207.561 26.785 208.19 29.1664 208.302 31.5658C197.158 29.8277 186.075 27.7427 175.075 25.3107C175.231 23.8833 176.593 22.7993 178.046 22.4054C179.495 22.0079 181.037 22.156 182.541 22.2427Z" fill="white"/>
<path d="M75.0063 93.5857C71.624 99.6422 70.576 110.696 70.576 110.696L64.8015 82.8171C64.8015 82.8171 64.6209 79.7455 60.5737 80.1032C60.1473 80.1393 59.8148 80.2659 59.5041 80.4068C60.0967 81.5379 60.5739 82.6979 60.8883 83.8362C62.2795 88.8916 61.0905 93.1521 59.0669 97.7595C59.0236 97.8571 58.9694 97.9438 58.926 98.0377C58.8971 98.3232 58.8213 98.605 58.7815 98.8905L58.8428 99.9096L58.7092 99.3314C57.5818 106.165 53.0215 112.46 45.8631 113.894C45.2307 113.999 44.6091 114.158 43.9948 114.335C43.7888 114.433 43.5793 114.512 43.3697 114.603C41.628 115.726 39.8645 116.727 38.1336 117.497C37.8879 117.605 37.6422 117.663 37.3965 117.764C39.879 127.384 43.5396 138.575 48.1288 144.032C55.4535 152.734 60.7182 159.386 60.7182 159.386L70.623 158.996L75.4434 156.206C75.4434 156.206 80.2207 103.935 82.1467 98.5183C84.0691 93.0979 78.3886 87.5293 75.0063 93.5857Z" fill="#E6B89C"/>
<path opacity="0.49" d="M67.3528 112.814C61.0291 118.307 57.965 127.75 59.7537 136.238C57.0038 132.346 56.2087 126.969 57.7047 122.365C59.1971 117.758 62.9371 114.058 67.3528 112.814Z" fill="#1A1A1A"/>
<path opacity="0.49" d="M66.0123 113.248C64.986 113.645 63.9561 114.043 62.9298 114.444C61.1989 115.116 59.4609 115.788 57.6577 116.193C55.8798 116.594 54.0623 116.728 52.252 116.865C56.8448 114.758 61.6471 113.179 66.5506 112.156C66.7747 112.275 66.7855 112.633 66.6373 112.846C66.4928 113.056 66.2471 113.157 66.0123 113.248Z" fill="#1A1A1A"/>
<path d="M77.4808 135.097C75.1283 134.992 72.7361 135.223 70.3223 135.722C70.1958 135.747 70.0693 135.765 69.9464 135.791C69.9031 135.794 69.8671 135.805 69.8273 135.809C69.4443 133.015 69.1153 130.218 69.0358 127.382C68.9129 123.016 69.2996 118.669 69.7405 114.322C69.9717 113.194 70.1634 112.038 70.261 110.813C70.3007 110.43 70.3006 110.043 70.3295 109.66L70.5825 110.697C70.5825 110.697 71.6305 99.6398 75.0128 93.587C78.395 87.5305 84.0755 93.0991 82.1459 98.5159C81.0402 101.606 79.0165 119.92 77.4808 135.097Z" fill="#E6B89C"/>
<path d="M57.9463 83.3518C57.9463 83.3518 61.5417 79.1058 64.5843 81.9352C64.5843 81.9352 69.1483 104.73 68.4581 105.673C67.7679 106.616 65.2781 108.662 62.3728 106.931L57.9463 83.3518Z" fill="#E6B89C"/>
<path d="M77.727 112.86C77.727 112.86 53.7765 106.251 75.9672 81.9453L46.0832 82.3718C46.0832 82.3718 67.5585 105.185 43.1924 112.856" fill="#FFD524"/>
<path d="M28.0475 9.67712L93.0694 8.82422C93.0694 8.82422 110.555 89.5095 62.3689 90.9044C10.7783 92.3968 28.0475 9.67712 28.0475 9.67712Z" fill="#FFD524"/>
<path d="M30.6065 125.411H90.302C90.302 125.411 91.9968 113.941 58.4198 113.684C30.4365 113.471 30.6065 125.411 30.6065 125.411Z" fill="#FFD524"/>
<path d="M35.3255 72.6707C19.7548 63.9655 -1.44937 42.3921 1.17045 30.4382C1.86425 27.2654 4.43337 23.341 12.712 22.6905C23.2129 21.8666 29.5618 23.6554 32.1202 28.1652C35.3254 33.8134 30.6749 40.6684 30.1328 41.4309L25.9593 38.4713L28.0479 39.9529L25.9555 38.4786C26.8372 37.221 29.0416 33.0906 27.6648 30.6839C26.2628 28.2266 20.9544 27.1679 13.1094 27.7931C8.97554 28.1183 6.63759 29.3758 6.16421 31.5332C4.32853 39.9168 23.0323 59.9363 37.8189 68.2043L35.3255 72.6707Z" fill="#FFD524"/>
<path d="M85.3076 72.6707C100.878 63.9655 122.083 42.3921 119.463 30.4382C118.765 27.2654 116.2 23.341 107.921 22.6905C97.4202 21.8666 91.0712 23.6554 88.5092 28.1652C85.304 33.8134 89.9546 40.6684 90.4966 41.4309L94.6703 38.4713L92.5817 39.9529L94.6739 38.4786C93.7922 37.221 91.5878 33.0906 92.9646 30.6839C94.3666 28.2266 99.675 27.1679 107.52 27.7931C111.657 28.1183 113.992 29.3758 114.465 31.5332C116.301 39.9168 97.5972 59.9363 82.8105 68.2043L85.3076 72.6707Z" fill="#EFA90C"/>
<path d="M72.5671 9.19288L93.2691 8.82422C93.2691 8.82422 110.755 89.5095 62.5684 90.9044C88.1522 69.3707 72.2347 8.53881 72.5671 9.19288Z" fill="#EFA90C"/>
<path d="M69.8678 89.8379C69.8678 89.8379 61.9901 101.535 70.7204 108.918C70.8541 109.03 71.147 111.74 71.2879 111.852C71.2879 111.852 89.6627 114.57 90.2987 125.41H79.4219C79.4219 125.41 80.4518 113.406 67.0564 112.528C58.3875 111.961 65.564 93.6864 59.7354 91.9085L69.8678 89.8379Z" fill="#EFA90C"/>
<path opacity="0.6" d="M31.4551 38.6728C30.1289 38.6728 29.0051 37.6501 28.9075 36.3022C28.0366 24.529 30.5697 13.7965 30.6781 13.3448C31.0069 11.9716 32.391 11.1225 33.7605 11.4549C35.1337 11.7838 35.9828 13.1642 35.654 14.5373C35.6287 14.6421 33.2005 24.9734 34.0135 35.9264C34.1183 37.3357 33.0596 38.5608 31.6503 38.6656C31.5816 38.6692 31.5201 38.6728 31.4551 38.6728Z" fill="white"/>
<path opacity="0.6" d="M51.9225 87.28C51.619 87.28 51.3118 87.2258 51.0119 87.1102C28.9404 78.6904 28.6875 46.8435 28.6875 45.492C28.6875 44.079 29.833 42.9372 31.2459 42.9336C32.6588 42.9336 33.8005 44.0791 33.8041 45.4884C33.8041 45.7848 34.0644 75.1672 52.8367 82.3258C54.1557 82.8281 54.8169 84.3096 54.3147 85.6286C53.9244 86.6512 52.956 87.28 51.9225 87.28Z" fill="white"/>
<path d="M93.1279 119.756H28.46V140.437H93.1279V119.756Z" fill="#754C24"/>
<path d="M64.5595 30.9102L65.676 57.8896L58.944 58.1678L58.3441 43.7025C58.2574 41.6138 58.1564 40.3598 58.0371 39.9442C57.9215 39.5251 57.6324 39.218 57.1734 39.0192C56.7145 38.8205 55.7063 38.7554 54.1525 38.8169L53.4875 38.8458L53.3574 35.6983C56.5843 34.8635 58.9945 33.3205 60.5953 31.0728L64.5595 30.9102Z" fill="#EFA90C"/>
<path d="M76.2123 123.666H45.6562V135.887H76.2123V123.666Z" fill="#CCCCCC"/>
<path d="M76.2123 123.666L45.6562 135.887H76.2123V123.666Z" fill="#AAAAAA"/>
<path d="M42.1159 111.939C42.1159 111.939 42.0291 117.949 36.999 117.949C36.999 117.949 42.2892 119.272 42.2892 124.161C42.2892 124.161 43.2721 118.39 47.1458 118.065C47.2578 118.054 42.1159 117.743 42.1159 111.939Z" fill="white"/>
<path d="M86.4607 13.0156C86.4607 13.0156 86.3741 19.0251 81.3477 19.0251C81.3477 19.0251 86.6343 20.3477 86.6343 25.2405C86.6343 25.2405 87.6172 19.4696 91.4909 19.1444C91.5993 19.1336 86.4607 18.8227 86.4607 13.0156Z" fill="white"/>
<path d="M81.1126 24.9551C81.1126 24.9551 81.0583 28.6916 77.9326 28.6916C77.9326 28.6916 81.2208 29.5155 81.2208 32.5545C81.2208 32.5545 81.8315 28.9662 84.2418 28.7638C84.3104 28.7566 81.1126 28.5651 81.1126 24.9551Z" fill="white"/>
<path d="M47.7529 96.3182C47.7529 96.3182 48.8693 90.8688 52.8984 91.8915C52.8984 91.8915 67.8441 109.7 67.6887 110.86C67.5333 112.02 66.3301 115.008 62.9515 114.885L47.7529 96.3182Z" fill="#E6B89C"/>
<path d="M40.5078 98.273C40.5078 98.273 41.1329 91.0674 46.1919 94.5582C46.1919 94.5582 58.6693 114.173 58.3658 115.304C58.0622 116.435 56.476 119.239 53.1407 118.672L40.5078 98.273Z" fill="#E6B89C"/>
<path d="M36.3876 106.671C36.3876 106.671 34.1146 99.0032 40.2973 101.439C40.2973 101.439 50.0035 116.696 49.765 117.574C49.5265 118.452 48.2942 120.634 45.7033 120.194L36.3876 106.671Z" fill="#E6B89C"/>
</svg>
