<svg width="252" height="762" viewBox="0 0 252 762" fill="none" xmlns="http://www.w3.org/2000/svg">
<path d="M16.1361 224.172C41.7218 245.942 58.1692 258.672 78.8434 272.873C80.5314 274.031 82.8564 273.205 83.4342 271.241C88.2001 258.866 92.4928 252.006 94.0602 238.923C107.152 244.412 115.187 246.426 127.442 245.425L100.514 302.155C98.9284 307.71 91.6443 311.699 84.8993 306.651C48.6444 282.617 32.8497 258.258 9.05664 231.743C15.6038 229.452 12.1073 229.44 16.1361 224.172Z" fill="#FFA89C"/>
<path d="M110.965 185.785L88.8441 239.092C87.0242 243.48 87.452 248.511 90.1318 252.43C94.3995 258.673 103.401 266.601 121.835 267.7C121.835 267.7 142.27 211.738 110.965 185.785Z" fill="#FF809E"/>
<path d="M35.1133 239.594V352.759C35.1133 355.468 38.0865 357.12 40.3865 355.691L102.662 316.987L117.289 259.083L89.4945 238.306L80.8863 257.75C79.6783 260.478 76.25 261.382 73.8546 259.602L42.1518 236.053C39.2422 233.893 35.1133 235.969 35.1133 239.594Z" fill="#FF809E"/>
<path d="M156.26 47.4709C155.387 47.4709 154.513 47.1387 153.847 46.4719L120.72 13.3348C119.386 12.0013 119.386 9.84158 120.72 8.508C122.053 7.17442 124.211 7.17442 125.545 8.508L158.671 41.6451C160.005 42.9764 160.005 45.1383 158.671 46.4719C158.007 47.1364 157.134 47.4709 156.26 47.4709Z" fill="#F75B37"/>
<path d="M109.459 74.7866C107.068 67.3996 106.51 58.4218 111.761 52.7028C115.594 48.5291 121.832 46.9225 125.023 42.239C127.298 38.905 127.58 34.6357 129.002 30.858C132.945 20.3782 145.472 15.1417 156.603 16.3115C167.737 17.4812 177.674 23.6439 186.748 30.2026C195.914 36.8273 205.272 45.0199 207.192 56.1665C208.53 63.9382 205.962 71.8327 202.845 79.0764C199.863 86.0083 196.343 92.7103 192.331 99.1029C188.177 105.718 183.347 112.138 176.802 116.401C148.045 135.123 117.532 99.7287 109.459 74.7866Z" fill="#000543"/>
<path d="M157.193 699.982C157.104 699.479 157.002 698.981 156.913 698.48L129.703 698.289C135.518 715.803 140.609 732.541 143.846 746.38C145.15 751.953 159.62 752.044 162.723 743.681C164.491 738.913 161.504 725.398 160.567 718.73C159.67 712.394 158.308 706.215 157.193 699.982Z" fill="#FBE9DC"/>
<path d="M197.422 595.593C196.903 593.558 186.698 569.062 186.216 567.137L89.6992 584.603C95.4979 604.393 114.944 653.842 129.703 698.29L211.215 698.481C204.636 662.001 206.619 631.661 197.422 595.593Z" fill="#FF809E"/>
<path d="M212.149 583.518L172.375 583.87C179.129 634.576 185.333 672.474 190.174 698.713L218.075 698.909C214.399 658.191 212.306 621.283 212.149 583.518Z" fill="#FF809E"/>
<path d="M218.073 698.907L190.172 698.711C195.707 728.717 199.458 743.468 200.202 744.624C207.457 755.887 218.615 757.573 221.52 746.217C222.933 740.696 220.56 725.032 219.477 713.881C218.983 708.824 218.519 703.843 218.073 698.907Z" fill="#FBE9DC"/>
<path d="M163.209 738.457C163.125 738.157 162.659 737.797 161.981 737.424C154.751 749.526 137.43 753.757 125.41 744.997L114.861 748.828C105.413 752.259 109.01 761.89 119.688 761.756L160.334 761.239C162.283 761.214 163.744 760.004 163.384 758.716L163.209 738.457Z" fill="#F75B37"/>
<path d="M163.243 738.392C160.552 734.614 154.121 734.569 152.66 735.099L125.409 744.998C137.43 753.758 156.013 750.494 163.243 738.392Z" fill="#FBE9DC"/>
<path d="M222.188 738.156C222.104 737.856 221.638 737.496 220.96 737.123C213.73 749.225 196.409 753.456 184.389 744.697L173.842 748.527C164.395 751.959 167.991 761.589 178.67 761.455L219.315 760.939C221.265 760.914 222.725 759.703 222.366 758.413L222.188 738.156Z" fill="#F75B37"/>
<path d="M222.224 738.087C219.533 734.309 213.102 734.264 211.642 734.794L184.391 744.694C196.411 753.453 214.992 750.19 222.224 738.087Z" fill="#FBE9DC"/>
<path d="M225.376 412.092C226.747 402.67 227.259 393.41 227.259 393.41C225.519 345.617 200.623 333.545 201.792 289.982C202.413 266.911 209.012 256.943 212.468 236.241C212.468 236.241 224.227 193.234 196.425 174.662L189.112 171.214C171.891 160.277 146.846 150.666 120.883 173.653C113.731 179.987 108.574 188.236 105.796 197.378C104.59 201.347 103.562 205.318 102.586 208.886C102.231 210.179 101.945 211.479 101.744 212.803C101.603 213.727 101.492 214.655 101.51 215.673C99.5969 240.025 107.632 269.885 103.744 316.711C100.8 352.167 99.0896 361.001 98.53 373.427C97.5154 395.932 95.1267 418.368 90.8226 440.482C84.983 470.496 80.3037 504.569 79.9761 526.962C79.7668 541.311 81.8846 554.983 85.8202 570.543C86.6437 573.801 87.5627 577.163 88.5409 580.613C88.9117 581.919 89.3053 583.259 89.6966 584.597C89.6966 584.597 137.158 580.276 152.365 584.042C180.585 591.031 212.147 583.512 212.147 583.512C211.883 520.877 218.155 456.209 225.469 412.322C225.487 412.235 225.442 412.16 225.376 412.092Z" fill="#FF809E"/>
<path d="M141.64 59.1582C135.446 64.6336 131.401 72.9765 131.447 82.3844L131.563 106.266C131.642 122.583 143.767 135.873 158.509 135.803C173.25 135.732 185.246 122.324 185.168 106.007L185.054 63.9486L141.64 59.1582Z" fill="#FFA89C"/>
<path d="M172.311 143.36L172.148 109.722C172.129 106.265 170.05 103.446 167.52 103.457L149.137 103.548C146.61 103.559 144.555 106.4 144.571 109.856L144.74 144.659L159.647 158.139L172.311 143.36Z" fill="#FFA89C"/>
<path d="M144.742 144.662L144.888 174.718C144.888 174.92 144.92 175.114 144.936 175.312L159.647 158.141L144.742 144.662Z" fill="#E8547E"/>
<path d="M144.936 175.31C145.174 178.485 147.135 180.991 149.515 180.979L167.898 180.891C170.426 180.877 172.48 178.039 172.464 174.582L172.312 143.361L144.936 175.31Z" fill="#FF809E"/>
<path d="M163.792 114.406C163.589 116.493 162.5 119.037 157.991 119.788C157.991 119.788 151.38 120.642 151.949 115.708L163.792 114.406Z" fill="white"/>
<path d="M168.796 83.2129H174.874C175.764 83.2129 176.489 84.0777 176.489 85.1359C176.489 86.1918 175.764 87.0589 174.874 87.0589H168.796C167.906 87.0589 167.181 86.1941 167.181 85.1359C167.181 84.0777 167.909 83.2129 168.796 83.2129Z" fill="#000543"/>
<path d="M137.358 83.2129H142.976C143.798 83.2129 144.469 84.0777 144.469 85.1359C144.469 86.1918 143.798 87.0589 142.976 87.0589H137.358C136.536 87.0589 135.865 86.1941 135.865 85.1359C135.865 84.0777 136.536 83.2129 137.358 83.2129Z" fill="#000543"/>
<path d="M151.302 102.818L151.539 102.174C151.716 103.637 152.558 104.946 153.882 105.376L157.115 106.427C158.227 106.789 159.239 106.2 159.836 105.239L159.901 105.603C160.304 107.806 158.557 109.72 156.694 109.115L153.461 108.063C151.528 107.438 150.511 104.968 151.302 102.818Z" fill="#FA694F"/>
<path d="M172.986 92.0478C172.986 93.8866 172.02 93.7455 170.825 93.7455C169.631 93.7455 168.664 93.8866 168.664 92.0478C168.664 90.2113 169.631 88.7207 170.825 88.7207C172.02 88.7207 172.986 90.209 172.986 92.0478Z" fill="#000543"/>
<path d="M170.825 88.7207H174.501L172.236 90.9873L170.825 88.7207Z" fill="#000543"/>
<path d="M138.916 92.0478C138.916 93.8866 139.883 93.5407 141.077 93.5407C142.271 93.5407 143.238 93.8844 143.238 92.0478C143.238 90.2113 142.271 88.7207 141.077 88.7207C139.883 88.7207 138.916 90.209 138.916 92.0478Z" fill="#000543"/>
<path d="M141.077 88.7207H137.398L139.667 90.9873L141.077 88.7207Z" fill="#000543"/>
<path d="M185.81 93.5079C190.066 93.4874 193.54 97.6292 193.563 102.761C193.588 107.893 190.157 112.069 185.899 112.089C181.64 112.11 178.169 107.968 178.144 102.836C178.121 97.7043 181.551 93.5261 185.81 93.5079Z" fill="#FFA89C"/>
<path d="M134.218 93.5079C138.477 93.4874 141.948 97.6292 141.973 102.761C141.998 107.893 138.568 112.069 134.309 112.089C130.053 112.11 126.579 107.968 126.554 102.836C126.529 97.7043 129.959 93.5261 134.218 93.5079Z" fill="#FFA89C"/>
<path d="M27.9746 209.698C26.8735 209.286 25.6314 209.889 25.2173 211.043L21.4797 221.448C21.0657 222.599 21.6299 223.88 22.731 224.295C23.8343 224.706 25.0741 224.103 25.4881 222.95L29.2257 212.545C29.6398 211.393 29.0779 210.112 27.9746 209.698Z" fill="#FFA89C"/>
<path d="M4.66989 220.256C4.5698 218.429 4.6471 216.565 5.38871 215.286C5.96198 214.296 6.87876 213.75 7.80009 213.283C10.1728 212.082 12.7275 211.269 15.4073 210.862C17.8642 210.489 20.8989 210.712 23.0259 213.461C25.0824 216.119 25.7194 219.587 25.3895 222.614C24.7617 228.353 24.4864 230.397 21.4426 233.997C17.6345 238.505 12.9914 238.886 9.24466 231.496C7.31783 227.691 4.88828 224.232 4.66989 220.256Z" fill="#FFA89C"/>
<path d="M19.8075 215.252L12.305 200.956C11.7954 199.986 12.1662 198.794 13.1262 198.305C14.0862 197.815 15.2873 198.207 15.7969 199.176L23.2996 213.472C23.8069 214.442 23.4383 215.634 22.4783 216.124C21.5183 216.613 20.3171 216.222 19.8075 215.252Z" fill="#FFA89C"/>
<path d="M14.3321 216.238L6.8294 201.942C6.31983 200.973 6.69069 199.78 7.65069 199.291C8.6107 198.802 9.81186 199.193 10.3214 200.163L17.824 214.459C18.3335 215.428 17.9628 216.621 17.0028 217.11C16.0428 217.599 14.8416 217.208 14.3321 216.238Z" fill="#FFA89C"/>
<path d="M10.121 220.902L2.6185 206.606C2.10892 205.637 2.47964 204.444 3.43965 203.955C4.39965 203.466 5.60082 203.857 6.11039 204.827L13.6129 219.123C14.1202 220.092 13.7518 221.285 12.7918 221.774C11.8318 222.263 10.6306 221.872 10.121 220.902Z" fill="#FFA89C"/>
<path d="M7.92774 226.555L0.425079 212.259C-0.0822212 211.289 0.286363 210.097 1.24637 209.607C2.20637 209.118 3.40754 209.51 3.91711 210.479L11.4196 224.775C11.9269 225.745 11.5585 226.937 10.5985 227.426C9.63849 227.916 8.43505 227.522 7.92774 226.555Z" fill="#FFA89C"/>
<path d="M192.699 81.1955C192.458 62.6573 177.38 47.7012 158.792 47.7012C140.204 47.7012 125.126 62.6596 124.885 81.1955H192.699Z" fill="#000543"/>
<path d="M156.133 29.6062C155.259 29.6062 154.386 29.274 153.721 28.6072C152.388 27.2759 152.388 25.1139 153.721 23.7803L176.493 1.00019C177.826 -0.333396 179.985 -0.333396 181.318 1.00019C182.651 2.3315 182.651 4.49345 181.318 5.82704L158.546 28.6072C157.88 29.274 157.006 29.6062 156.133 29.6062Z" fill="#F75B37"/>
<path d="M190.931 40.0178L196.755 36.338C198.052 35.5187 199.712 35.5892 200.927 36.5223C204.901 39.5786 212.793 47.6165 210.83 62.2359C210.573 64.1452 208.832 65.5129 206.912 65.3605L198.991 64.7255C197.526 64.6095 196.266 63.6423 195.77 62.2564L189.407 44.4328C188.82 42.7851 189.452 40.9509 190.931 40.0178Z" fill="#FF809E"/>
<path d="M130.681 108.224C130.681 109.462 129.677 110.468 128.437 110.468C127.2 110.468 126.194 109.465 126.194 108.224C126.194 106.986 127.198 105.98 128.437 105.98C129.677 105.98 130.681 106.984 130.681 108.224Z" fill="#000543"/>
<path d="M190.815 110.67C190.815 111.908 189.812 112.914 188.572 112.914C187.335 112.914 186.329 111.91 186.329 110.67C186.329 109.432 187.332 108.426 188.572 108.426C189.812 108.426 190.815 109.432 190.815 110.67Z" fill="#000543"/>
<path d="M105.182 331.749C103.976 331.749 102.971 330.8 102.911 329.585C98.066 229.946 142.727 174.416 143.177 173.867C143.978 172.893 145.409 172.759 146.378 173.556C147.349 174.354 147.488 175.786 146.692 176.758C146.253 177.295 102.702 231.587 107.457 329.362C107.516 330.618 106.551 331.685 105.295 331.747C105.257 331.747 105.22 331.749 105.182 331.749Z" fill="#FCA2BC"/>
<path d="M134.398 699.975C133.22 699.975 132.223 699.067 132.132 697.872C130.119 671.599 121.09 646.959 112.354 623.132C103.571 599.166 94.483 574.386 92.34 547.669C90.3245 522.536 94.5102 497.259 98.5572 472.811C99.5513 466.8 100.545 460.797 101.449 454.794C108.007 411.318 109.918 367.03 107.127 323.158C107.047 321.904 108 320.823 109.254 320.743C110.464 320.659 111.588 321.615 111.667 322.871C114.477 367.064 112.555 411.677 105.948 455.476C105.041 461.498 104.042 467.524 103.043 473.557C99.0417 497.732 94.9038 522.731 96.8738 547.307C98.9667 573.405 107.943 597.89 116.624 621.569C125.467 645.687 134.607 670.625 136.668 697.529C136.764 698.78 135.827 699.875 134.573 699.97C134.516 699.973 134.455 699.975 134.398 699.975Z" fill="#FCA2BC"/>
<mask id="mask0_504_5522" style="mask-type:luminance" maskUnits="userSpaceOnUse" x="78" y="159" width="149" height="541">
<path d="M224.293 412.367C225.665 402.946 226.177 393.686 226.177 393.686C224.436 345.893 199.54 333.82 200.709 290.258C201.33 267.186 207.93 257.219 211.385 236.516C211.385 236.516 223.144 193.509 195.343 174.937L188.029 171.489C170.808 160.552 145.764 150.942 119.803 173.929C112.65 180.262 107.493 188.512 104.716 197.653C103.51 201.622 102.484 205.594 101.506 209.162C101.151 210.454 100.864 211.754 100.664 213.078C100.523 214.002 100.412 214.931 100.43 215.948C98.5188 240.301 106.552 270.161 102.666 316.986C99.7223 352.442 98.0115 361.277 97.4518 373.702C96.4372 396.207 94.0486 418.644 89.7445 440.757C83.9049 470.772 79.2278 504.844 78.898 527.237C78.6887 541.586 80.8065 555.259 84.7421 570.818C85.5656 574.077 86.4846 577.438 87.4628 580.888C87.8336 582.194 88.2272 583.535 88.6184 584.873C94.4171 604.663 113.863 654.112 128.622 698.56L189.041 698.701C189.059 698.792 189.075 698.892 189.093 698.983L216.995 699.179C213.319 658.463 211.228 621.553 211.071 583.79C210.807 521.154 217.079 456.487 224.393 412.599C224.404 412.511 224.359 412.436 224.293 412.367Z" fill="white"/>
</mask>
<g mask="url(#mask0_504_5522)">
<path d="M204.435 154.215C180.467 167.116 156.924 188.078 155.434 217.128C154.617 233.017 160.707 248.082 165.016 263.079C170.733 282.978 170.23 300.324 158.914 318.152C150.525 331.372 139.592 342.798 132.08 356.601C125.624 368.462 121.135 381.445 119.256 394.831C117.268 408.993 118.196 423.776 123.683 437.101C129.198 450.489 138.798 459.589 149.585 468.856C163.653 480.94 174.133 495.246 177.523 513.866C180.924 532.556 175.64 548.555 168.899 565.739C161.135 585.531 155.739 621.547 184.93 626.906C213.048 632.068 226.522 601.445 229.441 579.004C231.695 561.675 231.766 543.505 225.664 526.908C220.662 513.301 212.272 501.454 203.002 490.433C189.93 474.892 174.766 461.105 163.619 444.005C151.946 426.095 142.271 400.539 154.453 380.332C166.276 360.72 195.413 369.033 200.759 389.663C203.407 399.885 199.332 413.133 189.712 418.415C183.961 421.573 177.368 420.483 172.223 416.826C169.579 414.946 167.429 412.677 166.253 409.601C165.207 408.035 164.877 406.31 165.264 404.423C164.169 399.282 167.25 398.233 174.504 401.278C170.182 401.995 172.016 408.574 176.317 407.862C184.935 406.433 187.1 394.469 180.192 389.367C170.962 382.549 159.276 392.771 158.173 402.195C156.856 413.456 166.337 423.974 176.829 426.648C189.093 429.775 200.445 421.289 205.297 410.461C216.003 386.568 194.56 357.279 168.069 362.461C132.439 369.429 141.104 418.615 153.687 440.833C173.472 475.768 213.96 498.896 222.295 540.089C226.522 560.987 225.662 592.54 211.219 609.663C204.121 618.077 191.252 624.064 180.594 618.343C170.036 612.674 167.843 598.79 169.322 588.014C171.925 569.053 183.67 552.815 185.319 533.48C186.73 516.934 182.589 499.87 173.92 485.724C163.776 469.17 145.682 460.359 135.142 444.337C124.172 427.663 123.133 406.519 127.519 387.526C132.555 365.722 144.728 349.282 157.759 331.688C169.34 316.052 177.855 299.641 175.567 279.66C172.978 257.046 159.224 235.654 162.789 212.433C166.526 188.085 187.421 171.123 207.875 160.113C211.747 158.027 208.305 152.13 204.435 154.215Z" fill="#E8547E"/>
</g>
<mask id="mask1_504_5522" style="mask-type:luminance" maskUnits="userSpaceOnUse" x="78" y="159" width="149" height="541">
<path d="M224.293 412.367C225.665 402.946 226.177 393.686 226.177 393.686C224.436 345.893 199.54 333.82 200.709 290.258C201.33 267.186 207.93 257.219 211.385 236.516C211.385 236.516 223.144 193.509 195.343 174.937L188.029 171.489C170.808 160.552 145.764 150.942 119.803 173.929C112.65 180.262 107.493 188.512 104.716 197.653C103.51 201.622 102.484 205.594 101.506 209.162C101.151 210.454 100.864 211.754 100.664 213.078C100.523 214.002 100.412 214.931 100.43 215.948C98.5188 240.301 106.552 270.161 102.666 316.986C99.7223 352.442 98.0115 361.277 97.4518 373.702C96.4372 396.207 94.0486 418.644 89.7445 440.757C83.9049 470.772 79.2278 504.844 78.898 527.237C78.6887 541.586 80.8065 555.259 84.7421 570.818C85.5656 574.077 86.4846 577.438 87.4628 580.888C87.8336 582.194 88.2272 583.535 88.6184 584.873C94.4171 604.663 113.863 654.112 128.622 698.56L189.041 698.701C189.059 698.792 189.075 698.892 189.093 698.983L216.995 699.179C213.319 658.463 211.228 621.553 211.071 583.79C210.807 521.154 217.079 456.487 224.393 412.599C224.404 412.511 224.359 412.436 224.293 412.367Z" fill="white"/>
</mask>
<g mask="url(#mask1_504_5522)">
<path d="M216.101 183.012C197.129 185.167 181.523 198.353 179.123 217.886C178.047 226.643 180.09 234.564 183.886 242.379C188.268 251.394 191.601 258.225 190.208 268.516C189.239 275.671 187.317 282.719 185.725 289.756C181.241 309.577 180.683 325.558 201.405 334.631C212.1 339.312 222.523 342.378 231.231 350.67C241.052 360.024 246.905 372.572 248.298 385.992C248.746 390.318 255.575 390.366 255.122 385.992C253.48 370.162 246.707 355.518 234.839 344.738C229.129 339.551 222.63 335.721 215.51 332.824C204.426 328.316 190.941 325.519 189.471 311.3C187.244 289.758 203.746 269.8 194.465 248.267C189.881 237.63 183.839 228.566 186.211 216.354C189.082 201.591 201.487 191.498 216.099 189.839C220.414 189.35 220.464 182.516 216.101 183.012Z" fill="#E8547E"/>
</g>
<mask id="mask2_504_5522" style="mask-type:luminance" maskUnits="userSpaceOnUse" x="78" y="159" width="149" height="541">
<path d="M224.293 412.367C225.665 402.946 226.177 393.686 226.177 393.686C224.436 345.893 199.54 333.82 200.709 290.258C201.33 267.186 207.93 257.219 211.385 236.516C211.385 236.516 223.144 193.509 195.343 174.937L188.029 171.489C170.808 160.552 145.764 150.942 119.803 173.929C112.65 180.262 107.493 188.512 104.716 197.653C103.51 201.622 102.484 205.594 101.506 209.162C101.151 210.454 100.864 211.754 100.664 213.078C100.523 214.002 100.412 214.931 100.43 215.948C98.5188 240.301 106.552 270.161 102.666 316.986C99.7223 352.442 98.0115 361.277 97.4518 373.702C96.4372 396.207 94.0486 418.644 89.7445 440.757C83.9049 470.772 79.2278 504.844 78.898 527.237C78.6887 541.586 80.8065 555.259 84.7421 570.818C85.5656 574.077 86.4846 577.438 87.4628 580.888C87.8336 582.194 88.2272 583.535 88.6184 584.873C94.4171 604.663 113.863 654.112 128.622 698.56L189.041 698.701C189.059 698.792 189.075 698.892 189.093 698.983L216.995 699.179C213.319 658.463 211.228 621.553 211.071 583.79C210.807 521.154 217.079 456.487 224.393 412.599C224.404 412.511 224.359 412.436 224.293 412.367Z" fill="white"/>
</mask>
<g mask="url(#mask2_504_5522)">
<path d="M192.399 353.045C208.494 358.992 213.801 378.791 214.661 394.307C215.782 414.518 201.585 422.05 194.954 438.789C183.936 466.589 211.103 487.71 235.123 493.042C239.403 493.991 241.232 487.412 236.939 486.458C218.094 482.276 195.311 468.476 199.945 445.536C203.007 430.371 218.351 421.577 221.021 405.811C224.645 384.414 216.162 354.573 194.214 346.464C190.088 344.937 188.309 351.534 192.399 353.045Z" fill="#E8547E"/>
</g>
<mask id="mask3_504_5522" style="mask-type:luminance" maskUnits="userSpaceOnUse" x="78" y="159" width="149" height="541">
<path d="M224.293 412.367C225.665 402.946 226.177 393.686 226.177 393.686C224.436 345.893 199.54 333.82 200.709 290.258C201.33 267.186 207.93 257.219 211.385 236.516C211.385 236.516 223.144 193.509 195.343 174.937L188.029 171.489C170.808 160.552 145.764 150.942 119.803 173.929C112.65 180.262 107.493 188.512 104.716 197.653C103.51 201.622 102.484 205.594 101.506 209.162C101.151 210.454 100.864 211.754 100.664 213.078C100.523 214.002 100.412 214.931 100.43 215.948C98.5188 240.301 106.552 270.161 102.666 316.986C99.7223 352.442 98.0115 361.277 97.4518 373.702C96.4372 396.207 94.0486 418.644 89.7445 440.757C83.9049 470.772 79.2278 504.844 78.898 527.237C78.6887 541.586 80.8065 555.259 84.7421 570.818C85.5656 574.077 86.4846 577.438 87.4628 580.888C87.8336 582.194 88.2272 583.535 88.6184 584.873C94.4171 604.663 113.863 654.112 128.622 698.56L189.041 698.701C189.059 698.792 189.075 698.892 189.093 698.983L216.995 699.179C213.319 658.463 211.228 621.553 211.071 583.79C210.807 521.154 217.079 456.487 224.393 412.599C224.404 412.511 224.359 412.436 224.293 412.367Z" fill="white"/>
</mask>
<g mask="url(#mask3_504_5522)">
<path d="M150.525 469.157C119.15 483.371 107.011 514.555 111.636 547.312C114.42 567.029 120.606 587.547 112.628 606.882C102.429 631.601 75.8994 628.948 56.7198 616.636C53.0118 614.255 49.5858 620.163 53.2757 622.53C66.6976 631.146 83.9025 636.933 99.4218 630.386C114.104 624.194 121.09 608.778 122.903 593.772C125.524 572.084 116.536 551.274 117.109 529.684C117.751 505.552 132.13 484.946 153.967 475.053C157.966 473.241 154.499 467.356 150.525 469.157Z" fill="#E8547E"/>
</g>
<mask id="mask4_504_5522" style="mask-type:luminance" maskUnits="userSpaceOnUse" x="78" y="159" width="149" height="541">
<path d="M224.293 412.367C225.665 402.946 226.177 393.686 226.177 393.686C224.436 345.893 199.54 333.82 200.709 290.258C201.33 267.186 207.93 257.219 211.385 236.516C211.385 236.516 223.144 193.509 195.343 174.937L188.029 171.489C170.808 160.552 145.764 150.942 119.803 173.929C112.65 180.262 107.493 188.512 104.716 197.653C103.51 201.622 102.484 205.594 101.506 209.162C101.151 210.454 100.864 211.754 100.664 213.078C100.523 214.002 100.412 214.931 100.43 215.948C98.5188 240.301 106.552 270.161 102.666 316.986C99.7223 352.442 98.0115 361.277 97.4518 373.702C96.4372 396.207 94.0486 418.644 89.7445 440.757C83.9049 470.772 79.2278 504.844 78.898 527.237C78.6887 541.586 80.8065 555.259 84.7421 570.818C85.5656 574.077 86.4846 577.438 87.4628 580.888C87.8336 582.194 88.2272 583.535 88.6184 584.873C94.4171 604.663 113.863 654.112 128.622 698.56L189.041 698.701C189.059 698.792 189.075 698.892 189.093 698.983L216.995 699.179C213.319 658.463 211.228 621.553 211.071 583.79C210.807 521.154 217.079 456.487 224.393 412.599C224.404 412.511 224.359 412.436 224.293 412.367Z" fill="white"/>
</mask>
<g mask="url(#mask4_504_5522)">
<path d="M181.377 547.458C183.14 536.537 181.8 524.619 172.535 517.334C164.179 510.764 153.075 511.235 145.441 518.613C136.512 527.243 132.911 541.027 133.684 553.132C134.062 559.021 135.434 564.818 137.872 570.2C142.261 579.883 149.659 587.133 146.508 598.624C142.777 612.228 132.852 622.979 133.263 637.76C133.584 649.304 139.178 660.754 148.546 667.588C157.184 673.889 169.384 675.635 178.104 668.405C184.999 662.688 186.812 652.083 180.977 644.887C175.576 638.228 163.927 637.625 159.534 645.784C155.096 654.027 162.903 661.73 171.09 660.451C175.417 659.775 173.579 653.196 169.275 653.867C180.142 652.914 180.922 656.493 171.616 664.609C167.705 666.798 163.831 667.053 159.989 665.376C154.488 664.076 150.739 661.186 147.181 656.776C140.955 649.059 138.614 638.59 141.025 628.937C144.24 616.067 154.527 605.369 154.297 591.571C154.054 576.863 140.746 566.654 140.391 551.368C140.177 542.135 142.663 531.555 149.069 524.601C154.85 518.322 164.284 518.213 170.183 524.341C175.711 530.085 175.972 538.348 174.794 545.642C174.102 549.941 180.677 551.791 181.377 547.458Z" fill="#E8547E"/>
</g>
<mask id="mask5_504_5522" style="mask-type:luminance" maskUnits="userSpaceOnUse" x="78" y="159" width="149" height="541">
<path d="M224.293 412.367C225.665 402.946 226.177 393.686 226.177 393.686C224.436 345.893 199.54 333.82 200.709 290.258C201.33 267.186 207.93 257.219 211.385 236.516C211.385 236.516 223.144 193.509 195.343 174.937L188.029 171.489C170.808 160.552 145.764 150.942 119.803 173.929C112.65 180.262 107.493 188.512 104.716 197.653C103.51 201.622 102.484 205.594 101.506 209.162C101.151 210.454 100.864 211.754 100.664 213.078C100.523 214.002 100.412 214.931 100.43 215.948C98.5188 240.301 106.552 270.161 102.666 316.986C99.7223 352.442 98.0115 361.277 97.4518 373.702C96.4372 396.207 94.0486 418.644 89.7445 440.757C83.9049 470.772 79.2278 504.844 78.898 527.237C78.6887 541.586 80.8065 555.259 84.7421 570.818C85.5656 574.077 86.4846 577.438 87.4628 580.888C87.8336 582.194 88.2272 583.535 88.6184 584.873C94.4171 604.663 113.863 654.112 128.622 698.56L189.041 698.701C189.059 698.792 189.075 698.892 189.093 698.983L216.995 699.179C213.319 658.463 211.228 621.553 211.071 583.79C210.807 521.154 217.079 456.487 224.393 412.599C224.404 412.511 224.359 412.436 224.293 412.367Z" fill="white"/>
</mask>
<g mask="url(#mask5_504_5522)">
<path d="M180.183 666.258C194.467 659.863 196.08 690.185 195.188 696.637C194.369 702.567 192.094 708.864 193.66 714.902C196.71 726.679 209.286 728.315 219.566 728.415C223.959 728.458 223.963 721.631 219.566 721.588C208.867 721.483 198.655 717.876 200.591 704.857C200.978 702.258 201.729 699.727 202.07 697.117C203.103 689.229 202.386 681.494 199.483 674.066C195.552 664.007 188.061 655.298 176.741 660.366C172.737 662.155 176.204 668.04 180.183 666.258Z" fill="#E8547E"/>
</g>
<mask id="mask6_504_5522" style="mask-type:luminance" maskUnits="userSpaceOnUse" x="78" y="159" width="149" height="541">
<path d="M224.293 412.367C225.665 402.946 226.177 393.686 226.177 393.686C224.436 345.893 199.54 333.82 200.709 290.258C201.33 267.186 207.93 257.219 211.385 236.516C211.385 236.516 223.144 193.509 195.343 174.937L188.029 171.489C170.808 160.552 145.764 150.942 119.803 173.929C112.65 180.262 107.493 188.512 104.716 197.653C103.51 201.622 102.484 205.594 101.506 209.162C101.151 210.454 100.864 211.754 100.664 213.078C100.523 214.002 100.412 214.931 100.43 215.948C98.5188 240.301 106.552 270.161 102.666 316.986C99.7223 352.442 98.0115 361.277 97.4518 373.702C96.4372 396.207 94.0486 418.644 89.7445 440.757C83.9049 470.772 79.2278 504.844 78.898 527.237C78.6887 541.586 80.8065 555.259 84.7421 570.818C85.5656 574.077 86.4846 577.438 87.4628 580.888C87.8336 582.194 88.2272 583.535 88.6184 584.873C94.4171 604.663 113.863 654.112 128.622 698.56L189.041 698.701C189.059 698.792 189.075 698.892 189.093 698.983L216.995 699.179C213.319 658.463 211.228 621.553 211.071 583.79C210.807 521.154 217.079 456.487 224.393 412.599C224.404 412.511 224.359 412.436 224.293 412.367Z" fill="white"/>
</mask>
<g mask="url(#mask6_504_5522)">
<path d="M145.274 657.018C145.274 657.255 145.274 657.491 145.274 657.728C145.274 659.515 146.844 661.224 148.687 661.142C150.536 661.06 152.099 659.642 152.099 657.728C152.099 657.491 152.099 657.255 152.099 657.018C152.099 655.232 150.529 653.522 148.687 653.604C146.837 653.686 145.274 655.104 145.274 657.018Z" fill="#E8547E"/>
</g>
<mask id="mask7_504_5522" style="mask-type:luminance" maskUnits="userSpaceOnUse" x="78" y="159" width="149" height="541">
<path d="M224.293 412.367C225.665 402.946 226.177 393.686 226.177 393.686C224.436 345.893 199.54 333.82 200.709 290.258C201.33 267.186 207.93 257.219 211.385 236.516C211.385 236.516 223.144 193.509 195.343 174.937L188.029 171.489C170.808 160.552 145.764 150.942 119.803 173.929C112.65 180.262 107.493 188.512 104.716 197.653C103.51 201.622 102.484 205.594 101.506 209.162C101.151 210.454 100.864 211.754 100.664 213.078C100.523 214.002 100.412 214.931 100.43 215.948C98.5188 240.301 106.552 270.161 102.666 316.986C99.7223 352.442 98.0115 361.277 97.4518 373.702C96.4372 396.207 94.0486 418.644 89.7445 440.757C83.9049 470.772 79.2278 504.844 78.898 527.237C78.6887 541.586 80.8065 555.259 84.7421 570.818C85.5656 574.077 86.4846 577.438 87.4628 580.888C87.8336 582.194 88.2272 583.535 88.6184 584.873C94.4171 604.663 113.863 654.112 128.622 698.56L189.041 698.701C189.059 698.792 189.075 698.892 189.093 698.983L216.995 699.179C213.319 658.463 211.228 621.553 211.071 583.79C210.807 521.154 217.079 456.487 224.393 412.599C224.404 412.511 224.359 412.436 224.293 412.367Z" fill="white"/>
</mask>
<g mask="url(#mask7_504_5522)">
<path d="M202.071 378.614C202.071 378.85 202.071 379.087 202.071 379.324C202.071 381.11 203.641 382.819 205.484 382.737C207.333 382.655 208.896 381.238 208.896 379.324C208.896 379.087 208.896 378.85 208.896 378.614C208.896 376.827 207.326 375.118 205.484 375.2C203.634 375.282 202.071 376.7 202.071 378.614Z" fill="#E8547E"/>
</g>
<path d="M206.305 334.232H105.582C102.275 334.232 99.6402 331.46 99.8063 328.156L102.377 277.234C102.532 274.157 105.073 271.74 108.153 271.74H201.15C205.247 271.74 208.687 274.822 209.14 278.893L214.295 325.302C214.822 330.065 211.094 334.232 206.305 334.232Z" fill="#FBE9DC"/>
<path d="M190.979 425.349C191.664 426.642 193.315 427.099 194.648 426.369L206.685 419.774C208.018 419.043 208.548 417.389 207.863 416.096C207.179 414.803 205.527 414.346 204.194 415.076L192.158 421.672C190.824 422.404 190.294 424.059 190.979 425.349Z" fill="#FFA89C"/>
<path d="M221.331 434.726C219.921 436.508 218.312 438.176 216.574 438.756C215.227 439.205 213.924 438.959 212.684 438.633C209.49 437.798 206.444 436.449 203.619 434.621C201.025 432.944 198.391 430.238 198.675 425.93C198.951 421.766 201.212 418.015 204.012 415.473C209.32 410.655 211.256 408.983 217.047 408.141C224.297 407.085 228.927 410.555 226.329 420.509C224.989 425.632 224.402 430.848 221.331 434.726Z" fill="#FFA89C"/>
<path d="M203.143 426.913L198.355 446.381C198.029 447.701 196.705 448.505 195.409 448.17C194.112 447.833 193.318 446.479 193.643 445.162L198.432 425.693C198.757 424.373 200.081 423.569 201.378 423.904C202.672 424.239 203.466 425.593 203.143 426.913Z" fill="#FFA89C"/>
<path d="M209.043 430.504L204.255 449.973C203.932 451.293 202.606 452.097 201.309 451.762C200.012 451.425 199.218 450.073 199.544 448.753L204.332 429.284C204.655 427.965 205.981 427.161 207.278 427.496C208.573 427.83 209.369 429.184 209.043 430.504Z" fill="#FFA89C"/>
<path d="M216.797 429.635L212.011 449.104C211.685 450.424 210.361 451.227 209.065 450.893C207.77 450.558 206.974 449.204 207.299 447.884L212.086 428.415C212.411 427.095 213.735 426.292 215.032 426.627C216.326 426.961 217.122 428.315 216.797 429.635Z" fill="#FFA89C"/>
<path d="M223.487 426.188L218.698 445.659C218.373 446.979 217.049 447.782 215.752 447.448C214.456 447.113 213.662 445.759 213.987 444.439L218.776 424.97C219.101 423.65 220.425 422.847 221.722 423.181C223.016 423.514 223.812 424.868 223.487 426.188Z" fill="#FFA89C"/>
<path d="M245.844 257.403C243.681 249.859 240.53 240.567 238.301 233.762L236.16 227.597C225.204 194.167 202.881 176.88 192.407 172.875C182.368 175.89 172.354 194.11 172.09 194.372C170.163 210.504 176.488 225.963 183.813 240.781C186.379 245.969 188.774 262.273 191.081 274.507C192.357 281.278 199.664 285.017 205.888 282.065L241.147 265.35C244.882 263.577 247.062 261.652 245.844 257.403Z" fill="#FF809E"/>
<path d="M206.806 414.769C207.036 414.507 207.229 414.22 207.47 413.965C218.487 374.586 208.899 338.779 199.752 303.301C198.48 297.582 194.201 282.887 192.153 276.695L245.82 257.217C252.793 299.056 255.134 400.136 241.327 456.235C240.29 460.452 234.694 461.321 232.462 457.598L206.806 414.769Z" fill="#FF809E"/>
<path d="M115.05 280.909C112.211 280.909 109.756 278.785 109.41 275.895C108.98 272.297 99.1619 187.492 124.607 159.416C126.72 157.092 130.312 156.91 132.639 159.022C134.966 161.132 135.144 164.73 133.035 167.058C114.795 187.185 117.95 251.47 120.705 274.541C121.078 277.661 118.851 280.492 115.732 280.865C115.502 280.895 115.275 280.909 115.05 280.909Z" fill="#FBE9DC"/>
<path d="M175.148 279.991C172.348 279.991 169.907 277.922 169.518 275.068C169.049 271.62 158.303 190.288 183.786 162.169C185.899 159.843 189.491 159.663 191.819 161.775C194.146 163.885 194.323 167.483 192.214 169.811C174.006 189.901 177.794 251.494 180.792 273.532C181.213 276.645 179.034 279.513 175.922 279.936C175.66 279.975 175.403 279.991 175.148 279.991Z" fill="#FBE9DC"/>
<path d="M234.282 461.294C234.063 461.294 233.845 461.262 233.624 461.196C225.355 458.69 205.313 418.162 204.442 411.658C203.789 406.774 205.027 401.824 206.221 397.036C206.819 394.651 207.381 392.398 207.702 390.213C213.007 354.234 201.396 317.519 191.152 285.127L190.531 283.169C184.994 265.703 179.273 247.643 181.723 229.262C181.889 228.017 183.033 227.143 184.277 227.307C185.524 227.473 186.4 228.618 186.231 229.863C183.916 247.233 189.485 264.802 194.867 281.793L195.486 283.752C205.88 316.614 217.659 353.858 212.202 390.876C211.847 393.281 211.23 395.75 210.632 398.138C209.54 402.509 208.409 407.031 208.949 411.05C209.94 418.474 229.978 455.275 234.941 456.836C236.134 457.211 236.811 458.486 236.443 459.68C236.145 460.663 235.253 461.294 234.282 461.294Z" fill="#FCA2BC"/>
</svg>
