<svg width="220" height="552" viewBox="0 0 220 552" fill="none" xmlns="http://www.w3.org/2000/svg">
<path d="M47.9547 508.757C36.437 520.213 12.6461 536.291 13.9785 546.38C15.3109 556.469 40.853 547.953 60.3993 547.953C79.9457 547.953 92.5624 547.953 92.2464 538.811C91.9305 529.67 87.8303 512.328 87.8303 512.328L47.9547 508.757Z" fill="#243354"/>
<path d="M49.3623 424.047C49.3623 441.705 49.0463 494.039 44.9461 502.871C40.8459 511.696 58.1877 508.228 65.4403 512.96C72.6929 517.692 95.7076 521.16 96.0235 513.276C96.3395 505.391 100.44 427.199 100.44 427.199L49.3623 424.047Z" fill="#EA9D57"/>
<path d="M168.192 508.757C179.71 520.213 203.5 536.291 202.168 546.38C200.836 556.469 175.294 547.953 155.747 547.953C136.201 547.953 123.584 547.953 123.9 538.811C124.216 529.67 128.316 512.328 128.316 512.328L168.192 508.757Z" fill="#243354"/>
<path d="M166.778 424.047C166.778 441.705 167.094 494.039 171.194 502.871C175.294 511.696 157.952 508.228 150.7 512.96C143.447 517.692 120.432 521.16 120.116 513.276C119.8 505.391 115.7 427.199 115.7 427.199L166.778 424.047Z" fill="#EA9D57"/>
<path d="M71.5945 80.6883C68.758 72.1719 55.2006 63.6625 59.1429 51.8358C63.0851 40.0159 69.2319 38.9103 69.2319 38.9103C69.2319 38.9103 66.2376 17.1524 86.4157 5.64853C106.594 -5.86224 129.451 1.23239 137.651 17.7843C145.851 34.3362 158.777 38.7522 160.666 47.2617C162.554 55.778 146.792 78.7927 145.769 84.4657C144.746 90.1386 75.523 80.5234 74.3485 80.3655C73.1672 80.2144 71.5945 80.6883 71.5945 80.6883Z" fill="#301C19"/>
<path d="M141.312 78.9574C144.499 75.4822 151.01 75.1731 151.717 81.0864C152.424 86.9998 143.915 103.078 136.82 94.4448" fill="#FF8883"/>
<path d="M77.3224 78.9574C74.1357 75.4822 67.6247 75.1731 66.9173 81.0864C66.2099 86.9998 74.7194 103.078 81.8141 94.4448" fill="#FF8883"/>
<path d="M75.001 63.2165C75.0422 63.6904 72.0133 120.18 108.716 120.551C145.419 120.915 145.769 61.1904 145.769 61.1904C145.769 61.1904 118.407 81.3274 75.001 63.2165Z" fill="#FFCCC2"/>
<path d="M202.451 358.465C207.492 378.011 207.115 406.376 183.502 398.498C159.89 390.621 170.295 365.717 170.295 365.717L202.451 358.465Z" fill="#842132"/>
<path d="M144.066 143.75C144.066 143.75 160.831 126.251 176.435 143.75C192.039 161.25 219.943 314.482 219.002 339.55C218.055 364.618 181.544 369.343 181.544 369.343C181.544 369.343 186.18 412.852 181.544 426.094C176.908 439.335 115.893 445.015 109.513 431.3V152.734L144.066 143.75Z" fill="#9BAECC"/>
<path opacity="0.25" d="M181.544 369.344L160.597 204.285" stroke="black" stroke-width="0.3864" stroke-miterlimit="10" stroke-linecap="round"/>
<path d="M16.5749 358.465C11.5269 378.011 11.9115 406.376 35.5237 398.498C59.1359 390.621 48.7309 365.717 48.7309 365.717L16.5749 358.465Z" fill="#842132"/>
<path d="M74.96 143.75C74.96 143.75 58.1951 126.251 42.591 143.75C26.987 161.25 -0.917715 314.482 0.0232005 339.55C0.970984 364.618 37.4813 369.343 37.4813 369.343C37.4813 369.343 32.8454 412.852 37.4813 426.094C42.1172 439.335 103.132 445.015 109.513 431.3V152.734L74.96 143.75Z" fill="#9BAECC"/>
<path d="M117.782 152.26C119.678 190.095 135.989 285.629 136.82 287.992C137.651 290.354 156.092 276.639 168.386 277.587C180.679 278.535 168.859 270.018 163.653 244.957C158.454 219.889 144.286 138.07 144.286 138.07L117.782 152.26Z" fill="#16233A"/>
<path opacity="0.25" d="M109.513 431.3V144.691" stroke="black" stroke-width="0.3864" stroke-miterlimit="10" stroke-linecap="round"/>
<path d="M78.2911 102.13C85.8597 115.846 122.981 115.818 131.024 110.276C139.066 104.733 139.581 99.5341 144.286 102.13C148.997 104.733 156.559 121.992 154.196 131.457C151.834 140.914 125.584 170.24 94.843 158.413C64.1019 146.594 62.9205 135.948 65.0496 128.62C67.1786 121.292 74.6305 101.835 78.2911 102.13Z" fill="#243354"/>
<path opacity="0.25" d="M37.4814 369.344L58.4288 204.285" stroke="black" stroke-width="0.3864" stroke-miterlimit="10" stroke-linecap="round"/>
<path opacity="0.25" d="M58.4287 360.044C58.4287 360.044 77.4324 354.996 82.7895 339.234" stroke="black" stroke-width="0.3864" stroke-miterlimit="10" stroke-linecap="round"/>
<path opacity="0.25" d="M160.597 360.044C160.597 360.044 141.6 354.996 136.236 339.234" stroke="black" stroke-width="0.3864" stroke-miterlimit="10" stroke-linecap="round"/>
</svg>
