<svg width="394" height="1020" viewBox="0 0 394 1020" fill="none" xmlns="http://www.w3.org/2000/svg">
<path d="M108.34 459.456L125.188 494.296L120.534 519.555L87.8711 476.876L108.34 459.456Z" fill="#FF8B66"/>
<path d="M131.94 486.959C131.94 486.959 121.07 497.47 117.92 504.748C114.771 512.026 110.517 535.669 110.517 535.669L131.94 587.964V486.959Z" fill="#662C33"/>
<path d="M357.111 568.648C355.665 577.254 343.151 595.844 343.297 598.346C343.443 600.851 349.227 619.243 348.523 621.476C347.819 623.709 356.606 615.212 354.62 609.718C352.634 604.223 358.679 600.934 358.679 600.934C358.679 600.934 361.013 616.41 361.923 622.215C362.835 628.023 353.983 636.193 353.983 636.193C353.983 636.193 346.757 637.976 346.353 641.436C345.948 644.896 355.867 642.551 355.867 642.551L363.905 645.052C363.905 645.052 375.047 636.029 378.632 631.625C382.217 627.221 379.332 581.825 380.301 556.472L357.111 568.648Z" fill="#FF8B66"/>
<path d="M337.179 160.563C337.179 160.563 366.591 201.845 368.333 237.671C370.075 273.497 384.882 392.615 384.882 392.615V577.476L393.592 587.068L385.753 600.575C385.753 600.575 352.864 608.731 345.791 605.299C338.719 601.864 338.719 601.864 338.719 601.864L334.586 572.25L340.461 568.766L327.396 419.522L337.179 160.563Z" fill="#0D527C"/>
<path d="M90.7906 1019.95H180.995C187.301 984.09 177.243 948.195 177.243 948.195L136.009 941.115C132.257 963.782 127.732 972.719 121.464 977.321C121.425 977.321 121.425 977.321 121.425 977.321C116.861 980.648 111.409 981.732 104.598 984.09C96.8215 986.798 92.7208 991.71 90.6722 997.047C86.6133 1007.65 90.7906 1019.95 90.7906 1019.95Z" fill="#0E3944"/>
<path d="M90.6719 997.051C112.914 999.834 161.766 1004.59 158.791 991.713C156.314 980.958 135.699 978.059 121.464 977.324C121.425 977.324 121.425 977.324 121.425 977.324C116.861 980.651 111.409 981.735 104.597 984.094C96.8247 986.801 92.724 991.713 90.6719 997.051Z" fill="#104551"/>
<path d="M277.846 1019.95H368.051C368.051 1019.95 370.914 1011.52 369.597 1002.58C368.514 995.309 364.647 987.686 354.24 984.09C346.425 981.383 340.429 980.376 335.517 975.774C330.179 970.747 326.194 961.462 322.828 941.115L281.595 948.195C281.595 948.195 271.579 984.09 277.846 1019.95Z" fill="#0E3944"/>
<path d="M369.597 1002.58C368.514 995.312 364.646 987.689 354.24 984.094C346.425 981.387 340.429 980.38 335.517 975.777C324.107 979.296 308.129 985.759 303.178 995.542C296.297 1008.96 349.021 1006.84 369.597 1002.58Z" fill="#104551"/>
<path d="M130.299 878.86C123.16 870.665 130.299 710.485 130.299 710.485C130.299 710.485 124.665 681.059 126.188 637.004C127.714 592.949 130.473 517.2 130.665 509.371C130.856 501.539 136.911 409.979 136.911 409.979L229.889 414.24L322.866 409.979C322.866 409.979 328.921 501.542 329.113 509.371C329.305 517.203 332.064 592.949 333.59 637.004C335.116 681.059 329.479 710.485 329.479 710.485C329.479 710.485 336.618 870.665 329.479 878.86C322.34 887.054 338.677 963.74 333.59 963.946C328.503 964.155 294.27 969.973 275.787 988.79L267.756 909.289C267.756 909.289 271.24 847.256 267.756 840.236C264.272 833.216 243.368 560.509 239.884 556.997C237.94 555.039 233.467 553.283 229.889 552.113C226.314 553.283 221.837 555.036 219.893 556.997C216.409 560.509 195.505 833.212 192.021 840.236C188.537 847.26 192.021 909.289 192.021 909.289L183.991 988.79C165.508 969.977 131.274 964.155 126.188 963.946C121.097 963.74 137.437 887.054 130.299 878.86Z" fill="#662C33"/>
<path d="M334.587 165.371C334.587 165.371 256.472 114.975 115.617 166.113C115.617 166.113 129.236 366.788 125.184 488.112C125.184 488.112 213.953 548.859 329.11 509.375C325.511 538.281 358.368 208.521 334.587 165.371Z" fill="#FFB878"/>
<path d="M168.585 228.436L172.449 264.784C172.449 264.784 249.1 256.074 267.781 259.558C286.459 263.042 309.635 261.3 309.635 261.3V228.436C309.635 228.436 282.393 227.042 277.749 225.882C273.105 224.722 208.435 228.669 204.77 228.436C201.101 228.206 168.585 228.436 168.585 228.436Z" fill="#EF9959"/>
<path d="M181.817 275.818C183.684 275.236 236.781 271.202 245.943 271.477C255.106 271.752 302.14 271.463 302.14 271.463V279.699C302.14 279.699 194.519 281.668 186.778 283.389C179.037 285.11 181.817 275.818 181.817 275.818Z" fill="#EF9959"/>
<path d="M119.224 480.231L178.455 492.407C178.295 400.632 190.405 329.719 190.74 321.636C191.534 302.418 178.814 145.464 178.814 145.464C160.028 143.112 115.618 166.113 115.618 166.113V333.885L120.262 391.744C120.262 391.744 119.102 398.921 115.618 434.792C115.193 439.203 114.621 445.739 119.224 480.231Z" fill="#105E99"/>
<path d="M296.911 497.345L345.792 470.166C348.014 359.549 350.436 240.766 337.179 160.564L271.722 142.165C271.722 142.165 289.072 165.372 289.943 228.439C290.194 246.392 294.072 392.985 296.911 497.345Z" fill="#105E99"/>
<path d="M115.621 166.113C115.621 166.113 37.3563 267.4 3.38729 341.435C3.38729 341.435 -6.19371 374.143 6.87129 396.984C19.9363 419.825 67.8413 479.053 67.8413 479.053L60.8733 489.854L84.3903 501.128L115.621 467.375L106.165 440.308C106.165 440.308 72.1963 367.628 70.4543 359.325C68.7123 351.02 119.23 279.706 119.23 279.706C119.23 279.706 145.11 207.67 115.621 166.113Z" fill="#0D527C"/>
<path d="M184.528 218.983C184.528 218.983 166.564 152.136 153.057 138.2C153.057 138.2 199.788 124.191 238.265 124.264C276.739 124.337 298.075 139.36 298.075 139.36L289.946 228.436C289.946 228.436 277.805 177.444 275.746 165.372C273.687 153.3 260.19 145.544 250.678 142.165C241.17 138.782 182.078 135.887 178.817 145.464C175.553 155.042 185.374 188.279 184.528 218.983Z" fill="#0D527C"/>
<path d="M243.344 179.224L281.668 142.165C281.668 142.165 303.443 119.766 237.683 118.24C171.922 116.718 168.438 139.374 174.535 148.732C180.632 158.09 212.859 177.715 243.344 179.224Z" fill="#EF9959"/>
<path d="M250.616 118.24C250.616 118.24 243.407 140.918 250.616 149.655C250.616 149.655 243.129 165.365 229.673 166.062C214.124 166.863 208.728 149.655 208.728 149.655C208.728 149.655 216.953 127.752 208.728 120.055L250.616 118.24Z" fill="#EF6E4B"/>
<path d="M270.871 77.4254C270.871 77.4254 282.183 66.1373 283.577 79.3347C285.19 94.6259 271.303 100.786 268.589 95.922C265.875 91.0548 270.871 77.4254 270.871 77.4254Z" fill="#FF8B66"/>
<path d="M191.649 78.2189C191.649 78.2189 180.336 66.9273 178.942 80.1282C177.329 95.4195 191.217 101.579 193.931 96.7155C196.645 91.8519 191.649 78.2189 191.649 78.2189Z" fill="#FF8B66"/>
<path d="M271.721 67.2446C271.721 69.6486 271.686 72.0177 271.617 74.2474C271.617 74.2474 271.617 74.2475 271.617 74.2823C270.293 117.972 256.287 132.813 232.456 132.813C209.009 132.813 193.889 122.396 191.206 81.3548C190.892 76.9998 190.753 72.2964 190.753 67.2446C190.753 41.8811 202.599 26.3076 230.714 26.3076C258.83 26.3076 271.721 41.8811 271.721 67.2446Z" fill="#FF8B66"/>
<path d="M199.056 84.7723C198.613 87.2947 200.815 89.7858 203.972 90.3363C207.128 90.8867 210.041 89.2876 210.48 86.7652C210.919 84.2428 208.72 81.7517 205.564 81.2012C202.411 80.6508 199.495 82.2499 199.056 84.7723Z" fill="#DB614D"/>
<path d="M250.685 86.1453C250.849 88.7025 253.576 90.6048 256.775 90.3958C259.97 90.1867 262.426 87.9465 262.259 85.3892C262.091 82.8354 259.367 80.9297 256.169 81.1387C252.974 81.3512 250.518 83.5915 250.685 86.1453Z" fill="#DB614D"/>
<path d="M210.535 59.2563C210.866 59.2563 211.197 59.1274 211.441 58.8695C214.921 55.2218 221.011 55.3786 221.102 55.3786C221.781 55.3821 222.374 54.856 222.395 54.1627C222.419 53.4693 221.875 52.891 221.182 52.8701C220.914 52.8527 213.869 52.6889 209.629 57.138C209.152 57.6397 209.169 58.4341 209.667 58.9114C209.908 59.1448 210.225 59.2563 210.535 59.2563Z" fill="#0E3944"/>
<path d="M257.799 59.2556C258.109 59.2556 258.419 59.1441 258.663 58.9106C259.165 58.4333 259.182 57.639 258.708 57.1373C254.465 52.6847 247.431 52.8554 247.155 52.8694C246.462 52.8937 245.922 53.4721 245.943 54.1619C245.964 54.8552 246.57 55.3883 247.236 55.3778C247.281 55.3674 253.451 55.2524 256.89 58.8688C257.141 59.1266 257.468 59.2556 257.799 59.2556Z" fill="#0E3944"/>
<path d="M212.702 72.5757C212.702 75.6939 214.106 78.2198 215.838 78.2198C217.569 78.2198 218.973 75.6904 218.973 72.5757C218.973 69.4575 217.569 66.9316 215.838 66.9316C214.106 66.9316 212.702 69.4575 212.702 72.5757Z" fill="#1A4850"/>
<path d="M246.226 72.5757C246.226 75.6939 247.63 78.2198 249.361 78.2198C251.093 78.2198 252.497 75.6939 252.497 72.5757C252.497 69.4575 251.093 66.9316 249.361 66.9316C247.63 66.9316 246.226 69.4575 246.226 72.5757Z" fill="#1A4850"/>
<path d="M246.225 105.928C246.225 105.928 224.088 108.778 212.702 103.312C212.702 103.312 219.141 118.383 231.23 117.032C243.32 115.68 246.225 105.928 246.225 105.928Z" fill="#1A4850"/>
<path d="M228.078 98.0398C230.516 98.0432 232.993 97.4091 233.743 97.2001L233.032 94.6324C230.398 95.3605 226.266 95.7925 225.364 94.7299C225.053 94.3606 225.175 93.5036 225.708 92.3783C229.335 84.6612 230.091 65.1264 230.123 64.3007L227.454 64.2031C227.447 64.4017 226.691 84.0201 223.294 91.2425C222.256 93.4443 222.27 95.1968 223.325 96.451C224.357 97.6704 226.203 98.0398 228.078 98.0398Z" fill="#DB614D"/>
<path d="M270.889 86.0343C270.889 86.0343 269.931 72.5756 267.781 64.2036C267.781 64.2036 271.526 46.7383 261.583 37.0876C261.583 37.0876 246.971 39.1954 231.23 39.1954C215.493 39.1954 204.766 37.0876 204.766 37.0876C204.766 37.0876 197.202 43.857 198.073 61.5592C198.073 61.5592 194.54 73.5825 191.52 85.7695C191.52 85.7695 171.072 12.6299 235.526 12.6299C300.851 12.6334 270.889 86.0343 270.889 86.0343Z" fill="#0E3944"/>
<path d="M189.645 76.4982C189.645 76.4982 188.91 62.712 183.684 58.0679C178.458 53.4237 185.841 51.0999 186.067 45.8739C186.297 40.6479 179.618 36.0037 185.133 32.227C190.652 28.4538 191.189 27.001 188.45 22.646C185.712 18.291 193.659 12.6295 193.659 12.6295C193.659 12.6295 190.109 2.613 196.766 0C196.766 0 195.153 4.35503 198.996 4.93685C202.843 5.51868 212.573 0.292682 215.838 2.32385C219.102 4.35503 217.691 6.38966 224.492 4.355C231.296 2.32383 242.874 -2.03115 245.94 2.32385C249.006 6.67885 256.015 9.87366 261.656 7.839C267.297 5.80783 273.683 7.54983 274.554 12.6295C275.425 17.7092 280.362 24.0988 282.104 24.388C283.846 24.6772 287.918 34.2582 283.706 36.8712C279.494 39.4842 280.072 42.0972 281.525 46.163C282.978 50.2288 274.843 60.6808 277.749 62.712C280.654 64.7432 272.962 75.6377 272.962 75.6377C272.962 75.6377 269.972 33.6764 259.053 29.9032C248.138 26.13 208.727 26.3042 208.727 26.3042L196.77 37.8189L189.645 76.4982Z" fill="#0E3944"/>
</svg>
