<svg width="120" height="176" viewBox="0 0 120 176" fill="none" xmlns="http://www.w3.org/2000/svg">
<path d="M119.559 153.901C119.198 153.127 118.372 152.5 117.532 152.654C116.396 152.863 116.087 153.782 113.178 159.004C112.494 160.232 111.737 160.899 109.339 159.731C103.178 156.729 97.5403 153.542 90.8643 151.146C90.9783 146.516 90.7223 141.345 89.9813 135.449C89.6813 133.065 88.2273 129.634 86.9663 127.092C95.1293 128.942 103.369 129.827 103.369 129.827C104.916 133.027 112.233 134.672 115.703 127.889C119.173 121.106 108.308 119.537 108.308 119.537C92.0363 105.208 76.5103 100.644 76.5103 100.644L67.5483 100.839C65.3233 100.304 63.0173 100.016 60.6493 100.016C60.5573 100.016 60.4663 100.024 60.3743 100.025C60.2823 100.024 60.1913 100.016 60.0993 100.016C57.7313 100.016 55.4253 100.304 53.2003 100.839L44.2383 100.644C44.2383 100.644 28.7133 105.208 12.4403 119.537C12.4403 119.537 1.57534 121.106 5.04534 127.889C8.51534 134.672 15.8323 133.027 17.3793 129.827C17.3793 129.827 25.6193 128.942 33.7823 127.092C32.5213 129.633 31.0673 133.065 30.7673 135.449C30.0263 141.344 29.7703 146.515 29.8833 151.146C23.2073 153.542 17.5693 156.729 11.4093 159.731C9.01134 160.9 8.25434 160.232 7.57034 159.004C4.66134 153.783 4.35233 152.864 3.21633 152.654C2.37633 152.499 1.55034 153.127 1.18934 153.901C0.696342 154.957 0.821337 154.411 0.865337 173.123C0.868337 174.204 1.06335 175.563 2.09935 175.875C2.48335 175.991 2.89635 175.92 3.29135 175.848C7.48035 175.083 11.5453 174.424 15.8043 174.229C16.7583 174.185 25.8753 174.041 28.3963 174.199C28.3963 174.199 66.3923 174.094 92.3473 174.167C92.3493 174.178 92.3513 174.188 92.3523 174.199C92.5373 174.187 92.7673 174.178 93.0183 174.169C93.2914 174.17 93.5703 174.17 93.8403 174.171L93.8323 174.148C97.3583 174.081 104.128 174.191 104.943 174.228C109.202 174.422 113.267 175.082 117.456 175.847C117.851 175.919 118.264 175.99 118.648 175.874C119.683 175.562 119.879 174.203 119.882 173.122C119.927 154.411 120.051 154.957 119.559 153.901Z" fill="#E8CEBA"/>
<path d="M119.559 153.902C119.198 153.128 118.372 152.501 117.532 152.655C116.396 152.864 116.087 153.783 113.178 159.005C112.494 160.233 111.737 160.9 109.339 159.732C103.178 156.73 97.5403 153.543 90.8643 151.147C90.9783 146.517 90.7223 141.346 89.9813 135.45C89.6813 133.066 88.2273 129.635 86.9663 127.093C94.7683 128.861 102.621 129.745 103.302 129.82C103.967 125.908 105.546 122.212 108.398 119.551C108.343 119.542 108.308 119.537 108.308 119.537C92.0363 105.208 76.5103 100.644 76.5103 100.644L67.5483 100.839C65.3233 100.304 63.0173 100.016 60.6493 100.016C60.5573 100.016 60.4663 100.024 60.3743 100.025C60.2823 100.024 60.1913 100.016 60.0993 100.016C57.7313 100.016 55.4253 100.304 53.2003 100.839L44.2383 100.644C44.2383 100.644 29.0163 105.125 12.9203 119.123C15.4063 122.336 17.6923 125.684 19.0893 129.623C21.9173 129.266 27.8623 128.435 33.7833 127.093C32.5223 129.634 31.0683 133.066 30.7683 135.45C30.0273 141.345 29.7713 146.516 29.8843 151.147C23.2083 153.543 17.5703 156.73 11.4103 159.732C9.01231 160.901 8.25532 160.233 7.57132 159.005C4.66232 153.784 4.35332 152.865 3.21732 152.655C2.37732 152.5 1.55131 153.128 1.19031 153.902C0.697308 154.958 0.822319 154.412 0.866319 173.124C0.869319 174.205 1.06431 175.564 2.10031 175.876C2.48431 175.992 2.89731 175.921 3.29231 175.849C7.48131 175.084 11.5463 174.425 15.8053 174.23C16.7593 174.186 25.8763 174.042 28.3973 174.2C28.3973 174.2 66.3933 174.095 92.3483 174.168C92.3503 174.179 92.3523 174.189 92.3533 174.2C92.5383 174.188 92.7683 174.179 93.0193 174.17C93.2923 174.171 93.5713 174.171 93.8413 174.172L93.8333 174.149C97.3593 174.082 104.129 174.192 104.944 174.229C109.203 174.423 113.268 175.083 117.457 175.848C117.852 175.92 118.265 175.991 118.649 175.875C119.684 175.563 119.88 174.204 119.883 173.123C119.927 154.412 120.051 154.958 119.559 153.902Z" fill="#F2A03D"/>
<path d="M67.3543 120.754C64.8293 120.754 62.7812 122.801 62.7812 125.327C62.7812 127.853 64.8283 129.9 67.3543 129.9C69.8803 129.9 71.9273 127.853 71.9273 125.327C71.9273 122.801 69.8793 120.754 67.3543 120.754Z" fill="#F6C227"/>
<path d="M34.5046 153.876C37.0306 153.876 39.0776 151.829 39.0776 149.303C39.0776 146.777 37.0306 144.73 34.5046 144.73C31.9786 144.73 29.9316 146.777 29.9316 149.303C29.9316 151.829 31.9796 153.876 34.5046 153.876Z" fill="#F6C227"/>
<path d="M75.1541 132.742C72.6281 132.742 70.5811 134.789 70.5811 137.315C70.5811 139.841 72.6281 141.888 75.1541 141.888C77.6791 141.888 79.7271 139.841 79.7271 137.315C79.7271 134.789 77.6791 132.742 75.1541 132.742Z" fill="#F6C227"/>
<path d="M83.4919 120.754C80.9659 120.754 78.9189 122.801 78.9189 125.327C78.9189 127.853 80.9659 129.9 83.4919 129.9C85.0959 129.9 86.5019 129.071 87.3179 127.821C87.1999 127.575 87.0819 127.327 86.9659 127.094C87.1889 127.144 87.4099 127.192 87.6329 127.24C87.9029 126.656 88.0649 126.012 88.0649 125.326C88.0649 122.802 86.0169 120.754 83.4919 120.754Z" fill="#F6C227"/>
<path d="M51.2165 120.754C51.2105 120.754 51.2045 120.756 51.1975 120.756C51.1905 120.756 51.1855 120.754 51.1785 120.754C48.6535 120.754 46.6055 122.801 46.6055 125.327C46.6055 127.853 48.6525 129.9 51.1785 129.9C51.1855 129.9 51.1905 129.898 51.1975 129.898C51.2035 129.898 51.2095 129.9 51.2165 129.9C53.7425 129.9 55.7895 127.853 55.7895 125.327C55.7895 122.801 53.7425 120.754 51.2165 120.754Z" fill="#F6C227"/>
<path d="M30.2686 140.147C30.8906 139.366 31.2776 138.39 31.2776 137.314C31.2776 136.59 31.0936 135.914 30.7936 135.305C30.7866 135.352 30.7736 135.404 30.7686 135.45C30.5646 137.071 30.4006 138.632 30.2686 140.147Z" fill="#F6C227"/>
<path d="M18.9034 120.754C17.4644 120.754 16.1954 121.432 15.3574 122.472C16.8554 124.687 18.1674 127.025 19.0884 129.624C19.6194 129.557 20.2614 129.473 20.9924 129.372C22.4614 128.611 23.4764 127.095 23.4764 125.326C23.4764 122.802 21.4294 120.754 18.9034 120.754Z" fill="#F6C227"/>
<path d="M4.30566 153.356C3.94166 152.909 3.63466 152.733 3.21666 152.656C2.42666 152.51 1.65367 153.059 1.26367 153.769C1.57567 153.836 1.89766 153.876 2.22966 153.876C2.98166 153.876 3.67966 153.677 4.30566 153.356Z" fill="#F6C227"/>
<path d="M42.8416 132.742C40.3156 132.742 38.2686 134.789 38.2686 137.315C38.2686 139.841 40.3156 141.888 42.8416 141.888C45.3666 141.888 47.4146 139.841 47.4146 137.315C47.4146 134.789 45.3676 132.742 42.8416 132.742Z" fill="#F6C227"/>
<path d="M91.8289 108.766C89.3029 108.766 87.2559 110.813 87.2559 113.339C87.2559 115.864 89.3029 117.912 91.8289 117.912C94.3539 117.912 96.4019 115.865 96.4019 113.339C96.4019 110.813 94.3549 108.766 91.8289 108.766Z" fill="#F6C227"/>
<path d="M59.0163 132.742C59.0103 132.742 59.0043 132.744 58.9973 132.744C58.9903 132.744 58.9853 132.742 58.9783 132.742C56.4533 132.742 54.4053 134.789 54.4053 137.315C54.4053 139.841 56.4523 141.888 58.9783 141.888C58.9843 141.888 58.9903 141.886 58.9973 141.886C59.0043 141.886 59.0093 141.888 59.0163 141.888C61.5423 141.888 63.5893 139.841 63.5893 137.315C63.5893 134.789 61.5423 132.742 59.0163 132.742Z" fill="#F6C227"/>
<path d="M119.929 157.949C119.029 158.784 118.457 159.967 118.457 161.292C118.457 162.608 119.021 163.786 119.911 164.62C119.923 161.545 119.933 159.429 119.929 157.949Z" fill="#F6C227"/>
<path d="M90.7556 165.865C93.2812 165.865 95.3286 163.817 95.3286 161.292C95.3286 158.766 93.2812 156.719 90.7556 156.719C88.23 156.719 86.1826 158.766 86.1826 161.292C86.1826 163.817 88.23 165.865 90.7556 165.865Z" fill="#F6C227"/>
<path d="M99.6287 120.754C97.1027 120.754 95.0557 122.801 95.0557 125.327C95.0557 126.81 95.7727 128.114 96.8667 128.95C98.6427 129.225 100.164 129.433 101.289 129.578C102.991 128.912 104.201 127.265 104.201 125.327C104.202 122.802 102.155 120.754 99.6287 120.754Z" fill="#F6C227"/>
<path d="M33.9675 168.703C31.4415 168.703 29.3945 170.75 29.3945 173.276C29.3945 173.591 29.4265 173.899 29.4875 174.196C31.0495 174.192 34.2145 174.184 38.4495 174.176C38.5075 173.885 38.5405 173.584 38.5405 173.276C38.5405 170.751 36.4935 168.703 33.9675 168.703Z" fill="#F6C227"/>
<path d="M50.1052 168.703C47.5792 168.703 45.5322 170.75 45.5322 173.276C45.5322 173.58 45.5652 173.875 45.6212 174.163C48.4082 174.158 51.4242 174.154 54.5892 174.151C54.6442 173.868 54.6772 173.576 54.6772 173.277C54.6782 170.751 52.6302 168.703 50.1052 168.703Z" fill="#F6C227"/>
<path d="M1.69351 168.703C1.40551 168.703 1.12652 168.737 0.853516 168.788C0.858516 170.107 0.862516 171.541 0.866516 173.123C0.869516 174.204 1.06451 175.563 2.10051 175.875C2.48451 175.991 2.89751 175.92 3.29251 175.848C4.10251 175.7 4.90551 175.561 5.70851 175.424C6.05351 174.781 6.26752 174.057 6.26752 173.277C6.26552 170.751 4.21851 168.703 1.69351 168.703Z" fill="#F6C227"/>
<path d="M32.7648 129.271C33.4378 129.66 34.2078 129.9 35.0418 129.9C37.5668 129.9 39.6148 127.853 39.6148 125.327C39.6148 122.801 37.5678 120.754 35.0418 120.754C32.5158 120.754 30.4688 122.801 30.4688 125.327C30.4688 126.184 30.7198 126.977 31.1298 127.662C32.0078 127.484 32.8958 127.295 33.7838 127.094C33.4488 127.769 33.1018 128.507 32.7648 129.271Z" fill="#F6C227"/>
<path d="M90.6178 141.821C90.4698 139.794 90.2597 137.675 89.9807 135.452C89.8927 134.755 89.6998 133.964 89.4478 133.137C87.8428 133.847 86.7188 135.448 86.7188 137.316C86.7188 139.611 88.4148 141.493 90.6178 141.821Z" fill="#F6C227"/>
<path d="M26.1677 165.865C28.6933 165.865 30.7407 163.817 30.7407 161.292C30.7407 158.766 28.6933 156.719 26.1677 156.719C23.6421 156.719 21.5947 158.766 21.5947 161.292C21.5947 163.817 23.6421 165.865 26.1677 165.865Z" fill="#F6C227"/>
<path d="M7.57005 159.007C7.35305 158.618 7.15505 158.26 6.96605 157.918C6.04505 158.755 5.45605 159.95 5.45605 161.292C5.45605 163.818 7.50305 165.865 10.0291 165.865C12.5541 165.865 14.6021 163.818 14.6021 161.292C14.6021 160.28 14.263 159.354 13.707 158.597C12.947 158.978 12.1831 159.357 11.4091 159.734C9.01206 160.902 8.25405 160.234 7.57005 159.007Z" fill="#F6C227"/>
<path d="M66.7791 153.876C66.7861 153.876 66.7911 153.874 66.7981 153.874C66.8051 153.874 66.811 153.876 66.817 153.876C69.342 153.876 71.39 151.829 71.39 149.303C71.39 146.777 69.343 144.73 66.817 144.73C66.81 144.73 66.8041 144.732 66.7981 144.732C66.7921 144.732 66.7861 144.73 66.7791 144.73C64.2531 144.73 62.2061 146.777 62.2061 149.303C62.2061 151.829 64.2531 153.876 66.7791 153.876Z" fill="#F6C227"/>
<path d="M54.9805 113.339C54.9805 115.864 57.0275 117.912 59.5535 117.912C62.0795 117.912 64.1265 115.865 64.1265 113.339C64.1265 110.813 62.0795 108.766 59.5535 108.766C57.0285 108.767 54.9805 110.814 54.9805 113.339Z" fill="#F6C227"/>
<path d="M22.6689 113.339C22.6689 115.864 24.7159 117.912 27.2419 117.912C29.7669 117.912 31.8149 115.865 31.8149 113.339C31.8149 110.813 29.7679 108.766 27.2419 108.766C27.1859 108.766 27.1339 108.78 27.0779 108.782C25.8179 109.547 24.5189 110.372 23.1869 111.266C22.8669 111.891 22.6689 112.589 22.6689 113.339Z" fill="#F6C227"/>
<path d="M47.2457 100.71C47.2157 100.921 47.1807 101.131 47.1807 101.351C47.1807 103.876 49.2277 105.924 51.7537 105.924C54.2797 105.924 56.3267 103.877 56.3267 101.351C56.3267 100.984 56.2717 100.631 56.1897 100.289C55.1797 100.425 54.1807 100.604 53.1997 100.84L47.2457 100.71Z" fill="#F6C227"/>
<path d="M43.3977 108.768C43.3917 108.768 43.3857 108.766 43.3787 108.766C40.8527 108.766 38.8057 110.813 38.8057 113.339C38.8057 115.864 40.8527 117.912 43.3787 117.912C43.3857 117.912 43.3907 117.91 43.3977 117.91C43.4047 117.91 43.4097 117.912 43.4167 117.912C45.9417 117.912 47.9897 115.865 47.9897 113.339C47.9897 110.813 45.9427 108.766 43.4167 108.766C43.4097 108.767 43.4037 108.768 43.3977 108.768Z" fill="#F6C227"/>
<path d="M22.3178 174.136C22.3708 173.858 22.4038 173.573 22.4038 173.28C22.4038 170.754 20.3568 168.707 17.8308 168.707C15.3048 168.707 13.2578 170.754 13.2578 173.28C13.2578 173.67 13.3218 174.043 13.4138 174.404C14.2068 174.337 14.9998 174.269 15.8048 174.232C16.3288 174.208 19.3148 174.154 22.3178 174.136Z" fill="#F6C227"/>
<path d="M35.5787 105.923C35.5857 105.923 35.5907 105.921 35.5977 105.921C35.6047 105.921 35.6107 105.923 35.6167 105.923C37.8667 105.923 39.7267 104.296 40.1087 102.156C38.3057 102.891 35.9877 103.92 33.3057 105.296C33.9767 105.683 34.7467 105.923 35.5787 105.923Z" fill="#F6C227"/>
<path d="M118.413 175.919C118.945 175.172 119.265 174.264 119.265 173.276C119.265 170.75 117.218 168.703 114.692 168.703C112.166 168.703 110.119 170.75 110.119 173.276C110.119 173.785 110.222 174.266 110.375 174.723C112.733 175.024 115.076 175.412 117.456 175.847C117.772 175.905 118.099 175.957 118.413 175.919Z" fill="#F6C227"/>
<path d="M103.036 174.189C103.095 173.895 103.128 173.591 103.128 173.28C103.128 170.754 101.081 168.707 98.5554 168.707C96.0294 168.707 93.9824 170.754 93.9824 173.28C93.9824 173.578 94.0154 173.867 94.0704 174.149C96.6224 174.106 100.639 174.148 103.036 174.189Z" fill="#F6C227"/>
<path d="M86.9906 173.276C86.9906 170.75 84.9436 168.703 82.4176 168.703C82.4106 168.703 82.4056 168.705 82.3986 168.705C82.3926 168.705 82.3866 168.703 82.3796 168.703C79.8536 168.703 77.8066 170.75 77.8066 173.276C77.8066 173.573 77.8396 173.862 77.8936 174.143C80.9546 174.145 83.9766 174.149 86.9016 174.154C86.9576 173.87 86.9906 173.577 86.9906 173.276Z" fill="#F6C227"/>
<path d="M70.8159 173.276C70.8159 170.75 68.7689 168.703 66.2429 168.703C63.7179 168.703 61.6699 170.75 61.6699 173.276C61.6699 173.573 61.7029 173.862 61.7569 174.144C64.6999 174.142 67.7089 174.141 70.7279 174.141C70.7829 173.861 70.8159 173.573 70.8159 173.276Z" fill="#F6C227"/>
<path d="M117.533 152.655C117.003 152.753 116.651 153.012 116.133 153.784C116.94 153.622 117.66 153.236 118.253 152.71C118.02 152.638 117.778 152.61 117.533 152.655Z" fill="#F6C227"/>
<path d="M82.9548 153.876C85.4808 153.876 87.5279 151.829 87.5279 149.303C87.5279 146.777 85.4808 144.73 82.9548 144.73C80.4288 144.73 78.3818 146.777 78.3818 149.303C78.3818 151.829 80.4298 153.876 82.9548 153.876Z" fill="#F6C227"/>
<path d="M74.5798 165.865C74.5858 165.865 74.5918 165.863 74.5988 165.863C74.6058 165.863 74.6109 165.865 74.6179 165.865C77.1439 165.865 79.1909 163.818 79.1909 161.292C79.1909 158.766 77.1439 156.719 74.6179 156.719C74.6119 156.719 74.6058 156.721 74.5988 156.721C74.5918 156.721 74.5858 156.719 74.5798 156.719C72.0548 156.719 70.0068 158.766 70.0068 161.292C70.0078 163.817 72.0548 165.865 74.5798 165.865Z" fill="#F6C227"/>
<path d="M50.6423 153.876C53.1673 153.876 55.2153 151.829 55.2153 149.303C55.2153 146.777 53.1683 144.73 50.6423 144.73C48.1163 144.73 46.0693 146.777 46.0693 149.303C46.0693 151.829 48.1163 153.876 50.6423 153.876Z" fill="#F6C227"/>
<path d="M106.892 165.862C109.418 165.862 111.465 163.815 111.465 161.289C111.465 160.96 111.427 160.641 111.361 160.332C110.849 160.328 110.203 160.153 109.338 159.731C107.729 158.947 106.156 158.151 104.59 157.359C103.237 158.153 102.319 159.607 102.319 161.289C102.319 163.814 104.366 165.862 106.892 165.862Z" fill="#F6C227"/>
<path d="M58.4421 165.865C60.9681 165.865 63.0152 163.818 63.0152 161.292C63.0152 158.766 60.9681 156.719 58.4421 156.719C55.9171 156.719 53.8691 158.766 53.8691 161.292C53.8691 163.817 55.9161 165.865 58.4421 165.865Z" fill="#F6C227"/>
<path d="M105.583 117.225C105.269 116.967 104.957 116.716 104.644 116.465C104.922 116.76 105.237 117.013 105.583 117.225Z" fill="#F6C227"/>
<path d="M84.0282 105.925C85.0752 105.925 86.0282 105.559 86.7992 104.967C83.7902 103.454 81.2792 102.391 79.4902 101.699C79.6702 104.059 81.6212 105.925 84.0282 105.925Z" fill="#F6C227"/>
<path d="M42.3044 165.865C44.8304 165.865 46.8775 163.818 46.8775 161.292C46.8775 158.766 44.8304 156.719 42.3044 156.719C39.7794 156.719 37.7314 158.766 37.7314 161.292C37.7324 163.817 39.7794 165.865 42.3044 165.865Z" fill="#F6C227"/>
<path d="M71.1182 113.339C71.1182 115.864 73.1652 117.912 75.6912 117.912C78.2172 117.912 80.2642 115.865 80.2642 113.339C80.2642 110.813 78.2172 108.766 75.6912 108.766C73.1652 108.767 71.1182 110.814 71.1182 113.339Z" fill="#F6C227"/>
<path d="M63.4924 100.168C63.3904 100.548 63.3184 100.939 63.3184 101.351C63.3184 103.876 65.3654 105.924 67.8914 105.924C70.4164 105.924 72.4644 103.877 72.4644 101.351C72.4644 101.14 72.4294 100.938 72.4024 100.734L67.5493 100.839C66.2243 100.522 64.8694 100.303 63.4924 100.168Z" fill="#F6C227"/>
<path d="M61.1597 108.332C59.3987 108.332 57.9717 109.76 57.9717 111.52C57.9717 113.281 59.3987 114.708 61.1597 114.708C62.9207 114.708 64.3477 113.281 64.3477 111.52C64.3477 109.76 62.9207 108.332 61.1597 108.332ZM60.2357 113.017C59.9067 113.017 59.6397 112.75 59.6397 112.421C59.6397 112.092 59.9067 111.825 60.2357 111.825C60.5647 111.825 60.8317 112.092 60.8317 112.421C60.8317 112.75 60.5647 113.017 60.2357 113.017ZM60.2357 111.216C59.9067 111.216 59.6397 110.949 59.6397 110.62C59.6397 110.291 59.9067 110.024 60.2357 110.024C60.5647 110.024 60.8317 110.291 60.8317 110.62C60.8317 110.95 60.5647 111.216 60.2357 111.216ZM62.0837 113.017C61.7547 113.017 61.4877 112.75 61.4877 112.421C61.4877 112.092 61.7547 111.825 62.0837 111.825C62.4127 111.825 62.6797 112.092 62.6797 112.421C62.6797 112.75 62.4127 113.017 62.0837 113.017ZM62.0837 111.216C61.7547 111.216 61.4877 110.949 61.4877 110.62C61.4877 110.291 61.7547 110.024 62.0837 110.024C62.4127 110.024 62.6797 110.291 62.6797 110.62C62.6797 110.95 62.4127 111.216 62.0837 111.216Z" fill="#9F3A37"/>
<path d="M59.9116 112.824L59.8566 112.769C59.6806 112.593 59.6806 112.307 59.8566 112.13L61.7686 110.218C61.9446 110.042 62.2316 110.042 62.4076 110.218L62.4626 110.273C62.6386 110.449 62.6386 110.736 62.4626 110.912L60.5506 112.824C60.3746 113 60.0886 113 59.9116 112.824Z" fill="#FCCD04"/>
<path d="M62.4076 112.824L62.4626 112.769C62.6386 112.593 62.6386 112.307 62.4626 112.13L60.5506 110.218C60.3736 110.042 60.0876 110.042 59.9116 110.218L59.8566 110.273C59.6806 110.449 59.6806 110.736 59.8566 110.912L61.7686 112.824C61.9446 113 62.2306 113 62.4076 112.824Z" fill="#FCCD04"/>
<path d="M61.1597 117.691C59.3987 117.691 57.9717 119.118 57.9717 120.879C57.9717 122.64 59.3987 124.067 61.1597 124.067C62.9207 124.067 64.3477 122.64 64.3477 120.879C64.3477 119.119 62.9207 117.691 61.1597 117.691ZM60.2357 122.376C59.9067 122.376 59.6397 122.109 59.6397 121.78C59.6397 121.451 59.9067 121.184 60.2357 121.184C60.5647 121.184 60.8317 121.451 60.8317 121.78C60.8317 122.109 60.5647 122.376 60.2357 122.376ZM60.2357 120.575C59.9067 120.575 59.6397 120.308 59.6397 119.979C59.6397 119.65 59.9067 119.383 60.2357 119.383C60.5647 119.383 60.8317 119.65 60.8317 119.979C60.8317 120.309 60.5647 120.575 60.2357 120.575ZM62.0837 122.376C61.7547 122.376 61.4877 122.109 61.4877 121.78C61.4877 121.451 61.7547 121.184 62.0837 121.184C62.4127 121.184 62.6797 121.451 62.6797 121.78C62.6797 122.109 62.4127 122.376 62.0837 122.376ZM62.0837 120.575C61.7547 120.575 61.4877 120.308 61.4877 119.979C61.4877 119.65 61.7547 119.383 62.0837 119.383C62.4127 119.383 62.6797 119.65 62.6797 119.979C62.6797 120.309 62.4127 120.575 62.0837 120.575Z" fill="#9F3A37"/>
<path d="M59.9116 122.183L59.8566 122.128C59.6806 121.952 59.6806 121.666 59.8566 121.489L61.7686 119.577C61.9446 119.401 62.2316 119.401 62.4076 119.577L62.4626 119.632C62.6386 119.808 62.6386 120.095 62.4626 120.271L60.5506 122.183C60.3746 122.359 60.0886 122.359 59.9116 122.183Z" fill="#FCCD04"/>
<path d="M62.4076 122.183L62.4626 122.128C62.6386 121.952 62.6386 121.666 62.4626 121.489L60.5506 119.577C60.3736 119.401 60.0876 119.401 59.9116 119.577L59.8566 119.632C59.6806 119.808 59.6806 120.095 59.8566 120.271L61.7686 122.183C61.9446 122.359 62.2306 122.359 62.4076 122.183Z" fill="#FCCD04"/>
<path d="M61.1597 127.051C59.3987 127.051 57.9717 128.478 57.9717 130.239C57.9717 132 59.3987 133.427 61.1597 133.427C62.9207 133.427 64.3477 132 64.3477 130.239C64.3477 128.479 62.9207 127.051 61.1597 127.051ZM60.2357 131.736C59.9067 131.736 59.6397 131.469 59.6397 131.14C59.6397 130.811 59.9067 130.544 60.2357 130.544C60.5647 130.544 60.8317 130.811 60.8317 131.14C60.8317 131.469 60.5647 131.736 60.2357 131.736ZM60.2357 129.935C59.9067 129.935 59.6397 129.668 59.6397 129.339C59.6397 129.01 59.9067 128.743 60.2357 128.743C60.5647 128.743 60.8317 129.01 60.8317 129.339C60.8317 129.668 60.5647 129.935 60.2357 129.935ZM62.0837 131.736C61.7547 131.736 61.4877 131.469 61.4877 131.14C61.4877 130.811 61.7547 130.544 62.0837 130.544C62.4127 130.544 62.6797 130.811 62.6797 131.14C62.6797 131.469 62.4127 131.736 62.0837 131.736ZM62.0837 129.935C61.7547 129.935 61.4877 129.668 61.4877 129.339C61.4877 129.01 61.7547 128.743 62.0837 128.743C62.4127 128.743 62.6797 129.01 62.6797 129.339C62.6797 129.668 62.4127 129.935 62.0837 129.935Z" fill="#9F3A37"/>
<path d="M59.9116 131.543L59.8566 131.488C59.6806 131.312 59.6806 131.026 59.8566 130.849L61.7686 128.937C61.9446 128.761 62.2316 128.761 62.4076 128.937L62.4626 128.992C62.6386 129.168 62.6386 129.455 62.4626 129.631L60.5506 131.543C60.3746 131.719 60.0886 131.719 59.9116 131.543Z" fill="#FCCD04"/>
<path d="M62.4076 131.543L62.4626 131.488C62.6386 131.312 62.6386 131.026 62.4626 130.849L60.5506 128.937C60.3736 128.761 60.0876 128.761 59.9116 128.937L59.8566 128.992C59.6806 129.168 59.6806 129.455 59.8566 129.631L61.7686 131.543C61.9446 131.719 62.2306 131.719 62.4076 131.543Z" fill="#FCCD04"/>
<path d="M26.8804 72.5418C26.9114 76.8408 23.7784 79.9738 19.4794 79.9428C15.1804 79.9738 12.0474 76.8408 12.0784 72.5418C12.0474 68.2428 15.1804 65.1099 19.4794 65.1409C23.7784 65.1099 26.9114 68.2428 26.8804 72.5418Z" fill="#E8CEBA"/>
<path d="M109.724 72.5418C109.755 76.8408 106.622 79.9738 102.323 79.9428C98.0241 79.9738 94.8911 76.8408 94.9221 72.5418C94.8911 68.2428 98.0241 65.1099 102.323 65.1409C106.622 65.1099 109.754 68.2428 109.724 72.5418Z" fill="#E8CEBA"/>
<path d="M105.697 60.1411C105.883 86.1611 86.9209 105.123 60.9009 104.937C34.8809 105.123 15.9189 86.1611 16.1049 60.1411C15.9189 34.1211 34.8809 15.1591 60.9009 15.3451C86.9209 15.1581 105.883 34.1201 105.697 60.1411Z" fill="#F7DCC6"/>
<path d="M56.792 80.4097C57.014 79.5537 57.589 78.8567 58.306 78.3347C59.031 77.8227 59.961 77.5167 60.898 77.5447C61.828 77.5737 62.747 77.8667 63.45 78.3967C63.823 78.6297 64.096 78.9867 64.388 79.2857C64.633 79.6417 64.856 80.0047 65.01 80.4097C64.56 80.3347 64.194 80.1967 63.824 80.0887C63.447 80.0057 63.108 79.8737 62.766 79.8117C62.095 79.6277 61.473 79.5747 60.868 79.5437C59.647 79.4947 58.417 79.8547 56.792 80.4097Z" fill="#E8CEBA"/>
<path d="M93.259 81.255C93.259 83.605 89.33 85.51 84.483 85.51C79.636 85.51 75.707 83.605 75.707 81.255C75.707 78.905 79.636 77 84.483 77C89.33 77 93.259 78.905 93.259 81.255Z" fill="#EDBDA9"/>
<path d="M46.096 81.255C46.096 83.605 42.167 85.51 37.32 85.51C32.473 85.51 28.543 83.605 28.543 81.255C28.543 78.905 32.472 77 37.32 77C42.167 77 46.096 78.905 46.096 81.255Z" fill="#EDBDA9"/>
<path d="M68.8686 85.957C69.7416 85.957 70.4146 86.745 70.2636 87.605C69.4836 92.069 65.5886 95.461 60.9016 95.461C56.2146 95.461 52.3196 92.068 51.5396 87.605C51.3896 86.745 52.0616 85.957 52.9346 85.957H68.8686Z" fill="#DDAA99"/>
<path d="M40.2007 70.3899C40.2007 73.2269 38.7687 75.5269 37.0017 75.5269C35.2347 75.5269 33.8027 73.2269 33.8027 70.3899C33.8027 67.5529 35.2347 65.2539 37.0017 65.2539C38.7687 65.2539 40.2007 67.5529 40.2007 70.3899Z" fill="#575756"/>
<path d="M87.9995 70.3899C87.9995 73.2269 86.5675 75.5269 84.8015 75.5269C83.0345 75.5269 81.6025 73.2269 81.6025 70.3899C81.6025 67.5529 83.0345 65.2539 84.8015 65.2539C86.5675 65.2529 87.9995 67.5529 87.9995 70.3899Z" fill="#575756"/>
<path d="M85.8069 69.2712C85.8069 70.4372 85.1148 71.3822 84.2608 71.3822C83.4068 71.3822 82.7148 70.4372 82.7148 69.2712C82.7148 68.1052 83.4068 67.1602 84.2608 67.1602C85.1148 67.1602 85.8069 68.1052 85.8069 69.2712Z" fill="#9D9D9C"/>
<path d="M36.462 71.3822C37.3159 71.3822 38.008 70.437 38.008 69.2712C38.008 68.1053 37.3159 67.1602 36.462 67.1602C35.6082 67.1602 34.916 68.1053 34.916 69.2712C34.916 70.437 35.6082 71.3822 36.462 71.3822Z" fill="#9D9D9C"/>
<path d="M117.322 27.003C112.665 21.437 100.738 23.141 100.738 23.141C104.714 14.167 116.982 6.89703 116.982 6.89703C105.869 3.80003 98.2675 14.576 95.6895 18.969C97.7305 13.232 95.8545 0.0820312 95.8545 0.0820312C94.9455 4.85303 89.0395 17.348 89.0395 17.348C89.3805 11.328 81.4285 4.51203 81.4285 4.51203C83.8425 10.982 83.7125 18.679 83.6185 20.843C77.0625 17.259 69.3435 15.284 60.8715 15.345C52.4265 15.285 44.7285 17.244 38.1835 20.805C38.0905 18.586 37.9765 10.942 40.3755 4.51303C40.3755 4.51303 32.4245 11.329 32.7645 17.349C32.7645 17.349 26.8575 4.85403 25.9495 0.0830307C25.9495 0.0830307 24.0735 13.234 26.1145 18.97C23.5375 14.577 15.9355 3.80103 4.82147 6.89803C4.82147 6.89803 17.0895 14.168 21.0645 23.142C21.0645 23.142 9.13747 21.438 4.48047 27.004C4.48047 27.004 17.3805 28.546 24.6665 32.589C23.2435 34.513 21.9625 36.559 20.8715 38.738C28.5395 37.022 36.0085 34.189 42.5465 29.979C50.4765 37.309 63.4025 44.383 73.7615 47.145C70.9025 44.507 69.4225 43.052 68.3585 40.105C76.7535 46.401 84.5175 46.018 95.0115 47.067C89.4775 45.016 86.1215 42.397 82.4185 37.622C88.6675 40.463 95.2255 41.143 101.923 41.009C100.624 37.99 99.0065 35.179 97.1075 32.604C104.39 28.55 117.322 27.003 117.322 27.003Z" fill="#AF4933"/>
<path d="M96.539 32.4221L82.195 21.1061C81.539 20.5891 81.427 19.6381 81.944 18.9821C82.461 18.3261 83.412 18.2141 84.068 18.7311L98.412 30.0471C99.068 30.5641 99.18 31.5151 98.663 32.1711C98.146 32.8271 97.195 32.9391 96.539 32.4221Z" fill="#F0CA4D"/>
<path d="M24.7755 32.568L38.8475 20.916C39.4905 20.383 39.5805 19.43 39.0475 18.786C38.5145 18.143 37.5615 18.053 36.9185 18.586L22.8465 30.238C22.2035 30.771 22.1135 31.724 22.6465 32.367C23.1785 33.011 24.1325 33.1 24.7755 32.568Z" fill="#F0CA4D"/>
</svg>
