<svg width="287" height="761" viewBox="0 0 287 761" fill="none" xmlns="http://www.w3.org/2000/svg">
<path d="M53.0561 342.785C36.0298 330.345 18.8191 339.809 3.03214 350.209C-3.90613 354.781 2.30177 367.361 9.25087 362.789C20.5188 355.365 35.5858 344.43 47.6926 356.28C51.6488 360.154 53.359 366.307 54.1059 372.697C53.9652 373.319 53.8677 373.974 53.8677 374.71V737.97C53.8677 747.363 66.1856 747.363 66.1856 737.97V390.915C66.6402 389.952 66.938 388.81 66.9543 387.458C67.1762 372.085 65.3686 351.778 53.0561 342.785Z" fill="#998675"/>
<path d="M115.295 21.7419C124.101 27.4018 129.989 36.6973 135.455 45.7715C142.231 57.0318 148.936 68.7788 151.015 81.8246C152.552 91.4724 151.654 102.024 156.8 110.259C141.295 118.138 126.114 126.687 111.317 135.886C86.8221 113.409 68.4752 83.9134 58.9283 51.664C58.609 50.5927 58.3007 49.4514 58.5821 48.3746C58.896 47.168 59.87 46.2913 60.8171 45.5067C73.7573 34.7821 89.2305 27.872 104.493 21.0866C106.105 20.3724 107.778 19.6422 109.537 19.6368C111.604 19.626 113.547 20.6164 115.295 21.7419Z" fill="#F2E7D6"/>
<path d="M220.625 733.971C229.939 625.021 238.982 459.559 248.302 350.609C221.307 347.666 192.379 387.095 165.259 387.739C156.827 387.939 145.538 363.147 143.871 373.4C142.729 380.418 153.255 414.296 154.316 421.655C161.552 472.026 169.946 522.862 172.755 573.936C173.572 588.746 173.166 603.588 173.464 618.42C173.967 643.608 177.247 668.606 179.693 693.659C181.431 711.455 194.057 723.144 192.433 731.482C191.935 734.047 170.953 743.202 163.262 746.4C160.697 747.466 157.991 748.499 156.097 750.572C154.202 752.644 153.434 756.134 155.203 758.32C156.751 760.23 159.49 760.436 161.909 760.463C180.445 760.663 198.993 759.045 217.231 755.63C218.324 755.425 219.488 755.182 220.278 754.375C220.912 753.732 221.204 752.828 221.437 751.946C222.99 746.016 222.384 739.555 219.905 733.976C220.143 733.976 220.381 733.976 220.625 733.971Z" fill="#333333"/>
<path d="M126.676 137C128.89 135.858 131.06 134.646 133.214 133.439C144.055 127.39 154.895 121.346 165.735 115.296C167.343 114.398 169.069 113.468 170.936 113.43C172.376 113.403 173.707 113.911 174.963 114.447C199.517 124.912 222.757 144.473 233.007 165.105C269.257 238.039 279.021 319.62 286.522 399.881C236.314 417.569 185.013 432.758 133.014 445.333C135.909 444.64 131.26 389.562 130.887 384.141C128.69 352.216 124.62 320.475 118.06 289.221C111.479 257.843 107.247 226.145 103.74 194.237C102.322 181.332 101.05 168.4 99.9192 155.457C99.4754 150.392 115.43 141.902 119.559 140.268C122.011 139.316 124.365 138.196 126.676 137Z" fill="#506C80"/>
<path d="M16.248 355.187C19.3708 349.803 25.0968 346.01 31.272 345.236C29.6321 343.997 27.819 341.849 29.0204 340.183C29.7673 339.144 31.2558 339.068 32.5384 339.036C38.0263 338.884 43.4761 337.618 48.4714 335.335C48.926 335.124 49.3917 334.923 49.8571 334.718C49.8517 334.707 49.8462 334.696 49.8462 334.685C79.7479 318.274 101.088 303.534 127.747 282.253C123.927 272.172 129.966 257.054 128.889 246.33C127.336 230.887 125.783 215.444 124.23 200.001C123.634 194.076 123.185 187.566 126.627 182.713C132.694 174.169 147.225 177.08 153.401 185.548C159.581 194.011 159.814 205.282 159.803 215.763C159.776 243.175 159.744 270.582 159.717 297.994C159.711 301.137 159.63 304.53 157.72 307.024C156.215 308.994 153.834 310.049 151.561 311.023C120.901 324.166 90.2418 337.304 59.5879 350.447C59.5337 350.393 59.4904 350.328 59.4362 350.274C48.8611 358.645 34.8116 362.541 21.4547 360.577C20.0313 360.366 18.5156 360.041 17.5198 359.002C16.5727 358.012 16.2913 356.562 16.248 355.187Z" fill="#F2E7D6"/>
<path d="M167.726 243.698C167.726 243.698 189.126 162.545 151.16 163.373C113.189 164.195 118.974 230.604 121.258 248.882C121.258 248.882 164.874 252.956 167.726 243.698Z" fill="#7E9FC2"/>
<path d="M61.4612 11.347C73.2433 3.50114 83.4018 1.82871 93.0028 4.54502C95.8766 5.35667 98.7828 5.32977 101.603 4.70751C101.64 4.69669 101.678 4.69125 101.722 4.68043C124.837 -0.16239 144.693 -5.88197 159.474 13.8194C167.175 24.0948 164.166 36.6702 155.366 44.4403C155.599 44.9436 155.788 45.4956 155.929 46.0963C157.618 53.3037 159.214 60.7433 158.505 68.1833C157.758 76.0292 151.367 84.5299 142.583 81.9056C130.828 78.3939 127.97 60.2239 124.956 49.3262C118.856 46.8696 113.282 42.7953 108.157 38.3854C100.58 38.3367 94.9674 38.2988 87.3905 38.2447C77.4107 48.2496 60.7523 54.234 49.479 49.2938C28.3881 40.0519 49.3653 19.3986 61.4612 11.347Z" fill="#808080"/>
</svg>
