<svg width="204" height="773" viewBox="0 0 204 773" fill="none" xmlns="http://www.w3.org/2000/svg">
<path d="M198.105 749.27C198.662 748.507 199.123 747.669 199.361 746.668C194.279 686.779 193.694 626.907 190.414 566.986C187.4 511.94 193.732 455.801 193.175 400.414C195.155 381.216 191.946 361.661 183.779 343.61C183.271 342.49 182.724 341.343 181.718 340.482C178.584 337.82 173.231 339.233 169.075 340.65C129.231 354.221 82.1728 351.023 45.847 331.868C38.6706 340.899 36.6142 351.975 34.8444 362.684C31.9815 379.988 28.8479 397.26 28.0794 414.64C28.0794 414.672 28.0742 414.705 28.0688 414.737C27.9064 418.471 27.8197 422.204 27.9063 425.949C28.4096 447.614 33.4695 468.961 37.4203 490.312C40.0019 504.24 42.2697 518.271 42.4862 532.382C42.6648 543.935 40.7005 554.492 43.8287 565.801C51.53 593.651 51.5514 623.99 54.8041 652.441C58.2895 682.91 61.737 713.385 64.5837 743.903C64.6974 745.12 64.811 746.332 64.9246 747.549C65.428 747.663 67.9228 748.139 71.2458 748.659C70.8723 748.713 70.4941 748.74 70.1207 748.794C63.4584 753.193 56.1573 756.835 48.4559 759.594C46.2207 760.395 43.8667 761.174 42.216 762.733C40.5653 764.291 39.8993 766.915 41.4417 768.56C42.7893 770 45.1759 770.151 47.2812 770.173C63.42 770.324 79.581 769.107 95.46 766.537C96.4125 766.385 97.4245 766.196 98.1119 765.595C98.6639 765.114 98.9178 764.432 99.118 763.766C100.742 758.415 99.6974 752.468 96.3149 747.804C95.8928 747.771 95.4654 747.772 95.0379 747.75C95.0866 747.593 95.1891 747.452 95.1891 747.279C97.4676 688.051 99.7458 628.817 102.024 569.588C102.982 544.665 100.801 460.46 108.448 436.711C111.598 436.971 114.754 437.231 117.904 437.49C135.228 515.868 155.745 653.166 173.064 731.544C174.59 738.448 176.441 745.894 181.945 750.341C181.961 750.352 181.977 750.358 181.988 750.369C179.509 750.774 177.036 751.229 174.6 751.808C169.167 756.256 163.078 760.071 156.524 763.128C154.619 764.015 152.611 764.892 151.318 766.412C150.029 767.933 149.737 770.335 151.307 771.699C152.682 772.884 154.824 772.846 156.708 772.705C171.136 771.623 185.419 769.312 199.296 765.811C200.129 765.6 201.011 765.357 201.552 764.767C201.985 764.291 202.137 763.664 202.24 763.052C203.052 758.258 201.488 753.166 198.105 749.27Z" fill="#4D4D4D"/>
<path d="M200.789 284.452C200.464 267.218 199.804 249.989 198.764 232.782C197.401 210.3 196.594 187.206 192.481 164.972C189.889 150.958 184.531 136.083 171.466 127.836C168.208 121.149 163.489 115.483 156.323 112.329C154.121 109.082 149.861 108.655 146.484 110.18C143.827 108.812 140.298 108.633 137.408 110.873C135.157 112.616 133.154 114.531 131.266 116.522C122.639 115.781 113.979 114.282 105.423 115.727C96.666 117.204 84.3159 115.11 73.4485 115.435C71.9981 110.808 65.487 107.675 61.3684 112.453C58.3593 115.943 55.6591 119.569 53.0938 123.253C50.799 125.851 48.8994 128.935 47.2866 132.338C36.8792 150.162 30.6984 169.755 27.1697 189.89C14.9006 234.546 14.0238 282.092 16.0642 328.443C16.0371 328.746 16.021 329.054 16.0318 329.379L17.4172 367.396C17.8447 379.111 17.4007 391.226 20.1067 402.741C24.2199 420.256 44.4231 437.052 63.7712 425.672C66.5098 424.065 67.4082 421.149 66.84 418.357C68.6801 418.449 70.5363 418.53 72.398 418.589C73.0691 418.611 73.7407 418.633 74.4064 418.654C74.585 418.66 74.7636 418.66 74.9422 418.665C82.5245 418.865 90.1011 418.838 96.9691 418.692C97.6564 418.676 98.311 418.66 98.9821 418.638C100.86 421.49 105.092 423.194 108.67 422.188C110.634 421.636 112.61 421.133 114.58 420.619C115.294 420.819 116.046 420.97 116.88 421.019C118.509 421.111 120.138 421.171 121.767 421.214C124.511 422.897 128.142 423.189 130.8 421.198C144.189 420.808 157.449 418.779 170.227 415.164L181.024 413.979C182.236 413.844 183.443 413.482 184.525 412.935C188.363 413.384 192.627 411.593 193.747 407.421C204.739 366.59 205.67 325.402 200.789 284.452Z" fill="#998675"/>
<path d="M139.767 37.6901C139.767 19.1251 122.011 4.07715 100.102 4.07715C78.1944 4.07715 60.4375 19.1251 60.4375 37.6901C60.4375 40.7906 60.9734 43.7773 61.8989 46.6289C61.9313 47.3594 61.9528 48.1062 61.9365 48.8854C61.8229 55.5842 62.1532 62.3262 63.5928 68.933C66.3908 81.7894 73.6915 93.7423 87.5031 101.058C92.1034 103.493 97.3858 105.349 102.884 105.311C110.277 105.262 117.064 101.799 122.205 97.4974C139.177 83.2936 140.644 61.9366 139.443 41.7862C139.638 40.4388 139.767 39.0807 139.767 37.6901Z" fill="#EDD5BE"/>
<path d="M149.65 42.5761C149.233 37.1651 148.346 31.9381 146.966 26.6949C146.96 26.6624 146.944 26.6409 146.933 26.6084C146.046 21.2732 145.174 15.9379 144.314 10.5973C144.081 9.13629 143.209 7.82146 141.656 7.52386C135.724 6.38756 129.777 5.52714 123.802 4.87782C119.786 2.75131 114.666 1.75032 110.196 2.17779C106.981 1.7395 103.663 1.86941 100.892 2.23195C99.2255 2.4538 97.38 2.81092 95.621 3.37366C92.5199 3.31955 89.4299 3.44932 86.3342 3.75775C79.6936 -2.46487 64.3283 -0.663006 59.7714 6.97728C58.8405 8.53564 58.359 10.0074 58.2129 11.4089C52.1838 12.9131 46.3009 16.5332 44.4878 22.7396C43.5894 25.8076 43.9736 29.1407 45.8732 31.7434C46.9394 33.2044 48.5199 33.989 50.1219 34.7032C50.7388 35.4986 51.502 36.2453 52.3192 36.9434C53.0011 38.1229 54.0296 39.1563 55.4963 39.9571C56.097 40.2818 56.687 40.4008 57.2391 40.3521C57.6558 40.6064 58.0559 40.85 58.4131 41.0665C61.0866 42.7006 63.6412 39.6271 63.0621 37.0948V37.0893C63.403 36.3588 63.5113 35.5093 63.3164 34.7139C64.4475 33.3774 65.4974 31.8408 66.5635 30.6882C67.8137 30.0768 69.0427 29.4166 70.3795 28.8376C70.5148 28.7781 70.6446 28.7349 70.7745 28.6808C70.9748 28.6212 71.1638 28.5509 71.3262 28.4643C73.3016 27.7717 75.1904 27.6419 77.0468 27.8637C77.2254 27.9178 77.4153 27.9774 77.5885 28.0315C79.0768 28.4698 80.5866 28.8592 82.1074 29.2055C83.0437 29.5573 83.9797 29.9577 84.9376 30.3743C85.901 30.791 86.908 30.6775 87.7685 30.25C96.693 31.6136 105.996 31.6675 115.056 31.1643C119.196 34.8221 126.692 33.8969 130.832 30.396C130.859 30.3743 130.875 30.3473 130.903 30.3256C131.011 31.8732 130.659 33.5235 129.76 35.017C129.224 35.9098 129.241 37.4844 129.923 38.3068C131.768 40.5416 132.613 43.0035 132.478 45.9038C132.375 48.2251 134.946 49.2802 136.813 48.8636C137.408 48.7337 137.343 50.671 137.115 52.6622C136.888 52.159 136.358 51.7909 135.628 52.0128C131.498 53.2519 127.358 54.5559 123.185 55.6976C122.779 54.3286 121.913 53.1978 120.327 52.5755C118.06 51.6827 115.11 52.0237 112.74 52.0291C107.869 52.0399 102.987 52.1049 98.1163 52.0291C97.4777 52.0183 97.0771 52.3538 96.9093 52.7758C96.2166 52.792 95.5289 52.7813 94.8362 52.8029C94.0623 52.8191 93.408 53.3601 93.4026 54.0473C93.3917 55.7139 93.3697 57.3696 93.4455 59.0362C92.5471 58.9821 91.6596 58.9118 90.8207 58.8955C88.9103 58.8522 87.0053 58.8361 85.0949 58.8577C85.0461 57.9108 84.9704 56.9908 84.8947 56.163C84.9434 55.4054 85.035 54.6534 85.0513 53.8904C85.0675 53.2087 84.4073 52.6297 83.6659 52.6297H83.3415C83.2549 52.6134 83.1844 52.5809 83.0924 52.5755C78.7249 52.3645 74.3572 52.1156 69.9897 51.8775C66.9481 51.7098 62.8671 50.7574 59.9933 51.7314C55.8531 53.1328 56.4646 58.0135 56.9788 61.996C56.5891 63.7221 56.5133 65.3726 57.3739 66.4007C58.0558 67.2177 59.0735 67.3205 60.0693 67.4937C63.2895 68.051 67.1214 67.5639 70.4066 67.5747C73.6159 67.5856 80.6242 68.9978 83.3032 66.736C84.5371 65.6917 84.9864 63.7546 85.1054 61.6552C85.1704 61.6552 85.2354 61.6659 85.3003 61.6714C85.3707 62.0826 85.6468 62.4451 86.2259 62.5533C88.7154 63.0132 91.2214 63.154 93.7435 63.035C94.3226 64.9992 95.7237 66.6875 98.3053 67.5911C101.726 68.7869 106.348 67.8616 109.98 68.0293C112.036 68.1213 113.979 68.0672 115.7 67.4233C117.178 67.2502 118.649 67.0499 120.116 66.7902C120.484 66.7253 120.771 66.471 120.95 66.168C121.383 66.0868 121.778 65.8216 121.93 65.3562C122.557 63.457 123.461 60.6 123.466 58.019C127.72 56.715 132.034 55.53 136.32 54.3396C136.607 54.2584 136.796 54.1123 136.942 53.9392C136.753 55.2865 136.536 56.4498 136.466 56.7095C135.66 59.783 134.269 62.4182 132.58 65.0696C131.887 66.1572 132.196 68.2729 133.3 69.0358C134.079 69.5769 134.826 69.9826 135.54 70.2748C134.523 75.0202 132.093 79.5276 129.571 83.8564C126.779 88.6451 119.705 92.8656 115.375 96.6532C111.046 100.441 105.13 103.125 99.063 102.735C98.2729 102.687 97.4613 102.573 96.7686 102.232C95.2857 101.491 94.6904 99.8945 94.2575 98.4335C93.8191 96.9725 93.3051 95.3709 91.8817 94.5431C90.4584 93.7152 87.9525 94.4835 88.1365 95.9823C88.2556 96.9509 89.3974 97.6706 89.4083 98.6445C89.4191 99.7646 87.8222 100.441 86.6044 100.133C85.3921 99.8241 84.5213 98.8989 83.7365 98.0223C81.8423 95.9175 79.9531 93.8179 78.0589 91.7131C77.2579 90.8203 76.3485 90.0899 75.1903 90.5823C76.7274 93.8992 79.829 97.0754 82.075 100.089C83.9151 102.567 85.8255 105.105 88.591 106.783C91.887 108.779 96.0328 109.32 100.027 109.385C104.876 109.472 109.985 108.855 113.892 106.301C116.69 104.472 123.547 98.9475 125.301 96.2853C131.195 87.341 134.94 81.1725 138.068 71.1893C138.1 71.0756 138.133 70.9675 138.171 70.8539C143.307 70.9675 146.397 64.5934 147.685 59.1445C148.74 54.6751 149.212 49.8322 148.346 45.4872C149.19 44.9515 149.758 43.9884 149.65 42.5761ZM81.382 62.5642C81.2954 62.7806 81.1818 62.9754 81.0682 63.1648C76.9225 63.6247 72.5929 64.1497 68.4689 63.9495C66.4123 63.8521 64.8049 63.4516 63.6468 62.5697C63.6468 62.548 63.6633 62.5317 63.6633 62.51C63.6849 60.0751 63.7116 57.6403 63.7333 55.2054C66.4664 55.2 69.1996 55.1891 71.9327 55.1783C75.1637 55.2757 78.3895 55.3677 81.6205 55.4813C81.7558 56.6879 81.9014 58.0677 81.896 59.3988C81.7661 60.4594 81.5768 61.5145 81.382 62.5642ZM118.184 60.0807C117.632 62.3857 116.891 64.0414 114.748 64.9883C111.094 65.405 107.409 65.5132 103.729 65.2048C100.66 64.9451 99.6099 64.9504 99.3339 62.088C99.2852 61.6064 99.269 61.1087 99.2474 60.6163C99.4205 60.2484 99.4094 59.8154 99.2308 59.4528C99.2308 58.2354 99.2908 57.0072 99.3828 55.8059C105.379 55.7897 111.371 55.8383 117.367 55.8654C117.8 56.1576 118.098 56.5147 118.266 56.9422C118.276 57.8188 118.282 58.6953 118.293 59.5719C118.255 59.7396 118.228 59.9021 118.184 60.0807Z" fill="#333333"/>
<path d="M58.5386 178.218C54.5716 171.72 49.9119 165.871 45.2304 159.892C41.0577 154.562 40.6246 147.316 34.9203 143.117C29.3134 138.994 22.0829 138.962 15.4423 139.573C14.1921 139.687 13.0717 140.131 12.1463 140.791C11.513 141.099 10.9339 141.494 10.4305 141.97C8.41725 142.414 6.37687 143.08 4.31488 143.907C0.185467 145.563 -1.03743 149.632 0.894675 153.474C9.89495 171.357 19.263 189.176 33.7133 203.347C35.6346 205.23 38.1458 205.338 40.2782 204.44C41.4742 204.895 42.789 205.154 44.2665 205.16C48.0225 205.165 51.8922 204.445 55.5941 203.829C59.3988 203.19 62.9274 202.487 64.8974 198.775C68.3936 192.206 61.8508 183.64 58.5386 178.218Z" fill="#909294"/>
<path d="M68.9834 191.735C57.3746 174.961 45.9225 158.079 34.4002 141.245C32.8795 139.021 30.3363 139.075 28.599 140.244C22.5484 139.968 16.4976 139.903 10.4469 140.131C7.18347 140.25 3.60057 140.147 1.93906 143.399C1.43574 144.378 2.22559 145.39 3.24847 145.401C10.8795 145.504 18.5104 145.601 26.1414 145.704C26.4824 146.294 27.1811 146.38 27.7547 146.115C39.1796 162.813 50.6746 179.463 62.0129 196.215C65.0004 200.625 72.0142 196.118 68.9834 191.735Z" fill="#606060"/>
<path d="M132.191 251.342C123.153 245.163 113.877 239.335 104.341 233.951C97.3105 226.343 89.1759 219.791 80.1107 214.472C77.1936 212.762 74.4926 213.352 72.5984 215.018C72.1546 215.088 71.7165 215.186 71.289 215.343C69.871 214.401 68.4531 213.665 67.1163 213.292L67.1057 213.297C66.2127 213.725 65.3462 214.174 64.5074 214.693C64.3883 214.769 63.8205 215.159 63.3876 215.446C62.9654 215.792 62.1099 216.463 62.1099 216.463C61.731 216.787 61.3577 217.118 60.9788 217.442C60.8706 220.857 62.868 225.559 64.9678 229.384L70.5854 239.611C70.7856 240.06 71.0128 240.509 71.2943 240.958C71.3754 241.083 71.4516 241.213 71.5327 241.337L80.4734 257.619C81.0687 257.841 81.6695 258.133 82.2756 258.501C84.1969 261.428 86.194 264.323 88.2777 267.11C91.4437 276.222 98.5009 283.716 107.452 288.818C118.872 295.328 139.709 304.781 148.119 289.349C156.334 274.301 143.968 259.394 132.191 251.342Z" fill="#A59384"/>
<path d="M169.702 151.856C168.003 148.588 163.841 147.338 160.556 148.479C157.953 148.393 155.122 148.934 152.059 150.287C134.524 158.019 130.53 180.155 126.795 196.767C121.502 220.315 118.022 244.535 121.746 268.592C122.179 271.39 123.835 273.181 125.87 274.057C125.729 276.725 125.691 279.398 125.756 282.093C125.859 286.513 129.047 288.472 132.407 288.358C133.679 288.943 134.854 289.224 135.936 289.251C137.322 290.398 139.108 291.031 141.137 290.788C162.872 288.174 161.297 260.151 164.761 244.097C167.039 233.535 170.227 223.351 174.07 213.26C177.674 203.79 181.403 194.11 181.972 183.894C182.545 173.64 178.405 158.544 169.702 151.856Z" fill="#A59384"/>
<path d="M61.5952 219.347C62.2717 219.195 62.9375 218.957 63.5924 218.611C66.5474 217.036 67.7544 213.99 68.2956 210.857C69.0803 206.334 68.6091 201.669 68.3114 197.065C66.4659 194.072 64.3015 191.372 61.2761 189.468C60.7295 190.122 60.1883 190.782 59.6417 191.437L61.2543 195.609C58.6836 192.79 55.7018 190.301 52.4491 188.272C49.2939 186.302 44.9258 184.836 42.577 187.065C40.2606 189.262 41.6463 193.369 43.3889 196.502C48.0866 204.938 54.5216 212.383 61.5952 219.347Z" fill="#EDD5BE"/>
</svg>
