<svg width="326" height="888" viewBox="0 0 326 888" fill="none" xmlns="http://www.w3.org/2000/svg">
<path d="M54.9092 502.588C54.9092 502.588 211.114 551.364 276.439 536.557L229.144 298.774H88.4811L54.9092 502.588Z" fill="#6197AD"/>
<path d="M237.213 484.875C237.213 484.875 223.66 788.871 229.148 816.298L196.468 823.868L237.213 484.875Z" fill="#4C1E27"/>
<path d="M125.355 829.258C125.355 829.258 133.421 847.159 130.933 859.161C129.432 866.408 121.642 875.71 127.885 887.322H176.832C176.832 887.322 182.504 874.257 171.006 862.063C164.651 855.322 159.962 824.028 159.962 824.028C154.492 824.899 155.896 829.254 155.896 829.254C155.896 829.254 156.064 814.5 143.702 816.479C128.885 818.851 132.379 831.867 132.379 831.867C132.379 831.867 130.651 827.119 125.355 829.258Z" fill="#0E3944"/>
<path d="M129.808 869.324C129.808 869.324 143.162 851.985 170.455 865.84C170.455 865.84 171.616 878.034 158.843 875.711C146.067 873.39 138.518 882.679 129.808 869.324Z" fill="#104551"/>
<path d="M209.606 829.258C209.606 829.258 206.087 849.229 211.003 855.677C216.727 863.182 245.47 864.053 231.482 887.326H182.535C182.535 887.326 174.999 882.344 177.901 862.067C180.396 844.63 174.999 824.032 174.999 824.032C180.469 824.903 182.549 829.258 182.549 829.258C182.549 829.258 182.382 814.504 194.743 816.482C209.56 818.855 206.066 831.871 206.066 831.871C206.066 831.871 207.62 828.732 209.606 829.258Z" fill="#0E3944"/>
<path d="M188.879 869.324C188.879 869.324 205.135 853.311 230.805 868.596C230.805 868.596 230.687 878.034 217.911 875.71C205.139 873.39 197.589 882.678 188.879 869.324Z" fill="#104551"/>
<path d="M170.483 836.898L143.245 825.551L122.976 436.392L184.984 510.43L170.483 836.898Z" fill="#4C1E27"/>
<path d="M239.16 527.812C235.502 620.173 216.096 831.756 216.096 831.756C216.096 831.756 212.682 833.811 207.386 835.937C206.306 836.39 205.122 836.843 203.867 837.296C200.174 838.55 195.889 839.734 191.395 840.292C190.245 840.466 189.095 840.57 187.946 840.605C184.252 840.814 180.49 840.536 176.832 839.525C175.717 839.246 174.602 838.863 173.487 838.376C172.476 837.957 171.466 837.47 170.491 836.912C170.491 836.912 153.976 503.493 145.963 468.201L162.164 833.428L162.303 836.912C162.303 836.912 157.844 839.386 150.458 840.919C149.412 841.128 148.298 841.302 147.113 841.476C143.838 841.964 140.075 842.173 135.999 841.999C134.919 841.929 133.839 841.825 132.689 841.685C127.045 841.093 120.878 839.525 114.398 836.494C113.214 835.972 112.029 835.379 110.81 834.717C107.918 833.184 104.991 831.338 102.03 829.143C100.811 828.237 99.5564 827.296 98.337 826.251C98.0583 826.042 97.7795 825.798 97.5008 825.554C97.5008 825.554 51.7211 497.362 68.2701 439.876C84.8191 382.39 229.161 436.392 229.161 436.392C229.161 436.392 242.784 435.416 239.16 527.812Z" fill="#662C33"/>
<path d="M150.457 840.919C149.412 841.128 148.297 841.302 147.113 841.476C147.008 837.609 146.869 832.696 146.729 826.983C145.928 798.936 144.569 750.892 142.967 702.882C141.712 665.639 140.319 628.395 138.995 600.488C138.333 586.517 137.671 574.88 137.148 566.763C136.695 560.666 136.382 556.52 136.277 554.812C136.452 556.52 136.8 560.631 137.323 566.728C137.915 574.88 138.716 586.482 139.552 600.453C141.19 628.36 143.002 665.569 144.709 702.813C146.904 751.659 148.855 800.504 149.969 828.341C149.969 828.341 149.969 828.341 149.969 828.376C150.178 833.254 150.318 837.469 150.457 840.919Z" fill="#4C1E27"/>
<path d="M114.399 836.494C113.214 835.972 112.03 835.38 110.81 834.718C107.709 808.692 101.438 753.889 96.2818 699.016C94.5398 680.063 92.9024 661.075 91.5436 643.272C90.9165 634.388 90.3242 625.782 89.7668 617.595C89.3487 609.442 88.7912 601.708 88.5473 594.6C88.3383 587.458 87.9551 580.908 87.9551 575.09C87.9203 569.307 87.8506 564.255 87.8855 560.074C88.1294 554.883 88.3035 551.05 88.4081 548.96C88.3384 551.05 88.199 554.883 88.0596 560.074C88.0248 564.255 88.199 569.307 88.2687 575.09C88.3383 580.908 88.7912 587.423 89.1048 594.566C89.4184 601.673 90.0804 609.407 90.5681 617.56C91.2301 625.712 91.9269 634.283 92.6237 643.202C94.1915 660.971 96.0379 679.889 98.0238 698.842C103.981 755.248 111.124 811.479 114.399 836.494Z" fill="#4C1E27"/>
<path d="M102.03 829.143C100.811 828.237 99.5565 827.296 98.3371 826.251C96.2119 804.929 91.2297 755.282 86.2127 705.6C82.9726 672.746 79.8022 639.857 77.6073 615.191C76.4924 602.822 75.5865 592.545 75.0639 585.333C74.7852 581.744 74.6458 578.922 74.5413 576.971C74.5065 576.483 74.5065 576.065 74.4717 575.717C74.5065 576.065 74.5414 576.483 74.5762 576.971C74.6807 578.887 74.8898 581.744 75.2382 585.333C75.8304 592.545 76.8408 602.787 78.1298 615.121C80.6732 639.753 84.2617 672.607 87.9547 705.426C93.9124 757.721 99.8701 810.051 102.03 829.143Z" fill="#4C1E27"/>
<path d="M135.999 841.999C134.919 841.929 133.839 841.825 132.689 841.686C131.992 836.39 131.121 829.77 130.111 822.175C127.603 802.212 124.467 775.594 121.784 748.907C120.425 735.563 119.206 722.219 118.161 709.677C117.116 697.169 116.314 685.463 115.722 675.429C115.199 665.395 114.781 657.034 114.677 651.146C114.572 647.487 114.503 644.805 114.468 643.307C114.537 644.805 114.677 647.487 114.816 651.146C115.025 656.999 115.583 665.36 116.28 675.394C117.011 685.428 118.022 697.1 119.241 709.607C120.495 722.08 121.924 735.424 123.491 748.698C126.627 775.315 130.216 801.863 133.038 821.757C134.222 829.735 135.232 836.599 135.999 841.999Z" fill="#4C1E27"/>
<path d="M177.355 807.333C177.111 821.478 176.937 832.801 176.832 839.525C175.717 839.246 174.602 838.863 173.487 838.375C173.662 831.546 174.01 820.711 174.393 807.298C174.985 783.885 175.613 752.704 175.857 721.487C175.857 719.327 175.891 717.202 175.891 715.042C176.135 686.02 176.031 657.451 175.752 635.676C175.578 623.97 175.404 614.215 175.229 607.386C175.125 603.101 175.055 600 175.02 598.258C175.125 600 175.229 603.135 175.404 607.386C175.647 614.215 175.961 623.935 176.275 635.641C176.658 649.682 177.006 666.544 177.25 684.522C177.424 696.507 177.529 708.979 177.599 721.487C177.773 752.704 177.598 783.92 177.355 807.333Z" fill="#4C1E27"/>
<path d="M204.982 616.968C204.877 623.413 204.773 630.381 204.634 637.802C204.39 645.188 204.146 652.957 203.867 661.04C203.135 677.171 202.265 694.347 201.219 711.523C197.875 765.734 193.206 819.876 191.394 840.292C190.245 840.466 189.095 840.571 187.945 840.606C190.001 820.782 195.436 766.153 199.477 711.419C200.766 694.243 201.846 677.101 202.752 660.971C203.136 652.923 203.484 645.153 203.832 637.767C204.041 630.381 204.25 623.378 204.425 616.933C204.425 610.487 204.529 604.599 204.459 599.339C204.32 594.113 204.181 589.549 204.041 585.786C203.588 581.117 203.24 577.668 203.066 575.752C203.31 577.668 203.693 581.117 204.181 585.786C204.355 589.514 204.564 594.113 204.808 599.339C204.912 604.565 204.912 610.487 204.982 616.968Z" fill="#4C1E27"/>
<path d="M229.962 541.33C230.276 535.965 230.52 532.028 230.694 529.798C230.59 532.028 230.38 535.965 230.137 541.365C229.579 549.97 228.778 562.269 227.837 577.041C225.816 606.55 222.82 645.92 219.719 685.254C214.424 750.3 209.093 815.381 207.386 835.937C206.306 836.39 205.121 836.843 203.867 837.296C205.574 818.831 211.776 751.973 217.977 685.115C221.531 645.815 224.945 606.515 227.28 577.006C228.395 562.234 229.335 549.935 229.962 541.33Z" fill="#4C1E27"/>
<path d="M82.9795 123.438L1.59668 276.644C1.59668 276.644 3.76727 306.714 18.5743 310.094C33.3813 313.473 91.3028 252.608 91.3028 252.608L82.9795 123.438Z" fill="#0E3944"/>
<path d="M190.162 334.488C190.162 334.488 139.051 352.5 90.8329 316.093C90.8329 316.093 81.879 132.033 98.9158 119.7C106.372 114.299 121.074 118.62 135.254 125.204C153.545 133.705 171.035 145.934 171.035 145.934C171.035 145.934 202.774 141.44 227.789 144.192C243.711 145.899 256.88 150.568 257.473 161.124C259.04 188.334 190.162 334.488 190.162 334.488Z" fill="#FF8B66"/>
<path d="M229.148 144.61C218.417 143.495 216.431 151.613 205.7 155.515C194.935 159.452 182.044 162.483 177.166 162.936C172.289 163.389 169.711 169.451 169.711 169.451C169.711 169.451 167.969 161.263 165.321 160.567C162.743 159.905 139.992 137.015 135.254 125.204C153.545 133.705 171.035 145.934 171.035 145.934C171.035 145.934 202.774 141.44 227.789 144.192C228.66 144.471 229.148 144.61 229.148 144.61Z" fill="#EF6E4B"/>
<path d="M166.931 85.0519C166.931 85.0519 171 134.194 157.325 141.221C157.325 141.221 167.429 159.846 194.513 148.509C194.513 148.509 189.935 123.233 207.854 93.2253C219.849 73.1296 166.931 85.0519 166.931 85.0519Z" fill="#EF6E4B"/>
<path d="M59.1006 459.076C59.1006 459.076 138.299 496.832 237.213 484.879C237.213 484.879 248.63 455.16 216.083 352.723L239.154 142.07L177.773 136.419L121.816 119.856L84.1192 141.126L83.5617 328.304L59.1006 459.076Z" fill="#0E3944"/>
<path d="M172.989 0.310131C207.341 -2.0346 228.827 8.30938 235.795 52.2147C242.763 96.1201 225.012 162.027 161.161 209.061C161.161 209.061 136.212 153.606 127.791 142.865C119.37 132.124 132.435 132.124 127.791 106.865C123.143 81.6023 104.957 4.9543 172.989 0.310131Z" fill="#662C33"/>
<path d="M183.008 124.919C207.435 123.058 220.005 106.053 216.361 58.2003C214.479 33.5162 201.097 23.3185 177.741 24.8445C150.36 26.6318 136.856 42.6373 138.734 67.3214C142.65 118.738 157.777 126.839 183.008 124.919Z" fill="#FFA466"/>
<path d="M146.953 80.6511C146.712 83.1386 149.04 85.3997 152.147 85.7028C155.258 86.0025 157.976 84.2326 158.216 81.745C158.457 79.2574 156.129 76.9963 153.022 76.6932C149.911 76.3936 147.193 78.1635 146.953 80.6511Z" fill="#DB614D"/>
<path d="M197.293 78.1634C197.645 80.637 200.439 82.2884 203.533 81.8495C206.626 81.4105 208.853 79.0483 208.501 76.5712C208.149 74.0976 205.355 72.4462 202.261 72.8851C199.167 73.3276 196.944 75.6898 197.293 78.1634Z" fill="#DB614D"/>
<path d="M155.624 54.8627C156.123 55.0961 156.729 54.9707 157.091 54.5283C160.202 50.7237 166.171 50.4171 166.23 50.4171C166.906 50.3858 167.428 49.8144 167.4 49.1385C167.372 48.4661 166.805 47.94 166.122 47.9679C165.833 47.9818 158.99 48.3372 155.196 52.9814C154.767 53.504 154.847 54.2739 155.37 54.7025C155.447 54.7652 155.534 54.8209 155.624 54.8627Z" fill="#0C476B"/>
<path d="M191.008 48.3686C191.204 48.4592 191.423 48.501 191.653 48.4766C191.712 48.4697 197.666 47.8773 201.311 51.1593C201.816 51.6157 202.586 51.5704 203.039 51.0687C203.488 50.567 203.45 49.7936 202.948 49.3407C198.492 45.3201 191.677 46.0099 191.388 46.0413C190.716 46.1145 190.235 46.7172 190.305 47.3896C190.353 47.832 190.632 48.1944 191.008 48.3686Z" fill="#0C476B"/>
<path d="M159.328 67.7713C159.561 70.8058 161.111 73.161 162.798 73.0321C164.484 72.9032 165.661 70.3425 165.432 67.3079C165.202 64.2734 163.648 61.9181 161.961 62.047C160.275 62.1759 159.098 64.7367 159.328 67.7713Z" fill="#1A4850"/>
<path d="M193.777 65.2904C194.007 68.3249 195.561 70.6801 197.248 70.5477C198.934 70.4188 200.111 67.8581 199.881 64.8235C199.652 61.789 198.098 59.4338 196.411 59.5627C194.725 59.6916 193.544 62.2558 193.777 65.2904Z" fill="#1A4850"/>
<path d="M191.119 94.9355C191.119 94.9355 176.068 98.2209 167.93 94.7334C167.93 94.7334 173.215 105.663 181.448 104.018C189.677 102.377 191.119 94.9355 191.119 94.9355Z" fill="#1A4850"/>
<path d="M167.425 65.6419C167.425 65.6419 164.631 58.3394 161.736 59.0989C158.841 59.8584 157.105 66.4292 157.105 66.4292L152.594 64.4608L156.973 64.6977C156.973 64.6977 158.722 57.8516 161.624 57.6182C165.756 57.2837 167.425 65.6419 167.425 65.6419Z" fill="#1A4850"/>
<path d="M191.214 64.7504C191.214 64.7504 192.869 57.11 195.844 57.4235C198.819 57.7371 201.533 63.9665 201.533 63.9665L205.693 61.3396L201.401 62.2349C201.401 62.2349 198.635 55.7338 195.733 55.9393C191.597 56.2355 191.214 64.7504 191.214 64.7504Z" fill="#1A4850"/>
<path d="M177.89 83.3896C178.427 83.6405 179.023 83.8321 179.667 83.9541L180.162 81.3584C177.95 80.9369 177.375 79.6339 177.284 78.6166C177.152 77.1812 177.925 75.7667 178.702 75.4636C179.159 75.2894 179.664 75.5646 180.218 76.2893L182.319 74.6866C180.479 72.2757 178.507 72.7042 177.744 73.0038C175.783 73.7703 174.427 76.3415 174.657 78.857C174.842 80.9056 176.016 82.5117 177.89 83.3896Z" fill="#DB614D"/>
<path d="M229.147 141.123C229.147 141.123 202.707 222.715 202.898 278.459C203.09 334.203 276.554 560.9 276.554 560.9C276.554 560.9 285.103 557.416 290.329 550.448C290.329 550.448 257.772 303.129 257.503 276.999C257.231 250.869 263.112 162.731 255.378 147.328C255.371 147.328 251.577 142.405 229.147 141.123Z" fill="#8BBDDB"/>
<path d="M121.816 119.853C121.816 119.853 124.429 219.349 121.816 239.57C119.203 259.795 98.7731 372.108 87.5197 410.551C76.2664 448.993 62.1249 527.801 62.1249 527.801L48.0669 508.639C48.0669 508.639 39.235 431.166 48.0669 391.971C56.8988 352.776 67.0651 324.702 68.079 316.093C69.0928 307.484 62.0273 181.537 82.9801 123.441C82.9801 123.441 101.261 110.997 121.816 119.853Z" fill="#8BBDDB"/>
<path d="M1.59687 276.644C-10.1163 304.867 46.45 400.893 46.45 400.893C46.45 400.893 41.8022 377.066 70.8867 355.734C70.8867 355.734 60.3824 322.308 59.1038 307.926C57.8217 293.545 46.4534 286.552 46.4534 286.552L1.59687 276.644Z" fill="#0E3944"/>
<path d="M255.371 147.328C274.697 174.221 317.041 319.413 325.048 339.579C333.054 359.744 272.188 408.956 272.188 408.956C272.188 408.956 263.809 364.925 257.496 351.01C257.496 351.01 267.729 345.808 267.729 343.195C267.729 340.582 275.568 334.997 275.568 334.997L255.371 287.594C255.371 287.594 256.845 245.518 257.496 216.837C258.148 188.157 255.371 147.328 255.371 147.328Z" fill="#0E3944"/>
<path d="M74.472 351.01C74.472 351.01 33.096 364.165 35.4407 399.406L46.4467 426.062L74.472 351.01Z" fill="#8BBDDB"/>
<path d="M257.497 351.01C257.497 351.01 278.955 380.509 282.707 388.536C286.46 396.563 276.074 439.876 276.074 439.876L266.859 436.392L257.497 351.01Z" fill="#8BBDDB"/>
<path d="M229.148 141.123C229.148 141.123 241.753 161.909 246.613 191.293L217.285 212.705L231.949 267.502C231.949 267.502 206.125 315.333 220.089 368.75C220.089 368.75 198.23 315.964 190.304 281.675C182.371 247.385 229.148 141.123 229.148 141.123Z" fill="#6197AD"/>
<path d="M121.816 119.854L87.8779 170.553L114.402 195.707L95.2744 242.49C95.2744 242.49 105.845 295.583 101.142 346.679C101.142 346.679 124.888 246.636 127.212 229.011C129.533 211.382 121.816 119.854 121.816 119.854Z" fill="#6197AD"/>
</svg>
