<svg width="62" height="160" viewBox="0 0 62 160" fill="none" xmlns="http://www.w3.org/2000/svg">
<path d="M44.2987 89.7264C44.633 93.0259 44.9691 96.3254 45.3033 99.6249C45.746 99.4252 48.8149 97.9834 49.7186 94.5611C50.2806 92.4305 49.7112 90.6406 49.4449 89.9389C49.3494 86.3737 49.691 83.5652 49.9941 81.7423C51.0116 75.6324 52.9253 72.4483 51.8362 67.7894C51.4523 66.1442 50.8205 64.9003 50.354 64.1125C48.2401 64.0539 46.128 63.9934 44.014 63.9348C43.6632 66.3879 43.6081 68.3628 43.6136 69.6288C43.6412 76.5851 45.5439 79.8608 44.8754 86.2766C44.7174 87.8064 44.464 89.0228 44.2987 89.7264Z" fill="#FFA58D"/>
<path d="M52.1578 70.5466C51.976 76.4714 51.7923 82.3944 51.6105 88.3193C48.4846 87.7404 45.3587 87.1614 42.2327 86.5825C41.5936 80.709 40.9526 74.8372 40.3135 68.9637C40.3135 61.1903 40.3135 53.4169 40.3135 45.6436C41.421 41.3529 42.5284 37.0604 43.6359 32.7698C44.7452 33.0922 46.2513 33.662 47.8436 34.7008C49.1586 35.5563 50.1431 36.476 50.841 37.2345C51.2781 48.3385 51.7189 59.4426 52.1578 70.5466Z" fill="#22130C"/>
<path d="M60.6974 159.667C55.0168 159.683 49.3361 159.7 43.6572 159.714C43.4919 159.077 43.3615 158.124 43.7527 157.104C43.8997 156.719 44.0686 156.462 44.155 156.323C44.6049 155.605 45.1375 154.394 45.4241 152.256C46.4544 152.139 47.4829 152.022 48.5133 151.902C52.4143 157.138 54.62 158.188 55.9295 158.111C56.8534 158.058 57.7386 158.567 58.6643 158.575C59.2575 158.58 59.9885 158.523 60.4109 158.994C60.6038 159.212 60.6717 159.472 60.6974 159.667Z" fill="#B2CAD1"/>
<path d="M26.1053 104.399C25.9051 105.874 25.7214 108.023 25.8316 110.591C25.9051 112.486 26.1053 114.089 26.3055 115.217C26.3422 115.49 26.3606 115.763 26.3606 116.036C26.1953 120.298 23.9509 123.139 22.2521 123.157C20.4816 123.157 18.0352 120.006 18.1454 115.327C15.5704 101.906 14.4942 92.8554 14.002 87.3923C14.1287 85.4081 14.3307 83.3856 14.5676 81.3282C15.0966 76.8488 15.8643 72.6589 16.7587 68.7805C17.0507 68.1429 17.3428 67.542 17.6348 66.9778C18.6578 65.0285 19.7524 63.3723 20.7203 62.0422C22.5276 66.4666 24.3348 70.8928 26.142 75.2989C27.3101 78.1771 28.4966 81.0534 29.6647 83.9315C28.0576 93.0002 26.8528 99.83 26.3606 102.651C26.3238 102.943 26.2137 103.562 26.1053 104.399Z" fill="#FFA58D"/>
<path d="M25.6464 153.723C24.2285 153.872 22.8106 154.022 21.3946 154.17C21.2954 153.113 21.1191 151.474 20.8069 149.486C19.2035 139.283 16.5294 135.899 16.3016 129.667C16.2061 127.082 16.5055 123.295 18.5148 118.599C21.1319 117.605 23.751 116.612 26.3682 115.617C25.9494 119.895 25.628 124.374 25.4315 129.04C25.0587 137.873 25.1946 146.133 25.6464 153.723Z" fill="#B2CAD1"/>
<path d="M26.5988 158.252C26.7568 159.003 26.2039 159.714 25.4601 159.714H17.8602C17.8069 159.507 17.761 159.196 17.8602 158.87C18.0787 158.153 18.8483 157.836 19.1568 157.677C19.9025 157.292 20.8502 156.332 21.5224 153.687C23.7667 153.716 23.4031 153.712 25.6474 153.742C25.9652 155.246 26.2829 156.75 26.5988 158.252Z" fill="#B2CAD1"/>
<path d="M41.8408 69.0041C42.5791 77.142 37.7525 83.5817 32.9754 84.2669C27.5684 85.04 20.1925 78.7304 20.435 69.0041C20.5782 65.3748 20.7233 61.7455 20.8666 58.1162C20.3174 57.0738 19.7866 55.9819 19.2816 54.835C16.0124 47.4225 14.8884 40.2263 14.668 34.2538C17.7388 32.8908 23.2615 30.9195 30.3803 30.9726C37.6111 31.0257 43.1779 33.1417 46.2358 34.5744C45.9989 39.5484 45.1743 45.5337 43.0658 52.0008C42.4414 53.9153 41.7582 55.7052 41.0474 57.3706C41.3137 61.2472 41.5781 65.1256 41.8408 69.0041Z" fill="#FFA58D"/>
<path d="M10.0403 62.3648L3.97949 60.5016C5.08147 55.9306 6.19262 52.1365 7.07236 49.3316C10.8999 37.1393 13.2581 34.4371 15.7926 33.8032C16.2959 33.6768 16.7238 33.6548 16.9956 33.653C16.9773 38.3283 16.9571 43.0037 16.9387 47.6809C14.6374 52.5762 12.338 57.4696 10.0403 62.3648Z" fill="#FFA58D"/>
<path d="M46.2233 114.745C45.8266 116.899 44.8734 122.069 42.9137 122.264C40.6363 122.489 38.3277 115.912 37.986 114.919C35.0291 110.066 29.6845 76.9259 30.5312 72.8203C34.2302 70.5155 37.931 68.209 41.6299 65.9043C45.2995 82.6584 48.4658 102.573 46.2233 114.745Z" fill="#FFA58D"/>
<path d="M49.2598 152.877C47.9705 152.983 46.6812 153.091 45.3919 153.198C45.1789 152.157 44.828 150.545 44.3046 148.603C41.5956 138.567 38.6331 135.425 37.6928 129.381C37.274 126.686 37.1308 122.586 38.8774 117.235C41.3146 116.267 43.7518 115.302 46.189 114.334C46.2588 118.676 46.4241 123.163 46.7014 127.78C47.2359 136.665 48.1321 145.047 49.2598 152.877Z" fill="#B2CAD1"/>
<path d="M35.984 32.9275H25.5098C25.9175 28.7175 26.3271 24.5092 26.7348 20.2992C29.4971 20.2992 32.2612 20.2992 35.0235 20.2992C35.343 24.5092 35.6626 28.7175 35.984 32.9275Z" fill="#FFA58D"/>
<path d="M30.9322 26.3211C32.7133 26.3211 34.1573 24.1647 34.1573 21.5047C34.1573 18.8446 32.7133 16.6882 30.9322 16.6882C29.151 16.6882 27.707 18.8446 27.707 21.5047C27.707 24.1647 29.151 26.3211 30.9322 26.3211Z" fill="#22130C"/>
<path d="M30.6376 24.6245C27.227 24.6245 24.4629 21.8673 24.4629 18.4652V9.46252C25.2839 8.91657 27.6127 7.52238 30.8782 7.59383C33.8572 7.65796 35.9767 8.90557 36.8123 9.46252C36.8123 12.4634 36.8123 15.4643 36.8123 18.4652C36.8123 21.8673 34.0482 24.6245 30.6376 24.6245Z" fill="#FFA58D"/>
<path d="M24.6797 18.1373C25.6149 18.1373 26.3731 17.231 26.3731 16.1129C26.3731 14.9949 25.6149 14.0885 24.6797 14.0885C23.7445 14.0885 22.9863 14.9949 22.9863 16.1129C22.9863 17.231 23.7445 18.1373 24.6797 18.1373Z" fill="#FFA58D"/>
<path d="M38.291 16.1129C38.291 17.2323 37.5325 18.1373 36.5977 18.1373C35.6628 18.1373 34.9043 17.2305 34.9043 16.1129C34.9043 14.9954 35.6628 14.0885 36.5977 14.0885C37.5325 14.0867 38.291 14.9935 38.291 16.1129Z" fill="#FFA58D"/>
<path d="M32.4824 16.0305C32.4218 16.0305 32.363 16.0067 32.3189 15.9609C32.2307 15.8711 32.2326 15.7264 32.3226 15.6366C32.5944 15.371 33.1821 14.9185 34.06 14.8452C35.0261 14.7866 35.746 15.2244 36.0087 15.4241C36.1097 15.5011 36.128 15.6458 36.0509 15.7466C35.9738 15.8473 35.8305 15.862 35.7295 15.7887C35.5091 15.6183 34.9159 15.2336 34.0986 15.3014C33.3364 15.3618 32.8276 15.785 32.644 15.9627C32.5981 16.0085 32.5411 16.0305 32.4824 16.0305Z" fill="#22130C"/>
<path d="M34.5122 15.6054C34.5122 15.9919 34.2239 16.3052 33.8694 16.3052C33.5149 16.3052 33.2266 15.9919 33.2266 15.6054C33.2266 15.2188 33.5149 14.9055 33.8694 14.9055C34.2257 14.9055 34.5122 15.2188 34.5122 15.6054Z" fill="#22130C"/>
<path d="M35.8909 13.9952C35.8909 13.9952 35.6062 13.8962 35.2573 13.8761C34.7485 13.8486 33.6686 13.9933 32.2893 14.3359C32.2195 14.2407 32.0468 13.9805 32.034 13.6049C32.023 13.2862 32.1332 13.0462 32.1901 12.9399C33.1158 12.9747 33.7935 12.9289 34.2692 12.8739C34.4473 12.8538 34.9799 12.786 35.6099 12.9491C35.9184 13.0297 36.0415 13.1103 36.1076 13.1616C36.5631 13.517 36.5411 14.1912 36.5319 14.3524C36.3996 14.2461 36.1848 14.0978 35.8909 13.9952Z" fill="#22130C"/>
<path d="M29.1602 16.0305C29.1015 16.0305 29.0445 16.0085 29.0004 15.9664C28.8168 15.7868 28.308 15.3655 27.5458 15.305C26.7469 15.2335 26.1353 15.6219 25.9149 15.7923C25.8157 15.8674 25.6706 15.8509 25.5935 15.7502C25.5164 15.6494 25.5347 15.5047 25.6358 15.4277C25.8984 15.2281 26.611 14.7792 27.5844 14.8488C28.4623 14.9203 29.05 15.3746 29.3218 15.6403C29.4118 15.73 29.4137 15.8748 29.3255 15.9645C29.2796 16.0067 29.2208 16.0305 29.1602 16.0305Z" fill="#22130C"/>
<path d="M27.6926 16.3053C28.0477 16.3053 28.3354 15.992 28.3354 15.6055C28.3354 15.219 28.0477 14.9056 27.6926 14.9056C27.3376 14.9056 27.0498 15.219 27.0498 15.6055C27.0498 15.992 27.3376 16.3053 27.6926 16.3053Z" fill="#22130C"/>
<path d="M25.7518 13.9952C25.7518 13.9952 26.0365 13.8962 26.3854 13.8761C26.8942 13.8486 27.9759 13.9933 29.3534 14.3359C29.4232 14.2407 29.5959 13.9805 29.6087 13.6049C29.6197 13.2862 29.5095 13.0462 29.4526 12.9399C28.5269 12.9747 27.8492 12.9289 27.3735 12.8739C27.1954 12.8538 26.6628 12.786 26.0328 12.9491C25.7242 13.0297 25.6012 13.1103 25.5351 13.1616C25.0796 13.517 25.1016 14.1912 25.1108 14.3524C25.2431 14.2461 25.4579 14.0978 25.7518 13.9952Z" fill="#22130C"/>
<path d="M30.1123 18.6999C30.1968 18.7713 30.4906 19.004 30.9296 19.0113C31.4806 19.0205 31.8332 18.6651 31.8901 18.6046L30.1123 18.6999Z" fill="#22130C"/>
<path d="M30.3898 22.0634C29.8057 22.0634 29.1941 21.9187 28.566 21.631C28.4503 21.5798 28.4007 21.4423 28.454 21.3288C28.5073 21.2133 28.6432 21.1639 28.7589 21.217C29.3962 21.5083 30.0096 21.6475 30.5881 21.5999C30.7902 21.5889 31.1942 21.5303 31.9289 21.4222C32.2962 21.3691 32.5974 21.3214 32.8031 21.2921C32.9353 21.2555 33.0455 21.3581 33.0657 21.4827C33.0859 21.6072 32.9996 21.7263 32.8747 21.7446C32.6672 21.7794 32.3642 21.8252 31.995 21.8784C31.2254 21.9901 30.8379 22.0451 30.6175 22.0597C30.5404 22.0616 30.4651 22.0634 30.3898 22.0634Z" fill="#22130C"/>
<path d="M32.6767 93.2458C30.6178 100.512 28.7316 108.86 27.4368 118.167C25.6241 131.208 25.4239 142.892 25.9032 152.659C23.9141 152.751 21.9232 152.84 19.9342 152.932C17.5245 147.579 14.6025 139.074 14.7494 128.529C14.8045 124.614 15.2783 121.1 15.8991 118.059C14.3104 109.754 13.2158 99.3208 14.0001 87.3924C14.1268 85.4082 14.3288 83.3857 14.5657 81.3283C15.0947 76.8489 15.8624 72.659 16.7568 68.7806C16.9203 68.0514 17.0856 67.3241 17.2674 66.6133L17.6329 66.9779C20.0572 68.6542 23.2677 71.3143 26.1401 75.3009C31.2735 82.4184 32.3828 89.6806 32.6767 93.2458Z" fill="#22130C"/>
<path d="M47.3949 116.92C47.9165 128.199 48.4381 139.479 48.9616 150.759C47.0698 151.241 45.1799 151.723 43.2882 152.203C40.851 147.353 37.9712 140.121 36.9188 130.986C36.3476 126.032 36.4413 121.611 36.7847 117.944C34.4118 106.607 32.0371 95.2702 29.6642 83.9353C25.5336 78.1607 21.403 72.3861 17.2725 66.6133C18.0145 65.3804 18.7564 64.1474 19.4966 62.9144C26.8743 63.9111 34.252 64.9077 41.6298 65.9043C43.8704 72.8441 46.0689 81.6544 47.1672 91.9945C48.1847 101.571 47.9991 110.031 47.3949 116.92Z" fill="#22130C"/>
<path d="M44.2326 75.1141C40.4693 75.8707 35.65 76.4973 30.052 76.402C24.2924 76.3031 19.3757 75.4658 15.5758 74.5425C14.2387 62.0992 12.9035 49.6541 11.5664 37.2109C11.8382 36.6832 12.3011 35.9064 13.0375 35.1187C13.752 34.3565 15.1111 33.1712 19.8569 31.7477C21.3189 31.308 23.3208 30.7822 25.7543 30.3608C27.5542 31.5443 29.3523 32.726 31.1522 33.9095C32.7041 32.8231 34.2561 31.7367 35.808 30.6521C39.5308 31.8649 43.2518 33.0778 46.9747 34.2887C46.0637 47.8972 45.1472 61.5056 44.2326 75.1141Z" fill="#B2CAD1"/>
<path d="M29.6281 160H16.792C16.8875 159.469 17.1281 158.564 17.8003 157.666C18.95 156.129 20.5644 155.68 21.0713 155.561C21.7711 155.339 23.0016 155.048 24.5333 155.2C26.0118 155.347 27.1267 155.843 27.7658 156.186C28.3848 157.457 29.0055 158.729 29.6281 160Z" fill="#843928"/>
<path d="M61.4694 159.714H42.6422C42.5026 159.443 42.3575 159.046 42.442 158.611C42.5412 158.104 42.9049 157.796 43.0959 157.609C43.5256 157.184 44.0087 156.424 44.174 154.964C45.2319 155.981 45.9775 156.092 46.455 156.017C46.995 155.931 47.2723 155.594 48.31 154.879C49.0226 154.388 49.6306 154.039 50.0236 153.826C52.7877 154.029 58.0129 154.863 60.8946 158.826C61.0948 159.101 61.2876 159.397 61.4694 159.714Z" fill="#843928"/>
<path d="M12.2312 62.9565C11.3735 66.463 7.66717 68.2712 4.79469 67.1537C2.22893 66.1534 0.70085 62.9638 1.7514 59.9446C1.6761 56.3519 1.98282 46.7117 8.82608 38.6983C10.7398 36.4577 12.7858 34.7869 14.6463 33.5466C14.9126 38.779 15.1771 44.0131 15.4434 49.2454C14.3727 53.8164 13.3019 58.3855 12.2312 62.9565Z" fill="#22130C"/>
<path d="M31.2697 34.0999C29.3559 35.2376 27.4403 36.3771 25.5266 37.5148C23.8387 35.5344 22.1527 33.5521 20.4648 31.5698C22.2721 30.7308 24.0775 29.8917 25.8847 29.0544C27.6791 30.7344 29.4753 32.4181 31.2697 34.0999Z" fill="#B2CAD1"/>
<path d="M30.4521 34.8986C32.3659 36.0363 34.2815 37.1758 36.1953 38.3135C37.8831 36.3313 39.5691 34.3508 41.257 32.3686C39.4498 31.5295 37.6444 30.6922 35.839 29.8531C34.0427 31.535 32.2484 33.2168 30.4521 34.8986Z" fill="#B2CAD1"/>
<path d="M25.3335 37.5166C25.271 37.5166 25.2104 37.491 25.1645 37.4434L20.2956 32.1689C20.2093 32.0755 20.2148 31.9307 20.3085 31.8446C20.4021 31.7585 20.5472 31.7658 20.6317 31.8574L25.5006 37.1319C25.5869 37.2254 25.5814 37.3701 25.4878 37.4562C25.4455 37.4965 25.3886 37.5166 25.3335 37.5166Z" fill="#22130C"/>
<path d="M26.2112 37.744C26.1396 37.744 26.0698 37.711 26.0239 37.6469C25.9486 37.5443 25.9743 37.4014 26.0772 37.3281L30.6118 34.1018C30.7128 34.0286 30.8579 34.0524 30.9314 34.155C31.0048 34.2576 30.9809 34.4005 30.8781 34.4737L26.3435 37.7C26.3049 37.7293 26.2571 37.744 26.2112 37.744Z" fill="#22130C"/>
<path d="M35.5141 38.1358C35.4553 38.1358 35.3965 38.112 35.3525 38.0699L31.7159 34.4516C31.6259 34.3618 31.6259 34.2171 31.7159 34.1273C31.8059 34.0394 31.951 34.0339 32.041 34.1255L35.5269 37.5954C37.3672 36.018 39.2075 34.4406 41.0478 32.8632C41.1433 32.7807 41.2884 32.7917 41.3711 32.8888C41.4537 32.9841 41.4427 33.1288 41.3472 33.2113C39.4536 34.8363 37.5601 36.4577 35.6647 38.0809C35.6206 38.1175 35.5673 38.1358 35.5141 38.1358Z" fill="#22130C"/>
<path d="M31.1872 43.2089C31.598 43.2089 31.931 42.8767 31.931 42.467C31.931 42.0572 31.598 41.725 31.1872 41.725C30.7764 41.725 30.4434 42.0572 30.4434 42.467C30.4434 42.8767 30.7764 43.2089 31.1872 43.2089Z" fill="#22130C"/>
<path d="M31.2692 57.6491C31.68 57.6491 32.0131 57.3169 32.0131 56.9071C32.0131 56.4974 31.68 56.1652 31.2692 56.1652C30.8584 56.1652 30.5254 56.4974 30.5254 56.9071C30.5254 57.3169 30.8584 57.6491 31.2692 57.6491Z" fill="#22130C"/>
<path d="M31.2692 71.1642C31.68 71.1642 32.0131 70.832 32.0131 70.4222C32.0131 70.0124 31.68 69.6802 31.2692 69.6802C30.8584 69.6802 30.5254 70.0124 30.5254 70.4222C30.5254 70.832 30.8584 71.1642 31.2692 71.1642Z" fill="#22130C"/>
<path d="M30.7462 38.7569C30.6195 38.7569 30.5166 38.6543 30.5166 38.5279V35.4702C30.5166 35.3438 30.6195 35.2412 30.7462 35.2412C30.8729 35.2412 30.9758 35.3438 30.9758 35.4702V38.5279C30.9758 38.6562 30.8729 38.7569 30.7462 38.7569Z" fill="#22130C"/>
<path d="M31.2696 55.5733C31.1429 55.5733 31.04 55.4707 31.04 55.3443V44.8723C31.04 44.7459 31.1429 44.6433 31.2696 44.6433C31.3963 44.6433 31.4992 44.7459 31.4992 44.8723V55.3443C31.4992 55.4725 31.3963 55.5733 31.2696 55.5733Z" fill="#22130C"/>
<path d="M31.1866 68.6633C31.0599 68.6633 30.957 68.5607 30.957 68.4343V60.126C30.957 59.9996 31.0599 59.897 31.1866 59.897C31.3133 59.897 31.4162 59.9996 31.4162 60.126V68.4343C31.4162 68.5607 31.3133 68.6633 31.1866 68.6633Z" fill="#22130C"/>
<path d="M14.67 46.4314C14.5745 46.4314 14.4845 46.3728 14.4533 46.2775L11.3531 37.2858C11.3127 37.1668 11.3751 37.0348 11.4963 36.9945C11.612 36.9524 11.7461 37.0165 11.7884 37.1356L14.8886 46.1273C14.929 46.2464 14.8665 46.3783 14.7453 46.4186C14.7196 46.4277 14.6939 46.4314 14.67 46.4314Z" fill="#22130C"/>
<path d="M14.6702 39.8673C14.549 39.8673 14.448 39.772 14.4406 39.6511L14.2092 35.4832C14.2037 35.3568 14.2992 35.2487 14.4259 35.2414C14.5416 35.234 14.6592 35.3311 14.6684 35.4575L14.8998 39.6236C14.9053 39.75 14.8098 39.8581 14.6831 39.8654C14.6775 39.8673 14.6739 39.8673 14.6702 39.8673Z" fill="#22130C"/>
<path d="M40.028 90.003C30.18 89.6696 20.3339 89.3343 10.4859 89.0009C11.3638 75.5079 12.2399 62.0149 13.1178 48.52C12.1517 44.8852 11.1857 41.2504 10.2178 37.6157C11.2573 36.3699 12.7046 34.9042 14.644 33.5485C18.5046 30.8517 22.3542 29.965 24.6316 29.6353C30.2315 39.6675 35.8331 49.7017 41.433 59.734C40.9665 69.8231 40.4982 79.9121 40.028 90.003Z" fill="#22130C"/>
<path d="M47.1631 87.7973C45.1869 88.0647 43.2107 88.3322 41.2345 88.5997C38.2537 77.7412 35.2728 66.8826 32.292 56.0241C33.427 47.0708 34.5621 38.1158 35.6971 29.1626C39.4567 30.8719 43.2181 32.5794 46.9776 34.2887C47.0382 52.1255 47.1007 69.9604 47.1631 87.7973Z" fill="#22130C"/>
<path d="M37.417 64.3048C37.3509 64.3048 37.2866 64.2755 37.2425 64.2242C34.5005 61.0273 31.8631 57.6783 29.4039 54.2652C26.3275 49.9929 23.4459 45.5154 20.8397 40.9499C20.803 40.8876 20.7993 40.8107 20.8287 40.7447L22.0298 38.0278L19.2179 37.2217C19.1463 37.2015 19.0912 37.1484 19.0655 37.0788C19.0398 37.0092 19.0508 36.9322 19.0931 36.8736L24.1676 29.5069C24.2429 29.3988 24.3844 29.3769 24.4872 29.4465C24.5919 29.5198 24.6176 29.6608 24.546 29.7653L19.6514 36.8718L22.41 37.665C22.4743 37.6834 22.5257 37.7273 22.5551 37.7878C22.5826 37.8464 22.5845 37.916 22.5569 37.9783L21.297 40.8308C23.8811 45.345 26.7352 49.7767 29.7785 54.0014C32.067 57.1763 34.5115 60.3 37.0479 63.2917L33.977 45.6766C33.955 45.552 34.0395 45.4329 34.1644 45.4109C34.2893 45.3871 34.4087 45.4732 34.4307 45.5978L37.6448 64.0392C37.6632 64.1418 37.6099 64.2407 37.5162 64.2865C37.4832 64.2975 37.4501 64.3048 37.417 64.3048Z" fill="white"/>
<path d="M37.4167 56.2531C37.3837 56.2531 37.3524 56.2457 37.3212 56.2311C37.2055 56.1798 37.1559 56.0442 37.2074 55.9288C38.2267 53.7102 39.066 51.3945 39.707 49.0458C40.4968 46.1511 40.9963 43.1613 41.1892 40.1567L38.9613 40.5103C38.8732 40.5231 38.8016 40.4938 38.7483 40.4333C38.6969 40.371 38.6803 40.2868 38.7079 40.2117L40.7686 34.1421L36.4286 30.3333C36.3331 30.249 36.3239 30.1061 36.4084 30.009C36.4911 29.9174 36.638 29.9027 36.7317 29.9888L41.1873 33.8984C41.2571 33.9589 41.2828 34.056 41.2534 34.1439L39.2662 39.9973L41.4022 39.6566C41.4738 39.6492 41.5418 39.6657 41.5932 39.7115C41.6446 39.7573 41.6722 39.8269 41.6685 39.8947C41.4867 43.0275 40.9761 46.1457 40.1533 49.1649C39.5068 51.5355 38.6583 53.8732 37.6298 56.1157C37.5875 56.2036 37.503 56.2531 37.4167 56.2531Z" fill="white"/>
<path d="M40.0287 90.232C39.9056 90.232 39.8028 90.133 39.7991 90.0103L39.0626 64.2169C39.0589 64.0905 39.1581 63.9843 39.2867 63.9806C39.4171 63.9806 39.5181 64.0795 39.5218 64.2023L40.2582 89.9957C40.2619 90.1221 40.1627 90.2283 40.0342 90.232H40.0287Z" fill="white"/>
<path d="M43.2607 88.5538C43.1688 88.5538 43.0825 88.4989 43.0476 88.4091L39.5139 79.5347C39.468 79.4193 39.525 79.2837 39.6425 79.2379C39.7582 79.1921 39.8941 79.2489 39.9419 79.3661L43.4755 88.2406C43.5215 88.356 43.4645 88.4915 43.347 88.5373C43.3194 88.5483 43.29 88.5538 43.2607 88.5538Z" fill="white"/>
<path d="M38.7065 90.232C38.6973 90.232 13.991 89.2958 13.991 89.2958C13.8643 89.2903 13.7669 89.184 13.7706 89.0576C13.7761 88.9349 13.8771 88.8378 14.0002 88.8378C14.0094 88.8378 38.7156 89.7739 38.7156 89.7739C38.8423 89.7794 38.9397 89.8857 38.936 90.0121C38.9324 90.1349 38.8295 90.232 38.7065 90.232Z" fill="white"/>
<path d="M28.1728 65.9024C28.1728 66.3274 27.8275 66.67 27.4032 66.67C26.9771 66.67 26.6318 66.3256 26.6318 65.9024C26.6318 65.4773 26.9771 65.1348 27.4032 65.1348C27.8275 65.1348 28.1728 65.4792 28.1728 65.9024Z" fill="white"/>
<path d="M28.1728 77.4554C28.1728 77.8804 27.8275 78.223 27.4032 78.223C26.9771 78.223 26.6318 77.8786 26.6318 77.4554C26.6318 77.0303 26.9771 76.6878 27.4032 76.6878C27.8275 76.6859 28.1728 77.0303 28.1728 77.4554Z" fill="white"/>
<path d="M38.7079 77.4554C38.7079 77.8804 38.3626 78.223 37.9365 78.223C37.5105 78.223 37.167 77.8786 37.167 77.4554C37.167 77.0303 37.5123 76.6878 37.9365 76.6878C38.3626 76.6859 38.7079 77.0303 38.7079 77.4554Z" fill="white"/>
<path d="M38.2949 65.9024C38.2949 66.3274 37.9497 66.67 37.5254 66.67C37.0993 66.67 36.7559 66.3256 36.7559 65.9024C36.7559 65.4773 37.1012 65.1348 37.5254 65.1348C37.9515 65.1348 38.2949 65.4792 38.2949 65.9024Z" fill="white"/>
<path d="M31.1706 46.8857H15.2471V68.4141H31.1706V46.8857Z" fill="#C62B1A"/>
<path d="M26.7565 55.9324C27.0154 57.387 27.2726 58.8399 27.5315 60.2945C24.6701 61.4102 22.389 62.4673 20.815 63.2386C14.936 66.1167 12.4621 68.1595 8.47108 68.154C6.87138 68.1521 5.5784 67.8205 4.74274 67.5439C3.43506 67.445 2.29452 66.6554 1.81699 65.5048C1.23846 64.1088 1.72883 62.4123 3.04753 61.4487C5.21658 60.5546 7.01647 60.06 8.16987 59.7833C14.5521 58.2481 18.0142 59.3547 23.7334 57.2698C25.0962 56.7678 26.1504 56.2493 26.7565 55.9324Z" fill="#FFA58D"/>
<path d="M31.17 61.4359C27.5574 61.9708 23.9466 62.5039 20.334 63.0389C20.7215 61.3442 21.109 59.6496 21.4966 57.955C24.8098 56.2915 28.1231 54.628 31.4364 52.9645C31.8239 53.6625 32.8873 55.7895 32.3914 58.4606C32.1435 59.8017 31.5906 60.8093 31.17 61.4359Z" fill="#FFA58D"/>
<path d="M22.7458 64.4771C17.8329 66.7268 12.9217 68.9766 8.00878 71.2263C6.49724 71.0688 4.36676 70.5558 2.67706 68.9473C-0.549882 65.8768 -0.981495 59.9446 2.05077 54.4943C8.43671 55.4158 14.8208 56.3373 21.2067 57.2588C21.7192 59.6661 22.2316 62.0716 22.7458 64.4771Z" fill="#22130C"/>
<path d="M15.4435 56.6579C15.3976 56.6524 7.27604 54.9944 7.27604 54.9944C7.15115 54.9687 7.07217 54.8497 7.09605 54.7232C7.12176 54.6005 7.24848 54.5199 7.36602 54.5455L15.4876 56.2035C15.6125 56.2292 15.6914 56.3482 15.6676 56.4728C15.6474 56.5827 15.5519 56.6579 15.4435 56.6579Z" fill="white"/>
<path d="M11.9277 69.6601C11.8414 69.6601 11.7569 69.6106 11.7183 69.5263C11.665 69.4109 11.7165 69.2753 11.8322 69.224L14.4585 68.0222C14.5742 67.9691 14.7102 68.0204 14.7634 68.1358C14.8167 68.2512 14.7653 68.3868 14.6496 68.4381L12.0232 69.6399C11.9938 69.6527 11.9607 69.6601 11.9277 69.6601Z" fill="white"/>
<path d="M19.7324 65.3639C19.6222 65.3639 19.5248 65.2851 19.5065 65.1734L18.1676 57.4659C18.1455 57.3414 18.23 57.2223 18.3549 57.2003C18.4871 57.1838 18.5992 57.2626 18.6212 57.3872L19.9601 65.0946C19.9821 65.2192 19.8977 65.3383 19.7728 65.3602C19.7581 65.3621 19.7452 65.3639 19.7324 65.3639Z" fill="white"/>
<path d="M46.9726 85.8222C46.8533 85.8222 46.7523 85.7306 46.7449 85.6116L44.8844 62.0606C44.8752 61.936 44.9689 61.8242 45.0956 61.8133C45.2278 61.8004 45.3325 61.8994 45.3417 62.0239L47.2022 85.5749C47.2114 85.6995 47.1177 85.8112 46.991 85.8222C46.9836 85.8222 46.9781 85.8222 46.9726 85.8222Z" fill="white"/>
<path d="M45.1127 62.2696C44.9639 62.2549 44.8721 62.145 44.885 62.0167L46.7822 43.187C46.7951 43.0624 46.8961 42.9543 47.0338 42.9836C47.1587 42.9964 47.2524 43.1064 47.2395 43.2346L45.3423 62.0644C45.3276 62.1834 45.2284 62.2696 45.1127 62.2696Z" fill="white"/>
<path d="M23.7512 116.96C23.5951 116.94 23.5069 116.826 23.5235 116.7L26.7375 92.7767C26.7541 92.6539 26.8624 92.5605 26.9965 92.5806C27.1214 92.5989 27.2114 92.7125 27.193 92.839L23.9789 116.762C23.9643 116.875 23.8651 116.96 23.7512 116.96Z" fill="white"/>
<path d="M23.7506 151.307C23.6294 151.307 23.5265 151.212 23.521 151.091L21.9856 121.688C21.9801 121.562 22.0756 121.454 22.2041 121.447C22.3327 121.434 22.4392 121.538 22.4447 121.663L23.9801 151.065C23.9857 151.192 23.8901 151.3 23.7616 151.307C23.7616 151.307 23.7542 151.307 23.7506 151.307Z" fill="white"/>
<path d="M61.581 160H42.324C42.0926 160 41.9053 159.811 41.9053 159.582C41.9053 159.352 42.0944 159.165 42.324 159.165H61.581C61.8124 159.165 61.9998 159.353 61.9998 159.582C62.0016 159.811 61.8124 160 61.581 160Z" fill="#22130C"/>
<path d="M29.857 160H16.6663C16.4753 160 16.3174 159.844 16.3174 159.652V159.511C16.3174 159.32 16.4735 159.163 16.6663 159.163H29.857C30.048 159.163 30.2059 159.32 30.2059 159.511V159.652C30.2059 159.843 30.048 160 29.857 160Z" fill="#22130C"/>
<path d="M27.4015 56.625C26.1397 56.7147 24.878 56.8027 23.6162 56.8924C23.776 56.4418 24.0552 55.8207 24.5547 55.1886C25.3096 54.2323 26.1875 53.7285 26.6981 53.4848C29.3318 53.3896 30.6597 53.4445 30.6835 53.6515C30.6927 53.7303 30.5146 53.8311 30.1473 53.952C29.2326 54.8442 28.318 55.7346 27.4015 56.625Z" fill="#FFA58D"/>
<path d="M42.7906 10.723C42.7906 11.2946 37.3928 11.7581 30.7332 11.7581C24.0736 11.7581 18.6758 11.2946 18.6758 10.723C18.6758 10.1514 24.0736 9.68787 30.7332 9.68787C37.3928 9.68787 42.7906 10.1514 42.7906 10.723Z" fill="#22130C"/>
<path d="M37.4172 10.155H23.3652C23.7711 9.00269 24.177 7.5114 24.3699 5.7453C24.6215 3.44242 24.425 1.48213 24.1697 0.0659594C28.3002 0.0439748 32.4308 0.0219846 36.5632 0C36.2767 1.53342 36.0563 3.71723 36.4291 6.28026C36.6477 7.80086 37.0279 9.10529 37.4172 10.155Z" fill="#22130C"/>
<path d="M25.1117 12.6796C25.1117 13.603 24.8894 14.3523 24.6139 14.3523C24.3384 14.3523 24.1162 13.603 24.1162 12.6796C24.1162 11.7563 24.3384 11.007 24.6139 11.007C24.8894 11.007 25.1117 11.7563 25.1117 12.6796Z" fill="#22130C"/>
<path d="M37.3099 12.6796C37.3099 13.603 37.0877 14.3523 36.8122 14.3523C36.5385 14.3523 36.3145 13.603 36.3145 12.6796C36.3145 11.7563 36.5367 11.007 36.8122 11.007C37.0858 11.007 37.3099 11.7563 37.3099 12.6796Z" fill="#22130C"/>
<path d="M23.7321 25.2859C23.6715 25.2859 23.6109 25.2621 23.5668 25.2144C23.4786 25.1228 23.4823 24.9781 23.5741 24.8902C24.0976 24.3937 24.3308 23.9741 24.2481 23.681C24.1582 23.3513 23.6512 23.1534 23.2049 22.9794C22.7109 22.787 22.2462 22.6038 22.2297 22.1916C22.215 21.8197 22.5823 21.6071 22.9368 21.4001C23.1627 21.27 23.4713 21.0905 23.4694 20.9513C23.4676 20.8084 23.148 20.6288 22.9166 20.4988C22.5548 20.2954 22.1452 20.0627 22.1636 19.6652C22.1801 19.3244 22.4997 19.1137 22.7807 18.9269C22.8946 18.8517 23.0837 18.7272 23.1058 18.6667C23.0066 18.6502 22.8982 18.5861 22.8266 18.4469C22.6319 18.075 22.9295 17.6884 23.2178 17.3165C23.3905 17.0912 23.6292 16.7834 23.5833 16.6441C23.5411 16.5159 23.17 16.4628 22.9001 16.4261C22.4556 16.3657 21.9505 16.296 21.7816 15.8912C21.6144 15.4936 21.8697 14.9788 22.1636 14.6307C22.3013 14.464 22.4795 14.3028 22.6742 14.1892C22.5107 13.6542 22.676 13.1577 22.7146 13.0515C22.968 12.3864 23.6182 11.9193 24.4135 11.8368C24.5494 11.8112 24.6541 11.9138 24.6669 12.0402C24.6798 12.1648 24.5879 12.2784 24.463 12.2912C23.8496 12.3553 23.3335 12.7162 23.1462 13.2127C23.1278 13.2603 22.9956 13.6359 23.1076 14.0335C23.1866 14.0243 23.2674 14.0261 23.35 14.0445C23.7523 14.1342 24.0186 14.5721 24.0902 14.8286C24.1361 14.9916 24.1159 15.118 24.0278 15.2023C23.9818 15.2463 23.8955 15.2957 23.7651 15.2756C23.5447 15.2408 23.137 14.9953 22.8725 14.6032C22.7531 14.6802 22.6282 14.7901 22.5162 14.9257C22.237 15.2573 22.1489 15.5797 22.2058 15.7189C22.2738 15.882 22.6411 15.9315 22.9644 15.9773C23.3996 16.0359 23.8918 16.1037 24.0222 16.5067C24.1416 16.875 23.8588 17.2432 23.5851 17.6005C23.4235 17.8093 23.1774 18.1281 23.238 18.2417C23.249 18.2637 23.2692 18.2765 23.317 18.3021C23.396 18.3479 23.5282 18.4249 23.5631 18.6063C23.6255 18.9287 23.3151 19.1339 23.0415 19.3171C22.8799 19.4252 22.6338 19.5864 22.6283 19.6945C22.6227 19.8117 22.9386 19.9895 23.148 20.1085C23.5135 20.3137 23.9249 20.5464 23.9341 20.9494C23.9433 21.3598 23.5337 21.5961 23.1737 21.805C22.9919 21.9113 22.6907 22.0853 22.6944 22.1824C22.698 22.2923 23.1241 22.4609 23.3776 22.5598C23.9231 22.7742 24.542 23.0178 24.6945 23.5674C24.8249 24.0419 24.5549 24.5989 23.8937 25.2309C23.8459 25.2639 23.789 25.2859 23.7321 25.2859Z" fill="#22130C"/>
<path d="M37.0772 24.8646C37.0202 24.8646 36.9615 24.8426 36.9192 24.8005C36.2489 24.1575 35.9881 23.6152 36.1185 23.1388C36.2709 22.5874 36.8898 22.3437 37.4372 22.1312C37.6906 22.0304 38.1149 21.8637 38.1204 21.7538C38.1241 21.6567 37.821 21.4827 37.6392 21.3764C37.2792 21.1676 36.8715 20.9294 36.8807 20.5208C36.8898 20.1178 37.3031 19.8833 37.6686 19.6781C37.878 19.5609 38.1938 19.3831 38.1883 19.2659C38.1828 19.156 37.9386 18.9948 37.7751 18.8867C37.5014 18.7053 37.1911 18.5001 37.2535 18.1758C37.2866 17.9945 37.4206 17.9175 37.4996 17.8717C37.5473 17.8424 37.5676 17.8332 37.5767 17.8131C37.6355 17.6977 37.3912 17.3825 37.2278 17.17C36.9541 16.8146 36.6694 16.4464 36.7907 16.0763C36.9211 15.6732 37.4133 15.6073 37.8486 15.5468C38.1718 15.5029 38.5391 15.4516 38.6071 15.2903C38.664 15.1529 38.574 14.8287 38.2967 14.4952C38.1828 14.3615 38.0598 14.2498 37.9404 14.1746C37.6759 14.5649 37.2682 14.8122 37.0496 14.8452C36.9119 14.8708 36.8311 14.8158 36.7852 14.7719C36.697 14.6858 36.6768 14.5612 36.7227 14.3963C36.7962 14.1417 37.0607 13.7056 37.4629 13.6159C37.54 13.5975 37.6226 13.5939 37.7053 13.6049C37.821 13.2055 37.6851 12.8336 37.6667 12.7859C37.4794 12.2895 36.9615 11.9249 36.3499 11.8608C36.225 11.8479 36.1331 11.7362 36.146 11.6098C36.1589 11.4852 36.2764 11.3826 36.3995 11.4064C37.1947 11.4889 37.8467 11.956 38.0983 12.6229C38.1387 12.7292 38.3077 13.222 38.1406 13.7606C38.3353 13.876 38.5116 14.0354 38.6493 14.2003C38.9432 14.5502 39.1985 15.0668 39.0313 15.4626C38.8624 15.8674 38.3573 15.9371 37.9128 15.9975C37.6429 16.036 37.27 16.0855 37.2296 16.2119C37.1837 16.3548 37.4206 16.6626 37.5933 16.8861C37.8816 17.2598 38.1792 17.6464 37.9845 18.0183C37.9128 18.1575 37.8026 18.2198 37.731 18.2619C37.7255 18.2986 37.9165 18.425 38.0304 18.5001C38.3114 18.687 38.631 18.8995 38.6475 19.2384C38.6658 19.636 38.2563 19.8668 37.8945 20.0702C37.6484 20.2094 37.3435 20.3816 37.3398 20.5245C37.338 20.6619 37.6465 20.8415 37.8706 20.9734C38.2251 21.1786 38.5942 21.3929 38.5795 21.7648C38.563 22.177 38.0983 22.3566 37.6061 22.5508C37.1598 22.7266 36.6529 22.9245 36.5629 23.2543C36.506 23.4576 36.5776 23.8314 37.237 24.4652C37.3288 24.5532 37.3325 24.6979 37.2443 24.7895C37.1966 24.8426 37.1378 24.8646 37.0772 24.8646Z" fill="#22130C"/>
<path d="M36.0392 27.9773C34.423 29.9302 31.9509 30.0695 31.3522 30.1024C30.7075 30.1391 27.8112 30.2124 25.8239 27.9773C24.1177 26.0573 23.7467 23.1791 24.8597 20.6381C26.4539 19.7422 27.2014 19.8045 27.5834 20.0793C28.1987 20.519 27.7763 21.4369 28.5219 22.2503C29.3227 23.1278 30.7075 23.0454 31.1355 23.0179C31.6424 22.9868 32.8711 22.9135 33.3467 22.1166C33.8151 21.3306 33.1502 20.5117 33.547 20.0793C33.8096 19.7917 34.5093 19.7056 36.4268 20.5795C37.7785 23.1187 37.6298 26.0555 36.0392 27.9773Z" fill="#22130C"/>
<path d="M34.9023 20.2771C34.9702 20.6178 34.5809 21.0557 34.1658 21.2316C33.1373 21.6658 32.4614 20.2679 30.8745 20.2789C29.4916 20.2881 28.9038 21.3598 27.8092 20.9549C27.486 20.8359 27.0232 20.5537 27.0489 20.2771C27.1058 19.6725 29.4787 19.4124 30.9994 19.4014C31.3961 19.3995 34.7223 19.3775 34.9023 20.2771Z" fill="#22130C"/>
<path d="M27.7064 19.6305C26.2077 19.6305 24.9863 18.414 24.9863 16.9191C24.9863 15.4241 26.2058 14.2058 27.7064 14.2058C29.205 14.2058 30.4264 15.4241 30.4264 16.9191C30.4264 18.414 29.2069 19.6305 27.7064 19.6305ZM27.7064 14.662C26.4593 14.662 25.4455 15.6751 25.4455 16.9172C25.4455 18.1612 26.4593 19.1707 27.7064 19.1707C28.9534 19.1707 29.9672 18.1594 29.9672 16.9172C29.9672 15.6751 28.9534 14.662 27.7064 14.662Z" fill="white"/>
<path d="M33.8704 19.6305C32.3717 19.6305 31.1504 18.414 31.1504 16.9191C31.1504 15.4241 32.3717 14.2058 33.8704 14.2058C35.3691 14.2058 36.5887 15.4241 36.5887 16.9191C36.5887 18.414 35.3691 19.6305 33.8704 19.6305ZM33.8704 14.662C32.6234 14.662 31.6095 15.6751 31.6095 16.9172C31.6095 18.1612 32.6234 19.1707 33.8704 19.1707C35.1175 19.1707 36.1295 18.1594 36.1295 16.9172C36.1295 15.6751 35.1157 14.662 33.8704 14.662Z" fill="white"/>
<path d="M31.3875 17.148H30.1974C30.0706 17.148 29.9678 17.0454 29.9678 16.9189C29.9678 16.7925 30.0706 16.6899 30.1974 16.6899H31.3875C31.5142 16.6899 31.6171 16.7925 31.6171 16.9189C31.6171 17.0454 31.5142 17.148 31.3875 17.148Z" fill="white"/>
<path d="M36.5982 10.3842H23.3653C23.2386 10.3842 23.1357 10.2816 23.1357 10.1552C23.1357 10.0287 23.2386 9.92615 23.3653 9.92615H36.5982C36.7249 9.92615 36.8278 10.0287 36.8278 10.1552C36.8278 10.2816 36.7231 10.3842 36.5982 10.3842Z" fill="white"/>
</svg>
