<svg width="22" height="24" viewBox="0 0 22 24" fill="none" xmlns="http://www.w3.org/2000/svg">
<path d="M11.0042 11.5609C12.6118 11.5609 14.0038 10.9913 15.1414 9.86733C16.2787 8.74364 16.8555 7.3687 16.8555 5.7803C16.8555 4.19236 16.2789 2.81728 15.1412 1.69317C14.0036 0.569625 12.6116 0 11.0042 0C9.39633 0 8.00454 0.569625 6.86712 1.69336C5.7297 2.81709 5.15287 4.19222 5.15287 5.7803C5.15287 7.3687 5.72965 8.74383 6.86717 9.86756C8.00497 10.9911 9.3969 11.5609 11.0041 11.5609H11.0042ZM7.87391 2.68781C8.74667 1.82555 9.77055 1.40644 11.0042 1.40644C12.2376 1.40644 13.2617 1.82555 14.1346 2.68781C15.0074 3.55022 15.4318 4.56187 15.4318 5.78025C15.4318 6.999 15.0074 8.01052 14.1346 8.87292C13.2617 9.73538 12.2376 10.1545 11.0042 10.1545C9.77088 10.1545 8.7471 9.73519 7.87391 8.87292C7.00092 8.0107 6.5765 6.99905 6.5765 5.7803C6.5765 4.56188 7.00092 3.55022 7.87391 2.68781ZM21.2424 18.4548C21.2095 17.9872 21.1432 17.477 21.0455 16.9384C20.9469 16.3956 20.82 15.8826 20.6679 15.4136C20.5108 14.9289 20.2975 14.4503 20.0333 13.9916C19.7596 13.5156 19.4379 13.101 19.0768 12.7599C18.6992 12.403 18.237 12.1161 17.7025 11.9068C17.1698 11.6986 16.5795 11.5932 15.948 11.5932C15.7 11.5932 15.4602 11.6937 14.997 11.9916C14.6678 12.2034 14.3376 12.4137 14.0064 12.6225C13.6881 12.8229 13.257 13.0106 12.7245 13.1805C12.205 13.3466 11.6775 13.4308 11.1567 13.4308C10.6363 13.4308 10.1088 13.3466 9.58887 13.1805C9.05698 13.0107 8.62568 12.8231 8.30797 12.6227C7.9393 12.39 7.60574 12.1776 7.3164 11.9914C6.8536 11.6935 6.61375 11.5929 6.36578 11.5929C5.73411 11.5929 5.144 11.6986 4.61149 11.907C4.07733 12.1159 3.6149 12.4028 3.23698 12.7601C2.87594 13.1014 2.5542 13.5157 2.28062 13.9916C2.0169 14.4503 1.80339 14.9288 1.64619 15.4138C1.49436 15.8828 1.36743 16.3956 1.26884 16.9384C1.17095 17.4763 1.10481 17.9866 1.07198 18.4554C1.03971 18.9137 1.02344 19.3907 1.02344 19.8726C1.02344 21.1254 1.42655 22.1396 2.2215 22.8876C3.00662 23.6258 4.0453 24 5.30874 24H17.0062C18.2692 24 19.3079 23.6257 20.0932 22.8877C20.8883 22.1402 21.2915 21.1256 21.2915 19.8724C21.2913 19.3889 21.2748 18.9119 21.2424 18.4548ZM19.1117 21.8686C18.5929 22.3564 17.9041 22.5936 17.0059 22.5936H5.30879C4.41046 22.5936 3.7217 22.3564 3.2031 21.8689C2.69436 21.3904 2.44711 20.7373 2.44711 19.8726C2.44711 19.4229 2.4621 18.9789 2.49219 18.5526C2.52141 18.1344 2.58129 17.675 2.67012 17.1868C2.75775 16.7047 2.8693 16.2523 3.00201 15.8427C3.12936 15.4499 3.30302 15.061 3.51839 14.6864C3.72393 14.3293 3.96041 14.0229 4.22138 13.7761C4.4655 13.5452 4.7732 13.3563 5.1357 13.2146C5.47096 13.0834 5.8478 13.0117 6.25684 13.0008C6.30666 13.0271 6.39549 13.077 6.5393 13.1697C6.83196 13.3581 7.16927 13.5731 7.54221 13.8083C7.96259 14.0731 8.50412 14.3123 9.15116 14.5186C9.81263 14.7299 10.4873 14.8372 11.1569 14.8372C11.8266 14.8372 12.5014 14.7299 13.1625 14.5188C13.8101 14.3121 14.3515 14.0731 14.7725 13.808C15.1541 13.567 15.4819 13.3583 15.7746 13.1697C15.9184 13.0772 16.0072 13.027 16.0571 13.0009C16.4663 13.0117 16.8431 13.0834 17.1785 13.2145C17.5409 13.3563 17.8486 13.5454 18.0927 13.7761C18.3536 14.0228 18.5901 14.3291 18.7957 14.6865C19.0112 15.061 19.1851 15.4501 19.3122 15.8425C19.4451 16.2526 19.5569 16.7049 19.6444 17.1866C19.7329 17.6757 19.793 18.1353 19.8223 18.5528V18.5532C19.8525 18.9778 19.8677 19.4216 19.8679 19.8726C19.8677 20.7375 19.6204 21.3904 19.1117 21.8686H19.1117Z" fill="black"/>
</svg>
