<svg width="30" height="22" viewBox="0 0 30 22" fill="none" xmlns="http://www.w3.org/2000/svg">
<g clip-path="url(#clip0_896_501)">
<path d="M20.5057 0H16.1108C15.8194 0 15.5399 0.115893 15.3338 0.322183C15.1278 0.528473 15.012 0.808262 15.012 1.1V1.83333H4.75719C4.56292 1.83333 4.37661 1.9106 4.23924 2.04812C4.10187 2.18565 4.0247 2.37217 4.0247 2.56667V4.03333C4.0247 4.22783 4.10187 4.41435 4.23924 4.55188C4.37661 4.6894 4.56292 4.76667 4.75719 4.76667H8.78587V8.129C8.66601 8.17175 8.55448 8.23503 8.45625 8.316L4.42757 11.616C4.3112 11.7059 4.21403 11.8182 4.14181 11.9464C4.06959 12.0745 4.02378 12.2159 4.0071 12.3621C3.99042 12.5083 4.00321 12.6563 4.0447 12.7975C4.0862 12.9387 4.15556 13.07 4.24869 13.1839C4.34181 13.2977 4.4568 13.3917 4.58685 13.4603C4.7169 13.5288 4.85937 13.5705 5.00582 13.583C5.15226 13.5954 5.29972 13.5783 5.43945 13.5327C5.57918 13.4871 5.70834 13.4138 5.8193 13.3173L9.15212 10.5893L12.4849 13.3173C12.5959 13.4138 12.7251 13.4871 12.8648 13.5327C13.0045 13.5783 13.152 13.5954 13.2984 13.583C13.4449 13.5705 13.5873 13.5288 13.7174 13.4603C13.8474 13.3917 13.9624 13.2977 14.0555 13.1839C14.1487 13.07 14.218 12.9387 14.2595 12.7975C14.301 12.6563 14.3138 12.5083 14.2971 12.3621C14.2805 12.2159 14.2346 12.0745 14.1624 11.9464C14.0902 11.8182 13.993 11.7059 13.8767 11.616L9.84798 8.316C9.74975 8.23503 9.63822 8.17175 9.51836 8.129V4.76667H15.012V5.5C15.012 5.79174 15.1278 6.07153 15.3338 6.27782C15.5399 6.48411 15.8194 6.6 16.1108 6.6V7.7C16.1108 7.89449 16.1879 8.08102 16.3253 8.21854C16.4627 8.35607 16.649 8.43333 16.8432 8.43333V19.0667H15.7445C15.356 19.0667 14.9834 19.2212 14.7086 19.4962C14.4339 19.7713 14.2795 20.1444 14.2795 20.5333V21.2667C14.2795 21.4612 14.3567 21.6477 14.4941 21.7852C14.6314 21.9227 14.8178 22 15.012 22H21.6044C21.7987 22 21.985 21.9227 22.1224 21.7852C22.2597 21.6477 22.3369 21.4612 22.3369 21.2667V20.5333C22.3369 20.1444 22.1826 19.7713 21.9078 19.4962C21.6331 19.2212 21.2605 19.0667 20.8719 19.0667H19.7732V8.43333C19.9675 8.43333 20.1538 8.35607 20.2911 8.21854C20.4285 8.08102 20.5057 7.89449 20.5057 7.7V6.6C20.7971 6.6 21.0765 6.48411 21.2826 6.27782C21.4887 6.07153 21.6044 5.79174 21.6044 5.5V4.76667H22.8057C22.8696 4.8775 22.9614 4.96966 23.0719 5.03399C23.1824 5.09831 23.3078 5.13256 23.4356 5.13333H25.2669C25.4611 5.13333 25.6474 5.05607 25.7848 4.91854C25.9222 4.78102 25.9993 4.59449 25.9993 4.4V2.2C25.9993 2.00551 25.9222 1.81898 25.7848 1.68146C25.6474 1.54393 25.4611 1.46667 25.2669 1.46667H23.4356C23.3078 1.46744 23.1824 1.50169 23.0719 1.56601C22.9614 1.63034 22.8696 1.7225 22.8057 1.83333H21.6044V1.1C21.6044 0.808262 21.4887 0.528473 21.2826 0.322183C21.0765 0.115893 20.7971 0 20.5057 0ZM13.4115 12.1843C13.4491 12.2144 13.4804 12.2515 13.5037 12.2937C13.5269 12.3358 13.5417 12.3821 13.547 12.43C13.5512 12.478 13.546 12.5263 13.5315 12.5722C13.5171 12.6181 13.4937 12.6608 13.4628 12.6977C13.4013 12.7721 13.313 12.8193 13.217 12.8289C13.121 12.8385 13.0251 12.8098 12.9501 12.749L9.38285 9.81567C9.3176 9.76267 9.23614 9.73375 9.15212 9.73375C9.0681 9.73375 8.98663 9.76267 8.92138 9.81567L5.35417 12.749C5.27918 12.8098 5.18326 12.8385 5.08725 12.8289C4.99125 12.8193 4.9029 12.7721 4.84143 12.6977C4.81052 12.6608 4.78717 12.6181 4.77272 12.5722C4.75826 12.5263 4.75299 12.478 4.75719 12.43C4.76256 12.3821 4.77729 12.3358 4.80054 12.2937C4.82379 12.2515 4.85511 12.2144 4.8927 12.1843L8.92138 8.88433C8.98663 8.83134 9.0681 8.80242 9.15212 8.80242C9.23614 8.80242 9.3176 8.83134 9.38285 8.88433L13.4115 12.1843ZM23.4356 2.2H25.2669V4.4H23.4356V2.2ZM9.6905 2.56667H10.9357L9.71247 4.03333H8.46724L9.6905 2.56667ZM7.51501 4.03333H6.26978L7.49303 2.56667H8.73826L7.51501 4.03333ZM11.888 2.56667H13.1332L11.9099 4.03333H10.6647L11.888 2.56667ZM4.75719 2.56667H6.5408L5.31754 4.03333H4.75719V2.56667ZM12.8622 4.03333L14.0854 2.56667H15.012V4.03333H12.8622ZM21.6044 20.5333V21.2667H15.012V20.5333C15.012 20.3388 15.0892 20.1523 15.2266 20.0148C15.3639 19.8773 15.5502 19.8 15.7445 19.8H20.8719C21.0662 19.8 21.2525 19.8773 21.3899 20.0148C21.5272 20.1523 21.6044 20.3388 21.6044 20.5333ZM19.0407 19.0667H17.5757V8.43333H19.0407V19.0667ZM19.7732 7.7H16.8432V6.6H19.7732V7.7ZM20.8719 5.5C20.8719 5.59725 20.8333 5.69051 20.7647 5.75927C20.696 5.82804 20.6028 5.86667 20.5057 5.86667H16.1108C16.0136 5.86667 15.9205 5.82804 15.8518 5.75927C15.7831 5.69051 15.7445 5.59725 15.7445 5.5V1.1C15.7445 1.00275 15.7831 0.909491 15.8518 0.840728C15.9205 0.771964 16.0136 0.733333 16.1108 0.733333H20.5057C20.6028 0.733333 20.696 0.771964 20.7647 0.840728C20.8333 0.909491 20.8719 1.00275 20.8719 1.1V5.5ZM22.7031 2.56667V4.03333H21.6044V2.56667H22.7031Z" fill="#244A65"/>
<path d="M19.4066 1.4668H17.2091C17.0148 1.4668 16.8285 1.54406 16.6912 1.68159C16.5538 1.81911 16.4766 2.00564 16.4766 2.20013V2.93346C16.4766 3.12796 16.5538 3.31448 16.6912 3.45201C16.8285 3.58954 17.0148 3.6668 17.2091 3.6668H19.4066C19.6008 3.6668 19.7871 3.58954 19.9245 3.45201C20.0619 3.31448 20.1391 3.12796 20.1391 2.93346V2.20013C20.1391 2.00564 20.0619 1.81911 19.9245 1.68159C19.7871 1.54406 19.6008 1.4668 19.4066 1.4668ZM19.4066 2.93346H17.2091V2.20013H19.4066V2.93346ZM5.12305 15.4368V21.2668C5.12305 21.4613 5.20022 21.6478 5.33759 21.7853C5.47496 21.9229 5.66127 22.0001 5.85554 22.0001H12.4479C12.6422 22.0001 12.8285 21.9229 12.9659 21.7853C13.1032 21.6478 13.1804 21.4613 13.1804 21.2668V15.4368C13.1807 15.3338 13.1593 15.232 13.1177 15.1379C13.076 15.0437 13.015 14.9594 12.9387 14.8905L9.6425 11.9205C9.50791 11.7988 9.33304 11.7315 9.15173 11.7315C8.97043 11.7315 8.79556 11.7988 8.66097 11.9205L5.36477 14.8905C5.28843 14.9594 5.22746 15.0437 5.18581 15.1379C5.14416 15.232 5.12278 15.3338 5.12305 15.4368ZM9.51798 21.2668H7.68676V17.6295C7.68755 17.622 7.6909 17.615 7.69623 17.6096C7.70156 17.6043 7.70856 17.6009 7.71606 17.6001H9.48868C9.49618 17.6009 9.50318 17.6043 9.50851 17.6096C9.51384 17.615 9.51718 17.622 9.51798 17.6295V21.2668ZM5.85554 15.4368L9.15173 12.4668L12.4479 15.4368V21.2668H10.2505V17.6295C10.2505 17.4272 10.1702 17.2332 10.0273 17.0902C9.88448 16.9472 9.69072 16.8668 9.48868 16.8668H7.71606C7.51402 16.8668 7.32025 16.9472 7.17739 17.0902C7.03453 17.2332 6.95427 17.4272 6.95427 17.6295V21.2668H5.85554V15.4368Z" fill="#244A65"/>
</g>
<defs>
<clipPath id="clip0_896_501">
<rect width="30" height="22" fill="white"/>
</clipPath>
</defs>
</svg>
