<svg width="500" height="309" viewBox="0 0 500 309" fill="none" xmlns="http://www.w3.org/2000/svg">
<path d="M388.21 208.435C399.339 202.462 412.063 195.326 414.356 182.905C417.276 167.095 401.312 153.34 401.157 137.264C401.06 127.039 407.443 117.48 406.829 107.274C406.105 95.3165 396.231 86.2219 387.08 78.4947C371.042 64.9538 355.001 51.4129 338.963 37.8719C334.785 34.3467 330.132 30.6338 324.669 30.5626C321.059 30.5151 317.502 32.1033 313.932 31.5953C311.377 31.2321 309.106 29.8362 306.917 28.4712C298.478 23.2058 289.941 17.862 283.083 10.6572C280.687 8.1384 278.479 5.37988 275.621 3.40239C265.017 -3.93544 250.598 1.96142 239.336 8.24522C218.006 20.1529 196.268 34.1781 185.139 55.9234C186.853 49.877 180.388 44.0228 174.105 43.8875C167.823 43.7522 162.157 47.4081 157.015 51.0212C130.507 69.6542 105.859 90.9366 83.5604 114.443C80.5811 117.584 77.5686 120.884 76.092 124.957C73.5519 131.977 76.0706 139.797 79.3989 146.482C82.7248 153.167 86.9408 159.653 87.9948 167.047C89.0489 174.44 85.6543 183.216 78.4446 185.16C69.6112 187.542 58.0762 179.468 52.1366 186.423C50.2137 188.674 49.8006 191.803 49.4659 194.742C48.5472 202.787 47.6309 210.83 46.7122 218.875C46.349 222.07 45.9524 225.365 44.3548 228.155C40.7511 234.453 32.6062 236.051 26.1824 239.424C12.0836 246.828 5.89701 263.367 0.876132 278.48C0.182943 280.567 -0.493587 282.924 0.503466 284.882C1.13019 286.11 2.30997 286.941 3.44234 287.722C12.3588 293.868 20.428 303.159 31.7516 300.574C44.0368 297.77 55.396 291.7 67.1707 287.392C81.6256 282.103 98.3215 279.178 111.986 286.262C123.825 292.401 132.751 305.642 146.083 305.951C156.407 306.191 164.882 298.421 174.026 293.628C176.673 292.242 179.581 291.059 182.565 291.28C185.661 291.508 188.422 293.203 191.316 294.324C201.808 298.39 213.721 294.798 223.689 289.573C228.736 286.926 234.03 283.762 239.692 284.403C242.918 284.768 245.857 286.349 248.877 287.539C267.21 294.753 288.203 287.472 307.484 291.527C312.885 292.664 318.259 294.699 323.753 294.134C328.147 293.683 332.185 291.601 336.1 289.557C343.423 285.732 350.747 281.908 358.07 278.083C362.73 275.65 367.692 272.915 369.971 268.179C374.821 258.107 364.846 246.982 364.843 235.804C364.832 223.17 377.079 214.407 388.21 208.435Z" fill="#E2C3A3"/>
<path d="M357.133 242.197C357.916 242.624 358.692 243.068 359.511 243.426C358.773 242.93 357.971 242.486 357.133 242.197Z" fill="#C4A283"/>
<path d="M452.181 222.621C447.193 213.007 440.85 203.829 438.614 193.229C437.709 188.952 437.489 184.479 435.801 180.443C430.628 168.068 413.661 163.724 409.013 151.139C406.259 143.681 408.664 135.431 408.792 127.481C408.916 119.823 406.829 112.14 402.845 105.598C396.455 116.511 390.062 127.424 383.671 138.334C382.314 140.654 380.362 143.294 377.686 143.035C376.521 142.923 375.479 142.242 374.332 142.009C373.183 141.774 371.683 142.282 371.566 143.448C379.441 149.302 389.274 152.476 399.085 152.329C400.54 152.307 402.034 152.222 403.411 152.687C406.687 153.796 408.168 157.499 409.248 160.785C410.376 164.203 411.501 167.624 412.629 171.045C413.272 172.999 413.922 174.988 413.965 177.044C414.039 180.405 412.474 183.613 410.456 186.3C404.196 194.632 393.958 198.742 384.329 202.725C374.75 206.687 365.126 210.989 357.2 217.671C354.517 219.934 351.898 222.54 348.504 223.433C345.107 224.323 340.71 222.564 340.311 219.077C342.042 228.791 348.473 237.482 357.123 242.192C357.964 242.481 358.764 242.925 359.502 243.422C358.683 243.063 357.907 242.619 357.123 242.192C356.359 241.926 355.564 241.786 354.757 241.886C353.071 242.094 351.478 243.68 351.825 245.344C351.982 246.109 352.502 246.75 353.062 247.298C357.492 251.661 365.777 253.247 366.375 259.438C366.805 263.892 362.633 267.28 358.911 269.76C346.84 277.808 334.709 285.765 322.523 293.637C332.299 296.524 342.137 299.211 352.024 301.695C353.779 302.136 355.647 302.566 357.363 301.989C359.075 301.412 360.431 299.399 359.638 297.773C366.045 291.824 371.661 293.443 380.146 295.563C383.752 296.462 387.125 298.112 390.681 299.195C407.026 304.166 424.183 296.709 440.525 291.733C449.842 288.897 461.197 286.72 469.237 292.218C476.01 290.786 482.645 288.697 489.017 285.989C494.216 283.778 500.056 279.747 499.384 274.138C498.634 267.873 490.809 265.777 484.635 264.471C475.082 262.451 465.869 258.819 457.505 253.779C460.914 243.5 457.168 232.236 452.181 222.621Z" fill="#C4A283"/>
<path d="M321.297 247.88C324.777 244.912 334.574 238.657 325.261 237.881C318.683 237.335 309.633 244.765 304.064 247.73C299.138 250.353 294.129 253.036 290.217 257.012C287.117 260.16 284.826 263.996 282.561 267.792C279.406 273.091 276.249 278.387 273.094 283.686C262.079 281.421 251.002 278.788 241.003 273.644C231.004 268.5 222.061 260.559 217.741 250.178C216.962 262.688 218.434 275.334 222.066 287.327C213.46 292.149 202.785 293.113 193.455 289.905C190.735 288.97 188.031 287.622 186.293 285.331C184.031 282.352 183.786 278.292 184.294 274.586C185.227 267.818 188.415 261.383 193.239 256.544C189.595 253.005 183.027 255.659 180.541 260.089C178.056 264.521 178.21 269.879 177.567 274.916C176.966 279.629 175.653 284.595 177.483 288.977C179.872 294.694 186.535 297.075 192.472 298.831C195.369 299.688 198.319 300.553 201.337 300.488C205.133 300.408 208.715 298.869 212.321 297.678C230.821 291.551 250.916 294.283 270.283 296.465C277.794 297.31 285.847 297.965 292.489 294.364C291.634 290.323 284.733 290.397 283.532 286.447C282.907 284.4 284.182 282.297 285.469 280.588C295.309 267.555 309.004 258.361 321.297 247.88Z" fill="#C4A283"/>
<path d="M113.199 304.989C122.18 305.184 131.137 306.419 139.835 308.664C143.391 309.583 149.713 308.569 152.512 306.186C149.763 302.072 146.676 297.69 141.976 296.135C136.941 294.468 130.372 296.116 126.994 292.028C123.711 288.059 126.325 282.098 129.273 277.877C135.12 269.506 142.073 261.907 149.898 255.346C145.444 249.807 136.521 250.652 130.401 254.263C124.281 257.874 119.566 263.548 113.375 267.033C104.52 272.02 93.3222 271.909 83.9404 268.004C74.5586 264.098 66.9004 256.73 61.3288 248.233C60.0089 259.177 58.6936 270.121 57.3761 281.065C57.2408 282.174 57.0984 283.313 56.5571 284.289C56.0254 285.253 55.1517 285.977 54.2591 286.62C46.6791 292.099 36.6659 293.298 27.417 291.895C18.1705 290.492 9.47003 286.734 0.890625 283.012C10.2178 299.062 30.769 307.658 48.7445 303.026C48.9866 306.791 54.5132 308.857 57.1625 306.172C63.8997 299.349 70.8339 296.052 79.8169 292.695C88.7975 289.338 98.9817 288.239 107.939 291.667C108.959 292.056 109.997 292.533 110.673 293.39C113.28 296.688 109.306 303.399 113.199 304.989Z" fill="#C4A283"/>
<path d="M73.7156 215.67C73.4854 215.476 73.2623 215.255 72.9751 215.172C72.1751 214.934 71.534 215.806 71.0616 216.489C68.7043 219.901 64.1037 221.178 59.9921 220.651C55.878 220.126 52.1224 218.111 48.514 216.067C47.5763 220.145 44.1602 227.625 48.7324 230.446C52.4238 232.72 60.8039 231.234 65.445 233.147C66.9857 233.783 68.6069 234.55 70.2473 234.251C71.1874 234.08 72.0207 233.572 72.835 233.074C75.8095 231.248 78.7865 229.422 81.761 227.595C83.6269 226.45 85.5094 225.292 87.0928 223.784C88.7261 222.227 90.0033 220.34 91.2615 218.469C93.8705 214.597 96.477 210.725 99.0859 206.851C94.8128 206.704 90.8152 208.947 87.475 211.62C85.4382 213.254 83.5059 215.096 81.1225 216.164C78.7414 217.232 75.7098 217.358 73.7156 215.67Z" fill="#C4A283"/>
<path d="M296.726 174.356C298.013 176.82 299.48 179.254 301.581 181.074C303.425 182.672 305.673 183.724 307.886 184.752C313.206 187.223 318.526 189.697 323.848 192.17C325.624 192.996 327.549 193.841 329.472 193.476C331.613 193.07 333.178 191.282 334.567 189.602C341.306 181.445 348.07 173.262 353.708 164.307C358.078 157.371 361.867 149.157 359.856 141.209C359.49 139.761 358.911 138.325 357.883 137.242C357.01 136.323 355.868 135.716 354.75 135.122C346.125 130.559 337.503 125.997 328.881 121.434C330.949 125.432 336.907 126.12 338.942 130.135C340.82 133.836 338.424 138.147 336.478 141.81C334.531 145.473 333.263 150.66 336.513 153.242C337.382 153.933 338.562 154.425 338.885 155.488C339.212 156.568 338.467 157.653 337.767 158.539C333.686 163.695 329.605 168.853 325.527 174.012C324.627 175.149 323.682 176.327 322.369 176.941C319.043 178.503 315.35 175.878 312.617 173.423C302.675 164.488 293.065 156.34 291.57 142.541C291.292 139.986 292.016 135.692 289.065 135.025C286.148 134.365 275.75 146.045 273.435 148.051C271.736 149.522 270.017 151.018 268.733 152.863C267.496 154.645 266.693 156.711 265.393 158.451C263.095 161.52 259.5 163.27 256.227 165.259C246.216 171.344 238.211 180.669 233.712 191.484C240.594 182.61 249.85 175.595 260.253 171.365C253.269 179.572 246.285 187.778 239.301 195.985C236.73 199.007 233.978 202.157 230.23 203.463C227.55 204.398 224.63 204.282 221.793 204.116C200.919 202.877 181.308 198.105 160.984 193.891C166.383 204.536 174.036 206.108 184.541 208.306C199.478 211.43 214.346 214.939 229.24 218.25C231.55 218.763 233.933 219.281 236.259 218.858C238.368 218.476 240.255 217.355 242.092 216.254C247.192 213.194 252.293 210.136 257.392 207.079C267.605 200.956 277.927 194.746 286.333 186.314C288.802 183.838 291.207 180.923 291.491 177.438C291.672 175.216 290.962 173.032 290.34 170.893C287.931 162.612 286.718 153.985 286.729 145.363L288.745 145.831C289.379 155.756 292.123 165.542 296.726 174.356Z" fill="#C4A283"/>
<path d="M349.911 46.8049C347.914 53.668 340.615 57.5043 336.909 63.6148C331.81 72.028 334.214 83.4727 328.999 91.8171C323.579 100.489 312.142 102.697 302.012 104.095C301.896 106.616 304.255 108.682 306.722 109.213C309.188 109.745 311.738 109.154 314.221 108.71C321.355 107.438 328.707 107.393 335.852 108.579C339.632 109.206 343.717 110.134 347.134 108.399C350.203 106.842 351.896 103.54 353.529 100.508C357 94.0771 361.08 87.9761 365.695 82.3095C367.822 79.7029 370.355 77.0228 373.688 76.5717C379.253 75.8192 386.237 82.0887 384.447 72.9135C383.41 67.6054 378.866 60.2177 375.141 56.3861C368.758 49.8103 358.986 48.1367 349.911 46.8049Z" fill="#C4A283"/>
<path d="M287.492 20.2786C280.997 19.4904 275.257 24.1243 270.134 28.1956C256.045 39.4006 240.336 48.3599 224.695 57.2716C216.583 61.8937 208.471 66.5157 200.359 71.1378C218.271 60.9322 245.148 59.7096 265.106 61.4402C269.773 61.8438 274.583 63.9115 278.996 64.2415C283.891 64.6071 285.337 62.3613 288.909 58.8598C296.71 51.2086 305.204 44.3075 314.37 38.349C303.371 37.2736 298.462 21.6103 287.492 20.2786Z" fill="#C4A283"/>
<path d="M169.56 63.1659C166.935 59.3581 166.74 54.4298 166.712 49.803C164.107 59.878 161.508 69.953 158.904 80.0279C158.315 82.3045 157.724 84.5883 156.843 86.7675C155.751 89.4691 154.229 91.9736 152.969 94.6015C150.64 99.4539 149.213 104.738 148.781 110.101C149.135 105.683 158.305 96.3298 161.221 92.9137C165.76 87.6008 169.487 86.9171 176.103 86.4399C180.559 86.1171 185.815 85.4975 187.241 80.0802C188.737 74.3993 182.351 70.8218 181.518 65.611C178.173 68.8063 172.186 66.9737 169.56 63.1659Z" fill="#C4A283"/>
<path d="M149.864 259.101C149.874 259.08 149.876 259.054 149.888 259.032C149.817 259.056 149.743 259.07 149.672 259.092C149.734 259.101 149.8 259.092 149.864 259.101Z" fill="#A07F65"/>
<path d="M175.094 279.177C175.148 280.523 175.229 281.862 175.336 283.168C175.346 281.838 175.248 280.504 175.094 279.177Z" fill="#A07F65"/>
<path d="M179.546 262.503C183.159 258.769 188.619 257.589 193.768 256.891C196.957 256.459 200.309 256.163 203.3 257.347C207.231 258.907 209.755 262.686 212.029 266.252C216.15 272.721 220.273 279.192 224.395 285.661C219.775 269.414 215.215 251.678 221.65 236.06C209.455 244.124 195.881 250.1 181.695 253.642C178.283 254.494 174.466 255.154 171.42 253.397C168.859 251.92 167.472 249.084 165.708 246.71C163.145 243.256 159.631 240.642 156.697 237.499C153.763 234.356 151.311 230.308 151.7 226.026C151.93 223.488 153.136 221.142 154.52 219.003C157.879 213.819 162.432 209.413 167.726 206.229C163.99 204.465 161.837 200.309 161.414 196.199C160.989 192.09 162.027 187.981 163.178 184.014C167.152 170.345 172.64 157.115 179.515 144.649C170.29 155.527 163.175 168.187 158.682 181.723C154.344 169.543 148.675 157.832 141.81 146.876C142.083 159.938 146.335 172.89 153.855 183.572C146.665 189.137 139.324 194.701 130.942 198.224C122.56 201.75 112.895 203.074 104.354 199.957C98.6162 197.864 93.7639 193.942 88.5578 190.751C85.2058 188.698 81.0633 186.343 77.0775 186.329C75.3754 192.285 91.2665 199.974 95.3212 202.832C97.0993 204.083 99.0981 205.852 98.6708 207.984C98.4477 209.085 97.6098 209.94 96.8074 210.726C93.6595 213.816 90.5093 216.91 87.3567 219.998C81.4337 225.81 74.3118 232.067 66.0624 231.151C59.9851 230.477 54.0147 225.904 48.3125 228.115C57.7536 227.827 67.2186 232.335 72.9469 239.844C79.4111 231.372 88.2706 225.102 96.9853 218.97C101.925 215.495 107.098 211.92 113.062 210.968C116.141 210.476 119.293 210.716 122.375 211.186C126.273 211.782 130.301 212.85 133.169 215.557C135.581 217.833 136.896 221.009 138.145 224.084C141.71 232.867 145.278 241.648 148.844 250.432C149.962 253.183 151.073 256.315 149.891 259.03C150.553 258.819 151.227 258.634 151.918 258.506C158.29 257.312 165.037 260.22 169.272 265.131C172.636 269.034 174.494 274.036 175.105 279.178C174.851 273.065 175.408 266.779 179.546 262.503Z" fill="#A07F65"/>
<path d="M136.578 268.324C140.481 264.616 144.654 260.765 149.685 259.092C143.857 258.261 137.734 262.539 136.578 268.324Z" fill="#A07F65"/>
<path d="M165.484 64.8921C165.285 62.8908 165.088 60.8896 164.836 58.8955C164.85 60.911 165.109 62.9122 165.484 64.8921Z" fill="#A07F65"/>
<path d="M139.762 139.59C147.238 128.677 153.534 116.957 158.5 104.698C160.29 100.276 161.961 95.6938 165.007 92.0237C166.505 90.2195 168.895 88.5625 171.044 89.5026C173.183 90.4379 173.589 93.2392 173.722 95.5704C174.529 109.776 176.482 123.918 179.561 137.81C186.332 134.866 191.911 129.774 198.247 125.99C204.585 122.206 212.531 119.754 219.296 122.697C233.096 128.699 248.624 123.59 263.057 127.856C257.861 123.766 251.724 120.874 245.26 119.469C239.503 118.218 233.538 118.137 227.795 116.815C222.95 115.699 218.349 113.722 213.834 111.642C205.224 107.68 196.552 103.236 187.111 102.374C184.862 102.168 182.534 102.158 180.454 101.277C174.899 98.9295 173.997 89.9299 178.973 86.5257C171.936 81.3838 167.108 73.4382 165.482 64.8896C165.828 68.3651 166.125 71.8453 166.31 75.3326C166.429 77.5356 166.502 79.8217 165.674 81.868C164.85 83.9025 163.226 85.4883 161.645 87.01C154.744 93.6522 147.843 100.297 140.937 106.942C139.477 108.347 137.925 109.805 135.966 110.317C132.206 111.298 126.601 109.356 125.403 113.05C126.06 112.368 124.614 114.766 125.269 114.085C125.148 117.344 125.027 120.604 124.906 123.863C130.915 127.958 136.019 133.361 139.762 139.59Z" fill="#A07F65"/>
<path d="M286.083 43.1492C284.802 41.0768 283.239 39.1349 281.68 37.2595C282.506 39.6382 284.099 41.6181 286.083 43.1492Z" fill="#A07F65"/>
<path d="M289.641 56.0515C295.407 51.7072 301.171 47.3629 306.938 43.021C303.415 45.2121 299.405 46.5772 295.286 46.4585C291.987 46.3635 288.699 45.1552 286.097 43.1492C287.267 45.0436 288.205 47.0496 288.663 49.2289C289.622 53.7939 287.806 59.2967 283.462 60.9965C261.669 56.1869 238.516 57.737 217.559 65.4048C211.79 67.5153 206.195 70.0744 200.398 72.1017C199.353 72.4673 198.197 72.8163 197.162 72.4246C196.196 72.0614 195.572 71.1426 195.009 70.2762C192.326 66.1408 189.77 61.8511 186.859 57.889C184.906 64.4766 198.774 75.8834 190.223 80.0568C187.27 81.4978 184.82 83.9429 183.367 86.8937C198.921 79.1855 214.981 72.5053 231.411 66.9075C236.897 65.0369 242.518 63.273 248.313 63.1235C253.752 62.9834 259.112 64.2749 264.399 65.5592C270.669 67.0808 276.936 68.6002 283.205 70.1218C284.765 70.5017 286.412 70.9242 287.554 72.0542C288.594 73.0845 289.06 74.5421 289.487 75.9427C291.369 82.0889 293.254 88.2374 295.139 94.3835C292.775 82.9933 290.41 71.6008 288.048 60.2107C287.889 59.4391 287.73 58.6225 287.998 57.8818C288.278 57.0984 288.976 56.5524 289.641 56.0515Z" fill="#A07F65"/>
<path d="M306.922 43.0213C308.37 42.1192 309.747 41.0913 311.003 39.947C309.642 40.9702 308.28 41.9957 306.922 43.0213Z" fill="#A07F65"/>
<path d="M368.644 82.3381C370.09 81.2579 371.635 80.2633 373.359 79.7315C378.377 78.1861 383.631 80.7903 388.844 81.4217C384.26 77.2056 380.447 72.1563 377.644 66.5941C375.661 67.5698 373.226 66.3377 371.847 64.6119C370.47 62.886 369.75 60.7234 368.518 58.8907C364.746 53.2906 357.23 51.928 350.536 51.0496C343.412 50.1143 337.873 58.9453 335.473 64.8113C346.301 58.7649 357.176 48.4952 368.644 61.8035C364.742 71.1046 360.3 80.1825 355.348 88.9709C353.365 92.4914 351.26 96.0167 348.314 98.7823C340.323 106.286 328.185 106.64 317.222 106.557C309.697 106.5 300.828 105.721 296.935 99.2809C296.968 103.927 296.999 108.572 297.032 113.218C287.418 121.038 274.947 125.266 262.562 124.903C270.945 126.536 279.325 128.172 287.71 129.805C293.409 121.489 302.616 116.055 312.292 113.223C321.965 110.389 332.166 109.933 342.248 109.89C344.573 109.88 347.096 109.959 348.905 111.419C353.138 114.833 350.241 122.664 354.196 126.394C349.403 110.645 355.455 92.1923 368.644 82.3381Z" fill="#A07F65"/>
<path d="M356.985 161.535C358.564 157.39 359.801 152.664 363.492 150.209C367.646 147.45 373.235 148.718 377.828 150.66C382.424 152.602 387.077 155.18 392.046 154.755C397.188 154.318 401.622 150.594 404.096 146.064C406.569 141.537 407.357 136.286 407.704 131.137C408.138 124.651 407.932 118.123 407.087 111.675C406.861 109.968 404.981 107.787 403.994 109.197C405.658 117.349 407.317 125.805 405.439 133.909C403.562 142.014 397.1 149.689 388.796 150.157C383.203 150.472 377.985 147.595 373.128 144.806C365.795 140.597 355.846 136.293 357.645 126.422C357.799 125.567 358.025 124.67 357.738 123.849C357.327 122.674 356.052 122.094 354.984 121.458C353.915 120.82 352.84 119.682 353.213 118.495C351.565 123.735 352.669 129.983 351.876 135.379C351.095 140.72 349.666 145.884 349.246 151.334C351.544 150.75 353.747 153.084 353.951 155.446C354.16 157.808 353.011 160.051 351.898 162.145C350.196 165.336 348.493 168.529 346.794 171.719C343.328 178.217 338.938 185.419 331.7 186.76C327.486 187.541 323.209 186.093 319.199 184.576C314.033 182.625 308.825 180.465 304.637 176.866C293.665 167.432 292.495 151.078 285.646 138.332C286.975 147.284 288.305 156.236 289.634 165.188C290.123 168.476 290.605 171.873 289.746 175.083C288.212 180.804 282.887 184.546 277.933 187.791C262.908 197.635 247.884 207.478 232.859 217.322C228.322 214.201 222.658 213.315 217.208 212.513C200.809 210.096 184.409 207.68 168.008 205.263C187.894 209.94 207.994 214.794 226.086 224.278C226.625 224.561 227.185 224.869 227.499 225.389C229.31 228.416 221.158 229.558 221.792 233.028C243.209 219.663 264.629 206.298 286.047 192.933C287.835 191.817 289.651 190.689 291.671 190.098C293.838 189.464 296.141 189.479 298.391 189.673C309.677 190.649 320.07 195.948 330.134 201.146C331.266 201.733 332.46 202.376 333.084 203.485C333.604 204.406 333.647 205.507 333.683 206.561C333.877 212.769 334.074 218.975 334.269 225.183C335.404 223.749 336.536 222.317 337.671 220.883C339.166 213.835 338.288 206.3 335.204 199.786C334.551 198.402 333.78 196.968 333.908 195.444C334.039 193.868 335.1 192.546 336.123 191.342C344.021 182.058 352.643 172.93 356.985 161.535Z" fill="#A07F65"/>
<path d="M433.589 171.207C428.786 167.332 416.986 153.806 410.918 153.613C401.669 153.319 415.903 167.814 417.173 167.814C420.06 168.355 422.899 169.141 425.65 170.164C427.364 170.801 429.074 171.548 430.441 172.759C432.485 174.573 433.549 177.227 434.465 179.803C437.131 187.276 439.182 194.97 440.592 202.78C441.076 195.376 440.659 187.914 439.355 180.612C439.04 178.834 438.655 177.027 437.739 175.47C436.73 173.751 435.141 172.46 433.589 171.207Z" fill="#A07F65"/>
<path d="M417.451 202.711C414.659 206.194 411.87 209.676 409.078 213.159C409.645 212.926 410.198 212.66 410.756 212.408C411.034 212.15 411.338 211.927 411.602 211.642L417.451 202.711Z" fill="#A07F65"/>
<path d="M444.597 243.132C437.58 232.485 422.581 229.601 410.296 233.01C398.006 236.416 387.779 244.744 377.944 252.863C368.05 251.557 358.492 247.79 350.369 241.99C356.909 243.436 363.672 243.866 370.345 243.261C372.491 243.066 374.694 242.743 376.56 241.663C378.203 240.711 379.471 239.237 380.764 237.846C385.906 232.312 391.996 227.661 398.69 224.16C407.576 219.509 418.671 215.635 421.532 206.023C418.211 208.57 414.579 210.7 410.764 212.411C405.999 216.801 398.714 217.546 393.106 220.981C384.332 226.358 380.045 238.218 370.155 241.06C363.798 242.888 356.833 240.191 351.893 235.792C346.952 231.393 343.648 225.494 340.434 219.713C339.185 225.427 337.677 231.581 333.176 235.317C330.238 237.755 326.428 238.8 322.966 240.412C311.657 245.68 304.447 256.761 295.787 265.739C287.792 274.027 277.755 281.533 274.93 292.695C279.642 291.273 285.076 292.581 288.625 295.99C300.924 291.824 314.316 293.13 327.232 294.481C314.477 290.656 301.252 288.406 287.951 287.796C290.892 282.191 295.647 277.789 300.312 273.507C310.458 264.189 320.607 254.869 330.75 245.551C332.41 244.027 334.155 242.456 336.32 241.839C340.111 240.761 344.087 242.909 346.983 245.58C349.88 248.251 352.258 251.548 355.617 253.606C358.651 255.467 362.352 256.225 365.039 258.561C367.383 260.6 368.65 263.584 369.773 266.482C373.108 275.09 375.867 283.921 378.02 292.899C378.315 282.103 376.961 271.261 374.018 260.868C387.644 251.714 401.838 243.403 416.49 235.996C418.636 234.911 420.893 233.822 423.298 233.853C428.82 233.924 432.374 239.503 436.875 242.703C439.189 244.345 441.96 245.468 443.721 247.697C447.356 252.298 445.241 259.591 448.69 264.329C451.938 261.06 455.907 258.506 460.23 256.906C458.283 254.909 456.728 252.533 455.681 249.95C453.799 251.576 450.75 250.862 448.892 249.207C447.026 247.553 445.965 245.21 444.597 243.132Z" fill="#A07F65"/>
<path d="M78.1161 295.178C89.2689 291.686 102.363 288.973 111.878 295.762C114.867 292.175 118.689 289.286 122.955 287.389C124.332 286.777 125.806 286.233 126.825 285.12C127.971 283.864 128.339 282.105 128.738 280.45C129.894 275.643 131.679 270.985 134.029 266.634C130.321 272.035 126.281 277.21 121.944 282.119C120.132 284.17 118.174 286.24 115.627 287.235C113.272 288.154 110.663 288.059 108.139 287.949C99.4577 287.577 90.7738 287.204 82.09 286.829C74.2275 274.9 68.6963 262.237 62.9894 249.233C58.0848 253.905 75.7683 289.5 75.6021 289.568C66.3651 293.229 57.769 298.497 50.3125 305.061C59.4498 301.414 68.7272 298.119 78.1161 295.178Z" fill="#A07F65"/>
<path d="M427.507 291.339C422.659 295.66 415.184 296.83 411.305 302.245C420.207 298.178 429.109 294.112 438.009 290.045C440.68 288.825 443.41 287.588 446.332 287.306C452.443 286.712 458.112 290.321 464.139 291.489C472.16 293.044 480.31 290.214 487.99 287.429C481.559 289.76 470.34 287.652 463.586 287.187C455.597 286.639 447.695 284.661 439.763 284.129C433.04 283.683 432.19 287.166 427.507 291.339Z" fill="#A07F65"/>
<path d="M282.914 200.6C273.029 206.017 263.141 211.435 253.275 216.888C241.591 223.342 229.655 230.075 221.125 240.34C238.827 230.588 256.532 220.836 274.235 211.083C278.662 208.645 283.146 206.184 288.041 204.928C297.188 202.58 306.819 204.638 316.035 206.701C314.442 206.345 312.911 203.964 311.33 203.178C309.499 202.271 306.921 201.96 304.972 201.239C299.93 199.363 295.085 196.909 290.56 194.005C288.523 196.22 286.821 198.744 285.532 201.462C286.223 200.396 284.029 199.99 282.914 200.6Z" fill="#FBEBCD"/>
<path d="M339.985 246.531C332.925 247.348 325.072 255.182 321.219 260.369C326.199 258.41 331.111 256.286 336.196 254.565C337.357 254.171 338.579 253.786 339.792 253.974C341.464 254.232 342.765 255.517 343.942 256.732C347.85 260.765 351.755 264.799 355.662 268.834C353.008 266.045 351.539 259.063 349.521 255.562C348.253 253.363 346.957 250.83 345.259 248.929C342.285 245.596 343.785 246.092 339.985 246.531Z" fill="#FBEBCD"/>
<path d="M366.642 150.551C365.108 158.689 358.898 163.562 356.961 170.829C363.473 167.961 364.726 160.051 372.372 159.712C377.469 159.484 383.005 161.267 388.105 161.682C392.94 162.074 398.5 160.258 403.018 160.823C396.831 160.049 390.642 159.277 384.458 158.503C381.921 158.185 379.326 157.853 377.035 156.716C373.391 154.905 370.661 151.151 366.642 150.551Z" fill="#FBEBCD"/>
<path d="M380.616 102.614C382.404 100.187 388.066 88.2204 386.876 85.3598C386.62 84.7402 385.901 84.4767 385.257 84.2797C382.888 83.5532 380.521 82.8268 378.152 82.1004C375.486 81.2814 372.607 80.4648 369.96 81.3407C366.895 82.3568 364.996 85.3432 363.348 88.1207C360.364 93.1487 357.38 98.1743 354.398 103.2C355.282 103.905 356.573 103.224 357.703 103.312C358.655 103.385 359.457 104.014 360.26 104.536C363.127 106.407 366.731 107.117 370.095 106.478C366.85 104.399 363.759 102.077 360.858 99.5393C360.511 99.2378 360.153 98.9007 360.055 98.4521C359.939 97.9203 360.227 97.3933 360.514 96.9304C363.237 93.1843 374.845 77.476 379.55 85.2126C382.19 89.5593 378 97.7138 380.616 102.614Z" fill="#FBEBCD"/>
<path d="M299.969 86.9031C304.731 86.7512 310.063 76.3201 312.854 73.1414C307.8 74.1029 303.005 76.3819 299.069 79.6959C300.035 74.205 299.399 68.5526 300.052 63.0166C300.702 57.4806 303.076 51.6217 308.059 49.1172C301.683 52.4027 295.565 57.8984 295.052 65.0534C294.865 67.6434 295.437 70.2167 295.836 72.7806C296.469 76.8471 294.509 87.0764 299.969 86.9031Z" fill="#FBEBCD"/>
<path d="M343.073 49.7718C341.476 44.307 330.015 39.8203 329.407 34.1252C330.162 41.2114 337.656 45.8857 339.294 52.8224C337.542 53.271 337.435 55.9987 335.812 56.8011C335.273 57.0646 334.653 57.0717 334.055 57.0954C330.11 57.2592 326.295 58.4842 322.537 59.6973C324.963 60.4047 327.394 61.1145 329.824 61.822C330.43 62 331.092 62.2184 331.406 62.7668C331.997 63.8066 330.912 64.9745 329.948 65.6796C326.62 68.101 323.289 70.5248 319.961 72.9486C323.878 72.4358 327.854 72.3717 331.785 72.7587C331.458 70.6838 332.543 68.6731 333.625 66.8737C336.227 62.5579 344.439 54.4343 343.073 49.7718Z" fill="#FBEBCD"/>
<path d="M329.087 123.723C334.336 122.222 339.929 123.06 345.322 123.908C338.905 121.09 331.784 119.886 324.797 120.442C328.531 117.989 332.268 115.537 336.007 113.083C333.88 114.478 324.799 112.952 321.844 113.299C316.557 113.921 311.346 115.143 306.337 116.94C298.335 119.808 293.68 124.473 288.039 130.657C299.265 125.387 311.081 122.452 323.558 123.328C324.121 123.369 324.735 123.435 325.134 123.839C325.656 124.366 325.581 125.22 325.462 125.954C323.85 135.837 320.659 145.458 316.044 154.344C318.031 149.734 321.319 145.824 323.931 141.539C326.547 137.252 328.534 132.19 327.494 127.281C327.299 126.36 327.026 125.301 327.596 124.553C327.947 124.093 328.531 123.884 329.087 123.723Z" fill="#FBEBCD"/>
<path d="M336.297 196.156C338.182 204.05 341.275 211.663 345.442 218.628C346.052 219.649 346.816 220.746 347.982 220.962C349.107 221.173 350.185 220.489 351.125 219.836C363.358 211.361 375.591 202.884 387.824 194.407C376.588 200.365 365.35 206.326 354.114 212.285C351.972 213.422 349.81 214.569 347.972 216.15C344.732 211.955 335.765 201.144 338.075 195.731C338.156 195.722 336.262 196.166 336.297 196.156Z" fill="#FBEBCD"/>
<path d="M327.799 206.179C319.113 199.038 308.62 194.181 297.489 192.455C295.656 192.17 293.764 191.971 291.962 192.415C289.982 192.904 288.278 194.127 286.621 195.311C272.448 205.434 257.635 214.659 242.297 222.911C233.853 227.452 224.334 232.838 222.24 242.194C220.678 249.188 224.006 256.552 229.046 261.644C234.086 266.738 240.647 269.993 247.076 273.157C240.747 263.524 235.085 253.451 230.145 243.037C229.509 241.7 228.877 240.164 229.421 238.787C229.891 237.593 231.106 236.898 232.239 236.29C244.643 229.643 257.073 223.048 269.531 216.506C279.323 211.364 289.284 206.198 300.107 203.921C305.202 202.851 310.992 202.59 315.103 205.778C315.771 206.295 316.404 206.936 316.618 207.755C316.865 208.705 316.511 209.695 316.16 210.614C313.499 217.569 310.144 225.254 303.22 227.991C298.911 229.693 294.092 229.076 289.462 228.902C277.947 228.473 266.336 231.029 256.066 236.254C268.729 235.217 281.389 234.182 294.049 233.147C297.778 232.843 301.582 232.52 305.038 231.079C313.204 227.675 317.653 218.901 320.559 210.54C324.727 211.024 327.64 215.267 328.07 219.442C328.497 223.618 327.037 227.73 325.603 231.675C328.891 222.633 337.062 213.797 327.799 206.179Z" fill="#FBEBCD"/>
<path d="M217.514 287.066C218.046 285.615 217.606 284.01 217.167 282.531C215.422 276.658 213.651 270.726 210.601 265.415C207.99 260.865 192.357 250.182 192.049 261.869C191.852 269.356 208.821 273.736 207.55 281.734C207.453 282.344 206.992 282.823 206.546 283.253C204.433 285.278 202.143 287.113 199.705 288.732C203.417 286.316 207.13 283.899 210.843 281.485C209.355 274.98 205.509 269.04 200.184 265.021C205.295 264.841 209.865 268.751 211.942 273.427C214.019 278.102 214.076 283.403 213.839 288.511C215.021 289.501 216.984 288.514 217.514 287.066Z" fill="#FBEBCD"/>
<path d="M168.321 208.939C159.279 211.525 149.144 222.882 152.347 232.446C154.562 227.819 156.679 223.193 159.544 218.896C161.334 216.175 163.545 213.395 166.7 212.591C169.178 211.959 171.78 212.674 174.232 213.395C190.028 218.048 205.675 223.207 221.141 228.866C208.533 218.397 192.167 213.865 176.34 209.607C173.714 208.901 170.935 208.194 168.321 208.939Z" fill="#FBEBCD"/>
<path d="M220.699 130.132C239.814 128.459 259.247 130.533 277.578 136.21C271.316 130.752 262.687 128.905 254.394 128.409C246.105 127.913 237.722 128.558 229.527 127.21C223.082 126.149 216.682 123.853 210.189 124.589C202.847 125.422 196.544 129.987 190.619 134.401C185.804 137.983 180.852 141.719 177.89 146.937C176.273 149.779 175.323 152.941 174.383 156.07C172.152 163.524 169.916 170.978 167.684 178.432C166.708 181.687 165.761 185.336 167.318 188.358C173.168 173.962 179.065 159.469 187.518 146.429C191.464 140.343 196.413 134.272 203.369 132.207C204.233 131.951 205.221 131.775 205.997 132.238C207.217 132.967 207.163 134.719 206.954 136.124C206.049 142.237 205.142 148.347 204.24 154.46C198.533 152.955 192.539 152.53 186.678 153.224C190.645 156.058 194.614 158.895 198.581 161.729C200.015 162.755 201.51 163.849 202.263 165.445C202.889 166.776 202.92 168.3 202.894 169.772C202.823 173.746 202.393 177.715 201.619 181.616C194.811 178.261 187.051 176.858 179.499 177.618C181.959 180.78 186.818 179.793 190.825 179.807C194.106 179.819 197.55 180.856 199.673 183.358C201.797 185.858 202.099 190.003 199.753 192.298C190.424 193.291 180.957 192.944 171.724 191.271C182.21 198.908 196.907 194.68 209.62 197.274C217.145 198.81 224.402 202.846 232.025 201.906C227.754 198.573 222.764 196.173 217.494 194.915C214.182 194.124 210.664 193.739 207.803 191.897C204.943 190.055 203.048 186.079 204.836 183.185C211.787 187.662 219.961 190.221 228.224 190.506C223.899 188.344 203.623 181.877 206.704 175.228C209.648 168.877 222.524 172.987 226.702 174.646C225.278 172.393 207.965 154.247 208.069 154.024C210.403 149.105 209.795 142.778 213.513 138.799C217.902 134.104 225.518 135.388 231.728 137.038C240.274 139.31 248.818 141.579 257.364 143.849C246.416 137.582 233.881 134.109 221.271 133.843C219.782 133.812 217.741 133.24 217.94 131.766C218.087 130.617 219.54 130.234 220.699 130.132Z" fill="#FBEBCD"/>
<path d="M169.13 95.4205C170.766 94.224 172.122 92.4435 170.505 92.5599C169.406 92.6382 168.473 93.0608 167.656 93.6851C168.243 94.1694 168.729 94.7558 169.13 95.4205Z" fill="#FBEBCD"/>
<path d="M167.658 93.6852C167.342 93.4264 167.005 93.189 166.63 92.9944C166.188 94.0959 166.013 94.8698 166.008 95.4158C166.494 94.7416 167.04 94.1552 167.658 93.6852Z" fill="#FBEBCD"/>
<path d="M151.536 127.331C149.202 131.307 146.622 135.272 145.667 139.785C144.718 144.297 145.81 149.601 149.598 152.224C151.137 146.534 152.139 140.696 152.585 134.816C152.768 132.397 152.882 129.878 154.038 127.746C154.857 126.241 156.134 125.047 157.418 123.915C161.2 120.587 165.235 117.546 169.48 114.835C170.05 114.471 170.648 114.084 170.969 113.489C171.31 112.85 171.268 112.081 171.215 111.357C170.923 107.174 171.712 99.6817 169.136 95.4205C167.674 96.4936 166 97.0823 166.014 95.4158C164.796 97.1108 163.946 99.2948 163.294 101.277C160.314 110.348 156.364 119.098 151.536 127.331Z" fill="#FBEBCD"/>
<path d="M169.145 95.4207C168.744 94.7536 168.257 94.1672 167.671 93.6853C167.054 94.1553 166.508 94.7417 166.024 95.4159C166.009 97.0824 167.683 96.496 169.145 95.4207Z" fill="#FBEBCD"/>
<path d="M255.383 105.403C262.6 103.176 264.139 93.7991 268.77 87.8334C272.267 83.3276 277.672 80.7448 281.77 76.7756C282.316 76.2438 282.886 75.5649 282.76 74.81C282.67 74.2663 282.24 73.8533 281.827 73.4924C275.213 67.7285 266.251 65.1575 257.482 65.0056C248.713 64.856 240.05 66.9451 231.687 69.5873C220.731 73.0461 210.105 77.4617 199.496 81.8724C192.569 84.752 185.452 87.755 180.125 93.0418C179.069 94.0887 178.024 95.608 178.665 96.9517C179.026 97.7137 179.831 98.1481 180.602 98.4852C184.707 100.28 189.388 100.719 193.754 99.722C190.397 97.8063 187.415 95.2353 185.03 92.1943C210.281 82.6535 236.159 74.7767 262.441 68.6306C264.053 68.2532 265.969 67.9588 267.172 69.0983C267.991 69.8745 268.198 71.09 268.265 72.2176C268.678 78.962 265.618 83.2517 262.071 88.4933C258.607 93.6115 257.261 99.4277 255.383 105.403Z" fill="#FBEBCD"/>
<path d="M243.955 35.6639C234.92 41.0527 228.342 48.3668 222.148 56.8963C242.173 42.9685 262.296 29.183 282.518 15.5448C281.791 14.3435 280.637 13.4723 279.512 12.6343C275.18 9.401 270.847 6.17008 266.513 2.93678C265.06 1.85189 263.559 0.745634 261.807 0.28509C258.064 -0.697719 254.282 1.46019 251.042 3.58012C245.48 7.21936 240.017 11.0129 234.666 14.956C239.58 12.9477 244.497 10.9417 249.411 8.93334C253.95 7.0793 258.676 5.19202 263.571 5.47214C268.466 5.75227 273.568 8.87637 274.442 13.7002C275.204 17.9234 247.737 33.4086 243.955 35.6639Z" fill="#FBEBCD"/>
<path d="M206.893 46.4461C206.445 44.6657 202.815 42.5362 201.189 42.1018C197.699 41.176 198.238 40.8816 195.463 43.9962C191.458 48.4948 189.321 56.9318 191.76 62.5272C193.26 65.9717 196.263 68.4857 199.164 70.8715C198.832 63.7687 200.999 56.5733 205.203 50.8379C206.162 49.5251 207.29 48.0224 206.893 46.4461Z" fill="#FBEBCD"/>
<path d="M175.216 51.0564C172.999 52.2481 169.832 56.4571 169.844 59.1824C169.872 65.3499 178.986 63.1207 183.209 66.9048C184.011 67.6217 184.522 68.5998 185.013 69.5588C186.362 72.1987 187.684 74.8527 188.978 77.521C189.12 74.1002 189.028 70.6675 188.7 67.2585C188.617 66.4158 188.515 65.5517 188.135 64.7967C186.267 61.0982 181.36 62.9023 178.428 61.1907C174.017 58.615 176.03 55.1894 175.216 51.0564Z" fill="#FBEBCD"/>
<path d="M160.264 51.3154C147.072 57.8176 134.849 70.0482 123.815 79.684C110.922 90.9459 98.5396 102.775 86.1667 114.597C83.6432 117.007 81.0627 119.504 79.655 122.697C76.6235 129.572 79.7926 137.451 82.9286 144.276C91.7691 131.459 108.56 125.591 116.51 112.205C104.073 119.098 92.6452 127.813 82.7079 137.983C82.0408 129.328 85.9388 120.815 91.527 114.17C97.1152 107.525 104.306 102.452 111.409 97.46C112.7 96.5531 114.051 95.6178 115.613 95.3662C116.855 95.1668 118.125 95.4184 119.357 95.67C127.188 97.2677 135.022 98.8677 142.851 100.468C134.123 96.5698 125.398 92.6741 116.669 88.7785C126.744 80.5599 136.936 72.4624 146.906 64.1157C151.412 60.3435 157.05 56.2319 160.264 51.3154Z" fill="#FBEBCD"/>
<path d="M152.331 182.741C151.498 174.067 148.609 165.597 143.968 158.223C140.943 153.421 137.117 148.922 135.752 143.412C134.318 137.639 134.652 129.952 126.92 129.088C122.329 128.575 117.591 132.492 113.683 134.564C103.58 139.92 95.2522 147.759 90.661 158.399C86.6206 167.762 85.7279 178.131 84.8828 188.294C88.014 178.727 91.1453 169.162 94.2766 159.595C94.8487 157.846 95.4492 156.046 96.6409 154.643C97.7543 153.333 99.295 152.473 100.802 151.643C108.456 147.419 116.11 143.198 123.763 138.975C118.111 150.32 102.467 155.868 100.788 168.433C108.349 157.387 123.087 152.091 128.544 139.87C130.719 145.055 132.896 150.24 135.07 155.422C135.915 157.44 136.815 159.529 138.46 160.972C139.597 161.972 141.031 162.598 142.114 163.659C143.424 164.946 144.086 166.736 144.711 168.464C146.083 172.258 147.453 176.051 148.825 179.845C136.305 180.355 123.901 183.61 112.743 189.315C125.634 185.637 138.942 183.427 152.331 182.741Z" fill="#FBEBCD"/>
<path d="M136.806 250.139C133.884 251.279 130.382 251.951 128.773 254.645C134.845 252.378 141.692 251.362 148.135 252.311C146.644 241.883 142.402 231.929 131.847 227.755C122.855 224.199 110.541 224.752 104.435 216.023C101.589 217.961 98.7426 219.9 95.8939 221.837C88.4991 226.872 80.8241 232.209 76.5938 240.09C86.3364 233.899 96.0814 227.708 105.829 221.514C107.049 225.146 103.621 228.572 100.459 230.735C97.2969 232.9 93.5911 235.718 94.0089 239.528C94.1158 240.515 94.5098 241.444 94.7401 242.407C96.9265 251.647 84.2047 258.783 84.7815 268.26C88.6202 262.944 92.3544 257.555 95.9841 252.093C97.5011 249.812 99.0583 247.307 98.9111 244.57C98.8613 243.668 98.6263 242.763 98.7616 241.871C98.9159 240.89 99.4975 240.038 100.062 239.224C102.823 235.255 105.584 231.285 108.345 227.316C113.183 227.404 118 228.498 122.404 230.512C118.952 236.95 115.954 243.635 113.444 250.493C117.888 245.313 121.682 239.575 124.706 233.455C131.344 232.567 134.791 243.177 141.488 243.162C142.746 246.044 139.729 249 136.806 250.139Z" fill="#FBEBCD"/>
<path d="M169.479 273.112C169.866 271.97 168.371 268.506 167.931 267.497C166.115 263.355 162.873 259.521 158.034 259.198C156.344 259.086 154.654 259.421 153.028 259.879C142.825 262.747 134.224 270.792 130.68 280.777C135.114 276.124 139.988 271.889 145.213 268.145C148.223 265.99 151.414 263.967 154.989 263.001C156.957 262.469 159.115 262.284 160.988 263.091C163.248 264.062 164.729 266.341 165.356 268.717C165.982 271.094 165.873 273.596 165.762 276.05C165.771 275.853 169.092 274.256 169.479 273.112Z" fill="#FBEBCD"/>
<path d="M66.6562 238.911C66.9482 239.505 67.3185 240.16 67.9144 240.924C67.6865 240.122 67.2331 239.469 66.6562 238.911Z" fill="#FBEBCD"/>
<path d="M21.6404 249.555C22.3003 248.627 23.3306 248.033 24.3609 247.549C32.3967 243.779 42.5998 244.805 49.33 239.02C50.5217 237.994 51.578 236.772 52.9858 236.071C55.5923 234.773 58.7047 235.566 61.5012 236.377C63.3315 236.909 65.3327 237.638 66.6455 238.91C65.798 237.177 65.665 235.988 62.8424 234.277C60.0103 232.558 56.5135 231.639 53.228 231.383C51.1888 231.226 49.0616 231.347 47.2242 232.247C45.5363 233.071 44.2213 234.478 42.8112 235.715C39.1245 238.946 34.545 241.144 29.7164 241.997C25.46 242.749 20.3442 242.868 18.0154 246.512C15.81 249.966 17.5359 254.517 17.0397 258.583C15.8836 268.067 3.06189 273.375 3.13311 282.928C6.3949 279.094 9.65444 275.26 12.9139 271.426C13.7898 270.396 14.7179 269.325 15.9737 268.817C17.2319 268.307 18.6564 268.433 19.9929 268.677C31.7795 270.828 40.8075 281.143 52.587 283.336C46.5192 276.438 38.7067 271.082 30.0821 267.913C26.9224 266.752 23.3995 265.691 21.5407 262.882C19.6961 260.091 20.0831 256.44 20.5389 253.126C20.7146 251.882 20.9068 250.581 21.6404 249.555Z" fill="#FBEBCD"/>
<path d="M70.9381 186.385C70.4063 185.44 70.3256 184.241 69.5849 183.449C68.557 182.347 66.7956 182.527 65.3119 182.791C61.1242 183.539 56.6114 184.462 53.7817 187.636C51.6 190.079 49.3876 195.48 51.2582 198.312C53.7319 194.727 56.7325 191.627 61.1053 190.399C62.8051 189.922 64.6353 189.749 66.3303 190.243C67.7666 190.663 69.0224 191.534 70.2687 192.36C77.7822 197.338 86.0245 201.215 94.6514 203.822C87.4583 198.694 80.2653 193.566 73.0747 188.439C72.2652 187.859 71.4271 187.254 70.9381 186.385Z" fill="#FBEBCD"/>
</svg>
