<svg width="639" height="311" viewBox="0 0 639 311" fill="none" xmlns="http://www.w3.org/2000/svg">
<path d="M243.097 213.32L336.613 2.38965L95.011 66.2543L0 281.872L6.00094 289.584L243.097 213.32Z" fill="#B26435"/>
<path d="M249.097 221.031L344.108 5.41309L101.011 73.9653L6 289.584L249.097 221.031Z" fill="#C17E3F"/>
<path d="M95.0078 66.2542L101.009 73.9654L344.105 5.41316L339.16 0L95.0078 66.2542Z" fill="#FFCB90"/>
<path d="M616.132 218.845V229.292L466.327 269.127L313.926 309.663L312.28 310.1H312.269L288.53 307.536L72.7373 284.229H72.7266V273.782H72.8004L131.465 272.908L135.654 272.851L136.572 272.69L137.036 272.598L173.215 266.059L177.236 265.335H177.257L177.321 265.323L201.367 260.967H201.387L213.406 258.795L213.437 258.783L218.786 257.818L237.535 254.428H237.568L242.337 253.566H242.347L243.371 253.381L278.516 247.027L297.783 243.544L298.384 243.429L302.647 242.659L305.475 242.153L307.131 241.854L329.574 237.797L376.6 229.292H561.393L616.132 218.845Z" fill="#B26435"/>
<path d="M616.137 218.845L614.217 219.363L452.668 262.324L312.285 299.652H312.274L296.733 297.975L289.727 297.216L288.07 297.044L72.7422 273.793L72.7737 273.782H72.8053L96.3451 269.115L97.7799 268.84L99.3417 268.529L133.485 261.771L136.176 261.243L137.273 261.013H137.294L160.053 256.508H160.074L171.427 254.255H171.448L175.247 253.508L194.197 249.75H194.228L198.406 248.922L198.723 248.854H198.733L232.877 242.096L238.532 240.981L251.626 238.384L283.744 232.028L285.77 231.626H285.78L292.333 230.327L292.396 230.315L305.479 227.73L307.136 227.397L350.333 218.845H616.137Z" fill="#FFCB90"/>
<path d="M72.7422 273.788V284.235L312.28 310.097V299.65L72.7422 273.788Z" fill="#CE8C43"/>
<path d="M616.139 218.848L313.934 299.655V309.665L312.276 310.102V299.655L72.7344 273.784L313.163 297.62L616.139 218.848Z" fill="#FFD8B1"/>
<path d="M591.929 209.019V219.466L554.979 229.292L445.057 258.519L302.163 296.526L296.729 297.975L289.724 299.836L288.066 300.273L72.7388 277.023L72.728 277.011L48.5234 274.402V263.955L55.9623 263.84L111.451 263.024L124.038 260.749L126.592 260.289L128.058 260.025H128.069L152.189 255.657H152.2L164.228 253.485L164.248 253.474L168.058 252.796L188.358 249.118H188.379L192.631 248.348L193.148 248.256H193.159L229.329 241.716H229.339L235.227 240.648L249.196 238.119H249.206L283.234 231.97L285.376 231.58L292.329 230.327L292.392 230.315L305.476 227.948L307.132 227.649L352.397 219.466H537.19L540.44 218.845L554.072 216.248L591.929 209.019Z" fill="#C17E3F"/>
<path d="M591.929 209.019L554.979 218.845L515.697 229.292L431.404 251.703L288.066 289.826L131.466 272.908L96.3417 269.115L48.5234 263.955L51.5101 263.369L85.6639 256.6L86.9194 256.359L89.4622 255.853L112.232 251.347H112.243L123.606 249.095H123.617L126.001 248.624L146.386 244.59H146.407L149.161 244.038L150.902 243.693H150.923L185.056 236.936H185.077L189.023 236.154L189.297 236.096H189.319L203.805 233.223H203.826L235.944 226.868L237.97 226.465H237.98L243.109 225.442L270.098 220.11L273.084 219.512L276.186 218.903L300.317 214.122L301.973 213.8L326.114 209.019H591.929Z" fill="#FFCB90"/>
<path d="M48.5312 263.959V274.406L288.07 300.269V289.821L48.5312 263.959Z" fill="#E2A152"/>
<path d="M591.929 209.02L289.723 289.827V299.837L288.066 300.274V289.827L48.5234 263.956L288.953 287.792L591.929 209.02Z" fill="#FFD8B1"/>
<path d="M586.765 197.101V207.548L581.236 209.019L554.067 216.248L544.286 218.845L505.004 229.292L427.675 249.853L286.1 287.504L284.559 287.918L282.902 288.355L151.678 274.184L137.033 272.598L99.3335 268.529L55.9575 263.84L51.5053 263.369L43.3594 262.484V252.037L52.8132 251.899L106.287 251.106L107.679 250.853H107.69L119.729 248.681L119.739 248.67L122.145 248.244L143.859 244.314H143.87L146.719 243.797L148.639 243.452H148.66L184.818 236.913L184.84 236.901L189.018 236.154L189.292 236.096H189.314L204.686 233.315H204.697L238.725 227.167L240.866 226.776H240.877L246.417 225.776L274.905 220.627L278.059 220.052H278.07L281.52 219.432L300.312 216.03L301.968 215.731L339.098 209.019L344.025 208.123L347.232 207.548H532.025L571.307 200.055L586.765 197.101Z" fill="#B26435"/>
<path d="M586.765 197.101L541.944 209.019L504.993 218.845L502.662 219.466L465.712 229.292L414.021 243.038L282.902 277.908L173.212 266.059L133.477 261.771L124.034 260.749L85.6591 256.6L43.3594 252.037L47.1584 251.29L69.9382 246.773L81.3015 244.532L81.3122 244.521L82.4409 244.302L104.081 240.015H104.092L105.601 239.717L108.587 239.131L108.619 239.119L111.267 238.602L142.751 232.373L142.773 232.361L145.738 231.775L161.501 228.661L161.522 228.649L193.64 222.293H193.65L195.655 221.891H195.676L199.538 221.133L227.794 215.535L230.769 214.949H230.779L232.626 214.582L264.934 208.192L268.732 207.433H268.764L271.022 206.985L300.29 201.193L300.312 201.181L301.968 200.859L320.95 197.101H586.765Z" fill="#FFCB90"/>
<path d="M43.3672 252.042V262.489L282.906 288.351V277.904L43.3672 252.042Z" fill="#CE8C43"/>
<path d="M586.764 197.102L284.559 277.909V287.919L282.902 288.356V277.909L43.3594 252.038L283.789 275.875L586.764 197.102Z" fill="#FFD8B1"/>
<path d="M586.765 185.493V195.94L582.397 197.101L571.307 200.054L537.586 209.019L500.636 218.845L498.304 219.466L461.354 229.292L412.502 242.279L391.632 247.83L284.559 276.31L282.902 276.746L177.253 265.334H177.233L174.384 265.024L137.265 261.013L128.064 260.024H128.053L89.4574 255.852L52.8132 251.898L47.1584 251.29L43.3594 250.876V240.429L53.2879 240.28L100.104 239.59H100.125L103.743 239.533L106.287 239.498L108.428 239.107H108.46L111.267 238.602L144.619 232.568H144.64L147.847 231.981L164.476 228.982L164.498 228.97L198.524 222.822H198.535L200.666 222.431H200.677L204.94 221.661L234.705 216.282L237.859 215.707H237.87L240.043 215.317L274.039 209.168H274.05L278.07 208.444L278.102 208.432L280.792 207.95L300.312 204.422L301.968 204.123L311.506 202.398L335.13 198.123L336.787 197.825L340.807 197.101L347.232 195.94H532.025L538.831 194.641L543.378 193.768L544.423 193.572L586.607 185.527L586.765 185.493Z" fill="#C17E3F"/>
<path d="M282.906 266.291L43.3672 240.428L320.956 185.486H586.771L282.906 266.291Z" fill="#FFCB90"/>
<path d="M43.3672 240.428V250.875L282.906 276.738V266.291L43.3672 240.428Z" fill="#E2A152"/>
<path d="M586.764 185.489L284.559 266.295V276.306L282.902 276.742V266.295L43.3594 240.425L283.789 264.261L586.764 185.489Z" fill="#FFD8B1"/>
<path d="M596.695 179.596V190.044L586.766 192.687L570.158 197.1L530.877 207.547L525.348 209.018L488.398 218.845L486.066 219.466L449.116 229.292L408.252 240.164L294.488 270.413L292.832 270.85L284.56 269.954L282.903 269.782L201.365 260.967L160.067 256.507H160.046L152.196 255.657H152.185L112.239 251.347H112.228L107.691 250.853H107.681L69.9394 246.773L53.2891 244.979V234.532L64.5054 234.372L64.5893 234.36L74.7501 234.211L116.217 233.602L130.418 231.039L130.44 231.027L133.193 230.533L150.276 227.441H150.297L184.324 221.293H184.335L186.455 220.902H186.477L190.296 220.213L220.504 214.753L223.659 214.179H223.67L225.4 213.868L259.838 207.639H259.849L263.869 206.915L263.901 206.904L266.149 206.501L297.306 200.87L300.038 200.364H300.081L301.094 200.18L306.327 199.238L333.486 194.319L340.724 193.021L345.746 192.112L357.163 190.044H541.956L565.864 185.481L596.695 179.596Z" fill="#B26435"/>
<path d="M596.695 179.596L574.569 185.481L543.38 193.768L530.866 197.1L491.574 207.547L486.045 209.018L449.084 218.845L446.752 219.466L409.792 229.292L394.577 233.338L292.832 260.392L237.566 254.427H237.533L194.221 249.749H194.19L188.376 249.117H188.355L146.404 244.589L143.871 244.313H143.86L104.093 240.015H104.082L100.126 239.589H100.105L66.1403 235.923L53.2891 234.532L57.7844 233.648L57.8267 233.636L91.949 226.878H91.9805L93.4261 226.591L110.698 223.166H110.73L142.848 216.81L144.853 216.408H144.873L147.237 215.937L177.001 210.053L179.967 209.467L179.987 209.455L180.315 209.398L214.131 202.698H214.141L217.929 201.95L217.961 201.939L218.71 201.79L249.498 195.698L252.083 195.192L252.116 195.181L257.792 194.066L283.653 188.941L289.266 187.837L301.853 185.343L330.879 179.596H596.695Z" fill="#FFCB90"/>
<path d="M53.2969 234.534V244.981L292.836 270.844V260.397L53.2969 234.534Z" fill="#CE8C43"/>
<path d="M596.694 179.595L294.488 260.401V270.412L292.832 270.848V260.401L53.2891 234.531L293.717 258.367L596.694 179.595Z" fill="#FFD8B1"/>
<path d="M586.765 166.69V177.137L577.511 179.596L555.386 185.481L538.23 190.044L516.062 195.94L511.704 197.101L472.411 207.548L466.883 209.019L429.932 218.845L427.601 219.466L390.651 229.292L387.918 230.016L284.686 257.472L284.559 257.507L282.902 257.944L242.344 253.566H242.334L209.878 250.06L209.477 250.013L198.725 248.853H198.714L193.154 248.255H193.144L150.918 243.692H150.897L148.66 243.452L108.619 239.119L108.46 239.107H108.428L70.666 235.027L64.5881 234.36L57.8255 233.636L43.3594 232.074V221.626H43.4232L89.9959 220.937H90.0698L106.287 220.695L133.424 215.788L135.545 215.409L135.566 215.397L137.771 215.006L169.594 209.249L172.737 208.685L172.759 208.674L172.875 208.662L208.918 202.146L208.938 202.134L212.959 201.41H212.98L213.623 201.295L246.395 195.365L249.129 194.871H249.16L255.089 193.791L282.575 188.825L288.495 187.757L301.852 185.343L333.632 179.596L347.232 177.137H532.025L586.765 166.69Z" fill="#B26435"/>
<path d="M282.906 247.495L43.3672 221.633L320.956 166.69H586.771L282.906 247.495Z" fill="#FFCB90"/>
<path d="M43.3672 221.633V232.081L282.906 257.942V247.495L43.3672 221.633Z" fill="#E2A152"/>
<path d="M586.764 166.693L284.559 247.5V257.511L282.902 257.947V247.5L43.3594 221.63L283.789 245.466L586.764 166.693Z" fill="#FFD8B1"/>
<path d="M609.335 152.945V163.392L586.767 169.391L548.402 179.597L526.276 185.481L509.121 190.044L486.953 195.94L482.584 197.101L443.303 207.548L437.773 209.019L400.824 218.845L398.492 219.466L377.79 224.971L329.572 237.797L307.129 243.762L305.473 244.199L299.363 243.544L298.382 243.429L298.245 243.417L293.592 242.912L251.62 238.384L249.203 238.119H249.193L204.698 233.315H204.688L203.823 233.223H203.802L164.499 228.971L161.523 228.649L150.297 227.442H150.276L123.571 224.558L110.731 223.167H110.698L90.0712 220.937L65.9405 218.328H65.9297V207.881H66.0036L116.649 207.134L128.857 206.95L136.127 205.64L138.353 205.238L139.26 205.065H139.292L175.451 198.526H175.471L179.101 197.871L179.492 197.802L179.503 197.79L212.928 191.757L215.662 191.262L215.693 191.251L220.568 190.366L249.098 185.217L253.962 184.332L284.792 178.758L300.313 175.954L301.97 175.655L351.561 166.691L352.985 166.438L369.803 163.392H554.596L609.335 152.945Z" fill="#C17E3F"/>
<path d="M305.477 233.75L65.9375 207.889L343.526 152.946H609.341L305.477 233.75Z" fill="#FFCB90"/>
<path d="M65.9375 207.889V218.336L305.477 244.198V233.75L65.9375 207.889Z" fill="#E2A152"/>
<path d="M609.335 152.948L307.129 233.756V243.766L305.473 244.203V233.756L65.9297 207.885L306.359 231.721L609.335 152.948Z" fill="#FFD8B1"/>
<path d="M609.335 143.119V153.566L559.987 166.691L520.695 177.138L511.452 179.597L489.327 185.481L472.17 190.044L450.002 195.94L445.634 197.101L406.352 207.548L400.824 209.019L364.95 218.558L363.873 218.845L361.541 219.466L307.129 233.935L305.473 234.372L283.737 232.028L283.231 231.97L238.726 227.166L235.941 226.868L198.537 222.822H198.526L193.651 222.293H193.641L184.335 221.293H184.324L155.688 218.19L142.848 216.811L133.426 215.788L94.2703 211.559L65.9405 208.502H65.9297V198.055H65.9405L73.2839 197.951L73.3685 197.94L119.657 197.262L128.857 197.124L141.413 194.848H141.445L143.997 194.388L145.464 194.124H145.475L178.901 188.079L181.634 187.585L181.655 187.573L185.464 186.896L215.07 181.539L218.858 180.85L250.765 175.081L286.944 168.541L294.098 167.254L326.28 161.438L345.651 157.933L350.009 157.14L369.803 153.566H554.596L557.845 152.945L571.477 150.347L609.335 143.119Z" fill="#B26435"/>
<path d="M609.34 143.119L572.39 152.945L533.108 163.392L520.7 166.691L481.418 177.138L472.164 179.597L450.038 185.481L432.883 190.044L410.715 195.94L406.346 197.101L367.065 207.548L361.535 209.019L351.291 211.742L305.477 223.925L274.911 220.627L270.1 220.11L234.711 216.282L227.8 215.535L220.509 214.754L189.837 211.432L177.007 210.053L169.6 209.249L136.132 205.64L128.418 204.801L98.0942 201.525L66.0615 198.066L65.9453 198.055L68.8888 197.469H68.9312L103.053 190.711H103.075L104.341 190.458L106.873 189.952H106.884L138.442 183.712L141.027 183.194H141.038L143.422 182.723L172.586 176.954L174.885 176.494L206.276 170.276H206.286L206.497 170.242L240.43 163.519L245.79 162.461L343.525 143.119H609.34Z" fill="#FFCB90"/>
<path d="M65.9375 198.06V208.507L305.477 234.37V223.922L65.9375 198.06Z" fill="#CE8C43"/>
<path d="M609.335 143.12L307.129 223.927V233.937L305.473 234.374V223.927L65.9297 198.056L306.359 221.893L609.335 143.12Z" fill="#FFD8B1"/>
<path d="M604.179 131.201V141.648L598.65 143.119L571.48 150.348L561.7 152.945L522.418 163.392L510.01 166.691L470.728 177.138L461.485 179.597L439.36 185.482L422.203 190.045L400.024 195.941L395.667 197.101L356.385 207.549L350.846 209.019L347.574 209.893L303.513 221.605L301.973 222.018L300.316 222.455L278.074 220.053H278.064L273.084 219.513L237.874 215.708H237.863L230.784 214.95H230.773L223.673 214.18H223.662L192.821 210.847H192.799L179.991 209.456L172.763 208.675L169.091 208.284L139.295 205.066H139.263L131.403 204.216L101.079 200.94H101.047L73.3716 197.94L68.9293 197.469L60.7734 196.584V186.137H60.8365L70.2272 185.999L123.7 185.207L134.4 183.275L137.142 182.781L137.153 182.77L139.559 182.345L170.579 176.736L172.953 176.299L206.274 170.277H206.284L206.495 170.243L242.443 163.738L248.194 162.703L356.511 143.119L364.646 141.648H549.439L588.721 134.155L604.179 131.201Z" fill="#C17E3F"/>
<path d="M300.32 212.005L60.7812 186.143L338.369 131.2H604.185L300.32 212.005Z" fill="#FFCB90"/>
<path d="M60.7812 186.143V196.59L300.32 222.452V212.005L60.7812 186.143Z" fill="#E2A152"/>
<path d="M604.179 131.203L301.973 212.01V222.02L300.316 222.457V212.01L60.7734 186.139L301.203 209.975L604.179 131.203Z" fill="#FFD8B1"/>
<path d="M604.179 119.59V130.037L301.973 210.407L300.316 210.844L60.7734 184.973V174.526L123.7 173.595L364.646 130.037H549.439L604.179 119.59Z" fill="#B26435"/>
<path d="M300.32 200.392L60.7812 174.53L338.369 119.587H604.185L300.32 200.392Z" fill="#FFCB90"/>
<path d="M60.7812 174.53V184.977L300.32 210.839V200.392L60.7812 174.53Z" fill="#CE8C43"/>
<path d="M604.179 119.59L301.973 200.397V210.407L300.316 210.844V200.397L60.7734 174.526L301.203 198.363L604.179 119.59Z" fill="#FFD8B1"/>
<path opacity="0.35" d="M604.176 141.647L598.648 143.118H609.336V163.392L586.767 169.391V177.138L577.514 179.596H596.696V190.044L586.767 192.687V195.94L582.399 197.101H586.767V207.548L581.238 209.019H591.927V218.845H616.131V229.292L466.336 269.138L466.325 269.127L452.968 262.473L452.662 262.323L451.385 261.679L445.054 258.519L431.708 251.865L431.402 251.703L430.146 251.083L427.677 249.853L414.35 243.199L414.023 243.038L412.662 242.372L412.504 242.279L408.253 240.164L399.2 235.648L398.83 235.464L397.374 234.74L394.968 233.533L394.578 233.338L393.006 232.556L387.92 230.017L386.464 229.292L377.791 224.971L374.657 223.408L374.256 223.201L372.589 222.373L366.765 219.466L365.52 218.845L364.95 218.558L364.602 218.386L364.127 218.156L362.218 217.19L351.772 211.984L351.287 211.742L349.261 210.731L347.572 209.892L345.821 209.019L344.027 208.122L336.789 204.513L364.666 197.101L369.023 195.94L391.191 190.044H391.201L408.347 185.481H408.358L430.473 179.596H430.484L439.716 177.138H439.726L478.997 166.691H479.008L491.406 163.392H491.416L528.345 153.565H528.366L530.677 152.945H530.698L567.627 143.118H567.648L604.176 133.395L632.749 125.799V125.81L604.176 133.407V141.647Z" fill="#333634"/>
<path d="M639 113.696V124.143L632.753 125.799V125.81L604.18 133.407L567.652 143.119H567.632L530.702 152.945H530.681L528.37 153.566H528.349L491.42 163.392H491.41L479.012 166.691H479.001L439.73 177.138H439.72L430.488 179.597H430.477L408.362 185.481H408.351L391.205 190.044H391.195L369.027 195.94L364.67 197.101L336.793 204.514L335.137 204.951L330.315 204.434L329.249 204.318L326.147 203.985L324.807 203.836L311.512 202.399L301.975 201.365L300.318 201.192H300.297L297.311 200.871L262.323 197.089L249.503 195.698L246.401 195.365L212.933 191.757L200.905 190.458L178.906 188.079L170.581 187.182L138.442 183.712L134.401 183.275L96.1746 179.137L95.5938 179.08V168.633L153.594 167.771L156.116 167.736L158.521 167.702L167.457 166.081L203.627 159.542L208.154 158.726L360.428 131.201L366.853 130.04L399.467 124.143H584.26L593.345 122.408L594.2 122.248L594.389 122.213L604.18 120.34L639 113.696Z" fill="#C17E3F"/>
<path d="M335.14 194.498L95.6016 168.636L373.19 113.693H639.005L335.14 194.498Z" fill="#FFCB90"/>
<path d="M95.6016 168.636V179.083L335.14 204.945V194.497L95.6016 168.636Z" fill="#E2A152"/>
<path d="M639 113.696L336.793 194.503V204.513L335.137 204.95V194.503L95.5938 168.632L336.023 192.469L639 113.696Z" fill="#FFD8B1"/>
<path d="M616.132 103.244V113.691L609.886 115.346V115.358L581.313 122.954L544.785 132.666H544.764L507.835 142.493H507.814L505.503 143.113H505.482L468.553 152.94H468.542L456.144 156.238H456.134L416.863 166.685H416.852L407.62 169.144H407.609L385.494 175.029H385.484L368.338 179.591H368.327L346.159 185.487L341.802 186.648L313.926 194.061L312.269 194.498L307.447 193.981L306.382 193.866L303.28 193.532L301.94 193.383L288.645 191.946L279.107 190.912L277.451 190.739H277.429L274.443 190.418L239.456 186.636L226.636 185.246L223.534 184.912L190.066 181.304L178.038 180.005L156.038 177.627L147.714 176.73L115.575 173.259L111.533 172.822L73.3067 168.685L72.7266 168.627V158.18L130.726 157.318L133.248 157.284L135.653 157.25L144.59 155.629L180.76 149.09L185.286 148.273L337.56 120.748L343.986 119.587L376.599 113.691H561.392L570.477 111.956L571.331 111.795L571.522 111.76L581.313 109.887L616.132 103.244Z" fill="#B26435"/>
<path d="M312.273 184.045L72.7344 158.183L350.322 103.24H616.139L312.273 184.045Z" fill="#FFCB90"/>
<path d="M72.7344 158.183V168.63L312.273 194.492V184.045L72.7344 158.183Z" fill="#CE8C43"/>
<path d="M616.132 103.243L313.926 184.05V194.06L312.269 194.497V184.05L72.7266 158.179L313.156 182.015L616.132 103.243Z" fill="#FFD8B1"/>
<path d="M604.179 92.2676V102.715L301.973 183.084L300.316 183.521L60.7734 157.651V147.204L123.7 146.273L364.646 102.715H549.439L604.179 92.2676Z" fill="#C17E3F"/>
<path d="M604.179 92.2603L604.147 92.2718L489.878 122.66L300.316 173.068L60.7734 147.208L136.066 132.302H136.077L338.363 92.2603H604.179Z" fill="#FFCB90"/>
<path d="M60.7812 147.207V157.654L300.32 183.517V173.07L60.7812 147.207Z" fill="#E2A152"/>
<path d="M604.179 92.2676L301.973 173.074V183.084L300.316 183.521V173.074L60.7734 147.204L301.202 171.04L604.179 92.2676Z" fill="#FFD8B1"/>
<path opacity="0.35" d="M604.177 92.2723L490.594 122.637L489.876 122.66L69.5 145.481L338.361 92.2607H604.081L604.145 92.2723H604.177Z" fill="#333634"/>
</svg>
