<svg width="183" height="280" viewBox="0 0 183 280" fill="none" xmlns="http://www.w3.org/2000/svg">
<path fill-rule="evenodd" clip-rule="evenodd" d="M14.1452 0H168.348C176.117 0 182.493 6.37879 182.493 14.1452V265.855C182.493 273.739 176.117 280 168.348 280H14.1452C6.37543 280 0 273.739 0 265.855V14.1452C0 6.37543 6.37879 0 14.1452 0Z" fill="#DDC28C"/>
<path d="M168.359 0H14.1562V280H168.359V0Z" fill="#ECCF97"/>
<path fill-rule="evenodd" clip-rule="evenodd" d="M82.4423 0H168.354V280H101.572C76.6428 240.697 60.9922 183.998 60.9922 120.81C60.9922 76.0572 68.8764 34.4334 82.4423 0Z" fill="#F4D59A"/>
<path d="M35.012 145.16V150.841C35.012 153.741 33.8535 154.782 31.7654 154.782C29.7952 154.782 28.5187 153.738 28.5187 150.841V129.159C28.5187 126.259 29.7952 125.215 31.7654 125.215C33.8535 125.215 35.012 126.259 35.012 129.159V133.45H41.0406V129.624C41.0406 123.13 37.7939 119.537 31.6475 119.537C25.3866 119.537 22.2578 123.13 22.2578 129.624V150.495C22.2578 156.87 25.3899 160.467 31.6475 160.467C37.7939 160.467 41.0406 156.873 41.0406 150.495V145.16H35.012ZM51.1274 125.68H62.0259V119.998H44.8665V160.113H62.0259V154.317H51.1274V142.607H59.8233V136.811H51.1274V125.68ZM74.6623 120.002H65.8518V160.117H71.4156V131.712L76.0532 160.117H82.0817L86.3724 131.247V160.117H92.4009V120.002H83.5905L79.2998 148.406L74.6623 120.002ZM103.303 125.68H114.201V119.998H96.9274V160.113H114.201V154.317H103.303V142.607H111.881V136.811H103.303V125.68ZM131.475 160.117H137.969V120.002H132.405V144.001L125.911 120.002H118.027V160.117H123.709V131.015L131.475 160.117ZM140.636 125.68H147.244V160.113H153.619V125.68H160.112V119.998H140.633L140.636 125.68Z" fill="#90583F"/>
<path fill-rule="evenodd" clip-rule="evenodd" d="M25.7344 89.5087H156.634V97.8577H25.7344V89.5087ZM25.7344 182.146H156.634V190.495H25.7344V182.146Z" fill="#90583F"/>
</svg>
