<svg width="420" height="194" viewBox="0 0 420 194" fill="none" xmlns="http://www.w3.org/2000/svg">
<path fill-rule="evenodd" clip-rule="evenodd" d="M10.0375 0H221.808C227.238 0 231.683 4.4452 231.683 9.87498V54.6324C231.683 60.0621 227.238 64.6698 221.808 64.6698H10.0375C4.6077 64.6698 0 60.0621 0 54.6324V9.87498C0 4.44042 4.6077 0 10.0375 0Z" fill="#C2C3C3"/>
<path fill-rule="evenodd" clip-rule="evenodd" d="M10.0375 64.6653H221.808C227.238 64.6653 231.683 69.1105 231.683 74.5403V119.298C231.683 124.895 227.238 129.335 221.808 129.335H10.0375C4.6077 129.335 0 124.895 0 119.298V74.5403C0 69.1105 4.6077 64.6653 10.0375 64.6653Z" fill="#AEAEAF"/>
<path fill-rule="evenodd" clip-rule="evenodd" d="M10.0375 129.335H221.808C227.238 129.335 231.683 133.78 231.683 139.373V183.963C231.683 189.56 227.238 194 221.808 194H10.0375C4.6077 194 0 189.555 0 183.963V139.373C0 133.776 4.6077 129.335 10.0375 129.335Z" fill="#979797"/>
<path fill-rule="evenodd" clip-rule="evenodd" d="M198.28 0H409.888C415.485 0 419.926 4.4452 419.926 9.87498V54.6324C419.926 60.0621 415.48 64.6698 409.888 64.6698H198.28C192.687 64.6698 188.242 60.0621 188.242 54.6324V9.87498C188.242 4.44042 192.683 0 198.28 0Z" fill="#EAEBEB"/>
<path fill-rule="evenodd" clip-rule="evenodd" d="M198.28 64.6653H409.888C415.485 64.6653 419.926 69.1105 419.926 74.5403V119.298C419.926 124.895 415.48 129.335 409.888 129.335H198.28C192.687 129.335 188.242 124.895 188.242 119.298V74.5403C188.242 69.1105 192.683 64.6653 198.28 64.6653Z" fill="#D7D8D8"/>
<path fill-rule="evenodd" clip-rule="evenodd" d="M198.28 129.335H409.888C415.485 129.335 419.926 133.78 419.926 139.373V183.963C419.926 189.56 415.48 194 409.888 194H198.28C192.687 194 188.242 189.555 188.242 183.963V139.373C188.242 133.776 192.683 129.335 198.28 129.335Z" fill="#C2C3C3"/>
<path fill-rule="evenodd" clip-rule="evenodd" d="M276.948 10.3669C288.96 10.3669 298.667 20.2419 298.667 32.2534C298.667 44.4322 288.96 54.1397 276.948 54.1397C264.774 54.1397 255.062 44.4322 255.062 32.2534C255.062 20.2371 264.774 10.3669 276.948 10.3669ZM331.413 10.3669C343.425 10.3669 353.3 20.2419 353.3 32.2534C353.3 44.4322 343.425 54.1397 331.413 54.1397C319.235 54.1397 309.527 44.4322 309.527 32.2534C309.527 20.2371 319.235 10.3669 331.413 10.3669ZM385.878 10.3669C397.89 10.3669 407.765 20.2419 407.765 32.2534C407.765 44.4322 397.89 54.1397 385.878 54.1397C373.867 54.1397 363.992 44.4322 363.992 32.2534C363.992 20.2371 373.867 10.3669 385.878 10.3669ZM222.321 10.3669C234.495 10.3669 244.207 20.2419 244.207 32.2534C244.207 44.4322 234.499 54.1397 222.321 54.1397C210.309 54.1397 200.602 44.4322 200.602 32.2534C200.597 20.2371 210.309 10.3669 222.321 10.3669Z" fill="#4D4D4C"/>
<path fill-rule="evenodd" clip-rule="evenodd" d="M276.948 75.1997C288.96 75.1997 298.667 84.9074 298.667 96.9189C298.667 109.098 288.96 118.805 276.948 118.805C264.774 118.805 255.062 109.098 255.062 96.9189C255.062 84.9074 264.774 75.1997 276.948 75.1997ZM331.413 75.1997C343.425 75.1997 353.3 84.9074 353.3 96.9189C353.3 109.098 343.425 118.805 331.413 118.805C319.235 118.805 309.527 109.098 309.527 96.9189C309.527 84.9074 319.235 75.1997 331.413 75.1997ZM385.878 75.1997C397.89 75.1997 407.765 84.9074 407.765 96.9189C407.765 109.098 397.89 118.805 385.878 118.805C373.867 118.805 363.992 109.098 363.992 96.9189C363.992 84.9074 373.867 75.1997 385.878 75.1997ZM222.321 75.1997C234.495 75.1997 244.207 84.9074 244.207 96.9189C244.207 109.098 234.499 118.805 222.321 118.805C210.309 118.805 200.602 109.098 200.602 96.9189C200.597 84.9074 210.309 75.1997 222.321 75.1997Z" fill="#30302F"/>
<path fill-rule="evenodd" clip-rule="evenodd" d="M276.948 139.865C288.96 139.865 298.667 149.572 298.667 161.751C298.667 173.762 288.96 183.47 276.948 183.47C264.774 183.47 255.062 173.762 255.062 161.751C255.062 149.572 264.774 139.865 276.948 139.865ZM331.413 139.865C343.425 139.865 353.3 149.572 353.3 161.751C353.3 173.762 343.425 183.47 331.413 183.47C319.235 183.47 309.527 173.762 309.527 161.751C309.527 149.572 319.235 139.865 331.413 139.865ZM385.878 139.865C397.89 139.865 407.765 149.572 407.765 161.751C407.765 173.762 397.89 183.47 385.878 183.47C373.867 183.47 363.992 173.762 363.992 161.751C363.992 149.572 373.867 139.865 385.878 139.865ZM222.321 139.865C234.495 139.865 244.207 149.572 244.207 161.751C244.207 173.762 234.499 183.47 222.321 183.47C210.309 183.47 200.602 173.762 200.602 161.751C200.597 149.572 210.309 139.865 222.321 139.865Z" fill="#131414"/>
</svg>
