<svg width="300" height="250" viewBox="0 0 300 250" fill="none" xmlns="http://www.w3.org/2000/svg">
<path d="M149.819 22.1184H4.11661C4.88988 48.4804 20.8333 72.2723 46.4258 89.7623C72.7878 107.768 109.311 118.956 149.819 118.956C190.201 118.956 226.724 107.768 253.086 89.7623C278.678 72.2723 294.752 48.4804 295.522 22.1184H149.819ZM2.05831 18.1326H149.819H297.453C298.611 18.1326 299.511 19.0328 299.511 20.1909C299.511 48.7382 282.664 74.4614 255.402 93.1057C228.266 111.496 190.974 122.942 149.819 122.942C108.537 122.942 71.245 111.496 44.1097 93.1057C16.8475 74.4577 0 48.7382 0 20.1909C0 19.0328 0.900277 18.1326 2.05831 18.1326Z" fill="#C2C3C3"/>
<path fill-rule="evenodd" clip-rule="evenodd" d="M13.1129 6.42871C58.2499 6.42871 103.391 6.42871 148.528 6.42871C193.665 6.42871 238.932 6.42871 284.2 6.42871C284.585 11.0571 284.973 15.5584 285.358 20.1906C285.874 24.6919 286.258 29.4511 286.774 34.0795C240.606 34.0795 194.569 34.0795 148.528 34.0795C102.617 34.0795 56.5764 34.0795 10.5391 34.0795C10.9238 29.4511 11.4393 24.8189 11.8241 20.1906C12.2126 15.5584 12.7244 11.0608 13.1129 6.42871Z" fill="#EAEBEB"/>
<path d="M280.346 0H19.2891V6.42896H280.346V0Z" fill="#E1E2E2"/>
<path fill-rule="evenodd" clip-rule="evenodd" d="M41.6652 250C77.6724 250 113.68 250 149.691 250C185.702 250 221.705 250 257.716 250C258.489 250 259.132 249.358 259.259 248.584C262.345 217.721 265.43 185.184 268.904 150.72C272.505 114.197 276.233 75.358 280.35 34.0798C236.756 34.0798 193.158 34.0798 149.691 34.0798C106.223 34.0798 62.7563 34.0798 19.2891 34.0798C23.2749 75.3617 27.1338 114.197 30.6041 150.72C34.0782 185.184 37.2908 217.721 40.2494 248.584C40.3801 249.354 41.0227 250 41.6652 250Z" fill="#EAEBEB"/>
<path fill-rule="evenodd" clip-rule="evenodd" d="M279.708 39.8662L280.35 34.0798C236.756 34.0798 193.158 34.0798 149.691 34.0798C106.223 34.0798 62.7563 34.0798 19.2891 34.0798L19.8046 39.8662H148.533H279.708Z" fill="#D7D8D8"/>
<path fill-rule="evenodd" clip-rule="evenodd" d="M262.736 213.604L268.91 150.72L276.751 70.4717H22.7656L30.6103 150.72L36.7853 213.604H262.736Z" fill="#979797"/>
<path fill-rule="evenodd" clip-rule="evenodd" d="M149.819 86.9343C197.53 86.9343 236.238 111.627 236.238 141.974C236.238 172.453 197.53 197.145 149.819 197.145C101.982 197.145 63.2734 172.453 63.2734 141.974C63.2734 111.623 101.982 86.9343 149.819 86.9343Z" fill="#FBC800"/>
<path d="M111.497 146.218H115.098V155.221C115.098 158.822 113.555 160.107 110.981 160.107C108.538 160.107 106.995 158.822 106.995 155.221V128.728C106.995 125.254 108.538 123.842 110.981 123.842C113.551 123.842 115.098 125.258 115.098 128.728V133.999H122.3V129.24C122.3 121.269 118.441 116.767 110.854 116.767C103.267 116.767 99.2812 121.269 99.2812 129.24V154.833C99.2812 162.677 103.267 167.179 110.854 167.179C118.441 167.179 122.3 162.677 122.3 154.833V139.143H111.497V146.218ZM127.317 166.536H147.765V159.592H135.034V117.41H127.317V166.536ZM150.851 117.413V154.836C150.851 162.681 154.71 167.182 162.297 167.182C169.884 167.182 173.87 162.681 173.87 154.836V117.413H166.54V155.352C166.54 158.826 164.998 160.111 162.555 160.111C160.111 160.111 158.569 158.826 158.569 155.352V117.413H150.851ZM186.858 124.485H200.232V117.413H179.14V166.54H200.232V159.596H186.858V145.191H197.531V138.12H186.858V124.485Z" fill="#EAEBEB"/>
<path fill-rule="evenodd" clip-rule="evenodd" d="M259.908 46.2954H266.721L247.304 242.54H240.359L259.908 46.2954Z" fill="#FEFEFE"/>
</svg>
