<svg width="356" height="160" viewBox="0 0 356 160" fill="none" xmlns="http://www.w3.org/2000/svg">
<path fill-rule="evenodd" clip-rule="evenodd" d="M5.90725 80.0619H225.484C228.751 80.0619 231.391 82.5738 231.391 85.845V154.093C231.391 157.36 228.751 160 225.484 160H5.90725C2.63964 160 0 157.36 0 154.093V85.845C0 82.5774 2.63964 80.0619 5.90725 80.0619Z" fill="#9B8F82"/>
<path fill-rule="evenodd" clip-rule="evenodd" d="M46.6417 0H266.342C269.486 0 272.125 2.63965 272.125 5.90727V74.1548C272.125 77.4224 269.486 80.062 266.342 80.062H46.6417C43.3741 80.062 40.7344 77.4224 40.7344 74.1548V5.90727C40.7344 2.63965 43.3741 0 46.6417 0Z" fill="#A79A8C"/>
<path fill-rule="evenodd" clip-rule="evenodd" d="M201.72 80.0619H269.967C273.235 80.0619 275.875 82.5738 275.875 85.845V154.093C275.875 157.36 273.235 160 269.967 160H201.72C198.452 160 195.812 157.36 195.812 154.093V85.845C195.812 82.5774 198.452 80.0619 201.72 80.0619Z" fill="#796F63"/>
<path fill-rule="evenodd" clip-rule="evenodd" d="M281.658 80.0619H349.906C353.173 80.0619 355.813 82.5738 355.813 85.845V154.093C355.813 157.36 353.173 160 349.906 160H281.658C278.515 160 275.875 157.36 275.875 154.093V85.845C275.879 82.5774 278.518 80.0619 281.658 80.0619Z" fill="#796F63"/>
<path fill-rule="evenodd" clip-rule="evenodd" d="M242.439 0H310.687C313.955 0 316.594 2.63965 316.594 5.90727V74.1548C316.594 77.4224 313.955 80.062 310.687 80.062H242.439C239.296 80.062 236.656 77.4224 236.656 74.1548V5.90727C236.656 2.63965 239.296 0 242.439 0Z" fill="#827668"/>
<path d="M264.573 91.2488H207.133V148.814H264.573V91.2488Z" fill="#271A12"/>
<path d="M344.651 91.2488H287.086V148.814H344.651V91.2488Z" fill="#271A12"/>
<path d="M305.432 11.3108H247.867V68.7515H305.432V11.3108Z" fill="#271A12"/>
<path d="M195.82 93.0083H0V147.054H195.82V93.0083Z" fill="#B2A699"/>
<path d="M236.682 13.0703H40.7344V66.9915H236.682V13.0703Z" fill="#B2A699"/>
</svg>
