<svg width="237" height="215" viewBox="0 0 237 215" fill="none" xmlns="http://www.w3.org/2000/svg">
<path fill-rule="evenodd" clip-rule="evenodd" d="M224.795 201.362C224.795 208.949 177.286 215 118.448 215C59.7228 215 12.1016 208.952 12.1016 201.362V13.5254H224.792V201.362H224.795Z" fill="#D7D8D8"/>
<path fill-rule="evenodd" clip-rule="evenodd" d="M118.448 0C177.286 0 224.795 6.04732 224.795 13.5258C224.795 21.0042 177.286 27.1633 118.448 27.1633C59.7228 27.1633 12.1016 21.0042 12.1016 13.5258C12.1016 6.04732 59.7196 0 118.448 0Z" fill="#C2C3C3"/>
<path fill-rule="evenodd" clip-rule="evenodd" d="M21.3359 12.3148C29.3639 14.733 44.8702 16.7136 48.9401 17.1545C71.8163 19.6845 95.4592 20.5631 118.444 20.5631C141.537 20.5631 165.184 19.6845 188.06 17.1545C192.13 16.7136 207.524 14.7362 215.664 12.3148C207.524 9.78466 192.13 7.8072 188.06 7.36635C165.187 4.83626 141.541 4.06641 118.444 4.06641C95.4592 4.06641 71.8163 4.83626 48.9401 7.36635C44.8702 7.8072 29.3639 9.78786 21.3359 12.3148Z" fill="#DC291B"/>
<path fill-rule="evenodd" clip-rule="evenodd" d="M32.5469 14.845C39.3673 16.0557 46.4049 16.9342 48.935 17.1546C71.8112 19.6847 95.4541 20.5633 118.439 20.5633C141.532 20.5633 165.178 19.6847 188.055 17.1546C190.585 16.9342 197.622 16.0557 204.44 14.845C197.622 13.5256 190.582 12.7558 188.055 12.4267C165.182 9.89666 141.536 9.12671 118.439 9.12671C95.4541 9.12671 71.8112 9.89666 48.935 12.4267C46.4049 12.7558 39.3673 13.5256 32.5469 14.845Z" fill="#B12118"/>
<path fill-rule="evenodd" clip-rule="evenodd" d="M224.795 162.101C224.795 169.58 177.286 175.739 118.448 175.739C59.7228 175.739 12.1016 169.58 12.1016 162.101V52.7866C12.1016 60.3737 59.7196 66.4242 118.448 66.4242C177.286 66.4242 224.795 60.3769 224.795 52.7866V162.101Z" fill="#FEFEFE"/>
<path fill-rule="evenodd" clip-rule="evenodd" d="M224.795 151.435C224.795 158.913 177.286 164.96 118.448 164.96C59.7228 164.96 12.1016 158.913 12.1016 151.435V63.5652C12.1016 71.0436 59.7196 77.0909 118.448 77.0909C177.286 77.0909 224.795 71.0436 224.795 63.5652V151.435Z" fill="#B12118"/>
<path fill-rule="evenodd" clip-rule="evenodd" d="M12.1016 133.069V128.45C29.5886 132.191 47.0724 134.829 64.4508 136.586V133.398C64.4508 130.98 66.4314 129.108 68.7411 129.108H168.6C170.909 129.108 172.89 130.977 172.89 133.398V136.149C190.157 134.389 207.532 131.75 224.798 128.45V132.957C207.532 136.257 190.157 138.896 172.89 140.656V148.796C172.89 151.106 170.909 152.974 168.6 152.974H68.7411C66.4314 152.974 64.4508 151.106 64.4508 148.796V141.097C47.0756 139.337 29.5886 136.698 12.1016 133.069Z" fill="#8A170C"/>
<path fill-rule="evenodd" clip-rule="evenodd" d="M20.8956 28.8118H6.15908C2.75049 28.8118 0 31.5622 0 34.9708C0 38.3794 2.75049 41.1299 6.15908 41.1299H20.8956C24.3042 41.1299 27.1633 38.3794 27.1633 34.9708C27.1633 31.5622 24.3042 28.8118 20.8956 28.8118ZM230.839 28.8118H216.102C212.693 28.8118 209.834 31.5622 209.834 34.9708C209.834 38.3794 212.693 41.1299 216.102 41.1299H230.839C234.247 41.1299 236.998 38.3794 236.998 34.9708C236.998 31.5622 234.247 28.8118 230.839 28.8118ZM6.59993 32.3321C8.0279 32.3321 9.13005 33.5428 9.13005 34.9708C9.13005 36.3988 8.03109 37.501 6.59993 37.501C5.16877 37.501 3.96122 36.402 3.96122 34.9708C3.96122 33.5396 5.16877 32.3321 6.59993 32.3321ZM230.51 32.3321C231.938 32.3321 233.04 33.5428 233.04 34.9708C233.04 36.3988 231.941 37.501 230.51 37.501C229.078 37.501 227.871 36.402 227.871 34.9708C227.871 33.5396 229.078 32.3321 230.51 32.3321Z" fill="#D7D8D8"/>
<path d="M228.406 35.191C228.406 33.9803 229.396 32.99 230.604 32.99C231.814 32.99 232.805 33.9803 232.805 35.191V127.13C232.805 128.229 231.926 129.22 230.824 129.331C193.432 136.81 155.931 140.988 118.539 141.1C80.926 141.321 43.4251 137.471 5.92425 129.223C4.82532 129.002 4.16406 128.124 4.16406 127.134V35.1942C4.16406 33.9835 5.15434 32.9932 6.36188 32.9932C7.57262 32.9932 8.56296 33.9835 8.56296 35.1942V125.265C45.294 133.184 81.9163 136.813 118.427 136.701C155.049 136.481 191.672 132.523 228.403 125.265L228.406 35.191Z" fill="#C2C3C3"/>
<path fill-rule="evenodd" clip-rule="evenodd" d="M68.7278 126.581H168.586C170.896 126.581 172.877 128.562 172.877 130.871V142.749C172.877 145.058 170.896 147.039 168.586 147.039H68.7278C66.4181 147.039 64.4375 145.058 64.4375 142.749V130.871C64.4407 128.562 66.4181 126.581 68.7278 126.581Z" fill="#FBC800"/>
</svg>
