<svg width="400" height="213" viewBox="0 0 400 213" fill="none" xmlns="http://www.w3.org/2000/svg">
<path d="M181.147 77.9434C185.284 77.9434 188.651 81.3106 188.651 85.5986C188.651 89.7353 185.284 93.1025 181.147 93.1025H129.54C126.325 93.1025 123.567 91.1097 122.495 88.2006L101.362 42.2611H32.6083C28.3203 42.2611 24.9531 38.8939 24.9531 34.7572C24.9531 30.4693 28.3203 27.1021 32.6083 27.1021H106.108C109.017 27.1021 111.775 28.7879 112.998 31.5413L134.438 77.9391L181.147 77.9434Z" fill="#50959E"/>
<path d="M399.339 52.0649H135.805V66.3076H399.339V52.0649Z" fill="#63AFB7"/>
<path fill-rule="evenodd" clip-rule="evenodd" d="M146.992 66.303C186.958 66.303 227.08 66.303 267.045 66.303C307.011 66.303 347.133 66.303 387.25 66.303C380.667 89.424 374.844 110.099 369.489 128.78C364.743 145.625 360.455 161.091 356.474 175.178C326.614 175.178 296.905 175.178 267.045 175.178C237.337 175.178 207.633 175.178 177.773 175.178C173.792 161.091 169.504 145.625 164.758 128.78C159.398 110.099 153.58 89.424 146.992 66.303Z" fill="#63AFB7"/>
<path fill-rule="evenodd" clip-rule="evenodd" d="M316.68 175.179H267.066H228.938C228.938 150.986 248.54 131.383 272.884 131.383C297.082 131.383 316.68 150.986 316.68 175.179Z" fill="#50959E"/>
<path fill-rule="evenodd" clip-rule="evenodd" d="M146.992 66.303C186.958 66.303 227.08 66.303 267.045 66.303C307.011 66.303 347.133 66.303 387.25 66.303L385.106 73.4999H149.136L146.992 66.303Z" fill="#50959E"/>
<path fill-rule="evenodd" clip-rule="evenodd" d="M151.133 52.0645L260.466 0L377.762 52.0645H151.133Z" fill="#FBC800"/>
<path fill-rule="evenodd" clip-rule="evenodd" d="M261.391 3.67383L364.448 52.0643H343.008L261.391 3.67383Z" fill="#B89300"/>
<path fill-rule="evenodd" clip-rule="evenodd" d="M249.425 20.2117C250.648 20.2117 251.569 21.1279 251.569 22.3556C251.569 23.5788 250.653 24.4996 249.425 24.4996C248.202 24.4996 247.281 23.5788 247.281 22.3556C247.281 21.1324 248.202 20.2117 249.425 20.2117Z" fill="#DCB002"/>
<path fill-rule="evenodd" clip-rule="evenodd" d="M226.463 27.5647C228.456 27.5647 230.137 29.2505 230.137 31.2387C230.137 33.2315 228.451 34.9129 226.463 34.9129C224.47 34.9129 222.789 33.227 222.789 31.2387C222.789 29.246 224.475 27.5647 226.463 27.5647Z" fill="#DCB002"/>
<path fill-rule="evenodd" clip-rule="evenodd" d="M210.407 39.9653C211.937 39.9653 213.165 41.1885 213.165 42.7231C213.165 44.102 211.941 45.3253 210.407 45.3253C209.028 45.3253 207.805 44.102 207.805 42.7231C207.8 41.1885 209.028 39.9653 210.407 39.9653Z" fill="#DCB002"/>
<path fill-rule="evenodd" clip-rule="evenodd" d="M256.788 37.208C258.626 37.208 260.311 38.7381 260.311 40.7308C260.311 42.7236 258.626 44.2538 256.788 44.2538C254.8 44.2538 253.266 42.7236 253.266 40.7308C253.266 38.7426 254.796 37.208 256.788 37.208Z" fill="#DCB002"/>
<path fill-rule="evenodd" clip-rule="evenodd" d="M271.506 22.8137C272.885 22.8137 273.957 23.8857 273.957 25.2646C273.957 26.6435 272.885 27.7154 271.506 27.7154C270.283 27.7154 269.211 26.6435 269.211 25.2646C269.211 23.8857 270.283 22.8137 271.506 22.8137Z" fill="#DCB002"/>
<path fill-rule="evenodd" clip-rule="evenodd" d="M294.296 37.5154C296.591 37.5154 298.433 39.3525 298.433 41.6477C298.433 43.9429 296.596 45.7844 294.296 45.7844C292.001 45.7844 290.164 43.9474 290.164 41.6477C290.16 39.3525 291.997 37.5154 294.296 37.5154Z" fill="#DCB002"/>
<path fill-rule="evenodd" clip-rule="evenodd" d="M237.052 41.3445C238.583 41.3445 239.655 42.5678 239.655 43.9467C239.655 45.4768 238.583 46.5488 237.052 46.5488C235.674 46.5488 234.602 45.4768 234.602 43.9467C234.602 42.5678 235.674 41.3445 237.052 41.3445Z" fill="#DCB002"/>
<path fill-rule="evenodd" clip-rule="evenodd" d="M272.877 137.356C293.702 137.356 310.547 154.352 310.547 175.178C310.547 196.003 293.702 212.999 272.877 212.999C251.899 212.999 235.055 196.003 235.055 175.178C235.055 154.352 251.899 137.356 272.877 137.356Z" fill="#40484C"/>
<path fill-rule="evenodd" clip-rule="evenodd" d="M272.865 151.136C286.036 151.136 296.907 161.856 296.907 175.178C296.907 188.5 286.036 199.22 272.865 199.22C259.543 199.22 248.672 188.5 248.672 175.178C248.672 161.856 259.543 151.136 272.865 151.136Z" fill="#EAEBEB"/>
<path fill-rule="evenodd" clip-rule="evenodd" d="M272.88 168.595C276.403 168.595 279.463 171.505 279.463 175.179C279.463 178.853 276.403 181.762 272.88 181.762C269.206 181.762 266.297 178.853 266.297 175.179C266.297 171.505 269.206 168.595 272.88 168.595Z" fill="#40484C"/>
<path d="M60.775 24.3494H10.7031V45.0239H60.775V24.3494Z" fill="#2B3033"/>
<path d="M71.5011 22.0493H60.7812V47.47H71.5011V22.0493Z" fill="#40484C"/>
<path d="M10.7199 22.0493H0V47.47H10.7199V22.0493Z" fill="#40484C"/>
</svg>
