<svg width="432" height="272" viewBox="0 0 432 272" fill="none" xmlns="http://www.w3.org/2000/svg">
<path d="M325.296 88.0401C296.544 61.4984 273.841 28.604 243.069 4.43656C240.159 2.15102 236.854 -0.158712 233.155 0.00857188C228.423 0.222211 224.93 4.33175 222.036 8.08455C178.119 65.0678 129.931 118.762 78.0148 168.568C69.5902 176.65 60.9196 184.823 55.4194 195.12C49.9192 205.417 48.0791 218.443 53.7244 228.661C60.0187 240.052 73.7823 245.164 86.7236 246.552C99.6629 247.941 112.892 246.552 125.63 249.221C135.433 251.275 144.561 255.654 153.919 259.224C217.39 283.429 288.907 269.621 353.235 247.796C371.2 241.701 388.963 235.002 406.479 227.72C414.368 224.441 422.567 220.764 427.72 213.952C432.874 207.14 433.619 196.214 427.035 190.766C409.216 176.033 399.707 152.642 382.104 136.103C364.011 119.102 343.534 104.875 325.296 88.0401Z" fill="#F3BD63"/>
<path d="M223.069 44.8749C229.764 99.1373 223.98 154.901 206.286 206.634C216.208 217.516 238.386 204.846 247.611 216.326C254.728 225.18 246.071 237.747 237.886 245.625C209.579 247.087 181.387 250.793 153.664 256.702C213.818 273.62 279.653 269.573 337.283 245.416C339.194 244.616 341.185 243.723 342.418 242.06C343.616 240.444 343.912 238.347 344.095 236.344C347.034 204.399 331.531 173.766 314.166 146.791C298.167 121.94 284.619 97.1883 270.704 71.2755C266.756 63.9231 262.515 57.1269 256.193 51.4655C254.566 50.0043 221.513 32.2783 223.069 44.8749Z" fill="#EDAF54"/>
<path d="M253.838 42.7847C250.5 39.4249 244.623 36.0954 241.731 39.8462C240.399 41.5734 240.618 43.996 240.902 46.1586C244.363 72.5027 248.055 99.5644 260.984 122.777C279.42 155.877 314.985 178.057 328.7 213.378C330.826 218.854 331.768 226.335 326.799 229.467C324.189 231.114 320.87 230.84 317.79 231.074C308.291 231.797 299.48 238.363 296.072 247.26C295.141 249.694 294.641 252.609 296.082 254.781C298.363 258.218 303.527 257.49 307.495 256.362C322.65 252.05 337.804 247.739 352.958 243.428C368.018 239.145 383.424 234.695 396.087 225.491C446.609 188.771 387.419 158.863 358.829 136.343C321.985 107.322 286.891 76.0641 253.838 42.7847Z" fill="#DD9F4B"/>
<path d="M396.62 170.454C389.413 165.182 382.145 160.018 375.155 154.361C365.749 146.75 357.558 137.727 348.108 130.169C338.657 122.611 327.479 116.426 315.391 115.92C331.686 139.64 349.597 162.251 368.958 183.547C373.44 188.477 378.233 193.832 378.924 200.459C378.203 208.635 375.361 213.99 371.318 221.103C367.825 227.248 366.436 234.435 364.509 241.346C380.923 233.297 397.337 225.247 413.751 217.197C417.76 215.232 421.843 213.212 425.02 210.076C426.068 209.04 427.033 207.839 427.38 206.406C427.894 204.284 426.967 202.097 425.959 200.158C422.027 192.598 416.513 185.869 409.874 180.526C405.528 177.029 401.086 173.719 396.62 170.454Z" fill="#CC8A3A"/>
<path d="M229.738 9.19493C229.883 9.81972 230.193 10.4042 230.272 11.0391C230.508 12.9558 228.696 14.413 227.222 15.6606C221.39 20.6025 218.286 28.5797 219.241 36.1619C219.356 37.0708 219.545 38.0201 220.14 38.7195C220.725 39.4088 221.615 39.7494 222.48 40.0134C229.929 42.2909 237.622 40.6321 244.868 43.609C251.966 46.5254 258.337 50.8848 263.368 56.7135C265.438 59.1099 267.28 61.732 269.67 63.808C275.795 69.1308 285.473 70.983 288.581 78.4806C280.88 59.9081 270.206 41.7044 258.031 25.7419C253.425 19.7016 248.389 13.5201 242.858 8.30006C240.101 5.69407 227.674 0.401456 229.738 9.19493Z" fill="#CC8A3A"/>
<path d="M118.066 251.958C123.084 252.913 128.206 253.179 133.309 253.445C138.531 253.718 144.489 253.707 148.042 249.87C151.18 246.48 151.236 241.369 151.446 236.753C152.115 222.077 156.146 207.789 160.151 193.657C152.379 199.558 150.475 210.198 148.11 219.666C145.746 229.135 140.947 239.692 131.43 241.855C127.974 242.641 124.374 242.153 120.835 241.982C116.718 241.78 99.8663 240.436 99.1286 246.295C98.6308 250.211 114.523 251.285 118.066 251.958Z" fill="#CC8A3A"/>
<path d="M108.073 146.011C102.607 153.043 97.1293 160.093 92.4977 167.699C84.4298 180.951 78.9599 195.839 69.2554 207.944C65.684 212.4 61.3709 216.872 60.8529 222.56C60.7723 223.439 60.7481 224.42 60.1213 225.041C59.7081 225.448 59.1176 225.605 58.5553 225.738C39.4164 230.275 18.7821 225.495 0 231.335C1.40276 225.69 4.09339 219.998 9.01919 216.907C11.9154 215.089 15.3397 214.323 18.4294 212.86C21.7348 211.296 24.6028 208.96 27.4224 206.634C61.8486 178.242 94.5535 147.766 125.299 115.424C129.947 110.536 135.683 103.204 142.201 101.056C139.996 107.904 132.41 114.708 128.034 120.338C121.377 128.893 114.726 137.451 108.073 146.011Z" fill="#CC8A3A"/>
<path d="M173.587 68.0264C154.874 105.319 134.894 141.978 113.696 177.916C110.038 184.115 106.323 190.337 103.816 197.085C100.458 206.122 99.1944 216.213 93.3637 223.894C87.3374 231.833 77.2399 235.846 67.3097 236.707C57.3795 237.565 47.4413 235.655 37.6582 233.754C35.8241 233.397 33.5507 232.553 33.5084 230.684C33.4782 229.38 34.631 228.385 35.7153 227.661C40.2501 224.638 45.4823 222.762 49.9364 219.622C54.6164 216.322 58.2422 211.771 61.7995 207.285C76.9356 188.2 92.0758 169.112 106.72 149.643C114.153 139.761 121.459 129.782 128.568 119.663C134.191 111.659 137.722 103.759 144.474 96.525C153.741 86.5928 163.46 77.0798 173.587 68.0264Z" fill="#DD9F4B"/>
<path d="M179.797 140.831C175.711 169.225 160.549 195.224 157.294 223.723C156.595 229.844 156.457 236.015 156.566 242.175C156.665 247.655 156.028 254.588 150.848 256.376C143.863 258.786 136.436 248.695 129.922 252.185C146.813 243.134 153.116 218.973 155.714 201.938C158.872 181.201 170.906 159.645 179.797 140.831Z" fill="#DD9F4B"/>
<path d="M126.771 119.552C117.665 126.342 109.077 133.827 101.108 141.919C100.636 142.399 100.128 143.014 100.3 143.663C100.596 144.788 102.269 144.507 103.299 143.967C124.6 132.761 143.6 116.007 154.01 94.3062C153.24 95.9105 148.542 97.9642 147.026 99.2521C144.487 101.409 142.165 103.825 140.117 106.453C136 111.736 132.245 115.471 126.771 119.552Z" fill="#F3BD63"/>
<path d="M255.122 174.096C257.565 176.168 259.464 178.805 261.771 181.026C269.519 188.477 282.037 190.434 291.687 185.697C292.479 185.308 293.334 184.774 293.509 183.908C293.616 183.378 293.436 182.836 293.227 182.338C291.419 178.057 286.922 175.058 282.275 175.036C280.568 175.028 278.701 175.346 277.276 174.405C274.771 172.746 275.684 168.983 275.989 165.994C276.523 160.75 274.14 155.546 270.692 151.56C267.243 147.575 262.793 144.608 258.404 141.694C257.279 140.948 256.025 140.17 254.687 140.337C252.702 140.585 251.555 142.812 251.458 144.812C251.243 149.252 252.452 152.541 249.336 156.34C247.762 158.259 245.013 159.059 243.576 161.014C237.223 169.656 250.551 170.215 255.122 174.096Z" fill="#F3BD63"/>
<path d="M266.37 78.7687C269.834 79.0146 273.234 80.1513 276.149 82.0418C278.315 83.4466 280.208 85.2505 282.405 86.6129C284.6 87.9734 287.268 88.8803 289.765 88.2233C288.747 81.4533 284.188 75.3182 278.003 72.3878C275.443 71.1745 272.658 70.4892 270.1 69.2718C266.753 67.6776 263.871 65.2087 260.47 63.7354C259.384 63.2658 258.211 62.8949 257.036 63.034C250.867 63.7636 257.232 69.4815 258.155 71.5755C258.939 73.3512 257.703 75.0159 259.166 76.7875C260.865 78.8433 263.977 78.5994 266.37 78.7687Z" fill="#F3BD63"/>
<path d="M379.192 178.815C380.875 180.064 382.558 181.314 384.338 182.42C388.903 185.258 394.072 187.116 399.399 187.834C400.411 187.971 401.826 187.749 401.868 186.729C401.882 186.375 401.699 186.044 401.522 185.738C400.538 184.037 399.554 182.336 398.573 180.635C397.196 178.252 395.763 175.805 393.577 174.137C392.313 173.173 390.85 172.512 389.399 171.859C387.192 170.866 384.985 169.872 382.778 168.878C381.071 168.108 371.908 167.528 370.623 169.382C368.337 172.673 377.235 177.363 379.192 178.815Z" fill="#F3BD63"/>
</svg>
