<svg width="440" height="258" viewBox="0 0 440 258" fill="none" xmlns="http://www.w3.org/2000/svg">
<path d="M319.219 215.096C317.227 217.07 313.515 219.412 308.806 221.803C308.8 221.809 308.788 221.809 308.782 221.809C292.308 230.176 263.652 239.116 253.438 234.811C247.963 232.506 241.968 231.721 236.034 232.089C217.466 233.236 194.726 235.56 178.801 235.035C178.795 235.035 178.795 235.035 178.789 235.035C177.364 234.986 175.994 234.92 174.684 234.823C173.7 234.751 172.752 234.666 171.846 234.564C171.418 234.515 171.001 234.461 170.597 234.413C169.987 234.328 169.395 234.238 168.828 234.135C168.641 234.105 168.453 234.069 168.267 234.033C168.085 234.003 167.911 233.966 167.736 233.93C167.567 233.894 167.392 233.858 167.223 233.822C166.577 233.683 165.961 233.526 165.381 233.363C164.82 233.2 164.295 233.025 163.806 232.832C163.655 232.771 163.504 232.711 163.359 232.65C163.268 232.614 163.184 232.578 163.099 232.536C162.949 232.475 162.81 232.409 162.671 232.337C162.574 232.294 162.483 232.246 162.393 232.198C162.267 232.131 162.146 232.065 162.031 231.999C161.953 231.956 161.88 231.914 161.814 231.872C161.675 231.787 161.542 231.703 161.415 231.612C161.331 231.558 161.246 231.498 161.162 231.431C160.824 231.184 160.528 230.918 160.274 230.634C160.226 230.586 160.184 230.538 160.141 230.489C160.075 230.411 160.008 230.326 159.948 230.242C159.87 230.14 159.791 230.025 159.725 229.916C159.652 229.801 159.592 229.693 159.532 229.572C159.478 229.463 159.429 229.355 159.387 229.24C159.375 229.228 159.375 229.216 159.369 229.21C159.326 229.089 159.284 228.974 159.254 228.854C159.218 228.739 159.193 228.618 159.169 228.497C159.145 228.395 159.133 228.292 159.127 228.184C159.114 228.123 159.108 228.063 159.103 227.996C159.048 227.308 159.157 226.56 159.429 225.745C159.616 225.19 159.707 224.694 159.707 224.247C159.707 224.145 159.701 224.048 159.688 223.952C159.688 223.916 159.682 223.879 159.676 223.843C159.646 223.614 159.585 223.397 159.501 223.203C159.471 223.125 159.435 223.046 159.392 222.974C159.35 222.896 159.308 222.823 159.253 222.757C159.241 222.738 159.229 222.721 159.211 222.702C159.15 222.624 159.09 222.545 159.018 222.473C159.012 222.467 159.006 222.46 159.006 222.46C158.934 222.388 158.855 222.316 158.771 222.249C158.68 222.177 158.589 222.104 158.487 222.044C158.39 221.984 158.288 221.923 158.179 221.869C158.173 221.856 158.167 221.856 158.161 221.856C158.052 221.796 157.943 221.748 157.823 221.699C157.798 221.687 157.768 221.675 157.738 221.663C157.641 221.621 157.545 221.585 157.442 221.555C157.309 221.507 157.177 221.464 157.032 221.428C156.742 221.35 156.434 221.283 156.102 221.229C155.945 221.199 155.782 221.175 155.613 221.157C155.444 221.133 155.263 221.114 155.082 221.096C140.951 219.817 98.4464 234.479 85.2323 227.531C80.0649 224.809 74.4871 222.943 68.662 222.455C66.7602 222.298 64.9072 222.128 63.096 221.953L62.8787 221.935C62.7339 221.923 62.589 221.905 62.4442 221.893C62.1121 221.857 61.7859 221.826 61.4603 221.796C61.2854 221.778 61.1164 221.76 60.9469 221.742C60.7355 221.718 60.5182 221.7 60.3069 221.676C59.691 221.615 59.0874 221.549 58.4839 221.482C57.9587 221.428 57.4394 221.368 56.9265 221.313C56.8117 221.301 56.6969 221.289 56.5826 221.278C56.4737 221.259 56.3653 221.247 56.2564 221.235C56.1116 221.217 55.9667 221.205 55.8219 221.187C55.4538 221.145 55.0917 221.102 54.7355 221.06C54.5182 221.036 54.3009 221.012 54.0836 220.982C53.9812 220.97 53.8787 220.958 53.7816 220.946C53.7392 220.94 53.7033 220.94 53.6609 220.934C53.3047 220.885 52.9485 220.843 52.5987 220.801C52.3814 220.771 52.17 220.747 51.9586 220.723C51.8438 220.705 51.7355 220.693 51.6207 220.674C51.4876 220.656 51.361 220.644 51.2344 220.626C50.7816 220.566 50.3288 220.505 49.8819 220.451C49.3932 220.385 48.9098 220.318 48.4329 220.252C48.0043 220.192 47.5756 220.132 47.147 220.071C46.7243 220.004 46.302 219.944 45.8852 219.884H45.861C45.8492 219.878 45.8428 219.878 45.8369 219.878C45.8251 219.878 45.8128 219.878 45.8009 219.872H45.7827C45.7768 219.866 45.7768 219.866 45.7768 219.866C44.3943 219.661 43.0483 219.45 41.7382 219.232C40.9957 219.112 40.2591 218.985 39.5408 218.858C39.0761 218.773 38.611 218.695 38.1583 218.611C38.1282 218.605 38.0981 218.598 38.0617 218.592C37.0896 218.417 36.1362 218.236 35.2124 218.049C34.7897 217.964 34.3675 217.88 33.9506 217.795C33.4072 217.68 32.8702 217.572 32.3449 217.457C31.5542 217.282 30.7816 217.113 30.0268 216.938C29.7736 216.878 29.5257 216.817 29.2784 216.763C28.6507 216.612 28.0408 216.461 27.4372 216.31C26.8455 216.165 26.2602 216.015 25.6926 215.857C25.2339 215.737 24.7811 215.61 24.3342 215.489C23.8331 215.344 23.3444 215.206 22.8611 215.061C22.5048 214.958 22.1545 214.855 21.8106 214.747C21.7865 214.741 21.7623 214.735 21.7441 214.729C21.4179 214.626 21.0923 214.523 20.772 214.421C20.4823 214.33 20.1985 214.233 19.9147 214.143C19.8665 214.125 19.8182 214.106 19.7699 214.095C19.1057 213.877 18.4598 213.654 17.838 213.424C17.7656 213.4 17.6932 213.37 17.6207 213.346C17.3852 213.261 17.1497 213.171 16.9206 213.086C16.6068 212.972 16.3048 212.851 16.0032 212.736C15.7194 212.621 15.4356 212.507 15.1642 212.398C14.9287 212.302 14.6996 212.205 14.4759 212.114C14.4276 212.09 14.3734 212.066 14.3251 212.048C13.522 211.71 12.7677 211.366 12.0434 211.01C11.772 210.883 11.5064 210.75 11.2467 210.618C11.0053 210.497 10.7698 210.376 10.5402 210.25C10.3106 210.129 10.0874 210.008 9.86425 209.881C9.41737 209.64 8.99513 209.393 8.58423 209.139C8.39109 209.024 8.20978 208.909 8.02896 208.795C7.79986 208.65 7.57617 208.499 7.35889 208.355C7.18399 208.234 7.01499 208.119 6.846 207.998C6.49569 207.751 6.1577 207.503 5.83794 207.25C5.66304 207.117 5.49404 206.979 5.32505 206.84C5.0112 206.58 4.70918 206.314 4.42538 206.049C4.28645 205.922 4.1475 205.789 4.01497 205.656C3.5745 205.222 3.17 204.781 2.80738 204.34C2.69849 204.207 2.5901 204.075 2.48762 203.936C2.27625 203.664 2.08311 203.392 1.90821 203.121C1.84169 203.024 1.78158 202.928 1.72098 202.825C1.46133 202.415 1.23814 202.004 1.045 201.587C0.990807 201.467 0.936118 201.352 0.887834 201.231C0.833637 201.123 0.791267 201.014 0.748895 200.905C0.706523 200.79 0.664153 200.682 0.622274 200.567C0.549848 200.374 0.489244 200.174 0.435048 199.981C0.398588 199.861 0.362622 199.746 0.33848 199.625C0.235999 199.245 0.163575 198.858 0.108886 198.472C0.0847439 198.303 0.0606013 198.134 0.0482839 197.965C0.0300542 197.796 0.018227 197.621 0.0118219 197.452C0.0059096 197.283 0 197.114 0 196.945C0 189.586 7.19581 181.92 14.9227 175.521C18.9914 172.153 21.9855 167.8 24.4786 163.14C26.6878 159.005 45.0575 154.58 55.5129 139.9C56.4909 138.523 57.5414 137.201 58.6701 135.952C58.8032 135.801 58.9357 135.656 59.0687 135.511C59.7265 134.799 60.4029 134.11 61.109 133.459C61.2839 133.29 61.4529 133.132 61.6283 132.976C61.9062 132.722 62.1895 132.475 62.4797 132.227C62.7393 132.004 63.0049 131.787 63.2763 131.569C63.5843 131.322 63.8981 131.08 64.212 130.845C64.4352 130.676 64.6588 130.513 64.8879 130.35C64.8879 130.35 64.8998 130.344 64.918 130.331C65.1535 130.162 65.3949 129.993 65.6363 129.83C65.9684 129.607 66.3005 129.383 66.6444 129.173C66.8917 129.016 67.1455 128.859 67.4051 128.708C67.5199 128.641 67.6347 128.575 67.7554 128.509C68.0451 128.34 68.3412 128.183 68.6369 128.026C68.7393 127.966 68.8423 127.911 68.9507 127.863C69.2045 127.73 69.4577 127.603 69.7173 127.483C70.146 127.271 70.5746 127.078 71.0151 126.891C78.3558 123.776 80.4325 107.676 88.0806 91.5888C88.3402 91.0271 88.6117 90.466 88.8955 89.9107C88.8955 89.9048 88.8955 89.9048 88.9014 89.8984C91.0323 85.6366 93.586 81.4107 96.755 77.4568C111.581 58.9665 118.227 35.2487 124.451 28.9466C128.26 25.0893 131.406 20.6461 133.845 15.799C138.07 7.39607 143.268 1.7759 148.707 0.351023C148.707 0.351023 148.737 0.345117 148.785 0.332799C148.815 0.326887 148.863 0.314594 148.918 0.308682C148.96 0.296364 149.009 0.290435 149.063 0.27861C151.846 -0.367313 154.695 0.0914031 157.496 1.84835C159.82 3.29688 162.41 4.22066 165.078 4.8183C171.417 6.24268 186.731 22.276 201.057 46.1574C216.734 72.2781 237.536 75.8393 256.267 95.7545C258.912 98.5673 262.202 100.783 265.944 101.7C272.349 103.276 284.718 128.648 293.278 150.217C295.27 155.239 298.391 159.706 302.2 163.545C310.491 171.904 327.309 207.085 319.219 215.096Z" fill="#5A6962"/>
<path d="M308.784 221.809C292.309 230.176 263.654 239.116 253.44 234.811C247.964 232.506 241.97 231.721 236.036 232.089C217.468 233.236 194.728 235.56 178.803 235.035C178.797 235.035 178.797 235.035 178.79 235.035C174.794 234.902 171.233 234.594 168.268 234.032C167.942 232.306 167.623 230.362 167.296 228.177C163.04 199.829 159.684 175.918 154.04 137.561C148.396 99.204 170.936 39.2061 170.936 39.2061C170.936 39.2061 181.682 71.315 190.785 77.4663C199.894 83.6117 205.055 94.9969 216.41 112.69C227.765 130.383 222.791 132.43 234.49 149.356C246.189 166.289 242.67 167.116 251.278 180.403C259.892 193.69 253.403 191.233 269.876 204.272C286.339 217.305 285.446 231.003 308.784 221.809Z" fill="#425249"/>
<path d="M229.183 188.396C219.736 205.027 242.747 230.562 178.801 235.035C178.795 235.035 178.795 235.035 178.789 235.035C177.364 234.987 175.994 234.92 174.684 234.824C173.7 234.751 172.752 234.667 171.846 234.564C171.418 234.516 171.001 234.461 170.597 234.413C169.987 234.328 169.395 234.238 168.828 234.136C168.641 234.106 168.453 234.069 168.267 234.033C168.085 234.003 167.911 233.967 167.736 233.931C167.567 233.894 167.392 233.858 167.223 233.822C166.577 233.683 165.961 233.532 165.381 233.363C164.82 233.2 164.295 233.025 163.806 232.832C163.655 232.772 163.504 232.711 163.359 232.651C163.268 232.615 163.184 232.578 163.099 232.536C162.949 232.476 162.81 232.409 162.671 232.337C162.574 232.295 162.483 232.246 162.393 232.198C162.267 232.132 162.146 232.065 162.031 231.999C161.953 231.957 161.88 231.914 161.814 231.872C161.675 231.788 161.542 231.703 161.415 231.613C161.331 231.558 161.246 231.498 161.162 231.431C160.824 231.184 160.528 230.918 160.274 230.635C160.226 230.586 160.184 230.538 160.141 230.49C160.075 230.412 160.008 230.327 159.948 230.243C159.87 230.14 159.791 230.025 159.725 229.916C159.652 229.802 159.592 229.693 159.532 229.572C159.478 229.464 159.429 229.355 159.387 229.24C159.375 229.228 159.375 229.216 159.369 229.21C159.326 229.09 159.284 228.975 159.254 228.854C159.218 228.739 159.193 228.619 159.169 228.498C159.145 228.395 159.133 228.292 159.127 228.184C159.114 228.123 159.108 228.063 159.103 227.997C159.048 227.309 159.157 226.56 159.429 225.745C159.616 225.19 159.707 224.695 159.707 224.248C159.707 224.145 159.701 224.049 159.688 223.952C159.688 223.916 159.682 223.88 159.676 223.844C159.646 223.614 159.585 223.397 159.501 223.204C159.471 223.126 159.435 223.047 159.392 222.974C159.35 222.896 159.308 222.823 159.253 222.757C159.241 222.739 159.229 222.721 159.211 222.703C159.15 222.624 159.09 222.546 159.018 222.473C159.012 222.467 159.006 222.461 159.006 222.461C158.934 222.388 158.855 222.316 158.771 222.25C158.68 222.177 158.589 222.105 158.487 222.044C158.39 221.984 158.288 221.923 158.179 221.869C158.173 221.857 158.167 221.857 158.161 221.857C158.052 221.797 157.943 221.748 157.823 221.7C157.798 221.688 157.768 221.676 157.738 221.664C157.641 221.621 157.545 221.585 157.442 221.555C157.309 221.507 157.177 221.465 157.032 221.429C156.742 221.35 156.434 221.284 156.102 221.23C155.945 221.2 155.782 221.175 155.613 221.157C155.444 221.133 155.263 221.115 155.082 221.097C140.951 219.817 98.4464 234.48 85.2323 227.532C80.0649 224.809 74.4871 222.944 68.662 222.455C66.7602 222.298 64.9072 222.129 63.096 221.954L62.8787 221.936C62.7339 221.923 62.589 221.906 62.4442 221.893C62.2693 221.875 62.1003 221.857 61.9249 221.839C61.7677 221.827 61.6169 221.809 61.4603 221.797C61.2854 221.778 61.1164 221.761 60.9469 221.743C60.7355 221.718 60.5182 221.7 60.3069 221.676C59.691 221.615 59.0874 221.549 58.4839 221.483C57.9587 221.429 57.4394 221.368 56.9265 221.314C56.8117 221.302 56.6969 221.29 56.5826 221.278C56.3288 221.248 56.0756 221.217 55.8219 221.187C55.4538 221.145 55.0917 221.103 54.7355 221.061C54.5182 221.036 54.3009 221.012 54.0836 220.982C53.9812 220.971 53.8787 220.958 53.7816 220.946C53.7392 220.94 53.7033 220.94 53.6609 220.934C53.4436 220.904 53.2263 220.88 53.015 220.85C52.876 220.837 52.7371 220.82 52.5987 220.801C52.3814 220.771 52.17 220.747 51.9586 220.723C51.8438 220.705 51.7355 220.693 51.6207 220.675C51.4876 220.657 51.361 220.645 51.2344 220.627C50.7816 220.566 50.3288 220.506 49.8819 220.452C49.3932 220.385 48.9098 220.319 48.4329 220.253C48.0043 220.192 47.5756 220.132 47.147 220.071C46.7243 220.005 46.302 219.945 45.8852 219.884H45.861C45.8492 219.878 45.8428 219.878 45.8369 219.878C45.8251 219.878 45.8128 219.878 45.8009 219.872H45.7827C45.7768 219.866 45.7768 219.866 45.7768 219.866C44.3943 219.661 43.0483 219.45 41.7382 219.233C40.9957 219.112 40.2591 218.985 39.5408 218.858C39.0761 218.774 38.611 218.695 38.1583 218.611C38.1282 218.605 38.0981 218.599 38.0617 218.593C37.0896 218.411 36.1421 218.231 35.2124 218.049C34.7897 217.965 34.3675 217.88 33.9506 217.796C33.4072 217.681 32.8702 217.572 32.3449 217.458C31.5542 217.283 30.7816 217.114 30.0268 216.938C29.7736 216.878 29.5257 216.818 29.2784 216.763C28.6507 216.613 28.0408 216.461 27.4372 216.311C26.8455 216.16 26.2602 216.009 25.6926 215.858C25.2339 215.737 24.7811 215.61 24.3342 215.49C23.8331 215.345 23.3444 215.206 22.8611 215.061C22.5048 214.959 22.1545 214.856 21.8106 214.747C21.7865 214.741 21.7623 214.735 21.7441 214.729C21.4179 214.627 21.0923 214.524 20.772 214.421C20.4823 214.33 20.1985 214.234 19.9147 214.143C19.8665 214.125 19.8182 214.107 19.7699 214.095C19.1057 213.872 18.4662 213.648 17.838 213.425C17.7656 213.401 17.6932 213.371 17.6207 213.347C17.3852 213.262 17.1497 213.172 16.9206 213.087C16.6068 212.972 16.3048 212.851 16.0032 212.737C15.7194 212.622 15.4356 212.507 15.1642 212.399C14.9287 212.302 14.6996 212.205 14.4759 212.115C14.4276 212.091 14.3734 212.066 14.3251 212.048C13.5284 211.704 12.7677 211.36 12.0434 211.01C11.772 210.884 11.5064 210.751 11.2467 210.618C11.0053 210.497 10.7698 210.377 10.5402 210.25C10.3106 210.129 10.0874 210.009 9.86425 209.882C9.41737 209.64 8.98873 209.387 8.58423 209.139C8.39109 209.025 8.20978 208.91 8.02896 208.796C7.79986 208.651 7.57617 208.5 7.35889 208.355C7.18399 208.234 7.01499 208.12 6.846 207.999C6.49569 207.751 6.1577 207.504 5.83794 207.25C5.66304 207.118 5.49404 206.979 5.32505 206.84C5.0112 206.58 4.70918 206.315 4.42538 206.049C4.28645 205.923 4.1475 205.79 4.01497 205.657C3.5745 205.222 3.17 204.782 2.80738 204.341C2.69849 204.208 2.5901 204.075 2.48762 203.936C2.27625 203.665 2.08311 203.393 1.90821 203.121C1.84169 203.025 1.78158 202.928 1.72098 202.826C1.46133 202.415 1.23814 202.005 1.045 201.588C0.990807 201.467 0.936118 201.352 0.887834 201.232C0.833637 201.123 0.791267 201.014 0.748895 200.905C0.706523 200.791 0.664153 200.682 0.622274 200.567C0.549848 200.374 0.489244 200.175 0.435048 199.982C0.398588 199.861 0.362622 199.746 0.33848 199.625C0.235999 199.245 0.163575 198.859 0.108886 198.473C0.0847439 198.304 0.0606013 198.135 0.0482839 197.966C0.0300542 197.797 0.018227 197.622 0.0118219 197.453C0.0059096 197.284 0 197.115 0 196.946C0 189.587 7.19581 181.92 14.9227 175.522C18.9914 172.153 21.9855 167.801 24.4786 163.141C26.6878 159.006 45.0575 154.581 55.5129 139.9C56.4909 138.524 57.5414 137.201 58.6701 135.952C58.8032 135.801 58.9357 135.656 59.0687 135.512C59.7265 134.799 60.4029 134.111 61.109 133.459C61.2839 133.29 61.4529 133.133 61.6283 132.976C61.9062 132.722 62.1895 132.475 62.4797 132.228C62.7393 132.005 63.0049 131.787 63.2763 131.569C63.5843 131.322 63.8981 131.081 64.212 130.845C64.4352 130.676 64.6588 130.513 64.8879 130.35C64.8879 130.35 64.8998 130.344 64.918 130.332C65.1535 130.163 65.3949 129.994 65.6363 129.831C65.9684 129.608 66.3005 129.384 66.6444 129.173C66.8917 129.016 67.1455 128.859 67.4051 128.708C67.5199 128.642 67.6347 128.576 67.7554 128.509C68.0451 128.34 68.3412 128.184 68.6369 128.027C68.7393 127.966 68.8423 127.912 68.9507 127.863C69.2045 127.73 69.4577 127.604 69.7173 127.483C70.146 127.272 70.5746 127.079 71.0151 126.891C78.3558 123.777 80.4325 107.677 88.0806 91.5892C88.3402 91.0276 88.6117 90.4664 88.8955 89.9111C88.8955 89.9052 88.8955 89.9052 88.9014 89.8988C91.0323 85.637 93.586 81.4111 96.755 77.4573C111.581 58.9669 118.227 35.2491 124.451 28.947C128.26 25.0897 131.406 20.6466 133.845 15.7995C138.07 7.39654 143.268 1.77637 148.707 0.351495C148.707 0.351495 148.737 0.345528 148.785 0.333211C148.821 0.327299 148.863 0.315006 148.918 0.309094C148.96 0.296776 149.009 0.290847 149.063 0.279022C150.856 0.00754687 159.072 -0.119544 164.927 18.5822C167.951 28.2346 169.714 34.3134 170.934 39.2093C170.94 39.2335 170.946 39.2517 170.952 39.2635C172.389 45.0527 173.071 49.1997 174.193 55.6407C176.27 67.5511 169.798 74.9278 172.322 82.3409C174.852 89.7598 179.288 83.2706 181.323 94.3114C183.357 105.346 195.635 90.7556 206.03 107.972C216.425 125.189 215.478 130.151 224.925 142.315C234.38 154.476 238.63 171.765 229.183 188.396Z" fill="#6C8076"/>
<path d="M45.7812 219.865C45.7812 219.865 45.8177 219.871 45.8901 219.883C45.8537 219.877 45.8236 219.877 45.7877 219.871C45.7813 219.865 45.7812 219.865 45.7812 219.865Z" fill="#5A6962"/>
<path d="M190.78 152.762C187.756 142.874 184.52 136.113 180.584 130.625L180.578 130.62C175.743 123.883 169.845 119.059 161.961 112.691C159.372 110.602 156.655 109.757 153.872 109.884C141.274 110.427 127.281 130.825 117.242 145.663C104.988 163.773 101.619 165.819 91.23 180.404C80.8346 194.988 77.5266 199.359 68.6527 210.702C60.2375 221.447 47.2165 220.053 45.8828 219.884C46.2991 219.944 46.7219 220.004 47.1446 220.071C47.5673 220.131 47.996 220.191 48.4305 220.252C48.9075 220.319 49.3903 220.385 49.8796 220.451C50.3264 220.505 50.7792 220.566 51.232 220.626C51.3586 220.644 51.4857 220.656 51.6183 220.674C51.7272 220.693 51.8415 220.704 51.9563 220.723C52.1676 220.747 52.379 220.771 52.5963 220.801C52.7352 220.819 52.8742 220.837 53.0126 220.849C53.2663 220.885 53.5196 220.916 53.7792 220.946C53.8758 220.958 53.9783 220.97 54.0813 220.982C54.2985 221.006 54.5158 221.036 54.7331 221.06C55.0893 221.102 55.4514 221.145 55.8195 221.187C55.9643 221.205 56.1092 221.217 56.254 221.235C56.4772 221.259 56.7009 221.289 56.9241 221.313C57.437 221.368 57.9563 221.428 58.4815 221.482C59.0851 221.549 59.6886 221.615 60.3045 221.675C60.5159 221.7 60.7331 221.718 60.9445 221.742C61.2707 221.772 61.5963 221.809 61.9225 221.839C62.2363 221.869 62.5566 221.899 62.8764 221.935L63.0936 221.953C65.1945 219.593 68.1103 216.508 71.8587 213.001C80.3641 205.027 87.4515 187.026 111.543 176.66C132.339 167.708 141.527 159.637 147.902 164.05C147.902 164.05 147.902 164.05 147.908 164.056C148.916 164.75 149.852 165.758 150.757 167.128C157.367 177.155 160.513 192.741 157.754 206.916C156.619 212.753 156.033 217.154 155.079 221.096C155.261 221.114 155.441 221.132 155.61 221.157C155.779 221.175 155.943 221.199 156.099 221.229C156.431 221.283 156.739 221.35 157.029 221.428C157.174 221.465 157.307 221.507 157.439 221.555C157.542 221.585 157.638 221.621 157.735 221.663C157.765 221.675 157.796 221.687 157.82 221.699C157.94 221.747 158.049 221.796 158.158 221.856C158.164 221.856 158.17 221.856 158.176 221.869C158.285 221.917 158.387 221.977 158.484 222.044C158.586 222.104 158.677 222.177 158.768 222.249C158.852 222.316 158.931 222.388 159.003 222.46C159.003 222.46 159.009 222.466 159.015 222.473C159.087 222.545 159.154 222.623 159.208 222.702C159.226 222.72 159.238 222.738 159.25 222.756C159.299 222.823 159.347 222.895 159.389 222.974C159.432 223.046 159.468 223.124 159.498 223.203C159.583 223.396 159.643 223.614 159.673 223.843C159.679 223.879 159.686 223.916 159.686 223.952C159.698 224.048 159.704 224.145 159.704 224.247C159.704 224.694 159.613 225.189 159.426 225.745C159.154 226.56 159.046 227.308 159.1 227.996C159.106 228.063 159.112 228.123 159.124 228.183C159.13 228.292 159.142 228.395 159.166 228.497C159.19 228.618 159.215 228.739 159.251 228.854C159.281 228.974 159.323 229.089 159.366 229.21C159.372 229.216 159.372 229.228 159.384 229.24C159.426 229.355 159.475 229.463 159.529 229.572C159.589 229.693 159.65 229.801 159.722 229.916C159.789 230.025 159.867 230.139 159.945 230.242C160.006 230.327 160.072 230.411 160.138 230.489C160.181 230.538 160.223 230.586 160.271 230.634C160.525 230.918 160.821 231.184 161.159 231.431C161.243 231.497 161.328 231.557 161.412 231.612C161.539 231.703 161.672 231.787 161.811 231.872C161.878 231.914 161.95 231.957 162.028 231.998C162.143 232.065 162.264 232.131 162.39 232.197C162.481 232.246 162.571 232.294 162.668 232.336C162.807 232.409 162.946 232.475 163.096 232.535C163.181 232.578 163.265 232.614 163.356 232.65C163.501 232.711 163.652 232.771 163.803 232.832C164.292 233.025 164.817 233.2 165.379 233.363C165.958 233.532 166.574 233.682 167.22 233.821C167.389 233.857 167.564 233.894 167.733 233.93C167.908 233.966 168.083 234.003 168.264 234.033C168.451 234.069 168.638 234.105 168.825 234.135C169.393 234.238 169.984 234.328 170.594 234.413C170.998 234.461 171.415 234.515 171.843 234.563C172.749 234.666 173.696 234.751 174.681 234.823C205.226 224.929 191.384 212.113 199.889 195.482C208.389 178.852 197.523 174.796 190.78 152.762Z" fill="#5A6962"/>
<path d="M199.895 195.483C191.389 212.114 205.231 224.93 174.686 234.824C164.007 234.045 157.494 231.54 159.432 225.745C160.428 222.769 158.665 221.422 155.085 221.097C156.039 217.155 156.624 212.754 157.76 206.916C160.518 192.742 157.373 177.156 150.763 167.129C149.858 165.759 148.922 164.75 147.914 164.056C148.27 164.255 159.511 170.757 161.967 191.976C164.46 213.533 171.077 220.463 176.745 215.108C182.414 209.754 191.861 200.156 192.808 184.165C193.75 168.18 191.975 154.006 180.591 130.626C184.526 136.113 187.762 142.874 190.786 152.762C197.528 174.796 208.394 178.852 199.895 195.483Z" fill="#425249"/>
<path d="M91.3524 171.364C85.1627 177.583 84.0083 183.218 80.1101 187.333C76.2178 191.448 73.6287 179.969 56.9859 192.162C43.0624 202.364 23.6541 204.502 24.437 192.162C24.6484 188.855 24.6238 186.295 24.5804 184.04C24.3552 172.371 30.5528 161.546 40.692 155.765C46.3767 152.525 52.8562 148.089 57.6092 141.416C60.0781 137.947 63.0446 134.826 66.4851 132.374C66.4851 132.374 66.4964 132.368 66.5137 132.357C67.2966 131.888 85.2716 121.292 90.0837 130.768C95.0048 140.461 75.5014 154.491 86.9517 154.492C95.1131 154.493 97.5421 165.14 91.3524 171.364Z" fill="#84958E"/>
<path d="M120.521 103.082C130.442 101.566 131.387 98.0883 136.584 93.4491C141.781 88.8104 145.037 88.3748 154.038 83.1596C163.04 77.9445 172.961 67.5511 168.709 49.5983C164.457 31.6459 155.008 25.2719 145.087 40.2695C135.166 55.2672 138.946 60.607 128.552 66.677C118.158 72.7475 116.33 74.8386 117.244 80.8795C118.158 86.9204 110.599 104.598 120.521 103.082Z" fill="#84958E"/>
<path d="M92.1801 195.483C92.1801 195.483 99.7391 186.452 110.132 184.165C120.526 181.879 135.261 165.041 142.539 172.043C149.817 179.044 155.935 190.383 147.915 197.469C139.896 204.556 129.091 217.311 117.249 206.446C105.409 195.58 82.946 208.944 92.1801 195.483Z" fill="#84958E"/>
<path d="M217.997 108.495C217.997 108.495 218.311 110.069 222.091 112.747C225.87 115.424 231.225 110.327 226.185 107.127C221.146 103.928 215.468 105.445 217.997 108.495Z" fill="#6C8076"/>
<path d="M243.793 149.669C243.793 149.669 243.974 151.244 246.137 153.921C248.3 156.598 251.364 151.501 248.48 148.302C245.596 145.102 242.346 146.619 243.793 149.669Z" fill="#6C8076"/>
<path d="M231.337 111.116C231.337 111.116 231.13 112.065 231.574 113.924C232.018 115.783 234.255 113.193 233.596 110.931C232.937 108.67 231.268 109.132 231.337 111.116Z" fill="#6C8076"/>
<path d="M217.868 97.4628C217.868 97.4628 217.406 98.119 217.736 100.411C218.067 102.703 221.758 102.89 221.183 99.9613C220.609 97.0327 218.104 95.4954 217.868 97.4628Z" fill="#6C8076"/>
<path d="M257.946 165.229C257.946 165.229 257.484 165.886 257.814 168.178C258.145 170.47 261.836 170.657 261.261 167.728C260.686 164.799 258.181 163.262 257.946 165.229Z" fill="#6C8076"/>
<path d="M226.409 122.189C226.409 122.189 226.174 122.523 226.342 123.689C226.51 124.856 228.388 124.951 228.096 123.461C227.804 121.97 226.529 121.188 226.409 122.189Z" fill="#6C8076"/>
<path d="M153.436 42.1493C153.436 42.1493 153.645 42.8947 156.155 44.1624C158.664 45.4301 162.22 43.0169 158.874 41.5019C155.527 39.9868 151.757 40.7052 153.436 42.1493Z" fill="#6C8076"/>
<path d="M162.29 43.39C162.29 43.39 162.152 43.8393 162.447 44.7198C162.742 45.5997 164.227 44.3734 163.79 43.3027C163.352 42.2321 162.244 42.4509 162.29 43.39Z" fill="#6C8076"/>
<path d="M161.485 62.6016C161.485 62.6016 161.347 63.0509 161.643 63.9313C161.937 64.8118 163.423 63.585 162.985 62.5143C162.548 61.4437 161.439 61.662 161.485 62.6016Z" fill="#6C8076"/>
<path d="M153.346 36.9258C153.346 36.9258 153.039 37.2367 153.259 38.3217C153.478 39.4066 155.929 39.4953 155.547 38.1088C155.166 36.7224 153.503 35.9947 153.346 36.9258Z" fill="#6C8076"/>
<path d="M143.831 51.4859C143.831 51.4859 143.524 51.7968 143.743 52.8817C143.962 53.9671 146.413 54.0553 146.032 52.6689C145.65 51.2824 143.987 50.5547 143.831 51.4859Z" fill="#6C8076"/>
<path d="M159.015 48.6328C159.015 48.6328 158.858 48.7909 158.97 49.3432C159.082 49.8956 160.329 49.9404 160.134 49.2349C159.94 48.5288 159.094 48.1588 159.015 48.6328Z" fill="#6C8076"/>
<path d="M147.382 57.6278C147.382 57.6278 147.226 57.786 147.337 58.3383C147.449 58.8906 148.696 58.9354 148.502 58.2298C148.308 57.5243 147.461 57.1538 147.382 57.6278Z" fill="#6C8076"/>
<path d="M132.536 194.9C132.536 194.9 131.818 195.622 131.781 198.65C131.745 201.677 136.392 202.876 136.246 198.968C136.099 195.06 133.226 192.437 132.536 194.9Z" fill="#6C8076"/>
<path d="M134.128 187.635C134.128 187.635 133.82 187.946 134.04 189.031C134.259 190.116 136.711 190.204 136.329 188.818C135.947 187.431 134.284 186.704 134.128 187.635Z" fill="#6C8076"/>
<path d="M124.612 202.195C124.612 202.195 124.305 202.506 124.524 203.591C124.744 204.676 127.195 204.765 126.813 203.378C126.431 201.991 124.768 201.264 124.612 202.195Z" fill="#6C8076"/>
<path d="M139.796 199.342C139.796 199.342 139.64 199.5 139.751 200.052C139.863 200.605 141.11 200.65 140.916 199.944C140.722 199.238 139.876 198.868 139.796 199.342Z" fill="#6C8076"/>
<path d="M128.163 208.337C128.163 208.337 128.007 208.495 128.118 209.047C128.23 209.599 129.477 209.644 129.283 208.939C129.089 208.233 128.242 207.863 128.163 208.337Z" fill="#6C8076"/>
<path d="M144.343 190.993C144.343 190.993 144.187 191.151 144.298 191.704C144.41 192.256 145.657 192.301 145.463 191.595C145.268 190.89 144.422 190.519 144.343 190.993Z" fill="#6C8076"/>
<path d="M75.9767 165.163C75.9767 165.163 74.9489 166.397 75.2391 171.02C75.5293 175.642 82.8577 176.608 82.1832 170.677C81.5087 164.746 76.762 161.28 75.9767 165.163Z" fill="#6C8076"/>
<path d="M65.309 164.88C65.309 164.88 64.1822 165.992 63.284 169.142C62.3858 172.292 68.0316 171.172 68.9411 167.204C69.8506 163.237 66.889 161.982 65.309 164.88Z" fill="#6C8076"/>
<path d="M29.7256 191.542C29.7256 191.542 29.0827 192.205 28.7146 194.228C28.3461 196.252 31.8491 195.871 32.1729 193.308C32.4966 190.745 30.542 189.727 29.7256 191.542Z" fill="#6C8076"/>
<path d="M106.226 190.805C106.226 190.805 105.583 191.468 105.215 193.491C104.846 195.515 108.349 195.135 108.673 192.571C108.997 190.008 107.042 188.991 106.226 190.805Z" fill="#6C8076"/>
<path d="M123.726 78.0314C123.726 78.0314 123.083 78.694 122.715 80.7175C122.346 82.7415 125.849 82.3607 126.173 79.7972C126.497 77.2342 124.542 76.2172 123.726 78.0314Z" fill="#6C8076"/>
<path d="M82.3155 177.189C82.3155 177.189 81.4463 177.624 80.2782 179.137C79.11 180.65 82.5313 180.764 83.8773 178.831C85.2238 176.898 83.8157 175.889 82.3155 177.189Z" fill="#6C8076"/>
<path d="M70.2424 158.569C70.2424 158.569 70.6607 158.965 72.023 159.118C73.3853 159.272 73.3094 156.973 71.5766 156.873C69.8438 156.773 69.0471 158.11 70.2424 158.569Z" fill="#6C8076"/>
<path d="M41.0548 191.353C41.0548 191.353 41.4731 191.748 42.8354 191.902C44.1977 192.056 44.1218 189.757 42.389 189.657C40.6567 189.556 39.8595 190.894 41.0548 191.353Z" fill="#6C8076"/>
<path d="M125.133 91.3043C125.133 91.3043 125.551 91.6999 126.914 91.8536C128.276 92.0073 128.2 89.7084 126.467 89.6084C124.734 89.5079 123.938 90.8456 125.133 91.3043Z" fill="#6C8076"/>
<path d="M84.4751 158.133C84.4751 158.133 83.6739 158.185 82.0973 159.882C80.5207 161.578 82.6935 164.568 84.612 162.282C86.5306 159.996 86.1537 157.081 84.4751 158.133Z" fill="#6C8076"/>
<path d="M70.5955 180.307C70.5955 180.307 70.1875 180.334 69.3854 181.197C68.5833 182.06 69.6889 183.582 70.6654 182.419C71.6419 181.255 71.4493 179.772 70.5955 180.307Z" fill="#6C8076"/>
<path d="M30.822 182.955C30.822 182.955 30.4141 182.982 29.612 183.845C28.8099 184.708 29.9155 186.23 30.8915 185.066C31.868 183.903 31.6764 182.419 30.822 182.955Z" fill="#6C8076"/>
<path d="M136.635 81.1313C136.635 81.1313 136.227 81.1579 135.424 82.0212C134.622 82.8844 135.728 84.4063 136.704 83.2425C137.681 82.0788 137.488 80.5958 136.635 81.1313Z" fill="#6C8076"/>
<path d="M78.3449 151.072C78.3449 151.072 78.1257 151.086 77.695 151.55C77.2644 152.013 77.8581 152.831 78.3823 152.206C78.9066 151.581 78.8036 150.784 78.3449 151.072Z" fill="#6C8076"/>
<path d="M258.714 149.63C258.714 149.63 258.478 149.964 258.646 151.131C258.814 152.297 260.693 152.392 260.401 150.902C260.108 149.411 258.834 148.629 258.714 149.63Z" fill="#6C8076"/>
<path d="M88.9102 89.8965C88.9102 89.8965 88.9046 89.9021 88.8984 89.9082C88.8984 89.9026 88.8984 89.9026 88.9041 89.8965C88.9102 89.8965 88.9102 89.8965 88.9102 89.8965Z" fill="#5A6962"/>
<path d="M124.446 116.572C115.089 120.224 109.185 133.167 100.915 124.57C92.6449 115.974 82.926 122.445 71.0156 126.889C78.3563 123.774 80.433 107.674 88.0811 91.5864C87.5859 93.6084 88.3166 97.1342 96.9008 100.309C109.892 105.108 113.019 108.006 124.446 109.865C135.873 111.725 133.803 112.914 124.446 116.572Z" fill="#5A6962"/>
<path d="M392.914 66.7485H398.8C402.788 66.7485 406.297 69.6077 407.414 73.766L409.416 81.2205C410.056 83.6046 411.01 85.8754 412.247 87.963L413.731 90.4649C416.089 94.4419 417.343 99.0728 417.343 103.803V115.318C417.343 117.986 415.352 120.149 412.896 120.149H390.852L392.914 66.7485Z" fill="#425249"/>
<path d="M398.135 120.15H385.425C383.36 120.15 381.672 118.461 381.672 116.397V74.7383C381.672 70.305 385.299 66.6777 389.732 66.6777H393.827C398.26 66.6777 401.888 70.305 401.888 74.7383V116.397C401.888 118.461 400.199 120.15 398.135 120.15Z" fill="#2D3832"/>
<path d="M389.284 83.1322C388.402 92.8989 384.524 102.024 380.022 109.806C375.361 117.871 370.028 124.499 366.661 128.932C366.211 129.524 365.742 130.085 365.243 130.622C353.313 143.564 327.977 141.178 306.23 124.671C283.583 107.475 274.655 82.4045 285.895 67.6004C292.844 58.4501 310.632 39.2991 332.762 34.613C333.045 34.5514 338.835 40.446 339.113 40.3903C339.125 40.3903 339.131 40.3904 339.144 40.3845C346.056 39.2375 356.753 43.0051 366.982 50.7739C377.267 58.5861 383.784 67.9394 384.469 74.9194C384.419 76.1462 389.395 81.8867 389.284 83.1322Z" fill="#CC6217"/>
<path d="M380.018 109.805C375.357 117.87 370.023 124.498 366.657 128.931C366.206 129.523 365.738 130.084 365.239 130.621C303.433 119.584 294.93 71.8853 294.93 71.8853H296.243L380.018 109.805Z" fill="#A84B08"/>
<path d="M382.164 101.049V149.359C384.017 148.834 385.926 148.498 387.833 148.318V98.7271C386.042 99.71 384.129 100.492 382.164 101.049Z" fill="#CC6217"/>
<path d="M378.703 101.783V150.598C379.825 150.106 380.984 149.695 382.168 149.36V101.05C381.025 101.373 379.866 101.62 378.703 101.783Z" fill="#A84B08"/>
<path d="M283.994 249.805L274.889 240.535L268.37 243.432L265.531 242.274V244.693L278.602 258L287.959 253.842V251.423L283.994 249.805Z" fill="#572C14"/>
<path d="M287.959 251.422L274.889 238.116L265.531 242.274L278.602 255.58L287.959 251.422Z" fill="#A84B08"/>
<path d="M353.402 171.536H358.555V200.779H353.031L353.402 171.536Z" fill="#2D3832"/>
<path d="M353.029 200.779C359.129 200.779 364.074 194.23 364.074 186.153C364.074 178.075 359.129 171.527 353.029 171.527C346.929 171.527 341.984 178.075 341.984 186.153C341.984 194.23 346.929 200.779 353.029 200.779Z" fill="#2D3832"/>
<path d="M358.553 200.779C364.652 200.779 369.597 194.23 369.597 186.153C369.597 178.075 364.652 171.527 358.553 171.527C352.453 171.527 347.508 178.075 347.508 186.153C347.508 194.23 352.453 200.779 358.553 200.779Z" fill="#425249"/>
<path d="M353.031 186.182C353.031 189.726 354.937 192.682 357.465 193.352C357.816 193.448 358.183 193.495 358.555 193.495C361.604 193.495 364.078 190.22 364.078 186.182C364.078 182.145 361.604 178.869 358.555 178.869C358.183 178.869 357.816 178.917 357.465 179.012C354.937 179.682 353.031 182.639 353.031 186.182Z" fill="#2D3832"/>
<path d="M387.53 145.525L387.373 145.772L382.368 153.711L377.968 160.683L359.52 189.936L355.789 187.588L371.424 162.789L376.797 154.278L381.584 146.684L383.075 144.323L387.53 145.525Z" fill="#CC6217"/>
<path d="M425.997 218.089L359.518 189.936L359.281 186.868L426.966 215.824L425.997 218.089Z" fill="#CC6217"/>
<path d="M382.374 153.71L377.973 160.683L371.43 162.789L376.802 154.278L382.374 153.71Z" fill="#A84B08"/>
<path d="M387.935 145.694L384.023 147.73L415.076 207.375L418.988 205.338L387.935 145.694Z" fill="#CC6217"/>
<path d="M388.049 145.663L387.373 145.772L381.583 146.683L279.082 162.904L275.375 160.622L382.773 144.245L383.075 144.323L387.53 145.525L388.049 145.663Z" fill="#A84B08"/>
<path d="M291.675 83.1592H266.156V94.6696H291.675V83.1592Z" fill="#CC6217"/>
<path d="M281.044 88.915H275.375V248.652L281.044 246.096V88.915Z" fill="#CC6217"/>
<path d="M275.371 248.652L271.906 245.345V100.308H275.371V248.652Z" fill="#A84B08"/>
<path d="M269.584 78.6315L263.703 75.1555C262.165 74.2465 260.989 72.832 260.376 71.1534L254.71 55.6394L251.281 59.0483L256.947 74.5623C257.56 76.2409 258.736 77.655 260.274 78.5645L266.155 82.04L269.584 78.6315Z" fill="#CC6217"/>
<path d="M275.236 103.255L273.281 109.801C272.769 111.513 272.867 113.35 273.557 114.998L279.088 128.21L275.103 130.059L268.725 114.824C268.034 113.175 267.937 111.339 268.449 109.627L270.404 103.082L275.236 103.255Z" fill="#CC6217"/>
<path d="M420.483 195.483H426.658V230.528H420.039L420.483 195.483Z" fill="#2D3832"/>
<path d="M420.041 230.529C427.351 230.529 433.277 222.681 433.277 213.001C433.277 203.32 427.351 195.473 420.041 195.473C412.731 195.473 406.805 203.32 406.805 213.001C406.805 222.681 412.731 230.529 420.041 230.529Z" fill="#2D3832"/>
<path d="M426.658 230.529C433.968 230.529 439.894 222.681 439.894 213.001C439.894 203.32 433.968 195.473 426.658 195.473C419.348 195.473 413.422 203.32 413.422 213.001C413.422 222.681 419.348 230.529 426.658 230.529Z" fill="#425249"/>
<path d="M420.039 213.036C420.039 217.283 422.323 220.826 425.353 221.629C425.774 221.743 426.213 221.801 426.659 221.801C430.313 221.801 433.279 217.875 433.279 213.036C433.279 208.197 430.313 204.272 426.659 204.272C426.213 204.272 425.774 204.329 425.353 204.443C422.323 205.246 420.039 208.789 420.039 213.036Z" fill="#6C8076"/>
<path d="M283.847 54.2929C279.609 44.5617 273.705 39.2075 267.216 39.2075C263.467 39.2075 259.918 40.9945 256.767 44.3749C254.461 46.8497 252.372 50.1823 250.579 54.2929C246.655 63.2993 244.5 75.2157 244.5 87.8503C244.5 100.485 246.655 112.401 250.579 121.414C254.817 131.139 260.726 136.5 267.216 136.5C270.542 136.5 273.711 135.093 276.578 132.413C279.313 129.859 281.782 126.152 283.847 121.414C287.77 112.401 289.931 100.485 289.931 87.8499C289.932 75.2157 287.771 63.2993 283.847 54.2929ZM272.679 128.556L272.673 128.562C270.561 130.88 268.321 132.129 266.148 132.129C257.974 132.129 248.865 114.381 248.865 88.9131C248.865 69.0949 254.382 53.9549 260.685 48.214C260.685 48.214 260.685 48.2081 260.69 48.2081C262.809 45.89 265.043 44.6405 267.216 44.6405C275.39 44.6405 284.499 62.3883 284.499 87.8508C284.499 107.675 278.982 122.815 272.679 128.556Z" fill="#CC6217"/>
<path d="M271.907 107.128C276.951 107.128 281.041 98.9736 281.041 88.9148C281.041 78.8561 276.951 70.7019 271.907 70.7019C266.863 70.7019 262.773 78.8561 262.773 88.9148C262.773 98.9736 266.863 107.128 271.907 107.128Z" fill="#F9A033"/>
<path d="M388.052 154.283L279.086 171.527V162.905L388.052 145.661V154.283Z" fill="#CC6217"/>
<path d="M425.883 213C425.883 211.729 426.494 210.699 427.249 210.699C428.003 210.699 428.614 211.729 428.614 213C428.614 214.27 428.003 215.299 427.249 215.299C426.494 215.299 425.883 214.27 425.883 213Z" fill="#3E4140"/>
<path d="M269.875 88.9884C269.875 87.7183 270.486 86.6885 271.241 86.6885C271.995 86.6885 272.607 87.7183 272.607 88.9884C272.607 90.2586 271.995 91.2883 271.241 91.2883C270.486 91.2883 269.875 90.2586 269.875 88.9884Z" fill="#3E4140"/>
<path d="M282.79 55.3549C278.552 45.6237 272.648 40.2695 266.153 40.2695C262.821 40.2695 259.646 41.6821 256.772 44.3747C254.044 46.916 251.587 50.6166 249.522 55.3554C245.598 64.3618 243.438 76.2846 243.438 88.9128C243.438 101.548 245.598 113.464 249.522 122.477C253.76 132.202 259.664 137.563 266.153 137.563C269.896 137.563 273.446 135.781 276.585 132.413C278.903 129.932 280.997 126.594 282.79 122.477C286.714 113.464 288.869 101.548 288.869 88.9134C288.869 76.2841 286.714 64.3619 282.79 55.3549ZM260.69 48.2138C260.69 48.2138 260.69 48.2079 260.696 48.2079C262.489 46.5721 264.342 45.7025 266.153 45.7025C274.332 45.7025 283.435 63.4503 283.435 88.9128C283.435 107.608 278.528 122.145 272.684 128.556L272.678 128.562C270.566 130.88 268.326 132.129 266.153 132.129C257.979 132.129 248.87 114.381 248.87 88.9128C248.87 69.0947 254.388 53.9546 260.69 48.2138Z" fill="#F9A033"/>
<path d="M320.258 107.287C296.536 89.2746 287.178 63.017 298.953 47.5084C310.729 31.9993 338.535 33.9598 362.257 51.9718C385.979 69.9832 395.337 96.2409 383.562 111.75C371.787 127.259 343.98 125.298 320.258 107.287Z" fill="#F9A033"/>
<path d="M401.148 53.3144C401.099 54.5412 401.013 55.7744 400.901 57.0199C399.101 76.911 389.957 98.6147 383.341 107.327C372.101 122.131 345.557 120.257 322.91 103.066C300.263 85.8697 291.334 60.7994 302.575 45.9954C309.524 36.8451 332.824 23.6442 354.954 18.9582C355.237 18.8966 355.515 18.8409 355.792 18.7858C355.805 18.7858 355.81 18.7858 355.823 18.7794C362.735 17.6324 373.433 21.4 383.662 29.1688C393.947 36.9805 400.464 46.3344 401.148 53.3144Z" fill="#CC6217"/>
<path opacity="0.5" d="M355.782 23.5374C355.757 22.9806 355.769 22.4155 355.798 21.8474C349.798 23.0476 342.925 25.283 335.891 28.487C317.124 37.0348 304.314 49.2393 307.278 55.7463C310.242 62.2538 327.858 60.5994 346.624 52.0516C353.273 49.023 359.168 45.5352 363.885 42.0051C359.095 37.2964 356.103 30.7046 355.782 23.5374Z" fill="#F9A033"/>
<path d="M400.897 57.0199C400.637 57.9757 400.218 58.8512 399.626 59.6282C394.675 66.1515 379.902 62.9884 365.992 52.4265C352.088 41.8705 345.071 28.4909 350.022 21.9671C351.175 20.4442 352.864 19.4514 354.948 18.9582C355.22 18.8902 355.497 18.835 355.787 18.7858C355.799 18.7858 355.805 18.7858 355.818 18.7794C362.73 17.6324 373.427 21.4 383.657 29.1688C393.941 36.981 400.459 46.3348 401.143 53.3144C401.279 54.6461 401.199 55.8912 400.897 57.0199Z" fill="#F9A033"/>
<path d="M398.795 58.9956C395.764 62.9919 388.243 62.7805 379.617 59.1464C375.433 57.3835 370.99 54.818 366.668 51.5401C362.388 48.2864 358.748 44.7306 355.935 41.2113C350.061 33.8406 347.809 26.6088 350.858 22.6002C354.571 17.7107 364.984 19.1168 375.946 25.3889C378.282 26.729 380.648 28.2864 382.979 30.0552C388.484 34.2387 392.927 38.9227 395.909 43.3964C400.104 49.6689 401.427 55.5305 398.795 58.9956Z" fill="#7A4727"/>
<path d="M375.954 25.3894L355.943 41.2113C350.069 33.8406 347.817 26.6089 350.866 22.6003C354.578 17.7108 364.991 19.1174 375.954 25.3894Z" fill="#572C14"/>
<path d="M398.803 58.9957C395.773 62.992 388.251 62.7806 379.625 59.1464L395.918 43.397C400.113 49.669 401.435 55.5306 398.803 58.9957Z" fill="#572C14"/>
</svg>
