<svg width="116" height="251" viewBox="0 0 116 251" fill="none" xmlns="http://www.w3.org/2000/svg">
<path opacity="0.15" d="M114.328 204L33.7961 250.487C32.7717 251.09 31.5063 251.09 30.482 250.487L1.1072 233.586C-0.369067 232.742 -0.369067 230.633 1.1072 229.79L83.8986 182.007C84.5615 181.615 85.4052 181.615 86.068 182.007L114.328 198.246C116.557 199.541 116.557 202.735 114.328 204Z" fill="#0968B8"/>
<path d="M3.34676 232.7C1.87049 231.857 0.996808 230.29 0.996808 228.633C0.996808 102.216 0.665431 109.597 1.56927 107.94C5.66667 100.439 9.8242 92.8765 13.9216 85.4047C13.0178 89.1105 11.2403 93.5694 9.97494 96.7931C7.35381 103.421 9.40244 99.2635 2.35251 112.128V230.561L28.2627 245.535V127.072L22.7189 110.562C22.7189 110.049 16.0908 88.4778 16.0908 81.7291C16.9343 80.4336 18.0792 79.0779 19.4049 78.2945L98.0688 32.8918C99.1233 32.2892 100.238 32.0783 101.383 32.5001C101.383 35.302 102.257 39.2186 102.889 41.9603C104.095 47.1121 102.046 40.6346 114.669 78.2343C115.061 79.3791 114.911 71.3651 114.911 198.143C114.911 199.831 114.007 201.367 112.56 202.211C86.3492 217.365 60.1077 232.489 33.8965 247.613C32.4503 248.457 30.7029 248.427 29.2869 247.644C25.8222 245.776 40.2233 254.001 3.34676 232.7ZM113.253 79.8311L98.7318 36.5975L20.0678 82.0003L34.5594 125.204L113.253 79.8311ZM113.555 200.102V81.6689L34.8906 127.072V245.504L113.555 200.102Z" fill="#E9E9F0"/>
<path d="M8.70312 187.626V227.576L21.9291 235.229V195.279L8.70312 187.626Z" fill="#FF954D"/>
<path d="M14.5233 54.6255L16.09 55.5293V81.7707C16.09 88.4893 22.718 110.091 22.718 110.603L28.2617 127.113V245.546L2.35156 230.573V112.14C9.4015 99.275 7.32273 103.463 9.97399 96.8046C15.4573 82.8855 14.5233 86.7418 14.5233 54.6255ZM21.9045 235.242V195.293L8.67851 187.67V227.62L21.9045 235.242Z" fill="#C0C0CA"/>
<path d="M94.3344 0.991152C93.4908 1.32256 20.6718 43.4113 21.2141 43.11C17.5084 45.2491 14.5859 50.3708 14.5859 54.5887L16.1526 55.4926C16.1526 51.2144 19.1652 46.0926 22.7806 44.0138L94.7863 2.4373C96.7145 1.32257 98.3114 1.35269 99.4864 1.98537C97.9198 1.08154 96.6844 0.0571864 94.3344 0.991152Z" fill="#E9E9F0"/>
<path d="M20 82.0374L34.4916 125.241L113.156 79.8381L98.6339 36.6045L20 82.0374Z" fill="#DAD8E1"/>
<path d="M113.492 81.6787V200.112L34.8281 245.514V127.081L113.492 81.6787ZM103.701 152.479V110.18L44.6801 144.254V186.554L103.701 152.479ZM92.7341 199.117V189.476L55.6466 210.897V220.538L92.7341 199.117Z" fill="#DAD8E1"/>
<path d="M44.7188 144.279V186.548L103.739 152.473V110.174L44.7188 144.279Z" fill="#FF7733"/>
<path d="M45.7541 42.5918C49.1585 46.5386 43.0124 57.2038 37.8906 56.2096C39.6079 58.1981 42.6207 56.8423 44.579 54.8539C48.6463 50.7263 49.7912 43.4053 45.7541 42.5918Z" fill="#E9E9F0"/>
<path d="M55.7812 210.856V220.497L92.8688 199.106V189.465L55.7812 210.856Z" fill="#E9E9F0"/>
<path d="M61.9962 33.2207C65.4308 37.1675 59.2244 47.8327 54.1328 46.8385C54.645 47.411 55.3079 47.7424 56.031 47.8026C59.4656 48.134 64.4667 42.711 64.527 37.2277C64.527 34.5463 63.111 33.4617 61.9962 33.2207Z" fill="#E9E9F0"/>
<path d="M70.375 37.4834C73.8096 41.1289 80.7089 33.8681 80.7089 27.8425C80.7089 26.0047 80.016 24.2271 78.1782 23.8354C81.6128 27.8123 75.4365 38.3571 70.375 37.4834Z" fill="#E9E9F0"/>
<path d="M80.7984 27.8084C80.7984 25.7898 79.9548 23.952 77.9362 23.7712C72.7241 23.2591 67.0299 33.834 70.4645 37.4493C73.7484 40.9743 80.7984 34.075 80.7984 27.8084ZM98.1821 32.9301L19.5482 78.3329C18.2226 79.1162 17.078 80.472 16.2344 81.7675V55.5261C16.2344 51.278 19.1867 46.1563 22.8623 44.0473L94.868 2.47081C98.3327 0.48237 101.496 1.83812 101.496 6.29705V32.5385C100.381 32.1167 99.2366 32.3276 98.1821 32.9301ZM41.8431 56.7915C47.7481 54.2908 50.7307 43.5653 45.7596 42.6012C41.2404 41.6974 35.3957 50.4043 37.2937 55.1947C38.077 57.153 39.8847 57.635 41.8431 56.7915ZM64.5293 37.2083C64.5293 36.0032 64.1678 33.6833 61.9986 33.2013C57.6903 32.2372 51.5744 40.8839 53.5327 45.7948C55.6718 51.2178 64.4389 44.8005 64.5293 37.2083Z" fill="#C0C0CA"/>
</svg>
