<svg width="44" height="217" viewBox="0 0 44 217" fill="none" xmlns="http://www.w3.org/2000/svg">
<path d="M42.937 188.7V202.443C42.8883 205.441 40.9388 207.999 38.4776 209.851C26.2204 219.087 0.121842 214.213 0 202.297V188.748C0 193.476 4.60564 197.058 8.91883 198.788C22.6626 204.466 42.937 199.056 42.937 188.7Z" fill="#6CA1CF"/>
<path d="M43.0197 179.752V188.695C43.0197 190.718 42.1424 192.594 40.8265 194.154C34.5395 201.562 18.9681 202.877 8.9771 198.735C8.90399 198.71 8.83092 198.686 8.75781 198.637V189.694C8.83092 189.743 8.90399 189.767 8.9771 189.792C22.6965 195.518 43.0197 190.157 43.0197 179.752Z" fill="#FFE785"/>
<path d="M8.91878 55.9689C4.60559 54.2387 0 50.6566 0 45.9291V179.76C0 184.487 4.58122 188.045 8.91878 189.775C22.6381 195.477 42.9613 190.116 42.9613 179.736V45.9048C42.9613 56.4319 22.565 61.671 8.91878 55.9689ZM39.5985 178.176C34.0669 183.123 24.4658 184.585 16.8629 183.61V66.2767C24.3439 67.227 34.0669 65.838 39.5985 60.8425V178.176Z" fill="#6CA1CF"/>
<path d="M43.0197 36.981V45.9241C43.0197 56.4269 22.6234 61.666 8.9771 55.9639C8.90399 55.9395 8.83092 55.9152 8.75781 55.8664V46.9233C8.83092 46.972 8.90399 46.9963 8.9771 47.0207C22.6965 52.7472 43.0197 47.3862 43.0197 36.981Z" fill="#FFE785"/>
<path d="M42.9613 30.8205C42.9613 37.3025 43.4731 39.2275 40.7682 42.4442C34.4812 49.8278 18.8854 51.1924 8.91878 47.0254C4.60559 45.2952 0 41.7131 0 37.01V30.6743C0 42.761 26.8539 47.5372 38.8675 37.9361C41.2068 36.1085 42.9126 33.6229 42.9613 30.8205Z" fill="#6CA1CF"/>
<path d="M42.937 30.503C42.937 34.012 40.7439 36.4488 38.8431 37.9353C26.6102 47.7314 0 42.4922 0 30.6492C0 26.0923 1.68142 21.6085 4.97115 18.0507C4.87367 18.3675 4.87368 18.733 4.87368 19.0498C4.87368 21.1699 4.75184 22.1203 5.55599 23.7286C6.55509 25.6537 8.52894 27.1889 10.4297 28.1392C21.0055 33.5977 38.3801 29.2846 38.039 20.8288C38.039 19.4398 38.0877 18.5868 37.9414 18.0264C41.2555 21.6329 42.8883 26.0923 42.937 30.503Z" fill="#A3CCF0"/>
<path d="M39.681 60.8374C39.681 99.9485 39.681 139.06 39.681 178.171C34.1981 183.118 24.5239 184.58 16.9453 183.605C16.9453 144.494 16.9453 105.383 16.9453 66.2715C24.402 67.2463 34.1494 65.8329 39.681 60.8374Z" fill="#E9E9F0"/>
<path d="M16.6695 183.773C16.6695 60.4453 16.3283 66.0256 16.8644 66.0987C24.3699 67.049 33.9466 65.6845 39.7463 60.4209V178.242C35.5062 182.116 27.1722 185.089 16.6695 183.773ZM17.035 183.457C24.4917 184.358 33.971 182.945 39.4051 178.095V61.2493C33.8004 66.0743 24.2237 67.3658 17.035 66.4885V183.457Z" fill="#477396"/>
<path d="M27.8717 27.9386C19.952 29.8394 11.7643 27.8411 7.81668 24.4783C3.94211 21.1642 4.03956 16.8997 7.86539 13.6831C7.06123 15.0721 6.30582 17.1434 6.15961 18.5811C6.03777 19.7021 6.30582 21.0424 7.18308 22.3339C10.7652 27.6219 20.6588 28.9133 27.4088 27.305C32.1363 26.1841 37.5703 23.0162 36.8393 18.3131C36.6687 16.8754 35.9134 14.9746 35.1823 13.6831C41.5181 18.971 37.0586 25.7211 27.8717 27.9386Z" fill="#E9E9F0"/>
<path d="M4.95312 19.0972C4.95312 20.9492 5.9035 22.8255 7.80423 24.4582C16.9423 32.2317 37.9478 28.479 38.094 19.1703C38.094 21.5097 38.3864 23.9952 34.7556 26.7976C25.2032 34.1325 4.95312 30.1605 4.95312 20.998C4.95312 20.3644 4.95312 19.7307 4.95312 19.0972Z" fill="#C0C0CA"/>
<path d="M33.3463 8.63818V9.92965C32.0547 10.2464 32.5908 10.1003 31.0312 10.4902C31.0312 10.1003 31.0312 9.58852 31.0312 9.19863L33.3463 8.63818Z" fill="#464B58"/>
<path d="M31.6648 6.30615L33.3463 8.64553L31.0312 9.20597C31.0312 8.30434 31.0312 7.37836 31.0312 6.47673L31.6648 6.30615Z" fill="#797F8D"/>
<path d="M30.9789 11.3936C30.9789 13.27 29.395 14.7077 27.7136 15.5362L27.0312 14.5615C29.0051 13.733 31.0033 12.1977 31.0033 10.1021C30.979 10.565 30.9789 10.9306 30.9789 11.3936Z" fill="#2B303F"/>
<path d="M29.6535 8.71861C30.5308 7.91445 31.0912 6.96411 31.0912 5.79443C31.0912 10.2538 31.5298 11.3991 29.5316 13.1536C25.7302 16.4677 17.2013 16.4434 13.5217 13.0562C11.5966 11.3017 12.0352 9.96142 12.0352 5.79443H12.0596C12.0352 11.4235 24.6824 13.2755 29.6535 8.71861Z" fill="#626575"/>
<path d="M28.3309 2.06364C30.8408 4.15932 30.0367 6.81545 27.1369 8.35065C23.4085 10.3245 17.487 9.95892 14.6359 7.57083C12.1016 5.47515 12.9545 2.79467 15.83 1.25946C19.5096 -0.665634 25.4067 -0.373191 28.3309 2.06364Z" fill="#797F8D"/>
<path d="M27.9743 1.77338C31.2397 3.47916 32.117 6.45208 29.607 8.7427C24.8796 13.0803 13.7676 11.5939 12.1837 6.9395C11.4283 4.69762 13.0122 2.8456 15.1078 1.74902C12.8172 3.33296 12.403 5.72109 14.6692 7.62181C17.5447 10.0099 23.4418 10.3997 27.1701 8.40154C30.3136 6.69576 30.8741 3.79595 27.9743 1.77338Z" fill="#626575"/>
<path d="M28.0539 15.98V17.2715L23.9844 18.2462V16.9547L28.0539 15.98Z" fill="#464B58"/>
<path d="M28.0833 15.9773L24.0382 16.952L23.0391 15.5386C24.5255 15.4168 25.9145 15.0513 27.0842 14.564C27.8884 15.7336 27.6691 15.4168 28.0833 15.9773Z" fill="#797F8D"/>
<path d="M23.0391 16.8311C23.0391 16.3925 23.0391 15.9782 23.0391 15.5396L24.0382 16.953V18.2444L23.0391 16.8311Z" fill="#2B303F"/>
<path d="M22.9953 16.8352C19.9005 17.1277 16.1234 16.5185 13.7109 14.6177C13.7109 14.1791 13.7109 13.7648 13.7109 13.3262C16.099 15.2513 19.9005 15.8361 22.9709 15.5437C22.9953 16.1285 22.9953 16.2504 22.9953 16.8352Z" fill="#2B303F"/>
<path d="M13.6712 13.3262C13.6712 13.7648 13.6712 14.1791 13.6712 14.6177L11.2344 15.2025V13.9111L13.6712 13.3262Z" fill="#464B58"/>
<path d="M12.0259 10.0303C12.0746 11.2487 12.5133 12.2721 13.8292 13.32L11.3924 13.9048L9.71094 11.5655L12.0259 11.005C12.0259 10.8101 12.0259 10.2496 12.0259 10.0303Z" fill="#797F8D"/>
<path d="M9.64314 11.5646V12.8561L11.3246 15.1955L13.7614 14.6107C16.1494 16.5114 19.9265 17.1206 23.0457 16.8282L24.0448 18.2415L28.0899 17.2669C28.0899 15.7316 28.163 16.0971 27.7731 15.5366C29.4546 14.6837 31.0385 13.2461 31.0385 11.3941C31.0385 11.0773 31.0385 10.7848 31.0385 10.468L32.33 10.1513C35.0105 12.5881 36.5213 15.8779 36.8138 18.2903C38.1053 26.5755 20.3895 31.2543 10.3742 25.2109C7.96169 23.7488 5.8904 21.4825 6.10972 18.6802C6.18282 17.5836 6.57271 16.4627 6.8895 15.6341C7.86423 12.978 9.69186 10.7361 11.9581 9.05469C11.9581 9.6639 11.9581 10.3705 11.9581 10.9797L9.64314 11.5646Z" fill="#DAD8E1"/>
<path d="M11.3924 13.9048V15.1963L9.71094 12.8569V11.5654L11.3924 13.9048Z" fill="#2B303F"/>
<path d="M42.9614 202.446V204.225C42.9614 207.369 40.9389 210.001 38.3802 211.877C27.7069 219.797 6.3846 217.287 1.16978 208.222C-0.267953 205.687 0.0244453 203.641 0.0244453 202.276C0.170655 214.314 26.2692 219.041 38.5021 209.83C40.9633 208.002 42.9127 205.444 42.9614 202.446Z" fill="#C0C0CA"/>
<path d="M7.85344 24.4559C17.3571 32.1807 37.729 28.1112 38.1189 19.1924C38.3382 28.5254 17.3083 32.4731 7.80469 24.4803L7.85344 24.4559Z" fill="white"/>
<path d="M6.10543 18.7023C5.49623 26.622 21.36 30.5697 31.351 25.8422C34.4458 24.3557 37.3457 21.6265 36.8096 18.2881C37.37 21.6753 34.4458 24.4045 31.3998 25.9154C25.527 28.7421 17.5098 28.669 11.9538 26.0859C8.85905 24.6482 5.81301 22.1139 6.10543 18.7023Z" fill="#C0C0CA"/>
<path d="M28.3756 2.05811C30.1544 3.49584 30.3251 5.27466 29.2529 6.73676C26.5724 10.2214 18.5308 10.7332 14.6562 7.56529C18.3846 10.5382 26.4505 10.2215 29.131 6.6637C30.3251 5.10412 29.8864 3.39836 28.3756 2.05811Z" fill="white"/>
<path d="M30.9873 5.78271C31.1822 11.3387 18.462 13.4831 13.3203 8.68253C18.4864 13.3612 30.9142 11.1681 30.9873 5.78271Z" fill="white"/>
<path d="M31.1083 6.52051C31.4494 8.64055 29.7437 10.4194 27.8429 11.4916C21.2635 14.9519 11.3212 11.979 12.0279 7.39775H12.0766C11.9548 8.42122 12.4422 9.44476 13.1732 10.1514C17.925 14.952 31.4738 12.4664 31.1083 6.52051Z" fill="#2B303F"/>
<path d="M31.1083 8.28174C31.4494 10.4018 29.7437 12.1807 27.8429 13.2529C21.2635 16.7132 11.3212 13.7403 12.0279 9.15907H12.0766C11.9548 10.2069 12.4422 11.206 13.1732 11.9127C17.9494 16.7376 31.4738 14.2032 31.1083 8.28174Z" fill="#2B303F"/>
<path d="M8.6995 212.243V214.192C4.36194 212.34 0.0487366 208.953 0 204.225V202.276C0.0731049 207.003 4.3863 210.415 8.6995 212.243Z" fill="#7F7D85"/>
<path d="M8.6995 189.706V198.649C4.33757 196.797 0 193.361 0 188.731V179.788C0.0243683 184.418 4.33757 187.878 8.6995 189.706Z" fill="#FFDE58"/>
<path d="M8.6995 198.641V212.239C4.33757 210.387 0.0731049 207 0 202.272V188.724C0.0243683 193.354 4.33757 196.789 8.6995 198.641Z" fill="#477396"/>
<path d="M8.6995 46.9223V55.8655C4.33757 54.0135 0 50.5532 0 45.9476V37.0044C0.0243683 41.61 4.3132 45.046 8.6995 46.9223Z" fill="#FFDE58"/>
<path d="M8.6995 55.8701V189.701C4.33757 187.849 0 184.413 0 179.783V45.9521C0.0243683 50.5578 4.33757 54.0181 8.6995 55.8701Z" fill="#477396"/>
<path d="M8.67514 40.6415V46.9528C4.28884 45.0765 0 41.6161 0 37.0105V30.6748C0 35.451 4.33758 38.6189 8.67514 40.6415Z" fill="#477396"/>
<path d="M8.67514 40.6388C4.33758 38.6163 0 35.4728 0 30.6722C0 26.1153 1.68142 21.6315 4.97115 18.0737C4.87367 18.3905 4.87368 18.7561 4.87368 19.0728C4.87368 21.1929 4.75184 22.1433 5.55599 23.7516C6.55509 25.6767 8.52894 27.2119 10.4297 28.1622C8.23652 33.1821 8.67514 40.6388 8.67514 40.6388Z" fill="#6CA1CF"/>
</svg>
