<svg width="337" height="252" viewBox="0 0 337 252" fill="none" xmlns="http://www.w3.org/2000/svg">
<path d="M117.231 193.628L16.8612 243.275H0V251.615H137.737H219.769L337 193.628H117.231Z" fill="#CC6217"/>
<path d="M337 185.288L219.769 243.275H0L117.231 185.288H337Z" fill="#511E0E"/>
<path d="M219.773 243.275V251.615L337.005 193.628V185.288L219.773 243.275Z" fill="#A84B08"/>
<path d="M117.231 181.696L16.8612 231.343H0V239.683H137.737H219.769L337 181.696H117.231Z" fill="#CC6217"/>
<path d="M337 173.356L219.769 231.344H0L117.231 173.356H337Z" fill="#F9A033"/>
<path d="M219.773 231.344V239.684L337.005 181.697V173.356L219.773 231.344Z" fill="#A84B08"/>
<path d="M16.9897 235.27H10.8438V246.684H16.9897V235.27Z" fill="#CC6217"/>
<path d="M204.318 235.27H198.172V246.684H204.318V235.27Z" fill="#CC6217"/>
<path d="M237.927 227.368H231.781V238.782H237.927V227.368Z" fill="#A84B08"/>
<path d="M330.115 181.696H323.969V193.11H330.115V181.696Z" fill="#A84B08"/>
<path d="M170.188 154.184H81.7031V202.504H170.188V154.184Z" fill="#C9C3B3"/>
<path d="M170.188 202.504L217.388 179.157V130.837L170.188 154.184V202.504Z" fill="#94918C"/>
<path d="M217.388 130.837L170.188 154.184H81.7031L128.903 130.837H217.388Z" fill="#B5AE9F"/>
<path d="M196.094 135.764L169.139 149.098H139.273L166.229 135.764H196.094Z" fill="#3E4140"/>
<path d="M158.696 135.764L131.741 149.098H101.875L128.831 135.764H158.696Z" fill="#3E4140"/>
<path d="M128.831 135.764V149.098H101.875L128.831 135.764Z" fill="#333634"/>
<path d="M166.229 135.764V149.098H139.273L166.229 135.764Z" fill="#333634"/>
<path d="M261.563 154.184H173.078V202.504H261.563V154.184Z" fill="#7A756E"/>
<path d="M261.562 202.504L308.763 179.157V130.837L261.562 154.184V202.504Z" fill="#94918C"/>
<path d="M308.763 130.837L261.562 154.184H173.078L220.278 130.837H308.763Z" fill="#B5AE9F"/>
<path d="M287.462 135.764L260.506 149.098H230.641L257.597 135.764H287.462Z" fill="#3E4140"/>
<path d="M250.064 135.764L223.108 149.098H193.242L220.198 135.764H250.064Z" fill="#3E4140"/>
<path d="M220.198 135.764V149.098H193.242L220.198 135.764Z" fill="#333634"/>
<path d="M257.597 135.764V149.098H230.641L257.597 135.764Z" fill="#333634"/>
<path d="M120.797 179.116H32.3125V227.436H120.797V179.116Z" fill="#C9C3B3"/>
<path d="M120.797 227.436L167.997 204.089V155.77L120.797 179.116V227.436Z" fill="#94918C"/>
<path d="M167.997 155.77L120.797 179.116H32.3125L79.5126 155.77H167.997Z" fill="#94918C"/>
<path d="M146.704 160.696L119.748 174.03H89.8828L116.839 160.696H146.704Z" fill="#3E4140"/>
<path d="M109.306 160.696L82.35 174.03H52.4844L79.4403 160.696H109.306Z" fill="#3E4140"/>
<path d="M79.4403 160.696V174.03H52.4844L79.4403 160.696Z" fill="#333634"/>
<path d="M116.839 160.696V174.03H89.8828L116.839 160.696Z" fill="#333634"/>
<path d="M212.172 179.116H123.688V227.436H212.172V179.116Z" fill="#C9C3B3"/>
<path d="M212.172 227.436L259.372 204.089V155.77L212.172 179.116V227.436Z" fill="#94918C"/>
<path d="M259.372 155.77L212.172 179.116H123.688L170.888 155.77H259.372Z" fill="#B5AE9F"/>
<path d="M238.079 160.696L211.123 174.03H181.258L208.214 160.696H238.079Z" fill="#3E4140"/>
<path d="M200.681 160.696L173.725 174.03H143.859L170.815 160.696H200.681Z" fill="#3E4140"/>
<path d="M170.815 160.696V174.03H143.859L170.815 160.696Z" fill="#333634"/>
<path d="M208.214 160.696V174.03H181.258L208.214 160.696Z" fill="#333634"/>
<path d="M170.188 104.098H81.7031V152.418H170.188V104.098Z" fill="#C9C3B3"/>
<path d="M170.188 152.418L217.388 129.071V80.751L170.188 104.098V152.418Z" fill="#94918C"/>
<path d="M217.388 80.751L170.188 104.098H81.7031L128.903 80.751H217.388Z" fill="#B5AE9F"/>
<path d="M196.094 85.6777L169.139 99.0113H139.273L166.229 85.6777H196.094Z" fill="#3E4140"/>
<path d="M158.696 85.6777L131.741 99.0113H101.875L128.831 85.6777H158.696Z" fill="#3E4140"/>
<path d="M128.831 85.6777V99.0113H101.875L128.831 85.6777Z" fill="#333634"/>
<path d="M166.229 85.6777V99.0113H139.273L166.229 85.6777Z" fill="#333634"/>
<path d="M261.563 104.098H173.078V152.418H261.563V104.098Z" fill="#7A756E"/>
<path d="M261.562 152.418L308.763 129.071V80.751L261.562 104.098V152.418Z" fill="#7A756E"/>
<path d="M308.763 80.751L261.562 104.098H173.078L220.278 80.751H308.763Z" fill="#B5AE9F"/>
<path d="M287.462 85.6777L260.506 99.0113H230.641L257.597 85.6777H287.462Z" fill="#3E4140"/>
<path d="M250.064 85.6777L223.108 99.0113H193.242L220.198 85.6777H250.064Z" fill="#3E4140"/>
<path d="M220.198 85.6777V99.0113H193.242L220.198 85.6777Z" fill="#333634"/>
<path d="M257.597 85.6777V99.0113H230.641L257.597 85.6777Z" fill="#333634"/>
<path d="M120.797 129.031H32.3125V177.351H120.797V129.031Z" fill="#C9C3B3"/>
<path d="M167.994 105.682V154.004L120.797 177.349V129.034C120.797 129.034 120.797 129.034 120.804 129.026L142.531 118.28L167.994 105.682Z" fill="#7A756E"/>
<path d="M167.997 105.684L120.797 129.031H32.3125L79.5126 105.684H167.997Z" fill="#94918C"/>
<path d="M146.704 110.61L119.748 123.944H89.8828L116.839 110.61H146.704Z" fill="#3E4140"/>
<path d="M109.306 110.61L82.35 123.944H52.4844L79.4403 110.61H109.306Z" fill="#3E4140"/>
<path d="M79.4403 110.61V123.944H52.4844L79.4403 110.61Z" fill="#333634"/>
<path d="M116.839 110.61V123.944H89.8828L116.839 110.61Z" fill="#333634"/>
<path d="M170.188 54.2529H81.7031V102.573H170.188V54.2529Z" fill="#7A756E"/>
<path d="M170.188 102.572L217.388 79.2254V30.9058L170.188 54.2532V102.572Z" fill="#94918C"/>
<path d="M217.388 30.9058L170.188 54.2532H81.7031L128.903 30.9058H217.388Z" fill="#B5AE9F"/>
<path d="M196.094 35.8325L169.139 49.1661H139.273L166.229 35.8325H196.094Z" fill="#3E4140"/>
<path d="M158.696 35.8325L131.741 49.1661H101.875L128.831 35.8325H158.696Z" fill="#3E4140"/>
<path d="M128.831 35.8325V49.1661H101.875L128.831 35.8325Z" fill="#333634"/>
<path d="M166.229 35.8325V49.1661H139.273L166.229 35.8325Z" fill="#333634"/>
<path d="M274.397 55.0449H187.461V102.573H274.397V55.0449Z" fill="#C9C3B3"/>
<path d="M274.398 102.572L320.773 79.6078V32.0801L274.398 55.0447V102.572Z" fill="#94918C"/>
<path d="M320.772 32.0801L274.397 55.0447H187.461L233.836 32.0801H320.772Z" fill="#B5AE9F"/>
<path d="M299.843 36.9268L273.359 50.0419H244.016L270.5 36.9268H299.843Z" fill="#3E4140"/>
<path d="M263.101 36.9268L236.616 50.0419H207.273L233.758 36.9268H263.101Z" fill="#3E4140"/>
<path d="M233.758 36.9268V50.0419H207.273L233.758 36.9268Z" fill="#333634"/>
<path d="M270.5 36.9268V50.0419H244.016L270.5 36.9268Z" fill="#333634"/>
<path d="M120.797 79.1855H32.3125V127.505H120.797V79.1855Z" fill="#C9C3B3"/>
<path d="M120.797 127.505L167.997 104.158V55.8384L120.797 79.1858V127.505Z" fill="#94918C"/>
<path d="M167.997 55.8384L120.797 79.1858H32.3125L79.5126 55.8384H167.997Z" fill="#B5AE9F"/>
<path d="M146.704 60.7651L119.748 74.0988H89.8828L116.839 60.7651H146.704Z" fill="#3E4140"/>
<path d="M109.306 60.7651L82.35 74.0988H52.4844L79.4403 60.7651H109.306Z" fill="#3E4140"/>
<path d="M79.4403 60.7651V74.0988H52.4844L79.4403 60.7651Z" fill="#333634"/>
<path d="M116.839 60.7651V74.0988H89.8828L116.839 60.7651Z" fill="#333634"/>
<path opacity="0.5" d="M242.297 177.35L302.042 182.481L308.763 179.157V164.199L289.497 154.003L242.297 177.35Z" fill="#333634"/>
<path opacity="0.35" d="M173.981 123.944L167.994 134.851L153.814 160.697L120.797 129.033C120.797 129.033 120.797 129.033 120.804 129.025L142.531 118.28C150.063 119.721 161.191 121.7 167.994 122.892C171.591 123.532 173.981 123.944 173.981 123.944Z" fill="#333634"/>
<path d="M242.305 129.031H153.82V177.35H242.305V129.031Z" fill="#C9C3B3"/>
<path d="M242.305 177.351L289.505 154.003V105.684L242.305 129.031V177.351Z" fill="#94918C"/>
<path d="M289.505 105.684L242.305 129.031H153.82L201.02 105.684H289.505Z" fill="#B5AE9F"/>
<path d="M268.204 110.61L241.248 123.944H211.383L238.339 110.61H268.204Z" fill="#3E4140"/>
<path d="M230.806 110.61L203.85 123.944H173.984L200.94 110.61H230.806Z" fill="#3E4140"/>
<path d="M200.94 110.61V123.944H173.984L200.94 110.61Z" fill="#333634"/>
<path d="M238.339 110.61V123.944H211.383L238.339 110.61Z" fill="#333634"/>
<path d="M212.172 79.1855H123.688V127.505H212.172V79.1855Z" fill="#C9C3B3"/>
<path d="M212.172 127.505L259.372 104.158V55.8384L212.172 79.1858V127.505Z" fill="#94918C"/>
<path d="M259.372 55.8384L212.172 79.1858H123.688L170.888 55.8384H259.372Z" fill="#B5AE9F"/>
<path d="M238.079 60.7651L211.123 74.0988H181.258L208.214 60.7651H238.079Z" fill="#3E4140"/>
<path d="M200.681 60.7651L173.725 74.0988H143.859L170.815 60.7651H200.681Z" fill="#3E4140"/>
<path d="M170.815 60.7651V74.0988H143.859L170.815 60.7651Z" fill="#333634"/>
<path d="M208.214 60.7651V74.0988H181.258L208.214 60.7651Z" fill="#333634"/>
<path d="M194.032 23.3467H105.547V71.6663H194.032V23.3467Z" fill="#C9C3B3"/>
<path d="M194.031 71.6666L241.232 48.3191V0L194.031 23.3469V71.6666Z" fill="#94918C"/>
<path d="M241.232 0L194.031 23.3469H105.547L152.747 0H241.232Z" fill="#B5AE9F"/>
<path d="M219.931 4.92676L192.975 18.2599H163.109L190.065 4.92676H219.931Z" fill="#3E4140"/>
<path d="M182.532 4.92676L155.576 18.2599H125.711L152.667 4.92676H182.532Z" fill="#3E4140"/>
<path d="M152.667 4.92676V18.2599H125.711L152.667 4.92676Z" fill="#333634"/>
<path d="M190.065 4.92676V18.2599H163.109L190.065 4.92676Z" fill="#333634"/>
</svg>
