<svg width="243" height="226" viewBox="0 0 243 226" fill="none" xmlns="http://www.w3.org/2000/svg">
<path d="M20.6128 133.349C20.6128 133.349 -32.5749 182.966 31.9246 211.048C116.258 247.767 187.336 208.134 217.312 185.175C227.913 177.057 233.022 167.948 233.022 167.948C233.022 167.948 114.685 199.216 55.6221 173.289C15.627 155.733 20.6128 133.349 20.6128 133.349Z" fill="#E29E05"/>
<path d="M242.897 133.349H233.008V146.671H242.897V133.349Z" fill="#E29E05"/>
<path d="M196.927 92.8002C230.329 106.048 243.22 124.424 242.933 146.672C242.796 156.965 232.599 170.636 220.987 179.828C184.972 208.34 115.808 215.596 66.5049 196.043C17.2018 176.49 6.43022 137.521 42.4449 109.016C78.4596 80.5035 147.617 73.2472 196.927 92.8002Z" fill="#E29E05"/>
<path d="M197.575 85.7773C246.878 105.33 257.65 144.293 221.635 172.805C185.62 201.317 116.456 208.573 67.1534 189.02C17.8503 169.467 7.07866 130.498 43.0934 101.993C79.1081 73.4806 148.265 66.2243 197.575 85.7773Z" fill="#FFD506"/>
<path d="M22.2178 144.422C22.2178 144.422 1.31744 17.7548 110.935 1.62825C238.689 -17.1588 242.786 132.83 242.786 132.83L22.2178 144.422Z" fill="#FFD506"/>
<path d="M20.6128 125.715C20.6128 125.715 -32.5749 175.333 31.9246 203.414C116.258 240.133 187.336 200.501 217.312 177.549C227.913 169.431 231.018 163.823 231.018 163.823C231.018 163.823 114.685 191.583 55.6221 165.656C15.627 148.107 20.6128 125.715 20.6128 125.715Z" fill="#F4B10B"/>
<path d="M127.476 9.11619C110.892 18.8072 103.396 30.3722 93.6845 53.9739C83.973 77.5688 91.9951 100.117 115.508 113.878C139.021 127.638 155.209 151.116 155.209 151.116C155.209 151.116 158.635 124.403 138.31 107.401C117.977 90.4057 98.9847 81.6244 110.686 53.9739C125.083 19.9767 172.054 7.39952 172.054 7.39952C172.054 7.39952 156.009 -7.5507 127.476 9.11619Z" fill="#FFBE08"/>
<path d="M110.926 1.62988C110.926 1.62988 79.5075 13.8993 66.9645 33.7327C60.953 43.2391 61.2948 75.8273 55.6321 83.9248C49.9693 92.0223 20.6228 115.494 20.6228 115.494C20.6228 115.494 11.773 107.239 22.7771 92.3437C33.7812 77.4481 47.1379 76.1761 48.3484 53.9764C49.1554 39.0672 41.5571 5.95219 110.926 1.62988Z" fill="#FFBE08"/>
<path d="M17.2234 144.423C17.2234 144.423 1.07625 169.967 17.2234 183.782C33.3705 197.597 75.4584 211.227 115.488 207.028C166.637 201.659 186.949 183.782 186.949 183.782C186.949 183.782 99.19 193.945 56.7807 179.678C16.8198 166.233 17.2234 144.423 17.2234 144.423Z" fill="#FFBE08"/>
<path d="M182.125 26.7965C164.692 14.281 130.825 28.6772 130.859 56.2319C130.887 79.4985 162.771 82.419 179.595 74.2599C201.754 63.5157 208.128 45.4673 182.125 26.7965Z" fill="#FFE05C"/>
</svg>
