<svg width="26" height="24" viewBox="0 0 26 24" fill="none" xmlns="http://www.w3.org/2000/svg">
<path d="M19.2262 13.777C17.4768 11.6649 15.2657 10.5018 13 10.5018C10.7342 10.5018 8.52304 11.6649 6.77383 13.777C5.20144 15.6755 4.26279 18.0681 4.26279 20.1773C4.26279 21.2018 4.57601 21.9822 5.19372 22.4969C5.8034 23.0049 6.60833 23.1768 7.50634 23.1767C8.46189 23.1767 9.52292 22.9821 10.5654 22.7909C11.4764 22.6237 12.3368 22.4659 13 22.4659C13.5724 22.4659 14.3795 22.6157 15.2338 22.7743C17.2303 23.145 19.4934 23.5651 20.8006 22.4782C21.4221 21.9615 21.7372 21.1873 21.7372 20.1773C21.7372 18.0681 20.7985 15.6755 19.2262 13.777ZM19.8266 21.3067C19.0688 21.9369 17.0965 21.5707 15.5118 21.2765C14.5865 21.1047 13.7125 20.9425 12.9999 20.9425C12.1981 20.9425 11.2715 21.1125 10.2904 21.2925C8.77049 21.5713 6.87889 21.9183 6.16877 21.3265C6.07411 21.2477 5.78608 21.0077 5.78608 20.1772C5.78608 18.4382 6.61412 16.358 7.94697 14.7487C9.4016 12.9924 11.1961 12.0251 12.9999 12.0251C14.8036 12.0251 16.5981 12.9924 18.0527 14.7487C19.3857 16.358 20.2136 18.4382 20.2136 20.1772C20.2138 20.9849 19.9224 21.2272 19.8266 21.3067ZM19.405 2.3082C18.765 1.36453 17.8485 0.823405 16.8905 0.823405C15.9324 0.823405 15.016 1.36463 14.3759 2.3082C13.788 3.17508 13.4642 4.3135 13.4642 5.51376C13.4642 6.71403 13.7879 7.85244 14.3759 8.71933C15.016 9.66295 15.9325 10.2042 16.8905 10.2042C17.8485 10.2042 18.765 9.66295 19.405 8.71933C19.9929 7.85244 20.3168 6.71403 20.3168 5.51376C20.3168 4.3135 19.993 3.17503 19.405 2.3082ZM18.1443 7.86423C17.9374 8.16917 17.4995 8.68079 16.8905 8.68079C16.2814 8.68079 15.8436 8.16922 15.6367 7.86423C15.2241 7.25597 14.9875 6.39924 14.9875 5.51376C14.9875 4.62824 15.2242 3.77156 15.6367 3.1633C15.8435 2.85836 16.2814 2.34674 16.8905 2.34674C17.4995 2.34674 17.9374 2.85831 18.1443 3.1633C18.5568 3.77156 18.7934 4.62829 18.7934 5.51376C18.7933 6.39924 18.5568 7.25597 18.1443 7.86423ZM11.624 2.30815C10.984 1.36448 10.0675 0.823303 9.10951 0.823303C8.15147 0.823303 7.23497 1.36453 6.59497 2.30815C6.00703 3.17503 5.6832 4.31345 5.6832 5.51371C5.6832 6.71398 6.00698 7.85239 6.59497 8.71928C7.23502 9.66295 8.15147 10.2042 9.10951 10.2042C10.0675 10.2042 10.984 9.66295 11.624 8.71928C12.212 7.85239 12.5358 6.71403 12.5358 5.51371C12.5358 4.31345 12.212 3.17498 11.624 2.30815ZM10.3632 7.86423C10.1564 8.16917 9.71843 8.68079 9.10946 8.68079C8.50044 8.68079 8.0625 8.16917 7.85567 7.86423C7.44312 7.25597 7.20653 6.39924 7.20653 5.51376C7.20653 4.62824 7.44317 3.77156 7.85567 3.1633C8.0625 2.85836 8.50044 2.34674 9.10946 2.34674C9.71848 2.34674 10.1564 2.85831 10.3632 3.1633C10.7757 3.77156 11.0123 4.62829 11.0123 5.51376C11.0123 6.39924 10.7757 7.25597 10.3632 7.86423ZM25.8486 9.67082C25.5906 8.79312 25.0375 8.15535 24.2914 7.87509C23.6909 7.64957 23.0132 7.68781 22.3829 7.9828C21.5143 8.38925 20.8043 9.22857 20.4351 10.2855C20.1334 11.1492 20.0958 12.0621 20.3292 12.8561C20.5872 13.7338 21.1403 14.3716 21.8865 14.6519C22.1447 14.7488 22.4171 14.797 22.694 14.797C23.061 14.797 23.4358 14.7123 23.795 14.5441C24.6637 14.1377 25.3736 13.2984 25.7428 12.2415V12.2415C26.0444 11.3778 26.0821 10.4649 25.8486 9.67082ZM24.3046 11.7391C24.0732 12.4013 23.6413 12.9341 23.1493 13.1644C22.9684 13.249 22.6954 13.3283 22.4221 13.2257C21.7626 12.9779 21.506 11.8387 21.8732 10.7879C22.1045 10.1256 22.5364 9.59282 23.0285 9.36253C23.1484 9.30641 23.3088 9.25264 23.4829 9.25264C23.5715 9.25264 23.6636 9.26655 23.7556 9.30113C24.4152 9.54894 24.6717 10.6882 24.3046 11.7391ZM5.56493 10.2854C5.1957 9.22846 4.48572 8.3892 3.61716 7.98275C2.98681 7.68776 2.30899 7.64957 1.7086 7.87504C0.962419 8.15535 0.409361 8.79312 0.151341 9.67077C-0.0821002 10.4648 -0.0444713 11.3778 0.25722 12.2414V12.2415C0.626501 13.2984 1.33642 14.1376 2.20499 14.5441C2.56431 14.7122 2.93903 14.797 3.30602 14.797C3.58288 14.797 3.85538 14.7487 4.11355 14.6518C4.85983 14.3715 5.41284 13.7337 5.67086 12.8561C5.9042 12.0621 5.86657 11.1491 5.56493 10.2854ZM3.57781 13.2257C3.30455 13.3283 3.03155 13.249 2.85067 13.1644C2.35865 12.9341 1.9267 12.4013 1.6954 11.7391V11.7391C1.3283 10.6882 1.58479 9.54905 2.24434 9.30123C2.51754 9.1986 2.7906 9.27798 2.97153 9.36258C3.4636 9.59287 3.89549 10.1257 4.1268 10.7879C4.4939 11.8388 4.23735 12.9779 3.57781 13.2257Z" fill="black"/>
</svg>
