<svg width="26" height="22" viewBox="0 0 26 22" fill="none" xmlns="http://www.w3.org/2000/svg">
<path d="M19.2262 12.7489C17.4769 10.6702 15.2657 9.52544 13 9.52544C10.7342 9.52544 8.52305 10.6702 6.77383 12.7489C5.20144 14.6174 4.2628 16.9722 4.2628 19.048C4.2628 20.0563 4.57602 20.8244 5.19372 21.3309C5.8034 21.8309 6.60834 22 7.50635 22C8.4619 22 9.52293 21.8085 10.5654 21.6203C11.4764 21.4558 12.3368 21.3005 13 21.3005C13.5724 21.3005 14.3795 21.4479 15.2338 21.604C17.2304 21.9688 19.4934 22.3822 20.8006 21.3125C21.4221 20.804 21.7372 20.042 21.7372 19.048C21.7373 16.9722 20.7986 14.6174 19.2262 12.7489ZM19.8267 20.1596C19.0689 20.7798 17.0966 20.4194 15.5118 20.1299C14.5865 19.9608 13.7125 19.8011 12.9999 19.8011C12.1981 19.8011 11.2715 19.9684 10.2904 20.1455C8.7705 20.4199 6.8789 20.7615 6.16877 20.1791C6.07412 20.1015 5.78609 19.8653 5.78609 19.0479C5.78609 17.3364 6.61413 15.2891 7.94698 13.7053C9.40161 11.9767 11.1961 11.0247 12.9999 11.0247C14.8036 11.0247 16.5981 11.9767 18.0528 13.7053C19.3857 15.2891 20.2137 17.3364 20.2137 19.0479C20.2138 19.8428 19.9224 20.0813 19.8267 20.1596ZM19.405 1.46142C18.765 0.53267 17.8485 0.000100093 16.8905 0.000100093C15.9324 0.000100093 15.016 0.53277 14.3759 1.46142C13.788 2.3146 13.4642 3.43502 13.4642 4.61631C13.4642 5.7976 13.788 6.91801 14.3759 7.77119C15.016 8.69989 15.9325 9.23256 16.8905 9.23256C17.8485 9.23256 18.765 8.69989 19.405 7.77119C19.993 6.91801 20.3168 5.7976 20.3168 4.61631C20.3168 3.43502 19.993 2.31455 19.405 1.46142ZM18.1443 6.92961C17.9374 7.22973 17.4995 7.73326 16.8905 7.73326C16.2815 7.73326 15.8436 7.22978 15.6367 6.92961C15.2241 6.33097 14.9876 5.48778 14.9876 4.61631C14.9876 3.74478 15.2242 2.90165 15.6367 2.30301C15.8435 2.00289 16.2815 1.49935 16.8905 1.49935C17.4995 1.49935 17.9374 2.00284 18.1443 2.30301C18.5568 2.90165 18.7934 3.74483 18.7934 4.61631C18.7934 5.48778 18.5568 6.33097 18.1443 6.92961ZM11.6241 1.46137C10.984 0.53262 10.0676 0 9.10952 0C8.15148 0 7.23498 0.53267 6.59498 1.46137C6.00704 2.31455 5.6832 3.43497 5.6832 4.61626C5.6832 5.79755 6.00698 6.91796 6.59498 7.77114C7.23503 8.69989 8.15148 9.23256 9.10952 9.23256C10.0676 9.23256 10.984 8.69989 11.6241 7.77114C12.212 6.91796 12.5358 5.7976 12.5358 4.61626C12.5358 3.43497 12.212 2.3145 11.6241 1.46137ZM10.3632 6.92961C10.1564 7.22973 9.71844 7.73326 9.10947 7.73326C8.50045 7.73326 8.06251 7.22973 7.85568 6.92961C7.44313 6.33097 7.20654 5.48778 7.20654 4.61631C7.20654 3.74478 7.44318 2.90165 7.85568 2.30301C8.06251 2.00289 8.50045 1.49935 9.10947 1.49935C9.71849 1.49935 10.1564 2.00284 10.3632 2.30301C10.7758 2.90165 11.0123 3.74483 11.0123 4.61631C11.0123 5.48778 10.7758 6.33097 10.3632 6.92961ZM25.8486 8.70764C25.5906 7.84381 25.0375 7.21613 24.2914 6.9403C23.691 6.71835 23.0132 6.75598 22.3829 7.04631C21.5143 7.44633 20.8043 8.27238 20.4351 9.31258C20.1334 10.1626 20.0958 11.0611 20.3292 11.8426C20.5873 12.7064 21.1403 13.3341 21.8865 13.6099C22.1447 13.7054 22.4172 13.7528 22.694 13.7528C23.061 13.7528 23.4358 13.6694 23.7951 13.5039C24.6637 13.1039 25.3737 12.2778 25.7428 11.2377V11.2376C26.0445 10.3877 26.0821 9.48915 25.8486 8.70764ZM24.3046 10.7432C24.0732 11.395 23.6414 11.9194 23.1493 12.146C22.9684 12.2292 22.6954 12.3073 22.4221 12.2063C21.7626 11.9625 21.5061 10.8413 21.8732 9.80702C22.1046 9.15525 22.5365 8.63087 23.0285 8.40422C23.1485 8.34899 23.3088 8.29607 23.4829 8.29607C23.5715 8.29607 23.6636 8.30976 23.7557 8.3438C24.4152 8.58769 24.6718 9.70891 24.3046 10.7432ZM5.56493 9.31248C5.1957 8.27228 4.48573 7.44628 3.61717 7.04626C2.98682 6.75593 2.30899 6.71835 1.7086 6.94025C0.96242 7.21613 0.409361 7.84381 0.151341 8.70759C-0.0821003 9.4891 -0.0444713 10.3876 0.25722 11.2376V11.2376C0.626502 12.2778 1.33642 13.1038 2.20499 13.5039C2.56432 13.6693 2.93903 13.7528 3.30603 13.7528C3.58289 13.7528 3.85538 13.7053 4.11355 13.6099C4.85983 13.334 5.41284 12.7063 5.67086 11.8425C5.9042 11.0611 5.86657 10.1626 5.56493 9.31248ZM3.57781 12.2063C3.30456 12.3073 3.03156 12.2292 2.85067 12.146C2.35865 11.9194 1.92671 11.395 1.6954 10.7432V10.7433C1.3283 9.70896 1.5848 8.58779 2.24434 8.3439C2.51755 8.24289 2.7906 8.32101 2.97153 8.40427C3.4636 8.63092 3.8955 9.1553 4.12681 9.80702C4.4939 10.8413 4.23736 11.9625 3.57781 12.2063Z" fill="#244A65"/>
</svg>
