<svg width="337" height="401" viewBox="0 0 337 401" fill="none" xmlns="http://www.w3.org/2000/svg">
<path d="M330.98 272.776C332.147 272.659 333.325 272.555 334.488 272.222C334.936 272.09 335.157 271.553 334.908 271.144C332.744 267.552 329.722 263.972 325.677 262.481C323.16 261.539 319.813 260.308 316.975 260.861C317.516 260.003 318.029 259.125 318.57 258.272C318.891 257.778 318.342 257.309 317.885 257.386C315.58 257.77 312.77 258.673 310.794 260.32C310.273 258.536 309.692 256.8 309.668 255.373C309.66 254.844 309.027 254.636 308.662 254.984C305.628 257.839 303.383 261.487 301.014 264.954C298.813 266.618 297.054 269.26 295.679 271.384C294.528 273.16 293.498 275.024 292.476 276.889C289.35 282.557 286.512 288.398 283.93 294.347C281.594 299.787 279.317 305.455 278.271 311.32C277.87 313.497 277.232 318.632 280.271 319.29C284.207 321.399 288.54 321.928 292.889 320.901C295.458 320.292 297.972 319.162 300.421 318.175C301.299 317.819 302.212 317.482 303.114 317.141C302.561 317.903 301.988 318.661 301.375 319.394C300.994 319.859 301.226 320.793 301.96 320.721C308.469 320.031 315.993 320.509 321.661 316.76C323.713 315.405 325.357 313.481 326.784 311.505C328.868 308.598 330.884 305.608 332.724 302.537C338.111 293.549 339.105 280.316 330.98 272.776Z" fill="#FDF5E8"/>
<path opacity="0.3" d="M330.98 272.775C332.147 272.659 333.325 272.555 334.487 272.222C334.936 272.09 335.157 271.553 334.908 271.144C334.836 271.012 334.764 270.887 334.692 270.767C332.219 270.775 329.73 270.426 327.289 270.743C333.056 274.66 337.766 283.323 334.904 289.965C334.203 291.601 328.84 302.669 326.619 297.959C324.731 299.133 322.988 300.533 321.156 301.795C320.903 301.976 320.49 301.904 320.442 301.551C320.13 299.334 320.558 297.125 320.358 294.916C316.787 296.584 308.674 301.968 309.828 294.403C310.085 292.671 310.53 290.984 310.902 289.272C311.363 287.299 311.403 285.263 311.74 283.271C312.458 279.081 314.101 275.518 316.342 271.978C314.65 271.882 312.975 272.174 311.283 272.282C311.027 272.298 310.726 272.134 310.758 271.825C311.039 269.476 312.017 267.291 313.476 265.459C311.556 265.764 308.453 266.393 307.692 264.666C306.413 261.827 307.676 257.891 308.85 254.872C308.786 254.896 308.726 254.936 308.666 254.988C305.631 257.843 303.387 261.491 301.018 264.958C298.817 266.622 297.058 269.264 295.683 271.388C294.532 273.164 293.502 275.028 292.48 276.893C289.354 282.561 286.516 288.402 283.934 294.351C281.597 299.791 279.321 305.459 278.275 311.324C277.874 313.501 277.236 318.636 280.275 319.294C284.211 321.403 288.544 321.932 292.893 320.905C295.462 320.296 297.976 319.166 300.425 318.179C301.302 317.823 302.216 317.486 303.118 317.145C302.565 317.907 301.992 318.665 301.379 319.398C300.998 319.863 301.23 320.797 301.964 320.725C308.473 320.035 315.997 320.513 321.665 316.764C323.717 315.409 325.36 313.485 326.787 311.509C328.872 308.602 330.888 305.612 332.728 302.541C338.111 293.549 339.105 280.316 330.98 272.775Z" fill="#A19483"/>
<path opacity="0.3" d="M328.491 308.807C325.669 311.762 322.478 314.748 318.414 315.811C314.602 316.809 310.642 317.627 306.682 317.667C306.337 317.675 306.193 317.25 306.353 316.989C308.529 313.53 311.079 310.291 313.075 306.715C310.301 308.703 307.696 310.976 304.742 312.712C302.421 314.079 299.507 315.65 296.753 315.879C292.171 316.236 299.603 305.147 300.12 304.137C304.453 295.759 308.55 286.334 307.199 276.709C306.577 272.203 305.327 267.769 305.022 263.219C304.902 261.471 305.251 259.783 305.812 258.136C304.096 260.313 302.573 262.674 301.018 264.955C298.817 266.618 297.058 269.26 295.683 271.385C294.532 273.161 293.502 275.025 292.48 276.889C289.354 282.558 286.516 288.398 283.934 294.347C281.597 299.787 279.321 305.456 278.275 311.321C277.874 313.498 277.236 318.633 280.275 319.29C284.211 321.399 288.544 321.928 292.893 320.902C295.462 320.293 297.976 319.162 300.425 318.176C301.302 317.819 302.216 317.482 303.118 317.142C302.565 317.903 301.992 318.661 301.379 319.395C300.998 319.86 301.23 320.794 301.964 320.721C308.473 320.032 315.997 320.509 321.665 316.761C323.717 315.406 325.36 313.482 326.787 311.505C327.637 310.319 328.471 309.108 329.297 307.905C329.028 308.21 328.772 308.519 328.491 308.807Z" fill="#A19483"/>
<path d="M304.504 265.439C302.953 254.243 298.772 243.575 292.255 234.335C288.864 229.532 284.803 225.067 280.763 220.805C278.667 218.584 276.438 216.423 274.021 214.515C273.957 214.431 273.897 214.343 273.825 214.251C266.169 204.83 257.082 196.941 246.989 190.246C236.884 183.551 225.135 178.328 212.778 179.282C206.749 179.755 200.689 181.791 195.149 184.108C189.598 186.442 184.743 189.849 179.448 192.647C174.67 195.173 169.556 196.941 164.337 198.316C161.688 196.965 158.986 195.726 156.216 194.664C150.087 192.318 143.706 190.751 137.257 189.637C124.731 187.46 111.776 186.931 99.0773 187.123C87.3249 187.303 75.5043 189.035 65.0145 194.579C57.3025 198.664 50.1837 204.622 44.0509 210.783C38.4994 216.359 33.8738 222.713 30.4146 229.753C29.1399 231.076 27.8132 232.363 26.5465 233.706C23.905 236.508 20.502 239.021 18.2613 242.152C16.1329 245.159 15.1589 248.855 13.4914 252.102C13.4353 252.202 13.4593 252.299 13.5074 252.383C13.4994 252.499 13.5796 252.619 13.7359 252.627C14.5776 252.691 15.4274 252.487 16.2291 252.166C13.0224 255.185 10.6094 259.053 8.5812 262.994C6.9979 266.101 4.47664 269.484 4.89351 273.132C5.08992 274.8 5.92367 276.376 6.53293 277.927C7.29852 279.939 7.87971 282.032 8.62526 284.06C8.6413 284.145 8.63329 284.225 8.65734 284.313C8.67338 284.393 8.71346 284.429 8.76557 284.445C8.80565 284.561 8.84573 284.674 8.88181 284.774C8.98603 285.055 9.41894 285.026 9.41894 284.69C9.41894 284.337 9.38687 283.968 9.36282 283.619C9.7837 282.441 10.2567 281.395 10.8339 280.388C10.1524 285.908 11.383 291.357 15.1789 295.71C17.7763 298.689 20.987 301.122 24.2458 303.311C25.1917 303.944 26.1577 304.537 27.1278 305.135C27.9735 310.515 29.669 315.802 31.4367 320.926C33.3487 326.478 35.5332 332.194 39.0325 336.961C42.5919 341.84 47.1694 345.977 51.1457 350.491C53.4224 353.088 55.7953 355.718 57.6031 358.665C58.497 360.12 59.2786 361.663 60.0562 363.203C59.1583 364.217 58.6974 365.532 58.004 366.706C56.1 364.429 53.8032 362.657 51.1577 361.174C48.8729 359.903 46.1232 358.689 43.4777 359.442C41.6058 359.971 40.6839 361.655 40.0867 363.471C35.8418 362.946 31.9698 362.714 29.3243 366.999C27.0716 370.655 26.9955 376.007 27.5166 380.112C28.0537 384.309 29.9536 388.61 33.7535 390.803C36.1746 392.182 39.2048 391.589 41.9025 390.366C42.3955 390.711 42.9727 391.024 43.6781 391.26C45.1652 391.757 48.7607 392.716 51.3421 392.347C53.3062 394.103 55.9878 395.181 58.513 395.522C60.7617 395.822 63.0063 395.546 65.1347 394.828C65.2069 394.952 65.3672 395.033 65.5516 394.936C73.925 390.811 82.1782 383.648 85.6694 374.78C86.3549 373.016 86.5192 371.136 86.5352 369.272C88.5234 371.088 90.4113 373.024 92.6239 374.552C94.1871 375.638 95.8145 376.424 97.494 376.929C96.3677 378.576 95.4097 380.34 94.3956 382.148C92.7201 385.151 91.9585 388.198 93.4937 391.445C94.9888 394.608 97.5181 397.141 100.532 398.889C102.765 400.18 105.19 400.244 107.503 399.603C108.782 400.645 110.421 401.07 112.722 400.777C115.139 400.449 117.223 399.394 119.259 398.075C119.668 397.811 120.081 397.554 120.486 397.306C127.817 402.509 138.652 398.741 143.931 392.267C146.965 388.538 147.69 384.421 147.51 379.763C147.454 378.372 147.294 376.837 146.929 375.337C151.719 378.24 157.491 380.32 162.846 379.041C166.293 378.224 169.408 376.267 172.638 374.884C175.087 373.85 177.597 373.217 180.178 372.796C178.298 376.476 177.597 380.701 179.096 384.133C180.551 387.488 184.13 389.629 186.952 391.721C189.421 393.553 192.091 393.618 194.672 392.792C194.997 393.177 195.325 393.545 195.67 393.894C198.067 396.484 201.322 395.947 204.468 395.193C205.487 396.728 207.014 397.823 209.371 398.127C212.253 398.504 215.243 397.987 218.093 397.574C221.788 397.045 225.5 396.841 229.208 396.616C235.87 396.239 242.548 395.81 249.021 394.111C254.869 392.583 259.591 389.597 263.363 384.878C263.463 384.754 263.487 384.606 263.455 384.485C264.064 383.888 264.674 383.279 265.211 382.637C267.347 380.136 267.872 376.861 269.087 373.898C271.772 367.36 274.382 360.805 275.725 353.842C276.338 350.659 276.915 347.456 277.276 344.225C277.572 341.567 277.661 338.296 276.105 335.971C275.059 334.419 273.44 334.195 271.764 334.536C274.241 331.781 277.424 329.733 279.673 326.77C282.106 323.563 284.487 320.304 286.916 317.085C287.577 316.183 288.279 315.317 288.984 314.447C289.79 313.826 290.604 313.18 291.377 312.507C295.758 308.727 297.979 303.856 299.955 298.544C301.967 293.229 304.011 288.133 304.773 282.465C305.518 276.832 305.286 271.084 304.504 265.439Z" fill="#FDF5E8"/>
<path d="M304.505 265.439C302.954 254.243 298.773 243.575 292.256 234.335C288.865 229.532 284.804 225.067 280.764 220.805C278.668 218.584 276.439 216.423 274.022 214.515C273.958 214.431 273.898 214.343 273.826 214.251C266.17 204.83 257.083 196.941 246.99 190.246C236.885 183.551 225.136 178.328 212.779 179.282C206.75 179.755 200.69 181.791 195.15 184.108C189.599 186.442 184.744 189.849 179.449 192.647C174.671 195.173 169.557 196.941 164.338 198.316C161.689 196.965 158.987 195.726 156.217 194.664C150.088 192.318 143.707 190.751 137.258 189.637C135.65 189.348 134.027 189.095 132.412 188.875C133.698 191.312 135.041 193.718 136.372 196.103C142.32 206.702 147.976 218.091 155.912 227.456C156.518 227.769 157.135 228.057 157.76 228.322C161.612 229.961 165.661 230.691 169.621 231.942C176.932 234.239 183.097 238.139 187.807 244.233C188.063 244.553 187.759 245.103 187.338 244.922C185.875 244.305 184.38 243.916 182.852 243.66C190.581 247.628 195.904 254.243 200.313 261.767C200.565 262.196 199.908 262.617 199.595 262.244C197.631 259.831 195.21 257.883 192.384 256.632C192.661 258.797 193.731 260.817 194.501 262.83C195.27 264.806 195.759 266.802 196.008 268.911C196.497 272.968 197.09 277.827 195.735 281.763C194.408 285.584 191.474 288.149 188.524 290.747C184.941 293.886 181.249 296.905 177.197 299.422C176.78 299.679 176.459 299.126 176.64 298.793C177.574 297.105 178.479 295.429 179.213 293.678C177.521 295.221 175.738 296.664 173.882 298.023C172.291 300.248 170.896 302.621 169.557 304.774C167.809 307.576 165.937 310.314 164.13 313.072C162.314 315.838 160.514 318.805 158.185 321.174C153.92 325.508 148.196 327.308 142.769 329.709C136.428 332.503 130.816 336.548 124.864 340.028C124.78 340.076 124.7 340.084 124.623 340.076C124.551 340.124 124.483 340.168 124.419 340.208C124.134 340.392 123.758 340.1 123.79 339.787C123.97 337.915 124.499 336.155 125.104 334.399C121.777 337.883 118.326 341.194 113.705 342.998C109.977 344.441 106.033 345.075 102.221 346.229C100.06 346.875 97.7395 347.729 96.0079 349.216C95.2543 349.861 94.5809 350.471 93.7031 350.743C93.7031 351.032 93.3584 351.336 93.0137 351.144C91.4104 350.234 90.4283 348.242 88.9653 347.111C86.8689 345.46 84.5922 344.085 82.2874 342.734C77.5496 339.947 72.2746 338.376 67.4245 335.826C60.6785 332.287 56.7824 326.57 53.9765 320.004C54.1008 320.629 54.213 321.25 54.2892 321.876C54.3293 322.244 53.9485 322.541 53.6118 322.321C47.936 318.412 42.5808 314.034 36.7808 310.29C32.9448 307.805 28.8723 305.8 24.8359 303.708C25.5855 304.197 26.3471 304.678 27.1207 305.155C27.9665 310.535 29.662 315.822 31.4297 320.946C33.3416 326.498 35.5262 332.214 39.0254 336.981C42.5848 341.86 47.1623 345.997 51.1386 350.511C53.4153 353.108 55.7883 355.738 57.5961 358.685C58.4899 360.14 59.2715 361.683 60.0492 363.223C59.1513 364.237 58.6904 365.552 57.9969 366.726C57.3957 366.005 56.7463 365.343 56.0849 364.738C57.4518 366.289 58.6423 367.885 59.6363 369.969C65.3522 370.739 71.8978 372.892 76.3751 376.123C77.1688 376.7 77.8862 377.378 78.5276 378.135C78.6198 378.224 78.72 378.312 78.8042 378.404C79.9185 379.583 80.7843 380.841 81.4456 382.156C83.1772 379.883 84.6363 377.414 85.6665 374.804C86.3519 373.04 86.5162 371.16 86.5322 369.296C88.5203 371.112 90.4083 373.048 92.6209 374.576C93.8835 375.458 95.1822 376.123 96.529 376.62C96.9298 376.195 97.3427 375.786 97.7636 375.361C99.7276 371.597 103.239 367.745 107.175 367.46C109.865 367.26 112.282 369.236 114.278 371.681C118.88 367.36 128.716 360.336 132.416 368.627C133.189 370.334 133.734 372.283 134.071 374.311C137.394 372.034 142.561 370.186 145.615 372.704C146.601 373.513 147.287 374.616 147.768 375.862C152.393 378.488 157.796 380.276 162.839 379.066C166.286 378.248 169.401 376.291 172.631 374.908C174.439 374.143 176.287 373.61 178.175 373.201C179.678 371.036 181.301 368.951 183.205 367.288C183.891 366.358 184.648 365.496 185.566 364.838C187.382 363.515 190.132 361.747 192.497 362.613C193.527 362.982 194.461 363.64 195.302 364.485C196.188 365.091 197.058 365.724 197.996 366.253C198.934 366.786 199.908 367.272 200.878 367.741C204.012 367.741 206.947 369.308 209.348 371.505C212.847 370.066 216.791 370.026 220.463 370.992C223.517 371.794 226.583 372.467 229.662 373C234.34 372.335 239.001 371.481 243.607 370.402C247.932 369.384 252.954 368.587 256.87 366.418C260.931 364.169 266.494 358.613 271.541 361.595C272.194 361.988 272.755 362.473 273.256 363.01C274.254 360.024 275.12 356.993 275.722 353.874C276.335 350.691 276.912 347.488 277.273 344.257C277.569 341.599 277.658 338.328 276.102 336.003C275.056 334.451 273.437 334.227 271.761 334.568C274.238 331.814 277.421 329.765 279.67 326.802C282.103 323.595 284.484 320.336 286.913 317.117C287.574 316.215 288.276 315.349 288.981 314.479C289.787 313.858 290.6 313.213 291.374 312.539C295.755 308.759 297.976 303.888 299.952 298.576C301.964 293.261 304.008 288.165 304.77 282.497C305.52 276.832 305.287 271.084 304.505 265.439Z" fill="#937A65"/>
<path opacity="0.3" d="M177.012 208.422C186.431 214.623 196.208 220.212 206.052 225.672C204.85 224.601 203.651 223.603 202.381 222.761C198.088 219.891 193.695 217.45 189.75 214.074C187.149 211.841 184.207 209.228 183.209 205.816C181.068 198.608 187.979 191.288 193.43 187.608C198.02 184.509 203.098 182.332 208.065 179.951C203.627 180.841 199.254 182.389 195.15 184.1C189.598 186.433 184.744 189.841 179.449 192.639C174.671 195.165 169.556 196.932 164.338 198.307C161.688 196.957 158.986 195.718 156.217 194.656C155.88 194.527 155.551 194.415 155.223 194.299C162.802 198.392 169.821 203.699 177.012 208.422Z" fill="#A19483"/>
<path opacity="0.3" d="M304.504 265.439C303.218 256.13 300.107 247.171 295.329 239.109C296.5 241.506 297.55 243.94 298.448 246.445C301.546 255.164 303.186 265.339 299.157 274.058C296.812 279.141 292.82 283.246 289.148 287.391C285.196 291.849 281.132 296.219 276.911 300.428C268.181 309.131 258.841 317.305 248.556 324.132C239.629 330.065 230.074 337.061 219.536 339.73C217.03 340.36 214.425 340.797 211.836 340.681C210.345 340.6 208.324 340.516 207.19 339.394C204.933 337.201 207.495 333.104 208.521 330.911C213.756 319.827 221.556 310.55 229.532 301.374C233.36 296.968 237.293 292.715 241.309 288.478C242.952 286.754 244.604 284.994 246.179 283.178C243.774 285.523 241.217 287.704 238.495 289.676C235.838 291.601 233.08 293.561 230.214 295.172C228.138 296.347 225.821 297.465 223.404 296.812C223.187 296.748 223.039 296.455 223.135 296.251C223.969 294.451 224.755 292.679 225.3 290.787C222.402 293.356 219.576 297.425 215.74 298.023C211.214 298.716 208.633 294.13 207.302 290.506C206.276 287.712 205.354 285.343 203.326 283.106C201.578 281.166 200.632 278.668 199.859 276.199C197.895 270.017 196.885 263.571 192.84 258.291C192.568 257.922 192.904 257.501 193.321 257.594C196.071 258.195 197.931 260.215 199.927 262.048C196.504 253.561 188.247 246.152 178.799 247.195C184.074 249.083 190.936 250.35 193.413 255.762C193.578 256.13 193.241 256.475 192.876 256.371C190.163 255.589 187.754 254.054 184.96 253.749C198.728 265.038 182.082 284.112 171.075 290.775C170.846 290.903 170.49 290.735 170.466 290.462C169.604 282.853 171.436 271.584 164.161 266.642C166.141 282.805 161.988 304.617 143.866 309.215C143.59 309.287 143.345 309.027 143.345 308.754C143.437 304.248 144.195 299.67 143.369 295.192C138.643 300.179 134.306 305.467 128.671 309.488C128.378 309.7 127.925 309.536 127.957 309.127C128.21 305.728 128.591 302.352 128.274 298.949C125.139 302.998 121.708 306.794 117.904 310.222C115.828 312.102 113.684 313.902 111.475 315.617C109.178 317.397 106.557 318.933 104.376 320.845C101.49 323.362 98.5762 326.004 94.6921 323.984C91.3732 322.252 88.4872 319.843 85.2284 318.019C74.4019 311.961 56.0558 303.447 56.5608 288.71C54.1158 292.595 52.2278 296.78 50.1916 300.893C50.0633 301.158 49.8108 301.254 49.5382 301.113C45.1371 298.712 41.5777 295.164 37.4972 292.314C34.038 289.881 30.3904 287.576 27.2198 284.757C24.1294 281.999 21.059 278.431 20.5179 274.146C20.1211 270.963 21.0029 268.113 22.4299 265.371C18.3694 268.057 14.9062 271.58 11.916 275.401C11.6955 275.673 11.1785 275.645 11.1264 275.245C9.44287 262.681 17.8203 251.777 28.1297 245.583C24.4902 246.377 20.9107 247.407 17.6479 249.271C17.2792 249.492 16.8423 248.987 17.0988 248.642C19.7684 245.062 22.4379 241.218 25.9412 238.391C27.3761 237.225 28.9113 236.211 30.7351 235.762C31.653 235.533 33.092 234.948 33.7815 235.914C34.1262 236.403 34.2264 237.069 34.511 237.594C35.1243 238.744 35.8498 239.839 36.443 241.013C37.8139 243.727 39.1005 246.353 40.9804 248.766C44.5639 253.388 49.5021 256.547 54.725 259.057C60.1162 261.651 65.6517 263.98 71.1071 266.449C77.1356 269.171 83.4086 271.16 90.0905 270.009C101.001 268.117 109.587 260.276 118.931 254.916C129.573 248.822 140.908 244.304 149.999 235.83C154.989 231.172 159.551 226.068 163.856 220.777C165.776 218.448 167.756 216.146 169.612 213.781C171.215 211.745 172.831 209.572 173.4 207.014C165.704 201.743 158.032 196.102 149.514 192.414C145.494 191.244 141.385 190.342 137.261 189.632C124.735 187.455 111.78 186.926 99.0813 187.119C87.3288 187.299 75.5082 189.031 65.0184 194.575C57.3064 198.66 50.1876 204.617 44.0548 210.779C38.5033 216.355 33.8777 222.709 30.4185 229.748C29.1438 231.071 27.8171 232.358 26.5504 233.701C23.9089 236.503 20.5059 239.017 18.2652 242.148C16.1368 245.154 15.1628 248.85 13.4953 252.098C13.4392 252.198 13.4632 252.294 13.5113 252.378C13.5033 252.494 13.5835 252.615 13.7398 252.623C14.5816 252.687 15.4313 252.482 16.233 252.162C13.0263 255.18 10.6133 259.049 8.5851 262.99C7.00181 266.096 4.48055 269.48 4.89741 273.128C5.09382 274.795 5.92757 276.371 6.53684 277.922C7.30243 279.935 7.88362 282.027 8.62917 284.056C8.6452 284.14 8.6372 284.22 8.66125 284.308C8.67728 284.389 8.71737 284.425 8.76948 284.441C8.80956 284.557 8.84964 284.669 8.88572 284.77C8.98993 285.05 9.42284 285.022 9.42284 284.685C9.42284 284.333 9.39078 283.964 9.36673 283.615C9.7876 282.436 10.2606 281.39 10.8378 280.384C10.1564 285.904 11.3869 291.352 15.1828 295.706C17.7802 298.684 20.9909 301.117 24.2497 303.306C25.1956 303.94 26.1616 304.533 27.1317 305.13C27.9774 310.51 29.6729 315.798 31.4406 320.921C33.3526 326.473 35.5371 332.19 39.0364 336.956C42.5958 341.835 47.1733 345.972 51.1496 350.486C53.4263 353.084 55.7993 355.714 57.607 358.66C58.5009 360.115 59.2825 361.659 60.0601 363.198C59.1623 364.212 58.7013 365.527 58.0078 366.702C56.9697 365.447 55.8033 364.377 54.5366 363.403C54.236 363.487 53.9033 363.531 53.5185 363.487C49.6344 363.09 48.5842 364.826 47.6463 368.293C46.8887 371.039 46.1832 373.781 44.4837 376.115C43.678 377.217 41.9464 377.734 40.792 376.812C35.004 372.178 39.3651 366.157 41.5937 360.652C40.9083 361.414 40.4353 362.412 40.0906 363.471C39.6056 363.411 39.1326 363.358 38.6676 363.31C37.2527 364.858 36.2546 366.61 36.3268 368.847C36.435 371.865 36.6955 376.363 32.9517 377.337C30.0176 378.103 28.1538 375.702 27.4162 373.172C27.1517 375.553 27.2599 377.995 27.5205 380.115C28.0576 384.313 29.9575 388.614 33.7574 390.807C36.1785 392.186 39.2088 391.593 41.9064 390.37C42.3994 390.715 42.9766 391.027 43.6821 391.264C45.1691 391.761 48.7646 392.719 51.346 392.35C53.3101 394.106 55.9916 395.185 58.5169 395.525C60.7656 395.826 63.0103 395.549 65.1387 394.832C65.2108 394.956 65.3711 395.036 65.5555 394.94C73.9289 390.815 82.1821 383.651 85.6734 374.784C86.3588 373.02 86.5231 371.14 86.5391 369.275C88.5273 371.091 90.4152 373.028 92.6278 374.555C94.1911 375.642 95.8185 376.427 97.4979 376.932C96.3716 378.58 95.4136 380.344 94.3995 382.152C92.724 385.154 91.9624 388.201 93.4976 391.448C94.9927 394.611 97.522 397.145 100.536 398.893C102.769 400.184 105.194 400.248 107.507 399.606C108.785 400.649 110.425 401.074 112.726 400.781C115.143 400.452 117.227 399.398 119.263 398.079C119.672 397.814 120.085 397.558 120.49 397.309C127.821 402.513 138.655 398.744 143.934 392.27C146.969 388.542 147.694 384.425 147.514 379.767C147.458 378.376 147.297 376.84 146.933 375.341C151.723 378.243 157.495 380.324 162.85 379.045C166.297 378.227 169.411 376.271 172.642 374.888C175.091 373.854 177.6 373.22 180.182 372.799C178.302 376.479 177.6 380.705 179.1 384.136C180.555 387.492 184.134 389.632 186.956 391.725C189.425 393.557 192.095 393.621 194.676 392.795C195.001 393.18 195.329 393.549 195.674 393.898C198.071 396.487 201.326 395.95 204.472 395.197C205.49 396.732 207.018 397.826 209.375 398.131C212.257 398.508 215.247 397.991 218.097 397.578C221.792 397.049 225.504 396.844 229.212 396.62C235.874 396.243 242.551 395.814 249.025 394.114C254.873 392.587 259.595 389.6 263.367 384.882C263.467 384.758 263.491 384.609 263.459 384.489C264.068 383.892 264.677 383.282 265.215 382.641C267.351 380.139 267.876 376.864 269.091 373.902C271.776 367.363 274.386 360.809 275.728 353.846C276.342 350.663 276.919 347.46 277.28 344.228C277.576 341.571 277.664 338.299 276.109 335.974C275.063 334.423 273.444 334.198 271.768 334.539C274.245 331.785 277.428 329.736 279.677 326.774C282.11 323.567 284.491 320.308 286.92 317.089C287.581 316.187 288.283 315.321 288.988 314.451C289.794 313.829 290.607 313.184 291.381 312.511C295.762 308.73 297.983 303.859 299.959 298.548C301.971 293.232 304.015 288.137 304.777 282.468C305.518 276.832 305.286 271.083 304.504 265.439ZM63.7318 373.12C62.6014 375.97 60.7375 379.085 58.1962 380.889C55.8714 382.549 53.29 381.258 52.34 378.8C51.3901 376.339 51.827 372.855 54.2801 371.424C54.7932 371.12 55.3583 370.919 55.9235 370.771L55.9396 370.763L55.9636 370.747C56.2201 370.683 56.4687 370.63 56.7332 370.586C56.8494 370.57 56.9617 370.554 57.0779 370.538C59.05 370.31 61.1263 370.723 62.9982 371.276C63.4872 371.416 63.6436 371.833 63.5754 372.23C63.7799 372.471 63.848 372.843 63.7318 373.12ZM108.14 376.135C106.825 378.055 104.881 380.669 102.364 381.021C100.777 381.242 99.6665 380.264 99.8308 378.612C100.264 374.515 103.186 368.991 107.214 367.7C107.631 367.56 107.956 367.732 108.12 368.021C109.11 367.888 110.044 368.325 110.272 369.516C110.693 371.837 109.407 374.278 108.14 376.135ZM128.358 372.719C126.23 375.886 122.626 383.519 117.864 382.861C110.373 381.827 121.231 366.177 125.512 365.21C125.817 365.146 126.077 365.219 126.254 365.371C130.002 364.405 130.398 369.684 128.358 372.719ZM146.776 379.197C146.504 381.274 146.103 383.627 144.303 384.938C142.84 386.024 141.401 384.641 140.92 383.27C139.742 380.011 139.04 373.789 143.081 372.198C143.786 371.925 144.371 372.491 144.419 373.068C144.872 373.012 145.349 373.16 145.726 373.601C147.053 375.08 147.005 377.341 146.776 379.197Z" fill="#A19483"/>
<path opacity="0.3" d="M280.562 321.129C274.457 328.121 268.425 335.176 261.655 341.551C255.017 347.784 247.974 353.541 240.691 359.009C247.63 356.888 254.211 353.729 260.06 349.404C262.725 347.439 265.226 345.303 267.631 343.03C269.166 341.591 270.75 339.851 272.714 338.989C276.846 337.173 274.486 347.327 274.289 348.682C273.387 355.156 272.245 361.791 269.611 367.816C267.687 372.234 265.058 376.347 261.05 379.137C256.905 382.032 251.654 382.905 246.728 383.375C240.591 383.952 234.434 384.673 228.281 385.074C224.959 385.295 221.62 385.435 218.293 385.395C216.204 385.363 213.378 385.932 211.386 385.199C207.606 383.836 206.813 379.466 208.617 376.203C210.982 371.905 215.05 370.125 219.86 370.883C225.127 371.709 230.013 373.978 235.212 375.092C240.226 376.179 245.333 376.427 250.047 374.651C247.105 374.976 244.138 374.691 241.2 374.062C240.771 373.97 240.848 373.28 241.256 373.224C248.592 372.158 256.031 370.29 262.112 365.952C256.953 367.439 251.602 368.153 246.211 368.277C235.721 368.53 225.099 367.359 214.661 366.281C208.112 365.591 199.466 364.613 195.333 358.756C193.108 355.597 193.429 351.444 194.199 347.86C195.453 341.983 198.075 336.539 200.828 331.228C205.891 321.474 211.046 311.961 217.651 303.23C213.819 306.754 210.088 310.434 205.502 312.915C205.274 313.04 205.033 312.907 204.917 312.711C201.879 307.816 203.093 300.476 203.169 295.028C203.249 289.496 203.795 280.368 197.469 277.874C197.289 277.802 197.157 277.63 197.181 277.441C197.698 271.989 195.734 266.838 194.904 261.538C194.323 260.42 193.637 259.33 192.84 258.295C192.567 257.926 192.904 257.505 193.321 257.598C196.07 258.199 197.93 260.219 199.927 262.051C196.503 253.565 188.246 246.157 178.799 247.199C184.074 249.087 190.936 250.354 193.413 255.766C193.577 256.134 193.241 256.479 192.876 256.375C190.723 255.75 188.767 254.675 186.663 254.098C192.018 259.157 194.692 267.383 193.184 274.535C191.461 282.741 185.156 288.838 181.236 296.034C186.695 293.14 191.317 288.987 196.375 285.483C196.547 285.359 196.84 285.319 196.98 285.523C198.411 287.58 198.636 290.318 198.82 292.747C199.033 295.665 199.321 298.624 199.337 301.546C199.337 303.667 199.125 305.844 199.245 307.969C199.353 310.017 199.566 312.07 199.582 314.118C199.606 317.213 199.269 320.308 197.437 322.913C195.489 325.676 192.892 327.784 190.399 330.021C187.621 332.495 184.855 334.956 181.921 337.249C175.933 341.923 169.607 346.149 163.038 349.969C157.582 353.152 151.999 356.094 146.331 358.869C143.569 360.224 140.828 361.775 137.938 362.821C136.246 363.435 134.382 363.543 132.763 362.673C129.608 360.957 126.177 356.94 126.269 353.128C126.342 349.993 128.606 347.476 130.939 345.619C137.328 340.524 145.465 338.315 151.843 333.272C160.986 326.052 166.056 315.321 171.195 305.154C166.112 309.897 162.244 316.351 155.334 318.347C153.282 319.738 151.069 320.877 148.864 322.003C142.583 325.211 136.094 327.985 129.572 330.654C129.203 330.791 128.843 330.498 128.955 330.121C129.644 327.864 130.386 325.635 130.242 323.306C128.081 326.678 126.101 330.514 122.826 332.875C119.263 335.433 115.178 337.145 111.11 338.748C108.32 339.847 105.402 340.653 102.62 341.791C100.223 342.769 96.3872 344.112 95.5655 346.874C95.4733 347.163 95.1447 347.211 94.9082 347.087C91.3849 345.263 88.2022 342.873 84.711 341.009C81.0754 339.077 77.1312 337.862 73.4476 336.054C70.277 334.495 67.0903 332.739 64.4849 330.306C62.4808 328.434 61.4546 326.217 60.4205 323.84C58.1478 321.743 55.8109 319.49 54.4281 316.692C53.0612 313.918 52.3758 310.759 51.9268 307.664C51.2294 310.859 51.4017 314.242 49.8826 317.233C49.7984 317.389 49.5298 317.473 49.3735 317.397C44.3952 314.956 40.5191 310.931 36.5429 307.155C31.9613 302.793 27.0391 298.416 21.8443 294.804C17.5834 291.849 12.7373 288.983 12.1882 283.29C11.8595 279.698 13.7474 276.275 15.6875 273.152C13.519 275.445 11.5549 277.914 9.66697 280.472C9.46255 280.745 9.08575 280.701 8.91339 280.416C7.15774 277.526 5.71075 274.543 4.9171 271.316C4.83694 271.921 4.81688 272.523 4.88503 273.14C5.08143 274.808 5.91518 276.383 6.52445 277.934C7.29004 279.947 7.87123 282.039 8.61678 284.068C8.63282 284.152 8.62481 284.232 8.64886 284.321C8.6649 284.401 8.70498 284.437 8.75709 284.453C8.79717 284.569 8.83725 284.681 8.87333 284.782C8.97754 285.062 9.41042 285.034 9.41042 284.697C9.41042 284.345 9.37836 283.976 9.35431 283.627C9.77518 282.448 10.2482 281.402 10.8254 280.396C10.144 285.916 11.3745 291.364 15.1704 295.718C17.7678 298.696 20.9785 301.129 24.2373 303.318C25.1832 303.952 26.1493 304.545 27.1193 305.142C27.965 310.522 29.6605 315.81 31.4282 320.933C32.1056 322.938 32.8432 324.95 33.6408 326.938C32.5666 323.318 31.328 318.46 33.2921 315.357C36.0137 311.027 41.3929 315.942 43.8901 318.035C46.0667 319.851 48.5117 321.506 50.1592 323.843C51.9268 326.373 52.7966 329.412 54.3118 332.09C54.4481 331.26 54.5122 330.422 54.5723 329.592C54.6044 329.159 55.1976 329.039 55.3941 329.42C55.8029 330.21 56.2277 330.983 56.7007 331.713C56.833 330.887 56.8491 330.109 56.793 329.195C56.7529 328.666 57.5505 328.462 57.6467 329.031C58.9454 337.429 69.796 336.912 73.4115 343.731C77.1713 350.835 75.9368 359.358 78.4941 366.826C78.6103 367.211 78.1013 367.463 77.8207 367.267C75.091 365.403 71.9886 364.826 68.8099 364.168C66.9541 363.791 64.99 363.471 63.3786 362.392C61.3905 361.045 59.4264 359.706 57.4223 358.424C57.4784 358.504 57.5305 358.588 57.5946 358.676C58.4885 360.131 59.2701 361.675 60.0477 363.214C59.1498 364.228 58.6889 365.543 57.9955 366.718C57.7029 366.349 57.3742 366.028 57.0535 365.692C56.9814 365.944 56.6687 366.161 56.372 365.988C50.7804 362.909 47.0647 371.837 46.8523 376.034C46.724 378.776 46.5997 386.814 41.7497 385.311C39.9018 384.738 38.8476 381.967 38.3827 380.328C37.6451 377.754 37.3966 375.04 37.6091 372.378C37.8375 369.34 38.4789 366.281 39.5892 363.435C39.3367 363.403 39.0761 363.362 38.8196 363.346C37.4768 365.575 36.2703 367.917 36.0378 370.546C35.8494 372.587 36.1621 374.583 36.1941 376.636C36.2342 378.712 36.2182 383.575 32.8512 382.966C29.5603 382.368 28.2416 378.327 27.8047 375.425C27.5161 373.537 27.6564 371.645 28.0893 369.797C27.0712 373.084 27.1032 376.968 27.5121 380.127C28.0492 384.325 29.9491 388.626 33.749 390.819C36.1701 392.198 39.2004 391.605 41.898 390.382C42.391 390.727 42.9682 391.039 43.6737 391.276C45.1608 391.773 48.7562 392.731 51.3376 392.362C53.3017 394.118 55.9833 395.197 58.5085 395.537C60.7572 395.838 63.0019 395.561 65.1303 394.844C65.2024 394.968 65.3627 395.048 65.5471 394.952C73.9205 390.827 82.1737 383.663 85.665 374.796C86.3504 373.032 86.5147 371.152 86.5307 369.287C88.5189 371.103 90.4069 373.04 92.6195 374.567C94.1827 375.654 95.8101 376.439 97.4896 376.944C96.3632 378.592 95.4052 380.356 94.3911 382.164C92.7156 385.166 91.9541 388.213 93.4892 391.46C94.9844 394.623 97.5136 397.157 100.528 398.905C102.761 400.196 105.186 400.26 107.498 399.618C108.777 400.661 110.416 401.086 112.717 400.793C115.134 400.464 117.219 399.41 119.255 398.091C119.664 397.826 120.076 397.57 120.481 397.321C127.813 402.525 138.647 398.756 143.926 392.282C146.96 388.554 147.686 384.437 147.506 379.779C147.449 378.388 147.289 376.852 146.924 375.353C151.714 378.255 157.486 380.336 162.841 379.057C166.289 378.239 169.403 376.283 172.634 374.9C175.083 373.866 177.592 373.232 180.173 372.811C178.294 376.491 177.592 380.717 179.091 384.148C180.546 387.504 184.126 389.644 186.948 391.737C189.417 393.569 192.086 393.633 194.668 392.807C194.992 393.192 195.321 393.561 195.666 393.91C198.063 396.499 201.317 395.962 204.464 395.209C205.482 396.744 207.009 397.838 209.366 398.143C212.248 398.52 215.238 398.003 218.088 397.59C221.784 397.061 225.496 396.856 229.203 396.632C235.865 396.255 242.543 395.826 249.017 394.126C254.865 392.599 259.587 389.612 263.358 384.894C263.459 384.77 263.483 384.621 263.451 384.501C264.06 383.904 264.669 383.294 265.206 382.653C267.343 380.151 267.868 376.876 269.082 373.914C271.768 367.375 274.377 360.821 275.72 353.858C276.333 350.675 276.911 347.472 277.271 344.24C277.568 341.583 277.656 338.311 276.101 335.986C275.055 334.435 273.435 334.21 271.76 334.551C274.237 331.797 277.42 329.748 279.668 326.786C282.101 323.579 284.482 320.32 286.911 317.101C287.573 316.199 288.274 315.333 288.98 314.463C289.785 313.841 290.599 313.196 291.373 312.523C295.754 308.742 297.974 303.872 299.95 298.56C300.916 296.002 301.882 293.497 302.716 290.959C296.912 301.987 288.687 311.833 280.562 321.129ZM67.908 373.581C67.876 373.573 67.8279 373.549 67.7918 373.533C67.7357 373.549 67.6716 373.581 67.5914 373.573C60.6049 373.509 61.8274 381.182 58.6408 385.351C55.6586 389.268 52.3437 386.409 51.3456 382.517C50.3315 378.576 51.1252 372.086 55.6105 370.474C59.7792 368.975 64.4248 371.067 68.2006 372.763C68.7057 372.996 68.4171 373.818 67.908 373.581ZM106.44 381.951C105.354 384.132 103.919 387.315 101.41 388.201C99.4657 388.891 96.9965 388.366 96.3712 386.129C95.1807 381.903 98.5879 376.543 100.8 373.18C102.548 370.55 106.272 365.423 109.703 368.474C114.569 370.907 107.835 379.149 106.44 381.951ZM128.634 375.593C127.195 379.037 125.536 382.453 123.403 385.523C121.604 388.113 119.443 390.799 116.437 391.981C114.377 392.795 111.731 392.475 110.897 390.198C109.947 387.612 111.142 384.188 111.996 381.751C114.297 375.237 118.008 367.207 125.335 365.379C125.548 365.335 125.704 365.435 125.772 365.575C126.498 365.371 127.259 365.299 128.173 365.459C129.155 365.631 129.997 366.381 130.27 367.339C131.063 370.053 129.668 373.128 128.634 375.593ZM146.852 379.578C146.467 383.046 145.493 388.746 141.802 390.322C140.415 390.915 138.27 391.152 137.493 389.556C137.136 388.826 137.417 387.808 137.557 387.067C137.853 385.647 138.062 384.22 138.094 382.761C138.15 380.151 137.673 376.904 139.341 374.639C140.655 372.839 142.455 371.941 144.704 372.246C144.892 372.27 144.992 372.378 145.048 372.515C147.305 373.284 147.077 377.57 146.852 379.578ZM186.563 378.131C184.254 379.274 181.456 379.041 181.32 375.898C181.147 371.961 184.174 368.301 187.216 366.125C190.431 363.823 194.006 364.565 196.84 367.022C197.209 367.347 196.864 367.965 196.483 367.824C196.451 367.872 196.399 367.917 196.343 367.965C192.355 370.574 190.896 375.978 186.563 378.131ZM207.899 372.282C205.125 375.906 201.594 380.043 197.429 381.996C194.796 383.242 191.301 382.922 192.371 379.149C193.281 375.882 195.345 371.019 198.411 369.275C201.374 367.576 205.53 369.123 208.011 371.288C208.096 371.328 208.18 371.396 208.22 371.484C208.268 371.532 208.32 371.565 208.36 371.609C208.701 371.937 208.272 372.394 207.899 372.282Z" fill="#A19483"/>
<path opacity="0.3" d="M187.492 363.531C188.983 362.513 190.931 361.635 192.687 362.465C193.629 362.91 194.395 363.748 195.18 364.413C196.399 365.447 197.77 366.137 199.253 366.778C204.993 369.26 210.793 370.05 216.913 370.751C217.859 370.679 218.845 370.719 219.856 370.883C225.122 371.709 230.009 373.978 235.207 375.093C235.929 375.249 236.646 375.381 237.384 375.502C234.67 374.768 231.997 373.778 229.916 372.058C229.652 371.845 229.672 371.344 230.073 371.276C231.921 370.967 233.72 371.284 235.576 371.308C238.025 371.364 240.539 370.875 242.984 370.587C244.864 370.366 246.687 369.945 248.495 369.46C241.136 370.535 233.62 370.555 226.112 369.961C219.078 369.412 212.075 368.582 205.153 367.231C202.475 366.71 199.838 366.193 197.349 365.03C196.311 364.557 195.28 363.916 194.411 363.174C193.388 362.308 192.651 361.178 191.581 360.384C191.284 360.164 191.392 359.783 191.629 359.643C190.571 357.514 190.687 354.668 190.887 352.451C191.296 348.085 192.619 343.848 194.21 339.775C197.758 330.647 202.808 322.188 208.7 314.391C207.454 315.67 206.151 316.864 204.652 317.863C204.379 318.039 204.039 317.955 203.95 317.622C203.037 314.142 203.381 310.571 202.928 307.047C202.447 303.242 201.958 299.43 201.549 295.606C201.024 290.651 200.339 284.565 197.048 280.524C200.395 289.56 201.253 299.338 201.926 308.899C202.219 313.056 202.96 317.951 201.802 322.012C200.972 324.886 199.517 327.5 197.77 329.905C197.942 330.029 198.042 330.266 197.886 330.494C192.258 338.841 184.586 345.339 176.702 351.477C168.725 357.674 160.336 364.241 151.209 368.686C147.317 370.575 142.398 371.781 138.069 371.982C136.638 372.046 134.859 371.982 133.744 370.903C132.434 369.625 132.309 367.753 131.167 366.365C127.924 362.437 122.669 364.69 119.371 367.255C117.687 368.574 115.174 371.072 112.821 370.571C113.23 371.012 113.587 371.449 113.859 371.793C114.188 372.214 113.607 372.735 113.254 372.419C112.981 373.337 112.412 374.07 111.731 374.84C110.596 376.143 109.759 377.474 108.969 379.017C107.281 382.292 105.033 385.712 103.902 389.22C103.173 391.541 105.101 397.951 100.395 395.742C97.5292 394.395 93.3325 390.996 93.1681 387.576C92.9477 383.074 95.8016 380.044 98.5072 376.921C99.2648 375.534 100.095 374.259 100.808 373.176C102.271 370.955 105.161 366.987 108.075 367.608C109.434 367.576 110.885 368.626 112.059 369.769C114.352 367.271 115.803 364.052 117.094 360.97C118.308 358.055 120.036 354.784 119.343 351.549C118.966 349.769 118.232 348.185 117.527 346.522C117.262 345.904 116.99 345.183 117.246 344.485C118.176 341.9 120.665 340.316 122.682 338.616C122.95 338.372 123.431 338.592 123.399 338.973C123.275 340.148 123.03 341.298 122.834 342.453C124.962 340.132 127.968 338.717 130.662 337.157C135.015 334.608 139.42 332.262 143.962 330.049C148.471 327.833 153.401 326.097 157.41 322.994C160.372 320.693 162.488 317.831 164.176 314.631C160.877 318.712 156.692 321.96 151.866 324.389C147.521 326.59 143.052 328.39 138.807 330.827C134.197 333.469 129.724 336.319 125.066 338.889C124.942 338.953 124.814 338.953 124.714 338.897C124.461 338.881 124.217 338.656 124.317 338.344C124.814 336.856 125.431 335.441 125.636 333.91C122.858 336.267 120.513 339.374 117.15 340.893C113.17 342.701 108.869 343.828 104.756 345.287C102.72 346.005 100.287 346.554 98.4391 347.676C97.0923 348.466 95.9379 349.556 94.5871 350.338C92.7312 351.441 91.4486 351.364 90.3944 349.376C88.2419 345.295 83.2435 342.97 79.187 341.17C75.4152 339.494 71.5111 338.091 67.8274 336.243C64.4123 334.519 61.2057 332.479 58.933 329.32C57.9429 327.933 57.2254 326.393 56.6562 324.778C57.2214 327.512 58.5882 330.158 60.2878 332.27C62.8651 335.481 66.4406 337.37 69.9719 339.358C73.1705 341.158 76.4694 342.693 79.6961 344.429C81.7163 345.524 83.985 346.75 84.3298 349.224C84.5863 351.016 84.1975 352.824 84.458 354.628C84.8067 357.061 85.0954 359.51 85.4401 361.948C85.8089 364.593 86.1135 367.243 86.2498 369.909C86.2818 370.559 86.3299 371.296 86.3499 372.094C86.4742 371.164 86.5223 370.214 86.5303 369.276C88.5184 371.092 90.4064 373.028 92.619 374.555C94.1823 375.642 95.8096 376.428 97.4891 376.933C96.3628 378.58 95.4048 380.344 94.3906 382.152C92.7152 385.155 91.9536 388.201 93.4888 391.449C94.9839 394.612 97.5132 397.145 100.527 398.893C102.76 400.184 105.185 400.248 107.498 399.607C108.777 400.649 110.416 401.074 112.717 400.781C115.134 400.452 117.218 399.398 119.254 398.079C119.663 397.815 120.076 397.558 120.481 397.31C127.812 402.513 138.647 398.745 143.926 392.27C144.379 391.701 144.787 391.128 145.152 390.539C143.966 391.926 142.519 393.136 140.859 394.102C138.09 395.71 134.775 397.49 131.576 398.003C129.524 398.332 126.469 398.332 125.07 396.452C124.06 395.073 127.443 393.2 128.137 392.631C131.396 389.933 134.225 386.61 133.977 382.072C133.837 379.43 133.432 377.081 136.109 375.626C137.456 374.888 138.859 374.223 140.258 373.605C141.461 372.507 142.944 371.994 144.703 372.234C144.892 372.258 144.992 372.367 145.048 372.503C145.802 372.767 146.279 373.409 146.567 374.239C147.453 374.996 148.323 375.782 149.161 376.584C153.461 378.797 158.3 380.14 162.841 379.045C166.288 378.228 169.403 376.271 172.633 374.888C174.958 373.91 177.343 373.301 179.772 372.88C181.808 369.332 184.109 365.864 187.492 363.531ZM130.313 388.27C128.309 390.767 125.808 392.888 123.146 394.652C120.393 396.484 117.094 398.38 113.699 398.488C110.512 398.596 108.179 396.901 106.957 393.962C105.522 390.547 106.917 386.373 108.388 383.227C110.163 379.422 112.216 375.49 115.014 372.343C116.537 370.639 118.312 369.252 120.216 368.021C121.367 367.071 122.645 366.297 124.084 365.764C124.317 365.64 124.557 365.507 124.798 365.387C124.962 365.299 125.103 365.335 125.219 365.411C125.259 365.403 125.291 365.387 125.335 365.371C125.547 365.327 125.704 365.427 125.772 365.568C126.497 365.363 127.259 365.291 128.173 365.451C129.155 365.624 129.997 366.373 130.269 367.332C130.309 367.464 130.341 367.584 130.365 367.716C132.085 369.689 132.51 372.274 132.706 375.141C133.019 379.635 133.332 384.521 130.313 388.27Z" fill="#A19483"/>
<path opacity="0.3" d="M247.785 355.807C254.968 351.862 261.285 346.161 267.033 340.413C268.921 338.525 271.338 336.063 273.984 334.528C273.286 334.38 272.541 334.404 271.759 334.556C271.859 334.452 271.971 334.347 272.072 334.239C264.251 341.724 255.609 348.326 247.785 355.807Z" fill="#A19483"/>
<path opacity="0.3" d="M265.92 381.728C262.669 384.49 259.31 387.092 255.426 388.883C250.873 390.98 245.826 391.589 240.9 392.235C235.405 392.956 229.933 393.71 224.406 394.091C221.664 394.287 218.95 394.412 216.209 394.656C214.329 394.829 212.308 395.073 210.453 394.68C207.202 393.983 205.839 390.547 205.206 387.617C204.131 382.526 205.599 375.129 210.184 371.91C208.076 372.768 206.448 375.049 205.354 376.881C203.63 379.795 203.43 382.542 203.434 385.849C203.426 388.779 202.981 393.935 198.832 392.014C193.453 389.517 189.104 380.818 193.429 376.067C194.544 373.349 196.215 370.523 198.404 369.28C199.285 368.767 200.275 368.567 201.29 368.567C200.797 368.394 200.291 368.206 199.794 368.018C199.778 368.238 199.622 368.41 199.35 368.386C196.163 368.002 193.477 373.798 192.171 376.051C191.169 377.783 189.705 379.599 189.697 381.68C189.689 384.157 191.06 386.306 192.243 388.406C192.359 388.635 192.227 388.867 192.038 388.988C188.258 391.413 184.531 388.587 181.761 385.921C179.677 383.917 178.63 381.844 178.294 379.487C178.222 381.106 178.458 382.698 179.091 384.149C180.546 387.504 184.126 389.645 186.948 391.738C189.417 393.57 192.086 393.634 194.668 392.808C194.993 393.193 195.321 393.562 195.666 393.911C198.063 396.5 201.318 395.963 204.464 395.209C205.482 396.745 207.009 397.839 209.366 398.144C212.248 398.521 215.239 398.004 218.088 397.591C221.784 397.061 225.496 396.857 229.204 396.633C235.865 396.256 242.543 395.827 249.017 394.127C254.865 392.6 259.587 389.613 263.359 384.895C263.459 384.77 263.483 384.622 263.451 384.502C264.06 383.905 264.669 383.295 265.206 382.654C265.467 382.357 265.711 382.044 265.92 381.728Z" fill="#A19483"/>
<path opacity="0.3" d="M66.668 370.807C64.6478 370.162 62.6196 369.613 61.1486 368.001C61.0163 367.845 61.0163 367.625 61.1165 367.468C62.4232 365.464 65.1088 366.049 67.6982 367.183C64.3111 364.706 61.0323 362.072 57.9219 359.25C58.6714 360.537 59.3729 361.868 60.0503 363.211C59.2847 364.069 58.8318 365.151 58.2826 366.165C58.463 366.47 58.6594 366.767 58.8558 367.055C58.9119 367.079 58.964 367.095 59.0282 367.119C59.2647 367.228 59.3248 367.46 59.2727 367.657C60.0503 368.735 60.9401 369.685 62.0505 370.427C64.2029 370.98 66.3113 371.922 68.1952 372.764C68.4077 372.856 68.4678 373.048 68.4598 373.221C70.5962 373.822 72.8288 374.175 74.8931 374.115C72.2356 372.836 69.5059 371.721 66.668 370.807Z" fill="#A19483"/>
<path opacity="0.3" d="M68.8627 389.5C66.5218 390.939 63.8643 392.359 61.0183 392.162C58.3568 391.982 55.7634 390.963 53.4305 389.717C51.1538 388.514 50.6528 386.614 50.4604 384.124C50.2399 381.394 49.9233 378.275 50.4764 375.561C50.9574 373.313 52.2762 371.372 54.2643 370.166C56.4769 368.815 57.8958 369.408 60.0122 370.049C60.1124 370.065 60.2126 370.057 60.2968 370.081C59.5833 369.384 58.9581 368.626 58.3849 367.812C54.2002 366.269 50.6808 369.949 49.5385 373.81C48.1275 378.572 48.6887 383.984 48.825 388.875C48.825 389.055 48.6566 389.252 48.4762 389.276C42.584 389.977 39.5096 386.061 38.6799 381.282C38.5636 380.937 38.4674 380.617 38.3833 380.332C37.6457 377.758 37.3972 375.044 37.6097 372.382C37.7179 370.955 37.9223 369.516 38.2189 368.109C36.1146 374.595 36.4953 381.382 39.2491 387.985C39.3453 388.221 39.2771 388.442 39.0527 388.566C35.1085 390.987 31.3807 388.458 28.8555 385.074C29.8816 387.424 31.4729 389.504 33.7496 390.823C36.1707 392.202 39.201 391.609 41.8986 390.386C42.3916 390.731 42.9688 391.044 43.6743 391.28C45.1614 391.777 48.7568 392.735 51.3382 392.367C53.3023 394.122 55.9838 395.201 58.5091 395.541C60.7578 395.842 63.0025 395.566 65.1309 394.848C65.203 394.972 65.3633 395.052 65.5477 394.956C72.3378 391.601 79.0358 386.245 83.1884 379.602C78.6349 383.182 73.8049 386.433 68.8627 389.5Z" fill="#A19483"/>
<path d="M298.932 254.399C297.353 249.124 294.287 244.141 291.733 239.282C288.711 233.489 285.416 227.897 281.476 222.653C274.053 212.76 264.765 204.57 254.544 197.666C245.329 191.449 233.468 184.554 222.221 183.399C210.829 182.24 199.602 187.721 190.443 193.914C190.05 194.183 190.303 194.884 190.792 194.72C195.594 193.028 200.564 190.907 205.614 189.997C210.813 189.059 216.253 189.24 221.419 190.186C232.446 192.206 243.044 198.785 252.412 204.646C261.659 210.439 270.642 217.342 277.833 225.576C281.653 229.953 285.052 234.768 288.174 239.659C291.373 244.666 293.766 250.374 297.389 255.061C297.942 255.77 299.233 255.377 298.932 254.399Z" fill="#CCAB96"/>
<path d="M317.59 258.007C314.913 256.953 311.405 260.773 309.722 262.417C309.369 262.758 309.838 263.327 310.251 263.075C311.47 262.333 312.604 261.455 313.842 260.689C315.033 259.956 316.777 260.028 317.747 259.014C318.003 258.749 317.971 258.172 317.59 258.007Z" fill="#FFFDFA"/>
<path d="M332.98 268.643C329.104 261.535 320.129 260.092 313.287 263.263C313.022 263.387 313.155 263.872 313.451 263.836C320.546 262.87 326.478 265.676 332.242 269.413C332.731 269.729 333.22 269.096 332.98 268.643Z" fill="#FFFDFA"/>
<path d="M332.497 277.506C330.156 272.667 325.675 272.503 321.09 271.477C320.541 271.36 320.36 272.13 320.877 272.311C329.359 275.249 334.177 282.766 332.153 291.785C332.105 292.006 332.425 292.146 332.529 291.934C334.726 287.223 334.734 282.164 332.497 277.506Z" fill="#FFFDFA"/>
<path d="M261.184 276.865C251.351 283.483 242.284 292.006 234.464 300.886C226.179 310.319 218.042 320.216 212.831 331.71C212.619 332.171 213.192 332.64 213.565 332.251C230.299 314.516 242.849 293.265 261.793 277.635C262.234 277.278 261.641 276.548 261.184 276.865Z" fill="#CCAB96"/>
<path d="M180.406 240.789C173.993 235.064 167.323 236.055 160.557 240.657C160.252 240.861 160.449 241.322 160.797 241.238C167.475 239.643 172.987 239.546 179.424 242.132C180.25 242.457 181.164 241.479 180.406 240.789Z" fill="#FFFDFA"/>
<path d="M180.612 245.648C177.176 243.303 173.072 244.922 169.645 246.401C169.168 246.614 169.537 247.331 170.001 247.231C171.424 246.878 172.839 246.55 174.258 246.237C176.303 245.796 178.243 246.157 180.255 246.55C180.824 246.67 181.064 245.957 180.612 245.648Z" fill="#FFFDFA"/>
<path d="M177.167 251.794C177.267 251.81 177.375 251.818 177.483 251.834C177.475 251.866 177.467 251.898 177.451 251.926C178.237 252.279 178.99 252.668 179.704 253.097C180.77 253.586 181.676 254.299 182.466 255.149C186.238 258.581 188.314 263.584 187.897 269.958C187.849 270.74 187.781 271.549 187.701 272.359C188.895 269.248 189.508 265.981 189.284 262.846C189.023 259.266 187.436 255.835 184.891 253.698C186.246 254.075 187.608 254.436 188.971 254.66C189.36 254.724 189.749 254.223 189.376 253.923C184.326 249.822 179.243 248.27 172.922 250.455C174.425 250.784 175.84 251.225 177.167 251.794Z" fill="#FFFDFA"/>
<path d="M161.537 277.021C161.702 279.478 161.726 281.939 161.569 284.373C162.491 281.334 163.089 278.211 163.317 275.237C163.802 268.69 160.86 262.946 156.699 258.167C159.713 263.795 161.148 271.043 161.537 277.021Z" fill="#FFFDFA"/>
<path d="M145.6 288.984C146.975 286.586 147.949 284.005 148.162 281.287C148.591 275.658 146.182 270.551 142.406 266.61C143.869 269.645 144.951 272.776 145.56 276.039C145.376 276.063 145.188 276.163 145.027 276.356C142.735 279.002 139.327 280.685 135.84 280.998C135.515 281.03 135.515 281.503 135.848 281.503C139.66 281.595 142.883 280.284 145.881 278.068C146.242 280.858 146.274 283.736 145.921 286.747C145.833 287.492 145.725 288.23 145.6 288.984Z" fill="#FFFDFA"/>
<path d="M123.81 274.849C124.432 276.869 125.057 278.873 125.566 280.878C126.267 282.686 126.708 284.526 126.813 286.422C126.135 285.448 125.318 284.574 124.66 283.909C124.548 283.8 124.344 283.957 124.428 284.089C125.177 285.155 125.582 286.478 125.859 287.721C126.119 288.92 125.867 290.242 126.34 291.361C126.404 291.509 126.496 291.634 126.608 291.722C126.368 293.834 125.835 295.967 124.841 298.144C123.979 300.04 122.985 301.848 121.898 303.592C124.644 300.838 128.336 297.759 129.719 294.047C132.476 286.611 129.182 279.92 123.81 274.849Z" fill="#FFFDFA"/>
<path d="M113.912 305.339C110.397 309.636 105.803 312.98 102.452 317.454C102.124 317.895 102.569 318.604 103.102 318.259C108.012 315.064 111.431 310.651 114.405 305.692C114.57 305.403 114.137 305.066 113.912 305.339Z" fill="#FFFDFA"/>
<path d="M69.1213 299.326C66.107 295.614 63.7541 292.287 62.6718 287.56C61.7219 283.387 64.0267 278.929 64.0106 274.7C64.0106 273.81 62.5556 273.597 62.4273 274.511C61.8221 279.029 58.419 283.684 59.7858 288.362C61.1607 293.096 64.4636 297.161 68.3076 300.184C68.9008 300.661 69.5863 299.915 69.1213 299.326Z" fill="#FFFDFA"/>
<path d="M50.6593 276.243C46.7472 275.654 43.4804 275.497 40.1695 273.104C38.2816 271.757 36.6221 270.606 34.2411 270.574C32.4935 270.558 30.7499 272.37 29.4231 273.284C26.0682 275.577 26.6093 267.179 26.5011 265.996C26.5011 265.98 26.4931 265.964 26.485 265.948C27.6234 263.691 29.0384 261.539 30.0324 259.755C30.2208 259.426 29.7759 259.129 29.5113 259.37C26.4209 262.336 18.8291 270.823 23.086 275.233C23.2583 275.714 23.4708 276.179 23.7073 276.656C25.4629 279.991 28.9662 281.563 31.5115 284.14C31.8682 284.509 32.4695 284.016 32.1969 283.587C30.7419 281.282 29.3109 278.917 27.6354 276.756C27.5633 276.664 27.4951 276.568 27.431 276.475C27.904 276.548 28.4371 276.54 29.0544 276.443C30.0404 276.287 30.9423 275.293 31.6197 274.627C32.4053 273.85 33.0467 273.04 33.9485 272.354C35.5679 271.12 38.2294 273.461 39.3037 274.275C42.2779 276.483 47.0157 276.656 50.6112 276.632C50.8236 276.628 50.8798 276.283 50.6593 276.243Z" fill="#FFFDFA"/>
<path d="M26.3439 251.208C23.0811 252.968 19.7742 255.145 17.3732 257.999C14.8841 260.938 14.4712 265.572 13.405 269.132C13.2968 269.477 13.8299 269.689 13.9862 269.36C15.7339 265.752 16.9925 261.812 19.7622 258.793C22.0349 256.308 25.0372 254.6 26.885 251.725C27.1095 251.389 26.6566 251.044 26.3439 251.208Z" fill="#FFFDFA"/>
<path d="M105.467 289.143C102.08 288.919 99.6109 287.776 96.5365 286.397C95.346 285.864 94.8289 285.732 93.5623 286.052C92.3277 286.341 91.1493 287.419 90.1232 288.097C87.3174 289.929 85.4454 287.147 83.8662 285.383C82.4833 283.851 80.7757 283.511 79.1083 284.918C78.3547 285.563 75.116 288.951 75.3244 289.135C72.7871 286.822 71.777 283.326 70.7669 280.159C69.8891 277.425 66.1012 278.608 66.5622 281.334C67.0151 284.112 66.4299 287.083 66.963 289.945C67.5001 292.831 68.8108 295.333 70.8711 297.397C71.276 297.806 71.9654 297.241 71.6448 296.768C70.338 294.787 68.867 291.067 68.6866 287.688C70.0013 290.39 71.8813 292.755 74.635 293.757C79.1604 295.417 79.5532 283.483 82.9162 287.435C84.8562 289.74 87.3454 291.645 90.3276 289.937C90.8166 289.656 91.2495 289.159 91.6543 288.77C93.5022 286.922 95.9312 287.006 98.0396 288.714C99.9796 290.298 103.218 289.989 105.475 289.692C105.824 289.648 105.824 289.175 105.467 289.143Z" fill="#FFFDFA"/>
<path d="M124.165 284.104C124.109 283.884 123.853 283.84 123.688 283.988C123.015 284.629 122.434 285.331 121.8 286.008C121.676 286.141 121.596 286.273 121.548 286.409C121.524 286.325 121.492 286.237 121.476 286.137C121.115 284.898 120.446 283.246 119.251 282.597C118.201 282.012 116.97 282.26 116.145 283.082C114.148 285.07 111.383 286.269 108.857 287.512C107.956 287.945 108.773 289.235 109.647 288.839C110.87 288.273 112.06 287.68 113.251 287.083C114.509 286.457 116.056 286.189 117.163 285.347C117.892 284.786 118.726 288.959 119.455 289.648C120.413 290.57 122.077 290.306 122.891 289.316C124.277 287.644 124.791 286.233 124.165 284.104Z" fill="#FFFDFA"/>
<path opacity="0.3" d="M37.4217 237.402C41.6946 240.829 46.3322 243.804 51.2624 246.185C51.4669 246.293 51.6232 246.506 51.527 246.75C48.7131 254.347 61.0949 256.099 65.949 256.7C71.6488 257.39 77.4569 257.57 83.2048 257.326C88.6161 257.093 94.0514 256.7 99.4266 256.027C102.85 255.606 106.277 255.105 109.628 254.335C112.666 253.63 115.805 252.968 118.246 250.908C119.773 249.617 120.995 247.745 122.771 246.782C124.867 245.644 127.321 245.383 129.605 244.754C134.828 243.299 139.923 241.339 144.677 238.701C147.162 237.33 149.531 235.802 151.791 234.139C156.144 229.945 160.185 225.436 164.025 220.765C165.929 218.428 167.917 216.135 169.789 213.77C171.384 211.749 173.012 209.577 173.577 207.019C165.909 201.723 158.245 196.079 149.743 192.367C145.719 191.188 141.614 190.278 137.494 189.545C124.972 187.344 112.013 186.786 99.3224 186.955C87.5699 187.099 75.7414 188.803 65.2355 194.339C57.5235 198.392 50.3806 204.333 44.2318 210.479C38.6642 216.039 34.0226 222.389 30.5474 229.42C30.3349 229.633 30.1265 229.841 29.9141 230.062C32.5155 232.411 34.7 235.193 37.4217 237.402Z" fill="#A19483"/>
<path d="M177.717 127.44C192.772 113.369 201.386 93.2567 207.062 73.8219C210.954 60.4404 217.059 46.5579 216.838 32.3947C216.782 28.6905 216.205 24.313 213.988 21.2462C211.952 18.42 209.15 19.0293 206.849 20.7852C194.584 24.7379 182.555 29.2919 170.694 34.331C160.91 38.4881 151.101 42.6813 141.954 48.1454C133.036 53.4731 124.975 60.1678 119.071 68.7948C112.401 78.5563 108.994 90.3904 106.513 101.82C104.853 109.42 103.715 117.081 102.577 124.746C99.927 123.808 97.017 123.431 93.9907 123.479C93.0487 123.495 92.1188 123.543 91.1769 123.604C90.8883 118.059 90.2349 112.491 89.9182 106.971C89.4973 99.8872 89.1646 92.8037 88.9321 85.7081C88.7277 79.6788 88.2868 73.838 86.6955 67.9891C85.1483 62.3206 82.5629 56.9648 79.1839 52.1703C72.1453 42.1442 62.6736 33.3288 53.3422 25.4635C48.2556 21.1861 42.8724 17.2694 37.5814 13.2446C33.7534 10.3502 30.4867 6.9427 26.795 3.91203C24.0373 1.65506 20.4939 -0.449578 17.175 0.0835951H17.167C14.5495 0.163772 12.7658 1.29029 12.0724 3.85594C11.7036 5.21092 11.5393 6.64606 11.399 8.06919C8.46888 21.17 6.90162 34.4232 6.61302 47.8447C6.4607 54.8521 6.6932 61.8756 7.25837 68.8791C7.79148 75.3814 8.81359 81.8195 9.51905 88.2978C10.1444 94.0504 10.8899 99.8271 12.8941 105.295C14.7499 110.31 17.9245 114.56 21.9008 118.091C25.861 121.607 30.5067 124.265 35.1083 126.815C40.5315 129.825 45.9148 132.78 51.6547 135.129C55.5548 136.716 59.5471 138.019 63.5955 139.11C62.2928 140.889 61.0862 142.722 59.9318 144.554C56.4606 150.034 53.5707 155.814 50.7047 161.623C48.2717 160.084 45.2774 159.166 42.8163 158.625C36.8238 157.31 30.8354 158.705 25.5043 161.539C25.4482 161.563 25.4402 161.619 25.4482 161.655C25.1756 161.711 24.899 161.771 24.6265 161.848C24.4221 161.912 24.4621 162.24 24.6826 162.216C26.3501 162.02 27.9093 162.301 29.4245 162.83C28.1899 162.986 26.9713 163.175 25.7688 163.379C19.6722 164.405 13.4673 166.855 8.98997 171.256C8.89377 171.296 8.79758 171.329 8.69737 171.361C8.44484 171.461 8.44484 171.898 8.76951 171.866C10.7256 171.625 12.8299 171.769 14.9103 172.154C8.41276 176.392 2.45637 183.082 0.396085 190.567C-1.94478 199.057 6.63307 205.78 11.888 211.068C15.3472 214.552 18.622 218.28 22.3257 221.511C26.1536 224.834 30.3905 227.648 34.3747 230.759C38.1787 233.718 41.3813 237.358 45.2413 240.24C48.0271 242.317 51.0173 244.185 54.1639 245.732C53.9795 247.36 54.1719 248.931 55.3664 250.05C56.5569 251.172 58.553 251.577 60.0922 251.914C62.5694 252.455 65.0986 252.776 67.5998 253.181C71.1873 253.778 74.6906 254.88 77.7569 252.415C79.3923 251.096 80.6589 249.32 82.0218 247.733C82.7834 246.847 83.5971 245.977 84.4067 245.135C86.8318 247.813 89.6176 250.066 92.8483 251.79C97.0771 254.051 101.13 254.319 105.811 253.99C109.198 253.75 113.688 253.59 115.856 250.571C116.373 249.857 116.83 249.116 117.279 248.346C119.72 247.015 122.302 245.913 124.779 244.634C127.965 242.998 130.972 241.01 134.074 239.246C140.411 235.666 146.917 232.243 152.981 228.222C158.749 224.377 163.92 219.382 168.55 214.263C172.995 209.356 177.58 204.109 179.761 197.767C179.885 197.398 179.713 197.125 179.452 197.001C179.609 196.448 179.657 195.858 179.525 195.237C178.987 192.788 178.11 190.274 176.959 188.049C175.236 184.774 172.754 181.395 169.411 179.623C171.524 179.559 173.62 179.803 175.757 179.887C176.378 179.911 176.639 179.11 176.222 178.713C169.953 172.583 159.727 168.935 150.893 170.655C152.148 169.633 153.583 168.839 155.022 168.093C155.555 167.825 155.398 167.007 154.853 166.879C150.685 165.889 146.027 167.324 142.119 168.775C140.912 169.212 139.734 169.725 138.587 170.278C137.004 165.857 135.064 161.563 133.2 157.266C131.825 154.103 130.238 151.024 129.112 147.761C128.923 147.236 128.727 146.714 128.531 146.209C146.54 145.251 164.185 140.092 177.717 127.44Z" fill="#FDF5E8"/>
<path d="M177.717 127.44C192.772 113.369 201.386 93.2567 207.062 73.8219C210.954 60.4404 217.059 46.5579 216.838 32.3947C216.782 28.6905 216.205 24.313 213.988 21.2462C211.952 18.42 209.15 19.0293 206.849 20.7852C194.584 24.7379 182.555 29.2919 170.694 34.331C160.91 38.4881 151.101 42.6813 141.954 48.1454C133.036 53.4731 124.975 60.1678 119.071 68.7948C112.401 78.5563 108.994 90.3904 106.513 101.82C104.853 109.42 103.715 117.081 102.577 124.746C99.927 123.808 97.017 123.431 93.9907 123.479C93.0487 123.495 92.1188 123.543 91.1769 123.604C90.8883 118.059 90.2349 112.491 89.9182 106.971C89.4973 99.8872 89.1646 92.8037 88.9321 85.7081C88.7277 79.6788 88.2868 73.838 86.6955 67.9891C85.1483 62.3206 82.5629 56.9648 79.1839 52.1703C72.1453 42.1442 62.6736 33.3288 53.3422 25.4635C48.2556 21.1861 42.8724 17.2694 37.5814 13.2446C33.7534 10.3502 30.4867 6.9427 26.795 3.91203C24.0373 1.65506 20.4939 -0.449578 17.167 0.0835951C14.5495 0.163772 12.7658 1.29029 12.0724 3.85594C11.7036 5.21092 11.5393 6.64606 11.399 8.06919C8.46888 21.17 6.90162 34.4232 6.61302 47.8447C6.4607 54.8521 6.6932 61.8756 7.25837 68.8791C7.79148 75.3814 8.81359 81.8195 9.51905 88.2978C10.1444 94.0504 10.8899 99.8271 12.8941 105.295C14.7499 110.31 17.9245 114.56 21.9008 118.091C25.861 121.607 30.5067 124.265 35.1083 126.815C40.5315 129.825 45.9148 132.78 51.6547 135.129C55.5548 136.716 59.5471 138.019 63.5955 139.11C62.2928 140.889 61.0862 142.722 59.9318 144.554C56.4606 150.034 53.5707 155.814 50.7047 161.623C48.2717 160.084 45.2774 159.166 42.8163 158.625C36.8238 157.31 30.8354 158.705 25.5043 161.539C25.4482 161.563 25.4402 161.619 25.4482 161.655C25.1756 161.711 24.899 161.771 24.6265 161.848C24.4221 161.912 24.4621 162.24 24.6826 162.216C26.3501 162.02 27.9093 162.301 29.4245 162.83C28.1899 162.986 26.9713 163.175 25.7688 163.379C19.6722 164.405 13.4673 166.855 8.98997 171.256C8.89377 171.296 8.79758 171.329 8.69737 171.361C8.44484 171.461 8.44484 171.898 8.76951 171.866C10.7256 171.625 12.8299 171.769 14.9103 172.154C8.41276 176.392 2.45637 183.082 0.396085 190.567C-1.94478 199.057 6.63307 205.78 11.888 211.068C15.3472 214.552 18.622 218.28 22.3257 221.511C24.6906 223.564 27.2038 225.42 29.713 227.276C21.4879 220.3 18.157 210.623 20.4458 201.507C23.7206 188.442 48.0271 174.884 60.2084 172.182C65.1948 171.072 68.3334 170.13 73.3638 169.264C75.9372 168.819 78.8191 168.835 81.2361 167.765C83.8255 166.61 84.7074 164.045 85.1123 161.427C85.8778 156.644 85.8097 151.741 86.3308 146.931C86.7717 142.786 88.6075 140.092 93.1289 139.959C101.595 139.715 98.8047 151.385 98.2796 156.608C97.8387 161.05 96.7845 168.35 101.807 170.611C106.617 172.788 112.028 173.449 117.187 174.375C126.574 176.075 134.707 181.499 142.303 187.52C152.52 195.626 160.393 204.518 157.631 215.141C156.088 221.062 145.951 232.13 139.417 236.255C144.015 233.706 148.62 231.108 152.985 228.218C158.753 224.373 163.924 219.378 168.554 214.259C172.999 209.352 177.584 204.105 179.765 197.763C179.889 197.394 179.717 197.121 179.456 196.997C179.613 196.444 179.661 195.854 179.529 195.233C178.991 192.784 178.114 190.27 176.963 188.045C175.24 184.77 172.758 181.391 169.415 179.619C171.528 179.555 173.624 179.799 175.761 179.883C176.382 179.907 176.642 179.106 176.226 178.709C169.957 172.579 159.731 168.931 150.897 170.651C152.152 169.629 153.587 168.835 155.026 168.089C155.559 167.821 155.402 167.003 154.857 166.875C150.689 165.885 146.031 167.32 142.123 168.771C140.916 169.208 139.738 169.721 138.591 170.274C137.008 165.852 135.068 161.559 133.204 157.262C131.829 154.099 130.242 151.02 129.116 147.757C128.927 147.231 128.731 146.71 128.534 146.205C146.54 145.251 164.185 140.092 177.717 127.44Z" fill="#937A65"/>
<path opacity="0.5" d="M135.275 181.804C133.519 179.948 131.611 178.256 129.591 176.7C125.254 173.361 120.179 171.072 114.908 169.649C114.672 169.893 114.215 169.821 114.171 169.444L114.147 169.436C113.598 169.308 113.89 168.486 114.435 168.619C115.461 165.804 114.207 162.565 112.471 160.236C111.144 158.46 108.399 155.121 105.793 155.778C103.256 156.408 103.008 159.679 102.851 161.832C102.719 163.571 102.037 166.009 102.967 167.568C103.024 167.624 103.048 167.684 103.06 167.765C103.132 167.969 103.004 168.145 102.807 168.214C102.723 168.278 102.611 168.298 102.478 168.27C98.6825 167.348 94.6101 166.931 90.7019 167.055C87.1626 167.155 83.5631 167.801 80.0478 167.095C80.0238 167.087 80.0077 167.079 79.9757 167.063C79.7873 167.023 79.6149 166.883 79.639 166.63C79.8915 163.972 80.7292 161.354 80.6851 158.669C80.6611 157.101 80.2883 154.399 78.1679 154.343C76.6167 154.303 75.1977 155.161 74.0433 156.131C71.6704 158.115 69.7304 160.914 69.2574 164.028C69.0169 165.608 68.9487 166.835 67.2773 167.408C65.1609 168.13 62.9122 168.294 60.7758 168.951C57.1883 170.054 53.7852 171.324 50.4703 173.116C46.0651 175.494 40.6178 178.332 37.832 182.774C54.0337 172.395 74.2517 168.105 93.3555 169.557C98.7868 169.969 104.27 170.679 109.617 171.741C114.852 172.788 120.392 173.998 125.33 176.051C128.921 177.53 132.168 179.599 135.303 181.82L135.275 181.804Z" fill="#937A65"/>
<path opacity="0.3" d="M179.448 197.001C179.605 196.447 179.653 195.858 179.52 195.237C179.332 194.403 179.104 193.569 178.851 192.739C178.771 194.996 178.202 197.149 176.354 199.025C174.851 200.552 173.059 201.655 171.259 202.789C169.067 204.176 166.986 205.72 164.77 207.071C155.823 212.511 145.894 216.552 135.745 219.185C132.791 219.947 129.352 220.853 126.422 219.478C123.632 218.163 122.47 214.696 121.792 211.922C121.219 209.649 120.866 206.87 119.207 205.07C117.459 203.166 114.958 201.803 112.609 200.789C107.747 198.684 102.524 197.337 97.3335 196.347C90.4071 195.02 83.2883 194.383 76.2577 195.144C71.2112 195.702 65.8681 196.371 61.1422 198.263C58.6691 199.262 56.2441 200.544 54.3361 202.441C52.5965 204.172 51.4662 206.189 50.2116 208.273C48.4198 211.236 45.9627 214.515 42.0426 213.966C36.6033 213.22 31.4245 209.733 26.9031 206.834C24.3257 205.175 21.7965 203.443 19.1429 201.927C17.0907 200.749 15.0104 199.59 13.1064 198.187C9.64721 195.622 6.6209 192.23 6.23209 187.744C5.83928 183.29 7.95568 179.867 9.78749 176.139C5.45849 180.099 1.8951 185.118 0.399992 190.558C-1.94087 199.049 6.63694 205.772 11.8919 211.06C15.3511 214.543 18.6259 218.271 22.3296 221.503C26.1575 224.826 30.3943 227.64 34.3786 230.751C38.1825 233.709 41.3852 237.349 45.2452 240.232C48.031 242.308 51.0212 244.176 54.1678 245.724C53.9834 247.351 54.1757 248.923 55.3702 250.041C56.5607 251.164 58.5569 251.569 60.0961 251.906C62.5732 252.447 65.1025 252.767 67.6037 253.172C71.1911 253.77 74.6945 254.872 77.7608 252.407C79.3962 251.088 80.6628 249.312 82.0257 247.724C82.7873 246.838 83.601 245.968 84.4106 245.127C86.8357 247.804 89.6215 250.057 92.8522 251.781C97.081 254.042 101.133 254.311 105.815 253.982C109.202 253.741 113.691 253.581 115.86 250.562C116.377 249.849 116.834 249.107 117.283 248.338C119.724 247.007 122.305 245.904 124.783 244.625C127.969 242.99 130.975 241.002 134.078 239.238C140.415 235.658 146.921 232.234 152.985 228.213C158.753 224.369 163.924 219.374 168.554 214.255C172.999 209.348 177.584 204.1 179.765 197.758C179.881 197.397 179.713 197.125 179.448 197.001Z" fill="#A19483"/>
<path opacity="0.3" d="M133.372 238.22C130.414 239.415 127.227 240.714 124.373 238.637C121.988 236.913 120.181 234.548 118.06 232.552C118.814 234.139 119.343 235.867 118.982 237.595C118.489 239.932 116.906 241.772 115.254 243.427C111.266 247.456 107.218 249.336 101.542 249.613C97.4894 249.809 92.9038 249.096 90.4026 245.5C88.0016 242.02 87.6048 237.683 87.5326 233.57C87.5246 233.317 87.7772 233.149 87.9936 233.157C96.1145 233.69 104.412 231.457 110.352 225.664C115.896 220.26 118.758 213.005 119.451 205.4C119.371 205.3 119.295 205.179 119.198 205.079C117.451 203.175 114.95 201.812 112.601 200.798C107.739 198.693 102.516 197.346 97.325 196.356C90.3986 195.029 83.2798 194.392 76.2492 195.153C71.2027 195.71 65.8596 196.38 61.1338 198.272C58.6606 199.27 56.2356 200.553 54.3276 202.449C54.1152 202.662 53.9188 202.878 53.7143 203.107C53.3776 210.303 55.7666 217.258 60.9333 222.525C66.6973 228.378 74.4695 231.742 82.4902 233.057C82.7186 233.097 82.9151 233.277 82.899 233.526C82.3459 238.396 82.8148 241.876 78.6782 245.696C75.8002 248.338 73.4674 248.33 70.0844 248.118C66.3807 247.881 60.6648 248.659 58.0634 245.324C56.1755 242.91 56.1073 239.202 56.3077 235.907C55.7706 237.178 55.0531 238.36 53.9548 238.845C51.5057 239.924 48.1147 238.601 45.7498 237.919C43.9941 237.422 42.2666 236.841 40.543 236.236C42.0621 237.635 43.5813 239.01 45.2327 240.24C48.0185 242.317 51.0087 244.185 54.1553 245.733C53.9709 247.36 54.1633 248.932 55.3578 250.05C56.5482 251.173 58.5444 251.577 60.0836 251.914C62.5607 252.455 65.09 252.776 67.5912 253.181C71.1787 253.778 74.6819 254.881 77.7483 252.415C79.3837 251.096 80.6503 249.32 82.0132 247.733C82.7747 246.847 83.5884 245.977 84.3981 245.135C86.8232 247.813 89.609 250.066 92.8397 251.79C97.0685 254.051 101.121 254.319 105.803 253.991C109.19 253.75 113.679 253.59 115.848 250.571C116.365 249.858 116.822 249.116 117.27 248.346C119.712 247.015 122.293 245.913 124.77 244.634C127.957 242.998 130.963 241.01 134.065 239.246C137.036 237.571 140.042 235.923 143.024 234.231C139.837 235.662 136.615 236.909 133.372 238.22Z" fill="#A19483"/>
<path opacity="0.5" d="M216.841 32.3949C216.817 30.4827 216.645 28.4102 216.192 26.4058C215.546 25.6842 214.813 25.0828 213.899 24.7221C209.35 22.9542 204.856 25.4476 200.539 26.7425C187.672 30.619 175.179 35.9107 163.59 42.7177C153.333 48.7269 142.266 53.5014 134.105 62.4771C130.181 66.8067 126.533 71.5812 124.329 77.0412C122.212 82.3208 121.07 87.9452 120.673 93.6137C119.94 104.197 120.34 116.043 114.039 125.171C113.907 125.36 113.623 125.424 113.438 125.271C110.143 122.854 109.494 118.348 109.253 114.548C108.953 109.517 109.538 104.429 110.243 99.4505C110.969 94.2631 111.747 89.228 113.382 84.237C114.857 79.7632 116.729 75.2372 117.899 70.603C112.003 79.9997 108.857 91.0921 106.524 101.82C104.864 109.42 103.726 117.081 102.588 124.746C99.9381 123.808 97.028 123.431 94.0017 123.479C93.0597 123.495 92.1298 123.544 91.1879 123.604C90.8993 118.06 90.2459 112.491 89.9293 106.971C89.5084 99.8874 89.1757 92.8039 88.9432 85.7083C88.7388 79.679 88.2979 73.8382 86.7066 67.9893C86.6665 67.841 86.6144 67.6926 86.5743 67.5363C86.5743 72.9722 86.3779 78.4002 86.1775 83.776C85.9129 90.5709 85.7085 97.2417 86.1053 104.025C86.414 109.272 87.0352 115.762 83.9207 120.369C83.7564 120.609 83.4277 120.609 83.2313 120.409C78.8502 115.73 77.9924 108.286 77.4072 102.185C77.0505 98.4323 76.8701 94.668 76.6777 90.9037C76.5294 87.7728 76.5534 84.4695 75.9322 81.3827C73.7556 70.4988 69.8716 60.0478 64.0475 50.5629C58.2795 41.1502 51.0284 32.7677 43.3324 24.8824C37.6325 19.0255 33.0069 12.1544 26.7659 6.81863C24.0603 4.49752 20.7054 1.89979 16.9936 1.67529C15.2701 1.56705 13.783 2.01204 12.4803 2.77372C12.3159 3.10645 12.1716 3.45924 12.0714 3.85612C11.7026 5.2111 11.5383 6.64624 11.398 8.06937C8.4679 21.1702 6.90064 34.4234 6.61204 47.8449C6.45972 54.8523 6.69222 61.8758 7.25739 68.8792C7.7905 75.3816 8.81261 81.8197 9.51807 88.298C10.1434 94.0506 10.8889 99.8273 12.8931 105.295C14.749 110.31 17.9236 114.56 21.8998 118.092C25.8601 121.607 30.5057 124.265 35.1073 126.815C40.5306 129.825 45.9138 132.78 51.6537 135.129C55.5538 136.717 59.5461 138.019 63.5945 139.11C62.2918 140.89 61.0853 142.722 59.9309 144.554C56.4597 150.034 53.5697 155.815 50.7037 161.623C48.2707 160.084 45.2764 159.166 42.8153 158.625C41.5286 158.348 40.242 158.192 38.9633 158.152C43.0999 159.398 47.5572 161.074 51.1166 163.431C51.5014 161.716 52.5796 160.052 53.4895 158.633C55.0648 156.155 56.8084 153.802 58.3997 151.321C61.8549 145.917 64.6767 140.365 68.9937 135.538C73.0622 130.992 78.2691 127.212 84.2134 125.584C87.2998 124.746 90.2619 124.49 93.2001 124.646C93.3003 124.574 93.4286 124.53 93.5849 124.558C93.8775 124.638 94.1901 124.69 94.4947 124.738C95.128 124.802 95.7574 124.87 96.3987 124.975C98.6835 125.139 101 125.059 103.273 125.704C106.131 126.486 108.849 127.689 111.37 129.244C116.156 132.166 120.04 136.095 123.154 140.729C126.189 145.219 128.389 150.234 130.441 155.213C131.46 157.679 132.578 160.128 133.416 162.658C134.037 164.57 134.59 166.518 135.372 168.382C136.422 169.709 137.031 171.393 137.36 173.065C138.779 171.393 140.474 169.958 142.306 168.703C142.242 168.727 142.174 168.751 142.11 168.783C140.903 169.22 139.725 169.733 138.578 170.286C136.995 165.865 135.055 161.571 133.191 157.274C131.816 154.111 130.229 151.032 129.103 147.769C128.914 147.244 128.718 146.723 128.521 146.217C146.527 145.255 164.172 140.096 177.704 127.44C192.759 113.369 201.373 93.2569 207.049 73.8221C210.953 60.4406 217.062 46.5581 216.841 32.3949Z" fill="#937A65"/>
<path opacity="0.7" d="M117.276 248.346C117.441 248.253 117.597 248.173 117.761 248.093C118.334 247.199 118.9 246.301 119.445 245.395C120.483 243.679 122.744 241.062 122.202 238.941C121.637 236.82 120.238 235.032 118.847 233.373C118.595 233.06 118.35 232.755 118.094 232.439C119.032 234.535 119.99 236.624 120.928 238.716C121.882 240.805 119.08 243.431 117.954 244.91C116.37 246.963 114.33 249.929 111.705 250.695C108.855 251.533 105.564 251.332 102.622 251.284C99.2307 251.22 96.0561 250.927 93.0859 249.171C91.0256 247.961 88.0915 246.409 86.5764 244.533C85.1093 242.717 85.7346 239.554 85.6785 237.377C85.5943 233.982 85.6224 230.595 85.7587 227.207C85.2176 227.215 84.6765 227.207 84.1634 227.127C83.8507 231.012 84.1714 234.864 83.9589 238.732C83.8507 240.917 84.3638 242.084 83.0891 243.675C81.8345 245.247 79.7462 247.828 78.1509 248.995C76.5756 250.138 76.6237 250.262 74.387 251.332C72.9881 251.994 70.0019 251.657 68.4988 251.557C65.7771 251.372 62.354 250.963 59.8608 249.556C59.1193 249.284 58.4459 248.903 57.8887 248.322C56.2453 246.646 56.578 244.321 56.7584 242.152C57.0109 239.097 57.3597 236.055 57.7284 233.008C56.8987 235.241 56.073 237.47 55.4276 239.755C54.8945 241.579 54.3734 243.439 54.2251 245.343C54.193 245.74 54.161 246.133 54.1089 246.534C54.0688 247.873 54.3734 249.123 55.3635 250.057C56.5539 251.18 58.5501 251.585 60.0893 251.922C62.5664 252.463 65.0957 252.783 67.5969 253.188C71.1844 253.786 74.6877 254.888 77.7541 252.423C79.3895 251.104 80.6561 249.328 82.0189 247.74C82.7805 246.854 83.5942 245.984 84.4039 245.143C86.8289 247.82 89.6147 250.073 92.8454 251.797C97.0742 254.058 101.127 254.327 105.808 253.998C109.195 253.757 113.685 253.597 115.853 250.578C116.37 249.857 116.827 249.115 117.276 248.346Z" fill="#A19483"/>
<path d="M212.116 31.0437C211.784 28.5742 209.591 28.8949 207.799 29.6446C196.315 33.6213 185.136 38.4078 174.125 43.5672C164.606 48.033 155.242 53.1884 147.033 59.811C139.068 66.2211 132.182 74.0743 128.514 83.7597C124.161 95.3251 124.045 107.869 123.833 120.068C123.777 123.491 123.841 126.911 123.809 130.326C123.801 130.763 124.37 130.771 124.502 130.418C125.649 131.809 127.977 131.886 129.649 131.853C133.328 131.773 137.032 130.895 140.592 130.021C148.909 127.985 157.407 125.672 164.986 121.587C175.416 115.983 182.39 106.414 188.323 96.4396C191.602 90.9275 195.133 85.4714 198.155 79.819C201.145 74.1986 203.246 68.1213 204.997 62.0238C206.084 58.2796 206.954 54.5153 208.04 50.771C208.906 47.7724 209.699 44.7258 210.236 41.643C210.501 40.7771 210.778 39.9031 211.002 39.0292C211.695 36.5277 212.457 33.6494 212.116 31.0437Z" fill="#E09D8D"/>
<path opacity="0.4" d="M212.116 31.0437C211.784 28.5742 209.591 28.8949 207.799 29.6446C196.315 33.6213 185.136 38.4078 174.125 43.5672C164.606 48.033 155.242 53.1884 147.033 59.811C139.068 66.2211 132.182 74.0743 128.514 83.7597C124.161 95.3251 124.045 107.869 123.833 120.068C123.777 123.491 123.841 126.911 123.809 130.326C123.801 130.763 124.37 130.771 124.502 130.418C125.649 131.809 127.977 131.886 129.649 131.853C133.328 131.773 137.032 130.895 140.592 130.021C148.909 127.985 157.407 125.672 164.986 121.587C175.416 115.983 182.39 106.414 188.323 96.4396C191.602 90.9275 195.133 85.4714 198.155 79.819C201.145 74.1986 203.246 68.1213 204.997 62.0238C206.084 58.2796 206.954 54.5153 208.04 50.771C208.906 47.7724 209.699 44.7258 210.236 41.643C210.501 40.7771 210.778 39.9031 211.002 39.0292C211.695 36.5277 212.457 33.6494 212.116 31.0437ZM200.568 57.2012C198.171 63.8719 195.129 70.262 192.143 76.6761C187.734 86.1489 183.97 97.4418 174.723 103.415C169.179 106.995 160.084 107.492 156.469 100.873C153.178 94.8521 154.769 86.9226 156.585 80.6849C162.253 61.2822 179.168 48.0651 197.049 40.0996C198.953 38.6083 201.033 37.3816 203.563 37.4136C203.743 37.4217 203.943 37.5861 203.959 37.7665C204.529 44.377 202.781 51.0196 200.568 57.2012Z" fill="#E09D8D"/>
<path d="M69.3686 106.795C69.1802 102.926 68.9117 99.0655 68.6832 95.205C68.591 93.5213 68.6351 91.8657 68.3866 90.198C68.3385 89.9415 68.2944 89.6689 68.2463 89.4123C68.2222 87.2596 68.1822 85.1229 68.1381 82.9622C67.8415 72.7396 65.4404 63.1385 60.426 54.1788C55.127 44.73 48.4892 36.1872 41.5267 27.925C34.4881 19.5826 26.3151 12.3226 18.6672 4.55752C18.5029 4.38514 18.1942 4.62969 18.3345 4.82612C18.559 5.16286 18.7995 5.48358 19.036 5.8123C17.4527 6.82252 16.9476 8.43809 16.6109 10.2461C16.0738 13.3289 15.8133 16.4838 15.5768 19.6027C15.0437 26.59 14.5627 33.5734 13.9734 40.5688C12.8631 53.6656 12.791 66.7184 14.7952 79.731C15.689 85.5478 17.2683 91.2483 19.9338 96.5199C22.4992 101.595 26.4594 105.901 30.8606 109.464C35.398 113.12 40.6168 115.682 45.7435 118.364C51.4193 121.311 57.1953 124.089 63.4603 125.548C64.0936 125.704 64.8071 125.768 65.4685 125.84C65.7732 125.881 66.0137 125.756 66.186 125.572C66.1059 125.905 66.0216 126.249 65.9294 126.59C65.8012 127.147 66.5708 127.452 66.8474 126.959C70.0781 121.106 69.6612 113.213 69.3686 106.795Z" fill="#E09D8D"/>
<path opacity="0.4" d="M69.3686 106.795C69.1802 102.926 68.9117 99.0655 68.6832 95.205C68.591 93.5213 68.6351 91.8657 68.3866 90.198C68.3385 89.9415 68.2944 89.6689 68.2463 89.4123C68.2222 87.2596 68.1822 85.1229 68.1381 82.9622C67.8415 72.7396 65.4404 63.1385 60.426 54.1788C55.127 44.73 48.4892 36.1872 41.5267 27.925C34.4881 19.5826 26.3151 12.3226 18.6672 4.55752C18.5029 4.38514 18.1942 4.62969 18.3345 4.82612C18.559 5.16286 18.7995 5.48358 19.036 5.8123C17.4527 6.82252 16.9476 8.43809 16.6109 10.2461C16.0738 13.3289 15.8133 16.4838 15.5768 19.6027C15.0437 26.59 14.5627 33.5734 13.9734 40.5688C12.8631 53.6656 12.791 66.7184 14.7952 79.731C15.689 85.5478 17.2683 91.2483 19.9338 96.5199C22.4992 101.595 26.4594 105.901 30.8606 109.464C35.398 113.12 40.6168 115.682 45.7435 118.364C51.4193 121.311 57.1953 124.089 63.4603 125.548C64.0936 125.704 64.8071 125.768 65.4685 125.84C65.7732 125.881 66.0137 125.756 66.186 125.572C66.1059 125.905 66.0216 126.249 65.9294 126.59C65.8012 127.147 66.5708 127.452 66.8474 126.959C70.0781 121.106 69.6612 113.213 69.3686 106.795ZM49.4271 80.3644C44.8897 87.9371 35.6425 86.7665 29.4136 81.8717C25.8141 79.0295 22.6515 75.3895 20.6433 71.2283C18.0619 65.8605 17.3725 59.5867 16.9156 53.6977C15.9455 40.5368 16.3303 27.5682 17.2442 14.4273C16.5708 10.9677 19.8857 12.4068 21.5813 13.5974C25.0805 16.0188 28.3233 19.0535 31.2213 22.1884C36.6726 28.0773 42.0759 34.0665 46.9219 40.4606C48.9983 43.1986 50.9624 46.0088 52.1569 49.2479C53.2631 52.2345 53.3273 55.3093 53.2271 58.4482C52.9705 65.6079 53.2471 73.9944 49.4271 80.3644Z" fill="#E09D8D"/>
<path opacity="0.4" d="M136.535 130.414C133.317 127.813 132.707 122.874 132.395 119.061C131.417 107.203 131.589 94.1385 135.882 82.8897C139.79 72.6592 147.326 64.0603 155.691 57.1691C162.024 51.9256 169.881 48.3256 175.921 42.7373C175.328 43.0059 174.723 43.2906 174.121 43.5712C164.602 48.037 155.238 53.1924 147.029 59.8149C139.064 66.225 132.178 74.0783 128.511 83.7636C124.157 95.3291 124.041 107.873 123.829 120.072C123.773 123.495 123.837 126.915 123.805 130.33C123.797 130.767 124.366 130.775 124.498 130.422C125.645 131.813 127.973 131.89 129.645 131.857C132.138 131.793 134.655 131.376 137.136 130.843C136.928 130.699 136.724 130.563 136.535 130.414Z" fill="#E09D8D"/>
<path opacity="0.4" d="M69.3688 106.794C69.1805 102.926 68.9119 99.0652 68.6835 95.2047C68.5913 93.521 68.6353 91.8654 68.3868 90.1977C68.3387 89.9412 68.2946 89.6686 68.2465 89.412C68.2225 87.2593 68.1824 85.1226 68.1383 82.9618C67.8417 72.7393 65.4407 63.1382 60.4262 54.1784C59.34 52.2342 58.1616 50.3139 56.9511 48.4258C59.1757 53.3085 60.8792 58.4358 62.1739 63.5751C63.4205 68.4659 64.3585 73.4529 64.7353 78.492C65.1882 84.6736 65.9658 90.8832 66.0179 97.1009C66.082 102.769 65.6051 108.755 64.0699 114.239C62.9596 118.195 60.8071 120.769 57.0553 122.441C56.5943 122.649 56.1253 122.846 55.6523 123.026C58.1856 124.048 60.771 124.922 63.4566 125.548C64.0899 125.704 64.8034 125.768 65.4647 125.84C65.7694 125.88 66.0099 125.756 66.1822 125.572C66.1021 125.904 66.0179 126.249 65.9257 126.59C65.7974 127.147 66.5671 127.452 66.8436 126.959C70.0784 121.106 69.6615 113.212 69.3688 106.794Z" fill="#E09D8D"/>
<path d="M119.148 204.298C114.731 198.164 106.975 194.612 99.8758 192.66C92.0555 190.523 83.2893 190.327 75.3448 191.898C70.639 192.82 65.8891 194.107 61.4879 196.003C58.7382 197.182 53.0625 199.631 53.6517 203.476C52.8701 209.244 56.7661 214.977 60.5741 219.062C66.0454 224.943 72.9558 228.799 80.8402 230.347C89.6585 232.079 98.8657 230.347 106.437 225.504C111.957 221.973 117.561 216.083 118.591 209.385C119.384 207.408 120.158 204.815 119.148 204.298Z" fill="#E09D8D"/>
<path opacity="0.4" d="M112.714 209.99C107.876 211.698 102.437 212.034 97.3785 212.347C90.384 212.784 83.3013 212.716 76.3428 211.902C69.8693 211.16 55.7199 209.16 54.0885 201.15C53.7077 201.86 53.5113 202.622 53.6556 203.475C52.874 209.244 56.7701 214.977 60.578 219.062C66.0494 224.943 72.9598 228.799 80.8442 230.347C89.6625 232.078 98.8696 230.347 106.441 225.504C111.961 221.972 117.564 216.083 118.595 209.384C119.232 207.797 119.857 205.805 119.553 204.814C117.621 206.983 115.572 208.988 112.714 209.99Z" fill="#E09D8D"/>
<path d="M77.7164 164.906C78.3096 160.4 78.4619 157.201 76.3294 157.883C74.2171 158.564 71.3711 165.572 72.2971 167.596C73.239 169.616 74.5899 169.568 75.7803 169.179C76.9868 168.767 77.5119 166.425 77.7164 164.906Z" fill="#1A1300"/>
<path d="M75.2074 159.126C74.045 160.465 74.0851 161.672 74.4819 162.221C74.8948 162.774 75.6804 161.916 76.1414 160.417C76.6304 158.918 76.7827 157.318 75.2074 159.126Z" fill="white"/>
<path opacity="0.5" d="M80.4979 146.839C80.4979 146.839 79.0629 140.477 76.0887 140.805C73.1346 141.13 71.2386 148.739 71.2306 149.613C71.2146 150.471 71.1385 153.497 72.1285 151.822C73.1106 150.162 76.8543 148.198 78.4376 150.326C80.0249 152.451 82.4299 153.177 80.4979 146.839Z" fill="#937A65"/>
<path opacity="0.8" d="M80.4999 146.839C80.4999 146.839 79.0648 140.477 76.0907 140.805C73.1365 141.13 72.2707 146.293 72.2627 147.163C72.2547 148.033 71.3889 148.47 73.0885 147.548C75.5736 146.209 76.4595 146.161 77.8223 146.911C80.1391 148.198 81.0129 148.771 80.4999 146.839Z" fill="#937A65"/>
<path d="M104.032 166.378C104.096 161.836 104.417 158.633 106.413 159.627C108.409 160.605 110.217 167.945 109.002 169.817C107.78 171.681 106.457 171.445 105.327 170.88C104.197 170.299 104.016 167.917 104.032 166.378Z" fill="#1A1300"/>
<path d="M105.086 161.062C104.641 162.777 105.202 163.836 105.807 164.156C106.417 164.465 106.745 163.363 106.513 161.811C106.26 160.244 105.707 158.745 105.086 161.062Z" fill="white"/>
<path opacity="0.5" d="M103.883 148.101C103.883 148.101 106.224 142.004 109.118 142.761C111.996 143.515 112.778 151.312 112.662 152.174C112.545 153.028 112.193 156.035 111.439 154.243C110.709 152.447 107.302 149.977 105.414 151.845C103.543 153.726 101.061 154.094 103.883 148.101Z" fill="#937A65"/>
<path opacity="0.8" d="M103.883 148.101C103.883 148.101 106.224 142.004 109.118 142.761C111.996 143.515 112.104 148.747 111.988 149.605C111.872 150.47 112.67 151.016 111.114 149.861C108.842 148.169 107.98 148.005 106.529 148.554C104.04 149.488 103.098 149.941 103.883 148.101Z" fill="#937A65"/>
<path d="M128.061 176.712C114.168 171.224 99.0447 168.751 84.1618 168.703C69.9603 168.663 56.2157 171.292 44.1345 179.097C43.878 179.262 44.1105 179.635 44.3791 179.494C50.2954 176.416 56.396 173.89 62.8855 172.25C69.876 170.486 76.9828 170.066 84.1738 170.058C99.1409 170.033 113.515 173.373 127.937 177.053C128.129 177.109 128.269 176.792 128.061 176.712Z" fill="#C5C2B6"/>
<path d="M84.3984 245.135C83.5887 245.981 82.779 246.851 82.0135 247.733C80.6466 249.316 79.384 251.096 77.7486 252.415C76.8427 253.132 75.9088 253.541 74.9428 253.762C74.7664 255.726 74.578 257.811 75.5561 259.571C77.4199 262.89 82.3662 261.527 85.184 260.922C85.3404 260.89 85.3644 260.725 85.3083 260.609C85.4326 260.545 85.5648 260.497 85.6771 260.425C85.7091 260.4 85.7252 260.36 85.7492 260.34C87.4327 262.605 92.1345 260.93 94.2309 260.457C96.1028 260.036 96.7401 258.436 97.0928 256.696C97.3053 255.662 97.4455 254.612 97.5377 253.557C95.9625 253.201 94.4153 252.635 92.84 251.789C89.6093 250.07 86.8235 247.813 84.3984 245.135Z" fill="white"/>
<g opacity="0.3">
<path d="M75.1472 257.554C75.055 256.271 76.7185 255.153 77.5602 254.515C78.8108 253.577 80.5705 252.074 82.266 252.198C83.6048 252.282 84.1379 252.984 84.8434 253.874C87.2684 248.462 91.9702 256.159 95.8382 255.51C96.0827 255.469 96.2791 255.61 96.3432 255.846C96.5156 256.496 96.6719 257.149 96.8042 257.811C96.9205 257.45 97.0167 257.077 97.0928 256.7C97.3053 255.666 97.4455 254.616 97.5377 253.561C95.9625 253.204 94.4153 252.639 92.84 251.793C89.6053 250.07 86.8194 247.817 84.3984 245.139C83.5887 245.985 82.779 246.854 82.0135 247.736C80.6466 249.32 79.384 251.1 77.7486 252.419C76.8427 253.136 75.9088 253.545 74.9428 253.766C74.7664 255.73 74.578 257.815 75.5561 259.574C75.6883 259.811 75.8366 260.003 75.9929 260.192C75.5079 259.346 75.2073 258.352 75.1472 257.554Z" fill="#A19483"/>
</g>
<path d="M96.0546 253.337C95.9303 254.912 95.9143 257.763 94.5234 258.817C94.0825 259.15 92.9722 259.11 92.383 259.222C91.6494 259.354 91.0081 259.795 90.2625 259.935C88.9598 260.196 86.5749 260.008 85.6329 258.929C85.5247 256.183 85.3804 253.453 85.4766 250.695C85.5247 249.288 85.6169 247.885 85.7211 246.498C85.2842 246.061 84.8513 245.624 84.4505 245.167C84.0416 249.937 83.7971 254.957 85.0357 259.47C84.4985 259.563 83.9935 259.855 83.4845 260.08C82.8391 260.368 82.2018 260.569 81.5525 260.665C79.3278 260.617 77.0791 260.128 76.2975 258.22C75.7564 256.877 75.8686 255.069 76.0249 253.437C75.6722 253.577 75.3155 253.69 74.9467 253.766C74.7703 255.73 74.5819 257.815 75.56 259.575C77.4238 262.894 82.3702 261.531 85.188 260.926C85.3443 260.894 85.3684 260.729 85.3122 260.613C85.4365 260.549 85.5688 260.501 85.681 260.428C85.7131 260.404 85.7291 260.364 85.7532 260.344C87.4367 262.609 92.1385 260.934 94.2348 260.461C96.1067 260.04 96.744 258.44 97.0967 256.7C97.3092 255.666 97.4495 254.616 97.5417 253.561C97.0487 253.445 96.5557 253.317 96.0747 253.165C96.0626 253.221 96.0626 253.277 96.0546 253.337Z" fill="#C5C2B6"/>
<path d="M76.4339 239.27C74.6663 237.742 72.5058 236.985 70.3132 236.267C67.2429 235.261 64.1524 234.351 61.0059 233.641C58.3443 233.032 55.7229 232.695 52.9972 232.695C49.5741 232.687 46.2111 233.088 42.8 232.615C42.6677 232.599 42.6196 232.796 42.7439 232.82C48.4518 233.758 54.2038 233.533 59.8876 234.756C65.4632 235.951 70.7502 238.023 76.1454 239.795C76.442 239.895 76.6624 239.474 76.4339 239.27Z" fill="#543600"/>
<path d="M71.6344 240.549C69.8107 239.366 67.3735 239.013 65.2772 238.601C62.6477 238.071 59.9582 237.815 57.2846 237.598C51.717 237.153 46.2857 237.662 40.8023 238.617C40.7262 238.617 40.7462 238.749 40.8184 238.741C46.0051 238.039 51.3202 238.388 56.511 238.789C59.3449 239.009 62.1627 239.39 64.9726 239.795C67.1732 240.116 69.3857 240.228 71.5342 240.833C71.6945 240.877 71.7747 240.641 71.6344 240.549Z" fill="#543600"/>
<path d="M73.8979 245.019C62.859 243.235 52.1207 248.84 42.4886 253.458C42.3403 253.538 42.4486 253.803 42.6009 253.73C52.5135 249.637 62.9752 245.396 73.8579 245.38C74.0623 245.384 74.1104 245.051 73.8979 245.019Z" fill="#543600"/>
<path d="M133.225 231.06C128.283 230.455 123.409 231.709 118.683 233.016C113.48 234.455 108.089 235.678 103.091 237.707C102.221 238.055 102.598 239.47 103.479 239.11C108.093 237.294 112.927 236.031 117.669 234.584C122.691 233.064 127.854 231.068 133.177 231.381C133.366 231.389 133.398 231.084 133.225 231.06Z" fill="#543600"/>
<path d="M130.19 239.326C125.881 239.507 121.592 238.958 117.299 239.539C113.074 240.092 108.837 240.345 104.625 240.958C103.919 241.058 104.083 242.281 104.805 242.197C108.733 241.724 112.705 241.343 116.621 240.742C121.135 240.04 125.644 240.056 130.182 239.659C130.39 239.631 130.398 239.31 130.19 239.326Z" fill="#543600"/>
<path d="M129.677 250.407C126.141 248.322 122.061 247.22 118.113 246.185C114.285 245.191 110.08 243.928 106.136 243.708C105.783 243.684 105.655 244.213 105.963 244.361C109.318 245.981 113.447 246.273 117.079 246.975C121.416 247.797 125.424 249.06 129.52 250.687C129.717 250.767 129.873 250.507 129.677 250.407Z" fill="#543600"/>
<path d="M98.3556 196.324C97.0168 195.71 95.4214 195.458 93.8221 195.341C92.7198 195.113 91.4813 195.105 90.5273 195.045C87.5772 194.848 84.607 194.832 81.6649 194.961C78.8029 195.085 75.8968 195.313 73.1672 196.003C71.8725 196.336 69.8443 196.925 69.6319 198.264C69.1388 201.463 76.8949 201.651 79.0715 201.772C84.7793 202.132 91.0083 202.012 96.4797 200.641C97.6902 200.344 99.2414 199.915 99.9027 198.941C100.616 197.875 99.4338 196.813 98.3556 196.324Z" fill="#FFC0B3"/>
<path d="M108.281 199.182C104.165 195.822 95.9797 202.172 105.584 202.172C107.504 202.176 110.41 200.922 108.281 199.182Z" fill="#FFC0B3"/>
<path d="M144.278 189.148C129.924 177.819 111.947 170.888 93.8572 170.378C75.6273 169.865 55.9023 172.275 40.9432 183.523C40.6266 183.752 40.8871 184.213 41.2439 184.049C57.0126 176.72 75.0462 174.732 92.29 174.784C101.172 174.816 110.027 175.991 118.601 178.3C127.03 180.585 134.558 185.235 142.554 188.607C143.264 188.919 144.988 189.717 144.278 189.148Z" fill="white"/>
<path d="M152.305 168.009C146.193 167.616 140.124 170.322 136.749 175.51C136.577 175.77 136.978 176.039 137.186 175.826C141.315 171.609 146.83 170.086 152.398 168.655C152.77 168.546 152.662 168.029 152.305 168.009Z" fill="#CCAB96"/>
<path d="M173.323 177.839C167.202 170.579 156.203 168.374 148.09 172.944C147.894 173.052 148.034 173.385 148.246 173.293C156.516 170.174 166.043 173.449 172.89 178.432C173.258 178.693 173.567 178.132 173.323 177.839Z" fill="#CCAB96"/>
<path d="M172.799 182.794C170.018 179.47 166.655 178.897 162.57 178.56C162.282 178.528 162.266 178.957 162.514 179.033C165.572 180.016 168.647 181.11 170.94 183.439C173.621 186.141 175.413 189.553 176.491 193.157C176.639 193.626 177.389 193.549 177.357 193.04C177.145 189.28 175.18 185.632 172.799 182.794Z" fill="#CCAB96"/>
<path d="M18.5181 172.54C13.9767 173.057 9.78799 176.761 8.48528 181.102C8.4452 181.259 8.66566 181.387 8.76587 181.251C10.0846 179.595 11.2831 177.855 12.8704 176.456C14.5659 174.953 16.7144 174.179 18.6865 173.137C18.955 172.993 18.8468 172.508 18.5181 172.54Z" fill="#CCAB96"/>
<path d="M33.0143 164.405C25.7833 161.587 16.3517 166.181 10.8122 170.707C10.5957 170.88 10.8763 171.184 11.1008 171.068C17.9871 167.428 25.0979 165.572 32.8981 165.424C33.5274 165.408 33.5274 164.602 33.0143 164.405Z" fill="#CCAB96"/>
<path d="M51.3829 165.095C44.7852 158.532 36.031 158.605 27.7057 161.282C27.4251 161.363 27.5494 161.751 27.8219 161.711C36.1312 160.537 43.5386 161.555 50.958 165.668C51.3107 165.881 51.6715 165.384 51.3829 165.095Z" fill="#CCAB96"/>
<path d="M84.2381 67.9569C83.2441 61.603 79.3079 55.6819 75.5481 50.6549C71.5117 45.259 66.9462 40.1558 62.3727 35.2049C56.8372 29.2117 50.1352 24.4452 43.794 19.366C43.6698 19.2658 43.5054 19.4301 43.6217 19.5504C53.4701 29.8892 63.1783 40.0275 71.9926 51.2963C75.8527 56.2232 79.1235 61.5028 80.9753 67.52C83.3522 75.2089 83.6489 83.7036 83.212 91.6772C83.204 91.9738 83.6409 91.9578 83.6649 91.6772C84.3383 83.8359 85.4607 75.7942 84.2381 67.9569Z" fill="#CCAB96"/>
<path d="M188.301 27.7527C178.985 31.2323 170.303 36.2634 161.128 40.0758C152.141 43.82 143.596 48.362 135.735 54.1427C128.905 59.1818 123.049 64.9105 119.173 72.5312C115.377 79.9676 114.311 88.5745 113.505 96.7886C113.473 97.1494 114.07 97.2176 114.138 96.8688C115.698 88.8592 117.942 81.1943 121.63 73.8902C125.891 65.4396 133.382 59.4183 140.982 54.1067C155.709 43.8401 172.464 36.2033 188.661 28.5945C189.134 28.378 188.782 27.5763 188.301 27.7527Z" fill="#CCAB96"/>
<path d="M92.1526 128.213C99.8646 127.921 106.967 131.08 113.585 134.8C116.146 136.231 118.584 137.846 120.928 139.598C118.535 136.363 115.762 133.409 112.419 131.172C107.16 127.68 100.847 125.852 94.6016 125.283C85.8474 124.493 78.2958 128.494 72.6641 134.575C78.4882 130.699 85.5709 128.458 92.1526 128.213Z" fill="#CCAB96"/>
</svg>
