<svg width="950" height="714" viewBox="0 0 950 714" fill="none" xmlns="http://www.w3.org/2000/svg">
<path d="M588.857 316.691L550.111 369.968L540.432 385.471L537.52 415.489L535.581 466.826L536.554 486.192L523.955 512.339L515.25 581.103L518.154 625.659L523.955 637.284V648.91L548.172 662.458L558.832 674.092V682.797L551.084 685.717L549.145 690.56L495.861 680.85L477.477 645.032L480.381 520.087L494.903 340.916L588.857 316.691Z" fill="#7A3E22"/>
<path d="M209.206 377.724L204.354 439.705L182.092 493.94L176.268 553.009L177.241 591.748L188.859 626.632L201.442 637.284L206.293 646.005L229.544 655.677L241.154 672.145L239.215 677.97L221.789 676.981L215.007 683.771L179.18 676.023L167.547 662.459L168.528 646.963L162.711 634.38L148.189 629.529L150.12 606.293L137.529 572.398L130.755 560.773L132.694 550.128L142.38 507.512L134.625 472.627L107.512 423.237L120.095 356.419L160.772 354.48L209.206 377.724Z" fill="#A55520"/>
<path d="M61.0144 225.673L34.8512 239.229L23.2413 271.17L13.5547 338.977V405.81V456.174H23.2413L24.2146 350.602L28.0846 302.185L34.8512 265.377L60.0489 253.752L61.9878 222.753L61.0144 225.673Z" fill="#CC7832"/>
<path d="M8.70552 451.331H24.2165L30.0254 458.106L25.1821 488.139L17.4344 516.217L15.4955 537.514L14.5377 548.182H7.75554L0 516.217L2.90444 475.524L8.70552 451.331Z" fill="#A55520"/>
<path d="M936.542 49.3906L938.489 54.2339V61.9894L947.194 72.6416L949.133 81.3549L936.542 88.137L931.714 96.8503L920.081 102.659L903.612 100.72L892.002 92.9725L859.072 105.571L825.169 116.216L815.49 114.285L795.144 166.588L753.501 232.44L696.354 281.83L644.051 309.925L584.982 329.282L548.174 346.724L519.13 380.62L510.409 419.366L508.47 472.627L513.313 497.817L509.435 511.366L497.81 529.781L492.009 589.816L495.863 636.311L501.695 650.833L500.714 662.458L520.088 676.98L534.617 687.64L537.522 698.292L530.748 706.04L528.809 713.788H485.227L460.037 704.093L450.358 688.598L458.113 670.206L460.037 647.928L466.819 619.857L468.758 533.651L454.228 516.217L458.113 489.111L463.915 456.174L451.331 396.115L442.603 383.54L426.141 389.341L350.603 405.81L257.63 407.741L206.293 390.314L158.841 368.044L141.406 371.914L133.659 382.566L127.842 418.393L118.163 454.227L96.8511 485.226L89.1034 521.06L87.1645 556.902L92.0156 575.294L115.259 632.433L124.938 643.085V656.657L123.972 666.328L150.12 674.091L161.737 689.587L159.799 698.292L124.938 700.224L102.66 695.372L92.9734 681.839L93.9545 667.302L81.3635 660.527L74.5735 651.806L79.4168 633.406L65.8602 593.694L50.3647 555.929L37.7815 538.487V526.861L44.5481 490.069L40.6781 428.103L31.9648 332.195L40.6781 249.882L61.9903 222.753L83.2868 198.544L86.2068 196.605L97.8245 169.484L114.285 161.737L154.971 147.214L185.946 127.841L222.754 92.007L264.405 52.3028L307.021 38.7384L344.786 45.5284L398.063 69.7371L430.993 103.633L458.113 125.918L495.863 133.658L521.053 145.276L546.243 176.274L564.635 203.387L612.103 201.441L653.738 182.083L703.144 142.371L725.406 90.0759L762.222 27.1207L798.056 5.80859L835.829 12.5908L866.812 29.0596L885.22 38.7384L917.176 43.5739L936.542 49.3906Z" fill="#CC7832"/>
<path d="M804.83 22.2854L798.056 14.53L788.362 0H774.797L768.996 10.66L795.144 30.0176L804.83 22.2854Z" fill="#CC7832"/>
<path d="M430.992 103.632L414.524 71.6759L386.437 39.7039L336.073 21.3117L293.457 15.4951L264.405 30.0172L247.936 59.0771L215.987 81.3547L188.858 103.632L179.179 125.918L168.527 143.352L190.797 130.738L237.284 86.2058L263.431 60.0504L285.709 51.3371L316.708 47.4516L351.568 55.2071L384.506 69.737L402.898 83.2858L430.992 103.632Z" fill="#A55520"/>
<path d="M932.999 60.7046V53.5876L925.89 49.0791L917.504 49.7176L932.999 60.7046Z" fill="#C69675"/>
<path d="M929.448 61.9894V54.5609L925.889 52.3027H917.176L921.373 57.1383L929.448 61.9894Z" fill="#7A3E22"/>
<path d="M934.62 86.2063L924.606 85.5445L914.273 81.9938L918.151 78.4431H926.872L941.06 76.512L947.429 73.6387L949.134 81.3553L937.057 87.8494L934.62 86.2063Z" fill="#A55520"/>
<path d="M904.595 78.1236L917.832 81.6821L930.415 85.2327L941.721 81.6821L949.049 80.919L949.142 81.355L936.543 88.1294L936.465 88.2929C933.405 88.4565 928.694 88.6667 927.838 88.4564C926.553 88.1372 909.765 82.6398 909.765 82.6398L896.201 81.355L894.262 79.0891L895.562 76.5117L904.595 78.1236Z" fill="#7A3E22"/>
<path d="M855.677 40.6849L844.55 40.1943L837.27 41.1521L842.603 46.9688L856.16 51.3371V46.486L858.099 42.1332L855.677 40.6849Z" fill="#7A3E22"/>
<path d="M859.074 36.8075L849.372 38.2558H838.727L835.348 34.3859L845.019 32.9376L854.713 31.4736L859.074 36.8075Z" fill="#C69675"/>
<path d="M803.691 23.1892L797.633 28.0247L789.333 22.2859L780.137 12.5915L782.068 4.84375L789.816 7.26544L803.691 23.1892Z" fill="#A55520"/>
<path d="M584.982 329.282L548.175 346.724L519.13 380.62L513.703 404.657L515.237 377.069L526.216 360.296L538.496 335.107L546.236 300.892L545.59 271.186L544.943 249.881L564.316 271.186L581.751 284.096L609.518 288.628L646.31 273.771L674.731 251.813L725.734 203.387L773.521 140.121L777.383 117.516L773.521 103.321L772.859 78.1232L774.798 63.2819L782.561 58.7578L788.354 70.3833L796.764 89.7643L814.837 97.512L844.527 98.7968L876.819 91.6876L894.892 87.1713L905.871 92.9802L918.789 97.512L933.233 94.1014L931.715 96.8502L920.081 102.659L903.613 100.72L892.003 92.9724L859.073 105.571L825.17 116.216L815.491 114.285L795.144 166.588L753.501 232.439L696.355 281.83L644.052 309.925L584.982 329.282Z" fill="#A55520"/>
<path d="M517.827 147.223L514.066 142.052L521.051 145.276L546.241 176.275L564.633 203.388L612.101 201.441L653.736 182.084L703.142 142.372L721.262 99.833L717.337 121.394L707.651 150.446L677.306 174.974L644.376 196.286L612.093 209.197L579.809 211.774L563.021 209.197L549.457 191.124L529.437 168.527L517.827 147.223Z" fill="#A55520"/>
<path d="M50.3647 555.929L37.7815 538.487V526.861L44.5481 490.069L40.6781 428.103L31.9648 332.194L40.6781 249.881L61.9903 222.753L72.9227 210.333L74.5735 232.439L101.702 276.995L136.563 279.899L152.066 254.725L166.581 249.881L207.266 272.144L251.814 307.02L322.516 326.386L367.064 310.898L408.715 281.83L420.333 282.804L421.306 314.768L435.836 348.655L463.915 374.819L467.792 412.584L471.67 452.288L467.792 491.042L469.731 513.312L479.41 531.704L476.506 560.772L472.636 617.91L470.697 655.676V673.102L459.071 684.728L453.667 693.901L450.358 688.598L458.113 670.206L460.037 647.928L466.819 619.857L468.758 533.651L454.228 516.217L458.113 489.111L463.915 456.174L451.331 396.115L442.603 383.54L426.141 389.341L350.603 405.81L257.63 407.741L206.293 390.314L158.841 368.044L141.406 371.914L133.659 382.566L127.842 418.393L118.163 454.227L96.8511 485.226L89.1034 521.06L87.1645 556.902L92.0156 575.294L115.259 632.433L124.938 643.085V656.657L123.972 666.328L150.12 674.091L161.737 689.587L159.799 698.292L124.938 700.223L102.66 695.372L92.9734 681.839L93.9545 667.301L81.3635 660.527L74.5735 651.806L79.4168 633.406L65.8602 593.694L50.3647 555.929Z" fill="#A55520"/>
<path d="M507.986 690.054L502.66 682.314L515.251 687.641L532.724 703.774L530.747 706.04L528.808 713.788H523.1L517.665 699.733L507.986 690.054Z" fill="#A55520"/>
<path d="M85.8712 470.696L106.537 448.099C106.537 448.099 118.163 409.361 118.163 406.768C118.163 404.19 132.358 344.132 132.358 344.132L134.943 307.34L141.406 309.279L143.975 327.998L155.601 339.623L193.693 355.119L240.187 368.683L383.524 349.948L404.829 333.168L411.93 338.331L414.515 360.297L436.466 376.439L441.885 383.782L426.141 389.341L350.602 405.81L257.63 407.741L206.3 390.314L158.84 368.045L141.414 371.922L133.666 382.575L127.841 418.401L118.163 454.243L96.8504 485.234L89.1027 521.068L87.1638 556.91L92.0149 575.31L93.6579 579.344L85.8712 572.063C85.8712 572.063 72.9609 541.088 72.9609 539.141C72.9609 537.194 75.5461 504.28 75.5461 504.28L85.8712 470.696Z" fill="#7A3E22"/>
<path d="M485.537 502.341L498.463 486.846L509.847 479.791L513.312 497.817L509.434 511.366L501.056 524.642L484.898 512.666L485.537 502.341Z" fill="#A55520"/>
<path d="M39.3778 338.331L45.1944 377.716C45.1944 377.716 48.4181 430.011 48.4181 431.958C48.4181 433.889 49.7184 477.79 49.7184 477.79V501.687L47.1333 523.653C47.1333 523.653 46.4948 542.357 49.0721 544.304C51.6573 546.235 66.5065 564.954 66.5065 564.954L81.3557 625.012L82.002 646.309L80.7016 659.686L74.5735 651.806L79.4168 633.406L65.8602 593.694L50.3647 555.929L37.7815 538.487V526.861L44.5481 490.069L40.6781 428.103L31.9648 332.203L40.6781 249.882V296.361L39.3778 338.331Z" fill="#7A3E22"/>
<path d="M123.316 675.377L133.002 677.97L144.628 688.295L150.927 698.791L139.504 699.414L131.063 685.718L120.738 677.308L123.316 675.377Z" fill="#7A3E22"/>
</svg>
