<svg width="453" height="398" viewBox="0 0 453 398" fill="none" xmlns="http://www.w3.org/2000/svg">
<path d="M296.85 201.467C296.85 201.467 283.639 222.19 285.454 241.878C287.267 261.566 291.671 268.3 293.483 272.705C295.296 277.11 281.311 311.82 277.941 317.78C274.575 323.737 280.545 332.796 272.244 332.286C272.244 332.286 270.715 339.411 265.134 333.907C259.552 328.403 256.444 325.294 263.437 303.274C270.431 281.254 273.021 274.599 268.358 268.732C263.696 262.863 255.408 255.868 254.631 242.139C253.854 228.411 285.454 198.883 285.454 198.883L296.85 201.467Z" fill="#B4C1DB"/>
<path opacity="0.17" d="M296.85 201.467C296.85 201.467 283.639 222.19 285.454 241.878C287.267 261.566 291.671 268.3 293.483 272.705C295.296 277.11 281.311 311.82 277.941 317.78C274.575 323.737 280.545 332.796 272.244 332.286C272.244 332.286 270.715 339.411 265.134 333.907C259.552 328.403 256.444 325.294 263.437 303.274C270.431 281.254 273.021 274.599 268.358 268.732C263.696 262.863 255.408 255.868 254.631 242.139C253.854 228.411 285.454 198.883 285.454 198.883L296.85 201.467Z" fill="#592774"/>
<path opacity="0.31" d="M296.85 201.467C296.85 201.467 283.639 222.19 285.454 241.878C287.267 261.566 291.671 268.3 293.483 272.705C295.296 277.11 281.311 311.82 277.941 317.78C274.575 323.737 280.545 332.796 272.244 332.286C272.244 332.286 270.715 339.411 265.134 333.907C259.552 328.403 256.444 325.294 263.437 303.274C270.431 281.254 273.021 274.599 268.358 268.732C263.696 262.863 255.408 255.868 254.631 242.139C253.854 228.411 285.454 198.883 285.454 198.883L296.85 201.467Z" fill="#592774"/>
<path d="M152.967 82.5646C152.967 82.5646 142.737 63.1346 138.98 70.779C138.98 70.779 131.728 54.8464 127.973 80.233C127.973 80.233 125.122 81.5293 121.237 78.1595C117.351 74.7926 91.4488 31.919 77.5915 32.5657C63.7342 33.2124 63.9923 114.555 65.935 124.916C67.8778 135.278 53.2433 147.841 51.0425 152.246C48.8417 156.651 53.2434 164.162 57.1289 165.974C57.1289 165.974 51.3006 169.214 60.7563 178.021C60.7563 178.021 57.0013 181.518 65.4189 187.736C73.8365 193.954 88.4709 199.005 94.2992 205.87C100.127 212.734 100.258 214.677 94.9458 226.204C89.6366 237.732 68.7854 273.48 57.7784 289.024C46.7714 304.568 28.8981 329.824 25.1431 331.121C21.3881 332.417 20.35 330.085 19.0568 326.457C17.7606 322.83 6.3651 319.332 7.9193 330.732C7.9193 330.732 2.47961 327.754 0.40928 333.194C-1.66395 338.635 4.8138 340.836 4.8138 340.836C4.8138 340.836 0.928315 341.094 0.928315 344.98C0.928315 348.866 6.10706 350.162 9.73449 348.477C9.73449 348.477 16.856 351.456 21.5186 349.774C26.1812 348.089 32.5255 350.162 39.0033 342.262C45.4782 334.36 60.7592 323.74 67.3646 321.928C73.9699 320.115 73.4509 314.286 73.4509 314.286C73.4509 314.286 79.4067 313.379 84.0693 304.441C88.7319 295.503 101.554 281.386 109.453 276.203C117.354 271.021 120.46 268.301 120.46 268.301C120.46 268.301 144.289 288.378 164.363 289.671C184.437 290.967 202.957 285.266 216.814 304.696C230.672 324.126 242.717 343.164 244.529 348.735C246.341 354.306 244.529 358.45 251.392 362.853C251.392 362.853 250.485 370.236 255.536 373.345C260.587 376.453 263.046 376.584 264.472 380.598C265.899 384.611 273.148 385.519 276.129 389.793C279.107 394.068 279.368 398.343 285.712 397.696C292.06 397.049 290.505 390.701 290.505 390.701C290.505 390.701 297.888 394.199 302.289 390.959C306.694 387.72 303.844 382.541 302.289 382.022C302.289 382.022 303.197 374.119 297.888 372.826C292.579 371.529 290.247 375.415 289.859 378.136C289.47 380.856 284.288 379.69 280.406 369.328C276.52 358.967 252.045 285.008 249.713 277.624C247.382 270.241 245.051 265.189 248.159 262.167C251.268 259.146 259.555 254.482 268.709 234.623C277.86 214.764 307.906 200.516 319.304 198.617C330.7 196.717 337.349 208.804 344.775 208.288C344.775 208.288 355.135 216.751 366.879 225.558C378.619 234.365 394.161 256.298 394.335 262.17C394.509 268.043 392.091 267.005 397.963 276.331C403.834 285.657 413.505 301.372 416.094 307.935C418.683 314.498 426.628 323.305 432.152 326.759C432.152 326.759 435.951 330.558 440.787 329.436C445.621 328.314 445.621 324.082 445.621 324.082C445.621 324.082 449.161 324.947 451.232 322.786C453.305 320.629 453.389 316.397 452.096 315.101C452.096 315.101 454.169 310.525 450.799 307.071C447.433 303.617 438.798 308.883 436.035 304.913C433.271 300.94 428.049 290.709 422.479 272.834C416.909 254.958 419.89 238.509 417.558 217.009C415.227 195.508 405.644 146.805 403.443 140.849C403.443 140.849 415.746 144.088 429.603 133.207C443.461 122.327 445.145 106.913 440.999 101.992C440.999 101.992 442.811 94.7388 441.387 90.8528C439.964 86.9668 437.113 87.8745 437.113 87.8745C437.113 87.8745 439.314 77.2547 435.69 69.7408C432.062 62.2298 426.106 58.4714 424.422 62.8765C424.422 62.8765 418.982 35.0278 397.226 15.2121C375.47 -4.60651 367.05 -4.3455 365.626 11.8452C364.202 28.0359 375.986 49.406 383.369 67.6702C390.751 85.9344 392.952 92.4101 389.327 93.7035C385.703 94.9998 375.601 78.4205 360.447 67.1511C345.294 55.8817 321.207 36.9708 288.31 39.691C288.31 39.691 281.835 32.9543 273.029 42.4112C273.029 42.4112 273.548 36.5822 270.698 36.066C267.848 35.5469 262.15 41.3759 260.596 43.7075C260.596 43.7075 263.185 33.6039 258.134 31.9219C253.083 30.237 240.003 45.3924 235.728 50.9633C231.454 56.5342 219.151 71.4286 215.266 72.5944C215.266 72.5944 213.193 36.0689 206.59 31.5362C199.985 27.0035 189.105 41.8979 174.082 63.529C159.054 85.1543 157.241 83.2113 152.967 82.5646Z" fill="url(#paint0_linear_603_19175)"/>
<path opacity="0.69" d="M429.052 291.138C427.014 286.258 424.781 280.237 422.473 272.837C416.903 254.961 419.883 238.512 417.552 217.012C415.221 195.511 405.638 146.808 403.437 140.852C400.537 127.445 395.79 116.167 393.775 111.71C393.775 111.71 403.48 123.411 416.949 111.71C416.949 111.71 424.72 121.422 429.383 103.978C429.383 103.978 443.191 77.1938 430.992 63.2013C428.205 60.6319 425.474 60.1157 424.418 62.8765C424.418 62.8765 418.979 35.0278 397.223 15.2121C375.467 -4.60651 367.046 -4.3455 365.623 11.8452C364.199 28.0359 375.983 49.406 383.366 67.6702C390.748 85.9344 392.949 92.4101 389.324 93.7035C385.697 94.9998 375.597 78.4205 360.444 67.1511C345.291 55.8817 321.203 36.9708 288.307 39.691C288.307 39.691 281.832 32.9543 273.026 42.4112C273.026 42.4112 273.545 36.5822 270.695 36.066C267.844 35.5469 262.147 41.3759 260.592 43.7075C260.592 43.7075 263.182 33.6039 258.131 31.9219C253.08 30.237 239.999 45.3924 235.725 50.9633C231.451 56.5313 219.148 71.4286 215.263 72.5944C215.263 72.5944 213.189 36.0689 206.587 31.5362C199.982 27.0035 189.102 41.8979 174.079 63.529C159.056 85.1601 157.244 83.2171 152.97 82.5704C152.97 82.5704 142.74 63.1404 138.982 70.7848C138.982 70.7848 131.73 54.8522 127.975 80.2388C127.975 80.2388 125.125 81.5351 121.239 78.1653C117.354 74.7984 91.4515 31.9248 77.5942 32.5715C63.7369 33.2182 63.9949 114.56 65.9377 124.922C67.8804 135.284 53.246 147.846 51.0452 152.252C48.8444 156.657 53.246 164.168 57.1315 165.98C57.1315 165.98 51.3033 169.219 60.7589 178.027C60.7589 178.027 55.7542 171.737 61.7506 169.182C66.5843 167.123 70.5133 176.296 77.7217 183.342C86.7454 192.161 99.9851 187.826 111.523 175.225C123.06 162.625 125.554 167.88 125.554 167.88L131.165 170.765L131.942 168.268C139.365 164.687 144.979 168.312 148.519 177.551C152.059 186.791 172.522 199.556 196.609 178.552C220.697 157.547 225.446 168.225 221.735 174.788L231.492 176.6L194.02 248.355L119.413 249.909L94.1684 227.823C87.8849 240.725 68.3299 274.127 57.7781 289.024C46.7712 304.568 28.8978 329.824 25.1428 331.121C23.4697 331.698 22.3505 331.524 21.4922 330.868C25.572 334.911 34.4448 334.514 42.6682 328.749C51.9064 322.273 74.3553 275.473 85.2318 254.23C96.1112 232.988 214.48 284.367 214.48 284.367C214.48 284.367 251.259 348.611 259.418 361.693C267.523 374.685 283.14 387.871 289.45 378.994C288.104 380.377 283.769 378.321 280.4 369.334C276.514 358.972 252.039 285.014 249.707 277.63C247.376 270.247 245.045 265.195 248.153 262.173C251.198 259.215 259.209 254.642 268.134 235.809C256.89 224.578 239.695 198.376 264.817 157.17C299.352 100.524 328.363 133.338 328.363 133.338C328.363 133.338 354.781 120.386 370.926 140.849C379.474 151.988 367.56 164.249 367.56 164.249C367.56 164.249 372.912 173.056 368.943 182.557C368.267 184.175 367.4 185.436 366.443 186.451C367.023 187.359 367.864 188.708 368.891 190.392C376.024 202.105 392.427 231.137 397.78 258.563C404.686 293.949 439.885 317.934 429.107 291.304C429.084 291.251 429.072 291.191 429.052 291.138Z" fill="#B4AEBD"/>
<path opacity="0.24" d="M282.739 217.4C282.739 217.4 296.927 131.462 219.57 106.15L244.095 133.338L282.739 217.4Z" fill="#592774"/>
<path opacity="0.25" d="M205.574 194.962C131.651 231.72 98.5314 205.179 88.1797 200.8C90.6415 202.407 92.7756 204.074 94.3008 205.869C95.2895 207.032 96.058 208.041 96.7133 208.995C96.4726 207.598 97.9427 206.351 109.411 212.087C126.333 220.549 136.348 218.13 146.019 215.541C155.689 212.951 186.599 206.043 177.827 213.47C170.01 220.094 180.333 220.395 182.67 220.381C183.456 219.972 184.247 219.56 185.056 219.134C198.206 210.579 273.257 161.308 205.574 194.962Z" fill="#592774"/>
<path opacity="0.17" d="M371.189 163.733C382.24 152.507 370.931 140.852 370.931 140.852C379.479 151.99 367.565 164.252 367.565 164.252C367.565 164.252 372.917 173.059 368.948 182.559C364.975 192.057 354.789 189.986 354.789 189.986C360.832 202.938 354.618 208.984 344.773 208.294C344.773 208.294 355.134 216.756 366.877 225.563C378.618 234.371 394.16 256.303 394.334 262.176C394.679 226.083 363.079 192.75 363.079 192.75C383.623 188.084 371.189 163.733 371.189 163.733Z" fill="#592774"/>
<path opacity="0.17" d="M451.204 322.801C449.134 324.953 445.605 324.1 445.605 324.1C445.605 324.1 445.605 328.32 440.777 329.457C435.949 330.553 432.133 326.777 432.133 326.777C426.615 323.285 418.661 314.481 416.104 307.947C413.506 301.373 403.81 285.667 397.964 276.331C392.081 266.996 394.516 268.052 394.313 262.168C394.151 256.284 378.609 234.368 366.883 225.561C355.116 216.754 344.767 208.271 344.767 208.271C337.341 208.799 330.687 196.706 319.283 198.611C307.919 200.52 277.85 214.764 268.722 234.609C259.55 254.494 251.272 259.163 248.149 262.165C246.769 263.505 246.484 265.291 246.809 267.481C247.175 270.201 248.433 273.527 249.732 277.628C251.437 283.065 265.071 324.341 273.755 350.029C268.928 340.572 262.148 328.114 253.873 314.681C239.427 291.264 224.291 300.68 224.291 311.677C224.291 314.031 224.981 316.424 226.483 318.616C223.441 314.113 220.194 309.403 216.824 304.696C202.947 285.258 184.441 290.979 164.355 289.68C144.31 288.381 120.449 268.293 120.449 268.293C120.449 268.293 117.364 271.013 109.454 276.207C101.541 281.36 88.7593 295.483 84.0909 304.453C79.4254 313.382 73.458 314.275 73.458 314.275C73.458 314.275 73.9857 320.119 67.3717 321.905C60.7576 323.732 45.4998 334.363 39.0075 342.237C32.5152 350.151 26.1853 348.08 21.5169 349.786C16.8514 351.45 9.75024 348.486 9.75024 348.486C6.09671 350.151 0.94407 348.852 0.94407 344.995C0.94407 341.1 4.80058 340.816 4.80058 340.816C4.80058 340.816 -1.65107 338.623 0.416362 333.186C2.4867 327.748 7.92351 330.709 7.92351 330.709C7.43637 327.015 8.28883 324.906 9.75024 323.851C16.2425 321.252 16.8514 326.612 20.2208 333.836C23.5902 341.1 47.9354 336.15 64.7765 313.625C79.3036 294.187 80.3185 265.654 74.5975 265.654C73.7044 265.654 72.6084 266.384 71.3905 267.968C77.5174 257.943 83.8473 247.068 88.5969 238.423C88.6781 238.26 88.7593 238.138 88.8405 238.017L235.979 256.646C235.979 256.646 240.279 169.594 256.917 156.605L229.284 126.897C229.933 128.115 230.583 129.333 231.314 130.589C251.359 162.692 242.19 187.203 242.19 187.203C242.19 187.203 146.099 243.17 162.169 227.098C178.239 211.067 174.098 204.696 141.19 222.188C125.851 230.346 113.963 220.361 105.197 212.082C99.8011 207.01 98.8674 211.189 98.7456 213.868C98.502 211.27 97.0406 209.08 94.3237 205.873C91.1573 202.141 85.3551 198.933 79.3906 195.807C103.495 207.616 138.067 215.611 168.38 206.117C203.115 195.242 213.707 189.273 218.657 185.907C223.566 182.54 223.809 178.155 221.742 174.788C221.742 174.788 229.777 169.878 227.706 162.37C227.706 162.37 232.494 161.071 233.671 153.4C234.848 145.771 226.935 140.333 223.931 131.12C220.968 121.947 219.672 104.82 215.287 72.5977C217.601 71.8669 222.997 66.2264 227.866 60.5859C226.161 62.4535 223.647 67.688 221.942 74.9931C220.724 80.8772 218.288 99.8722 236.51 107.786C279.645 126.494 276.916 159.113 299.408 167.405C325.349 176.966 347.777 166.349 343.233 151.982C343.233 151.982 377.4 156.892 370.948 140.864C370.948 140.864 390.871 127.918 385.719 106.409C381.581 89.2814 374.48 80.2305 370.664 76.1734C380.16 85.5085 386.571 94.6812 389.332 93.7068C390.468 93.3008 391.037 92.367 391.037 90.7024C391.037 87.4573 388.926 81.4891 384.788 71.1825C397.367 100.2 424.029 117.003 424.556 99.6721C424.556 99.6721 436.485 96.3023 424.556 79.9898C424.556 79.9898 428.248 75.3643 424.435 62.8624C426.099 58.4805 432.063 62.2128 435.717 69.7615C439.327 77.2696 437.138 87.8633 437.138 87.8633C437.138 87.8633 439.979 86.9701 441.397 90.8677C442.818 94.7653 440.991 101.986 440.991 101.986C445.129 106.937 443.468 122.318 429.631 133.196C415.753 144.115 403.456 140.867 403.456 140.867C405.648 146.832 415.222 195.535 417.577 217.003C419.891 238.513 416.927 254.95 422.486 272.849C428.045 290.707 433.281 300.932 436.039 304.911C438.799 308.887 447.44 303.612 450.81 307.063C454.179 310.551 452.109 315.099 452.109 315.099C453.396 316.389 453.315 320.649 451.204 322.801Z" fill="#592774"/>
<path opacity="0.17" d="M98.6914 215.779C98.6914 215.617 98.732 215.495 98.732 215.373C98.732 215.576 98.732 215.698 98.732 215.698L98.6914 215.779Z" fill="#592774"/>
<path opacity="0.17" d="M98.7357 213.996C98.7763 214.443 98.7763 214.889 98.7357 215.376C98.6923 215.052 98.6923 214.564 98.7357 213.996Z" fill="#592774"/>
<path d="M266.027 148.882C246.396 114.314 227.598 107.705 221.575 106.449C220.288 106.179 219.572 106.15 219.572 106.15C221.074 117.977 222.231 125.867 223.939 131.137C226.916 140.333 234.818 145.773 233.652 153.415C232.487 161.056 227.696 162.352 227.696 162.352C229.77 169.863 221.738 174.788 221.738 174.788C223.811 178.154 223.55 182.56 218.629 185.926C218.104 186.286 217.496 186.683 216.817 187.104C211.055 193.098 185.864 205.644 185.864 205.644C184.356 207.543 175.466 216.173 164.659 224.36C153.173 233.063 139.516 241.258 130.176 240.325C116.612 238.967 104.364 221.73 99.0546 213.131C98.695 212.551 96.8247 208.404 96.7638 208.288C96.7522 208.271 94.1078 208.074 94.1078 208.074L92.2288 221.544L94.4296 225.042C88.0853 228.928 87.0472 239.936 87.0472 239.936L85.6235 239.547L80.8594 248.097V252.073C81.1464 275.348 101.577 282.702 101.577 282.702L105.312 282.81C108.032 281.774 111.529 275.815 111.529 275.815C116.191 276.073 120.723 269.728 120.723 269.728C150.769 297.965 176.411 288.897 183.924 292.783C191.437 296.669 197.911 293.041 197.911 293.041C198.431 297.185 203.482 297.704 205.81 297.316C208.141 296.927 211.508 300.682 211.508 300.682C210.989 307.677 217.594 312.857 217.594 312.857L222.17 312.308C222.17 312.308 220.186 301.976 231.193 293.946C242.2 285.916 253.938 290.55 253.938 290.55L256.838 287.081C256.319 278.663 250.102 269.855 250.102 269.855C252.746 269.214 250.232 261.306 250.232 261.306C255.283 258.197 265.386 245.115 267.845 237.863C270.306 230.61 276.393 223.873 276.393 223.873L277.689 225.039L282.093 221.153C282.088 221.156 289.856 190.848 266.027 148.882Z" fill="#592774"/>
<path d="M137.814 255.349C162.189 254.447 192.255 221.492 202.505 196.746C194.285 201.444 185.861 205.643 185.861 205.643C184.354 207.543 175.463 216.173 164.656 224.36C153.171 233.063 139.514 241.258 130.174 240.324C116.61 238.967 104.362 221.73 99.0523 213.131C98.6927 212.551 96.8225 208.404 96.7616 208.288C96.75 208.271 94.1056 208.073 94.1056 208.073L92.2266 221.544L94.4274 225.041C94.4274 225.041 109.842 256.385 137.814 255.349Z" fill="#592774"/>
<path d="M266.025 148.882C246.395 114.314 227.597 107.705 221.574 106.449C220.287 106.179 219.57 106.15 219.57 106.15C220.104 110.35 220.594 114.033 221.081 117.298C229.359 120.366 245.606 133.312 256.831 150.694C275.739 179.967 279.752 213.903 276.386 223.876L277.682 225.042L282.086 221.156C282.086 221.156 289.854 190.848 266.025 148.882Z" fill="#592774"/>
<path d="M87.0472 239.935L85.6235 239.547L80.8594 248.096V252.072C81.1464 275.347 101.577 282.702 101.577 282.702L105.312 282.809C108.032 281.774 111.529 275.814 111.529 275.814C101.293 271.151 89.1204 262.602 87.0472 239.935Z" fill="#592774"/>
<path d="M211.506 300.682C210.987 307.677 217.592 312.857 217.592 312.857L222.168 312.309C222.168 312.309 220.184 301.976 231.191 293.946C242.198 285.916 253.936 290.55 253.936 290.55L256.835 287.081C256.316 278.663 250.1 269.855 250.1 269.855C239.609 261.567 212.413 279.182 211.506 300.682Z" fill="#592774"/>
<path opacity="0.17" d="M416.257 120.125C413.772 126.838 401.515 127.775 393.773 111.709C395.789 116.163 400.535 127.444 403.435 140.851C403.435 140.851 415.738 144.09 429.595 133.21C432.121 131.226 434.232 129.092 435.986 126.899C422.094 140.842 416.257 120.125 416.257 120.125Z" fill="#592774"/>
<path d="M138.59 162.991C138.59 162.991 139.755 163.293 140.924 150.82C142.093 138.347 148.852 127.103 161.062 124.038C173.269 120.973 184.273 127.309 189.441 137.314C194.608 147.319 196.608 147.319 196.608 147.319C196.608 147.319 193.52 149.248 190.313 159.789C187.106 170.331 151.305 173.225 148.62 168.774C145.935 164.322 138.59 162.991 138.59 162.991Z" fill="#1C0A01"/>
<path d="M123.064 162.626C123.064 162.626 121.918 162.84 121.733 150.318C121.544 137.796 115.887 126.094 104.376 122.156C92.867 118.218 81.8107 123.739 76.0926 133.344C70.3717 142.946 68.4492 142.804 68.4492 142.804C68.4492 142.804 71.2735 144.95 73.57 155.695C75.8636 166.436 110.726 171.998 113.643 167.753C116.557 163.507 123.064 162.626 123.064 162.626Z" fill="#1C0A01"/>
<path opacity="0.29" d="M73.5664 155.691C73.5664 155.691 75.2192 172.54 90.7612 177.636C106.303 182.731 115.579 164.879 115.579 164.879L73.5664 155.691Z" fill="#592774"/>
<path opacity="0.29" d="M145.867 166.358C154.305 180.228 163.714 181.696 171.917 181.003C180.12 180.313 191.183 170.876 191.954 155.692C192.725 140.507 145.867 166.358 145.867 166.358Z" fill="#592774"/>
<path d="M163.199 125.307C188.324 121.679 201.532 156.653 184.181 171.159C166.826 185.665 142.887 176.692 142.739 153.286C142.62 134.892 155.358 126.438 163.199 125.307Z" fill="url(#paint1_linear_603_19175)"/>
<path d="M101.064 123.538C119.616 125.585 125.197 154.968 112.726 168.836C100.255 182.707 76.3966 171.82 73.6304 156.804C70.8612 141.791 78.9106 121.093 101.064 123.538Z" fill="url(#paint2_linear_603_19175)"/>
<mask id="mask0_603_19175" style="mask-type:luminance" maskUnits="userSpaceOnUse" x="142" y="125" width="51" height="54">
<path d="M163.199 125.307C188.324 121.679 201.532 156.653 184.181 171.159C166.826 185.665 142.887 176.692 142.739 153.286C142.62 134.892 155.358 126.438 163.199 125.307Z" fill="white"/>
</mask>
<g mask="url(#mask0_603_19175)">
<path d="M167.122 172.008C178.642 172.008 187.982 162.668 187.982 151.146C187.982 139.624 178.642 130.283 167.122 130.283C155.601 130.283 146.262 139.624 146.262 151.146C146.262 162.668 155.601 172.008 167.122 172.008Z" fill="url(#paint3_linear_603_19175)"/>
<path opacity="0.32" d="M178.275 168.357C178.275 177.993 170.463 185.803 160.831 185.803C151.198 185.803 143.387 177.99 143.387 168.357C143.387 158.72 151.198 150.91 160.831 150.91C170.463 150.91 178.275 158.72 178.275 168.357Z" fill="url(#paint4_linear_603_19175)"/>
<path opacity="0.47" d="M144.18 164.941C144.18 164.941 137.302 130.333 165.918 128.416C194.929 126.473 193.763 164.941 193.763 164.941C193.763 164.941 209.01 114.771 196.73 97.9049C184.45 81.0385 176.873 53.938 158.579 65.4568C140.286 76.9727 131.566 116.07 131.566 116.07L144.18 164.941Z" fill="#834A2C"/>
<path d="M176.646 138.976C179.505 138.297 185.643 144.198 185.31 148.505C184.974 152.809 167.231 141.211 176.646 138.976Z" fill="white"/>
<path d="M171.946 142.296C172.807 141.269 176.568 148.446 175.04 149.435C173.511 150.421 171.084 143.319 171.946 142.296Z" fill="white"/>
</g>
<mask id="mask1_603_19175" style="mask-type:luminance" maskUnits="userSpaceOnUse" x="73" y="123" width="47" height="53">
<path d="M101.064 123.538C119.616 125.585 125.197 154.968 112.726 168.836C100.255 182.707 76.3966 171.82 73.6304 156.804C70.8612 141.791 78.9106 121.093 101.064 123.538Z" fill="white"/>
</mask>
<g mask="url(#mask1_603_19175)">
<path d="M97.1858 169.196C108.095 169.196 116.938 159.855 116.938 148.333C116.938 136.811 108.095 127.471 97.1858 127.471C86.277 127.471 77.4336 136.811 77.4336 148.333C77.4336 159.855 86.277 169.196 97.1858 169.196Z" fill="url(#paint5_linear_603_19175)"/>
<path opacity="0.32" d="M116.322 167.119C116.322 176.756 108.928 184.566 99.8053 184.566C90.6831 184.566 83.2891 176.753 83.2891 167.119C83.2891 157.483 90.6831 149.67 99.8053 149.67C108.925 149.673 116.322 157.485 116.322 167.119Z" fill="url(#paint6_linear_603_19175)"/>
<path opacity="0.47" d="M73.1057 162.609C73.1057 162.609 68.4489 127.47 96.1258 126.232C124.322 124.97 120.72 164.941 120.72 164.941C120.72 164.941 136.845 111.955 125.218 95.0884C113.593 78.222 106.417 51.1215 89.0971 62.6403C71.7777 74.1562 63.5195 113.254 63.5195 113.254L73.1057 162.609Z" fill="#834A2C"/>
<path d="M106.202 136.159C108.907 135.481 114.721 141.382 114.405 145.689C114.089 149.995 97.2886 138.398 106.202 136.159Z" fill="white"/>
<path d="M101.748 139.479C102.563 138.453 106.124 145.63 104.677 146.619C103.233 147.608 100.933 140.506 101.748 139.479Z" fill="white"/>
</g>
<path d="M124.562 188.947C124.562 188.947 128.462 183.649 131.974 189.211L133.024 188.991L131.081 181.436L128.674 178.551L125.943 181.14L124.562 186.874V188.947Z" fill="#F37E88"/>
<path d="M134.641 113.771C132.487 104.433 140.937 99.7176 149.145 110.015C156.786 119.6 150.7 121.674 145.39 121.123C140.496 120.615 135.419 117.141 134.641 113.771Z" fill="#E1E9FC"/>
<path d="M108.092 114.937C110.363 120.453 123.892 120.352 127.389 111.182C129.851 104.724 125.446 101.728 117.742 105.095C110.035 108.462 107.185 112.736 108.092 114.937Z" fill="#E1E9FC"/>
<path d="M130.533 179.292C130.099 178.622 129.655 178.103 129.588 177.279C129.455 175.62 129.472 173.935 129.414 172.274C129.371 170.972 127.341 170.966 127.385 172.274C127.442 173.938 127.521 177.502 127.529 177.894C126.048 179.034 125.175 180.724 124.433 182.432C123.554 184.457 123.023 186.571 122.823 188.766C122.774 189.311 123.325 189.781 123.838 189.781C124.427 189.781 124.804 189.314 124.853 188.766C125.018 186.948 125.471 185.135 126.184 183.456C126.729 182.171 127.501 180.904 128.568 179.97C128.782 180.315 129.008 180.666 129.234 181.046C130.713 183.534 131.656 186.333 131.969 189.21C132.111 190.494 134.141 190.509 133.999 189.21C133.685 186.344 132.885 183.584 131.545 181.026C131.238 180.434 130.899 179.854 130.533 179.292Z" fill="#1C0A01"/>
<path opacity="0.29" d="M125.055 167.309C125.055 167.309 128.685 162.759 130.755 162.284C132.829 161.808 132.536 168.066 132.536 168.066L127.54 169.432L125.055 167.309Z" fill="#592774"/>
<path d="M130.445 167.464C129.352 167.807 128.137 167.708 127.128 167.169C126.452 166.806 125.655 166.687 124.947 167.409C123.674 168.706 126.409 171.53 127.624 172.67C127.943 172.971 128.418 173.015 128.789 172.78C130.225 171.869 133.565 169.529 132.536 168.068C131.973 167.264 131.173 167.238 130.445 167.464Z" fill="#F9D4B9"/>
<path d="M130.445 167.464C129.352 167.807 128.137 167.708 127.128 167.169C126.452 166.806 125.655 166.687 124.947 167.409C123.674 168.706 126.409 171.53 127.624 172.67C127.943 172.971 128.418 173.015 128.789 172.78C130.225 171.869 133.565 169.529 132.536 168.068C131.973 167.264 131.173 167.238 130.445 167.464Z" fill="#F3B888"/>
<path d="M127.625 172.667C127.944 172.969 128.42 173.012 128.791 172.778C130.003 172.009 132.566 170.22 132.714 168.802C128.823 171.577 126.55 171.586 124.656 168.596C124.935 169.994 126.709 171.809 127.625 172.667Z" fill="#F3B888"/>
<path opacity="0.17" d="M124.254 192.158C124.254 192.158 128.827 197.503 129.882 200.696C130.94 203.886 136.745 193.237 124.254 192.158Z" fill="#592774"/>
<path opacity="0.17" d="M393.205 110.541C393.205 110.541 396.151 102.905 390.462 87.0391C391.474 91.0846 391.134 93.0566 389.319 93.7033C388.2 94.1035 386.455 92.7869 384.141 90.4611C391.651 99.9209 393.205 110.541 393.205 110.541Z" fill="#592774"/>
<path d="M91.0239 95.707L99.0066 89.8461C100.198 88.9703 100.459 87.2941 99.5865 86.0993L90.5049 73.6467C88.9246 71.4804 85.4943 72.7129 85.6538 75.3896L86.7528 93.7002C86.8803 95.8259 89.3103 96.9656 91.0239 95.707Z" fill="#F37E88"/>
<path d="M178.816 93.7681L187.886 101.618C189.579 103.086 192.218 101.955 192.325 99.716L193.259 80.17C193.381 77.6151 190.2 76.3507 188.536 78.2966L178.532 89.9952C177.572 91.1146 177.697 92.8024 178.816 93.7681Z" fill="#F37E88"/>
<path opacity="0.53" d="M14.0878 337.15C14.633 337.095 15.1027 336.724 15.1027 336.135C15.1027 335.63 14.6359 335.065 14.0878 335.12C12.3684 335.294 10.8693 334.102 9.69491 332.922C8.52056 331.739 7.54045 330.123 8.05949 328.436C8.17257 328.067 8.05661 327.792 7.86233 327.574C7.75795 328.476 7.74924 329.503 7.91742 330.735C7.91742 330.735 7.09682 330.297 5.98047 330.065C6.19794 331.637 7.05045 333.113 8.1639 334.262C9.68331 335.828 11.7797 337.382 14.0878 337.15Z" fill="#592774"/>
<path opacity="0.53" d="M11.1548 341.919C11.6506 341.684 11.7782 340.977 11.5201 340.53C11.2244 340.026 10.6299 339.93 10.1312 340.165C8.5973 340.896 6.98222 341.012 5.31494 340.823C5.00758 340.788 4.70311 340.71 4.39575 340.664C4.63642 340.765 4.81037 340.835 4.81037 340.835C4.81037 340.835 3.1199 340.974 1.96875 342.177C3.05901 342.496 4.17249 342.726 5.31494 342.853C7.35338 343.085 9.2961 342.807 11.1548 341.919Z" fill="#592774"/>
<path opacity="0.53" d="M13.7616 344.953C13.7413 344.423 13.3092 343.915 12.7467 343.938C12.2132 343.961 11.7115 344.385 11.7318 344.953C11.7376 345.084 11.7376 345.214 11.7318 345.342C11.7289 345.414 11.7231 345.484 11.7173 345.554C11.6593 345.82 11.6042 346.081 11.5086 346.339C11.4912 346.383 11.4042 346.56 11.497 346.377C11.4709 346.429 11.4477 346.482 11.4216 346.534C11.3636 346.65 11.2998 346.763 11.2302 346.873C11.1925 346.934 11.1519 346.995 11.1113 347.053C11.0214 347.175 10.9257 347.285 10.8242 347.392C10.4618 347.778 10.05 348.114 9.63537 348.448C9.59188 348.483 9.55131 348.517 9.50781 348.552C9.5803 348.52 9.6615 348.509 9.73399 348.474C9.73399 348.474 10.5807 348.816 11.8275 349.199C11.9899 349.051 12.1697 348.923 12.3175 348.761C13.2686 347.723 13.8108 346.371 13.7616 344.953Z" fill="#592774"/>
<path opacity="0.53" d="M289.651 386.036C287.671 384.56 284.699 384.16 282.596 385.627C282.147 385.94 281.941 386.514 282.234 387.016C282.495 387.46 283.171 387.695 283.623 387.379C285.168 386.3 287.233 386.685 288.628 387.787C289.558 388.524 290.217 389.574 290.521 390.711C290.556 390.728 291.417 391.114 292.681 391.511C292.51 389.345 291.397 387.338 289.651 386.036Z" fill="#592774"/>
<path opacity="0.53" d="M292.52 381.743C291.531 382.598 292.972 384.031 293.955 383.178C295.277 382.033 297.008 381.386 298.751 381.328C299.629 381.299 300.491 381.406 301.331 381.67C301.737 381.798 302.12 381.975 302.503 382.157C302.433 382.12 302.358 382.044 302.291 382.024C302.291 382.024 302.378 381.113 302.315 379.898C301.282 379.515 300.189 379.301 299.09 379.295C296.675 379.283 294.34 380.162 292.52 381.743Z" fill="#592774"/>
<path opacity="0.53" d="M436.637 314.005C435.34 314.086 435.329 316.116 436.637 316.035C439.348 315.867 442.085 316.627 443.921 318.72C445.208 320.188 445.582 322.16 445.771 324.117C446.092 324.178 446.881 324.291 447.809 324.228C447.559 321.722 447.07 319.245 445.356 317.285C443.201 314.82 439.832 313.805 436.637 314.005Z" fill="#592774"/>
<path opacity="0.53" d="M442.581 310.337C442.068 310.528 441.717 311.024 441.874 311.584C442.01 312.077 442.604 312.485 443.12 312.291C445.402 311.444 447.792 312.343 449.85 313.39C450.674 313.811 451.486 314.295 452.15 314.948C452.269 314.649 452.544 313.828 452.66 312.726C452.031 312.28 451.364 311.882 450.686 311.543C448.212 310.313 445.301 309.324 442.581 310.337Z" fill="#592774"/>
<path opacity="0.44" d="M256.833 150.695C245.605 133.315 229.362 120.366 221.083 117.298C220.86 115.787 220.631 114.166 220.402 112.467C221.535 120.854 222.559 126.874 223.939 131.137C226.917 140.333 234.819 145.773 233.653 153.415C233.256 156.013 232.432 157.834 231.528 159.165C240.661 163.605 250.175 172.697 255.67 190.944C268.625 233.954 228.761 221.933 228.761 221.933C228.761 221.933 239.87 240.067 236.761 247.062C233.653 254.056 245.02 261.179 245.02 261.179C220.123 264.676 210.299 284.187 210.299 284.187C215.693 265.256 231.249 260.955 235.106 260.17C207.629 264.331 200.499 282.81 200.499 282.81C206.457 250.948 232.357 250.428 232.357 250.428C206.454 248.355 195.317 277.628 195.317 277.628C195.317 277.628 176.928 289.544 147.369 281.255C117.81 272.964 114.504 253.279 114.504 253.279C165.239 280.936 204.23 211.313 215.374 188.415C212.474 190.819 207.536 193.873 202.508 196.747C192.258 221.492 162.192 254.448 137.817 255.35C109.845 256.385 94.4332 225.042 94.4332 225.042C88.0888 228.928 87.0508 239.936 87.0508 239.936C89.124 262.603 101.297 271.152 111.527 275.815C116.189 276.073 120.721 269.728 120.721 269.728C150.767 297.965 176.409 288.897 183.921 292.783C191.434 296.669 197.909 293.041 197.909 293.041C198.428 297.185 203.479 297.704 205.808 297.316C208.139 296.927 211.506 300.683 211.506 300.683C212.413 279.182 239.609 261.567 250.1 269.856C252.744 269.215 250.23 261.306 250.23 261.306C255.281 258.198 265.384 245.116 267.842 237.863C270.304 230.61 276.391 223.873 276.391 223.873C279.757 213.903 275.741 179.967 256.833 150.695Z" fill="#592774"/>
<path d="M21.3691 157.896C33.9244 155.805 46.706 155.289 59.3918 156.321C60.6068 156.42 60.6039 154.529 59.3976 154.43C46.5436 153.384 33.6084 153.946 20.8877 156.066C19.6873 156.266 20.1773 158.096 21.3691 157.896Z" fill="#716391"/>
<path d="M33.1572 181.112C40.9195 173.239 50.9958 167.964 61.8781 166.032C63.0785 165.821 62.5885 163.991 61.3996 164.203C50.2041 166.189 39.7887 171.687 31.8089 179.787C30.9535 180.654 32.2989 181.982 33.1572 181.112Z" fill="#716391"/>
<path d="M43.9057 191.326C49.9804 184.827 57.0178 179.337 64.7975 175.022C65.8617 174.433 64.9135 172.795 63.8494 173.387C55.9305 177.774 48.7394 183.386 42.5574 190.001C41.7281 190.885 43.0706 192.216 43.9057 191.326Z" fill="#716391"/>
<path d="M211.405 151.988C218.532 149.712 225.932 148.323 233.408 147.925C237.113 147.728 240.833 147.769 244.533 148.041C246.317 148.175 248.094 148.36 249.863 148.601C251.893 148.877 253.978 149.126 255.601 150.48C256.535 151.26 257.547 149.66 256.625 148.888C255.117 147.63 253.253 147.215 251.359 146.916C249.39 146.606 247.407 146.38 245.421 146.211C241.584 145.89 237.728 145.826 233.883 146.011C226.106 146.385 218.399 147.772 210.982 150.141C209.828 150.512 210.242 152.359 211.405 151.988Z" fill="#716391"/>
<path d="M208.315 164.188C221.131 164.997 233.483 169.715 243.612 177.6C244.574 178.349 245.589 176.751 244.635 176.008C234.249 167.92 221.511 163.127 208.378 162.297C207.163 162.222 207.097 164.112 208.315 164.188Z" fill="#716391"/>
<path d="M206.506 175.261C214.81 178.814 224.074 182.973 227.684 191.925C228.14 193.056 229.813 192.166 229.36 191.046C225.559 181.621 215.813 177.196 207.068 173.455C205.952 172.976 205.398 174.786 206.506 175.261Z" fill="#716391"/>
<path opacity="0.53" d="M416.658 65.5967C417.957 64.399 418.508 62.5633 418.285 60.7827C417.934 57.9813 415.794 55.8498 413.86 53.9793C413.156 53.2978 412.08 54.3737 412.784 55.0552C414.327 56.5487 416.105 58.1901 416.661 60.3506C417.111 62.0848 416.641 64.1235 414.971 65.0051C414.484 65.2632 414.466 66.0665 414.971 66.3188C422.11 69.8771 424.052 79.2615 418.729 85.2848C418.082 86.0156 419.155 87.0973 419.804 86.3607C422.681 83.1069 423.977 78.6525 423.078 74.375C422.301 70.6862 419.86 67.5281 416.658 65.5967Z" fill="#592774"/>
<path opacity="0.53" d="M323.281 186.779C326.868 188.029 331.247 188.569 334.601 186.373C336.968 184.825 338.559 182.131 338.322 179.326C344.199 180.6 349.839 175.913 352.249 170.829C354.803 165.441 354.873 158.997 352.686 153.473C351.428 150.292 349.471 147.447 346.852 145.234C346.11 144.605 345.029 145.678 345.777 146.31C351.106 150.817 353.594 158.148 352.478 165.003C351.405 171.604 345.333 180.347 337.579 177.613C337.02 177.415 336.498 178.019 336.643 178.549C337.405 181.325 335.671 184.141 333.221 185.419C330.261 186.962 326.697 186.362 323.687 185.312C322.757 184.99 322.359 186.46 323.281 186.779Z" fill="#592774"/>
<path opacity="0.53" d="M305.332 65.9164C307.089 67.1953 308.948 68.5235 310.354 70.191C310.986 70.9392 312.059 69.8575 311.43 69.1151C309.859 67.2533 307.727 65.7598 305.75 64.3504C303.703 62.8946 301.432 61.5867 298.938 61.0995C295.694 60.4673 291.93 61.3634 289.883 64.0111C289.584 63.0802 289.402 62.0971 288.72 61.3489C287.963 60.5195 286.856 60.1976 285.757 60.2962C283.675 60.4876 282.411 61.9492 281.494 63.637C280.7 61.723 279.088 60.2208 277.116 59.3885C273.909 58.0371 270.334 58.8288 267.309 60.2875C260.994 63.3383 255.859 68.9788 252.771 75.2051C252.336 76.0809 253.649 76.8523 254.084 75.9736C256.723 70.655 260.739 66.0643 265.773 62.8917C268.449 61.201 271.726 59.7423 274.967 60.3223C277.719 60.8153 280.349 62.9584 280.508 65.8874C280.558 66.7893 281.68 66.8618 282.002 66.0904C282.75 64.2982 283.797 61.8506 286.082 61.7984C288.355 61.7491 288.164 64.5882 289.123 66.0121C289.416 66.4471 290.173 66.5631 290.437 66.0121C292.087 62.5785 296.366 61.839 299.724 62.8714C301.777 63.5007 303.613 64.6636 305.332 65.9164Z" fill="#592774"/>
<path opacity="0.53" d="M392.587 130.917C391.929 124.806 390.94 118.073 387.925 112.618C386.663 110.333 384.784 108.03 382.346 106.948C380.281 106.032 378.46 106.847 376.894 108.108C376.889 102.018 372.583 96.227 366.493 94.9104C365.54 94.7045 365.131 96.1719 366.09 96.3778C371.971 97.648 376.268 103.715 375.314 109.706C375.201 110.411 376.007 111.031 376.587 110.446C377.46 109.564 378.446 108.537 379.669 108.175C381.087 107.754 382.386 108.575 383.448 109.448C385.289 110.959 386.568 113.032 387.498 115.199C389.606 120.088 390.499 125.656 391.065 130.917C391.169 131.88 392.692 131.891 392.587 130.917Z" fill="#592774"/>
<path d="M443.618 117.025C441.134 119.092 436.883 118.315 435.215 115.583C434.705 114.748 433.389 115.514 433.902 116.352C436.111 119.977 441.455 120.795 444.697 118.104C445.013 117.84 444.97 117.3 444.697 117.028C444.381 116.712 443.935 116.761 443.618 117.025Z" fill="#685B88"/>
<path d="M444.906 114.679C442.575 115.584 440.029 115.555 437.715 114.607C437.335 114.45 436.88 114.775 436.778 115.137C436.659 115.575 436.929 115.918 437.309 116.074C439.838 117.112 442.763 117.136 445.309 116.147C445.692 115.999 445.959 115.636 445.84 115.21C445.741 114.845 445.292 114.528 444.906 114.679Z" fill="#685B88"/>
<path d="M301.993 33.9522C300.294 36.5071 299.885 39.8537 300.932 42.7392C301.071 43.1249 301.448 43.3859 301.868 43.2699C302.242 43.1684 302.541 42.7218 302.399 42.3332C301.477 39.7957 301.81 36.9682 303.307 34.7178C303.852 33.9029 302.532 33.1402 301.993 33.9522Z" fill="#685B88"/>
<path d="M305.982 35.924C304.434 37.9395 303.88 40.593 304.367 43.0725C304.445 43.4756 304.929 43.7076 305.303 43.6032C305.724 43.4872 305.915 43.0725 305.834 42.6665C305.419 40.564 305.999 38.3774 307.296 36.6896C307.545 36.3648 307.345 35.837 307.023 35.6485C306.629 35.4194 306.231 35.5963 305.982 35.924Z" fill="#685B88"/>
<path d="M226.178 55.7677C225.954 54.8136 224.487 55.2167 224.711 56.1708C225.514 59.6131 227.773 62.6436 230.829 64.4155C231.678 64.9085 232.444 63.5919 231.597 63.1018C228.863 61.5184 226.894 58.8388 226.178 55.7677Z" fill="#685B88"/>
<path d="M365.551 3.82601C365.319 3.48961 364.884 3.333 364.51 3.5534C364.174 3.7506 364.003 4.2552 364.238 4.5945C365.725 6.7521 367.743 8.5211 370.106 9.6637C370.478 9.8435 370.93 9.76521 371.147 9.39111C371.342 9.05761 371.246 8.52981 370.875 8.35001C368.735 7.31761 366.885 5.76321 365.551 3.82601Z" fill="#685B88"/>
<path d="M419.189 203.056C417.255 202.998 415.356 202.647 413.523 202.024C413.135 201.89 412.691 202.174 412.587 202.554C412.471 202.972 412.729 203.358 413.117 203.491C415.072 204.155 417.124 204.518 419.189 204.579C419.601 204.59 419.949 204.219 419.949 203.819C419.952 203.395 419.601 203.071 419.189 203.056Z" fill="#685B88"/>
<path d="M418.847 207.961C418.609 207.961 418.374 207.949 418.139 207.923C417.835 207.874 417.719 207.848 417.606 207.822C417.377 207.767 417.148 207.7 416.924 207.619C416.875 207.601 416.826 207.584 416.776 207.564C416.594 207.488 416.486 207.436 416.382 207.384C416.182 207.282 415.988 207.172 415.799 207.05C415.701 206.987 415.602 206.92 415.506 206.85C415.495 206.842 415.387 206.76 415.425 206.792C415.474 206.83 415.332 206.717 415.318 206.705C415.147 206.563 414.981 206.409 414.828 206.25C414.747 206.166 414.665 206.079 414.587 205.989C414.544 205.94 414.503 205.887 414.462 205.838C414.373 205.725 414.564 205.974 414.413 205.771C414.17 205.441 413.755 205.276 413.372 205.499C413.047 205.69 412.853 206.206 413.1 206.54C414.448 208.358 416.573 209.483 418.852 209.486C419.25 209.486 419.632 209.135 419.612 208.727C419.589 208.309 419.276 207.961 418.847 207.961Z" fill="#685B88"/>
<defs>
<linearGradient id="paint0_linear_603_19175" x1="128.172" y1="248.955" x2="507.249" y2="52.2567" gradientUnits="userSpaceOnUse">
<stop stop-color="#E1E9FC"/>
<stop offset="0.8651" stop-color="#B4C1DB"/>
</linearGradient>
<linearGradient id="paint1_linear_603_19175" x1="167.401" y1="178.174" x2="167.401" y2="125.045" gradientUnits="userSpaceOnUse">
<stop offset="0.0894" stop-color="#FFCD00"/>
<stop offset="1" stop-color="#FF9000"/>
</linearGradient>
<linearGradient id="paint2_linear_603_19175" x1="94.4021" y1="175.007" x2="98.2858" y2="123.307" gradientUnits="userSpaceOnUse">
<stop offset="0.0894" stop-color="#FFCD00"/>
<stop offset="1" stop-color="#FF9000"/>
</linearGradient>
<linearGradient id="paint3_linear_603_19175" x1="167.12" y1="172.011" x2="167.12" y2="130.284" gradientUnits="userSpaceOnUse">
<stop stop-color="#9D0000"/>
<stop offset="0.1594" stop-color="#820400"/>
<stop offset="0.3898" stop-color="#620800"/>
<stop offset="0.6118" stop-color="#4B0B00"/>
<stop offset="0.82" stop-color="#3D0D00"/>
<stop offset="1" stop-color="#380E00"/>
</linearGradient>
<linearGradient id="paint4_linear_603_19175" x1="160.829" y1="185.805" x2="160.829" y2="150.909" gradientUnits="userSpaceOnUse">
<stop/>
<stop offset="0.4777" stop-color="#818100"/>
<stop offset="0.8383" stop-color="#DBDB00"/>
<stop offset="1" stop-color="#FFFF00"/>
</linearGradient>
<linearGradient id="paint5_linear_603_19175" x1="97.1853" y1="169.196" x2="97.1853" y2="127.47" gradientUnits="userSpaceOnUse">
<stop stop-color="#9D0000"/>
<stop offset="0.1594" stop-color="#820400"/>
<stop offset="0.3898" stop-color="#620800"/>
<stop offset="0.6118" stop-color="#4B0B00"/>
<stop offset="0.82" stop-color="#3D0D00"/>
<stop offset="1" stop-color="#380E00"/>
</linearGradient>
<linearGradient id="paint6_linear_603_19175" x1="99.8033" y1="184.568" x2="99.8033" y2="149.672" gradientUnits="userSpaceOnUse">
<stop/>
<stop offset="0.4777" stop-color="#818100"/>
<stop offset="0.8383" stop-color="#DBDB00"/>
<stop offset="1" stop-color="#FFFF00"/>
</linearGradient>
</defs>
</svg>
