<svg width="988" height="767" viewBox="0 0 988 767" fill="none" xmlns="http://www.w3.org/2000/svg">
<path d="M271.966 425.518L265.861 498.861L255.918 589.77L248.287 663.876L229.957 702.061L231.475 724.985L267.38 729.572L330.031 728.053L335.373 700.535L301.758 481.278L317.798 396.871L271.966 425.518Z" fill="#AA8984"/>
<path d="M805.202 556.926L785.338 582.123L770.824 639.418L770.053 672.278L783.804 720.399L782.286 732.632L697.481 735.684L664.637 730.327L657.762 712.753L665.4 695.201L674.558 664.639L682.975 586.71L689.843 485.88L749.426 485.117L805.202 556.926Z" fill="#6D5B5D"/>
<path d="M146.67 99.7004L152.409 84.7967L167.297 70.2901L184.879 56.5311L289.922 30.9519L316.287 25.2131L359.815 44.6954L410.241 76.7842L496.183 108.865L539.726 110.018L664.639 95.1218L754.015 92.8248L839.972 137.512L906.431 193.662L961.428 263.571L970.601 373.565L975.179 499.624V527.118L967.159 528.271L961.428 468.687L949.974 327.741L946.532 338.042L924.753 413.674L921.327 459.514L929.339 542.006L916.74 576.392L906.431 594.738L909.849 644.012L920.182 710.471L933.918 736.837L930.492 752.869L897.258 762.034L820.482 764.324L804.433 762.034L799.847 746.002L819.329 726.519L829.654 701.306L825.06 641.715L797.558 566.083L759.746 523.684L733.388 499.624L703.596 505.362L590.152 516.817L501.921 497.327L397.635 456.081L388.47 491.603L387.333 523.684L379.297 590.151L385.036 685.266L396.498 718.491L398.795 757.082L310.167 766.239L272.736 761.661L268.913 732.632L276.941 710.86L283.817 707.411L292.211 693.278L297.942 666.936L287.624 539.733L263.564 401.076L249.805 333.464L234.909 283.045L221.165 288.784L191.366 313.982L175.325 317.423L146.67 312.837L135.216 349.504L130.638 391.911L129.493 437.743L147.823 462.948L165.016 460.659L171.899 429.73L162.719 425.136L153.561 441.177L155.851 449.205L150.12 451.502L134.079 426.281L132.927 404.502H151.264L176.478 402.22L197.104 429.73L200.538 467.535L182.201 501.913L130.638 513.367L91.6731 465.245L79.0742 405.662L88.2469 323.147L104.28 245.218L121.465 193.662L127.188 144.396L136.369 115.741L146.67 99.7004Z" fill="#6D5B5D"/>
<path d="M977.857 524.074L962.572 525.608L958.001 563.793L965.625 597.416L961.809 617.265L954.926 625.666L974.026 612.686L984.717 588.244L987.022 546.227L977.857 524.074Z" fill="#6D5B5D"/>
<path d="M234.91 283.045L221.166 288.784L191.367 313.982L175.326 317.424L156.584 314.418L154.707 289.921L162.719 285.342L171.9 288.784L177.615 303.672L186.788 300.231L217.732 279.611L238.351 260.129L265.862 250.957L273.882 265.86L252.103 277.314L261.283 304.825L271.585 360.959L279.613 426.281L270.635 441.831L263.565 401.076L249.806 333.464L234.91 283.045Z" fill="#5E4D4F"/>
<path d="M406.801 95.1218L421.697 116.886L432.014 152.408L427.435 175.324L396.499 228.04L386.174 263.571L396.499 289.921L476.702 335.761L579.836 373.565L648.6 375.87L784.952 307.106H811.318H850.275L868.604 258.992L851.419 186.794L823.333 128.877L839.973 137.512L906.432 193.662L961.429 263.571L970.602 373.565L975.181 499.624V527.118L967.16 528.271L961.429 468.687L949.975 327.741L946.534 338.042L924.754 413.674L921.328 459.514L929.341 542.006L916.742 576.392L906.432 594.738L909.851 644.012L920.183 710.471L933.919 736.837L930.493 752.869L897.259 762.034L820.483 764.324L804.435 762.034L799.848 746.002L819.331 726.519L829.656 701.306L825.061 641.715L797.559 566.083L759.747 523.684L733.389 499.624L703.597 505.362L590.153 516.817L501.923 497.327L397.636 456.081L388.471 491.603L387.334 523.684L379.298 590.151L385.037 685.266L396.499 718.491L398.796 757.082L320.688 765.149L323.149 735.684L340.341 712.752L348.362 686.402L341.486 629.116L327.735 552.347L343.783 488.162L334.618 433.164L324.301 403.365L305.963 344.918L281.902 325.444L279.613 293.355L349.499 134.079L406.801 95.1218Z" fill="#5E4D4F"/>
<path d="M883.631 762.439L877.767 749.428L883.498 723.078L861.727 717.347L858.285 707.037L860.582 673.811L865.169 621.096L866.305 580.986L883.498 555.781L884.635 505.362C884.635 505.362 893.816 433.164 893.816 429.73C893.816 426.281 913.29 359.822 913.29 359.822L935.062 310.54L948.821 273.88L951.126 313.982L949.911 327.881L946.532 338.05L924.752 413.682L921.326 459.522L929.338 542.014L916.74 576.4L906.43 594.738L909.849 644.012L920.181 710.471L933.917 736.837L930.483 752.877L897.25 762.042L883.631 762.439Z" fill="#47383B"/>
<path d="M397.633 456.081L395.43 464.607L398.794 441.177L410.24 395.345L420.549 391.911L422.839 406.799L426.281 425.136L445.771 435.462L513.367 454.936L614.219 468.687L679.534 451.502L712.76 432.028L742.559 412.538L762.042 387.332L783.805 360.959L791.833 364.408L771.206 399.923L754.014 454.936L743.696 481.278V509.03L733.387 499.624L703.595 505.362L590.151 516.817L501.92 497.327L397.633 456.081Z" fill="#47383B"/>
<path d="M118.402 385.027L126.804 330.793L144.386 306.343L161.19 303.298L162.257 315.329L146.668 312.837L135.214 349.504L130.635 391.911L129.491 437.743L147.82 462.948L165.013 460.659L171.897 429.73L162.716 425.136L153.559 441.177L155.848 449.205L150.117 451.502L134.077 426.281L132.925 404.502H151.262L167.56 403.03L168.837 413.293L177.986 420.939L177.238 438.514V465.245L164.242 478.241H144.386L131.406 464.475L121.463 436.209L118.402 385.027Z" fill="#5E4D4F"/>
<path d="M148.205 436.98L153.555 424.77L141.322 412.538L140.566 421.702L148.205 436.98Z" fill="#47383B"/>
<path d="M440.034 123.006L377.398 80.2183L376.137 55.0674L410.242 76.7844L496.184 108.865L539.727 110.018L664.64 95.122L754.016 92.8249L786.26 109.582L756.313 107.721L689.083 116.886L600.455 144.396L514.903 139.802L440.034 123.006Z" fill="#AA8984"/>
<path d="M104.281 245.218L121.466 193.662L127.189 144.396L136.37 115.741L146.671 99.7004L152.41 84.7967L167.298 70.2901L184.881 56.5311L289.923 30.9519L316.288 25.2131L318.57 26.2332L285.726 39.7353L235.291 55.768L180.286 72.5872L165.017 87.8647L152.792 106.187L137.514 133.697L129.883 168.83V197.859L111.538 248.278L103.891 277.314L94.7031 291.766L104.281 245.218Z" fill="#AA8984"/>
<path d="M146.668 156.621L152.788 139.802L162.716 132.171L187.166 134.46L204.733 155.858L203.97 173.417C203.97 173.417 184.877 187.168 184.114 189.457C183.343 191.754 165.784 194.036 163.495 194.036C161.198 194.036 146.676 185.626 146.676 185.626L146.668 156.621Z" fill="#6D5B5D"/>
<path d="M184.117 155.087L187.948 167.304L174.173 170.364L158.141 172.662V162.734L164.253 152.027L184.117 155.087Z" fill="#47383B"/>
<path d="M152.044 153.553L149.887 147.822L152.799 139.802L162.727 132.171L187.177 134.46L204.744 155.858L203.981 173.417C203.981 173.417 203.755 173.588 203.42 173.822L201.691 170.364L188.696 162.734L165.787 158.895L152.044 153.553Z" fill="#AA8984"/>
<path d="M146.934 185.79L156.612 187.168L178.002 184.887L191.092 183.096C187.471 185.969 184.403 188.57 184.115 189.465C183.344 191.762 165.785 194.044 163.496 194.044C161.362 194.044 148.802 186.857 146.934 185.79Z" fill="#5E4D4F"/>
<path d="M276.277 762.089L278.831 736.455L283.418 728.809L288.004 734.143L286.478 748.665V763.342L276.277 762.089Z" fill="#5E4D4F"/>
<path d="M310.164 766.239L293.992 764.254L292.59 742.568L300.992 735.684L309.401 737.981L318.13 765.422L310.164 766.239Z" fill="#AA8984"/>
<path d="M828.883 739.5L836.771 763.849L820.482 764.324L809.627 762.774L809.02 753.243L818.955 739.5H828.883Z" fill="#6D5B5D"/>
<path d="M843.523 763.646L844.162 747.139L851.808 740.255L863.263 748.665L864.213 763.023L843.523 763.646Z" fill="#6D5B5D"/>
<path d="M688.32 705.129L694.432 724.985V735.178L665.832 730.529L664.641 717.339L676.858 700.551L688.32 705.129Z" fill="#5E4D4F"/>
<path d="M285.723 39.7354L306.357 32.852L327.732 16.0561L342.246 0L368.986 16.8036L403.364 59.5991L417.87 133.697L408.713 157.384L349.893 249.049L316.285 299.467L310.936 313.219L288.775 315.516L270.453 288.005L253.634 238.35L265.859 186.413L266.614 150.508L254.397 127.585L242.18 126.058L256.678 87.1017L272.735 64.9408L285.723 39.7354Z" fill="#6D5B5D"/>
<path d="M256.678 87.1017L272.735 64.9408L285.723 39.7354L306.357 32.852L312.836 27.7517L324.298 33.2413L354.09 58.4468L382.745 108.865L344.925 212L313.981 247.515L288.775 250.957L273.879 230.322L260.385 209.656L265.859 186.413L266.614 150.509L254.397 127.585L242.18 126.058L256.678 87.1017Z" fill="#AA8984"/>
<path d="M160.429 291.073L166.16 295.644L171.898 308.251L167.312 316.271L151.264 325.444L112.299 340.339L51.5789 349.504L11.462 347.215L0 339.187V331.167L14.8959 335.761L58.439 330.03L105.431 318.568L140.954 304.824L160.429 291.073Z" fill="#F9D9B9"/>
<path d="M0 339.187V338.564L9.7489 340.908H55.5734L106.576 332.888L156.419 311.685L167.849 299.366L171.898 308.251L167.312 316.271L151.264 325.444L112.299 340.34L51.5789 349.505L11.462 347.215L0 339.187Z" fill="#D8A97C"/>
</svg>
