<svg width="842" height="516" viewBox="0 0 842 516" fill="none" xmlns="http://www.w3.org/2000/svg">
<path d="M618.151 229.208L611.213 265.081L607.732 300.97L598.466 327.585L600.787 365.786L608.885 416.719L612.365 446.814L621.616 457.233L643.605 467.651L652.872 476.918V489.664L625.089 494.289L588.04 493.137L561.417 486.184L555.632 467.659L542.9 463.034L540.588 450.303L533.634 446.822L531.322 435.267C531.322 435.267 530.161 423.68 529.001 420.207C527.849 416.727 509.332 363.497 509.332 363.497L534.795 275.5L581.102 209.523L618.151 229.208Z" fill="#5B2A15"/>
<path d="M549.581 360.881L533.954 393.001L527.771 416.556C523.371 403.778 509.355 363.497 509.355 363.497L534.818 275.5L579.879 211.291C581.281 211.245 582.682 211.159 584.1 211.104L618.158 229.201L611.221 265.074L607.74 300.963L598.474 327.577L600.794 365.779L605.256 393.749C599.751 383.711 594.705 374.765 594.705 374.765L576.484 351.311L549.581 360.881Z" fill="#442115"/>
<path d="M748.953 87.9813L750.705 74.0899L746.656 63.6714L737.39 56.7257L728.708 56.1494L712.504 63.0951L747.816 87.4052L748.953 87.9813Z" fill="#442115"/>
<path d="M228.065 314.877L210.685 364.642L192.168 398.218L177.124 427.145L179.437 446.822L201.426 460.729L217.638 471.14L223.424 483.871L207.22 489.665H187.543H163.233L131.977 479.238L122.703 444.51L138.923 376.213L182.917 299.818L228.065 314.877Z" fill="#442115"/>
<path d="M840.423 186.382L831.157 182.901L797.588 151.645L781.392 112.292L752.457 84.5087L717.72 57.8783L676.038 49.7802L642.478 53.2531L596.17 40.5219L520.928 0L489.664 1.15251L391.264 23.1575L304.459 28.9353L187.534 19.677L153.966 24.31L78.7152 84.5009L2.32046 170.154L0 269.715L4.62523 357.696L31.2555 408.629L45.1471 476.918L63.6559 507.013L83.3483 515.119H136.586C138.906 510.494 166.697 513.967 166.697 513.967L179.42 511.654L172.475 488.504L143.539 480.398L136.578 461.874L137.738 437.572L182.893 334.539L204.883 328.761L240.756 334.539L269.699 318.342L314.854 324.12L364.626 331.074L407.461 306.756V339.179L413.246 397.065L421.352 412.109L417.871 421.368L422.512 428.306L430.618 431.786L434.076 443.357L438.716 457.241L435.243 466.499L439.877 476.918L445.662 503.548L480.391 508.189L519.752 510.502L546.375 502.396V487.336L532.483 476.918L513.974 469.98L504.716 453.768L511.654 412.094L531.339 318.335L569.54 260.448L584.584 237.283L622.777 240.772L634.356 265.066L662.139 261.601L701.501 247.709L723.49 229.193L752.441 228.04L792.939 230.361L803.366 229.201L809.144 221.095L824.203 216.469L841.56 197.945L840.423 186.382Z" fill="#6B331F"/>
<path d="M0.015625 269.722L2.33608 170.162L78.7311 84.5086L153.981 24.3177L187.55 19.6847L304.474 28.943L391.28 23.1653L489.68 1.1602L520.944 0.0078125L596.186 40.5296L642.494 53.2607L676.054 49.7879L717.736 57.8861L752.472 84.5165L776.65 107.736L774.454 123.87L750.137 134.297L738.566 143.555L729.307 135.449L736.253 111.139V96.0874L703.845 91.4544L677.214 98.4079L639.013 85.6611L591.561 75.2503L566.083 57.8783L547.574 62.5113L531.362 74.0824L518.623 59.0308L505.892 40.514L471.171 26.6226L438.755 38.1858C438.755 38.1858 383.198 48.6044 379.717 48.6044C376.252 48.6044 282.485 61.3355 282.485 61.3355L247.756 103.018L218.806 98.3923L166.713 82.1805L130.832 75.2348L85.6925 105.338L54.4289 155.11L47.4754 207.203L46.3307 248.877L62.5349 291.704L63.6794 329.905L48.6279 366.939L42.8423 395.897L54.4211 443.349L61.3746 467.652L68.3281 489.657L66.2023 508.041L63.6872 507.005L45.1784 476.91L31.287 408.621L4.65654 357.688L0.015625 269.722Z" fill="#5B2A15"/>
<path d="M62.6445 102.55L78.724 84.5086L153.974 24.3177L187.543 19.6769L304.46 28.943L391.273 23.1654L489.665 1.1602L520.929 0.0078125L596.171 40.5296L642.479 53.253L676.039 49.7802L717.721 57.8783L752.45 84.5086L773.661 104.886L764.021 104.186L738.543 78.731L714.241 62.5269L687.602 57.8938H627.419L597.332 54.421L578.807 40.5296L517.448 12.7468L487.361 10.4264L410.95 26.6382L368.123 33.576L276.669 34.7363L208.372 30.111L156.287 34.7363L123.879 55.5656L74.0909 96.0874L62.6445 102.55Z" fill="#723B1F"/>
<path d="M560.003 258.44V231.521L560.86 195.064V172.49L580.825 163.793L618.154 180.3L639.863 201.138L660.7 184.645L687.611 167.281L711.057 153.382L699.774 171.618L711.921 197.665L734.495 193.32L756.212 184.645L777.905 162.072L790.185 133.674L797.582 151.645L801.834 155.601L773.568 206.355L758.548 228.406L752.451 228.056L723.508 229.208L701.518 247.725L662.156 261.617L634.366 265.089L622.787 240.787L584.593 237.299L569.55 260.464L557.457 278.786L560.003 258.44Z" fill="#5B2A15"/>
<path d="M776.753 133.705L777.329 137.754L773.856 139.498L775.585 145.86L776.753 148.749L773.856 149.909L759.973 140.075L764.598 137.754L776.753 133.705Z" fill="#442115"/>
<path d="M728.039 229.029L737.391 209.531L751.282 199.113L770.959 181.748L784.858 159.759L793.245 141.102L797.582 151.645L831.158 182.901L840.424 186.382L841.576 197.952L824.212 216.477L809.161 221.102L803.383 229.208L792.957 230.376L752.45 228.056L728.039 229.029Z" fill="#723B1F"/>
<path d="M739.704 103.033C739.704 101.289 737.391 90.8704 737.391 90.8704L722.339 78.147L710.192 79.2995L699.197 87.9815L697.453 104.186L700.926 113.444L711.36 112.292L726.404 106.498L739.704 103.033Z" fill="#5B2A15"/>
<path d="M711.142 112.323L700.926 113.452L697.453 104.193L699.197 87.9893L710.192 79.3072L722.339 78.1548L737.391 90.8782C737.391 90.8782 739.704 101.297 739.704 103.041L737.181 103.695L731.598 92.0306L722.924 83.3563H711.929L707.296 92.6146L710.192 108.235L711.142 112.323Z" fill="#442115"/>
<path d="M828.252 187.526L832.169 183.275L840.423 186.382L841.575 197.953L834.598 205.381L831.733 200.265L832.309 193.911L827.691 192.736L828.252 187.526Z" fill="#5B2A15"/>
<path d="M780.792 211.844L799.324 217.053L816.463 218.867L809.159 221.102L808.879 221.499L801.068 219.95L794.115 218.79L784.857 217.053L775.014 215.893L766.332 216.461L762.859 214.164L766.332 210.107L780.792 211.844Z" fill="#5B2A15"/>
<path d="M269.721 318.342L240.786 334.538L204.905 328.761L182.915 334.538L154.182 400.102L151.075 390.4L150.211 348.718L152.804 310.524L164.967 257.575L161.494 211.556L170.176 206.354L187.54 221.966L254.389 248.885L311.683 260.176L361.167 252.358L390.694 232.385L429.768 200.265L441.923 204.61L440.187 223.711L452.341 255.823L472.307 274.059L500.082 291.424L515.709 322.679L522.663 359.713L511.66 412.101L504.722 453.776L513.981 469.987L532.49 476.925L546.389 487.336V502.396L519.766 510.501L480.405 508.189L445.676 503.556L439.89 476.925L435.257 466.507L438.73 457.241L434.097 443.357L430.632 431.786L422.526 428.298L417.893 421.367L421.374 412.101L413.268 397.065L407.482 339.179V306.756L364.648 331.073L314.876 324.128L269.721 318.342Z" fill="#5B2A15"/>
<path d="M131.103 499.795L136.6 515.127H131.258L127.637 504.996L117.211 496.314C118.947 491.977 131.103 499.795 131.103 499.795Z" fill="#5B2A15"/>
<path d="M158.894 495.45L165.84 506.733L165.365 513.819C164.08 513.663 161.923 513.453 159.353 513.243L158.029 503.268L147.619 494.586L139.801 491.985C140.657 488.512 158.894 495.45 158.894 495.45Z" fill="#5B2A15"/>
<path d="M197.088 307.059L204.041 284.478L229.208 288.815L294.328 294.897L336.002 299.234L385.479 291.431L415.862 279.276L427.153 304.443L422.808 326.144L423.672 373.028L432.346 409.501L447.982 436.419L442.773 462.458L437.454 471.506L435.243 466.499L438.716 457.241L434.075 443.357L430.618 431.786L422.512 428.305L417.871 421.367L421.352 412.109L413.246 397.065L407.46 339.179V306.756L364.626 331.073L314.853 324.12L269.698 318.342L240.755 334.538L204.882 328.761L185.852 333.767C189.488 324.992 197.088 307.059 197.088 307.059Z" fill="#442115"/>
<path d="M460.48 505.526L445.677 503.556L441.449 484.089L453.199 490.233L460.48 505.526Z" fill="#442115"/>
<path d="M513.936 510.151L505.184 509.637L504.429 500.659L491.402 490.233L488.809 485.031L510.502 493.714L513.936 510.151Z" fill="#442115"/>
<path d="M510.5 485.896C511.38 482.431 528.728 489.376 528.728 489.376L535.682 497.179L537.909 504.981L532.497 506.624L530.473 497.179L517.446 487.64L510.5 485.896Z" fill="#442115"/>
</svg>
