<svg width="938" height="574" viewBox="0 0 938 574" fill="none" xmlns="http://www.w3.org/2000/svg">
<path d="M77.5754 57.9197L73.7468 33.3347L65.5586 14.212L69.9283 4.92114L93.4106 19.1228L120.732 47.5262L77.5754 57.9197Z" fill="#6D574F"/>
<path d="M340.879 358.912L355.081 412.441L367.097 457.241L371.467 491.117L365.995 516.233L346.341 521.705L337.602 534.815V547.924L358.358 552.294L391.131 550.109L395.501 534.815L407.518 510.781L403.148 494.395L398.778 441.947L393.326 357.819L386.761 305.382L345.249 313.029L340.879 358.912Z" fill="#876E62"/>
<path d="M401.387 510.914L394.414 523.206L391.545 537.541L387.859 533.855L391.545 507.636L401.387 510.914Z" fill="#6D574F"/>
<path d="M393.326 357.819L386.761 305.382L345.249 313.029L340.879 358.912L355.081 412.441L364.463 447.42L367.373 415.453L378.839 375.707L394.204 371.48L393.326 357.819Z" fill="#AD8F80"/>
<path d="M372.286 534.263L371.878 531.803L365.731 533.447L356.716 542.053L353.316 551.242L357.38 552.09L358.35 548.2L362.035 540.001L372.286 534.263Z" fill="#6D574F"/>
<path d="M342.372 539.185L339.891 548.414L342.729 549.006L344.015 542.87L347.691 535.499L353.847 529.353L348.518 530.169L342.372 539.185Z" fill="#6D574F"/>
<path d="M398.783 441.947L393.331 357.819L386.766 305.382L372.707 307.965L384.581 385.13L391.952 438.394L395.23 485.92L406.746 512.343L407.522 510.781L403.152 494.395L398.783 441.947Z" fill="#D6C9C3"/>
<path d="M756.047 143.681L789.923 144.774L841.267 175.362L904.639 262.767L933.042 329.416L937.412 375.298L924.303 406.979H905.731L847.822 349.08L816.141 248.565L791.015 195.026L771.341 178.639L756.047 143.681Z" fill="#AD8F80"/>
<path d="M921.293 364.639L896.708 349.08L869.673 323.678L849.999 285.177L819.686 223.705L796.735 179.466L767.535 169.961L771.333 178.649L791.007 195.036L816.133 248.576L847.804 349.09L905.713 406.989H924.295L937.394 375.309L935.781 358.381C933.606 357.258 931.932 356.462 931.932 356.462L921.293 364.639Z" fill="#D6C9C3"/>
<path d="M922.509 304.688L904.642 262.767L841.271 175.362L789.926 144.774L784.352 144.59L822.148 170.441L855.748 214.7L880.333 263.043L907.368 299.093L922.509 304.688Z" fill="#876E62"/>
<path d="M582.331 291.171L597.625 349.08L627.131 397.157L652.257 431.023L653.349 447.41L631.501 492.21L620.566 510.781L614.011 517.326L591.07 524.983L574.684 546.821L579.063 551.201L617.299 549.016L639.148 543.554L643.517 518.418L674.106 480.193L698.149 447.41L705.797 431.023L703.601 415.719L687.215 394.973L688.307 326.129L654.442 275.866L582.331 291.171Z" fill="#876E62"/>
<path d="M687.216 394.973L688.309 326.129L654.443 275.866L582.332 291.171L597.626 349.08L623.252 390.838L638.608 376.391L665.909 370.918L677.946 396.065L697.599 425.561L691.27 456.782L698.151 447.41L705.798 431.023L703.603 415.719L687.216 394.973Z" fill="#AD8F80"/>
<path d="M698.152 447.409L705.799 431.023L703.604 415.719L687.218 394.973L688.31 326.129L683.542 319.043C676.334 324.914 669.197 331.05 669.197 331.05C668.656 333.234 671.934 388.418 671.934 388.418L682.848 422.283V450.687L662.091 482.909L641.335 512.415L636.414 528.801L640.753 534.304L643.52 518.418L674.108 480.183L698.152 447.409Z" fill="#D6C9C3"/>
<path d="M2.18487 187.379L28.4034 155.698L40.4304 133.839L41.5229 115.268L50.2623 86.8642L73.2035 55.1835L99.4221 43.1565L156.229 46.4338L191.197 61.7381L213.046 68.2928L311.365 74.8474L343.066 67.2003L363.812 65.0154L396.596 80.3096L479.631 89.0593L576.868 84.6895L638.055 75.95L697.057 86.8642L766.963 134.942L786.637 202.673L795.377 285.708L784.462 361.097L792.099 391.695L810.681 413.544L819.42 421.181L815.051 465.981L797.572 532.63L788.822 542.462L781.175 564.311L756.049 573.05L745.124 571.958L741.847 564.311L725.461 567.588L715.629 559.941L730.923 535.907L758.234 530.445L765.881 517.326L781.175 440.855L744.032 414.626L715.629 384.048L659.904 329.416L633.685 295.55L606.364 299.92L515.682 313.029L415.167 321.769L358.36 325.046L344.149 377.483L333.234 438.67L327.752 479.1L331.039 499.847V509.678L313.57 533.722L304.831 561.033L298.266 566.495H254.569L243.644 563.218L248.004 547.924L272.048 531.537L290.619 487.84L291.712 450.687L274.243 332.683L264.401 309.742L227.248 285.708L192.289 243.103L179.18 238.734L162.783 252.935L143.12 238.734L112.531 198.303L90.6928 190.656L58.9916 209.238L42.6051 215.792L18.5714 210.33L0 199.396L2.18487 187.379Z" fill="#AD8F80"/>
<path d="M819.055 424.856L799.749 423.365L783.362 409.174L760.421 381.853L730.925 335.97L698.152 313.029L642.428 255.12L627.133 219.069L606.367 213.597L581.241 233.271L549.56 238.733L486.189 248.565L437.019 249.658L385.674 243.103L351.808 238.733L338.699 250.74L347.439 285.708L358.363 308.659L359.915 324.954L415.17 321.769L515.684 313.029L606.367 299.92L633.688 295.55L659.907 329.416L715.631 384.048L744.035 414.626L781.177 440.855L765.883 517.325L758.236 530.445L730.925 535.907L715.631 559.941L725.463 567.588L741.85 564.31L745.127 571.957L756.051 573.05L781.177 564.31L788.824 542.462L797.574 532.63L815.053 465.981L819.055 424.856Z" fill="#D6C9C3"/>
<path d="M264.398 312.927L265.939 316.603L266.583 290.517L254.566 261.379L257.843 225.532L243.641 191.912L230.522 185.194L223.978 203.122L206.488 234.496L207.315 263.369L227.245 288.281L264.398 312.927Z" fill="#D6C9C3"/>
<path d="M155.147 235.446L151.869 209.238L134.38 187.368L120.178 169.9L124.548 157.883L146.397 141.486V124.017L103.792 121.832L87.4052 145.856L73.2035 149.133L48.0775 162.252L39.338 157.883L26.9638 157.444L2.18487 187.379L0 199.395L18.5714 210.33L42.6051 215.792L58.9916 209.238L90.6928 190.656L112.531 198.303L143.12 238.733L156.647 248.504L155.147 235.446Z" fill="#D6C9C3"/>
<path d="M277.501 263.859L267.68 238.733C267.68 238.733 272.049 204.868 272.049 201.58C272.049 198.293 275.337 168.817 275.337 168.817L276.419 120.74L294.991 93.429L286.261 132.747L296.093 184.101L304.833 216.885L296.093 240.918L277.501 263.859Z" fill="#876E62"/>
<path d="M62.5417 116.36L51.8828 131.103C54.3434 131.919 65.819 120.444 65.819 120.444L62.5417 116.36Z" fill="#876E62"/>
<path d="M58.0391 112.266L62.9499 118.821L64.5937 123.742L70.7297 118.821L75.6508 108.58L67.044 111.041L58.0391 112.266Z" fill="#6D574F"/>
<path d="M64.5977 113.491L66.2414 117.177L67.875 115.543L67.4564 113.083L64.5977 113.491Z" fill="#AD8F80"/>
<path d="M0 199.395L14.3855 207.869L12.5579 197.486L18.2958 194.209L17.479 187.654L10.9244 186.837L8.30048 179.997L2.18487 187.378L0 199.395Z" fill="#6D574F"/>
<path d="M66.6418 193.392L45.3444 207.053L29.7031 212.852L34.1035 213.852L47.5191 207.584L58.4536 201.039L74.8504 191.207L87.4084 186.837L89.0419 183.55L82.4873 183.009L66.6418 193.392Z" fill="#6D574F"/>
<path d="M60.082 97.2372L65.5442 81.402L87.4032 61.7381L101.054 59.5532L98.3276 77.5836L110.885 93.4188L142.035 102.71L143.118 115.819L130.549 111.449L104.882 103.802L94.4989 106.528L84.667 97.7886L60.082 97.2372Z" fill="#876E62"/>
<path d="M134.656 164.703L142.844 180.273L152.687 179.466L142.038 165.53L139.567 158.158L134.656 164.703Z" fill="#876E62"/>
<path d="M150.227 166.347L173.168 181.917L188.738 202.397L201.03 206.501L207.585 204.041L192.821 192.575L181.356 167.163L146.949 149.95L150.227 166.347Z" fill="#876E62"/>
<path d="M158.415 201.58L162.509 222.888L178.089 222.071L189.554 226.176L193.659 222.071L180.539 213.873L172.351 192.575L159.232 181.917L150.227 185.194L158.415 201.58Z" fill="#876E62"/>
<path d="M201.848 218.794L207.585 213.056L189.555 207.318L188.738 211.422L201.848 218.794Z" fill="#876E62"/>
<path d="M678.741 92.6021L727.9 122.925L744.297 155.698V199.937L741.837 219.611L772.976 258.949L774.61 276.979L779.521 308.935L789.618 325.445L795.376 285.719L786.637 202.693L766.963 134.952L697.047 86.8847L638.055 75.9705L576.868 84.71L479.631 89.0798L396.596 80.3403L363.822 65.0461L343.076 67.231L311.375 74.8781L215.812 68.5072L219.886 74.6024C219.886 74.6024 245.278 80.3403 247.738 79.5235C250.199 78.6965 291.17 82.8008 291.17 82.8008L323.943 95.9101L363.271 101.658L395.228 97.5538L399.332 112.307L400.149 126.243L411.614 131.154L432.095 114.767L460.774 104.935L532.058 99.2078L573.856 97.564L618.105 91.8262L678.741 92.6021Z" fill="#876E62"/>
<path d="M323.128 512.547L314.511 522.798L305.098 527.3L304.281 524.441L316.155 513.374L321.076 501.898L323.128 512.547Z" fill="#6B5951"/>
<path d="M262.482 554.754L278.052 548.199L277.225 544.922L260.011 551.477L255.438 566.495H260.981C261.4 562.35 262.482 554.754 262.482 554.754Z" fill="#6B5951"/>
<path d="M258.385 545.331L249.38 553.11L247.012 564.239L249.595 565.005L251.004 554.754L258.794 546.964L258.385 545.331Z" fill="#6B5951"/>
<path d="M319.849 276.152L320.666 314.663L303.453 338.421L290.343 343.342L284.605 333.51L300.175 316.296L311.651 283.523L319.849 276.152Z" fill="#876E62"/>
<path d="M368.191 292.539H354.255L347.69 329.416L334.591 385.957L323.125 443.315L322.309 474.455L328.659 484.736L327.75 479.1L333.233 438.67L344.147 377.483L358.359 325.046L377.349 323.944L379.656 313.029L368.191 292.539Z" fill="#D6C9C3"/>
<path d="M797.559 429.389L804.113 449.043L803.296 472.811L809.861 445.776L807.391 429.389H797.559Z" fill="#876E62"/>
<path d="M815.05 465.981L819.053 424.856L810.803 424.223L815.05 431.564L810.681 464.348L802.482 494.936L791.568 523.349L780.082 540.818L776.754 565.842L781.175 564.311L788.822 542.462L797.571 532.63L815.05 465.981Z" fill="#876E62"/>
<path d="M739.109 541.921L726 557.215L723.805 566.312L725.459 567.588L727.501 567.19C728.787 563.096 730.921 557.215 730.921 557.215L745.123 541.369L750.585 539.726L750.044 536.99L739.109 541.921Z" fill="#876E62"/>
<path d="M759.868 544.095L748.392 555.03L742.43 565.679L745.125 571.958L745.646 572.009C746.973 567.016 748.954 559.93 748.954 559.93L760.429 547.914L759.868 544.095Z" fill="#876E62"/>
<path d="M179.718 75.3885L193.583 62.4528L191.193 61.7381L165.731 50.5891L163.331 74.5717L158.41 90.9685L169.069 99.9734L179.718 75.3885Z" fill="#876E62"/>
<path d="M99.4221 43.1565L73.2035 55.1733L50.2521 86.8642L41.5229 115.268L40.4304 133.839L28.4034 155.698L2.18487 187.379L0 199.396L2.55243 200.896L6.55463 188.471L15.2941 177.557L34.4067 158.434L45.3413 138.229L45.8722 122.384C45.8722 122.384 52.437 96.7064 52.437 95.0728C52.437 93.429 66.6387 69.3954 66.6387 69.3954L81.3815 56.2862L96.6756 47.5467L110.877 44.8207L111.357 43.8712L99.4221 43.1565Z" fill="#D6C9C3"/>
<path d="M149.685 85.2306L131.491 79.9726L121.271 77.0322L111.449 68.2927L102.7 67.7414L98.8711 60.1045L108.713 30.5883L111.991 4.37997L116.901 0L137.668 26.2287L150.226 61.1969L149.685 85.2306Z" fill="#CF867C"/>
<path d="M123.469 31.1498L115.261 48.6186L110.258 68.211L111.452 68.2927L121.274 77.0322L131.494 79.9726L131.698 80.0338L137.12 70.4776L138.212 50.2624L126.195 21.3179L123.469 31.1498Z" fill="#D6C9C3"/>
<path d="M116.901 0L111.991 4.37997L108.713 30.5883L98.8711 60.1045L102.7 67.7414L103.343 67.7924L105.436 53.5499L110.347 37.7044L113.624 12.5681L118.535 15.8455L128.918 36.0607L131.644 56.2759L126.733 69.3851L120.546 76.3992L121.271 77.0322L131.491 79.9726L149.685 85.2306L150.226 61.1969L137.668 26.2287L116.901 0Z" fill="#6D574F"/>
<path d="M606.364 299.92L633.685 295.55L659.904 329.416L715.628 384.048L740.162 410.46L724.368 380.76L675.198 321.769L648.969 282.421L619.473 270.414L557.194 288.986L421.722 297.735L368.192 295.55L347.426 296.643L351.796 316.296L353.817 341.821L358.36 325.046L415.167 321.769L515.682 313.029L606.364 299.92Z" fill="#D6C9C3"/>
</svg>
