<svg width="512" height="376" viewBox="0 0 512 376" fill="none" xmlns="http://www.w3.org/2000/svg">
<path d="M363.848 145.992L394.114 165.264L405.81 178.322L408.567 182.449L420.947 190.711L425.074 194.83L431.265 200.335C431.265 200.335 453.963 221.663 454.648 223.719C455.341 225.79 453.27 227.153 453.27 227.153C453.27 227.153 462.217 235.414 464.288 237.47C466.344 239.541 480.788 258.105 480.788 258.105L497.981 282.189L508.298 308.329L511.047 340.651L508.298 348.212C508.298 348.212 492.476 346.148 490.412 344.778C488.341 343.407 459.452 338.588 459.452 338.588L436.762 320.71C436.762 320.71 409.244 291.128 408.559 289.072C407.866 286.993 396.863 276.684 396.178 274.628C395.485 272.557 388.609 268.438 388.609 265.689C388.609 262.932 387.231 240.92 387.231 240.92L381.041 218.914C381.041 218.914 371.409 202.399 371.409 199.65C371.416 196.901 363.848 145.992 363.848 145.992Z" fill="#D8650F"/>
<path d="M462.21 329.633L458.083 323.451L471.842 320.702L480.096 305.572L491.106 306.25L500.73 311.077L506.477 303.688L508.299 308.329L511.047 340.651L508.299 348.212C508.299 348.212 492.476 346.149 490.413 344.778C488.342 343.408 459.453 338.588 459.453 338.588L453.574 333.955L462.21 329.633Z" fill="#D6C9C3"/>
<path d="M370.078 189.006L383.806 193.452L395.494 236.092L410.623 260.861L434.7 289.75L455.334 311.077L471.834 320.702L487.664 330.326L510.355 332.592L511.048 340.643L508.299 348.204C508.299 348.204 492.477 346.141 490.413 344.77C488.342 343.4 459.453 338.58 459.453 338.58L436.763 320.702C436.763 320.702 409.245 291.12 408.56 289.064C407.867 286.985 396.864 276.676 396.179 274.62C395.486 272.549 388.61 268.43 388.61 265.681C388.61 262.925 387.232 240.912 387.232 240.912L381.042 218.907C381.042 218.907 371.41 202.391 371.41 199.642C371.417 198.903 370.872 194.721 370.078 189.006Z" fill="#D6C9C3"/>
<path d="M81.8455 29.4103C81.3316 27.8607 71.5283 9.81125 71.5283 9.81125L63.7961 7.22607L62.2465 12.9102L61.7403 22.7215L61.2266 36.1224L81.8455 29.4103Z" fill="#66524A"/>
<path d="M273.054 229.216L271.676 258.797L279.937 280.109L293.011 294.569L304.691 304.194L306.755 311.754L304.691 325.506L295.76 344.77L293.011 347.519L285.443 349.59L278.559 357.844L279.937 363.341H297.816L309.519 362.656L310.89 353.024L314.324 348.897L315.016 342.021L322.577 327.577L333.572 307.62L330.839 298.003L319.143 291.813L311.567 265.681L304.691 216.15L273.054 229.216Z" fill="#D8650F"/>
<path d="M293.011 347.519L295.759 344.77L304.691 325.506L306.754 311.755L305.431 306.872L310.196 304.871L316.394 309.006L326.018 306.943L332.956 305.455L333.571 307.62L322.577 327.577L315.016 342.021L314.323 348.897L310.889 353.024L309.518 362.656L297.815 363.341H279.937L278.559 357.844L285.442 349.59L293.011 347.519Z" fill="#44352E"/>
<path d="M115.547 223.711L118.988 266.358L121.737 298.003L122.422 315.196L117.61 333.082L108.671 336.516L102.48 344.085L103.166 350.96L121.044 350.275L129.999 341.328L138.245 309.699V230.594L115.547 223.711Z" fill="#D8650F"/>
<path d="M102.48 344.085L108.671 336.516L117.61 333.082L122.422 315.196L121.737 298.003L118.988 266.358L118.023 254.453L129.306 251.229L138.245 257.489V309.699L129.999 341.328L121.044 350.275L103.166 350.96L102.48 344.085Z" fill="#66524A"/>
<path d="M0 83.4028L4.12692 95.7914L15.1294 104.045L37.1345 101.974H54.3353L67.4014 112.299L81.8456 157.68L92.1551 196.2L105.914 218.899L121.737 238.155L130.676 244.345L133.432 295.932L134.81 328.955L136.189 337.887L131.377 353.717L122.43 355.773L116.239 367.461L119.681 370.217L146.506 367.461L153.382 341.32L154.589 325.498L156.13 310.034L160.943 295.924L167.818 242.282L176.757 235.391L197.4 240.203L234.534 239.525L281.994 232.642L295.068 251.899L302.637 271.856L320.523 287.678L351.475 303.485L359.728 311.062L354.908 353.709L346.654 356.45L339.086 362.648L337.022 375.021L343.898 375.714H361.091L372.101 366.09L376.914 361.963L378.292 335.831L388.609 299.382L372.101 278.739L370.03 260.168L379.662 227.16L387.924 195.515C387.924 195.515 383.104 170.754 382.419 168.69C381.726 166.627 364.533 142.566 364.533 142.566L327.383 126.751L262.73 121.246L207.709 115.733L193.942 108.172L173.308 106.101L162.305 101.297L144.419 74.4636L116.909 39.3925L92.8248 26.3267L68.0632 28.39L41.246 48.3317L35.0633 60.0271L24.7383 68.9663L0 83.4028Z" fill="#D8650F"/>
<path d="M122.421 355.781L131.376 353.725L136.188 337.895L134.809 328.964L133.431 295.932L131.056 251.408L140.315 249.166L143.063 242.975L158.886 237.47L167.249 246.775L160.949 295.932L156.129 310.042L154.588 325.506L153.381 341.329L146.505 367.468L119.68 370.225L116.23 367.468L122.421 355.781Z" fill="#44352E"/>
<path d="M320.521 287.694L316.395 284.042L322.577 284.244L354.222 289.75L367.973 287.001L371.937 277.268L372.108 278.739L388.616 299.39L378.299 335.831L376.92 361.971L372.108 366.098L361.098 375.722H343.905L337.029 375.029L339.085 362.664L346.653 356.466L354.907 353.725L359.727 311.077L351.466 303.501L320.521 287.694Z" fill="#44352E"/>
<path d="M165.77 229.901L169.196 223.711L202.896 227.145H242.795L273.054 225.089L284.064 224.404L281.993 232.658L234.541 239.541L197.407 240.219L176.764 235.406L170.122 240.507L165.77 229.901Z" fill="#D6C9C3"/>
<path d="M18.5646 88.215L34.3794 80.6541L46.7678 75.1489L65.3312 77.8898L88.7302 87.5297L103.86 92.3341L107.294 100.588L103.167 119.175L99.7327 154.931L103.167 180.386L118.989 212.7L125.873 230.594L126.838 241.682L121.738 238.155L105.915 218.906L92.1563 196.208L81.8467 157.68L67.4026 112.299L54.3365 101.974H37.1357L15.1306 104.045L4.12811 95.7914L2.72656 91.6022L18.5646 88.215Z" fill="#D6C9C3"/>
<path d="M143.065 360.585L147.885 337.894L148.562 311.755L154.067 291.12V233.343L151.311 217.528L163.699 209.267L209.781 218.907L257.934 216.15L292.32 203.084L301.251 207.203L296.447 223.026L315.018 261.546L342.528 286.316L365.226 309.699L360.414 340.651L355.952 344.404L359.729 311.077L351.467 303.501L320.523 287.694L302.637 271.864L295.068 251.914L281.995 232.658L234.543 239.541L197.408 240.219L176.766 235.406L167.819 242.298L160.951 295.932L156.131 310.042L154.589 325.506L153.382 341.328L146.507 367.468L141.422 367.99L143.065 360.585Z" fill="#D6C9C3"/>
<path d="M84.6016 33.1866L72.2129 31.1309C72.2129 31.1309 70.9204 29.9239 69.3008 28.281L92.84 26.3188L116.924 39.3847L144.434 74.4561L162.32 101.289L173.323 106.093L193.958 108.164L207.724 115.725L262.745 121.238L327.398 126.744L355.025 138.494L339.093 137.053L279.938 128.114L225.603 125.357L200.833 128.791L174.693 125.357L158.193 117.789L147.183 98.5323C147.183 98.5323 121.736 63.4534 121.051 61.39C120.366 59.3265 104.543 40.07 104.543 40.07L84.6016 33.1866Z" fill="#FF7E27"/>
<path d="M50.3808 57.7224L39.2925 63.5469L32.0664 67.666L36.4504 62.8148L45.9968 56.749L50.3808 57.7224Z" fill="#66524A"/>
<path d="M92.1639 0L99.9116 3.61293L112.798 36.6362L110.213 42.8267L94.2272 53.1517L91.1359 46.4318L85.4596 40.2336L80.3047 39.7353L80.8108 25.2834L92.1639 0Z" fill="#FF7E27"/>
<path d="M94.7414 6.7121L90.9883 2.61631L92.1641 0L99.9118 3.61293L112.799 36.6362L110.214 42.8267L94.2274 53.1517L92.569 49.5231L94.7414 37.1423V19.599V6.7121Z" fill="#D8650F"/>
<path d="M84.4301 29.4106L84.9441 20.6427L91.1344 9.80371L91.6562 17.5436L91.1344 31.9801L89.4603 44.6023L85.4581 40.2339L83.6904 40.0704L83.3945 39.214L84.4301 29.4106Z" fill="#D6C9C3"/>
<path d="M92.1641 0L99.9118 3.61293L107.566 23.2355L100.41 20.1206L94.7414 22.2465V19.599V6.7121L90.9883 2.61631L92.1641 0Z" fill="#44352E"/>
<path d="M8.98438 99.4356L14.7854 98.7895L24.0672 97.2475L38.5114 93.1206L51.9201 94.4133V95.9551L44.7019 95.4411L37.9976 95.1685L27.174 98.0108L17.8767 100.339L11.6164 101.413L8.98438 99.4356Z" fill="#66524A"/>
<path d="M4.98334 88.2154L2.86535 92.0075L0 83.4032L2.89671 81.7134L7.04692 82.5389V85.6378L3.69087 86.1518V88.2154H4.98334Z" fill="#66524A"/>
<path d="M44.4556 53.9072L44.9696 55.7291L44.4556 58.3067L42.8984 60.0975L48.5749 59.3345L53.7375 59.0619L49.852 55.9784L44.4556 53.9072Z" fill="#44352E"/>
</svg>
