<svg width="839" height="426" viewBox="0 0 839 426" fill="none" xmlns="http://www.w3.org/2000/svg">
<path d="M12.5076 205L16.5411 243.046L24.647 268.119L21.4077 291.596L10.0781 327.227V342.591L23.8294 349.077L35.1823 374.173L32.7451 396.023L35.1823 402.478L107.201 408.154L116.927 401.691L118.539 396.023L112.87 387.115L100.738 381.446L83.7322 370.934L79.6909 356.365L87.7813 323.178L95.0618 272.176L12.5076 205Z" fill="#5E4D4F"/>
<path d="M116.927 401.691L118.539 396.023L112.87 387.115L100.738 381.446L83.7322 370.934L79.6909 356.365L87.7813 323.178L95.0618 272.176L12.5076 205L16.5411 243.046L24.647 268.119L21.4077 291.596L10.0781 327.227V342.591L21.1274 347.8L20.6057 329.641L34.3492 311.023L56.2219 318.312L70.783 351.498L73.2124 371.736L91.0205 379.826L103.16 391.156L108.089 407.57L116.927 401.691Z" fill="#47383B"/>
<path d="M44.8849 387.115L42.4555 372.554L31.3828 365.771L35.1827 374.173L32.7455 396.023L35.1827 402.478L44.0673 403.194L44.8849 387.115Z" fill="#5E4D4F"/>
<path d="M604.475 254.368L596.369 289.166L589.073 326.402L587.476 348.259L593.931 372.554L605.269 379.017L611.747 388.734L612.565 396.825L578.561 397.635L559.141 385.495L563.984 335.302L596.369 231.716L604.475 254.368Z" fill="#5E4D4F"/>
<path d="M631.454 237.105H636.85L660.062 257.599L680.012 260.309L684.871 261.376L691.349 269.482L703.761 293.745L734.526 318.039L745.848 318.584L777.143 307.231L784.166 294.827L789.025 288.364L779.852 274.87V266.235L794.406 258.137L816.535 252.756L827.873 232.238L838.128 212.818V207.414L832.179 211.191L814.371 227.924L799.81 231.156L773.903 228.461L761.499 224.677L759.335 218.214L764.738 206.347L770.656 192.853L767.433 187.986L748.55 187.449L732.891 183.128L729.667 172.888L718.859 116.77L712.389 101.11L666.525 80.0788L627.942 51.2057L585.03 18.8288L560.751 5.06198L523.523 0.195312L491.138 5.06198L456.348 15.574L412.618 25.2995L347.871 29.3485L259.648 18.019L205.422 0.195312L193.275 1.0206L130.148 25.2995L76.7164 24.4897L62.1397 35.8194L10.3584 106.234L0.640625 141.866L1.44266 205L24.9117 258.417L68.626 301.306L89.6734 312.651L99.3756 331.261L101.821 362.844L104.242 373.348L115.572 378.215L131.768 384.693L139.858 391.974L143.908 414.641L152.808 419.492L177.904 423.533L224.025 425.963L232.94 420.302V411.394L219.181 395.213L188.424 382.264L175.467 355.555L159.286 308.61L157.659 298.082V288.364L179.516 267.317L185.177 251.136L194.085 252.756L262.888 290.802L304.165 307.784L389.958 306.982L454.712 302.139L478.189 282.696L491.138 280.266L501.674 298.876L508.962 308.61L504.897 348.259L505.715 369.307L510.574 383.058L504.095 396.825V405.733L526.755 417.864L559.139 419.492L586.65 415.443V399.27L572.883 390.362L563.181 374.173L563.983 353.118L575.328 315.088L585.03 268.937L593.136 271.374L599.607 262.45L602.846 247.087L611.746 243.84L622.258 247.889L628.744 245.452L631.454 237.105Z" fill="#6D5B5D"/>
<path d="M633.169 237.104L631.97 227.659L636.844 213.09L652.223 187.176L670.031 166.939L693.492 158.856L692.698 128.909L698.359 111.911L689.459 116.769L670.841 128.909L651.421 149.948L627.944 147.527L606.897 124.86L592.328 100.573L586.651 76.2943L576.949 72.2529L574.512 81.9473V106.779L583.155 154.27L594.485 188.274L583.428 200.943L553.464 234.13L549.439 227.659L537.284 223.61L509.75 230.898L498.436 235.742L494.371 209.049L497.626 189.621L491.14 188.812L479.81 200.943L461.193 213.892L407.784 221.173L330.875 233.328L209.465 205.802L164.139 195.29L134.993 160.468L126.093 135.372L128.523 114.332H123.664L121.25 124.86L122.862 154.815L146.331 186.374L180.32 218.759L186.798 238.981V251.424L194.086 252.756L262.889 290.801L304.167 307.784L389.96 306.982L454.714 302.139L478.191 282.695L491.14 280.266L501.675 298.876L508.964 308.609L504.899 348.259L505.717 369.307L510.576 383.058L505.53 393.757L517.856 388.734L534.052 383.883L543.755 381.446L541.325 370.934L547.811 331.261L553.464 298.876L573.702 277.837L583.264 277.385L585.032 268.936L593.138 271.374L599.608 262.45L602.848 247.087L611.748 243.84L622.26 247.889L628.746 245.452L631.456 237.104H633.169Z" fill="#5E4D4F"/>
<path d="M645.742 80.3356L677.317 93.2927L704.157 97.3419L666.524 80.0788L627.941 51.2057L585.029 18.8288L560.75 5.06198L523.522 0.195312L491.137 5.06198L456.347 15.574L412.617 25.2995L347.871 29.3485L259.648 18.019L205.421 0.195312L193.274 1.0206L130.148 25.2995L76.7154 24.4897L62.1388 35.8194L10.3575 106.234L7.42188 116.949L30.5872 83.5828L61.329 43.9019L78.3351 32.58L108.29 34.2076L142.279 35.0096L178.705 25.2995H222.42L275.828 40.6782L353.539 50.3883L412.617 49.586L453.107 41.4959L504.896 30.1583L542.14 25.2995L586.649 38.2565L618.216 58.4941L645.742 80.3356Z" fill="#AA8984"/>
<path d="M735.148 183.758L739.377 194.465L748.012 207.414L755.565 214.967L759.661 217.49L764.738 206.347L770.656 192.853L767.432 187.986L748.549 187.449L735.148 183.758Z" fill="#AA8984"/>
<path d="M768.693 189.894L767.432 187.986L748.549 187.449L735.148 183.758L738.333 191.833L752.318 194.465L768.693 189.894Z" fill="#C4B3AB"/>
<path d="M751.734 211.152L755.565 214.967L759.661 217.49L764.738 206.347L765.844 203.801L751.734 211.152Z" fill="#6D5B5D"/>
<path d="M719.007 183.953L707.662 180.309L697.142 185.16L695.125 196.902L695.709 203.653L701.183 211.868L719.007 212.685L727.089 202.571L725.065 190.018L719.007 183.953Z" fill="#6D5B5D"/>
<path d="M707.661 187.986L704.422 194.075L706.851 200.538L717.371 202.166L717.776 198.514L719.396 191.638L707.661 187.986Z" fill="#47383B"/>
<path d="M725.065 190.018L719.007 183.953L707.662 180.309L697.143 185.16L696.527 188.718L703.621 188.407L713.736 191.638L727.067 202.462L725.065 190.018Z" fill="#AA8984"/>
<path d="M722.123 208.784L715.753 209.049L702.804 207.414L695.5 201.239L695.71 203.653L701.184 211.868L719.008 212.686L722.123 208.784Z" fill="#5E4D4F"/>
<path d="M741.263 314.668L734.38 307.372L721.43 293.216L720.2 282.696L710.101 262.871L693.492 251.136L670.436 247.492L644.537 233.733L634.952 203.91L625.109 243.451L626.589 246.277L628.746 245.452L631.456 237.105H636.852L660.064 257.599L680.013 260.309L684.872 261.376L691.351 269.482L703.763 293.745L734.528 318.039L745.849 318.585L749.758 317.152L741.263 314.668Z" fill="#5E4D4F"/>
<path d="M779.851 274.87V266.235L784.695 263.556L779.299 260.838L775.654 268.937L777.274 277.837L780.116 288.364L773.217 300.099L759.801 313.531L777.142 307.231L784.165 294.827L789.024 288.364L779.851 274.87Z" fill="#5E4D4F"/>
<path d="M767.704 294.967L770.538 284.86L767.704 275.15L763.655 273.928L759.605 275.15L760.415 283.646L763.655 292.553L767.704 294.967Z" fill="#AA8984"/>
<path d="M757.996 277.042L763.93 278.382L766.351 284.043V289.447L764.459 295.645L761.228 290.802L759.335 284.588L757.996 277.042Z" fill="#47383B"/>
<path d="M570.624 386.57L558.601 390.899L526.216 394.139L521.91 398.437L538.091 396.825L565.072 398.99L586.649 399.831V399.27L572.882 390.362L570.624 386.57Z" fill="#AA8984"/>
<path d="M187.605 226.857L175.466 256.781L151.187 278.647L146.328 301.306L153.609 329.641L166.566 352.316L181.687 368.38L175.466 355.555L159.285 308.61L157.658 298.082V288.364L179.515 267.317L185.176 251.136L194.084 252.756L200.344 256.205L207.843 236.567L187.605 226.857Z" fill="#5E4D4F"/>
<path d="M139.056 378.215L147.412 353.928L164.402 345.838L149.841 308.61L106.679 302.139L83.2104 288.364L43.5374 255.995L11.9624 192.035L6.62078 119.892L0.640625 141.866L1.44266 205L24.9117 258.417L68.626 301.306L89.6734 312.651L99.3756 331.261L101.821 362.844L104.242 373.348L115.572 378.215L131.768 384.693L139.858 391.974L143.908 414.641L144.787 415.108L151.188 408.972L145.519 394.403L139.056 378.215Z" fill="#5E4D4F"/>
<path d="M50.8164 243.848L72.6736 269.746L97.7544 281.092L108.282 284.315L107.472 279.994L76.1854 264.35L54.3204 240.593L50.8164 243.848Z" fill="#5E4D4F"/>
<path d="M219.182 395.213L195.316 385.152L178.707 398.437L165.75 403.303L179.517 404.097L211.894 398.437L219.244 395.291L219.182 395.213Z" fill="#AA8984"/>
<path d="M838.129 207.414L832.18 211.191L814.372 227.924L799.811 231.156L773.905 228.461L766.749 226.289L766.344 234.403L769.591 250.062L772.83 259.234L780.586 265.837L794.407 258.136L816.537 252.756L827.874 232.238L838.129 212.818V207.414Z" fill="#AA8984"/>
<path d="M810.588 234.403L827.329 223.081L836.502 208.442L832.18 211.191L814.372 227.924L799.811 231.156L773.905 228.462L766.749 226.289L766.344 234.403L766.609 235.672L792.25 237.634L810.588 234.403Z" fill="#C4B3AB"/>
<path d="M813.843 246.277L788.482 253.293L771.195 254.578L772.831 259.234L780.586 265.837L794.407 258.137L816.537 252.756L823.047 240.975L813.843 246.277Z" fill="#6D5B5D"/>
<path d="M684.605 103.813L695.935 98.9614L712.933 88.4261L755.815 84.3926H766.342V88.4261L750.154 101.391L730.734 111.911L718.594 107.869L701.604 115.15L695.935 120.819L684.605 103.813Z" fill="#6D5B5D"/>
<path d="M701.604 115.15L718.594 107.87L730.734 111.911L750.154 101.391L754.444 97.957L744.493 98.9615L725.065 101.391L712.934 105.44L701.604 111.101L701.137 115.602L701.604 115.15Z" fill="#5E4D4F"/>
<path d="M430.705 285.133L374.851 289.166L287.423 273.803L212.974 242.22L181.695 223.026L186.796 238.981V251.424L194.084 252.756L262.887 290.802L304.164 307.784L389.957 306.982L454.711 302.139L478.188 282.696L485.609 281.302L430.705 285.133Z" fill="#47383B"/>
<path d="M622.149 245.062L615.648 232.915L611.201 219.156L609.574 187.176L604.24 181.469L603.843 181.819L602.309 197.704L601.491 225.23L588.55 239.394L555.348 254.368L567.503 256.4L589.352 261.243L597.014 266.032L599.607 262.45L602.846 247.087L611.747 243.84L622.258 247.889L622.843 247.663L622.149 245.062Z" fill="#47383B"/>
<path d="M576.949 83.8477L578.849 96.8047L583.622 121.628L592.196 151.841L600.784 177.202L606.507 197.159L607.457 213.893L611.281 237.634L616.038 238.724L617.954 230.089L614.613 206.347L613.188 188.539L609.848 175.582L597.459 142.131L585.53 102.193L579.799 84.3925L576.949 83.8477Z" fill="#6D5B5D"/>
<path d="M586.914 268.119L593.657 270.627L596.242 267.083L594.202 264.888L581.658 260.037L565.882 259.624L545.239 260.839L518.531 266.118L502.343 270.961L493.847 276.622L491.395 280.726L496.915 290.482L501.12 287.555L509.218 281.886L519.341 277.44L535.522 275.828L569.534 269.35L586.914 268.119Z" fill="#47383B"/>
<path d="M547.809 261.376L574.782 260.846L592.045 265.698L595.168 268.563L598.859 263.486L592.045 258.682L568.849 252.219L543.495 253.838L510.573 258.137L495.46 266.78L485.617 281.302L491.138 280.266L491.652 281.177L501.401 272.713L521.911 266.78L547.809 261.376Z" fill="#6D5B5D"/>
<path d="M506.524 279.464L496.269 282.166L493.816 285.024L501.673 298.876L508.962 308.609L504.897 348.259L505.714 369.307L509.475 380.005L511.92 357.175L515.697 320.469L515.144 302.66L506.524 279.464Z" fill="#47383B"/>
<path d="M559.138 419.491L586.648 415.443V412.546L573.426 413.823L547.528 412.756L524.331 411.136L504.094 401.652V405.732L526.753 417.864L559.138 419.491Z" fill="#5E4D4F"/>
<path d="M224.025 425.963L232.941 420.302V419.585L221.066 422.466L186.517 420.839L163.32 418.69L149.842 415.98L148.027 416.883L152.808 419.492L177.905 423.533L224.025 425.963Z" fill="#5E4D4F"/>
<path d="M91.0215 403.576L74.8174 399.27L53.7779 394.94C53.7779 394.94 41.2803 390.494 33.6337 387.987L32.7383 396.015L35.1755 402.47L94.0816 407.111L91.0215 403.576Z" fill="#47383B"/>
<path d="M719.132 92.2106L744.493 90.5988L756.57 84.3926H755.815L712.933 88.4261L695.935 98.9614L694.035 99.7635H700.778L719.132 92.2106Z" fill="#AA8984"/>
</svg>
