<svg width="251" height="401" viewBox="0 0 251 401" fill="none" xmlns="http://www.w3.org/2000/svg">
<path d="M247.027 370.574C245.179 367.912 242.485 366.088 239.355 365.311C235.575 364.365 231.639 365.399 227.875 365.884C217.926 367.159 208.422 365.383 198.874 362.697C194.068 361.35 189.347 359.77 184.609 358.219C181.125 357.085 177.586 355.738 174.011 354.759C180.524 350.241 186.853 345.435 192.854 340.227C200.606 333.501 208.001 325.984 213.445 317.225C218.443 309.167 220.96 299.859 218.852 290.47C216.619 280.54 209.308 271.945 202.454 264.781C197.82 259.939 192.77 255.545 187.627 251.26C188.332 248.614 188.817 245.92 188.982 243.214C189.547 233.861 185.222 224.697 180.697 216.764C175.871 208.313 170.179 200.275 164.731 192.214C160.07 185.318 155.32 178.471 150.594 171.612C149.897 169.524 149.095 167.479 148.065 165.563C143.479 156.984 132.745 153.148 123.466 153.236C113.685 153.328 104.226 157.662 95.9085 162.444C89.0903 166.373 83.3383 171.753 79.803 178.848C78.376 181.715 77.3056 184.845 76.6161 188.008C72.3713 195.212 67.3531 201.939 62.7675 208.922C57.8734 216.375 53.2558 224.396 51.5562 233.248C49.7725 242.48 52.4018 251.44 56.0615 259.863C56.2298 260.263 56.4223 260.644 56.5987 261.045C55.0876 262.164 53.5963 263.274 52.1052 264.356C46.5457 268.389 41.3831 272.831 36.8577 278.019C28.9533 287.062 23.0489 298.86 25.6623 310.763C25.9389 313.128 26.488 315.465 27.3979 317.706C28.9932 321.675 31.9274 325.182 34.7934 328.301C37.7796 331.556 41.1626 334.419 44.722 337.04C52.0131 342.412 60.13 346.577 68.2389 350.55C72.4797 352.615 76.6925 354.707 81.2219 356.09C83.8754 356.904 86.573 357.485 89.3027 357.878C77.903 366.589 62.5752 369.656 48.4658 369.668C43.1227 369.672 37.7594 368.59 32.4283 369.055C30.0394 369.259 27.7827 370.009 26.2275 371.436C26.1433 371.436 26.047 371.464 25.9588 371.544C23.2251 373.95 22.7402 378.195 23.137 381.627C23.3896 383.859 24.5682 385.876 26.5964 386.273C26.6204 386.365 26.6403 386.461 26.6683 386.557C27.1573 388.257 28.5603 389.66 29.8791 390.755C31.258 391.917 33.3223 392.803 35.3585 393.092C37.2063 396.058 40.3769 397.646 44.3452 398.143C47.7843 398.564 51.2675 397.954 54.3819 396.479C57.6848 394.924 60.4508 392.278 63.6214 390.45C67.3611 388.289 71.5697 387.187 75.6742 385.968C79.9151 384.709 84.1119 383.394 88.1964 381.687C91.4832 380.292 94.7581 378.852 97.9848 377.333C102.358 375.938 106.863 375.782 111.396 375.232C114.627 374.832 118.171 374.579 120.624 372.206C123.369 369.544 122.893 365.082 121.265 362.047C120.704 361.017 120.055 359.983 119.337 358.973C124.452 359.702 129.759 359.245 134.793 358.311C137.487 357.806 140.389 357.149 143.219 356.231C139.547 360.027 135.242 364.914 136.433 370.137C137.278 373.857 141.868 375.04 145.099 375.196C147.399 375.305 149.692 374.964 151.997 374.872C155.3 374.727 158.607 374.844 161.906 375.172C173.269 376.327 184.513 380.372 194.89 384.994C200.009 387.267 205.007 389.853 209.917 392.571C212.375 393.934 214.864 395.297 217.229 396.824C219.385 398.223 221.453 399.746 223.93 400.528C226.007 401.19 228.207 400.897 230.36 400.32C234.056 400.232 237.707 399.189 238.645 395.706C241.018 396.371 243.106 395.04 244.277 392.98C245.347 391.087 245.535 388.87 245.107 386.778C247.371 385.299 249.287 383.523 249.953 380.733C250.79 377.161 249.015 373.437 247.027 370.574Z" fill="#EBEDEC"/>
<path opacity="0.3" d="M87.1914 197.317C87.6483 197.345 87.8047 198.083 87.3037 198.163C85.8166 198.375 84.4096 198.696 83.1831 199.502C83.9246 199.634 84.6582 199.806 85.4118 199.87C85.8046 199.903 86.037 200.452 85.6242 200.668C84.8786 201.053 84.1613 201.49 83.4558 201.939C85.2957 201.939 87.1273 201.691 88.9751 201.646C89.4521 201.638 89.5683 202.408 89.0913 202.492C87.3918 202.781 85.8448 203.543 84.3657 204.408C88.7548 203.731 92.8432 202.949 97.1682 205.002C101.974 207.275 106.167 209.977 111.69 210.081C117.318 210.181 121.579 206.377 126.072 203.474C130.277 200.744 134.562 198.219 139.144 196.202C138.334 195.786 137.54 195.457 136.558 195.385C136.053 195.349 136.005 194.731 136.442 194.547C137.777 193.978 139.1 193.456 140.314 192.695C139.801 192.374 139.328 192.021 138.735 191.801C138.426 191.692 138.318 191.34 138.542 191.083C143.785 185.363 150.716 183.531 158.091 186.012C159.201 186.385 160.292 186.814 161.358 187.283C157.786 182.051 154.183 176.836 150.583 171.612C149.886 169.524 149.084 167.479 148.054 165.563C143.468 156.984 132.734 153.148 123.455 153.236C113.675 153.328 104.215 157.662 95.8977 162.444C89.0796 166.373 83.3276 171.753 79.7922 178.848C78.3653 181.715 77.2949 184.845 76.6054 188.008C74.4529 191.664 72.0962 195.196 69.6992 198.704C75.2868 197.056 81.1548 196.976 87.1914 197.317Z" fill="#A19483"/>
<path opacity="0.3" d="M82.2078 231.756C79.9471 232.638 76.4358 233.16 75.9668 229.904C75.4698 226.513 77.0731 222.849 78.5763 219.894C79.8509 217.409 81.4182 214.571 83.6268 212.678C82.0956 212.767 80.5806 213.127 79.0414 213.196C78.7447 213.212 78.48 212.803 78.6724 212.554C80.0753 210.614 82.0556 209.195 83.5427 207.347C75.8507 209.688 69.8661 215.028 65.3006 221.582C65.8297 221.329 66.355 221.089 66.8681 220.8C67.2208 220.592 67.7098 221.021 67.4533 221.39C66.0143 223.418 65.2847 225.547 65.2126 228.036C65.2126 228.381 64.7275 228.654 64.483 228.341C64.2064 227.98 63.9139 227.631 63.6133 227.283C64.5753 230.141 65.6414 232.983 67.1445 235.597C68.1226 237.305 69.2049 238.956 70.5117 240.436C71.4135 241.462 72.4036 242.444 73.081 243.647C75.514 247.968 74.5801 252.923 74.7284 257.694C76.933 250.983 78.8891 244.031 82.4645 237.918C84.9256 233.693 88.1283 230.273 91.9723 227.611C88.7376 228.99 85.5187 230.474 82.2078 231.756Z" fill="#A19483"/>
<path opacity="0.3" d="M166.429 221.273C166.32 220.836 166.83 220.588 167.15 220.856C167.595 221.241 168 221.646 168.381 222.063C167.779 220.464 167.082 218.892 166.689 217.2C166.597 216.824 166.978 216.551 167.314 216.715C168.597 217.341 169.615 218.235 170.593 219.205C168.894 213.404 165.499 208.409 160.18 205.238C156.861 203.27 153.237 201.967 149.513 201.009C149.814 201.221 150.107 201.426 150.387 201.61C152.143 202.805 153.847 204.072 155.606 205.262C156.071 205.579 155.678 206.236 155.177 206.004C153.221 205.082 151.129 204.492 149.009 204.124C154.536 206.998 160.829 211.239 162.284 217.357C163.358 221.875 161.029 229.439 155.546 229.94C150.948 230.361 146.648 226.573 143.1 224.188C139.669 221.875 134.919 218.608 131.043 221.125C137.857 220.997 143.589 227.563 147.954 232.013C154.58 238.756 161.839 244.978 169.13 251.035C166.493 247.235 164.012 242.813 163.891 238.299C163.723 232.394 167.972 227.251 166.429 221.273Z" fill="#A19483"/>
<path opacity="0.3" d="M56.5897 261.041C55.0786 262.159 53.5876 263.27 52.0965 264.352C51.9723 264.437 51.8559 264.529 51.7357 264.617C54.4373 263.911 57.183 264.853 59.1671 266.826C61.8647 269.524 64.1935 273.003 66.2578 276.198C67.817 278.612 68.0496 280.792 67.8612 283.466C71.3765 280.648 74.9801 283.851 78.8721 285.25C83.9547 287.082 89.7828 288.157 94.9896 286.188C100.545 284.116 103.543 279.49 104.81 273.873C105.848 269.227 106.265 264.204 108.959 260.139C109.155 259.842 109.648 259.866 109.744 260.239C110.157 261.899 110.309 263.607 110.815 265.242C112.775 263.45 115.472 258.359 118.31 261.201C119.737 262.633 120.531 265.791 122.94 265.711C125.389 265.631 126.251 262.32 127.537 260.644C127.686 260.448 128.022 260.323 128.211 260.56C128.712 261.173 130.976 264.825 131.99 263.915C133.197 262.829 134.271 261.622 135.498 260.56C135.702 260.376 136.027 260.392 136.163 260.644C137.105 262.336 138.332 263.567 140.328 261.831C140.52 261.666 140.877 261.654 141.001 261.919C142.645 265.403 145.266 268.401 147.976 271.111C150.669 273.797 153.603 276.607 156.842 278.628C160.422 280.861 164.35 281.686 168.25 279.682C172.074 277.718 175.357 274.699 178.138 271.44C180.812 268.309 183.409 264.801 185.241 261.089C186.452 258.632 187.498 255.902 190.356 255.028C190.801 254.887 191.27 254.795 191.719 254.715C190.368 253.549 189.005 252.39 187.626 251.247C188.332 248.602 188.817 245.908 188.981 243.202C189.294 237.966 188.079 232.779 186.147 227.836C186.72 232.711 186.231 237.642 184.375 242.376C182.977 245.964 181.105 249.311 178.904 252.462C177.072 255.068 175.144 258.443 172.25 260.027C169.3 261.63 166.442 260.905 163.632 259.321C160.366 257.473 157.383 255.164 154.81 252.43C149.832 247.154 146.112 240.905 142.088 234.912C141.158 238.339 138.917 245.078 134.82 242.139C133.061 240.885 133.265 237.71 133.417 235.858C133.518 234.659 133.69 233.468 133.886 232.282C132.067 236.984 129.277 244.076 125.854 241.915C123.593 240.5 124.547 237.168 125.276 235.144C125.854 233.532 126.571 231.989 127.345 230.478C126.683 231.151 125.99 231.801 125.276 232.402C124.475 233.079 122.827 234.743 121.613 234.35C119.428 233.653 120.006 231.328 121.048 229.279C120.014 230.426 119.144 231.684 118.651 233.236C118.51 233.673 117.741 233.613 117.813 233.116C117.901 232.43 117.913 231.732 117.945 231.039C116.081 234.114 116.081 238.006 115.861 241.51C115.841 241.899 115.26 242.143 115.071 241.731C113.797 238.912 113.825 235.982 113.673 233.015C113.552 233.34 113.428 233.665 113.3 233.993C113.211 234.242 112.923 234.406 112.674 234.246C110.598 232.947 109.059 231.143 107.491 229.319C108.437 231.179 109.315 233.079 109.247 235.144C109.239 235.481 108.894 235.673 108.606 235.521C106.093 234.19 105.231 231.432 103.824 229.115C104.457 232.771 106.482 236.471 105.167 240.099C105.071 240.355 104.786 240.5 104.533 240.355C101.399 238.556 99.4388 235.26 96.5087 233.248C98.9858 236.94 99.6151 242.184 97.3344 246.056C94.7129 250.51 90.4282 249.399 87.1814 246.621C88.3879 252.438 87.3057 259.674 84.8125 264.841C83.618 267.319 81.7059 269.844 78.7317 270.157C75.3928 270.514 72.4106 268.513 70.0337 266.369C61.6122 258.772 52.3529 246.798 51.2987 234.731C50.0521 243.43 52.5895 251.885 56.0527 259.85C56.2211 260.259 56.4134 260.644 56.5897 261.041Z" fill="#A19483"/>
<path opacity="0.3" d="M50.0938 265.835C52.2743 264.588 54.5469 263.526 56.7876 262.376C57.0081 262.267 57.2246 262.332 57.3689 262.532C61.6979 268.565 64.9123 275.733 71.2094 280.059C74.1315 282.075 77.6631 283.719 81.3147 283.298C85.2508 282.853 88.9424 280.588 90.8623 277.06C93.3595 272.474 93.5961 267.234 93.8967 262.135C94.021 260.034 94.1332 257.934 94.3657 255.845C94.4299 255.276 94.3656 253.989 94.9348 253.612C95.019 253.476 95.1794 253.384 95.3798 253.456C96.899 253.973 99.2357 253.825 100.603 252.915C102.026 251.969 102.495 250.413 103.06 248.882C103.176 248.585 103.497 248.541 103.717 248.661C107.06 248.573 107.144 244.424 107.545 241.915C107.597 241.606 107.89 241.55 108.118 241.666C110.207 241.145 110.7 239.253 110.968 237.361C109.746 233.737 108.635 229.928 106.547 226.89C103.954 223.089 99.9452 223.747 96.0812 225.162C91.7241 226.765 85.6997 229.447 83.1544 233.58C81.3507 236.515 80.5009 239.942 78.3204 242.656C78.2683 242.921 77.9876 243.145 77.687 242.977C74.7008 241.269 71.5622 238.387 69.995 235.284C68.3796 232.077 69.4097 228.601 70.6563 225.426C72.2636 221.325 74.7568 217.128 78.3684 214.526C76.9654 215.023 75.5867 215.557 74.1998 216.098C73.7749 216.27 73.5103 215.673 73.7829 215.392C76.5927 212.418 79.8315 209.904 82.8618 207.166C83.0943 206.962 83.3186 206.753 83.5471 206.553C81.6832 207.523 79.8395 208.537 78.1761 209.824C74.9534 212.305 71.9831 215.2 69.6743 218.555C71.1573 217.625 72.7807 216.924 74.4442 216.322C74.9452 216.142 75.1378 216.839 74.7811 217.104C70.6886 220.211 68.3957 225.262 67.8345 230.285C67.7824 230.726 67.3054 230.85 67.0408 230.509C66.147 229.343 65.0127 228.734 64.2311 227.659C64.6239 229.203 65.2332 230.69 66.1711 232.213C68.2474 235.577 70.4399 239.453 73.4903 242.027C74.6006 242.957 75.6668 243.807 76.3723 245.114C76.8613 246.032 76.264 247.178 76.0275 248.056C75.274 250.898 74.7649 253.765 74.4843 256.659C76.5807 250.858 78.0758 244.889 80.9538 239.369C82.4289 236.527 84.1806 233.52 86.6297 231.383C88.9425 229.355 91.588 228.024 94.4058 226.841C98.7709 224.985 103.825 223.27 106.667 228.277C107.866 230.401 109.501 233.183 109.898 235.605C110.247 237.753 109.309 239.249 107.886 240.8L107.842 240.836C107.637 241.113 107.068 241.045 107.06 240.596C106.976 236.475 106.795 232.422 103.942 229.391C105.176 232.766 105.99 236.206 106.238 239.842C106.435 242.66 106.294 245.683 103.982 247.579C103.873 248 103.156 247.972 103.144 247.463C103.012 241.582 100.366 235.092 94.9389 232.438C96.7547 233.957 98.2056 235.829 99.2438 238.038C100.559 240.828 102.142 244.272 101.517 247.435C101.136 249.379 99.9012 252.073 97.5924 252.237C95.7085 252.37 93.7604 251.383 92.0408 250.75C90.6299 250.241 89.2471 249.7 87.8603 249.163C88.71 249.696 89.5798 250.197 90.4376 250.722C91.2754 251.239 92.5819 251.872 92.9186 252.891C92.9828 253.087 92.8946 253.244 92.7704 253.332C92.6982 253.733 92.642 254.129 92.5979 254.534C91.8604 261.979 93.8204 271.015 89.1107 277.489C86.9943 280.411 83.1182 282.079 79.5388 281.494C75.0695 280.772 71.3297 277.721 68.3475 274.47C61.0764 266.533 54.9558 256.242 52.9676 245.579C51.8453 239.517 52.262 233.684 54.0177 227.787C54.8153 225.086 55.3968 222.263 56.6393 219.718C57.3167 218.319 58.2025 216.855 58.7636 215.328C55.5049 220.936 52.7712 226.873 51.5487 233.239C49.765 242.472 52.3945 251.432 56.0541 259.854C56.2225 260.255 56.4148 260.636 56.5911 261.037C55.08 262.155 53.589 263.266 52.0979 264.348C51.4245 264.841 50.7551 265.338 50.0938 265.835Z" fill="#A19483"/>
<path opacity="0.3" d="M188.598 236.548C188.626 238.408 188.618 240.256 188.397 242.112C187.824 246.846 186.213 251.717 184.365 256.095C182.329 260.925 179.635 265.688 176.817 270.093C175.402 272.302 173.514 275.461 170.468 275.104C170.364 275.092 170.284 275.04 170.216 274.98C168.785 274.8 167.366 274.194 166.047 273.701C163.919 272.908 162.043 271.729 160.243 270.366C156.431 267.472 153.325 263.948 150.699 259.967C149.112 257.558 147.36 255.357 145.58 253.088C144.378 251.553 143.091 249.905 142.546 248.009C141.837 245.507 142.017 242.124 140.77 239.706C140.963 242.156 141.824 246.072 139.748 247.772C138.025 249.179 134.245 251.144 132.096 249.668C130.088 248.273 130.958 243.868 131.178 241.987C131.419 239.935 131.872 237.923 132.525 235.974C131.74 237.405 131.074 238.909 130.565 240.48C129.944 242.4 130.156 245.01 129.234 246.834C129.319 247.019 129.298 247.243 129.078 247.375C125.603 249.464 122.5 246.602 122.921 242.801C123.386 238.54 125.202 234.595 127.194 230.807C126.172 232.122 125.246 233.517 124.489 235.092C123.911 236.323 122.785 239.185 120.941 238.019C119.667 237.217 119.414 234.343 119.763 233.044C120.596 229.913 122.909 227.993 125.394 226.109C125.458 226.064 125.519 226.036 125.575 226.028C128.228 223.691 131.295 221.398 134.802 222.092C139.315 222.986 142.462 226.906 145.572 229.977C150.286 234.611 155.766 238.323 160.243 243.242C162.295 245.503 164.48 247.423 166.821 249.372C168.075 250.406 169.234 251.484 170.264 252.699C169.947 251.849 169.606 251.011 169.181 250.218C168.079 248.129 166.652 246.293 165.205 244.441C164.251 243.222 163.177 242.116 162.716 240.612C162.255 239.121 163.209 237.013 163.714 235.662C165.301 231.444 167.277 226.726 166.183 222.132C165.141 217.698 162.856 213.541 159.574 210.366C159.285 210.093 159.578 209.48 159.99 209.652C161.979 210.49 163.89 211.476 165.746 212.567C162.54 207.961 157.962 204.549 152.667 202.669C155.437 204.754 158.195 206.85 161.233 208.55C161.702 208.843 161.285 209.56 160.8 209.292C158.704 207.993 156.275 207.307 153.822 207.071C158.776 210.278 162.808 214.663 164.319 220.548C165.281 224.293 164.788 227.383 163.71 231.051C163.141 232.988 162.468 234.908 161.87 236.848C161.566 237.846 161.305 238.981 160.564 239.763C160.487 239.835 160.415 239.863 160.339 239.879C160.283 239.955 160.219 240.019 160.115 240.043C158.908 240.256 156.84 238.007 155.894 237.257C153.689 235.521 151.565 233.693 149.444 231.861C147.132 229.873 144.827 227.868 142.382 226.052C140.213 224.429 137.704 222.308 134.958 221.799C131.808 221.202 128.91 223.046 126.389 224.758C124.152 226.273 121.51 228.165 120.075 230.518C117.867 234.126 118.32 239.514 121.522 242.404C121.775 242.633 121.639 242.946 121.414 243.062C122.071 244.986 122.577 247.652 124.052 248.975C125.671 250.41 127.82 249.5 129.595 248.887C129.988 248.75 130.204 249.163 130.08 249.472C132.205 254.427 137.929 251.023 140.762 248.618C141.047 248.366 141.428 248.578 141.496 248.859C145.957 253.785 149.044 259.71 153.008 265.014C157.533 271.084 163.069 275.257 170.661 276.612C173.186 277.065 174.773 276.435 176.208 274.307C177.074 273.028 177.767 271.665 178.505 270.314C180.545 266.55 182.401 262.793 184.169 258.885C184.966 257.109 185.704 255.104 186.87 253.521C187.247 253.02 187.872 253.016 188.421 253.152C189.247 253.365 190.033 253.645 190.81 253.958C189.752 253.052 188.69 252.158 187.616 251.264C188.321 248.618 188.806 245.924 188.971 243.218C189.115 240.973 188.958 238.748 188.598 236.548Z" fill="#A19483"/>
<path opacity="0.3" d="M247.027 370.574C246.433 369.728 245.752 368.971 244.999 368.297C246.017 369.989 246.726 372.009 245.355 373.441C244.129 374.727 242.654 374.491 241.122 373.842C239.996 373.368 238.898 372.599 237.727 372.258C235.767 371.669 233.771 371.288 231.719 371.107C228.183 370.803 224.636 370.799 221.089 370.498C217.87 370.226 214.611 369.881 211.381 370.218C217.213 373.906 223.642 375.778 230.46 376.88C232.605 377.229 240.357 377.602 239.732 381.538C239.495 383.01 236.954 382.769 236.028 382.681C232.601 382.332 229.202 381.398 225.951 380.308C219.83 378.239 213.894 375.565 207.577 374.146C209.942 376.066 212.463 377.81 215.169 379.213C219.995 381.711 225.093 382.897 230.168 384.689C232.336 385.451 236.845 387.8 234.921 390.887C233.418 393.276 229.647 391.055 227.935 390.073C223.374 387.468 218.956 384.653 214.511 381.863C208.699 378.211 202.839 375.028 196.169 373.256C189.812 371.548 183.286 370.366 176.793 369.34C173.369 368.802 169.934 368.301 166.551 367.524C164.507 367.047 162.058 366.71 160.407 365.283C157.942 363.146 159.208 361.226 161.926 360.777C179.586 355.497 197.588 366.437 215.084 365.988C209.637 365.435 204.266 364.212 198.87 362.701C194.064 361.354 189.343 359.775 184.605 358.223C181.122 357.089 177.582 355.742 174.007 354.764C180.521 350.246 186.85 345.439 192.85 340.232C200.602 333.505 207.997 325.988 213.441 317.229C218.439 309.171 220.956 299.863 218.848 290.474C218.832 290.402 218.812 290.334 218.792 290.27C218.239 295.056 216.119 299.077 210.719 300.063C203.055 301.474 198.478 296.05 193.788 290.911C188.818 285.459 182.529 282.416 176.151 279.161C186.805 292.258 171.297 308.478 159.709 315.168C142.008 325.403 120.776 325.948 101.18 321.699C91.8602 319.682 82.4966 316.323 74.9329 310.342C71.5739 307.696 67.1086 303.98 65.7578 299.75C64.2707 295.104 66.4753 290.522 67.281 285.944C61.6252 289.837 57.6168 296.263 53.2638 301.438C49.1272 306.349 43.8923 312.875 37.3467 314.559C31.0215 316.195 26.9773 312.062 25.0853 306.742C25.1695 308.077 25.3538 309.416 25.6544 310.763C25.931 313.128 26.4803 315.465 27.3902 317.706C28.9855 321.675 31.9195 325.182 34.7854 328.301C37.7716 331.556 41.1546 334.419 44.714 337.041C52.0052 342.412 60.1221 346.578 68.2309 350.55C72.4718 352.615 76.6846 354.707 81.214 356.09C83.8675 356.904 86.5651 357.485 89.2948 357.878C85.3305 360.909 80.8933 363.242 76.1955 365.006C77.414 364.794 78.6326 364.585 79.8471 364.373C84.6932 363.559 89.5554 362.801 94.4576 362.344C98.3016 361.999 102.366 361.522 106.222 361.951C108.423 362.2 110.362 364.333 107.994 366.024C106.486 367.099 104.631 367.664 102.867 368.133C100.678 368.718 98.5179 369.372 96.3093 369.901C89.896 371.46 83.3225 372.426 77.0134 374.395C71.0129 376.271 65.7979 379.338 60.2984 382.288C56.1017 384.533 51.7407 386.449 46.9788 387.031C44.2651 387.355 39.4431 387.087 39.391 383.234C39.3268 379.157 45.3796 378.532 48.2977 378.299C51.841 378.023 55.5486 378.155 59.0038 377.233C60.2744 376.9 61.5009 376.471 62.7315 376.03C57.8213 376.856 52.9071 377.798 47.9488 377.798C44.8103 377.798 41.9003 377.914 38.8219 378.496C36.5331 378.929 34.2644 379.233 31.9957 378.552C31.7432 378.472 31.651 378.259 31.6911 378.023C32.3405 373.986 37.6474 373.729 40.8581 373.733C43.1429 373.737 45.4876 374.058 47.7724 373.825C48.7264 373.729 49.6845 373.577 50.6385 373.401C48.6263 373.308 46.6139 373.104 44.6017 372.899C42.0885 372.659 39.5433 372.402 37.022 372.539C34.9537 372.659 33.2302 373.276 31.3303 374.03C29.4103 374.792 25.6824 376.483 23.9949 374.295C23.0049 376.555 22.8607 379.269 23.1333 381.623C23.3858 383.856 24.5642 385.872 26.5924 386.269C26.6164 386.361 26.6365 386.457 26.6645 386.553C27.1536 388.253 28.5566 389.656 29.8753 390.751C31.2542 391.913 33.3185 392.799 35.3547 393.088C37.2026 396.054 40.3732 397.642 44.3414 398.139C47.7806 398.56 51.2637 397.951 54.3782 396.475C57.681 394.92 60.4468 392.274 63.6174 390.446C67.3571 388.285 71.566 387.183 75.6705 385.964C79.9113 384.705 84.1079 383.391 88.1924 381.683C91.4792 380.288 94.7541 378.849 97.9808 377.329C102.354 375.934 106.859 375.778 111.393 375.229C114.623 374.828 118.167 374.575 120.62 372.202C123.366 369.54 122.888 365.078 121.261 362.044C120.7 361.013 120.051 359.979 119.333 358.969C124.448 359.698 129.755 359.241 134.789 358.307C137.483 357.802 140.385 357.145 143.215 356.227C139.543 360.023 135.238 364.91 136.429 370.133C137.275 373.854 141.864 375.036 145.095 375.192C147.396 375.301 149.688 374.96 151.993 374.868C155.296 374.723 158.603 374.84 161.902 375.168C173.265 376.323 184.509 380.368 194.886 384.99C200.005 387.263 205.003 389.849 209.913 392.567C212.371 393.93 214.86 395.293 217.225 396.82C219.381 398.219 221.45 399.743 223.927 400.524C226.003 401.186 228.204 400.893 230.356 400.316C234.052 400.228 237.703 399.185 238.641 395.702C241.014 396.367 243.103 395.036 244.273 392.976C245.343 391.083 245.532 388.867 245.103 386.774C247.368 385.295 249.283 383.519 249.949 380.729C250.791 377.161 249.015 373.437 247.027 370.574Z" fill="#A19483"/>
<path opacity="0.3" d="M247.026 370.574C245.828 368.834 244.261 367.471 242.453 366.505C243.832 367.671 245.098 369.034 245.84 370.674C246.477 372.093 247.291 374.354 246.325 375.797C245.415 377.148 242.409 376.258 241.23 376.014C237.326 375.2 233.57 373.797 229.566 373.528C225.457 373.264 221.365 373.252 217.272 372.759C216.9 372.711 216.503 372.678 216.082 372.634C216.21 372.715 216.343 372.795 216.475 372.879C220.435 375.36 224.56 376.896 229.241 377.381C232.556 377.726 239.074 376.615 241.038 380.207C241.703 381.422 241.94 384.196 240.248 384.781C238.1 385.519 235.839 382.925 233.951 382.268C229.562 380.74 224.804 380.367 220.331 379.057C216.767 378.022 213.252 376.84 209.693 375.785C212.643 377.938 215.729 380.047 219.14 381.293C222.812 382.644 226.836 382.532 230.476 383.983C233.743 385.298 238.721 391.632 233.67 394.021C228.941 396.246 223.51 391.588 219.874 389.083C212.996 384.336 205.119 380.993 197.339 378.038C191.262 375.733 184.925 374.066 178.556 372.771C172.026 371.452 165.284 370.169 158.639 369.608C155.837 369.367 150.83 368.97 150.333 365.378C149.8 361.578 155.043 357.758 157.508 355.685C165.717 348.786 175.59 343.21 182.003 334.422C185.523 329.596 188.252 323.767 189.334 317.874C190.008 314.21 190.124 310.674 189.11 307.058C188.697 305.587 188.252 304.132 187.924 302.652C186.192 321.887 169.088 336.804 152.257 344.12C131.101 353.316 106.727 352.113 87.186 339.493C82.0273 336.158 77.1973 332.237 72.4674 328.341C70.7398 326.922 69.0042 325.491 67.3528 323.975C69.9462 328.666 72.3953 333.464 75.5258 337.826C80.2155 344.336 86.5126 348.814 93.5312 352.574C97.0465 354.454 100.634 356.178 104.169 358.018C106.398 359.173 108.867 360.271 110.779 361.923C112.01 362.989 113.589 364.781 112.743 366.549C112.11 367.88 110.627 368.67 109.336 369.227C105.925 370.71 102.257 371.528 98.6339 372.306C94.1846 373.252 89.7794 374.37 85.3181 375.248C79.4299 376.407 73.4415 377.517 67.8739 379.802C64.7113 381.097 61.8373 382.737 59.0234 384.645C56.9552 386.056 54.8428 387.467 52.53 388.441C48.4816 390.129 42.9499 390.959 39.1941 388.06C36.5086 385.988 36.0516 382.492 38.7132 380.139C41.2424 377.914 45.5353 378.347 48.6097 378.543C53.2634 378.836 57.881 378.411 62.2621 376.984C58.9593 377.461 55.6323 377.714 52.2733 377.774C48.8021 377.838 45.1105 377.381 41.6954 378.118C39.1181 378.672 36.5768 379.377 34.0316 380.067C32.9533 380.355 31.0173 381.305 29.875 381.037C28.3197 380.668 30.1475 377.958 30.5644 377.505C31.9352 376.01 33.8592 374.266 35.8153 373.58C39.6673 372.25 43.407 374.334 47.259 373.869C48.0005 373.777 48.7381 373.633 49.4797 373.468C47.0987 373.344 44.7098 373.148 42.3168 373.035C37.0539 372.767 30.6846 372.414 26.7444 376.431C25.9909 377.196 25.2413 377.918 24.1751 377.349C23.7302 377.112 23.5017 376.595 23.3935 376.07C22.9485 377.894 22.9165 379.87 23.1209 381.63C23.3735 383.863 24.5518 385.88 26.58 386.276C26.6041 386.369 26.6241 386.465 26.6522 386.561C27.1412 388.261 28.5442 389.664 29.863 390.758C31.2418 391.921 33.3059 392.807 35.3421 393.095C37.19 396.062 40.3606 397.649 44.3288 398.147C47.768 398.567 51.2513 397.958 54.3658 396.483C57.6687 394.927 60.4344 392.282 63.605 390.454C67.3448 388.293 71.5536 387.19 75.6581 385.972C79.8989 384.713 84.0955 383.398 88.18 381.69C91.4668 380.295 94.7417 378.856 97.9684 377.337C102.342 375.942 106.847 375.785 111.38 375.236C114.611 374.835 118.154 374.583 120.608 372.209C123.353 369.548 122.876 365.086 121.249 362.051C120.688 361.021 120.038 359.987 119.321 358.976C124.436 359.706 129.742 359.249 134.777 358.315C137.47 357.81 140.372 357.152 143.202 356.234C139.531 360.031 135.226 364.917 136.416 370.141C137.262 373.861 141.852 375.044 145.082 375.2C147.383 375.308 149.676 374.968 151.981 374.875C155.283 374.731 158.591 374.847 161.889 375.176C173.253 376.331 184.496 380.375 194.874 384.998C199.993 387.271 204.991 389.856 209.901 392.574C212.358 393.937 214.848 395.3 217.212 396.828C219.369 398.227 221.437 399.75 223.914 400.532C225.991 401.193 228.191 400.901 230.344 400.323C234.039 400.235 237.691 399.193 238.629 395.709C241.002 396.375 243.09 395.044 244.261 392.983C245.331 391.091 245.519 388.874 245.09 386.782C247.355 385.302 249.271 383.526 249.936 380.736C250.79 377.16 249.014 373.436 247.026 370.574Z" fill="#A19483"/>
<path opacity="0.3" d="M106.799 375.401C106.466 375.356 106.402 374.891 106.607 374.691C107.36 373.933 108.174 373.272 109.028 372.659C105.737 374.062 102.546 375.709 99.1351 376.852C94.273 378.487 89.3587 379.943 84.4444 381.422C79.5463 382.893 74.7725 384.605 69.9504 386.293C67.3651 387.199 64.8998 388.185 62.6391 389.74C61.0438 390.839 59.4806 391.949 57.729 392.771C56.8832 393.364 56.0095 393.913 55.0836 394.366C51.8409 395.954 47.9528 396.659 44.3533 396.238C39.2066 395.637 34.1 392.001 34.2483 386.248C34.4046 380.047 40.6135 377.189 46.137 378.095C50.5863 378.832 55.7568 379.602 60.186 378.271C62.0338 377.714 63.7495 376.852 65.4009 375.894C63.6052 376.587 61.7814 377.197 59.9095 377.625C55.7729 378.576 51.8088 378.463 47.6321 377.878C42.6457 377.193 36.521 377.156 33.9476 382.428C32.9215 384.549 32.5087 386.425 32.8694 388.722C32.9496 389.207 33.0979 389.796 32.9335 390.265C33.0859 390.61 32.725 391.083 32.3523 390.819C32.3082 390.79 32.2641 390.758 32.2241 390.734C32.176 390.714 32.1237 390.682 32.0836 390.65C30.809 389.816 29.2338 389.039 28.4562 387.688C27.4822 386.008 27.1013 383.839 27.3418 381.915C27.8268 378.066 30.4843 375.649 34.0758 374.463C35.9637 373.841 37.9719 373.4 39.964 373.412C42.822 373.432 45.5758 374.687 48.4338 374.503C51.5402 374.298 54.6586 373.769 57.5927 372.715C57.9054 372.602 58.21 372.486 58.5226 372.366C53.5603 373.304 48.4979 373.741 43.5917 373.172C39.2306 372.671 34.4846 372.29 30.6446 374.819C28.7246 376.078 26.6564 377.83 26.464 380.299C26.3959 381.129 26.476 382.18 26.0391 382.925C26.0591 382.945 26.0751 382.961 26.1032 382.989C26.512 383.362 25.8988 383.971 25.494 383.591C21.2973 379.65 23.037 371.969 28.7569 370.59C32.3484 369.72 36.2404 370.297 39.8879 370.366C44.5777 370.454 49.2834 370.486 53.9531 370.057C70.5315 368.521 86.0719 361.249 102.707 360.42C101.388 360.039 100.037 359.778 98.6661 359.526C96.2411 359.077 93.9362 358.443 91.5953 357.654C86.3324 355.886 81.0895 354.062 75.9549 351.961C67.1125 348.329 58.3864 344.232 50.2855 339.145C39.2626 332.214 28.2877 322.729 25.4779 309.784C25.542 310.113 25.5823 310.434 25.6584 310.762C25.935 313.128 26.4841 315.465 27.394 317.706C28.9893 321.674 31.9233 325.182 34.7892 328.301C37.7754 331.556 41.1587 334.418 44.7181 337.04C52.0092 342.412 60.1261 346.577 68.235 350.55C72.4758 352.614 76.6883 354.707 81.2178 356.09C83.8713 356.904 86.5689 357.485 89.2985 357.878C77.8988 366.589 62.571 369.656 48.4617 369.668C43.1186 369.672 37.7555 368.59 32.4244 369.055C30.0355 369.259 27.7788 370.009 26.2235 371.436C26.1394 371.436 26.0431 371.464 25.9549 371.544C23.2212 373.949 22.7363 378.195 23.1331 381.626C23.3857 383.859 24.564 385.876 26.5922 386.273C26.6163 386.365 26.6363 386.461 26.6644 386.557C27.1534 388.257 28.5564 389.66 29.8752 390.754C31.2541 391.917 33.3184 392.803 35.3546 393.092C37.2024 396.058 40.373 397.646 44.3413 398.143C47.7804 398.564 51.2636 397.954 54.378 396.479C57.6809 394.924 60.4466 392.278 63.6172 390.45C67.357 388.289 71.5658 387.187 75.6703 385.968C79.9112 384.709 84.1077 383.394 88.1922 381.686C91.4791 380.291 94.7539 378.852 97.9806 377.333C101.556 376.19 105.22 375.878 108.915 375.501C108.194 375.521 107.492 375.497 106.799 375.401Z" fill="#A19483"/>
<path opacity="0.3" d="M154.104 373.765C151.731 373.565 149.362 373.954 146.989 373.765C142.556 373.433 140.996 370.679 141.477 366.429C142.031 361.631 144.901 357.939 148.769 355.185C153.859 351.561 159.563 348.867 164.762 345.399C170.061 341.859 174.863 337.618 178.903 332.675C183.024 327.64 186.896 322.028 188.656 315.694C190.379 309.476 190.708 302.513 189.073 296.235C188.223 292.956 186.744 289.985 184.952 287.131C184.114 285.792 183.325 284.489 182.086 283.483C182.05 283.451 182.014 283.423 181.986 283.395C182.659 284.521 183.244 285.716 183.749 286.89C185.521 291.087 186.263 295.862 186.692 300.376C187.597 309.969 185.273 318.388 179.938 326.373C171.047 339.686 157.844 351.5 141.762 354.355C141.51 354.435 141.257 354.511 141.001 354.583C122.534 359.534 101.021 354.567 85.9421 342.982C82.0019 339.947 78.5949 336.415 75.3843 332.631C71.6766 328.261 68.145 323.603 65.736 318.372C63.295 313.068 62.1526 307.592 62.341 301.747C62.4412 298.628 62.7499 295.778 63.9043 292.851C64.4896 291.376 65.203 289.957 65.9004 288.534C61.7919 295.072 58.6413 302.4 60.5693 310.274C62.5494 318.432 67.1029 325.423 72.6745 331.613C78.1219 337.666 84.0382 343.443 90.8043 348.013C97.4781 352.519 104.717 356.006 112.129 359.113C113.968 359.506 115.872 359.698 117.427 360.781C119.275 362.064 120.197 363.92 120.245 366.185C120.293 368.105 120.193 370.502 118.73 371.949C118.566 372.114 118.382 372.274 118.193 372.418C118.177 372.519 118.117 372.623 117.997 372.691C116.057 373.842 113.828 374.752 111.539 375.205C114.726 374.828 118.185 374.539 120.598 372.206C123.344 369.544 122.867 365.082 121.24 362.048C120.678 361.017 120.029 359.983 119.312 358.973C124.426 359.702 129.733 359.245 134.768 358.311C137.461 357.806 140.363 357.149 143.193 356.231C139.522 360.027 135.217 364.914 136.407 370.137C137.253 373.858 141.842 375.04 145.073 375.197C147.374 375.305 149.667 374.964 151.971 374.872C154.741 374.744 157.523 374.82 160.285 375.048C158.268 374.427 156.212 373.946 154.104 373.765Z" fill="#A19483"/>
<path opacity="0.3" d="M247.027 370.574C245.179 367.912 242.486 366.088 239.355 365.311C235.575 364.365 231.639 365.399 227.875 365.884C217.927 367.159 208.423 365.383 198.875 362.697C194.069 361.35 189.347 359.77 184.609 358.219C181.126 357.085 177.587 355.738 174.011 354.759C180.525 350.242 186.854 345.435 192.854 340.227C200.607 333.501 208.002 325.984 213.445 317.225C215.826 313.396 217.634 309.275 218.652 305.002C215.41 314.375 208.896 322.376 201.444 329.368C195.496 334.956 189.231 340.227 183.014 345.511C179.459 348.526 175.739 351.36 172.22 354.415C170.292 356.09 168.352 357.838 166.199 359.229C167.025 359.017 167.851 358.812 168.656 358.536C170.244 357.983 171.883 357.137 173.603 357.117C175.651 357.101 177.414 357.91 179.302 358.612C181.575 359.466 183.88 360.236 186.217 360.909C191.091 362.316 196.041 363.419 200.999 364.529C205.918 365.635 210.844 366.573 215.898 366.806C220.953 367.038 225.963 366.742 230.978 366.189C234.056 365.852 237.391 365.728 240.209 367.223C243.175 368.802 246.105 371.697 247.175 374.952C248.186 378.015 247.476 380.701 245.484 383.086L245.476 383.13C244.899 384.385 243.72 384.024 243.167 382.937C242.742 382.096 242.642 381.121 242.289 380.264C241.624 378.66 239.355 378.023 237.864 377.598C231.242 375.718 224.204 375.834 217.758 373.308C218.893 374.371 220.716 374.9 222.063 375.345C224.115 376.01 226.16 376.511 228.296 376.868C231.755 377.445 235.679 377.934 238.91 379.378C241.884 380.701 243.059 383.386 243.123 386.594C243.203 389.889 241.728 391.929 239.022 393.593C239.031 393.637 239.039 393.681 239.039 393.729C239.095 394.286 238.233 394.278 238.185 393.729C237.904 390.683 237.263 387.504 234.838 385.391C232.918 383.707 230.521 382.785 228.072 382.172C223.675 381.069 218.532 381.374 214.459 379.237C216.283 380.961 219.197 381.631 221.566 382.128C224.384 382.709 227.202 383.294 229.811 384.577C234.108 386.694 238.325 391.003 236.81 396.223C236.866 396.327 236.894 396.475 236.814 396.624C235.002 400.095 229.607 400.003 226.308 399.49C220.368 398.564 215.145 394.607 210.086 391.617C201.056 386.289 191.315 382.268 181.218 379.594C185.884 381.174 190.454 383.03 194.867 384.998C199.985 387.271 204.984 389.857 209.894 392.575C212.351 393.938 214.84 395.301 217.205 396.828C219.362 398.227 221.43 399.75 223.907 400.532C225.983 401.194 228.184 400.901 230.336 400.324C234.032 400.236 237.684 399.193 238.622 395.71C240.995 396.375 243.083 395.044 244.253 392.984C245.324 391.091 245.512 388.875 245.083 386.782C247.348 385.303 249.264 383.527 249.929 380.737C250.791 377.161 249.015 373.437 247.027 370.574Z" fill="#A19483"/>
<path d="M103.115 226.95C88.8216 220.957 80.6847 242.97 78.1153 252.943C78.0632 253.136 78.3679 253.224 78.4361 253.044C80.5084 247.475 83.7391 242.1 87.3827 237.425C89.2706 235.004 91.4791 232.775 93.9843 230.995C96.9023 228.927 99.8605 228.726 103.087 227.604C103.38 227.507 103.412 227.071 103.115 226.95Z" fill="white"/>
<path d="M161.701 246.874C157.653 242.613 153.552 238.391 149.768 233.885C146.77 230.302 143.419 226.722 139.467 224.18C136.445 222.24 133.198 221.47 129.867 223.006C126.532 224.529 122.852 228.065 121.089 231.256C120.977 231.452 121.249 231.669 121.422 231.524C124.46 229.159 126.877 226.413 130.605 225.09C134.998 223.527 139.651 227.516 142.674 230.221C148.939 235.846 154.145 242.913 161.364 247.419C161.701 247.632 161.934 247.115 161.701 246.874Z" fill="white"/>
<path d="M87.5073 206.878C86.2607 207.295 85.1103 208.028 84.032 208.75C82.9859 209.455 81.6832 210.325 81.4106 211.624C81.3104 212.157 81.8474 212.57 82.3364 212.402C83.4306 212.033 84.2205 210.975 85.0943 210.261C86.1044 209.423 87.2306 208.726 88.1485 207.788C88.5533 207.363 88.0083 206.713 87.5073 206.878Z" fill="white"/>
<path d="M98.7026 214.896C97.6845 215.902 96.8709 217.097 95.7125 217.959C93.3196 219.75 94.1292 213.777 94.0851 212.935C94.037 212.194 93.3276 211.901 92.6943 212.033C90.8946 212.43 89.3754 213.328 87.8603 214.246C88.7742 212.194 89.7803 210.157 89.3113 207.904C89.2271 207.54 88.71 207.471 88.6339 207.876C88.0486 210.999 85.7517 213.441 84.6013 216.351C84.2646 217.197 85.0704 218.412 86.0484 217.93C88.1448 216.936 89.9164 215.409 92.0208 214.495C91.9647 216.523 91.7923 219.125 94.0971 219.534C96.3017 219.927 98.2136 216.712 99.1195 215.16C99.2799 214.9 98.891 214.707 98.7026 214.896Z" fill="white"/>
<path d="M103.068 214.102C102.595 215.469 102.061 216.952 102.282 218.424C102.398 219.169 103.504 219.285 103.649 218.488C103.889 217.129 103.849 215.734 103.917 214.371C103.937 213.906 103.252 213.585 103.068 214.102Z" fill="white"/>
<path d="M107.123 217.313C106.95 216.495 106.662 215.717 106.389 214.923C106.221 214.438 105.487 214.703 105.648 215.188C105.9 215.946 106.121 216.727 106.465 217.457C106.614 217.782 107.203 217.73 107.123 217.313Z" fill="white"/>
<path d="M144.67 210.486C143.548 212.731 138.686 208.899 137.006 208.606C136.425 208.506 135.8 208.911 135.715 209.524C135.555 210.61 135.543 211.685 135.467 212.787C135.242 215.958 131.25 211.532 130.813 211.063C129.904 210.069 127.923 208.995 126.657 210.137C125.959 210.763 125.61 211.252 125.298 212.178C125.166 212.583 124.845 216.403 123.47 215.417C122.368 214.619 121.622 211.645 119.963 211.829C119.666 211.861 119.386 212.082 119.345 212.394C119.273 213.104 119.157 213.805 119.009 214.495C118.953 214.772 119.394 214.92 119.482 214.647C120.151 212.599 120.143 213.573 120.764 214.659C121.169 215.369 121.646 215.986 122.183 216.592C122.592 217.049 123.418 217.67 124.087 217.566C124.989 217.433 125.53 217.221 126.116 216.507C126.601 215.914 127.218 210.911 128.905 212.234C131.25 214.094 131.679 216.439 135.122 216.123C137.716 215.882 137.756 213.224 137.836 211.128C140.638 212.15 145.079 214.956 145.788 210.827C145.909 210.157 144.979 209.893 144.67 210.486Z" fill="white"/>
<path d="M153.546 212.443C150.977 208.582 146.375 207.275 142.319 205.527C141.842 205.315 141.537 206.004 141.982 206.257C145.786 208.366 149.382 210.39 152.745 213.192C153.234 213.601 153.891 212.964 153.546 212.443Z" fill="white"/>
<path d="M153.556 205.394C152.43 204.328 150.819 204.096 149.4 203.586C149.047 203.462 148.802 203.979 149.159 204.128C150.562 204.701 151.917 205.146 153.224 205.936C153.548 206.132 153.813 205.631 153.556 205.394Z" fill="white"/>
<path d="M183.019 223.851C182.005 219.859 180.185 216.198 178.213 212.603C174.245 205.371 168.797 199.205 163.222 193.18C162.985 192.927 162.564 193.328 162.777 193.597C167.402 199.277 171.106 205.635 174.794 211.941C178.83 218.824 182.614 226.096 182.951 234.154C182.955 234.366 183.304 234.391 183.32 234.178C183.524 230.614 183.905 227.335 183.019 223.851Z" fill="white"/>
<path d="M69.5142 200.745C64.9126 206.389 61.6578 212.771 58.7117 219.39C56.3989 224.569 53.2764 231.108 55.6854 236.76C55.7736 236.981 56.1343 236.924 56.1023 236.668C55.0481 229.56 59.3329 224.188 62.1268 217.979C64.6761 212.318 67.2294 206.65 70.3279 201.262C70.6045 200.773 69.8509 200.332 69.5142 200.745Z" fill="white"/>
<path d="M47.204 271.063C37.7404 279.802 22.2923 293.737 28.894 308.305C29.0263 308.573 29.5031 308.529 29.455 308.184C27.3065 293.488 39.4879 282.167 47.7731 271.532C48.0737 271.159 47.5447 270.758 47.204 271.063Z" fill="white"/>
<path d="M195.089 259.807C195.041 259.807 195.045 259.891 195.093 259.891C195.142 259.891 195.133 259.807 195.089 259.807Z" fill="white"/>
<path d="M211.035 274.863C209.432 272.598 207.588 270.477 205.503 268.645C202.838 266.304 199.627 264.637 197.206 262.039C197.11 261.947 196.929 262.111 197.022 262.211C204.381 270.602 212.915 278.23 215.504 289.632C215.668 290.377 216.867 290.221 216.951 289.507C217.613 284.224 213.925 278.952 211.035 274.863Z" fill="white"/>
<path d="M194.072 143.947C193.438 141.458 191.715 139.686 189.626 138.435C190.701 138.611 191.695 138.992 192.468 139.898C192.524 139.954 192.592 139.938 192.625 139.882C192.725 139.91 192.865 139.826 192.845 139.702C192.031 134.518 189.803 129.319 185.534 126.1C181.802 123.286 177.445 122.817 173.144 123.602C173.87 123.125 174.643 122.716 175.441 122.372C175.874 122.319 176.311 122.299 176.756 122.291C176.788 122.299 176.82 122.307 176.844 122.315C176.908 122.319 176.952 122.307 177.004 122.287C177.096 122.287 177.197 122.287 177.285 122.287C177.425 122.287 177.449 122.079 177.333 122.023C177.277 121.995 177.224 121.987 177.176 121.971C177.156 121.862 177.084 121.758 176.94 121.734C175.068 121.373 173.332 120.764 171.412 120.66C169.841 120.576 168.278 120.568 166.707 120.628C163.271 120.752 159.8 121.413 156.497 122.335C152.702 123.386 148.785 125.053 145.539 127.495C142.115 121.546 138.729 115.561 135.125 109.712C130.993 102.993 126.467 96.4986 120.743 91.0386C120.996 87.6712 123.445 84.9933 125.573 82.3675C128.283 79.0281 131.089 75.7649 133.975 72.5819C136.789 69.4831 139.759 66.5326 142.581 63.4258C142.633 63.5861 142.693 63.7585 142.749 63.9149C144.597 69.3749 145.859 75.0153 147.439 80.5555C148.441 84.0672 149.026 88.2043 152.016 90.6657C152.197 90.8101 152.377 90.8301 152.549 90.794C155.147 91.6479 157.9 88.7335 159.548 87.1219C163.179 83.53 166.815 80.1225 169.693 75.8612C172.495 71.72 174.451 67.0618 176.186 62.3875C176.984 60.2267 177.818 58.054 178.439 55.8251C179.393 52.3534 180.251 48.3566 178.038 45.4502C175.501 42.1229 172.306 39.1684 168.927 36.711C164.534 33.528 159.684 30.9984 154.734 28.8096C149.98 26.705 145.034 24.6444 139.851 23.9469C137.434 23.6102 134.989 23.6743 132.564 23.8787C130.551 24.0511 128.267 24.5282 126.816 26.0155C126.756 26.0756 126.768 26.1638 126.812 26.2199C125.1 28.104 124.407 31.3873 123.866 33.4879C122.33 39.453 120.274 45.2017 119.244 51.2911C118.106 58.0419 117.44 64.8489 116.406 71.6038C116.149 73.2915 115.825 74.9592 115.556 76.6389C115.296 78.2705 115.256 79.9702 114.67 81.5377C114.133 82.9688 113.139 84.4882 111.841 85.5224C108.907 84.1113 105.439 83.955 102.197 84.8489C98.2042 85.9353 95.1139 88.8658 92.5566 92.0608C90.1957 87.5108 87.458 83.1652 85.1692 78.5671C82.6039 73.4118 80.3791 68.0961 78.5353 62.6441C74.8717 51.7882 72.4628 40.4552 67.6528 30.0082C63.8128 21.6739 57.2912 15.1155 49.3066 10.7017C44.7932 8.21227 39.811 6.48045 34.9249 4.88093C29.6419 3.14912 24.2225 1.8222 18.719 1.01643C16.278 0.651623 13.8129 0.451182 11.3478 0.383032C8.7704 -0.0178508 6.08876 -0.142124 3.56351 0.194617C2.26481 0.366997 1.08247 0.759864 0.385023 1.92242C-0.112011 2.75626 -0.084015 4.05512 0.220618 5.12547C0.324835 5.93525 0.444966 6.75305 0.549182 7.56284C0.328724 17.8054 1.56737 28.2484 3.82406 38.1461C6.17294 48.4248 10.069 58.3626 16.6346 66.709C22.9357 74.7267 31.4776 80.1586 40.805 84.0432C51.3108 88.4128 62.0252 91.9766 72.1382 97.2843C75.6776 99.1484 78.9803 101.285 82.2911 103.462C79.0444 107.447 76.4191 112.089 73.8096 116.342C70.3464 121.971 66.8953 127.579 63.3719 133.159C61.5161 131.74 59.3675 130.738 56.8021 130.209C52.4611 129.323 47.4828 129.98 43.5947 132.245C43.0015 132.426 42.4563 132.73 41.9994 133.231C41.8551 133.38 42.0756 133.584 42.2359 133.484C43.6188 132.646 45.0138 132.843 46.3886 133.4C41.5666 133.857 36.8206 135.689 33.0127 138.579C27.89 142.468 24.8517 149.331 24.6112 155.721C24.4909 156.194 24.459 156.683 24.5833 157.18C24.6194 157.296 24.8157 157.28 24.8277 157.156C25.0562 155.003 26.6916 153.753 28.4673 152.67C25.2166 156.683 23.6052 161.979 24.6273 167.138C26.3068 175.601 34.7723 177.629 41.8951 179.878C52.2767 183.149 62.8307 185.827 73.2284 189.002C82.4315 191.808 91.0333 195.929 99.8477 199.646C102.99 203.177 107.776 205.923 112.494 205.242C115.272 204.841 117.456 203.001 119.228 200.952C119.909 200.171 120.563 199.301 121.184 198.399C130.243 192.534 139.306 186.653 148.773 181.454C153.567 178.824 158.409 176.206 163.468 174.109C167.324 172.522 171.264 171.171 175.084 169.491C182.139 166.4 188.981 162.079 192.452 154.947C194.1 151.608 195.006 147.627 194.072 143.947Z" fill="#EBEDEC"/>
<path opacity="0.3" d="M142.665 132.081C145.467 128.774 146.16 127.936 149.543 125.967C153.027 123.951 155.648 123.458 159.464 122.159C162.627 121.073 167.853 121.069 171.112 120.66C169.641 120.584 168.178 120.58 166.711 120.636C163.276 120.76 159.805 121.421 156.502 122.343C152.706 123.394 148.79 125.061 145.543 127.503C144.216 125.19 142.89 122.869 141.551 120.56C143.114 125.094 145.251 127.451 142.665 132.081Z" fill="#A19483"/>
<path opacity="0.3" d="M194.072 143.947C193.438 141.457 191.715 139.686 189.626 138.435C190.701 138.611 191.695 138.992 192.468 139.898C192.524 139.954 192.592 139.938 192.625 139.882C192.725 139.91 192.865 139.826 192.845 139.702C192.031 134.518 189.803 129.319 185.534 126.1C184.532 125.346 183.494 124.769 182.419 124.332C186.528 128.128 190.717 133.845 186.592 135.917C189.322 138.872 191.366 143.029 190.099 146.725C188.496 151.423 180.996 152.746 176.82 153.207C169.228 154.053 162.077 151.993 155.151 148.978C151.427 147.366 147.603 145.711 144.048 143.734C143.334 143.342 142.637 142.917 141.951 142.492C141.214 142.075 140.488 141.674 139.775 141.293C134.56 138.531 128.672 136.972 122.952 135.649C116.294 134.109 109.772 133.364 102.962 134.506C91.5385 136.438 81.5537 141.943 71.128 146.641C70.4506 146.954 69.645 147.298 68.7792 147.627C60.3216 152.057 51.3708 155.665 42.1356 157.525C38.4921 158.258 33.5938 159.176 30.3832 156.735C28.0583 154.963 28.5997 152.333 29.9785 150.161C29.6138 150.129 29.269 150.048 28.9764 149.86C26.6636 148.365 27.9542 145.21 29.2008 143.474C34.0228 136.727 41.2619 134.077 49.2424 133.72C48.3887 133.171 47.6832 132.49 47.3305 131.419C47.2624 131.211 47.4106 130.95 47.627 130.894C53.872 129.407 61.5239 131.435 66.4261 135.909C61.9929 132.325 72.7274 119.329 77.4852 112.618C80.744 108.016 83.7062 103.277 87.454 99.0281C90.9933 95.0233 94.7611 90.4212 99.2103 87.3825C102.758 84.9611 106.59 84.6485 110.574 86.276C115.492 88.2764 120.142 91.4715 124.074 95.0193C124.844 95.7088 125.589 96.4224 126.347 97.1279C124.599 94.9992 122.751 92.9587 120.751 91.0385C121.004 87.6711 123.453 84.9932 125.581 82.3674C128.291 79.0281 131.097 75.7649 133.983 72.5819C136.796 69.4831 139.767 66.5326 142.589 63.4257C142.641 63.5861 142.701 63.7585 142.757 63.9148C144.605 69.3748 145.867 75.0152 147.447 80.5554C148.449 84.0672 149.034 88.2043 152.024 90.6657C152.205 90.81 152.385 90.8301 152.557 90.794C155.155 91.6479 157.908 88.7334 159.556 87.1219C163.187 83.53 166.823 80.1225 169.701 75.8611C171.585 73.079 173.076 70.0684 174.383 66.9735C172.246 70.6857 169.889 74.2736 167.268 77.6851C164.482 81.3091 156.369 91.3151 152.573 83.8547C150.866 80.4993 150.152 76.715 149.371 73.067C148.312 68.0399 146.681 63.1531 145.014 58.2904C142.32 50.4291 140.376 41.9745 136.773 34.458C135.47 31.74 133.734 28.3405 130.832 27.0376C129.181 26.288 127.581 26.4925 126.11 27.1699C124.912 29.0781 124.338 31.7079 123.87 33.4838C122.334 39.449 120.278 45.1976 119.248 51.287C118.11 58.0379 117.444 64.8449 116.41 71.5997C116.154 73.2874 115.829 74.9551 115.56 76.6348C115.3 78.2664 115.26 79.9661 114.675 81.5336C114.138 82.9647 113.143 84.4841 111.845 85.5184C108.91 84.1073 105.443 83.9509 102.201 84.8449C98.2084 85.9313 95.1179 88.8617 92.5605 92.0568C90.1996 87.5067 87.4619 83.1612 85.1731 78.5631C82.6078 73.4077 80.3833 68.092 78.5394 62.64C76.5954 56.8753 75.0039 50.9824 73.2122 45.1535C73.6651 47.8956 74.4348 52.1529 75.4209 54.7506C77.4812 60.1585 77.8619 63.995 79.806 69.0702C80.8963 71.9004 83.0529 78.0379 90.312 91.0265C90.4923 91.3512 84.5799 83.5781 81.5295 78.4227C75.6774 68.541 72.1582 58.2824 69.1841 47.4145C66.4584 37.4646 61.9809 28.4928 54.0885 21.6217C46.9456 15.4081 38.2676 11.311 29.349 8.3405C24.8717 6.8412 20.3223 5.57841 15.7368 4.44793C14.6665 4.17933 2.86205 1.5736 2.87408 1.48941C2.80994 1.97448 2.2046 2.07871 2.03224 1.61369C1.90798 1.26893 1.85999 0.952234 1.83994 0.643555C1.25473 0.908137 0.753687 1.301 0.388929 1.91435C-0.108104 2.74818 -0.0801087 4.04705 0.224525 5.1174C0.328741 5.92718 0.449117 6.74498 0.553333 7.55477C0.332875 17.7973 1.57127 28.2403 3.82796 38.1381C6.17685 48.4167 10.0731 58.3546 16.6388 66.701C22.9399 74.7186 31.4815 80.1506 40.8089 84.0351C51.3147 88.4047 62.0291 91.9686 72.1421 97.2762C75.6815 99.1404 78.9844 101.277 82.2953 103.454C79.0485 107.439 76.423 112.081 73.8136 116.334C70.3503 121.963 66.8992 127.571 63.3758 133.151C61.52 131.732 59.3716 130.73 56.8063 130.201C52.4652 129.315 47.4867 129.972 43.5986 132.237C43.0054 132.418 42.4605 132.722 42.0035 133.223C41.8592 133.372 42.0795 133.576 42.2399 133.476C43.6227 132.638 45.0177 132.835 46.3925 133.392C41.5705 133.849 36.8247 135.681 33.0168 138.571C27.8942 142.46 24.8558 149.323 24.6153 155.713C24.4951 156.186 24.4629 156.675 24.5872 157.172C24.6233 157.288 24.8198 157.272 24.8318 157.148C25.0603 154.995 26.6955 153.745 28.4712 152.662C25.2205 156.675 23.6091 161.971 24.6312 167.13C26.3107 175.593 34.7765 177.621 41.8993 179.87C52.2809 183.141 62.8346 185.819 73.2323 188.994C82.4354 191.8 91.0375 195.921 99.8518 199.638C102.994 203.169 107.78 205.915 112.498 205.234C115.276 204.833 117.46 202.993 119.232 200.944C119.913 200.163 120.567 199.293 121.188 198.391C130.247 192.526 139.31 186.645 148.777 181.445C153.571 178.816 158.413 176.198 163.472 174.101C167.328 172.514 171.268 171.163 175.088 169.483C182.143 166.392 188.985 162.071 192.456 154.939C194.1 151.608 195.006 147.627 194.072 143.947Z" fill="#A19483"/>
<path opacity="0.3" d="M140.691 55.1592C137.12 47.1175 133.997 39.4406 125.307 35.9609C125.928 36.462 126.522 36.9792 127.039 37.5524C127.961 38.5947 128.321 39.8535 128.017 41.2406C127.564 43.2209 126.662 45.0409 126.041 46.9732C124.858 51.7357 123.291 56.3779 122.802 61.3368C122.205 67.3059 121.932 73.2951 121.375 79.2723C121.688 75.8648 134.791 64.604 138.014 62.6076C138.747 62.1506 141.629 61.902 138.583 64.5158C135.031 68.8974 132.67 71.6234 129.732 76.5623C129.215 77.4282 128.73 78.2981 128.253 79.164C130.125 76.9472 132.021 74.7463 133.969 72.5976C136.783 69.4988 139.753 66.5483 142.575 63.4414C142.627 63.6018 142.687 63.7742 142.743 63.9305C144.591 69.3905 145.854 75.0309 147.433 80.5711C148.114 82.9684 148.616 85.6663 149.814 87.9193C146.856 76.8229 145.397 65.7505 140.691 55.1592Z" fill="#A19483"/>
<path opacity="0.3" d="M178.62 164.929C175.518 166.296 172.439 167.732 169.285 168.982C166.042 170.265 162.699 171.267 159.437 172.49C155.059 174.118 150.221 176.355 145.463 175.717C145.423 175.733 145.379 175.757 145.331 175.765C139.735 176.667 142.253 170.297 142.417 167.231C142.834 159.493 136.393 158.852 130.809 160.544C132.905 160.508 134.998 160.973 136.357 162.588C138.794 165.467 134.605 169.957 132.954 172.101C130.597 175.156 127.386 178.968 123.426 179.858C119.433 180.76 115.293 178.58 112.763 175.529C110.679 173.019 108.959 169.447 108.691 166.14C108.615 165.106 108.607 163.615 109.601 162.957C111.104 161.963 113.445 162.24 115.144 161.791C121.016 160.243 126.308 157.116 130.941 153.216C132.969 151.516 135.006 149.592 136.236 147.21C137.146 145.447 137.856 143.17 136.725 141.313C136.348 140.684 136.02 140.115 135.791 139.457C131.659 137.786 127.262 136.655 122.953 135.661C116.295 134.122 109.773 133.376 102.963 134.519C95.3554 135.801 88.3767 138.684 81.4984 141.851C79.374 144.304 80.4041 148.598 81.5304 151.352C83.4103 155.894 86.8295 158.503 91.4431 160.127C94.4093 161.173 97.3915 161.482 100.462 162.135C101.524 162.368 104.739 162.789 103.592 164.497C103.516 164.629 103.396 164.677 103.276 164.685C103.28 166.353 103.32 168.012 103.544 169.668C103.648 170.418 103.805 171.243 103.64 171.997C103.224 173.929 101.376 175.733 99.7243 176.687C94.9744 179.413 89.3506 176.928 85.186 174.13C82.0394 172.025 77.855 167.651 80.4484 163.599C81.9755 161.229 85.595 161.041 88.4168 161.189C86.7614 160.548 85.2101 159.726 83.2621 160.123C81.1857 160.552 78.5683 161.281 77.5422 163.358C75.9468 166.601 77.0932 170.361 76.2274 173.773C74.6081 180.215 68.0786 180.019 62.5992 179.718C53.5805 179.229 44.742 177.678 35.9117 175.845C32.1238 175.06 29.1297 173.757 26.6285 170.73C26.0192 169.989 25.4699 169.199 24.9648 168.385C27.1935 175.809 35.1541 177.758 41.9122 179.894C52.2938 183.166 62.8478 185.843 73.2454 189.018C82.4485 191.825 91.0504 195.946 99.8647 199.662C103.007 203.194 107.793 205.94 112.511 205.258C115.289 204.857 117.473 203.017 119.245 200.969C119.926 200.187 120.58 199.317 121.201 198.415C130.26 192.55 139.323 186.669 148.79 181.47C153.584 178.84 158.426 176.222 163.485 174.126C167.341 172.538 171.281 171.187 175.101 169.508C181.53 166.689 187.771 162.845 191.455 156.792C187.936 160.568 183.338 162.857 178.62 164.929Z" fill="#A19483"/>
<path opacity="0.5" d="M140.021 186.292C136.678 187.911 132.088 190.605 128.958 192.594C127.643 193.424 120.809 198.403 122.749 193.933C124.661 189.539 126.829 184.58 127.711 182.86C125.996 185.486 121.146 194.049 119.314 196.607C117.101 199.677 114.111 201.854 109.818 201.802C105.188 201.734 101.445 197.545 98.7592 194.201C96.1738 190.986 93.8047 187.434 90.6341 184.785C93.5562 188.208 96.2178 191.836 98.3141 197.372C98.3983 197.581 96.8432 197.192 96.5987 197.18C94.2097 197.052 91.9169 196.057 89.6562 195.268C93.0513 196.723 96.4382 198.226 99.8493 199.669C102.992 203.201 107.778 205.947 112.496 205.266C115.274 204.865 117.458 203.025 119.23 200.976C119.911 200.195 120.564 199.325 121.186 198.423C128.922 193.416 136.654 188.401 144.642 183.81C143.256 184.456 141.408 185.626 140.021 186.292Z" fill="#A19483"/>
<path opacity="0.3" d="M145.504 137.854C143.852 136.338 142.068 134.975 140.196 133.732C136.18 131.087 131.586 129.395 126.865 128.485C126.668 128.721 126.271 128.681 126.183 128.353C125.702 128.26 125.907 127.531 126.388 127.607C127.117 125.069 125.802 122.315 124.131 120.387C122.848 118.908 120.303 116.434 117.986 116.891C115.505 117.38 114.928 124.452 116.251 127.896C114.567 127.916 95.9485 126.889 95.9725 128.457C95.9244 126.04 96.3734 123.462 96.1609 121.025C96.0367 119.654 95.5397 117.296 93.6758 117.393C92.3089 117.457 91.1184 118.299 90.1724 119.221C88.2163 121.121 86.6891 123.686 86.4687 126.46C86.3604 127.852 86.3646 128.938 84.9496 129.543C83.1379 130.309 81.1697 130.602 79.3459 131.303C76.2555 132.502 73.3576 133.825 70.5638 135.609C66.8521 137.986 62.2503 140.816 60.0898 144.885C73.65 134.751 91.1145 129.716 107.954 129.772C112.76 129.784 117.597 130.052 122.367 130.646C127.017 131.223 131.947 131.953 136.413 133.428C139.667 134.502 142.638 136.11 145.532 137.858L145.504 137.854Z" fill="#A19483"/>
<path d="M93.9388 126.69C94.1672 122.709 94.0951 119.883 92.2793 120.616C90.4635 121.354 88.4114 127.672 89.3614 129.387C90.3073 131.111 91.4938 130.987 92.5159 130.558C93.542 130.125 93.8626 128.041 93.9388 126.69Z" fill="#1A1300"/>
<path d="M91.3693 121.783C90.4354 123.029 90.5436 124.076 90.9405 124.541C91.3373 125.002 91.9707 124.204 92.2833 122.857C92.592 121.502 92.636 120.095 91.3693 121.783Z" fill="white"/>
<path opacity="0.6" d="M95.2348 110.666C95.2348 110.666 93.5594 105.178 90.9821 105.647C88.4047 106.132 87.2343 112.923 87.2744 113.68C87.3265 114.438 87.4428 117.1 88.2043 115.576C88.9699 114.041 92.1205 112.093 93.6436 113.853C95.1708 115.621 97.3312 116.098 95.2348 110.666Z" fill="#C5C2B6"/>
<path d="M95.2345 110.666C95.2345 110.666 93.5592 105.178 90.9818 105.647C88.4044 106.132 87.9756 110.714 88.0277 111.471C88.0758 112.233 87.3422 112.67 88.7812 111.752C90.8816 110.413 91.6471 110.317 92.8857 110.894C94.9981 111.868 95.8037 112.337 95.2345 110.666Z" fill="#C5C2B6"/>
<path d="M117.114 126.301C116.881 122.324 116.958 119.498 118.769 120.227C120.589 120.969 122.641 127.291 121.695 128.999C120.749 130.722 119.567 130.602 118.537 130.173C117.507 129.744 117.194 127.66 117.114 126.301Z" fill="#1A1300"/>
<path d="M117.704 121.578C117.415 123.105 117.972 124.003 118.533 124.248C119.086 124.484 119.303 123.49 118.998 122.135C118.682 120.788 118.101 119.505 117.704 121.578Z" fill="white"/>
<path opacity="0.6" d="M115.825 110.281C115.825 110.281 117.496 104.785 120.073 105.266C122.651 105.747 123.825 112.538 123.777 113.3C123.729 114.062 123.617 116.719 122.843 115.192C122.086 113.661 118.931 111.708 117.412 113.468C115.877 115.232 113.72 115.721 115.825 110.281Z" fill="#C5C2B6"/>
<path d="M115.825 110.281C115.825 110.281 117.496 104.785 120.074 105.266C122.651 105.747 123.072 110.329 123.028 111.095C122.98 111.853 123.721 112.294 122.274 111.368C120.178 110.033 119.416 109.932 118.174 110.514C116.049 111.496 115.251 111.957 115.825 110.281Z" fill="#C5C2B6"/>
<path d="M138.848 133.841C126.31 129.921 112.886 128.706 99.8272 129.604C87.3652 130.474 75.4805 133.657 65.3715 141.27C65.155 141.426 65.3876 141.743 65.6081 141.606C70.6105 138.528 75.8092 135.922 81.3928 134.078C87.4214 132.082 93.6222 131.264 99.9233 130.803C113.051 129.825 125.877 131.837 138.756 134.154C138.937 134.19 139.041 133.897 138.848 133.841Z" fill="#C5C2B6"/>
<path d="M82.4802 135.713C91.8958 132.967 101.488 130.967 111.424 130.991C121.141 131.015 131.093 133.597 140.14 137.016C144.553 138.684 148.93 140.484 153.207 142.48C153.159 142.404 153.099 142.328 153.007 142.272C139.703 133.236 124.355 129.756 108.45 130.458C92.6854 131.155 75.8424 134.434 63.4727 144.833C69.3368 141.41 75.9186 137.617 82.4802 135.713Z" fill="white"/>
<path d="M140.009 56.787C137.636 51.3149 134.634 46.0594 130.774 41.5735C130.486 41.2368 130.185 40.9 129.876 40.5713C128.986 41.8742 128.562 43.6861 128.153 45.0331C127.135 48.4005 126.189 51.8 125.279 55.1955C122.766 64.5441 121.988 73.9848 120.99 83.5699C120.966 83.7463 121.226 83.7904 121.258 83.618C121.607 82.0225 121.908 80.411 122.188 78.7954C122.2 78.7834 122.216 78.7634 122.228 78.7473C123.242 76.4302 125.527 74.3296 127.243 72.5216C129.263 70.3929 131.42 68.4406 133.548 66.4282C135.572 64.516 137.428 62.4996 139.188 60.3348C139.677 59.7335 140.206 59.088 140.691 58.4146C140.474 57.8694 140.246 57.3282 140.009 56.787Z" fill="#E09D8D"/>
<path opacity="0.4" d="M140.009 56.787C137.636 51.3149 134.634 46.0594 130.774 41.5735C130.486 41.2368 130.185 40.9 129.876 40.5713C128.986 41.8742 128.562 43.6861 128.153 45.0331C127.135 48.4005 126.189 51.8 125.279 55.1955C122.766 64.5441 121.988 73.9848 120.99 83.5699C120.966 83.7463 121.226 83.7904 121.258 83.618C121.607 82.0225 121.908 80.411 122.188 78.7954C122.2 78.7834 122.216 78.7634 122.228 78.7473C123.242 76.4302 125.527 74.3296 127.243 72.5216C129.263 70.3929 131.42 68.4406 133.548 66.4282C135.572 64.516 137.428 62.4996 139.188 60.3348C139.677 59.7335 140.206 59.088 140.691 58.4146C140.474 57.8694 140.246 57.3282 140.009 56.787Z" fill="#E09D8D"/>
<path opacity="0.4" d="M140.009 56.787C137.636 51.3149 134.634 46.0594 130.774 41.5735C130.486 41.2368 130.185 40.9 129.876 40.5713C128.986 41.8742 128.562 43.6861 128.153 45.0331C127.135 48.4005 126.189 51.8 125.279 55.1955C122.766 64.5441 121.988 73.9848 120.99 83.5699C120.966 83.7463 121.226 83.7904 121.258 83.618C121.607 82.0225 121.908 80.411 122.188 78.7954C122.2 78.7834 122.216 78.7634 122.228 78.7473C123.242 76.4302 125.527 74.3296 127.243 72.5216C128.361 71.347 129.527 70.2205 130.702 69.1061C129.231 69.4669 127.728 69.6232 126.373 69.519C126.12 69.4909 125.956 69.3266 125.944 69.0901C125.724 66.1596 128.91 46.7489 134.734 51.1546C137.512 53.2592 138.643 57.5767 138.546 61.1125C138.759 60.8559 138.975 60.6034 139.188 60.3388C139.677 59.7375 140.206 59.0921 140.691 58.4186C140.474 57.8694 140.246 57.3282 140.009 56.787Z" fill="#E09D8D"/>
<path opacity="0.7" d="M129.133 160.415C128.873 160.463 128.905 160.844 129.166 160.824C131.178 160.659 133.683 160.704 135.559 161.489C138.513 162.74 137.691 166.035 136.801 168.449C134.881 173.696 130.023 179.22 124.712 181.173C118.636 183.405 112.952 178.988 109.845 174.101C106.13 168.264 106.791 161.441 107.865 154.927C107.913 154.674 107.561 154.638 107.488 154.863C106.218 158.952 105.264 162.9 105.849 167.21C106.057 168.797 106.518 170.357 107.144 171.836C105.452 175.488 103.143 178.691 99.6882 180.82C95.1989 183.582 90.2966 179.922 86.6971 177.396C83.2179 174.959 80.2839 171.776 79.855 167.374C79.6345 165.157 80.4641 162.796 82.5324 161.766C84.1759 160.948 85.8996 161.213 87.6512 161.136C87.7996 161.132 87.7995 160.908 87.6632 160.872C83.7511 159.934 79.891 160.928 78.7206 165.073C77.3658 169.844 80.8651 174.498 84.2802 177.344C86.2483 178.992 88.5008 180.375 90.7174 181.666C92.8098 182.896 95.5155 183.65 97.9285 183.045C102.634 181.858 105.881 177.661 107.893 173.432C108.426 174.442 109.02 175.412 109.669 176.326C113.669 181.914 120.375 184.873 126.849 181.79C129.883 180.355 132.38 177.713 134.457 175.131C136.601 172.477 138.292 169.367 138.918 165.999C140.036 159.938 133.39 159.773 129.133 160.415Z" fill="#A19483"/>
<path d="M91.1128 171.147C87.4011 171.435 83.5974 172.971 80.2063 174.422C76.6109 175.957 72.9271 178.002 69.8246 180.391C69.7365 180.451 69.8086 180.611 69.9169 180.563C73.3119 179.036 76.5706 177.284 80.0378 175.889C83.7655 174.402 87.5615 173.572 91.3694 172.385C92.0829 172.173 91.8263 171.091 91.1128 171.147Z" fill="#543600"/>
<path d="M91.4116 169.459C87.9925 168.333 84.1285 169.147 80.6372 169.648C77.0257 170.173 73.5303 171.079 70.2355 172.646C70.1192 172.702 70.1753 172.891 70.2996 172.835C77.0015 170.189 84.2566 170.59 91.2912 170.149C91.6319 170.125 91.7643 169.567 91.4116 169.459Z" fill="#543600"/>
<path d="M93.3155 167.395C85.407 165.551 76.9375 165.739 69.2616 168.593C69.0852 168.665 69.1813 168.926 69.3577 168.87C77.2501 166.729 85.2508 167.699 93.2915 167.968C93.6362 167.984 93.6201 167.471 93.3155 167.395Z" fill="#543600"/>
<path d="M140.917 160.627C139.246 160.483 137.61 160.844 135.975 161.157C134.119 161.517 132.247 161.762 130.391 162.111C127.269 162.696 123.136 163.354 120.567 165.314C120.323 165.498 120.443 165.947 120.772 165.903C123.846 165.478 126.908 164.199 129.922 163.43C133.574 162.5 137.166 161.529 140.897 160.996C141.094 160.964 141.142 160.648 140.917 160.627Z" fill="#543600"/>
<path d="M141.864 166.288C138.28 166.06 134.749 166.689 131.19 166.986C127.646 167.29 123.461 167.395 120.235 169.046C119.874 169.231 119.93 169.828 120.395 169.784C123.798 169.463 127.209 168.718 130.608 168.265C134.376 167.763 138.056 166.938 141.852 166.605C142.024 166.585 142.048 166.3 141.864 166.288Z" fill="#543600"/>
<path d="M140.916 171.8C134.002 171.243 126.117 169.106 119.311 171.215C118.95 171.327 119.111 171.8 119.435 171.808C123.223 171.932 126.995 171.756 130.787 171.972C134.15 172.165 137.529 172.301 140.892 172.165C141.108 172.153 141.124 171.808 140.916 171.8Z" fill="#543600"/>
<path d="M69.3411 61.6415C66.6996 52.8622 63.9056 44.0709 59.4964 35.9811C55.0432 27.8031 48.7101 21.2927 40.6212 16.6545C31.7548 11.5713 21.4173 8.86939 11.4686 6.877C9.92539 6.57233 8.39034 6.27969 6.85916 5.99105C6.77499 5.93092 6.65879 5.90687 6.55457 5.93092C5.60059 5.75453 4.64249 5.57012 3.68851 5.36567C3.48007 5.32158 3.43192 5.62625 3.62832 5.68237C4.48611 5.91088 5.34807 6.13136 6.20986 6.36387C4.28185 9.77939 5.19163 14.137 6.03738 17.7569C6.5745 20.0059 7.27992 22.2027 7.74088 24.4677C8.31407 27.2498 8.81119 30.028 9.48058 32.79C11.9778 42.9724 15.922 53.235 21.4816 62.1426C24.0269 66.2196 27.1894 69.8797 30.9092 72.9184C34.7612 76.0573 39.4669 77.8211 44.2007 79.1561C49.2231 80.5712 54.3097 81.7498 59.3362 83.1769C64.7955 84.7243 75.8787 84.7484 78.7046 90.5171C79.2457 91.6396 79.8147 92.738 80.412 93.8324C80.5242 94.0288 80.8489 93.8564 80.7648 93.648C76.4678 83.1128 72.6159 72.5335 69.3411 61.6415Z" fill="#E09D8D"/>
<path opacity="0.4" d="M69.3411 61.6415C66.6996 52.8622 63.9056 44.0709 59.4964 35.9811C55.0432 27.8031 48.7101 21.2927 40.6212 16.6545C31.7548 11.5713 21.4173 8.86939 11.4686 6.877C9.92539 6.57233 8.39034 6.27969 6.85916 5.99105C6.77499 5.93092 6.65879 5.90687 6.55457 5.93092C5.60059 5.75453 4.64249 5.57012 3.68851 5.36567C3.48007 5.32158 3.43192 5.62625 3.62832 5.68237C4.48611 5.91088 5.34807 6.13136 6.20986 6.36387C4.98732 8.52864 4.91094 11.0863 5.2276 13.5757C5.66851 10.4048 7.13976 8.15982 10.6791 8.90146C14.5672 9.72727 18.6035 11.7197 22.1549 13.4835C26.0309 15.4238 29.7427 17.773 32.9574 20.6954C39.8036 26.885 44.4654 35.2595 45.0306 44.58C45.2951 48.8774 44.7417 53.3032 43.2547 57.3561C42.1043 60.507 40.4209 63.4495 37.0699 64.6041C30.5283 66.857 23.7784 61.7818 19.4574 57.3762C18.9323 56.835 18.3911 56.2737 17.8539 55.6804C18.9803 57.8973 20.1828 60.0661 21.4855 62.1466C24.0308 66.2236 27.1933 69.8837 30.9131 72.9224C34.7651 76.0613 39.4708 77.8252 44.2046 79.1601C49.2271 80.5752 54.3136 81.7538 59.3401 83.1809C64.7994 84.7284 75.8826 84.7524 78.7085 90.5211C79.2496 91.6436 79.8189 92.742 80.4161 93.8364C80.5284 94.0328 80.8529 93.8604 80.7687 93.652C76.4677 83.1128 72.6159 72.5335 69.3411 61.6415Z" fill="#E09D8D"/>
<path opacity="0.4" d="M69.3422 61.6418C66.7007 52.8624 63.9067 44.0711 59.4976 35.9813C55.0443 27.8033 48.7112 21.293 40.6224 16.6547C32.241 11.8482 22.5609 9.17028 13.1133 7.20996C23.078 10.401 33.2352 13.568 41.0234 20.5433C50.471 28.9979 56.1107 41.309 60.3154 53.0589C62.1192 58.098 63.7786 63.3335 64.3678 68.6893C64.6564 71.3191 65.0531 74.5301 63.4217 76.8593C60.7842 80.6436 55.369 81.0846 51.02 80.9643C53.7937 81.6779 56.5757 82.3834 59.3334 83.1732C64.7927 84.7206 75.8757 84.7446 78.7015 90.5133C79.2427 91.6358 79.812 92.7342 80.4092 93.8286C80.5214 94.025 80.8462 93.8527 80.762 93.6442C76.4691 83.113 72.617 72.5337 69.3422 61.6418Z" fill="#E09D8D"/>
<path d="M137.119 140.135C129.735 124.673 74.9133 130.53 79.4587 147.363C81.1422 153.58 89.3072 158.122 94.8027 159.497C98.4663 160.403 103.012 161.394 106.788 161.354C110.551 161.313 116.584 160.123 120.019 158.551C128.921 154.478 140.782 147.804 137.119 140.135Z" fill="#E09D8D"/>
<path opacity="0.4" d="M129.874 145.459C124.018 148.63 117.905 151.203 111.291 152.202C103.483 153.368 94.837 151.464 87.5979 148.409C85.241 147.415 82.1867 145.972 80.9481 143.55C80.5753 142.829 80.419 142.119 80.427 141.446C79.2686 143.218 78.8677 145.206 79.457 147.367C81.1405 153.585 89.3055 158.127 94.8009 159.502C98.4645 160.408 103.01 161.398 106.786 161.358C110.55 161.318 116.582 160.127 120.017 158.555C128.739 154.575 140.271 148.084 137.317 140.624C135 142.765 131.73 144.456 129.874 145.459Z" fill="#E09D8D"/>
<path d="M122.086 183.009C117.248 183.253 112.683 180.535 109.66 176.318C109.011 175.404 108.414 174.434 107.885 173.424C105.873 177.657 102.622 181.854 97.9199 183.037C97.022 183.265 96.0881 183.294 95.1541 183.193C94.5128 183.113 93.8676 182.977 93.2383 182.78C93.6992 183.149 94.152 183.522 94.601 183.907C96.537 185.579 98.0482 187.615 99.6395 189.611C102.417 193.103 106.025 196.198 110.779 195.44C115.4 194.707 117.845 190.846 120.202 187.274C121.317 185.575 122.74 184.091 124.223 182.688C123.501 182.869 122.792 182.973 122.086 183.009Z" fill="#650016"/>
<path d="M101.337 191.888C103.895 193.933 108.103 194.27 111.058 193.444C113.182 192.855 114.986 191.784 116.509 190.381C116.573 189.716 116.621 189.05 116.669 188.397C116.838 186.36 117.074 184.324 117.331 182.303C116.866 182.139 116.421 181.943 115.976 181.73C113.535 180.572 111.35 178.679 109.659 176.314C109.254 175.749 108.885 175.16 108.532 174.554C108.308 174.181 108.087 173.805 107.883 173.424C107.642 173.941 107.374 174.458 107.093 174.967C105.502 177.834 103.33 180.503 100.48 182.047C100.047 182.267 99.5978 182.468 99.1328 182.652C99.3453 183.899 99.6577 185.077 99.8702 185.975C100.311 187.848 100.716 189.912 101.337 191.888Z" fill="#EBEDEC"/>
<path opacity="0.3" d="M99.9744 186.473C100.203 185.627 100.596 184.857 101.205 184.216C103.45 181.874 105.979 184.047 108.007 185.627C108.532 184.384 109.166 182.7 110.613 182.548C112.557 182.343 114.441 183.414 115.687 184.841C116.172 185.39 116.549 186.02 116.838 186.689C116.982 185.226 117.15 183.763 117.331 182.303C116.866 182.139 116.421 181.943 115.976 181.73C113.535 180.572 111.35 178.679 109.659 176.314C109.254 175.749 108.885 175.16 108.532 174.554C108.308 174.181 108.087 173.805 107.883 173.424C107.642 173.941 107.374 174.458 107.093 174.967C105.502 177.834 103.33 180.503 100.48 182.047C100.047 182.267 99.5978 182.468 99.1328 182.652C99.3453 183.899 99.6577 185.077 99.8702 185.975C99.9063 186.144 99.9423 186.316 99.9744 186.473Z" fill="#A19483"/>
<path opacity="0.3" d="M116.509 190.382C116.573 189.716 116.621 189.051 116.669 188.397C116.837 186.361 117.074 184.324 117.33 182.304C116.865 182.139 116.42 181.943 115.976 181.73C115.639 184.577 115.366 187.423 115.098 190.277C115.05 190.718 115.006 191.175 114.941 191.628C115.499 191.251 116.02 190.843 116.509 190.382Z" fill="#A19483"/>
<path opacity="0.3" d="M108.048 189.03C108.196 190.469 108.353 191.916 108.517 193.352C108.525 193.384 108.565 193.572 108.617 193.837C108.877 193.813 109.138 193.797 109.391 193.769C109.282 192.642 109.142 191.508 109.094 190.409C108.97 187.763 108.781 185.121 108.633 182.472C108.505 180.066 108.617 177.653 108.549 175.252C108.545 175.015 108.541 174.791 108.533 174.558C108.308 174.185 108.088 173.809 107.883 173.428C107.643 173.945 107.374 174.462 107.094 174.971C107.142 176.791 107.23 178.611 107.282 180.427C107.366 183.322 107.759 186.16 108.048 189.03Z" fill="#A19483"/>
<path opacity="0.3" d="M101.338 191.889C101.738 192.209 102.167 192.482 102.636 192.718C102.027 190.738 101.598 188.685 101.189 186.613C100.877 185.033 100.588 183.53 100.476 182.047C100.043 182.267 99.5939 182.468 99.1289 182.652C99.3413 183.899 99.6541 185.078 99.8665 185.976C100.311 187.848 100.716 189.912 101.338 191.889Z" fill="#A19483"/>
<path d="M121.66 136.411C117.58 132.518 111.122 132.727 105.887 132.951C100.737 133.168 94.8486 134.695 91.0207 138.287C90.5998 138.684 91.0566 139.397 91.5696 139.345C96.4879 138.82 101.326 138.038 106.284 137.77C111.227 137.497 116.189 138.68 121.115 138.155C122.013 138.055 122.282 137.004 121.66 136.411Z" fill="#FFC0B3"/>
<path d="M129.797 135.625C128.771 135.04 126.972 134.591 125.641 134.731C124.967 134.803 124.47 135.044 124.138 135.34C123.356 135.701 123.112 136.483 123.613 137.148C124.695 138.575 127.4 139.341 129.589 139.349C130.379 139.349 131.288 138.808 131.333 138.243C131.417 137.208 130.976 136.314 129.797 135.625Z" fill="#FFC0B3"/>
<path d="M173.743 121.946C169.33 120.535 163.438 121.445 159.053 122.612C153.381 124.131 148.438 127.483 144.819 132.093C144.699 132.245 144.891 132.482 145.059 132.353C153.304 126.108 163.293 122.929 173.611 122.652C173.98 122.652 174.108 122.055 173.743 121.946Z" fill="white"/>
<path d="M185.73 128.429C180.651 122.391 172.266 123.534 165.981 126.849C165.801 126.945 165.965 127.19 166.133 127.15C172.839 125.538 179.02 126.031 185.265 128.982C185.59 129.142 185.974 128.725 185.73 128.429Z" fill="white"/>
<path d="M51.901 136.198C40.7779 132.574 31.4905 139.337 27.2697 149.335C27.2056 149.483 27.418 149.576 27.4982 149.439C30.0435 145.162 33.5587 142.007 38.0039 139.81C42.4652 137.605 46.8704 137.417 51.7285 137.168C52.2135 137.148 52.402 136.363 51.901 136.198Z" fill="white"/>
<path d="M65.1155 136.479C60.7103 130.518 52.0041 130.157 45.5386 132.218C45.3903 132.258 45.4386 132.482 45.5949 132.47C52.389 131.905 58.5978 134.038 64.4419 137.285C64.9189 137.561 65.4201 136.904 65.1155 136.479Z" fill="white"/>
<path d="M122.636 95.701C117.482 91.0067 110.856 85.5827 103.493 86.1881C96.3939 86.7774 91.1068 94.9073 87.6075 100.219C87.4192 100.504 87.8202 100.868 88.0367 100.576C91.8165 95.6248 96.7748 91.0468 102.755 88.9501C109.593 86.5408 116.696 93.5082 122.304 96.2262C122.632 96.3825 122.893 95.9375 122.636 95.701Z" fill="white"/>
<path d="M177.218 46.4282C172.5 38.9477 166.019 34.7465 158.138 31.0103C150.787 27.5266 142.318 23.3935 133.996 24.9249C133.728 24.977 133.652 25.418 133.972 25.446C142.209 26.0313 149.505 30.457 156.832 33.8565C160.423 35.5202 163.902 37.4204 167.43 39.2123C171.35 41.2007 173.911 43.5659 176.873 46.7449C177.062 46.9453 177.35 46.6447 177.218 46.4282Z" fill="white"/>
<path d="M67.1415 30.1683C58.3152 12.1607 37.648 6.93316 19.7789 2.88826C19.6025 2.84016 19.5145 3.12478 19.6869 3.18492C27.6074 6.19153 35.8203 8.41643 43.5324 11.9682C47.8293 13.9526 51.8938 16.2858 55.7538 19.0438C60.0628 22.1266 63.021 26.6205 66.5563 30.469C66.7848 30.7135 67.3259 30.5331 67.1415 30.1683Z" fill="white"/>
</svg>
