<svg width="986" height="625" viewBox="0 0 986 625" fill="none" xmlns="http://www.w3.org/2000/svg">
<path d="M764.906 349.73L781.289 436.053L774.593 510.463L770.139 540.963L745.58 569.244L744.832 576.688L779.81 581.158L793.943 577.428L793.195 557.338L799.152 543.945L807.336 546.172L804.353 520.134L813.285 488.878L830.392 414.469L791.7 350.478L764.906 349.73Z" fill="#CEB197"/>
<path d="M660.746 383.221L680.096 415.224L698.706 429.349L694.229 447.212L700.933 456.875L715.074 439.775L726.964 444.977L728.467 466.562L740.365 465.822L745.582 439.775L759.722 434.558L768.638 450.186L776.83 446.464L773.847 428.602L817.756 404.798L782.031 346.764L660.746 383.221Z" fill="#DD7772"/>
<path d="M728.467 466.561L740.365 465.821L745.582 439.775L759.722 434.558L768.638 450.186L776.83 446.464L773.847 428.601L817.756 404.797L812.555 396.357L792.068 403.676L760.836 407.032L721.762 408.13L685.399 375.815L660.746 383.22L680.096 415.224L698.706 429.349L694.229 447.211L700.933 456.875L715.074 439.775L726.964 444.977L728.467 466.561Z" fill="#CC6060"/>
<path d="M318.469 376.524L328.887 452.421L340.053 478.467L351.212 543.945L354.934 552.869L340.053 561.06L325.157 584.872L339.314 591.561L357.161 590.081L369.814 587.854L383.199 560.305L376.511 546.172L375.023 486.643L375.755 392.152L318.469 376.524Z" fill="#CEB197"/>
<path d="M930.118 166.689L938.302 180.822L944.259 362.391L960.626 428.601L985.185 471.771L969.55 537.996L979.968 558.825L974.019 564.782L948.712 537.996L939.789 442.002L944.259 427.877L930.118 365.366L925.648 205.381L930.118 166.689Z" fill="#CEB197"/>
<path d="M188.99 43.1613L154.013 33.4902L78.1237 80.3737L76.6363 87.0625L20.0818 123.535L0 130.972V141.39L6.68097 171.151L17.0995 183.812L31.2401 183.057L37.9523 191.233H75.8966L117.563 183.057L128.721 192.735L145.837 221.009L186.008 247.047L241.083 284.252L272.323 345.276L299.857 390.657L325.911 402.563L361.621 417.459L365.343 447.211L375.753 461.352L382.465 531.3L375.753 575.201L366.09 582.645L355.672 615.38L364.603 616.86L366.09 624.311L409.999 615.38V584.124L416.68 576.688L419.655 566.27L427.846 563.287L416.68 487.398L422.637 456.875L434.551 409.267L531.276 407.04L633.967 389.917L681.59 395.119L778.308 359.409L787.248 364.618L822.957 443.489L828.174 454.648L829.654 473.266L836.358 552.869L822.957 563.287L818.503 572.958L799.885 599.005L802.12 604.961H851.978L861.649 586.351L864.631 572.958L881.007 558.826L880.267 545.432L877.285 474.745L903.316 442.002L899.609 415.224L891.425 384.716L930.117 217.295L932.336 162.22L875.05 103.446L801.396 75.1644H761.941L727.726 84.0881L604.946 73.6773L525.327 78.8788L491.097 72.19L427.106 52.0926L404.035 47.6463L347.496 63.2508L296.89 71.4348L241.083 66.9807L226.195 64.0062L188.99 43.1613Z" fill="#DDC4AB"/>
<path d="M10.7773 143.617L23.0569 140.269L30.867 143.617L24.1781 145.852L19.7087 150.314L10.7773 143.617Z" fill="#594B40"/>
<path d="M325.909 402.563L360.42 416.945L361.245 380.239L350.087 317.735L340.042 309.925L338.929 314.387L345.617 323.326L347.852 359.028L328.876 350.104L307.665 300.986L249.639 242.952L221.731 223.976L200.528 192.72L211.687 178.221L225.08 145.852L219.504 140.269L194.945 164.828L153.645 170.403L111.231 162.586L82.8406 170.45L82.5758 169.664H62.4862L55.05 178.244L44.2654 181.562L31.2695 183.08L37.9505 191.233H75.8948L117.561 183.057L128.72 192.735L145.835 221.009L186.006 247.047L241.081 284.252L272.321 345.276L299.855 390.657L325.909 402.563Z" fill="#CEB197"/>
<path d="M395.102 327.421L384.676 333.363V360.156L397.329 377.271L405.521 372.794L415.192 346.016L405.521 332.63L395.102 327.421Z" fill="#594B40"/>
<path d="M537.973 149.566L524.572 157.01L523.832 171.143L529.041 177.108L531.276 191.233L540.207 204.634L554.34 200.912L568.473 180.822L556.583 159.253L537.973 149.566Z" fill="#594B40"/>
<path d="M680.835 264.91H668.929L662.973 276.808L674.879 294.671L698.698 277.556L701.665 269.372L680.835 264.91Z" fill="#594B40"/>
<path d="M778.309 359.409L786.096 363.957L774.213 351.218L753.018 344.521L681.591 354.581L604.573 365.732L543.175 372.436L485.133 360.157L461.711 351.218L462.817 331.128L463.938 313.273L455.007 306.569L450.537 321.083L446.083 330.007L444.962 365.732L438.258 394.745L434.637 409.267L531.277 407.04L633.968 389.917L681.591 395.119L778.309 359.409Z" fill="#CEB197"/>
<path d="M930.646 203.894C930.537 203.894 930.483 203.886 930.483 203.886L907.029 273.094L885.826 336.711L878.024 391.404L881.372 433.811L864.631 463.945L859.048 487.398L860.162 532.031L864.631 561.06L862.396 578.915L836.739 571.105L831.141 572.219L861.555 586.53L861.649 586.359L864.631 572.966L881.014 558.833L880.267 545.44L877.284 474.753L903.323 442.01L899.609 415.224L891.425 384.716L930.117 217.295L930.646 203.894Z" fill="#CEB197"/>
<path d="M892.157 238.124L878.032 242.586L866.865 254.484C866.865 254.484 869.832 269.372 869.832 271.607C869.832 273.826 868.345 296.906 866.118 299.872C863.883 302.862 861.648 316.255 861.648 316.255L879.519 329.641L902.03 338.767L921.037 256.501L892.157 238.124Z" fill="#594B40"/>
<path d="M887.168 332.74L902.025 338.759L921.04 256.501L914.149 252.109L907.032 273.094L887.168 332.74Z" fill="#3F342C"/>
<path d="M699.438 379.141L644.752 383.587C644.752 383.587 552.114 392.526 547.644 393.632C543.182 394.745 471.748 393.632 471.748 393.632C471.748 393.632 452.958 395.75 437.704 397.167L434.551 409.267L531.277 407.04L633.967 389.917L681.591 395.119L720.438 380.776L699.438 379.141Z" fill="#BC9A7E"/>
<path d="M361.248 391.957C336.806 388.952 326.644 388.056 326.644 388.056L288.7 356.793L259.375 319.97L272.324 345.276L299.858 390.657L325.912 402.555L361.622 417.451L361.248 391.957Z" fill="#BC9A7E"/>
<path d="M875.049 103.446L801.395 75.1645H761.94L727.726 84.0883L604.945 73.6774L525.327 78.8789L491.097 72.1901L427.106 52.0928L404.034 47.6465L347.495 63.2509L296.889 71.4349L256.492 68.2112L270.095 75.1645L302.091 81.1136L370.544 72.922L412.957 66.9732L491.097 92.272L593.772 107.152L667.449 102.69L765.654 99.7239L834.862 106.405L875.049 116.084L908.532 147.331L922.634 152.253L875.049 103.446Z" fill="#EFD3B9"/>
<path d="M546.896 337.077C546.896 334.85 532.756 287.235 532.756 287.235L544.661 257.474C544.661 257.474 539.452 243.341 537.225 241.838C534.99 240.351 505.23 217.295 505.23 217.295L494.803 191.988L502.995 157.758L538.712 87.0628L535.753 78.1937L525.319 78.8791L491.089 72.1903L427.09 52.0929L404.026 47.6466L372.015 56.4846L368.301 64.7541L380.215 90.0529L398.817 132.467V142.13L399.565 167.437L395.095 191.988L385.424 183.812H370.528L366.814 175.613L360.117 159.977L348.212 162.22L332.584 137.668L316.216 95.2466L299.841 78.1393L296.01 71.3726L273.132 69.5583L274.542 75.1725L273.047 85.599L247.008 81.1373L235.85 75.1725V65.9299L226.179 64.0065L188.974 43.1616L171.4 38.2949L151.022 53.5802L131.68 63.2511L114.565 72.1824L104.146 86.3152L84.8043 93.004L60.2529 122.025L44.6172 133.923L45.3648 147.332L63.9671 166.674L66.6146 191.217H75.8806L117.547 183.041L128.713 192.72L135.441 203.824L162.196 198.669L189.73 191.973L220.246 167.421L234.386 157.75L242.57 160.725L244.057 179.327L250.746 199.424L247.024 221.009L227.682 245.553L208.386 262.169L231.785 277.976L247.764 267.129L267.853 284.992L296.874 317.727L313.249 331.868L337.801 337.069L350.454 326.658C350.454 326.658 369.796 305.813 372.031 303.594C374.266 301.352 415.932 288.714 415.932 288.714L445.693 315.5L456.111 340.044L473.219 358.654L505.954 373.542L533.495 360.889C533.495 360.889 546.896 339.312 546.896 337.077Z" fill="#594B40"/>
<path d="M313.258 331.875L321.784 333.682L307.667 300.986L249.641 242.952L236.676 234.145L227.682 245.56L208.387 262.169L231.794 277.984L247.772 267.137L267.861 285L296.882 317.735L313.258 331.875Z" fill="#3F342C"/>
<path d="M162.203 198.684L189.736 191.988L214.101 172.373L225.08 145.852L219.505 140.269L194.945 164.828L153.645 170.403L111.231 162.586L82.8409 170.45L82.5761 169.664H64.3008L66.6291 191.233H75.8951L117.562 183.057L128.72 192.735L135.448 203.839L162.203 198.684Z" fill="#3F342C"/>
<path d="M350.088 317.735L340.043 309.925L338.93 314.387L345.618 323.318L346.062 330.287L350.454 326.666C350.454 326.666 350.851 326.246 351.482 325.56L350.088 317.735Z" fill="#3F342C"/>
<path d="M95.9704 97.4732L107.884 92.2717L122.017 75.1643L140.619 78.8786L148.811 84.088L173.37 72.1898L182.293 68.4521L186.008 75.1643L157.734 90.0447L142.106 94.5064L130.201 101.943H116.068H102.675H91.5086L87.0469 98.976L95.9704 97.4732Z" fill="#3F342C"/>
<path d="M123.514 81.8535L139.882 86.3153L135.42 92.2722L126.488 95.9863L118.297 93.7671L121.279 87.8026L119.792 81.8535H123.514Z" fill="#191411"/>
<path d="M450.535 321.083L449.203 323.769L456.126 340.051L461.966 346.421L462.814 331.128L463.935 313.273L455.004 306.569L450.535 321.083Z" fill="#3F342C"/>
<path d="M485.13 360.157L468.91 353.958L473.232 358.662L505.967 373.55L519.36 367.391L485.13 360.157Z" fill="#3F342C"/>
<path d="M368.309 64.7461L372.062 72.712L412.957 66.9732L491.097 92.272L533.012 98.3456L538.72 87.0627L535.761 78.1936L525.327 78.8789L491.097 72.1901L427.106 52.0928L404.034 47.6465L372.023 56.4766L368.309 64.7461Z" fill="#726156"/>
<path d="M302.092 81.1134L302.644 81.0433L299.857 78.139L296.034 71.3646L288.309 70.7572L273.156 69.5503L274.566 75.1643L274.449 75.9665L302.092 81.1134Z" fill="#726156"/>
<path d="M875.05 103.446L801.396 75.1646H761.941L727.726 84.0883L665.713 78.8321L654.788 83.3561L633.219 87.8103L625.775 85.5911L622.053 90.7925L616.844 133.938L629.497 136.181L668.189 149.566L696.462 146.6L721.014 157.01L723.996 173.386L709.108 178.587L683.817 173.386L664.475 185.284L652.561 191.988L654.056 222.496L662.24 242.586L683.817 238.124L718.039 241.091L731.432 264.163L729.198 278.311L700.924 291.688L706.873 308.072L734.399 305.082L782.03 287.982L806.597 242.586V212.825L811.051 200.172L833.375 215.052L862.396 186.779L892.157 158.498L877.269 130.972L878.577 107.051L875.05 103.446Z" fill="#594B40"/>
<path d="M654.788 83.3561L633.219 87.8103L625.775 85.5911L622.053 90.7925L620.277 105.548L667.449 102.69L765.654 99.7239L834.862 106.405L875.049 116.084L877.938 118.786L878.577 107.051L875.049 103.446L801.395 75.1646H761.94L727.726 84.0883L665.713 78.8321L654.788 83.3561Z" fill="#726156"/>
<path d="M158.95 53.7669L149.567 34.9932L134.679 32.0109L107.893 35.7253H91.5098L80.3594 17.8705L81.099 0L93.0049 14.8959L119.051 21.5847L151.039 11.9136L174.858 18.61L184.529 35.7253V49.8579L158.95 53.7669Z" fill="#B28056"/>
<path d="M184.528 48.9003V35.7253L174.857 18.61L151.037 11.9136L119.05 21.5847L93.0031 14.8958L81.0973 0L80.9805 2.80309L92.2634 20.8371L108.631 24.5669L148.063 26.0464L165.933 41.6666L172.209 51.7423L180.915 50.4109L184.528 48.9003Z" fill="#E0B882"/>
<path d="M162.953 64.0063L177.094 49.118L188.992 31.2632L225.457 18.6099L232.153 28.2809L232.893 40.1945L198.663 60.2764L183.043 72.19L162.953 64.0063Z" fill="#594B40"/>
<path d="M177.918 59.9025L184.529 49.8576L198.654 36.4724L217.264 29.0205L227.683 32.7425L223.96 40.9265L207.593 49.8576L192.993 53.4862L177.918 59.9025Z" fill="#3F342C"/>
</svg>
