<svg width="448" height="381" viewBox="0 0 448 381" fill="none" xmlns="http://www.w3.org/2000/svg">
<path d="M148.68 32.3821C148.68 32.3821 149.434 20.6081 153.058 18.0416C156.68 15.4751 169.661 21.5129 169.661 21.5129L148.68 32.3821Z" fill="#666666"/>
<path opacity="0.5" d="M148.68 32.3821C148.68 32.3821 149.434 20.6081 153.058 18.0416C156.68 15.4751 169.661 21.5129 169.661 21.5129L148.68 32.3821Z" fill="#666666"/>
<path d="M184.605 12.0523C184.605 12.0523 181.586 2.29095 187.122 0.27835C192.657 -1.73425 201.611 7.82704 201.611 7.82704C201.611 7.82704 200.002 3.80181 203.522 3.29721C207.045 2.79261 209.46 11.5507 221.03 14.268C232.602 16.9853 252.729 24.8355 265.304 36.9111C277.883 48.9867 300.625 57.8433 304.246 64.7888C307.868 71.7314 292.474 79.3816 288.449 81.8988C284.494 84.3725 279.466 97.0542 292.482 126.347C292.972 127.449 292.926 128.722 292.352 129.784C290.667 132.913 285.984 138.806 274.661 138.658C274.661 138.658 274.763 143.991 267.618 144.092C267.618 144.092 269.227 151.438 252.021 150.432C252.021 150.432 261.781 159.187 263.996 172.17C266.209 185.153 261.079 190.185 261.984 194.915C262.889 199.645 284.221 200.549 278.486 210.917C278.486 210.917 286.437 214.641 282.714 218.767C282.714 218.767 300.926 233.963 305.557 242.115C305.557 242.115 297.003 220.177 309.883 192.801C322.763 165.428 334.034 156.571 340.674 166.031C340.674 166.031 348.323 138.658 370.056 126.176C391.792 113.697 407.69 126.579 410.709 172.472C410.709 172.472 411.312 163.615 419.361 173.881C427.411 184.147 422.783 197.832 422.783 197.832C422.783 197.832 444.217 220.174 443.614 262.746C443.011 305.315 420.066 324.336 403.767 333.094C403.767 333.094 409.804 331.281 411.616 337.925C413.429 344.566 404.37 351.512 401.05 352.417C401.05 352.417 406.081 353.423 397.026 361.07C387.97 368.718 348.927 374.152 328.6 361.07C328.6 361.07 322.966 371.133 297.406 373.349C271.846 375.564 271.646 373.349 268.827 376.168C266.189 378.807 247.498 381.797 233.231 379.526C231.544 379.256 230.364 377.67 230.535 375.97C230.796 373.363 231.503 369.518 233.408 366.308C233.408 366.308 221.937 362.282 217.71 360.873C217.71 360.873 220.728 363.892 202.011 363.892C184.512 363.892 153.637 363.541 139.829 361.354C138.173 361.093 136.941 359.661 137.031 357.988C137.161 355.578 138.054 352.277 141.635 350.607C141.635 350.607 111.647 327.056 105.207 305.118C98.7671 283.179 105.61 270.094 114.666 261.238C114.666 261.238 113.86 235.071 114.466 224.405C114.466 224.405 104.604 221.183 105.207 210.92C105.207 210.92 97.1578 208.704 93.9363 195.622C93.9363 195.622 89.5086 195.622 87.6963 191.194C87.6963 191.194 75.4918 201.214 48.1512 161.002C22.4924 123.262 15.2781 101.053 13.5674 92.5012C13.5674 92.5012 8.40309 91.26 7.29544 86.127C7.29544 86.127 0.0058006 84.9206 1.34602e-06 79.6368C-0.00289828 75.2607 4.67999 75.7131 4.67999 75.7131C4.67999 75.7131 2.41538 72.845 6.34147 68.9213C10.2647 64.9976 14.3416 70.4323 14.3416 70.4323C14.3416 70.4323 15.5478 64.9976 21.2862 65.1484C27.0216 65.2992 26.0937 71.0877 25.6646 74.356C24.9107 80.0922 27.4769 85.0743 32.154 90.5089C36.834 95.9435 70.0405 127.493 93.4346 129.154C93.4346 129.154 78.3392 105.754 78.4929 91.7154C78.4929 91.7154 72.0035 88.5457 70.9451 84.4683C70.9451 84.4683 63.5482 83.1081 63.3974 77.6764C63.2466 72.2418 68.8313 72.5435 68.8313 72.5435C68.8313 72.5435 65.5112 68.6198 68.8313 64.2408C72.1514 59.8618 77.2837 62.7299 77.2837 62.7299C77.2837 62.7299 80.0007 58.6553 85.8869 61.5234C91.7732 64.3915 87.5484 68.9213 88.9054 77.0732C90.2625 85.2251 100.527 101.68 133.432 109.379C133.432 109.379 130.112 101.227 124.075 94.4355C118.038 87.6437 121.207 82.6615 121.207 82.6615C121.207 82.6615 116.527 80.849 118.34 75.2636C118.34 75.2636 116.846 71.279 117.499 66.3867C117.745 64.5423 119.409 63.1504 121.268 63.1794C126.003 63.2519 135.52 61.7236 142.537 49.7205C144.332 46.6494 145.086 43.0215 144.393 39.5299C143.987 37.4825 143.801 35.1392 144.604 33.7501C146.266 30.8733 168.431 17.1157 184.605 12.0523Z" fill="url(#paint0_linear_603_19550)"/>
<path opacity="0.5" d="M133.438 109.37C138.228 110.597 204.229 126.579 216.503 128.391C228.78 130.204 239.045 135.032 252.024 150.431C269.23 151.438 267.621 144.092 267.621 144.092C274.765 143.99 274.664 138.657 274.664 138.657C284.717 138.788 289.522 134.165 291.656 130.935C273.849 147.74 266.806 118.931 219.722 121.147C172.974 123.345 134.044 106.752 122.906 92.8809C123.275 93.3913 123.599 93.8929 124.075 94.4265C130.115 101.218 133.438 109.37 133.438 109.37Z" fill="#666666"/>
<path opacity="0.5" d="M96.3585 178.308C90.5216 172.471 107.226 160.998 107.226 160.998C110.448 180.924 155.325 199.04 169.615 208.097C183.904 217.154 198.997 209.454 198.997 209.454C214.492 214.637 216.908 204.475 216.908 204.475C209.864 212.122 198.391 205.481 198.391 205.481C183.498 219.973 153.713 190.164 153.713 190.164C128.556 177.061 99.174 139.26 93.4386 129.148C70.0444 127.486 36.835 95.9368 32.1579 90.5022C27.4779 85.0676 24.9117 80.0854 25.6685 74.3492C26.0977 71.0809 27.0284 65.2926 21.2901 65.1418C15.5546 64.991 14.3455 70.4255 14.3455 70.4255C14.3455 70.4255 10.2715 64.9909 6.34542 68.9146C2.42223 72.8383 4.68394 75.7065 4.68394 75.7065C4.68394 75.7065 0.00100797 75.2541 0.0039076 79.6302C0.00680722 84.9169 7.29939 86.1203 7.29939 86.1203C8.40704 91.2533 13.5713 92.4946 13.5713 92.4946C15.282 101.05 22.4934 123.258 48.1551 160.995C75.4957 201.207 87.7002 191.187 87.7002 191.187C89.5125 195.616 93.9402 195.616 93.9402 195.616C92.5339 185.756 96.3585 178.308 96.3585 178.308Z" fill="#666666"/>
<path opacity="0.5" d="M252.023 150.432C269.229 151.439 267.62 144.093 267.62 144.093C267.921 147.715 249.657 144.244 238.638 135.338C227.62 126.432 221.2 125.376 207.282 124.469C193.439 123.567 171.851 118.59 171.613 118.535C190.409 122.952 210.303 127.479 216.502 128.392C228.779 130.205 239.044 135.036 252.023 150.432Z" fill="#666666"/>
<path opacity="0.5" d="M23.2188 118.609C28.4758 129.583 36.3454 143.625 48.1584 160.999C75.499 201.21 87.7035 191.191 87.7035 191.191C89.5158 195.619 93.9435 195.619 93.9435 195.619C92.5343 185.756 96.3589 178.309 96.3589 178.309C90.522 172.471 107.227 160.999 107.227 160.999C111.637 157.553 110.196 155.715 109.004 150.167C101.381 141.047 95.6485 133.04 93.439 129.145C91.4382 129.003 89.3476 128.574 87.2251 128.032C79.1409 131.433 39.5958 146.258 23.2188 118.609Z" fill="#666666"/>
<path opacity="0.5" d="M200.646 276.568C200.753 275.689 200.901 274.828 201.046 273.964C201.084 273.7 201.127 273.442 201.162 273.178C201.214 272.911 201.249 272.743 201.281 272.574C201.435 271.591 201.643 270.675 201.904 269.822C205.639 254.969 215.561 243.708 231.799 244.934C253.132 246.544 269.637 257.213 269.637 257.213C269.637 257.213 235.827 232.456 214.291 247.35C192.759 262.245 199.199 286.399 193.159 297.468C188.259 306.452 187.6 317.026 187.528 320.691C187.525 321.138 187.534 321.576 187.525 322.025C187.122 345.173 204.633 355.839 204.633 355.839C129.967 339.132 115.478 285.593 114.672 261.238C105.616 270.095 98.7733 283.177 105.213 305.118C111.653 327.057 141.641 350.608 141.641 350.608C138.06 352.278 137.17 355.578 137.037 357.988C136.944 359.661 138.179 361.094 139.835 361.355C153.643 363.539 184.518 363.893 202.017 363.893C220.734 363.893 217.716 360.874 217.716 360.874C176.179 332.143 195.47 306.968 200.646 276.568Z" fill="#666666"/>
<path opacity="0.5" d="M267.825 369.523C253.938 355.232 241.661 348.791 230.648 365.335C232.301 365.912 233.409 366.301 233.409 366.301C240.855 351.006 267.825 369.523 267.825 369.523Z" fill="#666666"/>
<path opacity="0.5" d="M376.098 327.052C377.507 339.331 351.144 337.721 342.288 305.917C333.433 274.116 305.559 242.111 305.559 242.111C313.854 251.867 329.889 277.03 333.769 294.79C333.789 294.857 333.815 294.912 333.836 294.978C342.891 324.698 329.408 352.41 329.408 352.41C329.408 352.41 332.83 355.632 328.602 361.066C348.928 374.148 387.972 368.714 397.027 361.066C406.083 353.416 401.052 352.413 401.052 352.413C404.372 351.508 413.428 344.563 411.618 337.922C409.806 331.281 403.769 333.09 403.769 333.09C413.544 327.841 425.676 318.848 433.977 303.356C417.093 332.188 376.098 327.052 376.098 327.052Z" fill="#666666"/>
<path d="M176.855 78.3763C176.855 78.3763 179.169 75.0558 187.422 63.0788C195.674 51.1018 214.994 40.134 229.484 54.8254C243.973 69.5197 237.231 85.922 241.459 89.7471C241.459 89.7471 236.681 87.7897 229.208 94.7062C221.736 101.623 179.425 93.4679 179.448 86.8269C179.471 80.1859 176.855 78.3763 176.855 78.3763Z" fill="#1C0A01"/>
<path d="M160.657 73.0395C160.657 73.0395 163.977 61.7672 165.891 53.2122C167.801 44.6572 168.08 35.0756 162.626 33.7561C155.362 32.0016 144.094 42.3198 140.284 53.8966C137.396 62.672 136.309 76.7197 136.309 76.7197C136.309 76.7197 152.828 80.3012 155.687 76.7197C158.546 73.1382 160.657 73.0395 160.657 73.0395Z" fill="#1C0A01"/>
<path opacity="0.5" d="M138.915 57.0371C131.376 76.8673 135.174 84.4653 137.413 86.5272C140.408 89.2851 149.565 87.5742 154.254 78.9061C158.943 70.238 138.915 57.0371 138.915 57.0371Z" fill="#666666"/>
<path opacity="0.5" d="M179.488 88.8392C180.782 104.743 191.951 108.263 198.188 108.867C204.428 109.47 220.585 105.738 230.13 93.8098C239.679 81.8821 179.488 88.8392 179.488 88.8392Z" fill="#666666"/>
<path d="M183.246 73.5936C198.605 42.4215 223.093 45.2142 232.151 61.2164C241.207 77.2186 237.736 91.7099 220.68 100.616C203.622 109.522 167.698 105.146 183.246 73.5936Z" fill="url(#paint1_linear_603_19550)"/>
<path d="M160.453 66.3496C167.178 47.5605 167.549 30.5724 156.53 36.1578C145.512 41.7432 136.305 56.3853 135.85 71.6335C135.398 86.8788 150.192 95.0306 160.453 66.3496Z" fill="url(#paint2_linear_603_19550)"/>
<mask id="mask0_603_19550" style="mask-type:luminance" maskUnits="userSpaceOnUse" x="179" y="49" width="59" height="56">
<path d="M183.246 73.5936C198.605 42.4215 223.093 45.2142 232.151 61.2164C241.207 77.2186 237.736 91.7099 220.68 100.616C203.622 109.522 167.698 105.146 183.246 73.5936Z" fill="white"/>
</mask>
<g mask="url(#mask0_603_19550)">
<path d="M223.933 85.3441C218.363 97.5647 205.659 103.736 195.56 99.1335C185.458 94.5283 181.784 80.8897 187.354 68.6691C192.924 56.4485 205.628 50.2773 215.727 54.8796C225.829 59.4848 229.5 73.1235 223.933 85.3441Z" fill="url(#paint3_linear_603_19550)"/>
<path opacity="0.32" d="M208.714 102.662C204.057 112.882 193.433 118.044 184.986 114.193C176.539 110.342 173.466 98.9359 178.122 88.7163C182.779 78.4967 193.403 73.3347 201.85 77.1859C210.3 81.0371 213.37 92.4428 208.714 102.662Z" fill="url(#paint4_linear_603_19550)"/>
<path opacity="0.47" d="M176.456 97.7767C176.456 97.7767 180.35 52.7107 215.079 53.2211C248.906 53.717 235.623 128.392 235.623 128.392C235.623 128.392 265.202 36.5838 250.892 16.9247C236.583 -2.73442 227.75 -34.3183 206.429 -20.8942C185.109 -7.47008 174.945 38.0976 174.945 38.0976L176.456 97.7767Z" fill="#834A2C"/>
<path d="M203.805 58.694C206.467 59.7583 206.922 68.8178 203.591 72.5849C200.262 76.352 195.043 55.1908 203.805 58.694Z" fill="white"/>
<path d="M197.024 58.9218C198.413 58.4868 196.148 67.3144 194.278 67.3231C192.41 67.3289 195.638 59.3568 197.024 58.9218Z" fill="white"/>
</g>
<mask id="mask1_603_19550" style="mask-type:luminance" maskUnits="userSpaceOnUse" x="135" y="35" width="31" height="51">
<path d="M160.453 66.3496C167.178 47.5605 167.549 30.5724 156.53 36.1578C145.512 41.7432 136.305 56.3853 135.85 71.6335C135.398 86.8788 150.192 95.0306 160.453 66.3496Z" fill="white"/>
</mask>
<g mask="url(#mask1_603_19550)">
<path d="M166.994 72.3646C160.084 83.5267 149.686 87.4446 143.771 81.1139C137.856 74.7861 138.662 60.6081 145.574 49.446C152.487 38.2839 162.882 34.3689 168.798 40.6967C174.71 47.0245 173.904 61.2025 166.994 72.3646Z" fill="url(#paint5_linear_603_19550)"/>
<path opacity="0.32" d="M154.353 87.8992C148.574 97.2343 139.878 100.508 134.931 95.2159C129.984 89.9234 130.66 78.0654 136.439 68.7332C142.218 59.3981 150.914 56.1239 155.86 61.4164C160.807 66.7089 160.132 78.567 154.353 87.8992Z" fill="url(#paint6_linear_603_19550)"/>
<path opacity="0.47" d="M130.766 76.4448C130.766 76.4448 145.359 36.6104 159.17 39.3277C174.24 42.2915 144.704 112.123 144.704 112.123C144.704 112.123 177.029 30.822 174.057 8.83996C171.082 -13.142 172.201 -46.0367 161.281 -36.3449C150.361 -26.6531 139.204 16.8845 139.204 16.8845L130.766 76.4448Z" fill="#834A2C"/>
<path d="M160.563 46.3898C162.677 47.1293 162.579 55.3449 159.667 59.0627C156.759 62.7834 153.601 43.9567 160.563 46.3898Z" fill="white"/>
<path d="M154.866 47.1092C156.02 46.593 153.717 54.8319 152.192 55.0001C150.667 55.1683 153.714 47.6254 154.866 47.1092Z" fill="white"/>
</g>
<path d="M163.601 101.462C161.554 97.228 159.666 89.7663 160.072 87.9219C160.417 86.3646 161.035 85.8948 161.635 84.9349C162.244 83.9663 160.62 83.0238 160.104 84.0388C157.663 88.8383 155.279 92.9157 155.676 98.9535C155.752 100.087 157.523 100.096 157.451 98.9535C157.225 95.5112 157.674 92.6924 158.605 90.9901C159.272 94.8326 160.356 98.8172 162.067 102.355C162.566 103.385 164.097 102.486 163.601 101.462Z" fill="black"/>
<path d="M164 79.871C162.675 80.0102 161.306 79.6217 160.277 78.7749C159.587 78.2094 158.702 77.8904 157.731 78.5516C155.982 79.7435 158.462 83.5946 159.59 85.1722C159.888 85.5869 160.419 85.7465 160.897 85.5638C162.744 84.8504 167.097 82.9364 166.253 81.0311C165.792 79.99 164.881 79.7782 164 79.871Z" fill="#F9D4B9"/>
<path d="M164 79.871C162.675 80.0102 161.306 79.6217 160.277 78.7749C159.587 78.2094 158.702 77.8904 157.731 78.5516C155.982 79.7435 158.462 83.5946 159.59 85.1722C159.888 85.5869 160.419 85.7465 160.897 85.5638C162.744 84.8504 167.097 82.9364 166.253 81.0311C165.792 79.99 164.881 79.7782 164 79.871Z" fill="#F3B888"/>
<path d="M159.59 85.1749C159.888 85.5896 160.419 85.7491 160.897 85.5664C162.457 84.9632 165.795 83.5045 166.288 81.9153C159.572 83.6234 157.354 82.591 157.125 79.8418C157.122 81.5035 158.737 83.9859 159.59 85.1749Z" fill="#F3B888"/>
<path opacity="0.5" d="M157.289 101.453C157.289 101.453 158.875 107.265 166.448 109.077C170.261 109.988 156.926 116.063 157.289 101.453Z" fill="#666666"/>
<path opacity="0.5" d="M182.04 42.5776C180.286 48.1398 198.493 45.7472 206.04 39.5586C213.588 33.37 187.323 25.8214 182.04 42.5776Z" fill="#666666"/>
<path opacity="0.5" d="M172.832 42.4967C177.717 42.3227 177.813 23.6265 172.229 25.5898C166.644 27.5531 168.604 42.6475 172.832 42.4967Z" fill="#666666"/>
<path d="M279.476 74.0014L280.143 66.7804C280.257 65.5508 281.544 64.791 282.675 65.2898L289.962 68.503C291.359 69.1207 291.411 71.0869 290.046 71.7742L282.092 75.782C280.825 76.4258 279.349 75.4166 279.476 74.0014Z" fill="#F37E88"/>
<path d="M48.0076 38.4221C48.0076 38.4221 41.669 5.81454 35.4783 4.45734C29.2905 3.10014 27.7798 34.046 40.3091 43.5551C40.3091 43.5551 29.2905 40.8639 28.6874 49.532C28.0842 58.2001 45.2906 44.1612 45.2906 44.1612C45.2906 44.1612 46.4969 56.086 51.3276 58.0493C56.1584 60.0126 49.063 41.2931 49.063 41.2931C49.063 41.2931 65.3647 11.5536 59.78 7.0267C54.1954 2.4911 48.0076 38.4221 48.0076 38.4221Z" fill="#F97893"/>
<path d="M37.2902 13.462C41.0249 13.0125 46.1457 29.7658 40.6103 29.9659C35.0749 30.1689 33.4279 13.926 37.2902 13.462Z" fill="#A62774"/>
<path d="M40.9139 31.7789C43.6308 31.5788 45.7795 40.0323 42.3405 39.7307C38.9016 39.4291 38.1969 31.9819 40.9139 31.7789Z" fill="#A62774"/>
<path opacity="0.72" d="M55.9291 16.4752C58.7968 16.5941 53.9167 29.357 52.1045 29.0554C50.2922 28.7538 53.5137 16.3766 55.9291 16.4752Z" fill="#A62774"/>
<path opacity="0.72" d="M51.8304 30.9135C53.1846 31.2354 51.9204 37.5285 50.0965 37.079C48.2755 36.6324 49.7166 30.4118 51.8304 30.9135Z" fill="#A62774"/>
<path opacity="0.6" d="M40.3091 43.5525C40.3091 43.5525 29.2905 40.8613 28.6874 49.5294C28.0842 58.1975 45.2906 44.1586 45.2906 44.1586C45.2906 44.1586 46.4969 56.0833 51.3276 58.0466C56.1584 60.0099 49.063 41.2905 49.063 41.2905C49.063 41.2905 62.2012 17.2872 60.7891 9.15265C59.1827 20.396 45.7429 42.4997 45.7429 42.4997C45.7429 42.4997 27.6232 20.0219 32.396 7.18359C29.2673 14.7584 30.3082 35.9632 40.3091 43.5525Z" fill="#F97893"/>
<path d="M60.6013 38.0544C59.0935 36.9321 57.3015 36.0534 55.3762 36.1288C53.9901 36.1839 52.8883 36.7812 51.885 37.5845C52.3229 36.6217 52.9695 35.7634 53.909 35.2443C55.4255 34.4062 57.2029 34.6352 58.847 34.873C59.1659 34.9194 59.4791 34.7947 59.5748 34.4612C59.6531 34.1828 59.4791 33.7798 59.1631 33.7334C57.1855 33.4463 55.1384 33.2171 53.3145 34.2234C52.0648 34.9136 51.1108 36.0679 50.6005 37.3961C48.1996 37.3352 47.5935 40.1917 47.5935 40.1917C36.8272 45.9279 45.9437 55.9416 45.9437 55.9416C43.3282 49.3064 49.0637 41.2907 49.0637 41.2907C49.0637 41.2907 50.6034 41.7779 51.9981 41.0732C53.2739 40.4294 53.5407 39.223 52.8216 38.353C53.6045 37.7614 54.4599 37.3206 55.5356 37.309C57.2058 37.2916 58.702 38.1065 60.0039 39.0751C60.6158 39.5304 61.2044 38.5039 60.6013 38.0544Z" fill="#3D2C4C"/>
<path opacity="0.33" d="M45.9418 55.9418C43.3264 49.3066 49.0618 41.291 49.0618 41.291C42.0824 46.6009 42.4449 51.0408 45.9418 55.9418Z" fill="#A62774"/>
<path opacity="0.68" d="M256.696 367.426C257.966 366.6 256.783 364.552 255.502 365.385C253.055 366.977 251.576 369.627 250.543 372.287C249.569 374.795 249.184 377.504 249.221 380.195C250.019 380.154 250.807 380.102 251.584 380.044C251.576 377.782 251.872 375.549 252.643 373.406C253.434 371.193 254.673 368.743 256.696 367.426Z" fill="#666666"/>
<path opacity="0.68" d="M237.382 374.387C237.852 371.308 239.049 368.416 240.873 365.896C241.766 364.661 239.716 363.48 238.832 364.701C236.677 367.68 235.396 371.171 234.958 374.814C234.761 376.461 234.792 378.114 234.984 379.758C235.781 379.86 236.587 379.947 237.405 380.019C237.347 379.628 237.263 379.242 237.234 378.848C237.121 377.366 237.158 375.858 237.382 374.387Z" fill="#666666"/>
<path opacity="0.68" d="M150.289 354.047C150.872 353.786 151.011 352.94 150.712 352.429C150.361 351.832 149.68 351.742 149.094 352.006C145.026 353.841 141.909 357.324 140.285 361.416C141.045 361.532 141.831 361.645 142.683 361.75C144.185 358.386 146.896 355.576 150.289 354.047Z" fill="#666666"/>
<path opacity="0.68" d="M72.1714 74.1408C72.8615 74.6889 73.2587 75.3384 73.6502 76.1736C73.801 76.4926 73.943 76.8755 74.0822 77.2873C74.1634 77.5251 74.2388 77.7658 74.3113 78.0036C74.3461 78.1109 74.378 78.2211 74.4099 78.3284C74.1866 79.3231 75.2914 80.2511 76.2454 79.6392C77.1616 79.0476 76.7963 78.0152 76.5324 77.1771C76.1352 75.9069 75.651 74.6192 74.842 73.5491C73.8938 72.2934 72.6034 71.5365 71.1681 70.9362C70.0256 70.4606 68.8252 70.2026 67.6016 70.0547C68.0191 71.5627 68.8339 72.5313 68.8339 72.5313C68.8339 72.5313 68.5033 72.5168 68.0249 72.5661C68.57 72.6676 69.1239 72.7024 69.6574 72.8822C70.507 73.1751 71.5654 73.6623 72.1714 74.1408Z" fill="#666666"/>
<path opacity="0.68" d="M79.0068 70.4755C78.8038 71.0816 79.2417 71.766 79.8332 71.9313C80.4769 72.1082 81.0858 71.7138 81.2888 71.1048C82.411 67.7437 81.283 63.8577 78.7748 61.4043C77.7948 62.022 77.2902 62.7267 77.2902 62.7267C77.2902 62.7267 76.6494 62.3874 75.707 62.1177C78.6038 63.7852 80.0536 67.3348 79.0068 70.4755Z" fill="#666666"/>
<path opacity="0.68" d="M13.208 78.5021C13.6198 78.9893 14.4549 78.9255 14.8811 78.5021C15.3654 78.0178 15.2929 77.3189 14.8811 76.8288C13.6082 75.3179 13.6024 73.0936 14.0721 71.2724C14.4839 69.6716 15.3364 68.2564 16.3599 66.9746C14.7999 68.5029 14.3476 70.4227 14.3476 70.4227C14.3476 70.4227 13.6198 69.4918 12.5121 68.674C11.071 71.9278 10.8274 75.6746 13.208 78.5021Z" fill="#666666"/>
<path opacity="0.68" d="M7.61924 79.8399C8.23686 79.9037 8.82839 79.2512 8.8023 78.6567C8.7704 77.9607 8.28035 77.5402 7.61924 77.4735C7.44526 77.4474 7.35249 77.43 7.2597 77.4097C7.07413 77.3691 6.89144 77.3169 6.71456 77.256C6.62467 77.227 6.5348 77.1922 6.44781 77.1574C6.19844 77.0298 6.02735 76.9457 5.86497 76.8442C5.80118 76.8036 5.73741 76.763 5.67362 76.7224C5.67941 76.7282 5.42422 76.5484 5.51411 76.6151C5.6127 76.6876 5.38657 76.5107 5.36917 76.4933C5.29668 76.4324 5.22705 76.3686 5.15746 76.3019C5.01827 76.1714 4.88781 76.0351 4.76602 75.8901C4.74283 75.864 4.58914 75.6668 4.70222 75.8176C4.67323 75.777 4.64715 75.7364 4.61816 75.6958C4.43548 75.6813 3.29592 75.6349 2.16797 76.1105C2.31295 76.4005 2.43472 76.6963 2.629 76.966C3.82075 78.6277 5.5924 79.634 7.61924 79.8399Z" fill="#666666"/>
<path d="M94.9162 38.9836C108.437 45.0881 121.158 52.866 132.782 62.0822C133.896 62.9667 135.12 61.131 134.015 60.2523C122.236 50.9143 109.336 43.0814 95.6382 36.8986C94.3421 36.3157 93.6316 38.4036 94.9162 38.9836Z" fill="#969696"/>
<path d="M91.3046 69.1169C103.924 66.5127 117.105 67.9279 128.901 73.1044C130.203 73.6757 130.914 71.5876 129.62 71.0192C117.485 65.6919 103.831 64.2768 90.8552 66.9564C89.4691 67.2435 89.9128 69.404 91.3046 69.1169Z" fill="#969696"/>
<path d="M95.1077 85.9757C105.204 83.6122 115.576 82.8466 125.908 83.7079C127.323 83.8268 127.462 81.6258 126.05 81.5069C115.536 80.634 104.932 81.4111 94.6583 83.8181C93.281 84.1371 93.7217 86.3005 95.1077 85.9757Z" fill="#969696"/>
<path d="M253.825 104.626C262.205 107.035 270.277 110.481 277.776 114.938C281.493 117.148 285.074 119.593 288.481 122.255C290.122 123.537 291.723 124.87 293.283 126.251C295.069 127.831 296.931 129.424 297.626 131.79C298.027 133.15 300.042 132.254 299.647 130.911C299.004 128.716 297.464 127.106 295.82 125.59C294.112 124.015 292.337 122.507 290.519 121.063C287.011 118.267 283.317 115.706 279.472 113.398C271.692 108.723 263.327 105.075 254.605 102.57C253.253 102.175 252.456 104.231 253.825 104.626Z" fill="#969696"/>
<path d="M242.93 114.446C254.824 123.531 263.741 136.1 268.453 150.304C268.899 151.653 270.917 150.762 270.474 149.425C265.643 134.862 256.405 121.965 244.215 112.656C243.087 111.795 241.799 113.584 242.93 114.446Z" fill="#969696"/>
<path d="M234.015 124.005C239.762 132.827 246.048 142.855 243.749 153.869C243.459 155.259 245.654 155.482 245.941 154.101C248.359 142.504 241.78 131.908 235.728 122.619C234.954 121.43 233.246 122.825 234.015 124.005Z" fill="#969696"/>
<path d="M400.738 228.598C401.822 227.258 402.689 225.75 403.301 224.085C404.354 221.22 405.145 217.36 403.872 214.46C402.686 211.763 399.317 209.725 396.762 208.507C395.91 208.101 394.997 207.868 394.077 207.735C398.418 203.284 399.882 195.918 400.807 190.106C402.283 180.814 401.866 171.105 397.548 162.585C397.032 161.567 395.501 162.463 396.017 163.481C400.025 171.384 400.483 180.495 399.178 189.129C398.592 193.009 397.777 196.956 396.374 200.63C395.292 203.46 393.625 206.215 391.117 207.941C390.331 208.196 389.58 208.57 388.933 209.22C388.351 209.803 388.936 211.047 389.797 210.702C390.63 210.368 391.363 209.919 392.071 209.44C393.906 209.043 395.979 209.997 397.568 210.995C399.624 212.285 402.138 213.738 402.611 216.322C403.472 221.049 400.932 227 397.067 229.726C396.162 230.39 397.02 231.921 397.963 231.257C399.848 229.874 402.356 230.155 404.183 231.524C406.288 233.101 407.111 235.906 407.305 238.414C407.706 243.55 406.03 248.66 403.748 253.193C401.55 257.563 398.838 261.881 395.756 265.686C392.906 269.201 389.235 272.527 384.451 272.527C383.308 272.527 383.308 274.302 384.451 274.302C393.138 274.302 398.612 265.338 402.625 258.813C405.148 254.709 407.395 250.304 408.459 245.574C409.387 241.456 409.663 236.616 407.537 232.806C406.169 230.367 403.463 228.638 400.738 228.598Z" fill="#666666"/>
<path d="M222.696 168.053C225.291 175.079 222.044 183.698 215.232 187.001C208.389 190.322 199.464 187.288 195.712 180.795C195.173 179.861 193.955 180.54 194.091 181.48C194.396 183.568 191.38 184.078 190.009 183.396C188.35 182.573 187.303 180.85 186.352 179.336C185.952 178.698 184.94 178.797 184.731 179.548C183.841 182.75 180.405 184.655 177.186 184.197C173.73 183.704 171.135 180.963 169.79 177.889C169.334 176.845 167.806 177.747 168.259 178.785C169.908 182.561 173.402 185.775 177.668 186.027C180.962 186.221 184.137 184.409 185.688 181.549C187.066 183.55 188.869 185.543 191.409 185.534C193.065 185.528 194.544 184.635 195.298 183.315C198.818 187.952 204.771 190.577 210.596 190.052C217.227 189.455 222.519 184.719 224.546 178.469C225.691 174.94 225.7 171.074 224.41 167.583C224.015 166.519 222.299 166.977 222.696 168.053Z" fill="#666666"/>
<path d="M178.608 231.049C177.568 235.839 172.995 239.276 168.152 239.421C162.863 239.577 158.111 236.173 155.493 231.759C155.095 231.086 154.098 231.249 153.872 231.971C152.976 234.819 150.009 236.875 146.997 236.425C143.975 235.976 141.751 233.151 141.714 230.164C141.705 229.396 140.751 228.992 140.2 229.538C137.234 232.467 132.342 230.909 129.721 228.279C126.479 225.025 125.223 220.249 123.252 216.221C122.75 215.194 121.219 216.093 121.721 217.117C123.997 221.771 125.447 227.502 129.84 230.701C132.791 232.849 136.996 233.722 140.145 231.808C140.852 234.995 143.424 237.695 146.756 238.18C150.073 238.661 153.274 236.831 154.875 234.007C158.004 238.359 163.075 241.523 168.561 241.172C174.013 240.822 179.136 236.95 180.316 231.518C180.56 230.408 178.852 229.932 178.608 231.049Z" fill="#666666"/>
<path d="M290.425 341.656C294.563 335.873 295.966 328.295 292.327 321.912C291.072 319.711 289.274 317.904 287.117 316.672C288.807 316.275 290.44 315.643 291.919 314.694C294.082 313.305 296.454 311.2 296.207 308.378C295.819 303.956 291.188 301.29 286.899 300.461C289.796 298.167 290.817 293.887 289.616 290.282C287.717 284.572 282.301 281.466 277.304 278.798C276.298 278.261 275.402 279.79 276.408 280.329C280.535 282.533 285.009 284.908 287.253 289.232C289.306 293.185 288.445 299.066 283.472 300.197C282.501 300.417 282.706 301.978 283.707 301.94C285.908 301.853 288.077 302.285 290.025 303.338C291.884 304.344 294.064 306.044 294.401 308.271C294.766 310.689 292.252 312.49 290.399 313.546C288.396 314.688 286.18 315.283 283.878 315.367C282.901 315.405 282.646 316.849 283.643 317.11C291.733 319.227 294.267 328.875 291.533 335.966C290.011 339.913 287.204 343.297 283.965 345.968C280.393 348.917 275.982 351.191 271.236 350.646C270.105 350.515 270.113 352.29 271.236 352.42C278.882 353.293 286.212 347.543 290.425 341.656Z" fill="#666666"/>
<path opacity="0.5" d="M305.56 242.116C315.227 253.484 335.447 285.793 334.64 302.903C333.834 320.013 307.471 341.548 279.295 336.114C251.12 330.679 200.405 305.922 200.202 284.587C200.002 263.251 210.467 243.325 231.799 244.935C253.132 246.544 269.637 257.213 269.637 257.213C269.637 257.213 235.827 232.456 214.291 247.351C192.759 262.245 199.199 286.399 193.159 297.468C187.122 308.538 187.525 322.026 187.525 322.026C131.78 319.81 116.281 288.615 114.672 261.239C105.616 270.095 98.7733 283.177 105.213 305.119C111.653 327.057 141.641 350.608 141.641 350.608C138.06 352.278 137.17 355.579 137.037 357.988C136.944 359.662 138.179 361.094 139.835 361.355C153.643 363.539 184.518 363.893 202.017 363.893C220.734 363.893 217.716 360.874 217.716 360.874C221.944 362.283 233.415 366.309 233.415 366.309C231.512 369.519 230.805 373.364 230.544 375.971C230.373 377.674 231.553 379.26 233.241 379.527C247.504 381.8 266.198 378.808 268.836 376.172C271.655 373.353 271.855 375.568 297.415 373.353C322.975 371.14 328.609 361.074 328.609 361.074C348.936 374.156 387.979 368.721 397.035 361.074C406.09 353.424 401.059 352.421 401.059 352.421C404.379 351.516 413.435 344.57 411.626 337.929C409.813 331.288 403.776 333.098 403.776 333.098C420.078 324.343 443.02 305.322 443.623 262.75C444.226 220.178 422.792 197.836 422.792 197.836C450.162 234.269 425.407 249.163 425.407 249.163C436.275 276.739 403.472 280.964 403.472 280.964C408.303 299.081 374.693 305.922 353.56 291.23C332.437 276.542 301.866 227.668 304.644 207.832C299.984 227.778 305.56 242.116 305.56 242.116Z" fill="#666666"/>
<path d="M262.006 40.8441C264.896 38.7735 266.665 35.3544 266.575 31.7816C266.546 30.6419 264.772 30.639 264.801 31.7816C264.873 34.6932 263.493 37.6048 261.109 39.3129C260.721 39.5913 260.532 40.0872 260.791 40.5251C261.017 40.9108 261.614 41.1254 262.006 40.8441Z" fill="#727272"/>
<path d="M269.42 34.5246C269.151 35.0756 268.843 35.6092 268.495 36.1167C268.405 36.2472 268.315 36.3748 268.22 36.4995C268.208 36.514 268.078 36.688 268.133 36.6155C268.191 36.543 268.054 36.7141 268.043 36.7286C267.846 36.9722 267.64 37.21 267.422 37.4391C267.011 37.877 266.567 38.2801 266.1 38.66C265.883 38.8369 266.233 38.5643 266.01 38.7325C265.952 38.776 265.894 38.8195 265.839 38.8601C265.712 38.9529 265.584 39.0428 265.453 39.1298C265.193 39.3038 264.926 39.4691 264.65 39.6257C264.247 39.8548 264.076 40.4406 264.331 40.8379C264.595 41.2468 265.114 41.4005 265.543 41.1569C267.86 39.8374 269.777 37.8161 270.951 35.4207C271.154 35.006 271.079 34.4434 270.632 34.2085C270.235 33.9968 269.638 34.0809 269.42 34.5246Z" fill="#727272"/>
<path d="M352.716 150.499C352.49 150.113 351.895 149.901 351.501 150.18C350.785 150.687 349.958 150.365 349.271 149.951C348.416 149.437 347.702 148.681 347.05 147.938C345.693 146.398 344.655 144.574 343.997 142.631C343.631 141.555 341.918 142.016 342.286 143.104C343.092 145.482 344.377 147.671 346.087 149.513C347.552 151.093 350.187 153.277 352.4 151.711C352.788 151.436 352.974 150.937 352.716 150.499Z" fill="#666666"/>
<path d="M352.157 147.888C352.549 148.163 353.143 147.96 353.369 147.569C353.627 147.128 353.445 146.632 353.05 146.357C350.765 144.759 349.35 142.038 349.298 139.26C349.275 138.12 347.503 138.118 347.524 139.26C347.593 142.697 349.347 145.921 352.157 147.888Z" fill="#666666"/>
<path d="M308.707 210.09C305.236 209.229 302.275 206.883 300.628 203.71C300.101 202.698 298.57 203.594 299.097 204.606C300.944 208.165 304.349 210.835 308.237 211.801C309.342 212.074 309.814 210.366 308.707 210.09Z" fill="#666666"/>
<path d="M446.019 248.13C446.176 247.678 445.839 247.162 445.399 247.04C444.912 246.906 444.465 247.205 444.308 247.66C443.27 250.659 441.212 253.278 438.55 255C437.596 255.618 438.483 257.155 439.446 256.532C442.511 254.548 444.825 251.581 446.019 248.13Z" fill="#666666"/>
<path d="M447.311 254.661C446.83 254.528 446.369 254.824 446.221 255.282C445.296 258.112 442.837 260.348 439.923 261.05C439.456 261.163 439.18 261.691 439.302 262.14C439.433 262.616 439.926 262.871 440.393 262.761C443.907 261.914 446.809 259.179 447.929 255.754C448.079 255.296 447.758 254.783 447.311 254.661Z" fill="#666666"/>
<path d="M119.536 248.295C115.99 247.739 112.528 246.709 109.271 245.195C108.836 244.992 108.314 245.074 108.059 245.514C107.836 245.897 107.94 246.526 108.378 246.727C111.777 248.307 115.363 249.424 119.066 250.006C119.539 250.082 120.02 249.885 120.156 249.386C120.27 248.965 120.011 248.371 119.536 248.295Z" fill="#666666"/>
<path d="M98.1918 198.665C99.0153 197.873 97.7597 196.617 96.9391 197.412C94.5469 199.714 93.4683 203.052 93.909 206.321C93.9728 206.796 94.5818 207.054 94.9993 206.941C95.5125 206.799 95.6836 206.326 95.6198 205.851C95.2632 203.223 96.3012 200.486 98.1918 198.665Z" fill="#666666"/>
<path d="M98.7066 199.528C96.9755 202.12 96.326 205.255 96.7435 208.329C96.8073 208.805 97.4163 209.063 97.8338 208.95C98.347 208.811 98.5181 208.335 98.4543 207.859C98.1005 205.264 98.7907 202.59 100.238 200.424C100.504 200.027 100.316 199.441 99.9186 199.212C99.4837 198.954 98.9733 199.128 98.7066 199.528Z" fill="#666666"/>
<path d="M216.16 210.737C212.269 209.963 208.824 207.205 207.36 203.487C207.183 203.04 206.765 202.73 206.269 202.866C205.846 202.982 205.472 203.51 205.652 203.957C207.339 208.237 211.155 211.54 215.69 212.445C216.16 212.538 216.647 212.312 216.78 211.824C216.899 211.389 216.633 210.83 216.16 210.737Z" fill="#666666"/>
<path d="M221.345 207.379C217.54 206.761 214.069 204.882 211.492 202.017C210.726 201.167 209.476 202.426 210.236 203.272C212.997 206.338 216.801 208.429 220.872 209.093C221.345 209.168 221.826 208.971 221.962 208.472C222.081 208.049 221.82 207.457 221.345 207.379Z" fill="#666666"/>
<path d="M269.029 174.342C269.505 174.287 269.916 173.974 269.916 173.455C269.916 173.017 269.507 172.512 269.029 172.567C266.066 172.904 263.018 172.057 260.727 170.123C260.362 169.812 259.831 169.763 259.472 170.123C259.156 170.439 259.104 171.065 259.472 171.375C262.108 173.603 265.587 174.731 269.029 174.342Z" fill="#666666"/>
<defs>
<linearGradient id="paint0_linear_603_19550" x1="319.518" y1="402.508" x2="185.169" y2="64.4768" gradientUnits="userSpaceOnUse">
<stop stop-color="#1B1E1E"/>
<stop offset="0.0132" stop-color="#1C1F1F"/>
<stop offset="0.6767" stop-color="#515252"/>
<stop offset="1" stop-color="#666666"/>
</linearGradient>
<linearGradient id="paint1_linear_603_19550" x1="208.222" y1="104.675" x2="208.222" y2="49.5297" gradientUnits="userSpaceOnUse">
<stop stop-color="#FFCD00"/>
<stop offset="1" stop-color="#FF9000"/>
</linearGradient>
<linearGradient id="paint2_linear_603_19550" x1="150.527" y1="85.4815" x2="150.527" y2="35.0775" gradientUnits="userSpaceOnUse">
<stop stop-color="#FFCD00"/>
<stop offset="1" stop-color="#FF9000"/>
</linearGradient>
<linearGradient id="paint3_linear_603_19550" x1="195.558" y1="99.1322" x2="215.732" y2="54.8833" gradientUnits="userSpaceOnUse">
<stop stop-color="#9D0000"/>
<stop offset="0.1594" stop-color="#820400"/>
<stop offset="0.3898" stop-color="#620800"/>
<stop offset="0.6118" stop-color="#4B0B00"/>
<stop offset="0.82" stop-color="#3D0D00"/>
<stop offset="1" stop-color="#380E00"/>
</linearGradient>
<linearGradient id="paint4_linear_603_19550" x1="184.985" y1="114.194" x2="201.857" y2="77.1892" gradientUnits="userSpaceOnUse">
<stop/>
<stop offset="0.4777" stop-color="#818100"/>
<stop offset="0.8383" stop-color="#DBDB00"/>
<stop offset="1" stop-color="#FFFF00"/>
</linearGradient>
<linearGradient id="paint5_linear_603_19550" x1="141.52" y1="79.4721" x2="171.049" y2="42.3432" gradientUnits="userSpaceOnUse">
<stop stop-color="#9D0000"/>
<stop offset="0.1594" stop-color="#820400"/>
<stop offset="0.3898" stop-color="#620800"/>
<stop offset="0.6118" stop-color="#4B0B00"/>
<stop offset="0.82" stop-color="#3D0D00"/>
<stop offset="1" stop-color="#380E00"/>
</linearGradient>
<linearGradient id="paint6_linear_603_19550" x1="133.049" y1="93.8431" x2="157.743" y2="62.7934" gradientUnits="userSpaceOnUse">
<stop/>
<stop offset="0.4777" stop-color="#818100"/>
<stop offset="0.8383" stop-color="#DBDB00"/>
<stop offset="1" stop-color="#FFFF00"/>
</linearGradient>
</defs>
</svg>
