<svg width="610" height="361" viewBox="0 0 610 361" fill="none" xmlns="http://www.w3.org/2000/svg">
<path d="M243.036 23.954C243.036 23.954 257.03 -3.82569 270.609 0.697094C279.38 3.61957 276.425 21.2917 269.461 37.9234C261.737 56.3722 241.688 83.2922 241.688 83.2922C241.688 83.2922 224.85 54.0674 218.644 42.0669C211.766 28.7622 207.839 9.34892 218.623 5.32465C231.902 0.368369 243.036 23.954 243.036 23.954Z" fill="#E3252B"/>
<path d="M74.4694 233.383C74.4694 233.383 53.575 262.102 36.7916 273.857C20.0081 285.615 13.8525 276.32 5.29825 284.882C-3.25242 293.443 1.03917 308.146 11.0926 310.086C25.1559 312.799 86.7265 291.413 91.8959 287.613C98.55 282.725 123.234 248.862 123.234 248.862L74.4694 233.383Z" fill="#FCEEDB"/>
<path d="M167.598 137.447C167.598 137.447 174.479 144.632 190.865 145.391C210.3 146.287 219.668 141.038 280.064 144.813C340.461 148.588 426.874 197.28 451.182 216.531C472.362 233.304 471.314 285.735 412.179 300.831C353.043 315.928 265.372 289.506 222.594 298.313C179.819 307.12 167.598 137.447 167.598 137.447Z" fill="#FCEEDB"/>
<path d="M162.741 128.871L54.4757 137.382C54.4757 137.382 54.7864 160.491 47.1569 197.107C40.3005 230.016 52.2432 271.866 89.708 282.375C148.772 298.945 232.035 279.124 232.035 279.124L162.741 128.871Z" fill="#FCEEDB"/>
<path d="M206.824 236.262L174.746 287.775C151.987 289.617 125.58 289.834 101.702 285.21C97.6197 284.307 93.6099 283.368 89.7085 282.393C88.5525 282.067 87.3965 281.706 86.2766 281.309C85.8431 281.164 85.4096 281.02 84.9762 280.839C84.0008 280.478 83.0616 280.117 82.1223 279.683C82.0862 279.683 82.0862 279.683 82.0862 279.683C81.0024 279.214 79.9549 278.708 78.9434 278.202C78.7989 278.13 78.6905 278.058 78.546 277.985C77.5345 277.48 76.5592 276.938 75.6199 276.324C75.367 276.179 75.1142 276.035 74.8613 275.854C73.8859 275.276 72.9828 274.662 72.0797 274.012C71.2488 273.398 70.3818 272.784 69.5871 272.133C69.1536 271.772 68.7201 271.447 68.3228 271.05C66.6972 269.713 65.1799 268.232 63.7711 266.715C63.0124 265.92 62.2539 265.053 61.5675 264.222C61.423 264.041 61.2785 263.897 61.1701 263.716C59.7974 262.055 58.4969 260.321 57.3409 258.514L57.3048 258.478C57.0158 258.045 56.7268 257.575 56.4378 257.105C53.4395 252.229 51.0553 246.918 49.2852 241.355C66.7333 250.784 95.5245 260.212 131.071 248.977C190.568 230.157 206.824 236.262 206.824 236.262Z" fill="#F8D8AC"/>
<path d="M395.827 275.033L362.484 293.905C362.484 293.905 370.034 319.698 366.259 339.201C362.484 358.705 387.649 365.623 397.084 357.444C406.52 349.265 438.606 307.744 438.606 296.419C438.606 285.101 395.827 275.033 395.827 275.033Z" fill="#FCEEDB"/>
<path d="M341.102 308.475C339.44 310.137 336.333 311.618 332.215 312.918C305.013 314.435 267.913 291.641 230.777 296.915L245.621 233.6C245.621 233.6 275.832 234.745 309.89 256.275C331.236 269.771 353.312 296.265 341.102 308.475Z" fill="#F8D8AC"/>
<path d="M280.413 296.28C287.534 307.807 297.197 314.588 297.197 314.588C297.197 314.588 257.019 329.843 254.906 341.092C253.389 349.155 262.456 359.335 270.634 359.335C278.813 359.335 365.855 340.691 365.855 340.691L375.688 319.331L369.417 269.324C369.417 269.324 342.464 211.857 296.695 230.165C250.918 248.473 273.293 284.753 280.413 296.28Z" fill="#FCEEDB"/>
<path d="M365.851 341.19C365.735 341.19 365.616 341.165 365.5 341.114C365.081 340.923 364.893 340.428 365.088 340.005L374.596 319.158C356.664 310.398 344.57 299.593 337.645 286.155C337.431 285.743 337.594 285.237 338.006 285.024C338.414 284.814 338.923 284.973 339.136 285.385C345.982 298.675 358.062 309.346 376.063 318.006C376.471 318.204 376.652 318.692 376.46 319.107L366.613 340.703C366.472 341.01 366.168 341.19 365.851 341.19Z" fill="#785746"/>
<path d="M113.27 288.472C113.26 288.472 113.249 288.472 113.234 288.472C112.999 288.462 89.085 287.28 65.2176 269.489C37.1525 248.569 46.2378 197.471 46.3317 196.958C46.4148 196.503 46.8627 196.2 47.3071 196.286C47.7622 196.369 48.0657 196.806 47.979 197.262C47.8851 197.767 38.9912 247.85 66.2182 268.145C89.6522 285.611 113.072 286.789 113.303 286.796C113.765 286.814 114.127 287.208 114.105 287.67C114.087 288.118 113.718 288.472 113.27 288.472Z" fill="#785746"/>
<path d="M430.609 202.363C430.609 202.363 484.218 233.354 503.09 222.502C521.965 211.65 496.172 178.239 484.688 168.713C469.259 155.914 448.874 142.819 453.548 131.439C459.09 117.943 523.85 113.038 555.463 126.248C587.075 139.459 610.636 168.796 609.722 204.573C608.754 242.414 590.85 279.597 565.841 293.277C540.832 306.961 509.834 306.434 490.348 299.884C461.46 290.174 436.09 255.061 436.09 255.061L430.609 202.363Z" fill="#FCEEDB"/>
<path d="M510.77 296.022C510.329 296.022 509.957 295.679 509.935 295.235C509.906 294.772 510.26 294.375 510.723 294.35C542.064 292.489 576.744 286.655 591.606 240.669C591.746 240.228 592.227 239.989 592.66 240.13C593.101 240.271 593.343 240.744 593.199 241.185C578.016 288.176 542.715 294.133 510.82 296.026C510.802 296.022 510.788 296.022 510.77 296.022Z" fill="#F8D8AC"/>
<path d="M594.367 203.722C585.484 205.412 574.697 169.826 569.278 169.14C563.86 168.453 575.351 220.093 567.245 222.709C556.732 226.101 536.029 187.101 531.983 187.787C527.901 188.473 539.104 212.204 528.266 212.204C522.92 212.204 513.564 203.931 505.508 195.55C500.017 184.496 490.516 173.55 484.7 168.71C469.275 155.922 448.865 142.809 453.561 131.429C459.088 117.955 523.859 113.042 555.468 126.263C572.555 133.38 587.258 145.193 597.047 160.221C597.192 160.618 597.3 160.979 597.408 161.34C602.177 176.946 601.487 202.363 594.367 203.722Z" fill="#F8D8AC"/>
<path d="M230.238 297.75C230.17 297.75 230.105 297.743 230.036 297.725C229.588 297.617 229.314 297.161 229.422 296.713L245.187 232.509C245.299 232.058 245.758 231.78 246.202 231.895C246.65 232.004 246.924 232.459 246.816 232.907L231.051 297.111C230.957 297.497 230.614 297.75 230.238 297.75Z" fill="#785746"/>
<path d="M155.913 267.485C155.913 267.485 101.18 312.782 96.1483 322.846C91.1162 332.91 88.5297 350.011 109.713 353.234C125.308 355.607 137.67 337.314 137.67 337.314L230.073 296.612C241.94 246.941 200.288 225.649 180.911 221.683C172.035 219.873 169.044 254.917 155.913 267.485Z" fill="#FCEEDB"/>
<path d="M130.592 289.399C130.354 289.399 130.112 289.298 129.946 289.095C129.653 288.738 129.7 288.21 130.054 287.914L155.374 266.839C155.724 266.543 156.259 266.59 156.555 266.947C156.848 267.305 156.801 267.832 156.447 268.129L131.127 289.204C130.972 289.337 130.78 289.399 130.592 289.399Z" fill="#785746"/>
<path d="M98.5214 349.33C98.4058 349.33 98.2866 349.305 98.1746 349.254C97.752 349.063 97.5678 348.564 97.7592 348.145L104.879 332.55C105.071 332.127 105.566 331.947 105.988 332.135C106.411 332.326 106.595 332.825 106.404 333.244L99.2837 348.839C99.1428 349.146 98.8393 349.33 98.5214 349.33Z" fill="#785746"/>
<path d="M112.761 354.075C112.645 354.075 112.529 354.054 112.417 354C111.995 353.812 111.807 353.317 111.995 352.894L120.809 333.232C121.001 332.805 121.503 332.614 121.918 332.809C122.341 332.997 122.529 333.492 122.341 333.914L113.526 353.577C113.385 353.891 113.082 354.075 112.761 354.075Z" fill="#785746"/>
<path d="M54.905 107.027C54.905 107.027 45.845 97.1575 42.9442 80.4608C40.6647 67.3295 49.6958 33.2931 61.0534 32.2202C68.4842 31.5193 76.8976 63.9917 86.2466 71.3033L54.905 107.027Z" fill="#FCEEDB"/>
<path d="M56.9565 92.6636C56.9565 92.6636 51.8737 78.7593 51.7762 70.8191C51.6497 60.2816 55.9197 50.2065 60.0162 48.1691C64.1163 46.1316 74.7441 72.4628 74.7441 72.4628L56.9565 92.6636Z" fill="#F8D8AC"/>
<path d="M152.912 108.335C152.912 108.335 161.972 98.4661 164.873 81.7694C167.152 68.6381 158.121 34.6016 146.764 33.5288C139.333 32.8279 130.919 65.3002 121.57 72.6118L152.912 108.335Z" fill="#FCEEDB"/>
<path d="M150.858 93.9703C150.858 93.9703 155.941 80.0659 156.038 72.1258C156.165 61.5882 151.895 51.5131 147.798 49.4757C143.702 47.4383 133.07 73.7694 133.07 73.7694L150.858 93.9703Z" fill="#F8D8AC"/>
<path d="M166.439 108.734C173.241 141.303 143.186 177.854 107.946 185.216C80.2531 191 47.7194 165.478 40.9172 132.908C34.1149 100.338 56.4001 68.1297 90.6931 60.9662C124.982 53.8063 159.637 76.1637 166.439 108.734Z" fill="#FCEEDB"/>
<path d="M111.112 185.039C111.065 185.05 111.018 185.057 110.967 185.068C90.275 189.345 78.4731 183.359 70.5041 177.67C70.1067 177.384 70.0127 176.831 70.2981 176.43C70.5835 176.033 71.1362 175.943 71.5372 176.225C79.21 181.708 90.5893 187.466 110.613 183.33C110.653 183.323 110.703 183.312 110.747 183.301C132.107 178.84 142.995 165.907 143.1 165.777C143.41 165.398 143.974 165.347 144.346 165.658C144.725 165.969 144.776 166.529 144.465 166.908C144.01 167.461 133.072 180.455 111.112 185.039Z" fill="#785746"/>
<path d="M75.8049 126.359C75.7904 126.363 75.7724 126.367 75.7615 126.37C65.7912 128.415 62.3124 117.769 62.2799 117.661C62.1318 117.195 62.3919 116.696 62.8579 116.548C63.3419 116.422 63.8224 116.66 63.9741 117.126C64.0933 117.505 67.0158 126.356 75.4075 124.633C75.4183 124.629 75.4328 124.629 75.4473 124.625C82.441 123.166 83.3043 115.764 83.3404 115.45C83.391 114.966 83.8173 114.605 84.3158 114.662C84.7999 114.713 85.1539 115.146 85.1033 115.634C85.0889 115.717 84.0774 124.633 75.8049 126.359Z" fill="#353535"/>
<path d="M124.299 124.395C123.617 124.536 122.905 124.63 122.164 124.663C114.134 125.02 111.215 112.348 111.092 111.806C110.984 111.329 111.287 110.852 111.761 110.747C111.768 110.744 111.775 110.744 111.775 110.744C112.248 110.646 112.714 110.946 112.819 111.419C112.848 111.535 115.536 123.182 122.081 122.889C128.53 122.589 132.438 117.532 136.383 110.003C136.614 109.57 137.149 109.404 137.582 109.631C138.016 109.859 138.182 110.393 137.954 110.831C134.649 117.138 130.693 123.059 124.299 124.395Z" fill="#353535"/>
<path d="M88.6657 136.692C88.3225 133.108 94.6768 132.003 98.3181 131.616C103.307 131.085 108.155 131.092 108.881 134.17C109.737 137.793 103.935 145.322 99.8968 145.907C94.5178 146.684 88.9547 139.693 88.6657 136.692Z" fill="#353535"/>
<path d="M87.1297 157.358C79.6592 158.918 73.7239 153.951 73.4494 153.716C73.0773 153.398 73.0375 152.842 73.3518 152.47C73.6697 152.098 74.2296 152.055 74.6017 152.369C74.6704 152.427 81.4979 158.105 89.1346 154.887C96.7569 151.701 96.8508 142.301 96.8508 142.207C96.8544 141.716 97.2518 141.318 97.7358 141.318C98.2271 141.318 98.6209 141.712 98.6245 142.203C98.6245 142.637 98.5486 152.875 89.8174 156.527C88.9034 156.902 88.0075 157.173 87.1297 157.358Z" fill="#353535"/>
<path d="M115.845 155.011C113.804 155.437 111.492 155.477 108.981 154.787C99.8635 152.283 98.4727 142.14 98.4149 141.71C98.3535 141.226 98.6208 140.799 99.1843 140.72C99.6684 140.659 100.113 141.002 100.178 141.486C100.189 141.58 101.485 150.893 109.455 153.078C117.496 155.285 123.482 148.79 123.547 148.725C123.875 148.368 124.435 148.331 124.797 148.66C125.161 148.989 125.187 149.549 124.862 149.91C124.656 150.138 121.191 153.895 115.845 155.011Z" fill="#353535"/>
<path d="M102.45 166.342C102.23 166.389 102.006 166.429 101.782 166.462C98.4407 166.938 94.951 165.876 91.9527 163.467C91.5734 163.16 91.5084 162.604 91.8154 162.221C92.1225 161.838 92.6788 161.78 93.0617 162.083C95.6735 164.182 98.6791 165.114 101.529 164.706C103.892 164.374 105.983 163.08 107.381 161.086C107.66 160.689 108.216 160.584 108.613 160.866C109.014 161.148 109.112 161.7 108.83 162.101C107.295 164.316 105.041 165.804 102.45 166.342Z" fill="#785746"/>
<path d="M118.427 134.689C118.3 134.714 118.163 134.663 118.087 134.548C117.99 134.396 118.033 134.194 118.185 134.1C140.965 119.473 175.157 107.48 205.285 103.549C205.465 103.528 205.628 103.651 205.649 103.831C205.671 104.008 205.563 104.178 205.368 104.196C175.33 108.112 141.239 120.069 118.535 134.649C118.503 134.667 118.467 134.678 118.427 134.689Z" fill="#F8D8AC"/>
<path d="M122.257 140.186C122.109 140.218 121.954 140.139 121.889 139.995C121.82 139.828 121.896 139.637 122.062 139.568C149.032 128.265 162.774 125.444 190.037 119.819L192.039 119.407C192.216 119.371 192.385 119.483 192.422 119.66C192.458 119.837 192.346 120.007 192.172 120.043L190.167 120.455C162.93 126.068 149.235 128.886 122.318 140.168C122.3 140.175 122.279 140.182 122.257 140.186Z" fill="#F8D8AC"/>
<path d="M202.242 131.796H202.234L130.932 145.299C130.755 145.331 130.585 145.216 130.552 145.042C130.52 144.865 130.632 144.699 130.805 144.663H130.813L202.115 131.16C202.292 131.127 202.462 131.243 202.494 131.416C202.527 131.59 202.415 131.759 202.242 131.796Z" fill="#F8D8AC"/>
<path d="M77.7856 142.026C77.7026 142.044 77.6159 142.03 77.54 141.979C59.9943 130.39 39.1794 123.404 15.6732 121.215C15.4926 121.197 15.3625 121.041 15.3806 120.861C15.3986 120.68 15.5576 120.55 15.7346 120.568C39.3492 122.768 60.2653 129.787 77.8976 141.437C78.0494 141.535 78.0891 141.737 77.9916 141.889C77.941 141.965 77.8651 142.012 77.7856 142.026Z" fill="#F8D8AC"/>
<path d="M68.6406 145.494C68.5864 145.505 68.5322 145.505 68.478 145.487C48.7757 139.295 28.4882 134.978 8.18623 132.648C8.00561 132.627 7.87918 132.468 7.90085 132.287C7.92253 132.11 8.0887 131.984 8.26209 132.002C28.6038 134.335 48.9311 138.663 68.6731 144.866C68.8465 144.92 68.9404 145.1 68.8862 145.274C68.8501 145.393 68.7526 145.473 68.6406 145.494Z" fill="#F8D8AC"/>
<path d="M64.414 152.614C64.3923 152.617 64.3706 152.621 64.3489 152.621L17.6725 153.018C17.4919 153.018 17.3474 152.877 17.3438 152.697C17.3438 152.516 17.4919 152.375 17.6653 152.368L64.3417 151.971C64.5224 151.971 64.6668 152.112 64.6704 152.292C64.6741 152.451 64.5621 152.581 64.414 152.614Z" fill="#F8D8AC"/>
</svg>
