<svg width="605" height="459" viewBox="0 0 605 459" fill="none" xmlns="http://www.w3.org/2000/svg">
<path d="M256.248 246.656C256.248 246.656 230.188 205.993 247.456 208.905C230.995 193.784 237.64 182.108 246.116 186.101C241.071 184.501 236.574 155.326 250.094 163.542C240.552 150.007 243.536 131.701 256.248 136.746C243.997 122.677 250.367 104.371 264.421 113.135C255.672 99.859 258.857 88.4569 273.17 96.9471C264.954 76.7812 277.408 68.8244 294.935 83.1524C280.607 59.0082 282.193 36.7092 296.26 45.4732C310.328 54.2228 321.182 75.4551 321.182 75.4551C315.892 53.4298 316.699 23.1885 323.574 22.1219C330.479 21.0552 341.087 73.3362 341.087 73.3362C337.383 34.0712 350.355 9.6534 354.881 10.4462C359.407 11.2534 359.407 68.5505 359.407 68.5505C364.192 35.3829 378.246 -0.162878 386.461 1.68217C394.692 3.54164 384.876 55.2752 381.157 69.3437C395.484 35.6571 422.812 1.16315 433.161 8.06768C443.496 14.9722 409.148 65.8986 399.996 96.5582C390.829 127.203 323.344 176.256 364.956 227.499" fill="#3851A3"/>
<path d="M254.889 247.521C251.675 242.519 235.921 217.106 240.98 209.467C241.485 208.703 242.321 207.896 243.69 207.463C234.898 198.195 234.523 190.613 237.132 186.721C238.328 184.934 240.115 183.925 242.162 183.737C240.634 180.393 239.986 176.083 239.885 175.377C239.438 172.076 238.818 164.076 242.998 161.322C244.007 160.659 245.132 160.386 246.414 160.487C242.148 152.141 241.643 142.512 245.593 137.481C246.688 136.083 248.691 134.267 252.396 134.267C246.861 125.805 247.092 116.825 250.94 112.299C253.318 109.517 256.763 108.638 260.612 109.661C257.441 103.175 257.08 97.3081 259.92 94.3243C261.289 92.8972 264.345 91.1674 270.341 93.6899C267.92 85.6322 268.856 79.2033 273.051 76.0898C277.173 73.0627 283.371 73.7834 290.29 77.8916C282.968 63.0735 281.079 48.7743 286.268 43.7148C287.753 42.259 291.14 40.3852 297.122 44.1041C305.871 49.5384 313.294 59.4556 317.848 66.5476C315.052 48.6736 315.758 29.2142 319.938 23.0015C320.889 21.5601 322.057 20.7382 323.369 20.5363C328.875 19.6715 334.64 38.2088 338.936 55.9962C339.57 32.2989 346.157 15.3184 351.591 10.3022C352.845 9.13463 354.07 8.65887 355.194 8.86067C356.477 9.0913 360.138 9.72553 360.887 51.9167C366.264 27.9454 375.243 6.16508 382.45 1.2065C383.949 0.154249 385.434 -0.205951 386.846 0.111167C387.913 0.356213 388.792 1.04808 389.484 2.158C393.751 9.22108 389.513 37.3005 385.866 55.6646C398.695 30.7275 416.15 9.32206 427.147 6.02115C429.857 5.21394 432.192 5.44463 434.095 6.7131C441.114 11.3978 433.302 28.1183 419.998 55.0157C412.705 69.7041 405.195 84.8971 401.577 96.9764C398.867 106.101 391.416 116.364 382.811 128.27C362.603 156.205 337.451 190.988 366.264 226.476L363.799 228.479C333.429 191.117 359.374 155.24 380.245 126.411C388.331 115.239 395.97 104.688 398.536 96.0825C402.226 83.7437 409.807 68.4214 417.158 53.6177C426.642 34.4609 437.395 12.7527 432.35 9.37974C431.269 8.65902 429.871 8.57225 428.098 9.09117C416.178 12.6515 394.976 41.0916 382.695 69.9638L377.924 77.171L379.697 68.9401C384.021 52.5941 391.171 11.0372 386.789 3.81552C386.645 3.58489 386.429 3.2825 386.198 3.23926C385.679 3.12394 385.045 3.32563 384.295 3.84455C377.16 8.75988 365.442 38.1798 361.06 68.7673L358.812 75.3116L357.889 68.5368C357.889 43.4124 356.592 15.9957 354.445 12.075C351.144 13.5453 339.152 35.0806 342.755 73.1636L342.625 83.8015L339.613 73.6395C334.828 50.1007 327.361 24.4138 323.844 23.693C323.397 23.7651 322.907 24.3274 322.605 24.7743C318.266 31.2608 318.353 56.6301 322.821 75.0806L325.935 88.054L319.852 76.1764C319.737 75.9602 308.998 55.2319 295.493 46.8139C293.331 45.4733 290.361 44.2337 288.56 46.0067C284.452 50.0139 286.657 65.9422 296.386 82.3314L300.984 90.0863L294.008 84.3782C286.196 77.9782 278.917 75.8017 275.025 78.6702C271.465 81.308 271.364 88.0682 274.737 96.3421L276.524 100.724L272.46 98.3167C267.718 95.5203 263.927 94.8431 262.313 96.544C260.352 98.6052 260.914 104.803 265.844 112.241L269.837 118.31L263.653 114.461C259.314 111.751 255.682 111.722 253.448 114.36C249.989 118.411 250.565 127.708 257.513 135.679L261.808 140.623L255.726 138.216C252.41 136.904 249.859 137.308 248.158 139.47C244.858 143.694 245.391 153.985 251.473 162.62L255.898 168.876L249.354 164.897C247.971 164.047 246.039 163.182 244.814 163.989C243.07 165.142 242.378 169.496 243.099 174.843C243.849 180.379 245.636 183.867 246.53 184.487C246.631 184.53 246.76 184.588 246.875 184.645L245.722 187.6C245.521 187.542 245.348 187.456 245.16 187.369C242.941 186.461 240.923 186.879 239.842 188.494C237.622 191.824 239.395 199.276 248.591 207.737L252.54 211.37L247.25 210.476C245.42 210.159 244.238 210.418 243.719 211.211C240.836 215.564 250.119 234.044 257.642 245.791L254.889 247.521Z" fill="#2A338F"/>
<path d="M358.337 122.414C358.597 111.272 346.662 106.241 343.491 126.926C340.825 114.457 326.786 120.828 324.119 140.461C318.296 123.481 305.54 131.711 306.347 158.767C296.805 146.832 284.064 151.344 296.806 179.466C284.064 165.931 279.985 175.748 291.444 198.566C276.367 192.468 272.922 205.759 287.509 217.823C272.072 217.434 269.03 227.02 296.459 239.575L364.982 227.495C334.944 190.508 361.739 154.645 382.451 126.047C381.255 118.162 376.326 97.6214 358.337 122.414Z" fill="#FFDE00"/>
<path d="M296.233 241.218L295.786 241.017C280.767 234.141 273.156 227.366 274.338 221.918C275.016 218.862 278.317 216.887 283.563 216.368C277.971 210.746 275.449 204.621 277.063 200.138C278.475 196.246 282.77 194.588 288.392 195.9C283.462 185.247 281.891 177.247 284.082 173.687C285.639 171.15 288.838 171.02 292.73 173.701C289.444 164.591 288.94 157.672 291.404 153.867C293.984 149.86 299.735 150.234 304.737 154.732C304.967 144.483 307.202 136.498 311.064 132.505C312.635 130.89 314.423 130.025 316.268 130.025C317.997 130.025 320.909 130.804 323.518 135.229C326.257 124.606 332.397 118.926 337.528 118.926C339.704 118.926 341.564 119.921 342.962 121.723C345.542 112.267 350.097 111.143 352.143 111.143C353.815 111.143 355.487 111.892 356.814 113.262C358.082 114.544 358.99 116.289 359.495 118.307C364.583 112.036 368.993 108.98 372.942 108.98C380.409 108.98 383.09 119.532 384.041 125.817L384.127 126.451L382.787 128.296C362.579 156.231 337.427 191.013 366.24 226.501L367.955 228.606L296.233 241.218ZM286.605 219.395C281.459 219.395 277.855 220.649 277.437 222.595C276.846 225.305 281.545 230.926 296.651 237.918L362.089 226.386C334.357 189.788 359.725 154.703 380.178 126.422L380.755 125.644C380.106 121.766 378.03 112.152 372.914 112.152C370.564 112.152 366.341 114.097 359.624 123.351L356.626 127.489L356.756 122.386C356.814 119.561 355.978 116.98 354.522 115.496C354.017 114.962 353.167 114.328 352.129 114.328C349.779 114.328 346.522 117.687 345.066 127.171L343.74 135.763L341.924 127.258C341.521 125.327 340.397 122.112 337.514 122.112C333.737 122.112 327.395 128.008 325.694 140.663L324.786 147.323L322.61 140.966C320.231 134.047 316.628 131.337 313.342 134.71C310.474 137.665 307.562 145.521 307.937 158.71L308.081 163.467L305.112 159.748C301.061 154.689 296.002 152.57 294.071 155.568C293.192 156.923 290.914 162.602 298.236 178.79L302.186 187.496L295.628 180.534C290.684 175.287 288.248 174.869 287.614 174.869C287.21 174.869 286.994 174.984 286.763 175.33C285.379 177.579 286.691 185.579 292.845 197.831L294.748 201.608L290.842 200.022C288.507 199.085 286.432 198.595 284.673 198.595C282.987 198.595 280.796 199.056 280.046 201.19C278.922 204.303 281.098 210.444 288.522 216.555L292.067 219.496L286.605 219.395Z" fill="#FAA31A"/>
<path d="M347.651 159.029C342.865 146.892 333.914 148.68 334.116 171.166C326.938 161.408 318.203 173.559 323.364 185.884C314.211 181.314 308.445 193.653 318.809 203.988C307.451 206.179 303.876 216.73 319.184 222.9C309.988 224.226 310.536 230.814 314.701 236.349L364.947 227.484C343.644 201.235 350.937 175.563 364.385 152.644C361.848 142.698 355.895 127.678 347.651 159.029Z" fill="#E71E25"/>
<path d="M314.025 238.079L313.434 237.3C310.494 233.408 309.542 229.459 310.768 226.446C311.315 225.163 312.411 223.636 314.731 222.54C309.643 219.628 307.02 215.866 307.395 211.888C307.755 208.024 310.998 204.752 315.856 203.138C311.229 197.415 311.056 191.679 312.483 188.263C313.938 184.76 317.181 182.886 320.857 183.433C319.588 178.417 320.18 173.272 322.572 169.697C324.115 167.333 326.262 166.05 328.583 166.05C329.635 166.05 331.033 166.338 332.575 167.405C332.878 159.736 334.392 154.36 337.001 151.736C339.97 148.724 344.25 149.891 347.22 154.619C350.463 143.592 353.605 138.619 357.28 138.619C360.74 138.619 363.55 143.088 365.914 152.284L366.087 152.918L365.756 153.481C354.268 173.084 343.933 199.102 366.188 226.504L367.903 228.608L314.025 238.079ZM319.589 186.504C317.729 186.504 316.216 187.585 315.423 189.473C314.227 192.385 314.673 197.632 319.934 202.878L322.053 204.997L319.099 205.574C314.299 206.497 310.868 209.178 310.566 212.205C310.263 215.534 313.708 218.994 319.805 221.459L325.282 223.65L319.43 224.515C317.311 224.817 314.587 225.625 313.737 227.686C313.03 229.43 313.65 231.981 315.438 234.634L362.095 226.403C340.777 198.194 351.991 170.864 362.7 152.442C360.48 144.068 358.275 141.804 357.309 141.804C356.733 141.804 353.619 142.655 349.194 159.462L347.955 164.176L346.182 159.635C344.308 154.878 342.132 153.206 340.82 153.206C340.301 153.206 339.797 153.466 339.292 153.971C338.182 155.095 335.617 159.001 335.732 171.181L335.761 176.111L332.849 172.133C331.451 170.23 329.995 169.235 328.612 169.235C326.969 169.235 325.801 170.634 325.253 171.47C323.351 174.309 322.515 179.686 324.864 185.307L326.522 189.271L322.688 187.354C321.592 186.778 320.554 186.504 319.589 186.504Z" fill="#B71F25"/>
<path d="M380.635 284.52C380.635 284.52 414.046 280.282 427.854 268.073C441.648 255.864 446.952 225.089 425.462 219.122C403.985 213.154 301.691 227.871 226.884 256.93C152.063 285.99 0.446044 348.463 1.62796 358.423C2.8243 368.354 164.012 313.046 212.557 300.707C261.103 288.383 312.3 302.97 380.635 284.52Z" fill="#D02027"/>
<path d="M367.922 277.631C367.922 277.631 408.482 277.617 422.276 265.422C436.07 253.213 446.952 225.105 425.462 219.137C403.985 213.17 301.691 227.887 226.885 256.946C152.063 286.006 0.446044 348.478 1.62796 358.439C2.8243 368.37 156.834 301.026 205.394 288.673C253.925 276.334 299.587 296.067 367.922 277.631Z" fill="#E71E25"/>
<path d="M4.98746 361.206C3.83436 361.206 0.360418 361.206 0.0433178 358.611C-0.259369 356.074 -0.893559 350.799 85.0983 313.379C134.119 292.06 191.803 268.852 226.295 255.447C292.194 229.861 375.923 216.211 411.006 216.211C417.607 216.211 422.609 216.672 425.866 217.595C433.736 219.771 438.882 225.206 440.741 233.292C443.465 245.155 438.276 260.968 428.879 269.271C414.883 281.653 382.193 285.934 380.823 286.121C343.247 296.283 310.168 296.427 280.98 296.557C257.111 296.658 234.568 296.773 212.919 302.265C196.473 306.445 166.737 315.671 135.243 325.444C81.2355 342.193 20.0065 361.206 4.98746 361.206ZM3.43076 357.905C3.73344 357.963 4.22353 358.02 4.98746 358.02C19.5164 358.02 80.515 339.094 134.336 322.388C165.858 312.6 195.637 303.375 212.169 299.166C234.193 293.559 256.924 293.458 280.994 293.357C309.98 293.227 342.829 293.069 380.233 282.979C380.766 282.906 413.557 278.611 426.817 266.878C435.264 259.396 440.15 244.651 437.685 233.999C436.575 229.198 433.491 222.985 425.059 220.65C422.061 219.814 417.348 219.397 411.034 219.397C376.197 219.397 293.016 232.946 227.477 258.417C138.79 292.853 9.85925 347.354 3.43076 357.905Z" fill="#B71F25"/>
<path d="M376.112 268.883C387.254 310.281 447.474 339.456 510.361 361.222C573.233 382.973 600.836 330.707 602.421 343.968C604.021 357.244 579.878 377.135 547.505 385.626C547.505 385.626 582.53 392.256 582.256 398.368C581.982 404.465 552.809 407.651 517.251 396.509C517.251 396.509 564.455 418.534 560.766 424.905C557.047 431.276 529.459 424.631 501.064 405.013C501.064 405.013 544.838 443.211 540.86 446.411C536.896 449.583 515.132 445.345 479.574 413.503C479.574 413.503 511.687 454.628 506.369 456.228C501.064 457.813 493.627 452.768 458.616 418.822C458.616 418.822 485.152 450.923 477.455 453.532C469.772 456.141 454.638 446.137 433.681 417.481C433.681 417.481 452.519 451.442 446.422 453.302C440.325 455.161 423.346 445.604 411.137 416.573C415.923 456.242 389.661 434.462 377.309 407.392C370.938 424.905 361.396 415.363 357.014 395.456C354.247 398.642 343.48 405.806 345.887 387.499C341.505 395.86 325.578 391.881 329.167 370.389C322.811 379.543 306.883 372.379 312.85 354.476C302.905 362.837 295.727 353.279 300.916 336.962C288.967 347.715 283 328.602 287.396 315.874C245.87 320.919 272.132 290.404 272.132 290.404C282.741 279.521 313.37 268.767 340.049 274.331" fill="#2C3D98"/>
<path d="M376.141 268.277C387.283 309.676 447.503 338.851 510.376 360.616C573.262 382.368 600.85 330.101 602.45 343.362C604.036 356.638 543.196 373.618 510.837 382.108C510.837 382.108 566.632 390.728 566.387 396.826C566.113 402.923 522.339 398.007 486.809 386.88C486.809 386.88 550.172 410.952 546.467 417.323C542.749 423.694 514.556 416.66 486.175 397.027C486.175 397.027 531.737 434.231 527.773 437.417C523.795 440.602 502.116 432.444 466.558 400.602C466.558 400.602 499.047 442 493.742 443.586C488.438 445.186 482.802 439.737 447.777 405.777C447.777 405.777 474.269 439.175 466.572 441.784C458.89 444.393 443.669 428.451 422.712 399.795C422.712 399.795 442.949 437.734 436.837 439.607C430.74 441.453 417.797 422.67 405.588 393.625C410.359 433.308 390.627 417.899 378.303 390.843C371.932 408.357 361.439 414.728 357.058 394.822C354.276 397.993 348.294 390.108 350.672 371.802C346.291 380.163 334.169 375.521 337.758 354.029C331.387 363.182 315.777 356.926 321.744 339.023C311.813 347.369 304.894 343.809 310.069 327.492C298.134 338.245 292.6 316.494 296.981 303.751C255.456 308.782 272.147 289.755 272.147 289.755C282.755 278.872 313.384 268.119 340.064 273.697" fill="#3851A3"/>
<path d="M504.625 458.058C499.681 458.058 492.416 453.056 471.906 433.727C476.936 441.107 481.318 448.934 480.266 452.595C479.949 453.763 479.113 454.627 477.96 455.017C470.133 457.669 457.608 449.237 442.689 431.55C446.639 440.011 450.285 449.424 448.873 452.927C448.498 453.878 447.821 454.527 446.884 454.801C440.888 456.617 425.696 449.381 413.3 425.02C413.3 433.525 411.181 438.426 406.972 439.608C398.684 441.972 385.51 427.326 377.41 411.269C375.104 416.04 372.365 418.375 369.108 418.13C363.948 417.784 359.148 410.491 356.106 398.44C353.728 400.256 350.312 401.928 347.545 400.674C345.066 399.564 343.884 396.652 343.941 391.824C341.693 393.193 338.853 393.554 336.072 392.617C331.33 391.031 326.515 385.352 327.092 374.454C324.094 376.271 320.361 376.472 317.002 374.772C312.635 372.595 308.671 367.002 310.271 358.036C307.23 359.506 304.333 359.507 301.998 357.935C297.962 355.24 296.621 348.696 298.279 340.696C294.546 342.512 291.822 341.445 290.322 340.465C284.759 336.789 283.202 326.036 285.191 317.676C273.199 318.815 266.064 316.926 263.384 311.924C258.872 303.463 270.417 289.899 270.908 289.337C281.242 278.742 311.871 266.793 340.352 272.746L339.689 275.859C313.355 270.353 283.231 281.251 273.242 291.47C270.345 294.843 263.297 304.991 266.194 310.426C268.298 314.332 275.52 315.658 287.18 314.245L289.703 313.942L288.867 316.35C286.143 324.306 287.728 334.915 292.096 337.798C294.171 339.182 296.78 338.49 299.836 335.737L304.189 331.816L302.415 337.409C299.374 347.024 300.974 353.409 303.771 355.283C305.789 356.624 308.642 355.889 311.828 353.222L316.152 349.604L314.379 354.952C311.222 364.408 314.581 370 318.429 371.932C321.254 373.359 325.305 373.142 327.87 369.452L331.906 363.658L330.739 370.634C328.764 382.397 332.929 388.22 337.08 389.604C340.078 390.613 343.033 389.46 344.46 386.75L348.597 378.836L347.444 387.687C346.377 395.975 348.251 397.503 348.856 397.777C350.586 398.541 354.189 396.263 355.818 394.39L357.908 392.011L358.585 395.096C361.511 408.444 366.21 414.743 369.324 414.944C371.5 415.103 373.893 412.148 375.824 406.829L377.151 403.183L378.765 406.729C387.298 425.439 400.428 438.152 406.122 436.538C409.696 435.543 410.95 428.321 409.552 416.746L408.183 405.445L412.608 415.939C424.802 444.97 441.176 453.201 445.961 451.759C447.475 449.741 441.248 434.361 432.297 418.231L428.651 410.563L434.978 416.53C456.454 445.893 470.724 454.109 476.951 451.99C477.123 451.946 477.181 451.889 477.21 451.716C478.378 447.636 466.328 430.584 457.406 419.788L451.208 412.811L459.741 417.64C492.806 449.712 500.949 455.464 505.374 454.801C504.812 450.505 491.48 431.305 478.334 414.454L473.088 406.844L480.655 412.292C515.075 443.125 535.427 446.945 539.448 445.374C537.891 441.006 518.563 422.353 500.041 406.18L492.993 399.406L501.987 403.658C524.919 419.514 548.457 427.255 557.076 425.337C557.912 425.15 558.993 424.775 559.397 424.069C559.829 420.926 540.226 408.934 516.588 397.921L507.58 393.568L517.741 394.966C548.082 404.48 573.738 403.543 579.85 399.233C580.455 398.815 580.671 398.469 580.685 398.281C580.729 395.802 564.773 390.512 547.232 387.168L540.298 385.87L547.131 384.083C579.605 375.55 602.292 355.975 600.879 344.141C600.793 343.449 600.649 343.247 600.649 343.247C599.928 343.305 596.742 345.683 593.917 347.802C580.902 357.575 553.79 377.899 509.871 362.707C427.036 334.051 384.04 304.357 374.599 269.287L377.684 268.465C386.692 301.964 430.265 331.817 510.909 359.694C553.242 374.339 579.432 354.692 592.015 345.265C597.016 341.517 599.755 339.442 602.018 340.422C603.704 341.143 603.949 343.132 604.021 343.781C605.693 357.59 582.963 376.17 554.193 385.352C566.402 387.975 584.116 392.789 583.871 398.426C583.842 399.319 583.439 400.631 581.709 401.856C576.044 405.82 556.889 407.42 532.371 402.13C544.94 408.617 560.766 417.683 562.423 422.959C562.813 424.213 562.51 425.136 562.178 425.698C561.371 427.067 559.901 428.004 557.782 428.465C550.33 430.123 533.856 425.727 515.521 415.738C527.874 427.082 542.821 441.655 542.749 445.835C542.72 446.555 542.432 447.19 541.884 447.622C536.868 451.629 517.467 446.325 489.735 424.17C499.003 436.667 509.698 452.249 508.444 456.156C508.199 456.934 507.623 457.496 506.859 457.727C506.138 457.943 505.418 458.058 504.625 458.058Z" fill="#2A338F"/>
<path d="M433.228 251.57C433.228 251.57 428.846 259.325 427.852 268.089C438.388 272.269 450.539 261.329 450.539 261.329C442.986 260.911 436.212 257.927 433.228 251.57Z" fill="#F9A11B"/>
<path d="M432.982 270.627C430.964 270.627 429.033 270.267 427.26 269.561L426.121 269.114L426.28 267.903C427.289 258.923 431.656 251.11 431.843 250.779L433.342 248.098L434.669 250.894C438.013 258.044 446.098 259.499 450.61 259.73L454.458 259.932L451.605 262.498C451.23 262.829 442.466 270.627 432.982 270.627ZM429.595 266.995C430.661 267.283 431.8 267.442 432.982 267.442C438.157 267.442 443.302 264.588 446.43 262.454C440.664 261.417 436.168 258.822 433.342 254.916C432.117 257.597 430.359 262.094 429.595 266.995Z" fill="#F47721"/>
<path d="M438.327 230.756C438.327 230.756 432.748 242.057 433.224 251.556C443.357 250.561 456.488 255.448 457.886 269.012C465.857 256.731 464.257 229.906 438.327 230.756Z" fill="#F9A11B"/>
<path d="M456.777 273.68L456.315 269.183C455.061 257.046 443.199 252.188 433.369 253.14L431.726 253.298L431.625 251.626C431.164 241.824 436.698 230.509 436.914 230.033L437.347 229.183L438.284 229.154C451.4 228.808 457.699 235.093 460.582 240.398C465.843 250.055 463.81 262.797 459.212 269.889L456.777 273.68ZM435.79 249.853C445.26 249.853 455.278 254.365 458.521 264.282C461.072 257.738 461.49 248.715 457.8 241.925C454.355 235.612 448.028 232.311 439.365 232.326C438.212 234.906 434.955 242.761 434.796 249.868C435.127 249.853 435.459 249.853 435.79 249.853Z" fill="#F47721"/>
<path d="M437.282 228.478C431.718 226.46 423.805 225.249 415.719 229.675C400.787 237.833 396.203 248.586 401.392 255.145C405.586 260.478 412.649 268.536 422.796 271.722C424.67 270.583 426.37 269.387 427.855 268.089C437.945 259.152 443.451 240.298 437.282 228.478Z" fill="#FCF1AE"/>
<path d="M423.025 273.453L422.333 273.236C411.941 269.979 404.676 261.906 400.136 256.126C398.031 253.445 397.282 250.159 398.017 246.613C399.343 240.112 405.527 233.424 414.953 228.263C421.872 224.487 429.814 224.054 437.828 226.966L438.404 227.182L438.707 227.73C445.424 240.602 439.081 260.278 428.905 269.258C427.45 270.555 425.677 271.838 423.659 273.063L423.025 273.453ZM427.45 228.249C423.587 228.249 419.911 229.2 416.481 231.074C407.861 235.773 402.283 241.683 401.13 247.261C400.611 249.899 401.102 252.22 402.644 254.166C406.824 259.485 413.425 266.851 422.607 269.979C424.207 268.97 425.619 267.932 426.801 266.894C435.737 258.98 441.633 241.222 436.127 229.762C433.186 228.753 430.275 228.249 427.45 228.249Z" fill="#FEC23F"/>
<path d="M424.871 242.013C424.871 245.545 422.334 248.384 419.192 248.384C416.05 248.384 413.527 245.53 413.527 242.013C413.527 238.496 416.064 235.656 419.192 235.656C422.32 235.656 424.871 238.496 424.871 242.013Z" fill="#010101"/>
<path d="M419.194 249.972C415.187 249.972 411.93 246.412 411.93 242.015C411.93 237.633 415.187 234.059 419.194 234.059C423.187 234.059 426.459 237.633 426.459 242.015C426.459 246.412 423.201 249.972 419.194 249.972ZM419.194 237.244C416.946 237.244 415.115 239.378 415.115 242.015C415.115 244.653 416.946 246.787 419.194 246.787C421.428 246.787 423.259 244.653 423.259 242.015C423.259 239.378 421.443 237.244 419.194 237.244Z" fill="#FEC23F"/>
<path d="M199.934 290.377C218.513 278.701 213.468 275.515 191.459 276.856C203.523 270.456 205.642 267.386 203.825 266.002C124.795 297.325 0.535357 349.433 1.61638 358.456C2.81272 368.373 162.833 313.468 212.013 300.87C219.493 293.476 211.926 289.339 199.934 290.377Z" fill="#2C3D98"/>
<path d="M199.934 290.377C218.513 278.701 213.468 275.515 191.459 276.856C203.523 270.456 205.642 267.386 203.825 266.002C124.795 297.325 0.535357 349.433 1.61638 358.456C2.81272 368.373 153.161 309.36 202.326 296.762C209.822 289.353 211.926 289.339 199.934 290.377Z" fill="#3851A3"/>
<path d="M4.9865 361.21C3.83341 361.21 0.359467 361.21 0.0423664 358.615C-0.26032 356.266 -0.836942 351.394 72.0385 319.12C122.746 296.677 180.689 273.455 203.261 264.518L204.097 264.172L204.817 264.72C205.668 265.368 206.086 266.262 205.999 267.285C205.855 268.799 204.702 270.932 198.014 274.983C207.599 274.81 211.952 275.977 212.803 278.947C213.538 281.512 211.347 284.453 205.379 288.677C211.116 289.008 215.037 290.781 216.219 293.65C216.925 295.365 216.968 298.219 213.134 301.995L212.831 302.284L212.413 302.385C195.881 306.622 166.462 315.761 135.286 325.433C81.2489 342.197 20.0055 361.21 4.9865 361.21ZM3.42981 357.924C3.74691 357.967 4.23699 358.039 4.9865 358.039C19.5155 358.039 80.5142 339.113 134.349 322.406C165.281 312.792 194.512 303.74 211.203 299.43C212.99 297.57 213.725 295.956 213.293 294.846C212.702 293.448 209.804 291.819 203.462 291.819C202.396 291.819 201.272 291.862 200.104 291.963L193.546 292.525L199.109 289.022C210.237 282.017 209.776 279.898 209.761 279.826C209.761 279.826 209.17 278.139 199.629 278.139C197.351 278.139 194.627 278.241 191.571 278.428L184.249 278.874L190.721 275.444C197.063 272.086 200.075 269.923 201.516 268.626C92.405 311.941 8.60431 349.751 3.42981 357.924Z" fill="#2A338F"/>
<path d="M299.443 290.372C291.213 303.374 306.03 314.257 316.697 306.012C310.355 322.473 317.734 336.801 329.265 324.851C326.209 344.484 336.587 350.322 343.477 339.035C342.684 363.568 358.063 362.805 361.249 348.736C366.02 368.109 379.814 372.087 378.963 353.248C391.633 379.511 405.038 377.651 403.179 359.604C412.735 374.725 434.744 377.651 422.147 359.604C431.833 368.628 453.842 372.347 447.673 357.226C473.099 369.795 467.578 353.896 461.092 341.918C418.644 322.848 384.268 299.121 376.109 268.865L340.032 274.285C322.865 270.696 304.099 273.896 290.031 279.503C290.305 285.5 294.47 291.813 299.443 290.372Z" fill="#FFCD05"/>
<path d="M299.443 290.374C291.213 303.376 311.753 303.578 322.404 295.347C316.077 311.794 322.794 325.401 334.339 313.452C331.269 333.084 341.358 338.663 348.277 327.376C347.469 351.91 359.015 347.801 362.2 333.733C366.971 353.106 376.801 359.463 375.922 340.637C388.592 366.9 399.662 365.315 397.831 347.268C407.373 362.375 422.766 363.124 410.154 345.077C419.84 354.101 443.738 359.405 437.54 344.284C462.98 356.854 467.578 353.899 461.092 341.906C418.644 322.836 384.268 299.109 376.109 268.854L340.032 274.273C322.865 270.684 304.099 273.884 290.031 279.491C290.305 285.502 294.47 291.815 299.443 290.374Z" fill="#FFDE00"/>
<path d="M397.226 374.684C391.937 374.684 385.897 369.106 380.276 359.189C379.844 361.841 378.95 363.902 377.653 365.257C376.5 366.454 375.058 367.088 373.487 367.088C368.846 367.088 364.061 361.812 361.12 353.784C359.073 357.719 355.874 360.155 352.371 360.155C350.252 360.155 348.278 359.261 346.635 357.56C344.646 355.499 342.368 351.448 341.95 343.578C338.217 347.138 333.561 347.211 330.563 343.722C327.954 340.681 326.801 335.333 327.262 328.731C322.679 331.96 317.995 331.383 315.285 327.434C312.489 323.369 312.013 316.58 313.915 309.444C312.243 310.122 310.456 310.483 308.655 310.483C303.725 310.483 299.271 307.902 296.98 303.779C295.048 300.277 295.005 296.126 296.763 292.061C292.036 291.153 288.706 285.185 288.461 279.607L288.418 278.482L289.456 278.064C305.541 271.621 324.611 269.545 340.091 272.702L377.292 267.109L377.667 268.479C384.715 294.684 412.217 318.237 461.757 340.508L462.232 340.724L462.492 341.199C467.753 350.915 469.309 357.329 467.234 360.774C466.513 362 464.971 363.441 461.699 363.441C458.874 363.441 455.069 362.389 450.182 360.198C450.543 362.432 450.24 364.32 449.217 365.805C447.775 367.953 445.065 369.091 441.347 369.091C436.864 369.091 431.474 367.477 426.847 364.926C427.726 367.376 427.755 369.409 426.948 370.98C426.025 372.724 424.151 373.69 421.615 373.69C416.988 373.69 410.098 370.346 404.895 364.537C404.678 368.011 403.741 370.72 402.127 372.522C400.815 373.935 399.143 374.684 397.226 374.684ZM377.019 345.538L380.391 352.558C387.151 366.54 393.681 371.499 397.226 371.499C398.235 371.499 399.057 371.124 399.763 370.36C401.435 368.515 402.098 364.652 401.594 359.78L400.902 353.034L404.52 358.771C409.103 366.007 416.959 370.49 421.615 370.49C422.537 370.49 423.69 370.317 424.137 369.481C424.439 368.904 425.059 366.569 420.85 360.529L412.289 348.248L423.243 358.439C427.798 362.677 435.581 365.892 441.361 365.892C443.927 365.892 445.786 365.229 446.593 364.018C447.674 362.389 446.968 359.765 446.19 357.834L444.604 353.927L448.381 355.787C454.333 358.742 458.83 360.227 461.728 360.227C463.875 360.227 464.38 359.376 464.524 359.117C465.158 358.05 465.965 354.374 459.969 343.146C410.66 320.918 382.842 297.178 374.986 270.641L340.004 275.902L339.716 275.844C325.144 272.803 307.127 274.648 291.762 280.558C292.324 285.098 295.135 288.962 298.032 288.962C298.363 288.962 298.695 288.918 299.012 288.817L303.048 287.65L300.814 291.21C298.363 295.059 297.989 298.98 299.776 302.223C301.462 305.279 304.95 307.282 308.655 307.282C311.148 307.282 313.598 306.418 315.732 304.76L320.214 301.286L318.182 306.59C314.867 315.21 315.645 322.36 317.879 325.632C320.142 328.933 323.919 328.111 328.128 323.758L331.615 320.14L330.852 325.113C329.684 332.565 330.477 338.749 332.956 341.646C335.45 344.558 339.183 343.016 342.108 338.216L345.251 333.07L345.064 339.095C344.732 349.43 347.326 353.711 348.912 355.354C349.95 356.421 351.103 356.969 352.357 356.969C355.542 356.969 358.555 353.437 359.708 348.392L361.192 341.819L362.807 348.364C365.459 359.088 370.648 363.917 373.487 363.917C374.193 363.917 374.799 363.628 375.347 363.066C376.846 361.495 377.566 357.949 377.379 353.322L377.019 345.538Z" fill="#FAA31A"/>
<path d="M340.895 270.814C338.517 281.538 341.155 294.05 353.291 286.41C347.468 306.547 351.446 312.659 360.988 302.309C360.181 321.682 370.011 326.728 377.708 313.452C381.138 332.551 392.828 332.508 392.828 320.861C396.806 346.879 406.622 327.506 406.622 327.506C408.726 342.915 427.767 342.295 435.334 329.12C405.238 312.472 383.546 289.653 377.132 265.826" fill="#E71E25"/>
<path d="M419.302 340.651C418.265 340.651 417.212 340.55 416.189 340.334C411.274 339.382 407.7 336.255 405.97 331.584C404.255 333.919 401.631 336.442 398.734 335.995C396.053 335.563 394.078 332.91 392.622 327.764C391.556 329.321 390.057 330.287 388.255 330.445C384.292 330.748 379.492 326.856 376.955 317.429C373.799 321.451 370.267 323.195 366.952 322.215C362.397 320.874 359.658 314.964 359.385 306.099C356.257 308.737 353.662 309.501 351.673 308.377C348.372 306.517 348.084 300.16 350.823 289.494C346.686 291.094 343.832 290.143 342.059 288.888C340.013 287.461 338.701 285.198 337.937 282.561C336.842 278.698 340.907 270.827 340.907 270.827C339.436 277.415 340.719 284.06 343.89 286.294C345.98 287.764 348.863 287.346 352.466 285.083L355.998 282.863L354.844 286.871C350.967 300.218 352.12 304.961 353.259 305.595C353.879 305.941 355.983 305.422 359.846 301.242L362.772 298.056L362.599 302.38C362.167 312.788 364.934 318.294 367.875 319.144C370.411 319.88 373.568 317.458 376.335 312.644L378.511 308.896L379.29 313.162C381.221 323.901 385.445 327.491 387.996 327.26C389.942 327.087 391.268 324.521 391.268 320.86L394.439 320.615C396.082 331.484 398.561 332.709 399.267 332.824C401.112 333.112 403.894 329.393 405.234 326.784L407.541 322.258L408.233 327.303C408.968 332.665 412.11 336.283 416.852 337.22C421.868 338.2 428.858 335.894 433.139 329.696C408.564 315.829 390.086 298.734 380.256 281.134C377.488 276.189 377.157 265.422 377.157 265.422C383.124 287.577 404.629 310.294 436.166 327.721L437.579 328.514L436.757 329.912C432.909 336.528 426.062 340.651 419.302 340.651Z" fill="#B71F25"/>
<path d="M421.295 239.089C421.295 239.997 420.56 240.717 419.666 240.717C418.758 240.717 418.023 239.997 418.023 239.089C418.023 238.181 418.758 237.445 419.666 237.445C420.56 237.445 421.295 238.181 421.295 239.089Z" fill="white"/>
<path d="M417.75 240.788C417.75 241.163 417.462 241.451 417.088 241.451C416.713 241.451 416.41 241.163 416.41 240.788C416.41 240.428 416.698 240.125 417.088 240.125C417.462 240.125 417.75 240.428 417.75 240.788Z" fill="white"/>
</svg>
