<svg width="732" height="455" viewBox="0 0 732 455" fill="none" xmlns="http://www.w3.org/2000/svg">
<path d="M207.203 90.5667L170.022 111.497L136.274 173.868L118.334 239.658L103.384 294.359L79.4474 316.987L54.2497 320.842L28.6082 311.435L15.7991 286.666L3.8388 283.676L0 294.359L16.2196 332.802L49.5465 343.906L78.5986 345.627L103.812 332.389L143.111 285.374L158.926 217.879L165.763 157.633L184.552 117.47L207.203 90.5667Z" fill="#C94A03"/>
<path d="M143.211 161.075L146.863 154.316L159.142 161.69L154.019 165.537L143.211 161.075Z" fill="#6D5652"/>
<path d="M131.93 189.839L133.83 182.839L144.622 186.039L155.734 187.324L156.162 192.876L140.355 192.455L131.93 189.839Z" fill="#6D5652"/>
<path d="M126.137 211.066L129.423 199.027L138.214 206.105L151.887 209.96L154.021 216.376L140.784 218.081L126.137 211.066Z" fill="#6D5652"/>
<path d="M122.407 228.764C122.212 228.632 121.901 228.406 121.48 228.118L123.552 220.557L132.647 228.336H151.015L152.728 232.175L139.063 234.744C139.063 234.744 123.692 229.605 122.407 228.764Z" fill="#6D5652"/>
<path d="M116.404 246.713L133.783 257.676L149.146 259.6L148.835 260.947L141.555 269.224C141.555 269.224 125.888 268.835 124.587 267.441C123.817 266.608 117.969 262.123 113.234 258.323L116.404 246.713Z" fill="#6D5652"/>
<path d="M103.383 294.359L104.52 290.162L110.017 300.534L126.471 305.292L120.74 312.121L110.43 310.361C110.43 310.361 102.628 302.8 98.7969 298.689L103.383 294.359Z" fill="#6D5652"/>
<path d="M295.214 249.492L285.816 284.104L261.451 324.688L238.815 345.627L228.124 354.169V360.998L250.348 388.772L266.583 402.874L287.529 407.141L297.348 409.275L305.462 423.376L306.738 431.934L299.91 433.639H293.922L291.796 439.183H270.001L251.204 437.906L245.652 434.916L245.224 429.785L235.825 417.404L229.837 415.263L215.751 393.896L193.949 367.842L178.142 353.304L177.293 342.2L187.969 330.24L194.385 293.495L238.387 220.869L295.214 249.492Z" fill="#CEAD97"/>
<path d="M238.379 304.194C239.672 303.766 256.756 306.756 256.756 306.756L268.576 312.814L261.451 324.688L261.342 324.797C257.745 322.726 252.364 319.643 249.911 318.28C246.072 316.146 239.228 311.435 239.228 311.435L219.582 313.156L220.003 308.453C220.003 308.453 237.102 304.607 238.379 304.194Z" fill="#6D5652"/>
<path d="M258.891 280.694C260.176 281.535 271.7 285.81 273 286.246C273.709 286.479 279.424 286.588 284.291 286.635L276.901 298.953C273.055 298.424 269.029 297.723 267.448 296.929C264.015 295.208 257.186 289.656 254.616 287.523C252.046 285.397 243.512 281.963 243.512 281.963L222.153 283.248L221.289 278.124C221.289 278.124 240.95 277.268 246.931 277.268C252.903 277.268 257.614 279.837 258.891 280.694Z" fill="#6D5652"/>
<path d="M577.187 251.634L563.521 302.481L556.248 375.956L554.963 389.201L556.684 397.751L567.368 405.436L579.748 419.53V425.526L572.919 429.785L569.073 431.934L541.734 434.488L515.664 419.109L540.449 256.757L577.187 251.634Z" fill="#CEAD97"/>
<path d="M529.32 338.79L540.86 337.941L560.662 331.346L559.821 339.748L533.175 346.904L529.32 338.79Z" fill="#6D5652"/>
<path d="M530.918 319.121L542.567 316.995C542.567 316.995 554.107 313.577 558.382 311.03C559.822 310.166 561.434 309.06 562.968 307.986L562.368 314.044L561.372 315.29C561.372 315.29 543.431 323.832 542.146 323.832C541.103 323.832 532.904 326.051 529.734 326.907L530.918 319.121Z" fill="#6D5652"/>
<path d="M669.038 24.7694L667.34 10.2472L658.783 0L648.536 3.83107L640.414 15.3709L669.038 24.7694Z" fill="#F4852A"/>
<path d="M725.01 92.2797L731.855 83.3095L730.562 76.8932L698.536 52.9881L692.119 38.4426L690.842 32.0576L666.493 20.9382L640.844 13.6655L621.627 16.6634L596.421 26.0619L577.616 47.8567L555.822 57.6757L515.237 70.4925L499.438 76.0444L489.175 83.7298L420.824 84.1816L360.586 85.8713L308.891 88.8691L246.94 79.0424L205.499 87.156L176.447 114.075L148.696 175.176L147.403 236.271L137.576 276.006L117.082 314.028L94.4148 329.827L92.2812 340.511L101.259 351.194L119.636 423.392L127.757 430.665L136.299 443.482L158.086 445.195L177.748 444.338L179.032 440.92L191.842 437.93L189.7 425.105L179.881 418.704L158.951 412.724L153.391 390.937L146.554 350.345L156.809 340.947L199.955 305.05C199.955 305.05 234.567 271.311 235.431 270.034C236.272 268.749 255.934 249.944 255.934 249.944L281.131 253.791L322.159 273.873L363.172 281.137L413.154 270.883L447.345 264.054L478.531 270.883L489.207 280.289L492.633 318.311L490.92 383.68L484.511 398.202L490.491 408.886L487.922 425.97L492.204 433.242L505.442 441.356L508.868 450.326L533.209 454.165L555.845 451.175L557.994 446.908L564.831 446.472L566.536 434.94L549.452 419.553L535.779 413.581L533.209 401.62L543.464 323.855L550.293 276.426L572.952 265.751L586.618 247.811L594.731 212.35L609.269 191.832L629.343 167.039L638.306 135.862L650.702 122.188L675.051 118.342L694.276 127.748L704.111 128.168L707.101 123.473L709.663 114.075L717.356 106.81L722.48 99.1241L725.01 92.2797Z" fill="#F25800"/>
<path d="M157.673 407.811L143.112 409.711L132.001 390.057L125.172 361.854L136.276 323.411L170.451 290.085L185.846 254.196L190.113 208.916L198.67 177.295L214.049 167.047L228.571 187.557L263.603 202.944L314.014 201.223L379.819 199.518L457.577 221.733L487.485 226.864L522.518 195.243L543.884 148.25L572.08 123.465L595.152 95.2698L583.184 73.0466L559.31 56.1029L577.639 47.8412L579.072 46.1748L590.885 49.9747L612.243 49.1104L609.674 61.9273L608.825 85.0069L610.523 108.071L642.136 121.752L646.388 126.923L638.29 135.838L629.327 167.016L609.253 191.809L594.716 212.327L586.602 247.787L572.936 265.728L550.277 276.403L549.966 278.599L528.49 278.108L512.255 285.802L497.733 333.659L491.791 349.489L492.609 318.264L489.183 280.242L478.507 270.836L447.322 264.007L413.131 270.836L363.148 281.091L322.136 273.826L281.108 253.744L255.91 249.897C255.91 249.897 236.249 268.702 235.408 269.987C234.551 271.264 199.932 305.004 199.932 305.004L156.786 340.9L146.531 350.299L153.367 390.891L157.673 407.811Z" fill="#C94A03"/>
<path d="M668.828 52.9648L669.794 57.4499L674.917 59.0462H681.334L685.18 59.6847V56.8115L677.798 52.9648H668.828Z" fill="#F4852A"/>
<path d="M676.833 49.7568L666.578 50.3953L667.871 54.2576L674.271 56.1731L678.756 54.2576L685.181 56.8116L676.833 49.7568Z" fill="#172B2A"/>
<path d="M676.616 50.621L676.196 45.7077L673.213 43.7844L668.292 47.2027L668.066 50.621H676.616Z" fill="#C94A03"/>
<path d="M586.584 247.787L572.918 265.728L552.042 275.578L542.363 260.814L547.487 248.644L557.103 235.173L565.435 192.891L587.222 174.943L601.962 153.81L616.492 136.282L627.168 118.342L613.93 111.497L606.237 108.935L603.255 101.678L605.801 95.2619L606.666 72.6184V59.8015L620.759 56.391L647.257 55.5266L661.78 66.2099L671.178 70.0565L674.176 83.7221L687.834 86.2918L702.364 87.997L719.455 82.0169L728.947 87.0938L725.007 92.2797L722.446 99.1164L717.322 106.802L709.621 114.067L707.059 123.465L704.069 128.153L694.242 127.732L675.017 118.326L650.668 122.173L638.272 135.846L629.309 167.024L609.235 191.817L594.697 212.335L586.584 247.787Z" fill="#F4D7C3"/>
<path d="M716.895 83.7223L717.751 79.0347L727.15 81.5966L731.393 81.028L731.853 83.3018L725.008 92.2798L724.814 92.7704L721.169 87.9971L716.895 83.7223Z" fill="#172B2A"/>
<path d="M237.315 262.107C237.953 260.184 252.07 239.658 252.693 237.112C253.34 234.542 271.296 231.98 271.296 231.98L286.674 239.658L309.738 246.074L363.568 252.475L464.818 244.797L485.336 246.074L496.221 262.107L501.999 305.027L499.429 367.196L492.382 394.114L489.073 406.386L484.479 398.163L490.887 383.641L492.6 318.272L489.174 280.25L478.499 270.844L447.313 264.015L413.122 270.844L363.139 281.099L322.127 273.834L281.099 253.752L255.901 249.906C255.901 249.906 236.24 268.71 235.399 269.995C235.267 270.166 234.488 270.984 233.266 272.222C235.243 267.41 237.05 262.925 237.315 262.107Z" fill="#F4D7C3"/>
<path d="M156.792 340.923L146.537 350.322L153.07 389.146C149.698 386.234 146.949 383.844 146.319 383.213C144.395 381.29 143.11 370.396 141.841 368.48C140.549 366.542 139.91 351.163 139.91 351.163L149.519 334.499C149.519 334.499 168.744 322.329 170.667 320.398C171.968 319.089 186.521 312.79 197.967 306.654L156.792 340.923Z" fill="#CEAD97"/>
<path d="M174.282 444.463L172.592 433.85L165.553 427.441L162.664 424.879C162.664 424.879 166.184 425.199 167.157 425.199C168.115 425.199 173.231 429.053 173.231 429.053L177.412 437.696L178.634 441.901L177.723 444.315L174.282 444.463Z" fill="#C94A03"/>
<path d="M551.255 451.759L552.626 446.986V439.62L544.613 432.246L545.244 430.33L552.937 434.808L557.415 443.785L556.636 449.524L555.81 451.152L551.255 451.759Z" fill="#C94A03"/>
<path d="M679.723 45.2794L678.018 38.8787L669.896 36.3169L663.916 38.0221L662.211 43.574L665.193 43.138L670.332 40.1557L675.456 41.0044L679.723 45.2794Z" fill="#172B2A"/>
<path d="M667.342 29.4724L660.918 32.8829L657.936 38.4349L657.508 42.7019H652.805L654.518 35.0243L660.07 29.0441L665.622 27.3389L667.342 29.4724Z" fill="#172B2A"/>
<path d="M706.211 90.1384L707.06 99.1164L701.079 103.383L685.28 106.802L676.294 108.935L672.027 107.651L673.312 92.7001L682.711 89.2896L706.211 90.1384Z" fill="#CEAD97"/>
<path d="M658.782 52.116L665.618 55.9626L665.19 60.6579L666.895 66.646L674.176 69.2078L679.72 68.3434L683.146 71.7618L680.997 73.4749L677.158 71.3335H667.339L662.628 67.9229L658.353 59.8014L655.371 55.9626L658.782 52.116Z" fill="#172B2A"/>
<path d="M688.693 76.4649L677.582 79.0345L666.47 80.7399L657.936 81.5964L648.537 75.1879L644.255 65.3534L645.119 56.391L646.396 48.7055L639.995 46.5641L637.426 44.4229V46.5641L640.416 49.9824L641.685 54.6779L639.995 64.5046L641.685 73.4749L648.966 82.4451L657.072 85.0147L664.773 84.5787L673.315 82.8812L689.122 77.7498L688.693 76.4649Z" fill="#6D5652"/>
<path d="M663.477 114.067L659.217 102.955L657.932 96.5545L645.116 93.5644L631.45 89.71L626.747 78.5984L625.898 70.4848L626.326 59.3732C626.326 59.3732 625.034 53.3853 623.757 52.9804C622.48 52.5443 616.064 49.5542 616.064 49.5542L615.215 52.9804L620.767 56.3909L622.48 63.648L622.892 73.4749L624.177 83.7221L628.88 92.2796C628.88 92.2796 634.44 97.4033 635.717 97.4033C636.994 97.4033 649.803 100.393 649.803 100.393L655.783 105.096L659.217 114.495L663.477 114.067Z" fill="#6D5652"/>
<path d="M634.433 108.079L622.473 103.383L618.198 95.6903L616.493 87.5765L613.074 86.72L615.644 96.1185C615.644 96.1185 619.047 102.955 619.911 104.24C620.76 105.525 626.319 108.515 626.319 108.515L634.005 111.505L634.433 108.079Z" fill="#6D5652"/>
<path d="M617.77 43.1379L626.74 37.15L630.158 28.1954L635.274 19.2251L639.557 19.6534L637.851 26.054C637.851 26.054 633.14 33.7473 632.292 35.4604C631.443 37.1578 626.319 43.574 625.027 43.574C623.75 43.574 619.047 45.2793 619.047 45.2793L617.77 43.1379Z" fill="#172B2A"/>
<path d="M642.984 29.9006L648.964 23.5001L657.506 20.4944L656.221 24.7692L647.672 30.3367L639.994 38.8786H636.996L642.984 29.9006Z" fill="#172B2A"/>
<path d="M678.016 30.7495L682.291 28.1331L690.833 32.0421L691.386 34.8374L689.969 35.0243L679.714 34.596L671.18 31.6137L678.016 30.7495Z" fill="#172B2A"/>
<path d="M580.177 212.335C580.177 212.335 582.31 205.926 582.31 204.649C582.31 203.364 584.872 187.121 584.872 187.121L581.025 173.028L573.76 159.775C573.76 159.775 568.629 143.119 568.201 141.834C567.78 140.557 566.059 121.76 566.059 118.754C566.059 115.772 568.201 102.107 568.201 102.107L565.631 90.9872L561.364 78.1704L559.238 78.5986L564.354 95.2699C564.354 95.2699 563.513 111.077 563.077 112.362C562.657 113.639 560.515 135.426 560.515 135.426L564.354 153.374L575.466 175.597L577.171 187.986C577.171 187.986 576.315 202.944 576.315 204.657C576.315 206.362 575.466 215.761 575.466 215.761L581.874 222.169L586.577 224.303V221.733L580.177 212.335Z" fill="#172B2A"/>
<path d="M549.42 267.854L545.146 273.421L534.042 267.013L522.074 249.921L514.816 229.411L511.834 210.193C511.834 210.193 511.834 206.775 511.834 202.928C511.834 198.358 511.834 193.164 511.834 192.253C511.834 190.524 510.97 178.564 510.97 178.564L510.129 170.014H511.842L513.111 183.267L516.529 218.72L522.946 236.676L532.772 254.188L537.476 264.871L549.42 267.854Z" fill="#172B2A"/>
<path d="M495.582 233.693C495.582 234.978 497.287 246.939 497.287 246.939C497.287 246.939 498.993 253.767 500.285 254.616C501.57 255.481 504.552 261.461 504.552 261.461L503.704 266.577L496.867 254.616C496.867 254.616 490.895 246.067 490.895 244.369C490.895 242.664 492.179 232.409 492.179 232.409L495.582 233.693Z" fill="#172B2A"/>
<path d="M440.468 161.908L445.591 165.319C445.591 165.319 447.304 189.683 447.304 190.968C447.304 192.253 446.448 206.767 446.448 208.472C446.448 210.193 445.591 218.72 446.876 220.869C448.153 223.01 451.564 231.98 452 234.106C452.428 236.248 455.41 247.787 455.41 247.787L452.856 249.072L448.574 235.391L440.888 221.718C440.888 221.718 439.603 206.331 438.755 202.928C437.89 199.51 433.631 175.574 434.044 172.591C434.488 169.601 440.468 161.908 440.468 161.908Z" fill="#172B2A"/>
<path d="M184.13 140.985C184.13 140.985 181.568 151.661 181.132 153.81C180.712 155.936 176.001 168.753 176.001 168.753C176.001 168.753 172.59 173.448 170.893 174.733C169.18 176.01 164.484 176.866 164.484 176.866C164.484 176.866 167.467 171.314 168.331 170.022C169.18 168.753 175.596 160.631 175.596 158.926C175.596 157.205 177.722 147.394 177.722 147.394L178.57 140.549L184.13 140.985Z" fill="#172B2A"/>
<path d="M499.435 76.0367L499.785 75.9121L493.011 109.364V131.999L497.714 152.081L500.284 167.039L502.846 175.161L504.979 182.418V193.95V202.492L501.997 204.213L501.14 192.673L497.286 173.868L489.6 151.661L486.182 128.153L485.746 96.5546L486.252 83.7456L489.172 83.7222L499.435 76.0367Z" fill="#172B2A"/>
<path d="M466.528 104.66L469.955 123.457C469.955 123.457 472.088 149.527 472.088 150.804C472.088 152.081 472.501 168.316 472.501 168.316L475.919 184.131C475.919 184.131 480.202 193.094 480.63 194.378C481.05 195.655 484.897 203.777 484.897 205.054C484.897 206.331 484.469 213.611 484.469 213.611L481.487 214.46L479.766 203.777L472.929 181.133C472.929 181.133 468.241 162.765 467.813 160.195C467.385 157.625 461.397 134.569 461.397 131.151C461.397 127.732 460.977 100.814 460.977 99.529C460.977 98.6569 463.188 89.5154 464.582 83.8779L471.395 83.8311L466.528 104.66Z" fill="#172B2A"/>
<path d="M434.901 137.575C434.901 138.852 431.498 150.804 431.498 150.804L428.08 150.376C428.08 150.376 428.5 133.713 428.08 130.302C427.659 126.884 423.385 108.507 422.949 105.517C422.583 102.979 424.693 88.4487 425.331 84.1193L438.522 84.0415L435.353 101.67C435.353 101.67 435.353 114.908 435.353 116.621C435.353 118.342 434.901 136.282 434.901 137.575Z" fill="#172B2A"/>
<path d="M406.291 96.9749C406.291 96.9749 399.462 125.163 399.462 126.447C399.462 127.732 399.883 140.549 399.883 141.834C399.883 143.119 401.168 152.081 401.168 154.643C401.168 157.213 400.311 173.448 400.311 173.448L394.323 189.263L391.333 198.653L389.207 196.94L390.92 182.418C390.92 182.418 388.779 164.049 387.494 161.059C386.209 158.069 386.646 123.893 386.646 123.893L389.643 90.5665L391.372 84.9912L408.604 84.4929L406.291 96.9749Z" fill="#172B2A"/>
<path d="M360.578 100.814L363.28 85.7856L376.074 85.4197L371.69 95.2542C371.69 95.2542 368.7 111.925 368.7 114.059C368.7 116.193 369.112 130.294 369.112 132.436C369.112 134.569 369.112 144.388 369.112 144.388L365.266 154.635L361.855 151.653C361.855 151.653 363.561 140.541 363.561 138.836C363.561 137.123 363.981 124.735 363.561 122.173C363.148 119.611 360.578 100.814 360.578 100.814Z" fill="#172B2A"/>
<path d="M304.803 88.2073L302.903 102.527C302.903 102.527 298.216 114.48 297.351 116.2C296.51 117.913 294.782 126.448 294.782 128.153C294.782 129.874 296.059 137.987 296.059 137.987H292.64C292.64 137.987 291.363 123.465 291.363 120.483C291.363 117.47 299.485 99.1165 299.485 95.6903C299.485 94.242 299.018 90.7614 298.496 87.2029L304.803 88.2073Z" fill="#172B2A"/>
<path d="M308.026 152.938C309.311 148.671 314.87 132.864 316.576 128.153C318.281 123.457 326.403 100.814 326.839 98.252C327.01 97.1774 327.259 92.6689 327.5 87.7789L340.652 87.0159L334.945 108.499C334.945 108.499 330.677 122.173 329.821 125.163C328.957 128.153 321.699 142.683 319.986 146.101C318.281 149.519 312.729 161.051 311.024 162.765C309.311 164.485 302.466 173.02 302.466 175.581C302.466 178.151 301.182 185.844 301.182 185.844L298.199 185.393C298.199 185.393 301.182 170.014 301.618 168.745C302.038 167.468 306.741 157.213 308.026 152.938Z" fill="#172B2A"/>
<path d="M515.234 70.485L519.12 69.2546L518.224 73.4751L516.091 93.1208L521.214 118.754L523.348 125.163L524.633 143.532H522.491C522.491 143.532 522.063 134.99 522.063 132.856C522.063 130.723 521.214 126.027 520.786 124.735C520.35 123.458 515.226 109.792 515.226 109.792L513.957 100.814L515.226 82.017L514.962 70.5706L515.234 70.485Z" fill="#172B2A"/>
<path d="M566.074 245.661L564.369 237.961C564.369 237.961 551.567 226 549.846 224.723C548.149 223.438 542.589 210.621 542.589 210.621C542.589 210.621 540.027 190.976 539.591 188.398C539.163 185.844 535.745 167.46 535.745 166.175C535.745 164.898 534.896 150.376 534.896 150.376L530.193 139.272L525.918 128.145C525.918 128.145 528.908 98.6725 528.908 97.3955C528.908 96.1107 531.462 80.7321 531.462 79.4473C531.462 78.1625 533.603 67.4792 533.603 67.4792V64.6837L538.151 63.2432L538.307 65.3456L534.452 80.3115C534.452 80.3115 530.605 105.945 530.605 107.222C530.605 108.507 530.185 123.894 530.185 123.894L538.299 142.254L538.727 160.623L541.717 187.542L547.261 212.327L558.373 222.566L567.771 228.126L569.897 242.656V252.062L567.771 250.333L566.074 245.661Z" fill="#172B2A"/>
<path d="M546.42 72.198L543.858 90.5667L545.572 102.955L543.438 107.23L541.297 96.5546L540.02 77.7498L543.897 61.4368L548.959 59.8328L546.42 72.198Z" fill="#172B2A"/>
<path d="M622.474 139.28L632.722 143.119L635.322 146.093L633.438 152.681L631.445 149.091L622.046 141.834L617.343 134.997L614.781 127.732L617.343 129.438L622.474 139.28Z" fill="#6D5652"/>
<path d="M587.433 65.7818L590.852 69.2001L592.144 88.4332L594.698 106.374C594.698 106.374 599.394 120.483 600.678 122.181C601.963 123.894 613.495 137.98 613.495 137.98L621.181 150.797L623.314 164.034L624.654 172.755L619.343 179.311L613.051 170.442C613.051 170.442 608.364 152.922 607.928 150.368C607.5 147.799 601.099 131.564 601.099 131.564C601.099 131.564 591.693 120.031 591.264 118.747C590.844 117.462 590.844 101.227 590.416 99.101C589.995 96.9674 588.29 74.7442 588.29 74.7442L586.156 65.7739H587.433V65.7818Z" fill="#172B2A"/>
<path d="M497.286 301.188L507.985 305.471L511.823 314.869L510.118 318.716L507.549 314.433L501.997 308.032L493.875 306.319L491.508 306.125L490.41 294.079L497.286 301.188Z" fill="#172B2A"/>
<path d="M492.102 336.703L492.421 324.93L502.419 327.671L510.12 335.8L514.815 340.495V343.485L506.266 338.79L492.102 336.703Z" fill="#172B2A"/>
<path d="M252.07 202.492C252.07 202.492 253.34 196.099 253.768 193.538C254.196 190.976 254.617 181.577 254.617 179.42C254.617 177.295 255.901 164.478 255.473 162.344C255.045 160.211 254.196 140.978 254.196 138.844C254.196 136.718 257.614 125.171 258.043 123.053C258.455 120.904 262.738 110.649 263.166 108.943C263.587 107.23 269.147 85.443 269.147 85.443L269.684 82.6555L281.2 84.4697C279.004 92.1006 274.496 107.666 273.842 108.943C273.001 110.649 262.738 121.76 262.318 124.742C261.874 127.74 257.614 145.681 258.043 151.233C258.455 156.792 257.614 171.307 258.891 174.733C260.176 178.151 259.748 186.257 258.891 189.691C258.043 193.109 254.617 202.087 254.617 202.087L252.07 202.492Z" fill="#172B2A"/>
<path d="M225.572 102.106C225.144 103.383 217.022 129.866 217.022 133.284C217.022 136.703 217.879 164.042 217.879 166.611C217.879 169.173 217.022 184.131 217.022 186.685C217.022 189.255 215.309 205.918 215.309 205.918L212.327 214.032L209.329 209.757L211.899 189.255C211.899 189.255 209.765 166.611 209.765 165.319C209.765 164.042 208.48 134.141 208.48 131.571C208.48 129.025 212.755 108.079 213.184 105.517C213.565 103.267 219.53 87.818 220.978 84.1037L233.328 81.6743C230.392 89.3753 225.86 101.234 225.572 102.106Z" fill="#172B2A"/>
<path d="M286.674 173.868L287.944 160.203L291.362 161.908C291.362 161.908 288.8 181.141 288.38 182.418C287.944 183.703 281.963 199.51 281.535 201.215C281.107 202.936 281.551 217.458 281.963 218.727C282.392 220.02 283.248 230.259 283.677 233.693C284.097 237.119 294.36 251.205 293.503 255.473C293.262 256.679 293.021 258.097 292.803 259.498L282.586 254.491C281.084 251.252 279.394 247.296 279.394 245.661C279.394 242.663 273.422 214.888 273.422 212.755C273.422 210.621 273.001 188.834 273.842 187.113C274.699 185.4 286.674 173.868 286.674 173.868Z" fill="#172B2A"/>
<path d="M240.522 236.255C241.799 241.371 247.787 251.634 249.064 255.044C249.188 255.371 249.266 255.784 249.344 256.228C246.416 259.031 243.037 262.302 240.335 264.972L237.103 255.044L232.4 232.408C232.4 232.408 229.418 212.763 229.418 211.042C229.418 209.337 230.703 194.814 231.123 190.532C231.544 186.257 238.388 165.326 238.388 165.326L238.824 155.515L242.663 156.792C242.663 156.792 238.824 173.027 238.824 174.733C238.824 176.446 236.691 187.978 236.691 192.673C236.691 197.384 234.978 207.211 236.691 214.04C238.388 220.869 239.237 231.116 240.522 236.255Z" fill="#172B2A"/>
<path d="M193.521 233.693C193.521 231.552 192.252 218.299 192.252 215.745C192.252 213.176 190.539 201.215 190.539 201.215L192.252 198.233L195.227 204.634C195.227 204.634 198.653 220.441 198.653 222.154C198.653 223.859 199.93 242.664 201.215 246.939C202.499 251.206 211.47 270.431 212.747 274.698C213.626 277.673 215.76 283.933 216.983 288.348C214.857 290.443 212.739 292.506 210.769 294.445C210.559 291.26 210.216 287.585 209.757 286.658C208.9 284.945 200.778 261.461 199.494 259.319C198.224 257.17 193.521 235.819 193.521 233.693Z" fill="#172B2A"/>
<path d="M175.153 319.137C175.153 319.137 178.571 296.057 178.571 294.359C178.571 292.638 179 271.287 179 269.146C179 267.02 178.135 252.483 177.715 250.785C177.294 249.08 178.564 243.1 178.564 243.1L181.141 249.5L183.703 264.03C183.703 264.03 184.123 275.57 184.544 280.694C184.972 285.817 185.4 299.07 185.4 305.035C185.4 308.726 184.77 313.857 184.154 318.163L174.195 326.448C174.686 322.617 175.153 319.137 175.153 319.137Z" fill="#172B2A"/>
<path d="M135.863 315.29L139.281 316.575C139.281 316.575 152.09 325.966 153.375 327.671C154.341 328.979 158.024 334.959 159.932 338.315L156.801 340.924L155.337 342.255L152.534 337.077L140.13 322.555L134.578 318.716L135.863 315.29Z" fill="#172B2A"/>
<path d="M119.191 355.025L131.579 351.179L134.997 356.739C134.997 356.739 119.183 363.575 115.764 364.003C114.191 364.198 109.504 364.673 104.746 364.992L101.297 351.459L119.191 355.025Z" fill="#172B2A"/>
<path d="M154.651 415.263L159.471 412.864L174.718 417.217L173.223 417.817L153.367 424.241L136.703 422.948L143.112 418.463L154.651 415.263Z" fill="#F4852A"/>
<path d="M136.475 278L143.545 276.839L156.791 272.136L164.048 267.441L165.333 270.431C165.333 270.431 161.914 276.839 155.506 280.266C151.021 282.656 137.347 288.582 128.961 291.946L136.475 278Z" fill="#172B2A"/>
<path d="M171.743 225.572C170.466 229.411 166.619 236.255 161.052 240.53C155.508 244.805 147.814 249.492 146.537 250.349C146.21 250.567 145.12 250.886 143.68 251.26L147.082 237.501L152.938 234.978C152.938 234.978 167.04 223.002 167.476 220.869C167.896 218.728 171.743 210.622 173.028 207.624C174.312 204.634 180.713 197.805 180.713 197.805H184.56C184.56 197.805 179.008 207.203 178.579 208.908C178.143 210.622 173.028 221.725 171.743 225.572Z" fill="#172B2A"/>
<path d="M638.943 25.5947L633.344 36.0911L627.761 47.5997L615.466 46.5641L609.875 34.526L615.466 22.994L623.852 19.8325L638.943 25.5947Z" fill="#F4852A"/>
<path d="M629.109 27.9697L636.008 31.0922L633.345 36.0912L629.023 44.9991L618.005 39.494L617.148 33.9421L623.557 28.3825L629.109 27.9697Z" fill="#C94A03"/>
<path d="M514.168 427.441L514.814 421.663L527.623 417.186L535.605 412.927L535.745 413.558L549.418 419.53L554.822 424.405L533.385 428.088L514.168 427.441Z" fill="#F4852A"/>
<path d="M413.559 221.725C413.559 220.448 413.559 202.936 413.559 199.938C413.559 196.941 416.549 179.008 416.549 179.008L419.104 164.05L418.255 152.525L421.237 154.643L420.817 162.773C420.817 162.773 422.101 175.589 422.101 177.731C422.101 179.857 420.396 196.528 420.817 199.082C421.245 201.652 425.527 221.305 425.527 225.572C425.527 229.855 428.93 241.387 428.93 243.092C428.93 244.79 439.185 253.339 440.898 254.616C442.604 255.893 454.144 262.738 454.144 262.738L455.607 265.837L447.315 264.023L428.603 267.753L420.396 256.329C420.396 256.329 413.988 247.359 413.567 246.074C413.131 244.797 411.426 235.391 411.426 233.25C411.418 231.132 413.559 223.018 413.559 221.725Z" fill="#172B2A"/>
<path d="M420.396 256.337C420.396 256.337 413.988 247.367 413.567 246.082C413.131 244.805 411.426 235.398 411.426 233.257C411.426 231.131 413.567 223.025 413.567 221.733C413.567 220.993 413.567 214.818 413.567 209.173L423.394 211.968C424.484 217.653 425.535 223.485 425.535 225.579C425.535 229.862 428.938 241.394 428.938 243.099C428.938 244.797 439.193 253.347 440.906 254.624C442.611 255.901 454.151 262.745 454.151 262.745L455.615 265.844L447.322 264.03L428.611 267.76L420.396 256.337Z" fill="#261C1B"/>
<path d="M420.392 256.337C420.392 256.337 417.052 251.657 415.035 248.574L432.392 247.258C435.522 250.263 439.844 253.837 440.903 254.616C442.608 255.893 454.148 262.738 454.148 262.738L455.611 265.837L447.319 264.022L428.607 267.752L420.392 256.337Z" fill="#6D5652"/>
<path d="M365.271 184.552C365.271 183.275 363.566 167.468 363.566 167.468L366.556 168.316C366.556 168.316 368.697 181.133 368.697 182.418C368.697 183.703 368.261 198.653 368.261 201.215C368.261 203.785 365.7 223.018 365.271 225.136C364.851 227.269 372.536 244.797 374.249 247.787C375.963 250.77 385.774 262.737 387.066 264.443C387.861 265.494 392.626 270.384 396.231 274.332L372.63 279.16C372.272 278.622 371.945 278.116 371.688 277.696C369.546 274.27 363.987 263.166 362.274 258.891C360.576 254.616 357.594 243.505 357.594 237.112C357.594 230.696 360.148 213.604 360.996 208.908C361.861 204.213 365.271 185.844 365.271 184.552Z" fill="#172B2A"/>
<path d="M368.261 201.215C368.261 203.785 365.7 223.018 365.271 225.136C364.851 227.269 372.536 244.797 374.249 247.787C375.963 250.77 385.774 262.737 387.066 264.443C387.861 265.494 392.626 270.384 396.231 274.332L372.63 279.16C372.272 278.622 371.945 278.116 371.688 277.696C369.546 274.27 363.987 263.166 362.274 258.891C360.576 254.616 357.594 243.505 357.594 237.112C357.594 230.695 360.148 213.604 360.996 208.908C361.308 207.219 361.947 203.754 362.647 199.969L368.285 199.813C368.269 200.421 368.261 200.919 368.261 201.215Z" fill="#261C1B"/>
<path d="M360.117 252.078L363.567 252.482L376.843 251.478C380.394 256.181 386.101 263.173 387.067 264.443C387.861 265.494 392.627 270.384 396.232 274.332L372.63 279.16C372.272 278.622 371.945 278.116 371.688 277.696C369.547 274.27 363.987 263.166 362.274 258.891C361.659 257.349 360.872 254.881 360.117 252.078Z" fill="#6D5652"/>
<path d="M440.461 216.835L446.293 218.51C446.402 219.537 446.574 220.378 446.877 220.877C448.154 223.018 451.565 231.988 452.001 234.114C452.429 236.255 455.411 247.795 455.411 247.795L452.857 249.08L448.575 235.399L440.889 221.725C440.905 221.725 440.733 219.646 440.461 216.835Z" fill="#261C1B"/>
<path d="M336.642 195.663C336.642 195.663 329.813 210.621 329.393 212.334C328.956 214.04 324.689 226 324.261 229.854C323.833 233.693 327.251 244.805 328.956 248.644C330.662 252.482 337.514 262.309 338.363 264.03C339.204 265.735 339.204 270.018 339.204 270.018L337.506 270.439C337.506 270.439 331.518 262.317 330.241 260.199C328.949 258.058 321.255 248.659 319.558 246.954C317.845 245.233 312.285 234.994 312.285 232.424C312.285 229.87 317.417 218.743 317.417 218.743C317.417 218.743 326.395 208.075 327.672 206.354C328.956 204.649 334.944 191.404 334.944 191.404L336.642 195.663Z" fill="#172B2A"/>
<path d="M327.679 206.339C328.162 205.692 329.338 203.388 330.592 200.787L334.384 200.686C332.344 205.194 329.657 211.26 329.4 212.327C328.964 214.032 324.697 225.992 324.269 229.847C323.841 233.686 327.259 244.797 328.964 248.636C330.669 252.475 337.522 262.301 338.371 264.022C339.211 265.728 339.211 270.01 339.211 270.01L337.514 270.431C337.514 270.431 331.526 262.309 330.249 260.191C328.956 258.05 321.263 248.651 319.566 246.946C317.853 245.225 312.293 234.986 312.293 232.416C312.293 229.862 317.424 218.735 317.424 218.735C317.424 218.735 326.395 208.06 327.679 206.339Z" fill="#261C1B"/>
<path d="M328.838 248.356C328.884 248.449 328.923 248.558 328.962 248.644C330.667 252.483 337.52 262.31 338.368 264.03C339.209 265.736 339.209 270.018 339.209 270.018L337.512 270.439C337.512 270.439 331.524 262.317 330.247 260.199C329.024 258.175 322.102 249.664 319.898 247.312L328.838 248.356Z" fill="#6D5652"/>
<path d="M511.824 204.875L514.9 202.087L516.504 218.735L522.92 236.691L532.747 254.204L537.45 264.887L549.41 267.869L545.136 273.437L534.032 267.028L522.064 249.937L514.806 229.426L511.824 210.209C511.824 210.193 511.824 207.857 511.824 204.875Z" fill="#261C1B"/>
<path d="M538.705 159.572L538.736 160.631L541.726 187.55L547.27 212.335L558.382 222.574L567.78 228.134L569.906 242.664V252.07L567.78 250.342L566.067 245.654L564.362 237.953C564.362 237.953 551.561 225.993 549.84 224.716C548.142 223.431 542.583 210.614 542.583 210.614C542.583 210.614 540.021 190.968 539.585 188.391C539.157 185.837 535.738 167.452 535.738 166.168C535.738 166.152 535.738 166.113 535.738 166.082L538.705 159.572Z" fill="#261C1B"/>
<path d="M566.074 245.661L564.369 237.961C564.369 237.961 561.168 234.986 557.766 231.84L559.463 223.22L567.787 228.141L569.913 242.671V252.078L567.787 250.349L566.074 245.661Z" fill="#6D5652"/>
<path d="M568.209 141.834C568.637 143.119 573.769 159.774 573.769 159.774L581.034 173.027L584.88 187.121C584.88 187.121 582.318 203.364 582.318 204.649C582.318 205.926 580.185 212.334 580.185 212.334L586.593 221.725V224.295L581.89 222.161L575.482 215.753C575.482 215.753 576.33 206.354 576.33 204.649C576.33 202.936 577.187 187.978 577.187 187.978L575.482 175.589L564.37 153.366L560.531 135.418C560.531 135.418 560.609 134.655 560.726 133.417L566.745 128.129C567.259 134.242 567.96 141.079 568.209 141.834Z" fill="#261C1B"/>
<path d="M582.59 178.758L584.871 187.113C584.871 187.113 582.309 203.356 582.309 204.641C582.309 205.918 580.176 212.327 580.176 212.327L586.584 221.717V224.287L581.881 222.153L575.473 215.745C575.473 215.745 576.321 206.346 576.321 204.641C576.321 202.928 577.178 187.97 577.178 187.97L576.594 183.687L582.59 178.758Z" fill="#6D5652"/>
<path d="M590.586 100.814L593.405 97.3645L594.697 106.374C594.697 106.374 599.393 120.483 600.677 122.181C601.962 123.894 613.494 137.98 613.494 137.98L621.18 150.797L623.313 164.034L624.653 172.755L619.342 179.311L613.051 170.442C613.051 170.442 608.363 152.922 607.927 150.368C607.499 147.799 601.098 131.564 601.098 131.564C601.098 131.564 591.692 120.032 591.263 118.747C590.921 117.664 590.851 105.587 590.586 100.814Z" fill="#261C1B"/>
<path d="M592.144 88.4409L592.393 90.1773L589.022 83.9324C588.625 78.9801 588.298 74.7597 588.298 74.7597L586.164 65.7896H587.441L590.859 69.2079L592.144 88.4409Z" fill="#261C1B"/>
<path d="M607.109 147.573L614.156 139.093L621.18 150.805L623.313 164.042L624.653 172.763L619.342 179.319L613.051 170.45C613.051 170.45 608.363 152.93 607.927 150.376C607.857 149.893 607.553 148.866 607.109 147.573Z" fill="#6D5652"/>
<path d="M672.457 110.64L673.321 108.079L679.309 107.65L689.12 108.935L703.222 111.077L712.122 111.715L710.238 113.475L707.933 113.21L699.383 112.361L690.398 110.64H683.569L675.019 112.361L672.457 110.64Z" fill="#172B2A"/>
</svg>
