<svg width="30" height="22" viewBox="0 0 30 22" fill="none" xmlns="http://www.w3.org/2000/svg">
<g clip-path="url(#clip0_896_510)">
<path d="M14.4855 20.9912V19.269M17.0165 20.638V18.9158M11.9545 20.6827V18.9605M19.5424 17.7904H20.4449C21.9091 17.7904 23.096 16.6058 23.096 15.1445C23.096 14.4531 22.8299 13.8238 22.3949 13.3524V8.80383C22.3949 4.43201 18.8439 0.887939 14.4636 0.887939H14.4636C10.0832 0.887939 6.53229 4.43201 6.53229 8.80383V13.4016C6.12337 13.8672 5.875 14.4767 5.875 15.1444C5.875 16.6058 7.06194 17.7904 8.52606 17.7904H9.42856V19.9036C12.6067 21.5143 16.3642 21.5143 19.5424 19.9036L19.5424 17.7904Z" stroke="#244A65" stroke-width="1.2" stroke-miterlimit="10" stroke-linecap="round" stroke-linejoin="round"/>
<path d="M13.3761 15.4385L14.4849 14.3318L15.5938 15.4385M19.3195 9.68896L16.7971 12.2064M19.3195 12.2064L16.7971 9.68896M12.1728 9.68896L9.65039 12.2064M12.1728 12.2064L9.65039 9.68896" stroke="#244A65" stroke-width="1.2" stroke-miterlimit="10" stroke-linecap="round" stroke-linejoin="round"/>
</g>
<defs>
<clipPath id="clip0_896_510">
<rect width="19" height="22" fill="white" transform="translate(5)"/>
</clipPath>
</defs>
</svg>
