<svg width="424" height="297" viewBox="0 0 424 297" fill="none" xmlns="http://www.w3.org/2000/svg">
<path d="M420.929 260.183C426.651 257.491 421.843 254.141 416.787 252.13C409.702 249.313 400.319 247.956 391.284 246.887C385.382 246.192 379.384 245.685 373.385 245.19C367.412 244.695 361.406 244.162 355.301 244.203C352.571 244.221 349.887 244.391 347.15 244.366C345.548 244.351 343.507 244.384 342.608 243.7C342.028 243.256 342.105 242.668 341.728 242.188C341.04 241.319 339.199 240.89 337.435 240.509C334.58 239.888 331.643 239.381 328.577 239.004C322.582 238.268 316.717 237.37 310.663 236.719C304.613 236.068 298.485 235.599 292.32 235.218C279.901 234.453 267.331 233.917 254.831 233.495C242.183 233.066 229.546 232.907 216.865 233C211.384 233.037 205.903 233.103 200.441 233.218C194.701 232.903 188.962 232.615 183.148 232.519C172.124 232.334 161.088 232.641 150.112 233.059C140.056 233.439 129.768 233.965 119.931 234.989C116.11 235.388 111.798 235.865 108.588 236.919C105.822 237.828 104.779 238.768 106.477 239.995C82.7598 240.406 58.3256 241.84 36.066 245.615C25.8182 247.353 15.7664 249.745 7.92983 253.195C1.61695 255.976 -3.9119 260.49 3.67686 263.844C7.33441 265.459 13.0186 266.155 17.8744 266.698C23.7731 267.364 29.9676 267.682 36.0216 267.915C47.3862 268.355 58.8137 268.181 70.1969 267.944C67.6488 268.288 65.1858 268.732 62.83 269.316C59.9084 270.041 55.6333 271.29 54.5164 272.784C53.3034 274.404 57.0053 275.535 59.816 276.208C64.0319 277.225 68.8618 277.89 73.4513 278.482C83.9617 279.831 94.7088 280.168 105.541 280.612C115.748 281.029 126.011 281.281 136.251 281C130.049 282.224 125.208 285.056 129.221 288.021C131.624 289.796 136.502 290.831 140.593 291.663C146.07 292.776 151.869 293.63 157.638 294.41C163.488 295.205 169.59 295.631 175.648 295.971C181.558 296.3 187.52 296.599 193.47 296.777C206.406 297.158 219.424 297.043 232.305 296.37C249.591 295.468 266.747 294.033 283.063 291.29C286.484 290.713 290.045 290.092 293.174 289.241C295.064 288.724 297.283 287.803 296.425 286.701C295.593 285.636 293.455 284.952 291.262 284.427C293.307 284.464 295.364 284.435 297.401 284.413C303.755 284.331 310.105 284.087 316.451 283.943C329.176 283.655 341.776 282.974 354.236 281.791C366.384 280.634 378.585 279.517 390.645 278.197C399.65 277.21 411.203 275.79 415.741 271.804C418.178 269.663 415.941 267.489 411.732 266.225C407.738 265.019 402.546 264.498 397.612 264.236C401.625 263.932 405.641 263.507 409.506 263.012C413.755 262.479 417.86 261.625 420.929 260.183Z" fill="#D6B177"/>
<path d="M74.8456 265.4C73.0593 265.33 71.2842 265.275 69.5164 265.267C62.6636 265.249 55.796 265.171 48.9654 264.543C45.918 264.262 42.8707 263.988 39.816 263.751C35.9661 263.452 32.1015 263.1 28.2997 262.409C25.2191 261.851 21.6983 261.189 19.0948 259.318C17.6229 258.26 16.5578 256.626 17.0127 254.752C17.4269 253.051 18.8248 251.775 20.2153 250.821C22.4934 249.265 25.0748 248.118 27.7523 247.205C20.4927 248.751 13.6251 250.696 7.92983 253.202C1.61695 255.983 -3.9119 260.497 3.67686 263.851C7.33441 265.467 13.0186 266.162 17.8744 266.705C23.7731 267.371 29.9676 267.689 36.0216 267.922C47.3049 268.358 58.651 268.192 69.9528 267.955C71.2583 266.731 73.0224 265.962 74.8456 265.4Z" fill="#D6B177"/>
<path d="M416.789 252.134C410.224 249.524 401.689 248.167 393.279 247.131C393.73 247.279 394.185 247.423 394.636 247.582C396.866 248.366 399.174 249.25 401.112 250.625C402.225 251.417 403.516 252.555 403.527 254.042C403.538 256.271 401.153 257.895 399.352 258.686C395.864 260.22 391.914 260.645 388.146 260.849C384.573 261.041 380.994 260.975 377.417 260.801C374.544 260.66 371.648 260.76 368.752 260.964C369.588 261.015 370.428 261.074 371.26 261.141C374.707 261.418 378.187 261.781 381.548 262.609C383.701 263.138 386.389 263.84 387.828 265.674C391.149 269.908 382.558 272.381 380.043 273.043C373.457 274.773 366.615 275.483 359.854 276.145C356.441 276.482 353.061 276.981 349.659 277.406C342.854 278.26 336.023 278.952 329.181 279.436C322.354 279.92 315.513 280.224 308.664 280.297C302.295 280.364 295.934 280.098 289.566 280.201C285.328 280.272 280.997 280.434 276.667 280.408C278.109 281.115 279.437 282.017 280.546 283.215C280.609 283.281 280.635 283.392 280.579 283.47C279.067 285.707 275.997 286.369 273.508 286.79C270.054 287.374 266.567 287.87 263.098 288.387C256.367 289.393 249.61 289.933 242.835 290.517C235.916 291.116 228.982 291.549 222.04 291.804C208.198 292.314 194.24 292.355 180.413 291.456C175.731 291.153 171.038 291.076 166.352 290.735C159.828 290.258 153.09 289.737 146.777 287.922C144.111 287.156 137.887 284.886 141.156 281.159C141.91 280.301 142.854 279.621 143.896 279.066C130.831 278.937 117.791 278.035 104.773 276.955C99.3809 276.511 93.9556 275.809 88.5451 275.624C85.5088 275.52 82.4726 275.461 79.4474 275.143C76.5554 274.84 73.1087 274.526 70.6198 272.873C68.9297 271.749 68.2418 269.608 69.8468 268.048C69.8653 268.029 69.8838 268.011 69.906 267.992C67.4615 268.329 65.0909 268.761 62.8239 269.323C59.9023 270.048 55.6271 271.298 54.5103 272.792C53.2973 274.411 56.9992 275.543 59.8098 276.215C64.0258 277.232 68.8557 277.898 73.4452 278.489C83.9556 279.839 94.7026 280.175 105.535 280.619C115.742 281.037 126.004 281.288 136.245 281.007C130.043 282.231 125.202 285.064 129.215 288.029C131.618 289.804 136.496 290.839 140.587 291.671C146.064 292.784 151.862 293.638 157.632 294.418C163.482 295.213 169.584 295.638 175.642 295.978C181.552 296.307 187.513 296.607 193.464 296.784C206.4 297.165 219.418 297.051 232.299 296.378C249.584 295.476 266.741 294.041 283.057 291.297C286.478 290.721 290.039 290.099 293.168 289.249C295.058 288.731 297.277 287.811 296.419 286.709C295.587 285.644 293.449 284.96 291.256 284.435C293.301 284.472 295.357 284.442 297.395 284.42C303.749 284.339 310.099 284.095 316.445 283.951C329.17 283.662 341.77 282.982 354.229 281.799C366.378 280.641 378.579 279.525 390.639 278.205C399.644 277.217 411.197 275.798 415.735 271.812C418.172 269.671 415.934 267.497 411.726 266.232C407.732 265.027 402.539 264.506 397.606 264.243C401.619 263.94 405.635 263.515 409.5 263.019C413.753 262.479 417.857 261.622 420.923 260.18C426.648 257.492 421.841 254.142 416.789 252.134Z" fill="#D6B177"/>
<path d="M291.53 242.787C293.586 242.483 295.761 242.498 297.809 242.946C296.412 242.162 294.903 241.592 293.346 241.2C290.602 240.513 287.787 240.235 284.973 240.047C282.059 239.851 279.141 239.577 276.219 239.529C272.806 239.474 269.281 239.592 265.942 240.339C264.688 240.62 263.312 241.315 261.996 241.16C261.123 241.06 260.916 240.69 260.42 239.999C259.577 238.819 257.769 238.335 256.497 237.776C254.984 237.115 253.431 236.523 251.855 236.024C248.749 235.033 245.554 234.323 242.306 233.957C238.187 233.495 234.056 233.521 229.947 233.898C225.931 234.756 222.114 236.342 218.956 238.775C218.812 238.886 218.586 238.701 218.645 238.534C220.335 233.791 209.47 236.963 207.495 237.529C207.303 237.584 207.181 237.377 207.258 237.218C208.19 235.233 205.979 234.541 204.418 234.308C202.88 234.083 201.289 234.072 199.74 234.201C197.255 234.408 194.925 235.384 192.606 236.231C191.252 236.723 189.877 237.163 188.494 237.566C187.931 237.732 187.502 237.68 186.985 237.403C184.289 235.946 181.726 234.549 178.723 233.798C172.891 232.345 167.073 232.744 161.153 233.077C157.036 233.31 151.09 233.155 148.623 237.155C148.575 237.233 148.475 237.281 148.383 237.251C146.145 236.497 143.656 236.209 141.308 236.416C138.871 236.627 136.104 237.422 135.128 239.917C135.08 240.032 134.939 240.132 134.817 240.043C132.735 238.534 130.243 237.821 127.687 237.714C125.883 237.64 123.922 237.647 122.177 238.157C121.456 238.368 119.799 238.915 118.516 239.666C117.905 241.807 119.385 243.881 121.508 245.027C121.729 245.145 121.57 245.456 121.349 245.412C115.786 244.343 109.803 244.787 104.329 246.188C100.087 247.275 95.2945 248.987 92.4395 252.503C96.208 251.102 99.7546 249.154 103.741 248.381C108.05 247.549 112.436 247.575 116.67 248.802C116.933 248.876 116.826 249.264 116.556 249.209C112.965 248.481 109.27 250.891 106.489 252.895C105.209 253.82 104.004 255.339 102.473 255.861C101.53 256.182 100.583 256.245 99.6066 256.415C98.4158 256.626 97.4543 257.066 96.5297 257.839C95.3537 258.826 94.2553 259.773 92.654 259.917C90.6717 260.091 88.7634 260.22 86.8552 260.837C83.6932 261.854 80.8307 263.54 78.2383 265.581C81.3226 264.213 85.0245 263.943 88.2679 264.08C90.3278 264.165 92.3692 264.435 94.2442 265.348C96.0416 266.221 97.5689 267.467 99.0556 268.776C99.3921 267.626 98.5083 266.609 97.6318 265.94C97.4765 265.822 97.5024 265.541 97.739 265.544C100.52 265.633 101.992 267.84 103.294 270.007C103.682 268.203 103.028 266.21 103.778 264.502C104.333 263.241 105.394 262.424 106.644 261.895C109.4 260.73 112.602 260.353 115.576 260.475C122.255 260.745 129.3 263.633 131.456 270.488C131.508 270.654 131.349 270.78 131.193 270.75C127.31 269.985 122.65 271.405 119.437 273.812C122.624 272.924 126.012 273.106 129.192 274.004C129.422 274.067 129.377 274.426 129.137 274.418C128.431 274.4 127.809 274.622 127.218 274.936C130.076 274.045 133.275 274.063 136.178 274.278C140.339 274.585 143.29 277.029 146.659 279.166C146.548 275.391 143.967 272.51 140.86 270.588C140.72 270.499 140.731 270.314 140.86 270.222C143.113 268.646 146.615 270.247 148.782 271.231C152.158 272.762 154.954 274.67 157.31 277.576C157.399 277.683 157.391 277.827 157.269 277.909C155.509 279.014 154.629 281.185 154.218 283.141C153.937 284.501 153.793 285.969 153.989 287.374C154.052 287.278 154.111 287.186 154.178 287.089C158.826 280.523 166.685 277.04 174.544 276.319C182.391 275.598 190.805 277.328 197.025 282.364C197.096 282.419 197.107 282.549 197.059 282.619C195.291 285.311 196.13 288.883 197.281 291.741C197.55 288.653 198.686 285.662 200.86 283.399C203.383 280.774 206.874 279.184 210.476 278.781C214.773 278.301 219.596 279.221 223.098 281.869C223.601 282.249 224.071 282.664 224.518 283.092C223.993 281.229 223.142 279.45 222.21 277.779C221.585 276.655 222.628 275.624 223.63 275.232C226.641 274.041 230.365 274.341 233.531 274.54C237.724 274.806 241.726 276.134 244.803 279.114C246.822 281.074 248.264 283.473 249.019 286.113C250.08 284.29 250.801 282.238 251.167 280.238C251.811 276.722 251.389 272.714 248.164 270.584C248.068 270.521 248.028 270.399 248.09 270.296C249.348 268.088 252.162 267.049 254.496 266.476C256.963 265.87 259.888 265.411 262.395 266.073C264.415 266.605 266.463 267.478 268.179 268.75C268.176 268.713 268.176 268.672 268.172 268.635C268.035 267.53 267.58 266.787 266.959 265.899C266.419 265.13 265.661 263.892 266.182 262.912C266.656 262.021 267.869 261.869 268.73 261.555C270.653 260.863 272.565 260.183 274.57 259.743C278.083 258.967 282.369 258.212 285.809 259.658C287.388 260.324 288.804 261.266 290.191 262.268C291.449 263.174 292.669 264.439 294.211 264.794C293.83 262.013 291.097 259.418 288.871 257.987C285.757 255.983 282.181 255.835 278.634 255.262C278.453 255.232 278.427 254.955 278.579 254.877C283.679 252.296 289.455 250.954 294.862 253.236C293.801 251.291 291.741 249.789 289.751 248.932C287.976 248.17 285.731 247.933 284.451 246.336C284.374 246.244 284.37 246.133 284.451 246.037C286.238 244.021 288.952 243.164 291.53 242.787Z" fill="#D6B177"/>
<path d="M282.956 242.743C276.517 240.236 268.843 242.258 262.697 244.75C257.383 246.906 252.523 250.467 250.167 255.828C250.06 256.076 250.101 256.216 250.197 256.29C248.836 257.91 247.897 259.795 247.678 261.755C247.579 262.616 248.655 261.836 248.762 261.367C249.809 256.701 254.228 252.552 259.032 252.031C259.354 251.997 259.753 251.236 259.298 251.269C256.772 251.465 254.069 252.722 251.898 254.574C254.727 249.949 259.132 247.268 264.206 245.268C269.712 243.098 276.68 241.548 282.453 243.63C282.834 243.771 283.407 242.92 282.956 242.743Z" fill="#715131"/>
<path d="M282.253 256.564C274.971 255.307 267.216 257.126 261.177 261.371C261.11 261.419 261.055 261.489 261.007 261.567C257.064 260.672 252.571 261.574 249.106 263.219C246.487 264.465 244.072 266.185 242.049 268.255C241.154 269.172 240.603 269.472 240.415 270.248C237.623 269.487 234.76 269.072 231.861 268.758C225.629 268.078 219.435 269.904 214.505 273.683C211.202 272.6 205.962 273.75 203.384 275.044C201.938 275.772 200.385 277.04 199.313 278.56C197.242 270.917 185.707 269.117 179.161 269.235C175.123 269.309 170.441 270.045 166.82 271.956C165.278 272.766 163.939 273.775 162.7 274.903C160.452 270.71 155.596 267.468 151.332 265.83C146.705 264.059 139.723 263.759 135.137 265.944C132.33 260.738 126.92 257.307 120.958 256.619C112.689 255.669 104.93 258.498 97.9664 262.742C94.9117 262.221 91.4132 262.495 88.7283 262.639C84.2719 262.883 79.283 265.053 75.3555 267.031C75.0929 267.164 74.9154 267.893 75.3444 267.697C83.5434 263.97 92.3747 262.935 101.154 264.902C101.48 264.976 102.108 264.266 101.739 264.04C100.873 263.519 99.8673 263.153 98.7948 262.909C105.422 259.3 112.63 257.015 120.267 257.832C127.382 258.594 132.623 263.286 135.796 269.468C135.977 269.823 136.483 269.213 136.398 268.936C136.158 268.159 135.859 267.416 135.518 266.699C140.023 264.99 146.269 265.652 150.629 267.065C155.533 268.651 158.351 272.363 161.798 275.772C160.052 277.503 158.488 279.44 156.857 281.344C156.339 281.947 156.938 282.391 157.46 281.832C159.143 280.028 160.733 278.116 162.523 276.438C162.737 276.501 163.003 276.205 163.077 275.942C164.013 275.11 165.001 274.338 166.099 273.687C169.76 271.505 174.446 270.973 178.621 270.758C185.903 270.389 194.96 272.77 198.699 279.566C198.122 280.679 197.83 281.88 198.029 283.086C198.122 283.666 198.91 282.949 198.884 282.564C198.592 278.508 203.066 276.353 206.21 275.484C209.176 274.663 212.549 274.715 215.533 275.454C215.899 275.547 216.498 274.84 216.147 274.548C215.896 274.338 215.603 274.167 215.296 274.012C219.871 271.165 224.749 269.919 230.226 269.997C235.1 270.063 245.455 271.187 247.068 276.959C247.268 277.673 248.155 276.782 248.122 276.316C247.959 274.064 245.415 272.004 243.425 271.235C242.715 270.958 241.994 270.725 241.273 270.507C241.476 269.756 242.689 268.777 243.107 268.37C245.012 266.514 247.486 265.175 249.875 264.062C253.873 262.203 260.019 261.925 263.795 264.484C264.346 264.928 265.404 263.571 264.845 263.193C263.924 262.572 262.922 262.125 261.868 261.807C266.787 258.793 272.541 257.392 278.288 257.518C281.032 257.577 283.799 258.316 286.376 259.208C286.913 259.392 290.208 260.08 290.278 260.616C290.334 261.06 290.881 260.764 291.032 260.557C292.571 258.446 283.233 256.734 282.253 256.564Z" fill="#715131"/>
<path d="M130.581 253.92C128.174 247.686 120.289 246.044 114.398 246.063C108.103 246.081 98.7948 247.357 93.8725 251.646C93.584 251.894 93.6986 252.378 94.0833 252.067C96.7423 249.915 100.943 249.006 104.209 248.274C107.042 247.638 110.012 247.331 112.904 247.161C119.15 246.795 126.716 248.614 129.638 254.748C129.893 255.288 130.755 254.371 130.581 253.92Z" fill="#715131"/>
<path d="M131.676 245.734C131.406 245.722 131.036 246.395 131.362 246.421C133.784 246.61 136.41 249.767 135.825 252.237C135.666 252.914 136.694 252.378 136.783 251.893C137.29 249.124 134.394 245.837 131.676 245.734Z" fill="#715131"/>
<path d="M278.648 255.269C278.534 255.25 278.489 255.14 278.508 255.036C271.699 254.511 264.695 256.108 258.463 258.837C258.334 258.892 258.123 258.833 258.145 258.656C258.438 256.127 260.557 254.378 262.661 253.221C263.626 252.688 264.636 252.23 265.664 251.834C262.709 252.744 259.88 254.06 256.932 255.058C256.803 255.103 256.662 254.984 256.666 254.855C256.729 251.043 259.828 248.192 262.805 246.255C265.775 244.317 269.055 242.864 272.409 241.714C263.977 241.548 255.205 245.696 249.21 251.413C249.088 251.535 248.918 251.464 248.859 251.32C247.739 248.662 245.989 246.273 243.467 244.794C243.034 244.539 242.583 244.306 242.128 244.077C238.408 242.672 234.388 242.287 230.32 243.053C224.732 244.103 219.599 246.68 214.739 249.545C214.573 249.641 214.392 249.483 214.429 249.305C214.717 248.033 214.824 245.9 213.489 245.123C212.258 244.406 210.83 244.624 209.684 245.408C207.761 246.724 206.3 248.917 205.542 251.106C205.486 251.261 205.235 251.342 205.157 251.157C202.983 246.251 195.697 247.782 192.391 250.566C192.261 250.677 192.017 250.618 192.028 250.414C192.724 240.472 175.845 237.115 173.43 247.09C173.393 247.249 173.193 247.29 173.079 247.183C169.865 244.092 164.706 244.935 162.849 249.039C162.79 249.168 162.613 249.161 162.517 249.083C154.71 242.258 141.965 244.484 136.866 253.476C136.758 253.661 136.477 253.576 136.47 253.369C136.444 251.793 135.86 249.205 133.955 248.869C131.803 248.488 132.006 251.62 132.243 252.888C132.28 253.099 132.054 253.232 131.888 253.091C129.895 251.39 127.79 249.726 125.383 248.643C123.093 247.615 120.686 247.179 118.208 247.209C119.954 247.981 121.655 248.932 123.134 250.133C124.732 251.427 126.267 253.099 126.333 255.262C126.341 255.435 126.152 255.506 126.015 255.443C120.434 252.973 113.574 253.043 108.079 255.742C105.889 256.818 103.755 258.153 101.984 259.835C101.204 260.575 100.39 261.44 99.8242 262.412C102.842 260.261 106.366 258.844 110.017 258.16C114.595 257.303 119.894 257.129 124.347 258.711C128.889 260.323 131.936 263.629 133.815 267.63C136.44 266.65 139.321 266.273 142.08 266.273C145.712 266.276 149.606 266.831 152.816 268.632C155.978 270.406 158.393 273.105 159.539 276.566C159.647 276.895 159.747 277.228 159.839 277.565C163.792 274.755 168.271 272.751 172.949 271.471C177.568 270.207 182.276 269.356 186.925 270.965C191.599 272.584 195.165 275.904 197.261 280.02C201.126 276.437 206.729 274.259 211.858 274.141C212.424 274.126 212.972 274.152 213.511 274.204C213.619 274.122 213.722 274.041 213.829 273.967C213.77 273.875 213.77 273.745 213.889 273.668C221.296 269.049 230.305 268.938 238.511 271.29C239.369 271.538 240.231 271.8 241.093 272.085C241.918 267.977 247.524 265.77 251.045 264.635C254.44 263.54 257.949 262.882 261.529 263.093C261.844 263.111 262.162 263.137 262.476 263.167C265.002 259.739 269.477 257.924 273.486 256.992C276.951 256.186 280.756 255.768 284.392 256.186C282.52 255.768 280.579 255.58 278.648 255.269Z" fill="#D6B177"/>
<path d="M355.681 251.143C355.163 250.718 354.601 250.293 353.958 250.093C352.138 249.527 350.367 248.814 348.525 248.315C339.683 245.907 330.089 246.318 321.014 245.697C315.681 245.334 310.378 244.961 305.064 244.706C299.945 244.713 294.823 244.735 289.72 244.709C283.558 244.676 277.39 244.595 271.243 244.987C265.622 245.342 259.701 245.896 254.35 247.756C251.31 248.814 248.163 250.563 245.799 252.763C245.555 252.992 245.237 253.284 244.941 253.617C245.086 254.009 245.352 254.401 245.785 254.785C248.658 257.377 253.359 257.662 257.035 258.006C266.484 258.893 275.907 258.275 285.345 257.469C294.686 256.671 303.865 256.571 313.233 257.018C313.521 257.033 313.529 257.344 313.396 257.543C312.405 259.03 310.522 259.725 308.961 260.464C307.245 261.274 305.437 261.988 303.862 263.056C303.211 263.496 301.713 264.506 303.015 265.334C303.507 265.648 304.024 265.881 304.568 266.088C307.697 267.275 311.328 267.501 314.642 267.626C317.974 267.752 321.295 267.767 324.62 267.541C331.787 267.061 338.758 266.092 345.792 264.654C347.538 264.299 349.335 263.94 351.01 263.311C351.317 263.197 355.611 261.537 354.194 260.383C353.692 259.976 353.129 259.666 352.508 259.47C349.379 258.49 345.737 258.486 342.49 258.464C341.972 258.46 342.401 257.688 342.7 257.614C346.58 256.656 350.507 255.924 354.25 254.515C355.744 253.949 357.349 252.518 355.681 251.143Z" fill="#D6B177"/>
<path d="M359.348 268.761C358.357 267.533 357.203 267.034 355.901 266.949C354.133 266.672 352.077 266.912 350.535 267.74C348.771 268.683 346.988 269.759 345.983 271.556C345.206 272.935 347.007 273.701 347.935 274.155C350.857 275.59 356.748 274.695 358.974 272.166C359.869 271.149 360.291 269.933 359.348 268.761Z" fill="#D6B177"/>
<path d="M355.161 269.6C354.65 268.961 354.047 268.702 353.371 268.661C352.453 268.517 351.385 268.639 350.582 269.072C349.665 269.563 348.74 270.122 348.215 271.057C347.812 271.775 348.751 272.17 349.229 272.407C350.749 273.154 353.811 272.688 354.965 271.375C355.43 270.843 355.649 270.21 355.161 269.6Z" fill="#D6B177"/>
<path d="M378.222 268.75C377.39 267.97 376.413 267.655 375.319 267.604C373.832 267.43 372.101 267.578 370.796 268.103C369.309 268.702 367.808 269.382 366.961 270.521C366.306 271.393 367.822 271.878 368.606 272.166C371.069 273.076 376.029 272.506 377.904 270.905C378.662 270.266 379.017 269.493 378.222 268.75Z" fill="#D6B177"/>
<path d="M374.699 269.283C374.266 268.88 373.763 268.713 373.19 268.687C372.417 268.595 371.519 268.676 370.842 268.946C370.073 269.257 369.289 269.612 368.848 270.203C368.508 270.658 369.3 270.91 369.703 271.058C370.986 271.531 373.564 271.235 374.54 270.407C374.925 270.07 375.11 269.667 374.699 269.283Z" fill="#D6B177"/>
<path d="M395.962 271.826C395.359 271.264 394.66 271.035 393.865 271.001C392.793 270.872 391.546 270.983 390.603 271.36C389.535 271.793 388.451 272.284 387.837 273.102C387.367 273.734 388.458 274.081 389.024 274.292C390.799 274.947 394.376 274.54 395.733 273.383C396.276 272.917 396.535 272.358 395.962 271.826Z" fill="#D6B177"/>
<path d="M384.005 267.216C383.691 266.92 383.321 266.802 382.91 266.783C382.348 266.717 381.694 266.772 381.202 266.972C380.64 267.197 380.074 267.456 379.756 267.885C379.508 268.214 380.081 268.399 380.377 268.506C381.309 268.85 383.18 268.636 383.887 268.029C384.172 267.785 384.305 267.493 384.005 267.216Z" fill="#D6B177"/>
<path d="M301.736 270.673C300.904 269.897 299.931 269.579 298.833 269.527C297.346 269.35 295.615 269.501 294.31 270.026C292.823 270.625 291.322 271.305 290.471 272.444C289.82 273.321 291.333 273.801 292.117 274.09C294.58 274.999 299.539 274.433 301.414 272.832C302.176 272.185 302.535 271.42 301.736 270.673Z" fill="#D6B177"/>
<path d="M298.207 271.206C297.774 270.803 297.268 270.636 296.698 270.61C295.922 270.518 295.027 270.596 294.35 270.869C293.577 271.18 292.797 271.535 292.357 272.126C292.016 272.581 292.804 272.833 293.211 272.98C294.49 273.454 297.068 273.158 298.044 272.326C298.436 271.993 298.621 271.594 298.207 271.206Z" fill="#D6B177"/>
<path d="M319.466 273.746C318.867 273.184 318.164 272.955 317.373 272.918C316.301 272.792 315.051 272.899 314.111 273.28C313.042 273.713 311.955 274.205 311.345 275.022C310.875 275.654 311.966 276.001 312.528 276.212C314.307 276.867 317.883 276.46 319.237 275.303C319.784 274.84 320.039 274.286 319.466 273.746Z" fill="#D6B177"/>
<path d="M307.517 269.135C307.202 268.843 306.836 268.725 306.422 268.703C305.86 268.636 305.209 268.696 304.713 268.892C304.155 269.117 303.585 269.376 303.267 269.805C303.02 270.134 303.596 270.315 303.889 270.426C304.817 270.77 306.692 270.555 307.402 269.949C307.683 269.709 307.816 269.42 307.517 269.135Z" fill="#D6B177"/>
<path d="M212.726 283.44C211.894 282.66 210.921 282.346 209.823 282.29C208.336 282.113 206.605 282.264 205.3 282.793C203.817 283.392 202.312 284.072 201.469 285.211C200.814 286.084 202.33 286.568 203.111 286.856C205.574 287.766 210.533 287.197 212.412 285.599C213.162 284.956 213.521 284.183 212.726 283.44Z" fill="#D6B177"/>
<path d="M209.199 283.972C208.766 283.565 208.26 283.403 207.69 283.373C206.914 283.281 206.019 283.362 205.334 283.632C204.565 283.946 203.785 284.297 203.345 284.889C203.005 285.344 203.792 285.595 204.199 285.743C205.482 286.216 208.06 285.921 209.033 285.089C209.428 284.76 209.613 284.36 209.199 283.972Z" fill="#D6B177"/>
<path d="M230.459 286.516C229.86 285.954 229.157 285.725 228.365 285.688C227.293 285.562 226.047 285.669 225.107 286.05C224.035 286.483 222.951 286.974 222.341 287.795C221.871 288.428 222.962 288.775 223.528 288.982C225.303 289.637 228.883 289.23 230.233 288.073C230.777 287.607 231.032 287.048 230.459 286.516Z" fill="#D6B177"/>
<path d="M218.509 281.902C218.195 281.61 217.825 281.491 217.41 281.469C216.852 281.403 216.198 281.462 215.702 281.658C215.14 281.883 214.574 282.142 214.256 282.571C214.008 282.9 214.581 283.085 214.873 283.192C215.805 283.536 217.677 283.322 218.383 282.719C218.672 282.475 218.805 282.183 218.509 281.902Z" fill="#D6B177"/>
<path d="M27.921 259.569C27.0852 258.789 26.1126 258.475 25.0179 258.423C23.5312 258.246 21.7968 258.397 20.495 258.922C19.0083 259.521 17.5068 260.201 16.6599 261.34C16.0053 262.217 17.5216 262.697 18.3019 262.986C20.7649 263.895 25.728 263.33 27.603 261.725C28.3574 261.085 28.7124 260.312 27.921 259.569Z" fill="#D6B177"/>
<path d="M24.3931 260.101C23.9604 259.694 23.4537 259.532 22.8842 259.506C22.1113 259.413 21.2126 259.495 20.5359 259.765C19.7629 260.075 18.9826 260.43 18.5425 261.022C18.206 261.477 18.9937 261.728 19.3968 261.88C20.6801 262.353 23.2577 262.057 24.2304 261.225C24.6224 260.889 24.8073 260.486 24.3931 260.101Z" fill="#D6B177"/>
<path d="M45.6509 262.642C45.0518 262.08 44.3491 261.851 43.5577 261.814C42.4852 261.688 41.2352 261.795 40.2922 262.176C39.2234 262.609 38.1398 263.1 37.5296 263.921C37.0562 264.55 38.1546 264.901 38.713 265.108C40.4882 265.763 44.0681 265.352 45.4179 264.199C45.9653 263.736 46.2241 263.182 45.6509 262.642Z" fill="#D6B177"/>
<path d="M33.7001 258.035C33.3857 257.739 33.0159 257.621 32.6017 257.602C32.0395 257.536 31.385 257.591 30.8931 257.791C30.331 258.017 29.7651 258.275 29.4434 258.704C29.1956 259.033 29.7688 259.218 30.0647 259.326C30.9966 259.669 32.8679 259.455 33.578 258.852C33.8628 258.605 33.9996 258.312 33.7001 258.035Z" fill="#D6B177"/>
<path d="M81.8278 270.547C79.6384 270.181 77.2272 270.569 75.8625 272.259C75.0674 273.239 74.8418 274.681 75.3041 275.864C76.0438 277.761 77.4602 278.493 79.3685 278.948C82.3381 279.658 86.4949 279.162 87.6821 275.816C89.0578 271.96 85.171 269.69 81.8278 270.547Z" fill="#724E2B"/>
<path d="M228.209 270.299C228.401 269.896 228.638 269.519 228.885 269.142C228.83 269.134 228.775 269.131 228.723 269.123C226.996 259.987 224.969 250.924 222.757 241.865C219.588 228.869 216.123 216.009 213.497 202.883C210.845 189.624 208.223 176.31 206.744 162.855C205.269 149.429 204.292 135.982 203.445 122.504C203.416 122.002 203.382 121.495 203.357 120.988C203.641 121.288 204.4 120.482 204.407 120.171C204.485 117.443 204.351 114.714 204.429 111.981C204.485 110.136 203.49 108.24 201.814 107.404C199.584 106.295 197.247 106.605 194.851 106.842C191.515 107.175 188.209 107.752 184.928 108.432C179.821 109.489 174.71 110.92 170.483 114.096C168.164 115.838 165.894 118.079 164.603 120.737C164.592 120.641 164.584 120.549 164.573 120.452C164.518 120.012 163.874 120.548 163.904 120.863C163.948 121.329 163.97 121.798 163.989 122.268C163.708 123.152 163.538 124.068 163.512 125.026C163.504 125.381 163.73 125.403 163.959 125.281C163.9 126.731 163.8 128.184 163.782 129.615C163.734 132.972 163.689 136.318 163.811 139.675C164.041 146.057 164.033 152.398 164.444 158.78C164.877 165.473 165.428 172.205 165.405 178.913C165.383 185.694 165.387 192.475 165.59 199.256C166.001 212.903 166.748 226.54 166.959 240.194C167.062 246.872 166.933 253.549 167.177 260.22C167.332 264.464 167.632 268.702 167.891 272.939C167.676 273.042 167.458 273.146 167.243 273.253C167.34 273.486 167.439 273.715 167.539 273.941C168.212 273.508 168.915 273.12 169.677 272.902C170.043 272.795 170.413 272.71 170.786 272.632C171.855 272.166 172.939 271.741 174.078 271.412C177.953 270.28 181.226 270.354 185.198 270.909C189.725 271.541 194.296 273.505 197.828 276.537C198.523 276.736 199.215 277.184 199.762 277.579C201.411 276.189 203.641 275.594 205.834 275.279C206.726 275.013 207.643 274.817 208.601 274.732C209.684 274.636 211.138 274.802 212.417 275.168C213.283 275.283 214.133 275.453 214.973 275.675C217.018 273.397 219.858 271.8 222.717 270.802C224.529 270.17 226.101 270.022 228.016 270.273C228.083 270.28 228.146 270.291 228.209 270.299Z" fill="#646343"/>
<path d="M225.633 268.85C224.021 268.894 222.257 269.4 220.829 270.121C218.921 271.087 216.72 272.462 215.286 274.278C214.886 274.07 214.479 273.885 214.043 273.756C212.297 273.227 210.285 273.02 208.473 273.224C205.567 273.553 202.904 275.002 200.389 276.533C196.632 272.68 191.362 270.336 186.033 269.449C182.56 268.868 179.061 268.62 175.655 269.667C173.492 270.332 171.491 271.223 169.513 272.17C169.095 263.873 168.762 255.568 168.758 247.264C168.751 233.65 168.159 220.051 167.626 206.451C167.094 192.941 167.338 179.39 166.432 165.902C165.999 159.438 165.278 152.975 165.16 146.494C165.045 140.175 164.764 133.867 164.672 127.548C164.649 125.984 164.738 124.409 164.72 122.841C165.748 119.129 169.072 116.259 172.264 114.304C176.584 111.652 181.639 110.632 186.558 109.722C188.843 109.301 191.143 108.976 193.451 108.709C195.84 108.436 198.422 107.981 200.659 109.105C201.635 109.593 202.153 110.321 202.427 111.161C201.798 117.036 202.186 123.007 202.353 128.894C202.549 135.727 202.97 142.548 203.558 149.363C204.146 156.133 204.712 162.907 205.526 169.654C206.339 176.406 207.704 183.043 208.817 189.746C213.226 216.305 221.077 242.084 226.584 268.413C226.617 268.576 226.646 268.735 226.68 268.898C226.332 268.857 225.984 268.838 225.633 268.85Z" fill="#F3EFD2"/>
<path d="M174.008 255.746C173.897 249.782 173.32 243.844 172.921 237.898C171.992 224.158 171.09 210.367 170.957 196.594C170.89 189.776 170.927 182.961 170.975 176.143C171.023 169.447 171.401 162.636 170.735 155.963C169.803 146.638 167.181 137.664 164.703 128.661C164.807 134.61 165.058 140.544 165.165 146.49C165.28 152.971 166.001 159.431 166.438 165.898C167.344 179.39 167.103 192.937 167.632 206.448C168.165 220.051 168.756 233.646 168.764 247.26C168.768 255.564 169.1 263.869 169.518 272.166C171.001 271.46 172.492 270.783 174.056 270.206C174.015 265.385 174.097 260.567 174.008 255.746Z" fill="#F3EFD2"/>
<path d="M226.588 268.402C221.081 242.073 213.23 216.294 208.821 189.735C207.708 183.032 206.343 176.395 205.53 169.643C204.716 162.895 204.15 156.122 203.562 149.352C202.971 142.537 202.549 135.715 202.357 128.883C202.19 122.996 201.802 117.025 202.431 111.15C202.157 110.31 201.639 109.585 200.663 109.094C198.426 107.97 195.844 108.425 193.455 108.698C191.147 108.964 188.847 109.29 186.562 109.711C181.643 110.621 176.591 111.645 172.268 114.292C169.076 116.248 165.752 119.121 164.724 122.83C164.742 124.397 164.653 125.973 164.675 127.537C164.768 133.856 165.049 140.167 165.164 146.482C165.278 152.964 165.999 159.423 166.436 165.89C166.636 168.885 166.78 171.884 166.887 174.886C167.789 170.782 168.866 166.711 170.167 162.692C171.613 158.233 175.848 145.554 182.723 150.572C185.001 152.236 186.473 155.064 187.634 157.556C189.161 160.84 190.371 164.26 191.458 167.709C192.357 170.568 193.133 173.463 194.065 176.31C195.626 181.094 196.425 185.483 196.199 190.549C195.907 197.126 195.46 203.382 196.399 209.942C197.323 216.42 198.44 222.861 199.502 229.316C201.595 242.021 203.514 254.836 203.204 267.751C203.193 268.11 202.782 268.395 202.457 268.18C198.684 265.688 195.105 262.257 190.704 260.904C186.277 259.543 181.743 260.634 177.763 262.808C174.835 264.409 171.887 266.583 169.372 269.171C169.417 270.166 169.465 271.16 169.516 272.155C171.495 271.208 173.496 270.317 175.659 269.652C179.062 268.605 182.564 268.853 186.036 269.434C191.366 270.321 196.636 272.669 200.393 276.518C202.904 274.987 205.567 273.534 208.477 273.209C210.293 273.005 212.301 273.216 214.047 273.741C214.48 273.874 214.89 274.056 215.289 274.263C216.724 272.447 218.925 271.072 220.833 270.107C222.264 269.386 224.025 268.883 225.637 268.835C225.988 268.824 226.336 268.842 226.684 268.872C226.65 268.727 226.621 268.565 226.588 268.402Z" fill="#B0AF9C"/>
<path d="M226.588 268.402C221.081 242.073 213.23 216.294 208.821 189.735C207.708 183.032 206.343 176.395 205.53 169.643C204.716 162.895 204.15 156.122 203.562 149.352C202.971 142.537 202.549 135.715 202.357 128.883C202.19 122.996 201.802 117.025 202.431 111.15C202.157 110.31 201.639 109.585 200.663 109.094C198.426 107.97 195.844 108.425 193.455 108.698C191.147 108.964 188.847 109.29 186.562 109.711C181.643 110.621 176.591 111.645 172.268 114.292C169.076 116.248 165.752 119.121 164.724 122.83C164.742 124.397 164.653 125.973 164.675 127.537C164.768 133.856 165.049 140.167 165.164 146.482C165.201 148.512 165.3 150.542 165.43 152.568C168.622 153.315 172.568 152.587 175.53 151.626C176.861 150.136 178.411 149.207 180.182 149.455C185.289 146.19 188.91 140.877 194.317 137.912C194.624 137.742 194.92 137.912 195.045 138.207C196.136 140.81 196.565 143.613 196.798 146.408C197.312 152.609 197.815 158.751 198.74 164.914C199.768 171.777 201.029 178.598 202.316 185.413C204.831 198.713 206.11 212.212 208.673 225.501C211.281 239.004 214.088 252.466 216.125 266.076C216.443 268.199 216.787 270.314 217.142 272.432C218.311 271.493 219.627 270.72 220.829 270.114C222.261 269.393 224.021 268.89 225.633 268.842C225.985 268.831 226.332 268.849 226.68 268.879C226.65 268.727 226.621 268.565 226.588 268.402Z" fill="#B0AF9C"/>
<path d="M258.306 60.1434C257.078 57.8546 254.8 55.9135 253.01 54.0648C250.081 51.0329 247.389 47.7643 244.76 44.4736C239.896 38.3987 235.592 31.917 231.239 25.4798C227.936 20.5954 224.715 14.5169 218.68 12.7754C212.5 10.9895 204.183 14.3283 198.413 16.1918C198.354 16.2103 198.302 16.251 198.254 16.299C190.514 10.3794 182.692 2.23762 173.04 0.152262C168.794 -0.764705 165.521 2.63322 163.288 5.70211C160.972 8.88191 156.916 18.9094 152.308 17.0089C152.16 16.6687 151.997 16.336 151.864 15.9921C150.281 11.9212 145.04 9.56963 141.279 8.23485C136.357 6.48965 130.876 6.04227 125.714 6.72261C111.124 8.64898 112.282 26.3154 111.686 37.2636C110.784 53.8319 111.353 73.5134 100.765 87.2937C100.625 87.4786 100.599 87.852 100.662 88.133C100.185 88.6913 99.7187 89.2534 99.238 89.808C93.4798 96.4375 83.3837 103.481 85.414 113.401C86.3644 118.031 88.9864 122.834 91.3089 126.905C94.6632 132.784 97.6403 138.733 101.357 144.412C103.232 147.281 105.218 149.966 106.812 153.012C108.576 156.384 108.757 160.134 108.887 163.861C109.101 169.836 108.413 175.766 109.146 181.727C109.619 185.594 110.684 188.622 114.545 190.05C118.373 191.466 123.898 187.968 127.123 186.311C135.303 182.115 142.03 174.454 141.054 164.759C139.863 152.935 132.049 144.234 125.381 135.039C121.856 130.173 122.87 125.156 124.796 120.242C133.202 123.348 138.894 131.223 145.384 137.106C150.836 142.049 157.152 146.83 164.578 148.058C177.622 150.217 188.276 142.275 193.931 131.552C201.172 131.748 208.532 130.498 214.593 126.339C220.081 122.575 226.291 116.204 227.027 109.249C227.034 109.175 227.03 109.098 227.019 109.02C227.26 109.142 227.552 109.024 227.748 108.476C228.868 105.385 229.637 102.146 230.344 98.9444C230.795 96.9034 231.006 94.8366 231.261 92.7697C231.302 92.437 231.346 92.1227 231.39 91.8121C232.921 91.4719 234.319 90.8951 235.492 90.0335C235.954 89.6934 236.291 89.2645 236.535 88.7839C237.204 89.7896 237.958 90.7398 238.757 91.6531C232.825 98.6635 238.502 122.8 249.227 112.995C254.527 108.151 259.186 100.124 260.987 93.1764C262.892 85.8407 259.46 78.993 255.78 72.8552C255.721 72.7591 255.658 72.6999 255.595 72.6667C257.441 68.618 260.566 64.3548 258.306 60.1434Z" fill="#646343"/>
<path d="M229.511 92.995C229.5 93.2834 229.555 93.498 229.647 93.6459C229.588 93.9861 229.533 94.3114 229.5 94.6071C229.348 95.99 229.178 97.3507 228.923 98.7187C228.357 101.758 227.669 104.845 226.689 107.774C226.619 107.981 226.607 108.184 226.637 108.369C226.493 108.317 226.326 108.395 226.171 108.691C222.791 115.254 219.096 120.438 212.906 124.741C207.869 128.247 200.975 129.26 194.818 129.755C195.539 128.199 196.156 126.59 196.663 124.96C195.779 126.616 194.477 127.962 193.072 129.237C192.943 129.478 192.813 129.726 192.684 129.962C192.521 130.062 192.406 130.288 192.354 130.55C189.921 134.872 187.077 138.758 182.432 141.583C175.779 145.632 166.715 146.593 159.503 143.68C152.772 140.955 147.155 135.431 141.9 130.602C136.63 125.758 132.421 120.804 125.38 118.826C125.846 117.727 126.334 116.633 126.818 115.55C128.286 112.248 129.925 109.031 131.574 105.814C132.669 102.498 133.882 99.2179 134.936 95.8865C130.213 104.08 125.812 112.54 122.484 121.392C119.196 130.14 122.972 136.015 128.416 142.774C135.886 152.047 144.163 166.438 135.213 177.256C131.652 181.56 126.03 184.115 121.016 186.237C118.312 187.384 115.797 187.764 113.15 186.3C110.195 184.666 110.535 177.681 110.491 174.968C110.405 169.599 110.842 164.3 110.357 158.932C109.954 154.484 108.227 150.912 106.045 147.081C100.313 137.021 93.6007 127.662 88.9964 116.944C87.6872 113.9 86.1969 110.761 87.2878 107.363C88.2605 104.335 90.7198 101.932 92.813 99.6357C96.6555 95.4169 100.391 91.1242 104.022 86.7242C111.308 77.9132 117.462 68.4514 123.109 58.5201C123.309 58.1688 123.024 57.4441 122.691 57.9765C117.236 66.7395 111.33 75.0698 104.88 83.0526C115.317 65.3751 111.315 42.1145 114.292 22.5106C114.873 18.6726 115.89 14.8014 118.971 12.1873C121.374 10.15 125.021 9.60277 128.05 9.50294C134.019 9.30698 140.313 10.6603 145.487 13.6515C148.764 15.5483 150.25 18.3732 151.57 21.7563C152.391 23.8491 154.329 25.7939 155.834 27.4097C160.435 32.3532 165.017 37.208 169.914 41.8741C174.499 46.2408 178.963 50.7295 183.46 55.1886C185.435 57.1483 187.284 59.2078 188.948 61.4411C191.511 64.8723 191.593 69.3462 192.092 73.406C192.776 78.9374 194.795 84.3023 196.855 89.4418C197.976 92.2334 199.137 94.9881 200.391 97.7242C201.086 99.2364 201.763 100.712 202.192 102.331C202.843 104.783 199.252 105.936 197.765 106.48C186.356 110.654 173.479 109.959 167.506 98.0014C164.585 92.1483 164.747 85.3968 165.779 79.1185C166.423 75.2029 164.692 73.0585 161.859 70.5183C154.906 64.2918 149.107 57.1187 143.028 50.0861C140.132 46.7363 136.001 45.3793 131.67 44.662C130.568 44.7914 129.481 44.9541 128.423 45.1723C127.022 45.4607 125.638 45.86 124.244 46.226C127.65 46.6217 131.33 46.9544 134.684 47.8492C133.911 48.6885 132.954 49.2395 131.896 49.6832C130.043 50.467 127.894 49.942 126.215 49.0139C125.642 48.6959 125.324 50.0307 125.783 50.3265C129.333 52.6189 134.082 51.8462 136.323 48.3484C137.11 48.6146 137.876 48.9178 138.601 49.2764C140.949 50.4337 142.624 52.8556 144.233 54.8374C146.423 57.5476 148.715 60.1728 151.067 62.7425C155.017 67.0612 159.629 70.7771 163.534 75.1031C165.398 77.17 163.656 82.2392 163.512 84.7386C163.346 87.6596 163.475 90.4624 163.978 93.3427C165.627 102.838 172.207 110.543 181.959 111.778C186.641 112.373 191.389 111.224 195.872 110.022C199.022 109.179 202.783 107.885 203.911 104.472C205.154 100.715 202.321 96.3782 200.849 93.1245C198.031 86.8721 195.509 80.3276 194.207 73.5834C193.172 68.248 193.087 63.7039 190.332 58.8935C187.262 53.5396 181.275 49.0731 176.959 44.7581C176.389 44.185 175.801 43.6156 175.202 43.0425C177.04 42.2402 178.926 41.7854 181.053 42.0997C183.579 42.4731 186.33 44.6177 188.593 45.7639C191.178 47.0728 193.697 48.4519 196.156 50.0048C200.147 52.5228 200.661 56.9561 201.027 61.2081C201.826 70.4628 204.307 79.8654 211.345 86.336C215.221 89.8966 223.172 92.7141 229.577 92.0781C229.548 92.3924 229.522 92.6918 229.511 92.995Z" fill="#F3EFD2"/>
<path d="M235.053 86.2327C234.754 87.9964 232.708 88.5769 230.782 88.7728C230.752 88.7728 230.723 88.7766 230.693 88.7803C229.842 88.8616 229.021 88.8727 228.393 88.8764C216.643 88.9688 208.293 82.1286 204.65 71.2507C201.799 62.7317 203.995 52.7412 195.464 47.3799C191.743 45.0394 187.564 42.7211 183.411 41.231C180.001 40.0109 177.128 40.547 174.066 41.9964C166.695 35.0859 157.923 27.9609 153.289 19.0833C157.091 19.9559 160.564 13.0639 162.594 9.60305C164.413 6.50089 166.521 3.66866 170.083 2.53724C172.96 1.62397 176.562 3.67601 178.951 5.03298C183.481 7.60271 187.494 11.3002 191.54 14.5428C199.794 21.1613 208.245 27.0255 217.668 31.8691C221.059 33.6143 222.653 35.6627 222.838 39.6301C222.96 42.2368 222.916 44.836 223.171 47.4353C223.696 52.7227 224.809 57.8548 226.366 62.9314C227.908 67.9414 229.857 72.7814 231.902 77.6028C232.342 78.6344 232.827 79.6216 233.297 80.6125C233.23 80.8048 233.197 80.9934 233.219 81.0932C233.607 82.905 234.236 84.6207 235.053 86.2327Z" fill="#F3EFD2"/>
<path d="M259.844 89.2237C259.962 94.4999 256.404 99.5803 253.638 103.795C250.642 108.358 244.174 117.276 239.884 108.639C237.806 104.45 237.484 96.955 239.777 92.7547C240.591 93.6014 241.445 94.4185 242.344 95.1765C244.936 97.3691 250.45 99.4804 251.974 95.0287C254.185 88.5692 252.836 81.3518 254.788 74.7703C254.818 74.6742 254.855 74.5781 254.884 74.4819C257.432 79.1148 259.722 83.8328 259.844 89.2237Z" fill="#F3EFD2"/>
<path d="M255.638 67.7751C253.141 72.3525 252.18 77.4661 251.714 82.5907C251.503 84.9312 251.392 87.2791 251.203 89.6233C251.063 91.3944 251.07 94.9439 247.971 94.7516C246.592 94.6666 245.305 93.8569 244.158 93.1581C241.092 91.2945 238.94 88.5103 237.069 85.5376C237.021 84.7833 236.895 84.0476 236.743 83.4079C235.53 78.2573 232.509 73.3545 230.586 68.4258C228.363 62.7281 226.64 56.7752 225.601 50.7446C225.009 47.3097 224.839 43.823 224.794 40.3437C224.772 38.5097 224.824 36.3578 224.166 34.6126C222.579 30.4197 218.726 29.1589 215.057 27.1216C209.709 24.1488 204.628 20.9653 199.68 17.3677C204.706 16.1586 209.931 14.9755 215.083 14.8313C221.092 14.6649 224.617 19.5344 227.627 24.0564C234.258 34.0137 240.848 43.9487 248.703 53.0037C252.428 57.2965 259.073 61.482 255.638 67.7751Z" fill="#F3EFD2"/>
<path d="M258.306 60.1434C257.078 57.8546 254.8 55.9135 253.01 54.0648C250.081 51.0329 247.389 47.7643 244.76 44.4736C239.896 38.3987 235.592 31.917 231.239 25.4798C227.936 20.5954 224.715 14.5169 218.68 12.7754C212.5 10.9895 204.183 14.3283 198.413 16.1918C198.354 16.2103 198.302 16.251 198.254 16.299C190.514 10.3794 182.692 2.23762 173.04 0.152262C168.794 -0.764705 165.521 2.63322 163.288 5.70211C160.972 8.88191 156.916 18.9094 152.308 17.0089C152.16 16.6687 151.997 16.336 151.864 15.9921C150.281 11.9212 145.04 9.56963 141.279 8.23485C136.357 6.48965 130.876 6.04227 125.714 6.72261C111.124 8.64898 112.282 26.3154 111.686 37.2636C110.784 53.8319 111.353 73.5134 100.765 87.2937C100.625 87.4786 100.599 87.852 100.662 88.133C100.185 88.6913 99.7187 89.2534 99.238 89.808C93.4798 96.4375 83.3837 103.481 85.414 113.401C86.3644 118.031 88.9864 122.834 91.3089 126.905C94.6632 132.784 97.6403 138.733 101.357 144.412C103.232 147.281 105.218 149.966 106.812 153.012C108.576 156.384 108.757 160.134 108.887 163.861C109.101 169.836 108.413 175.766 109.146 181.727C109.619 185.594 110.684 188.622 114.545 190.05C118.373 191.466 123.898 187.968 127.123 186.311C135.303 182.115 142.03 174.454 141.054 164.759C139.863 152.935 132.049 144.234 125.381 135.039C121.856 130.173 122.87 125.156 124.796 120.242C133.202 123.348 138.894 131.223 145.384 137.106C150.836 142.049 157.152 146.83 164.578 148.058C177.622 150.217 188.276 142.275 193.931 131.552C201.172 131.748 208.532 130.498 214.593 126.339C220.081 122.575 226.291 116.204 227.027 109.249C227.034 109.175 227.03 109.098 227.019 109.02C227.26 109.142 227.552 109.024 227.748 108.476C228.868 105.385 229.637 102.146 230.344 98.9444C230.795 96.9034 231.006 94.8366 231.261 92.7697C231.302 92.437 231.346 92.1227 231.39 91.8121C232.921 91.4719 234.319 90.8951 235.492 90.0335C235.954 89.6934 236.291 89.2645 236.535 88.7839C237.204 89.7896 237.958 90.7398 238.757 91.6531C232.825 98.6635 238.502 122.8 249.227 112.995C254.527 108.151 259.186 100.124 260.987 93.1764C262.892 85.8407 259.46 78.993 255.78 72.8552C255.721 72.7591 255.658 72.6999 255.595 72.6667C257.441 68.618 260.566 64.3548 258.306 60.1434Z" fill="#646343"/>
<path d="M229.511 92.995C229.5 93.2834 229.555 93.498 229.647 93.6459C229.588 93.9861 229.533 94.3114 229.5 94.6071C229.348 95.99 229.178 97.3507 228.923 98.7187C228.357 101.758 227.669 104.845 226.689 107.774C226.619 107.981 226.607 108.184 226.637 108.369C226.493 108.317 226.326 108.395 226.171 108.691C222.791 115.254 219.096 120.438 212.906 124.741C207.869 128.247 200.975 129.26 194.818 129.755C195.539 128.199 196.156 126.59 196.663 124.96C195.779 126.616 194.477 127.962 193.072 129.237C192.943 129.478 192.813 129.726 192.684 129.962C192.521 130.062 192.406 130.288 192.354 130.55C189.921 134.872 187.077 138.758 182.432 141.583C175.779 145.632 166.715 146.593 159.503 143.68C152.772 140.955 147.155 135.431 141.9 130.602C136.63 125.758 132.421 120.804 125.38 118.826C125.846 117.727 126.334 116.633 126.818 115.55C128.286 112.248 129.925 109.031 131.574 105.814C132.669 102.498 133.882 99.2179 134.936 95.8865C130.213 104.08 125.812 112.54 122.484 121.392C119.196 130.14 122.972 136.015 128.416 142.774C135.886 152.047 144.163 166.438 135.213 177.256C131.652 181.56 126.03 184.115 121.016 186.237C118.312 187.384 115.797 187.764 113.15 186.3C110.195 184.666 110.535 177.681 110.491 174.968C110.405 169.599 110.842 164.3 110.357 158.932C109.954 154.484 108.227 150.912 106.045 147.081C100.313 137.021 93.6007 127.662 88.9964 116.944C87.6872 113.9 86.1969 110.761 87.2878 107.363C88.2605 104.335 90.7198 101.932 92.813 99.6357C96.6555 95.4169 100.391 91.1242 104.022 86.7242C111.308 77.9132 117.462 68.4514 123.109 58.5201C123.309 58.1688 123.024 57.4441 122.691 57.9765C117.236 66.7395 111.33 75.0698 104.88 83.0526C115.317 65.3751 111.315 42.1145 114.292 22.5106C114.873 18.6726 115.89 14.8014 118.971 12.1873C121.374 10.15 125.021 9.60277 128.05 9.50294C134.019 9.30698 140.313 10.6603 145.487 13.6515C148.764 15.5483 150.25 18.3732 151.57 21.7563C152.391 23.8491 154.329 25.7939 155.834 27.4097C160.435 32.3532 165.017 37.208 169.914 41.8741C174.499 46.2408 178.963 50.7295 183.46 55.1886C185.435 57.1483 187.284 59.2078 188.948 61.4411C191.511 64.8723 191.593 69.3462 192.092 73.406C192.776 78.9374 194.795 84.3023 196.855 89.4418C197.976 92.2334 199.137 94.9881 200.391 97.7242C201.086 99.2364 201.763 100.712 202.192 102.331C202.843 104.783 199.252 105.936 197.765 106.48C186.356 110.654 173.479 109.959 167.506 98.0014C164.585 92.1483 164.747 85.3968 165.779 79.1185C166.423 75.2029 164.692 73.0585 161.859 70.5183C154.906 64.2918 149.107 57.1187 143.028 50.0861C140.132 46.7363 136.001 45.3793 131.67 44.662C130.568 44.7914 129.481 44.9541 128.423 45.1723C127.022 45.4607 125.638 45.86 124.244 46.226C127.65 46.6217 131.33 46.9544 134.684 47.8492C133.911 48.6885 132.954 49.2395 131.896 49.6832C130.043 50.467 127.894 49.942 126.215 49.0139C125.642 48.6959 125.324 50.0307 125.783 50.3265C129.333 52.6189 134.082 51.8462 136.323 48.3484C137.11 48.6146 137.876 48.9178 138.601 49.2764C140.949 50.4337 142.624 52.8556 144.233 54.8374C146.423 57.5476 148.715 60.1728 151.067 62.7425C155.017 67.0612 159.629 70.7771 163.534 75.1031C165.398 77.17 163.656 82.2392 163.512 84.7386C163.346 87.6596 163.475 90.4624 163.978 93.3427C165.627 102.838 172.207 110.543 181.959 111.778C186.641 112.373 191.389 111.224 195.872 110.022C199.022 109.179 202.783 107.885 203.911 104.472C205.154 100.715 202.321 96.3782 200.849 93.1245C198.031 86.8721 195.509 80.3276 194.207 73.5834C193.172 68.248 193.087 63.7039 190.332 58.8935C187.262 53.5396 181.275 49.0731 176.959 44.7581C176.389 44.185 175.801 43.6156 175.202 43.0425C177.04 42.2402 178.926 41.7854 181.053 42.0997C183.579 42.4731 186.33 44.6177 188.593 45.7639C191.178 47.0728 193.697 48.4519 196.156 50.0048C200.147 52.5228 200.661 56.9561 201.027 61.2081C201.826 70.4628 204.307 79.8654 211.345 86.336C215.221 89.8966 223.172 92.7141 229.577 92.0781C229.548 92.3924 229.522 92.6918 229.511 92.995Z" fill="#F3EFD2"/>
<path d="M235.053 86.2327C234.754 87.9964 232.708 88.5769 230.782 88.7728C230.752 88.7728 230.723 88.7766 230.693 88.7803C229.842 88.8616 229.021 88.8727 228.393 88.8764C216.643 88.9688 208.293 82.1286 204.65 71.2507C201.799 62.7317 203.995 52.7412 195.464 47.3799C191.743 45.0394 187.564 42.7211 183.411 41.231C180.001 40.0109 177.128 40.547 174.066 41.9964C166.695 35.0859 157.923 27.9609 153.289 19.0833C157.091 19.9559 160.564 13.0639 162.594 9.60305C164.413 6.50089 166.521 3.66866 170.083 2.53724C172.96 1.62397 176.562 3.67601 178.951 5.03298C183.481 7.60271 187.494 11.3002 191.54 14.5428C199.794 21.1613 208.245 27.0255 217.668 31.8691C221.059 33.6143 222.653 35.6627 222.838 39.6301C222.96 42.2368 222.916 44.836 223.171 47.4353C223.696 52.7227 224.809 57.8548 226.366 62.9314C227.908 67.9414 229.857 72.7814 231.902 77.6028C232.342 78.6344 232.827 79.6216 233.297 80.6125C233.23 80.8048 233.197 80.9934 233.219 81.0932C233.607 82.905 234.236 84.6207 235.053 86.2327Z" fill="#F3EFD2"/>
<path d="M259.844 89.2237C259.962 94.4999 256.404 99.5803 253.638 103.795C250.642 108.358 244.174 117.276 239.884 108.639C237.806 104.45 237.484 96.955 239.777 92.7547C240.591 93.6014 241.445 94.4185 242.344 95.1765C244.936 97.3691 250.45 99.4804 251.974 95.0287C254.185 88.5692 252.836 81.3518 254.788 74.7703C254.818 74.6742 254.855 74.5781 254.884 74.4819C257.432 79.1148 259.722 83.8328 259.844 89.2237Z" fill="#F3EFD2"/>
<path d="M255.638 67.7751C253.141 72.3525 252.18 77.4661 251.714 82.5907C251.503 84.9312 251.392 87.2791 251.203 89.6233C251.063 91.3944 251.07 94.9439 247.971 94.7516C246.592 94.6666 245.305 93.8569 244.158 93.1581C241.092 91.2945 238.94 88.5103 237.069 85.5376C237.021 84.7833 236.895 84.0476 236.743 83.4079C235.53 78.2573 232.509 73.3545 230.586 68.4258C228.363 62.7281 226.64 56.7752 225.601 50.7446C225.009 47.3097 224.839 43.823 224.794 40.3437C224.772 38.5097 224.824 36.3578 224.166 34.6126C222.579 30.4197 218.726 29.1589 215.057 27.1216C209.709 24.1488 204.628 20.9653 199.68 17.3677C204.706 16.1586 209.931 14.9755 215.083 14.8313C221.092 14.6649 224.617 19.5344 227.627 24.0564C234.258 34.0137 240.848 43.9487 248.703 53.0037C252.428 57.2965 259.073 61.482 255.638 67.7751Z" fill="#F3EFD2"/>
<path d="M100.397 115.265C99.2547 114.189 97.9714 112.81 96.5402 114.108C95.7414 114.833 95.5823 116.034 95.6526 117.147C94.5764 119.307 97.18 123.829 99.484 125.311C100.357 126.136 101.281 126.454 102.139 125.696C103.648 124.376 103.312 120.486 102.417 118.829C101.962 117.365 101.226 116.045 100.397 115.265Z" fill="#B0AF9C"/>
<path d="M104.642 106.742C104.161 106.694 103.965 107.282 103.884 107.644C103.743 108.251 103.902 108.868 104.209 109.393C104.468 110.099 104.849 110.872 105.577 110.31C106.68 109.467 106.095 106.886 104.642 106.742Z" fill="#B0AF9C"/>
<path d="M107.016 132.95C106.965 132.961 106.917 132.961 106.865 133.001C106.543 133.227 106.443 133.726 106.514 134.092C106.528 134.181 106.558 134.266 106.58 134.355C106.591 134.661 106.673 134.954 106.843 135.175C107.005 135.56 107.212 135.93 107.471 136.274C107.756 136.651 108.551 137.631 109.121 137.172C109.424 136.928 109.624 136.551 109.668 136.159C109.687 135.985 109.701 135.815 109.698 135.641C109.687 135.501 109.675 135.364 109.661 135.227C109.661 135.235 109.661 135.238 109.661 135.246C109.661 134.761 109.546 134.303 109.361 133.848C108.954 132.846 107.948 131.877 107.016 132.95Z" fill="#B0AF9C"/>
<path d="M130.334 25.9712C130.197 25.7642 130.001 25.6976 129.783 26.0045C129.691 26.1339 129.613 26.267 129.532 26.3964C129.254 26.633 129.003 26.9584 128.803 27.3725C128.019 28.9957 128.307 31.0182 128.884 32.7043C129.047 33.2663 129.28 33.8393 129.594 34.2535C129.913 34.7341 130.338 35.1409 130.889 35.2259C131.869 35.3812 132.424 34.7157 132.904 33.954C133.478 33.0444 133.655 31.4656 133.322 30.1456C133.359 29.2804 133.271 28.4522 133.067 27.8162C132.59 26.3631 131.407 25.6828 130.334 25.9712Z" fill="#B0AF9C"/>
<path d="M172.576 67.0469C172.542 66.9286 172.487 66.8251 172.391 66.7733C172.317 66.7326 172.243 66.692 172.169 66.6513C170.409 65.0023 168.338 64.0113 167.472 66.729C167.147 67.7569 167.206 68.8994 167.513 70.0382C167.52 70.1048 167.524 70.1787 167.531 70.2415C167.92 73.5655 170.904 77.3258 174.362 77.5699C178.382 77.8509 175.579 71.3434 174.828 69.9643C174.454 69.2766 173.593 68.0859 172.576 67.0469ZM169.832 68.3004C169.673 68.5666 169.573 68.8439 169.517 69.1286C169.332 68.5444 169.199 67.9639 169.151 67.4278C169.192 67.7605 169.484 68.0453 169.832 68.3004Z" fill="#B0AF9C"/>
<path d="M198.463 34.7053C197.771 34.4576 197.128 34.3652 196.569 34.4576C195.552 34.0878 194.41 34.0435 193.759 34.9567C192.738 36.3876 192.808 38.07 193.282 39.7116C194.324 43.3203 198.984 48.0679 202.69 44.5368C205.615 41.7453 201.233 35.711 198.463 34.7053ZM194.805 36.5688C194.776 36.7685 194.772 36.9682 194.768 37.1678C194.617 37.6263 194.539 38.1329 194.539 38.547V38.5433C194.221 37.63 194.387 36.9682 194.805 36.5688Z" fill="#B0AF9C"/>
<path d="M199.335 27.3689C199.302 27.3023 199.269 27.2358 199.228 27.184C198.962 26.866 198.61 26.9252 198.307 27.1544C197.934 27.4354 197.782 27.9457 197.789 28.3931C197.793 28.737 197.915 29.2657 198.329 29.3359C198.614 29.384 198.821 29.458 199.043 29.4432C199.065 29.4432 199.087 29.4432 199.11 29.4395C199.135 29.4358 199.165 29.4284 199.191 29.421C199.221 29.4136 199.246 29.4136 199.276 29.4025V29.3877C199.331 29.3655 199.38 29.3544 199.439 29.3211C199.783 29.1215 199.908 28.5743 199.901 28.2156C199.901 27.9568 199.727 27.2875 199.335 27.3689Z" fill="#B0AF9C"/>
<path d="M180.335 15.9995C179.802 15.7998 179.281 15.7961 178.837 15.9403C177.48 15.7924 176.174 15.4781 176.208 17.3675C176.241 19.1829 178.212 21.4865 179.366 22.6844C180.268 23.6199 182.465 25.2985 183.867 24.3113C184.281 24.0192 184.603 23.631 184.839 23.2021C184.884 23.1392 184.921 23.0616 184.958 22.984C185.424 22.0078 185.461 20.8209 185.035 19.7893C184.192 17.7372 182.273 16.7278 180.335 15.9995ZM183.608 21.4162C183.334 21.3755 183.068 21.2942 182.809 21.1907C182.805 21.1574 182.805 21.1241 182.798 21.0908C182.898 20.7396 182.879 20.3292 182.676 20.0703C182.469 19.8004 182.129 19.6193 181.81 19.4972C181.788 19.4861 181.77 19.475 181.748 19.4639C181.737 19.4566 181.729 19.4455 181.718 19.4381C181.592 19.3272 181.459 19.2236 181.33 19.1201C181.304 19.0979 181.278 19.0757 181.248 19.0462C181.541 19.1941 181.822 19.3493 182.073 19.512C182.524 19.8041 183.401 20.7285 183.608 21.4162Z" fill="#B0AF9C"/>
<path d="M238.634 57.407C238.426 57.5327 238.245 57.773 238.105 58.1908C237.594 59.692 237.85 61.1857 238.319 62.6684C238.918 64.5652 241.433 70.385 244.273 68.0926C246.496 66.3031 245.483 61.9697 244.58 59.7993C243.574 57.3885 239.839 54.3825 238.634 57.407Z" fill="#B0AF9C"/>
<path d="M233.866 40.8097C233.223 40.7986 232.89 41.6564 232.938 42.2036C233.02 43.1317 233.282 43.8453 233.992 44.4627C234.181 44.6254 234.454 44.4591 234.58 44.3075C234.643 44.2261 234.702 44.1262 234.747 44.0227C235.116 43.8304 235.279 43.2611 235.261 42.8876C235.227 42.0853 234.883 40.8282 233.866 40.8097Z" fill="#B0AF9C"/>
<path d="M140.673 106.155C140.499 105.789 140.259 105.486 139.944 105.327C139.637 105.175 139.445 104.957 139.094 104.857C138.824 104.779 138.458 104.85 138.228 105.005C138.01 105.153 137.847 105.345 137.725 105.556C137.54 105.741 137.4 106.151 137.437 106.421C137.4 106.702 137.4 106.987 137.418 107.264C137.455 108.148 137.781 109.157 138.831 109.102C138.931 109.098 139.027 109.079 139.12 109.065C139.789 109.516 140.573 109.224 140.884 108.318C140.939 108.155 140.965 107.967 140.98 107.763C141.043 107.652 141.098 107.538 141.15 107.419C141.294 107.061 141.253 106.085 140.673 106.155Z" fill="#B0AF9C"/>
<path d="M258.306 60.1434C257.078 57.8546 254.8 55.9135 253.01 54.0648C250.081 51.0329 247.388 47.7643 244.759 44.4736C239.896 38.3987 235.591 31.917 231.238 25.4798C227.936 20.5954 224.715 14.5169 218.679 12.7754C212.499 10.9895 204.182 14.3283 198.413 16.1918C198.354 16.2103 198.302 16.251 198.254 16.299C190.513 10.3794 182.692 2.23762 173.039 0.152262C168.794 -0.764705 165.521 2.63322 163.287 5.70211C160.972 8.88191 156.915 18.9094 152.307 17.0089C152.159 16.6687 151.996 16.336 151.863 15.9921C150.28 11.9212 145.04 9.56963 141.279 8.23485C136.357 6.48965 130.876 6.04227 125.713 6.72261C117.093 7.86142 113.971 14.4983 112.736 21.9968C112.784 23.9231 113.002 25.8495 113.35 27.7426C114.77 35.4555 117.777 42.8504 120.473 50.1862C121.741 53.6433 123.442 57.0264 124.234 60.6388C124.818 63.3084 124.8 66.0297 124.422 68.7326C123.553 74.9073 121.268 80.7899 118.749 86.4618C114.807 95.3394 110.092 104.039 107.943 113.59C106.919 118.145 106.575 122.856 107.555 127.455C108.679 132.743 111.075 137.531 113.949 142.075C116.508 146.117 119.482 150.15 120.857 154.794C122.137 159.113 121.8 163.302 120.968 167.665C119.774 173.914 117.152 185.431 124.659 187.617C125.565 187.14 126.405 186.674 127.126 186.304C135.306 182.108 142.033 174.446 141.057 164.752C139.866 152.927 132.052 144.227 125.384 135.032C121.86 130.166 122.873 125.148 124.8 120.234C133.206 123.34 138.897 131.216 145.388 137.098C150.839 142.042 157.155 146.823 164.581 148.05C177.625 150.21 188.28 142.268 193.934 131.545C201.175 131.741 208.535 130.491 214.596 126.331C220.084 122.567 226.294 116.197 227.03 109.242C227.037 109.168 227.033 109.09 227.022 109.013C227.263 109.135 227.555 109.016 227.751 108.469C228.871 105.378 229.641 102.139 230.347 98.9371C230.798 96.8961 231.009 94.8292 231.264 92.7623C231.305 92.4295 231.349 92.1152 231.394 91.8046C232.925 91.4645 234.323 90.8877 235.495 90.0262C235.957 89.686 236.294 89.2571 236.538 88.7764C237.207 89.7821 237.962 90.7324 238.761 91.6457C232.829 98.656 238.505 122.793 249.23 112.987C254.53 108.144 259.189 100.116 260.991 93.169C262.895 85.8332 259.463 78.9856 255.783 72.8479C255.724 72.7517 255.661 72.6925 255.599 72.6592C257.44 68.6179 260.565 64.3548 258.306 60.1434ZM186.56 67.9228C186.327 73.1917 187.873 78.5493 189.611 83.5076C191.619 89.246 198.875 99.488 191.094 104.065C187.758 106.029 182.928 106.631 179.422 104.698C175.243 102.39 172.633 98.0423 170.765 93.7865C169.167 90.1519 167.2 86.118 167.481 82.036C167.607 80.2131 168.058 78.4495 168.838 76.793C169.112 76.2162 170.547 74.2899 169.944 73.787C168.72 72.7591 167.485 71.7459 166.249 70.7328C163.627 68.5772 160.865 66.4623 158.531 63.9887C156.486 61.822 154.626 59.5074 152.803 57.1558C149.252 52.5858 145.55 46.5109 140.066 44.0891C135.214 41.9445 129.507 40.9832 125.902 36.7237C124.289 34.8195 123.195 32.6824 122.407 30.4159C120.724 27.9756 119.589 25.2283 119.759 22.4774C119.951 19.4234 122.854 18.2956 124.944 16.654C127.011 15.0308 129.385 13.4372 132.026 12.9639C135.717 12.2984 139.482 13.7404 141.763 16.7797C143.775 19.4566 144.585 22.8102 146.567 25.4872C148.55 28.1641 150.806 30.6821 152.962 33.2185C157.229 38.2545 161.66 43.0907 166.371 47.7125C170.687 51.9498 174.962 56.9266 180.077 60.2025C181.863 61.3451 183.912 62.4617 185.366 64.0405C186.438 65.22 186.63 66.344 186.56 67.9228ZM219.962 59.3558C220.898 62.0217 222.052 64.6025 222.951 67.2831C224.116 70.7476 227.366 80.0505 221.275 80.8935C218.653 81.2559 216.416 78.4827 215.11 76.6044C213.121 73.75 211.59 70.5924 210.266 67.383C208.25 62.5024 205.776 57.9138 205.092 52.5784C204.448 47.5573 205.883 43.1314 206.741 38.3025C204.286 40.4471 202.939 43.3496 202.063 46.5035C201.985 46.7845 201.575 46.9435 201.368 46.6958C194.933 39.1678 184.678 38.6945 176.693 33.6807C172.891 31.2959 169.922 28.0717 169.175 23.5017C168.601 19.9928 168.86 16.4432 169.596 12.9898C169.593 12.4685 169.611 11.9397 169.652 11.4147C169.826 9.07417 169.667 4.31556 173.298 4.8332C176.161 5.23992 177.91 7.81708 179.585 9.9616C180.621 11.2816 181.553 12.7162 182.825 13.8217C184.822 15.5521 186.849 17.2456 188.931 18.8687C193.132 22.1447 197.492 25.3023 202.052 28.0717C205.388 30.0942 209.101 31.5769 212.2 33.9729C215.384 36.4354 216.985 39.3193 217.547 43.2904C218.309 48.6776 218.139 54.1498 219.962 59.3558ZM249.363 105.371C248.871 108.639 246.438 110.994 243.409 108.51C241.36 106.831 239.837 104.014 240.121 101.34C239.652 99.3697 241.109 97.9831 243.59 98.3603C246.985 98.8816 249.911 101.755 249.363 105.371ZM249.97 71.2098C249.567 75.0958 248.346 79.433 245.199 82.0175C242 84.6464 239.367 81.755 237.94 78.9154C235.647 74.3453 233.417 69.7716 232.152 64.7948C231.431 61.9662 230.961 59.1081 230.687 56.2241C229.918 54.0574 229.337 51.8389 229.049 49.6574C228.786 47.6534 228.857 44.9949 230.994 44.0447C233.176 43.0686 236.682 47.01 237.965 48.2709C244.252 54.4641 250.965 61.6408 249.97 71.2098Z" fill="#B0AF9C"/>
<path d="M259.002 62.2247C258.636 62.8903 258.266 63.5558 257.896 64.2065C256.665 66.3732 255.23 68.5363 254.265 70.8435C253.111 73.6055 252.515 76.5265 251.702 79.392C250.463 83.7735 246.166 93.2537 240.563 87.6225C236.436 83.4739 234.461 77.0256 232.641 71.5941C230.788 66.059 229.32 60.376 228.924 54.534C228.821 53.007 228.924 51.4503 229.091 49.8789C229.08 49.805 229.065 49.7274 229.054 49.6534C228.869 48.241 228.854 46.5106 229.601 45.2719C229.805 43.0091 229.831 40.7611 229.239 38.5944C227.985 34.0206 223.396 30.6301 219.546 28.2674C216.014 26.1007 212.038 24.0781 207.885 23.3867C212.896 28.1934 219.353 32.6489 221.132 39.6703C222.075 43.3973 222.331 47.2908 222.944 51.0806C223.625 55.2883 224.146 59.5145 224.827 63.7222C225.589 68.4401 227.271 73.0213 227.782 77.7762C228.103 80.7674 227.763 85.2709 223.814 85.4077C219.797 85.5482 215.496 82.8676 212.952 79.9208C209.309 75.6983 207.456 70.4441 206.073 65.1235C204.69 59.8029 203.991 53.2325 200.589 48.7438C197.282 44.3771 191.661 42.0515 186.694 40.1214C178.418 36.9083 169.524 35.4959 161.761 31.2623C166.894 36.1614 171.413 41.6706 175.818 47.2279C180.995 53.7576 186.461 59.9101 189.671 67.7081C192.778 75.2619 194.705 83.3815 196.724 91.2904C197.778 95.4056 198.717 100.833 194.845 103.851C188.743 108.606 177.36 108.472 171.905 102.712C168.421 99.0329 167.367 93.8527 167.012 88.9388C166.794 85.9106 166.927 82.9859 167.242 79.9724C167.475 77.7096 167.201 76.1383 165.537 74.4559C161.129 70.0079 157.212 65.3417 153.462 60.3279C149.76 55.377 145.722 51.2137 140.112 48.4185C137.453 47.0948 134.557 45.9079 131.598 45.4605C129.701 45.1758 125.385 43.878 124.25 46.248C122.911 49.0433 123.444 52.8258 123.736 55.8097C123.88 57.2775 124.028 58.7418 124.128 60.2133C124.131 60.2281 124.139 60.2466 124.143 60.2614C127.471 58.69 130.944 57.4735 134.62 57.1222C138.876 56.7155 142.9 58.1427 146.572 60.2318C154.043 64.4765 162.39 71.657 163.558 80.6714C164.723 89.6562 163.625 103.141 172.305 108.864C175.748 111.135 179.39 111.497 183.41 111.242C187.656 110.972 192.016 110.24 195.988 108.661C199.568 107.241 203.488 105.012 203.262 100.627C203.026 96.0897 200.984 91.8265 199.35 87.6632C197.796 83.6995 196.262 79.6509 194.938 75.6021C193.673 71.7383 192.49 67.4973 193.458 63.4338C193.544 63.0714 194.043 63.0234 194.224 63.3302C201.794 75.9829 204.213 97.9125 223.407 96.685C223.695 96.6628 223.854 96.9586 223.81 97.21C222.257 105.914 217.527 116.403 208.355 119.247C204.694 120.382 201.04 120.352 197.478 118.855C194.039 117.409 190.925 115.328 187.501 113.849C184.339 123.968 172.563 130.003 162.345 128.964C149.96 127.703 140.478 118.319 130.799 111.438C130.64 111.323 130.555 111.164 130.6 110.965C132.242 103.947 134.771 96.1932 133.998 88.876C130.822 92.8692 128.839 97.5945 126.498 102.098C124.217 106.491 121.594 110.702 119.649 115.261C117.682 119.875 115.851 125.148 116.376 130.239C116.798 134.347 118.61 137.997 120.677 141.509C124.764 148.449 129.805 155.504 129.202 163.956C128.921 167.972 127.73 172.124 129.242 176.054C130.352 178.938 132.501 180.262 135.052 180.539C139.128 176.369 141.694 170.985 141.066 164.751C139.875 152.927 132.061 144.227 125.393 135.031C121.868 130.165 122.881 125.148 124.808 120.234C133.214 123.34 138.906 131.215 145.396 137.098C150.847 142.042 157.164 146.822 164.59 148.05C177.634 150.209 188.288 142.267 193.943 131.545C201.184 131.741 208.544 130.491 214.605 126.331C220.093 122.567 226.302 116.196 227.038 109.242C227.046 109.168 227.042 109.09 227.031 109.012C227.271 109.134 227.564 109.016 227.76 108.469C228.88 105.378 229.649 102.139 230.356 98.9368C230.807 96.8958 231.018 94.8288 231.273 92.762C231.314 92.4292 231.358 92.1149 231.402 91.8043C232.933 91.4642 234.331 90.8874 235.504 90.0259C235.966 89.6857 236.302 89.2568 236.547 88.7761C237.216 89.7818 237.97 90.7321 238.769 91.6453C232.837 98.6557 238.514 122.793 249.239 112.987C254.538 108.143 259.198 100.116 260.999 93.1686C262.904 85.8329 259.472 78.9853 255.792 72.8476C255.733 72.7514 255.67 72.6922 255.607 72.6589C257.138 69.2831 259.561 65.7521 259.002 62.2247ZM249.365 105.37C248.873 108.639 246.439 110.994 243.41 108.509C241.362 106.831 239.838 104.013 240.123 101.34C239.653 99.3693 241.11 97.9828 243.592 98.3599C246.987 98.8813 249.912 101.754 249.365 105.37Z" fill="#B0AF9C"/>
<path d="M179.575 179.404C179.52 179.208 179.431 179.108 179.213 179.112C176.646 179.153 175.378 184.322 174.783 186.096C173.854 188.873 173.207 191.831 172.652 194.7C172.257 196.738 171.898 199.296 172.519 201.389C172.586 202.313 172.708 203.23 172.915 204.133C172.996 204.491 173.259 204.576 173.592 204.476C174.975 204.073 175.803 202.532 176.354 200.908C176.639 200.184 176.865 199.474 177.039 198.956C178.063 195.924 178.592 192.611 179.139 189.472C179.686 186.344 180.482 182.528 179.575 179.404Z" fill="#F8A07C"/>
<path d="M185.331 189.531C185.243 187.978 185.35 185.338 183.871 184.336C183.412 184.029 182.905 184.469 182.606 184.787C182.391 185.02 182.232 185.257 182.107 185.505C181.881 185.579 181.641 185.749 181.482 186.011C179.259 189.705 179.522 194.02 179.107 198.168C178.612 203.179 177.994 208.422 178.608 213.443C178.704 214.234 179.614 213.905 180.002 213.568C181.659 212.119 182.096 209.767 182.728 207.763C183.671 204.78 184.185 201.67 184.662 198.583C185.135 195.573 185.505 192.582 185.331 189.531Z" fill="#F8A07C"/>
<path d="M191.927 183.856C191.753 183.704 191.457 183.719 191.258 183.801C190.237 184.237 189.712 185.072 189.386 186.034C188.946 186.352 188.528 186.914 188.473 187.243C187.755 191.513 187.297 196.775 188.218 201.049C188.429 202.025 189.494 201.378 189.889 200.923C191.872 198.642 192.278 195.936 192.504 193.011C192.689 190.619 193.998 185.668 191.927 183.856Z" fill="#F8A07C"/>
<path d="M204.522 188.163C203.287 186.447 199.755 184.506 197.617 185.686C195.151 187.05 195.458 190.245 195.72 192.663C195.975 195.025 196.286 197.34 196.756 199.625C197.018 201.921 197.41 204.206 197.736 206.535C197.987 208.34 197.865 214.947 200.347 215.698C201.552 216.06 202.495 215.409 203.209 214.441C203.583 214.067 203.871 213.561 203.941 213.213C204.289 212.514 204.552 211.797 204.74 211.242C206.09 207.293 206.031 202.649 206.66 198.538C207.237 194.803 206.763 191.276 204.522 188.163Z" fill="#F8A07C"/>
<g opacity="0.6">
<path d="M176.267 181.929C175.546 183.456 175.076 185.205 174.781 186.1C173.852 188.877 173.205 191.835 172.65 194.704C172.591 195.015 172.532 195.34 172.477 195.669C173.867 191.103 175.798 186.632 176.267 181.929Z" fill="#CF8C7B"/>
<path d="M173.852 204.373C173.926 204.343 174 204.321 174.07 204.284C177.657 198.708 178.16 191.391 178.349 184.747C175.678 190.932 174.173 197.691 173.852 204.373Z" fill="#CF8C7B"/>
<path d="M179.992 210.463C180.699 207.227 181.457 203.977 181.597 200.668C181.671 198.871 181.553 197.2 181.135 195.473C180.521 200.457 179.866 205.442 179.992 210.463Z" fill="#CF8C7B"/>
<path d="M189.954 187.143C189.225 191.513 188.323 195.921 188.697 200.347C190.483 196.401 190.93 191.436 189.954 187.143Z" fill="#CF8C7B"/>
<path d="M200.356 211.985C200.6 205.13 200.936 197.654 197.863 191.461C196.931 198.279 198.891 205.293 200.356 211.985Z" fill="#CF8C7B"/>
<path d="M202.211 193.11C202.115 198.427 202.259 203.822 203.672 208.932C204.389 205.53 204.363 201.966 203.849 198.538C203.561 196.63 202.88 194.874 202.211 193.11Z" fill="#CF8C7B"/>
</g>
<path d="M181.55 163.232C181.158 162.255 180.766 160.233 179.231 160.784C178.85 160.921 178.55 161.191 178.303 161.538C177.811 161.446 177.297 161.849 177.008 162.514C176.298 164.149 176.942 166.008 177.271 167.661C177.511 168.878 177.881 171.946 179.686 171.787C180.954 171.677 181.527 170.124 181.779 169.092C182.241 167.214 182.282 165.069 181.55 163.232Z" fill="#B0AF9C"/>
<path d="M190.273 165.743C190.162 165.399 189.818 165.465 189.515 165.628H189.508C189.075 165.665 188.694 166.09 188.557 166.482C188.132 167.732 187.67 169.141 188.62 170.261C188.735 170.394 188.983 170.342 189.119 170.302C191.102 169.703 190.758 167.24 190.273 165.743Z" fill="#B0AF9C"/>
<path d="M193.867 239.089C193.442 238.822 192.872 239.174 192.621 239.536C192.584 239.591 192.547 239.65 192.51 239.706C192.269 239.75 192.033 239.861 191.803 240.065C190.775 240.97 190.561 242.457 190.494 243.74C190.376 246.117 192.066 251.737 195.076 251.564C195.572 251.534 196.041 251.013 196.182 250.569C197.291 247.116 197.439 241.318 193.867 239.089ZM193.475 241.714C193.39 241.814 193.312 241.924 193.246 242.035C193.246 241.862 193.257 241.688 193.279 241.521C193.345 241.588 193.416 241.647 193.475 241.714Z" fill="#B0AF9C"/>
<path d="M184.301 246.255C184.171 246.192 184.012 246.24 183.868 246.325C183.961 246.048 183.901 245.796 183.554 245.785C183.461 245.781 183.369 245.781 183.276 245.778C182.91 245.766 182.625 246.192 182.5 246.476C182.119 247.319 182.503 249.808 183.772 249.723C184.693 249.66 185.248 248.906 185.24 248.018C185.229 247.367 184.9 246.539 184.301 246.255Z" fill="#B0AF9C"/>
<path d="M201.505 225.815C201.331 225.345 200.662 225.689 200.436 225.893C200.24 226.067 200.067 226.303 199.978 226.562L199.974 226.569C199.945 226.658 199.926 226.747 199.919 226.836C199.878 227.08 199.871 227.324 199.874 227.575C199.782 227.767 199.734 227.985 199.83 228.174C199.959 228.429 200.248 228.385 200.477 228.27C200.525 228.263 200.573 228.252 200.618 228.237C201.069 228.074 201.572 227.538 201.59 227.035C201.601 226.625 201.653 226.207 201.505 225.815Z" fill="#B0AF9C"/>
</svg>
