<svg width="443" height="448" viewBox="0 0 443 448" fill="none" xmlns="http://www.w3.org/2000/svg">
<path d="M17.4922 405.393L93.66 435.224L415.406 206.456L425.473 121.135L326.542 99.2L169.83 149.868L17.4922 405.393Z" fill="#6B3319"/>
<path d="M17.4922 326.432V405.393L93.66 435.224V356.262L17.4922 326.432Z" fill="#B26233"/>
<path d="M415.406 206.456V127.495L425.474 42.1743V121.135L415.406 206.456Z" fill="#823E23"/>
<path d="M17.4922 326.432L93.66 356.262L415.406 127.495L425.473 42.1743L326.542 20.239L169.83 70.9069L17.4922 326.432Z" fill="#C05937"/>
<path d="M175.521 75.5128L27.125 322.484L93.6628 347.928L176.31 289.035V75.2483L175.521 75.5128Z" fill="#592A12"/>
<path d="M416.281 46.9988L322.516 26.2097V184.85L405.775 125.521L416.281 46.9988Z" fill="#592D18"/>
<path d="M176.309 75.2483V289.035L322.515 184.85V26.2097L176.309 75.2483Z" fill="#49220C"/>
<path d="M322.516 184.85L322.96 184.535L405.555 126.179L322.516 103.807L177.052 167.634L74.707 340.679L93.6623 347.928L322.516 184.85Z" fill="#4E240D"/>
<path d="M19.793 357.14L93.6626 389.053L415.406 159.244L423.942 76.5L414.914 157.27L93.3343 386.75L19.793 357.14Z" fill="#93462A"/>
<path d="M422.301 126.837L415.242 186.552L93.6626 414.386L19.793 385.105L93.3343 411.754L415.078 184.249L422.301 126.837Z" fill="#93462A"/>
<path d="M17.4922 326.432L93.66 356.262L415.406 127.495L93.6626 353.85L17.4922 326.432Z" fill="#1C0400"/>
<path d="M17.4922 405.393V326.432L21.4345 401.555L52.5149 419.211L17.4922 405.393Z" fill="#C05937"/>
<path opacity="0.4" d="M63.6773 423.817L93.6598 435.224V356.262L55.7978 341.566L84.0325 358.674V379.292L20.1211 357.14L82.2819 388.066L82.0626 405.174L52.2954 397.06L81.406 412.852V426.231L63.6773 423.817Z" fill="#A24C2E"/>
<path d="M425.474 42.1743L415.406 127.495V206.456L425.474 121.135V42.1743Z" fill="#843F23"/>
<path opacity="0.6" d="M325.482 104.606L322.08 26.5559L322.147 103.969L180.273 166.22L176.31 75.2484L176.39 168.754L74.707 340.679L181.211 171.144L322.821 108.413L405.555 126.179L325.482 104.606Z" fill="#7D3C21"/>
<path d="M84.6373 363.326C84.6373 363.326 67.2093 355.18 61.8867 354.025C61.8867 354.025 76.8104 362.184 84.6373 363.326Z" fill="#6B3319"/>
<path d="M41.2936 357.363C41.2936 357.363 25.9694 350.199 21.2891 349.183C21.2891 349.183 34.4109 356.358 41.2936 357.363Z" fill="#6B3319"/>
<path d="M79.8132 389.386C79.8132 389.386 64.489 382.223 59.8086 381.206C59.8086 381.206 72.9305 388.382 79.8132 389.386Z" fill="#6B3319"/>
<path d="M60.9267 388.331C60.9267 388.331 51.6893 384.013 48.8672 383.4C48.8672 383.4 56.7768 387.725 60.9267 388.331Z" fill="#6B3319"/>
<path d="M45.9765 403.386C45.9765 403.386 30.3621 396.086 25.5938 395.052C25.5938 395.052 38.9638 402.362 45.9765 403.386Z" fill="#6B3319"/>
<path d="M86.4687 424.442C86.4687 424.442 70.8543 417.142 66.0859 416.108C66.0859 416.108 79.456 423.418 86.4687 424.442Z" fill="#6B3319"/>
<g opacity="0.5">
<path d="M172.238 322.046C172.238 322.046 198.722 302.524 207.258 298.796C207.258 298.796 181.212 317.44 172.238 322.046Z" fill="#93462A"/>
<path d="M106.793 360.868C106.793 360.868 129.47 344.153 136.779 340.961C136.779 340.961 114.477 356.925 106.793 360.868Z" fill="#93462A"/>
<path d="M99.3516 395.744C99.3516 395.744 114.843 384.325 119.835 382.144C119.835 382.144 104.599 393.049 99.3516 395.744Z" fill="#93462A"/>
<path d="M223.684 310.365C223.684 310.365 242.107 296.785 248.045 294.191C248.045 294.191 229.927 307.16 223.684 310.365Z" fill="#93462A"/>
<path d="M115.473 390.345C115.473 390.345 131.249 378.717 136.333 376.497C136.333 376.497 120.816 387.602 115.473 390.345Z" fill="#93462A"/>
<path d="M132.184 402.324C132.184 402.324 142.96 394.38 146.434 392.863C146.434 392.863 135.836 400.449 132.184 402.324Z" fill="#93462A"/>
<path d="M205.941 345.515C205.941 345.515 216.718 337.573 220.193 336.056C220.193 336.056 209.594 343.64 205.941 345.515Z" fill="#93462A"/>
<path d="M130.871 375.126C130.871 375.126 141.648 367.184 145.121 365.666C145.121 365.666 134.523 373.25 130.871 375.126Z" fill="#93462A"/>
<path d="M162.824 324.678C162.824 324.678 173.601 316.736 177.074 315.218C177.074 315.218 166.476 322.804 162.824 324.678Z" fill="#93462A"/>
<path d="M305.094 222.468C305.094 222.468 327.58 205.893 334.827 202.728C334.827 202.728 312.712 218.557 305.094 222.468Z" fill="#93462A"/>
<path d="M218.418 281.689C218.418 281.689 235.635 268.998 241.183 266.576C241.183 266.576 224.253 278.695 218.418 281.689Z" fill="#93462A"/>
<path d="M279.703 268.089C279.703 268.089 296.92 255.4 302.469 252.977C302.469 252.977 285.537 265.095 279.703 268.089Z" fill="#93462A"/>
<path d="M308.594 272.037C308.594 272.037 317.092 265.776 319.829 264.579C319.829 264.579 311.472 270.561 308.594 272.037Z" fill="#93462A"/>
<path d="M247.312 319.415C247.312 319.415 264.528 306.726 270.076 304.302C270.076 304.302 253.146 316.42 247.312 319.415Z" fill="#93462A"/>
<path d="M275.332 273.787C275.332 273.787 286.82 265.32 290.521 263.703C290.521 263.703 279.223 271.79 275.332 273.787Z" fill="#93462A"/>
<path d="M344.492 220.405C344.492 220.405 362.269 207.301 367.999 204.799C367.999 204.799 350.517 217.312 344.492 220.405Z" fill="#93462A"/>
<path d="M386.734 216.766C386.734 216.766 398.223 208.299 401.925 206.681C401.925 206.681 390.628 214.768 386.734 216.766Z" fill="#93462A"/>
<path d="M360.25 189.068C360.25 189.068 382.663 172.549 389.886 169.393C389.886 169.393 367.844 185.17 360.25 189.068Z" fill="#93462A"/>
</g>
<path opacity="0.6" d="M93.6602 435.224L415.406 206.456V127.495L278.393 225.1L400.961 145.7L400.086 152.719L362.441 178.6L400.961 157.983L236.806 284.321L399.647 178.6V185.182L257.82 287.391L399.647 195.27L196.971 339.593L396.146 206.676L93.6602 435.224Z" fill="#A24C2E"/>
<path opacity="0.6" d="M94.3203 242.647L177.054 104.465L322.824 49.1926L402.275 66.9588L322.167 53.7987L177.711 109.071L94.3203 242.647Z" fill="#AA5131"/>
<path opacity="0.6" d="M63.0195 330.38L177.053 137.366L322.823 82.093L387.828 97.8852L323.043 85.1633L177.71 141.972L63.0195 330.38Z" fill="#AA5131"/>
<path d="M17.4922 325.549L93.66 355.379L415.407 126.612L425.472 41.2913L425.504 34.6823L326.543 19.356L169.83 70.0238L17.4948 319.078L17.4922 325.549Z" fill="#B26233"/>
<path d="M326.544 19.356L169.831 70.0238L93 195.636C93.4518 198.035 93.6592 200.454 93.2416 202.936C93.4176 203.125 93.5424 203.373 93.5424 203.708V355.333L93.6606 355.379L415.408 126.612L425.473 41.2913L425.503 34.6823L326.544 19.356Z" fill="#6A331A"/>
<path d="M17.4922 318.969L93.66 348.799L415.407 120.032L425.472 34.7112L326.543 12.7759L169.83 63.4437L17.4922 318.969Z" fill="#C66C3A"/>
<path d="M313.896 23.271L174.427 66.7337L58.2227 260.255C69.7463 285.67 91.4739 336.516 91.4739 336.516V339.587L410.155 113.232L405.559 111.04L313.896 23.271Z" fill="#4D230D"/>
<path d="M58.2229 260.255L27.1806 311.951L25.5391 314.418L91.4741 339.587V336.517C91.4741 336.517 69.7466 285.668 58.2229 260.255Z" fill="#823E23"/>
<path d="M414.586 36.5746L328.569 18.6992L313.895 23.2711L405.557 111.04L410.154 113.232L418.033 40.5227L414.586 36.5746Z" fill="#823E23"/>
<path d="M174.426 63.6634L326.106 14.9709L414.529 36.4654L405.557 111.04L91.4724 336.516L27.125 311.95L174.426 63.6634Z" fill="#C66C3A"/>
<path d="M174.426 63.6634L326.106 14.9709L414.529 36.4654L405.557 111.04L91.4724 336.516L27.125 311.95L174.426 63.6634Z" fill="#D6743E"/>
<path d="M25.0469 322.15L93.661 348.799L415.408 120.032L93.007 345.509L25.0469 322.15Z" fill="#C05937"/>
<path d="M414.529 36.4654L326.106 14.9709L174.426 63.6634L27.125 311.95L177.709 67.8299L326.542 19.3559L414.529 36.4654Z" fill="#E77539"/>
<path d="M317.551 108.829L286.872 97.9693L314.1 76.0498L305.563 73.3362L278.133 94.8741L252.855 85.9278C250.221 87.7821 247.595 89.6495 244.968 91.5103L270.907 100.693L221.445 140.511C224.303 141.669 227.206 142.707 230.148 143.634L279.645 103.785L310.447 114.687C312.849 112.776 315.213 110.82 317.551 108.829Z" fill="#5E3415"/>
<path d="M278.007 97.9337L305.914 76.055L311.718 77.9671L314.096 76.051L305.56 73.3374L278.129 94.8753L252.852 85.929C250.218 87.7833 247.591 89.6507 244.965 91.5116L248.512 92.7683L253.383 89.0506L278.007 97.9337Z" fill="#48270C"/>
<path d="M315.448 110.562C316.146 109.979 316.859 109.417 317.55 108.829L286.871 97.9692V100.51L315.448 110.562Z" fill="#48270C"/>
<path d="M286.871 100.511V97.9693L311.72 77.9659L305.916 76.0537L278.009 97.9338L253.386 89.0507L248.515 92.7684L270.907 100.695L270.622 103.691L223.402 141.26C225.628 142.114 227.873 142.919 230.148 143.636L279.646 103.787L310.448 114.689C312.138 113.343 313.793 111.951 315.45 110.562L286.871 100.511Z" fill="#8C4E28"/>
<path d="M270.907 100.693L221.445 140.511C222.091 140.773 222.751 141.007 223.402 141.258L270.622 103.69L270.907 100.693Z" fill="#48270C"/>
<path d="M414.529 36.4653L405.557 111.04L91.4724 336.516L27.125 311.95L90.3771 332.567L402.931 109.283L414.529 36.4653Z" fill="#D6743E"/>
<path d="M221.445 140.512L230.148 143.635L279.645 103.786L310.447 114.688L317.551 108.829L310.566 116.091L279.266 104.905L230.458 145.262L221.445 140.512Z" fill="#D6743E"/>
<path d="M305.564 73.3374L314.1 76.051L286.871 97.9692L317.551 108.829L288.569 97.556L315.38 75.8418L305.564 73.3374Z" fill="#D6743E"/>
<g opacity="0.6">
<path d="M124.082 241.494C124.082 241.494 146.151 218.17 153.707 213.117C153.707 213.117 131.904 235.519 124.082 241.494Z" fill="#C05937"/>
<path d="M67.9258 290.082C67.9258 290.082 86.8233 270.112 93.2897 265.785C93.2897 265.785 74.6233 284.967 67.9258 290.082Z" fill="#C05937"/>
<path d="M66.7812 324.854C66.7812 324.854 79.693 311.214 84.1081 308.258C84.1081 308.258 71.3579 321.36 66.7812 324.854Z" fill="#C05937"/>
<path d="M171.469 221.385C171.469 221.385 186.823 205.16 192.077 201.642C192.077 201.642 176.913 217.229 171.469 221.385Z" fill="#C05937"/>
<path d="M81.332 316.886C81.332 316.886 94.4802 302.994 98.9793 299.98C98.9793 299.98 85.9914 313.327 81.332 316.886Z" fill="#C05937"/>
<path d="M99.4414 325.498C99.4414 325.498 108.423 316.008 111.496 313.952C111.496 313.952 102.622 323.067 99.4414 325.498Z" fill="#C05937"/>
<path d="M160.484 258.202C160.484 258.202 169.467 248.712 172.539 246.656C172.539 246.656 163.67 255.773 160.484 258.202Z" fill="#C05937"/>
<path d="M93.4961 299.61C93.4961 299.61 102.476 290.121 105.55 288.065C105.55 288.065 96.6794 297.178 93.4961 299.61Z" fill="#C05937"/>
<path d="M115.496 245.646C115.496 245.646 124.476 236.157 127.55 234.1C127.55 234.1 118.682 243.216 115.496 245.646Z" fill="#C05937"/>
<path d="M234.512 122.914C234.512 122.914 253.249 103.112 259.663 98.8196C259.663 98.8196 241.155 117.843 234.512 122.914Z" fill="#C05937"/>
<path d="M161.48 194.76C161.48 194.76 175.828 179.599 180.736 176.313C180.736 176.313 166.565 190.876 161.48 194.76Z" fill="#C05937"/>
<path d="M217.984 171.108C217.984 171.108 232.333 155.948 237.242 152.662C237.242 152.662 223.068 167.226 217.984 171.108Z" fill="#C05937"/>
<path d="M246.406 169.905C246.406 169.905 253.486 162.424 255.906 160.804C255.906 160.804 248.915 167.989 246.406 169.905Z" fill="#C05937"/>
<path d="M195.715 225.99C195.715 225.99 210.062 210.829 214.972 207.543C214.972 207.543 200.8 222.106 195.715 225.99Z" fill="#C05937"/>
<path d="M214.766 177.336C214.766 177.336 224.342 167.219 227.614 165.027C227.614 165.027 218.159 174.743 214.766 177.336Z" fill="#C05937"/>
<path d="M311.918 103.33C311.918 103.33 321.49 93.2133 324.768 91.0195C324.768 91.0195 315.313 100.737 311.918 103.33Z" fill="#C05937"/>
<path d="M281.723 81.3112C281.723 81.3112 300.401 61.5763 306.792 57.2966C306.792 57.2966 288.343 76.2551 281.723 81.3112Z" fill="#C05937"/>
<path d="M163.191 128.501C163.191 128.501 181.506 109.148 187.773 104.954C187.773 104.954 169.685 123.544 163.191 128.501Z" fill="#C05937"/>
<path d="M77.2812 252.681C77.2812 252.681 87.9933 241.364 91.6586 238.909C91.6586 238.909 81.0752 249.782 77.2812 252.681Z" fill="#C05937"/>
<path d="M150.09 172.414C150.09 172.414 160.803 161.096 164.466 158.643C164.466 158.643 153.889 169.516 150.09 172.414Z" fill="#C05937"/>
<path d="M109.723 198.364C109.723 198.364 123.929 177.911 129.131 173.153C129.131 173.153 115.024 192.872 109.723 198.364Z" fill="#C05937"/>
<path d="M200.633 78.307C200.633 78.307 213.417 64.7968 217.792 61.8687C217.792 61.8687 205.162 74.8485 200.633 78.307Z" fill="#C05937"/>
<path d="M252.574 67.0998C252.574 67.0998 261.018 58.1772 263.906 56.2427C263.906 56.2427 255.567 64.8139 252.574 67.0998Z" fill="#C05937"/>
<path d="M192.113 133.993C192.113 133.993 209.225 115.911 215.082 111.99C215.082 111.99 198.178 129.362 192.113 133.993Z" fill="#C05937"/>
<path d="M197.762 83.8579C197.762 83.8579 206.294 74.8419 209.212 72.8889C209.212 72.8889 200.786 81.547 197.762 83.8579Z" fill="#C05937"/>
<path d="M367.414 63.1727C367.414 63.1727 380.198 49.6625 384.573 46.7344C384.573 46.7344 371.943 59.7142 367.414 63.1727Z" fill="#C05937"/>
<path d="M364.543 68.7236C364.543 68.7236 373.076 59.7076 375.993 57.7546C375.993 57.7546 367.566 66.4127 364.543 68.7236Z" fill="#C05937"/>
<path d="M365.59 111.772C365.59 111.772 379.674 99.6276 384.322 97.1575C384.322 97.1575 370.445 108.788 365.59 111.772Z" fill="#C05937"/>
<path d="M362.172 117.002C362.172 117.002 371.572 108.898 374.671 107.25C374.671 107.25 365.414 115.011 362.172 117.002Z" fill="#C05937"/>
<path d="M301.828 164.647C301.828 164.647 321.567 147.624 328.082 144.163C328.082 144.163 308.633 160.467 301.828 164.647Z" fill="#C05937"/>
<path d="M297.039 171.98C297.039 171.98 310.215 160.62 314.56 158.31C314.56 158.31 301.584 169.187 297.039 171.98Z" fill="#C05937"/>
<path d="M276.266 130.742C276.266 130.742 288.08 120.555 291.979 118.483C291.979 118.483 280.339 128.24 276.266 130.742Z" fill="#C05937"/>
<path d="M273.398 135.13C273.398 135.13 281.283 128.333 283.883 126.949C283.883 126.949 276.118 133.46 273.398 135.13Z" fill="#C05937"/>
<path d="M235.754 224.067C235.754 224.067 247.568 213.88 251.464 211.809C251.464 211.809 239.824 221.566 235.754 224.067Z" fill="#C05937"/>
<path d="M232.887 228.455C232.887 228.455 240.771 221.658 243.369 220.276C243.369 220.276 235.605 226.784 232.887 228.455Z" fill="#C05937"/>
</g>
</svg>
