<svg width="283" height="416" viewBox="0 0 283 416" fill="none" xmlns="http://www.w3.org/2000/svg">
<path d="M176.78 90.795C176.78 90.795 190.481 107.065 193.049 126.331C195.618 145.597 189.624 196.742 189.624 196.742L128.399 198.687L116.839 167.861L93.2906 135.75L83.0156 106.636C83.0156 106.636 97.5726 94.648 114.699 90.795C131.825 86.942 176.78 90.795 176.78 90.795Z" fill="#455A64"/>
<path d="M160.965 150.496C160.953 150.505 160.84 150.381 160.632 150.134C160.399 149.848 160.101 149.484 159.731 149.032C158.923 148.013 157.803 146.6 156.404 144.836L156.677 144.703C157.74 148.663 158.612 154.444 157.767 161.09L157.682 161.76L157.32 161.188C155.585 158.447 153.691 155.455 151.715 152.334L152.19 152.148C152.33 152.952 152.473 153.815 152.554 154.692C153.026 159.227 152.463 163.642 151.256 167.455L151.092 167.973L150.814 167.508C149.102 164.647 147.518 161.999 146.095 159.621L146.478 159.474C146.955 162.059 146.576 164.423 145.89 166.257L145.77 166.577L145.601 166.285C144.362 164.149 143.372 162.442 142.662 161.217C142.348 160.658 142.097 160.209 141.901 159.861C141.733 159.551 141.652 159.386 141.665 159.379C141.678 159.371 141.784 159.52 141.978 159.816C142.192 160.154 142.467 160.588 142.811 161.129C143.552 162.335 144.585 164.017 145.877 166.121L145.588 166.148C146.224 164.349 146.557 162.048 146.069 159.554L145.845 158.412L146.451 159.407C147.892 161.773 149.497 164.409 151.231 167.257L150.789 167.31C151.957 163.551 152.499 159.207 152.035 154.747C151.955 153.884 151.815 153.036 151.678 152.245L151.454 150.947L152.153 152.059C154.118 155.186 156.003 158.184 157.73 160.93L157.283 161.029C158.153 154.464 157.355 148.734 156.375 144.782L156.191 144.04L156.648 144.649C157.999 146.45 159.081 147.893 159.861 148.933C160.205 149.406 160.481 149.786 160.698 150.084C160.885 150.346 160.976 150.487 160.965 150.496Z" fill="#263238"/>
<path d="M164.516 107.559C164.541 107.547 164.765 107.931 165.137 108.662C165.507 109.393 166.016 110.475 166.583 111.865C167.718 114.639 169.045 118.683 169.804 123.52L169.9 124.134L169.404 123.757C167.832 122.561 166.142 121.275 164.394 119.945C163.82 119.507 163.253 119.073 162.695 118.647L163.033 118.255C166.029 121.178 167.07 125.238 166.706 128.413L166.66 128.814L166.356 128.558C164.083 126.641 162.18 125.037 160.774 123.851C160.156 123.312 159.649 122.87 159.243 122.517C158.895 122.204 158.717 122.03 158.731 122.013C158.745 121.996 158.951 122.137 159.325 122.418C159.75 122.747 160.283 123.16 160.93 123.662C162.365 124.812 164.307 126.368 166.628 128.227L166.278 128.371C166.582 125.309 165.542 121.416 162.672 118.629L163.01 118.236C163.568 118.662 164.136 119.095 164.71 119.532C166.454 120.867 168.14 122.159 169.708 123.359L169.308 123.596C168.587 118.799 167.335 114.77 166.288 111.98C165.766 110.582 165.304 109.485 164.983 108.734C164.66 107.983 164.488 107.573 164.516 107.559Z" fill="#263238"/>
<path d="M185.505 109.351C185.518 109.344 185.633 109.545 185.844 109.936C186.051 110.329 186.365 110.907 186.745 111.672C187.512 113.197 188.589 115.444 189.823 118.323C192.295 124.073 195.339 132.415 197.541 142.461L197.753 143.43L197.11 142.673C195.661 140.969 194.134 139.174 192.57 137.335L193.022 137.166C193.044 139.964 193.029 142.882 192.964 145.859C192.648 159.948 191.829 172.677 191.109 181.878C190.742 186.478 190.392 190.197 190.119 192.763C189.975 194.013 189.862 195 189.78 195.715C189.738 196.027 189.704 196.279 189.677 196.481C189.651 196.653 189.633 196.741 189.624 196.74C189.615 196.739 189.615 196.649 189.624 196.475C189.638 196.271 189.654 196.017 189.675 195.704C189.734 194.987 189.814 193.997 189.916 192.743C190.127 190.172 190.421 186.451 190.74 181.85C191.366 172.648 192.127 159.92 192.442 145.848C192.506 142.875 192.524 139.962 192.507 137.171L192.503 136.463L192.959 137.003C194.519 138.846 196.041 140.645 197.485 142.353L197.054 142.566C194.893 132.549 191.922 124.214 189.535 118.442C188.343 115.552 187.312 113.289 186.592 111.743C186.244 110.998 185.968 110.41 185.764 109.973C185.583 109.571 185.492 109.358 185.505 109.351Z" fill="#263238"/>
<path d="M169.628 232.733C169.628 232.733 169.469 234.132 169.17 236.572C167.264 252.156 159.707 305.073 151.788 312.274C142.629 320.602 123.28 324.868 119.253 325.265C113.968 325.787 104.096 329.315 97.0775 343.936C87.8325 363.196 84.8645 387.277 84.8645 387.277L63.7695 385.01C63.7695 385.01 73.9155 340.07 78.0365 332.205C82.1585 324.34 91.9185 323.044 93.2925 313.328C94.6665 303.612 93.7225 299.304 101.851 294.267C108.641 290.059 116.749 291.499 116.749 291.499C116.749 291.499 118.796 272.571 120.17 257.973C121.544 243.375 125.665 241.524 125.665 241.524C125.665 241.524 120.627 223.48 122.001 214.69C123.375 205.9 127.64 196.66 127.64 196.66L187.031 195.721L169.469 234.133" fill="#455A64"/>
<path d="M69.0959 365.38C68.9119 371.445 63.0309 390.192 61.0089 392.03C58.9869 393.868 50.7159 395.522 52.5539 400.117C52.5539 400.117 47.2239 402.69 48.6939 408.204C48.6939 408.204 52.0019 403.793 54.7589 404.896C57.5159 405.999 61.7429 402.874 61.7429 402.874L61.5589 412.431C61.5589 412.431 63.3969 409.49 65.9699 408.755C68.5429 408.02 73.1379 409.123 74.0569 406.733C74.9759 404.344 74.9759 404.344 74.9759 404.344C74.9759 404.344 76.3299 410.717 80.9049 411.218C81.3619 411.268 82.6949 415.371 82.6949 415.371L84.9009 410.776C84.9009 410.776 89.4959 409.306 88.7609 405.446C88.0259 401.586 87.0519 400.127 87.0519 400.127C87.0519 400.127 89.6799 407.651 94.8259 408.203C99.9719 408.754 101.259 407.468 101.259 407.468L105.119 412.982C105.119 412.982 106.222 407.468 103.832 403.241C101.442 399.014 99.4369 397.118 97.5869 395.349C95.0639 392.937 90.8909 391.317 89.4199 390.582C87.9499 389.847 86.0039 363.174 86.0039 356.373" fill="#455A64"/>
<path d="M88.8059 406.797C88.7189 406.793 88.7699 405.968 88.4809 404.691C88.2039 403.42 87.5659 401.699 86.4659 400.041C85.3749 398.379 83.9209 397.249 82.7989 396.594C81.6699 395.933 80.8809 395.686 80.9069 395.604C80.9189 395.549 81.7579 395.671 82.9749 396.271C84.1799 396.863 85.7519 398.006 86.8989 399.753C88.0449 401.478 88.6499 403.287 88.8429 404.624C89.0479 405.969 88.8619 406.808 88.8059 406.797Z" fill="#263238"/>
<path d="M75.0031 394.417C75.1271 394.379 75.8171 396.807 75.7461 399.89C75.6941 402.974 74.9071 405.372 74.7851 405.329C74.6311 405.293 75.1761 402.891 75.2251 399.879C75.2961 396.87 74.8481 394.447 75.0031 394.417Z" fill="#263238"/>
<path d="M65.2523 396.357C65.3613 396.472 64.0293 397.711 63.0363 399.665C62.0183 401.608 61.7803 403.41 61.6233 403.388C61.4933 403.396 61.5033 401.476 62.5733 399.426C63.6253 397.367 65.1843 396.246 65.2523 396.357Z" fill="#263238"/>
<path d="M81.8417 329.068C76.3767 331.835 71.7437 336.22 68.6797 341.525C70.2867 340.054 72.2427 338.966 74.3407 338.375C71.8197 340.837 69.9887 343.997 69.1067 347.409C70.2307 346.061 71.6537 344.964 73.2417 344.218C70.5717 348.302 69.4217 353.356 70.0617 358.193" fill="#455A64"/>
<path d="M128.328 323.09C132.395 322.516 136.357 321.213 139.972 319.263C138.821 322.214 136.914 324.867 134.483 326.898C138.161 326.075 141.584 324.146 144.194 321.427C143.989 323.048 143.389 324.617 142.461 325.961C148.601 321.167 152.918 314.096 154.378 306.444" fill="#455A64"/>
<path d="M138.148 322.146C138.113 322.122 138.448 321.618 138.975 320.666C139.497 319.713 140.203 318.298 140.779 316.443L141.066 316.657C138.864 318.216 135.496 319.653 131.568 319.67L131.107 319.672L131.35 319.279C132 318.23 132.673 317.143 133.362 316.03C133.895 315.173 134.42 314.331 134.931 313.509L135.303 313.852C132.769 315.726 129.903 316.633 127.43 316.853L127.039 316.888L127.217 316.543C128.442 314.164 129.837 312.426 130.883 311.305C131.407 310.743 131.847 310.331 132.153 310.061C132.462 309.793 132.636 309.662 132.651 309.677C132.688 309.716 132.054 310.311 131.067 311.469C130.086 312.627 128.762 314.378 127.601 316.736L127.388 316.426C129.788 316.168 132.554 315.259 134.996 313.439L136.083 312.628L135.368 313.781C134.858 314.604 134.335 315.447 133.804 316.305C133.112 317.416 132.436 318.501 131.784 319.549L131.566 319.158C135.372 319.161 138.662 317.814 140.851 316.345L141.315 316.034L141.138 316.559C140.506 318.433 139.737 319.843 139.155 320.772C138.863 321.237 138.615 321.584 138.441 321.815C138.264 322.043 138.163 322.156 138.148 322.146Z" fill="#263238"/>
<path d="M185.504 194.245C185.504 194.245 242.341 234.672 263.509 254.016C265.717 256.034 280.347 268.446 280.347 274.335C280.347 278.752 277.663 284.97 270.336 290.059C263.009 295.148 228.704 323.414 228.704 323.414L236.947 358.576C236.947 358.576 249.77 371.068 253.891 372.918C258.013 374.769 251.601 375.231 251.601 375.231L240.664 385.872C240.664 385.872 222.75 374.768 219.086 365.515C216.838 359.838 209.592 344.758 204.326 333.949C201.154 327.438 202.951 319.552 208.713 315.165C210.753 313.611 212.685 311.974 214.048 310.459C218.628 305.37 230.077 284.55 230.077 284.55L167.867 235.467L185.504 194.245Z" fill="#455A64"/>
<path d="M281.784 378.068C281.542 375.621 279.902 373.361 277.65 372.373C279.339 372.215 281.079 372.663 282.482 373.617C280.095 370.087 276.615 367.156 272.485 366.106C269.031 365.228 265.397 365.698 261.861 366.142C258.325 366.586 254.802 366.282 251.251 365.985C247.009 365.63 245.703 366.651 237.637 359.241L227.652 374.194C230.678 380.032 235.978 387.902 242.232 385.872C244.285 385.206 250.407 383.132 252.358 384.055C253.762 384.719 254.527 386.275 255.82 387.135C257.978 388.571 260.829 387.714 263.4 387.385C267.54 386.855 271.863 387.913 275.29 390.294C276.318 387.289 274.564 383.621 271.579 382.535C274.222 382.25 276.967 383.065 279.025 384.748C279.733 381.522 278.028 377.923 275.084 376.427C277.418 376.105 279.866 376.704 281.784 378.068Z" fill="#455A64"/>
<path d="M205.951 319.182C200.956 322.723 197.253 328.049 195.676 333.965C196.483 334.218 197.15 333.358 197.703 332.718C198.256 332.078 199.48 331.681 199.787 332.469C199.882 332.712 199.833 332.985 199.782 333.241C199.182 336.293 198.581 339.346 197.981 342.399C200.206 341.154 202.062 339.257 203.257 337.004C202.622 340.573 202.567 344.245 203.094 347.832C205.601 344.701 208.108 341.57 210.615 338.439" fill="#455A64"/>
<path d="M275.873 267.153C281.205 272.646 282.428 281.697 278.743 288.408C279.639 285.908 279.534 283.065 278.454 280.639C277.608 286.129 275.469 291.415 272.258 295.948C273.672 291.421 274.301 286.65 274.11 281.911" fill="#455A64"/>
<path d="M264.252 283.557C264.271 283.565 264.167 283.876 263.935 284.45C263.696 285.02 263.317 285.85 262.742 286.862C261.597 288.873 259.617 291.655 256.409 294.158L255.866 294.582L256.072 293.921C256.72 291.841 257.24 289.452 257.474 286.872L257.944 286.999C256.701 289.677 254.762 292.35 252.176 294.491C250.967 295.506 249.659 296.355 248.324 297.056L247.363 297.561L247.996 296.678C249.763 294.214 250.623 291.35 250.72 288.722L251.14 288.87C249.28 291.309 247.208 293.165 245.297 294.522L244.789 294.883L245.02 294.309C245.994 291.884 246.789 289.905 247.368 288.463C247.638 287.82 247.857 287.299 248.029 286.887C248.185 286.529 248.275 286.344 248.292 286.351C248.309 286.357 248.251 286.554 248.126 286.925C247.977 287.346 247.788 287.879 247.555 288.536C247.014 289.992 246.271 291.992 245.36 294.441L245.083 294.227C246.944 292.855 248.959 291.002 250.767 288.589L251.207 288.001L251.186 288.737C251.11 291.452 250.239 294.418 248.414 296.977L248.086 296.599C249.386 295.911 250.661 295.082 251.841 294.091C254.366 292.001 256.265 289.398 257.495 286.791L258.101 285.506L257.965 286.918C257.713 289.535 257.165 291.953 256.483 294.052L256.146 293.815C259.326 291.392 261.331 288.69 262.528 286.735C263.13 285.752 263.54 284.946 263.816 284.396C264.085 283.842 264.229 283.547 264.252 283.557Z" fill="#263238"/>
<path d="M228.698 357C228.671 357.016 228.463 356.727 228.123 356.177C227.783 355.626 227.318 354.809 226.792 353.765C225.737 351.68 224.477 348.651 223.581 345.081L224.077 345.1C223.911 345.603 223.753 346.141 223.611 346.691C223.196 348.298 222.958 349.881 222.857 351.336L222.8 352.155L222.397 351.443C220.957 348.897 220.281 346.452 219.993 344.717C219.847 343.847 219.786 343.149 219.766 342.67C219.748 342.191 219.76 341.932 219.787 341.93C219.857 341.925 219.924 342.957 220.292 344.659C220.66 346.354 221.387 348.728 222.823 351.198L222.364 351.305C222.448 349.819 222.68 348.201 223.105 346.56C223.25 345.998 223.413 345.45 223.584 344.936L223.867 344.088L224.081 344.955C224.952 348.487 226.139 351.505 227.103 353.614C228.069 355.728 228.766 356.962 228.698 357Z" fill="#263238"/>
<path d="M151.788 214.774C151.78 214.852 150.3 214.753 147.909 214.645C145.518 214.536 142.213 214.444 138.565 214.52C134.915 214.599 131.617 214.831 129.233 215.042C126.849 215.252 125.374 215.413 125.363 215.336C125.358 215.3 125.72 215.217 126.381 215.096C127.041 214.973 128.002 214.828 129.193 214.676C131.575 214.371 134.885 214.079 138.553 214C142.219 213.924 145.539 214.075 147.932 214.279C149.128 214.38 150.095 214.485 150.76 214.58C151.426 214.67 151.791 214.738 151.788 214.774Z" fill="#263238"/>
<path d="M180.609 208.335C180.614 208.371 180.059 208.486 179.05 208.663C178.042 208.845 176.576 209.067 174.76 209.305C171.128 209.785 166.084 210.274 160.494 210.473C154.902 210.666 149.836 210.533 146.179 210.308C144.35 210.197 142.873 210.078 141.854 209.968C140.835 209.861 140.273 209.786 140.277 209.75C140.28 209.714 140.847 209.722 141.869 209.766C142.983 209.811 144.44 209.87 146.196 209.941C149.85 210.071 154.901 210.147 160.475 209.954C166.048 209.756 171.081 209.327 174.716 208.941C176.464 208.747 177.913 208.586 179.021 208.463C180.038 208.347 180.603 208.3 180.609 208.335Z" fill="#263238"/>
<path d="M127.638 196.659L191.4 196.741L193.688 200.121L256.148 247.615L224.107 279.839L173.705 240.072C173.705 240.072 169.354 235.615 168.491 241.849C167.628 248.084 158.926 294.73 158.926 294.73L116.742 284.767C116.742 284.767 121.395 248.923 122.77 245.694C124.146 242.465 124.286 236.814 123.421 231.932C122.556 227.05 120.061 222.834 121.999 214.688C123.937 206.543 127.638 196.659 127.638 196.659Z" fill="#FF725E"/>
<path d="M142.743 210.682C142.753 210.647 143.212 210.76 144.038 210.993C144.453 211.104 144.956 211.255 145.524 211.477C146.094 211.693 146.756 211.91 147.449 212.242C148.864 212.841 150.485 213.703 152.203 214.79C153.902 215.906 155.687 217.265 157.396 218.876C159.089 220.506 160.534 222.222 161.732 223.865C162.903 225.528 163.843 227.105 164.51 228.489C164.876 229.165 165.124 229.816 165.368 230.374C165.618 230.93 165.793 231.425 165.924 231.834C166.198 232.647 166.332 233.1 166.298 233.112C166.199 233.149 165.606 231.345 164.183 228.658C163.481 227.31 162.52 225.773 161.344 224.148C160.14 222.543 158.706 220.861 157.037 219.254C155.351 217.666 153.602 216.316 151.94 215.192C150.259 214.097 148.677 213.212 147.297 212.577C144.543 211.287 142.712 210.783 142.743 210.682Z" fill="#263238"/>
<path d="M190.862 211.693C190.894 211.709 190.73 212.091 190.407 212.769C190.087 213.448 189.59 214.414 188.947 215.592C187.665 217.95 185.756 221.137 183.406 224.495C181.052 227.852 178.708 230.735 176.931 232.745C176.043 233.751 175.305 234.548 174.776 235.081C174.25 235.616 173.947 235.9 173.92 235.876C173.893 235.852 174.146 235.521 174.625 234.945C175.173 234.284 175.85 233.469 176.65 232.506C178.351 230.441 180.636 227.536 182.979 224.196C185.318 220.854 187.266 217.714 188.626 215.41C189.258 214.329 189.793 213.415 190.227 212.674C190.605 212.027 190.83 211.677 190.862 211.693Z" fill="#263238"/>
<path d="M117.019 284.82C116.928 286.254 116.837 287.687 116.746 289.121C119.045 287.71 122.224 288.95 123.848 291.105C125.472 293.259 125.935 296.044 126.35 298.71C128.661 297.105 131.008 295.481 133.664 294.55C136.319 293.619 139.367 293.451 141.874 294.73C144.972 296.312 146.644 299.71 147.896 302.955C149.733 299.473 154.324 297.74 158.004 299.141C158.489 296.923 158.975 294.705 159.46 292.486" fill="#FF725E"/>
<path d="M223.609 279.206C225.724 281.072 227.838 282.938 229.953 284.804C230.037 281.643 231.857 278.582 234.595 276.999C237.333 275.416 240.893 275.364 243.675 276.868C243.698 273.038 244.338 268.996 246.774 266.04C249.21 263.084 253.886 261.728 256.997 263.961C255.679 259.338 257.995 255.113 262.254 252.885L254.659 246.356" fill="#FF725E"/>
<path d="M144.911 250.079C142.308 253.326 140.999 257.457 140.512 261.59C139.722 268.291 140.949 275.13 139.945 281.802C145.324 267.995 147.713 253.032 146.902 238.237C146.617 243.102 145.506 247.918 143.631 252.417" fill="#455A64"/>
<path d="M154.234 249.531C153.286 251.351 152.921 252.924 152.498 254.933L152.607 255.128C150.587 260.92 148.544 266.829 148.399 272.961C148.292 277.477 149.223 281.983 148.956 286.493C150.059 284.945 151.182 283.355 151.691 281.523C152.084 280.109 152.09 278.62 152.093 277.151C152.099 274.48 152.105 271.809 152.111 269.138C152.114 267.725 152.119 266.3 152.404 264.916C152.68 263.578 153.212 262.308 153.561 260.987C154.542 257.279 154.039 253.362 154.234 249.531Z" fill="#455A64"/>
<path d="M138.023 243.374C137.075 245.194 136.71 246.767 136.287 248.776L136.396 248.971C134.376 254.763 132.333 260.672 132.188 266.804C132.081 271.32 133.012 275.826 132.745 280.336C133.848 278.788 134.971 277.198 135.48 275.366C135.873 273.952 135.879 272.463 135.882 270.995C135.888 268.324 135.894 265.653 135.9 262.982C135.903 261.569 135.907 260.144 136.193 258.76C136.469 257.422 137.001 256.152 137.35 254.831C138.331 251.121 137.828 247.204 138.023 243.374Z" fill="#455A64"/>
<path d="M176.781 90.7954C176.781 90.7954 185.987 91.4364 190.992 98.4414C195.996 105.447 201 131.968 202.001 141.476C203.002 150.984 202.001 157.406 202.001 157.406C202.001 157.406 210.008 156.988 218.264 159.24C226.521 161.492 238.53 162.743 238.53 162.743L248.538 161.742L251.884 173.517C251.884 173.517 218.514 184.01 208.256 183.259C197.998 182.508 189.491 170.999 189.491 170.999C189.491 170.999 179.733 122.71 179.733 121.959C179.733 121.208 176.781 90.7954 176.781 90.7954Z" fill="#455A64"/>
<path d="M273.13 124.638C273.13 125.159 278.213 135.326 277.692 137.933C277.171 140.54 275.476 152.532 274.173 154.878C272.87 157.224 251.884 173.517 251.884 173.517L247.452 161.786C247.452 161.786 248.625 157.745 251.753 155.79C254.881 153.835 255.663 152.662 255.663 152.662L256.184 147.787L253.316 142.756L248.363 140.41L244.583 141.825C244.583 141.825 242.367 139.758 244.583 138.063C246.799 136.368 250.449 134.283 250.449 134.283L258.139 138.715L262.31 145.363L260.663 133.371C260.663 133.371 256.835 134.153 255.011 132.458C253.186 130.764 252.665 129.33 252.665 129.33L255.533 127.635C255.533 127.635 265.179 129.199 265.569 129.069C265.96 128.939 270.392 140.409 270.392 140.409L270.262 132.458C270.262 132.458 268.177 129.46 268.307 126.853C268.438 124.247 273.13 124.638 273.13 124.638Z" fill="#455A64"/>
<path d="M246.88 136.713C246.079 136.061 244.893 136.064 243.944 136.471C242.995 136.878 242.237 137.624 241.535 138.381C240.295 139.718 239.107 141.253 238.893 143.064C238.847 143.451 238.945 143.965 239.331 144.018C239.659 144.063 239.895 143.726 240.079 143.451C241.309 141.616 243.937 140.88 245.941 141.808" fill="#455A64"/>
<path d="M258.865 127.853C257.373 126.37 255.07 125.759 253.039 126.307C251.008 126.855 249.324 128.541 248.781 130.574C250.468 129.927 252.363 129.834 254.105 130.313" fill="#455A64"/>
<path d="M272.787 124.675C271.994 123.391 270.71 122.419 269.258 122.005C267.807 121.592 266.203 121.74 264.852 122.414C266.953 122.787 268.86 124.132 269.917 125.986" fill="#455A64"/>
<path d="M219.899 168.08C219.908 168.132 219.049 168.356 217.566 168.513C216.086 168.67 213.971 168.726 211.565 168.39L211.732 167.927C212.518 168.397 213.397 168.845 214.338 169.228C215.531 169.712 216.725 170.055 217.835 170.272L218.924 170.485L217.851 170.752C215.665 171.296 213.713 171.28 212.372 171.122C211.024 170.962 210.266 170.701 210.277 170.656C210.291 170.591 211.067 170.746 212.397 170.818C213.721 170.889 215.618 170.836 217.728 170.276L217.744 170.756C216.6 170.552 215.368 170.209 214.141 169.711C213.173 169.317 212.272 168.85 211.47 168.356L210.414 167.706L211.637 167.893C213.994 168.253 216.071 168.263 217.541 168.195C219.014 168.127 219.889 168.013 219.899 168.08Z" fill="#263238"/>
<path d="M264.009 151.986C263.976 151.907 264.445 151.753 264.835 151.158C265.241 150.581 265.426 149.554 264.959 148.557C264.52 147.557 263.732 146.866 263.175 146.374C262.605 145.886 262.245 145.574 262.289 145.512C262.328 145.457 262.756 145.656 263.399 146.081C264.022 146.508 264.928 147.203 265.436 148.348C265.683 148.914 265.784 149.524 265.705 150.071C265.627 150.617 265.393 151.067 265.129 151.379C264.579 152.018 264.006 152.044 264.009 151.986Z" fill="#263238"/>
<path d="M272.003 149.76C271.935 149.709 272.29 149.226 272.614 148.349C272.941 147.484 273.188 146.177 272.895 144.799C272.598 143.421 271.837 142.331 271.184 141.675C270.529 141.008 270.008 140.713 270.049 140.639C270.072 140.586 270.67 140.768 271.435 141.406C272.193 142.029 273.079 143.179 273.405 144.69C273.727 146.201 273.39 147.614 272.954 148.492C272.517 149.387 272.046 149.799 272.003 149.76Z" fill="#263238"/>
<path d="M89.1206 107.558C89.1206 107.558 69.4426 108.355 70.8396 132.294C72.2376 156.233 68.2486 152.967 67.3816 163.286C66.5136 173.605 68.1266 181.681 68.1266 181.681C68.1266 181.681 58.0166 179.571 48.5696 179.097C39.1236 178.622 36.0886 173.551 36.0886 173.551L27.0586 183.344C27.0586 183.344 53.9386 212.25 74.4036 209.707C94.8686 207.164 99.3276 158.564 98.9816 150.008C98.6356 141.452 100.567 136.232 100.567 136.232L89.1206 107.558Z" fill="#455A64"/>
<path d="M36.47 175.235C36.47 175.235 38.222 171.719 37.741 167.535C37.26 163.352 31.439 159.174 30.996 155.924C30.553 152.673 31.914 150.475 31.914 150.475L35.506 146.923C35.506 146.923 35.704 144.113 32.589 144.084C29.475 144.054 26.462 146.667 26.462 146.667L24.388 152.977C24.388 152.977 19.747 145.991 19.69 144.599C19.634 143.207 22.708 138.413 22.708 138.413C22.708 138.413 25.125 136.603 24.745 134.906C24.365 133.209 22.935 132.489 22.929 132.333C22.923 132.178 11.788 141.657 11.907 144.61C12.027 147.563 13.084 154.456 13.084 154.456C13.084 154.456 7.92499 150.063 7.31399 146.508C6.70299 142.953 11.816 136.944 10.945 134.645C10.074 132.345 7.91099 132.022 7.91099 132.022C7.91099 132.022 2.57799 140.657 1.84599 141.776C1.11299 142.895 -1.12401 147.654 0.697988 150.382C2.52099 153.11 4.82599 157.018 4.82599 157.018C4.82599 157.018 4.94299 165.644 7.49199 167.097C10.041 168.55 13.47 171.256 13.47 171.256L27.99 184.43L36.47 175.235Z" fill="#455A64"/>
<path d="M73.7921 117.291C72.2321 119.371 70.6441 123.553 70.2731 126.325C69.9021 129.097 69.3891 132.135 67.2461 133.932C68.0741 134.465 69.2961 134.253 69.8951 133.471C69.8381 135.061 69.3291 136.632 68.4421 137.952C70.1181 137.393 71.4571 135.918 71.8521 134.195" fill="#455A64"/>
<path d="M70.4844 209.803C72.1234 210.339 73.8804 210.373 75.5734 210.702C77.2664 211.031 79.0164 211.751 79.9244 213.217C80.8334 214.683 80.4344 217.002 78.8174 217.6C80.8244 216.272 82.2924 214.154 82.8324 211.808C82.9084 213.433 82.9834 215.059 83.0594 216.684C86.3724 211.026 87.7214 204.243 86.8254 197.748" fill="#455A64"/>
<path d="M91.1269 137.675C91.1889 137.558 93.8319 138.938 96.6559 141.267C99.4909 143.585 101.358 145.909 101.255 145.993C101.14 146.098 99.1229 143.957 96.3249 141.67C93.5389 139.371 91.0459 137.809 91.1269 137.675Z" fill="#263238"/>
<path d="M91.1866 154.376C91.2086 154.375 91.2406 154.628 91.2676 155.105C91.2906 155.582 91.3026 156.284 91.2536 157.177C91.1556 158.958 90.7986 161.532 89.6976 164.431L89.4216 165.159L89.2746 164.391C88.9396 162.638 88.5706 160.701 88.1776 158.642L88.6646 158.673C88.1336 160.352 87.4246 162.109 86.5326 163.841C86.2836 164.325 86.0256 164.798 85.7596 165.259L85.2796 166.091L85.2746 165.131C85.2616 162.416 85.2486 159.846 85.2376 157.506L85.6806 157.615C84.7846 159.253 83.9626 160.756 83.2306 162.096L82.7266 163.018L82.8666 161.981C83.1576 159.829 83.3976 158.052 83.5786 156.718C83.6666 156.151 83.7396 155.68 83.8006 155.287C83.8576 154.961 83.8966 154.79 83.9156 154.792C83.9346 154.794 83.9326 154.969 83.9116 155.3C83.8786 155.695 83.8396 156.171 83.7926 156.743C83.6556 158.081 83.4726 159.865 83.2516 162.026L82.8876 161.911C83.5986 160.559 84.3966 159.043 85.2656 157.391L85.6976 156.569L85.7076 157.5C85.7336 159.84 85.7626 162.41 85.7936 165.125L85.3086 164.997C85.5696 164.543 85.8236 164.077 86.0686 163.601C86.9476 161.896 87.6506 160.168 88.1846 158.518L88.4936 157.562L88.6716 158.549C89.0426 160.611 89.3916 162.552 89.7076 164.309L89.2846 164.269C90.4076 161.438 90.8246 158.913 90.9966 157.156C91.1666 155.393 91.1286 154.377 91.1866 154.376Z" fill="#263238"/>
<path d="M8.24773 162.398C8.12873 162.462 6.60373 160.048 4.67673 157.088C2.75173 154.125 1.32874 151.625 1.46174 151.546C1.57674 151.478 3.18774 153.84 5.11474 156.806C7.04473 159.771 8.38273 162.325 8.24773 162.398Z" fill="#263238"/>
<path d="M17.1692 163.332C17.1382 163.39 16.5182 163.171 15.5672 162.675C14.6492 162.178 13.2722 161.319 12.5632 159.726C12.2122 158.947 12.1312 158.071 12.3122 157.347C12.4832 156.628 12.7572 156.057 12.9292 155.567C13.3152 154.595 13.1932 153.951 13.2702 153.934C13.3322 153.898 13.5992 154.611 13.2812 155.676C13.1472 156.199 12.9102 156.792 12.7832 157.444C12.6502 158.089 12.7302 158.818 13.0412 159.517C13.6662 160.934 14.8962 161.79 15.7562 162.359C16.6372 162.924 17.2062 163.264 17.1692 163.332Z" fill="#263238"/>
<path d="M26.7749 161.769C26.7869 161.817 26.0689 161.916 25.1119 161.363C24.1949 160.845 23.0559 159.532 23.1369 157.777C23.3109 156.098 24.0319 154.83 24.3229 153.856C24.6549 152.89 24.7579 152.259 24.8379 152.267C24.9009 152.271 24.9279 152.932 24.6759 153.959C24.4599 154.987 23.8029 156.317 23.6559 157.806C23.5799 159.296 24.5229 160.508 25.3109 161.053C26.1239 161.632 26.7909 161.677 26.7749 161.769Z" fill="#263238"/>
<path d="M34.1106 144.436C35.4866 143.78 37.2216 143.957 38.4366 144.878C39.6516 145.799 40.2906 147.422 40.0296 148.924C38.2666 147.259 35.5596 146.672 33.2656 147.456" fill="#455A64"/>
<path d="M20.0155 134.968C19.9945 135.117 19.9725 135.265 19.9515 135.414C19.8235 133.903 20.3885 132.348 21.4575 131.272C22.5255 130.196 24.0775 129.621 25.5895 129.739C24.3285 131.1 23.6905 133.017 23.8855 134.862" fill="#455A64"/>
<path d="M161.469 0C161.469 0 157.888 3.471 154.618 5.309C151.349 7.147 145.602 17.387 143.529 18.426C141.456 19.465 136.851 15.853 132.013 18.278C127.175 20.703 127.177 22.432 124.04 23.605C120.903 24.778 115.057 29.837 111.335 31.17C107.613 32.503 103.861 30.858 98.6533 34.799C93.4443 38.74 86.8203 39.157 86.8203 39.157C86.8203 39.157 89.8713 44.133 94.1013 45.804C98.3313 47.475 108.353 44.732 108.353 44.732L150.782 65.013C150.782 65.013 162.093 46.039 162.833 41.278C163.573 36.517 168.983 33.184 168.983 33.184C168.983 33.184 173.051 27.72 173.998 25.205C174.945 22.69 172.795 17.253 172.795 17.253C172.795 17.253 164.066 26.587 161.538 27.367C159.01 28.147 157.993 27.984 157.408 26.817C156.823 25.651 158.302 23.545 158.78 22.706C159.258 21.868 168.52 11.513 168.234 9.823C167.949 8.135 161.469 0 161.469 0Z" fill="#455A64"/>
<path d="M110.171 42.5294C106.065 47.5074 101.959 52.4853 97.8542 57.4633C99.1982 57.8463 100.542 58.2304 101.886 58.6133C97.0282 63.5233 93.5602 69.7944 91.9852 76.5194C93.7072 75.7374 95.4292 74.9564 97.1512 74.1744C95.3802 83.5774 87.8902 91.1693 86.2862 100.602C85.5642 104.847 86.1132 109.3 87.8442 113.243L96.6922 111.263L175.427 92.6283C175.427 92.6283 175.909 88.8893 175.065 86.5373C174.221 84.1853 173.437 82.3153 173.437 82.3153L177.839 82.9784C177.839 82.9784 176.03 82.7374 174.582 80.0834C173.135 77.4294 169.034 70.0124 169.034 70.0124C169.034 70.0124 171.446 70.9174 173.075 70.3744C173.075 70.3744 170.542 69.8924 169.336 66.2734C168.13 62.6554 167.587 61.5693 167.406 58.1313C167.225 54.6933 166.803 52.0404 166.019 50.9544C165.235 49.8684 164.572 47.8784 164.933 45.4664C165.295 43.0544 169.479 32.5063 169.479 32.5063L147.745 35.7563L110.171 42.5294Z" fill="#455A64"/>
<path d="M131.102 29.594C131.729 28.126 132.431 26.567 133.788 25.726C134.686 25.169 135.78 24.998 136.834 25.054C137.889 25.11 138.919 25.378 139.941 25.644C137.995 28.742 135.001 29.72 131.102 29.594Z" fill="#FF725E"/>
<path d="M156.395 4.07818C156.629 5.02918 157.348 5.81718 158.214 6.27318C159.081 6.72918 160.082 6.87918 161.06 6.85618C161.967 6.83418 162.864 6.66917 163.757 6.50417C164.436 6.37917 165.266 6.10018 165.343 5.41418C165.389 5.00318 165.124 4.62918 164.872 4.30118C163.88 3.00718 162.888 1.71317 161.896 0.418174C161.751 0.229174 161.58 0.0251739 161.343 0.00117389C160.984 -0.0348261 159.788 0.765177 159.252 1.30118C157.937 2.61518 157.724 2.77518 156.395 4.07818Z" fill="#263238"/>
<g opacity="0.3">
<path d="M110.056 38.758C109.075 38.863 108.08 38.83 107.108 38.66C107.905 38.294 108.514 37.541 108.704 36.685C105.965 36.026 102.966 36.534 100.597 38.057C98.9249 39.132 97.4889 40.716 95.5469 41.142C97.7739 42.608 100.539 43.235 103.18 42.873C105.821 42.511 108.315 41.162 110.065 39.151L110.056 38.758Z" fill="black"/>
</g>
<path d="M128.836 30.341C128.786 30.307 129.224 29.466 130.156 28.2429C130.631 27.6399 131.226 26.932 132.023 26.275C132.807 25.618 133.829 24.999 135.042 24.792C135.642 24.692 136.215 24.685 136.745 24.629C137.278 24.558 137.795 24.4889 138.298 24.4229C139.288 24.3119 140.063 23.962 140.515 23.377C140.985 22.827 141.154 22.237 141.186 21.836C141.223 21.428 141.149 21.198 141.193 21.186C141.215 21.175 141.361 21.389 141.388 21.838C141.419 22.278 141.291 22.959 140.803 23.606C140.565 23.926 140.234 24.247 139.801 24.469C139.371 24.691 138.877 24.81 138.373 24.896C137.859 24.974 137.37 25.06 136.8 25.136C136.242 25.201 135.677 25.213 135.129 25.305C134.039 25.49 133.09 26.04 132.325 26.648C131.55 27.252 130.942 27.915 130.441 28.476C129.454 29.618 128.904 30.389 128.836 30.341Z" fill="#263238"/>
<path d="M132.273 63.0023C132.256 63.0203 131.954 62.7843 131.506 62.2503C131.067 61.7143 130.488 60.8593 130.064 59.6573C129.634 58.4733 129.421 56.8833 129.68 55.2223C129.716 54.8293 129.644 54.4643 129.363 54.2803C129.097 54.0873 128.849 54.2583 128.602 54.6533C128.091 55.4223 127.561 56.2193 127.015 57.0393L126.588 57.6813L126.545 56.9103C126.498 56.0703 126.505 55.1883 126.584 54.2943C126.722 52.7123 127.067 51.2033 127.55 49.8383L127.869 50.1573C126.181 50.7373 124.807 51.7453 123.831 52.8313L123.457 53.2483L123.459 52.6943C123.467 50.5083 124.231 48.8143 124.89 47.7883C125.223 47.2693 125.536 46.9003 125.759 46.6613C125.987 46.4263 126.12 46.3153 126.135 46.3293C126.179 46.3673 125.693 46.8653 125.098 47.9123C124.516 48.9483 123.844 50.6063 123.883 52.6883L123.511 52.5513C124.505 51.3933 125.931 50.3123 127.704 49.6853L128.192 49.5123L128.023 50.0043C127.565 51.3353 127.237 52.8023 127.103 54.3403C127.027 55.2083 127.017 56.0663 127.059 56.8823L126.589 56.7533C127.141 55.9373 127.678 55.1443 128.196 54.3793C128.331 54.1873 128.481 53.9603 128.757 53.8133C129.035 53.6593 129.415 53.7173 129.634 53.8903C129.865 54.0553 130.02 54.2873 130.091 54.5483C130.157 54.7963 130.155 55.0403 130.134 55.2613C129.85 56.9193 130.019 58.3763 130.389 59.5523C131.147 61.9063 132.366 62.9433 132.273 63.0023Z" fill="#263238"/>
<path d="M145.513 87.9461C145.515 87.9671 145.31 88.0061 144.919 88.0431C144.528 88.0731 143.948 88.0911 143.212 88.0221C141.755 87.8871 139.603 87.3771 137.497 85.8491L137.834 85.6061C138.589 87.7931 139.185 90.4931 139.296 93.4441L139.32 94.0921L138.856 93.6391C138.361 93.1551 137.859 92.6231 137.376 92.0601C135.924 90.3721 134.765 88.5621 133.896 86.7991L134.36 86.6851C134.379 88.3631 134.397 89.9231 134.413 91.3381L134.42 91.9531L134.04 91.4741C132.596 89.6511 131.759 87.9161 131.283 86.6881C131.045 86.0721 130.894 85.5791 130.802 85.2411C130.714 84.9021 130.681 84.7191 130.701 84.7131C130.75 84.6981 130.97 85.4051 131.503 86.5961C132.039 87.7821 132.916 89.4561 134.365 91.2101L133.993 91.3461C133.955 89.9311 133.914 88.3711 133.869 86.6941L133.84 85.6051L134.333 86.5801C135.203 88.3001 136.348 90.0671 137.77 91.7201C138.243 92.2711 138.734 92.7941 139.217 93.2691L138.778 93.4631C138.679 90.5671 138.122 87.9111 137.42 85.7441L137.207 85.0861L137.757 85.5011C139.754 87.0081 141.823 87.5691 143.241 87.7731C144.677 87.9731 145.51 87.8841 145.513 87.9461Z" fill="#263238"/>
</svg>
