<svg width="234" height="281" viewBox="0 0 234 281" fill="none" xmlns="http://www.w3.org/2000/svg">
<path d="M84.4181 193.914L42.5469 54.5009L44.9579 51.0156L92.4172 210.348L84.4181 193.914Z" fill="url(#paint0_linear_629_35024)"/>
<path d="M110.418 238.741L144.285 21.7443L150.35 21.1855L114.525 238.363L110.418 238.741Z" fill="url(#paint1_linear_629_35024)"/>
<path d="M110.797 234.413L179.05 23.4814H182.66L113.381 234.413H110.797Z" fill="url(#paint2_linear_629_35024)"/>
<path d="M98.4636 207.248L91.168 91.473L94.8146 87.9492L102.659 210.755L98.4636 207.248Z" fill="url(#paint3_linear_629_35024)"/>
<path d="M127.491 138.971C127.491 138.971 126.836 119.368 129.562 110.164C132.289 100.961 160.262 75.0059 160.262 75.0059C160.262 75.0059 146.213 117.67 127.491 138.971Z" fill="url(#paint4_linear_629_35024)"/>
<path d="M94.0465 130.029C94.0465 130.029 87.7721 123.537 80.6739 109.264C73.5781 94.9905 72.5039 84.5107 72.5039 84.5107C72.5039 84.5107 84.5156 102.002 94.0465 130.029Z" fill="url(#paint5_linear_629_35024)"/>
<path d="M72.5028 145.203C72.5028 145.203 63.7764 134.875 57.2587 124.648C50.7386 114.421 42.5469 93.9287 42.5469 93.9287C42.5469 93.9287 60.9246 109.103 65.3757 119.566C69.8268 130.029 72.5028 145.203 72.5028 145.203Z" fill="url(#paint6_linear_629_35024)"/>
<path d="M150.199 116.159C150.199 116.159 165.087 99.082 174.213 96.0134C183.339 92.9448 208.341 85.9502 208.341 85.9502C208.341 85.9502 152.933 111.236 150.199 116.159Z" fill="url(#paint7_linear_629_35024)"/>
<path d="M62.2728 151.611C62.2728 151.611 32.0376 196.982 38.6589 250.381H200.775C200.775 250.381 199.59 186.753 168.317 151.611H62.2728Z" fill="url(#paint8_linear_629_35024)"/>
<path d="M62.2707 151.61L44.9648 140.343L141.564 141.824L191.916 138.794L168.315 151.61H62.2707Z" fill="url(#paint9_linear_629_35024)"/>
<path opacity="0.3" d="M99.7372 176.762C108.276 165.627 122.655 159.415 136.661 160.275C150.667 161.135 163.975 168.847 172.154 180.247C177.904 188.261 181.187 198.945 177.47 208.081C173.443 217.978 162.522 223.248 152.062 225.416C134.681 229.019 114.856 226.548 99.3807 217.557C85.6805 209.594 91.4781 187.531 99.7372 176.762Z" fill="#ADAACD"/>
<path opacity="0.3" d="M89.3936 162.006C87.303 163.348 85.8385 165.629 85.4917 168.09C85.3978 168.75 85.3857 169.441 85.6338 170.06C86.2408 171.571 88.1123 172.086 89.7381 172.163C93.7388 172.353 97.7924 171.043 100.924 168.545C101.93 167.743 102.925 166.553 102.593 165.308C102.41 164.624 101.858 164.111 101.326 163.644C99.5339 162.078 97.5588 160.57 95.2273 160.086C92.8957 159.605 90.1331 160.44 89.0733 162.574L89.3936 162.006Z" fill="#ADAACD"/>
<path d="M44.9648 140.344L49.5002 130.03H181.82L191.916 138.795L141.564 141.825L44.9648 140.344Z" fill="url(#paint10_linear_629_35024)"/>
<path d="M16.6438 248.167L3.5 280.122H234.004L225.489 248.167L118.436 255.171L16.6438 248.167Z" fill="url(#paint11_linear_629_35024)"/>
<path d="M16.6445 248.169L38.2232 246.3L38.4039 248.169H225.49L118.437 255.173L16.6445 248.169Z" fill="url(#paint12_linear_629_35024)"/>
<path d="M66.4062 280.122L72.3989 251.727L118.439 255.171L225.492 248.167L234.007 280.122H66.4062Z" fill="url(#paint13_linear_629_35024)"/>
<path d="M81.5165 248.207C81.4973 248.658 81.4756 248.903 81.4756 248.903L57.6063 248.352H57.2594L49.7734 248.169C49.7734 248.169 60.2004 164.537 74.6448 162.287C76.6054 161.981 78.1228 163.472 79.2862 166.459C85.7316 182.799 82.0079 241.172 81.5165 248.207Z" fill="url(#paint14_linear_629_35024)"/>
<path d="M104.211 248.167C104.211 248.167 104.264 164.128 115.854 162.285C127.444 160.443 140.398 248.167 140.398 248.167H104.211Z" fill="url(#paint15_linear_629_35024)"/>
<path d="M194.266 248.165H171.767C171.767 248.165 171.767 248.146 171.745 248.124C171.295 246.303 158.594 195.886 155.076 173.163C154.114 166.906 153.828 162.753 154.707 162.284C158.799 160.094 189.48 194.393 194.266 248.165Z" fill="url(#paint16_linear_629_35024)"/>
<path d="M81.5189 248.207L57.6086 248.349H57.2617C57.2617 248.349 60.0028 170.055 76.692 166.271C77.6338 166.066 78.5129 166.126 79.2885 166.454C85.7339 182.799 82.0102 241.171 81.5189 248.207Z" fill="url(#paint17_linear_629_35024)"/>
<path d="M104.211 248.168C104.211 248.168 106.034 175.727 114.151 172.461C122.268 169.195 135.626 248.341 135.626 248.341L104.211 248.168Z" fill="url(#paint18_linear_629_35024)"/>
<path d="M189.479 248.349L171.766 248.166C171.766 248.166 171.766 248.146 171.744 248.125C171.294 246.304 158.593 195.887 155.074 173.164C174.22 184.234 186.075 223.846 189.435 248.166C189.457 248.226 189.457 248.289 189.479 248.349Z" fill="url(#paint19_linear_629_35024)"/>
<path opacity="0.3" d="M203.698 265.292C201.608 266.634 200.143 268.914 199.796 271.376C199.702 272.036 199.69 272.727 199.939 273.346C200.545 274.856 202.417 275.372 204.043 275.449C208.043 275.639 212.097 274.329 215.228 271.831C216.235 271.029 217.23 269.839 216.898 268.594C216.714 267.91 216.163 267.397 215.631 266.93C213.839 265.364 211.864 263.856 209.532 263.372C207.2 262.891 204.438 263.729 203.378 265.858L203.698 265.292Z" fill="#ADAACD"/>
<path opacity="0.3" d="M179.022 256.323C175.462 258.606 172.969 262.491 172.379 266.68C172.22 267.802 172.198 268.983 172.62 270.033C173.653 272.603 176.839 273.482 179.607 273.614C186.419 273.94 193.322 271.707 198.652 267.453C200.364 266.085 202.06 264.059 201.492 261.942C201.178 260.779 200.244 259.902 199.336 259.11C196.284 256.443 192.919 253.876 188.952 253.055C184.983 252.233 180.281 253.659 178.475 257.289L179.022 256.323Z" fill="#ADAACD"/>
<path opacity="0.57" d="M168.315 151.611L179.058 166.068C179.058 166.068 98.1068 164.719 42.5547 198.203C42.5547 198.203 51.2979 166.985 62.2716 151.611H168.315Z" fill="url(#paint20_linear_629_35024)"/>
<path opacity="0.47" d="M40.4788 207.249C40.4788 207.249 42.0202 226.877 49.7711 234.837C57.522 242.798 153.404 241.692 172.271 234.837C191.137 227.982 195.188 209.28 195.188 209.28C195.188 209.28 201.065 240.522 200.685 248.162L38.4025 248.164C38.4025 248.164 36.9502 221.166 40.4788 207.249Z" fill="url(#paint21_linear_629_35024)"/>
<path d="M66.4062 250.947L70.1492 263.241L78.6131 255.172V252.19L66.4062 250.947Z" fill="#ADAACD"/>
<path opacity="0.57" d="M3.5 280.123C3.5 280.123 19.7196 275.867 30.6282 275.308C41.5368 274.75 66.4008 280.123 66.4008 280.123C66.4008 280.123 146.186 274.615 165.616 275.308C185.046 276.002 234.001 280.123 234.001 280.123H3.5Z" fill="url(#paint22_linear_629_35024)"/>
<path d="M34.3305 62.7827C34.3305 62.7827 41.4408 75.9361 40.0317 80.4378C38.6227 84.9395 11.1236 82.9621 5.97161 74.4621C0.819592 65.9621 7.68412 60.916 7.68412 60.916H8.77523L34.3305 62.7827Z" fill="url(#paint23_linear_629_35024)"/>
<path d="M40.5742 63.3658C40.5742 63.3658 63.5885 58.9749 59.1374 45.9901C54.6863 33.0029 40.0155 40.0288 40.0155 40.0288C40.0155 40.0288 29.9764 25.24 12.0274 31.9889C-5.9191 38.7378 -1.97862 62.571 12.0274 65.9984C12.0274 65.9984 25.0146 78.4895 46.1261 72.8221C67.2423 67.1522 40.5742 63.3658 40.5742 63.3658Z" fill="url(#paint24_linear_629_35024)"/>
<path d="M37.074 61.4739C37.074 61.4739 27.2421 67.5484 13.619 63.6104C-0.00168228 59.6723 7.10612 41.5427 15.3002 37.0868C23.4943 32.6308 37.628 35.5621 43.1365 45.4374C48.645 55.3127 39.3574 60.3588 37.074 61.4739Z" fill="url(#paint25_linear_629_35024)"/>
<path d="M39.8734 43.1983C41.4149 46.515 30.8243 58.7869 23.7647 61.1015C16.705 63.4162 7.79313 59.2661 7.67752 50.0002C7.5619 40.7343 13.2294 37.0805 22.688 35.1054C32.149 33.1304 38.2741 39.7612 39.8734 43.1983Z" fill="url(#paint26_linear_629_35024)"/>
<path d="M39.4209 46.2217C39.4209 46.2217 34.1869 39.1982 29.2108 38.0565C24.2346 36.9148 15.0915 39.9232 12.5456 44.0901C9.99967 48.257 12.5456 57.9781 12.5456 57.9781C12.5456 57.9781 28.2208 60.6228 39.4209 46.2217Z" fill="url(#paint27_linear_629_35024)"/>
<path d="M31.704 39.0684C31.704 39.0684 34.7557 43.5508 28.6114 48.9942C23.8592 53.2045 11.4163 49.9841 11.4163 49.9841C11.4163 49.9841 10.9081 58.436 12.2304 59.2886C12.2304 59.2886 17.6956 62.3331 26.4244 58.1686C35.1532 54.0041 39.4236 46.2244 39.4236 46.2244C39.4236 46.2244 34.1969 40.0776 31.704 39.0684Z" fill="url(#paint28_linear_629_35024)"/>
<path d="M20.1846 43.3916L28.6099 48.2378C28.6099 48.2378 27.4297 51.3304 19.4211 50.8583L18 48.2378C18 48.2378 18.7371 45.3715 20.1846 43.3916Z" fill="url(#paint29_linear_629_35024)"/>
<path d="M13.125 47.9898C13.125 47.9898 17.0847 36.9391 29.86 39.0683C29.86 39.0683 30.6524 43.9746 28.1379 46.4049C28.1379 46.4049 29.0531 43.1003 26.4229 41.0819C23.7927 39.0611 14.9001 44.4829 13.125 47.9898Z" fill="url(#paint30_linear_629_35024)"/>
<path d="M20.1783 43.3916C20.1783 43.3916 17.5384 50.0297 23.071 49.5095C23.071 49.5095 13.6967 51.0269 20.1783 43.3916Z" fill="url(#paint31_linear_629_35024)"/>
<path d="M78.804 97.4995C78.804 97.4995 71.6937 110.653 73.1028 115.155C74.5118 119.656 102.011 117.679 107.163 109.179C112.315 100.679 105.45 95.6328 105.45 95.6328H104.359L78.804 97.4995Z" fill="url(#paint32_linear_629_35024)"/>
<path d="M72.5564 98.0827C72.5564 98.0827 49.5422 93.6917 53.9933 80.7069C58.4444 67.7221 73.1152 74.7457 73.1152 74.7457C73.1152 74.7457 83.1543 59.9568 101.103 66.7057C119.05 73.4546 115.109 97.2878 101.103 100.713C101.103 100.713 88.1161 113.204 67.0046 107.536C45.8883 101.869 72.5564 98.0827 72.5564 98.0827Z" fill="url(#paint33_linear_629_35024)"/>
<path d="M76.0515 96.1907C76.0515 96.1907 85.8835 102.265 99.5066 98.3271C113.127 94.3891 106.019 76.2595 97.8254 71.8036C89.6313 67.3476 75.4976 70.2789 69.9891 80.1542C64.4806 90.0295 73.7682 95.0755 76.0515 96.1907Z" fill="url(#paint34_linear_629_35024)"/>
<path d="M73.2567 77.9151C71.7151 81.2318 82.3058 93.5037 89.3655 95.8183C96.4251 98.133 105.337 93.9829 105.453 84.717C105.568 75.4511 99.9007 71.7973 90.4421 69.8222C80.9811 67.8472 74.8536 74.478 73.2567 77.9151Z" fill="url(#paint35_linear_629_35024)"/>
<path d="M73.7148 80.9384C73.7148 80.9384 78.9488 73.915 83.925 72.7733C88.9012 71.6316 98.0443 74.64 100.59 78.8044C103.136 82.9713 100.59 92.6925 100.59 92.6925C100.59 92.6925 84.9149 95.3395 73.7148 80.9384Z" fill="url(#paint36_linear_629_35024)"/>
<path d="M81.4321 73.7852C81.4321 73.7852 78.3803 78.2676 84.5247 83.711C89.2769 87.9213 101.72 84.701 101.72 84.701C101.72 84.701 102.228 93.1528 100.908 94.0054C100.908 94.0054 95.4429 97.0499 86.7141 92.8854C77.9853 88.7209 73.7148 80.9412 73.7148 80.9412C73.7148 80.9412 78.9391 74.7944 81.4321 73.7852Z" fill="url(#paint37_linear_629_35024)"/>
<path d="M92.9526 78.1084L84.5273 82.9545C84.5273 82.9545 85.7076 86.0471 93.7162 85.575L95.1373 82.9545C95.1373 82.9545 94.4002 80.0883 92.9526 78.1084Z" fill="url(#paint38_linear_629_35024)"/>
<path d="M100.006 82.7066C100.006 82.7066 96.046 71.6559 83.2708 73.7851C83.2708 73.7851 82.4783 78.6914 84.9929 81.1217C84.9929 81.1217 84.0777 77.8195 86.7079 75.7987C89.3381 73.7779 98.2306 79.1997 100.006 82.7066Z" fill="url(#paint39_linear_629_35024)"/>
<path d="M92.9513 78.1084C92.9513 78.1084 95.5912 84.7465 90.0586 84.2262C90.0586 84.2262 99.4329 85.7461 92.9513 78.1084Z" fill="url(#paint40_linear_629_35024)"/>
<path d="M153.309 39.707C153.309 39.707 164.239 49.8112 162.89 55.8881C161.869 60.4934 143.26 68.7717 134.553 63.9738C125.848 59.1758 129.28 51.3792 129.28 51.3792L130.225 50.8349L153.309 39.707Z" fill="url(#paint41_linear_629_35024)"/>
<path d="M136.875 12.3418C136.875 12.3418 144.628 -0.447925 151.033 0.0121198C155.884 0.361368 172.749 12.9704 169.839 22.6603C166.93 32.3501 153.88 35.2814 153.88 35.2814L153.126 34.3926L136.875 12.3418Z" fill="url(#paint42_linear_629_35024)"/>
<path d="M141.614 53.183C141.614 53.183 149.393 43.262 154.94 30.7035C160.487 18.1474 157.045 35.6652 157.045 35.6652C157.045 35.6652 159.712 17.9909 141.951 10.7626C124.19 3.5368 110.906 23.7113 118.867 35.7351C118.867 35.7351 99.976 37.5247 119.327 47.6938C138.677 57.8654 141.614 53.183 141.614 53.183Z" fill="url(#paint43_linear_629_35024)"/>
<path d="M140.324 49.4177C140.324 49.4177 128.98 47.2042 121.65 35.0672C114.321 22.9302 131.846 14.4399 140.888 16.7305C149.93 19.0211 158.319 30.7679 155.66 41.7584C153.006 52.7512 142.759 50.1475 140.324 49.4177Z" fill="url(#paint44_linear_629_35024)"/>
<path d="M154.791 37.8965C153.671 41.377 137.565 43.2003 130.811 40.1076C124.055 37.015 120.329 27.92 126.533 21.0362C132.738 14.1524 139.381 15.3182 147.666 20.2896C155.952 25.2609 155.952 34.2908 154.791 37.8965Z" fill="url(#paint45_linear_629_35024)"/>
<path d="M152.396 39.8065C152.396 39.8065 153.32 31.0969 150.44 26.8795C147.561 22.662 138.806 18.6661 134.107 19.998C129.41 21.33 124.68 30.1961 124.68 30.1961C124.68 30.1961 134.398 42.7787 152.396 39.8065Z" fill="url(#paint46_linear_629_35024)"/>
<path d="M151.593 29.3132C151.593 29.3132 150.791 34.6748 142.585 34.5014C136.238 34.3665 129.287 23.5566 129.287 23.5566C129.287 23.5566 123.176 29.4192 123.569 30.9415C123.569 30.9415 125.515 36.8883 134.752 39.7545C143.989 42.6208 152.405 39.8051 152.405 39.8051C152.405 39.8051 152.735 31.7483 151.593 29.3132Z" fill="url(#paint47_linear_629_35024)"/>
<path d="M140.199 24.6719L143.097 33.9498C143.097 33.9498 140.132 35.4191 134.57 29.6384L135.307 26.7505C135.307 26.7505 137.793 25.1416 140.199 24.6719Z" fill="url(#paint48_linear_629_35024)"/>
<path d="M131.887 23.2558C131.887 23.2558 142.297 17.8292 150.233 28.0634C150.233 28.0634 147.485 32.2038 143.99 32.2809C143.99 32.2809 146.904 30.4768 146.343 27.2084C145.782 23.9375 135.572 21.8829 131.887 23.2558Z" fill="url(#paint49_linear_629_35024)"/>
<path d="M140.194 24.6719C140.194 24.6719 133.751 27.7549 138.166 31.1294C138.166 31.1294 130.251 25.8786 140.194 24.6719Z" fill="url(#paint50_linear_629_35024)"/>
<path d="M158.049 44.3609C164.273 35.8537 158.815 25.9061 157.562 26.2048C156.31 26.5035 148.304 46.519 139.406 52.1551C139.406 52.1551 147.232 59.1449 158.049 44.3609Z" fill="url(#paint51_linear_629_35024)"/>
<path d="M173.871 40.2726C173.871 40.2726 179.387 50.579 182.405 54.8784C185.423 59.1777 205.328 53.8282 207.917 43.0641C210.506 32.3001 190.059 35.3156 190.059 35.3156L187.186 36.8331L173.871 40.2726Z" fill="url(#paint52_linear_629_35024)"/>
<path d="M168.329 43.1287C168.329 43.1287 149.573 31.3939 150.435 16.1281C151.194 2.68328 161.021 18.1755 161.021 18.1755C161.021 18.1755 166.667 -0.917605 187.997 0.168678C209.328 1.25496 209.721 33.9012 185.398 35.0357C161.076 36.1702 168.329 43.1287 168.329 43.1287Z" fill="url(#paint53_linear_629_35024)"/>
<path d="M171.4 39.9371C171.4 39.9371 183.891 43.0539 197.011 34.2649C210.13 25.4758 196.452 8.64202 186.246 6.68864C176.041 4.73526 162.038 12.6307 159.535 24.9748C157.035 37.3189 168.599 39.5276 171.4 39.9371Z" fill="url(#paint54_linear_629_35024)"/>
<path d="M162.247 21.491C161.734 25.5326 177.127 34.9671 185.401 35.0345C193.674 35.0996 201.726 27.6811 198.713 17.8082C195.698 7.9353 188.448 5.97712 177.741 7.08508C167.035 8.19304 162.777 17.3048 162.247 21.491Z" fill="url(#paint55_linear_629_35024)"/>
<path d="M164.238 23.4338C164.238 23.4338 166.931 15.3216 171.825 12.4241C176.72 9.52652 187.44 9.62524 191.552 13.1828C195.663 16.7427 195.447 25.5341 195.447 25.5341C195.447 25.5341 181 34.9229 164.238 23.4338Z" fill="url(#paint56_linear_629_35024)"/>
<path d="M169.524 14.3408C169.524 14.3408 167.804 20.1287 176.167 23.8259C182.634 26.6849 194.749 19.0545 194.749 19.0545C194.749 19.0545 198.129 23.6453 197.016 24.9965C197.016 24.9965 190.679 31.2155 180.006 29.7511C169.334 28.2867 163.758 24.5461 163.758 24.5461C163.758 24.5461 167.221 16.2557 169.524 14.3408Z" fill="url(#paint57_linear_629_35024)"/>
<path d="M183.215 15.0293L175.914 23.0234C175.914 23.0234 178.212 25.9041 186.551 22.6935L187.17 19.4322C187.17 19.4322 185.421 16.6407 183.215 15.0293Z" fill="url(#paint58_linear_629_35024)"/>
<path d="M192.259 17.518C192.259 17.518 184.316 7.13211 171.48 13.7148C171.48 13.7148 172.299 19.1896 175.792 20.9166C175.792 20.9166 173.701 17.7203 175.811 14.6879C177.916 11.6555 189.189 14.3965 192.259 17.518Z" fill="url(#paint59_linear_629_35024)"/>
<path d="M183.207 15.0293C183.207 15.0293 188.255 21.1785 182.207 22.5008C182.207 22.5008 192.67 20.9376 183.207 15.0293Z" fill="url(#paint60_linear_629_35024)"/>
<path d="M197.01 34.2642C197.01 34.2642 183.081 45.9243 165.941 43.3158C165.941 43.3158 160.514 30.2972 164.231 25.875C164.231 25.875 172.914 36.3404 197.01 34.2642Z" fill="url(#paint61_linear_629_35024)"/>
<path d="M100.016 129.964C100.016 129.964 120.067 138.888 140.203 139.791C160.339 140.694 181.819 130.029 181.819 130.029L100.016 129.964Z" fill="#AA9DB9"/>
<defs>
<linearGradient id="paint0_linear_629_35024" x1="109.869" y1="199.977" x2="27.5059" y2="61.3873" gradientUnits="userSpaceOnUse">
<stop stop-color="#736300"/>
<stop offset="1" stop-color="#504F00"/>
</linearGradient>
<linearGradient id="paint1_linear_629_35024" x1="176.45" y1="193.378" x2="83.7277" y2="65.7353" gradientUnits="userSpaceOnUse">
<stop stop-color="#736300"/>
<stop offset="1" stop-color="#504F00"/>
</linearGradient>
<linearGradient id="paint2_linear_629_35024" x1="184.344" y1="192.241" x2="108.846" y2="65.2022" gradientUnits="userSpaceOnUse">
<stop stop-color="#736300"/>
<stop offset="1" stop-color="#504F00"/>
</linearGradient>
<linearGradient id="paint3_linear_629_35024" x1="125.947" y1="196.914" x2="69.9663" y2="102.717" gradientUnits="userSpaceOnUse">
<stop stop-color="#736300"/>
<stop offset="1" stop-color="#504F00"/>
</linearGradient>
<linearGradient id="paint4_linear_629_35024" x1="153.647" y1="123.426" x2="134.108" y2="90.5479" gradientUnits="userSpaceOnUse">
<stop stop-color="#736300"/>
<stop offset="1" stop-color="#504F00"/>
</linearGradient>
<linearGradient id="paint5_linear_629_35024" x1="95.6003" y1="129.105" x2="69.987" y2="86.0062" gradientUnits="userSpaceOnUse">
<stop stop-color="#736300"/>
<stop offset="1" stop-color="#504F00"/>
</linearGradient>
<linearGradient id="paint6_linear_629_35024" x1="74.4487" y1="144.046" x2="44.1113" y2="92.998" gradientUnits="userSpaceOnUse">
<stop stop-color="#736300"/>
<stop offset="1" stop-color="#504F00"/>
</linearGradient>
<linearGradient id="paint7_linear_629_35024" x1="180.225" y1="102.66" x2="175.551" y2="94.7948" gradientUnits="userSpaceOnUse">
<stop stop-color="#736300"/>
<stop offset="1" stop-color="#504F00"/>
</linearGradient>
<linearGradient id="paint8_linear_629_35024" x1="104.063" y1="273.386" x2="149.253" y2="144.907" gradientUnits="userSpaceOnUse">
<stop stop-color="#7F7AA2"/>
<stop offset="1" stop-color="#B17D95"/>
</linearGradient>
<linearGradient id="paint9_linear_629_35024" x1="108.487" y1="167.867" x2="126.772" y2="115.881" gradientUnits="userSpaceOnUse">
<stop stop-color="#57507B"/>
<stop offset="1" stop-color="#684748"/>
</linearGradient>
<linearGradient id="paint10_linear_629_35024" x1="110.108" y1="163.258" x2="128.404" y2="111.242" gradientUnits="userSpaceOnUse">
<stop stop-color="#7F7AA2"/>
<stop offset="1" stop-color="#AC8D8D"/>
</linearGradient>
<linearGradient id="paint11_linear_629_35024" x1="106.064" y1="316.197" x2="140.506" y2="218.275" gradientUnits="userSpaceOnUse">
<stop stop-color="#5B618D"/>
<stop offset="1" stop-color="#75485E"/>
</linearGradient>
<linearGradient id="paint12_linear_629_35024" x1="16.644" y1="250.736" x2="225.491" y2="250.736" gradientUnits="userSpaceOnUse">
<stop stop-color="#BFABCD"/>
<stop offset="1" stop-color="#9594D3"/>
</linearGradient>
<linearGradient id="paint13_linear_629_35024" x1="66.407" y1="264.144" x2="234.008" y2="264.144" gradientUnits="userSpaceOnUse">
<stop stop-color="#6F77A2"/>
<stop offset="1" stop-color="#AC8195"/>
</linearGradient>
<linearGradient id="paint14_linear_629_35024" x1="59.4243" y1="251.56" x2="89.1648" y2="167.005" gradientUnits="userSpaceOnUse">
<stop stop-color="#5D5883"/>
<stop offset="1" stop-color="#8E5E70"/>
</linearGradient>
<linearGradient id="paint15_linear_629_35024" x1="110.971" y1="250.544" x2="139.229" y2="170.204" gradientUnits="userSpaceOnUse">
<stop stop-color="#5D5883"/>
<stop offset="1" stop-color="#8E5E70"/>
</linearGradient>
<linearGradient id="paint16_linear_629_35024" x1="160.676" y1="244.264" x2="185.794" y2="172.853" gradientUnits="userSpaceOnUse">
<stop stop-color="#5D5883"/>
<stop offset="1" stop-color="#8E5E70"/>
</linearGradient>
<linearGradient id="paint17_linear_629_35024" x1="61.6011" y1="249.876" x2="89.6618" y2="170.097" gradientUnits="userSpaceOnUse">
<stop stop-color="#837FA5"/>
<stop offset="1" stop-color="#815A7A"/>
</linearGradient>
<linearGradient id="paint18_linear_629_35024" x1="110.219" y1="250.281" x2="135.123" y2="179.479" gradientUnits="userSpaceOnUse">
<stop stop-color="#837FA5"/>
<stop offset="1" stop-color="#815A7A"/>
</linearGradient>
<linearGradient id="paint19_linear_629_35024" x1="160.511" y1="244.207" x2="182.15" y2="182.687" gradientUnits="userSpaceOnUse">
<stop stop-color="#837FA5"/>
<stop offset="1" stop-color="#815A7A"/>
</linearGradient>
<linearGradient id="paint20_linear_629_35024" x1="42.554" y1="174.908" x2="179.057" y2="174.908" gradientUnits="userSpaceOnUse">
<stop stop-color="#76424F"/>
<stop offset="1" stop-color="#BB9D9F"/>
</linearGradient>
<linearGradient id="paint21_linear_629_35024" x1="119.404" y1="248.166" x2="119.404" y2="207.25" gradientUnits="userSpaceOnUse">
<stop stop-color="#AB8997"/>
<stop offset="1" stop-color="white"/>
</linearGradient>
<linearGradient id="paint22_linear_629_35024" x1="3.50096" y1="277.686" x2="234.005" y2="277.686" gradientUnits="userSpaceOnUse">
<stop stop-color="#76424F"/>
<stop offset="1" stop-color="#BB9D9F"/>
</linearGradient>
<linearGradient id="paint23_linear_629_35024" x1="22.1363" y1="82.7816" x2="22.1363" y2="60.9146" gradientUnits="userSpaceOnUse">
<stop offset="0.004" stop-color="#AE0051"/>
<stop offset="1" stop-color="#E53961"/>
</linearGradient>
<linearGradient id="paint24_linear_629_35024" x1="29.8564" y1="74.2944" x2="29.8564" y2="30.2232" gradientUnits="userSpaceOnUse">
<stop stop-color="#FF5459"/>
<stop offset="0.996" stop-color="#FF2C51"/>
</linearGradient>
<linearGradient id="paint25_linear_629_35024" x1="25.4116" y1="64.9399" x2="25.4116" y2="35.0604" gradientUnits="userSpaceOnUse">
<stop offset="0.004" stop-color="#C90051"/>
<stop offset="1" stop-color="#FF5461"/>
</linearGradient>
<linearGradient id="paint26_linear_629_35024" x1="23.8496" y1="61.7297" x2="23.8496" y2="34.7448" gradientUnits="userSpaceOnUse">
<stop offset="0.004" stop-color="#C90051"/>
<stop offset="1" stop-color="#B31B61"/>
</linearGradient>
<linearGradient id="paint27_linear_629_35024" x1="25.4172" y1="58.1669" x2="25.4172" y2="37.812" gradientUnits="userSpaceOnUse">
<stop offset="0.4643" stop-color="#A10051"/>
<stop offset="1" stop-color="#FF5461"/>
</linearGradient>
<linearGradient id="paint28_linear_629_35024" x1="25.372" y1="60.3607" x2="25.372" y2="39.0674" gradientUnits="userSpaceOnUse">
<stop offset="0.004" stop-color="#AE0051"/>
<stop offset="1" stop-color="#FF5461"/>
</linearGradient>
<linearGradient id="paint29_linear_629_35024" x1="23.3069" y1="50.9077" x2="23.3069" y2="43.3923" gradientUnits="userSpaceOnUse">
<stop offset="0.004" stop-color="#AE0051"/>
<stop offset="1" stop-color="#E53961"/>
</linearGradient>
<linearGradient id="paint30_linear_629_35024" x1="21.5525" y1="47.9898" x2="21.5525" y2="38.7952" gradientUnits="userSpaceOnUse">
<stop offset="0.004" stop-color="#C90051"/>
<stop offset="1" stop-color="#FF5461"/>
</linearGradient>
<linearGradient id="paint31_linear_629_35024" x1="20.4835" y1="49.6335" x2="20.4835" y2="43.3923" gradientUnits="userSpaceOnUse">
<stop offset="0.004" stop-color="#C90051"/>
<stop offset="1" stop-color="#FF5461"/>
</linearGradient>
<linearGradient id="paint32_linear_629_35024" x1="90.9985" y1="117.499" x2="90.9985" y2="95.6314" gradientUnits="userSpaceOnUse">
<stop offset="0.004" stop-color="#AE0051"/>
<stop offset="1" stop-color="#E53961"/>
</linearGradient>
<linearGradient id="paint33_linear_629_35024" x1="83.2745" y1="109.011" x2="83.2745" y2="64.9402" gradientUnits="userSpaceOnUse">
<stop stop-color="#FF5459"/>
<stop offset="0.996" stop-color="#FF2C51"/>
</linearGradient>
<linearGradient id="paint34_linear_629_35024" x1="87.7143" y1="99.6567" x2="87.7143" y2="69.7774" gradientUnits="userSpaceOnUse">
<stop offset="0.004" stop-color="#C90051"/>
<stop offset="1" stop-color="#FF5461"/>
</linearGradient>
<linearGradient id="paint35_linear_629_35024" x1="89.2782" y1="96.4465" x2="89.2782" y2="69.4619" gradientUnits="userSpaceOnUse">
<stop offset="0.004" stop-color="#C90051"/>
<stop offset="1" stop-color="#B31B61"/>
</linearGradient>
<linearGradient id="paint36_linear_629_35024" x1="87.7188" y1="92.8839" x2="87.7188" y2="72.5291" gradientUnits="userSpaceOnUse">
<stop offset="0.4643" stop-color="#A10051"/>
<stop offset="1" stop-color="#FF5461"/>
</linearGradient>
<linearGradient id="paint37_linear_629_35024" x1="87.7643" y1="95.0777" x2="87.7643" y2="73.7842" gradientUnits="userSpaceOnUse">
<stop offset="0.004" stop-color="#AE0051"/>
<stop offset="1" stop-color="#FF5461"/>
</linearGradient>
<linearGradient id="paint38_linear_629_35024" x1="89.8309" y1="85.6246" x2="89.8309" y2="78.1091" gradientUnits="userSpaceOnUse">
<stop offset="0.004" stop-color="#AE0051"/>
<stop offset="1" stop-color="#E53961"/>
</linearGradient>
<linearGradient id="paint39_linear_629_35024" x1="91.5788" y1="82.7066" x2="91.5788" y2="73.512" gradientUnits="userSpaceOnUse">
<stop offset="0.004" stop-color="#C90051"/>
<stop offset="1" stop-color="#FF5461"/>
</linearGradient>
<linearGradient id="paint40_linear_629_35024" x1="92.6464" y1="84.3503" x2="92.6464" y2="78.1091" gradientUnits="userSpaceOnUse">
<stop offset="0.004" stop-color="#C90051"/>
<stop offset="1" stop-color="#FF5461"/>
</linearGradient>
<linearGradient id="paint41_linear_629_35024" x1="151.252" y1="64.4365" x2="140.14" y2="45.1294" gradientUnits="userSpaceOnUse">
<stop offset="0.004" stop-color="#AE0051"/>
<stop offset="1" stop-color="#E53961"/>
</linearGradient>
<linearGradient id="paint42_linear_629_35024" x1="164.078" y1="8.47622" x2="144.921" y2="24.7164" gradientUnits="userSpaceOnUse">
<stop offset="0.004" stop-color="#AE0051"/>
<stop offset="1" stop-color="#E53961"/>
</linearGradient>
<linearGradient id="paint43_linear_629_35024" x1="118.275" y1="48.549" x2="149.216" y2="15.0775" gradientUnits="userSpaceOnUse">
<stop stop-color="#FF5459"/>
<stop offset="0.996" stop-color="#FF2C51"/>
</linearGradient>
<linearGradient id="paint44_linear_629_35024" x1="129.409" y1="44.0453" x2="149.691" y2="22.1044" gradientUnits="userSpaceOnUse">
<stop offset="0.004" stop-color="#C90051"/>
<stop offset="1" stop-color="#FF5461"/>
</linearGradient>
<linearGradient id="paint45_linear_629_35024" x1="130.447" y1="40.6294" x2="148.764" y2="20.814" gradientUnits="userSpaceOnUse">
<stop offset="0.004" stop-color="#C90051"/>
<stop offset="1" stop-color="#B31B61"/>
</linearGradient>
<linearGradient id="paint46_linear_629_35024" x1="134.005" y1="39.0719" x2="147.822" y2="24.1249" gradientUnits="userSpaceOnUse">
<stop offset="0.4643" stop-color="#A10051"/>
<stop offset="1" stop-color="#FF5461"/>
</linearGradient>
<linearGradient id="paint47_linear_629_35024" x1="132.488" y1="40.6509" x2="146.942" y2="25.0149" gradientUnits="userSpaceOnUse">
<stop offset="0.004" stop-color="#AE0051"/>
<stop offset="1" stop-color="#FF5461"/>
</linearGradient>
<linearGradient id="paint48_linear_629_35024" x1="137.39" y1="32.3088" x2="142.492" y2="26.7901" gradientUnits="userSpaceOnUse">
<stop offset="0.004" stop-color="#AE0051"/>
<stop offset="1" stop-color="#E53961"/>
</linearGradient>
<linearGradient id="paint49_linear_629_35024" x1="138.075" y1="28.9754" x2="144.316" y2="22.2234" gradientUnits="userSpaceOnUse">
<stop offset="0.004" stop-color="#C90051"/>
<stop offset="1" stop-color="#FF5461"/>
</linearGradient>
<linearGradient id="paint50_linear_629_35024" x1="136.181" y1="29.4611" x2="140.417" y2="24.878" gradientUnits="userSpaceOnUse">
<stop offset="0.004" stop-color="#C90051"/>
<stop offset="1" stop-color="#FF5461"/>
</linearGradient>
<linearGradient id="paint51_linear_629_35024" x1="141.001" y1="53.629" x2="162.425" y2="30.4537" gradientUnits="userSpaceOnUse">
<stop stop-color="#FF5459"/>
<stop offset="0.996" stop-color="#FF2C51"/>
</linearGradient>
<linearGradient id="paint52_linear_629_35024" x1="195.55" y1="54.5934" x2="189.402" y2="35.3188" gradientUnits="userSpaceOnUse">
<stop stop-color="#F39AA0"/>
<stop offset="1" stop-color="#FF9F92"/>
</linearGradient>
<linearGradient id="paint53_linear_629_35024" x1="183.839" y1="38.182" x2="172.62" y2="3.01207" gradientUnits="userSpaceOnUse">
<stop stop-color="#F39AA0"/>
<stop offset="1" stop-color="#FFCAA1"/>
</linearGradient>
<linearGradient id="paint54_linear_629_35024" x1="184.948" y1="39.6659" x2="174.834" y2="7.95915" gradientUnits="userSpaceOnUse">
<stop stop-color="#FFB3A0"/>
<stop offset="1" stop-color="#FFEDC5"/>
</linearGradient>
<linearGradient id="paint55_linear_629_35024" x1="185.521" y1="35.7319" x2="176.387" y2="7.09729" gradientUnits="userSpaceOnUse">
<stop stop-color="#F39AA0"/>
<stop offset="1" stop-color="#FF9F92"/>
</linearGradient>
<linearGradient id="paint56_linear_629_35024" x1="182.385" y1="30.3282" x2="176.144" y2="10.7614" gradientUnits="userSpaceOnUse">
<stop stop-color="#FF6D8B"/>
<stop offset="1" stop-color="#FFB89C"/>
</linearGradient>
<linearGradient id="paint57_linear_629_35024" x1="182.746" y1="31.2287" x2="176.635" y2="12.0716" gradientUnits="userSpaceOnUse">
<stop stop-color="#FFB3A0"/>
<stop offset="1" stop-color="#FFEDC5"/>
</linearGradient>
<linearGradient id="paint58_linear_629_35024" x1="182.447" y1="24.0613" x2="179.903" y2="16.0862" gradientUnits="userSpaceOnUse">
<stop stop-color="#FF6D8B"/>
<stop offset="1" stop-color="#FFB89C"/>
</linearGradient>
<linearGradient id="paint59_linear_629_35024" x1="183.316" y1="20.3712" x2="180.204" y2="10.6147" gradientUnits="userSpaceOnUse">
<stop stop-color="#FFB3A0"/>
<stop offset="1" stop-color="#FFEDC5"/>
</linearGradient>
<linearGradient id="paint60_linear_629_35024" x1="184.997" y1="21.7558" x2="182.884" y2="15.1326" gradientUnits="userSpaceOnUse">
<stop stop-color="#FFB3A0"/>
<stop offset="1" stop-color="#FFEDC5"/>
</linearGradient>
<linearGradient id="paint61_linear_629_35024" x1="182.396" y1="41.8936" x2="176.08" y2="22.0963" gradientUnits="userSpaceOnUse">
<stop stop-color="#FFB3A0"/>
<stop offset="1" stop-color="#FFEDC5"/>
</linearGradient>
</defs>
</svg>
