<svg width="61" height="54" viewBox="0 0 61 54" fill="none" xmlns="http://www.w3.org/2000/svg">
<g clip-path="url(#clip0_1664_12211)">
<path d="M44.5891 45.2017C44.848 44.8351 45.3566 44.7466 45.7281 45.0003C46.0973 45.2575 46.1863 45.7661 45.9273 46.1315C40.5695 53.7555 30.3484 56.2495 22.0363 51.947C20.0594 50.9205 18.2664 49.5426 16.7582 47.8633L16.6785 49.4367C16.6586 49.8859 16.2766 50.2316 15.8242 50.2118C15.3719 50.1885 15.0238 49.8091 15.0438 49.3611L15.2266 45.6765C15.2371 45.1714 15.6379 44.8188 16.1102 44.8548L19.8637 45.1481C20.316 45.1842 20.6512 45.5776 20.6148 46.0256C20.582 46.4714 20.1859 46.8077 19.7348 46.7716L17.8352 46.6226C22.9844 52.501 31.5473 54.114 38.5141 50.5051C40.9059 49.2703 43.0012 47.4652 44.5891 45.2017ZM16.5332 8.89015C16.2742 9.25907 15.7656 9.34868 15.3977 9.09148C15.0262 8.83428 14.9359 8.3292 15.1949 7.96377C20.5527 0.339757 30.7773 -2.15425 39.0859 2.14829C41.0629 3.17476 42.8559 4.55036 44.3676 6.22855L44.4437 4.6551C44.4637 4.20588 44.8492 3.86023 45.298 3.88351C45.7504 3.90329 46.0984 4.28269 46.0785 4.73075L45.8957 8.41532C45.8863 8.9204 45.4844 9.27653 45.0121 9.23696L41.2621 8.94368C40.8098 8.91109 40.4711 8.51773 40.5086 8.06967C40.5414 7.62161 40.9375 7.2876 41.3887 7.32135L43.2918 7.47032C38.1391 1.592 29.5762 -0.0186906 22.6129 3.5879C20.2176 4.82618 18.1211 6.63122 16.5332 8.89015ZM15.5301 13.2788C19.6727 13.2788 22.4465 17.4882 20.848 21.2426L26.425 17.5709V16.0265C26.425 14.2087 28.1652 11.2201 30.557 11.2201C32.9523 11.2201 34.6926 14.2087 34.6926 16.0265V17.5709L39.1715 20.5164C38.1777 16.8842 40.9293 13.2788 44.7426 13.2788C47.9313 13.2788 50.5164 15.845 50.5164 19.0093C50.5164 21.1111 49.3703 22.9814 47.6137 23.9845C50.5996 25.146 52.6527 28.0229 52.6527 31.3048V40.4359C52.6527 41.7824 51.55 42.8741 50.1941 42.8741H40.8203C39.4645 42.8741 38.3617 41.7824 38.3617 40.4359V28.919C38.3617 28.3511 38.452 27.8041 38.6137 27.2862L31.0797 22.3285C30.8875 22.2028 30.7141 22.0585 30.5582 21.8967C30.4059 22.0585 30.2324 22.2039 30.0402 22.3285L22.7617 27.1186V40.4359C22.7617 41.7824 21.659 42.8741 20.3066 42.8741H10.9293C9.57344 42.8741 8.4707 41.7824 8.4707 40.4359V29.6778C8.4707 27.0744 10.102 24.7922 12.4738 23.8717C9.33086 21.9223 8.81641 17.5709 11.4473 14.9582C12.4938 13.9177 13.9352 13.2788 15.5301 13.2788ZM18.4504 16.1092C16.8391 14.5054 14.2211 14.5054 12.6074 16.1092C10.9961 17.7094 10.9961 20.3093 12.6074 21.9118C14.2223 23.512 16.8391 23.512 18.4504 21.9118C20.0641 20.3081 20.0641 17.7082 18.4504 16.1092ZM47.6617 16.1092C46.0504 14.5054 43.4336 14.5054 41.8223 16.1092C40.2074 17.7094 40.2074 20.3093 41.8223 21.9118C43.4336 23.512 46.0504 23.512 47.6617 21.9118C49.2766 20.3081 49.2766 17.7082 47.6617 16.1092ZM42.1949 41.2471V32.8445C42.1949 29.9443 45.7527 28.4407 47.8457 30.5192C48.4469 31.1163 48.8195 31.9379 48.8195 32.8445V41.2471H50.1953C50.6441 41.2471 51.0121 40.8805 51.0121 40.4359V31.3048C51.0121 27.8774 48.1949 25.0797 44.7438 25.0797H43.873C41.7438 25.0797 40.0035 26.8056 40.0035 28.9202V40.4371C40.0035 40.8828 40.3727 41.2482 40.8203 41.2482H42.1949V41.2471ZM47.1777 41.2471V32.8445C47.1777 31.3898 45.3906 30.6147 44.3277 31.6737C44.0219 31.974 43.8355 32.3895 43.8355 32.8445V41.2471H47.1777ZM39.3414 25.814C39.8828 25.0354 40.6234 24.4023 41.4836 23.9892L33.4715 18.7137V18.7172C33.202 18.5485 33.0531 18.3052 33.0531 18.005V16.0254C33.0531 15.1409 32.3125 13.6896 31.3762 13.1054L31.3797 19.8484C31.3797 20.307 31.5953 20.7166 31.9844 20.9703L39.3414 25.814ZM14.8492 27.1373C14.4742 27.3851 13.9656 27.2827 13.716 26.9092C13.4641 26.5332 13.5695 26.0317 13.9457 25.7814L15.0191 25.0785H14.7473C12.1961 25.0785 10.1137 27.1431 10.1137 29.6767V40.4348C10.1137 40.8805 10.4828 41.2459 10.9305 41.2459H20.3078C20.7566 41.2459 21.1211 40.8793 21.1211 40.4348V28.1963L16.1453 31.4724C15.7703 31.7203 15.2617 31.6179 15.0121 31.242C14.7625 30.8695 14.8656 30.3645 15.2418 30.1166L29.1367 20.9715C29.5258 20.7178 29.7414 20.3081 29.7414 19.8496V13.1066C28.8051 13.6908 28.0668 15.142 28.0668 16.0265V18.0061H28.0633C28.0633 18.3064 27.9168 18.5508 27.6484 18.7184V18.7149L14.8492 27.1373ZM27.6484 18.7149C27.6449 18.7149 27.6449 18.7184 27.6484 18.7149V18.7149Z" fill="#6F899B"/>
</g>
<defs>
<clipPath id="clip0_1664_12211">
<rect width="60" height="54" fill="white" transform="translate(0.5)"/>
</clipPath>
</defs>
</svg>
