<svg width="16" height="16" viewBox="0 0 16 16" fill="none" xmlns="http://www.w3.org/2000/svg">
<g clip-path="url(#clip0_951_599)">
<path d="M16 13.8182V10.9091C16 10.7162 15.9298 10.5312 15.8047 10.3948C15.6797 10.2584 15.5101 10.1818 15.3333 10.1818C15.1565 10.1818 14.987 10.2584 14.8619 10.3948C14.7369 10.5312 14.6667 10.7162 14.6667 10.9091V13.8182C14.6667 14.0111 14.5964 14.1961 14.4714 14.3324C14.3464 14.4688 14.1768 14.5455 14 14.5455H2C1.82319 14.5455 1.65362 14.4688 1.5286 14.3324C1.40357 14.1961 1.33333 14.0111 1.33333 13.8182V10.9091C1.33333 10.7162 1.2631 10.5312 1.13807 10.3948C1.01305 10.2584 0.843478 10.1818 0.666667 10.1818C0.489856 10.1818 0.320287 10.2584 0.195262 10.3948C0.070238 10.5312 0 10.7162 0 10.9091V13.8182C0 14.3968 0.210714 14.9518 0.585786 15.361C0.960859 15.7701 1.46957 16 2 16H14C14.5304 16 15.0391 15.7701 15.4142 15.361C15.7893 14.9518 16 14.3968 16 13.8182ZM11.7467 10.0218L8.41333 12.9309C8.29564 13.0324 8.15001 13.0876 8 13.0876C7.84999 13.0876 7.70436 13.0324 7.58667 12.9309L4.25333 10.0218C4.13188 9.89675 4.05788 9.72651 4.04598 9.54477C4.03408 9.36303 4.08514 9.18304 4.18907 9.0404C4.29299 8.89777 4.44221 8.80289 4.60719 8.77453C4.77218 8.74618 4.94091 8.78641 5.08 8.88727L7.33333 10.8509V0.727273C7.33333 0.534388 7.40357 0.349403 7.5286 0.213013C7.65362 0.0766233 7.82319 0 8 0C8.17681 0 8.34638 0.0766233 8.47141 0.213013C8.59643 0.349403 8.66667 0.534388 8.66667 0.727273V10.8509L10.92 8.88727C10.9871 8.81814 11.0667 8.76498 11.1536 8.73114C11.2406 8.69731 11.333 8.68355 11.4251 8.69072C11.5172 8.6979 11.6069 8.72586 11.6886 8.77283C11.7702 8.81981 11.8421 8.88477 11.8995 8.9636C11.9569 9.04244 11.9987 9.13344 12.0223 9.23082C12.0458 9.3282 12.0505 9.42985 12.0362 9.52934C12.0218 9.62882 11.9886 9.72396 11.9388 9.80873C11.889 9.89351 11.8235 9.96607 11.7467 10.0218Z" fill="#244A65"/>
</g>
<defs>
<clipPath id="clip0_951_599">
<rect width="16" height="16" fill="white"/>
</clipPath>
</defs>
</svg>
