<svg width="16" height="16" viewBox="0 0 16 16" fill="none" xmlns="http://www.w3.org/2000/svg">
<path d="M14.87 3.8165C14.7923 3.64553 14.687 3.48845 14.5585 3.3515L11.6485 0.4415C11.3655 0.160735 10.9836 0.00221049 10.585 0L6.5 0C5.673 0 5 0.673 5 1.5V2H2.5C1.673 2 1 2.673 1 3.5V14.5C1 15.327 1.673 16 2.5 16H9.5C10.327 16 11 15.327 11 14.5V14H13.5C14.327 14 15 13.327 15 12.5V4.415C15 4.205 14.953 4.0025 14.87 3.8165ZM13.2925 3.5H12C11.8674 3.5 11.7402 3.44732 11.6464 3.35355C11.5527 3.25979 11.5 3.13261 11.5 3V1.707L13.2925 3.5ZM10 14.5C10 14.6326 9.94732 14.7598 9.85355 14.8536C9.75979 14.9473 9.63261 15 9.5 15H2.5C2.2245 15 2 14.776 2 14.5V3.5C2 3.224 2.2245 3 2.5 3H6.5V5C6.5 5.827 7.173 6.5 8 6.5H10V14.5ZM9.293 5.5H8C7.7245 5.5 7.5 5.276 7.5 5V3.707L9.293 5.5ZM13.5 13H11V6.414C11 6.034 10.8335 5.6265 10.5605 5.3535L7.6465 2.4395C7.364 2.15975 6.98306 2.00196 6.5855 2H6V1.5C6 1.224 6.2245 1 6.5 1H10.5V3C10.5 3.827 11.173 4.5 12 4.5H14V12.5C14 12.6326 13.9473 12.7598 13.8536 12.8536C13.7598 12.9473 13.6326 13 13.5 13Z" fill="#244A65"/>
</svg>
