<svg width="16" height="16" viewBox="0 0 16 16" fill="none" xmlns="http://www.w3.org/2000/svg">
<path d="M13.6569 2.34315C12.1566 0.842855 10.1217 0 8 0C5.87827 0 3.84344 0.842855 2.34315 2.34315C0.842855 3.84344 0 5.87827 0 8C0 10.1217 0.842855 12.1566 2.34315 13.6569C3.84344 15.1571 5.87827 16 8 16C10.1217 16 12.1566 15.1571 13.6569 13.6569C15.1571 12.1566 16 10.1217 16 8C16 5.87827 15.1571 3.84344 13.6569 2.34315ZM8 15C4.1402 15 1.00003 11.8598 1.00003 8C1.00003 4.1402 4.1402 1.00003 8 1.00003C11.8598 1.00003 15 4.1402 15 8C15 11.8598 11.8598 15 8 15ZM11.5198 6.37585C11.6136 6.46962 11.6662 6.59679 11.6662 6.7294C11.6662 6.862 11.6136 6.98917 11.5198 7.08294L8.35353 10.2492C8.25976 10.3429 8.1326 10.3956 8 10.3956C7.8674 10.3956 7.74024 10.3429 7.64647 10.2492L4.48023 7.08294C4.3874 6.98898 4.33553 6.86211 4.33593 6.73002C4.33633 6.59794 4.38898 6.47139 4.48237 6.37799C4.57577 6.28459 4.70233 6.23195 4.83441 6.23155C4.96649 6.23115 5.09336 6.28302 5.18732 6.37585L8 9.18853L10.8127 6.37585C10.9065 6.28209 11.0337 6.22941 11.1663 6.22941C11.2989 6.22941 11.426 6.28209 11.5198 6.37585Z" fill="#244A65"/>
</svg>
