<svg width="26" height="28" viewBox="0 0 26 28" fill="none" xmlns="http://www.w3.org/2000/svg">
<path d="M25.0225 6.67887C24.8864 6.37968 24.7023 6.10479 24.4774 5.86513L19.3849 0.772625C18.8896 0.281287 18.2214 0.00386837 17.5238 0L10.375 0C8.92775 0 7.75 1.17775 7.75 2.625V3.5H3.375C1.92775 3.5 0.75 4.67775 0.75 6.125V25.375C0.75 26.8223 1.92775 28 3.375 28H15.625C17.0723 28 18.25 26.8223 18.25 25.375V24.5H22.625C24.0723 24.5 25.25 23.3223 25.25 21.875V7.72625C25.25 7.35875 25.1677 7.00437 25.0225 6.67887ZM22.2619 6.125H20C19.7679 6.125 19.5454 6.03281 19.3813 5.86872C19.2172 5.70462 19.125 5.48206 19.125 5.25V2.98725L22.2619 6.125ZM16.5 25.375C16.5 25.6071 16.4078 25.8296 16.2437 25.9937C16.0796 26.1578 15.8571 26.25 15.625 26.25H3.375C2.89288 26.25 2.5 25.858 2.5 25.375V6.125C2.5 5.642 2.89288 5.25 3.375 5.25H10.375V8.75C10.375 10.1973 11.5527 11.375 13 11.375H16.5V25.375ZM15.2628 9.625H13C12.5179 9.625 12.125 9.233 12.125 8.75V6.48725L15.2628 9.625ZM22.625 22.75H18.25V11.2245C18.25 10.5595 17.9586 9.84637 17.4809 9.36862L12.3814 4.26913C11.887 3.77957 11.2204 3.50343 10.5246 3.5H9.5V2.625C9.5 2.142 9.89288 1.75 10.375 1.75H17.375V5.25C17.375 6.69725 18.5527 7.875 20 7.875H23.5V21.875C23.5 22.1071 23.4078 22.3296 23.2437 22.4937C23.0796 22.6578 22.8571 22.75 22.625 22.75Z" fill="black"/>
</svg>
