<svg width="61" height="48" viewBox="0 0 61 48" fill="none" xmlns="http://www.w3.org/2000/svg">
<path d="M0.931641 1.00769L5.82768 5.90233M60.0677 1.00769L55.1717 5.90233M0.931641 46.9723L5.82768 42.0776M60.0677 46.9723L55.1717 42.0776" stroke="black" stroke-width="2" stroke-miterlimit="10" stroke-linecap="round" stroke-linejoin="round"/>
<path d="M42.15 5.90236H28.1698M28.581 0.96936H1.02473C0.952293 0.96936 0.893555 1.02808 0.893555 1.1005V46.8796C0.893555 46.8969 0.896949 46.9139 0.903542 46.9298C0.910136 46.9457 0.919801 46.9602 0.931983 46.9723C0.944166 46.9845 0.958628 46.9941 0.974543 47.0007C0.990457 47.0073 1.00751 47.0107 1.02473 47.0107H59.9753C59.9925 47.0107 60.0096 47.0073 60.0255 47.0007C60.0414 46.9941 60.0559 46.9845 60.0681 46.9723C60.0803 46.9602 60.0899 46.9457 60.0965 46.9298C60.1031 46.9139 60.1065 46.8969 60.1065 46.8796V1.1005C60.1065 1.02808 60.0478 0.96936 59.9753 0.96936H46.1159H28.581Z" stroke="black" stroke-width="2" stroke-miterlimit="10" stroke-linecap="round" stroke-linejoin="round"/>
<path d="M45.4398 5.90234H55.1721V17.4127V42.0777H5.82812V5.90234H47.7755" stroke="black" stroke-width="2" stroke-miterlimit="10" stroke-linecap="round" stroke-linejoin="round"/>
</svg>
