<svg width="128" height="100" viewBox="0 0 128 100" fill="none" xmlns="http://www.w3.org/2000/svg">
<path d="M8.07016 0.96582H38.6824C40.6873 0.96582 42.5391 2.02194 43.5395 3.73524L48.5779 10.5229C49.0694 11.3647 49.7771 12.0639 50.6298 12.5501C51.4825 13.0363 52.45 13.2923 53.435 13.2923H128V90.7883C128 94.8583 124.654 98.1579 120.527 98.1579H7.47293C3.34587 98.1579 4.73221e-10 94.8583 4.73221e-10 90.7883V21.889C-2.373e-05 16.1924 0.89246 10.53 2.64587 5.10215C2.95813 3.91778 3.66013 2.8691 4.64179 2.12053C5.62345 1.37196 6.82926 0.965828 8.07016 0.96582Z" fill="#F6C358"/>
<path d="M11.6484 12.0247H110.038V53.0128H11.6484V12.0247Z" fill="#EBF0F3"/>
<path d="M122.395 4.65063H91.5467C90.4724 4.65061 89.4208 4.95506 88.517 5.52773C87.6133 6.10039 86.8954 6.91714 86.449 7.88072L81.1701 19.274C80.7236 20.2376 80.0058 21.0543 79.102 21.627C78.1983 22.1997 77.1467 22.5041 76.0724 22.5041H0V92.6304C0 96.7004 3.34587 100 7.47293 100H120.527C124.654 100 128 96.7004 128 92.6304V10.1779C128 7.12543 125.491 4.65063 122.395 4.65063Z" fill="#FCD462"/>
</svg>
