<svg width="16" height="16" viewBox="0 0 16 16" fill="none" xmlns="http://www.w3.org/2000/svg">
<path fill-rule="evenodd" clip-rule="evenodd" d="M1.11628 7.99999C1.10858 6.17432 1.82644 4.42036 3.11195 3.12397C4.39745 1.82758 6.14529 1.09495 7.97097 1.08725C9.79664 1.07956 11.5506 1.79742 12.847 3.08292C14.1434 4.36843 14.876 6.11627 14.8837 7.94194C14.8843 8.01524 14.8994 8.08769 14.928 8.15516C14.9567 8.22264 14.9983 8.28381 15.0506 8.33519C15.1029 8.38657 15.1648 8.42715 15.2327 8.45461C15.3007 8.48207 15.3734 8.49588 15.4467 8.49524C15.52 8.49461 15.5924 8.47954 15.6599 8.45091C15.7274 8.42227 15.7885 8.38063 15.8399 8.32835C15.8913 8.27607 15.9319 8.21419 15.9593 8.14623C15.9868 8.07827 16.0006 8.00556 16 7.93227C15.9628 3.5453 12.3959 0 7.99999 0C3.58176 0 0 3.58176 0 7.99999C0 12.3959 3.5453 15.9628 7.93301 16C8.08104 16.0012 8.22348 15.9435 8.32898 15.8397C8.43449 15.7358 8.49443 15.5943 8.49562 15.4463C8.4968 15.2983 8.43913 15.1558 8.3353 15.0503C8.23146 14.9448 8.08997 14.8849 7.94194 14.8837C6.12635 14.8684 4.39032 14.1364 3.1119 12.8471C1.83349 11.5578 1.11621 9.81565 1.11628 7.99999ZM7.99999 4.8372C7.26554 4.83693 6.55389 5.09227 5.98716 5.55942C5.42042 6.02656 5.03392 6.67637 4.89398 7.39736C4.75404 8.11836 4.86939 8.86558 5.22022 9.51081C5.57106 10.156 6.13551 10.6591 6.81673 10.9336C6.95401 10.9891 7.06358 11.0969 7.12136 11.2333C7.17914 11.3696 7.18039 11.5234 7.12483 11.6606C7.06927 11.7979 6.96145 11.9075 6.8251 11.9653C6.68875 12.023 6.53503 12.0243 6.39776 11.9687C5.4777 11.5959 4.71582 10.9149 4.24252 10.0423C3.76923 9.16969 3.61394 8.15969 3.80325 7.18519C3.99256 6.21069 4.51469 5.33228 5.28027 4.70032C6.04585 4.06837 7.00727 3.72215 7.99999 3.72093C8.85292 3.72093 9.68641 3.97575 10.3935 4.45269C11.1007 4.92963 11.6492 5.60695 11.9687 6.39776C11.9988 6.46615 12.0149 6.53988 12.0159 6.61459C12.017 6.6893 12.003 6.76346 11.9749 6.83268C11.9468 6.9019 11.905 6.96476 11.8521 7.01754C11.7993 7.07033 11.7363 7.11196 11.6671 7.13996C11.5978 7.16797 11.5236 7.18178 11.4489 7.18058C11.3742 7.17939 11.3005 7.1632 11.2321 7.13299C11.1638 7.10277 11.1022 7.05915 11.0511 7.0047C10.9999 6.95024 10.9602 6.88607 10.9343 6.81599C10.6981 6.23132 10.2925 5.73057 9.76967 5.37799C9.24684 5.02542 8.63059 4.8371 7.99999 4.8372ZM9.98696 14.8919L8.04241 9.05971C7.99505 8.91808 7.98809 8.76605 8.0223 8.62069C8.05652 8.47532 8.13056 8.34236 8.23612 8.23672C8.34168 8.13108 8.47458 8.05695 8.61993 8.02262C8.76527 7.9883 8.9173 7.99515 9.05896 8.04241L14.8919 9.98696C15.6249 10.2311 15.6249 11.2677 14.8919 11.5125L12.7382 12.2299C12.6199 12.2694 12.5123 12.3359 12.4241 12.4241C12.3359 12.5123 12.2694 12.6199 12.2299 12.7382L11.5118 14.8919C11.2677 15.6249 10.2318 15.6249 9.98622 14.8919H9.98696Z" fill="#244A65"/>
</svg>
