<svg width="24" height="24" viewBox="0 0 24 24" fill="none" xmlns="http://www.w3.org/2000/svg">
<rect width="24" height="24" fill="#244A65"/>
<rect x="0.5" y="0.5" width="23" height="23" stroke="#6F899B" stroke-opacity="0.2"/>
<path fill-rule="evenodd" clip-rule="evenodd" d="M5.11628 12C5.10858 10.1743 5.82644 8.42036 7.11195 7.12397C8.39745 5.82758 10.1453 5.09495 11.971 5.08725C13.7966 5.07956 15.5506 5.79742 16.847 7.08292C18.1434 8.36843 18.876 10.1163 18.8837 11.9419C18.8843 12.0152 18.8994 12.0877 18.928 12.1552C18.9567 12.2226 18.9983 12.2838 19.0506 12.3352C19.1029 12.3866 19.1648 12.4271 19.2327 12.4546C19.3007 12.4821 19.3734 12.4959 19.4467 12.4952C19.52 12.4946 19.5924 12.4795 19.6599 12.4509C19.7274 12.4223 19.7885 12.3806 19.8399 12.3283C19.8913 12.2761 19.9319 12.2142 19.9593 12.1462C19.9868 12.0783 20.0006 12.0056 20 11.9323C19.9628 7.5453 16.3959 4 12 4C7.58176 4 4 7.58176 4 12C4 16.3959 7.5453 19.9628 11.933 20C12.081 20.0012 12.2235 19.9435 12.329 19.8397C12.4345 19.7358 12.4944 19.5943 12.4956 19.4463C12.4968 19.2983 12.4391 19.1558 12.3353 19.0503C12.2315 18.9448 12.09 18.8849 11.9419 18.8837C10.1263 18.8684 8.39032 18.1364 7.1119 16.8471C5.83349 15.5578 5.11621 13.8156 5.11628 12ZM12 8.8372C11.2655 8.83693 10.5539 9.09227 9.98716 9.55942C9.42042 10.0266 9.03392 10.6764 8.89398 11.3974C8.75404 12.1184 8.86939 12.8656 9.22022 13.5108C9.57106 14.156 10.1355 14.6591 10.8167 14.9336C10.954 14.9891 11.0636 15.0969 11.1214 15.2333C11.1791 15.3696 11.1804 15.5234 11.1248 15.6606C11.0693 15.7979 10.9615 15.9075 10.8251 15.9653C10.6887 16.023 10.535 16.0243 10.3978 15.9687C9.4777 15.5959 8.71582 14.9149 8.24252 14.0423C7.76923 13.1697 7.61394 12.1597 7.80325 11.1852C7.99256 10.2107 8.51469 9.33228 9.28027 8.70032C10.0458 8.06837 11.0073 7.72215 12 7.72093C12.8529 7.72093 13.6864 7.97575 14.3935 8.45269C15.1007 8.92963 15.6492 9.60695 15.9687 10.3978C15.9988 10.4661 16.0149 10.5399 16.0159 10.6146C16.017 10.6893 16.003 10.7635 15.9749 10.8327C15.9468 10.9019 15.905 10.9648 15.8521 11.0175C15.7993 11.0703 15.7363 11.112 15.6671 11.14C15.5978 11.168 15.5236 11.1818 15.4489 11.1806C15.3742 11.1794 15.3005 11.1632 15.2321 11.133C15.1638 11.1028 15.1022 11.0591 15.0511 11.0047C14.9999 10.9502 14.9602 10.8861 14.9343 10.816C14.6981 10.2313 14.2925 9.73057 13.7697 9.37799C13.2468 9.02542 12.6306 8.8371 12 8.8372ZM13.987 18.8919L12.0424 13.0597C11.995 12.9181 11.9881 12.7661 12.0223 12.6207C12.0565 12.4753 12.1306 12.3424 12.2361 12.2367C12.3417 12.1311 12.4746 12.0569 12.6199 12.0226C12.7653 11.9883 12.9173 11.9952 13.059 12.0424L18.8919 13.987C19.6249 14.2311 19.6249 15.2677 18.8919 15.5125L16.7382 16.2299C16.6199 16.2694 16.5123 16.3359 16.4241 16.4241C16.3359 16.5123 16.2694 16.6199 16.2299 16.7382L15.5118 18.8919C15.2677 19.6249 14.2318 19.6249 13.9862 18.8919H13.987Z" fill="white"/>
</svg>
