<svg width="17" height="16" viewBox="0 0 17 16" fill="none" xmlns="http://www.w3.org/2000/svg">
<path fill-rule="evenodd" clip-rule="evenodd" d="M3.93288 3.70286H1.96154C1.44108 3.70286 0.942192 3.91831 0.574731 4.30218C0.206615 4.68536 0 5.20559 0 5.74831V13.9301C0 14.4729 0.206615 14.9931 0.574731 15.3763C0.942192 15.7601 1.44108 15.9756 1.96154 15.9756H15.0385C15.5589 15.9756 16.0578 15.7601 16.4253 15.3763C16.7934 14.9931 17 14.4729 17 13.9301V5.74831C17 5.20559 16.7934 4.68536 16.4253 4.30218C16.0578 3.91831 15.5589 3.70286 15.0385 3.70286H13.0671L12.68 2.41081C12.4244 1.55718 11.6659 0.975586 10.8081 0.975586C9.56969 0.975586 7.43031 0.975586 6.19192 0.975586C5.33408 0.975586 4.57562 1.55718 4.31996 2.41081L3.93288 3.70286ZM4.41346 5.06649C4.69919 5.06649 4.95223 4.87286 5.03723 4.58786L5.56815 2.81786C5.65315 2.53286 5.90619 2.33922 6.19192 2.33922H10.8081C11.0938 2.33922 11.3468 2.53286 11.4318 2.81786L11.9628 4.58786C12.0478 4.87286 12.3008 5.06649 12.5865 5.06649H15.0385C15.2117 5.06649 15.3785 5.13809 15.5007 5.26627C15.6237 5.39377 15.6923 5.56763 15.6923 5.74831V13.9301C15.6923 14.1108 15.6237 14.2847 15.5007 14.4122C15.3785 14.5404 15.2117 14.6119 15.0385 14.6119H1.96154C1.78827 14.6119 1.62154 14.5404 1.49927 14.4122C1.37635 14.2847 1.30769 14.1108 1.30769 13.9301V5.74831C1.30769 5.56763 1.37635 5.39377 1.49927 5.26627C1.62154 5.13809 1.78827 5.06649 1.96154 5.06649H4.41346ZM8.5 5.06649C6.33512 5.06649 4.57692 6.8999 4.57692 9.1574C4.57692 11.4149 6.33512 13.2483 8.5 13.2483C10.6649 13.2483 12.4231 11.4149 12.4231 9.1574C12.4231 6.8999 10.6649 5.06649 8.5 5.06649ZM8.5 6.43013C9.94369 6.43013 11.1154 7.65195 11.1154 9.1574C11.1154 10.6629 9.94369 11.8847 8.5 11.8847C7.05631 11.8847 5.88462 10.6629 5.88462 9.1574C5.88462 7.65195 7.05631 6.43013 8.5 6.43013Z" fill="white"/>
</svg>
