<svg width="29" height="28" viewBox="0 0 29 28" fill="none" xmlns="http://www.w3.org/2000/svg">
<path d="M14.5 28C6.78031 28 0.5 21.7197 0.5 14C0.5 6.28031 6.78031 0 14.5 0C22.2197 0 28.5 6.28031 28.5 14C28.5 21.7197 22.2197 28 14.5 28ZM14.5 1.99992C7.88325 1.99992 2.49992 7.38325 2.49992 14C2.49992 20.6167 7.88325 26.0001 14.5 26.0001C21.1167 26.0001 26.5001 20.6167 26.5001 14C26.5001 7.38325 21.1167 1.99992 14.5 1.99992Z" fill="black"/>
<path d="M19.5 19.9999C19.2441 19.9999 18.9882 19.9023 18.7929 19.7068L8.79306 9.70692C8.40231 9.31618 8.40231 8.68344 8.79306 8.29297C9.18353 7.90245 9.81648 7.90223 10.207 8.29297L20.2069 18.2929C20.5976 18.6836 20.5976 19.3163 20.2069 19.7068C20.1142 19.7999 20.0041 19.8737 19.8827 19.924C19.7614 19.9743 19.6314 20.0001 19.5 19.9999Z" fill="black"/>
<path d="M9.49989 20C9.24396 20 8.98829 19.9024 8.79306 19.7069C8.40231 19.3164 8.40231 18.6835 8.79306 18.2929L18.7929 8.29306C19.1837 7.90231 19.8164 7.90231 20.2069 8.29306C20.5974 8.68353 20.5976 9.31648 20.2069 9.707L10.207 19.7069C10.1143 19.8 10.0041 19.8738 9.88272 19.9241C9.76137 19.9744 9.63126 20.0002 9.49989 20Z" fill="black"/>
</svg>
