<svg width="28" height="28" viewBox="0 0 28 28" fill="none" xmlns="http://www.w3.org/2000/svg">
<path d="M17.3336 7.52498C17.0428 7.02331 16.5647 6.65764 16.0044 6.50833C15.4441 6.35903 14.8474 6.4383 14.3455 6.72873L7.52924 10.6662C7.02683 10.9563 6.66023 11.4341 6.51008 11.9945C6.35994 12.5549 6.43854 13.1519 6.72861 13.6544L10.6661 20.4706C10.9562 20.973 11.434 21.3396 11.9944 21.4898C12.5547 21.6399 13.1518 21.5613 13.6542 21.2712L20.4705 17.3337C20.7196 17.1905 20.9381 16.9995 21.1134 16.7718C21.2887 16.544 21.4174 16.284 21.4921 16.0065C21.5669 15.729 21.5863 15.4395 21.5491 15.1545C21.5119 14.8695 21.4189 14.5946 21.2755 14.3456L17.3336 7.52498ZM19.8011 15.5531C19.7862 15.609 19.7603 15.6613 19.725 15.7071C19.6897 15.7529 19.6457 15.7913 19.5955 15.82L12.7792 19.7575C12.7293 19.7864 12.6741 19.8052 12.6169 19.8127C12.5597 19.8202 12.5016 19.8163 12.4459 19.8013C12.3901 19.7862 12.338 19.7603 12.2923 19.725C12.2467 19.6897 12.2084 19.6457 12.1799 19.5956L8.24236 12.7794C8.21343 12.7294 8.19467 12.6743 8.18715 12.617C8.17964 12.5598 8.18351 12.5017 8.19856 12.446C8.2136 12.3903 8.23952 12.3381 8.27482 12.2924C8.31012 12.2468 8.3541 12.2086 8.40424 12.18L15.2205 8.24248C15.2704 8.21355 15.3256 8.19479 15.3828 8.18727C15.44 8.17976 15.4982 8.18363 15.5539 8.19868C15.6096 8.21372 15.6618 8.23964 15.7074 8.27494C15.7531 8.31024 15.7913 8.35422 15.8199 8.40436L19.7574 15.2206C19.7862 15.2704 19.8049 15.3254 19.8124 15.3825C19.8199 15.4396 19.816 15.4975 19.8011 15.5531Z" fill="black"/>
<path d="M27.125 22.4044H25.1956C26.7566 20.3247 27.7076 17.8514 27.9419 15.2616C28.1763 12.6719 27.6847 10.068 26.5224 7.74194C25.36 5.41586 23.5728 3.45946 21.361 2.09204C19.1492 0.724614 16.6003 0.000202897 14 0C13.7679 0 13.5454 0.0921873 13.3813 0.256282C13.2172 0.420376 13.125 0.642936 13.125 0.875C13.125 1.10706 13.2172 1.32962 13.3813 1.49372C13.5454 1.65781 13.7679 1.75 14 1.75C16.2236 1.74957 18.4055 2.3544 20.3115 3.49964C22.2175 4.64487 23.7759 6.28732 24.8195 8.25086C25.8631 10.2144 26.3525 12.425 26.2354 14.6455C26.1182 16.866 25.3988 19.0128 24.1544 20.8556V19.4381C24.1544 19.2061 24.0622 18.9835 23.8981 18.8194C23.734 18.6553 23.5114 18.5631 23.2794 18.5631C23.0473 18.5631 22.8248 18.6553 22.6607 18.8194C22.4966 18.9835 22.4044 19.2061 22.4044 19.4381V23.2794C22.4044 23.5114 22.4966 23.734 22.6607 23.8981C22.8248 24.0622 23.0473 24.1544 23.2794 24.1544H27.125C27.3571 24.1544 27.5796 24.0622 27.7437 23.8981C27.9078 23.734 28 23.5114 28 23.2794C28 23.0473 27.9078 22.8248 27.7437 22.6607C27.5796 22.4966 27.3571 22.4044 27.125 22.4044ZM14 26.25C11.7764 26.2504 9.59455 25.6456 7.68851 24.5004C5.78247 23.3551 4.2241 21.7127 3.18051 19.7491C2.13691 17.7856 1.64746 15.575 1.76463 13.3545C1.88181 11.134 2.60118 8.98718 3.84562 7.14438V8.56188C3.84562 8.79394 3.93781 9.0165 4.10191 9.18059C4.266 9.34469 4.48856 9.43687 4.72063 9.43687C4.95269 9.43687 5.17525 9.34469 5.33934 9.18059C5.50344 9.0165 5.59562 8.79394 5.59562 8.56188V4.72063C5.59562 4.48856 5.50344 4.266 5.33934 4.10191C5.17525 3.93781 4.95269 3.84562 4.72063 3.84562H0.875C0.642936 3.84562 0.420376 3.93781 0.256282 4.10191C0.0921873 4.266 0 4.48856 0 4.72063C0 4.95269 0.0921873 5.17525 0.256282 5.33934C0.420376 5.50344 0.642936 5.59562 0.875 5.59562H2.80437C1.24336 7.67529 0.29239 10.1486 0.0580556 12.7384C-0.176279 15.3281 0.315283 17.932 1.47764 20.2581C2.64001 22.5841 4.42723 24.5405 6.639 25.908C8.85076 27.2754 11.3997 27.9998 14 28C14.2321 28 14.4546 27.9078 14.6187 27.7437C14.7828 27.5796 14.875 27.3571 14.875 27.125C14.875 26.8929 14.7828 26.6704 14.6187 26.5063C14.4546 26.3422 14.2321 26.25 14 26.25Z" fill="black"/>
</svg>
