<svg width="234" height="152" viewBox="0 0 234 152" fill="none" xmlns="http://www.w3.org/2000/svg">
<path d="M116.798 151.041C181.303 151.041 233.595 123.216 233.595 88.8931C233.595 54.5699 181.303 26.7455 116.798 26.7455C52.2921 26.7455 0 54.5699 0 88.8931C0 123.216 52.2921 151.041 116.798 151.041Z" fill="#88D5ED"/>
<path d="M116.291 144.367C56.7367 144.367 8.28125 119.554 8.28125 89.0437C8.28125 58.5332 56.7395 33.7205 116.291 33.7205C175.854 33.7205 224.312 58.5332 224.312 89.0437C224.312 119.554 175.857 144.367 116.291 144.367ZM116.291 36.2918C58.153 36.2918 10.8518 59.9611 10.8518 89.0437C10.8518 118.126 58.153 141.795 116.291 141.795C174.438 141.795 221.742 118.126 221.742 89.0437C221.742 59.9611 174.44 36.2918 116.291 36.2918Z" fill="white"/>
<path d="M116.541 60.1452C151.388 60.1452 179.697 74.3184 183.043 92.3904C183.26 91.2218 183.706 90.0923 183.706 88.8959C183.706 69.1589 153.635 53.1591 116.541 53.1591C79.4464 53.1591 49.375 69.1589 49.375 88.8959C49.375 90.0923 49.8211 91.2218 50.0385 92.3904C53.3841 74.3156 81.6963 60.1452 116.541 60.1452Z" fill="#658EC1"/>
<path d="M116.541 124.633C151.388 124.633 179.698 110.462 183.043 92.3876C179.698 74.3156 151.386 60.1425 116.541 60.1425C81.6968 60.1425 53.3847 74.3156 50.0391 92.3876C53.3847 110.462 81.6968 124.633 116.541 124.633Z" fill="#69B2D6"/>
<path d="M131.92 68.4337C131.92 68.4337 122.857 58.1734 98.6541 62.5603C74.4542 66.9472 57.8154 82.2833 56.0757 85.3734C54.336 88.4635 56.2876 110.769 61.9417 117.574C67.5958 124.382 91.5921 124.633 91.5921 124.633L131.92 68.4337Z" fill="#90B700"/>
<path d="M44.711 91.5062C42.3134 96.5178 44.6553 104.012 45.843 108.839C47.0279 113.664 49.3809 118.634 49.3809 118.634C49.3809 118.634 56.4513 118.157 57.232 112.124C58.0098 106.092 58.0098 106.092 58.0098 106.092C58.0098 106.092 68.133 109.101 73.2211 108.385C78.3092 107.665 83.9494 102.902 83.9494 102.902L73.2211 86.0483L44.711 91.5062Z" fill="#587F0D"/>
<path d="M121.827 78.9563C121.827 78.9563 109.85 96.253 103.858 96.9C97.8667 97.5442 93.6875 96.9 93.6875 96.9C93.6875 96.9 99.849 115.535 106.194 114.255C112.537 112.975 119.365 111.372 119.365 111.372C119.365 111.372 125.097 123.138 131.42 126.71C137.743 130.286 143.727 129.533 143.727 129.533C143.727 129.533 143.467 116.486 147.51 109.824C153.114 100.595 134.119 66.2501 121.827 78.9563Z" fill="#587F0D"/>
<path d="M85.6764 28.522C85.6764 28.522 92.5181 18.5099 94.8071 12.5082C97.096 6.50927 97.8488 0 97.8488 0C97.8488 0 103.073 4.07734 104.665 10.3635C106.511 17.6509 104.665 22.049 104.665 22.049C104.665 22.049 115.567 15.6624 119.456 14.2596C123.345 12.8568 128.804 12.0006 128.804 12.0006C128.804 12.0006 131.586 49.7872 106.508 61.0209C81.4358 72.2601 68.8815 50.7801 85.6764 28.522Z" fill="#90B700"/>
<path d="M164.303 36.936C164.303 36.936 175.36 31.955 180.439 28.0255C185.519 24.0959 189.551 18.9337 189.551 18.9337C189.551 18.9337 191.884 25.139 189.972 31.3331C187.755 38.5145 183.885 41.3062 183.885 41.3062C183.885 41.3062 196.518 41.5377 200.569 42.3687C204.62 43.1998 209.725 45.311 209.725 45.311C209.725 45.311 192.42 79.0147 165.164 75.5342C137.906 72.0592 138.377 47.1824 164.303 36.936Z" fill="#90B700"/>
<path d="M157.558 73.2166C156.537 78.588 147.524 81.3909 137.428 79.4721C127.33 77.5533 119.973 71.6409 120.993 66.2695C122.013 60.8981 131.027 58.0981 141.122 60.0168C151.22 61.9328 158.578 67.8452 157.558 73.2166Z" fill="#E2660A"/>
<path d="M158.713 67.0777L122.148 60.1266L120.982 66.2638L157.547 73.2149L158.713 67.0777Z" fill="#E2660A"/>
<path d="M158.727 67.0783C157.706 72.4525 148.693 75.2497 138.597 73.331C128.502 71.4122 121.144 65.5026 122.165 60.1284C123.185 54.757 132.199 51.9569 142.294 53.8757C152.39 55.7972 159.747 61.7069 158.727 67.0783Z" fill="#FF871A"/>
<path d="M134.42 55.6774C134.42 55.6774 135.284 58.1734 133.706 59.434C132.128 60.6974 126.391 60.8452 126.391 60.8452C126.391 60.8452 133.283 63.0484 135.187 64.3034C137.091 65.5584 139.023 71.0553 139.023 71.0553C139.023 71.0553 139.154 65.2795 142.597 65.9349C146.04 66.5903 152.308 70.0123 152.308 70.0123C152.308 70.0123 146.074 64.0691 148.759 62.8671C150.953 61.8854 152.52 60.6807 152.52 60.6807C152.52 60.6807 145.79 60.5272 142.988 60.3711C139.235 60.1619 134.42 55.6774 134.42 55.6774Z" fill="#FF9945"/>
<path d="M132.586 50.0869L68.9375 53.236L69.1075 56.6733L132.756 53.5243L132.586 50.0869Z" fill="#ED2B2B"/>
<path d="M132.721 52.9136C133.184 62.2648 119.311 70.5506 101.735 71.4207C84.1596 72.2908 69.5366 65.4134 69.0738 56.0623C68.6109 46.7111 82.484 38.4253 100.06 37.5552C117.635 36.6851 132.258 43.5625 132.721 52.9136Z" fill="#ED2B2B"/>
<path d="M132.588 50.2502C133.051 59.6013 119.178 67.8899 101.602 68.7573C84.0268 69.6274 69.4037 62.75 68.9409 53.3988C68.4781 44.0477 82.3512 35.7619 99.9268 34.8918C117.502 34.0217 132.125 40.8963 132.588 50.2502Z" fill="#FF6969"/>
<path d="M129.274 50.4148C129.664 58.2962 117.215 65.3158 101.472 66.0939C85.7278 66.872 72.6493 61.1158 72.2589 53.2344C71.8686 45.353 84.317 38.3361 100.061 37.5552C115.807 36.7771 128.883 42.5334 129.274 50.4148Z" fill="#FF4343"/>
<path d="M82.1652 60.0141C79.4497 60.2344 70.9658 51.3574 81.1392 44.5441C91.3126 37.7309 105.534 39.0974 108.473 39.6441C112.607 40.4138 108.478 44.4159 103.661 45.0127C101.467 45.2832 96.2948 46.184 93.2698 47.69C89.6538 49.4916 88.3462 52.0044 88.5274 53.2455C88.8676 55.5268 84.482 59.8273 82.1652 60.0141Z" fill="#ED2B2B"/>
<path d="M91.5828 55.8168C88.7251 57.5097 84.412 61.7878 89.5168 63.0122C100.354 65.6086 111.104 63.291 118.668 59.2472C126.232 55.2061 127.774 49.0872 123.048 45.0712C119.616 42.1568 116.346 42.0537 114.567 43.3366C110.435 46.3207 114.43 51.059 106.209 53.106C101.374 54.3108 94.8336 53.8953 91.5828 55.8168Z" fill="#ED2B2B"/>
<path d="M102.922 43.4676C102.922 43.4676 104.993 40.4668 102.323 40.6648C100.566 40.7931 102.922 43.4676 102.922 43.4676Z" fill="#FF6969"/>
<path d="M99.9309 43.9863C99.9309 43.9863 99.7497 40.3161 96.9087 40.9074C95.0436 41.295 99.9309 43.9863 99.9309 43.9863Z" fill="#FF6969"/>
<path d="M95.7184 44.5442C95.7184 44.5442 93.6971 41.3007 91.659 42.0621C89.621 42.8262 95.7184 44.5442 95.7184 44.5442Z" fill="#FF6969"/>
<path d="M91.4847 46.3848C91.4847 46.3848 89.0926 42.525 86.2962 43.8497C83.5026 45.1744 91.4847 46.3848 91.4847 46.3848Z" fill="#FF6969"/>
<path d="M88.2636 48.892C88.2636 48.892 84.5751 44.9179 81.4832 47.1294C79.4229 48.602 88.2636 48.892 88.2636 48.892Z" fill="#FF6969"/>
<path d="M86.4433 51.4104C86.4433 51.4104 81.2465 49.9016 79.5793 51.2151C77.9148 52.5287 82.9249 54.004 86.4433 51.4104Z" fill="#FF6969"/>
<path d="M86.1842 54.0989C86.1842 54.0989 82.596 54.4224 80.9651 55.6606C80.1537 56.277 81.0626 57.6268 82.7326 57.2168C85.6294 56.5057 86.1842 54.0989 86.1842 54.0989Z" fill="#FF6969"/>
<path d="M114.539 46.2565C114.539 46.2565 116.064 44.7282 118.141 44.7422C120.218 44.7561 121.278 46.0446 118.827 46.3402C116.374 46.6358 114.539 46.2565 114.539 46.2565Z" fill="#FF6969"/>
<path d="M93.7046 56.5001C93.5456 56.5949 91.2428 58.1372 90.6099 59.3364C89.977 60.5356 92.712 61.6149 93.4285 59.4563C94.1423 57.3005 93.7046 56.5001 93.7046 56.5001Z" fill="#FF6969"/>
<path d="M97.512 56.3132C97.512 56.3132 96.5808 57.4874 96.7564 59.2946C96.9321 61.1018 99.3047 61.4197 99.0314 59.183C98.7582 56.9435 97.512 56.3132 97.512 56.3132Z" fill="#FF6969"/>
<path d="M101.547 55.6439C101.547 55.6439 101.686 57.5794 102.233 59.024C102.779 60.4687 106.228 61.0767 104.72 58.5527C103.209 56.0288 101.547 55.6439 101.547 55.6439Z" fill="#FF6969"/>
<path d="M106.414 55.0498C106.414 55.0498 107.462 57.1638 109.355 58.6698C111.248 60.1758 113.086 58.8734 111.313 57.1443C109.542 55.4152 106.414 55.0498 106.414 55.0498Z" fill="#FF6969"/>
<path d="M110.602 53.2288C110.602 53.2288 112.525 55.3539 114.742 56.4555C116.961 57.5572 119.06 56.2854 116.395 54.9021C113.732 53.5188 110.602 53.2288 110.602 53.2288Z" fill="#FF6969"/>
<path d="M113.633 50.6322C113.633 50.6322 117.424 52.9331 119.73 53.1785C122.036 53.4239 123.382 50.9195 120.773 50.6155C118.161 50.3115 113.633 50.6322 113.633 50.6322Z" fill="#FF6969"/>
<path d="M114.977 48.5992C114.977 48.5992 118.018 47.4613 119.886 47.5868C121.751 47.7123 123.41 48.8837 121.431 49.0677C119.449 49.2546 114.977 48.5992 114.977 48.5992Z" fill="#FF6969"/>
<path d="M184.876 112.066L132.156 76.2542L130.223 79.1013L182.943 114.914L184.876 112.066Z" fill="#ED2B2B"/>
<path d="M183.268 114.403C178.01 122.148 161.945 120.41 147.386 110.524C132.827 100.634 125.292 86.3383 130.55 78.5908C135.808 70.8461 151.872 72.5835 166.431 82.4729C180.987 92.3595 188.526 106.655 183.268 114.403Z" fill="#ED2B2B"/>
<path d="M184.768 112.194C179.51 119.939 163.445 118.201 148.886 108.312C134.327 98.4226 126.792 84.1268 132.05 76.3792C137.308 68.6345 153.372 70.372 167.931 80.2614C182.49 90.1536 190.026 104.449 184.768 112.194Z" fill="#FF6969"/>
<path d="M182.016 110.328C177.586 116.854 163.423 114.966 150.381 106.109C137.341 97.2514 130.363 84.7766 134.793 78.2506C139.223 71.7246 153.386 73.6127 166.429 82.473C179.471 91.3277 186.449 103.8 182.016 110.328Z" fill="#FF4343"/>
<path d="M138.622 89.6264C136.319 88.1679 134.889 75.9692 147.114 76.6581C159.337 77.3442 169.872 86.9993 171.888 89.2053C174.726 92.3094 169.022 93.0177 164.818 90.5942C162.902 89.4898 158.23 87.0941 154.909 86.475C150.939 85.7359 148.383 86.9547 147.78 88.0563C146.674 90.0782 140.585 90.8703 138.622 89.6264Z" fill="#ED2B2B"/>
<path d="M148.669 91.9468C145.368 91.5759 139.349 92.3986 142.689 96.4481C149.779 105.046 159.76 109.67 168.233 110.998C176.706 112.325 181.618 108.368 180.26 102.316C179.273 97.9207 176.725 95.868 174.534 95.8234C169.437 95.7174 169.777 101.906 161.982 98.5928C157.393 96.6433 152.419 92.368 148.669 91.9468Z" fill="#ED2B2B"/>
<path d="M165.16 88.9153C165.16 88.9153 168.62 87.7691 166.368 86.3161C164.887 85.3595 165.16 88.9153 165.16 88.9153Z" fill="#FF6969"/>
<path d="M162.462 87.5292C162.462 87.5292 164.525 84.4894 161.901 83.2511C160.178 82.4339 162.462 87.5292 162.462 87.5292Z" fill="#FF6969"/>
<path d="M158.761 85.4376C158.761 85.4376 159.101 81.6308 157.013 81.0116C154.925 80.3925 158.761 85.4376 158.761 85.4376Z" fill="#FF6969"/>
<path d="M154.275 84.3583C154.275 84.3583 154.687 79.8347 151.66 79.21C148.629 78.5853 154.275 84.3583 154.275 84.3583Z" fill="#FF6969"/>
<path d="M150.185 84.4196C150.185 84.4196 149.633 79.0259 145.833 78.9283C143.301 78.8641 150.185 84.4196 150.185 84.4196Z" fill="#FF6969"/>
<path d="M147.217 85.3316C147.217 85.3316 143.975 80.9977 141.853 81.0423C139.734 81.0897 142.846 85.2842 147.217 85.3316Z" fill="#FF6969"/>
<path d="M145.398 87.3257C145.398 87.3257 142.337 85.4236 140.291 85.4292C139.27 85.432 139.184 87.0579 140.765 87.7384C143.505 88.9125 145.398 87.3257 145.398 87.3257Z" fill="#FF6969"/>
<path d="M172.758 98.1382C172.758 98.1382 174.893 97.837 176.547 99.1004C178.197 100.361 178.267 102.029 176.131 100.788C173.996 99.5466 172.758 98.1382 172.758 98.1382Z" fill="#FF6969"/>
<path d="M149.955 93.7708C149.771 93.7513 147.003 93.5951 145.776 94.1724C144.549 94.7497 146.085 97.2569 147.953 95.9656C149.821 94.6744 149.955 93.7708 149.955 93.7708Z" fill="#FF6969"/>
<path d="M153.104 95.9098C153.104 95.9098 151.654 96.2863 150.706 97.8341C149.758 99.3848 151.462 101.066 152.591 99.1142C153.723 97.1648 153.104 95.9098 153.104 95.9098Z" fill="#FF6969"/>
<path d="M156.733 97.8091C156.733 97.8091 155.68 99.4378 155.247 100.922C154.815 102.405 157.202 104.965 157.517 102.043C157.829 99.1199 156.733 97.8091 156.733 97.8091Z" fill="#FF6969"/>
<path d="M160.979 100.266C160.979 100.266 160.544 102.586 161.149 104.929C161.754 107.272 164.007 107.339 163.631 104.89C163.257 102.441 160.979 100.266 160.979 100.266Z" fill="#FF6969"/>
<path d="M165.414 101.331C165.414 101.331 165.671 104.187 166.777 106.402C167.884 108.616 170.329 108.867 169.033 106.156C167.736 103.445 165.414 101.331 165.414 101.331Z" fill="#FF6969"/>
<path d="M169.398 101.086C169.398 101.086 171.041 105.205 172.736 106.789C174.431 108.373 177.012 107.185 175.108 105.37C173.207 103.557 169.398 101.086 169.398 101.086Z" fill="#FF6969"/>
<path d="M171.695 100.272C171.695 100.272 174.807 101.195 176.223 102.419C177.639 103.643 178.258 105.579 176.563 104.533C174.874 103.487 171.695 100.272 171.695 100.272Z" fill="#FF6969"/>
<path d="M128.586 113.513L64.8672 112.767L64.8269 116.208L128.546 116.954L128.586 113.513Z" fill="#ED2B2B"/>
<path d="M128.575 116.358C128.466 125.72 114.113 133.144 96.5155 132.941C78.9204 132.734 64.7435 124.978 64.8522 115.616C64.9609 106.254 79.3135 98.8298 96.9114 99.0362C114.506 99.2398 128.683 106.996 128.575 116.358Z" fill="#ED2B2B"/>
<path d="M128.606 113.689C128.497 123.051 114.145 130.475 96.5467 130.269C78.9489 130.063 64.7747 122.307 64.8834 112.944C64.9922 103.582 79.3448 96.1581 96.9426 96.3644C114.538 96.5708 128.715 104.327 128.606 113.689Z" fill="#FF6969"/>
<path d="M125.282 113.653C125.19 121.542 112.338 127.79 96.5771 127.606C80.8165 127.421 68.1116 120.876 68.2036 112.986C68.2956 105.096 81.1483 98.8493 96.9089 99.0334C112.672 99.2175 125.374 105.763 125.282 113.653Z" fill="#FF4343"/>
<path d="M77.6754 120.357C74.9515 120.413 67.0252 111.034 77.5973 104.854C88.1694 98.6764 102.279 100.908 105.179 101.633C109.261 102.653 104.895 106.396 100.049 106.697C97.8438 106.834 92.6247 107.417 89.5132 108.736C85.7941 110.312 84.3359 112.741 84.4419 113.99C84.637 116.288 79.9978 120.313 77.6754 120.357Z" fill="#ED2B2B"/>
<path d="M87.3372 116.743C84.3791 118.257 79.8152 122.265 84.8364 123.799C95.4949 127.051 106.365 125.394 114.163 121.821C121.961 118.249 123.874 112.236 119.402 107.941C116.154 104.823 112.898 104.519 111.044 105.691C106.736 108.418 110.436 113.391 102.105 114.93C97.2012 115.839 90.6968 115.022 87.3372 116.743Z" fill="#ED2B2B"/>
<path d="M99.4117 105.11C99.4117 105.11 101.664 102.243 98.9823 102.277C97.2203 102.296 99.4117 105.11 99.4117 105.11Z" fill="#FF6969"/>
<path d="M96.3928 105.445C96.3928 105.445 96.4346 101.772 93.5629 102.188C91.6755 102.458 96.3928 105.445 96.3928 105.445Z" fill="#FF6969"/>
<path d="M92.1531 105.746C92.1531 105.746 90.3326 102.386 88.2527 103.021C86.1701 103.657 92.1531 105.746 92.1531 105.746Z" fill="#FF6969"/>
<path d="M87.8159 107.322C87.8159 107.322 85.6636 103.323 82.7919 104.474C79.9231 105.626 87.8159 107.322 87.8159 107.322Z" fill="#FF6969"/>
<path d="M84.443 109.628C84.443 109.628 81.0054 105.437 77.7825 107.453C75.6357 108.8 84.443 109.628 84.443 109.628Z" fill="#FF6969"/>
<path d="M82.4748 112.03C82.4748 112.03 77.3783 110.206 75.6358 111.416C73.8933 112.626 78.8058 114.406 82.4748 112.03Z" fill="#FF6969"/>
<path d="M82.0562 114.699C82.0562 114.699 78.4541 114.805 76.7506 115.94C75.9031 116.506 76.7283 117.909 78.4206 117.602C81.3536 117.066 82.0562 114.699 82.0562 114.699Z" fill="#FF6969"/>
<path d="M110.836 108.605C110.836 108.605 112.453 107.174 114.524 107.314C116.596 107.453 117.575 108.806 115.11 108.951C112.645 109.093 110.836 108.605 110.836 108.605Z" fill="#FF6969"/>
<path d="M89.4135 117.554C89.249 117.638 86.8541 119.038 86.1488 120.198C85.4434 121.358 88.1087 122.6 88.9563 120.491C89.801 118.38 89.4135 117.554 89.4135 117.554Z" fill="#FF6969"/>
<path d="M93.221 117.599C93.221 117.599 92.2201 118.712 92.2842 120.53C92.3511 122.346 94.6986 122.806 94.562 120.558C94.4282 118.305 93.221 117.599 93.221 117.599Z" fill="#FF6969"/>
<path d="M97.2969 117.178C97.2969 117.178 97.3164 119.119 97.7764 120.591C98.2336 122.067 101.641 122.884 100.286 120.274C98.9334 117.666 97.2969 117.178 97.2969 117.178Z" fill="#FF6969"/>
<path d="M102.188 116.882C102.188 116.882 103.105 119.055 104.903 120.675C106.698 122.296 108.614 121.108 106.949 119.272C105.288 117.437 102.188 116.882 102.188 116.882Z" fill="#FF6969"/>
<path d="M106.477 115.321C106.477 115.321 108.266 117.56 110.413 118.796C112.56 120.031 114.735 118.89 112.159 117.345C109.582 115.803 106.477 115.321 106.477 115.321Z" fill="#FF6969"/>
<path d="M109.664 112.914C109.664 112.914 113.308 115.44 115.594 115.828C117.88 116.216 119.377 113.798 116.79 113.335C114.203 112.872 109.664 112.914 109.664 112.914Z" fill="#FF6969"/>
<path d="M111.125 110.967C111.125 110.967 114.231 110.019 116.085 110.256C117.939 110.493 119.525 111.765 117.537 111.829C115.547 111.893 111.125 110.967 111.125 110.967Z" fill="#FF6969"/>
<path d="M78.7428 67.9148L17.9297 86.9684L18.958 90.2526L79.7711 71.199L78.7428 67.9148Z" fill="#ED2B2B"/>
<path d="M79.5741 70.6286C82.3705 79.5642 71.0261 91.074 54.2312 96.3338C37.4391 101.594 21.5559 98.6151 18.7595 89.6795C15.9631 80.7439 27.3075 69.237 44.1024 63.9744C60.8945 58.7145 76.775 61.693 79.5741 70.6286Z" fill="#ED2B2B"/>
<path d="M78.7773 68.0824C81.5736 77.018 70.2293 88.5278 53.4343 93.7876C36.6422 99.0474 20.759 96.0689 17.9626 87.1333C15.1662 78.1977 26.5106 66.6907 43.3055 61.4281C60.0977 56.1682 75.9781 59.1468 78.7773 68.0824Z" fill="#FF6969"/>
<path d="M75.6055 69.0752C77.9642 76.6052 67.6792 86.5281 52.638 91.2413C37.5939 95.9545 23.4894 93.6704 21.1336 86.1404C18.7749 78.6104 29.0599 68.6876 44.1011 63.9743C59.1424 59.2639 73.2469 61.548 75.6055 69.0752Z" fill="#FF4343"/>
<path d="M32.4266 90.2122C29.8532 91.1074 19.4122 84.6483 27.5476 75.498C35.6829 66.3476 49.7902 64.0915 52.7734 63.8823C56.9693 63.5867 53.9778 68.5007 49.4668 70.2884C47.4121 71.1027 42.6306 73.2752 40.0824 75.4924C37.0351 78.1446 36.4022 80.9057 36.8901 82.0603C37.7851 84.1854 34.6179 89.448 32.4266 90.2122Z" fill="#ED2B2B"/>
<path d="M40.4878 83.781C38.1459 86.1376 35.0484 91.364 40.2955 91.2636C51.4363 91.0516 61.2584 86.1042 67.5649 80.2893C73.8713 74.4745 73.8267 68.166 68.2424 65.4692C64.1886 63.5114 60.9964 64.2337 59.5996 65.921C56.3488 69.8505 61.4062 73.4287 53.965 77.4781C49.5851 79.8626 43.1476 81.1037 40.4878 83.781Z" fill="#ED2B2B"/>
<path d="M48.358 68.9776C48.358 68.9776 49.6098 65.5528 47.0727 66.4146C45.4055 66.9835 48.358 68.9776 48.358 68.9776Z" fill="#FF6969"/>
<path d="M45.596 70.2298C45.596 70.2298 44.4976 66.7242 41.8964 68.0098C40.1873 68.8549 45.596 70.2298 45.596 70.2298Z" fill="#FF6969"/>
<path d="M41.6578 71.8307C41.6578 71.8307 38.8865 69.198 37.105 70.4502C35.3235 71.7024 41.6578 71.8307 41.6578 71.8307Z" fill="#FF6969"/>
<path d="M38.025 74.6754C38.025 74.6754 34.7379 71.5406 32.3681 73.5263C29.9956 75.512 38.025 74.6754 38.025 74.6754Z" fill="#FF6969"/>
<path d="M35.5303 77.916C35.5303 77.916 30.9636 74.9961 28.5241 77.9132C26.8987 79.8571 35.5303 77.916 35.5303 77.916Z" fill="#FF6969"/>
<path d="M34.3983 80.8081C34.3983 80.8081 28.9896 80.6547 27.7071 82.3447C26.4246 84.0348 31.6465 84.2049 34.3983 80.8081Z" fill="#FF6969"/>
<path d="M34.8285 83.4742C34.8285 83.4742 31.4355 84.6902 30.1697 86.2966C29.5397 87.097 30.758 88.1763 32.2719 87.3592C34.8954 85.9452 34.8285 83.4742 34.8285 83.4742Z" fill="#FF6969"/>
<path d="M60.3047 68.7573C60.3047 68.7573 61.3976 66.8971 63.4105 66.3867C65.4235 65.8763 66.7728 66.858 64.4755 67.7588C62.1782 68.6596 60.3047 68.7573 60.3047 68.7573Z" fill="#FF6969"/>
<path d="M42.713 83.9093C42.5819 84.0404 40.7391 86.1125 40.4296 87.4345C40.1174 88.7536 43.0364 89.1106 43.1897 86.8432C43.3375 84.5731 42.713 83.9093 42.713 83.9093Z" fill="#FF6969"/>
<path d="M46.3434 82.7715C46.3434 82.7715 45.7356 84.1409 46.3601 85.8477C46.9846 87.5545 49.36 87.2644 48.5347 85.1672C47.7095 83.0671 46.3434 82.7715 46.3434 82.7715Z" fill="#FF6969"/>
<path d="M50.0859 81.1065C50.0859 81.1065 50.7077 82.9444 51.5998 84.205C52.492 85.4656 55.9826 85.1867 53.8888 83.1257C51.795 81.0647 50.0859 81.1065 50.0859 81.1065Z" fill="#FF6969"/>
<path d="M54.6484 79.3077C54.6484 79.3077 56.1958 81.0897 58.4039 82.0742C60.6148 83.0587 62.0673 81.3352 59.915 80.1053C57.7654 78.8754 54.6484 79.3077 54.6484 79.3077Z" fill="#FF6969"/>
<path d="M58.2422 76.4937C58.2422 76.4937 60.6371 78.0666 63.0599 78.577C65.4826 79.0846 67.1972 77.3248 64.2698 76.6582C61.3452 75.9889 58.2422 76.4937 58.2422 76.4937Z" fill="#FF6969"/>
<path d="M60.5234 73.2196C60.5234 73.2196 64.7724 74.4941 67.0641 74.1511C69.3586 73.808 70.0333 71.047 67.4293 71.4096C64.8253 71.7721 60.5234 73.2196 60.5234 73.2196Z" fill="#FF6969"/>
<path d="M61.3125 70.913C61.3125 70.913 63.9722 69.0473 65.8095 68.6987C67.6468 68.3501 69.5483 69.0668 67.6775 69.7445C65.804 70.4222 61.3125 70.913 61.3125 70.913Z" fill="#FF6969"/>
<path d="M138.569 97.3016L76.7109 92.5227L76.4531 95.8621L138.311 100.641L138.569 97.3016Z" fill="#5E8E11"/>
<path d="M138.363 100.068C137.661 109.157 123.244 115.457 106.162 114.135C89.0799 112.816 75.8006 104.377 76.5032 95.2879C77.2058 86.199 91.6225 79.8988 108.705 81.2208C125.787 82.5427 139.066 90.9791 138.363 100.068Z" fill="#5E8E11"/>
<path d="M138.559 97.4801C137.856 106.569 123.439 112.869 106.357 111.547C89.2752 110.228 75.9959 101.789 76.6985 92.6999C77.4011 83.6109 91.8179 77.3108 108.9 78.6328C125.982 79.9519 139.261 88.3911 138.559 97.4801Z" fill="#BED134"/>
<path d="M135.336 97.2291C134.745 104.887 121.862 110.139 106.561 108.956C91.2605 107.774 79.3363 100.606 79.9273 92.9481C80.5184 85.2898 93.4017 80.0383 108.702 81.2208C124 82.4033 135.927 89.5708 135.336 97.2291Z" fill="#71AA21"/>
<path d="M106.298 93.7625C106.298 93.7625 101.045 85.4488 93.2999 85.4572C82.9565 85.4655 84.0549 89.2417 86.5725 92.2397C88.9256 95.0453 97.8667 95.3633 106.298 93.7625Z" fill="#5E8E11"/>
<path d="M108.633 93.8071C108.633 93.8071 116.135 88.1708 123.858 88.7313C131.815 89.3086 131.993 92.884 129.105 95.525C125.528 98.7964 116.715 96.6824 108.633 93.8071Z" fill="#5E8E11"/>
<path d="M106.196 94.9784C106.196 94.9784 94.7013 96.78 91.1996 97.7534C87.7006 98.7295 90.3074 103.696 97.4363 104.318C106.715 105.127 106.196 94.9784 106.196 94.9784Z" fill="#5E8E11"/>
<path d="M108.305 95.1401C108.305 95.1401 119.504 98.4534 122.696 100.185C126.658 102.338 120.628 106.036 113.488 105.557C104.192 104.932 108.305 95.1401 108.305 95.1401Z" fill="#5E8E11"/>
<path d="M107.843 92.3959C107.843 92.3959 103.444 87.836 102.535 86.1376C101.629 84.4392 104.107 82.3782 109.491 82.7631C116.924 83.2958 117.375 85.5213 114.688 88.0452C112 90.5692 107.843 92.3959 107.843 92.3959Z" fill="#5E8E11"/>
<path d="M111.083 63.6956L51.7812 81.9486L52.766 85.15L112.068 66.897L111.083 63.6956Z" fill="#5E8E11"/>
<path d="M111.903 66.3226C114.583 75.0351 103.481 86.185 87.107 91.2273C70.7302 96.2696 55.2847 93.2911 52.6027 84.5787C49.9206 75.8662 61.0252 64.7162 77.3991 59.6739C93.7758 54.6343 109.224 57.6101 111.903 66.3226Z" fill="#5E8E11"/>
<path d="M111.137 63.8404C113.816 72.5529 102.715 83.7029 86.3406 88.7452C69.9667 93.7847 54.5184 90.809 51.8364 82.0965C49.1571 73.384 60.2589 62.234 76.6328 57.1917C93.0095 52.1494 108.458 55.1279 111.137 63.8404Z" fill="#BED134"/>
<path d="M108.043 64.7914C110.301 72.1345 100.242 81.745 85.5746 86.2602C70.9069 90.7755 57.1844 88.483 54.9261 81.1426C52.6678 73.8023 62.7269 64.189 77.3946 59.6737C92.0651 55.1585 105.785 57.451 108.043 64.7914Z" fill="#71AA21"/>
<path d="M79.7542 72.2266C79.7542 72.2266 71.8195 66.4201 64.6181 69.2675C54.9967 73.0716 57.4055 76.1812 60.8459 78.0469C64.0633 79.79 72.4998 76.8087 79.7542 72.2266Z" fill="#5E8E11"/>
<path d="M81.9531 71.4067C81.9531 71.4067 86.8656 63.4109 94.2566 61.0989C101.871 58.7172 103.348 61.9775 101.631 65.4942C99.5036 69.8477 90.529 71.1138 81.9531 71.4067Z" fill="#5E8E11"/>
<path d="M80.113 73.3923C80.113 73.3923 70.079 79.2853 67.1823 81.4773C64.2827 83.6694 68.5289 87.334 75.3901 85.2953C84.3201 82.6431 80.113 73.3923 80.113 73.3923Z" fill="#5E8E11"/>
<path d="M82.1334 72.7677C82.1334 72.7677 93.7677 71.7385 97.3726 72.182C101.847 72.7314 97.5929 78.3845 90.7734 80.557C81.8992 83.3878 82.1334 72.7677 82.1334 72.7677Z" fill="#5E8E11"/>
<path d="M80.6962 70.386C80.6962 70.386 74.9306 67.7588 73.4641 66.5122C71.9976 65.2656 73.5477 62.4376 78.6972 60.8201C85.8066 58.5862 87.0417 60.491 85.4692 63.8265C83.894 67.1592 80.6962 70.386 80.6962 70.386Z" fill="#5E8E11"/>
<path d="M212.607 90.8281L158.039 61.2919L156.446 64.2377L211.013 93.7739L212.607 90.8281Z" fill="#5E8E11"/>
<path d="M211.309 93.2577C206.971 101.276 191.241 101.164 176.172 93.0094C161.103 84.8547 152.404 71.7413 156.739 63.7233C161.077 55.7052 176.807 55.8168 191.876 63.9715C206.946 72.1262 215.647 85.2396 211.309 93.2577Z" fill="#5E8E11"/>
<path d="M212.543 90.9736C208.205 98.9916 192.475 98.8801 177.406 90.7254C162.337 82.5707 153.638 69.4573 157.974 61.4392C162.309 53.4212 178.042 53.5327 193.111 61.6875C208.177 69.8422 216.879 82.9555 212.543 90.9736Z" fill="#BED134"/>
<path d="M209.703 89.4313C206.048 96.1888 192.144 95.7426 178.648 88.4357C165.151 81.1316 157.169 69.7307 160.824 62.976C164.479 56.2185 178.383 56.6647 191.879 63.9716C205.379 71.2785 213.358 82.6767 209.703 89.4313Z" fill="#71AA21"/>
<path d="M184.575 74.4494C184.575 74.4494 183.156 64.719 176.08 61.5731C166.626 57.3702 166.094 61.2691 167.175 65.0313C168.187 68.5509 176.225 72.4805 184.575 74.4494Z" fill="#5E8E11"/>
<path d="M186.695 75.4423C186.695 75.4423 195.84 73.3478 202.668 77.0013C209.702 80.7663 208.411 84.1046 204.697 85.3429C200.103 86.874 192.91 81.3575 186.695 75.4423Z" fill="#5E8E11"/>
<path d="M184.001 75.5204C184.001 75.5204 172.768 72.4889 169.174 71.9562C165.581 71.4235 165.943 77.0208 172.202 80.4902C180.346 85.0026 184.001 75.5204 184.001 75.5204Z" fill="#5E8E11"/>
<path d="M185.858 76.5271C185.858 76.5271 194.743 84.1101 196.954 86.9938C199.697 90.572 192.683 91.4979 186.357 88.154C178.121 83.8005 185.858 76.5271 185.858 76.5271Z" fill="#5E8E11"/>
<path d="M186.549 73.8303C186.549 73.8303 184.383 67.8732 184.247 65.9517C184.11 64.0302 187.21 63.1572 191.972 65.6979C198.546 69.2063 198.053 71.4235 194.573 72.6367C191.091 73.8526 186.549 73.8303 186.549 73.8303Z" fill="#5E8E11"/>
<path d="M177.661 45.8385L117.125 32.2279L116.391 35.496L176.927 49.1066L177.661 45.8385Z" fill="#5E8E11"/>
<path d="M177.041 48.5238C175.042 57.4176 159.869 61.5814 143.155 57.822C126.439 54.0625 114.509 43.805 116.508 34.9113C118.507 26.0175 133.679 21.8537 150.393 25.6131C167.107 29.3725 179.04 39.6301 177.041 48.5238Z" fill="#5E8E11"/>
<path d="M177.611 45.9888C175.612 54.8825 160.44 59.0464 143.726 55.2869C127.009 51.5275 115.079 41.27 117.078 32.3762C119.077 23.4825 134.249 19.3186 150.963 23.0781C167.68 26.8375 179.61 37.095 177.611 45.9888Z" fill="#BED134"/>
<path d="M174.45 45.2804C172.766 52.7741 159.261 56.1208 144.289 52.7546C129.315 49.3884 118.542 40.5811 120.229 33.0873C121.913 25.5936 135.415 22.2469 150.389 25.6131C165.361 28.9793 176.134 37.7866 174.45 45.2804Z" fill="#71AA21"/>
<path d="M146.21 37.6779C146.21 37.6779 142.204 28.6977 134.54 27.5905C124.302 26.1124 124.846 30.0085 126.909 33.3356C128.835 36.4508 137.637 38.0517 146.21 37.6779Z" fill="#5E8E11"/>
<path d="M148.523 38.0572C148.523 38.0572 156.756 33.5587 164.32 35.2209C172.11 36.9361 171.775 40.4975 168.538 42.6979C164.529 45.4226 156.11 42.0648 148.523 38.0572Z" fill="#5E8E11"/>
<path d="M145.94 38.8688C145.94 38.8688 134.306 38.9999 130.701 39.4628C127.096 39.9258 128.964 45.2135 135.931 46.8534C144.998 48.9869 145.94 38.8688 145.94 38.8688Z" fill="#5E8E11"/>
<path d="M148.007 39.3317C148.007 39.3317 158.615 44.2178 161.526 46.3931C165.136 49.0928 158.638 51.8873 151.64 50.3868C142.531 48.4318 148.007 39.3317 148.007 39.3317Z" fill="#5E8E11"/>
<path d="M147.935 36.5484C147.935 36.5484 144.235 31.4029 143.58 29.5929C142.925 27.7829 145.674 26.0984 150.948 27.2502C158.228 28.8427 158.353 31.11 155.334 33.224C152.312 35.338 147.935 36.5484 147.935 36.5484Z" fill="#5E8E11"/>
<path d="M79.845 40.7205C83.4583 44.8257 80.135 53.6609 72.4206 60.4547C64.7062 67.2484 55.5253 69.4293 51.9121 65.3269C48.3016 61.2244 51.6221 52.3864 59.3365 45.5927C67.0509 38.7962 76.2318 36.6153 79.845 40.7205Z" fill="#E2660A"/>
<path d="M75.7303 36.0197L47.7969 60.6261L51.9243 65.3146L79.8577 40.7081L75.7303 36.0197Z" fill="#E2660A"/>
<path d="M75.713 36.0324C79.3262 40.1376 76.0029 48.9728 68.2885 55.7666C60.5769 62.5603 51.3933 64.7412 47.78 60.636C44.1668 56.5335 47.4928 47.6983 55.2044 40.9018C62.9188 34.1081 72.0997 31.9271 75.713 36.0324Z" fill="#FF871A"/>
<path d="M51.7984 48.217C51.7984 48.217 54.2993 49.0676 54.3244 51.0868C54.3522 53.1087 50.9453 57.7299 50.9453 57.7299C50.9453 57.7299 56.9144 53.6414 59.0751 52.9051C61.2358 52.1716 66.7589 54.0234 66.7589 54.0234C66.7589 54.0234 62.2813 50.3728 64.9132 48.0552C67.5451 45.7377 74.0913 42.8902 74.0913 42.8902C74.0913 42.8902 65.574 44.1619 66.2737 41.3061C66.8453 38.9718 66.8592 36.9945 66.8592 36.9945C66.8592 36.9945 62.6047 42.2153 60.7619 44.3321C58.2917 47.1684 51.7984 48.217 51.7984 48.217Z" fill="#FF9945"/>
<path d="M132.298 77.6232C132.407 83.0894 124.166 87.6911 113.892 87.8975C103.615 88.1038 95.1957 83.8368 95.087 78.3706C94.9783 72.9044 103.22 68.3027 113.493 68.0991C123.77 67.8927 132.187 72.157 132.298 77.6232Z" fill="#E2660A"/>
<path d="M132.158 71.3884L94.9453 72.1331L95.0702 78.3789L132.283 77.6343L132.158 71.3884Z" fill="#E2660A"/>
<path d="M132.171 71.3789C132.282 76.8479 124.038 81.4467 113.764 81.6531C103.49 81.8595 95.0707 77.5953 94.962 72.1263C94.8533 66.66 103.095 62.0612 113.368 61.8548C123.642 61.6456 132.062 65.9099 132.171 71.3789Z" fill="#FF871A"/>
<path d="M106.047 65.2378C106.047 65.2378 107.407 67.4995 106.125 69.0613C104.842 70.6231 99.2578 71.9506 99.2578 71.9506C99.2578 71.9506 106.456 72.6841 108.578 73.518C110.7 74.3519 113.725 79.3328 113.725 79.3328C113.725 79.3328 112.663 73.6546 116.167 73.5821C119.672 73.5124 126.508 75.5678 126.508 75.5678C126.508 75.5678 119.181 71.0387 121.559 69.3095C123.502 67.8956 124.788 66.3952 124.788 66.3952C124.788 66.3952 118.169 67.6334 115.395 68.0601C111.681 68.6319 106.047 65.2378 106.047 65.2378Z" fill="#FF9945"/>
<path d="M194.305 71.2087C191.838 76.0892 182.401 76.2816 173.231 71.6409C164.061 67.0002 158.627 59.2806 161.095 54.4C163.562 49.5223 173 49.3271 182.169 53.9678C191.336 58.6113 196.773 66.3309 194.305 71.2087Z" fill="#E2660A"/>
<path d="M197.11 65.6466L163.898 48.8365L161.079 54.4108L194.29 71.2209L197.11 65.6466Z" fill="#E2660A"/>
<path d="M197.126 65.6337C194.658 70.5142 185.224 70.7067 176.051 66.066C166.882 61.4252 161.448 53.7084 163.915 48.8278C166.382 43.9473 175.817 43.7548 184.99 48.3955C194.159 53.0362 199.593 60.7559 197.126 65.6337Z" fill="#FF871A"/>
<path d="M176.929 47.9465C176.929 47.9465 177.068 50.5848 175.203 51.3573C173.338 52.1327 167.781 50.6852 167.781 50.6852C167.781 50.6852 173.795 54.7096 175.278 56.4442C176.761 58.1761 177.093 63.9966 177.093 63.9966C177.093 63.9966 178.819 58.4829 181.947 60.0642C185.075 61.6483 190.149 66.6711 190.149 66.6711C190.149 66.6711 185.806 59.2332 188.716 58.8232C191.095 58.4885 192.937 57.7634 192.937 57.7634C192.937 57.7634 186.514 55.7498 183.862 54.8239C180.313 53.5884 176.929 47.9465 176.929 47.9465Z" fill="#FF9945"/>
</svg>
