<svg width="223" height="199" viewBox="0 0 223 199" fill="none" xmlns="http://www.w3.org/2000/svg">
<path d="M162.293 97.4792C177.597 95.9917 192.322 98.4664 200.982 107.859C207.153 114.551 213.171 127.554 213.885 135.25C214.404 140.898 169.597 139.89 125.998 138.24C87.9776 136.799 51.0892 134.796 45.7042 129.236C45.3257 128.849 44.8216 127.385 45.6909 127.096C63.048 121.357 147.977 98.8716 162.293 97.4792Z" fill="#FFD361"/>
<path opacity="0.3" d="M162.298 95.7805C177.602 94.2911 192.327 96.7696 200.987 106.161C207.16 112.849 213.176 125.852 213.89 133.552C214.411 139.203 169.482 138.463 125.816 137.051C87.821 135.825 51.157 133.867 45.6161 128.473C40.2843 123.28 146.384 97.3308 162.298 95.7805Z" fill="#FFD970"/>
<path d="M218.84 34.8105C207.262 7.60973 160.069 11.22 131.271 15.0795C114.142 17.3754 97.9965 24.8242 81.4687 27.1125C76.0077 27.8695 71.6384 27.1981 66.495 26.7282C65.5249 28.6589 64.0241 30.2092 62.1828 31.339L68.2469 34.6183C67.1474 33.9906 64.241 33.0624 60.625 32.1589C59.1337 32.8265 57.494 33.2621 55.7764 33.4352C55.746 33.4371 55.7307 33.439 55.7022 33.4409C55.5614 33.4771 55.3922 33.5151 55.1563 33.5646C54.5495 33.6882 53.9465 33.8271 53.3435 33.9773C51.9683 34.3235 50.5227 34.6069 49.1988 35.1186C45.8339 36.414 42.6516 37.0645 39.0223 36.1648C38.5277 36.0431 38.0541 35.8757 37.5938 35.6893C38.3147 41.5688 38.9348 47.106 39.4598 52.2893C41.2059 53.2499 42.3948 55.0379 42.3948 57.1151C42.3948 58.8251 41.5769 60.3354 40.3195 61.3607C41.0005 69.1328 41.4684 76.049 41.7842 82.1607C46.7165 83.1574 46.4654 91.9834 42.2198 92.7899C42.3739 97.9979 42.4138 102.417 42.4138 106.168C43.7948 106.461 44.8276 107.638 44.8276 109.059C44.8276 110.48 43.7795 111.667 42.3834 111.95C42.3263 117.95 42.2521 121.345 42.7162 122.758C47.133 136.197 79.5951 133.922 90.2757 134.456C108.464 135.368 202.002 141.671 212.186 135.7C224.292 128.6 224.921 49.0918 218.84 34.8105Z" fill="#FFE085"/>
<path d="M162.294 2.10002C177.599 0.61064 192.324 3.08724 200.984 12.4762C207.155 19.168 219.205 31.3494 219.916 39.0474C220.892 49.6176 48.6542 48.3318 37.0948 36.392C36.7163 36.0058 36.2122 34.5393 37.0815 34.254C54.4367 28.5114 147.979 3.4924 162.294 2.10002Z" fill="#FFD361"/>
<path d="M162.291 0.401625C177.596 -1.08776 192.321 1.39074 200.981 10.7797C207.154 17.4696 219.202 29.6491 219.913 37.349C220.891 47.9173 48.6513 46.6334 37.092 34.6936C33.3257 30.8094 146.378 1.94997 162.291 0.401625Z" fill="#FFD970"/>
<path d="M81.2182 74.537C81.2182 77.6184 78.5209 80.1179 75.1941 80.1179C71.8691 80.1179 69.1719 77.6203 69.1719 74.537C69.1719 71.4536 71.8691 68.9561 75.1941 68.9561C78.5228 68.9561 81.2182 71.4536 81.2182 74.537Z" fill="#FFD970"/>
<path opacity="0.2" d="M75.1832 80.1171C78.2095 80.1171 80.6652 77.8421 80.6652 75.0383C80.6652 74.0625 80.3533 73.1628 79.8397 72.3867C79.1036 72.8432 78.7973 73.7487 77.9927 74.2908C76.5261 75.278 75.2992 75.1315 73.5759 75.0459C72.3718 74.9832 70.97 74.8671 69.7031 75.0611C69.7202 77.8592 72.1664 80.1171 75.1832 80.1171Z" fill="#FFD970"/>
<path d="M109.008 96.4347C109.008 100.016 106.037 102.917 102.375 102.917C98.7114 102.917 95.7422 100.016 95.7422 96.4347C95.7422 92.8548 98.7114 89.9521 102.375 89.9521C106.039 89.9521 109.008 92.8548 109.008 96.4347Z" fill="#FFD970"/>
<path opacity="0.2" d="M102.37 102.917C105.704 102.917 108.407 100.275 108.407 97.0161C108.407 95.8844 108.065 94.8363 107.496 93.9385C106.687 94.4692 106.353 95.5192 105.466 96.1488C103.849 97.2958 102.499 97.1284 100.601 97.0276C99.2748 96.9572 97.7302 96.8202 96.3359 97.0504C96.3569 100.292 99.0484 102.917 102.37 102.917Z" fill="#FFD970"/>
<path d="M151.652 76.2538C151.652 79.3371 149.055 81.8366 145.848 81.8366C142.643 81.8366 140.047 79.3371 140.047 76.2538C140.047 73.1723 142.643 70.6729 145.848 70.6729C149.055 70.6729 151.652 73.1723 151.652 76.2538Z" fill="#FFD970"/>
<path opacity="0.2" d="M145.849 81.8338C148.765 81.8338 151.127 79.5608 151.127 76.7551C151.127 75.7774 150.831 74.8796 150.334 74.1035C149.625 74.5619 149.334 75.4636 148.557 76.0057C147.142 76.9967 145.963 76.8483 144.302 76.7627C143.142 76.7038 141.791 76.5858 140.57 76.7817C140.587 79.576 142.942 81.8338 145.849 81.8338Z" fill="#FFD970"/>
<path d="M195.058 120.778C195.058 123.858 192.462 126.359 189.258 126.359C186.051 126.359 183.453 123.86 183.453 120.778C183.453 117.695 186.051 115.197 189.258 115.197C192.46 115.197 195.058 117.695 195.058 120.778Z" fill="#FFD970"/>
<path opacity="0.2" d="M189.255 126.358C192.169 126.358 194.533 124.085 194.533 121.28C194.533 120.306 194.235 119.404 193.74 118.63C193.033 119.086 192.74 119.99 191.964 120.532C190.547 121.521 189.367 121.371 187.709 121.285C186.548 121.226 185.196 121.106 183.977 121.304C183.992 124.099 186.35 126.358 189.255 126.358Z" fill="#FFD970"/>
<path d="M204.9 63.0418C204.9 66.1233 202.304 68.6227 199.1 68.6227C195.895 68.6227 193.297 66.1252 193.297 63.0418C193.297 59.9584 195.895 57.459 199.1 57.459C202.304 57.4609 204.9 59.9584 204.9 63.0418Z" fill="#FFD970"/>
<path opacity="0.2" d="M199.097 68.622C202.013 68.622 204.375 66.349 204.375 63.5433C204.375 62.5694 204.077 61.6678 203.582 60.8955C202.873 61.3501 202.58 62.2536 201.806 62.7957C200.392 63.7811 199.209 63.6384 197.55 63.5509C196.392 63.49 195.041 63.3721 193.82 63.5699C193.834 66.3642 196.187 68.622 199.097 68.622Z" fill="#FFD970"/>
<path d="M140.419 116.59C140.419 118.901 138.467 120.773 136.059 120.773C133.653 120.773 131.703 118.901 131.703 116.59C131.703 114.279 133.653 112.403 136.059 112.403C138.467 112.403 140.419 114.279 140.419 116.59Z" fill="#FFD970"/>
<path opacity="0.2" d="M136.05 120.771C138.239 120.771 140.016 119.067 140.016 116.963C140.016 116.231 139.792 115.556 139.421 114.976C138.89 115.318 138.667 115.997 138.087 116.402C137.022 117.146 136.138 117.038 134.89 116.971C134.017 116.923 133.003 116.838 132.086 116.982C132.099 119.077 133.868 120.771 136.05 120.771Z" fill="#FFD970"/>
<path d="M69.6805 114.977C69.6805 116.611 68.2995 117.943 66.5971 117.943C64.8947 117.943 63.5156 116.613 63.5156 114.977C63.5156 113.341 64.8947 112.016 66.5971 112.016C68.2995 112.018 69.6805 113.343 69.6805 114.977Z" fill="#FFD970"/>
<path opacity="0.2" d="M66.5987 117.943C68.1471 117.943 69.4063 116.731 69.4063 115.246C69.4063 114.73 69.2465 114.251 68.9821 113.842C68.6055 114.083 68.4514 114.563 68.0387 114.848C67.2873 115.371 66.6615 115.297 65.7789 115.249C65.1626 115.219 64.4455 115.156 63.7969 115.261C63.8045 116.739 65.0542 117.943 66.5987 117.943Z" fill="#FFD970"/>
<path d="M119.032 67.7145C119.032 69.3466 117.651 70.6743 115.951 70.6743C114.246 70.6743 112.867 69.3485 112.867 67.7145C112.867 66.0787 114.248 64.751 115.951 64.751C117.651 64.751 119.032 66.0768 119.032 67.7145Z" fill="#FFD970"/>
<path opacity="0.2" d="M115.95 70.6724C117.499 70.6724 118.756 69.4664 118.756 67.977C118.756 67.4616 118.598 66.9841 118.334 66.5732C117.959 66.8148 117.801 67.2942 117.39 67.5814C116.637 68.1045 116.011 68.0265 115.129 67.9827C114.512 67.9504 113.797 67.8876 113.148 67.9922C113.154 69.4721 114.404 70.6724 115.95 70.6724Z" fill="#FFD970"/>
<path d="M176.899 96.4362C176.899 98.0701 175.518 99.3978 173.816 99.3978C172.113 99.3978 170.734 98.0721 170.734 96.4362C170.734 94.8023 172.113 93.4727 173.816 93.4727C175.518 93.4727 176.899 94.8023 176.899 96.4362Z" fill="#FFD970"/>
<path opacity="0.2" d="M173.819 99.3979C175.368 99.3979 176.627 98.19 176.627 96.7045C176.627 96.1871 176.467 95.7077 176.203 95.2969C175.826 95.5384 175.67 96.0197 175.257 96.305C174.506 96.83 173.878 96.752 172.998 96.7083C172.379 96.674 171.662 96.6151 171.016 96.7197C171.023 98.1977 172.275 99.3979 173.819 99.3979Z" fill="#FFD970"/>
<path d="M57.9227 52.6726C57.9227 54.3084 56.5436 55.6361 54.8412 55.6361C53.1369 55.6361 51.7578 54.3103 51.7578 52.6726C51.7578 51.0405 53.1369 49.7109 54.8412 49.7109C56.5436 49.7128 57.9227 51.0405 57.9227 52.6726Z" fill="#FFD970"/>
<path opacity="0.2" d="M54.8409 55.6362C56.3912 55.6362 57.6485 54.4264 57.6485 52.9408C57.6485 52.4254 57.4887 51.946 57.2262 51.5352C56.8515 51.7767 56.6936 52.2561 56.2809 52.5433C55.5295 53.0683 54.9018 52.9903 54.0211 52.9427C53.4048 52.9123 52.6858 52.8495 52.0391 52.9542C52.0467 54.4359 53.2964 55.6362 54.8409 55.6362Z" fill="#FFD970"/>
<path opacity="0.2" d="M182.063 98.0055C168.777 104.625 154.714 109.344 140.26 112.762C121.957 117.094 101.532 121.497 82.8302 119.066C72.4483 117.714 62.0245 115.292 51.8461 112.405C50.1646 111.929 47.6423 111.079 44.6598 110.117C44.2889 111.037 43.4538 111.741 42.4248 111.948C42.3677 117.948 42.2954 121.343 42.7576 122.756C47.1744 136.195 79.6384 133.92 90.3171 134.455C108.505 135.366 202.046 141.669 212.228 135.699C219.787 131.267 222.29 96.6075 221.626 67.7119C216.34 70.607 211.37 74.7708 208.125 77.4756C199.609 84.584 192.259 92.923 182.063 98.0055Z" fill="#FFD970"/>
<path opacity="0.2" d="M116.109 31.7935C131.821 31.7916 148.381 32.4878 163.728 30.5666C172.305 29.4938 182.279 26.9887 187.906 23.0227C192.125 20.0496 196.452 16.369 201.912 20.9741C205.482 23.989 209.741 27.0724 208.94 31.2894C208.061 35.9231 200.274 37.519 193.595 38.7002C185.37 40.1496 176.78 40.3075 168.116 39.7939C153.608 38.9342 138.992 39.0121 124.31 39.0121C113.534 39.0121 103.247 38.8143 92.4466 38.4967C87.9576 38.3673 83.2916 38.2075 79.2438 37.5228C77.121 37.1652 71.7475 37.0377 71.7893 35.185C71.8369 33.1345 79.8069 32.9139 81.9544 32.6856C93.2113 31.4853 104.727 31.7935 116.109 31.7935Z" fill="#FFE085"/>
<path d="M169.83 183.687C169.83 183.687 169.824 183.687 169.821 183.687C171.059 179.474 171.297 175.563 169.979 173.828C148.486 172.483 63.1691 174.338 40.5944 173.526C40.4213 173.513 40.252 174.88 40.5944 176.027C41.8212 176.271 42.6487 176.683 42.6335 177.14C42.6258 177.517 38.3841 179.43 37.6669 178.778C38.1044 180.495 37.4786 179.93 37.6669 181.279C41.1346 181.583 36.9593 184.273 33.9654 184.378C34.0472 185.526 33.9863 186.053 33.9654 186.879C34.9336 186.965 35.6564 187.242 35.6488 187.552C35.6469 187.661 35.5308 187.756 35.3749 187.841C35.2759 187.895 35.1599 187.942 35.0154 187.982C34.9279 188.007 34.8346 188.028 34.7338 188.049C34.5455 188.085 34.3344 188.112 34.1042 188.129C34.0376 188.131 33.9806 188.144 33.9121 188.146C33.8417 189.464 33.7694 190.208 34.089 190.527C37.1267 193.555 65.0541 195.965 72.5714 196.272C83.7712 196.723 135.567 199.075 153.16 198.893C155.686 198.868 157.508 198.79 158.412 198.649C158.552 198.627 158.676 198.556 158.813 198.524C159.199 198.434 159.579 198.336 159.958 198.17C160.949 197.763 161.854 197.122 162.693 196.315C162.762 196.253 162.826 196.179 162.895 196.116C163.178 195.83 163.467 195.557 163.736 195.233C166.395 192.277 168.58 187.885 169.802 183.752C169.809 183.735 169.821 183.71 169.83 183.687Z" fill="#FFD361"/>
<path d="M169.977 171.326C148.484 169.982 65.8054 168.684 43.2326 167.874C43.0595 167.863 40.252 172.376 40.5944 173.527C41.8212 173.769 42.6487 174.183 42.6335 174.64C42.6258 175.015 40.3566 175.184 39.6395 174.532C38.8501 176.668 37.4786 177.43 37.6669 178.779C41.1346 179.082 40.2044 180.093 37.2104 180.196C37.2941 181.345 33.9863 183.553 33.9654 184.379C34.9336 184.465 35.6564 184.742 35.6488 185.052C35.6431 185.364 34.8955 185.608 33.9121 185.648C33.8417 186.964 33.7694 187.708 34.089 188.027C37.1267 191.057 65.0541 193.466 72.5714 193.774C85.3709 194.287 151.185 197.287 158.389 196.149C166.456 194.875 173.387 175.817 169.977 171.326Z" fill="#FFE085"/>
<path d="M66.513 180.45C66.4959 181.123 64.5842 181.627 62.2427 181.568C59.9031 181.511 58.0161 180.914 58.0313 180.241C58.0485 179.561 59.962 179.059 62.3017 179.114C64.647 179.173 66.5282 179.769 66.513 180.45Z" fill="#FFD970"/>
<path opacity="0.2" d="M62.2391 181.569C64.3676 181.622 66.11 181.164 66.1252 180.548C66.1309 180.336 65.9159 180.129 65.5583 179.952C65.0371 180.042 64.8165 180.23 64.2477 180.338C63.2073 180.53 62.3456 180.477 61.1339 180.43C60.2875 180.393 59.3003 180.344 58.4062 180.363C58.4062 180.979 60.1163 181.516 62.2391 181.569Z" fill="#FFD970"/>
<path d="M85.9647 185.737C85.9457 186.524 83.8362 187.112 81.2588 187.048C78.6795 186.985 76.6061 186.294 76.6251 185.507C76.6442 184.719 78.7498 184.132 81.3291 184.196C83.9066 184.263 85.9818 184.951 85.9647 185.737Z" fill="#FFD970"/>
<path opacity="0.2" d="M81.2542 187.05C83.6015 187.105 85.5188 186.575 85.536 185.857C85.5417 185.606 85.3058 185.372 84.9121 185.165C84.3395 185.268 84.096 185.496 83.4721 185.618C82.327 185.842 81.376 185.778 80.0426 185.728C79.1086 185.686 78.0206 185.629 77.0391 185.658C77.0372 186.369 78.9165 186.991 81.2542 187.05Z" fill="#FFD970"/>
<path d="M116.092 182.038C116.077 182.715 114.23 183.221 111.975 183.168C109.72 183.109 107.905 182.516 107.922 181.838C107.937 181.163 109.78 180.655 112.036 180.712C114.292 180.768 116.107 181.365 116.092 182.038Z" fill="#FFD970"/>
<path opacity="0.2" d="M111.971 183.167C114.022 183.216 115.698 182.758 115.713 182.145C115.721 181.928 115.515 181.723 115.169 181.546C114.669 181.631 114.458 181.827 113.908 181.932C112.909 182.126 112.08 182.073 110.91 182.029C110.092 181.991 109.145 181.945 108.281 181.968C108.279 182.579 109.925 183.113 111.971 183.167Z" fill="#FFD970"/>
<path d="M146.396 192.574C146.379 193.253 144.536 193.758 142.284 193.704C140.026 193.647 138.21 193.054 138.227 192.375C138.246 191.696 140.087 191.193 142.343 191.251C144.599 191.304 146.414 191.897 146.396 192.574Z" fill="#FFD970"/>
<path opacity="0.2" d="M142.29 193.705C144.337 193.752 146.016 193.294 146.029 192.677C146.035 192.462 145.832 192.261 145.487 192.082C144.985 192.17 144.778 192.365 144.226 192.468C143.224 192.66 142.393 192.609 141.227 192.561C140.407 192.525 139.459 192.478 138.602 192.502C138.598 193.117 140.241 193.653 142.29 193.705Z" fill="#FFD970"/>
<path d="M153.639 180.056C153.621 180.73 151.78 181.236 149.526 181.181C147.266 181.125 145.454 180.532 145.469 179.855C145.488 179.176 147.329 178.672 149.585 178.727C151.843 178.782 153.654 179.375 153.639 180.056Z" fill="#FFD970"/>
<path opacity="0.2" d="M149.532 181.185C151.583 181.229 153.26 180.77 153.275 180.158C153.279 179.943 153.076 179.736 152.73 179.562C152.229 179.65 152.018 179.842 151.472 179.949C150.47 180.143 149.639 180.089 148.471 180.044C147.653 180.01 146.705 179.958 145.844 179.983C145.84 180.593 147.482 181.132 149.532 181.185Z" fill="#FFD970"/>
<path d="M107.957 190.711C107.943 191.217 106.561 191.595 104.864 191.553C103.167 191.514 101.809 191.067 101.82 190.559C101.83 190.051 103.213 189.672 104.908 189.714C106.6 189.754 107.966 190.201 107.957 190.711Z" fill="#FFD970"/>
<path opacity="0.2" d="M104.869 191.554C106.41 191.592 107.671 191.25 107.682 190.788C107.686 190.626 107.532 190.474 107.275 190.341C106.897 190.409 106.737 190.55 106.328 190.632C105.575 190.778 104.949 190.736 104.07 190.702C103.46 190.674 102.745 190.639 102.102 190.653C102.096 191.117 103.332 191.516 104.869 191.554Z" fill="#FFD970"/>
<path d="M58.1845 189.137C58.1731 189.494 57.1954 189.761 55.999 189.732C54.7987 189.703 53.8343 189.388 53.8438 189.028C53.8495 188.667 54.8291 188.397 56.0256 188.427C57.2258 188.459 58.1902 188.775 58.1845 189.137Z" fill="#FFD970"/>
<path opacity="0.2" d="M55.9964 189.734C57.0882 189.762 57.9803 189.517 57.9879 189.192C57.9879 189.072 57.8795 188.969 57.6988 188.872C57.4306 188.918 57.3184 189.024 57.0293 189.078C56.4966 189.18 56.0554 189.154 55.4334 189.125C54.9978 189.11 54.4937 189.083 54.0391 189.095C54.0353 189.42 54.9103 189.705 55.9964 189.734Z" fill="#FFD970"/>
<path d="M93.1611 179.596C93.1535 179.955 92.1739 180.226 90.9793 180.195C89.779 180.165 88.8127 179.849 88.8204 179.491C88.8299 179.132 89.8114 178.865 91.0078 178.896C92.2081 178.924 93.1725 179.236 93.1611 179.596Z" fill="#FFD970"/>
<path opacity="0.2" d="M90.9748 180.196C92.0648 180.222 92.9569 179.979 92.9645 179.654C92.9683 179.538 92.8561 179.431 92.6754 179.338C92.4091 179.382 92.2968 179.486 92.0058 179.54C91.4732 179.642 91.0319 179.616 90.4099 179.589C89.9762 179.574 89.4702 179.545 89.0156 179.559C89.0137 179.886 89.8868 180.169 90.9748 180.196Z" fill="#FFD970"/>
<path d="M133.745 186.911C133.736 187.269 132.758 187.539 131.558 187.508C130.359 187.478 129.399 187.164 129.406 186.805C129.416 186.441 130.394 186.175 131.592 186.205C132.79 186.236 133.755 186.55 133.745 186.911Z" fill="#FFD970"/>
<path opacity="0.2" d="M131.557 187.509C132.651 187.534 133.543 187.294 133.55 186.965C133.554 186.851 133.442 186.743 133.259 186.649C132.993 186.695 132.883 186.796 132.59 186.853C132.057 186.958 131.614 186.927 130.996 186.902C130.56 186.881 130.056 186.859 129.602 186.872C129.6 187.197 130.475 187.484 131.557 187.509Z" fill="#FFD970"/>
<path d="M50.2295 175.238C50.2219 175.598 49.2423 175.864 48.0458 175.834C46.8475 175.803 45.8812 175.491 45.8907 175.13C45.9002 174.772 46.8798 174.504 48.0763 174.535C49.2765 174.563 50.2409 174.881 50.2295 175.238Z" fill="#FFD970"/>
<path opacity="0.2" d="M48.0452 175.834C49.1389 175.865 50.0272 175.619 50.0367 175.292C50.0367 175.18 49.9283 175.07 49.7476 174.977C49.4794 175.022 49.3672 175.127 49.0742 175.182C48.5435 175.285 48.1022 175.254 47.4802 175.23C47.0484 175.212 46.5425 175.19 46.0859 175.197C46.084 175.522 46.9609 175.812 48.0452 175.834Z" fill="#FFD970"/>
<path opacity="0.2" d="M137.368 187.345C127.979 188.57 118.054 189.367 107.862 189.865C94.9523 190.502 80.5511 191.119 67.3978 190.261C60.0973 189.783 52.7703 189.072 45.6239 188.26C44.4408 188.126 37.6063 185.547 35.5102 185.285C35.2439 185.481 34.6523 185.621 33.9295 185.65C33.8553 186.964 33.7868 187.714 34.1045 188.026C37.1403 191.058 65.0715 193.472 72.5849 193.772C85.3864 194.286 151.201 197.287 158.402 196.15C163.751 195.307 166.768 188.427 169.823 181.186C166.087 181.733 158.13 182.747 155.829 183.284C149.795 184.697 144.576 186.403 137.368 187.345Z" fill="#FFD970"/>
<path d="M171.838 177.565C171.838 177.565 171.832 177.565 171.828 177.565C173.067 173.352 173.305 169.441 171.986 167.707C150.496 166.362 65.1769 168.214 42.6022 167.404C42.4291 167.391 42.2598 168.758 42.6022 169.905C43.8291 170.149 44.6565 170.562 44.6413 171.018C44.6337 171.395 40.3919 173.308 39.6748 172.656C40.1123 174.374 39.4884 173.809 39.6748 175.157C43.1443 175.462 38.9672 178.151 35.9732 178.256C36.055 179.405 35.996 179.932 35.9732 180.757C36.9414 180.843 37.6642 181.12 37.6566 181.431C37.6528 181.539 37.5386 181.634 37.3808 181.72C37.2819 181.773 37.1658 181.82 37.0213 181.86C36.9357 181.885 36.8425 181.906 36.7416 181.925C36.5514 181.963 36.3403 181.99 36.112 182.007C36.0455 182.009 35.9884 182.022 35.9199 182.024C35.8495 183.34 35.7773 184.084 36.0968 184.405C39.1345 187.434 67.0638 189.844 74.5792 190.15C85.7809 190.599 137.575 192.952 155.168 192.771C157.694 192.746 159.516 192.668 160.419 192.526C160.56 192.505 160.684 192.433 160.821 192.402C161.207 192.313 161.587 192.214 161.964 192.048C162.957 191.641 163.86 191 164.699 190.194C164.768 190.131 164.834 190.057 164.903 189.994C165.186 189.709 165.475 189.435 165.743 189.111C168.403 186.155 170.588 181.763 171.809 177.63C171.819 177.613 171.828 177.588 171.838 177.565Z" fill="#FFD361"/>
<path d="M171.984 165.206C150.494 163.862 67.8152 162.564 45.2404 161.754C45.0673 161.741 42.2598 166.256 42.6022 167.405C43.8291 167.647 44.6565 168.06 44.6413 168.516C44.6337 168.893 42.3644 169.062 41.6473 168.408C40.8579 170.546 39.4883 171.307 39.6748 172.657C43.1443 172.96 42.2122 173.971 39.2182 174.074C39.3019 175.223 35.9941 177.431 35.9732 178.257C36.9414 178.343 37.6642 178.62 37.6566 178.93C37.6509 179.242 36.9033 179.486 35.9199 179.526C35.8495 180.842 35.7773 181.586 36.0968 181.905C39.1345 184.935 67.0638 187.344 74.5792 187.652C87.3788 188.165 153.193 191.165 160.397 190.027C168.464 188.753 175.395 169.695 171.984 165.206Z" fill="#FFE085"/>
<path d="M68.513 174.328C68.4959 175.001 66.5842 175.505 64.2427 175.446C61.9031 175.389 60.0161 174.792 60.0313 174.117C60.0485 173.439 61.962 172.937 64.3017 172.992C66.6451 173.053 68.5263 173.645 68.513 174.328Z" fill="#FFD970"/>
<path opacity="0.2" d="M64.2391 175.447C66.3676 175.5 68.11 175.042 68.1252 174.425C68.129 174.214 67.9159 174.007 67.5583 173.83C67.0371 173.918 66.8165 174.108 66.2477 174.216C65.2073 174.408 64.3456 174.355 63.1339 174.308C62.2875 174.271 61.3003 174.222 60.4063 174.241C60.4043 174.857 62.1144 175.394 64.2391 175.447Z" fill="#FFD970"/>
<path d="M87.9725 179.616C87.9535 180.403 85.844 180.991 83.2666 180.926C80.6873 180.862 78.6139 180.173 78.6329 179.386C78.652 178.598 80.7576 178.011 83.337 178.075C85.9163 178.138 87.9915 178.83 87.9725 179.616Z" fill="#FFD970"/>
<path opacity="0.2" d="M83.262 180.927C85.6093 180.982 87.5267 180.451 87.5457 179.732C87.5495 179.483 87.3155 179.249 86.9199 179.042C86.3473 179.145 86.1039 179.373 85.4799 179.495C84.3349 179.719 83.3838 179.654 82.0504 179.605C81.1164 179.563 80.0284 179.506 79.0469 179.535C79.0431 180.248 80.9224 180.868 83.262 180.927Z" fill="#FFD970"/>
<path d="M118.1 175.917C118.084 176.592 116.239 177.1 113.987 177.047C111.727 176.988 109.915 176.394 109.93 175.717C109.947 175.042 111.792 174.534 114.046 174.589C116.3 174.646 118.117 175.243 118.1 175.917Z" fill="#FFD970"/>
<path opacity="0.2" d="M113.993 177.045C116.045 177.095 117.721 176.636 117.736 176.024C117.744 175.805 117.539 175.602 117.192 175.425C116.692 175.51 116.483 175.704 115.931 175.811C114.931 176.007 114.103 175.952 112.932 175.906C112.117 175.87 111.166 175.824 110.305 175.845C110.303 176.458 111.95 176.994 113.993 177.045Z" fill="#FFD970"/>
<path d="M148.404 186.452C148.387 187.129 146.544 187.635 144.292 187.582C142.034 187.525 140.217 186.931 140.234 186.252C140.254 185.573 142.095 185.071 144.353 185.126C146.609 185.179 148.423 185.775 148.404 186.452Z" fill="#FFD970"/>
<path opacity="0.2" d="M144.298 187.582C146.344 187.63 148.024 187.172 148.037 186.555C148.043 186.34 147.839 186.139 147.495 185.96C146.993 186.047 146.786 186.243 146.234 186.346C145.232 186.536 144.4 186.487 143.234 186.439C142.415 186.403 141.467 186.356 140.609 186.38C140.606 186.997 142.251 187.531 144.298 187.582Z" fill="#FFD970"/>
<path d="M155.646 173.934C155.629 174.608 153.788 175.114 151.534 175.058C149.276 175.003 147.461 174.41 147.477 173.731C147.496 173.054 149.337 172.55 151.593 172.605C153.851 172.66 155.662 173.253 155.646 173.934Z" fill="#FFD970"/>
<path opacity="0.2" d="M151.54 175.061C153.59 175.107 155.268 174.648 155.283 174.036C155.287 173.821 155.084 173.614 154.737 173.44C154.237 173.528 154.026 173.72 153.48 173.825C152.478 174.022 151.646 173.967 150.478 173.922C149.661 173.887 148.713 173.836 147.852 173.861C147.846 174.473 149.489 175.008 151.54 175.061Z" fill="#FFD970"/>
<path d="M109.972 184.59C109.959 185.096 108.576 185.474 106.879 185.432C105.185 185.392 103.821 184.945 103.836 184.438C103.847 183.93 105.228 183.551 106.923 183.593C108.618 183.633 109.984 184.08 109.972 184.59Z" fill="#FFD970"/>
<path opacity="0.2" d="M106.885 185.433C108.424 185.471 109.687 185.127 109.698 184.667C109.702 184.505 109.548 184.353 109.293 184.22C108.914 184.288 108.755 184.429 108.342 184.509C107.589 184.655 106.965 184.615 106.086 184.581C105.475 184.553 104.76 184.516 104.117 184.532C104.112 184.996 105.35 185.397 106.885 185.433Z" fill="#FFD970"/>
<path d="M60.1923 183.014C60.1809 183.371 59.2051 183.639 58.0067 183.611C56.8065 183.582 55.844 183.267 55.8516 182.907C55.8573 182.546 56.8369 182.276 58.0334 182.306C59.2355 182.336 60.1999 182.652 60.1923 183.014Z" fill="#FFD970"/>
<path opacity="0.2" d="M58.0023 183.612C59.0941 183.64 59.9863 183.393 59.9939 183.068C59.9939 182.95 59.8854 182.847 59.7047 182.75C59.4365 182.796 59.3243 182.902 59.0352 182.955C58.5026 183.058 58.0613 183.032 57.4412 183.003C57.0056 182.988 56.5015 182.961 56.0469 182.973C56.0412 183.298 56.9162 183.585 58.0023 183.612Z" fill="#FFD970"/>
<path d="M95.167 173.474C95.1594 173.833 94.1817 174.103 92.9871 174.073C91.7869 174.043 90.8206 173.727 90.8282 173.369C90.8377 173.008 91.8192 172.743 93.0175 172.774C94.214 172.802 95.1784 173.116 95.167 173.474Z" fill="#FFD970"/>
<path opacity="0.2" d="M92.9827 174.076C94.0726 174.102 94.9647 173.859 94.9723 173.534C94.9761 173.417 94.8658 173.311 94.6851 173.218C94.4169 173.262 94.3046 173.366 94.0136 173.419C93.481 173.522 93.0397 173.495 92.4177 173.467C91.9821 173.452 91.4781 173.425 91.0234 173.438C91.0215 173.766 91.8946 174.047 92.9827 174.076Z" fill="#FFD970"/>
<path d="M135.753 180.788C135.743 181.146 134.766 181.416 133.565 181.386C132.369 181.355 131.406 181.04 131.414 180.682C131.424 180.321 132.399 180.052 133.6 180.085C134.798 180.111 135.762 180.427 135.753 180.788Z" fill="#FFD970"/>
<path opacity="0.2" d="M133.565 181.386C134.659 181.411 135.551 181.171 135.558 180.842C135.562 180.728 135.452 180.62 135.267 180.526C135.001 180.572 134.891 180.673 134.598 180.73C134.065 180.835 133.622 180.804 133.004 180.779C132.568 180.758 132.064 180.736 131.609 180.749C131.606 181.074 132.481 181.363 133.565 181.386Z" fill="#FFD970"/>
<path d="M52.2295 169.115C52.2219 169.473 51.2423 169.741 50.0458 169.71C48.8475 169.68 47.8812 169.368 47.8907 169.007C47.9002 168.649 48.8798 168.381 50.0763 168.409C51.2765 168.442 52.2409 168.759 52.2295 169.115Z" fill="#FFD970"/>
<path opacity="0.2" d="M50.0433 169.712C51.137 169.743 52.0253 169.497 52.0348 169.17C52.0348 169.056 51.9264 168.948 51.7457 168.854C51.4775 168.9 51.3653 169.003 51.0742 169.06C50.5416 169.163 50.1003 169.132 49.4802 169.107C49.0465 169.09 48.5425 169.068 48.0859 169.075C48.0821 169.4 48.9571 169.688 50.0433 169.712Z" fill="#FFD970"/>
<path opacity="0.2" d="M139.39 181.223C130.001 182.448 120.077 183.245 109.886 183.743C96.9758 184.38 82.5727 184.997 69.4212 184.139C62.1208 183.661 54.7937 182.95 47.6473 182.138C46.4642 182.004 39.6298 179.425 37.5336 179.163C37.2673 179.359 36.6757 179.499 35.9529 179.528C35.8787 180.842 35.8103 181.592 36.1279 181.904C39.1637 184.936 67.0949 187.349 74.6065 187.648C87.408 188.164 153.222 191.165 160.424 190.028C165.773 189.185 168.791 182.305 171.844 175.063C168.109 175.609 160.152 176.625 157.85 177.162C151.817 178.577 146.597 180.281 139.39 181.223Z" fill="#FFD970"/>
<path d="M132.945 157.931C132.941 157.931 132.936 157.931 132.936 157.931C133.299 153.554 132.743 149.676 131.104 148.245C109.783 151.254 26.5863 170.249 4.31027 174.002C4.13908 174.023 4.2475 175.396 4.81434 176.452C6.06595 176.443 6.95806 176.68 7.03415 177.131C7.10262 177.5 3.33256 180.23 2.49942 179.735C3.2736 181.329 2.54698 180.903 3.00349 182.187C6.4616 181.786 2.91409 185.261 0 185.965C0.313855 187.076 0.359505 187.602 0.504068 188.417C1.47036 188.302 2.23312 188.434 2.28828 188.74C2.30731 188.845 2.2141 188.961 2.07715 189.077C1.98965 189.151 1.88693 189.219 1.75378 189.286C1.67389 189.328 1.58829 189.37 1.49319 189.408C1.31438 189.482 1.11466 189.55 0.892108 189.613C0.829337 189.63 0.776076 189.653 0.707599 189.668C0.905423 190.975 0.981507 191.715 1.36004 191.964C4.94559 194.319 32.7873 191.057 40.2095 189.841C51.2724 188.029 102.478 179.901 119.676 176.18C122.145 175.649 123.915 175.204 124.77 174.883C124.903 174.833 125.009 174.74 125.139 174.681C125.496 174.516 125.852 174.341 126.187 174.101C127.077 173.506 127.832 172.695 128.492 171.739C128.545 171.662 128.599 171.577 128.652 171.501C128.871 171.162 129.097 170.835 129.295 170.466C131.307 167.036 132.563 162.292 132.928 157.999C132.934 157.98 132.939 157.954 132.945 157.931Z" fill="#FFD361"/>
<path d="M130.605 145.793C109.284 148.802 28.0374 164.183 5.76323 167.936C5.59013 167.957 3.74885 172.946 4.31569 174.004C5.5654 173.992 6.45751 174.23 6.5355 174.681C6.60208 175.05 4.4146 175.674 3.57956 175.179C3.23717 177.431 2.04833 178.455 2.50485 179.737C5.96295 179.335 5.25536 180.513 2.34316 181.217C2.65702 182.324 -0.13914 185.152 0.0054234 185.966C0.971715 185.854 1.73638 185.983 1.78964 186.29C1.8467 186.598 1.16383 186.984 0.208954 187.22C0.404875 188.527 0.484765 189.267 0.86139 189.516C4.44694 191.871 32.2906 188.608 39.7128 187.395C52.3526 185.318 117.423 175.004 124.25 172.442C131.9 169.566 134.851 149.504 130.605 145.793Z" fill="#FFE085"/>
<path d="M31.0983 175.562C31.2163 176.228 29.4454 177.104 27.14 177.519C24.8365 177.934 22.8678 177.726 22.7479 177.065C22.6281 176.395 24.4028 175.52 26.7044 175.103C29.0117 174.689 30.9747 174.892 31.0983 175.562Z" fill="#FFD970"/>
<path opacity="0.2" d="M27.137 177.52C29.2332 177.145 30.8462 176.342 30.7397 175.735C30.6998 175.528 30.4506 175.368 30.0625 175.266C29.5699 175.458 29.393 175.69 28.8566 175.909C27.877 176.304 27.0229 176.426 25.8246 176.622C24.9895 176.759 24.0099 176.907 23.1406 177.109C23.2624 177.714 25.0447 177.894 27.137 177.52Z" fill="#FFD970"/>
<path d="M51.2176 176.83C51.3584 177.602 49.4106 178.603 46.8712 179.059C44.3318 179.516 42.1634 179.259 42.0226 178.485C41.8838 177.711 43.8278 176.71 46.3671 176.254C48.9065 175.795 51.0769 176.056 51.2176 176.83Z" fill="#FFD970"/>
<path opacity="0.2" d="M46.8701 179.06C49.1812 178.641 50.9521 177.738 50.8247 177.03C50.779 176.785 50.5032 176.6 50.0733 176.48C49.5331 176.694 49.341 176.967 48.7532 177.213C47.6785 177.664 46.7332 177.793 45.4169 178.01C44.4943 178.156 43.4177 178.322 42.4609 178.546C42.6017 179.242 44.5666 179.473 46.8701 179.06Z" fill="#FFD970"/>
<path d="M79.9779 167.136C80.0997 167.802 78.3934 168.669 76.1755 169.071C73.9519 169.47 72.0555 169.253 71.9356 168.584C71.8158 167.92 73.5182 167.051 75.7399 166.653C77.9598 166.256 79.8581 166.472 79.9779 167.136Z" fill="#FFD970"/>
<path opacity="0.2" d="M76.1682 169.068C78.1901 168.707 79.7366 167.919 79.6282 167.314C79.592 167.099 79.3486 166.943 78.9738 166.839C78.5021 167.021 78.3328 167.257 77.8173 167.47C76.8758 167.862 76.054 167.978 74.8975 168.165C74.091 168.294 73.1532 168.442 72.3125 168.634C72.4342 169.237 74.1557 169.43 76.1682 169.068Z" fill="#FFD970"/>
<path d="M111.79 171.352C111.91 172.024 110.208 172.885 107.99 173.287C105.766 173.686 103.868 173.471 103.748 172.8C103.628 172.132 105.331 171.268 107.552 170.871C109.774 170.468 111.671 170.684 111.79 171.352Z" fill="#FFD970"/>
<path opacity="0.2" d="M107.979 173.284C109.997 172.921 111.549 172.131 111.437 171.526C111.399 171.313 111.159 171.157 110.784 171.049C110.311 171.239 110.145 171.471 109.628 171.682C108.684 172.07 107.861 172.192 106.708 172.377C105.898 172.508 104.96 172.652 104.125 172.848C104.245 173.453 105.966 173.647 107.979 173.284Z" fill="#FFD970"/>
<path d="M116.37 157.63C116.488 158.296 114.788 159.163 112.566 159.563C110.344 159.962 108.45 159.749 108.326 159.079C108.206 158.408 109.909 157.544 112.131 157.147C114.352 156.746 116.245 156.962 116.37 157.63Z" fill="#FFD970"/>
<path opacity="0.2" d="M112.557 159.567C114.579 159.2 116.127 158.411 116.015 157.806C115.977 157.595 115.735 157.435 115.361 157.332C114.887 157.52 114.72 157.751 114.206 157.964C113.266 158.357 112.437 158.471 111.286 158.66C110.478 158.791 109.54 158.934 108.703 159.128C108.819 159.731 110.539 159.925 112.557 159.567Z" fill="#FFD970"/>
<path d="M73.7627 177.267C73.854 177.766 72.5719 178.416 70.9038 178.717C69.2356 179.017 67.8128 178.856 67.7234 178.355C67.6321 177.853 68.9084 177.205 70.5766 176.906C72.2429 176.605 73.6714 176.767 73.7627 177.267Z" fill="#FFD970"/>
<path opacity="0.2" d="M70.9069 178.717C72.4229 178.443 73.5908 177.851 73.5071 177.397C73.4786 177.239 73.2979 177.121 73.0202 177.043C72.6626 177.184 72.5351 177.355 72.149 177.517C71.4395 177.811 70.8213 177.897 69.9539 178.042C69.349 178.137 68.6414 178.243 68.0156 178.39C68.1012 178.846 69.3947 178.989 70.9069 178.717Z" fill="#FFD970"/>
<path d="M24.676 185.752C24.7369 186.105 23.8353 186.564 22.6559 186.777C21.4747 186.992 20.4685 186.878 20.4019 186.52C20.3353 186.164 21.2407 185.702 22.4201 185.491C23.6032 185.28 24.6094 185.396 24.676 185.752Z" fill="#FFD970"/>
<path opacity="0.2" d="M22.6561 186.777C23.7308 186.585 24.5563 186.162 24.4974 185.843C24.4745 185.727 24.3452 185.647 24.1493 185.59C23.8963 185.691 23.8069 185.816 23.5349 185.927C23.0346 186.134 22.5971 186.199 21.9827 186.294C21.5528 186.368 21.0526 186.44 20.6094 186.547C20.6721 186.864 21.5871 186.971 22.6561 186.777Z" fill="#FFD970"/>
<path d="M57.0272 169.36C57.0919 169.713 56.1884 170.174 55.009 170.385C53.8278 170.598 52.8196 170.484 52.7531 170.128C52.6903 169.776 53.5976 169.316 54.7751 169.105C55.9563 168.892 56.9625 169.004 57.0272 169.36Z" fill="#FFD970"/>
<path opacity="0.2" d="M55.0096 170.384C56.0824 170.19 56.906 169.772 56.847 169.454C56.828 169.338 56.6968 169.256 56.5008 169.201C56.2498 169.3 56.1584 169.424 55.8864 169.534C55.3862 169.745 54.9487 169.806 54.3343 169.903C53.9044 169.977 53.4041 170.05 52.9609 170.158C53.0256 170.476 53.9386 170.578 55.0096 170.384Z" fill="#FFD970"/>
<path d="M98.2538 168.352C98.3165 168.708 97.4149 169.168 96.2318 169.379C95.0506 169.592 94.0462 169.478 93.9797 169.122C93.9169 168.767 94.8185 168.306 96.0016 168.095C97.1829 167.884 98.1891 167.998 98.2538 168.352Z" fill="#FFD970"/>
<path opacity="0.2" d="M96.2342 169.378C97.3108 169.182 98.1326 168.77 98.0755 168.444C98.0546 168.332 97.9252 168.247 97.7274 168.193C97.4744 168.294 97.385 168.414 97.1111 168.53C96.6108 168.737 96.1714 168.798 95.5628 168.899C95.131 168.968 94.6307 169.044 94.1875 169.152C94.2503 169.468 95.1671 169.572 96.2342 169.378Z" fill="#FFD970"/>
<path d="M14.1034 173.738C14.1681 174.092 13.2627 174.55 12.0833 174.764C10.9021 174.975 9.89397 174.864 9.8312 174.507C9.76843 174.153 10.6739 173.695 11.8532 173.481C13.0325 173.27 14.0407 173.386 14.1034 173.738Z" fill="#FFD970"/>
<path opacity="0.2" d="M12.0877 174.763C13.1643 174.571 13.986 174.153 13.9271 173.829C13.9061 173.719 13.7787 173.633 13.5809 173.58C13.3279 173.681 13.2385 173.803 12.9627 173.915C12.4624 174.122 12.0249 174.185 11.4124 174.284C10.9844 174.354 10.4861 174.432 10.0391 174.533C10.1037 174.851 11.0168 174.955 12.0877 174.763Z" fill="#FFD970"/>
<path opacity="0.2" d="M101.895 168.048C92.9451 171.137 83.383 173.916 73.5033 176.459C60.9852 179.683 47.0025 183.187 33.9481 184.994C26.699 185.997 19.3795 186.778 12.216 187.419C11.031 187.528 3.81612 186.375 1.70854 186.539C1.48979 186.786 0.93817 187.043 0.234375 187.216C0.428394 188.521 0.510187 189.266 0.88491 189.508C4.46856 191.867 32.316 188.608 39.7325 187.387C52.3761 185.31 117.447 174.996 124.272 172.436C129.339 170.532 130.912 163.188 132.445 155.479C128.896 156.768 121.304 159.363 119.161 160.35C113.534 162.954 108.763 165.676 101.895 168.048Z" fill="#FFD970"/>
</svg>
