<svg width="263" height="263" viewBox="0 0 263 263" fill="none" xmlns="http://www.w3.org/2000/svg">
<path d="M131.422 262.844C204.004 262.844 262.844 204.004 262.844 131.422C262.844 58.8396 204.004 0 131.422 0C58.8396 0 0 58.8396 0 131.422C0 204.004 58.8396 262.844 131.422 262.844Z" fill="#FEFEFE"/>
<path d="M88.2734 191.674C92.8 191.735 97.0566 197.05 100.996 194.82C103.479 193.415 103.987 189.647 106.615 188.536C111.021 186.677 114.783 194.125 119.5 193.325C121.762 192.942 123.22 190.782 124.405 188.814C128.749 181.602 130.785 174.04 135.129 166.828C133.397 171.661 137.344 174.965 137.031 182.447C136.817 187.577 136.702 193.364 132.74 196.628C131.198 197.898 129.269 198.672 127.843 200.071C124.542 203.309 124.932 208.598 125.01 213.221C125.088 217.844 123.856 223.483 119.438 224.85C113.022 226.836 107.881 217.811 101.166 217.905C95.9541 217.979 92.4216 223.426 87.4327 224.934C82.4785 226.431 77.3157 223.786 72.8157 221.227C66.0145 217.361 52.8007 206.219 68.1458 204.064C73.4129 203.323 75.8491 202.744 79.4164 198.52C81.7953 195.704 84.0515 191.617 88.2734 191.674Z" fill="#779831"/>
<path d="M24.5335 133.122C25.8263 137.896 28.9006 142.048 30.1177 146.843C31.525 152.386 30.3304 158.234 30.6986 163.941C31.2181 171.988 35.0105 179.775 41.0221 185.147C43.5953 187.446 46.9929 189.399 50.3515 188.61C52.0063 188.221 53.4607 187.2 55.1196 186.826C59.7423 185.783 63.911 190.019 65.8686 194.337C67.8261 198.655 68.7915 203.623 72.1298 206.988C74.5025 209.381 78.8696 210.457 81.0705 207.909C82.259 206.532 82.5617 204.384 84.1388 203.482C88.0968 201.22 92.2061 209.737 96.2255 207.585C99.2262 205.978 97.2605 200.925 99.3796 198.26C100.883 196.368 103.863 196.497 106.054 197.52C108.245 198.542 110.082 200.246 112.336 201.12C124.919 205.994 123.228 187.908 129.921 182.757C131.739 181.358 133.901 180.309 135.249 178.45C137.248 175.692 136.926 171.97 137.039 168.566C137.274 161.493 139.831 154.518 144.221 148.968C139.457 151.697 134.64 154.448 129.383 156.027C124.124 157.604 118.306 157.925 113.238 155.814C104.209 152.055 99.3571 141.559 90.2998 137.869C85.4029 135.873 79.5958 136.033 75.333 132.903C71.3259 129.962 69.5974 124.75 65.8644 121.465C62.4096 118.423 57.6764 117.39 53.1661 116.463C48.9545 115.598 44.6651 114.729 40.386 115.148C31.7909 115.987 21.993 123.743 24.5335 133.122Z" fill="#547231"/>
<path d="M113.658 151.243C105.396 148.371 97.8258 143.452 89.243 141.777C84.0393 140.76 78.3999 140.903 73.8753 138.14C68.6368 134.941 65.9552 128.43 60.4631 125.689C56.2965 123.609 51.236 124.091 46.9957 122.167C44.0604 120.835 41.7572 118.46 39.3681 116.298C36.979 114.136 34.2769 112.064 31.0921 111.587C27.9052 111.109 24.1886 112.788 23.4318 115.922C22.5113 119.735 26.0561 123.024 27.4634 126.685C30.5705 134.767 22.9981 144.266 26.5429 152.164C28.7766 157.14 34.7719 159.654 36.8706 164.688C38.0119 167.429 37.8238 170.548 38.6931 173.388C39.5624 176.227 42.3074 178.996 45.1466 178.125C49.1414 176.898 48.5605 170.55 51.866 167.992C54.4739 165.973 58.2438 167.165 61.222 168.583C64.2002 169.998 67.6734 171.583 70.6332 170.129C72.9037 169.014 74.1003 166.408 76.2808 165.126C80.3677 162.72 85.373 165.905 89.0405 168.912C92.708 171.919 97.8054 175.024 101.815 172.492C104.353 170.888 105.288 167.574 107.613 165.674C111.207 162.737 116.472 164.146 121.114 164.054C126.745 163.941 132.102 161.346 136.489 157.815C140.697 154.43 144.786 150.051 147.723 145.551C141.458 145.141 138.42 149.337 133.29 151.624C127.209 154.33 119.755 153.36 113.658 151.243Z" fill="#779831"/>
<path d="M136.136 192.441C133.295 197.493 128.95 201.819 127.468 207.422C126.5 211.079 126.854 214.953 126.246 218.686C125.639 222.419 123.632 226.373 120.002 227.431C114.342 229.079 109.486 223 103.76 221.599C98.2888 220.261 92.8519 223.334 87.5991 225.369C82.3463 227.404 75.2792 227.924 72.1353 223.25C71.6628 222.546 71.3069 221.71 71.4194 220.871C71.7139 218.705 74.7637 218.14 76.7519 219.05C78.7381 219.961 80.2783 221.724 82.3463 222.432C89.4543 224.868 95.196 213.837 102.66 214.687C105.689 215.033 108.134 217.312 111.032 218.259C113.931 219.206 118.181 217.553 117.657 214.548C116.825 209.772 107.187 212.583 105.812 207.933C107.53 205.837 110.895 207.287 113.082 208.888C115.268 210.49 118.512 212.082 120.38 210.118C121.605 208.829 121.335 206.796 121.509 205.025C121.873 201.3 124.483 198.197 127.249 195.677C130.016 193.157 133.121 190.878 135.058 187.677C136.979 184.502 137.018 179.337 136.324 176.318C139.675 179.873 138.262 188.663 136.136 192.441Z" fill="#9EBD48"/>
<path d="M105.848 174.01C103.093 176.035 100.186 178.326 96.7682 178.391C89.6745 178.526 84.6017 169.137 77.6185 170.393C72.4536 171.322 68.4588 177.966 63.5353 176.151C60.0539 174.869 58.2805 169.663 54.6007 170.125C50.2725 170.669 50.8043 177.808 47.1858 180.242C44.1013 182.316 39.7178 179.571 38.4701 176.067C37.2223 172.563 37.9648 168.716 38.0569 164.999C38.2328 157.881 35.8641 150.724 31.4766 145.117C35.6841 145.972 39.2023 149.552 39.9878 153.774C40.6117 157.13 39.636 160.634 40.2783 163.989C40.9205 167.343 44.5431 170.62 47.5049 168.92C49.5218 167.763 49.98 165.003 51.6982 163.436C54.3164 161.047 58.5341 162.348 61.5492 164.21C64.5663 166.071 67.7409 168.485 71.2427 167.935C75.9637 167.194 78.7721 161.36 83.5381 161.027C89.9466 160.579 94.6348 170.348 100.651 168.096C103.344 167.088 104.613 164.042 106.799 162.174C111.385 158.793 115.818 160.008 120.925 160.751C126.741 161.598 130.815 159.245 136.485 157.813C126.023 164.392 115.9 166.619 105.848 174.01Z" fill="#9EBD48"/>
<path d="M76.7122 187.381C79.4961 186.472 82.0897 184.366 84.9841 184.805C87.41 185.174 89.2101 187.248 91.5051 188.117C95.8476 189.762 100.528 186.755 103.807 183.466C107.085 180.176 110.274 176.219 114.836 175.343C117.051 174.918 119.328 175.294 121.563 175.584C123.799 175.877 126.131 176.075 128.256 175.323C130.381 174.572 132.241 172.616 132.179 170.362C132.468 174.517 129.58 178.677 125.585 179.859C122.265 180.841 118.532 179.929 115.347 181.285C110.972 183.151 109.317 188.434 105.94 191.78C102.238 195.45 96.1994 196.516 91.4642 194.335C88.6107 193.02 85.8084 190.594 82.7607 191.363C80.4063 191.958 78.8681 194.323 76.5731 195.117C74.0796 195.98 71.2467 194.726 69.4896 192.756C68.4894 191.635 65.6032 187.806 68.0168 186.671C68.788 186.309 70.9071 187.555 71.7805 187.704C73.421 187.988 75.1269 187.9 76.7122 187.381Z" fill="#779831"/>
<path d="M60.0013 131.932C63.0388 134.575 64.2641 138.899 67.4387 141.376C73.3787 146.009 82.4177 141.887 89.4092 144.694C92.6819 146.007 95.1549 148.705 97.8856 150.934C100.616 153.164 104.1 155.05 107.534 154.252C105.059 157.791 99.5629 157.173 95.7358 155.177C91.9067 153.18 88.3516 150.141 84.0377 149.92C80.5502 149.742 77.2897 151.468 73.9412 152.462C70.5928 153.456 66.4037 153.477 64.2375 150.736C62.5991 148.664 62.5377 145.471 60.4206 143.892C56.4872 140.959 49.9621 146.483 46.3027 143.215C44.2613 141.39 45.2575 139.099 44.4229 136.976C43.3 134.125 40.3688 132.406 37.9756 130.731C35.339 128.884 32.6348 126.335 32.7126 123.116C32.7392 122.011 33.2424 120.788 34.2917 120.444C35.879 119.925 37.2126 121.627 38.2333 122.948C44.1693 130.645 53.3003 126.102 60.0013 131.932Z" fill="#547231"/>
<path d="M79.4002 71.8561C77.9193 76.1332 71.5394 78.508 72.419 82.9487C72.9733 85.7469 76.3933 87.4119 76.6204 90.2551C77.0029 95.0231 68.7514 96.2566 68.0294 100.984C67.6837 103.252 69.2771 105.314 70.7724 107.057C76.2563 113.445 82.7977 117.753 88.2817 124.141C84.2377 120.978 79.8604 123.688 72.8547 121.044C68.0519 119.229 62.5925 117.305 60.7372 112.518C60.0152 110.655 59.8884 108.583 59.0068 106.787C56.9695 102.636 51.8251 101.346 47.4109 99.9691C42.9968 98.5925 38.0304 95.6511 38.1183 91.0304C38.2472 84.3151 48.4296 82.2676 50.4464 75.8611C52.0133 70.8906 47.9489 65.826 48.0839 60.6162C48.2169 55.4411 52.3508 51.3706 56.1922 47.9015C61.9973 42.6589 76.7227 33.6097 73.9551 48.8567C73.004 54.0911 72.7892 56.5845 75.6795 61.2994C77.6063 64.4412 80.7788 67.8674 79.4002 71.8561Z" fill="#779831"/>
<path d="M155.011 29.7311C150.071 29.4611 145.164 31.075 140.23 30.7273C134.526 30.3243 129.348 27.3522 123.813 25.9102C116.012 23.877 107.427 25.0327 100.44 29.0561C97.4472 30.7784 94.5283 33.3884 94.2235 36.8269C94.0722 38.5205 94.5856 40.2224 94.4199 41.914C93.9597 46.6309 88.6291 49.2593 83.9143 49.7625C79.2015 50.2657 74.1799 49.6234 69.9375 51.7343C66.9205 53.2357 64.5272 57.0444 66.2577 59.9346C67.1905 61.4953 69.1378 62.4567 69.4978 64.2383C70.4039 68.7057 61.0274 69.9329 61.8088 74.4248C62.3918 77.7794 67.8082 77.4992 69.6716 80.3465C70.9951 82.3695 69.9375 85.1574 68.2787 86.9145C66.6198 88.6736 64.425 89.8825 62.8888 91.75C54.3101 102.168 72.0137 106.238 74.8017 114.209C75.5606 116.376 75.8776 118.759 77.2194 120.62C79.2097 123.383 82.8466 124.247 86.0416 125.423C92.6833 127.865 98.5047 132.484 102.395 138.395C101.301 133.016 100.2 127.579 100.352 122.091C100.505 116.603 102.027 110.978 105.621 106.829C112.025 99.437 123.513 98.1258 129.86 90.6843C133.292 86.6609 134.965 81.0992 139.275 78.0331C143.325 75.151 148.817 75.1469 153.107 72.635C157.081 70.3093 159.546 66.1406 161.841 62.1499C163.985 58.421 166.155 54.6225 167.102 50.4273C169 42.004 164.713 30.2629 155.011 29.7311Z" fill="#547231"/>
<path d="M109.825 108.654C115.145 101.712 122.192 96.0682 126.477 88.4447C129.075 83.8219 130.711 78.4239 134.755 74.9936C139.437 71.0254 146.459 70.5223 150.785 66.1674C154.068 62.864 155.2 57.9078 158.358 54.4857C160.544 52.117 163.521 50.675 166.323 49.0856C169.127 47.4963 171.94 45.5817 173.394 42.7058C174.848 39.8299 174.421 35.7737 171.684 34.0718C168.352 32.0018 164.118 34.3337 160.199 34.5198C151.55 34.933 144.909 24.7608 136.295 25.6465C130.871 26.2049 126.6 31.11 121.161 31.5191C118.199 31.742 115.298 30.5863 112.328 30.5188C109.36 30.4513 105.869 32.19 105.805 35.158C105.717 39.3369 111.925 40.7769 113.318 44.7185C114.417 47.8297 112.099 51.0329 109.821 53.418C107.54 55.8009 104.946 58.6012 105.398 61.8678C105.744 64.3735 107.843 66.329 108.377 68.7999C109.377 73.435 104.783 77.1885 100.775 79.7269C96.7684 82.2654 92.2234 86.1292 93.3668 90.7316C94.0909 93.6464 96.9464 95.5732 98.0202 98.3776C99.6812 102.712 96.6886 107.269 95.3202 111.704C93.6593 117.086 94.4427 122.987 96.4166 128.262C98.3087 133.318 101.185 138.575 104.535 142.779C106.891 136.959 103.86 132.756 103.3 127.17C102.641 120.551 105.899 113.776 109.825 108.654Z" fill="#779831"/>
<path d="M63.6446 117.067C59.7398 112.784 56.9968 107.3 52.1429 104.134C48.9744 102.068 45.1842 101.186 41.8316 99.4373C38.477 97.6885 35.3536 94.5425 35.4886 90.7624C35.6993 84.8694 42.9955 82.1694 46.1251 77.1723C49.1135 72.3981 47.9026 66.2719 47.6203 60.6448C47.336 55.0197 49.0624 48.1449 54.487 46.6292C55.3031 46.4022 56.2093 46.3265 56.9723 46.6967C58.9359 47.656 58.5146 50.7283 57.0275 52.3299C55.5404 53.9315 53.3824 54.8397 52.0611 56.5805C47.5181 62.5655 56.1868 71.4777 53.0368 78.2994C51.7583 81.0689 48.8272 82.6726 47.0169 85.1272C45.2067 87.5817 45.4419 92.137 48.459 92.5829C53.2536 93.2927 53.6136 83.2576 58.4573 83.4131C59.9096 85.702 57.4755 88.4408 55.2684 90.0138C53.0613 91.5868 50.5331 94.1661 51.8095 96.5573C52.6481 98.1262 54.665 98.5087 56.2911 99.2287C59.7132 100.744 61.8405 104.195 63.3644 107.613C64.8883 111.031 66.0767 114.695 68.5088 117.54C70.9204 120.358 75.8111 122.019 78.8957 122.308C74.4672 124.372 66.5656 120.271 63.6446 117.067Z" fill="#9EBD48"/>
<path d="M90.6487 94.0942C89.5912 90.8439 88.3291 87.3645 89.3396 84.0979C91.4383 77.3192 101.944 75.4517 102.944 68.4275C103.682 63.232 98.6281 57.3533 101.897 53.2501C104.208 50.3475 109.706 50.2984 110.422 46.6575C111.265 42.3783 104.319 40.6417 103.145 36.4403C102.142 32.8587 106.127 29.5593 109.843 29.4755C113.56 29.3895 116.982 31.3021 120.482 32.558C127.185 34.9594 134.723 34.9573 141.426 32.5498C139.292 36.2767 134.79 38.494 130.536 37.9131C127.152 37.4508 124.131 35.4237 120.746 34.9819C117.361 34.538 113.112 36.9496 113.795 40.294C114.262 42.5706 116.737 43.8736 117.686 45.9968C119.132 49.2327 116.573 52.8287 113.859 55.1073C111.144 57.386 107.857 59.6442 107.28 63.1399C106.503 67.8548 111.159 72.3528 109.978 76.9837C108.393 83.2081 97.6442 84.5929 97.8938 91.0116C98.0063 93.8855 100.5 96.0476 101.588 98.7088C103.359 104.123 100.815 107.95 98.5033 112.567C95.8729 117.824 96.8281 122.43 96.4067 128.264C93.4469 116.267 94.5106 105.958 90.6487 94.0942Z" fill="#9EBD48"/>
<path d="M87.1035 62.2359C87.0933 65.1629 88.2797 68.2864 86.9522 70.8964C85.8394 73.083 83.3071 74.1426 81.7607 76.049C78.8357 79.6572 80.2205 85.0429 82.3151 89.1891C84.4096 93.3353 87.1649 97.6063 86.5656 102.211C86.2731 104.446 85.2033 106.492 84.2235 108.523C83.2437 110.554 82.3232 112.706 82.3703 114.96C82.4173 117.214 83.6896 119.593 85.8476 120.242C81.8119 119.213 78.7682 115.163 78.9012 111C79.0116 107.539 81.051 104.283 80.7605 100.832C80.3637 96.0926 75.8657 92.8628 73.7486 88.6041C71.427 83.9364 72.3106 77.8694 75.8677 74.0587C78.0114 71.7616 81.1962 69.8634 81.4212 66.7277C81.595 64.3059 79.8339 62.1029 79.7991 59.6729C79.7623 57.0342 81.8405 54.7392 84.2624 53.6899C85.641 53.0926 90.182 51.5544 90.5031 54.2012C90.6054 55.046 88.7563 56.6681 88.341 57.4515C87.5597 58.9202 87.1097 60.5667 87.1035 62.2359Z" fill="#779831"/>
<path d="M144.987 63.7756C141.524 65.8293 137.034 65.635 133.686 67.8728C127.423 72.0578 128.499 81.9334 123.639 87.6914C121.364 90.3853 118.026 91.8867 115.052 93.7787C112.078 95.6708 109.193 98.3872 108.872 101.899C106.289 98.4383 108.6 93.4146 111.699 90.4057C114.798 87.3968 118.799 84.975 120.362 80.9495C121.626 77.6931 121.01 74.0562 121.116 70.5646C121.223 67.073 122.52 63.0904 125.801 61.8938C128.284 60.9897 131.334 61.9327 133.498 60.419C137.519 57.6044 134.32 49.6762 138.573 47.2277C140.945 45.8614 142.807 47.5284 145.085 47.4016C148.145 47.2318 150.696 44.9879 153.038 43.2411C155.62 41.3163 158.888 39.551 161.92 40.6351C162.959 41.0074 163.963 41.8686 163.961 42.9731C163.957 44.6443 161.922 45.3766 160.345 45.9288C151.179 49.1464 152.625 59.2429 144.987 63.7756Z" fill="#547231"/>
<path d="M204.586 105.255C201.346 102.093 201.916 95.3103 197.525 94.2139C194.757 93.5226 191.793 95.9076 189.124 94.9012C184.649 93.2157 187.046 85.2261 183.078 82.5588C181.171 81.2783 178.629 81.8429 176.416 82.4524C168.299 84.6922 161.616 88.775 153.5 91.0148C158.084 88.7034 157.495 83.5877 162.874 78.3758C166.562 74.8023 170.629 70.6848 175.751 71.0448C177.745 71.1859 179.674 71.953 181.672 71.9202C186.295 71.8446 189.654 67.7393 192.779 64.3336C195.905 60.9278 200.681 57.6858 204.825 59.7353C210.845 62.7115 208.362 72.7957 213.295 77.351C217.125 80.8856 223.437 79.3678 228.095 81.7079C232.719 84.0336 234.642 89.5073 236.143 94.4594C238.414 101.946 240.326 119.122 227.714 110.124C223.384 107.035 221.218 105.777 215.721 106.385C212.058 106.792 207.609 108.203 204.586 105.255Z" fill="#779831"/>
<path d="M210.497 191.594C212.845 187.241 213.475 182.113 215.893 177.797C218.689 172.808 223.582 169.39 227.243 164.996C232.406 158.803 235.018 150.545 234.355 142.511C234.071 139.07 232.954 135.317 229.972 133.576C228.503 132.719 226.746 132.457 225.286 131.588C221.213 129.162 221.109 123.22 222.661 118.74C224.214 114.262 226.934 109.994 226.832 105.254C226.759 101.885 224.333 98.097 220.98 98.4304C219.172 98.6104 217.472 99.9605 215.707 99.5289C211.278 98.4448 214.163 89.4385 209.767 88.2317C206.484 87.3317 204.43 92.3492 201.059 92.8238C198.666 93.1613 196.594 91.0156 195.71 88.7655C194.827 86.5155 194.665 84.016 193.632 81.8293C187.862 69.6301 176.636 83.9116 168.237 83.0382C165.955 82.8009 163.664 82.0727 161.408 82.4941C158.059 83.118 155.729 86.0389 153.303 88.4301C148.263 93.3986 141.607 96.6979 134.602 97.6982C139.934 98.9991 145.322 100.32 150.223 102.796C155.122 105.271 159.563 109.044 161.786 114.064C165.746 123.007 162.04 133.958 166.067 142.871C168.246 147.69 172.566 151.572 173.502 156.778C174.384 161.671 172.05 166.641 172.494 171.591C172.905 176.177 175.626 180.184 178.26 183.96C180.719 187.486 183.233 191.07 186.624 193.713C193.436 199.025 205.882 200.146 210.497 191.594Z" fill="#547231"/>
<path d="M158.339 117.099C162.355 124.87 164.457 133.649 169.528 140.774C172.603 145.094 176.792 148.874 178.17 153.991C179.766 159.919 177.229 166.485 179.326 172.255C180.917 176.633 184.918 179.766 186.667 184.082C187.878 187.069 187.915 190.376 188.158 193.59C188.402 196.803 188.936 200.164 190.918 202.704C192.9 205.245 196.752 206.587 199.458 204.834C202.751 202.702 202.444 197.877 203.943 194.253C207.255 186.253 219.287 184.577 222.152 176.408C223.958 171.261 221.34 165.309 223.285 160.214C224.345 157.44 226.628 155.307 227.953 152.65C229.279 149.993 229.195 146.094 226.536 144.77C222.792 142.909 218.845 147.914 214.686 147.495C211.405 147.164 209.493 143.703 208.306 140.624C207.122 137.546 205.694 134.005 202.546 133.023C200.133 132.268 197.469 133.334 195.007 132.763C190.386 131.694 188.948 125.938 188.359 121.233C187.77 116.526 186.209 110.766 181.558 109.842C178.612 109.257 175.652 111.018 172.658 110.795C168.029 110.451 165.18 105.802 161.751 102.674C157.589 98.878 151.919 97.0739 146.304 96.6137C140.922 96.1719 134.941 96.5339 129.711 97.7755C133.974 102.386 139.065 101.435 144.359 103.309C150.638 105.532 155.378 111.366 158.339 117.099Z" fill="#779831"/>
<path d="M170.4 71.7404C175.939 70.0325 182.067 69.8872 187.001 66.8436C190.221 64.8574 192.632 61.8035 195.643 59.5146C198.654 57.2257 202.831 55.7387 206.194 57.4712C211.434 60.1733 210.769 67.9236 213.958 72.8839C217.006 77.6212 223.063 79.1369 228.275 81.2765C233.484 83.416 238.968 87.9059 238.03 93.4593C237.888 94.2939 237.569 95.1469 236.909 95.6787C235.205 97.0471 232.603 95.3575 231.789 93.3284C230.975 91.2993 231.071 88.9613 230.058 87.0243C226.579 80.3642 214.822 84.4101 209.992 78.6542C208.033 76.3182 207.83 72.9841 206.38 70.3004C204.93 67.6168 200.71 65.8883 199.02 68.4288C196.337 72.4645 205.261 77.0648 203.058 81.3808C200.368 81.7183 198.926 78.3494 198.445 75.6841C197.963 73.0168 196.705 69.6295 193.999 69.7686C192.223 69.8586 191.018 71.5195 189.672 72.6855C186.843 75.1359 182.816 75.5901 179.075 75.5123C175.334 75.4346 171.513 74.9498 167.902 75.9378C164.325 76.9176 160.739 80.6362 159.164 83.3035C159.18 78.4189 166.258 73.0168 170.4 71.7404Z" fill="#9EBD48"/>
<path d="M179.669 105.961C183.06 106.389 186.746 106.728 189.27 109.034C194.509 113.82 191.723 124.121 197.653 128.018C202.038 130.9 209.51 128.83 211.83 133.536C213.47 136.864 211.173 141.859 214.162 144.058C217.674 146.644 222.205 141.099 226.506 141.827C230.172 142.447 231.46 147.456 229.955 150.856C228.449 154.255 225.261 156.536 222.634 159.168C217.604 164.21 214.397 171.03 213.718 178.12C211.255 174.601 211.167 169.584 213.505 165.982C215.365 163.118 218.484 161.249 220.327 158.375C222.17 155.501 221.8 150.628 218.482 149.825C216.222 149.276 213.99 150.962 211.664 150.915C208.121 150.845 205.957 146.998 205.051 143.572C204.145 140.145 203.505 136.21 200.586 134.197C196.652 131.485 190.6 133.78 186.912 130.74C181.956 126.653 185.282 116.34 179.368 113.832C176.721 112.709 173.702 114.045 170.83 113.896C165.177 113.192 162.798 109.259 159.605 105.202C155.97 100.584 151.394 99.4853 146.297 96.6196C158.416 99.0476 167.292 104.403 179.669 105.961Z" fill="#9EBD48"/>
<path d="M210.011 116.322C207.366 115.064 204.036 114.809 202.24 112.495C200.735 110.558 200.858 107.813 199.79 105.604C197.771 101.421 192.308 100.38 187.666 100.509C183.023 100.638 177.985 101.313 174.076 98.8069C172.178 97.5898 170.785 95.7509 169.363 94C167.944 92.2491 166.387 90.4981 164.329 89.5818C162.27 88.6633 159.576 88.8004 158.07 90.4797C160.721 87.2683 165.682 86.2395 169.39 88.1315C172.473 89.7045 174.553 92.9364 177.797 94.1452C182.254 95.8041 187.092 93.1122 191.847 93.01C197.059 92.8975 202.171 96.2828 204.104 101.124C205.268 104.043 205.63 107.731 208.369 109.272C210.486 110.462 213.229 109.805 215.442 110.81C217.845 111.9 219.036 114.76 218.954 117.398C218.907 118.9 218.365 123.664 215.833 122.825C215.025 122.557 214.343 120.194 213.814 119.485C212.815 118.149 211.517 117.038 210.011 116.322Z" fill="#779831"/>
<path d="M183.956 168.044C183.572 164.037 185.662 160.056 185.063 156.076C183.944 148.626 174.551 145.392 171.413 138.544C169.945 135.338 170.008 131.679 169.564 128.181C169.118 124.684 167.889 120.918 164.852 119.132C169.084 118.269 172.643 122.501 174.046 126.586C175.447 130.671 175.934 135.322 178.91 138.452C181.318 140.982 184.871 141.976 187.984 143.559C191.097 145.142 194.149 148.012 193.834 151.492C193.595 154.122 191.441 156.481 191.891 159.084C192.723 163.922 201.259 164.405 201.664 169.295C201.889 172.024 199.588 172.998 198.733 175.115C197.583 177.956 198.526 181.221 199.109 184.082C199.752 187.236 199.956 190.949 197.684 193.23C196.904 194.011 195.695 194.553 194.699 194.08C193.19 193.365 193.394 191.213 193.564 189.55C194.554 179.877 184.803 176.884 183.956 168.044Z" fill="#547231"/>
<path d="M160.151 205.118C163.516 202.089 170.247 203.095 171.624 198.783C172.491 196.065 170.302 192.956 171.479 190.356C173.448 185.999 181.268 188.908 184.185 185.118C185.586 183.299 185.187 180.724 184.719 178.476C183.007 170.233 179.364 163.3 177.652 155.055C179.663 159.778 184.805 159.523 189.659 165.225C192.987 169.134 196.834 173.458 196.145 178.547C195.877 180.528 194.985 182.403 194.889 184.402C194.666 189.02 198.546 192.637 201.744 195.975C204.943 199.313 207.868 204.29 205.556 208.293C202.198 214.108 192.295 210.979 187.431 215.612C183.657 219.205 184.766 225.604 182.129 230.098C179.511 234.563 173.925 236.128 168.885 237.308C161.268 239.092 144.004 239.893 153.798 227.884C157.16 223.763 158.555 221.683 158.302 216.16C158.134 212.476 157.013 207.943 160.151 205.118Z" fill="#779831"/>
<path d="M73.6127 205.446C77.8059 208.07 82.8828 209.03 87.0331 211.722C91.8318 214.833 94.9266 219.936 99.0748 223.874C104.923 229.425 112.994 232.563 121.056 232.42C124.506 232.358 128.325 231.485 130.254 228.621C131.205 227.212 131.577 225.473 132.541 224.072C135.225 220.165 141.163 220.444 145.53 222.28C149.899 224.119 153.984 227.108 158.719 227.312C162.086 227.457 166.021 225.279 165.905 221.912C165.841 220.096 164.604 218.314 165.148 216.58C166.514 212.231 175.316 215.69 176.803 211.38C177.914 208.162 173.037 205.79 172.782 202.394C172.6 199.985 174.874 198.054 177.177 197.317C179.479 196.581 181.984 196.581 184.232 195.691C196.777 190.719 183.25 178.597 184.662 170.27C185.046 168.008 185.92 165.768 185.646 163.489C185.239 160.108 182.473 157.594 180.243 155.021C175.61 149.672 172.747 142.816 172.201 135.761C170.558 140.999 168.893 146.291 166.107 151.02C163.319 155.749 159.269 159.938 154.115 161.832C144.934 165.207 134.245 160.801 125.091 164.248C120.141 166.112 115.989 170.172 110.734 170.771C105.794 171.336 100.985 168.685 96.0168 168.81C91.4145 168.924 87.2397 171.381 83.3021 173.766C79.6244 175.993 75.8852 178.268 73.0297 181.483C67.2963 187.941 65.3756 200.289 73.6127 205.446Z" fill="#547231"/>
<path d="M144.901 212.832C140.908 230.707 111.173 228.739 112.404 209.207C112.818 202.653 115.935 196.703 122.039 194.576C132.336 190.986 145.51 197.906 145.318 209.377C145.298 210.539 145.155 211.698 144.901 212.832Z" fill="#ED2C24"/>
<path d="M124.63 202.651C124.178 202.663 126.473 207.204 126.095 208.072C125.716 208.941 121.566 212.568 121.57 212.811C121.574 213.054 127.165 210.408 127.621 210.833C128.075 211.259 128.969 215.842 129.484 215.939C130 216.035 130.266 210.549 130.836 210.17C131.407 209.792 136.965 210.974 137.361 210.416C137.756 209.857 131.597 207.738 131.599 207.204C131.601 206.671 134.211 202.835 133.8 202.177C133.389 201.518 129.308 205.953 128.95 205.787C128.59 205.623 125.314 202.633 124.63 202.651Z" fill="#779831"/>
<path d="M130.007 208.729C129.913 209.236 129.426 209.57 128.919 209.476C128.411 209.382 128.078 208.895 128.172 208.387C128.266 207.88 128.753 207.547 129.26 207.641C129.768 207.737 130.103 208.224 130.007 208.729Z" fill="#9EBD48"/>
<path d="M151.315 158.202C143.303 161.708 134.405 163.24 126.968 167.842C122.46 170.632 118.418 174.568 113.22 175.613C107.203 176.824 100.812 173.868 94.9194 175.588C90.448 176.893 87.0628 180.686 82.6425 182.152C79.5845 183.169 76.281 182.991 73.0594 183.028C69.8378 183.064 66.4484 183.379 63.7852 185.194C61.122 187.008 59.5347 190.766 61.1097 193.578C63.0263 197.002 67.8598 197.006 71.3801 198.737C79.1508 202.556 80.0468 214.671 88.0139 218.058C93.0335 220.192 99.1413 217.964 104.102 220.233C106.802 221.468 108.782 223.884 111.349 225.379C113.916 226.872 117.812 227.04 119.302 224.471C121.4 220.857 116.661 216.594 117.348 212.47C117.89 209.218 121.468 207.53 124.616 206.547C127.764 205.563 131.388 204.366 132.573 201.288C133.481 198.927 132.589 196.203 133.317 193.779C134.682 189.236 140.519 188.174 145.253 187.888C149.988 187.603 155.836 186.417 157.059 181.835C157.834 178.935 156.267 175.866 156.683 172.892C157.325 168.296 162.146 165.754 165.488 162.532C169.545 158.623 171.711 153.08 172.533 147.508C173.321 142.165 173.345 136.174 172.445 130.874C167.569 134.83 168.191 139.972 165.979 145.135C163.357 151.263 157.229 155.616 151.315 158.202Z" fill="#779831"/>
<path d="M195.805 173.16C197.153 178.798 196.902 184.924 199.62 190.044C201.394 193.384 204.286 195.988 206.376 199.14C208.467 202.292 209.682 206.557 207.735 209.799C204.701 214.853 197.008 213.692 191.854 216.553C186.93 219.288 185.026 225.236 182.555 230.299C180.084 235.361 175.25 240.543 169.769 239.248C168.944 239.054 168.114 238.681 167.627 237.988C166.371 236.198 168.226 233.713 170.302 233.03C172.379 232.346 174.706 232.594 176.705 231.71C183.576 228.669 180.295 216.674 186.351 212.227C188.81 210.421 192.15 210.435 194.922 209.161C197.693 207.887 199.69 203.787 197.264 201.938C193.408 198.999 188.243 207.61 184.077 205.131C183.913 202.427 187.368 201.204 190.06 200.895C192.752 200.586 196.212 199.549 196.251 196.839C196.276 195.059 194.695 193.752 193.621 192.335C191.359 189.355 191.164 185.304 191.483 181.576C191.802 177.847 192.533 174.065 191.778 170.399C191.029 166.764 187.552 162.947 184.991 161.203C189.863 161.534 194.797 168.945 195.805 173.16Z" fill="#9EBD48"/>
<path d="M161.053 180.212C160.409 183.569 159.832 187.224 157.367 189.595C152.254 194.514 142.153 191.07 137.882 196.736C134.724 200.925 136.307 208.515 131.461 210.528C128.035 211.952 123.198 209.338 120.811 212.177C118.004 215.515 123.245 220.394 122.242 224.638C121.387 228.256 116.306 229.22 113.011 227.495C109.716 225.773 107.646 222.445 105.187 219.655C100.481 214.312 93.8819 210.669 86.8516 209.536C90.5212 207.307 95.5346 207.542 98.9792 210.107C101.718 212.146 103.381 215.38 106.13 217.405C108.879 219.43 113.764 219.375 114.783 216.114C115.476 213.895 113.938 211.557 114.134 209.242C114.433 205.709 118.411 203.799 121.889 203.115C125.366 202.432 129.336 202.046 131.531 199.264C134.491 195.514 132.591 189.325 135.861 185.841C140.259 181.159 150.337 185.144 153.221 179.404C154.512 176.835 153.375 173.738 153.71 170.881C154.778 165.284 158.854 163.165 163.109 160.24C167.953 156.91 169.344 152.416 172.533 147.513C169.323 159.449 163.408 167.96 161.053 180.212Z" fill="#9EBD48"/>
<path d="M148.761 209.817C150.187 207.26 150.658 203.953 153.082 202.308C155.113 200.931 157.841 201.23 160.116 200.307C164.42 198.563 165.813 193.177 165.982 188.538C166.154 183.897 165.804 178.826 168.558 175.085C169.893 173.268 171.82 171.996 173.659 170.691C175.498 169.386 177.345 167.948 178.394 165.952C179.444 163.955 179.48 161.259 177.903 159.647C180.937 162.499 181.645 167.516 179.517 171.096C177.748 174.072 174.389 175.938 172.974 179.096C171.031 183.436 173.405 188.438 173.201 193.189C172.976 198.397 169.269 203.282 164.313 204.898C161.325 205.871 157.62 205.994 155.908 208.628C154.585 210.664 155.064 213.446 153.918 215.587C152.674 217.915 149.745 218.919 147.119 218.668C145.624 218.525 140.905 217.676 141.903 215.203C142.222 214.413 144.623 213.887 145.368 213.403C146.759 212.499 147.949 211.273 148.761 209.817Z" fill="#779831"/>
<path d="M98.8254 180.481C102.849 180.356 106.686 182.698 110.697 182.359C118.204 181.723 122.035 172.559 129.074 169.867C132.367 168.607 136.014 168.908 139.535 168.689C143.053 168.47 146.89 167.486 148.87 164.569C149.459 168.848 145.006 172.127 140.84 173.263C136.673 174.398 131.999 174.584 128.685 177.352C126.006 179.591 124.785 183.073 123.003 186.078C121.221 189.082 118.161 191.944 114.711 191.404C112.101 190.997 109.885 188.696 107.259 188.974C102.378 189.493 101.345 197.98 96.4383 198.068C93.7015 198.117 92.8772 195.759 90.8194 194.767C88.058 193.437 84.7402 194.167 81.8459 194.564C78.657 195 74.9404 194.967 72.811 192.551C72.0808 191.723 71.6185 190.483 72.1544 189.518C72.9665 188.058 75.1019 188.401 76.7485 188.677C86.3337 190.291 89.948 180.755 98.8254 180.481Z" fill="#547231"/>
<path d="M195.307 158.332C191.314 176.208 161.579 174.24 162.811 154.708C163.224 148.154 166.341 142.204 172.445 140.076C182.742 136.486 195.915 143.406 195.724 154.877C195.704 156.039 195.561 157.199 195.307 158.332Z" fill="#BF2226"/>
<path d="M175.711 144.97C175.258 144.982 177.553 149.523 177.175 150.39C176.797 151.259 172.646 154.886 172.648 155.129C172.653 155.373 178.243 152.726 178.699 153.151C179.153 153.577 180.047 158.161 180.562 158.257C181.078 158.353 181.344 152.867 181.914 152.489C182.485 152.11 188.043 153.293 188.44 152.734C188.834 152.176 182.675 150.057 182.677 149.523C182.679 148.989 185.29 145.154 184.878 144.495C184.467 143.836 180.386 148.269 180.029 148.105C179.671 147.942 176.394 144.951 175.711 144.97Z" fill="#779831"/>
<path d="M181.101 151.048C181.007 151.555 180.52 151.889 180.012 151.795C179.505 151.7 179.172 151.214 179.266 150.706C179.36 150.199 179.847 149.866 180.354 149.96C180.861 150.054 181.195 150.541 181.101 151.048Z" fill="#9EBD48"/>
<path d="M177.174 174.92C173.182 192.795 143.446 190.828 144.678 171.295C145.091 164.742 148.208 158.791 154.312 156.664C164.609 153.074 177.782 159.994 177.592 171.465C177.571 172.625 177.428 173.785 177.174 174.92Z" fill="#ED2C24"/>
<path d="M156.906 164.737C156.454 164.749 158.749 169.29 158.37 170.158C157.992 171.027 153.842 174.654 153.844 174.897C153.848 175.14 159.438 172.494 159.894 172.919C160.348 173.345 161.242 177.928 161.758 178.025C162.273 178.121 162.539 172.635 163.11 172.256C163.68 171.878 169.238 173.06 169.635 172.502C170.03 171.943 163.871 169.824 163.873 169.29C163.875 168.757 166.485 164.921 166.074 164.263C165.663 163.604 161.582 168.039 161.224 167.873C160.866 167.709 157.589 164.719 156.906 164.737Z" fill="#779831"/>
<path d="M162.28 170.817C162.186 171.324 161.699 171.658 161.192 171.564C160.685 171.469 160.351 170.983 160.446 170.475C160.54 169.968 161.026 169.635 161.534 169.729C162.041 169.823 162.376 170.312 162.28 170.817Z" fill="#9EBD48"/>
<path d="M65.9613 97.5017C74.1698 106.698 73.3701 120.81 64.1736 129.018C54.9771 137.227 40.8654 136.427 32.6569 127.231C24.4463 118.034 18.1217 95.9389 27.3182 87.7284C36.5146 79.5199 57.7528 88.3032 65.9613 97.5017Z" fill="#FFFAF1"/>
<path d="M60.5345 101.828C65.1675 107.02 64.7155 114.983 59.5261 119.616C54.3347 124.249 46.3716 123.797 41.7386 118.607C37.1056 113.416 37.5576 105.453 42.747 100.82C47.9384 96.1847 55.9015 96.6367 60.5345 101.828Z" fill="#FFC942"/>
<path opacity="0.1" d="M65.9576 97.5017C62.3678 93.4823 56.2907 89.5406 49.8168 87.0615C43.8603 93.3514 47.847 108.208 51.76 114.285C55.2618 119.724 60.2037 124.224 65.9106 127.274C73.4257 118.92 73.6139 106.076 65.9576 97.5017Z" fill="#606060"/>
<path d="M92.3092 84.8563C96.9913 96.2619 91.5401 109.302 80.1345 113.982C68.7289 118.662 55.689 113.213 51.009 101.807C46.3269 90.4016 47.7137 67.4616 59.1193 62.7815C70.5249 58.1015 87.6292 73.4508 92.3092 84.8563Z" fill="#FEFEFE"/>
<path d="M85.7555 87.1335C88.3983 93.5706 85.3219 100.93 78.8847 103.571C72.4476 106.214 65.09 103.137 62.4473 96.7002C59.8045 90.263 62.8809 82.9055 69.318 80.2627C75.7531 77.6199 83.1127 80.6964 85.7555 87.1335Z" fill="#FFC942"/>
<path opacity="0.1" d="M92.3249 84.8567C90.2937 79.9087 85.9225 74.2182 80.6922 69.7427C80.1645 70.5834 79.6634 71.5407 79.197 72.633C73.7765 85.2986 74.9567 101.208 80.8047 113.675C91.7521 108.766 96.9149 96.0353 92.3249 84.8567Z" fill="#606060"/>
<path d="M122.235 82.3158C124.79 94.376 117.085 106.223 105.025 108.78C92.9644 111.335 81.1149 103.63 78.5601 91.5696C76.0053 79.5094 81.4913 57.1912 93.5514 54.6364C105.614 52.0816 119.68 70.2557 122.235 82.3158Z" fill="#FEFEFE"/>
<path d="M115.385 83.3772C116.827 90.1825 112.478 96.8712 105.673 98.3133C98.8679 99.7554 92.1791 95.4067 90.7371 88.6014C89.295 81.7961 93.6437 75.1074 100.449 73.6653C107.256 72.2232 113.943 76.5719 115.385 83.3772Z" fill="#FFC942"/>
<path d="M140.536 141.286C143.9 138.257 150.632 139.263 152.009 134.951C152.876 132.233 150.687 129.124 151.864 126.524C153.833 122.165 161.653 125.076 164.57 121.286C165.971 119.467 165.572 116.892 165.104 114.644C163.392 106.401 159.749 99.4685 158.037 91.2231C160.05 95.9462 165.19 95.6905 170.046 101.393C173.374 105.302 177.221 109.626 176.53 114.715C176.262 116.695 175.37 118.571 175.274 120.57C175.051 125.188 178.931 128.805 182.128 132.143C185.326 135.481 188.253 140.458 185.939 144.461C182.58 150.276 172.678 147.147 167.814 151.777C164.04 155.371 165.149 161.77 162.512 166.264C159.894 170.729 154.308 172.294 149.268 173.474C141.65 175.258 124.387 176.059 134.18 164.05C137.543 159.929 138.938 157.848 138.685 152.326C138.521 148.644 137.4 144.111 140.536 141.286Z" fill="#779831"/>
<path d="M54.0024 141.614C58.1956 144.239 63.2725 145.198 67.4228 147.89C72.2214 151.001 75.3163 156.105 79.4645 160.042C85.3125 165.594 93.384 168.731 101.445 168.59C104.896 168.529 108.715 167.655 110.646 164.792C111.597 163.382 111.969 161.644 112.933 160.243C115.616 156.336 121.554 156.614 125.921 158.451C130.291 160.29 134.375 163.278 139.111 163.483C142.478 163.626 146.413 161.449 146.296 158.083C146.233 156.266 144.995 154.483 145.54 152.75C146.908 148.401 155.708 151.86 157.197 147.55C158.307 144.333 153.431 141.96 153.175 138.565C152.993 136.155 155.268 134.224 157.571 133.488C159.872 132.751 162.378 132.751 164.626 131.862C177.171 126.889 163.644 114.768 165.056 106.44C165.44 104.178 166.313 101.938 166.039 99.6597C165.632 96.2785 162.867 93.7646 160.637 91.1914C156.004 85.8425 153.141 78.986 152.594 71.9312C150.952 77.1696 149.287 82.4613 146.501 87.1904C143.713 91.9196 139.663 96.1087 134.508 98.0028C125.328 101.378 114.639 96.9719 105.485 100.419C100.535 102.282 96.3826 106.342 91.1278 106.942C86.188 107.506 81.3791 104.855 76.4085 104.98C71.8062 105.094 67.6314 107.551 63.6939 109.936C60.0161 112.164 56.2769 114.44 53.4215 117.654C47.688 124.107 45.7652 136.458 54.0024 141.614Z" fill="#547231"/>
<path d="M131.706 94.3695C123.694 97.8755 114.796 99.4075 107.359 104.01C102.848 106.8 98.8085 110.735 93.6089 111.781C87.5911 112.992 81.201 110.036 75.3101 111.756C70.8387 113.061 67.4534 116.853 63.0331 118.32C59.9751 119.337 56.6717 119.159 53.45 119.195C50.2284 119.23 46.839 119.547 44.1758 121.362C41.5126 123.176 39.9253 126.934 41.5003 129.746C43.417 133.17 48.2504 133.174 51.7707 134.905C59.5415 138.726 60.4374 150.839 68.4045 154.228C73.4241 156.362 79.5319 154.134 84.4922 156.403C87.1923 157.638 89.1723 160.054 91.7393 161.549C94.3064 163.042 98.2031 163.21 99.6922 160.641C101.791 157.027 97.0515 152.764 97.7387 148.64C98.2808 145.388 101.858 143.7 105.006 142.716C108.154 141.733 111.779 140.536 112.963 137.458C113.871 135.097 112.98 132.372 113.708 129.949C115.072 125.406 120.91 124.344 125.643 124.058C130.376 123.771 136.226 122.587 137.45 118.005C138.225 115.105 136.658 112.036 137.073 109.062C137.716 104.466 142.537 101.921 145.879 98.7018C149.935 94.7929 152.101 89.2497 152.924 83.6778C153.711 78.335 153.736 72.3438 152.836 67.0439C147.959 70.9999 148.581 76.1422 146.37 81.305C143.746 87.4292 137.617 91.784 131.706 94.3695Z" fill="#779831"/>
<path d="M176.196 109.328C177.544 114.966 177.292 121.092 180.011 126.212C181.784 129.552 184.677 132.156 186.767 135.308C188.858 138.46 190.073 142.725 188.125 145.967C185.092 151.021 177.399 149.86 172.244 152.721C167.321 155.456 165.416 161.404 162.945 166.467C160.474 171.529 155.641 176.711 150.159 175.416C149.335 175.222 148.504 174.849 148.018 174.156C146.762 172.366 148.617 169.881 150.693 169.198C152.769 168.514 155.097 168.762 157.095 167.878C163.966 164.837 160.685 152.842 166.742 148.395C169.201 146.589 172.541 146.603 175.312 145.329C178.084 144.055 180.08 139.953 177.654 138.106C173.799 135.167 168.634 143.778 164.467 141.299C164.304 138.593 167.758 137.372 170.45 137.063C173.142 136.754 176.603 135.717 176.64 133.007C176.664 131.229 175.083 129.92 174.009 128.503C171.745 125.523 171.553 121.472 171.872 117.744C172.191 114.015 172.921 110.233 172.166 106.567C171.418 102.932 167.94 99.1154 165.38 97.3706C170.254 97.702 175.188 105.111 176.196 109.328Z" fill="#9EBD48"/>
<path d="M141.444 116.381C140.798 119.737 140.223 123.393 137.758 125.763C132.644 130.683 122.544 127.238 118.273 132.904C115.115 137.093 116.698 144.684 111.852 146.697C108.426 148.12 103.588 145.506 101.201 148.345C98.3948 151.684 103.635 156.562 102.633 160.806C101.778 164.425 96.6971 165.388 93.4018 163.664C90.1066 161.942 88.0365 158.614 85.5779 155.824C80.8712 150.481 74.2725 146.838 67.2422 145.705C70.9118 143.475 75.9252 143.71 79.3698 146.275C82.1087 148.315 83.7717 151.549 86.5208 153.574C89.2699 155.599 94.1546 155.543 95.1732 152.283C95.8666 150.064 94.3284 147.726 94.5248 145.41C94.8234 141.878 98.8019 139.967 102.279 139.284C105.757 138.601 109.727 138.214 111.922 135.432C114.881 131.683 112.981 125.493 116.252 122.01C120.65 117.328 130.728 121.312 133.612 115.573C134.903 113.004 133.765 109.907 134.101 107.049C135.168 101.453 139.247 99.3336 143.5 96.4086C148.343 93.0786 149.734 88.5847 152.923 83.6816C149.712 95.617 143.798 104.128 141.444 116.381Z" fill="#9EBD48"/>
<path d="M129.145 145.985C130.571 143.428 131.041 140.121 133.465 138.476C135.496 137.099 138.225 137.398 140.499 136.475C144.803 134.731 146.196 129.345 146.366 124.706C146.535 120.065 146.188 114.994 148.941 111.253C150.277 109.436 152.203 108.164 154.042 106.859C155.881 105.554 157.728 104.116 158.778 102.12C159.827 100.123 159.864 97.4273 158.287 95.8154C161.32 98.6668 162.028 103.684 159.901 107.264C158.131 110.24 154.773 112.106 153.357 115.264C151.414 119.604 153.789 124.606 153.584 129.357C153.359 134.565 149.653 139.45 144.697 141.065C141.708 142.039 138.004 142.162 136.292 144.796C134.968 146.834 135.447 149.614 134.301 151.755C133.058 154.083 130.129 155.087 127.5 154.836C126.005 154.692 121.286 153.844 122.286 151.371C122.605 150.581 125.007 150.055 125.749 149.571C127.142 148.667 128.333 147.441 129.145 145.985Z" fill="#779831"/>
<path d="M79.216 116.647C83.2395 116.522 87.0768 118.864 91.088 118.525C98.5949 117.889 102.426 108.725 109.465 106.033C112.758 104.773 116.405 105.074 119.925 104.855C123.443 104.636 127.281 103.652 129.261 100.735C129.848 105.012 125.397 108.293 121.23 109.429C117.064 110.564 112.39 110.75 109.076 113.518C106.394 115.757 105.175 119.239 103.394 122.244C101.612 125.248 98.5519 128.11 95.1012 127.57C92.4912 127.161 90.2759 124.86 87.6495 125.14C82.769 125.66 81.736 134.146 76.8289 134.234C74.0921 134.283 73.2678 131.925 71.21 130.935C68.4486 129.605 65.1309 130.335 62.2365 130.732C59.0476 131.168 55.331 131.135 53.2016 128.72C52.4714 127.891 52.0091 126.652 52.545 125.686C53.3571 124.226 55.4926 124.569 57.1392 124.845C66.7222 126.459 70.3386 116.923 79.216 116.647Z" fill="#547231"/>
<path d="M207.674 91.3387C206.568 97.7758 203.561 103.824 199.272 108.756L196.59 106.432L143.641 60.4029L141.562 58.5906C145.643 53.706 150.894 49.8461 156.824 47.4857C161.567 45.5977 166.746 44.6997 172.091 45.0106C194.694 46.3995 211.467 69.3375 207.674 91.3387Z" fill="#FFE330"/>
<path d="M204.931 85.3986C204.625 93.3023 201.511 100.664 196.59 106.43L143.641 60.4008C146.684 56.8315 150.477 53.886 154.715 51.8834C164.32 47.3425 175.994 47.6145 185.462 52.4234C197.471 58.5271 205.441 71.9353 204.931 85.3986Z" fill="#FAF5CB"/>
<path d="M174.84 53.5831C173.641 52.6749 172.066 52.2658 170.595 52.096C167.789 51.7523 164.893 52.3169 162.229 53.039C160.112 53.6117 158.237 54.5567 156.222 55.3667C154.882 55.9108 153.432 56.7392 152.121 57.6638C150.918 58.5045 149.208 59.5272 149.267 61.2188C149.326 62.5116 150.37 63.655 151.233 64.4671C155.89 68.7626 160.523 73.054 165.165 77.3597C165.84 77.9877 166.537 78.6218 167.413 78.8918C169.386 79.5361 170.559 78.0797 171.24 76.5006C172.074 74.5124 175.089 64.2707 175.777 61.1411C176.292 58.7275 177.174 55.3606 174.84 53.5831ZM196.706 73.9888C195.368 73.7781 194.043 74.314 192.793 74.8438C187.381 77.1736 181.958 79.487 176.537 81.8004C175.59 82.2075 173.649 82.8743 174.157 84.2182C174.514 85.1141 175.39 85.6828 176.102 86.3066C176.918 87.0082 177.722 87.718 178.532 88.4442C180.152 89.8555 181.78 91.2812 183.384 92.7028C185.838 94.8465 188.234 97.5199 191.197 98.9579C193.29 99.9663 195.575 99.77 197.146 97.9556C199.169 95.634 200.206 92.1935 200.783 89.248C201.531 85.5253 201.734 81.0579 200.343 77.4456C199.741 75.844 198.483 74.2731 196.706 73.9888ZM194.656 63.6059C192.629 61.049 190.079 58.9443 187.213 57.4061C185.628 56.549 183.915 55.7104 182.105 55.8004C179.342 55.9272 178.108 58.6702 177.397 60.9611C175.66 66.4471 173.756 72.0128 172.882 77.7156C172.706 78.8141 172.375 79.8859 173.326 80.4463C174.103 80.9147 175.075 80.5507 175.912 80.1886C181.821 77.5622 187.722 74.9215 193.646 72.2869C195.029 71.6774 196.565 70.896 197.013 69.458C197.68 67.3328 195.882 65.1564 194.656 63.6059Z" fill="#FFDA56"/>
<path d="M43.9297 171.46C43.9297 171.46 80.2022 182.803 90.6893 201.222C90.6893 201.222 52.4307 193.558 43.9297 171.46Z" fill="#FFE9B3"/>
<path d="M43.9314 171.46C53.8499 180.819 81.9466 199.506 90.6911 201.222C90.6911 201.222 67.1394 207.457 53.9768 199.522C40.8141 191.588 43.9314 171.46 43.9314 171.46Z" fill="#E37B13"/>
<path d="M54.75 144.627C54.75 144.627 94.7228 160.263 105.928 190.81C105.928 190.81 66.3806 178.374 54.75 144.627Z" fill="#FFE9B3"/>
<path d="M105.935 190.81C84.2749 178.091 70.1918 164.442 54.7566 144.627C51.8868 146.194 44.6172 159.116 44.6172 159.116C57.7001 179.912 73.3091 192.723 96.2819 201.43C96.2819 201.43 103.226 195.198 105.935 190.81Z" fill="#E37B13"/>
<path d="M63.2031 151.15C63.2031 151.15 81.8354 173.45 100.864 184.23C100.864 184.23 79.3583 157.493 63.2031 151.15Z" fill="#FFF8E6"/>
<path d="M71.0547 120.853C71.0547 120.853 117.334 144.453 127.283 179.235C127.283 179.235 81.2166 159.213 71.0547 120.853Z" fill="#FFE9B3"/>
<path d="M127.281 179.233C104.296 163.372 86.5601 144.075 71.0533 120.851C64.4362 124.287 56.8516 133.715 56.8516 135.903C69.6706 160.024 90.5181 179.787 115.285 191.307C118.592 187.138 123.974 183.403 127.281 179.233Z" fill="#E37B13"/>
<path d="M80.9375 129.961C80.9375 129.961 99.7907 156.199 120.016 169.695C120.016 169.695 98.3384 138.305 80.9375 129.961Z" fill="#FFF8E6"/>
<path d="M92.0703 90.1274C92.0703 90.1274 141.982 124.438 148.656 164.818C148.656 164.818 98.5218 134.557 92.0703 90.1274Z" fill="#FFE9B3"/>
<path d="M148.656 164.818C124.88 144.016 106.491 118.238 92.0701 90.1274C84.1868 93.1322 75.1172 106.997 75.1172 106.997C86.4 135.764 107.266 160.678 133.61 176.833C137.866 172.577 144.4 169.075 148.656 164.818Z" fill="#E37B13"/>
<path d="M102.953 103.439C102.953 103.439 120.743 135.369 141.725 153.158C141.725 153.158 121.426 115.07 102.953 103.439Z" fill="#FFF8E6"/>
<path d="M125.98 71.7534C125.98 71.7534 168.667 111.796 168.726 152.722C168.726 152.722 125.164 116.641 125.98 71.7534Z" fill="#FFE9B3"/>
<path d="M168.726 152.722C148.625 128.35 135.665 101.824 125.979 71.7534C125.979 71.7534 110.194 76.7628 105.5 83.7727C111.984 113.986 128.548 141.946 151.932 162.147C156.823 158.633 163.837 156.234 168.726 152.722Z" fill="#E37B13"/>
<path d="M133.547 84.7622C133.547 84.7622 145.94 119.147 163.771 140.094C163.771 140.094 149.896 99.2258 133.547 84.7622Z" fill="#FFF8E6"/>
<path d="M160.214 61.395C160.214 61.395 193.889 103.976 188.184 141.347C188.184 141.347 153.151 102.26 160.214 61.395Z" fill="#FFE9B3"/>
<path d="M188.182 141.347C173.26 116.267 164.822 90.2117 160.212 61.395C152.429 61.7755 145.435 63.7657 140.164 69.5033C141.831 97.9989 153.02 125.854 171.525 147.587C176.484 145.067 183.223 143.865 188.182 141.347Z" fill="#E37B13"/>
<path d="M165.633 74.355C165.633 74.355 172.109 107.49 185.439 129.123C185.439 129.123 178.523 89.8618 165.633 74.355Z" fill="#FFF8E6"/>
<path d="M195.792 59.5464C195.792 59.5464 219.986 99.7707 209.306 133.717C209.306 133.717 183.345 96.5471 195.792 59.5464Z" fill="#FFE9B3"/>
<path d="M209.296 133.717C199.022 108.241 195.929 87.0168 195.782 59.546C192.249 58.9876 180.805 59.0776 175.75 62.6593C173.204 89.408 179.606 116.93 193.697 139.809C198.674 138.178 204.023 135.712 209.296 133.717Z" fill="#E37B13"/>
<path d="M198.742 70.8354C198.742 70.8354 200.002 102.591 209.293 124.632C209.293 124.632 208.503 87.1154 198.742 70.8354Z" fill="#FFF8E6"/>
<path d="M204.025 62.8354C204.025 62.8354 200.407 108.859 212.023 126.245C212.023 126.245 238.616 87.6369 204.025 62.8354Z" fill="#E37B13"/>
<path d="M150.596 79.2506C146.603 97.126 116.868 95.1583 118.1 75.626C118.513 69.0723 121.63 63.122 127.734 60.9947C138.031 57.4049 151.204 64.3247 151.013 75.7957C150.993 76.9576 150.85 78.1174 150.596 79.2506Z" fill="#ED2C24"/>
<path d="M130.328 69.0701C129.876 69.0824 132.171 73.6234 131.792 74.4907C131.414 75.36 127.264 78.9866 127.266 79.23C127.27 79.4734 132.86 76.8266 133.316 77.252C133.77 77.6775 134.664 82.2614 135.18 82.3576C135.695 82.4537 135.961 76.9677 136.532 76.5893C137.102 76.2109 142.66 77.3932 143.057 76.8348C143.451 76.2784 137.293 74.1572 137.295 73.6234C137.297 73.0895 139.907 69.2542 139.496 68.5956C139.084 67.9369 135.004 72.3715 134.646 72.2059C134.288 72.0422 131.011 69.0517 130.328 69.0701Z" fill="#779831"/>
<path d="M135.702 75.1495C135.608 75.6568 135.121 75.9902 134.614 75.8961C134.107 75.802 133.773 75.3152 133.867 74.8079C133.962 74.3006 134.448 73.9672 134.956 74.0613C135.463 74.1554 135.798 74.6422 135.702 75.1495Z" fill="#9EBD48"/>
<path d="M192.211 186.903L188.875 184.535C194.842 176.128 202.813 169.142 211.932 164.333L213.842 167.954C205.288 172.462 197.808 179.014 192.211 186.903Z" fill="white"/>
<path d="M205.65 153.759L202.234 151.509C206.454 145.102 214.202 141.107 221.801 141.277L221.701 145.368C221.558 145.364 221.413 145.362 221.272 145.362C215.127 145.362 209.031 148.625 205.65 153.759Z" fill="white"/>
<path d="M91.2518 217.979L89.9141 214.111C96.2673 211.914 101.678 206.925 104.384 200.77L108.127 202.417C104.971 209.598 98.6626 215.414 91.2518 217.979Z" fill="white"/>
<path d="M125.69 197.111L125.023 193.075C135.02 191.429 145.206 190.991 155.294 191.772L154.979 195.851C145.21 195.094 135.357 195.52 125.69 197.111Z" fill="white"/>
<path d="M131.534 52.5838C126.774 49.7119 121.1 48.3885 115.571 48.8917L115.211 44.8171C121.617 44.2567 128.153 45.7662 133.647 49.0799L131.534 52.5838Z" fill="white"/>
<path d="M177.493 223.957L173.406 223.753C173.83 215.198 176.779 206.628 181.707 199.622L185.055 201.974C180.563 208.358 177.878 216.164 177.493 223.957Z" fill="white"/>
<path d="M181.002 114.101C181.002 115.31 180.023 116.289 178.814 116.289C177.605 116.289 176.625 115.31 176.625 114.101C176.625 112.892 177.605 111.912 178.814 111.912C180.023 111.914 181.002 112.894 181.002 114.101Z" fill="#FFC61B"/>
<path d="M134.508 174.438C134.508 175.944 133.287 177.165 131.781 177.165C130.276 177.165 129.055 175.944 129.055 174.438C129.055 172.933 130.276 171.711 131.781 171.711C133.289 171.713 134.508 172.933 134.508 174.438Z" fill="#FFC61B"/>
<path d="M135.583 202.322C136.294 202.322 136.87 201.746 136.87 201.036C136.87 200.325 136.294 199.749 135.583 199.749C134.873 199.749 134.297 200.325 134.297 201.036C134.297 201.746 134.873 202.322 135.583 202.322Z" fill="#FFC61B"/>
<path d="M83.568 151.019C83.568 152.367 82.4757 153.46 81.1278 153.46C79.7798 153.46 78.6875 152.367 78.6875 151.019C78.6875 149.671 79.7798 148.579 81.1278 148.579C82.4737 148.579 83.568 149.673 83.568 151.019Z" fill="#FFC61B"/>
<path d="M111.373 102.05C112.799 102.05 113.956 100.894 113.956 99.4667C113.956 98.0399 112.799 96.8833 111.373 96.8833C109.946 96.8833 108.789 98.0399 108.789 99.4667C108.789 100.894 109.946 102.05 111.373 102.05Z" fill="#FFC61B"/>
<path d="M120.164 101.169C120.164 101.958 119.524 102.598 118.734 102.598C117.945 102.598 117.305 101.958 117.305 101.169C117.305 100.379 117.945 99.7388 118.734 99.7388C119.524 99.7388 120.164 100.379 120.164 101.169Z" fill="#FFC61B"/>
<path d="M138.087 83.2114C138.087 84.1605 137.318 84.9316 136.367 84.9316C135.418 84.9316 134.648 84.1625 134.648 83.2114C134.648 82.2623 135.418 81.4932 136.367 81.4932C137.318 81.4932 138.087 82.2623 138.087 83.2114Z" fill="#FFC61B"/>
<path d="M126.718 58.6537C126.718 59.6028 125.949 60.3719 124.999 60.3719C124.05 60.3719 123.281 59.6028 123.281 58.6537C123.281 57.7046 124.05 56.9355 124.999 56.9355C125.949 56.9355 126.718 57.7046 126.718 58.6537Z" fill="#FFC61B"/>
<path d="M118.907 59.069C118.907 60.2472 117.952 61.2024 116.774 61.2024C115.596 61.2024 114.641 60.2472 114.641 59.069C114.641 57.8908 115.596 56.9355 116.774 56.9355C117.952 56.9355 118.907 57.8908 118.907 59.069Z" fill="#FFC61B"/>
<path d="M54.9921 115.916C54.9921 116.919 54.1801 117.733 53.1757 117.733C52.1735 117.733 51.3594 116.921 51.3594 115.916C51.3594 114.914 52.1714 114.1 53.1757 114.1C54.1801 114.1 54.9921 114.914 54.9921 115.916Z" fill="#FFC61B"/>
<path d="M97.6647 183.79C97.6647 185.778 96.0529 187.388 94.0668 187.388C92.0785 187.388 90.4688 185.776 90.4688 183.79C90.4688 181.802 92.0806 180.192 94.0668 180.192C96.0529 180.19 97.6647 181.802 97.6647 183.79Z" fill="#FFC61B"/>
<path d="M144.348 56.9357C144.348 58.2039 143.321 59.2307 142.053 59.2307C140.785 59.2307 139.758 58.2039 139.758 56.9357C139.758 55.6675 140.785 54.6406 142.053 54.6406C143.319 54.6406 144.348 55.6675 144.348 56.9357Z" fill="#FFC61B"/>
<path d="M101.332 208.423C101.783 208.423 102.148 208.058 102.148 207.607C102.148 207.156 101.783 206.791 101.332 206.791C100.881 206.791 100.516 207.156 100.516 207.607C100.516 208.058 100.881 208.423 101.332 208.423Z" fill="#FFC61B"/>
<path d="M183.679 79.9549C185.171 79.9549 186.381 78.7452 186.381 77.2529C186.381 75.7605 185.171 74.5508 183.679 74.5508C182.186 74.5508 180.977 75.7605 180.977 77.2529C180.977 78.7452 182.186 79.9549 183.679 79.9549Z" fill="#FFC61B"/>
<path d="M158.205 103.473C158.205 104.749 157.172 105.782 155.895 105.782C154.621 105.782 153.586 104.749 153.586 103.473C153.586 102.199 154.619 101.164 155.895 101.164C157.172 101.164 158.205 102.199 158.205 103.473Z" fill="#FFC61B"/>
<path d="M161.775 101.194C162.23 101.194 162.598 100.826 162.598 100.372C162.598 99.9175 162.23 99.5493 161.775 99.5493C161.321 99.5493 160.953 99.9175 160.953 100.372C160.953 100.826 161.321 101.194 161.775 101.194Z" fill="#FFC61B"/>
<path d="M75.8188 112.315C76.875 112.315 77.7313 111.459 77.7313 110.403C77.7313 109.346 76.875 108.49 75.8188 108.49C74.7625 108.49 73.9062 109.346 73.9062 110.403C73.9062 111.459 74.7625 112.315 75.8188 112.315Z" fill="#FFC61B"/>
<path d="M196.586 185.562C196.586 186.253 196.025 186.816 195.332 186.816C194.639 186.816 194.078 186.255 194.078 185.562C194.078 184.869 194.639 184.308 195.332 184.308C196.025 184.308 196.586 184.869 196.586 185.562Z" fill="#FFC61B"/>
<path d="M77.4214 137.286C76.5807 138.252 75.8566 138.252 75.0159 139.219C74.5516 138.258 74.0893 137.294 73.625 136.333C74.5946 136.525 76.4539 137.092 77.4214 137.286Z" fill="#D7E7B3"/>
<path d="M75.9273 106.527C75.0232 106.527 74.6755 106.135 73.7734 106.135C74.0905 104.521 74.4096 102.907 74.7266 101.293C75.4998 101.424 76.5001 101.416 77.2732 101.547C76.8212 103.355 76.3794 104.721 75.9273 106.527Z" fill="#D7E7B3"/>
<path d="M92.6571 86.9178C91.8205 86.656 90.8019 86.1549 89.9653 85.8931C89.2555 86.7317 88.5457 87.5704 87.8359 88.409C88.288 89.6997 89.6728 90.4218 90.1248 91.7125C90.898 90.0986 91.8839 88.5317 92.6571 86.9178Z" fill="#D7E7B3"/>
<path d="M67.3351 120.6C65.6313 121.165 64.2097 121.422 62.5078 121.987C63.2176 122.502 63.9274 123.02 64.6372 123.535C65.3817 122.664 66.5885 121.474 67.3351 120.6Z" fill="#D7E7B3"/>
<path d="M142.712 171.421C141.646 170.709 141.556 169.991 140.492 169.279C141.388 168.698 142.284 168.118 143.18 167.537C143.108 168.52 142.781 170.437 142.712 171.421Z" fill="#D7E7B3"/>
<path d="M184.305 188.541C184.19 187.645 184.536 187.25 184.421 186.354C186.062 186.467 187.704 186.577 189.345 186.689C189.312 187.473 189.447 188.463 189.414 189.248C187.565 189.027 186.154 188.762 184.305 188.541Z" fill="#D7E7B3"/>
<path d="M130.781 159.408C130.667 158.512 131.013 158.117 130.898 157.221C132.538 157.334 134.181 157.444 135.821 157.557C135.789 158.34 135.924 159.33 135.891 160.116C134.042 159.895 132.631 159.629 130.781 159.408Z" fill="#D7E7B3"/>
<path d="M189.867 127.897C189.753 127.001 190.098 126.606 189.984 125.71C191.624 125.822 193.267 125.933 194.907 126.045C194.875 126.829 195.01 127.819 194.977 128.604C193.128 128.383 191.716 128.115 189.867 127.897Z" fill="#D7E7B3"/>
<path d="M152.077 212.913C152.232 212.05 152.598 210.978 152.754 210.113C151.831 209.516 150.911 208.917 149.988 208.319C148.765 208.931 148.223 210.396 147 211.007C148.7 211.57 150.379 212.349 152.077 212.913Z" fill="#D7E7B3"/>
<path d="M98.8404 177.894C98.9959 177.031 99.362 175.957 99.5175 175.094C98.595 174.495 97.6745 173.898 96.752 173.3C95.5288 173.912 94.9868 175.376 93.7656 175.988C95.4634 176.551 97.1427 177.33 98.8404 177.894Z" fill="#D7E7B3"/>
<path d="M158.979 168.177C158.204 166.557 157.77 165.18 156.995 163.562C156.571 164.332 156.15 165.101 155.727 165.87C156.686 166.502 158.02 167.547 158.979 168.177Z" fill="#D7E7B3"/>
<path d="M152.18 102.299C152.55 101.504 153.178 100.561 153.549 99.765C152.81 98.9509 152.07 98.1388 151.331 97.3247C149.994 97.6049 149.096 98.8834 147.758 99.1636C149.257 100.141 150.683 101.322 152.18 102.299Z" fill="#D7E7B3"/>
<path d="M105.414 127.633C106.259 126.669 106.983 126.673 107.828 125.71C108.286 126.673 108.746 127.639 109.206 128.602C108.237 128.404 106.382 127.829 105.414 127.633Z" fill="#D7E7B3"/>
<path d="M104.507 154.75C105.411 154.754 105.757 155.147 106.659 155.151C106.334 156.763 106.008 158.377 105.685 159.988C104.912 159.853 103.914 159.858 103.141 159.723C103.601 157.918 104.049 156.554 104.507 154.75Z" fill="#D7E7B3"/>
<path d="M90.7656 126.058C91.6022 126.324 92.6168 126.827 93.4534 127.095C94.1672 126.259 94.8791 125.424 95.593 124.588C95.147 123.295 93.7643 122.567 93.3184 121.276C92.537 122.884 91.547 124.446 90.7656 126.058Z" fill="#D7E7B3"/>
<path d="M104.898 106.583C105.735 106.849 106.75 107.352 107.586 107.62C108.3 106.784 109.012 105.949 109.726 105.112C109.28 103.82 107.899 103.091 107.451 101.801C106.672 103.411 105.68 104.973 104.898 106.583Z" fill="#D7E7B3"/>
<path d="M112.398 154.832C114.104 154.273 115.526 154.024 117.232 153.465C116.524 152.946 115.816 152.426 115.109 151.907C114.36 152.776 113.147 153.962 112.398 154.832Z" fill="#D7E7B3"/>
<path d="M201.839 167.24C200.773 166.528 200.683 165.811 199.617 165.099C200.513 164.518 201.409 163.937 202.305 163.356C202.235 164.34 201.908 166.256 201.839 167.24Z" fill="#D7E7B3"/>
<path d="M165.922 146.302C165.807 145.406 166.153 145.012 166.039 144.116C167.679 144.228 169.322 144.339 170.962 144.451C170.929 145.235 171.064 146.225 171.032 147.01C169.183 146.789 167.771 146.521 165.922 146.302Z" fill="#D7E7B3"/>
<path d="M143.655 142.038C143.81 141.175 144.177 140.103 144.332 139.238C143.412 138.64 142.489 138.041 141.567 137.444C140.343 138.055 139.801 139.52 138.578 140.13C140.278 140.694 141.957 141.473 143.655 142.038Z" fill="#D7E7B3"/>
<path d="M170.416 132.876C169.641 131.256 169.208 129.879 168.432 128.261C168.011 129.03 167.587 129.799 167.164 130.569C168.123 131.199 169.457 132.246 170.416 132.876Z" fill="#D7E7B3"/>
<path d="M184.563 106.399C184.933 105.603 185.561 104.66 185.931 103.864C185.193 103.05 184.453 102.238 183.714 101.426C182.376 101.707 181.48 102.985 180.141 103.265C181.638 104.241 183.064 105.421 184.563 106.399Z" fill="#D7E7B3"/>
<path d="M128.266 105.618C129.11 104.655 129.835 104.659 130.679 103.695C131.14 104.659 131.598 105.624 132.058 106.588C131.09 106.389 129.233 105.814 128.266 105.618Z" fill="#D7E7B3"/>
<path d="M129.171 118.682C130.075 118.686 130.421 119.078 131.323 119.083C130.998 120.694 130.672 122.308 130.349 123.92C129.576 123.785 128.578 123.789 127.805 123.654C128.263 121.852 128.711 120.486 129.171 118.682Z" fill="#D7E7B3"/>
<path d="M117.305 68.3043C118.141 68.5702 119.156 69.0754 119.992 69.3414C120.706 68.5048 121.418 67.6702 122.132 66.8336C121.686 65.5409 120.305 64.8127 119.857 63.522C119.076 65.1318 118.086 66.6945 117.305 68.3043Z" fill="#D7E7B3"/>
<path d="M132.57 129.847C134.276 129.288 135.698 129.039 137.404 128.48C136.696 127.961 135.988 127.441 135.281 126.924C134.532 127.793 133.319 128.977 132.57 129.847Z" fill="#D7E7B3"/>
<path d="M89.3281 204.103C91.0341 203.544 92.4557 203.295 94.1616 202.736C93.4539 202.217 92.7461 201.697 92.0384 201.18C91.2897 202.047 90.0788 203.233 89.3281 204.103Z" fill="#D7E7B3"/>
</svg>
