<svg width="172" height="236" viewBox="0 0 172 236" fill="none" xmlns="http://www.w3.org/2000/svg">
<path d="M0 66.7444L84.8807 17.1886L171.981 68.2838L87.3202 117.287L0 66.7444Z" fill="#C63030"/>
<path d="M9.83594 78.7171C9.83594 78.7171 28.825 48.4772 68.8941 42.8771C108.963 37.277 154.558 61.0272 161.026 75.8752C165.908 87.081 145.338 96.7668 145.338 96.7668L78.7386 142.162L9.83594 78.7171Z" fill="#F4B12C"/>
<path d="M87.3203 117.287V235.068L163.751 190.379L171.981 68.2838L87.3203 117.287Z" fill="#FF4343"/>
<path d="M87.3202 117.287V235.068L13.0311 191.631L0 66.7444L87.3202 117.287Z" fill="#ED2B2B"/>
<path d="M102.852 226.057V108.357L111.143 103.558V221.207L102.852 226.057Z" fill="white"/>
<path d="M125.18 213.32V95.4113L134.503 90.0232L133.471 208.47L125.18 213.32Z" fill="white"/>
<path d="M146.312 200.575V83.1402L156.452 77.2975L153.369 196.631L146.312 200.575Z" fill="white"/>
<path d="M71.8071 226.057V108.357L63.5156 103.558V221.207L71.8071 226.057Z" fill="#FFA6A6"/>
<path d="M49.4743 213.32V95.4113L40.1484 90.0232L41.18 208.47L49.4743 213.32Z" fill="#FFA6A6"/>
<path d="M28.3459 200.575V83.1402L18.2031 77.2975L21.2867 196.631L28.3459 200.575Z" fill="#FFA6A6"/>
<path d="M159.262 133.803C159.262 128.186 157.52 123.975 154.553 121.292L104.512 150.55C101.69 156.502 100.031 162.543 100.031 168.009C100.031 174.78 102.538 179.541 106.709 181.995L152.63 155.414C156.773 148.172 159.262 140.547 159.262 133.803Z" fill="white"/>
<path d="M129.644 122.684C119.022 128.819 109.735 139.529 104.508 150.551L154.55 121.289C149.283 116.526 140.108 116.643 129.644 122.684Z" fill="#C63030"/>
<path d="M129.648 179.128C138.926 173.768 147.201 164.919 152.632 155.417L106.711 181.998C112.142 185.191 120.397 184.472 129.648 179.128Z" fill="#C63030"/>
<path d="M104.023 162.136L106.993 160.42C108.766 159.397 110.179 159.475 110.179 162.2C110.179 164.835 108.718 166.852 106.993 167.844L105.869 168.494V172.304L104.023 173.372V162.136ZM106.884 165.892C107.896 165.309 108.381 164.406 108.381 163.234C108.381 162.063 107.857 161.932 106.884 162.495L105.869 163.081V166.478L106.884 165.892Z" fill="#C63030"/>
<path d="M111.195 163.558C111.195 159.888 112.706 156.909 114.892 155.649C117.089 154.38 118.589 155.632 118.589 159.288C118.589 162.958 117.089 166.032 114.892 167.301C112.706 168.561 111.195 167.231 111.195 163.558ZM116.704 160.379C116.704 158.136 116.007 157.196 114.895 157.841C113.797 158.477 113.086 160.228 113.086 162.47C113.086 164.729 113.797 165.747 114.895 165.111C116.005 164.47 116.704 162.635 116.704 160.379Z" fill="#C63030"/>
<path d="M120.117 152.837L123.086 151.122C124.86 150.099 126.273 150.18 126.273 152.904C126.273 155.54 124.812 157.556 123.086 158.552L121.963 159.199V163.009L120.117 164.074V152.837ZM122.978 156.597C123.99 156.011 124.475 155.113 124.475 153.942C124.475 152.771 123.951 152.639 122.978 153.2L121.963 153.786V157.183L122.978 156.597Z" fill="#C63030"/>
<path d="M131.173 146.245C132.185 145.662 133.035 145.857 133.584 146.317L132.572 148.47C132.16 148.188 131.772 148.085 131.198 148.417C130.06 149.072 129.174 150.947 129.174 153.206C129.174 155.515 129.96 156.402 131.148 155.718C131.822 155.325 132.296 154.659 132.698 153.822L133.71 154.77C133.035 156.245 132.137 157.336 131.123 157.922C129.012 159.14 127.289 158.153 127.289 154.377C127.286 150.659 129.073 147.458 131.173 146.245Z" fill="#C63030"/>
<path d="M134.078 150.344C134.078 146.674 135.589 143.695 137.775 142.435C139.972 141.166 141.472 142.418 141.472 146.074C141.472 149.745 139.972 152.818 137.775 154.087C135.589 155.347 134.078 154.014 134.078 150.344ZM139.587 147.162C139.587 144.92 138.89 143.98 137.778 144.624C136.679 145.26 135.968 147.011 135.968 149.254C135.968 151.513 136.679 152.531 137.778 151.895C138.887 151.253 139.587 149.421 139.587 147.162Z" fill="#C63030"/>
<path d="M147.405 148.317L145.844 145.168L144.846 145.745V149.795L143 150.86V139.624L145.933 137.931C147.659 136.938 149.081 136.944 149.081 139.615C149.081 141.269 148.492 142.661 147.631 143.69L149.465 147.129L147.405 148.317ZM144.846 143.726L145.785 143.185C146.747 142.63 147.271 141.76 147.271 140.658C147.271 139.557 146.747 139.476 145.785 140.031L144.846 140.572V143.726Z" fill="#C63030"/>
<path d="M150.688 135.187L152.569 134.099L154.694 138.455L155.505 140.472L155.555 140.441C155.469 139.303 155.318 137.805 155.318 136.475V132.509L157.066 131.502V142.739L155.182 143.829L153.06 139.454L152.26 137.468L152.21 137.499C152.299 138.689 152.447 140.103 152.447 141.428V145.411L150.688 146.426V135.187Z" fill="#C63030"/>
<path d="M38.832 65.0905C37.2401 57.2119 27.6689 55.4242 22.7899 60.8235C19.2491 57.0167 12.4966 56.4617 9.07849 60.9379C5.67156 65.4001 8.15567 71.6612 12.7085 74.0261C10.7792 75.8417 9.06734 78.1146 9.28202 80.8199C9.49112 83.4526 11.5738 85.2681 14.0579 85.6893C19.6199 86.6319 22.8652 81.4697 24.8725 76.6728C32.1157 79.2162 40.5076 73.3707 38.832 65.0905Z" fill="#FFD364"/>
<path d="M132.144 64.0837C132.599 60.0036 131.801 54.9195 126.551 55.678C122.052 56.3306 118.862 62.7395 119.958 67.1459C118.029 65.6148 115.299 65.8603 113.303 67.5559C110.573 69.8735 110.833 73.5966 112.227 76.6337C113.785 80.0362 116.805 84.2167 120.956 84.2641C125.068 84.3115 127.795 81.1713 129.844 77.964C133.65 81.6175 140.31 80.7418 142.187 75.0636C144.45 68.2029 138.244 63.5538 132.144 64.0837Z" fill="#F4B12C"/>
<path d="M123.305 34.5438C122.084 30.0425 117.4 28.6927 113.851 30.4915C113.628 27.5688 112.543 24.593 109.15 24.4229C104.427 24.1858 103.014 29.0497 102.671 32.8426C96.7157 33.0015 93.8775 42.0598 97.3541 46.7005C101.84 52.6855 110.277 50.5855 112.758 44.2658C118.613 45.387 125.142 41.3263 123.305 34.5438Z" fill="#FFD364"/>
<path d="M110.91 14.3551C110.032 10.1662 105.225 7.53623 101.54 9.05617C101.573 7.68683 101.283 6.23103 100.723 4.95372C100.087 1.59311 96.616 -1.15953 93.025 0.494285C89.8801 1.94451 89.0605 5.5115 90.1506 8.43983C85.213 9.6279 81.4632 14.7009 83.8441 19.8603C85.0513 22.4763 87.5968 24.3253 90.421 24.7995C91.8206 25.0337 92.8856 24.7744 94.2434 24.5652C96.9533 24.1496 98.2302 24.9556 100.823 25.1453C106.31 25.5469 112.089 19.9942 110.91 14.3551Z" fill="#F4B12C"/>
<path d="M109.326 15.5627C108.448 11.3737 103.641 8.74382 99.9553 10.2638C99.9887 8.89442 99.6988 7.43862 99.1384 6.16131C98.5027 2.8007 95.0317 0.0480626 91.4407 1.70466C88.2959 3.15488 87.4762 6.72187 88.5663 9.65021C83.626 10.8383 79.8789 15.9113 82.2571 21.0707C83.4643 23.6867 86.0097 25.5357 88.834 26.0098C90.2335 26.2441 91.2985 25.9847 92.6563 25.7756C95.3662 25.36 96.6431 26.1632 99.236 26.3557C104.726 26.7545 110.508 21.2018 109.326 15.5627Z" fill="#F4B12C"/>
<path d="M53.3325 65.9216C50.9962 62.3713 46.5131 61.7076 43.1675 63.4952C41.3497 60.8151 37.2764 59.549 34.4159 61.2753C30.7692 63.4785 31.8621 67.2714 33.9559 70.091C31.3436 70.8691 29.2498 73.1448 29.8213 76.2293C30.4793 79.7796 34.2431 81.2437 37.3573 80.3206C41.1183 85.547 48.8634 82.6549 48.7323 76.4217C53.4106 75.4651 56.2516 70.3559 53.3325 65.9216Z" fill="#FFE3A6"/>
<path d="M49.9204 29.8166C51.4594 26.5452 51.9305 22.3145 47.7904 20.8866C44.0517 19.5981 41.1856 22.6157 39.9254 25.9094C38.0519 23.8233 34.8847 22.928 32.4285 24.8914C29.5931 27.1616 30.3709 31.4202 32.9833 33.4087C30.8533 35.6008 30.265 39.257 32.4285 42.0013C34.7509 44.9435 38.5231 44.6117 40.773 42.361C43.9067 47.1635 51.8218 46.6029 55.2622 41.7447C58.7723 36.7888 55.3542 30.1624 49.9204 29.8166Z" fill="#F4B12C"/>
<path d="M99.6863 62.3407C98.0748 59.0749 94.6623 59.1586 91.6289 60.012C92.0443 57.6052 91.5314 55.2374 88.4534 54.7912C84.6004 54.2306 82.9638 57.6052 82.1999 60.7678C77.6638 58.5255 72.0432 59.9981 71.7951 66.3512C71.6195 70.8329 75.2968 75.5545 79.6099 75.3481C79.1192 81.2494 84.3857 86.5818 90.734 84.7885C97.9103 82.7582 99.2011 74.782 95.3844 69.3687C98.2365 67.8711 101.579 66.1782 99.6863 62.3407Z" fill="#FFE3A6"/>
<path d="M91.5328 24.7966C93.4175 22.3173 91.9037 18.4491 88.1566 17.7603C82.8677 16.7897 80.7405 21.2101 80.5593 25.6389C80.0407 25.4799 79.4915 25.3823 78.8976 25.4102C75.1087 25.5747 72.4239 30.076 72.2064 33.5231C71.83 39.469 81.1057 43.4738 85.6334 39.9236C89.2774 45.2252 97.1562 46.3185 100.984 39.9626C105.543 32.3991 98.5586 26.2385 91.5328 24.7966Z" fill="#FFE3A6"/>
<path d="M72.9909 49.3194C72.4723 46.9656 70.8831 45.3508 68.9343 44.6396C69.9296 43.7249 70.4343 42.5647 69.5477 40.3754C68.2122 37.0734 64.6492 36.6941 61.6158 37.4694C59.9904 34.3932 55.9562 32.5721 52.8894 35.0263C50.7677 36.7248 50.6032 39.5276 51.777 41.6165C48.331 41.8842 45.3395 44.5336 45.5932 48.6082C45.8357 52.521 48.8663 54.688 52.1784 54.78C52.2621 55.6808 52.4879 56.5733 52.8252 57.29C55.2062 62.3742 60.9551 62.0562 65.5218 60.2853C69.8906 58.5896 74.1311 54.4816 72.9909 49.3194Z" fill="#FFE3A6"/>
<path d="M134.21 50.4489C133.691 48.0951 132.102 46.4803 130.153 45.7691C131.148 44.8544 131.653 43.6942 130.766 41.5049C129.431 38.2029 125.868 37.8236 122.835 38.5989C121.209 35.5228 117.175 33.7016 114.108 36.1558C111.986 37.8543 111.822 40.6571 112.996 42.746C109.55 43.0137 106.558 45.6632 106.812 49.7377C107.054 53.6505 110.085 55.8175 113.397 55.9095C113.481 56.8104 113.707 57.7028 114.044 58.4195C116.425 63.5037 122.174 63.1857 126.741 61.4148C131.109 59.7192 135.35 55.6111 134.21 50.4489Z" fill="#FFE3A6"/>
<path d="M68.601 91.6742C69.496 89.3287 68.7181 86.5594 66.1532 84.9976C63.1589 83.1737 57.081 83.6394 54.3599 86.3948C51.8228 83.4916 47.5684 82.5239 44.2702 85.508C40.3084 89.0917 41.9952 94.3989 45.0898 97.8432C43.1243 101.07 43.2721 105.596 46.3974 108.263C50.1556 111.467 55.1601 110.084 58.0512 106.784C61.9851 112.426 70.2459 113.868 74.8461 107.42C79.4519 100.967 75.3201 93.4507 68.601 91.6742Z" fill="#FFD364"/>
<path d="M76.1708 20.3874C77.8855 17.197 77.1048 13.0359 73.2685 11.1813C68.2864 8.77451 63.9817 11.9762 62.4623 16.377C59.8499 13.8893 55.601 13.1029 52.8771 16.179C50.3122 19.0739 51.4078 23.1066 54.0676 25.1815C51.9152 28.9326 52.1383 34.3486 55.3333 37.5447C59.4428 41.6527 69.1674 41.1702 70.2826 35.651C74.7713 37.9128 80.4393 36.7694 82.5526 31.4036C84.6938 25.9736 81.1028 21.2492 76.1708 20.3874Z" fill="#FFD364"/>
<path d="M85.6696 88.4586C87.3843 85.2681 86.6036 81.1071 82.7673 79.2525C77.7852 76.8457 73.4805 80.0473 71.961 84.4482C69.3487 81.9605 65.0998 81.174 62.3759 84.2502C59.8137 87.1423 60.9066 91.1778 63.5664 93.2527C61.414 97.0038 61.6343 102.42 64.8321 105.616C68.9416 109.724 78.6662 109.241 79.7814 103.722C84.2701 105.984 89.9353 104.841 92.0514 99.4747C94.1926 94.0475 90.6016 89.3204 85.6696 88.4586Z" fill="#FFE3A6"/>
<path d="M127.186 65.0152C128.901 61.8248 128.12 57.6637 124.284 55.8091C119.302 53.4023 114.997 56.604 113.478 61.0048C110.866 58.5171 106.617 57.7307 103.893 60.8068C101.328 63.6989 102.423 67.7344 105.083 69.8094C102.931 73.5604 103.154 78.9764 106.349 82.1725C110.458 86.2805 120.183 85.7981 121.298 80.2788C125.787 82.5406 131.455 81.3972 133.568 76.0314C135.709 70.6014 132.116 65.877 127.186 65.0152Z" fill="#FFE3A6"/>
<path d="M72.374 59.7693C74.0886 56.5788 73.308 52.415 69.4717 50.5632C64.4895 48.1563 60.1848 51.358 58.6654 55.7589C56.053 53.2712 51.8041 52.4847 49.0802 55.5608C46.5153 58.4557 47.611 62.4884 50.2707 64.5634C48.1184 68.3144 48.3386 73.7305 51.5365 76.9265C55.646 81.0346 65.3705 80.5521 66.4857 75.0329C70.9744 77.2947 76.6424 76.1512 78.7557 70.7854C80.8969 65.3582 77.3059 60.631 72.374 59.7693Z" fill="#FFD364"/>
<path d="M97.9287 47.3644C99.6433 44.1739 98.8626 40.0129 95.0264 38.1583C90.0442 35.7514 85.7395 38.9531 84.2201 43.3539C81.6077 40.8663 77.3588 40.0798 74.6349 43.1559C72.07 46.0508 73.1656 50.0835 75.8254 52.1585C73.6731 55.9095 73.8933 61.3255 77.0911 64.5216C81.2007 68.6296 90.9252 68.1472 92.0404 62.628C96.5291 64.8897 102.194 63.7463 104.31 58.3805C106.449 52.9533 102.858 48.2261 97.9287 47.3644Z" fill="#FFD364"/>
<path d="M42.3459 40.5594C44.0912 36.0358 44.2724 30.8485 38.3981 29.2561C34.506 28.2019 31.4253 30.0648 29.3761 32.9123C27.4524 29.376 22.8048 27.6497 18.8737 30.6477C13.2782 34.9119 15.2047 41.3431 19.6488 44.9129C17.9146 47.1747 17.1702 50.1699 18.2046 53.1987C20.1395 58.8629 26.7247 59.747 30.5443 55.9792C35.7049 59.3091 42.6498 59.6633 46.5195 53.9572C49.932 48.9205 47.5873 42.6371 42.3459 40.5594Z" fill="#FFD364"/>
<path d="M113.135 82.2979C111.175 77.3114 106.071 76.8038 101.939 78.6947C101.462 75.6437 99.6972 72.7125 96.1258 74.6982C93.9511 75.9086 93.0645 78.123 93.1036 80.4071C89.6966 79.9692 86.1252 83.0482 85.8102 86.8522C85.3725 92.1511 89.9671 97.5336 95.189 96.9619C96.3628 102.489 102.137 106.162 107.663 102.922C112.589 100.035 112.773 94.2734 109.717 90.422C112.698 89.1335 114.582 85.9765 113.135 82.2979Z" fill="#FFD364"/>
<path d="M156.088 67.2547C154.129 62.2682 149.024 61.7606 144.892 63.6515C144.415 60.6004 142.65 57.6693 139.079 59.655C136.904 60.8654 136.018 63.0798 136.057 65.3639C132.65 64.926 129.078 68.0049 128.763 71.809C128.326 77.1079 132.92 82.4904 138.142 81.9187C139.316 87.4463 145.09 91.1192 150.616 87.8813C155.542 84.9948 155.726 79.233 152.67 75.3816C155.654 74.0875 157.535 70.9333 156.088 67.2547Z" fill="#FFD364"/>
<path d="M149.473 52.8334C148.98 51.2883 148.006 50.0668 146.783 49.3222C150.142 44.5476 145.291 37.3132 139.419 39.0172C139.09 35.8435 136.473 33.141 132.633 34.067C129.444 34.8339 128.136 37.1794 128.142 39.7061C125.22 39.6559 122.309 41.2121 121.189 44.1934C119.449 48.8258 123.154 53.0481 127.534 53.6896C127.925 58.057 128.872 62.7869 132.943 65.1714C137.214 67.6703 141.547 65.322 144.976 62.5164C147.834 60.1793 150.736 56.7852 149.473 52.8334Z" fill="#FFD364"/>
</svg>
