<svg width="192" height="192" viewBox="0 0 192 192" fill="none" xmlns="http://www.w3.org/2000/svg">
<path d="M191.134 95.5676C191.134 148.349 148.348 191.137 95.5676 191.137C42.7871 191.137 0 148.349 0 95.5676C0 42.7871 42.7871 3.66485e-08 95.5676 3.66485e-08C148.348 -0.00144596 191.134 42.7871 191.134 95.5676Z" fill="white"/>
<path d="M174.104 96.8023C174.104 140.754 138.476 176.38 94.5294 176.38C50.5797 176.38 14.9531 140.752 14.9531 96.8023C14.9531 52.8526 50.5797 17.2261 94.5294 17.2261C138.476 17.2261 174.104 52.8541 174.104 96.8023Z" fill="#E6E6E6"/>
<g opacity="0.2">
<path d="M141.129 74.0007C136.934 81.2885 124.05 57.606 129.288 47.5852C132.476 41.4368 136.802 43.4858 138.396 49.1787C142.04 50.5451 144.546 53.0496 143.406 56.9206C145.228 58.5155 145.684 61.7025 143.862 63.2974C146.139 64.8909 147.05 69.6743 144.089 70.3568C145.228 72.4072 143.633 75.3672 141.129 74.0007Z" fill="black"/>
<path d="M140.102 72.2077C142.151 72.6342 142.749 64.5221 137.968 66.7418C139.761 64.9487 139.59 61.9598 137.284 60.6787C135.064 59.4828 132.928 61.192 133.271 63.4969C130.794 64.0956 131.064 66.8068 132.004 68.5146C132.516 69.3677 134.267 71.0971 135.663 69.6453C135.185 71.0335 135.298 72.9306 137.47 73.71C138.542 74.0932 140.181 73.1461 140.102 72.2077Z" fill="black"/>
<path d="M138.879 52.1385C140.179 55.2648 135.805 55.4686 135.036 52.3945C133.243 54.9568 128.888 50.0042 131.621 48.6378C127.523 42.9159 137.428 40.9522 137.007 46.4167C138.373 46.502 140.246 47.5359 140.417 49.4996C140.506 50.5291 140.161 52.3959 138.879 52.1385Z" fill="black"/>
<path d="M34.0462 70.5245C35.0468 82.1503 34.8704 97.9449 47.9364 98.7561C67.0656 99.9448 87.7882 93.0676 104.183 88.5141C112.153 86.2367 120.351 83.7322 128.094 80.5438C131.736 79.1773 137.658 77.5838 140.391 74.6239C144.262 70.7529 142.19 63.7138 139.707 58.8104C136.291 52.0634 137.429 39.0378 113.291 46.4124C89.1532 53.787 52.0344 61.6171 44.975 64.1158C37.9171 66.6145 33.6731 66.1922 34.0462 70.5245Z" fill="black"/>
<path d="M33.591 69.275C37.7844 61.9886 50.6697 85.6697 45.4323 95.6905C42.2439 101.837 37.9175 99.7899 36.3225 94.0955C32.6786 92.7291 30.1741 90.2246 31.3136 86.3537C29.4916 84.7602 29.0361 81.5717 30.8581 79.9782C28.5806 78.3833 27.6711 73.6014 30.6311 72.9189C29.4916 70.8699 31.0866 67.9099 33.591 69.275Z" fill="black"/>
<path d="M34.6134 71.0695C32.5644 70.6429 31.9657 78.755 36.7491 76.5339C34.9561 78.327 35.1267 81.3159 37.4316 82.597C39.6527 83.7929 41.787 82.0851 41.4457 79.7788C43.9213 79.1801 43.6508 76.4689 42.7124 74.7626C42.2005 73.908 40.4494 72.1786 39.054 73.6304C39.5312 72.2422 39.4184 70.3451 37.2465 69.5671C36.1736 69.1825 34.5353 70.1296 34.6134 71.0695Z" fill="black"/>
<path d="M35.8395 91.1372C34.5381 88.011 38.9137 87.8071 39.6815 90.8813C41.4746 88.3204 45.8299 93.273 43.097 94.6395C47.1964 100.361 37.2898 102.325 37.7106 96.8591C36.3442 96.7738 34.473 95.7399 34.3024 93.7762C34.2128 92.7466 34.5584 90.8799 35.8395 91.1372Z" fill="black"/>
<path d="M129.923 50.1229C128.295 49.397 127.025 52.8153 127.105 57.7201C127.181 62.625 121.418 68.6027 114.299 71.0031L74.2636 84.4972C67.1435 86.8975 60.5136 90.3275 59.5346 92.1176C58.5543 93.9077 63.6615 93.6706 70.8814 91.5898L126.471 75.571C133.693 73.4902 138.089 67.2102 136.242 61.6171C134.394 56.0225 131.551 50.8516 129.923 50.1229Z" fill="black"/>
<path d="M46.5811 90.6208C46.5811 90.6208 126.554 68.3727 142.124 65.9304C143.995 65.6369 142.124 73.0187 142.124 73.0187L50.8294 96.5495L45.0859 93.0371L46.5811 90.6208Z" fill="black"/>
<path d="M151.926 100.54C147.731 107.828 134.847 84.1456 140.084 74.1248C143.273 67.9778 147.599 70.0268 149.193 75.7197C152.837 77.0862 155.341 79.5907 154.203 83.4616C156.025 85.0551 156.481 88.2435 154.659 89.837C156.936 91.4319 157.847 96.2139 154.886 96.8964C156.025 98.9454 154.43 101.907 151.926 100.54Z" fill="black"/>
<path d="M150.899 98.7459C152.948 99.1739 153.546 91.0604 148.764 93.2815C150.557 91.4884 150.387 88.4996 148.08 87.2184C145.861 86.0226 143.725 87.7303 144.068 90.0366C141.591 90.6338 141.861 93.3466 142.801 95.0528C143.314 95.9074 145.064 97.6368 146.459 96.185C145.982 97.5718 146.095 99.4704 148.267 100.248C149.338 100.632 150.977 99.6858 150.899 98.7459Z" fill="black"/>
<path d="M149.676 78.6783C150.976 81.8045 146.602 82.0084 145.833 78.9342C144.04 81.4951 139.684 76.5426 142.417 75.1761C138.319 69.4557 148.225 67.4906 147.804 72.9565C149.17 73.0418 151.043 74.0757 151.213 76.0393C151.303 77.0689 150.958 78.9357 149.676 78.6783Z" fill="black"/>
<path d="M44.8429 97.0641C45.8435 108.693 45.6671 124.486 58.7346 125.299C77.8623 126.487 98.5849 119.61 114.981 115.055C122.951 112.779 131.149 110.272 138.892 107.085C142.536 105.717 148.456 104.121 151.189 101.162C155.06 97.2912 152.988 90.252 150.505 85.3501C147.09 78.6016 148.228 65.5775 124.089 72.9521C99.9514 80.3267 62.8326 88.1568 55.7732 90.6555C48.7153 93.1542 44.4712 92.7305 44.8429 97.0641Z" fill="black"/>
<path d="M44.3894 95.8149C48.5828 88.527 61.4681 112.211 56.2306 122.232C53.0422 128.38 48.7158 126.333 47.1208 120.635C43.4769 119.272 40.9724 116.766 42.1119 112.895C40.2899 111.302 39.8345 108.113 41.655 106.521C39.3775 104.923 38.468 100.141 41.4279 99.4588C40.2899 97.4098 41.8849 94.4484 44.3894 95.8149Z" fill="black"/>
<path d="M45.4102 97.608C43.3612 97.1814 42.7626 105.295 47.546 103.072C45.7529 104.867 45.9236 107.856 48.2285 109.138C50.4495 110.333 52.5838 108.625 52.2426 106.319C54.7181 105.72 54.4477 103.009 53.5093 101.301C52.9974 100.448 51.2463 98.7185 49.8509 100.17C50.3281 98.7822 50.2153 96.885 48.0448 96.1056C46.9705 95.7224 45.3321 96.6695 45.4102 97.608Z" fill="black"/>
<path d="M46.6353 117.677C45.3339 114.553 49.7095 114.347 50.4788 117.422C52.2718 114.861 56.6272 119.811 53.8942 121.179C57.9937 126.901 48.0871 128.864 48.5079 123.399C47.1414 123.313 45.2703 122.281 45.0997 120.317C45.0086 119.286 45.3542 117.422 46.6353 117.677Z" fill="black"/>
<path d="M140.728 76.6625C139.1 75.9352 137.831 79.3549 137.909 84.2598C137.986 89.1646 132.222 95.1424 125.104 97.5427L85.0683 111.038C77.9482 113.437 71.3183 116.869 70.3393 118.66C69.3589 120.447 74.4662 120.21 81.6861 118.132L137.276 102.111C144.497 100.03 148.893 93.7499 147.047 88.1553C145.199 82.5607 142.356 77.3898 140.728 76.6625Z" fill="black"/>
<path d="M57.2672 118.955C57.2672 118.955 137.24 96.7071 152.81 94.2649C154.68 93.9713 151.228 102.36 151.228 102.36L61.5169 124.887L55.7734 121.376L57.2672 118.955Z" fill="black"/>
<path d="M162.605 127.796C158.412 135.083 145.527 111.401 150.764 101.379C153.952 95.2323 158.279 97.2799 159.872 102.976C163.516 104.342 166.021 106.847 164.881 110.719C166.703 112.312 167.159 115.501 165.337 117.093C167.613 118.691 168.524 123.473 165.564 124.157C166.705 126.203 165.11 129.163 162.605 127.796Z" fill="black"/>
<path d="M161.579 126.002C163.628 126.431 164.226 118.318 159.443 120.537C161.236 118.744 161.065 115.755 158.761 114.477C156.539 113.28 154.405 114.989 154.746 117.292C152.271 117.891 152.541 120.602 153.48 122.312C153.992 123.165 155.743 124.893 157.138 123.441C156.661 124.83 156.774 126.728 158.946 127.504C160.019 127.889 161.657 126.943 161.579 126.002Z" fill="black"/>
<path d="M160.355 105.936C161.657 109.06 157.281 109.267 156.513 106.193C154.72 108.755 150.365 103.801 153.098 102.433C148.998 96.7116 158.905 94.7479 158.484 100.212C159.85 100.298 161.722 101.332 161.892 103.297C161.982 104.325 161.635 106.192 160.355 105.936Z" fill="black"/>
<path d="M55.5229 124.321C56.5235 135.946 56.3471 151.739 69.4132 152.552C88.5423 153.74 109.265 146.863 125.66 142.308C133.63 140.032 141.827 137.526 149.571 134.338C153.215 132.974 159.135 131.375 161.868 128.418C165.738 124.548 163.666 117.508 161.184 112.605C157.768 105.855 158.906 92.829 134.768 100.204C110.63 107.58 73.5111 115.408 66.4518 117.911C59.3938 120.41 55.1484 119.989 55.5229 124.321Z" fill="black"/>
<path d="M55.0682 123.074C59.263 115.784 72.1469 139.465 66.9095 149.488C63.721 155.636 59.3946 153.586 57.7997 147.89C54.1558 146.526 51.6513 144.02 52.7907 140.148C50.9688 138.554 50.5133 135.366 52.3353 133.774C50.0578 132.178 49.1468 127.4 52.1082 126.716C50.9702 124.667 52.5637 121.707 55.0682 123.074Z" fill="black"/>
<path d="M56.09 124.864C54.0411 124.437 53.4424 132.548 58.2243 130.328C56.4313 132.121 56.6019 135.11 58.9083 136.391C61.1279 137.586 63.2636 135.879 62.9209 133.573C65.3979 132.974 65.1275 130.263 64.1876 128.557C63.6758 127.704 61.9247 125.976 60.5293 127.427C61.0064 126.038 60.8937 124.141 58.7218 123.363C57.6503 122.981 56.012 123.927 56.09 124.864Z" fill="black"/>
<path d="M57.3157 144.933C56.0157 141.807 60.3913 141.6 61.1592 144.675C62.9522 142.114 67.3075 147.067 64.5746 148.432C68.6726 154.154 58.7675 156.119 59.1883 150.652C57.8218 150.566 55.9492 149.537 55.7786 147.57C55.6904 146.541 56.036 144.675 57.3157 144.933Z" fill="black"/>
<path d="M151.407 103.919C149.781 103.191 148.511 106.612 148.589 111.517C148.667 116.424 142.903 122.398 135.783 124.799L95.748 138.293C88.6279 140.69 81.9994 144.122 81.019 145.913C80.0386 147.701 85.1459 147.463 92.3658 145.386L147.956 129.367C155.176 127.287 159.573 121.007 157.726 115.413C155.88 109.82 153.036 104.646 151.407 103.919Z" fill="black"/>
<path d="M52.7969 54.6111C44.5446 60.4008 42.6995 68.7096 52.7969 74.4936C59.0118 78.1086 62.5068 79.9161 62.8958 87.1461C62.8958 94.0146 57.4574 101.245 60.1773 108.116C62.5082 114.261 70.2747 114.984 75.7131 117.876C82.7045 121.853 84.2575 127.637 85.812 134.867C88.5305 147.158 94.7974 154.379 106.008 144.989C109.892 141.735 117.854 144.938 124.942 147.132C132.03 149.327 139.344 139.987 139.307 130.28C139.269 120.573 148.1 118.289 149.192 113.021C150.285 107.753 149.015 102.109 141.688 96.7967C134.36 91.4841 131.253 88.1756 131.253 80.6116C131.253 73.0476 137.424 65.0006 130.676 60.6438C123.927 56.287 117.896 54.5633 115.779 49.1943C113.662 43.8239 108.56 38.0023 99.7109 44.8607C90.8614 51.7191 85.8857 53.5772 75.5569 53.3718C65.2253 53.1651 57.1942 51.5267 52.7969 54.6111Z" fill="black"/>
<path d="M57.468 71.7258C52.9536 67.9734 50.1874 63.3506 54.1914 59.1557C58.1954 54.9594 70.1755 61.7354 77.7424 58.3474C85.3079 54.9594 96.6937 52.802 99.7679 50.2657C102.842 47.7294 103.432 48.7489 103.227 49.3244C103.021 49.8999 92.1243 61.2582 82.7514 62.8083C73.3784 64.3584 66.721 63.5891 65.5787 67.7854C64.5665 71.506 68.5256 77.2206 68.1496 82.9901C67.7751 88.7597 65.0639 81.6526 62.8949 78.2473C60.7259 74.8419 57.468 71.7258 57.468 71.7258Z" fill="black"/>
<path d="M71.9345 60.0205C68.5002 63.274 65.066 66.5275 61.8125 70.1425L71.9345 60.0205Z" fill="black"/>
<path d="M71.9375 68.4971C76.6269 69.7883 81.0733 71.4035 85.5198 73.0173L71.9375 68.4971Z" fill="black"/>
<path d="M78.8828 64.5117C83.2902 62.457 87.7251 60.8056 92.1571 59.1558L78.8828 64.5117Z" fill="black"/>
<path d="M125.808 67.7842C121.299 69.6076 116.786 71.0276 112.273 72.4461L125.808 67.7842Z" fill="black"/>
<path d="M115.984 64.827C112.336 61.6111 109.046 58.2115 105.758 54.8105L115.984 64.827Z" fill="black"/>
<path d="M107.998 65.3649C103.135 65.281 98.4255 64.8226 93.7188 64.3628L107.998 65.3649Z" fill="black"/>
<path d="M78.3364 108.537C75.0742 104.927 72.1895 101.178 69.3047 97.4285L78.3364 108.537Z" fill="black"/>
<path d="M77.7422 98.2975C79.5078 93.7658 81.5683 89.5073 83.6318 85.2502L77.7422 98.2975Z" fill="black"/>
<path d="M74.4849 90.9809C72.8914 86.3855 71.7028 81.806 70.5156 77.2266L74.4849 90.9809Z" fill="black"/>
<path d="M101.01 101.031C96.2194 100.199 91.6371 99.022 87.0547 97.845L101.01 101.031Z" fill="black"/>
<path d="M99.0781 91.4594C102.09 87.6405 105.307 84.1716 108.523 80.7026L99.0781 91.4594Z" fill="black"/>
<path d="M121.133 101.301C125.766 99.8188 130.371 98.7401 134.977 97.6614L121.133 101.301Z" fill="black"/>
<path d="M93.7188 140.527C98.3517 139.045 102.957 137.964 107.563 136.886L93.7188 140.527Z" fill="black"/>
<path d="M121.508 91.8383C119.915 87.2429 118.726 82.6635 117.539 78.084L121.508 91.8383Z" fill="black"/>
<path d="M90.4453 121.408C91.3505 116.629 92.6013 112.065 93.8506 107.501L90.4453 121.408Z" fill="black"/>
<path d="M107.266 108.865C109.492 104.539 111.987 100.519 114.483 96.5002L107.266 108.865Z" fill="black"/>
<path d="M90.2656 87.8344C91.2966 83.0814 92.666 78.5526 94.0354 74.0237L90.2656 87.8344Z" fill="black"/>
<path d="M124.992 105.199C129.776 106.074 134.348 107.292 138.919 108.509L124.992 105.199Z" fill="black"/>
<path d="M126.845 114.788C123.8 118.581 120.552 122.018 117.305 125.461L126.845 114.788Z" fill="black"/>
<path d="M135.626 118.49C134.553 123.234 133.144 127.75 131.734 132.266L135.626 118.49Z" fill="black"/>
<path d="M120.769 130.149C117.722 133.939 114.474 137.379 111.227 140.819L120.769 130.149Z" fill="black"/>
<path d="M111.457 127.207C109.573 122.722 108.096 118.232 106.617 113.737L111.457 127.207Z" fill="black"/>
<path d="M104.019 133.165C100.359 129.962 97.0576 126.573 93.7578 123.182L104.019 133.165Z" fill="black"/>
</g>
<path d="M138.598 69.4585C134.403 76.7463 121.519 53.0637 126.756 43.0429C129.945 36.8945 134.271 38.9435 135.865 44.6364C139.509 46.0029 142.013 48.5074 140.875 52.3783C142.697 53.9732 143.153 57.1602 141.331 58.7552C143.608 60.3501 144.519 65.132 141.558 65.8145C142.697 67.865 141.102 70.8264 138.598 69.4585Z" fill="#790500"/>
<path d="M137.571 67.6668C139.621 68.0934 140.218 59.9813 135.436 62.2009C137.229 60.4079 137.059 57.419 134.752 56.1378C132.533 54.942 130.397 56.6497 130.74 58.9561C128.263 59.5533 128.533 62.2646 129.473 63.9737C129.986 64.8269 131.736 66.5563 133.131 65.1045C132.654 66.4927 132.767 68.3898 134.939 69.1692C136.01 69.5524 137.65 68.6052 137.571 67.6668Z" fill="#913016"/>
<path d="M136.348 47.5979C137.648 50.7241 133.274 50.928 132.505 47.8538C130.712 50.4161 126.356 45.4636 129.089 44.0971C124.991 38.3753 134.896 36.4102 134.476 41.876C135.842 41.9614 137.715 42.9953 137.885 44.9589C137.975 45.9885 137.629 47.8553 136.348 47.5979Z" fill="#913016"/>
<path d="M31.5149 65.9837C32.5155 77.6095 32.3391 93.4042 45.4052 94.2154C64.5343 95.404 85.257 88.5268 101.652 83.9734C109.622 81.6959 117.819 79.1915 125.563 76.003C129.207 74.6366 135.127 73.043 137.86 70.0831C141.73 66.2121 139.658 59.173 137.176 54.2696C133.76 47.5226 134.898 34.497 110.76 41.8716C86.622 49.2462 49.5032 57.0763 42.4438 59.575C35.3859 62.0737 31.1418 61.6515 31.5149 65.9837Z" fill="#ECD69D"/>
<path d="M31.0598 64.7344C35.2532 57.448 48.1385 81.1292 42.9011 91.15C39.7126 97.2984 35.3862 95.2494 33.7913 89.555C30.1474 88.1886 27.6429 85.6841 28.7823 81.8132C26.9604 80.2197 26.5049 77.0312 28.3268 75.4377C26.0494 73.8428 25.1399 69.0609 28.0998 68.3784C26.9604 66.3279 28.5553 63.3694 31.0598 64.7344Z" fill="#790500"/>
<path d="M32.0821 66.529C30.0331 66.1024 29.4345 74.2145 34.2178 71.9934C32.4248 73.7864 32.5954 76.7753 34.9004 78.0565C37.1214 79.2523 39.2557 77.5446 38.9144 75.2382C41.39 74.6396 41.1196 71.9283 40.1811 70.2221C39.6693 69.3675 37.9182 67.6381 36.5228 69.0898C36.9999 67.7031 36.8872 65.8045 34.7153 65.0266C33.6423 64.6419 32.004 65.5891 32.0821 66.529Z" fill="#913016"/>
<path d="M33.3083 86.595C32.0069 83.4688 36.3824 83.2649 37.1503 86.3391C38.9433 83.7768 43.2987 88.7307 40.5657 90.0972C44.6651 95.819 34.7586 97.7827 35.1794 92.3168C33.8129 92.2315 31.9418 91.1976 31.7712 89.234C31.6815 88.2058 32.0271 86.3391 33.3083 86.595Z" fill="#913016"/>
<path d="M127.392 45.5821C125.764 44.8562 124.495 48.2745 124.574 53.1794C124.65 58.0842 118.886 64.062 111.768 66.4623L71.7323 79.9564C64.6122 82.3568 57.9823 85.7867 57.0034 87.5768C56.023 89.367 61.1303 89.1298 68.3502 87.049L123.94 71.0302C131.161 68.9494 135.557 62.6695 133.711 57.0763C131.863 51.4818 129.02 46.3109 127.392 45.5821Z" fill="#FFE7AA"/>
<path d="M44.0499 86.0803C44.0499 86.0803 124.022 63.8322 139.593 61.3899C141.464 61.0963 139.593 68.4782 139.593 68.4782L48.2982 92.0089L42.5547 88.4966L44.0499 86.0803Z" fill="#ECD69D"/>
<path d="M149.395 95.9983C145.2 103.285 132.316 79.6035 137.553 69.5827C140.742 63.4358 145.068 65.4833 146.662 71.1777C150.306 72.5442 152.81 75.0486 151.672 78.9196C153.494 80.5131 153.949 83.7015 152.127 85.295C154.405 86.8899 155.316 91.6718 152.354 92.3544C153.494 94.4048 151.899 97.3662 149.395 95.9983Z" fill="#790500"/>
<path d="M148.367 94.2054C150.416 94.632 151.015 86.5199 146.233 88.741C148.026 86.9479 147.856 83.959 145.549 82.6779C143.33 81.482 141.194 83.1898 141.537 85.4961C139.06 86.0933 139.33 88.8046 140.27 90.5123C140.782 91.3669 142.533 93.0963 143.928 91.6445C143.451 93.0327 143.564 94.9298 145.736 95.7078C146.807 96.091 148.446 95.1453 148.367 94.2054Z" fill="#913016"/>
<path d="M147.145 74.1377C148.445 77.264 144.071 77.4678 143.302 74.3936C141.509 76.9545 137.153 72.002 139.886 70.6355C135.788 64.9137 145.693 62.95 145.273 68.4159C146.639 68.5012 148.512 69.5351 148.682 71.4988C148.772 72.5283 148.426 74.3951 147.145 74.1377Z" fill="#913016"/>
<path d="M42.3116 92.5236C43.3123 104.151 43.1358 119.944 56.2033 120.76C75.331 121.947 96.0537 115.07 112.45 110.515C120.42 108.239 128.618 105.73 136.361 102.544C140.005 101.178 145.925 99.5815 148.658 96.623C152.529 92.7521 150.457 85.713 147.974 80.8096C144.558 74.0611 145.696 61.037 121.558 68.4116C97.4201 75.7862 60.3013 83.6163 53.2419 86.115C46.184 88.6122 41.94 88.1899 42.3116 92.5236Z" fill="#ECD69D"/>
<path d="M41.8567 91.2743C46.0501 83.9865 58.9354 107.671 53.6979 117.691C50.5095 123.84 46.1831 121.791 44.5882 116.096C40.9442 114.731 38.4398 112.227 39.5792 108.354C37.7572 106.76 37.3018 103.57 39.1237 101.976C36.8463 100.38 35.9367 95.5993 38.8967 94.9168C37.7572 92.8678 39.3522 89.9079 41.8567 91.2743Z" fill="#790500"/>
<path d="M42.879 93.0674C40.83 92.6408 40.2313 100.753 45.0147 98.5318C43.2217 100.325 43.3923 103.314 45.6972 104.595C47.9183 105.791 50.0526 104.083 49.7113 101.777C52.1869 101.179 51.9165 98.4682 50.978 96.759C50.4661 95.9059 48.715 94.1765 47.3196 95.6282C47.7968 94.2401 47.684 92.3429 45.5136 91.5635C44.4392 91.1818 42.8009 92.1289 42.879 93.0674Z" fill="#913016"/>
<path d="M44.1041 113.136C42.8027 110.011 47.1783 109.806 47.9475 112.88C49.7406 110.319 54.0959 115.271 51.363 116.638C55.4624 122.359 45.5559 124.322 45.9766 118.858C44.6102 118.773 42.739 117.74 42.5684 115.775C42.4773 114.746 42.8229 112.88 44.1041 113.136Z" fill="#913016"/>
<path d="M138.189 72.1219C136.56 71.396 135.292 74.8143 135.37 79.7192C135.447 84.624 129.683 90.6018 122.565 93.0021L82.5292 106.498C75.4091 108.898 68.7792 112.329 67.8003 114.119C66.8199 115.907 71.9271 115.67 79.147 113.592L134.737 97.57C141.958 95.4892 146.354 89.2093 144.508 83.6147C142.66 78.0201 139.817 72.8492 138.189 72.1219Z" fill="#FFE7AA"/>
<path d="M54.7359 114.416C54.7359 114.416 134.708 92.1681 150.279 89.7243C152.15 89.4308 148.697 97.819 148.697 97.819L58.9857 120.348L53.2422 116.835L54.7359 114.416Z" fill="#ECD69D"/>
<path d="M160.074 123.255C155.881 130.542 142.995 106.859 148.233 96.8385C151.421 90.6916 155.748 92.7391 157.341 98.4349C160.985 99.8013 163.49 102.304 162.35 106.177C164.172 107.772 164.628 110.96 162.806 112.552C165.082 114.149 165.993 118.931 163.033 119.614C164.174 121.663 162.579 124.622 160.074 123.255Z" fill="#790500"/>
<path d="M159.048 121.463C161.097 121.891 161.695 113.778 156.912 115.998C158.705 114.205 158.534 111.216 156.229 109.936C154.008 108.741 151.874 110.448 152.215 112.753C149.74 113.352 150.01 116.063 150.948 117.771C151.46 118.625 153.211 120.353 154.607 118.902C154.13 120.29 154.242 122.187 156.413 122.966C157.487 123.35 159.126 122.402 159.048 121.463Z" fill="#913016"/>
<path d="M157.824 101.393C159.125 104.518 154.75 104.725 153.982 101.649C152.189 104.212 147.832 99.2576 150.566 97.8912C146.467 92.1693 156.373 90.2057 155.953 95.6701C157.319 95.7554 159.19 96.7893 159.361 98.7544C159.451 99.784 159.104 101.649 157.824 101.393Z" fill="#913016"/>
<path d="M52.9916 119.781C53.9923 131.406 53.8159 147.2 66.8819 148.012C86.0111 149.199 106.734 142.322 123.128 137.767C131.099 135.491 139.296 132.986 147.039 129.799C150.682 128.433 156.603 126.836 159.336 123.877C163.207 120.008 161.135 112.967 158.652 108.065C155.237 101.314 156.375 88.2896 132.237 95.6642C108.099 103.039 70.9799 110.87 63.9205 113.37C56.8626 115.871 52.6171 115.448 52.9916 119.781Z" fill="#ECD69D"/>
<path d="M52.5369 118.531C56.7318 111.243 69.6156 134.925 64.3782 144.947C61.1898 151.095 56.8634 149.045 55.2684 143.35C51.6245 141.985 49.12 139.481 50.2595 135.609C48.4375 134.017 47.982 130.827 49.804 129.235C47.5266 127.637 46.6156 122.859 49.577 122.175C48.439 120.126 50.0325 117.165 52.5369 118.531Z" fill="#790500"/>
<path d="M53.5588 120.324C51.5098 119.898 50.9112 128.009 55.6931 125.789C53.9 127.582 54.0707 130.571 56.377 131.851C58.5967 133.046 60.7324 131.339 60.3897 129.034C62.8667 128.435 62.5963 125.724 61.6578 124.016C61.146 123.163 59.3948 121.435 57.9995 122.887C58.4766 121.499 58.3638 119.602 56.192 118.824C55.119 118.439 53.4807 119.385 53.5588 120.324Z" fill="#913016"/>
<path d="M54.7844 140.392C53.4845 137.267 57.8586 137.061 58.6279 140.135C60.4209 137.574 64.7763 142.526 62.0434 143.893C66.1428 149.615 56.2362 151.578 56.657 146.112C55.2905 146.027 53.418 144.996 53.2473 143.031C53.1591 142 53.5047 140.135 54.7844 140.392Z" fill="#913016"/>
<path d="M148.876 99.3761C147.249 98.6488 145.98 102.069 146.058 106.976C146.136 111.881 140.372 117.857 133.252 120.259L93.2167 133.752C86.0966 136.151 79.4682 139.582 78.4878 141.374C77.5074 143.161 82.6146 142.924 89.8345 140.846L145.425 124.827C152.644 122.746 157.042 116.468 155.195 110.873C153.349 105.276 150.504 100.103 148.876 99.3761Z" fill="#FFE7AA"/>
<path d="M50.2656 50.0706C42.0133 55.8603 40.1682 64.1691 50.2656 69.9531C56.4806 73.5681 59.9755 75.3756 60.3645 82.6056C60.3645 89.4741 54.9261 96.704 57.646 103.574C59.977 109.721 67.7434 110.444 73.1819 113.336C80.1733 117.312 81.7263 123.096 83.2807 130.326C85.9992 142.617 92.2662 149.839 103.477 140.448C107.361 137.195 115.323 140.398 122.411 142.591C129.499 144.786 136.813 135.447 136.775 125.74C136.738 116.033 145.569 113.748 146.662 108.482C147.755 103.213 146.485 97.5717 139.159 92.2576C131.83 86.945 128.723 83.6365 128.723 76.0725C128.723 68.5085 134.894 60.4615 128.146 56.1047C121.397 51.7479 115.366 50.0243 113.249 44.6553C111.132 39.2849 106.031 33.4632 97.1811 40.3216C88.3316 47.18 83.3559 49.0381 73.0271 48.8328C62.694 48.6246 54.6629 46.9848 50.2656 50.0706Z" fill="white"/>
<path d="M54.9368 67.1855C50.4224 63.4331 47.6562 58.8117 51.6602 54.6154C55.6641 50.4192 67.6442 57.1951 75.2112 53.8071C82.7766 50.4191 94.1624 48.2617 97.2366 45.7254C100.311 43.1891 100.901 44.2086 100.695 44.7841C100.49 45.3581 89.5931 56.7179 80.2201 58.268C70.8471 59.8181 64.1897 59.0489 63.0474 63.2452C62.0352 66.9657 65.9944 72.6803 65.6184 78.4498C65.2439 84.2194 62.5326 77.1123 60.3636 73.707C58.1946 70.3002 54.9368 67.1855 54.9368 67.1855Z" fill="#F7F4EB"/>
<path d="M67.9776 55.587C64.5115 58.8709 61.0657 62.1721 57.8556 65.709C57.1818 66.4522 60.1923 66.0604 60.7071 65.495C63.9172 61.9566 67.3631 58.6568 70.8291 55.373C71.5218 54.7165 68.5343 55.0607 67.9776 55.587Z" fill="#FFF2C2"/>
<path d="M68.1152 64.5755C72.7149 65.8682 77.2076 67.4675 81.696 69.0972C82.4132 69.3574 85.2372 68.2078 84.2728 67.8579C79.7844 66.2297 75.2902 64.6305 70.6905 63.3377C69.9545 63.1295 67.1709 64.3094 68.1152 64.5755Z" fill="#FFF2C2"/>
<path d="M77.2618 60.197C81.4842 58.2565 85.8222 56.6124 90.1746 54.9914C92.2728 54.2106 90.286 53.7869 89.0771 54.238C84.4788 55.9501 79.9008 57.6969 75.4413 59.7473C73.5528 60.6149 76.5027 60.5455 77.2618 60.197Z" fill="#FFF2C2"/>
<path d="M122.726 62.8663C118.421 64.5798 114.021 66.0084 109.603 67.398C107.807 67.9634 108.052 68.9858 109.875 68.4117C114.567 66.9353 119.248 65.4402 123.822 63.6196C125.901 62.794 123.932 62.3862 122.726 62.8663Z" fill="#FFF2C2"/>
<path d="M114.933 59.7458C111.361 56.5733 108.026 53.1607 104.707 49.7293C104.133 49.135 101.234 50.2788 101.748 50.8109C105.068 54.2423 108.404 57.6534 111.975 60.8274C112.617 61.3986 115.442 60.1998 114.933 59.7458Z" fill="#FFF2C2"/>
<path d="M106.479 60.168C101.702 60.0581 96.953 59.6287 92.2 59.1659C91.5088 59.0994 88.5792 60.3242 90.1698 60.4789C94.9242 60.9416 99.6729 61.3711 104.45 61.481C105.13 61.4969 108.047 60.2056 106.479 60.168Z" fill="#FFF2C2"/>
<path d="M77.2869 103.454C74.1318 99.9343 71.2296 96.2123 68.3478 92.4671C67.7477 91.6863 64.9468 92.9732 65.2042 93.3087C68.1468 97.1334 71.1067 100.939 74.3284 104.535C74.8692 105.138 77.8003 104.025 77.2869 103.454Z" fill="#FFF2C2"/>
<path d="M76.7565 93.4854C78.5134 89.0418 80.5653 84.7356 82.6461 80.4381C82.8963 79.9219 79.9377 80.1677 79.543 80.9804C77.4622 85.2779 75.4103 89.5841 73.6534 94.0276C73.4206 94.6205 76.4341 94.3038 76.7565 93.4854Z" fill="#FFF2C2"/>
<path d="M73.5263 86.0196C71.9848 81.4966 70.7557 76.8882 69.557 72.2653C69.3676 71.5336 66.2211 72.3636 66.4148 73.1069C67.6136 77.7297 68.8427 82.3381 70.3827 86.8612C70.6444 87.6262 73.7562 86.692 73.5263 86.0196Z" fill="#FFF2C2"/>
<path d="M99.7684 95.8712C95.066 95.0282 90.4388 93.8728 85.8145 92.6857C85.0713 92.4948 82.3022 93.6849 83.2377 93.9249C87.8635 95.1121 92.4907 96.2689 97.1931 97.1104C97.945 97.2449 100.668 96.0317 99.7684 95.8712Z" fill="#FFF2C2"/>
<path d="M97.9733 86.8106C100.948 83.0727 104.172 79.5561 107.419 76.0553C108.097 75.3236 105.088 75.7082 104.567 76.2693C101.321 79.7701 98.0962 83.2882 95.1218 87.0261C94.474 87.8416 97.499 87.4064 97.9733 86.8106Z" fill="#FFF2C2"/>
<path d="M118.735 97.2665C123.293 95.835 127.93 94.7173 132.579 93.627C134.437 93.1917 134.145 92.1824 132.307 92.6133C127.657 93.7022 123.021 94.8214 118.463 96.2529C116.666 96.8169 116.912 97.8392 118.735 97.2665Z" fill="#FFF2C2"/>
<path d="M91.3212 136.492C95.879 135.061 100.515 133.941 105.165 132.853C107.023 132.417 106.731 131.408 104.892 131.839C100.243 132.928 95.6057 134.046 91.0479 135.479C89.2519 136.044 89.4978 137.066 91.3212 136.492Z" fill="#FFF2C2"/>
<path d="M120.55 86.8771C119.008 82.354 117.779 77.7456 116.58 73.1227C116.391 72.391 113.245 73.2211 113.438 73.9643C114.637 78.5872 115.866 83.1956 117.406 87.7186C117.668 88.485 120.78 87.5509 120.55 86.8771Z" fill="#FFF2C2"/>
<path d="M89.4677 116.595C90.383 111.906 91.6121 107.295 92.873 102.688C93.0639 101.989 89.9911 102.423 89.7699 103.23C88.509 107.837 87.2799 112.448 86.3646 117.138C86.2156 117.901 89.3144 117.38 89.4677 116.595Z" fill="#FFF2C2"/>
<path d="M106.283 104.051C108.489 99.8145 110.981 95.7454 113.5 91.6894C113.753 91.2816 110.885 91.445 110.396 92.2317C107.878 96.2891 105.388 100.357 103.179 104.594C102.926 105.079 105.863 104.858 106.283 104.051Z" fill="#FFF2C2"/>
<path d="M89.2892 83.022C90.3274 78.3572 91.6765 73.7821 93.0589 69.2113C93.2628 68.5374 90.2016 68.9423 89.9558 69.7535C88.5734 74.3258 87.2243 78.8995 86.186 83.5643C86.0212 84.3061 89.1127 83.8173 89.2892 83.022Z" fill="#FFF2C2"/>
<path d="M121.174 101.276C125.869 102.161 130.485 103.357 135.101 104.586C135.841 104.783 138.616 103.596 137.676 103.347C133.062 102.118 128.445 100.922 123.749 100.039C122.998 99.8954 120.269 101.106 121.174 101.276Z" fill="#FFF2C2"/>
<path d="M122.891 110.354C119.883 114.065 116.628 117.552 113.35 121.026C112.669 121.747 115.675 121.367 116.201 120.812C119.478 117.34 122.734 113.852 125.742 110.14C126.394 109.333 123.369 109.764 122.891 110.354Z" fill="#FFF2C2"/>
<path d="M131.542 114.221C130.462 118.876 129.074 123.439 127.651 127.997C127.443 128.662 130.499 128.269 130.754 127.455C132.177 122.897 133.566 118.332 134.645 113.679C134.814 112.944 131.727 113.423 131.542 114.221Z" fill="#FFF2C2"/>
<path d="M116.814 125.715C113.805 129.426 110.55 132.913 107.272 136.385C106.591 137.107 109.597 136.727 110.123 136.171C113.4 132.699 116.656 129.212 119.665 125.501C120.318 124.696 117.294 125.125 116.814 125.715Z" fill="#FFF2C2"/>
<path d="M110.495 122.248C108.669 117.832 107.149 113.311 105.654 108.777C105.404 108.015 102.286 108.934 102.512 109.618C104.004 114.154 105.525 118.676 107.351 123.089C107.677 123.876 110.747 122.858 110.495 122.248Z" fill="#FFF2C2"/>
<path d="M102.968 128.084C99.3846 124.923 96.0372 121.522 92.707 118.101C92.1301 117.508 89.2337 118.653 89.7485 119.182C93.0786 122.603 96.4261 126.006 100.009 129.165C100.654 129.734 103.477 128.532 102.968 128.084Z" fill="#FFF2C2"/>
</svg>
