<svg width="110" height="90" viewBox="0 0 110 90" fill="none" xmlns="http://www.w3.org/2000/svg">
<path d="M109.645 0.657149C109.62 0.498878 109.639 0.530013 109.645 0.657149V0.657149Z" fill="#357336"/>
<path d="M106.645 0C101.492 1.92866 97.5055 5.75313 94.5173 10.2608C94.084 10.8282 93.6983 11.4258 93.3869 12.0667C92.9606 12.7949 92.5549 13.5352 92.1761 14.2842C91.8994 14.8291 92.1 15.3437 92.4667 15.6239C92.4633 15.6767 92.452 15.7234 92.4503 15.777C92.3923 17.2101 94.1965 18.1156 95.2646 17.0726C99.0138 13.415 102.386 9.34927 105.971 5.53346C106.659 4.80005 108.213 3.65668 109.077 2.46835C108.358 1.57839 107.522 0.768006 106.645 0Z" fill="#357336"/>
<path d="M97.0957 12.0508C94.1032 9.95781 90.6965 8.90267 87.1842 8.63456C82.2545 8.24537 77.1171 9.42159 72.6466 11.4454C63.7981 15.4497 57.0694 22.3255 50.7213 29.4693C47.4961 33.0931 44.4259 36.8726 40.8098 40.1332C36.6074 43.9213 31.5998 46.7841 26.7816 49.7246C21.6789 52.8295 9.48416 60.9507 3.46465 69.3745C1.16409 72.6005 -0.229216 75.8697 0.0311109 78.914C0.27241 81.8538 2.05491 84.5876 6.03246 86.8795C13.4877 91.1788 24.1342 90.3139 32.1256 88.5574C40.29 86.7679 48.022 82.8838 55.0275 78.1884C57.0945 76.8124 59.101 75.3603 61.0288 73.8727C72.1433 65.3114 84.216 60.0694 97.7426 35.6973C101.55 28.8293 105.303 17.7935 97.0957 12.0508Z" fill="#689C28"/>
<path d="M34.1566 81.265C45.5867 77.546 56.6398 72.0844 66.5071 65.2242C77.2998 57.7214 87.7587 49.0572 95.4422 38.2964C96.7361 36.4836 97.9867 34.6406 99.2191 32.7846C102.332 26.0118 104.222 17.037 97.0967 12.051C94.1043 9.95802 90.6976 8.90288 87.1853 8.63477C88.1453 14.5505 87.1075 20.4922 84.5734 26.2954C79.8071 37.2101 69.8014 46.594 60.8837 54.2049C51.5275 62.1963 41.3047 69.6515 29.7673 74.2007C23.7651 76.5705 11.6137 80.1856 5.94876 75.0656C4.21036 73.4915 3.50117 71.5282 3.46657 69.3747C1.05012 72.7633 -0.365673 76.2011 0.0823302 79.3804C10.3492 85.8142 22.9374 84.9147 34.1566 81.265Z" fill="#527A1F"/>
<path d="M39.1485 82.069C44.3724 80.5468 49.7614 79.579 55.0276 78.1865C48.0213 82.8828 40.2902 86.7661 32.1258 88.5555C24.1344 90.312 13.4878 91.1769 6.0326 86.8776C2.05418 84.5857 0.272549 81.8527 0.03125 78.9122C2.01181 73.1002 6.85509 67.7467 11.24 64.2439C17.7957 59.0028 28.4336 51.2276 36.6067 49.619C31.8153 54.7053 24.0133 57.8958 18.4963 62.4891C16.4024 64.2448 2.78933 75.3584 7.6845 76.2665C10.4175 76.7681 15.2686 71.2157 17.3019 69.8578C20.6835 67.6005 24.0565 65.5854 27.4555 63.3799C35.1701 58.3896 43.2558 51.929 51.4116 47.9766C41.8729 61.9615 24.367 68.9151 12.5961 80.6947C19.0048 80.539 28.0254 77.2706 34.0622 75.073C44.7002 71.207 53.5045 62.9907 63.7446 59.0305C49.9664 72.436 31.139 80.0209 13.435 87.1898C22.6468 87.0342 30.3095 84.6471 39.1485 82.069Z" fill="#B9C732"/>
</svg>
