<svg width="92" height="139" viewBox="0 0 92 139" fill="none" xmlns="http://www.w3.org/2000/svg">
<path d="M44.1562 102.927C44.1562 109.879 54.1651 115.513 66.516 115.513C78.8612 115.513 88.8729 109.877 88.8729 102.927C88.8729 95.974 78.8612 90.3376 66.516 90.3376C54.1679 90.3404 44.1562 95.9768 44.1562 102.927Z" fill="#D82323"/>
<path d="M41.6797 95.8513C41.6797 103.574 52.7982 109.835 66.518 109.835C80.2349 109.835 91.3563 103.574 91.3563 95.8513C91.3563 88.1288 80.2349 81.8678 66.518 81.8678C52.7982 81.8678 41.6797 88.1288 41.6797 95.8513Z" fill="#ED2B2B"/>
<path d="M91.3591 19.327H41.6797V95.8513H91.3591V19.327Z" fill="#ED2B2B"/>
<path d="M41.6797 19.327C41.6797 27.0494 52.7982 33.3105 66.518 33.3105C80.2349 33.3105 91.3563 27.0494 91.3563 19.327C91.3563 11.6045 80.2349 5.3407 66.518 5.3407C52.7982 5.3407 41.6797 11.6018 41.6797 19.327Z" fill="#FF4343"/>
<path d="M46.1641 16.8225C46.1641 23.1645 55.2947 28.3044 66.5555 28.3044C77.819 28.3044 86.9469 23.1645 86.9469 16.8225C86.9469 10.4834 77.8162 5.3407 66.5555 5.3407C55.2947 5.3407 46.1641 10.4834 46.1641 16.8225Z" fill="#D82323"/>
<path d="M86.9107 11.479H46.125V16.8225H86.9107V11.479Z" fill="#D82323"/>
<path d="M46.1641 11.4791C46.1641 17.821 55.2947 22.9609 66.5555 22.9609C77.819 22.9609 86.9469 17.821 86.9469 11.4791C86.9469 5.13992 77.8162 1.13439e-06 66.5555 1.13439e-06C55.2947 -0.00278775 46.1641 5.13713 46.1641 11.4791Z" fill="#ED2B2B"/>
<path d="M66.5515 3.04542C75.6738 3.04542 83.0927 6.94707 84.0462 11.9392C84.1131 11.585 84.2358 11.2392 84.2358 10.8766C84.2358 5.37693 76.3178 0.920288 66.5515 0.920288C56.7823 0.920288 48.8672 5.37972 48.8672 10.8766C48.8672 11.2392 48.9899 11.585 49.0568 11.9392C50.0131 6.94707 57.4319 3.04542 66.5515 3.04542Z" fill="#D82323"/>
<path d="M66.5494 20.8329C75.6717 20.8329 83.0906 16.9313 84.0441 11.9392C83.0878 6.94705 75.6689 3.04541 66.5494 3.04541C57.4298 3.04541 50.0082 6.94705 49.0547 11.9392C50.011 16.9313 57.4298 20.8329 66.5494 20.8329Z" fill="#FF4343"/>
<path d="M68.4844 13.6265C68.4844 15.0627 70.5503 16.2257 73.1013 16.2257C75.6523 16.2257 77.7182 15.0627 77.7182 13.6265C77.7182 12.1902 75.6496 11.0272 73.1013 11.0272C70.5531 11.0272 68.4844 12.1902 68.4844 13.6265Z" fill="#263133"/>
<path d="M41.6797 47.531C41.6797 47.531 43.5867 58.5137 52.7871 60.0001C61.9875 61.4866 66.2392 64.5544 73.1005 75.141C79.7833 85.4543 86.9484 90.3404 86.9484 90.3404C86.9484 90.3404 74.9461 86.422 66.557 76.9231C59.3779 68.7935 54.1532 70.5868 48.8727 68.4114C43.5895 66.2361 41.6825 62.0806 41.6825 62.0806V47.531H41.6797Z" fill="white"/>
<path d="M44.1562 45.0544C44.1562 45.0544 46.1218 51.9821 58.7208 55.3455C70.6841 58.5415 71.7797 60.2929 75.9339 69.7947C78.2451 75.0824 85.4298 81.865 85.4298 81.865C85.4298 81.865 83.3499 63.7874 76.129 56.3355C69.9954 50.0019 66.1173 51.5526 58.9159 50.398C51.5946 49.2238 44.1562 45.0544 44.1562 45.0544Z" fill="white"/>
<path d="M2.47656 126.317C2.47656 133.27 12.4855 138.906 24.8363 138.906C37.1816 138.906 47.1933 133.27 47.1933 126.317C47.1933 119.364 37.1816 113.728 24.8363 113.728C12.4883 113.728 2.47656 119.364 2.47656 126.317Z" fill="#71AA21"/>
<path d="M0 119.239C0 126.961 11.1185 133.222 24.8383 133.222C38.5552 133.222 49.6766 126.961 49.6766 119.239C49.6766 111.516 38.5552 105.255 24.8383 105.255C11.1185 105.255 0 111.516 0 119.239Z" fill="#5E8E11"/>
<path d="M49.6766 42.7146H0V119.239H49.6766V42.7146Z" fill="#5E8E11"/>
<path d="M0 42.7145C0 50.437 11.1185 56.698 24.8383 56.698C38.5552 56.698 49.6766 50.437 49.6766 42.7145C49.6766 34.9893 38.5552 28.7283 24.8383 28.7283C11.1185 28.7283 0 34.9921 0 42.7145Z" fill="#71AA21"/>
<path d="M4.47656 40.2129C4.47656 46.5549 13.6073 51.6948 24.8708 51.6948C36.1343 51.6948 45.2622 46.5549 45.2622 40.2129C45.2622 33.8738 36.1315 28.7311 24.8708 28.7311C13.6101 28.7311 4.47656 33.871 4.47656 40.2129Z" fill="#5E8E11"/>
<path d="M45.231 34.8666H4.44531V40.2101H45.231V34.8666Z" fill="#5E8E11"/>
<path d="M4.47656 34.8666C4.47656 41.2086 13.6073 46.3485 24.8708 46.3485C36.1343 46.3485 45.2622 41.2086 45.2622 34.8666C45.2622 28.5275 36.1315 23.3876 24.8708 23.3876C13.6101 23.3876 4.47656 28.5275 4.47656 34.8666Z" fill="#B7E21A"/>
<path d="M24.8746 26.433C33.9941 26.433 41.4157 30.3346 42.3692 35.3268C42.4361 34.9726 42.5588 34.6267 42.5588 34.2642C42.5588 28.7645 34.6409 24.3079 24.8746 24.3079C15.1054 24.3079 7.1875 28.7673 7.1875 34.2642C7.1875 34.6267 7.31017 34.9726 7.37987 35.3268C8.33616 30.3374 15.755 26.433 24.8746 26.433Z" fill="#5E8E11"/>
<path d="M24.8775 44.2233C33.997 44.2233 41.4187 40.3217 42.3722 35.3296C41.4187 30.3375 33.997 26.4358 24.8775 26.4358C15.7579 26.4358 8.33631 30.3375 7.38281 35.3296C8.3391 40.3217 15.7579 44.2233 24.8775 44.2233Z" fill="#71AA21"/>
<path d="M26.8047 37.0141C26.8047 38.4503 28.8706 39.6133 31.4216 39.6133C33.9727 39.6133 36.0385 38.4503 36.0385 37.0141C36.0385 35.5778 33.9699 34.4148 31.4216 34.4148C28.8706 34.4148 26.8047 35.5778 26.8047 37.0141Z" fill="#263133"/>
<path d="M0 70.9186C0 70.9186 1.90697 81.904 11.1074 83.3877C20.3078 84.8742 24.5595 87.9392 31.4208 98.5286C38.1036 108.842 45.2688 113.728 45.2688 113.728C45.2688 113.728 33.2664 109.81 24.8773 100.311C17.6982 92.1811 12.4735 93.9743 7.19024 91.799C1.90698 89.6237 0 85.4682 0 85.4682V70.9186Z" fill="white"/>
<path d="M2.47656 68.4448C2.47656 68.4448 4.44212 75.3724 17.0383 78.7358C29.0016 81.9319 30.0973 83.6833 34.2514 93.1851C36.5627 98.47 43.7474 105.255 43.7474 105.255C43.7474 105.255 41.6647 87.1778 34.4466 79.7259C28.313 73.3923 24.4348 74.9429 17.2334 73.7883C9.91216 72.6142 2.47656 68.4448 2.47656 68.4448Z" fill="white"/>
</svg>
