<svg width="225" height="231" viewBox="0 0 225 231" fill="none" xmlns="http://www.w3.org/2000/svg">
<path opacity="0.5" d="M104.648 215.001C162.443 215.001 209.295 168.149 209.295 110.354C209.295 52.5584 162.443 5.70605 104.648 5.70605C46.8524 5.70605 0 52.5584 0 110.354C0 168.149 46.8524 215.001 104.648 215.001Z" fill="#A6A6A6"/>
<path d="M192.267 179.936C152.305 219.897 87.5125 219.897 47.5483 179.934C7.58807 139.972 7.58807 75.1803 47.5483 35.2187C87.5125 -4.74412 152.305 -4.74544 192.267 35.2187C232.231 75.1789 232.231 139.972 192.267 179.936Z" fill="#D9D9D9"/>
<path d="M168.033 159.1C140.45 186.678 95.7352 186.678 68.1544 159.098C40.5735 131.519 40.5735 86.8035 68.1544 59.2227C95.7352 31.6432 140.45 31.6432 168.033 59.2227C195.612 86.8035 195.612 131.52 168.033 159.1Z" fill="#EDF0E8"/>
<mask id="mask0_679_176980" style="mask-type:luminance" maskUnits="userSpaceOnUse" x="15" y="6" width="206" height="206">
<path d="M190.454 181.521C150.493 221.482 85.6995 221.482 45.7379 181.519C5.77508 141.556 5.77507 76.7651 45.7366 36.8022C85.7008 -3.16063 150.495 -3.16063 190.454 36.8022C230.418 76.7651 230.418 141.558 190.454 181.521Z" fill="white"/>
</mask>
<g mask="url(#mask0_679_176980)">
<path opacity="0.6" d="M41.6953 35.7997C41.6953 35.7997 80.3774 12.803 122.137 11.705C156.562 10.799 184.788 34.3822 197.779 55.6418C227.676 104.561 204.574 152.122 204.574 152.122C204.574 152.122 224.05 83.7249 147.503 37.9774C122.981 23.3204 87.4415 9.07631 41.6953 35.7997Z" fill="white"/>
</g>
<mask id="mask1_679_176980" style="mask-type:luminance" maskUnits="userSpaceOnUse" x="15" y="6" width="206" height="206">
<path d="M190.454 181.521C150.493 221.482 85.6995 221.482 45.7379 181.519C5.77508 141.556 5.77507 76.7651 45.7366 36.8022C85.7008 -3.16063 150.495 -3.16063 190.454 36.8022C230.418 76.7651 230.418 141.558 190.454 181.521Z" fill="white"/>
</mask>
<g mask="url(#mask1_679_176980)">
<path opacity="0.3" d="M29.2344 38.4943C29.2344 38.4943 79.8789 0.939227 131.331 4.7501C173.745 7.89163 202.119 39.7252 212.441 66.8931C236.186 129.411 195.364 183.778 195.364 183.778C195.364 183.778 237.233 103.902 155.495 39.4674C129.305 18.8259 92.3202 11.9721 29.2344 38.4943Z" fill="white"/>
</g>
<mask id="mask2_679_176980" style="mask-type:luminance" maskUnits="userSpaceOnUse" x="15" y="6" width="206" height="206">
<path d="M190.454 181.521C150.493 221.482 85.6995 221.482 45.7379 181.519C5.77508 141.556 5.77507 76.7651 45.7366 36.8022C85.7008 -3.16063 150.495 -3.16063 190.454 36.8022C230.418 76.7651 230.418 141.558 190.454 181.521Z" fill="white"/>
</mask>
<g mask="url(#mask2_679_176980)">
<path opacity="0.3" d="M6.28125 61.4471C6.28125 61.4471 81.2375 -9.88512 132.69 -6.07425C175.104 -2.93403 217.998 43.0568 228.316 70.226C252.065 132.741 172.406 206.728 172.406 206.728C172.406 206.728 214.279 126.853 132.538 62.4175C106.351 41.7773 69.3671 34.9261 6.28125 61.4471Z" fill="white"/>
</g>
<path d="M71.5477 144.053C51.0679 112.726 52.759 94.5131 60.5412 68.2236C40.8741 95.8058 43.4107 134.348 68.1577 159.097C83.7983 174.736 104.947 181.504 125.362 179.406C135.087 176.63 145.455 173.059 154.301 169.81C156.507 168.491 158.657 167.041 160.735 165.46C138.172 172.239 90.9243 173.685 71.5477 144.053Z" fill="#E5E8E0"/>
<path d="M190.462 29.1655C146.264 -11.2642 75.5011 -4.54455 37.9355 41.203C2.58307 84.2574 8.68072 148.784 49.351 185.986C90.4645 223.592 155.236 220.731 194.495 182.164C236.502 139.402 234.72 69.6491 190.462 29.1655ZM106.108 205.821C75.1645 201.64 48.0781 182.3 32.8964 155.232C18.0028 128.675 17.0112 95.6322 28.9883 67.8317C41.3572 39.1227 67.4007 18.1747 97.5958 10.9238C140.566 0.603676 185.532 21.7962 206.917 59.9207C228.345 98.1267 220.375 146.824 190.036 177.708C167.848 199.504 136.996 209.995 106.108 205.821Z" fill="white"/>
<path opacity="0.5" d="M215.777 100.317C216.226 94.5136 214.796 88.6276 211.63 83.6806C209.636 80.5601 206.996 77.8591 203.917 75.8011C201.782 74.3757 198.983 72.7148 196.216 72.2322C194.633 68.5436 192.278 65.1877 189.268 62.4578C187.079 60.4708 184.577 58.8363 181.881 57.6226C181.577 57.2978 181.262 56.9729 180.937 56.6481C179.775 53.2909 177.988 50.1534 175.667 47.4602C173.218 44.6198 169.594 40.9405 165.628 40.8642C164.223 40.8379 163.203 41.0207 161.755 40.7274C160.222 40.4184 159.2 39.8464 157.978 38.847C157.428 38.3973 153.569 37.6556 152.555 37.7253C151.202 37.8186 149.856 37.9935 148.526 38.2723C145.961 38.8102 143.471 39.7044 141.153 40.9247C136.441 43.4035 132.498 47.2196 129.848 51.8366C128.311 54.5139 127.271 57.3385 126.683 60.2065C122.08 72.8503 127.084 87.3455 139.152 94.2716C140.981 95.321 142.877 96.1363 144.81 96.7385C148.025 105.799 155.732 112.704 165.222 114.821C168.659 121.23 174.668 126.235 182.269 128.18C196.672 131.864 211.333 123.175 215.015 108.775C215.723 105.999 215.969 103.14 215.777 100.317Z" fill="#AE9696"/>
<path d="M215.318 99.0363C211.633 113.437 196.973 122.125 182.573 118.442C168.172 114.758 159.483 100.099 163.166 85.6969C164.427 80.7736 167.078 76.2579 170.781 72.7744C172.605 71.061 174.666 69.6013 176.887 68.4534C178.039 67.8563 179.23 67.354 180.453 66.9227C181.37 66.5992 185.108 66.2968 185.729 66.5703C187.108 67.1778 188.194 67.4421 189.682 67.3369C191.089 67.237 191.982 66.8083 193.281 66.4743C196.947 65.5314 201.221 67.9918 204.198 69.9801C207.278 72.038 209.917 74.7391 211.913 77.8595C215.907 84.1071 217.156 91.8538 215.318 99.0363Z" fill="#D20008"/>
<path d="M215.341 95.1199C211.658 109.521 196.997 118.209 182.598 114.525C168.196 110.842 159.506 96.1825 163.19 81.7806C164.448 76.8572 167.104 72.3415 170.805 68.8594C172.629 67.1446 174.689 65.6863 176.913 64.5383C178.063 63.9426 179.257 63.439 180.48 63.0076C181.396 62.6842 185.133 62.3817 185.756 62.6565C187.134 63.2641 188.219 63.5284 189.709 63.4219C191.116 63.3219 192.008 62.8932 193.304 62.5592C196.975 61.6164 201.246 64.0767 204.223 66.065C207.303 68.123 209.943 70.8227 211.938 73.9445C215.93 80.1894 217.178 87.9361 215.341 95.1199Z" fill="#ED0011"/>
<path d="M194.091 75.0836C193.604 76.8154 194.598 78.4868 194.014 80.2239C193.762 80.98 193.231 81.5363 193.008 82.4042C192.752 83.397 192.857 84.3661 193 85.3314C193.131 86.2058 193.44 87.2394 193.227 88.0981C192.894 89.4197 192.394 89.0699 191.586 89.8852C190.345 91.1397 191.518 93.5803 191.337 95.2136C191.17 96.7521 190.664 100.187 188.994 100.76C184.018 102.461 188.007 93.0425 186.625 91.6197C185.384 90.3415 182.189 93.3805 182.191 89.9325C182.191 88.8371 182.687 88.0021 182.515 86.8291C182.324 85.5431 182.352 84.9671 182.582 83.6587C182.937 81.648 182.302 79.9175 182.845 77.8437C183.354 75.9041 182.647 73.9605 180.988 72.6455C177.424 69.8209 173.04 73.9001 171.157 76.8154C169.117 79.9754 167.538 83.7271 167.579 87.6668C167.614 91.2107 168.21 95.5384 170.239 98.5879C171.227 100.073 172.613 101.311 173.566 102.876C174.479 104.375 175.37 105.972 176.559 107.177C177.962 108.598 179.97 109.068 181.803 109.694C183.767 110.364 185.324 110.713 187.389 110.859C189.408 111.003 190.97 110.544 192.957 110.144C194.924 109.751 196.686 110.132 198.623 109.1C200.358 108.176 202.073 106.529 203.588 105.264C205.393 103.756 206.104 102.487 207.193 100.481C208.085 98.839 209.212 97.4307 209.7 95.4976C210.19 93.5646 210.67 91.3527 210.72 89.3789C210.748 88.3138 210.541 87.3788 210.28 86.3321C209.99 85.1644 209.993 84.2609 209.876 83.0419C209.684 81.0444 208.535 79.1614 207.799 77.3138C207.089 75.5293 206.954 73.9461 206.549 72.1406C206.122 70.2286 204.671 69.746 202.931 69.2542C201.531 68.8583 199.499 68.6019 198.324 69.6395C197.633 70.2509 197.16 71.1372 196.404 71.8C195.383 72.6995 194.468 73.7449 194.091 75.0836Z" fill="#DB0011"/>
<path opacity="0.3" d="M213.183 84.8612C213.045 83.2213 212.748 81.5894 212.363 80.0575C211.563 76.8936 210.136 74.2964 207.877 71.9321C206.98 70.9932 206.077 70.0556 205.093 69.2061C199.568 64.4313 194.351 67.4611 192.599 73.7625C192.323 74.7527 191.184 85.1044 190.364 85.036C181.444 84.2918 191.764 65.4715 178.146 68.4473C172.104 69.7689 168.564 77.3735 166.666 82.5783C164.552 88.3722 166.347 95.2365 169.504 100.591C172.853 106.268 178.09 110.105 184.298 111.692C190.864 113.373 197.925 110.815 203.089 106.736C205.294 104.994 207.725 103.355 209.037 100.836C210.813 97.4233 212.357 93.7808 213.019 89.9752C213.301 88.338 213.33 86.597 213.183 84.8612Z" fill="#FFCD93"/>
<path d="M196.531 81.8344C198.756 82.1829 203.506 80.7193 204.104 78.1471C204.377 76.9834 202.81 75.0096 201.501 75.0595C199.75 75.1266 198.591 77.917 197.527 78.902L196.531 81.8344Z" fill="#F6654D"/>
<path d="M198.963 89.5655C200.356 90.5189 207.581 94.9294 206.607 90.1112C205.669 85.4785 201.531 88.7463 198.797 88.2978L198.963 89.5655Z" fill="#F6654D"/>
<path d="M199.055 94.9802C200.575 95.5378 203.196 101.579 205.309 99.275C207.017 97.413 201.879 94.4069 200.092 94.7554L199.055 94.9802Z" fill="#F6654D"/>
<path d="M197.93 99.3516C198.26 100.227 200.648 104.847 201.785 104.473C204.363 103.628 199.242 100.148 198.792 99.8171L197.93 99.3516Z" fill="#F6654D"/>
<path d="M180.648 79.7318C179.296 79.6003 172.914 75.7211 175.569 74.4389C177.734 73.3935 180.393 77.7094 181.056 79.1006L180.648 79.7318Z" fill="#F6654D"/>
<path d="M179.69 85.3716C178.39 85.0153 169.737 86.496 169.727 84.246C169.716 81.5082 177.544 84.8233 178.54 85.0771L179.69 85.3716Z" fill="#F6654D"/>
<path d="M179.555 89.7484C178.149 90.8162 176.839 91.9379 175.332 92.8413C174.319 93.4488 171.508 94.4272 170.427 93.8105C168.673 92.8098 169.698 90.7794 171.107 90.2179C172.767 89.5551 174.718 89.9404 176.446 89.4434L179.555 89.7484Z" fill="#F6654D"/>
<path d="M180.627 94.1885C179.614 96.2083 176.951 99.6207 174.424 99.2749C170.401 98.7239 175.782 94.8815 177.801 94.6921L180.627 94.1885Z" fill="#F6654D"/>
<path d="M183.415 99.5605C182.543 101.123 179.99 105.114 177.918 104.778C176.83 104.604 175.94 103.001 176.424 101.928C176.925 100.815 179.266 100.419 180.188 99.7157L183.415 99.5605Z" fill="#F6654D"/>
<path d="M185.472 103.028C185.059 104.677 185.026 109.35 182.094 107.764C182.099 106.514 183.311 105.448 183.681 104.285L185.472 103.028Z" fill="#F6654D"/>
<path d="M189.896 104.894C190.084 105.77 190.348 109.084 189.054 109.402C186.523 110.025 189.139 105.411 189.206 104.718L189.896 104.894Z" fill="#F6654D"/>
<path d="M194.8 103.942C195.322 104.869 198.307 107.336 196.401 108.272C193.8 109.549 194.19 104.935 194.109 103.765L194.8 103.942Z" fill="#F6654D"/>
<path opacity="0.3" d="M202.451 77.1503C202.097 76.3008 200.518 76.7519 199.985 77.1372C199.243 77.6711 198.68 78.7717 198.281 79.5686C199.062 79.4503 202.997 78.468 202.451 77.1503Z" fill="#FFCD93"/>
<path opacity="0.3" d="M199.711 89.5122C200.859 89.7318 205.173 92.4736 205.987 90.8851C207.206 88.5115 201.657 89.1033 200.748 89.2874L199.711 89.5122Z" fill="#FFCD93"/>
<path opacity="0.3" d="M200.828 95.6816C201.039 96.7165 203.287 99.0047 204.369 98.9902C204.13 98.1328 202.364 96.2563 201.459 96.0893L200.828 95.6816Z" fill="#FFCD93"/>
<path opacity="0.3" d="M179.383 77.9406C178.8 77.2279 177.308 73.8628 175.951 74.7846C174.542 75.7433 177.905 77.6829 178.574 78.2247L179.383 77.9406Z" fill="#FFCD93"/>
<path opacity="0.3" d="M176.784 90.0215C175.812 90.0978 170.574 90.4396 170.586 92.1189C170.603 94.1414 175.444 90.8368 176.147 90.5935L176.784 90.0215Z" fill="#FFCD93"/>
<path opacity="0.3" d="M178.368 95.3291C176.945 95.408 174.831 96.6783 174.305 97.9236C175.607 98.706 177.132 96.4561 178.021 95.7302L178.368 95.3291Z" fill="#FFCD93"/>
<path opacity="0.3" d="M181.565 100.069C180.416 100.332 175.585 101.442 176.839 103.455C177.971 105.27 180.854 101.221 181.737 100.359L181.565 100.069Z" fill="#FFCD93"/>
<path opacity="0.5" d="M206.324 77.5376C206.551 93.1072 194.113 105.914 178.543 106.14C162.971 106.366 150.167 93.9278 149.941 78.3595C149.86 73.0364 151.307 67.7422 154.095 63.2067C155.466 60.9739 157.15 58.9343 159.081 57.1617C160.083 56.2438 161.151 55.4075 162.269 54.6356C163.106 54.0583 166.802 52.7275 167.505 52.8327C169.065 53.0694 170.235 53.0378 171.711 52.5237C173.108 52.0358 173.889 51.3586 175.112 50.6643C178.562 48.7049 183.557 50.0199 187.112 51.2126C190.79 52.4487 192.506 60.0797 195.381 62.686C201.134 67.9065 206.211 69.7712 206.324 77.5376Z" fill="#AE9696"/>
<path d="M199.878 77.1612C200.107 92.7308 187.667 105.536 172.099 105.764C156.527 105.99 143.721 93.5513 143.495 77.9817C143.418 72.6586 144.861 67.3657 147.651 62.829C149.022 60.5961 150.707 58.5565 152.638 56.7852C153.64 55.8674 154.706 55.0297 155.823 54.2591C156.662 53.6805 160.356 52.3497 161.06 52.4563C162.622 52.6943 163.79 52.6627 165.266 52.1472C166.664 51.6594 167.447 50.9821 168.667 50.2878C172.116 48.3272 177.112 49.6435 180.666 50.8375C184.347 52.0736 187.755 54.079 190.629 56.6866C196.38 61.9045 199.768 69.3935 199.878 77.1612Z" fill="#D20008"/>
<path d="M198.825 73.1958C199.053 88.7654 186.614 101.572 171.044 101.798C155.472 102.025 142.669 89.5873 142.44 74.0164C142.363 68.6932 143.807 63.4004 146.593 58.8636C147.967 56.6308 149.651 54.5912 151.584 52.8199C152.584 51.902 153.652 51.0657 154.769 50.2938C155.608 49.7165 159.304 48.3857 160.006 48.4922C161.566 48.7289 162.736 48.6974 164.212 48.1819C165.608 47.694 166.391 47.0168 167.614 46.3225C171.061 44.3631 176.057 45.6781 179.612 46.8708C183.29 48.1069 186.699 50.1136 189.573 52.7199C195.327 57.9405 198.711 65.4294 198.825 73.1958Z" fill="#ED0011"/>
<path d="M171.848 58.7676C171.83 60.652 173.295 62.0695 173.182 63.9855C173.132 64.8192 172.75 65.5267 172.764 66.4669C172.779 67.5399 173.149 68.492 173.559 69.427C173.931 70.2751 174.527 71.2351 174.544 72.1622C174.572 73.5889 173.97 73.372 173.376 74.4187C172.465 76.0269 174.322 78.173 174.589 79.8746C174.84 81.4763 175.273 85.0886 173.739 86.1248C169.175 89.2098 170.625 78.5938 168.837 77.5339C167.231 76.5819 164.834 80.5308 163.891 77.0448C163.592 75.9375 163.862 74.9592 163.368 73.8191C162.824 72.5698 162.692 71.9807 162.567 70.596C162.373 68.4657 161.257 66.8903 161.236 64.6443C161.218 62.5443 159.97 60.7729 157.933 59.8985C153.554 58.0193 150.242 63.3464 149.138 66.8114C147.942 70.5658 147.374 74.7908 148.497 78.7621C149.507 82.335 151.294 86.547 154.183 89.0744C155.588 90.3052 157.328 91.1771 158.723 92.4973C160.058 93.7624 161.395 95.1313 162.929 96.0242C164.737 97.0762 166.896 97.0012 168.923 97.1314C171.09 97.2708 172.76 97.1958 174.89 96.7763C176.969 96.3674 178.423 95.4745 180.324 94.5277C182.204 93.5901 184.091 93.4915 185.766 91.9174C187.265 90.5077 188.549 88.3708 189.732 86.6771C191.143 84.6573 191.514 83.1779 192.067 80.853C192.516 78.9489 193.27 77.2157 193.234 75.1275C193.2 73.0393 193.079 70.6723 192.589 68.6616C192.322 67.5781 191.859 66.6891 191.306 65.7003C190.695 64.6009 190.449 63.687 189.997 62.4864C189.255 60.5205 187.574 58.9306 186.324 57.2645C185.118 55.655 184.546 54.0927 183.643 52.378C182.687 50.562 181.088 50.4726 179.191 50.4528C177.67 50.4357 175.542 50.7342 174.64 52.1045C174.108 52.9132 173.872 53.9389 173.29 54.8173C172.502 56.0034 171.862 57.3106 171.848 58.7676Z" fill="#DB0011"/>
<path opacity="0.3" d="M193.834 63.4157C193.244 61.7969 192.497 60.2268 191.684 58.7842C190.012 55.8058 187.855 53.5716 184.921 51.799C183.758 51.0954 182.589 50.3958 181.362 49.8067C174.463 46.4956 170.02 50.9889 169.978 57.8414C169.971 58.917 171.66 69.6961 170.813 69.85C161.588 71.5437 166.86 49.6857 153.91 56.4317C148.162 59.4259 146.669 68.0852 146.179 73.8673C145.632 80.3042 149.327 86.753 153.989 91.2989C158.933 96.1197 165.279 98.563 171.991 98.4657C179.089 98.3618 185.528 93.8395 189.629 88.2994C191.381 85.9337 193.39 83.6088 194.025 80.7026C194.885 76.7655 195.448 72.6588 195.071 68.6296C194.909 66.8978 194.46 65.1278 193.834 63.4157Z" fill="#FFCD93"/>
<path d="M176.164 64.9257C178.509 64.6666 182.909 61.8841 182.809 59.12C182.765 57.8681 180.64 56.3019 179.329 56.7122C177.578 57.2592 177.171 60.4008 176.365 61.6869L176.164 64.9257Z" fill="#F6654D"/>
<path d="M180.743 72.0732C182.413 72.6544 190.927 75.1318 188.619 70.5293C186.4 66.103 183.112 70.5425 180.227 70.837L180.743 72.0732Z" fill="#F6654D"/>
<path d="M182.312 77.5232C184.004 77.6704 188.31 83.0593 189.813 80.1505C191.028 77.7993 185.011 76.17 183.3 77.0116L182.312 77.5232Z" fill="#F6654D"/>
<path d="M182.383 82.249C182.956 83.0446 186.637 87.0593 187.684 86.3702C190.056 84.808 183.927 82.6948 183.38 82.4831L182.383 82.249Z" fill="#F6654D"/>
<path d="M159.523 67.1575C158.122 67.3955 150.605 65.2244 152.938 63.1993C154.838 61.5503 158.711 65.1824 159.761 66.4066L159.523 67.1575Z" fill="#F6654D"/>
<path d="M160.109 73.1199C158.694 73.1173 150.355 76.9874 149.726 74.715C148.965 71.9496 157.787 73.1541 158.865 73.1384L160.109 73.1199Z" fill="#F6654D"/>
<path d="M161.172 77.583C160.046 79.0466 159.027 80.5404 157.751 81.8673C156.894 82.7602 154.321 84.5209 153.06 84.1948C151.009 83.6649 151.491 81.3294 152.76 80.3761C154.256 79.2517 156.334 79.1045 157.943 78.1287L161.172 77.583Z" fill="#F6654D"/>
<path d="M163.468 81.7783C162.998 84.098 161.242 88.2784 158.59 88.6229C154.373 89.1699 158.761 83.8074 160.75 83.0618L163.468 81.7783Z" fill="#F6654D"/>
<path d="M167.763 86.4434C167.311 88.2594 165.826 92.996 163.638 93.2261C162.491 93.3471 161.151 91.9703 161.347 90.7526C161.547 89.4902 163.806 88.4474 164.545 87.4848L167.763 86.4434Z" fill="#F6654D"/>
<path d="M170.791 89.3848C170.825 91.1653 172.076 95.898 168.675 95.0998C168.336 93.836 169.272 92.4237 169.325 91.1469L170.791 89.3848Z" fill="#F6654D"/>
<path d="M175.783 90.0596C176.212 90.892 177.388 94.1716 176.168 94.8475C173.78 96.1704 175.158 90.7894 175.036 90.0714L175.783 90.0596Z" fill="#F6654D"/>
<path d="M180.473 87.75C181.255 88.5443 184.95 90.2196 183.28 91.6897C181.001 93.6938 180.128 88.923 179.727 87.7618L180.473 87.75Z" fill="#F6654D"/>
<path opacity="0.3" d="M180.872 58.5636C180.282 57.8009 178.81 58.6911 178.376 59.2263C177.773 59.9693 177.504 61.237 177.32 62.1522C178.075 61.8182 181.783 59.7458 180.872 58.5636Z" fill="#FFCD93"/>
<path opacity="0.3" d="M181.484 71.8139C182.707 71.7206 187.819 73.3104 188.208 71.4812C188.787 68.7473 183.341 70.8671 182.473 71.3024L181.484 71.8139Z" fill="#FFCD93"/>
<path opacity="0.3" d="M184.305 77.7432C184.8 78.732 187.703 80.4284 188.793 80.1167C188.314 79.3159 186.016 77.9036 185.054 77.9812L184.305 77.7432Z" fill="#FFCD93"/>
<path opacity="0.3" d="M157.76 65.6891C156.975 65.1276 154.542 62.136 153.424 63.4405C152.262 64.7962 156.194 65.8338 157.019 66.198L157.76 65.6891Z" fill="#FFCD93"/>
<path opacity="0.3" d="M158.447 78.6172C157.485 78.9604 152.282 80.7435 152.757 82.4373C153.326 84.4768 157.316 79.8099 157.959 79.3707L158.447 78.6172Z" fill="#FFCD93"/>
<path opacity="0.3" d="M161.505 83.5488C160.087 84.0183 158.299 85.883 158.109 87.2874C159.64 87.7213 160.564 85.0282 161.263 84.0498L161.505 83.5488Z" fill="#FFCD93"/>
<path opacity="0.3" d="M166.038 87.4629C164.948 88.0441 160.368 90.4913 162.189 92.1824C163.831 93.7078 165.635 88.8226 166.289 87.7075L166.038 87.4629Z" fill="#FFCD93"/>
<path opacity="0.5" d="M188.089 61.4197C188.316 76.9893 175.877 89.7961 160.307 90.0223C144.738 90.2485 131.932 77.8099 131.706 62.2403C131.627 56.9158 133.071 51.623 135.859 47.0875C137.233 44.8547 138.916 42.8138 140.848 41.0438C141.85 40.1259 142.917 39.2896 144.034 38.5177C144.872 37.9391 148.567 36.6083 149.271 36.7148C150.832 36.9515 151.999 36.9199 153.477 36.4058C154.873 35.9179 155.656 35.2394 156.877 34.5451C160.327 32.5857 165.322 33.9007 168.877 35.0947C172.555 36.3308 175.439 41.533 178.311 44.1406C184.066 49.3598 187.976 53.6533 188.089 61.4197Z" fill="#AE9696"/>
<path d="M177.945 74.1126C170.193 87.6189 152.963 92.2845 139.457 84.5339C125.949 76.7833 121.285 59.5516 129.034 46.0452C131.684 41.4282 135.626 37.6121 140.34 35.1333C142.66 33.913 145.149 33.0188 147.713 32.481C149.044 32.2022 150.388 32.0273 151.743 31.9352C152.759 31.8656 156.616 32.6072 157.166 33.0569C158.387 34.0563 159.409 34.6271 160.942 34.9374C162.393 35.2306 163.411 35.0465 164.815 35.0742C168.782 35.1491 172.405 38.8285 174.855 41.6689C177.388 44.6092 179.296 48.0742 180.436 51.7839C182.72 59.2083 181.81 67.3758 177.945 74.1126Z" fill="#D20008"/>
<path d="M179.061 70.1653C171.31 83.6717 154.079 88.3373 140.573 80.5867C127.068 72.8361 122.401 55.6056 130.151 42.0992C132.801 37.4823 136.743 33.6661 141.456 31.1874C143.777 29.9671 146.265 29.0729 148.83 28.535C150.159 28.2562 151.504 28.0813 152.859 27.988C153.875 27.9183 157.733 28.6599 158.283 29.111C159.506 30.1104 160.525 30.6811 162.059 30.9901C163.509 31.2834 164.529 31.0993 165.931 31.1269C169.9 31.2018 173.521 34.8812 175.971 37.7229C178.504 40.6633 180.412 44.1283 181.552 47.8366C183.838 55.2611 182.926 63.4285 179.061 70.1653Z" fill="#ED0011"/>
<path d="M163.223 43.9902C162.247 45.6024 162.783 47.5683 161.707 49.1582C161.24 49.8512 160.548 50.2641 160.082 51.0781C159.548 52.0091 159.378 53.0164 159.254 54.0315C159.141 54.952 159.165 56.0803 158.707 56.8864C158.003 58.1278 157.595 57.6333 156.55 58.2317C154.947 59.1495 155.449 61.9426 154.808 63.5416C154.208 65.0473 152.736 68.3742 150.89 68.4821C145.389 68.8069 152.055 60.4172 151.059 58.592C150.163 56.9548 146.087 59.1272 147.055 55.6477C147.362 54.5431 148.094 53.8396 148.249 52.6061C148.419 51.2543 148.606 50.6809 149.205 49.4251C150.126 47.4947 149.971 45.5695 151.099 43.6286C152.155 41.8139 151.986 39.6533 150.681 37.861C147.874 34.0107 142.307 36.9024 139.59 39.318C136.646 41.9362 134.001 45.2815 132.939 49.2686C131.983 52.8573 131.373 57.3914 132.567 61.0392C133.149 62.8144 134.2 64.4529 134.726 66.2992C135.228 68.0679 135.682 69.9286 136.543 71.479C137.561 73.3068 139.457 74.343 141.132 75.4897C142.926 76.7166 144.399 77.5043 146.445 78.2289C148.443 78.939 150.147 78.9127 152.267 79.0678C154.363 79.2204 156.035 80.0988 158.277 79.6004C160.287 79.1533 162.48 77.9711 164.363 77.1177C166.608 76.0999 167.681 75.0189 169.343 73.3002C170.702 71.8919 172.234 70.786 173.267 68.9713C174.303 67.1566 175.407 65.0591 176.012 63.0814C176.336 62.0136 176.39 61.0129 176.42 59.8807C176.455 58.6222 176.711 57.7096 176.933 56.4472C177.299 54.3774 176.665 52.155 176.442 50.0839C176.223 48.0838 176.531 46.4479 176.63 44.5123C176.732 42.4622 175.403 41.5693 173.784 40.5857C172.482 39.794 170.503 38.9669 169.028 39.6836C168.156 40.107 167.43 40.8684 166.482 41.3273C165.197 41.9454 163.978 42.7436 163.223 43.9902Z" fill="#DB0011"/>
<path opacity="0.3" d="M179.76 59.2072C180.079 57.5135 180.236 55.783 180.276 54.1274C180.356 50.7097 179.645 47.6891 178.026 44.6686C177.384 43.4706 176.735 42.2713 175.978 41.1391C171.735 34.7719 165.62 36.3696 162.088 42.2398C161.533 43.1629 157.486 53.2924 156.677 52.9938C147.881 49.7432 163.568 33.6357 148.987 32.8283C142.517 32.4693 136.815 39.1561 133.441 43.877C129.687 49.1343 129.575 56.5654 131.265 62.855C133.056 69.5234 137.266 74.8636 143.088 78.205C149.247 81.7397 157.09 81.1335 163.444 78.4615C166.159 77.3214 169.071 76.3483 171.1 74.1706C173.851 71.2237 176.43 67.9796 178.16 64.3213C178.907 62.7498 179.424 61.0009 179.76 59.2072Z" fill="#FFCD93"/>
<path d="M163.797 51.4877C165.947 52.4634 171.15 52.3149 172.475 49.8874C173.074 48.7867 172.047 46.3566 170.708 46.041C168.924 45.6189 166.971 48.1108 165.622 48.8077L163.797 51.4877Z" fill="#F6654D"/>
<path d="M164.086 59.9733C165.225 61.3251 171.283 67.8002 171.647 62.6638C172 57.7247 166.905 59.8655 164.274 58.6465L164.086 59.9733Z" fill="#F6654D"/>
<path d="M162.656 65.4639C164.036 66.4541 164.99 73.2855 167.768 71.551C170.012 70.1492 165.668 65.6756 163.766 65.527L162.656 65.4639Z" fill="#F6654D"/>
<path d="M160.305 69.5635C160.391 70.5405 161.511 75.8702 162.762 75.8124C165.6 75.6795 161.407 70.7351 161.044 70.2736L160.305 69.5635Z" fill="#F6654D"/>
<path d="M148.345 44.9195C147.017 44.4079 141.662 38.7048 144.701 38.1538C147.18 37.7054 148.654 42.8049 148.934 44.3948L148.345 44.9195Z" fill="#F6654D"/>
<path d="M145.812 50.3453C144.596 49.6207 135.45 48.6936 136.069 46.42C136.825 43.6519 143.8 49.1907 144.734 49.7272L145.812 50.3453Z" fill="#F6654D"/>
<path d="M144.444 54.7241C142.726 55.4079 141.09 56.1733 139.318 56.6638C138.125 56.9938 135.011 57.1937 134.093 56.2693C132.602 54.7675 134.205 53.0054 135.784 52.8319C137.646 52.628 139.507 53.5617 141.392 53.5459L144.444 54.7241Z" fill="#F6654D"/>
<path d="M144.284 59.5058C142.697 61.26 139.053 63.961 136.599 62.9038C132.692 61.2219 139.202 58.8483 141.291 59.2231L144.284 59.5058Z" fill="#F6654D"/>
<path d="M145.594 65.7108C144.279 67.0416 140.585 70.358 138.587 69.4388C137.539 68.9562 137.088 67.0902 137.878 66.1421C138.696 65.1598 141.168 65.4149 142.295 64.9639L145.594 65.7108Z" fill="#F6654D"/>
<path d="M146.699 69.7852C145.82 71.3342 144.479 76.0419 141.961 73.6197C142.316 72.3586 143.841 71.6235 144.538 70.5531L146.699 69.7852Z" fill="#F6654D"/>
<path d="M150.64 72.9093C150.586 73.8442 149.923 77.2645 148.53 77.2238C145.801 77.1422 149.732 73.2183 149.994 72.5371L150.64 72.9093Z" fill="#F6654D"/>
<path d="M155.859 73.3194C156.126 74.4017 158.449 77.7286 156.262 78.1389C153.281 78.7004 154.965 74.1518 155.214 72.9473L155.859 73.3194Z" fill="#F6654D"/>
<path opacity="0.3" d="M171.088 48.4204C170.97 47.4631 169.25 47.4775 168.602 47.7169C167.705 48.0482 166.826 49.0016 166.203 49.6933C167.024 49.7919 171.27 49.9011 171.088 48.4204Z" fill="#FFCD93"/>
<path opacity="0.3" d="M164.859 60.1289C165.957 60.6733 169.545 64.6486 170.812 63.2731C172.705 61.219 166.94 60.2617 165.968 60.1933L164.859 60.1289Z" fill="#FFCD93"/>
<path opacity="0.3" d="M164.26 66.6699C164.183 67.7732 165.813 70.7122 166.909 71.0002C166.906 70.0679 165.65 67.6798 164.784 67.2564L164.26 66.6699Z" fill="#FFCD93"/>
<path opacity="0.3" d="M147.578 42.758C147.189 41.8743 146.624 38.0608 144.998 38.6118C143.307 39.1851 146.16 42.0847 146.684 42.8185L147.578 42.758Z" fill="#FFCD93"/>
<path opacity="0.3" d="M141.575 54.2251C140.571 54.0292 135.188 52.9088 134.732 54.6078C134.181 56.6526 139.993 54.6735 140.772 54.6249L141.575 54.2251Z" fill="#FFCD93"/>
<path opacity="0.3" d="M141.688 60.0255C140.23 59.706 137.738 60.3977 136.859 61.5062C137.953 62.6608 140.123 60.8172 141.223 60.3319L141.688 60.0255Z" fill="#FFCD93"/>
<path opacity="0.3" d="M143.589 65.707C142.354 65.6504 137.168 65.4177 137.87 67.8018C138.504 69.9505 142.547 66.6709 143.679 66.0463L143.589 65.707Z" fill="#FFCD93"/>
<path opacity="0.5" d="M190.945 171.933C194.242 168.552 196.969 164.725 200.057 161.284C202.191 158.902 205.003 156.225 205.266 153.486C205.571 150.286 202.702 151.309 201.251 149.534C199.944 147.938 200.683 145.212 199.847 143.3C198.976 141.326 197.06 139.406 195.574 137.885C193.382 135.644 191.035 134.896 188.084 134.689C188.105 134.643 188.127 134.597 188.146 134.554C189.838 130.481 186.666 128.427 183.679 125.488C181.836 123.676 178.929 122.946 175.413 123.246C178.341 119.389 179.16 115.611 175.119 112.405C173.363 111.01 171.295 108.147 168.881 107.57C165.624 106.794 164.211 108.342 162.281 106.356C160.952 104.989 161.129 103.023 159.914 101.709C159.947 101.514 159.976 101.32 159.997 101.129C160.027 101.062 160.06 100.995 160.085 100.932C161.776 96.858 158.607 94.8053 155.618 91.8649C155.005 91.2613 154.274 90.7801 153.442 90.4145C153.836 89.6715 154.108 88.918 154.183 88.1606C154.487 84.9612 151.619 85.9842 150.169 84.209C148.86 82.6139 149.598 79.8879 148.763 77.9746C147.894 76.0008 145.978 74.0809 144.492 72.5594C142.305 70.3265 139.963 69.5744 137.028 69.3666C137.527 66.1922 134.769 64.296 132.146 61.7172C129.66 59.2727 125.235 58.7953 119.983 60.1682C125.433 54.9897 128.777 49.6508 123.348 45.3402C121.591 43.945 119.524 41.0823 117.108 40.505C113.852 39.7291 112.441 41.2769 110.511 39.2899C108.7 37.4266 109.692 34.4494 106.136 33.5289C105.977 33.4868 105.81 33.4526 105.637 33.4224C105.577 33.4119 105.51 33.404 105.447 33.3948C105.335 33.3777 105.225 33.3619 105.107 33.3487C105.025 33.3409 104.938 33.3343 104.852 33.3277C104.754 33.3198 104.655 33.3119 104.554 33.3067C104.453 33.3014 104.35 33.2988 104.246 33.2975C104.159 33.2961 104.071 33.2935 103.982 33.2935C103.865 33.2935 103.745 33.2948 103.625 33.2988C103.549 33.3001 103.473 33.304 103.397 33.3067C103.263 33.3119 103.127 33.3198 102.992 33.329C102.931 33.333 102.869 33.3382 102.809 33.3435C102.655 33.3566 102.502 33.3698 102.346 33.3856C102.308 33.3895 102.268 33.3948 102.23 33.4C102.054 33.4198 101.875 33.4421 101.696 33.4671C101.696 33.4684 101.698 33.4697 101.699 33.471C99.6752 33.7577 97.5318 34.3718 95.7841 35.1332C93.7038 36.0392 90.966 37.5817 88.0203 39.5148L76.856 25.151L67.7457 16.3037C67.4367 16.476 67.1263 16.6456 66.8186 16.8205L73.2424 27.9586L84.2516 42.1224C73.1175 50.2373 61.677 62.2603 71.8077 66.4223C73.6435 67.1771 75.2636 67.7689 76.3037 68.4224C77.0612 68.8971 78.1789 70.3029 78.8535 70.8276C79.177 71.08 79.6162 71.1353 80.0778 71.134C80.4263 71.1326 80.7879 71.0985 81.1272 71.0879C81.1679 71.0866 81.2087 71.0853 81.2494 71.0853C81.2968 71.084 81.3441 71.084 81.3901 71.084C81.4743 71.0866 81.5584 71.0906 81.6387 71.0984C81.6597 71.0998 81.6794 71.1037 81.7005 71.1077C81.7623 71.1169 81.8241 71.1274 81.8833 71.1405C81.9096 71.1471 81.9332 71.155 81.9595 71.1629C82.0121 71.1787 82.0621 71.1984 82.1094 71.2207C82.1305 71.2313 82.1528 71.2405 82.1726 71.251C82.237 71.2878 82.2988 71.3299 82.3501 71.3825C83.5152 72.5423 83.0247 75.096 83.6743 77.0883C82.9918 77.922 82.1108 78.6465 81.4704 79.4645C81.1837 79.8287 80.9088 80.2022 80.6143 80.548C80.4631 80.3692 80.3052 80.1904 80.1303 80.0115C78.5668 78.4006 76.8876 75.2959 74.5653 74.4123C71.4382 73.2235 69.8365 74.5766 68.1783 72.3582C66.6214 70.2753 67.989 67.452 64.5818 66.0804C64.4293 66.0199 64.2688 65.9634 64.1005 65.9108C64.0413 65.8924 63.9769 65.8766 63.9151 65.8595C63.8073 65.8279 63.6981 65.7977 63.5863 65.7714C63.5035 65.7517 63.418 65.7346 63.3352 65.7162C63.2392 65.6964 63.1419 65.6754 63.0433 65.6583C62.9433 65.6399 62.842 65.6254 62.7408 65.6096C62.654 65.5965 62.5659 65.582 62.4778 65.5715C62.3621 65.5557 62.2437 65.5426 62.1241 65.5307C62.0491 65.5229 61.9728 65.5163 61.8966 65.5097C61.7624 65.4979 61.627 65.4873 61.4889 65.4795C61.4297 65.4768 61.3693 65.4729 61.3088 65.4702C61.1549 65.4624 60.9997 65.4571 60.8419 65.4532C60.8051 65.4532 60.767 65.4532 60.7288 65.4518C60.55 65.4492 60.3712 65.4479 60.1884 65.4505C60.1897 65.4518 60.1897 65.4532 60.1897 65.4558C58.1449 65.4808 55.9423 65.8121 54.1105 66.3421C51.9315 66.9733 49.0188 68.1502 45.847 69.6875L36.6249 54.0061L32.3788 48.6553C31.7765 49.5456 31.1847 50.4411 30.6127 51.3458L32.6825 56.3244L41.7758 71.7875C29.6896 78.4006 16.7947 88.851 26.3048 94.2832C28.0287 95.2682 29.5594 96.0637 30.5062 96.8462C31.1953 97.4142 32.125 98.9528 32.7246 99.559C33.0139 99.8509 33.44 99.9627 33.8989 100.021C34.2434 100.064 34.609 100.077 34.9456 100.11C34.989 100.114 35.0298 100.119 35.0732 100.124C35.1179 100.13 35.164 100.135 35.2087 100.142C35.2928 100.155 35.3757 100.169 35.4532 100.188C35.4743 100.192 35.4914 100.199 35.5124 100.205C35.5742 100.22 35.6334 100.24 35.6899 100.261C35.7149 100.27 35.7386 100.282 35.7623 100.291C35.8135 100.315 35.8596 100.341 35.9043 100.369C35.924 100.382 35.9437 100.394 35.9635 100.407C36.0226 100.452 36.0779 100.501 36.1239 100.56C37.4271 102.244 35.6715 105.892 37.4376 108.068C37.6112 108.281 37.8018 108.496 38.0043 108.706C37.5507 108.671 37.0917 108.626 36.621 108.561C31.9567 107.921 28.9545 106.78 27.9354 106.92C27.9341 106.919 27.9314 106.919 27.9301 106.918C27.9038 106.922 27.8854 106.93 27.8631 106.935C27.8354 106.94 27.8052 106.945 27.7802 106.955C27.7289 106.973 27.6842 106.997 27.65 107.026C26.5507 107.995 29.3398 109.357 29.9289 109.769C32.0158 111.222 39.2049 115.022 49.2989 116.191C50.0747 116.282 50.8598 116.323 51.6462 116.329L48.3757 121.012C44.0349 127.336 48.7663 125.994 50.4705 129.824C51.0781 131.194 50.0603 133.102 50.1536 134.681C50.1983 135.424 50.3483 135.974 50.5744 136.437C50.4968 136.688 50.4219 136.973 50.3351 137.29C50.5494 137.424 50.8572 137.418 51.2004 137.361C51.6514 137.886 52.2155 138.383 52.8297 139.113C54.4497 141.035 56.2118 142.776 58.1975 144.178C58.2014 144.19 58.2067 144.202 58.2106 144.214C58.2711 144.393 58.3395 144.569 58.4145 144.744C58.4224 144.762 58.4315 144.781 58.4394 144.799C58.5144 144.967 58.5959 145.136 58.684 145.3C58.6945 145.321 58.7051 145.341 58.7156 145.36C58.8063 145.529 58.9062 145.694 59.0115 145.858C59.0312 145.889 59.0509 145.919 59.072 145.951C59.1785 146.113 59.2889 146.272 59.4073 146.428C59.423 146.451 59.4401 146.472 59.4585 146.493C59.5743 146.645 59.6953 146.794 59.8228 146.94C59.8346 146.953 59.8452 146.967 59.857 146.981C59.9885 147.13 60.1266 147.276 60.2686 147.418C60.2949 147.446 60.3212 147.474 60.3488 147.501C60.4882 147.639 60.6342 147.776 60.7828 147.908C60.8064 147.93 60.8314 147.95 60.8564 147.971C61.0076 148.102 61.1602 148.228 61.318 148.352C61.3272 148.359 61.3351 148.365 61.343 148.372C61.5047 148.497 61.6717 148.616 61.84 148.731C61.8703 148.752 61.9018 148.773 61.9321 148.794C62.0965 148.906 62.2648 149.011 62.4331 149.112C62.4647 149.131 62.4962 149.149 62.5265 149.167C62.704 149.271 62.8828 149.37 63.0643 149.463C64.0532 149.967 64.545 149.624 65.5141 149.885C66.4741 150.146 67.3197 150.931 68.2888 151.238C69.947 151.766 71.838 151.932 73.6777 151.974C66.5464 157.587 62.4554 163.715 69.0107 167.459C70.7347 168.443 72.264 169.24 73.2122 170.022C73.9025 170.589 74.8309 172.129 75.4319 172.735C75.7212 173.027 76.1472 173.139 76.6062 173.196L76.6075 173.198C76.9533 173.241 77.3176 173.254 77.6542 173.287C77.695 173.291 77.7358 173.295 77.7752 173.3C77.8225 173.306 77.8699 173.311 77.9146 173.317C78.0001 173.331 78.0803 173.345 78.1592 173.365C78.1802 173.369 78.1987 173.377 78.2197 173.382C78.2802 173.399 78.3393 173.416 78.3959 173.438C78.4222 173.448 78.4445 173.458 78.4695 173.469C78.5195 173.492 78.5668 173.517 78.6102 173.546C78.63 173.559 78.6497 173.571 78.6681 173.584C78.7272 173.629 78.7825 173.678 78.8285 173.737C79.9844 175.232 78.7338 178.272 79.6727 180.459C79.5938 180.503 79.532 180.538 79.5044 180.559C78.7141 181.16 78.5221 182.249 77.7515 182.862C76.9191 183.523 75.8592 183.666 74.8204 183.899C73.558 184.181 72.2667 184.866 70.9583 185.01C69.5473 185.166 67.9298 184.653 66.5135 184.267C65.8061 185.943 66.2163 186.458 67.1566 188.023C67.8285 189.141 67.6287 190.608 69.3369 190.834C69.826 189.477 69.6406 188.148 71.0161 187.276C72.0983 186.591 73.9472 185.998 75.3714 186.239C76.9836 186.513 77.7331 187.71 78.5708 188.861C78.9456 189.376 79.2151 189.969 79.703 190.423C79.945 190.646 80.279 190.824 80.5775 191.003C80.5472 191.625 80.6077 192.249 80.9075 192.866C82.358 195.85 85.9769 196.326 90.5978 195.195C86.3714 201.408 91.0593 200.104 92.7557 203.912C93.3632 205.284 92.3441 207.19 92.4388 208.771C92.4506 208.967 92.4716 209.145 92.4979 209.314C105.998 212.808 120.093 213.571 133.881 211.688C136.386 209.427 138.75 207.038 141.271 204.871C143.695 202.785 146.828 200.492 147.441 197.808C148.155 194.676 145.178 195.32 143.968 193.372C142.877 191.622 143.96 189.013 143.378 187.009C142.769 184.941 141.116 182.789 139.839 181.09C136.774 177.02 132.795 176.799 126.522 176.163C126.178 176.128 125.838 176.085 125.5 176.039C125.468 176.035 125.432 176.03 125.398 176.025C125.095 175.983 124.794 175.938 124.493 175.891C124.439 175.883 124.384 175.874 124.329 175.865C124.082 175.826 123.838 175.784 123.591 175.744C123.353 175.704 123.119 175.665 122.882 175.625C122.753 175.603 122.627 175.583 122.497 175.562C122.266 175.523 122.033 175.486 121.8 175.452C121.74 175.442 121.678 175.432 121.616 175.423C121.346 175.382 121.072 175.344 120.799 175.31C120.713 175.298 120.623 175.289 120.535 175.278C120.301 175.25 120.066 175.224 119.829 175.203C119.78 175.198 119.732 175.191 119.683 175.187C120.556 173.745 121.283 172.239 121.816 170.679C123.04 167.105 123.761 163.739 124.167 160.789C125.027 159.152 125.26 157.482 124.593 155.794C124.676 153.299 124.525 151.425 124.362 150.432C124.243 149.724 124.217 146.62 122.868 147.195C122.826 147.212 122.788 147.244 122.747 147.282C122.727 147.3 122.713 147.325 122.692 147.349C122.678 147.367 122.664 147.38 122.651 147.401C122.651 147.403 122.651 147.405 122.651 147.407C122.289 147.956 122.047 149.463 121.55 151.653C120.33 150.081 118.973 148.238 117.27 147.591C115.243 146.82 113.859 147.115 112.683 146.817C114.549 146.368 116.378 145.784 118.259 146.08C118.257 145.988 118.24 145.894 118.221 145.801C118.2 145.725 118.175 145.648 118.14 145.572C117.553 144.063 114.732 142.274 113.535 141.593C108.025 138.454 100.775 136.43 94.2285 135.156C95.8025 133.667 97.3608 132.176 98.9862 130.778C101.41 128.693 104.542 126.399 105.156 123.716C105.87 120.583 102.893 121.226 101.683 119.28C100.592 117.528 101.677 114.921 101.093 112.915C100.484 110.847 98.8323 108.696 97.5541 106.995C94.4888 102.925 90.5097 102.704 84.2384 102.067C83.8939 102.033 83.5533 101.99 83.2167 101.944C83.1812 101.94 83.147 101.935 83.1128 101.931C82.8103 101.889 82.5092 101.844 82.2094 101.797C82.1542 101.788 82.1003 101.779 82.045 101.771C81.9898 101.762 81.9359 101.752 81.8806 101.743C86.9868 96.929 89.5984 92.1529 86.9434 88.822C86.516 88.2855 85.9795 87.9633 85.4035 87.7214C85.372 87.3755 85.3549 86.9981 85.2576 86.6825C85.059 86.0447 84.6395 85.5477 84.3357 84.9875C83.6572 83.7356 82.8998 82.5442 83.3482 80.9702C83.5717 80.1851 84.0938 79.3922 84.7026 78.7281C86.4516 80.3534 89.2867 81.8249 92.6071 81.1621C92.8227 81.1187 93.0384 81.0662 93.2541 81.0083C90.2782 86.2617 89.5681 91.1364 91.5341 94.3319C94.1207 98.5359 96.5758 101.059 100.351 100.703C100.487 100.871 100.618 101.053 100.739 101.254C101.519 102.536 100.755 104.559 101.051 106.113C101.486 108.387 102.675 108.696 104.275 110.163C107.296 112.931 110.629 115.179 114.544 116.158C113.573 119.427 113.687 122.332 115.007 124.48C116.572 127.024 118.088 128.951 119.879 130C120.323 131.428 121.49 132.626 123.582 133.486C125.416 134.241 127.039 134.833 128.079 135.486C128.834 135.96 129.954 137.367 130.628 137.891C130.952 138.144 131.39 138.199 131.853 138.198H131.852C131.855 138.198 131.857 138.198 131.86 138.198C132.068 138.196 132.278 138.186 132.488 138.173C132.625 138.165 132.766 138.156 132.9 138.153C132.943 138.152 132.985 138.152 133.028 138.15C133.074 138.149 133.12 138.149 133.164 138.15C133.251 138.152 133.334 138.156 133.414 138.163C133.435 138.165 133.454 138.17 133.475 138.173C133.539 138.181 133.601 138.192 133.659 138.206C133.685 138.212 133.71 138.22 133.735 138.228C133.789 138.244 133.838 138.263 133.886 138.287C133.907 138.296 133.928 138.307 133.949 138.317C134.012 138.354 134.074 138.396 134.128 138.449C135.637 139.952 134.365 143.794 136.397 145.725C137.909 147.162 140.277 148.498 143.081 148.384C141.628 152.219 141.561 155.656 143.069 158.104C144.877 161.044 146.621 163.166 148.796 164.052C149.749 164.621 150.965 165.176 151.824 166.581C152.605 167.863 151.841 169.885 152.137 171.44C152.571 173.713 153.76 174.022 155.36 175.49C161.8 181.389 169.648 184.927 181.539 178.836C181.542 178.836 181.539 178.838 181.539 178.838C181.552 178.831 181.566 178.825 181.575 178.819C181.981 178.612 182.391 178.391 182.806 178.161C182.952 178.078 183.101 177.997 183.25 177.912C183.401 177.825 183.558 177.734 183.713 177.644C184.061 177.44 184.41 177.232 184.766 177.011C185.75 176.401 186.666 175.736 187.542 175.036L193.686 182.941C193.958 182.681 194.233 182.425 194.5 182.162C195.324 181.323 196.125 180.47 196.917 179.61L190.945 171.933Z" fill="#AE9696"/>
<path d="M208.425 182.047L75.902 11.5523L64.0078 0L72.2897 14.3598L205.487 185.72L208.425 182.047Z" fill="#652000"/>
<path d="M81.3999 57.7839C80.6859 57.0738 78.8304 57.9496 77.902 57.2277C77.2274 56.7043 76.1097 55.296 75.3523 54.8226C74.3108 54.169 72.6907 53.5773 70.8563 52.8224C56.8002 47.047 84.2745 26.1358 94.8313 21.5347C98.0071 20.15 102.5 19.2347 105.182 19.929C108.737 20.8508 107.745 23.828 109.557 25.6914C111.487 27.677 112.899 26.1293 116.155 26.9051C118.571 27.4824 120.637 30.3452 122.394 31.7404C131.358 38.8585 116.404 48.7828 107.536 56.1533C102.982 59.9379 97.3614 66.4261 91.6517 67.5649C88.2839 68.2369 85.412 66.7141 83.6696 65.0611C81.6379 63.1307 82.9096 59.287 81.3999 57.7839Z" fill="#963C00"/>
<path opacity="0.3" d="M81.6149 41.2337C81.8937 44.0938 86.5475 39.6531 89.0854 42.1792C91.8325 44.9105 85.3509 49.1895 87.1603 52.8307C93.4684 51.4368 96.8019 49.9114 96.1549 57.4845C96.0852 58.2958 105.253 51.4736 105.948 50.6649C108.401 47.8048 111.029 44.2477 111.988 40.5078C113.932 32.919 103.678 38.9364 99.7711 39.2731C98.5758 35.3754 102.961 32.4995 101.813 28.7044C100.542 28.9635 99.5765 28.306 98.2997 28.5321C97.3055 26.6477 98.1208 24.6726 99.0939 22.9736C93.3474 23.3865 83.932 32.2036 82.2448 37.7582C81.7293 39.4585 81.5479 40.5526 81.6149 41.2337Z" fill="white"/>
<path opacity="0.5" d="M116.153 26.9052C112.897 26.1293 111.484 27.6771 109.554 25.6914C107.742 23.8281 108.734 20.8509 105.179 19.9291C103.972 19.6174 102.397 19.6332 100.741 19.8686C100.911 20.271 101.121 20.6957 101.389 21.1547C102.598 23.2179 104.561 22.7918 105.642 25.4363C106.516 27.5706 104.965 29.4983 105.905 31.7851C114.239 29.426 113.353 30.7489 114.18 37.7263C114.593 41.2163 116.51 40.1748 115.022 43.8674C114.218 45.8609 111.858 47.1456 110.371 48.6474C103.477 55.6103 95.1062 60.6599 84.7387 63.0203C83.571 61.2424 83.546 58.8478 83.525 57.1383C81.8523 56.7228 80.365 56.9161 79.125 57.5368C79.9863 57.5328 80.9331 57.3237 81.3986 57.7866C82.9083 59.2897 81.6366 63.1334 83.6696 65.0625C85.412 66.7155 88.284 68.2396 91.6517 67.5663C93.7018 67.1573 95.7387 66.0567 97.7217 64.6417C98.6357 63.9356 99.5128 63.2426 100.352 62.5785C102.92 60.4074 105.35 57.9707 107.536 56.1547C116.404 48.7854 131.358 38.8598 122.394 31.7417C120.634 30.3452 118.568 27.4824 116.153 26.9052Z" fill="#AE9696"/>
<path d="M131.194 48.1181C134.184 51.0571 137.356 53.1098 135.662 57.1837C133.573 62.2109 116.537 76.2828 110.341 81.2587C99.1264 90.2652 95.0552 88.006 90.5815 80.734C87.0731 75.0309 92.082 63.9796 103.296 54.9732C114.511 45.9668 126.421 43.4222 131.194 48.1181Z" fill="#D592D7"/>
<path d="M134.266 51.8531C138.458 57.0737 132.767 68.6075 121.55 77.614C110.337 86.6217 97.8458 89.6909 93.6523 84.4691C89.4587 79.2472 95.1527 67.7133 106.367 58.7082C117.584 49.7005 130.074 46.6313 134.266 51.8531Z" fill="#DFCCF7"/>
<path d="M99.8156 72.9651C103.066 67.9996 109.31 61.6311 114.908 58.1253C120.419 54.676 124.74 55.9253 129.695 55.7885C135.997 55.611 139.972 55.3191 143.534 58.9603C145.021 60.4804 146.935 62.4017 147.807 64.3755C148.643 66.2875 147.904 69.0135 149.212 70.6099C150.663 72.3851 153.532 71.3621 153.226 74.5615C152.963 77.3019 150.151 79.9793 148.018 82.3594C143.213 87.7141 139.285 94.0116 132.722 98.0894C118.991 106.616 110.321 102.983 103.317 96.5654C101.717 95.0991 100.528 94.7888 100.093 92.5165C99.7972 90.9608 100.561 88.9384 99.7814 87.6575C97.5985 84.0807 93.0788 86.0191 96.5688 79.1903L99.8156 72.9651Z" fill="#963C00"/>
<path opacity="0.3" d="M114.408 95.9636C122.756 93.2573 117.809 77.7521 126.074 79.9995C126.896 83.258 127.362 86.6599 128.841 90.1342C131.558 89.9487 136.594 87.42 137.565 84.74C139.429 79.5905 134.509 81.5288 134.008 77.3103C137.016 75.5364 141.173 73.4468 138.237 69.8135C137.018 68.3065 133.925 69.3545 132.799 67.9172C131.037 65.6633 133.507 63.0491 132.476 61.5342C125.91 51.8966 112.377 66.572 107.151 70.5551C103.152 73.6046 98.9707 75.6442 100.204 81.7024C101.473 87.9315 104.499 87.2412 107.721 83.3908C116.821 72.521 110.573 91.0744 113.801 96.1306C114.012 96.0819 114.213 96.0267 114.408 95.9636Z" fill="white"/>
<path opacity="0.5" d="M153.227 74.5599C153.533 71.3605 150.664 72.3835 149.213 70.6083C147.905 69.0132 148.643 66.2859 147.808 64.3739C146.936 62.4001 145.023 60.4802 143.535 58.9587C139.973 55.3175 135.996 55.6107 129.696 55.7869C126.828 55.8658 124.176 55.4832 121.383 55.8132C122.936 62.8511 128.865 56.7153 134.12 58.1894C140.875 60.0857 135.54 64.5212 137.61 68.2216C147.286 68.0835 141.736 76.2707 145.587 81.6227C140.767 85.694 131.495 93.7838 129.5 99.9117C130.546 99.3779 131.616 98.7756 132.725 98.0878C139.288 94.0087 143.216 87.7112 148.021 82.3578C150.152 79.9763 152.964 77.3003 153.227 74.5599Z" fill="#AE9696"/>
<path d="M154.664 78.2649C157.653 81.2039 160.826 83.2566 159.131 87.3305C157.042 92.3577 140.003 106.43 133.808 111.405C122.595 120.412 118.523 118.153 114.05 110.881C110.542 105.178 115.551 94.1251 126.766 85.12C137.981 76.1122 149.889 73.569 154.664 78.2649Z" fill="#D592D7"/>
<path d="M157.734 81.9984C161.926 87.2189 156.235 98.7528 145.018 107.761C133.803 116.767 121.313 119.838 117.121 114.616C112.928 109.395 118.62 97.8612 129.835 88.8548C141.05 79.8484 153.541 76.7778 157.734 81.9984Z" fill="#DFCCF7"/>
<path d="M133.167 124.85C132.452 124.138 130.597 125.015 129.669 124.293C128.994 123.769 127.878 122.362 127.119 121.888C126.079 121.233 124.459 120.643 122.622 119.888C108.566 114.113 136.04 93.2016 146.597 88.5991C149.771 87.2144 154.266 86.2992 156.947 86.9935C160.502 87.914 159.51 90.8911 161.322 92.7558C163.253 94.7415 164.665 93.1937 167.92 93.9696C170.337 94.5468 172.401 97.4096 174.161 98.8048C183.125 105.922 168.17 115.847 159.303 123.218C154.749 127.001 149.127 133.489 143.417 134.628C140.05 135.301 137.179 133.779 135.437 132.124C133.405 130.196 134.678 126.353 133.167 124.85Z" fill="#963C00"/>
<path opacity="0.3" d="M133.38 108.298C133.66 111.156 138.314 106.718 140.852 109.243C143.599 111.974 137.117 116.253 138.925 119.896C145.234 118.501 148.567 116.977 147.921 124.548C147.852 125.36 157.021 118.537 157.713 117.729C160.168 114.869 162.795 111.312 163.754 107.572C165.698 99.9815 155.446 106.002 151.539 106.336C150.342 102.439 154.728 99.5633 153.581 95.7669C152.31 96.026 151.344 95.3685 150.068 95.596C149.073 93.7116 149.887 91.7351 150.86 90.0361C145.117 90.4504 135.7 99.2674 134.013 104.822C133.495 106.522 133.314 107.618 133.38 108.298Z" fill="white"/>
<path opacity="0.5" d="M167.92 93.9713C164.665 93.1954 163.253 94.7432 161.322 92.7575C159.51 90.8929 160.502 87.9157 156.947 86.9952C155.74 86.6836 154.165 86.698 152.508 86.9334C152.678 87.3358 152.887 87.7619 153.156 88.2208C154.366 90.284 156.328 89.8567 157.409 92.5024C158.282 94.6367 156.732 96.5645 157.671 98.8513C166.006 96.4921 165.119 97.8163 165.946 104.792C166.36 108.281 168.277 107.241 166.788 110.933C165.985 112.927 163.625 114.212 162.138 115.714C155.243 122.675 146.873 127.725 136.506 130.086C135.337 128.309 135.313 125.914 135.291 124.203C133.619 123.788 132.131 123.981 130.891 124.6C131.751 124.598 132.699 124.389 133.164 124.851C134.674 126.354 133.402 130.198 135.435 132.127C137.178 133.782 140.05 135.306 143.416 134.631C145.466 134.222 147.503 133.123 149.485 131.707C150.399 131 151.277 130.307 152.116 129.643C154.684 127.472 157.116 125.036 159.301 123.22C168.168 115.849 183.124 105.923 174.159 98.8066C172.401 97.4113 170.337 94.5486 167.92 93.9713Z" fill="#AE9696"/>
<path d="M182.728 111.888C185.718 114.828 188.889 116.881 187.195 120.953C185.104 125.982 168.068 140.054 161.873 145.028C150.658 154.036 146.586 151.776 142.113 144.505C138.604 138.802 143.614 127.751 154.829 118.743C166.046 109.738 177.954 107.193 182.728 111.888Z" fill="#D592D7"/>
<path d="M185.798 115.622C189.99 120.843 184.297 132.378 173.083 141.385C161.869 150.391 149.376 153.46 145.184 148.24C140.989 143.018 146.684 131.484 157.9 122.478C169.113 113.472 181.604 110.402 185.798 115.622Z" fill="#DFCCF7"/>
<path d="M150.899 138.29C154.151 133.325 160.394 126.956 165.991 123.452C171.502 120.002 175.823 121.252 180.78 121.114C187.08 120.937 191.055 120.646 194.62 124.285C196.107 125.807 198.019 127.728 198.89 129.701C199.727 131.614 198.987 134.34 200.296 135.935C201.747 137.71 204.615 136.689 204.31 139.887C204.049 142.627 201.236 145.303 199.101 147.685C194.299 153.039 190.371 159.337 183.807 163.415C170.074 171.941 161.406 168.309 154.402 161.892C152.802 160.426 151.614 160.114 151.179 157.842C150.882 156.286 151.646 154.263 150.869 152.983C148.684 149.406 144.165 151.344 147.655 144.515L150.899 138.29Z" fill="#963C00"/>
<path opacity="0.3" d="M165.493 161.289C173.842 158.582 168.897 143.079 177.161 145.325C177.981 148.584 178.448 151.986 179.928 155.46C182.643 155.273 187.68 152.746 188.651 150.066C190.515 144.915 185.595 146.853 185.096 142.635C188.103 140.862 192.261 138.771 189.323 135.138C188.106 133.631 185.011 134.68 183.886 133.242C182.124 130.989 184.592 128.373 183.562 126.859C176.998 117.221 163.464 131.895 158.238 135.881C154.239 138.93 150.055 140.969 151.291 147.028C152.56 153.257 155.586 152.567 158.809 148.717C167.907 137.847 161.661 156.401 164.889 161.456C165.097 161.408 165.3 161.352 165.493 161.289Z" fill="white"/>
<path opacity="0.5" d="M204.313 139.886C204.618 136.688 201.75 137.71 200.298 135.935C198.99 134.34 199.729 131.612 198.892 129.7C198.022 127.728 196.11 125.806 194.623 124.285C191.058 120.645 187.082 120.938 180.782 121.113C177.915 121.193 175.263 120.811 172.469 121.14C174.02 128.177 179.951 122.042 185.206 123.516C191.961 125.413 186.625 129.847 188.696 133.547C198.37 133.408 192.821 141.596 196.673 146.948C191.852 151.019 182.58 159.11 180.586 165.238C181.629 164.703 182.701 164.102 183.809 163.414C190.374 159.336 194.302 153.039 199.104 147.684C201.238 145.303 204.051 142.627 204.313 139.886Z" fill="#AE9696"/>
<path d="M208.409 182.065L186.575 153.974C185.335 154.452 184.191 155.208 183.255 156.166C183.135 156.345 183.023 156.529 182.914 156.717L205.473 185.739L208.409 182.065Z" fill="#652000"/>
<path d="M142.835 230.163C143.834 229.352 144.831 228.539 145.834 227.733L35.6742 40.4049L25.3672 27.418L31.7305 42.7233L142.171 230.528C142.393 230.407 142.614 230.286 142.835 230.163Z" fill="#652000"/>
<path d="M35.1692 86.9598C34.5511 86.1629 32.5997 86.7941 31.7712 85.9578C31.1716 85.3516 30.2419 83.8117 29.5528 83.2449C28.6047 82.4625 27.074 81.6669 25.3514 80.682C12.1567 73.1457 42.0953 55.9455 53.1571 52.7422C56.484 51.7783 61.0589 51.4495 63.6284 52.4831C67.0356 53.8534 65.668 56.678 67.2249 58.7596C68.8831 60.978 70.4835 59.6249 73.6119 60.815C75.9328 61.6973 77.6134 64.802 79.1757 66.4129C87.1498 74.6264 71.0397 82.5414 61.2969 88.7087C56.2946 91.8753 49.884 97.585 44.0757 97.9795C40.6488 98.2136 37.9977 96.3331 36.4828 94.4684C34.7168 92.2921 36.4736 88.6456 35.1692 86.9598Z" fill="#963C00"/>
<path opacity="0.3" d="M37.5168 70.5745C37.4261 73.4464 42.6124 69.6435 44.8045 72.4733C47.1768 75.536 40.1981 78.9445 41.5223 82.7895C47.9566 82.2175 51.4584 81.1352 49.8436 88.5611C49.67 89.3566 59.6417 83.7718 60.4333 83.0591C63.2342 80.5395 66.2982 77.3507 67.7302 73.766C70.6364 66.4888 59.693 71.1373 55.7756 70.9663C55.0931 66.9464 59.8113 64.6609 59.163 60.7475C57.869 60.8422 56.9959 60.065 55.6993 60.1242C54.9563 58.128 56.0188 56.2738 57.2037 54.7156C51.4518 54.3855 40.9792 61.9152 38.5912 67.2068C37.8587 68.8295 37.5378 69.8907 37.5168 70.5745Z" fill="white"/>
<path opacity="0.5" d="M73.609 60.8146C70.4807 59.6245 68.8803 60.9776 67.2221 58.7592C65.6651 56.6776 67.0328 53.853 63.6256 52.4827C62.4697 52.0172 60.9049 51.8292 59.2322 51.8502C59.3492 52.271 59.503 52.7194 59.7095 53.2086C60.6418 55.4112 62.642 55.239 63.3757 58.0018C63.9675 60.2307 62.1817 61.9428 62.8195 64.3322C71.388 63.0658 70.3386 64.2638 70.2597 71.2885C70.2203 74.8022 72.2559 74.0172 70.3044 77.4874C69.2511 79.3613 66.7434 80.3305 65.0747 81.6297C57.3425 87.6458 48.39 91.575 37.8056 92.581C36.8772 90.6664 37.1599 88.2889 37.3598 86.5912C35.7528 85.9626 34.2551 85.9639 32.9453 86.4189C33.7987 86.5268 34.7666 86.4413 35.1677 86.9594C36.4708 88.6439 34.7153 92.2917 36.4827 94.4667C37.9975 96.3314 40.6486 98.2118 44.0755 97.9778C46.161 97.8358 48.3229 97.0086 50.4703 95.8593C51.4684 95.2768 52.4284 94.7021 53.3449 94.1524C56.1708 92.3299 58.8955 90.2272 61.2954 88.707C71.0396 82.5397 87.1483 74.6247 79.1741 66.4112C77.6106 64.8016 75.93 61.6969 73.609 60.8146Z" fill="#AE9696"/>
<path d="M73.0193 70.8252C73.5006 71.4367 75.1431 71.9876 75.8702 72.3032C77.0577 72.82 78.3477 72.987 79.5351 73.5275C81.121 74.2494 83.4933 77.4239 84.6597 74.9346C84.3717 74.5427 84.49 73.6945 84.3007 73.087C84.1021 72.4492 83.6827 71.9521 83.3789 71.3919C82.7003 70.1401 81.9429 68.9474 82.3913 67.3746C82.7871 65.986 84.1179 64.5724 85.2028 63.8912C86.5809 63.0246 87.7013 63.765 89.1373 63.9083C89.6685 62.2698 88.2602 61.8174 87.5396 60.7299C86.5323 59.2085 86.2429 58.6154 84.4256 58.5312C84.1639 59.9764 83.9312 61.657 83.1816 62.8629C82.4886 63.9819 81.313 64.8525 80.5161 65.8703C79.8573 66.7092 79.2721 67.6021 78.3161 68.0703C77.4325 68.5029 76.3673 68.2057 75.4836 68.6607C75.1904 68.808 72.9115 70.6884 73.0193 70.8252Z" fill="#277925"/>
<path d="M35.6638 94.9612C42.01 95.833 46.6848 93.9802 50.5522 91.5566C53.82 89.5092 56.7603 86.1533 59.673 83.4641C60.7474 82.4726 65.0948 77.0561 66.0074 75.0915C66.8135 73.357 67.0568 70.923 68.3783 69.6395C70.5468 67.5316 75.4149 68.6691 77.5925 70.1432C78.3302 70.6416 78.7932 71.3911 79.4954 71.9355C80.2186 72.4957 81.076 72.7784 81.8413 73.1795C83.155 73.8646 84.9145 73.8843 85.9836 75.227C90.4217 80.7934 80.1529 90.3942 68.1127 97.4649C62.257 100.904 55.0193 103.365 48.3404 102.592C38.2464 101.423 31.0573 97.6227 28.9704 96.1697C28.3813 95.7581 25.5922 94.3957 26.6915 93.4266C27.2951 92.894 30.4419 94.2445 35.6638 94.9612Z" fill="#84CE25"/>
<path opacity="0.3" d="M66.5741 78.1796C63.3629 83.0767 59.4942 85.1557 55.5268 90.9325C53.7003 93.5954 61.6166 94.3844 74.1709 83.9025C78.5985 80.2047 79.068 75.046 76.6602 73.0564C70.4363 67.9108 69.7867 73.2813 66.5741 78.1796Z" fill="white"/>
<path opacity="0.3" d="M70.0492 77.5659C68.4699 80.2827 66.0924 81.4832 65.427 84.4433C65.0325 86.1962 67.84 86.358 74.2362 80.3431C76.4927 78.222 76.6071 75.4619 75.275 74.4874C71.8324 71.9692 71.6285 74.8478 70.0492 77.5659Z" fill="white"/>
<path opacity="0.5" d="M85.9887 75.2248C84.9197 73.8821 83.1602 73.8611 81.8465 73.1773C81.0812 72.7762 80.2238 72.4935 79.5005 71.9333C78.797 71.3889 78.3354 70.6407 77.5977 70.141C76.2945 69.2612 74.0328 68.5012 71.959 68.4814C74.1906 69.3875 76.3274 70.9536 78.1776 72.4067C79.6596 73.5692 81.1075 74.9105 82.2213 76.5634C83.9163 79.0817 83.126 81.0002 81.5703 83.1305C79.9634 85.3305 78.0277 87.6147 76.0513 89.3413C71.266 93.519 66.3347 97.7192 60.3949 99.2288C57.494 99.9665 54.5747 100.421 51.5686 100.583C48.4678 100.75 45.3395 99.8942 42.4701 98.9526C39.4088 97.9467 36.4356 96.8868 33.2848 96.1622C31.0625 95.6507 29.0282 94.3948 26.9807 93.3152C26.8585 93.331 26.7625 93.3665 26.6993 93.4231C25.6 94.3922 28.3891 95.7545 28.9782 96.1661C31.0651 97.6192 38.2542 101.42 48.3482 102.589C55.0257 103.362 62.2648 100.9 68.1205 97.4614C80.158 90.392 90.4269 80.7912 85.9887 75.2248Z" fill="#AE9696"/>
<path d="M51.4393 101.656C55.3028 97.1512 62.3143 91.6387 68.3147 88.8851C74.2256 86.1736 78.3482 87.9686 83.2807 88.4709C89.5533 89.1074 93.5312 89.3283 96.5964 93.3982C97.8746 95.0985 99.5263 97.2485 100.135 99.317C100.719 101.321 99.6354 103.93 100.727 105.68C101.937 107.628 104.914 106.983 104.198 110.116C103.584 112.8 100.452 115.092 98.0284 117.179C92.5751 121.869 87.8701 127.609 80.8348 130.809C66.1187 137.495 57.9906 132.776 51.8706 125.51C50.4728 123.851 49.334 123.391 49.1959 121.08C49.1026 119.5 50.1204 117.593 49.5128 116.221C47.8073 112.393 43.0759 113.733 47.4167 107.411L51.4393 101.656Z" fill="#963C00"/>
<path opacity="0.3" d="M62.9517 126.343C71.5781 124.734 68.6733 108.722 76.5778 112.015C76.9723 115.352 76.9973 118.786 78.0164 122.422C80.7345 122.588 86.055 120.728 87.3621 118.197C89.8738 113.33 84.7453 114.619 84.7926 110.37C88.0038 108.998 92.3972 107.461 89.95 103.481C88.9362 101.828 85.7315 102.471 84.8018 100.899C83.3461 98.4389 86.1299 96.1626 85.3028 94.528C80.0349 84.1251 64.723 96.9345 59.0291 100.213C54.6699 102.723 50.2607 104.205 50.7025 110.372C51.1588 116.713 54.2491 116.418 57.9403 113.016C68.363 103.408 59.7787 121.003 62.3284 126.431C62.5441 126.409 62.7506 126.38 62.9517 126.343Z" fill="white"/>
<path opacity="0.5" d="M104.198 110.117C104.912 106.985 101.936 107.629 100.726 105.682C99.6349 103.93 100.718 101.322 100.135 99.3183C99.5258 97.2485 97.8741 95.0985 96.5959 93.3995C93.5307 89.3296 89.5515 89.1087 83.2803 88.4722C80.428 88.1816 77.8454 87.4596 75.0312 87.4268C75.6651 94.6067 82.3347 89.2849 87.3567 91.4244C93.8107 94.1753 87.9485 97.8876 89.5265 101.821C99.1378 102.931 92.5799 110.334 95.711 116.138C90.4076 119.555 80.1703 126.384 77.4035 132.204C78.5081 131.808 79.6482 131.35 80.8357 130.811C87.8709 127.612 92.576 121.872 98.0293 117.181C100.451 115.093 103.584 112.801 104.198 110.117Z" fill="#AE9696"/>
<path d="M57.5016 130.773C57.261 130.029 56.4759 128.857 56.0564 127.951C55.9525 127.727 55.5396 126.884 55.516 126.777C55.4121 126.295 55.6475 125.58 55.4555 125.125C55.0662 124.198 53.1398 123.529 52.2048 123.426C51.3382 123.331 49.9956 124.069 49.3828 123.688C49.8575 121.953 49.9903 121.159 52.0575 121.806C53.5829 122.283 54.9058 123.158 56.3878 123.948C57.1703 123.159 58.4063 122.256 59.5767 122.747C58.8903 124.082 58.0789 124.937 57.9448 126.441C57.8317 127.694 58.2091 129.083 57.7765 130.344L57.5016 130.773Z" fill="#277925"/>
<path d="M57.8378 125.532C55.342 129.496 58.2863 133.914 62.1103 135.86C63.0979 136.364 63.591 136.021 64.5601 136.284C65.5201 136.543 66.3656 137.328 67.3348 137.637C69.8241 138.429 72.8446 138.413 75.4194 138.371C78.8962 138.313 82.5704 138.384 85.9696 137.865C90.1185 137.231 93.9938 135.675 98.14 135.006C101.623 134.444 105.262 133.718 108.773 133.663C111.704 133.616 114.445 132.029 117.305 132.48C117.276 130.891 113.916 128.752 112.58 127.992C100.202 120.942 79.033 119.51 76.8172 119.599C74.4739 119.694 72.3594 119.177 70.0713 118.764C65.9567 118.023 61.3213 117.804 58.832 121.624L57.8378 125.532Z" fill="#84CE25"/>
<path opacity="0.3" d="M60.4332 123.863C60.2267 127.45 58.8644 131.921 64.1586 131.64C70.4535 131.306 76.0962 128.317 82.2201 127.345C84.5832 126.972 86.7595 126.87 89.1515 126.799C93.2017 126.68 97.3742 126.636 101.299 127.653C103.509 125.729 98.6918 124.996 97.6937 124.856C95.3741 124.528 93.0202 124.44 90.6861 124.438C86.1849 124.434 80.629 125.382 76.2592 124.288C72.6903 123.393 69.4554 121.045 65.6801 120.787C63.7431 120.654 62.6187 121.685 61.1841 122.223L60.4332 123.863Z" fill="white"/>
<path opacity="0.3" d="M62.9862 128.842C64.0027 129.496 65.5215 128.674 66.6379 128.466C68.2435 128.168 74.0913 128.494 74.6384 126.682C73.0525 125.096 69.7637 125.557 67.7373 125.238C66.3578 125.021 64.1578 123.301 62.7823 124.265C61.6278 125.075 61.8434 128.107 62.9862 128.842Z" fill="white"/>
<path opacity="0.5" d="M116.067 131.072C114.31 130.417 104.591 131.38 101.289 131.64C96.922 131.986 92.359 133.111 88.034 133.736C85.7511 134.067 83.4723 134.386 81.1552 134.533C79.2169 134.658 77.4745 135.651 75.5112 135.308C71.8871 134.674 68.071 135.563 64.2969 134.844C60.373 134.097 58.2966 130.932 57.0539 127.426C56.2978 130.825 58.8962 134.22 62.1193 135.86C63.1068 136.364 63.6 136.021 64.5691 136.284C65.5291 136.543 66.3746 137.328 67.3438 137.637C69.833 138.428 72.8536 138.413 75.4284 138.371C78.9052 138.313 82.5794 138.384 85.9786 137.864C90.1275 137.23 94.0027 135.675 98.1489 135.005C101.632 134.444 105.271 133.718 108.782 133.663C111.713 133.615 114.454 132.028 117.314 132.479C117.306 132.126 117.13 131.753 116.848 131.377C116.596 131.272 116.333 131.172 116.067 131.072Z" fill="#AE9696"/>
<path d="M77.871 160.136C77.2529 159.339 75.3015 159.97 74.4743 159.134C73.8734 158.527 72.945 156.987 72.2559 156.421C71.3078 155.638 69.7771 154.843 68.0545 153.858C54.8598 146.322 84.7984 129.121 95.8602 125.918C99.1871 124.954 103.761 124.625 106.332 125.659C109.739 127.029 108.371 129.855 109.928 131.937C111.588 134.154 113.188 132.802 116.316 133.992C118.636 134.874 120.318 137.979 121.879 139.59C129.853 147.802 113.744 155.718 104.001 161.885C98.9991 165.051 92.5884 170.761 86.7801 171.155C83.3532 171.389 80.7009 169.509 79.1873 167.644C77.4173 165.468 79.1728 161.82 77.871 160.136Z" fill="#963C00"/>
<path opacity="0.3" d="M80.2199 143.75C80.1292 146.622 85.3142 142.819 87.5076 145.649C89.8799 148.711 82.9012 152.119 84.2267 155.965C90.661 155.394 94.1629 154.311 92.5467 161.736C92.3745 162.532 102.345 156.947 103.136 156.235C105.939 153.715 109.003 150.526 110.435 146.941C113.341 139.664 102.396 144.313 98.48 144.143C97.7976 140.124 102.514 137.836 101.867 133.924C100.574 134.018 99.7003 133.24 98.4037 133.301C97.6608 131.305 98.7233 129.451 99.9081 127.892C94.1576 127.562 83.6849 135.092 81.2956 140.384C80.5618 142.005 80.241 143.067 80.2199 143.75Z" fill="white"/>
<path opacity="0.5" d="M116.314 133.99C113.185 132.799 111.585 134.153 109.925 131.934C108.368 129.853 109.736 127.028 106.329 125.656C105.172 125.191 103.608 125.003 101.935 125.025C102.051 125.446 102.206 125.894 102.413 126.384C103.345 128.586 105.345 128.415 106.079 131.177C106.671 133.406 104.885 135.118 105.523 137.507C114.09 136.241 113.04 137.439 112.963 144.464C112.922 147.977 114.959 147.192 113.006 150.662C111.953 152.535 109.447 153.505 107.778 154.803C100.046 160.82 91.0931 164.749 80.5087 165.755C79.5803 163.841 79.863 161.464 80.0629 159.765C78.4573 159.135 76.9582 159.138 75.6484 159.593C76.5032 159.7 77.4697 159.615 77.8721 160.133C79.1753 161.818 77.4184 165.465 79.1871 167.64C80.702 169.505 83.353 171.386 86.7799 171.151C88.8642 171.009 91.0274 170.181 93.1748 169.033C94.1715 168.45 95.1315 167.876 96.0494 167.326C98.8766 165.504 101.6 163.4 104.001 161.881C113.745 155.713 129.854 147.797 121.879 139.586C120.315 137.978 118.633 134.872 116.314 133.99Z" fill="#AE9696"/>
<path d="M81.5679 165.668C81.9124 166.365 81.702 168.085 81.6744 168.876C81.6284 170.169 81.2234 171.406 81.201 172.712C81.1681 174.453 83.0131 177.96 80.2634 177.942C80.0333 177.513 79.218 177.255 78.7512 176.821C78.262 176.366 77.9924 175.775 77.6177 175.259C76.78 174.107 76.0304 172.911 74.4169 172.637C72.9941 172.396 71.1452 172.99 70.0629 173.675C68.6875 174.545 68.8729 175.875 68.3837 177.233C66.6768 177.007 66.8754 175.541 66.2034 174.422C65.2632 172.857 64.8529 172.34 65.5604 170.665C66.978 171.051 68.5941 171.564 70.0051 171.408C71.3122 171.262 72.6048 170.578 73.8659 170.296C74.9074 170.064 75.9647 169.919 76.7984 169.259C77.569 168.646 77.761 167.557 78.5513 166.956C78.8103 166.759 81.4916 165.512 81.5679 165.668Z" fill="#277925"/>
<path d="M119.434 142.351C117.49 148.454 113.804 151.875 109.95 154.322C106.694 156.389 102.399 157.599 98.7172 159.068C97.3601 159.611 90.5984 161.202 88.4326 161.178C86.5206 161.158 84.2193 160.33 82.4901 160.969C79.6563 162.018 78.5846 166.902 78.9764 169.502C79.1092 170.383 79.5866 171.122 79.7746 171.991C79.9679 172.884 79.8549 173.78 79.8864 174.644C79.9403 176.124 79.2 177.721 79.9508 179.265C83.0634 185.667 96.149 180.534 107.717 172.713C113.341 168.909 118.682 163.437 120.858 157.077C124.149 147.463 123.818 139.339 123.406 136.83C123.289 136.121 123.26 133.017 121.911 133.591C121.172 133.908 121.037 137.329 119.434 142.351Z" fill="#84CE25"/>
<path opacity="0.3" d="M90.9807 163.02C96.7838 162.231 100.326 159.634 107.249 158.543C110.437 158.04 107.74 165.526 92.873 172.341C87.6301 174.745 82.7712 172.946 82.0124 169.916C80.0491 162.082 85.1776 163.809 90.9807 163.02Z" fill="white"/>
<path opacity="0.3" d="M88.9328 165.889C92.0652 165.634 94.1718 164.004 97.1318 164.679C98.8834 165.079 97.8196 167.681 89.6377 170.865C86.7512 171.988 84.212 170.902 83.9056 169.28C83.114 165.088 85.8005 166.144 88.9328 165.889Z" fill="white"/>
<path opacity="0.5" d="M79.9507 179.266C79.1998 177.722 79.9402 176.126 79.8863 174.645C79.856 173.781 79.9678 172.886 79.7745 171.993C79.5864 171.123 79.1104 170.383 78.9763 169.503C78.7422 167.948 79.0315 165.579 79.906 163.7C79.7626 166.105 80.2558 168.708 80.77 171.004C81.1829 172.842 81.7693 174.727 82.7806 176.443C84.3231 179.057 86.3942 179.17 88.9874 178.683C91.666 178.181 94.5603 177.418 96.9707 176.377C102.803 173.859 108.716 171.217 112.638 166.506C114.552 164.205 116.221 161.767 117.662 159.123C119.148 156.395 119.723 153.204 120.108 150.208C120.52 147.013 120.845 143.874 121.547 140.718C122.043 138.492 121.785 136.116 121.691 133.802C121.76 133.7 121.832 133.628 121.91 133.595C123.258 133.021 123.288 136.125 123.405 136.834C123.816 139.343 124.148 147.468 120.856 157.081C118.68 163.441 113.34 168.913 107.716 172.717C96.1489 180.535 83.0633 185.669 79.9507 179.266Z" fill="#AE9696"/>
<path d="M93.7258 175.749C97.5892 171.243 104.601 165.732 110.601 162.977C116.511 160.267 120.636 162.061 125.567 162.564C131.84 163.201 135.82 163.422 138.884 167.492C140.164 169.191 141.815 171.342 142.423 173.41C143.005 175.415 141.922 178.023 143.013 179.774C144.223 181.72 147.2 181.077 146.485 184.209C145.872 186.892 142.738 189.185 140.318 191.272C134.864 195.964 130.158 201.703 123.125 204.902C108.408 211.59 100.28 206.871 94.1597 199.604C92.7618 197.944 91.6231 197.483 91.485 195.172C91.3916 193.592 92.4094 191.685 91.8019 190.313C90.0963 186.485 85.365 187.825 89.7058 181.503L93.7258 175.749Z" fill="#963C00"/>
<path opacity="0.3" d="M105.231 200.433C113.857 198.824 110.952 182.812 118.857 186.106C119.252 189.443 119.276 192.877 120.296 196.512C123.015 196.678 128.334 194.818 129.641 192.287C132.154 187.42 127.023 188.708 127.071 184.46C130.283 183.089 134.675 181.551 132.23 177.571C131.215 175.919 128.012 176.561 127.082 174.991C125.626 172.529 128.41 170.254 127.583 168.618C122.315 158.217 107.003 171.025 101.309 174.304C96.9513 176.813 92.5408 178.297 92.984 184.463C93.4403 190.804 96.5305 190.509 100.222 187.106C110.644 177.497 102.06 195.093 104.61 200.521C104.823 200.502 105.029 200.472 105.231 200.433Z" fill="white"/>
<path opacity="0.5" d="M146.484 184.209C147.2 181.077 144.223 181.721 143.013 179.773C141.921 178.023 143.005 175.414 142.422 173.41C141.813 171.342 140.162 169.19 138.884 167.491C135.82 163.421 131.839 163.2 125.567 162.564C122.714 162.273 120.132 161.551 117.32 161.519C117.954 168.698 124.624 163.378 129.644 165.516C136.097 168.267 130.238 171.979 131.814 175.913C141.428 177.022 134.869 184.426 138 190.23C132.695 193.647 122.459 200.475 119.691 206.296C120.796 205.9 121.936 205.442 123.125 204.902C130.159 201.702 134.865 195.964 140.317 191.272C142.739 189.185 145.873 186.891 146.484 184.209Z" fill="#AE9696"/>
<path d="M142.836 230.164C143.829 229.356 144.821 228.548 145.817 227.747L127.086 195.894C125.795 196.208 124.561 196.811 123.51 197.64C123.37 197.802 123.233 197.97 123.102 198.142L142.151 230.54C142.381 230.414 142.608 230.287 142.836 230.164Z" fill="#652000"/>
</svg>
