<svg width="318" height="180" viewBox="0 0 318 180" fill="none" xmlns="http://www.w3.org/2000/svg">
<path d="M158.857 179.395C246.592 179.395 317.715 141.551 317.715 94.8668C317.715 48.183 246.592 10.3384 158.857 10.3384C71.1229 10.3384 0 48.183 0 94.8668C0 141.551 71.1229 179.395 158.857 179.395Z" fill="#A34843"/>
<path d="M317.719 84.9858H0.132812V98.3976H317.719V84.9858Z" fill="#A34843"/>
<path d="M158.857 169.514C246.592 169.514 317.715 131.67 317.715 84.9858C317.715 38.3021 246.592 0.457397 158.857 0.457397C71.1229 0.457397 0 38.3021 0 84.9858C0 131.67 71.1229 169.514 158.857 169.514Z" fill="#C15F5F"/>
<path d="M158.706 156.275C78.6065 156.275 13.4453 123.3 13.4453 82.7659C13.4453 42.2322 78.6093 9.25916 158.706 9.25916C238.805 9.25916 303.969 42.2322 303.969 82.7659C303.966 123.297 238.802 156.275 158.706 156.275ZM158.706 12.8122C80.5664 12.8122 16.9972 44.1928 16.9972 82.7659C16.9972 121.342 80.5692 152.722 158.706 152.722C236.845 152.722 300.414 121.342 300.414 82.7659C300.414 44.1956 236.842 12.8122 158.706 12.8122Z" fill="#A34843"/>
<path d="M302.092 56.065C305.803 61.9858 307.805 68.2748 307.805 75.7713C307.805 88.3715 305.895 100.026 294.721 111.575C283.546 123.124 263.113 134.564 246.02 141.218C230.184 147.382 217.738 145.803 197.319 148.436C186.167 149.875 172.609 154.089 160.623 154.089C133.569 154.089 111.516 147.995 89.733 141.218C73.9 136.293 64.496 136.17 45.309 124.443C35.6793 118.556 32.0409 110.2 25.5365 103.462C16.6818 94.2923 13.445 85.5212 13.445 75.7741C13.445 63.5699 20.4958 50.1079 29.8551 39.8114C35.1384 33.9993 41.3835 27.8833 48.8581 22.8633C38.5593 28.5191 30.3096 36.4229 23.5626 43.8441C13.8743 54.5032 6.57812 68.4365 6.57812 81.0702C6.57812 91.1576 9.9293 100.238 19.0935 109.732C25.8265 116.707 29.5931 125.355 39.5602 131.449C59.4219 143.589 69.1548 143.714 85.5426 148.812C108.089 155.829 130.917 162.135 158.923 162.135C171.327 162.135 185.361 157.773 196.904 156.284C218.04 153.559 230.92 155.19 247.314 148.812C265.006 141.927 286.159 130.085 297.723 118.132C309.288 106.179 311.265 94.1166 311.265 81.073C311.267 71.3398 308.011 63.5727 302.092 56.065Z" fill="#F4B12C"/>
<path d="M29.8555 39.8086C20.4962 50.1052 13.4453 63.5671 13.4453 75.7713C13.4453 85.5185 16.6822 94.2895 25.5369 103.459C32.0413 110.197 35.6796 118.553 45.3094 124.44C64.4964 136.17 73.9003 136.29 89.7334 141.215C111.516 147.992 133.569 154.086 160.624 154.086C172.607 154.086 186.165 149.872 197.32 148.433C217.739 145.8 230.184 147.379 246.02 141.215C263.114 134.564 283.55 123.121 294.721 111.572C305.895 100.023 307.805 88.3687 307.805 75.7685C307.805 68.2748 305.801 61.983 302.093 56.0622C298.716 51.7813 294.484 47.5812 289.474 43.1553C280.182 34.942 268.296 23.8366 254.32 17.8573C239.268 11.4177 222.01 5.37698 202.912 3.43033C184.709 1.57572 169.119 0 153.824 0C117.482 0 94.5566 9.25911 64.2343 16.7863C58.65 18.1724 53.5396 20.2836 48.8529 22.8577C41.3839 27.8777 35.1387 33.9966 29.8555 39.8086Z" fill="#FFCA61"/>
<path opacity="0.5" d="M92.928 16.2285C90.9318 16.3485 69.5924 17.7178 60.9691 21.1788C52.9146 24.4139 47.3609 30.6582 41.2245 36.5484C30.3569 46.9816 15.9262 56.6033 21.0756 73.6824C21.7447 75.9052 25.1071 74.9849 24.5551 72.7231C23.3451 67.7644 29.5344 56.7455 33.0222 52.9749C34.9961 50.8414 37.6224 49.1235 39.8333 47.241C45.2587 42.6198 50.397 37.385 56.3215 33.4137C67.4596 25.9506 81.4916 24.3414 93.4828 18.2672C94.4362 17.7875 94.0014 16.1644 92.928 16.2285Z" fill="#FFE3A6"/>
<path opacity="0.5" d="M216.366 15.9468C213.634 15.5313 210.938 14.9819 208.253 14.3739C193.231 9.7332 179.383 4.43152 163.046 5.66142C158.047 6.03792 138.104 5.17615 138.84 13.9249C139.651 23.5633 158.256 15.8939 162.404 15.0879C175.371 12.5639 187.178 15.5871 199.644 18.7831C206.382 20.5095 210.598 21.9513 216.706 18.5405C217.688 17.9883 217.607 16.1337 216.366 15.9468Z" fill="#FFE3A6"/>
<path opacity="0.5" d="M262.033 123.835C259.15 122.388 256.638 123.514 254.025 124.747C247.081 125.692 230.065 129.781 233.793 135.914C236.015 139.57 245.19 135.225 247.976 134.489C253.423 133.044 258.679 131.234 262.417 126.805C263.148 125.938 263.204 124.421 262.033 123.835Z" fill="#FFE3A6"/>
<path opacity="0.5" d="M292.554 102.369C289.537 102.829 286.838 105.64 284.591 107.59C281.469 110.298 272.455 118.581 271.702 119.289C270.584 120.341 272.001 121.894 273.255 121.3C277.46 119.309 282.308 117.641 286.024 114.802C289.356 112.256 292.309 108.29 294.269 104.6C294.935 103.339 293.839 102.174 292.554 102.369Z" fill="#FFE3A6"/>
<path opacity="0.5" d="M182.495 141.009C181.945 140.778 181.413 140.635 180.894 140.557C180.883 140.437 180.83 140.32 180.735 140.256C178.165 138.546 173.361 139.854 170.721 140.867C168.148 141.854 165.513 143.195 165.477 146.286C165.468 146.991 166.009 147.792 166.734 147.937C172.469 149.088 178.234 147.92 182.941 144.398C184.293 143.385 184.017 141.65 182.495 141.009Z" fill="#FFE3A6"/>
<path opacity="0.5" d="M282.52 44.717C280.058 39.5129 264.32 28.3155 261.73 27.3729C260.47 26.9155 258.998 28.3602 259.475 29.6291C260.319 31.8769 261.725 33.0957 263.623 34.4985C266.263 36.4507 267.418 38.9328 269.079 41.6576C271.979 46.4098 275.921 48.2728 281.458 47.3218C282.682 47.1154 282.961 45.6485 282.52 44.717Z" fill="#FFE3A6"/>
<path opacity="0.5" d="M300.937 67.4437C300.865 67.3098 300.745 67.2457 300.625 67.1787C300.608 66.7632 300.098 66.4759 299.724 66.6879C296.309 68.6317 298.004 71.2254 298.104 74.5191C298.174 76.8032 296.284 81.5303 299.225 82.8662C304.207 85.1224 302.08 69.5939 300.937 67.4437Z" fill="#FFE3A6"/>
<path opacity="0.5" d="M49.1515 118.578C48.6107 117.981 42.6973 111.115 39.2123 109.02C38.5488 108.622 37.5088 108.705 36.9763 109.31C34.548 112.058 37.6761 114.911 39.8034 116.617C42.2234 118.558 45.4714 120.887 48.711 120.248C49.4889 120.095 49.6199 119.097 49.1515 118.578Z" fill="#FFE3A6"/>
<path opacity="0.5" d="M88.6568 24.8434C77.7501 25.0777 71.8117 32.7806 69.4697 36.8022C67.1278 40.8238 56.2295 47.7848 46.9427 50.992C33.2369 55.7248 28.1627 63.3134 28.3077 74.6837C28.3941 81.4913 42.2979 87.9281 43.0813 97.3322C44.5004 114.364 59.6142 123.944 73.122 125.16C86.6299 126.376 132.579 131.438 139.842 135.816C147.104 140.195 171.633 131.806 181.846 136.064C192.061 140.323 220.423 121.944 226.119 123.04C231.815 124.136 263.565 121.233 275.832 111.664C288.099 102.096 287.884 104.299 291.174 90.0783C293.24 81.1511 297.723 69.6162 291.174 61.6735C283.666 52.5678 271.982 53.3542 264.78 43.3644C257.579 33.3746 254.665 30.6583 237.221 25.7582C219.779 20.8581 188.93 27.3116 181.115 27.2279C173.3 27.1443 165.901 16.0222 148.32 15.6903C130.739 15.3556 88.6568 24.8434 88.6568 24.8434Z" fill="#EF622B"/>
<path opacity="0.8" d="M107.719 28.3575C98.1589 32.0611 86.1538 49.1514 76.7973 53.2762C67.4408 57.3981 46.5558 53.028 46.9991 75.0546C47.4424 97.0813 58.2459 102.542 65.5115 110.752C72.7742 118.963 105.232 124.552 114.798 124.248C124.363 123.947 157.725 132.581 174.664 125.481C191.604 118.38 202.776 123.277 214.505 120.594C226.231 117.911 249.653 111.963 255.904 103.975C262.155 95.988 289.092 86.846 277.977 73.2084C266.864 59.5735 258.204 58.8595 253.018 53.622C247.833 48.3845 254.507 40.0178 232.808 36.3281C211.109 32.6412 185.705 38.4002 176.605 32.7444C167.505 27.0857 164.078 22.9665 145.402 24.8435C126.73 26.7204 117.279 24.651 107.719 28.3575Z" fill="#ED2B2B"/>
<path d="M165.737 131.429H110.008V134.438H165.737V131.429Z" fill="#5E8E11"/>
<path d="M165.734 133.911C165.734 142.099 153.258 148.737 137.871 148.737C122.481 148.737 110.008 142.099 110.008 133.911C110.008 125.723 122.484 119.086 137.871 119.086C153.261 119.086 165.734 125.723 165.734 133.911Z" fill="#5E8E11"/>
<path d="M137.871 146.406C153.26 146.406 165.734 139.768 165.734 131.58C165.734 123.392 153.26 116.754 137.871 116.754C122.483 116.754 110.008 123.392 110.008 131.58C110.008 139.768 122.483 146.406 137.871 146.406Z" fill="#BED134"/>
<path d="M137.872 144.074C151.656 144.074 162.83 138.48 162.83 131.58C162.83 124.679 151.656 119.086 137.872 119.086C124.088 119.086 112.914 124.679 112.914 131.58C112.914 138.48 124.088 144.074 137.872 144.074Z" fill="#71AA21"/>
<path d="M136.578 130.484C136.578 130.484 131.297 123.403 124.364 123.944C115.099 124.666 116.345 127.974 118.807 130.484C121.11 132.832 129.139 132.5 136.578 130.484Z" fill="#5E8E11"/>
<path d="M138.68 130.361C138.68 130.361 145.008 124.797 151.965 124.764C159.13 124.73 159.537 127.921 157.133 130.486C154.156 133.66 146.118 132.377 138.68 130.361Z" fill="#5E8E11"/>
<path d="M136.577 131.58C136.577 131.58 126.406 133.987 123.339 135.102C120.273 136.218 122.949 140.485 129.378 140.549C137.742 140.632 136.577 131.58 136.577 131.58Z" fill="#5E8E11"/>
<path d="M138.478 131.58C138.478 131.58 148.736 133.772 151.716 135.102C155.413 136.756 150.266 140.485 143.84 140.549C135.473 140.632 138.478 131.58 138.478 131.58Z" fill="#5E8E11"/>
<path d="M137.87 129.153C137.87 129.153 133.613 125.374 132.685 123.916C131.756 122.457 133.833 120.441 138.679 120.413C145.37 120.374 145.931 122.337 143.697 124.783C141.467 127.229 137.87 129.153 137.87 129.153Z" fill="#5E8E11"/>
<path d="M215.12 68.6401H159.391V71.6493H215.12V68.6401Z" fill="#5E8E11"/>
<path d="M215.117 71.1222C215.117 79.3104 202.641 85.948 187.254 85.948C171.864 85.948 159.391 79.3104 159.391 71.1222C159.391 62.9341 171.867 56.2965 187.254 56.2965C202.644 56.2965 215.117 62.9341 215.117 71.1222Z" fill="#5E8E11"/>
<path d="M215.117 68.7907C215.117 76.9789 202.641 83.6164 187.254 83.6164C171.864 83.6164 159.391 76.9789 159.391 68.7907C159.391 60.6025 171.867 53.965 187.254 53.965C202.644 53.965 215.117 60.6025 215.117 68.7907Z" fill="#BED134"/>
<path d="M212.213 68.7908C212.213 75.6905 201.039 81.285 187.255 81.285C173.471 81.285 162.297 75.6905 162.297 68.7908C162.297 61.891 173.471 56.2993 187.255 56.2993C201.039 56.2965 212.213 61.891 212.213 68.7908Z" fill="#71AA21"/>
<path d="M185.961 67.6947C185.961 67.6947 180.683 60.6137 173.746 61.1547C164.482 61.8771 165.728 65.1847 168.19 67.6947C170.493 70.0429 178.522 69.7111 185.961 67.6947Z" fill="#5E8E11"/>
<path d="M188.062 67.5719C188.062 67.5719 194.391 62.0081 201.347 61.9746C208.513 61.9412 208.919 65.1316 206.516 67.6946C203.539 70.8712 195.498 69.5883 188.062 67.5719Z" fill="#5E8E11"/>
<path d="M185.96 68.7906C185.96 68.7906 175.789 71.1975 172.722 72.313C169.655 73.4286 172.332 77.6956 178.761 77.7597C187.125 77.8434 185.96 68.7906 185.96 68.7906Z" fill="#5E8E11"/>
<path d="M187.861 68.7906C187.861 68.7906 198.118 70.9827 201.099 72.313C204.796 73.9668 199.649 77.6956 193.223 77.7597C184.856 77.8434 187.861 68.7906 187.861 68.7906Z" fill="#5E8E11"/>
<path d="M187.253 66.3644C187.253 66.3644 182.996 62.5854 182.068 61.1268C181.139 59.6682 183.216 57.6519 188.062 57.624C194.753 57.5849 195.311 59.5483 193.08 61.9942C190.853 64.44 187.253 66.3644 187.253 66.3644Z" fill="#5E8E11"/>
<path d="M100.18 48.3398H44.4531V51.3491H100.18V48.3398Z" fill="#5E8E11"/>
<path d="M100.18 50.8219C100.18 59.0101 87.7034 65.6477 72.3164 65.6477C56.9266 65.6477 44.4531 59.0101 44.4531 50.8219C44.4531 42.6338 56.9294 35.9962 72.3164 35.9962C87.7062 35.9962 100.18 42.6338 100.18 50.8219Z" fill="#5E8E11"/>
<path d="M100.18 48.4876C100.18 56.6758 87.7034 63.3133 72.3164 63.3133C56.9266 63.3133 44.4531 56.6758 44.4531 48.4876C44.4531 40.2994 56.9294 33.6619 72.3164 33.6619C87.7062 33.6619 100.18 40.2994 100.18 48.4876Z" fill="#BED134"/>
<path d="M97.2757 48.4876C97.2757 55.3874 86.1015 60.9819 72.3176 60.9819C58.5337 60.9819 47.3594 55.3874 47.3594 48.4876C47.3594 41.5879 58.5337 35.9962 72.3176 35.9962C86.1015 35.9962 97.2757 41.5879 97.2757 48.4876Z" fill="#71AA21"/>
<path d="M71.0223 47.3944C71.0223 47.3944 65.7446 40.3134 58.808 40.8544C49.5463 41.5768 50.7898 44.8844 53.2516 47.3944C55.5545 49.7426 63.5839 49.4108 71.0223 47.3944Z" fill="#5E8E11"/>
<path d="M73.125 47.2716C73.125 47.2716 79.4538 41.705 86.4098 41.6743C93.575 41.6409 93.982 44.8314 91.5788 47.3943C88.6012 50.5709 80.5634 49.2852 73.125 47.2716Z" fill="#5E8E11"/>
<path d="M71.0293 48.4875C71.0293 48.4875 60.8588 50.8944 57.792 52.0099C54.7252 53.1255 57.4044 57.3925 63.8308 57.4566C72.1948 57.5431 71.0293 48.4875 71.0293 48.4875Z" fill="#5E8E11"/>
<path d="M72.9237 48.4875C72.9237 48.4875 83.1808 50.6796 86.1612 52.0099C89.8581 53.6637 84.7114 57.3925 78.2851 57.4566C69.9183 57.5431 72.9237 48.4875 72.9237 48.4875Z" fill="#5E8E11"/>
<path d="M72.3157 46.0641C72.3157 46.0641 68.0584 42.2851 67.13 40.8265C66.2016 39.3679 68.2787 37.3516 73.1242 37.3237C79.8154 37.2846 80.3758 39.248 78.1426 41.6939C75.9122 44.1369 72.3157 46.0641 72.3157 46.0641Z" fill="#5E8E11"/>
<path d="M125.792 90.9346H70.0625V93.9438H125.792V90.9346Z" fill="#5E8E11"/>
<path d="M125.789 93.4167C125.789 101.605 113.313 108.242 97.9257 108.242C82.5388 108.242 70.0625 101.605 70.0625 93.4167C70.0625 85.2285 82.5388 78.5909 97.9257 78.5909C113.313 78.5909 125.789 85.2285 125.789 93.4167Z" fill="#5E8E11"/>
<path d="M125.789 91.0851C125.789 99.2733 113.313 105.911 97.9257 105.911C82.5388 105.911 70.0625 99.2733 70.0625 91.0851C70.0625 82.897 82.5388 76.2594 97.9257 76.2594C113.313 76.2594 125.789 82.897 125.789 91.0851Z" fill="#BED134"/>
<path d="M122.885 91.0852C122.885 97.9849 111.711 103.579 97.9269 103.579C84.143 103.579 72.9688 97.9849 72.9688 91.0852C72.9688 84.1855 84.143 78.5938 97.9269 78.5938C111.711 78.591 122.885 84.1855 122.885 91.0852Z" fill="#71AA21"/>
<path d="M96.6402 89.9891C96.6402 89.9891 91.3598 82.9081 84.426 83.4492C75.1615 84.1715 76.4078 87.4791 78.8696 89.9891C81.1724 92.3374 89.2019 92.0055 96.6402 89.9891Z" fill="#5E8E11"/>
<path d="M98.7344 89.8664C98.7344 89.8664 105.063 84.2997 112.019 84.2691C119.184 84.2356 119.591 87.4261 117.188 89.9891C114.211 93.1656 106.173 91.8827 98.7344 89.8664Z" fill="#5E8E11"/>
<path d="M96.6388 91.0851C96.6388 91.0851 86.4681 93.4919 83.4013 94.6075C80.3345 95.723 83.0138 99.99 89.4401 100.054C97.8041 100.138 96.6388 91.0851 96.6388 91.0851Z" fill="#5E8E11"/>
<path d="M98.5331 91.0851C98.5331 91.0851 108.79 93.2772 111.771 94.6075C115.467 96.2613 110.321 99.99 103.894 100.054C95.5277 100.138 98.5331 91.0851 98.5331 91.0851Z" fill="#5E8E11"/>
<path d="M97.9251 88.6588C97.9251 88.6588 93.6678 84.8799 92.7394 83.4213C91.811 81.9627 93.8881 79.9463 98.7336 79.9184C105.425 79.8794 105.985 81.8428 103.752 84.2886C101.522 86.7345 97.9251 88.6588 97.9251 88.6588Z" fill="#5E8E11"/>
<path d="M159.167 45.1912H103.438V48.2004H159.167V45.1912Z" fill="#5E8E11"/>
<path d="M159.164 47.6733C159.164 55.8614 146.688 62.499 131.301 62.499C115.911 62.499 103.438 55.8614 103.438 47.6733C103.438 39.4851 115.914 32.8475 131.301 32.8475C146.688 32.8475 159.164 39.4851 159.164 47.6733Z" fill="#5E8E11"/>
<path d="M131.301 60.1675C146.689 60.1675 159.164 53.5298 159.164 45.3417C159.164 37.1537 146.689 30.516 131.301 30.516C115.912 30.516 103.438 37.1537 103.438 45.3417C103.438 53.5298 115.912 60.1675 131.301 60.1675Z" fill="#BED134"/>
<path d="M156.26 45.3418C156.26 52.2415 145.086 57.836 131.302 57.836C117.518 57.836 106.344 52.2415 106.344 45.3418C106.344 38.4421 117.518 32.8503 131.302 32.8503C145.086 32.8503 156.26 38.4421 156.26 45.3418Z" fill="#71AA21"/>
<path d="M130.007 44.2457C130.007 44.2457 124.73 37.1647 117.793 37.7058C108.529 38.4281 109.775 41.7357 112.237 44.2457C114.542 46.594 122.569 46.2621 130.007 44.2457Z" fill="#5E8E11"/>
<path d="M132.109 44.123C132.109 44.123 138.438 38.5563 145.394 38.5257C152.559 38.4922 152.966 41.6827 150.563 44.2457C147.586 47.4222 139.545 46.1393 132.109 44.123Z" fill="#5E8E11"/>
<path d="M130.014 45.3417C130.014 45.3417 119.843 47.7485 116.776 48.864C113.71 49.9796 116.389 54.2466 122.815 54.3107C131.182 54.3944 130.014 45.3417 130.014 45.3417Z" fill="#5E8E11"/>
<path d="M131.907 45.3417C131.907 45.3417 142.164 47.5337 145.145 48.864C148.842 50.5178 143.695 54.2466 137.269 54.3107C128.905 54.3944 131.907 45.3417 131.907 45.3417Z" fill="#5E8E11"/>
<path d="M131.3 42.9154C131.3 42.9154 127.043 39.1364 126.114 37.6779C125.186 36.2193 127.263 34.2029 132.109 34.175C138.8 34.136 139.36 36.0993 137.127 38.5452C134.899 40.9911 131.3 42.9154 131.3 42.9154Z" fill="#5E8E11"/>
<path d="M214.432 28.0311H158.703V31.0403H214.432V28.0311Z" fill="#5E8E11"/>
<path d="M186.566 45.339C201.955 45.339 214.43 38.7013 214.43 30.5132C214.43 22.3252 201.955 15.6875 186.566 15.6875C171.178 15.6875 158.703 22.3252 158.703 30.5132C158.703 38.7013 171.178 45.339 186.566 45.339Z" fill="#5E8E11"/>
<path d="M186.566 43.0074C201.955 43.0074 214.43 36.3697 214.43 28.1817C214.43 19.9937 201.955 13.356 186.566 13.356C171.178 13.356 158.703 19.9937 158.703 28.1817C158.703 36.3697 171.178 43.0074 186.566 43.0074Z" fill="#BED134"/>
<path d="M211.526 28.1817C211.526 35.0814 200.351 40.6759 186.568 40.6759C172.784 40.6759 161.609 35.0814 161.609 28.1817C161.609 21.282 172.784 15.6875 186.568 15.6875C200.351 15.6875 211.526 21.282 211.526 28.1817Z" fill="#71AA21"/>
<path d="M185.272 27.0857C185.272 27.0857 179.995 20.0047 173.058 20.5457C163.796 21.2681 165.04 24.5757 167.502 27.0857C169.804 29.4367 177.834 29.102 185.272 27.0857Z" fill="#5E8E11"/>
<path d="M187.375 26.9629C187.375 26.9629 193.704 21.3963 200.66 21.3656C207.825 21.3322 208.232 24.5226 205.829 27.0884C202.854 30.2622 194.813 28.9793 187.375 26.9629Z" fill="#5E8E11"/>
<path d="M185.279 28.1816C185.279 28.1816 175.109 30.5885 172.042 31.704C168.975 32.8196 171.654 37.0866 178.081 37.1507C186.445 37.2344 185.279 28.1816 185.279 28.1816Z" fill="#5E8E11"/>
<path d="M187.174 28.1816C187.174 28.1816 197.431 30.3737 200.411 31.704C204.108 33.3578 198.961 37.0866 192.535 37.1507C184.168 37.2344 187.174 28.1816 187.174 28.1816Z" fill="#5E8E11"/>
<path d="M186.566 25.7554C186.566 25.7554 182.308 21.9764 181.38 20.5178C180.452 19.0592 182.529 17.0429 187.374 17.015C194.068 16.9759 194.626 18.9393 192.393 21.3852C190.165 23.831 186.566 25.7554 186.566 25.7554Z" fill="#5E8E11"/>
<path d="M280.886 55.9005H225.156V58.9097H280.886V55.9005Z" fill="#5E8E11"/>
<path d="M280.883 58.3826C280.883 66.5708 268.407 73.2084 253.02 73.2084C237.63 73.2084 225.156 66.5708 225.156 58.3826C225.156 50.1944 237.633 43.5569 253.02 43.5569C268.409 43.5541 280.883 50.1917 280.883 58.3826Z" fill="#5E8E11"/>
<path d="M253.02 70.874C268.408 70.874 280.883 64.2363 280.883 56.0483C280.883 47.8602 268.408 41.2225 253.02 41.2225C237.631 41.2225 225.156 47.8602 225.156 56.0483C225.156 64.2363 237.631 70.874 253.02 70.874Z" fill="#BED134"/>
<path d="M277.979 56.0483C277.979 62.948 266.805 68.5425 253.021 68.5425C239.237 68.5425 228.062 62.948 228.062 56.0483C228.062 49.1486 239.237 43.5541 253.021 43.5541C266.805 43.5541 277.979 49.1486 277.979 56.0483Z" fill="#71AA21"/>
<path d="M251.726 54.9523C251.726 54.9523 246.449 47.8713 239.512 48.4123C230.247 49.1346 231.494 52.4423 233.955 54.9523C236.258 57.3033 244.288 56.9686 251.726 54.9523Z" fill="#5E8E11"/>
<path d="M253.828 54.8295C253.828 54.8295 260.157 49.2629 267.113 49.2322C274.278 49.1987 274.685 52.3892 272.282 54.955C269.304 58.1288 261.267 56.8459 253.828 54.8295Z" fill="#5E8E11"/>
<path d="M251.725 56.0482C251.725 56.0482 241.555 58.455 238.488 59.5706C235.421 60.6861 238.097 64.9531 244.527 65.0173C252.891 65.1009 251.725 56.0482 251.725 56.0482Z" fill="#5E8E11"/>
<path d="M253.627 56.0482C253.627 56.0482 263.884 58.2403 266.864 59.5706C270.561 61.2244 265.415 64.9531 258.988 65.0173C250.621 65.1009 253.627 56.0482 253.627 56.0482Z" fill="#5E8E11"/>
<path d="M253.019 53.6219C253.019 53.6219 248.762 49.843 247.833 48.3844C246.905 46.9258 248.982 44.9094 253.827 44.8816C260.521 44.8425 261.079 46.8059 258.846 49.2517C256.618 51.6976 253.019 53.6219 253.019 53.6219Z" fill="#5E8E11"/>
<path d="M132.82 118.793H69.4688V122.215H132.82V118.793Z" fill="#ED2B2B"/>
<path d="M132.818 121.615C132.818 130.924 118.635 138.471 101.143 138.471C83.6513 138.471 69.4688 130.924 69.4688 121.615C69.4688 112.306 83.6513 104.762 101.143 104.762C118.635 104.762 132.818 112.306 132.818 121.615Z" fill="#ED2B2B"/>
<path d="M132.818 118.96C132.818 128.269 118.635 135.816 101.143 135.816C83.6513 135.816 69.4688 128.269 69.4688 118.96C69.4688 109.651 83.6513 102.107 101.143 102.107C118.635 102.107 132.818 109.654 132.818 118.96Z" fill="#FF6969"/>
<path d="M129.52 118.96C129.52 126.805 116.818 133.161 101.147 133.161C85.4755 133.161 72.7734 126.802 72.7734 118.96C72.7734 111.118 85.4755 104.759 101.147 104.759C116.818 104.759 129.52 111.118 129.52 118.96Z" fill="#FF4343"/>
<path d="M82.274 126.181C79.5669 126.267 71.5792 117.036 82.0147 110.772C92.4502 104.508 106.505 106.564 109.396 107.25C113.463 108.217 109.167 111.988 104.355 112.342C102.164 112.504 96.9835 113.145 93.9055 114.492C90.2254 116.102 88.8063 118.533 88.9262 119.774C89.1464 122.056 84.5797 126.108 82.274 126.181Z" fill="#ED2B2B"/>
<path d="M91.8292 122.474C88.9074 124.014 84.4159 128.052 89.4259 129.516C100.057 132.626 110.846 130.852 118.555 127.21C126.264 123.567 128.095 117.568 123.601 113.352C120.336 110.289 117.094 110.024 115.265 111.213C111.013 113.974 114.749 118.874 106.488 120.502C101.626 121.462 95.1497 120.725 91.8292 122.474Z" fill="#ED2B2B"/>
<path d="M103.696 110.769C103.696 110.769 105.901 107.894 103.239 107.958C101.485 108 103.696 110.769 103.696 110.769Z" fill="#FF6969"/>
<path d="M100.703 111.137C100.703 111.137 100.703 107.484 97.8536 107.93C95.98 108.226 100.703 111.137 100.703 111.137Z" fill="#FF6969"/>
<path d="M96.4906 111.486C96.4906 111.486 94.6422 108.164 92.5819 108.822C90.5188 109.481 96.4906 111.486 96.4906 111.486Z" fill="#FF6969"/>
<path d="M92.1999 113.103C92.1999 113.103 90.0142 109.151 87.1732 110.331C84.3322 111.511 92.1999 113.103 92.1999 113.103Z" fill="#FF6969"/>
<path d="M88.8734 115.438C88.8734 115.438 85.408 111.31 82.2297 113.354C80.108 114.715 88.8734 115.438 88.8734 115.438Z" fill="#FF6969"/>
<path d="M86.9406 117.847C86.9406 117.847 81.8553 116.093 80.1351 117.317C78.4177 118.539 83.319 120.249 86.9406 117.847Z" fill="#FF6969"/>
<path d="M86.5549 120.502C86.5549 120.502 82.9751 120.647 81.2968 121.796C80.4604 122.368 81.2968 123.754 82.9752 123.428C85.8858 122.867 86.5549 120.502 86.5549 120.502Z" fill="#FF6969"/>
<path d="M115.094 114.11C115.094 114.11 116.683 112.668 118.746 112.785C120.809 112.9 121.796 114.233 119.348 114.406C116.898 114.576 115.094 114.11 115.094 114.11Z" fill="#FF6969"/>
<path d="M93.9052 123.258C93.7407 123.344 91.3792 124.761 90.6906 125.921C90.002 127.081 92.6673 128.286 93.4842 126.18C94.2983 124.075 93.9052 123.258 93.9052 123.258Z" fill="#FF6969"/>
<path d="M97.6922 123.258C97.6922 123.258 96.708 124.376 96.7944 126.18C96.8809 127.985 99.22 128.414 99.0611 126.18C98.8994 123.944 97.6922 123.258 97.6922 123.258Z" fill="#FF6969"/>
<path d="M101.734 122.792C101.734 122.792 101.776 124.719 102.25 126.18C102.724 127.642 106.117 128.414 104.743 125.835C103.368 123.258 101.734 122.792 101.734 122.792Z" fill="#FF6969"/>
<path d="M106.594 122.441C106.594 122.441 107.53 124.591 109.337 126.18C111.141 127.77 113.031 126.568 111.356 124.761C109.68 122.956 106.594 122.441 106.594 122.441Z" fill="#FF6969"/>
<path d="M110.844 120.837C110.844 120.837 112.648 123.043 114.797 124.245C116.947 125.447 119.093 124.287 116.517 122.784C113.938 121.28 110.844 120.837 110.844 120.837Z" fill="#FF6969"/>
<path d="M113.977 118.411C113.977 118.411 117.629 120.882 119.907 121.239C122.184 121.596 123.645 119.175 121.066 118.745C118.488 118.316 113.977 118.411 113.977 118.411Z" fill="#FF6969"/>
<path d="M115.414 116.458C115.414 116.458 118.489 115.479 120.338 115.694C122.186 115.909 123.775 117.156 121.799 117.242C119.822 117.326 115.414 116.458 115.414 116.458Z" fill="#FF6969"/>
<path d="M223.727 126.033H160.375V129.455H223.727V126.033Z" fill="#ED2B2B"/>
<path d="M223.727 128.852C223.727 138.162 209.544 145.708 192.052 145.708C174.558 145.708 160.375 138.162 160.375 128.852C160.375 119.543 174.558 111.999 192.052 111.999C209.547 111.999 223.727 119.546 223.727 128.852Z" fill="#ED2B2B"/>
<path d="M223.727 126.2C223.727 135.509 209.544 143.053 192.052 143.053C174.558 143.053 160.375 135.507 160.375 126.2C160.375 116.894 174.558 109.347 192.052 109.347C209.547 109.347 223.727 116.894 223.727 126.2Z" fill="#FF6969"/>
<path d="M220.427 126.2C220.427 134.042 207.725 140.401 192.053 140.401C176.382 140.401 163.68 134.042 163.68 126.2C163.68 118.355 176.382 111.999 192.053 111.999C207.722 111.999 220.427 118.358 220.427 126.2Z" fill="#FF4343"/>
<path d="M173.18 133.42C170.473 133.507 162.485 124.276 172.921 118.012C183.356 111.748 197.411 113.801 200.302 114.489C204.37 115.457 200.073 119.228 195.261 119.582C193.07 119.744 187.89 120.382 184.812 121.729C181.132 123.339 179.713 125.771 179.832 127.012C180.053 129.293 175.486 133.348 173.18 133.42Z" fill="#ED2B2B"/>
<path d="M182.735 129.714C179.814 131.253 175.322 135.292 180.332 136.756C190.963 139.866 201.752 138.092 209.461 134.45C217.17 130.807 219.002 124.808 214.508 120.592C211.243 117.529 208 117.264 206.171 118.453C201.922 121.214 205.656 126.114 197.395 127.742C192.533 128.702 186.056 127.965 182.735 129.714Z" fill="#ED2B2B"/>
<path d="M194.602 118.012C194.602 118.012 196.808 115.134 194.145 115.198C192.391 115.24 194.602 118.012 194.602 118.012Z" fill="#FF6969"/>
<path d="M191.61 118.377C191.61 118.377 191.61 114.724 188.761 115.17C186.884 115.466 191.61 118.377 191.61 118.377Z" fill="#FF6969"/>
<path d="M187.397 118.726C187.397 118.726 185.548 115.404 183.488 116.062C181.425 116.721 187.397 118.726 187.397 118.726Z" fill="#FF6969"/>
<path d="M183.106 120.343C183.106 120.343 180.92 116.391 178.079 117.571C175.238 118.751 183.106 120.343 183.106 120.343Z" fill="#FF6969"/>
<path d="M179.78 122.678C179.78 122.678 176.314 118.55 173.136 120.594C171.014 121.953 179.78 122.678 179.78 122.678Z" fill="#FF6969"/>
<path d="M177.847 125.087C177.847 125.087 172.762 123.336 171.041 124.557C169.324 125.779 174.225 127.489 177.847 125.087Z" fill="#FF6969"/>
<path d="M177.461 127.742C177.461 127.742 173.881 127.887 172.203 129.036C171.367 129.608 172.203 130.994 173.881 130.671C176.792 130.107 177.461 127.742 177.461 127.742Z" fill="#FF6969"/>
<path d="M206 121.35C206 121.35 207.589 119.908 209.652 120.023C211.715 120.137 212.702 121.47 210.254 121.643C207.804 121.816 206 121.35 206 121.35Z" fill="#FF6969"/>
<path d="M184.811 130.498C184.647 130.584 182.285 132.001 181.597 133.161C180.908 134.321 183.574 135.526 184.39 133.42C185.205 131.315 184.811 130.498 184.811 130.498Z" fill="#FF6969"/>
<path d="M188.598 130.498C188.598 130.498 187.614 131.616 187.701 133.42C187.787 135.225 190.126 135.654 189.967 133.42C189.806 131.184 188.598 130.498 188.598 130.498Z" fill="#FF6969"/>
<path d="M192.641 130.032C192.641 130.032 192.682 131.959 193.156 133.42C193.63 134.882 197.023 135.654 195.649 133.075C194.274 130.498 192.641 130.032 192.641 130.032Z" fill="#FF6969"/>
<path d="M197.5 129.681C197.5 129.681 198.437 131.831 200.243 133.42C202.047 135.01 203.938 133.805 202.262 132.001C200.586 130.196 197.5 129.681 197.5 129.681Z" fill="#FF6969"/>
<path d="M201.75 128.077C201.75 128.077 203.554 130.283 205.703 131.485C207.853 132.687 210 131.527 207.424 130.024C204.845 128.52 201.75 128.077 201.75 128.077Z" fill="#FF6969"/>
<path d="M204.883 125.651C204.883 125.651 208.535 128.122 210.81 128.479C213.088 128.836 214.549 126.415 211.97 125.985C209.394 125.556 204.883 125.651 204.883 125.651Z" fill="#FF6969"/>
<path d="M206.32 123.698C206.32 123.698 209.395 122.719 211.244 122.934C213.092 123.149 214.682 124.396 212.705 124.482C210.728 124.566 206.32 123.698 206.32 123.698Z" fill="#FF6969"/>
<path d="M79.1096 82.7073H15.7578V86.1292H79.1096V82.7073Z" fill="#ED2B2B"/>
<path d="M79.1123 85.5296C79.1123 94.839 64.9298 102.383 47.4351 102.383C29.9404 102.383 15.7578 94.8362 15.7578 85.5296C15.7578 76.2203 29.9404 68.6764 47.4351 68.6764C64.9326 68.6736 79.1123 76.2203 79.1123 85.5296Z" fill="#ED2B2B"/>
<path d="M79.1123 82.8746C79.1123 92.1839 64.9298 99.7279 47.4351 99.7279C29.9404 99.7279 15.7578 92.1811 15.7578 82.8746C15.7578 73.5681 29.9404 66.0214 47.4351 66.0214C64.9326 66.0214 79.1123 73.5681 79.1123 82.8746Z" fill="#FF6969"/>
<path d="M75.8094 82.8746C75.8094 90.717 63.1073 97.0756 47.4359 97.0756C31.7646 97.0756 19.0625 90.717 19.0625 82.8746C19.0625 75.0295 31.7646 68.6736 47.4359 68.6736C63.1045 68.6736 75.8094 75.0323 75.8094 82.8746Z" fill="#FF4343"/>
<path d="M28.5624 90.095C25.8552 90.1815 17.8676 80.9503 28.3059 74.6864C38.7414 68.4226 52.7957 70.4752 55.6868 71.1641C59.7545 72.1318 55.4582 75.9024 50.6461 76.2566C48.4548 76.4183 43.2747 77.057 40.1967 78.4068C36.5165 80.016 35.0975 82.4479 35.2174 83.689C35.4348 85.9675 30.8708 90.0225 28.5624 90.095Z" fill="#ED2B2B"/>
<path d="M38.1261 86.3886C35.2042 87.9281 30.7128 91.9664 35.7228 93.4305C46.3534 96.5401 57.143 94.7664 64.8518 91.1241C72.5606 87.4818 74.3923 81.4829 69.8981 77.2661C66.6333 74.2039 63.3909 73.939 61.562 75.1271C57.3103 77.8881 61.0462 82.7881 52.7853 84.4168C47.9203 85.3762 41.4438 84.64 38.1261 86.3886Z" fill="#ED2B2B"/>
<path d="M49.9851 74.6865C49.9851 74.6865 52.1904 71.8084 49.5278 71.8725C47.7742 71.9143 49.9851 74.6865 49.9851 74.6865Z" fill="#FF6969"/>
<path d="M46.9998 75.0518C46.9998 75.0518 46.9998 71.3983 44.1504 71.8445C42.2769 72.1402 46.9998 75.0518 46.9998 75.0518Z" fill="#FF6969"/>
<path d="M42.7876 75.4004C42.7876 75.4004 40.9391 72.0788 38.8788 72.737C36.8156 73.3951 42.7876 75.4004 42.7876 75.4004Z" fill="#FF6969"/>
<path d="M38.4968 77.0179C38.4968 77.0179 36.311 73.066 33.4701 74.2457C30.6291 75.4254 38.4968 77.0179 38.4968 77.0179Z" fill="#FF6969"/>
<path d="M35.1696 79.3522C35.1696 79.3522 31.7041 75.2247 28.5258 77.2689C26.4069 78.6271 35.1696 79.3522 35.1696 79.3522Z" fill="#FF6969"/>
<path d="M33.2375 81.7619C33.2375 81.7619 28.1522 80.0105 26.432 81.232C24.7146 82.4535 29.6159 84.1631 33.2375 81.7619Z" fill="#FF6969"/>
<path d="M32.8518 84.4169C32.8518 84.4169 29.272 84.5619 27.5936 85.7109C26.7572 86.2826 27.5936 87.6687 29.272 87.3452C32.1827 86.7819 32.8518 84.4169 32.8518 84.4169Z" fill="#FF6969"/>
<path d="M61.3906 78.0247C61.3906 78.0247 62.9798 76.5829 65.0429 76.7C67.106 76.8144 68.093 78.1474 65.6451 78.3204C63.1945 78.4905 61.3906 78.0247 61.3906 78.0247Z" fill="#FF6969"/>
<path d="M40.202 87.1722C40.0375 87.2587 37.6761 88.6754 36.9875 89.8384C36.2988 90.9986 38.9642 92.2034 39.781 90.0978C40.5979 87.9894 40.202 87.1722 40.202 87.1722Z" fill="#FF6969"/>
<path d="M43.9812 87.1722C43.9812 87.1722 42.9971 88.2906 43.0835 90.095C43.1699 91.8994 45.5091 92.3289 45.3473 90.095C45.1884 87.8583 43.9812 87.1722 43.9812 87.1722Z" fill="#FF6969"/>
<path d="M48.0234 86.7065C48.0234 86.7065 48.0653 88.6337 48.5392 90.095C49.0104 91.5564 52.4062 92.3289 51.0317 89.7492C49.6572 87.1723 48.0234 86.7065 48.0234 86.7065Z" fill="#FF6969"/>
<path d="M52.8906 86.3551C52.8906 86.3551 53.8302 88.5053 55.634 90.095C57.4379 91.6847 59.3281 90.4799 57.6526 88.6755C55.977 86.871 52.8906 86.3551 52.8906 86.3551Z" fill="#FF6969"/>
<path d="M57.1328 84.7516C57.1328 84.7516 58.9366 86.9576 61.0862 88.1596C63.2357 89.3644 65.3825 88.2014 62.8036 86.6982C60.2247 85.195 57.1328 84.7516 57.1328 84.7516Z" fill="#FF6969"/>
<path d="M60.2734 82.3252C60.2734 82.3252 63.9257 84.7961 66.2035 85.1531C68.4813 85.5101 69.9422 83.0893 67.3633 82.6599C64.7844 82.2304 60.2734 82.3252 60.2734 82.3252Z" fill="#FF6969"/>
<path d="M61.7031 80.373C61.7031 80.373 64.7783 79.394 66.6267 79.6088C68.4752 79.8235 70.0643 81.0702 68.0876 81.1566C66.1109 81.2403 61.7031 80.373 61.7031 80.373Z" fill="#FF6969"/>
<path d="M148.711 24.6732H85.3594V28.0952H148.711V24.6732Z" fill="#ED2B2B"/>
<path d="M148.708 27.4956C148.708 36.8049 134.526 44.3516 117.034 44.3516C99.5419 44.3516 85.3594 36.8049 85.3594 27.4956C85.3594 18.1863 99.5419 10.6423 117.034 10.6423C134.526 10.6423 148.708 18.1863 148.708 27.4956Z" fill="#ED2B2B"/>
<path d="M148.708 24.8434C148.708 34.1527 134.526 41.6966 117.034 41.6966C99.5419 41.6966 85.3594 34.1499 85.3594 24.8434C85.3594 15.5368 99.5419 7.99011 117.034 7.99011C134.526 7.99011 148.708 15.5341 148.708 24.8434Z" fill="#FF6969"/>
<path d="M145.411 24.8434C145.411 32.6857 132.709 39.0444 117.038 39.0444C101.366 39.0444 88.6641 32.6857 88.6641 24.8434C88.6641 16.9982 101.366 10.6423 117.038 10.6423C132.709 10.6395 145.411 16.9982 145.411 24.8434Z" fill="#FF4343"/>
<path d="M98.1646 32.061C95.4575 32.1474 87.4699 22.9162 97.9054 16.6524C108.341 10.3885 122.395 12.4411 125.286 13.13C129.354 14.0977 125.058 17.8683 120.246 18.2225C118.054 18.3843 112.874 19.0257 109.796 20.37C106.116 21.9791 104.697 24.411 104.817 25.6521C105.04 27.9362 100.473 31.9885 98.1646 32.061Z" fill="#ED2B2B"/>
<path d="M107.72 28.3573C104.798 29.8968 100.307 33.9351 105.317 35.3993C115.947 38.5089 126.737 36.7352 134.446 33.0929C142.154 29.4506 143.986 23.4517 139.492 19.2349C136.227 16.1727 132.985 15.9077 131.156 17.0958C126.904 19.8568 130.64 24.7569 122.379 26.3856C117.514 27.3422 111.04 26.6087 107.72 28.3573Z" fill="#ED2B2B"/>
<path d="M119.587 16.6524C119.587 16.6524 121.792 13.777 119.129 13.8384C117.376 13.8802 119.587 16.6524 119.587 16.6524Z" fill="#FF6969"/>
<path d="M116.594 17.0205C116.594 17.0205 116.594 13.3671 113.744 13.8133C111.871 14.1061 116.594 17.0205 116.594 17.0205Z" fill="#FF6969"/>
<path d="M112.381 17.3691C112.381 17.3691 110.533 14.0475 108.473 14.7057C106.409 15.3611 112.381 17.3691 112.381 17.3691Z" fill="#FF6969"/>
<path d="M108.09 18.984C108.09 18.984 105.904 15.0321 103.063 16.2118C100.225 17.3915 108.09 18.984 108.09 18.984Z" fill="#FF6969"/>
<path d="M104.763 21.3182C104.763 21.3182 101.298 17.1906 98.1196 19.2349C96.0007 20.5958 104.763 21.3182 104.763 21.3182Z" fill="#FF6969"/>
<path d="M102.831 23.7278C102.831 23.7278 97.7459 21.9736 96.0257 23.1979C94.3083 24.4194 99.2096 26.1318 102.831 23.7278Z" fill="#FF6969"/>
<path d="M102.446 26.3856C102.446 26.3856 98.8658 26.5306 97.1874 27.6797C96.351 28.2514 97.1874 29.6375 98.8658 29.314C101.774 28.7478 102.446 26.3856 102.446 26.3856Z" fill="#FF6969"/>
<path d="M130.984 19.9935C130.984 19.9935 132.574 18.5517 134.637 18.666C136.7 18.7803 137.687 20.1134 135.239 20.2863C132.791 20.4593 130.984 19.9935 130.984 19.9935Z" fill="#FF6969"/>
<path d="M109.796 29.1383C109.631 29.2248 107.27 30.6415 106.581 31.8017C105.893 32.9619 108.558 34.1667 109.375 32.0611C110.192 29.9555 109.796 29.1383 109.796 29.1383Z" fill="#FF6969"/>
<path d="M113.583 29.1383C113.583 29.1383 112.599 30.2567 112.685 32.0611C112.771 33.8655 115.111 34.2978 114.952 32.0611C114.793 29.8272 113.583 29.1383 113.583 29.1383Z" fill="#FF6969"/>
<path d="M117.625 28.6725C117.625 28.6725 117.667 30.5996 118.141 32.061C118.612 33.5224 122.008 34.2949 120.633 31.7152C119.256 29.1382 117.625 28.6725 117.625 28.6725Z" fill="#FF6969"/>
<path d="M122.484 28.3239C122.484 28.3239 123.424 30.4741 125.228 32.0638C127.032 33.6534 128.922 32.4486 127.246 30.6442C125.571 28.837 122.484 28.3239 122.484 28.3239Z" fill="#FF6969"/>
<path d="M126.734 26.7203C126.734 26.7203 128.538 28.9263 130.688 30.1284C132.837 31.3304 134.984 30.1702 132.408 28.667C129.826 27.161 126.734 26.7203 126.734 26.7203Z" fill="#FF6969"/>
<path d="M129.867 24.2911C129.867 24.2911 133.519 26.7621 135.797 27.1191C138.075 27.476 139.536 25.0553 136.957 24.6258C134.378 24.1963 129.867 24.2911 129.867 24.2911Z" fill="#FF6969"/>
<path d="M131.305 22.3389C131.305 22.3389 134.38 21.36 136.228 21.5747C138.077 21.7895 139.666 23.0361 137.689 23.1226C135.715 23.209 131.305 22.3389 131.305 22.3389Z" fill="#FF6969"/>
<path d="M249.117 32.3372H185.766V35.7591H249.117V32.3372Z" fill="#ED2B2B"/>
<path d="M249.117 35.1595C249.117 44.4688 234.935 52.0128 217.443 52.0128C199.948 52.0128 185.766 44.466 185.766 35.1595C185.766 25.8502 199.948 18.3035 217.443 18.3035C234.938 18.3035 249.117 25.8502 249.117 35.1595Z" fill="#ED2B2B"/>
<path d="M249.117 32.5073C249.117 41.8166 234.935 49.3606 217.443 49.3606C199.948 49.3606 185.766 41.8138 185.766 32.5073C185.766 23.198 199.948 15.6541 217.443 15.6541C234.938 15.6513 249.117 23.198 249.117 32.5073Z" fill="#FF6969"/>
<path d="M245.817 32.5073C245.817 40.3497 233.115 46.7083 217.444 46.7083C201.772 46.7083 189.07 40.3497 189.07 32.5073C189.07 24.6622 201.772 18.3063 217.444 18.3063C233.112 18.3035 245.817 24.6622 245.817 32.5073Z" fill="#FF4343"/>
<path d="M198.57 39.7249C195.863 39.8114 187.875 30.5801 198.314 24.3163C208.749 18.0525 222.804 20.1051 225.695 20.7939C229.762 21.7617 225.466 25.5323 220.654 25.8864C218.463 26.0482 213.283 26.6896 210.205 28.0367C206.524 29.6459 205.105 32.0778 205.225 33.3188C205.443 35.6001 200.876 39.6524 198.57 39.7249Z" fill="#ED2B2B"/>
<path d="M208.135 36.0213C205.213 37.5608 200.721 41.5991 205.729 43.0632C216.359 46.1728 227.149 44.3991 234.858 40.7568C242.567 37.1145 244.398 31.1156 239.904 26.8988C236.639 23.8366 233.397 23.5717 231.568 24.7598C227.316 27.5208 231.052 32.4208 222.791 34.0495C217.929 35.0061 211.452 34.2699 208.135 36.0213Z" fill="#ED2B2B"/>
<path d="M219.993 24.3164C219.993 24.3164 222.198 21.4383 219.536 21.5024C217.782 21.5442 219.993 24.3164 219.993 24.3164Z" fill="#FF6969"/>
<path d="M217.001 24.6817C217.001 24.6817 217.001 21.0282 214.151 21.4744C212.275 21.7701 217.001 24.6817 217.001 24.6817Z" fill="#FF6969"/>
<path d="M212.787 25.0304C212.787 25.0304 210.939 21.7088 208.879 22.367C206.816 23.0251 212.787 25.0304 212.787 25.0304Z" fill="#FF6969"/>
<path d="M208.497 26.6479C208.497 26.6479 206.311 22.6961 203.47 23.8758C200.629 25.0555 208.497 26.6479 208.497 26.6479Z" fill="#FF6969"/>
<path d="M205.17 28.9821C205.17 28.9821 201.705 24.8545 198.527 26.8988C196.405 28.2598 205.17 28.9821 205.17 28.9821Z" fill="#FF6969"/>
<path d="M203.238 31.3918C203.238 31.3918 198.152 29.6403 196.432 30.8619C194.715 32.0834 199.616 33.793 203.238 31.3918Z" fill="#FF6969"/>
<path d="M202.852 34.0468C202.852 34.0468 199.272 34.1918 197.594 35.3408C196.757 35.9125 197.594 37.2986 199.272 36.9751C202.183 36.4117 202.852 34.0468 202.852 34.0468Z" fill="#FF6969"/>
<path d="M231.391 27.6546C231.391 27.6546 232.98 26.2128 235.043 26.3299C237.106 26.4442 238.093 27.7773 235.645 27.9502C233.194 28.1204 231.391 27.6546 231.391 27.6546Z" fill="#FF6969"/>
<path d="M210.202 36.8022C210.04 36.8887 207.676 38.3055 206.987 39.4656C206.299 40.6258 208.964 41.8306 209.781 39.725C210.595 37.6194 210.202 36.8022 210.202 36.8022Z" fill="#FF6969"/>
<path d="M213.989 36.8022C213.989 36.8022 213.005 37.9206 213.091 39.725C213.178 41.5294 215.517 41.9617 215.358 39.725C215.199 37.4883 213.989 36.8022 213.989 36.8022Z" fill="#FF6969"/>
<path d="M218.031 36.3364C218.031 36.3364 218.076 38.2635 218.547 39.7249C219.018 41.1863 222.414 41.9588 221.04 39.3819C219.665 36.8022 218.031 36.3364 218.031 36.3364Z" fill="#FF6969"/>
<path d="M222.891 35.9851C222.891 35.9851 223.827 38.1353 225.634 39.725C227.438 41.3147 229.328 40.1099 227.652 38.3055C225.977 36.5011 222.891 35.9851 222.891 35.9851Z" fill="#FF6969"/>
<path d="M227.141 34.3815C227.141 34.3815 228.944 36.5875 231.094 37.7895C233.244 38.9915 235.39 37.8313 232.811 36.3281C230.235 34.8249 227.141 34.3815 227.141 34.3815Z" fill="#FF6969"/>
<path d="M230.273 31.9551C230.273 31.9551 233.926 34.426 236.204 34.783C238.481 35.14 239.942 32.7192 237.363 32.2897C234.784 31.8602 230.273 31.9551 230.273 31.9551Z" fill="#FF6969"/>
<path d="M231.711 30.0028C231.711 30.0028 234.786 29.0239 236.635 29.2387C238.483 29.4534 240.072 30.7 238.095 30.7865C236.119 30.8702 231.711 30.0028 231.711 30.0028Z" fill="#FF6969"/>
<path d="M293.242 91.9858H229.891V95.4078H293.242V91.9858Z" fill="#ED2B2B"/>
<path d="M293.245 94.8082C293.245 104.118 279.063 111.664 261.568 111.664C244.073 111.664 229.891 104.118 229.891 94.8082C229.891 85.4989 244.073 77.955 261.568 77.955C279.063 77.955 293.245 85.4989 293.245 94.8082Z" fill="#ED2B2B"/>
<path d="M293.245 92.156C293.245 101.465 279.063 109.012 261.568 109.012C244.073 109.012 229.891 101.465 229.891 92.156C229.891 82.8467 244.073 75.3027 261.568 75.3027C279.063 75.3027 293.245 82.8467 293.245 92.156Z" fill="#FF6969"/>
<path d="M289.942 92.156C289.942 100.001 277.237 106.36 261.569 106.36C245.897 106.36 233.195 100.001 233.195 92.156C233.195 84.3136 245.897 77.955 261.569 77.955C277.24 77.955 289.942 84.3108 289.942 92.156Z" fill="#FF4343"/>
<path d="M242.695 99.3736C239.988 99.4601 232 90.2288 242.439 83.965C252.874 77.7011 266.929 79.7538 269.82 80.4426C273.887 81.4104 269.591 85.1809 264.779 85.5351C262.588 85.6969 257.408 86.3355 254.33 87.6826C250.649 89.2918 249.23 91.7237 249.35 92.9647C249.57 95.2488 245.004 99.3011 242.695 99.3736Z" fill="#ED2B2B"/>
<path d="M252.259 95.67C249.337 97.2094 244.846 101.248 249.856 102.712C260.486 105.822 271.276 104.048 278.985 100.406C286.693 96.7632 288.525 90.7643 284.031 86.5475C280.766 83.4853 277.524 83.2204 275.695 84.4084C271.443 87.1694 275.179 92.0695 266.918 93.6982C262.053 94.6548 255.579 93.9185 252.259 95.67Z" fill="#ED2B2B"/>
<path d="M264.118 83.965C264.118 83.965 266.323 81.0896 263.661 81.151C261.907 81.1928 264.118 83.965 264.118 83.965Z" fill="#FF6969"/>
<path d="M261.125 84.3331C261.125 84.3331 261.125 80.6797 258.275 81.1259C256.402 81.4188 261.125 84.3331 261.125 84.3331Z" fill="#FF6969"/>
<path d="M256.92 84.6817C256.92 84.6817 255.072 81.3602 253.012 82.0183C250.948 82.6737 256.92 84.6817 256.92 84.6817Z" fill="#FF6969"/>
<path d="M252.621 86.2965C252.621 86.2965 250.435 82.3446 247.594 83.5243C244.756 84.704 252.621 86.2965 252.621 86.2965Z" fill="#FF6969"/>
<path d="M249.295 88.6308C249.295 88.6308 245.829 84.5032 242.651 86.5475C240.532 87.9085 249.295 88.6308 249.295 88.6308Z" fill="#FF6969"/>
<path d="M247.362 91.0404C247.362 91.0404 242.277 89.289 240.557 90.5106C238.84 91.7321 243.741 93.4417 247.362 91.0404Z" fill="#FF6969"/>
<path d="M246.985 93.6954C246.985 93.6954 243.405 93.8405 241.726 94.9895C240.89 95.5612 241.726 96.9473 243.405 96.621C246.313 96.0604 246.985 93.6954 246.985 93.6954Z" fill="#FF6969"/>
<path d="M275.516 87.3061C275.516 87.3061 277.105 85.8642 279.168 85.9814C281.231 86.0957 282.218 87.4288 279.77 87.6017C277.319 87.7691 275.516 87.3061 275.516 87.3061Z" fill="#FF6969"/>
<path d="M254.326 96.4509C254.162 96.5374 251.8 97.9541 251.112 99.1143C250.426 100.274 253.088 101.479 253.905 99.3737C254.722 97.2681 254.326 96.4509 254.326 96.4509Z" fill="#FF6969"/>
<path d="M258.114 96.4509C258.114 96.4509 257.13 97.5693 257.216 99.3737C257.303 101.178 259.642 101.61 259.483 99.3737C259.324 97.1398 258.114 96.4509 258.114 96.4509Z" fill="#FF6969"/>
<path d="M262.156 95.9851C262.156 95.9851 262.198 97.9122 262.672 99.3736C263.146 100.835 266.539 101.608 265.165 99.0306C263.787 96.4508 262.156 95.9851 262.156 95.9851Z" fill="#FF6969"/>
<path d="M267.023 95.6365C267.023 95.6365 267.96 97.7867 269.767 99.3764C271.571 100.966 273.461 99.764 271.785 97.9568C270.11 96.1496 267.023 95.6365 267.023 95.6365Z" fill="#FF6969"/>
<path d="M271.266 94.033C271.266 94.033 273.069 96.239 275.219 97.441C277.369 98.643 279.515 97.4828 276.936 95.9796C274.358 94.4736 271.266 94.033 271.266 94.033Z" fill="#FF6969"/>
<path d="M274.406 91.6037C274.406 91.6037 278.058 94.0747 280.336 94.4317C282.614 94.7887 284.075 92.3679 281.496 91.9384C278.917 91.5089 274.406 91.6037 274.406 91.6037Z" fill="#FF6969"/>
<path d="M275.836 89.6515C275.836 89.6515 278.911 88.6726 280.76 88.8874C282.608 89.1021 284.197 90.3487 282.22 90.4352C280.244 90.5216 275.836 89.6515 275.836 89.6515Z" fill="#FF6969"/>
<path d="M182.078 89.2054H118.727V92.6274H182.078V89.2054Z" fill="#ED2B2B"/>
<path d="M182.081 92.025C182.081 101.334 167.898 108.878 150.404 108.878C132.909 108.878 118.727 101.332 118.727 92.025C118.727 82.7157 132.909 75.1718 150.404 75.1718C167.898 75.1718 182.081 82.7185 182.081 92.025Z" fill="#ED2B2B"/>
<path d="M182.081 89.3728C182.081 98.6821 167.898 106.226 150.404 106.226C132.909 106.226 118.727 98.6793 118.727 89.3728C118.727 80.0635 132.909 72.5195 150.404 72.5195C167.898 72.5195 182.081 80.0663 182.081 89.3728Z" fill="#FF6969"/>
<path d="M150.405 103.574C166.075 103.574 178.778 97.2158 178.778 89.3728C178.778 81.5298 166.075 75.1718 150.405 75.1718C134.734 75.1718 122.031 81.5298 122.031 89.3728C122.031 97.2158 134.734 103.574 150.405 103.574Z" fill="#FF4343"/>
<path d="M131.531 96.5932C128.824 96.6797 120.836 87.4484 131.275 81.1846C141.71 74.9207 155.764 76.9734 158.656 77.6622C162.723 78.63 158.427 82.4005 153.615 82.7547C151.424 82.9165 146.243 83.5579 143.165 84.905C139.485 86.5142 138.066 88.9461 138.186 90.1871C138.406 92.4656 133.84 96.5207 131.531 96.5932Z" fill="#ED2B2B"/>
<path d="M141.096 92.8868C138.174 94.4262 133.682 98.4645 138.69 99.9287C149.32 103.038 160.11 101.265 167.819 97.6223C175.527 93.98 177.359 87.9811 172.865 83.7643C169.6 80.7021 166.358 80.4372 164.529 81.6252C160.277 84.3862 164.013 89.2863 155.752 90.915C150.893 91.8744 144.416 91.1381 141.096 92.8868Z" fill="#ED2B2B"/>
<path d="M152.954 81.1819C152.954 81.1819 155.159 78.3037 152.497 78.3707C150.743 78.4125 152.954 81.1819 152.954 81.1819Z" fill="#FF6969"/>
<path d="M149.961 81.5499C149.961 81.5499 149.961 77.8965 147.111 78.3427C145.238 78.6383 149.961 81.5499 149.961 81.5499Z" fill="#FF6969"/>
<path d="M145.756 81.8985C145.756 81.8985 143.908 78.5769 141.848 79.2351C139.784 79.8933 145.756 81.8985 145.756 81.8985Z" fill="#FF6969"/>
<path d="M141.457 83.5161C141.457 83.5161 139.271 79.5642 136.43 80.7439C133.592 81.9236 141.457 83.5161 141.457 83.5161Z" fill="#FF6969"/>
<path d="M138.131 85.8504C138.131 85.8504 134.665 81.7228 131.487 83.7671C129.368 85.1253 138.131 85.8504 138.131 85.8504Z" fill="#FF6969"/>
<path d="M136.198 88.2601C136.198 88.2601 131.113 86.5086 129.393 87.7302C127.676 88.9489 132.577 90.6613 136.198 88.2601Z" fill="#FF6969"/>
<path d="M135.821 90.915C135.821 90.915 132.241 91.0601 130.562 92.2091C129.726 92.7808 130.562 94.1669 132.241 93.8434C135.149 93.28 135.821 90.915 135.821 90.915Z" fill="#FF6969"/>
<path d="M164.352 84.5229C164.352 84.5229 165.941 83.081 168.004 83.1982C170.067 83.3125 171.054 84.6456 168.606 84.8185C166.158 84.9886 164.352 84.5229 164.352 84.5229Z" fill="#FF6969"/>
<path d="M143.163 93.6704C142.998 93.7569 140.637 95.1736 139.948 96.3338C139.26 97.494 141.925 98.6988 142.742 96.5932C143.559 94.4876 143.163 93.6704 143.163 93.6704Z" fill="#FF6969"/>
<path d="M146.95 93.6704C146.95 93.6704 145.966 94.7888 146.052 96.5932C146.139 98.3976 148.478 98.8271 148.316 96.5932C148.16 94.3565 146.95 93.6704 146.95 93.6704Z" fill="#FF6969"/>
<path d="M150.992 93.2047C150.992 93.2047 151.034 95.1346 151.508 96.5932C151.979 98.0546 155.375 98.8271 154 96.2474C152.626 93.6677 150.992 93.2047 150.992 93.2047Z" fill="#FF6969"/>
<path d="M155.859 92.8533C155.859 92.8533 156.796 95.0035 158.603 96.5932C160.407 98.1828 162.297 96.9808 160.621 95.1736C158.946 93.3692 155.859 92.8533 155.859 92.8533Z" fill="#FF6969"/>
<path d="M160.102 91.2498C160.102 91.2498 161.905 93.4558 164.055 94.6578C166.204 95.8626 168.351 94.6996 165.772 93.1964C163.193 91.6932 160.102 91.2498 160.102 91.2498Z" fill="#FF6969"/>
<path d="M163.242 88.8234C163.242 88.8234 166.894 91.2943 169.169 91.6513C171.447 92.0083 172.908 89.5875 170.329 89.158C167.753 88.7285 163.242 88.8234 163.242 88.8234Z" fill="#FF6969"/>
<path d="M164.672 86.8711C164.672 86.8711 167.747 85.8922 169.595 86.107C171.444 86.3217 173.033 87.5683 171.056 87.6548C169.08 87.7413 164.672 86.8711 164.672 86.8711Z" fill="#FF6969"/>
<path d="M248.018 113.921H192.289V116.93H248.018V113.921Z" fill="#5E8E11"/>
<path d="M248.016 116.403C248.016 124.591 235.539 131.228 220.152 131.228C204.763 131.228 192.289 124.591 192.289 116.403C192.289 108.214 204.765 101.577 220.152 101.577C235.539 101.577 248.016 108.214 248.016 116.403Z" fill="#5E8E11"/>
<path d="M248.016 114.068C248.016 122.256 235.539 128.894 220.152 128.894C204.763 128.894 192.289 122.256 192.289 114.068C192.289 105.88 204.765 99.2426 220.152 99.2426C235.539 99.2426 248.016 105.88 248.016 114.068Z" fill="#BED134"/>
<path d="M245.112 114.068C245.112 120.968 233.937 126.563 220.154 126.563C206.37 126.563 195.195 120.968 195.195 114.068C195.195 107.169 206.37 101.577 220.154 101.577C233.937 101.577 245.112 107.169 245.112 114.068Z" fill="#71AA21"/>
<path d="M218.859 112.975C218.859 112.975 213.579 105.894 206.645 106.435C197.38 107.157 198.627 110.465 201.088 112.975C203.391 115.323 211.421 114.989 218.859 112.975Z" fill="#5E8E11"/>
<path d="M220.961 112.85C220.961 112.85 227.29 107.283 234.246 107.252C241.411 107.219 241.818 110.409 239.415 112.972C236.437 116.152 228.399 114.866 220.961 112.85Z" fill="#5E8E11"/>
<path d="M218.858 114.068C218.858 114.068 208.687 116.475 205.621 117.591C202.554 118.706 205.23 122.973 211.659 123.037C220.023 123.121 218.858 114.068 218.858 114.068Z" fill="#5E8E11"/>
<path d="M220.76 114.068C220.76 114.068 231.019 116.26 233.997 117.591C237.694 119.244 232.547 122.973 226.121 123.037C217.754 123.124 220.76 114.068 220.76 114.068Z" fill="#5E8E11"/>
<path d="M220.153 111.642C220.153 111.642 215.895 107.863 214.967 106.404C214.036 104.946 216.116 102.929 220.961 102.899C227.652 102.86 228.21 104.823 225.98 107.269C223.749 109.718 220.153 111.642 220.153 111.642Z" fill="#5E8E11"/>
<path d="M97.934 53.6777C97.934 53.6777 95.9852 63.7094 96.501 67.0254C97.934 76.2594 108.506 74.3071 108.506 74.3071C108.506 74.3071 102.071 60.042 97.934 53.6777Z" fill="#71AA21"/>
<path d="M71.4854 58.8595H71.491C71.491 58.8428 71.4882 58.826 71.4882 58.8093C71.5133 58.5137 71.5049 58.218 71.4603 57.9196C71.0895 52.7853 67.0943 48.0442 61.2702 46.474C54.1078 44.5413 47.2047 47.8322 45.4929 54.1909C45.3117 54.8602 45.0357 57.7439 45.1277 58.2431C45.1277 58.2515 45.833 60.1786 46.7475 61.0962C50.3189 64.6771 58.379 66.2054 64.7523 64.507C68.873 63.411 71.2651 61.23 71.4854 58.8595Z" fill="#344144"/>
<path opacity="0.5" d="M66.9755 53.3431C66.4959 55.1224 63.6661 55.9061 60.6551 55.0918C57.644 54.2802 55.592 52.1802 56.0688 50.4008C56.5483 48.6215 59.3781 47.8379 62.3892 48.6522C65.4002 49.4638 67.455 51.5638 66.9755 53.3431Z" fill="white"/>
<path d="M231.212 66.6127H231.218C231.218 66.5959 231.215 66.5792 231.215 66.5625C231.24 66.2668 231.232 65.9712 231.187 65.6728C230.816 60.5385 226.821 55.7973 220.997 54.2272C213.834 52.2945 206.931 55.5854 205.219 61.9441C205.038 62.6134 204.762 65.4971 204.854 65.9963C204.854 66.0047 205.56 67.9318 206.474 68.8493C210.045 72.4331 218.106 73.9586 224.479 72.2602C228.6 71.1613 230.992 68.9832 231.212 66.6127Z" fill="#344144"/>
<path opacity="0.5" d="M226.702 61.0935C226.223 62.8728 223.393 63.6565 220.382 62.8421C217.371 62.0278 215.319 59.9305 215.795 58.1512C216.275 56.3719 219.105 55.591 222.116 56.4026C225.13 57.2142 227.182 59.3142 226.702 61.0935Z" fill="white"/>
<path d="M291.157 100.375H291.163C291.163 100.358 291.16 100.341 291.16 100.325C291.185 100.029 291.177 99.7335 291.132 99.4351C290.761 94.3007 286.766 89.5596 280.942 87.9895C273.78 86.0595 266.877 89.3476 265.165 95.7063C264.984 96.3756 264.708 99.2594 264.8 99.7586C264.8 99.7669 265.505 101.694 266.419 102.612C269.991 106.193 278.051 107.721 284.424 106.022C288.542 104.924 290.937 102.745 291.157 100.375Z" fill="#344144"/>
<path opacity="0.5" d="M286.647 94.8557C286.168 96.635 283.338 97.4187 280.327 96.6043C277.316 95.7928 275.264 93.6927 275.741 91.9134C276.22 90.1341 279.05 89.3504 282.061 90.1648C285.072 90.9763 287.127 93.0764 286.647 94.8557Z" fill="white"/>
<path d="M259.244 72.9127H259.239C259.239 72.896 259.241 72.8792 259.239 72.8625C259.216 72.5669 259.225 72.2713 259.266 71.9729C259.637 66.8385 263.633 62.0974 269.457 60.5273C276.619 58.5946 283.522 61.8854 285.234 68.2441C285.415 68.9134 285.691 71.7972 285.599 72.2964C285.599 72.3047 284.894 74.2319 283.979 75.1494C280.408 78.7303 272.348 80.2586 265.974 78.5602C261.856 77.4614 259.464 75.2833 259.244 72.9127Z" fill="#344144"/>
<path opacity="0.5" d="M263.749 67.3935C264.229 69.1728 267.059 69.9565 270.07 69.1422C273.081 68.3306 275.133 66.2306 274.656 64.4513C274.176 62.6719 271.347 61.8883 268.336 62.7026C265.322 63.5142 263.27 65.6142 263.749 67.3935Z" fill="white"/>
<path d="M55.548 117.739C55.5452 117.722 55.5452 117.705 55.5452 117.688C55.5201 117.393 55.5285 117.097 55.5731 116.799C55.9439 111.664 59.9391 106.923 65.7632 105.353C72.9256 103.42 79.8287 106.711 81.5405 113.07C81.7217 113.736 81.9977 116.623 81.9057 117.122C81.9057 117.131 81.2004 119.058 80.2859 119.975C76.7145 123.556 68.6544 125.084 62.281 123.386C58.1632 122.29 55.7682 120.109 55.548 117.739Z" fill="#344144"/>
<path opacity="0.5" d="M60.0617 112.222C60.5412 114.001 63.3711 114.782 66.3821 113.971C69.3931 113.159 71.4479 111.059 70.9684 109.28C70.4888 107.501 67.659 106.717 64.648 107.531C61.6342 108.343 59.5822 110.443 60.0617 112.222Z" fill="white"/>
<path d="M176.611 32.7444H176.608C176.605 32.7276 176.608 32.7109 176.608 32.6942C176.583 32.3985 176.591 32.1029 176.636 31.8045C177.006 26.6702 181.002 21.9291 186.826 20.3589C193.988 18.4262 200.891 21.7171 202.603 28.0758C202.784 28.7451 203.06 31.6288 202.968 32.128C202.968 32.1364 202.263 34.0635 201.348 34.9811C197.777 38.5648 189.717 40.0903 183.344 38.3919C179.226 37.2931 176.831 35.1149 176.611 32.7444Z" fill="#344144"/>
<path opacity="0.5" d="M181.116 27.2252C181.596 29.0045 184.426 29.7882 187.437 28.9738C190.448 28.1623 192.502 26.0622 192.023 24.2829C191.543 22.5036 188.714 21.7199 185.703 22.5343C182.692 23.3459 180.637 25.4459 181.116 27.2252Z" fill="white"/>
<path d="M137.228 115.753H137.222C137.222 115.736 137.225 115.719 137.225 115.703C137.2 115.407 137.208 115.111 137.255 114.813C137.626 109.679 141.621 104.937 147.446 103.367C154.608 101.435 161.511 104.726 163.223 111.084C163.404 111.754 163.68 114.637 163.588 115.136C163.588 115.145 162.883 117.072 161.968 117.987C158.397 121.57 150.337 123.096 143.963 121.398C139.843 120.304 137.451 118.126 137.228 115.753Z" fill="#344144"/>
<path opacity="0.5" d="M141.741 110.236C142.221 112.016 145.051 112.799 148.062 111.985C151.073 111.173 153.125 109.073 152.648 107.294C152.168 105.515 149.339 104.734 146.328 105.545C143.317 106.357 141.262 108.457 141.741 110.236Z" fill="white"/>
<path d="M101.767 68.6597C101.764 68.6429 101.764 68.6262 101.764 68.6123C101.739 68.3166 101.747 68.021 101.792 67.7226C102.163 62.5883 106.158 57.8472 111.982 56.277C119.144 54.3443 126.047 57.6352 127.759 63.9939C127.938 64.6632 128.217 67.5469 128.125 68.0461C128.125 68.0545 127.419 69.9816 126.505 70.8992C122.933 74.4829 114.873 76.0084 108.5 74.31C104.382 73.2111 101.99 71.0302 101.767 68.6597Z" fill="#344144"/>
<path opacity="0.5" d="M106.28 63.1405C106.76 64.9198 109.59 65.7035 112.601 64.8891C115.612 64.0776 117.664 61.9775 117.187 60.1982C116.708 58.4189 113.878 57.638 110.867 58.4496C107.853 59.2639 105.801 61.364 106.28 63.1405Z" fill="white"/>
<path d="M216.809 90.4408C216.809 90.4408 208.654 82.6319 203.237 86.2882C197.82 89.9444 195.969 94.5238 195.969 94.5238C195.969 94.5238 211.052 95.5222 216.809 90.4408Z" fill="#71AA21"/>
<path d="M90.4166 66.5875C88.8637 63.0177 86.2485 59.7882 82.4485 58.5304C76.1169 56.436 69.4341 61.4337 66.9751 67.533C65.6842 70.7346 64.6694 73.5514 67.6693 75.9526C69.2389 77.2076 71.0065 77.2188 72.9191 77.2857C76.0918 77.3973 78.4895 78.3287 81.4838 79.2268C84.7458 80.2057 89.0533 80.3925 91.306 77.2941C93.4193 74.3853 91.6823 69.4991 90.4166 66.5875Z" fill="#FFE3A6"/>
<path d="M104.339 29.2917C101.01 27.2223 93.909 29.3586 90.9147 31.9495C89.1527 33.4722 88.4111 36.2639 89.7187 38.3277C91.1266 40.5532 94.7371 42.0843 97.1989 42.7257C99.8781 43.4257 102.783 43.2166 105.128 41.6492C109.753 38.5508 108.794 32.061 104.339 29.2917Z" fill="#FFE3A6"/>
<path d="M155.079 30.0224C151.566 29.024 147.727 29.4786 144.331 30.6946C139.745 32.3344 136.542 36.8747 131.582 37.2847C131.468 37.2931 131.376 37.3349 131.27 37.3572C129.262 37.0114 127.255 37.2791 125.699 38.76C125.058 39.3708 124.81 40.3664 125.052 41.2115C126.594 46.608 136.09 51.1678 141.295 50.9921C145.41 50.8526 149.905 48.3956 153.822 47.1685C156.861 46.2147 159.883 44.731 161.425 41.7888C164.218 36.4536 160.298 31.5033 155.079 30.0224Z" fill="#FFE3A6"/>
<path d="M200.828 39.8588C195.511 34.8807 183.665 39.3847 177.467 41.7246C174.197 42.9601 171.121 45.0936 174.224 48.5853C176.552 51.2068 181.643 52.3084 184.771 53.5607C187.922 54.8212 190.866 56.7456 193.621 54.0905C195.146 52.6208 196.233 51.2291 198.076 49.9156C199.303 49.0427 200.532 48.2646 201.371 46.9482C202.818 44.6892 202.882 41.7832 200.828 39.8588Z" fill="#FFE3A6"/>
<path d="M170.308 54.6148C167.21 52.4869 164.974 50.7188 162.864 50.7076C160.157 50.6937 157.327 52.2945 156.53 54.9941C154.472 61.9524 164.28 65.3465 169.279 62.407C171.755 60.9512 173.216 56.6117 170.308 54.6148Z" fill="#FFE3A6"/>
<path d="M130.33 101.99C126.201 97.5163 120.809 101.686 116.356 103.501C115.428 102.648 114.354 101.942 113.211 101.496C109.155 99.9064 104.917 100.428 100.994 98.1884C98.3068 96.6545 96.3468 94.323 93.0319 94.2951C90.1546 94.27 83.6447 100.333 83.6252 102.667C83.6084 104.572 84.8937 105.674 86.402 106.477C88.3648 107.526 89.2764 106.87 90.8294 108.873C91.6658 109.949 91.925 111.45 92.4241 112.702C94.2056 117.175 96.8152 121.464 102.299 121.082C105.767 120.84 109.021 118.517 111.94 116.846C113.312 116.06 114.845 115.309 116.158 114.333C119.479 115.167 123.558 114.872 125.707 114.202C130.48 112.71 134.336 106.329 130.33 101.99Z" fill="#FFE3A6"/>
<path d="M114.118 81.4746C111.077 77.5422 102.28 76.7084 99.6346 81.1204C96.4953 86.3551 101.731 89.6209 103.842 90.7198C106.37 92.0361 109.381 93.3413 112.211 92.1644C116.46 90.3962 116.658 84.7571 114.118 81.4746Z" fill="#FFE3A6"/>
<path d="M228.454 84.4699C223.056 83.7587 216.975 84.3249 213.769 88.815C209.197 95.2211 213.861 102.706 221.054 103.897C227.012 104.882 239.327 102.249 240.367 94.8975C241.337 88.0397 234.473 85.2647 228.454 84.4699Z" fill="#FFE3A6"/>
<path d="M247.815 56.1738C245.055 55.9117 235.676 62.1086 234.633 64.0301C233.234 66.6154 233.278 70.0207 235.325 72.2574C239.76 77.1017 249.529 75.0435 253.352 70.4669C257.835 65.1039 254.983 56.8571 247.815 56.1738Z" fill="#FFE3A6"/>
<path d="M246.174 47.4083C245.285 45.4533 243.52 44.0086 241.443 43.4787C239.686 43.0325 231.205 45.2134 230.823 47.5561C230.018 52.5343 235.384 55.4068 239.578 55.4849C244.052 55.5686 248.332 52.1633 246.174 47.4083Z" fill="#FFE3A6"/>
<path d="M194.191 67.1454C190.123 71.6132 196.29 76.5941 200.439 77.2913C204.718 78.0081 211.569 75.7881 211.549 70.3833C211.527 65.2015 196.276 64.8585 194.191 67.1454Z" fill="#FFE3A6"/>
<path d="M216.684 109.45C215.602 104.084 210.377 104.338 206.337 103.331C199.997 101.755 196.25 95.327 189.436 95.6868C183.819 95.9852 175.97 99.9566 171.607 103.317C168.719 105.54 166.633 108.666 168.42 112.339C170.514 116.651 185.622 120.017 188.879 120.103C195.325 120.274 206.173 120.419 212.075 117.435C215.002 115.954 217.389 112.939 216.684 109.45Z" fill="#FFE3A6"/>
<path d="M150.287 71.0915C148.567 66.5652 143.994 64.1137 139.28 64.3229C136.96 64.4261 134.657 65.1624 132.778 66.5429C129.893 68.6624 129.31 71.5155 125.39 71.7079C123.048 71.8222 121.3 70.8963 119.209 72.5055C117.72 73.6517 117.121 75.3697 117.341 77.2048C117.665 79.9016 124.899 86.3161 127.657 86.7735C133.085 87.6715 141.691 88.14 146.417 84.6455C150.468 81.6531 152.066 75.7825 150.287 71.0915Z" fill="#FFE3A6"/>
<path d="M38.4409 72.0481C38.151 73.0967 38.6667 73.9892 39.4753 74.5888C41.4603 76.0669 44.1424 76.8812 46.4871 75.735C48.3272 74.8342 49.579 72.8429 49.4061 70.7791C48.9572 65.5165 40.2029 65.6476 38.4409 72.0481Z" fill="#FFE3A6"/>
<path d="M64.0723 82.8384C63.5983 81.3017 62.1067 80.3089 60.8493 79.4471C59.4693 78.4989 52.8924 77.018 52.714 81.4105C52.5969 84.2747 55.9118 87.2783 58.4572 87.9616C61.4655 88.7704 65.0955 86.16 64.0723 82.8384Z" fill="#FFE3A6"/>
<path d="M126.293 27.1693C123.993 25.8809 118.447 26.3243 116.515 32.4989C116.209 33.4834 116.839 34.6101 117.865 34.875C121.907 35.9209 125.997 33.5419 127.291 29.6208C127.584 28.7311 127.099 27.6211 126.293 27.1693Z" fill="#FFE3A6"/>
<path d="M102.745 49.592C101.061 49.0315 94.5959 50.7662 93.2744 52.1829C92.2289 53.304 91.189 56.316 92.4129 57.1527C95.3933 59.1886 99.4442 59.2583 102.572 57.4902C104.036 56.6619 105.427 55.3929 105.589 53.6331C105.762 51.8064 104.44 50.1526 102.745 49.592Z" fill="#FFE3A6"/>
<path d="M126.687 119.08C124.39 117.747 121.939 118.684 120.088 120.299C119.324 120.965 116.528 124.309 116.394 126.122C116.347 126.758 116.801 127.614 117.4 127.876C120.863 129.388 128.045 128.877 129.183 124.398C129.715 122.301 128.483 120.123 126.687 119.08Z" fill="#FFE3A6"/>
<path d="M261.605 85.973C260.758 82.7881 247.278 85.4878 246.946 88.4245C246.494 92.4293 252.555 93.2493 255.357 93.054C258.828 92.817 262.631 89.844 261.605 85.973Z" fill="#FFE3A6"/>
<path opacity="0.5" d="M79.7879 62.7751C77.722 59.8468 71.1451 64.5544 71.1563 67.4716C71.1674 69.8198 72.9015 70.6928 74.9563 71.0693C77.5603 71.5462 80.1977 72.1793 82.0964 69.8254C83.7887 67.7198 81.2098 64.7915 79.7879 62.7751Z" fill="white"/>
<path opacity="0.5" d="M155.373 33.8236C152.225 32.1642 147.132 32.3846 144.109 34.7914C143.953 34.8388 143.789 34.8611 143.633 34.9169C142.609 35.2906 141.756 35.9041 140.814 36.4229C139.729 37.0197 138.399 37.0085 137.415 37.5886C136.52 38.1157 136.027 38.8576 136.261 39.948C137.058 43.674 141.511 41.666 143.228 40.1934C145.693 38.0795 148.615 36.0687 152.024 36.83C153.538 37.1675 154.464 37.3711 155.685 36.2193C156.374 35.5667 156.229 34.2754 155.373 33.8236Z" fill="white"/>
<path opacity="0.5" d="M103.822 32.5575C102.058 30.3236 98.1322 29.5789 96.4594 32.3873C96.3674 32.5463 96.3339 32.7164 96.2726 32.8838C95.7429 33.0344 95.2326 33.2658 94.7643 33.6005C94.0645 34.0997 93.6491 35.2906 94.4632 35.946C96.5179 37.6053 99.5735 41.2086 102.543 39.8058C105.317 38.4978 105.571 34.7718 103.822 32.5575Z" fill="white"/>
<path opacity="0.5" d="M138.809 67.1648C137.984 67.2569 137.218 67.6027 136.596 68.1103C135.517 68.2441 134.48 68.5146 133.56 69.2342C132.129 70.3497 131.07 72.5836 132.118 74.2988C132.757 75.3474 133.657 75.3669 134.614 75.8745C135.266 76.2203 135.751 76.9231 136.454 77.2913C138.419 78.3204 140.923 77.8212 142.445 76.2594C145.445 73.1721 143.68 66.6098 138.809 67.1648Z" fill="white"/>
<path opacity="0.5" d="M130.973 78.8949C130.449 76.6917 127.887 75.8857 125.947 75.5454C125.085 75.3948 124.405 75.7657 124.003 76.3235C123.145 76.5494 122.701 78.0192 122.983 78.7805C123.591 80.4176 125.74 81.9654 127.413 82.3336C129.49 82.7854 131.489 81.0591 130.973 78.8949Z" fill="white"/>
<path opacity="0.5" d="M101.386 102.151C100.7 101.744 99.8917 101.705 99.0832 101.739C96.9169 99.9928 92.3948 97.9569 91.6141 101.306C91.2935 102.684 92.3167 103.844 93.5518 104.26C93.8836 104.371 95.2887 104.466 95.2971 104.475C95.6484 104.832 95.7014 106.187 96.0025 106.683C97.6641 109.439 102.362 109.785 102.83 106.045C103.009 104.603 102.749 102.957 101.386 102.151Z" fill="white"/>
<path opacity="0.5" d="M111.455 103.588C111.157 103.596 110.892 103.666 110.646 103.763C108.53 103.563 106.69 107.796 106.069 109.14C105.377 110.638 104.728 112.097 105.687 113.661C106.554 115.072 108.31 115.655 109.88 115.24C112.428 114.562 115.311 111.801 115.813 109.185C116.34 106.457 114.357 103.501 111.455 103.588Z" fill="white"/>
<path opacity="0.5" d="M124.804 102.865C123.826 102.91 122.772 103.39 121.988 104.098C121.314 104.452 120.706 104.963 120.257 105.487C119.457 106.421 119.649 107.567 120.617 108.276C122.869 109.927 126.747 108.831 127.433 105.967C127.84 104.268 126.496 102.79 124.804 102.865Z" fill="white"/>
<path opacity="0.5" d="M162.594 53.4407C160.972 53.6833 160.001 55.8559 160.032 57.4985C160.065 59.2778 161.66 60.4548 163.355 60.4157C164.83 60.3822 166.729 59.7547 167.189 58.1874C167.671 56.5447 165.173 53.053 162.594 53.4407Z" fill="white"/>
<path opacity="0.5" d="M194.309 40.2548C193.476 39.8616 192.609 39.7473 191.783 39.8477C190.9 39.8253 190.01 39.9536 189.171 40.2632C187.579 40.8517 186.832 42.2656 185.103 42.6142C182.867 43.0632 178.649 43.2501 179.762 46.8338C180.682 49.8068 185.583 49.5781 187.919 49.5167C189.483 49.4749 191.167 49.5474 192.377 48.3844C192.946 47.8378 193.306 47.1964 193.442 46.3988C193.565 45.9442 193.565 45.4868 193.442 45.0294C193.456 44.9374 193.445 44.89 193.448 44.8147C193.727 44.6836 194.011 44.5469 194.309 44.4131C195.901 43.688 195.865 40.9883 194.309 40.2548Z" fill="white"/>
<path opacity="0.5" d="M200.75 67.6111C199.534 67.2123 198.148 67.4605 197.346 68.6904C195.645 71.3008 199.69 73.1972 201.589 73.8247C204.053 74.6363 207.187 73.2112 206.942 70.2801C206.677 67.1537 203.092 67.0338 200.75 67.6111Z" fill="white"/>
<path opacity="0.5" d="M246.738 60.4798C245.353 61.0125 243.87 61.5842 242.688 62.5046C242.439 62.697 242.2 62.9536 241.982 63.2408C241.832 63.3468 241.667 63.436 241.525 63.5504C240.117 64.6715 238.405 66.766 240.181 68.4226C241.698 69.8393 244.029 68.958 245.542 68.0349C246.496 67.452 247.369 66.713 248.018 65.7982C248.679 64.8723 248.843 63.9436 249.136 62.8811C249.499 61.5535 248.169 59.9304 246.738 60.4798Z" fill="white"/>
<path opacity="0.5" d="M199.257 104.703C196.372 103.049 193.609 100.997 190.372 100.885C186.223 99.2202 179.437 102.447 179.053 106.968C178.952 108.147 180.201 109.394 181.378 109.294C186.555 108.856 190.277 111.885 195.184 112.626C197.66 113.003 202.583 114.04 203.958 111.051C205.461 107.785 201.432 105.95 199.257 104.703Z" fill="white"/>
<path opacity="0.5" d="M231.807 89.6321C231.094 88.0648 229.362 87.9169 227.843 87.8584C226.655 87.8137 225.554 87.8249 224.531 88.1122C223.968 88.101 223.399 88.1261 222.816 88.2265C221.428 88.4636 219.655 88.6811 219.119 90.2094C217.784 94.0134 223.859 94.6967 226.195 94.4513C228.59 94.2031 233.45 93.2298 231.807 89.6321Z" fill="white"/>
<path opacity="0.5" d="M253.678 86.4667C252.858 86.1488 252.077 86.7066 251.782 87.5433C251.754 87.6269 251.723 87.7106 251.693 87.7943C251.514 88.3018 251.821 88.8261 252.225 89.105L252.487 89.2863C253.028 89.6572 253.917 89.5178 254.355 89.0437C254.796 88.5724 256.139 87.4205 253.678 86.4667Z" fill="white"/>
<path d="M59.0733 93.3022C59.0733 93.3022 51.501 95.5668 47.4445 102.383C43.3852 109.199 44.4558 114.11 44.4558 114.11C44.4558 114.11 56.8094 111.12 58.3094 104.759C59.8065 98.3976 59.0733 93.3022 59.0733 93.3022Z" fill="#71AA21"/>
<path d="M28.5938 86.0484C28.5938 86.0484 30.208 95.8513 39.8907 93.3971C49.5734 90.9429 56.9923 89.1524 56.9923 89.1524C56.9923 89.1524 50.0111 85.5826 42.9854 85.6105C35.9596 85.6384 28.5938 86.0484 28.5938 86.0484Z" fill="#71AA21"/>
<path d="M163.242 88.8233C163.242 88.8233 170.156 93.5366 175.281 95.4079C180.405 97.282 193.091 91.2497 193.091 91.2497C193.091 91.2497 186.586 86.489 178.094 86.2966C169.599 86.107 163.242 88.8233 163.242 88.8233Z" fill="#71AA21"/>
<path d="M141.094 92.8867C141.094 92.8867 146.617 86.2324 151.825 85.7945C157.033 85.3595 164.357 84.52 164.357 84.52C164.357 84.52 164.764 92.0333 155.856 92.8504C146.951 93.6704 141.094 92.8867 141.094 92.8867Z" fill="#71AA21"/>
<path d="M177.848 125.087C177.848 125.087 176.599 133.315 184.907 135.816C193.215 138.318 199.318 135.228 199.318 135.228C199.318 135.228 198.649 129.784 192.05 127.742C185.448 125.701 177.848 125.087 177.848 125.087Z" fill="#71AA21"/>
<path d="M150.994 8.18262C150.994 8.18262 146.023 11.7022 140.629 15.9943C135.234 20.2864 132.398 28.667 132.398 28.667C132.398 28.667 149.249 28.1622 151.822 19.9155C154.396 11.6687 150.994 8.18262 150.994 8.18262Z" fill="#71AA21"/>
<path d="M81.9062 21.3182C81.9062 21.3182 85.3661 26.4386 92.9049 24.3832C100.444 22.3278 109.8 20.37 109.8 20.37C109.8 20.37 105.339 15.099 97.9066 16.6496C90.4738 18.2031 81.9062 21.3182 81.9062 21.3182Z" fill="#71AA21"/>
<path d="M67.0879 26.7203C67.0879 26.7203 63.8315 30.0558 67.0879 37.1536C70.3443 44.2513 74.5625 44.6808 74.5625 44.6808C74.5625 44.6808 79.9685 37.1815 76.7985 32.8503C73.6286 28.5164 67.0879 26.7203 67.0879 26.7203Z" fill="#71AA21"/>
<path d="M234.507 24.6816C233.456 25.0777 222.664 29.2666 220.425 33.6619C218.186 38.0571 215.359 43.8385 215.359 43.8385C215.359 43.8385 227.03 40.0317 229.893 35.9962C232.756 31.9606 234.507 24.6816 234.507 24.6816Z" fill="#71AA21"/>
<path d="M208.878 22.3669C208.878 22.3669 203.456 27.1666 205.22 33.3161C206.988 39.4656 209.087 43.6462 209.087 43.6462C209.087 43.6462 214.432 34.0496 214.432 31.0404C214.435 28.0312 208.878 22.3669 208.878 22.3669Z" fill="#71AA21"/>
<path d="M253.907 99.3737C253.907 99.3737 252.909 108.987 256.916 113.739C260.919 118.491 267.019 121.105 267.019 121.105C267.019 121.105 270.471 113.739 264.976 106.555C259.48 99.3736 253.907 99.3737 253.907 99.3737Z" fill="#71AA21"/>
<path d="M228.062 75.3C228.062 75.3 235.292 83.6807 240.207 84.8548C245.122 86.0289 253.007 82.0157 253.007 82.0157C253.007 82.0157 247.721 79.5001 242.822 78.5909C237.921 77.6818 228.062 75.3 228.062 75.3Z" fill="#71AA21"/>
<path d="M160.28 54.4642C160.28 54.4642 157.701 59.2221 153.817 63.4668C149.931 67.7115 145.453 70.2856 145.453 70.2856C145.453 70.2856 157.21 73.635 160.28 67.0254C163.352 60.4157 160.28 54.4642 160.28 54.4642Z" fill="#71AA21"/>
<path d="M74.863 87.0384C74.3444 85.0862 72.3649 84.64 70.7228 85.3902C69.733 85.8392 67.0872 91.4449 72.7357 91.1409C74.4029 91.0488 75.3425 88.8456 74.863 87.0384Z" fill="#FFE3A6"/>
<path d="M114.071 24.8462C112.719 23.3849 110.174 23.8422 109.396 25.6717C109.201 26.1291 109.145 26.606 109.201 27.0578C108.741 27.9503 108.682 28.9654 109.424 29.8969C110.586 31.3555 112.766 30.7168 113.912 29.5455C115.145 28.2849 115.304 26.1765 114.071 24.8462Z" fill="#FFE3A6"/>
<path d="M215.972 47.0234C215.434 45.8828 214.403 45.0851 213.184 44.7839C211.74 44.427 210.75 45.2385 210.402 46.2872C209.934 46.6804 209.68 47.3023 209.805 48.0776C210.157 50.2167 212.73 51.0143 214.551 50.5095C216.131 50.0745 216.619 48.3928 215.972 47.0234Z" fill="#FFE3A6"/>
<path d="M168.691 28.483C168.15 27.3423 167.119 26.5447 165.903 26.2435C164.459 25.8865 163.469 26.7009 163.121 27.7467C162.652 28.1399 162.399 28.7618 162.524 29.5371C162.875 31.6762 165.449 32.4739 167.269 31.9691C168.85 31.534 169.338 29.8523 168.691 28.483Z" fill="#FFE3A6"/>
<path d="M204.142 53.1674C203.317 52.9526 202.681 53.2929 202.324 53.8311C201.237 54.4279 200.364 55.0387 199.62 56.1849C198.889 57.3089 199.851 58.8009 201.123 58.8037C202.756 58.8065 204.281 58.1176 205.268 56.7929C206.297 55.4124 205.921 53.6359 204.142 53.1674Z" fill="#FFE3A6"/>
<path d="M145.461 131.125C144.636 130.91 144 131.251 143.643 131.789C142.556 132.386 141.683 132.997 140.939 134.143C140.211 135.267 141.17 136.759 142.442 136.762C144.075 136.764 145.6 136.076 146.587 134.751C147.616 133.37 147.243 131.594 145.461 131.125Z" fill="#FFE3A6"/>
<path d="M166.348 100.562C166.069 99.7055 165.534 98.8661 164.842 98.2525C165.316 96.6182 165.023 94.7803 163.247 94.0218C162.143 93.5504 160.942 93.5281 160.036 94.4373C159.81 94.6632 159.643 94.9254 159.52 95.2043C158.106 94.7023 156.244 95.4831 155.438 96.6489C153.994 98.7378 154.92 101.58 157.309 102.45C159.135 103.116 160.947 102.517 162.439 101.435C162.938 101.973 163.641 102.355 164.343 102.57C165.497 102.924 166.732 101.739 166.348 100.562Z" fill="#FFE3A6"/>
<path d="M158.094 133.192C156.092 133.214 154.238 134.397 154.196 136.399C153.903 136.943 153.764 137.573 153.703 138.22C153.594 139.361 154.737 140.245 155.766 140.284C158.297 140.379 159.669 138.028 160.104 135.83C160.363 134.53 159.529 133.175 158.094 133.192Z" fill="#FFE3A6"/>
<path d="M284.191 77.5144C283.084 77.4753 282.134 77.6399 281.158 78.1837C280.355 78.6299 280.032 79.4554 280.04 80.3033C279.814 80.465 279.586 80.6212 279.371 80.8164C278.267 81.8065 279.112 83.9065 280.612 83.8145C282.641 83.689 284.439 82.8635 285.753 81.285C286.968 79.8264 286.204 77.5869 284.191 77.5144Z" fill="#FFE3A6"/>
<path d="M264.257 50.2613C262.877 50.6964 262.501 52.2637 263.159 53.29C263.156 53.3402 263.12 53.3681 263.12 53.4211C263.203 56.2825 267.854 59.6292 269.51 56.0566C270.856 53.1617 267.129 49.3605 264.257 50.2613Z" fill="#FFE3A6"/>
<path d="M219.998 77.4084C218.228 76.2733 215.373 76.212 214.071 77.9439C212.766 78.6104 211.924 79.9324 212.652 81.6085C213.393 83.3125 215.295 83.781 216.992 83.5021C218.682 83.226 219.942 82.2694 220.91 80.8889C221.724 79.7316 221.077 78.1001 219.998 77.4084Z" fill="#FFE3A6"/>
<path d="M175.186 126.71C173.415 125.575 170.56 125.514 169.258 127.246C167.953 127.912 167.109 129.234 167.842 130.91C168.584 132.614 170.485 133.083 172.18 132.804C173.87 132.528 175.13 131.569 176.097 130.191C176.911 129.034 176.265 127.402 175.186 126.71Z" fill="#FFE3A6"/>
</svg>
