<svg width="142" height="239" viewBox="0 0 142 239" fill="none" xmlns="http://www.w3.org/2000/svg">
<path d="M118.361 150.028H11.6172V225.439C11.6172 229.578 14.4919 233.161 18.5315 234.057L40.0259 238.827H89.9522L111.447 234.057C115.486 233.161 118.361 229.578 118.361 225.439V150.028Z" fill="#CEDBEF"/>
<path d="M89.9498 150.028H40.0234V238.819H89.9498V150.028Z" fill="#D9E4F4"/>
<path d="M123.756 75.7451H6.22656V150.028H123.756V75.7451Z" fill="#D9E4F4"/>
<path d="M64.9911 155.354C97.4459 155.354 123.756 152.97 123.756 150.029C123.756 147.088 97.4459 144.704 64.9911 144.704C32.5363 144.704 6.22656 147.088 6.22656 150.029C6.22656 152.97 32.5363 155.354 64.9911 155.354Z" fill="#D9E4F4"/>
<path d="M118.358 85.7041V151.635C118.358 152.453 116.322 153.23 112.706 153.912V204.755C112.706 212.263 109.066 218.92 103.455 223.056C99.6889 225.833 95.0363 227.473 89.9975 227.473H39.9778C27.4378 227.473 17.2692 217.303 17.2692 204.755V153.912C13.6527 153.23 11.6172 152.453 11.6172 151.635V85.7041C20.5724 87.4583 39.7962 88.699 62.3137 88.7897C63.1998 88.7944 64.0905 88.7944 64.9854 88.7944C81.4058 88.7944 96.254 88.1853 106.913 87.1995C111.62 86.7674 115.509 86.2586 118.358 85.7041Z" fill="url(#paint0_linear_679_179671)"/>
<path d="M28.1885 195.578C28.5779 196.871 30.3984 196.971 31.6625 196.509C32.9282 196.042 34.2637 195.273 35.5305 195.724C36.4685 196.064 37.1108 197.013 38.0778 197.244C39.154 195.375 42.0407 195.813 43.8004 197.051C45.5585 198.296 47.0628 200.123 49.1886 200.481C49.0619 200.018 49.1208 199.505 49.347 199.083C50.5713 199.532 51.7874 199.995 52.9985 200.476C53.8345 200.809 54.6648 201.15 55.4935 201.498C56.0393 201.724 56.5836 201.957 57.126 202.196C60.1374 205.816 64.5428 212.5 69.3584 220.688C69.4142 220.782 69.4704 220.876 69.5261 220.969C69.5862 221.071 69.6443 221.169 69.7048 221.271C69.8578 221.534 70.0166 221.799 70.1716 222.067C69.2294 222.923 67.9598 223.832 66.2447 224.739C66.0491 224.845 65.8306 224.948 65.6001 225.046C64.9748 225.323 64.2391 225.587 63.4499 225.827C62.856 226.009 62.233 226.176 61.6038 226.33C59.6067 226.811 57.5293 227.134 56.0874 227.181C56.5879 226.874 56.3489 226.021 55.8181 225.766C55.2897 225.514 54.6721 225.652 54.0961 225.762C49.8066 226.59 45.178 225.462 41.7482 222.75C42.2592 222.96 42.8822 222.86 43.3037 222.503C39.6418 220.852 36.3871 218.32 33.8987 215.171C34.1935 215.419 34.8088 215.086 34.8208 214.641C34.8347 214.132 34.4194 213.737 34.0351 213.407C32.0806 211.742 30.1241 210.073 28.1696 208.407C27.3707 207.723 26.9105 205.993 27.9615 206.045C24.7002 203.387 21.807 200.281 19.3906 196.835C22.4574 197.712 26.4676 198.26 28.1885 195.578Z" fill="#61AA59"/>
<path d="M123.754 75.7469C123.754 78.5919 99.1324 80.9138 68.1366 81.0595C67.0917 81.0641 66.0422 81.0684 64.988 81.0684C59.2767 81.0684 53.7521 80.9956 48.5312 80.8592C45.3869 80.7728 42.3476 80.6686 39.4443 80.5411C38.0949 80.4822 36.7773 80.4182 35.4868 80.35C32.1019 80.1729 28.9352 79.9637 26.0225 79.732C23.6283 79.5409 21.4107 79.332 19.3891 79.105C11.1607 78.187 6.22656 77.0191 6.22656 75.7465C6.22656 74.324 12.3784 73.029 22.3971 72.0746C22.9968 72.0153 23.6147 71.961 24.2416 71.9064C27.0449 71.6653 30.121 71.4429 33.4149 71.2519C35.3551 71.1426 37.3677 71.0384 39.4532 70.9473C42.3565 70.8202 45.3962 70.7156 48.5401 70.6292C53.4197 70.5021 58.5584 70.4292 63.8746 70.4246C64.2426 70.4199 64.6153 70.4199 64.9876 70.4199C97.4468 70.4207 123.754 72.8019 123.754 75.7469Z" fill="#ECF1F9"/>
<path d="M59.882 156.687C70.906 145.661 70.906 127.784 59.882 116.758C48.858 105.732 30.9846 105.732 19.9607 116.758C8.9367 127.784 8.9367 145.661 19.9607 156.687C30.9846 167.714 48.858 167.714 59.882 156.687Z" fill="#BED860"/>
<path d="M58.4436 155.247C68.6721 145.016 68.6721 128.429 58.4436 118.199C48.2152 107.968 31.6315 107.968 21.4031 118.199C11.1746 128.429 11.1746 145.016 21.4031 155.247C31.6315 165.477 48.2151 165.477 58.4436 155.247Z" fill="#F9F9B7"/>
<path d="M50.7424 114.123C45.6541 111.802 39.7943 111.213 34.3461 112.476C33.1435 112.754 31.9347 113.134 30.9468 113.873C29.9589 114.613 29.2174 115.773 29.2511 117.008C29.272 117.766 29.575 118.484 29.8853 119.176C32.2145 124.374 35.2224 129.267 38.8091 133.691C39.0734 134.017 39.3721 134.36 39.7819 134.448C40.3786 134.576 40.9287 134.122 41.363 133.693C45.3515 129.75 48.655 125.147 51.389 120.25C52.0089 119.14 52.6171 117.943 52.5548 116.673C52.4924 115.403 51.4932 114.09 50.7424 114.123Z" fill="#DFEF6A"/>
<path d="M38.3019 135.726C34.2994 131.062 30.297 126.399 26.2946 121.735C25.5379 120.853 24.6194 119.896 23.4579 119.923C22.5409 119.946 21.7668 120.59 21.1256 121.246C16.6014 125.874 14.7468 132.948 16.4193 139.201C16.6184 139.945 16.8745 140.698 17.3738 141.285C18.7875 142.946 21.4065 142.624 23.5071 142.036C28.6668 140.592 33.6222 138.423 38.3019 135.726Z" fill="#DFEF6A"/>
<path d="M39.4581 138.059C33.5139 140.585 27.5698 143.11 21.6256 145.637C20.8759 145.955 20.1011 146.291 19.5544 146.895C18.7358 147.8 18.5901 149.171 18.9264 150.344C19.2627 151.516 20.0143 152.525 20.826 153.436C22.9145 155.781 25.5079 157.673 28.3779 158.946C30.7625 160.003 33.4647 160.635 35.9849 159.961C36.5362 159.814 37.0995 159.585 37.447 159.133C37.7926 158.683 37.8681 158.088 37.9321 157.523C38.6031 151.577 39.2745 145.631 39.9455 139.685C40.0183 139.042 39.9757 138.206 39.4581 138.059Z" fill="#DFEF6A"/>
<path d="M42.1664 140.715C41.4144 145.727 40.662 150.739 39.91 155.751C39.7585 156.76 39.6384 157.9 40.2692 158.702C40.8383 159.427 41.8402 159.633 42.7595 159.688C47.8917 159.995 52.6929 157.162 56.6396 153.866C57.9409 152.78 59.295 151.4 59.2334 149.706C59.1578 147.634 57.0658 146.307 55.2243 145.355C51.9042 143.638 48.584 141.921 45.2638 140.204C44.6614 139.892 44.0167 139.572 43.3407 139.631C42.6646 139.691 41.9928 140.305 42.1664 140.715Z" fill="#DFEF6A"/>
<path d="M68.1279 137.851C68.1097 138.314 68.0826 138.769 68.0415 139.223C67.9687 140.046 67.8598 140.859 67.7188 141.659C67.6188 142.236 67.496 142.804 67.36 143.368C66.6557 143.327 65.9696 143.286 65.2974 143.241C62.4076 143.054 59.8135 142.85 57.5688 142.627C53.6113 142.232 49.7173 141.364 47.6094 140.818C47.6683 140.714 47.764 140.605 47.9181 140.491C48.9677 139.723 52.7117 138.81 66.0831 137.974C66.7379 137.932 67.4193 137.891 68.1279 137.851Z" fill="#BED860"/>
<path d="M66.0835 137.973C66.0606 138.436 66.0242 138.895 65.9789 139.349C65.906 140.086 65.8018 140.817 65.6655 141.535C65.5609 142.112 65.4384 142.68 65.2974 143.24C62.4076 143.053 59.8135 142.849 57.5688 142.626C53.6113 142.231 49.7173 141.363 47.6094 140.817C47.6683 140.713 47.764 140.604 47.9181 140.49C48.9681 139.722 52.7121 138.808 66.0835 137.973Z" fill="#F9F9B7"/>
<path d="M64.9362 138.046C64.9226 138.505 64.8951 138.964 64.8455 139.423C64.7727 140.114 64.6638 140.8 64.5046 141.477C64.3728 142.05 64.1819 142.636 63.9002 143.149C61.5649 142.986 59.4476 142.813 57.5709 142.627C56.4397 142.513 55.4537 142.404 54.5948 142.295C53.3543 141.822 52.1184 141.35 50.8825 140.882C50.1739 140.609 49.4696 140.341 48.7653 140.073C46.6569 139.269 44.549 138.464 42.4453 137.66C42.9044 135.411 44.4626 133.579 45.9348 131.952C48.7428 128.848 51.5504 125.744 54.3585 122.641C55.067 121.854 55.8713 121.023 56.9209 120.895C57.934 120.772 58.8975 121.359 59.6649 122.031C62.4319 124.472 63.6724 128.198 64.3628 131.825C64.7545 133.87 65.0043 135.969 64.9362 138.046Z" fill="#DFEF6A"/>
<g opacity="0.6">
<path d="M41.0547 132.645C43.2862 129.203 45.5181 125.76 47.7497 122.318C48.8174 120.671 49.9065 118.972 50.2947 117.048C50.3605 116.722 50.3702 116.311 50.0858 116.138C49.9793 116.073 49.8491 116.058 49.7244 116.062C48.7926 116.097 48.2208 117.068 47.828 117.914C45.5782 122.757 43.3288 127.601 41.0547 132.645Z" fill="#BED860"/>
<path d="M42.7266 126.15C43.8815 122.959 44.8407 119.697 45.5977 116.388C45.75 115.723 45.8929 115.017 45.6833 114.368C45.6055 114.126 45.4671 113.887 45.2417 113.771C44.8845 113.585 44.4246 113.778 44.1801 114.098C43.9357 114.418 43.8547 114.829 43.7842 115.225C43.1566 118.748 42.8044 122.319 42.7266 126.15Z" fill="#BED860"/>
<path d="M40.649 130.047C41.2317 125.096 41.4862 120.107 41.4099 115.123C41.4033 114.68 41.3909 114.224 41.2096 113.82C41.0283 113.416 40.6336 113.075 40.1919 113.096C39.7595 113.116 39.4031 113.477 39.2532 113.883C39.1033 114.289 39.1176 114.735 39.1366 115.167C39.3566 120.215 39.9079 125.248 40.649 130.047Z" fill="#BED860"/>
<path d="M39.5869 132.085C37.0067 128 34.8553 123.642 33.1805 119.109C32.809 118.104 32.4576 117.074 32.3952 116.004C32.3825 115.787 32.3879 115.55 32.5223 115.379C32.8567 114.953 33.5431 115.327 33.8655 115.762C34.6368 116.802 34.9429 118.103 35.2695 119.357C36.3694 123.581 37.897 127.693 39.5869 132.085Z" fill="#BED860"/>
<path d="M38.2646 124.132C37.5088 121.192 36.7533 118.252 35.9974 115.312C35.9072 114.961 35.8347 114.536 36.0904 114.28C36.3678 114.001 36.8773 114.131 37.1229 114.438C37.3689 114.745 37.4228 115.158 37.4673 115.549C37.8249 118.664 38.1817 121.778 38.2646 124.132Z" fill="#BED860"/>
<path d="M44.3906 135.744C48.125 131.686 52.0135 127.772 56.045 124.01C56.5134 123.573 57.1743 123.108 57.7349 123.418C58.0967 123.618 58.2401 124.09 58.1638 124.496C58.0871 124.902 57.8349 125.252 57.5625 125.562C56.6846 126.563 55.5487 127.294 54.4407 128.031C51.0155 130.309 47.7108 132.768 44.3906 135.744Z" fill="#BED860"/>
<path d="M49.5078 133.651C53.3913 132.44 57.2496 130.835 60.2815 128.122C60.4807 127.944 60.6825 127.752 60.7755 127.501C60.8685 127.25 60.8174 126.926 60.5907 126.784C60.4834 126.717 60.3525 126.699 60.2258 126.695C59.3773 126.666 58.6161 127.176 57.9214 127.664C55.1734 129.598 52.4255 131.531 49.5078 133.651Z" fill="#BED860"/>
<path d="M44.5781 137.149C49.1501 136.706 53.7092 136.13 58.2479 135.422C59.9715 135.153 61.9996 134.618 62.5625 132.967C62.6532 132.701 62.6946 132.399 62.5749 132.145C62.2859 131.532 61.3929 131.64 60.7471 131.845C55.3271 133.567 49.9075 135.289 44.5781 137.149Z" fill="#BED860"/>
<path d="M49.4609 138.045C53.3301 138.102 57.1547 139.615 60.9855 139.068C61.7309 138.962 62.5766 138.684 62.8323 137.976C62.8714 137.867 62.8939 137.745 62.8521 137.638C62.7633 137.408 62.4573 137.373 62.2105 137.376C57.9063 137.431 53.6036 137.625 49.4609 138.045Z" fill="#BED860"/>
<path d="M47.2656 138.784C51.6876 139.605 56.0612 140.687 60.3554 142.023C60.6003 142.099 60.8556 142.183 61.0353 142.366C61.2151 142.549 61.2875 142.865 61.124 143.063C61.0306 143.176 60.8827 143.228 60.7401 143.262C59.7293 143.508 58.6802 143.151 57.7012 142.799C54.0765 141.494 50.4518 140.188 47.2656 138.784Z" fill="#BED860"/>
<path d="M35.6799 134.172C31.6186 130.968 28.5409 126.681 24.6489 123.273C24.3541 123.015 24.0434 122.756 23.6684 122.642C23.2933 122.528 22.8358 122.596 22.5945 122.904C22.3558 123.21 22.3965 123.664 22.5883 124.001C22.78 124.338 23.0946 124.584 23.4006 124.822C27.2291 127.79 31.0576 130.759 35.6799 134.172Z" fill="#BED860"/>
<path d="M30.3507 131.394C27.2598 129.481 24.1613 127.58 21.0553 125.691C20.759 125.511 20.4525 125.327 20.1096 125.274C19.7668 125.221 19.3747 125.33 19.1938 125.626C19.0163 125.917 19.0915 126.309 19.2899 126.585C19.4882 126.862 19.7877 127.047 20.084 127.215C23.1694 128.961 26.7682 129.624 30.3507 131.394Z" fill="#BED860"/>
<path d="M33.5011 133.632C28.8401 132.364 24.179 131.095 19.5176 129.827C18.878 129.653 18.011 129.576 17.7308 130.177C17.5716 130.518 17.7142 130.941 17.9784 131.21C18.2426 131.478 18.6048 131.624 18.9605 131.749C23.5677 133.369 28.6843 132.629 33.5011 133.632Z" fill="#BED860"/>
<path d="M35.7683 136.013C32.4938 137.662 28.8823 138.497 25.411 139.677C23.6277 140.283 21.7856 140.994 19.9182 140.748C19.5254 140.697 19.0817 140.557 18.9349 140.189C18.8098 139.875 18.9643 139.505 19.2173 139.281C19.4707 139.058 19.8031 138.95 20.127 138.855C22.7893 138.068 25.5571 137.714 28.3109 137.362C30.6977 137.058 33.0846 136.753 35.7683 136.013Z" fill="#BED860"/>
<path d="M33.1143 135.233C30.066 135.533 27.0178 135.834 23.9696 136.134C22.6683 136.262 21.3642 136.39 20.0563 136.391C19.4205 136.392 18.7817 136.361 18.1606 136.226C17.7678 136.141 17.3323 135.966 17.2057 135.584C17.0309 135.057 17.5656 134.562 18.0832 134.36C18.7522 134.1 19.4837 134.049 20.202 134.047C24.3288 134.037 28.3374 135.569 33.1143 135.233Z" fill="#BED860"/>
<path d="M37.7506 140.105C32.5104 142.479 27.3395 145.005 22.2473 147.681C21.6766 147.981 21.0083 148.523 21.2438 149.123C21.381 149.473 21.799 149.645 22.1737 149.614C22.5483 149.584 22.8896 149.398 23.2174 149.214C27.8927 146.591 32.4046 143.676 37.7506 140.105Z" fill="#BED860"/>
<path d="M31.0441 145.829C28.1756 147.45 25.2378 149.128 23.152 151.679C22.9253 151.957 22.7033 152.257 22.6348 152.608C22.5666 152.96 22.6971 153.375 23.0206 153.529C23.4878 153.75 23.9973 153.343 24.3549 152.969C26.5663 150.655 28.7769 148.34 31.0441 145.829Z" fill="#BED860"/>
<path d="M35.5616 142.807C32.286 146.312 28.9995 149.832 26.2236 153.745C25.7847 154.364 25.3849 155.291 25.9513 155.796C26.2659 156.076 26.7637 156.058 27.1364 155.862C27.5091 155.666 27.7834 155.328 28.0379 154.992C29.0944 153.6 29.9994 152.1 30.9025 150.604C32.5351 147.9 34.1677 145.195 35.5616 142.807Z" fill="#BED860"/>
<path d="M36.2138 143.521C34.7494 148.122 31.6295 152.044 30.0624 156.61C29.9469 156.947 29.8629 157.379 30.1337 157.611C30.2882 157.743 30.5122 157.757 30.7132 157.727C31.908 157.547 32.476 156.188 32.8235 155.031C33.942 151.308 35.0609 147.584 36.2138 143.521Z" fill="#BED860"/>
<path d="M37.9155 141.504C36.8993 144.062 36.1737 146.734 35.756 149.455C35.615 150.375 35.553 151.441 36.205 152.105C36.7036 151.803 36.8226 151.145 36.8931 150.567C37.2743 147.421 37.6559 144.276 37.9155 141.504Z" fill="#BED860"/>
<path d="M34.6161 153.189C34.4506 154.607 34.3147 156.032 34.3387 157.46C34.3449 157.839 34.4685 158.332 34.8462 158.352C35.0314 158.362 35.198 158.239 35.3189 158.097C35.6428 157.72 35.7508 157.196 35.7268 156.699C35.7028 156.202 35.5614 155.72 35.4386 155.237C35.1682 154.172 34.9888 153.084 34.6161 153.189Z" fill="#BED860"/>
<path d="M43.1178 141.61C42.8047 143.284 42.4921 144.957 42.1791 146.63C41.9284 147.97 41.677 149.32 41.6797 150.684C41.6805 151.008 41.7521 151.411 42.0624 151.504C42.2883 151.571 42.525 151.426 42.68 151.249C43.1081 150.76 43.1561 150.054 43.1743 149.404C43.2452 146.931 43.2003 144.455 43.1178 141.61Z" fill="#BED860"/>
<path d="M44.2245 142.616C44.8776 147.118 44.868 151.716 44.1958 156.215C44.1357 156.616 44.0656 157.03 43.8417 157.369C43.6177 157.707 43.1978 157.95 42.8069 157.841C42.4698 157.748 42.2397 157.418 42.1669 157.075C42.094 156.733 42.151 156.378 42.2168 156.034C42.9158 152.384 44.6246 148.849 44.336 145.144L44.2245 142.616Z" fill="#BED860"/>
<path d="M45.4297 147.855C45.5556 150.002 45.6815 152.149 45.8074 154.295C45.8628 155.243 45.9194 156.197 46.1483 157.118C46.2665 157.593 46.5973 158.161 47.0758 158.06C47.3172 158.009 47.4884 157.791 47.5883 157.566C47.9002 156.863 47.7054 156.051 47.5066 155.308C46.8759 152.954 46.2448 150.599 45.4297 147.855Z" fill="#BED860"/>
<path d="M45.1094 142.546C46.0365 145.224 46.9635 147.902 47.891 150.58C48.3799 151.992 48.872 153.411 49.5697 154.733C49.9099 155.376 50.3597 156.044 51.0589 156.246C51.3301 156.324 51.6502 156.315 51.8625 156.128C52.2139 155.82 52.0887 155.255 51.9279 154.816C50.3178 150.421 48.0115 146.283 45.1094 142.546Z" fill="#BED860"/>
<path d="M45.6484 141.747C46.7588 143.492 48.2174 145.014 49.9135 146.198C50.4264 146.556 51.0184 146.897 51.6387 146.814C51.832 146.788 52.049 146.689 52.0831 146.497C52.1059 146.368 52.0374 146.242 51.968 146.132C51.1916 144.89 50.0104 143.954 48.7671 143.18C47.5239 142.406 46.1982 141.77 45.6484 141.747Z" fill="#BED860"/>
</g>
<path d="M15.8087 103.706C15.605 101.871 15.5953 100.015 15.7808 98.1785C16.7916 98.9008 17.95 99.4158 19.1634 99.682C19.5477 98.9601 20.1672 98.3661 20.9044 98.0123C21.5526 98.7865 22.0915 99.6518 22.501 100.575C23.7287 99.9661 24.9565 99.3573 26.1842 98.7489C25.3311 96.5053 26.4403 93.7002 28.5975 92.6477C28.6734 92.9938 28.7489 93.3398 28.8248 93.6858C31.0506 92.4784 33.5277 91.7367 36.0506 91.5217C36.0018 92.0142 36.6139 92.3482 37.0986 92.249C37.5833 92.1498 37.9625 91.7879 38.36 91.493C39.6261 90.5537 41.3249 90.2255 42.8494 90.625C41.5016 91.9646 40.1534 93.3045 38.8056 94.6441C38.3085 95.1382 37.7735 95.8589 38.1218 96.4669C38.4379 97.0191 39.3658 97.1668 39.403 97.8023C39.4425 98.4827 38.4813 98.6388 37.9168 99.0205C36.2842 100.125 38.2767 102.821 37.4821 104.625C36.8603 106.036 34.6516 106.529 34.5861 108.069C34.5625 108.625 34.855 109.146 34.9046 109.7C35.0294 111.087 33.6726 112.126 32.4093 112.711C27.6537 114.912 21.5255 115.229 18.5652 119.554C17.6517 114.362 16.4247 109.246 15.8087 103.706Z" fill="#78BA6E"/>
<path d="M45.2959 149.839C34.829 142.695 24.7348 134.6 17.8468 123.994C17.8344 123.98 17.8255 123.968 17.8159 123.951C17.0751 122.803 16.3553 121.575 16.2607 120.213C16.1616 118.793 16.764 117.416 17.4412 116.156C22.6656 106.381 33.2235 99.6805 44.2913 99.1066C45.8232 99.0287 47.3655 99.057 48.9314 98.8648C51.951 98.492 54.9093 99.9037 56.5024 102.496C60.8973 109.66 64.9435 117.037 68.6236 124.587C69.4801 126.348 70.3325 128.188 70.7757 130.08C71.0426 131.213 71.1635 132.368 71.0507 133.534C70.5665 138.659 65.9178 142.255 61.5625 145C58.3132 147.041 54.9942 148.976 51.6163 150.803L51.6124 150.8C51.5477 150.839 51.4857 150.873 51.4171 150.909C50.6163 151.342 49.7535 151.777 48.8419 151.711C48.0032 151.651 47.2582 151.171 46.56 150.695C46.137 150.412 45.7162 150.126 45.2959 149.839Z" fill="#F4F7D4"/>
<path opacity="0.5" d="M51.6134 150.803L51.6095 150.8C51.3244 150.573 51.0969 150.269 50.8741 149.975C50.1566 149.018 49.4357 148.059 48.7182 147.103C47.4188 145.371 46.0411 143.277 46.661 141.197C46.9856 140.115 47.8112 139.259 48.6357 138.484C52.5517 134.818 57.1658 131.903 62.1574 129.943C63.7035 129.336 65.3179 128.814 66.9792 128.813C68.3402 128.817 69.7411 129.222 70.7736 130.08C71.0405 131.213 71.1614 132.368 71.0487 133.534C70.5644 138.659 65.9157 142.255 61.5603 145C58.3103 147.041 54.9917 148.975 51.6134 150.803Z" fill="#EFE8B4"/>
<path d="M55.6753 129.202C52.0661 130.097 48.6312 131.691 45.6171 133.87C44.9608 134.344 44.3002 134.857 43.5153 135.056C42.5824 135.291 41.5991 135.05 40.684 134.752C34.2234 132.65 29.0495 127.838 24.2838 122.995C22.1817 120.859 19.9455 118.112 20.6827 115.207C20.7815 114.818 20.9427 114.429 21.243 114.164C22.3409 113.194 23.9305 114.526 24.8099 115.697C27.8089 119.691 31.4247 123.22 35.4899 126.121C37.1477 127.304 38.955 128.411 40.9765 128.656C42.5328 128.843 44.0991 128.505 45.6298 128.169C48.1837 127.608 50.7372 127.048 53.291 126.487C54.0798 126.313 54.9062 126.141 55.6853 126.353C56.4644 126.565 57.1668 127.297 57.0533 128.097C56.9406 128.897 55.719 129.348 55.6753 129.202Z" fill="#FBFCED"/>
<path opacity="0.5" d="M45.2928 149.84C34.8259 142.695 24.7317 134.6 17.8438 123.994C17.8701 124.012 17.8976 124.036 17.924 124.054C25.03 129.425 32.1326 134.794 39.2386 140.165C40.3342 140.994 41.4508 141.848 42.2144 142.996C43.143 144.393 43.4568 146.103 44.098 147.656C44.4137 148.426 44.817 149.158 45.2928 149.84Z" fill="#EFE8B4"/>
<path d="M58.9462 115.445C57.0734 112.55 55.1425 109.609 52.4453 107.462C46.9873 103.116 38.6186 102.915 32.958 106.993C32.2289 107.518 31.4716 108.286 31.6308 109.171C31.704 109.578 31.9659 109.925 32.2436 110.231C33.8549 112.01 36.3178 112.979 38.7085 112.777C39.8824 112.677 41.0164 112.315 42.174 112.097C47.5766 111.078 53.0221 113.213 58.9462 115.445Z" fill="#FBFCED"/>
<path d="M18.6333 187.15C19.3078 189.442 21.7168 190.684 23.8879 191.672C27.5033 193.315 31.1187 194.958 34.7341 196.598C37.491 197.851 40.2521 199.104 43.009 200.357C44.1561 200.879 46.6395 201.037 46.6395 201.037C46.6395 201.037 52.9366 193.75 53.8714 192.129C55.1685 189.88 56.3222 187.86 57.3411 186.018L57.1839 177.765L57.092 172.779L56.8011 157.106L56.8007 157.102L56.7453 154.03L56.7011 151.677C49.0918 149.188 40.1335 147.159 35.197 146.757C34.0363 146.664 32.7888 146.641 31.7223 147.029C31.3252 147.173 30.9482 147.375 30.6127 147.655C29.889 148.258 29.4562 149.131 29.0533 149.983C24.0293 160.619 20.5177 171.965 18.6539 183.574C18.4629 184.761 18.2912 185.996 18.6333 187.15Z" fill="#F2F2A2"/>
<path opacity="0.5" d="M36.9156 155.365C38.4947 158.717 41.4193 161.119 44.3021 163.324C46.9501 165.347 49.6427 167.308 52.3779 169.197C54.2359 170.484 56.1413 171.753 58.1656 172.702L57.8664 158.456L57.8661 158.453L57.8091 155.661L57.7638 153.522C51.1559 151.237 43.3789 149.367 39.0956 148.986C39.0422 148.981 38.9883 148.977 38.9344 148.972C37.2081 148.836 35.7878 150.382 36.0067 152.182C36.1419 153.289 36.4511 154.379 36.9156 155.365Z" fill="white"/>
<path opacity="0.2" d="M37.416 193.734C37.0933 194.786 37.6105 195.914 38.6124 196.37C40.4882 197.222 42.3649 198.074 44.24 198.926C45.2477 199.384 47.4288 199.523 47.4288 199.523C47.4288 199.523 52.9596 193.122 53.7806 191.699C54.92 189.723 55.9335 187.95 56.828 186.331L56.6897 179.083C53.8581 177.688 50.6223 177.12 47.4897 177.508C46.5858 177.621 45.6669 177.82 44.8951 178.307C43.8007 178.992 43.0231 180.121 42.528 181.314C41.2669 184.352 39.2857 188.815 37.4214 193.715C37.4191 193.721 37.4175 193.728 37.416 193.734Z" fill="#EACE44"/>
<path opacity="0.5" d="M30.7747 158.131C33.5494 161.074 36.4256 164.195 37.4267 168.114C38.3395 171.688 37.5654 175.466 36.5326 179.007C35.7492 181.693 34.8174 184.336 33.7435 186.919C33.3933 187.762 32.6111 188.77 31.7948 188.362C31.3458 188.138 31.19 187.582 31.1215 187.085C30.6496 183.66 32.0776 180.253 32.1082 176.796C32.1586 171.087 28.4192 165.743 28.979 160.062C29.0422 159.42 29.4071 158.597 30.7747 158.131Z" fill="white"/>
<path d="M42.9324 177.02C41.4025 175.233 40.2542 173.121 39.5859 170.865C40.0365 170.969 40.4867 171.073 40.9373 171.177C41.2271 170.385 41.1116 169.511 41.0791 168.668C41.0465 167.825 41.1337 166.9 41.7175 166.291C42.301 165.681 43.5244 165.686 43.8402 166.468C44.2764 165.138 44.7127 163.807 45.1489 162.476C45.0536 163.12 45.7025 163.68 46.3507 163.739C46.9988 163.799 47.6222 163.508 48.2083 163.224C49.1777 162.755 50.1892 162.252 50.8095 161.371C51.5339 160.343 51.587 159.007 51.8036 157.768C52.1217 155.95 52.8489 154.206 53.9162 152.7C53.841 153.08 54.0518 153.497 54.4012 153.662C54.7026 153.493 55.0045 153.324 55.3059 153.155C55.3593 154.639 56.441 156.031 57.8663 156.449C58.3514 156.591 58.8693 156.631 59.3284 156.843C60.0947 157.198 60.5685 157.962 61.1412 158.582C61.7138 159.202 62.5936 159.725 63.3696 159.393C62.625 161.708 66.6983 163.663 65.9188 165.953C66.6813 167.09 67.1791 168.403 67.3631 169.759C67.5107 169.359 68.1054 169.742 68.2782 170.131C69.3491 172.541 69.5935 175.308 68.9616 177.868C67.6634 177.586 66.4725 178.605 65.569 179.579C61.8808 183.553 58.8345 188.122 56.584 193.054C52.6505 186.886 47.1406 181.937 42.9324 177.02Z" fill="#55934C"/>
<path d="M106.893 45.1084C106.871 43.622 107.006 42.1328 107.296 40.6746C108.05 41.3315 108.939 41.8333 109.892 42.1402C110.255 41.5911 110.797 41.1625 111.416 40.9354C111.876 41.6062 112.241 42.3413 112.499 43.1128C113.53 42.7191 114.561 42.3258 115.592 41.9321C115.081 40.0678 116.186 37.904 117.996 37.2263C118.03 37.5095 118.064 37.7928 118.099 38.0761C119.976 37.2794 122.019 36.8752 124.058 36.8969C123.981 37.2879 124.446 37.6029 124.842 37.5607C125.238 37.5185 125.57 37.2573 125.911 37.0515C126.999 36.3959 128.386 36.2633 129.577 36.7008C128.394 37.6711 127.21 38.6414 126.026 39.6121C125.589 39.9702 125.105 40.5065 125.338 41.0211C125.549 41.4884 126.281 41.6779 126.262 42.1902C126.242 42.7389 125.459 42.79 124.977 43.0527C123.583 43.8122 124.973 46.1276 124.198 47.5121C123.59 48.5959 121.782 48.8207 121.611 50.051C121.549 50.4943 121.744 50.9349 121.741 51.3828C121.735 52.5046 120.567 53.2327 119.509 53.6044C115.527 55.0032 110.591 54.7862 107.885 58.0257C107.551 53.7927 106.961 49.5972 106.893 45.1084Z" fill="#78BA6E"/>
<path d="M83.9168 55.2052C82.3869 53.4181 81.2386 51.3058 80.5703 49.0502C81.0209 49.1541 81.471 49.2583 81.9216 49.3621C82.2114 48.5697 82.096 47.6963 82.0634 46.8531C82.0309 46.0099 82.118 45.0849 82.7019 44.4758C83.2853 43.8666 84.5088 43.8713 84.8245 44.6536C85.2608 43.323 85.697 41.9923 86.1333 40.6612C86.038 41.3052 86.6869 41.8648 87.335 41.9245C87.9832 41.9841 88.6065 41.6935 89.1927 41.4099C90.162 40.941 91.1736 40.4372 91.7938 39.5568C92.5183 38.5284 92.5714 37.1927 92.788 35.9535C93.106 34.1357 93.8332 32.3912 94.9006 30.8857C94.8254 31.2651 95.0358 31.6825 95.3856 31.8475C95.6874 31.6786 95.9888 31.5092 96.2902 31.3403C96.3437 32.8248 97.4254 34.2163 98.8507 34.6344C99.3361 34.7766 99.8537 34.8169 100.313 35.0289C101.079 35.3831 101.553 36.1472 102.126 36.7672C102.699 37.3872 103.578 37.9104 104.354 37.5783C103.609 39.8936 107.682 41.8481 106.903 44.139C107.666 45.2756 108.163 46.588 108.348 47.9443C108.495 47.5448 109.089 47.9272 109.263 48.3167C110.333 50.7258 110.578 53.4937 109.946 56.0535C108.648 55.7718 107.457 56.7909 106.553 57.7647C102.865 61.7389 99.8189 66.3071 97.5683 71.24C93.6349 65.071 88.1254 60.1215 83.9168 55.2052Z" fill="#55934C"/>
<path d="M97.0927 79.4785C96.5658 79.5014 96.0296 79.5193 95.4934 79.5375C91.6494 79.6557 87.5784 79.7192 83.4032 79.7192C80.8269 79.7192 78.2963 79.6963 75.8292 79.6463C74.5887 78.542 73.3439 77.4423 72.0991 76.3472C72.6035 76.0972 73.0169 75.6702 73.2486 75.1564C72.867 74.8154 72.4943 74.4566 72.1355 74.0884C71.454 73.3933 70.8179 72.6477 70.2406 71.8708C69.7908 71.2799 69.3775 70.6664 68.9912 70.0348C69.491 70.0166 69.9908 69.9984 70.4905 69.9802C69.391 68.4623 68.4097 66.8534 67.569 65.1814C67.3145 64.6768 67.0692 64.1227 67.1599 63.5682C67.2552 63.009 67.8506 62.5092 68.3729 62.732C68.0684 60.369 67.7639 58.0103 67.4598 55.6469C67.9049 55.724 68.35 55.7969 68.8002 55.8697C67.9506 52.743 67.6008 49.4802 67.7643 46.24C68.9412 46.6992 70.1132 47.1626 71.2902 47.6214C70.9856 46.8352 71.4354 45.8401 72.2308 45.5537C74.4891 47.2808 76.747 49.0029 79.0052 50.7299C79.0188 49.6573 80.7273 49.5484 81.5041 50.2936C82.2766 51.0345 82.6082 52.1749 83.4532 52.8387C84.18 53.4021 85.157 53.5157 85.9884 53.9156C86.9516 54.3748 87.6788 55.2063 88.3785 56.0151C88.9828 56.7102 89.5868 57.4058 90.1912 58.101C91.5816 59.7052 93.067 61.6636 92.5947 63.7317C93.499 63.2865 94.3211 64.4726 94.6213 65.4406C95.0893 66.9356 95.4891 68.4445 95.8208 69.9716C95.9571 70.5986 96.0842 71.2302 96.1977 71.8622C96.3341 72.621 96.4565 73.3847 96.5569 74.1481C96.6704 74.9615 96.7614 75.7749 96.8339 76.5929C96.9203 77.5516 96.9838 78.5195 97.0927 79.4785Z" fill="#61AA59"/>
<path d="M97.0976 79.479C96.9888 79.4837 96.8795 79.4883 96.7706 79.4925C96.6525 79.4972 96.539 79.5015 96.4208 79.5061C96.1163 79.5154 95.8075 79.529 95.4984 79.5379C95.1939 78.3018 94.9986 76.7522 95.0168 74.8116C95.0168 74.5887 95.0304 74.3481 95.0532 74.0982C95.1078 73.4255 95.2214 72.6667 95.3802 71.8712C95.3848 71.8576 95.3849 71.8483 95.3895 71.8348C95.4759 71.4031 95.5758 70.9668 95.6893 70.5215C95.7304 70.3398 95.7758 70.1581 95.8257 69.9717C95.8664 70.1581 95.9075 70.3444 95.9439 70.5351C96.0349 70.9761 96.121 71.4167 96.2027 71.8619C96.2074 71.8801 96.212 71.903 96.212 71.9208C96.3437 72.6617 96.4665 73.4022 96.5618 74.1478C96.6754 74.9611 96.7664 75.7745 96.8388 76.5929C96.9248 77.5524 96.9884 78.5203 97.0976 79.479Z" fill="#61AA59"/>
<path d="M87.8248 79.2812C84.3577 76.2324 81.6098 74.9296 77.8061 73.1262C76.3959 72.4577 74.797 71.6994 72.9688 70.7609L73.3841 69.9521C75.1991 70.8845 76.7911 71.6393 78.1955 72.3051C82.0658 74.1399 84.8622 75.4659 88.4245 78.5988L87.8248 79.2812Z" fill="#78BA6E"/>
<path d="M85.6323 75.5865C82.2331 70.8404 77.0548 66.3004 72.4864 62.2945C71.7991 61.6919 71.1243 61.0998 70.4688 60.5193L71.0712 59.8389C71.7255 60.4186 72.3992 61.0095 73.0853 61.6109C77.691 65.649 82.9111 70.2262 86.3712 75.0572L85.6323 75.5865Z" fill="#78BA6E"/>
<path d="M87.7324 79.178C85.7643 75.9765 83.7718 72.4847 82.5305 68.6477C81.185 64.4875 80.949 60.4265 81.8486 56.9033L82.7288 57.1285C81.8722 60.485 82.1024 64.3716 83.3952 68.3683C84.6066 72.1142 86.5677 75.5487 88.5068 78.7021L87.7324 79.178Z" fill="#78BA6E"/>
<path d="M138.758 55.2058C137.436 54.933 136.482 56.4873 136.287 57.8187C136.096 59.1548 136.137 60.6955 135.137 61.5953C134.392 62.2587 133.252 62.3722 132.588 63.1131C133.72 64.9491 131.961 67.2803 130.035 68.2394C128.104 69.1938 125.782 69.6479 124.455 71.3479C124.923 71.4568 125.346 71.7524 125.609 72.1523C124.633 73.0157 123.647 73.8655 122.647 74.7017C121.956 75.2787 121.261 75.8467 120.562 76.4106C120.103 76.7833 119.639 77.1515 119.171 77.515C114.555 78.4419 106.581 79.1374 97.0899 79.478C96.981 79.4827 96.8717 79.4869 96.7629 79.4916C96.6447 79.4962 96.5312 79.5009 96.413 79.5052C96.1085 79.5141 95.7997 79.528 95.4906 79.537C95.1861 78.3008 94.9908 76.7512 95.009 74.8106C95.009 74.5878 95.0226 74.3471 95.0454 74.0972C95.1001 73.4156 95.2182 72.6429 95.3817 71.8342C95.5045 71.2254 95.6544 70.5981 95.8179 69.9711C96.3448 67.9852 97.0491 66.0039 97.6946 64.7131C97.7263 65.2994 98.5895 65.4947 99.0668 65.1494C99.5391 64.8042 99.7119 64.195 99.8893 63.6363C101.202 59.4691 104.397 55.9335 108.413 54.2064C107.986 54.5564 107.777 55.1516 107.89 55.6925C111.085 53.2567 114.86 51.5978 118.813 50.9073C118.454 51.0483 118.454 51.7482 118.84 51.9706C119.281 52.2252 119.826 52.0477 120.299 51.8659C122.693 50.9387 125.092 50.0118 127.486 49.0849C128.468 48.7078 130.208 49.1259 129.663 50.0257C133.552 48.4215 137.66 47.3535 141.839 46.8672C139.608 49.148 137.218 52.4154 138.758 55.2058Z" fill="#61AA59"/>
<path d="M96.831 76.5933C96.9174 77.552 96.9809 78.5199 97.0898 79.479C96.9809 79.4837 96.8717 79.4883 96.7628 79.4925C96.6447 79.4972 96.5311 79.5015 96.413 79.5061C96.1084 79.5154 95.7997 79.529 95.4905 79.5379C95.186 78.3018 94.9908 76.7522 95.009 74.8116C95.009 74.5887 95.0225 74.3481 95.0454 74.0982C95.1 73.4255 95.2135 72.6667 95.3724 71.8712C95.377 71.8576 95.377 71.8483 95.3816 71.8348C95.468 71.4031 95.568 70.9668 95.6815 70.5215C95.7226 70.3398 95.7679 70.1581 95.8179 69.9717C95.8586 70.1581 95.8996 70.3444 95.9361 70.5351C96.0271 70.9761 96.1131 71.4167 96.1948 71.8619C96.1995 71.8801 96.2042 71.903 96.2042 71.9208C96.3359 72.6617 96.4587 73.4022 96.554 74.1478C96.6675 74.9619 96.7586 75.7753 96.831 76.5933Z" fill="#61AA59"/>
<path d="M119.855 76.9795C119.632 77.1612 119.405 77.3387 119.178 77.5158C114.848 78.3838 107.569 79.0519 98.8594 79.4107C108.887 78.7566 116.02 77.8564 119.855 76.9795Z" fill="#61AA59"/>
<path d="M117.591 56.7154C117.477 56.7336 117.364 56.7518 117.25 56.77C117.341 56.6654 117.463 56.6243 117.591 56.7154Z" fill="#55934C"/>
<path d="M131.213 53.2607C127.637 54.4876 125.951 59.0275 122.321 60.0773C123.375 61.3223 121.694 63.0176 120.24 63.7674C116.556 65.6716 112.871 67.58 109.186 69.4842C109.359 70.4793 108.332 71.2291 107.446 71.7154C103.588 73.8331 99.5626 76.2054 96.7639 79.491C96.6457 79.4957 96.5322 79.5003 96.4141 79.5046C97.1908 75.7055 98.6906 72.0561 100.812 68.8115C100.989 69.316 101.171 69.8206 101.348 70.3294C103.665 63.3807 110.035 57.9638 117.246 56.7688C117.087 56.9552 117.037 57.3415 117.282 57.5004C117.655 57.7414 118.146 57.5415 118.545 57.3415C122.535 55.3691 126.819 53.9877 131.213 53.2607Z" fill="#55934C"/>
<path d="M119.112 59.7184C117.054 61.194 115.498 63.2776 113.151 64.4211C111.947 65.0125 110.654 65.1748 109.534 65.5883C108.414 65.9836 107.437 66.6973 106.545 67.5242C103.091 71.0044 99.9718 75.1619 96.9523 79.0446L96.6562 78.8342C98.6964 75.6532 100.911 72.571 103.369 69.6981C105.003 67.7591 106.722 65.6228 109.246 64.7711C110.495 64.3471 111.737 64.1813 112.818 63.6969C113.916 63.2226 114.901 62.4689 115.864 61.6765C116.841 60.8988 117.804 60.054 118.915 59.4131L119.112 59.7184Z" fill="#78BA6E"/>
<path d="M95.991 65.794L95.0938 65.6483C96.1165 59.3375 96.139 53.241 95.1646 46.462L96.0639 46.333C97.0522 53.2053 97.0289 59.3894 95.991 65.794Z" fill="#61AA59"/>
<path d="M94.9769 67.2833C94.9448 63.6827 97.1217 58.3049 99.9332 55.041L100.622 55.6343C97.9357 58.7529 95.8556 63.8663 95.8858 67.2752L94.9769 67.2833Z" fill="#61AA59"/>
<path d="M95.5271 62.2111C95.0296 58.2958 93.3928 53.869 91.1484 50.3699L91.9132 49.8789C94.2265 53.4865 95.9144 58.054 96.4282 62.0968L95.5271 62.2111Z" fill="#61AA59"/>
<path d="M111.046 52.9488L110.172 52.7008C110.495 51.562 111.734 50.7075 112.827 49.9538C113.1 49.7655 113.358 49.5877 113.579 49.4187C113.998 49.0979 114.437 48.7995 114.861 48.5108C115.521 48.0621 116.143 47.6381 116.71 47.1321C118.035 45.9486 118.974 44.3727 119.883 42.8486L120.664 43.314C119.721 44.897 118.745 46.5334 117.315 47.8098C116.704 48.3558 116.027 48.8165 115.373 49.2618C114.958 49.5435 114.53 49.8349 114.131 50.1402C113.9 50.3173 113.629 50.5045 113.343 50.7017C112.424 51.336 111.28 52.1246 111.046 52.9488Z" fill="#55934C"/>
<path d="M111.867 51.7927L111.203 51.1719C112.84 49.4212 113.763 47.9378 114.931 46.0596C115.236 45.5686 115.554 45.0567 115.903 44.5127L116.668 45.0033C116.322 45.5434 116.005 46.0522 115.702 46.5397C114.555 48.3838 113.564 49.9768 111.867 51.7927Z" fill="#55934C"/>
<path d="M100.183 60.3299C99.1711 62.1566 98.8205 64.2619 98.485 66.3044C98.1739 65.3713 98.0336 64.4959 97.6443 63.3652C97.6067 63.2377 97.5703 63.1102 97.5374 62.9816C97.4982 63.1536 97.475 63.3284 97.4595 63.5039C96.0148 65.4058 94.9572 67.7207 94.7402 70.1108C94.6205 71.8793 95.3078 73.5696 96.0718 75.1281C96.0977 75.1839 96.1252 75.2389 96.1488 75.2963C96.1492 75.2862 96.1497 75.2766 96.1497 75.2669C96.1427 74.8193 96.1136 74.3725 96.09 73.9257C95.8986 71.8545 96.1055 70.2011 96.606 67.9915C96.8861 66.6093 97.1003 65.2147 97.4362 63.8449C97.3917 64.9206 97.6815 66.0575 98.411 66.8508C98.3626 67.2712 98.2994 67.8005 98.3467 67.9784C98.4711 67.7009 98.609 67.4301 98.7438 67.158C98.786 67.1921 98.8217 67.2313 98.8658 67.263C98.8356 67.1983 98.812 67.1371 98.7845 67.074C99.0448 66.5528 99.3129 66.0358 99.5802 65.5185C100.758 63.1633 101.382 61.8799 102.813 59.8362C104.418 57.4729 105.947 55.6721 108.253 54.2275C104.79 54.7933 101.81 57.2756 100.183 60.3299Z" fill="#B6DBAF"/>
<path d="M91.1598 57.741C91.0618 57.5182 90.9537 57.3001 90.8266 57.0916C90.9409 58.2572 90.8386 58.6617 90.8747 59.7808C90.8751 59.8188 90.879 59.8564 90.8801 59.894C90.4838 58.4033 89.8647 56.9796 88.9077 55.7566C88.1139 54.7662 87.155 53.9238 86.2001 53.0934C85.3415 52.3664 84.4218 51.6534 83.3762 51.2206C83.37 51.2074 83.3657 51.1938 83.3595 51.1811C83.1142 50.5626 83.1084 50.7718 83.129 51.1218C83.117 51.1175 83.1058 51.1121 83.0938 51.1078C83.1065 51.1198 83.1178 51.1326 83.1302 51.1446C83.1418 51.3376 83.16 51.5674 83.1503 51.7251C83.1925 53.2344 83.4773 54.7236 83.8271 56.1883C84.2327 54.6337 84.1134 52.9976 83.5017 51.5193C84.4547 52.545 85.1715 53.7777 86.0238 54.8856C88.2394 57.7279 89.3943 59.5762 90.7484 62.3507C90.9924 62.8347 91.2388 63.3183 91.4705 63.8085C91.455 63.5783 91.4391 63.3486 91.4198 63.1188C91.4058 62.9456 91.3841 62.772 91.3663 62.5984C91.4364 62.367 91.4988 62.1341 91.5139 62.0582C91.672 61.3332 91.7231 60.5686 91.6631 59.8142C91.9893 60.9251 92.3031 62.04 92.6545 63.1436C93.339 64.9292 93.5029 66.4431 93.7694 68.569C93.788 68.66 93.7757 68.8704 93.8268 68.648C94.1278 67.6169 94.382 66.559 94.4308 65.4821C94.5056 62.5999 93.0035 59.8828 91.1598 57.741Z" fill="#B6DBAF"/>
<path d="M96.3694 79.5596C88.4362 80.0231 78.8677 80.3366 67.8359 80.3777C68.1358 79.9642 68.445 79.5503 68.7537 79.1369C70.3941 76.951 72.2157 74.7604 74.701 73.6289C78.2494 72.0065 82.4297 72.8609 86.078 74.2423C89.7085 75.6195 93.1073 77.4648 96.3694 79.5596Z" fill="#FBFCED"/>
<path d="M110.346 101.06C107.456 105.981 104.262 110.721 100.777 115.238C97.0242 120.11 93.503 123.537 89.105 124.386C84.2754 125.318 79.5137 122.855 75.211 120.469C72.1666 118.783 69.1227 117.093 66.0783 115.406C62.0027 113.148 57.5365 110.39 56.4599 105.858C55.6331 102.382 57.0732 98.7963 58.6453 95.5924C59.7812 93.2794 61.0036 91.0071 62.3165 88.7895C63.2025 88.7941 64.0932 88.7942 64.9882 88.7942C81.4085 88.7942 96.2567 88.185 106.916 87.1992L107.584 87.7173C109.678 89.3351 111.918 91.1804 112.432 93.7797C112.94 96.3151 111.65 98.8327 110.346 101.06Z" fill="#FBFCED"/>
<path opacity="0.3" d="M91.7385 90.1883C90.36 91.1849 89.5027 92.7334 89.3679 94.4291C89.0304 98.6668 87.7 102.825 85.4972 106.462C84.0265 108.89 82.1537 111.141 81.3471 113.863C80.5409 116.584 81.2053 120.05 83.7406 121.325C84.8904 121.904 86.2398 121.944 87.5179 121.792C92.4424 121.209 96.7896 117.938 99.4752 113.768C102.16 109.598 103.34 104.613 103.733 99.6689C103.965 96.7471 103.922 93.706 102.33 91.1163C101.609 89.9434 100.573 88.9712 99.2978 88.4519C96.6351 87.3677 94.1095 88.474 91.7385 90.1883Z" fill="#EFE8B4"/>
<path d="M69.2304 89.1807C67.2395 91.8602 65.4787 94.7107 63.9732 97.6906C62.9907 99.6358 62.0954 101.781 62.444 103.932C62.6304 105.081 63.1627 106.145 63.783 107.13C64.9305 108.951 66.503 110.631 68.5571 111.273C70.6112 111.915 73.1837 111.215 74.1511 109.292C75.2575 107.093 73.9698 104.512 72.8838 102.303C70.8421 98.1517 69.4486 93.6826 69.2304 89.1807Z" fill="white"/>
<path opacity="0.2" d="M106.916 87.1989C96.2574 88.1851 81.4092 88.7939 64.9888 88.7939C64.0938 88.7939 63.2032 88.7939 62.3171 88.7892H62.3125C63.7301 86.3805 65.243 84.0311 66.8562 81.7452C78.2331 81.7135 89.0557 81.3907 98.2747 80.8184C101.233 82.8272 104.086 85.013 106.916 87.1989Z" fill="#FBFCED"/>
<path d="M109.842 158.464C121.95 137.357 121.631 114.429 109.128 107.254C96.6247 100.078 76.6733 111.372 64.5649 132.479C52.4564 153.587 52.7763 176.514 65.2792 183.69C77.7821 190.865 97.7335 179.571 109.842 158.464Z" fill="#EACE44"/>
<path d="M109.452 160.326C121.561 139.219 121.742 116.579 109.858 109.759C97.9745 102.939 78.5249 114.521 66.4165 135.628C54.308 156.735 54.126 179.375 66.01 186.195C77.8939 193.015 97.3437 181.433 109.452 160.326Z" fill="#EDED6B"/>
<path d="M108.513 159.784C119.558 140.53 119.724 119.879 108.884 113.657C98.0435 107.436 80.3019 118.001 69.2568 137.254C58.2116 156.508 58.0456 177.16 68.886 183.381C79.7263 189.602 97.468 179.037 108.513 159.784Z" fill="#FFFED2"/>
<path d="M90.674 144.976C91.4523 144.737 92.2306 144.497 93.009 144.257C93.3824 145.218 93.7563 146.179 94.1297 147.14C94.2343 147.409 94.3401 147.685 94.3436 147.973C94.3517 148.646 93.783 149.215 93.1461 149.431C92.5092 149.647 91.8165 149.588 91.147 149.526C90.8634 149.5 90.5694 149.471 90.3241 149.326C89.2068 148.667 90.1908 146.628 89.2266 145.76C89.712 145.425 90.2064 145.121 90.674 144.976Z" fill="#F9F1D7"/>
<path d="M89.7953 144.27C89.0852 144.361 88.3964 143.982 88.0609 143.349L80.808 129.664C80.5225 129.126 80.2307 128.563 80.2191 127.95C80.2032 127.098 80.727 126.323 81.2547 125.633C84.6024 121.254 88.9996 117.647 93.9705 115.2C94.3599 115.008 94.7737 114.819 95.2037 114.838C95.8875 114.868 96.4365 115.435 96.6511 116.07C96.8658 116.705 96.8154 117.399 96.7592 118.073C96.1874 124.941 95.2843 131.791 94.0539 138.591C93.7261 140.402 93.2654 142.389 91.7549 143.498C91.1598 143.934 90.4644 144.183 89.7953 144.27Z" fill="#EDED6B"/>
<path d="M94.6161 143.666C100.768 138.115 106.582 132.189 112.016 125.933C112.785 125.047 113.581 124.079 113.708 122.912C113.783 122.227 113.615 121.538 113.395 120.885C112.305 117.652 109.839 114.908 106.74 113.48C104.501 112.449 101.537 112.23 99.84 114.019C98.811 115.104 98.4949 116.663 98.2257 118.133C96.7631 126.121 95.4018 134.127 94.1415 142.15C94.0559 142.694 94.1183 143.454 94.6161 143.666Z" fill="#EDED6B"/>
<path d="M96.295 143.299C102.353 139.321 107.342 133.939 112.973 129.377C113.606 128.864 114.527 128.353 115.164 128.862C115.556 129.175 115.622 129.736 115.65 130.236C115.983 136.275 115.053 142.381 112.935 148.046C112.738 148.576 112.522 149.113 112.145 149.535C111.679 150.054 111.01 150.345 110.337 150.529C107.343 151.345 104.207 150.291 101.172 149.644C99.9794 149.39 98.7583 149.193 97.6526 148.679C96.5469 148.164 95.5458 147.267 95.2432 146.086C94.941 144.905 95.55 143.464 96.295 143.299Z" fill="#EDED6B"/>
<path d="M93.25 150.458C94.9853 156.372 96.7205 162.285 98.4562 168.199C98.5658 168.573 98.7041 168.984 99.045 169.174C99.6076 169.486 100.267 169 100.725 168.548C104.809 164.519 108.211 160.271 109.96 154.399C110.113 153.885 110.074 153.282 109.768 152.842C109.505 152.464 109.048 152.28 108.612 152.134C105.118 150.964 101.311 151.001 97.8134 149.844C96.9816 149.568 96.1479 149.222 95.2716 149.229C94.3952 149.235 93.446 149.71 93.25 150.458Z" fill="#EDED6B"/>
<path d="M91.2765 150.519C92.1742 150.458 92.9998 151.106 93.2253 152.016L97.0278 167.381C97.4198 168.966 97.8096 170.656 97.3106 172.173C97.0417 172.991 96.5319 173.691 95.9938 174.344C93.0842 177.878 89.0981 180.444 84.7044 181.602C84.3441 181.696 83.9621 181.727 83.5921 181.648C81.8146 181.264 81.7817 179.022 82.0571 177.375C83.4584 168.99 85.0615 160.528 88.6758 152.961C89.0744 152.126 89.5332 151.264 90.313 150.801C90.5947 150.633 90.9306 150.542 91.2765 150.519Z" fill="#EDED6B"/>
<path d="M87.4624 147.266C80.4985 149.303 73.2157 149.952 65.9884 150.591C65.627 150.623 65.209 150.634 64.9653 150.366C64.7065 150.08 64.7832 149.636 64.8785 149.262C65.7606 145.815 66.9074 142.41 68.6581 139.312C70.4093 136.214 72.7927 133.423 75.8084 131.534C76.589 131.045 77.4631 130.606 78.3824 130.664C79.9487 130.764 81.037 132.219 81.8564 133.558C83.9124 136.918 85.7027 140.433 87.4902 143.943C87.8676 144.684 88.255 145.472 88.1926 146.301C88.1302 147.13 87.7859 147.151 87.4624 147.266Z" fill="#EDED6B"/>
<path d="M88.5311 148.769C88.4269 148.199 87.8214 147.869 87.2673 148.039C81.0074 149.951 74.627 151.469 68.1761 152.579C66.9615 152.787 65.6695 153.017 64.7629 153.852C64.1694 154.398 63.8075 155.149 63.5278 155.906C62.4826 158.733 62.4191 161.913 63.3516 164.779C63.4786 165.17 63.6317 165.568 63.9203 165.861C64.625 166.575 65.8175 166.397 66.7535 166.035C68.6526 165.301 70.2992 164.049 71.917 162.813C76.9577 158.963 81.9984 155.113 87.0395 151.263C87.5711 150.856 88.1224 150.427 88.4052 149.82C88.5501 149.508 88.5978 149.136 88.5311 148.769Z" fill="#EDED6B"/>
<path d="M88.6504 150.876C88.9789 150.816 89.2113 151.187 89.0354 151.471C84.4542 158.859 83.0897 167.774 80.537 176.112C79.9354 178.076 79.1725 180.146 77.507 181.349C75.8748 182.527 73.6328 182.616 71.7294 181.962C69.3646 181.15 67.4515 179.325 65.8248 177.492C64.7892 176.325 63.9349 175.004 63.341 173.561C63.0206 172.784 62.7692 171.935 62.8904 171.098C63.1213 169.509 64.58 168.434 65.9193 167.548C72.8362 162.974 79.8896 158.487 85.8365 152.707C86.6369 151.929 87.5172 151.083 88.6504 150.876Z" fill="#EDED6B"/>
<path d="M92.5547 140.158C92.5644 135.494 92.5741 130.831 92.5842 126.167C92.5888 123.988 92.5942 121.796 92.9708 119.65C93.0331 119.295 93.1568 118.881 93.5004 118.772C93.815 118.671 94.157 118.907 94.2923 119.208C94.4279 119.509 94.4097 119.853 94.3884 120.183C93.9665 126.772 93.3962 133.351 92.5547 140.158Z" fill="#F7DF52"/>
<path d="M90.307 129.959C89.5857 126.993 88.8589 123.98 88.9728 120.93C88.9821 120.676 89.0177 120.386 89.2285 120.245C89.4486 120.098 89.7647 120.201 89.9355 120.403C90.1064 120.605 90.166 120.876 90.2118 121.137C90.7445 124.167 90.1439 127.296 90.307 129.959Z" fill="#F7DF52"/>
<path d="M90.4204 139.361C89.5627 135.882 88.7049 132.404 87.8471 128.926C87.7243 128.428 87.7042 127.732 88.1951 127.583C89.0784 128.849 89.3515 130.43 89.5843 131.956C90.0159 134.784 90.3863 137.62 90.4204 139.361Z" fill="#F7DF52"/>
<path d="M89.1975 141.579C87.2546 138.471 85.5445 135.217 84.0863 131.854C83.676 130.908 83.2778 129.9 83.4079 128.877C84.392 129.469 84.8956 130.597 85.3357 131.659C86.7413 135.051 88.0883 138.467 89.1975 141.579Z" fill="#F7DF52"/>
<path d="M86.9764 132.289C85.9955 129.952 85.1652 127.551 84.4919 125.107C84.397 124.763 84.309 124.377 84.4795 124.062C84.5558 123.922 84.6988 123.802 84.8584 123.812C85.082 123.826 85.2102 124.068 85.2876 124.278C85.7165 125.442 85.9253 126.674 86.1314 127.898C86.3658 129.287 86.5998 130.676 86.9764 132.289Z" fill="#F7DF52"/>
<path d="M87.2115 145.193C85.3794 143.197 83.5473 141.201 81.7151 139.204C80.9589 138.38 80.1476 137.384 80.3309 136.281C80.3561 136.131 80.408 135.971 80.5343 135.885C80.8179 135.691 81.1709 136 81.3727 136.278C83.4427 139.127 85.3925 142.063 87.2115 145.193Z" fill="#F7DF52"/>
<path d="M84.6747 144.303C81.4773 141.932 78.4206 139.372 75.5258 136.64C75.1496 136.284 74.761 135.902 74.6161 135.405C74.4712 134.909 74.6742 134.271 75.1693 134.121C75.7125 133.956 76.2258 134.423 76.6016 134.849C79.4453 138.065 82.2405 141.323 84.6747 144.303Z" fill="#F7DF52"/>
<path d="M85.9542 146.528C81.681 144.404 77.4082 142.279 73.1349 140.155C72.5968 139.888 72.0381 139.603 71.6817 139.119C71.3253 138.636 71.2466 137.89 71.6724 137.466C72.2745 136.866 73.2872 137.294 74.0031 137.752C78.0075 140.315 81.8592 143.117 85.9542 146.528Z" fill="#F7DF52"/>
<path d="M80.7429 145.483C77.143 144.849 73.5171 144.208 70.1047 142.899C69.7382 142.758 69.3585 142.598 69.1125 142.292C68.8669 141.986 68.8135 141.489 69.1021 141.223C69.4136 140.935 69.9091 141.055 70.3097 141.195C73.7876 142.406 77.2026 143.799 80.7429 145.483Z" fill="#F7DF52"/>
<path d="M83.8862 146.97C79.6285 147.641 75.3405 148.12 71.0394 148.404C70.0271 148.471 68.9175 148.5 68.1094 147.886C67.7661 147.625 67.4906 147.189 67.6173 146.777C67.7824 146.241 68.4673 146.106 69.0272 146.072C73.8374 145.781 78.6789 146.015 83.8862 146.97Z" fill="#F7DF52"/>
<path d="M95.6406 139.018C96.6243 134.984 97.5053 130.925 98.2824 126.845C98.6923 124.694 99.0883 122.493 100.141 120.572C100.274 120.329 100.485 120.057 100.759 120.098C101.083 120.146 101.172 120.568 101.166 120.895C101.133 122.71 100.552 124.463 99.9758 126.184C98.5951 130.308 97.2151 134.432 95.6406 139.018Z" fill="#F7DF52"/>
<path d="M98.9922 131.764C101.744 126.852 101.496 120.84 103.239 115.486C103.373 115.075 103.528 114.654 103.831 114.346C104.134 114.038 104.626 113.875 105.01 114.075C105.373 114.265 105.528 114.709 105.553 115.119C105.595 115.79 105.383 116.448 105.168 117.085C103.603 121.726 101.756 126.272 98.9922 131.764Z" fill="#F7DF52"/>
<path d="M97.4766 136.311C100.289 131.429 102.888 126.424 105.264 121.315C105.707 120.363 106.199 119.345 107.117 118.838C107.38 118.693 107.765 118.624 107.934 118.872C108.054 119.048 107.989 119.286 107.918 119.487C107.617 120.34 107.269 121.177 106.877 121.992C105.91 124.004 104.679 125.875 103.452 127.738C101.717 130.373 99.9824 133.008 97.4766 136.311Z" fill="#F7DF52"/>
<path d="M97.4375 138.635C101.269 133.313 105.102 127.991 109.089 122.784C109.519 122.223 109.978 121.641 110.623 121.354C110.771 121.288 110.936 121.239 111.094 121.273C111.495 121.36 111.6 121.892 111.521 122.295C111.341 123.225 110.675 123.974 110.035 124.672C105.958 129.124 101.882 133.575 97.4375 138.635Z" fill="#F7DF52"/>
<path d="M97.9688 143.737C102.705 140.643 107.535 137.506 112.979 135.97C113.515 135.819 114.138 135.697 114.592 136.022C113.413 137.33 111.703 138.007 110.045 138.603C107.42 139.547 104.747 140.408 102.299 141.746C100.893 142.515 99.5382 143.449 97.9688 143.737Z" fill="#F7DF52"/>
<path d="M104.242 138.317C106.701 136.246 109.159 134.174 111.618 132.102C112.247 131.572 112.989 131.009 113.801 131.135C114.059 131.176 114.338 131.328 114.374 131.586C114.39 131.694 114.359 131.804 114.32 131.906C114.052 132.59 113.394 133.028 112.771 133.417C110.169 135.044 107.526 136.605 104.242 138.317Z" fill="#F7DF52"/>
<path d="M102.82 142.284C105.444 141.48 108.076 140.703 110.716 139.951C111.423 139.749 112.149 139.548 112.883 139.602C113.066 139.615 113.265 139.654 113.38 139.797C113.536 139.99 113.459 140.296 113.279 140.468C113.099 140.639 112.847 140.709 112.607 140.771C109.606 141.539 106.508 141.927 102.82 142.284Z" fill="#F7DF52"/>
<path d="M98.4688 144.637C102.296 144.05 106.124 143.462 109.952 142.875C110.591 142.777 111.238 142.678 111.881 142.748C112.202 142.783 112.567 142.901 112.677 143.204C112.772 143.466 112.623 143.767 112.399 143.932C112.175 144.098 111.892 144.158 111.618 144.209C108.829 144.73 105.973 144.75 103.136 144.768C101.678 144.778 100.219 144.788 98.4688 144.637Z" fill="#F7DF52"/>
<path d="M98.5391 146.244C102.134 146.412 105.725 146.651 109.31 146.963C109.714 146.997 110.134 147.039 110.478 147.253C110.821 147.467 111.059 147.911 110.905 148.286C110.734 148.703 110.204 148.824 109.754 148.836C108.613 148.867 107.492 148.57 106.386 148.287C103.478 147.541 100.55 146.871 98.5391 146.244Z" fill="#F7DF52"/>
<path d="M95.4219 150.23C98.9857 151.506 102.895 151.671 106.377 153.156C106.823 153.346 107.266 153.561 107.634 153.878C107.747 153.976 107.857 154.093 107.884 154.24C107.929 154.492 107.698 154.726 107.447 154.779C107.197 154.832 106.939 154.754 106.696 154.676C103.082 153.517 99.5394 152.134 95.4219 150.23Z" fill="#F7DF52"/>
<path d="M97.7266 152.233C100.478 154.088 103.737 155.094 106.456 156.997C106.725 157.185 106.999 157.394 107.142 157.69C107.285 157.985 107.252 158.392 106.984 158.583C106.64 158.827 106.169 158.597 105.816 158.365C103.134 156.604 100.561 154.681 97.7266 152.233Z" fill="#F7DF52"/>
<path d="M95.1953 151.182C98.094 154.323 101.561 156.88 104.677 159.807C104.928 160.042 105.183 160.289 105.321 160.604C105.459 160.92 105.453 161.323 105.215 161.572C104.976 161.823 104.57 161.846 104.248 161.72C103.925 161.593 103.669 161.345 103.424 161.099C102.011 159.681 100.709 158.157 99.4085 156.634C98.1521 155.164 96.8961 153.693 95.1953 151.182Z" fill="#F7DF52"/>
<path d="M97.8438 156.471C99.4841 158.324 101.018 160.272 102.435 162.302C102.776 162.79 103.125 163.335 103.081 163.929C103.069 164.093 103.017 164.27 102.88 164.362C102.788 164.423 102.672 164.437 102.562 164.432C101.933 164.397 101.495 163.814 101.16 163.281C99.7959 161.109 98.6008 158.831 97.8438 156.471Z" fill="#F7DF52"/>
<path d="M94.5781 152.134C96.3552 155.844 98.1323 159.554 99.7761 163.325C100.092 164.05 100.406 164.79 100.491 165.576C100.52 165.849 100.517 166.138 100.384 166.378C100.251 166.618 99.9524 166.784 99.6963 166.687C99.5247 166.622 99.4108 166.461 99.3151 166.304C98.5495 165.057 98.2652 163.584 97.844 162.182C97.3884 160.665 96.762 159.206 96.1979 157.725C95.4676 155.81 94.8416 153.856 94.5781 152.134Z" fill="#F7DF52"/>
<path d="M92.0312 152.12C93.7247 157.912 95.1918 163.77 96.4281 169.676C96.5025 170.031 96.5486 170.468 96.2642 170.693C95.9012 170.98 95.37 170.644 95.105 170.264C94.5514 169.471 94.3918 168.476 94.2465 167.52C93.4624 162.348 92.6782 157.177 92.0312 152.12Z" fill="#F7DF52"/>
<path d="M90.5015 153.287C91.8253 159.299 92.9554 165.354 93.8895 171.439C94.0138 172.249 94.1064 173.169 93.585 173.801C93.4439 173.971 93.2483 174.116 93.0271 174.126C92.5033 174.15 92.2538 173.5 92.1636 172.983C91.0211 166.45 90.3682 159.832 90.5015 153.287Z" fill="#F7DF52"/>
<path d="M85.9558 149.274C81.1193 150.686 76.2828 152.098 71.4462 153.509C71.2366 153.57 71.0193 153.636 70.8593 153.784C70.6993 153.933 70.6179 154.19 70.7353 154.374C70.7977 154.472 70.9038 154.532 71.01 154.58C71.9452 154.994 73.0211 154.598 73.9648 154.204C77.81 152.599 81.6555 150.993 85.9558 149.274Z" fill="#F7DF52"/>
<path d="M83.6198 151.818C77.8693 154.263 72.2115 156.925 66.6621 159.798C65.9388 160.172 65.0651 160.553 64.3488 160.165C64.1903 160.079 64.0481 159.954 63.971 159.792C63.7409 159.306 64.1652 158.767 64.594 158.443C65.6703 157.63 66.9689 157.18 68.2439 156.741C73.1486 155.054 78.053 153.368 83.6198 151.818Z" fill="#F7DF52"/>
<path d="M83.1957 153.459C77.4402 156.618 72.5158 161.11 66.8579 164.441C66.4124 164.703 65.8463 164.959 65.4078 164.686C64.9855 164.422 64.9541 163.781 65.2082 163.353C65.4624 162.926 65.9137 162.661 66.3461 162.415C71.6227 159.408 76.9032 156.4 83.1957 153.459Z" fill="#F7DF52"/>
<path d="M112.704 156.202V195.171C108.951 197.257 102.277 200.293 98.5689 201.788C97.3424 202.283 96.0383 202.761 94.725 202.579C92.4442 202.266 90.931 200.13 89.6955 198.184C89.6502 198.112 89.6045 198.043 89.5591 197.971C86.674 193.426 83.7936 188.873 80.9127 184.329C78.8001 180.993 76.6828 177.657 74.5698 174.322C73.6249 172.831 72.6572 171.277 72.4437 169.527C71.944 165.387 75.674 162.083 79.0229 159.598C79.5408 159.216 80.0542 158.83 80.5722 158.448C81.1537 158.016 81.7352 157.584 82.3167 157.153C86.9967 153.681 91.681 150.209 96.3607 146.737C100.918 143.36 107.424 144.869 110 149.922C110.014 149.945 110.027 149.972 110.041 149.995C110.041 150 110.041 150 110.041 150.004C110.75 151.399 111.422 152.817 112.058 154.258L112.704 156.202Z" fill="#F2F2A2"/>
<path opacity="0.2" d="M112.707 154.357V195.171C108.955 197.257 102.28 200.293 98.5724 201.788C97.3459 202.283 96.0418 202.761 94.7285 202.579C92.4477 202.266 90.9345 200.13 89.699 198.185C89.6537 198.112 89.608 198.043 89.5626 197.971C89.5398 192.608 92.5705 189.918 99.3492 185.833C107.105 181.156 113.52 169.368 110.045 150.004C110.608 151.117 111.89 152.935 112.707 154.357Z" fill="#EACE44"/>
<path opacity="0.5" d="M95.4002 174.59C97.8061 173.005 100.212 171.42 102.618 169.835C103.793 169.061 105.018 168.233 105.666 166.983C106.604 165.175 106.1 162.975 105.425 161.054C104.321 157.912 102.808 154.915 100.936 152.16C99.9043 150.641 98.5712 149.08 96.7496 148.847C96.5686 148.824 96.375 148.817 96.2142 148.903C96.06 148.986 95.9596 149.144 95.888 149.304C95.5215 150.126 95.7733 151.107 96.2479 151.872C96.7225 152.637 97.397 153.253 97.9692 153.948C99.6277 155.964 100.368 158.56 101.068 161.075C101.421 162.344 101.776 163.673 101.507 164.963C100.926 167.737 97.8878 169.084 95.5896 170.742C94.7842 171.323 93.9811 172.093 93.9098 173.084C93.8385 174.075 94.8559 174.949 95.4002 174.59Z" fill="white"/>
<path d="M95.3247 211.811C92.0033 216.06 87.2873 218.955 82.6801 221.754C78.3817 224.372 73.9337 227.039 68.9585 227.785C67.8044 227.958 66.5685 228.012 65.5325 227.471C64.4237 226.89 64.0739 225.486 63.1379 224.649C52.0879 214.788 47.5718 205.358 47.0766 195.588C46.8721 191.493 47.3676 187.335 48.3896 183.059C48.6666 181.913 48.4578 180.655 49.0075 179.609C49.6437 178.4 50.8338 177.605 51.9837 176.878C59.7414 171.965 67.9093 167.704 76.3775 164.155C81.1668 162.148 86.7108 163.83 89.6176 168.134C93.0707 173.246 97.2548 180.086 98.8409 185.072C101.676 193.988 101.09 204.44 95.3247 211.811Z" fill="#F4F7D4"/>
<path opacity="0.5" d="M58.3737 202.44C56.4339 204.562 56.2774 207.778 57.9398 210.124C59.2268 211.941 60.3856 213.866 61.7349 215.639C63.9409 218.537 66.9806 221.171 70.6142 221.406C74.1115 221.631 77.3135 219.613 80.2331 217.674C82.842 215.941 85.6151 214.004 86.6418 211.045C88.1841 206.6 85.2052 201.972 82.3817 198.208C81.4856 197.013 80.5899 195.819 79.6938 194.624C78.7225 193.33 77.5851 191.932 75.9831 191.7C74.6845 191.513 73.4246 192.152 72.2681 192.772C67.3138 195.429 62.0856 198.379 58.3737 202.44Z" fill="white"/>
<path opacity="0.5" d="M76.9451 163.918C80.282 162.535 83.6436 165.829 82.35 169.203C81.2114 172.173 79.6365 174.926 77.4639 177.278C75.0968 179.836 72.1524 181.777 69.2084 183.635C63.1565 187.462 56.9636 191.07 50.6525 194.451C49.553 195.042 48.2718 195.628 47.0766 195.588C46.8721 191.493 47.3676 187.335 48.3896 183.058C48.6666 181.913 48.4578 180.654 49.0075 179.609C49.6437 178.4 50.8338 177.605 51.9837 176.878C59.9146 171.855 68.2743 167.514 76.9451 163.918Z" fill="#EFE8B4"/>
<path opacity="0.5" d="M81.925 182.041C84.6982 187.251 87.7193 192.328 90.9751 197.25C91.9317 198.696 93.3508 200.318 95.0404 199.931C95.8164 194.77 92.6829 189.916 89.6951 185.636C87.7077 182.789 85.2189 179.654 81.7499 179.52C81.7402 180.052 81.235 180.744 81.925 182.041Z" fill="white"/>
<path d="M33.4153 71.2527L35.4872 80.3508C32.1024 80.1738 28.9356 79.9645 26.023 79.7328L24.242 71.9072L8.3125 2.01772L17.1724 0L33.4153 71.2527Z" fill="#0C4614"/>
<path d="M48.614 1.78135L48.5412 70.63L48.5323 80.8596C45.388 80.7732 42.3486 80.669 39.4453 80.5415L39.4543 70.9482L39.5271 1.77246L48.614 1.78135Z" fill="#0C4614"/>
<path d="M123.206 74.2343C123.024 74.3889 122.838 74.5478 122.651 74.7024C122.465 74.857 122.279 75.0112 122.092 75.1658C122.597 75.3658 122.919 75.5611 123.051 75.7474C122.778 76.1338 121.697 76.5519 119.853 76.9789C116.018 77.8558 108.884 78.756 98.8572 79.4101C98.8255 79.4101 98.789 79.4147 98.7573 79.4147C89.7385 80.001 78.3841 80.3874 64.9898 80.3874C29.4732 80.3874 8.30027 77.6652 6.93268 75.7474C8.30027 73.8251 29.4732 71.1029 64.9898 71.1029C66.5891 71.1029 68.1566 71.1075 69.6969 71.1211C69.4517 70.7665 69.22 70.403 68.9926 70.0349C69.4924 70.0167 69.9922 69.9985 70.4919 69.9803C70.4373 69.9074 70.3874 69.835 70.3374 69.7621C68.57 69.7486 66.7844 69.7393 64.9898 69.7393C49.2738 69.7393 34.4984 70.2938 23.3755 71.3024C5.54689 72.9156 5.54688 74.8969 5.54688 75.7471C5.54688 76.5926 5.54689 78.5739 23.3755 80.1917C34.498 81.1961 49.2738 81.7506 64.9898 81.7506C80.7105 81.7506 95.4859 81.1961 106.608 80.1917C124.437 78.5739 124.437 76.5926 124.437 75.7471C124.437 75.4022 124.437 74.8612 123.206 74.2343Z" fill="#F5F8FC"/>
<path d="M101.354 213.254C101.049 214.863 100.745 216.467 100.441 218.076C101.636 218.249 102.804 218.589 103.903 219.085C103.735 220.048 103.249 220.953 102.545 221.625C102.808 222.125 103.112 222.603 103.453 223.057C99.6869 225.834 95.0344 227.474 89.9956 227.474H80.7812C83.6664 222.739 82.3898 216.258 83.3076 210.596C83.5711 208.955 84.3254 207.061 85.961 206.756C86.6154 206.633 87.3058 206.801 87.9373 206.597C89.6865 206.024 89.5412 203.33 90.9634 202.157C92.7808 200.662 96.5202 202.084 97.2652 199.853C97.5197 199.08 97.3922 197.926 98.183 197.754C98.9284 197.59 99.396 198.608 100.132 198.794C100.941 198.999 101.6 198.154 102.009 197.422C103.113 195.441 104.217 193.459 105.321 191.478C106.275 193.1 106.443 195.158 105.771 196.917C105.562 197.472 105.266 198.022 105.307 198.613C105.353 199.204 105.934 199.799 106.484 199.585C107.047 202.553 106.993 205.638 106.325 208.588C106.743 208.565 107.166 208.538 107.588 208.515C107.074 211.332 104.207 213.513 101.354 213.254Z" fill="#78BA6E"/>
<path d="M67.9205 80.3783C67.1073 80.3876 66.2895 80.3876 65.4623 80.3876H64.9854C45.7752 80.3876 30.7635 79.5925 20.8134 78.5563C20.3365 78.5063 19.8685 78.4563 19.4141 78.4063C19.4869 77.1566 19.7775 75.9341 20.3547 74.7755C20.7045 74.071 21.1454 73.4304 21.6541 72.8484C21.8858 72.5803 22.1314 72.3214 22.3949 72.0757C22.6765 71.8076 22.9717 71.553 23.2809 71.3124C24.8619 70.0627 26.7568 69.1176 28.606 68.2902C34.4943 65.6634 40.628 63.5957 46.9026 62.1236C49.565 61.4966 52.3641 60.9828 54.9993 61.7008C58.7611 62.7323 61.4285 66.0633 63.3459 69.4628C63.4005 69.5535 63.4504 69.6492 63.5004 69.7445C63.6275 69.9716 63.7503 70.1991 63.8731 70.4262C63.9913 70.649 64.1095 70.876 64.2276 71.1031C65.7444 74.0706 66.9303 77.1884 67.9205 80.3783Z" fill="#FBFCED"/>
<path d="M65.4614 80.3876H64.9845C45.7743 80.3876 30.7626 79.5925 20.8125 78.5563L22.2506 75.824C22.8054 74.7704 24.1373 74.4422 25.1403 75.0831C29.8773 78.1099 37.8566 79.8308 45.543 77.7425C51.6104 76.091 57.3357 73.4331 60.2851 71.9537C61.3838 71.4026 62.7142 71.9622 63.0954 73.1309L65.4614 80.3876Z" fill="white"/>
<path opacity="0.4" d="M51.2581 73.3887C48.2781 74.5756 45.238 75.587 42.2142 76.653C41.403 76.963 40.2737 77.342 39.6406 77.6307C40.1892 77.6105 40.7378 77.5896 41.2864 77.5656C45.2977 77.4292 49.3784 76.9645 53.0085 75.1344C55.8808 73.7417 59.1355 71.8445 59.9952 68.5469C57.8528 71.4616 54.6198 72.0658 51.2581 73.3887Z" fill="url(#paint1_linear_679_179671)"/>
<path opacity="0.1" d="M118.358 85.7041V151.635C118.358 152.453 116.322 153.23 112.706 153.912V204.755C112.706 212.263 109.066 218.92 103.455 223.056C99.6889 225.833 95.0363 227.473 89.9975 227.473H39.9778C27.4378 227.473 17.2692 217.303 17.2692 204.755V153.912C13.6527 153.23 11.6172 152.453 11.6172 151.635V85.7041C20.5724 87.4583 39.7962 88.699 62.3137 88.7897C63.1998 88.7944 64.0905 88.7944 64.9854 88.7944C81.4058 88.7944 96.254 88.1853 106.913 87.1995C111.62 86.7674 115.509 86.2586 118.358 85.7041Z" fill="url(#paint2_linear_679_179671)"/>
<path opacity="0.3" d="M89.9521 160.165V238.821H40.0234V160.165C47.6021 160.463 56.0622 160.633 64.9856 160.633C73.9133 160.633 82.3734 160.463 89.9521 160.165Z" fill="white"/>
<path d="M90.1059 74.6482C87.982 73.5078 85.6637 72.7154 83.3136 72.1954C81.3141 71.9113 79.207 71.9384 77.2582 72.5061C76.9692 72.5972 76.6884 72.7123 76.4141 72.8409C76.8224 72.8185 77.1013 72.815 77.4701 72.8386C79.3518 72.9909 81.3455 73.5396 82.5767 73.9019C83.8882 74.3576 85.1411 74.9691 86.4695 75.3771C87.8832 75.82 89.3147 76.2168 90.6823 76.7919C92.2122 77.42 93.6864 78.1946 95.2825 78.6511C93.5632 77.3092 92.0437 75.6887 90.1059 74.6482Z" fill="white"/>
<path opacity="0.4" d="M24.7846 92.542C21.8998 110.194 21.7364 128.288 24.3018 145.99C24.7528 149.101 25.466 152.508 27.9734 154.404C29.5986 155.632 31.7008 155.992 33.7169 156.286C39.1009 157.069 44.5162 157.639 49.9451 157.995C42.6895 137.954 41.2937 115.83 45.9729 95.0363C38.4028 93.9478 30.7613 93.3507 24.7846 92.542Z" fill="white"/>
<path d="M41.0557 186.054C40.738 181.265 41.0739 177.972 40.9119 173.264C40.7973 169.061 40.1309 164.892 40.0236 160.691C39.6218 163.123 39.606 165.594 39.391 168.044C39.1089 171.716 38.8102 175.386 38.649 179.066C38.472 183.114 38.7273 187.788 38.6936 191.931C38.9555 199.631 38.8156 207.393 40.1026 215.012C40.2491 215.968 40.2165 215.299 40.2924 214.752C40.6469 211.343 41.0413 207.938 41.3974 204.53C41.6973 198.371 41.1665 192.21 41.0557 186.054Z" fill="white"/>
<path d="M24.7643 143.994C24.7879 135.777 24.2878 127.574 24.1212 119.362C24.1181 116.458 24.3901 110.765 24.5083 106.683C24.535 101.139 24.4982 98.4933 24.6744 92.7979C21.861 101.472 21.5867 110.652 21.4453 119.692C21.5472 123.839 21.6506 127.989 21.8676 132.132C22.2868 136.448 22.9833 140.754 24.1138 144.943C24.3548 145.769 24.6586 146.574 24.9344 147.388C24.8747 146.257 24.7717 145.127 24.7643 143.994Z" fill="white"/>
<path d="M33.8364 228.959C31.1884 227.924 28.6856 226.57 26.1619 225.271C22.5001 223.553 19.8714 222.187 16.75 219.437C20.2166 226.126 27.9418 229.661 35.2446 229.873C35.565 229.885 35.8862 229.895 36.2066 229.903C35.4193 229.581 34.6252 229.276 33.8364 228.959Z" fill="white"/>
<path d="M44.1641 230.641C50.9017 231.665 57.6718 232.473 64.4877 232.708C72.1613 233.102 79.8969 233.317 87.5085 232.065C74.0864 231.07 58.3696 230.139 44.1641 230.641Z" fill="white"/>
<path d="M44.5741 185.918C42.7335 198.421 42.3158 211.208 44.5086 223.695C45.7263 210.687 46.4209 199.068 44.5741 185.918Z" fill="white"/>
<defs>
<linearGradient id="paint0_linear_679_179671" x1="47.4746" y1="86.3193" x2="93.6693" y2="224.289" gradientUnits="userSpaceOnUse">
<stop offset="0.0025" stop-color="#F7F9E8"/>
<stop offset="0.5343" stop-color="#F3F0CE"/>
<stop offset="0.9902" stop-color="#EFE8B4"/>
</linearGradient>
<linearGradient id="paint1_linear_679_179671" x1="39.6406" y1="73.0886" x2="59.9953" y2="73.0886" gradientUnits="userSpaceOnUse">
<stop offset="0.0025" stop-color="#F7F9E8"/>
<stop offset="0.5343" stop-color="#F3F0CE"/>
<stop offset="0.9902" stop-color="#EFE8B4"/>
</linearGradient>
<linearGradient id="paint2_linear_679_179671" x1="47.4746" y1="86.3193" x2="93.6693" y2="224.289" gradientUnits="userSpaceOnUse">
<stop offset="0.0025" stop-color="#F7F9E8"/>
<stop offset="0.5343" stop-color="#F3F0CE"/>
<stop offset="0.9902" stop-color="#EFE8B4"/>
</linearGradient>
</defs>
</svg>
