<svg width="192" height="192" viewBox="0 0 192 192" fill="none" xmlns="http://www.w3.org/2000/svg">
<path d="M191.134 95.569C191.134 148.348 148.348 191.135 95.5676 191.135C42.7871 191.135 0 148.348 0 95.569C0 42.7872 42.7871 0 95.5676 0C148.348 0.001446 191.134 42.7872 191.134 95.569Z" fill="white"/>
<path d="M175.143 95.5689C175.143 139.517 139.515 175.144 95.5685 175.144C51.6187 175.144 15.9922 139.516 15.9922 95.5689C15.9922 51.6177 51.6187 15.9912 95.5685 15.9912C139.515 15.9912 175.143 51.6192 175.143 95.5689Z" fill="#E6E6E6"/>
<path d="M140.593 67.6858C141.142 68.0864 140.898 69.3588 140.046 70.5272C139.195 71.6941 138.056 72.313 137.506 71.911C136.955 71.5076 137.199 70.2366 138.049 69.0697C138.904 67.9027 140.04 67.2838 140.593 67.6858Z" fill="white"/>
<path d="M96.6995 115.67C96.552 116.337 95.2897 116.621 93.8784 116.311C92.4685 115.995 91.4448 115.201 91.5923 114.536C91.7397 113.871 93.0035 113.585 94.4134 113.897C95.8232 114.21 96.847 115.005 96.6995 115.67Z" fill="white"/>
<path d="M99.271 121.859C99.1235 122.524 97.8597 122.81 96.4499 122.498C95.04 122.183 94.0163 121.392 94.1623 120.725C94.3112 120.057 95.5736 119.771 96.9849 120.085C98.3962 120.398 99.4185 121.191 99.271 121.859Z" fill="white"/>
<path d="M109.99 135.094C109.842 135.761 108.578 136.046 107.169 135.735C105.757 135.421 104.735 134.626 104.881 133.963C105.03 133.295 106.292 133.007 107.702 133.323C109.114 133.634 110.137 134.426 109.99 135.094Z" fill="white"/>
<path d="M156.702 126.058C156.554 126.726 155.292 127.011 153.881 126.699C152.469 126.385 151.447 125.591 151.592 124.927C151.742 124.259 153.005 123.974 154.416 124.287C155.827 124.599 156.849 125.393 156.702 126.058Z" fill="white"/>
<path d="M151.786 133.09C151.161 133.36 150.187 132.507 149.61 131.184C149.034 129.858 149.075 128.565 149.698 128.293C150.326 128.02 151.3 128.873 151.876 130.198C152.454 131.525 152.411 132.816 151.786 133.09Z" fill="white"/>
<path d="M161.842 117.002C161.693 117.668 160.432 117.953 159.022 117.642C157.611 117.329 156.585 116.533 156.733 115.87C156.882 115.201 158.144 114.917 159.555 115.229C160.967 115.541 161.988 116.337 161.842 117.002Z" fill="white"/>
<path d="M161.842 89.2688C161.693 89.9325 160.432 90.2202 159.022 89.9079C157.611 89.5927 156.585 88.8003 156.733 88.1351C156.882 87.4671 158.144 87.1822 159.555 87.4946C160.967 87.8069 161.988 88.6022 161.842 89.2688Z" fill="white"/>
<path d="M122.91 68.4883C122.763 69.1534 121.499 69.4397 120.089 69.1274C118.679 68.8136 117.656 68.0198 117.803 67.3546C117.952 66.688 119.214 66.4017 120.626 66.714C122.036 67.0278 123.058 67.8202 122.91 68.4883Z" fill="white"/>
<path d="M94.3413 90.602C94.1939 91.2672 92.93 91.5535 91.5202 91.2412C90.1103 90.9274 89.0866 90.1335 89.2326 89.4684C89.3816 88.8018 90.6439 88.5155 92.0552 88.8278C93.4651 89.1416 94.4888 89.934 94.3413 90.602Z" fill="white"/>
<path d="M145.082 71.697C144.936 72.3622 143.671 72.6485 142.26 72.3362C140.85 72.0224 139.828 71.2285 139.975 70.5634C140.123 69.8968 141.386 69.6105 142.796 69.9228C144.208 70.238 145.23 71.0319 145.082 71.697Z" fill="white"/>
<path d="M137.975 67.978C138.303 68.5752 137.543 69.6235 136.277 70.3191C135.011 71.0131 133.718 71.0912 133.388 70.494C133.061 69.8954 133.822 68.8471 135.087 68.153C136.354 67.4574 137.647 67.3779 137.975 67.978Z" fill="white"/>
<path d="M135.668 68.4883C135.521 69.1534 134.256 69.4397 132.846 69.1274C131.437 68.8136 130.414 68.0198 130.561 67.3546C130.708 66.688 131.971 66.4017 133.382 66.714C134.792 67.0278 135.816 67.8202 135.668 68.4883Z" fill="white"/>
<path d="M156.702 76.8274C156.554 77.494 155.292 77.7788 153.881 77.4665C152.469 77.1541 151.447 76.3603 151.592 75.6937C151.742 75.0271 153.005 74.7408 154.416 75.0545C155.827 75.3683 156.849 76.1607 156.702 76.8274Z" fill="white"/>
<path d="M146.301 70.3796C146.907 70.6934 146.858 71.9876 146.194 73.2716C145.529 74.5542 144.498 75.338 143.894 75.0242C143.288 74.709 143.335 73.4148 144.001 72.1322C144.664 70.851 145.695 70.0673 146.301 70.3796Z" fill="white"/>
<path d="M151.528 71.6016C151.817 72.2205 150.987 73.2139 149.677 73.8227C148.367 74.4314 147.071 74.4227 146.784 73.8039C146.496 73.185 147.326 72.1887 148.634 71.5799C149.947 70.974 151.242 70.9813 151.528 71.6016Z" fill="white"/>
<path d="M94.9482 81.3577C94.3048 81.1336 94.1674 79.8438 94.6417 78.4802C95.1174 77.1181 96.0241 76.1926 96.669 76.4168C97.3124 76.6423 97.4498 77.9293 96.9755 79.2928C96.4998 80.6579 95.5917 81.5833 94.9482 81.3577Z" fill="white"/>
<path d="M149.276 139.503C148.633 139.279 148.496 137.99 148.97 136.625C149.446 135.265 150.355 134.338 150.996 134.56C151.642 134.787 151.778 136.074 151.304 137.438C150.831 138.804 149.921 139.727 149.276 139.503Z" fill="white"/>
<path d="M150.722 81.3577C150.077 81.1336 149.942 79.8438 150.414 78.4802C150.892 77.1181 151.798 76.1926 152.442 76.4168C153.087 76.6423 153.224 77.9293 152.75 79.2928C152.274 80.6579 151.366 81.5833 150.722 81.3577Z" fill="white"/>
<path d="M148.299 77.9351C147.656 77.711 147.52 76.4226 147.993 75.0576C148.468 73.6955 149.378 72.7714 150.02 72.9927C150.666 73.2183 150.802 74.5067 150.326 75.8703C149.851 77.2367 148.943 78.1592 148.299 77.9351Z" fill="white"/>
<path d="M153.292 83.4819C152.647 83.2578 152.512 81.9679 152.986 80.6044C153.463 79.2408 154.368 78.3168 155.013 78.5395C155.657 78.765 155.794 80.0535 155.32 81.417C154.844 82.7835 153.937 83.706 153.292 83.4819Z" fill="white"/>
<path d="M165.558 96.7243C164.914 96.5002 164.777 95.2118 165.25 93.8482C165.727 92.4861 166.635 91.5606 167.277 91.7833C167.924 92.0089 168.059 93.2973 167.585 94.6594C167.111 96.0259 166.201 96.9485 165.558 96.7243Z" fill="white"/>
<path d="M134.815 150.268C134.171 150.043 134.035 148.757 134.508 147.392C134.985 146.03 135.894 145.103 136.534 145.327C137.179 145.552 137.316 146.841 136.842 148.202C136.369 149.57 135.46 150.492 134.815 150.268Z" fill="white"/>
<path d="M90.7139 123.762C90.0704 123.538 89.933 122.249 90.4073 120.886C90.883 119.523 91.7897 118.598 92.4346 118.821C93.0795 119.046 93.2169 120.335 92.7412 121.698C92.2654 123.065 91.3588 123.987 90.7139 123.762Z" fill="white"/>
<path d="M164.471 101.5C164.247 100.856 165.169 99.9474 166.533 99.4717C167.897 98.9945 169.184 99.1305 169.409 99.7725C169.633 100.417 168.712 101.325 167.349 101.804C165.985 102.278 164.698 102.144 164.471 101.5Z" fill="white"/>
<path d="M128.409 147.21C128.183 146.565 129.107 145.657 130.469 145.181C131.833 144.704 133.12 144.84 133.347 145.482C133.57 146.127 132.649 147.036 131.285 147.514C129.921 147.989 128.636 147.853 128.409 147.21Z" fill="white"/>
<path d="M94.9482 88.8308C94.3048 88.6067 94.1674 87.3183 94.6417 85.9533C95.1174 84.5897 96.0241 83.6672 96.669 83.8898C97.3124 84.114 97.4498 85.4023 96.9755 86.7659C96.4998 88.1309 95.5917 89.0549 94.9482 88.8308Z" fill="white"/>
<path d="M95.8656 83.7393C95.5692 83.1248 96.3833 82.1184 97.6832 81.4894C98.9832 80.8603 100.279 80.8502 100.577 81.4619C100.873 82.0779 100.059 83.0843 98.7591 83.7133C97.4562 84.3438 96.162 84.3524 95.8656 83.7393Z" fill="white"/>
<path d="M100.284 82.4206C99.6734 82.1155 99.7023 80.8213 100.344 79.5271C100.989 78.2344 102.007 77.4348 102.617 77.7384C103.228 78.0435 103.2 79.3377 102.555 80.6304C101.912 81.9232 100.894 82.7228 100.284 82.4206Z" fill="white"/>
<path d="M92.3783 89.8386C91.7334 89.6145 91.5975 88.3261 92.0718 86.9611C92.5475 85.5989 93.4556 84.6749 94.0991 84.8976C94.744 85.1217 94.8799 86.4102 94.4056 87.7737C93.9299 89.1402 93.0218 90.0642 92.3783 89.8386Z" fill="white"/>
<path d="M111.34 75.4306C110.695 75.2065 110.559 73.9167 111.032 72.5546C111.507 71.191 112.415 70.267 113.059 70.4897C113.704 70.7138 113.84 72.0021 113.365 73.3657C112.891 74.7322 111.983 75.6562 111.34 75.4306Z" fill="white"/>
<path d="M115.362 143.81C114.719 143.586 114.581 142.299 115.056 140.934C115.531 139.571 116.438 138.647 117.083 138.871C117.728 139.095 117.865 140.383 117.39 141.746C116.915 143.111 116.007 144.035 115.362 143.81Z" fill="white"/>
<path d="M91.3227 113.738C90.6778 113.515 90.5433 112.226 91.0176 110.862C91.4919 109.498 92.3985 108.574 93.0435 108.796C93.6884 109.023 93.8257 110.31 93.3515 111.673C92.8743 113.037 91.9662 113.961 91.3227 113.738Z" fill="white"/>
<path d="M104.011 80.0449C103.367 79.8208 103.23 78.5309 103.704 77.1688C104.18 75.8052 105.088 74.8812 105.731 75.1039C106.376 75.3295 106.514 76.6164 106.039 77.98C105.562 79.345 104.654 80.269 104.011 80.0449Z" fill="white"/>
<path d="M87.3467 104.75C86.7032 104.526 86.5658 103.237 87.0401 101.872C87.5159 100.51 88.4225 99.5847 89.0674 99.8089C89.7123 100.033 89.8497 101.321 89.374 102.685C88.8982 104.05 87.9916 104.973 87.3467 104.75Z" fill="white"/>
<path d="M89.8779 111.433C89.2345 111.209 89.0971 109.922 89.5714 108.557C90.0471 107.193 90.9538 106.269 91.5987 106.492C92.2436 106.716 92.3809 108.005 91.9052 109.368C91.4309 110.733 90.5243 111.656 89.8779 111.433Z" fill="white"/>
<path d="M108.026 139.503C107.383 139.279 107.246 137.987 107.72 136.625C108.196 135.263 109.104 134.338 109.747 134.56C110.392 134.787 110.529 136.074 110.055 137.438C109.579 138.803 108.671 139.727 108.026 139.503Z" fill="white"/>
<path d="M124.644 146.313C124 146.089 123.863 144.801 124.337 143.439C124.813 142.074 125.721 141.15 126.364 141.374C127.008 141.598 127.145 142.885 126.671 144.25C126.195 145.614 125.287 146.539 124.644 146.313Z" fill="white"/>
<path d="M145.863 136.998C145.218 136.774 145.082 135.486 145.556 134.124C146.032 132.76 146.94 131.836 147.583 132.059C148.228 132.283 148.364 133.57 147.891 134.935C147.416 136.298 146.508 137.224 145.863 136.998Z" fill="white"/>
<path d="M159.879 113.738C159.234 113.515 159.098 112.226 159.571 110.862C160.048 109.498 160.954 108.574 161.598 108.796C162.243 109.023 162.38 110.31 161.906 111.673C161.432 113.037 160.522 113.961 159.879 113.738Z" fill="white"/>
<path d="M160.495 96.3413C159.852 96.1186 159.714 94.8288 160.189 93.4667C160.663 92.1016 161.572 91.1791 162.214 91.4018C162.859 91.6274 162.998 92.9143 162.522 94.2779C162.048 95.6415 161.14 96.5669 160.495 96.3413Z" fill="white"/>
<path d="M163.573 114.981C162.93 114.757 162.792 113.469 163.267 112.104C163.742 110.742 164.651 109.818 165.294 110.039C165.939 110.265 166.075 111.553 165.602 112.914C165.126 114.282 164.22 115.206 163.573 114.981Z" fill="white"/>
<path d="M156.714 129.053C156.844 128.383 158.101 128.067 159.518 128.343C160.935 128.622 161.978 129.39 161.847 130.058C161.714 130.727 160.461 131.047 159.044 130.766C157.627 130.491 156.584 129.719 156.714 129.053Z" fill="white"/>
<path d="M143.67 71.0421C143 71.1635 142.246 70.1094 141.986 68.6895C141.727 67.268 142.063 66.0172 142.733 65.8943C143.406 65.7729 144.159 66.8241 144.418 68.2455C144.675 69.6669 144.343 70.9192 143.67 71.0421Z" fill="white"/>
<path d="M105.925 73.7706C106.057 73.1011 107.312 72.7829 108.73 73.0606C110.146 73.3397 111.19 74.1075 111.058 74.7755C110.927 75.445 109.67 75.7646 108.255 75.4855C106.837 75.2064 105.795 74.4401 105.925 73.7706Z" fill="white"/>
<path d="M111.081 65.7468C111.213 65.0773 112.469 64.7591 113.887 65.0382C115.304 65.3158 116.346 66.0851 116.216 66.7532C116.083 67.4241 114.829 67.7408 113.412 67.4632C111.994 67.1841 110.951 66.4177 111.081 65.7468Z" fill="white"/>
<path d="M114.761 69.8086C114.893 69.1391 116.149 68.8225 117.566 69.1001C118.982 69.3777 120.026 70.147 119.896 70.8165C119.763 71.486 118.509 71.8041 117.09 71.5251C115.673 71.246 114.631 70.4796 114.761 69.8086Z" fill="white"/>
<path d="M100.785 130.141C100.915 129.473 102.171 129.157 103.588 129.434C105.007 129.711 106.048 130.481 105.918 131.148C105.786 131.819 104.531 132.135 103.114 131.859C101.694 131.582 100.653 130.812 100.785 130.141Z" fill="white"/>
<path d="M129.019 142.025C129.151 141.357 130.404 141.041 131.823 141.319C133.24 141.595 134.282 142.366 134.152 143.031C134.019 143.702 132.766 144.02 131.349 143.741C129.929 143.465 128.887 142.696 129.019 142.025Z" fill="white"/>
<path d="M138.058 139.165C138.19 138.495 139.445 138.177 140.863 138.456C142.28 138.734 143.323 139.505 143.193 140.171C143.06 140.842 141.805 141.159 140.388 140.88C138.969 140.603 137.926 139.836 138.058 139.165Z" fill="white"/>
<path d="M155.207 118.325C155.338 117.655 156.593 117.337 158.012 117.615C159.429 117.894 160.471 118.662 160.341 119.331C160.21 120.001 158.953 120.317 157.536 120.04C156.118 119.762 155.075 118.991 155.207 118.325Z" fill="white"/>
<path d="M159.292 104.28C159.424 103.61 160.679 103.294 162.097 103.571C163.515 103.847 164.557 104.618 164.427 105.286C164.295 105.956 163.039 106.272 161.623 105.993C160.205 105.717 159.162 104.951 159.292 104.28Z" fill="white"/>
<path d="M122.941 67.0611C123.072 66.3916 124.327 66.0735 125.746 66.3511C127.163 66.6287 128.206 67.3995 128.074 68.0661C127.942 68.737 126.687 69.0537 125.27 68.7761C123.853 68.4984 122.811 67.7291 122.941 67.0611Z" fill="white"/>
<path d="M123.513 64.0259C124.181 64.1647 124.486 65.4242 124.195 66.8384C123.903 68.2511 123.125 69.2865 122.457 69.1505C121.789 69.0117 121.483 67.7537 121.775 66.3409C122.065 64.9238 122.845 63.8885 123.513 64.0259Z" fill="white"/>
<path d="M153.704 126.755C154.378 126.638 155.121 127.699 155.367 129.122C155.611 130.546 155.263 131.796 154.592 131.913C153.918 132.026 153.175 130.967 152.931 129.543C152.685 128.116 153.032 126.872 153.704 126.755Z" fill="white"/>
<path d="M102.611 69.8851C103.284 69.7709 104.027 70.8308 104.273 72.2551C104.516 73.678 104.169 74.9259 103.498 75.043C102.825 75.1587 102.082 74.0988 101.836 72.6745C101.592 71.2487 101.937 70.0023 102.611 69.8851Z" fill="white"/>
<path d="M84.5168 93.9322C85.1892 93.8165 85.9325 94.8779 86.1783 96.3022C86.4227 97.7236 86.0756 98.9744 85.4047 99.0886C84.7323 99.2043 83.9876 98.1444 83.7432 96.7215C83.4974 95.2958 83.843 94.0479 84.5168 93.9322Z" fill="white"/>
<path d="M115.057 61.9698C115.394 61.3769 116.686 61.4723 117.942 62.1838C119.2 62.8952 119.945 63.9551 119.611 64.548C119.273 65.1409 117.983 65.0454 116.726 64.334C115.467 63.6225 114.721 62.5641 115.057 61.9698Z" fill="white"/>
<path d="M117.858 66.4553C118.49 66.1979 119.444 67.0742 119.994 68.4088C120.542 69.7464 120.474 71.0376 119.844 71.2979C119.21 71.5553 118.254 70.6834 117.706 69.3473C117.158 68.0083 117.226 66.7155 117.858 66.4553Z" fill="white"/>
<path d="M109.014 71.7969C109.646 71.5395 110.602 72.4143 111.15 73.7504C111.698 75.0865 111.63 76.3792 111 76.6395C110.368 76.8969 109.411 76.0235 108.863 74.6889C108.315 73.3499 108.383 72.0572 109.014 71.7969Z" fill="white"/>
<path d="M88.2336 94.2995C88.8641 94.0407 89.8199 94.9155 90.3694 96.2516C90.9174 97.5892 90.8495 98.8804 90.219 99.1407C89.5871 99.3981 88.6313 98.5247 88.0818 97.1901C87.5338 95.854 87.6003 94.5598 88.2336 94.2995Z" fill="white"/>
<path d="M94.2097 116.406C94.8402 116.146 95.796 117.022 96.3455 118.358C96.8935 119.694 96.8255 120.987 96.1951 121.247C95.5617 121.504 94.6059 120.633 94.0579 119.295C93.5099 117.96 93.5778 116.666 94.2097 116.406Z" fill="white"/>
<path d="M104.67 128.15C105.301 127.892 106.257 128.766 106.806 130.102C107.354 131.439 107.286 132.731 106.657 132.992C106.024 133.249 105.068 132.376 104.52 131.041C103.971 129.703 104.039 128.409 104.67 128.15Z" fill="white"/>
<path d="M117.858 140.11C118.49 139.851 119.444 140.726 119.994 142.064C120.542 143.4 120.474 144.691 119.844 144.953C119.21 145.212 118.254 144.338 117.706 143.002C117.158 141.663 117.226 140.372 117.858 140.11Z" fill="white"/>
<path d="M134.687 138.557C135.318 138.298 136.273 139.176 136.822 140.512C137.369 141.85 137.301 143.141 136.67 143.403C136.039 143.66 135.081 142.785 134.536 141.45C133.987 140.113 134.053 138.819 134.687 138.557Z" fill="white"/>
<path d="M155.726 117.538C156.356 117.279 157.312 118.155 157.861 119.492C158.409 120.828 158.34 122.119 157.711 122.379C157.079 122.64 156.123 121.766 155.575 120.43C155.026 119.091 155.092 117.798 155.726 117.538Z" fill="white"/>
<path d="M160.866 105.649C161.498 105.39 162.452 106.266 163.002 107.603C163.55 108.939 163.482 110.23 162.853 110.49C162.22 110.751 161.264 109.877 160.716 108.54C160.166 107.202 160.233 105.911 160.866 105.649Z" fill="white"/>
<path d="M156.781 81.4734C157.412 81.2145 158.367 82.0893 158.917 83.4269C159.463 84.763 159.395 86.0543 158.766 86.316C158.133 86.5734 157.177 85.7 156.629 84.3654C156.08 83.0278 156.148 81.7336 156.781 81.4734Z" fill="white"/>
<path d="M126.252 66.2745C126.588 65.6816 127.88 65.7771 129.138 66.4885C130.394 67.1999 131.14 68.2598 130.806 68.8527C130.469 69.4455 129.177 69.3501 127.921 68.6401C126.663 67.9258 125.917 66.8688 126.252 66.2745Z" fill="white"/>
<path d="M91.8308 89.2268C103.656 77.225 117.422 64.5175 135.601 68.7543C150.602 72.2825 163.486 86.0499 162.779 101.933C162.602 110.227 158.72 117.993 155.014 125.228C157.309 128.937 146.189 135.466 143.541 137.406C140.895 139.348 137.718 140.761 134.541 141.819C131.717 142.879 126.423 141.997 125.011 144.998C116.715 141.114 106.126 141.114 105.95 129.995C103.656 129.642 97.301 130.523 99.4194 126.288C95.3605 126.466 96.7718 123.111 95.8897 120.466C95.1841 118.17 93.9492 117.642 94.4784 114.465C87.5955 109.17 85.6535 96.9932 92.36 90.9938C92.0072 90.641 91.8308 90.2882 91.478 90.1117C92.0072 89.7589 92.36 89.2296 92.8907 89.0532" fill="white"/>
<path d="M67.1193 45.7803C64.8679 42.9158 60.3043 36.7414 61.9398 32.3904C64.5238 25.159 73.6234 31.1179 78.106 33.6484C83.1699 37.0075 88.9438 42.0916 93.0505 45.1354C94.2261 37.6567 103.859 22.5344 113.456 25.6795C125.418 29.3885 115.621 49.5588 111.118 56.1612C117.605 50.636 133.131 38.293 135.313 53.0378C137.278 63.248 129.333 71.2705 120.018 73.1083C127.509 89.8082 121.715 106.19 109.451 118.961C94.5196 135.324 90.7513 122.184 92.5241 106.398C93.7966 118.082 81.5663 124.913 71.3532 126.881C54.5073 130.285 54.2601 119.366 59.2444 106.757C60.2682 107.514 59.444 108.096 59.5741 108.989C66.7246 107.932 55.3706 111.436 53.6513 112.15C46.2521 114.616 27.0044 123.397 19.5763 119.474C8.17604 113.4 34.1766 100.877 41.4557 100.711C36.2096 99.2043 16.0047 95.3449 21.0715 86.3768C24.6142 79.462 37.9824 83.4169 42.8482 85.4369C38.1487 78.3703 19.0239 47.8698 28.3752 40.0932C36.1388 33.9217 50.1014 54.2279 52.8155 60.2215C49.1904 51.1696 54.4885 37.5989 65.0617 44.2519" fill="#79933A"/>
<path d="M101.671 108.229C98.8052 110.686 96.9774 114.493 97.6093 116.691C98.2427 118.886 101.075 119.01 103.905 116.964C106.734 114.918 111.112 109.692 113.634 105.35C116.154 101.007 117.605 92.9229 116.857 87.3847C116.108 81.8465 113.559 83.2651 111.19 90.5399C108.822 97.8133 104.539 105.773 101.671 108.229Z" fill="#91B045"/>
<path d="M47.4136 75.0952C45.0884 77.7096 40.4974 74.7756 37.2106 68.5795C33.9253 62.382 30.6068 53.8896 29.8375 49.7063C29.0697 45.523 30.4491 43.8515 32.9059 45.9915C35.3627 48.1287 37.5909 52.2817 37.8584 55.217C38.1274 58.1524 41.3375 62.7579 44.993 65.4504C48.6499 68.1428 49.7388 72.4837 47.4136 75.0952Z" fill="#91B045"/>
<path d="M24.6277 112.298C21.4696 113.647 21.3062 114.75 24.2662 114.75C27.2261 114.75 34.8321 112.309 41.167 109.329C47.5034 106.349 52.3634 102.059 51.9672 99.7985C51.571 97.5384 46.549 98.8731 40.807 102.767C35.0663 106.66 27.7857 110.949 24.6277 112.298Z" fill="#91B045"/>
<g opacity="0.2">
<path d="M107.747 91.0039C107.747 91.0039 110.436 91.753 110.564 94.6667C110.564 94.6667 99.7684 108.929 95.5446 109.711C91.3208 110.496 101.719 97.4112 102.094 97.0901C102.468 96.7677 86.9857 100.825 86.2671 98.1341C85.5484 95.4431 107.747 91.0039 107.747 91.0039Z" fill="black"/>
<path d="M88.0938 40.5602C84.5526 42.6771 81.3555 45.4606 78.9219 48.8515C85.05 51.3155 90.7935 56.6614 94.5575 60.7536C95.7909 58.8492 97.6346 57.3352 100.405 57.0214C101.984 56.8407 103.536 57.0214 105.012 57.474C105.533 48.4322 103.005 41.5694 101.184 37.8879C96.0512 37.6407 91.3343 38.6225 88.0938 40.5602Z" fill="black"/>
<path d="M75.4591 71.9919C75.4591 71.9919 86.2636 78.7938 92.0939 70.5169C92.0939 70.5169 91.9811 65.5225 94.0648 61.5966C87.3683 54.9855 80.3205 52.523 77.1451 51.6987C74.188 57.208 73.1614 64.0259 75.4591 71.9919Z" fill="black"/>
<path d="M107.75 91.0039L110.567 94.6667C110.567 94.6667 117.351 92.7695 123.094 87.3369C119.127 85.8013 115.767 82.9121 114.066 81.2666C112.356 84.7876 109.879 87.9803 107.75 91.0039Z" fill="black"/>
<path d="M114.508 80.3106C118.302 84.2799 121.974 85.4917 124.675 85.7158C128.408 81.5528 131.318 75.6762 130.93 67.5598C125.331 70.326 119.282 71.5681 116.123 72.0655C116.295 75.0298 115.623 77.7584 114.508 80.3106Z" fill="black"/>
<path d="M104.555 38.2278C106.521 44.9502 106.267 52.9423 105.836 57.7589C108.196 58.6641 110.327 60.2619 112.023 62.2169C117.871 57.2369 121.124 51.7508 122.906 47.6181C117.83 42.1623 111.05 39.2096 104.555 38.2278Z" fill="black"/>
<path d="M130.758 65.4315C130.668 64.6477 130.551 63.8467 130.401 63.0253C129.417 57.6607 127.384 53.2677 124.696 49.738C120.973 55.4295 115.604 60.304 112.547 62.8403C113.899 64.5465 114.926 66.4755 115.498 68.4218C115.751 69.2996 115.925 70.1585 116.03 70.9986C122.867 70.1136 127.645 67.7002 130.758 65.4315Z" fill="black"/>
<path d="M114.504 80.3108C114.363 80.6332 114.216 80.9499 114.062 81.2666C115.763 82.9136 119.123 85.8027 123.09 87.3369C123.628 86.8279 124.156 86.2886 124.669 85.7159C121.969 85.4918 118.298 84.2801 114.504 80.3108Z" fill="black"/>
<path d="M116.023 70.9985C116.068 71.3585 116.097 71.7128 116.117 72.0656C119.277 71.5682 125.326 70.3261 130.924 67.5599C130.891 66.8672 130.833 66.1558 130.751 65.4299C127.638 67.7002 122.86 70.1135 116.023 70.9985Z" fill="black"/>
<path d="M122.906 47.6182C121.126 51.7494 117.871 57.2355 112.023 62.217C112.201 62.4209 112.376 62.6277 112.544 62.8402C115.601 60.3039 120.97 55.4309 124.693 49.738C124.125 48.9919 123.528 48.2877 122.906 47.6182Z" fill="black"/>
<path d="M101.188 37.8909C103.009 41.5724 105.537 48.4351 105.015 57.477C105.293 57.5623 105.566 57.6562 105.836 57.7589C106.267 52.9423 106.522 44.9517 104.555 38.2278C103.419 38.0572 102.294 37.9444 101.188 37.8909Z" fill="black"/>
<path d="M77.1484 51.6988C80.3239 52.5216 87.3717 54.9841 94.0681 61.5967C94.2199 61.3089 94.3862 61.0284 94.5612 60.7551C90.7972 56.6629 85.0537 51.317 78.9256 48.853C78.2763 49.7582 77.682 50.7068 77.1484 51.6988Z" fill="black"/>
<g opacity="0.3">
<path d="M130.399 63.0238C125.846 38.1902 98.8459 34.1356 88.0978 40.5602C80.6538 45.011 74.7252 52.3943 74.2422 62.2199C76.4083 53.0349 83.404 36.3871 105.425 40.5168C132.545 45.6039 134.798 77.212 120.491 89.5305C126.634 84.9148 132.908 76.7073 130.399 63.0238Z" fill="black"/>
</g>
<path opacity="0.4" d="M105.077 99.9604C102.714 102.744 100.438 104.695 99.997 104.319C99.5545 103.943 101.112 101.385 103.478 98.6012C105.842 95.8176 108.118 93.867 108.559 94.2429C109 94.6189 107.442 97.1797 105.077 99.9604Z" fill="black"/>
<g opacity="0.5">
<path d="M77.2111 61.935C76.8149 66.6721 79.4654 70.3724 83.1036 70.1598C86.7417 69.9458 90.1528 68.2497 90.6835 66.3901C91.2142 64.5306 88.5622 60.8302 84.791 58.1667C81.0213 55.5017 77.6088 57.1979 77.2111 61.935Z" fill="black"/>
</g>
<g opacity="0.5">
<path d="M89.3081 52.5706C92.3924 55.0577 96.6711 56.5543 98.8156 55.8964C100.961 55.2385 101.924 51.9228 100.957 48.5276C99.9912 45.1324 97.5069 42.4544 95.4391 42.5744C93.3714 42.693 89.8836 43.9756 87.69 45.4216C85.495 46.8662 86.2223 50.0835 89.3081 52.5706Z" fill="black"/>
</g>
<g opacity="0.5">
<path d="M108.828 56.5124C108.168 56.5052 107.723 53.6436 107.839 50.153C107.954 46.6609 109.635 44.3328 111.572 44.9777C113.51 45.6226 116.075 47.112 117.271 48.2833C118.468 49.456 117.745 52.4391 115.664 54.9132C113.584 57.3873 111.464 58.761 110.953 57.9671C110.444 57.1747 109.487 56.5182 108.828 56.5124Z" fill="black"/>
</g>
<g opacity="0.5">
<path d="M119.988 59.6545C117.528 61.7686 115.99 64.4972 116.567 65.7147C117.143 66.9337 119.697 67.1737 122.242 66.2483C124.786 65.3243 126.84 63.6614 126.809 62.5538C126.777 61.4461 126.234 59.4753 125.604 58.1739C124.974 56.8739 122.447 57.5405 119.988 59.6545Z" fill="black"/>
</g>
<g opacity="0.5">
<path d="M122.721 73.5896C120.108 73.8629 117.758 75.0429 117.5 76.2112C117.241 77.3781 118.636 79.2608 120.601 80.3959C122.566 81.5296 124.916 80.3511 125.823 77.7758C126.729 75.199 125.334 73.3163 122.721 73.5896Z" fill="black"/>
</g>
<g opacity="0.5">
<path d="M117.38 86.1554C115.893 85.3529 113.765 85.9284 112.648 87.4351C111.534 88.9433 110.815 90.8 111.054 91.5635C111.291 92.3269 113.421 91.7514 115.785 90.2837C118.149 88.816 118.868 86.9594 117.38 86.1554Z" fill="black"/>
</g>
<path d="M88.9372 70.5025C88.9372 70.5025 87.9554 67.8896 90.2314 66.0662C90.2314 66.0662 108.115 66.364 111.24 69.3124C114.367 72.2579 97.6667 71.5884 97.1866 71.4742C96.7065 71.3614 109.119 81.4646 107.371 83.6336C105.623 85.8026 88.9372 70.5025 88.9372 70.5025Z" fill="black"/>
<path d="M59.8244 116.14C63.6216 117.751 67.7571 118.688 71.9317 118.65C70.3036 112.248 71.2304 104.457 72.3135 99.0016C70.0491 99.1303 67.7369 98.536 65.8484 96.4856C64.7697 95.3173 64.0019 93.958 63.4972 92.4976C55.8898 97.414 51.841 103.504 49.9453 107.148C52.7722 111.442 56.3496 114.668 59.8244 116.14Z" fill="black"/>
<path d="M92.6542 107.79C92.6542 107.79 91.7678 95.054 81.6472 95.2318C81.6472 95.2318 77.6823 98.2699 73.2821 98.9047C71.8968 108.214 74.0702 115.356 75.279 118.404C81.4708 117.542 87.5802 114.346 92.6542 107.79Z" fill="black"/>
<path d="M88.9396 70.5025L90.2338 66.0662C90.2338 66.0662 84.6985 61.7079 76.9219 60.2793C78.0237 64.3888 77.6752 68.8049 77.3484 71.1503C81.202 70.4548 85.2422 70.5676 88.9396 70.5025Z" fill="black"/>
<path d="M76.3197 71.3585C77.287 65.9533 76.097 62.2747 74.6842 59.9597C69.12 59.403 62.6578 60.5265 56.3359 65.6266C61.8741 68.5142 66.4464 72.6642 68.7137 74.92C71.0027 73.033 73.6026 71.9644 76.3197 71.3585Z" fill="black"/>
<path d="M48.2254 104.23C52.4911 98.6748 59.0936 94.1633 63.2364 91.6689C62.5727 89.2295 62.6074 86.5645 63.1814 84.0427C55.7099 82.2627 49.3606 82.8729 44.9748 83.8735C43.5664 91.1917 45.1845 98.4073 48.2254 104.23Z" fill="black"/>
<path d="M54.7238 67.0249C54.1425 67.5585 53.5656 68.1267 52.9901 68.734C49.242 72.6932 46.8952 76.9286 45.6328 81.1798C52.4261 80.8255 59.5274 82.2845 63.3796 83.2548C63.958 81.1581 64.9094 79.1901 66.1429 77.5778C66.7039 76.8563 67.2924 76.2084 67.9099 75.6257C63.1612 70.6298 58.3923 68.1976 54.7238 67.0249Z" fill="black"/>
<path d="M76.3244 71.3585C76.6671 71.2833 77.0112 71.2125 77.3554 71.1489C77.6822 68.8049 78.0307 64.3874 76.9288 60.2778C76.2015 60.1448 75.4539 60.0349 74.6875 59.9583C76.1017 62.2747 77.2903 65.9534 76.3244 71.3585Z" fill="black"/>
<path d="M67.9048 75.6256C68.1694 75.3769 68.4384 75.1455 68.7117 74.9199C66.4444 72.6641 61.8721 68.5141 56.3339 65.6265C55.7946 66.0646 55.2552 66.5288 54.7188 67.0248C58.3858 68.1975 63.1547 70.6296 67.9048 75.6256Z" fill="black"/>
<path d="M44.9766 83.8722C49.3623 82.873 55.7117 82.2614 63.1832 84.0414C63.2439 83.7768 63.3061 83.515 63.3798 83.2533C59.5277 82.2831 52.4264 80.824 45.633 81.1783C45.3655 82.0777 45.1486 82.9757 44.9766 83.8722Z" fill="black"/>
<path d="M49.943 107.148C51.8387 103.504 55.8875 97.4153 63.4949 92.4975C63.3994 92.2242 63.3127 91.948 63.2375 91.6689C59.0947 94.1633 52.4923 98.6748 48.2266 104.23C48.7587 105.25 49.3327 106.223 49.943 107.148Z" fill="black"/>
<path d="M75.2772 118.404C74.0684 115.356 71.895 108.213 73.2803 98.9048C72.9578 98.9496 72.6354 98.9843 72.31 99.0016C71.227 104.456 70.3001 112.248 71.9283 118.65C73.0446 118.64 74.1609 118.562 75.2772 118.404Z" fill="black"/>
<g opacity="0.3">
<path d="M52.9844 68.7297C35.6252 87.0635 48.2864 111.252 59.8168 116.137C67.8031 119.52 77.2613 119.947 85.479 114.538C76.7885 118.21 59.2181 122.391 49.5545 102.174C37.6539 77.2784 61.8426 56.806 80.2285 61.0832C72.8771 58.8506 62.5497 58.6279 52.9844 68.7297Z" fill="black"/>
</g>
<path opacity="0.4" d="M97.7476 67.3747C101.39 67.6408 104.308 68.3232 104.265 68.9031C104.223 69.4815 101.237 69.7346 97.5957 69.4685C93.9518 69.2039 91.0352 68.5185 91.0786 67.9401C91.1205 67.3588 94.1065 67.1072 97.7476 67.3747Z" fill="black"/>
<g opacity="0.5">
<path d="M83.4957 112.312C87.5546 109.838 88.9761 105.514 86.6567 102.703C84.3373 99.8924 80.9537 98.1399 79.1404 98.8094C77.3256 99.4774 75.9042 103.802 75.9794 108.418C76.0546 113.034 79.4368 114.786 83.4957 112.312Z" fill="black"/>
</g>
<g opacity="0.5">
<path d="M68.7983 108.077C68.9863 104.119 67.669 99.7826 65.8716 98.4379C64.0743 97.0931 60.8294 98.273 58.6604 101.057C56.4914 103.842 55.7945 107.426 57.1118 109.027C58.4291 110.625 61.5206 112.684 63.9832 113.602C66.4443 114.52 68.6118 112.033 68.7983 108.077Z" fill="black"/>
</g>
<g opacity="0.5">
<path d="M60.4596 89.9902C60.8428 90.5281 58.7953 92.5771 55.9076 94.5422C53.02 96.5088 50.1497 96.5275 49.5264 94.5812C48.9032 92.6363 48.5909 89.688 48.8309 88.0294C49.0709 86.3723 51.9065 85.1938 55.1311 85.4136C58.3557 85.6334 60.717 86.5328 60.3772 87.4134C60.0374 88.294 60.0764 89.4537 60.4596 89.9902Z" fill="black"/>
</g>
<g opacity="0.5">
<path d="M56.4059 79.1222C59.5654 79.8582 62.6743 79.4909 63.3178 78.3052C63.9598 77.1209 62.6469 74.9158 60.3983 73.4076C58.1512 71.9009 55.5962 71.2227 54.7213 71.9023C53.8465 72.5819 52.5755 74.1826 51.8958 75.4609C51.2191 76.7391 53.2479 78.3862 56.4059 79.1222Z" fill="black"/>
</g>
<g opacity="0.5">
<path d="M66.0443 68.6905C67.807 70.6383 70.1452 71.8399 71.2413 71.3599C72.3373 70.8798 73.0329 68.6414 72.7885 66.3871C72.5441 64.1313 70.2059 62.9297 67.5916 63.7178C64.9786 64.5058 64.2817 66.7442 66.0443 68.6905Z" fill="black"/>
</g>
<g opacity="0.5">
<path d="M79.3387 65.5889C79.5687 67.2634 81.2894 68.6414 83.1648 68.653C85.0389 68.6645 86.962 68.1469 87.4378 67.5049C87.9135 66.8628 86.1928 65.4833 83.6131 64.4408C81.0334 63.3982 79.1103 63.9159 79.3387 65.5889Z" fill="black"/>
</g>
<path d="M113.213 73.3367C113.213 73.3367 110.457 73.7676 109.133 71.1663C109.133 71.1663 113.057 53.7174 116.578 51.2549C120.099 48.7923 116.049 65.0078 115.842 65.4532C115.633 65.9014 128.046 55.7996 129.815 57.9513C131.585 60.1058 113.213 73.3367 113.213 73.3367Z" fill="black"/>
<path d="M151.99 111.119C154.339 107.728 156.094 103.87 156.907 99.7754C150.309 100.069 142.867 97.5804 137.743 95.4114C137.412 97.6556 136.358 99.7971 133.969 101.227C132.607 102.046 131.119 102.524 129.586 102.721C132.855 111.17 137.994 116.37 141.179 118.967C145.958 117.071 149.843 114.225 151.99 111.119Z" fill="black"/>
<path d="M150.478 77.2785C150.478 77.2785 137.828 75.5607 135.945 85.5063C135.945 85.5063 138.116 90.0033 137.844 94.4425C146.676 97.6888 154.111 97.0121 157.343 96.4481C157.755 90.2086 155.867 83.5787 150.478 77.2785Z" fill="black"/>
<path d="M113.217 73.3367L109.137 71.1663C109.137 71.1663 103.744 75.7024 100.766 83.0249C105.014 82.782 109.268 84.0226 111.496 84.815C111.598 80.9036 112.532 76.9705 113.217 73.3367Z" fill="black"/>
<path d="M111.491 85.8678C106.394 83.8231 102.551 84.2424 99.9986 85.1549C98.3242 90.4892 98.1087 97.0453 101.821 104.274C105.773 99.437 110.766 95.8032 113.433 94.0391C112.05 91.4146 111.53 88.6528 111.491 85.8678Z" fill="black"/>
<path d="M137.967 120.057C133.393 114.75 130.316 107.371 128.717 102.808C126.195 102.961 123.591 102.387 121.238 101.312C117.979 108.266 117.286 114.607 117.374 119.104C124.253 121.969 131.648 121.85 137.967 120.057Z" fill="black"/>
<path d="M102.859 106.139C103.264 106.814 103.701 107.497 104.181 108.182C107.296 112.658 110.966 115.814 114.874 117.914C115.908 111.191 118.778 104.531 120.509 100.958C118.573 99.9647 116.839 98.6344 115.512 97.0988C114.919 96.4032 114.404 95.6932 113.96 94.9717C108.104 98.6098 104.752 102.786 102.859 106.139Z" fill="black"/>
<path d="M111.493 85.8678C111.488 85.5164 111.49 85.1679 111.497 84.8165C109.269 84.0227 105.013 82.7835 100.766 83.0264C100.489 83.7132 100.23 84.4218 100 85.1564C102.551 84.2425 106.394 83.8232 111.493 85.8678Z" fill="black"/>
<path d="M113.961 94.9732C113.771 94.6652 113.599 94.3528 113.433 94.0391C110.765 95.8032 105.772 99.437 101.82 104.274C102.138 104.891 102.484 105.513 102.861 106.139C104.754 102.786 108.106 98.6099 113.961 94.9732Z" fill="black"/>
<path d="M117.377 119.104C117.288 114.609 117.981 108.266 121.24 101.313C120.994 101.198 120.752 101.084 120.51 100.96C118.778 104.533 115.907 111.192 114.875 117.916C115.699 118.358 116.534 118.754 117.377 119.104Z" fill="black"/>
<path d="M141.176 118.97C137.992 116.373 132.853 111.171 129.583 102.724C129.299 102.761 129.009 102.792 128.719 102.809C130.318 107.371 133.397 114.752 137.969 120.059C139.076 119.742 140.146 119.379 141.176 118.97Z" fill="black"/>
<path d="M157.344 96.4482C154.112 97.0136 146.676 97.6889 137.845 94.4426C137.823 94.7694 137.791 95.0904 137.742 95.4129C142.867 97.5819 150.306 100.07 156.906 99.7769C157.12 98.6837 157.269 97.5732 157.344 96.4482Z" fill="black"/>
<g opacity="0.3">
<path d="M104.175 108.182C118.6 128.902 144.855 121.421 151.981 111.122C156.916 103.988 159.254 94.8141 155.626 85.6682C157.457 94.9226 157.98 112.977 136.224 118.333C109.431 124.927 94.2971 97.0872 102.22 79.9521C98.5411 86.6977 96.226 96.7662 104.175 108.182Z" fill="black"/>
</g>
<path opacity="0.4" d="M111.94 64.078C112.941 60.5657 114.202 57.8458 114.762 58.0063C115.318 58.1668 114.961 61.1397 113.96 64.652C112.963 68.1658 111.696 70.8829 111.138 70.7224C110.58 70.5633 110.94 67.5889 111.94 64.078Z" fill="black"/>
<g opacity="0.5">
<path d="M153.044 87.1576C151.445 82.6808 147.5 80.4105 144.277 82.111C141.053 83.8115 138.651 86.7686 138.937 88.6802C139.224 90.5933 143.17 92.8649 147.706 93.7268C152.239 94.59 154.642 91.6344 153.044 87.1576Z" fill="black"/>
</g>
<g opacity="0.5">
<path d="M145.912 100.688C142.076 99.7002 137.562 100.109 135.88 101.597C134.2 103.082 134.694 106.502 136.979 109.192C139.265 111.88 142.634 113.293 144.466 112.327C146.3 111.362 148.944 108.752 150.343 106.528C151.742 104.303 149.75 101.675 145.912 100.688Z" fill="black"/>
</g>
<g opacity="0.5">
<path d="M126.507 105.181C127.111 104.913 128.702 107.335 130.041 110.563C131.38 113.789 130.814 116.604 128.783 116.818C126.751 117.033 123.8 116.74 122.225 116.169C120.65 115.598 120.075 112.583 120.945 109.469C121.816 106.356 123.176 104.228 123.969 104.737C124.761 105.247 125.904 105.447 126.507 105.181Z" fill="black"/>
</g>
<g opacity="0.5">
<path d="M115.044 106.942C116.406 103.999 116.68 100.88 115.65 100.008C114.621 99.1377 112.196 99.9779 110.262 101.872C108.329 103.768 107.145 106.131 107.634 107.125C108.122 108.122 109.431 109.691 110.544 110.613C111.655 111.537 113.681 109.886 115.044 106.942Z" fill="black"/>
</g>
<g opacity="0.5">
<path d="M106.789 95.3882C109.053 94.0578 110.705 92.0117 110.458 90.8434C110.21 89.6721 108.16 88.5356 105.903 88.3158C103.644 88.0974 101.994 90.1435 102.234 92.8634C102.473 95.5819 104.523 96.7185 106.789 95.3882Z" fill="black"/>
</g>
<g opacity="0.5">
<path d="M106.453 81.7367C108.138 81.8523 109.839 80.4468 110.23 78.6147C110.621 76.7812 110.507 74.793 109.973 74.1943C109.439 73.5971 107.74 75.0026 106.196 77.3177C104.652 79.6327 104.767 81.621 106.453 81.7367Z" fill="black"/>
</g>
<path d="M94.36 144.773C94.36 144.773 96.9382 143.708 98.8339 145.927C98.8339 145.927 99.1072 163.808 96.26 167.029C93.4157 170.249 93.5531 153.533 93.65 153.053C93.7483 152.567 84.0471 165.295 81.8217 163.619C79.5992 161.939 94.36 144.773 94.36 144.773Z" fill="black"/>
<path d="M47.8165 117.124C46.3286 120.969 45.5261 125.131 45.6938 129.304C52.0403 127.47 59.8559 128.149 65.345 129.058C65.1411 126.798 65.6645 124.469 67.6513 122.516C68.7835 121.402 70.1196 120.588 71.5627 120.038C66.4063 112.591 60.19 108.738 56.4868 106.959C52.289 109.922 49.1787 113.602 47.8165 117.124Z" fill="black"/>
<path d="M57.2114 149.668C57.2114 149.668 69.9117 148.374 69.4128 138.266C69.4128 138.266 66.2489 134.4 65.4739 130.023C56.1269 128.935 49.056 131.334 46.0469 132.64C47.1082 138.804 50.4977 144.805 57.2114 149.668Z" fill="black"/>
<path d="M94.3603 144.773L98.8342 145.927C98.8342 145.927 103.013 140.253 104.195 132.436C100.123 133.668 95.6964 133.46 93.3438 133.21C94.1607 137.037 94.1752 141.079 94.3603 144.773Z" fill="black"/>
<path d="M93.1062 132.186C98.5403 132.978 102.18 131.671 104.447 130.186C104.825 124.606 103.499 118.183 98.1976 112.026C95.4892 117.653 91.4853 122.356 89.3047 124.695C91.2626 126.924 92.415 129.486 93.1062 132.186Z" fill="black"/>
<path d="M59.3516 105.151C65.0401 109.238 69.7613 115.691 72.3858 119.753C74.8021 119.013 77.4671 118.961 80.0077 119.455C81.5462 111.933 80.735 105.603 79.597 101.253C72.2354 100.079 65.0734 101.927 59.3516 105.151Z" fill="black"/>
<path d="M96.7434 110.457C96.191 109.894 95.6054 109.335 94.9792 108.781C90.903 105.16 86.5953 102.948 82.3036 101.821C82.8748 108.602 81.6428 115.746 80.7969 119.626C82.9109 120.138 84.9093 121.027 86.5592 122.208C87.2981 122.746 87.9647 123.313 88.5662 123.912C93.4089 119.004 95.6878 114.16 96.7434 110.457Z" fill="black"/>
<path d="M93.1016 132.186C93.1883 132.524 93.2693 132.865 93.3445 133.208C95.6971 133.458 100.123 133.665 104.195 132.435C104.304 131.704 104.39 130.954 104.441 130.186C102.175 131.671 98.5356 132.978 93.1016 132.186Z" fill="black"/>
<path d="M88.5703 123.912C88.8263 124.168 89.0677 124.43 89.302 124.697C91.4826 122.357 95.4851 117.655 98.1949 112.027C97.7408 111.501 97.2593 110.976 96.7474 110.457C95.6919 114.16 93.413 119.004 88.5703 123.912Z" fill="black"/>
<path d="M79.5938 101.253C80.7332 105.602 81.5444 111.933 80.0044 119.455C80.2705 119.509 80.5337 119.562 80.7968 119.626C81.6427 115.746 82.8747 108.602 82.3036 101.821C81.3998 101.584 80.4946 101.398 79.5938 101.253Z" fill="black"/>
<path d="M56.4844 106.959C60.1876 108.737 66.4025 112.591 71.5604 120.038C71.8293 119.935 72.1026 119.837 72.3802 119.753C69.7572 115.691 65.0346 109.238 59.346 105.151C58.3454 105.717 57.3896 106.32 56.4844 106.959Z" fill="black"/>
<path d="M46.0467 132.641C49.0558 131.336 56.1268 128.935 65.4737 130.024C65.4173 129.703 65.3739 129.384 65.3465 129.058C59.8574 128.149 52.0404 127.471 45.6953 129.304C45.7401 130.415 45.8558 131.531 46.0467 132.641Z" fill="black"/>
<g opacity="0.3">
<path d="M94.9813 108.779C76.1038 92.0145 52.3315 105.441 47.8171 117.121C44.6923 125.213 44.5665 134.679 50.2363 142.719C46.2873 134.15 41.5487 116.721 61.4457 106.418C85.9496 93.7309 107.183 117.252 103.494 135.765C105.492 128.347 105.384 118.016 94.9813 108.779Z" fill="black"/>
</g>
<path opacity="0.4" d="M97.7673 153.476C97.6155 157.122 97.0269 160.064 96.4456 160.039C95.8672 160.013 95.5173 157.04 95.6677 153.39C95.8152 149.741 96.4109 146.802 96.9893 146.828C97.5706 146.85 97.9177 149.829 97.7673 153.476Z" fill="black"/>
<g opacity="0.5">
<path d="M52.4001 140.668C55.0029 144.646 59.3698 145.929 62.1056 143.521C64.84 141.112 66.4841 137.675 65.7568 135.882C65.0309 134.09 60.664 132.808 56.0527 133.03C51.4414 133.253 49.7973 136.69 52.4001 140.668Z" fill="black"/>
</g>
<g opacity="0.5">
<path d="M56.1646 125.841C60.1252 125.903 64.4184 124.447 65.7039 122.609C66.9894 120.771 65.7082 117.564 62.8567 115.483C60.0052 113.404 56.3989 112.82 54.843 114.189C53.2871 115.557 51.3277 118.713 50.4876 121.205C49.6489 123.692 52.2026 125.78 56.1646 125.841Z" fill="black"/>
</g>
<g opacity="0.5">
<path d="M73.9784 116.929C73.4535 117.328 71.3409 115.347 69.2818 112.525C67.2242 109.702 67.1143 106.833 69.0389 106.149C70.9635 105.464 73.9003 105.057 75.5661 105.245C77.2305 105.433 78.4972 108.229 78.38 111.459C78.2644 114.688 77.4401 117.078 76.5494 116.767C75.6601 116.456 74.5019 116.529 73.9784 116.929Z" fill="black"/>
</g>
<g opacity="0.5">
<path d="M84.7068 112.533C84.0706 115.713 84.5362 118.81 85.7407 119.416C86.9452 120.021 89.1056 118.637 90.5429 116.341C91.9788 114.046 92.5745 111.471 91.8674 110.617C91.1589 109.764 89.5177 108.545 88.2221 107.908C86.9236 107.27 85.3416 109.352 84.7068 112.533Z" fill="black"/>
</g>
<g opacity="0.5">
<path d="M95.4379 121.83C93.548 123.653 92.4216 126.029 92.9378 127.108C93.4526 128.186 95.7112 128.812 97.9583 128.496C100.205 128.179 101.33 125.805 100.458 123.216C99.588 120.629 97.3279 120.006 95.4379 121.83Z" fill="black"/>
</g>
<g opacity="0.5">
<path d="M98.9659 135.023C97.3001 135.305 95.9756 137.071 96.0248 138.945C96.0739 140.817 96.6523 142.723 97.3103 143.18C97.9682 143.635 99.2913 141.871 100.251 139.258C101.21 136.648 100.632 134.741 98.9659 135.023Z" fill="black"/>
</g>
</g>
<path d="M104.474 88.696C104.474 88.696 107.162 89.4451 107.291 92.3587C107.291 92.3587 96.4949 106.621 92.2712 107.403C88.0474 108.188 98.4456 95.1032 98.8201 94.7822C99.1946 94.4598 83.7123 98.5173 82.9936 95.8263C82.275 93.1367 104.474 88.696 104.474 88.696Z" fill="#E04D22"/>
<path d="M84.8204 38.2538C81.2792 40.3708 78.0821 43.1543 75.6484 46.5452C81.7766 49.0092 87.5201 54.355 91.284 58.4472C92.5175 56.5428 94.3611 55.0289 97.1317 54.7151C98.7107 54.5343 100.262 54.7151 101.739 55.1691C102.259 46.1273 99.7316 39.2645 97.911 35.583C92.7763 35.3329 88.0594 36.3162 84.8204 38.2538Z" fill="#FFA075"/>
<path d="M72.1856 69.684C72.1856 69.684 82.9902 76.486 88.8204 68.2091C88.8204 68.2091 88.7076 63.2146 90.7913 59.2887C84.0949 52.6776 77.0471 50.2151 73.8717 49.3909C70.9146 54.9001 69.8879 61.718 72.1856 69.684Z" fill="#FFA075"/>
<path d="M104.477 88.6961L107.293 92.3588C107.293 92.3588 114.078 90.4617 119.822 85.029C115.855 83.4934 112.495 80.6043 110.794 78.9587C109.082 82.4798 106.607 85.674 104.477 88.6961Z" fill="#FFA075"/>
<path d="M111.234 78.003C115.029 81.9723 118.7 83.184 121.401 83.4082C125.135 79.2451 128.044 73.3686 127.657 65.2522C122.058 68.0184 116.009 69.2605 112.85 69.7579C113.02 72.7237 112.349 75.4508 111.234 78.003Z" fill="#FFA075"/>
<path d="M101.281 35.9199C103.248 42.6424 102.993 50.6344 102.562 55.4511C104.922 56.3563 107.054 57.9541 108.75 59.9091C114.597 54.929 117.851 49.4429 119.632 45.3103C114.557 39.8545 107.777 36.9018 101.281 35.9199Z" fill="#FFA075"/>
<path d="M127.484 63.1236C127.395 62.3399 127.278 61.5388 127.127 60.7175C126.144 55.3528 124.111 50.9599 121.423 47.4302C117.699 53.1231 112.33 57.9961 109.273 60.5323C110.625 62.2386 111.652 64.1676 112.225 66.1139C112.478 66.9916 112.651 67.8505 112.757 68.6907C119.594 67.8057 124.373 65.3924 127.484 63.1236Z" fill="#FFA075"/>
<path d="M111.23 78.0029C111.09 78.3254 110.942 78.6421 110.789 78.9588C112.49 80.6057 115.85 83.4949 119.816 85.0291C120.354 84.5201 120.882 83.9807 121.395 83.4081C118.694 83.184 115.024 81.9722 111.23 78.0029Z" fill="#FF824A"/>
<path d="M112.75 68.6908C112.795 69.0509 112.824 69.4052 112.844 69.758C116.004 69.2606 122.052 68.0185 127.651 65.2523C127.618 64.5582 127.56 63.8482 127.478 63.1223C124.366 65.3925 119.587 67.8059 112.75 68.6908Z" fill="#FF824A"/>
<path d="M119.633 45.3103C117.853 49.4415 114.598 54.9276 108.75 59.9091C108.928 60.113 109.103 60.3197 109.271 60.5323C112.327 57.996 117.696 53.123 121.42 47.4301C120.852 46.6855 120.256 45.9798 119.633 45.3103Z" fill="#FF824A"/>
<path d="M97.9141 35.583C99.736 39.2645 102.264 46.1273 101.742 55.1691C102.019 55.2544 102.293 55.3484 102.563 55.4511C102.994 50.6345 103.248 42.6438 101.282 35.9199C100.147 35.7493 99.0217 35.6365 97.9141 35.583Z" fill="#FF824A"/>
<path d="M73.875 49.3924C77.0504 50.2152 84.0982 52.6777 90.7947 59.2903C90.9465 59.0025 91.1128 58.722 91.2877 58.4487C87.5238 54.3565 81.7803 49.0106 75.6521 46.5466C75.0043 47.4504 74.4086 48.399 73.875 49.3924Z" fill="#FF824A"/>
<g opacity="0.3">
<path d="M127.124 60.7174C122.571 35.8838 95.571 31.8293 84.8229 38.2538C77.3789 42.7046 71.4503 50.0879 70.9688 59.9135C73.1349 50.7285 80.1292 34.0807 102.152 38.2105C129.271 43.2975 131.524 74.9056 117.218 87.2226C123.359 82.607 129.634 74.4009 127.124 60.7174Z" fill="#FFA075"/>
</g>
<path opacity="0.4" d="M101.803 97.6542C99.4406 100.438 97.1646 102.388 96.7236 102.012C96.2811 101.636 97.8384 99.0785 100.204 96.295C102.568 93.5114 104.844 91.5622 105.285 91.9367C105.728 92.3112 104.169 94.8721 101.803 97.6542Z" fill="#FFA075"/>
<g opacity="0.5">
<path d="M73.9377 59.6273C73.5415 64.3643 76.192 68.0646 79.8301 67.8521C83.4683 67.6381 86.8794 65.9419 87.41 64.0824C87.9407 62.2228 85.2888 58.5225 81.5176 55.8604C77.7464 53.1954 74.3353 54.8902 73.9377 59.6273Z" fill="#FFD1BD"/>
</g>
<g opacity="0.5">
<path d="M86.0346 50.2628C89.1189 52.7499 93.3976 54.2465 95.542 53.5886C97.6879 52.9306 98.6509 49.615 97.6836 46.2198C96.7162 42.8246 94.2334 40.1466 92.1642 40.2666C90.0964 40.3851 86.6087 41.6677 84.4151 43.1137C82.2215 44.5583 82.9503 47.7756 86.0346 50.2628Z" fill="#FFD1BD"/>
</g>
<g opacity="0.5">
<path d="M105.554 54.2046C104.895 54.1974 104.449 51.3357 104.565 47.8451C104.681 44.353 106.361 42.0249 108.299 42.6699C110.236 43.3148 112.802 44.8042 113.999 45.9754C115.196 47.1467 114.473 50.1312 112.392 52.6053C110.312 55.0794 108.192 56.4531 107.681 55.6593C107.171 54.8669 106.214 54.2119 105.554 54.2046Z" fill="#FFD1BD"/>
</g>
<g opacity="0.5">
<path d="M116.714 57.3481C114.255 59.4622 112.716 62.1908 113.293 63.4083C113.87 64.6273 116.424 64.8673 118.969 63.9419C121.512 63.0179 123.567 61.355 123.535 60.2474C123.503 59.1397 122.961 57.1689 122.331 55.8675C121.7 54.5661 119.174 55.2326 116.714 57.3481Z" fill="#FFD1BD"/>
</g>
<g opacity="0.5">
<path d="M119.448 71.282C116.835 71.5553 114.485 72.7352 114.226 73.9035C113.967 75.0705 115.363 76.9532 117.328 78.0883C119.293 79.222 121.643 78.0434 122.549 75.4681C123.456 72.8928 122.061 71.0087 119.448 71.282Z" fill="#FFD1BD"/>
</g>
<g opacity="0.5">
<path d="M114.107 83.8478C112.621 83.0453 110.492 83.6207 109.376 85.1275C108.261 86.6356 107.542 88.4923 107.78 89.2558C108.018 90.0193 110.147 89.4438 112.511 87.9761C114.875 86.5098 115.594 84.6532 114.107 83.8478Z" fill="#FFD1BD"/>
</g>
<path d="M85.6636 68.1963C85.6636 68.1963 84.6818 65.5834 86.9592 63.76C86.9592 63.76 104.843 64.0579 107.968 67.0063C111.094 69.9518 94.3946 69.2823 93.9145 69.168C93.433 69.0552 105.845 79.1584 104.097 81.3274C102.35 83.4964 85.6636 68.1963 85.6636 68.1963Z" fill="#E04D22"/>
<path d="M56.546 113.832C60.3432 115.443 64.4788 116.38 68.6519 116.342C67.0237 109.941 67.9506 102.15 69.0337 96.6941C66.7692 96.8228 64.4571 96.2284 62.5686 94.178C61.4899 93.0096 60.7221 91.6504 60.216 90.1899C52.6086 95.1063 48.5598 101.197 46.6641 104.841C49.4939 109.134 53.0698 112.361 56.546 113.832Z" fill="#FFA075"/>
<path d="M89.3809 105.483C89.3809 105.483 88.4945 92.7464 78.374 92.9242C78.374 92.9242 74.409 95.9623 70.0088 96.5971C68.6236 105.906 70.7955 113.048 72.0058 116.096C78.1975 115.235 84.3069 112.039 89.3809 105.483Z" fill="#FFA075"/>
<path d="M85.6725 68.1964L86.9681 63.7601C86.9681 63.7601 81.4328 59.4018 73.6562 57.9731C74.7581 62.0827 74.4096 66.5002 74.0828 68.8442C77.9364 68.1472 81.9751 68.2614 85.6725 68.1964Z" fill="#FFA075"/>
<path d="M73.0462 69.0509C74.0136 63.6457 72.8235 59.9671 71.4108 57.6521C65.8466 57.0954 59.3844 58.2189 53.0625 63.3189C58.6007 66.2066 63.1729 70.3566 65.4403 72.6123C67.7293 70.7268 70.3292 69.6567 73.0462 69.0509Z" fill="#FFA075"/>
<path d="M44.9514 101.923C49.2171 96.3672 55.8195 91.8556 59.9623 89.3613C59.2986 86.9233 59.3319 84.2569 59.9074 81.7351C52.4359 79.9551 46.0865 80.5653 41.7008 81.5659C40.2938 88.8841 41.9105 96.0997 44.9514 101.923Z" fill="#FFA075"/>
<path d="M51.4504 64.7173C50.8691 65.2509 50.2921 65.8191 49.7166 66.4265C45.9686 70.3856 43.6217 74.6209 42.3594 78.8722C49.1527 78.5179 56.254 79.9769 60.1061 80.9472C60.6845 78.8505 61.636 76.8839 62.8694 75.2702C63.4305 74.5486 64.019 73.9008 64.6364 73.3181C59.8863 68.3236 55.1174 65.89 51.4504 64.7173Z" fill="#FFA075"/>
<path d="M73.0509 69.0509C73.3936 68.9757 73.7378 68.9063 74.0819 68.8412C74.4087 66.4972 74.7572 62.0797 73.6554 57.9702C72.9266 57.8371 72.1804 57.7273 71.4141 57.6506C72.8283 59.9671 74.0183 63.6458 73.0509 69.0509Z" fill="#FF824A"/>
<path d="M64.6314 73.3194C64.896 73.0707 65.165 72.8393 65.4383 72.6138C63.1709 70.358 58.5987 66.208 53.0605 63.3203C52.5211 63.7585 51.9818 64.2226 51.4453 64.7186C55.1124 65.8899 59.8813 68.3235 64.6314 73.3194Z" fill="#FF824A"/>
<path d="M41.7031 81.5661C46.0888 80.5669 52.4382 79.9552 59.9097 81.7353C59.9704 81.4706 60.0326 81.2089 60.1064 80.9472C56.2542 79.9769 49.1529 78.5179 42.3596 78.8722C42.0921 79.7701 41.8752 80.6695 41.7031 81.5661Z" fill="#FF824A"/>
<path d="M46.6695 104.841C48.5652 101.197 52.614 95.1077 60.2214 90.1899C60.126 89.9166 60.0392 89.6404 59.964 89.3613C55.8213 91.8557 49.2188 96.3672 44.9531 101.923C45.4867 102.942 46.0608 103.917 46.6695 104.841Z" fill="#FF824A"/>
<path d="M72.0038 116.098C70.7949 113.05 68.6216 105.907 70.0069 96.5986C69.6844 96.6435 69.3619 96.6781 69.0366 96.6955C67.9535 102.15 67.0266 109.942 68.6548 116.344C69.7712 116.334 70.8875 116.254 72.0038 116.098Z" fill="#FF824A"/>
<g opacity="0.3">
<path d="M49.711 66.422C32.3518 84.7558 45.0129 108.944 56.5434 113.829C64.5296 117.213 73.9879 117.639 82.2055 112.23C73.5151 115.903 55.9447 120.083 46.2811 99.8665C34.382 74.9708 58.5692 54.4983 76.9551 58.7755C69.6051 56.5429 59.2763 56.3217 49.711 66.422Z" fill="#FFA075"/>
</g>
<path opacity="0.4" d="M94.4741 65.0684C98.1166 65.3345 101.035 66.017 100.991 66.5968C100.949 67.1752 97.9633 67.4283 94.3223 67.1623C90.6784 66.8976 87.7618 66.2122 87.8052 65.6338C87.8471 65.0525 90.8331 64.7995 94.4741 65.0684Z" fill="#FFA075"/>
<g opacity="0.5">
<path d="M80.2209 110.006C84.2799 107.532 85.7013 103.208 83.3819 100.397C81.0625 97.5863 77.6789 95.8337 75.8656 96.5032C74.0509 97.1713 72.6294 101.496 72.7061 106.112C72.7798 110.728 76.1635 112.48 80.2209 110.006Z" fill="#FFD1BD"/>
</g>
<g opacity="0.5">
<path d="M65.5252 105.769C65.7132 101.811 64.3959 97.4748 62.5985 96.13C60.8012 94.7853 57.5563 95.9652 55.3873 98.7473C53.2169 101.532 52.5214 105.117 53.8387 106.718C55.156 108.315 58.2475 110.375 60.7101 111.293C63.1711 112.212 65.3387 109.725 65.5252 105.769Z" fill="#FFD1BD"/>
</g>
<g opacity="0.5">
<path d="M57.1862 87.6825C57.5694 88.2204 55.5219 90.2694 52.6342 92.2345C49.748 94.2011 46.8762 94.2199 46.253 92.2736C45.6298 90.3287 45.3174 87.3803 45.5575 85.7218C45.7975 84.0647 48.6331 82.8862 51.8577 83.106C55.0823 83.3258 57.4436 84.2252 57.1038 85.1058C56.7654 85.9864 56.8016 87.1461 57.1862 87.6825Z" fill="#FFD1BD"/>
</g>
<g opacity="0.5">
<path d="M53.1325 76.8158C56.292 77.5518 59.4009 77.1845 60.0444 75.9988C60.6864 74.8145 59.3734 72.6094 57.1249 71.1012C54.8778 69.5945 52.3227 68.9163 51.4479 69.5959C50.5731 70.2755 49.302 71.8762 48.6224 73.1545C47.9457 74.4313 49.9744 76.0798 53.1325 76.8158Z" fill="#FFD1BD"/>
</g>
<g opacity="0.5">
<path d="M62.7709 66.3844C64.5336 68.3322 66.8718 69.5338 67.9678 69.0537C69.0639 68.5736 69.7594 66.3352 69.515 64.0809C69.2707 61.8252 66.9325 60.6235 64.3181 61.4116C61.7052 62.1982 61.0082 64.4366 62.7709 66.3844Z" fill="#FFD1BD"/>
</g>
<g opacity="0.5">
<path d="M76.0653 63.2813C76.2952 64.9558 78.016 66.3339 79.8914 66.3454C81.7654 66.357 83.6886 65.8393 84.1658 65.1973C84.6415 64.5553 82.9208 63.1758 80.3411 62.1333C77.76 61.0921 75.8368 61.6083 76.0653 63.2813Z" fill="#FFD1BD"/>
</g>
<path d="M109.94 71.0303C109.94 71.0303 107.184 71.4612 105.859 68.8599C105.859 68.8599 109.784 51.411 113.305 48.9485C116.826 46.4859 112.776 62.7014 112.569 63.1468C112.359 63.595 124.773 53.4933 126.543 55.6449C128.311 57.798 109.94 71.0303 109.94 71.0303Z" fill="#E04D22"/>
<path d="M148.715 108.813C151.064 105.422 152.819 101.564 153.632 97.469C147.034 97.7626 139.593 95.274 134.469 93.105C134.138 95.3492 133.084 97.4907 130.695 98.9208C129.333 99.7392 127.845 100.218 126.312 100.415C129.582 108.864 134.721 114.063 137.905 116.66C142.681 114.765 146.567 111.917 148.715 108.813Z" fill="#FFA075"/>
<path d="M147.204 74.9707C147.204 74.9707 134.555 73.2528 132.672 83.1984C132.672 83.1984 134.842 87.6955 134.57 92.1347C143.403 95.381 150.838 94.7042 154.07 94.1403C154.483 87.9022 152.593 81.2723 147.204 74.9707Z" fill="#FFA075"/>
<path d="M109.944 71.0303L105.863 68.8599C105.863 68.8599 100.472 73.396 97.4922 80.7185C101.741 80.4756 105.995 81.7162 108.223 82.5087C108.326 78.5958 109.258 74.6627 109.944 71.0303Z" fill="#FFA075"/>
<path d="M108.218 83.5614C103.121 81.5167 99.2774 81.9361 96.7252 82.8485C95.0507 88.1828 94.8353 94.7389 98.5472 101.967C102.499 97.1306 107.492 93.4968 110.16 91.7327C108.778 89.1082 108.259 86.3449 108.218 83.5614Z" fill="#FFA075"/>
<path d="M134.695 117.749C130.121 112.442 127.044 105.063 125.443 100.5C122.922 100.653 120.317 100.079 117.965 99.0046C114.705 105.958 114.013 112.299 114.101 116.796C120.981 119.661 128.377 119.542 134.695 117.749Z" fill="#FFA075"/>
<path d="M99.5859 103.831C99.9908 104.507 100.428 105.189 100.908 105.874C104.022 110.35 107.692 113.506 111.601 115.606C112.635 108.884 115.505 102.223 117.236 98.6503C115.3 97.6569 113.566 96.3265 112.238 94.7909C111.646 94.0954 111.131 93.3854 110.687 92.6638C104.831 96.302 101.479 100.478 99.5859 103.831Z" fill="#FFA075"/>
<path d="M108.219 83.5614C108.215 83.21 108.215 82.8615 108.224 82.5101C105.995 81.7163 101.74 80.4771 97.4929 80.72C97.2153 81.4068 96.9565 82.1154 96.7266 82.85C99.2788 81.9361 103.122 81.5168 108.219 83.5614Z" fill="#FF824A"/>
<path d="M110.687 92.6653C110.498 92.3573 110.326 92.045 110.16 91.7312C107.492 93.4953 102.499 97.1291 98.5469 101.966C98.865 102.583 99.2106 103.205 99.588 103.831C101.481 100.478 104.833 96.302 110.687 92.6653Z" fill="#FF824A"/>
<path d="M114.103 116.796C114.015 112.301 114.708 105.959 117.967 99.0047C117.721 98.8905 117.478 98.7762 117.237 98.6519C115.504 102.225 112.634 108.884 111.602 115.608C112.424 116.05 113.26 116.446 114.103 116.796Z" fill="#FF824A"/>
<path d="M137.903 116.662C134.719 114.065 129.579 108.864 126.31 100.416C126.025 100.454 125.736 100.484 125.445 100.501C127.046 105.063 130.123 112.444 134.697 117.751C135.803 117.434 136.874 117.071 137.903 116.662Z" fill="#FF824A"/>
<path d="M154.071 94.1404C150.839 94.7057 143.404 95.381 134.571 92.1348C134.55 92.4616 134.518 92.7826 134.469 93.105C139.592 95.274 147.033 97.7626 153.631 97.4691C153.847 96.3759 153.996 95.2653 154.071 94.1404Z" fill="#FF824A"/>
<g opacity="0.3">
<path d="M100.903 105.875C115.328 126.594 141.583 119.113 148.709 108.814C153.644 101.68 155.982 92.5063 152.354 83.3603C154.185 92.6147 154.708 110.669 132.95 116.025C106.157 122.621 91.0235 94.7794 98.9461 77.6443C95.2675 84.3899 92.9524 94.4584 100.903 105.875Z" fill="#FFA075"/>
</g>
<path opacity="0.4" d="M108.666 61.7702C109.667 58.2578 110.929 55.5379 111.487 55.6984C112.044 55.8589 111.687 58.8319 110.686 62.3442C109.688 65.858 108.422 68.575 107.863 68.4145C107.307 68.2569 107.667 65.2811 108.666 61.7702Z" fill="#FFA075"/>
<g opacity="0.5">
<path d="M149.772 84.8497C148.173 80.3729 144.228 78.1027 141.004 79.8032C137.781 81.5037 135.377 84.4607 135.664 86.3723C135.95 88.2854 139.896 90.5556 144.432 91.4189C148.968 92.2836 151.372 89.3265 149.772 84.8497Z" fill="#FFD1BD"/>
</g>
<g opacity="0.5">
<path d="M142.639 98.3815C138.803 97.3938 134.288 97.8031 132.606 99.291C130.926 100.776 131.421 104.196 133.705 106.885C135.99 109.573 139.361 110.986 141.193 110.02C143.026 109.056 145.671 106.446 147.069 104.222C148.469 101.996 146.475 99.3676 142.639 98.3815Z" fill="#FFD1BD"/>
</g>
<g opacity="0.5">
<path d="M123.241 102.873C123.844 102.605 125.436 105.027 126.775 108.255C128.114 111.481 127.549 114.296 125.517 114.51C123.485 114.727 120.534 114.432 118.959 113.861C117.385 113.29 116.809 110.275 117.68 107.161C118.55 104.048 119.911 101.92 120.703 102.43C121.494 102.939 122.636 103.14 123.241 102.873Z" fill="#FFD1BD"/>
</g>
<g opacity="0.5">
<path d="M111.771 104.634C113.133 101.691 113.406 98.5723 112.377 97.7004C111.347 96.8299 108.922 97.67 106.989 99.5643C105.056 101.459 103.871 103.823 104.36 104.818C104.849 105.812 106.158 107.381 107.271 108.305C108.383 109.231 110.407 107.578 111.771 104.634Z" fill="#FFD1BD"/>
</g>
<g opacity="0.5">
<path d="M103.516 93.0817C105.78 91.7514 107.431 89.7053 107.184 88.5355C106.937 87.3657 104.886 86.2277 102.629 86.0079C100.371 85.7896 98.7207 87.8356 98.9607 90.5556C99.2007 93.2741 101.251 94.4106 103.516 93.0817Z" fill="#FFD1BD"/>
</g>
<g opacity="0.5">
<path d="M103.18 79.4288C104.866 79.5445 106.565 78.1389 106.957 76.3068C107.349 74.4733 107.233 72.4851 106.7 71.8864C106.166 71.2893 104.467 72.6948 102.923 75.0098C101.378 77.3249 101.494 79.3131 103.18 79.4288Z" fill="#FFD1BD"/>
</g>
<path d="M91.0941 142.466C91.0941 142.466 93.6723 141.4 95.568 143.62C95.568 143.62 95.8413 161.501 92.9941 164.721C90.1499 167.941 90.2872 151.226 90.3841 150.745C90.4824 150.26 80.7812 162.987 78.5558 161.311C76.3348 159.631 91.0941 142.466 91.0941 142.466Z" fill="#E04D22"/>
<path d="M44.5509 114.817C43.063 118.661 42.2604 122.823 42.4282 126.996C48.7747 125.163 56.5918 125.841 62.0793 126.75C61.8754 124.49 62.3989 122.161 64.3857 120.21C65.5179 119.095 66.854 118.281 68.2971 117.732C63.1407 110.285 56.9243 106.431 53.2211 104.653C49.022 107.614 45.9116 111.294 44.5509 114.817Z" fill="#FFA075"/>
<path d="M53.9458 147.362C53.9458 147.362 66.646 146.068 66.1472 135.96C66.1472 135.96 62.9833 132.093 62.2083 127.716C52.8613 126.629 45.7904 129.028 42.7812 130.334C43.8426 136.496 47.232 142.497 53.9458 147.362Z" fill="#FFA075"/>
<path d="M91.0947 142.465L95.5686 143.619C95.5686 143.619 99.7475 137.945 100.929 130.128C96.857 131.36 92.4308 131.152 90.0781 130.902C90.8951 134.729 90.911 138.771 91.0947 142.465Z" fill="#FFA075"/>
<path d="M89.8328 129.88C95.2669 130.672 98.9064 129.365 101.174 127.88C101.551 122.3 100.225 115.877 94.9242 109.719C92.2143 115.347 88.2118 120.05 86.0312 122.389C87.9891 124.616 89.1416 127.18 89.8328 129.88Z" fill="#FFA075"/>
<path d="M56.0859 102.845C61.7745 106.932 66.4957 113.385 69.1202 117.447C71.5364 116.707 74.2014 116.654 76.7421 117.149C78.2806 109.627 77.4708 103.296 76.3314 98.9467C68.9698 97.7726 61.8092 99.6191 56.0859 102.845Z" fill="#FFA075"/>
<path d="M93.4777 108.15C92.9254 107.588 92.3397 107.028 91.7136 106.474C87.6373 102.854 83.3297 100.641 79.038 99.5149C79.6092 106.295 78.3772 113.44 77.5312 117.319C79.6453 117.831 81.6437 118.721 83.2936 119.902C84.0325 120.44 84.6991 121.007 85.3006 121.605C90.1418 116.698 92.4222 111.852 93.4777 108.15Z" fill="#FFA075"/>
<path d="M89.8359 129.879C89.9227 130.218 90.0037 130.559 90.0789 130.902C92.4315 131.152 96.8577 131.359 100.93 130.128C101.038 129.398 101.125 128.647 101.175 127.88C98.9096 129.363 95.27 130.672 89.8359 129.879Z" fill="#FF824A"/>
<path d="M85.3047 121.604C85.5606 121.86 85.8021 122.122 86.0364 122.389C88.2169 120.05 92.2195 115.347 94.9293 109.72C94.4752 109.193 93.9923 108.668 93.4804 108.149C92.4262 111.852 90.1459 116.698 85.3047 121.604Z" fill="#FF824A"/>
<path d="M76.3281 98.9453C77.4676 103.295 78.2788 109.625 76.7388 117.148C77.0049 117.201 77.268 117.255 77.5312 117.318C78.3771 113.439 79.6091 106.294 79.0379 99.5136C78.1327 99.2779 77.229 99.0899 76.3281 98.9453Z" fill="#FF824A"/>
<path d="M53.2188 104.653C56.922 106.431 63.1369 110.285 68.2947 117.732C68.5637 117.629 68.837 117.531 69.1146 117.447C66.4916 113.385 61.7689 106.932 56.0804 102.845C55.0783 103.409 54.1225 104.012 53.2188 104.653Z" fill="#FF824A"/>
<path d="M42.7811 130.334C45.7902 129.028 52.8611 126.627 62.2081 127.716C62.1517 127.395 62.1083 127.076 62.0808 126.75C56.5918 125.841 48.7747 125.163 42.4297 126.996C42.4745 128.107 42.5902 129.224 42.7811 130.334Z" fill="#FF824A"/>
<g opacity="0.3">
<path d="M91.7157 106.472C72.8381 89.7068 49.0659 103.131 44.5515 114.814C41.4267 122.905 41.3009 132.371 46.9707 140.411C43.0216 131.842 38.2831 114.415 58.1801 104.112C82.684 91.4246 103.917 114.945 100.228 133.458C102.225 126.04 102.118 115.709 91.7157 106.472Z" fill="#FFA075"/>
</g>
<path opacity="0.4" d="M94.5002 151.169C94.3484 154.816 93.7599 157.757 93.18 157.732C92.6016 157.706 92.2517 154.733 92.4021 151.084C92.5496 147.434 93.1453 144.496 93.7237 144.522C94.3021 144.542 94.6492 147.521 94.5002 151.169Z" fill="#FFA075"/>
<g opacity="0.5">
<path d="M49.1345 138.36C51.7373 142.338 56.1042 143.621 58.8401 141.213C61.5744 138.804 63.2185 135.367 62.4912 133.574C61.7653 131.783 57.397 130.5 52.7857 130.723C48.1758 130.945 46.5317 134.382 49.1345 138.36Z" fill="#FFD1BD"/>
</g>
<g opacity="0.5">
<path d="M52.899 123.533C56.8596 123.595 61.1527 122.139 62.4382 120.301C63.7237 118.463 62.4426 115.256 59.5911 113.175C56.7396 111.096 53.1332 110.512 51.5773 111.881C50.0214 113.249 48.0621 116.406 47.222 118.897C46.3833 121.386 48.9369 123.472 52.899 123.533Z" fill="#FFD1BD"/>
</g>
<g opacity="0.5">
<path d="M70.705 114.621C70.1801 115.021 68.0675 113.04 66.0084 110.217C63.9507 107.394 63.8408 104.525 65.7654 103.842C67.6901 103.156 70.6269 102.75 72.2927 102.938C73.957 103.126 75.2237 105.922 75.1066 109.151C74.9895 112.38 74.1667 114.77 73.276 114.459C72.3867 114.149 71.2299 114.222 70.705 114.621Z" fill="#FFD1BD"/>
</g>
<g opacity="0.5">
<path d="M81.4412 110.225C80.805 113.405 81.2706 116.503 82.4751 117.108C83.6796 117.713 85.8399 116.329 87.2773 114.033C88.7131 111.738 89.3089 109.163 88.6018 108.31C87.8933 107.456 86.2535 106.237 84.9564 105.6C83.6594 104.962 82.0775 107.044 81.4412 110.225Z" fill="#FFD1BD"/>
</g>
<g opacity="0.5">
<path d="M92.1723 119.523C90.2824 121.347 89.156 123.723 89.6722 124.801C90.187 125.88 92.4456 126.506 94.6927 126.189C96.9398 125.873 98.0648 123.498 97.1943 120.91C96.3223 118.323 94.0622 117.699 92.1723 119.523Z" fill="#FFD1BD"/>
</g>
<g opacity="0.5">
<path d="M95.7003 132.717C94.0345 132.999 92.71 134.764 92.7591 136.638C92.8083 138.511 93.3867 140.417 94.0446 140.874C94.7026 141.329 96.0257 139.565 96.9858 136.952C97.9431 134.34 97.3661 132.433 95.7003 132.717Z" fill="#FFD1BD"/>
</g>
</svg>
