<svg width="165" height="131" viewBox="0 0 165 131" fill="none" xmlns="http://www.w3.org/2000/svg">
<path d="M101.486 107.754C128.419 101.786 144.949 92.2467 157.277 65.7189C159.109 61.7786 160.696 57.6916 162.194 53.5467C158.855 33.9121 142.206 14.5621 101.727 1.77182C74.7581 -6.75356 8.7285 15.5761 0.859375 66.8307C16.0997 106.522 60.9448 116.733 101.486 107.754Z" fill="#E27158"/>
<path d="M45.8945 15.1938C26.8707 23.1322 -10.541 66.484 41.5775 90.0277C100.658 116.72 160.392 68.4408 145.828 38.6042C131.721 9.7104 94.8031 -5.21016 45.8945 15.1938Z" fill="#EF7F6C"/>
<path d="M45.9003 116.724C85.7572 129.715 126.188 111.348 142.615 97.5432C150.462 90.948 157.944 81.1196 164.102 71.7092C164.191 66.1234 163.332 60.2041 162.203 53.551C160.705 57.6914 159.118 61.7829 157.286 65.7232C144.958 92.2466 128.428 101.79 101.495 107.759C60.9583 116.742 16.1087 106.527 0.872812 66.835C0.17037 71.4245 -0.167486 76.1965 0.081481 81.2263C6.99475 92.0376 21.1058 108.644 45.9003 116.724Z" fill="#C65644"/>
<path d="M133.751 114.741C157.478 98.0459 163.872 85.9494 164.103 71.7048C157.945 81.1197 150.463 90.9437 142.616 97.5389C126.189 111.343 85.7627 129.71 45.9014 116.72C21.1114 108.639 7.00029 92.0377 0.078125 81.2175C0.149258 82.6496 0.24708 84.0905 0.424913 85.5669C6.96918 140.971 101.034 137.76 133.751 114.741Z" fill="#B7483D"/>
<path d="M85.6366 25.2801C79.9681 14.4866 72.5302 10.0793 72.5302 10.0793C72.5302 10.0793 74.6153 16.8569 77.225 25.6403L78.3187 29.3271C78.3187 29.3271 78.3187 29.327 66.5106 31.6707C58.7126 33.2184 45.9308 40.5163 38.1328 45.3016C48.0115 43.4115 65.4347 40.3696 81.1729 39.1199C82.6223 44.1586 84.0138 49.1217 85.1208 53.3111C89.3488 69.3212 92.5498 79.1852 92.5498 79.1852C92.5498 79.1852 94.8128 58.0785 90.4781 38.7908C108.63 39.1688 134.167 44.63 134.167 44.63C111.52 30.5945 87.3793 28.4154 87.3793 28.4154L85.6366 25.2801Z" fill="#C65644"/>
<path d="M78.3223 29.327L77.2286 25.6401C51.6428 28.5664 30.125 46.9069 30.125 46.9069C30.125 46.9069 33.1882 46.2487 38.1364 45.3015C45.9344 40.5162 58.7117 33.2227 66.5141 31.6706C78.3223 29.3269 78.3223 29.327 78.3223 29.327Z" fill="#B7483D"/>
<path d="M85.6406 25.28L87.3834 28.4198C87.3834 28.4198 111.529 30.599 134.171 44.6345C134.171 44.6345 113.672 26.7877 86.9521 25.3201C86.512 25.2934 86.0763 25.2934 85.6406 25.28Z" fill="#B7483D"/>
<path d="M72.5312 10.0793L84.1749 28.0907C84.1749 28.0907 86.4334 27.984 92.0262 29.0691C97.6191 30.1498 93.0799 26.9033 93.0799 26.9033L86.9536 25.3201C86.9536 25.3201 78.5465 13.6549 72.5312 10.0793Z" fill="#B7483D"/>
<path d="M69.4507 45.8263C64.3647 44.4565 59.7588 51.5766 64.3647 53.5468C68.9661 55.5169 78.1023 48.1611 69.4507 45.8263Z" fill="#B7483D"/>
<path d="M101.856 45.8261C99.4062 47.4627 101.856 54.3382 107.804 51.7765C113.757 49.2149 106.76 42.6152 101.856 45.8261Z" fill="#B7483D"/>
<path d="M76.1489 59.9017C72.9879 58.2696 67.6529 63.922 73.0323 66.3724C78.4118 68.8229 81.2349 62.5301 76.1489 59.9017Z" fill="#B7483D"/>
<path d="M128.188 50.5136C125.027 48.8814 119.692 54.5339 125.071 56.9843C130.451 59.4348 133.278 53.1419 128.188 50.5136Z" fill="#B7483D"/>
<path d="M42.1709 26.8498C38.6142 26.7519 31.9321 29.7271 36.3868 33.614C39.4322 36.2735 47.6081 26.9965 42.1709 26.8498Z" fill="#B7483D"/>
<path d="M46.6176 53.8402C43.4566 52.2081 38.1216 57.8605 43.5011 60.311C48.8805 62.7659 51.7037 56.473 46.6176 53.8402Z" fill="#B7483D"/>
<path d="M109.583 24.0481C112.687 26.4541 121.298 24.8976 117.426 20.895C113.674 17.0037 106.049 21.3042 109.583 24.0481Z" fill="#B7483D"/>
<path d="M92.0915 16.7857C95.1947 19.1917 104.531 16.7768 99.9384 13.6326C96.1016 11.0043 88.5526 14.0418 92.0915 16.7857Z" fill="#B7483D"/>
<path d="M54.2217 17.5864C48.3132 19.4542 50.7183 24.0082 57.7383 21.5577C64.7583 19.1073 60.1302 15.7185 54.2217 17.5864Z" fill="#B7483D"/>
<path d="M105.502 62.6056C102.198 64.6113 103.585 68.5338 108.671 66.9239C113.753 65.3229 110.548 59.5459 105.502 62.6056Z" fill="#B7483D"/>
</svg>
