<svg width="236" height="110" viewBox="0 0 236 110" fill="none" xmlns="http://www.w3.org/2000/svg">
<path d="M234.835 52.135C233.753 50.4193 233.218 49.2742 233.954 47.1704C234.131 46.6606 234.11 46.2364 233.924 45.721C233.534 44.6786 233.151 44.0356 232.999 42.902C232.868 41.9376 232.838 40.9313 232.558 39.9936C232.096 38.4281 231.215 37.749 229.884 37.9735C228.13 38.2664 226.494 39.8661 225.098 41.0112C224.883 41.19 224.67 41.3707 224.451 41.5533C222.423 42.7346 220.464 44.2183 218.933 46.0348C218.64 46.2345 218.345 46.4305 218.043 46.6169C217.702 46.828 217.647 47.2674 217.763 47.6231C216.747 49.219 216.059 51.0317 215.895 53.0728C215.235 60.9705 226.426 60.5044 230.361 60.5235C231.767 60.5292 233.161 60.1716 234.011 58.8058C234.359 58.2447 234.416 57.4553 234.257 56.78C233.987 55.6026 233.954 56.1257 234.517 55.3458C235.246 54.3434 235.575 53.3105 234.835 52.135Z" fill="#B04F25"/>
<path opacity="0.2" d="M225.111 60.3762C224.196 58.4854 223.646 56.7126 225.062 56.3722C224.888 54.5347 223.424 54.1543 223.538 51.9782C223.589 50.9682 223.797 50.8008 223.447 49.8725C223.118 48.9804 222.465 48.6399 222.349 47.5918C222.073 45.1267 223.424 43.0571 224.679 41.3623C224.605 41.427 224.527 41.4897 224.451 41.5544C222.423 42.7357 220.464 44.2193 218.933 46.0359C218.64 46.2356 218.345 46.4315 218.043 46.6179C217.702 46.8291 217.647 47.2685 217.763 47.6242C216.747 49.2201 216.059 51.0328 215.895 53.0738C215.442 58.4969 220.576 59.9748 225.111 60.3762Z" fill="#B04F25"/>
<path d="M20.5619 104.536C25.186 110.779 173.451 116.597 210.807 83.4922C218.446 76.7224 224.72 38.8697 219.462 29.7945C209.337 12.3328 193.914 10.3032 177.297 7.08475C126.165 -2.82544 41.5863 -0.615148 37.9247 3.36225C35.1171 6.41329 15.0247 97.0602 20.5619 104.536Z" fill="#B04F25"/>
<g opacity="0.2">
<path opacity="0.4" d="M210.819 83.4945C216.858 78.1457 222.97 52.7501 221.937 38.3604C220.176 41.3163 218.673 45.2157 218.258 47.4755C209.573 94.7838 63.5279 87.3217 43.5953 86.0605L43.9929 85.7087C44.4932 85.6459 44.8926 85.4766 45.3605 85.4252C43.8654 85.3568 42.4617 85.4747 40.9989 85.5279C33.9115 85.7866 26.9477 85.4861 20.2046 87.666C18.9092 96.8343 19.6206 103.61 20.5736 104.538C24.0222 107.893 173.463 116.598 210.819 83.4945Z" fill="#B04F25"/>
</g>
<path d="M70.0412 63.4628C62.0104 91.6679 40.5674 110.648 22.0538 105.379C3.54782 100.11 -5.0138 72.5874 3.01707 44.3823C11.0479 16.1773 32.5575 -2.41624 51.0673 2.85271C69.5752 8.11976 78.0702 35.2577 70.0412 63.4628Z" fill="#EB876B"/>
<path d="M27.4022 53.6518C26.5595 56.623 24.2789 58.5765 22.312 58.0173C20.349 57.4561 19.4379 54.5953 20.2862 51.6261C21.1289 48.653 23.4096 46.7014 25.3764 47.2606C27.3375 47.8199 28.2486 50.6826 27.4022 53.6518Z" fill="white"/>
<path d="M38.8958 83.0062C37.8059 86.8372 34.867 89.3594 32.3277 88.6366C29.794 87.9157 28.6223 84.2236 29.7122 80.3927C30.8022 76.5598 33.7448 74.0395 36.2803 74.7623C38.8159 75.4832 39.9857 79.1734 38.8958 83.0062Z" fill="white"/>
<path d="M51.2099 25.933C50.3863 28.8242 48.1645 30.7264 46.2548 30.1824C44.3393 29.6364 43.4529 26.8517 44.2765 23.9585C45.1021 21.0654 47.32 19.1651 49.2355 19.7091C51.1491 20.255 52.0335 23.0398 51.2099 25.933Z" fill="white"/>
<path d="M24.8605 32.847C23.7667 36.6799 20.828 39.2002 18.2905 38.4793C15.7549 37.7565 14.5832 34.0644 15.6731 30.2316C16.765 26.4007 19.7057 23.8803 22.2432 24.6031C24.7768 25.324 25.9466 29.0142 24.8605 32.847Z" fill="white"/>
<path d="M13.7454 74.0829C12.859 77.1777 10.4851 79.2149 8.43841 78.6328C6.38789 78.0489 5.44067 75.0663 6.32136 71.9696C7.20206 68.8729 9.5797 66.8376 11.6283 67.4196C13.6788 68.0055 14.6242 70.9862 13.7454 74.0829Z" fill="white"/>
<path d="M46.8211 58.126C46.3284 59.8665 44.9931 61.0116 43.8442 60.6844C42.6915 60.3573 42.1589 58.6796 42.6535 56.941C43.148 55.2005 44.4852 54.0554 45.6379 54.3845C46.783 54.7117 47.3195 56.3875 46.8211 58.126Z" fill="white"/>
<path d="M59.0428 64.1016C58.5464 65.842 57.2111 66.9852 56.0622 66.6581C54.9095 66.3309 54.3769 64.6551 54.8733 62.9146C55.3698 61.1742 56.7051 60.0291 57.8559 60.3581C59.0048 60.6834 59.5355 62.3611 59.0428 64.1016Z" fill="white"/>
<path d="M9.55692 51.2475C9.05855 52.988 7.72516 54.1312 6.57436 53.804C5.42356 53.4769 4.89283 51.7992 5.38929 50.0606C5.88385 48.3201 7.21727 47.1769 8.36807 47.5041C9.52078 47.8313 10.0515 49.5071 9.55692 51.2475Z" fill="white"/>
<path d="M43.8543 42.1557C43.3579 43.8962 42.0226 45.0413 40.8718 44.7122C39.7229 44.3851 39.1883 42.7074 39.6867 40.9688C40.1794 39.2283 41.5147 38.0851 42.6655 38.4123C43.8182 38.7395 44.3489 40.4153 43.8543 42.1557Z" fill="white"/>
<path d="M34.1363 19.1621C33.6417 20.9026 32.3045 22.0458 31.1575 21.7186C30.0048 21.3914 29.4703 19.7137 29.9668 17.9752C30.4613 16.2347 31.7947 15.0896 32.9474 15.4187C34.0982 15.744 34.627 17.4197 34.1363 19.1621Z" fill="white"/>
<path d="M57.7095 39.649C57.3691 40.8493 56.4446 41.6406 55.6514 41.4142C54.8544 41.1878 54.4892 40.0294 54.8316 38.8292C55.1721 37.627 56.0946 36.8357 56.8897 37.0621C57.6867 37.2903 58.05 38.4468 57.7095 39.649Z" fill="white"/>
<path d="M20.0536 75.5906C19.7131 76.7927 18.7867 77.5821 17.9954 77.3577C17.1965 77.1313 16.8332 75.9729 17.1756 74.7727C17.5161 73.5705 18.4367 72.7811 19.2337 73.0075C20.0288 73.2319 20.3941 74.3903 20.0536 75.5906Z" fill="white"/>
<path d="M24.3184 92.9019C23.976 94.1022 23.0572 94.8935 22.2602 94.6671C21.467 94.4408 21.098 93.2824 21.4404 92.0802C21.7809 90.88 22.7034 90.0887 23.4985 90.315C24.2936 90.5433 24.6608 91.7017 24.3184 92.9019Z" fill="white"/>
<path opacity="0.2" d="M39.5758 5.42388C44.8923 3.78233 55.6851 5.21655 60.7696 12.07C67.0295 20.5098 62.0155 32.383 53.3493 32.7502C14.9639 34.3746 20.1682 67.1391 7.26593 68.832C-2.28666 70.0836 6.60205 39.8376 13.1321 28.4836C18.9965 18.2938 27.2575 9.23198 39.5758 5.42388Z" fill="#EB876B"/>
</svg>
