<svg width="170" height="199" viewBox="0 0 170 199" fill="none" xmlns="http://www.w3.org/2000/svg">
<path d="M153.987 159.916C153.987 181.479 122.937 198.963 84.6356 198.963C46.334 198.963 15.2812 181.479 15.2812 159.916C15.2812 138.352 46.3312 120.871 84.6356 120.871C122.94 120.871 153.987 138.352 153.987 159.916Z" fill="#ED2B2B"/>
<path d="M0 59.4515L15.4176 162.339H153.856L169.271 59.4515H0Z" fill="#ED2B2B"/>
<path d="M169.271 59.4515C169.271 85.7675 131.379 107.1 84.6353 107.1C37.8945 107.1 0 85.7647 0 59.4515C0 33.1356 37.8917 11.8033 84.6353 11.8033C131.379 11.8033 169.271 33.1356 169.271 59.4515Z" fill="#F9EACD"/>
<path d="M84.6687 186.218C47.2481 186.218 16.3488 169.961 13.4688 149.31L14.4362 156.215C17.4305 176.51 47.803 192.456 84.6213 192.456C121.442 192.456 151.784 176.507 154.779 156.215L155.871 149.31C152.989 169.959 122.089 186.218 84.6687 186.218Z" fill="white"/>
<path d="M84.668 171.888C47.2475 171.888 14.8175 155.632 11.9375 134.98L12.9049 141.886C15.8992 162.18 47.8023 178.127 84.6206 178.127C121.442 178.127 153.353 162.177 156.347 141.886L157.44 134.98C154.555 155.632 122.089 171.888 84.668 171.888Z" fill="white"/>
<path d="M84.6629 156.1C47.2424 156.1 11.8488 139.844 8.96875 119.192L9.93619 126.098C12.9305 146.392 47.7944 162.339 84.6127 162.339C121.434 162.339 156.133 146.389 159.128 126.098L160.221 119.192C157.338 139.841 122.083 156.1 84.6629 156.1Z" fill="white"/>
<path d="M84.6699 139.367C47.2493 139.367 9.29909 123.111 6.42188 102.459L7.38931 109.364C10.3836 129.659 47.8041 145.606 84.6225 145.606C121.444 145.606 158.697 129.656 161.691 109.364L162.784 102.459C159.901 123.108 122.09 139.367 84.6699 139.367Z" fill="white"/>
<path d="M82.1074 121.471C44.6869 121.471 6.73938 105.212 3.85938 84.5626L4.78223 91.4679C7.77654 111.76 45.2389 127.71 82.06 127.71C118.881 127.71 161.362 111.76 164.356 91.4679L165.449 84.5626C162.566 105.212 119.528 121.471 82.1074 121.471Z" fill="white"/>
<path d="M12.906 56.7324C12.906 56.7324 13.695 52.326 15.2814 50.5829C16.8705 48.8398 23.3052 45.3398 39.392 46.6952C42.9439 43.5131 45.6288 39.5222 51.899 36.4879C58.4563 33.3113 71.9 33.752 74.1945 33.3113C87.8056 30.7009 97.2012 43.1561 97.2291 43.092C97.2569 43.0278 106.77 35.7042 125.377 44.6119C128.343 46.0314 141.843 49.5092 144.895 49.6905C147.948 49.8717 152.629 51.7487 153.984 52.7359C155.339 53.7204 155.861 57.3041 155.861 57.3041C155.861 57.3041 156.942 59.3707 158.231 60.7289C159.103 61.6492 160.871 66.3039 161.925 69.2266C163.176 66.0808 163.857 62.8122 163.857 59.4516C163.857 34.8173 128.388 14.8489 84.6329 14.8489C40.878 14.8489 5.40625 34.8201 5.40625 59.4516C5.40625 60.1795 5.4425 60.9046 5.50384 61.6241C6.86996 60.305 8.31973 58.9468 8.96655 58.4671C10.3661 57.4408 12.906 56.7324 12.906 56.7324Z" fill="#D6BD94"/>
<path d="M84.6391 104.057C122.428 104.057 154.016 89.156 161.931 69.2266C160.877 66.3066 159.109 61.6492 158.237 60.7288C156.949 59.3706 155.867 57.3041 155.867 57.3041C155.867 57.3041 155.343 53.7231 153.991 52.7359C152.636 51.7486 147.955 49.8717 144.902 49.6904C141.849 49.5091 128.347 46.0314 125.383 44.6118C106.773 35.7041 97.2631 43.0278 97.2352 43.0919C97.2073 43.156 87.8118 30.7009 74.2008 33.3113C71.9062 33.7519 58.4626 33.3113 51.9052 36.4878C45.6378 39.5249 42.9501 43.513 39.3982 46.6951C23.3114 45.337 16.8739 48.8398 15.2875 50.5828C13.6984 52.3259 12.9122 56.7323 12.9122 56.7323C12.9122 56.7323 10.3723 57.4407 8.97829 58.467C8.33147 58.9439 6.88175 60.3049 5.51562 61.6241C7.52577 85.2487 42.1806 104.057 84.6391 104.057Z" fill="#AA5318"/>
<path d="M106.766 62.9543C106.766 62.9543 121.539 52.1697 127.171 49.6904C132.803 47.2138 146.999 44.6146 150.936 46.0286C154.873 47.4453 161.087 51.1629 161.923 56.0825C162.35 58.5925 163.139 65.3472 163.027 65.7962C162.913 66.2452 161.087 75.7665 150.094 84.5599C140.852 91.9532 112.779 73.2175 112.216 71.6027C111.659 69.9907 106.766 62.9543 106.766 62.9543Z" fill="#C6692A"/>
<path d="M123.656 60.7288C123.656 60.7288 127.507 57.7531 130.618 58.4671C133.729 59.181 135.037 60.7288 135.037 60.7288C135.037 60.7288 134.633 61.493 131.741 61.5599C128.85 61.6241 123.656 60.7288 123.656 60.7288Z" fill="#BF6122"/>
<path d="M142.097 56.7128C142.097 56.7128 141.573 59.312 143.491 60.7288C145.409 62.1455 148.76 65.9551 148.76 65.9551C148.76 65.9551 149.7 62.4802 146.596 59.959C143.491 57.4407 142.097 56.7128 142.097 56.7128Z" fill="#BF6122"/>
<path d="M152.728 52.3844C152.728 52.3844 150.637 54.5541 150.113 56.0825C149.589 57.6136 150.938 61.3312 150.938 61.3312C150.938 61.3312 152.377 59.6048 152.726 57.3012C153.077 55.0004 152.728 52.3844 152.728 52.3844Z" fill="#BF6122"/>
<path d="M13.4609 78.1175C13.4609 78.1175 33.9974 71.427 43.9645 75.7665C53.9316 80.106 66.2907 89.8894 71.9587 94.2317C77.624 98.574 84.633 104.054 84.633 104.054C84.633 104.054 63.7844 105.061 42.9441 97.386C18.4041 88.35 13.4609 78.1175 13.4609 78.1175Z" fill="#D37433"/>
<path d="M54.3516 94.2345C54.3516 94.2345 56.9862 92.0982 60.3374 92.2014C63.6858 92.3046 66.1253 94.2345 66.1253 94.2345C66.1253 94.2345 63.064 96.7249 60.237 96.0807C57.4128 95.4393 54.3516 94.2345 54.3516 94.2345Z" fill="#BF6122"/>
<path d="M40.8203 89.3986C40.8203 89.3986 42.0135 93.7939 44.5701 95.2273C47.1267 96.658 50.7874 97.531 50.7874 97.531C50.7874 97.531 48.1388 93.6656 45.8052 92.1986C43.4689 90.7317 40.8203 89.3986 40.8203 89.3986Z" fill="#BF6122"/>
<path d="M76.1081 95.2273C76.1081 95.2273 71.9262 95.6122 70.3314 97.5309C68.7367 99.4497 67.4375 101.541 67.4375 101.541C67.4375 101.541 72.6008 101.366 74.1956 99.274C75.7903 97.1823 76.1081 95.2273 76.1081 95.2273Z" fill="#BF6122"/>
<path d="M30.1094 82.365C30.1094 82.365 30.2265 85.5387 31.969 88.1352C33.7115 90.7317 37.0376 93.0241 37.0376 93.0241C37.0376 93.0241 38.8888 88.8352 36.4744 86.1244C34.06 83.4108 30.1094 82.365 30.1094 82.365Z" fill="#BF6122"/>
<path d="M75.0165 27.0168C62.8663 22.853 58.2048 15.6493 53.2031 5.50887C53.5628 5.12121 53.8918 4.72798 54.2988 4.35148C56.8443 1.99486 63.8673 0.0538024 67.7649 0.00360243C72.5658 -0.0577531 76.3547 0.633892 80.1799 4.45746C83.7429 8.01608 84.9473 9.87069 88.2149 15.8445C90.7464 20.474 92.1292 24.1805 95.1932 27.6331C88.5968 30.4081 82.6416 29.6327 75.0165 27.0168Z" fill="#D37433"/>
<path d="M104.732 38.3174C104.732 38.3174 108.223 49.7714 104.732 50.4937C101.242 51.216 88.8214 47.3004 82.5205 45.9617C72.9465 43.9258 64.8251 43.2928 58.4601 39.9489C44.0656 32.3826 47.9772 15.8445 47.9772 15.8445C47.9772 15.8445 48.6825 10.4062 53.2047 5.50891C58.2063 15.6465 62.8679 22.8502 75.018 27.0168C82.6432 29.63 88.5955 30.4081 95.1947 27.6332C95.6213 28.1129 96.0757 28.587 96.5748 29.0611C99.176 31.5209 104.732 38.3174 104.732 38.3174Z" fill="#C6692A"/>
<path d="M65.4858 5.67615C65.4858 5.67615 67.8529 7.30765 69.0852 10.593C70.3175 13.8783 70.0582 16.1456 70.0582 16.1456C70.0582 16.1456 65.9988 12.5424 65.4858 10.7686C64.9728 8.99492 65.4858 5.67615 65.4858 5.67615Z" fill="#BF6122"/>
<path d="M59.8613 12.6596C59.8613 12.6596 55.526 11.4381 54.2965 12.6596C53.067 13.8811 50.8672 15.4485 50.8672 15.4485C50.8672 15.4485 52.3895 16.4943 54.2965 15.4485C56.2034 14.4027 59.8613 12.6596 59.8613 12.6596Z" fill="#BF6122"/>
<path d="M64.2229 1.72991C64.2229 1.72991 63.9135 3.07416 61.8894 4.81722C59.8625 6.56028 57.0745 7.87384 57.0745 7.87384C57.0745 7.87384 56.8208 5.21603 58.6441 3.27496C60.4675 1.33389 64.2229 1.72991 64.2229 1.72991Z" fill="#BF6122"/>
<path d="M73.5051 11.0336C73.5051 11.0336 73.1259 7.18214 74.5896 5.3582C76.0533 3.53427 79.7028 1.87488 79.7028 1.87488C79.7028 1.87488 78.2754 4.28727 77.1462 6.20603C75.3842 9.20408 73.5051 11.0336 73.5051 11.0336Z" fill="#BF6122"/>
<path d="M76.1094 12.5452C76.1094 12.5452 80.8378 13.4153 81.769 14.6926C82.7002 15.9699 83.3025 19.7544 83.3025 19.7544C83.3025 19.7544 80.2635 17.0269 78.6437 15.864C77.021 14.6982 76.1094 12.5452 76.1094 12.5452Z" fill="#BF6122"/>
<path d="M71.9614 33.2472C71.9614 33.2472 68.4291 36.5101 66.8511 36.4878C65.2731 36.4655 61.8828 34.6779 61.8828 34.6779C61.8828 34.6779 65.8863 33.8802 67.7906 33.2834C69.692 32.6866 71.9614 33.2472 71.9614 33.2472Z" fill="#BF6122"/>
<path d="M85.2812 12.3584C85.2812 12.3584 90.1213 15.3453 89.7226 17.1441C89.3239 18.9457 87.5144 21.1908 87.5144 21.1908C87.5144 21.1908 87.1604 18.7868 86.6697 17.1441C86.1735 15.5043 85.2812 12.3584 85.2812 12.3584Z" fill="#BF6122"/>
<path d="M86.4219 25.9152C86.4219 25.9152 91.2619 28.902 90.8632 30.7037C90.4645 32.5053 88.655 34.7504 88.655 34.7504C88.655 34.7504 88.301 32.3463 87.8103 30.7037C87.3169 29.061 86.4219 25.9152 86.4219 25.9152Z" fill="#BF6122"/>
<path d="M62.6562 19.3892C62.6562 19.3892 66.8132 19.7266 69.091 22.3482C71.3688 24.9725 71.1903 26.5371 71.1903 26.5371C71.1903 26.5371 68.0566 24.9669 66.4898 23.5753C64.9229 22.1808 62.6562 19.3892 62.6562 19.3892Z" fill="#BF6122"/>
<path d="M78.3531 19.3892C78.3531 19.3892 78.3782 23.4609 77.5055 25.3825C76.6329 27.304 74.7566 29.061 74.7566 29.061C74.7566 29.061 73.7167 25.3853 75.002 23.2936C76.2872 21.2019 78.3531 19.3892 78.3531 19.3892Z" fill="#BF6122"/>
<path d="M79.9156 32.7034C79.9156 32.7034 79.9408 36.7751 79.0681 38.6967C78.1955 40.6182 76.3191 42.3752 76.3191 42.3752C76.3191 42.3752 75.2792 38.6995 76.5645 36.6078C77.8497 34.5162 79.9156 32.7034 79.9156 32.7034Z" fill="#BF6122"/>
<path d="M32.4644 12.6233C28.6337 13.4488 27.2007 15.362 25.0344 17.4899C21.6135 20.8505 18.6638 24.5068 17.3395 29.7443C16.8962 31.5013 17.8999 34.0615 17.9194 35.8882C17.9473 38.8584 17.6741 41.1564 18.6164 43.8589C19.9184 47.5904 22.9378 51.4725 26.8772 53.4164C35.4197 57.6304 51.6765 65.1799 51.6765 65.1799C51.6765 65.1799 56.2349 56.0463 61.9726 47.6127C64.8498 43.382 64.8498 40.1078 63.7486 34.9428C63.4112 33.3559 63.8935 31.2252 62.0172 28.8156C60.8602 27.3319 59.5387 24.3032 58.6911 22.5796C57.3334 19.8214 55.8167 17.4425 51.1997 15.666C44.687 13.1644 43.9677 10.144 32.4644 12.6233Z" fill="#D37433"/>
<path d="M45.2171 11.5356C45.2171 11.5356 43.3575 13.3317 45.2171 17.4899C47.0767 21.6482 50.7931 25.5359 50.7931 25.5359C50.7931 25.5359 50.3275 21.2717 49.3991 18.6696C48.4707 16.0704 45.2171 11.5356 45.2171 11.5356Z" fill="#BF6122"/>
<path d="M31.2266 19.7908C31.2266 19.7908 32.0992 22.1139 34.8259 22.8111C37.5525 23.5084 41.7345 22.8111 41.7345 22.8111C41.7345 22.8111 36.0554 18.1621 31.2266 19.7908Z" fill="#BF6122"/>
<path d="M23.6302 21.7402C23.6302 21.7402 20.8896 25.7088 21.7427 28.8128C22.5931 31.9169 24.0819 35.8855 24.0819 35.8855C24.0819 35.8855 25.2361 30.0288 25.0019 28.2774C24.7705 26.5287 23.6302 21.7402 23.6302 21.7402Z" fill="#BF6122"/>
<path d="M30.1172 32.5305C30.1172 32.5305 35.8103 32.1958 38.4227 31.2225C41.0378 30.2492 43.9708 26.9611 43.9708 26.9611C43.9708 26.9611 38.6624 27.2427 36.4794 28.283C34.2992 29.3177 30.1172 32.5305 30.1172 32.5305Z" fill="#BF6122"/>
<path d="M21.0625 40.7102C21.0625 40.7102 22.6182 42.8409 24.8681 44.1071C27.1181 45.3733 31.222 46.6952 31.222 46.6952C31.222 46.6952 30.6644 41.5636 27.5112 40.7102C24.3607 39.8568 21.0625 40.7102 21.0625 40.7102Z" fill="#BF6122"/>
<path d="M56.7853 28.2802C56.7853 28.2802 53.9499 31.3647 53.54 34.4101C53.1302 37.4556 51.9062 41.2122 51.9062 41.2122C51.9062 41.2122 56.7323 39.4357 56.7853 35.8882C56.8382 32.3408 56.7853 28.2802 56.7853 28.2802Z" fill="#BF6122"/>
<path d="M43.9702 33.3141C43.9702 33.3141 42.9442 35.5508 41.7342 38.3592C40.803 40.5178 41.7342 45.3426 41.7342 45.3426C41.7342 45.3426 43.8001 40.8915 44.394 38.3592C44.9878 35.8269 43.9702 33.3141 43.9702 33.3141Z" fill="#BF6122"/>
<path d="M117.411 95.2274C119.357 94.2234 121.29 93.1915 123.211 92.1094C126.42 90.2994 129.748 88.6484 132.807 86.6125C130.186 84.9169 127.872 83.0344 125.697 81.6873C122.979 80.0028 122.257 75.1753 118.811 69.4692C117.417 67.1628 116.798 64.2205 114.317 62.4384C111.225 60.2213 110.455 57.2846 108.122 54.8555C104.486 51.0709 101.063 50.3319 96.889 48.6892C93.9337 47.5262 91.681 45.6298 88.0092 45.3481C84.4517 45.0748 81.134 44.2521 78.6137 44.7959C73.8155 45.8306 71.0498 49.2777 67.8855 53.514C66.4134 62.1735 68.588 70.2111 74.1334 75.2562C84.3068 84.5153 103.396 87.2735 113.79 92.8819C115.092 93.5819 116.282 94.3852 117.411 95.2274Z" fill="#D37433"/>
<path d="M117.411 95.2274C116.282 94.3852 115.092 93.5848 113.79 92.882C103.399 87.2735 84.3094 84.5153 74.1332 75.2562C68.5879 70.2083 66.4104 62.1707 67.8853 53.514C64.5509 57.979 62.6076 63.7799 63.1652 70.08C64.5619 85.7982 94.2792 91.8836 100.814 94.6613C104.277 96.1338 107.19 97.0625 110.31 98.6048C112.722 97.5673 115.081 96.4295 117.411 95.2274Z" fill="#BF6122"/>
<path d="M123.046 92.1987C123.102 92.168 123.158 92.1373 123.214 92.1067C123.841 91.7525 124.477 91.4039 125.112 91.058C125.176 90.0959 125.148 88.9385 124.886 87.5496C124.078 83.2547 120.484 80.0503 120.484 80.0503C120.484 80.0503 118.594 83.2296 120.526 87.4855C121.435 89.4935 122.338 91.072 123.046 92.1987Z" fill="#BF6122"/>
<path d="M114.83 85.8819C114.83 85.8819 110.915 83.5866 108.253 83.8209C105.59 84.0551 102.68 84.6046 102.68 84.6046C102.68 84.6046 106.878 87.9568 108.696 87.5468C112.63 86.66 114.83 85.8819 114.83 85.8819Z" fill="#BF6122"/>
<path d="M85.6476 65.7963C85.6476 65.7963 83.8883 69.0816 85.55 72.5231C87.2116 75.9646 91.508 77.4092 91.508 77.4092C91.508 77.4092 91.3741 73.1729 89.8519 70.4509C88.3268 67.7345 85.6476 65.7963 85.6476 65.7963Z" fill="#BF6122"/>
<path d="M108.751 65.2106C108.751 65.2106 108.648 69.5222 110.382 70.978C112.116 72.4338 113.625 73.4545 113.625 73.4545C113.625 73.4545 114.414 70.6154 113.025 68.7999C111.631 66.9871 108.751 65.2106 108.751 65.2106Z" fill="#BF6122"/>
<path d="M103.47 70.582C103.47 70.582 100.766 73.3876 100.629 74.9885C100.492 76.5893 101.111 78.1176 101.111 78.1176C101.111 78.1176 103.635 76.8989 104.014 74.8909C104.393 72.8829 103.47 70.582 103.47 70.582Z" fill="#BF6122"/>
<path d="M77.1685 52.7303C77.1685 52.7303 72.9558 55.1037 72.6631 58.3695C72.3703 61.638 73.5747 64.2066 73.5747 64.2066C73.5747 64.2066 75.1248 62.1735 75.8218 59.3595C76.5188 56.5455 77.1685 52.7303 77.1685 52.7303Z" fill="#BF6122"/>
<path d="M89.1719 50.0251C89.1719 50.0251 92.2359 49.2302 96.0052 51.3247C99.7746 53.4191 101.863 56.0825 101.863 56.0825C101.863 56.0825 97.0313 55.4829 95.1717 53.9853C93.3121 52.4904 89.1719 50.0251 89.1719 50.0251Z" fill="#BF6122"/>
<path d="M85.935 52.7358C85.935 52.7358 84.962 54.094 86.5539 56.5929C88.1459 59.0917 90.92 60.7316 90.92 60.7316C90.92 60.7316 90.616 58.2216 89.5649 56.6152C88.5111 55.0032 85.935 52.7358 85.935 52.7358Z" fill="#BF6122"/>
<path d="M26.7408 76.1849C39.2171 81.9774 58.2564 78.9013 69.8489 81.1464C80.4963 83.2073 87.3854 91.9533 97.4696 81.9998C98.5318 80.9511 99.5746 80.2985 100.648 79.883C101.303 77.3591 99.6888 75.1279 97.6006 73.0446C95.3172 70.7661 92.2589 69.9545 87.9012 69.4079C84.3549 68.9617 80.789 69.2322 78.2909 67.6955C76.1525 66.382 72.9881 60.7261 67.9781 55.6977C66.1659 53.8794 61.602 51.7236 59.3828 49.9833C56.04 47.3646 54.1301 45.7107 49.8561 44.4251C44.3777 42.7768 40.4299 42.5677 32.0827 42.5509C27.8979 42.5426 25.1879 44.5784 21.912 47.6797C19.1017 50.3403 15.5135 53.7902 14.2812 57.3042C15.4634 66.0055 19.9409 73.0251 26.7408 76.1849Z" fill="#E2803D"/>
<path d="M14.7312 74.5227C20.7589 89.103 50.9362 86.0269 58.0038 86.7241C65.0714 87.4213 69.6492 86.7966 79.1006 90.9799C87.3642 94.6389 93.6818 96.8338 97.2309 88.4671C98.8535 84.6436 100.103 82.0109 100.652 79.8857C99.5812 80.3013 98.5357 80.9539 97.4735 82.0025C87.3893 91.956 80.4974 83.2101 69.8528 81.1491C58.2603 78.904 39.2182 81.9802 26.7447 76.1877C19.9448 73.0306 15.4672 66.011 14.2851 57.3069C12.4367 62.5612 12.314 68.68 14.7312 74.5227Z" fill="#BF6122"/>
<path d="M72.4038 66.9008C72.4038 66.9008 71.5506 70.4984 74.6648 73.9845C77.779 77.4706 80.3412 79.1886 80.3412 79.1886C80.3412 79.1886 80.9016 76.5949 78.8468 72.7379C76.7921 68.8864 72.4038 66.9008 72.4038 66.9008Z" fill="#BF6122"/>
<path d="M68.7557 74.1574C68.7557 74.1574 64.3367 73.1367 61.8665 74.1574C59.3963 75.1781 56.7812 76.5726 56.7812 76.5726C56.7812 76.5726 61.7913 78.5164 63.4027 77.5794C66.8877 75.5574 68.7557 74.1574 68.7557 74.1574Z" fill="#BF6122"/>
<path d="M34.9046 63.7158C34.9046 63.7158 34.2076 67.3776 36.8227 70.1665C39.4378 72.9554 43.9684 73.0474 43.9684 73.0474C43.9684 73.0474 42.5743 69.0454 40.3077 66.9035C38.0411 64.7617 34.9046 63.7158 34.9046 63.7158Z" fill="#BF6122"/>
<path d="M56.7812 56.2472C56.7812 56.2472 57.9689 60.3943 60.0599 61.2644C62.1509 62.1345 63.8934 62.6588 63.8934 62.6588C63.8934 62.6588 63.7986 59.711 61.9278 58.3974C60.0599 57.0811 56.7812 56.2472 56.7812 56.2472Z" fill="#BF6122"/>
<path d="M53.3385 62.9545C53.3385 62.9545 51.596 66.4406 51.9445 68.0107C52.293 69.5809 53.3385 70.8526 53.3385 70.8526C53.3385 70.8526 55.3822 68.9338 55.1452 66.9035C54.9082 64.8704 53.3385 62.9545 53.3385 62.9545Z" fill="#BF6122"/>
<path d="M91.9154 75.0443C91.9154 75.0443 89.9889 75.7666 88.7789 77.8332C87.9815 79.197 87.9062 82.3651 87.9062 82.3651C87.9062 82.3651 90.5214 80.7197 90.8699 79.1914C91.2184 77.6603 91.9154 75.0443 91.9154 75.0443Z" fill="#BF6122"/>
<path d="M22.9147 53.7791C22.9147 53.7791 19.6025 57.3042 20.2995 60.5086C20.9965 63.7131 22.9147 65.8047 22.9147 65.8047C22.9147 65.8047 23.7845 63.4035 23.6117 60.5086C23.436 57.6138 22.9147 53.7791 22.9147 53.7791Z" fill="#BF6122"/>
<path d="M33.5547 47.61C33.5547 47.61 36.2423 45.9367 40.4662 46.8068C44.69 47.6798 47.4779 49.5957 47.4779 49.5957C47.4779 49.5957 42.6882 50.4686 40.4662 49.5957C38.2413 48.7256 33.5547 47.61 33.5547 47.61Z" fill="#BF6122"/>
<path d="M31.279 51.1658C31.279 51.1658 30.7548 52.7527 33.0215 54.6603C35.2853 56.5679 38.4218 57.3041 38.4218 57.3041C38.4218 57.3041 37.3819 55.0005 35.8987 53.779C34.4155 52.5602 31.279 51.1658 31.279 51.1658Z" fill="#BF6122"/>
<path d="M144.398 43.5103C131.922 49.3028 112.883 46.2266 101.29 48.4717C90.643 50.5327 83.7539 59.2786 73.6697 49.3251C72.6074 48.2793 71.5648 47.6239 70.4914 47.2083C69.839 44.6844 71.3222 43.1087 73.4076 41.0281C75.6129 38.8277 79.0115 38.2142 83.2353 37.2715C86.9517 36.4432 90.3085 34.9874 93.2721 34.226C96.3696 33.4312 98.4996 29.0415 103.496 24.6267C105.514 22.8418 106.984 20.2175 109.886 19.2609C113.499 18.07 115.11 15.4987 118.063 13.8783C122.663 11.3516 126.151 11.6723 130.626 11.3516C133.793 11.1257 136.508 9.9906 140.099 10.8189C143.576 11.6193 146.989 11.8285 149.23 13.1002C153.499 15.521 155.107 19.6401 156.861 24.6267C155.676 33.3308 151.198 40.3504 144.398 43.5103Z" fill="#E2803D"/>
<path d="M156.416 41.848C150.388 56.4283 120.208 53.3522 113.14 54.0494C106.073 54.7466 101.495 54.1219 92.0435 58.3053C83.7798 61.9643 77.4622 64.1591 73.913 55.7925C72.2904 51.9689 71.0414 49.3362 70.4922 47.211C71.5656 47.6266 72.6083 48.2792 73.6705 49.3278C83.7547 59.2814 90.6466 50.5354 101.291 48.4744C112.884 46.2294 131.926 49.3055 144.399 43.513C151.199 40.356 155.677 33.3363 156.859 24.6322C158.71 29.8865 158.833 36.0053 156.416 41.848Z" fill="#BF6122"/>
<path d="M98.7417 34.2289C98.7417 34.2289 99.5948 37.8266 96.4806 41.3127C93.3664 44.7988 90.8042 46.5167 90.8042 46.5167C90.8042 46.5167 90.2438 43.9231 92.2986 40.066C94.3533 36.2118 98.7417 34.2289 98.7417 34.2289Z" fill="#BF6122"/>
<path d="M102.391 41.4827C102.391 41.4827 106.81 40.462 109.28 41.4827C111.75 42.5034 114.365 43.8979 114.365 43.8979C114.365 43.8979 109.355 45.8418 107.744 44.9047C104.259 42.8827 102.391 41.4827 102.391 41.4827Z" fill="#BF6122"/>
<path d="M136.236 31.0411C136.236 31.0411 136.933 34.7029 134.317 37.4918C131.702 40.2807 127.172 40.3728 127.172 40.3728C127.172 40.3728 128.566 36.3707 130.832 34.2288C133.099 32.087 136.236 31.0411 136.236 31.0411Z" fill="#BF6122"/>
<path d="M114.362 23.5725C114.362 23.5725 113.174 27.7196 111.083 28.5897C108.992 29.4599 107.25 29.9842 107.25 29.9842C107.25 29.9842 107.345 27.0363 109.216 25.7228C111.083 24.4064 114.362 23.5725 114.362 23.5725Z" fill="#BF6122"/>
<path d="M117.802 30.2798C117.802 30.2798 119.545 33.7659 119.196 35.3361C118.848 36.9062 117.802 38.1779 117.802 38.1779C117.802 38.1779 115.759 36.2592 115.996 34.2289C116.233 32.1958 117.802 30.2798 117.802 30.2798Z" fill="#BF6122"/>
<path d="M79.2266 42.3696C79.2266 42.3696 81.1531 43.092 82.3631 45.1585C83.1604 46.5195 83.2357 49.6905 83.2357 49.6905C83.2357 49.6905 80.6206 48.045 80.2721 46.5139C79.9236 44.9856 79.2266 42.3696 79.2266 42.3696Z" fill="#BF6122"/>
<path d="M148.228 21.1044C148.228 21.1044 151.54 24.6267 150.843 27.834C150.146 31.0412 148.228 33.1329 148.228 33.1329C148.228 33.1329 147.356 30.7288 147.531 27.834C147.707 24.9391 148.228 21.1044 148.228 21.1044Z" fill="#BF6122"/>
<path d="M137.587 14.9354C137.587 14.9354 134.9 13.262 130.676 14.1321C126.452 15.0051 123.664 16.921 123.664 16.921C123.664 16.921 128.454 17.794 130.676 16.921C132.901 16.0509 137.587 14.9354 137.587 14.9354Z" fill="#BF6122"/>
<path d="M139.864 18.4911C139.864 18.4911 140.389 20.078 138.122 21.9856C135.855 23.8932 132.719 24.6294 132.719 24.6294C132.719 24.6294 133.759 22.3258 135.242 21.1071C136.728 19.8855 139.864 18.4911 139.864 18.4911Z" fill="#BF6122"/>
<path d="M126.95 92.1904C139.1 88.0265 143.762 80.8228 148.763 70.6824C148.407 70.2948 148.075 69.9015 147.668 69.5223C145.122 67.1656 138.099 65.2246 134.202 65.1744C129.401 65.113 125.612 65.8047 121.787 69.6282C118.224 73.1869 117.019 75.0415 113.752 81.0153C111.22 85.6448 109.837 89.3512 106.773 92.8039C113.37 95.5816 119.322 94.8063 126.95 92.1904Z" fill="#ED9051"/>
<path d="M97.2344 103.491C97.2344 103.491 116.692 101.974 133.512 94.5525C150.427 87.0894 153.992 81.018 153.992 81.018C153.992 81.018 153.287 75.5825 148.765 70.6824C143.766 80.82 139.102 88.0237 126.952 92.1903C119.327 94.8035 113.371 95.5816 106.775 92.8066C106.348 93.2863 105.894 93.7604 105.395 94.2345C102.791 96.6943 97.2344 103.491 97.2344 103.491Z" fill="#E08546"/>
<path d="M136.478 70.8497C136.478 70.8497 134.111 72.4812 132.879 75.7665C131.646 79.0519 131.906 81.3192 131.906 81.3192C131.906 81.3192 135.965 77.716 136.478 75.9422C136.991 74.1741 136.478 70.8497 136.478 70.8497Z" fill="#D37433"/>
<path d="M142.102 77.8332C142.102 77.8332 146.437 76.6117 147.666 77.8332C148.896 79.0547 151.096 80.6221 151.096 80.6221C151.096 80.6221 149.571 81.6679 147.666 80.6221C145.762 79.5762 142.102 77.8332 142.102 77.8332Z" fill="#D37433"/>
<path d="M137.742 66.9007C137.742 66.9007 138.052 68.2449 140.076 69.988C142.103 71.731 144.891 73.0446 144.891 73.0446C144.891 73.0446 145.144 70.3868 143.321 68.4457C141.5 66.5047 137.742 66.9007 137.742 66.9007Z" fill="#D37433"/>
<path d="M128.463 76.2072C128.463 76.2072 128.842 72.3529 127.379 70.5318C125.915 68.7106 122.266 67.0513 122.266 67.0513C122.266 67.0513 123.693 69.4636 124.822 71.3824C126.587 74.3749 128.463 76.2072 128.463 76.2072Z" fill="#D37433"/>
<path d="M125.857 77.7188C125.857 77.7188 121.129 78.5889 120.198 79.8662C119.266 81.1435 118.664 84.928 118.664 84.928C118.664 84.928 121.703 82.2005 123.323 81.0375C124.945 79.8718 125.857 77.7188 125.857 77.7188Z" fill="#D37433"/>
<path d="M116.691 77.532C116.691 77.532 111.851 80.5189 112.25 82.3205C112.649 84.1221 114.458 86.3672 114.458 86.3672C114.458 86.3672 114.812 83.9632 115.303 82.3205C115.796 80.6779 116.691 77.532 116.691 77.532Z" fill="#D37433"/>
<path d="M139.311 84.5627C139.311 84.5627 135.154 84.9002 132.876 87.5217C130.598 90.1461 130.777 91.7107 130.777 91.7107C130.777 91.7107 133.91 90.1405 135.477 88.7489C137.044 87.3572 139.311 84.5627 139.311 84.5627Z" fill="#D37433"/>
<path d="M123.617 84.5627C123.617 84.5627 123.592 88.6345 124.465 90.5561C125.338 92.4776 127.214 94.2346 127.214 94.2346C127.214 94.2346 128.254 90.5588 126.968 88.4672C125.683 86.3755 123.617 84.5627 123.617 84.5627Z" fill="#D37433"/>
<path d="M108.812 93.8357C108.812 93.8357 113.931 92.4413 115.615 93.3114C117.299 94.1843 118.693 95.9413 118.693 95.9413C118.693 95.9413 115.888 96.2537 114.539 95.9413C110.85 95.0851 108.812 93.8357 108.812 93.8357Z" fill="#D37433"/>
</svg>
