<svg width="380" height="242" viewBox="0 0 380 242" fill="none" xmlns="http://www.w3.org/2000/svg">
<path d="M278.16 35.3926C279.826 40.2203 280.469 44.0476 285.408 46.5171C286.885 47.2555 288.386 47.9245 289.896 48.5875C291.75 51.0471 292.161 53.59 292.814 56.522C290.939 55.6386 289.611 54.4316 287.55 55.0689C284.366 56.0555 281.847 58.8882 279.171 60.7979C279.217 52.2599 276.211 43.4163 272.928 35.6308L278.16 35.3926Z" fill="#D34135"/>
<path d="M272.929 35.631C268.964 34.2613 264.029 35.1863 259.875 35.3253C257.076 35.4206 253.804 35.7104 251.918 33.2509C250.249 31.0772 250.412 30.2871 251.039 27.8871C255.468 23.9308 261.87 23.7462 267.559 23.6331C273.643 23.51 287.418 22.9482 291.664 27.6787C292.686 28.8162 292.283 28.6534 292.029 30.3963C288.379 34.8191 283.432 34.698 278.161 35.3928L272.929 35.631Z" fill="#173158"/>
<path d="M127.389 12.7144C118.72 12.5992 103.574 13.9948 97.1737 7.32483C96.0224 6.12583 96.3181 5.35957 96.2148 3.81318C102.581 -1.03641 139.071 -0.397207 147.617 1.04993C151.002 1.62362 152.907 2.57845 155.089 5.19481C154.954 7.63052 155.051 8.55757 152.796 10.0841C149.251 12.4861 142.317 12.3809 138.102 12.7779L127.389 12.7144Z" fill="#173158"/>
<path d="M127.387 12.7129L138.1 12.7744C140.554 30.1281 144.701 56.0674 150.382 72.0236L151.635 71.7894C151.923 74.4197 151.885 77.0817 153.523 79.2712C157.366 90.3183 174.326 142.342 179.035 148.95C179.396 149.454 180.851 150.231 181.236 150.387C182.783 151.019 184.897 151.197 186.555 151.487C181.993 151.654 177.729 151.701 173.308 152.958L171.517 153.454C171.101 153.573 170.688 153.702 170.273 153.826C164.22 130.024 155.067 105.723 145.743 82.9953C136.175 89.1372 128.121 97.4309 121.13 106.318L117.803 103.545C125.743 93.7545 135.037 84.5457 143.706 75.3805C137.195 55.0451 132.528 33.4591 127.387 12.7129Z" fill="#D34135"/>
<path d="M186.557 151.487C188.584 152.041 191.111 153.117 193.104 152.22C194.24 152.913 195.105 153.403 196.012 154.391L195.778 156.535C199.216 162.012 203.742 170.82 202.44 177.452C201.18 183.878 196.904 191.114 191.282 194.629C185.642 198.155 178.534 198.709 172.185 196.992C171.367 196.775 170.563 196.515 169.771 196.212C168.981 195.908 168.209 195.564 167.455 195.179C166.702 194.796 165.97 194.371 165.261 193.909C164.553 193.446 163.87 192.948 163.213 192.414C162.555 191.88 161.93 191.312 161.335 190.711C160.739 190.109 160.177 189.478 159.647 188.817C159.117 188.156 158.625 187.469 158.169 186.757C157.714 186.044 157.297 185.307 156.918 184.551C154.3 179.384 153.341 172.972 155.377 167.446C158.079 160.119 163.435 156.754 170.276 153.826C170.691 153.703 171.103 153.574 171.52 153.455L173.311 152.958C177.732 151.702 181.996 151.654 186.557 151.487Z" fill="url(#paint0_linear_562_80118)"/>
<path d="M279.169 60.7961C281.845 58.8865 284.364 56.0537 287.549 55.0671C289.609 54.4299 290.937 55.6369 292.813 56.5202C293.21 59.2974 293.933 62.3207 292.221 64.8021C291.423 65.9594 290.014 67.0214 288.94 67.9306C290.788 75.7797 291.86 83.8074 293.728 91.6128C291.666 92.8594 290.222 93.3736 287.844 93.7646L284.888 93.6138C283.91 86.0029 281.786 78.5945 280.908 71.0075C265.532 87.3667 249.417 102.823 233.566 118.694C221.649 130.624 209.663 144.543 196.01 154.39C195.102 153.401 194.237 152.911 193.102 152.218C200.178 142.463 210.358 133.643 218.91 125.088C237.407 106.918 255.771 88.6133 274.002 70.1757C233.322 69.0264 193.177 68.7723 153.523 79.2695C151.885 77.0799 151.923 74.4179 151.635 71.7876C169.01 62.5192 221.256 61.5723 242.39 61.4671C254.387 61.4075 267.31 62.3842 279.169 60.7961Z" fill="url(#paint1_linear_562_80118)"/>
<path d="M293.729 91.6145C314.108 89.9272 337.578 96.0909 353.26 109.494C354.195 110.282 355.11 111.094 356.006 111.926C356.901 112.76 357.776 113.615 358.628 114.493C359.482 115.37 360.313 116.267 361.121 117.187C361.929 118.104 362.713 119.041 363.476 119.999C364.238 120.956 364.976 121.931 365.689 122.926C366.402 123.92 367.09 124.93 367.753 125.957C368.416 126.985 369.054 128.029 369.665 129.089C370.277 130.147 370.862 131.221 371.42 132.311C371.978 133.399 372.508 134.501 373.012 135.616C373.514 136.73 373.991 137.857 374.439 138.995C374.886 140.134 375.305 141.284 375.696 142.443C376.087 143.602 376.448 144.77 376.78 145.947C377.113 147.124 377.417 148.309 377.691 149.502C377.965 150.693 378.209 151.89 378.423 153.095C378.638 154.3 378.822 155.509 378.975 156.722C379.13 157.935 379.255 159.152 379.348 160.372C380.76 180.749 373.28 201.696 359.748 216.908C345.965 232.4 327.313 241.001 306.636 241.92C286.881 242.798 267.125 236.451 252.509 222.943C240.513 211.856 232.775 197.105 229.295 181.238L232.949 179.143L233.642 180.926C234.283 182.528 234.764 183.39 236.177 184.45L237.305 187.544C240.652 196.809 245.307 205.242 251.772 212.723C263.593 226.409 279.859 234.049 297.83 235.232C299.019 235.31 300.209 235.359 301.4 235.377C302.591 235.395 303.782 235.385 304.973 235.346C306.164 235.304 307.353 235.234 308.54 235.133C309.727 235.034 310.91 234.905 312.091 234.744C313.272 234.585 314.448 234.397 315.619 234.178C316.79 233.962 317.955 233.714 319.113 233.438C320.272 233.162 321.423 232.858 322.567 232.525C323.71 232.191 324.846 231.83 325.971 231.439C327.097 231.048 328.21 230.631 329.316 230.184C330.422 229.738 331.513 229.265 332.595 228.765C333.677 228.265 334.745 227.739 335.799 227.185C336.853 226.631 337.894 226.051 338.92 225.446C339.946 224.84 340.957 224.209 341.951 223.552C342.946 222.897 343.922 222.216 344.883 221.511C345.844 220.807 346.787 220.078 347.71 219.326C348.633 218.573 349.538 217.799 350.424 217.003C351.275 216.241 352.107 215.457 352.921 214.653C353.733 213.849 354.527 213.027 355.299 212.183C356.071 211.342 356.822 210.48 357.552 209.601C358.283 208.721 358.991 207.824 359.676 206.909C360.361 205.994 361.024 205.065 361.665 204.118C362.306 203.171 362.922 202.208 363.515 201.23C364.109 200.253 364.677 199.262 365.22 198.256C365.764 197.25 366.282 196.231 366.777 195.201C367.271 194.171 367.74 193.128 368.182 192.074C368.625 191.02 369.04 189.954 369.431 188.88C369.822 187.806 370.185 186.725 370.523 185.631C370.858 184.539 371.168 183.439 371.452 182.332C371.736 181.224 371.99 180.11 372.218 178.989C372.446 177.869 372.647 176.743 372.819 175.614C372.992 174.484 373.137 173.351 373.254 172.213C373.371 171.076 373.459 169.937 373.52 168.795C374.322 151.116 368.331 133.413 356.117 120.48C340.883 104.347 318.795 98.3857 297.227 97.7028C292.629 95.0507 293.584 93.945 287.845 93.7664C290.224 93.3753 291.667 92.8612 293.729 91.6145Z" fill="url(#paint2_linear_562_80118)"/>
<path d="M153.523 79.2713C193.178 68.7741 233.322 69.0282 274.003 70.1775C255.772 88.6151 237.408 106.92 218.911 125.089C210.359 133.645 200.179 142.465 193.102 152.22C191.109 153.117 188.582 152.041 186.555 151.487C184.898 151.197 182.784 151.019 181.237 150.387C180.852 150.231 179.397 149.454 179.036 148.95C174.327 142.342 157.367 90.3183 153.523 79.2713Z" fill="#FEFFFE"/>
<path d="M284.891 93.6152L287.846 93.7661C293.585 93.9447 292.63 95.0504 297.228 97.7025C318.796 98.3854 340.884 104.347 356.118 120.48C368.332 133.412 374.323 151.116 373.521 168.795C373.46 169.936 373.372 171.076 373.255 172.213C373.138 173.351 372.993 174.484 372.82 175.614C372.648 176.743 372.447 177.869 372.219 178.988C371.991 180.11 371.737 181.224 371.453 182.331C371.169 183.439 370.859 184.539 370.524 185.63C370.186 186.724 369.823 187.806 369.432 188.88C369.041 189.954 368.626 191.02 368.183 192.074C367.741 193.128 367.272 194.17 366.778 195.201C366.283 196.231 365.765 197.249 365.221 198.256C364.678 199.262 364.11 200.253 363.516 201.229C362.923 202.208 362.307 203.171 361.666 204.118C361.025 205.065 360.362 205.994 359.677 206.909C358.992 207.824 358.284 208.721 357.553 209.601C356.823 210.48 356.072 211.341 355.3 212.183C354.528 213.027 353.734 213.849 352.922 214.653C352.108 215.457 351.276 216.241 350.425 217.003C349.539 217.799 348.634 218.573 347.711 219.326C346.788 220.078 345.845 220.806 344.884 221.511C343.923 222.216 342.947 222.897 341.952 223.552C340.958 224.209 339.947 224.84 338.921 225.446C337.895 226.051 336.854 226.631 335.8 227.185C334.746 227.738 333.678 228.264 332.596 228.765C331.514 229.265 330.423 229.737 329.317 230.184C328.211 230.631 327.098 231.048 325.972 231.439C324.847 231.83 323.711 232.191 322.568 232.524C321.424 232.858 320.273 233.162 319.114 233.438C317.956 233.714 316.791 233.962 315.62 234.178C314.449 234.396 313.273 234.585 312.092 234.744C310.911 234.905 309.728 235.034 308.541 235.133C307.354 235.234 306.165 235.304 304.974 235.345C303.783 235.385 302.592 235.395 301.401 235.377C300.21 235.359 299.02 235.31 297.831 235.232C279.86 234.049 263.594 226.408 251.773 212.723C245.308 205.241 240.653 196.809 237.306 187.544L236.178 184.449C234.765 183.389 234.284 182.528 233.643 180.926L232.95 179.143L229.296 181.237C227.835 166.339 228.518 151.386 234.697 137.53C244.349 115.892 263.269 101.923 284.891 93.6152Z" fill="#69C6DE"/>
<path d="M287.947 98.3855C290.645 97.7681 293.307 97.8931 296.054 97.917L295.973 99.4574C297.142 105.218 297.966 108.337 294.609 113.736L292.833 114.598C290.522 112.555 290.361 109.671 289.543 106.743L287.947 98.3855Z" fill="#23A0C1"/>
<path d="M287.947 98.3855C290.645 97.7681 293.307 97.8931 296.054 97.917L295.973 99.4574C295.765 102.449 296.12 103.412 294.063 105.691L289.543 106.743L287.947 98.3855Z" fill="#1087B3"/>
<path d="M275.242 126.535C280.753 123.871 286.244 121.517 291.975 119.367C292.536 127.254 293.644 135.824 291.804 143.577L288.618 146.361C283.187 140.231 278.811 133.912 275.242 126.535Z" fill="#FEFFFE"/>
<path d="M306.321 142.634C306.285 135.147 305.993 126.688 308.749 119.633C310.886 118.053 312.262 118.371 314.781 118.811C319.097 119.564 325.989 121.247 328.592 125.066C328.151 129.781 324.496 133.144 322.491 137.291L321.904 138.535C319.54 141.116 317.408 144.195 313.795 144.84C311.166 144.284 308.84 143.569 306.321 142.634Z" fill="#FEFFFE"/>
<path d="M268.291 133.056C274.982 137.887 280.62 144.504 286.835 149.998C285.142 153.042 284.094 155.807 283.129 159.148C275.419 159.529 267.469 157.994 259.852 156.907C258.693 156.641 257.752 156.204 256.67 155.724C256.618 155.321 256.523 154.922 256.517 154.517C256.406 147.39 263.772 138.239 268.291 133.056Z" fill="#FEFFFE"/>
<path d="M314.16 179.706L333.892 198.642C330.803 204.885 324.957 209.149 318.448 211.493C316.132 212.327 314.345 212.474 311.913 212.355C310.953 211.618 310.282 211.223 309.696 210.142C309.051 202.692 308.443 195.245 307.473 187.829L307.592 184.859C309.396 182.672 311.83 181.268 314.16 179.706Z" fill="#FEFFFE"/>
<path d="M284.891 93.6152L287.846 93.7661C293.585 93.9447 292.63 95.0504 297.228 97.7025L296.057 97.9169C293.309 97.8931 290.647 97.7681 287.95 98.3854C266.981 106.939 248.748 119.926 239.805 141.494C234.016 155.457 234.03 169.728 236.178 184.449C234.765 183.389 234.284 182.528 233.643 180.926L232.95 179.143L229.296 181.237C227.835 166.339 228.518 151.386 234.697 137.53C244.349 115.892 263.269 101.923 284.891 93.6152Z" fill="#283255"/>
<path d="M259.852 156.908C267.469 157.996 275.419 159.531 283.13 159.149L283.471 159.798L283.227 165.406C283.751 168.716 284.182 172.076 285.023 175.32C278.544 180.795 271.09 185.224 263.995 189.855C262.741 190.472 262.147 190.421 260.779 190.435C260.466 190.119 260.136 189.819 259.836 189.492C255.213 184.42 254.568 172.001 254.888 165.394C254.911 163.249 254.703 160.912 255.721 158.961C256.434 157.595 258.481 157.391 259.852 156.908Z" fill="#FEFFFE"/>
<path d="M259.85 156.908C267.467 157.996 275.418 159.531 283.128 159.149L283.469 159.798L283.225 165.406L254.886 165.394C254.91 163.249 254.701 160.912 255.719 158.961C256.432 157.595 258.479 157.391 259.85 156.908Z" fill="#18AECF"/>
<path d="M347.299 164.895L350.243 165.752C351.887 169.349 350.382 174.407 349.036 177.941C347.587 181.746 345.727 186.53 342.198 188.857C339.297 191.725 335.833 195.046 333.892 198.643L314.16 179.707C316.959 177.514 319.262 175.876 320.868 172.646L321.078 171.07L322.432 168.239C326.909 164.081 340.941 165.276 347.299 164.895Z" fill="#FEFFFE"/>
<path d="M314.16 179.706C316.959 177.513 319.262 175.875 320.868 172.646C321.771 177.134 325.908 180.302 329.555 182.74C333.453 185.346 337.793 187.28 342.198 188.856C339.297 191.724 335.833 195.045 333.892 198.642L314.16 179.706Z" fill="#23A0C1"/>
<path d="M337.245 131.974C343.828 139.207 350.932 147.922 350.841 158.266L350.523 163.199C349.366 164.003 348.663 164.45 347.302 164.894C340.943 165.276 326.911 164.081 322.434 168.239L321.08 171.07C320.463 169.607 320.058 167.934 319.602 166.399C318.921 164.118 318.468 162.175 317.051 160.2C316.046 158.802 316.457 159.183 314.778 158.937L314.059 162.697L310.925 157.945C309.059 156.69 307.572 155.801 306.276 153.919C307.373 151.946 307.707 151.447 307.745 149.113C306.321 147.777 305.241 146.643 304.346 144.909C304.092 144.414 303.848 143.914 303.6 143.418L306.319 142.636C308.838 143.571 311.165 144.285 313.793 144.841C317.406 144.196 319.538 141.117 321.902 138.536L321.68 141.266L320.457 142.27L321.374 144.45L319.985 144.021L321.442 144.222L324.999 141.258L326.738 141.889C330.396 138.735 333.811 135.364 337.245 131.974Z" fill="#FEFFFE"/>
<path d="M321.902 138.536L321.68 141.266L320.457 142.27L321.374 144.45L319.985 144.021L321.442 144.221L324.999 141.258L326.738 141.889L317.781 151.634L322.595 159.114C331.778 157.786 341.563 158.343 350.841 158.266L350.523 163.199C349.366 164.003 348.663 164.45 347.302 164.894C340.943 165.275 326.911 164.08 322.434 168.239L321.08 171.07C320.463 169.607 320.058 167.933 319.602 166.399C318.921 164.118 318.468 162.175 317.051 160.199C316.046 158.802 316.457 159.183 314.778 158.937L314.059 162.697L310.925 157.944C309.059 156.69 307.572 155.801 306.276 153.919C307.373 151.945 307.707 151.447 307.745 149.113C306.321 147.777 305.241 146.643 304.346 144.908C304.092 144.414 303.848 143.914 303.6 143.417L306.319 142.635C308.838 143.57 311.165 144.285 313.793 144.841C317.406 144.196 319.538 141.117 321.902 138.536Z" fill="#23A0C1"/>
<path d="M291.806 143.579C295.728 143.157 299.748 142.325 303.601 143.419C303.849 143.915 304.094 144.415 304.348 144.909C305.243 146.644 306.323 147.778 307.746 149.114C307.708 151.448 307.375 151.947 306.277 153.92C307.573 155.802 309.06 156.691 310.926 157.946L314.061 162.698L314.779 158.938C316.459 159.184 316.048 158.803 317.052 160.201C318.47 162.176 318.922 164.119 319.603 166.4C320.06 167.935 320.465 169.608 321.082 171.071L320.872 172.647C319.266 175.877 316.963 177.515 314.164 179.708C311.833 181.27 309.4 182.674 307.595 184.861L299.605 185.888L298.817 185.235L298.172 184.244L289.495 179.565C287.941 178.19 286.498 176.78 285.023 175.321C284.181 172.077 283.75 168.717 283.226 165.408L283.47 159.8L283.129 159.15C284.094 155.81 285.142 153.044 286.835 150.001L288.62 146.362L291.806 143.579Z" fill="#18AECF"/>
<path d="M298.037 163.847C303.127 163.905 304.296 161.715 308.333 159.387L309.717 158.599C310.059 161.852 310.583 162.879 308.907 165.773C305.274 167.46 300.554 166.962 296.605 167.004L298.037 163.847Z" fill="#11779E"/>
<path d="M314.061 162.695L314.779 158.936C316.459 159.182 316.048 158.801 317.052 160.198C318.469 162.173 318.922 164.117 319.603 166.398C320.06 167.932 320.465 169.605 321.082 171.068L320.871 172.645C319.266 175.874 316.963 177.512 314.164 179.706C311.833 181.268 309.4 182.671 307.595 184.859L299.605 185.885L298.817 185.232L298.172 184.242C301.38 183.999 303.746 183.92 306.11 181.55C304.989 179.124 304.151 179.297 301.834 178.157C302.817 177.921 303.464 177.816 304.419 177.329C309.951 174.519 311.939 168.067 314.061 162.695Z" fill="#11779E"/>
<path d="M291.84 159.484C293.898 160.92 296.076 162.289 298.037 163.846L296.606 167.002C295.657 169.908 295.318 170.692 295.868 173.654C297.823 175.798 299.324 176.826 301.833 178.158C304.149 179.298 304.987 179.125 306.109 181.551C303.745 183.921 301.378 184 298.17 184.243L289.494 179.564C287.939 178.188 286.496 176.779 285.021 175.32C284.179 172.076 283.749 168.715 283.225 165.406L283.469 159.798L291.84 159.484Z" fill="#155A88"/>
<path d="M291.806 143.579C295.728 143.157 299.748 142.325 303.601 143.419C303.849 143.915 304.094 144.415 304.348 144.909C305.243 146.644 306.323 147.778 307.746 149.114C307.708 151.448 307.375 151.947 306.277 153.92C307.573 155.802 309.06 156.691 310.926 157.946L309.719 158.599L308.336 159.387C304.298 161.715 303.129 163.905 298.039 163.847C296.078 162.291 293.9 160.921 291.841 159.486L283.47 159.8L283.129 159.15C284.094 155.81 285.142 153.044 286.835 150.001L288.62 146.362L291.806 143.579Z" fill="#23A0C1"/>
<path d="M291.84 159.485C292.91 157.604 294.01 155.428 295.838 154.175C299.058 151.972 302.843 153.028 306.276 153.919C307.572 155.801 309.059 156.69 310.925 157.945L309.718 158.598L308.334 159.386C304.296 161.715 303.127 163.904 298.037 163.847C296.076 162.29 293.898 160.921 291.84 159.485Z" fill="#ADDBE4"/>
<path d="M285.022 175.32C286.497 176.779 287.94 178.189 289.495 179.564L298.172 184.243L298.817 185.234L299.605 185.887L307.595 184.861L307.476 187.83C308.446 195.247 309.054 202.693 309.699 210.143C305.792 211.223 302.1 211.002 298.183 211.648C296.679 212.122 295.402 212.243 293.824 212.18C285.491 211.844 274.819 206.998 269.002 200.98C266.289 197.772 265.207 193.796 263.994 189.855C271.089 185.224 278.543 180.795 285.022 175.32Z" fill="#FEFFFE"/>
<path d="M285.022 175.32C286.497 176.779 287.94 178.189 289.495 179.564C282.644 186.645 275.51 193.587 269.002 200.98C266.289 197.772 265.207 193.796 263.994 189.855C271.089 185.224 278.543 180.795 285.022 175.32Z" fill="#18AECF"/>
<path d="M298.817 185.234L299.605 185.887L307.595 184.86L307.476 187.83C308.447 195.246 309.054 202.692 309.699 210.143C305.793 211.222 302.1 211.002 298.184 211.647L298.817 185.234Z" fill="#18AECF"/>
<path d="M307.592 184.86L307.473 187.83C307.399 189.664 307.429 191.723 307.008 193.507C306.498 195.669 305.305 196.626 303.532 197.73L301.446 196.69C299.278 192.932 299.695 190.093 299.602 185.887L307.592 184.86Z" fill="#23A0C1"/>
<path d="M121.13 106.319C136.052 117.608 146.504 132.155 150.408 150.67C154.345 169.34 151.56 191.378 140.872 207.45C130.097 223.648 110.972 236.484 91.9115 240.335C72.0665 244.347 52.3088 240.097 35.634 228.716C17.4922 216.337 4.9761 197.623 1.18654 175.92C-2.15835 156.766 1.50816 137.068 12.9562 121.183C24.4757 105.199 42.8895 93.2509 62.4308 90.17C82.7046 86.976 101.309 91.508 117.803 103.546L121.13 106.319Z" fill="#173158"/>
<path d="M69.3052 96.2219C86.9666 94.8979 103.588 100.103 117.613 110.876C118.563 111.618 119.496 112.383 120.41 113.171C121.323 113.959 122.216 114.769 123.091 115.6C123.965 116.432 124.818 117.286 125.65 118.159C126.482 119.033 127.294 119.926 128.082 120.837C128.87 121.75 129.636 122.683 130.379 123.634C131.121 124.585 131.84 125.552 132.537 126.538C133.231 127.525 133.902 128.527 134.549 129.546C135.195 130.564 135.816 131.596 136.411 132.647C137.009 133.697 137.579 134.759 138.123 135.835C138.666 136.912 139.183 138.002 139.673 139.104C140.163 140.206 140.628 141.319 141.062 142.445C141.499 143.57 141.908 144.704 142.287 145.849C142.666 146.995 143.02 148.148 143.343 149.309C143.667 150.473 143.963 151.642 144.229 152.819C144.497 153.996 144.735 155.177 144.943 156.366C145.152 157.554 145.33 158.747 145.481 159.944C147.713 177.96 142.476 195.409 131.183 209.561C118.833 225.039 102.716 233.14 83.2545 235.425C66.7067 236.963 49.1743 231.544 35.9913 221.557C35.0186 220.809 34.0637 220.038 33.1287 219.244C32.1938 218.45 31.2786 217.633 30.3834 216.793C29.4881 215.953 28.6147 215.094 27.7611 214.212C26.9095 213.329 26.0777 212.428 25.2698 211.505C24.4618 210.581 23.6757 209.639 22.9134 208.676C22.1512 207.715 21.4127 206.736 20.7001 205.738C19.9854 204.739 19.2966 203.725 18.6316 202.693C17.9666 201.662 17.3293 200.614 16.7159 199.55C16.1025 198.488 15.517 197.41 14.9572 196.319C14.3974 195.227 13.8654 194.121 13.3592 193.003C12.853 191.886 12.3766 190.756 11.926 189.615C11.4754 188.473 11.0545 187.32 10.6595 186.159C10.2664 184.997 9.90112 183.826 9.56563 182.645C9.23015 181.464 8.92248 180.277 8.64457 179.082C8.36864 177.887 8.1205 176.686 7.90016 175.479C7.6818 174.27 7.49327 173.059 7.33446 171.842C4.96624 154.101 9.44063 135.956 20.5691 121.826C32.7278 106.39 50.1668 98.608 69.3052 96.2219Z" fill="#69C6DE"/>
<path d="M27.4792 158.276L38.9631 159.001L39.0225 164.581C35.6062 164.242 32.3526 164.523 28.9323 163.922C27.0087 161.832 27.5348 160.97 27.4792 158.276Z" fill="#18AECF"/>
<path d="M46.25 127.788C50.1507 122.361 55.1195 119.256 61.3686 117.025C64.507 115.905 69.4439 114.827 72.4751 116.699C73.7575 117.491 73.7377 119.294 74.091 120.666C73.8429 124.995 73.557 129.299 73.555 133.636C73.553 136.203 72.9456 139.985 71.1193 141.942C69.5551 143.617 66.4425 144.594 64.3443 145.454C57.4103 140.231 51.2921 134.919 46.25 127.788Z" fill="#FEFFFE"/>
<path d="M79.9327 129.003C79.8871 126.527 79.4106 122.839 79.9804 120.465C80.6771 117.56 81.4633 117.392 83.8553 115.943C89.3401 115.901 98.1937 121.06 103.48 123.232C105.711 124.751 106.483 124.985 107.403 127.536C107.422 127.595 107.41 127.659 107.414 127.72C103.861 131.929 95.4303 144.623 91.5157 146.483C90.0527 144.675 89.1396 144.929 86.9441 144.397C84.2106 144.214 83.0413 144.175 80.7883 142.422C78.8905 138.394 79.7442 133.366 79.9327 129.003Z" fill="#FEFFFE"/>
<path d="M103.481 123.231C105.712 124.75 106.485 124.984 107.404 127.535C107.424 127.595 107.412 127.658 107.416 127.72C103.862 131.928 95.4316 144.623 91.517 146.483C90.0539 144.674 89.1408 144.929 86.9453 144.397C91.918 137.121 98.1135 130.277 103.481 123.231Z" fill="#23A0C1"/>
<path d="M62.9164 181.356C66.8847 181.402 70.9442 180.89 74.3348 183.218C74.9442 184.735 75.2994 185.948 75.4602 187.577C74.9639 195.577 75.0672 203.565 75.1208 211.575C73.5566 211.847 72.1789 211.903 70.5948 211.732C69.9119 211.663 69.231 211.577 68.5541 211.476C67.8771 211.375 67.2002 211.256 66.5273 211.121C65.8543 210.986 65.1873 210.835 64.5223 210.666C63.8573 210.499 63.1963 210.317 62.5393 210.116C61.8842 209.916 61.233 209.701 60.5879 209.471C59.9427 209.239 59.3016 208.993 58.6683 208.731C58.0351 208.469 57.4077 208.191 56.7884 207.899C56.167 207.607 55.5557 207.299 54.9502 206.976C54.3448 206.654 53.7472 206.317 53.1577 205.965C52.5681 205.614 51.9885 205.249 51.4188 204.87C50.8471 204.49 50.2853 204.095 49.7334 203.688C49.1816 203.282 48.6396 202.863 48.1076 202.428C47.5756 201.995 47.0555 201.549 46.5453 201.09C46.0352 200.631 45.5369 200.161 45.0506 199.679C44.5642 199.196 44.0878 198.702 43.6252 198.196C43.1627 197.69 42.7121 197.173 42.2734 196.645C43.5935 196.772 45.1637 197.04 46.458 196.633C51.5021 195.043 60.181 185.87 62.9164 181.356Z" fill="#FEFFFE"/>
<path d="M85.6244 180.454C94.0591 184.897 100.922 191.319 107.54 198.082C107.939 200.009 108.328 199.719 107.329 201.107C103.961 205.792 93.0824 210.969 87.4407 211.612C85.8527 211.793 85.6542 211.688 84.2924 211.469C81.1381 210.931 78.2696 211.267 75.1193 211.576C75.0657 203.567 74.9624 195.579 75.4587 187.579L77.1996 183.168L78.8592 182.922L81.5648 185.534L82.7103 181.993L85.6244 180.454Z" fill="#FEFFFE"/>
<path d="M75.4587 187.577L77.1996 183.166L78.8592 182.92L81.5648 185.532C82.9246 194.14 83.4189 202.807 84.2924 211.468C81.1381 210.93 78.2696 211.265 75.1193 211.575C75.0657 203.565 74.9624 195.577 75.4587 187.577Z" fill="#1087B3"/>
<path d="M39.5935 132.653L46.2535 127.787C51.2956 134.918 57.4138 140.23 64.3478 145.452C63.1468 148.327 61.503 149.597 59.1606 151.489C59.0554 151.944 58.9443 152.396 58.845 152.853C58.5333 154.266 58.3548 155.573 58.2317 157.008C53.5945 160.899 44.858 158.82 38.9663 159.001L27.4824 158.276C27.0794 151.066 29.8249 141.752 34.3331 136.003C35.9926 133.885 36.9156 132.942 39.5935 132.653Z" fill="#FEFFFE"/>
<path d="M39.5938 132.653L46.2537 127.787C51.2959 134.918 57.414 140.23 64.348 145.452C63.147 148.327 61.5033 149.597 59.1608 151.489C54.1346 144.527 45.9699 138.431 39.5938 132.653Z" fill="#23A0C1"/>
<path d="M39.5129 165.271C44.5491 165.472 53.9783 164.751 57.7956 168.416C58.8457 169.424 59.0185 171.133 59.4195 172.483L60.0051 174.141C60.7396 176.265 61.0811 178.32 61.4304 180.533L62.9153 181.357C60.1798 185.871 51.5009 195.044 46.4568 196.634C45.1625 197.041 43.5923 196.773 42.2723 196.646L41.1069 194.937C40.7516 194.736 40.3785 194.568 40.045 194.335C31.116 188.124 28.3447 175.358 26.8301 165.307L39.5129 165.271Z" fill="#FEFFFE"/>
<path d="M59.4181 172.482L60.0036 174.14C60.7381 176.264 61.0796 178.319 61.429 180.532L62.9138 181.356C60.1783 185.87 51.4995 195.043 46.4553 196.633C45.161 197.04 43.5909 196.772 42.2708 196.645L41.1055 194.936C47.6067 187.879 54.5268 180.776 59.4181 172.482Z" fill="#1087B3"/>
<path d="M74.0931 120.664C75.4191 121.065 78.0772 121.401 78.7442 122.631C79.7566 124.503 79.7368 126.915 79.9333 129.001C79.7447 133.365 78.8911 138.393 80.7888 142.421C83.0419 144.174 84.2111 144.213 86.9446 144.396C89.1401 144.928 90.0532 144.674 91.5163 146.482C88.9813 152.247 89.9957 156.95 92.1932 162.569C93.1222 164.942 94.093 167.316 95.2444 169.589C94.0712 171.153 93.0766 172.098 91.4587 173.198L91.028 173.16C90.4265 175.888 88.8126 178.573 86.3868 180.088C86.1486 180.237 85.8787 180.332 85.6246 180.453L82.7104 181.992L81.565 185.533L78.8593 182.921L77.1998 183.167L75.4588 187.578C75.298 185.948 74.9428 184.735 74.3334 183.218C70.9428 180.89 66.8833 181.402 62.9151 181.356L61.4302 180.533C61.0809 178.319 60.7394 176.265 60.0049 174.141L59.4193 172.483C59.0183 171.133 58.8455 169.424 57.7954 168.416C53.9781 164.751 44.5489 165.472 39.5127 165.271L39.0243 164.58L38.9648 159C44.8566 158.82 53.5931 160.898 58.2303 157.007C58.3533 155.572 58.5319 154.266 58.8436 152.852C58.9428 152.396 59.054 151.943 59.1592 151.489C61.5016 149.597 63.1453 148.326 64.3463 145.452C66.4446 144.592 69.5571 143.616 71.1214 141.94C72.9477 139.983 73.5551 136.201 73.5571 133.635C73.5591 129.297 73.845 124.994 74.0931 120.664Z" fill="#1087B3"/>
<path d="M82.7082 181.992C81.3265 179.827 80.6099 178.046 79.8496 175.628C81.8665 168.986 81.1181 162.195 82.5414 155.481L82.998 155.525C85.6838 158.483 84.0203 163.061 86.1165 166.298C88.1929 169.508 89.3582 168.625 91.0257 173.161C90.4242 175.888 88.8103 178.574 86.3845 180.089C86.1463 180.238 85.8764 180.333 85.6223 180.454L82.7082 181.992Z" fill="#11779E"/>
<path d="M107.413 127.719C114.177 134.492 122.998 144.104 122.665 154.299C122.599 156.328 122.179 156.558 121.138 158.186C122.407 160.294 122.778 160.558 122.595 162.968C120.813 164.324 119.691 164.771 117.496 165.191L122.369 165.499C124.16 167.855 124.481 169.777 124.001 172.729C122.77 180.272 116.9 189.382 110.792 193.93C109.772 195.375 108.855 196.893 107.538 198.081C100.92 191.317 94.0577 184.896 85.623 180.453C85.8771 180.332 86.1471 180.236 86.3853 180.088C88.8111 178.573 90.425 175.887 91.0265 173.16L91.4572 173.197C93.075 172.098 94.0697 171.153 95.2428 169.588C94.0915 167.316 93.1207 164.941 92.1917 162.569C89.9942 156.949 88.9798 152.247 91.5147 146.482C95.4293 144.622 103.86 131.927 107.413 127.719Z" fill="#FEFFFE"/>
<path d="M91.0265 173.161L91.4572 173.199C96.0348 180.826 104.462 187.613 110.792 193.931C109.772 195.376 108.855 196.895 107.538 198.082C100.92 191.319 94.0577 184.897 85.623 180.454C85.8771 180.333 86.1471 180.238 86.3853 180.089C88.8111 178.574 90.425 175.889 91.0265 173.161Z" fill="#1087B3"/>
<path d="M96.7724 165.508C95.6509 162.818 94.2197 160.712 94.5829 157.776C97.5249 156.819 115.202 158.497 121.14 158.187C122.408 160.295 122.779 160.559 122.597 162.969C120.814 164.325 119.692 164.771 117.497 165.192L96.7724 165.508Z" fill="#1087B3"/>
<defs>
<linearGradient id="paint0_linear_562_80118" x1="194.255" y1="188.095" x2="163.946" y2="157.848" gradientUnits="userSpaceOnUse">
<stop stop-color="#B11F1D"/>
<stop offset="1" stop-color="#E22A2D"/>
</linearGradient>
<linearGradient id="paint1_linear_562_80118" x1="229.969" y1="44.5056" x2="208.953" y2="151.773" gradientUnits="userSpaceOnUse">
<stop stop-color="#C72423"/>
<stop offset="1" stop-color="#E23E38"/>
</linearGradient>
<linearGradient id="paint2_linear_562_80118" x1="286.422" y1="95.0696" x2="321.017" y2="237.608" gradientUnits="userSpaceOnUse">
<stop stop-color="#13253C"/>
<stop offset="1" stop-color="#0A3A61"/>
</linearGradient>
</defs>
</svg>
