<svg width="572" height="285" viewBox="0 0 572 285" fill="none" xmlns="http://www.w3.org/2000/svg">
<path d="M322.714 97.2695H320V173.857H322.714V97.2695Z" fill="#FBD00D"/>
<path d="M464.93 92.3916H462.217V179.278H464.93V92.3916Z" fill="#FBD00D"/>
<path d="M493.843 174.278C493.843 183.045 488 190.459 479.463 190.656C469.477 190.881 462.934 183.044 462.934 174.278C462.934 165.515 468.818 158.748 478.448 158.634C486.985 158.536 493.843 165.515 493.843 174.278Z" fill="#3C3D3D"/>
<path d="M495.579 174.857C495.579 183.446 488.969 190.409 480.818 190.409C472.681 190.409 466.08 183.446 466.08 174.857C466.08 166.27 472.683 159.305 480.818 159.305C488.967 159.305 495.579 166.268 495.579 174.857Z" fill="#2C2C2C"/>
<path d="M491.591 175.186C491.591 181.411 486.98 186.453 481.298 186.453C475.61 186.453 471.002 181.412 471.002 175.186C471.002 168.968 475.61 163.921 481.298 163.921C486.98 163.921 491.591 168.968 491.591 175.186Z" fill="black"/>
<path d="M469.059 175.15C469.059 167.992 474.452 162.169 481.076 162.169C487.705 162.169 493.097 167.99 493.097 175.15C493.097 182.314 487.705 188.141 481.076 188.141C474.452 188.141 469.059 182.314 469.059 175.15ZM470.996 175.15C470.996 181.245 475.519 186.201 481.076 186.201C486.636 186.201 491.156 181.245 491.156 175.15C491.156 169.061 486.636 164.11 481.076 164.11C475.521 164.11 470.996 169.061 470.996 175.15Z" fill="black"/>
<path d="M485.166 176.271L491.461 172.859L491.011 170.583L484.389 171.299L483.483 170.802L482.572 163.702L481.385 163.357V163.346L481.364 163.353L481.342 163.346V163.357L480.149 163.702L479.249 170.802L478.339 171.299L471.718 170.583L471.266 172.859L477.563 176.271L477.756 177.195L474.769 183.159L476.914 184.432L480.804 179.68H481.342H481.385H481.925L485.82 184.432L487.952 183.159L484.976 177.195L485.166 176.271Z" fill="#A4A2A5"/>
<path d="M487.302 175.149C487.302 178.793 484.605 181.754 481.271 181.754C477.948 181.754 475.232 178.793 475.232 175.149C475.232 171.501 477.946 168.546 481.271 168.546C484.604 168.544 487.302 171.5 487.302 175.149Z" fill="#E0E0E0"/>
<path d="M481.06 163.138C475.033 163.138 470.123 168.499 470.123 175.108C470.123 181.717 475.033 187.086 481.06 187.086C487.103 187.086 492.009 181.719 492.009 175.108C492.007 168.501 487.101 163.138 481.06 163.138ZM481.06 185.042C476.055 185.042 471.991 180.592 471.991 175.108C471.991 169.625 476.055 165.172 481.06 165.172C486.069 165.172 490.137 169.625 490.137 175.108C490.137 180.592 486.067 185.042 481.06 185.042Z" fill="#B2B2B2"/>
<path d="M484.31 175.183C484.31 177.006 482.964 178.482 481.295 178.482C479.625 178.482 478.27 177.006 478.27 175.183C478.27 173.347 479.627 171.867 481.295 171.867C482.964 171.869 484.31 173.349 484.31 175.183Z" fill="#535352"/>
<path d="M482.797 175.209C482.797 176.12 482.132 176.856 481.295 176.856C480.459 176.856 479.795 176.12 479.795 175.209C479.795 174.301 480.459 173.561 481.295 173.561C482.132 173.561 482.797 174.301 482.797 175.209Z" fill="black"/>
<path d="M347.497 175.976C347.497 184.039 341.849 190.863 333.605 191.035C323.941 191.242 317.623 184.039 317.623 175.976C317.623 167.916 323.313 161.69 332.62 161.583C340.872 161.495 347.497 167.916 347.497 175.976Z" fill="#3C3D3D"/>
<path d="M349.173 176.504C349.173 184.401 342.797 190.805 334.913 190.805C327.044 190.805 320.666 184.401 320.666 176.504C320.666 168.605 327.042 162.202 334.913 162.202C342.797 162.202 349.173 168.605 349.173 176.504Z" fill="#2C2C2C"/>
<path d="M345.324 176.814C345.324 182.532 340.873 187.17 335.375 187.17C329.884 187.17 325.434 182.53 325.434 176.814C325.434 171.085 329.884 166.449 335.375 166.449C340.873 166.449 345.324 171.087 345.324 176.814Z" fill="black"/>
<path d="M323.514 176.773C323.514 170.151 328.74 164.763 335.165 164.763C341.585 164.763 346.811 170.151 346.811 176.773C346.811 183.402 341.585 188.794 335.165 188.794C328.74 188.794 323.514 183.402 323.514 176.773ZM325.455 176.773C325.455 182.337 329.806 186.856 335.165 186.856C340.516 186.856 344.867 182.337 344.867 176.773C344.867 171.212 340.516 166.696 335.165 166.696C329.806 166.696 325.455 171.212 325.455 176.773Z" fill="black"/>
<path d="M339.117 177.814L345.195 174.68L344.761 172.585L338.366 173.234L337.489 172.786L336.605 166.245L335.462 165.935V165.924L335.439 165.928L335.416 165.924V165.935L334.271 166.245L333.391 172.786L332.513 173.234L326.12 172.585L325.68 174.68L331.758 177.814L331.953 178.659L329.067 184.15L331.133 185.317L334.903 180.947H335.416H335.462H335.975L339.743 185.317L341.813 184.15L338.927 178.659L339.117 177.814Z" fill="#A4A2A5"/>
<path d="M341.177 176.774C341.177 180.13 338.564 182.851 335.352 182.851C332.123 182.851 329.523 180.13 329.523 176.774C329.523 173.424 332.124 170.699 335.352 170.699C338.564 170.699 341.177 173.424 341.177 176.774Z" fill="#E0E0E0"/>
<path d="M335.147 165.724C329.321 165.724 324.574 170.667 324.574 176.738C324.574 182.812 329.319 187.751 335.147 187.751C340.98 187.751 345.724 182.812 345.724 176.738C345.724 170.667 340.98 165.724 335.147 165.724ZM335.147 185.874C330.302 185.874 326.376 181.78 326.376 176.74C326.376 171.695 330.302 167.601 335.147 167.601C339.999 167.601 343.917 171.695 343.917 176.74C343.917 181.78 339.999 185.874 335.147 185.874Z" fill="#B2B2B2"/>
<path d="M338.295 176.797C338.295 178.477 336.988 179.842 335.375 179.842C333.757 179.842 332.455 178.477 332.455 176.797C332.455 175.122 333.755 173.751 335.375 173.751C336.986 173.751 338.295 175.122 338.295 176.797Z" fill="#535352"/>
<path d="M336.83 176.829C336.83 177.671 336.176 178.344 335.379 178.344C334.569 178.344 333.916 177.673 333.916 176.829C333.916 175.994 334.571 175.321 335.379 175.321C336.178 175.323 336.83 175.994 336.83 176.829Z" fill="black"/>
<path d="M340.667 174.265L314.887 172.853L315.659 162.46L323.737 153.347L343.484 151.431L342.657 172.05L340.667 174.265Z" fill="#ED302E"/>
<path d="M326.21 115.358C326.21 115.358 328.296 127.822 328.105 133.964L314.943 133.324C314.943 133.324 319.472 118.021 326.21 115.358Z" fill="#82D4F6"/>
<path d="M504.061 179.28L508.738 179.417L512.303 161.567L493.842 152.781L504.061 179.28Z" fill="#A01F22"/>
<path d="M487.774 179.147C487.774 179.147 492.65 159.633 474.678 155.271C474.678 155.271 447.734 149.626 446.7 181.201L356.154 180.093C356.154 180.093 353.518 151.677 330.16 156.808C330.16 156.808 319.12 160.666 318.351 171.187L314.893 172.854L312.967 160.921L314.762 157.834C314.762 157.834 311.68 137.56 315.017 133.198L338.629 133.456C338.629 133.456 337.029 125.657 323.428 113.336C323.428 113.336 363.277 102.134 408.709 107.528C408.709 107.528 461.334 126.007 483.671 147.825C483.665 147.825 501.376 167.85 487.774 179.147Z" fill="#ED302E"/>
<path d="M504.064 179.281L461.831 181.201C461.831 181.201 459.301 158.896 475.482 154.916C475.482 154.916 513 147.038 504.064 179.281Z" fill="#181A19"/>
<path d="M504.126 174.278C504.126 183.045 498.271 190.459 489.74 190.656C479.752 190.881 473.213 183.044 473.213 174.278C473.213 165.515 479.098 158.748 488.722 158.634C497.261 158.536 504.126 165.515 504.126 174.278Z" fill="#3C3D3D"/>
<path d="M491.105 190.409C499.249 190.409 505.851 183.446 505.851 174.857C505.851 166.268 499.249 159.305 491.105 159.305C482.961 159.305 476.359 166.268 476.359 174.857C476.359 183.446 482.961 190.409 491.105 190.409Z" fill="#2C2C2C"/>
<path d="M501.869 175.186C501.869 181.411 497.261 186.453 491.577 186.453C485.891 186.453 481.291 181.412 481.291 175.186C481.291 168.968 485.891 163.921 491.577 163.921C497.261 163.921 501.869 168.968 501.869 175.186Z" fill="black"/>
<path d="M479.344 175.15C479.344 167.992 484.735 162.169 491.357 162.169C497.985 162.169 503.378 167.99 503.378 175.15C503.378 182.314 497.985 188.141 491.357 188.141C484.735 188.141 479.344 182.314 479.344 175.15ZM481.281 175.15C481.281 181.245 485.801 186.201 491.357 186.201C496.918 186.201 501.437 181.245 501.437 175.15C501.437 169.061 496.918 164.11 491.357 164.11C485.801 164.11 481.281 169.061 481.281 175.15Z" fill="black"/>
<path d="M495.449 176.271L501.743 172.859L501.295 170.583L494.673 171.299L493.769 170.802L492.863 163.702L491.666 163.357V163.346L491.644 163.353L491.629 163.346V163.357L490.446 163.702L489.536 170.802L488.625 171.299L482.001 170.583L481.549 172.859L487.843 176.271L488.039 177.195L485.05 183.159L487.194 184.432L491.089 179.68H491.629H491.666H492.21L496.098 184.432L498.245 183.159L495.256 177.195L495.449 176.271Z" fill="#A4A2A5"/>
<path d="M497.584 175.149C497.584 178.793 494.887 181.754 491.556 181.754C488.224 181.754 485.521 178.793 485.521 175.149C485.521 171.501 488.222 168.546 491.556 168.546C494.889 168.544 497.584 171.5 497.584 175.149Z" fill="#E0E0E0"/>
<path d="M491.351 163.138C485.32 163.138 480.406 168.499 480.406 175.108C480.406 181.717 485.32 187.086 491.351 187.086C497.378 187.086 502.292 181.719 502.292 175.108C502.292 168.501 497.378 163.138 491.351 163.138ZM491.351 185.042C486.334 185.042 482.272 180.592 482.272 175.108C482.272 169.625 486.334 165.172 491.351 165.172C496.356 165.172 500.424 169.625 500.424 175.108C500.424 180.592 496.356 185.042 491.351 185.042Z" fill="#B2B2B2"/>
<path d="M494.593 175.184C494.593 177.007 493.25 178.482 491.576 178.482C489.909 178.482 488.553 177.007 488.553 175.184C488.553 173.348 489.91 171.868 491.576 171.868C493.25 171.87 494.593 173.35 494.593 175.184Z" fill="#535352"/>
<path d="M493.088 175.209C493.088 176.12 492.405 176.856 491.576 176.856C490.749 176.856 490.074 176.12 490.074 175.209C490.074 174.301 490.748 173.561 491.576 173.561C492.403 173.561 493.088 174.301 493.088 175.209Z" fill="black"/>
<path d="M376.093 180.137L345.29 181.249L343.484 168.495C343.484 168.495 346.957 157.974 345.587 157.874C345.587 157.874 376.599 150.362 376.093 180.137Z" fill="#181A19"/>
<path d="M372.917 175.976C372.917 184.039 367.267 190.863 359.019 191.035C349.363 191.242 343.045 184.039 343.045 175.976C343.045 167.916 348.725 161.69 358.033 161.583C366.281 161.495 372.917 167.916 372.917 175.976Z" fill="#3C3D3D"/>
<path d="M360.337 190.805C368.209 190.805 374.591 184.402 374.591 176.504C374.591 168.605 368.209 162.202 360.337 162.202C352.464 162.202 346.082 168.605 346.082 176.504C346.082 184.402 352.464 190.805 360.337 190.805Z" fill="#2C2C2C"/>
<path d="M370.739 176.814C370.739 182.532 366.282 187.17 360.783 187.17C355.3 187.17 350.844 182.53 350.844 176.814C350.844 171.085 355.3 166.449 360.783 166.449C366.282 166.449 370.739 171.087 370.739 176.814Z" fill="black"/>
<path d="M348.932 176.773C348.932 170.151 354.155 164.763 360.583 164.763C367.004 164.763 372.229 170.151 372.229 176.773C372.229 183.402 367.004 188.794 360.583 188.794C354.155 188.794 348.932 183.402 348.932 176.773ZM350.863 176.773C350.863 182.337 355.227 186.856 360.583 186.856C365.935 186.856 370.292 182.337 370.292 176.773C370.292 171.212 365.937 166.696 360.583 166.696C355.227 166.696 350.863 171.212 350.863 176.773Z" fill="black"/>
<path d="M364.533 177.814L370.616 174.68L370.179 172.585L363.782 173.234L362.901 172.786L362.022 166.245L360.881 165.935V165.924L360.855 165.928L360.836 165.924V165.935L359.694 166.245L358.818 172.786L357.931 173.234L351.544 172.585L351.096 174.68L357.185 177.814L357.361 178.659L354.483 184.15L356.553 185.317L360.319 180.947H360.836H360.881H361.397L365.151 185.317L367.228 184.15L364.341 178.659L364.533 177.814Z" fill="#A4A2A5"/>
<path d="M366.598 176.774C366.598 180.13 363.986 182.851 360.766 182.851C357.548 182.851 354.938 180.13 354.938 176.774C354.938 173.424 357.55 170.699 360.766 170.699C363.988 170.699 366.598 173.424 366.598 176.774Z" fill="#E0E0E0"/>
<path d="M360.556 165.724C354.731 165.724 349.979 170.667 349.979 176.738C349.979 182.812 354.729 187.751 360.556 187.751C366.394 187.751 371.129 182.812 371.129 176.738C371.127 170.667 366.394 165.724 360.556 165.724ZM360.556 185.874C355.719 185.874 351.792 181.78 351.792 176.74C351.792 171.695 355.719 167.601 360.556 167.601C365.401 167.601 369.327 171.695 369.327 176.74C369.325 181.78 365.401 185.874 360.556 185.874Z" fill="#B2B2B2"/>
<path d="M363.707 176.797C363.707 178.477 362.402 179.842 360.781 179.842C359.174 179.842 357.865 178.477 357.865 176.797C357.865 175.122 359.174 173.751 360.781 173.751C362.402 173.751 363.707 175.122 363.707 176.797Z" fill="#535352"/>
<path d="M362.246 176.829C362.246 177.671 361.596 178.344 360.784 178.344C359.987 178.344 359.334 177.673 359.334 176.829C359.334 175.994 359.987 175.321 360.784 175.321C361.596 175.323 362.246 175.994 362.246 176.829Z" fill="black"/>
<path d="M508.742 179.416C508.742 179.416 513.442 160.04 496.132 155.714C496.132 155.714 470.267 149.844 469.283 181.2L381.94 180.18C381.94 180.18 379.478 152.139 356.981 157.238C356.981 157.238 344.142 159.253 343.362 175.032L340.671 174.265L340.412 161.319L342.145 158.257C342.145 158.257 339.184 138.119 342.391 133.785L365.129 134.037C365.129 134.037 363.848 125.507 350.757 113.267C350.757 113.267 388.862 102.932 432.608 108.284C432.608 108.284 474.571 117.47 504.787 148.317C504.787 148.317 521.839 168.2 508.742 179.416Z" fill="#EC1C24"/>
<path d="M478.519 139.738C478.519 139.738 377.246 142.825 359.348 115.869C359.348 115.869 357.031 110.477 382.06 110.095C382.06 110.095 431.153 106.629 446.165 116.64C446.165 116.64 478.129 132.811 478.519 139.738Z" fill="#61B0CC"/>
<path d="M474.67 138.458C474.67 138.458 376.062 140.348 359.341 115.402C359.341 115.402 357.187 110.406 380.553 110.052C380.553 110.052 426.397 106.837 440.422 116.107C440.422 116.107 474.31 132.04 474.67 138.458Z" fill="#61B0CC"/>
<path d="M314.943 133.324L343.226 133.964L352.915 116.521L325.736 115.358L314.943 133.324Z" fill="#82D4F6"/>
<path d="M354.212 115.87C354.212 115.87 365.763 127.994 365.566 133.77L342.658 133.963C342.658 133.963 347.478 118.37 354.212 115.87Z" fill="#61B0CC"/>
<path d="M351.543 113.134C351.543 113.134 365.782 125.871 365.599 134.033L362.998 133.963C362.998 133.963 367.877 131.4 349.656 113.175L351.543 113.134Z" fill="#A01F22"/>
<g opacity="0.1">
<path d="M468.583 169.351C468.583 169.351 472.38 152.784 492.18 153.35C492.18 153.35 468.255 152.475 462.1 152.934C455.947 153.401 405.228 152.015 386.343 153.452C384.209 153.615 382.926 153.977 383.04 161.488L383.599 178.235L386.343 177.891C386.343 177.891 385.088 158.633 392.378 158.478C409.805 158.121 462.1 157.78 462.1 157.78C462.1 157.78 472.491 156.565 468.583 169.351Z" fill="white"/>
</g>
<g opacity="0.2">
<path d="M441.306 139.03L419.117 110.228C420.942 109.986 424.921 110.783 426.589 110.783C427.873 110.943 435.215 112.212 435.144 112.454L439.435 113.647L464.261 139.668H451.57L441.306 139.03Z" fill="white"/>
</g>
<g opacity="0.2">
<path d="M383.752 109.87C387.144 109.705 392.921 109.485 399.614 109.517L418.956 135.832C411.627 135.014 404.242 133.953 397.245 132.574L383.752 109.87Z" fill="white"/>
</g>
<path d="M418.97 107.528H412.553V151.639H418.97V107.528Z" fill="#EC1C24"/>
<path d="M414.479 109.843H412.553V136.921H414.479V109.843Z" fill="#A01F22"/>
<path d="M404.131 146.957C404.131 147.913 404.92 148.701 405.877 148.701H415.796C416.752 148.701 417.54 147.913 417.54 146.957C417.54 145.997 416.752 145.209 415.796 145.209H405.877C404.92 145.209 404.131 145.997 404.131 146.957Z" fill="#881B23"/>
<path d="M404.131 146.779C404.131 147.595 404.829 148.246 405.682 148.246H414.475C415.321 148.246 416.022 147.593 416.022 146.779C416.022 145.962 415.321 145.302 414.475 145.302H405.682C404.829 145.302 404.131 145.962 404.131 146.779Z" fill="#A01F22"/>
<path d="M406.709 146.687C406.709 147.154 407.088 147.535 407.555 147.535H413.177C413.648 147.535 414.027 147.154 414.027 146.687C414.027 146.213 413.648 145.834 413.177 145.834H407.555C407.088 145.834 406.709 146.213 406.709 146.687Z" fill="#E93434"/>
<path d="M368.432 127.01C368.432 127.01 393.908 149.246 495.579 139.937L500.655 144.438C500.655 144.438 395.877 154.219 368.432 127.01Z" fill="#A01F22"/>
<g opacity="0.2">
<path d="M335.229 146.239C335.229 147.216 336.177 148.017 337.368 148.017H344.911C346.091 148.017 347.047 147.216 347.047 146.239C347.047 145.262 346.091 144.463 344.911 144.463H337.368C336.177 144.461 335.229 145.262 335.229 146.239Z" fill="#2C2C2C"/>
</g>
<g opacity="0.2">
<path d="M318.602 146.721C318.602 147.769 317.748 148.619 316.706 148.619H317.133C318.234 148.619 319.123 147.666 319.123 146.485C319.123 145.301 318.232 144.349 317.133 144.349H313.799V144.821H316.708C317.748 144.821 318.602 145.671 318.602 146.721Z" fill="#2C2C2C"/>
<path d="M318.6 146.72C318.6 145.67 317.746 144.82 316.704 144.82H313.795V148.616H316.704C317.746 148.616 318.6 147.766 318.6 146.72Z" fill="#2C2C2C"/>
</g>
<g opacity="0.2">
<path d="M316.122 153.455H332.325C332.473 153.425 332.616 153.378 332.774 153.378H352.302C353.301 153.378 354.111 154.055 354.111 154.889C354.111 155.728 353.301 156.403 352.302 156.403H334.808C334.656 156.436 334.503 156.484 334.341 156.484H316.122C315.151 156.484 314.361 155.803 314.361 154.968C314.361 154.134 315.153 153.455 316.122 153.455Z" fill="#2C2C2C"/>
</g>
<g opacity="0.2">
<path d="M502.609 147.082C502.609 147.082 499.632 157.115 510.971 158.182C510.971 158.182 507.389 150.186 502.609 147.082Z" fill="#2C2C2C"/>
</g>
<path d="M396.95 133.929H396.314V176.625H396.95V133.929Z" fill="#A01F22"/>
<path d="M396.309 133.83H395.666V176.524H396.309V133.83Z" fill="#A01F22"/>
<path d="M445.12 139.421H444.482V178.725H445.12V139.421Z" fill="#A01F22"/>
<path d="M444.477 139.324H443.834V178.632H444.477V139.324Z" fill="#A01F22"/>
<path d="M381.328 180.229L469.28 181.198L470.341 172.232L379.529 171.401L381.328 180.229Z" fill="#A01F22"/>
<path d="M501.721 145.387C501.721 145.387 498.741 155.412 510.079 156.493C510.079 156.493 506.497 148.492 501.721 145.387Z" fill="#DDDDDC"/>
<path d="M308.912 153.027C308.912 153.862 310.137 154.544 311.641 154.544H339.925C341.44 154.544 342.661 153.864 342.661 153.027C342.661 152.195 341.44 151.516 339.925 151.516H311.641C310.137 151.516 308.912 152.195 308.912 153.027Z" fill="#CCCDCE"/>
<path d="M337.176 152.953C337.176 153.788 337.815 154.463 338.607 154.463H354.031C354.832 154.463 355.47 153.79 355.47 152.953C355.47 152.115 354.832 151.431 354.031 151.431H338.607C337.815 151.431 337.176 152.115 337.176 152.953Z" fill="#DDDDDC"/>
<path d="M335.229 144.67C335.229 145.844 336.177 146.808 337.368 146.808H344.911C346.091 146.808 347.047 145.844 347.047 144.67C347.047 143.486 346.091 142.521 344.911 142.521H337.368C336.177 142.519 335.229 143.486 335.229 144.67Z" fill="#BFBFBF"/>
<path d="M335.797 144.897C335.797 145.953 336.708 146.806 337.83 146.806H345.02C346.145 146.806 347.053 145.953 347.053 144.897C347.053 143.85 346.145 142.997 345.02 142.997H337.83C336.708 142.997 335.797 143.85 335.797 144.897Z" fill="#DDDDDC"/>
<path d="M335.664 144.899C335.664 145.954 336.572 146.808 337.701 146.808H337.238C336.056 146.808 335.104 145.844 335.104 144.67C335.104 143.486 336.056 142.521 337.238 142.521H340.82V143.001H337.701C336.574 142.999 335.664 143.852 335.664 144.899Z" fill="#ACACAD"/>
<path d="M335.664 144.897C335.664 143.85 336.572 142.997 337.701 142.997H340.819V146.804H337.701C336.574 146.806 335.664 145.951 335.664 144.897Z" fill="#CCCDCE"/>
<path d="M318.563 144.782C318.563 145.828 317.656 146.681 316.527 146.681H316.986C318.168 146.681 319.124 145.727 319.124 144.547C319.124 143.362 318.168 142.405 316.986 142.405H313.404V142.88H316.527C317.656 142.882 318.563 143.731 318.563 144.782Z" fill="#ACACAD"/>
<path d="M318.563 144.781C318.563 143.729 317.656 142.879 316.527 142.879H313.404V146.678H316.527C317.656 146.68 318.563 145.827 318.563 144.781Z" fill="#CCCDCE"/>
<path d="M340.821 167.704H312.965V176.974H340.821V167.704Z" fill="#3C3D3D"/>
<path d="M337.898 167.704H312.965V176.974H337.898V167.704Z" fill="#2C2C2C"/>
<path d="M335.921 169.223H314.703V175.098H335.921V169.223Z" fill="#DDDDDC"/>
<path d="M478.256 136.542C478.256 138.301 477.101 139.726 475.685 139.726H470.661C469.233 139.726 468.08 138.299 468.08 136.542C468.08 134.783 469.233 133.352 470.661 133.352H475.685C477.101 133.352 478.256 134.781 478.256 136.542Z" fill="#881B23"/>
<path d="M479.724 136.542C479.724 138.301 478.575 139.726 477.15 139.726H472.122C470.702 139.726 469.549 138.299 469.549 136.542C469.549 134.783 470.702 133.352 472.122 133.352H477.15C478.575 133.352 479.724 134.781 479.724 136.542Z" fill="#A01F22"/>
<path d="M479.8 140.514C479.8 141.444 479.145 142.194 478.337 142.194C477.519 142.194 476.855 141.444 476.855 140.514V136.645C476.855 135.715 477.521 134.967 478.337 134.967C479.147 134.967 479.8 135.713 479.8 136.645V140.514Z" fill="#A01F22"/>
<path d="M425.569 75.333H345.25V85.351H425.569V75.333Z" fill="#B2B2B2"/>
<path d="M349.137 63.5156H339.25V97.2699H349.137V63.5156Z" fill="#B2B2B2"/>
<path d="M477.441 68.0498H407.768V92.39H477.441V68.0498Z" fill="#B2B2B2"/>
<path d="M485.26 59.7119H477.441V97.2696H485.26V59.7119Z" fill="#B2B2B2"/>
<path d="M430.778 75.333H350.459V85.351H430.778V75.333Z" fill="#B2B2B2"/>
<path d="M354.346 63.5156H344.469V97.2699H354.346V63.5156Z" fill="#969595"/>
<path d="M324.668 63.5156H314.789V97.2699H324.668V63.5156Z" fill="#B2B2B2"/>
<path d="M329.879 63.5156H320V97.2699H329.879V63.5156Z" fill="#969595"/>
<path d="M482.648 68.0498H412.977V92.39H482.648V68.0498Z" fill="#969595"/>
<path d="M490.465 59.7119H482.646V97.2696H490.465V59.7119Z" fill="#969595"/>
<path d="M428.975 80.0279C428.975 84.48 425.845 88.0881 421.986 88.0881C418.128 88.0881 415.002 84.48 415.002 80.0279C415.002 75.5777 418.128 71.9658 421.986 71.9658C425.845 71.9658 428.975 75.5777 428.975 80.0279Z" fill="#B2B2B2"/>
<path d="M425.58 80.3031C425.58 82.7449 423.863 84.7235 421.745 84.7235C419.637 84.7235 417.914 82.743 417.914 80.3031C417.914 77.8633 419.637 75.8867 421.745 75.8867C423.865 75.8848 425.58 77.8614 425.58 80.3031Z" fill="#676768"/>
<path d="M347.179 97.2695H344.469V182.645H347.179V97.2695Z" fill="#D78E29"/>
<path d="M486.613 97.2695H483.885V182.645H486.613V97.2695Z" fill="#D78E29"/>
<path d="M339.378 75.333H315.908V85.351H339.378V75.333Z" fill="#B2B2B2"/>
<path d="M486.552 80.0279C486.552 84.48 483.433 88.0881 479.568 88.0881H439.456C435.595 88.0881 432.465 84.48 432.465 80.0279C432.465 75.5777 435.595 71.9658 439.456 71.9658H479.568C483.433 71.9658 486.552 75.5777 486.552 80.0279Z" fill="#B2B2B2"/>
<path d="M349.134 97.2695H342.367V107.854H349.134V97.2695Z" fill="#B2B2B2"/>
<path d="M349.139 97.2695H345.756V107.854H349.139V97.2695Z" fill="#969595"/>
<path d="M324.966 97.2695H318.201V107.854H324.966V97.2695Z" fill="#B2B2B2"/>
<path d="M324.965 97.2695H321.578V107.854H324.965V97.2695Z" fill="#969595"/>
<path d="M466.954 91.9785H460.189V102.561H466.954V91.9785Z" fill="#B2B2B2"/>
<path d="M466.955 91.9795H463.568V102.562H466.955V91.9795Z" fill="#969595"/>
<path d="M488.635 97.2695H481.871V107.854H488.635V97.2695Z" fill="#B2B2B2"/>
<path d="M488.637 97.2695H485.258V107.854H488.637V97.2695Z" fill="#969595"/>
<path d="M487.8 173.039H481.949V185.465H487.8V173.039Z" fill="#D32F2F"/>
<path d="M487.804 173.039H483.369V185.465H487.804V173.039Z" fill="#E93434"/>
<path d="M499.582 183.283H470.945V186.815H499.582V183.283Z" fill="#D32F2F"/>
<path d="M499.579 183.283H474.504V186.815H499.579V183.283Z" fill="#E93434"/>
<path d="M348.141 175.131H343.07V187.559H348.141V175.131Z" fill="#D32F2F"/>
<path d="M348.143 175.131H344.303V187.559H348.143V175.131Z" fill="#E93434"/>
<path d="M358.344 185.374H333.521V188.911H358.344V185.374Z" fill="#D32F2F"/>
<path d="M358.345 185.374H336.604V188.911H358.345V185.374Z" fill="#E93434"/>
<path d="M405.482 52.3682H397.098V75.4314H405.482V52.3682Z" fill="#969595"/>
<path d="M401.772 52.3682H396.791V75.4314H401.772V52.3682Z" fill="#BFBDBE"/>
<path d="M405.395 52.6032C405.395 56.2695 402.321 59.2402 398.522 59.2402H398.291C394.494 59.2402 391.418 56.2695 391.418 52.6032V29.5571C391.418 25.8945 394.494 22.9258 398.291 22.9258H398.522C402.321 22.9258 405.395 25.8945 405.395 29.5571V52.6032Z" fill="#343433"/>
<path d="M380.382 22.2057L380.149 12.5233C380.025 7.5067 384.361 3.25709 389.813 3.04143L392.296 2.94208C398.897 2.67953 404.456 7.40366 404.699 13.4667L405.463 32.8166L402.719 32.9235L401.952 13.5809C401.762 8.90377 397.479 5.26572 392.386 5.46826L389.912 5.56578C385.951 5.71956 382.806 8.81192 382.895 12.4464L383.127 22.1326L380.382 22.2057Z" fill="#161F26"/>
<path d="M409.507 52.3687C409.507 56.1606 406.429 59.2419 402.641 59.2419H402.41C398.619 59.2419 395.541 56.1606 395.541 52.3687V28.5012C395.541 24.7073 398.62 21.6279 402.41 21.6279H402.641C406.431 21.6279 409.507 24.7073 409.507 28.5012V52.3687Z" fill="#161F26"/>
<path d="M355.029 37.1063H352.557V11.9578C352.557 6.85117 348.405 2.69912 343.297 2.69912H278.708C272.495 2.69912 267.439 7.75147 267.439 13.9645V29.6818H264.969V13.9645C264.969 6.39184 271.131 0.225586 278.708 0.225586H343.297C349.765 0.225586 355.029 5.49154 355.029 11.9578V37.1063Z" fill="#161F26"/>
<path d="M363.475 22.2837C363.475 25.695 360.709 28.4613 357.298 28.4613H341.035C337.624 28.4613 334.857 25.695 334.857 22.2837V19.782C334.857 16.3745 337.624 13.6084 341.035 13.6084H357.298C360.709 13.6084 363.475 16.3745 363.475 19.782V22.2837Z" fill="#FBD00D"/>
<path d="M370.884 22.2828C370.884 25.694 368.121 28.4603 364.706 28.4603H348.443C345.036 28.4603 342.27 25.694 342.27 22.2828V19.7811C342.27 16.3736 345.036 13.6074 348.443 13.6074H364.706C368.121 13.6074 370.884 16.3736 370.884 19.7811V22.2828Z" fill="#D78E29"/>
<path d="M269.643 30.0098H244.229V153.494H269.643V30.0098Z" fill="#D78E29"/>
<path d="M251.664 30.0098H244.229V153.494H251.664V30.0098Z" fill="#FBD00D"/>
<path d="M256.171 182.58H239.295V124.412H251.661L256.171 182.58Z" fill="#232C33"/>
<path d="M273.656 182.58H251.66V124.412L273.656 140.632V182.58Z" fill="#161F26"/>
<path d="M396.244 38.9554H278.393L278.64 31.9528L282.668 21.0684H396.244V38.9554Z" fill="#FBD00D"/>
<path d="M396.247 38.9554H283.432L283.664 31.9528L287.516 21.0684H396.247V38.9554Z" fill="#D78E29"/>
<path d="M396.247 30.0118H283.432L283.664 26.5106L287.516 21.0684H396.247V30.0118Z" fill="#C37A2A"/>
<path d="M290.024 43.457H285.086V178.143H290.024V43.457Z" fill="#A2A2A3"/>
<path d="M285.085 43.457H280.152V178.143H285.085V43.457Z" fill="#BFBDBE"/>
<path d="M399.291 41.2994C399.291 42.4884 398.32 43.458 397.129 43.458C395.935 43.458 394.965 42.4865 394.965 41.2994V18.3C394.965 17.1054 395.935 16.1396 397.129 16.1396C398.322 16.1396 399.291 17.1073 399.291 18.3V41.2994Z" fill="#161F26"/>
<path d="M266.224 119.045C266.224 121.819 263.973 124.073 261.196 124.073C258.417 124.073 256.168 121.819 256.168 119.045V61.2484C256.168 58.4747 258.415 56.2207 261.196 56.2207C263.971 56.2207 266.224 58.4747 266.224 61.2484V119.045Z" fill="#A86627"/>
<path d="M262.657 119.045C262.657 121.819 261.205 124.073 259.414 124.073C257.623 124.073 256.172 121.819 256.172 119.045V61.2484C256.172 58.4747 257.623 56.2207 259.414 56.2207C261.205 56.2207 262.657 58.4747 262.657 61.2484V119.045Z" fill="#EC9B38"/>
<path d="M349.485 21.2988L347.844 26.2367H351.306L352.948 21.2988H349.485Z" fill="#EBEAEA"/>
<path d="M315.405 21.2988L313.764 26.2367H316.867L318.514 21.2988H315.405Z" fill="#EBEAEA"/>
<path d="M356.588 21.2988L354.943 26.2367H358.051L359.695 21.2988H356.588Z" fill="#EBEAEA"/>
<path d="M308.303 21.2988L306.66 26.2367H310.12L311.765 21.2988H308.303Z" fill="#EBEAEA"/>
<path d="M329.248 21.2988L327.607 26.2367H330.713L332.356 21.2988H329.248Z" fill="#EBEAEA"/>
<path d="M322.149 21.2988L320.502 26.2367H323.969L325.61 21.2988H322.149Z" fill="#EBEAEA"/>
<path d="M391.018 21.2988L389.377 26.2367H395.104V21.2988H391.018Z" fill="#EBEAEA"/>
<path d="M377.174 21.2988L375.533 26.2367H378.991L380.638 21.2988H377.174Z" fill="#EBEAEA"/>
<path d="M287.716 21.2988L286.139 26.038V26.2367H289.18L290.823 21.2988H287.716Z" fill="#EBEAEA"/>
<path d="M370.426 21.2988L368.783 26.2367H371.895L373.535 21.2988H370.426Z" fill="#EBEAEA"/>
<path d="M301.561 21.2988L299.918 26.2367H303.022L304.664 21.2988H301.561Z" fill="#EBEAEA"/>
<path d="M384.275 21.2988L382.625 26.2367H385.732L387.379 21.2988H384.275Z" fill="#EBEAEA"/>
<path d="M342.739 21.2988L341.098 26.2367H344.205L345.846 21.2988H342.739Z" fill="#EBEAEA"/>
<path d="M363.328 21.2988L361.688 26.2367H365.146L366.792 21.2988H363.328Z" fill="#EBEAEA"/>
<path d="M335.996 21.2988L334.354 26.2367H337.455L339.1 21.2988H335.996Z" fill="#EBEAEA"/>
<path d="M294.463 21.2988L292.814 26.2367H296.278L297.921 21.2988H294.463Z" fill="#EBEAEA"/>
<path d="M290.821 21.2988L289.178 26.2367H292.814L294.463 21.2988H290.821Z" fill="#D72728"/>
<path d="M286.139 21.2988V26.038L287.716 21.2988H286.139Z" fill="#D72728"/>
<path d="M304.664 21.2988L303.021 26.2367H306.662L308.304 21.2988H304.664Z" fill="#D72728"/>
<path d="M297.924 21.2988L296.281 26.2367H299.919L301.562 21.2988H297.924Z" fill="#D72728"/>
<path d="M318.518 21.2988L316.871 26.2367H320.507L322.154 21.2988H318.518Z" fill="#D72728"/>
<path d="M311.766 21.2988L310.121 26.2367H313.763L315.404 21.2988H311.766Z" fill="#D72728"/>
<path d="M332.358 21.2988L330.715 26.2367H334.355L335.998 21.2988H332.358Z" fill="#D72728"/>
<path d="M325.612 21.2988L323.971 26.2367H327.607L329.248 21.2988H325.612Z" fill="#D72728"/>
<path d="M345.846 21.2988L344.205 26.2367H347.841L349.482 21.2988H345.846Z" fill="#D72728"/>
<path d="M339.098 21.2988L337.453 26.2367H341.095L342.736 21.2988H339.098Z" fill="#D72728"/>
<path d="M359.694 21.2988L358.049 26.2367H361.685L363.326 21.2988H359.694Z" fill="#D72728"/>
<path d="M352.944 21.2988L351.301 26.2367H354.941L356.586 21.2988H352.944Z" fill="#D72728"/>
<path d="M373.535 21.2988L371.895 26.2367H375.531L377.172 21.2988H373.535Z" fill="#D72728"/>
<path d="M366.789 21.2988L365.143 26.2367H368.783L370.425 21.2988H366.789Z" fill="#D72728"/>
<path d="M387.379 21.2988L385.732 26.2367H389.376L391.017 21.2988H387.379Z" fill="#D72728"/>
<path d="M380.639 21.2988L378.992 26.2367H382.629L384.279 21.2988H380.639Z" fill="#D72728"/>
<path d="M237.262 46.2824L226.719 46.1325C221.269 46.0556 216.834 41.5548 216.834 36.0994V33.6144C216.834 27.0113 222.211 21.6348 228.816 21.6348H249.876V24.3858H228.816C223.722 24.3858 219.585 28.521 219.585 33.6144V36.0994C219.585 40.0564 222.803 43.327 226.764 43.3852L237.3 43.5314L237.262 46.2824Z" fill="#161F26"/>
<path d="M237.262 40.7808L226.719 40.6346C221.269 40.5614 216.834 36.0606 216.834 30.6015V28.1204C216.834 21.5116 222.211 16.1387 228.816 16.1387H249.876V18.886H228.816C223.722 18.886 219.585 23.0269 219.585 28.1204V30.6015C219.585 34.5622 222.803 37.8308 226.764 37.8833L237.3 38.0372L237.262 40.7808Z" fill="#161F26"/>
<path d="M271.795 48.8098H243.558C236.038 48.8098 230.595 41.631 232.632 34.3903L236.137 21.891C237.512 16.9963 241.977 13.6094 247.063 13.6094H264.751C268.845 13.6094 272.624 15.8166 274.636 19.3835L281.685 31.8829C285.948 39.4518 280.482 48.8098 271.795 48.8098Z" fill="#FBD00D"/>
<path d="M283.622 51.6367H253.117C244.993 51.6367 239.114 43.8803 241.312 36.0582L245.102 22.5575C246.584 17.2634 251.411 13.6084 256.909 13.6084H276.01C280.432 13.6084 284.515 15.9939 286.688 19.8459L294.302 33.3484C298.915 41.5249 293.004 51.6367 283.622 51.6367Z" fill="#D78E29"/>
<path d="M260.769 40.7801C260.769 45.0616 257.3 48.529 253.024 48.529C248.741 48.529 245.271 45.0616 245.271 40.7801C245.271 36.5043 248.741 33.0312 253.024 33.0312C257.3 33.0331 260.769 36.5043 260.769 40.7801Z" fill="#C37A2A"/>
<path d="M256.214 40.9105C256.214 42.6715 254.783 44.1024 253.026 44.1024C251.261 44.1024 249.83 42.6715 249.83 40.9105C249.83 39.1477 251.261 37.7168 253.026 37.7168C254.783 37.7168 256.214 39.1458 256.214 40.9105Z" fill="#161F26"/>
<path d="M290.412 40.7801C290.412 45.0616 286.944 48.529 282.663 48.529C278.387 48.529 274.914 45.0616 274.914 40.7801C274.914 36.5043 278.387 33.0312 282.663 33.0312C286.946 33.0331 290.412 36.5043 290.412 40.7801Z" fill="#C37A2A"/>
<path d="M285.86 40.9105C285.86 42.6715 284.426 44.1024 282.665 44.1024C280.902 44.1024 279.477 42.6715 279.477 40.9105C279.477 39.1477 280.902 37.7168 282.665 37.7168C284.426 37.7168 285.86 39.1458 285.86 40.9105Z" fill="#161F26"/>
<path d="M282.617 23.8683C282.617 27.2608 279.87 30.0101 276.477 30.0101H255.974C252.579 30.0101 249.83 27.2589 249.83 23.8683C249.83 20.4739 252.581 17.7246 255.974 17.7246H276.477C279.87 17.7227 282.617 20.4739 282.617 23.8683Z" fill="#A86627"/>
<path d="M278.393 23.8683C278.393 27.2608 275.997 30.0101 273.045 30.0101H255.178C252.229 30.0101 249.826 27.2589 249.826 23.8683C249.826 20.4739 252.227 17.7246 255.178 17.7246H273.045C275.997 17.7227 278.393 20.4739 278.393 23.8683Z" fill="#C37A2A"/>
<path d="M126.607 254.707L38.4433 254.814C38.4433 254.814 29.074 213.243 59.9967 205.444C59.9967 205.444 143.696 191.315 126.607 254.707Z" fill="#181A19"/>
<path d="M116.954 246.57C116.954 267.096 102.566 284.462 81.6094 284.899C57.0779 285.435 41.0117 267.096 41.0117 246.57C41.0117 226.024 55.4445 210.156 79.1133 209.89C100.078 209.667 116.954 226.024 116.954 246.57Z" fill="#3C3D3D"/>
<path d="M121.174 247.894C121.174 268.019 104.961 284.338 84.9474 284.338C64.9468 284.338 48.7344 268.02 48.7344 247.894C48.7344 227.777 64.9468 211.458 84.9474 211.458C104.961 211.458 121.174 227.777 121.174 247.894Z" fill="#2C2C2C"/>
<path d="M111.384 248.679C111.384 263.252 100.053 275.072 86.1097 275.072C72.1439 275.072 60.8262 263.252 60.8262 248.679C60.8262 234.113 72.1439 222.279 86.1097 222.279C100.053 222.279 111.384 234.113 111.384 248.679Z" fill="black"/>
<path d="M55.6133 248.588C55.6133 231.507 69.054 217.616 85.574 217.616C102.101 217.616 115.533 231.505 115.533 248.588C115.533 265.661 102.1 279.554 85.574 279.554C69.054 279.554 55.6133 265.661 55.6133 248.588ZM61.2469 248.588C61.2469 262.548 72.1614 273.922 85.574 273.922C98.9846 273.922 109.894 262.55 109.894 248.588C109.894 234.614 98.9846 223.254 85.574 223.254C72.1614 223.254 61.2469 234.614 61.2469 248.588Z" fill="black"/>
<path d="M95.6233 251.217L111.084 243.223L109.975 237.91L93.7123 239.56L91.4788 238.401L89.2677 221.758L86.3496 220.964V220.927L86.284 220.946L86.2259 220.927V220.964L83.3209 221.758L81.0799 238.401L78.8408 239.56L62.5983 237.91L61.4824 243.223L76.9354 251.217L77.4173 253.367L70.0772 267.359L75.3526 270.342L84.9187 259.197H86.2259H86.3496H87.655L97.221 270.342L102.481 267.359L95.1488 253.367L95.6233 251.217Z" fill="#A4A2A5"/>
<path d="M100.874 248.587C100.874 257.127 94.2338 264.051 86.0403 264.051C77.8675 264.051 71.2363 257.127 71.2363 248.587C71.2363 240.034 77.8694 233.101 86.0403 233.101C94.2338 233.101 100.874 240.034 100.874 248.587Z" fill="#E0E0E0"/>
<path d="M85.5397 220.431C70.7207 220.431 58.666 233.014 58.666 248.49C58.666 263.961 70.7207 276.545 85.5397 276.545C100.351 276.545 112.414 263.961 112.414 248.49C112.412 233.014 100.351 220.431 85.5397 220.431ZM85.5397 271.768C73.2318 271.768 63.2569 261.336 63.2569 248.49C63.2569 235.626 73.2318 225.215 85.5397 225.215C97.8496 225.215 107.83 235.626 107.83 248.49C107.83 261.336 97.8496 271.768 85.5397 271.768Z" fill="#B2B2B2"/>
<path d="M93.5327 248.649C93.5327 252.931 90.2133 256.398 86.1119 256.398C82.0048 256.398 78.6836 252.931 78.6836 248.649C78.6836 244.358 82.003 240.895 86.1119 240.895C90.2133 240.895 93.5327 244.358 93.5327 248.649Z" fill="#535352"/>
<path d="M89.8028 248.728C89.8028 250.862 88.1394 252.583 86.1103 252.583C84.0605 252.583 82.4121 250.862 82.4121 248.728C82.4121 246.595 84.0605 244.87 86.1103 244.87C88.1394 244.872 89.8028 246.595 89.8028 248.728Z" fill="black"/>
<path d="M40.6271 254.754L40.7152 245.93C40.9346 223.861 57.1115 205.905 76.7745 205.905H88.2161C108.106 205.905 124.283 224.065 124.283 246.386V254.707H133.273V246.386C133.273 219.111 113.063 196.914 88.2179 196.914H76.7764C53.1863 195.494 33.5158 216.645 31.7211 245.846L31.6348 254.66L40.6271 254.754Z" fill="#161F26"/>
<path d="M47.3691 254.755L47.4572 245.931C47.6767 223.862 63.8516 205.906 83.524 205.906H94.958C114.848 205.906 131.025 224.066 131.025 246.387V254.708H140.013V246.387C140.013 219.112 119.803 196.915 94.958 196.915H83.524C58.9419 196.915 38.7312 218.866 38.4686 245.847L38.373 254.661L47.3691 254.755Z" fill="#232C33"/>
<path d="M306.82 254.706L218.656 254.813C218.656 254.813 209.279 213.242 240.21 205.443C240.21 205.443 323.91 191.314 306.82 254.706Z" fill="#181A19"/>
<path d="M297.165 246.569C297.165 267.095 282.783 284.461 261.828 284.898C237.289 285.434 221.223 267.095 221.223 246.569C221.223 226.023 235.663 210.155 259.332 209.889C280.289 209.666 297.165 226.023 297.165 246.569Z" fill="#3C3D3D"/>
<path d="M301.383 247.893C301.383 268.018 285.169 284.337 265.164 284.337C245.164 284.337 228.951 268.019 228.951 247.893C228.951 227.776 245.164 211.457 265.164 211.457C285.171 211.457 301.383 227.776 301.383 247.893Z" fill="#2C2C2C"/>
<path d="M291.593 248.678C291.593 263.251 280.262 275.071 266.325 275.071C252.353 275.071 241.043 263.251 241.043 248.678C241.043 234.112 252.353 222.278 266.325 222.278C280.262 222.278 291.593 234.112 291.593 248.678Z" fill="black"/>
<path d="M235.818 248.587C235.818 231.506 249.265 217.615 265.785 217.615C282.307 217.615 295.745 231.504 295.745 248.587C295.745 265.66 282.307 279.553 265.785 279.553C249.265 279.553 235.818 265.66 235.818 248.587ZM241.458 248.587C241.458 262.547 252.374 273.921 265.785 273.921C279.195 273.921 290.104 262.549 290.104 248.587C290.104 234.613 279.197 223.253 265.785 223.253C252.374 223.253 241.458 234.613 241.458 248.587Z" fill="black"/>
<path d="M275.834 251.216L291.287 243.222L290.184 237.909L273.914 239.559L271.682 238.4L269.477 221.757L266.56 220.963V220.926L266.487 220.945L266.435 220.926V220.963L263.522 221.757L261.291 238.4L259.052 239.559L242.802 237.909L241.693 243.222L257.146 251.216L257.628 253.366L250.288 267.358L255.563 270.341L265.13 259.196H266.435H266.56H267.866L277.424 270.341L282.692 267.358L275.36 253.366L275.834 251.216Z" fill="#A4A2A5"/>
<path d="M281.078 248.586C281.078 257.127 274.439 264.05 266.251 264.05C258.08 264.05 251.447 257.127 251.447 248.586C251.447 240.033 258.078 233.1 266.251 233.1C274.439 233.1 281.078 240.033 281.078 248.586Z" fill="#E0E0E0"/>
<path d="M265.749 220.43C250.922 220.43 238.875 233.013 238.875 248.489C238.875 263.96 250.922 276.544 265.749 276.544C280.559 276.544 292.613 263.96 292.613 248.489C292.613 233.013 280.559 220.43 265.749 220.43ZM265.749 271.767C253.432 271.767 243.464 261.335 243.464 248.489C243.464 235.626 253.43 225.214 265.749 225.214C278.059 225.214 288.039 235.626 288.039 248.489C288.039 261.335 278.059 271.767 265.749 271.767Z" fill="#B2B2B2"/>
<path d="M273.742 248.647C273.742 252.929 270.423 256.396 266.329 256.396C262.222 256.396 258.9 252.929 258.9 248.647C258.9 244.356 262.222 240.893 266.329 240.893C270.421 240.893 273.742 244.356 273.742 248.647Z" fill="#535352"/>
<path d="M270.014 248.727C270.014 250.861 268.351 252.582 266.329 252.582C264.279 252.582 262.629 250.861 262.629 248.727C262.629 246.594 264.279 244.869 266.329 244.869C268.351 244.871 270.014 246.594 270.014 248.727Z" fill="black"/>
<path d="M220.834 254.753L220.922 245.929C221.148 223.86 237.317 205.904 256.989 205.904H268.431C288.313 205.904 304.49 224.065 304.49 246.385V254.706H313.488V246.385C313.488 219.11 293.27 196.913 268.433 196.913H256.991C233.386 195.493 213.731 216.644 211.936 245.845L211.848 254.659L220.834 254.753Z" fill="#161F26"/>
<path d="M227.577 254.754L227.67 245.93C227.882 223.861 244.066 205.905 263.731 205.905H275.171C295.055 205.905 311.24 224.065 311.24 246.386V254.707H320.221V246.386C320.221 219.111 300.018 196.914 275.171 196.914H263.731C239.157 196.914 218.937 218.865 218.676 245.846L218.588 254.66L227.577 254.754Z" fill="#232C33"/>
<path d="M467.445 254.707L379.273 254.814C379.273 254.814 369.904 213.243 400.834 205.444C400.834 205.444 484.533 191.315 467.445 254.707Z" fill="#181A19"/>
<path d="M457.783 246.569C457.783 267.095 443.401 284.461 422.445 284.898C397.914 285.434 381.848 267.095 381.848 246.569C381.848 226.023 396.28 210.155 419.949 209.889C440.904 209.666 457.783 226.023 457.783 246.569Z" fill="#3C3D3D"/>
<path d="M461.994 247.893C461.994 268.018 445.78 284.337 425.774 284.337C405.775 284.337 389.561 268.019 389.561 247.893C389.561 227.776 405.775 211.457 425.774 211.457C445.782 211.457 461.994 227.776 461.994 247.893Z" fill="#2C2C2C"/>
<path d="M452.212 248.678C452.212 263.251 440.887 275.071 426.944 275.071C412.978 275.071 401.662 263.251 401.662 248.678C401.662 234.112 412.978 222.278 426.944 222.278C440.887 222.278 452.212 234.112 452.212 248.678Z" fill="black"/>
<path d="M396.445 248.587C396.445 231.506 409.886 217.615 426.399 217.615C442.926 217.615 456.365 231.504 456.365 248.587C456.365 265.66 442.924 279.553 426.399 279.553C409.886 279.553 396.445 265.66 396.445 248.587ZM402.079 248.587C402.079 262.547 412.986 273.921 426.399 273.921C439.809 273.921 450.726 262.549 450.726 248.587C450.726 234.613 439.811 223.253 426.399 223.253C412.988 223.253 402.079 234.613 402.079 248.587Z" fill="black"/>
<path d="M436.449 251.216L451.906 243.222L450.803 237.909L434.538 239.559L432.299 238.4L430.088 221.757L427.168 220.963V220.926L427.103 220.945L427.054 220.926V220.963L424.141 221.757L421.91 238.4L419.661 239.559L403.419 237.909L402.309 243.222L417.765 251.216L418.238 253.366L410.905 267.358L416.181 270.341L425.737 259.196H427.054H427.168H428.483L438.041 270.341L443.302 267.358L435.975 253.366L436.449 251.216Z" fill="#A4A2A5"/>
<path d="M441.699 248.586C441.699 257.127 435.058 264.05 426.864 264.05C418.699 264.05 412.059 257.127 412.059 248.586C412.059 240.033 418.699 233.1 426.864 233.1C435.058 233.1 441.699 240.033 441.699 248.586Z" fill="#E0E0E0"/>
<path d="M426.366 220.43C411.539 220.43 399.494 233.013 399.494 248.489C399.494 263.96 411.539 276.544 426.366 276.544C441.17 276.544 453.232 263.96 453.232 248.489C453.232 233.013 441.17 220.43 426.366 220.43ZM426.366 271.767C414.051 271.767 404.083 261.335 404.083 248.489C404.083 235.626 414.049 225.214 426.366 225.214C438.674 225.214 448.651 235.626 448.651 248.489C448.649 261.335 438.674 271.767 426.366 271.767Z" fill="#B2B2B2"/>
<path d="M434.361 248.647C434.361 252.929 431.04 256.396 426.948 256.396C422.841 256.396 419.52 252.929 419.52 248.647C419.52 244.356 422.841 240.893 426.948 240.893C431.042 240.893 434.361 244.356 434.361 248.647Z" fill="#535352"/>
<path d="M430.631 248.727C430.631 250.861 428.966 252.582 426.946 252.582C424.895 252.582 423.246 250.861 423.246 248.727C423.246 246.594 424.895 244.869 426.946 244.869C428.966 244.871 430.631 246.594 430.631 248.727Z" fill="black"/>
<path d="M381.457 254.753L381.545 245.929C381.755 223.86 397.939 205.904 417.602 205.904H429.044C448.926 205.904 465.105 224.065 465.105 246.385V254.706H474.101V246.385C474.101 219.11 453.89 196.913 429.046 196.913H417.604C394.007 195.493 374.344 216.644 372.549 245.845L372.453 254.659L381.457 254.753Z" fill="#161F26"/>
<path d="M388.201 254.754L388.289 245.93C388.507 223.861 404.676 205.905 424.347 205.905H435.79C455.673 205.905 471.848 224.065 471.848 246.386V254.707H480.845V246.386C480.845 219.111 460.635 196.914 435.79 196.914H424.347C399.774 196.914 379.561 218.865 379.299 245.846L379.205 254.66L388.201 254.754Z" fill="#232C33"/>
<path d="M570.276 181.045H248.703V209.173H570.276V181.045Z" fill="#D78E29"/>
<path d="M320.278 178.783H237.914V209.173H320.278V178.783Z" fill="#FBD00D"/>
<path d="M276.788 146.671H188.361V152.843H276.788V146.671Z" fill="#FBD00D"/>
<path d="M276.788 172.605H188.361V178.783H276.788V172.605Z" fill="#FBD00D"/>
<path d="M313.171 209.786H269.385V146.671H285.751L313.171 209.786Z" fill="#FBD00D"/>
<path d="M320.575 209.786H276.791V146.671H293.163L320.575 209.786Z" fill="#D78E29"/>
<path d="M570.279 209.174H200.893V233.55H570.279V209.174Z" fill="#161F26"/>
<path d="M262.299 209.174H200.893V233.55H262.299V209.174Z" fill="#232C33"/>
<path d="M571.028 233.55H218.709V254.171H571.028V233.55Z" fill="#D78E29"/>
<path d="M254.468 233.55H218.709V254.171H254.468V233.55Z" fill="#FBD00D"/>
<path d="M138.158 101.587C138.158 106.578 142.353 110.619 147.535 110.619C152.707 110.619 156.91 106.578 156.91 101.587V95.8075C156.91 90.8172 152.707 86.7812 147.535 86.7812C142.353 86.7812 138.158 90.8153 138.158 95.8075V101.587Z" fill="#D72728"/>
<path d="M135.816 101.587C135.816 106.578 139.815 110.619 144.749 110.619C149.688 110.619 153.687 106.578 153.687 101.587V95.8075C153.687 90.8172 149.688 86.7812 144.749 86.7812C139.815 86.7812 135.816 90.8153 135.816 95.8075V101.587Z" fill="#E93434"/>
<path d="M161.733 101.085C161.733 102.401 160.973 103.468 160.039 103.468H143.936C143.002 103.468 142.244 102.401 142.244 101.085C142.244 99.7644 143.002 98.6992 143.936 98.6992H160.039C160.973 98.6973 161.733 99.7644 161.733 101.085Z" fill="#161F26"/>
<path d="M150.534 101.085C150.534 102.401 149.776 103.468 148.85 103.468H132.738C131.804 103.468 131.045 102.401 131.045 101.085C131.045 99.7644 131.804 98.6992 132.738 98.6992H148.85C149.774 98.6973 150.534 99.7644 150.534 101.085Z" fill="#232C33"/>
<path d="M33.2389 120.574L11.5467 170.498C8.91181 176.556 7.42464 183.05 7.14709 189.647L5.18555 236.972L98.8725 236.381C98.8725 236.381 73.561 175.098 133.261 189.42L132.334 120.574H33.2389Z" fill="#232C33"/>
<path d="M93.7752 255.127L0.847656 255.011V236.381H96.4907L93.7752 255.127Z" fill="#FBD00D"/>
<path d="M132.331 120.574H33.4922L39.2851 108.896C41.8469 103.73 47.1148 100.461 52.8778 100.461H137.094L132.331 120.574Z" fill="#FBD00D"/>
<path d="M118.474 120.574L92.8037 179.663L90.4258 236.974L144.149 239.374C144.149 239.374 158.801 175.1 218.499 189.42L217.573 120.574H118.474Z" fill="#161F26"/>
<path d="M217.575 120.574H118.729L124.981 107.977C127.265 103.373 131.965 100.461 137.1 100.461H217.573L217.575 120.574Z" fill="#D78E29"/>
<path d="M218.481 188.628L219.526 252.877L137.541 253.273C137.541 253.273 138.813 208.383 169.938 195.476C169.938 195.476 197.781 174.094 218.481 188.628Z" fill="#161F26"/>
<path d="M12.6016 176.227L90.4193 177.474L113.477 124.507H35.7829L12.6016 176.227Z" fill="#82D4F6"/>
<path d="M69.2143 187.436H18.7148V230.032H69.2143V187.436Z" fill="#111518"/>
<path d="M69.2165 187.436H23.4316V230.032H69.2165V187.436Z" fill="#161F26"/>
<path d="M33.4903 187.436H29.8203V230.032H33.4903V187.436Z" fill="#232C33"/>
<path d="M47.1311 187.436H43.4609V230.032H47.1311V187.436Z" fill="#232C33"/>
<path d="M60.7716 187.436H57.1016V230.032H60.7716V187.436Z" fill="#232C33"/>
<path d="M219.75 254.842L90.4258 255.011V236.381H219.75V254.842Z" fill="#D78E29"/>
<path d="M90.4194 185.147H65.8672V197.474H90.4194V185.147Z" fill="#D4D8D6"/>
<path d="M84.8083 185.147H65.8672V197.474H84.8083V185.147Z" fill="#F9FCFF"/>
<path d="M25.0172 185.147H3.0625V197.474H25.0172V185.147Z" fill="#D4D8D6"/>
<path d="M19.9894 185.147H3.0625V197.474H19.9894V185.147Z" fill="#F9FCFF"/>
<path d="M77.8275 219.486H12.7715V236.381H77.8275V219.486Z" fill="#D78E29"/>
<path d="M70.3336 219.486H12.7715V236.381H70.3336V219.486Z" fill="#ECBF1C"/>
<path d="M67.5472 222.873H16.5957V233.084H67.5472V222.873Z" fill="#232C33"/>
<g opacity="0.23">
<path d="M91.815 124.615L80.8836 124.375L48.0273 177.53L59.2063 178.078L92.1207 124.814C92.0194 124.743 91.9312 124.677 91.815 124.615Z" fill="white"/>
</g>
<g opacity="0.23">
<path d="M66.2023 177.792H61.6133L94.899 124.406H99.4823L66.2023 177.792Z" fill="white"/>
</g>
<g opacity="0.23">
<path d="M66.0335 124.615L55.0963 124.375L22.2383 177.53L33.4098 178.078L66.3316 124.814C66.2379 124.743 66.1347 124.677 66.0335 124.615Z" fill="white"/>
</g>
<g opacity="0.23">
<path d="M40.4135 177.792H35.832L69.1177 124.406H73.701L40.4135 177.792Z" fill="white"/>
</g>
<path d="M72.9471 148.618L42.709 176.298L44.873 178.662L75.1111 150.982L72.9471 148.618Z" fill="#FBD00D"/>
<path d="M73.6588 149.812L43.459 177.54L45.6265 179.901L75.8263 152.173L73.6588 149.812Z" fill="#D78E29"/>
<path d="M90.4213 176.226H12.6035V180.231H90.4213V176.226Z" fill="#FBD00D"/>
<path d="M205.443 177.44H110.543V236.381H205.443V177.44Z" fill="#232C33"/>
<path d="M126.21 127.771L105.758 177.474L209.427 177.609L207.764 127.739L126.21 127.771Z" fill="#82D4F6"/>
<g opacity="0.23">
<path d="M162.522 127.964L151.592 127.739L118.729 177.209L129.906 177.714L162.82 128.148C162.734 128.081 162.632 128.026 162.522 127.964Z" fill="white"/>
</g>
<g opacity="0.23">
<path d="M136.898 177.441H132.316L165.602 127.771H170.184L136.898 177.441Z" fill="white"/>
</g>
<g opacity="0.23">
<path d="M197.783 127.964L186.846 127.739L153.99 177.209L165.167 177.714L198.084 128.148C197.988 128.081 197.885 128.026 197.783 127.964Z" fill="white"/>
</g>
<g opacity="0.23">
<path d="M172.156 177.44H167.572L200.86 127.77H205.443L172.156 177.44Z" fill="white"/>
</g>
<path d="M120.829 183.565H116.422V227.933H120.829V183.565Z" fill="#161F26"/>
<path d="M212.531 254.707L124.367 254.814C124.367 254.814 114.998 213.243 145.921 205.444C145.921 205.444 229.619 191.315 212.531 254.707Z" fill="#181A19"/>
<path d="M202.882 246.57C202.882 267.096 188.494 284.462 167.537 284.899C143.006 285.435 126.939 267.096 126.939 246.57C126.939 226.024 141.372 210.156 165.043 209.89C186.007 209.667 202.882 226.024 202.882 246.57Z" fill="#3C3D3D"/>
<path d="M207.101 247.894C207.101 268.019 190.887 284.338 170.875 284.338C150.875 284.338 134.662 268.02 134.662 247.894C134.662 227.777 150.875 211.458 170.875 211.458C190.887 211.458 207.101 227.777 207.101 247.894Z" fill="#2C2C2C"/>
<path d="M197.319 248.679C197.319 263.252 185.988 275.072 172.043 275.072C158.079 275.072 146.76 263.252 146.76 248.679C146.76 234.113 158.078 222.279 172.043 222.279C185.988 222.279 197.319 234.113 197.319 248.679Z" fill="black"/>
<path d="M141.543 248.588C141.543 231.507 154.982 217.616 171.502 217.616C188.029 217.616 201.462 231.505 201.462 248.588C201.462 265.661 188.031 279.554 171.502 279.554C154.982 279.554 141.543 265.661 141.543 248.588ZM147.173 248.588C147.173 262.548 158.089 273.922 171.5 273.922C184.911 273.922 195.821 262.55 195.821 248.588C195.821 234.614 184.912 223.254 171.5 223.254C158.091 223.254 147.173 234.614 147.173 248.588Z" fill="black"/>
<path d="M181.553 251.217L197.013 243.223L195.903 237.91L179.64 239.56L177.408 238.401L175.195 221.758L172.277 220.964V220.927L172.212 220.946L172.154 220.927V220.964L169.249 221.758L167.009 238.401L164.768 239.56L148.526 237.91L147.41 243.223L162.865 251.217L163.347 253.367L156.005 267.359L161.282 270.342L170.848 259.197H172.154H172.277H173.583L183.149 270.342L188.411 267.359L181.078 253.367L181.553 251.217Z" fill="#A4A2A5"/>
<path d="M186.802 248.587C186.802 257.127 180.163 264.051 171.97 264.051C163.797 264.051 157.164 257.127 157.164 248.587C157.164 240.034 163.795 233.101 171.97 233.101C180.163 233.101 186.802 240.034 186.802 248.587Z" fill="#E0E0E0"/>
<path d="M171.466 220.431C156.647 220.431 144.592 233.014 144.592 248.49C144.592 263.961 156.647 276.545 171.466 276.545C186.277 276.545 198.338 263.961 198.338 248.49C198.338 233.014 186.275 220.431 171.466 220.431ZM171.466 271.768C159.156 271.768 149.181 261.336 149.181 248.49C149.181 235.626 159.154 225.215 171.466 225.215C183.774 225.215 193.756 235.626 193.756 248.49C193.754 261.336 183.774 271.768 171.466 271.768Z" fill="#B2B2B2"/>
<path d="M179.463 248.648C179.463 252.93 176.143 256.397 172.042 256.397C167.935 256.397 164.615 252.93 164.615 248.648C164.615 244.357 167.935 240.894 172.042 240.894C176.143 240.894 179.463 244.357 179.463 248.648Z" fill="#535352"/>
<path d="M175.733 248.728C175.733 250.862 174.069 252.583 172.04 252.583C169.99 252.583 168.34 250.862 168.34 248.728C168.34 246.595 169.99 244.87 172.04 244.87C174.069 244.872 175.733 246.595 175.733 248.728Z" fill="black"/>
<path d="M126.555 254.754L126.641 245.93C126.86 223.861 143.035 205.905 162.702 205.905H174.142C194.034 205.905 210.209 224.065 210.209 246.386V254.707H219.199V246.386C219.199 219.111 198.988 196.914 174.144 196.914H162.704C139.114 195.494 119.443 216.645 117.647 245.846L117.561 254.66L126.555 254.754Z" fill="#161F26"/>
<path d="M133.293 254.755L133.381 245.931C133.6 223.862 149.777 205.906 169.448 205.906H180.882C200.772 205.906 216.949 224.066 216.949 246.387V254.708H225.937V246.387C225.937 219.112 205.727 196.915 180.882 196.915H169.448C144.866 196.915 124.655 218.866 124.393 245.847L124.297 254.661L133.293 254.755Z" fill="#232C33"/>
<path d="M392.744 254.706L304.58 254.813C304.58 254.813 295.203 213.242 326.134 205.443C326.134 205.443 409.832 191.314 392.744 254.706Z" fill="#181A19"/>
<path d="M383.089 246.569C383.089 267.095 368.709 284.461 347.752 284.898C323.213 285.434 307.146 267.095 307.146 246.569C307.146 226.023 321.587 210.155 345.257 209.889C366.213 209.666 383.089 226.023 383.089 246.569Z" fill="#3C3D3D"/>
<path d="M387.307 247.893C387.307 268.018 371.092 284.337 351.088 284.337C331.087 284.337 314.875 268.019 314.875 247.893C314.875 227.776 331.086 211.457 351.088 211.457C371.094 211.457 387.307 227.776 387.307 247.893Z" fill="#2C2C2C"/>
<path d="M377.519 248.678C377.519 263.251 366.188 275.071 352.25 275.071C338.279 275.071 326.969 263.251 326.969 248.678C326.969 234.112 338.279 222.278 352.25 222.278C366.188 222.278 377.519 234.112 377.519 248.678Z" fill="black"/>
<path d="M321.742 248.587C321.742 231.506 335.188 217.615 351.708 217.615C368.23 217.615 381.669 231.504 381.669 248.587C381.669 265.66 368.23 279.553 351.708 279.553C335.188 279.553 321.742 265.66 321.742 248.587ZM327.381 248.587C327.381 262.547 338.298 273.921 351.708 273.921C365.119 273.921 376.03 262.549 376.03 248.587C376.03 234.613 365.121 223.253 351.708 223.253C338.3 223.253 327.381 234.613 327.381 248.587Z" fill="black"/>
<path d="M361.758 251.216L377.213 243.222L376.11 237.909L359.84 239.559L357.606 238.4L355.403 221.757L352.484 220.963V220.926L352.411 220.945L352.361 220.926V220.963L349.448 221.757L347.215 238.4L344.976 239.559L328.726 237.909L327.617 243.222L343.072 251.216L343.552 253.366L336.212 267.358L341.489 270.341L351.053 259.196H352.361H352.484H353.79L363.348 270.341L368.616 267.358L361.284 253.366L361.758 251.216Z" fill="#A4A2A5"/>
<path d="M367.002 248.586C367.002 257.127 360.363 264.05 352.177 264.05C344.004 264.05 337.371 257.127 337.371 248.586C337.371 240.033 344.002 233.1 352.177 233.1C360.363 233.1 367.002 240.033 367.002 248.586Z" fill="#E0E0E0"/>
<path d="M351.673 220.43C336.846 220.43 324.799 233.013 324.799 248.489C324.799 263.96 336.846 276.544 351.673 276.544C366.482 276.544 378.537 263.96 378.537 248.489C378.539 233.013 366.484 220.43 351.673 220.43ZM351.673 271.767C339.355 271.767 329.388 261.335 329.388 248.489C329.388 235.626 339.353 225.214 351.673 225.214C363.981 225.214 373.963 235.626 373.963 248.489C373.963 261.335 363.982 271.767 351.673 271.767Z" fill="#B2B2B2"/>
<path d="M359.666 248.648C359.666 252.93 356.345 256.397 352.253 256.397C348.146 256.397 344.826 252.93 344.826 248.648C344.826 244.357 348.146 240.894 352.253 240.894C356.347 240.894 359.666 244.357 359.666 248.648Z" fill="#535352"/>
<path d="M355.938 248.727C355.938 250.861 354.274 252.582 352.253 252.582C350.203 252.582 348.553 250.861 348.553 248.727C348.553 246.594 350.203 244.869 352.253 244.869C354.274 244.871 355.938 246.594 355.938 248.727Z" fill="black"/>
<path d="M306.758 254.753L306.846 245.929C307.073 223.86 323.241 205.904 342.913 205.904H354.355C374.239 205.904 390.414 224.065 390.414 246.385V254.706H399.412V246.385C399.412 219.11 379.194 196.913 354.356 196.913H342.915C319.31 195.493 299.654 216.644 297.86 245.845L297.771 254.659L306.758 254.753Z" fill="#161F26"/>
<path d="M313.5 254.754L313.594 245.93C313.806 223.861 329.99 205.905 349.655 205.905H361.097C380.981 205.905 397.164 224.065 397.164 246.386V254.707H406.145V246.386C406.145 219.111 385.941 196.914 361.097 196.914H349.655C325.079 196.914 304.861 218.865 304.6 245.846L304.512 254.66L313.5 254.754Z" fill="#232C33"/>
<path d="M553.367 254.707L465.195 254.814C465.195 254.814 455.826 213.243 486.756 205.444C486.756 205.444 570.457 191.315 553.367 254.707Z" fill="#181A19"/>
<path d="M543.708 246.569C543.708 267.095 529.326 284.461 508.371 284.898C483.84 285.434 467.773 267.095 467.773 246.569C467.773 226.023 482.206 210.155 505.875 209.889C526.832 209.666 543.708 226.023 543.708 246.569Z" fill="#3C3D3D"/>
<path d="M547.928 247.893C547.928 268.018 531.713 284.337 511.705 284.337C491.706 284.337 475.492 268.019 475.492 247.893C475.492 227.776 491.706 211.457 511.705 211.457C531.713 211.457 547.928 227.776 547.928 247.893Z" fill="#2C2C2C"/>
<path d="M538.14 248.678C538.14 263.251 526.817 275.071 512.872 275.071C498.906 275.071 487.588 263.251 487.588 248.678C487.588 234.112 498.904 222.278 512.872 222.278C526.817 222.278 538.14 234.112 538.14 248.678Z" fill="black"/>
<path d="M482.375 248.587C482.375 231.506 495.816 217.615 512.328 217.615C528.856 217.615 542.294 231.504 542.294 248.587C542.294 265.66 528.854 279.553 512.328 279.553C495.816 279.553 482.375 265.66 482.375 248.587ZM488.009 248.587C488.009 262.547 498.916 273.921 512.328 273.921C525.739 273.921 536.655 262.549 536.655 248.587C536.655 234.613 525.741 223.253 512.328 223.253C498.916 223.253 488.009 234.613 488.009 248.587Z" fill="black"/>
<path d="M522.377 251.216L537.832 243.222L536.729 237.909L520.464 239.559L518.225 238.4L516.014 221.757L513.096 220.963V220.926L513.031 220.945L512.98 220.926V220.963L510.067 221.757L507.836 238.4L505.589 239.559L489.347 237.909L488.238 243.222L503.691 251.216L504.166 253.366L496.833 267.358L502.107 270.341L511.667 259.196H512.98H513.096H514.411L523.968 270.341L529.228 267.358L521.903 253.366L522.377 251.216Z" fill="#A4A2A5"/>
<path d="M527.624 248.586C527.624 257.127 520.984 264.05 512.79 264.05C504.625 264.05 497.986 257.127 497.986 248.586C497.986 240.033 504.627 233.1 512.79 233.1C520.984 233.1 527.624 240.033 527.624 248.586Z" fill="#E0E0E0"/>
<path d="M512.3 220.43C497.473 220.43 485.428 233.013 485.428 248.489C485.428 263.96 497.473 276.544 512.3 276.544C527.106 276.544 539.166 263.96 539.166 248.489C539.166 233.013 527.104 220.43 512.3 220.43ZM512.3 271.767C499.984 271.767 490.017 261.335 490.017 248.489C490.017 235.626 499.984 225.214 512.3 225.214C524.608 225.214 534.585 235.626 534.585 248.489C534.585 261.335 524.608 271.767 512.3 271.767Z" fill="#B2B2B2"/>
<path d="M520.287 248.648C520.287 252.93 516.966 256.397 512.874 256.397C508.767 256.397 505.445 252.93 505.445 248.648C505.445 244.357 508.767 240.894 512.874 240.894C516.966 240.894 520.287 244.357 520.287 248.648Z" fill="#535352"/>
<path d="M516.557 248.727C516.557 250.861 514.894 252.582 512.872 252.582C510.82 252.582 509.172 250.861 509.172 248.727C509.172 246.594 510.82 244.869 512.872 244.869C514.895 244.871 516.557 246.594 516.557 248.727Z" fill="black"/>
<path d="M467.383 254.753L467.471 245.929C467.681 223.86 483.865 205.904 503.528 205.904H514.97C534.854 205.904 551.031 224.065 551.031 246.385V254.706H560.027V246.385C560.027 219.11 539.816 196.913 514.971 196.913H503.53C479.934 195.493 460.269 216.644 458.475 245.845L458.379 254.659L467.383 254.753Z" fill="#161F26"/>
<path d="M474.123 254.754L474.211 245.93C474.431 223.861 490.598 205.905 510.272 205.905H521.714C541.597 205.905 557.773 224.065 557.773 246.386V254.707H566.771V246.386C566.771 219.111 546.561 196.914 521.716 196.914H510.274C485.7 196.914 465.487 218.865 465.226 245.846L465.131 254.66L474.123 254.754Z" fill="#232C33"/>
</svg>
