<svg width="577" height="209" viewBox="0 0 577 209" fill="none" xmlns="http://www.w3.org/2000/svg">
<path d="M549.821 130.65V157.98C549.821 164.62 544.441 170 537.801 170H12.1411C5.50109 170 0.121094 164.62 0.121094 157.98V51.43C0.121094 49.83 0.441091 48.24 1.07109 46.76L17.7211 7.34C17.8711 6.99 18.0311 6.64 18.2211 6.31C20.3011 2.45 24.3411 0 28.7911 0H354.821C432.282 63.789 446.984 75.892 507.821 126C521.701 127.63 535.741 128.76 549.821 130.65Z" fill="#FF0000"/>
<path d="M549.821 130.65L486.371 108.333C458.61 85.538 420.386 54.041 354.761 0H28.7312C24.2812 0 20.2412 2.45 18.1612 6.31C17.8452 6.86 18.9202 4.348 1.01124 46.76C-0.737761 50.87 0.385235 46.991 0.0612349 157.98C0.0612349 164.62 5.44124 170 12.0812 170H537.741C544.381 170 549.761 164.62 549.761 157.98V130.704L549.821 130.65Z" fill="#EA0707"/>
<path d="M82.862 0C85.052 49.38 92.832 123.82 118.692 170H12.082C5.44199 170 0.0619826 164.62 0.0619826 157.98C0.384983 46.991 -0.738013 50.87 1.01199 46.76C18.921 4.348 17.845 6.861 18.162 6.31C20.242 2.45 24.282 0 28.732 0H82.862Z" fill="#AA0505"/>
<path d="M377.932 39H35.8723C33.8723 35.65 32.3223 32.01 31.2823 28.15C30.3323 24.59 29.8223 20.86 29.8223 17H350.822C358.081 22.891 369.481 32.142 377.932 39Z" fill="#B69FBC"/>
<path opacity="0.74" d="M364.562 28.15H31.2823C30.3323 24.59 29.8223 20.86 29.8223 17H349.282L352.242 18.15L364.562 28.15Z" fill="#B69FBC"/>
<path d="M403.821 60.0101H72.8311C62.0611 60.0101 52.2111 56.0501 44.6711 49.5001C41.2011 46.5001 38.2311 42.9501 35.8711 39.0001H377.931C380.588 41.1561 368.341 31.2181 403.821 60.0101Z" fill="#857489"/>
<path d="M403.822 60.01H72.8319C62.0619 60.01 52.2119 56.05 44.6719 49.5H52.1919V35.5C54.9419 35.5 57.3619 36.89 58.8119 39C59.6819 40.28 60.1919 41.83 60.1919 43.5V49.5H87.4919V35.5C90.2419 35.5 92.6619 36.89 94.1119 39C94.9819 40.28 95.4919 41.83 95.4919 43.5V49.5H122.802V35.5C125.542 35.5 127.972 36.89 129.412 39C130.292 40.28 130.802 41.83 130.802 43.5V49.5H158.102V35.5C160.852 35.5 163.272 36.89 164.712 39C165.592 40.28 166.102 41.83 166.102 43.5V49.5H193.412V35.5C196.152 35.5 198.582 36.89 200.022 39C200.902 40.28 201.412 41.83 201.412 43.5V49.5H228.712V35.5C231.462 35.5 233.882 36.89 235.332 39C236.202 40.28 236.712 41.83 236.712 43.5V49.5H264.022V35.5C266.762 35.5 269.192 36.89 270.632 39C271.512 40.28 272.022 41.83 272.022 43.5V49.5H299.322V35.5C302.072 35.5 304.492 36.89 305.932 39C306.812 40.28 307.322 41.83 307.322 43.5V49.5H334.622V35.5C337.372 35.5 339.802 36.89 341.242 39C342.122 40.28 342.632 41.83 342.632 43.5V49.5H369.932V35.5C374.304 35.5 377.932 39.034 377.932 43.5V49.5H390.872L403.822 60.01Z" fill="#3D323F"/>
<path d="M450.014 103.355H107.954C105.954 100.005 104.404 96.365 103.364 92.505C102.414 88.945 101.904 85.215 101.904 81.355H422.904C430.163 87.246 441.563 96.497 450.014 103.355Z" fill="#B69FBC"/>
<path opacity="0.74" d="M436.644 92.505H103.364C102.414 88.945 101.904 85.215 101.904 81.355H421.364L424.324 82.505L436.644 92.505Z" fill="#B69FBC"/>
<path d="M475.905 124.365H144.915C134.145 124.365 124.295 120.405 116.755 113.855C113.285 110.855 110.315 107.305 107.955 103.355H450.015C452.672 105.511 440.425 95.5731 475.905 124.365Z" fill="#857489"/>
<path d="M422.904 81.355C408.026 81.355 115.551 81.355 101.904 81.355C101.904 85.215 102.414 88.945 103.364 92.505C104.404 96.365 105.954 100.005 107.954 103.355C110.314 107.305 113.284 110.855 116.754 113.855C124.294 120.405 134.144 124.365 144.914 124.365H475.904C466.099 116.407 460.972 112.247 422.904 81.355Z" fill="#D0ADD8"/>
<path d="M475.906 124.365H144.916C134.146 124.365 124.296 120.405 116.756 113.855H124.276V99.855C127.026 99.855 129.446 101.245 130.896 103.355C131.766 104.635 132.276 106.185 132.276 107.855V113.855H159.576V99.855C162.326 99.855 164.746 101.245 166.196 103.355C167.066 104.635 167.576 106.185 167.576 107.855V113.855H194.886V99.855C197.626 99.855 200.056 101.245 201.496 103.355C202.376 104.635 202.886 106.185 202.886 107.855V113.855H230.186V99.855C232.936 99.855 235.356 101.245 236.796 103.355C237.676 104.635 238.186 106.185 238.186 107.855V113.855H265.496V99.855C268.236 99.855 270.666 101.245 272.106 103.355C272.986 104.635 273.496 106.185 273.496 107.855V113.855H300.796V99.855C303.546 99.855 305.966 101.245 307.416 103.355C308.286 104.635 308.796 106.185 308.796 107.855V113.855H336.106V99.855C338.846 99.855 341.276 101.245 342.716 103.355C343.596 104.635 344.106 106.185 344.106 107.855V113.855H371.406V99.855C374.156 99.855 376.576 101.245 378.016 103.355C378.896 104.635 379.406 106.185 379.406 107.855V113.855H406.706V99.855C409.456 99.855 411.886 101.245 413.326 103.355C414.206 104.635 414.716 106.185 414.716 107.855V113.855H442.016V99.855C446.388 99.855 450.016 103.389 450.016 107.855V113.855H462.956L475.906 124.365Z" fill="#3D323F"/>
<path d="M123.822 60.0059L162.489 79.8699H321.732L297.155 60.0059H123.822Z" fill="#332D2D"/>
<path d="M549.822 130.65L486.372 108.33C431.365 63.033 391.805 30.45 354.822 0H499.982C507.142 0 510.142 5.75 510.782 6.31C512.23 8.149 534.273 36.214 535.542 37.83C547.863 53.508 549.238 54.272 549.753 58.84C549.881 59.972 549.801 55.707 549.822 130.65Z" fill="#3B333D"/>
<path d="M423.435 79.855H100.404V81.355C100.404 85.254 100.912 89.136 101.916 92.895C102.982 96.852 104.581 100.63 106.667 104.124C109.121 108.231 112.185 111.887 115.771 114.987C123.846 122.002 134.196 125.864 144.915 125.864H480.134L423.435 79.855ZM117.735 112.72C114.389 109.827 111.531 106.417 109.242 102.586C107.297 99.329 105.807 95.806 104.813 92.118C104.006 89.096 103.543 85.987 103.431 82.855H422.373L471.676 122.865H144.914C134.918 122.865 125.267 119.263 117.735 112.72Z" fill="#1E0923"/>
<path d="M351.353 15.5H28.3223V17C28.3223 20.899 28.8303 24.781 29.8343 28.54C30.9003 32.497 32.4993 36.275 34.5843 39.769C37.0383 43.876 40.1023 47.532 43.6883 50.632C51.7633 57.647 62.1133 61.51 72.8323 61.51H408.051L351.353 15.5ZM45.6533 48.365C42.3073 45.472 39.4493 42.062 37.1603 38.231C35.2153 34.974 33.7253 31.451 32.7313 27.763C31.9243 24.741 31.4613 21.632 31.3493 18.5H350.291L399.594 58.51H72.8323C62.8363 58.51 53.1853 54.908 45.6533 48.365Z" fill="#1E0923"/>
<path d="M535.543 37.8302H400.763C400.65 37.7372 374.218 15.9742 374.043 15.8302H518.263C520.03 18.0812 511.861 7.68015 535.543 37.8302Z" fill="#B69FBC"/>
<path opacity="0.74" d="M527.023 26.9801H387.593C383.263 23.4201 378.743 19.7001 374.043 15.8301H518.263L527.023 26.9801Z" fill="#B69FBC"/>
<path d="M549.752 58.8401H426.272C419.532 53.2771 403.257 39.8811 400.762 37.8301H535.542C545.688 51.4871 549.114 53.1761 549.752 58.8401Z" fill="#857489"/>
<path d="M549.751 58.8401H426.271C420.771 54.3001 414.781 49.3701 408.271 44.0101V34.3301C412.641 34.3301 416.271 37.8811 416.271 42.3301V48.3301H443.571V34.3301C447.982 34.3301 451.571 37.9171 451.571 42.3301V48.3301H478.881V34.3301C483.251 34.3301 486.881 37.8811 486.881 42.3301V48.3301H514.181V34.3301C518.553 34.3301 522.181 37.8641 522.181 42.3301V48.3301H543.791C546.156 51.7651 549.184 53.8091 549.751 58.8401Z" fill="#3D323F"/>
<path d="M357.173 0C375.583 15.144 428.677 58.878 481.323 102.23C483.223 103.8 485.163 105.39 487.123 107.01L520.703 118.97L549.823 129.34C549.823 129.691 549.823 132.623 549.823 132.52C547.93 131.846 541.342 129.5 541.763 129.65H541.753L520.703 122.15L489.763 111.12H489.753L485.623 109.65C485.046 109.176 352.563 0.082 352.463 0H357.173Z" fill="#0F0511"/>
<path d="M299.154 125.85L357.154 170H519.821L465.821 125.85H299.154Z" fill="#332D2D"/>
<path d="M185.369 132.592H184.73C164.07 132.592 147.322 149.34 147.322 170H222.777C222.777 149.34 206.029 132.592 185.369 132.592Z" fill="#0E0814"/>
<path d="M437.051 132.592H436.412C415.752 132.592 399.004 149.34 399.004 170H474.459C474.46 149.34 457.712 132.592 437.051 132.592Z" fill="#0E0814"/>
<path d="M95.7244 132.592C75.0644 132.592 58.3164 149.34 58.3164 170H137.071V169.421C137.071 149.081 120.582 132.592 100.242 132.592H95.7244Z" fill="#0E0814"/>
<path d="M520.702 170H481.322V95.4528C481.322 85.8538 489.103 78.0718 498.702 78.0718H520.702V170Z" fill="#EA0707"/>
<path d="M516.488 141H485.488V98.333C485.488 90.969 491.458 85 498.821 85H516.488V141Z" fill="#3D323F"/>
<path d="M523.488 78.0718H520.701V170H523.488V78.0718Z" fill="#160A0A"/>
<path d="M549.752 78.0719H447.273L438.295 70.6789V66.7959H549.752V78.0719Z" fill="#160A0A"/>
<path d="M549.161 78.0721H517.822V64.2881H549.161C551.597 64.2881 553.572 66.2631 553.572 68.6991V73.6611C553.572 76.0981 551.597 78.0721 549.161 78.0721Z" fill="#EA0707"/>
<path d="M572.112 89.9662L571.51 79.7372C571.491 79.4062 571.361 79.0902 571.142 78.8392L566.214 73.1942C565.929 72.8682 565.517 72.6812 565.084 72.6812H542.822C541.994 72.6812 541.322 72.0102 541.322 71.1812V71.1801C541.322 70.3521 541.993 69.6812 542.822 69.6812H566.447C566.88 69.6812 567.292 69.8682 567.577 70.1942L574.077 77.6392C574.296 77.8902 574.425 78.2052 574.445 78.5372L575.106 89.7901C575.154 90.6171 574.523 91.3272 573.697 91.3752C572.87 91.4232 572.16 90.7932 572.112 89.9662Z" fill="#EA0707"/>
<path d="M569.548 104.042C567.275 103.774 565.65 101.715 565.918 99.4421L567.786 83.5681C568.054 81.2961 570.113 79.6701 572.386 79.9381C574.658 80.2051 576.284 82.2651 576.016 84.5371L574.148 100.411C573.88 102.684 571.821 104.309 569.548 104.042Z" fill="#EA0707"/>
<path d="M573.246 91.3562C572.68 96.1612 571.407 99.9612 570.401 99.8422C569.396 99.7242 569.039 95.7322 569.604 90.9272C570.17 86.1222 571.443 82.3222 572.449 82.4412C573.455 82.5602 573.812 86.5512 573.246 91.3562Z" fill="#FC4444"/>
<path d="M101.822 209C120.6 209 135.822 193.778 135.822 175C135.822 156.222 120.6 141 101.822 141C83.0446 141 67.8223 156.222 67.8223 175C67.8223 193.778 83.0446 209 101.822 209Z" fill="#4E4D56"/>
<path d="M101.823 197.938C114.491 197.938 124.761 187.668 124.761 175C124.761 162.332 114.491 152.062 101.823 152.062C89.1545 152.062 78.8848 162.332 78.8848 175C78.8848 187.668 89.1545 197.938 101.823 197.938Z" fill="#352E3A"/>
<path d="M101.822 197C113.973 197 123.822 187.15 123.822 175C123.822 162.85 113.973 153 101.822 153C89.672 153 79.8223 162.85 79.8223 175C79.8223 187.15 89.672 197 101.822 197Z" fill="#9F91A8"/>
<path d="M101.821 193.167C111.855 193.167 119.988 185.033 119.988 175C119.988 164.967 111.855 156.833 101.821 156.833C91.7879 156.833 83.6543 164.967 83.6543 175C83.6543 185.033 91.7879 193.167 101.821 193.167Z" fill="#9F91A8"/>
<path d="M101.822 187.834C108.91 187.834 114.656 182.088 114.656 175C114.656 167.912 108.91 162.166 101.822 162.166C94.7343 162.166 88.9883 167.912 88.9883 175C88.9883 182.088 94.7343 187.834 101.822 187.834Z" fill="#9F91A8"/>
<path d="M101.822 185.99C107.892 185.99 112.812 181.069 112.812 175C112.812 168.93 107.892 164.01 101.822 164.01C95.7524 164.01 90.832 168.93 90.832 175C90.832 181.069 95.7524 185.99 101.822 185.99Z" fill="#817789"/>
<path d="M103.386 168.594C103.386 169.474 102.532 170.188 101.48 170.188C100.427 170.188 99.5742 169.475 99.5742 168.594C99.5742 167.714 100.428 167 101.48 167C102.532 167 103.386 167.713 103.386 168.594Z" fill="#4E4D56"/>
<path d="M103.386 182.906C103.386 183.786 102.532 184.5 101.48 184.5C100.427 184.5 99.5742 183.787 99.5742 182.906C99.5742 182.026 100.428 181.312 101.48 181.312C102.532 181.313 103.386 182.026 103.386 182.906Z" fill="#4E4D56"/>
<path d="M108.729 173.938C107.849 173.938 107.135 174.792 107.135 175.844C107.135 176.897 107.848 177.75 108.729 177.75C109.609 177.75 110.323 176.897 110.323 175.844C110.323 174.791 109.61 173.938 108.729 173.938Z" fill="#4E4D56"/>
<path d="M94.4163 173.938C93.5363 173.938 92.8223 174.792 92.8223 175.844C92.8223 176.897 93.5353 177.75 94.4163 177.75C95.2963 177.75 96.0103 176.897 96.0103 175.844C96.0103 174.791 95.2963 173.938 94.4163 173.938Z" fill="#4E4D56"/>
<path d="M185.654 209C204.432 209 219.654 193.778 219.654 175C219.654 156.222 204.432 141 185.654 141C166.877 141 151.654 156.222 151.654 175C151.654 193.778 166.877 209 185.654 209Z" fill="#4E4D56"/>
<path d="M185.655 197.938C198.323 197.938 208.593 187.668 208.593 175C208.593 162.332 198.323 152.062 185.655 152.062C172.986 152.062 162.717 162.332 162.717 175C162.717 187.668 172.986 197.938 185.655 197.938Z" fill="#352E3A"/>
<path d="M185.654 197C197.805 197 207.654 187.15 207.654 175C207.654 162.85 197.805 153 185.654 153C173.504 153 163.654 162.85 163.654 175C163.654 187.15 173.504 197 185.654 197Z" fill="#9F91A8"/>
<path d="M203.822 175C203.822 185.033 195.688 193.167 185.655 193.167C175.622 193.167 167.488 185.034 167.488 175C167.488 164.966 175.621 156.833 185.655 156.833C195.689 156.833 203.822 164.967 203.822 175Z" fill="#9F91A8"/>
<path d="M198.486 175C198.486 182.088 192.74 187.833 185.653 187.833C178.566 187.833 172.82 182.087 172.82 175C172.82 167.912 178.566 162.167 185.653 162.167C192.741 162.167 198.486 167.912 198.486 175Z" fill="#9F91A8"/>
<path d="M196.644 175C196.644 181.069 191.724 185.99 185.654 185.99C179.585 185.99 174.664 181.069 174.664 175C174.664 168.93 179.584 164.01 185.654 164.01C191.724 164.01 196.644 168.93 196.644 175Z" fill="#817789"/>
<path d="M187.218 168.594C187.218 169.474 186.364 170.188 185.312 170.188C184.259 170.188 183.406 169.475 183.406 168.594C183.406 167.714 184.259 167 185.312 167C186.364 167 187.218 167.713 187.218 168.594Z" fill="#4E4D56"/>
<path d="M187.218 182.906C187.218 183.786 186.364 184.5 185.312 184.5C184.259 184.5 183.406 183.787 183.406 182.906C183.406 182.026 184.259 181.312 185.312 181.312C186.364 181.313 187.218 182.026 187.218 182.906Z" fill="#4E4D56"/>
<path d="M192.561 173.938C191.681 173.938 190.967 174.792 190.967 175.844C190.967 176.897 191.681 177.75 192.561 177.75C193.441 177.75 194.155 176.897 194.155 175.844C194.155 174.791 193.442 173.938 192.561 173.938Z" fill="#4E4D56"/>
<path d="M178.248 173.938C177.368 173.938 176.654 174.792 176.654 175.844C176.654 176.897 177.368 177.75 178.248 177.75C179.128 177.75 179.842 176.897 179.842 175.844C179.842 174.791 179.128 173.938 178.248 173.938Z" fill="#4E4D56"/>
<path d="M436.732 209C455.51 209 470.732 193.778 470.732 175C470.732 156.222 455.51 141 436.732 141C417.955 141 402.732 156.222 402.732 175C402.732 193.778 417.955 209 436.732 209Z" fill="#4E4D56"/>
<path d="M436.733 197.938C449.401 197.938 459.671 187.668 459.671 175C459.671 162.332 449.401 152.062 436.733 152.062C424.065 152.062 413.795 162.332 413.795 175C413.795 187.668 424.065 197.938 436.733 197.938Z" fill="#352E3A"/>
<path d="M436.732 197C448.883 197 458.732 187.15 458.732 175C458.732 162.85 448.883 153 436.732 153C424.582 153 414.732 162.85 414.732 175C414.732 187.15 424.582 197 436.732 197Z" fill="#9F91A8"/>
<path d="M454.9 175C454.9 185.033 446.767 193.167 436.733 193.167C426.7 193.167 418.566 185.034 418.566 175C418.566 164.966 426.7 156.833 436.733 156.833C446.766 156.833 454.9 164.967 454.9 175Z" fill="#9F91A8"/>
<path d="M449.566 175C449.566 182.088 443.82 187.833 436.733 187.833C429.645 187.833 423.9 182.087 423.9 175C423.9 167.912 429.646 162.167 436.733 162.167C443.821 162.167 449.566 167.912 449.566 175Z" fill="#9F91A8"/>
<path d="M447.722 175C447.722 181.069 442.802 185.99 436.732 185.99C430.662 185.99 425.742 181.069 425.742 175C425.742 168.93 430.662 164.01 436.732 164.01C442.801 164.01 447.722 168.93 447.722 175Z" fill="#817789"/>
<path d="M438.296 168.594C438.296 169.474 437.442 170.188 436.39 170.188C435.337 170.188 434.484 169.475 434.484 168.594C434.484 167.714 435.338 167 436.39 167C437.442 167 438.296 167.713 438.296 168.594Z" fill="#4E4D56"/>
<path d="M438.296 182.906C438.296 183.786 437.442 184.5 436.39 184.5C435.337 184.5 434.484 183.787 434.484 182.906C434.484 182.026 435.338 181.312 436.39 181.312C437.442 181.313 438.296 182.026 438.296 182.906Z" fill="#4E4D56"/>
<path d="M443.639 173.938C442.759 173.938 442.045 174.792 442.045 175.844C442.045 176.897 442.758 177.75 443.639 177.75C444.519 177.75 445.233 176.897 445.233 175.844C445.233 174.791 444.519 173.938 443.639 173.938Z" fill="#4E4D56"/>
<path d="M429.326 173.938C428.446 173.938 427.732 174.792 427.732 175.844C427.732 176.897 428.445 177.75 429.326 177.75C430.206 177.75 430.92 176.897 430.92 175.844C430.92 174.791 430.206 173.938 429.326 173.938Z" fill="#4E4D56"/>
<path d="M510.783 6.31H18.2227C20.3027 2.45 24.3427 0 28.7927 0H499.983C503.673 0 507.153 1.69 509.433 4.59L510.783 6.31Z" fill="#160A0A"/>
<path opacity="0.32" d="M319.212 0L312.902 6.31H296.582L302.892 0H319.212Z" fill="#FFFEE9"/>
<path opacity="0.32" d="M295.502 0L289.192 6.31H282.422L288.732 0H295.502Z" fill="#FFFEE9"/>
<path opacity="0.32" d="M284.191 0L277.881 6.31H271.121L277.431 0H284.191Z" fill="#FFFEE9"/>
<path d="M80.1297 102.86H24.2497C20.9207 102.86 18.2227 100.162 18.2227 96.834H86.1567C86.1557 100.162 83.4577 102.86 80.1297 102.86Z" fill="#7C0808"/>
<path d="M80.1297 111.193H24.2497C20.9207 111.193 18.2227 108.495 18.2227 105.166H86.1567C86.1557 108.495 83.4577 111.193 80.1297 111.193Z" fill="#7C0808"/>
<path d="M80.1297 118.86H24.2497C20.9207 118.86 18.2227 116.162 18.2227 112.834H86.1567C86.1557 116.162 83.4577 118.86 80.1297 118.86Z" fill="#7C0808"/>
<path d="M273.118 132.092H244.526C240.416 132.092 237.072 135.436 237.072 139.546V170H238.072V139.546C238.072 135.987 240.967 133.092 244.526 133.092H273.118C276.677 133.092 279.572 135.988 279.572 139.546V170H280.572V139.546C280.572 135.436 277.228 132.092 273.118 132.092Z" fill="#AA0505"/>
<path d="M321.618 132.092H293.026C288.916 132.092 285.572 135.436 285.572 139.546V170H286.572V139.546C286.572 135.987 289.467 133.092 293.026 133.092H321.618C325.177 133.092 328.072 135.988 328.072 139.546V170H329.072V139.546C329.072 135.436 325.728 132.092 321.618 132.092Z" fill="#AA0505"/>
<path d="M369.118 132.092H340.526C336.416 132.092 333.072 135.436 333.072 139.546V170H334.072V139.546C334.072 135.987 336.967 133.092 340.526 133.092H369.118C372.677 133.092 375.572 135.988 375.572 139.546V170H376.572V139.546C376.572 135.436 373.228 132.092 369.118 132.092Z" fill="#AA0505"/>
</svg>
