<svg width="572" height="174" viewBox="0 0 572 174" fill="none" xmlns="http://www.w3.org/2000/svg">
<path d="M555.25 112.717C555.25 112.717 557.894 95.1728 550.684 90.8468C543.474 86.5208 522.93 87.2459 522.93 87.2459L525.209 110.794L555.25 112.717Z" fill="#FFFFA9"/>
<path d="M378.174 157.339H57.9989C44.3339 157.339 33.2559 146.262 33.2559 132.597V112.717H402.916V132.597C402.916 146.262 391.838 157.339 378.174 157.339Z" fill="black"/>
<path d="M550.684 148.05H479.544V166.641H396.234L380.204 143.241H6.56445V25.96C6.56445 11.61 18.1844 0 32.5244 0H453.584C467.934 0 479.544 11.61 479.544 25.96V83.32H506.294C523.634 83.32 538.674 95.31 542.524 112.23L550.684 148.05Z" fill="#FFD400"/>
<path d="M525.136 148.05H453.996V166.641H448.206C441.396 131.26 429.226 86.9309 408.126 57.2009C390.296 32.0709 315.536 13.211 237.936 0.000976562H428.036C442.386 0.000976562 453.996 11.6109 453.996 25.9609V83.3209H480.746C498.086 83.3209 513.126 95.311 516.976 112.231L525.136 148.05Z" fill="#FFC533"/>
<path d="M453.995 25.96V83.32H479.545V25.96C479.545 11.61 467.935 0 453.585 0H428.035C442.385 0 453.995 11.61 453.995 25.96Z" fill="#F4E553"/>
<path d="M542.526 112.23C538.676 95.3099 523.636 83.3198 506.296 83.3198H480.746C498.086 83.3198 513.126 95.3099 516.976 112.23L525.136 148.049H550.686L542.526 112.23Z" fill="#F4E553"/>
<path d="M473.755 166.64H479.545V148.05H469.822C471.296 154.426 472.604 160.662 473.755 166.64Z" fill="#F4E553"/>
<path d="M456.954 54.1298V159.11C456.954 163.129 453.694 166.379 449.685 166.379H424.805C420.795 166.379 417.535 163.129 417.535 159.11V54.1298C417.535 50.1108 420.795 46.8608 424.805 46.8608H449.685C453.694 46.8598 456.954 50.1098 456.954 54.1298Z" fill="#FFD400"/>
<path d="M456.955 125.2H417.535V129.46H456.955V125.2Z" fill="#FF1E00"/>
<path d="M456.955 132.41H417.535V136.67H456.955V132.41Z" fill="#FF1E00"/>
<path d="M456.955 139.62H417.535V143.88H456.955V139.62Z" fill="#FF1E00"/>
<path d="M449.684 166.632C452.634 166.657 455.429 164.673 456.413 161.931C457.199 160.038 456.781 164.48 456.539 65.5859L456.518 56.8199C456.324 55.9729 457.589 50.4019 452.332 48.1019C450.562 47.3889 449.592 47.6119 446.013 47.5839C423.151 47.5869 422.911 47.1229 420.419 49.1729C419.377 50.0589 418.589 51.2539 418.235 52.5789C417.846 53.8639 417.995 49.4999 417.784 135.714C417.601 161.869 417.466 160.451 418.08 161.931C419.064 164.672 421.859 166.657 424.809 166.632C421.861 166.7 419.007 164.749 417.966 161.975C417.174 160.142 417.461 162.842 417.207 100.651C417.086 50.5359 416.974 53.6649 417.37 52.3429C418.116 49.5019 420.595 47.0699 424.053 46.6749C425.96 46.5769 448.887 46.5969 450.44 46.6769C454.18 47.1039 457.382 50.0379 457.396 54.6289L457.391 56.8199C457.126 167.791 457.184 160.454 456.528 161.974C455.485 164.749 452.631 166.699 449.684 166.632Z" fill="#1E1C14"/>
<path d="M451.984 56.8202V105.9C451.984 108.87 449.574 111.27 446.614 111.27H428.854C425.894 111.27 423.484 108.87 423.484 105.9V56.8202C423.484 53.8602 425.894 51.4502 428.854 51.4502H446.614C449.574 51.4502 451.984 53.8602 451.984 56.8202Z" fill="#585A6B"/>
<path d="M451.984 56.8202V83.3202H423.484V56.8202C423.484 53.8602 425.894 51.4502 428.854 51.4502H446.614C449.574 51.4502 451.984 53.8602 451.984 56.8202Z" fill="#585A6B"/>
<path d="M451.984 56.8202V65.7002H423.484V56.8202C423.484 53.8602 425.894 51.4502 428.854 51.4502H446.614C449.574 51.4502 451.984 53.8602 451.984 56.8202Z" fill="#ACB1CC"/>
<path d="M380.207 143.239L396.23 166.632H485.954V171.438H396.23H393.025L374.279 143.239H380.207Z" fill="black"/>
<path d="M4.88672 148.046H30.4917C31.2167 148.046 31.8047 147.458 31.8047 146.733V125.935H6.94971C5.81071 125.935 4.88672 126.858 4.88672 127.998V148.046Z" fill="black"/>
<path d="M0.000999451 47.1061H409.849V38.9341H4.042C1.81 38.9341 0 40.7441 0 42.9761L0.000999451 47.1061Z" fill="black"/>
<path d="M59.4457 57.2002H18.3457V99.9602H59.4457V57.2002Z" fill="#585A6B"/>
<path d="M175.525 57.2002H142.115V99.9602H175.525V57.2002Z" fill="#585A6B"/>
<path d="M214.216 57.2002H180.816V99.9602H214.216V57.2002Z" fill="#585A6B"/>
<path d="M98.1363 57.2002H64.7363V99.9602H98.1363V57.2002Z" fill="#585A6B"/>
<path d="M136.836 57.2002H103.426V99.9602H136.836V57.2002Z" fill="#585A6B"/>
<path d="M252.916 57.2002H219.506V99.9602H252.916V57.2002Z" fill="#585A6B"/>
<path d="M409.845 57.2002H374.275V99.9602H409.845V57.2002Z" fill="#585A6B"/>
<path d="M368.996 57.2002H335.586V99.9602H368.996V57.2002Z" fill="#585A6B"/>
<path d="M291.605 57.2002H258.195V99.9602H291.605V57.2002Z" fill="#585A6B"/>
<path d="M330.296 57.2002H296.896V99.9602H330.296V57.2002Z" fill="#585A6B"/>
<path d="M59.4457 57.2002H18.3457V83.3202H59.4457V57.2002Z" fill="#585A6B"/>
<path d="M98.1363 57.2002H64.7363V83.3202H98.1363V57.2002Z" fill="#585A6B"/>
<path d="M136.836 57.2002H103.426V83.3202H136.836V57.2002Z" fill="#585A6B"/>
<path d="M175.525 57.2002H142.115V83.3202H175.525V57.2002Z" fill="#585A6B"/>
<path d="M214.216 57.2002H180.816V83.3202H214.216V57.2002Z" fill="#585A6B"/>
<path d="M252.916 57.2002H219.506V83.3202H252.916V57.2002Z" fill="#585A6B"/>
<path d="M291.605 57.2002H258.195V83.3202H291.605V57.2002Z" fill="#585A6B"/>
<path d="M330.296 57.2002H296.896V83.3202H330.296V57.2002Z" fill="#585A6B"/>
<path d="M368.996 57.2002H335.586V83.3202H368.996V57.2002Z" fill="#585A6B"/>
<path d="M409.845 57.2002H374.275V83.3202H409.845V57.2002Z" fill="#585A6B"/>
<path d="M59.4457 57.2002H18.3457V65.7002H59.4457V57.2002Z" fill="#ACB1CC"/>
<path d="M98.1363 57.2002H64.7363V65.7002H98.1363V57.2002Z" fill="#ACB1CC"/>
<path d="M136.836 57.2002H103.426V65.7002H136.836V57.2002Z" fill="#ACB1CC"/>
<path d="M175.525 57.2002H142.115V65.7002H175.525V57.2002Z" fill="#ACB1CC"/>
<path d="M214.216 57.2002H180.816V65.7002H214.216V57.2002Z" fill="#ACB1CC"/>
<path d="M252.916 57.2002H219.506V65.7002H252.916V57.2002Z" fill="#ACB1CC"/>
<path d="M291.605 57.2002H258.195V65.7002H291.605V57.2002Z" fill="#ACB1CC"/>
<path d="M330.296 57.2002H296.896V65.7002H330.296V57.2002Z" fill="#ACB1CC"/>
<path d="M368.996 57.2002H335.586V65.7002H368.996V57.2002Z" fill="#ACB1CC"/>
<path d="M409.845 57.2002H374.275V65.7002H409.845V57.2002Z" fill="#ACB1CC"/>
<path d="M18.3459 115.681L412.252 115.681V106.868L18.3459 106.868V115.681Z" fill="black"/>
<path d="M311.312 143.239H337.268L320.204 115.681H294.248L311.312 143.239Z" fill="#FF3600"/>
<path d="M260.121 143.239H286.077L269.013 115.681H243.057L260.121 143.239Z" fill="#FF3600"/>
<path d="M216.197 0.000976562L238.422 38.934H264.359L242.153 0.000976562H216.197Z" fill="#FF3600"/>
<path d="M165.016 0.000976562L187.277 38.934H213.235L190.972 0.000976562H165.016Z" fill="#FF3600"/>
<path d="M144.762 143.239C144.762 160.229 158.535 174.002 175.524 174.002C192.514 174.002 206.287 160.229 206.287 143.239C206.287 126.25 192.514 112.476 175.524 112.476C158.535 112.476 144.762 126.25 144.762 143.239Z" fill="black"/>
<path d="M155.426 143.239C155.426 154.339 164.424 163.337 175.523 163.337C186.623 163.337 195.621 154.339 195.621 143.239C195.621 132.139 186.623 123.141 175.523 123.141C164.424 123.141 155.426 132.14 155.426 143.239Z" fill="#68656B"/>
<path d="M190.336 140.979H186.549C186.277 139.981 185.873 139.041 185.356 138.171L188.72 134.844C189.18 134.389 189.184 133.648 188.729 133.188L187.351 131.795C186.896 131.335 186.155 131.331 185.695 131.786L182.495 134.951C181.129 133.902 179.524 133.15 177.769 132.807V128.067C177.769 127.419 177.245 126.895 176.598 126.895H174.436C173.789 126.895 173.265 127.419 173.265 128.067V132.826C172.024 133.082 170.863 133.549 169.805 134.173L166.528 130.819C166.076 130.356 165.335 130.348 164.872 130.801L163.326 132.311C162.864 132.763 162.855 133.505 163.307 133.967L166.451 137.185C165.612 138.309 164.978 139.59 164.598 140.98H160.355C159.709 140.98 159.184 141.504 159.184 142.151V144.312C159.184 144.959 159.708 145.484 160.355 145.484H164.295C164.498 147.017 165.003 148.451 165.753 149.729L163.151 152.302C162.691 152.757 162.687 153.498 163.142 153.958L164.662 155.495C165.117 155.955 165.859 155.959 166.318 155.504L168.758 153.091C170.111 154.105 171.691 154.829 173.416 155.16V158.073C173.416 158.719 173.94 159.244 174.587 159.244H176.546C177.193 159.244 177.717 158.72 177.717 158.073V155.163C179.218 154.877 180.614 154.299 181.843 153.486L183.878 155.568C184.33 156.031 185.071 156.04 185.534 155.587L186.935 154.219C187.397 153.767 187.406 153.025 186.954 152.563L184.92 150.481C185.933 149.026 186.61 147.324 186.853 145.483H190.337C190.984 145.483 191.508 144.959 191.508 144.311V142.15C191.507 141.504 190.983 140.979 190.336 140.979Z" fill="#827D89"/>
<path d="M112.826 171.439C129.815 171.439 143.589 157.666 143.589 140.676C143.589 123.686 129.815 109.913 112.826 109.913C95.8356 109.913 82.0625 123.686 82.0625 140.676C82.0625 157.666 95.8356 171.439 112.826 171.439Z" fill="black"/>
<path d="M132.927 141.232C133.252 130.137 124.522 120.879 113.427 120.553C102.332 120.228 93.0743 128.959 92.749 140.055C92.4238 151.15 101.154 160.408 112.249 160.733C123.344 161.059 132.602 152.328 132.927 141.232Z" fill="#68656B"/>
<path d="M127.636 138.416H123.849C123.577 137.418 123.173 136.477 122.656 135.608L126.02 132.281C126.48 131.826 126.484 131.085 126.029 130.625L124.652 129.232C124.197 128.772 123.456 128.768 122.996 129.223L119.796 132.388C118.43 131.339 116.825 130.588 115.07 130.244V125.504C115.07 124.857 114.546 124.332 113.899 124.332H111.738C111.091 124.332 110.567 124.856 110.567 125.504V130.263C109.325 130.519 108.164 130.986 107.106 131.61L103.829 128.256C103.377 127.793 102.635 127.785 102.173 128.237L100.627 129.747C100.164 130.199 100.156 130.941 100.607 131.403L103.751 134.621C102.912 135.745 102.277 137.026 101.898 138.416H97.6554C97.0084 138.416 96.4844 138.94 96.4844 139.587V141.748C96.4844 142.395 97.0084 142.92 97.6554 142.92H101.595C101.798 144.453 102.303 145.887 103.053 147.165L100.451 149.738C99.9914 150.193 99.9874 150.934 100.442 151.394L101.962 152.931C102.416 153.391 103.158 153.395 103.618 152.94L106.058 150.527C107.411 151.541 108.991 152.265 110.716 152.596V155.508C110.716 156.156 111.24 156.68 111.887 156.68H113.845C114.491 156.68 115.016 156.156 115.016 155.508V152.599C116.517 152.313 117.912 151.735 119.142 150.922L121.177 153.004C121.629 153.467 122.371 153.476 122.833 153.024L124.234 151.655C124.697 151.204 124.705 150.462 124.254 149.999L122.219 147.917C123.233 146.463 123.909 144.761 124.152 142.92H127.636C128.283 142.92 128.807 142.396 128.807 141.748V139.587C128.808 138.94 128.283 138.416 127.636 138.416Z" fill="#827D89"/>
<path d="M563.5 148.046C563.5 148.046 565.103 115.04 556.451 106.389C547.799 97.7369 532.097 91.6479 512.229 96.1339C492.362 100.62 483.389 106.796 475.058 121.333C466.727 135.869 471.853 148.046 471.853 148.046H563.5Z" fill="#F4E553"/>
<path d="M556.452 106.388C547.978 97.9142 532.741 91.9062 513.453 95.8762C521.79 97.7902 528.527 101.712 533.202 106.388C541.854 115.039 540.252 148.045 540.252 148.045H563.502C563.502 148.045 565.104 115.04 556.452 106.388Z" fill="#F4E553"/>
<path d="M479.544 83.3202H461.9V35.0332C461.9 28.1302 467.497 22.5332 474.4 22.5332H479.544V83.3202Z" fill="#585A6B"/>
<path d="M545.876 149.008H568.748C570.451 149.008 571.831 147.627 571.831 145.924V125.635C571.831 124.208 570.675 123.052 569.248 123.052H552.042C548.636 123.052 545.875 125.813 545.875 129.218V149.008H545.876Z" fill="black"/>
<path d="M498.656 30.175L498.517 27.813C498.497 27.481 498.368 27.165 498.149 26.915L491.649 19.47C491.364 19.144 490.952 18.957 490.52 18.957H466.895C466.066 18.957 465.395 19.628 465.395 20.456V20.457C465.395 21.285 466.066 21.957 466.895 21.957H489.157C489.59 21.957 490.002 22.143 490.287 22.47L495.215 28.116C495.434 28.366 495.563 28.682 495.583 29.014L495.594 29.205C493.685 29.379 492.091 30.865 491.858 32.846L489.99 48.719C489.722 50.991 491.348 53.051 493.62 53.319C495.893 53.587 497.952 51.961 498.22 49.688L500.088 33.815C500.256 32.385 499.675 31.042 498.656 30.175Z" fill="#FFC533"/>
<path d="M498.656 30.175L498.517 27.813C498.497 27.481 498.368 27.165 498.149 26.915L491.649 19.47C491.364 19.144 490.952 18.957 490.52 18.957H466.895C466.066 18.957 465.395 19.628 465.395 20.456V20.457C465.395 21.285 466.066 21.957 466.895 21.957H489.157C489.59 21.957 490.002 22.143 490.287 22.47L495.215 28.116C495.434 28.366 495.563 28.682 495.583 29.014L495.594 29.205C493.685 29.379 492.091 30.865 491.858 32.846L489.99 48.719C489.722 50.991 491.348 53.051 493.62 53.319C495.893 53.587 497.952 51.961 498.22 49.688L500.088 33.815C500.256 32.385 499.675 31.042 498.656 30.175Z" fill="#F4E553"/>
<path d="M497.318 40.6321C496.752 45.4381 495.478 49.2361 494.473 49.1181C493.468 49.0001 493.111 45.009 493.677 40.203C494.242 35.397 495.516 31.5981 496.522 31.7171C497.527 31.8351 497.883 35.8261 497.318 40.6321Z" fill="#F8FCBE"/>
<path d="M487.975 143.239C487.975 160.229 501.748 174.002 518.737 174.002C535.727 174.002 549.5 160.229 549.5 143.239C549.5 126.25 535.727 112.476 518.737 112.476C501.748 112.476 487.975 126.25 487.975 143.239Z" fill="black"/>
<path d="M498.641 143.239C498.641 154.339 507.639 163.337 518.738 163.337C529.838 163.337 538.836 154.339 538.836 143.239C538.836 132.139 529.838 123.141 518.738 123.141C507.639 123.141 498.641 132.14 498.641 143.239Z" fill="#68656B"/>
<path d="M533.548 140.979H529.761C529.489 139.981 529.085 139.041 528.568 138.171L531.932 134.844C532.391 134.389 532.396 133.648 531.941 133.188L530.564 131.795C530.109 131.335 529.367 131.331 528.907 131.786L525.707 134.951C524.341 133.902 522.736 133.15 520.981 132.807V128.067C520.981 127.419 520.457 126.895 519.81 126.895H517.649C517.002 126.895 516.478 127.419 516.478 128.067V132.826C515.236 133.082 514.075 133.549 513.017 134.173L509.74 130.819C509.288 130.356 508.547 130.348 508.084 130.801L506.538 132.311C506.075 132.763 506.067 133.505 506.519 133.967L509.662 137.185C508.823 138.309 508.189 139.59 507.809 140.98H503.566C502.919 140.98 502.395 141.504 502.395 142.151V144.312C502.395 144.959 502.919 145.484 503.566 145.484H507.506C507.708 147.017 508.214 148.451 508.964 149.729L506.362 152.302C505.902 152.757 505.898 153.498 506.353 153.958L507.873 155.495C508.328 155.955 509.069 155.959 509.529 155.504L511.969 153.091C513.322 154.105 514.902 154.829 516.627 155.16V158.073C516.627 158.719 517.151 159.244 517.798 159.244H519.756C520.403 159.244 520.927 158.72 520.927 158.073V155.163C522.427 154.877 523.823 154.299 525.053 153.486L527.088 155.568C527.54 156.031 528.281 156.04 528.744 155.587L530.144 154.219C530.607 153.767 530.616 153.025 530.164 152.563L528.13 150.481C529.144 149.026 529.82 147.324 530.063 145.483H533.547C534.194 145.483 534.718 144.959 534.718 144.311V142.15C534.72 141.504 534.195 140.979 533.548 140.979Z" fill="#827D89"/>
</svg>
