<svg width="658" height="183" viewBox="0 0 658 183" fill="none" xmlns="http://www.w3.org/2000/svg">
<path d="M147.751 7.00293C147.751 8.72226 146.356 10.1141 144.64 10.1141H106.785C105.07 10.1141 103.678 8.72226 103.678 7.00293C103.678 5.28359 105.073 3.89551 106.785 3.89551H144.64C146.356 3.89923 147.751 5.28732 147.751 7.00293Z" fill="#607282"/>
<path d="M478.111 7.00293C478.111 8.72226 476.719 10.1141 475.003 10.1141H437.148C435.429 10.1141 434.041 8.72226 434.041 7.00293C434.041 5.28359 435.433 3.89551 437.148 3.89551H475.003C476.719 3.89923 478.111 5.28732 478.111 7.00293Z" fill="#607282"/>
<path d="M325.981 4.67704C325.981 2.18363 323.957 0.15918 321.463 0.15918H181.584C174.476 0.15918 168.711 5.92383 168.711 13.0319H325.978L325.981 4.67704Z" fill="#607282"/>
<path d="M321.347 7.00293C321.347 8.72226 319.955 10.1141 318.235 10.1141H180.875C179.159 10.1141 177.768 8.72226 177.768 7.00293C177.768 5.28359 179.159 3.89551 180.875 3.89551H318.235C319.955 3.89923 321.347 5.28732 321.347 7.00293Z" fill="#EDEDED"/>
<path d="M657.231 28.816V140.022C657.231 147.703 652.3 154.517 645.01 156.895L643.625 157.349L641.076 158.194C639.606 158.67 638.114 159.143 636.618 159.578C624.05 163.255 611.006 165.112 597.877 165.112H520.913L520.805 164.509L519.941 159.578L519.554 157.349L517.087 143.397C515.36 133.595 506.853 126.457 496.927 126.457H477.308C466.56 126.457 457.368 134.179 455.504 144.778L453.278 157.349L452.887 159.578L451.916 165.112H151.346L149.984 157.349L147.516 143.397C145.786 133.595 137.282 126.457 127.357 126.457H107.737C96.9857 126.457 87.7936 134.179 85.9329 144.778L83.7037 157.349L82.3379 165.112H27.9594C24.3458 165.112 20.9518 164.1 18.0528 162.347C17.5094 162.019 16.9698 161.651 16.4749 161.264C15.9762 160.896 15.5222 160.505 15.0905 160.114C14.7034 159.768 14.3536 159.403 14.0075 159.035C13.6614 158.666 13.3377 158.298 13.0362 157.889C12.8836 157.714 12.731 157.516 12.5785 157.349C12.4705 157.174 12.344 157.003 12.21 156.806C11.9719 156.434 11.7114 156.05 11.4955 155.656C11.2797 155.31 11.0861 154.945 10.9112 154.576C10.6321 154.033 10.3716 153.471 10.1558 152.891C9.46357 151.115 9.03188 149.214 8.90163 147.223L8.36201 138.306C8.07917 133.877 8.03824 129.464 8.16849 125.028C8.25781 123.145 8.33968 121.265 8.49226 119.382C8.55925 118.322 8.64484 117.265 8.75276 116.2C9.27005 110.838 10.1148 105.538 11.2611 100.261L25.4288 35.1686C26.1433 31.9495 27.2672 28.8792 28.7372 26.0657C29.061 25.4405 29.4071 24.8302 29.7755 24.231C36.1802 13.5205 47.8806 6.59863 60.9021 6.59863H635.036C642.676 6.59863 649.397 10.4504 653.402 16.3341C655.828 19.903 657.231 24.1864 657.231 28.816Z" fill="#9DBAD4"/>
<path d="M657.233 89.5078V140.016C657.233 147.697 652.302 154.511 645.012 156.889L643.628 157.343L641.078 158.188C639.608 158.664 638.116 159.137 636.62 159.572H244.557C244.557 120.873 275.921 89.5078 314.621 89.5078H657.233Z" fill="#95B1C9"/>
<path d="M657.229 28.8131V73.5268H116.961C109.603 73.5268 102.525 76.3366 97.166 81.3829L82.3359 95.3534L26.8112 119.383H8.49023C8.55722 118.322 8.64281 117.266 8.75074 116.205C9.26803 110.842 10.1128 105.539 11.259 100.258L25.4268 35.1731C26.1413 31.9503 27.2652 28.8801 28.7352 26.0666C29.0589 25.4414 29.405 24.8348 29.7735 24.2319L40.6774 24.0794L77.7101 16.335H653.399C655.826 19.9002 657.229 24.1836 657.229 28.8131Z" fill="#607282"/>
<path d="M496.92 126.469H477.307C466.56 126.469 457.364 134.187 455.496 144.771L451.908 165.113H520.804V164.506L517.083 143.387C515.36 133.603 506.86 126.469 496.92 126.469Z" fill="#1D1D1B"/>
<path d="M127.349 126.469H107.737C96.9894 126.469 87.7936 134.187 85.9254 144.771L82.3379 165.113H151.346L147.516 143.387C145.789 133.603 137.29 126.469 127.349 126.469Z" fill="#1D1D1B"/>
<path d="M130.812 152.886C130.812 160.605 124.556 166.857 116.842 166.857C109.127 166.857 102.871 160.605 102.871 152.886C102.871 145.172 109.127 138.912 116.842 138.912C124.556 138.912 130.812 145.168 130.812 152.886Z" fill="#3C3C3B"/>
<path d="M116.869 122.772C100.238 122.758 86.7471 136.226 86.7285 152.861C86.7136 169.492 100.185 182.986 116.813 183.001C133.444 183.016 146.939 169.544 146.954 152.913C146.972 136.281 133.5 122.791 116.869 122.772ZM116.828 171.424C106.59 171.412 98.2987 163.11 98.3061 152.868C98.3173 142.634 106.624 134.339 116.861 134.346C127.099 134.358 135.391 142.66 135.383 152.898C135.372 163.14 127.066 171.435 116.828 171.424Z" fill="#3C3C3B"/>
<path d="M116.861 134.406C106.653 134.399 98.3727 142.664 98.3652 152.869C98.3541 163.073 106.623 171.357 116.828 171.368C127.032 171.379 135.312 163.11 135.323 152.902C135.335 142.694 127.069 134.417 116.861 134.406ZM116.831 169.366C107.732 169.355 100.356 161.971 100.367 152.869C100.375 143.766 107.758 136.394 116.861 136.405C125.96 136.408 133.336 143.792 133.325 152.895C133.318 162.001 125.934 169.373 116.831 169.366Z" fill="#DADADA"/>
<path d="M116.857 141.559C110.597 141.555 105.525 146.62 105.518 152.876C105.514 159.135 110.579 164.208 116.835 164.215C123.09 164.219 128.167 159.154 128.17 152.898C128.178 146.642 123.113 141.566 116.857 141.559ZM116.842 160.01C112.908 160.006 109.723 156.813 109.727 152.883C109.73 148.946 112.92 145.764 116.853 145.768C120.787 145.771 123.972 148.961 123.969 152.894C123.965 156.824 120.772 160.01 116.842 160.01Z" fill="#EDEDED"/>
<path d="M116.851 145.767C112.918 145.763 109.728 148.945 109.725 152.882C109.721 156.812 112.906 160.005 116.84 160.009C120.774 160.009 123.963 156.827 123.967 152.893C123.971 148.96 120.785 145.77 116.851 145.767ZM119.572 148.725C119.97 148.331 120.614 148.331 121.012 148.725C121.406 149.123 121.406 149.767 121.012 150.165C120.614 150.564 119.97 150.564 119.572 150.165C119.177 149.764 119.177 149.12 119.572 148.725ZM116.848 147.918C117.175 147.918 117.443 148.182 117.443 148.509C117.443 148.837 117.175 149.101 116.848 149.101C116.52 149.101 116.252 148.837 116.252 148.509C116.252 148.182 116.52 147.918 116.848 147.918ZM112.683 148.714C113.081 148.32 113.725 148.32 114.123 148.714C114.522 149.112 114.522 149.756 114.123 150.154C113.725 150.549 113.081 150.549 112.683 150.154C112.285 149.756 112.285 149.112 112.683 148.714ZM111.876 152.882C111.876 152.551 112.14 152.29 112.471 152.29C112.799 152.29 113.067 152.555 113.063 152.882C113.063 153.21 112.799 153.478 112.467 153.478C112.14 153.478 111.876 153.21 111.876 152.882ZM114.116 157.05C113.718 157.448 113.074 157.448 112.676 157.046C112.281 156.652 112.281 156.008 112.676 155.606C113.074 155.212 113.718 155.212 114.116 155.61C114.514 156.008 114.51 156.648 114.116 157.05ZM116.84 157.854C116.513 157.854 116.245 157.59 116.245 157.262C116.245 156.935 116.509 156.671 116.84 156.671C117.168 156.671 117.432 156.935 117.432 157.262C117.432 157.59 117.168 157.854 116.84 157.854ZM116.84 155.591C115.348 155.588 114.138 154.378 114.138 152.878C114.138 151.386 115.352 150.177 116.848 150.177C118.34 150.18 119.549 151.39 119.546 152.886C119.546 154.382 118.332 155.591 116.84 155.591ZM121.004 157.054C120.606 157.448 119.962 157.445 119.564 157.05C119.166 156.656 119.166 156.012 119.564 155.61C119.959 155.215 120.606 155.215 121.004 155.614C121.403 156.012 121.403 156.656 121.004 157.054ZM121.22 153.481C120.893 153.481 120.625 153.217 120.625 152.89C120.625 152.562 120.893 152.298 121.22 152.298C121.548 152.298 121.816 152.562 121.816 152.893C121.816 153.221 121.548 153.481 121.22 153.481Z" fill="#C6C6C6"/>
<path d="M116.857 136.409C107.754 136.398 100.371 143.77 100.363 152.873C100.352 161.972 107.728 169.359 116.827 169.37C125.93 169.378 133.313 162.006 133.321 152.899C133.332 143.796 125.956 136.413 116.857 136.409ZM128.122 144.589C128.993 144.087 130.05 144.284 130.478 145.028C130.906 145.773 130.548 146.785 129.678 147.287C128.807 147.79 127.75 147.592 127.322 146.844C126.894 146.1 127.251 145.091 128.122 144.589ZM128.17 152.899C128.167 159.155 123.09 164.22 116.835 164.216C110.579 164.209 105.514 159.136 105.518 152.877C105.525 146.621 110.597 141.556 116.857 141.56C123.109 141.567 128.174 146.643 128.17 152.899ZM122.462 140.06C122.968 139.189 123.976 138.832 124.72 139.264C125.465 139.692 125.662 140.745 125.156 141.619C124.653 142.49 123.641 142.844 122.897 142.416C122.156 141.988 121.959 140.935 122.462 140.06ZM116.857 137.146C117.717 137.146 118.413 137.965 118.413 138.97C118.413 139.978 117.713 140.789 116.853 140.789C115.994 140.789 115.298 139.971 115.298 138.97C115.298 137.961 115.997 137.146 116.857 137.146ZM108.986 139.252C109.73 138.824 110.743 139.178 111.245 140.053C111.747 140.92 111.55 141.98 110.802 142.408C110.058 142.836 109.046 142.483 108.543 141.608C108.044 140.734 108.242 139.68 108.986 139.252ZM103.218 145.01C103.649 144.262 104.706 144.068 105.577 144.571C106.448 145.077 106.805 146.089 106.374 146.833C105.942 147.577 104.889 147.771 104.018 147.269C103.143 146.762 102.79 145.75 103.218 145.01ZM101.104 152.873C101.104 152.013 101.923 151.318 102.924 151.318C103.932 151.321 104.747 152.017 104.743 152.877C104.743 153.74 103.925 154.432 102.92 154.432C101.915 154.432 101.104 153.733 101.104 152.873ZM105.562 161.187C104.688 161.686 103.634 161.488 103.207 160.744C102.779 160 103.136 158.988 104.007 158.485C104.877 157.983 105.931 158.18 106.362 158.921C106.79 159.672 106.433 160.681 105.562 161.187ZM111.223 165.716C110.716 166.583 109.704 166.94 108.964 166.512C108.219 166.081 108.022 165.024 108.528 164.153C109.031 163.286 110.043 162.925 110.787 163.357C111.528 163.788 111.725 164.845 111.223 165.716ZM116.831 168.622C115.971 168.622 115.272 167.808 115.275 166.803C115.275 165.798 115.975 164.987 116.835 164.987C117.694 164.987 118.39 165.802 118.39 166.806C118.386 167.811 117.691 168.622 116.831 168.622ZM124.698 166.524C123.954 166.952 122.942 166.598 122.439 165.723C121.941 164.853 122.134 163.796 122.882 163.368C123.626 162.94 124.639 163.297 125.145 164.168C125.64 165.039 125.446 166.092 124.698 166.524ZM130.466 160.77C130.035 161.511 128.982 161.708 128.111 161.206C127.24 160.699 126.883 159.691 127.314 158.947C127.746 158.202 128.799 158.005 129.67 158.511C130.541 159.014 130.894 160.026 130.466 160.77ZM130.757 154.458C129.752 154.458 128.937 153.759 128.937 152.899C128.937 152.036 129.756 151.344 130.76 151.344C131.765 151.344 132.58 152.043 132.58 152.899C132.58 153.759 131.762 154.458 130.757 154.458Z" fill="#C6C6C6"/>
<path d="M500.386 152.886C500.386 160.605 494.13 166.857 486.412 166.857C478.697 166.857 472.441 160.605 472.441 152.886C472.441 145.172 478.697 138.912 486.412 138.912C494.127 138.912 500.386 145.168 500.386 152.886Z" fill="#3C3C3B"/>
<path d="M486.439 122.772C469.808 122.758 456.314 136.226 456.299 152.861C456.288 169.492 469.756 182.986 486.387 183.001C503.015 183.016 516.509 169.544 516.528 152.913C516.539 136.281 503.071 122.791 486.439 122.772ZM486.398 171.424C476.16 171.412 467.869 163.11 467.876 152.868C467.884 142.634 476.194 134.339 486.432 134.346C496.67 134.358 504.961 142.66 504.954 152.898C504.946 163.14 496.636 171.435 486.398 171.424Z" fill="#3C3C3B"/>
<path d="M486.431 134.406C476.223 134.399 467.943 142.664 467.936 152.869C467.928 163.073 476.194 171.357 486.398 171.368C496.602 171.379 504.883 163.11 504.894 152.902C504.901 142.694 496.636 134.417 486.431 134.406ZM486.398 169.366C477.295 169.355 469.927 161.971 469.934 152.869C469.941 143.766 477.329 136.394 486.431 136.405C495.534 136.408 502.903 143.792 502.895 152.895C502.884 162.001 495.501 169.373 486.398 169.366Z" fill="#DADADA"/>
<path d="M486.42 141.559C480.168 141.555 475.092 146.62 475.088 152.876C475.084 159.135 480.149 164.208 486.405 164.215C492.657 164.219 497.733 159.154 497.741 152.898C497.748 146.642 492.679 141.566 486.42 141.559ZM486.405 160.01C482.475 160.006 479.289 156.813 479.289 152.883C479.289 148.946 482.486 145.764 486.416 145.768C490.346 145.771 493.535 148.961 493.532 152.894C493.532 156.824 490.339 160.01 486.405 160.01Z" fill="#EDEDED"/>
<path d="M486.424 145.767C482.494 145.763 479.297 148.945 479.297 152.882C479.297 156.812 482.479 160.005 486.412 160.009C490.346 160.009 493.539 156.827 493.539 152.893C493.539 148.96 490.353 145.77 486.424 145.767ZM489.148 148.725C489.542 148.331 490.19 148.331 490.584 148.725C490.982 149.123 490.982 149.767 490.584 150.165C490.186 150.564 489.542 150.564 489.148 150.165C488.749 149.764 488.749 149.12 489.148 148.725ZM486.42 147.918C486.747 147.918 487.015 148.182 487.015 148.509C487.012 148.837 486.747 149.101 486.42 149.101C486.092 149.101 485.824 148.837 485.824 148.509C485.824 148.182 486.092 147.918 486.42 147.918ZM482.255 148.714C482.654 148.32 483.301 148.32 483.696 148.714C484.094 149.112 484.09 149.756 483.696 150.154C483.298 150.549 482.654 150.549 482.255 150.154C481.857 149.756 481.857 149.112 482.255 148.714ZM481.448 152.882C481.448 152.551 481.712 152.29 482.04 152.29C482.371 152.29 482.635 152.555 482.635 152.882C482.635 153.21 482.371 153.478 482.04 153.478C481.712 153.478 481.448 153.21 481.448 152.882ZM483.688 157.05C483.29 157.448 482.646 157.448 482.248 157.046C481.85 156.652 481.85 156.008 482.248 155.606C482.646 155.212 483.29 155.212 483.688 155.61C484.086 156.008 484.086 156.648 483.688 157.05ZM486.412 157.854C486.085 157.854 485.817 157.59 485.817 157.262C485.821 156.935 486.085 156.671 486.412 156.671C486.74 156.671 487.008 156.935 487.004 157.262C487.004 157.59 486.74 157.854 486.412 157.854ZM486.416 155.591C484.924 155.588 483.711 154.378 483.714 152.878C483.714 151.386 484.928 150.177 486.42 150.177C487.912 150.18 489.125 151.39 489.122 152.886C489.118 154.382 487.908 155.591 486.416 155.591ZM490.577 157.054C490.179 157.448 489.531 157.445 489.137 157.05C488.742 156.656 488.742 156.012 489.14 155.61C489.538 155.215 490.182 155.215 490.58 155.614C490.975 156.012 490.975 156.656 490.577 157.054ZM490.793 153.481C490.465 153.481 490.197 153.217 490.197 152.89C490.197 152.562 490.461 152.298 490.793 152.298C491.12 152.298 491.388 152.562 491.384 152.893C491.384 153.221 491.12 153.481 490.793 153.481Z" fill="#C6C6C6"/>
<path d="M486.425 136.409C477.322 136.398 469.935 143.77 469.928 152.873C469.92 161.972 477.293 169.359 486.392 169.37C495.494 169.378 502.882 162.006 502.889 152.899C502.896 143.796 495.528 136.413 486.425 136.409ZM497.69 144.589C498.561 144.087 499.614 144.284 500.046 145.028C500.474 145.773 500.113 146.785 499.246 147.287C498.375 147.79 497.318 147.592 496.89 146.844C496.462 146.1 496.823 145.091 497.69 144.589ZM497.738 152.899C497.735 159.155 492.655 164.22 486.403 164.216C480.147 164.209 475.082 159.136 475.086 152.877C475.089 146.621 480.166 141.556 486.418 141.56C492.677 141.567 497.746 146.643 497.738 152.899ZM492.033 140.06C492.54 139.189 493.548 138.832 494.292 139.264C495.037 139.692 495.234 140.745 494.731 141.619C494.225 142.49 493.213 142.844 492.473 142.416C491.725 141.988 491.527 140.935 492.033 140.06ZM486.425 137.146C487.285 137.146 487.981 137.965 487.981 138.97C487.981 139.978 487.281 140.789 486.425 140.789C485.565 140.789 484.866 139.971 484.866 138.97C484.866 137.961 485.565 137.146 486.425 137.146ZM478.55 139.252C479.298 138.824 480.311 139.178 480.809 140.053C481.312 140.92 481.115 141.98 480.37 142.408C479.622 142.836 478.614 142.483 478.111 141.608C477.613 140.734 477.81 139.68 478.55 139.252ZM472.79 145.01C473.221 144.262 474.274 144.068 475.145 144.571C476.016 145.077 476.377 146.089 475.945 146.833C475.514 147.577 474.457 147.771 473.586 147.269C472.715 146.762 472.358 145.75 472.79 145.01ZM470.672 152.873C470.672 152.013 471.487 151.318 472.496 151.318C473.5 151.321 474.315 152.017 474.315 152.877C474.315 153.74 473.5 154.432 472.492 154.432C471.483 154.432 470.672 153.733 470.672 152.873ZM475.13 161.187C474.26 161.686 473.203 161.488 472.771 160.744C472.343 160 472.7 158.988 473.575 158.485C474.442 157.983 475.499 158.18 475.927 158.921C476.358 159.672 476.001 160.681 475.13 161.187ZM480.787 165.716C480.285 166.583 479.272 166.94 478.528 166.512C477.784 166.081 477.587 165.024 478.093 164.153C478.595 163.286 479.607 162.925 480.352 163.357C481.1 163.788 481.293 164.845 480.787 165.716ZM486.399 168.622C485.536 168.622 484.84 167.808 484.843 166.803C484.843 165.798 485.543 164.987 486.403 164.987C487.262 164.987 487.962 165.802 487.962 166.806C487.955 167.811 487.255 168.622 486.399 168.622ZM494.27 166.524C493.522 166.952 492.51 166.598 492.011 165.723C491.505 164.853 491.706 163.796 492.45 163.368C493.198 162.94 494.207 163.297 494.709 164.168C495.212 165.039 495.014 166.092 494.27 166.524ZM500.035 160.77C499.603 161.511 498.55 161.708 497.679 161.206C496.808 160.699 496.447 159.691 496.879 158.947C497.31 158.202 498.367 158.005 499.235 158.511C500.105 159.014 500.466 160.026 500.035 160.77ZM500.325 154.458C499.32 154.458 498.505 153.759 498.505 152.899C498.505 152.036 499.324 151.344 500.329 151.344C501.333 151.344 502.148 152.043 502.145 152.899C502.148 153.759 501.333 154.458 500.325 154.458Z" fill="#C6C6C6"/>
<path d="M525.058 163.75L521.341 142.638C519.242 130.763 508.967 122.133 496.916 122.133H477.297C464.428 122.133 453.46 131.347 451.231 144.026L447.64 164.357L447.51 165.112H451.901L455.489 144.778C457.353 134.179 466.545 126.457 477.293 126.457H496.913C506.842 126.457 515.345 133.595 517.072 143.398L520.79 164.509L520.898 165.112H525.118V164.119L525.058 163.75Z" fill="#718699"/>
<path d="M155.604 164.357L151.774 142.638C149.675 130.763 139.4 122.133 127.354 122.133H107.734C94.8652 122.133 83.8942 131.347 81.6688 144.026L78.0775 164.357L77.9473 165.112H82.3386L85.9299 144.778C87.7906 134.179 96.9827 126.457 107.734 126.457H127.354C137.279 126.457 145.783 133.595 147.513 143.398L151.343 165.112H155.734L155.604 164.357Z" fill="#718699"/>
<path d="M28.7401 26.0645C30.0129 26.0645 31.2223 26.6189 32.0485 27.5865C32.8747 28.5504 33.2394 29.8306 33.0422 31.0847L21.1818 107.104C20.363 112.34 15.8563 116.199 10.5569 116.199H8.75195C9.26924 110.84 10.114 105.537 11.2602 100.26L25.428 35.1709C26.1462 31.9518 27.2701 28.8779 28.7401 26.0645Z" fill="#BFE9E6"/>
<path d="M40.4332 39.5231C41.665 31.44 47.8092 24.9869 55.8216 23.3569L77.9496 18.8613V94.564L28.7402 116.201L40.4332 39.5231Z" fill="#BFE9E6"/>
<path d="M167.943 18.8574H87.0488V71.137H167.943V18.8574Z" fill="#BFE9E6"/>
<path d="M253.664 18.8574H182.346V71.137H253.664V18.8574Z" fill="#BFE9E6"/>
<path d="M332.666 18.8574H261.348V71.137H332.666V18.8574Z" fill="#EDEDED"/>
<path d="M411.664 18.8574H340.342V71.137H411.664V18.8574Z" fill="#BFE9E6"/>
<path d="M490.663 18.8574H419.344V71.137H490.663V18.8574Z" fill="#BFE9E6"/>
<path d="M569.661 18.8574H498.346V71.137H569.661V18.8574Z" fill="#BFE9E6"/>
<path d="M648.663 71.137H577.348V18.8574H636.873C643.386 18.8574 648.666 24.1382 648.666 30.6509V71.137H648.663Z" fill="#BFE9E6"/>
<path d="M332.666 18.8574H261.348V71.137H332.666V18.8574Z" fill="#BFE9E6"/>
<path d="M66.251 149.093H33.8107C29.825 149.093 26.0551 147.351 23.4687 144.322C20.8822 141.289 19.7546 137.292 20.3835 133.358L32.3742 58.1431L32.8208 58.1208L80.9918 56.1484V134.359C80.9918 142.48 74.3787 149.093 66.251 149.093ZM33.3046 59.1815L21.4516 133.522C20.8748 137.147 21.9056 140.824 24.2911 143.618C26.6729 146.41 30.145 148.01 33.8107 148.01H66.251C73.7796 148.01 79.9089 141.884 79.9089 134.356V57.2723L33.3046 59.1815Z" fill="#607282"/>
<path d="M80.9894 56.1455H32.8184V60.3136H80.9894V56.1455Z" fill="#607282"/>
<path d="M657.235 106.644H379.928V107.726H657.235V106.644Z" fill="#607282"/>
<path d="M340.349 106.644H80.9941V107.726H340.349V106.644Z" fill="#607282"/>
<path d="M243.475 106.644V165.112H244.558V107.726H320.807V165.112H321.89V106.644H243.475Z" fill="#607282"/>
<path d="M166.137 106.644V165.112H167.22V107.726H243.469V165.112H244.552V106.644H166.137Z" fill="#607282"/>
<path d="M386.773 106.644V165.112H387.856V107.726H441.394V165.112H442.477V106.644H386.773Z" fill="#607282"/>
<path d="M529.543 106.644V165.112H530.622V107.726H584.16V165.112H585.243V106.644H529.543Z" fill="#607282"/>
<path d="M72.0484 113.15V116.179C72.0484 116.894 71.4865 117.456 70.7719 117.456H65.212C64.4975 117.456 63.9355 116.897 63.9355 116.179V113.15C63.9355 112.439 64.4975 111.877 65.212 111.877H70.7719C71.4865 111.877 72.0484 112.439 72.0484 113.15Z" fill="#778DA1"/>
<path d="M72.0484 113.15V114.084H63.9355V113.15C63.9355 112.439 64.4975 111.877 65.212 111.877H70.7719C71.4865 111.877 72.0484 112.439 72.0484 113.15Z" fill="#EDEDED"/>
<path d="M209.402 149.834V152.863C209.402 153.574 208.84 154.14 208.125 154.14H202.566C201.851 154.14 201.289 153.578 201.289 152.863V149.834C201.289 149.123 201.851 148.558 202.566 148.558H208.125C208.84 148.561 209.402 149.123 209.402 149.834Z" fill="#778DA1"/>
<path d="M209.402 149.834V150.764H201.289V149.834C201.289 149.123 201.851 148.558 202.566 148.558H208.125C208.84 148.561 209.402 149.123 209.402 149.834Z" fill="#EDEDED"/>
<path d="M286.728 149.834V152.863C286.728 153.574 286.17 154.14 285.456 154.14H279.896C279.185 154.14 278.619 153.578 278.619 152.863V149.834C278.619 149.123 279.181 148.558 279.896 148.558H285.456C286.17 148.561 286.728 149.123 286.728 149.834Z" fill="#778DA1"/>
<path d="M286.728 149.834V150.764H278.619V149.834C278.619 149.123 279.181 148.558 279.896 148.558H285.456C286.17 148.561 286.728 149.123 286.728 149.834Z" fill="#EDEDED"/>
<path d="M376.006 122.162V125.195C376.006 125.906 375.444 126.468 374.733 126.468H369.173C368.458 126.468 367.896 125.91 367.896 125.195V122.162C367.896 121.452 368.458 120.89 369.173 120.89H374.733C375.444 120.89 376.006 121.448 376.006 122.162Z" fill="#778DA1"/>
<path d="M376.006 122.162V123.096H367.896V122.162C367.896 121.452 368.458 120.89 369.173 120.89H374.733C375.444 120.89 376.006 121.448 376.006 122.162Z" fill="#EDEDED"/>
<path d="M418.685 149.834V152.863C418.685 153.574 418.123 154.14 417.409 154.14H411.849C411.134 154.14 410.572 153.578 410.572 152.863V149.834C410.572 149.123 411.134 148.558 411.849 148.558H417.409C418.123 148.561 418.685 149.123 418.685 149.834Z" fill="#778DA1"/>
<path d="M418.685 149.834V150.764H410.572V149.834C410.572 149.123 411.134 148.558 411.849 148.558H417.409C418.123 148.561 418.685 149.123 418.685 149.834Z" fill="#EDEDED"/>
<path d="M559.648 149.834V152.863C559.648 153.574 559.086 154.14 558.372 154.14H552.815C552.101 154.14 551.539 153.578 551.539 152.863V149.834C551.539 149.123 552.101 148.558 552.815 148.558H558.372C559.086 148.561 559.648 149.123 559.648 149.834Z" fill="#778DA1"/>
<path d="M559.644 149.834V150.764H551.531V149.834C551.531 149.123 552.093 148.558 552.808 148.558H558.364C559.082 148.561 559.644 149.123 559.644 149.834Z" fill="#EDEDED"/>
<path d="M14.4615 129.052V149.405C14.4615 151.009 13.4009 152.345 11.9309 152.74C11.6258 152.847 11.302 152.892 10.9782 152.892H10.1558C9.46357 151.117 9.03188 149.215 8.90163 147.224L8.36201 138.308C8.07917 133.879 8.03824 129.465 8.16849 125.029H10.4386C10.6991 125.029 10.9596 125.052 11.2201 125.115C13.0548 125.465 14.4615 127.084 14.4615 129.052Z" fill="white"/>
<path d="M14.4611 129.054V149.406C14.4611 151.01 13.4005 152.346 11.9305 152.741C10.3079 148.952 9.31055 143.739 9.31055 137.967C9.31055 133.117 10.0251 128.663 11.216 125.116C13.0544 125.466 14.4611 127.085 14.4611 129.054Z" fill="#FFF9C0"/>
<path d="M22.4248 155.119C22.4248 155.398 22.1867 155.658 21.8852 155.658H11.5022C11.2864 155.312 11.0929 154.948 10.918 154.579H21.8852C22.1867 154.579 22.4248 154.814 22.4248 155.119Z" fill="#607282"/>
<path d="M22.419 157.347C22.419 157.648 22.1808 157.887 21.8794 157.887H13.0334C12.7282 157.537 12.4677 157.194 12.2109 156.804H21.8794C22.1808 156.804 22.419 157.042 22.419 157.347Z" fill="#607282"/>
<path d="M22.4202 159.575C22.4202 159.876 22.182 160.114 21.8805 160.114H15.0888C14.7018 159.768 14.352 159.404 14.0059 159.035H21.8805C22.182 159.035 22.4202 159.273 22.4202 159.575Z" fill="#607282"/>
<path d="M22.4255 161.798C22.4255 162.104 22.1873 162.342 21.8858 162.342H18.0564C17.5131 162.014 16.9735 161.646 16.4785 161.259H21.8858C22.1873 161.263 22.4255 161.501 22.4255 161.798Z" fill="#607282"/>
<path d="M657.233 137.736C653.612 137.736 650.68 134.804 650.68 131.183V107.723H657.233V137.736Z" fill="#607282"/>
<path d="M657.231 107.727H651.582V124.395H657.231V107.727Z" fill="#FF1212"/>
<path d="M657.227 136.477C654.105 136.477 651.574 133.947 651.574 130.824V124.394H657.227V136.477Z" fill="#FFF9C0"/>
<path d="M12.582 157.349H83.7073L82.3415 165.112H27.963C24.3494 165.112 20.9554 164.099 18.0564 162.347C17.513 162.019 16.9734 161.651 16.4784 161.264C15.9798 160.895 15.5257 160.504 15.094 160.114C14.707 159.768 14.3572 159.403 14.0111 159.034C13.665 158.666 13.3412 158.298 13.0398 157.888C12.8872 157.713 12.7346 157.52 12.582 157.349Z" fill="#718699"/>
<path d="M643.628 157.349L641.078 158.193C627.145 162.778 612.568 165.112 597.879 165.112H520.915L520.807 164.509L519.557 157.349H643.628Z" fill="#718699"/>
<path d="M378.576 157.349C377.02 159.284 374.664 160.545 371.992 160.545H348.286C345.618 160.545 343.259 159.284 341.703 157.349H149.986L151.348 165.112H451.915L453.277 157.349H378.576Z" fill="#718699"/>
<path d="M348.282 160.544H371.988C374.66 160.544 377.016 159.283 378.572 157.347C379.74 155.889 380.466 154.072 380.466 152.067V85.1093C380.466 80.4351 376.662 76.6318 371.988 76.6318H348.282C343.608 76.6318 339.805 80.4351 339.805 85.1093V152.067C339.805 154.072 340.534 155.889 341.703 157.347C343.255 159.283 345.614 160.544 348.282 160.544ZM340.884 152.067V85.1093C340.884 81.0306 344.203 77.711 348.282 77.711H371.988C376.067 77.711 379.387 81.0306 379.387 85.1093V152.067C379.387 154.136 378.531 156.004 377.157 157.347C375.821 158.654 373.998 159.465 371.988 159.465H348.282C346.273 159.465 344.449 158.65 343.113 157.347C341.744 156.004 340.884 154.136 340.884 152.067Z" fill="#607282"/>
<path d="M36.704 16.332H21.0625C15.8301 16.332 10.8023 18.4496 7.19993 22.2529C3.57891 26.0712 2.76763 30.9723 3.00208 35.8921L3.81337 54.5406H6.33654L7.23714 35.4345C7.71722 29.547 13.3664 24.1323 19.2762 24.1323H36.704V16.332Z" fill="#9DBAD4"/>
<path d="M0.00707638 50.6507C-0.145505 53.68 2.18787 56.2589 5.21717 56.4115H5.28416C6.00241 56.4487 6.60901 55.8942 6.64623 55.1797L7.6101 35.8651C7.64731 35.1506 7.09281 34.5366 6.37828 34.5031L6.01357 34.4882C3.15174 34.3431 0.710443 36.5537 0.569026 39.4155L0.00707638 50.6507Z" fill="#607282"/>
<path opacity="0.7" d="M269.971 75.0977H127.497C110.081 75.0977 105.518 77.0775 95.2988 86.6343L269.971 75.0977Z" fill="white"/>
<path opacity="0.7" d="M159.254 8.31055H63.53C51.8296 8.31055 46.4632 11.1314 39.6641 16.0661L159.254 8.31055Z" fill="white"/>
<path d="M623.997 117.142H597.679C597.079 117.142 596.596 116.655 596.596 116.06C596.596 115.46 597.079 114.977 597.679 114.977H623.997C624.596 114.977 625.08 115.46 625.08 116.06C625.08 116.655 624.596 117.142 623.997 117.142Z" fill="#607282"/>
<path d="M623.997 121.547H597.679C597.079 121.547 596.596 121.063 596.596 120.464C596.596 119.869 597.079 119.385 597.679 119.385H623.997C624.596 119.385 625.08 119.869 625.08 120.464C625.08 121.063 624.596 121.547 623.997 121.547Z" fill="#607282"/>
<path d="M623.997 125.948H597.679C597.079 125.948 596.596 125.464 596.596 124.869C596.596 124.27 597.079 123.782 597.679 123.782H623.997C624.596 123.782 625.08 124.27 625.08 124.869C625.08 125.468 624.596 125.948 623.997 125.948Z" fill="#607282"/>
<path d="M623.997 130.354H597.679C597.079 130.354 596.596 129.87 596.596 129.271C596.596 128.675 597.079 128.191 597.679 128.191H623.997C624.596 128.191 625.08 128.675 625.08 129.271C625.08 129.87 624.596 130.354 623.997 130.354Z" fill="#607282"/>
<path d="M623.997 134.758H597.679C597.079 134.758 596.596 134.27 596.596 133.679C596.596 133.076 597.079 132.596 597.679 132.596H623.997C624.596 132.596 625.08 133.076 625.08 133.679C625.08 134.27 624.596 134.758 623.997 134.758Z" fill="#607282"/>
<path d="M623.997 139.155H597.679C597.079 139.155 596.596 138.675 596.596 138.076C596.596 137.481 597.079 136.993 597.679 136.993H623.997C624.596 136.993 625.08 137.481 625.08 138.076C625.08 138.675 624.596 139.155 623.997 139.155Z" fill="#607282"/>
<path opacity="0.7" d="M500.52 69.3282V21.0195H542.159C518.271 25.3216 507.635 45.2539 500.52 69.3282Z" fill="white"/>
<path opacity="0.7" d="M421.656 69.3282V21.0195H463.296C439.412 25.3216 428.772 45.2539 421.656 69.3282Z" fill="white"/>
<path opacity="0.7" d="M342.793 69.3282V21.0195H384.433C360.548 25.3216 349.912 45.2539 342.793 69.3282Z" fill="white"/>
<path opacity="0.7" d="M263.928 69.3282V21.0195H305.568C281.687 25.3216 271.047 45.2539 263.928 69.3282Z" fill="white"/>
<path opacity="0.7" d="M185.064 69.3282V21.0195H226.704C202.82 25.3216 192.184 45.2539 185.064 69.3282Z" fill="white"/>
<path opacity="0.7" d="M89.2578 69.3282V21.0195H130.898C107.013 25.3216 96.377 45.2539 89.2578 69.3282Z" fill="white"/>
<path opacity="0.7" d="M31.4883 112.981L38.8122 62.1523H76.4663C52.578 66.4507 38.6038 88.8988 31.4883 112.981Z" fill="white"/>
<path opacity="0.7" d="M39.6641 54.5421L42.3212 39.8384C43.661 32.4363 49.3027 26.5526 56.649 24.904L75.8966 20.5908C52.7823 28.4097 46.7833 40.4562 39.6641 54.5421Z" fill="white"/>
<path opacity="0.7" d="M579.66 69.3282V21.0195H621.3C597.412 25.3216 586.776 45.2539 579.66 69.3282Z" fill="white"/>
<path opacity="0.7" d="M12.1895 103.52L31.4854 30.2136L31.4035 30.1727C31.4854 28.4869 29.9224 27.5453 29.2562 27.8468C28.5901 28.1482 27.3248 32.1749 27.228 32.5768C21.5788 56.9414 18.5867 72.5568 12.1895 103.52Z" fill="white"/>
</svg>
