<svg width="344" height="306" viewBox="0 0 344 306" fill="none" xmlns="http://www.w3.org/2000/svg">
<path d="M272.016 152.333C272.186 152.333 272.359 152.295 272.521 152.212C273.208 151.865 289.463 143.696 296.294 138.626C301.6 134.693 301.438 128.196 301.268 121.318C301.238 120.019 301.204 118.683 301.204 117.32C301.204 116.693 300.698 116.188 300.072 116.188C299.445 116.188 298.939 116.693 298.939 117.32C298.939 118.702 298.973 120.053 299.007 121.371C299.177 128.184 299.309 133.568 294.95 136.803C288.278 141.752 271.68 150.098 271.51 150.178C270.952 150.461 270.725 151.14 271.004 151.699C271.201 152.107 271.601 152.333 272.016 152.333Z" fill="#F5F1EF"/>
<path d="M302.133 126.376L294.083 131.023C292.192 132.114 290.645 130.944 290.645 128.422V105.489C290.645 102.967 292.192 100.008 294.083 98.913L302.133 94.266C304.023 93.175 305.571 94.3453 305.571 96.867V119.8C305.575 122.326 304.027 125.281 302.133 126.376Z" fill="#8E687C"/>
<path d="M293.762 132.412L291.777 131.152L292.423 129.755L294.525 130.77L293.762 132.412Z" fill="#8E687C"/>
<path d="M303.877 93.8584L306.304 95.1834L305.209 96.4103L303.27 95.1343L303.877 93.8584Z" fill="#8E687C"/>
<path d="M303.91 127.369L295.86 132.016C293.969 133.107 292.422 131.937 292.422 129.415V106.482C292.422 103.96 293.969 101 295.86 99.9057L303.91 95.2587C305.801 94.1677 307.348 95.3379 307.348 97.8596V120.793C307.348 123.318 305.801 126.274 303.91 127.369Z" fill="#BF99AF"/>
<path d="M110.98 105.614L336.439 236.968V182.367L289.589 147.048L273.077 93.8582L110.98 0.249512V105.614Z" fill="#412D34"/>
<path d="M162.861 157.618L0.767578 64.0093L111.172 0.249512L273.266 93.8582L162.861 157.618Z" fill="#634753"/>
<path d="M0.767578 169.373L16.2259 178.112L22.4417 154.67L62.5668 176.123L67.1371 208.044L154.033 258.667L157.789 240.226L200.39 267.746L202.601 286.965L226.226 300.728V246.127L179.376 210.808L162.861 157.618L0.767578 64.0093V169.373Z" fill="#412D34"/>
<path d="M273.266 93.8584L162.861 157.618L179.376 210.808L289.588 147.048L273.266 93.8584Z" fill="#513A43"/>
<path d="M178.705 196.859L181.46 205.73L285.566 145.889L282.792 136.84L178.705 196.859Z" fill="#412D34"/>
<path d="M236.251 131.434C227.36 135.712 191.643 156.459 170.078 169.071L178.706 196.859L274.305 141.733C273.588 140.075 272.878 138.433 272.191 136.84C263.654 117.101 254.823 122.499 236.251 131.434Z" fill="#634753"/>
<path d="M271.16 98.9355L166.885 158.777L170.081 169.068C191.642 156.455 227.363 135.704 236.255 131.431C254.827 122.499 263.658 117.101 272.191 136.837C272.881 138.433 273.591 140.075 274.304 141.729L282.792 136.837L271.16 98.9355Z" fill="#846173"/>
<path d="M289.587 147.048L179.375 210.808L226.225 246.127L336.438 182.367L289.587 147.048Z" fill="#634753"/>
<path d="M226.227 300.728V246.126L336.439 182.367V236.968L226.227 300.728Z" fill="#513A43"/>
<path d="M167.533 235.915C157.558 238.592 155.509 248.259 154.713 257.21L155.97 259.69L186.981 241.525C180.965 237.723 174.813 233.963 167.533 235.915Z" fill="#332329"/>
<path d="M169.133 254.636C169.148 268.509 177.594 284.617 188.003 290.615C198.412 296.614 206.835 290.226 206.824 276.353C206.809 262.48 198.362 246.372 187.954 240.374C177.545 234.375 169.118 240.762 169.133 254.636Z" fill="#332329"/>
<path d="M199.754 291.887L187.564 298.95L164.686 245.859L177.37 238.611L199.754 291.887Z" fill="#332329"/>
<path d="M156.908 261.71C156.923 275.583 165.37 291.691 175.778 297.69C186.187 303.688 194.614 297.301 194.599 283.428C194.584 269.554 186.138 253.447 175.729 247.448C165.32 241.453 156.893 247.837 156.908 261.71Z" fill="#412D34"/>
<path d="M162.207 264.764C162.218 274.734 168.291 286.315 175.771 290.626C183.251 294.937 189.308 290.347 189.301 280.373C189.289 270.4 183.217 258.822 175.737 254.511C168.253 250.2 162.196 254.79 162.207 264.764Z" fill="#755464"/>
<path d="M165.271 277.928L174.205 273.299L178.258 279.849L172.446 288.146C172.446 288.146 167.189 283.435 165.271 277.928Z" fill="#513A43"/>
<path d="M162.38 267.682C162.38 267.682 161.263 260.668 163.999 256.821C168.664 260.762 172.955 265.051 172.955 265.051L172.641 268.78L162.38 267.682Z" fill="#513A43"/>
<path d="M181.221 280.725C181.802 281.4 185.425 290.789 185.425 290.789C185.425 290.789 187.98 289.362 188.791 284.979C189.339 282.035 189.297 280.374 189.297 280.374L183.006 277.312L181.221 280.725Z" fill="#513A43"/>
<path d="M175.06 264.802L171.762 253.016C171.762 253.016 174.045 252.978 176.876 255.202C179.329 257.127 180.638 258.562 180.638 258.562L177.351 266.595L175.06 264.802Z" fill="#513A43"/>
<path d="M179.785 268.362C179.785 268.362 181.766 266.765 185.035 264.802C185.835 266.327 187.454 269.245 187.975 271.85C184.269 272.567 181.555 272.567 181.555 272.567L179.785 268.362Z" fill="#513A43"/>
<path d="M170.434 268.58C170.437 273.673 173.54 279.588 177.363 281.789C181.186 283.99 184.277 281.646 184.273 276.553C184.269 271.461 181.167 265.545 177.344 263.344C173.521 261.144 170.43 263.484 170.434 268.58Z" fill="#412D34"/>
<path d="M172.514 270.849C172.517 273.809 174.318 277.24 176.537 278.52C178.756 279.799 180.552 278.437 180.549 275.481C180.545 272.521 178.745 269.09 176.526 267.81C174.306 266.53 172.51 267.889 172.514 270.849Z" fill="white"/>
<path d="M182.221 230.792C174.793 226.512 164.502 223.778 155.229 234.73C152.093 238.429 149.927 248.316 149.896 256.259C151.542 257.21 153.867 258.475 155.471 259.403C155.471 259.211 156.037 256.315 156.037 256.126C156.025 246.768 158.32 240.037 162.385 236.715L171.155 234.873C171.155 234.873 170.88 234.718 170.48 234.488C172.94 234.756 175.654 235.666 178.609 237.372C192.388 245.311 202.604 264.805 202.6 286.968C206.899 289.667 210.764 291.744 211.541 292.178C211.541 257.206 198.856 240.377 182.221 230.792Z" fill="#513A43"/>
<path d="M178.609 236.889C193.524 245.485 206.824 268.686 205.695 288.754C204.997 288.365 202.25 286.726 200.68 285.82C200.683 285.628 200.687 285.148 200.687 284.952C200.672 268.482 190.644 249.361 178.288 242.246C165.932 235.126 155.931 242.706 155.946 259.173C155.946 259.346 155.965 259.52 155.965 259.694C154.527 258.863 153.048 258.01 151.572 257.157C151.652 237.38 163.713 228.305 178.609 236.889Z" fill="#634753"/>
<path d="M30.3418 155.813C20.3671 158.49 18.3178 168.158 17.5215 177.108L18.7783 179.588L49.7893 161.423C43.7773 157.618 37.6218 153.858 30.3418 155.813Z" fill="#332329"/>
<path d="M31.9414 174.53C31.9565 188.403 40.4027 204.511 50.8114 210.509C61.2201 216.508 69.6474 210.121 69.6324 196.247C69.6173 182.374 61.171 166.266 50.7624 160.268C40.3537 154.273 31.9301 160.657 31.9414 174.53Z" fill="#332329"/>
<path d="M62.5659 211.781L50.3722 218.845L27.4941 165.753L40.1785 158.505L62.5659 211.781Z" fill="#332329"/>
<path d="M19.7168 181.604C19.7319 195.477 28.1781 211.585 38.5868 217.584C48.9955 223.582 57.4229 217.195 57.4078 203.322C57.3927 189.449 48.9464 173.341 38.5378 167.342C28.1291 161.347 19.7017 167.731 19.7168 181.604Z" fill="#412D34"/>
<path d="M25.0156 184.658C25.027 194.628 31.0994 206.21 38.5795 210.521C46.0595 214.832 52.1168 210.241 52.1092 200.271C52.0979 190.298 46.0256 178.72 38.5455 174.409C31.0617 170.098 25.0081 174.688 25.0156 184.658Z" fill="#755464"/>
<path d="M28.0801 197.825L37.0132 193.197L41.0664 199.747L35.2545 208.044C35.2545 208.044 29.9973 203.329 28.0801 197.825Z" fill="#513A43"/>
<path d="M25.1886 187.576C25.1886 187.576 24.0715 180.563 26.8076 176.716C31.4723 180.657 35.7634 184.945 35.7634 184.945L35.4501 188.675L25.1886 187.576Z" fill="#513A43"/>
<path d="M44.0293 200.619C44.6105 201.295 48.2335 210.683 48.2335 210.683C48.2335 210.683 50.7885 209.256 51.5999 204.874C52.1471 201.929 52.1056 200.268 52.1056 200.268L45.8144 197.207L44.0293 200.619Z" fill="#513A43"/>
<path d="M37.8727 184.696L34.5742 172.911C34.5742 172.911 36.8574 172.873 39.6879 175.096C42.141 177.022 43.4506 178.456 43.4506 178.456L40.1635 186.489L37.8727 184.696Z" fill="#513A43"/>
<path d="M42.5977 188.26C42.5977 188.26 44.579 186.663 47.8473 184.7C48.6473 186.225 50.2664 189.143 50.7872 191.748C47.0811 192.465 44.3676 192.465 44.3676 192.465L42.5977 188.26Z" fill="#513A43"/>
<path d="M33.2422 188.475C33.246 193.567 36.3482 199.483 40.1712 201.684C43.9943 203.884 47.0852 201.54 47.0814 196.448C47.0776 191.355 43.9754 185.44 40.1524 183.239C36.3331 181.038 33.2384 183.382 33.2422 188.475Z" fill="#412D34"/>
<path d="M35.3223 190.743C35.326 193.703 37.1263 197.135 39.3454 198.414C41.5645 199.694 43.3609 198.331 43.3571 195.375C43.3533 192.416 41.5531 188.98 39.334 187.705C37.1149 186.425 35.3185 187.788 35.3223 190.743Z" fill="white"/>
<path d="M45.0333 150.691C37.6061 146.41 27.3143 143.677 18.0416 154.628C14.9092 158.328 12.7392 168.214 12.709 176.157C14.3544 177.108 16.6793 178.373 18.2795 179.302C18.2757 179.109 18.8455 176.217 18.8455 176.025C18.8342 166.667 21.1288 159.936 25.1934 156.614L33.9641 154.772C33.9641 154.772 33.6887 154.617 33.2886 154.387C35.7493 154.655 38.4627 155.564 41.4178 157.271C55.1967 165.21 65.4129 184.704 65.4091 206.867C69.7077 209.566 73.5723 211.642 74.3498 212.076C74.3535 177.101 61.6653 160.272 45.0333 150.691Z" fill="#513A43"/>
<path d="M41.4217 156.784C56.3366 165.38 69.6361 188.581 68.5077 208.649C67.8095 208.26 65.062 206.621 63.492 205.712C63.4958 205.519 63.5034 205.04 63.4996 204.843C63.4845 188.377 53.4533 169.253 41.1009 162.137C28.7449 155.017 18.7437 162.597 18.7588 179.068C18.7588 179.238 18.7777 179.415 18.7777 179.589C17.3398 178.758 15.8604 177.905 14.3848 177.052C14.4602 157.278 26.522 148.199 41.4217 156.784Z" fill="#634753"/>
<path d="M343.057 228.565L228.045 294.851L228.302 305.489L343.057 239.06V228.565Z" fill="#8E687C"/>
<path d="M272.189 269.377V280.045L312.42 256.753V246.187L272.189 269.377Z" fill="#F5F1EF"/>
<path d="M220.647 290.574C220.67 291.729 220.693 292.888 220.659 294.047C220.595 296.289 220.376 298.528 220.115 300.762L228.305 305.493V294.998L220.647 290.574Z" fill="#755464"/>
<path d="M213.881 281.944L228.298 290.253L336.453 227.641L336.449 224.76L343.058 228.565L228.302 294.998L215.844 287.761C213.81 286.583 213.881 281.944 213.881 281.944Z" fill="#BF99AF"/>
<path d="M213.882 281.944C213.882 281.944 213.256 291.117 215.931 296.878C216.935 299.041 221.041 301.336 221.041 301.336L221.517 291.117C221.517 291.117 217.981 288.924 216.316 286.863C214.652 284.798 213.882 281.944 213.882 281.944Z" fill="#755464"/>
<path d="M262.072 265.292L229.971 283.925V254.462L262.072 235.828V265.292Z" fill="#412D34"/>
<path d="M250.738 252.563C254.153 250.596 256.999 252.031 257.882 255.692C258.063 254.73 258.192 253.771 258.192 252.835C258.195 247.338 254.859 244.809 250.734 247.183C246.613 249.558 243.265 255.941 243.258 261.438C243.258 262.382 243.386 263.201 243.567 263.96C244.462 259.267 247.315 254.537 250.738 252.563Z" fill="#BF99AF"/>
<path d="M250.718 267.093C254.141 265.122 256.998 260.388 257.881 255.696C256.998 252.034 254.153 250.596 250.737 252.567C247.314 254.537 244.457 259.271 243.574 263.963C244.457 267.625 247.303 269.059 250.718 267.093Z" fill="white"/>
<path d="M239.417 269.332C239.413 271.665 237.994 274.367 236.247 275.375C234.499 276.383 233.084 275.311 233.084 272.978C233.088 270.645 234.507 267.942 236.254 266.934C238.005 265.927 239.421 267.002 239.417 269.332Z" fill="white"/>
<path d="M239.417 258.052C239.413 260.381 237.994 263.088 236.247 264.095C234.499 265.103 233.084 264.031 233.084 261.698C233.088 259.369 234.507 256.662 236.254 255.655C238.005 254.65 239.421 255.722 239.417 258.052Z" fill="white"/>
<path d="M333.883 223.559L301.781 242.193V212.729L333.883 194.092V223.559Z" fill="#412D34"/>
<path d="M312.375 217.089C315.832 215.1 318.707 216.583 319.553 220.34C319.715 219.43 319.828 218.524 319.832 217.644C319.836 212.148 316.5 209.619 312.375 211.993C308.253 214.368 304.906 220.751 304.898 226.247C304.898 227.138 305.012 227.92 305.178 228.645C306.027 223.899 308.914 219.082 312.375 217.089Z" fill="#BF99AF"/>
<path d="M312.352 231.898C315.813 229.905 318.7 225.088 319.549 220.343C318.7 216.587 315.828 215.1 312.371 217.093C308.91 219.086 306.023 223.903 305.174 228.648C306.023 232.404 308.899 233.888 312.352 231.898Z" fill="white"/>
<path d="M330.018 217.357C330.015 219.687 328.596 222.393 326.848 223.401C325.101 224.409 323.682 223.337 323.686 221.004C323.689 218.675 325.108 215.964 326.856 214.96C328.603 213.956 330.018 215.028 330.018 217.357Z" fill="white"/>
<path d="M330.018 206.081C330.015 208.41 328.596 211.117 326.848 212.125C325.101 213.133 323.682 212.061 323.686 209.728C323.689 207.395 325.108 204.688 326.856 203.684C328.603 202.676 330.018 203.748 330.018 206.081Z" fill="white"/>
<path d="M297.979 244.481L265.877 263.118V233.65L297.979 215.017V244.481Z" fill="#412D34"/>
<path d="M297.979 220.215L265.877 238.848V236.447L297.979 217.814V220.215Z" fill="#8E687C"/>
<path d="M297.979 227.482L265.877 246.119V243.718L297.979 225.084V227.482Z" fill="#8E687C"/>
<path d="M297.979 234.417L265.877 253.05V250.649L297.979 232.016V234.417Z" fill="#8E687C"/>
<path d="M297.979 241.687L265.877 260.32V257.92L297.979 239.286V241.687Z" fill="#8E687C"/>
<path d="M0.767578 113.598L159.608 205.387C161.48 206.47 163.823 205.119 163.823 202.956V175.179C163.823 169.887 161 164.994 156.419 162.344L0.767578 72.3975V113.598Z" fill="#332329"/>
<path d="M299.056 170.162C289.466 162.635 277.299 154.16 277.299 154.16L202.008 197.66C202.008 197.66 222.584 214.345 228.475 221.004C234.366 227.663 238.499 234.028 238.499 234.028L313.79 190.529C313.79 190.529 308.646 177.686 299.056 170.162Z" fill="#725462"/>
<path d="M14.9017 118.739L71.474 152.152C74.6555 153.986 77.2331 152.038 77.2331 147.799V126.686C77.2331 122.442 74.6555 117.516 71.474 115.681L14.9017 82.269C11.7202 80.4343 9.14258 82.3822 9.14258 86.6215V107.735C9.14258 111.974 11.7202 116.905 14.9017 118.739Z" fill="#513A43"/>
<path d="M130.276 150.004L96.6576 130.147C93.4761 128.313 90.8984 130.261 90.8984 134.5V155.614C90.8984 159.853 93.4761 164.783 96.6576 166.618L130.276 186.474V150.004Z" fill="#513A43"/>
<path d="M154.837 164.232L141.646 156.44V192.91L154.837 200.702C158.018 202.536 160.596 200.589 160.596 196.345V175.236C160.596 170.996 158.018 166.07 154.837 164.232Z" fill="#513A43"/>
<path d="M194.6 201.948C194.6 201.948 217.334 216.904 225.965 223.726C234.593 230.547 238.506 234.024 238.506 234.024C238.506 234.024 233.358 221.185 223.769 213.658C214.179 206.13 202.012 197.659 202.012 197.659L194.6 201.948Z" fill="#513A43"/>
<path d="M156.038 219.875C157.615 219.875 159.344 219.033 161.027 218.063L172.455 211.457C172.994 211.144 173.183 210.449 172.866 209.909C172.557 209.366 171.866 209.181 171.319 209.494L159.891 216.1C157.532 217.463 156.068 217.882 155.29 217.421C153.079 216.1 153.354 207.195 153.445 204.269C153.464 203.643 152.973 203.118 152.347 203.099C151.705 203.129 151.196 203.575 151.177 204.198C150.886 213.669 151.713 217.924 154.128 219.366C154.728 219.72 155.37 219.875 156.038 219.875Z" fill="#F5F1EF"/>
<path d="M155.547 211.434L147.497 216.081C145.606 217.172 144.059 216.002 144.059 213.48V190.547C144.059 188.026 145.606 185.066 147.497 183.971L155.547 179.324C157.437 178.233 158.985 179.403 158.985 181.925V204.858C158.985 207.384 157.437 210.343 155.547 211.434Z" fill="#8E687C"/>
<path d="M147.177 217.471L145.191 216.21L145.833 214.813L147.939 215.828L147.177 217.471Z" fill="#8E687C"/>
<path d="M157.291 178.917L159.718 180.242L158.619 181.468L156.68 180.192L157.291 178.917Z" fill="#8E687C"/>
<path d="M157.32 212.427L149.27 217.074C147.379 218.165 145.832 216.995 145.832 214.473V191.54C145.832 189.018 147.379 186.059 149.27 184.964L157.32 180.317C159.211 179.226 160.758 180.396 160.758 182.918V205.851C160.762 208.376 159.211 211.336 157.32 212.427Z" fill="#BF99AF"/>
<path d="M80.3605 88.4902L155.716 44.972C160.045 42.4691 159.498 38.0637 154.497 35.1758L123.32 17.1729C118.319 14.285 110.685 13.9679 106.356 16.4707L31.0003 59.9889C26.6716 62.4879 27.2189 66.8971 32.2194 69.785L63.3964 87.788C68.397 90.6759 76.0317 90.993 80.3605 88.4902Z" fill="#412D34"/>
<path d="M103.81 40.9026C77.4866 54.4549 57.707 65.4703 44.3281 73.2091L64.3379 84.8172C68.7421 87.3615 75.4637 87.6371 79.2754 85.4363L149.087 45.1948C145.626 43.6811 142.218 42.2088 138.931 40.8158C120.069 32.8241 107.339 39.0868 103.81 40.9026Z" fill="#725462"/>
<path d="M150.705 36.467L122.128 19.8608C117.724 17.3202 111.003 17.0409 107.191 19.2418L35.1791 60.7592C31.3674 62.96 31.541 65.8026 35.9415 68.3431L44.3272 73.2091C57.7061 65.4704 77.4894 54.4549 103.809 40.9027C107.338 39.0869 120.068 32.8242 138.926 40.8159C142.217 42.2088 145.621 43.6811 149.082 45.1949L151.279 43.9302C155.094 41.7256 155.105 39.0076 150.705 36.467Z" fill="#846173"/>
<path d="M173.945 139.886L175.829 138.795L88.3247 88.4897L86.4414 89.5769L173.945 139.886Z" fill="#513A43"/>
<path d="M185.559 132.975L187.442 131.888L99.9379 81.5781L98.0547 82.6653L185.559 132.975Z" fill="#513A43"/>
<path d="M198.379 125.828L200.262 124.741L112.758 74.4316L110.875 75.5188L198.379 125.828Z" fill="#513A43"/>
<path d="M209.99 118.916L211.874 117.829L124.37 67.5195L122.486 68.6105L209.99 118.916Z" fill="#513A43"/>
<path d="M221.012 112.646L222.895 111.559L135.391 61.2495L133.508 62.3367L221.012 112.646Z" fill="#513A43"/>
<path d="M232.623 105.734L234.506 104.647L147.002 54.3374L145.119 55.4246L232.623 105.734Z" fill="#513A43"/>
<path d="M245.443 98.5881L247.327 97.5008L159.823 47.1914L157.939 48.2824L245.443 98.5881Z" fill="#513A43"/>
<path d="M83.0215 217.297L85.399 218.683V112.884L83.0215 111.51V217.297Z" fill="#332329"/>
<path d="M134.775 247.259L137.149 248.641V142.846L134.775 141.472V247.259Z" fill="#332329"/>
<path d="M129.688 194.299L122.053 189.89C121.256 189.43 120.604 189.924 120.604 190.985C120.604 192.05 121.256 193.295 122.053 193.756L129.688 198.165C130.484 198.626 131.137 198.131 131.137 197.07C131.133 196.006 130.484 194.756 129.688 194.299Z" fill="#755464"/>
</svg>
