<svg width="389" height="244" viewBox="0 0 389 244" fill="none" xmlns="http://www.w3.org/2000/svg">
<path d="M264.804 49.7468L356.953 47.1152L360.58 149.319L260.982 155.886L264.804 49.7468Z" fill="#A52525"/>
<path d="M138.079 29.9674C138.079 29.9674 136.283 0.643555 157.322 0.643555C178.36 0.643555 176.338 34.5169 176.338 34.5169L138.079 29.9674Z" fill="#FFB85A"/>
<path d="M167.109 33.4186L176.336 34.5169C176.336 34.5169 178.359 0.643555 157.32 0.643555C157.32 0.643555 166.524 6.46587 167.109 33.4186Z" fill="#FFF200"/>
<path d="M157.322 0.643555C136.283 0.643555 138.079 29.9653 138.079 29.9653L148.193 31.1679C145.934 5.59607 157.322 0.643555 157.322 0.643555Z" fill="#EA9939"/>
<path d="M383.893 176.595L383.376 175.806L360.578 184.41V198.301L385.238 204.207C389.832 195.441 389.319 184.873 383.893 176.595Z" fill="#BCBEC0"/>
<path d="M360.575 149.317H289.516V213.362H360.575V149.317Z" fill="#211F21"/>
<path d="M294.324 164.363C279.347 164.363 267.205 182.159 267.205 204.113C267.205 226.065 279.347 243.861 294.324 243.861H326.546V164.363H294.324Z" fill="#302D30"/>
<path d="M285.649 204.113C285.649 182.161 297.791 164.363 312.766 164.363H304.846C289.868 164.363 277.727 182.159 277.727 204.113C277.727 226.065 289.868 243.861 304.846 243.861H312.766C297.791 243.861 285.649 226.065 285.649 204.113Z" fill="#211F21"/>
<path d="M326.549 243.861C341.526 243.861 353.668 226.065 353.668 204.113C353.668 182.161 341.526 164.365 326.549 164.365C311.571 164.365 299.43 182.161 299.43 204.113C299.43 226.065 311.571 243.861 326.549 243.861Z" fill="#544E54"/>
<path d="M326.547 229.449C321.488 229.449 313.842 219.344 313.842 204.114C313.842 188.884 321.49 178.778 326.547 178.778C331.605 178.778 339.251 188.884 339.251 204.114C339.251 219.344 331.605 229.449 326.547 229.449Z" fill="#75767F"/>
<path d="M321.574 218.221C318.496 218.221 313.842 212.595 313.842 204.114C313.842 195.634 318.496 190.006 321.574 190.006C324.653 190.006 329.306 195.632 329.306 204.114C329.306 212.593 324.653 218.221 321.574 218.221Z" fill="#302D30"/>
<path d="M292.984 212.468C292.984 212.468 285.342 156.115 324.284 156.115C363.226 156.115 354.53 213.364 354.53 213.364H373.177L368.146 143.932L219.369 150.82L256.82 213.364L292.984 212.468Z" fill="#BA312D"/>
<path d="M354.525 213.363H373.173L371.81 194.554L355.215 195.129C355.756 205.246 354.525 213.363 354.525 213.363Z" fill="#58595B"/>
<path d="M256.817 213.363L292.982 212.467C292.982 212.467 292.046 205.546 292.501 196.56L255.661 197.401L252.029 205.368L256.817 213.363Z" fill="#58595B"/>
<path d="M254.51 133.742H174.889V213.364H254.51V133.742Z" fill="#211F21"/>
<path d="M179.437 164.362C164.46 164.362 152.318 182.158 152.318 204.112C152.318 226.064 164.46 243.86 179.437 243.86H211.661V164.362H179.437Z" fill="#302D30"/>
<path d="M170.766 204.112C170.766 182.16 182.908 164.362 197.886 164.362H189.965C174.987 164.362 162.846 182.158 162.846 204.112C162.846 226.064 174.987 243.86 189.965 243.86H197.886C182.908 243.86 170.766 226.064 170.766 204.112Z" fill="#211F21"/>
<path d="M211.662 243.86C226.64 243.86 238.781 226.064 238.781 204.112C238.781 182.16 226.64 164.364 211.662 164.364C196.685 164.364 184.543 182.16 184.543 204.112C184.543 226.064 196.685 243.86 211.662 243.86Z" fill="#544E54"/>
<path d="M211.662 229.448C206.603 229.448 198.955 219.343 198.955 204.113C198.955 188.883 206.603 178.777 211.662 178.777C216.72 178.777 224.367 188.883 224.367 204.113C224.367 219.343 216.718 229.448 211.662 229.448Z" fill="#75767F"/>
<path d="M206.687 218.22C203.609 218.22 198.955 212.594 198.955 204.113C198.955 195.633 203.609 190.005 206.687 190.005C209.766 190.005 214.42 195.631 214.42 204.113C214.42 212.592 209.766 218.22 206.687 218.22Z" fill="#302D30"/>
<path d="M65.7714 164.362C50.7939 164.362 38.6523 182.158 38.6523 204.112C38.6523 226.064 50.7939 243.86 65.7714 243.86H97.9953V164.362H65.7714Z" fill="#302D30"/>
<path d="M57.0946 204.112C57.0946 182.16 69.2361 164.362 84.2117 164.362H76.2909C61.3134 164.362 49.1738 182.158 49.1738 204.112C49.1738 226.064 61.3154 243.86 76.2909 243.86H84.2117C69.2361 243.86 57.0946 226.064 57.0946 204.112Z" fill="#211F21"/>
<path d="M97.996 243.86C112.973 243.86 125.115 226.064 125.115 204.112C125.115 182.16 112.973 164.364 97.996 164.364C83.0185 164.364 70.877 182.16 70.877 204.112C70.877 226.064 83.0185 243.86 97.996 243.86Z" fill="#544E54"/>
<path d="M97.9958 229.448C92.9372 229.448 85.2891 219.343 85.2891 204.113C85.2891 188.883 92.9372 178.777 97.9958 178.777C103.054 178.777 110.701 188.883 110.701 204.113C110.701 219.343 103.054 229.448 97.9958 229.448Z" fill="#75767F"/>
<path d="M93.0214 218.22C89.9429 218.22 85.2891 212.594 85.2891 204.113C85.2891 195.633 89.9429 190.005 93.0214 190.005C96.0998 190.005 100.754 195.631 100.754 204.113C100.754 212.592 96.0998 218.22 93.0214 218.22Z" fill="#302D30"/>
<path d="M38.6548 29.9626L162.842 24.0381L148.194 213.926L19.7109 208.442L38.6548 29.9626Z" fill="#BA312D"/>
<path d="M180.359 212.467C180.359 212.467 172.717 156.114 211.659 156.114C250.599 156.114 241.905 213.363 241.905 213.363H279.656L266.448 31.083L162.84 24.0381L148.191 213.926L180.359 212.467Z" fill="#F75448"/>
<path d="M156.284 220.829L12.1387 218.221L16.2834 193.531L154.082 194.413L156.284 220.829Z" fill="#635C63"/>
<path d="M154.655 201.274L15.1777 200.121L16.2841 193.531L154.082 194.413L154.655 201.274Z" fill="#80818A"/>
<path d="M97.9953 213.064H50.6797L54.7423 198.265H95.5241L97.9953 213.064Z" fill="white"/>
<path d="M8.95885 79.166H24.1809L19.7315 116.984H0.154297L8.95885 79.166Z" fill="#C93E34"/>
<path d="M51.6719 46.054L141.615 43.0557L138.262 117.39L45.2363 114.328L51.6719 46.054Z" fill="#BCBEC0"/>
<path d="M133.989 43.3105L100.36 44.4309L46.7736 98.0198L45.2363 114.328L62.4065 114.893L133.989 43.3105Z" fill="white"/>
<path d="M83.6247 115.592L140.927 58.2874L141.304 49.9297L75.8984 115.336L83.6247 115.592Z" fill="white"/>
<path d="M49.2871 71.3467L75.3701 45.2637L67.1146 45.5383L50.1169 62.5361L49.2871 71.3467Z" fill="white"/>
<path d="M44.3336 168.165C44.3336 174.945 38.0945 180.442 30.3982 180.442C22.702 180.442 16.4629 174.945 16.4629 168.165C16.4629 161.384 22.702 155.887 30.3982 155.887C38.0945 155.887 44.3336 161.384 44.3336 168.165Z" fill="#544E54"/>
<path d="M40.2183 168.344C40.2183 173.858 35.1456 178.327 28.8884 178.327C22.6312 178.327 17.5605 173.858 17.5605 168.344C17.5605 162.831 22.6332 158.361 28.8884 158.361C35.1456 158.363 40.2183 162.833 40.2183 168.344Z" fill="#FFB85A"/>
<path d="M36.5489 164.976C35.9777 166.053 33.9955 166.117 32.1256 165.123C30.2536 164.129 29.2014 162.449 29.7726 161.373C30.3438 160.297 32.326 160.23 34.1959 161.227C36.0679 162.223 37.1221 163.9 36.5489 164.976Z" fill="white"/>
<path d="M64.359 180.442C74.2514 180.442 82.2708 173.376 82.2708 164.659C82.2708 155.942 74.2514 148.876 64.359 148.876C54.4666 148.876 46.4473 155.942 46.4473 164.659C46.4473 173.376 54.4666 180.442 64.359 180.442Z" fill="#544E54"/>
<path d="M76.9769 164.89C76.9769 171.977 70.4572 177.721 62.4142 177.721C54.3713 177.721 47.8516 171.977 47.8516 164.89C47.8516 157.803 54.3713 152.059 62.4142 152.059C70.4572 152.057 76.9769 157.803 76.9769 164.89Z" fill="#FFF200"/>
<path d="M72.2641 160.56C71.5285 161.943 68.9831 162.027 66.5781 160.748C64.173 159.469 62.8182 157.311 63.5537 155.928C64.2893 154.545 66.8346 154.461 69.2397 155.74C71.6448 157.02 72.9996 159.177 72.2641 160.56Z" fill="white"/>
<path d="M102.613 180.442C112.505 180.442 120.525 173.376 120.525 164.659C120.525 155.942 112.505 148.876 102.613 148.876C92.7205 148.876 84.7012 155.942 84.7012 164.659C84.7012 173.376 92.7205 180.442 102.613 180.442Z" fill="#544E54"/>
<path d="M115.229 164.89C115.229 171.977 108.709 177.721 100.666 177.721C92.6232 177.721 86.1035 171.977 86.1035 164.89C86.1035 157.803 92.6232 152.059 100.666 152.059C108.709 152.057 115.229 157.803 115.229 164.89Z" fill="#FFF200"/>
<path d="M110.518 160.56C109.782 161.943 107.237 162.027 104.832 160.748C102.427 159.469 101.072 157.311 101.808 155.928C102.543 154.545 105.089 154.461 107.494 155.74C109.901 157.02 111.254 159.177 110.518 160.56Z" fill="white"/>
<path d="M150.822 171.352C150.822 178.132 144.583 183.63 136.887 183.63C129.19 183.63 122.951 178.132 122.951 171.352C122.951 164.572 129.19 159.074 136.887 159.074C144.583 159.074 150.822 164.572 150.822 171.352Z" fill="#544E54"/>
<path d="M146.701 171.533C146.701 177.046 141.628 181.516 135.373 181.516C129.118 181.516 124.043 177.046 124.043 171.533C124.043 166.019 129.116 161.55 135.373 161.55C141.63 161.55 146.701 166.019 146.701 171.533Z" fill="#FFB85A"/>
<path d="M143.039 168.162C142.468 169.238 140.486 169.302 138.616 168.308C136.744 167.314 135.692 165.635 136.263 164.558C136.834 163.482 138.816 163.416 140.686 164.412C142.556 165.408 143.61 167.086 143.039 168.162Z" fill="white"/>
<path d="M45.2324 114.328L46.3388 102.587L138.856 104.158L138.258 117.39L45.2324 114.328Z" fill="#939598"/>
<path d="M177.143 45.7939L222.775 50.5359L227.36 122.465H171.773L177.143 45.7939Z" fill="#BCBEC0"/>
<path d="M173.98 90.9619L172.012 119.051L223.839 67.2239L222.775 50.5347L215.195 49.7471L173.98 90.9619Z" fill="white"/>
<path d="M203.822 122.465L225.947 100.34L225.432 92.2529L195.314 122.465H203.822Z" fill="white"/>
<path d="M174.718 81.2803H161.895L159.486 119.098H179.064L174.718 81.2803Z" fill="#C93E34"/>
<path d="M232.613 51.4629L257.039 53.5634L260.881 122.464H237.341L232.613 51.4629Z" fill="#BCBEC0"/>
<path d="M45.1175 121.998L118.624 123.495L121.394 145.624H40.2793L45.1175 121.998Z" fill="#635C63"/>
<path d="M118.625 123.495H128.115L130.358 145.624H121.395L118.625 123.495Z" fill="#302D30"/>
<path d="M49.8189 124.66L48.4961 129.761L115.642 130.432L115.341 125.865L49.8189 124.66Z" fill="#302D30"/>
<path d="M48.5844 132.004L47.2637 137.105L116.271 137.794L115.64 133.018L48.5844 132.004Z" fill="#302D30"/>
<path d="M47.6548 138.462L46.332 143.565L115.339 144.252L114.71 139.478L47.6548 138.462Z" fill="#302D30"/>
<path d="M331.191 34.7298L335.136 145.766L343.533 145.467L341.14 34.375L331.191 34.7298Z" fill="#A7A9AC"/>
<path d="M304.201 43.9766V53.4285H337.361L336.215 45.7924L304.201 43.9766Z" fill="#E6E7E8"/>
<path d="M304.201 65.4551V74.907H337.361L336.215 67.273L304.201 65.4551Z" fill="#E6E7E8"/>
<path d="M304.201 86.9365V96.3865H337.361L336.215 88.7524L304.201 86.9365Z" fill="#E6E7E8"/>
<path d="M304.201 108.417V117.867H337.361L336.215 110.233L304.201 108.417Z" fill="#E6E7E8"/>
<path d="M304.201 129.896V139.345H337.361L336.215 131.711L304.201 129.896Z" fill="#E6E7E8"/>
<path d="M298.035 34.7298L301.977 145.766L310.375 145.467L307.982 34.375L298.035 34.7298Z" fill="#808285"/>
<path d="M307.982 34.375H313.843V145.766L310.375 145.467L307.982 34.375Z" fill="#A7A9AC"/>
<path d="M154.512 132.002L273.749 132.99L274.81 146.462L153.568 144.252L154.512 132.002Z" fill="white"/>
</svg>
