<svg width="654" height="254" viewBox="0 0 654 254" fill="none" xmlns="http://www.w3.org/2000/svg">
<path d="M217.693 220.909H153.393L163.802 250.536C164.334 252.039 165.748 253.048 167.344 253.048H203.491C205.237 253.048 206.796 251.946 207.373 250.298L217.693 220.909Z" fill="#7A7A78"/>
<path d="M238.642 237.455C238.642 246.595 231.237 253.997 222.097 253.997C212.957 253.997 205.551 246.595 205.551 237.455C205.551 228.319 212.957 220.909 222.097 220.909C231.237 220.909 238.642 228.319 238.642 237.455Z" fill="#8F8F8F"/>
<path d="M235.503 237.455C235.503 244.894 229.504 250.923 222.098 250.923C214.696 250.923 208.697 244.894 208.697 237.455C208.697 230.02 214.693 223.983 222.098 223.983C229.5 223.983 235.503 230.02 235.503 237.455Z" fill="#646464"/>
<path d="M234.41 237.455C234.41 244.288 228.903 249.826 222.1 249.826C215.304 249.826 209.789 244.288 209.789 237.455C209.789 230.623 215.301 225.085 222.1 225.085C228.899 225.085 234.41 230.623 234.41 237.455Z" fill="#8F8F8F"/>
<path d="M165.15 237.455C165.15 246.595 157.744 253.997 148.601 253.997C139.464 253.997 132.059 246.595 132.059 237.455C132.059 228.319 139.464 220.909 148.601 220.909C157.744 220.909 165.15 228.319 165.15 237.455Z" fill="#8F8F8F"/>
<path d="M162.005 237.455C162.005 244.894 156.01 250.923 148.6 250.923C141.202 250.923 135.199 244.894 135.199 237.455C135.199 230.02 141.198 223.983 148.6 223.983C156.006 223.983 162.005 230.02 162.005 237.455Z" fill="#646464"/>
<path d="M160.915 237.455C160.915 244.288 155.407 249.826 148.604 249.826C141.808 249.826 136.297 244.288 136.297 237.455C136.297 230.623 141.805 225.085 148.604 225.085C155.403 225.085 160.915 230.623 160.915 237.455Z" fill="#8F8F8F"/>
<path d="M219.84 242.964H151.543L150.215 241.691L151.543 237.456H219.84L220.864 241.818L219.84 242.964Z" fill="#646464"/>
<path d="M226.612 237.453C226.612 239.958 224.592 241.986 222.098 241.986C219.609 241.986 217.588 239.958 217.588 237.453C217.588 234.949 219.609 232.917 222.098 232.917C224.592 232.917 226.612 234.949 226.612 237.453Z" fill="#7A7A78"/>
<path d="M224.356 237.455C224.356 238.705 223.344 239.721 222.101 239.721C220.854 239.721 219.842 238.705 219.842 237.455C219.842 236.201 220.854 235.188 222.101 235.188C223.344 235.188 224.356 236.201 224.356 237.455Z" fill="#4D4B4B"/>
<path d="M153.112 237.453C153.112 239.958 151.092 241.986 148.598 241.986C146.109 241.986 144.088 239.958 144.088 237.453C144.088 234.949 146.109 232.917 148.598 232.917C151.092 232.917 153.112 234.949 153.112 237.453Z" fill="#7A7A78"/>
<path d="M150.866 237.455C150.866 238.705 149.857 239.721 148.607 239.721C147.364 239.721 146.355 238.705 146.355 237.455C146.355 236.201 147.364 235.188 148.607 235.188C149.854 235.188 150.866 236.201 150.866 237.455Z" fill="#4D4B4B"/>
<path d="M198.467 231.846C198.467 232.226 198.162 232.531 197.782 232.531H173.302C172.922 232.531 172.617 232.226 172.617 231.846C172.617 231.467 172.922 231.165 173.302 231.165H197.782C198.162 231.169 198.467 231.47 198.467 231.846Z" fill="#4D4B4B"/>
<path d="M198.467 234.449C198.467 234.828 198.162 235.133 197.782 235.133H173.302C172.922 235.133 172.617 234.828 172.617 234.449C172.617 234.069 172.922 233.764 173.302 233.764H197.782C198.162 233.764 198.467 234.069 198.467 234.449Z" fill="#4D4B4B"/>
<path d="M202.107 247.763C202.107 248.47 201.713 249.047 201.229 249.047H169.857C169.373 249.047 168.982 248.474 168.982 247.763C168.982 247.056 169.373 246.479 169.857 246.479H201.229C201.713 246.479 202.107 247.056 202.107 247.763Z" fill="#646464"/>
<path d="M198.467 226.653C198.467 227.036 198.162 227.337 197.782 227.337H173.302C172.922 227.337 172.617 227.036 172.617 226.653C172.617 226.273 172.922 225.972 173.302 225.972H197.782C198.162 225.972 198.467 226.273 198.467 226.653Z" fill="#4D4B4B"/>
<path d="M198.467 229.247C198.467 229.627 198.162 229.932 197.782 229.932H173.302C172.922 229.932 172.617 229.627 172.617 229.247C172.617 228.868 172.922 228.562 173.302 228.562H197.782C198.162 228.566 198.467 228.871 198.467 229.247Z" fill="#4D4B4B"/>
<path d="M502.685 220.909H438.385L448.786 250.536C449.319 252.039 450.736 253.048 452.329 253.048H488.484C490.229 253.048 491.788 251.946 492.365 250.298L502.685 220.909Z" fill="#7A7A78"/>
<path d="M523.635 237.455C523.635 246.595 516.232 253.997 507.089 253.997C497.952 253.997 490.543 246.595 490.543 237.455C490.543 228.319 497.952 220.909 507.089 220.909C516.229 220.909 523.635 228.319 523.635 237.455Z" fill="#8F8F8F"/>
<path d="M520.492 237.455C520.492 244.894 514.493 250.923 507.087 250.923C499.689 250.923 493.689 244.894 493.689 237.455C493.689 230.02 499.685 223.983 507.087 223.983C514.489 223.983 520.492 230.02 520.492 237.455Z" fill="#646464"/>
<path d="M519.399 237.455C519.399 244.288 513.891 249.826 507.088 249.826C500.293 249.826 494.781 244.288 494.781 237.455C494.781 230.623 500.289 225.085 507.088 225.085C513.887 225.085 519.399 230.623 519.399 237.455Z" fill="#8F8F8F"/>
<path d="M450.142 237.455C450.142 246.595 442.733 253.997 433.597 253.997C424.46 253.997 417.051 246.595 417.051 237.455C417.051 228.319 424.46 220.909 433.597 220.909C442.729 220.909 450.142 228.319 450.142 237.455Z" fill="#8F8F8F"/>
<path d="M446.997 237.455C446.997 244.894 440.998 250.923 433.596 250.923C426.198 250.923 420.191 244.894 420.191 237.455C420.191 230.02 426.194 223.983 433.596 223.983C440.995 223.983 446.997 230.02 446.997 237.455Z" fill="#646464"/>
<path d="M445.903 237.455C445.903 244.288 440.395 249.826 433.596 249.826C426.801 249.826 421.289 244.288 421.289 237.455C421.289 230.623 426.797 225.085 433.596 225.085C440.392 225.085 445.903 230.623 445.903 237.455Z" fill="#8F8F8F"/>
<path d="M504.836 242.964H436.536L435.207 241.691L436.536 237.456H504.836L505.86 241.818L504.836 242.964Z" fill="#646464"/>
<path d="M511.601 237.453C511.601 239.958 509.58 241.986 507.086 241.986C504.597 241.986 502.572 239.958 502.572 237.453C502.572 234.949 504.597 232.917 507.086 232.917C509.58 232.917 511.601 234.949 511.601 237.453Z" fill="#7A7A78"/>
<path d="M509.35 237.455C509.35 238.705 508.342 239.721 507.091 239.721C505.848 239.721 504.84 238.705 504.84 237.455C504.84 236.201 505.852 235.188 507.091 235.188C508.338 235.188 509.35 236.201 509.35 237.455Z" fill="#4D4B4B"/>
<path d="M438.109 237.453C438.109 239.958 436.088 241.986 433.594 241.986C431.101 241.986 429.08 239.958 429.08 237.453C429.08 234.949 431.101 232.917 433.594 232.917C436.088 232.917 438.109 234.949 438.109 237.453Z" fill="#7A7A78"/>
<path d="M435.847 237.455C435.847 238.705 434.842 239.721 433.595 239.721C432.348 239.721 431.34 238.705 431.34 237.455C431.34 236.201 432.348 235.188 433.595 235.188C434.838 235.188 435.847 236.201 435.847 237.455Z" fill="#4D4B4B"/>
<path d="M483.459 231.846C483.459 232.226 483.15 232.531 482.774 232.531H458.294C457.915 232.531 457.609 232.226 457.609 231.846C457.609 231.467 457.915 231.165 458.294 231.165H482.774C483.15 231.169 483.459 231.47 483.459 231.846Z" fill="#4D4B4B"/>
<path d="M483.459 234.449C483.459 234.828 483.15 235.133 482.774 235.133H458.294C457.915 235.133 457.609 234.828 457.609 234.449C457.609 234.069 457.915 233.764 458.294 233.764H482.774C483.15 233.764 483.459 234.069 483.459 234.449Z" fill="#4D4B4B"/>
<path d="M487.088 247.763C487.088 248.47 486.697 249.047 486.21 249.047H454.845C454.358 249.047 453.967 248.474 453.967 247.763C453.967 247.056 454.358 246.479 454.845 246.479H486.21C486.697 246.479 487.088 247.056 487.088 247.763Z" fill="#646464"/>
<path d="M483.459 226.653C483.459 227.036 483.15 227.337 482.774 227.337H458.294C457.915 227.337 457.609 227.036 457.609 226.653C457.609 226.273 457.915 225.972 458.294 225.972H482.774C483.15 225.972 483.459 226.273 483.459 226.653Z" fill="#4D4B4B"/>
<path d="M483.459 229.247C483.459 229.627 483.15 229.932 482.774 229.932H458.294C457.915 229.932 457.609 229.627 457.609 229.247C457.609 228.868 457.915 228.562 458.294 228.562H482.774C483.15 228.566 483.459 228.871 483.459 229.247Z" fill="#4D4B4B"/>
<path d="M626.076 163.47H27.3203L28.1093 160.601L28.3251 159.779L28.5559 158.956L39.9771 117.112L40.2042 116.293L40.4199 115.474L41.2052 112.598H612.191L612.976 115.474L613.188 116.293L613.419 117.112L624.844 158.956L625.071 159.779L625.283 160.601L626.076 163.47Z" fill="#FFE0A1"/>
<path d="M626.064 163.471L624.688 168.525L611.294 217.671C610.736 217.313 610.01 217.083 609.225 217.083H44.0931C43.3227 217.083 42.6342 217.298 42.1058 217.671L27.3203 163.471H626.064Z" fill="#E6332A"/>
<path d="M612.422 219.513V228.999C612.422 235.106 605.924 240.059 597.934 240.059H523.236C523.135 239.698 523.054 239.322 522.909 238.961L518.815 228.772C518.618 228.277 518.342 227.8 518.03 227.342C516.307 224.864 513.02 223.093 509.954 223.093H430.66C427.593 223.093 424.311 224.864 422.603 227.342C422.272 227.8 422.011 228.277 421.814 228.772L417.713 238.961C417.564 239.322 417.478 239.698 417.4 240.059H238.229C238.151 239.698 238.069 239.322 237.901 238.961L233.815 228.772C233.618 228.277 233.357 227.8 233.03 227.342C231.322 224.864 228.036 223.093 224.969 223.093H145.66C142.59 223.093 139.308 224.864 137.6 227.342C137.272 227.8 137.012 228.277 136.814 228.772L132.71 238.961C132.561 239.322 132.483 239.698 132.397 240.059H55.7118C47.6399 240.059 41.0938 235.053 41.0938 228.902V219.353C41.0938 218.679 41.4845 218.087 42.0911 217.678C42.6233 217.302 43.308 217.09 44.0784 217.09H609.214C609.999 217.09 610.721 217.324 611.283 217.678C611.979 218.117 612.422 218.772 612.422 219.513Z" fill="#FFE0A1"/>
<path d="M186.888 90.4459L122.518 45.9442L186.888 1.44629L251.259 45.9442L186.888 90.4459ZM128.293 45.9442L186.888 86.4564L245.487 45.9442L186.888 5.4357L128.293 45.9442Z" fill="#E6332A"/>
<path d="M207.954 96.7408H165.834C163.117 96.7408 160.91 94.5339 160.91 91.8173V89.082C160.91 86.3653 163.117 84.1621 165.834 84.1621H207.954C210.67 84.1621 212.873 86.3653 212.873 89.082V91.8173C212.877 94.5339 210.674 96.7408 207.954 96.7408Z" fill="#8F8F8F"/>
<path d="M615.338 100.671V110.172C615.338 111.515 614.058 112.598 612.48 112.598H40.7204C39.2578 112.598 38.0781 111.582 38.0781 110.335V100.771C38.0781 94.6157 43.9059 89.6289 51.0921 89.6289H602.439C609.559 89.6252 615.338 94.5784 615.338 100.671Z" fill="#FFE0A1"/>
<path d="M184.219 159.779H143.755C139.948 159.779 136.859 156.691 136.859 152.88V123.19C136.859 119.379 139.948 116.29 143.755 116.29H184.219C188.03 116.29 191.119 119.379 191.119 123.19V152.88C191.123 156.691 188.034 159.779 184.219 159.779Z" fill="#BFE9E6"/>
<path d="M143.755 117.113C140.406 117.113 137.675 119.837 137.675 123.194V152.884C137.675 156.233 140.402 158.961 143.755 158.961H184.223C187.572 158.961 190.3 156.237 190.3 152.884V123.194C190.3 119.841 187.576 117.113 184.223 117.113H143.755ZM184.223 160.602H143.755C139.494 160.602 136.037 157.138 136.037 152.884V123.194C136.037 118.94 139.498 115.476 143.755 115.476H184.223C188.48 115.476 191.938 118.94 191.938 123.194V152.884C191.941 157.138 188.48 160.602 184.223 160.602Z" fill="#3C3C3B"/>
<path d="M249.32 159.778H208.857C205.046 159.778 201.953 156.69 201.953 152.879V123.189C201.953 119.378 205.042 116.289 208.857 116.289H249.32C253.128 116.289 256.22 119.378 256.22 123.189V152.879C256.216 156.69 253.128 159.778 249.32 159.778Z" fill="#BFE9E6"/>
<path d="M208.855 117.113C205.502 117.113 202.774 119.837 202.774 123.194V152.884C202.774 156.233 205.498 158.961 208.855 158.961H249.319C252.668 158.961 255.396 156.237 255.396 152.884V123.194C255.396 119.841 252.672 117.113 249.319 117.113H208.855ZM249.319 160.602H208.855C204.594 160.602 201.133 157.138 201.133 152.884V123.194C201.133 118.94 204.598 115.476 208.855 115.476H249.319C253.576 115.476 257.037 118.94 257.037 123.194V152.884C257.037 157.138 253.573 160.602 249.319 160.602Z" fill="#3C3C3B"/>
<path d="M314.42 159.779H273.952C270.142 159.779 267.053 156.691 267.053 152.88V123.19C267.053 119.379 270.142 116.29 273.952 116.29H314.42C318.227 116.29 321.316 119.379 321.316 123.19V152.88C321.316 156.691 318.227 159.779 314.42 159.779Z" fill="#BFE9E6"/>
<path d="M273.949 117.113C270.599 117.113 267.872 119.837 267.872 123.194V152.884C267.872 156.233 270.596 158.961 273.949 158.961H314.42C317.769 158.961 320.497 156.237 320.497 152.884V123.194C320.497 119.841 317.773 117.113 314.42 117.113H273.949ZM314.42 160.602H273.949C269.695 160.602 266.23 157.138 266.23 152.884V123.194C266.23 118.94 269.699 115.476 273.949 115.476H314.42C318.674 115.476 322.138 118.94 322.138 123.194V152.884C322.138 157.138 318.67 160.602 314.42 160.602Z" fill="#3C3C3B"/>
<path d="M379.514 159.779H339.05C335.243 159.779 332.15 156.691 332.15 152.88V123.19C332.15 119.379 335.239 116.29 339.05 116.29H379.514C383.325 116.29 386.414 119.379 386.414 123.19V152.88C386.417 156.691 383.325 159.779 379.514 159.779Z" fill="#BFE9E6"/>
<path d="M339.047 117.113C335.697 117.113 332.969 119.837 332.969 123.194V152.884C332.969 156.233 335.693 158.961 339.047 158.961H379.51C382.863 158.961 385.591 156.237 385.591 152.884V123.194C385.591 119.841 382.867 117.113 379.51 117.113H339.047ZM379.51 160.602H339.047C334.789 160.602 331.328 157.138 331.328 152.884V123.194C331.328 118.94 334.793 115.476 339.047 115.476H379.51C383.772 115.476 387.229 118.94 387.229 123.194V152.884C387.229 157.138 383.772 160.602 379.51 160.602Z" fill="#3C3C3B"/>
<path d="M444.604 159.779H404.14C400.329 159.779 397.24 156.691 397.24 152.88V123.19C397.24 119.379 400.329 116.29 404.14 116.29H444.604C448.411 116.29 451.5 119.379 451.5 123.19V152.88C451.503 156.691 448.415 159.779 444.604 159.779Z" fill="#BFE9E6"/>
<path d="M404.136 117.113C400.783 117.113 398.052 119.837 398.052 123.194V152.884C398.052 156.233 400.78 158.961 404.136 158.961H444.6C447.95 158.961 450.681 156.237 450.681 152.884V123.194C450.681 119.841 447.953 117.113 444.6 117.113H404.136ZM444.6 160.602H404.136C399.875 160.602 396.418 157.138 396.418 152.884V123.194C396.418 118.94 399.879 115.476 404.136 115.476H444.6C448.858 115.476 452.319 118.94 452.319 123.194V152.884C452.319 157.138 448.858 160.602 444.6 160.602Z" fill="#3C3C3B"/>
<path d="M509.701 159.778H469.234C465.427 159.778 462.338 156.69 462.338 152.879V123.189C462.338 119.378 465.427 116.289 469.234 116.289H509.701C513.516 116.289 516.605 119.378 516.605 123.189V152.879C516.605 156.69 513.516 159.778 509.701 159.778Z" fill="#BFE9E6"/>
<path d="M469.23 117.113C465.885 117.113 463.153 119.837 463.153 123.194V152.884C463.153 156.233 465.881 158.961 469.23 158.961H509.698C513.051 158.961 515.779 156.237 515.779 152.884V123.194C515.779 119.841 513.055 117.113 509.698 117.113H469.23ZM509.698 160.602H469.23C464.977 160.602 461.516 157.138 461.516 152.884V123.194C461.516 118.94 464.98 115.476 469.23 115.476H509.698C513.959 115.476 517.42 118.94 517.42 123.194V152.884C517.424 157.138 513.959 160.602 509.698 160.602Z" fill="#3C3C3B"/>
<path d="M58.301 116.293H40.2033L39.9763 117.115L28.5587 158.96L28.3242 159.782H58.3046C62.1117 159.782 65.2006 156.701 65.2006 152.886V123.189C65.1969 119.378 62.1118 116.293 58.301 116.293Z" fill="#BFE9E6"/>
<path d="M58.3017 115.476H40.4162L40.2003 116.294L39.9733 117.117H58.3017C61.6474 117.117 64.3752 119.841 64.3752 123.19V152.888C64.3752 156.237 61.6511 158.961 58.3017 158.961H28.5558L28.3214 159.784L28.1055 160.606H58.298C62.5479 160.606 66.0126 157.142 66.0126 152.892V123.194C66.0201 118.933 62.5554 115.476 58.3017 115.476Z" fill="#3C3C3B"/>
<path d="M588.229 123.186V152.883C588.229 156.698 591.314 159.779 595.117 159.779H625.101L624.867 158.957L613.449 117.112L613.222 116.29H595.121C591.314 116.294 588.229 119.379 588.229 123.186Z" fill="#BFE9E6"/>
<path d="M587.406 123.187V152.885C587.406 157.138 590.867 160.599 595.117 160.599H625.31L625.098 159.777L624.863 158.954H595.114C591.768 158.954 589.044 156.23 589.044 152.881V123.183C589.044 119.838 591.764 117.11 595.114 117.11H613.446L613.219 116.287L613.003 115.469H595.114C590.867 115.476 587.406 118.933 587.406 123.187Z" fill="#3C3C3B"/>
<path d="M118.511 233.624H84.6637C79.7922 233.624 75.8438 229.676 75.8438 224.804V125.117C75.8438 120.241 79.796 116.293 84.6637 116.293H118.511C123.386 116.293 127.334 120.245 127.334 125.117V224.804C127.334 229.676 123.386 233.624 118.511 233.624Z" fill="#FFE0A1"/>
<path d="M118.513 234.448H84.6658C79.3516 234.448 75.0234 230.124 75.0234 224.806V125.118C75.0234 119.8 79.3516 115.476 84.6658 115.476H118.513C123.835 115.476 128.155 119.8 128.155 125.118V224.806C128.155 230.12 123.835 234.448 118.513 234.448ZM84.6658 117.113C80.2559 117.113 76.6684 120.701 76.6684 125.114V224.802C76.6684 229.219 80.2596 232.803 84.6658 232.803H118.513C122.927 232.803 126.514 229.216 126.514 224.802V125.114C126.514 120.701 122.923 117.113 118.513 117.113H84.6658Z" fill="#3C3C3B"/>
<path d="M94.2757 160.714H83.4759C81.3621 160.714 79.6465 159.003 79.6465 156.889V123.935C79.6465 121.821 81.3621 120.105 83.4759 120.105H94.2757C96.3895 120.105 98.1051 121.821 98.1051 123.935V156.889C98.1051 159.003 96.3895 160.714 94.2757 160.714Z" fill="#BFE9E6"/>
<path d="M94.2787 161.126H83.4789C81.1418 161.126 79.2402 159.221 79.2402 156.884V123.93C79.2402 121.593 81.1418 119.688 83.4789 119.688H94.2787C96.6196 119.688 98.5249 121.593 98.5249 123.93V156.884C98.5212 159.225 96.6158 161.126 94.2787 161.126ZM83.4753 120.51C81.5922 120.51 80.059 122.043 80.059 123.93V156.884C80.059 158.767 81.5922 160.304 83.4753 160.304H94.275C96.1655 160.304 97.6988 158.767 97.6988 156.884V123.93C97.6988 122.043 96.1655 120.51 94.275 120.51H83.4753Z" fill="#3C3C3B"/>
<path d="M94.2757 206.87H83.4759C81.3621 206.87 79.6465 205.154 79.6465 203.04V170.086C79.6465 167.976 81.3621 166.261 83.4759 166.261H94.2757C96.3895 166.261 98.1051 167.976 98.1051 170.086V203.04C98.1051 205.154 96.3895 206.87 94.2757 206.87Z" fill="#BFE9E6"/>
<path d="M94.2787 207.282H83.4789C81.1418 207.282 79.2402 205.38 79.2402 203.039V170.085C79.2402 167.748 81.1418 165.847 83.4789 165.847H94.2787C96.6196 165.847 98.5249 167.748 98.5249 170.085V203.039C98.5212 205.38 96.6158 207.282 94.2787 207.282ZM83.4753 166.665C81.5922 166.665 80.059 168.202 80.059 170.085V203.039C80.059 204.926 81.5922 206.459 83.4753 206.459H94.275C96.1655 206.459 97.6988 204.926 97.6988 203.039V170.085C97.6988 168.202 96.1655 166.665 94.275 166.665H83.4753Z" fill="#3C3C3B"/>
<path d="M119.867 160.714H109.064C106.954 160.714 105.238 159.003 105.238 156.889V123.935C105.238 121.821 106.954 120.105 109.064 120.105H119.867C121.981 120.105 123.697 121.821 123.697 123.935V156.889C123.701 159.003 121.985 160.714 119.867 160.714Z" fill="#BFE9E6"/>
<path d="M119.866 161.126H109.063C106.726 161.126 104.824 159.221 104.824 156.884V123.93C104.824 121.593 106.726 119.688 109.063 119.688H119.866C122.204 119.688 124.105 121.593 124.105 123.93V156.884C124.105 159.225 122.204 161.126 119.866 161.126ZM109.063 120.51C107.176 120.51 105.647 122.043 105.647 123.93V156.884C105.647 158.767 107.176 160.304 109.063 160.304H119.866C121.753 160.304 123.287 158.767 123.287 156.884V123.93C123.287 122.043 121.753 120.51 119.866 120.51H109.063Z" fill="#3C3C3B"/>
<path d="M119.867 206.87H109.064C106.954 206.87 105.238 205.154 105.238 203.04V170.086C105.238 167.976 106.954 166.261 109.064 166.261H119.867C121.981 166.261 123.697 167.976 123.697 170.086V203.04C123.701 205.154 121.985 206.87 119.867 206.87Z" fill="#BFE9E6"/>
<path d="M119.866 207.282H109.063C106.726 207.282 104.824 205.38 104.824 203.039V170.085C104.824 167.748 106.726 165.847 109.063 165.847H119.866C122.204 165.847 124.105 167.748 124.105 170.085V203.039C124.105 205.38 122.204 207.282 119.866 207.282ZM109.063 166.665C107.176 166.665 105.647 168.202 105.647 170.085V203.039C105.647 204.926 107.176 206.459 109.063 206.459H119.866C121.753 206.459 123.287 204.926 123.287 203.039V170.085C123.287 168.202 121.753 166.665 119.866 166.665H109.063Z" fill="#3C3C3B"/>
<path d="M102.006 116.293H101.184V233.624H102.006V116.293Z" fill="#3C3C3B"/>
<path d="M569.64 233.624H535.793C530.921 233.624 526.977 229.676 526.977 224.804V125.117C526.977 120.241 530.921 116.293 535.793 116.293H569.64C574.515 116.293 578.46 120.245 578.46 125.117V224.804C578.46 229.676 574.511 233.624 569.64 233.624Z" fill="#FFE0A1"/>
<path d="M569.64 234.448H535.793C530.479 234.448 526.154 230.124 526.154 224.806V125.118C526.154 119.8 530.479 115.476 535.793 115.476H569.64C574.958 115.476 579.282 119.8 579.282 125.118V224.806C579.282 230.12 574.958 234.448 569.64 234.448ZM535.793 117.113C531.379 117.113 527.795 120.701 527.795 125.114V224.802C527.795 229.219 531.383 232.803 535.793 232.803H569.64C574.054 232.803 577.637 229.216 577.637 224.802V125.114C577.637 120.701 574.054 117.113 569.64 117.113H535.793Z" fill="#3C3C3B"/>
<path d="M545.403 160.714H534.603C532.489 160.714 530.777 159.003 530.777 156.889V123.935C530.777 121.821 532.489 120.105 534.603 120.105H545.403C547.52 120.105 549.236 121.821 549.236 123.935V156.889C549.236 159.003 547.52 160.714 545.403 160.714Z" fill="#BFE9E6"/>
<path d="M545.402 161.126H534.602C532.265 161.126 530.363 159.221 530.363 156.884V123.93C530.363 121.593 532.265 119.688 534.602 119.688H545.402C547.739 119.688 549.644 121.593 549.644 123.93V156.884C549.644 159.225 547.739 161.126 545.402 161.126ZM534.602 120.51C532.715 120.51 531.182 122.043 531.182 123.93V156.884C531.182 158.767 532.715 160.304 534.602 160.304H545.402C547.289 160.304 548.822 158.767 548.822 156.884V123.93C548.822 122.043 547.289 120.51 545.402 120.51H534.602Z" fill="#3C3C3B"/>
<path d="M570.987 160.714H560.187C558.073 160.714 556.361 159.003 556.361 156.889V123.935C556.361 121.821 558.073 120.105 560.187 120.105H570.987C573.104 120.105 574.816 121.821 574.816 123.935V156.889C574.816 159.003 573.108 160.714 570.987 160.714Z" fill="#BFE9E6"/>
<path d="M570.986 161.126H560.186C557.849 161.126 555.947 159.221 555.947 156.884V123.93C555.947 121.593 557.849 119.688 560.186 119.688H570.986C573.327 119.688 575.232 121.593 575.232 123.93V156.884C575.232 159.225 573.327 161.126 570.986 161.126ZM560.186 120.51C558.303 120.51 556.77 122.043 556.77 123.93V156.884C556.77 158.767 558.303 160.304 560.186 160.304H570.986C572.876 160.304 574.41 158.767 574.41 156.884V123.93C574.41 122.043 572.876 120.51 570.986 120.51H560.186Z" fill="#3C3C3B"/>
<path d="M553.135 116.293H552.312V233.624H553.135V116.293Z" fill="#3C3C3B"/>
<path d="M24.7031 183.558C24.7031 185.925 25.8195 187.961 27.4421 189.007L25.9313 179.58C25.1758 180.656 24.7031 182.033 24.7031 183.558Z" fill="#FFED00"/>
<path d="M56.5987 178.469L31.0915 176.389C29.6699 176.274 28.4977 176.869 27.8241 177.863C27.679 178.075 27.5636 178.306 27.4668 178.551H27.4854C27.731 178.551 27.9432 178.73 27.9804 178.972L29.5806 189.4C29.5955 189.489 29.5657 189.582 29.5062 189.653C29.4541 189.712 29.3833 189.735 29.3052 189.742C30.2095 190.862 31.6461 191.536 33.116 191.398L56.7028 189.214C57.8081 189.113 58.679 187.833 58.679 186.337V181.551C58.6864 179.954 57.771 178.566 56.5987 178.469Z" fill="#C42C24"/>
<path d="M29.5095 189.649C29.569 189.575 29.595 189.485 29.5839 189.396L27.9837 178.968C27.9465 178.727 27.7381 178.548 27.4887 178.548H27.4701H26.8411H25.7656L25.9331 179.575L27.444 189.002L27.5669 189.761H29.2676C29.2825 189.761 29.2936 189.742 29.3085 189.738C29.3866 189.731 29.4574 189.709 29.5095 189.649Z" fill="#EDEDED"/>
<path d="M58.4153 214.756H39.5473C38.0735 214.756 36.8789 213.566 36.8789 212.088V211.065C36.8789 209.591 38.0735 208.396 39.5473 208.396H58.4153C59.8927 208.396 61.0836 209.591 61.0836 211.065V212.088C61.0836 213.562 59.889 214.756 58.4153 214.756Z" fill="#706F6F"/>
<path d="M40.9764 226.514H2.41797V230.618H40.9764V226.514Z" fill="#706F6F"/>
<path d="M47.01 224.671H39.1465V232.464H47.01V224.671Z" fill="#575756"/>
<path d="M10.7658 232.46H3.31167C1.95705 232.46 0.855469 231.362 0.855469 230.007V227.123C0.855469 225.769 1.95705 224.671 3.31167 224.671H10.7658C12.1167 224.671 13.2182 225.769 13.2182 227.123V230.007C13.2182 231.362 12.1167 232.46 10.7658 232.46Z" fill="#575756"/>
<path opacity="0.15" d="M615.338 105.492V110.17C615.338 111.514 614.058 112.597 612.48 112.597H40.7204C39.2578 112.597 38.0781 111.581 38.0781 110.334V105.492H615.338Z" fill="#1D1D1B"/>
<path d="M192.913 77.8604H179.996V84.1534H192.913V77.8604Z" fill="#8F8F8F"/>
<path d="M206.612 20.6063H167.167C166.14 20.6063 165.307 19.7726 165.307 18.7455C165.307 17.7184 166.14 16.8848 167.167 16.8848H206.612C207.639 16.8848 208.472 17.7184 208.472 18.7455C208.472 19.7726 207.639 20.6063 206.612 20.6063Z" fill="#706F6F"/>
<path d="M189.2 8.70091H184.838C184.838 3.89645 185.668 0 186.691 0H187.354C188.373 0.0037215 189.2 3.89645 189.2 8.70091Z" fill="#706F6F"/>
<path opacity="0.1" d="M41.1094 228.897C41.1094 235.049 47.6555 240.054 55.7274 240.054H132.413C132.495 239.693 132.576 239.317 132.725 238.956L136.83 228.767C137.027 228.272 137.288 227.796 137.615 227.338H41.1094V228.897Z" fill="#1D1D1B"/>
<path opacity="0.1" d="M611.298 217.674L624.692 168.528H357.399C317.672 168.528 282.411 187.594 260.253 217.086C257.782 220.373 255.486 223.804 253.357 227.343H233.049C233.376 227.801 233.637 228.277 233.834 228.772L237.92 238.961C238.088 239.322 238.166 239.698 238.248 240.059H246.67H417.419C417.501 239.698 417.583 239.322 417.732 238.961L421.833 228.772C422.03 228.277 422.291 227.801 422.622 227.343C424.33 224.864 427.612 223.093 430.679 223.093H509.973C513.039 223.093 516.325 224.864 518.048 227.343C518.361 227.801 518.636 228.277 518.834 228.772L522.927 238.961C523.073 239.322 523.151 239.698 523.255 240.059H597.953C605.939 240.059 612.441 235.106 612.441 228.999V227.343V219.513C612.429 218.772 611.987 218.117 611.298 217.674Z" fill="#1D1D1B"/>
<path d="M545.403 206.87H534.603C532.489 206.87 530.777 205.154 530.777 203.04V170.086C530.777 167.976 532.489 166.261 534.603 166.261H545.403C547.52 166.261 549.236 167.976 549.236 170.086V203.04C549.236 205.154 547.52 206.87 545.403 206.87Z" fill="#BFE9E6"/>
<path d="M545.402 207.282H534.602C532.265 207.282 530.363 205.38 530.363 203.039V170.085C530.363 167.748 532.265 165.847 534.602 165.847H545.402C547.739 165.847 549.644 167.748 549.644 170.085V203.039C549.644 205.38 547.739 207.282 545.402 207.282ZM534.602 166.665C532.715 166.665 531.182 168.202 531.182 170.085V203.039C531.182 204.926 532.715 206.459 534.602 206.459H545.402C547.289 206.459 548.822 204.926 548.822 203.039V170.085C548.822 168.202 547.289 166.665 545.402 166.665H534.602Z" fill="#3C3C3B"/>
<path d="M570.987 206.87H560.187C558.073 206.87 556.361 205.154 556.361 203.04V170.086C556.361 167.976 558.073 166.261 560.187 166.261H570.987C573.104 166.261 574.816 167.976 574.816 170.086V203.04C574.816 205.154 573.108 206.87 570.987 206.87Z" fill="#BFE9E6"/>
<path d="M570.986 207.282H560.186C557.849 207.282 555.947 205.38 555.947 203.039V170.085C555.947 167.748 557.849 165.847 560.186 165.847H570.986C573.327 165.847 575.232 167.748 575.232 170.085V203.039C575.232 205.38 573.327 207.282 570.986 207.282ZM560.186 166.665C558.303 166.665 556.77 168.202 556.77 170.085V203.039C556.77 204.926 558.303 206.459 560.186 206.459H570.986C572.876 206.459 574.41 204.926 574.41 203.039V170.085C574.41 168.202 572.876 166.665 570.986 166.665H560.186Z" fill="#3C3C3B"/>
<path d="M622.233 198.623C622.233 200.35 621.418 201.835 620.238 202.594L621.336 195.713C621.887 196.506 622.233 197.51 622.233 198.623Z" fill="#FF1010"/>
<path d="M598.954 194.904L617.569 193.39C618.607 193.308 619.459 193.74 619.954 194.462C620.059 194.618 620.148 194.785 620.215 194.964H620.2C620.018 194.964 619.865 195.098 619.843 195.277L618.674 202.883C618.663 202.954 618.685 203.021 618.726 203.069C618.767 203.114 618.819 203.129 618.871 203.136C618.209 203.959 617.167 204.45 616.091 204.35L598.876 202.757C598.068 202.679 597.436 201.748 597.436 200.654V197.156C597.436 195.987 598.098 194.975 598.954 194.904Z" fill="#C42C24"/>
<path d="M618.723 203.066C618.682 203.018 618.66 202.951 618.671 202.88L619.839 195.274C619.862 195.095 620.014 194.961 620.197 194.961H620.212H620.669H621.455L621.332 195.713L620.234 202.594L620.145 203.148H618.905C618.89 203.148 618.883 203.133 618.868 203.13C618.82 203.126 618.764 203.111 618.723 203.066Z" fill="#EDEDED"/>
<path d="M616.103 214.756H597.231C595.757 214.756 594.566 213.566 594.566 212.088V211.065C594.566 209.591 595.757 208.396 597.231 208.396H616.103C617.573 208.396 618.771 209.591 618.771 211.065V212.088C618.771 213.562 617.576 214.756 616.103 214.756Z" fill="#706F6F"/>
<path d="M651.988 226.514H613.426V230.618H651.988V226.514Z" fill="#706F6F"/>
<path d="M615.252 224.671H607.393V232.464H615.252V224.671Z" fill="#575756"/>
<path d="M643.64 232.46H651.09C652.445 232.46 653.543 231.362 653.543 230.007V227.123C653.543 225.769 652.445 224.671 651.09 224.671H643.64C642.285 224.671 641.184 225.769 641.184 227.123V230.007C641.18 231.362 642.281 232.46 643.64 232.46Z" fill="#575756"/>
<path opacity="0.7" d="M48.4987 179.264L28.9794 180.366L28.8157 179.514C28.7003 178.903 28.8789 178.271 29.292 177.806C29.7051 177.344 30.3155 177.102 30.937 177.147L55.3053 179.06L48.4987 179.264Z" fill="white"/>
<path opacity="0.7" d="M157.9 91.4023H50.9632C45.6005 91.4023 41.2539 94.4615 41.2539 98.2425L157.9 91.4023Z" fill="white"/>
<path opacity="0.7" d="M131.566 174.96V174.473C131.566 170.405 134.86 167.115 138.924 167.115H321.649L131.566 174.96Z" fill="white"/>
<path opacity="0.7" d="M31.332 156.496C39.0095 136.284 47.4312 120.088 58.6851 118.957H41.2461L31.332 156.496Z" fill="white"/>
<path opacity="0.7" d="M106.832 157.451V124.869C106.832 123.001 108.347 121.486 110.215 121.486H120.709C110.501 127.921 107.796 141.821 106.832 157.451Z" fill="white"/>
<path opacity="0.7" d="M81.3906 157.451V124.869C81.3906 123.001 82.9053 121.486 84.7735 121.486H95.268C85.0599 127.921 82.3545 141.821 81.3906 157.451Z" fill="white"/>
<path opacity="0.7" d="M106.832 203.589V171.007C106.832 169.139 108.347 167.624 110.215 167.624H120.713C110.501 174.055 107.796 187.955 106.832 203.589Z" fill="white"/>
<path opacity="0.7" d="M81.3906 203.589V171.007C81.3906 169.139 82.9053 167.624 84.7735 167.624H95.2717C85.0599 174.055 82.3545 187.955 81.3906 203.589Z" fill="white"/>
<path opacity="0.7" d="M558.084 157.451V124.869C558.084 123.001 559.599 121.486 561.467 121.486H571.961C561.761 127.921 559.052 141.821 558.084 157.451Z" fill="white"/>
<path opacity="0.7" d="M532.652 157.451V124.869C532.652 123.001 534.167 121.486 536.035 121.486H546.53C536.329 127.921 533.616 141.821 532.652 157.451Z" fill="white"/>
<path opacity="0.7" d="M558.084 203.589V171.007C558.084 169.139 559.599 167.624 561.467 167.624H571.965C561.757 174.055 559.052 187.955 558.084 203.589Z" fill="white"/>
<path opacity="0.7" d="M532.652 203.589V171.007C532.652 169.139 534.167 167.624 536.035 167.624H546.53C536.329 174.055 533.616 187.955 532.652 203.589Z" fill="white"/>
<path opacity="0.7" d="M139.438 154.17V124.565C139.438 121.13 142.225 118.343 145.66 118.343H173.485C156.3 121.376 146.988 136.437 139.438 154.17Z" fill="white"/>
<path opacity="0.7" d="M204.471 154.17V124.565C204.471 121.13 207.258 118.343 210.693 118.343H238.522C221.333 121.376 212.022 136.437 204.471 154.17Z" fill="white"/>
<path opacity="0.7" d="M269.486 154.17V124.565C269.486 121.13 272.274 118.343 275.709 118.343H303.538C286.352 121.376 277.041 136.437 269.486 154.17Z" fill="white"/>
<path opacity="0.7" d="M334.512 154.17V124.565C334.512 121.13 337.299 118.343 340.734 118.343H368.56C351.374 121.376 342.063 136.437 334.512 154.17Z" fill="white"/>
<path opacity="0.7" d="M399.543 154.17V124.565C399.543 121.13 402.33 118.343 405.765 118.343H433.595C416.401 121.376 407.094 136.437 399.543 154.17Z" fill="white"/>
<path opacity="0.7" d="M464.561 154.17V124.565C464.561 121.13 467.348 118.343 470.783 118.343H498.609C481.423 121.376 472.115 136.433 464.561 154.17Z" fill="white"/>
<path opacity="0.7" d="M590.641 155.695V124.878C590.641 121.268 593.566 118.343 597.176 118.343H612.43C601.132 120.218 593.696 132.202 590.641 155.695Z" fill="white"/>
</svg>
