<svg width="313" height="150" viewBox="0 0 313 150" fill="none" xmlns="http://www.w3.org/2000/svg">
<path d="M280.133 6.25293V23.9699H278.936L279.107 6.25293H280.133Z" fill="#1A1A1A"/>
<path d="M259.105 61.3811H196.734V88.7311H259.105V61.3811Z" fill="#1D1F22"/>
<path d="M256.923 63.415H199.074V79.8H256.923V63.415Z" fill="#7D7D7C"/>
<path opacity="0.3" d="M256.923 71.5669H199.074V79.7999H256.923V71.5669Z" fill="#7D7D7C"/>
<path d="M244.441 71.986C244.441 73.549 243.174 74.816 241.61 74.816C240.046 74.816 238.779 73.548 238.779 71.986C238.779 70.422 240.046 69.156 241.61 69.156C243.174 69.156 244.441 70.422 244.441 71.986Z" fill="url(#paint0_radial_562_74767)"/>
<path d="M244.463 71.9861C244.463 71.9861 244.463 72.0031 244.463 72.0361C244.463 72.0691 244.454 72.1161 244.45 72.1771C244.446 72.2081 244.439 72.2411 244.438 72.2781C244.434 72.3141 244.427 72.3541 244.423 72.3961C244.411 72.4801 244.395 72.5751 244.37 72.6771C244.359 72.7281 244.342 72.7811 244.327 72.8351C244.31 72.8891 244.293 72.9451 244.271 73.0011C244.231 73.1141 244.179 73.2291 244.117 73.3461C244.054 73.4611 243.981 73.5761 243.901 73.6881C243.818 73.7971 243.726 73.9041 243.629 74.0051C243.529 74.1031 243.423 74.1941 243.312 74.2761C243.199 74.3581 243.085 74.4301 242.97 74.4931C242.854 74.5541 242.736 74.6071 242.624 74.6461C242.568 74.6691 242.512 74.6841 242.458 74.7021C242.403 74.7171 242.351 74.7331 242.301 74.7441C242.198 74.7691 242.103 74.7841 242.019 74.7951C241.976 74.8001 241.937 74.8041 241.901 74.8081C241.864 74.8091 241.83 74.8111 241.799 74.8131C241.739 74.8181 241.69 74.8151 241.658 74.8161C241.626 74.8161 241.609 74.8161 241.609 74.8161C241.609 74.8161 241.626 74.8151 241.658 74.8131C241.69 74.8101 241.739 74.8101 241.799 74.8031C241.828 74.8001 241.862 74.7981 241.899 74.7941C241.935 74.7891 241.974 74.7831 242.015 74.7771C242.099 74.7631 242.191 74.7431 242.293 74.7181C242.342 74.7041 242.393 74.6881 242.448 74.6721C242.5 74.6531 242.555 74.6371 242.61 74.6131C242.721 74.5701 242.834 74.5141 242.948 74.4541C243.062 74.3921 243.175 74.3191 243.284 74.2391C243.391 74.1561 243.495 74.0651 243.592 73.9691C243.689 73.8711 243.78 73.7671 243.862 73.6591C243.942 73.5501 244.014 73.4381 244.077 73.3251C244.138 73.2111 244.193 73.0991 244.236 72.9881C244.26 72.9331 244.276 72.8781 244.296 72.8251C244.311 72.7721 244.329 72.7201 244.34 72.6701C244.365 72.5701 244.385 72.4761 244.402 72.3941C244.406 72.3511 244.413 72.3121 244.418 72.2761C244.422 72.2401 244.425 72.2061 244.427 72.1761C244.434 72.1161 244.444 72.0691 244.448 72.0361C244.451 72.0031 244.463 71.9861 244.463 71.9861Z" fill="black"/>
<path d="M244.441 71.2531C244.441 72.8161 243.174 74.0841 241.61 74.0841C240.046 74.0841 238.779 72.8171 238.779 71.2531C238.779 69.6901 240.046 68.4231 241.61 68.4231C243.174 68.4231 244.441 69.6901 244.441 71.2531Z" fill="url(#paint1_radial_562_74767)"/>
<path d="M244.441 71.376C244.441 72.925 243.174 74.181 241.61 74.181C240.046 74.181 238.779 72.925 238.779 71.376C238.779 69.827 240.046 68.572 241.61 68.572C243.174 68.572 244.441 69.827 244.441 71.376Z" fill="url(#paint2_radial_562_74767)"/>
<path d="M244.441 71.644C244.441 73.207 243.174 74.474 241.61 74.474C240.046 74.474 238.779 73.207 238.779 71.644C238.779 70.081 240.046 68.813 241.61 68.813C243.174 68.813 244.441 70.08 244.441 71.644Z" fill="url(#paint3_radial_562_74767)"/>
<path d="M244.441 71.7411C244.441 73.3051 243.174 74.5711 241.61 74.5711C240.046 74.5711 238.779 73.3051 238.779 71.7411C238.779 70.1781 240.046 68.9111 241.61 68.9111C243.174 68.9111 244.441 70.1781 244.441 71.7411Z" fill="url(#paint4_radial_562_74767)"/>
<g opacity="0.5">
<path d="M241.612 68.9111C240.048 68.9111 238.781 70.1781 238.781 71.7411C238.781 73.3051 240.048 74.5711 241.612 74.5711C243.175 74.5711 244.443 73.3051 244.443 71.7411C244.442 70.1781 243.175 68.9111 241.612 68.9111ZM241.612 74.3291C240.182 74.3291 239.023 73.1701 239.023 71.7401C239.023 70.3111 240.182 69.1521 241.612 69.1521C243.042 69.1521 244.201 70.3121 244.201 71.7401C244.201 73.1711 243.042 74.3291 241.612 74.3291Z" fill="url(#paint5_radial_562_74767)"/>
</g>
<path d="M242.854 68.7742C242.854 68.7742 242.879 68.7822 242.924 68.8012C242.945 68.8102 242.971 68.8222 243.001 68.8372C243.028 68.8522 243.064 68.8672 243.098 68.8882C243.133 68.9082 243.17 68.9302 243.21 68.9552C243.25 68.9782 243.289 69.0072 243.332 69.0372C243.373 69.0662 243.413 69.0982 243.455 69.1322C243.495 69.1672 243.538 69.2012 243.577 69.2382C243.617 69.2752 243.656 69.3132 243.69 69.3542C243.707 69.3732 243.726 69.3932 243.742 69.4132C243.758 69.4342 243.774 69.4542 243.791 69.4742C243.807 69.4942 243.823 69.5132 243.836 69.5332C243.851 69.5542 243.863 69.5742 243.875 69.5922C243.902 69.6312 243.926 69.6682 243.944 69.7032C243.964 69.7392 243.981 69.7722 243.996 69.8012C244.009 69.8312 244.02 69.8582 244.031 69.8792C244.047 69.9222 244.058 69.9482 244.058 69.9482C244.058 69.9482 244.043 69.9252 244.022 69.8832C244.01 69.8642 243.995 69.8382 243.981 69.8082C243.965 69.7822 243.942 69.7512 243.922 69.7182C243.902 69.6832 243.874 69.6492 243.847 69.6122C243.834 69.5942 243.819 69.5752 243.806 69.5562C243.789 69.5382 243.773 69.5192 243.757 69.5012C243.742 69.4822 243.726 69.4622 243.708 69.4432C243.691 69.4242 243.675 69.4062 243.656 69.3862C243.621 69.3482 243.583 69.3122 243.544 69.2752C243.507 69.2372 243.465 69.2032 243.426 69.1682C243.385 69.1352 243.345 69.1022 243.307 69.0722C243.264 69.0432 243.228 69.0122 243.191 68.9862C243.152 68.9592 243.116 68.9352 243.083 68.9132C243.018 68.8702 242.96 68.8342 242.919 68.8122C242.878 68.7862 242.854 68.7742 242.854 68.7742Z" fill="white"/>
<path d="M239.457 71.513C239.457 71.513 239.452 71.466 239.453 71.383C239.453 71.342 239.457 71.291 239.464 71.234C239.472 71.177 239.48 71.111 239.497 71.042C239.512 70.972 239.532 70.896 239.558 70.819C239.586 70.74 239.621 70.66 239.661 70.579C239.704 70.499 239.751 70.417 239.808 70.341C239.835 70.3 239.867 70.264 239.896 70.226C239.931 70.19 239.963 70.153 239.998 70.119C240.034 70.086 240.069 70.051 240.107 70.022L240.162 69.977L240.223 69.935C240.262 69.906 240.303 69.882 240.343 69.859C240.384 69.834 240.426 69.815 240.467 69.796C240.507 69.775 240.55 69.759 240.59 69.743C240.63 69.727 240.671 69.714 240.712 69.702C240.732 69.696 240.751 69.69 240.771 69.685C240.79 69.68 240.81 69.676 240.83 69.672C240.867 69.665 240.903 69.655 240.939 69.651C241.01 69.641 241.074 69.631 241.131 69.63C241.19 69.627 241.239 69.625 241.282 69.627C241.365 69.63 241.412 69.634 241.412 69.634C241.412 69.634 241.365 69.647 241.285 69.665C241.246 69.673 241.198 69.688 241.145 69.702C241.09 69.715 241.033 69.739 240.966 69.759C240.933 69.769 240.901 69.782 240.867 69.796C240.85 69.803 240.834 69.809 240.815 69.816C240.798 69.824 240.78 69.832 240.763 69.84C240.727 69.856 240.691 69.869 240.656 69.89C240.62 69.909 240.583 69.925 240.548 69.947C240.475 69.988 240.402 70.034 240.334 70.088L240.282 70.127L240.231 70.17C240.196 70.197 240.166 70.229 240.135 70.259C240.071 70.321 240.014 70.387 239.959 70.455C239.904 70.522 239.856 70.594 239.811 70.665C239.769 70.737 239.728 70.808 239.693 70.877C239.66 70.946 239.629 71.014 239.604 71.076C239.551 71.204 239.515 71.312 239.492 71.39C239.469 71.467 239.457 71.513 239.457 71.513Z" fill="white"/>
<path d="M243.508 70.0132C243.039 69.4762 242.349 69.1372 241.579 69.1372C240.162 69.1372 239.014 70.2852 239.014 71.7022C239.014 72.4072 239.298 73.0442 239.759 73.5092C239.813 72.4012 240.307 70.0582 243.508 70.0132Z" fill="url(#paint6_radial_562_74767)"/>
<path d="M254.566 71.986C254.566 73.549 253.298 74.816 251.735 74.816C250.172 74.816 248.904 73.549 248.904 71.986C248.904 70.423 250.171 69.157 251.735 69.157C253.297 69.156 254.566 70.423 254.566 71.986Z" fill="url(#paint7_radial_562_74767)"/>
<path d="M254.588 71.9861C254.588 71.9861 254.588 72.0031 254.588 72.0371C254.588 72.0701 254.58 72.1181 254.575 72.1781C254.572 72.2081 254.564 72.2431 254.564 72.2791C254.56 72.3161 254.553 72.3551 254.548 72.3971C254.537 72.4811 254.521 72.5761 254.496 72.6781C254.485 72.7291 254.467 72.7821 254.452 72.8361C254.436 72.8901 254.42 72.9461 254.396 73.0021C254.357 73.1161 254.304 73.2311 254.244 73.3471C254.181 73.4631 254.108 73.5771 254.028 73.6891C253.945 73.7991 253.853 73.9051 253.754 74.0061C253.655 74.1041 253.548 74.1951 253.438 74.2771C253.326 74.3601 253.212 74.4311 253.096 74.4941C252.981 74.5551 252.864 74.6081 252.752 74.6491C252.696 74.6711 252.64 74.6861 252.587 74.7051C252.532 74.7201 252.479 74.7351 252.428 74.7461C252.326 74.7701 252.232 74.7851 252.148 74.7961C252.105 74.8011 252.065 74.8051 252.031 74.8091C251.994 74.8111 251.96 74.8091 251.928 74.8111C251.868 74.8161 251.82 74.8091 251.786 74.8091C251.755 74.8091 251.738 74.8091 251.738 74.8091C251.738 74.8091 251.755 74.8121 251.786 74.8111C251.819 74.8081 251.867 74.8101 251.928 74.8031C251.959 74.8001 251.991 74.7981 252.03 74.7941C252.066 74.7891 252.103 74.7841 252.146 74.7781C252.23 74.7631 252.321 74.7441 252.422 74.7191C252.473 74.7061 252.525 74.6891 252.577 74.6741C252.63 74.6551 252.685 74.6391 252.74 74.6151C252.851 74.5721 252.963 74.5161 253.078 74.4561C253.19 74.3931 253.305 74.3211 253.413 74.2401C253.52 74.1581 253.625 74.0671 253.723 73.9701C253.82 73.8721 253.911 73.7681 253.993 73.6601C254.073 73.5511 254.144 73.4381 254.208 73.3261C254.269 73.2111 254.324 73.0991 254.367 72.9881C254.39 72.9341 254.407 72.8781 254.426 72.8261C254.443 72.7721 254.459 72.7201 254.47 72.6701C254.497 72.5691 254.517 72.4771 254.531 72.3931C254.536 72.3521 254.542 72.3121 254.548 72.2761C254.551 72.2401 254.555 72.2061 254.556 72.1761C254.564 72.1171 254.575 72.0691 254.577 72.0361C254.577 72.0031 254.588 71.9861 254.588 71.9861Z" fill="black"/>
<path d="M254.566 71.2299C254.566 72.7919 253.298 74.0599 251.735 74.0599C250.172 74.0599 248.904 72.7909 248.904 71.2299C248.904 69.6669 250.171 68.3989 251.735 68.3989C253.297 68.3989 254.566 69.6659 254.566 71.2299Z" fill="url(#paint8_radial_562_74767)"/>
<path d="M254.566 71.3529C254.566 72.9019 253.298 74.1569 251.735 74.1569C250.172 74.1569 248.904 72.9019 248.904 71.3529C248.904 69.8039 250.171 68.5479 251.735 68.5479C253.297 68.5479 254.566 69.8039 254.566 71.3529Z" fill="url(#paint9_radial_562_74767)"/>
<path d="M254.566 71.62C254.566 73.183 253.298 74.45 251.735 74.45C250.172 74.45 248.904 73.184 248.904 71.62C248.904 70.056 250.171 68.79 251.735 68.79C253.297 68.789 254.566 70.056 254.566 71.62Z" fill="url(#paint10_radial_562_74767)"/>
<path d="M254.566 71.7169C254.566 73.2799 253.298 74.5469 251.735 74.5469C250.172 74.5469 248.904 73.2799 248.904 71.7169C248.904 70.1539 250.171 68.8879 251.735 68.8879C253.297 68.8879 254.566 70.1539 254.566 71.7169Z" fill="url(#paint11_radial_562_74767)"/>
<path d="M253.515 71.46C253.515 72.613 252.582 73.546 251.43 73.546C250.279 73.546 249.344 72.613 249.344 71.46C249.344 70.309 250.279 69.376 251.43 69.376C252.581 69.376 253.515 70.309 253.515 71.46Z" fill="url(#paint12_radial_562_74767)"/>
<g opacity="0.5">
<path d="M251.735 68.8879C250.172 68.8879 248.904 70.1539 248.904 71.7169C248.904 73.2799 250.171 74.5469 251.735 74.5469C253.297 74.5469 254.566 73.2799 254.566 71.7169C254.566 70.1539 253.297 68.8879 251.735 68.8879ZM251.735 74.3069C250.304 74.3069 249.145 73.1469 249.145 71.7169C249.145 70.2869 250.304 69.1289 251.735 69.1289C253.164 69.1289 254.323 70.2879 254.323 71.7169C254.323 73.1459 253.164 74.3069 251.735 74.3069Z" fill="url(#paint13_radial_562_74767)"/>
</g>
<path d="M252.977 68.749C252.977 68.749 253.004 68.758 253.046 68.777C253.067 68.786 253.093 68.8 253.124 68.812C253.152 68.827 253.187 68.843 253.222 68.864C253.257 68.883 253.294 68.905 253.334 68.931C253.374 68.955 253.414 68.983 253.456 69.011C253.497 69.042 253.537 69.072 253.58 69.107C253.62 69.142 253.663 69.174 253.701 69.213C253.741 69.25 253.778 69.288 253.813 69.328C253.832 69.347 253.85 69.367 253.868 69.387C253.883 69.407 253.899 69.428 253.915 69.448C253.931 69.467 253.947 69.487 253.96 69.506C253.976 69.527 253.988 69.547 254 69.566C254.027 69.605 254.051 69.642 254.07 69.677C254.09 69.712 254.107 69.745 254.122 69.775C254.134 69.806 254.145 69.832 254.155 69.854C254.172 69.897 254.182 69.923 254.182 69.923C254.182 69.923 254.169 69.899 254.146 69.858C254.134 69.837 254.121 69.813 254.106 69.783C254.089 69.756 254.067 69.726 254.047 69.692C254.027 69.657 253.999 69.622 253.972 69.587C253.959 69.568 253.944 69.549 253.929 69.53C253.913 69.513 253.897 69.494 253.881 69.475C253.865 69.456 253.85 69.436 253.833 69.417C253.816 69.399 253.798 69.38 253.778 69.361C253.745 69.322 253.705 69.286 253.667 69.249C253.63 69.211 253.587 69.178 253.548 69.143C253.508 69.11 253.467 69.078 253.429 69.047C253.387 69.018 253.352 68.986 253.313 68.961C253.276 68.934 253.24 68.91 253.206 68.888C253.141 68.845 253.082 68.809 253.042 68.786C253.002 68.762 252.977 68.749 252.977 68.749Z" fill="white"/>
<path d="M249.58 71.4899C249.58 71.4899 249.573 71.4429 249.575 71.3599C249.576 71.3189 249.58 71.2679 249.587 71.2099C249.594 71.1529 249.603 71.0879 249.619 71.0179C249.635 70.9479 249.655 70.8719 249.683 70.7939C249.71 70.7169 249.743 70.6359 249.784 70.5559C249.827 70.4749 249.873 70.3929 249.93 70.3159C249.957 70.2759 249.99 70.2389 250.021 70.2019C250.053 70.1659 250.085 70.1289 250.12 70.0949C250.157 70.0619 250.192 70.0269 250.231 69.9969L250.287 69.9509L250.347 69.9089C250.384 69.8809 250.426 69.8559 250.467 69.8329C250.507 69.8079 250.548 69.7889 250.59 69.7689C250.631 69.7479 250.674 69.7339 250.714 69.7169C250.755 69.6999 250.795 69.6889 250.835 69.6769C250.854 69.6709 250.874 69.6659 250.894 69.6599C250.914 69.6559 250.933 69.6509 250.951 69.6469C250.99 69.6389 251.026 69.6309 251.062 69.6249C251.133 69.6159 251.196 69.6059 251.254 69.6049C251.313 69.6019 251.362 69.5999 251.404 69.6019C251.487 69.6059 251.534 69.6089 251.534 69.6089C251.534 69.6089 251.487 69.6219 251.409 69.6409C251.369 69.6489 251.322 69.6639 251.268 69.6779C251.213 69.6909 251.156 69.7139 251.09 69.7349C251.057 69.7439 251.025 69.7589 250.991 69.7719C250.974 69.7789 250.956 69.7839 250.939 69.7919C250.922 69.7989 250.904 69.8069 250.886 69.8149C250.851 69.8309 250.814 69.8459 250.779 69.8649C250.743 69.8839 250.707 69.8999 250.671 69.9229C250.599 69.9639 250.527 70.0109 250.457 70.0639L250.405 70.1029L250.354 70.1459C250.319 70.1729 250.29 70.2049 250.258 70.2349C250.195 70.2959 250.136 70.3609 250.083 70.4299C250.028 70.4969 249.981 70.5699 249.935 70.6399C249.894 70.7109 249.852 70.7809 249.818 70.8519C249.783 70.9209 249.754 70.9869 249.727 71.0509C249.676 71.1779 249.639 71.2869 249.616 71.3649C249.592 71.4429 249.58 71.4899 249.58 71.4899Z" fill="white"/>
<path d="M253.631 69.989C253.161 69.453 252.471 69.113 251.702 69.113C250.284 69.113 249.137 70.262 249.137 71.679C249.137 72.384 249.42 73.022 249.881 73.485C249.935 72.376 250.43 70.035 253.631 69.989Z" fill="url(#paint14_radial_562_74767)"/>
<path d="M202.216 64.7061H200.279V75.7411H202.216V64.7061Z" fill="#4C4D4C"/>
<path d="M209.132 67.8692C209.132 69.4002 207.89 70.6422 206.359 70.6422C204.828 70.6422 203.586 69.4002 203.586 67.8692C203.586 66.3382 204.828 65.0972 206.359 65.0972C207.89 65.0962 209.132 66.3382 209.132 67.8692Z" fill="#4C4D4C"/>
<path d="M205.946 74.0201C205.946 74.6721 205.419 75.2001 204.766 75.2001C204.115 75.2001 203.586 74.6711 203.586 74.0201C203.586 73.3681 204.115 72.8401 204.766 72.8401C205.418 72.8401 205.946 73.3681 205.946 74.0201Z" fill="#4C4D4C"/>
<path d="M208.894 74.0201C208.894 74.4431 208.552 74.7862 208.129 74.7862C207.706 74.7862 207.363 74.4431 207.363 74.0201C207.363 73.5971 207.706 73.2542 208.129 73.2542C208.552 73.2542 208.894 73.5971 208.894 74.0201Z" fill="#4C4D4C"/>
<path d="M236.987 64.7981H212.736V75.5111H236.987V64.7981Z" fill="#4C4D4C"/>
<path d="M236.203 66.001H219.795V68.381H236.203V66.001Z" fill="#6C6C6C"/>
<path d="M220.212 69.625H214.248V70.672H220.212V69.625Z" fill="#7D7D7C"/>
<path d="M218.502 74.4079C217.676 74.4079 217.004 73.7369 217.004 72.9089C217.004 72.0809 217.676 71.4109 218.502 71.4109C219.33 71.4109 220 72.0809 220 72.9089C220 73.7369 219.33 74.4079 218.502 74.4079Z" fill="#7D7D7C"/>
<path d="M215.177 72.6869C214.824 72.6869 214.539 72.4009 214.539 72.0489C214.539 71.6959 214.825 71.4109 215.177 71.4109C215.528 71.4109 215.815 71.6959 215.815 72.0489C215.815 72.4009 215.528 72.6869 215.177 72.6869Z" fill="#7D7D7C"/>
<path d="M215.178 74.2799C214.948 74.2799 214.764 74.0949 214.764 73.8669C214.764 73.6369 214.948 73.4519 215.178 73.4519C215.406 73.4519 215.592 73.6369 215.592 73.8669C215.592 74.0949 215.406 74.2799 215.178 74.2799Z" fill="#7D7D7C"/>
<path d="M227.151 73.3611H221.188V74.4081H227.151V73.3611Z" fill="#7D7D7C"/>
<path d="M222.898 69.625C223.724 69.625 224.397 70.296 224.397 71.123C224.397 71.951 223.724 72.622 222.898 72.622C222.07 72.622 221.4 71.951 221.4 71.123C221.4 70.296 222.07 69.625 222.898 69.625Z" fill="#7D7D7C"/>
<path d="M226.22 71.3459C226.572 71.3459 226.858 71.6309 226.858 71.9829C226.858 72.3359 226.572 72.6209 226.22 72.6209C225.869 72.6209 225.582 72.3359 225.582 71.9829C225.582 71.6309 225.869 71.3459 226.22 71.3459Z" fill="#7D7D7C"/>
<path d="M226.221 69.7529C226.451 69.7529 226.635 69.9389 226.635 70.1669C226.635 70.3959 226.451 70.5809 226.221 70.5809C225.993 70.5809 225.807 70.3959 225.807 70.1669C225.807 69.9379 225.993 69.7529 226.221 69.7529Z" fill="#7D7D7C"/>
<path d="M204.859 74.0991L203.818 75.2921L195.92 58.5561L196.962 57.3611L204.859 74.0991Z" fill="#4C4D4C"/>
<path d="M204.859 74.0981L204.466 74.5481L196.57 57.8111L196.962 57.3611L204.859 74.0981Z" fill="#090A06"/>
<path d="M204.31 74.9582L204.094 75.2072L196.195 58.4702L196.413 58.2212L204.31 74.9582Z" fill="#3F444B"/>
<path d="M204.751 75.5199L203.676 74.3989L211.085 57.1289L212.16 58.2489L204.751 75.5199Z" fill="#4C4D4C"/>
<path d="M204.751 75.5199L204.346 75.0989L211.755 57.8269L212.16 58.2489L204.751 75.5199Z" fill="#090A06"/>
<path d="M204.046 75.0079L203.822 74.7739L211.23 57.5039L211.455 57.7369L204.046 75.0079Z" fill="#3F444B"/>
<path d="M219.79 74.0991L218.75 75.2921L210.852 58.5561L211.892 57.3611L219.79 74.0991Z" fill="#4C4D4C"/>
<path d="M219.789 74.0981L219.398 74.5481L211.5 57.8111L211.891 57.3611L219.789 74.0981Z" fill="#090A06"/>
<path d="M219.242 74.9582L219.025 75.2072L211.127 58.4702L211.344 58.2212L219.242 74.9582Z" fill="#3F444B"/>
<path d="M219.681 75.5199L218.607 74.3989L226.016 57.1289L227.091 58.2489L219.681 75.5199Z" fill="#4C4D4C"/>
<path d="M219.681 75.5199L219.277 75.0989L226.686 57.8269L227.091 58.2489L219.681 75.5199Z" fill="#090A06"/>
<path d="M218.978 75.0079L218.754 74.7739L226.162 57.5039L226.387 57.7369L218.978 75.0079Z" fill="#3F444B"/>
<path d="M234.486 74.0991L233.445 75.2921L225.547 58.5561L226.589 57.3611L234.486 74.0991Z" fill="#4C4D4C"/>
<path d="M234.485 74.0981L234.093 74.5481L226.195 57.8111L226.588 57.3611L234.485 74.0981Z" fill="#090A06"/>
<path d="M233.937 74.9582L233.72 75.2072L225.822 58.4702L226.04 58.2212L233.937 74.9582Z" fill="#3F444B"/>
<path d="M234.378 75.5199L233.303 74.3989L240.713 57.1289L241.787 58.2489L234.378 75.5199Z" fill="#4C4D4C"/>
<path d="M234.378 75.5199L233.973 75.0989L241.382 57.8269L241.787 58.2489L234.378 75.5199Z" fill="#090A06"/>
<path d="M233.672 75.0079L233.447 74.7739L240.858 57.5039L241.082 57.7369L233.672 75.0079Z" fill="#3F444B"/>
<path d="M249.415 74.0991L248.375 75.2921L240.477 58.5561L241.517 57.3611L249.415 74.0991Z" fill="#4C4D4C"/>
<path d="M249.415 74.0981L249.023 74.5481L241.125 57.8111L241.516 57.3611L249.415 74.0981Z" fill="#090A06"/>
<path d="M248.867 74.9582L248.65 75.2072L240.752 58.4702L240.97 58.2212L248.867 74.9582Z" fill="#3F444B"/>
<path d="M249.306 75.5199L248.232 74.3989L255.641 57.1289L256.716 58.2489L249.306 75.5199Z" fill="#4C4D4C"/>
<path d="M249.306 75.5199L248.902 75.0989L256.311 57.8269L256.716 58.2489L249.306 75.5199Z" fill="#090A06"/>
<path d="M248.602 75.0079L248.379 74.7739L255.788 57.5039L256.012 57.7369L248.602 75.0079Z" fill="#3F444B"/>
<path d="M263.873 74.0991L262.832 75.2921L254.934 58.5561L255.976 57.3611L263.873 74.0991Z" fill="#4C4D4C"/>
<path d="M263.872 74.0981L263.48 74.5481L255.582 57.8111L255.975 57.3611L263.872 74.0981Z" fill="#090A06"/>
<path d="M263.324 74.9582L263.108 75.2072L255.209 58.4702L255.427 58.2212L263.324 74.9582Z" fill="#3F444B"/>
<path d="M263.764 75.5199L262.689 74.3989L270.099 57.1289L271.173 58.2489L263.764 75.5199Z" fill="#4C4D4C"/>
<path d="M263.764 75.5199L263.359 75.0989L270.768 57.8269L271.173 58.2489L263.764 75.5199Z" fill="#090A06"/>
<path d="M263.059 75.0079L262.836 74.7739L270.245 57.5039L270.469 57.7369L263.059 75.0079Z" fill="#3F444B"/>
<path d="M276.598 69.4251L270.905 57.3601L269.865 58.5551L277.763 75.2911L278.131 74.8681C277.611 73.0591 277.097 71.2451 276.598 69.4251Z" fill="#4C4D4C"/>
<path d="M276.597 69.4231L270.905 57.3611L270.514 57.8111L277.471 72.5571C277.177 71.5131 276.886 70.4691 276.597 69.4231Z" fill="#090A06"/>
<path d="M278.003 74.4292L270.357 58.2212L270.139 58.4712L278.036 75.2072L278.179 75.0432C278.121 74.8382 278.062 74.6342 278.003 74.4292Z" fill="#3F444B"/>
<path d="M277.889 74.032H194.146V75.764H278.386C278.22 75.186 278.055 74.609 277.889 74.032Z" fill="#4C4D4C"/>
<path d="M278.108 74.7949H194.146V75.8649H278.414C278.312 75.5079 278.209 75.1519 278.108 74.7949Z" fill="#090A06"/>
<path d="M273.372 57.0349H194.146V58.7669H273.842C273.69 58.1879 273.533 57.6109 273.372 57.0349Z" fill="#4C4D4C"/>
<path d="M273.583 57.7991H194.146V58.8691H273.87C273.775 58.5121 273.68 58.1551 273.583 57.7991Z" fill="#090A06"/>
<path d="M196.282 56.559V76.483H191.262V63.948C191.262 63.948 191.12 56.064 196.282 56.559Z" fill="#4C4D4C"/>
<path d="M195.784 56.9979V75.8649H191.395V63.9949C191.395 63.9949 191.272 56.5299 195.784 56.9979Z" fill="#646463"/>
<path d="M191.435 21.4641L269.594 5.68408L269.708 6.59508L191.264 22.8311L191.435 21.4641Z" fill="#1A1A1A"/>
<path d="M263.555 14.457L281.329 79.057H258.428L249.883 25.736L263.555 14.457Z" fill="#640D09"/>
<path opacity="0.5" d="M256.595 20.199L249.883 25.736L258.428 79.057H271.587C268.861 70.276 259.793 30.938 256.595 20.199Z" fill="#640D09"/>
<path opacity="0.5" d="M263.052 28.77C264.29 27.889 265.529 27.009 266.766 26.128L263.555 14.457L249.883 25.736L251.732 37.275C255.483 34.401 259.215 31.5 263.052 28.77Z" fill="#640D09"/>
<path opacity="0.5" d="M257.225 71.5459L258.428 79.0569H281.329L279.262 71.5459H257.225Z" fill="#640D09"/>
<path d="M190.75 59.9161L269.593 5.68408H281.443L193.143 72.2211L190.75 59.9161Z" fill="#8E1015"/>
<path opacity="0.8" d="M190.75 59.9161L269.593 5.68407L275.176 5.57007L191.092 62.3091L190.75 59.9161Z" fill="#D8191B"/>
<path d="M202.47 51.855L190.75 59.917L193.143 72.222L204.776 63.456C204.043 59.582 203.269 55.716 202.47 51.855Z" fill="#640D09"/>
<path d="M142.477 0L149.644 4.951C149.644 4.951 144.953 2.052 142.477 0Z" fill="#161615"/>
<path d="M141.887 7.927L148.596 8.792C148.596 8.792 144.326 8.462 141.887 7.927Z" fill="#161615"/>
<path d="M142.58 14.549L148.781 11.842C148.781 11.842 144.947 13.754 142.58 14.549Z" fill="#161615"/>
<path d="M172.013 0.391113L164.848 5.34111C164.848 5.34111 169.537 2.44311 172.013 0.391113Z" fill="#161615"/>
<path d="M172.602 8.31812L165.893 9.18312C165.893 9.18312 170.163 8.85212 172.602 8.31812Z" fill="#161615"/>
<path d="M171.907 14.9399L165.709 12.2339C165.709 12.2339 169.541 14.1449 171.907 14.9399Z" fill="#161615"/>
<path d="M165.806 18.1639L164.817 13.4349L164.3 13.3129L157.898 13.2429V13.2239L157 13.2319L156.101 13.2229V13.2419L149.699 13.3119L149.182 13.4339L148.187 18.1879C148.167 18.2399 148.154 18.2909 148.154 18.3439C148.154 19.3829 152.115 20.2249 157.002 20.2249C161.886 20.2249 165.848 19.3829 165.848 18.3439C165.848 18.2829 165.832 18.2229 165.806 18.1639Z" fill="url(#paint15_linear_562_74767)"/>
<path d="M165.806 18.1639L164.817 13.4349L164.3 13.3129L157.898 13.2429V13.2239L157 13.2319L156.101 13.2229V13.2419L149.699 13.3119L149.182 13.4339L148.187 18.1879C148.167 18.2399 148.154 18.2909 148.154 18.3439C148.154 19.3829 152.115 20.2249 157.002 20.2249C161.886 20.2249 165.848 19.3829 165.848 18.3439C165.848 18.2829 165.832 18.2229 165.806 18.1639Z" fill="url(#paint16_linear_562_74767)"/>
<path d="M163.208 3.17593H163.205C163.204 2.44693 160.428 1.85693 157.002 1.85693C153.573 1.85693 150.796 2.44693 150.796 3.17593L149.182 13.4349C149.182 13.6779 152.684 13.8739 157.002 13.8739C161.319 13.8739 164.82 13.6779 164.82 13.4349H164.823L163.208 3.17593Z" fill="url(#paint17_linear_562_74767)"/>
<path d="M151.497 3.17493C152.954 3.50693 154.45 3.63393 155.942 3.68393C158.122 3.75593 160.223 3.44993 162.355 3.02293C162.582 2.97693 162.817 2.93293 163.056 2.88793C162.438 2.29793 159.962 1.85693 157.002 1.85693C153.84 1.85693 151.234 2.35993 150.848 3.00793C151.065 3.06993 151.282 3.12593 151.497 3.17493Z" fill="url(#paint18_radial_562_74767)"/>
<path d="M151.189 12.702C150.017 12.506 150.359 11.285 150.359 11.285L151.336 3.71305C151.58 2.54005 154.217 2.00305 154.217 2.00305L154.209 1.99805C152.185 2.21505 150.796 2.66105 150.796 3.17605L149.182 13.435C149.182 13.678 152.684 13.874 157.002 13.874C161.319 13.874 164.82 13.678 164.82 13.435H164.823L164.603 12.035C161.337 13.467 152.261 12.88 151.189 12.702Z" fill="url(#paint19_linear_562_74767)"/>
<path opacity="0.3" d="M162.034 7.54797C162.034 10.421 159.836 12.75 157.125 12.75C154.414 12.75 152.215 10.421 152.215 7.54797C152.215 4.67497 154.413 2.34497 157.125 2.34497C159.837 2.34497 162.034 4.67397 162.034 7.54797Z" fill="url(#paint20_radial_562_74767)"/>
<path opacity="0.4" d="M157.208 7.36397L157.742 2.38697C157.539 2.35997 157.335 2.34497 157.125 2.34497C156.355 2.34497 155.627 2.53397 154.977 2.86797L157.111 7.35397L157.208 7.36397Z" fill="url(#paint21_radial_562_74767)"/>
<path opacity="0.9" d="M157.109 7.35498L157.133 7.40298L157.204 7.39398L157.207 7.36398L157.109 7.35498Z" fill="url(#paint22_radial_562_74767)"/>
<path opacity="0.9" d="M157.205 7.39401L157.345 7.37701L157.208 7.36401L157.205 7.39401Z" fill="url(#paint23_radial_562_74767)"/>
<path opacity="0.9" d="M157.191 7.52404L157.206 7.39404L157.135 7.40304L157.191 7.52404Z" fill="url(#paint24_radial_562_74767)"/>
<path opacity="0.4" d="M157.11 7.35485L152.254 6.90186C152.23 7.11386 152.215 7.32886 152.215 7.54786C152.215 7.70486 152.223 7.86086 152.235 8.01586L157.134 7.40285L157.11 7.35485Z" fill="url(#paint25_radial_562_74767)"/>
<path opacity="0.4" d="M161.976 6.73901L157.346 7.37701L161.401 10.105C161.804 9.34901 162.035 8.47801 162.035 7.54801C162.035 7.27301 162.015 7.00301 161.976 6.73901Z" fill="url(#paint26_radial_562_74767)"/>
<path opacity="0.4" d="M153.436 10.9799C153.907 11.5459 154.491 12.0029 155.15 12.3109L157.19 7.52393L153.436 10.9799Z" fill="url(#paint27_radial_562_74767)"/>
<path opacity="0.7" d="M158.181 7.353C158.181 7.933 157.738 8.403 157.19 8.403C156.642 8.403 156.199 7.932 156.199 7.353C156.199 6.772 156.642 6.302 157.19 6.302C157.738 6.302 158.181 6.772 158.181 7.353Z" fill="#454544"/>
<path opacity="0.7" d="M157.537 7.30303C157.537 7.50503 157.382 7.66903 157.191 7.66903C156.999 7.66903 156.844 7.50503 156.844 7.30303C156.844 7.10103 156.999 6.93604 157.191 6.93604C157.382 6.93704 157.537 7.10103 157.537 7.30303Z" fill="#454544"/>
<path d="M162.914 10.2549C161.311 9.17488 159.469 8.55488 157.531 8.49088C155.247 8.41388 152.738 8.92488 150.873 10.3109C150.4 10.6629 149.938 11.0499 149.496 11.4549L149.184 13.4339C149.184 13.6769 152.686 13.8729 157.004 13.8729C161.321 13.8729 164.822 13.6769 164.822 13.4339H164.825L164.53 11.5529C164.021 11.0819 163.489 10.6419 162.914 10.2549Z" fill="url(#paint28_radial_562_74767)"/>
<path d="M160.715 2.58887C160.715 2.58887 161.788 3.02887 161.935 3.56587L162.962 12.0179C162.962 12.0179 162.571 12.3109 161.544 12.4089L160.715 2.58887Z" fill="url(#paint29_linear_562_74767)"/>
<path d="M153.192 2.58887C153.192 2.58887 152.116 3.02887 151.972 3.56587L150.945 12.0179C150.945 12.0179 151.336 12.3109 152.362 12.4089L153.192 2.58887Z" fill="url(#paint30_linear_562_74767)"/>
<path d="M157.459 2.18188C157.459 2.18188 161.399 2.27889 162.864 3.12689L164.525 13.2549L162.637 3.28989C162.637 3.28989 160.845 2.50788 157.459 2.18188Z" fill="url(#paint31_linear_562_74767)"/>
<path d="M149.699 13.312C149.699 13.312 156.61 14.199 163.614 13.385C163.614 13.385 155.846 13.891 149.699 13.312Z" fill="url(#paint32_radial_562_74767)"/>
<path d="M165.806 18.1639L164.817 13.4349L164.3 13.3129L157.898 13.2429V13.2239L157 13.2319L156.101 13.2229V13.2419L149.699 13.3119L149.182 13.4339L148.187 18.1879C148.167 18.2399 148.154 18.2909 148.154 18.3439C148.154 19.3829 152.115 20.2249 157.002 20.2249C161.886 20.2249 165.848 19.3829 165.848 18.3439C165.848 18.2829 165.832 18.2229 165.806 18.1639ZM149.918 18.9049L150.651 13.9389C155.83 14.5249 163.45 13.9059 163.45 13.9059L164.427 18.8069C157.133 21.5759 149.918 18.9049 149.918 18.9049Z" fill="url(#paint33_linear_562_74767)"/>
<path opacity="0.5" d="M155.047 14.4108L159.297 14.3618L159.932 19.6378C159.932 19.6378 156.658 20.0778 154.656 19.6868L155.047 14.4108Z" fill="url(#paint34_linear_562_74767)"/>
<path d="M182.205 83.5011V20.2671H193.143L201.346 82.1331L182.205 83.5011Z" fill="#C10516"/>
<path opacity="0.8" d="M194.366 29.4871L193.143 20.2671H182.205V29.4871H194.366Z" fill="#D8191B"/>
<path opacity="0.5" d="M182.205 72.343V83.501L201.346 82.133L200.048 72.343H182.205Z" fill="#640D09"/>
<path d="M4.81424 76.7469C4.20124 82.5899 3.38523 88.4189 3.24023 94.2959C3.43223 94.3729 3.63524 94.4249 3.84824 94.4489L5.64523 76.2749C5.64523 76.2749 5.28524 76.4319 4.81424 76.7469Z" fill="#DF4E0C"/>
<path d="M5.64501 76.2749C5.64501 76.2749 3.18603 77.3399 2.71203 79.5509C2.23703 81.7639 1.79503 88.0369 1.64703 90.5779C1.50003 93.1209 2.51102 94.2999 3.84902 94.4479L5.64501 76.2749Z" fill="#DF4E0C"/>
<path d="M166.119 121.462C166.119 123.194 165.321 124.598 164.337 124.598H93.034C92.05 124.598 91.252 123.194 91.252 121.462V115.828C91.252 114.096 92.05 112.692 93.034 112.692H164.337C165.321 112.692 166.119 114.095 166.119 115.828V121.462Z" fill="black"/>
<path d="M168.254 123.671C168.254 124.972 167.473 126.028 166.509 126.028H90.7372C89.7732 126.028 88.9922 124.973 88.9922 123.671C88.9922 122.369 89.7732 121.313 90.7372 121.313H166.509C167.473 121.313 168.254 122.368 168.254 123.671Z" fill="#404043"/>
<path opacity="0.4" d="M168.106 122.723C167.836 121.892 167.223 121.312 166.509 121.312H90.7367C90.0227 121.312 89.4077 121.892 89.1387 122.723H168.106Z" fill="#B6B6B6"/>
<path d="M179.814 76.323H170.061V119.36H179.814V76.323Z" fill="#250600"/>
<path d="M295.949 85.697C291.915 82.502 287.975 79.125 283.89 75.958H176.283V120.312H303.66L304.521 100.348V92.169C301.634 90.05 298.756 87.921 295.949 85.697Z" fill="#C10516"/>
<path opacity="0.8" d="M295.949 85.697C293.349 83.638 290.79 81.503 288.205 79.397H176.283V86.488H296.966C296.627 86.224 296.286 85.964 295.949 85.697Z" fill="#D8191B"/>
<path d="M287.715 79.001H176.283V80.074H289.034C288.595 79.714 288.154 79.358 287.715 79.001Z" fill="#93060D"/>
<path d="M176.453 93.531V120.311H303.83L304.691 93.531H176.453Z" fill="#93060D"/>
<path d="M176.283 111.617V120.311H303.66L303.939 111.617H176.283Z" fill="#64060D"/>
<path d="M175.127 60.1931L80.1579 65.5871C80.1579 65.5871 9.85688 68.8721 5.87589 75.0431C3.10088 77.1701 2.82489 94.1701 2.71289 94.9641C2.71289 98.6641 2.78888 102.37 2.74988 106.068C2.67388 113.229 5.62488 113.259 12.7159 120.638C12.9389 120.87 13.3179 120.864 13.6209 120.967L175.127 120.313V60.1931Z" fill="#C10516"/>
<path d="M3.83594 93.8701C3.49094 94.1201 3.14793 94.3671 2.76993 94.5641C2.75093 94.6971 2.72994 94.8311 2.71094 94.9651C2.71094 98.6651 2.78692 102.371 2.74792 106.069C2.67192 113.23 5.62293 113.26 12.7139 120.639C12.9369 120.871 13.3159 120.865 13.6189 120.968L175.125 120.314V93.8701H3.83594Z" fill="#93060D"/>
<path d="M175.126 111.617H3.84766C5.27066 114.163 8.12366 115.86 12.7147 120.637C12.9377 120.869 13.3167 120.863 13.6197 120.966L175.126 120.312V111.617Z" fill="#64060D"/>
<path d="M173.456 16.6549C173.192 16.4839 172.911 16.3369 172.62 16.2079C152.73 15.7729 138.822 16.6219 126.473 17.3099C114.553 17.9729 72.5957 76.0579 72.5957 76.0579L175.126 74.7729V19.4169C175.023 18.9029 174.89 18.3959 174.716 17.9069C174.429 17.4469 174.028 17.0269 173.456 16.6549Z" fill="#C10516"/>
<path d="M287.963 120.597C288.296 118.686 288.47 116.718 288.47 114.708C288.47 96.3579 274.012 81.4819 256.176 81.4819C238.339 81.4819 223.881 96.3579 223.881 114.708C223.881 116.718 224.057 118.686 224.39 120.597H287.963Z" fill="#1A1A1A"/>
<path d="M282.768 120.597C282.966 119.246 283.072 117.864 283.072 116.456C283.072 101.172 271.03 88.783 256.176 88.783C241.321 88.783 229.279 101.172 229.279 116.456C229.279 117.864 229.386 119.246 229.583 120.597H282.768Z" fill="black"/>
<path d="M279.831 126.888C279.831 139.652 269.481 150 256.717 150C243.954 150 233.605 139.652 233.605 126.888C233.605 114.124 243.954 103.777 256.717 103.777C269.481 103.777 279.831 114.124 279.831 126.888Z" fill="#292928"/>
<path d="M279.831 126.888C279.831 139.652 269.481 150 256.717 150C243.954 150 233.605 139.652 233.605 126.888C233.605 114.124 243.954 103.777 256.717 103.777C269.481 103.777 279.831 114.124 279.831 126.888Z" fill="#1A1A1A"/>
<path d="M272.4 126.888C272.4 135.548 265.378 142.569 256.717 142.569C248.057 142.569 241.035 135.548 241.035 126.888C241.035 118.227 248.057 111.207 256.717 111.207C265.379 111.207 272.4 118.228 272.4 126.888Z" fill="black"/>
<path d="M271.035 126.888C271.035 134.795 264.625 141.205 256.718 141.205C248.811 141.205 242.402 134.795 242.402 126.888C242.402 118.982 248.811 112.572 256.718 112.572C264.624 112.572 271.035 118.982 271.035 126.888Z" fill="#CAC8BF"/>
<path d="M246.732 121.544C245.93 123.037 245.456 124.729 245.398 126.524H248.051C248.106 125.21 248.453 123.971 249.028 122.87L246.732 121.544Z" fill="#3B3B39"/>
<path d="M249.394 131.537L247.098 132.862C248.018 134.339 249.268 135.588 250.744 136.509L252.07 134.212C250.994 133.527 250.078 132.613 249.394 131.537Z" fill="#3B3B39"/>
<path d="M252.07 119.565L250.744 117.269C249.267 118.189 248.018 119.439 247.098 120.915L249.394 122.241C250.078 121.164 250.994 120.249 252.07 119.565Z" fill="#3B3B39"/>
<path d="M245.398 127.252C245.455 129.048 245.929 130.74 246.732 132.232L249.029 130.906C248.453 129.806 248.106 128.567 248.052 127.252H245.398Z" fill="#3B3B39"/>
<path d="M262.061 116.902C260.568 116.101 258.878 115.626 257.082 115.569V118.223C258.396 118.277 259.633 118.624 260.734 119.2L262.061 116.902Z" fill="#3B3B39"/>
<path d="M268.036 126.524C267.979 124.729 267.505 123.037 266.702 121.544L264.406 122.871C264.981 123.971 265.328 125.21 265.383 126.525L268.036 126.524Z" fill="#3B3B39"/>
<path d="M264.04 122.241L266.337 120.915C265.417 119.438 264.167 118.188 262.691 117.269L261.365 119.565C262.44 120.249 263.356 121.164 264.04 122.241Z" fill="#3B3B39"/>
<path d="M256.353 115.569C254.557 115.626 252.866 116.101 251.373 116.902L252.699 119.2C253.801 118.624 255.038 118.277 256.353 118.223V115.569Z" fill="#3B3B39"/>
<path d="M251.373 136.875C252.866 137.677 254.557 138.152 256.353 138.208V135.554C255.038 135.499 253.8 135.154 252.699 134.577L251.373 136.875Z" fill="#3B3B39"/>
<path d="M264.406 130.906L266.702 132.232C267.504 130.74 267.978 129.048 268.036 127.252H265.383C265.328 128.567 264.981 129.806 264.406 130.906Z" fill="#3B3B39"/>
<path d="M261.365 134.212L262.691 136.509C264.168 135.588 265.418 134.339 266.337 132.862L264.04 131.536C263.357 132.613 262.441 133.527 261.365 134.212Z" fill="#3B3B39"/>
<path d="M257.082 138.208C258.878 138.152 260.568 137.677 262.061 136.875L260.734 134.577C259.634 135.154 258.396 135.5 257.082 135.555V138.208Z" fill="#3B3B39"/>
<path d="M263.917 126.888C263.917 130.864 260.694 134.087 256.718 134.087C252.743 134.087 249.52 130.865 249.52 126.888C249.52 122.912 252.743 119.689 256.718 119.689C260.694 119.69 263.917 122.912 263.917 126.888Z" fill="#96968F"/>
<path opacity="0.8" d="M175.125 64.8889L69.8184 74.3369C82.1824 73.2179 128.374 74.1109 175.125 74.6709V64.8889Z" fill="#D8191B"/>
<path d="M169.171 76.8511L169.167 83.8341C169.167 83.8341 169.111 85.2081 167.434 84.6081C165.757 84.0081 165.454 83.8441 165.454 83.8441C165.454 83.8441 164.582 83.6551 164.291 82.2971C164 80.9381 163.515 72.8341 163.515 72.8341C163.515 72.8341 163.348 71.6881 164.619 69.9691C165.89 68.2491 168.06 68.3991 168.57 69.0161C168.57 69.0161 168.804 69.0111 169.055 70.1741C169.309 71.3351 169.171 76.8511 169.171 76.8511Z" fill="#5F0D0B"/>
<path d="M168.741 70.9111L168.859 82.6681C168.859 82.6681 168.863 83.9741 168.038 84.1381C167.213 84.3041 166.449 83.5931 166.292 81.7981C166.134 80.0021 165.739 73.1541 165.739 73.1541C165.739 73.1541 165.559 70.5891 166.568 69.7771C167.576 68.9641 168.64 69.4291 168.741 70.9111Z" fill="#C10516"/>
<path d="M283.89 75.958H176.283V79.224H287.991C286.635 78.121 285.27 77.029 283.89 75.958Z" fill="#C10516"/>
<path d="M283.89 75.958H176.283V76.482H284.558C284.336 76.308 284.114 76.131 283.89 75.958Z" fill="#C10516"/>
<path d="M311.436 103.576C311.238 103.44 310.997 103.379 310.744 103.341H300.846C299.986 103.456 299.088 103.405 298.269 103.692C297.581 103.933 296.867 104.412 296.867 106.052V121.749C296.956 121.955 297.082 122.138 297.261 122.281C297.378 122.375 297.504 122.446 297.632 122.509H299.005C299.005 122.509 301.105 122.894 304.267 121.547C307.43 120.199 312.026 111.035 312.026 111.035L312.118 104.597C311.981 104.204 311.809 103.833 311.436 103.576Z" fill="#1A1A1A"/>
<path d="M30.577 104.188C29.968 103.492 28.649 103.34 28.649 103.34H1.11499C0.90899 103.378 0.713009 103.439 0.553009 103.575C0.251009 103.833 0.111 104.203 0 104.596L0.0750122 111.034C0.0750122 111.034 3.80699 120.198 6.37399 121.546C8.94099 122.893 10.648 122.508 10.648 122.508H29.821C30.34 122.224 30.732 121.669 30.877 120.899L30.654 120.667C29.39 115.324 28.946 111.244 30.577 104.188Z" fill="#1A1A1A"/>
<path d="M29.601 110.287C29.735 108.473 30.044 106.489 30.577 104.189C29.968 103.493 28.649 103.341 28.649 103.341H1.11499C0.90899 103.379 0.713009 103.44 0.553009 103.576C0.251009 103.834 0.111 104.204 0 104.597L0.0669861 110.287H29.601Z" fill="#1A1A1A"/>
<path d="M312.038 110.287L312.12 104.597C311.982 104.204 311.81 103.834 311.438 103.576C311.24 103.44 310.999 103.379 310.746 103.341H300.848C299.988 103.456 299.09 103.405 298.271 103.692C297.583 103.933 296.869 104.412 296.869 106.052V110.288L312.038 110.287Z" fill="#1A1A1A"/>
<path d="M80.1738 120.597C80.5058 118.686 80.6808 116.718 80.6808 114.708C80.6808 96.3579 66.2218 81.4819 48.3858 81.4819C30.5508 81.4819 16.0918 96.3579 16.0918 114.708C16.0918 116.718 16.2678 118.686 16.6008 120.597H80.1738Z" fill="#1A1A1A"/>
<path d="M74.9782 120.597C75.1762 119.246 75.2832 117.864 75.2832 116.456C75.2832 101.172 63.2412 88.783 48.3862 88.783C33.5322 88.783 21.4902 101.172 21.4902 116.456C21.4902 117.864 21.5973 119.246 21.7943 120.597H74.9782Z" fill="black"/>
<path d="M72.0395 126.888C72.0395 139.652 61.6905 150 48.9265 150C36.1635 150 25.8145 139.652 25.8145 126.888C25.8145 114.124 36.1635 103.777 48.9265 103.777C61.6905 103.777 72.0395 114.124 72.0395 126.888Z" fill="#292928"/>
<path d="M72.0395 126.888C72.0395 139.652 61.6905 150 48.9265 150C36.1635 150 25.8145 139.652 25.8145 126.888C25.8145 114.124 36.1635 103.777 48.9265 103.777C61.6905 103.777 72.0395 114.124 72.0395 126.888Z" fill="#1A1A1A"/>
<path d="M64.6091 126.888C64.6091 135.548 57.5871 142.569 48.9261 142.569C40.2661 142.569 33.2461 135.548 33.2461 126.888C33.2461 118.227 40.2661 111.207 48.9261 111.207C57.5871 111.207 64.6091 118.228 64.6091 126.888Z" fill="black"/>
<path d="M63.2444 126.888C63.2444 134.795 56.8343 141.205 48.9273 141.205C41.0203 141.205 34.6113 134.795 34.6113 126.888C34.6113 118.982 41.0203 112.572 48.9273 112.572C56.8343 112.572 63.2444 118.982 63.2444 126.888Z" fill="#CAC8BF"/>
<path d="M38.9414 121.544C38.1394 123.037 37.6654 124.729 37.6074 126.524H40.2614C40.3144 125.21 40.6624 123.971 41.2384 122.87L38.9414 121.544Z" fill="#3B3B39"/>
<path d="M41.6036 131.537L39.3086 132.862C40.2286 134.339 41.4786 135.588 42.9546 136.509L44.2806 134.212C43.2036 133.527 42.2876 132.613 41.6036 131.537Z" fill="#3B3B39"/>
<path d="M44.2806 119.565L42.9546 117.269C41.4776 118.189 40.2286 119.439 39.3086 120.915L41.6036 122.241C42.2876 121.164 43.2036 120.249 44.2806 119.565Z" fill="#3B3B39"/>
<path d="M37.6094 127.252C37.6664 129.048 38.1404 130.74 38.9434 132.232L41.2414 130.906C40.6644 129.806 40.3174 128.567 40.2644 127.252H37.6094Z" fill="#3B3B39"/>
<path d="M54.269 116.902C52.778 116.101 51.086 115.626 49.291 115.569V118.223C50.605 118.277 51.843 118.624 52.943 119.2L54.269 116.902Z" fill="#3B3B39"/>
<path d="M60.2462 126.524C60.1892 124.729 59.7152 123.037 58.9122 121.544L56.6152 122.871C57.1912 123.971 57.5382 125.21 57.5922 126.525L60.2462 126.524Z" fill="#3B3B39"/>
<path d="M56.2502 122.241L58.5462 120.915C57.6262 119.438 56.3762 118.188 54.9002 117.269L53.5742 119.565C54.6512 120.249 55.5672 121.164 56.2502 122.241Z" fill="#3B3B39"/>
<path d="M48.564 115.569C46.768 115.626 45.076 116.101 43.584 116.902L44.91 119.2C46.012 118.624 47.249 118.277 48.564 118.223V115.569Z" fill="#3B3B39"/>
<path d="M43.582 136.875C45.075 137.677 46.766 138.152 48.562 138.208V135.554C47.247 135.499 46.009 135.154 44.908 134.577L43.582 136.875Z" fill="#3B3B39"/>
<path d="M56.6152 130.906L58.9122 132.232C59.7142 130.74 60.1882 129.048 60.2462 127.252H57.5932C57.5382 128.567 57.1902 129.806 56.6152 130.906Z" fill="#3B3B39"/>
<path d="M53.5742 134.212L54.9002 136.509C56.3772 135.588 57.6272 134.339 58.5462 132.862L56.2502 131.536C55.5672 132.613 54.6512 133.527 53.5742 134.212Z" fill="#3B3B39"/>
<path d="M49.293 138.208C51.087 138.152 52.779 137.677 54.271 136.875L52.945 134.577C51.845 135.154 50.607 135.5 49.293 135.555V138.208Z" fill="#3B3B39"/>
<path d="M56.1255 126.888C56.1255 130.864 52.9025 134.087 48.9265 134.087C44.9515 134.087 41.7285 130.865 41.7285 126.888C41.7285 122.912 44.9515 119.689 48.9265 119.689C52.9025 119.69 56.1255 122.912 56.1255 126.888Z" fill="#96968F"/>
<path d="M162.524 67.256C163.796 66.389 164.254 65.078 164.401 63.68C164.41 56.218 164.197 41.978 163.756 30.981C163.728 30.95 163.709 30.906 163.707 30.843C163.686 30.448 163.688 30.043 163.702 29.634C163.623 27.82 163.539 26.111 163.448 24.556C163.413 24.453 163.379 24.349 163.337 24.248C162.677 22.603 161.239 22.173 159.697 21.936C150.184 22.132 126.709 21.404 121.661 24.817C121.661 24.817 118.535 24.943 105.982 39.878L85.3308 65.294C85.3308 65.294 84.7859 69.781 93.5819 69.876L159.111 68.773C160.307 68.365 161.516 67.945 162.524 67.256Z" fill="#1A1A1A"/>
<path d="M130.702 24.9421C130.702 24.9421 123.18 24.8321 120.082 27.7081C116.986 30.5841 92.1399 60.4631 92.1399 60.4631C92.1399 60.4631 86.9609 66.1551 91.2249 67.5971L149.508 66.0171C149.508 66.0171 158.356 67.0941 158.356 62.6671C158.356 58.2401 157.03 29.0361 157.03 29.0361C157.03 29.0361 157.472 23.8361 152.605 23.9471L130.702 24.9421Z" fill="#052A3A"/>
<path opacity="0.4" d="M91.2249 67.5971L91.7479 67.5831C106.511 57.9601 123.546 51.8641 140.714 48.2651C146.336 47.0871 152.024 46.1511 157.747 45.4731C157.398 37.1511 157.03 29.0361 157.03 29.0361C157.03 29.0361 157.472 23.8361 152.605 23.9471L130.702 24.9421C130.702 24.9421 123.18 24.8321 120.082 27.7081C116.986 30.5841 92.1399 60.4631 92.1399 60.4631C92.1399 60.4631 86.9609 66.1551 91.2249 67.5971Z" fill="#272726"/>
<path d="M18.9676 91.9671C16.7996 91.9021 5.4306 91.6381 5.6476 92.3661C6.0336 93.6491 6.61058 94.2281 6.61058 94.2281L18.3416 94.3581C18.9026 94.2211 19.5876 91.9851 18.9676 91.9671Z" fill="#DF4E0C"/>
<path opacity="0.5" d="M15.2668 92.3062C13.7408 92.2602 5.73882 92.0742 5.89282 92.5862C6.16482 93.4892 6.56982 93.8972 6.56982 93.8972L14.8268 93.9882C15.2218 93.8922 15.7028 92.3192 15.2668 92.3062Z" fill="#DF6B07"/>
<path d="M88.2232 62.218L82.9522 65.727C82.9522 65.727 80.5512 67.419 82.3002 69.238C82.3002 69.238 83.1212 70.194 85.3352 70.243C87.5472 70.291 92.1392 69.238 92.1392 69.238L88.2232 62.218Z" fill="black"/>
<path d="M100.821 59.3961C99.4239 56.3891 95.3659 56.6351 95.3549 56.6361C92.3149 56.8111 88.2119 58.7331 86.4869 61.2581C84.4989 64.1701 84.7449 70.7531 88.4799 70.1991C92.7639 69.5641 91.1289 70.0331 98.0619 68.4631C99.8709 68.0541 102.521 63.0571 100.821 59.3961Z" fill="#D00106"/>
<path d="M100.821 59.3961C99.4239 56.3891 95.3659 56.6351 95.3549 56.6361C92.3149 56.8111 88.2119 58.7331 86.4869 61.2581C84.4989 64.1701 84.7449 70.7531 88.4799 70.1991C92.7639 69.5641 91.1289 70.0331 98.0619 68.4631C99.8709 68.0541 102.521 63.0571 100.821 59.3961ZM95.7929 66.6421C90.4619 67.8491 91.7179 67.4881 88.4239 67.9761C85.5509 68.4031 85.3609 63.3401 86.8909 61.1011C88.2169 59.1581 91.3719 57.6801 93.7109 57.5461C93.7189 57.5451 96.8409 57.3561 97.9139 59.6681C99.2219 62.4841 97.1839 66.3261 95.7929 66.6421Z" fill="#8F0311"/>
<path d="M304.52 97.114V92.168C301.633 90.05 298.755 87.921 295.948 85.697C291.914 82.502 287.974 79.125 283.889 75.958H278.785C286.816 83.65 295.847 90.167 304.52 97.114Z" fill="#93060D"/>
<path d="M280.133 75.981L305.426 96.489L305.597 91.362L287.652 75.896L280.133 75.981Z" fill="#C10516"/>
<path d="M281.557 76.095H287.425L305.142 91.419L287.368 76.55L281.557 76.095Z" fill="#C10516"/>
<path d="M284.702 29.1329C283.432 27.6949 281.786 26.7429 281.786 24.5959C281.786 24.5919 281.786 22.4309 281.786 22.4309C281.786 22.4309 278.691 22.4309 277.604 22.4309V27.5639C279.621 28.2679 281.503 29.2709 282.636 31.1929C283.716 33.0269 283.278 35.2829 281.771 36.6929C278.981 39.3029 275.231 36.4769 273.911 33.3909C273.83 33.5879 273.811 33.8259 273.811 33.8259C273.583 38.8399 276.545 42.4849 282.128 40.7759C286.798 39.3459 287.643 32.4639 284.702 29.1329Z" fill="#161615"/>
<defs>
<radialGradient id="paint0_radial_562_74767" cx="0" cy="0" r="1" gradientUnits="userSpaceOnUse" gradientTransform="translate(238.727 76.0886) scale(3.52498 3.52499)">
<stop offset="0.193" stop-color="#868B85"/>
<stop offset="1" stop-color="#1C231C"/>
</radialGradient>
<radialGradient id="paint1_radial_562_74767" cx="0" cy="0" r="1" gradientUnits="userSpaceOnUse" gradientTransform="translate(243.73 68.9738) scale(3.13355 3.13356)">
<stop offset="0.193" stop-color="#868B85"/>
<stop offset="1" stop-color="#1C231C"/>
</radialGradient>
<radialGradient id="paint2_radial_562_74767" cx="0" cy="0" r="1" gradientUnits="userSpaceOnUse" gradientTransform="translate(240.418 69.9143) scale(3.60393 3.57125)">
<stop offset="0.2115" stop-color="#4C4238"/>
<stop offset="1" stop-color="#23231B"/>
</radialGradient>
<radialGradient id="paint3_radial_562_74767" cx="0" cy="0" r="1" gradientUnits="userSpaceOnUse" gradientTransform="translate(240.418 70.167) scale(3.60414 3.60414)">
<stop offset="0.2115" stop-color="#4C4238"/>
<stop offset="1" stop-color="#23231B"/>
</radialGradient>
<radialGradient id="paint4_radial_562_74767" cx="0" cy="0" r="1" gradientUnits="userSpaceOnUse" gradientTransform="translate(240.62 70.6176) scale(4.07561 4.07562)">
<stop stop-color="#FF6E51"/>
<stop offset="0.5793" stop-color="#FE0201"/>
<stop offset="1" stop-color="#8C0100"/>
</radialGradient>
<radialGradient id="paint5_radial_562_74767" cx="0" cy="0" r="1" gradientUnits="userSpaceOnUse" gradientTransform="translate(241.612 71.7409) scale(2.83044 2.83044)">
<stop stop-color="#FF6E51"/>
<stop offset="0.5793" stop-color="#FE0201"/>
<stop offset="1" stop-color="#C70100"/>
</radialGradient>
<radialGradient id="paint6_radial_562_74767" cx="0" cy="0" r="1" gradientUnits="userSpaceOnUse" gradientTransform="translate(240.295 69.7717) scale(3.71388 3.71386)">
<stop stop-color="#FF6E51"/>
<stop offset="0.5793" stop-color="#FE0201"/>
<stop offset="1" stop-color="#8C0100"/>
</radialGradient>
<radialGradient id="paint7_radial_562_74767" cx="0" cy="0" r="1" gradientUnits="userSpaceOnUse" gradientTransform="translate(248.851 76.0884) scale(3.52491 3.52492)">
<stop offset="0.193" stop-color="#868B85"/>
<stop offset="1" stop-color="#1C231C"/>
</radialGradient>
<radialGradient id="paint8_radial_562_74767" cx="0" cy="0" r="1" gradientUnits="userSpaceOnUse" gradientTransform="translate(253.855 68.9496) scale(3.13396 3.13396)">
<stop offset="0.193" stop-color="#868B85"/>
<stop offset="1" stop-color="#1C231C"/>
</radialGradient>
<radialGradient id="paint9_radial_562_74767" cx="0" cy="0" r="1" gradientUnits="userSpaceOnUse" gradientTransform="translate(250.543 69.8894) scale(3.60393 3.57125)">
<stop offset="0.2115" stop-color="#4C4238"/>
<stop offset="1" stop-color="#23231B"/>
</radialGradient>
<radialGradient id="paint10_radial_562_74767" cx="0" cy="0" r="1" gradientUnits="userSpaceOnUse" gradientTransform="translate(250.543 70.1435) scale(3.60386 3.60387)">
<stop offset="0.2115" stop-color="#4C4238"/>
<stop offset="1" stop-color="#23231B"/>
</radialGradient>
<radialGradient id="paint11_radial_562_74767" cx="0" cy="0" r="1" gradientUnits="userSpaceOnUse" gradientTransform="translate(250.484 70.5458) scale(4.25998 4.25999)">
<stop offset="0.1558" stop-color="#FFEE96"/>
<stop offset="0.5003" stop-color="#FEBE00"/>
<stop offset="0.984" stop-color="#C39800"/>
</radialGradient>
<radialGradient id="paint12_radial_562_74767" cx="0" cy="0" r="1" gradientUnits="userSpaceOnUse" gradientTransform="translate(250.353 70.3177) scale(4.14537 4.14535)">
<stop offset="0.1558" stop-color="#FFEE96"/>
<stop offset="0.2369" stop-color="#FFE373"/>
<stop offset="0.3369" stop-color="#FFD850"/>
<stop offset="0.4431" stop-color="#FECE33"/>
<stop offset="0.5555" stop-color="#FEC71C"/>
<stop offset="0.677" stop-color="#FEC20C"/>
<stop offset="0.8141" stop-color="#FEBF03"/>
<stop offset="1" stop-color="#FEBE00"/>
</radialGradient>
<radialGradient id="paint13_radial_562_74767" cx="0" cy="0" r="1" gradientUnits="userSpaceOnUse" gradientTransform="translate(251.735 71.7177) scale(2.83017 2.83017)">
<stop offset="0.1558" stop-color="#FFEE96"/>
<stop offset="0.5003" stop-color="#FEBE00"/>
<stop offset="0.984" stop-color="#C39800"/>
</radialGradient>
<radialGradient id="paint14_radial_562_74767" cx="0" cy="0" r="1" gradientUnits="userSpaceOnUse" gradientTransform="translate(250.776 68.4287) scale(3.81876 3.8188)">
<stop offset="0.1558" stop-color="#FFEE96"/>
<stop offset="0.5003" stop-color="#FEBE00"/>
<stop offset="0.984" stop-color="#C39800"/>
</radialGradient>
<linearGradient id="paint15_linear_562_74767" x1="168.401" y1="16.7236" x2="143.933" y2="16.7236" gradientUnits="userSpaceOnUse">
<stop offset="0.136" stop-color="#747883"/>
<stop offset="0.1376" stop-color="#787C86"/>
<stop offset="0.1562" stop-color="#A1A4AB"/>
<stop offset="0.1753" stop-color="#C3C5C9"/>
<stop offset="0.1946" stop-color="#DDDEE1"/>
<stop offset="0.2143" stop-color="#F0F1F2"/>
<stop offset="0.2347" stop-color="#FBFBFC"/>
<stop offset="0.2567" stop-color="white"/>
<stop offset="0.3279" stop-color="#FDFCFD"/>
<stop offset="0.3727" stop-color="#F5F4F5"/>
<stop offset="0.4103" stop-color="#E8E5E9"/>
<stop offset="0.4438" stop-color="#D5D0D7"/>
<stop offset="0.4744" stop-color="#BDB6C0"/>
<stop offset="0.4848" stop-color="#B3ABB7"/>
<stop offset="0.4901" stop-color="#B0A8B4"/>
<stop offset="0.5406" stop-color="#96939F"/>
<stop offset="0.5924" stop-color="#83848F"/>
<stop offset="0.6459" stop-color="#787B86"/>
<stop offset="0.7038" stop-color="#747883"/>
<stop offset="0.7077" stop-color="#787C86"/>
<stop offset="0.7534" stop-color="#A1A4AB"/>
<stop offset="0.8001" stop-color="#C3C5C9"/>
<stop offset="0.8475" stop-color="#DDDEE1"/>
<stop offset="0.896" stop-color="#F0F1F2"/>
<stop offset="0.946" stop-color="#FBFBFC"/>
<stop offset="1" stop-color="white"/>
</linearGradient>
<linearGradient id="paint16_linear_562_74767" x1="168.401" y1="16.7236" x2="143.933" y2="16.7236" gradientUnits="userSpaceOnUse">
<stop offset="0.136" stop-color="#747883"/>
<stop offset="0.1376" stop-color="#787C86"/>
<stop offset="0.1562" stop-color="#A1A4AB"/>
<stop offset="0.1753" stop-color="#C3C5C9"/>
<stop offset="0.1946" stop-color="#DDDEE1"/>
<stop offset="0.2143" stop-color="#F0F1F2"/>
<stop offset="0.2347" stop-color="#FBFBFC"/>
<stop offset="0.2567" stop-color="white"/>
<stop offset="0.3279" stop-color="#FDFCFD"/>
<stop offset="0.3727" stop-color="#F5F4F5"/>
<stop offset="0.4103" stop-color="#E8E5E9"/>
<stop offset="0.4438" stop-color="#D5D0D7"/>
<stop offset="0.4744" stop-color="#BDB6C0"/>
<stop offset="0.4848" stop-color="#B3ABB7"/>
<stop offset="0.4973" stop-color="#B0A8B4"/>
<stop offset="0.6161" stop-color="#96939F"/>
<stop offset="0.738" stop-color="#83848F"/>
<stop offset="0.8639" stop-color="#787B86"/>
<stop offset="1" stop-color="#747883"/>
</linearGradient>
<linearGradient id="paint17_linear_562_74767" x1="147.687" y1="7.86513" x2="166.468" y2="7.86513" gradientUnits="userSpaceOnUse">
<stop offset="0.3417" stop-color="#ED2118"/>
<stop offset="0.3466" stop-color="#E82018"/>
<stop offset="0.3869" stop-color="#C41718"/>
<stop offset="0.4275" stop-color="#A71017"/>
<stop offset="0.4679" stop-color="#930B17"/>
<stop offset="0.5081" stop-color="#870817"/>
<stop offset="0.5478" stop-color="#830717"/>
<stop offset="0.8854" stop-color="#ED2118"/>
</linearGradient>
<radialGradient id="paint18_radial_562_74767" cx="0" cy="0" r="1" gradientUnits="userSpaceOnUse" gradientTransform="translate(156.806 -8.46859) scale(14.9244 14.9244)">
<stop offset="0.1135" stop-color="#ED2118"/>
<stop offset="0.4522" stop-color="#830717"/>
<stop offset="0.4919" stop-color="#870817"/>
<stop offset="0.5321" stop-color="#930B17"/>
<stop offset="0.5725" stop-color="#A71017"/>
<stop offset="0.6131" stop-color="#C41718"/>
<stop offset="0.6534" stop-color="#E82018"/>
<stop offset="0.6583" stop-color="#ED2118"/>
</radialGradient>
<linearGradient id="paint19_linear_562_74767" x1="165.329" y1="-0.648253" x2="149.599" y2="17.9642" gradientUnits="userSpaceOnUse">
<stop offset="0.3417" stop-color="#ED2118"/>
<stop offset="0.3466" stop-color="#E82018"/>
<stop offset="0.3869" stop-color="#C41718"/>
<stop offset="0.4275" stop-color="#A71017"/>
<stop offset="0.4679" stop-color="#930B17"/>
<stop offset="0.5081" stop-color="#870817"/>
<stop offset="0.5478" stop-color="#830717"/>
<stop offset="0.8854" stop-color="#ED2118"/>
</linearGradient>
<radialGradient id="paint20_radial_562_74767" cx="0" cy="0" r="1" gradientUnits="userSpaceOnUse" gradientTransform="translate(157.125 7.54765) scale(5.05809)">
<stop offset="0.0117" stop-color="white"/>
<stop offset="1" stop-color="white"/>
</radialGradient>
<radialGradient id="paint21_radial_562_74767" cx="0" cy="0" r="1" gradientUnits="userSpaceOnUse" gradientTransform="translate(158.126 11.5782) scale(11.4117 11.4117)">
<stop offset="0.0211" stop-color="#ED2118"/>
<stop offset="0.4522" stop-color="#830717"/>
<stop offset="0.5462" stop-color="#870817"/>
<stop offset="0.6415" stop-color="#930B17"/>
<stop offset="0.7372" stop-color="#A71017"/>
<stop offset="0.8333" stop-color="#C41718"/>
<stop offset="0.9289" stop-color="#E82018"/>
<stop offset="0.9404" stop-color="#ED2118"/>
</radialGradient>
<radialGradient id="paint22_radial_562_74767" cx="0" cy="0" r="1" gradientUnits="userSpaceOnUse" gradientTransform="translate(160.382 7.13462) scale(4.80101 4.80144)">
<stop offset="0.0211" stop-color="#ED2118"/>
<stop offset="0.4522" stop-color="#830717"/>
<stop offset="0.5462" stop-color="#870817"/>
<stop offset="0.6415" stop-color="#930B17"/>
<stop offset="0.7372" stop-color="#A71017"/>
<stop offset="0.8333" stop-color="#C41718"/>
<stop offset="0.9289" stop-color="#E82018"/>
<stop offset="0.9404" stop-color="#ED2118"/>
</radialGradient>
<radialGradient id="paint23_radial_562_74767" cx="0" cy="0" r="1" gradientUnits="userSpaceOnUse" gradientTransform="translate(160.358 7.13515) scale(4.76299 4.76334)">
<stop offset="0.0211" stop-color="#ED2118"/>
<stop offset="0.4522" stop-color="#830717"/>
<stop offset="0.5462" stop-color="#870817"/>
<stop offset="0.6415" stop-color="#930B17"/>
<stop offset="0.7372" stop-color="#A71017"/>
<stop offset="0.8333" stop-color="#C41718"/>
<stop offset="0.9289" stop-color="#E82018"/>
<stop offset="0.9404" stop-color="#ED2118"/>
</radialGradient>
<radialGradient id="paint24_radial_562_74767" cx="0" cy="0" r="1" gradientUnits="userSpaceOnUse" gradientTransform="translate(160.367 7.13113) scale(4.77687 4.77594)">
<stop offset="0.0211" stop-color="#ED2118"/>
<stop offset="0.4522" stop-color="#830717"/>
<stop offset="0.5462" stop-color="#870817"/>
<stop offset="0.6415" stop-color="#930B17"/>
<stop offset="0.7372" stop-color="#A71017"/>
<stop offset="0.8333" stop-color="#C41718"/>
<stop offset="0.9289" stop-color="#E82018"/>
<stop offset="0.9404" stop-color="#ED2118"/>
</radialGradient>
<radialGradient id="paint25_radial_562_74767" cx="0" cy="0" r="1" gradientUnits="userSpaceOnUse" gradientTransform="translate(151.531 9.3802) scale(8.55793 8.55792)">
<stop offset="0.0211" stop-color="#ED2118"/>
<stop offset="0.4522" stop-color="#830717"/>
<stop offset="0.5462" stop-color="#870817"/>
<stop offset="0.6415" stop-color="#930B17"/>
<stop offset="0.7372" stop-color="#A71017"/>
<stop offset="0.8333" stop-color="#C41718"/>
<stop offset="0.9289" stop-color="#E82018"/>
<stop offset="0.9404" stop-color="#ED2118"/>
</radialGradient>
<radialGradient id="paint26_radial_562_74767" cx="0" cy="0" r="1" gradientUnits="userSpaceOnUse" gradientTransform="translate(154.122 6.25322) scale(6.88344 6.88344)">
<stop offset="0.0211" stop-color="#ED2118"/>
<stop offset="0.4522" stop-color="#830717"/>
<stop offset="0.5462" stop-color="#870817"/>
<stop offset="0.6415" stop-color="#930B17"/>
<stop offset="0.7372" stop-color="#A71017"/>
<stop offset="0.8333" stop-color="#C41718"/>
<stop offset="0.9289" stop-color="#E82018"/>
<stop offset="0.9404" stop-color="#ED2118"/>
</radialGradient>
<radialGradient id="paint27_radial_562_74767" cx="0" cy="0" r="1" gradientUnits="userSpaceOnUse" gradientTransform="translate(152.898 11.2847) scale(7.22674 7.22675)">
<stop offset="0.0211" stop-color="#ED2118"/>
<stop offset="0.4522" stop-color="#830717"/>
<stop offset="0.5462" stop-color="#870817"/>
<stop offset="0.6415" stop-color="#930B17"/>
<stop offset="0.7372" stop-color="#A71017"/>
<stop offset="0.8333" stop-color="#C41718"/>
<stop offset="0.9289" stop-color="#E82018"/>
<stop offset="0.9404" stop-color="#ED2118"/>
</radialGradient>
<radialGradient id="paint28_radial_562_74767" cx="0" cy="0" r="1" gradientUnits="userSpaceOnUse" gradientTransform="translate(156.807 22.7638) scale(19.7288 19.7288)">
<stop offset="0.1135" stop-color="#ED2118"/>
<stop offset="0.4522" stop-color="#830717"/>
<stop offset="0.4919" stop-color="#870817"/>
<stop offset="0.5321" stop-color="#930B17"/>
<stop offset="0.5725" stop-color="#A71017"/>
<stop offset="0.6131" stop-color="#C41718"/>
<stop offset="0.6534" stop-color="#E82018"/>
<stop offset="0.6583" stop-color="#ED2118"/>
</radialGradient>
<linearGradient id="paint29_linear_562_74767" x1="160.509" y1="7.63537" x2="163.734" y2="7.00016" gradientUnits="userSpaceOnUse">
<stop offset="0.3417" stop-color="#ED2118"/>
<stop offset="0.3466" stop-color="#E82018"/>
<stop offset="0.3869" stop-color="#C41718"/>
<stop offset="0.4275" stop-color="#A71017"/>
<stop offset="0.4679" stop-color="#930B17"/>
<stop offset="0.5081" stop-color="#870817"/>
<stop offset="0.5478" stop-color="#830717"/>
<stop offset="0.8854" stop-color="#ED2118"/>
</linearGradient>
<linearGradient id="paint30_linear_562_74767" x1="149.36" y1="7.35027" x2="154.089" y2="7.55596" gradientUnits="userSpaceOnUse">
<stop offset="0.3353" stop-color="white"/>
<stop offset="0.3754" stop-color="#FCE0DF"/>
<stop offset="0.448" stop-color="#F8AEAB"/>
<stop offset="0.5218" stop-color="#F5837E"/>
<stop offset="0.5953" stop-color="#F25F59"/>
<stop offset="0.6685" stop-color="#F0443D"/>
<stop offset="0.7414" stop-color="#EE3128"/>
<stop offset="0.8138" stop-color="#ED251C"/>
<stop offset="0.8854" stop-color="#ED2118"/>
</linearGradient>
<linearGradient id="paint31_linear_562_74767" x1="159.595" y1="8.56138" x2="167.604" y2="3.7268" gradientUnits="userSpaceOnUse">
<stop stop-color="#B3ABB7"/>
<stop offset="0.0334" stop-color="#C4BEC8"/>
<stop offset="0.0928" stop-color="#DEDBE0"/>
<stop offset="0.1524" stop-color="#F0EFF1"/>
<stop offset="0.2116" stop-color="#FBFBFC"/>
<stop offset="0.2702" stop-color="white"/>
<stop offset="0.3437" stop-color="#FDFCFD"/>
<stop offset="0.39" stop-color="#F5F4F5"/>
<stop offset="0.4289" stop-color="#E8E5E9"/>
<stop offset="0.4635" stop-color="#D5D0D7"/>
<stop offset="0.4952" stop-color="#BDB6C0"/>
<stop offset="0.5059" stop-color="#B3ABB7"/>
<stop offset="0.5899" stop-color="#BCB5C0"/>
<stop offset="0.7329" stop-color="#D4D0D7"/>
<stop offset="0.9166" stop-color="#FCFCFC"/>
<stop offset="0.9296" stop-color="white"/>
<stop offset="0.9516" stop-color="#FDFCFD"/>
<stop offset="0.9654" stop-color="#F5F4F5"/>
<stop offset="0.977" stop-color="#E8E5E9"/>
<stop offset="0.9874" stop-color="#D5D0D7"/>
<stop offset="0.9968" stop-color="#BDB6C0"/>
<stop offset="1" stop-color="#B3ABB7"/>
</linearGradient>
<radialGradient id="paint32_radial_562_74767" cx="0" cy="0" r="1" gradientUnits="userSpaceOnUse" gradientTransform="translate(154.804 18.2211) scale(10.7967 10.7967)">
<stop offset="0.1135" stop-color="#ED2118"/>
<stop offset="0.4522" stop-color="#830717"/>
<stop offset="0.4919" stop-color="#870817"/>
<stop offset="0.5321" stop-color="#930B17"/>
<stop offset="0.5725" stop-color="#A71017"/>
<stop offset="0.6131" stop-color="#C41718"/>
<stop offset="0.6534" stop-color="#E82018"/>
<stop offset="0.6583" stop-color="#ED2118"/>
</radialGradient>
<linearGradient id="paint33_linear_562_74767" x1="156.155" y1="6.4956" x2="157.262" y2="21.997" gradientUnits="userSpaceOnUse">
<stop offset="0.136" stop-color="#747883"/>
<stop offset="0.1376" stop-color="#787C86"/>
<stop offset="0.1562" stop-color="#A1A4AB"/>
<stop offset="0.1753" stop-color="#C3C5C9"/>
<stop offset="0.1946" stop-color="#DDDEE1"/>
<stop offset="0.2143" stop-color="#F0F1F2"/>
<stop offset="0.2347" stop-color="#FBFBFC"/>
<stop offset="0.2567" stop-color="white"/>
<stop offset="0.3279" stop-color="#FDFCFD"/>
<stop offset="0.3727" stop-color="#F5F4F5"/>
<stop offset="0.4103" stop-color="#E8E5E9"/>
<stop offset="0.4438" stop-color="#D5D0D7"/>
<stop offset="0.4744" stop-color="#BDB6C0"/>
<stop offset="0.4848" stop-color="#B3ABB7"/>
<stop offset="0.4901" stop-color="#B0A8B4"/>
<stop offset="0.5406" stop-color="#96939F"/>
<stop offset="0.5924" stop-color="#83848F"/>
<stop offset="0.6459" stop-color="#787B86"/>
<stop offset="0.7038" stop-color="#747883"/>
<stop offset="0.7077" stop-color="#787C86"/>
<stop offset="0.7534" stop-color="#A1A4AB"/>
<stop offset="0.8001" stop-color="#C3C5C9"/>
<stop offset="0.8475" stop-color="#DDDEE1"/>
<stop offset="0.896" stop-color="#F0F1F2"/>
<stop offset="0.946" stop-color="#FBFBFC"/>
<stop offset="1" stop-color="white"/>
</linearGradient>
<linearGradient id="paint34_linear_562_74767" x1="152.165" y1="16.9051" x2="161.887" y2="17.2471" gradientUnits="userSpaceOnUse">
<stop offset="0.136" stop-color="#747883"/>
<stop offset="0.1376" stop-color="#787C86"/>
<stop offset="0.1562" stop-color="#A1A4AB"/>
<stop offset="0.1753" stop-color="#C3C5C9"/>
<stop offset="0.1946" stop-color="#DDDEE1"/>
<stop offset="0.2143" stop-color="#F0F1F2"/>
<stop offset="0.2347" stop-color="#FBFBFC"/>
<stop offset="0.2567" stop-color="white"/>
<stop offset="0.3279" stop-color="#FDFCFD"/>
<stop offset="0.3727" stop-color="#F5F4F5"/>
<stop offset="0.4103" stop-color="#E8E5E9"/>
<stop offset="0.4438" stop-color="#D5D0D7"/>
<stop offset="0.4744" stop-color="#BDB6C0"/>
<stop offset="0.4848" stop-color="#B3ABB7"/>
<stop offset="0.4901" stop-color="#B0A8B4"/>
<stop offset="0.5406" stop-color="#96939F"/>
<stop offset="0.5924" stop-color="#83848F"/>
<stop offset="0.6459" stop-color="#787B86"/>
<stop offset="0.7038" stop-color="#747883"/>
<stop offset="0.7077" stop-color="#787C86"/>
<stop offset="0.7534" stop-color="#A1A4AB"/>
<stop offset="0.8001" stop-color="#C3C5C9"/>
<stop offset="0.8475" stop-color="#DDDEE1"/>
<stop offset="0.896" stop-color="#F0F1F2"/>
<stop offset="0.946" stop-color="#FBFBFC"/>
<stop offset="1" stop-color="white"/>
</linearGradient>
</defs>
</svg>
