<svg width="420" height="279" viewBox="0 0 420 279" fill="none" xmlns="http://www.w3.org/2000/svg">
<path d="M153.187 84.0641L154.811 83.8008L151.893 65.812L150.269 66.0754L153.187 84.0641Z" fill="#4D464F"/>
<path d="M144.869 65.5267L155.744 63.7612C155.986 65.253 154.972 66.6599 153.48 66.9021L148.01 67.7889C146.518 68.0325 145.113 67.0184 144.869 65.5267Z" fill="#625E63"/>
<path d="M102.828 115.516C122.183 115.516 137.873 99.8254 137.873 80.4706C137.873 61.1159 122.183 45.4258 102.828 45.4258C83.4733 45.4258 67.7832 61.1159 67.7832 80.4706C67.7832 99.8254 83.4733 115.516 102.828 115.516Z" fill="#F4EAED"/>
<path d="M102.827 118.123C82.066 118.123 65.1738 101.232 65.1738 80.4694C65.1738 59.7082 82.0647 42.8174 102.827 42.8174C123.587 42.8174 140.478 59.7082 140.478 80.4694C140.478 101.232 123.587 118.123 102.827 118.123ZM102.827 48.0302C84.94 48.0302 70.3881 62.5822 70.3881 80.4694C70.3881 98.3565 84.94 112.91 102.827 112.91C120.712 112.91 135.265 98.3579 135.265 80.4694C135.265 62.5836 120.713 48.0302 102.827 48.0302Z" fill="black"/>
<path d="M257.759 80.4706C257.759 99.8263 242.068 115.516 222.713 115.516C203.357 115.516 187.668 99.8249 187.668 80.4706C187.668 61.115 203.359 45.4258 222.713 45.4258C242.068 45.4244 257.759 61.115 257.759 80.4706Z" fill="#F4EAED"/>
<path d="M222.714 118.123C201.953 118.123 185.062 101.232 185.062 80.4694C185.062 59.7082 201.953 42.8174 222.714 42.8174C243.474 42.8174 260.366 59.7082 260.366 80.4694C260.366 101.232 243.474 118.123 222.714 118.123ZM222.714 48.0302C204.827 48.0302 190.275 62.5822 190.275 80.4694C190.275 98.3565 204.827 112.91 222.714 112.91C240.6 112.91 255.152 98.3579 255.152 80.4694C255.152 62.5836 240.6 48.0302 222.714 48.0302Z" fill="black"/>
<path d="M376.673 190.637H27.8105V239.48H376.673V190.637Z" fill="#020202"/>
<path d="M413.225 211.876C413.225 211.876 413.225 211.876 413.225 211.89C413.225 211.931 413.211 211.972 413.211 212.013V212.095C413.198 212.273 413.182 212.328 413.182 212.328C413.088 213.819 412.676 219.663 411.28 239.48H372.673C373.631 219.321 357.66 203.418 338.445 203.418C319.244 203.418 303.244 219.307 304.204 239.48H107.665C108.637 219.129 92.4466 203.418 73.4235 203.418C72.534 203.418 71.6444 203.446 70.7685 203.528C53.0593 204.869 39.0999 219.677 39.0999 237.742C39.0999 238.33 39.1683 238.905 39.1957 239.48H22.595C10.1274 239.48 0 229.366 0 216.885V205.882H8.11559V162.621C8.11559 160.185 9.85227 158.091 12.2473 157.653C83.618 144.543 78.7733 129.42 94.3353 129.42H223.021C226.429 129.42 229.769 130.378 232.67 132.171L304.698 176.923L387.838 186.968C396.679 188.036 404.302 193.017 408.886 200.161C411.104 203.624 412.621 207.592 413.225 211.876Z" fill="#A420C4"/>
<path d="M413.225 211.876C413.225 211.876 413.225 211.876 413.225 211.889C413.225 211.93 413.211 211.971 413.211 212.012V212.095C413.198 212.272 413.182 212.327 413.182 212.327C413.088 213.819 412.676 219.663 411.28 239.48H372.673C373.631 219.321 357.66 203.418 338.445 203.418C319.244 203.418 303.244 219.307 304.204 239.48H107.665C108.637 219.129 92.4466 203.418 73.4235 203.418C72.534 203.418 71.6444 203.445 70.7685 203.527C53.0593 204.869 39.0999 219.676 39.0999 237.741C39.0999 238.33 39.1683 238.905 39.1957 239.48H22.595C10.1274 239.48 0 229.366 0 216.885V205.881H8.11559V200.161H408.886C411.104 203.623 412.621 207.592 413.225 211.876Z" fill="#8515A0"/>
<path d="M204.123 204.199C268.897 223.701 304.206 239.48 304.206 239.48H107.666C108.638 219.13 92.4479 203.419 73.4248 203.419C72.5353 203.419 71.6457 203.446 70.7698 203.528L70.4551 203.008C70.4551 203.008 139.335 184.71 204.123 204.199Z" fill="#AE33CC"/>
<path opacity="0.43" d="M411.761 232.774L411.282 239.48H372.675C372.85 235.804 372.601 232.376 371.43 228.299C388.578 230.256 401.73 231.693 411.761 232.774Z" fill="#A420C4"/>
<path d="M415.74 239.478H406.648V209.285H413.304C415.456 209.285 417.271 210.989 417.533 213.257L419.967 234.412C420.278 237.104 418.298 239.478 415.74 239.478Z" fill="#A420C4"/>
<path d="M402.305 209.284H383.615C376.572 209.284 370.002 205.735 366.14 199.845L363.641 196.034H382.33C389.372 196.034 395.943 199.582 399.806 205.473L402.305 209.284Z" fill="#ECCBF4"/>
<path d="M402.303 209.284C398.639 209.566 394.978 209.699 391.317 209.808C382.947 210.159 376.407 210.512 370.095 205.006C367.109 202.398 365.841 200.037 363.637 196.034C365.895 198.932 367.834 202.084 370.759 204.189C378.914 210.375 384.124 207.883 402.303 209.284Z" fill="#512E59"/>
<path d="M32.8058 184.382V200.161H8.11691L7.2547 182.657L6.51571 167.685L6.47461 166.713H15.1377C17.1631 166.713 19.1065 167.056 20.9267 167.685C27.3179 169.902 32.0531 175.691 32.71 182.657C32.7784 183.232 32.8058 183.807 32.8058 184.382Z" fill="#5E1426"/>
<path d="M154.918 169.783L64.4629 169.606L89.0164 148.384C100.611 138.363 115.564 133.021 130.916 133.445L154.918 134.111V169.783ZM68.1306 168.243L153.55 168.41V135.442L130.879 134.812C115.854 134.381 101.249 139.62 89.9128 149.419L68.1306 168.243Z" fill="black"/>
<path d="M68.1328 168.243L89.9149 149.419C100.829 139.984 114.785 134.789 129.211 134.789C129.768 134.789 130.326 134.795 130.883 134.812L153.553 135.441V168.412L68.1328 168.243Z" fill="#A08CA5"/>
<path opacity="0.64" d="M68.1328 168.243L89.9149 149.419C100.829 139.984 114.785 134.789 129.211 134.789C129.768 134.789 130.326 134.795 130.883 134.812L153.553 135.441V168.412L68.1328 168.243Z" fill="#A08CA5"/>
<path d="M167.746 168.41V135.442L196.623 134.812C197.321 134.798 198.032 134.785 198.744 134.785C209.693 134.785 220.436 136.646 230.262 140.163C234.053 141.532 237.721 143.133 241.197 144.98C242.962 145.911 244.673 146.896 246.329 147.95C247.109 148.443 247.889 148.949 248.656 149.469L256.169 154.602L276.15 168.246L167.746 168.41Z" fill="#655668"/>
<path d="M167.746 168.41V145.473H242.1C243.537 146.267 244.961 147.074 246.329 147.95C247.109 148.443 247.889 148.949 248.656 149.469L256.169 154.601L276.15 168.246L167.746 168.41Z" fill="#BD97C6"/>
<path d="M256.17 154.601L248.274 168.287L234.574 168.314L246.33 147.95C247.11 148.443 247.89 148.949 248.657 149.469L256.17 154.601Z" fill="#A08CA5"/>
<path d="M240.912 145.473L227.719 168.315L214.006 168.342L227.199 145.473H240.912Z" fill="#A08CA5"/>
<path d="M249.042 148.9C235.049 139.344 217.187 134.104 198.739 134.104C198.027 134.104 197.315 134.112 196.601 134.127L167.064 134.776V169.097L278.363 168.924L249.042 148.9ZM168.433 136.114L196.631 135.496C197.334 135.481 198.036 135.473 198.739 135.473C216.932 135.473 234.524 140.643 248.27 150.031L273.943 167.564L168.433 167.728V136.114Z" fill="black"/>
<path d="M251.987 115.226H77.6289V121.018H251.987V115.226Z" fill="black"/>
<path d="M126.646 121.018H121.434V129.418H126.646V121.018Z" fill="black"/>
<path d="M198.982 121.018H193.77V129.418H198.982V121.018Z" fill="black"/>
<path d="M136.735 35.9192V23.561H132.629V40.8187L132.671 40.8734L99.0586 82.642H156.839L207.353 24.478C182.699 28.4714 153.283 33.2354 136.735 35.9192ZM154.923 78.5363H107.639L135.079 44.418L156.798 76.3056L154.923 78.5363ZM137.775 41.0787L138.856 39.7375C144.444 38.8356 193.628 30.8938 195.05 30.6639L159.536 73.0484L137.775 41.0787Z" fill="#69B748"/>
<path d="M221.142 81.7897C220.823 81.4093 213.259 72.3425 207.994 61.3735C202.952 50.8711 203.156 28.7386 203.222 25.2419L201.079 19.9935C200.052 17.4808 203.85 15.9247 204.879 18.4402L207.348 24.4838C207.132 33.582 207.756 51.3884 211.697 59.597C216.731 70.0844 224.214 79.0608 224.29 79.1511C226.034 81.23 222.89 83.8699 221.142 81.7897Z" fill="#69B748"/>
<path d="M201.075 19.9934L196.729 9.35278C198.805 5.41405 202.136 0 206.615 0C214.399 0 222.589 10.8856 203.801 15.811L204.876 18.4414C205.905 20.9555 202.102 22.5061 201.075 19.9934ZM201.246 9.55396L202.234 11.9722C204.587 11.3974 211.623 9.0777 211.145 6.88115C210.86 5.5687 208.203 4.1057 206.615 4.1057C205.045 4.10433 202.66 7.05359 201.246 9.55396Z" fill="#AEAEAF"/>
<path d="M200.438 12.358C193.591 13.6417 187.666 12.6386 187.607 12.6276C184.939 12.1582 184.222 16.1996 186.897 16.6717C190.338 17.2876 196.104 17.3478 201.195 16.3926C202.31 16.1845 203.104 11.8517 200.438 12.358Z" fill="black"/>
<path d="M137.872 17.4468H131.572V26.1645H137.872V17.4468Z" fill="#957C9B"/>
<path d="M161.918 86.0171C162.777 86.4126 163.815 88.1083 164.236 89.0074L161.617 91.917C160.678 91.5926 158.884 90.7386 158.399 89.9257L155.154 90.9809C155.241 91.9238 154.291 93.6688 153.724 94.483L149.894 93.6701C149.706 92.6957 149.547 90.714 150.01 89.8888L147.474 87.6074C146.702 88.1534 144.714 88.2041 143.725 88.1192L142.516 84.3953C143.266 83.7453 144.902 82.6176 145.848 82.6053L146.557 79.2687C145.698 78.8732 144.66 77.1775 144.24 76.2784L146.859 73.3688C147.797 73.6931 149.593 74.5471 150.077 75.3601L153.322 74.3049C153.236 73.362 154.185 71.617 154.752 70.8027L158.581 71.6157C158.77 72.5901 158.927 74.5718 158.465 75.397L161.001 77.6784C161.773 77.1324 163.76 77.0817 164.749 77.1666L165.961 80.8904C165.211 81.5405 163.574 82.6682 162.628 82.6805L161.918 86.0171ZM158.147 78.2984C155.748 76.1388 152.052 76.3331 149.892 78.7322C147.733 81.1313 147.928 84.8278 150.326 86.986C152.725 89.1456 156.422 88.9513 158.581 86.5522C160.741 84.1531 160.546 80.4566 158.147 78.2984Z" fill="black"/>
<path d="M107.532 81.7731C107.532 85.1713 104.777 87.9275 101.377 87.9275C97.9776 87.9275 95.2227 85.1713 95.2227 81.7731C95.2227 78.3736 97.9776 75.6187 101.377 75.6187C104.777 75.6187 107.532 78.3736 107.532 81.7731Z" fill="black"/>
<path d="M105.052 81.7732C105.052 83.8014 103.407 85.4464 101.378 85.4464C99.3495 85.4464 97.7031 83.8014 97.7031 81.7732C97.7031 79.7436 99.3481 78.0986 101.378 78.0986C103.407 78.1 105.052 79.7436 105.052 81.7732Z" fill="#FF5B00"/>
<path d="M230.625 81.7731C230.625 85.1713 227.87 87.9275 224.471 87.9275C221.071 87.9275 218.316 85.1713 218.316 81.7731C218.316 78.3736 221.071 75.6187 224.471 75.6187C227.87 75.6187 230.625 78.3736 230.625 81.7731Z" fill="black"/>
<path d="M228.695 81.7732C228.695 84.1052 226.803 85.9966 224.471 85.9966C222.139 85.9966 220.248 84.1052 220.248 81.7732C220.248 79.4398 222.139 77.5498 224.471 77.5498C226.803 77.5498 228.695 79.4412 228.695 81.7732Z" fill="#FF5B00"/>
<path d="M159.392 82.6426C159.392 85.4906 157.083 87.7994 154.235 87.7994C151.387 87.7994 149.078 85.492 149.078 82.6426C149.078 79.7946 151.387 77.4858 154.235 77.4858C157.083 77.4858 159.392 79.7946 159.392 82.6426Z" fill="#625E63"/>
<path d="M154.85 82.5479H153.205V100.77H154.85V82.5479Z" fill="#4D464F"/>
<path d="M160.096 102.14H149.08C149.08 100.628 150.306 99.4033 151.817 99.4033H157.359C158.869 99.4033 160.096 100.628 160.096 102.14Z" fill="#625E63"/>
<path d="M155.221 83.1366C155.221 83.7962 154.686 84.3327 154.025 84.3327C153.365 84.3327 152.83 83.7976 152.83 83.1366C152.83 82.4769 153.365 81.9404 154.025 81.9404C154.686 81.9418 155.221 82.4769 155.221 83.1366Z" fill="#4D464F"/>
<path d="M116.44 13.3475C116.44 13.3475 112.747 20.7323 116.44 20.7323C120.132 20.7323 134.469 18.778 140.117 20.7323C145.765 22.688 150.327 22.9042 150.327 20.7323C150.327 18.5604 128.169 10.089 116.44 13.3475Z" fill="black"/>
<path d="M178.09 29.2139L175.832 33.7712L169.824 34.7429L172.069 30.1992L178.09 29.2139Z" fill="#FFF87D"/>
<path d="M182.785 28.4604L180.541 33.0041L176.75 33.6199L178.994 29.0763L182.785 28.4604Z" fill="#FFF87D"/>
<path d="M170.347 30.4727L168.103 35.0163L165.105 35.4953L167.35 30.9653L170.347 30.4727Z" fill="#FFF87D"/>
<path d="M393.775 206.322C392.277 208.914 388.413 209.482 385.139 207.592C381.865 205.702 380.426 202.07 381.921 199.479C383.417 196.889 387.282 196.319 390.556 198.209C393.829 200.099 395.27 203.73 393.775 206.322Z" fill="#F5E5F9"/>
<path d="M32.708 182.657H7.25267L6.51367 167.685H20.9246C27.3158 169.902 32.0511 175.691 32.708 182.657Z" fill="#6B1930"/>
<path d="M104.837 243.179C107.734 227.767 97.5874 212.925 82.175 210.028C66.7626 207.132 51.9203 217.278 49.0239 232.69C46.1274 248.102 56.2735 262.945 71.6859 265.841C87.0983 268.738 101.941 258.592 104.837 243.179Z" fill="#4E4D56"/>
<path d="M96.1118 237.956C96.1118 248.535 87.535 257.111 76.956 257.111C66.3756 257.111 57.7988 248.535 57.7988 237.956C57.7988 227.377 66.3756 218.798 76.956 218.798C87.535 218.8 96.1118 227.377 96.1118 237.956Z" fill="#352E3A"/>
<path d="M94.9688 241.599C96.9779 231.652 90.5436 221.961 80.5974 219.951C70.6512 217.942 60.9595 224.377 58.9504 234.323C56.9412 244.269 63.3755 253.961 73.3217 255.97C83.2679 257.979 92.9596 251.545 94.9688 241.599Z" fill="#9F91A8"/>
<path d="M91.6647 241.792C93.7637 233.68 88.8893 225.402 80.7774 223.303C72.6654 221.204 64.3878 226.079 62.2888 234.19C60.1899 242.302 65.0643 250.58 73.1762 252.679C81.2881 254.778 89.5657 249.904 91.6647 241.792Z" fill="#9F91A8"/>
<path d="M87.6742 237.955C87.6742 243.874 82.876 248.673 76.9569 248.673C71.0379 248.673 66.2383 243.874 66.2383 237.955C66.2383 232.036 71.0365 227.237 76.9569 227.237C82.876 227.238 87.6742 232.036 87.6742 237.955Z" fill="#9F91A8"/>
<path d="M86.134 237.955C86.134 243.025 82.0255 247.133 76.9564 247.133C71.8872 247.133 67.7773 243.025 67.7773 237.955C67.7773 232.886 71.8858 228.776 76.9564 228.776C82.0255 228.778 86.134 232.886 86.134 237.955Z" fill="#817789"/>
<path d="M78.2627 232.606C78.2627 233.341 77.5497 233.938 76.6697 233.938C75.7897 233.938 75.0781 233.342 75.0781 232.606C75.0781 231.87 75.7897 231.274 76.6697 231.274C77.5497 231.274 78.2627 231.871 78.2627 232.606Z" fill="#4E4D56"/>
<path d="M78.2627 244.559C78.2627 245.294 77.5497 245.89 76.6697 245.89C75.7897 245.89 75.0781 245.294 75.0781 244.559C75.0781 243.824 75.7897 243.227 76.6697 243.227C77.5497 243.227 78.2627 243.824 78.2627 244.559Z" fill="#4E4D56"/>
<path d="M82.7223 237.069C81.9874 237.069 81.3906 237.782 81.3906 238.66C81.3906 239.54 81.9874 240.253 82.7223 240.253C83.4572 240.253 84.0539 239.54 84.0539 238.66C84.0539 237.782 83.4572 237.069 82.7223 237.069Z" fill="#4E4D56"/>
<path d="M70.7711 237.069C70.0362 237.069 69.4395 237.782 69.4395 238.66C69.4395 239.54 70.0348 240.253 70.7711 240.253C71.5074 240.253 72.1027 239.54 72.1027 238.66C72.1027 237.782 71.506 237.069 70.7711 237.069Z" fill="#4E4D56"/>
<path d="M352.422 258.04C363.511 246.952 363.511 228.973 352.422 217.884C341.333 206.795 323.354 206.795 312.266 217.884C301.177 228.973 301.177 246.952 312.266 258.041C323.354 269.129 341.333 269.129 352.422 258.04Z" fill="#4E4D56"/>
<path d="M351.512 237.956C351.512 248.535 342.934 257.111 332.355 257.111C321.776 257.111 313.199 248.535 313.199 237.956C313.199 227.377 321.776 218.798 332.355 218.798C342.935 218.8 351.512 227.377 351.512 237.956Z" fill="#352E3A"/>
<path d="M350.73 237.956C350.73 248.103 342.503 256.329 332.355 256.329C322.209 256.329 313.982 248.103 313.982 237.956C313.982 227.808 322.209 219.583 332.355 219.583C342.503 219.583 350.73 227.809 350.73 237.956Z" fill="#9F91A8"/>
<path d="M343.071 248.69C348.996 242.766 348.996 233.159 343.071 227.234C337.146 221.309 327.54 221.309 321.615 227.234C315.69 233.159 315.69 242.766 321.615 248.69C327.54 254.615 337.146 254.615 343.071 248.69Z" fill="#9F91A8"/>
<path d="M343.074 237.956C343.074 243.875 338.275 248.673 332.356 248.673C326.437 248.673 321.639 243.875 321.639 237.956C321.639 232.037 326.437 227.237 332.356 227.237C338.275 227.237 343.074 232.037 343.074 237.956Z" fill="#9F91A8"/>
<path d="M341.534 237.956C341.534 243.025 337.425 247.133 332.355 247.133C327.286 247.133 323.178 243.025 323.178 237.956C323.178 232.887 327.286 228.777 332.355 228.777C337.425 228.777 341.534 232.887 341.534 237.956Z" fill="#817789"/>
<path d="M333.659 232.606C333.659 233.341 332.946 233.938 332.068 233.938C331.188 233.938 330.475 233.342 330.475 232.606C330.475 231.87 331.188 231.274 332.068 231.274C332.946 231.274 333.659 231.871 333.659 232.606Z" fill="#4E4D56"/>
<path d="M333.659 244.559C333.659 245.294 332.946 245.891 332.068 245.891C331.188 245.891 330.475 245.294 330.475 244.559C330.475 243.824 331.188 243.228 332.068 243.228C332.946 243.228 333.659 243.824 333.659 244.559Z" fill="#4E4D56"/>
<path d="M338.123 237.069C337.388 237.069 336.791 237.782 336.791 238.66C336.791 239.54 337.388 240.253 338.123 240.253C338.857 240.253 339.454 239.54 339.454 238.66C339.454 237.782 338.857 237.069 338.123 237.069Z" fill="#4E4D56"/>
<path d="M326.169 237.069C325.435 237.069 324.838 237.782 324.838 238.66C324.838 239.54 325.433 240.253 326.169 240.253C326.904 240.253 327.501 239.54 327.501 238.66C327.5 237.782 326.904 237.069 326.169 237.069Z" fill="#4E4D56"/>
<path d="M271.659 175.83L262.566 176.498L265.817 150.153C274.32 150.153 281.213 157.047 281.213 165.55C281.213 170.95 277.044 175.436 271.659 175.83Z" fill="#B435D3"/>
<path opacity="0.28" d="M195.924 183.434H178.662C176.973 183.434 175.604 182.064 175.604 180.377H198.981C198.981 182.064 197.613 183.434 195.924 183.434Z" fill="#550768"/>
<path opacity="0.28" d="M86.2585 183.434H68.9968C67.308 183.434 65.9395 182.064 65.9395 180.377H89.3187C89.3173 182.064 87.9487 183.434 86.2585 183.434Z" fill="#550768"/>
</svg>
