<svg width="376" height="367" viewBox="0 0 376 367" fill="none" xmlns="http://www.w3.org/2000/svg">
<path d="M188.288 303.552L0.527344 195.059V51.9902L188.288 160.48V303.552Z" fill="#412D34"/>
<path d="M183.596 164.097V295.206L5.57227 192.338V61.228L183.596 164.097Z" fill="#513A43"/>
<path d="M183.596 260.42V269.597L5.57227 166.728V157.551L183.596 260.42Z" fill="white"/>
<path d="M91.8887 186.648L95.7041 198.034L183.597 248.819V239.642L91.8887 186.648Z" fill="white"/>
<path d="M276.874 109.276V170.167L188.287 220.446V160.48L276.874 109.276Z" fill="#513A43"/>
<path d="M272.75 117.985V168.038L193.549 210.412V163.761L272.75 117.985Z" fill="#634753"/>
<path d="M276.875 109.276L89.0125 0.691895L0.527344 51.9904L188.288 160.48L276.875 109.276Z" fill="#634753"/>
<path d="M266.998 108.487L188.284 153.984L10.3359 51.2506L89.371 5.58447L266.998 108.487Z" fill="#846173"/>
<path d="M5.57227 145.833V132.33L72.0663 170.79L63.8806 144.142L183.596 213.338V227.419L81.1692 168.219L87.9247 193.455L5.57227 145.833Z" fill="white"/>
<path d="M241.757 242.11L188.287 211.688L276.712 160.533L329.786 191.227L241.757 242.11Z" fill="#FF6E6E"/>
<path d="M188.287 211.688V303.552L280.399 356.776V311.548L241.757 242.11L188.287 211.688Z" fill="#DB3531"/>
<path d="M368.201 260.793V305.715L280.398 356.357V311.548L368.201 260.793Z" fill="#F23D3D"/>
<path d="M241.758 242.11L280.4 311.548L368.202 260.793L329.786 191.227L241.758 242.11Z" fill="#FF5050"/>
<path d="M252.709 249.555L279.968 298.536C281.501 301.287 284.984 302.254 287.713 300.683L356.188 261.325C359.196 259.596 360.264 255.776 358.585 252.737L330.861 202.533C329.653 200.348 326.89 199.574 324.724 200.82L255.132 240.82C252.071 242.582 250.992 246.474 252.709 249.555Z" fill="#513A43"/>
<path d="M375.806 302.552L283.26 355.75L283.52 366.637L375.806 313.292V302.552Z" fill="#513A43"/>
<path d="M283.52 355.897V366.637L266.469 356.788V346.048L283.52 355.897Z" fill="#412D34"/>
<path d="M270.673 343.609L283.516 351.042L371.601 300.132L375.805 302.552L283.52 355.897L266.469 346.048L270.673 343.609Z" fill="#634753"/>
<path d="M346.025 296.203V300.193L303.828 324.644V320.608L346.025 296.203Z" fill="#513A43"/>
<path d="M346.025 303.552V307.546L303.828 331.997V327.961L346.025 303.552Z" fill="#513A43"/>
<path d="M346.025 288.724V292.714L303.828 317.165V313.133L346.025 288.724Z" fill="#513A43"/>
<path d="M346.025 281.246V285.236L303.828 309.691V305.655L346.025 281.246Z" fill="#513A43"/>
<path d="M350.227 291.038L368.202 280.661V294.156L350.227 304.534V291.038Z" fill="white"/>
<path d="M300.049 319.981V333.548L280.398 344.911L280.391 331.415L300.049 319.981Z" fill="white"/>
<path d="M300.049 307.671V316.512L280.398 327.871L280.391 319.102L300.049 307.671Z" fill="#FDDB6F"/>
<path d="M368.202 267.875V276.716L348.551 288.079L348.543 279.309L368.202 267.875Z" fill="#FDDB6F"/>
<path d="M367.492 288.196C367.492 290.891 365.854 294.021 363.835 295.187C361.816 296.354 360.178 295.115 360.178 292.42C360.178 289.725 361.816 286.595 363.835 285.429C365.854 284.262 367.492 285.5 367.492 288.196Z" fill="#FDDB6F"/>
<path d="M289.253 332.684C289.253 335.379 287.616 338.509 285.596 339.675C283.577 340.842 281.939 339.604 281.939 336.908C281.939 334.213 283.577 331.083 285.596 329.917C287.616 328.751 289.253 329.989 289.253 332.684Z" fill="#FDDB6F"/>
<path d="M298.091 327.365C298.091 330.06 296.453 333.19 294.434 334.356C292.415 335.523 290.777 334.285 290.777 331.589C290.777 328.894 292.415 325.764 294.434 324.598C296.453 323.435 298.091 324.673 298.091 327.365Z" fill="#FDDB6F"/>
<path d="M359.08 292.858C359.08 295.553 357.442 298.683 355.423 299.849C353.404 301.015 351.766 299.777 351.766 297.082C351.766 294.387 353.404 291.257 355.423 290.091C357.442 288.928 359.08 290.166 359.08 292.858Z" fill="#FDDB6F"/>
<path d="M218.239 302.231C227.64 306.014 235.852 319.581 237.595 332.08C239.977 333.42 245.344 336.421 246.71 337.308C245.728 342.14 243.407 345.232 240.196 346.644L227.534 353.767L218.941 334.711L218.922 334.673C216.374 330.74 214.329 326.251 213.042 321.631L205.15 304.13C208.445 301.031 213.061 300.147 218.239 302.231Z" fill="#332329"/>
<path d="M198.062 318.611C198.062 331.778 206.067 347.078 215.944 352.782C225.816 358.482 233.821 352.431 233.821 339.264C233.821 326.093 225.816 310.797 215.944 305.093C206.067 299.389 198.062 305.44 198.062 318.611Z" fill="#412D34"/>
<path d="M204.35 322.661C204.35 331.2 209.539 341.117 215.94 344.813C222.34 348.509 227.53 344.586 227.53 336.047C227.53 327.508 222.34 317.591 215.94 313.896C209.539 310.2 204.35 314.126 204.35 322.661Z" fill="#969696"/>
<path d="M207.625 324.553C207.625 330.68 211.35 337.796 215.943 340.449C220.536 343.103 224.261 340.287 224.261 334.16C224.261 328.033 220.536 320.918 215.943 318.268C211.346 315.614 207.625 318.43 207.625 324.553Z" fill="white"/>
<path d="M211.92 327.037C211.92 330 213.72 333.439 215.939 334.723C218.158 336.006 219.959 334.643 219.959 331.684C219.959 328.724 218.158 325.281 215.939 323.998C213.72 322.711 211.92 324.073 211.92 327.037Z" fill="#383838"/>
<path d="M215.17 320.612C215.17 321.178 215.513 321.839 215.94 322.084C216.366 322.329 216.71 322.069 216.71 321.503C216.71 320.936 216.363 320.276 215.94 320.03C215.517 319.781 215.17 320.046 215.17 320.612Z" fill="#383838"/>
<path d="M209.959 320.612C209.959 321.178 210.306 321.839 210.729 322.084C211.155 322.329 211.499 322.069 211.499 321.503C211.499 320.936 211.155 320.276 210.729 320.03C210.302 319.781 209.959 320.046 209.959 320.612Z" fill="#383838"/>
<path d="M219.963 326.383C219.963 326.95 220.306 327.61 220.733 327.856C221.159 328.101 221.503 327.841 221.503 327.271C221.503 326.704 221.159 326.044 220.733 325.798C220.306 325.553 219.963 325.813 219.963 326.383Z" fill="#383838"/>
<path d="M209.959 331.442C209.959 332.008 210.306 332.669 210.729 332.914C211.155 333.16 211.499 332.899 211.499 332.333C211.499 331.767 211.155 331.106 210.729 330.861C210.302 330.611 209.959 330.872 209.959 331.442Z" fill="#383838"/>
<path d="M219.963 337.21C219.963 337.777 220.306 338.437 220.733 338.683C221.159 338.928 221.503 338.667 221.503 338.101C221.503 337.535 221.159 336.874 220.733 336.629C220.306 336.384 219.963 336.644 219.963 337.21Z" fill="#383838"/>
<path d="M208.713 325.606C208.713 326.172 209.056 326.833 209.483 327.078C209.909 327.324 210.253 327.063 210.253 326.497C210.253 325.931 209.906 325.27 209.483 325.025C209.056 324.776 208.713 325.036 208.713 325.606Z" fill="#383838"/>
<path d="M221.502 332.975C221.502 333.541 221.845 334.201 222.272 334.447C222.698 334.692 223.042 334.432 223.042 333.862C223.042 333.295 222.698 332.635 222.272 332.389C221.849 332.148 221.502 332.408 221.502 332.975Z" fill="#383838"/>
<path d="M215.17 337.21C215.17 337.777 215.513 338.437 215.94 338.683C216.366 338.928 216.71 338.667 216.71 338.101C216.71 337.535 216.363 336.874 215.94 336.629C215.517 336.384 215.17 336.644 215.17 337.21Z" fill="#383838"/>
<path d="M39.0179 198.215C48.419 201.998 56.6312 215.565 58.3748 228.064C60.7562 229.404 66.1228 232.405 67.4889 233.292C66.5077 238.124 64.1867 241.216 60.975 242.628L48.3133 249.751L39.7199 230.695L39.701 230.657C37.1536 226.724 35.1081 222.235 33.8211 217.615L25.9297 200.114C29.2206 197.015 33.8362 196.131 39.0179 198.215Z" fill="#332329"/>
<path d="M18.8379 214.595C18.8379 227.766 26.8425 243.062 36.7191 248.766C46.5919 254.47 54.6003 248.415 54.6003 235.248C54.6003 222.081 46.5956 206.781 36.7191 201.076C26.8425 195.372 18.8379 201.424 18.8379 214.595Z" fill="#412D34"/>
<path d="M25.125 218.645C25.125 227.184 30.3142 237.101 36.715 240.797C43.1157 244.493 48.3049 240.57 48.3049 232.031C48.3049 223.492 43.1157 213.575 36.715 209.88C30.3142 206.184 25.125 210.11 25.125 218.645Z" fill="#969696"/>
<path d="M28.4004 220.536C28.4004 226.663 32.1253 233.779 36.7183 236.429C41.3112 239.083 45.0362 236.267 45.0362 230.14C45.0362 224.013 41.3112 216.897 36.7183 214.247C32.1253 211.597 28.4004 214.413 28.4004 220.536Z" fill="white"/>
<path d="M32.6953 223.021C32.6953 225.984 34.4955 229.423 36.7146 230.703C38.9337 231.986 40.734 230.623 40.734 227.664C40.734 224.701 38.9337 221.261 36.7146 219.978C34.4955 218.698 32.6953 220.057 32.6953 223.021Z" fill="#383838"/>
<path d="M35.9453 216.596C35.9453 217.162 36.2888 217.822 36.7152 218.068C37.1417 218.313 37.4851 218.053 37.4851 217.486C37.4851 216.92 37.1417 216.26 36.7152 216.014C36.2926 215.769 35.9453 216.029 35.9453 216.596Z" fill="#383838"/>
<path d="M30.7344 216.596C30.7344 217.162 31.0778 217.822 31.5043 218.068C31.9308 218.313 32.2742 218.053 32.2742 217.486C32.2742 216.92 31.9308 216.26 31.5043 216.014C31.0778 215.769 30.7344 216.029 30.7344 216.596Z" fill="#383838"/>
<path d="M40.7383 222.367C40.7383 222.934 41.0817 223.594 41.5082 223.84C41.9346 224.085 42.2781 223.824 42.2781 223.258C42.2781 222.692 41.9346 222.031 41.5082 221.786C41.0817 221.537 40.7383 221.797 40.7383 222.367Z" fill="#383838"/>
<path d="M30.7344 227.426C30.7344 227.992 31.0778 228.653 31.5043 228.898C31.9308 229.144 32.2742 228.883 32.2742 228.317C32.2742 227.751 31.9308 227.09 31.5043 226.845C31.0778 226.595 30.7344 226.856 30.7344 227.426Z" fill="#383838"/>
<path d="M40.7383 233.194C40.7383 233.76 41.0817 234.421 41.5082 234.666C41.9346 234.912 42.2781 234.651 42.2781 234.085C42.2781 233.519 41.9346 232.858 41.5082 232.613C41.0817 232.367 40.7383 232.628 40.7383 233.194Z" fill="#383838"/>
<path d="M29.4883 221.59C29.4883 222.156 29.8318 222.817 30.2582 223.062C30.6847 223.308 31.0281 223.047 31.0281 222.477C31.0281 221.911 30.6809 221.25 30.2582 221.005C29.8318 220.76 29.4883 221.02 29.4883 221.59Z" fill="#383838"/>
<path d="M42.2773 228.958C42.2773 229.525 42.6245 230.185 43.0472 230.431C43.4737 230.676 43.8171 230.416 43.8171 229.846C43.8171 229.279 43.4737 228.619 43.0472 228.373C42.6245 228.132 42.2773 228.392 42.2773 228.958Z" fill="#383838"/>
<path d="M35.9453 233.194C35.9453 233.76 36.2888 234.421 36.7152 234.666C37.1417 234.912 37.4851 234.651 37.4851 234.085C37.4851 233.519 37.1417 232.858 36.7152 232.613C36.2926 232.367 35.9453 232.628 35.9453 233.194Z" fill="#383838"/>
<path d="M71.2852 115.252L75.9121 117.925C80.9353 120.828 84.1545 126.007 84.1545 133.515C84.1545 141.024 80.9353 142.685 76.1348 139.91L71.2852 137.109V115.252ZM75.7083 135.675C78.4747 137.275 80.3579 136.551 80.3579 131.322C80.3579 126.09 78.4747 123.395 75.7083 121.798L75.0063 121.39V135.271L75.7083 135.675Z" fill="white"/>
<path d="M87.2305 124.463L97.5108 130.401V134.557L90.9517 130.771V135.161L96.5334 138.381V142.507L90.9517 139.284V144.312L97.7637 148.245V152.402L87.2305 146.32V124.463Z" fill="white"/>
<path d="M100.971 132.394L104.688 134.542V152.243L111.149 155.973V160.133L100.971 154.251V132.394Z" fill="white"/>
<path d="M113.947 139.888L117.665 142.036V163.893L113.947 161.745V139.888Z" fill="white"/>
<path d="M119.377 143.028L123.298 145.293L125.287 156.633C125.763 159.287 126.091 161.692 126.593 164.395L126.695 164.455C127.197 162.33 127.525 160.306 128 158.204L129.94 149.132L133.737 151.326L128.782 170.322L124.332 167.751L119.377 143.028Z" fill="white"/>
<path d="M135.451 152.311L145.732 158.245V162.405L139.172 158.615V163.009L144.754 166.229V170.352L139.172 167.128V172.156L145.984 176.09V180.25L135.455 174.168L135.451 152.311Z" fill="white"/>
<path d="M158.06 187.222L154.916 177.532L152.909 176.369V184.247L149.188 182.099V160.242L155.094 163.655C158.562 165.656 161.43 168.925 161.43 174.115C161.43 177.335 160.249 178.698 158.517 178.736L162.212 189.619L158.06 187.222ZM152.905 172.447L154.792 173.538C156.724 174.655 157.781 174.157 157.781 172.013C157.781 169.868 156.724 168.521 154.792 167.403L152.905 166.312V172.447Z" fill="white"/>
<path d="M167.017 184.618L162.088 167.694L166.035 169.974L167.519 175.86C167.945 177.751 168.379 179.506 168.855 181.454L168.953 181.515C169.406 180.103 169.881 178.868 170.334 177.487L171.795 173.304L175.667 175.539L170.711 186.762V194.538L167.017 192.405V184.618Z" fill="white"/>
<path d="M311.331 234.059C302.56 238.963 277.421 252.908 262.801 261.016L281.992 295.501L345.636 258.427C336.956 242.341 323.034 227.513 311.331 234.059Z" fill="#634753"/>
<path d="M329.054 206.724C327.937 204.704 325.382 203.991 323.382 205.139L259.027 242.13C256.201 243.757 255.201 247.354 256.786 250.205L262.801 261.016C277.422 252.907 302.564 238.963 311.331 234.059C323.038 227.513 336.957 242.341 345.637 258.426L354.691 253.153L329.054 206.724Z" fill="#755464"/>
<path d="M238.678 280.888L253.985 289.68L238.678 258.007V280.888Z" fill="#513A43"/>
<path d="M193.549 254.957L234.904 278.717V255.942L193.549 233.326V254.957Z" fill="#513A43"/>
<path d="M238.678 246.369V258.007L253.985 289.679L264.333 295.625L238.678 246.369Z" fill="#755464"/>
<path d="M193.549 219.506V233.326L234.904 255.942V243.885L193.549 219.506Z" fill="#755464"/>
<path d="M193.549 254.957V219.506L234.904 243.885V246.369L195.628 223.421L195.402 256.021L193.549 254.957Z" fill="#412D34"/>
<path d="M238.678 245.697V249.785L260.254 293.281L264.333 295.625L238.678 245.697Z" fill="#412D34"/>
<path d="M188.287 261.099V265.127L280.399 318.26V314.066L188.287 261.099Z" fill="#C42020"/>
<path d="M234.904 278.706V313.537L238.678 315.704V280.518L234.904 278.706Z" fill="#C42020"/>
</svg>
