<svg width="579" height="171" viewBox="0 0 579 171" fill="none" xmlns="http://www.w3.org/2000/svg">
<path d="M426.324 145.551L354.14 145.645C354.14 145.645 346.464 111.104 371.798 104.625C371.798 104.625 440.327 92.8908 426.324 145.551Z" fill="#181A19"/>
<path d="M418.427 138.79C418.427 155.835 406.642 170.264 389.483 170.626C369.402 171.07 356.246 155.835 356.246 138.79C356.246 121.717 368.066 108.539 387.446 108.317C404.615 108.132 418.427 121.717 418.427 138.79Z" fill="#3C3D3D"/>
<path d="M421.876 139.879C421.876 156.607 408.595 170.157 392.216 170.157C375.842 170.157 362.57 156.607 362.57 139.879C362.57 123.173 375.842 109.62 392.216 109.62C408.597 109.622 421.876 123.173 421.876 139.879Z" fill="#2C2C2C"/>
<path d="M413.854 140.546C413.854 152.65 404.588 162.471 393.169 162.471C381.735 162.471 372.477 152.65 372.477 140.546C372.477 128.437 381.735 118.608 393.169 118.608C404.588 118.608 413.854 128.437 413.854 140.546Z" fill="black"/>
<path d="M368.199 140.463C368.199 126.276 379.209 114.735 392.731 114.735C406.265 114.735 417.262 126.274 417.262 140.463C417.262 154.652 406.267 166.195 392.731 166.195C379.209 166.195 368.199 154.65 368.199 140.463ZM372.818 140.463C372.818 152.064 381.756 161.51 392.731 161.51C403.711 161.51 412.651 152.064 412.651 140.463C412.651 128.859 403.713 119.42 392.731 119.42C381.756 119.42 372.818 128.857 372.818 140.463Z" fill="black"/>
<path d="M400.958 142.65L413.609 136.009L412.705 131.595L399.388 132.968L397.564 132.003L395.746 118.18L393.361 117.511V117.488L393.303 117.507L393.258 117.488V117.511L390.88 118.18L389.049 132.003L387.217 132.968L373.908 131.595L373.004 136.009L385.655 142.65L386.051 144.441L380.038 156.057L384.357 158.538L392.194 149.279H393.258H393.361H394.434L402.263 158.538L406.575 156.057L400.577 144.441L400.958 142.65Z" fill="#A4A2A5"/>
<path d="M405.263 140.465C405.263 147.552 399.821 153.318 393.107 153.318C386.423 153.318 380.988 147.553 380.988 140.465C380.988 133.361 386.423 127.602 393.107 127.602C399.821 127.602 405.263 133.361 405.263 140.465Z" fill="#E0E0E0"/>
<path d="M392.708 117.077C380.566 117.077 370.701 127.532 370.701 140.382C370.701 153.241 380.566 163.691 392.708 163.691C404.827 163.691 414.706 153.243 414.706 140.382C414.708 127.532 404.829 117.077 392.708 117.077ZM392.708 159.724C382.617 159.724 374.459 151.057 374.459 140.382C374.459 129.704 382.617 121.049 392.708 121.049C402.785 121.049 410.956 129.702 410.956 140.382C410.958 151.057 402.785 159.724 392.708 159.724Z" fill="#B2B2B2"/>
<path d="M399.246 140.517C399.246 144.072 396.517 146.957 393.168 146.957C389.811 146.957 387.082 144.074 387.082 140.517C387.082 136.952 389.811 134.069 393.168 134.069C396.517 134.071 399.246 136.952 399.246 140.517Z" fill="#535352"/>
<path d="M396.196 140.58C396.196 142.349 394.831 143.778 393.177 143.778C391.499 143.778 390.148 142.349 390.148 140.58C390.148 138.814 391.499 137.375 393.177 137.375C394.831 137.375 396.196 138.814 396.196 140.58Z" fill="black"/>
<path d="M355.919 145.583L355.992 138.263C356.174 119.921 369.418 105.008 385.522 105.008H394.891C411.169 105.008 424.413 120.097 424.413 138.635V145.551H431.783V138.635C431.783 115.979 415.242 97.5402 394.891 97.5402H385.522C366.2 96.3625 350.104 113.938 348.63 138.194L348.557 145.519L355.919 145.583Z" fill="#3E4C57"/>
<path d="M361.445 145.585L361.518 138.265C361.7 119.922 374.944 105.01 391.048 105.01H400.409C416.702 105.01 429.946 120.099 429.946 138.637V145.553H437.309V138.637C437.309 115.98 420.761 97.542 400.409 97.542H391.048C370.923 97.542 354.368 115.78 354.156 138.196L354.141 145.649L361.445 145.585Z" fill="#112332"/>
<path d="M137.011 145.551L64.8272 145.645C64.8272 145.645 57.1514 111.104 82.4855 104.625C82.4855 104.625 151.015 92.8908 137.011 145.551Z" fill="#181A19"/>
<path d="M129.105 138.791C129.105 155.836 117.322 170.265 100.159 170.627C80.0794 171.071 66.9238 155.836 66.9238 138.791C66.9238 121.718 78.7442 108.54 98.1241 108.318C115.291 108.133 129.105 121.718 129.105 138.791Z" fill="#3C3D3D"/>
<path d="M132.562 139.88C132.562 156.608 119.283 170.158 102.901 170.158C86.5296 170.158 73.2559 156.608 73.2559 139.88C73.2559 123.174 86.5296 109.621 102.901 109.621C119.283 109.623 132.562 123.174 132.562 139.88Z" fill="#2C2C2C"/>
<path d="M124.547 140.547C124.547 152.651 115.274 162.472 103.855 162.472C92.4207 162.472 83.1621 152.651 83.1621 140.547C83.1621 128.438 92.4226 118.609 103.855 118.609C115.274 118.609 124.547 128.438 124.547 140.547Z" fill="black"/>
<path d="M78.877 140.464C78.877 126.277 89.8872 114.736 103.408 114.736C116.943 114.736 127.94 126.275 127.94 140.464C127.94 154.653 116.945 166.196 103.408 166.196C89.8872 166.196 78.877 154.651 78.877 140.464ZM83.496 140.464C83.496 152.065 92.4339 161.511 103.408 161.511C114.389 161.511 123.328 152.065 123.328 140.464C123.328 128.86 114.389 119.421 103.408 119.421C92.4339 119.421 83.496 128.858 83.496 140.464Z" fill="black"/>
<path d="M111.642 142.651L124.295 136.01L123.389 131.596L110.074 132.968L108.249 132.004L106.432 118.181L104.046 117.512V117.489L103.996 117.508L103.945 117.489V117.512L101.565 118.181L99.7331 132.004L97.9027 132.968L84.5934 131.596L83.6895 136.01L96.3406 142.651L96.7344 144.442L90.722 156.058L95.0503 158.539L102.88 149.28H103.945H104.046H105.119L112.949 158.539L117.26 156.058L111.263 144.442L111.642 142.651Z" fill="#A4A2A5"/>
<path d="M115.942 140.466C115.942 147.553 110.506 153.319 103.794 153.319C97.1027 153.319 91.666 147.554 91.666 140.466C91.666 133.362 97.1027 127.603 103.794 127.603C110.506 127.603 115.942 133.362 115.942 140.466Z" fill="#E0E0E0"/>
<path d="M103.382 117.078C91.2413 117.078 81.377 127.533 81.377 140.383C81.377 153.242 91.2413 163.692 103.382 163.692C115.503 163.692 125.382 153.244 125.382 140.383C125.382 127.533 115.503 117.078 103.382 117.078ZM103.382 159.725C93.2986 159.725 85.1352 151.058 85.1352 140.383C85.1352 129.705 93.3005 121.05 103.382 121.05C113.459 121.05 121.631 129.703 121.631 140.383C121.631 151.058 113.459 159.725 103.382 159.725Z" fill="#B2B2B2"/>
<path d="M109.931 140.519C109.931 144.074 107.21 146.959 103.853 146.959C100.496 146.959 97.7676 144.076 97.7676 140.519C97.7676 136.954 100.496 134.071 103.853 134.071C107.21 134.073 109.931 136.954 109.931 140.519Z" fill="#535352"/>
<path d="M106.876 140.582C106.876 142.351 105.511 143.78 103.855 143.78C102.176 143.78 100.826 142.351 100.826 140.582C100.826 138.816 102.176 137.377 103.855 137.377C105.511 137.377 106.876 138.816 106.876 140.582Z" fill="black"/>
<path d="M66.6049 145.584L66.6781 138.264C66.86 119.922 80.1037 105.009 96.2074 105.009H105.577C121.855 105.009 135.106 120.098 135.106 138.636V145.552H142.469V138.636C142.469 115.98 125.928 97.5412 105.579 97.5412H96.2092C76.8875 96.3635 60.7913 113.939 59.3173 138.195L59.2441 145.52L66.6049 145.584Z" fill="#3E4C57"/>
<path d="M72.1288 145.585L72.2019 138.265C72.3838 119.922 85.6276 105.01 101.739 105.01H111.093C127.386 105.01 140.628 120.099 140.628 138.637V145.553H147.991V138.637C147.991 115.98 131.442 97.542 111.093 97.542H101.739C81.6087 97.542 65.0587 115.78 64.8412 138.196L64.8262 145.649L72.1288 145.585Z" fill="#112332"/>
<path d="M283.479 8.98516C283.479 13.5273 286.265 17.2085 289.718 17.2085H325.661C329.111 17.2085 331.908 13.5273 331.908 8.98516C331.908 4.44306 329.113 0.761719 325.661 0.761719H289.718C286.265 0.763594 283.479 4.44493 283.479 8.98516Z" fill="#1795BE"/>
<path d="M304.316 8.98516C304.316 13.5273 305.899 17.2085 307.87 17.2085H328.345C330.314 17.2085 331.905 13.5273 331.905 8.98516C331.905 4.44306 330.314 0.761719 328.345 0.761719H307.87C305.901 0.763594 304.316 4.44493 304.316 8.98516Z" fill="#27ADE4"/>
<path d="M318.01 8.98516C318.01 13.5273 320.804 17.2085 324.255 17.2085H360.198C363.648 17.2085 366.445 13.5273 366.445 8.98516C366.445 4.44306 363.65 0.761719 360.198 0.761719H324.255C320.802 0.763594 318.01 4.44493 318.01 8.98516Z" fill="#D32628"/>
<path d="M338.846 8.98516C338.846 13.5273 340.436 17.2085 342.405 17.2085H362.878C364.842 17.2085 366.44 13.5273 366.44 8.98516C366.44 4.44306 364.842 0.761719 362.878 0.761719H342.405C340.438 0.763594 338.846 4.44493 338.846 8.98516Z" fill="#ED362B"/>
<path d="M408.289 65.9241L382.846 36.7192C370.369 22.3971 353.616 14.3818 336.178 14.3818H246.999C234.689 14.3818 222.636 18.4233 212.179 26.0504L157.535 65.9259L408.289 65.9241Z" fill="#3E4C57"/>
<path d="M39.4777 145.314H465.56C481.861 145.314 495.074 129.8 495.074 110.658V81.6292C495.074 72.9575 489.084 65.9268 481.699 65.9268H157.032L49.0589 71.8511C24.5424 71.8511 17.2754 89.2675 17.2754 118.064V119.251C17.2735 133.644 27.2129 145.314 39.4777 145.314Z" fill="#3E4C57"/>
<path d="M64.6147 145.316H18.7136C8.86235 145.316 0.880859 135.228 0.880859 122.787V122.536C0.880859 121.29 1.676 120.285 2.66244 120.285H64.6166V145.316H64.6147Z" fill="#3E4C57"/>
<path d="M103.069 145.314H529.15C545.45 145.314 558.664 129.8 558.664 110.658V81.6292C558.664 72.9575 552.682 65.9268 545.297 65.9268H220.622L112.656 71.8511C88.1322 71.8511 80.8652 89.2675 80.8652 118.064V119.251C80.8652 133.644 90.8102 145.314 103.069 145.314Z" fill="#112332"/>
<path d="M474.906 141.166H545.041C560.085 141.166 572.286 126.842 572.286 109.174V108.822C572.286 107.051 571.069 105.622 569.565 105.622H474.906V141.166Z" fill="#112332"/>
<path d="M484.996 122.802C484.996 125.093 486.579 126.95 488.527 126.95H574.809C576.757 126.95 578.34 125.093 578.34 122.802C578.34 120.51 576.757 118.653 574.809 118.653H488.527C486.579 118.653 484.996 120.51 484.996 122.802Z" fill="#040305"/>
<path d="M462.803 65.9241L437.36 36.7192C424.883 22.3971 408.131 14.3818 390.684 14.3818H301.513C289.205 14.3818 277.143 18.4233 266.695 26.0504L205.609 68.3488L462.803 65.9241Z" fill="#112332"/>
<path d="M437.388 66.0447L417.097 42.7454C407.144 31.3189 393.777 24.9238 379.863 24.9238H308.72C298.899 24.9238 289.282 28.1496 280.942 34.2351L237.352 66.0447H437.388Z" fill="#143244"/>
<path d="M425.391 66.0447L406.312 42.7454C396.957 31.3189 384.392 24.9238 371.31 24.9238H304.437C295.206 24.9238 286.165 28.1496 278.33 34.2351L237.352 66.0447H425.391Z" fill="#1B3B52"/>
<path d="M130.093 145.316H84.1824C74.333 145.316 66.3496 135.228 66.3496 122.787V122.536C66.3496 121.29 67.1448 120.285 68.1312 120.285H130.093V145.316Z" fill="#112332"/>
<path d="M515.984 145.551L443.8 145.645C443.8 145.645 436.124 111.104 461.456 104.625C461.456 104.625 529.986 92.8908 515.984 145.551Z" fill="#181A19"/>
<path d="M508.085 138.79C508.085 155.835 496.301 170.264 479.139 170.626C459.06 171.07 445.902 155.835 445.902 138.79C445.902 121.717 457.723 108.539 477.103 108.317C494.271 108.132 508.085 121.717 508.085 138.79Z" fill="#3C3D3D"/>
<path d="M511.533 139.879C511.533 156.607 498.253 170.157 481.872 170.157C465.498 170.157 452.227 156.607 452.227 139.879C452.227 123.173 465.498 109.62 481.872 109.62C498.252 109.622 511.533 123.173 511.533 139.879Z" fill="#2C2C2C"/>
<path d="M503.52 140.546C503.52 152.65 494.254 162.471 482.835 162.471C471.401 162.471 462.143 152.65 462.143 140.546C462.143 128.437 471.401 118.608 482.835 118.608C494.254 118.608 503.52 128.437 503.52 140.546Z" fill="black"/>
<path d="M457.855 140.463C457.855 126.276 468.866 114.735 482.387 114.735C495.921 114.735 506.918 126.274 506.918 140.463C506.918 154.652 495.921 166.195 482.387 166.195C468.866 166.195 457.855 154.65 457.855 140.463ZM462.474 140.463C462.474 152.064 471.412 161.51 482.387 161.51C493.369 161.51 502.307 152.064 502.307 140.463C502.307 128.859 493.369 119.42 482.387 119.42C471.412 119.42 462.474 128.857 462.474 140.463Z" fill="black"/>
<path d="M490.614 142.65L503.267 136.009L502.361 131.595L489.045 132.968L487.222 132.003L485.404 118.18L483.019 117.511V117.488L482.961 117.507L482.916 117.488V117.511L480.538 118.18L478.706 132.003L476.873 132.968L463.566 131.595L462.66 136.009L475.313 142.65L475.707 144.441L469.695 156.057L474.015 158.538L481.851 149.279H482.916H483.019H484.092L491.919 158.538L496.233 156.057L490.233 144.441L490.614 142.65Z" fill="#A4A2A5"/>
<path d="M494.921 140.465C494.921 147.552 489.479 153.318 482.765 153.318C476.081 153.318 470.645 147.553 470.645 140.465C470.645 133.361 476.081 127.602 482.765 127.602C489.477 127.602 494.921 133.361 494.921 140.465Z" fill="#E0E0E0"/>
<path d="M482.367 117.077C470.224 117.077 460.359 127.532 460.359 140.382C460.359 153.241 470.224 163.691 482.367 163.691C494.485 163.691 504.365 153.243 504.365 140.382C504.365 127.532 494.485 117.077 482.367 117.077ZM482.367 159.724C472.275 159.724 464.118 151.057 464.118 140.382C464.118 129.704 472.275 121.049 482.367 121.049C492.443 121.049 500.614 129.702 500.614 140.382C500.614 151.057 492.443 159.724 482.367 159.724Z" fill="#B2B2B2"/>
<path d="M488.91 140.517C488.91 144.072 486.181 146.957 482.832 146.957C479.475 146.957 476.746 144.074 476.746 140.517C476.746 136.952 479.475 134.069 482.832 134.069C486.181 134.071 488.91 136.952 488.91 140.517Z" fill="#535352"/>
<path d="M485.853 140.58C485.853 142.349 484.487 143.778 482.833 143.778C481.155 143.778 479.805 142.349 479.805 140.58C479.805 138.814 481.155 137.375 482.833 137.375C484.487 137.375 485.853 138.814 485.853 140.58Z" fill="black"/>
<path d="M445.585 145.583L445.658 138.263C445.84 119.921 459.084 105.008 475.188 105.008H484.557C500.835 105.008 514.079 120.097 514.079 138.635V145.551H521.449V138.635C521.449 115.979 504.906 97.5402 484.557 97.5402H475.188C455.866 96.3625 439.77 113.938 438.296 138.194L438.223 145.519L445.585 145.583Z" fill="#3E4C57"/>
<path d="M451.107 145.585L451.18 138.265C451.362 119.922 464.606 105.01 480.71 105.01H490.071C506.365 105.01 519.608 120.099 519.608 138.637V145.553H526.969V138.637C526.969 115.98 510.421 97.542 490.071 97.542H480.71C460.585 97.542 444.03 115.78 443.818 138.196L443.803 145.649L451.107 145.585Z" fill="#112332"/>
<path d="M331.368 24.9258H328.742V66.611H331.368V24.9258Z" fill="#112332"/>
<path d="M225.146 22.1348H265.226L202.512 66.5L162.912 67.2726L225.146 22.1348Z" fill="#1B3B52"/>
<path d="M232.127 22.1348H265.225L205.97 66.5L168.553 67.2726L232.127 22.1348Z" fill="#22597A"/>
<path d="M42.837 86.54H14.8398V99.7799H42.837V86.54Z" fill="#CDC8C5"/>
<path d="M38.7506 86.54H14.8398V99.7799H38.7506V86.54Z" fill="#DCD7D2"/>
<path d="M83.9288 86.541H55.9316V99.7809H83.9288V86.541Z" fill="#CDC8C5"/>
<path d="M79.8424 86.541H55.9316V99.7809H79.8424V86.541Z" fill="#DCD7D2"/>
<path d="M558.662 85.3086H471.826C465.817 85.3086 460.932 80.4194 460.932 74.4127V65.9248H464.667V74.4127C464.667 78.3603 467.878 81.5709 471.826 81.5709H558.662V85.3086Z" fill="#0E1C26"/>
<path d="M130.011 145.315H126.275V102.128C126.275 93.2591 133.218 86.0652 142.079 85.7558L196.014 83.8429C201.745 83.6422 206.237 78.9914 206.237 73.2547V66.6104H209.972V73.2547C209.972 81.0111 203.898 87.3031 196.145 87.5787L142.208 89.4916C135.369 89.7279 130.009 95.2807 130.009 102.128L130.011 145.315Z" fill="#0E1C26"/>
<path d="M227.184 66.0439V145.313H392.669C392.669 145.313 386.386 109.104 412.851 91.3988C418.177 87.8393 434.048 79.1996 429.502 66.0439H227.184Z" fill="#C6BFBC"/>
<path d="M227.184 66.0439V145.313H389.728C389.728 145.313 383.554 109.104 409.552 91.3988C414.785 87.8393 430.371 79.1996 425.904 66.0439H227.184Z" fill="#DCD7D2"/>
<path d="M226.674 145.551L154.489 145.645C154.489 145.645 146.814 111.104 172.146 104.625C172.146 104.625 240.675 92.8908 226.674 145.551Z" fill="#181A19"/>
<path d="M218.775 138.791C218.775 155.836 206.992 170.265 189.829 170.627C169.749 171.071 156.594 155.836 156.594 138.791C156.594 121.718 168.414 108.54 187.794 108.318C204.963 108.133 218.775 121.718 218.775 138.791Z" fill="#3C3D3D"/>
<path d="M222.224 139.88C222.224 156.608 208.945 170.158 192.564 170.158C176.192 170.158 162.918 156.608 162.918 139.88C162.918 123.174 176.192 109.621 192.564 109.621C208.945 109.623 222.224 123.174 222.224 139.88Z" fill="#2C2C2C"/>
<path d="M214.21 140.546C214.21 152.65 204.936 162.471 193.517 162.471C182.083 162.471 172.824 152.65 172.824 140.546C172.824 128.437 182.085 118.608 193.517 118.608C204.936 118.608 214.21 128.437 214.21 140.546Z" fill="black"/>
<path d="M168.539 140.464C168.539 126.277 179.549 114.736 193.071 114.736C206.605 114.736 217.602 126.275 217.602 140.464C217.602 154.653 206.607 166.196 193.071 166.196C179.551 166.196 168.539 154.651 168.539 140.464ZM173.158 140.464C173.158 152.065 182.096 161.511 193.071 161.511C204.051 161.511 212.991 152.065 212.991 140.464C212.991 128.86 204.053 119.421 193.071 119.421C182.096 119.421 173.158 128.858 173.158 140.464Z" fill="black"/>
<path d="M201.306 142.651L213.957 136.01L213.053 131.596L199.736 132.968L197.913 132.004L196.096 118.181L193.709 117.512V117.489L193.658 117.508L193.607 117.489V117.512L191.229 118.181L189.397 132.004L187.565 132.968L174.257 131.596L173.352 136.01L186.005 142.651L186.398 144.442L180.386 156.058L184.712 158.539L192.542 149.28H193.607H193.709H194.783L202.611 158.539L206.924 156.058L200.925 144.442L201.306 142.651Z" fill="#A4A2A5"/>
<path d="M205.612 140.466C205.612 147.553 200.176 153.319 193.462 153.319C186.773 153.319 181.336 147.554 181.336 140.466C181.336 133.362 186.773 127.603 193.462 127.603C200.176 127.603 205.612 133.362 205.612 140.466Z" fill="#E0E0E0"/>
<path d="M193.044 117.078C180.903 117.078 171.039 127.533 171.039 140.383C171.039 153.242 180.903 163.692 193.044 163.692C205.165 163.692 215.042 153.244 215.042 140.383C215.044 127.533 205.165 117.078 193.044 117.078ZM193.044 159.725C182.961 159.725 174.797 151.058 174.797 140.383C174.797 129.705 182.963 121.05 193.044 121.05C203.121 121.05 211.294 129.703 211.294 140.383C211.294 151.058 203.121 159.725 193.044 159.725Z" fill="#B2B2B2"/>
<path d="M199.595 140.519C199.595 144.074 196.874 146.959 193.517 146.959C190.162 146.959 187.432 144.076 187.432 140.519C187.432 136.954 190.16 134.071 193.517 134.071C196.874 134.073 199.595 136.954 199.595 140.519Z" fill="#535352"/>
<path d="M196.538 140.581C196.538 142.35 195.173 143.779 193.517 143.779C191.84 143.779 190.488 142.35 190.488 140.581C190.488 138.815 191.839 137.376 193.517 137.376C195.175 137.376 196.538 138.815 196.538 140.581Z" fill="black"/>
<path d="M156.267 145.584L156.34 138.264C156.522 119.922 169.766 105.009 185.87 105.009H195.239C211.517 105.009 224.768 120.098 224.768 138.636V145.552H232.131V138.636C232.131 115.98 215.59 97.5412 195.241 97.5412H185.871C166.552 96.3635 150.455 113.939 148.981 138.195L148.908 145.52L156.267 145.584Z" fill="#3E4C57"/>
<path d="M161.791 145.585L161.864 138.265C162.046 119.922 175.29 105.01 191.401 105.01H200.755C217.048 105.01 230.29 120.099 230.29 138.637V145.553H237.653V138.637C237.653 115.98 221.105 97.542 200.755 97.542H191.401C171.271 97.542 154.721 115.78 154.503 138.196L154.488 145.649L161.791 145.585Z" fill="#112332"/>
<path d="M265.393 89.4526C267.026 89.175 269.333 88.9668 272.573 88.9668C275.85 88.9668 278.184 89.5896 279.76 90.846C281.249 92.0275 282.263 93.9834 282.263 96.2807C282.263 98.5855 281.496 100.536 280.103 101.86C278.293 103.566 275.61 104.332 272.472 104.332C271.778 104.332 271.144 104.298 270.662 104.23V112.628H265.394V89.4526H265.393ZM270.66 100.12C271.112 100.217 271.668 100.256 272.433 100.256C275.257 100.256 277.007 98.8257 277.007 96.4233C277.007 94.2592 275.503 92.9707 272.855 92.9707C271.774 92.9707 271.037 93.0775 270.659 93.1788L270.66 100.12Z" fill="#2D3E4D"/>
<path d="M307.159 100.641C307.159 108.347 302.49 113.016 295.624 113.016C288.648 113.016 284.576 107.752 284.576 101.061C284.576 94.0171 289.064 88.7549 296.01 88.7549C303.219 88.7549 307.159 94.154 307.159 100.641ZM290.187 100.956C290.187 105.556 292.346 108.801 295.9 108.801C299.497 108.801 301.546 105.382 301.546 100.817C301.546 96.5995 299.525 92.9726 295.862 92.9726C292.275 92.9726 290.187 96.3915 290.187 100.956Z" fill="#2D3E4D"/>
<path d="M310.652 89.1377H315.978V108.171H325.325V112.628H310.652V89.1377Z" fill="#2D3E4D"/>
<path d="M333.802 89.1377V112.628H328.469V89.1377H333.802Z" fill="#2D3E4D"/>
<path d="M355.661 111.97C354.684 112.459 352.488 112.981 349.627 112.981C341.512 112.981 337.324 107.927 337.324 101.232C337.324 93.2165 343.044 88.7549 350.152 88.7549C352.91 88.7549 355.003 89.3101 355.937 89.8034L354.857 94.0172C353.777 93.5652 352.273 93.1489 350.399 93.1489C346.174 93.1489 342.905 95.6938 342.905 100.92C342.905 105.628 345.692 108.589 350.435 108.589C352.034 108.589 353.814 108.246 354.857 107.824L355.661 111.97Z" fill="#2D3E4D"/>
<path d="M373.137 102.695H364.482V108.274H374.134V112.628H359.148V89.1377H373.652V93.4978H364.48V98.3755H373.135V102.695H373.137Z" fill="#2D3E4D"/>
<path d="M70.3565 111.297C70.3565 116.259 66.3357 120.284 61.3735 120.284H15.553C10.5908 120.284 6.56445 116.259 6.56445 111.297C6.56445 106.333 10.5908 102.309 15.553 102.309H61.3754C66.3376 102.309 70.3565 106.333 70.3565 111.297Z" fill="#112332"/>
<path d="M64.1622 111.297C64.1622 116.259 60.5278 120.284 56.0475 120.284H14.6772C10.197 120.284 6.56445 116.259 6.56445 111.297C6.56445 106.333 10.1989 102.309 14.6772 102.309H56.0494C60.5296 102.309 64.1622 106.333 64.1622 111.297Z" fill="#1A384C"/>
<path d="M55.1366 107.045H14.582V116.163H55.1366V107.045Z" fill="#3E4C57"/>
<g opacity="0.12">
<path d="M251.551 65.8983L304.436 24.9258H328.74L276.088 65.8983H251.551Z" fill="white"/>
</g>
<g opacity="0.12">
<path d="M296.82 65.9865L349.705 24.9258H374.017L321.357 65.9865H296.82Z" fill="white"/>
</g>
<g opacity="0.12">
<path d="M347.752 65.8985L396.566 28.0801C396.566 28.0801 401.848 30.4599 403.512 31.4295C405.329 32.4909 410.408 36.2342 410.408 36.2342L372.289 65.8985H347.752Z" fill="white"/>
</g>
</svg>
