<svg width="785" height="238" viewBox="0 0 785 238" fill="none" xmlns="http://www.w3.org/2000/svg">
<path d="M783.964 4.90879L777.559 20.5807H752.578C747.64 20.5807 743.183 23.4775 741.165 27.9845L729.026 55.2492L716.98 82.2633L714.238 88.4228L702.147 115.575L699.07 122.506C698.319 124.181 698.411 126.106 699.338 127.669C700.247 129.231 701.852 130.298 703.667 130.478L731.411 133.285L727.101 143.816L525.564 137.204L566.843 128.485C580.612 125.563 593.567 119.654 604.771 111.161L617.203 101.741L634.778 88.4257L642.914 82.2661L678.582 55.252L743.727 5.9082C748.465 2.33297 754.239 0.38208 760.17 0.38208H780.937C782.024 0.38208 783.046 0.925401 783.657 1.83188C784.254 2.75806 784.372 3.88971 783.964 4.90879Z" fill="#EBEBEB"/>
<path d="M733.286 153.396C708.58 171.219 634.505 214.066 481.581 225.346H203.991C203.991 225.346 144.023 226.838 88.4997 218.164C39.6541 210.53 0 196.037 0 174.752C0.0450423 172.939 2.35627 170.788 5.41352 168.612C9.73758 165.535 15.579 162.363 18.8643 160.032C25.2744 155.48 29.6913 149.272 40.7633 145.311C83.5197 130.073 146.652 124.091 165.314 124.184C517.998 118.342 670.759 134.327 721.87 141.846C725.339 142.367 728.354 142.82 730.904 143.248C733.148 143.634 734.941 145.309 735.459 147.527C735.977 149.748 735.116 152.059 733.286 153.396Z" fill="#CFCFCF"/>
<path d="M721.933 141.846C689.235 162.115 615.771 196.265 481.641 206.157H204.054C204.054 206.157 144.089 207.652 88.5655 199.001C50.4513 193.047 17.9308 182.904 5.47656 168.612C7.35426 167.278 9.53037 165.918 11.6586 164.603C14.4006 162.925 17.0721 161.346 18.9301 160.031C22.2351 157.698 24.9968 154.913 28.42 152.217C31.6349 149.703 35.4607 147.234 40.8291 145.311C83.5855 130.073 145.704 123.387 164.36 122.925C516.712 114.187 670.737 133.513 721.933 141.846Z" fill="#E2E2E2"/>
<path d="M103.218 183.488C92.087 183.552 83.7063 180.295 80.3028 177.334C76.8993 174.369 73.9688 172.472 73.9688 167.962H206.821C173.487 177.5 144.885 183.626 103.218 183.488Z" fill="#F42F54"/>
<path d="M600.955 157.113C600.955 161.231 597.974 164.567 594.303 164.567H76.5701C72.8964 164.567 69.918 161.228 69.918 157.113C69.918 153 72.8964 149.664 76.5701 149.664H594.303C597.974 149.664 600.955 153 600.955 157.113Z" fill="#4BB6D6"/>
<path d="M776.624 22.8442L732.308 131.112L703.887 128.215C702.8 128.102 701.826 127.489 701.283 126.54C700.737 125.589 700.666 124.432 701.125 123.438L743.248 28.894C744.875 25.223 748.543 22.8471 752.575 22.8471H776.624V22.8442Z" fill="#CFCFCF"/>
<path d="M746.742 155.719C747.693 155.887 748.386 156.712 748.386 157.675C748.386 158.641 747.693 159.468 746.742 159.634C733.48 161.982 708.349 165.608 679.533 165.608C652.42 165.608 628.57 162.399 614.799 160.062C613.633 159.865 612.78 158.855 612.783 157.675C612.783 156.493 613.636 155.485 614.799 155.285C628.573 152.951 652.42 149.745 679.533 149.745C708.349 149.751 733.48 153.371 746.742 155.719Z" fill="#EBEBEB"/>
<path d="M746.737 155.722C745.836 155.561 744.87 155.398 743.862 155.226C730.037 157.551 706.396 160.696 679.542 160.696C652.691 160.696 629.058 157.551 615.233 155.226C615.103 155.249 614.963 155.274 614.836 155.291C613.67 155.488 612.82 156.499 612.82 157.678C612.82 158.86 613.67 159.868 614.836 160.068C628.602 162.399 652.441 165.605 679.539 165.605C708.349 165.605 733.469 161.988 746.731 159.64C747.68 159.471 748.375 158.644 748.375 157.681C748.381 156.718 747.685 155.888 746.737 155.722Z" fill="#CFCFCF"/>
<path d="M777.556 20.5811L776.624 22.8444H752.574C748.543 22.8444 744.878 25.2204 743.248 28.8914L731.489 55.2495L719.465 82.2637L716.721 88.4232L704.675 115.44L701.122 123.435C700.663 124.432 700.731 125.586 701.28 126.537C701.82 127.489 702.797 128.1 703.884 128.215L732.305 131.112L731.404 133.285L703.661 130.479C701.845 130.298 700.241 129.232 699.332 127.669C698.405 126.107 698.315 124.181 699.064 122.506L702.141 115.575L714.232 88.4232L716.974 82.2637L729.02 55.2495L741.159 27.9849C743.177 23.4779 747.634 20.5811 752.572 20.5811H777.556Z" fill="#A7A7A7"/>
<path d="M34.045 152.287C30.7513 157.943 26.7312 162.236 24.1582 164.671H33.0597C35.0387 162.185 38.127 157.824 40.5311 152.287H34.045Z" fill="#656464"/>
<path d="M32.7428 152.287H28.948C25.5304 154.978 22.7659 157.765 19.4582 160.096C17.6002 161.411 14.9314 162.996 12.1895 164.671H22.4929C24.7985 162.596 29.1535 158.261 32.7428 152.287Z" fill="#656464"/>
<path d="M53.9955 154.258C53.9955 153.171 53.1143 152.29 52.0249 152.29H48.4806C47.4672 157.256 45.8119 161.543 44.4043 164.592C49.7531 164.176 53.9955 159.733 53.9955 154.258Z" fill="#656464"/>
<path d="M41.7704 152.287C39.5042 157.65 36.5737 161.971 34.4961 164.671H43.1189C44.5236 161.712 46.2606 157.366 47.3191 152.287H41.7704Z" fill="#656464"/>
<path d="M126.425 179.667H117.931C113.562 179.667 110.004 176.109 110.004 171.74V154.19C110.004 149.821 113.559 146.269 117.931 146.269H126.425C130.794 146.269 134.352 149.824 134.352 154.19V171.74C134.352 176.109 130.794 179.667 126.425 179.667ZM117.934 147.397C114.187 147.397 111.141 150.443 111.141 154.188V171.737C111.141 175.487 114.187 178.53 117.934 178.53H126.427C130.174 178.53 133.22 175.487 133.22 171.737V154.188C133.22 150.443 130.172 147.397 126.427 147.397H117.934Z" fill="#7C7C7C"/>
<path d="M225.853 179.667H217.363C212.991 179.667 209.436 176.109 209.436 171.74V154.19C209.436 149.821 212.991 146.269 217.363 146.269H225.853C230.223 146.269 233.781 149.824 233.781 154.19V171.74C233.778 176.109 230.22 179.667 225.853 179.667ZM217.36 147.397C213.613 147.397 210.567 150.443 210.567 154.188V171.737C210.567 175.487 213.613 178.53 217.36 178.53H225.851C229.598 178.53 232.644 175.487 232.644 171.737V154.188C232.644 150.443 229.598 147.397 225.851 147.397H217.36Z" fill="#7C7C7C"/>
<path d="M580.589 179.667H572.093C567.724 179.667 564.168 176.109 564.168 171.74V154.19C564.168 149.821 567.724 146.269 572.093 146.269H580.589C584.958 146.269 588.511 149.824 588.511 154.19V171.74C588.513 176.109 584.958 179.667 580.589 179.667ZM572.095 147.397C568.351 147.397 565.305 150.443 565.305 154.188V171.737C565.305 175.487 568.351 178.53 572.095 178.53H580.592C584.333 178.53 587.384 175.487 587.384 171.737V154.188C587.384 150.443 584.333 147.397 580.592 147.397H572.095Z" fill="#7C7C7C"/>
<path d="M122.22 161.546H122.147C120.134 161.546 118.504 159.916 118.504 157.904V155.944C118.504 153.931 120.134 152.302 122.147 152.302H122.22C124.233 152.302 125.863 153.931 125.863 155.944V157.904C125.863 159.916 124.233 161.546 122.22 161.546Z" fill="#656464"/>
<path d="M122.221 152.302H122.148C120.744 152.302 119.536 153.104 118.928 154.272C119.595 153.532 120.552 153.053 121.627 153.053H121.703C123.713 153.053 125.343 154.686 125.343 156.699V158.658C125.343 159.261 125.183 159.821 124.921 160.327C125.501 159.683 125.864 158.838 125.864 157.904V155.944C125.864 153.931 124.234 152.302 122.221 152.302Z" fill="#CFCFCF"/>
<g opacity="0.7">
<path d="M122.892 153.695H121.602C120.262 153.695 119.176 154.781 119.176 156.119V159.176C119.95 156.893 120.896 154.196 122.892 153.695Z" fill="white"/>
</g>
<path d="M143.45 161.546H143.377C141.364 161.546 139.734 159.916 139.734 157.904V155.944C139.734 153.931 141.364 152.302 143.377 152.302H143.45C145.463 152.302 147.093 153.931 147.093 155.944V157.904C147.093 159.916 145.463 161.546 143.45 161.546Z" fill="#656464"/>
<path d="M143.452 152.302H143.379C141.971 152.302 140.766 153.104 140.158 154.272C140.825 153.532 141.783 153.053 142.861 153.053H142.934C144.947 153.053 146.577 154.686 146.577 156.699V158.658C146.577 159.261 146.416 159.821 146.154 160.327C146.734 159.683 147.095 158.838 147.095 157.904V155.944C147.095 153.931 145.465 152.302 143.452 152.302Z" fill="#CFCFCF"/>
<path opacity="0.7" d="M144.12 153.695H142.831C141.491 153.695 140.404 154.781 140.404 156.118V159.176C141.176 156.893 142.122 154.196 144.12 153.695Z" fill="white"/>
<path d="M157.956 161.546H157.883C155.87 161.546 154.24 159.916 154.24 157.903V155.944C154.24 153.931 155.87 152.301 157.883 152.301H157.956C159.969 152.301 161.596 153.931 161.596 155.944V157.903C161.596 159.916 159.969 161.546 157.956 161.546Z" fill="#656464"/>
<path d="M157.958 152.301H157.885C156.48 152.301 155.272 153.104 154.664 154.272C155.331 153.531 156.288 153.053 157.367 153.053H157.44C159.453 153.053 161.083 154.686 161.083 156.699V158.658C161.083 159.26 160.919 159.821 160.658 160.327C161.237 159.683 161.598 158.838 161.598 157.903V155.944C161.598 153.931 159.971 152.301 157.958 152.301Z" fill="#CFCFCF"/>
<path opacity="0.7" d="M158.626 153.695H157.337C155.997 153.695 154.91 154.781 154.91 156.116V159.176C155.682 156.893 156.63 154.19 158.626 153.695Z" fill="white"/>
<path d="M172.464 161.546H172.391C170.378 161.546 168.748 159.916 168.748 157.903V155.944C168.748 153.931 170.381 152.301 172.391 152.301H172.464C174.477 152.301 176.107 153.931 176.107 155.944V157.903C176.107 159.916 174.477 161.546 172.464 161.546Z" fill="#656464"/>
<path d="M172.466 152.301H172.392C170.985 152.301 169.777 153.104 169.172 154.272C169.839 153.531 170.796 153.053 171.872 153.053H171.948C173.958 153.053 175.588 154.686 175.588 156.699V158.658C175.588 159.26 175.427 159.821 175.165 160.327C175.745 159.683 176.106 158.838 176.106 157.903V155.944C176.108 153.931 174.478 152.301 172.466 152.301Z" fill="#CFCFCF"/>
<path opacity="0.7" d="M173.133 153.695H171.844C170.504 153.695 169.42 154.781 169.42 156.116V159.176C170.191 156.893 171.14 154.19 173.133 153.695Z" fill="white"/>
<path d="M186.973 161.546H186.9C184.887 161.546 183.254 159.916 183.254 157.904V155.944C183.254 153.931 184.887 152.302 186.9 152.302H186.973C188.983 152.302 190.615 153.931 190.615 155.944V157.904C190.615 159.916 188.983 161.546 186.973 161.546Z" fill="#656464"/>
<path d="M186.971 152.302H186.898C185.491 152.302 184.283 153.104 183.678 154.272C184.345 153.532 185.302 153.053 186.377 153.053H186.451C188.463 153.053 190.096 154.686 190.096 156.699V158.658C190.096 159.261 189.933 159.821 189.674 160.327C190.254 159.683 190.617 158.838 190.617 157.904V155.944C190.614 153.931 188.981 152.302 186.971 152.302Z" fill="#CFCFCF"/>
<path opacity="0.7" d="M187.64 153.695H186.348C185.008 153.695 183.924 154.781 183.924 156.116V159.176C184.695 156.893 185.641 154.19 187.64 153.695Z" fill="white"/>
<path d="M201.479 161.546H201.405C199.393 161.546 197.76 159.916 197.76 157.903V155.944C197.76 153.931 199.393 152.301 201.405 152.301H201.479C203.491 152.301 205.121 153.931 205.121 155.944V157.903C205.121 159.916 203.491 161.546 201.479 161.546Z" fill="#656464"/>
<path d="M201.48 152.301H201.407C199.997 152.301 198.792 153.104 198.184 154.272C198.854 153.531 199.811 153.053 200.889 153.053H200.962C202.972 153.053 204.605 154.686 204.605 156.699V158.658C204.605 159.26 204.442 159.821 204.183 160.327C204.76 159.683 205.123 158.838 205.123 157.903V155.944C205.123 153.931 203.493 152.301 201.48 152.301Z" fill="#CFCFCF"/>
<path opacity="0.7" d="M202.149 153.695H200.859C199.519 153.695 198.436 154.781 198.436 156.118V159.176C199.207 156.893 200.153 154.196 202.149 153.695Z" fill="white"/>
<path d="M221.648 161.546H221.574C219.564 161.546 217.932 159.916 217.932 157.904V155.944C217.932 153.931 219.564 152.302 221.574 152.302H221.648C223.66 152.302 225.29 153.931 225.29 155.944V157.904C225.288 159.916 223.658 161.546 221.648 161.546Z" fill="#656464"/>
<path d="M221.649 152.302H221.576C220.171 152.302 218.961 153.104 218.355 154.272C219.023 153.532 219.98 153.053 221.058 153.053H221.131C223.144 153.053 224.774 154.686 224.774 156.699V158.658C224.774 159.261 224.611 159.821 224.352 160.327C224.932 159.683 225.292 158.838 225.292 157.904V155.944C225.289 153.931 223.659 152.302 221.649 152.302Z" fill="#CFCFCF"/>
<g opacity="0.7">
<path d="M222.317 153.695H221.027C219.687 153.695 218.604 154.781 218.604 156.118V159.176C219.372 156.893 220.321 154.196 222.317 153.695Z" fill="white"/>
</g>
<path d="M576.375 161.546H576.302C574.289 161.546 572.656 159.916 572.656 157.904V155.944C572.656 153.931 574.289 152.302 576.302 152.302H576.375C578.388 152.302 580.021 153.931 580.021 155.944V157.904C580.021 159.916 578.388 161.546 576.375 161.546Z" fill="#656464"/>
<path d="M576.375 152.302H576.302C574.894 152.302 573.689 153.104 573.084 154.272C573.748 153.532 574.706 153.053 575.787 153.053H575.857C577.87 153.053 579.503 154.686 579.503 156.699V158.658C579.503 159.261 579.342 159.821 579.083 160.327C579.657 159.683 580.023 158.838 580.023 157.904V155.944C580.021 153.931 578.388 152.302 576.375 152.302Z" fill="#CFCFCF"/>
<g opacity="0.7">
<path d="M577.048 153.695H575.762C574.422 153.695 573.338 154.781 573.338 156.118V159.173C574.109 156.887 575.052 154.196 577.048 153.695Z" fill="white"/>
</g>
<path d="M243.398 161.546H243.324C241.312 161.546 239.682 159.916 239.682 157.903V155.944C239.682 153.931 241.312 152.301 243.324 152.301H243.398C245.408 152.301 247.043 153.931 247.043 155.944V157.903C247.043 159.916 245.41 161.546 243.398 161.546Z" fill="#656464"/>
<path d="M243.401 152.301H243.328C241.92 152.301 240.715 153.104 240.107 154.272C240.775 153.531 241.732 153.053 242.813 153.053H242.883C244.896 153.053 246.526 154.686 246.526 156.699V158.658C246.526 159.26 246.363 159.821 246.101 160.327C246.681 159.683 247.047 158.838 247.047 157.903V155.944C247.047 153.931 245.414 152.301 243.401 152.301Z" fill="#CFCFCF"/>
<g opacity="0.7">
<path d="M244.073 153.695H242.783C241.443 153.695 240.359 154.781 240.359 156.118V159.176C241.128 156.893 242.074 154.196 244.073 153.695Z" fill="white"/>
</g>
<path d="M258.132 161.546H258.059C256.046 161.546 254.416 159.916 254.416 157.903V155.944C254.416 153.931 256.046 152.301 258.059 152.301H258.132C260.145 152.301 261.775 153.931 261.775 155.944V157.903C261.775 159.916 260.145 161.546 258.132 161.546Z" fill="#656464"/>
<path d="M258.134 152.301H258.06C256.653 152.301 255.445 153.104 254.84 154.272C255.507 153.531 256.464 153.053 257.542 153.053H257.616C259.626 153.053 261.258 154.686 261.258 156.699V158.658C261.258 159.26 261.098 159.821 260.836 160.327C261.416 159.683 261.776 158.838 261.776 157.903V155.944C261.776 153.931 260.146 152.301 258.134 152.301Z" fill="#CFCFCF"/>
<g opacity="0.7">
<path d="M258.803 153.695H257.514C256.174 153.695 255.09 154.781 255.09 156.116V159.176C255.858 156.893 256.807 154.19 258.803 153.695Z" fill="white"/>
</g>
<path d="M272.863 161.546H272.79C270.777 161.546 269.145 159.916 269.145 157.903V155.944C269.145 153.931 270.777 152.301 272.79 152.301H272.863C274.873 152.301 276.506 153.931 276.506 155.944V157.903C276.509 159.916 274.876 161.546 272.863 161.546Z" fill="#656464"/>
<path d="M272.865 152.301H272.792C271.384 152.301 270.176 153.104 269.568 154.272C270.236 153.531 271.193 153.053 272.271 153.053H272.344C274.354 153.053 275.987 154.686 275.987 156.699V158.658C275.987 159.26 275.824 159.821 275.565 160.327C276.145 159.683 276.508 158.838 276.508 157.903V155.944C276.511 153.931 274.878 152.301 272.865 152.301Z" fill="#CFCFCF"/>
<g opacity="0.7">
<path d="M273.532 153.695H272.242C270.902 153.695 269.818 154.781 269.818 156.116V159.176C270.587 156.893 271.533 154.19 273.532 153.695Z" fill="white"/>
</g>
<path d="M287.593 161.546H287.52C285.51 161.546 283.877 159.916 283.877 157.903V155.944C283.877 153.931 285.507 152.301 287.52 152.301H287.593C289.606 152.301 291.239 153.931 291.239 155.944V157.903C291.239 159.916 289.606 161.546 287.593 161.546Z" fill="#656464"/>
<path d="M287.594 152.301H287.521C286.114 152.301 284.909 153.104 284.301 154.272C284.968 153.531 285.925 153.053 287.003 153.053H287.077C289.089 153.053 290.719 154.686 290.719 156.699V158.658C290.719 159.26 290.556 159.821 290.297 160.327C290.877 159.683 291.24 158.838 291.24 157.903V155.944C291.24 153.931 289.607 152.301 287.594 152.301Z" fill="#CFCFCF"/>
<g opacity="0.7">
<path d="M288.265 153.695H286.975C285.638 153.695 284.549 154.781 284.549 156.116V159.176C285.323 156.893 286.272 154.19 288.265 153.695Z" fill="white"/>
</g>
<path d="M302.323 161.546H302.25C300.24 161.546 298.607 159.916 298.607 157.903V155.944C298.607 153.931 300.237 152.301 302.25 152.301H302.323C304.336 152.301 305.969 153.931 305.969 155.944V157.903C305.969 159.916 304.336 161.546 302.323 161.546Z" fill="#656464"/>
<path d="M302.322 152.301H302.249C300.841 152.301 299.633 153.104 299.025 154.272C299.693 153.531 300.653 153.053 301.728 153.053H301.798C303.811 153.053 305.441 154.686 305.441 156.699V158.658C305.441 159.26 305.281 159.821 305.022 160.327C305.602 159.683 305.965 158.838 305.965 157.903V155.944C305.968 153.931 304.335 152.301 302.322 152.301Z" fill="#CFCFCF"/>
<g opacity="0.7">
<path d="M302.995 153.695H301.703C300.366 153.695 299.279 154.781 299.279 156.116V159.176C300.051 156.893 300.999 154.19 302.995 153.695Z" fill="white"/>
</g>
<path d="M317.059 161.546H316.989C314.976 161.546 313.346 159.916 313.346 157.903V155.944C313.346 153.931 314.979 152.301 316.989 152.301H317.059C319.072 152.301 320.704 153.931 320.704 155.944V157.903C320.704 159.916 319.072 161.546 317.059 161.546Z" fill="#656464"/>
<path d="M317.06 152.301H316.99C315.585 152.301 314.375 153.104 313.77 154.272C314.437 153.531 315.394 153.053 316.469 153.053H316.542C318.555 153.053 320.185 154.686 320.185 156.699V158.658C320.185 159.26 320.025 159.821 319.763 160.327C320.343 159.683 320.706 158.838 320.706 157.903V155.944C320.706 153.931 319.073 152.301 317.06 152.301Z" fill="#CFCFCF"/>
<g opacity="0.7">
<path d="M317.729 153.695H316.439C315.099 153.695 314.016 154.781 314.016 156.116V159.176C314.781 156.893 315.733 154.19 317.729 153.695Z" fill="white"/>
</g>
<path d="M331.79 161.546H331.717C329.704 161.546 328.074 159.916 328.074 157.904V155.944C328.074 153.931 329.707 152.302 331.717 152.302H331.79C333.803 152.302 335.433 153.931 335.433 155.944V157.904C335.433 159.916 333.803 161.546 331.79 161.546Z" fill="#656464"/>
<path d="M331.79 152.302H331.717C330.309 152.302 329.101 153.104 328.496 154.272C329.163 153.532 330.12 153.053 331.196 153.053H331.269C333.282 153.053 334.912 154.686 334.912 156.699V158.658C334.912 159.261 334.751 159.821 334.49 160.327C335.069 159.683 335.43 158.838 335.43 157.904V155.944C335.433 153.931 333.803 152.302 331.79 152.302Z" fill="#CFCFCF"/>
<g opacity="0.7">
<path d="M332.463 153.695H331.174C329.834 153.695 328.75 154.781 328.75 156.116V159.176C329.519 156.893 330.467 154.19 332.463 153.695Z" fill="white"/>
</g>
<path d="M346.519 161.546H346.446C344.433 161.546 342.803 159.916 342.803 157.903V155.944C342.803 153.931 344.435 152.301 346.446 152.301H346.519C348.532 152.301 350.164 153.931 350.164 155.944V157.903C350.164 159.916 348.532 161.546 346.519 161.546Z" fill="#656464"/>
<path d="M346.517 152.301H346.444C345.036 152.301 343.829 153.104 343.221 154.272C343.888 153.531 344.845 153.053 345.923 153.053H345.996C348.006 153.053 349.639 154.686 349.639 156.699V158.658C349.639 159.26 349.476 159.821 349.217 160.327C349.794 159.683 350.16 158.838 350.16 157.903V155.944C350.163 153.931 348.53 152.301 346.517 152.301Z" fill="#CFCFCF"/>
<g opacity="0.7">
<path d="M347.194 153.695H345.907C344.567 153.695 343.48 154.781 343.48 156.116V159.176C344.249 156.893 345.195 154.19 347.194 153.695Z" fill="white"/>
</g>
<path d="M361.257 161.546H361.184C359.174 161.546 357.541 159.916 357.541 157.903V155.944C357.541 153.931 359.174 152.301 361.184 152.301H361.257C363.267 152.301 364.9 153.931 364.9 155.944V157.903C364.9 159.916 363.267 161.546 361.257 161.546Z" fill="#656464"/>
<path d="M361.257 152.301H361.183C359.776 152.301 358.568 153.104 357.963 154.272C358.63 153.531 359.59 153.053 360.665 153.053H360.739C362.751 153.053 364.381 154.686 364.381 156.699V158.658C364.381 159.26 364.221 159.821 363.962 160.327C364.539 159.683 364.902 158.838 364.902 157.903V155.944C364.899 153.931 363.267 152.301 361.257 152.301Z" fill="#CFCFCF"/>
<g opacity="0.7">
<path d="M361.927 153.695H360.638C359.298 153.695 358.211 154.781 358.211 156.116V159.176C358.982 156.893 359.931 154.19 361.927 153.695Z" fill="white"/>
</g>
<path d="M375.986 161.546H375.915C373.902 161.546 372.27 159.916 372.27 157.904V155.944C372.27 153.931 373.902 152.302 375.915 152.302H375.986C377.998 152.302 379.631 153.931 379.631 155.944V157.904C379.631 159.916 377.998 161.546 375.986 161.546Z" fill="#656464"/>
<path d="M375.987 152.302H375.917C374.509 152.302 373.304 153.104 372.693 154.272C373.361 153.532 374.318 153.053 375.396 153.053H375.469C377.482 153.053 379.112 154.686 379.112 156.699V158.658C379.112 159.261 378.951 159.821 378.692 160.327C379.272 159.683 379.633 158.838 379.633 157.904V155.944C379.633 153.931 378 152.302 375.987 152.302Z" fill="#CFCFCF"/>
<g opacity="0.7">
<path d="M376.66 153.695H375.371C374.031 153.695 372.947 154.781 372.947 156.116V159.176C373.713 156.893 374.662 154.19 376.66 153.695Z" fill="white"/>
</g>
<path d="M390.716 161.546H390.643C388.63 161.546 387 159.916 387 157.903V155.944C387 153.931 388.63 152.301 390.643 152.301H390.716C392.729 152.301 394.359 153.931 394.359 155.944V157.903C394.359 159.916 392.729 161.546 390.716 161.546Z" fill="#656464"/>
<path d="M390.718 152.301H390.644C389.237 152.301 388.032 153.104 387.424 154.272C388.091 153.531 389.048 153.053 390.126 153.053H390.2C392.212 153.053 393.842 154.686 393.842 156.699V158.658C393.842 159.26 393.682 159.821 393.42 160.327C394 159.683 394.36 158.838 394.36 157.903V155.944C394.36 153.931 392.73 152.301 390.718 152.301Z" fill="#CFCFCF"/>
<g opacity="0.7">
<path d="M391.388 153.695H390.099C388.756 153.695 387.672 154.781 387.672 156.116V159.176C388.443 156.893 389.392 154.19 391.388 153.695Z" fill="white"/>
</g>
<path d="M405.445 161.546H405.371C403.361 161.546 401.729 159.916 401.729 157.903V155.944C401.729 153.931 403.361 152.301 405.371 152.301H405.445C407.457 152.301 409.09 153.931 409.09 155.944V157.903C409.09 159.916 407.457 161.546 405.445 161.546Z" fill="#656464"/>
<path d="M405.448 152.301H405.375C403.967 152.301 402.76 153.104 402.154 154.272C402.821 153.531 403.781 153.053 404.854 153.053H404.927C406.94 153.053 408.57 154.686 408.57 156.699V158.658C408.57 159.26 408.41 159.821 408.151 160.327C408.728 159.683 409.091 158.838 409.091 157.903V155.944C409.094 153.931 407.461 152.301 405.448 152.301Z" fill="#CFCFCF"/>
<g opacity="0.7">
<path d="M406.116 153.695H404.827C403.487 153.695 402.4 154.781 402.4 156.116V159.176C403.172 156.893 404.12 154.19 406.116 153.695Z" fill="white"/>
</g>
<path d="M420.183 161.546H420.112C418.1 161.546 416.467 159.916 416.467 157.903V155.944C416.467 153.931 418.1 152.301 420.112 152.301H420.183C422.196 152.301 423.826 153.931 423.826 155.944V157.903C423.828 159.916 422.196 161.546 420.183 161.546Z" fill="#656464"/>
<path d="M420.182 152.301H420.111C418.704 152.301 417.496 153.104 416.891 154.272C417.555 153.531 418.515 153.053 419.593 153.053H419.666C421.679 153.053 423.309 154.686 423.309 156.699V158.658C423.309 159.26 423.149 159.821 422.89 160.327C423.467 159.683 423.83 158.838 423.83 157.903V155.944C423.827 153.931 422.194 152.301 420.182 152.301Z" fill="#CFCFCF"/>
<g opacity="0.7">
<path d="M420.853 153.695H419.563C418.223 153.695 417.137 154.781 417.137 156.116V159.176C417.908 156.893 418.857 154.19 420.853 153.695Z" fill="white"/>
</g>
<path d="M434.914 161.546H434.838C432.828 161.546 431.195 159.916 431.195 157.904V155.944C431.195 153.931 432.828 152.302 434.838 152.302H434.914C436.924 152.302 438.557 153.931 438.557 155.944V157.904C438.557 159.916 436.924 161.546 434.914 161.546Z" fill="#656464"/>
<path d="M434.914 152.302H434.838C433.433 152.302 432.225 153.104 431.617 154.272C432.284 153.532 433.242 153.053 434.317 153.053H434.393C436.406 153.053 438.036 154.686 438.036 156.699V158.658C438.036 159.261 437.875 159.821 437.613 160.327C438.193 159.683 438.554 158.838 438.554 157.904V155.944C438.557 153.931 436.924 152.302 434.914 152.302Z" fill="#CFCFCF"/>
<g opacity="0.7">
<path d="M435.583 153.695H434.294C432.954 153.695 431.867 154.781 431.867 156.116V159.176C432.639 156.893 433.587 154.19 435.583 153.695Z" fill="white"/>
</g>
<path d="M449.643 161.546H449.569C447.557 161.546 445.924 159.916 445.924 157.903V155.944C445.924 153.931 447.557 152.301 449.569 152.301H449.643C451.655 152.301 453.285 153.931 453.285 155.944V157.903C453.285 159.916 451.655 161.546 449.643 161.546Z" fill="#656464"/>
<path d="M449.644 152.301H449.571C448.163 152.301 446.956 153.104 446.348 154.272C447.015 153.531 447.975 153.053 449.05 153.053H449.123C451.136 153.053 452.766 154.686 452.766 156.699V158.658C452.766 159.26 452.603 159.821 452.344 160.327C452.924 159.683 453.287 158.838 453.287 157.903V155.944C453.287 153.931 451.657 152.301 449.644 152.301Z" fill="#CFCFCF"/>
<g opacity="0.7">
<path d="M450.312 153.695H449.022C447.682 153.695 446.596 154.781 446.596 156.116V159.176C447.37 156.893 448.316 154.19 450.312 153.695Z" fill="white"/>
</g>
<path d="M464.378 161.546H464.305C462.295 161.546 460.662 159.916 460.662 157.903V155.944C460.662 153.931 462.295 152.301 464.305 152.301H464.378C466.391 152.301 468.021 153.931 468.021 155.944V157.903C468.021 159.916 466.388 161.546 464.378 161.546Z" fill="#656464"/>
<path d="M464.378 152.301H464.305C462.897 152.301 461.689 153.104 461.084 154.272C461.748 153.531 462.708 153.053 463.784 153.053H463.857C465.87 153.053 467.5 154.686 467.5 156.699V158.658C467.5 159.26 467.339 159.821 467.077 160.327C467.657 159.683 468.02 158.838 468.02 157.903V155.944C468.02 153.931 466.388 152.301 464.378 152.301Z" fill="#CFCFCF"/>
<g opacity="0.7">
<path d="M465.045 153.695H463.756C462.419 153.695 461.332 154.781 461.332 156.116V159.176C462.101 156.893 463.049 154.19 465.045 153.695Z" fill="white"/>
</g>
<path d="M479.107 161.546H479.033C477.023 161.546 475.391 159.916 475.391 157.904V155.944C475.391 153.931 477.023 152.302 479.033 152.302H479.107C481.119 152.302 482.749 153.931 482.749 155.944V157.904C482.747 159.916 481.117 161.546 479.107 161.546Z" fill="#656464"/>
<path d="M479.108 152.302H479.035C477.63 152.302 476.423 153.104 475.814 154.272C476.479 153.532 477.439 153.053 478.514 153.053H478.587C480.6 153.053 482.23 154.686 482.23 156.699V158.658C482.23 159.261 482.07 159.821 481.808 160.327C482.388 159.683 482.748 158.838 482.748 157.904V155.944C482.748 153.931 481.118 152.302 479.108 152.302Z" fill="#CFCFCF"/>
<g opacity="0.7">
<path d="M479.774 153.695H478.484C477.147 153.695 476.061 154.781 476.061 156.116V159.176C476.829 156.893 477.778 154.19 479.774 153.695Z" fill="white"/>
</g>
<path d="M493.84 161.546H493.767C491.754 161.546 490.121 159.916 490.121 157.903V155.944C490.121 153.931 491.754 152.301 493.767 152.301H493.84C495.853 152.301 497.483 153.931 497.483 155.944V157.903C497.483 159.916 495.853 161.546 493.84 161.546Z" fill="#656464"/>
<path d="M493.839 152.301H493.765C492.361 152.301 491.15 153.104 490.545 154.272C491.209 153.531 492.169 153.053 493.247 153.053H493.321C495.334 153.053 496.963 154.686 496.963 156.699V158.658C496.963 159.26 496.8 159.821 496.538 160.327C497.118 159.683 497.481 158.838 497.481 157.903V155.944C497.481 153.931 495.852 152.301 493.839 152.301Z" fill="#CFCFCF"/>
<g opacity="0.7">
<path d="M494.509 153.695H493.22C491.88 153.695 490.793 154.781 490.793 156.116V159.176C491.567 156.893 492.513 154.19 494.509 153.695Z" fill="white"/>
</g>
<path d="M552.762 161.546H552.686C550.673 161.546 549.049 159.916 549.049 157.903V155.944C549.049 153.931 550.676 152.301 552.686 152.301H552.762C554.775 152.301 556.405 153.931 556.405 155.944V157.903C556.405 159.916 554.775 161.546 552.762 161.546Z" fill="#656464"/>
<path d="M552.765 152.301H552.689C551.285 152.301 550.077 153.104 549.475 154.272C550.139 153.531 551.102 153.053 552.177 153.053H552.247C554.26 153.053 555.89 154.686 555.89 156.699V158.658C555.89 159.26 555.733 159.821 555.471 160.327C556.045 159.683 556.411 158.838 556.411 157.903V155.944C556.408 153.931 554.778 152.301 552.765 152.301Z" fill="#CFCFCF"/>
<g opacity="0.7">
<path d="M553.434 153.695H552.145C550.805 153.695 549.721 154.781 549.721 156.118V159.176C550.486 156.893 551.435 154.196 553.434 153.695Z" fill="white"/>
</g>
<path d="M543.731 165.605H496.932C385.796 177.525 247.75 186.708 213.861 206.461C300.072 215.836 386.131 216.21 472.018 206.461L543.731 165.605Z" fill="#BBBBBB"/>
<path d="M543.731 132.674L524.481 133.242L496.932 165.605H543.731V132.674Z" fill="#CFCFCF"/>
<path d="M373.011 206.701V228.535C372.445 228.668 371.902 228.78 371.31 228.921C370.089 229.191 368.822 229.461 367.53 229.709C342.982 234.737 307.226 238 280.73 238C263.496 238 252.717 236.617 246.017 234.261C243.841 233.512 242.118 232.676 240.716 231.728C239.742 231.089 238.951 230.413 238.27 229.689V205.544C238.948 204.823 239.739 204.145 240.716 203.509C242.121 202.557 243.841 201.721 246.017 200.975C252.717 198.616 263.496 197.239 280.73 197.239C307.226 197.239 342.982 200.499 367.53 205.527C368.822 205.772 370.089 206.048 371.31 206.315C371.902 206.459 372.445 206.566 373.011 206.701Z" fill="#EBEBEB"/>
<path d="M373.011 224.093V228.536C372.445 228.668 371.902 228.78 371.31 228.921C370.089 229.191 368.822 229.462 367.53 229.709C342.982 234.737 307.226 238 280.73 238C263.496 238 252.717 236.618 246.017 234.262C243.841 233.513 242.118 232.677 240.716 231.728C239.742 231.089 238.951 230.413 238.27 229.69V224.093C278.709 227.663 324.196 227.207 373.011 224.093Z" fill="#BBBBBB"/>
<path d="M246.018 200.975V234.261C243.842 233.512 242.119 232.676 240.717 231.727V203.511C242.119 202.56 243.842 201.723 246.018 200.975Z" fill="#4BB6D6"/>
<path d="M371.31 206.318V228.921C370.088 229.191 368.821 229.462 367.529 229.709V205.527C368.819 205.772 370.088 206.048 371.31 206.318Z" fill="#4BB6D6"/>
<path d="M473.362 195.347V217.176C472.796 217.317 472.25 217.426 471.665 217.564C470.44 217.837 469.173 218.108 467.884 218.353C443.333 223.38 407.581 226.643 381.082 226.643C363.85 226.643 353.071 225.261 346.366 222.905C344.192 222.159 342.472 221.323 341.067 220.371C340.093 219.74 339.302 219.056 338.621 218.333V194.19C339.3 193.469 340.093 192.791 341.067 192.155C342.472 191.203 344.192 190.364 346.366 189.621C353.068 187.265 363.848 185.88 381.082 185.88C407.581 185.88 443.333 189.145 467.884 194.171C469.176 194.418 470.443 194.694 471.665 194.962C472.25 195.099 472.794 195.212 473.362 195.347Z" fill="#EBEBEB"/>
<path d="M473.362 212.742V217.176C472.796 217.317 472.25 217.426 471.665 217.564C470.44 217.837 469.173 218.108 467.884 218.353C443.333 223.38 407.581 226.643 381.082 226.643C363.85 226.643 353.071 225.261 346.366 222.905C344.192 222.159 342.472 221.322 341.067 220.371C340.093 219.74 339.302 219.056 338.621 218.333V212.742C379.061 216.306 424.548 215.85 473.362 212.742Z" fill="#BBBBBB"/>
<path d="M346.365 189.621V222.905C344.191 222.159 342.471 221.323 341.066 220.371V192.158C342.468 191.206 344.191 190.367 346.365 189.621Z" fill="#4BB6D6"/>
<path d="M471.66 194.962V217.562C470.435 217.835 469.168 218.105 467.879 218.35V194.168C469.171 194.419 470.438 194.694 471.66 194.962Z" fill="#4BB6D6"/>
<path d="M714.234 88.4255L702.143 115.578C689.76 116.259 676.782 116.597 663.013 116.552C642.837 116.687 627.66 110.778 621.481 105.409C619.989 104.097 618.536 102.895 617.199 101.741L634.774 88.4255H714.234Z" fill="#F42F54"/>
<path d="M729.023 55.252L716.977 82.266H642.908L678.576 55.252H729.023Z" fill="#4BB6D6"/>
<g opacity="0.7">
<path opacity="0.7" d="M46.7246 146.074C98.2417 132.249 144.334 123.944 198.436 125.315L46.7246 146.074Z" fill="white"/>
</g>
<g opacity="0.7">
<path opacity="0.7" d="M320.704 201.259C271.662 196.716 245.768 200.387 239.688 211.084L320.704 201.259Z" fill="white"/>
</g>
<g opacity="0.7">
<path d="M422.086 190.213C373.046 185.672 347.153 189.34 341.066 200.04L422.086 190.213Z" fill="white"/>
</g>
<g opacity="0.7">
<path d="M743.071 13.3403L596.92 124.175H626.822L743.071 13.3403Z" fill="white"/>
</g>
<g opacity="0.7">
<path d="M29.0043 152.822C22.6984 158.717 19.2189 161.307 14.6133 164.051C19.8889 161.991 24.6971 159.198 31.1269 152.822H29.0043Z" fill="white"/>
</g>
<g opacity="0.7">
<path d="M34.5231 152.822C31.2435 157.917 30.1343 159.612 25.4668 164.051C30.2779 160.935 31.6939 159.471 37.6845 152.822H34.5231Z" fill="white"/>
</g>
<g opacity="0.7">
<path d="M42.1931 152.822C40.535 156.546 39.0542 159.612 35.6113 164.051C39.8087 160.085 40.9066 158.624 45.2813 152.822H42.1931Z" fill="white"/>
</g>
<g opacity="0.7">
<path d="M49.0696 152.822C48.0083 156.726 47.3186 160.279 45.0918 164.051C48.622 159.519 50.2182 156.541 52.155 152.822H49.0696Z" fill="white"/>
</g>
</svg>
