<svg width="362" height="179" viewBox="0 0 362 179" fill="none" xmlns="http://www.w3.org/2000/svg">
<path d="M357.092 134.494H355.615C355.615 134.494 354.563 135.199 355.708 136.205H356.973L357.092 134.494Z" fill="#727271"/>
<path d="M359.43 131.397C359.566 131.397 359.708 131.411 359.837 131.418V139.257C359.708 139.286 359.566 139.29 359.43 139.29C357.676 139.29 356.738 137.794 356.246 136.111V134.584C356.246 132.816 357.676 131.397 359.43 131.397Z" fill="black"/>
<path d="M359.838 131.418C359.838 131.418 361.672 131.997 361.672 135.342C361.672 139.035 359.838 139.257 359.838 139.257V131.418Z" fill="#ED3A0F"/>
<path d="M360.174 131.997C360.174 131.997 361.46 133.283 361.321 136.326C361.321 136.326 361.109 134.494 360.174 133.884V131.997Z" fill="#FFD4A8"/>
<path d="M112.806 112.68C113.139 118.53 113.117 122.659 112.988 125.441H114.915C115.035 122.608 115.053 118.444 114.722 112.588C114.28 105.076 109.682 104.089 105.989 103.298C102.501 102.552 99.9755 102 99.8801 97.2024C99.8192 93.3026 101.095 90.2834 103.717 88.2369C110.504 82.9707 124.058 85.5662 124.191 85.5984L124.6 83.8359C123.997 83.7142 110 81.0268 102.499 86.8538C99.4111 89.2572 97.8848 92.756 97.966 97.2454C98.1056 103.451 102.053 104.306 105.556 105.052C109.255 105.847 112.449 106.532 112.806 112.68Z" fill="#020300"/>
<path d="M111.526 83.8657C111.526 83.8657 102.477 84.2142 99.3398 91.6498C99.3398 91.6498 102.638 84.9349 111.526 83.8657Z" fill="#BDBCBC"/>
<path d="M99.3398 101.083C99.3398 101.083 99.4329 103.237 104.186 104.336C108.915 105.442 112.279 106.197 112.852 110.19C112.852 110.19 113.185 106.838 109.354 105.24C105.514 103.635 100.667 104.149 99.3398 101.083Z" fill="#BDBCBC"/>
<path d="M110.872 125.442H112.851C112.919 122.496 112.851 118.638 112.605 113.676C112.135 105.37 107.353 104.279 103.508 103.395C99.8783 102.572 97.2625 101.969 97.1539 96.6552C97.0751 92.333 98.42 88.9953 101.144 86.7339C108.202 80.8997 122.313 83.7744 122.46 83.809L122.862 81.8615C122.256 81.7159 107.691 78.7529 99.8782 85.1933C96.6538 87.8544 95.0631 91.7268 95.1562 96.6911C95.2982 103.567 99.4104 104.516 103.058 105.346C106.903 106.221 110.227 106.98 110.602 113.796C110.872 118.709 110.919 122.539 110.872 125.442Z" fill="#282928"/>
<path d="M109.265 81.8936C109.265 81.8936 99.853 82.2933 96.582 90.5142C96.582 90.5142 100.014 83.0738 109.265 81.8936Z" fill="white"/>
<path d="M96.582 100.963C96.582 100.963 96.7014 103.33 101.626 104.543C106.554 105.773 110.054 106.604 110.66 111.032C110.66 111.032 110.99 107.317 107.003 105.548C103.019 103.779 97.9663 104.336 96.582 100.963Z" fill="white"/>
<path d="M128.804 77.1538H119.914V80.8269V88.9941H131.584L128.804 77.1538Z" fill="#4F504F"/>
<path d="M129.504 77.1538H122.863V80.8269V88.9941H131.584L129.504 77.1538Z" fill="#282928"/>
<path d="M138.41 74.3301H125.193V79.7932V91.9365H142.55L138.41 74.3301Z" fill="#4F504F"/>
<path d="M134.088 91.9365H142.551L138.41 74.3301H134.088V91.9365Z" fill="#282928"/>
<path d="M128.805 76.7764C128.805 77.6106 128.128 78.3027 127.282 78.3027C126.442 78.3027 125.752 77.6106 125.752 76.7764C125.752 75.934 126.442 75.2573 127.282 75.2573C128.128 75.2573 128.805 75.934 128.805 76.7764Z" fill="#282928"/>
<path d="M128.805 83.1306C128.805 83.9707 128.128 84.6629 127.282 84.6629C126.442 84.6629 125.752 83.9707 125.752 83.1306C125.752 82.2929 126.442 81.5972 127.282 81.5972C128.128 81.5972 128.805 82.2929 128.805 83.1306Z" fill="#282928"/>
<path d="M128.805 88.9936C128.805 89.8278 128.128 90.5127 127.282 90.5127C126.442 90.5127 125.752 89.8278 125.752 88.9936C125.752 88.1368 126.442 87.459 127.282 87.459C128.128 87.4602 128.805 88.1368 128.805 88.9936Z" fill="#282928"/>
<path d="M125.213 57.3321L120.363 61.7821L123.565 68.8084L136.027 71.6187V106.182H157.274V96.7348L152.025 91.2442V67.9099L159.852 48.4478L125.213 57.3321Z" fill="#818080"/>
<path d="M154.627 61.4253L159.852 48.4478L125.213 57.331L120.363 61.7808L121.314 63.9002C130.452 71.1115 144.618 70.9874 154.627 61.4253Z" fill="#818080"/>
<path d="M157.275 98.5737H136.027V106.182H157.275V98.5737Z" fill="#818080"/>
<path d="M196.696 125.442L195.296 99.8845C195.296 99.8845 129.821 100.067 127.333 99.8845C124.825 99.6924 124.03 103.494 124.03 103.494L119.936 125.442H196.696Z" fill="#4F504F"/>
<path opacity="0.4" d="M189.149 114.357L188.629 104.985C188.629 104.985 134.871 105.136 132.828 104.985C130.791 104.821 130.127 107.952 130.127 107.952L128.922 114.357H189.149Z" fill="#4F504F"/>
<path opacity="0.4" d="M189.76 125.442L189.285 117.024H150.93V125.442H189.76Z" fill="#4F504F"/>
<path opacity="0.4" d="M148.935 125.442V117.024H128.432L126.859 125.442H148.935Z" fill="#4F504F"/>
<path d="M160.464 43.0469C160.464 56.534 149.523 67.4649 136.028 67.4649C122.543 67.4649 111.602 56.534 111.602 43.0469C111.602 29.5587 122.543 18.6182 136.028 18.6182C149.523 18.617 160.464 29.5575 160.464 43.0469Z" fill="#969595"/>
<path d="M153.758 29.1838C149.982 34.3795 145.348 38.9094 139.956 42.4107C134.204 46.1673 127.553 49.4501 120.824 50.9621C118.303 51.523 115.756 51.8189 113.186 51.7234C116.692 60.9205 125.584 67.4647 136.027 67.4647C149.523 67.4647 160.463 56.5338 160.463 43.0467C160.463 37.1552 158.374 31.7542 154.896 27.5405C154.525 28.0918 154.15 28.6456 153.758 29.1838Z" fill="#969595"/>
<path d="M152.91 42.1174C152.91 52.781 144.265 61.4255 133.61 61.4255C122.938 61.4255 114.291 52.781 114.291 42.1174C114.291 31.4513 122.938 22.814 133.61 22.814C144.266 22.814 152.91 31.4513 152.91 42.1174Z" fill="#969595"/>
<path d="M137.872 67.3967C137.872 68.6091 136.884 69.5924 135.633 69.5924C134.395 69.5924 133.387 68.6091 133.387 67.3967V19.3304C133.387 18.1108 134.395 17.1299 135.633 17.1299C136.884 17.1299 137.872 18.1108 137.872 19.3304V67.3967Z" fill="#626362"/>
<path d="M136.432 20.6566C136.432 21.0981 136.078 21.4549 135.633 21.4549C135.198 21.4549 134.846 21.0981 134.846 20.6566C134.846 20.2258 135.199 19.875 135.633 19.875C136.078 19.8762 136.432 20.2258 136.432 20.6566Z" fill="#969595"/>
<path d="M136.432 29.2232C136.432 29.6647 136.078 30.0287 135.633 30.0287C135.198 30.0287 134.846 29.6647 134.846 29.2232C134.846 28.7948 135.199 28.4355 135.633 28.4355C136.078 28.4344 136.432 28.7948 136.432 29.2232Z" fill="#969595"/>
<path d="M136.432 37.7949C136.432 38.2304 136.078 38.5801 135.633 38.5801C135.198 38.5801 134.846 38.2304 134.846 37.7949C134.846 37.3485 135.199 37.0049 135.633 37.0049C136.078 37.0049 136.432 37.3497 136.432 37.7949Z" fill="#969595"/>
<path d="M136.432 46.3589C136.432 46.8005 136.078 47.1513 135.633 47.1513C135.198 47.1513 134.846 46.8017 134.846 46.3589C134.846 45.921 135.199 45.5713 135.633 45.5713C136.078 45.5713 136.432 45.9222 136.432 46.3589Z" fill="#969595"/>
<path d="M136.572 55.0638C136.572 55.5769 136.151 55.991 135.634 55.991C135.121 55.991 134.709 55.5781 134.709 55.0638C134.709 54.5506 135.12 54.1401 135.634 54.1401C136.151 54.1413 136.572 54.5506 136.572 55.0638Z" fill="#969595"/>
<path d="M136.572 63.9019C136.572 64.4114 136.151 64.8362 135.634 64.8362C135.121 64.8362 134.709 64.4114 134.709 63.9019C134.709 63.3887 135.12 62.9746 135.634 62.9746C136.151 62.9746 136.572 63.3887 136.572 63.9019Z" fill="#969595"/>
<path opacity="0.4" d="M139.6 109.6C139.6 111.119 138.374 112.361 136.85 112.361C135.328 112.361 134.086 111.119 134.086 109.6C134.086 108.08 135.328 106.839 136.85 106.839C138.374 106.839 139.6 108.08 139.6 109.6Z" fill="#4F504F"/>
<path opacity="0.4" d="M146.687 120.213C146.687 120.976 146.084 121.597 145.307 121.597C144.551 121.597 143.928 120.976 143.928 120.213C143.928 119.449 144.551 118.833 145.307 118.833C146.084 118.833 146.687 119.449 146.687 120.213Z" fill="#4F504F"/>
<path d="M155.482 119.5C155.482 119.899 155.153 120.213 154.761 120.213C154.359 120.213 154.051 119.899 154.051 119.5C154.051 119.111 154.357 118.789 154.761 118.789C155.153 118.789 155.482 119.111 155.482 119.5Z" fill="#4F504F"/>
<path d="M160.927 119.592C160.927 119.936 160.646 120.213 160.3 120.213C159.956 120.213 159.672 119.936 159.672 119.592C159.672 119.244 159.956 118.958 160.3 118.958C160.646 118.958 160.927 119.244 160.927 119.592Z" fill="#4F504F"/>
<path d="M166.545 119.5C166.545 119.899 166.235 120.213 165.835 120.213C165.435 120.213 165.135 119.899 165.135 119.5C165.135 119.111 165.434 118.789 165.835 118.789C166.235 118.789 166.545 119.111 166.545 119.5Z" fill="#4F504F"/>
<path d="M172.012 119.592C172.012 119.936 171.738 120.213 171.381 120.213C171.035 120.213 170.768 119.936 170.768 119.592C170.768 119.244 171.035 118.958 171.381 118.958C171.738 118.958 172.012 119.244 172.012 119.592Z" fill="#4F504F"/>
<path opacity="0.4" d="M150.929 97.1893H138.32V71.8143L148.158 68.9873V93.8576L150.929 97.1893Z" fill="#4F504F"/>
<path d="M121.906 121.597L125.055 104.97C125.055 104.97 125.787 100.963 129.995 100.963H163.26L129.995 102.4C129.995 102.4 127.28 102.5 126.311 105.995L121.906 121.597Z" fill="#818080"/>
<path opacity="0.3" d="M161.538 102.924C164.085 111.426 169.232 119.244 175.608 125.442H196.694L195.294 99.8843C195.294 99.8843 177.88 99.9272 160.672 99.9559C160.95 100.949 161.232 101.943 161.538 102.924Z" fill="#4F504F"/>
<path d="M100.741 129.225H87.2539V141.055H100.741V129.225Z" fill="black"/>
<path d="M253.443 155.092H324.498V133.373H253.6L253.443 155.092Z" fill="#121212"/>
<path d="M355.772 125.483H96.2617V144.235H355.772V125.483Z" fill="#292929"/>
<path d="M355.772 125.483H96.2617V132.374H355.772V125.483Z" fill="black"/>
<path d="M210.449 125.484C209.814 128.893 208.973 133.109 208.481 134.821C207.567 137.888 206.862 138.18 203.616 138.18C200.382 138.18 196.279 138.18 196.279 138.18L196.298 144.188C196.298 144.188 203.431 144.188 206.092 144.188C208.784 144.188 211.263 144.236 212.671 140.002C213.605 137.152 215.799 129.93 217.15 125.482L210.449 125.484Z" fill="url(#paint0_linear_562_32702)"/>
<path d="M211.196 125.483C210.54 128.907 209.509 134.075 208.953 135.875C208.083 138.676 207.412 138.943 204.369 138.943C201.302 138.943 197.45 138.943 197.45 138.943L196.977 143.126C196.977 143.126 203.693 143.126 206.22 143.126C208.757 143.126 210.868 143.197 212.205 139.342C213.14 136.617 215.215 129.435 216.363 125.483H211.196Z" fill="#525252"/>
<path d="M150.826 125.484L156.764 147.823L158.543 149.607H194.515L196.509 147.382L198.875 125.484H150.826Z" fill="#818080"/>
<path opacity="0.4" d="M150.826 125.484L152.349 131.218H198.25L198.875 125.484H150.826Z" fill="#818080"/>
<path d="M158.603 129.225C158.603 130.955 157.195 132.338 155.48 132.338C153.757 132.338 152.373 130.954 152.373 129.225C152.373 127.507 153.757 126.115 155.48 126.115C157.195 126.115 158.603 127.506 158.603 129.225Z" fill="black"/>
<path d="M165.058 129.157C165.058 130.882 163.664 132.277 161.935 132.277C160.22 132.277 158.814 130.882 158.814 129.157C158.814 127.437 160.22 126.047 161.935 126.047C163.664 126.047 165.058 127.438 165.058 129.157Z" fill="black"/>
<path d="M164.531 129.128C164.531 130.562 163.365 131.728 161.934 131.728C160.508 131.728 159.334 130.562 159.334 129.128C159.334 127.701 160.508 126.539 161.934 126.539C163.365 126.54 164.531 127.702 164.531 129.128Z" fill="#427724"/>
<path d="M158.07 129.178C158.07 130.634 156.905 131.775 155.481 131.775C154.041 131.775 152.885 130.634 152.885 129.178C152.885 127.755 154.04 126.582 155.481 126.582C156.904 126.583 158.07 127.756 158.07 129.178Z" fill="#BE3324"/>
<path d="M154.299 134.521L157.326 147.324L158.896 149.263H193.402L195.996 147.26L198.266 125.934L195.021 145.968L192.001 148.665H160.024L158.024 146.831L154.299 134.521Z" fill="#4B4B4B"/>
<path d="M160.446 125.484H158.33V153.53H160.446V125.484Z" fill="black"/>
<path d="M219.065 125.484H216.951V153.53H219.065V125.484Z" fill="black"/>
<path d="M226.072 139.092H151.332V143.847H226.072V139.092Z" fill="#E3E3E3"/>
<path d="M226.072 141.475H151.332V143.847H226.072V141.475Z" fill="#8F8F8F"/>
<path d="M152.462 139.092H151.332V143.847H156.764C155.348 142.249 153.935 140.652 152.462 139.092Z" fill="#3D3D3D"/>
<path d="M177.315 139.092H164.775C166.205 140.733 167.681 142.311 169.211 143.847H182.357C180.66 142.284 178.978 140.704 177.315 139.092Z" fill="#3D3D3D"/>
<path d="M221.995 141.397C222.907 142.203 223.818 143.034 224.716 143.847H226.072V139.092H219.445C220.289 139.867 221.153 140.641 221.995 141.397Z" fill="#3D3D3D"/>
<path d="M205.168 139.092H191.926C193.712 140.691 195.503 142.274 197.327 143.847H210.704C208.907 142.203 207.084 140.613 205.168 139.092Z" fill="#3D3D3D"/>
<path d="M226.072 149.977H151.332V154.72H226.072V149.977Z" fill="#E3E3E3"/>
<path d="M226.072 152.345H151.332V154.721H226.072V152.345Z" fill="#8F8F8F"/>
<path d="M152.462 149.977H151.332V154.72H156.764C155.348 153.12 153.935 151.518 152.462 149.977Z" fill="#3D3D3D"/>
<path d="M177.315 149.977H164.775C166.205 151.602 167.681 153.176 169.211 154.72H182.357C180.66 153.158 178.978 151.578 177.315 149.977Z" fill="#3D3D3D"/>
<path d="M221.995 152.262C222.907 153.072 223.818 153.899 224.716 154.72H226.072V149.977H219.445C220.289 150.747 221.153 151.506 221.995 152.262Z" fill="#3D3D3D"/>
<path d="M205.168 149.977H191.926C193.712 151.567 195.503 153.158 197.327 154.72H210.704C208.907 153.072 207.084 151.485 205.168 149.977Z" fill="#3D3D3D"/>
<path d="M348.108 154.678C348.108 168.094 337.235 179 323.801 179C310.373 179 299.475 168.094 299.475 154.678C299.475 141.254 310.373 130.362 323.801 130.362C337.235 130.363 348.108 141.255 348.108 154.678Z" fill="#1D1D1B"/>
<path opacity="0.5" d="M323.956 133.152C336.039 133.152 345.974 142.239 347.364 153.936C347.138 141.111 336.675 130.798 323.8 130.798C310.774 130.798 300.227 141.34 300.227 154.364C300.227 155.283 300.295 156.21 300.397 157.127C300.397 156.988 300.386 156.85 300.386 156.723C300.386 143.693 310.939 133.152 323.956 133.152Z" fill="url(#paint1_radial_562_32702)"/>
<path opacity="0.5" d="M323.956 176.068C336.039 176.068 345.974 166.995 347.364 155.282C347.138 168.111 336.675 178.435 323.8 178.435C310.774 178.435 300.227 167.887 300.227 154.873C300.227 153.935 300.295 153.019 300.397 152.102C300.397 152.231 300.386 152.387 300.386 152.498C300.386 165.526 310.939 176.068 323.956 176.068Z" fill="#1D1D1B"/>
<path d="M323.801 136.369C313.662 136.369 305.463 144.59 305.463 154.722C305.463 164.85 313.661 173.062 323.801 173.062C333.914 173.062 342.145 164.851 342.145 154.722C342.145 144.59 333.914 136.369 323.801 136.369Z" fill="#2E2D2C"/>
<path opacity="0.5" d="M339.129 154.628C339.129 163.209 332.165 170.177 323.594 170.177C315 170.177 308.045 163.208 308.045 154.628C308.045 146.04 315 139.079 323.594 139.079C332.163 139.08 339.129 146.04 339.129 154.628Z" fill="white"/>
<path d="M337.167 154.628C337.167 162.134 331.09 168.193 323.594 168.193C316.087 168.193 310.021 162.135 310.021 154.628C310.021 147.12 316.087 141.055 323.594 141.055C331.09 141.055 337.167 147.12 337.167 154.628Z" fill="#2C2D2B"/>
<path d="M336.144 154.628C336.144 161.56 330.525 167.18 323.595 167.18C316.658 167.18 311.023 161.56 311.023 154.628C311.023 147.698 316.658 142.074 323.595 142.074C330.525 142.074 336.144 147.699 336.144 154.628Z" fill="#686867"/>
<path d="M328.067 154.571C328.067 156.934 326.165 158.841 323.802 158.841C321.451 158.841 319.543 156.934 319.543 154.571C319.543 152.196 321.451 150.292 323.802 150.292C326.165 150.292 328.067 152.196 328.067 154.571Z" fill="#2D2E2D"/>
<path d="M326.211 154.571C326.211 155.895 325.127 156.975 323.801 156.975C322.482 156.975 321.393 155.895 321.393 154.571C321.393 153.245 322.482 152.161 323.801 152.161C325.125 152.16 326.211 153.245 326.211 154.571Z" fill="#2D2E2D"/>
<g opacity="0.8">
<path d="M308.38 153.494C308.367 153.7 308.367 153.88 308.367 154.067C308.367 162.487 315.188 169.299 323.601 169.299C332 169.299 338.826 162.487 338.826 154.067C338.826 153.853 338.808 153.672 338.808 153.479C326.04 157.467 315.42 155.827 308.38 153.494Z" fill="#BBBABA"/>
</g>
<path d="M323.803 143.993C323.418 143.993 323.113 143.679 323.113 143.305C323.113 142.916 323.418 142.617 323.803 142.617C324.194 142.617 324.495 142.915 324.495 143.305C324.495 143.68 324.196 143.993 323.803 143.993Z" fill="black"/>
<path d="M323.803 166.204C323.418 166.204 323.113 165.887 323.113 165.512C323.113 165.142 323.418 164.823 323.803 164.823C324.194 164.823 324.495 165.141 324.495 165.512C324.495 165.887 324.196 166.204 323.803 166.204Z" fill="black"/>
<path d="M334.215 154.407C334.215 154.032 334.524 153.714 334.909 153.714C335.295 153.714 335.597 154.032 335.597 154.407C335.597 154.778 335.294 155.092 334.909 155.092C334.525 155.092 334.215 154.778 334.215 154.407Z" fill="black"/>
<path d="M312.01 154.407C312.01 154.032 312.309 153.714 312.695 153.714C313.069 153.714 313.389 154.032 313.389 154.407C313.389 154.778 313.069 155.092 312.695 155.092C312.309 155.092 312.01 154.778 312.01 154.407Z" fill="black"/>
<path d="M331.178 147.039C330.901 146.771 330.901 146.343 331.178 146.068C331.44 145.805 331.881 145.805 332.138 146.068C332.405 146.343 332.412 146.771 332.138 147.039C331.881 147.309 331.438 147.309 331.178 147.039Z" fill="black"/>
<path d="M315.47 162.737C315.198 162.473 315.198 162.05 315.47 161.771C315.723 161.514 316.164 161.514 316.426 161.771C316.707 162.049 316.707 162.487 316.426 162.737C316.164 163.012 315.723 163.012 315.47 162.737Z" fill="black"/>
<path d="M331.178 161.771C331.44 161.514 331.881 161.514 332.138 161.771C332.405 162.049 332.405 162.473 332.138 162.737C331.881 163.012 331.438 163.012 331.178 162.737C330.901 162.473 330.901 162.049 331.178 161.771Z" fill="black"/>
<path d="M315.47 146.068C315.723 145.805 316.164 145.805 316.426 146.068C316.707 146.343 316.707 146.771 316.426 147.039C316.164 147.309 315.723 147.298 315.47 147.039C315.198 146.771 315.198 146.343 315.47 146.068Z" fill="black"/>
<path d="M277.759 154.678C277.759 168.094 266.876 179 253.445 179C240 179 229.135 168.094 229.135 154.678C229.135 141.254 240.001 130.362 253.445 130.362C266.875 130.363 277.759 141.255 277.759 154.678Z" fill="#1D1D1B"/>
<path opacity="0.5" d="M253.602 133.152C265.688 133.152 275.622 142.239 277.019 153.936C276.779 141.111 266.321 130.798 253.446 130.798C240.421 130.798 229.879 141.34 229.879 154.364C229.879 155.283 229.927 156.21 230.042 157.127C230.042 156.988 230.033 156.85 230.033 156.723C230.034 143.693 240.587 133.152 253.602 133.152Z" fill="url(#paint2_radial_562_32702)"/>
<path opacity="0.5" d="M253.602 176.068C265.688 176.068 275.622 166.995 277.019 155.282C276.779 168.111 266.321 178.435 253.446 178.435C240.421 178.435 229.879 167.887 229.879 154.873C229.879 153.935 229.927 153.019 230.042 152.102C230.042 152.231 230.033 152.387 230.033 152.498C230.034 165.526 240.587 176.068 253.602 176.068Z" fill="#1D1D1B"/>
<path d="M253.447 136.369C243.322 136.369 235.109 144.59 235.109 154.722C235.109 164.85 243.321 173.062 253.447 173.062C263.575 173.062 271.8 164.851 271.8 154.722C271.8 144.59 263.575 136.369 253.447 136.369Z" fill="#2E2D2C"/>
<path opacity="0.5" d="M268.784 154.628C268.784 163.209 261.82 170.177 253.239 170.177C244.645 170.177 237.693 163.208 237.693 154.628C237.693 146.04 244.645 139.079 253.239 139.079C261.82 139.08 268.784 146.04 268.784 154.628Z" fill="white"/>
<path d="M266.792 154.628C266.792 162.134 260.742 168.193 253.238 168.193C245.727 168.193 239.66 162.135 239.66 154.628C239.66 147.12 245.727 141.055 253.238 141.055C260.742 141.055 266.792 147.12 266.792 154.628Z" fill="#2C2D2B"/>
<path d="M265.786 154.628C265.786 161.56 260.169 167.18 253.237 167.18C246.304 167.18 240.676 161.56 240.676 154.628C240.676 147.698 246.304 142.074 253.237 142.074C260.169 142.074 265.786 147.699 265.786 154.628Z" fill="#686867"/>
<path d="M257.725 154.57C257.725 156.933 255.809 158.84 253.445 158.84C251.117 158.84 249.166 156.933 249.166 154.57C249.166 152.196 251.116 150.291 253.445 150.291C255.809 150.291 257.725 152.196 257.725 154.57Z" fill="#2D2E2D"/>
<path d="M255.86 154.571C255.86 155.895 254.78 156.975 253.446 156.975C252.111 156.975 251.041 155.895 251.041 154.571C251.041 153.245 252.111 152.161 253.446 152.161C254.78 152.16 255.86 153.245 255.86 154.571Z" fill="#2D2E2D"/>
<g opacity="0.8">
<path d="M238.018 153.494C238.018 153.7 238.018 153.88 238.018 154.067C238.018 162.487 244.815 169.299 253.239 169.299C261.641 169.299 268.459 162.487 268.459 154.067C268.459 153.853 268.445 153.672 268.445 153.479C255.667 157.467 245.068 155.827 238.018 153.494Z" fill="#BBBABA"/>
</g>
<path d="M253.443 143.993C253.068 143.993 252.762 143.679 252.762 143.305C252.762 142.916 253.068 142.617 253.443 142.617C253.835 142.617 254.13 142.915 254.13 143.305C254.13 143.68 253.835 143.993 253.443 143.993Z" fill="black"/>
<path d="M253.443 166.204C253.068 166.204 252.762 165.887 252.762 165.512C252.762 165.142 253.068 164.823 253.443 164.823C253.835 164.823 254.13 165.141 254.13 165.512C254.13 165.887 253.835 166.204 253.443 166.204Z" fill="black"/>
<path d="M263.863 154.407C263.863 154.032 264.174 153.714 264.548 153.714C264.94 153.714 265.24 154.032 265.24 154.407C265.24 154.778 264.941 155.092 264.548 155.092C264.175 155.092 263.863 154.778 263.863 154.407Z" fill="black"/>
<path d="M241.662 154.407C241.662 154.032 241.965 153.714 242.343 153.714C242.713 153.714 243.025 154.032 243.025 154.407C243.025 154.778 242.715 155.092 242.343 155.092C241.965 155.092 241.662 154.778 241.662 154.407Z" fill="black"/>
<path d="M260.803 147.039C260.55 146.771 260.55 146.343 260.803 146.068C261.083 145.805 261.526 145.805 261.791 146.068C262.048 146.343 262.048 146.771 261.791 147.039C261.526 147.309 261.085 147.309 260.803 147.039Z" fill="black"/>
<path d="M245.099 162.737C244.834 162.473 244.834 162.05 245.099 161.771C245.374 161.514 245.809 161.514 246.073 161.771C246.345 162.049 246.345 162.487 246.073 162.737C245.808 163.012 245.374 163.012 245.099 162.737Z" fill="black"/>
<path d="M260.803 161.771C261.083 161.514 261.526 161.514 261.791 161.771C262.048 162.049 262.048 162.473 261.791 162.737C261.526 163.012 261.085 163.012 260.803 162.737C260.55 162.473 260.55 162.049 260.803 161.771Z" fill="black"/>
<path d="M245.099 146.068C245.374 145.805 245.809 145.805 246.073 146.068C246.345 146.343 246.345 146.771 246.073 147.039C245.809 147.309 245.374 147.298 245.099 147.039C244.834 146.771 244.834 146.343 245.099 146.068Z" fill="black"/>
<path d="M227.463 138.637L238.016 126.515H345.684L358.419 148.698H352.955L342.149 129.963H240.676L230.958 141.054L227.463 138.637Z" fill="#818080"/>
<path d="M227.463 138.637L238.016 126.515H345.684L358.419 148.698H355.774L344.136 128.572L239.659 128.229L229.049 139.16L227.463 138.637Z" fill="#818080"/>
<path d="M149.373 154.678C149.373 168.094 138.498 179 125.058 179C111.627 179 100.742 168.094 100.742 154.678C100.742 141.254 111.627 130.362 125.058 130.362C138.498 130.363 149.373 141.255 149.373 154.678Z" fill="#1D1D1B"/>
<path opacity="0.5" d="M125.213 133.152C137.306 133.152 147.235 142.239 148.619 153.936C148.395 141.111 137.931 130.798 125.057 130.798C112.036 130.798 101.494 141.34 101.494 154.364C101.494 155.283 101.541 156.21 101.659 157.127C101.659 156.988 101.65 156.85 101.65 156.723C101.65 143.693 112.196 133.152 125.213 133.152Z" fill="url(#paint3_radial_562_32702)"/>
<path opacity="0.5" d="M125.213 176.068C137.306 176.068 147.235 166.995 148.619 155.282C148.395 168.111 137.931 178.435 125.057 178.435C112.036 178.435 101.494 167.887 101.494 154.873C101.494 153.935 101.541 153.019 101.659 152.102C101.659 152.231 101.65 152.387 101.65 152.498C101.65 165.526 112.196 176.068 125.213 176.068Z" fill="#1D1D1B"/>
<path d="M125.057 136.369C114.94 136.369 106.723 144.59 106.723 154.722C106.723 164.85 114.94 173.062 125.057 173.062C135.185 173.062 143.414 164.851 143.414 154.722C143.413 144.59 135.185 136.369 125.057 136.369Z" fill="#2E2D2C"/>
<path opacity="0.5" d="M140.402 154.628C140.402 163.209 133.43 170.177 124.85 170.177C116.258 170.177 109.305 163.208 109.305 154.628C109.305 146.04 116.258 139.079 124.85 139.079C133.43 139.08 140.402 146.04 140.402 154.628Z" fill="white"/>
<path d="M138.407 154.628C138.407 162.134 132.348 168.193 124.848 168.193C117.345 168.193 111.281 162.135 111.281 154.628C111.281 147.12 117.345 141.055 124.848 141.055C132.348 141.055 138.407 147.12 138.407 154.628Z" fill="#2C2D2B"/>
<path d="M137.404 154.628C137.404 161.56 131.784 167.18 124.851 167.18C117.925 167.18 112.301 161.56 112.301 154.628C112.301 147.698 117.925 142.074 124.851 142.074C131.783 142.074 137.404 147.699 137.404 154.628Z" fill="#686867"/>
<path d="M129.339 154.57C129.339 156.933 127.424 158.84 125.056 158.84C122.713 158.84 120.795 156.933 120.795 154.57C120.795 152.196 122.713 150.291 125.056 150.291C127.424 150.291 129.339 152.196 129.339 154.57Z" fill="#2D2E2D"/>
<path d="M127.468 154.571C127.468 155.895 126.395 156.975 125.056 156.975C123.737 156.975 122.656 155.895 122.656 154.571C122.656 153.245 123.737 152.161 125.056 152.161C126.395 152.16 127.468 153.245 127.468 154.571Z" fill="#2D2E2D"/>
<g opacity="0.8">
<path d="M109.629 153.494C109.629 153.7 109.629 153.88 109.629 154.067C109.629 162.487 116.437 169.299 124.85 169.299C133.252 169.299 140.071 162.487 140.071 154.067C140.071 153.853 140.071 153.672 140.071 153.479C127.282 157.467 116.677 155.827 109.629 153.494Z" fill="#BBBABA"/>
</g>
<path d="M125.058 143.993C124.688 143.993 124.391 143.679 124.391 143.305C124.391 142.916 124.688 142.617 125.058 142.617C125.432 142.617 125.752 142.915 125.752 143.305C125.752 143.68 125.431 143.993 125.058 143.993Z" fill="black"/>
<path d="M125.058 166.204C124.688 166.204 124.391 165.887 124.391 165.512C124.391 165.142 124.688 164.823 125.058 164.823C125.432 164.823 125.752 165.141 125.752 165.512C125.752 165.887 125.431 166.204 125.058 166.204Z" fill="black"/>
<path d="M135.496 154.407C135.496 154.032 135.802 153.715 136.173 153.715C136.55 153.715 136.861 154.032 136.861 154.407C136.861 154.778 136.551 155.092 136.173 155.092C135.8 155.092 135.496 154.778 135.496 154.407Z" fill="black"/>
<path d="M113.277 154.407C113.277 154.032 113.58 153.715 113.959 153.715C114.33 153.715 114.651 154.032 114.651 154.407C114.651 154.778 114.33 155.092 113.959 155.092C113.58 155.092 113.277 154.778 113.277 154.407Z" fill="black"/>
<path d="M132.431 147.039C132.174 146.772 132.174 146.343 132.431 146.069C132.714 145.805 133.134 145.805 133.408 146.069C133.672 146.343 133.672 146.772 133.408 147.039C133.134 147.31 132.712 147.31 132.431 147.039Z" fill="black"/>
<path d="M116.731 162.738C116.465 162.474 116.465 162.05 116.731 161.771C116.998 161.514 117.431 161.514 117.694 161.771C117.972 162.049 117.958 162.487 117.694 162.738C117.431 163.012 116.998 163.012 116.731 162.738Z" fill="black"/>
<path d="M132.432 161.771C132.714 161.514 133.134 161.514 133.409 161.771C133.673 162.049 133.673 162.474 133.409 162.738C133.134 163.012 132.714 163.012 132.432 162.738C132.174 162.474 132.174 162.049 132.432 161.771Z" fill="black"/>
<path d="M116.731 146.069C116.998 145.805 117.431 145.805 117.694 146.069C117.958 146.343 117.972 146.772 117.694 147.039C117.43 147.31 116.998 147.298 116.731 147.039C116.465 146.772 116.465 146.343 116.731 146.069Z" fill="black"/>
<path d="M90.3219 144.236H86.3242V21.2628C86.3242 16.9513 87.6082 13.5884 90.1286 11.234C93.8482 7.78885 98.9353 7.9177 99.6943 7.9535H110.043V11.9369H99.4867C99.458 11.9369 95.4675 11.7054 92.8183 14.1803C91.1596 15.7496 90.3219 18.1279 90.3219 21.2628V144.236Z" fill="#292929"/>
<path d="M107.837 8.771H99.5242C99.5242 8.771 89.1005 8.85216 87.1172 18.6184V33.0327L88.2616 19.0671C88.2616 19.0671 89.221 11.3569 99.6245 9.64451L107.837 8.771Z" fill="#A8A8A8"/>
<path d="M96.5399 154.394C96.5399 167.828 85.6591 178.722 72.2424 178.722C58.8019 178.722 47.9199 167.827 47.9199 154.394C47.9199 140.977 58.8007 130.079 72.2424 130.079C85.6591 130.079 96.5399 140.977 96.5399 154.394Z" fill="#1D1D1B"/>
<path opacity="0.5" d="M72.389 132.874C84.4715 132.874 94.4073 141.953 95.7903 153.673C95.5755 140.834 85.1052 130.513 72.2411 130.513C59.2182 130.513 48.668 141.055 48.668 154.086C48.668 154.999 48.7265 155.925 48.8255 156.85C48.8255 156.71 48.8148 156.567 48.8148 156.439C48.816 143.422 59.371 132.874 72.389 132.874Z" fill="url(#paint4_radial_562_32702)"/>
<path opacity="0.5" d="M72.389 175.787C84.4715 175.787 94.4073 166.719 95.7903 154.999C95.5755 167.827 85.1052 178.158 72.2411 178.158C59.2182 178.158 48.668 167.616 48.668 154.599C48.668 153.657 48.7265 152.736 48.8255 151.817C48.8255 151.955 48.8148 152.103 48.8148 152.223C48.816 165.242 59.371 175.787 72.389 175.787Z" fill="#1D1D1B"/>
<path d="M72.2413 136.091C62.0956 136.091 53.8926 144.303 53.8926 154.443C53.8926 164.564 62.0956 172.781 72.2413 172.781C82.356 172.781 90.5721 164.564 90.5721 154.443C90.5721 144.305 82.356 136.091 72.2413 136.091Z" fill="#2E2D2C"/>
<path opacity="0.5" d="M87.5733 154.35C87.5733 162.931 80.6042 169.895 72.0349 169.895C63.4345 169.895 56.4727 162.931 56.4727 154.35C56.4727 145.752 63.4345 138.801 72.0349 138.801C80.6054 138.801 87.5733 145.752 87.5733 154.35Z" fill="white"/>
<path d="M85.5952 154.35C85.5952 161.853 79.5151 167.922 72.0329 167.922C64.5292 167.922 58.4492 161.853 58.4492 154.35C58.4492 146.857 64.5292 140.773 72.0329 140.773C79.5151 140.774 85.5952 146.857 85.5952 154.35Z" fill="#2C2D2B"/>
<path d="M84.5858 154.35C84.5858 161.283 78.9545 166.902 72.0355 166.902C65.0915 166.902 59.459 161.283 59.459 154.35C59.459 147.414 65.0915 141.797 72.0355 141.797C78.9545 141.797 84.5858 147.414 84.5858 154.35Z" fill="#686867"/>
<path d="M76.5143 154.289C76.5143 156.654 74.6098 158.559 72.2422 158.559C69.8806 158.559 67.9629 156.654 67.9629 154.289C67.9629 151.918 69.8806 150.013 72.2422 150.013C74.6098 150.013 76.5143 151.919 76.5143 154.289Z" fill="#2D2E2D"/>
<path d="M74.6427 154.289C74.6427 155.605 73.5544 156.696 72.2429 156.696C70.9123 156.696 69.8359 155.605 69.8359 154.289C69.8359 152.953 70.9135 151.882 72.2429 151.882C73.5544 151.882 74.6427 152.953 74.6427 154.289Z" fill="#2D2E2D"/>
<g opacity="0.8">
<path d="M56.8157 153.216C56.7871 153.422 56.7871 153.601 56.7871 153.786C56.7871 162.204 63.6201 169.029 72.0367 169.029C80.4354 169.029 87.2553 162.204 87.2553 153.786C87.2553 153.586 87.2302 153.408 87.2302 153.202C74.4604 157.192 63.8516 155.541 56.8157 153.216Z" fill="#BBBABA"/>
</g>
<path d="M72.2423 143.715C71.8461 143.715 71.543 143.395 71.543 143.016C71.543 142.646 71.8461 142.331 72.2423 142.331C72.617 142.331 72.9237 142.646 72.9237 143.016C72.9225 143.395 72.6158 143.715 72.2423 143.715Z" fill="black"/>
<path d="M72.2423 165.92C71.8461 165.92 71.543 165.616 71.543 165.235C71.543 164.854 71.8461 164.553 72.2423 164.553C72.617 164.553 72.9237 164.853 72.9237 165.235C72.9225 165.616 72.6158 165.92 72.2423 165.92Z" fill="black"/>
<path d="M82.6602 154.126C82.6602 153.755 82.9669 153.438 83.3559 153.438C83.7258 153.438 84.0289 153.755 84.0289 154.126C84.0289 154.514 83.7258 154.818 83.3559 154.818C82.968 154.818 82.6602 154.514 82.6602 154.126Z" fill="black"/>
<path d="M60.4395 154.126C60.4395 153.755 60.7461 153.438 61.1316 153.438C61.5194 153.438 61.8237 153.755 61.8237 154.126C61.8237 154.514 61.5194 154.818 61.1316 154.818C60.7461 154.818 60.4395 154.514 60.4395 154.126Z" fill="black"/>
<path d="M79.6132 146.764C79.3268 146.497 79.3268 146.054 79.6132 145.795C79.8698 145.521 80.3125 145.521 80.5822 145.795C80.8459 146.055 80.8459 146.497 80.5822 146.764C80.3113 147.026 79.8698 147.026 79.6132 146.764Z" fill="black"/>
<path d="M63.8924 162.474C63.6322 162.203 63.6322 161.758 63.8924 161.493C64.1704 161.234 64.6024 161.234 64.8697 161.493C65.137 161.758 65.137 162.204 64.8697 162.474C64.6012 162.738 64.1704 162.738 63.8924 162.474Z" fill="black"/>
<path d="M79.6132 161.493C79.8698 161.234 80.3125 161.234 80.5822 161.493C80.8459 161.758 80.8459 162.204 80.5822 162.474C80.3113 162.738 79.8698 162.738 79.6132 162.474C79.3268 162.203 79.3268 161.758 79.6132 161.493Z" fill="black"/>
<path d="M63.8924 145.795C64.1704 145.521 64.6024 145.521 64.8697 145.795C65.137 146.055 65.137 146.497 64.8697 146.764C64.6024 147.026 64.1704 147.026 63.8924 146.764C63.6322 146.497 63.6322 146.055 63.8924 145.795Z" fill="black"/>
<path d="M20.526 110.677L30.2731 121.169H19.1465L20.526 110.677Z" fill="#0F0F0F"/>
<path d="M32.1636 74.3306L30.8223 80.7137L31.4929 81.6826L32.9655 75.3843L32.1636 74.3306Z" fill="#2B2B2B"/>
<path d="M40.0753 84.8356L33.6026 84.0241L32.8926 83.0742L39.3258 83.7305L40.0753 84.8356Z" fill="#2B2B2B"/>
<path d="M18.5156 118.958H74.2431V127.096H22.9059L18.5156 118.958Z" fill="#23211F"/>
<path d="M18.5156 122.91H74.2431V127.096H22.9059L18.5156 122.91Z" fill="#696969"/>
<path d="M23.75 85.9848L34.3778 78.061L36.7955 81.0838L27.4231 90.6483L23.75 85.9848Z" fill="#525252"/>
<path opacity="0.4" d="M25.998 88.8438L27.4241 90.6481L36.7965 81.0836L35.46 79.4141C33.602 81.2375 27.3 87.518 25.998 88.8438Z" fill="#525252"/>
<path d="M36.0211 81.8833L36.798 81.0849L34.3803 78.061L33.7383 78.5384C34.4722 79.6649 35.2287 80.7854 36.0211 81.8833Z" fill="#525252"/>
<path d="M28.219 82.667L23.75 85.9833L27.4231 90.6468L31.4148 86.5788C30.3193 85.3067 29.2417 83.9868 28.219 82.667Z" fill="#525252"/>
<path d="M22.5859 81.3795L25.1039 80.0454L32.1648 89.0371L30.5168 91.9369L22.5859 81.3795Z" fill="#0F0F0F"/>
<path d="M41.2888 83.0526C42.2052 84.2806 42.4153 85.6553 41.7518 86.1374C41.1062 86.6291 39.8437 86.0193 38.9308 84.8045L31.6777 75.0537C30.7743 73.8377 30.5643 72.4511 31.2039 71.969C31.8459 71.4869 33.1252 72.0823 34.0178 73.3031L41.2888 83.0526Z" fill="#0F0F0F"/>
<path d="M14.1201 87.0233L15.7394 79.5649L22.8887 80.0459L31.1656 90.7489C31.1656 90.7489 31.8613 91.3622 31.1656 93.0735C30.4532 94.7859 20.0748 122.301 20.0748 122.301L9.59375 116.648L14.1201 87.0233Z" fill="#914A17"/>
<path opacity="0.5" d="M14.1208 87.0233L15.7402 79.5649L20.529 79.8848L13.3475 112.117C13.3475 112.117 22.035 117.102 21.7749 117.805C21.115 119.536 20.0768 122.299 20.0768 122.299L9.5957 116.647L14.1208 87.0233Z" fill="#914A17"/>
<path d="M80.4777 100.421C80.4777 100.421 56.6015 102.247 46.4845 103.909C46.4845 103.909 43.1491 104.501 42.2517 109.038C41.3424 113.574 39.9844 128.84 39.9844 128.84H68.2532L80.4777 100.421Z" fill="#363432"/>
<path d="M74.6209 114.023L80.4777 100.421C80.4777 100.421 56.6015 102.247 46.4844 103.909C46.4844 103.909 43.1491 104.501 42.2517 109.038C42.0166 110.17 41.7517 111.976 41.5059 114.023H74.6209Z" fill="#5C5C5C"/>
<path d="M70.4485 102.842C70.4485 102.842 56.601 103.844 47.7918 105.299C47.7918 105.299 44.8885 105.828 44.1044 109.777C43.3228 113.715 42.3574 124.634 42.3574 124.634H61.1763L63.1954 109.293L70.2241 104.317L70.4485 102.842Z" fill="#696969"/>
<path d="M48.1916 106.197C55.9698 104.929 67.6585 103.975 70.3053 103.78L70.4485 102.842C70.4485 102.842 56.601 103.844 47.7918 105.299C47.7918 105.299 44.8885 105.828 44.1044 109.777C43.3228 113.715 42.3574 124.634 42.3574 124.634H42.8383C43.0889 121.953 43.8551 113.921 44.5138 110.663C45.3062 106.726 48.1916 106.197 48.1916 106.197Z" fill="#696969"/>
<path d="M27.9648 83.1442L33.9494 78.5845L34.2084 78.909L28.5961 83.9521L27.9648 83.1442Z" fill="#525252"/>
<path d="M47.9875 97.4958C47.9875 97.4958 40.2845 98.0172 39.9826 100.934C39.6783 103.859 42.627 104.293 45.7583 104.137L69.8589 101.312C69.8589 101.312 71.4603 101.134 72.0678 99.4146C72.6668 97.7105 75.5905 81.9502 76.4079 74.1303C76.4079 74.1303 76.6084 69.7006 73.8828 69.5932C71.1728 69.4906 68.5379 71.2055 67.5343 74.3308C66.5331 77.4502 64.613 93.7809 67.7372 97.4111C67.7372 97.4111 66.076 96.1425 59.7824 96.4981C55.2489 96.7475 47.9875 97.4958 47.9875 97.4958Z" fill="#303030"/>
<path d="M73.8835 69.593C72.7498 69.5512 71.64 69.8293 70.6304 70.3913C70.7283 70.3782 70.8023 70.3698 70.8667 70.3698C72.2033 70.3209 73.9551 71.1622 73.9205 72.7028C73.8835 73.7947 73.4634 74.8007 73.1352 75.8269C72.6674 77.2601 72.2235 78.7148 71.9932 80.2208C71.4908 83.3545 71.3596 86.5216 71.2915 89.703C71.2545 91.1899 71.3763 93.0563 70.1209 94.1077C69.1794 94.8809 67.5349 94.3069 66.8476 93.4692C66.5862 93.1231 66.3798 92.7795 66.2163 92.4012C66.4514 94.6339 66.9192 96.4525 67.7378 97.4084C67.7378 97.4084 66.7974 96.7067 63.7329 96.4955C63.0885 97.7151 62.8058 99.1196 61.4012 99.7616C59.6673 100.546 57.2925 100.604 55.4381 100.889C52.6266 101.331 49.8103 101.716 46.9965 102.07C44.7745 102.35 42.531 102.48 40.2852 102.644C41.1336 104.028 43.3914 104.252 45.759 104.134L69.8595 101.309C69.8595 101.309 71.461 101.132 72.0684 99.412C72.6675 97.7079 75.5911 81.9475 76.4085 74.1276C76.4074 74.13 76.6078 69.7004 73.8835 69.593Z" fill="#0F0F0F"/>
<path d="M74.2432 100.934C74.2432 100.934 71.1727 95.3988 66.7311 95.2843C62.2955 95.1852 64.2061 101.975 64.2061 101.975L74.2432 100.934Z" fill="#262626"/>
<path d="M71.2618 70.6851C71.2618 70.6851 68.9682 70.8915 67.7129 75.8713C66.4503 80.8427 66.1866 91.3978 66.8751 92.7271C66.8751 92.7271 67.2677 75.7818 71.2618 70.6851Z" fill="#303030"/>
<path d="M69.171 98.8904C69.171 99.6255 68.5827 100.22 67.8345 100.22C67.1078 100.22 66.5039 99.6255 66.5039 98.8904C66.5039 98.1529 67.1066 97.561 67.8345 97.561C68.5827 97.5598 69.171 98.1518 69.171 98.8904Z" fill="black"/>
<path d="M68.5473 98.8907C68.5473 99.2868 68.2323 99.615 67.8337 99.615C67.4375 99.615 67.1094 99.2868 67.1094 98.8907C67.1094 98.4921 67.4375 98.1675 67.8337 98.1675C68.2335 98.1675 68.5473 98.4909 68.5473 98.8907Z" fill="#262626"/>
<path d="M40.2839 101.583C40.2839 101.583 39.8412 98.7523 47.6014 97.7821C47.6014 97.7821 60.3439 96.541 61.6363 96.7331C61.6363 96.7331 47.1922 98.0303 44.4356 98.8907C41.6754 99.7475 40.2839 101.583 40.2839 101.583Z" fill="#303030"/>
<path d="M89.7631 125.756L48.0131 125.837L40.8555 155.092H89.7631V125.756Z" fill="#292929"/>
<path d="M29.7001 35.8003C29.7001 35.8003 23.4303 36.218 22.0329 41.7634L9.96351 95.4932C9.96351 95.4932 8.10549 99.5088 4.60067 101.159C4.60067 101.159 1.82617 103.104 1.82617 107.779V153.673H40.8553L48.359 124.483H88.2581V35.8003H29.7001ZM54.692 92.4466H17.0316C16.6223 92.2569 16.2261 92.0612 15.8264 91.8189C14.1569 90.7772 13.5626 88.9406 13.3669 87.0897C16.4875 76.8509 24.2071 45.4639 24.2071 45.4639C24.2071 45.4639 25.8766 39.6476 32.6273 39.3732C35.9114 39.2335 46.2074 39.2335 54.692 39.2693V92.4466ZM82.2032 92.4466H58.4737V39.2884C65.8533 39.3158 71.944 39.3732 71.944 39.3732C71.944 39.3732 81.6662 39.0951 82.2032 48.7492V92.4466Z" fill="#FFAF21"/>
<path opacity="0.3" d="M32.6276 39.3731C25.8769 39.6475 24.2074 45.4639 24.2074 45.4639C24.2074 45.4639 16.4878 76.8497 13.3672 87.0897C13.5629 88.9393 14.1584 90.7771 15.8267 91.8189C16.2264 92.0611 16.6226 92.2568 17.0319 92.4465H54.6923V39.2692C46.2077 39.2346 35.9117 39.2347 32.6276 39.3731Z" fill="#00A8E3"/>
<path opacity="0.3" d="M19.6836 63.5381C18.9843 66.2756 18.2599 69.1073 17.5332 71.8472C25.6037 66.9904 50.3737 52.1501 54.6936 49.5797V42.6118C42.9608 49.4866 31.4701 56.7946 19.6836 63.5381Z" fill="#9BE9E3"/>
<path opacity="0.3" d="M54.6921 86.4398V79.793C47.2755 83.9863 39.8888 88.206 32.4961 92.4459H45.5452C48.5942 90.4602 51.6479 88.4375 54.6921 86.4398Z" fill="#9BE9E3"/>
<path opacity="0.3" d="M71.943 39.3729C71.943 39.3729 65.8522 39.3143 58.4727 39.2881V92.4463H82.2021V48.7489C81.6651 39.0948 71.943 39.3729 71.943 39.3729Z" fill="#00A8E3"/>
<path opacity="0.3" d="M82.2041 69.6433V64.1934C74.3018 68.6803 66.3804 73.1588 58.4746 77.6457V83.9621C63.1071 80.9382 78.9797 71.4726 82.2041 69.6433Z" fill="#9BE9E3"/>
<path opacity="0.3" d="M58.4727 40.4289V47.3143C62.8904 44.6723 67.3129 42.0327 71.733 39.3728C70.7628 39.3656 66.1697 39.3297 60.4166 39.2939C59.7674 39.671 59.1123 40.0434 58.4727 40.4289Z" fill="#9BE9E3"/>
<path opacity="0.5" d="M44.4691 95.2842C44.4691 95.2842 50.4322 95.2842 51.6267 95.2842C52.8212 95.2842 53.2389 95.573 53.2389 96.2842C53.2389 96.9966 53.2389 99.6924 47.629 99.6255C42.0943 99.579 41.7113 95.2842 44.4691 95.2842Z" fill="#F08B00"/>
<path d="M52.3237 98.4445C51.4789 97.9457 50.1698 97.4385 48.2974 97.4385C46.0074 97.4385 44.8237 98.2583 44.2676 98.8478C45.0421 99.3013 46.1614 99.614 47.6268 99.6247C50.1698 99.6366 51.5779 99.0972 52.3237 98.4445Z" fill="#F08A1D"/>
<path d="M89.7647 122.065H45.029L31.752 162.638H40.7187L49.9157 128.737H89.7647V122.065Z" fill="#F08B00"/>
<path d="M89.7633 127.582L49.1434 127.623L39.2148 162.638H40.7173L49.9143 128.737H89.7633V127.582Z" fill="#BA4D0B"/>
<path d="M25.2652 143.323H4.32696C4.32696 143.323 0.161035 142.563 0.00112861 145.897V159.502C0.00112861 159.502 -0.163554 164.382 3.48566 164.63H39.8907C39.8907 164.63 42.2081 164.63 42.7153 161.56L45.0292 147.699C45.0292 147.699 45.0435 143.429 41.5947 143.255L25.2652 143.323Z" fill="#F39E18"/>
<path d="M0.00112861 151.775V159.503C0.00112861 159.503 -0.163554 164.383 3.48566 164.631H39.8907C39.8907 164.631 42.2081 164.631 42.7153 161.561L44.3549 151.775H0.00112861Z" fill="#F08B00"/>
<path d="M97.0164 154.678C97.0164 168.094 86.1332 179 72.7129 179C59.2641 179 48.4023 168.094 48.4023 154.678C48.4023 141.254 59.2641 130.362 72.7129 130.362C86.1332 130.363 97.0164 141.255 97.0164 154.678Z" fill="#1D1D1B"/>
<path opacity="0.5" d="M72.8573 133.151C84.9553 133.151 94.8898 142.238 96.2633 153.935C96.0461 141.111 85.5817 130.798 72.7152 130.798C59.6912 130.798 49.1445 141.34 49.1445 154.364C49.1445 155.283 49.1982 156.21 49.3056 157.126C49.3056 156.988 49.2842 156.849 49.2842 156.723C49.2842 143.693 59.8535 133.151 72.8573 133.151Z" fill="url(#paint5_radial_562_32702)"/>
<path opacity="0.5" d="M72.8573 176.068C84.9553 176.068 94.8898 166.995 96.2633 155.283C96.0461 168.111 85.5817 178.436 72.7152 178.436C59.6912 178.436 49.1445 167.888 49.1445 154.873C49.1445 153.935 49.1982 153.019 49.3056 152.103C49.3056 152.231 49.2842 152.388 49.2842 152.499C49.2842 165.526 59.8535 176.068 72.8573 176.068Z" fill="#1D1D1B"/>
<path d="M72.7146 136.369C62.5784 136.369 54.373 144.59 54.373 154.722C54.373 164.85 62.5784 173.062 72.7146 173.062C82.8388 173.062 91.074 164.851 91.074 154.722C91.074 144.59 82.8388 136.369 72.7146 136.369Z" fill="#2E2D2C"/>
<path opacity="0.5" d="M88.0536 154.628C88.0536 163.209 81.0918 170.177 72.5069 170.177C63.8946 170.177 56.959 163.208 56.959 154.628C56.959 146.04 63.8946 139.079 72.5069 139.079C81.0918 139.08 88.0536 146.04 88.0536 154.628Z" fill="white"/>
<path d="M86.061 154.628C86.061 162.134 79.9953 168.193 72.5059 168.193C64.9999 168.193 58.9258 162.135 58.9258 154.628C58.9258 147.12 64.9999 141.055 72.5059 141.055C79.9953 141.055 86.061 147.12 86.061 154.628Z" fill="#2C2D2B"/>
<path d="M85.0609 154.628C85.0609 161.56 79.4332 167.18 72.5071 167.18C65.5571 167.18 59.9473 161.56 59.9473 154.628C59.9473 147.698 65.5571 142.074 72.5071 142.074C79.4332 142.074 85.0609 147.699 85.0609 154.628Z" fill="#686867"/>
<path d="M76.9969 154.571C76.9969 156.934 75.0733 158.841 72.7141 158.841C70.3632 158.841 68.4336 156.934 68.4336 154.571C68.4336 152.196 70.3632 150.292 72.7141 150.292C75.0733 150.292 76.9969 152.196 76.9969 154.571Z" fill="#2D2E2D"/>
<path d="M75.1217 154.571C75.1217 155.895 74.0406 156.975 72.7148 156.975C71.377 156.975 70.3066 155.895 70.3066 154.571C70.3066 153.245 71.377 152.161 72.7148 152.161C74.0406 152.16 75.1217 153.245 75.1217 154.571Z" fill="#2D2E2D"/>
<g opacity="0.8">
<path d="M57.2812 153.494C57.2812 153.7 57.2812 153.88 57.2812 154.067C57.2812 162.487 64.0892 169.299 72.5046 169.299C80.9068 169.299 87.7184 162.487 87.7184 154.067C87.7184 153.853 87.7053 153.672 87.7053 153.479C74.9354 157.467 64.3171 155.827 57.2812 153.494Z" fill="#BBBABA"/>
</g>
<path d="M72.7103 143.993C72.3391 143.993 72.0312 143.679 72.0312 143.305C72.0312 142.916 72.3379 142.617 72.7103 142.617C73.0838 142.617 73.3809 142.915 73.3809 143.305C73.3809 143.68 73.0826 143.993 72.7103 143.993Z" fill="black"/>
<path d="M72.7103 166.204C72.3391 166.204 72.0312 165.887 72.0312 165.512C72.0312 165.142 72.3379 164.823 72.7103 164.823C73.0838 164.823 73.3809 165.141 73.3809 165.512C73.3809 165.887 73.0826 166.204 72.7103 166.204Z" fill="black"/>
<path d="M83.1406 154.407C83.1406 154.032 83.4366 153.714 83.8137 153.714C84.192 153.714 84.5142 154.032 84.5142 154.407C84.5142 154.778 84.192 155.092 83.8137 155.092C83.4366 155.092 83.1406 154.778 83.1406 154.407Z" fill="black"/>
<path d="M60.9082 154.407C60.9082 154.032 61.2328 153.714 61.6075 153.714C61.975 153.714 62.2782 154.032 62.2782 154.407C62.2782 154.778 61.975 155.092 61.6075 155.092C61.2328 155.092 60.9082 154.778 60.9082 154.407Z" fill="black"/>
<path d="M80.0792 147.039C79.8071 146.772 79.8119 146.343 80.0792 146.069C80.343 145.805 80.7821 145.805 81.0649 146.069C81.3131 146.343 81.3131 146.772 81.0649 147.039C80.7809 147.31 80.3418 147.31 80.0792 147.039Z" fill="black"/>
<path d="M64.3623 162.738C64.1058 162.474 64.1058 162.05 64.3623 161.771C64.6487 161.514 65.0652 161.514 65.3457 161.771C65.6022 162.049 65.6022 162.487 65.3457 162.738C65.0652 163.012 64.6487 163.012 64.3623 162.738Z" fill="black"/>
<path d="M80.081 161.771C80.3447 161.514 80.7839 161.514 81.0667 161.771C81.3149 162.049 81.3149 162.474 81.0667 162.738C80.7839 163.012 80.3447 163.012 80.081 162.738C79.8089 162.474 79.8089 162.049 80.081 161.771Z" fill="black"/>
<path d="M64.3623 146.069C64.6487 145.805 65.0652 145.805 65.3457 146.069C65.6022 146.343 65.6022 146.772 65.3457 147.039C65.064 147.31 64.6487 147.298 64.3623 147.039C64.1058 146.772 64.1058 146.343 64.3623 146.069Z" fill="black"/>
<path d="M46.6927 41.2686C48.7297 41.2686 50.8085 41.2686 52.8228 41.2686V90.4697H17.6076C17.3892 90.3587 17.2006 90.249 17.0252 90.1428C16.5121 89.8277 15.8128 89.175 15.5276 87.268C18.6768 76.8443 25.8129 47.8534 26.2592 46.0133C26.3774 45.6649 27.7819 41.5848 32.8428 41.3843C34.7963 41.3008 39.5888 41.2686 46.6927 41.2686ZM46.6927 39.2686C40.6365 39.2686 35.0231 39.2948 32.7581 39.3867C26.0003 39.6719 24.3451 45.493 24.3451 45.493C24.3451 45.493 16.6254 76.8765 13.4941 87.1034C13.6982 88.9661 14.2925 90.7919 15.9691 91.8408C16.3474 92.0759 16.7543 92.2824 17.1684 92.4638H54.8097V39.2889C52.1892 39.2686 49.4027 39.2686 46.6927 39.2686Z" fill="#292929"/>
<path d="M60.5917 41.301C66.9785 41.3403 72.0036 41.3833 72.0609 41.3833C72.0847 41.3833 72.1062 41.3833 72.1325 41.3833H72.1563C72.3926 41.3833 74.5143 41.412 76.5179 42.4394C78.9118 43.6519 80.1696 45.7497 80.3486 48.8333V90.4699H60.5917V41.301ZM58.5977 39.3081V92.4627H82.3498V48.7808C81.8319 39.6291 73.1157 39.3868 72.1563 39.3868C72.1062 39.3868 72.0847 39.3868 72.0847 39.3868C72.0847 39.3868 65.9832 39.3367 58.5977 39.3081Z" fill="#292929"/>
<path d="M10.1133 130.814V120.142C10.1133 115.954 6.94264 112.51 2.87695 112.061C2.87695 122.304 2.87695 132.691 2.87695 138.894C6.94264 138.452 10.1133 135.014 10.1133 130.814Z" fill="black"/>
<path d="M9.09661 130.071V120.891C9.09661 117.291 6.37223 114.334 2.87695 113.959C2.87695 122.754 2.87695 131.682 2.87695 137.014C6.37223 136.634 9.09661 133.673 9.09661 130.071Z" fill="#EE7125"/>
<path d="M2.87695 130.37V137.014C6.26125 136.633 8.93313 133.83 9.08348 130.37H2.87695Z" fill="#E63324"/>
<path d="M3.60156 115.83V135.902C3.60156 135.902 5.38082 127.78 3.60156 115.83Z" fill="white"/>
<path d="M1.05697 160.251V147.285C1.05697 147.285 0.938825 143.942 5.1501 143.992H32.6278L5.1501 145.219C5.1501 145.219 2.82788 145.447 2.38396 147.283L1.05697 160.251Z" fill="#65B339"/>
<path d="M88.3241 111.344H57.1864V35.7998H55.8535V122.065H57.1864V112.667H88.3241V111.344Z" fill="#DD8202"/>
<path d="M39.959 142.074L46.3887 123.055L92.7473 122.659L46.8552 124.232L39.959 142.074Z" fill="#65B339"/>
<path opacity="0.5" d="M22.5188 47.1942C21.6727 47.1942 20.9746 46.1668 20.9746 44.9078C20.9746 43.6417 21.6739 42.6118 22.5188 42.6118C23.3601 42.6118 24.0487 43.6417 24.0487 44.9078C24.0487 46.168 23.3589 47.1942 22.5188 47.1942Z" fill="#C0BAC4"/>
<path d="M11.4219 79.4293C11.4219 78.0498 11.8073 62.6749 11.8073 60.1367C11.8073 56.8622 12.2536 55.0399 14.1904 54.997C16.5114 54.9146 17.3921 55.6497 17.3921 61.299C17.3921 66.484 17.3921 76.323 17.3921 78.5438C17.3921 80.7551 16.6714 82.9807 14.5675 82.9807C12.4637 82.9807 11.4219 82.6895 11.4219 79.4293Z" fill="#262625"/>
<path opacity="0.5" d="M14.5678 82.9809C13.5403 82.9809 12.767 82.9021 12.2539 82.4522C12.6668 82.5608 13.1919 82.5823 13.7969 82.5823C15.9007 82.5823 16.6251 80.4176 16.6251 78.2457C16.6251 76.0977 16.6251 66.4592 16.6251 61.384C16.6251 55.8564 15.7408 55.1488 13.415 55.2168C13.3434 55.2168 13.2826 55.2168 13.211 55.2276C13.483 55.0784 13.7957 55.0008 14.1895 54.996C16.5105 54.9137 17.3912 55.6488 17.3912 61.298C17.3912 66.483 17.3912 76.3221 17.3912 78.5429C17.3924 80.7553 16.6716 82.9809 14.5678 82.9809Z" fill="#1D1D1B"/>
<path d="M23.5033 44.9148C23.5033 43.8528 22.952 42.9888 22.2813 42.9888C21.6071 42.9888 21.0605 43.8528 21.0605 44.9148C21.0605 45.9745 21.6059 46.8337 22.2813 46.8337C22.952 46.8337 23.5033 45.9745 23.5033 44.9148Z" fill="url(#paint6_radial_562_32702)"/>
<path d="M23.4105 44.9143C23.4105 43.931 22.9033 43.1255 22.2804 43.1255C21.6515 43.1255 21.1562 43.931 21.1562 44.9143C21.1562 45.9024 21.6527 46.6804 22.2804 46.6804C22.9045 46.6804 23.4105 45.9024 23.4105 44.9143Z" fill="#262625"/>
<path opacity="0.5" d="M22.1083 46.1678C21.6989 46.1678 21.3457 45.6654 21.3457 45.0365C21.3457 44.4124 21.6989 43.916 22.1083 43.916C22.5295 43.916 22.8613 44.4124 22.8613 45.0365C22.8613 45.6642 22.5307 46.1678 22.1083 46.1678Z" fill="#C0BAC4"/>
<path opacity="0.5" d="M13.257 68.0597C12.837 68.0597 12.5195 67.5608 12.5195 66.9402C12.5195 66.3054 12.837 65.8066 13.257 65.8066C13.6771 65.8066 14.0279 66.3054 14.0279 66.9402C14.0279 67.5608 13.6783 68.0597 13.257 68.0597Z" fill="#C0BAC4"/>
<path d="M21.7266 44.2051H13.4138C11.7515 44.2051 10.5713 44.5798 9.78372 45.371C8.67154 46.4939 8.67153 48.1025 8.6954 49.5011C8.6954 49.6646 8.6954 49.8149 8.6954 49.9784C8.6954 50.8925 8.67154 52.4247 8.65006 54.1873C8.61784 56.6682 8.58203 59.7506 8.58203 62.364C8.58203 66.6051 11.4198 67.7387 12.9174 67.7543C12.9281 67.7543 12.9281 67.7543 12.9281 67.7543C13.4198 67.7543 13.8196 67.3867 13.8196 66.8843C13.8196 66.4034 13.4389 65.9965 12.9496 65.9965C12.6883 65.9858 10.347 65.7924 10.347 62.3652C10.347 59.7518 10.3816 56.6921 10.4281 54.2243C10.4579 52.4307 10.4759 50.9056 10.4759 49.9808C10.4759 49.8173 10.4759 49.6538 10.4759 49.4891C10.458 48.3232 10.458 47.2218 11.0391 46.6251C11.4699 46.18 12.2754 45.9759 13.4138 45.9759H21.7266C22.2206 45.9759 22.6073 45.5583 22.6073 45.0666C22.6073 44.6012 22.2206 44.2051 21.7266 44.2051Z" fill="#2C2D2B"/>
<path d="M22.3319 45.7383C22.1649 45.8779 21.9549 45.9734 21.7269 45.9734H13.4142C12.9046 45.9734 12.4798 46.002 12.1087 46.0843C11.6421 46.2048 11.2638 46.3623 11.0395 46.6225C10.4583 47.2191 10.4583 48.3206 10.4762 49.4865C10.4762 49.6512 10.4762 49.8147 10.4762 49.9781C10.4762 50.903 10.4583 52.4281 10.4285 54.2217C10.3831 56.6895 10.3473 59.7491 10.3473 62.3625C10.3473 65.7898 12.6898 65.9832 12.95 65.9939C13.4392 65.9939 13.8199 66.4008 13.8199 66.8818C13.8199 67.0882 13.7447 67.2803 13.6135 67.4306C13.6099 67.4306 13.6099 67.4306 13.598 67.4306C13.598 67.4306 13.598 67.4306 13.5848 67.4306C12.0765 67.4199 9.23633 66.2755 9.23633 62.0642C9.23633 59.4615 9.28286 56.3792 9.32582 53.9185C9.35208 52.1596 9.37594 50.6405 9.37594 49.7312C9.37594 49.5569 9.37595 49.4149 9.36521 49.2633C9.35208 47.8659 9.32582 46.2681 10.4571 45.1452C10.7495 44.8385 11.117 44.5986 11.5478 44.4101C12.0765 44.2597 12.6922 44.2036 13.413 44.2036H21.7257C22.2198 44.2036 22.6064 44.5998 22.6064 45.0629C22.6076 45.3385 22.493 45.5569 22.3319 45.7383Z" fill="#686867"/>
<path opacity="0.5" d="M22.3319 45.7382C22.1648 45.8779 21.9548 45.9733 21.7269 45.9733H13.4141C12.9046 45.9733 12.4798 46.0019 12.1086 46.0843C11.642 46.2048 11.2638 46.3623 11.0394 46.6225C10.4583 47.2191 10.4583 48.3206 10.4762 49.4865C10.4762 49.6512 10.4762 49.8146 10.4762 49.9781C10.4762 50.903 10.4582 52.4281 10.4284 54.2217C10.3831 56.6895 10.3473 59.7491 10.3473 62.3625C10.3473 65.0201 11.7375 65.723 12.4977 65.927C11.8664 65.8447 10.0645 65.3268 10.0645 62.3101C10.0645 59.7074 10.1146 56.6405 10.1492 54.1536C10.1754 52.3887 10.1969 50.8409 10.1969 49.9244C10.1969 49.7419 10.1969 49.5784 10.1969 49.4244C10.1862 48.2573 10.1754 47.1715 10.7494 46.5605C10.9976 46.3182 11.3652 46.1249 11.8437 46.0401C12.2029 45.9554 12.6206 45.9053 13.1277 45.9053H21.4608C22.0515 45.9065 22.493 45.5568 22.3319 45.7382Z" fill="#C0BAC4"/>
<path opacity="0.5" d="M22.3326 45.7383C22.1656 45.8779 21.9556 45.9734 21.7276 45.9734H13.4149C12.9053 45.9734 12.4805 46.002 12.1094 46.0843C12.5807 45.8492 13.2216 45.7383 14.0784 45.7383H22.3326Z" fill="#C0BAC4"/>
<path d="M22.6074 42.1176C22.6074 42.1176 24.7315 36.4624 30.8235 36.4624H82.3457L30.8235 37.0925C30.8235 37.0925 26.6015 37.0257 22.6074 42.1176Z" fill="white"/>
<path d="M98.1661 145.617C97.9919 145.617 97.7807 145.584 97.5778 145.513C96.7246 145.17 96.3045 144.218 96.6291 143.352C96.7186 143.152 104.888 122.831 124.421 123.349C143.413 123.824 148.54 132.627 152.877 143.223C153.209 144.071 152.816 145.045 151.959 145.384C151.107 145.734 150.137 145.323 149.802 144.483C145.775 134.657 141.339 127.097 124.34 126.669C117.182 126.491 110.858 129.404 105.613 135.333C101.61 139.858 99.7449 144.522 99.7342 144.564C99.4716 145.221 98.8475 145.617 98.1661 145.617Z" fill="#F08B00"/>
<path d="M97.5778 145.511C96.7246 145.169 96.3045 144.217 96.6291 143.35C96.7186 143.151 104.888 122.83 124.421 123.348C143.413 123.823 148.54 132.626 152.877 143.221C153.209 144.07 152.816 145.044 151.959 145.382C151.107 145.732 148.618 125.005 124.764 125.344C117.588 125.442 109.818 128.38 104.558 134.31C100.559 138.829 97.7807 145.583 97.5778 145.511Z" fill="#FFAF21"/>
<path d="M345.003 10.0215H358.049V40.6747H343.209L345.003 10.0215Z" fill="#686867"/>
<path d="M350.944 10.0215H345.003L343.209 40.6747H350.944V10.0215Z" fill="#686867"/>
<path d="M357.381 12.3833C357.381 12.968 356.906 13.4429 356.314 13.4429C355.73 13.4429 355.258 12.968 355.258 12.3833C355.258 11.7842 355.729 11.3057 356.314 11.3057C356.907 11.3057 357.381 11.7842 357.381 12.3833Z" fill="#A1A1A1"/>
<path d="M357.381 20.9034C357.381 21.5001 356.906 21.9702 356.314 21.9702C355.73 21.9702 355.258 21.5001 355.258 20.9034C355.258 20.3223 355.729 19.8438 356.314 19.8438C356.907 19.8438 357.381 20.3223 357.381 20.9034Z" fill="#A1A1A1"/>
<path d="M357.381 29.4374C357.381 30.0365 356.906 30.5007 356.314 30.5007C355.73 30.5007 355.258 30.0353 355.258 29.4374C355.258 28.8527 355.729 28.3789 356.314 28.3789C356.907 28.3789 357.381 28.8515 357.381 29.4374Z" fill="#A1A1A1"/>
<path d="M357.381 37.9742C357.381 38.5553 356.906 39.0374 356.314 39.0374C355.73 39.0374 355.258 38.5553 355.258 37.9742C355.258 37.3907 355.729 36.9121 356.314 36.9121C356.907 36.9121 357.381 37.3907 357.381 37.9742Z" fill="#A1A1A1"/>
<path d="M340.247 47.1904V126.115H239.66L340.247 47.1904Z" fill="#686867"/>
<path d="M326.498 91.4118C325.625 88.3234 318.371 88.4022 318.557 88.1958C325.838 80.1933 332.792 73.3495 340.245 66.2349V47.1904L239.658 126.115H327.931C327.861 125.355 326.91 92.8378 326.498 91.4118Z" fill="#4B4C4B"/>
<path opacity="0.3" d="M280.665 116.787C288.273 109.022 295.951 101.347 303.686 93.7233C311.385 86.148 335.936 59.7431 340.247 55.5211V47.1904L239.66 126.115H271.868C274.772 122.959 277.69 119.838 280.665 116.787Z" fill="#4B4C4B"/>
<path d="M317.695 9.37949V1.24219H345.496V12.4333L317.695 9.37949Z" fill="#686867"/>
<path d="M211.132 14.3524L167.016 32.3944C167.016 32.3944 163.104 33.7739 161.895 37.2823C160.676 40.7884 155.677 71.1706 161.895 95.0994C161.895 95.0994 170.819 122.91 184.991 125.346H265.556L345.819 46.5402C345.819 46.5402 348.722 44.718 349.096 40.3074V13.2259C349.096 13.2259 348.126 6.74139 342.861 5.39411L301.424 1.82008C301.424 1.82008 298.244 1.56352 295.194 1.82008C292.149 2.07307 214.917 13.2259 214.917 13.2259C214.917 13.2259 212.237 13.8918 211.132 14.3524Z" fill="#FFAF21"/>
<path opacity="0.4" d="M163.367 34.875C162.757 35.5278 162.228 36.3237 161.893 37.282C160.674 40.788 155.675 71.1703 161.893 95.099C161.893 95.099 170.817 122.91 184.989 125.345H188.937C169.943 99.9427 164.847 66.3695 163.367 34.875Z" fill="#FFAF21"/>
<path opacity="0.4" d="M219.447 33.6392L306.593 13.4433L348.586 11.3C348.486 11.022 348.371 10.7499 348.253 10.4575H305.213L219.447 26.4733L164.248 48.4485C162.986 50.3853 160.953 54.5571 159.108 58.4987C159.013 60.1956 158.941 61.9368 158.898 63.7303C161.07 61.506 163.651 58.6992 165.06 56.5489L219.447 33.6392Z" fill="#FFCA4C"/>
<path opacity="0.4" d="M238.322 88.7659L176.821 104.172L161.893 95.099C161.893 95.099 170.816 122.91 184.988 125.345H265.554L345.816 46.5398C345.816 46.5398 348.72 44.7176 349.093 40.307V26.4238L318.584 52.8418L238.322 88.7659Z" fill="#FFAF21"/>
<path opacity="0.4" d="M250.305 109.985L186.344 121.676L171.055 114.109C171.055 114.109 179.193 125.346 184.989 125.346H265.555L345.817 46.5404C345.817 46.5404 348.721 44.7182 349.094 40.3076L320.853 68.1576L250.305 109.985Z" fill="#9E7119"/>
<path d="M163.451 36.6411C163.451 36.6411 164.508 80.4973 180.734 111.81C180.734 111.81 161.234 81.3553 163.451 36.6411Z" fill="#DD8202"/>
<path d="M321.435 73.8089C320.78 73.8089 320.198 73.3029 320.134 72.6251C314.147 17.591 296.971 2.49525 296.788 2.35085C296.232 1.87352 296.168 1.03225 296.627 0.472576C297.113 -0.0906771 297.951 -0.159851 298.496 0.318675C299.244 0.936822 316.662 16.2485 322.768 72.3327C322.836 73.0666 322.322 73.7242 321.587 73.8089C321.542 73.8089 321.481 73.8089 321.435 73.8089Z" fill="#DD8202"/>
<path opacity="0.4" d="M321.436 73.8089C320.781 73.8089 320.177 73.3029 320.134 72.6251C316.243 13.4429 296.168 1.03225 296.629 0.472576C297.115 -0.0906771 297.952 -0.159851 298.498 0.318675C299.246 0.936822 316.664 16.2485 322.77 72.3327C322.838 73.0666 322.324 73.7242 321.589 73.8089C321.542 73.8089 321.481 73.8089 321.436 73.8089Z" fill="#9E7119"/>
<path d="M216.365 13.4429C216.365 13.4429 232.617 50.3789 251.04 111.81C251.04 111.81 225.603 49.2297 216.365 13.4429Z" fill="#DD8202"/>
<path d="M357.384 59.5605H311.029V65.4556H357.384V59.5605Z" fill="#686867"/>
<path d="M357.384 62.5112H311.029V65.4564H357.384V62.5112Z" fill="#4B4C4B"/>
<path opacity="0.4" d="M352.971 31.2056C352.971 31.2056 304.819 46.9826 287.561 54.1414C270.283 61.2883 268.2 91.8042 260.975 122.445L303.081 125.12C303.081 125.12 301.637 80.5129 312.364 70.3421C323.096 60.1701 352.97 41.5469 352.97 41.5469L352.971 31.2056Z" fill="#9E7119"/>
<path d="M350.641 31.2056C350.641 31.2056 309.392 46.7189 292.115 53.8621C274.842 61.0114 268.542 94.4856 261.297 125.12H300.744C300.744 125.12 299.296 80.5129 310.028 70.3421C320.765 60.1701 350.641 41.5469 350.641 41.5469V31.2056Z" fill="#FFAF21"/>
<path opacity="0.4" d="M271.367 92.0754L279.584 70.3782C279.584 70.3782 284.798 59.9151 296.325 53.7563C307.828 47.5831 348.585 32.9434 348.585 32.9434V37.7549C348.585 37.7549 301.05 55.9926 296.628 63.7313C292.212 71.4737 289.956 92.0766 289.956 92.0766L271.367 92.0754Z" fill="#FFCA4C"/>
<path d="M353.236 0C352.423 0 351.767 0.449873 351.767 0.98568V7.44763H331.756V0.98568C331.756 0.451067 331.1 0 330.29 0C329.477 0 328.82 0.449873 328.82 0.98568V118.376C328.82 118.916 329.477 119.357 330.29 119.357C331.098 119.357 331.756 118.916 331.756 118.376V112.874H351.767V118.376C351.767 118.916 352.423 119.357 353.236 119.357C354.052 119.357 354.698 118.916 354.698 118.376V0.98568C354.698 0.451067 354.052 0 353.236 0ZM331.756 66.5653V53.7561H351.767V66.5653H331.756ZM351.767 68.5307V81.34H331.756V68.5307H351.767ZM331.756 51.7907V38.979H351.767V51.7907H331.756ZM331.756 37.0053V24.202H351.767V37.0053H331.756ZM331.756 83.3161H351.767V96.1254H331.756V83.3161ZM351.767 9.41301V22.227H331.756V9.41301H351.767ZM331.756 110.913V98.0956H351.767V110.913H331.756Z" fill="#DD8202"/>
<path opacity="0.4" d="M353.237 0.384903C353.243 0.384903 352.97 0.343131 352.706 0.528097C352.431 0.702324 352.292 1.04841 352.27 1.4625C352.27 2.33244 352.27 3.59973 352.292 5.21789C352.313 8.45182 352.355 13.0701 352.403 18.6167C352.431 29.6968 352.477 44.4714 352.534 59.2568C352.477 74.0362 352.431 88.8145 352.403 99.9053C352.31 110.99 352.246 118.375 352.246 118.375C352.246 118.375 352.186 110.99 352.09 99.9053C352.036 88.8145 351.997 74.0362 351.943 59.2568C351.997 44.4714 352.036 29.6968 352.09 18.6167C352.128 13.0701 352.169 8.45182 352.193 5.21789C352.214 3.59854 352.232 2.33244 352.246 1.4625C352.27 1.03171 352.431 0.703517 352.7 0.528097C352.97 0.343131 353.243 0.384903 353.237 0.384903Z" fill="white"/>
<path opacity="0.4" d="M330.247 0.385627C330.26 0.385627 329.99 0.353402 329.727 0.528822C329.459 0.703048 329.309 1.04911 329.285 1.47393C329.285 2.34029 329.285 3.6172 329.309 5.22939C329.333 8.45259 329.373 13.0708 329.415 18.6174C329.452 29.7047 329.494 44.4805 329.548 59.2575C329.494 74.0369 329.452 88.8259 329.415 99.906C329.322 110.991 329.265 118.375 329.265 118.375C329.265 118.375 329.191 110.991 329.097 99.906C329.064 88.8259 329.005 74.0369 328.957 59.2575C329.005 44.4805 329.063 29.7035 329.097 18.6174C329.143 13.0708 329.179 8.45259 329.218 5.22939C329.229 3.6172 329.242 2.34029 329.265 1.47393C329.284 1.04911 329.452 0.703048 329.727 0.528822C329.992 0.353402 330.261 0.385627 330.247 0.385627Z" fill="white"/>
<path opacity="0.4" d="M332.76 7.86774C332.76 7.86774 333.876 7.79733 335.547 7.74363C336.374 7.71976 337.355 7.67557 338.394 7.66125C339.431 7.64096 340.557 7.641 341.656 7.62549C342.779 7.63981 343.889 7.63977 344.922 7.66125C345.978 7.67557 346.941 7.71972 347.779 7.73285C349.459 7.79729 350.567 7.86774 350.567 7.86774C350.567 7.86774 349.458 7.95485 347.779 8.01093C346.941 8.03241 345.977 8.08251 344.922 8.08967C343.889 8.11353 342.779 8.11356 341.656 8.11356C340.557 8.11356 339.431 8.11353 338.394 8.08967C337.355 8.0658 336.374 8.03361 335.547 8.01093C333.876 7.95485 332.76 7.86774 332.76 7.86774Z" fill="white"/>
<path opacity="0.4" d="M332.76 22.7401C332.76 22.7401 333.876 22.6613 335.547 22.6112C336.374 22.5897 337.355 22.5396 338.394 22.5288C339.431 22.505 340.557 22.5049 341.656 22.4966C342.779 22.5049 343.889 22.505 344.922 22.5288C345.978 22.5396 346.941 22.5897 347.779 22.604C349.459 22.6613 350.567 22.7388 350.567 22.7388C350.567 22.7388 349.458 22.8236 347.779 22.8809C346.941 22.9071 345.977 22.9346 344.922 22.9608C343.889 22.9775 342.779 22.9882 341.656 22.9882C340.557 22.9882 339.431 22.9775 338.394 22.9608C337.355 22.9346 336.374 22.9071 335.547 22.8809C333.876 22.8248 332.76 22.7401 332.76 22.7401Z" fill="white"/>
<path opacity="0.4" d="M332.76 37.6103C332.76 37.6103 333.876 37.5256 335.547 37.4707C336.374 37.4468 337.355 37.411 338.394 37.4003C339.431 37.3752 340.557 37.3752 341.656 37.3633C342.779 37.374 343.889 37.374 344.922 37.4003C345.978 37.411 346.941 37.4468 347.779 37.4707C349.459 37.5244 350.567 37.6103 350.567 37.6103C350.567 37.6103 349.458 37.6927 347.779 37.7535C346.941 37.7738 345.977 37.8096 344.922 37.8323C343.889 37.8537 342.779 37.8538 341.656 37.8538C340.557 37.8538 339.431 37.8537 338.394 37.8323C337.355 37.8108 336.374 37.7738 335.547 37.7535C333.876 37.6927 332.76 37.6103 332.76 37.6103Z" fill="white"/>
<path opacity="0.4" d="M332.76 52.4828C332.76 52.4828 333.876 52.3957 335.547 52.3432C336.374 52.3169 337.355 52.2752 338.394 52.268C339.431 52.2465 340.557 52.2334 341.656 52.2334C342.779 52.2334 343.889 52.2465 344.922 52.262C345.978 52.2775 346.941 52.3193 347.779 52.3444C349.459 52.3969 350.567 52.484 350.567 52.484C350.567 52.484 349.458 52.5687 347.779 52.6188C346.941 52.6475 345.977 52.6797 344.922 52.7036C343.889 52.7191 342.779 52.7334 341.656 52.7334C340.557 52.7334 339.431 52.7191 338.394 52.6904C337.355 52.6797 336.374 52.6475 335.547 52.6188C333.876 52.5675 332.76 52.4828 332.76 52.4828Z" fill="white"/>
<path opacity="0.4" d="M332.76 67.1855C332.76 67.1855 333.876 67.1044 335.547 67.0459C336.374 67.022 337.355 66.9898 338.394 66.9779C339.431 66.9528 340.557 66.9385 341.656 66.9385C342.779 66.9385 343.889 66.9516 344.922 66.9671C345.978 66.9886 346.941 67.0208 347.779 67.0459C349.459 67.1044 350.567 67.1855 350.567 67.1855C350.567 67.1855 349.458 67.2679 347.779 67.3252C346.941 67.3538 345.977 67.386 344.922 67.3968C343.889 67.4218 342.779 67.4314 341.656 67.4314C340.557 67.4314 339.431 67.4206 338.394 67.3968C337.355 67.386 336.374 67.3538 335.547 67.3252C333.876 67.2679 332.76 67.1855 332.76 67.1855Z" fill="white"/>
<path opacity="0.4" d="M332.76 81.9995C332.76 81.9995 333.876 81.9148 335.547 81.8599C336.374 81.8467 337.355 81.7966 338.394 81.7811C339.431 81.7679 340.557 81.768 341.656 81.7524C342.779 81.7668 343.889 81.7667 344.922 81.7811C345.978 81.7954 346.941 81.8456 347.779 81.8599C349.459 81.9136 350.567 81.9995 350.567 81.9995C350.567 81.9995 349.458 82.0818 347.779 82.1391C346.941 82.1641 345.977 82.1952 344.922 82.2214C343.889 82.2322 342.779 82.2393 341.656 82.2393C340.557 82.2393 339.431 82.2322 338.394 82.2214C337.355 82.1952 336.374 82.1641 335.547 82.1391C333.876 82.0818 332.76 81.9995 332.76 81.9995Z" fill="white"/>
<path opacity="0.4" d="M332.76 96.9335C332.76 96.9335 333.876 96.844 335.547 96.7879C336.374 96.7628 337.355 96.7342 338.394 96.7091C339.431 96.6841 340.557 96.6841 341.656 96.6841C342.779 96.6841 343.889 96.6841 344.922 96.7091C345.978 96.733 346.941 96.7616 347.779 96.7879C349.459 96.8452 350.567 96.9335 350.567 96.9335C350.567 96.9335 349.458 97.0122 347.779 97.0647C346.941 97.0755 345.977 97.1256 344.922 97.1471C343.889 97.1602 342.779 97.1602 341.656 97.1709C340.557 97.1602 339.431 97.1602 338.394 97.1471C337.355 97.1256 336.374 97.0755 335.547 97.0647C333.876 97.011 332.76 96.9335 332.76 96.9335Z" fill="white"/>
<path opacity="0.4" d="M332.76 111.468C332.76 111.468 333.876 111.384 335.547 111.326C336.374 111.305 337.355 111.258 338.394 111.248C339.431 111.218 340.557 111.218 341.656 111.218C342.779 111.218 343.889 111.218 344.922 111.248C345.978 111.258 346.941 111.305 347.779 111.326C349.459 111.384 350.567 111.468 350.567 111.468C350.567 111.468 349.458 111.536 347.779 111.612C346.941 111.619 345.977 111.669 344.922 111.675C343.889 111.703 342.779 111.703 341.656 111.714C340.557 111.703 339.431 111.703 338.394 111.675C337.355 111.668 336.374 111.618 335.547 111.612C333.876 111.536 332.76 111.468 332.76 111.468Z" fill="white"/>
<path opacity="0.4" d="M320.378 125.074C320.449 125.02 320.502 124.952 320.567 124.875C320.58 124.853 320.589 124.843 320.614 124.818C320.689 124.717 320.764 124.622 320.831 124.5C320.831 124.493 320.831 124.482 320.853 124.472C320.909 124.361 320.971 124.247 321.035 124.117C321.035 124.086 321.06 124.057 321.07 124.029C321.215 123.735 321.348 123.429 321.466 123.077C321.479 123.044 321.479 123.016 321.505 122.98C321.552 122.824 321.619 122.63 321.676 122.451C321.676 122.444 321.68 122.433 321.697 122.423C321.751 122.209 321.806 121.987 321.88 121.759C321.88 121.759 321.88 121.759 321.88 121.746C321.936 121.524 321.997 121.304 322.044 121.067C322.044 121.054 322.044 121.032 322.052 121.018C322.168 120.529 322.276 120.001 322.372 119.448C322.372 119.44 322.372 119.427 322.372 119.406C322.472 118.859 322.561 118.275 322.65 117.65C322.65 117.643 322.65 117.643 322.65 117.63C322.956 115.294 323.131 112.566 323.131 109.669C323.131 107.045 322.98 104.583 322.732 102.412V102.398C322.135 97.3232 320.97 93.8566 319.585 93.8566H315.652L314.582 90.2932C314.259 88.6596 312.994 85.9531 310.377 85.9531H290.332C287.717 85.9531 286.465 88.6584 286.13 90.2932L285.068 93.8566H280.378V93.5105C280.378 92.7158 279.726 92.0737 278.924 92.0737C278.128 92.0737 277.493 92.7158 277.493 93.5105V93.8566H271.891L270.829 90.2932C270.494 88.6596 269.239 85.9531 266.606 85.9531H246.57C243.963 85.9531 242.714 88.6584 242.366 90.2932L241.311 93.8566H237.78C236.428 93.8566 235.233 97.3232 234.652 102.398V102.412C234.388 104.583 234.25 107.044 234.25 109.669C234.25 112.566 234.425 115.294 234.731 117.63C234.739 117.643 234.739 117.643 234.739 117.65C234.813 118.275 234.903 118.86 234.998 119.406C234.998 119.427 235.007 119.44 235.007 119.448C235.113 120.001 235.213 120.529 235.326 121.018C235.326 121.031 235.326 121.054 235.342 121.067C235.394 121.303 235.442 121.524 235.513 121.746C235.513 121.759 235.513 121.759 235.513 121.759C235.566 121.987 235.632 122.209 235.702 122.423C235.702 122.433 235.702 122.444 235.702 122.451C235.77 122.629 235.82 122.822 235.892 122.98C235.892 123.014 235.906 123.043 235.906 123.077C236.038 123.429 236.17 123.736 236.305 124.029C236.326 124.057 236.334 124.086 236.355 124.117C236.412 124.247 236.477 124.361 236.545 124.472C236.545 124.482 236.545 124.493 236.555 124.5C236.624 124.622 236.695 124.717 236.773 124.818C236.773 124.841 236.801 124.852 236.823 124.875C236.873 124.954 236.941 125.02 236.995 125.074C237.013 125.099 237.036 125.106 237.044 125.135C237.112 125.207 237.198 125.259 237.268 125.312C237.279 125.322 237.294 125.322 237.308 125.326C237.377 125.369 237.433 125.405 237.504 125.426C237.533 125.426 237.535 125.441 237.55 125.448C237.624 125.469 237.717 125.482 237.781 125.482C238.075 125.482 238.356 125.321 238.627 125.037V125.482H254.453C254.612 126.081 255.164 126.513 255.816 126.513C256.477 126.513 257.026 126.081 257.197 125.482H277.564C277.739 126.081 278.272 126.513 278.927 126.513C279.587 126.513 280.131 126.081 280.314 125.482H301.052C301.237 126.081 301.772 126.513 302.429 126.513C303.084 126.513 303.633 126.081 303.808 125.482H319.589C319.687 125.482 319.754 125.469 319.824 125.448C319.849 125.441 319.87 125.426 319.896 125.426C319.953 125.405 320.014 125.369 320.08 125.326C320.091 125.322 320.107 125.322 320.113 125.312C320.199 125.259 320.263 125.207 320.342 125.135C320.36 125.106 320.37 125.098 320.378 125.074ZM288.049 90.8195L288.062 90.7348C288.081 90.7049 288.697 87.9603 290.359 87.9603H310.394C312.031 87.9603 312.64 90.7049 312.64 90.7348L313.571 93.8577H303.874V93.5117C303.874 92.7169 303.219 92.0749 302.424 92.0749C301.636 92.0749 301 92.7169 301 93.5117V93.8577H287.144L288.049 90.8195ZM244.291 90.8195L244.312 90.7348C244.325 90.7049 244.935 87.9603 246.59 87.9603H266.625C268.27 87.9603 268.873 90.7049 268.873 90.7348L269.803 93.8577H257.261V93.5117C257.261 92.7169 256.612 92.0749 255.812 92.0749C255.021 92.0749 254.379 92.7169 254.379 93.5117V93.8577H243.387L244.291 90.8195Z" fill="#323231"/>
<path d="M271.51 98.1872H238.322L240.676 90.2957C241.029 88.662 242.27 85.9556 244.877 85.9556H264.919C267.554 85.9556 268.807 88.6608 269.142 90.2957L271.51 98.1872ZM241.007 96.1907H268.827L267.195 90.7348C267.195 90.705 266.585 87.9604 264.948 87.9604H244.917C243.25 87.9604 242.645 90.705 242.63 90.7348L242.61 90.8196L241.007 96.1907Z" fill="#2E2F2D"/>
<path d="M284.764 96.1907H312.602L310.962 90.7348C310.962 90.705 310.355 87.9604 308.722 87.9604H288.668C287.007 87.9604 286.393 90.705 286.393 90.7348L286.367 90.8196L284.764 96.1907ZM315.26 98.1872H282.094L284.447 90.2957C284.791 88.662 286.045 85.9556 288.638 85.9556H308.702C311.313 85.9556 312.582 88.6608 312.906 90.2957L315.26 98.1872Z" fill="#2E2F2D"/>
<path d="M317.911 93.8579H236.101C234.153 93.8579 232.562 100.933 232.562 109.671C232.562 118.401 234.153 125.484 236.101 125.484C236.386 125.484 236.658 125.323 236.938 125.039V125.484H317.911C319.868 125.484 321.449 118.401 321.449 109.671C321.449 100.933 319.868 93.8579 317.911 93.8579Z" fill="#4B4C4B"/>
<path d="M321.289 105.052C321.221 104.127 321.142 103.237 321.036 102.399H232.963C232.865 103.237 232.788 104.129 232.73 105.052H321.289Z" fill="#4B4C4B"/>
<path opacity="0.7" d="M232.938 116.683C233.516 121.896 234.718 125.483 236.101 125.483C236.386 125.483 236.658 125.322 236.939 125.038V125.483H317.911C319.295 125.483 320.503 121.896 321.071 116.683H232.938Z" fill="#4B4C4B"/>
<path d="M278.696 125.074C278.696 125.869 278.045 126.515 277.247 126.515C276.459 126.515 275.809 125.869 275.809 125.074V93.5129C275.809 92.7182 276.459 92.0762 277.247 92.0762C278.045 92.0762 278.696 92.7182 278.696 93.5129V125.074Z" fill="#323231"/>
<path d="M255.577 125.074C255.577 125.869 254.928 126.515 254.132 126.515C253.339 126.515 252.697 125.869 252.697 125.074V93.5129C252.697 92.7182 253.339 92.0762 254.132 92.0762C254.928 92.0762 255.577 92.7182 255.577 93.5129V125.074Z" fill="#323231"/>
<path d="M302.197 125.074C302.197 125.869 301.534 126.515 300.741 126.515C299.949 126.515 299.305 125.869 299.305 125.074V93.5129C299.305 92.7182 299.949 92.0762 300.741 92.0762C301.534 92.0762 302.197 92.7182 302.197 93.5129V125.074Z" fill="#323231"/>
<path d="M338.831 72.6465C338.831 73.1035 338.46 73.4603 337.992 73.4603C337.531 73.4603 337.174 73.1035 337.174 72.6465C337.174 72.1763 337.531 71.8159 337.992 71.8159C338.459 71.8147 338.831 72.1763 338.831 72.6465Z" fill="#4B4C4B"/>
<path d="M338.831 79.7357C338.831 80.1927 338.46 80.5698 337.992 80.5698C337.531 80.5698 337.174 80.1927 337.174 79.7357C337.174 79.2822 337.531 78.9087 337.992 78.9087C338.459 78.9087 338.831 79.2834 338.831 79.7357Z" fill="#4B4C4B"/>
<path d="M338.831 86.8539C338.831 87.3026 338.46 87.6809 337.992 87.6809C337.531 87.6809 337.174 87.3026 337.174 86.8539C337.174 86.3969 337.531 86.0186 337.992 86.0186C338.459 86.0186 338.831 86.3969 338.831 86.8539Z" fill="#4B4C4B"/>
<path d="M338.831 93.9582C338.831 94.4117 338.46 94.7852 337.992 94.7852C337.531 94.7852 337.174 94.4105 337.174 93.9582C337.174 93.5012 337.531 93.124 337.992 93.124C338.459 93.124 338.831 93.5012 338.831 93.9582Z" fill="#4B4C4B"/>
<path d="M338.831 101.062C338.831 101.519 338.46 101.882 337.992 101.882C337.531 101.882 337.174 101.518 337.174 101.062C337.174 100.599 337.531 100.235 337.992 100.235C338.459 100.235 338.831 100.598 338.831 101.062Z" fill="#4B4C4B"/>
<path d="M338.831 108.163C338.831 108.615 338.46 108.993 337.992 108.993C337.531 108.993 337.174 108.615 337.174 108.163C337.174 107.702 337.531 107.331 337.992 107.331C338.459 107.332 338.831 107.702 338.831 108.163Z" fill="#4B4C4B"/>
<path d="M338.831 115.27C338.831 115.722 338.46 116.097 337.992 116.097C337.531 116.097 337.174 115.722 337.174 115.27C337.174 114.81 337.531 114.435 337.992 114.435C338.459 114.435 338.831 114.81 338.831 115.27Z" fill="#4B4C4B"/>
<path d="M338.831 122.371C338.831 122.831 338.46 123.209 337.992 123.209C337.531 123.209 337.174 122.831 337.174 122.371C337.174 121.917 337.531 121.544 337.992 121.544C338.459 121.544 338.831 121.917 338.831 122.371Z" fill="#4B4C4B"/>
<defs>
<linearGradient id="paint0_linear_562_32702" x1="206.715" y1="149.312" x2="206.715" y2="123.24" gradientUnits="userSpaceOnUse">
<stop stop-color="#B6B8B9"/>
<stop offset="1" stop-color="#242626"/>
</linearGradient>
<radialGradient id="paint1_radial_562_32702" cx="0" cy="0" r="1" gradientUnits="userSpaceOnUse" gradientTransform="translate(323.796 154.357) scale(27.4359 27.4358)">
<stop offset="0.394" stop-color="#1E211D"/>
<stop offset="0.4699" stop-color="#232622"/>
<stop offset="0.5613" stop-color="#323430"/>
<stop offset="0.6603" stop-color="#4A4B47"/>
<stop offset="0.7099" stop-color="#595956"/>
<stop offset="0.7577" stop-color="#696866"/>
<stop offset="0.8504" stop-color="#91918F"/>
<stop offset="0.918" stop-color="#B3B2B1"/>
</radialGradient>
<radialGradient id="paint2_radial_562_32702" cx="0" cy="0" r="1" gradientUnits="userSpaceOnUse" gradientTransform="translate(253.449 154.357) scale(27.4368 27.4368)">
<stop offset="0.394" stop-color="#1E211D"/>
<stop offset="0.4699" stop-color="#232622"/>
<stop offset="0.5613" stop-color="#323430"/>
<stop offset="0.6603" stop-color="#4A4B47"/>
<stop offset="0.7099" stop-color="#595956"/>
<stop offset="0.7577" stop-color="#696866"/>
<stop offset="0.8504" stop-color="#91918F"/>
<stop offset="0.918" stop-color="#B3B2B1"/>
</radialGradient>
<radialGradient id="paint3_radial_562_32702" cx="0" cy="0" r="1" gradientUnits="userSpaceOnUse" gradientTransform="translate(125.056 154.357) scale(27.4283 27.4282)">
<stop offset="0.394" stop-color="#1E211D"/>
<stop offset="0.4699" stop-color="#232622"/>
<stop offset="0.5613" stop-color="#323430"/>
<stop offset="0.6603" stop-color="#4A4B47"/>
<stop offset="0.7099" stop-color="#595956"/>
<stop offset="0.7577" stop-color="#696866"/>
<stop offset="0.8504" stop-color="#91918F"/>
<stop offset="0.918" stop-color="#B3B2B1"/>
</radialGradient>
<radialGradient id="paint4_radial_562_32702" cx="0" cy="0" r="1" gradientUnits="userSpaceOnUse" gradientTransform="translate(72.2297 154.078) scale(27.4267 27.4267)">
<stop offset="0.394" stop-color="#1E211D"/>
<stop offset="0.4699" stop-color="#232622"/>
<stop offset="0.5613" stop-color="#323430"/>
<stop offset="0.6603" stop-color="#4A4B47"/>
<stop offset="0.7099" stop-color="#595956"/>
<stop offset="0.7577" stop-color="#696866"/>
<stop offset="0.8504" stop-color="#91918F"/>
<stop offset="0.918" stop-color="#B3B2B1"/>
</radialGradient>
<radialGradient id="paint5_radial_562_32702" cx="0" cy="0" r="1" gradientUnits="userSpaceOnUse" gradientTransform="translate(72.7035 154.356) scale(27.4244 27.4243)">
<stop offset="0.394" stop-color="#1E211D"/>
<stop offset="0.4699" stop-color="#232622"/>
<stop offset="0.5613" stop-color="#323430"/>
<stop offset="0.6603" stop-color="#4A4B47"/>
<stop offset="0.7099" stop-color="#595956"/>
<stop offset="0.7577" stop-color="#696866"/>
<stop offset="0.8504" stop-color="#91918F"/>
<stop offset="0.918" stop-color="#B3B2B1"/>
</radialGradient>
<radialGradient id="paint6_radial_562_32702" cx="0" cy="0" r="1" gradientUnits="userSpaceOnUse" gradientTransform="translate(22.2827 44.911) scale(1.22237 1.92058)">
<stop stop-color="white"/>
<stop offset="0.2702" stop-color="white"/>
<stop offset="0.3815" stop-color="#FDFCFD"/>
<stop offset="0.4516" stop-color="#F5F4F5"/>
<stop offset="0.5105" stop-color="#E7E5E9"/>
<stop offset="0.5627" stop-color="#D5D1D7"/>
<stop offset="0.6043" stop-color="#C0BAC4"/>
<stop offset="0.621" stop-color="#C8C3CC"/>
<stop offset="0.678" stop-color="#E0DDE2"/>
<stop offset="0.7365" stop-color="#F1F0F2"/>
<stop offset="0.797" stop-color="#FCFBFC"/>
<stop offset="0.8623" stop-color="white"/>
<stop offset="0.9072" stop-color="#FDFCFD"/>
<stop offset="0.9363" stop-color="#F5F4F5"/>
<stop offset="0.961" stop-color="#E7E5E9"/>
<stop offset="0.9831" stop-color="#D4D0D7"/>
<stop offset="1" stop-color="#C0BAC4"/>
</radialGradient>
</defs>
</svg>
