<svg width="362" height="201" viewBox="0 0 362 201" fill="none" xmlns="http://www.w3.org/2000/svg">
<path d="M216.092 0.125977L239.257 2.14231L255.062 23.2608L219.954 26.6579L216.092 0.125977Z" fill="#FF6857"/>
<path d="M140.174 20.8657L150.696 4.30274L216.092 0.125977L242.117 28.2673L140.174 20.8657Z" fill="white"/>
<path d="M167.572 3.22461L150.696 4.30281L140.174 20.8658L163.555 22.5633L167.572 3.22461Z" fill="#5879D6"/>
<path d="M235.576 22.5632L235.913 21.5592L216.091 0.125977L191.145 1.7193L194.788 16.9795L199.514 25.1747L235.576 22.5632Z" fill="#EA433F"/>
<path d="M194.791 16.9795L98.5559 21.2045L48.0234 108.891L194.955 100.115L194.791 16.9795Z" fill="#3E54C1"/>
<path d="M99.8082 30.864L185.737 27.1582L177.279 102.707L61.4434 98.3341L99.8082 30.864Z" fill="#939598"/>
<path d="M69.0153 85.0178L61.4434 98.3338L64.8505 98.4621L133.92 29.3926L124.222 29.8116L69.0153 85.0178Z" fill="white"/>
<path d="M152.984 28.5714L82.4297 99.126L107.13 100.06L179.773 27.417L152.984 28.5714Z" fill="white"/>
<path d="M184.119 41.6123L124.998 100.733L133.941 101.072L182.95 52.0623L184.119 41.6123Z" fill="white"/>
<path d="M348.437 106.456H277.375V170.501H348.437V106.456Z" fill="#211F21"/>
<path d="M282.18 121.499C267.202 121.499 255.061 139.295 255.061 161.249C255.061 183.201 267.202 200.996 282.18 200.996H314.402V121.499H282.18Z" fill="#302D30"/>
<path d="M273.509 161.249C273.509 139.297 285.65 121.499 300.628 121.499H292.707C277.729 121.499 265.588 139.295 265.588 161.249C265.588 183.201 277.729 200.996 292.707 200.996H300.628C285.65 200.996 273.509 183.201 273.509 161.249Z" fill="#211F21"/>
<path d="M314.404 200.998C329.382 200.998 341.523 183.202 341.523 161.249C341.523 139.296 329.382 121.499 314.404 121.499C299.427 121.499 287.285 139.296 287.285 161.249C287.285 183.202 299.427 200.998 314.404 200.998Z" fill="#544E54"/>
<path d="M314.404 186.585C309.345 186.585 301.697 176.479 301.697 161.249C301.697 146.019 309.345 135.914 314.404 135.914C319.463 135.914 327.109 146.019 327.109 161.249C327.109 176.479 319.463 186.585 314.404 186.585Z" fill="#75767F"/>
<path d="M309.43 175.357C306.351 175.357 301.697 169.731 301.697 161.249C301.697 152.769 306.351 147.142 309.43 147.142C312.508 147.142 317.162 152.767 317.162 161.249C317.162 169.729 312.508 175.357 309.43 175.357Z" fill="#302D30"/>
<path d="M242.364 170.501H162.744V96.8495L242.364 90.8789V170.501Z" fill="#211F21"/>
<path d="M167.295 121.498C152.317 121.498 140.176 139.294 140.176 161.248C140.176 183.2 152.317 200.995 167.295 200.995H199.517V121.498H167.295Z" fill="#302D30"/>
<path d="M158.624 161.248C158.624 139.296 170.765 121.498 185.743 121.498H177.822C162.845 121.498 150.703 139.294 150.703 161.248C150.703 183.2 162.845 200.995 177.822 200.995H185.743C170.765 200.995 158.624 183.2 158.624 161.248Z" fill="#211F21"/>
<path d="M199.52 200.998C214.497 200.998 226.639 183.201 226.639 161.248C226.639 139.295 214.497 121.498 199.52 121.498C184.542 121.498 172.4 139.295 172.4 161.248C172.4 183.201 184.542 200.998 199.52 200.998Z" fill="#544E54"/>
<path d="M199.519 186.584C194.461 186.584 186.812 176.479 186.812 161.248C186.812 146.018 194.461 135.913 199.519 135.913C204.578 135.913 212.224 146.018 212.224 161.248C212.224 176.479 204.578 186.584 199.519 186.584Z" fill="#75767F"/>
<path d="M194.545 175.356C191.466 175.356 186.812 169.73 186.812 161.248C186.812 152.768 191.466 147.141 194.545 147.141C197.623 147.141 202.277 152.766 202.277 161.248C202.277 169.728 197.623 175.356 194.545 175.356Z" fill="#302D30"/>
<path d="M53.6289 121.498C38.6513 121.498 26.5098 139.294 26.5098 161.248C26.5098 183.2 38.6513 200.995 53.6289 200.995H85.8507V121.498H53.6289Z" fill="#302D30"/>
<path d="M44.9519 161.248C44.9519 139.296 57.0935 121.498 72.0711 121.498H64.1504C49.1728 121.498 37.0312 139.294 37.0312 161.248C37.0312 183.2 49.1728 200.995 64.1504 200.995H72.0711C57.0935 200.995 44.9519 183.2 44.9519 161.248Z" fill="#211F21"/>
<path d="M85.8496 200.998C100.827 200.998 112.969 183.201 112.969 161.248C112.969 139.295 100.827 121.498 85.8496 121.498C70.8721 121.498 58.7305 139.295 58.7305 161.248C58.7305 183.201 70.8721 200.998 85.8496 200.998Z" fill="#544E54"/>
<path d="M85.8512 186.584C80.7926 186.584 73.1465 176.479 73.1465 161.248C73.1465 146.018 80.7946 135.913 85.8512 135.913C90.9099 135.913 98.556 146.018 98.556 161.248C98.556 176.479 90.9099 186.584 85.8512 186.584Z" fill="#75767F"/>
<path d="M80.8749 175.356C77.7964 175.356 73.1426 169.73 73.1426 161.248C73.1426 152.768 77.7964 147.141 80.8749 147.141C83.9534 147.141 88.6072 152.766 88.6072 161.248C88.6072 169.728 83.9534 175.356 80.8749 175.356Z" fill="#302D30"/>
<path d="M26.5103 97.7988L126.759 98.7467L136.404 169.454L7.56641 163.046L26.5103 97.7988Z" fill="#344A9B"/>
<path d="M55.7914 56.3184H71.5966L58.6093 82.0165H46.4316L55.7914 56.3184Z" fill="#544E54"/>
<path d="M126.183 129.778C126.183 135.927 120.527 140.911 113.549 140.911C106.57 140.911 100.914 135.927 100.914 129.778C100.914 123.629 106.572 118.645 113.549 118.645C120.527 118.645 126.183 123.629 126.183 129.778Z" fill="#544E54"/>
<path d="M122.45 129.94C122.45 134.938 117.85 138.991 112.178 138.991C106.504 138.991 101.906 134.938 101.906 129.94C101.906 124.941 106.506 120.889 112.178 120.889C117.85 120.889 122.45 124.941 122.45 129.94Z" fill="#FFB85A"/>
<path d="M119.13 126.886C118.611 127.862 116.815 127.92 115.118 127.018C113.42 126.116 112.466 124.595 112.985 123.619C113.504 122.643 115.3 122.585 116.996 123.487C118.691 124.389 119.649 125.912 119.13 126.886Z" fill="white"/>
<path d="M37.0309 130.851C37.0309 137 31.373 141.985 24.3963 141.985C17.4176 141.985 11.7617 137 11.7617 130.851C11.7617 124.702 17.4176 119.718 24.3963 119.718C31.373 119.72 37.0309 124.704 37.0309 130.851Z" fill="#544E54"/>
<path d="M23.0236 140.064C28.6965 140.064 33.2952 136.012 33.2952 131.013C33.2952 126.014 28.6965 121.962 23.0236 121.962C17.3507 121.962 12.752 126.014 12.752 131.013C12.752 136.012 17.3507 140.064 23.0236 140.064Z" fill="#FFB85A"/>
<path d="M29.9739 127.961C29.4548 128.937 27.659 128.995 25.9634 128.093C24.2658 127.191 23.3118 125.67 23.8309 124.694C24.35 123.718 26.1458 123.66 27.8434 124.562C29.5369 125.462 30.493 126.985 29.9739 127.961Z" fill="white"/>
<path d="M361.033 170.501L351.922 83.6619L333.074 22.0883L194.791 16.9795L186.746 95.048L126.76 98.7437L136.049 171.062L168.217 169.603C168.217 169.603 160.575 113.25 199.517 113.25C238.459 113.25 229.763 170.499 229.763 170.499L281.049 171.062C281.049 171.062 273.198 113.25 312.14 113.25C351.082 113.25 342.386 170.499 342.386 170.499L361.033 170.501Z" fill="white"/>
<path d="M333.074 22.0883L194.791 16.9795L186.746 95.0499L351.922 84.7883L333.074 22.0883Z" fill="#F1F2F2"/>
<path d="M126.76 98.7466L136.049 171.065L168.217 169.606C168.217 169.606 160.575 113.253 199.517 113.253C186.037 110.309 186.746 95.0508 186.746 95.0508L126.76 98.7466Z" fill="#5879D6"/>
<path d="M144.144 177.964L0 175.357L4.14272 150.667L141.943 151.549L144.144 177.964Z" fill="#635C63"/>
<path d="M142.517 158.409L3.03906 157.257L4.14539 150.667L141.946 151.549L142.517 158.409Z" fill="#80818A"/>
<path d="M85.8508 170.203H38.5352L42.5997 155.401H83.3816L85.8508 170.203Z" fill="white"/>
<path d="M244.455 97.5216L258.831 96.4072L259.93 102.294L245.241 103.56L244.455 97.5216Z" fill="#302D30"/>
<path d="M206.332 28.2676L196.668 84.3877L259.697 80.1889L257.692 28.2676H206.332Z" fill="#939598"/>
<path d="M257.907 33.8273L257.692 28.2676C257.68 28.2976 257.648 28.2916 257.608 28.2676H242.118L198.889 71.4966L196.668 84.3877L208.108 83.6261L257.907 33.8273Z" fill="white"/>
<path d="M204.149 54.5732H219.954L206.967 80.2693H194.789L204.149 54.5732Z" fill="#544E54"/>
<path d="M361.032 170.499L351.92 83.6605L333.073 22.0868L283.104 20.8643L306.194 80.7344L312.902 87.212L314.937 113.383C350.628 116.095 342.384 170.499 342.384 170.499H361.032Z" fill="#5879D6"/>
<path d="M263.096 28.3379L313.965 29.7048L330.099 78.8964L267.776 80.8064L263.096 28.3379Z" fill="#939598"/>
<path d="M265.596 56.3131L266.341 64.6807L301.652 29.3723L292.775 29.1338L265.596 56.3131Z" fill="white"/>
<path d="M303.662 79.7073L323.772 59.597L317.89 41.6611L279.092 80.4589L303.662 79.7073Z" fill="white"/>
<path d="M248.614 128.551L252.582 112.006L260.351 126.558L277.375 122.744L264.924 138.149L268.38 154.698L255.228 145.067L243.525 156.518L245.453 140.101L236.939 130.97L248.614 128.551Z" fill="#F9C900"/>
</svg>
