<svg width="244" height="141" viewBox="0 0 244 141" fill="none" xmlns="http://www.w3.org/2000/svg">
<path d="M78.7658 103.735L87.8598 116.126L169.344 116.068L146.19 97.9559L200.753 47.9759V40.8689L159.5 43.6019C159.5 43.6019 132.885 39.2289 110.04 59.8199C87.1948 80.4109 76.5488 85.5129 76.5488 85.5129L78.7658 103.735Z" fill="#232323"/>
<path d="M172.66 102.83C172.66 122.38 188.509 138.229 208.059 138.229C227.609 138.229 243.458 122.38 243.458 102.83C243.458 83.2789 227.609 67.4309 208.059 67.4309C188.509 67.4309 172.66 83.2789 172.66 102.83ZM183.706 102.83C183.706 89.3799 194.609 78.4759 208.06 78.4759C221.511 78.4759 232.414 89.3799 232.414 102.83C232.414 116.28 221.51 127.184 208.06 127.184C194.61 127.184 183.706 116.28 183.706 102.83Z" fill="#212121"/>
<path d="M208.06 114.009C214.234 114.009 219.239 109.004 219.239 102.83C219.239 96.6559 214.234 91.6509 208.06 91.6509C201.886 91.6509 196.881 96.6559 196.881 102.83C196.881 109.004 201.886 114.009 208.06 114.009Z" fill="url(#paint0_radial_562_22921)"/>
<path d="M183.707 102.83C183.707 116.28 194.61 127.184 208.061 127.184C221.512 127.184 232.415 116.28 232.415 102.83C232.415 89.3798 221.511 78.4758 208.061 78.4758C194.611 78.4758 183.707 89.3798 183.707 102.83ZM186.102 102.83C186.102 90.7028 195.933 80.8718 208.06 80.8718C220.187 80.8718 230.018 90.7028 230.018 102.83C230.018 114.957 220.187 124.788 208.06 124.788C195.933 124.788 186.102 114.957 186.102 102.83Z" fill="url(#paint1_linear_562_22921)"/>
<path d="M209.136 88.4568C208.92 89.5368 208.725 90.6158 208.504 91.6958C208.353 91.6898 208.212 91.6508 208.06 91.6508C207.908 91.6508 207.767 91.6898 207.616 91.6958C207.395 90.6168 207.2 89.5368 206.984 88.4568C206.733 87.0098 206.518 85.5618 206.339 84.1148C206.207 83.0708 205.885 82.0278 205.83 80.9838C206.563 80.9098 207.307 80.8718 208.06 80.8718C208.813 80.8718 209.557 80.9098 210.29 80.9838C210.235 82.0278 209.913 83.0718 209.781 84.1148C209.602 85.5628 209.387 87.0098 209.136 88.4568Z" fill="url(#paint2_linear_562_22921)"/>
<path d="M206.983 118.351C207.273 116.904 207.5 115.456 207.844 114.009H208.059H208.274C208.618 115.456 208.845 116.904 209.135 118.351C209.386 119.798 209.601 121.245 209.78 122.692C209.864 123.356 210.025 124.019 210.147 124.683C209.459 124.748 208.764 124.788 208.058 124.788C207.352 124.788 206.658 124.748 205.969 124.683C206.092 124.019 206.253 123.356 206.336 122.692C206.517 121.245 206.732 119.798 206.983 118.351Z" fill="url(#paint3_linear_562_22921)"/>
<path d="M223.005 104.48C221.719 104.222 220.433 104.004 219.148 103.72C219.165 103.504 219.208 103.295 219.213 103.075C220.477 102.798 221.741 102.581 223.006 102.328C224.453 102.077 225.9 101.862 227.348 101.682C228.211 101.573 229.074 101.346 229.937 101.233C229.975 101.762 230.018 102.29 230.018 102.829C230.018 103.756 229.942 104.664 229.83 105.561C229.003 105.443 228.175 105.228 227.348 105.124C225.899 104.946 224.452 104.731 223.005 104.48Z" fill="url(#paint4_linear_562_22921)"/>
<path d="M193.113 102.328C194.377 102.581 195.641 102.798 196.905 103.075C196.91 103.295 196.953 103.503 196.97 103.72C195.684 104.004 194.398 104.223 193.112 104.48C191.665 104.731 190.217 104.946 188.77 105.126C187.943 105.23 187.115 105.445 186.288 105.563C186.176 104.666 186.1 103.758 186.1 102.831C186.1 102.292 186.142 101.764 186.181 101.235C187.044 101.348 187.907 101.575 188.77 101.684C190.218 101.862 191.665 102.077 193.113 102.328Z" fill="url(#paint5_linear_562_22921)"/>
<path d="M217.867 114.733C217.069 113.535 216.23 112.377 215.465 111.145C215.586 111.037 215.724 110.949 215.84 110.835C217.056 111.593 218.203 112.421 219.388 113.211C220.589 114.057 221.764 114.928 222.915 115.825C223.494 116.274 224.141 116.656 224.744 117.082C223.824 118.158 222.803 119.142 221.693 120.023C221.285 119.439 220.914 118.818 220.481 118.259C219.584 117.11 218.713 115.934 217.867 114.733Z" fill="url(#paint6_linear_562_22921)"/>
<path d="M198.251 92.074C198.885 93.025 199.536 93.96 200.164 94.917C199.969 95.111 199.818 95.343 199.638 95.551C198.657 94.91 197.703 94.244 196.73 93.595C195.529 92.749 194.354 91.878 193.204 90.981C192.433 90.383 191.554 89.894 190.809 89.271C191.723 88.109 192.746 87.04 193.873 86.084C194.524 86.842 195.022 87.753 195.638 88.547C196.534 89.698 197.405 90.873 198.251 92.074Z" fill="url(#paint7_linear_562_22921)"/>
<path d="M196.731 113.212C197.916 112.423 199.063 111.595 200.279 110.836C200.395 110.949 200.533 111.038 200.654 111.146C199.889 112.377 199.05 113.535 198.252 114.734C197.406 115.935 196.535 117.11 195.638 118.26C195.205 118.819 194.834 119.44 194.426 120.024C193.316 119.143 192.295 118.159 191.375 117.083C191.977 116.657 192.625 116.275 193.204 115.826C194.354 114.929 195.53 114.058 196.731 113.212Z" fill="url(#paint8_linear_562_22921)"/>
<path d="M219.389 93.5959C218.416 94.2439 217.461 94.9109 216.481 95.5519C216.301 95.3439 216.149 95.1119 215.955 94.9179C216.583 93.9609 217.234 93.026 217.868 92.075C218.714 90.874 219.585 89.699 220.482 88.549C221.098 87.756 221.595 86.8439 222.247 86.0859C223.373 87.0409 224.396 88.1109 225.311 89.2729C224.566 89.8959 223.687 90.3849 222.917 90.9829C221.765 91.8789 220.59 92.7499 219.389 93.5959Z" fill="url(#paint9_linear_562_22921)"/>
<path d="M175.08 102.83C175.08 121.044 189.846 135.81 208.06 135.81C226.274 135.81 241.04 121.044 241.04 102.83C241.04 84.6159 226.274 69.8499 208.06 69.8499C189.846 69.8499 175.08 84.6159 175.08 102.83ZM181.362 102.83C181.362 88.0849 193.315 76.1319 208.06 76.1319C222.805 76.1319 234.758 88.0849 234.758 102.83C234.758 117.575 222.805 129.528 208.06 129.528C193.315 129.528 181.362 117.575 181.362 102.83Z" fill="#232323"/>
<path d="M223.716 71.9858C224.071 71.9518 224.439 71.9128 224.744 71.7278C225.46 71.2938 225.506 70.1998 225.049 69.4978C224.592 68.7958 223.797 68.4018 223.027 68.0728C212.454 63.5518 200.077 65.4428 189.558 70.0878C175.593 76.2548 166.764 92.8418 169.383 107.871C169.84 110.494 170.77 113.291 173.279 114.628C174.256 112.45 174.361 109.996 174.485 107.612C174.827 101.023 175.507 94.1758 178.869 88.3498C181.959 82.9948 186.574 78.5419 192.184 75.8959C195.751 74.2139 199.612 73.2558 203.471 72.4458C207.028 71.6998 210.658 71.0698 214.306 71.1928C217.635 71.3068 220.366 72.3108 223.716 71.9858Z" fill="#89CB12"/>
<path d="M206.944 103.862L209.7 102.454L191.558 66.9468L188.803 68.3548L206.944 103.862Z" fill="url(#paint10_radial_562_22921)"/>
<path d="M196.249 87.2781L202.037 84.3206L188.326 57.4853L182.537 60.4428L196.249 87.2781Z" fill="#232323"/>
<path opacity="0.05" d="M119.49 91.1559C119.429 92.4129 119.184 93.6979 118.493 94.7489C117.076 96.9029 114.163 97.5369 111.593 97.3189C108.758 97.0779 105.939 95.9759 103.952 93.9399C101.966 91.9039 100.921 88.8789 101.588 86.1129C102.621 81.8259 108.401 77.9779 112.813 79.3119C117.192 80.6349 119.687 87.0629 119.49 91.1559Z" fill="white"/>
<path opacity="0.05" d="M113.696 100.802C115.3 100.766 116.944 100.724 118.432 100.124C120.216 99.404 121.59 97.957 122.901 96.55C125.201 94.083 127.494 91.609 129.78 89.129C130.619 88.219 131.073 87.333 132.339 87.444C133.58 87.552 134.939 88.11 136.139 88.449C138.802 89.2 141.433 90.061 144.025 91.03C146.285 91.875 148.509 92.816 150.702 93.822L146.188 97.957L166.869 114.135L169.342 116.069L154.734 116.079L87.8595 116.127L78.7655 103.736L78.5645 102.081C90.2685 101.499 101.98 101.068 113.696 100.802Z" fill="white"/>
<path d="M0.820312 104.625C0.820312 124.175 16.6693 140.024 36.2193 140.024C55.7693 140.024 71.6183 124.175 71.6183 104.625C71.6183 85.0738 55.7693 69.2258 36.2193 69.2258C16.6693 69.2258 0.820312 85.0748 0.820312 104.625ZM11.8663 104.625C11.8663 91.1748 22.7693 80.2718 36.2203 80.2718C49.6703 80.2718 60.5743 91.1748 60.5743 104.625C60.5743 118.075 49.6703 128.979 36.2203 128.979C22.7693 128.979 11.8663 118.075 11.8663 104.625Z" fill="#212121"/>
<path d="M36.22 93.4468C42.394 93.4468 47.399 98.4518 47.399 104.626C47.399 110.8 42.394 115.805 36.22 115.805C30.046 115.805 25.041 110.8 25.041 104.626C25.041 98.4508 30.046 93.4468 36.22 93.4468Z" fill="url(#paint11_radial_562_22921)"/>
<path d="M11.8672 104.625C11.8672 118.075 22.7702 128.979 36.2212 128.979C49.6712 128.979 60.5752 118.075 60.5752 104.625C60.5752 91.1747 49.6712 80.2717 36.2212 80.2717C22.7702 80.2717 11.8672 91.1747 11.8672 104.625ZM14.2622 104.625C14.2622 92.4977 24.0932 82.6667 36.2202 82.6667C48.3472 82.6667 58.1782 92.4977 58.1782 104.625C58.1782 116.752 48.3472 126.583 36.2202 126.583C24.0932 126.584 14.2622 116.752 14.2622 104.625Z" fill="url(#paint12_linear_562_22921)"/>
<path d="M37.2962 90.2527C37.0802 91.3327 36.8852 92.4117 36.6642 93.4917C36.5132 93.4857 36.3722 93.4467 36.2202 93.4467C36.0682 93.4467 35.9272 93.4857 35.7762 93.4917C35.5552 92.4127 35.3602 91.3327 35.1442 90.2527C34.8932 88.8057 34.6782 87.3587 34.4992 85.9107C34.3672 84.8667 34.0452 83.8237 33.9902 82.7797C34.7242 82.7057 35.4672 82.6677 36.2202 82.6677C36.9732 82.6677 37.7172 82.7067 38.4502 82.7797C38.3952 83.8237 38.0732 84.8667 37.9412 85.9107C37.7622 87.3577 37.5472 88.8057 37.2962 90.2527Z" fill="url(#paint13_linear_562_22921)"/>
<path d="M35.1439 120.146C35.4339 118.699 35.6609 117.251 36.0049 115.804H36.2199H36.4349C36.7789 117.251 37.0059 118.699 37.2949 120.146C37.5459 121.593 37.7609 123.04 37.9409 124.488C38.0249 125.151 38.1859 125.815 38.3079 126.479C37.6199 126.544 36.9249 126.584 36.2189 126.584C35.5139 126.584 34.8189 126.544 34.1309 126.479C34.2539 125.815 34.4139 125.152 34.4979 124.488C34.6779 123.04 34.8929 121.593 35.1439 120.146Z" fill="url(#paint14_linear_562_22921)"/>
<path d="M51.1656 106.275C49.8796 106.017 48.5936 105.799 47.3086 105.515C47.3256 105.298 47.3686 105.09 47.3736 104.87C48.6376 104.593 49.9016 104.376 51.1656 104.123C52.6126 103.872 54.0606 103.657 55.5076 103.478C56.3706 103.369 57.2336 103.142 58.0966 103.029C58.1346 103.558 58.1776 104.086 58.1776 104.625C58.1776 105.552 58.1016 106.46 57.9896 107.358C57.1626 107.24 56.3346 107.025 55.5076 106.921C54.0596 106.741 52.6126 106.526 51.1656 106.275Z" fill="url(#paint15_linear_562_22921)"/>
<path d="M21.2727 104.123C22.5367 104.376 23.8007 104.593 25.0657 104.87C25.0707 105.09 25.1137 105.298 25.1307 105.515C23.8447 105.799 22.5587 106.018 21.2737 106.275C19.8267 106.526 18.3787 106.741 16.9317 106.92C16.1047 107.024 15.2767 107.239 14.4497 107.357C14.3377 106.46 14.2617 105.552 14.2617 104.624C14.2617 104.085 14.3037 103.557 14.3427 103.028C15.2057 103.141 16.0687 103.368 16.9317 103.477C18.3777 103.657 19.8247 103.872 21.2727 104.123Z" fill="url(#paint16_linear_562_22921)"/>
<path d="M46.027 116.529C45.229 115.331 44.39 114.173 43.625 112.941C43.746 112.833 43.884 112.744 44 112.631C45.216 113.389 46.363 114.217 47.548 115.007C48.749 115.853 49.924 116.724 51.075 117.621C51.654 118.071 52.301 118.452 52.904 118.878C51.984 119.954 50.963 120.938 49.853 121.819C49.445 121.235 49.074 120.614 48.641 120.055C47.744 118.905 46.873 117.73 46.027 116.529Z" fill="url(#paint17_linear_562_22921)"/>
<path d="M26.4108 93.8699C27.0448 94.8209 27.6957 95.7559 28.3237 96.7129C28.1287 96.9069 27.9777 97.1389 27.7977 97.3469C26.8167 96.7059 25.8628 96.0399 24.8898 95.3909C23.6888 94.5449 22.5137 93.6739 21.3627 92.7769C20.5927 92.1789 19.7138 91.6899 18.9688 91.0669C19.8827 89.9049 20.9057 88.8359 22.0327 87.8799C22.6837 88.6379 23.1817 89.5489 23.7977 90.3429C24.6937 91.4929 25.5648 92.6689 26.4108 93.8699Z" fill="url(#paint18_linear_562_22921)"/>
<path d="M24.8902 115.007C26.0752 114.217 27.2222 113.39 28.4382 112.631C28.5542 112.744 28.6922 112.832 28.8132 112.94C28.0482 114.171 27.2092 115.329 26.4112 116.528C25.5652 117.729 24.6942 118.904 23.7972 120.054C23.3642 120.613 22.9932 121.234 22.5852 121.818C21.4762 120.937 20.4552 119.953 19.5352 118.877C20.1372 118.451 20.7842 118.069 21.3642 117.62C22.5132 116.724 23.6892 115.853 24.8902 115.007Z" fill="url(#paint19_linear_562_22921)"/>
<path d="M47.5492 95.3909C46.5762 96.0389 45.6212 96.7059 44.6412 97.3469C44.4612 97.1389 44.3092 96.9069 44.1152 96.7129C44.7432 95.7559 45.3942 94.8209 46.0282 93.8699C46.8742 92.6689 47.7452 91.4939 48.6422 90.3439C49.2582 89.5509 49.7562 88.6389 50.4072 87.8809C51.5342 88.8359 52.5562 89.9059 53.4712 91.0679C52.7262 91.6909 51.8472 92.1799 51.0772 92.7779C49.9252 93.6739 48.7502 94.5449 47.5492 95.3909Z" fill="url(#paint20_linear_562_22921)"/>
<path d="M3.24023 104.625C3.24023 122.839 18.0062 137.605 36.2202 137.605C54.4342 137.605 69.2002 122.839 69.2002 104.625C69.2002 86.4108 54.4342 71.6448 36.2202 71.6448C18.0062 71.6448 3.24023 86.4108 3.24023 104.625ZM9.52223 104.625C9.52223 89.8798 21.4752 77.9268 36.2202 77.9268C50.9652 77.9268 62.9182 89.8798 62.9182 104.625C62.9182 119.37 50.9652 131.323 36.2202 131.323C21.4752 131.323 9.52223 119.37 9.52223 104.625Z" fill="#232323"/>
<path d="M31.4277 104.426C31.4277 107.219 33.6917 109.483 36.4847 109.483C39.2777 109.483 41.5417 107.219 41.5417 104.426C41.5417 101.633 39.2777 99.3689 36.4847 99.3689C33.6917 99.3689 31.4277 101.633 31.4277 104.426Z" fill="#232323"/>
<path d="M36.4844 109.483H92.7774L79.6024 87.125L36.4844 99.369V109.483Z" fill="#232323"/>
<path d="M28.9874 100.575C28.8664 101.31 28.4334 101.949 28.1034 102.617C27.5894 103.658 27.3154 104.817 27.3074 105.978C27.3044 106.401 27.3374 106.827 27.4434 107.236C27.6024 107.851 27.9214 108.411 28.2134 108.975C28.5544 109.635 28.8634 110.313 29.1384 111.004C29.3954 111.651 29.5714 112.512 29.0234 112.941C28.8744 113.058 28.6914 113.121 28.5104 113.177C27.4564 113.504 26.1984 113.622 25.3464 112.92C24.9814 112.62 24.7354 112.202 24.5264 111.779C23.2544 109.209 23.1084 106.247 23.0054 103.381C22.9434 101.664 23.1034 99.8418 24.3354 98.5138C24.7054 98.1148 25.1794 97.8938 25.6764 97.6918C26.5624 97.3298 27.2484 97.0068 27.9764 97.7838C28.6654 98.5228 29.1564 99.5468 28.9874 100.575Z" fill="#89CB12"/>
<path d="M201.481 98.0318C201.36 98.7668 200.927 99.4058 200.597 100.074C200.083 101.116 199.809 102.274 199.802 103.436C199.799 103.859 199.832 104.285 199.938 104.694C200.097 105.309 200.416 105.869 200.708 106.433C201.049 107.093 201.358 107.771 201.633 108.462C201.89 109.109 202.066 109.97 201.518 110.399C201.369 110.516 201.186 110.579 201.005 110.635C199.951 110.962 198.693 111.079 197.841 110.378C197.476 110.078 197.23 109.66 197.021 109.237C195.749 106.667 195.603 103.705 195.5 100.839C195.438 99.1228 195.598 97.2998 196.83 95.9718C197.2 95.5728 197.674 95.3518 198.171 95.1498C199.057 94.7878 199.743 94.4648 200.471 95.2418C201.16 95.9798 201.65 97.0038 201.481 98.0318Z" fill="#89CB12"/>
<path d="M93.231 87.745L46.521 64.219L44.418 67.826L92.325 91.751L93.231 87.745Z" fill="url(#paint21_radial_562_22921)"/>
<path d="M16.7598 57.773L22.5488 47.792L76.8008 75.017C77.1318 75.008 77.4538 75.046 77.7428 75.187C79.3598 75.979 79.5368 78.935 78.1378 81.79C76.8028 84.515 74.5218 86.136 72.9108 85.59L72.8528 85.72L16.7598 57.773Z" fill="url(#paint22_radial_562_22921)"/>
<path d="M16.9296 51.4479C15.5306 54.3019 15.7086 57.2579 17.3246 58.0509C18.9416 58.8429 21.3866 57.1719 22.7846 54.3179C24.1836 51.4639 24.0056 48.5079 22.3886 47.7149C20.7726 46.9219 18.3276 48.5939 16.9296 51.4479Z" fill="#232323"/>
<path d="M91.7053 89.4189C91.3863 90.5069 91.6273 91.5359 92.2443 91.7169C92.8613 91.8979 93.6193 91.1619 93.9383 90.0739C94.2573 88.9859 94.0163 87.9569 93.3993 87.7759C92.7833 87.5949 92.0243 88.3309 91.7053 89.4189Z" fill="url(#paint23_radial_562_22921)"/>
<path d="M24.1747 58.0649L16.7597 74.3009L14.2617 73.2359L19.6967 59.2359C19.6967 59.2359 20.1897 60.8599 24.1747 58.0649Z" fill="#232323"/>
<path d="M15.4352 69.8168C15.1062 70.6168 15.1232 71.3828 15.4742 71.5278C15.8252 71.6728 16.3772 71.1408 16.7072 70.3408C17.0362 69.5408 17.0192 68.7748 16.6682 68.6298C16.3162 68.4848 15.7642 69.0168 15.4352 69.8168Z" fill="#FF0000"/>
<path d="M16.9898 62.8319C16.2408 64.6489 16.2808 66.3889 17.0788 66.7179C17.8768 67.0469 19.1308 65.8399 19.8798 64.0229C20.6288 62.2059 20.5888 60.4659 19.7908 60.1369C18.9928 59.8069 17.7388 61.0139 16.9898 62.8319Z" fill="#FF0000"/>
<path d="M15.9139 50.9219L16.9379 51.4359L22.7629 54.3589C22.4849 54.9199 22.1599 55.4219 21.8149 55.8799L16.3019 53.1329L15.0059 52.4869L15.9139 50.9219Z" fill="url(#paint24_radial_562_22921)"/>
<path d="M15.0308 51.4959C14.8118 51.9439 14.8388 52.4069 15.0928 52.5319C15.3468 52.6559 15.7297 52.3939 15.9487 51.9459C16.1677 51.4979 16.1408 51.0349 15.8868 50.9099C15.6338 50.7859 15.2508 51.0479 15.0308 51.4959Z" fill="#232323"/>
<path d="M96.5217 76.1049L24.5317 40.7059L9.3457 29.6599H44.9197C44.9197 29.6599 50.5437 31.9219 60.2457 39.3749C69.9477 46.8269 83.7267 48.9569 83.7267 48.9569H98.6307C98.6307 48.9569 99.1927 32.9869 122.253 32.9869C145.312 32.9869 149.531 37.7779 149.531 37.7779C149.531 37.7779 153.609 41.2379 156.702 45.7629L137.861 47.7589C137.861 47.7589 128.159 47.8919 119.442 55.2109C110.723 62.5309 96.5217 76.1049 96.5217 76.1049Z" fill="#89CB12"/>
<path d="M171.433 9.75684C171.965 10.2328 182.346 16.2598 182.745 16.7358C183.144 17.2118 200.045 27.3628 200.045 27.3628L206.034 30.2178H210.293L218.012 40.5278C218.012 40.5278 224.134 47.5068 222.137 54.6448C220.94 58.9248 217.258 60.4638 213.142 60.7178C203.882 61.2898 193.849 63.1208 185.771 67.9088C171.599 76.3098 160.186 95.0078 166.991 111.513C167.165 111.934 168.865 116.067 169.343 116.066C162.374 116.089 155.918 113.114 149.518 110.725C148.882 110.487 146.245 109.967 145.882 109.367L137.099 94.7738L124.457 77.3258C124.457 77.3258 121.13 72.4088 125.921 68.9188C130.712 65.4288 141.758 55.4368 159.058 52.4228C176.358 49.4088 190.199 48.1398 190.199 48.1398L198.184 45.2848C198.184 45.2848 200.58 44.0158 200.18 41.3198C199.78 38.6238 198.051 35.2928 196.853 34.3408C195.655 33.3888 186.473 28.3128 186.473 28.3128L176.891 23.0788L172.1 17.5268C172.1 17.5268 171.035 15.4648 170.902 14.1958C170.768 12.9298 171.433 9.75684 171.433 9.75684Z" fill="#89CB12"/>
<path d="M210.743 26.2759C209.73 24.8409 208.316 23.7469 206.925 22.6759C202.696 19.4199 198.467 16.1629 194.237 12.9069C192.315 11.4269 190.393 9.9469 188.397 8.5679C183.631 5.2759 178.403 2.5569 172.78 1.1629C171.043 0.7319 169.002 0.495907 167.646 1.66391C166.618 2.54791 166.292 4.05791 166.556 5.38791C166.82 6.71791 167.591 7.8929 168.462 8.9319C170.33 11.1589 172.698 12.9009 175.042 14.6199C181.071 19.0419 187.127 23.4799 193.733 26.9819C197.137 28.7859 201.444 31.4469 205.408 31.4309C207.12 31.4239 208.947 31.3229 210.65 31.2079C212.039 31.1139 212.143 30.7839 211.97 29.3149C211.842 28.2209 211.373 27.1689 210.743 26.2759Z" fill="#232323"/>
<path d="M76.1796 50.8078C72.0666 49.8658 67.6465 48.6268 65.1055 45.2578C64.6065 44.5968 64.2105 43.6208 64.7525 42.9938C64.9735 42.7388 65.3035 42.6108 65.6245 42.5078C69.6605 41.2078 74.0155 42.3678 78.1685 43.2198C82.2585 44.0588 98.7245 43.2608 99.9635 48.9008C101.888 57.6458 79.6286 51.5968 76.1796 50.8078Z" fill="#232323"/>
<path d="M19.666 29.304C19.937 28.709 20.48 28.513 20.967 28.395C23.413 27.804 25.892 27.848 28.353 27.894C31.258 27.949 34.162 28.004 37.067 28.058C39.493 28.104 41.92 28.149 44.346 28.195C46.014 28.226 47.71 28.264 49.276 28.981C50.842 29.699 52.288 31.21 52.824 33.403C53.418 35.834 51.607 37.101 50.294 36.268C49.897 36.481 49.433 36.485 49.003 36.461C45.941 36.287 42.88 36.112 39.818 35.938C37.078 35.782 34.333 35.613 31.624 35.097C30.451 34.874 29.286 34.589 28.138 34.207C27.635 34.04 26.417 33.837 25.696 33.374C24.914 33.388 24.132 33.423 23.352 33.396C22.56 33.368 21.753 33.311 21.029 32.899C20.305 32.487 19.668 31.656 19.526 30.566C19.471 30.143 19.497 29.676 19.666 29.304Z" fill="#232323"/>
<path d="M208.06 99.7639C209.753 99.7639 211.126 101.137 211.126 102.83C211.126 104.523 209.753 105.896 208.06 105.896C206.366 105.896 204.994 104.523 204.994 102.83C204.994 101.136 206.367 99.7639 208.06 99.7639Z" fill="url(#paint25_radial_562_22921)"/>
<path d="M184.274 45.2239C182.115 43.5849 179.836 41.6099 179.23 38.6719C181.567 37.8489 184.016 39.2029 186.184 40.5199C189.501 42.5349 189.373 42.1759 192.691 44.1909C193.628 44.7599 194.69 45.5459 194.746 46.7849C194.795 47.8919 193.859 50.1159 192.895 50.4589C191.836 50.8349 190.347 49.4469 189.482 48.8919C186.535 47.0049 187.093 47.3649 184.274 45.2239Z" fill="#232323"/>
<path d="M177.933 44.659C177.424 44.133 176.97 43.501 176.752 42.746C176.259 41.044 177.075 39.17 178.175 37.922C180.276 35.538 185.264 33.59 187.406 36.958C189.886 40.858 187.774 45.635 183.988 46.483C181.878 46.955 179.561 46.342 177.933 44.659Z" fill="#232323"/>
<path d="M173.656 41.171C175.669 41.588 177.908 41.887 179.612 40.556C178.626 38.587 176.573 37.818 174.702 37.207C171.839 36.272 173.099 36.647 170.236 35.712C169.427 35.448 169.674 35.552 169.072 36.24C168.534 36.855 168.059 38.75 168.465 39.564C168.91 40.457 169.19 40.273 169.95 40.501C172.538 41.275 171.027 40.626 173.656 41.171Z" fill="#232323"/>
<path d="M177.745 45.494C178.284 45.511 178.839 45.431 179.314 45.129C180.384 44.449 180.768 42.835 180.7 41.406C180.569 38.676 178.551 34.363 175.752 34.966C172.512 35.664 171.55 39.799 173.371 42.704C174.386 44.323 176.02 45.44 177.745 45.494Z" fill="#232323"/>
<path d="M219.651 44.8269C220.999 47.0949 221.677 49.8239 221.186 52.4159C220.781 54.5569 219.574 56.5369 217.856 57.8779C217.729 52.5729 214.978 47.7319 212.304 43.1479C211.343 41.5009 210.31 40.0119 209.037 38.6039C213.516 37.6249 217.56 41.3079 219.651 44.8269Z" fill="#FFDF00"/>
<path opacity="0.6" d="M92.6133 108.179H154.052V105.113H92.6133V108.179Z" fill="url(#paint26_linear_562_22921)"/>
<path d="M129.823 35.8168C129.658 35.7758 129.496 35.7328 129.336 35.6868C128.893 35.5608 128.438 35.3928 128.13 35.0508C127.822 34.7088 127.713 34.1468 128.002 33.7888C128.206 33.5368 128.545 33.4438 128.862 33.3748C131.238 32.8568 134.795 32.4688 136.898 33.9438C137.339 34.2528 138.554 35.1398 137.875 35.7598C137.675 35.9428 137.393 36.0028 137.126 36.0488C134.818 36.4488 132.131 36.3848 129.823 35.8168Z" fill="#232323"/>
<defs>
<radialGradient id="paint0_radial_562_22921" cx="0" cy="0" r="1" gradientUnits="userSpaceOnUse" gradientTransform="translate(238.635 94.4458) rotate(180) scale(110.133)">
<stop stop-color="#727472"/>
<stop offset="0.0553" stop-color="#777977"/>
<stop offset="0.1248" stop-color="#878987"/>
<stop offset="0.202" stop-color="#A1A2A1"/>
<stop offset="0.2841" stop-color="#C4C5C4"/>
<stop offset="0.3622" stop-color="#EDEDED"/>
<stop offset="0.4309" stop-color="#E9E9E9"/>
<stop offset="0.5012" stop-color="#DDDDDD"/>
<stop offset="0.572" stop-color="#C8C9C8"/>
<stop offset="0.6245" stop-color="#B4B5B4"/>
<stop offset="0.7211" stop-color="#C1C1C1"/>
<stop offset="0.801" stop-color="#CFCFCF"/>
<stop offset="0.8635" stop-color="#CDCDCD"/>
<stop offset="0.8951" stop-color="#C5C5C5"/>
<stop offset="0.9197" stop-color="#B8B8B8"/>
<stop offset="0.9408" stop-color="#A5A5A5"/>
<stop offset="0.9596" stop-color="#8C8C8C"/>
<stop offset="0.9767" stop-color="#6E6E6E"/>
<stop offset="0.9923" stop-color="#4B4B4B"/>
<stop offset="1" stop-color="#373737"/>
</radialGradient>
<linearGradient id="paint1_linear_562_22921" x1="232.414" y1="102.83" x2="183.707" y2="102.83" gradientUnits="userSpaceOnUse">
<stop stop-color="#727472"/>
<stop offset="0.0553" stop-color="#777977"/>
<stop offset="0.1248" stop-color="#878987"/>
<stop offset="0.202" stop-color="#A1A2A1"/>
<stop offset="0.2841" stop-color="#C4C5C4"/>
<stop offset="0.3622" stop-color="#EDEDED"/>
<stop offset="0.4309" stop-color="#E9E9E9"/>
<stop offset="0.5012" stop-color="#DDDDDD"/>
<stop offset="0.572" stop-color="#C8C9C8"/>
<stop offset="0.6245" stop-color="#B4B5B4"/>
<stop offset="0.7211" stop-color="#C1C1C1"/>
<stop offset="0.801" stop-color="#CFCFCF"/>
<stop offset="0.8635" stop-color="#CDCDCD"/>
<stop offset="0.8951" stop-color="#C5C5C5"/>
<stop offset="0.9197" stop-color="#B8B8B8"/>
<stop offset="0.9408" stop-color="#A5A5A5"/>
<stop offset="0.9596" stop-color="#8C8C8C"/>
<stop offset="0.9767" stop-color="#6E6E6E"/>
<stop offset="0.9923" stop-color="#4B4B4B"/>
<stop offset="1" stop-color="#373737"/>
</linearGradient>
<linearGradient id="paint2_linear_562_22921" x1="210.291" y1="86.2837" x2="205.83" y2="86.2837" gradientUnits="userSpaceOnUse">
<stop stop-color="#727472"/>
<stop offset="0.0553" stop-color="#777977"/>
<stop offset="0.1248" stop-color="#878987"/>
<stop offset="0.202" stop-color="#A1A2A1"/>
<stop offset="0.2841" stop-color="#C4C5C4"/>
<stop offset="0.3622" stop-color="#EDEDED"/>
<stop offset="0.4309" stop-color="#E9E9E9"/>
<stop offset="0.5012" stop-color="#DDDDDD"/>
<stop offset="0.572" stop-color="#C8C9C8"/>
<stop offset="0.6245" stop-color="#B4B5B4"/>
<stop offset="0.7211" stop-color="#C1C1C1"/>
<stop offset="0.801" stop-color="#CFCFCF"/>
<stop offset="0.8635" stop-color="#CDCDCD"/>
<stop offset="0.8951" stop-color="#C5C5C5"/>
<stop offset="0.9197" stop-color="#B8B8B8"/>
<stop offset="0.9408" stop-color="#A5A5A5"/>
<stop offset="0.9596" stop-color="#8C8C8C"/>
<stop offset="0.9767" stop-color="#6E6E6E"/>
<stop offset="0.9923" stop-color="#4B4B4B"/>
<stop offset="1" stop-color="#373737"/>
</linearGradient>
<linearGradient id="paint3_linear_562_22921" x1="210.147" y1="119.398" x2="205.97" y2="119.398" gradientUnits="userSpaceOnUse">
<stop stop-color="#727472"/>
<stop offset="0.0553" stop-color="#777977"/>
<stop offset="0.1248" stop-color="#878987"/>
<stop offset="0.202" stop-color="#A1A2A1"/>
<stop offset="0.2841" stop-color="#C4C5C4"/>
<stop offset="0.3622" stop-color="#EDEDED"/>
<stop offset="0.4309" stop-color="#E9E9E9"/>
<stop offset="0.5012" stop-color="#DDDDDD"/>
<stop offset="0.572" stop-color="#C8C9C8"/>
<stop offset="0.6245" stop-color="#B4B5B4"/>
<stop offset="0.7211" stop-color="#C1C1C1"/>
<stop offset="0.801" stop-color="#CFCFCF"/>
<stop offset="0.8635" stop-color="#CDCDCD"/>
<stop offset="0.8951" stop-color="#C5C5C5"/>
<stop offset="0.9197" stop-color="#B8B8B8"/>
<stop offset="0.9408" stop-color="#A5A5A5"/>
<stop offset="0.9596" stop-color="#8C8C8C"/>
<stop offset="0.9767" stop-color="#6E6E6E"/>
<stop offset="0.9923" stop-color="#4B4B4B"/>
<stop offset="1" stop-color="#373737"/>
</linearGradient>
<linearGradient id="paint4_linear_562_22921" x1="230.017" y1="103.398" x2="219.148" y2="103.398" gradientUnits="userSpaceOnUse">
<stop stop-color="#727472"/>
<stop offset="0.0553" stop-color="#777977"/>
<stop offset="0.1248" stop-color="#878987"/>
<stop offset="0.202" stop-color="#A1A2A1"/>
<stop offset="0.2841" stop-color="#C4C5C4"/>
<stop offset="0.3622" stop-color="#EDEDED"/>
<stop offset="0.4309" stop-color="#E9E9E9"/>
<stop offset="0.5012" stop-color="#DDDDDD"/>
<stop offset="0.572" stop-color="#C8C9C8"/>
<stop offset="0.6245" stop-color="#B4B5B4"/>
<stop offset="0.7211" stop-color="#C1C1C1"/>
<stop offset="0.801" stop-color="#CFCFCF"/>
<stop offset="0.8635" stop-color="#CDCDCD"/>
<stop offset="0.8951" stop-color="#C5C5C5"/>
<stop offset="0.9197" stop-color="#B8B8B8"/>
<stop offset="0.9408" stop-color="#A5A5A5"/>
<stop offset="0.9596" stop-color="#8C8C8C"/>
<stop offset="0.9767" stop-color="#6E6E6E"/>
<stop offset="0.9923" stop-color="#4B4B4B"/>
<stop offset="1" stop-color="#373737"/>
</linearGradient>
<linearGradient id="paint5_linear_562_22921" x1="196.97" y1="103.398" x2="186.101" y2="103.398" gradientUnits="userSpaceOnUse">
<stop stop-color="#727472"/>
<stop offset="0.0553" stop-color="#777977"/>
<stop offset="0.1248" stop-color="#878987"/>
<stop offset="0.202" stop-color="#A1A2A1"/>
<stop offset="0.2841" stop-color="#C4C5C4"/>
<stop offset="0.3622" stop-color="#EDEDED"/>
<stop offset="0.4309" stop-color="#E9E9E9"/>
<stop offset="0.5012" stop-color="#DDDDDD"/>
<stop offset="0.572" stop-color="#C8C9C8"/>
<stop offset="0.6245" stop-color="#B4B5B4"/>
<stop offset="0.7211" stop-color="#C1C1C1"/>
<stop offset="0.801" stop-color="#CFCFCF"/>
<stop offset="0.8635" stop-color="#CDCDCD"/>
<stop offset="0.8951" stop-color="#C5C5C5"/>
<stop offset="0.9197" stop-color="#B8B8B8"/>
<stop offset="0.9408" stop-color="#A5A5A5"/>
<stop offset="0.9596" stop-color="#8C8C8C"/>
<stop offset="0.9767" stop-color="#6E6E6E"/>
<stop offset="0.9923" stop-color="#4B4B4B"/>
<stop offset="1" stop-color="#373737"/>
</linearGradient>
<linearGradient id="paint6_linear_562_22921" x1="224.744" y1="115.43" x2="215.465" y2="115.43" gradientUnits="userSpaceOnUse">
<stop stop-color="#727472"/>
<stop offset="0.0553" stop-color="#777977"/>
<stop offset="0.1248" stop-color="#878987"/>
<stop offset="0.202" stop-color="#A1A2A1"/>
<stop offset="0.2841" stop-color="#C4C5C4"/>
<stop offset="0.3622" stop-color="#EDEDED"/>
<stop offset="0.4309" stop-color="#E9E9E9"/>
<stop offset="0.5012" stop-color="#DDDDDD"/>
<stop offset="0.572" stop-color="#C8C9C8"/>
<stop offset="0.6245" stop-color="#B4B5B4"/>
<stop offset="0.7211" stop-color="#C1C1C1"/>
<stop offset="0.801" stop-color="#CFCFCF"/>
<stop offset="0.8635" stop-color="#CDCDCD"/>
<stop offset="0.8951" stop-color="#C5C5C5"/>
<stop offset="0.9197" stop-color="#B8B8B8"/>
<stop offset="0.9408" stop-color="#A5A5A5"/>
<stop offset="0.9596" stop-color="#8C8C8C"/>
<stop offset="0.9767" stop-color="#6E6E6E"/>
<stop offset="0.9923" stop-color="#4B4B4B"/>
<stop offset="1" stop-color="#373737"/>
</linearGradient>
<linearGradient id="paint7_linear_562_22921" x1="200.164" y1="90.8184" x2="190.808" y2="90.8184" gradientUnits="userSpaceOnUse">
<stop stop-color="#727472"/>
<stop offset="0.0553" stop-color="#777977"/>
<stop offset="0.1248" stop-color="#878987"/>
<stop offset="0.202" stop-color="#A1A2A1"/>
<stop offset="0.2841" stop-color="#C4C5C4"/>
<stop offset="0.3622" stop-color="#EDEDED"/>
<stop offset="0.4309" stop-color="#E9E9E9"/>
<stop offset="0.5012" stop-color="#DDDDDD"/>
<stop offset="0.572" stop-color="#C8C9C8"/>
<stop offset="0.6245" stop-color="#B4B5B4"/>
<stop offset="0.7211" stop-color="#C1C1C1"/>
<stop offset="0.801" stop-color="#CFCFCF"/>
<stop offset="0.8635" stop-color="#CDCDCD"/>
<stop offset="0.8951" stop-color="#C5C5C5"/>
<stop offset="0.9197" stop-color="#B8B8B8"/>
<stop offset="0.9408" stop-color="#A5A5A5"/>
<stop offset="0.9596" stop-color="#8C8C8C"/>
<stop offset="0.9767" stop-color="#6E6E6E"/>
<stop offset="0.9923" stop-color="#4B4B4B"/>
<stop offset="1" stop-color="#373737"/>
</linearGradient>
<linearGradient id="paint8_linear_562_22921" x1="200.654" y1="115.43" x2="191.375" y2="115.43" gradientUnits="userSpaceOnUse">
<stop stop-color="#727472"/>
<stop offset="0.0553" stop-color="#777977"/>
<stop offset="0.1248" stop-color="#878987"/>
<stop offset="0.202" stop-color="#A1A2A1"/>
<stop offset="0.2841" stop-color="#C4C5C4"/>
<stop offset="0.3622" stop-color="#EDEDED"/>
<stop offset="0.4309" stop-color="#E9E9E9"/>
<stop offset="0.5012" stop-color="#DDDDDD"/>
<stop offset="0.572" stop-color="#C8C9C8"/>
<stop offset="0.6245" stop-color="#B4B5B4"/>
<stop offset="0.7211" stop-color="#C1C1C1"/>
<stop offset="0.801" stop-color="#CFCFCF"/>
<stop offset="0.8635" stop-color="#CDCDCD"/>
<stop offset="0.8951" stop-color="#C5C5C5"/>
<stop offset="0.9197" stop-color="#B8B8B8"/>
<stop offset="0.9408" stop-color="#A5A5A5"/>
<stop offset="0.9596" stop-color="#8C8C8C"/>
<stop offset="0.9767" stop-color="#6E6E6E"/>
<stop offset="0.9923" stop-color="#4B4B4B"/>
<stop offset="1" stop-color="#373737"/>
</linearGradient>
<linearGradient id="paint9_linear_562_22921" x1="225.309" y1="90.8184" x2="215.954" y2="90.8184" gradientUnits="userSpaceOnUse">
<stop stop-color="#727472"/>
<stop offset="0.0553" stop-color="#777977"/>
<stop offset="0.1248" stop-color="#878987"/>
<stop offset="0.202" stop-color="#A1A2A1"/>
<stop offset="0.2841" stop-color="#C4C5C4"/>
<stop offset="0.3622" stop-color="#EDEDED"/>
<stop offset="0.4309" stop-color="#E9E9E9"/>
<stop offset="0.5012" stop-color="#DDDDDD"/>
<stop offset="0.572" stop-color="#C8C9C8"/>
<stop offset="0.6245" stop-color="#B4B5B4"/>
<stop offset="0.7211" stop-color="#C1C1C1"/>
<stop offset="0.801" stop-color="#CFCFCF"/>
<stop offset="0.8635" stop-color="#CDCDCD"/>
<stop offset="0.8951" stop-color="#C5C5C5"/>
<stop offset="0.9197" stop-color="#B8B8B8"/>
<stop offset="0.9408" stop-color="#A5A5A5"/>
<stop offset="0.9596" stop-color="#8C8C8C"/>
<stop offset="0.9767" stop-color="#6E6E6E"/>
<stop offset="0.9923" stop-color="#4B4B4B"/>
<stop offset="1" stop-color="#373737"/>
</linearGradient>
<radialGradient id="paint10_radial_562_22921" cx="0" cy="0" r="1" gradientUnits="userSpaceOnUse" gradientTransform="translate(226.553 75.8811) rotate(180) scale(45.2732 45.2732)">
<stop stop-color="#727472"/>
<stop offset="0.0553" stop-color="#777977"/>
<stop offset="0.1248" stop-color="#878987"/>
<stop offset="0.202" stop-color="#A1A2A1"/>
<stop offset="0.2841" stop-color="#C4C5C4"/>
<stop offset="0.3622" stop-color="#EDEDED"/>
<stop offset="0.4309" stop-color="#E9E9E9"/>
<stop offset="0.5012" stop-color="#DDDDDD"/>
<stop offset="0.572" stop-color="#C8C9C8"/>
<stop offset="0.6245" stop-color="#B4B5B4"/>
<stop offset="0.7211" stop-color="#C1C1C1"/>
<stop offset="0.801" stop-color="#CFCFCF"/>
<stop offset="0.8635" stop-color="#CDCDCD"/>
<stop offset="0.8951" stop-color="#C5C5C5"/>
<stop offset="0.9197" stop-color="#B8B8B8"/>
<stop offset="0.9408" stop-color="#A5A5A5"/>
<stop offset="0.9596" stop-color="#8C8C8C"/>
<stop offset="0.9767" stop-color="#6E6E6E"/>
<stop offset="0.9923" stop-color="#4B4B4B"/>
<stop offset="1" stop-color="#373737"/>
</radialGradient>
<radialGradient id="paint11_radial_562_22921" cx="0" cy="0" r="1" gradientUnits="userSpaceOnUse" gradientTransform="translate(66.7956 96.2411) rotate(180) scale(110.133)">
<stop stop-color="#727472"/>
<stop offset="0.0553" stop-color="#777977"/>
<stop offset="0.1248" stop-color="#878987"/>
<stop offset="0.202" stop-color="#A1A2A1"/>
<stop offset="0.2841" stop-color="#C4C5C4"/>
<stop offset="0.3622" stop-color="#EDEDED"/>
<stop offset="0.4309" stop-color="#E9E9E9"/>
<stop offset="0.5012" stop-color="#DDDDDD"/>
<stop offset="0.572" stop-color="#C8C9C8"/>
<stop offset="0.6245" stop-color="#B4B5B4"/>
<stop offset="0.7211" stop-color="#C1C1C1"/>
<stop offset="0.801" stop-color="#CFCFCF"/>
<stop offset="0.8635" stop-color="#CDCDCD"/>
<stop offset="0.8951" stop-color="#C5C5C5"/>
<stop offset="0.9197" stop-color="#B8B8B8"/>
<stop offset="0.9408" stop-color="#A5A5A5"/>
<stop offset="0.9596" stop-color="#8C8C8C"/>
<stop offset="0.9767" stop-color="#6E6E6E"/>
<stop offset="0.9923" stop-color="#4B4B4B"/>
<stop offset="1" stop-color="#373737"/>
</radialGradient>
<linearGradient id="paint12_linear_562_22921" x1="60.5741" y1="104.625" x2="11.8668" y2="104.625" gradientUnits="userSpaceOnUse">
<stop stop-color="#727472"/>
<stop offset="0.0553" stop-color="#777977"/>
<stop offset="0.1248" stop-color="#878987"/>
<stop offset="0.202" stop-color="#A1A2A1"/>
<stop offset="0.2841" stop-color="#C4C5C4"/>
<stop offset="0.3622" stop-color="#EDEDED"/>
<stop offset="0.4309" stop-color="#E9E9E9"/>
<stop offset="0.5012" stop-color="#DDDDDD"/>
<stop offset="0.572" stop-color="#C8C9C8"/>
<stop offset="0.6245" stop-color="#B4B5B4"/>
<stop offset="0.7211" stop-color="#C1C1C1"/>
<stop offset="0.801" stop-color="#CFCFCF"/>
<stop offset="0.8635" stop-color="#CDCDCD"/>
<stop offset="0.8951" stop-color="#C5C5C5"/>
<stop offset="0.9197" stop-color="#B8B8B8"/>
<stop offset="0.9408" stop-color="#A5A5A5"/>
<stop offset="0.9596" stop-color="#8C8C8C"/>
<stop offset="0.9767" stop-color="#6E6E6E"/>
<stop offset="0.9923" stop-color="#4B4B4B"/>
<stop offset="1" stop-color="#373737"/>
</linearGradient>
<linearGradient id="paint13_linear_562_22921" x1="38.4507" y1="88.079" x2="33.9901" y2="88.079" gradientUnits="userSpaceOnUse">
<stop stop-color="#727472"/>
<stop offset="0.0553" stop-color="#777977"/>
<stop offset="0.1248" stop-color="#878987"/>
<stop offset="0.202" stop-color="#A1A2A1"/>
<stop offset="0.2841" stop-color="#C4C5C4"/>
<stop offset="0.3622" stop-color="#EDEDED"/>
<stop offset="0.4309" stop-color="#E9E9E9"/>
<stop offset="0.5012" stop-color="#DDDDDD"/>
<stop offset="0.572" stop-color="#C8C9C8"/>
<stop offset="0.6245" stop-color="#B4B5B4"/>
<stop offset="0.7211" stop-color="#C1C1C1"/>
<stop offset="0.801" stop-color="#CFCFCF"/>
<stop offset="0.8635" stop-color="#CDCDCD"/>
<stop offset="0.8951" stop-color="#C5C5C5"/>
<stop offset="0.9197" stop-color="#B8B8B8"/>
<stop offset="0.9408" stop-color="#A5A5A5"/>
<stop offset="0.9596" stop-color="#8C8C8C"/>
<stop offset="0.9767" stop-color="#6E6E6E"/>
<stop offset="0.9923" stop-color="#4B4B4B"/>
<stop offset="1" stop-color="#373737"/>
</linearGradient>
<linearGradient id="paint14_linear_562_22921" x1="38.3086" y1="121.194" x2="34.1317" y2="121.194" gradientUnits="userSpaceOnUse">
<stop stop-color="#727472"/>
<stop offset="0.0553" stop-color="#777977"/>
<stop offset="0.1248" stop-color="#878987"/>
<stop offset="0.202" stop-color="#A1A2A1"/>
<stop offset="0.2841" stop-color="#C4C5C4"/>
<stop offset="0.3622" stop-color="#EDEDED"/>
<stop offset="0.4309" stop-color="#E9E9E9"/>
<stop offset="0.5012" stop-color="#DDDDDD"/>
<stop offset="0.572" stop-color="#C8C9C8"/>
<stop offset="0.6245" stop-color="#B4B5B4"/>
<stop offset="0.7211" stop-color="#C1C1C1"/>
<stop offset="0.801" stop-color="#CFCFCF"/>
<stop offset="0.8635" stop-color="#CDCDCD"/>
<stop offset="0.8951" stop-color="#C5C5C5"/>
<stop offset="0.9197" stop-color="#B8B8B8"/>
<stop offset="0.9408" stop-color="#A5A5A5"/>
<stop offset="0.9596" stop-color="#8C8C8C"/>
<stop offset="0.9767" stop-color="#6E6E6E"/>
<stop offset="0.9923" stop-color="#4B4B4B"/>
<stop offset="1" stop-color="#373737"/>
</linearGradient>
<linearGradient id="paint15_linear_562_22921" x1="58.1769" y1="105.193" x2="47.3079" y2="105.193" gradientUnits="userSpaceOnUse">
<stop stop-color="#727472"/>
<stop offset="0.0553" stop-color="#777977"/>
<stop offset="0.1248" stop-color="#878987"/>
<stop offset="0.202" stop-color="#A1A2A1"/>
<stop offset="0.2841" stop-color="#C4C5C4"/>
<stop offset="0.3622" stop-color="#EDEDED"/>
<stop offset="0.4309" stop-color="#E9E9E9"/>
<stop offset="0.5012" stop-color="#DDDDDD"/>
<stop offset="0.572" stop-color="#C8C9C8"/>
<stop offset="0.6245" stop-color="#B4B5B4"/>
<stop offset="0.7211" stop-color="#C1C1C1"/>
<stop offset="0.801" stop-color="#CFCFCF"/>
<stop offset="0.8635" stop-color="#CDCDCD"/>
<stop offset="0.8951" stop-color="#C5C5C5"/>
<stop offset="0.9197" stop-color="#B8B8B8"/>
<stop offset="0.9408" stop-color="#A5A5A5"/>
<stop offset="0.9596" stop-color="#8C8C8C"/>
<stop offset="0.9767" stop-color="#6E6E6E"/>
<stop offset="0.9923" stop-color="#4B4B4B"/>
<stop offset="1" stop-color="#373737"/>
</linearGradient>
<linearGradient id="paint16_linear_562_22921" x1="25.1298" y1="105.193" x2="14.2607" y2="105.193" gradientUnits="userSpaceOnUse">
<stop stop-color="#727472"/>
<stop offset="0.0553" stop-color="#777977"/>
<stop offset="0.1248" stop-color="#878987"/>
<stop offset="0.202" stop-color="#A1A2A1"/>
<stop offset="0.2841" stop-color="#C4C5C4"/>
<stop offset="0.3622" stop-color="#EDEDED"/>
<stop offset="0.4309" stop-color="#E9E9E9"/>
<stop offset="0.5012" stop-color="#DDDDDD"/>
<stop offset="0.572" stop-color="#C8C9C8"/>
<stop offset="0.6245" stop-color="#B4B5B4"/>
<stop offset="0.7211" stop-color="#C1C1C1"/>
<stop offset="0.801" stop-color="#CFCFCF"/>
<stop offset="0.8635" stop-color="#CDCDCD"/>
<stop offset="0.8951" stop-color="#C5C5C5"/>
<stop offset="0.9197" stop-color="#B8B8B8"/>
<stop offset="0.9408" stop-color="#A5A5A5"/>
<stop offset="0.9596" stop-color="#8C8C8C"/>
<stop offset="0.9767" stop-color="#6E6E6E"/>
<stop offset="0.9923" stop-color="#4B4B4B"/>
<stop offset="1" stop-color="#373737"/>
</linearGradient>
<linearGradient id="paint17_linear_562_22921" x1="52.9039" y1="117.225" x2="43.6254" y2="117.225" gradientUnits="userSpaceOnUse">
<stop stop-color="#727472"/>
<stop offset="0.0553" stop-color="#777977"/>
<stop offset="0.1248" stop-color="#878987"/>
<stop offset="0.202" stop-color="#A1A2A1"/>
<stop offset="0.2841" stop-color="#C4C5C4"/>
<stop offset="0.3622" stop-color="#EDEDED"/>
<stop offset="0.4309" stop-color="#E9E9E9"/>
<stop offset="0.5012" stop-color="#DDDDDD"/>
<stop offset="0.572" stop-color="#C8C9C8"/>
<stop offset="0.6245" stop-color="#B4B5B4"/>
<stop offset="0.7211" stop-color="#C1C1C1"/>
<stop offset="0.801" stop-color="#CFCFCF"/>
<stop offset="0.8635" stop-color="#CDCDCD"/>
<stop offset="0.8951" stop-color="#C5C5C5"/>
<stop offset="0.9197" stop-color="#B8B8B8"/>
<stop offset="0.9408" stop-color="#A5A5A5"/>
<stop offset="0.9596" stop-color="#8C8C8C"/>
<stop offset="0.9767" stop-color="#6E6E6E"/>
<stop offset="0.9923" stop-color="#4B4B4B"/>
<stop offset="1" stop-color="#373737"/>
</linearGradient>
<linearGradient id="paint18_linear_562_22921" x1="28.324" y1="92.6137" x2="18.9687" y2="92.6137" gradientUnits="userSpaceOnUse">
<stop stop-color="#727472"/>
<stop offset="0.0553" stop-color="#777977"/>
<stop offset="0.1248" stop-color="#878987"/>
<stop offset="0.202" stop-color="#A1A2A1"/>
<stop offset="0.2841" stop-color="#C4C5C4"/>
<stop offset="0.3622" stop-color="#EDEDED"/>
<stop offset="0.4309" stop-color="#E9E9E9"/>
<stop offset="0.5012" stop-color="#DDDDDD"/>
<stop offset="0.572" stop-color="#C8C9C8"/>
<stop offset="0.6245" stop-color="#B4B5B4"/>
<stop offset="0.7211" stop-color="#C1C1C1"/>
<stop offset="0.801" stop-color="#CFCFCF"/>
<stop offset="0.8635" stop-color="#CDCDCD"/>
<stop offset="0.8951" stop-color="#C5C5C5"/>
<stop offset="0.9197" stop-color="#B8B8B8"/>
<stop offset="0.9408" stop-color="#A5A5A5"/>
<stop offset="0.9596" stop-color="#8C8C8C"/>
<stop offset="0.9767" stop-color="#6E6E6E"/>
<stop offset="0.9923" stop-color="#4B4B4B"/>
<stop offset="1" stop-color="#373737"/>
</linearGradient>
<linearGradient id="paint19_linear_562_22921" x1="28.8132" y1="117.225" x2="19.5347" y2="117.225" gradientUnits="userSpaceOnUse">
<stop stop-color="#727472"/>
<stop offset="0.0553" stop-color="#777977"/>
<stop offset="0.1248" stop-color="#878987"/>
<stop offset="0.202" stop-color="#A1A2A1"/>
<stop offset="0.2841" stop-color="#C4C5C4"/>
<stop offset="0.3622" stop-color="#EDEDED"/>
<stop offset="0.4309" stop-color="#E9E9E9"/>
<stop offset="0.5012" stop-color="#DDDDDD"/>
<stop offset="0.572" stop-color="#C8C9C8"/>
<stop offset="0.6245" stop-color="#B4B5B4"/>
<stop offset="0.7211" stop-color="#C1C1C1"/>
<stop offset="0.801" stop-color="#CFCFCF"/>
<stop offset="0.8635" stop-color="#CDCDCD"/>
<stop offset="0.8951" stop-color="#C5C5C5"/>
<stop offset="0.9197" stop-color="#B8B8B8"/>
<stop offset="0.9408" stop-color="#A5A5A5"/>
<stop offset="0.9596" stop-color="#8C8C8C"/>
<stop offset="0.9767" stop-color="#6E6E6E"/>
<stop offset="0.9923" stop-color="#4B4B4B"/>
<stop offset="1" stop-color="#373737"/>
</linearGradient>
<linearGradient id="paint20_linear_562_22921" x1="53.4696" y1="92.6137" x2="44.1144" y2="92.6137" gradientUnits="userSpaceOnUse">
<stop stop-color="#727472"/>
<stop offset="0.0553" stop-color="#777977"/>
<stop offset="0.1248" stop-color="#878987"/>
<stop offset="0.202" stop-color="#A1A2A1"/>
<stop offset="0.2841" stop-color="#C4C5C4"/>
<stop offset="0.3622" stop-color="#EDEDED"/>
<stop offset="0.4309" stop-color="#E9E9E9"/>
<stop offset="0.5012" stop-color="#DDDDDD"/>
<stop offset="0.572" stop-color="#C8C9C8"/>
<stop offset="0.6245" stop-color="#B4B5B4"/>
<stop offset="0.7211" stop-color="#C1C1C1"/>
<stop offset="0.801" stop-color="#CFCFCF"/>
<stop offset="0.8635" stop-color="#CDCDCD"/>
<stop offset="0.8951" stop-color="#C5C5C5"/>
<stop offset="0.9197" stop-color="#B8B8B8"/>
<stop offset="0.9408" stop-color="#A5A5A5"/>
<stop offset="0.9596" stop-color="#8C8C8C"/>
<stop offset="0.9767" stop-color="#6E6E6E"/>
<stop offset="0.9923" stop-color="#4B4B4B"/>
<stop offset="1" stop-color="#373737"/>
</linearGradient>
<radialGradient id="paint21_radial_562_22921" cx="0" cy="0" r="1" gradientUnits="userSpaceOnUse" gradientTransform="translate(105.827 58.0366) rotate(180) scale(43.2398 43.2398)">
<stop stop-color="#727472"/>
<stop offset="0.0553" stop-color="#777977"/>
<stop offset="0.1248" stop-color="#878987"/>
<stop offset="0.202" stop-color="#A1A2A1"/>
<stop offset="0.2841" stop-color="#C4C5C4"/>
<stop offset="0.3622" stop-color="#EDEDED"/>
<stop offset="0.4309" stop-color="#E9E9E9"/>
<stop offset="0.5012" stop-color="#DDDDDD"/>
<stop offset="0.572" stop-color="#C8C9C8"/>
<stop offset="0.6245" stop-color="#B4B5B4"/>
<stop offset="0.7211" stop-color="#C1C1C1"/>
<stop offset="0.801" stop-color="#CFCFCF"/>
<stop offset="0.8635" stop-color="#CDCDCD"/>
<stop offset="0.8951" stop-color="#C5C5C5"/>
<stop offset="0.9197" stop-color="#B8B8B8"/>
<stop offset="0.9408" stop-color="#A5A5A5"/>
<stop offset="0.9596" stop-color="#8C8C8C"/>
<stop offset="0.9767" stop-color="#6E6E6E"/>
<stop offset="0.9923" stop-color="#4B4B4B"/>
<stop offset="1" stop-color="#373737"/>
</radialGradient>
<radialGradient id="paint22_radial_562_22921" cx="0" cy="0" r="1" gradientUnits="userSpaceOnUse" gradientTransform="translate(115.526 91.2021) rotate(180) scale(106.107)">
<stop stop-color="#727472"/>
<stop offset="0.0553" stop-color="#777977"/>
<stop offset="0.1248" stop-color="#878987"/>
<stop offset="0.202" stop-color="#A1A2A1"/>
<stop offset="0.2841" stop-color="#C4C5C4"/>
<stop offset="0.3622" stop-color="#EDEDED"/>
<stop offset="0.4309" stop-color="#E9E9E9"/>
<stop offset="0.5012" stop-color="#DDDDDD"/>
<stop offset="0.572" stop-color="#C8C9C8"/>
<stop offset="0.6245" stop-color="#B4B5B4"/>
<stop offset="0.7211" stop-color="#C1C1C1"/>
<stop offset="0.801" stop-color="#CFCFCF"/>
<stop offset="0.8635" stop-color="#CDCDCD"/>
<stop offset="0.8951" stop-color="#C5C5C5"/>
<stop offset="0.9197" stop-color="#B8B8B8"/>
<stop offset="0.9408" stop-color="#A5A5A5"/>
<stop offset="0.9596" stop-color="#8C8C8C"/>
<stop offset="0.9767" stop-color="#6E6E6E"/>
<stop offset="0.9923" stop-color="#4B4B4B"/>
<stop offset="1" stop-color="#373737"/>
</radialGradient>
<radialGradient id="paint23_radial_562_22921" cx="0" cy="0" r="1" gradientUnits="userSpaceOnUse" gradientTransform="translate(99.1451 90.2539) rotate(180) scale(24.1817 24.1819)">
<stop stop-color="#727472"/>
<stop offset="0.0553" stop-color="#777977"/>
<stop offset="0.1248" stop-color="#878987"/>
<stop offset="0.202" stop-color="#A1A2A1"/>
<stop offset="0.2841" stop-color="#C4C5C4"/>
<stop offset="0.3622" stop-color="#EDEDED"/>
<stop offset="0.4309" stop-color="#E9E9E9"/>
<stop offset="0.5012" stop-color="#DDDDDD"/>
<stop offset="0.572" stop-color="#C8C9C8"/>
<stop offset="0.6245" stop-color="#B4B5B4"/>
<stop offset="0.7211" stop-color="#C1C1C1"/>
<stop offset="0.801" stop-color="#CFCFCF"/>
<stop offset="0.8635" stop-color="#CDCDCD"/>
<stop offset="0.8951" stop-color="#C5C5C5"/>
<stop offset="0.9197" stop-color="#B8B8B8"/>
<stop offset="0.9408" stop-color="#A5A5A5"/>
<stop offset="0.9596" stop-color="#8C8C8C"/>
<stop offset="0.9767" stop-color="#6E6E6E"/>
<stop offset="0.9923" stop-color="#4B4B4B"/>
<stop offset="1" stop-color="#373737"/>
</radialGradient>
<radialGradient id="paint24_radial_562_22921" cx="0" cy="0" r="1" gradientUnits="userSpaceOnUse" gradientTransform="translate(32.0504 57.9453) rotate(180) scale(19.9609 19.9609)">
<stop stop-color="#727472"/>
<stop offset="0.0553" stop-color="#777977"/>
<stop offset="0.1248" stop-color="#878987"/>
<stop offset="0.202" stop-color="#A1A2A1"/>
<stop offset="0.2841" stop-color="#C4C5C4"/>
<stop offset="0.3622" stop-color="#EDEDED"/>
<stop offset="0.4309" stop-color="#E9E9E9"/>
<stop offset="0.5012" stop-color="#DDDDDD"/>
<stop offset="0.572" stop-color="#C8C9C8"/>
<stop offset="0.6245" stop-color="#B4B5B4"/>
<stop offset="0.7211" stop-color="#C1C1C1"/>
<stop offset="0.801" stop-color="#CFCFCF"/>
<stop offset="0.8635" stop-color="#CDCDCD"/>
<stop offset="0.8951" stop-color="#C5C5C5"/>
<stop offset="0.9197" stop-color="#B8B8B8"/>
<stop offset="0.9408" stop-color="#A5A5A5"/>
<stop offset="0.9596" stop-color="#8C8C8C"/>
<stop offset="0.9767" stop-color="#6E6E6E"/>
<stop offset="0.9923" stop-color="#4B4B4B"/>
<stop offset="1" stop-color="#373737"/>
</radialGradient>
<radialGradient id="paint25_radial_562_22921" cx="0" cy="0" r="1" gradientUnits="userSpaceOnUse" gradientTransform="translate(216.446 100.53) rotate(180) scale(30.2067 30.2069)">
<stop stop-color="#727472"/>
<stop offset="0.0553" stop-color="#777977"/>
<stop offset="0.1248" stop-color="#878987"/>
<stop offset="0.202" stop-color="#A1A2A1"/>
<stop offset="0.2841" stop-color="#C4C5C4"/>
<stop offset="0.3622" stop-color="#EDEDED"/>
<stop offset="0.4309" stop-color="#E9E9E9"/>
<stop offset="0.5012" stop-color="#DDDDDD"/>
<stop offset="0.572" stop-color="#C8C9C8"/>
<stop offset="0.6245" stop-color="#B4B5B4"/>
<stop offset="0.7211" stop-color="#C1C1C1"/>
<stop offset="0.801" stop-color="#CFCFCF"/>
<stop offset="0.8635" stop-color="#CDCDCD"/>
<stop offset="0.8951" stop-color="#C5C5C5"/>
<stop offset="0.9197" stop-color="#B8B8B8"/>
<stop offset="0.9408" stop-color="#A5A5A5"/>
<stop offset="0.9596" stop-color="#8C8C8C"/>
<stop offset="0.9767" stop-color="#6E6E6E"/>
<stop offset="0.9923" stop-color="#4B4B4B"/>
<stop offset="1" stop-color="#373737"/>
</radialGradient>
<linearGradient id="paint26_linear_562_22921" x1="168.655" y1="96.7933" x2="81.421" y2="115.757" gradientUnits="userSpaceOnUse">
<stop stop-color="#727472"/>
<stop offset="0.0553" stop-color="#777977"/>
<stop offset="0.1248" stop-color="#878987"/>
<stop offset="0.202" stop-color="#A1A2A1"/>
<stop offset="0.2841" stop-color="#C4C5C4"/>
<stop offset="0.3622" stop-color="#EDEDED"/>
<stop offset="0.4309" stop-color="#E9E9E9"/>
<stop offset="0.5012" stop-color="#DDDDDD"/>
<stop offset="0.572" stop-color="#C8C9C8"/>
<stop offset="0.6245" stop-color="#B4B5B4"/>
<stop offset="0.7211" stop-color="#C1C1C1"/>
<stop offset="0.801" stop-color="#CFCFCF"/>
<stop offset="0.8635" stop-color="#CDCDCD"/>
<stop offset="0.8951" stop-color="#C5C5C5"/>
<stop offset="0.9197" stop-color="#B8B8B8"/>
<stop offset="0.9408" stop-color="#A5A5A5"/>
<stop offset="0.9596" stop-color="#8C8C8C"/>
<stop offset="0.9767" stop-color="#6E6E6E"/>
<stop offset="0.9923" stop-color="#4B4B4B"/>
<stop offset="1" stop-color="#373737"/>
</linearGradient>
</defs>
</svg>
