<svg width="31" height="24" viewBox="0 0 31 24" fill="none" xmlns="http://www.w3.org/2000/svg">
<g clip-path="url(#clip0_346_199)">
<path d="M29.3526 8.93235L28.6987 8.21986L26.4038 1.85367C26.0128 0.778348 25.0128 0.0658622 23.8974 0.0592651H7.50641C6.39103 0.0592651 5.39103 0.778348 5 1.85367L2.73718 8.1407L1.79487 9.0379C0.974359 9.75699 0.5 10.8125 0.5 11.9208V21.1963C0.50641 22.7137 1.70513 23.9407 3.17949 23.9407H4.87179C6.34615 23.9407 7.54487 22.7137 7.55128 21.1963V19.8505H23.4487V21.1963C23.4551 22.7137 24.6538 23.9407 26.1282 23.9407H27.8205C29.2949 23.9407 30.4936 22.7137 30.5 21.1963V11.6767C30.4936 10.641 30.0833 9.65143 29.3526 8.93235ZM6.20513 2.30228C6.41026 1.74152 6.92949 1.37868 7.50641 1.37868H23.9038C24.4808 1.37868 25 1.74812 25.2051 2.30228L27.2051 7.84383H25.7115C25.359 5.36992 23.1218 3.66128 20.7179 4.03071C18.8013 4.32098 17.2949 5.8713 17.0128 7.84383H4.20513L6.20513 2.30228ZM24.4038 7.84383H18.3077C18.6603 6.1088 20.3141 5.00048 22 5.36332C23.2051 5.62721 24.1474 6.59698 24.4038 7.84383ZM6.26923 21.1963C6.26282 21.988 5.64103 22.6213 4.87179 22.6213H3.17949C2.41026 22.6213 1.78846 21.988 1.78205 21.1963V19.4679C2.16667 19.7252 2.67308 19.8505 3.17949 19.8505H6.26923V21.1963ZM29.218 21.1963C29.2115 21.988 28.5897 22.6213 27.8205 22.6213H26.1282C25.359 22.6213 24.7372 21.9814 24.7308 21.1963V19.8505H27.8205C28.3269 19.8505 28.8333 19.7252 29.218 19.4679V21.1963ZM27.8205 18.5311H3.17949C2.41667 18.5377 1.78846 17.911 1.78205 17.1193V11.9208C1.78205 11.1952 2.09615 10.5025 2.63462 10.0341L2.66026 10.0077L3.53205 9.16325H27.8077L28.4231 9.84275C28.4295 9.85594 28.4487 9.86254 28.4551 9.87573C28.9359 10.3441 29.2115 10.9972 29.2115 11.6767V17.1193H29.218C29.2115 17.9044 28.5833 18.5377 27.8205 18.5311Z" fill="black"/>
<path d="M8.96141 11.8021H4.15372C3.80116 11.8021 3.5127 12.0989 3.5127 12.4618V15.8923C3.5127 16.2551 3.80116 16.552 4.15372 16.552H8.96141C9.31398 16.552 9.60244 16.2551 9.60244 15.8923V12.4618C9.60244 12.0989 9.31398 11.8021 8.96141 11.8021ZM8.32039 15.2325H4.79475V13.1215H8.32039V15.2325ZM26.846 11.8021H22.0383C21.6858 11.8021 21.3973 12.0989 21.3973 12.4618V15.8923C21.3973 16.2551 21.6858 16.552 22.0383 16.552H26.846C27.1986 16.552 27.4871 16.2551 27.4871 15.8923V12.4618C27.4871 12.0989 27.1986 11.8021 26.846 11.8021ZM26.205 15.2325H22.6794V13.1215H26.205V15.2325ZM18.596 14.5728H12.4037C12.0512 14.5728 11.7627 14.8697 11.7627 15.2325C11.7627 15.5954 12.0512 15.8923 12.4037 15.8923H18.596C18.9486 15.8923 19.2371 15.5954 19.2371 15.2325C19.2371 14.8697 18.9486 14.5728 18.596 14.5728ZM18.596 12.5277H12.4037C12.0512 12.5277 11.7627 12.8246 11.7627 13.1875C11.7627 13.5503 12.0512 13.8472 12.4037 13.8472H18.596C18.9486 13.8472 19.2371 13.5503 19.2371 13.1875C19.2371 12.8246 18.9486 12.5277 18.596 12.5277Z" fill="black"/>
</g>
<defs>
<clipPath id="clip0_346_199">
<rect width="30" height="24" fill="white" transform="translate(0.5)"/>
</clipPath>
</defs>
</svg>
