<svg width="28" height="24" viewBox="0 0 28 24" fill="none" xmlns="http://www.w3.org/2000/svg">
<path d="M27.2013 10.4422C27.095 9.78774 26.781 9.18489 26.3055 8.7228C25.8301 8.26071 25.2185 7.96393 24.5613 7.87636C24.4351 7.86402 24.3084 7.85819 24.1817 7.85891V6.54545C24.1796 4.81013 23.4893 3.14648 22.2622 1.91942C21.0352 0.692355 19.3715 0.00207865 17.6362 0H10.6544C8.91907 0.00207865 7.25541 0.692355 6.02835 1.91942C4.80129 3.14648 4.11102 4.81013 4.10894 6.54545V7.85891C3.98218 7.85819 3.85546 7.86402 3.7293 7.87636C3.0721 7.96393 2.46054 8.26071 1.98509 8.7228C1.50964 9.18489 1.19556 9.78774 1.0893 10.4422C0.972655 11.1719 1.12643 11.919 1.52175 12.5433C1.91707 13.1677 2.52672 13.6262 3.23621 13.8327V19.6364C3.23725 19.9832 3.3755 20.3156 3.62078 20.5609C3.86606 20.8062 4.19843 20.9444 4.5453 20.9455V23.5636C4.5453 23.6794 4.59127 23.7904 4.67311 23.8722C4.75494 23.954 4.86593 24 4.98166 24H6.29076C6.38573 23.9997 6.47803 23.9685 6.55363 23.911C6.62924 23.8535 6.68402 23.7729 6.70966 23.6815L7.49076 20.9455H20.7998L21.5809 23.6815C21.6066 23.7729 21.6614 23.8535 21.737 23.911C21.8126 23.9685 21.9049 23.9997 21.9998 24H23.3089C23.4247 24 23.5357 23.954 23.6175 23.8722C23.6993 23.7904 23.7453 23.6794 23.7453 23.5636V20.9455C24.0922 20.9444 24.4245 20.8062 24.6698 20.5609C24.9151 20.3156 25.0534 19.9832 25.0544 19.6364V13.8327C25.7639 13.6262 26.3735 13.1677 26.7689 12.5433C27.1642 11.919 27.3179 11.1719 27.2013 10.4422ZM4.98166 6.54545C4.98305 5.04138 5.58116 3.5993 6.6447 2.53576C7.70824 1.47222 9.15032 0.874114 10.6544 0.872727H17.6362C19.1403 0.874114 20.5824 1.47222 21.6459 2.53576C22.7094 3.5993 23.3076 5.04138 23.3089 6.54545V7.98545C22.6783 8.17172 22.1249 8.55722 21.7316 9.08424C21.3383 9.61127 21.1262 10.2515 21.1271 10.9091V12.2967C20.9872 12.2459 20.8396 12.2194 20.6908 12.2182H7.59985C7.45098 12.2194 7.30341 12.2459 7.16348 12.2967V10.9091C7.1644 10.2515 6.95234 9.61127 6.55903 9.08424C6.16573 8.55722 5.61234 8.17172 4.98166 7.98545V6.54545ZM21.1271 13.5273V15.7091H7.16348V13.5273C7.16348 13.4115 7.20946 13.3006 7.29129 13.2187C7.37312 13.1369 7.48412 13.0909 7.59985 13.0909H20.6908C20.8065 13.0909 20.9175 13.1369 20.9993 13.2187C21.0811 13.3006 21.1271 13.4115 21.1271 13.5273ZM5.96348 23.1273H5.41803V20.9455H6.58312L5.96348 23.1273ZM22.8726 23.1273H22.3271L21.7075 20.9455H22.8726V23.1273ZM24.5438 13.056C24.4424 13.0742 24.3506 13.1274 24.2845 13.2064C24.2183 13.2853 24.1819 13.385 24.1817 13.488V19.6364C24.1817 19.7521 24.1357 19.8631 24.0539 19.9449C23.972 20.0268 23.861 20.0727 23.7453 20.0727H4.5453C4.42957 20.0727 4.31858 20.0268 4.23674 19.9449C4.15491 19.8631 4.10894 19.7521 4.10894 19.6364V13.488C4.10872 13.385 4.07234 13.2853 4.00615 13.2064C3.93996 13.1274 3.84816 13.0742 3.74675 13.056C3.23085 12.9695 2.76325 12.7004 2.42937 12.2977C2.09549 11.895 1.91759 11.3857 1.92818 10.8627C1.93877 10.3397 2.13713 9.83794 2.48703 9.44909C2.83694 9.06024 3.31504 8.81024 3.83403 8.74473C3.92513 8.7324 4.017 8.72656 4.10894 8.72727H4.1133C4.64475 8.72631 5.15773 8.92217 5.5533 9.27709C5.78453 9.48159 5.96981 9.73276 6.09692 10.0141C6.22403 10.2954 6.2901 10.6004 6.29076 10.9091V16.1455C6.29076 16.2612 6.33673 16.3722 6.41856 16.454C6.5004 16.5358 6.61139 16.5818 6.72712 16.5818H21.5635C21.6792 16.5818 21.7902 16.5358 21.872 16.454C21.9539 16.3722 21.9998 16.2612 21.9998 16.1455V10.9091C22.0005 10.6004 22.0666 10.2954 22.1937 10.0141C22.3208 9.73276 22.5061 9.48159 22.7373 9.27709C22.9685 9.06952 23.2418 8.91445 23.5386 8.82255C23.8354 8.73066 24.1486 8.70411 24.4566 8.74473C24.9248 8.80536 25.3609 9.01571 25.6998 9.34441C26.0388 9.67312 26.2624 10.1026 26.3373 10.5687V10.5731C26.4274 11.14 26.2894 11.7195 25.9532 12.1849C25.6171 12.6502 25.1104 12.9634 24.5438 13.056Z" fill="black"/>
</svg>
