<svg width="441" height="417" viewBox="0 0 441 417" fill="none" xmlns="http://www.w3.org/2000/svg">
<path d="M266.289 233.007C266.289 233.007 256.643 282.815 256.044 284.011C255.508 285.083 253.894 286.391 251.632 286.516C251.364 286.541 251.09 286.541 250.809 286.522C248.117 286.341 244.079 285.731 243.855 283.712C243.631 281.693 251.707 235.257 251.707 235.257L258.269 234.248L266.289 233.007Z" fill="#7D4626"/>
<path d="M266.289 233.007C266.289 233.007 256.643 282.815 256.044 284.011C255.508 285.083 253.894 286.391 251.632 286.516C249.557 285.737 250.361 282.59 250.585 280.796C250.766 279.357 256.156 246.947 258.268 234.247L266.289 233.007Z" fill="#96542E"/>
<path d="M261.13 240.416L389.198 253.42L391.474 274.066L256.418 254.774C256.418 254.774 257.871 245.016 258.266 243.67C258.661 242.324 259.242 240.224 261.13 240.416Z" fill="#7D4626"/>
<path d="M28.498 236.826L100.509 232.115L102.528 238.396L29.022 239.443L28.498 236.826Z" fill="#C9713E"/>
<path d="M29.0223 239.444L100.808 235.256C100.808 235.256 256.643 239.444 254.251 239.444C251.859 239.444 26.0674 256.493 26.0674 256.493L29.0223 239.444Z" fill="#96542E"/>
<path d="M101.556 312.126L20.9463 276.083L22.8723 262.176C22.8843 262.076 22.9162 261.982 22.9592 261.901C23.6942 260.418 28.4993 261.055 28.4993 261.055L99.7622 285.806L99.9053 287.937L101.556 312.126Z" fill="#AF6236"/>
<path d="M99.9041 287.937L22.958 261.901C23.693 260.418 28.498 261.055 28.498 261.055L99.761 285.806L99.9041 287.937Z" fill="#C9713E"/>
<path d="M161.676 233.008L164.817 257.838H172.295L169.303 231.367L161.676 233.008Z" fill="#592D20"/>
<path d="M341.141 220.749L342.637 240.403H348.619L347.572 218.356L341.141 220.749Z" fill="#592D20"/>
<path d="M417.713 351.908C417.862 355.198 413.675 355.647 410.534 355.946C409.942 356.002 409.232 355.915 408.478 355.703C405.219 354.806 401 351.659 400.514 348.02C399.916 343.533 377.782 205.345 377.782 205.345L387.547 200.372L393.635 197.269C393.635 197.269 417.563 348.618 417.713 351.908Z" fill="#96542E"/>
<path d="M108.229 260.918C108.229 260.918 379.353 233.685 381.821 233.236C384.289 232.787 388.327 232.787 389.224 235.255C390.121 237.723 391.243 246.92 391.467 250.061C391.691 253.202 387.353 254.398 384.063 254.996C380.773 255.594 111.576 286.522 111.576 286.522L108.229 260.918Z" fill="#AF6236"/>
<path d="M417.713 351.907C417.862 355.197 413.675 355.647 410.534 355.946C409.942 356.002 409.232 355.915 408.478 355.703C410.092 354.444 411.644 352.263 411.282 348.618C410.665 342.368 392.257 229.292 387.547 200.372L393.635 197.27C393.635 197.27 417.563 348.617 417.713 351.907Z" fill="#AF6236"/>
<path d="M299.716 97.6625L278.18 175.585L148.288 179.621C148.288 179.621 129.445 132.514 126.823 125.785C124.787 120.569 68.0681 109.062 41.2531 99.5565C33.4641 96.8005 28.199 94.1995 27.527 91.9795C24.537 82.1125 30.5171 42.0315 30.9621 33.3595C31.4001 24.6805 30.1631 14.8065 30.9621 8.83451C32.0011 1.05251 40.3901 1.65349 45.7691 0.15549C46.6741 -0.0915096 49.8751 -0.0354915 54.6821 0.261508C55.3041 0.296508 55.9541 0.339462 56.6331 0.388462C81.7241 2.06346 141.92 8.83447 159.731 11.3725C181.719 14.5175 227.6 9.54547 241.962 9.84146C243.326 9.86946 244.634 9.95446 245.892 10.0815C257.837 11.3045 263.924 16.9225 264.989 18.5205C267.509 22.3005 270.975 37.6605 273.364 42.4455C275.76 47.2305 299.716 97.6625 299.716 97.6625Z" fill="#1B6486"/>
<path d="M47.5674 56.689C48.0164 67.008 50.5583 82.1129 49.9603 86.8989C49.4863 90.6629 43.6974 97.0189 41.2554 99.5609C33.4664 96.8009 28.2003 94.202 27.5273 91.9839C24.5363 82.1129 30.5183 42.0329 30.9603 33.3589C31.4023 24.6849 30.1623 14.8079 30.9603 8.83191C32.0013 1.05491 40.3883 1.65296 45.7723 0.157958C46.6753 -0.0910416 49.8783 -0.0350846 54.6833 0.263915C49.9594 0.948915 43.0674 3.38594 44.8754 11.8229C47.5674 24.3849 47.1184 46.37 47.5674 56.689Z" fill="#134E70"/>
<path d="M290.449 98.1865C290.449 98.1865 281.335 98.1865 272.695 114.299C267.434 124.109 258.295 143.819 243.415 148.619C239.502 149.881 213.899 154.913 209.815 155.099C181.131 156.402 191.501 162.969 191.501 162.969L268.682 164.119L287.751 142.827L290.734 108.562L290.449 98.1865Z" fill="#134E70"/>
<path d="M440.295 110.831C439.397 115.913 428.329 118.902 425.339 118.902C422.349 118.902 419.657 122.789 419.657 130.267C419.657 137.745 418.47 161.076 417.72 169.154C417.494 171.557 417.07 174.681 416.292 178.052C414.469 186.003 410.631 195.34 402.63 199.962C391.244 206.542 346.971 222.395 332.015 226.282C317.06 230.169 286.696 238.495 239.808 240.467C192.934 242.432 133.388 240.467 126.822 240.403C120.249 240.339 81.497 241.633 70.598 226.578C59.706 211.533 54.007 190.115 52.278 184.334C50.632 178.827 46.3689 151.801 44.5739 140.74C44.2279 138.592 43.8459 136.337 43.4429 134.096C41.7959 124.773 39.824 115.6 38.368 114.787C37.477 114.292 31.83 113.034 25.837 111.656C19.632 110.214 13.051 108.638 11.002 107.613C6.95901 105.592 -0.215055 104.92 0.00494456 97.9649C0.0899446 95.4979 8.98093 88.0909 19.7449 87.1939C30.5159 86.2959 59.0069 87.4909 73.8139 89.8089C88.6209 92.1339 124.511 100.432 131.466 104.249C138.421 108.059 154.345 123.311 158.387 139.242C161.977 153.413 165.391 171.492 170.367 178.935C170.982 179.861 171.625 180.624 172.297 181.19C174.015 182.653 182.305 181.551 193.31 179.232C221.072 173.345 266.066 159.654 266.066 159.654C266.066 159.654 280.272 122.788 282.364 112.321C283.156 108.356 285.156 104.511 287.743 101.225C287.743 101.225 287.743 101.225 287.75 101.218C291.977 95.8389 297.765 91.9379 302.409 91.3869C309.887 90.4889 386.156 94.0799 393.633 95.2739C401.111 96.4689 426.237 98.5609 429.827 100.059C433.418 101.557 441.193 105.742 440.295 110.831Z" fill="#1B6486"/>
<path d="M131.989 179.424C132.243 181.714 94.2949 168.613 89.6349 164.118C84.9749 159.623 70.5009 154.36 57.3339 145.928C53.5169 143.49 47.9899 136.105 43.4449 134.098C41.7979 124.775 39.8259 115.602 38.3699 114.789C37.4789 114.294 31.8319 113.036 25.8389 111.658C28.5319 108.258 30.9629 105.509 30.9629 105.509L79.5469 120.846C79.5469 120.846 121.976 122.699 126.821 135.2C132.168 148.993 131.742 177.134 131.989 179.424Z" fill="#134E70"/>
<path d="M49.9592 109.631C49.9592 109.631 24.2363 310.033 23.0393 312.576C22.4843 313.754 21.0953 314.358 19.5993 314.626C17.8673 314.95 15.9973 314.832 15.1123 314.67C13.4673 314.371 11.8223 311.829 11.9713 308.538C12.1203 305.248 37.0963 109.631 37.0963 109.631H49.9592Z" fill="#96542E"/>
<path d="M19.6002 314.626C17.8682 314.95 15.9983 314.832 15.1133 314.67C13.4683 314.371 11.8233 311.829 11.9723 308.538C12.1213 305.248 37.0973 109.631 37.0973 109.631H40.1693C35.8763 144.209 16.0852 303.372 15.4862 306.369C14.8142 309.734 14.0602 313.685 19.6002 314.626Z" fill="#AF6236"/>
<path d="M126.755 413.374C124.555 416.864 118.523 416.745 115.233 415.785C114.504 415.573 113.906 415.324 113.519 415.056C111.388 413.598 107.986 408.438 107.986 408.438L86.4501 141.334C86.4501 141.334 46.968 125.93 44.874 124.883C42.78 123.836 41.584 121.742 41.584 120.247C41.584 118.752 41.584 112.62 41.584 112.62L89.634 120.845L102.751 123.088C102.752 123.09 128.282 410.957 126.755 413.374Z" fill="#96542E"/>
<path d="M86.451 141.335L85.399 123.148L44.18 112.62L43.1741 120.825C42.9061 122.71 43.965 124.532 45.735 125.232L86.451 141.335Z" fill="#7D4626"/>
<path d="M126.755 413.375C124.555 416.865 118.523 416.746 115.233 415.786C114.828 413.294 114.323 409.997 114.192 408.439C113.968 405.747 90.4878 125.184 90.4878 125.184L89.6338 120.847L102.751 123.09C102.751 123.09 128.282 410.958 126.755 413.375Z" fill="#AF6236"/>
<path d="M404.312 183.17C402.517 189.001 385.107 194.131 375.042 199.262C364.977 204.386 326.467 212.032 308.522 214.725C290.577 217.418 227.452 222.251 198.625 218.356C174.13 215.047 148.554 204.746 143.465 190.066C138.369 175.386 136.321 125.57 119.25 125.57C113.028 125.57 88.579 125.884 83.285 125.475C78.253 125.086 74.2099 124.542 72.2449 124.21C71.8349 124.139 71.156 123.991 70.273 123.772C62.569 121.878 39.118 115.008 38.383 114.796C38.376 114.789 38.369 114.789 38.369 114.789C36.567 113.778 15.038 109.629 11.002 107.615C6.95901 105.594 -0.215055 104.922 0.00494456 97.9668C0.0189446 97.5708 0.259938 97.0478 0.697938 96.4478C2.98094 93.2958 10.7059 87.9528 19.7459 87.1958C30.5169 86.2978 59.008 87.4928 73.815 89.8108C88.622 92.1358 124.512 100.434 131.467 104.251C138.422 108.061 151.071 122.947 155.113 138.878C158.703 153.049 160.536 172.179 165.512 179.622L193.31 179.233L366.563 181.417C366.563 181.417 406.107 177.339 404.312 183.17Z" fill="#3998C4"/>
<path d="M352.958 192.308C329.924 197.566 313.47 201.758 285.955 202.054C258.44 202.351 212.676 199.665 199.813 197.269C186.95 194.873 174.659 198.393 165.513 177.536V167.422C169.902 164.666 186.617 160.481 208.471 159.28C230.325 158.086 272.901 157.506 283.467 156.453C294.033 155.393 343.084 153.004 353.855 153.004C360.958 153.004 374.663 155.025 383.427 159.626C387.943 161.994 390.488 164.969 390.813 168.779C391.76 179.989 375.985 187.05 352.958 192.308Z" fill="#3998C4"/>
<path d="M440.296 110.827C439.399 115.912 428.332 118.903 425.341 118.903C422.35 118.903 419.658 122.791 419.658 130.269C419.658 137.747 418.468 161.077 417.72 169.153C417.496 171.558 417.072 174.68 416.293 178.051C413.501 176.306 413.448 171.198 413.205 168.456C412.812 163.969 414.801 139.989 415.698 126.978C416.595 113.967 408.74 109.181 404.703 105.143C400.665 101.105 351.47 97.1666 328.146 96.2696C305.146 95.3846 297.766 91.9385 302.408 91.3835C309.886 90.4865 386.158 94.0755 393.636 95.2715C401.114 96.4675 426.239 98.5616 429.828 100.058C433.416 101.555 441.193 105.742 440.296 110.827Z" fill="#3998C4"/>
<path d="M311.852 206.76C306.393 207.221 292.444 209.088 285.998 209.157C274.623 209.28 224.948 207.757 216.437 206.599C202.187 204.661 174.659 202.883 165.513 182.026V176.746C175.624 178.465 177.434 189.083 191.501 192.356C220.67 199.142 265.16 199.324 283.609 198.208C317.195 196.172 344.88 173.947 364.059 168.608C370.819 166.726 382.539 165.297 388.184 164.116C392.7 166.484 394.015 169.205 393.731 173.018C393.273 179.165 390.607 184.533 381.568 188.793C374.706 192.029 329.693 205.254 311.852 206.76Z" fill="#134E70"/>
<path d="M352.958 192.307C329.924 197.565 313.47 201.757 285.955 202.053C258.44 202.35 212.676 199.664 199.813 197.268C186.95 194.872 173.762 198.814 164.616 174.892L165.513 169.19C196.187 172.634 254.668 168.423 282.013 166.769C315.599 164.733 326.32 164.897 349.294 161.328C356.227 160.251 366.591 154.686 376.391 156.743C386.191 158.799 391.152 165.046 391.477 168.855C392.425 180.066 375.985 187.049 352.958 192.307Z" fill="#1B6486"/>
<path d="M114.959 120.846C114.983 126.544 91.1239 125.569 85.1519 125.569C80.1199 125.18 74.2099 124.541 72.2459 124.208C71.8359 124.137 71.157 123.989 70.274 123.77C62.57 121.876 39.119 115.006 38.384 114.794C38.377 114.787 38.3699 114.787 38.3699 114.787C36.5679 113.776 15.039 109.627 11.003 107.613C6.95999 105.592 -0.214079 104.92 0.00592112 97.9655C0.0199211 97.5695 0.260914 97.0465 0.698914 96.4465C4.26791 93.0935 10.365 92.4385 15.341 92.4385C25.519 92.4385 46.978 94.4504 55.648 95.8104C71.281 98.2624 82.7749 100.255 93.6569 104.239C104.538 108.225 114.935 115.149 114.959 120.846Z" fill="#1B6486"/>
<path d="M274.449 246.639C274.449 246.639 383.435 235.257 385.046 235.257C386.657 235.257 387.546 235.698 387.546 237.394C387.546 239.09 382.831 239.481 378.515 239.811C374.199 240.141 229.497 254.052 229.497 251.677C229.498 250.54 274.449 246.639 274.449 246.639Z" fill="#E6976A"/>
<path d="M393.019 211.695C393.019 211.695 413.629 343.114 414.138 345.913C414.647 348.712 415.919 348.203 415.665 345.913C415.411 343.623 395.225 215.257 394.716 211.695C394.207 208.133 392.517 208.498 393.019 211.695Z" fill="#E6976A"/>
<path d="M105.161 221.533C105.161 221.533 120.088 394.214 120.427 399.642C120.766 405.07 124.159 406.766 123.48 399.642C122.801 392.518 110.079 230.014 109.062 221.533C108.044 213.051 104.326 211.877 105.161 221.533Z" fill="#E6976A"/>
<path d="M246.763 13.2036C242.897 17.9956 226.562 19.7177 216.724 22.0927C206.886 24.4677 160.89 23.7567 148.676 22.3997C136.463 21.0427 109.031 11.0046 91.05 14.7366C73.069 18.4686 90.517 57.8606 86.451 59.3696C80.321 61.6446 69.759 46.9836 64.79 36.8066C59.821 26.6286 55.628 25.1056 53.388 13.2316C52.073 6.30563 54.328 2.48865 56.632 0.389648C81.723 2.06465 141.919 8.83566 159.73 11.3737C181.718 14.5187 228.481 9.6466 242.843 9.9436C244.207 9.9716 245.515 10.0567 246.773 10.1837C248.774 11.7727 248.339 11.2466 246.763 13.2036Z" fill="#3998C4"/>
</svg>
