<svg width="428" height="573" viewBox="0 0 428 573" fill="none" xmlns="http://www.w3.org/2000/svg">
<path d="M25.4482 199.045L30.3013 572.598H392.606V199.956L25.4482 199.045Z" fill="#757474"/>
<path d="M290.599 230.854H127.45C117.056 230.854 117.035 241.509 127.45 241.509H290.599C300.998 241.509 301.014 230.854 290.599 230.854Z" fill="#BFBFBE"/>
<path d="M424.412 188.139H0V207.225H424.412V188.139Z" fill="#464545"/>
<path d="M55.4392 120.877H362.615L427.139 188.138H0L55.4392 120.877Z" fill="#504F4F"/>
<path d="M74.5237 132.695H338.077L383.515 176.322H39.9854L74.5237 132.695Z" fill="#3C3B3B"/>
<path d="M233.121 28.4711C232.952 23.8467 232.761 18.6005 230.601 13.5126C227.891 7.14307 222.313 2.34416 215.677 0.669985C206.772 -1.58224 196.194 1.97877 189.972 9.32441C185.234 14.9304 183.489 21.4145 182.055 27.255H195.491C196.592 23.0341 197.972 18.9005 200.693 15.6885C203.168 12.7655 207.923 10.2133 211.887 11.2058C214.51 11.8657 216.942 14.167 218.234 17.2099C219.707 20.6673 219.854 24.8064 220.001 28.8092C220.601 45.2455 220.17 61.0984 219.75 76.4277C219.33 91.9043 218.889 107.904 219.505 124.635C219.614 127.613 222.531 129.969 226.065 129.969C229.898 129.87 232.744 127.335 232.635 124.297C232.036 107.866 232.466 92.0079 232.886 76.684C233.295 61.2074 233.737 45.2019 233.121 28.4711Z" fill="#6D6D6C"/>
<path d="M256.295 99.7307C251.349 99.7961 246.404 99.8397 241.458 99.927C239.02 99.9706 236 99.6979 234.015 101.443C231.697 103.488 230.863 108.183 229.898 110.91C228.098 115.993 226.293 121.075 224.494 126.158C223.414 129.206 228.251 130.515 229.325 127.488C230.481 124.222 231.643 120.955 232.799 117.689C233.862 114.689 234.598 110.561 236.272 107.889C239.511 102.719 250.891 104.819 256.295 104.748C259.518 104.699 259.523 99.6925 256.295 99.7307Z" fill="#6D6D6C"/>
</svg>
