<svg width="477" height="320" viewBox="0 0 477 320" fill="none" xmlns="http://www.w3.org/2000/svg">
<path d="M155.757 6.54639L171.566 7.37439L174.504 0.855469L176.316 7.33545L313.453 7.50745C330.816 10.2884 353.05 9.98841 370.531 8.14441L476.73 8.45337L476.191 32.6765C462.468 32.7465 443.097 30.2935 430.113 33.6145L49.8081 34.3374L48.2302 33.6733C35.0512 29.6813 14.14 32.3183 0 32.2043L0.820068 6.97046L155.757 6.54639Z" fill="#88452B"/>
<path d="M49.8076 34.3364L430.113 33.6133L428.437 39.1174L428.804 58.1914C427.831 83.2144 430.206 113.398 425.456 137.664C427.409 156.832 424.663 178.539 424.198 198.047L421.346 319.191L398.147 319.035L389.378 131.14L85.3887 131.699L75.5337 316.078L51.6975 316.625L48.9277 132.211L48.3767 55.9495L48.2275 33.6724L49.8076 34.3364Z" fill="#88452B"/>
<path d="M50.0576 131.884L50.8547 119.989L53.1907 118.169L372.246 116.419L409.594 116.544C412.078 116.555 420.367 115.767 422.332 116.599C423.437 117.068 424.117 118.208 425.008 119.013L424.621 129.677C413.445 129.876 400.211 128.88 389.379 131.142L85.3896 131.701L50.0576 131.884Z" fill="#611302"/>
<path d="M49.8083 34.3364L430.113 33.6133L428.437 39.1174L428.804 58.1914C427.452 61.1094 426.96 64.2934 426.238 67.4214L48.3794 55.9485L48.2305 33.6714L49.8083 34.3364Z" fill="#792B11"/>
<path d="M49.8076 34.3364L430.113 33.6133L428.437 39.1174C419.16 41.7154 405.054 40.1295 395.156 40.4375L188.972 39.2224C143.734 38.8514 97.3466 42.3314 52.3076 38.5854L49.8076 34.3364Z" fill="#54231C"/>
</svg>
