<svg width="429" height="617" viewBox="0 0 429 617" fill="none" xmlns="http://www.w3.org/2000/svg">
<path d="M12.0381 368.418V546.513C12.0381 546.513 13.2895 552.335 24.8764 551.756C24.8764 551.756 33.2559 551.796 34.1826 544.62L37.897 368.418H12.0381Z" fill="#B77C48"/>
<path d="M23.3247 553.055C12.2921 553.055 10.8664 547.028 10.811 546.774L10.7793 368.418C10.7793 367.721 11.3495 367.167 12.0385 367.167H37.8975C38.2301 367.167 38.5549 367.302 38.7925 367.539C39.0301 367.777 39.1567 368.11 39.1487 368.442L35.4343 544.644C34.3572 552.921 25.257 553.008 24.8769 553.008C24.37 553.04 23.8316 553.055 23.3247 553.055ZM13.2978 546.513C13.3374 546.513 14.8027 551.028 24.8136 550.497C25.17 550.497 32.1554 550.434 32.9395 544.454L36.6143 369.67H13.2978V546.513Z" fill="#5B3512"/>
<path d="M26.0255 368.418C25.8354 424.179 25.4868 491.005 24.877 551.756C24.877 551.756 33.2565 551.796 34.1831 544.62L37.8975 368.418H26.0255Z" fill="#B77C48"/>
<path d="M16.2998 368.418V544.184L18.573 368.418H16.2998Z" fill="#B77C48"/>
<path d="M197.811 309.45V483.433C197.811 483.433 199.062 489.247 210.649 488.677C210.649 488.677 219.028 488.709 219.955 481.533L223.725 302.393C214.965 304.262 206.285 306.48 197.811 309.45Z" fill="#B77C48"/>
<path d="M209.088 489.96C198.064 489.96 196.638 483.932 196.582 483.687L196.551 309.442C196.551 308.903 196.891 308.428 197.382 308.254C205.081 305.553 213.373 303.303 223.455 301.157C223.827 301.077 224.231 301.165 224.516 301.418C224.809 301.664 224.976 302.028 224.968 302.408L221.198 481.548C220.129 489.825 211.021 489.928 210.641 489.928C210.142 489.96 209.603 489.96 209.088 489.96ZM199.07 483.417C199.109 483.417 200.345 487.449 209.088 487.449C209.571 487.449 210.063 487.433 210.577 487.409C210.934 487.409 217.927 487.338 218.703 481.358L222.433 303.953C213.508 305.893 206.015 307.937 199.062 310.329V483.425V483.417H199.07Z" fill="#5B3512"/>
<path d="M211.797 305.196C211.607 360.989 211.258 427.871 210.648 488.677C210.648 488.677 219.028 488.709 219.955 481.533L223.724 302.393C219.725 303.24 215.749 304.159 211.797 305.196Z" fill="#B77C48"/>
<path d="M202.071 308.024V481.105L204.313 307.319C203.56 307.541 202.824 307.786 202.071 308.024Z" fill="#B77C48"/>
<path d="M195.259 307.707V609.6C195.259 609.6 196.51 615.421 208.097 614.843C208.097 614.843 216.469 614.883 217.411 607.707L223.731 307.707H195.259Z" fill="#B77C48"/>
<path d="M206.537 616.142C195.505 616.142 194.087 610.123 194.032 609.869L194 307.707C194 307.01 194.562 306.439 195.251 306.439H223.716C224.057 306.439 224.373 306.582 224.611 306.82C224.848 307.057 224.983 307.39 224.975 307.73L218.655 607.715C217.586 616 208.486 616.095 208.09 616.095C207.591 616.134 207.06 616.142 206.537 616.142ZM196.526 609.6C196.566 609.6 198.039 614.107 208.034 613.6C208.399 613.6 215.384 613.529 216.16 607.548L222.441 308.974H196.519L196.526 609.6Z" fill="#5B3512"/>
<path d="M209.492 307.707C209.492 307.707 209.492 476.914 208.098 614.843C208.098 614.843 216.469 614.883 217.412 607.707L223.732 307.707H209.492Z" fill="#B77C48"/>
<path d="M199.521 315.896V607.271L203.291 315.896H199.521Z" fill="#B77C48"/>
<path d="M381.03 372.537V546.512C381.03 546.512 382.282 552.334 393.869 551.756C393.869 551.756 402.232 551.795 403.175 544.619L406.945 365.487C398.177 367.349 389.505 369.566 381.03 372.537Z" fill="#B77C48"/>
<path d="M392.309 553.055C381.276 553.055 379.859 547.027 379.803 546.774L379.771 372.537C379.771 371.998 380.112 371.523 380.611 371.349C388.309 368.648 396.586 366.39 406.684 364.244C407.064 364.173 407.452 364.268 407.745 364.505C408.038 364.751 408.204 365.123 408.197 365.495L404.426 544.643C403.349 552.92 394.249 553.007 393.869 553.007C393.37 553.039 392.824 553.055 392.309 553.055ZM382.282 546.512C382.33 546.512 383.565 550.536 392.309 550.536C392.792 550.536 393.283 550.528 393.798 550.496C394.154 550.496 401.148 550.433 401.924 544.453L405.654 367.032C396.728 368.988 389.244 371.032 382.282 373.424V546.512Z" fill="#5B3512"/>
<path d="M395.018 368.283C394.82 424.084 394.479 490.957 393.869 551.756C393.869 551.756 402.233 551.795 403.175 544.619L406.945 365.487C402.953 366.335 398.97 367.254 395.018 368.283Z" fill="#B77C48"/>
<path d="M385.292 371.111V544.184L387.541 370.406C386.789 370.636 386.036 370.881 385.292 371.111Z" fill="#B77C48"/>
<path d="M204.557 298.955L1.25879 354.446V371.27L207.931 444.725V299.897L204.557 298.955Z" fill="#B77C48"/>
<path d="M207.932 445.977C207.789 445.977 207.647 445.945 207.52 445.905L0.831687 372.457C0.332727 372.267 0 371.792 0 371.269V354.454C0 353.892 0.380195 353.393 0.926675 353.242L204.233 297.751C204.447 297.695 204.685 297.695 204.906 297.751L208.28 298.693C208.827 298.844 209.191 299.343 209.191 299.897V444.725C209.191 445.137 208.993 445.517 208.668 445.747C208.446 445.897 208.201 445.977 207.932 445.977ZM2.51053 370.374L206.68 442.943V300.847L204.55 300.261L2.51053 355.404V370.374Z" fill="#5B3512"/>
<path d="M409.496 356.228L207.932 299.897V444.725L409.496 373.052V356.228Z" fill="#B77C48"/>
<path d="M207.932 445.977C207.679 445.977 207.425 445.897 207.211 445.747C206.879 445.517 206.681 445.137 206.681 444.725V299.897C206.681 299.517 206.863 299.137 207.18 298.899C207.496 298.662 207.9 298.59 208.28 298.693L409.837 355.025C410.375 355.175 410.747 355.674 410.747 356.228V373.044C410.747 373.574 410.407 374.042 409.908 374.232L208.367 445.897C208.225 445.953 208.075 445.977 207.932 445.977ZM209.191 301.561V442.943L408.245 372.157V357.187L209.191 301.561Z" fill="#5B3512"/>
<path d="M204.557 282.139L1.25879 354.446L207.931 427.91L409.495 356.228L204.557 282.139Z" fill="#DB9E5B"/>
<path d="M207.932 429.161C207.789 429.161 207.647 429.137 207.52 429.09L0.831687 355.634C0.332727 355.452 0 354.985 0 354.446C0 353.916 0.332727 353.448 0.831687 353.266L204.138 280.959C204.407 280.864 204.708 280.864 204.985 280.967L409.915 355.064C410.414 355.23 410.747 355.714 410.747 356.236C410.747 356.759 410.407 357.234 409.908 357.416L208.367 429.082C208.225 429.145 208.074 429.161 207.932 429.161ZM4.99761 354.446L207.932 426.563L405.765 356.212L204.55 283.47L4.99761 354.446Z" fill="#5B3512"/>
<path d="M282.569 398.936C244.023 402.405 203.773 402.809 166.383 391.404C142.623 384.156 110.745 370.81 103.522 344.133C101.138 335.342 101.708 326.344 104.33 317.797L1.25879 354.454L207.939 427.909L291.978 398.025C288.834 398.35 285.706 398.643 282.569 398.936Z" fill="#DB9E5B"/>
<path d="M361.571 62.6997V358.13C361.571 358.13 362.815 363.936 374.402 363.373C374.402 363.373 382.773 363.413 383.716 356.221L389.79 67.9194C380.231 66.6204 370.766 65.2977 361.571 62.6997Z" fill="#B77C48"/>
<path d="M372.85 364.664C361.817 364.664 360.392 358.644 360.344 358.391L360.32 62.6995C360.32 62.3193 360.503 61.947 360.811 61.7015C361.128 61.4639 361.54 61.3926 361.912 61.4955C371.337 64.1569 381.229 65.4875 389.949 66.6835C390.583 66.7627 391.05 67.3093 391.042 67.9508L384.967 356.252C383.898 364.529 374.798 364.632 374.41 364.632C373.903 364.648 373.372 364.664 372.85 364.664ZM362.823 358.13C362.871 358.13 364.336 362.636 374.339 362.121C374.695 362.121 381.689 362.042 382.457 356.07L388.508 69.0122C380.461 67.9192 371.519 66.6519 362.823 64.3549V358.13Z" fill="#5B3512"/>
<path d="M375.788 65.8203C375.773 103.499 375.598 244.952 374.395 363.373C374.395 363.373 382.766 363.413 383.708 356.221L389.783 67.9193C385.094 67.2856 380.422 66.6203 375.788 65.8203Z" fill="#B77C48"/>
<path d="M368.486 64.4185H365.833V355.801L369.595 64.6481C369.223 64.5689 368.858 64.4897 368.486 64.4185Z" fill="#B77C48"/>
<path d="M194.538 18.0274V297.054C194.538 297.054 195.789 302.876 207.376 302.297C207.376 302.297 215.74 302.345 216.69 295.161L222.623 13.481C213.237 14.5502 203.9 16.1977 194.538 18.0274Z" fill="#B77C48"/>
<path d="M205.825 303.596C194.792 303.596 193.374 297.569 193.319 297.315L193.287 18.0272C193.287 17.4253 193.715 16.9104 194.309 16.7916C201.975 15.2946 212.121 13.4174 222.48 12.2372C222.845 12.2056 223.201 12.3165 223.47 12.5462C223.74 12.8075 223.89 13.1481 223.882 13.5046L217.95 295.177C216.873 303.469 207.773 303.549 207.385 303.549C206.878 303.58 206.339 303.596 205.825 303.596ZM195.798 297.054C195.837 297.054 197.303 301.553 207.313 301.038C207.678 301.038 214.663 300.974 215.439 294.994L221.34 14.8906C212.01 16.0154 202.934 17.6708 195.798 19.049V297.054Z" fill="#5B3512"/>
<path d="M208.763 15.4452C208.715 64.4024 208.486 193.136 207.385 302.297C207.385 302.297 215.748 302.345 216.699 295.161L222.631 13.481C217.99 14.0116 213.38 14.669 208.763 15.4452Z" fill="#B77C48"/>
<path d="M198.808 17.2116V294.725L202.403 16.5542C201.2 16.7681 200.004 16.9819 198.808 17.2116Z" fill="#B77C48"/>
<path d="M427.703 107.72C427.703 63.6103 399.358 53.1868 399.358 53.1868C399.358 53.1868 241.077 0.554479 213.285 1.25149C209.191 1.35446 205.658 2.23366 202.578 3.65144H202.57L202.372 3.73066C202.189 3.81779 201.999 3.91281 201.809 3.99994L185.241 11.8176L189.692 15.865C183.688 26.0984 182.77 37.9476 182.77 37.9476V94.9046C182.77 126.793 215.408 136.203 215.408 136.203C215.408 136.203 334.683 186.665 379.732 188.502L384.365 192.708L398.471 186.379C401.298 185.476 403.849 184.32 406.153 182.926L406.177 182.918C426.104 170.855 427.703 140.931 427.703 107.72Z" fill="#DB9E5B"/>
<path d="M384.366 193.967C384.065 193.967 383.756 193.864 383.526 193.65L379.225 189.746C334.121 187.599 216.097 137.874 214.917 137.367C214.719 137.319 181.519 127.371 181.519 94.9124V37.9555C181.566 37.3852 182.469 26.2647 188.1 16.1263L184.409 12.7442C184.1 12.4749 183.95 12.0551 184.005 11.6433C184.069 11.2314 184.33 10.867 184.71 10.6928L201.809 2.62172C201.881 2.58212 201.968 2.56627 202.063 2.52667L202.055 2.51084C205.469 0.958402 209.238 0.110888 213.254 0H213.856C243.041 0 393.371 49.8918 399.754 52.0066C400.095 52.1333 407.262 54.8343 414.485 63.1033C421.083 70.6675 428.963 84.5523 428.963 107.728C428.963 140.852 427.276 171.623 406.842 184.011C404.403 185.476 401.726 186.688 398.859 187.591L384.888 193.872C384.722 193.936 384.54 193.967 384.366 193.967ZM187.474 12.1502L190.539 14.9303C190.975 15.3343 191.078 15.9917 190.777 16.4986C184.988 26.3518 184.029 37.9317 184.021 38.0505V94.9045C184.021 125.462 215.432 134.911 215.757 135.006C217.087 135.553 335.475 185.437 379.788 187.266C380.081 187.274 380.366 187.385 380.58 187.583L384.603 191.235L397.964 185.239C400.776 184.344 403.27 183.235 405.512 181.857C424.852 170.142 426.452 140.099 426.452 107.72C426.452 65.0914 399.2 54.4778 398.922 54.3669C397.402 53.86 242.645 2.495 213.856 2.495L213.325 2.50292C209.642 2.59797 206.213 3.36628 203.101 4.79198C203.069 4.7999 203.037 4.81573 203.005 4.82365L187.474 12.1502Z" fill="#5B3512"/>
<path d="M422.104 77.6851C420.211 73.2813 417.978 69.622 415.681 66.5884C391.184 78.0415 367.377 91.063 343.269 103.419C369.405 94.4054 395.77 86.0889 422.104 77.6851Z" fill="#DB9E5B"/>
<path d="M358.316 185.429C366.45 187.156 373.76 188.272 379.74 188.51L384.373 192.716L398.479 186.387C401.306 185.484 403.856 184.328 406.161 182.934L406.185 182.926C415.57 177.239 420.861 167.56 423.87 155.465C401.75 164.891 379.772 174.609 358.316 185.429Z" fill="#DB9E5B"/>
<path d="M168.909 44.1966C168.909 44.1966 171.626 8.20545 199.417 7.50051C227.208 6.8035 385.49 59.4358 385.49 59.4358C385.49 59.4358 413.835 69.8673 413.835 113.961C413.835 158.047 411.032 196.351 366.276 194.791C321.52 193.215 201.532 142.459 201.532 142.459C201.532 142.459 168.909 133.042 168.909 101.161V44.1966Z" fill="#B77C48"/>
<path d="M368.89 196.098C368.026 196.098 367.139 196.074 366.237 196.05C321.758 194.482 205.96 145.699 201.049 143.616C200.851 143.576 167.65 133.612 167.65 101.169V44.1967C167.682 43.7373 170.795 6.9699 199.386 6.24913L199.988 6.24121C229.157 6.24121 379.494 56.133 385.878 58.2557C386.219 58.3745 393.402 61.0833 400.617 69.3445C407.223 76.9087 415.103 90.7935 415.103 113.969C415.095 158.887 411.618 196.098 368.89 196.098ZM199.988 8.75205H199.449C173.107 9.4253 170.185 43.9511 170.169 44.2838V101.169C170.169 131.695 201.572 141.161 201.889 141.256C203.227 141.802 322.32 191.995 366.331 193.531C409.282 195.084 412.592 160.004 412.584 113.969C412.584 71.3405 385.324 60.7269 385.054 60.6239C383.526 60.117 228.753 8.75205 199.988 8.75205Z" fill="#5B3512"/>
<path d="M207.377 111.031C207.377 114.722 205.46 117.724 203.084 117.724C200.716 117.724 198.8 114.722 198.8 111.031C198.8 107.332 200.716 104.33 203.084 104.33C205.46 104.33 207.377 107.332 207.377 111.031Z" fill="#B77C48"/>
<path d="M207.377 50.7551C207.377 54.454 205.46 57.4559 203.084 57.4559C200.716 57.4559 198.8 54.454 198.8 50.7551C198.8 47.0483 200.716 44.0464 203.084 44.0464C205.46 44.0543 207.377 47.0483 207.377 50.7551Z" fill="#B77C48"/>
<path d="M374.909 159.996C374.909 163.695 372.993 166.697 370.624 166.697C368.256 166.697 366.34 163.695 366.34 159.996C366.34 156.289 368.256 153.287 370.624 153.287C372.993 153.287 374.909 156.289 374.909 159.996Z" fill="#B77C48"/>
<path d="M374.909 99.7125C374.909 103.411 372.993 106.405 370.624 106.405C368.256 106.405 366.34 103.403 366.34 99.7125C366.34 96.0136 368.256 93.0117 370.624 93.0117C372.993 93.0117 374.909 96.0136 374.909 99.7125Z" fill="#B77C48"/>
</svg>
