<svg width="469" height="505" viewBox="0 0 469 505" fill="none" xmlns="http://www.w3.org/2000/svg">
<path d="M458.68 196.635C463.164 200.229 468.121 203.354 468.45 209.846C468.805 216.877 466.567 217.713 461.712 221.994C453.947 223.49 446.732 224.701 438.81 224.795C436.576 217.533 437.165 217.205 430.236 213.131L437.299 213.213C442.584 208.17 442.479 205.787 444.166 198.842L458.68 196.635Z" fill="#9E5D27"/>
<path d="M397.516 160.411C400.801 160.227 415.977 157.341 417.707 158.02C422.965 160.09 433.711 171.989 438.453 176.243L458.679 196.634L444.163 198.841C437.143 198.818 429.268 199.31 422.757 196.259C407.93 189.31 402.188 174.911 397.516 160.411Z" fill="#F0A815"/>
<path d="M400.536 213.391C395.641 209.364 391.38 205.387 388.61 199.571C384.337 190.61 383.821 177.77 387.301 168.469C389.305 163.106 392.703 162.707 397.516 160.411C402.188 174.911 407.93 189.31 422.758 196.259C429.27 199.31 437.145 198.818 444.164 198.841C442.476 205.786 442.582 208.169 437.297 213.212L430.234 213.13L426.425 213.286C422.335 213.501 419.53 214.438 415.812 216.212L403.249 211.548L400.536 213.391Z" fill="#DF8520"/>
<path d="M42.927 196.266C44.31 196.965 45.439 197.641 47.032 197.914C52.598 198.863 57.7349 196.898 62.1799 193.758L64.801 191.836C69.305 189.012 70.578 190.078 75.563 191.27C71.149 202.899 66.262 213.508 54.356 218.926L52.7739 219.543L31.3479 217.082L27.063 224.285C21.403 225.57 15.043 227.566 9.56299 224.656C3.90699 221.652 2.262 217.441 0 211.797C0.793 205.258 4.41809 201.93 8.59009 197.223L42.927 196.266Z" fill="#C06C12"/>
<path d="M8.5918 197.223C19.9828 186.743 26.8377 170.649 40.7947 163.063C48.1077 159.09 58.1897 159.516 65.9077 161.801C70.3297 163.403 72.8458 163.493 74.8418 168.235C77.3148 174.11 76.2947 185.141 75.5647 191.27C70.5807 190.079 69.3067 189.012 64.8027 191.836L62.1816 193.758C57.7366 196.899 52.5997 198.863 47.0337 197.914C45.4397 197.641 44.3107 196.965 42.9287 196.266L8.5918 197.223Z" fill="#F0A815"/>
<path d="M65.9067 161.801C70.3287 163.403 72.8448 163.493 74.8408 168.235C77.3138 174.11 76.2937 185.141 75.5637 191.27C70.5797 190.079 69.3058 189.012 64.8018 191.836L62.1807 193.758C57.7357 196.899 52.5987 198.863 47.0327 197.914C45.4387 197.641 44.3097 196.965 42.9277 196.266L50.5798 191.247C57.9238 186.013 61.0758 180.61 62.4468 171.692C63.0788 167.567 63.3127 165.255 65.9067 161.801Z" fill="#DF8520"/>
<path d="M27.0635 224.286L31.3484 217.083L52.7744 219.544L52.5596 311.142L51.3215 313.927C48.4305 320.259 43.6145 325.595 40.8765 331.915C37.9465 338.673 36.3494 346.36 34.0054 353.392L33.9004 346.708C31.6274 351.306 32.4124 356.192 32.7644 361.212L33.0024 364.142C30.5224 359.204 31.4245 354.048 31.5295 348.615L28.8845 346.588L27.0635 224.286Z" fill="#88452B"/>
<path d="M400.536 213.391L403.251 211.547L415.814 216.211C419.533 214.438 422.337 213.5 426.427 213.285L430.236 213.129C437.166 217.203 436.576 217.531 438.81 224.793L439.294 352.762C439.282 374.086 441.661 398.688 438.575 419.653L437.915 425.637C432.364 430.426 429.536 432.817 422.102 433.328L426.165 428.652C436.755 415.593 431.063 392.922 429.688 376.898C430.801 371.992 430.012 366.402 429.836 361.367L429.57 339.609L428.992 338.398C425.137 329.543 420.242 324.382 414.949 316.628L413.168 313.991L415.375 223.116L400.536 213.391Z" fill="#88452B"/>
<path d="M94.2201 279.657L95.2472 279.915C95.5682 284.649 95.7083 288.083 97.4543 292.587C125.407 287.497 159.036 290.778 187.552 290.728L366.681 291.029C366.646 275.392 365.076 257.908 368.181 242.584L368.54 240.982L368.786 294.482C375.676 295.334 387.653 295.302 393.684 298.306C400.508 301.708 405.766 313.458 413.168 313.994L414.949 316.631C420.242 324.385 425.137 329.545 428.992 338.401L429.57 339.612L429.836 361.37C430.012 366.405 430.801 371.995 429.688 376.901C431.063 392.924 436.754 415.596 426.165 428.655L422.102 433.331C429.536 432.819 432.364 430.429 437.915 425.64C437.931 436.671 440.837 494.644 435.767 499.714C432.958 502.519 430.205 503.23 426.556 504.472C422.49 503.523 421.048 504.14 418.49 500.527C413.228 493.109 416.041 469.769 416.322 460.258L415.748 431.082C387.143 427.754 356.502 429.883 327.572 429.832L144.685 430.328L80.6342 430.797C74.6232 430.875 63.8493 429.621 58.3923 431.121C56.7403 431.574 55.4431 432.863 53.9701 433.734L54.4821 474.882C54.5601 485.773 56.8571 495.261 48.6271 503.609C41.2791 505.004 40.5372 504.363 33.9792 501.523C30.0342 494.726 31.0532 488 31.0182 480.359L31.1471 430.285L30.3891 427.379C24.1781 403.922 28.3262 371.141 28.8852 346.59L31.5302 348.617C31.4252 354.05 30.5221 359.207 33.0031 364.144L32.7651 361.214C32.4131 356.194 31.6281 351.308 33.9011 346.71L34.0063 353.394C36.3503 346.363 37.9471 338.675 40.8771 331.917C43.6151 325.597 48.4322 320.261 51.3222 313.929L52.5602 311.144C59.2552 305.605 65.9663 299.808 74.5483 297.499C81.1573 295.725 88.4031 295.827 94.1611 291.878L94.2201 279.657Z" fill="#EA9A17"/>
<path d="M28.8846 346.587L31.5296 348.614C31.4246 354.047 30.5215 359.204 33.0025 364.141L32.7645 361.211C32.4125 356.191 31.6274 351.305 33.9004 346.707L34.0054 353.391L36.0716 358.27C43.1416 367.168 57.7516 368.036 68.6966 369.614C64.6926 371.575 61.0835 373.094 56.7625 374.223L36.0596 367.415C34.5986 385.583 30.1455 409.196 35.2425 426.642L38.2815 428.861C40.8325 430.74 42.9416 432.576 45.0396 434.978C39.5166 435.83 35.7426 432.904 31.1446 430.283L30.3865 427.377C24.1775 403.919 28.3256 371.138 28.8846 346.587Z" fill="#792B11"/>
<path d="M397.196 363.997L429.837 361.368C430.013 366.403 430.802 371.993 429.689 376.899L332.408 378.391L182.037 377.586C146.381 377.742 109.697 380.777 74.1816 378.82C67.9436 378.476 62.4197 376.8 56.7637 374.222C61.0837 373.093 64.6938 371.574 68.6978 369.613C79.2918 365.73 95.0607 367.425 106.397 367.488L177.362 367.851L305.217 367.035C335.79 366.716 366.755 367.11 397.196 363.997Z" fill="#C06C12"/>
<path d="M94.22 279.657L95.2471 279.915C95.5681 284.649 95.7081 288.083 97.4541 292.587C125.407 287.497 159.036 290.778 187.552 290.728L366.681 291.029C366.646 275.392 365.076 257.908 368.181 242.584L368.54 240.982L368.786 294.482C375.676 295.334 387.653 295.302 393.684 298.306C400.508 301.708 405.766 313.458 413.168 313.994L414.949 316.631C420.242 324.385 425.137 329.545 428.992 338.401L429.57 339.612L429.836 361.37L397.195 363.999C366.754 367.112 335.789 366.718 305.215 367.038L177.36 367.854L106.395 367.491C95.059 367.428 79.29 365.733 68.696 369.616C57.751 368.038 43.141 367.171 36.071 358.272L34.0049 353.393C36.3489 346.362 37.946 338.674 40.876 331.916C43.614 325.596 48.431 320.26 51.321 313.928L52.5591 311.143C59.2541 305.604 65.9649 299.807 74.5469 297.498C81.1559 295.724 88.4019 295.826 94.1599 291.877L94.22 279.657Z" fill="#FBB926"/>
<path d="M36.0713 358.27L49.9851 354.926C56.4931 353.485 64.3562 355.325 71.0872 355.469L109.868 355.328L354.169 355.637C365.485 356.18 378.966 356.711 389.446 361.102L397.196 363.997C366.755 367.11 335.79 366.716 305.216 367.036L177.361 367.852L106.396 367.489C95.0602 367.426 79.2913 365.731 68.6973 369.614C57.7513 368.036 43.1413 367.169 36.0713 358.27Z" fill="#F0A815"/>
<path d="M93.7354 29.7125C96.7634 21.7315 100.516 14.9935 106.907 9.17352C110.243 6.13452 114.548 2.94646 119.103 2.13446C128.9 0.388455 140.863 1.45043 150.856 1.41143L209.149 1.1535L294.504 0.676447C308.856 0.606447 324.446 -0.846569 338.665 0.734431C351.259 2.13643 358.906 11.6334 366.391 20.8284C372.813 40.2584 369.524 69.5665 369.598 90.3985L368.54 240.981L368.18 242.582C365.074 257.906 366.645 275.392 366.68 291.028L187.552 290.727C159.036 290.777 125.406 287.497 97.4534 292.586C95.7074 288.082 95.5676 284.648 95.2466 279.914L94.2195 279.655L94.5984 63.8744L93.7354 29.7125Z" fill="#F0A815"/>
<path d="M93.7354 29.7119C100.165 29.9069 106.834 29.5439 112.935 31.7899C111.56 42.3209 108.345 53.5789 104.29 63.3949L94.5984 63.8749L93.7354 29.7119Z" fill="#FBB926"/>
</svg>
