<svg width="452" height="469" viewBox="0 0 452 469" fill="none" xmlns="http://www.w3.org/2000/svg">
<path d="M449.861 66.291H0V468.474H449.861V66.291Z" fill="#504F4F"/>
<path d="M451.224 151.908H0V154.728H451.224V151.908Z" fill="#535353"/>
<path d="M0.910156 66.2907L65.7883 0H383.123L449.408 66.2907H0.910156Z" fill="#6D6D6C"/>
<path d="M199.302 42.3132C199.302 50.1006 167.097 56.4211 127.373 56.4211C87.6493 56.4211 55.4502 50.1061 55.4502 42.3132C55.4502 34.5204 87.6493 28.2109 127.373 28.2109C167.097 28.2109 199.302 34.5204 199.302 42.3132Z" fill="#424242"/>
<path d="M307.9 27.2663C347.625 27.2663 379.829 22.5298 379.829 16.6869C379.829 10.844 347.625 6.10742 307.9 6.10742C268.175 6.10742 235.972 10.844 235.972 16.6869C235.972 22.5298 268.175 27.2663 307.9 27.2663Z" fill="#424242"/>
<path d="M365.444 45.6013C365.444 51.8345 339.68 56.8843 307.9 56.8843C276.121 56.8843 250.356 51.829 250.356 45.6013C250.356 39.3681 276.121 34.3184 307.9 34.3184C339.68 34.3184 365.444 39.3736 365.444 45.6013Z" fill="#424242"/>
<path d="M188.02 15.5088C188.02 20.9622 164.659 25.3848 135.841 25.3848C107.017 25.3848 83.6572 20.9622 83.6572 15.5088C83.6572 10.0555 107.017 5.63281 135.841 5.63281C164.654 5.63827 188.02 10.0555 188.02 15.5088Z" fill="#424242"/>
<path d="M393.74 195.354C396.107 268.969 393.195 335.325 395.561 408.945C280.593 408.111 166.029 409.371 51.0606 408.536C48.7923 337.19 52.4783 265.795 50.21 194.449L393.74 195.354Z" fill="#6D6D6C"/>
<path d="M274.002 93.5586H189.482V111.282H274.002V93.5586Z" fill="#6D6D6C"/>
<path d="M157.834 95.232C154.191 90.8148 148.913 87.8482 142.811 88.1209C132.243 88.5953 122.276 96.9771 122.695 108.238C123.17 120.983 132.069 129.893 144.829 130.368C155.353 130.755 165.413 120.835 164.939 110.25C164.666 104.105 161.994 98.853 157.834 95.232Z" fill="#EEECEA"/>
<path d="M326.873 95.232C323.23 90.8148 317.952 87.8482 311.85 88.1209C301.282 88.5953 291.315 96.9771 291.734 108.238C292.209 120.983 301.108 129.893 313.868 130.368C324.392 130.755 334.452 120.835 333.978 110.25C333.705 104.105 331.033 98.853 326.873 95.232Z" fill="#EEECEA"/>
<path d="M402.83 144.002H47.0312V165.815H402.83V144.002Z" fill="#6D6D6C"/>
<path d="M274.938 278.523C234.587 304.459 196.161 333.117 155.411 358.485C138.704 368.885 121.702 378.974 106.516 391.56C100.496 396.55 94.6231 402.608 88.5977 408.667C95.1793 408.689 101.766 408.722 108.348 408.738C122.694 396.615 137.564 385.703 153.841 375.505C194.383 350.104 233.082 322.264 273.046 296.007C312.634 270 353.388 245.82 394.388 222.021C394.296 216.939 394.143 211.764 394.018 206.621C353.901 229.901 313.942 253.454 274.938 278.523Z" fill="#959594"/>
<path d="M344.206 342.006C319.881 361.261 296.532 381.095 270.26 397.717C264.48 401.371 258.732 405.008 253.034 408.711C261.508 408.7 269.976 408.689 278.45 408.684C280.555 407.342 282.66 406.001 284.764 404.643C306.549 390.589 325.819 374.071 346.011 357.886C361.95 345.109 378.204 332.751 394.585 320.569C394.601 314.935 394.618 309.308 394.639 303.68C377.643 316.195 360.766 328.885 344.206 342.006Z" fill="#959594"/>
<path d="M140.515 279.064C168.613 261.1 194.661 241.25 220.884 220.686C232.499 211.579 244.413 203.148 256.47 194.995L232.134 194.93C230.301 196.288 228.453 197.624 226.637 199.02C196.03 222.589 166.198 246.442 133.628 267.295C109.101 282.996 89.2032 302.666 69.0986 323.607C62.9641 330.003 56.7151 336.127 50.3407 342.044C50.3135 348.408 50.3081 354.772 50.3299 361.136C56.0609 356.097 61.6555 350.857 67.0865 345.349C90.5502 321.578 112.122 297.207 140.515 279.064Z" fill="#959594"/>
<path d="M50.9567 254.551C63.471 245.116 75.7072 235.279 86.4003 223.439C95.3593 213.52 104.373 203.693 114.095 194.613L94.5741 194.559C88.4941 200.824 82.627 207.303 76.7542 213.798C68.8422 222.561 60.0303 230.196 50.9131 237.444C50.9404 243.148 50.9676 248.852 50.9567 254.551Z" fill="#959594"/>
</svg>
