<svg width="363" height="475" viewBox="0 0 363 475" fill="none" xmlns="http://www.w3.org/2000/svg">
<path d="M51.7227 262.471H26.71V474.494H51.7227V262.471Z" fill="#594B3E"/>
<path d="M51.7232 262.471H42.6279V474.494H51.7232V262.471Z" fill="#443A30"/>
<path d="M160.839 262.471H135.838V474.494H160.839V262.471Z" fill="#594B3E"/>
<path d="M160.845 262.471H151.762V474.494H160.845V262.471Z" fill="#443A30"/>
<path d="M235.878 262.471H210.877V474.494H235.878V262.471Z" fill="#594B3E"/>
<path d="M235.878 262.471H226.788V474.494H235.878V262.471Z" fill="#443A30"/>
<path d="M341.604 262.471H316.585V474.494H341.604V262.471Z" fill="#594B3E"/>
<path d="M341.604 262.471H332.502V474.494H341.604V262.471Z" fill="#443A30"/>
<path d="M346.146 228.504C346.146 231.912 343.091 234.669 339.318 234.669H179.049C175.282 234.669 172.209 231.912 172.209 228.504V6.17717C172.209 2.77563 175.282 0 179.049 0H339.318C343.085 0 346.146 2.77563 346.146 6.17717V228.504Z" fill="#D18442"/>
<path d="M305.222 228.504C305.222 231.912 302.168 234.669 298.4 234.669H138.106C134.352 234.669 131.291 231.912 131.291 228.504V6.17717C131.291 2.77563 134.352 0 138.106 0H298.4C302.168 0 305.222 2.77563 305.222 6.17717V228.504Z" fill="#F6AF47"/>
<path opacity="0.1" d="M276.938 229.551C276.938 232.377 274.373 234.676 271.219 234.676H137.004C133.844 234.676 131.291 232.383 131.291 229.551V44.9759C131.291 42.1444 133.844 39.8457 137.004 39.8457H271.219C274.373 39.8457 276.938 42.1444 276.938 44.9759V229.551Z" fill="white"/>
<path d="M362.057 268.641C362.057 272.061 358.859 274.799 354.919 274.799H19.0893C15.1363 274.799 11.9453 272.061 11.9453 268.641V234.675C11.9453 231.273 15.1425 228.51 19.0893 228.51H354.919C358.865 228.51 362.057 231.273 362.057 234.675V268.641Z" fill="#D18442"/>
<path d="M238.139 268.641C238.139 272.061 235.97 274.799 233.294 274.799H4.86361C2.1684 274.799 0 272.061 0 268.641V234.675C0 231.273 2.17459 228.51 4.86361 228.51H233.294C235.976 228.51 238.139 231.273 238.139 234.675V268.641Z" fill="#F6AF47"/>
</svg>
