<svg width="564" height="774" viewBox="0 0 564 774" fill="none" xmlns="http://www.w3.org/2000/svg">
<path d="M29.8389 773.559H55.6554L82.4837 711.355H41.4085L29.8389 773.559Z" fill="#050505"/>
<path d="M29.8389 773.559H55.6554L61.2234 760.657H32.2332L29.8389 773.559Z" fill="#3D3D3D"/>
<path d="M480.591 711.355L507.419 773.559H533.242L521.679 711.355H480.591Z" fill="#050505"/>
<path d="M501.857 760.657L507.419 773.559H533.242L530.848 760.657H501.857Z" fill="#3D3D3D"/>
<path d="M348.522 195.641C348.522 179.993 348.522 0 348.522 0H214.557C214.557 0 214.557 179.993 214.557 195.641C214.557 208.895 204.206 316.277 131.508 348.906H431.571C358.866 316.277 348.522 208.895 348.522 195.641Z" fill="#606060"/>
<path d="M348.522 195.641C348.522 179.993 348.522 0 348.522 0H256.82C256.82 36.0224 256.82 184.983 256.82 199.55C256.82 212.144 248.461 304.909 194.34 348.9H431.578C358.867 316.277 348.522 208.895 348.522 195.641Z" fill="#3D3D3D"/>
<path d="M349.182 201.907H213.897C208.731 201.907 204.502 205.608 204.502 210.127C204.502 214.645 208.731 218.341 213.897 218.341H349.176C354.336 218.341 358.571 214.652 358.571 210.127C358.578 205.602 354.342 201.907 349.182 201.907Z" fill="#939393"/>
<path d="M418.393 311.646H144.687V343.017H418.393V311.646Z" fill="#606060"/>
<path d="M548.311 348.906H14.7617V719.839H548.311V348.906Z" fill="#3D3D3D"/>
<path d="M524.833 372.378H38.2471V696.354H524.833V372.378Z" fill="#050505"/>
<path d="M281.537 395.486C203.849 395.486 140.275 463.101 140.275 545.735V673.253H422.799V545.735C422.799 463.101 359.225 395.486 281.537 395.486Z" fill="#3D3D3D"/>
<path d="M281.537 404.869C208.832 404.869 149.664 468.066 149.664 545.729V663.857H413.41V545.729C413.41 468.066 354.254 404.869 281.537 404.869Z" fill="#050505"/>
<path d="M281.537 409.57C211.422 409.57 154.365 470.661 154.365 545.735V659.169H408.716V545.735C408.716 470.655 351.665 409.57 281.537 409.57Z" fill="#3D3D3D"/>
<path d="M432.188 545.735V673.253H515.444V505.923H427.349C430.447 518.674 432.188 531.978 432.188 545.735Z" fill="#3D3D3D"/>
<path d="M341.887 399.502C378.89 416.722 408.125 449.269 422.478 489.496H515.451V381.768H341.887V399.502Z" fill="#3D3D3D"/>
<path d="M47.6299 489.496H140.608C154.949 449.275 184.185 416.722 221.187 399.509V381.768H47.6299V489.496Z" fill="#3D3D3D"/>
<path d="M47.6299 673.253H130.886V545.735C130.886 531.978 132.627 518.674 135.738 505.929H47.6299V673.253Z" fill="#3D3D3D"/>
<path d="M152.743 558.976H146.591V598.857H152.743V558.976Z" fill="#606060"/>
<path d="M152.743 558.976H146.591V578.91H152.743V558.976Z" fill="#939393"/>
<path d="M416.483 558.976H410.33V598.857H416.483V558.976Z" fill="#606060"/>
<path d="M416.483 558.976H410.33V578.91H416.483V558.976Z" fill="#939393"/>
<path d="M408.716 627.621H154.365V659.175H408.716V627.621Z" fill="#3A1B06"/>
<path d="M317.478 562.866C319.759 507.035 302.094 490.507 289.562 469.429C277.031 448.345 279.878 436.951 280.45 429.535C261.075 455.754 263.934 481.967 266.775 496.773C269.628 511.585 276.466 543.498 266.775 556.601C263.934 523.557 245.697 512.729 242.844 511.026C246.841 535.516 233.159 547.482 233.731 565.147C234.284 582.329 239.746 596.846 263.099 623.825H325.704C333.484 614.769 356.699 585.54 356.221 559.447C355.656 528.107 334.572 512.157 327.162 496.773C331.159 521.848 330.015 556.601 317.478 562.866Z" fill="#FFAD29"/>
<path d="M310.641 583.762C310.264 559.454 307.876 539.859 303.426 527.541C295.445 505.514 281.776 491.085 279.872 479.302C281.393 502.102 289.412 518.159 285.949 540.839C282.537 563.243 276.46 579.589 272.28 584.516C264.299 578.445 259.36 573.506 254.803 556.406C249.374 577.063 247.413 594.263 271.972 623.819H313.167C320.375 615.612 338.826 593.346 342.17 576.918C346.355 556.406 343.684 545.773 339.895 536.654C337.991 553.747 328.111 579.2 310.641 583.762Z" fill="#E86E0A"/>
<path d="M339.875 468.153C335.263 468.436 333.044 470.007 333.044 470.007C333.044 470.007 325.528 473.998 326.213 484.82C326.892 495.641 335.747 498.206 338.851 504.754C341.761 495.076 332.875 491.789 333.044 482.394C333.214 472.848 338.851 468.863 339.875 468.153Z" fill="#FFAD29"/>
<path d="M247.011 474.991C243.542 475.204 241.883 476.373 241.883 476.373C241.883 476.373 236.239 479.371 236.748 487.497C237.257 495.623 243.906 497.546 246.238 502.466C248.419 495.195 241.751 492.738 241.883 485.681C242.015 478.516 246.238 475.525 247.011 474.991Z" fill="#FFAD29"/>
<path d="M296.255 552.623C290.926 571.664 290.16 589.179 277.974 597.173C273.789 596.042 267.693 594.131 263.884 589.186C262.678 598.248 270.345 615.687 276.799 623.832H303.08C306.694 620.061 323.077 602.433 324.441 592.611C312.633 602.892 305.406 602.131 299.687 602.892C303.872 590.323 301.962 563.281 296.255 552.623Z" fill="#E24A0E"/>
<path d="M318.125 634.93C318.125 642.993 324.667 649.535 332.73 649.535H385.94V620.325H332.73C324.667 620.325 318.125 626.861 318.125 634.93Z" fill="#562A0C"/>
<path d="M332.73 649.529H385.94V638.267H318.521C320.035 644.721 325.804 649.529 332.73 649.529Z" fill="#3A1B06"/>
<path d="M385.94 620.325C377.878 620.325 371.329 626.867 371.329 634.93C371.329 642.993 377.878 649.535 385.94 649.535C394.01 649.535 400.545 642.999 400.545 634.93C400.545 626.861 394.01 620.325 385.94 620.325Z" fill="#562A0C"/>
<path d="M385.941 622.267C378.952 622.267 373.29 627.935 373.29 634.93C373.29 641.912 378.952 647.587 385.941 647.587C392.935 647.587 398.604 641.912 398.604 634.93C398.597 627.935 392.935 622.267 385.941 622.267Z" fill="#F4C889"/>
<path d="M385.941 623.656C379.732 623.656 374.673 628.715 374.673 634.924C374.673 641.133 379.726 646.192 385.941 646.192C392.162 646.192 397.215 641.133 397.215 634.924C397.215 628.715 392.162 623.656 385.941 623.656ZM385.941 645.356C380.191 645.356 375.509 640.674 375.509 634.924C375.509 629.167 380.191 624.492 385.941 624.492C391.704 624.492 396.379 629.167 396.379 634.924C396.379 640.674 391.704 645.356 385.941 645.356Z" fill="#B57055"/>
<path d="M385.941 625.189C380.574 625.189 376.206 629.557 376.206 634.93C376.206 640.297 380.574 644.671 385.941 644.671C391.308 644.671 395.682 640.297 395.682 634.93C395.682 629.55 391.308 625.189 385.941 625.189ZM385.941 643.829C381.039 643.829 377.042 639.838 377.042 634.924C377.042 630.015 381.033 626.019 385.941 626.019C390.855 626.019 394.846 630.015 394.846 634.924C394.846 639.838 390.855 643.829 385.941 643.829Z" fill="#B57055"/>
<path d="M385.94 627.275C381.73 627.275 378.292 630.707 378.292 634.93C378.292 639.147 381.73 642.578 385.94 642.578C390.163 642.578 393.595 639.153 393.595 634.93C393.595 630.707 390.163 627.275 385.94 627.275ZM385.94 641.742C382.188 641.742 379.128 638.688 379.128 634.924C379.128 631.159 382.182 628.105 385.94 628.105C389.705 628.105 392.759 631.159 392.759 634.924C392.759 638.688 389.705 641.742 385.94 641.742Z" fill="#D89E66"/>
<path d="M385.941 628.52C382.415 628.52 379.543 631.398 379.543 634.93C379.543 638.462 382.409 641.334 385.941 641.334C389.479 641.334 392.344 638.455 392.344 634.93C392.338 631.398 389.479 628.52 385.941 628.52ZM385.941 640.498C382.88 640.498 380.385 637.997 380.385 634.93C380.385 631.857 382.88 629.362 385.941 629.362C389.007 629.362 391.509 631.857 391.509 634.93C391.509 637.997 389.007 640.498 385.941 640.498Z" fill="#D89E66"/>
<path d="M385.94 629.638C383.037 629.638 380.661 632.014 380.661 634.93C380.661 637.84 383.037 640.215 385.94 640.215C388.862 640.215 391.225 637.84 391.225 634.93C391.225 632.014 388.862 629.638 385.94 629.638ZM385.94 639.379C383.489 639.379 381.497 637.381 381.497 634.93C381.497 632.479 383.483 630.468 385.94 630.468C388.397 630.468 390.396 632.473 390.396 634.93C390.396 637.381 388.397 639.379 385.94 639.379Z" fill="#B57055"/>
<path d="M385.941 631.587C384.106 631.587 382.616 633.095 382.616 634.93C382.616 636.771 384.106 638.273 385.941 638.273C387.788 638.273 389.278 636.771 389.278 634.93C389.278 633.089 387.788 631.587 385.941 631.587ZM385.941 637.437C384.571 637.437 383.439 636.3 383.439 634.93C383.439 633.547 384.571 632.416 385.941 632.416C387.317 632.416 388.454 633.547 388.454 634.93C388.454 636.306 387.317 637.437 385.941 637.437Z" fill="#D89E66"/>
<path d="M385.941 632.844C384.803 632.844 383.86 633.774 383.86 634.93C383.86 636.08 384.803 637.01 385.941 637.01C387.097 637.01 388.04 636.086 388.04 634.93C388.04 633.774 387.097 632.844 385.941 632.844ZM385.941 636.174C385.249 636.174 384.696 635.615 384.696 634.924C384.696 634.232 385.249 633.667 385.941 633.667C386.632 633.667 387.197 634.232 387.197 634.924C387.197 635.621 386.632 636.174 385.941 636.174Z" fill="#D89E66"/>
<path d="M301.353 637.444C301.353 644.124 306.757 649.529 313.45 649.529H357.498V625.346H313.45C306.757 625.346 301.353 630.77 301.353 637.444Z" fill="#562A0C"/>
<path d="M313.45 649.529H357.498V640.203H301.68C302.937 645.544 307.719 649.529 313.45 649.529Z" fill="#3A1B06"/>
<path d="M357.498 625.346C350.818 625.346 345.4 630.763 345.4 637.444C345.4 644.124 350.818 649.529 357.498 649.529C364.172 649.529 369.589 644.118 369.589 637.444C369.589 630.77 364.172 625.346 357.498 625.346Z" fill="#562A0C"/>
<path d="M357.498 626.955C351.703 626.955 347.009 631.65 347.009 637.444C347.009 643.226 351.703 647.92 357.498 647.92C363.279 647.92 367.974 643.226 367.974 637.444C367.974 631.65 363.279 626.955 357.498 626.955Z" fill="#F4C889"/>
<path d="M357.498 628.118C352.351 628.118 348.166 632.303 348.166 637.444C348.166 642.585 352.351 646.764 357.498 646.764C362.633 646.764 366.825 642.585 366.825 637.444C366.825 632.303 362.633 628.118 357.498 628.118ZM357.498 646.079C352.735 646.079 348.864 642.195 348.864 637.444C348.864 632.674 352.735 628.796 357.498 628.796C362.256 628.796 366.133 632.674 366.133 637.444C366.133 642.201 362.256 646.079 357.498 646.079Z" fill="#B57055"/>
<path d="M357.497 629.387C353.048 629.387 349.435 632.994 349.435 637.45C349.435 641.887 353.048 645.513 357.497 645.513C361.941 645.513 365.554 641.893 365.554 637.45C365.554 632.994 361.941 629.387 357.497 629.387ZM357.497 644.809C353.431 644.809 350.126 641.51 350.126 637.45C350.126 633.384 353.431 630.072 357.497 630.072C361.557 630.072 364.863 633.384 364.863 637.45C364.863 641.51 361.557 644.809 357.497 644.809Z" fill="#B57055"/>
<path d="M357.498 631.103C354.004 631.103 351.163 633.943 351.163 637.444C351.163 640.938 354.004 643.766 357.498 643.766C360.986 643.766 363.826 640.932 363.826 637.444C363.826 633.943 360.986 631.103 357.498 631.103ZM357.498 643.081C354.387 643.081 351.854 640.561 351.854 637.45C351.854 634.339 354.387 631.819 357.498 631.819C360.602 631.819 363.135 634.339 363.135 637.45C363.135 640.561 360.602 643.081 357.498 643.081Z" fill="#D89E66"/>
<path d="M357.498 632.14C354.569 632.14 352.2 634.515 352.2 637.444C352.2 640.36 354.576 642.735 357.498 642.735C360.414 642.735 362.783 640.36 362.783 637.444C362.783 634.522 360.414 632.14 357.498 632.14ZM357.498 642.05C354.959 642.05 352.891 639.989 352.891 637.45C352.891 634.911 354.959 632.85 357.498 632.85C360.031 632.85 362.092 634.911 362.092 637.45C362.092 639.989 360.031 642.05 357.498 642.05Z" fill="#D89E66"/>
<path d="M357.498 633.07C355.078 633.07 353.124 635.024 353.124 637.444C353.124 639.851 355.085 641.818 357.498 641.818C359.905 641.818 361.872 639.851 361.872 637.444C361.872 635.031 359.905 633.07 357.498 633.07ZM357.498 641.126C355.468 641.126 353.809 639.474 353.809 637.444C353.809 635.414 355.468 633.755 357.498 633.755C359.522 633.755 361.181 635.414 361.181 637.444C361.181 639.474 359.522 641.126 357.498 641.126Z" fill="#B57055"/>
<path d="M357.498 634.685C355.977 634.685 354.732 635.923 354.732 637.444C354.732 638.965 355.977 640.203 357.498 640.203C359.018 640.203 360.25 638.965 360.25 637.444C360.25 635.923 359.018 634.685 357.498 634.685ZM357.498 639.511C356.348 639.511 355.424 638.575 355.424 637.444C355.424 636.294 356.348 635.376 357.498 635.376C358.641 635.376 359.571 636.294 359.571 637.444C359.571 638.575 358.641 639.511 357.498 639.511Z" fill="#D89E66"/>
<path d="M357.498 635.716C356.543 635.716 355.77 636.495 355.77 637.444C355.77 638.393 356.543 639.166 357.498 639.166C358.44 639.166 359.213 638.399 359.213 637.444C359.213 636.489 358.44 635.716 357.498 635.716ZM357.498 638.481C356.92 638.481 356.461 638.009 356.461 637.444C356.461 636.872 356.92 636.407 357.498 636.407C358.07 636.407 358.528 636.872 358.528 637.444C358.528 638.009 358.07 638.481 357.498 638.481Z" fill="#D89E66"/>
<path d="M311.281 613.418C311.281 620.099 316.692 625.509 323.379 625.509H367.42V601.327H323.379C316.698 601.327 311.281 606.738 311.281 613.418Z" fill="#562A0C"/>
<path d="M323.385 625.51H367.426V616.183H311.614C312.865 621.519 317.654 625.51 323.385 625.51Z" fill="#3A1B06"/>
<path d="M367.426 601.327C360.746 601.327 355.335 606.738 355.335 613.412C355.335 620.086 360.74 625.503 367.426 625.503C374.1 625.503 379.517 620.086 379.517 613.412C379.517 606.738 374.1 601.327 367.426 601.327Z" fill="#562A0C"/>
<path d="M367.426 602.936C361.644 602.936 356.943 607.63 356.943 613.412C356.943 619.194 361.644 623.888 367.426 623.888C373.214 623.888 377.902 619.194 377.902 613.412C377.902 607.63 373.214 602.936 367.426 602.936Z" fill="#F4C889"/>
<path d="M367.427 604.092C362.28 604.092 358.101 608.271 358.101 613.418C358.101 618.565 362.273 622.751 367.427 622.751C372.567 622.751 376.753 618.565 376.753 613.418C376.753 608.271 372.567 604.092 367.427 604.092ZM367.427 622.059C362.663 622.059 358.792 618.182 358.792 613.418C358.792 608.661 362.663 604.783 367.427 604.783C372.19 604.783 376.062 608.661 376.062 613.418C376.062 618.182 372.19 622.059 367.427 622.059Z" fill="#B57055"/>
<path d="M367.426 605.355C362.983 605.355 359.369 608.975 359.369 613.412C359.369 617.855 362.983 621.475 367.426 621.475C371.869 621.475 375.482 617.855 375.482 613.412C375.482 608.975 371.869 605.355 367.426 605.355ZM367.426 620.79C363.36 620.79 360.054 617.472 360.054 613.418C360.054 609.358 363.354 606.047 367.426 606.047C371.486 606.047 374.797 609.352 374.797 613.418C374.797 617.472 371.492 620.79 367.426 620.79Z" fill="#B57055"/>
<path d="M367.427 607.083C363.932 607.083 361.092 609.924 361.092 613.412C361.092 616.912 363.932 619.747 367.427 619.747C370.914 619.747 373.761 616.906 373.761 613.412C373.761 609.924 370.914 607.083 367.427 607.083ZM367.427 619.062C364.316 619.062 361.783 616.529 361.783 613.418C361.783 610.307 364.316 607.775 367.427 607.775C370.531 607.775 373.07 610.307 373.07 613.418C373.07 616.529 370.531 619.062 367.427 619.062Z" fill="#D89E66"/>
<path d="M367.427 608.127C364.498 608.127 362.129 610.496 362.129 613.418C362.129 616.341 364.498 618.716 367.427 618.716C370.343 618.716 372.724 616.341 372.724 613.418C372.724 610.496 370.343 608.127 367.427 608.127ZM367.427 618.025C364.888 618.025 362.82 615.957 362.82 613.418C362.82 610.879 364.888 608.818 367.427 608.818C369.959 608.818 372.027 610.879 372.027 613.418C372.027 615.957 369.959 618.025 367.427 618.025Z" fill="#D89E66"/>
<path d="M367.426 609.044C365.013 609.044 363.046 611.005 363.046 613.418C363.046 615.831 365.013 617.792 367.426 617.792C369.839 617.792 371.8 615.831 371.8 613.418C371.8 611.005 369.839 609.044 367.426 609.044ZM367.426 617.101C365.396 617.101 363.743 615.454 363.743 613.418C363.743 611.395 365.396 609.729 367.426 609.729C369.462 609.729 371.115 611.388 371.115 613.418C371.115 615.454 369.462 617.101 367.426 617.101Z" fill="#B57055"/>
<path d="M367.426 610.653C365.905 610.653 364.661 611.891 364.661 613.412C364.661 614.939 365.905 616.177 367.426 616.177C368.947 616.177 370.185 614.939 370.185 613.412C370.191 611.897 368.947 610.653 367.426 610.653ZM367.426 615.492C366.283 615.492 365.352 614.568 365.352 613.418C365.352 612.281 366.283 611.344 367.426 611.344C368.57 611.344 369.5 612.281 369.5 613.418C369.5 614.562 368.57 615.492 367.426 615.492Z" fill="#D89E66"/>
<path d="M367.426 611.69C366.478 611.69 365.698 612.457 365.698 613.412C365.698 614.367 366.478 615.14 367.426 615.14C368.382 615.14 369.148 614.361 369.148 613.412C369.148 612.463 368.382 611.69 367.426 611.69ZM367.426 614.455C366.855 614.455 366.39 613.99 366.39 613.418C366.39 612.846 366.855 612.381 367.426 612.381C367.998 612.381 368.457 612.846 368.457 613.418C368.457 613.99 367.998 614.455 367.426 614.455Z" fill="#D89E66"/>
<path d="M239.721 634.125C239.721 642.628 246.621 649.529 255.13 649.529H311.263V618.71H255.13C246.621 618.716 239.721 625.61 239.721 634.125Z" fill="#562A0C"/>
<path d="M255.131 649.529H311.263V637.638H240.148C241.745 644.463 247.834 649.529 255.131 649.529Z" fill="#3A1B06"/>
<path d="M311.269 618.716C302.76 618.716 295.859 625.616 295.859 634.132C295.859 642.635 302.76 649.535 311.269 649.535C319.778 649.535 326.685 642.635 326.685 634.132C326.678 625.61 319.778 618.716 311.269 618.716Z" fill="#562A0C"/>
<path d="M311.269 620.771C303.891 620.771 297.921 626.754 297.921 634.132C297.921 641.504 303.891 647.486 311.269 647.486C318.641 647.486 324.624 641.504 324.624 634.132C324.624 626.748 318.641 620.771 311.269 620.771Z" fill="#F4C889"/>
<path d="M311.269 622.242C304.72 622.242 299.385 627.565 299.385 634.132C299.385 640.68 304.714 646.022 311.269 646.022C317.823 646.022 323.165 640.68 323.165 634.132C323.159 627.565 317.823 622.242 311.269 622.242ZM311.269 645.136C305.204 645.136 300.265 640.19 300.265 634.132C300.265 628.061 305.204 623.122 311.269 623.122C317.339 623.122 322.266 628.061 322.266 634.132C322.266 640.19 317.339 645.136 311.269 645.136Z" fill="#B57055"/>
<path d="M311.269 623.851C305.607 623.851 300.994 628.457 300.994 634.126C300.994 639.788 305.601 644.395 311.269 644.395C316.931 644.395 321.544 639.788 321.544 634.126C321.544 628.463 316.931 623.851 311.269 623.851ZM311.269 643.515C306.091 643.515 301.874 639.31 301.874 634.126C301.874 628.941 306.085 624.724 311.269 624.724C316.448 624.724 320.658 628.947 320.658 634.126C320.658 639.304 316.448 643.515 311.269 643.515Z" fill="#B57055"/>
<path d="M311.269 626.056C306.819 626.056 303.193 629.676 303.193 634.132C303.193 638.575 306.819 642.195 311.269 642.195C315.718 642.195 319.338 638.575 319.338 634.132C319.332 629.676 315.712 626.056 311.269 626.056ZM311.269 641.321C307.31 641.321 304.079 638.085 304.079 634.126C304.079 630.16 307.303 626.93 311.269 626.93C315.234 626.93 318.465 630.16 318.465 634.126C318.465 638.085 315.234 641.321 311.269 641.321Z" fill="#D89E66"/>
<path d="M311.269 627.37C307.549 627.37 304.52 630.399 304.52 634.125C304.52 637.84 307.549 640.869 311.269 640.869C314.989 640.869 318.019 637.84 318.019 634.125C318.019 630.405 314.989 627.37 311.269 627.37ZM311.269 639.995C308.033 639.995 305.399 637.356 305.399 634.125C305.399 630.883 308.026 628.25 311.269 628.25C314.505 628.25 317.139 630.883 317.139 634.125C317.139 637.362 314.505 639.995 311.269 639.995Z" fill="#D89E66"/>
<path d="M311.269 628.545C308.202 628.545 305.694 631.046 305.694 634.126C305.694 637.199 308.202 639.694 311.269 639.694C314.348 639.694 316.843 637.205 316.843 634.126C316.843 631.052 314.348 628.545 311.269 628.545ZM311.269 638.82C308.686 638.82 306.58 636.715 306.58 634.126C306.58 631.536 308.686 629.425 311.269 629.425C313.852 629.425 315.969 631.536 315.969 634.126C315.969 636.715 313.852 638.82 311.269 638.82Z" fill="#B57055"/>
<path d="M311.269 630.594C309.327 630.594 307.75 632.184 307.75 634.126C307.75 636.068 309.327 637.639 311.269 637.639C313.211 637.639 314.795 636.061 314.795 634.126C314.795 632.184 313.211 630.594 311.269 630.594ZM311.269 636.765C309.818 636.765 308.63 635.584 308.63 634.132C308.63 632.661 309.818 631.486 311.269 631.486C312.734 631.486 313.909 632.661 313.909 634.132C313.902 635.584 312.734 636.765 311.269 636.765Z" fill="#D89E66"/>
<path d="M311.269 631.92C310.062 631.92 309.069 632.913 309.069 634.132C309.069 635.345 310.062 636.325 311.269 636.325C312.488 636.325 313.468 635.345 313.468 634.132C313.468 632.913 312.482 631.92 311.269 631.92ZM311.269 635.445C310.546 635.445 309.949 634.854 309.949 634.132C309.949 633.403 310.546 632.812 311.269 632.812C311.998 632.812 312.589 633.403 312.589 634.132C312.589 634.854 311.992 635.445 311.269 635.445Z" fill="#D89E66"/>
<path d="M181.307 637.444C181.307 644.124 186.718 649.529 193.398 649.529H244.377V625.346H193.398C186.718 625.346 181.307 630.77 181.307 637.444Z" fill="#562A0C"/>
<path d="M193.398 649.529H244.377V640.203H181.64C182.884 645.544 187.673 649.529 193.398 649.529Z" fill="#3A1B06"/>
<path d="M244.377 625.346C237.697 625.346 232.286 630.763 232.286 637.444C232.286 644.124 237.691 649.529 244.377 649.529C251.058 649.529 256.469 644.118 256.469 637.444C256.469 630.77 251.051 625.346 244.377 625.346Z" fill="#562A0C"/>
<path d="M244.378 626.955C238.59 626.955 233.901 631.65 233.901 637.444C233.901 643.226 238.596 647.92 244.378 647.92C250.159 647.92 254.847 643.226 254.847 637.444C254.847 631.65 250.159 626.955 244.378 626.955Z" fill="#F4C889"/>
<path d="M244.378 628.118C239.231 628.118 235.052 632.303 235.052 637.444C235.052 642.585 239.231 646.764 244.378 646.764C249.512 646.764 253.704 642.585 253.704 637.444C253.704 632.303 249.512 628.118 244.378 628.118ZM244.378 646.079C239.614 646.079 235.743 642.195 235.743 637.444C235.743 632.674 239.608 628.796 244.378 628.796C249.135 628.796 253.019 632.674 253.019 637.444C253.013 642.201 249.135 646.079 244.378 646.079Z" fill="#B57055"/>
<path d="M244.377 629.387C239.928 629.387 236.314 632.994 236.314 637.45C236.314 641.887 239.928 645.513 244.377 645.513C248.821 645.513 252.434 641.893 252.434 637.45C252.434 632.994 248.821 629.387 244.377 629.387ZM244.377 644.809C240.311 644.809 237.006 641.51 237.006 637.45C237.006 633.384 240.311 630.072 244.377 630.072C248.437 630.072 251.743 633.384 251.743 637.45C251.736 641.51 248.431 644.809 244.377 644.809Z" fill="#B57055"/>
<path d="M244.378 631.103C240.877 631.103 238.043 633.943 238.043 637.444C238.043 640.938 240.877 643.766 244.378 643.766C247.866 643.766 250.706 640.932 250.706 637.444C250.7 633.943 247.859 631.103 244.378 631.103ZM244.378 643.081C241.267 643.081 238.734 640.561 238.734 637.45C238.734 634.339 241.267 631.819 244.378 631.819C247.488 631.819 250.015 634.339 250.015 637.45C250.015 640.561 247.488 643.081 244.378 643.081Z" fill="#D89E66"/>
<path d="M244.378 632.14C241.449 632.14 239.08 634.515 239.08 637.444C239.08 640.36 241.449 642.735 244.378 642.735C247.294 642.735 249.669 640.36 249.669 637.444C249.663 634.522 247.288 632.14 244.378 632.14ZM244.378 642.05C241.839 642.05 239.771 639.989 239.771 637.45C239.771 634.911 241.839 632.85 244.378 632.85C246.904 632.85 248.978 634.911 248.978 637.45C248.978 639.989 246.904 642.05 244.378 642.05Z" fill="#D89E66"/>
<path d="M244.378 633.07C241.958 633.07 240.004 635.024 240.004 637.444C240.004 639.851 241.965 641.818 244.378 641.818C246.791 641.818 248.746 639.851 248.746 637.444C248.746 635.031 246.785 633.07 244.378 633.07ZM244.378 641.126C242.348 641.126 240.689 639.474 240.689 637.444C240.689 635.414 242.348 633.755 244.378 633.755C246.401 633.755 248.067 635.414 248.067 637.444C248.067 639.474 246.401 641.126 244.378 641.126Z" fill="#B57055"/>
<path d="M244.377 634.685C242.857 634.685 241.612 635.923 241.612 637.444C241.612 638.965 242.857 640.203 244.377 640.203C245.898 640.203 247.136 638.965 247.136 637.444C247.136 635.923 245.898 634.685 244.377 634.685ZM244.377 639.511C243.227 639.511 242.304 638.575 242.304 637.444C242.304 636.294 243.227 635.376 244.377 635.376C245.515 635.376 246.451 636.294 246.451 637.444C246.451 638.575 245.515 639.511 244.377 639.511Z" fill="#D89E66"/>
<path d="M244.377 635.716C243.428 635.716 242.655 636.495 242.655 637.444C242.655 638.393 243.428 639.166 244.377 639.166C245.326 639.166 246.099 638.399 246.099 637.444C246.099 636.489 245.326 635.716 244.377 635.716ZM244.377 638.481C243.799 638.481 243.334 638.009 243.334 637.444C243.334 636.872 243.799 636.407 244.377 636.407C244.949 636.407 245.408 636.872 245.408 637.444C245.408 638.009 244.943 638.481 244.377 638.481Z" fill="#D89E66"/>
<path d="M226.372 615.398C226.372 620.89 230.834 625.346 236.327 625.346H272.6V605.431H236.327C230.834 605.431 226.372 609.893 226.372 615.398Z" fill="#562A0C"/>
<path d="M236.327 625.346H272.601V617.667H226.643C227.673 622.072 231.62 625.346 236.327 625.346Z" fill="#3A1B06"/>
<path d="M272.6 605.431C267.101 605.431 262.646 609.893 262.646 615.398C262.646 620.89 267.101 625.346 272.6 625.346C278.093 625.346 282.548 620.89 282.548 615.398C282.548 609.893 278.093 605.431 272.6 605.431Z" fill="#562A0C"/>
<path d="M272.6 606.763C267.83 606.763 263.965 610.628 263.965 615.404C263.965 620.161 267.823 624.026 272.6 624.026C277.357 624.026 281.228 620.161 281.228 615.404C281.228 610.628 277.363 606.763 272.6 606.763Z" fill="#F4C889"/>
<path d="M272.6 607.706C268.365 607.706 264.921 611.156 264.921 615.398C264.921 619.627 268.365 623.071 272.6 623.071C276.824 623.071 280.28 619.627 280.28 615.398C280.28 611.162 276.83 607.706 272.6 607.706ZM272.6 622.506C268.673 622.506 265.486 619.313 265.486 615.398C265.486 611.47 268.673 608.277 272.6 608.277C276.522 608.277 279.708 611.47 279.708 615.398C279.714 619.313 276.522 622.506 272.6 622.506Z" fill="#B57055"/>
<path d="M272.6 608.755C268.936 608.755 265.964 611.734 265.964 615.398C265.964 619.049 268.936 622.028 272.6 622.028C276.258 622.028 279.237 619.049 279.237 615.398C279.237 611.734 276.258 608.755 272.6 608.755ZM272.6 621.462C269.251 621.462 266.536 618.741 266.536 615.398C266.536 612.048 269.251 609.321 272.6 609.321C275.937 609.321 278.658 612.048 278.658 615.398C278.665 618.747 275.937 621.462 272.6 621.462Z" fill="#B57055"/>
<path d="M272.6 610.176C269.722 610.176 267.378 612.513 267.378 615.398C267.378 618.257 269.722 620.608 272.6 620.608C275.472 620.608 277.81 618.257 277.81 615.398C277.81 612.513 275.472 610.176 272.6 610.176ZM272.6 620.036C270.036 620.036 267.95 617.956 267.95 615.398C267.95 612.834 270.036 610.747 272.6 610.747C275.158 610.747 277.245 612.84 277.245 615.398C277.245 617.956 275.158 620.036 272.6 620.036Z" fill="#D89E66"/>
<path d="M272.6 611.036C270.193 611.036 268.238 612.991 268.238 615.404C268.238 617.805 270.193 619.766 272.6 619.766C275 619.766 276.955 617.798 276.955 615.404C276.961 612.991 275 611.036 272.6 611.036ZM272.6 619.181C270.501 619.181 268.804 617.484 268.804 615.398C268.804 613.299 270.501 611.596 272.6 611.596C274.686 611.596 276.389 613.299 276.389 615.398C276.389 617.484 274.686 619.181 272.6 619.181Z" fill="#D89E66"/>
<path d="M272.6 611.791C270.608 611.791 268.993 613.406 268.993 615.398C268.993 617.377 270.608 618.999 272.6 618.999C274.574 618.999 276.195 617.377 276.195 615.398C276.195 613.406 274.58 611.791 272.6 611.791ZM272.6 618.427C270.922 618.427 269.565 617.063 269.565 615.398C269.565 613.72 270.922 612.356 272.6 612.356C274.272 612.356 275.623 613.72 275.623 615.398C275.63 617.063 274.272 618.427 272.6 618.427Z" fill="#B57055"/>
<path d="M272.6 613.123C271.343 613.123 270.325 614.141 270.325 615.404C270.325 616.655 271.343 617.673 272.6 617.673C273.851 617.673 274.869 616.655 274.869 615.404C274.875 614.141 273.851 613.123 272.6 613.123ZM272.6 617.101C271.657 617.101 270.891 616.334 270.891 615.404C270.891 614.461 271.657 613.695 272.6 613.695C273.543 613.695 274.303 614.461 274.303 615.404C274.303 616.334 273.543 617.101 272.6 617.101Z" fill="#D89E66"/>
<path d="M272.6 613.971C271.815 613.971 271.174 614.606 271.174 615.398C271.174 616.177 271.815 616.818 272.6 616.818C273.38 616.818 274.014 616.177 274.014 615.398C274.014 614.606 273.38 613.971 272.6 613.971ZM272.6 616.246C272.123 616.246 271.746 615.863 271.746 615.398C271.746 614.92 272.123 614.543 272.6 614.543C273.059 614.543 273.455 614.92 273.455 615.398C273.455 615.863 273.059 616.246 272.6 616.246Z" fill="#D89E66"/>
<path d="M349.761 591.875C343.804 587.602 343.263 573.148 348.36 563.771C351.112 558.681 356.335 544.956 349.422 534.593C348.09 543.699 345.274 547.721 335.502 560.83C324.517 575.554 322.65 583.316 325.868 596.972C317.296 589.481 317.026 579.306 319.539 566.832C311.766 572.016 305.714 586.697 310.898 602.245C313.783 610.867 317.981 618.163 322.041 623.825H352.281C352.872 623.304 353.224 622.971 353.224 622.971C353.224 622.971 378.261 598.782 367.037 575.46C360.985 592.749 354.657 595.388 349.761 591.875Z" fill="#FFAD29"/>
<path d="M343.018 600.296C338.801 596.89 335.389 585.239 338.606 573.192C328.96 580.821 327.558 592.472 332.177 607.322C325.151 605.318 318.924 601.503 316.517 597.091C316.68 606.26 321.739 616.586 328.495 623.825H347.298C351.741 619.288 358.365 611.263 360.69 601.704C353.061 606.926 346.487 603.106 343.018 600.296Z" fill="#E86E0A"/>
<path d="M362.161 545.213C363.38 546.973 362.664 548.927 361.432 550.869C358.082 556.123 359.1 561.98 360.018 563.991C361.206 566.612 363.713 568.849 368.847 571.049C366.843 569.044 366.045 565.701 366.045 562.615C366.045 558.291 369.243 556.852 369.124 553.377C368.992 549.637 366.981 545.747 362.161 545.213Z" fill="#FFAD29"/>
<path d="M345.532 513.76C345.532 513.76 343.961 512.647 340.712 512.452C341.428 512.949 345.413 515.764 345.532 522.489C345.645 529.112 339.392 531.425 341.428 538.25C343.615 533.637 349.862 531.821 350.333 524.185C350.824 516.569 345.532 513.76 345.532 513.76Z" fill="#FFAD29"/>
<path d="M324.178 549.637C321.67 549.914 320.633 551.925 320.57 553.873C320.501 555.67 322.16 556.425 322.16 558.662C322.16 560.258 321.752 561.986 320.709 563.03C323.38 561.892 324.668 560.736 325.284 559.378C325.761 558.335 326.283 555.3 324.549 552.572C323.92 551.56 323.549 550.542 324.178 549.637Z" fill="#FFAD29"/>
<path d="M238.615 603.219C245.534 572.45 237.93 565.87 233.43 554.81C228.937 543.743 218.894 526.109 220.981 501.216C203.686 522.306 194.008 558.272 200.927 585.239C191.588 580.054 187.441 568.302 186.404 562.42C178.888 581.544 182.859 607.391 194.611 625.352H243.894C247.463 621.839 256.381 612.124 256.947 602.188C257.632 589.745 251.756 581.097 249.682 573.839C247.256 591.46 242.071 602.182 238.615 603.219Z" fill="#FFAD29"/>
<path d="M232.506 582.241C229.741 566.561 220.98 562.414 217.059 549.273C209.681 572.563 209.681 581.317 211.761 590.995C213.828 600.686 213.602 608.523 210.14 611.747C202.994 603.212 197.458 603.212 194.479 593.767C191.864 606.047 195.271 615.926 202.02 625.34H238.112C241.09 622.92 244.189 618.678 245.647 611.281C240.569 615.203 235.504 619.131 228.817 619.803C232.273 611.288 235.265 597.914 232.506 582.241Z" fill="#E86E0A"/>
<path d="M210.831 477.473C211.875 478.988 211.271 480.678 210.203 482.344C207.318 486.868 208.211 491.915 208.996 493.643C210.014 495.899 212.17 497.828 216.6 499.72C214.879 497.986 214.187 495.107 214.187 492.462C214.187 488.741 216.946 487.503 216.833 484.505C216.714 481.275 214.985 477.926 210.831 477.473Z" fill="#FFAD29"/>
<path d="M249.788 554.037C247.683 554.162 246.677 554.879 246.677 554.879C246.677 554.879 243.246 556.695 243.554 561.622C243.874 566.555 247.903 567.724 249.323 570.703C250.643 566.291 246.595 564.802 246.677 560.51C246.746 556.173 249.323 554.357 249.788 554.037Z" fill="#FFAD29"/>
<path d="M186.491 539.563C187.139 540.99 186.378 542.304 185.228 543.548C182.143 546.897 182.117 551.253 182.52 552.817C183.041 554.866 184.55 556.796 187.987 559.052C186.793 557.336 186.649 554.822 187.044 552.61C187.597 549.493 190.092 548.871 190.451 546.344C190.84 543.63 189.898 540.575 186.491 539.563Z" fill="#FFAD29"/>
<path d="M563.08 334.81H0V351.564H563.08V334.81Z" fill="#939393"/>
<path d="M290.926 406.987H272.154V661.268H290.926V406.987Z" fill="#050505"/>
<path d="M279.199 409.633V659.169H283.887V409.633C283.108 409.62 282.329 409.563 281.543 409.563C280.758 409.57 279.978 409.62 279.199 409.633Z" fill="#3D3D3D"/>
<path d="M318.326 533.575C315.53 533.575 313.267 535.755 313.091 538.508C311.778 537.666 310.156 535.969 308.667 534.398C304.752 530.269 299.888 525.116 292.522 525.116C283.674 525.116 279.224 530.784 277.76 532.657C276.61 534.128 276.861 536.246 278.332 537.396C279.796 538.539 281.927 538.288 283.07 536.817C285 534.373 287.627 531.871 292.522 531.871C296.984 531.871 300.441 535.523 303.771 539.048C307.064 542.524 310.848 546.257 315.146 546.257C316.893 546.257 323.611 545.798 323.611 538.854C323.605 535.931 321.248 533.575 318.326 533.575Z" fill="#050505"/>
<path d="M318.326 536.088C316.799 536.088 315.573 537.326 315.573 538.847C315.573 540.374 316.799 541.606 318.326 541.606C319.853 541.606 321.091 540.374 321.091 538.847C321.091 537.326 319.853 536.088 318.326 536.088Z" fill="#3D3D3D"/>
</svg>
