<svg width="444" height="793" viewBox="0 0 444 793" fill="none" xmlns="http://www.w3.org/2000/svg">
<path d="M321.043 752.872C318.137 752.872 315.365 752.12 312.823 750.623C304.087 745.474 301.291 733.269 301.006 731.89C300.919 731.478 300.871 731.059 300.871 730.631L299.842 380.493C299.834 377.072 302.59 374.292 306.019 374.284H306.035C309.449 374.284 312.221 377.04 312.236 380.462L313.266 729.886C314.003 732.754 316.141 738.211 319.127 739.954C319.887 740.397 320.909 740.761 322.81 740.183C335.854 736.167 413.494 705.531 414.27 705.222C417.454 703.954 421.057 705.523 422.309 708.715C423.56 711.891 422 715.495 418.816 716.754C415.6 718.021 339.949 747.874 326.445 752.025C324.631 752.595 322.81 752.872 321.043 752.872Z" fill="#393331"/>
<path d="M321.044 754.329C317.86 754.329 314.843 753.506 312.087 751.882C302.812 746.425 299.882 733.641 299.581 732.191C299.478 731.684 299.422 731.162 299.414 730.647L298.385 380.501C298.369 376.28 301.791 372.834 306.02 372.818C310.249 372.818 313.686 376.248 313.702 380.462L314.732 729.886C315.405 732.318 317.448 737.284 319.864 738.694C320.458 739.043 321.194 739.146 322.382 738.789C335.292 734.821 412.948 704.176 413.732 703.875C417.581 702.346 422.151 704.335 423.671 708.184C424.416 710.085 424.384 712.168 423.576 714.045C422.761 715.922 421.264 717.364 419.363 718.116C418.579 718.425 340.678 749.189 326.889 753.434C324.933 754.028 322.968 754.329 321.044 754.329ZM306.044 375.741C303.414 375.749 301.3 377.88 301.307 380.486L302.337 730.623C302.345 730.94 302.376 731.265 302.44 731.581C302.717 732.896 305.378 744.532 313.567 749.355C317.29 751.549 321.638 751.977 326.026 750.63C339.719 746.417 417.51 715.701 418.294 715.392C419.466 714.924 420.4 714.029 420.899 712.873C421.406 711.709 421.422 710.426 420.963 709.245C420.028 706.869 417.217 705.618 414.817 706.584C414.033 706.893 336.266 737.569 323.246 741.577C320.949 742.274 319.222 741.696 318.391 741.213C314.938 739.201 312.657 733.379 311.849 730.251L310.78 380.47C310.772 377.856 308.641 375.741 306.044 375.741Z" fill="#0F0F0F"/>
<path d="M442.426 50.1809L257.985 787.516L242.881 790.447L181.992 1.62768L195.963 1.46924L442.426 50.1809Z" fill="#77563A"/>
<path d="M242.881 791.904C242.564 791.904 242.255 791.801 241.994 791.603C241.661 791.35 241.455 790.97 241.424 790.558L180.543 1.73853C180.511 1.33458 180.646 0.93855 180.923 0.637568C181.192 0.336585 181.572 0.162291 181.976 0.162291L195.939 0.00390625L442.703 48.7393C443.099 48.8185 443.439 49.0561 443.653 49.3888C443.875 49.7294 443.938 50.1412 443.843 50.5293L259.402 787.865C259.26 788.419 258.816 788.847 258.262 788.95L243.158 791.873C243.071 791.896 242.976 791.904 242.881 791.904ZM183.568 3.06918L244.212 788.696L256.789 786.265L440.635 51.3135L195.678 2.90282L183.568 3.06918Z" fill="#5B3512"/>
<path d="M428.138 50.1809L243.048 790.597L1.44824 708.77L181.668 1.46924L428.138 50.1809Z" fill="#D29766"/>
<path d="M243.048 792.063C242.889 792.063 242.731 792.031 242.581 791.992L0.988861 710.148C0.268141 709.903 -0.143846 709.142 0.046234 708.406L180.266 1.105C180.456 0.35254 181.185 -0.122707 181.961 0.0277837L428.431 48.7394C428.827 48.8186 429.168 49.0562 429.382 49.3889C429.595 49.7295 429.667 50.1413 429.572 50.5294L244.481 790.954C244.378 791.35 244.117 791.683 243.76 791.881C243.523 792.007 243.285 792.063 243.048 792.063ZM3.19847 707.819L242.01 788.712L426.348 51.3136L182.745 3.16437L3.19847 707.819Z" fill="#5B3512"/>
<path d="M407.523 59.274L230.218 772.42L16.877 696.921L189.826 18.6572L407.523 59.274Z" fill="#D8D8D8"/>
<path d="M230.218 773.877C230.051 773.877 229.885 773.854 229.727 773.79L16.3856 698.291C15.6728 698.046 15.2689 697.285 15.459 696.549L188.408 18.2928C188.598 17.5403 189.335 17.0888 190.087 17.2155L407.784 57.8403C408.18 57.9116 408.529 58.1492 408.743 58.4819C408.964 58.8225 409.028 59.2343 408.932 59.6303L231.635 772.768C231.533 773.164 231.271 773.505 230.907 773.695C230.693 773.822 230.463 773.877 230.218 773.877ZM18.6189 695.978L229.188 770.503L405.725 60.4303L190.903 20.3363L18.6189 695.978Z" fill="#878787"/>
<path d="M402.857 78.0219L407.522 59.2739L395.096 56.9531C354.87 74.9012 191.069 154.368 149.576 176.499L144.27 197.298C206.798 169.275 378.63 88.5167 402.857 78.0219Z" fill="white"/>
<path d="M72.9339 560.686C122.743 531.309 285.467 441.101 316.656 424.73L349.477 292.725C323.602 303.885 147.469 396.913 84.6872 430.963L47.875 575.34C56.2464 570.484 64.6021 565.597 72.9339 560.686Z" fill="white"/>
<path d="M258.468 658.759L265.232 631.544C208.77 662.656 152.871 694.822 95.8467 724.856L122.743 734.377C167.958 709.134 212.429 682.426 258.468 658.759Z" fill="white"/>
</svg>
