<svg width="1069" height="522" viewBox="0 0 1069 522" fill="none" xmlns="http://www.w3.org/2000/svg">
<path d="M1061.49 193.973C1067.54 206.422 1071.47 219.087 1065.44 232.768C1044.86 215.435 1032.38 220.163 1027.17 246.709C1025.53 255.035 1026.65 262.851 1028.06 270.854C1027.66 304.23 1027.37 337.607 1026.77 370.979C1026.64 378.354 1028.81 386.155 1024 392.99C1019.01 386.383 1014.71 380.201 1004.8 387.459C995.283 394.431 983.308 394.193 971.852 394.196C687.784 394.275 403.716 394.27 119.649 394.179C112.074 394.176 104.414 394.317 97.3452 390.801C78.0438 356.053 71.3194 318.648 76.6211 279.576C78.659 264.557 74.8747 247.232 88.8769 235.273C99.54 240.002 97.6235 250.01 97.4567 258.315C97.0615 278.068 99.8164 297.5 101.935 316.993C103.957 335.603 111.551 342.531 130.014 343.9C136.334 344.369 142.681 344.155 149.016 344.155C403.082 344.16 657.148 344.16 911.213 344.158C915.014 344.158 918.817 344.195 922.617 344.121C951.49 343.556 959.406 335.814 960.205 306.37C960.823 283.599 959.457 260.762 964.248 238.201C966.635 226.962 969.616 216.036 975.281 205.992C996.678 168.058 1031.53 163.213 1061.49 193.973Z" fill="#503A45"/>
<path d="M91.4443 45.7755C93.3855 29.8517 84.9172 9.28598 110.181 3.76211C118.813 0.735691 127.748 3.05273 136.504 2.26741C150.698 0.993369 152.091 6.43991 142.43 17.0976C349.138 17.3566 553.991 16.8302 758.776 17.2722C735.131 17.2112 711.204 19.6211 689.513 5.1283C742.227 2.13758 794.823 2.35431 847.395 2.27708C859.16 5.00689 851.536 11.5121 848.317 13.5202C837.089 20.5284 831.452 31.5755 824.911 42.1371C810.898 51.2501 794.953 51.6967 779.153 51.7168C687.25 51.8323 596.152 60.5837 504.988 72.1513C444.143 79.8721 383.421 88.503 322.593 96.3167C306.208 98.4214 289.704 97.1895 273.254 97.4485C230.874 98.1144 188.433 95.6305 146.151 99.9251C136.025 98.9535 128.655 93.0714 123.976 84.8073C115.446 69.7395 106.217 55.5226 91.4443 45.7755Z" fill="#9E7D6F"/>
<path d="M1061.49 193.973C1059.26 196.605 1057.33 195.495 1055.17 193.703C1025.52 169.141 996.662 175.46 979.018 210.379C969.701 228.818 967.525 248.893 966.534 269.041C965.789 284.197 966.721 299.428 966.266 314.608C965.496 340.239 955.424 350.112 930.078 350.115C662.931 350.145 395.785 350.113 128.638 350.048C107.292 350.043 98.1343 339.124 95.1372 317.978C91.2646 290.663 95.4552 262.785 88.2143 235.86C80.9188 228.2 81.2433 217.312 76.5108 208.422C67.5221 191.533 54.3363 183.437 35.2387 184.612C28.6526 185.018 19.7295 189.298 16.3501 181.615C13.0726 174.162 22.0042 170.244 26.6147 165.432C29.3191 164.016 32.2111 163.281 35.2199 162.92C55.019 160.994 73.3456 164.172 88.4694 178.352C108.825 196.879 122.123 220.956 138.673 242.501C137.086 250.959 128.462 255.111 126.131 263.113C122.011 283.967 121.502 303.752 141.629 317.728C149.06 319.738 156.547 320.783 164.193 320.835C257.948 321.466 351.819 324.02 445.428 320.237C555.021 315.808 664.516 318.851 774.005 317.647C797.693 322.157 821.242 322.154 845.418 319.295C864.167 317.078 879.308 311.182 892.02 297.578C905.766 282.866 921.951 270.304 931.531 252.005C933.353 248.689 935.135 245.347 936.502 241.803C943.913 210.322 954.993 181.141 985.407 164.128C1000.86 155.588 1017.48 153.651 1034.76 155.407C1047.55 165.571 1057.66 177.592 1061.49 193.973Z" fill="#2F202E"/>
<path d="M139.99 490.5C119.064 498.549 122.468 481.058 119.137 470.637C108.449 457.222 115.399 441.426 113.303 426.848C111.583 414.886 107.34 411.689 98.1556 421.418C85.6032 417.114 72.5102 414.171 60.8106 407.495C45.1112 402.378 44.9374 389.856 46.116 376.689C61.7381 383.983 79.9458 379.81 95.4103 387.803C302.954 387.91 510.499 388.032 718.043 388.115C801.568 388.148 885.098 387.588 968.615 388.435C989.387 388.645 1006.98 384.399 1022.32 367.271C1022.97 377.218 1023.48 385.105 1024 392.992C1024.99 402.499 1016.58 405.481 1011.6 410.846C1003.05 417.278 993.437 414.881 984.197 413.676C969.721 411.789 955.945 408.631 946.229 425.177C941.527 433.183 932.222 433.202 925.151 425.579C921.669 421.826 918.081 418.371 913.403 416.128C904.236 412.523 894.656 413.298 885.208 413.295C651.718 413.248 418.227 413.254 184.737 413.265C179.676 413.265 174.61 413.542 169.557 413.491C156.891 413.363 151.093 419.488 151.31 432.07C151.539 445.391 149.975 458.589 147.76 471.716C146.601 478.587 145.818 485.577 139.99 490.5Z" fill="#2A1D28"/>
<path d="M852.385 4.39098C799.263 4.39098 746.141 4.39098 690.066 4.39098C718.862 14.9305 746.698 9.26967 776.409 14.1283C758.744 23.9241 157.64 28.0453 124.336 20.405C127.305 9.10021 139.904 14.5223 146.963 6.59444C134.225 2.11355 121.864 5.68967 110.186 3.76271C115.727 -0.653276 122.312 0.870599 128.483 0.864108C395.57 0.572695 662.658 0.36376 929.745 0.219676C935.917 0.216431 942.521 -1.26473 947.897 3.50886C944.667 7.94432 939.938 9.00224 934.876 9.32286C913.773 10.8623 892.636 10.0654 871.51 9.93623C864.726 9.8934 857.696 9.88629 852.385 4.39098Z" fill="#B59483"/>
<path d="M95.4105 387.803C78.7337 385.185 58.9107 396.521 46.1162 376.688C44.911 341.186 43.7058 305.684 42.5006 270.181C40.8404 264.629 41.5887 258.887 41.1351 253.24C39.2938 230.35 29.8787 221.145 6.87415 219.637C4.24049 219.464 1.96578 218.718 0.111581 216.818C-0.993023 197.453 6.15829 181.26 19.1377 167.307C22.1452 165.508 25.0358 164.944 27.5754 168.103C25.5232 173.2 18.135 174.783 18.5153 181.624C63.941 174.449 86.1708 191.802 88.2119 235.862C78.19 282.028 76.6926 327.819 93.5861 372.985C95.2813 377.518 94.8537 382.844 95.4105 387.803Z" fill="#6C515A"/>
<path d="M958.862 9.72754C963.995 14.1221 965.462 20.0718 966.015 26.4387C968.877 59.4379 971.759 92.4343 974.634 125.432C977.925 133.986 971.399 136.468 965.85 139.336C950.951 147.036 939.261 158.146 930.337 172.278C922.453 185.629 920.026 200.628 916.933 215.454C911.857 239.791 910.46 240.867 885.842 241.183C881.426 241.239 877.01 241.243 872.596 241.339C868.499 241.568 864.401 241.43 860.307 241.365C827.189 239.444 793.576 244.004 758.014 238.06C766.437 225.495 775.931 225.58 784.079 223.063C846.01 203.933 894.281 166.087 932.7 114.761C936.854 109.211 940.075 103.021 941.688 96.1455C945.42 78.9742 950.189 61.9748 949.535 44.1357C949.698 31.8587 947.715 19.0047 958.862 9.72754Z" fill="#301F2F"/>
<path d="M921.149 414.644C932.243 428.44 942.168 436.173 948.516 410.999C950.009 405.076 957.033 406.632 961.751 406.925C978.385 407.96 994.989 409.499 1011.6 410.845C1009.81 443.313 1007.82 475.772 1006.31 508.253C1005.63 522.817 995.927 521.206 986.347 520.488C984.822 514.425 983.297 508.362 981.772 502.3C973.805 487.741 976.369 471.806 975.823 456.293C975.49 446.836 974.052 437.542 972.142 428.315C971.251 424.008 970.287 419.144 964.737 418.748C958.261 418.287 956.366 423.457 955.055 428.378C951.94 440.074 953.361 452.1 952.81 463.989C952.384 473.18 954.74 483.042 947.327 490.842C932.96 499.765 929.537 488.059 924.776 478.879C917.131 457.831 910.972 436.699 921.149 414.644Z" fill="#572C2B"/>
<path d="M958.862 9.72779C955.935 21.6219 954.557 33.6873 954.85 45.9377C938.43 54.1511 920.282 57.4242 903.224 64.0157C878.411 73.6031 854.762 85.8444 829.748 94.8055C820.311 98.1857 810.677 102.297 800.35 97.6035C791.187 84.34 806.14 79.3379 809.634 70.3871C812.694 65.5207 815.729 60.6168 820.855 57.5573C837.18 46.2765 856.67 43.0748 874.844 36.5092C896.724 28.6053 917.896 19.4139 935.886 4.18776C939.889 3.9619 943.894 3.7353 947.897 3.50879C952.5 3.90989 956.575 5.24041 958.862 9.72779Z" fill="#7D5F5D"/>
<path d="M91.4441 45.7754C107.269 47.1714 115.989 56.6849 121.417 70.8506C125.296 80.9748 131.247 89.9456 141.219 95.4105C152.137 101.134 162.066 108.344 171.38 116.323C175.637 119.97 182.764 122.735 178.829 130.829C162.959 137.561 149.581 126.535 134.988 124.286C122.733 122.398 112.387 122.002 105.861 134.592C103.771 136.702 101.348 138.22 98.4377 138.93C91.7945 138.092 83.8513 139.137 83.6748 128.846C85.3324 101.068 86.6259 73.2565 91.4441 45.7754Z" fill="#7D6160"/>
<path d="M60.8105 407.495C66.1856 408.015 71.9085 409.972 76.8669 408.77C88.9409 405.844 92.1673 413.375 95.1547 422.032C102.681 428.838 101.76 438.057 101.186 446.578C99.9306 465.252 98.6871 484.017 92.4625 501.943C90.7634 508.29 92.8181 515.526 87.9266 521.117C74.4987 523.197 69.1354 518.649 68.5338 503.907C67.2202 471.719 63.5299 439.627 60.8105 407.495Z" fill="#5D2C28"/>
<path d="M927.789 167.543C937.66 151.861 950.855 139.947 968.35 133.58C972.899 131.925 973.409 128.793 974.635 125.43C977.414 128.576 979.404 131.178 985.09 130.999C1005.6 130.353 1021.88 139.764 1034.76 155.407C1019.09 162.562 1000.63 159.189 985.513 168.419C972.472 172.621 959.51 177.604 945.517 176.711C938.564 176.266 929.857 177.955 927.789 167.543Z" fill="#A08274"/>
<path d="M0.111192 216.818C12.757 212.562 25.4482 211.09 34.5725 223.027C45.2831 237.039 51.326 252.547 42.5002 270.181C11.7984 262.709 -0.348951 247.417 0.111192 216.818Z" fill="#312228"/>
<path d="M1028.06 270.854C1010.62 258.081 1024.7 243.659 1026.83 230.468C1028.5 220.133 1037.7 216.169 1048.57 217.015C1058.71 217.805 1065.27 221.666 1065.44 232.768C1062.45 254.755 1048.25 265.742 1028.06 270.854Z" fill="#2C2028"/>
<path d="M83.6755 128.845C87.5404 134.716 94.5536 134.138 99.9838 136.805C102.309 136.005 103.734 136.805 104.267 139.206C102.837 149.046 97.0736 154.821 87.4339 156.626C69.8382 159.921 53.0816 167.569 34.7051 166.804C32.3278 167.235 29.9511 167.667 27.5751 168.101C24.7636 167.837 21.9515 167.572 19.1387 167.306C35.2969 145.503 56.1357 131.553 83.6755 128.845Z" fill="#A18677"/>
<path d="M179.348 129.491C168.87 115.633 150.129 111.021 141.219 95.4096C178.164 88.8349 215.513 90.8208 252.588 91.9793C301.979 93.5227 350.518 87.8516 398.827 79.4428C439.069 72.4378 479.923 70.9925 520.158 64.7359C610.522 50.6838 701.422 45.9691 792.72 45.568C803.704 45.52 814.668 40.8763 825.641 38.3633C832.934 47.4075 828.223 54.4188 821.783 61.1369C819.25 64.9194 816.717 68.7027 814.185 72.4859C803.372 82.0538 790.544 86.595 776.329 87.7529C754.356 89.5436 732.358 92.9893 710.427 92.8764C675.679 92.6966 641.292 99.2432 606.564 97.1936C590.831 96.2648 581.197 106.703 570.467 115.331C568.568 116.566 566.507 117.414 564.311 117.95C551.836 119.607 542.731 114.399 536.129 104.106C530.853 95.0993 521.699 96.7621 514.002 97.3703C465.346 101.217 417.121 107.682 372.835 130.106C355.469 138.9 337.667 142.957 318.201 142.92C282.863 142.853 247.496 141.352 212.183 143.815C198.918 144.384 187.979 139.575 179.348 129.491Z" fill="#8E7169"/>
<path d="M821.783 61.1361C823.092 53.549 827.019 46.4045 825.641 38.3617C824.338 27.057 828.525 19.0247 839.244 14.3757C844.335 12.1671 849.772 10.0285 852.384 4.38776C880.219 4.32221 908.053 4.25402 935.887 4.18652C926.4 26.8577 903.06 29.2534 884.592 37.8621C864.43 47.2607 841.696 50.5161 821.783 61.1361Z" fill="#7E6260"/>
<path d="M859.886 236.322C863.66 236.318 867.434 236.314 871.208 236.309C885.296 238.859 899.186 238.636 913.395 235.947C922.819 234.163 934.585 229.494 939.911 243.759C939.642 246.791 939.17 249.725 936.184 251.439C921.818 278.214 896.684 288.119 869.034 290.117C835.604 292.534 808.353 308.902 779.986 323.454C735.755 323.523 691.523 323.737 647.292 323.636C488.783 323.276 330.319 329.177 171.797 327.114C158.635 326.942 145.41 327.349 133.772 319.59C136.021 313.44 141.41 311.209 146.978 310.074C173.129 304.744 197.762 294.751 222.239 284.734C253.253 272.04 285.021 266.605 318.365 268.755C330.296 269.524 342.356 269.461 353.997 265.584C364.691 263.751 375.47 264.17 386.221 264.167C502.682 264.134 619.143 264.006 735.604 264.256C761.613 264.313 787.477 263.507 813.086 259.194C823.643 256.709 823.643 256.709 828.302 238.031C838.827 237.091 849.53 239.904 859.886 236.322Z" fill="#715559"/>
<path d="M821.757 262.58C804.8 267.59 787.396 269.921 769.798 269.952C629.994 270.196 490.191 270.261 350.388 270.38C336.733 273.745 322.923 272.293 309.201 271.323C292.24 270.124 275.611 271.615 258.657 273.084C219.862 276.446 180.857 273.256 142.118 269.108C134.786 268.324 127.359 265.436 122.588 258.718C125.011 251.289 131.427 247.556 137.055 243.095C138.814 240.274 140.881 237.81 144.279 236.869C147.625 235.985 150.974 236.016 154.342 236.771C162.429 238.891 170.69 238.252 178.882 238.265C229.449 238.343 280.04 239.287 330.576 238.041C387.47 236.638 444.062 242.652 500.91 242.724C547.268 242.782 593.622 243.797 639.999 243.825C674.833 243.846 710.165 236.619 745.085 246.891C764.811 252.693 785.296 244.181 805.434 245.932C814.741 246.741 828.309 245.364 821.757 262.58Z" fill="#AA8D7C"/>
<path d="M122.587 258.717C163.271 272.826 206.204 268.059 247.493 268.355C281.744 268.601 316.083 271.576 350.387 270.378C342.053 277.408 331.853 274.833 323.065 273.753C270.883 267.336 225.805 290.649 178.868 306.514C164.055 311.521 148.816 315.267 133.772 319.59C116.986 301.698 114.968 281.093 122.587 258.717Z" fill="#866A62"/>
<path d="M779.986 323.453C799.438 306.313 820.158 292.031 847.099 289.103C867.753 286.858 887.785 281.645 907.668 275.223C921.056 270.899 924.643 256.801 936.182 251.438C920.061 282.294 897.582 309.928 865.403 320.794C839.202 329.64 808.742 331.646 779.986 323.453Z" fill="#57414B"/>
<path d="M939.911 243.758C927.932 235.86 914.537 241.658 901.933 239.828C891.725 238.347 880.8 243.122 871.208 236.308C905.97 235.314 905.804 235.273 914.388 199.913C917.155 188.514 918.98 176.526 927.791 167.543C937.809 175.599 949.256 171.795 959.748 170.106C968.414 168.711 976.83 167.699 985.512 168.415C957.984 186.07 948.505 214.646 939.911 243.758Z" fill="#57414B"/>
<path d="M141.357 240.468C139.924 241.345 138.491 242.221 137.056 243.095C116.22 226.583 107.052 200.65 88.1709 182.561C99.6297 165.403 117.153 160.258 136.297 158.263C157.443 180.857 159.631 216.567 141.357 240.468Z" fill="#4E3A43"/>
<path d="M133.574 159.985C118.552 167.739 102.052 172.521 88.1699 182.564C72.5652 169.786 54.34 165.902 34.7031 166.807C53.3107 165.471 68.5122 152.118 87.6494 152.126C96.6101 152.13 98.6324 142.998 103.152 137.337C119.181 136.977 131.022 142.244 133.574 159.985Z" fill="#7D6160"/>
<path d="M921.15 414.644C922.359 436.057 923.567 457.468 924.776 478.88C922.413 490.077 913.351 486.876 906.413 486.897C839.97 487.097 773.526 487.034 707.083 487.036C526.736 487.039 346.389 487.05 166.043 486.996C157.162 486.993 148.337 486.81 139.99 490.501C141.882 467.832 144.418 445.189 145.38 422.481C145.833 411.793 149.365 407.829 159.942 408.533C170.015 409.203 180.169 408.644 190.287 408.639C424.909 408.527 659.529 408.332 894.149 408.633C903.044 408.644 914.529 402.392 921.15 414.644Z" fill="#FEFDFE"/>
<path d="M947.326 490.843C948.098 467.476 949.414 444.109 949.415 420.742C949.415 409.089 956.034 409.516 964.091 409.451C972.321 409.386 977.772 409.341 978.406 420.93C979.891 448.046 982.495 475.092 981.773 502.3C973.774 488.01 957.094 499.813 947.326 490.843Z" fill="#F9F8F7"/>
<path d="M92.4629 501.943C93.3598 475.308 94.2575 448.672 95.1551 422.034C95.697 414.186 96.076 407.805 107.676 408.264C119.926 408.75 118.206 416.059 118.334 423.454C118.607 439.181 118.87 454.909 119.138 470.636C118.273 483.577 119.631 498.097 99.1036 495.74C97.1527 495.517 94.6883 499.769 92.4629 501.943Z" fill="#F7F4F3"/>
<path d="M179.348 129.492C189.461 133.337 199.574 137.181 209.687 141.027C237.126 144.743 262.631 156.325 290.203 160.08C312.025 163.052 332.728 163.373 352.496 152.442C378.222 149.397 404.203 147.694 429.917 147.274C520.273 145.799 610.316 138.513 700.534 134.67C731.71 133.342 762.409 127.67 785.259 102.778C788.774 98.3338 792.272 93.8341 799.004 95.3451C817.248 96.3939 833.505 89.4726 849.067 81.5078C874.243 68.622 901.431 60.8843 927.156 49.4958C936.104 45.5348 945.453 45.8113 954.852 45.9379C956.776 64.3099 949.219 81.2702 946.949 99.0172C936.446 107.708 924.344 113.149 910.997 115.248C894.742 117.803 881.234 124.181 870.176 137.032C859.595 149.329 846.79 152.418 831.175 143.505C817.348 135.613 804.821 138.603 788.062 143.761C729.86 161.675 681.318 202.717 619.069 210.36C550.899 218.73 482.684 221.428 414.324 216.855C361.942 213.351 309.175 217.764 257.049 207.754C240.757 204.626 226.216 195.988 209.544 195.18C193.824 191.661 181.355 182.118 168.566 173.056C147.728 158.289 127.342 142.738 103.225 133.352C105.704 118.579 114.697 115.974 128.324 117.953C145.703 120.475 161.373 130.06 179.348 129.492Z" fill="#694E55"/>
<path d="M205.925 190.393C227.873 188.944 246.199 203.448 268.37 203.575C288.261 203.688 308.059 209.92 328.307 209.404C390.14 207.826 451.756 215.423 513.629 213.38C559.013 211.882 603.966 207.846 648.48 198.497C671.932 193.571 692.62 182.274 712.378 170.258C731.185 158.819 751.394 152.338 771.745 145.909C782.277 142.582 792.698 141.069 797.367 129.342C798.215 127.212 800.74 123.213 802.186 125.076C810.689 136.031 826.548 129.079 834.427 137.857C845.767 150.49 856.923 145.307 863.293 136.418C876.848 117.503 895.281 111.45 916.482 108.693C927.119 107.31 935.687 98.8074 946.952 99.017C925.343 144.109 887.82 173.757 847.408 200.168C822.514 216.438 795.064 227.45 765.709 236.316C797.102 236.316 828.494 236.316 859.887 236.318C849.044 243.295 836.903 237.958 825.535 239.944C819.004 246.768 810.445 245.333 802.362 245.475C749.441 246.411 696.46 241.305 643.685 244.348C609.588 246.314 575.718 241.754 541.667 245.1C518.503 247.376 495.092 242.471 471.733 243.45C455.925 239.822 439.654 242.593 423.744 240.177C408.938 235.386 393.643 238.49 378.609 237.41C325.839 233.621 272.442 232.722 223.966 207.242C216.674 203.411 206.423 201.863 205.925 190.393Z" fill="#57414B"/>
<path d="M799.004 95.3449C796.459 97.8852 793.914 100.425 791.369 102.966C782.546 108.443 772.659 110.404 762.582 111.979C704.138 121.11 645.276 121.17 586.369 120.196C579.449 120.081 572.293 120.062 566.98 114.323C577.523 97.4516 591.697 91.1055 612.523 90.9407C671.501 90.474 730.457 87.2521 789.152 80.4056C798.313 79.3366 805.214 73.0203 814.185 72.4868C810.874 81.2675 799.214 84.5049 799.004 95.3449Z" fill="#7E6260"/>
<path d="M205.925 190.393C242.944 215.726 285.033 224.018 328.699 228.861C359.847 232.316 391.396 229.134 422.237 235.741C415.922 241.95 407.89 239.674 400.55 239.718C361.276 239.956 321.999 239.826 282.729 239.831C238.123 239.875 193.512 239.737 148.901 239.883C146.386 240.077 143.871 240.271 141.357 240.467C151.055 212.452 152.684 185.216 133.574 159.984C126.64 148.127 115.491 141.932 103.152 137.336C102.103 137.107 101.045 136.931 99.9805 136.806C101.063 135.653 102.143 134.502 103.224 133.351C131.029 133.776 148.152 155.069 169.385 167.988C181.565 175.399 192.83 184.379 205.925 190.393Z" fill="#2F1D2E"/>
<path d="M566.98 114.323C605.574 114.342 644.242 115.851 682.742 113.949C719.043 112.156 755.167 106.772 791.369 102.966C768.679 135.22 733.436 139.067 699.073 140.49C638.109 143.016 577.226 147.142 516.235 149.387C460.968 151.421 405.68 154.266 350.38 156.276C353.173 134.923 369.38 128.434 386.9 124.338C420.742 116.426 455.525 116.148 489.94 113.211C503.248 112.076 516.129 110.694 528.463 105.655C534.057 104.836 536.009 109.207 538.3 112.867C545.926 125.048 554.137 126.29 563.226 114.438C564.476 114.382 565.728 114.343 566.98 114.323Z" fill="#7D5F5D"/>
<path d="M532.854 106.777C521.793 116.515 508.675 117.623 494.422 118.606C455.834 121.266 417.242 124.954 378.964 130.425C365.808 132.306 358.405 145.879 350.38 156.275C339.279 170.328 323.344 168.756 308.727 167.293C274.432 163.861 240.417 158.35 209.688 141.026C214.608 135.2 221.355 137.314 227.402 137.279C258.934 137.094 290.479 136.716 321.998 137.389C338.252 137.737 352.99 134.295 367.329 126.865C416.389 101.445 469.556 93.7884 523.889 91.6226C531.983 91.3 541.421 89.8061 540.413 103.024C537.749 103.984 534.904 104.58 532.854 106.777Z" fill="#7E6260"/>
<path d="M532.854 106.777C532.725 100.192 536.257 100.978 540.414 103.023C545.575 111.71 553.806 114.263 563.227 114.436C563.61 123.014 561.174 130.654 551.144 129.093C539.417 127.27 532.743 119.311 532.854 106.777Z" fill="#694E55"/>
<path d="M148.902 239.883C155.311 233.888 163.282 236.469 170.525 236.423C207.62 236.191 244.717 236.423 281.813 236.491C333.936 239.964 386.122 236.941 438.264 238.074C448.246 238.291 458.369 236.324 468.215 239.519C587.322 239.66 706.429 239.802 825.536 239.944C831.817 248.749 843.726 258.491 821.757 262.579C822.708 251.045 815.01 251.359 806.897 251.187C784.992 250.721 763.004 259.056 741.443 253.035C721.908 247.58 702.197 245.514 682.699 248.03C655.251 251.572 627.758 250.24 600.422 250.597C544.54 251.326 488.453 250.94 432.746 246.913C346.107 240.65 259.498 245.77 172.912 243.636C164.727 243.434 156.368 244.587 148.902 239.883Z" fill="#92756A"/>
<path d="M468.215 239.519C410.85 239.564 353.486 239.623 296.121 239.631C291.158 239.632 285.927 240.501 281.812 236.489C328.623 236.243 375.433 235.994 422.241 235.743C437.475 238.079 453.394 232.119 468.215 239.519Z" fill="#694E55"/>
</svg>
