<svg width="394" height="515" viewBox="0 0 394 515" fill="none" xmlns="http://www.w3.org/2000/svg">
<path d="M162.052 402.605C114.281 401.519 66.511 400.373 18.7366 399.405C11.0738 399.249 3.64399 397.173 3.09298 389.1C1.40687 364.409 -3.15372 339.451 5.90702 315.122C17.0569 315.835 27.9751 318.107 38.9653 319.968C88.2325 329.014 137.996 324.414 187.547 325.496C212.689 326.044 237.859 324.367 262.984 326.584C281.114 328.185 282.05 326.902 277.441 308.084C286.381 290.177 295.504 271.896 308.346 256.854C320.663 242.428 339.677 239.466 358.511 239.911C360.364 240.754 362.12 241.779 363.781 242.962C376.307 252.094 385.82 263.638 391.471 278.138C395.503 288.483 396.12 297.89 381.009 296.887C371.907 296.283 371.35 301.782 369.359 307.898C360.753 334.327 349.413 359.519 334.675 383.175C324.899 398.868 311.999 407.65 292.634 406.833C270.549 405.899 248.406 406.359 226.288 406.214C204.868 405.15 183.83 397.287 162.052 402.605Z" fill="#3E5551"/>
<path d="M363.782 242.962C362.377 243.05 360.972 243.137 359.567 243.224C330.205 231.109 311.223 238.739 295.349 268.96C292.145 275.061 290.585 281.883 287.087 287.819C283.898 293.231 280.306 295.643 276.64 288.042C275.815 285.235 275.7 282.394 276.019 279.509C277.677 270.151 279.585 260.879 282.305 251.735C286.773 236.717 284.007 233.643 268.121 235.646C258.697 236.835 249.374 238.861 240.136 241.046C205.839 249.158 173.586 240.355 141.549 229.541C138.524 228.52 135.91 226.69 134.268 223.779C134.689 216.303 135.11 208.827 135.531 201.351C141.505 195.253 149.374 195.492 156.85 195.645C220.052 196.937 283.052 189.075 346.274 191.579C353.163 191.851 360.223 190.433 366.761 193.839C365.768 210.214 364.775 226.588 363.782 242.962Z" fill="#7DA798"/>
<path d="M131.808 159.996C131.498 148.545 131.188 137.093 130.878 125.641C129.689 123.491 130.1 121.71 132.1 120.291C142.447 116.768 152.006 121.688 161.791 123.378C211.578 131.974 262.183 134.885 311.735 145.031C324.539 147.653 334.014 143.1 340.698 132.258C346.665 122.579 352.524 112.815 354.104 101.22C355.975 85.4893 358.692 69.8412 357.992 53.9017C359.006 44.2001 360.515 34.5322 363.456 25.2674C365.342 19.3275 368.976 14.9101 374.498 22.9379C373.118 72.7067 371.786 122.477 370.253 172.241C370.141 175.881 368.571 179.476 367.679 183.091C358.628 173.388 361.724 162.13 362.787 150.463C360.174 166.801 348.24 171.048 334.325 173.513C302.824 179.093 271.018 177.768 239.533 175.894C214.24 174.39 188.994 173.247 163.676 172.656C151.763 172.379 139.161 172.4 131.808 159.996Z" fill="#6B9687"/>
<path d="M132.18 122.096C132.007 123.374 131.574 124.556 130.879 125.643C124.45 88.8109 128.117 51.7234 128.686 14.7659C128.841 4.74033 137.785 0.123841 147.711 0.113456C216.474 0.0401161 285.24 -0.193449 354 0.346542C367.307 0.451035 377.432 6.56409 374.5 22.9397C370.821 21.519 367.763 20.465 367.137 26.4517C366.202 35.3862 364.531 44.2442 363.173 53.1345C352.453 56.6211 343.737 49.507 334.111 47.4191C274.105 34.4041 213.165 30.6152 152.07 27.8082C139.879 27.2481 136.712 32.8583 136.872 43.5542C137.041 54.8915 137.367 66.2448 136.858 77.6066C136.239 92.5453 140.614 107.999 132.18 122.096Z" fill="#ACDDC6"/>
<path d="M131.809 159.997C142.804 165.326 154.311 167.824 166.618 167.318C210.236 165.524 253.575 173.777 297.236 171.104C307.899 170.451 318.78 168.837 329.11 168.775C354.41 168.625 360.413 154.846 360.018 133.698C359.976 131.44 360.012 128.545 365.086 127.931C370.25 146.044 364.313 164.925 367.681 183.092C367.374 186.673 367.068 190.255 366.761 193.838C363.207 196.734 359.216 197.871 354.563 197.939C281.551 199.002 208.541 200.19 135.531 201.35C127.703 188.159 132.094 173.868 131.809 159.997Z" fill="#3E5551"/>
<path d="M234.7 486.519C234.146 515.918 234.146 515.919 207.506 512.773C198.743 485.58 202.435 456.968 198.049 429.264C196.886 421.915 199.287 414.24 196.588 406.927C185.535 401.804 173.456 404.884 162.05 402.603C181.964 395.819 202.303 399.877 222.477 400.516C223.806 400.558 225.021 404.229 226.288 406.213C219.245 415.121 223.452 425.443 222.997 435.083C222.596 443.546 229.835 440.562 234.193 440.445C251.283 439.989 268.484 440.143 285.421 438.165C331.403 432.794 366.948 449.553 393.604 486.692C383.507 501.306 373.37 494.303 363.232 486.749C328.233 457.92 288.231 471.749 249.665 473.486C241.403 473.857 239.011 481.388 234.7 486.519Z" fill="#522F3A"/>
<path d="M134.267 223.779C150.062 227.733 165.952 231.351 181.635 235.713C211.417 243.996 240.008 236.223 268.705 229.813C276.331 228.109 283.416 226.88 289.941 232.854C298.001 240.233 289.261 245.055 287.59 250.987C284.713 261.194 281.985 271.443 279.195 281.675C260.318 289.051 242.321 279.544 223.977 278.141C202.743 276.519 182.366 272.882 161.199 281.027C150.038 285.323 136.608 285.027 124.23 281.404C125.429 261.821 129.948 242.818 134.267 223.779Z" fill="#5E8276"/>
<path d="M196.588 406.928C205.882 441.627 209.362 476.925 207.505 512.774C197.569 508.471 201.774 496.845 195.927 490.424C190.018 480.197 181.249 477.372 169.466 476.296C143.844 473.957 117.907 474.872 92.5793 470.231C71.7197 466.408 56.7808 478.586 40.1779 486.755C28.4939 500.308 15.7637 501.642 5.61914 490.377C30.8933 450.723 66.9618 435.436 113.414 440.401C134.589 442.664 156.25 440.12 177.515 441.88C193.97 443.242 198.861 437.214 196.554 422.003C195.81 417.092 196.535 411.959 196.588 406.928Z" fill="#6B464A"/>
<path d="M13.3425 311.706C13.2425 308.07 13.1426 304.435 13.0439 300.8C16.6245 276.664 28.6539 255.713 49.8543 246.087C72.3741 235.862 96.8225 239.382 115.992 258.713C122.463 273.894 115.127 289.033 115.853 304.196C115.073 307.969 112.643 310.399 109.402 312.187C77.3577 319.432 45.3169 321.737 13.3425 311.706Z" fill="#384A44"/>
<path d="M124.232 281.403C163.933 272.624 203.636 264.921 244.395 275.172C255.82 278.045 267.59 279.542 279.2 281.672C279.156 284.06 279.116 286.446 279.075 288.831C278.156 293.395 280.681 298.15 278.307 302.646C275.873 312.156 268.241 313.101 260.421 313.156C218.648 313.45 176.871 313.669 135.102 312.977C128.693 312.872 120.359 313.789 119.344 303.611C120.973 296.208 122.603 288.806 124.232 281.403Z" fill="#456159"/>
<path d="M13.3419 311.705C46.482 311.208 79.6734 312.162 112.691 308.207C155.027 311.916 197.451 309.004 239.824 309.921C244.891 310.03 249.972 309.686 255.025 310.1C261.959 310.668 261.5 314.635 258.742 319.135C255.496 324.429 250.514 326.737 244.356 326.788C174.869 327.364 105.326 331.447 35.9727 323.502C25.4264 322.59 14.366 323.523 5.90625 315.122C7.1426 311.278 10.1014 311.186 13.3419 311.705Z" fill="#A5CBBF"/>
<path d="M35.9727 323.502C63.0471 323.805 90.0776 324.587 117.147 325.835C159.208 327.773 201.521 324.167 243.731 323.032C250.272 322.856 253.928 319.191 258.093 311.732C216.696 311.732 176.698 311.757 136.701 311.712C128.547 311.703 120.187 312.835 112.691 308.208C113.745 306.871 114.798 305.534 115.851 304.197C116.988 303.842 118.152 303.646 119.343 303.611C122.876 310.03 129.102 308.334 134.507 308.325C176.726 308.255 218.945 307.944 261.165 307.878C269.167 307.866 276.919 308.276 275.951 296.721C282.961 296.324 281.808 300.098 279.823 304.298C280.917 306.418 281.563 309.902 283.177 310.43C292.177 313.375 289.886 318.948 288.19 325.56C286.094 333.738 280.879 334.9 273.966 334.179C212.086 327.723 149.99 332.632 88.026 330.634C70.4458 330.066 52.9058 328.925 35.9727 323.502Z" fill="#7DA798"/>
<path d="M115.991 258.713C105.125 256.181 97.1684 247.379 84.8899 246.808C46.598 245.03 32.6541 254.899 13.0432 300.799C0.751064 261.735 18.8299 235.678 59.2096 235.468C81.02 235.354 103.906 234.314 115.991 258.713Z" fill="#81AB98"/>
<path d="M279.824 304.297C279.38 301.337 279.178 298.253 275.951 296.718C275.71 293.579 276.463 290.834 279.079 288.83C286.773 287.495 285.754 280.289 287.228 275.488C293.56 254.876 308.905 241.427 325.747 231.03C339.049 222.818 350.212 233.528 359.567 243.224C331.198 245.658 306.171 252.848 296.775 284.523C294.201 293.197 287.629 299.543 279.824 304.297Z" fill="#5E8276"/>
<path d="M40.1797 486.756C50.5378 466.803 68.7819 463.429 88.5434 464.642C120.125 466.581 151.63 470.145 183.23 471.278C198.942 471.842 196.14 481.156 195.928 490.426C145.572 484.953 95.2004 484.369 44.7839 489.713C43.3697 489.862 41.7198 487.791 40.1797 486.756Z" fill="#FBFBFA"/>
<path d="M234.701 486.52C231.668 474.138 232.639 466.86 249.284 467.228C270.642 467.7 292.095 464.812 313.476 463.006C334.821 461.201 351.682 468.284 363.234 486.748C353.688 494.526 344.293 485.813 334.633 486.177C301.365 487.434 268.017 486.574 234.701 486.52Z" fill="#FCFBFA"/>
<path d="M131.758 76.4501C131.665 61.2459 131.663 46.0406 131.446 30.8385C131.316 21.7488 134.134 19.9056 144.043 20.9207C184.107 25.0245 224.415 26.7288 264.501 30.6509C298.231 33.9505 332.286 36.8991 363.174 53.1352C365.108 69.8314 361.349 86.0597 359.11 102.413C353.525 107.87 346.584 108.115 339.587 106.968C277.188 96.738 213.933 94.116 151.332 85.7046C143.786 84.6901 136.004 84.3598 131.758 76.4501Z" fill="#97C3AF"/>
<path d="M131.758 76.4502C157.905 83.4344 184.979 84.4099 211.62 86.9204C255.265 91.0326 298.91 94.5146 342.127 102.18C347.631 103.156 353.445 102.382 359.112 102.415C357.112 119.971 347.498 133.635 336.378 146.455C330.087 153.709 321.524 153.145 313.533 151.246C265.311 139.786 215.569 138.625 167.05 129.3C155.393 127.06 143.796 124.503 132.176 122.093C132.04 106.881 131.899 91.6653 131.758 76.4502Z" fill="#83AF9D"/>
</svg>
