<svg width="696" height="390" viewBox="0 0 696 390" fill="none" xmlns="http://www.w3.org/2000/svg">
<path d="M115.054 388.824L0.944927 24.8618C-1.00639 18.6413 0.10933 11.7253 3.87673 6.6688C7.64413 1.61712 13.5078 -0.826524 19.2941 0.250459L284.084 49.2508C297.154 51.6704 307.843 62.2857 311.586 76.5666L393.32 381.517L115.054 388.824Z" fill="#E8E3DD"/>
<path d="M10.4552 55.196C69.8594 47.8503 141.764 54.829 215.407 78.2474C255.568 91.0215 292.474 107.495 324.932 126.359L311.586 76.5619C307.838 62.281 297.154 51.6657 284.084 49.2461L19.2941 0.250459C13.5078 -0.826524 7.64413 1.61712 3.87673 6.6688C0.10933 11.7253 -1.00639 18.6365 0.944927 24.8617L10.4552 55.196Z" fill="#F9EEE4"/>
<path d="M8.05951 2.69336C6.50426 3.7462 5.07457 5.0551 3.87673 6.66333C0.10933 11.7198 -1.00639 18.6307 0.944927 24.856L115.054 388.819L124.776 388.563L8.05951 2.69336Z" fill="#A09082"/>
<path d="M695.2 377.959L386.881 360.592L120.338 351.734V389.419H695.2V377.959Z" fill="#E8E3DD"/>
<path d="M30.2676 20.9121L128.476 351.734L374.004 354.149L295.517 72.4286L30.2676 20.9121Z" fill="#E1FFFB"/>
<path d="M420.691 375.543L118.014 370.25L116 389.766H420.691V375.543Z" fill="#A09082"/>
<path d="M36.0537 30.4648L129.577 345.509L363.388 347.808L289.798 77.2293L36.0537 30.4648Z" fill="#B0EAE5"/>
<path d="M328.12 219.729L246.816 345.296L363.388 347.808L328.12 219.729Z" fill="#9DD6CF"/>
<path d="M213.204 63.0195L96.6807 237.032L128.477 351.733L129.578 345.508L289.881 77.3536L213.204 63.0195Z" fill="#9DD6CF"/>
<path d="M210.186 115.088L236.751 230.996L314.031 233.411L288.267 120.724L210.186 115.088Z" fill="#E6FFFD"/>
<path d="M102.317 173.848L137.137 295.388L240.779 297.802L212.601 181.894L102.317 173.848Z" fill="#E6FFFD"/>
<path d="M211.987 326.872L196.695 325.775L199.526 339.568L214.822 340.67L211.987 326.872Z" fill="#F2AD49"/>
<path d="M235.538 324.692L219.232 323.359L222.256 340.137L238.562 341.475L235.538 324.692Z" fill="#C7FFE6"/>
<path d="M118.956 185.637L133.369 246.378L167.584 245.962L155.495 187.955L118.956 185.637Z" fill="#CCEAE7"/>
<path d="M225.883 273.254H181.81L185.432 291.365H229.506L225.883 273.254Z" fill="#CCEAE7"/>
<path d="M289.421 168.188L231.92 164.59L246.265 223.172L303.766 226.77L289.421 168.188Z" fill="#CCEAE7"/>
<path d="M248.825 381.314H165.508V389.162H248.825V381.314Z" fill="#6D5E52"/>
<path d="M197.366 39.0032L185.479 36.9023L188.889 47.1893L200.781 49.2901L197.366 39.0032Z" fill="#C4B6A7"/>
</svg>
