<svg width="973" height="973" viewBox="0 0 973 973" fill="none" xmlns="http://www.w3.org/2000/svg">
<path d="M118.367 731.363C124.593 733.986 131.326 735.275 137.497 737.964C140.959 742.669 144.501 747.41 146.936 752.749C139.254 749.285 131.349 746.498 123.421 743.66C121.833 739.521 120.149 735.422 118.367 731.363Z" fill="#6B381F"/>
<path d="M412.372 840.336C418.751 842.724 425.358 845.065 431.349 848.333C434.286 853.711 436.305 859.554 439.136 864.994C433.394 863.386 426.959 861.901 421.641 859.206C419.818 856.499 418.313 853.5 416.719 850.648C415.326 847.123 413.399 844.043 412.372 840.336Z" fill="#6B381F"/>
<path d="M707.487 161.756L739.042 170.531C730.501 175.479 721.623 180.303 713.386 185.735C710.48 184.522 706.798 183.899 703.713 183.024C696.563 181.025 689.444 178.922 682.354 176.715C684.782 172.833 702.333 164.093 707.487 161.756Z" fill="#EDEEE0"/>
<path d="M104.127 575.886C104.16 568.506 103.104 543.762 104.422 538.246C110.315 540.417 116.531 541.744 122.51 543.71C130.479 546.33 138.687 549.938 146.865 551.728C147.709 564.938 147.211 578.473 147.275 591.721C133.048 586.095 118.505 581.126 104.127 575.886Z" fill="#BA3D39"/>
<path d="M146.865 551.727C155.452 556.693 170.438 560.884 180.193 564.377L180.419 564.294C190.227 567.717 200.131 571.502 210.14 574.267C210.07 586.05 210.213 597.884 209.848 609.66C209.788 609.792 209.717 609.919 209.669 610.055C209.213 611.344 209.754 612.657 208.72 613.572C206.809 612.734 204.912 611.892 202.952 611.174C195.367 608.483 187.801 605.695 180.109 603.323C169.085 599.698 158.222 595.572 147.275 591.72C147.211 578.472 147.709 564.937 146.865 551.727Z" fill="#D8A253"/>
<path d="M180.419 564.295C190.228 567.718 200.132 571.503 210.14 574.268C210.07 586.051 210.213 597.885 209.848 609.661C209.789 609.793 209.717 609.92 209.669 610.056C209.213 611.345 209.754 612.658 208.72 613.573C206.809 612.735 204.912 611.893 202.952 611.175C195.367 608.484 187.801 605.696 180.109 603.324C180.209 590.343 180.237 577.361 180.194 564.379L180.419 564.295Z" fill="#C27C46"/>
<path d="M104.422 538.247C113.696 535.487 124.573 534.847 134.182 533.553C155.914 530.627 177.673 527.924 199.459 525.445L280.571 515.213C293.609 513.585 306.749 511.586 319.839 510.529L320.535 511.219C316.406 514.547 290.617 526.392 284.746 528.24C279.894 534.31 225.107 552.619 215.159 555.25C207.663 557.233 185.941 561.316 180.419 564.295L180.193 564.379C170.438 560.885 155.452 556.695 146.865 551.728C138.687 549.939 130.479 546.33 122.51 543.71C116.531 541.744 110.315 540.418 104.422 538.247Z" fill="#E6524E"/>
<path d="M284.746 528.24C279.895 534.31 225.107 552.619 215.16 555.25C207.663 557.233 185.941 561.316 180.419 564.295L180.193 564.379C170.438 560.885 155.452 556.695 146.865 551.728C152.145 547.696 270.51 529.381 284.746 528.24Z" fill="#FCDBAA"/>
<path d="M202.952 611.174C204.912 611.892 206.809 612.734 208.719 613.572C209.754 612.657 209.212 611.344 209.668 610.055C209.717 609.919 209.788 609.792 209.848 609.66C209.901 611.323 209.549 612.577 210.846 613.8C213.009 615.842 218.286 616.276 221.151 617.324C227.455 619.603 234.094 621.607 240.231 624.276C216.929 656.065 194.075 688.171 171.667 720.595C165.193 728.553 158.566 737.403 153.064 746.07C151.573 748.015 149.308 752.002 146.936 752.749C144.501 747.41 140.959 742.669 137.497 737.964C131.326 735.275 124.593 733.986 118.367 731.363C120.596 726.74 124.5 722.23 127.509 718.015L144.352 694.277L202.952 611.174Z" fill="#C27C46"/>
<path d="M221.152 617.324C227.456 619.604 234.095 621.608 240.231 624.277C216.93 656.065 194.075 688.171 171.668 720.595C165.193 728.554 158.567 737.403 153.064 746.071C151.573 748.016 149.308 752.003 146.936 752.75C144.502 747.411 140.96 742.669 137.497 737.965C140.86 734.269 143.687 729.374 146.494 725.241L163.056 700.955C182.414 673.091 202.23 645.486 221.152 617.324Z" fill="#96552C"/>
<path d="M720.057 441.1C723.766 434.188 729.07 426.226 734.265 420.297C743.194 449.144 753.232 477.588 763 506.156L804.447 626.994C805.38 630.332 806.747 633.448 808.115 636.626C800.904 635.958 793.705 634.81 786.529 633.824C780.471 633.064 774.424 632.22 768.39 631.292C768.439 627.703 764.732 619.986 763.288 616.285C755.525 590.593 745.783 565.337 737.095 539.934C727.777 512.685 719.339 484.773 708.603 458.061C708.63 455.903 718.024 443.942 720.057 441.1Z" fill="#6B381F"/>
<path d="M720.057 441.102C723.275 445.808 725.267 454.577 727.258 460.223C734.046 479.592 740.711 499.003 747.253 518.457L770.294 585.245C774.074 596.007 777.728 606.812 781.255 617.66C783.015 622.98 785.138 628.407 786.529 633.825C780.471 633.065 774.424 632.221 768.39 631.292C768.439 627.704 764.732 619.987 763.288 616.286C755.525 590.594 745.783 565.338 737.095 539.935C727.777 512.686 719.339 484.774 708.603 458.061C708.63 455.904 718.024 443.944 720.057 441.102Z" fill="#96552C"/>
<path d="M330.753 504.391C334.24 497.54 339.35 490.931 343.573 484.487C353.532 469.134 363.696 453.918 374.063 438.838C406.638 390.113 439.65 341.687 473.098 293.558C501.588 251.327 530.469 209.365 559.742 167.672L583.753 132.762C587.29 127.622 590.56 121.849 594.694 117.174C597.117 114.435 599.912 112.561 603.653 112.403C608.105 112.214 612.651 114.721 615.863 117.636C621.184 124.171 624.402 130.547 623.56 139.158C619.683 138.145 615.799 137.158 611.908 136.197C607.405 138.009 603.163 140.592 598.633 142.246C595.13 144.181 591.55 145.922 588.727 148.817C587.99 153.136 586.539 156.617 584.673 160.547C579.631 166.968 575.195 173.993 570.569 180.723C561.135 194.301 551.815 207.957 542.607 221.69C514.839 261.766 487.321 302.012 460.052 342.428L402.212 428.031L378.509 462.706C374.634 468.437 370.197 474.212 366.917 480.295C362.953 484.003 335.296 504.249 331.204 504.413C331.054 504.419 330.904 504.398 330.753 504.391Z" fill="#C27C46"/>
<path d="M615.862 117.637C621.184 124.171 624.402 130.547 623.56 139.159C619.683 138.145 615.799 137.158 611.908 136.198C607.405 138.01 603.162 140.592 598.633 142.247C603.983 133.873 609.832 125.537 615.862 117.637Z" fill="#96552C"/>
<path d="M611.908 136.197C615.799 137.158 619.683 138.144 623.561 139.158C629.471 140.603 643.631 142.796 648.239 145.263C643.214 147.497 622.853 155.532 620.587 159.231C619.976 166.532 609.18 190.245 605.847 197.894C604.364 201.299 601.966 205.35 601.258 208.973C598.56 213.862 596.428 219.16 594.098 224.238C589.006 235.333 583.796 247.022 577.748 257.608C569.8 273.382 561.377 288.898 552.478 304.156C543.58 319.413 534.223 334.384 524.408 349.069C470.849 429.453 406.353 498.684 317.228 539.517C305.337 544.965 293.407 550.11 281.018 554.335C264.969 559.806 248.423 564.757 231.933 568.748C227.383 569.849 213.18 571.946 210.14 574.268C200.132 571.503 190.228 567.718 180.419 564.294C185.941 561.315 207.663 557.233 215.16 555.249C225.108 552.618 279.895 534.309 284.746 528.239C290.618 526.391 316.407 514.546 320.536 511.218L319.839 510.528C320.282 510.452 320.723 510.366 321.167 510.297C321.491 510.246 321.818 510.223 322.142 510.169C325.798 509.556 328.611 507.279 330.753 504.39C330.904 504.398 331.054 504.419 331.204 504.413C335.296 504.249 362.953 484.003 366.917 480.294C370.197 474.212 374.634 468.437 378.509 462.706L402.211 428.031L460.052 342.428C487.321 302.011 514.839 261.766 542.607 221.69C551.815 207.957 561.135 194.301 570.569 180.722C575.195 173.993 579.631 166.967 584.672 160.547C586.539 156.617 587.99 153.135 588.727 148.817C591.55 145.922 595.13 144.181 598.633 142.246C603.163 140.592 607.405 138.009 611.908 136.197Z" fill="#D36F70"/>
<path d="M611.908 136.197C615.799 137.158 619.683 138.144 623.56 139.158C629.471 140.603 643.631 142.796 648.239 145.263C643.213 147.497 622.853 155.532 620.587 159.231C619.976 166.532 609.18 190.245 605.847 197.894C604.363 201.299 601.966 205.35 601.257 208.973C598.56 213.862 596.428 219.16 594.098 224.238C589.006 235.333 583.796 247.022 577.748 257.608L577.316 257.541C577.49 254.667 589.849 231.419 592.103 226.623C598.675 212.521 604.925 198.277 610.852 183.891C612.881 178.861 615.383 173.671 616.788 168.456C617.563 165.585 618.704 162.798 619.733 160.008C619.296 159.669 592.216 151.556 591.548 151.553C590.518 151.55 589.752 151.795 589 152.546C587.404 154.139 586.864 157.866 586.086 159.97C584.394 164.546 576.657 187.467 574.834 189.2C574.667 189.359 574.489 189.506 574.316 189.658C577.669 179.902 581.956 170.531 584.673 160.547C586.539 156.617 587.99 153.135 588.727 148.817C591.55 145.923 595.13 144.181 598.633 142.246C603.163 140.592 607.405 138.009 611.908 136.197Z" fill="#E6524E"/>
<path d="M366.917 480.294C370.197 474.212 374.634 468.437 378.508 462.706L402.211 428.031L460.051 342.428C487.321 302.011 514.839 261.766 542.606 221.69C551.814 207.957 561.135 194.301 570.569 180.722C575.195 173.993 579.631 166.967 584.672 160.547C581.956 170.531 577.668 179.901 574.316 189.658C568.388 203.312 562.842 217.823 555.097 230.569C551.971 237.652 548.146 244.489 544.579 251.365C535.093 269.65 525.086 287.326 514.454 304.962C507.34 316.763 500.569 328.867 492.543 340.078C474.272 371.52 435.535 418.516 408.776 444.044C399.004 454.915 379.192 472.67 366.917 480.294Z" fill="#96552C"/>
<path d="M483.191 334.757C489.117 327.884 494.016 319.128 499.118 311.592L545.01 244.325C547.205 241.16 551.49 233.14 554.119 230.899C554.381 230.676 554.771 230.679 555.097 230.568C551.971 237.651 548.146 244.489 544.579 251.364C535.093 269.65 525.086 287.325 514.454 304.962C507.34 316.763 500.569 328.867 492.543 340.077C489.366 338.409 486.249 336.636 483.191 334.757Z" fill="white"/>
<path d="M408.776 444.045C408.871 443.147 409.07 442.767 409.561 441.994C416.325 431.365 423.777 421.063 430.9 410.667L463.456 362.918C468.081 356.177 477.787 339.316 483.192 334.758C486.25 336.637 489.367 338.41 492.544 340.078C474.272 371.52 435.536 418.517 408.776 444.045Z" fill="#6B381F"/>
<path d="M648.239 145.264C658.178 147.912 668.006 150.825 677.865 153.746C687.757 156.352 697.631 159.022 707.487 161.756C702.333 164.094 684.782 172.834 682.355 176.715L682.16 177.883L681.527 178.153C674.661 194.513 668.386 211.05 661.061 227.232C614.641 329.785 550.694 437.747 462.007 509.134C458.013 512.362 453.961 515.516 449.852 518.595C445.742 521.673 441.577 524.676 437.357 527.602C433.136 530.527 428.863 533.374 424.539 536.143C420.214 538.911 415.839 541.599 411.415 544.206C406.991 546.813 402.52 549.339 398.004 551.782C393.487 554.225 388.926 556.583 384.322 558.858C379.719 561.134 375.075 563.323 370.39 565.427C365.706 567.531 360.984 569.549 356.226 571.479C346.936 575.214 337.515 578.584 327.964 581.588C318.412 584.591 308.759 587.22 299.003 589.473C294.228 590.611 275.397 594.165 272.6 596.262L272.308 596.217C268.855 593.91 248.252 587.498 242.997 585.614L242.08 586.022C237.428 584.512 232.869 582.553 228.247 580.924C222.277 578.82 215.817 577.043 210.14 574.269C213.179 571.947 227.383 569.85 231.932 568.749C248.422 564.758 264.969 559.807 281.018 554.336C293.406 550.111 305.337 544.966 317.228 539.518C406.352 498.685 470.848 429.454 524.407 349.069C534.223 334.385 543.58 319.414 552.478 304.157C561.376 288.899 569.799 273.383 577.747 257.609C583.795 247.023 589.005 235.334 594.097 224.239C596.427 219.161 598.56 213.863 601.257 208.974C601.966 205.351 604.363 201.3 605.846 197.894C609.18 190.245 619.976 166.532 620.587 159.232C622.853 155.532 643.213 147.497 648.239 145.264Z" fill="#FCDBAA"/>
<path d="M648.239 145.264C658.178 147.912 668.006 150.825 677.865 153.746C687.756 156.352 697.631 159.022 707.487 161.756C702.333 164.094 684.782 172.834 682.354 176.715L682.16 177.883L681.527 178.153L681.563 176.968C676.543 174.439 659.227 170.405 652.869 168.657C649.433 176.08 637.471 206.795 634.06 210.828C633.189 207.6 650.096 176.039 651.289 168.685C642.872 168.248 633.242 163.254 624.992 161.217C624.004 160.972 622.577 160.53 621.684 161.188C619.639 162.694 605.184 206.682 601.257 208.973C601.966 205.35 604.363 201.299 605.846 197.894C609.18 190.245 619.976 166.532 620.587 159.232C622.852 155.532 643.213 147.497 648.239 145.264Z" fill="#F8D18F"/>
<path d="M648.239 145.264C658.178 147.912 668.006 150.825 677.865 153.746C671.754 159.779 659.616 163.66 652.058 168.489C646.064 166.792 624.743 161.602 620.587 159.231C622.852 155.532 643.213 147.497 648.239 145.264Z" fill="#EDEEE0"/>
<path d="M652.869 168.656C659.227 170.405 676.543 174.438 681.563 176.968L681.527 178.152C674.66 194.513 668.386 211.05 661.06 227.232C614.641 329.785 550.693 437.747 462.007 509.133C458.013 512.361 453.961 515.515 449.852 518.595C445.742 521.673 441.577 524.675 437.357 527.601C433.136 530.527 428.863 533.374 424.539 536.143C420.213 538.911 415.839 541.599 411.415 544.206C406.99 546.813 402.52 549.338 398.004 551.782C393.486 554.225 388.926 556.583 384.322 558.858C379.718 561.133 375.074 563.323 370.39 565.427C365.705 567.531 360.984 569.548 356.225 571.479C346.936 575.214 337.515 578.584 327.964 581.588C318.412 584.591 308.758 587.219 299.002 589.472C294.228 590.611 275.397 594.164 272.599 596.262L272.308 596.217C268.855 593.91 248.252 587.498 242.997 585.613C251.978 582.884 261.579 581.51 270.693 579.06C280.912 576.248 291.024 573.098 301.031 569.609C311.039 566.12 320.918 562.301 330.67 558.151C451.876 506.327 536.426 399.777 597.167 286.228C610.25 261.771 623.735 236.584 634.059 210.828C637.471 206.794 649.433 176.079 652.869 168.656Z" fill="#D36F70"/>
<path d="M865.476 191.805C869.815 196.606 872.098 202.475 871.767 208.995C871.555 213.161 870.186 216.757 868.169 220.343C863.786 228.131 858.465 235.547 853.479 242.96L828.326 280.329L734.265 420.297C729.07 426.226 723.766 434.188 720.057 441.1C718.024 443.943 708.63 455.903 708.602 458.061C719.339 484.773 727.777 512.685 737.095 539.934C745.783 565.336 755.525 590.593 763.288 616.285C764.732 619.986 768.439 627.703 768.39 631.292C774.424 632.22 780.47 633.064 786.529 633.824C793.705 634.81 800.904 635.958 808.114 636.626C813.322 637.341 818.598 638.267 823.835 638.667C823.299 642.148 822.706 645.63 822.327 649.132C821.693 653.999 821.023 658.862 820.316 663.719C763.168 659.436 705.755 658.466 648.545 654.87L612.824 652.654C603.303 652.052 593.522 651.594 584.122 649.903C575.862 664.132 566.327 677.827 557.475 691.709L485.399 803.253L465.572 833.932C462.155 839.188 457.818 844.702 455.265 850.383L454.861 850.879C449.058 858.124 449.103 862.593 439.136 864.994C436.304 859.553 434.286 853.711 431.349 848.333C433.753 846.818 494.843 751.301 501.214 741.152C536.905 684.947 573.328 629.22 610.483 573.971L755.44 355.985L830.53 244.206L852.293 212.213C856.794 205.606 861.846 198.931 865.476 191.805Z" fill="#96552C"/>
<path d="M601.516 621.724C603.226 618.951 608.443 609.62 611.024 608.471C628.514 611.808 646.145 613.944 663.778 616.345C698.615 621.087 733.731 625.385 768.39 631.291C774.424 632.22 780.471 633.064 786.529 633.824C793.705 634.81 800.904 635.958 808.115 636.626C813.323 637.341 818.598 638.267 823.836 638.667C823.3 642.148 822.706 645.63 822.328 649.132C810.008 647.272 797.56 646.117 785.205 644.461C742.083 638.587 698.91 633.13 655.683 628.091C637.703 625.897 619.382 624.524 601.516 621.724Z" fill="#C27C46"/>
<path d="M611.024 608.471C611.641 606.242 634.938 571.14 638.078 566.623C645.244 568.744 652.194 571.819 659.14 574.583C670.322 579.017 681.48 583.512 692.613 588.066L763.288 616.285C764.732 619.986 768.439 627.703 768.39 631.291C733.731 625.385 698.615 621.087 663.778 616.345C646.145 613.944 628.515 611.808 611.024 608.471Z" fill="white"/>
<path d="M638.078 566.623C646.655 552.42 656.021 538.841 665.132 524.987C674.121 511.319 682.777 497.448 691.826 483.816C697.194 475.727 702.307 465.067 708.603 458.061C719.339 484.773 727.778 512.685 737.095 539.934C745.783 565.336 755.525 590.593 763.288 616.285L692.613 588.066C681.48 583.512 670.322 579.017 659.14 574.583C652.194 571.819 645.244 568.744 638.078 566.623Z" fill="white"/>
<path d="M802.745 188.404C812.39 191.129 822.02 193.988 831.747 196.413C834.828 196.984 837.935 197.477 840.936 198.4C844.549 194.577 847.313 189.781 852.846 188.496C857.443 187.427 861.666 189.437 865.477 191.804C861.847 198.931 856.795 205.606 852.293 212.213L830.531 244.206L755.441 355.985L610.484 573.971C573.329 629.22 536.906 684.947 501.214 741.152C494.844 751.301 433.753 846.818 431.349 848.332C425.358 845.064 418.751 842.723 412.372 840.335C425.464 819.787 438.734 799.354 452.18 779.035L488.883 722.304C501.453 703.287 514.442 684.539 526.773 665.365C493.645 668.725 460.225 670.325 427.018 672.824C419.067 673.422 394.829 674.437 388.798 676.71C382.296 676.177 371.612 670.992 364.934 668.774C365.413 655.338 365.751 641.348 365.139 627.923L366.277 626.639C373.11 623.299 389.211 621.948 397.575 619.886C416.855 615.901 436.338 608.416 454.395 600.693C586.279 544.284 677.022 409.877 738.759 285.674C751.076 260.892 763.886 235.76 774.203 210.069C775.505 208.443 776.308 205.785 777.025 203.834C783.927 197.248 794.689 193.585 802.745 188.404Z" fill="#C27C46"/>
<path d="M805.729 212.076C812.402 215.134 820.277 216.909 827.316 219.066C821.969 226.396 817.489 234.303 812.125 241.63C806.922 240.603 801.783 238.931 796.769 237.227C799.543 228.814 802.449 220.304 805.729 212.076Z" fill="#BA3D39"/>
<path d="M796.768 237.227C801.782 238.931 806.922 240.603 812.124 241.63C800.08 258.339 788.842 275.676 777.22 292.685C774.75 296.3 768.633 306.521 766.382 308.841C765.992 309.243 765.608 309.448 765.089 309.593C767.105 303.649 770.606 297.687 773.257 291.944C781.517 274.049 790.791 256.035 796.768 237.227Z" fill="white"/>
<path d="M552.688 588.395C561.544 587.306 567.702 587.729 576.422 589.881C572.904 595.096 569.452 600.354 566.067 605.655L564.834 607.957C552.918 608.724 541.008 609.99 529.115 611.052C523.406 611.563 517.276 612.569 511.567 612.302C520.262 606.487 530.545 601.928 539.682 596.739L552.688 588.395Z" fill="white"/>
<path d="M552.688 588.395C561.544 587.306 567.702 587.729 576.422 589.881C572.904 595.096 569.452 600.354 566.067 605.655C557.355 602.332 548.449 599.825 539.682 596.74L552.688 588.395Z" fill="white"/>
<path d="M802.744 188.404C812.39 191.129 822.02 193.989 831.746 196.414C834.828 196.985 837.935 197.478 840.935 198.4C840.224 201.803 830.044 216.139 827.316 219.066C820.277 216.909 812.402 215.134 805.729 212.077L804.781 211.816C796.007 208.323 786.128 206.465 777.024 203.835C783.927 197.249 794.688 193.586 802.744 188.404Z" fill="#F8D18F"/>
<path d="M831.746 196.414C834.828 196.985 837.935 197.478 840.935 198.401C840.224 201.804 830.044 216.139 827.316 219.067C820.277 216.91 812.402 215.135 805.729 212.077L804.781 211.817C806.534 210.55 808.105 208.799 809.817 207.431C816.574 202.028 823.403 198.666 831.746 196.414Z" fill="#E6524E"/>
<path d="M387.696 635.726C406.692 634.683 425.763 632.806 444.757 631.444C481.417 628.813 518.124 626.346 554.743 623.193C552.472 628.399 547.879 633.721 544.699 638.546L533.195 656.035C531.202 659.056 529.165 662.669 526.773 665.367C493.645 668.727 460.225 670.326 427.018 672.826C419.067 673.423 394.829 674.438 388.798 676.711C382.296 676.178 371.612 670.993 364.934 668.775C365.413 655.339 365.751 641.35 365.139 627.924L366.277 626.64C373.609 628.631 381.547 631.11 387.696 635.726Z" fill="#96552C"/>
<path d="M366.277 626.641C373.609 628.631 381.547 631.11 387.695 635.726C387.244 649.41 387.611 663.071 388.798 676.711C382.296 676.178 371.612 670.993 364.934 668.775C365.413 655.34 365.751 641.35 365.139 627.924L366.277 626.641Z" fill="#BA3D39"/>
<path d="M603.752 548.5C594.615 562.247 585.791 576.305 576.422 589.882C567.702 587.73 561.544 587.307 552.688 588.396C563.409 580.166 574.359 572.263 584.946 563.852C591.238 558.854 597.193 553.108 603.752 548.5Z" fill="white"/>
<path d="M303.404 606.89L303.937 606.227C311.516 610.065 324.406 613.999 332.896 616.073C343.758 619.713 354.505 623.663 365.139 627.924C365.751 641.349 365.412 655.339 364.933 668.774C354.121 664.908 343.34 660.957 332.59 656.923C324.451 654.366 316.475 651.253 308.477 648.283C306.728 647.548 304.93 646.915 303.153 646.25C303.19 633.191 303.972 619.921 303.404 606.89Z" fill="#D8A253"/>
<path d="M303.404 606.89L303.937 606.227C311.516 610.065 324.406 613.999 332.896 616.073C333.373 629.634 332.956 643.357 332.59 656.923C324.451 654.366 316.475 651.253 308.477 648.283C306.728 647.548 304.93 646.915 303.153 646.25C303.19 633.191 303.972 619.921 303.404 606.89Z" fill="#C27C46"/>
<path d="M210.14 574.268C215.817 577.042 222.277 578.819 228.247 580.923C232.869 582.552 237.428 584.511 242.08 586.021L242.997 585.613C248.252 587.497 268.855 593.909 272.308 596.216L272.6 596.261C279.386 600.178 295.103 603.903 303.404 606.89C303.971 619.921 303.189 633.191 303.153 646.25C292.709 642.664 282.335 638.806 271.833 635.397C262.805 631.23 250.774 627.978 241.212 624.646L240.23 624.276C234.094 621.607 227.455 619.603 221.151 617.324C218.286 616.275 213.009 615.842 210.846 613.8C209.55 612.578 209.901 611.323 209.848 609.66C210.213 597.885 210.069 586.051 210.14 574.268Z" fill="#D8A253"/>
<path d="M242.997 585.613C248.252 587.497 268.855 593.909 272.308 596.217C272.249 609.225 272.665 622.421 271.833 635.398C262.805 631.23 250.774 627.979 241.212 624.646C242.627 611.919 240.415 598.633 242.079 586.022L242.997 585.613Z" fill="#C27C46"/>
<path d="M210.139 574.268C215.817 577.042 222.276 578.819 228.247 580.923C232.869 582.552 237.428 584.511 242.079 586.021C240.415 598.632 242.627 611.918 241.212 624.646L240.23 624.276C234.094 621.607 227.455 619.603 221.151 617.324C218.286 616.275 213.009 615.842 210.846 613.8C209.55 612.578 209.901 611.323 209.848 609.66C210.213 597.885 210.069 586.051 210.139 574.268Z" fill="#D8A253"/>
<path d="M739.042 170.531C748.671 173.523 758.572 175.63 768.185 178.647C779.768 181.63 791.257 185.07 802.744 188.404C794.688 193.586 783.927 197.249 777.024 203.835C776.308 205.786 775.504 208.444 774.202 210.07C763.885 235.761 751.076 260.893 738.758 285.675C677.021 409.878 586.278 544.285 454.394 600.694C436.337 608.418 416.855 615.902 397.574 619.887C389.211 621.949 373.11 623.299 366.277 626.64L365.138 627.924C354.505 623.663 343.757 619.713 332.895 616.073C324.405 614 311.516 610.066 303.937 606.227L303.404 606.89C295.103 603.904 279.386 600.178 272.6 596.262C275.397 594.164 294.228 590.611 299.003 589.472C308.759 587.219 318.412 584.591 327.964 581.588C337.515 578.584 346.936 575.214 356.226 571.478C360.984 569.548 365.706 567.531 370.39 565.427C375.075 563.323 379.718 561.133 384.322 558.858C388.926 556.583 393.487 554.225 398.004 551.782C402.52 549.339 406.991 546.813 411.415 544.206C415.839 541.598 420.214 538.911 424.539 536.143C428.864 533.374 433.136 530.527 437.357 527.601C441.577 524.675 445.742 521.673 449.852 518.594C453.961 515.515 458.013 512.361 462.007 509.133C550.693 437.747 614.641 329.785 661.061 227.232C668.386 211.05 674.661 194.513 681.527 178.153L682.16 177.883L682.355 176.715C689.444 178.922 696.563 181.025 703.713 183.024C706.798 183.899 710.48 184.522 713.386 185.735C721.622 180.303 730.501 175.479 739.042 170.531Z" fill="#D36F70"/>
<path d="M682.355 176.715C689.444 178.922 696.563 181.025 703.713 183.024C706.798 183.899 710.481 184.521 713.386 185.735L713.62 186.096C701.554 216.824 686.906 246.909 672.1 276.387C627.026 366.127 566.493 459.973 487.29 523.141C483.777 525.947 480.219 528.694 476.615 531.384C473.01 534.072 469.363 536.7 465.672 539.268C461.981 541.836 458.249 544.343 454.475 546.787C450.701 549.232 446.888 551.613 443.035 553.932C439.183 556.25 435.293 558.504 431.366 560.693C427.438 562.883 423.476 565.008 419.478 567.066C415.481 569.124 411.45 571.116 407.387 573.041C403.324 574.967 399.229 576.824 395.104 578.614C384.767 583.035 374.271 587.039 363.615 590.625C352.959 594.212 342.179 597.37 331.272 600.1C322.884 602.253 311.729 603.537 303.938 606.227L303.405 606.89C295.104 603.904 279.387 600.178 272.601 596.261C275.398 594.164 294.229 590.611 299.004 589.472C308.76 587.219 318.413 584.591 327.965 581.587C337.516 578.584 346.937 575.214 356.227 571.478C360.985 569.548 365.707 567.531 370.391 565.426C375.075 563.323 379.719 561.133 384.323 558.858C388.927 556.583 393.488 554.224 398.005 551.782C402.521 549.338 406.992 546.813 411.416 544.206C415.84 541.598 420.215 538.91 424.54 536.142C428.865 533.373 433.137 530.526 437.358 527.601C441.578 524.675 445.743 521.673 449.853 518.594C453.962 515.515 458.014 512.361 462.008 509.133C550.694 437.747 614.642 329.785 661.062 227.232C668.387 211.05 674.662 194.513 681.528 178.152L682.161 177.882L682.355 176.715Z" fill="#FCDBAA"/>
<path d="M739.043 170.531C748.671 173.523 758.573 175.63 768.185 178.647C779.768 181.63 791.258 185.07 802.745 188.404C794.689 193.586 783.927 197.249 777.025 203.835C776.308 205.786 775.504 208.444 774.203 210.07C763.885 235.761 751.076 260.893 738.758 285.675C677.021 409.878 586.279 544.285 454.394 600.694C436.338 608.418 416.855 615.902 397.574 619.887C389.211 621.949 373.11 623.299 366.277 626.64L365.139 627.924C354.505 623.663 343.758 619.713 332.896 616.073C333.803 615.313 334.92 614.977 336.046 614.661C343.63 612.535 351.5 611.088 359.167 609.247C373.665 605.83 388 601.831 402.173 597.25C500.933 564.669 572.65 492.713 630.75 409.023C642.324 392.172 653.403 375.002 663.989 357.513C674.575 340.025 684.65 322.246 694.213 304.178C703.228 286.838 711.818 269.29 719.981 251.533C723.851 243.131 727.227 234.229 731.435 226.017L731.844 225.226C733.046 221.166 735.103 217.124 736.711 213.197C739.23 207.042 741.56 200.81 744.227 194.717C735.202 192.367 722.22 187.478 713.62 186.096L713.386 185.735C721.623 180.303 730.501 175.479 739.043 170.531Z" fill="#FCDBAA"/>
<path d="M739.042 170.531C748.67 173.523 758.572 175.63 768.184 178.647C760.082 182.691 749.905 187.836 743.949 194.657C750.758 197 770.685 203.707 777.024 203.834C776.308 205.786 775.504 208.444 774.202 210.07L773.809 209.268C774.302 208.143 775.733 205.702 775.716 204.538C772.149 203.135 763.839 201.587 759.599 200.437C757.578 199.889 755.777 198.832 753.715 198.308C750.783 197.561 747.976 197.173 745.154 195.994C741.638 198.094 736.806 220.639 731.843 225.226C733.045 221.166 735.102 217.124 736.71 213.197C739.229 207.042 741.559 200.81 744.226 194.717C735.201 192.366 722.22 187.478 713.619 186.096L713.386 185.735C721.622 180.303 730.501 175.479 739.042 170.531Z" fill="#F8D18F"/>
<path d="M768.185 178.646C779.768 181.629 791.258 185.07 802.744 188.404C794.689 193.585 783.927 197.248 777.025 203.834C770.686 203.707 750.759 196.999 743.949 194.656C749.906 187.836 760.082 182.691 768.185 178.646Z" fill="#EDEEE0"/>
</svg>
