<svg width="411" height="596" viewBox="0 0 411 596" fill="none" xmlns="http://www.w3.org/2000/svg">
<path d="M12.0537 347.92V526.022C12.0537 526.022 13.305 531.836 24.8841 531.266C24.8841 531.266 33.2636 531.298 34.1902 524.114L37.9047 347.912H12.0537V347.92Z" fill="#B77C48"/>
<path d="M23.3323 532.557C12.2998 532.557 10.8741 526.529 10.8266 526.284L10.7949 347.92C10.7949 347.231 11.3572 346.668 12.0542 346.668H37.9131C38.2457 346.668 38.5703 346.803 38.8158 347.041C39.0455 347.278 39.1723 347.611 39.1723 347.952L35.4579 524.153C34.3887 532.422 25.2886 532.533 24.9005 532.533C24.3778 532.533 23.8471 532.557 23.3323 532.557ZM13.3134 526.014C13.3134 526.014 14.8104 530.521 24.8292 530.006C25.1856 530.006 32.171 529.935 32.9471 523.955L36.6299 349.171H13.3134V526.022V526.014Z" fill="#5B3512"/>
<path d="M26.0333 347.92C25.8432 403.681 25.4946 470.507 24.8848 531.274C24.8848 531.274 33.2643 531.305 34.1909 524.121L37.9053 347.92H26.0333Z" fill="#B77C48"/>
<path d="M16.3076 347.92V523.694L18.5806 347.92H16.3076Z" fill="#B77C48"/>
<path d="M197.817 288.943V462.927C197.817 462.927 199.069 468.74 210.656 468.17C210.656 468.17 219.035 468.21 219.97 461.026L223.739 281.886C214.964 283.755 206.292 285.981 197.817 288.943Z" fill="#B77C48"/>
<path d="M209.096 469.461C198.063 469.461 196.646 463.442 196.59 463.188L196.559 288.943C196.559 288.404 196.899 287.921 197.398 287.755C205.096 285.07 213.381 282.813 223.471 280.666C223.851 280.587 224.247 280.682 224.532 280.92C224.825 281.173 224.991 281.529 224.983 281.918L221.213 461.05C220.136 469.327 211.036 469.43 210.656 469.43C210.157 469.453 209.611 469.461 209.096 469.461ZM199.077 462.919C199.117 462.919 200.352 466.958 209.096 466.958H209.104C209.579 466.958 210.07 466.935 210.593 466.919C210.957 466.919 217.934 466.839 218.719 460.859L222.449 283.454C213.523 285.403 206.039 287.454 199.077 289.838V462.919Z" fill="#5B3512"/>
<path d="M211.805 284.698C211.615 340.482 211.266 407.356 210.648 468.17C210.648 468.17 219.028 468.21 219.962 461.026L223.732 281.886C219.733 282.733 215.757 283.668 211.805 284.698Z" fill="#B77C48"/>
<path d="M202.079 287.517V460.598L204.328 286.812C203.568 287.042 202.824 287.28 202.079 287.517Z" fill="#B77C48"/>
<path d="M195.268 287.208V589.11C195.268 589.11 196.519 594.923 208.106 594.353C208.106 594.353 216.478 594.393 217.412 587.217L223.732 287.216H195.268V287.208Z" fill="#B77C48"/>
<path d="M206.554 595.652C195.529 595.652 194.104 589.625 194.048 589.371L194.017 287.209C194.017 286.519 194.587 285.957 195.268 285.957H223.733C224.073 285.957 224.39 286.092 224.627 286.337C224.865 286.567 224.992 286.908 224.984 287.24L218.664 587.24C217.594 595.525 208.486 595.612 208.106 595.612C207.607 595.628 207.069 595.652 206.554 595.652ZM196.527 589.11C196.567 589.11 198.04 593.593 208.043 593.094C208.415 593.094 215.393 593.03 216.169 587.05L222.449 288.46H196.519L196.527 589.11Z" fill="#5B3512"/>
<path d="M209.5 287.208C209.5 287.208 209.5 456.416 208.106 594.345C208.106 594.345 216.478 594.385 217.413 587.209L223.733 287.208H209.5Z" fill="#B77C48"/>
<path d="M199.529 295.398V586.773L203.291 295.398H199.529Z" fill="#B77C48"/>
<path d="M381.04 352.039V526.022C381.04 526.022 382.291 531.836 393.87 531.266C393.87 531.266 402.242 531.297 403.184 524.113L406.954 344.981C398.187 346.851 389.522 349.068 381.04 352.039Z" fill="#B77C48"/>
<path d="M392.318 532.557C381.285 532.557 379.867 526.529 379.812 526.284L379.788 352.039C379.788 351.5 380.121 351.025 380.628 350.85C388.326 348.165 396.61 345.908 406.7 343.746C407.08 343.682 407.469 343.777 407.77 344.015C408.063 344.261 408.229 344.625 408.221 345.013L404.451 524.145C403.374 532.414 394.274 532.525 393.886 532.525C393.379 532.533 392.84 532.557 392.318 532.557ZM382.299 526.014C382.338 526.014 383.574 530.038 392.318 530.038C392.801 530.038 393.292 530.03 393.807 530.006C394.171 530.006 401.156 529.935 401.933 523.955L405.663 346.55C396.745 348.49 389.253 350.542 382.291 352.941V526.03L382.299 526.014Z" fill="#5B3512"/>
<path d="M395.026 347.785C394.828 403.578 394.488 470.451 393.87 531.266C393.87 531.266 402.242 531.297 403.184 524.113L406.954 344.981C402.954 345.829 398.978 346.756 395.026 347.785Z" fill="#B77C48"/>
<path d="M385.301 350.613V523.693L387.55 349.908C386.798 350.137 386.045 350.375 385.301 350.613Z" fill="#B77C48"/>
<path d="M204.565 278.456L1.25879 333.956V350.763L207.947 424.227V279.406L204.565 278.456Z" fill="#B77C48"/>
<path d="M207.948 425.478C207.805 425.478 207.662 425.462 207.528 425.407L0.839663 351.951C0.340703 351.769 0 351.302 0 350.763V333.956C0 333.385 0.388171 332.886 0.934651 332.736L204.233 277.244C204.455 277.189 204.685 277.189 204.906 277.244L208.288 278.187C208.835 278.345 209.199 278.836 209.199 279.407V424.219C209.199 424.623 209.001 425.011 208.668 425.248C208.455 425.399 208.201 425.478 207.948 425.478ZM2.51875 349.876L206.696 422.444V280.357L204.558 279.755L2.51875 334.914V349.876Z" fill="#5B3512"/>
<path d="M409.503 335.738L207.947 279.407V424.227L409.503 352.546V335.738Z" fill="#B77C48"/>
<path d="M207.948 425.478C207.686 425.478 207.433 425.399 207.219 425.256C206.886 425.019 206.696 424.631 206.696 424.227V279.415C206.696 279.019 206.878 278.646 207.195 278.417C207.512 278.171 207.916 278.108 208.296 278.195L409.852 334.526C410.391 334.684 410.771 335.176 410.771 335.746V352.553C410.771 353.084 410.438 353.567 409.931 353.741L208.383 425.407C208.225 425.462 208.09 425.478 207.948 425.478ZM209.199 281.054V422.437L408.244 351.658V336.68L209.199 281.054Z" fill="#5B3512"/>
<path d="M204.565 261.648L1.25879 333.956L207.947 407.403L409.503 335.738L204.565 261.648Z" fill="#DB9E5B"/>
<path d="M207.948 408.662C207.805 408.662 207.662 408.647 207.528 408.599L0.839663 335.136C0.340703 334.953 0 334.486 0 333.963C0 333.433 0.332783 332.95 0.839663 332.775L204.146 260.476C204.415 260.373 204.716 260.373 204.986 260.476L409.923 334.573C410.422 334.755 410.755 335.223 410.755 335.753C410.755 336.292 410.422 336.767 409.916 336.934L208.367 408.607C208.225 408.639 208.09 408.662 207.948 408.662ZM5.01333 333.956L207.948 406.072L405.781 335.722L204.566 262.971L5.01333 333.956Z" fill="#5B3512"/>
<path d="M282.578 378.445C244.032 381.907 203.774 382.311 166.384 370.905C142.624 363.65 110.746 350.312 103.523 323.627C101.139 314.835 101.701 305.837 104.331 297.291L1.25195 333.956L207.94 407.403L291.971 377.519C288.843 377.851 285.715 378.152 282.578 378.445Z" fill="#DB9E5B"/>
<path d="M195.268 88.417V390.318C195.268 390.318 196.519 396.132 208.106 395.562C208.106 395.562 216.478 395.593 217.412 388.417L223.732 88.417H195.268Z" fill="#B77C48"/>
<path d="M206.554 396.845C195.529 396.845 194.104 390.833 194.048 390.572L194.017 88.4092C194.017 87.7122 194.587 87.1577 195.268 87.1577H223.733C224.073 87.1577 224.39 87.2924 224.627 87.5379C224.865 87.7835 224.992 88.1003 224.984 88.4409L218.664 388.441C217.594 396.71 208.486 396.813 208.106 396.813C207.607 396.845 207.069 396.845 206.554 396.845ZM196.527 390.318C196.567 390.318 198.04 394.809 208.043 394.31C208.415 394.31 215.393 394.239 216.169 388.251L222.449 89.6765H196.519L196.527 390.318Z" fill="#5B3512"/>
<path d="M209.5 88.417C209.5 88.417 209.5 257.632 208.106 395.562C208.106 395.562 216.478 395.593 217.413 388.417L223.733 88.417H209.5Z" fill="#B77C48"/>
<path d="M199.529 96.6069V387.982L203.291 96.6069H199.529Z" fill="#B77C48"/>
<path d="M28.2422 27.3496V329.235C28.2422 329.235 29.4935 335.056 41.0725 334.486C41.0725 334.486 49.4519 334.526 50.3864 327.342L56.7066 27.3496H28.2422Z" fill="#B77C48"/>
<path d="M39.5207 335.785C28.496 335.785 27.0703 329.766 27.0149 329.512L26.9912 27.3496C26.9912 26.6526 27.5455 26.0981 28.2425 26.0981H56.7069C57.0475 26.0981 57.3643 26.2329 57.6019 26.4705C57.8395 26.716 57.9664 27.0329 57.9584 27.3734L51.6382 327.374C50.569 335.659 41.4689 335.754 41.0808 335.754C40.5739 335.777 40.0434 335.785 39.5207 335.785ZM29.5017 329.243C29.5493 329.243 30.9987 333.75 41.0175 333.227C41.3739 333.227 48.3593 333.164 49.1355 327.183L55.416 28.609H29.4938L29.5017 329.243Z" fill="#5B3512"/>
<path d="M42.4749 27.3496C42.4749 27.3496 42.475 196.565 41.0811 334.486C41.0811 334.486 49.4604 334.526 50.3949 327.342L56.7151 27.3496H42.4749Z" fill="#B77C48"/>
<path d="M32.5029 35.5396V326.914L36.273 35.5396H32.5029Z" fill="#B77C48"/>
<path d="M261.408 107.728C261.408 63.6417 233.047 53.2025 233.047 53.2025C233.047 53.2025 74.7737 0.570104 46.9903 1.26712C42.8957 1.37008 39.3555 2.25715 36.2746 3.65117L36.0767 3.74629C35.8866 3.84134 35.6964 3.91254 35.5142 4.00758L18.9378 11.8412L23.3966 15.8806C17.3774 26.114 16.4746 37.9553 16.4746 37.9553V94.928C16.4746 126.808 49.105 136.21 49.105 136.21C49.105 136.21 168.38 186.672 213.445 188.518L218.07 192.732L232.184 186.395C235.011 185.5 237.561 184.336 239.874 182.95L239.89 182.934C259.809 170.871 261.408 140.947 261.408 107.728Z" fill="#DB9E5B"/>
<path d="M218.07 193.999C217.761 193.999 217.46 193.888 217.23 193.666L212.93 189.762C167.825 187.615 49.8093 137.89 48.6134 137.383C48.4233 137.343 15.2227 127.387 15.2227 94.9362V37.9634C15.2623 37.3931 16.1731 26.2805 21.8121 16.1343L18.1056 12.768C17.7968 12.4828 17.6464 12.071 17.7097 11.6513C17.7652 11.2315 18.0344 10.875 18.4145 10.7007L35.5138 2.62179C35.5851 2.5901 35.6723 2.55834 35.7673 2.5425L35.7594 2.51881C39.1729 0.950537 42.9428 0.110944 46.9582 0.00797667L47.5601 0C76.7374 0 227.067 49.8839 233.45 52.0067C233.791 52.1255 240.966 54.8343 248.19 63.0954C254.795 70.6596 262.675 84.5602 262.675 107.712C262.675 140.844 260.972 171.615 240.547 183.995C238.107 185.476 235.431 186.672 232.571 187.583L218.592 193.864C218.426 193.959 218.244 193.999 218.07 193.999ZM21.1866 12.174L24.2356 14.9621C24.6791 15.3581 24.7742 16.0076 24.4732 16.5303C18.6916 26.3756 17.7334 37.9476 17.7255 38.0743L17.7334 94.9441C17.7334 125.525 49.1363 134.943 49.4531 135.03C50.7836 135.585 169.18 185.469 213.484 187.282C213.785 187.306 214.062 187.417 214.276 187.615L218.3 191.258L231.66 185.271C234.472 184.368 236.959 183.251 239.216 181.888C258.549 170.174 260.149 140.131 260.149 107.744C260.149 65.123 232.888 54.5015 232.611 54.3986C231.09 53.8996 76.3256 2.53465 47.5444 2.53465H47.0056C43.3387 2.62969 39.9016 3.39003 36.789 4.81573C36.7573 4.82365 36.7334 4.84745 36.6938 4.85537L21.1866 12.174Z" fill="#5B3512"/>
<path d="M255.808 77.7008C253.908 73.3049 251.682 69.6377 249.385 66.5962C224.881 78.0494 201.073 91.0787 176.973 103.427C203.101 94.4132 229.466 86.1045 255.808 77.7008Z" fill="#DB9E5B"/>
<path d="M192.013 185.437C200.147 187.163 207.465 188.288 213.444 188.526L218.069 192.739L232.183 186.403C235.01 185.508 237.561 184.344 239.873 182.957L239.889 182.942C249.274 177.255 254.565 167.576 257.566 155.481C235.454 164.906 213.476 174.625 192.013 185.437Z" fill="#DB9E5B"/>
<path d="M2.60547 44.2207C2.60547 44.2207 5.32992 8.22948 33.1212 7.51663C60.9125 6.81962 219.194 59.4519 219.194 59.4519C219.194 59.4519 247.547 69.8833 247.547 113.977C247.547 158.071 244.744 196.359 199.988 194.807C155.24 193.231 35.2438 142.476 35.2438 142.476C35.2438 142.476 2.61344 133.058 2.61344 101.178V44.2207H2.60547Z" fill="#B77C48"/>
<path d="M202.594 196.098C201.715 196.098 200.843 196.082 199.941 196.066C155.47 194.506 39.6556 145.715 34.7452 143.64C34.5472 143.592 1.35449 133.644 1.35449 101.186V44.2285C1.38617 43.7533 4.49072 6.98597 33.0898 6.27311L33.6839 6.26514C62.8612 6.26514 213.199 56.157 219.59 58.2718C219.923 58.3906 227.098 61.0993 234.313 69.3684C240.919 76.9326 248.799 90.8253 248.799 113.993C248.799 158.919 245.322 196.098 202.594 196.098ZM33.6839 8.76014L33.1532 8.76812C6.83501 9.42553 3.88873 43.9592 3.85705 44.2998V101.178C3.85705 131.759 35.2679 141.177 35.5847 141.264C36.9231 141.826 156.008 192.003 200.02 193.54C200.899 193.571 201.746 193.587 202.594 193.587C243.065 193.587 246.288 159.085 246.288 113.977C246.288 71.3486 219.028 60.735 218.758 60.632C217.23 60.1251 62.4494 8.76014 33.6839 8.76014Z" fill="#5B3512"/>
<path d="M41.0734 111.047C41.0734 114.754 39.1568 117.756 36.7887 117.756C34.4286 117.756 32.5039 114.754 32.5039 111.047C32.5039 107.356 34.4286 104.354 36.7887 104.354C39.1647 104.346 41.0734 107.348 41.0734 111.047Z" fill="#B77C48"/>
<path d="M41.0734 50.7712C41.0734 54.4543 39.1568 57.4561 36.7887 57.4561C34.4286 57.4561 32.5039 54.4543 32.5039 50.7712C32.5039 47.0723 34.4286 44.0703 36.7887 44.0703C39.1647 44.0703 41.0734 47.0723 41.0734 50.7712Z" fill="#B77C48"/>
<path d="M208.612 160.004C208.612 163.711 206.696 166.705 204.328 166.705C201.96 166.705 200.043 163.711 200.043 160.004C200.043 156.313 201.96 153.311 204.328 153.311C206.688 153.303 208.612 156.305 208.612 160.004Z" fill="#B77C48"/>
<path d="M208.612 99.7281C208.612 103.427 206.696 106.429 204.328 106.429C201.96 106.429 200.043 103.427 200.043 99.7281C200.043 96.0292 201.96 93.0352 204.328 93.0352C206.688 93.0273 208.612 96.0292 208.612 99.7281Z" fill="#B77C48"/>
</svg>
