<svg width="603" height="492" viewBox="0 0 603 492" fill="none" xmlns="http://www.w3.org/2000/svg">
<path d="M19.6465 458.344C39.8535 462.246 60.1035 461.543 80.5845 461.68L165.151 462.168L463.792 463.418L578.058 459.355C571.179 464.289 564.152 468.429 555.585 469.441C546.444 470.523 533.909 468.671 525.659 472.515L524.335 486.652C517.878 491.843 489.077 489.394 479.413 489.511C475.116 482.527 479.405 475.323 471.987 471.741L217.436 471.702L170.167 471.725C166.417 471.729 157.491 470.635 154.218 471.737C152.984 472.151 152.046 473.182 150.964 473.905L150.175 489.116L147.382 491.186C138.503 491.241 113.441 493.928 107.382 489.116L106.163 472.292L56.9994 472.456C51.5574 472.296 42.9055 472.929 37.7455 471.515C33.2325 470.282 23.9005 461.438 19.6465 458.344Z" fill="url(#paint0_linear_578_47328)"/>
<path d="M78.4194 190.398L77.1384 189.328C74.6774 187.492 72.0294 186.547 69.2124 185.406C62.6184 172.383 66.7714 91.5193 71.6614 76.9963C79.3954 54.0163 94.4425 33.0663 117.106 22.9963C141.137 12.3163 169.09 8.92632 194.997 5.90232C264.774 -2.24268 333.438 -1.75365 403.239 6.10935C429.45 9.06235 457.657 11.0075 482.345 20.9885C503.247 29.4375 521.775 46.3515 530.333 67.5195L533.438 77.0073L534.376 79.8554C538.204 92.3164 537.333 106.863 537.564 119.855L538.622 183.125C518.228 185.855 495.091 189.797 482.153 207.609C476.524 215.359 474.493 223.05 472.747 232.281L472.224 234.793C468.044 256.274 472.095 280.09 470.517 301.934L467.896 298.95C459.345 291.177 417.623 294.313 404.486 294.262L152.302 294.059C152.38 268.399 155.415 239.192 146.583 214.704C138.493 192.282 120.341 188.895 98.9314 190.809C91.5834 191.464 85.1584 193.699 78.4194 190.398Z" fill="#FBB926"/>
<path d="M470.517 301.934L474.486 304.547C477.138 297.359 475.334 286.848 475.013 279.156C473.771 249.008 471.54 211.41 503.826 196.191C522.244 187.511 547.916 182.851 567.369 190C581.439 195.172 592.654 203.141 598.869 217.098C603.994 228.606 602.178 244.606 602.049 256.993L601.268 327.009C601.1 358.38 603.409 391.255 600.873 422.45C600.4 428.278 598.662 434.333 596.377 439.704C592.604 448.575 586.111 454.423 578.057 459.357L463.791 463.42L165.15 462.17L80.5834 461.682C60.1034 461.545 39.8534 462.248 19.6454 458.346C17.1574 456.229 14.6294 454.006 12.6144 451.42C6.88039 444.076 3.65346 434.447 2.38746 425.307C-1.62054 396.362 1.43447 362.659 1.37147 333.241C1.30147 300.444 -2.11661 263.401 2.10939 231.093C3.85539 217.749 11.3204 205.214 22.4454 197.659C34.6444 189.378 47.5865 185.089 62.1255 188.264L78.4185 190.401C85.1565 193.702 91.5824 191.468 98.9304 190.811C120.34 188.897 138.493 192.284 146.582 214.706C155.414 239.194 152.379 268.401 152.301 294.061L404.485 294.264C417.622 294.315 459.344 291.178 467.895 298.952L470.517 301.934Z" fill="#F0A815"/>
<path d="M62.127 188.262L78.4199 190.399C85.1579 193.7 91.5839 191.466 98.9319 190.809C120.342 188.895 138.495 192.282 146.584 214.704C155.416 239.192 152.381 268.399 152.303 294.059C137.471 300.579 129.014 308.239 119.799 321.149L116.307 325.419C112.768 341.61 110.885 353.841 114.905 369.989C116.288 371.219 119.491 374.887 121.014 375.446C124.58 376.747 133.584 375.688 137.936 375.758L202.233 376.102L370.163 376.477C401.073 376.547 432.604 377.844 463.452 376.114C470.604 375.712 478.944 374.77 484.073 369.001C490.093 362.231 488.889 350.126 487.436 341.638L478.733 305.31C490.022 316.181 498.792 324.966 502.561 340.681L503.483 344.451C506.241 357.154 505.245 377.267 497.803 388.201C492.252 396.354 481.115 401.248 471.737 402.729C457.296 405.01 441.049 403.467 426.319 403.432L322.987 402.159L219.628 402.206C193.526 402.956 160.21 406.706 134.741 401.698C125.245 401.573 110.811 399.698 103.436 393.346C100.221 390.58 96.248 385.916 94.866 381.924C91.053 370.92 92.4519 355.979 92.3739 344.291L92.1549 275.123C92.1779 262.213 93.1549 248.193 91.4719 235.396C89.7449 222.306 81.5029 206.685 71.0729 198.533C68.2209 196.306 66.276 194.486 64.225 191.463L62.127 188.262Z" fill="#EA9A17"/>
<defs>
<linearGradient id="paint0_linear_578_47328" x1="184.223" y1="595.445" x2="412.129" y2="323.864" gradientUnits="userSpaceOnUse">
<stop stop-color="#000101"/>
<stop offset="1" stop-color="#271113"/>
</linearGradient>
</defs>
</svg>
