<svg width="314" height="753" viewBox="0 0 314 753" fill="none" xmlns="http://www.w3.org/2000/svg">
<path d="M238.355 24.9759C238.451 22.5729 238.403 19.1119 239.869 13.2479C241.335 7.3839 240.854 0.462856 238.355 0.0778561C235.856 -0.307144 233.356 0.654878 230.28 4.78788C227.204 8.92088 221.628 15.8429 218.648 18.3419C215.668 20.8409 212.063 24.6869 207.977 24.9749C203.891 25.2629 212.879 25.5039 212.879 25.5039C212.879 25.5039 220.017 21.0339 223.802 16.1309C227.587 11.2279 232.49 6.03689 233.74 4.69089C234.99 3.34489 237.489 1.03789 237.874 5.65189C238.258 10.2659 237.778 11.4199 237.297 13.8229C236.816 16.2259 236.72 24.1099 236.72 25.5029C236.72 26.8959 238.355 24.9759 238.355 24.9759Z" fill="#9C5800"/>
<path d="M240.695 24.832H234.318V32.298H240.695V24.832Z" fill="#E8A000"/>
<path d="M235.111 24.832V32.298H237.458L237.193 24.832H235.111Z" fill="#FFC440"/>
<path d="M231.001 34.0597C231.001 34.0597 215.139 26.2727 212.255 25.2637C209.371 24.2547 201.008 20.7937 203.892 25.2637C206.776 29.7337 222.638 41.5577 222.638 41.5577L231.001 34.0597Z" fill="#F58A00"/>
<path d="M215.57 39.9761C215.57 43.1461 221.2 79.0461 221.2 79.0461L224.32 78.8261L225.83 78.7161L232.91 78.2161L239.87 77.7261L264.17 76.0161C264.17 76.0161 260.71 39.9761 260.27 36.0761C260.08 34.3561 259.47 33.1161 258.47 32.2561C257.21 31.1661 255.33 30.6761 252.92 30.5961C251.19 30.5461 247.14 30.5261 242.7 30.5961C240.47 30.6161 238.14 30.6661 235.96 30.7361C233.34 30.8261 230.92 30.9461 229.14 31.0961C227.94 31.2061 227.02 31.3161 226.53 31.4661C225.26 31.8261 223.14 32.8161 221.1 34.0761C220.61 34.3761 220.13 34.6961 219.67 35.0161C217.42 36.6061 215.57 38.4461 215.57 39.9761Z" fill="#FFB000"/>
<path d="M219.67 35.0157C220.52 46.1457 222.59 65.4157 224.32 78.8257C224.34 78.9557 224.35 79.0757 224.37 79.1957L232.94 78.4657C232.93 78.3857 232.92 78.3057 232.91 78.2157C232.3 72.4957 230.33 47.6757 229.14 31.0957C227.94 31.2057 227.02 31.3157 226.53 31.4657C225.26 31.8257 223.14 32.8157 221.1 34.0757C220.61 34.3757 220.13 34.6957 219.67 35.0157Z" fill="#FFC440"/>
<path d="M313.049 121.01C311.03 116.107 302.502 95.4812 288.536 84.3842C278.01 76.0212 271.92 73.8212 264.023 71.6952C257.594 69.9632 230.57 69.6763 221.341 75.7323C212.112 81.7883 196.828 95.3432 192.213 104.283C187.599 113.223 183.561 128.22 183.561 132.834C183.561 137.448 183.561 139.467 183.561 139.467C183.561 139.467 192.501 144.37 207.786 144.081C223.071 143.793 249.891 141.774 264.888 139.467C279.884 137.16 295.169 133.699 305.263 129.95C315.356 126.201 313.049 121.01 313.049 121.01Z" fill="#FFB000"/>
<path d="M183.63 140.006C184.4 146.036 215.44 147.035 251.23 142.465C287.01 137.895 313.98 129.486 313.21 123.446C312.56 118.336 291.18 116.705 262.89 119.105C257.8 119.535 252.48 120.095 247.02 120.795C241.58 121.495 236.31 122.276 231.29 123.136C203.28 127.926 182.98 134.886 183.63 140.006Z" fill="#FFEFCC"/>
<path d="M231.29 123.135C233.32 127.525 239.42 132.315 248.08 131.595C254.91 131.025 260.49 123.705 262.89 119.105C257.8 119.535 252.48 120.095 247.02 120.795C241.58 121.495 236.31 122.275 231.29 123.135Z" fill="#CC7400"/>
<path d="M221.809 47.4971C221.005 49.2711 218.716 49.7631 217.261 48.4681C213.191 44.8481 206.204 38.6632 205.191 37.9542C203.749 36.9452 198.991 32.3302 198.702 29.7352C198.414 27.1392 203.646 23.2021 203.646 23.2021L222.904 37.5131C224.402 38.6261 224.921 40.6342 224.151 42.3342L221.809 47.4971Z" fill="#FFB000"/>
<path d="M0 252.946C0 255.836 2.74 259.296 6.05 260.306C9.37 261.316 13.12 257.416 14.42 252.946C15.72 248.476 20.04 237.666 22.78 232.326C25.52 226.996 73.2 149.846 73.2 149.846C73.2 149.846 112.62 84.6762 120.11 72.3662C127.61 60.0662 137.23 49.2962 143.38 44.1062C149.53 38.9162 163.23 31.4663 171.88 29.5863C180.53 27.7163 191.02 25.8362 203.3 32.9062C215.57 39.9762 206.91 23.4563 206.91 23.4563C206.91 23.4563 186.16 19.3563 174.76 21.5163C168.94 22.6163 159.83 26.0963 150.99 30.8163C150.9 30.8563 150.82 30.8963 150.75 30.9363C150.74 30.9463 150.73 30.9563 150.72 30.9463C150.65 30.9863 150.59 31.0162 150.54 31.0462C150.54 31.0462 150.53 31.0562 150.51 31.0562C150.39 31.1262 150.31 31.1562 150.31 31.1562V31.1662C142.07 35.6162 134.16 41.1162 129.49 46.7463C126.59 50.2362 122.63 55.7662 118.33 62.0462C118.32 62.0762 118.31 62.0863 118.31 62.0863C108.12 77.0663 96.1 96.4162 92.14 103.416C86.52 113.366 21.48 220.606 18.89 224.546C16.29 228.486 10.24 239.246 6.34 244.296C3.27 248.276 1.1 249.566 0.32 251.356C0.11 251.826 0 252.336 0 252.946Z" fill="#2C354D"/>
<path d="M74.0732 138.272V143.944L74.3212 243.624V243.64L74.6492 376.1H82.5802L80.9942 150.321V139.618C80.9942 139.618 78.8972 137.246 76.9642 136.965C75.0312 136.683 74.0732 138.272 74.0732 138.272Z" fill="#2C354D"/>
<path d="M81.2001 374.133C81.2001 374.133 81.3391 329.462 81.2001 326.102C81.0611 322.742 78.8422 315.782 78.8112 326.102C78.7812 336.422 78.3271 376.099 78.3271 376.099L81.2001 374.133Z" fill="#1F2638"/>
<path d="M74.1436 172.501L74.3206 243.622V243.638C74.3206 243.638 75.9466 337.021 76.0906 347.259C76.2346 357.497 77.2446 344.952 77.2446 337.31C77.2446 329.667 77.3886 190.518 77.3886 190.518V158.479L74.1436 172.501Z" fill="#566696"/>
<path d="M71.6217 384.319C71.7657 389.222 74.0727 388.789 74.0727 388.789C75.6907 388.799 75.8097 389.132 78.6197 389.132C81.4307 389.132 81.3557 389.046 82.5807 388.798C83.8047 388.551 84.9007 388.367 85.2307 388.097C85.5607 387.827 86.0927 374.777 85.0317 373.292C83.9707 371.807 84.5587 372.206 82.5807 372.206H75.7317C71.7667 372.206 71.6587 373.641 71.6217 375.09C71.5797 376.742 71.4767 379.416 71.6217 384.319Z" fill="#2C354D"/>
<path d="M93.6238 729.49C98.1898 729.634 128.942 721.918 134.996 726.562C136.192 727.479 136.006 731.77 138.097 733.17C140.933 735.07 141.853 736.273 141.918 738.073C142.013 740.694 135.304 744.585 127.028 747.857C117.364 751.678 104.221 753.183 82.8618 752.994C44.0478 752.65 24.4138 745.405 21.1528 741.8C19.2478 739.694 16.7408 737.072 22.8348 732.601C23.5518 732.075 24.4018 729.866 26.3898 727.576C28.2238 725.464 31.2938 723.435 32.2608 723.163C34.2758 722.597 35.5858 732.65 37.8568 732.23C48.7818 730.211 62.7508 729.346 71.9908 729.49C81.2318 729.634 93.6238 729.49 93.6238 729.49Z" fill="#2C354D"/>
<path d="M26.4609 730.322C26.6109 730.512 26.8209 730.712 27.0709 730.912C29.3509 732.752 35.6109 734.962 45.4209 736.652H45.4309C47.8809 737.072 50.5609 737.472 53.4509 737.812C56.8109 738.212 60.4509 738.552 64.3809 738.802C69.9409 739.172 76.0609 739.362 82.7209 739.332C115.781 739.162 134.201 730.962 135.211 728.222C136.221 725.482 128.951 721.372 122.301 719.672C116.301 718.132 96.2809 715.972 92.2409 715.822C92.2409 715.822 81.2809 715.972 73.1109 715.822C64.9409 715.682 52.8609 717.502 43.2009 719.522C33.5409 721.542 23.5809 726.722 26.4609 730.322Z" fill="#566696"/>
<path d="M53.4512 737.812C56.8112 738.212 60.4512 738.552 64.3812 738.802L78.0912 720.602L77.2912 720.222L53.4512 737.812Z" fill="#6B7FBA"/>
<path d="M83.7336 711.788C85.1486 711.78 92.2416 712.942 92.2416 714.095C92.2416 715.248 87.4346 717.315 79.5526 716.931C71.6696 716.546 67.4406 715.776 67.3436 714.383C67.2476 712.99 75.5146 711.74 76.8606 711.788C78.2066 711.836 83.7336 711.788 83.7336 711.788Z" fill="#1F2638"/>
<path d="M27.0713 730.912C29.3513 732.752 35.6113 734.962 45.4213 736.652H45.4313L75.5113 721.052L68.4613 719.462C68.4613 719.462 33.8213 727.542 27.0713 730.912Z" fill="#6B7FBA"/>
<path d="M84.4214 716.522C85.2834 716.518 90.5414 716.582 92.2424 714.095C92.7234 715.777 93.8754 718.515 93.8754 719.047C93.8754 720.201 87.0224 722.363 80.3214 722.402C73.6204 722.441 65.8194 720.728 65.7104 719.335C65.6664 718.773 66.6704 716.978 67.3434 714.383C68.2804 716.282 75.1844 716.67 76.0924 716.699C77.6164 716.747 84.4214 716.522 84.4214 716.522Z" fill="#2C354D"/>
<path d="M84.1673 385.184C84.1673 385.184 84.6483 711.259 85.2243 713.951C85.8013 716.643 87.5313 717.796 87.5313 717.796H73.1113C73.1113 717.796 75.6103 716.835 75.6103 713.374C75.6103 709.913 74.0723 385.184 74.0723 385.184H84.1673Z" fill="#2C354D"/>
<path d="M80.9936 382.156C80.9936 382.156 82.5256 709.14 82.5316 712.606C82.5426 718.743 80.3206 713.76 80.3206 713.76L78.8096 386.723L80.9936 382.156Z" fill="#1F2638"/>
<path d="M78.8105 373.112C78.8105 374.539 78.8235 388.052 78.8235 388.052C79.5925 388.396 81.4865 389.764 82.8275 388.188C84.1685 386.612 83.5075 373.703 82.5915 372.93C81.6755 372.157 78.8105 371.685 78.8105 373.112Z" fill="#1F2638"/>
<path d="M231.29 123.136C213.614 126.159 199.015 130.046 190.808 133.789C192.88 124.195 194.63 116.626 198.69 107.607C202.749 98.5881 206.511 94.3061 215.571 86.7461C224.631 79.1861 228.471 80.266 226.311 88.906C224.151 97.546 228.831 106.906 234.318 109.786C239.805 112.666 241.791 114.106 242.171 121.449L242.164 121.452C238.437 121.975 234.8 122.535 231.29 123.136Z" fill="#FFC440"/>
<path d="M268.486 116.65C268.021 111.542 264.061 93.4326 260.821 87.9016C258.288 83.5776 252.545 78.6986 245.105 72.3286C239.881 67.8566 250.137 68.2036 253.497 69.6186C256.857 71.0336 261.661 72.7716 267.901 75.5416C274.141 78.3116 281.941 83.8216 288.421 91.5016C293.305 97.2896 299.823 111.528 302.739 118.192C295.57 116.271 285.427 115.573 268.486 116.65Z" fill="#F58A00"/>
<path d="M249.47 73.4257C252.87 76.8057 259.83 76.6557 260.35 71.0857C260.87 65.5057 258.007 43.3257 258.05 38.0857C258.07 35.6557 257.57 33.2257 257.81 31.7737C256.537 31.0107 255.33 30.6757 252.92 30.5957C251.19 30.5457 248.389 30.5087 243.949 30.5787C245.009 41.0187 245.92 58.4457 246.23 62.1457C246.59 66.4657 246.08 70.0457 249.47 73.4257Z" fill="#F58A00"/>
<path d="M0.320312 251.356C0.860313 253.566 2.02031 255.916 3.75031 255.546C6.49031 254.966 9.52031 248.196 13.2603 241.986C17.0103 235.786 21.2713 227.366 21.2713 227.366C21.2713 227.366 20.9103 224.106 22.2003 222.526C23.5003 220.936 70.7003 144.846 70.7003 144.846C70.7003 144.846 99.5403 94.0959 103.39 89.2859C107.23 84.4759 118 63.716 125.3 55.836C126.53 54.516 127.64 53.266 128.68 52.076C130.25 50.326 132.53 48.0359 134.85 45.8059C137.17 43.5659 139.52 41.386 141.21 39.826C149.67 34.296 165.87 26.5659 172.02 26.0059C178.18 25.4559 205.67 28.5659 205.67 28.5659L203.89 25.266C203.89 25.266 184.62 21.8159 173.75 23.1959C164.38 24.396 153.74 29.4559 150.99 30.8159C150.9 30.8559 150.82 30.8959 150.75 30.9359C150.74 30.9459 150.73 30.9559 150.72 30.9459C150.65 30.9859 150.59 31.0159 150.54 31.0459C150.54 31.0459 150.53 31.0559 150.51 31.0559C150.39 31.1259 150.31 31.1559 150.31 31.1559V31.1659C142.07 35.6159 134.16 41.1159 129.49 46.7459C126.59 50.2359 122.63 55.7659 118.33 62.0459C118.32 62.0759 118.31 62.086 118.31 62.086C108.12 77.066 96.1003 96.4159 92.1403 103.416C86.5203 113.366 21.4803 220.606 18.8903 224.546C16.2903 228.486 10.2403 239.246 6.34031 244.296C3.27031 248.276 1.10031 249.566 0.320312 251.356Z" fill="#566696"/>
<path d="M25.8731 227.404C26.8341 229.231 25.3351 234.847 19.9511 231.194C14.5681 227.541 15.625 225.522 16.394 224.561C17.163 223.6 19.448 224.03 19.448 224.03L18.9901 224.753C18.9901 224.753 19.5671 226.484 21.9701 227.542C24.3741 228.599 25.8731 227.404 25.8731 227.404Z" fill="#2C354D"/>
<path d="M23.9184 228.857C23.9244 228.437 19.3224 228.257 18.6924 226.457C18.0624 224.657 17.2524 224.297 16.8924 225.377C16.5324 226.457 17.5224 227.897 18.6924 228.617C19.8624 229.337 23.9014 230.13 23.9184 228.857Z" fill="#566696"/>
<path d="M75.5406 376.771C75.7336 380.125 75.9076 383.461 75.6906 385.081C75.4786 386.659 73.5626 389.664 73.1116 385.183C72.6606 380.701 72.9396 377.23 73.1116 375.481C73.3506 373.051 75.3906 374.162 75.5406 376.771Z" fill="#566696"/>
<path d="M133.921 733.562C129.601 735.002 112.141 742.742 84.4211 742.382C69.5651 742.189 55.8461 740.652 45.5921 739.017C36.7131 737.602 31.2131 735.753 29.0411 735.002C27.5271 734.478 25.5821 732.745 24.9761 732.167C23.8451 731.089 23.9971 733.79 22.7711 734.912C21.3611 736.202 21.6231 737.848 31.1411 741.182C39.9611 744.272 50.2291 746.102 64.9811 746.462C79.7331 746.822 96.1811 746.889 106.801 744.856C119.84 742.361 135.541 735.362 133.921 733.562Z" fill="#566696"/>
<path d="M86.6301 146.206L76.3701 145.306V146.206L87.4071 148.246L86.6301 146.206Z" fill="#1F2638"/>
<path d="M70.1819 128.374L72.0969 140.853L71.3679 140.055L67.6289 129.642L67.9379 127.591L70.1819 128.374Z" fill="#1F2638"/>
<path d="M84.0691 133.647L75.5101 143.746L74.7891 142.208L81.9501 131.496L84.0691 133.647Z" fill="#1F2638"/>
<path d="M67.7898 146.386L58.5498 146.776L58.7828 145.291L68.1498 145.668L67.7898 146.386Z" fill="#1F2638"/>
<path d="M70.5123 147.607L61.7373 161.157L64.9023 161.497L71.5003 149.326L70.5123 147.607Z" fill="#1F2638"/>
<path d="M74.0684 150.098L78.6514 163.329C78.6514 163.329 81.5914 161.146 81.2314 161.146C80.8714 161.146 74.9454 149.326 74.9454 149.326L74.0684 150.098Z" fill="#1F2638"/>
<path d="M57.0518 145.668C57.0518 157.534 64.6698 167.153 74.0668 167.153C83.4638 167.153 91.0818 157.534 91.0818 145.668C91.0818 133.802 83.4638 124.183 74.0668 124.183C64.6698 124.183 57.0518 133.802 57.0518 145.668ZM61.6788 145.668C61.6788 135.914 67.6178 128.007 74.9448 128.007C82.2718 128.007 88.2108 135.914 88.2108 145.668C88.2108 155.422 82.2718 163.33 74.9448 163.33C67.6178 163.329 61.6788 155.422 61.6788 145.668Z" fill="#1F2638"/>
<path d="M55.082 145.668C55.082 157.534 62.7 167.153 72.097 167.153C81.494 167.153 89.112 157.534 89.112 145.668C89.112 133.802 81.494 124.183 72.097 124.183C62.7 124.183 55.082 133.802 55.082 145.668ZM59.552 145.668C59.552 135.914 65.491 128.007 72.818 128.007C80.145 128.007 86.084 135.914 86.084 145.668C86.084 155.422 80.145 163.33 72.818 163.33C65.491 163.329 59.552 155.422 59.552 145.668Z" fill="#566696"/>
<path d="M77.1438 145.668C77.1438 142.148 74.8838 139.295 72.0968 139.295C69.3098 139.295 67.0498 142.148 67.0498 145.668C67.0498 149.188 69.3098 152.041 72.0968 152.041C74.8838 152.041 77.1438 149.187 77.1438 145.668Z" fill="#566696"/>
<path d="M68.3962 126.561L71.9682 141.282L70.8462 142.524L64.9492 128.818L68.3962 126.561Z" fill="#566696"/>
<path d="M69.5742 144.825L59.1292 142.523L58.7832 145.667L69.5742 146.325V144.825Z" fill="#566696"/>
<path d="M69.0939 148.102L60.5859 158.695L62.5829 161.229L70.8459 149.123L69.0939 148.102Z" fill="#566696"/>
<path d="M72.7461 150.588C73.1061 151.099 76.4711 163.329 76.4711 163.329L79.1631 162.635L74.7411 149.85L72.7461 150.588Z" fill="#566696"/>
<path d="M75.5098 147.927C75.7978 147.927 86.8538 150.33 86.8538 150.33L87.6708 147.254L75.5098 145.668V147.927Z" fill="#566696"/>
<path d="M75.5103 142.928L82.4794 132.354L80.8214 129.662L74.0684 141.486L75.5103 142.928Z" fill="#566696"/>
<path d="M228.304 42.7241L222.887 42.249V42.7241L228.714 43.801L228.304 42.7241Z" fill="#1F2638"/>
<path d="M219.618 33.3085L220.63 39.8975L220.245 39.4755L218.271 33.9775L218.434 32.8955L219.618 33.3085Z" fill="#1F2638"/>
<path d="M226.951 36.093L222.433 41.425L222.052 40.613L225.833 34.957L226.951 36.093Z" fill="#1F2638"/>
<path d="M218.357 42.8182L213.478 43.0242L213.601 42.2402L218.547 42.4392L218.357 42.8182Z" fill="#1F2638"/>
<path d="M219.793 43.4639L215.16 50.6179L216.831 50.7979L220.315 44.3708L219.793 43.4639Z" fill="#1F2638"/>
<path d="M221.671 44.7791L224.091 51.7641C224.091 51.7641 225.643 50.6111 225.453 50.6111C225.263 50.6111 222.134 44.3701 222.134 44.3701L221.671 44.7791Z" fill="#1F2638"/>
<path d="M212.688 42.4397C212.688 48.7047 216.71 53.7838 221.672 53.7838C226.633 53.7838 230.656 48.7047 230.656 42.4397C230.656 36.1747 226.634 31.0957 221.672 31.0957C216.71 31.0957 212.688 36.1747 212.688 42.4397ZM215.13 42.4397C215.13 37.2897 218.266 33.1147 222.134 33.1147C226.002 33.1147 229.138 37.2897 229.138 42.4397C229.138 47.5897 226.002 51.7647 222.134 51.7647C218.266 51.7647 215.13 47.5897 215.13 42.4397Z" fill="#1F2638"/>
<path d="M211.646 42.4397C211.646 48.7047 215.668 53.7838 220.63 53.7838C225.592 53.7838 229.614 48.7047 229.614 42.4397C229.614 36.1747 225.592 31.0957 220.63 31.0957C215.668 31.0957 211.646 36.1747 211.646 42.4397ZM214.006 42.4397C214.006 37.2897 217.142 33.1147 221.01 33.1147C224.878 33.1147 228.014 37.2897 228.014 42.4397C228.014 47.5897 224.878 51.7647 221.01 51.7647C217.142 51.7647 214.006 47.5897 214.006 42.4397Z" fill="#566696"/>
<path d="M220.631 45.8043C222.103 45.8043 223.296 44.2976 223.296 42.4392C223.296 40.5808 222.103 39.0742 220.631 39.0742C219.159 39.0742 217.966 40.5808 217.966 42.4392C217.966 44.2976 219.159 45.8043 220.631 45.8043Z" fill="#566696"/>
<path d="M218.676 32.3516L220.562 40.1235L219.969 40.7795L216.856 33.5435L218.676 32.3516Z" fill="#566696"/>
<path d="M219.298 41.9953L213.784 40.7793L213.601 42.4393L219.298 42.7873V41.9953Z" fill="#566696"/>
<path d="M219.045 43.7246L214.553 49.3176L215.607 50.6556L219.97 44.2636L219.045 43.7246Z" fill="#566696"/>
<path d="M220.973 45.0375C221.163 45.3075 222.94 51.7645 222.94 51.7645L224.361 51.3975L222.026 44.6475L220.973 45.0375Z" fill="#566696"/>
<path d="M222.433 43.6315C222.585 43.6315 228.422 44.9005 228.422 44.9005L228.854 43.2765L222.433 42.4385V43.6315Z" fill="#566696"/>
<path d="M222.433 40.9923L226.112 35.4093L225.237 33.9883L221.671 40.2313L222.433 40.9923Z" fill="#566696"/>
</svg>
