<svg width="577" height="811" viewBox="0 0 577 811" fill="none" xmlns="http://www.w3.org/2000/svg">
<path d="M576.827 801.971C576.827 806.643 573.494 810.453 569.361 810.453H104.44C100.326 810.453 96.9805 806.643 96.9805 801.971V8.50077C96.9805 3.81048 100.326 0 104.44 0H569.361C573.494 0 576.827 3.81048 576.827 8.50077V801.971Z" fill="#99A3A4"/>
<path d="M479.844 801.971C479.844 806.643 476.51 810.453 472.384 810.453H7.46268C3.3548 810.453 0.0214844 806.643 0.0214844 801.971V8.50077C0.0214844 3.81048 3.3548 0 7.46268 0H472.384C476.51 0 479.844 3.81048 479.844 8.50077V801.971Z" fill="#ABB3B5"/>
<path d="M244.363 0H239.245V810.447H244.363V0Z" fill="#55626D"/>
<path d="M283.446 592.259C283.446 596.962 280.113 600.76 275.999 600.76C271.879 600.76 268.539 596.962 268.539 592.259V269.212C268.539 264.515 271.879 260.711 275.999 260.711C280.113 260.711 283.446 264.509 283.446 269.212V592.259Z" fill="white"/>
<path d="M201.406 592.259C201.406 596.962 198.073 600.76 193.94 600.76C189.826 600.76 186.486 596.962 186.486 592.259V269.212C186.486 264.515 189.826 260.711 193.94 260.711C198.073 260.711 201.406 264.509 201.406 269.212V592.259Z" fill="white"/>
<path d="M154.739 311.716C154.739 316.412 150.99 320.217 146.331 320.217H50.6725C46.007 320.217 42.2275 316.412 42.2275 311.716V286.207C42.2275 281.523 46.007 277.713 50.6725 277.713H146.331C150.99 277.713 154.739 281.523 154.739 286.207V311.716Z" fill="#5395A5"/>
<path d="M154.739 311.716C154.739 316.412 151.288 320.217 147.038 320.217H59.4466C55.1838 320.217 51.7266 316.412 51.7266 311.716V286.207C51.7266 281.523 55.19 277.713 59.4466 277.713H147.038C151.288 277.713 154.739 281.523 154.739 286.207V311.716Z" fill="#5CA3B7"/>
<path d="M60.8653 344.3C60.8653 348.996 57.0859 352.807 52.4328 352.807H50.32C45.6545 352.807 41.8936 348.996 41.8936 344.3V340.055C41.8936 335.359 45.6545 331.555 50.32 331.555H52.4328C57.0859 331.555 60.8653 335.359 60.8653 340.055V344.3Z" fill="#6A757D"/>
<path d="M90.4067 344.3C90.4067 348.996 86.6211 352.807 81.9556 352.807H79.8551C75.1958 352.807 71.4287 348.996 71.4287 344.3V340.055C71.4287 335.359 75.1958 331.555 79.8551 331.555H81.9556C86.6211 331.555 90.4067 335.359 90.4067 340.055V344.3Z" fill="#6A757D"/>
<path d="M124.175 344.3C124.175 348.996 120.408 352.807 115.742 352.807H113.629C108.964 352.807 105.172 348.996 105.172 344.3V340.055C105.172 335.359 108.964 331.555 113.629 331.555H115.742C120.408 331.555 124.175 335.359 124.175 340.055V344.3Z" fill="#6A757D"/>
<path d="M153.717 344.3C153.717 348.996 149.944 352.807 145.278 352.807H143.159C138.5 352.807 134.727 348.996 134.727 344.3V340.055C134.727 335.359 138.5 331.555 143.159 331.555H145.278C149.944 331.555 153.717 335.359 153.717 340.055V344.3Z" fill="#6A757D"/>
<path d="M157.936 547.276C157.936 551.967 154.163 555.777 149.504 555.777H50.32C45.6545 555.777 41.8936 551.967 41.8936 547.276V381.499C41.8936 376.803 45.6545 372.992 50.32 372.992H149.504C154.163 372.992 157.936 376.803 157.936 381.499V547.276Z" fill="#566471"/>
<path d="M157.936 547.276C157.936 551.967 154.986 555.777 151.337 555.777H73.7955C70.1585 555.777 67.2031 551.967 67.2031 547.276V381.499C67.2031 376.803 70.1647 372.992 73.7955 372.992H151.337C154.993 372.992 157.936 376.803 157.936 381.499V547.276Z" fill="#CECECE"/>
<g opacity="0.1">
<path d="M462.861 21.2573C462.861 25.9476 459.106 29.7705 454.434 29.7705H19.7246C15.0715 29.7705 11.2734 25.9538 11.2734 21.2573V17.0008C11.2734 12.3105 15.0715 8.5 19.7246 8.5H454.434C459.106 8.5 462.861 12.3105 462.861 17.0008V21.2573Z" fill="white"/>
</g>
<g opacity="0.1">
<path d="M462.861 786.37C462.861 791.061 459.106 794.877 454.434 794.877H19.7246C15.0715 794.877 11.2734 791.067 11.2734 786.37V782.126C11.2734 777.43 15.0715 773.619 19.7246 773.619H454.434C459.106 773.619 462.861 777.423 462.861 782.126V786.37Z" fill="white"/>
</g>
<g opacity="0.1">
<path d="M130.327 809.753H20.5791L162.347 0H272.101L130.327 809.753Z" fill="white"/>
</g>
<g opacity="0.1">
<path d="M341.334 809.753H231.611L373.386 0H483.103L341.334 809.753Z" fill="white"/>
</g>
</svg>
