<svg width="206" height="720" viewBox="0 0 206 720" fill="none" xmlns="http://www.w3.org/2000/svg">
<path d="M174.851 694.305C174.851 694.305 174.851 704.058 174.851 705.663C174.851 713.065 146.338 719.07 111.169 719.07C103.379 719.07 95.9163 718.775 89.0103 718.232C77.9073 717.371 68.2643 715.866 61.0793 713.941C52.5683 711.66 47.4863 708.789 47.4863 705.662C47.4863 704.041 47.4863 694.304 47.4863 694.304C50.2643 692.713 58.3022 698.005 63.5542 696.756C75.2232 693.994 92.2302 692.256 111.169 692.256C129.51 692.256 146.044 693.885 157.666 696.5C163.493 697.812 171.887 692.583 174.851 694.305Z" fill="#DE8714"/>
<path d="M174.851 694.305C174.851 701.707 146.338 707.712 111.169 707.712C103.022 707.712 95.2333 707.394 88.0723 706.804C77.7613 705.958 68.7533 704.562 61.8643 702.793C52.8803 700.481 47.4873 697.525 47.4873 694.305C47.4873 686.903 76.0002 680.898 111.17 680.898C121.551 680.898 131.358 681.418 140.016 682.349C147.891 683.195 154.819 684.374 160.382 685.794C160.405 685.802 160.421 685.81 160.421 685.81C169.436 688.121 174.851 691.078 174.851 694.305Z" fill="#FFB742"/>
<path d="M89.011 718.233C77.908 717.372 68.2651 715.867 61.0801 713.942V700.535L89.011 705.663C89.011 705.663 89.027 715.238 89.011 718.233Z" fill="#FCBF5B"/>
<path d="M160.382 685.794C160.405 685.802 108.376 694.305 108.376 694.305L88.0723 706.804C77.7613 705.958 68.7533 704.562 61.8643 702.793L113.591 692.265C113.591 692.265 130.388 685.88 140.017 682.35L160.382 685.794Z" fill="#FCCA79"/>
<path d="M112.475 219.382C113.065 225.702 112.825 234.822 112.625 239.612C112.545 241.602 112.475 242.842 112.475 242.842C112.475 242.842 105.775 256.802 105.775 237.812C105.775 218.822 105.215 210.812 100.555 204.292C95.905 197.782 89.0151 199.082 85.6651 198.892C82.3051 198.712 62.945 199.082 48.045 198.892C33.155 198.712 23.8351 198.522 14.3451 193.682C4.84506 188.842 4.10514 175.622 3.17514 167.432C2.23514 159.232 2.98506 145.082 4.84506 135.772C6.70506 126.462 17.8851 120.132 23.6551 119.762C29.4251 119.392 67.9752 119.762 82.4952 119.762C97.0152 119.762 100.265 115.822 102.475 113.752C105.635 110.802 106.535 103.192 106.325 97.2319C106.155 92.3319 110.605 87.532 112.245 92.512C112.605 93.592 112.825 95.1319 112.845 97.2319C112.935 109.002 111.915 113.662 107.295 119.392C104.265 123.142 98.6851 125.152 93.4251 126.092C90.6551 126.592 87.965 126.792 85.795 126.792C79.515 126.792 55.3552 126.512 43.4852 126.232C34.8452 126.032 26.9451 125.602 21.1351 127.432C21.1351 127.442 21.1251 127.442 21.1251 127.442C18.9551 128.122 17.075 129.122 15.555 130.562C9.96502 135.862 10.105 147.042 9.82504 152.622C9.54504 158.212 8.29513 176.642 15.4151 185.022C18.1451 188.232 21.725 189.992 25.525 190.932C26.035 191.062 26.545 191.172 27.065 191.272C27.075 191.272 27.0851 191.272 27.0851 191.272C32.7451 192.362 38.735 191.872 43.065 191.872C50.745 191.872 65.1351 191.592 75.8851 191.312C86.1351 191.042 94.365 191.412 102.005 196.172H102.015C102.385 196.402 102.745 196.642 103.115 196.892C111.074 202.342 111.635 210.442 112.475 219.382Z" fill="#E89E27"/>
<path d="M112.624 239.611C112.144 239.411 111.344 238.801 111.344 236.981C111.344 234.371 111.225 217.271 109.965 210.911C108.695 204.551 106.204 200.081 103.534 198.551C100.014 196.541 100.284 196.011 102.004 196.171H102.014C102.384 196.401 102.744 196.641 103.114 196.891C111.074 202.341 111.635 210.441 112.475 219.381C113.064 225.702 112.823 234.822 112.624 239.611Z" fill="#DE8714"/>
<path d="M116.384 693.462C116.384 693.462 114.764 694.272 112.964 694.762C112.174 694.972 111.354 695.132 110.614 695.132C108.194 695.132 105.774 693.642 105.774 693.642L103.534 243.822L114.704 242.652L114.714 246.672L116.384 693.462Z" fill="#E89E27"/>
<path d="M116.385 693.462C116.385 693.462 114.765 694.272 112.965 694.762L111.885 246.102L114.715 246.672L116.385 693.462Z" fill="#DE8714"/>
<path d="M72.4388 122.552C72.4388 122.552 92.8909 124.414 99.0509 120.318C105.211 116.222 108.284 111.008 108.935 107.749C109.587 104.49 109.683 97.042 109.683 97.042H107.295C107.295 97.042 107.353 105.235 106.236 108.587C105.119 111.939 102.686 116.638 96.1808 119.666C89.6758 122.694 78.6778 121.9 75.6978 121.807C72.7178 121.714 66.9438 122.223 72.4388 122.552Z" fill="#FCBF5B"/>
<path d="M35.6628 122.319C27.7058 122.098 17.8528 123 13.2248 128.045C7.76979 133.991 6.60975 140.484 6.61175 153.467C6.61375 166.45 6.33473 175.807 8.98773 181.672C11.6407 187.538 14.9827 192.006 21.1327 193.263C27.2827 194.52 41.9458 195.078 48.3698 195.078C54.7938 195.078 83.2838 194.799 87.8918 195.078C92.5008 195.357 102.556 198.709 105.209 205.413C107.863 212.116 108.838 219.02 108.98 227.199C109.122 235.378 109.245 241.914 108.421 242.654C107.597 243.394 106.606 239.907 106.606 232.366C106.606 224.825 105.489 213.233 104.511 209.602C103.533 205.971 100.042 200.804 95.0146 198.849C89.9866 196.894 66.9438 196.894 55.6318 197.173C44.3198 197.452 24.7677 197.871 15.9697 193.263C7.17166 188.654 4.93676 178.739 4.51776 173.013C4.09876 167.287 3.07176 152.739 4.51776 142.568C5.96376 132.397 8.81574 129.61 11.1747 126.74C13.5337 123.871 19.3676 121.154 22.1606 120.875C24.9536 120.596 34.9158 120.875 39.8508 120.875C44.7858 120.875 44.0418 122.552 35.6628 122.319Z" fill="#FCBF5B"/>
<path d="M109.084 244.657C109.084 244.657 108.599 652.267 108.842 657.894C109.085 663.521 106.912 667.055 106.887 662.363C106.862 657.671 104.652 244.657 104.652 244.657H109.084Z" fill="#FCBF5B"/>
<path d="M116.944 238.372V246.332C116.944 248.012 115.404 248.432 114.144 248.432H105.354C105.104 248.432 104.864 248.382 104.624 248.292C103.544 247.902 102.694 246.722 102.694 245.912C102.694 244.932 102.694 238.372 102.694 238.372C102.694 236.562 103.524 235.572 105.764 235.442C107.604 235.332 110.844 235.402 112.874 235.432C113.314 235.442 113.704 235.442 114.004 235.442C115.684 235.442 116.944 236.562 116.944 238.372Z" fill="#E89E27"/>
<path d="M109.085 248.432H105.355C105.105 248.432 104.865 248.382 104.625 248.292C104.595 245.892 104.555 241.572 104.655 238.992C104.805 235.272 108.965 237.792 108.965 238.152C108.965 238.432 109.045 245.252 109.085 248.432Z" fill="#FCBF5B"/>
<path d="M116.945 238.372V246.332C116.945 248.012 115.405 248.432 114.145 248.432H112.915C113.135 244.312 112.975 238.652 112.875 235.432C113.315 235.442 113.705 235.442 114.005 235.442C115.685 235.442 116.945 236.562 116.945 238.372Z" fill="#DE8714"/>
<path d="M25.5235 192.552C19.9035 190.932 13.9635 188.412 11.8035 183.372C9.64355 178.332 8.02359 172.572 7.84359 161.412C7.66359 150.252 9.10364 144.402 9.64364 138.192C10.1546 132.318 15.1435 127.662 19.2735 126.402C23.4035 125.142 24.8536 125.142 21.1336 127.432C21.1336 127.442 21.1236 127.442 21.1236 127.442C18.9536 128.122 17.0735 129.122 15.5535 130.562C9.96355 135.862 10.1036 147.042 9.82357 152.622C9.54357 158.212 8.29366 176.642 15.4137 185.022C18.1437 188.232 21.7235 189.992 25.5235 190.932C26.0935 191.022 26.6136 191.142 27.0636 191.272C27.0736 191.272 27.0836 191.272 27.0836 191.272C30.6346 192.262 30.5035 193.982 25.5235 192.552Z" fill="#DE8714"/>
<path d="M107.293 119.392C104.263 123.142 98.6833 125.152 93.4233 126.092H93.4133C89.9833 125.352 93.2531 124.682 95.9931 123.792C97.7631 123.212 104.203 120.792 107.293 115.752C110.383 110.712 111.583 103.392 111.343 96.5517C111.273 94.5917 111.663 93.3217 112.243 92.5117C112.603 93.5917 112.823 95.1317 112.843 97.2317C112.934 109.002 111.914 113.662 107.293 119.392Z" fill="#DE8714"/>
<path d="M118.474 99.9718C118.044 100.102 116.154 100.152 113.724 100.142C108.304 100.112 100.164 99.7619 99.4844 99.2719C98.5044 98.5819 99.4844 90.2019 99.4844 90.2019C99.4844 90.2019 116.114 85.0319 119.634 89.2119C120.044 89.6919 120.284 90.2918 120.294 91.0418C120.434 98.3018 119.874 99.5518 118.474 99.9718Z" fill="#E89E27"/>
<path d="M118.475 99.9723C118.045 100.102 116.155 100.152 113.725 100.142C114.055 99.7223 114.524 99.1123 114.854 98.2323C115.574 96.3223 115.304 93.7323 115.754 88.1523C115.754 88.1523 117.575 88.6123 119.635 89.2123C120.045 89.6923 120.284 90.2923 120.294 91.0423C120.434 98.3023 119.875 99.5523 118.475 99.9723Z" fill="#DE8714"/>
<path d="M102.13 85.632C102.13 85.632 101.562 97.682 102.13 98.712C102.698 99.742 104.895 99.911 107.247 99.989C109.599 100.067 109.084 84.7529 109.084 84.7529L102.13 85.632Z" fill="#FCBF5B"/>
<path d="M205.205 95.9219L131.735 93.8119L69.0446 92.0119L38.2545 91.1319H38.2448L10.8046 90.342C10.8046 90.342 8.71455 89.3619 9.50455 87.5419C10.2945 85.7319 12.3447 85.5319 13.1747 84.3319C14.2247 82.8319 58.2846 1.52195 58.2846 1.52195C59.5046 -0.648047 62.0846 0.0269584 68.0646 0.401958C68.0646 0.401958 74.9748 0.261958 81.2448 0.401958C93.2048 0.661958 111.075 1.33195 127.295 2.02195C147.315 2.88195 164.805 3.7819 165.545 4.0319C167.215 4.5919 164.985 8.50196 165.825 9.90196C166.655 11.292 176.715 30.5619 180.065 38.6619C183.415 46.7619 201.295 90.3419 203.525 91.7319C205.764 93.1319 205.205 95.9219 205.205 95.9219Z" fill="#F5A869"/>
<path d="M203.523 91.7314C201.293 90.3414 183.413 46.7614 180.063 38.6614C176.713 30.5614 166.653 11.2915 165.823 9.90149C164.983 8.50149 167.213 4.59143 165.543 4.03143C164.803 3.78143 147.313 2.88148 127.293 2.02148H127.204C128.564 3.25148 127.963 5.08145 125.503 6.55145C120.223 6.49145 108.877 5.21047 110.893 6.88147C121.011 15.2695 121.566 34.6155 127.227 81.7045C127.473 85.2985 127.718 87.4895 127.944 87.5825C129.344 88.1525 132.803 89.5124 131.733 93.8124L205.204 95.9225C205.204 95.9225 205.763 93.1314 203.523 91.7314Z" fill="#ED833C"/>
<path d="M81.2432 0.402258C74.9732 0.262258 70.3234 0.232219 68.4034 0.362219C68.3234 0.372219 68.2534 0.382239 68.1934 0.382239C68.1634 0.392239 68.1434 0.392248 68.1234 0.392248C68.0834 0.402248 68.0633 0.402258 68.0633 0.402258L69.0433 4.63224L54.7313 44.1993C46.2373 63.5293 40.2634 76.7762 38.0094 79.7952C35.1964 83.5622 26.3972 90.5212 30.3062 90.9192C31.8492 91.0762 34.7514 91.0762 37.9644 91.0052C38.0554 91.0482 38.1432 91.0922 38.2432 91.1332H38.2533L69.0433 92.0132C70.3033 89.2332 69.0433 84.7532 69.0433 84.7532L78.9434 4.81321C78.9434 4.81321 82.2732 1.93226 81.2432 0.402258Z" fill="#FFCE99"/>
<path d="M13.2246 153.832C13.2246 155.602 11.4645 158.002 9.5945 158.012C9.0845 158.012 8.47448 158.022 7.82448 158.032C6.11448 158.052 4.10444 158.082 2.77444 158.012C0.934436 157.932 -0.0755835 155.522 0.00441653 153.462C0.0644165 151.852 1.40451 148.992 4.10451 148.992C5.98451 148.992 6.86449 148.882 8.08449 148.882C8.61449 148.882 9.21464 148.892 9.98464 148.952C12.4936 149.142 13.2246 152.062 13.2246 153.832Z" fill="#E89E27"/>
<path d="M2.26343 156.012C1.42143 154.328 1.62344 149.892 3.77344 150.012C5.92344 150.132 7.21347 149.592 7.30347 150.672C7.39347 151.752 4.42348 151.392 4.06348 152.532C3.70448 153.672 3.34343 158.172 2.26343 156.012Z" fill="#FCBF5B"/>
<path d="M13.2244 153.832C13.2244 155.602 11.4642 158.002 9.59424 158.012C9.08424 158.012 8.47422 158.022 7.82422 158.032C7.82422 158.032 9.35423 156.93 9.95923 155.134C10.5242 153.457 9.82438 150.927 8.74438 149.561L8.08423 148.881C8.61423 148.881 9.21438 148.891 9.98438 148.951C12.4934 149.142 13.2244 152.062 13.2244 153.832Z" fill="#DE8714"/>
</svg>
