<svg width="346" height="813" viewBox="0 0 346 813" fill="none" xmlns="http://www.w3.org/2000/svg">
<path d="M345.489 0.564453H0V812.728H345.489V0.564453Z" fill="#6F7070"/>
<path d="M278.134 0.564453H0V452.109H278.134V0.564453Z" fill="#919191"/>
<path d="M278.134 462.549H0V812.728H278.134V462.549Z" fill="#919191"/>
<path d="M196.794 92.9336H69.8584V198.158H196.794V92.9336Z" fill="#C6C8C6"/>
<path d="M178.727 106.91H86.4639V180.356H178.727V106.91Z" fill="#27404E"/>
<path d="M180.065 106.91H95.3242V180.356H180.065V106.91Z" fill="#396576"/>
<path d="M121.142 109.557H101.941V176.02H121.142V109.557Z" fill="#315B68"/>
<path d="M172.859 109.557H128.54V141.131H172.859V109.557Z" fill="#315B68"/>
<path d="M171.378 149.439H128.54V174.365H171.378V149.439Z" fill="#315B68"/>
<path d="M31.494 272.41H18.5693V438.59H31.494V272.41Z" fill="#C6C8C6"/>
<path d="M27.1753 272.41H18.2842V438.59H27.1753V272.41Z" fill="#DDDDDD"/>
<path d="M31.494 481.799H18.5693V647.985H31.494V481.799Z" fill="#C6C8C6"/>
<path d="M27.1753 481.799H18.2842V647.985H27.1753V481.799Z" fill="#DDDDDD"/>
<g opacity="0.1">
<path d="M133.93 451.892H15.2539L153.305 0.558594H271.609L133.93 451.892Z" fill="white"/>
</g>
<g opacity="0.1">
<path d="M106.191 812.672H15.2539L122.808 462.412H213.752L106.191 812.672Z" fill="white"/>
</g>
</svg>
