<svg width="330" height="813" viewBox="0 0 330 813" fill="none" xmlns="http://www.w3.org/2000/svg">
<path d="M329.888 0H0V812.356H329.888V0Z" fill="#8C9907"/>
<path d="M251.336 0H0V812.356H251.336V0Z" fill="#BDC020"/>
<path d="M231.714 20.3848H19.6348V788.638H231.714V20.3848Z" fill="#8C9907"/>
<path d="M120.615 20.3848H19.6348V788.638H120.615V20.3848Z" fill="#7A7F06"/>
<path d="M235.63 215.469H15.707V241.671H235.63V215.469Z" fill="#BDC020"/>
<path d="M235.63 419.289H15.707V445.491H235.63V419.289Z" fill="#BDC020"/>
<path d="M235.63 599.824H15.707V626.027H235.63V599.824Z" fill="#BDC020"/>
<path d="M112.43 133.923C112.43 138.211 110.219 141.712 107.505 141.712H88.6692C85.9492 141.712 83.7559 138.211 83.7559 133.923V97.603C83.7559 93.2969 85.9492 89.8086 88.6692 89.8086H107.505C110.219 89.8086 112.43 93.2969 112.43 97.603V133.923Z" fill="#D3D7C0"/>
<path d="M102.598 133.923C102.598 138.211 100.398 141.712 97.6844 141.712H78.8428C76.1228 141.712 73.917 138.211 73.917 133.923V97.603C73.917 93.2969 76.129 89.8086 78.8428 89.8086H97.6844C100.398 89.8086 102.598 93.2969 102.598 97.603V133.923Z" fill="#EAEDD9"/>
<path d="M127.593 207.878C127.593 212.177 124.457 215.66 120.604 215.66H84.4321C80.5658 215.66 77.4307 212.177 77.4307 207.878V111.854C77.4307 107.572 80.5658 104.084 84.4321 104.084H120.604C124.457 104.084 127.593 107.572 127.593 111.854V207.878Z" fill="#D3D7C0"/>
<path d="M110.095 207.878C110.095 212.177 106.96 215.66 103.087 215.66H66.9281C63.0619 215.66 59.9268 212.177 59.9268 207.878V111.854C59.9268 107.572 63.0619 104.084 66.9281 104.084H103.087C106.96 104.084 110.095 107.572 110.095 111.854V207.878Z" fill="#EAEDD9"/>
<path d="M101.575 184.928C101.575 191.353 96.8851 196.576 91.1043 196.576H84.1215C78.3345 196.576 73.6504 191.353 73.6504 184.928V138.335C73.6504 131.898 78.3407 126.699 84.1215 126.699H91.1043C96.8913 126.699 101.575 131.904 101.575 138.335V184.928Z" fill="#F6AF47"/>
<path d="M175.028 150.312C175.028 153.744 173.262 156.539 171.087 156.539H156.019C153.838 156.539 152.091 153.738 152.091 150.312V121.266C152.091 117.827 153.838 115.045 156.019 115.045H171.087C173.256 115.045 175.028 117.833 175.028 121.266V150.312Z" fill="#D3D7C0"/>
<path d="M167.153 150.312C167.153 153.744 165.393 156.539 163.218 156.539H148.162C145.987 156.539 144.24 153.738 144.24 150.312V121.266C144.24 117.827 145.987 115.045 148.162 115.045H163.218C165.393 115.045 167.153 117.833 167.153 121.266V150.312Z" fill="#EAEDD9"/>
<path d="M187.147 209.433C187.147 212.884 184.65 215.66 181.552 215.66H152.63C149.538 215.66 147.035 212.878 147.035 209.433V132.678C147.035 129.239 149.538 126.451 152.63 126.451H181.552C184.65 126.451 187.147 129.246 187.147 132.678V209.433Z" fill="#D3D7C0"/>
<path d="M173.157 209.433C173.157 212.884 170.641 215.66 167.568 215.66H138.64C135.548 215.66 133.051 212.878 133.051 209.433V132.678C133.051 129.239 135.548 126.451 138.64 126.451H167.568C170.641 126.451 173.157 129.246 173.157 132.678V209.433Z" fill="#EAEDD9"/>
<path d="M166.341 191.094C166.341 196.237 162.58 200.394 157.958 200.394H152.388C147.753 200.394 144.005 196.237 144.005 191.094V153.838C144.005 148.696 147.753 144.52 152.388 144.52H157.958C162.574 144.52 166.341 148.696 166.341 153.838V191.094Z" fill="#47B3B3"/>
<path d="M70.3662 406.222C70.3662 412.647 72.8074 417.87 75.8434 417.87H179.885C182.915 417.87 185.362 412.647 185.362 406.222V361.574H70.3662V406.222Z" fill="#47B3B3"/>
<path d="M45.7197 406.222C45.7197 412.647 48.1734 417.87 51.2094 417.87H155.251C158.274 417.87 160.722 412.647 160.722 406.222V361.574H45.7197V406.222Z" fill="#61C9C6"/>
<path d="M86.0791 353.81C86.0791 360.236 88.5326 365.452 91.55 365.452H195.598C198.615 365.452 201.075 360.229 201.075 353.81V309.15H86.0791V353.81Z" fill="#F6AF47"/>
<path d="M61.4258 353.81C61.4258 360.236 63.8733 365.452 66.9154 365.452H170.957C173.987 365.452 176.44 360.229 176.44 353.81V309.15H61.4258V353.81Z" fill="#FFC271"/>
<path d="M176.012 510.493C176.012 525.927 164.773 538.424 150.894 538.424C137.015 538.424 125.764 525.927 125.764 510.493C125.764 495.059 137.009 482.543 150.894 482.543C164.773 482.543 176.012 495.059 176.012 510.493Z" fill="#F2C341"/>
<path d="M111.061 530.933C111.061 546.373 99.8091 558.889 85.9241 558.889C72.0577 558.889 60.7998 546.373 60.7998 530.933C60.7998 515.517 72.0515 503.008 85.9241 503.008C99.8029 503.002 111.061 515.511 111.061 530.933Z" fill="#7BBD3F"/>
<path d="M149.048 518.678C149.048 534.105 137.796 546.615 123.911 546.615C110.051 546.615 98.793 534.105 98.793 518.678C98.793 503.244 110.045 490.74 123.911 490.74C137.796 490.74 149.048 503.237 149.048 518.678Z" fill="#E54137"/>
<path d="M194.403 533.66C194.403 549.1 183.157 561.61 169.278 561.61C155.4 561.61 144.142 549.1 144.142 533.66C144.142 518.226 155.393 505.723 169.278 505.723C183.151 505.723 194.403 518.226 194.403 533.66Z" fill="#FF8F29"/>
<path d="M134.333 598.4C168.268 598.4 196.193 569.218 200.022 531.621H68.6562C72.4977 569.218 100.416 598.4 134.333 598.4Z" fill="#BC3542"/>
<path d="M115.956 598.4C149.891 598.4 177.81 569.218 181.651 531.621H50.2734C54.1087 569.218 82.0211 598.4 115.956 598.4Z" fill="#FF685B"/>
</svg>
