<svg width="297" height="265" viewBox="0 0 297 265" fill="none" xmlns="http://www.w3.org/2000/svg">
<path d="M296.359 253.365C296.359 259.786 230.023 265 148.182 265C66.3413 265 0 259.786 0 253.365C0 246.939 66.3413 241.736 148.182 241.736C230.023 241.734 296.359 246.936 296.359 253.365Z" fill="url(#paint0_radial_636_2432)"/>
<path d="M66.5859 236.474C66.5859 236.474 218.887 176.15 129.176 137.54C39.4649 98.9332 110.4 12.067 110.4 12.067L279.392 10.8594C279.392 10.8594 153.168 93.5035 227.234 136.333C301.297 179.167 66.5859 236.474 66.5859 236.474Z" fill="#1FC3F3"/>
<path d="M172.604 166.67C172.607 166.542 172.607 166.418 172.607 166.289C172.607 152.709 161.887 141.212 140.736 132.108C118.202 122.411 104.626 108.744 100.393 91.4901C99.3664 87.307 98.9118 83.0573 98.9118 78.8169C98.9118 51.9576 117.008 25.461 122.562 17.9605C127.146 17.9283 223.795 17.2395 261.663 16.9686C261.689 16.9526 261.716 16.9296 261.741 16.9089C232.887 17.1156 119.196 17.926 114.218 17.9605C108.665 25.4633 90.5664 51.9599 90.5664 78.8169C90.5664 83.0596 91.021 87.3093 92.0472 91.4901C96.2831 108.746 109.854 122.413 132.39 132.108C153.54 141.209 164.259 152.709 164.259 166.289C164.259 166.418 164.259 166.542 164.254 166.67C164 184.163 144.944 201.058 123.941 214.454C129.389 212.732 134.84 210.948 140.251 209.119C157.877 196.703 172.382 181.913 172.604 166.67Z" fill="#89D4EB"/>
<path d="M235.445 155.563C235.496 155.228 235.521 154.888 235.521 154.55C235.521 150.271 231.662 145.87 224.028 141.455C207.045 131.633 198.218 118.9 197.795 103.605C197.786 103.236 197.777 102.866 197.777 102.496C197.777 69.7712 237.47 34.6605 260.305 17.1545C253.011 17.2051 245.17 17.2625 237.139 17.3199C214.277 34.8787 174.832 69.8722 174.832 102.496C174.832 102.866 174.834 103.236 174.844 103.605C175.271 118.9 184.098 131.633 201.078 141.455C208.712 145.868 212.569 150.269 212.569 154.55C212.569 154.89 212.548 155.228 212.498 155.563C211.678 161.28 205.787 167.451 196.429 173.76C194.668 179.782 190.905 185.678 185.848 191.335C213.559 179.231 233.868 166.556 235.445 155.563Z" fill="#00B4E5"/>
<path d="M206.398 154.549C206.398 150.269 202.538 145.868 194.907 141.453C177.924 131.631 169.099 118.898 168.676 103.603C168.665 103.234 168.66 102.864 168.66 102.495C168.66 69.9093 208.018 34.9548 230.89 17.3777C192.446 17.6532 152.599 17.9355 149.694 17.9562C144.143 25.4591 126.047 51.9557 126.047 78.8127C126.047 83.0555 126.497 87.3051 127.525 91.4858C131.757 108.742 145.33 122.409 167.868 132.104C188.999 141.198 199.721 152.689 199.739 166.253C203.518 162.57 205.833 158.982 206.326 155.559C206.375 155.226 206.398 154.888 206.398 154.549Z" fill="url(#paint1_linear_636_2432)"/>
<path d="M279.398 12.0671C279.398 18.7297 241.564 24.1295 194.901 24.1295C148.238 24.1295 110.406 18.7274 110.406 12.0671C110.406 5.40449 148.24 0 194.901 0C241.564 0 279.398 5.40219 279.398 12.0671Z" fill="#00B4E5"/>
<path d="M121.918 12.067C133.03 14.9529 157.506 18.2176 194.89 18.2176C232.273 18.2176 256.752 14.9529 267.864 12.067C256.752 9.17883 232.273 5.91406 194.89 5.91406C157.506 5.91406 133.03 9.17654 121.918 12.067Z" fill="url(#paint2_linear_636_2432)"/>
<path d="M293.295 30.668C293.295 30.668 156.617 83.3741 251.345 134.152C251.345 134.152 187.015 83.808 293.295 30.668Z" fill="#00B4E5"/>
<path d="M89.3984 141.478C89.3984 141.478 192.88 158.261 117.367 189.025C117.367 189.025 156.52 172.245 89.3984 141.478Z" fill="#00B4E5"/>
<path d="M64.3521 218.628C64.3521 212.452 59.3425 207.443 53.1643 207.443C46.9862 207.443 41.9766 212.452 41.9766 218.628C41.9766 224.806 46.9862 229.816 53.1643 229.816C59.3425 229.816 64.3521 224.806 64.3521 218.628Z" fill="#00B4E5"/>
<path d="M89.516 201.848C89.516 195.669 84.5065 190.66 78.3283 190.66C72.1502 190.66 67.1406 195.669 67.1406 201.848C67.1406 208.023 72.1502 213.033 78.3283 213.033C84.5065 213.033 89.516 208.026 89.516 201.848Z" fill="#00B4E5"/>
<path d="M58.7593 187.864C58.7593 185.549 55.001 183.669 50.3679 183.669C45.7349 183.669 41.9766 185.549 41.9766 187.864C41.9766 190.18 45.7349 192.058 50.3679 192.058C55.001 192.058 58.7593 190.18 58.7593 187.864Z" fill="#00B4E5"/>
<path d="M101.286 240.48C101.286 238.161 99.408 236.283 97.0891 236.283C94.7726 236.283 92.8945 238.161 92.8945 240.48C92.8945 242.795 94.7726 244.675 97.0891 244.675C99.408 244.673 101.286 242.795 101.286 240.48Z" fill="#00B4E5"/>
<defs>
<radialGradient id="paint0_radial_636_2432" cx="0" cy="0" r="1" gradientUnits="userSpaceOnUse" gradientTransform="translate(149.052 254.474) scale(148.188 11.6413)">
<stop offset="0.0057" stop-color="#C5C8CB"/>
<stop offset="0.4138" stop-color="#DEE0E2"/>
<stop offset="1" stop-color="white"/>
</radialGradient>
<linearGradient id="paint1_linear_636_2432" x1="126.939" y1="91.8183" x2="231.781" y2="91.8183" gradientUnits="userSpaceOnUse">
<stop offset="0.0057" stop-color="#1FC3F3"/>
<stop offset="0.2295" stop-color="#44CBF5"/>
<stop offset="0.7584" stop-color="#97DDF8"/>
<stop offset="1" stop-color="#B8E4FA"/>
</linearGradient>
<linearGradient id="paint2_linear_636_2432" x1="122.824" y1="12.0647" x2="268.77" y2="12.0647" gradientUnits="userSpaceOnUse">
<stop offset="0.0057" stop-color="#1FC3F3"/>
<stop offset="0.2295" stop-color="#44CBF5"/>
<stop offset="0.7584" stop-color="#97DDF8"/>
<stop offset="1" stop-color="#B8E4FA"/>
</linearGradient>
</defs>
</svg>
