<svg width="354" height="371" viewBox="0 0 354 371" fill="none" xmlns="http://www.w3.org/2000/svg">
<path d="M334.092 129.075C334.092 107.112 319.216 88.668 299.005 83.146C291.876 53.209 265.025 30.917 232.905 30.917C227.184 30.917 221.656 31.702 216.347 33.033C201.305 13.011 177.433 0 150.463 0C114.23 0 83.5299 23.405 72.4689 55.893C32.0429 58.396 0.00390625 91.881 0.00390625 132.94C0.00390625 157.514 12.0099 181.04 31.8829 195.491C65.6289 220.029 118.467 211.262 158.04 211.262C198.215 211.262 242.221 218.003 281.35 206.041C314.38 195.944 331.338 165.423 333.898 132.926C333.999 131.652 334.092 130.375 334.092 129.075Z" fill="#7097B2"/>
<path d="M150.46 164.888C195.992 164.888 232.904 127.977 232.904 82.444C232.904 36.9114 195.992 0 150.46 0C104.927 0 68.0156 36.9114 68.0156 82.444C68.0156 127.977 104.927 164.888 150.46 164.888Z" fill="#7097B2"/>
<path d="M232.903 166.949C270.467 166.949 300.919 136.497 300.919 98.933C300.919 61.3688 270.467 30.917 232.903 30.917C195.339 30.917 164.887 61.3688 164.887 98.933C164.887 136.497 195.339 166.949 232.903 166.949Z" fill="#7097B2"/>
<path d="M77.291 210.232C119.978 210.232 154.582 175.628 154.582 132.941C154.582 90.2543 119.978 55.6499 77.291 55.6499C34.6044 55.6499 0 90.2543 0 132.941C0 175.628 34.6044 210.232 77.291 210.232Z" fill="#7097B2"/>
<path d="M333.898 132.941C333.898 90.254 295.171 119.029 252.485 119.029C209.799 119.029 179.316 90.255 179.316 132.941C179.316 175.627 213.92 210.232 256.607 210.232C299.294 210.231 333.898 175.627 333.898 132.941Z" fill="#7097B2"/>
<path d="M235.994 210.232C278.681 210.232 313.285 175.628 313.285 132.941C313.285 90.2543 278.681 55.6499 235.994 55.6499C193.307 55.6499 158.703 90.2543 158.703 132.941C158.703 175.628 193.307 210.232 235.994 210.232Z" fill="#7097B2"/>
<path d="M320.119 162.78C338.733 144.167 338.733 113.989 320.119 95.3754C301.506 76.762 271.328 76.762 252.714 95.3754C234.101 113.989 234.101 144.167 252.714 162.78C271.328 181.394 301.506 181.394 320.119 162.78Z" fill="#7097B2"/>
<path d="M239.367 211.262H95.0475C43.6935 211.262 2.0625 172.208 2.0625 120.853V120.059H332.352V120.853C332.352 172.207 290.721 211.262 239.367 211.262Z" fill="#7097B2"/>
<path opacity="0.2" d="M280.573 169.201C239.958 181.342 194.922 173.481 153.299 174.162C117.209 174.75 74.46 181.8 41.198 164.205C21.616 153.846 7.643 135.3 2.388 114.179C0.883 120.193 0 126.457 0 132.942C0 157.515 12.005 181.041 31.881 195.492C65.625 220.03 118.462 211.263 158.036 211.263C198.211 211.263 242.218 218.004 281.348 206.042C314.379 195.945 331.334 165.423 333.895 132.927C333.995 131.654 334.088 130.377 334.088 129.077C334.088 123.327 333.019 117.845 331.152 112.746C324.737 138.734 308.16 160.954 280.573 169.201Z" fill="#7097B2"/>
<path opacity="0.3" d="M56.9339 72.139C43.4659 73.488 30.4559 82.461 24.398 94.573C21.751 99.866 19.2719 107.988 21.3939 113.892C26.1349 127.075 51.8549 105.002 56.6879 101.133C62.0299 96.857 70.3699 91.7769 74.2829 86.0979C81.9379 74.9889 66.2249 71.209 56.9339 72.139Z" fill="white"/>
<path opacity="0.3" d="M131.133 10.306C117.666 11.655 104.655 20.628 98.5972 32.74C95.9502 38.033 93.4711 46.1549 95.5931 52.0589C100.334 65.2419 126.054 43.169 130.887 39.3C136.229 35.024 144.569 29.9439 148.482 24.2649C156.138 13.1559 140.425 9.37596 131.133 10.306Z" fill="white"/>
<path opacity="0.3" d="M218.536 42.967C209.395 43.369 200.274 48.9339 195.728 56.8799C193.741 60.3519 191.762 65.741 192.971 69.806C195.673 78.883 213.867 64.956 217.275 62.527C221.042 59.843 226.863 56.7289 229.719 53.0439C235.306 45.8349 224.843 42.69 218.536 42.967Z" fill="white"/>
<path opacity="0.3" d="M169.456 26.7939C175.395 26.7939 180.209 23.3336 180.209 19.0649C180.209 14.7963 175.395 11.3359 169.456 11.3359C163.517 11.3359 158.703 14.7963 158.703 19.0649C158.703 23.3336 163.517 26.7939 169.456 26.7939Z" fill="white"/>
<path d="M34.6212 237.537C34.6462 230.004 40.8121 212.447 48.3461 212.472C55.8791 212.497 61.9271 230.095 61.9021 237.629C61.8771 245.162 55.7491 251.249 48.2161 251.224C40.6831 251.199 34.5962 245.071 34.6212 237.537Z" fill="#ACEEF9"/>
<path opacity="0.2" d="M58.7229 224.025C59.5069 226.97 59.9509 229.732 59.9439 231.759C59.9199 239.292 53.7919 245.378 46.2599 245.353C41.3889 245.337 37.1559 242.751 34.7539 238.903C35.4249 245.788 41.1499 251.199 48.2159 251.222C55.7499 251.247 61.8779 245.161 61.9029 237.627C61.9109 234.275 60.7149 228.93 58.7229 224.025Z" fill="#ACEEF9"/>
<path opacity="0.5" d="M40.4368 224.022C36.5718 229.643 35.5458 238.94 39.9478 240.163C44.3498 241.386 45.5728 237.473 46.3068 230.625C47.0408 223.777 43.1278 220.109 40.4368 224.022Z" fill="white"/>
<path opacity="0.5" d="M46.7955 221.577C48.2811 221.577 49.4855 220.317 49.4855 218.764C49.4855 217.21 48.2811 215.951 46.7955 215.951C45.3098 215.951 44.1055 217.21 44.1055 218.764C44.1055 220.317 45.3098 221.577 46.7955 221.577Z" fill="white"/>
<path d="M95.7618 266.529C95.7918 257.723 103 237.199 111.806 237.228C120.612 237.257 127.682 257.829 127.653 266.636C127.623 275.442 120.461 282.557 111.654 282.528C102.848 282.498 95.7328 275.335 95.7618 266.529Z" fill="#ACEEF9"/>
<path opacity="0.2" d="M123.938 250.734C124.854 254.177 125.373 257.406 125.365 259.775C125.336 268.581 118.173 275.696 109.369 275.666C103.675 275.647 98.727 272.624 95.918 268.127C96.703 276.175 103.395 282.5 111.655 282.528C120.462 282.557 127.626 275.442 127.654 266.636C127.665 262.716 126.267 256.467 123.938 250.734Z" fill="#ACEEF9"/>
<path opacity="0.5" d="M102.557 250.73C98.0394 257.301 96.8394 268.169 101.985 269.599C107.131 271.028 108.56 266.454 109.418 258.449C110.276 250.444 105.702 246.155 102.557 250.73Z" fill="white"/>
<path opacity="0.5" d="M113.138 244.583C113.138 246.399 111.73 247.871 109.993 247.871C108.256 247.871 106.848 246.399 106.848 244.583C106.848 242.767 108.256 241.295 109.993 241.295C111.73 241.295 113.138 242.767 113.138 244.583Z" fill="white"/>
<path d="M32.6641 300.609C32.6881 293.331 38.6462 276.368 45.9242 276.392C53.2022 276.416 59.0462 293.419 59.0212 300.697C58.9962 307.975 53.0762 313.856 45.7982 313.831C38.5202 313.808 32.6391 307.888 32.6641 300.609Z" fill="#ACEEF9"/>
<path opacity="0.2" d="M55.952 287.555C56.709 290.401 57.138 293.069 57.131 295.027C57.107 302.305 51.187 308.185 43.91 308.161C39.204 308.145 35.114 305.647 32.793 301.93C33.442 308.582 38.9729 313.809 45.799 313.832C53.0779 313.856 58.999 307.976 59.022 300.697C59.033 297.458 57.877 292.293 55.952 287.555Z" fill="#ACEEF9"/>
<path opacity="0.5" d="M38.28 287.551C34.546 292.982 33.554 301.964 37.807 303.146C42.06 304.328 43.242 300.547 43.95 293.931C44.66 287.315 40.879 283.771 38.28 287.551Z" fill="white"/>
<path opacity="0.5" d="M47.0261 282.471C47.0261 283.972 45.8621 285.188 44.4271 285.188C42.9921 285.188 41.8281 283.971 41.8281 282.471C41.8281 280.97 42.9921 279.754 44.4271 279.754C45.8621 279.754 47.0261 280.97 47.0261 282.471Z" fill="white"/>
<path d="M82.5548 356.859C82.5788 349.581 88.5367 332.618 95.8147 332.642C103.093 332.666 108.937 349.669 108.912 356.947C108.888 364.225 102.967 370.106 95.6887 370.081C88.4107 370.058 82.5298 364.138 82.5548 356.859Z" fill="#ACEEF9"/>
<path opacity="0.2" d="M105.843 343.805C106.6 346.651 107.029 349.319 107.022 351.277C106.998 358.555 101.078 364.435 93.8006 364.411C89.0946 364.395 85.0046 361.897 82.6836 358.18C83.3326 364.832 88.8636 370.059 95.6896 370.082C102.969 370.106 108.89 364.226 108.913 356.947C108.923 353.708 107.767 348.543 105.843 343.805Z" fill="#ACEEF9"/>
<path opacity="0.5" d="M88.1706 343.801C84.4366 349.232 83.4447 358.214 87.6977 359.396C91.9507 360.578 93.1327 356.797 93.8407 350.181C94.5507 343.565 90.7706 340.021 88.1706 343.801Z" fill="white"/>
<path opacity="0.5" d="M96.9128 338.721C96.9128 340.222 95.7488 341.438 94.3138 341.438C92.8778 341.438 91.7148 340.221 91.7148 338.721C91.7148 337.22 92.8788 336.004 94.3138 336.004C95.7488 336.004 96.9128 337.22 96.9128 338.721Z" fill="white"/>
<path d="M152.012 322.62C152.037 315.342 157.994 298.379 165.272 298.403C172.55 298.427 178.394 315.43 178.369 322.708C178.345 329.986 172.425 335.867 165.146 335.842C157.868 335.819 151.988 329.899 152.012 322.62Z" fill="#ACEEF9"/>
<path opacity="0.2" d="M175.3 309.566C176.057 312.412 176.486 315.08 176.479 317.039C176.455 324.317 170.535 330.197 163.258 330.173C158.552 330.157 154.462 327.659 152.141 323.942C152.79 330.594 158.321 335.821 165.147 335.844C172.426 335.868 178.347 329.988 178.37 322.709C178.381 319.469 177.225 314.304 175.3 309.566Z" fill="#ACEEF9"/>
<path opacity="0.5" d="M157.632 309.562C153.898 314.993 152.906 323.975 157.159 325.157C161.412 326.338 162.594 322.558 163.302 315.942C164.012 309.326 160.231 305.782 157.632 309.562Z" fill="white"/>
<path opacity="0.5" d="M166.37 304.482C166.37 305.983 165.206 307.199 163.771 307.199C162.336 307.199 161.172 305.982 161.172 304.482C161.172 302.981 162.336 301.765 163.771 301.765C165.207 301.765 166.37 302.981 166.37 304.482Z" fill="white"/>
<path d="M200.32 266.395C200.345 258.952 206.437 241.606 213.88 241.632C221.323 241.658 227.298 259.043 227.273 266.486C227.248 273.929 221.194 279.942 213.752 279.917C206.308 279.892 200.295 273.838 200.32 266.395Z" fill="#ACEEF9"/>
<path opacity="0.2" d="M224.134 253.046C224.908 255.956 225.347 258.685 225.34 260.687C225.316 268.129 219.262 274.143 211.821 274.118C207.009 274.102 202.827 271.547 200.453 267.746C201.116 274.548 206.772 279.894 213.753 279.917C221.196 279.942 227.251 273.928 227.275 266.486C227.285 263.172 226.103 257.891 224.134 253.046Z" fill="#ACEEF9"/>
<path opacity="0.5" d="M206.064 253.042C202.246 258.596 201.232 267.781 205.581 268.989C209.93 270.197 211.138 266.331 211.863 259.566C212.588 252.801 208.722 249.176 206.064 253.042Z" fill="white"/>
<path opacity="0.5" d="M215.003 247.847C215.003 249.382 213.813 250.626 212.345 250.626C210.877 250.626 209.688 249.382 209.688 247.847C209.688 246.312 210.877 245.068 212.345 245.068C213.813 245.069 215.003 246.313 215.003 247.847Z" fill="white"/>
<path d="M274.297 248.762C274.322 241.484 280.279 224.521 287.557 224.545C294.835 224.569 300.679 241.572 300.654 248.85C300.63 256.128 294.71 262.009 287.431 261.984C280.153 261.96 274.273 256.04 274.297 248.762Z" fill="#ACEEF9"/>
<path opacity="0.2" d="M297.585 235.707C298.342 238.553 298.771 241.221 298.764 243.18C298.741 250.458 292.82 256.338 285.543 256.314C280.837 256.298 276.747 253.8 274.426 250.083C275.075 256.735 280.606 261.962 287.432 261.985C294.711 262.009 300.632 256.129 300.655 248.85C300.665 245.61 299.509 240.446 297.585 235.707Z" fill="#ACEEF9"/>
<path opacity="0.5" d="M279.913 235.704C276.179 241.135 275.187 250.117 279.44 251.299C283.693 252.48 284.875 248.7 285.583 242.084C286.293 235.467 282.513 231.923 279.913 235.704Z" fill="white"/>
<path opacity="0.5" d="M288.659 230.623C288.659 232.124 287.495 233.34 286.06 233.34C284.625 233.34 283.461 232.123 283.461 230.623C283.461 229.122 284.625 227.906 286.06 227.906C287.495 227.906 288.659 229.123 288.659 230.623Z" fill="white"/>
<path d="M208.75 360.303C208.768 354.92 213.174 342.374 218.557 342.392C223.94 342.41 228.262 354.985 228.244 360.369C228.226 365.752 223.847 370.101 218.464 370.083C213.081 370.064 208.731 365.686 208.75 360.303Z" fill="#ACEEF9"/>
<path opacity="0.2" d="M225.972 350.647C226.532 352.752 226.85 354.725 226.844 356.174C226.827 361.557 222.448 365.906 217.066 365.888C213.586 365.876 210.561 364.029 208.844 361.279C209.324 366.199 213.415 370.065 218.464 370.082C223.848 370.1 228.227 365.751 228.244 360.367C228.25 357.972 227.395 354.152 225.972 350.647Z" fill="#ACEEF9"/>
<path opacity="0.5" d="M212.904 350.644C210.142 354.661 209.409 361.305 212.555 362.178C215.701 363.051 216.575 360.256 217.1 355.362C217.624 350.47 214.827 347.848 212.904 350.644Z" fill="white"/>
<path opacity="0.5" d="M219.371 346.887C219.371 347.997 218.51 348.897 217.449 348.897C216.387 348.897 215.527 347.997 215.527 346.887C215.527 345.777 216.388 344.877 217.449 344.877C218.511 344.877 219.371 345.777 219.371 346.887Z" fill="white"/>
<path d="M147.121 241.444C147.139 236.061 151.545 223.515 156.928 223.533C162.311 223.551 166.633 236.126 166.615 241.51C166.597 246.893 162.218 251.243 156.835 251.225C151.452 251.206 147.103 246.827 147.121 241.444Z" fill="#ACEEF9"/>
<path opacity="0.2" d="M164.343 231.788C164.903 233.893 165.221 235.866 165.215 237.315C165.197 242.698 160.819 247.047 155.437 247.029C151.957 247.017 148.931 245.17 147.215 242.42C147.695 247.34 151.786 251.206 156.835 251.223C162.219 251.241 166.598 246.892 166.615 241.508C166.622 239.113 165.767 235.293 164.343 231.788Z" fill="#ACEEF9"/>
<path opacity="0.5" d="M151.276 231.786C148.514 235.803 147.781 242.447 150.927 243.32C154.073 244.193 154.947 241.398 155.471 236.504C155.994 231.611 153.198 228.99 151.276 231.786Z" fill="white"/>
<path opacity="0.5" d="M157.742 228.028C157.742 229.138 156.881 230.038 155.82 230.038C154.759 230.038 153.898 229.138 153.898 228.028C153.898 226.918 154.759 226.018 155.82 226.018C156.881 226.018 157.742 226.918 157.742 228.028Z" fill="white"/>
<path d="M253.688 313.767C253.71 307.326 258.981 292.315 265.422 292.337C271.863 292.359 277.034 307.404 277.012 313.845C276.99 320.286 271.752 325.49 265.311 325.468C258.87 325.447 253.667 320.208 253.688 313.767Z" fill="#ACEEF9"/>
<path opacity="0.2" d="M274.295 302.215C274.965 304.733 275.345 307.095 275.339 308.828C275.318 315.268 270.079 320.472 263.639 320.451C259.475 320.437 255.855 318.226 253.801 314.937C254.375 320.823 259.27 325.449 265.311 325.47C271.753 325.491 276.992 320.288 277.013 313.847C277.021 310.978 275.999 306.408 274.295 302.215Z" fill="#ACEEF9"/>
<path opacity="0.5" d="M258.659 302.212C255.355 307.018 254.477 314.967 258.241 316.012C262.005 317.057 263.05 313.712 263.678 307.857C264.305 302.003 260.959 298.866 258.659 302.212Z" fill="white"/>
<path opacity="0.5" d="M264.097 300.121C265.367 300.121 266.397 299.044 266.397 297.716C266.397 296.388 265.367 295.311 264.097 295.311C262.827 295.311 261.797 296.388 261.797 297.716C261.797 299.044 262.827 300.121 264.097 300.121Z" fill="white"/>
</svg>
