<svg width="28" height="24" viewBox="0 0 28 24" fill="none" xmlns="http://www.w3.org/2000/svg">
<g clip-path="url(#clip0_346_194)">
<path d="M27.2584 9.60138L14.3415 0.140513C14.2465 0.0700343 14.1314 0.0319824 14.0132 0.0319824C13.8949 0.0319824 13.7798 0.0700343 13.6848 0.140513L0.767947 9.60138C0.517513 9.78504 0.467426 10.1301 0.645513 10.3805C0.829165 10.6309 1.17421 10.681 1.42464 10.5029L3.99577 8.61634V23.4087C3.99577 23.7148 4.24621 23.9652 4.5523 23.9652H23.474C23.7801 23.9652 24.0306 23.7148 24.0306 23.4087V8.61634L26.6017 10.4974C26.8521 10.681 27.1972 10.6254 27.3808 10.3749C27.467 10.2561 27.5026 10.1079 27.4796 9.96284C27.4567 9.81781 27.3771 9.68781 27.2584 9.60138ZM17.9088 22.8522H10.1175V12.8348H17.9088V22.8522ZM22.9175 7.82608V22.8522H19.0219V12.2783C19.0219 11.9722 18.7714 11.7217 18.4653 11.7217H9.56099C9.2549 11.7217 9.00447 11.9722 9.00447 12.2783V22.8522H5.10882V7.82608H5.07543L14.0132 1.28138L22.9509 7.82608H22.9175Z" fill="#010101"/>
<path d="M11.2305 6.71303C11.2305 8.24903 12.4771 9.49564 14.0131 9.49564C15.5491 9.49564 16.7957 8.24903 16.7957 6.71303C16.7957 5.17703 15.5491 3.93042 14.0131 3.93042C12.4771 3.93042 11.2305 5.17703 11.2305 6.71303ZM15.6826 6.71303C15.6826 7.63129 14.9313 8.38259 14.0131 8.38259C13.0948 8.38259 12.3435 7.63129 12.3435 6.71303C12.3435 5.79477 13.0948 5.04346 14.0131 5.04346C14.9313 5.04346 15.6826 5.79477 15.6826 6.71303ZM15.1261 18.4H16.2392C16.5453 18.4 16.7957 18.1496 16.7957 17.8435C16.7957 17.5374 16.5453 17.2869 16.2392 17.2869H15.1261C14.82 17.2869 14.5696 17.5374 14.5696 17.8435C14.5696 18.1496 14.82 18.4 15.1261 18.4Z" fill="#010101"/>
</g>
<defs>
<clipPath id="clip0_346_194">
<rect width="27" height="24" fill="white" transform="translate(0.5)"/>
</clipPath>
</defs>
</svg>
