<svg width="384" height="655" viewBox="0 0 384 655" fill="none" xmlns="http://www.w3.org/2000/svg">
<path d="M233.533 654.397L380.952 138.286L165.774 76.8137L0.787109 654.397H233.533Z" fill="#FACBCC"/>
<path d="M215.234 0.202649L177.111 133.648L345.521 181.765L383.643 48.3202L215.234 0.202649Z" fill="#FACBCC"/>
<path d="M208.036 190.992C209.335 187.7 210.502 184.245 211.511 180.663C219.78 151.74 224.645 127.79 201.386 121.144C176.265 113.965 169.578 137.409 161.33 166.321C160.31 169.903 159.483 173.454 158.834 176.934L208.036 190.992Z" fill="#996666"/>
<path d="M269.332 208.505C270.631 205.217 271.798 201.757 272.822 198.176C281.076 169.258 285.941 145.297 262.682 138.651C237.56 131.478 230.874 154.921 222.616 183.839C221.601 187.426 220.774 190.972 220.125 194.442L269.332 208.505Z" fill="#996666"/>
<path d="M274.695 99.278C276.003 95.9753 277.175 92.5306 278.195 88.9438C286.474 60.0263 291.339 36.0705 268.064 29.4245C242.943 22.2408 236.262 45.6893 228.009 74.6017C226.974 78.1885 226.147 81.7347 225.518 85.2099L274.695 99.278Z" fill="#996666"/>
<path d="M336.006 116.776C337.299 113.488 338.471 110.038 339.501 106.452C347.754 77.5341 352.619 53.5833 329.36 46.9272C304.224 39.7486 297.543 63.1921 289.289 92.1045C288.269 95.6913 287.458 99.2374 286.809 102.718L336.006 116.776Z" fill="#996666"/>
<path d="M330.628 226.013C331.906 222.715 333.078 219.265 334.103 215.689C342.372 186.771 347.237 162.815 323.962 156.159C298.841 148.981 292.165 172.429 283.917 201.341C282.872 204.923 282.07 208.474 281.426 211.955L330.628 226.013Z" fill="#996666"/>
<path d="M181.591 283.548C182.89 280.266 184.072 276.811 185.081 273.229C193.35 244.312 198.215 220.356 174.941 213.71C149.82 206.537 143.133 229.975 134.88 258.893C133.875 262.469 133.018 266.02 132.414 269.506L181.591 283.548Z" fill="#996666"/>
<path d="M242.887 301.061C244.17 297.769 245.352 294.319 246.377 290.732C254.63 261.82 259.495 237.859 236.236 231.213C211.1 224.034 204.429 247.483 196.175 276.39C195.161 279.972 194.334 283.523 193.715 287.003L242.887 301.061Z" fill="#996666"/>
<path d="M304.183 318.569C305.476 315.271 306.648 311.827 307.673 308.24C315.927 279.332 320.792 255.366 297.527 248.72C272.406 241.542 265.725 264.99 257.471 293.898C256.452 297.484 255.625 301.036 254.98 304.511L304.183 318.569Z" fill="#996666"/>
<path d="M155.145 376.115C156.444 372.822 157.611 369.367 158.636 365.791C166.889 336.873 171.77 312.917 148.495 306.266C123.389 299.088 116.703 322.536 108.434 351.449C107.414 355.03 106.588 358.577 105.969 362.057L155.145 376.115Z" fill="#996666"/>
<path d="M216.442 393.628C217.74 390.335 218.907 386.88 219.932 383.304C228.201 354.386 233.066 330.43 209.791 323.779C184.67 316.601 177.984 340.044 169.73 368.956C168.711 372.543 167.884 376.095 167.234 379.57L216.442 393.628Z" fill="#996666"/>
<path d="M277.727 411.135C279.036 407.848 280.208 404.388 281.228 400.806C289.481 371.889 294.362 347.933 271.082 341.282C245.976 334.103 239.27 357.547 231.026 386.464C230.007 390.046 229.18 393.597 228.551 397.072L277.727 411.135Z" fill="#996666"/>
<path d="M128.71 468.676C130.003 465.389 131.17 461.929 132.21 458.347C140.464 429.424 145.344 405.474 122.054 398.828C96.9482 391.654 90.2519 415.098 82.0135 444.01C80.9786 447.597 80.1669 451.143 79.5176 454.618L128.71 468.676Z" fill="#996666"/>
<path d="M190.003 486.189C191.301 482.896 192.468 479.436 193.518 475.86C201.772 446.947 206.637 422.986 183.347 416.335C158.241 409.167 151.555 432.61 143.291 461.518C142.282 465.099 141.46 468.656 140.811 472.131L190.003 486.189Z" fill="#996666"/>
<path d="M251.299 503.691C252.592 500.404 253.764 496.954 254.789 493.372C263.068 464.46 267.933 440.494 244.643 433.848C219.537 426.669 212.851 450.113 204.587 479.025C203.583 482.612 202.756 486.158 202.111 489.644L251.299 503.691Z" fill="#996666"/>
<path d="M102.266 561.237C103.56 557.95 104.742 554.5 105.766 550.908C114.035 521.996 118.915 498.04 95.6257 491.389C70.5198 484.205 63.8184 507.654 55.5749 536.571C54.5299 540.158 53.7181 543.699 53.084 547.179L102.266 561.237Z" fill="#996666"/>
<path d="M163.571 578.745C164.855 575.448 166.021 572.003 167.061 568.421C175.315 539.509 180.195 515.543 156.921 508.897C131.8 501.723 125.103 525.172 116.87 554.079C115.835 557.661 114.998 561.212 114.379 564.692L163.571 578.745Z" fill="#996666"/>
<path d="M224.838 596.258C226.147 592.96 227.319 589.515 228.348 585.929C236.607 557.011 241.472 533.06 218.193 526.409C193.087 519.236 186.401 542.674 178.147 571.592C177.127 575.173 176.301 578.725 175.656 582.2L224.838 596.258Z" fill="#996666"/>
<path opacity="0.38" d="M383.147 47.8151L290.871 20.6174L117.215 654.646L233.09 654.017L380.525 137.911L359.152 131.808L383.147 47.8151Z" fill="#653614"/>
</svg>
