<svg width="447" height="468" viewBox="0 0 447 468" fill="none" xmlns="http://www.w3.org/2000/svg">
<path d="M431.346 447.958C431.346 456.394 419.425 462.827 404.845 462.827H50.7911C36.2217 462.827 23.9453 456.4 23.9453 447.958V246.545C23.9453 238.083 35.9883 231.239 50.5679 231.239L221.845 172.049L404.845 231.239C419.41 231.239 431.346 238.083 431.346 246.545V447.958Z" fill="#FFCC67"/>
<path d="M408.816 240.706C408.816 247.357 398.082 252.42 384.963 252.42H66.2116C53.093 252.42 42.0391 247.357 42.0391 240.706V82.172C42.0391 75.521 52.8851 70.1283 66.0037 70.1283L220.195 23.5405L384.953 70.1283C398.087 70.1283 408.821 75.521 408.821 82.172L408.816 240.706Z" fill="#FFCC67"/>
<path d="M427.115 74.212C427.115 81.8625 419.247 87.991 409.558 87.991H33.4163C23.7169 87.991 15.8438 81.8625 15.8438 74.212C15.8438 74.212 38.5146 24.5603 42.1925 14.1754C45.8703 3.79043 50.0606 0.350586 59.7498 0.350586H380.277C389.981 0.350586 394.648 7.08296 397.849 14.1754C401.03 21.2576 427.115 74.212 427.115 74.212Z" fill="#359A46"/>
<path d="M69.916 187.122C69.916 189.862 72.0364 192.084 74.6439 192.084H138.71C141.317 192.084 143.428 189.862 143.428 187.122V123.544C143.428 120.779 141.317 118.562 138.71 118.562H74.6439C72.0364 118.562 69.916 120.785 69.916 123.544V187.122Z" fill="white"/>
<path d="M73.7051 184.164C73.7051 186.437 75.5669 188.289 77.8395 188.289H132.957C135.245 188.289 137.091 186.442 137.091 184.164V130.287C137.091 128.024 135.245 126.172 132.957 126.172H77.8395C75.5669 126.172 73.7051 128.024 73.7051 130.287V184.164Z" fill="#D2EDF3"/>
<path d="M109.204 126.172H102.863V188.289H109.204V126.172Z" fill="white"/>
<path d="M137.096 154.065H73.7051V161.67H137.096V154.065Z" fill="white"/>
<path d="M188.672 186.173C188.672 188.913 190.797 191.135 193.4 191.135H257.45C260.058 191.135 262.183 188.913 262.183 186.173V122.585C262.183 119.846 260.058 117.614 257.45 117.614H193.4C190.797 117.614 188.672 119.846 188.672 122.585V186.173Z" fill="white"/>
<path d="M192.467 183.211C192.467 185.489 194.308 187.33 196.601 187.33H251.718C254.006 187.33 255.853 185.494 255.853 183.211V129.353C255.853 127.075 254.006 125.224 251.718 125.224H196.601C194.313 125.224 192.467 127.07 192.467 129.353V183.211Z" fill="#D2EDF3"/>
<path d="M227.962 125.224H221.621V187.325H227.962V125.224Z" fill="white"/>
<path d="M255.853 153.111H192.467V160.726H255.853V153.111Z" fill="white"/>
<path d="M300.871 185.225C300.871 187.959 302.981 190.182 305.604 190.182H369.64C372.257 190.182 374.368 187.959 374.368 185.225V121.632C374.368 118.887 372.257 116.66 369.64 116.66H305.604C302.981 116.66 300.871 118.887 300.871 121.632V185.225Z" fill="white"/>
<path d="M304.654 182.262C304.654 184.535 306.511 186.387 308.784 186.387H363.916C366.189 186.387 368.04 184.54 368.04 182.262V128.384C368.04 126.122 366.194 124.27 363.916 124.27H308.784C306.511 124.27 304.654 126.117 304.654 128.384V182.262Z" fill="#D2EDF3"/>
<path d="M340.166 124.27H333.814V186.382H340.166V124.27Z" fill="white"/>
<path d="M368.04 152.163H304.654V159.762H368.04V152.163Z" fill="white"/>
<path d="M446.296 227.804C446.296 237.043 438.798 244.511 429.525 244.511H16.7769C7.53407 244.511 0.00585938 237.043 0.00585938 227.804C0.00585938 218.601 7.52899 211.124 16.7769 211.124H429.525C438.803 211.124 446.296 218.596 446.296 227.804Z" fill="#356732"/>
<path d="M325.251 418.087C325.251 423.748 317.672 428.345 308.318 428.345H78.8749C69.5052 428.345 61.9414 423.753 61.9414 418.087V286.725C61.9414 281.058 69.5052 276.462 78.8749 276.462H308.318C317.672 276.462 325.251 281.053 325.251 286.725V418.087Z" fill="white"/>
<path d="M314.563 410.994C314.563 415.859 307.476 419.791 298.74 419.791H87.1592C78.4186 419.791 71.3418 415.859 71.3418 410.994V295.837C71.3418 290.971 78.4236 287.024 87.1592 287.024H298.74C307.481 287.024 314.563 290.971 314.563 295.837V410.994Z" fill="#D2EDF3"/>
<path d="M412.991 417.042C411.586 471.102 414.478 454.061 381.6 454.061C364.266 454.061 350.209 457.972 348.307 446.943L350.209 350.887C350.209 330.431 364.266 313.857 381.6 313.857C398.939 313.857 412.991 330.431 412.991 350.887V417.042Z" fill="#356732"/>
<path d="M406.001 422.186C404.9 475.769 407.162 458.875 381.544 458.875C368.04 458.875 357.088 462.771 355.611 451.818L357.087 356.65C357.087 336.387 368.04 319.955 381.544 319.955C395.048 319.955 406.001 336.387 406.001 356.65V422.186Z" fill="#4FB848"/>
<path d="M417.969 446.593H343.336V456.608H417.969V446.593Z" fill="#653614"/>
<path d="M428.216 455.04H330.061V467.267H428.216V455.04Z" fill="#653614"/>
<path d="M351.929 279.196C351.929 293.64 340.961 305.364 327.432 305.364H52.2667C38.7372 305.364 27.7695 293.635 27.7695 279.196C27.7695 264.738 38.7372 253.019 52.2667 253.019H327.432C340.961 253.013 351.929 264.738 351.929 279.196Z" fill="#9FC9EB"/>
<path d="M277.297 373.924C277.297 385.161 267.861 394.263 256.199 394.263C244.556 394.263 235.105 385.161 235.105 373.924C235.105 362.682 244.556 353.581 256.199 353.581C267.861 353.586 277.297 362.687 277.297 373.924Z" fill="#359A46"/>
<g opacity="0.37">
<path d="M277.089 373.924C277.089 362.682 267.638 353.581 255.996 353.581C254.834 353.581 253.708 353.667 252.602 353.844C250.319 356.634 253.282 357.32 255.29 358.02C257.041 358.583 259.065 358.583 260.541 359.136C264.051 360.658 257.852 361.216 257.578 362.469C256.914 365.812 265.939 364.001 266.339 366.218C266.603 368.587 254.352 369.424 259.734 372.757C261.211 373.731 262.961 373.873 264.31 375.121C266.06 376.938 266.06 378.739 263.909 380.134C261.069 381.793 257.984 380.824 255.006 380.403C253.667 380.271 251.11 380.134 250.309 381.24C248.422 383.325 252.318 384.573 251.516 386.389C250.842 388.205 247.605 387.084 246.256 387.358C244.394 387.784 243.881 389.123 243.998 390.661C247.402 392.928 251.531 394.258 255.985 394.258C267.638 394.263 277.089 385.161 277.089 373.924Z" fill="#356732"/>
</g>
<path d="M266.177 391.077C266.177 392.842 261.784 394.263 256.341 394.263C250.913 394.263 246.52 392.842 246.52 391.077C246.52 389.301 250.913 387.886 256.341 387.886C261.779 387.886 266.177 389.306 266.177 391.077Z" fill="#356732"/>
<path d="M260.418 412.298C260.418 413.845 258.085 413.358 256.685 413.358H256.035C252.921 413.099 253.058 414.018 253.058 411.39L253.499 390.655C253.337 387.5 254.63 387.875 256.035 387.875H256.685C258.085 387.875 259.247 387.5 259.231 390.655L260.418 412.298Z" fill="#996632"/>
<path d="M259.227 390.712C259.242 387.855 258.288 387.947 257.066 387.987C257.076 388.266 257.106 388.596 257.091 388.971L258.288 410.634C258.288 412.172 255.944 411.771 254.554 411.771H253.92C253.591 411.771 253.317 411.786 253.053 411.786C253.053 414.165 252.997 413.364 256.031 413.622H256.68C258.08 413.622 260.414 413.972 260.414 412.435L259.227 390.712Z" fill="#653614"/>
<path opacity="0.67" d="M249.213 365.695C249.213 367.968 247.432 369.805 245.231 369.805C243.039 369.805 241.264 367.973 241.264 365.695C241.264 363.438 243.044 361.602 245.231 361.602C247.432 361.607 249.213 363.438 249.213 365.695Z" fill="#356732"/>
<path opacity="0.67" d="M250.411 361.256C250.411 362.671 249.295 363.828 247.93 363.828C246.551 363.828 245.439 362.671 245.439 361.256C245.439 359.835 246.556 358.679 247.93 358.679C249.295 358.684 250.411 359.835 250.411 361.256Z" fill="#356732"/>
<path d="M247.848 415.372C247.848 417.016 249.334 418.355 251.181 418.355H261.215C263.061 418.355 264.548 417.016 264.548 415.372V406.337C264.548 404.698 263.061 403.349 261.215 403.349H251.181C249.334 403.349 247.848 404.698 247.848 406.337V415.372Z" fill="#CB6828"/>
<path d="M205.49 373.924C205.49 385.161 196.039 394.263 184.397 394.263C172.749 394.263 163.283 385.161 163.283 373.924C163.283 362.682 172.749 353.581 184.397 353.581C196.034 353.586 205.49 362.687 205.49 373.924Z" fill="#359A46"/>
<g opacity="0.37">
<path d="M205.282 373.924C205.282 362.682 195.831 353.581 184.189 353.581C183.032 353.581 181.901 353.667 180.8 353.844C178.497 356.634 181.459 357.32 183.484 358.02C185.234 358.583 187.258 358.583 188.734 359.136C192.229 360.658 186.03 361.216 185.771 362.469C185.107 365.812 194.121 364.001 194.522 366.218C194.801 368.587 182.545 369.424 187.932 372.757C189.409 373.731 191.159 373.873 192.508 375.121C194.258 376.938 194.258 378.739 192.107 380.134C189.267 381.793 186.167 380.824 183.205 380.403C181.865 380.271 179.303 380.134 178.492 381.24C176.615 383.325 180.516 384.573 179.704 386.389C179.024 388.205 175.798 387.084 174.454 387.358C172.592 387.784 172.085 389.123 172.196 390.661C175.595 392.928 179.719 394.258 184.184 394.258C195.826 394.263 205.282 385.161 205.282 373.924Z" fill="#356732"/>
</g>
<path d="M194.366 391.077C194.366 392.842 189.973 394.263 184.524 394.263C179.096 394.263 174.703 392.842 174.703 391.077C174.703 389.301 179.096 387.886 184.524 387.886C189.973 387.886 194.366 389.306 194.366 391.077Z" fill="#356732"/>
<path d="M188.596 412.298C188.596 413.845 186.278 413.358 184.863 413.358H184.229C181.119 413.099 181.251 414.018 181.251 411.39L181.682 390.655C181.515 387.5 182.823 387.875 184.229 387.875H184.863C186.278 387.875 187.44 387.5 187.43 390.655L188.596 412.298Z" fill="#996632"/>
<path d="M187.425 390.712C187.435 387.855 186.481 387.947 185.244 387.987C185.274 388.266 185.284 388.596 185.284 388.971L186.481 410.634C186.481 412.172 184.153 411.771 182.748 411.771H182.104C181.784 411.771 181.51 411.786 181.246 411.786C181.246 414.165 181.19 413.364 184.224 413.622H184.858C186.273 413.622 188.592 413.972 188.592 412.435L187.425 390.712Z" fill="#653614"/>
<path opacity="0.67" d="M177.406 365.695C177.406 367.968 175.62 369.805 173.424 369.805C171.232 369.805 169.441 367.973 169.441 365.695C169.441 363.438 171.232 361.602 173.424 361.602C175.615 361.607 177.406 363.438 177.406 365.695Z" fill="#356732"/>
<path opacity="0.67" d="M178.604 361.256C178.604 362.671 177.488 363.828 176.124 363.828C174.739 363.828 173.633 362.671 173.633 361.256C173.633 359.835 174.739 358.679 176.124 358.679C177.488 358.684 178.604 359.835 178.604 361.256Z" fill="#356732"/>
<path d="M176.041 415.372C176.041 417.016 177.543 418.355 179.374 418.355H189.408C191.25 418.355 192.726 417.016 192.726 415.372V406.337C192.726 404.698 191.25 403.349 189.408 403.349H179.374C177.543 403.349 176.041 404.698 176.041 406.337V415.372Z" fill="#CB6828"/>
<path d="M133.663 373.924C133.663 385.161 124.227 394.263 112.58 394.263C100.922 394.263 91.4863 385.161 91.4863 373.924C91.4863 362.682 100.922 353.581 112.58 353.581C124.227 353.586 133.663 362.687 133.663 373.924Z" fill="#359A46"/>
<g opacity="0.37">
<path d="M133.47 373.924C133.47 362.682 124.02 353.581 112.362 353.581C111.216 353.581 110.089 353.667 108.983 353.844H108.973C106.685 356.634 109.648 357.32 111.667 358.02C113.422 358.583 115.431 358.583 116.917 359.136C120.418 360.658 114.219 361.216 113.955 362.469C113.28 365.812 122.305 364.001 122.711 366.218C122.985 368.587 110.724 369.424 116.121 372.757C117.597 373.731 119.348 373.873 120.692 375.121C122.447 376.938 122.447 378.739 120.281 380.134C117.455 381.793 114.356 380.824 111.393 380.403C110.039 380.271 107.492 380.134 106.68 381.24C104.788 383.325 108.699 384.573 107.888 386.389C107.213 388.205 103.992 387.084 102.637 387.358C100.781 387.784 100.268 389.123 100.38 390.661C103.774 392.928 107.903 394.258 112.357 394.258C124.02 394.263 133.47 385.161 133.47 373.924Z" fill="#356732"/>
</g>
<path d="M122.557 391.077C122.557 392.842 118.149 394.263 112.721 394.263C107.293 394.263 102.895 392.842 102.895 391.077C102.895 389.301 107.288 387.886 112.721 387.886C118.149 387.886 122.557 389.306 122.557 391.077Z" fill="#356732"/>
<path d="M116.779 412.298C116.779 413.845 114.45 413.358 113.05 413.358H112.416C109.301 413.099 109.438 414.018 109.438 411.39L109.865 390.655C109.702 387.5 111.011 387.875 112.416 387.875H113.05C114.45 387.875 115.627 387.5 115.602 390.655L116.779 412.298Z" fill="#996632"/>
<path d="M115.604 390.712C115.629 387.855 114.66 387.947 113.433 387.987C113.463 388.266 113.478 388.596 113.478 388.971L114.66 410.634C114.66 412.172 112.332 411.771 110.927 411.771H110.293C109.973 411.771 109.689 411.786 109.44 411.786C109.425 414.165 109.369 413.364 112.418 413.622H113.052C114.452 413.622 116.781 413.972 116.781 412.435L115.604 390.712Z" fill="#653614"/>
<path opacity="0.67" d="M105.578 365.695C105.578 367.968 103.798 369.805 101.611 369.805C99.4197 369.805 97.6289 367.973 97.6289 365.695C97.6289 363.438 99.4197 361.602 101.611 361.602C103.803 361.607 105.578 363.438 105.578 365.695Z" fill="#356732"/>
<path opacity="0.67" d="M106.797 361.256C106.797 362.671 105.676 363.828 104.301 363.828C102.927 363.828 101.811 362.671 101.811 361.256C101.811 359.835 102.927 358.679 104.301 358.679C105.676 358.684 106.797 359.835 106.797 361.256Z" fill="#356732"/>
<path d="M104.229 415.372C104.229 417.016 105.72 418.355 107.551 418.355H117.596C119.427 418.355 120.913 417.016 120.913 415.372V406.337C120.913 404.698 119.427 403.349 117.596 403.349H107.551C105.72 403.349 104.229 404.698 104.229 406.337V415.372Z" fill="#CB6828"/>
<path opacity="0.42" d="M446.763 227.941C446.763 218.739 439.265 211.26 429.992 211.26H409.279V88.138H410.02C419.709 88.138 427.577 81.9993 427.577 74.3489C427.577 74.3489 401.487 21.3944 398.307 14.3122C395.106 7.22486 390.439 0.492676 380.734 0.492676H225.924V462.959H330.517V467.398H428.673V455.172H428.663C430.657 453.087 431.803 450.682 431.803 448.095V246.682C431.803 245.931 431.681 245.216 431.499 244.506C440.052 243.734 446.763 236.667 446.763 227.941Z" fill="#3C2415"/>
</svg>
