<svg width="267" height="700" viewBox="0 0 267 700" fill="none" xmlns="http://www.w3.org/2000/svg">
<path d="M220.644 566.661H133.861H132.989H46.2014L0.748047 699.641H45.1817C56.0732 645.459 91.2337 605.755 132.984 605.664V605.684C133.126 605.674 133.273 605.674 133.415 605.669C133.567 605.674 133.714 605.679 133.856 605.684V605.664C175.611 605.755 210.772 645.459 221.658 699.641H266.092L220.644 566.661Z" fill="#CB9966"/>
<path d="M133.821 558.123H216.626L209.337 526.395H133.821H133.03H57.5144L50.2246 558.123H133.03H133.821Z" fill="#CB9966"/>
<path d="M133.821 420.795H194.737L187.432 394.785H133.821H133.03H79.4143L72.1094 420.795H133.03H133.821Z" fill="#CB9966"/>
<path d="M133.82 517.542H207.651L193.163 426.949H133.82H133.028H73.6906L59.1973 517.542H133.034H133.82ZM83.7806 495.428L90.1776 445.695L133.46 445.324L176.661 445.695L183.068 495.428H133.82H133.028H83.7806Z" fill="#CB9966"/>
<path d="M92.908 551.299H62.293L65.0374 533.609H92.908V551.299Z" fill="white"/>
<path d="M129.021 533.609H101.166V551.294H129.021V533.609Z" fill="white"/>
<path d="M165.151 533.614H137.285V551.304H165.151V533.614Z" fill="white"/>
<path d="M204.933 551.304H173.42V533.614H201.275L204.933 551.304Z" fill="white"/>
<path d="M110.814 416.63H78.373L82.9437 398.935H110.814V416.63Z" fill="white"/>
<path d="M187.623 416.635H155.197V398.955H183.068L187.623 416.635Z" fill="white"/>
<path d="M133.779 129.459L159.114 389.239H181.566L133.779 6.03718V0.370361L133.419 3.19615L133.069 0.370361V6.03718L85.2773 389.239H107.73L133.779 129.459Z" fill="#CB9966"/>
<path d="M152.526 50.976C152.526 56.2573 143.978 60.5289 133.416 60.5289C122.864 60.5289 114.316 56.2573 114.316 50.976C114.316 45.6948 122.869 41.4231 133.416 41.4231C143.983 41.4231 152.526 45.6948 152.526 50.976Z" fill="#CB9966"/>
<path d="M134.172 129.439L159.506 389.214H181.963L140.883 59.8086C147.929 58.4033 152.926 54.9789 152.926 50.9456C152.926 46.5015 146.844 42.8081 138.631 41.7326L134.172 6.00685V0.334961L133.816 3.17089V132.995L134.172 129.439Z" fill="#754C29"/>
<path d="M221.039 566.636H134.252H133.811V605.644C133.963 605.654 134.105 605.654 134.252 605.664V605.644C175.997 605.735 211.157 645.443 222.054 699.616H266.483L221.039 566.636Z" fill="#754C29"/>
<path d="M134.212 558.092H217.027L209.728 526.374H134.212H133.816V558.092H134.212Z" fill="#754C29"/>
<path d="M134.212 420.77H195.128L187.823 394.759H134.212H133.816V420.77H134.212Z" fill="#754C29"/>
<path d="M133.852 445.314L177.048 445.674L183.455 495.407H134.212H133.816V517.522H134.212H208.048L193.555 426.924H134.212H133.816V445.314H133.852Z" fill="#754C29"/>
<path d="M146.94 398.935H119.074V416.625H146.94V398.935Z" fill="white"/>
<path d="M154.711 416.635H187.147L182.582 398.955H154.711V416.635Z" fill="white"/>
<path d="M174.176 551.299H204.776L202.036 533.609H174.176V551.299Z" fill="white"/>
<path d="M165.912 533.609H138.047V551.294H165.912V533.609Z" fill="white"/>
</svg>
