<svg width="262" height="771" viewBox="0 0 262 771" fill="none" xmlns="http://www.w3.org/2000/svg">
<path d="M155.35 162.161C155.35 187.74 142.151 208.475 125.887 208.475C109.598 208.475 96.4082 187.74 96.4082 162.161C96.4082 136.592 109.598 115.858 125.887 115.858C142.146 115.858 155.35 136.587 155.35 162.161Z" fill="#996666"/>
<path d="M128.433 0H122.107V159.969H128.433V0Z" fill="#996666"/>
<path d="M260.989 724.251C260.989 749.79 230.46 770.488 192.845 770.488H68.2284C30.5975 770.488 0.0839844 749.79 0.0839844 724.251V410.268C0.0839844 384.729 30.5975 364.02 68.2284 364.02H192.845C230.46 364.02 260.989 384.724 260.989 410.268V724.251Z" fill="#996666"/>
<path d="M221.795 412.14C221.795 423.529 200.449 432.753 174.115 432.753H86.9168C60.6086 432.753 39.2617 423.529 39.2617 412.14V272.139C39.2617 260.744 60.6086 251.516 86.9168 251.516H174.115C200.449 251.516 221.795 260.744 221.795 272.139V412.14Z" fill="#996666"/>
<path d="M180.567 261.029C180.567 267.522 168.402 272.778 153.397 272.778H103.677C88.6562 272.778 76.4863 267.517 76.4863 261.029V181.186C76.4863 174.692 88.6562 169.431 103.677 169.431H153.397C168.402 169.431 180.567 174.692 180.567 181.186V261.029Z" fill="#996666"/>
<path d="M47.6733 393.709H13.9941V427.39H47.6733V393.709Z" fill="#FACBCC"/>
<path d="M86.3388 393.709H52.6445V427.39H86.3388V393.709Z" fill="#FACBCC"/>
<path d="M125.009 393.709H91.3398V427.39H125.009V393.709Z" fill="#663434"/>
<path d="M163.675 393.709H130.006V427.39H163.675V393.709Z" fill="#FACBCC"/>
<path d="M47.6733 438.516H13.9941V472.192H47.6733V438.516Z" fill="#FACBCC"/>
<path d="M47.6733 483.318H13.9941V517.004H47.6733V483.318Z" fill="#FACBCC"/>
<path d="M47.6733 528.114H13.9941V561.801H47.6733V528.114Z" fill="#FACBCC"/>
<path d="M47.6733 572.921H13.9941V606.608H47.6733V572.921Z" fill="#FACBCC"/>
<path d="M47.6733 617.728H13.9941V651.404H47.6733V617.728Z" fill="#FACBCC"/>
<path d="M47.6733 662.535H13.9941V696.206H47.6733V662.535Z" fill="#FACBCC"/>
<path d="M47.6733 707.337H13.9941V741.013H47.6733V707.337Z" fill="#FACBCC"/>
<path d="M86.3388 438.516H52.6445V472.192H86.3388V438.516Z" fill="#FACBCC"/>
<path d="M86.3388 483.318H52.6445V517.004H86.3388V483.318Z" fill="#FACBCC"/>
<path d="M86.3388 528.114H52.6445V561.801H86.3388V528.114Z" fill="#663434"/>
<path d="M86.3388 572.921H52.6445V606.608H86.3388V572.921Z" fill="#FACBCC"/>
<path d="M86.3388 617.728H52.6445V651.404H86.3388V617.728Z" fill="#FACBCC"/>
<path d="M86.3388 662.535H52.6445V696.206H86.3388V662.535Z" fill="#FACBCC"/>
<path d="M86.3388 707.337H52.6445V741.013H86.3388V707.337Z" fill="#663434"/>
<path d="M204.492 394.531H170.812V428.207H204.492V394.531Z" fill="#FACBCC"/>
<path d="M243.188 394.531H209.494V428.207H243.188V394.531Z" fill="#FACBCC"/>
<path d="M204.492 439.338H170.812V473.019H204.492V439.338Z" fill="#FACBCC"/>
<path d="M204.492 484.14H170.812V517.821H204.492V484.14Z" fill="#FACBCC"/>
<path d="M204.492 528.941H170.812V562.633H204.492V528.941Z" fill="#FACBCC"/>
<path d="M204.492 573.748H170.812V607.434H204.492V573.748Z" fill="#FACBCC"/>
<path d="M204.492 618.55H170.812V652.231H204.492V618.55Z" fill="#FACBCC"/>
<path d="M204.492 663.362H170.812V697.033H204.492V663.362Z" fill="#FACBCC"/>
<path d="M204.492 708.169H170.812V741.845H204.492V708.169Z" fill="#FACBCC"/>
<path d="M243.188 439.338H209.494V473.019H243.188V439.338Z" fill="#FACBCC"/>
<path d="M243.188 484.14H209.494V517.821H243.188V484.14Z" fill="#FACBCC"/>
<path d="M243.188 528.941H209.494V562.633H243.188V528.941Z" fill="#663434"/>
<path d="M243.188 573.748H209.494V607.434H243.188V573.748Z" fill="#FACBCC"/>
<path d="M243.188 618.55H209.494V652.231H243.188V618.55Z" fill="#FACBCC"/>
<path d="M243.188 663.362H209.494V697.033H243.188V663.362Z" fill="#FACBCC"/>
<path d="M243.188 708.169H209.494V741.845H243.188V708.169Z" fill="#663434"/>
<path d="M125.009 438.516H91.3398V472.192H125.009V438.516Z" fill="#FACBCC"/>
<path d="M84.2177 285H50.5488V318.676H84.2177V285Z" fill="#FACBCC"/>
<path d="M123.935 285H90.2656V318.676H123.935V285Z" fill="#FACBCC"/>
<path d="M127.901 201.159H94.2168V234.835H127.901V201.159Z" fill="#FACBCC"/>
<path d="M167.714 201.159H134.035V234.835H167.714V201.159Z" fill="#FACBCC"/>
<path d="M84.2177 329.812H50.5488V363.493H84.2177V329.812Z" fill="#FACBCC"/>
<path d="M123.935 329.812H90.2656V363.493H123.935V329.812Z" fill="#FACBCC"/>
<path d="M163.644 285H129.965V318.676H163.644V285Z" fill="#FACBCC"/>
<path d="M203.33 285H169.682V318.676H203.33V285Z" fill="#FACBCC"/>
<path d="M163.644 329.812H129.965V363.493H163.644V329.812Z" fill="#FACBCC"/>
<path d="M203.33 329.812H169.682V363.493H203.33V329.812Z" fill="#FACBCC"/>
<path d="M125.009 483.318H91.3398V517.004H125.009V483.318Z" fill="#FACBCC"/>
<path d="M125.009 528.114H91.3398V561.801H125.009V528.114Z" fill="#FACBCC"/>
<path d="M125.009 572.921H91.3398V606.608H125.009V572.921Z" fill="#FACBCC"/>
<path d="M125.009 617.728H91.3398V651.404H125.009V617.728Z" fill="#FACBCC"/>
<path d="M125.009 662.535H91.3398V696.206H125.009V662.535Z" fill="#FACBCC"/>
<path d="M125.009 707.337H91.3398V741.013H125.009V707.337Z" fill="#FACBCC"/>
<path d="M163.675 438.516H130.006V472.192H163.675V438.516Z" fill="#FACBCC"/>
<path d="M163.675 483.318H130.006V517.004H163.675V483.318Z" fill="#FACBCC"/>
<path d="M163.675 528.114H130.006V561.801H163.675V528.114Z" fill="#FACBCC"/>
<path d="M163.675 572.921H130.006V606.608H163.675V572.921Z" fill="#FACBCC"/>
<path d="M163.675 617.728H130.006V651.404H163.675V617.728Z" fill="#663434"/>
<path d="M163.675 662.535H130.006V696.206H163.675V662.535Z" fill="#FACBCC"/>
<path d="M163.675 707.337H130.006V741.013H163.675V707.337Z" fill="#FACBCC"/>
<path opacity="0.65" d="M222.212 368.607V272.291C222.212 261.855 204.274 253.251 181.01 251.882V181.338C181.01 175.073 169.641 169.959 155.361 169.614C155.599 167.224 155.762 164.799 155.762 162.313C155.762 138.094 143.942 118.247 128.85 116.203V0.147217H125.197V770.641H193.271C230.876 770.641 261.385 749.937 261.385 724.398V410.41C261.385 391.918 245.349 376.003 222.212 368.607Z" fill="#663434"/>
</svg>
