<svg width="627" height="584" viewBox="0 0 627 584" fill="none" xmlns="http://www.w3.org/2000/svg">
<path d="M180.072 350.819H34.0527V583.508H180.072V350.819Z" fill="#D2EDF3"/>
<path d="M144.865 583.508C145.139 581.813 145.317 580.094 145.317 578.338V478.766C145.317 459.158 128.191 443.248 107.062 443.248C85.9383 443.248 68.7969 459.158 68.7969 478.766V578.338C68.7969 580.094 68.9897 581.813 69.2636 583.508H144.865Z" fill="#FFCD05"/>
<path d="M200.079 247.598C174.197 211.593 120.47 215.885 104.165 181.093V177.963C104.11 177.993 104.084 178.014 104.084 178.014C103.891 178.511 103.668 178.967 103.46 179.439C103.272 178.962 103.034 178.506 102.857 178.014C102.857 178.014 102.816 177.993 102.765 177.963V181.093C86.4761 215.885 32.7284 211.599 6.85149 247.598C-19.756 284.633 43.5794 324.808 43.5794 324.808H102.765H104.165H163.366C163.366 324.808 226.702 284.633 200.079 247.598Z" fill="#FFCD05"/>
<path d="M599.428 350.819H453.43V583.508H599.428V350.819Z" fill="#D2EDF3"/>
<path d="M564.232 583.508C564.496 581.813 564.689 580.094 564.689 578.338V478.766C564.689 459.158 547.558 443.248 526.419 443.248C505.31 443.248 488.164 459.158 488.164 478.766V578.338C488.164 580.094 488.357 581.813 488.62 583.508H564.232Z" fill="#FFCD05"/>
<path d="M619.853 247.897C593.875 211.74 539.909 216.043 523.554 181.113V177.963C523.488 177.993 523.443 178.014 523.443 178.014C523.265 178.511 523.032 178.972 522.839 179.444C522.631 178.967 522.413 178.506 522.22 178.014C522.22 178.014 522.174 177.993 522.124 177.963V181.113C505.763 216.043 451.808 211.74 425.814 247.897C399.085 285.089 462.694 325.427 462.694 325.427H522.129H523.559H582.983C582.983 325.427 646.588 285.089 619.853 247.897Z" fill="#FFCD05"/>
<path d="M413.075 276.749H220.568V583.513H413.075V276.749Z" fill="#B8DFE5"/>
<path d="M366.669 583.508C367.024 581.275 367.257 579.008 367.257 576.684V445.434C367.257 419.566 344.688 398.608 316.837 398.608C288.977 398.608 266.377 419.571 266.377 445.434V576.684C266.377 579.008 266.626 581.27 266.996 583.508H366.669Z" fill="#F8991D"/>
<path d="M470.5 114.375C428.06 55.3377 339.964 62.3742 313.255 5.34585V0.186523C313.164 0.242329 313.103 0.287778 313.103 0.287778C312.788 1.08428 312.413 1.84557 312.098 2.62684C311.774 1.84557 311.398 1.08428 311.094 0.287778C311.094 0.287778 311.023 0.237256 310.947 0.186523V5.34585C284.223 62.3742 196.111 55.3377 153.702 114.375C110.059 175.102 213.902 240.952 213.902 240.952H310.947H313.26H410.3C410.3 240.952 514.143 175.097 470.5 114.375Z" fill="#F8991D"/>
<path opacity="0.4" d="M453.43 583.508H488.621H564.233H599.428V350.819H453.43V583.508Z" fill="#2F1010"/>
<path opacity="0.4" d="M619.851 247.897C593.873 211.74 539.907 216.043 523.552 181.113V177.963C523.486 177.993 523.441 178.014 523.441 178.014C523.263 178.511 523.03 178.972 522.837 179.444C522.629 178.967 522.411 178.506 522.218 178.014C522.218 178.014 522.172 177.993 522.122 177.963V181.113C505.761 216.043 451.806 211.74 425.812 247.897C399.083 285.089 462.693 325.427 462.693 325.427H522.127H523.557H582.981C582.981 325.427 646.586 285.089 619.851 247.897Z" fill="#2F1010"/>
<path opacity="0.4" d="M312.094 581.362H366.668H413.08V274.608H312.094V581.362Z" fill="#2F1010"/>
<path opacity="0.4" d="M313.256 240.952H410.296C410.296 240.952 514.149 175.102 470.502 114.375C428.062 55.3377 339.965 62.3742 313.256 5.34585V0.186523C313.165 0.242329 313.104 0.287778 313.104 0.287778C312.79 1.08428 312.414 1.84557 312.1 2.62684V240.952H313.256Z" fill="#2F1010"/>
</svg>
