<svg width="491" height="530" viewBox="0 0 491 530" fill="none" xmlns="http://www.w3.org/2000/svg">
<path d="M124.369 444.009H191.722L160.448 278.545L124.369 444.009Z" fill="black"/>
<path d="M140.857 257.055C140.857 266.552 148.553 274.248 158.05 274.248C167.546 274.248 175.237 266.552 175.237 257.055C175.237 247.558 167.546 239.867 158.05 239.867C148.553 239.867 140.857 247.558 140.857 257.055Z" fill="black"/>
<path d="M160.195 97.5674C168.499 97.5674 175.231 216.231 175.231 216.231C175.231 224.535 168.499 231.273 160.195 231.273C151.885 231.273 145.148 224.535 145.148 216.231C145.148 216.231 151.885 97.5674 160.195 97.5674Z" fill="black"/>
<path d="M12.9534 332.053C8.87479 324.813 108.938 260.672 108.938 260.672C116.162 256.593 125.334 259.16 129.417 266.395C133.501 273.629 130.939 282.802 123.71 286.886C123.71 286.886 17.0422 339.282 12.9534 332.053Z" fill="black"/>
<path d="M370.032 445.343H302.674L333.958 279.885L370.032 445.343Z" fill="black"/>
<path d="M353.554 258.394C353.554 267.881 345.848 275.582 336.357 275.582C326.876 275.582 319.17 267.881 319.17 258.394C319.17 248.897 326.876 241.196 336.357 241.196C345.848 241.201 353.554 248.902 353.554 258.394Z" fill="black"/>
<path d="M334.206 98.9067C325.912 98.9067 319.17 217.575 319.17 217.575C319.17 225.88 325.912 232.612 334.206 232.612C342.515 232.612 349.252 225.875 349.252 217.575C349.252 217.575 342.515 98.9067 334.206 98.9067Z" fill="black"/>
<path d="M481.447 333.382C485.526 326.148 385.483 262.012 385.483 262.012C378.234 257.933 369.087 260.495 364.988 267.734C360.894 274.974 363.471 284.141 370.695 288.215C370.695 288.215 477.369 340.621 481.447 333.382Z" fill="black"/>
<path d="M301.49 529.026H187.451L240.402 307.092L301.49 529.026Z" fill="#666766"/>
<path d="M273.574 270.712C273.574 286.784 260.547 299.812 244.471 299.812C228.405 299.812 215.367 286.784 215.367 270.712C215.367 254.64 228.405 241.602 244.471 241.602C260.542 241.602 273.574 254.64 273.574 270.712Z" fill="black"/>
<path d="M240.829 0.678711C226.772 0.678711 215.363 201.589 215.363 201.589C215.363 215.657 226.772 227.052 240.829 227.052C254.886 227.052 266.295 215.662 266.295 201.589C266.295 201.589 254.886 0.678711 240.829 0.678711Z" fill="#666766"/>
<path d="M0.357538 403.951C7.38353 416.126 187.061 325.554 187.061 325.554C199.236 318.527 203.411 302.963 196.37 290.772C189.349 278.601 173.775 274.421 161.595 281.452C161.595 281.452 -6.68367 391.765 0.357538 403.951Z" fill="#666766"/>
<path d="M490.127 397.68C497.031 385.428 327.616 276.831 327.616 276.831C315.38 269.936 299.847 274.268 292.947 286.53C286.028 298.772 290.37 314.301 302.621 321.216C302.621 321.216 483.212 409.927 490.127 397.68Z" fill="#666766"/>
<path d="M335.154 274.299C344.66 274.299 352.351 266.598 352.351 257.111C352.351 247.614 344.66 239.917 335.154 239.917C325.657 239.917 317.967 247.614 317.967 257.111C317.972 266.598 325.662 274.299 335.154 274.299Z" fill="black"/>
<path d="M333.003 231.323C341.312 231.323 348.049 224.596 348.049 216.276C348.049 216.276 341.312 97.6182 333.003 97.6182C324.709 97.6182 317.967 216.276 317.967 216.276C317.972 224.601 324.709 231.323 333.003 231.323Z" fill="black"/>
<path d="M369.498 286.931C369.498 286.931 476.171 339.338 480.25 332.103C484.343 324.864 384.265 260.728 384.265 260.728C377.031 256.649 367.869 259.206 363.786 266.44C359.697 273.68 362.274 282.857 369.498 286.931Z" fill="black"/>
<path d="M241.32 313.551V527.743H300.293L241.32 313.551Z" fill="black"/>
<path d="M243.268 298.534C259.349 298.534 272.377 285.5 272.377 269.428C272.377 253.346 259.349 240.323 243.268 240.323C242.609 240.323 241.965 240.369 241.32 240.415V298.432C241.965 298.478 242.609 298.534 243.268 298.534Z" fill="black"/>
<path d="M265.097 200.301C265.097 200.301 254.596 15.3808 241.32 0.389404V225.682C254.596 224.804 265.097 213.79 265.097 200.301Z" fill="black"/>
<path d="M333.018 279.808L332.754 278.596L332.576 279.529C328.66 276.982 326.418 275.552 326.418 275.552C314.182 268.652 298.649 272.98 291.734 285.242C284.83 297.494 289.173 313.023 301.408 319.927C301.408 319.927 309.784 324.042 322.973 330.363L301.49 444.065H368.832L346.466 341.529C400.457 366.936 484.257 404.671 488.914 396.402C495.006 385.596 364.16 299.985 333.018 279.808Z" fill="black"/>
</svg>
