<svg width="459" height="487" viewBox="0 0 459 487" fill="none" xmlns="http://www.w3.org/2000/svg">
<path d="M120.194 407.665V139.265C126.697 138.098 131.648 132.442 131.648 125.603C131.648 117.932 125.429 111.707 117.743 111.707H68.1048C60.4143 111.707 54.2051 117.927 54.2051 125.603C54.2051 132.442 59.1411 138.098 65.6445 139.265V407.665C59.1411 408.832 54.2051 414.483 54.2051 421.317C54.2051 428.993 60.4194 435.223 68.1048 435.223H117.743C125.434 435.223 131.648 428.993 131.648 421.317C131.648 414.478 126.702 408.827 120.194 407.665Z" fill="#FDCC9A"/>
<path d="M215.24 407.665V139.265C221.744 138.098 226.68 132.442 226.68 125.603C226.68 117.932 220.475 111.707 212.805 111.707H163.152C155.476 111.707 149.252 117.927 149.252 125.603C149.252 132.442 154.198 138.098 160.686 139.265V407.665C154.198 408.832 149.252 414.483 149.252 421.317C149.252 428.993 155.481 435.223 163.152 435.223H212.805C220.481 435.223 226.68 428.993 226.68 421.317C226.68 414.478 221.744 408.827 215.24 407.665Z" fill="#FDCC9A"/>
<path d="M308.541 407.665V139.265C315.029 138.098 319.965 132.442 319.965 125.603C319.965 117.932 313.751 111.707 306.066 111.707H256.443C248.752 111.707 242.527 117.927 242.527 125.603C242.527 132.442 247.474 138.098 253.977 139.265V407.665C247.474 408.832 242.527 414.483 242.527 421.317C242.527 428.993 248.757 435.223 256.443 435.223H306.066C313.756 435.223 319.965 428.993 319.965 421.317C319.965 414.478 315.035 408.827 308.541 407.665Z" fill="#FDCC9A"/>
<path d="M405.347 407.665V139.265C411.836 138.098 416.772 132.442 416.772 125.603C416.772 117.932 410.542 111.707 402.882 111.707H353.233C345.558 111.707 339.318 117.927 339.318 125.603C339.318 132.442 344.28 138.098 350.768 139.265V407.665C344.28 408.832 339.318 414.483 339.318 421.317C339.318 428.993 345.558 435.223 353.233 435.223H402.882C410.547 435.223 416.772 428.993 416.772 421.317C416.772 414.478 411.841 408.827 405.347 407.665Z" fill="#FDCC9A"/>
<path d="M432.289 448.18C432.289 455.475 426.379 461.386 419.074 461.386H38.494C31.1991 461.386 25.2891 455.475 25.2891 448.18C25.2891 440.89 31.1991 434.979 38.494 434.979H419.074C426.379 434.984 432.289 440.89 432.289 448.18Z" fill="#F89838"/>
<path d="M439.321 103.189C439.321 110.48 433.41 116.39 426.131 116.39H45.5355C38.2457 116.39 32.3457 110.485 32.3457 103.189C32.3457 95.899 38.2457 89.9836 45.5355 89.9836H426.131C433.41 89.9836 439.321 95.899 439.321 103.189Z" fill="#F89838"/>
<path d="M457.868 67.7628C457.868 82.8608 451.416 95.1025 443.467 95.1025H28.2026C20.2533 95.1025 13.7852 82.8608 13.7852 67.7628C13.7852 52.6598 20.2483 40.418 28.2026 40.418L232.697 0.212646L443.467 40.418C451.416 40.418 457.868 52.6598 457.868 67.7628Z" fill="#CB6828"/>
<path d="M456.721 472.831C456.721 480.121 450.826 486.031 443.516 486.031H14.0586C6.7536 486.031 0.869141 480.121 0.869141 472.831C0.869141 465.535 6.7536 459.63 14.0586 459.63H443.516C450.826 459.63 456.721 465.535 456.721 472.831Z" fill="#CB6828"/>
<path opacity="0.38" d="M443.76 459.625H425.786C429.768 457.362 432.513 453.111 432.513 448.185C432.513 440.895 426.603 434.979 419.308 434.979H405.403C411.978 433.878 417.01 428.201 417.01 421.312C417.01 414.478 412.059 408.827 405.571 407.66V139.255C412.059 138.093 417.01 132.436 417.01 125.603C417.01 122.052 415.63 118.84 413.439 116.39H426.339C433.639 116.39 439.549 110.485 439.549 103.194C439.549 100.135 438.448 97.3449 436.708 95.1076H443.683C451.623 95.1076 458.085 82.8659 458.085 67.7679C458.085 52.6649 451.623 40.4231 443.683 40.4231L233.959 0.415527V116.39H246.306C244.115 118.845 242.74 122.057 242.74 125.603C242.74 132.436 247.696 138.098 254.205 139.255V407.66C247.701 408.827 242.74 414.483 242.74 421.312C242.74 428.201 247.767 433.878 254.342 434.979H233.959V486.026H443.754C451.029 486.026 456.944 480.121 456.944 472.821C456.944 465.535 451.029 459.625 443.76 459.625ZM308.602 434.979C315.171 433.878 320.204 428.201 320.204 421.312C320.204 414.478 315.268 408.827 308.764 407.66V139.255C315.268 138.093 320.204 132.436 320.204 125.603C320.204 122.052 318.824 118.84 316.632 116.39H343.133C340.942 118.845 339.567 122.057 339.567 125.603C339.567 132.436 344.503 138.098 351.017 139.255V407.66C344.503 408.827 339.567 414.483 339.567 421.312C339.567 428.201 344.579 433.878 351.138 434.979H308.602Z" fill="#603913"/>
</svg>
