<svg width="316" height="514" viewBox="0 0 316 514" fill="none" xmlns="http://www.w3.org/2000/svg">
<path d="M83.4453 309.462C83.4453 314.073 87.4123 317.914 92.7947 317.914H223.493C228.881 317.914 233.289 314.073 233.289 309.462V199.312C233.289 194.69 228.911 190.941 223.524 190.941L159.793 120.676L92.9926 190.941C87.6203 190.941 83.4453 194.69 83.4453 199.312V309.462Z" fill="#CB9966"/>
<path d="M43.375 501.905C43.375 508.135 49.569 513.315 57.9444 513.315H261.384C269.749 513.315 276.618 508.135 276.618 501.905V353.279C276.618 347.044 269.779 341.986 261.404 341.986L159.986 345.583L58.259 341.986C49.8734 341.986 43.375 347.044 43.375 353.279V501.905Z" fill="#CB9966"/>
<path d="M27.5117 361.285C27.5117 366.764 32.5796 371.152 38.8497 371.152H281.675C287.94 371.152 293.008 366.764 293.008 361.285C293.008 361.285 278.372 325.727 276.003 318.274C273.634 310.842 270.925 308.371 264.66 308.371H57.7463C51.4761 308.371 48.4679 313.201 46.3981 318.274C44.3436 323.357 27.5117 361.285 27.5117 361.285Z" fill="#F8991D"/>
<path d="M46.6508 318.487C48.7105 313.409 51.7339 308.574 58.0192 308.574H58.973V308.412C56.8931 313.485 40.0256 351.554 40.0256 351.554C40.0256 357.049 45.1087 361.437 51.394 361.437H293.966C294.006 361.437 294.037 361.498 294.037 361.498C294.037 366.982 288.938 371.355 282.668 371.355H39.0719C32.7815 371.355 27.6934 367.043 27.6934 361.554C27.6934 361.554 44.5811 323.571 46.6508 318.487Z" fill="#996632"/>
<path d="M266.913 205.196L57.9238 204.395L162.035 100.292L266.913 205.196Z" fill="#F8991D"/>
<path opacity="0.58" d="M161.014 100.297L154.359 107.019C185.917 135.069 239.655 184.198 237.575 191.778C235.444 199.479 128.497 196.318 68.4387 193.939L57.5117 204.994L266.501 204.598L161.014 100.297Z" fill="#996632"/>
<path d="M165.996 97.0602C167.975 99.0236 168.183 102.017 166.463 103.727L63.2848 207.094C61.5904 208.809 58.6025 208.601 56.619 206.632C54.6456 204.669 54.4376 201.681 56.1472 199.961L159.32 96.6088C161.03 94.8839 164.023 95.0918 165.996 97.0602Z" fill="#996632"/>
<path opacity="0.39" d="M56.8792 203.558L160.037 100.206C161.757 98.4912 164.75 98.6991 166.703 100.657C167.022 100.992 167.296 101.337 167.53 101.702C167.834 100.15 167.322 98.3796 165.993 97.0555C164.019 95.087 161.021 94.879 159.317 96.5989L56.1436 199.951C54.7182 201.407 54.6421 203.715 55.8089 205.582C55.956 204.836 56.3009 204.136 56.8792 203.558Z" fill="white"/>
<path d="M173.834 155.306L160.092 142.202L273.877 0.242676L307.825 32.6403L173.834 155.306Z" fill="#996632"/>
<path d="M153.919 176.183L140.181 163.058L3.74023 283.421L37.6983 315.829L153.919 176.183Z" fill="#996632"/>
<path d="M175.924 161.785L162.82 175.528L283.145 311.983L315.545 278.028L175.924 161.785Z" fill="#996632"/>
<path d="M155.06 141.883L141.956 155.631L0.00585938 41.8228L32.3914 7.86768L155.06 141.883Z" fill="#996632"/>
<path d="M177.178 159.613C177.178 169.993 168.772 178.41 158.408 178.41C148.019 178.41 139.613 169.998 139.613 159.613C139.613 149.249 148.019 140.837 158.408 140.837C168.777 140.832 177.178 149.249 177.178 159.613Z" fill="#653614"/>
<path d="M140.028 459.493C140.028 465.723 134.97 470.776 128.741 470.776H81.1973C74.9678 470.776 69.9102 465.723 69.9102 459.493V411.957C69.9102 405.716 74.9678 400.664 81.1973 400.664H128.741C134.97 400.664 140.028 405.716 140.028 411.957V459.493Z" fill="#653614"/>
<path d="M245.169 459.493C245.169 465.723 240.112 470.776 233.882 470.776H186.344C180.119 470.776 175.057 465.723 175.057 459.493V411.957C175.057 405.716 180.114 400.664 186.344 400.664H233.882C240.112 400.664 245.169 405.716 245.169 411.957V459.493Z" fill="#653614"/>
<path d="M181.439 273.28C181.439 277.952 177.65 281.737 172.978 281.737H137.33C132.658 281.737 128.854 277.952 128.854 273.28V237.62C128.854 232.947 132.658 229.163 137.33 229.163H172.978C177.65 229.163 181.439 232.942 181.439 237.62V273.28Z" fill="#653614"/>
<path opacity="0.56" d="M292.997 361.483C292.997 361.432 293.012 361.392 293.012 361.336C293.012 361.336 278.377 325.783 276.008 318.325C273.639 310.893 270.93 308.427 264.665 308.427H233.289V255.493L283.145 312.024L315.541 278.069L233.289 209.59V205.11L266.912 205.242L266.313 204.639H266.501L250.587 188.917L196.393 134.714L307.83 32.6962L273.882 0.293457L179.602 117.917L165.981 104.29L166.468 103.788C167.041 103.199 167.331 102.464 167.468 101.672C167.488 101.708 167.518 101.728 167.538 101.758C167.61 101.383 167.625 100.997 167.61 100.602C167.61 100.541 167.594 100.495 167.594 100.439C167.554 99.937 167.402 99.4549 167.204 98.9628C167.143 98.8309 167.102 98.694 167.026 98.5621C166.762 98.0548 166.438 97.5575 166.006 97.106C164.033 95.1376 161.035 94.9347 159.331 96.6546L157.494 98.4962V513.366H261.393C269.758 513.366 276.626 508.181 276.626 501.956V371.396H282.673C288.944 371.396 294.042 367.033 294.042 361.544C294.042 361.544 294.011 361.483 293.971 361.483H292.997Z" fill="#653614"/>
</svg>
