<svg width="500" height="464" viewBox="0 0 500 464" fill="none" xmlns="http://www.w3.org/2000/svg">
<path d="M81.5071 418.747C81.5071 431.08 91.5412 440.486 103.858 440.486H402.506C414.813 440.486 425.162 431.075 425.162 418.747V124.702C425.162 112.364 415.006 102.365 402.714 102.365L258.237 15.9622L103.853 102.365C91.5616 102.365 81.502 112.369 81.502 124.702V418.747H81.5071Z" fill="#FFCD05"/>
<path d="M38.8828 94.5516C38.8828 104.313 47.1364 112.12 57.3481 112.12H452.554C462.781 112.12 471.034 104.307 471.034 94.5516C471.034 94.5516 447.207 31.2782 443.336 18.0471C439.476 4.80598 435.067 0.427734 424.881 0.427734H88.09C77.8934 0.427734 73.0032 9.00662 69.6398 18.0471C66.2816 27.0674 38.8828 94.5516 38.8828 94.5516Z" fill="#B22027"/>
<path d="M286.488 439.405C286.488 445.133 292.155 449.496 299.069 449.496H467.135C474.049 449.496 479.883 445.133 479.883 439.405V302.844C479.883 297.116 474.161 292.474 467.246 292.474L385.943 252.345L299.074 292.474C292.16 292.474 286.493 297.116 286.493 302.844V439.405H286.488Z" fill="#D5B029"/>
<path d="M271.041 288.842C271.041 293.377 275.368 297.005 280.685 297.005H487.294C492.631 297.005 496.938 293.377 496.938 288.842C496.938 288.842 484.499 259.457 482.47 253.314C480.456 247.16 478.153 245.131 472.826 245.131H296.766C291.434 245.131 288.872 249.113 287.112 253.314C285.357 257.504 271.041 288.842 271.041 288.842Z" fill="#CB2027"/>
<path d="M16.0254 438.279C16.0254 444.002 21.6868 448.375 28.6063 448.375H196.672C203.586 448.375 209.42 444.007 209.42 438.279V301.718C209.42 295.99 203.713 291.343 196.784 291.343L115.48 251.213L28.6114 291.343C21.6919 291.343 16.0305 295.99 16.0305 301.718V438.279H16.0254Z" fill="#D5B029"/>
<path d="M0.5625 287.721C0.5625 292.246 4.88981 295.883 10.2214 295.883H216.841C222.163 295.883 226.47 292.246 226.47 287.721C226.47 287.721 214.031 258.331 212.002 252.188C209.978 246.034 207.685 244.004 202.353 244.004H26.2873C20.9709 244.004 18.404 247.987 16.6437 252.188C14.8936 256.378 0.5625 287.721 0.5625 287.721Z" fill="#CB2027"/>
<path d="M127.406 446.969C127.406 456.081 134.645 463.026 143.487 463.026H358.503C367.365 463.026 374.823 456.081 374.823 446.969V229.728C374.823 220.622 367.507 213.24 358.64 213.24L254.655 149.404L143.503 213.24C134.645 213.24 127.406 220.622 127.406 229.728V446.969Z" fill="#FFCD05"/>
<path d="M107.621 207.467C107.621 214.671 113.161 220.439 119.979 220.439H384.298C391.121 220.439 396.651 214.671 396.651 207.467C396.651 207.467 380.717 160.722 378.129 150.936C375.552 141.155 372.605 137.923 365.797 137.923H140.544C133.737 137.923 130.459 144.269 128.212 150.936C125.96 157.602 107.621 207.467 107.621 207.467Z" fill="#DB2F3B"/>
<path d="M433.236 338.874C433.236 340.573 434.616 341.943 436.305 341.943H463.207C464.917 341.943 466.276 340.568 466.276 338.874V327.616C466.276 325.917 464.912 324.542 463.207 324.542H436.305C434.611 324.542 433.236 325.917 433.236 327.616V338.874Z" fill="#E05B26"/>
<path d="M450.621 352.79C450.621 354.494 452.001 355.859 453.685 355.859H475.387C477.081 355.859 478.456 354.494 478.456 352.79V341.532C478.456 339.843 477.081 338.468 475.387 338.468H453.685C452.001 338.468 450.621 339.843 450.621 341.532V352.79Z" fill="#F58131"/>
<path d="M375.836 135.376C375.836 137.071 377.216 138.44 378.9 138.44H405.812C407.511 138.44 408.886 137.071 408.886 135.376V124.113C408.886 122.424 407.511 121.044 405.812 121.044H378.9C377.221 121.044 375.836 122.419 375.836 124.113V135.376Z" fill="#E05B26"/>
<path d="M393.232 149.287C393.232 150.981 394.592 152.356 396.302 152.356H417.988C419.688 152.356 421.047 150.981 421.047 149.287V138.029C421.047 136.34 419.688 134.96 417.988 134.96H396.302C394.592 134.96 393.232 136.34 393.232 138.029V149.287Z" fill="#F58131"/>
<path d="M94.0859 142.331C94.0859 144.021 95.4556 145.396 97.15 145.396H124.062C125.756 145.396 127.141 144.021 127.141 142.331V131.064C127.141 129.384 125.761 128 124.062 128H97.15C95.4556 128 94.0859 129.379 94.0859 131.064V142.331Z" fill="#E05B26"/>
<path d="M83.6426 164.943C83.6426 166.632 85.0071 168.007 86.7116 168.007H108.398C110.098 168.007 111.473 166.632 111.473 164.943V153.68C111.473 151.991 110.093 150.611 108.398 150.611H86.7116C85.002 150.611 83.6426 151.991 83.6426 153.68V164.943Z" fill="#F58131"/>
<path d="M421.051 352.83C421.051 354.499 422.552 355.859 424.399 355.859H445.553C447.395 355.859 448.886 354.499 448.886 352.83V341.502C448.886 339.833 447.395 338.473 445.553 338.473H424.399C422.552 338.473 421.051 339.833 421.051 341.502V352.83Z" fill="#F8A685"/>
<path d="M139.316 262.349C139.316 264.044 140.681 265.413 142.375 265.413H169.277C170.971 265.413 172.346 264.044 172.346 262.349V251.092C172.346 249.407 170.971 248.027 169.277 248.027H142.375C140.681 248.027 139.316 249.407 139.316 251.092V262.349Z" fill="#E05B26"/>
<path d="M158.441 278.005C158.441 279.694 159.811 281.069 161.5 281.069H183.202C184.897 281.069 186.261 279.689 186.261 278.005V266.748C186.261 265.058 184.892 263.683 183.202 263.683H161.5C159.806 263.683 158.441 265.058 158.441 266.748V278.005Z" fill="#F58131"/>
<path d="M128.871 278.025C128.871 279.705 130.358 281.069 132.204 281.069H153.358C155.189 281.069 156.691 279.705 156.691 278.025V266.712C156.691 265.038 155.189 263.673 153.358 263.673H132.204C130.358 263.673 128.871 265.038 128.871 266.712V278.025Z" fill="#F8A685"/>
<path d="M29.7363 389.322C29.7363 391.022 31.1009 392.381 32.7953 392.381H59.7071C61.4014 392.381 62.7813 391.022 62.7813 389.322V378.06C62.7813 376.36 61.4014 374.99 59.7071 374.99H32.7953C31.1009 374.99 29.7363 376.36 29.7363 378.06V389.322Z" fill="#E05B26"/>
<path d="M47.1113 403.243C47.1113 404.928 48.5014 406.302 50.1856 406.302H71.8875C73.5818 406.302 74.9464 404.928 74.9464 403.243V391.976C74.9464 390.286 73.5818 388.906 71.8875 388.906H50.1856C48.5014 388.906 47.1113 390.286 47.1113 391.976V403.243Z" fill="#F58131"/>
<path d="M17.5508 403.264C17.5508 404.943 19.0676 406.297 20.8838 406.297H42.0377C43.8843 406.297 45.3859 404.938 45.3859 403.264V391.945C45.3859 390.271 43.8843 388.906 42.0377 388.906H20.8838C19.0676 388.906 17.5508 390.271 17.5508 391.945V403.264Z" fill="#F8A685"/>
<path d="M29.7363 358.015C29.7363 359.71 31.1009 361.08 32.7953 361.08H59.7071C61.4014 361.08 62.7813 359.71 62.7813 358.015V346.748C62.7813 345.058 61.4014 343.688 59.7071 343.688H32.7953C31.1009 343.688 29.7363 345.058 29.7363 346.748V358.015Z" fill="#E05B26"/>
<path d="M47.1113 373.666C47.1113 375.361 48.5014 376.736 50.1856 376.736H71.8875C73.5818 376.736 74.9464 375.361 74.9464 373.666V362.409C74.9464 360.719 73.5818 359.344 71.8875 359.344H50.1856C48.5014 359.344 47.1113 360.719 47.1113 362.409V373.666Z" fill="#F58131"/>
<path d="M17.5508 373.692C17.5508 375.371 19.0676 376.736 20.8838 376.736H42.0377C43.8843 376.736 45.3859 375.376 45.3859 373.692V362.383C45.3859 360.704 43.8843 359.35 42.0377 359.35H20.8838C19.0676 359.35 17.5508 360.709 17.5508 362.383V373.692Z" fill="#F8A685"/>
<path d="M276.621 309.89C276.621 311.975 278.229 313.655 280.203 313.655H328.821C330.805 313.655 332.418 311.975 332.418 309.89V261.639C332.418 259.543 330.805 257.864 328.821 257.864H280.203C278.229 257.864 276.621 259.543 276.621 261.639V309.89Z" fill="white"/>
<path d="M279.502 307.643C279.502 309.378 280.907 310.778 282.632 310.778H324.468C326.203 310.778 327.593 309.378 327.593 307.643V266.763C327.593 265.038 326.203 263.633 324.468 263.633H282.632C280.907 263.633 279.502 265.038 279.502 266.763V307.643Z" fill="#D2EDF3"/>
<path d="M306.425 263.638H301.631V310.778H306.425V263.638Z" fill="white"/>
<path d="M327.598 284.808H279.502V290.577H327.598V284.808Z" fill="white"/>
<path d="M174.355 308.774C174.355 310.854 175.943 312.529 177.937 312.529H226.541C228.529 312.529 230.137 310.854 230.137 308.774V260.518C230.137 258.438 228.529 256.753 226.541 256.753H177.937C175.943 256.753 174.355 258.438 174.355 260.518V308.774Z" fill="white"/>
<path d="M177.227 306.527C177.227 308.252 178.632 309.652 180.367 309.652H222.203C223.928 309.652 225.333 308.252 225.333 306.527V265.642C225.333 263.907 223.928 262.507 222.203 262.507H180.367C178.632 262.507 177.227 263.907 177.227 265.642V306.527Z" fill="#D2EDF3"/>
<path d="M204.165 262.507H199.355V309.647H204.165V262.507Z" fill="white"/>
<path d="M225.333 283.677H177.227V289.451H225.333V283.677Z" fill="white"/>
<path d="M275.768 395.552C275.768 397.627 277.381 399.316 279.354 399.316H327.968C329.967 399.316 331.565 397.627 331.565 395.552V347.28C331.565 345.205 329.967 343.521 327.968 343.521H279.354C277.381 343.521 275.768 345.205 275.768 347.28V395.552Z" fill="white"/>
<path d="M278.66 393.305C278.66 395.035 280.05 396.435 281.79 396.435H323.627C325.351 396.435 326.751 395.035 326.751 393.305V352.42C326.751 350.695 325.351 349.289 323.627 349.289H281.79C280.05 349.289 278.66 350.695 278.66 352.42V393.305Z" fill="#D2EDF3"/>
<path d="M305.597 349.289H300.777V396.43H305.597V349.289Z" fill="white"/>
<path d="M326.756 370.455H278.66V376.228H326.756V370.455Z" fill="white"/>
<path d="M176.594 396.673C176.594 398.753 178.202 400.443 180.206 400.443H228.804C230.793 400.443 232.391 398.753 232.391 396.673V348.412C232.391 346.332 230.793 344.637 228.804 344.637H180.206C178.202 344.637 176.594 346.332 176.594 348.412V396.673Z" fill="white"/>
<path d="M179.484 394.431C179.484 396.161 180.874 397.566 182.609 397.566H224.461C226.186 397.566 227.576 396.166 227.576 394.431V353.546C227.576 351.816 226.186 350.411 224.461 350.411H182.609C180.874 350.411 179.484 351.816 179.484 353.546V394.431Z" fill="#D2EDF3"/>
<path d="M206.422 350.411H201.613V397.566H206.422V350.411Z" fill="white"/>
<path d="M227.581 371.586H179.484V377.344H227.581V371.586Z" fill="white"/>
<path d="M397.641 381.028C397.641 382.905 399.071 384.432 400.867 384.432H444.727C446.533 384.432 447.979 382.905 447.979 381.028V337.479C447.979 335.597 446.533 334.09 444.727 334.09H400.867C399.071 334.09 397.641 335.597 397.641 337.479V381.028Z" fill="white"/>
<path d="M400.248 379.003C400.248 380.556 401.501 381.829 403.074 381.829H440.816C442.358 381.829 443.627 380.561 443.627 379.003V342.116C443.627 340.553 442.358 339.3 440.816 339.3H403.074C401.501 339.3 400.248 340.553 400.248 342.116V379.003Z" fill="#D2EDF3"/>
<path d="M424.538 339.3H420.195V381.829H424.538V339.3Z" fill="white"/>
<path d="M443.627 358.391H400.248V363.591H443.627V358.391Z" fill="white"/>
<path d="M55.0352 373.139C55.0352 375.016 56.4961 376.538 58.2869 376.538H102.137C103.938 376.538 105.389 375.011 105.389 373.139V329.59C105.389 327.718 103.943 326.196 102.137 326.196H58.2869C56.4961 326.196 55.0352 327.718 55.0352 329.59V373.139Z" fill="white"/>
<path d="M57.6367 371.114C57.6367 372.672 58.905 373.94 60.4624 373.94H98.2201C99.7622 373.94 101.046 372.672 101.046 371.114V334.227C101.046 332.664 99.7622 331.401 98.2201 331.401H60.4624C58.905 331.401 57.6367 332.664 57.6367 334.227V371.114Z" fill="#D2EDF3"/>
<path d="M81.9466 331.401H77.6094V373.935H81.9466V331.401Z" fill="white"/>
<path d="M101.046 350.497H57.6367V355.697H101.046V350.497Z" fill="white"/>
<path opacity="0.66" d="M478.28 250.808C478.28 250.808 477.894 255.5 472.425 255.5C466.942 255.5 466.942 250.031 466.942 250.031C466.942 250.031 464.613 256.677 472.04 257.849C479.456 259.016 478.28 250.808 478.28 250.808Z" fill="#991B1E"/>
<path opacity="0.66" d="M466.059 250.808C466.059 250.808 465.673 255.5 460.215 255.5C454.731 255.5 454.731 250.031 454.731 250.031C454.731 250.031 452.403 256.677 459.819 257.849C467.231 259.016 466.059 250.808 466.059 250.808Z" fill="#991B1E"/>
<path opacity="0.66" d="M453.833 250.808C453.833 250.808 453.463 255.5 447.979 255.5C442.526 255.5 442.526 250.031 442.526 250.031C442.526 250.031 440.182 256.677 447.593 257.849C455.025 259.016 453.833 250.808 453.833 250.808Z" fill="#991B1E"/>
<path opacity="0.66" d="M441.643 250.808C441.643 250.808 441.227 255.5 435.758 255.5C430.3 255.5 430.3 250.031 430.3 250.031C430.3 250.031 427.946 256.677 435.373 257.849C442.809 259.016 441.643 250.808 441.643 250.808Z" fill="#991B1E"/>
<path opacity="0.66" d="M429.416 250.808C429.416 250.808 429.021 255.5 423.547 255.5C418.094 255.5 418.094 250.031 418.094 250.031C418.094 250.031 415.75 256.677 423.167 257.849C430.588 259.016 429.416 250.808 429.416 250.808Z" fill="#991B1E"/>
<path opacity="0.66" d="M417.206 250.808C417.206 250.808 416.821 255.5 411.337 255.5C405.868 255.5 405.868 250.031 405.868 250.031C405.868 250.031 403.525 256.677 410.952 257.849C418.368 259.016 417.206 250.808 417.206 250.808Z" fill="#991B1E"/>
<path opacity="0.66" d="M404.102 250.808C404.102 250.808 403.717 255.5 398.243 255.5C392.774 255.5 392.774 250.031 392.774 250.031C392.774 250.031 390.431 256.677 397.863 257.849C405.274 259.016 404.102 250.808 404.102 250.808Z" fill="#991B1E"/>
<path opacity="0.66" d="M391.892 250.808C391.892 250.808 391.491 255.5 386.022 255.5C380.569 255.5 380.569 250.031 380.569 250.031C380.569 250.031 378.21 256.677 385.637 257.849C393.069 259.016 391.892 250.808 391.892 250.808Z" fill="#991B1E"/>
<path opacity="0.66" d="M483.52 261.289C483.52 261.289 483.135 265.967 477.651 265.967C472.198 265.967 472.197 260.492 472.197 260.492C472.197 260.492 469.854 267.138 477.265 268.315C484.692 269.492 483.52 261.289 483.52 261.289Z" fill="#991B1E"/>
<path opacity="0.66" d="M471.295 261.289C471.295 261.289 470.909 265.967 465.44 265.967C459.967 265.967 459.967 260.492 459.967 260.492C459.967 260.492 457.623 267.138 465.04 268.315C472.482 269.492 471.295 261.289 471.295 261.289Z" fill="#991B1E"/>
<path opacity="0.66" d="M459.083 261.289C459.083 261.289 458.687 265.967 453.228 265.967C447.76 265.967 447.76 260.492 447.76 260.492C447.76 260.492 445.416 267.138 452.828 268.315C460.244 269.492 459.083 261.289 459.083 261.289Z" fill="#991B1E"/>
<path opacity="0.66" d="M446.878 261.289C446.878 261.289 446.477 265.967 441.009 265.967C435.535 265.967 435.535 260.492 435.535 260.492C435.535 260.492 433.181 267.138 440.623 268.315C448.035 269.492 446.878 261.289 446.878 261.289Z" fill="#991B1E"/>
<path opacity="0.66" d="M434.651 261.289C434.651 261.289 434.256 265.967 428.787 265.967C423.313 265.967 423.314 260.492 423.314 260.492C423.314 260.492 420.97 267.138 428.402 268.315C435.823 269.492 434.651 261.289 434.651 261.289Z" fill="#991B1E"/>
<path opacity="0.66" d="M422.431 261.289C422.431 261.289 422.046 265.967 416.562 265.967C411.109 265.967 411.109 260.492 411.109 260.492C411.109 260.492 408.765 267.138 416.192 268.315C423.603 269.492 422.431 261.289 422.431 261.289Z" fill="#991B1E"/>
<path opacity="0.66" d="M409.353 261.289C409.353 261.289 408.957 265.967 403.484 265.967C398.015 265.967 398.015 260.492 398.015 260.492C398.015 260.492 395.656 267.138 403.098 268.315C410.51 269.492 409.353 261.289 409.353 261.289Z" fill="#991B1E"/>
<path opacity="0.66" d="M397.128 261.289C397.128 261.289 396.728 265.967 391.259 265.967C385.79 265.967 385.79 260.492 385.79 260.492C385.79 260.492 383.447 267.138 390.873 268.315C398.3 269.492 397.128 261.289 397.128 261.289Z" fill="#991B1E"/>
<path opacity="0.66" d="M479.162 271.75C479.162 271.75 478.751 276.448 473.277 276.448C467.824 276.448 467.824 270.969 467.824 270.969C467.824 270.969 465.48 277.615 472.907 278.787C480.323 279.969 479.162 271.75 479.162 271.75Z" fill="#991B1E"/>
<path opacity="0.66" d="M466.94 271.75C466.94 271.75 466.555 276.448 461.071 276.448C455.597 276.448 455.597 270.969 455.597 270.969C455.597 270.969 453.259 277.615 460.685 278.787C468.102 279.969 466.94 271.75 466.94 271.75Z" fill="#991B1E"/>
<path opacity="0.66" d="M454.716 271.75C454.716 271.75 454.335 276.448 448.861 276.448C443.393 276.448 443.393 270.969 443.393 270.969C443.393 270.969 441.034 277.615 448.466 278.787C455.887 279.969 454.716 271.75 454.716 271.75Z" fill="#991B1E"/>
<path opacity="0.66" d="M442.509 271.75C442.509 271.75 442.124 276.448 436.64 276.448C431.171 276.448 431.171 270.969 431.171 270.969C431.171 270.969 428.828 277.615 436.254 278.787C443.676 279.969 442.509 271.75 442.509 271.75Z" fill="#991B1E"/>
<path opacity="0.66" d="M430.289 271.75C430.289 271.75 429.888 276.448 424.43 276.448C418.961 276.448 418.961 270.969 418.961 270.969C418.961 270.969 416.602 277.615 424.034 278.787C431.456 279.969 430.289 271.75 430.289 271.75Z" fill="#991B1E"/>
<path opacity="0.66" d="M418.073 271.75C418.073 271.75 417.688 276.448 412.204 276.448C406.751 276.448 406.751 270.969 406.751 270.969C406.751 270.969 404.392 277.615 411.818 278.787C419.25 279.969 418.073 271.75 418.073 271.75Z" fill="#991B1E"/>
<path opacity="0.66" d="M404.986 271.75C404.986 271.75 404.6 276.448 399.116 276.448C393.642 276.448 393.642 270.969 393.642 270.969C393.642 270.969 391.299 277.615 398.715 278.787C406.157 279.969 404.986 271.75 404.986 271.75Z" fill="#991B1E"/>
<path opacity="0.66" d="M392.776 271.75C392.776 271.75 392.365 276.448 386.922 276.448C381.438 276.448 381.438 270.969 381.438 270.969C381.438 270.969 379.079 277.615 386.506 278.787C393.933 279.969 392.776 271.75 392.776 271.75Z" fill="#991B1E"/>
<path opacity="0.66" d="M486.137 281.359C486.137 281.359 485.751 286.051 480.278 286.051C474.794 286.051 474.794 280.572 474.794 280.572C474.794 280.572 472.45 287.218 479.882 288.39C487.309 289.567 486.137 281.359 486.137 281.359Z" fill="#991B1E"/>
<path opacity="0.66" d="M473.912 281.359C473.912 281.359 473.516 286.051 468.058 286.051C462.589 286.051 462.589 280.572 462.589 280.572C462.589 280.572 460.246 287.218 467.672 288.39C475.089 289.567 473.912 281.359 473.912 281.359Z" fill="#991B1E"/>
<path opacity="0.66" d="M461.706 281.359C461.706 281.359 461.306 286.051 455.837 286.051C450.368 286.051 450.368 280.572 450.368 280.572C450.368 280.572 448.025 287.218 455.452 288.39C462.873 289.567 461.706 281.359 461.706 281.359Z" fill="#991B1E"/>
<path opacity="0.66" d="M449.485 281.359C449.485 281.359 449.085 286.051 443.626 286.051C438.158 286.051 438.158 280.572 438.158 280.572C438.158 280.572 435.814 287.218 443.241 288.39C450.652 289.567 449.485 281.359 449.485 281.359Z" fill="#991B1E"/>
<path opacity="0.66" d="M437.26 281.359C437.26 281.359 436.874 286.051 431.405 286.051C425.937 286.051 425.937 280.572 425.937 280.572C425.937 280.572 423.593 287.218 431.02 288.39C438.442 289.567 437.26 281.359 437.26 281.359Z" fill="#991B1E"/>
<path opacity="0.66" d="M425.05 281.359C425.05 281.359 424.664 286.051 419.191 286.051C413.707 286.051 413.707 280.572 413.707 280.572C413.707 280.572 411.378 287.218 418.81 288.39C426.207 289.567 425.05 281.359 425.05 281.359Z" fill="#991B1E"/>
<path opacity="0.66" d="M411.956 281.359C411.956 281.359 411.555 286.051 406.102 286.051C400.633 286.051 400.633 280.572 400.633 280.572C400.633 280.572 398.289 287.218 405.701 288.39C413.133 289.567 411.956 281.359 411.956 281.359Z" fill="#991B1E"/>
<path opacity="0.66" d="M399.75 281.359C399.75 281.359 399.349 286.051 393.88 286.051C388.407 286.051 388.407 280.572 388.407 280.572C388.407 280.572 386.063 287.218 393.505 288.39C400.916 289.567 399.75 281.359 399.75 281.359Z" fill="#991B1E"/>
<path opacity="0.54" d="M25.9984 249.94C25.9984 249.94 26.384 254.623 31.8678 254.623C37.3415 254.623 37.3414 249.149 37.3414 249.149C37.3414 249.149 39.6699 255.795 32.2533 256.966C24.8316 258.149 25.9984 249.94 25.9984 249.94Z" fill="#991B1E"/>
<path opacity="0.54" d="M38.2098 249.94C38.2098 249.94 38.6106 254.623 44.0944 254.623C49.5528 254.623 49.5528 249.149 49.5528 249.149C49.5528 249.149 51.8965 255.795 44.4799 256.966C37.0531 258.149 38.2098 249.94 38.2098 249.94Z" fill="#991B1E"/>
<path opacity="0.54" d="M50.4346 249.94C50.4346 249.94 50.8201 254.623 56.3039 254.623C61.7776 254.623 61.7776 249.149 61.7776 249.149C61.7776 249.149 64.1161 255.795 56.6894 256.966C49.2626 258.149 50.4346 249.94 50.4346 249.94Z" fill="#991B1E"/>
<path opacity="0.54" d="M62.6554 249.94C62.6554 249.94 63.0409 254.623 68.5095 254.623C73.9832 254.623 73.9832 249.149 73.9832 249.149C73.9832 249.149 76.3218 255.795 68.9103 256.966C61.4683 258.149 62.6554 249.94 62.6554 249.94Z" fill="#991B1E"/>
<path opacity="0.54" d="M74.8663 249.94C74.8663 249.94 75.2519 254.623 80.7357 254.623C86.1942 254.623 86.1941 249.149 86.1941 249.149C86.1941 249.149 88.548 255.795 81.1212 256.966C73.6793 258.149 74.8663 249.94 74.8663 249.94Z" fill="#991B1E"/>
<path opacity="0.54" d="M87.0752 249.94C87.0752 249.94 87.4759 254.623 92.9445 254.623C98.4283 254.623 98.4284 249.149 98.4284 249.149C98.4284 249.149 100.772 255.795 93.3301 256.966C85.9186 258.149 87.0752 249.94 87.0752 249.94Z" fill="#991B1E"/>
<path opacity="0.54" d="M100.164 249.94C100.164 249.94 100.55 254.623 106.034 254.623C111.502 254.623 111.502 249.149 111.502 249.149C111.502 249.149 113.846 255.795 106.419 256.966C98.9977 258.149 100.164 249.94 100.164 249.94Z" fill="#991B1E"/>
<path opacity="0.54" d="M112.385 249.94C112.385 249.94 112.771 254.623 118.255 254.623C123.723 254.623 123.723 249.149 123.723 249.149C123.723 249.149 126.057 255.795 118.625 256.966C111.219 258.149 112.385 249.94 112.385 249.94Z" fill="#991B1E"/>
<path opacity="0.54" d="M20.7627 260.406C20.7627 260.406 21.1483 265.104 26.6322 265.104C32.0906 265.104 32.0906 259.63 32.0906 259.63C32.0906 259.63 34.4495 266.271 27.0177 267.443C19.5909 268.62 20.7627 260.406 20.7627 260.406Z" fill="#991B1E"/>
<path opacity="0.54" d="M32.9894 260.406C32.9894 260.406 33.375 265.104 38.8436 265.104C44.3173 265.104 44.3172 259.63 44.3172 259.63C44.3172 259.63 46.6609 266.271 39.2443 267.443C31.8023 268.62 32.9894 260.406 32.9894 260.406Z" fill="#991B1E"/>
<path opacity="0.54" d="M45.1944 260.406C45.1944 260.406 45.5951 265.104 51.0485 265.104C56.5374 265.104 56.5374 259.63 56.5374 259.63C56.5374 259.63 58.876 266.271 51.4493 267.443C44.0225 268.62 45.1944 260.406 45.1944 260.406Z" fill="#991B1E"/>
<path opacity="0.54" d="M57.419 260.406C57.419 260.406 57.8045 265.104 63.2732 265.104C68.7468 265.104 68.7469 259.63 68.7469 259.63C68.7469 259.63 71.0855 266.271 63.674 267.443C56.232 268.62 57.419 260.406 57.419 260.406Z" fill="#991B1E"/>
<path opacity="0.54" d="M69.63 260.406C69.63 260.406 70.0307 265.104 75.4993 265.104C80.9679 265.104 80.9679 259.63 80.9679 259.63C80.9679 259.63 83.2964 266.271 75.8798 267.443C68.4581 268.62 69.63 260.406 69.63 260.406Z" fill="#991B1E"/>
<path opacity="0.54" d="M81.8407 260.406C81.8407 260.406 82.2415 265.104 87.7101 265.104C93.1939 265.104 93.1939 259.63 93.1939 259.63C93.1939 259.63 95.5375 266.271 88.1107 267.443C80.6688 268.62 81.8407 260.406 81.8407 260.406Z" fill="#991B1E"/>
<path opacity="0.54" d="M94.9288 260.406C94.9288 260.406 95.3294 265.104 100.798 265.104C106.267 265.104 106.267 259.63 106.267 259.63C106.267 259.63 108.61 266.271 101.184 267.443C93.7569 268.62 94.9288 260.406 94.9288 260.406Z" fill="#991B1E"/>
<path opacity="0.54" d="M107.149 260.406C107.149 260.406 107.549 265.104 113.018 265.104C118.492 265.104 118.492 259.63 118.492 259.63C118.492 259.63 120.82 266.271 113.404 267.443C105.982 268.62 107.149 260.406 107.149 260.406Z" fill="#991B1E"/>
<path opacity="0.54" d="M25.1313 270.882C25.1313 270.882 25.5168 275.58 30.9854 275.58C36.459 275.58 36.4591 270.096 36.4591 270.096C36.4591 270.096 38.8028 276.742 31.3862 277.919C23.9493 279.091 25.1313 270.882 25.1313 270.882Z" fill="#991B1E"/>
<path opacity="0.54" d="M37.3408 270.882C37.3408 270.882 37.7416 275.58 43.2102 275.58C48.6839 275.58 48.6839 270.096 48.6839 270.096C48.6839 270.096 51.0225 276.742 43.6008 277.919C36.169 279.091 37.3408 270.882 37.3408 270.882Z" fill="#991B1E"/>
<path opacity="0.54" d="M49.5677 270.882C49.5677 270.882 49.9532 275.58 55.4218 275.58C60.8955 275.58 60.8955 270.096 60.8955 270.096C60.8955 270.096 63.2342 276.742 55.8074 277.919C48.3807 279.091 49.5677 270.882 49.5677 270.882Z" fill="#991B1E"/>
<path opacity="0.54" d="M61.7718 270.882C61.7718 270.882 62.1727 275.58 67.6413 275.58C73.1099 275.58 73.1097 270.096 73.1097 270.096C73.1097 270.096 75.4535 276.742 68.0268 277.919C60.6051 279.091 61.7718 270.882 61.7718 270.882Z" fill="#991B1E"/>
<path opacity="0.54" d="M73.9973 270.882C73.9973 270.882 74.3981 275.58 79.8565 275.58C85.3251 275.58 85.3251 270.096 85.3251 270.096C85.3251 270.096 87.6689 276.742 80.2371 277.919C72.8255 279.091 73.9973 270.882 73.9973 270.882Z" fill="#991B1E"/>
<path opacity="0.54" d="M86.2043 270.882C86.2043 270.882 86.5898 275.58 92.0635 275.58C97.5473 275.58 97.5473 270.096 97.5473 270.096C97.5473 270.096 99.8808 276.742 92.449 277.919C85.0324 279.091 86.2043 270.882 86.2043 270.882Z" fill="#991B1E"/>
<path opacity="0.54" d="M99.3118 270.882C99.3118 270.882 99.6923 275.58 105.151 275.58C110.619 275.58 110.619 270.096 110.619 270.096C110.619 270.096 112.978 276.742 105.552 277.919C98.1248 279.091 99.3118 270.882 99.3118 270.882Z" fill="#991B1E"/>
<path opacity="0.54" d="M111.523 270.882C111.523 270.882 111.908 275.58 117.377 275.58C122.845 275.58 122.845 270.096 122.845 270.096C122.845 270.096 125.189 276.742 117.777 277.919C110.351 279.091 111.523 270.882 111.523 270.882Z" fill="#991B1E"/>
<path opacity="0.54" d="M18.1454 280.486C18.1454 280.486 18.5462 285.169 24.0047 285.169C29.4885 285.169 29.4885 279.7 29.4885 279.7C29.4885 279.7 31.817 286.346 24.4055 287.517C16.9889 288.689 18.1454 280.486 18.1454 280.486Z" fill="#991B1E"/>
<path opacity="0.54" d="M30.3703 280.486C30.3703 280.486 30.7558 285.169 36.2244 285.169C41.6981 285.169 41.6981 279.7 41.6981 279.7C41.6981 279.7 44.0418 286.346 36.615 287.517C29.1984 288.689 30.3703 280.486 30.3703 280.486Z" fill="#991B1E"/>
<path opacity="0.54" d="M42.5772 280.486C42.5772 280.486 42.9626 285.169 48.4464 285.169C53.9049 285.169 53.905 279.7 53.905 279.7C53.905 279.7 56.2588 286.346 48.8321 287.517C41.4205 288.689 42.5772 280.486 42.5772 280.486Z" fill="#991B1E"/>
<path opacity="0.54" d="M54.7879 280.486C54.7879 280.486 55.1887 285.169 60.6573 285.169C66.131 285.169 66.131 279.7 66.131 279.7C66.131 279.7 68.4697 286.346 61.0581 287.517C53.6314 288.689 54.7879 280.486 54.7879 280.486Z" fill="#991B1E"/>
<path opacity="0.54" d="M67.0126 280.486C67.0126 280.486 67.4134 285.169 72.882 285.169C78.3506 285.169 78.3506 279.7 78.3506 279.7C78.3506 279.7 80.6943 286.346 73.2777 287.517C65.8408 288.689 67.0126 280.486 67.0126 280.486Z" fill="#991B1E"/>
<path opacity="0.54" d="M79.2176 280.486C79.2176 280.486 79.6185 285.169 85.0871 285.169C90.5557 285.169 90.5557 279.7 90.5557 279.7C90.5557 279.7 92.9146 286.346 85.4828 287.517C78.0611 288.689 79.2176 280.486 79.2176 280.486Z" fill="#991B1E"/>
<path opacity="0.54" d="M92.3209 280.486C92.3209 280.486 92.7064 285.169 98.175 285.169C103.649 285.169 103.649 279.7 103.649 279.7C103.649 279.7 105.992 286.346 98.5607 287.517C91.139 288.689 92.3209 280.486 92.3209 280.486Z" fill="#991B1E"/>
<path opacity="0.54" d="M104.521 280.486C104.521 280.486 104.932 285.169 110.406 285.169C115.859 285.169 115.859 279.7 115.859 279.7C115.859 279.7 118.218 286.346 110.791 287.517C103.359 288.689 104.521 280.486 104.521 280.486Z" fill="#991B1E"/>
<path d="M371.458 146.887C371.458 146.887 370.986 152.99 364.321 152.99C357.655 152.99 357.655 145.863 357.655 145.863C357.655 145.863 354.789 154.518 363.854 156.055C372.874 157.582 371.458 146.887 371.458 146.887Z" fill="#991B1E"/>
<path d="M356.56 146.887C356.56 146.887 356.088 152.99 349.437 152.99C342.772 152.99 342.772 145.863 342.772 145.863C342.772 145.863 339.916 154.518 348.961 156.055C357.995 157.582 356.56 146.887 356.56 146.887Z" fill="#991B1E"/>
<path d="M341.697 146.887C341.697 146.887 341.21 152.99 334.559 152.99C327.888 152.99 327.888 145.863 327.888 145.863C327.888 145.863 325.027 154.518 334.077 156.055C343.112 157.582 341.697 146.887 341.697 146.887Z" fill="#991B1E"/>
<path d="M326.796 146.887C326.796 146.887 326.324 152.99 319.659 152.99C312.988 152.99 312.988 145.863 312.988 145.863C312.988 145.863 310.142 154.518 319.177 156.055C328.227 157.582 326.796 146.887 326.796 146.887Z" fill="#991B1E"/>
<path d="M311.912 146.887C311.912 146.887 311.43 152.99 304.78 152.99C298.109 152.99 298.109 145.863 298.109 145.863C298.109 145.863 295.263 154.518 304.298 156.055C313.348 157.582 311.912 146.887 311.912 146.887Z" fill="#991B1E"/>
<path d="M297.018 146.887C297.018 146.887 296.561 152.99 289.88 152.99C283.209 152.99 283.209 145.863 283.209 145.863C283.209 145.863 280.363 154.518 289.414 156.055C298.464 157.582 297.018 146.887 297.018 146.887Z" fill="#991B1E"/>
<path d="M281.086 146.887C281.086 146.887 280.588 152.99 273.933 152.99C267.262 152.99 267.262 145.863 267.262 145.863C267.262 145.863 264.406 154.518 273.451 156.055C282.506 157.582 281.086 146.887 281.086 146.887Z" fill="#991B1E"/>
<path d="M266.191 146.887C266.191 146.887 265.719 152.99 259.038 152.99C252.388 152.99 252.388 145.863 252.388 145.863C252.388 145.863 249.532 154.518 258.592 156.055C267.612 157.582 266.191 146.887 266.191 146.887Z" fill="#991B1E"/>
<path d="M250.359 147.861C250.359 147.861 249.877 153.969 243.221 153.969C236.54 153.969 236.54 146.842 236.54 146.842C236.54 146.842 233.684 155.502 242.745 157.034C251.774 158.556 250.359 147.861 250.359 147.861Z" fill="#991B1E"/>
<path d="M235.474 147.861C235.474 147.861 234.977 153.969 228.321 153.969C221.665 153.969 221.665 146.842 221.665 146.842C221.665 146.842 218.799 155.502 227.849 157.034C236.889 158.556 235.474 147.861 235.474 147.861Z" fill="#991B1E"/>
<path d="M220.581 147.861C220.581 147.861 220.109 153.969 213.443 153.969C206.778 153.969 206.778 146.842 206.778 146.842C206.778 146.842 203.921 155.502 212.966 157.034C222.011 158.556 220.581 147.861 220.581 147.861Z" fill="#991B1E"/>
<path d="M205.697 147.861C205.697 147.861 205.21 153.969 198.544 153.969C191.878 153.969 191.878 146.842 191.878 146.842C191.878 146.842 189.037 155.502 198.077 157.034C207.127 158.556 205.697 147.861 205.697 147.861Z" fill="#991B1E"/>
<path d="M190.803 147.861C190.803 147.861 190.331 153.969 183.65 153.969C177 153.969 177 146.842 177 146.842C177 146.842 174.144 155.502 183.199 157.034C192.234 158.556 190.803 147.861 190.803 147.861Z" fill="#991B1E"/>
<path d="M175.928 147.861C175.928 147.861 175.446 153.969 168.781 153.969C162.11 153.969 162.11 146.842 162.11 146.842C162.11 146.842 159.264 155.502 168.314 157.034C177.349 158.556 175.928 147.861 175.928 147.861Z" fill="#991B1E"/>
<path d="M159.97 147.861C159.97 147.861 159.488 153.969 152.822 153.969C146.161 153.969 146.161 146.842 146.161 146.842C146.161 146.842 143.295 155.502 152.35 157.034C161.395 158.556 159.97 147.861 159.97 147.861Z" fill="#991B1E"/>
<path d="M145.091 147.861C145.091 147.861 144.609 153.969 137.938 153.969C131.282 153.969 131.282 146.842 131.282 146.842C131.282 146.842 128.416 155.502 137.471 157.034C146.511 158.556 145.091 147.861 145.091 147.861Z" fill="#991B1E"/>
<path d="M379.671 164.415C379.671 164.415 379.174 170.518 372.519 170.518C365.848 170.518 365.848 163.396 365.848 163.396C365.848 163.396 362.982 172.056 372.052 173.583C381.087 175.11 379.671 164.415 379.671 164.415Z" fill="#991B1E"/>
<path d="M364.773 164.415C364.773 164.415 364.286 170.518 357.62 170.518C350.954 170.518 350.954 163.396 350.954 163.396C350.954 163.396 348.098 172.056 357.159 173.583C366.209 175.11 364.773 164.415 364.773 164.415Z" fill="#991B1E"/>
<path d="M349.879 164.415C349.879 164.415 349.407 170.518 342.741 170.518C336.075 170.518 336.075 163.396 336.075 163.396C336.075 163.396 333.209 172.056 342.264 173.583C351.309 175.11 349.879 164.415 349.879 164.415Z" fill="#991B1E"/>
<path d="M334.996 164.415C334.996 164.415 334.524 170.518 327.843 170.518C321.182 170.518 321.182 163.396 321.182 163.396C321.182 163.396 318.336 172.056 327.386 173.583C336.416 175.11 334.996 164.415 334.996 164.415Z" fill="#991B1E"/>
<path d="M320.101 164.415C320.101 164.415 319.63 170.518 312.979 170.518C306.308 170.518 306.308 163.396 306.308 163.396C306.308 163.396 303.447 172.056 312.497 173.583C321.532 175.11 320.101 164.415 320.101 164.415Z" fill="#991B1E"/>
<path d="M305.228 164.415C305.228 164.415 304.746 170.518 298.09 170.518C291.409 170.518 291.409 163.396 291.409 163.396C291.409 163.396 288.558 172.056 297.598 173.583C306.648 175.11 305.228 164.415 305.228 164.415Z" fill="#991B1E"/>
<path d="M289.272 164.415C289.272 164.415 288.79 170.518 282.135 170.518C275.469 170.518 275.469 163.396 275.469 163.396C275.469 163.396 272.613 172.056 281.658 173.583C290.693 175.11 289.272 164.415 289.272 164.415Z" fill="#991B1E"/>
<path d="M274.389 164.415C274.389 164.415 273.908 170.518 267.252 170.518C260.586 170.518 260.586 163.396 260.586 163.396C260.586 163.396 257.73 172.056 266.775 173.583C275.82 175.11 274.389 164.415 274.389 164.415Z" fill="#991B1E"/>
<path d="M258.54 165.384C258.54 165.384 258.058 171.503 251.402 171.503C244.731 171.503 244.731 164.359 244.731 164.359C244.731 164.359 241.891 173.024 250.936 174.552C259.97 176.079 258.54 165.384 258.54 165.384Z" fill="#991B1E"/>
<path d="M243.657 165.384C243.657 165.384 243.186 171.503 236.52 171.503C229.849 171.503 229.849 164.359 229.849 164.359C229.849 164.359 226.993 173.024 236.053 174.552C245.093 176.079 243.657 165.384 243.657 165.384Z" fill="#991B1E"/>
<path d="M228.762 165.384C228.762 165.384 228.306 171.503 221.64 171.503C214.969 171.503 214.969 164.359 214.969 164.359C214.969 164.359 212.113 173.024 221.158 174.552C230.208 176.079 228.762 165.384 228.762 165.384Z" fill="#991B1E"/>
<path d="M213.879 165.384C213.879 165.384 213.408 171.503 206.742 171.503C200.091 171.503 200.091 164.359 200.091 164.359C200.091 164.359 197.225 173.024 206.275 174.552C215.315 176.079 213.879 165.384 213.879 165.384Z" fill="#991B1E"/>
<path d="M199 165.384C199 165.384 198.544 171.503 191.863 171.503C185.197 171.503 185.197 164.359 185.197 164.359C185.197 164.359 182.341 173.024 191.396 174.552C200.446 176.079 199 165.384 199 165.384Z" fill="#991B1E"/>
<path d="M184.117 165.384C184.117 165.384 183.645 171.503 176.964 171.503C170.298 171.503 170.298 164.359 170.298 164.359C170.298 164.359 167.457 173.024 176.497 174.552C185.547 176.079 184.117 165.384 184.117 165.384Z" fill="#991B1E"/>
<path d="M168.173 165.384C168.173 165.384 167.691 171.503 161.025 171.503C154.354 171.503 154.354 164.359 154.354 164.359C154.354 164.359 151.508 173.024 160.558 174.552C169.608 176.079 168.173 165.384 168.173 165.384Z" fill="#991B1E"/>
<path d="M153.272 165.384C153.272 165.384 152.805 171.503 146.124 171.503C139.478 171.503 139.478 164.359 139.478 164.359C139.478 164.359 136.612 173.024 145.652 174.552C154.692 176.079 153.272 165.384 153.272 165.384Z" fill="#991B1E"/>
<path d="M369.638 179.995C369.638 179.995 369.167 186.109 362.501 186.109C355.82 186.109 355.82 178.976 355.82 178.976C355.82 178.976 352.979 187.631 362.019 189.152C371.074 190.69 369.638 179.995 369.638 179.995Z" fill="#991B1E"/>
<path d="M354.76 179.995C354.76 179.995 354.273 186.109 347.607 186.109C340.941 186.109 340.941 178.976 340.941 178.976C340.941 178.976 338.085 187.631 347.14 189.152C356.175 190.69 354.76 179.995 354.76 179.995Z" fill="#991B1E"/>
<path d="M339.859 179.995C339.859 179.995 339.387 186.109 332.722 186.109C326.051 186.109 326.051 178.976 326.051 178.976C326.051 178.976 323.2 187.631 332.255 189.152C341.295 190.69 339.859 179.995 339.859 179.995Z" fill="#991B1E"/>
<path d="M324.976 179.995C324.976 179.995 324.494 186.109 317.844 186.109C311.163 186.109 311.163 178.976 311.163 178.976C311.163 178.976 308.317 187.631 317.362 189.152C326.397 190.69 324.976 179.995 324.976 179.995Z" fill="#991B1E"/>
<path d="M310.091 179.995C310.091 179.995 309.624 186.109 302.943 186.109C296.272 186.109 296.272 178.976 296.272 178.976C296.272 178.976 293.432 187.631 302.477 189.152C311.511 190.69 310.091 179.995 310.091 179.995Z" fill="#991B1E"/>
<path d="M295.198 179.995C295.198 179.995 294.732 186.109 288.061 186.109C281.41 186.109 281.41 178.976 281.41 178.976C281.41 178.976 278.544 187.631 287.584 189.152C296.644 190.69 295.198 179.995 295.198 179.995Z" fill="#991B1E"/>
<path d="M279.254 179.995C279.254 179.995 278.782 186.109 272.117 186.109C265.436 186.109 265.436 178.976 265.436 178.976C265.436 178.976 262.595 187.631 271.655 189.152C280.685 190.69 279.254 179.995 279.254 179.995Z" fill="#991B1E"/>
<path d="M264.375 179.995C264.375 179.995 263.888 186.109 257.237 186.109C250.567 186.109 250.567 178.976 250.567 178.976C250.567 178.976 247.711 187.631 256.756 189.152C265.79 190.69 264.375 179.995 264.375 179.995Z" fill="#991B1E"/>
<path d="M248.537 180.979C248.537 180.979 248.05 187.077 241.399 187.077C234.718 187.077 234.718 179.955 234.718 179.955C234.718 179.955 231.862 188.609 240.922 190.137C249.957 191.664 248.537 180.979 248.537 180.979Z" fill="#991B1E"/>
<path d="M233.643 180.979C233.643 180.979 233.172 187.077 226.506 187.077C219.84 187.077 219.84 179.955 219.84 179.955C219.84 179.955 216.984 188.609 226.029 190.137C235.089 191.664 233.643 180.979 233.643 180.979Z" fill="#991B1E"/>
<path d="M218.759 180.979C218.759 180.979 218.288 187.077 211.622 187.077C204.951 187.077 204.951 179.955 204.951 179.955C204.951 179.955 202.09 188.609 211.14 190.137C220.19 191.664 218.759 180.979 218.759 180.979Z" fill="#991B1E"/>
<path d="M203.875 180.979C203.875 180.979 203.393 187.077 196.743 187.077C190.072 187.077 190.072 179.955 190.072 179.955C190.072 179.955 187.211 188.609 196.261 190.137C205.311 191.664 203.875 180.979 203.875 180.979Z" fill="#991B1E"/>
<path d="M188.982 180.979C188.982 180.979 188.51 187.077 181.844 187.077C175.173 187.077 175.173 179.955 175.173 179.955C175.173 179.955 172.327 188.609 181.362 190.137C190.412 191.664 188.982 180.979 188.982 180.979Z" fill="#991B1E"/>
<path d="M174.112 180.979C174.112 180.979 173.63 187.077 166.949 187.077C160.288 187.077 160.288 179.955 160.288 179.955C160.288 179.955 157.432 188.609 166.493 190.137C175.532 191.664 174.112 180.979 174.112 180.979Z" fill="#991B1E"/>
<path d="M158.153 180.979C158.153 180.979 157.671 187.077 151 187.077C144.329 187.077 144.329 179.955 144.329 179.955C144.329 179.955 141.473 188.609 150.534 190.137C159.574 191.664 158.153 180.979 158.153 180.979Z" fill="#991B1E"/>
<path d="M143.258 180.979C143.258 180.979 142.791 187.077 136.12 187.077C129.449 187.077 129.449 179.955 129.449 179.955C129.449 179.955 126.593 188.609 135.638 190.137C144.688 191.664 143.258 180.979 143.258 180.979Z" fill="#991B1E"/>
<path d="M379.671 197.518C379.671 197.518 379.174 203.631 372.519 203.631C365.848 203.631 365.848 196.493 365.848 196.493C365.848 196.493 362.982 205.163 372.052 206.685C381.087 208.218 379.671 197.518 379.671 197.518Z" fill="#991B1E"/>
<path d="M364.773 197.518C364.773 197.518 364.286 203.631 357.62 203.631C350.954 203.631 350.954 196.493 350.954 196.493C350.954 196.493 348.098 205.163 357.159 206.685C366.209 208.218 364.773 197.518 364.773 197.518Z" fill="#991B1E"/>
<path d="M349.879 197.518C349.879 197.518 349.407 203.631 342.741 203.631C336.075 203.631 336.075 196.493 336.075 196.493C336.075 196.493 333.209 205.163 342.264 206.685C351.309 208.218 349.879 197.518 349.879 197.518Z" fill="#991B1E"/>
<path d="M334.996 197.518C334.996 197.518 334.524 203.631 327.843 203.631C321.182 203.631 321.182 196.493 321.182 196.493C321.182 196.493 318.336 205.163 327.386 206.685C336.416 208.218 334.996 197.518 334.996 197.518Z" fill="#991B1E"/>
<path d="M320.101 197.518C320.101 197.518 319.63 203.631 312.979 203.631C306.308 203.631 306.308 196.493 306.308 196.493C306.308 196.493 303.447 205.163 312.497 206.685C321.532 208.218 320.101 197.518 320.101 197.518Z" fill="#991B1E"/>
<path d="M305.228 197.518C305.228 197.518 304.746 203.631 298.09 203.631C291.409 203.631 291.409 196.493 291.409 196.493C291.409 196.493 288.558 205.163 297.598 206.685C306.648 208.218 305.228 197.518 305.228 197.518Z" fill="#991B1E"/>
<path d="M289.272 197.518C289.272 197.518 288.79 203.631 282.135 203.631C275.469 203.631 275.469 196.493 275.469 196.493C275.469 196.493 272.613 205.163 281.658 206.685C290.693 208.218 289.272 197.518 289.272 197.518Z" fill="#991B1E"/>
<path d="M274.389 197.518C274.389 197.518 273.908 203.631 267.252 203.631C260.586 203.631 260.586 196.493 260.586 196.493C260.586 196.493 257.73 205.163 266.775 206.685C275.82 208.218 274.389 197.518 274.389 197.518Z" fill="#991B1E"/>
<path d="M258.54 198.497C258.54 198.497 258.058 204.61 251.402 204.61C244.731 204.61 244.731 197.478 244.731 197.478C244.731 197.478 241.891 206.142 250.936 207.67C259.97 209.192 258.54 198.497 258.54 198.497Z" fill="#991B1E"/>
<path d="M243.657 198.497C243.657 198.497 243.186 204.61 236.52 204.61C229.849 204.61 229.849 197.478 229.849 197.478C229.849 197.478 226.993 206.142 236.053 207.67C245.093 209.192 243.657 198.497 243.657 198.497Z" fill="#991B1E"/>
<path d="M228.762 198.497C228.762 198.497 228.306 204.61 221.64 204.61C214.969 204.61 214.969 197.478 214.969 197.478C214.969 197.478 212.113 206.142 221.158 207.67C230.208 209.192 228.762 198.497 228.762 198.497Z" fill="#991B1E"/>
<path d="M213.879 198.497C213.879 198.497 213.408 204.61 206.742 204.61C200.091 204.61 200.091 197.478 200.091 197.478C200.091 197.478 197.225 206.142 206.275 207.67C215.315 209.192 213.879 198.497 213.879 198.497Z" fill="#991B1E"/>
<path d="M199 198.497C199 198.497 198.544 204.61 191.863 204.61C185.197 204.61 185.197 197.478 185.197 197.478C185.197 197.478 182.341 206.142 191.396 207.67C200.446 209.192 199 198.497 199 198.497Z" fill="#991B1E"/>
<path d="M184.117 198.497C184.117 198.497 183.645 204.61 176.964 204.61C170.298 204.61 170.298 197.478 170.298 197.478C170.298 197.478 167.457 206.142 176.497 207.67C185.547 209.192 184.117 198.497 184.117 198.497Z" fill="#991B1E"/>
<path d="M168.173 198.497C168.173 198.497 167.691 204.61 161.025 204.61C154.354 204.61 154.354 197.478 154.354 197.478C154.354 197.478 151.508 206.142 160.558 207.67C169.608 209.192 168.173 198.497 168.173 198.497Z" fill="#991B1E"/>
<path d="M153.272 198.497C153.272 198.497 152.805 204.61 146.124 204.61C139.478 204.61 139.478 197.478 139.478 197.478C139.478 197.478 136.612 206.142 145.652 207.67C154.692 209.192 153.272 198.497 153.272 198.497Z" fill="#991B1E"/>
<path d="M424.125 8.79366C424.125 8.79366 423.466 17.266 414.218 17.266C404.99 17.266 404.99 7.3833 404.99 7.3833C404.99 7.3833 401.018 19.3866 413.558 21.5072C426.093 23.6177 424.125 8.79366 424.125 8.79366Z" fill="#991B1E"/>
<path d="M403.479 8.79366C403.479 8.79366 402.82 17.266 393.587 17.266C384.344 17.266 384.344 7.3833 384.344 7.3833C384.344 7.3833 380.387 19.3866 392.928 21.5072C405.468 23.6177 403.479 8.79366 403.479 8.79366Z" fill="#991B1E"/>
<path d="M382.853 8.79366C382.853 8.79366 382.193 17.266 372.961 17.266C363.718 17.266 363.718 7.3833 363.718 7.3833C363.718 7.3833 359.761 19.3866 372.291 21.5072C384.826 23.6177 382.853 8.79366 382.853 8.79366Z" fill="#991B1E"/>
<path d="M362.212 8.79366C362.212 8.79366 361.552 17.266 352.335 17.266C343.077 17.266 343.077 7.3833 343.077 7.3833C343.077 7.3833 339.12 19.3866 351.66 21.5072C364.195 23.6177 362.212 8.79366 362.212 8.79366Z" fill="#991B1E"/>
<path d="M341.595 8.79366C341.595 8.79366 340.92 17.266 331.688 17.266C322.445 17.266 322.445 7.3833 322.445 7.3833C322.445 7.3833 318.503 19.3866 331.038 21.5072C343.569 23.6177 341.595 8.79366 341.595 8.79366Z" fill="#991B1E"/>
<path d="M320.968 8.79366C320.968 8.79366 320.304 17.266 311.061 17.266C301.828 17.266 301.828 7.3833 301.828 7.3833C301.828 7.3833 297.861 19.3866 310.401 21.5072C322.936 23.6177 320.968 8.79366 320.968 8.79366Z" fill="#991B1E"/>
<path d="M298.861 8.79366C298.861 8.79366 298.202 17.266 288.954 17.266C279.726 17.266 279.726 7.3833 279.726 7.3833C279.726 7.3833 275.769 19.3866 288.294 21.5072C300.835 23.6177 298.861 8.79366 298.861 8.79366Z" fill="#991B1E"/>
<path d="M278.234 8.79366C278.234 8.79366 277.559 17.266 268.326 17.266C259.094 17.266 259.094 7.3833 259.094 7.3833C259.094 7.3833 255.127 19.3866 267.667 21.5072C280.207 23.6177 278.234 8.79366 278.234 8.79366Z" fill="#991B1E"/>
<path d="M256.268 10.143C256.268 10.143 255.624 18.6153 246.376 18.6153C237.143 18.6153 237.143 8.73267 237.143 8.73267C237.143 8.73267 233.207 20.7359 245.727 22.8464C258.267 24.962 256.268 10.143 256.268 10.143Z" fill="#991B1E"/>
<path d="M235.652 10.143C235.652 10.143 234.977 18.6153 225.744 18.6153C216.512 18.6153 216.512 8.73267 216.512 8.73267C216.512 8.73267 212.56 20.7359 225.08 22.8464C237.64 24.962 235.652 10.143 235.652 10.143Z" fill="#991B1E"/>
<path d="M215.01 10.143C215.01 10.143 214.36 18.6153 205.133 18.6153C195.885 18.6153 195.885 8.73267 195.885 8.73267C195.885 8.73267 191.918 20.7359 204.458 22.8464C217.008 24.962 215.01 10.143 215.01 10.143Z" fill="#991B1E"/>
<path d="M194.384 10.143C194.384 10.143 193.735 18.6153 184.507 18.6153C175.259 18.6153 175.259 8.73267 175.259 8.73267C175.259 8.73267 171.308 20.7359 183.833 22.8464C196.363 24.962 194.384 10.143 194.384 10.143Z" fill="#991B1E"/>
<path d="M173.752 10.143C173.752 10.143 173.087 18.6153 163.86 18.6153C154.627 18.6153 154.627 8.73267 154.627 8.73267C154.627 8.73267 150.66 20.7359 163.2 22.8464C175.735 24.962 173.752 10.143 173.752 10.143Z" fill="#991B1E"/>
<path d="M153.126 10.143C153.126 10.143 152.461 18.6153 143.228 18.6153C133.986 18.6153 133.985 8.73267 133.985 8.73267C133.985 8.73267 130.034 20.7359 142.569 22.8464C155.104 24.962 153.126 10.143 153.126 10.143Z" fill="#991B1E"/>
<path d="M131.018 10.143C131.018 10.143 130.354 18.6153 121.126 18.6153C111.878 18.6153 111.878 8.73267 111.878 8.73267C111.878 8.73267 107.926 20.7359 120.461 22.8464C133.007 24.962 131.018 10.143 131.018 10.143Z" fill="#991B1E"/>
<path d="M110.391 10.143C110.391 10.143 109.726 18.6153 100.498 18.6153C91.2505 18.6153 91.2505 8.73267 91.2505 8.73267C91.2505 8.73267 87.2835 20.7359 99.8491 22.8464C112.374 24.962 110.391 10.143 110.391 10.143Z" fill="#991B1E"/>
<path d="M435.48 33.0793C435.48 33.0793 434.805 41.5466 425.572 41.5466C416.329 41.5466 416.329 31.6638 416.329 31.6638C416.329 31.6638 412.363 43.6722 424.913 45.7827C437.453 47.9033 435.48 33.0793 435.48 33.0793Z" fill="#991B1E"/>
<path d="M414.852 33.0793C414.852 33.0793 414.193 41.5466 404.945 41.5466C395.702 41.5466 395.702 31.6638 395.702 31.6638C395.702 31.6638 391.745 43.6722 404.285 45.7827C416.82 47.9033 414.852 33.0793 414.852 33.0793Z" fill="#991B1E"/>
<path d="M394.206 33.0793C394.206 33.0793 393.546 41.5466 384.299 41.5466C375.071 41.5466 375.071 31.6638 375.071 31.6638C375.071 31.6638 371.114 43.6722 383.654 45.7827C396.194 47.9033 394.206 33.0793 394.206 33.0793Z" fill="#991B1E"/>
<path d="M373.579 33.0793C373.579 33.0793 372.919 41.5466 363.671 41.5466C354.444 41.5466 354.444 31.6638 354.444 31.6638C354.444 31.6638 350.487 43.6722 363.027 45.7827C375.562 47.9033 373.579 33.0793 373.579 33.0793Z" fill="#991B1E"/>
<path d="M352.947 33.0793C352.947 33.0793 352.287 41.5466 343.039 41.5466C333.807 41.5466 333.807 31.6638 333.807 31.6638C333.807 31.6638 329.84 43.6722 342.38 45.7827C354.935 47.9033 352.947 33.0793 352.947 33.0793Z" fill="#991B1E"/>
<path d="M332.322 33.0793C332.322 33.0793 331.662 41.5466 322.414 41.5466C313.182 41.5466 313.182 31.6638 313.182 31.6638C313.182 31.6638 309.215 43.6722 321.755 45.7827C334.31 47.9033 332.322 33.0793 332.322 33.0793Z" fill="#991B1E"/>
<path d="M310.219 33.0793C310.219 33.0793 309.56 41.5466 300.312 41.5466C291.084 41.5466 291.084 31.6638 291.084 31.6638C291.084 31.6638 287.117 43.6722 299.657 45.7827C312.187 47.9033 310.219 33.0793 310.219 33.0793Z" fill="#991B1E"/>
<path d="M289.573 33.0793C289.573 33.0793 288.913 41.5466 279.696 41.5466C270.463 41.5466 270.463 31.6638 270.463 31.6638C270.463 31.6638 266.496 43.6722 279.036 45.7827C291.561 47.9033 289.573 33.0793 289.573 33.0793Z" fill="#991B1E"/>
<path d="M267.653 34.4287C267.653 34.4287 266.978 42.906 257.745 42.906C248.497 42.906 248.497 33.0132 248.497 33.0132C248.497 33.0132 244.545 45.0165 257.081 47.132C269.611 49.2577 267.653 34.4287 267.653 34.4287Z" fill="#991B1E"/>
<path d="M247.01 34.4287C247.01 34.4287 246.351 42.906 237.118 42.906C227.87 42.906 227.87 33.0132 227.87 33.0132C227.87 33.0132 223.918 45.0165 236.454 47.132C248.994 49.2577 247.01 34.4287 247.01 34.4287Z" fill="#991B1E"/>
<path d="M226.378 34.4287C226.378 34.4287 225.713 42.906 216.47 42.906C207.237 42.906 207.237 33.0132 207.237 33.0132C207.237 33.0132 203.286 45.0165 215.821 47.132C228.351 49.2577 226.378 34.4287 226.378 34.4287Z" fill="#991B1E"/>
<path d="M205.751 34.4287C205.751 34.4287 205.087 42.906 195.844 42.906C186.611 42.906 186.611 33.0132 186.611 33.0132C186.611 33.0132 182.66 45.0165 195.179 47.132C207.73 49.2577 205.751 34.4287 205.751 34.4287Z" fill="#991B1E"/>
<path d="M185.11 34.4287C185.11 34.4287 184.445 42.906 175.233 42.906C165.97 42.906 165.97 33.0132 165.97 33.0132C165.97 33.0132 162.018 45.0165 174.553 47.132C187.104 49.2577 185.11 34.4287 185.11 34.4287Z" fill="#991B1E"/>
<path d="M164.494 34.4287C164.494 34.4287 163.814 42.906 154.586 42.906C145.354 42.906 145.354 33.0132 145.354 33.0132C145.354 33.0132 141.387 45.0165 153.922 47.132C166.462 49.2577 164.494 34.4287 164.494 34.4287Z" fill="#991B1E"/>
<path d="M142.392 34.4287C142.392 34.4287 141.727 42.906 132.484 42.906C123.251 42.906 123.251 33.0132 123.251 33.0132C123.251 33.0132 119.284 45.0165 131.835 47.132C144.36 49.2577 142.392 34.4287 142.392 34.4287Z" fill="#991B1E"/>
<path d="M121.744 34.4287C121.744 34.4287 121.08 42.906 111.852 42.906C102.619 42.906 102.619 33.0132 102.619 33.0132C102.619 33.0132 98.6524 45.0165 111.188 47.132C123.743 49.2577 121.744 34.4287 121.744 34.4287Z" fill="#991B1E"/>
<path d="M421.59 54.671C421.59 54.671 420.931 63.1433 411.698 63.1433C402.47 63.1433 402.47 53.2505 402.47 53.2505C402.47 53.2505 398.498 65.2588 411.039 67.3744C423.559 69.495 421.59 54.671 421.59 54.671Z" fill="#991B1E"/>
<path d="M400.958 54.671C400.958 54.671 400.298 63.1433 391.066 63.1433C381.823 63.1433 381.823 53.2505 381.823 53.2505C381.823 53.2505 377.866 65.2588 390.406 67.3744C402.946 69.495 400.958 54.671 400.958 54.671Z" fill="#991B1E"/>
<path d="M380.331 54.671C380.331 54.671 379.671 63.1433 370.439 63.1433C361.196 63.1433 361.196 53.2505 361.196 53.2505C361.196 53.2505 357.239 65.2588 369.779 67.3744C382.304 69.495 380.331 54.671 380.331 54.671Z" fill="#991B1E"/>
<path d="M359.701 54.671C359.701 54.671 359.026 63.1433 349.808 63.1433C340.55 63.1433 340.55 53.2505 340.55 53.2505C340.55 53.2505 336.609 65.2588 349.144 67.3744C361.674 69.495 359.701 54.671 359.701 54.671Z" fill="#991B1E"/>
<path d="M339.074 54.671C339.074 54.671 338.415 63.1433 329.167 63.1433C319.924 63.1433 319.924 53.2505 319.924 53.2505C319.924 53.2505 315.967 65.2588 328.517 67.3744C341.047 69.495 339.074 54.671 339.074 54.671Z" fill="#991B1E"/>
<path d="M318.432 54.671C318.432 54.671 317.773 63.1433 308.54 63.1433C299.292 63.1433 299.292 53.2505 299.292 53.2505C299.292 53.2505 295.34 65.2588 307.875 67.3744C320.416 69.495 318.432 54.671 318.432 54.671Z" fill="#991B1E"/>
<path d="M296.323 54.671C296.323 54.671 295.664 63.1433 286.431 63.1433C277.188 63.1433 277.188 53.2505 277.188 53.2505C277.188 53.2505 273.231 65.2588 285.771 67.3744C298.312 69.495 296.323 54.671 296.323 54.671Z" fill="#991B1E"/>
<path d="M275.697 54.671C275.697 54.671 275.053 63.1433 265.805 63.1433C256.572 63.1433 256.572 53.2505 256.572 53.2505C256.572 53.2505 252.62 65.2588 265.145 67.3744C277.68 69.495 275.697 54.671 275.697 54.671Z" fill="#991B1E"/>
<path d="M253.761 56.0255C253.761 56.0255 253.097 64.4876 243.854 64.4876C234.621 64.4876 234.621 54.605 234.621 54.605C234.621 54.605 230.669 66.6032 243.189 68.7289C255.745 70.8444 253.761 56.0255 253.761 56.0255Z" fill="#991B1E"/>
<path d="M233.116 56.0255C233.116 56.0255 232.456 64.4876 223.224 64.4876C213.976 64.4876 213.976 54.605 213.976 54.605C213.976 54.605 210.024 66.6032 222.559 68.7289C235.104 70.8444 233.116 56.0255 233.116 56.0255Z" fill="#991B1E"/>
<path d="M212.504 56.0255C212.504 56.0255 211.829 64.4876 202.612 64.4876C193.364 64.4876 193.364 54.605 193.364 54.605C193.364 54.605 189.397 66.6032 201.932 68.7289C214.477 70.8444 212.504 56.0255 212.504 56.0255Z" fill="#991B1E"/>
<path d="M191.873 56.0255C191.873 56.0255 191.208 64.4876 181.965 64.4876C172.718 64.4876 172.718 54.605 172.718 54.605C172.718 54.605 168.781 66.6032 181.301 68.7289C193.841 70.8444 191.873 56.0255 191.873 56.0255Z" fill="#991B1E"/>
<path d="M171.245 56.0255C171.245 56.0255 170.581 64.4876 161.338 64.4876C152.105 64.4876 152.105 54.605 152.105 54.605C152.105 54.605 148.153 66.6032 160.678 68.7289C173.214 70.8444 171.245 56.0255 171.245 56.0255Z" fill="#991B1E"/>
<path d="M150.604 56.0255C150.604 56.0255 149.939 64.4876 140.696 64.4876C131.479 64.4876 131.479 54.605 131.479 54.605C131.479 54.605 127.512 66.6032 140.047 68.7289C152.567 70.8444 150.604 56.0255 150.604 56.0255Z" fill="#991B1E"/>
<path d="M128.512 56.0255C128.512 56.0255 127.832 64.4876 118.605 64.4876C109.342 64.4876 109.342 54.605 109.342 54.605C109.342 54.605 105.405 66.6032 117.94 68.7289C130.486 70.8444 128.512 56.0255 128.512 56.0255Z" fill="#991B1E"/>
<path d="M107.87 56.0255C107.87 56.0255 107.205 64.4876 97.9775 64.4876C88.7296 64.4876 88.7296 54.605 88.7296 54.605C88.7296 54.605 84.7779 66.6032 97.313 68.7289C109.848 70.8444 107.87 56.0255 107.87 56.0255Z" fill="#991B1E"/>
<path d="M435.48 78.9666C435.48 78.9666 434.805 87.4288 425.572 87.4288C416.329 87.4288 416.329 77.5461 416.329 77.5461C416.329 77.5461 412.363 89.5495 424.913 91.665C437.453 93.7856 435.48 78.9666 435.48 78.9666Z" fill="#991B1E"/>
<path d="M414.852 78.9666C414.852 78.9666 414.193 87.4288 404.945 87.4288C395.702 87.4288 395.702 77.5461 395.702 77.5461C395.702 77.5461 391.745 89.5495 404.285 91.665C416.82 93.7856 414.852 78.9666 414.852 78.9666Z" fill="#991B1E"/>
<path d="M394.206 78.9666C394.206 78.9666 393.546 87.4288 384.299 87.4288C375.071 87.4288 375.071 77.5461 375.071 77.5461C375.071 77.5461 371.114 89.5495 383.654 91.665C396.194 93.7856 394.206 78.9666 394.206 78.9666Z" fill="#991B1E"/>
<path d="M373.579 78.9666C373.579 78.9666 372.919 87.4288 363.671 87.4288C354.444 87.4288 354.444 77.5461 354.444 77.5461C354.444 77.5461 350.487 89.5495 363.027 91.665C375.562 93.7856 373.579 78.9666 373.579 78.9666Z" fill="#991B1E"/>
<path d="M352.947 78.9666C352.947 78.9666 352.287 87.4288 343.039 87.4288C333.807 87.4288 333.807 77.5461 333.807 77.5461C333.807 77.5461 329.84 89.5495 342.38 91.665C354.935 93.7856 352.947 78.9666 352.947 78.9666Z" fill="#991B1E"/>
<path d="M332.322 78.9666C332.322 78.9666 331.662 87.4288 322.414 87.4288C313.182 87.4288 313.182 77.5461 313.182 77.5461C313.182 77.5461 309.215 89.5495 321.755 91.665C334.31 93.7856 332.322 78.9666 332.322 78.9666Z" fill="#991B1E"/>
<path d="M310.219 78.9666C310.219 78.9666 309.56 87.4288 300.312 87.4288C291.084 87.4288 291.084 77.5461 291.084 77.5461C291.084 77.5461 287.117 89.5495 299.657 91.665C312.187 93.7856 310.219 78.9666 310.219 78.9666Z" fill="#991B1E"/>
<path d="M289.573 78.9666C289.573 78.9666 288.913 87.4288 279.696 87.4288C270.463 87.4288 270.463 77.5461 270.463 77.5461C270.463 77.5461 266.496 89.5495 279.036 91.665C291.561 93.7856 289.573 78.9666 289.573 78.9666Z" fill="#991B1E"/>
<path d="M267.653 80.3061C267.653 80.3061 266.978 88.7733 257.745 88.7733C248.497 88.7733 248.497 78.8958 248.497 78.8958C248.497 78.8958 244.545 90.8889 257.081 93.0095C269.611 95.1301 267.653 80.3061 267.653 80.3061Z" fill="#991B1E"/>
<path d="M247.01 80.3061C247.01 80.3061 246.351 88.7733 237.118 88.7733C227.87 88.7733 227.87 78.8958 227.87 78.8958C227.87 78.8958 223.918 90.8889 236.454 93.0095C248.994 95.1301 247.01 80.3061 247.01 80.3061Z" fill="#991B1E"/>
<path d="M226.378 80.3061C226.378 80.3061 225.713 88.7733 216.47 88.7733C207.237 88.7733 207.237 78.8958 207.237 78.8958C207.237 78.8958 203.286 90.8889 215.821 93.0095C228.351 95.1301 226.378 80.3061 226.378 80.3061Z" fill="#991B1E"/>
<path d="M205.751 80.3061C205.751 80.3061 205.087 88.7733 195.844 88.7733C186.611 88.7733 186.611 78.8958 186.611 78.8958C186.611 78.8958 182.66 90.8889 195.179 93.0095C207.73 95.1301 205.751 80.3061 205.751 80.3061Z" fill="#991B1E"/>
<path d="M185.11 80.3061C185.11 80.3061 184.445 88.7733 175.233 88.7733C165.97 88.7733 165.97 78.8958 165.97 78.8958C165.97 78.8958 162.018 90.8889 174.553 93.0095C187.104 95.1301 185.11 80.3061 185.11 80.3061Z" fill="#991B1E"/>
<path d="M164.494 80.3061C164.494 80.3061 163.814 88.7733 154.586 88.7733C145.354 88.7733 145.354 78.8958 145.354 78.8958C145.354 78.8958 141.387 90.8889 153.922 93.0095C166.462 95.1301 164.494 80.3061 164.494 80.3061Z" fill="#991B1E"/>
<path d="M142.392 80.3061C142.392 80.3061 141.727 88.7733 132.484 88.7733C123.251 88.7733 123.251 78.8958 123.251 78.8958C123.251 78.8958 119.284 90.8889 131.835 93.0095C144.36 95.1301 142.392 80.3061 142.392 80.3061Z" fill="#991B1E"/>
<path d="M121.744 80.3061C121.744 80.3061 121.08 88.7733 111.852 88.7733C102.619 88.7733 102.619 78.8958 102.619 78.8958C102.619 78.8958 98.6524 90.8889 111.188 93.0095C123.743 95.1301 121.744 80.3061 121.744 80.3061Z" fill="#991B1E"/>
<path d="M215.436 114.21H306.302V46.7008L258.586 20.8374L215.436 46.7008V114.21Z" fill="#F8991D"/>
<path d="M256.984 6.53604C253.854 9.29588 252.119 12.3347 253.108 13.3139L312.005 72.3512C312.979 73.3252 316.291 71.8895 319.416 69.1144C322.531 66.3495 324.271 63.3157 323.277 62.3366L264.385 3.30434C263.406 2.32013 260.088 3.7762 256.984 6.53604Z" fill="#991B1E"/>
<path d="M267.743 7.64702C270.696 10.5895 272.268 13.6943 271.269 14.5872L211.175 68.1403C210.196 69.0332 207 67.3692 204.053 64.4216C201.1 61.4792 199.528 58.3693 200.512 57.4815L260.606 3.93344C261.62 3.03547 264.811 4.70454 267.743 7.64702Z" fill="#991B1E"/>
<path d="M237.432 81.4881C237.432 95.6983 248.932 107.209 263.141 107.209C277.35 107.209 288.871 95.6932 288.871 81.4881C288.871 67.278 277.35 55.7566 263.141 55.7566C248.937 55.7566 237.432 67.278 237.432 81.4881Z" fill="white"/>
<path d="M242.986 81.8331C243.178 92.974 252.355 101.847 263.506 101.649C274.635 101.467 283.498 92.2739 283.29 81.1432C283.112 70.0023 273.93 61.1343 262.785 61.3271C251.675 61.5198 242.793 70.7075 242.986 81.8331Z" fill="#D2EDF3"/>
<path d="M265.5 59.4905H261.117V105.743H265.5V59.4905Z" fill="white"/>
<path d="M286.415 78.6926H241.053V85.6734H286.415V78.6926Z" fill="white"/>
<path d="M407.147 420.218V435.869H422.802V444.575H443.667V460.221H422.833H411.053H407.122H384.563H363.662V420.218H407.147Z" fill="#F26739"/>
<path d="M92.3371 418.483V434.139H78.4222V444.575H55.8223V458.476H77.0018H88.7708H92.682H115.257H135.832V418.483H92.3371Z" fill="#F26739"/>
<path opacity="0.42" d="M484.717 253.314C482.708 247.16 480.405 245.13 475.073 245.13H427.408V124.702C427.408 120.035 425.962 115.707 423.487 112.12H454.822C465.019 112.12 473.277 104.307 473.277 94.5516C473.277 94.5516 449.465 31.2782 445.605 18.0471C441.744 4.80598 437.336 0.427734 427.149 0.427734H250.805V463.026H360.77C364.149 463.026 367.345 461.996 369.978 460.221H386.825H409.384H413.31H425.075H445.924V449.496H469.376C476.306 449.496 482.14 445.133 482.14 439.405V302.844C482.14 300.677 481.313 298.668 479.918 297.004H489.541C494.873 297.004 499.185 293.377 499.185 288.841C499.185 288.841 486.731 259.457 484.717 253.314Z" fill="#3C2415"/>
</svg>
