<svg width="512" height="460" viewBox="0 0 512 460" fill="none" xmlns="http://www.w3.org/2000/svg">
<path d="M0.185547 211.02C0.185547 223.622 9.9714 233.809 22.0145 233.809H489.651C501.709 233.809 511.48 223.627 511.48 211.02C511.48 211.02 483.3 129.037 478.739 111.935C474.164 94.8329 468.953 88.9631 456.895 88.9631L255.399 0.683594L58.4228 88.9631C46.3544 88.9631 40.561 100.287 36.5787 111.935C32.6015 123.603 0.185547 211.02 0.185547 211.02Z" fill="#754C29"/>
<path d="M66.1543 438.956C66.1543 450.102 76.2949 459.366 90.0475 459.366H423.851C437.588 459.366 448.85 450.102 448.85 438.956V173.209C448.85 162.058 437.644 153.028 423.922 153.028H90.56C76.8073 153.028 66.1593 162.064 66.1593 173.209L66.1543 438.956Z" fill="#F79868"/>
<path d="M176.546 193.685H103.344V258.577H176.546V193.685Z" fill="#754C29"/>
<path d="M293.847 194.101H220.645V258.998H293.847V194.101Z" fill="#754C29"/>
<path d="M411.143 194.522H337.926V259.404H411.143V194.522Z" fill="#754C29"/>
<path d="M407.805 280.204H106.682V458.229H407.805V280.204Z" fill="#BE1E2D"/>
<path d="M407.81 280.204H387.812L106.682 444.912V458.229H133.314L407.81 297.423V280.204Z" fill="#8B5E3C"/>
<path d="M106.682 280.204H126.679L407.81 444.912V458.229H381.172L106.682 297.423V280.204Z" fill="#8B5E3C"/>
<path d="M296.753 88.8616C296.753 114.826 275.711 135.87 249.742 135.87C223.784 135.87 202.752 114.826 202.752 88.8616C202.752 62.9069 223.784 41.863 249.742 41.863C275.711 41.863 296.753 62.9069 296.753 88.8616Z" fill="#3C2415"/>
<path opacity="0.53" d="M478.735 111.935C474.159 94.8329 468.949 88.9631 456.89 88.9631L255.394 0.683594L254.623 1.02359V459.366H423.835C437.588 459.366 448.85 450.102 448.85 438.956V233.809H489.651C501.694 233.809 511.48 223.627 511.48 211.02C511.48 211.02 483.3 129.037 478.735 111.935Z" fill="#3C2415"/>
</svg>
