<svg width="733" height="751" viewBox="0 0 733 751" fill="none" xmlns="http://www.w3.org/2000/svg">
<path d="M474.207 560.461C474.138 559.405 472.484 559.397 472.553 560.461C472.812 564.468 472.735 568.977 471.18 572.74C469.897 575.84 467.212 578.218 464.119 579.435C457.351 582.094 449.897 578.914 445.449 573.57C442.804 570.394 441.154 566.508 440.207 562.512C439.963 561.477 438.367 561.914 438.611 562.952C440.436 570.656 445.074 577.847 452.67 580.83C459.493 583.511 467.963 581.569 471.872 575.042C473.092 573.006 473.631 570.678 473.945 568.351C474.294 565.732 474.374 563.094 474.207 560.461Z" fill="#3E1E43"/>
<path d="M377.942 618.324C377.582 624.925 379.516 633.59 373.88 638.591C371.21 640.962 367.392 641.035 364.146 639.972C362.758 639.516 361.483 638.824 360.252 638.052C361.673 634.952 362.081 631.474 362.285 628.104C362.576 623.245 362.347 618.383 361.68 613.56C361.534 612.511 359.942 612.959 360.084 614.001C360.609 617.8 360.827 621.643 360.74 625.478C360.656 629.062 360.485 632.821 359.279 636.227C359.166 636.548 358.995 636.839 358.86 637.149C357.447 636.14 356.103 635.021 354.791 633.925C353.979 633.248 352.802 634.41 353.622 635.094C355.05 636.289 356.554 637.498 358.132 638.591C355.48 642.984 350.376 645.712 345.174 645.093C341.68 644.678 338.478 642.889 336.234 640.201C335.549 639.381 334.387 640.558 335.064 641.37C339.389 646.55 346.842 648.269 352.959 645.421C355.658 644.164 357.975 642.059 359.516 639.505C362.671 641.454 366.128 642.74 369.99 642.143C375.705 641.257 378.682 635.856 379.37 630.563C379.899 626.502 379.378 622.4 379.6 618.321C379.654 617.261 377.997 617.264 377.942 618.324Z" fill="#3E1E43"/>
<path d="M297.711 558.697C291.27 556.8 283.347 555.004 277.995 560.333C273.908 564.405 272.906 570.885 274.33 576.309C274.6 577.339 276.195 576.902 275.926 575.868C274.651 571.012 275.496 565.155 279.164 561.502C284.046 556.639 291.452 558.577 297.27 560.293C298.297 560.595 298.735 559 297.711 558.697Z" fill="#3E1E43"/>
<path d="M262.346 715.795C262.346 715.795 256.729 704.299 266.357 695.208C275.986 686.116 250.845 686.116 250.845 686.116C250.845 686.116 238.813 708.842 262.346 715.795Z" fill="#A59AC2"/>
<path d="M262.346 715.795C262.346 715.795 256.729 704.299 266.357 695.208C275.986 686.116 250.845 686.116 250.845 686.116C250.845 686.116 238.813 708.842 262.346 715.795Z" fill="url(#paint0_linear_610_1502)"/>
<path d="M244.304 681.173C244.304 681.173 216.213 662.581 214.205 628.892C212.198 595.203 239.903 581.565 244.304 591.593C248.704 601.621 244.304 681.173 244.304 681.173Z" fill="url(#paint1_linear_610_1502)"/>
<path opacity="0.54" d="M245.326 681.89C245.326 681.89 218.441 663.673 216.521 630.654C214.601 597.639 241.115 584.275 245.326 594.102C249.538 603.93 245.326 681.89 245.326 681.89Z" fill="url(#paint2_linear_610_1502)"/>
<path d="M421.746 493.625C421.746 493.625 443.382 406.963 559.444 407.495C667.943 407.994 763.819 511.779 689.775 608.749C687.56 611.652 682.963 609.04 684.354 605.667C690.387 591.024 693.899 573.063 681.389 563.116C657.855 544.397 560.515 556.162 520.402 564.719C480.289 573.275 430.839 581.503 421.746 493.625Z" fill="url(#paint3_linear_610_1502)"/>
<path d="M520.406 564.719C560.519 556.163 657.859 544.398 681.393 563.117C693.903 573.068 690.391 591.025 684.358 605.668C682.967 609.045 687.564 611.653 689.783 608.75C748.821 531.431 699.83 449.785 622.552 419.61C663.167 438.249 640.978 472.364 604.089 491.094C560.716 513.116 458.756 515.819 478.388 479.609L423.809 508.308C436.712 580.499 482.683 572.766 520.406 564.719Z" fill="url(#paint4_linear_610_1502)"/>
<path d="M675.529 484.127C670.841 460.381 661.843 445.105 653.919 435.689C649.923 433.092 645.792 430.651 641.533 428.371C649.286 434.367 665.533 450.576 672.284 484.764C679.774 522.697 634.717 546.522 619.992 553.217C622.597 553.162 625.162 553.137 627.701 553.141C646.63 543.371 682.568 519.775 675.529 484.127Z" fill="#8880A8"/>
<path d="M622.642 445.327C613.138 423.231 585.761 412.635 562.737 407.561C561.641 407.536 560.544 407.503 559.444 407.496C554.529 407.474 549.845 407.66 545.262 407.937C568.843 411.178 608.34 420.452 619.6 446.634C635.458 483.5 617.327 523.414 569.859 556.896C572.063 556.637 574.285 556.389 576.526 556.149C621.823 522.398 638.632 482.495 622.642 445.327Z" fill="#8880A8"/>
<path d="M564.419 463.703C559.187 444.879 547.355 431.11 530.204 423.887C518.896 419.126 505.77 417.655 492.528 419.287C487.989 421.13 483.723 423.13 479.727 425.271C496.666 420.39 514.382 420.813 528.922 426.94C545.107 433.758 556.28 446.776 561.231 464.592C572.196 504.065 505.989 558.225 491.628 569.411C493.683 569.251 495.741 569.047 497.803 568.789C518.215 552.434 575.22 502.587 564.419 463.703Z" fill="#8880A8"/>
<path d="M701.689 533.982C707.703 517.244 706.053 500.212 702.373 486.451C700.075 482.255 697.499 478.179 694.69 474.216C700.465 488.625 706.337 511.267 698.574 532.863C693.168 547.91 678.985 554.095 664.621 556.277C667.302 556.867 669.78 557.556 672.042 558.339C684.829 555.133 696.596 548.151 701.689 533.982Z" fill="#8880A8"/>
<g opacity="0.52">
<path opacity="0.52" d="M669.745 484.763C677.235 522.695 632.178 546.521 617.453 553.216C618.327 553.198 619.176 553.201 620.043 553.19C634.823 546.463 679.755 522.648 672.276 484.763C666.717 456.614 654.732 440.67 646.342 432.562C643.934 431.116 641.489 429.703 638.994 428.366C646.75 434.365 662.994 450.574 669.745 484.763Z" fill="url(#paint5_linear_610_1502)"/>
<path opacity="0.52" d="M617.072 446.637C632.93 483.502 614.799 523.417 567.331 556.898C568.321 556.782 569.331 556.676 570.329 556.563C617.447 523.151 635.414 483.379 619.608 446.637C608.347 420.458 568.846 411.181 545.269 407.939C547.272 407.819 549.305 407.721 551.363 407.651C548.693 407.735 546.092 407.881 543.527 408.059C567.185 411.392 605.932 420.739 617.072 446.637Z" fill="url(#paint6_linear_610_1502)"/>
<path opacity="0.52" d="M561.228 464.588C556.277 446.772 545.108 433.75 528.919 426.935C521.006 423.602 512.139 422.018 502.981 421.996C511.239 422.287 519.199 423.908 526.383 426.935C542.569 433.754 553.742 446.772 558.693 464.588C569.658 504.061 503.45 558.221 489.09 569.407C490.059 569.331 491.028 569.21 492.001 569.112C507.046 557.354 572.11 503.755 561.228 464.588Z" fill="url(#paint7_linear_610_1502)"/>
<path opacity="0.52" d="M698.57 532.862C706.333 511.266 700.461 488.62 694.687 474.214C696.534 476.815 698.235 479.489 699.867 482.191C697.831 478.735 695.659 475.478 693.324 472.306C698.661 487.619 703.273 509.94 696.038 531.303C690.76 546.889 677.117 553.504 663.109 555.962C663.616 556.064 664.13 556.163 664.621 556.272C678.982 554.094 693.164 547.909 698.57 532.862Z" fill="url(#paint8_linear_610_1502)"/>
</g>
<path d="M435.512 525.733C435.512 525.733 463.115 609.164 343.909 634.771C224.703 660.378 335.887 560.297 335.887 560.297L435.512 525.733Z" fill="#3E1E43"/>
<path d="M337.162 564.133C348.047 561.062 337.715 528.644 324.866 525.857C312.014 523.075 323.143 568.088 337.162 564.133Z" fill="url(#paint9_linear_610_1502)"/>
<path d="M348.004 597.119C348.004 597.119 296.303 561.689 327.596 535.966C327.596 535.966 335.902 551.282 331.505 559.405C331.505 559.405 333.388 574.598 349.636 594.595L348.004 597.119Z" fill="url(#paint10_linear_610_1502)"/>
<path d="M341.268 593.312C344.171 589.553 354.969 593.749 352.113 599.403C349.253 605.056 336.404 599.607 341.268 593.312Z" fill="url(#paint11_linear_610_1502)"/>
<path d="M288.936 587.247C288.936 587.247 325.334 599.511 347.749 598.036C347.749 598.036 331.64 611.003 308.131 604.52C284.62 598.036 288.936 587.247 288.936 587.247Z" fill="url(#paint12_linear_610_1502)"/>
<path d="M361.779 710.279C364.344 714.752 366.14 719.003 356.945 714.559C339.604 706.177 319.888 680.108 303.335 646.12C270.391 578.487 270.723 572.502 302.453 596.958C330.708 618.732 325.885 647.636 361.779 710.279Z" fill="url(#paint13_linear_610_1502)"/>
<path d="M323.852 581.489C335.102 580.342 330.519 546.627 318.34 541.669C306.166 536.708 309.36 582.968 323.852 581.489Z" fill="url(#paint14_linear_610_1502)"/>
<path d="M328.843 615.853C328.843 615.853 284.027 572.037 319.291 552.095C319.291 552.095 324.832 568.613 319.098 575.858C319.098 575.858 318.333 591.146 330.891 613.649L328.843 615.853Z" fill="url(#paint15_linear_610_1502)"/>
<path d="M322.866 610.938C326.374 607.736 336.287 613.732 332.498 618.809C328.706 623.887 316.99 616.303 322.866 610.938Z" fill="url(#paint16_linear_610_1502)"/>
<path d="M281.938 580.939C281.938 580.939 308.277 608.892 328.751 618.14C328.751 618.14 308.434 622.001 290.744 605.217C273.053 588.428 281.938 580.939 281.938 580.939Z" fill="url(#paint17_linear_610_1502)"/>
<path d="M288.289 723.772C288.446 728.926 288.031 733.519 282.012 725.272C270.657 709.719 265.539 677.436 266.93 639.656C269.703 564.479 272.814 559.354 289.295 595.866C303.972 628.379 286.111 651.61 288.289 723.772Z" fill="url(#paint18_linear_610_1502)"/>
<path d="M308.688 589.747C319.938 588.599 315.355 554.885 303.176 549.927C291.002 544.966 294.196 591.222 308.688 589.747Z" fill="url(#paint19_linear_610_1502)"/>
<path d="M306.099 623.983C306.099 623.983 263.954 573.833 301.852 559.515C301.852 559.515 309.353 576.685 302.58 582.969C302.58 582.969 299.487 597.961 308.456 622.114L306.099 623.983Z" fill="url(#paint20_linear_610_1502)"/>
<path d="M301.646 619.196C305.154 615.994 315.067 621.989 311.278 627.067C307.486 632.141 295.773 624.557 301.646 619.196Z" fill="url(#paint21_linear_610_1502)"/>
<path d="M251.073 609.511C251.073 609.511 286.461 624.441 308.924 624.631C308.924 624.631 291.896 636.37 268.935 628.16C245.969 619.954 251.073 609.511 251.073 609.511Z" fill="url(#paint22_linear_610_1502)"/>
<path d="M314.591 737.606C316.817 742.258 318.292 746.629 309.454 741.515C292.784 731.873 275.053 704.412 261.064 669.288C233.225 599.4 234.001 593.455 263.829 620.198C290.39 644.009 283.44 672.475 314.591 737.606Z" fill="url(#paint23_linear_610_1502)"/>
<path d="M361.783 710.276C325.889 647.633 330.712 618.733 302.457 596.955C294.038 590.468 287.856 586.148 283.892 584.53C273.087 563.601 269.9 571.807 267.572 623.836C266.395 622.609 265.164 621.396 263.827 620.198C233.994 593.455 233.222 599.399 261.062 669.287C263.681 675.862 266.428 682.167 269.277 688.137C271.75 704.084 275.998 717.036 282.009 725.272C288.027 733.519 288.442 728.926 288.286 723.771C288.253 722.697 288.238 721.673 288.217 720.621C295.244 730.222 302.439 737.46 309.448 741.514C318.286 746.628 316.81 742.257 314.584 737.606C301.437 710.112 295.084 689.172 290.125 672.336C291.951 654.481 294.431 640.916 295.007 628.823C297.495 634.072 300.271 639.823 303.335 646.114C319.892 680.102 339.605 706.175 356.945 714.552C366.144 719 364.348 714.753 361.783 710.276Z" fill="url(#paint24_linear_610_1502)"/>
<path d="M409.156 241.719L392.577 117.652C392.577 117.652 384.292 136.309 372.402 164.709L346.045 0.00390625C346.045 0.00390625 220.89 323.004 224.445 393.595C228.001 464.187 304.325 556.698 304.325 556.698L310.875 544.278C312.733 548.375 313.953 550.648 313.953 550.648L328.93 518.194C328.93 518.194 323.582 465.254 328.93 436.376C334.278 407.499 409.156 241.719 409.156 241.719Z" fill="#D0CBDF"/>
<path opacity="0.53" d="M304.329 556.698C304.329 556.698 228.005 464.183 224.449 393.592C220.894 323 346.045 0 346.045 0L380.274 213.908C380.274 213.908 326.886 367.923 308.653 432.096C290.42 496.269 315.021 536.406 315.021 536.406L304.329 556.698Z" fill="url(#paint25_linear_610_1502)"/>
<path opacity="0.53" d="M313.951 550.648C313.951 550.648 285.984 499.479 288.199 423.54C290.418 347.602 392.571 117.652 392.571 117.652L409.15 241.719C409.15 241.719 334.272 407.499 328.924 436.376C323.576 465.254 328.924 518.194 328.924 518.194L313.951 550.648Z" fill="url(#paint26_linear_610_1502)"/>
<path d="M392.578 498.269C392.578 498.269 419.321 474.346 462.108 473.81C504.895 473.275 452.571 498.35 430.64 540.657C408.713 582.964 392.578 498.269 392.578 498.269Z" fill="url(#paint27_linear_610_1502)"/>
<path d="M438.276 528.101C438.276 528.101 464.458 485.09 421.751 493.625C379.048 502.163 438.276 528.101 438.276 528.101Z" fill="url(#paint28_linear_610_1502)"/>
<path d="M463.979 473.821L457.837 477.449C457.837 477.449 484.135 473.224 430.638 507.653C388.573 534.723 417.184 538.843 431.337 539.371C453.294 498.506 502.784 474.08 463.979 473.821Z" fill="url(#paint29_linear_610_1502)"/>
<path d="M291.627 577.155C277.201 570.817 309.278 507.769 371.453 494.933C433.627 482.101 442.855 503.354 437.638 530.629C432.421 557.904 407.154 607.234 340.964 610.043C274.779 612.851 291.627 577.155 291.627 577.155Z" fill="url(#paint30_linear_610_1502)"/>
<path opacity="0.74" d="M319.199 546.678C327.524 549.079 322.999 556.699 322.999 556.699L323.983 558.513C343.91 548.117 359.4 581.158 362.762 588.374C364.223 591.506 363.753 593.229 362.759 594.176C368.759 592.103 376.97 588.88 385.531 584.385L393.542 563.528C379.946 572.725 345.032 560.665 348.613 552.317C351.305 546.044 353.604 544.037 354.58 543.425C345.174 548.146 335.855 552.812 327.32 556.695L338.157 538.585C337.545 538.785 336.944 539.033 336.369 539.371C328.762 543.844 305.738 534.833 315.105 524.878C307.724 531.886 301.782 539.288 297.363 546.267C303.575 540.683 311.593 544.485 319.199 546.678Z" fill="url(#paint31_linear_610_1502)"/>
<path d="M437.155 532.931C437.33 532.152 437.494 531.38 437.636 530.629C442.849 503.354 433.625 482.101 371.45 494.933C368.565 495.527 365.767 496.266 363.013 497.068L327.326 556.699C367.64 538.348 425.428 502.604 427.428 525.734C431.891 577.344 353.221 597.119 353.221 597.119C344.707 560.035 301.14 566.836 288.248 569.531C288.099 573.345 289.177 576.08 291.625 577.155C291.625 577.155 290.853 578.823 290.288 581.384L308.452 618.296L349.494 633.464C441.698 611.372 440.612 553.307 437.155 532.931Z" fill="url(#paint32_linear_610_1502)"/>
<path d="M336.148 589.99C290.417 550.684 242.282 575.551 227.842 610.446C213.401 645.341 247.499 702.696 283.197 705.901C285.78 706.134 288.945 705.409 292.446 703.967C292.421 710.724 287.583 715.794 287.583 715.794C305.375 714.763 308.22 700.452 308.592 693.907C337.536 670.671 370.286 619.33 336.148 589.99Z" fill="url(#paint33_linear_610_1502)"/>
<path opacity="0.74" d="M227.844 610.443C222.609 623.093 223.775 638.694 229.064 653.599C248.583 686.141 280.718 671.393 287.862 650.117C288.62 647.855 290.066 646.099 291.986 644.722L290.168 634.775C308.744 583.496 290.929 557.602 251.982 581.059C241.123 588.45 232.627 598.886 227.844 610.443Z" fill="url(#paint34_linear_610_1502)"/>
<path d="M291.988 644.723C290.068 646.099 288.622 647.855 287.864 650.117C280.72 671.396 248.586 686.145 229.066 653.599C232.429 663.073 237.442 672.267 243.576 680.237C254.411 694.319 268.673 704.594 283.205 705.902C298.221 707.249 332.126 677.887 345.314 645.95C328.651 641.809 302.604 637.11 291.988 644.723Z" fill="url(#paint35_linear_610_1502)"/>
<path d="M327.324 556.698L322.133 559.514C322.133 559.514 326.654 538.209 352.075 530.887C377.495 523.566 327.324 556.698 327.324 556.698Z" fill="#6F5175"/>
<path d="M287.809 651.628C287.365 675.144 289.697 692.012 308.913 686.111C328.134 680.21 340.899 655.176 340.899 655.176L287.809 651.628Z" fill="#6F5175"/>
<path d="M299.243 683.839C288.485 682.356 283.199 648.543 292.824 627.285C302.452 606.028 331.334 586.777 343.767 589.986C356.201 593.196 364.696 631.103 343.767 655.762C322.838 680.426 310.875 685.445 299.243 683.839Z" fill="url(#paint36_linear_610_1502)"/>
<path d="M450.824 448.63C416.828 462.344 393.221 480.4 377.462 496.128C384.489 486.454 393.312 476.135 404.11 466.853C436.77 438.777 647.433 332.894 647.433 332.894L673.906 177.277C673.906 177.277 650.172 194.407 616.147 219.959L620.154 32.8887C620.154 32.8887 354.602 302.414 332.941 373.806C311.28 445.199 327.323 556.699 327.323 556.699L340.296 541.349C339.098 547.25 338.555 550.649 338.555 550.649L356.478 532.637C356.478 532.637 357.385 530.371 359.2 526.579L369.039 521.407C369.039 521.407 382.944 510.177 409.688 498.27C436.431 486.363 693.156 422.474 693.156 422.474L732.733 356.698C732.733 356.698 526.289 418.194 450.824 448.63Z" fill="white"/>
<path d="M386.848 598.696C376.932 602.699 377.238 585.805 388.386 569.964C399.533 554.123 398.834 566.857 398.834 566.857C398.834 566.857 400.247 553.274 410.812 544.675C421.377 536.071 409.97 581.751 409.97 581.751C409.97 581.751 405.125 587.608 402.153 582.942C399.184 578.269 386.848 598.696 386.848 598.696Z" fill="#6F5175"/>
<path opacity="0.61" d="M338.555 550.648C338.555 550.648 348.984 485.305 380.274 425.948C411.564 366.586 673.902 177.279 673.902 177.279L647.429 332.897C647.429 332.897 436.766 438.78 404.106 466.856C371.447 494.932 356.478 532.632 356.478 532.632L338.555 550.648Z" fill="url(#paint37_linear_610_1502)"/>
<path opacity="0.61" d="M450.824 448.629C396.048 470.725 368.066 504.141 356.835 520.812C358.682 513.877 368.172 482.016 392.576 456.428C420.121 427.55 615.338 257.494 615.338 257.494L620.15 32.8916C620.15 32.8916 354.598 302.417 332.937 373.809C311.276 445.202 327.319 556.702 327.319 556.702L354.157 524.95C351.8 528.771 350.718 531.033 350.718 531.033L369.035 521.406C369.035 521.406 382.941 510.176 409.684 498.269C436.427 486.362 693.152 422.473 693.152 422.473L732.729 356.697C732.736 356.697 526.288 418.193 450.824 448.629Z" fill="url(#paint38_linear_610_1502)"/>
<path d="M421.99 570.284C410.741 569.137 415.323 535.422 427.502 530.465C439.677 525.5 436.482 571.76 421.99 570.284Z" fill="url(#paint39_linear_610_1502)"/>
<path d="M432.566 532.158C430.216 529.03 427.681 536.009 426.839 538.347C425.939 540.846 424.147 543.665 421.75 542.926C419.378 542.194 420.041 538.438 420.052 538.362C414.027 549.963 413.484 569.414 421.986 570.281C433.608 571.464 437.954 541.975 432.948 532.792C432.824 532.556 432.697 532.337 432.566 532.158Z" fill="url(#paint40_linear_610_1502)"/>
<path d="M428.555 540.689C431.433 533.561 432.701 538.489 432.278 543.982C431.855 549.475 428.555 540.689 428.555 540.689Z" fill="#6F5175"/>
<path d="M424.572 604.52C424.572 604.52 466.718 554.37 428.82 540.052C428.82 540.052 421.319 557.222 428.091 563.506C428.091 563.506 431.184 578.498 422.215 602.651L424.572 604.52Z" fill="#4F395F"/>
<path d="M429.021 599.731C425.513 596.529 415.597 602.525 419.389 607.602C423.182 612.68 434.898 605.096 429.021 599.731Z" fill="url(#paint41_linear_610_1502)"/>
<path d="M430.534 602.287C427.296 599.835 419.62 604.053 420.345 608.497C424.072 611.061 431.39 606.698 430.534 602.287Z" fill="url(#paint42_linear_610_1502)"/>
<path d="M479.601 590.048C479.601 590.048 444.213 604.978 421.75 605.168C421.75 605.168 438.777 616.907 461.739 608.697C484.704 600.487 479.601 590.048 479.601 590.048Z" fill="url(#paint43_linear_610_1502)"/>
<path d="M416.083 718.144C413.857 722.796 412.382 727.167 421.22 722.053C437.89 712.411 455.617 684.95 469.609 649.826C497.449 579.938 496.673 573.993 466.844 600.736C440.28 624.547 447.234 653.009 416.083 718.144Z" fill="url(#paint44_linear_610_1502)"/>
<path d="M469.61 649.825C482.889 616.489 489.643 597.727 489.854 590.096C486.098 591.505 479.854 596.514 471.071 604.389C444.51 628.2 451.461 656.666 420.313 721.797C420.15 722.139 419.993 722.478 419.84 722.817C420.273 722.587 420.729 722.34 421.224 722.052C437.891 712.41 455.618 684.946 469.61 649.825Z" fill="url(#paint45_linear_610_1502)"/>
<path d="M472.15 643.418L462.777 604.706C449.655 618.577 449.291 630.783 442.136 654.659L441.367 702.616C451.436 689.244 461.199 670.941 469.607 649.825C470.482 647.625 471.331 645.491 472.15 643.418Z" fill="#6F5175"/>
<path d="M409.197 581.715C397.948 580.567 402.53 546.852 414.709 541.895C426.884 536.934 423.689 583.19 409.197 581.715Z" fill="url(#paint46_linear_610_1502)"/>
<path d="M417.174 541.63C417.028 541.586 416.886 541.561 416.748 541.542C416.486 541.521 416.212 541.535 415.928 541.572C415.859 541.586 415.782 541.579 415.717 541.601C412.176 542.741 410.966 552.393 409.673 558.032C408.198 564.454 402.846 564.993 403.662 560.338C401.6 570.511 402.977 581.085 409.192 581.719C422.598 583.081 426.329 543.626 417.174 541.63Z" fill="url(#paint47_linear_610_1502)"/>
<path d="M413.754 552.32C416.366 543.844 420.297 549.362 418.541 557.514C416.785 565.666 413.754 552.32 413.754 552.32Z" fill="#6F5175"/>
<path d="M404.2 616.078C404.2 616.078 449.016 572.263 413.752 552.32C413.752 552.32 408.211 568.839 413.945 576.084C413.945 576.084 414.71 591.371 402.152 613.875L404.2 616.078Z" fill="#4F395F"/>
<path d="M410.18 611.163C406.672 607.962 396.76 613.957 400.548 619.035C404.341 624.109 416.056 616.525 410.18 611.163Z" fill="url(#paint48_linear_610_1502)"/>
<path d="M411.691 613.717C408.452 611.266 400.776 615.484 401.501 619.928C405.228 622.496 412.547 618.128 411.691 613.717Z" fill="url(#paint49_linear_610_1502)"/>
<path d="M451.109 581.16C451.109 581.16 424.771 609.113 404.301 618.361C404.301 618.361 424.618 622.222 442.308 605.437C459.995 588.649 451.109 581.16 451.109 581.16Z" fill="url(#paint50_linear_610_1502)"/>
<path d="M444.76 723.993C444.603 729.147 445.019 733.74 451.037 725.494C462.392 709.941 467.511 677.657 466.119 639.877C463.347 564.7 460.235 559.575 443.755 596.088C429.077 628.604 446.939 651.832 444.76 723.993Z" fill="url(#paint51_linear_610_1502)"/>
<path d="M466.116 639.881C464.739 602.6 463.281 582.563 460.148 576.272C457.179 578.462 453.27 585.867 447.973 597.599C433.296 630.112 451.157 653.34 448.979 725.505C448.953 726.397 448.946 727.268 448.979 728.062C449.58 727.399 450.258 726.557 451.034 725.497C462.389 709.94 467.511 677.661 466.116 639.881Z" fill="url(#paint52_linear_610_1502)"/>
<path d="M386.846 598.696C375.965 595.626 386.292 563.208 399.141 560.421C411.994 557.635 400.868 602.652 386.846 598.696Z" fill="url(#paint53_linear_610_1502)"/>
<path d="M401.201 560.425C400.826 560.315 400.458 560.286 400.101 560.315C393.915 561.233 390.422 580.935 390.422 580.935C390.422 580.935 383.835 593.957 382.523 586.465C381.755 592.533 382.88 597.571 386.848 598.692C400.024 602.411 410.644 562.88 401.201 560.425Z" fill="url(#paint54_linear_610_1502)"/>
<path d="M396.414 570.53C399.889 563.135 402.848 565.951 400.312 575.946C397.777 585.945 396.414 570.53 396.414 570.53Z" fill="#6F5175"/>
<path d="M376.003 631.683C376.003 631.683 427.708 596.252 396.411 570.529C396.411 570.529 388.105 585.846 392.502 593.969C392.502 593.969 390.619 609.161 374.371 629.159L376.003 631.683Z" fill="#4F395F"/>
<path d="M382.743 627.876C379.84 624.117 369.042 628.313 371.898 633.966C374.758 639.619 387.603 634.17 382.743 627.876Z" fill="url(#paint55_linear_610_1502)"/>
<path d="M383.704 629.89C380.331 627.661 372.403 630.859 373.241 635.471C376.954 637.991 384.731 634.538 383.704 629.89Z" fill="url(#paint56_linear_610_1502)"/>
<path d="M435.074 621.809C435.074 621.809 398.677 634.073 376.262 632.598C376.262 632.598 392.371 645.565 415.879 639.081C439.387 632.601 435.074 621.809 435.074 621.809Z" fill="url(#paint57_linear_610_1502)"/>
<path d="M362.229 744.84C359.665 749.313 357.869 753.564 367.064 749.12C384.404 740.739 404.12 714.67 420.674 680.682C453.617 613.048 453.289 607.064 421.555 631.519C393.304 653.298 398.124 682.197 362.229 744.84Z" fill="url(#paint58_linear_610_1502)"/>
<path d="M420.671 680.681C434.354 652.59 442.277 635.164 444.612 626.109C441.21 626.036 434.008 630.848 423.082 639.27C395.232 660.735 399.49 689.146 365.246 749.943C365.8 749.709 366.394 749.444 367.06 749.123C384.401 740.738 404.117 714.669 420.671 680.681Z" fill="url(#paint59_linear_610_1502)"/>
<path opacity="0.74" d="M423.086 639.266C425.756 637.208 428.193 635.376 430.419 633.766C437.315 628.783 442.051 626.051 444.616 626.106C444.477 626.638 444.321 627.202 444.142 627.788C448.532 613.055 440.878 616.624 421.552 631.518C401.272 647.152 398.033 666.453 384.543 699.272C385.228 697.622 392.026 681.475 403.013 664.621C407.844 654.695 413.603 646.576 423.086 639.266Z" fill="url(#paint60_linear_610_1502)"/>
<path d="M335.259 647.404C328.505 658.324 316.574 663.187 308.618 658.262C300.662 653.341 299.686 640.498 306.44 629.578C313.197 618.658 325.125 613.795 333.081 618.719C341.041 623.64 342.017 636.484 335.259 647.404Z" fill="#D6FFFF"/>
<path d="M344.267 652.99C333.553 671.1 314.245 679.5 301.149 671.756C288.052 664.008 286.122 643.046 296.836 624.936C307.55 606.825 326.857 598.422 339.954 606.169C353.054 613.917 354.985 634.88 344.267 652.99Z" fill="url(#paint61_radial_610_1502)"/>
<path opacity="0.54" d="M351.047 605.082C348.963 598.514 345.64 594.06 342.154 593.16C341.342 592.949 340.445 592.847 339.487 592.847C327.232 592.847 303.943 609.307 295.695 627.516C292.081 635.496 290.832 644.989 291.087 653.545C293.385 640.457 300.384 625.931 310.97 618.023C319.334 611.777 328.686 610.618 338.012 614.683C344.977 617.714 349.25 622.238 350.708 628.135C351.243 630.306 351.363 632.528 351.189 634.721C354.165 624.183 353.673 613.347 351.047 605.082Z" fill="url(#paint62_linear_610_1502)"/>
<path d="M298.985 692.675C294.336 691.197 292.038 696.46 292.449 703.967C292.482 704.568 292.413 705.133 292.3 705.679C291.579 711.554 287.586 715.794 287.586 715.794C304.901 710.629 303.633 694.154 298.985 692.675Z" fill="url(#paint63_linear_610_1502)"/>
<path d="M327.324 556.698C327.324 556.698 346.457 513.662 374.37 520.794C374.37 520.794 393.051 524.64 327.324 556.698Z" fill="url(#paint64_linear_610_1502)"/>
<path d="M374.37 520.798C367.39 519.013 360.956 520.369 355.233 523.403C366.909 517.469 369.911 532.221 327.324 556.699C393.051 524.641 374.37 520.798 374.37 520.798Z" fill="url(#paint65_linear_610_1502)"/>
<path opacity="0.74" d="M355.233 523.403C338.082 532.502 327.324 556.699 327.324 556.699C369.911 532.221 366.909 517.469 355.233 523.403Z" fill="url(#paint66_linear_610_1502)"/>
<path opacity="0.74" d="M345.88 544.649C350.663 541.057 354.281 537.823 356.904 534.993C356.248 535.43 354.569 535.907 350.208 535.007C344.099 533.747 346.736 529.718 347.213 529.066C343.425 532.385 340.095 536.231 337.301 540.008C341.199 535.681 350.51 539.622 345.88 544.649Z" fill="url(#paint67_linear_610_1502)"/>
<path opacity="0.74" d="M525.771 461.189C521.279 459.498 513.392 436.97 513.392 433.589C513.392 430.209 532.12 419.617 532.128 419.613C511.763 426.403 492.579 433.003 476.164 438.984C479.96 437.858 485.377 437.021 487.479 440.456C490.86 445.978 497.057 464.001 494.237 468.506C491.421 473.012 481.924 476.855 481.924 476.855C499.475 472.109 518.823 466.995 538.474 461.87C538.481 461.873 530.262 462.879 525.771 461.189Z" fill="url(#paint68_linear_610_1502)"/>
<path opacity="0.74" d="M456.759 377.266C459.881 385.152 446.22 406.668 446.22 406.668C446.22 406.668 461.543 398.666 466.348 398.666C471.153 398.666 478.548 415.774 478.442 418.641C478.337 421.508 463.994 429.499 463.994 429.499C482.082 419.322 502.395 408.293 522.752 397.446C522.741 397.449 513.153 401.478 506.238 395.286C499.32 389.09 495.375 378.953 494.814 373.882C494.249 368.812 509.787 350.108 509.787 350.108C509.787 350.108 502.541 358.675 489.098 347.973C475.659 337.272 434.271 271.376 430.461 261.235C426.661 251.127 441.28 225.448 441.36 225.306C415.204 255.363 390.657 284.911 371.43 310.543C397.645 287.162 453.634 369.384 456.759 377.266Z" fill="url(#paint69_linear_610_1502)"/>
<path d="M255.152 586.1C254.19 587.769 254.299 589.634 255.396 590.264C256.492 590.898 258.161 590.06 259.126 588.392C260.088 586.723 259.979 584.858 258.882 584.228C257.782 583.594 256.113 584.432 255.152 586.1Z" fill="#3E1E43"/>
<path d="M285.777 584.017C284.815 585.686 284.924 587.551 286.021 588.181C287.117 588.815 288.786 587.977 289.751 586.309C290.713 584.64 290.604 582.775 289.507 582.145C288.407 581.511 286.738 582.349 285.777 584.017Z" fill="#3E1E43"/>
<path d="M379.727 534.034C378.125 535.102 377.392 536.821 378.095 537.874C378.798 538.93 380.667 538.919 382.267 537.852C383.87 536.785 384.602 535.065 383.899 534.013C383.199 532.96 381.33 532.967 379.727 534.034Z" fill="#3E1E43"/>
<path d="M393.528 527.719C391.754 528.465 390.712 530.017 391.204 531.183C391.696 532.348 393.532 532.691 395.306 531.944C397.08 531.197 398.122 529.645 397.63 528.48C397.138 527.311 395.302 526.972 393.528 527.719Z" fill="#3E1E43"/>
<path d="M287.786 585.16C287.786 585.16 282.336 512.908 255.44 484.697C228.544 456.486 139.014 427.794 139.014 427.794L110.395 412.029C109.072 411.301 107.506 411.17 106.081 411.672L73.3492 423.175C71.0286 423.991 71.4038 427.386 73.8483 427.659C88.3364 429.291 115.582 432.602 137.058 436.627C167.815 442.389 234.642 470.575 252.752 490.27C270.861 509.965 281.611 551.609 287.786 585.16Z" fill="url(#paint70_linear_610_1502)"/>
<path d="M257.141 588.373C257.141 588.373 227.84 522.101 193.057 504.508C158.274 486.915 64.303 489.807 64.303 489.807L32.059 484.518C30.5727 484.274 29.0499 484.675 27.8769 485.622L0.875101 507.408C-1.04111 508.952 0.448817 512.026 2.8459 511.469C17.0463 508.162 43.8295 502.173 65.4178 498.786C96.3322 493.93 168.736 498.156 192.39 510.66C216.044 523.161 240.103 558.814 257.141 588.373Z" fill="url(#paint71_linear_610_1502)"/>
<defs>
<linearGradient id="paint0_linear_610_1502" x1="258.161" y1="715.794" x2="258.161" y2="663.967" gradientUnits="userSpaceOnUse">
<stop offset="0.0081" stop-color="white"/>
<stop offset="1" stop-color="#A59AC2"/>
</linearGradient>
<linearGradient id="paint1_linear_610_1502" x1="230.181" y1="681.173" x2="230.181" y2="588.371" gradientUnits="userSpaceOnUse">
<stop stop-color="#3E1E43"/>
<stop offset="1" stop-color="#4F395F"/>
</linearGradient>
<linearGradient id="paint2_linear_610_1502" x1="231.809" y1="681.889" x2="231.809" y2="590.944" gradientUnits="userSpaceOnUse">
<stop offset="0.3086"/>
<stop offset="0.6497" stop-color="#6C3A72"/>
<stop offset="0.8895" stop-color="#B360BB"/>
<stop offset="1" stop-color="#CE6FD8"/>
</linearGradient>
<linearGradient id="paint3_linear_610_1502" x1="476.773" y1="420.525" x2="677.396" y2="621.176" gradientUnits="userSpaceOnUse">
<stop stop-color="#4F395F"/>
<stop offset="1" stop-color="#3E1E43"/>
</linearGradient>
<linearGradient id="paint4_linear_610_1502" x1="423.805" y1="514.809" x2="715.918" y2="514.809" gradientUnits="userSpaceOnUse">
<stop stop-color="#A59AC2"/>
<stop offset="0.9919" stop-color="white"/>
</linearGradient>
<linearGradient id="paint5_linear_610_1502" x1="645.285" y1="553.218" x2="645.285" y2="428.369" gradientUnits="userSpaceOnUse">
<stop/>
<stop offset="1" stop-color="#A59AC2"/>
</linearGradient>
<linearGradient id="paint6_linear_610_1502" x1="584.369" y1="556.896" x2="584.369" y2="407.65" gradientUnits="userSpaceOnUse">
<stop/>
<stop offset="1" stop-color="#A59AC2"/>
</linearGradient>
<linearGradient id="paint7_linear_610_1502" x1="525.771" y1="569.409" x2="525.771" y2="421.996" gradientUnits="userSpaceOnUse">
<stop/>
<stop offset="1" stop-color="#A59AC2"/>
</linearGradient>
<linearGradient id="paint8_linear_610_1502" x1="682.703" y1="556.276" x2="682.703" y2="472.307" gradientUnits="userSpaceOnUse">
<stop/>
<stop offset="1" stop-color="#A59AC2"/>
</linearGradient>
<linearGradient id="paint9_linear_610_1502" x1="316.118" y1="540.729" x2="344.354" y2="549.861" gradientUnits="userSpaceOnUse">
<stop offset="0.0081" stop-color="#F3D6D2"/>
<stop offset="1" stop-color="#A59AC2"/>
</linearGradient>
<linearGradient id="paint10_linear_610_1502" x1="348.235" y1="554.916" x2="326.54" y2="578.543" gradientUnits="userSpaceOnUse">
<stop stop-color="#4F395F"/>
<stop offset="0.6286" stop-color="#45294F"/>
<stop offset="1" stop-color="#3E1E43"/>
</linearGradient>
<linearGradient id="paint11_linear_610_1502" x1="343.424" y1="600.647" x2="347.948" y2="592.32" gradientUnits="userSpaceOnUse">
<stop offset="0.0081" stop-color="#F3D6D2"/>
<stop offset="1" stop-color="#A59AC2"/>
</linearGradient>
<linearGradient id="paint12_linear_610_1502" x1="294.348" y1="579.531" x2="338.829" y2="610.745" gradientUnits="userSpaceOnUse">
<stop stop-color="#4F395F"/>
<stop offset="0.6286" stop-color="#45294F"/>
<stop offset="1" stop-color="#3E1E43"/>
</linearGradient>
<linearGradient id="paint13_linear_610_1502" x1="354.885" y1="656.642" x2="224.182" y2="630.862" gradientUnits="userSpaceOnUse">
<stop stop-color="#A59AC2"/>
<stop offset="0.9919" stop-color="#F3D6D2"/>
</linearGradient>
<linearGradient id="paint14_linear_610_1502" x1="307.162" y1="554.809" x2="333.399" y2="568.673" gradientUnits="userSpaceOnUse">
<stop offset="0.0081" stop-color="#F3D6D2"/>
<stop offset="1" stop-color="#A59AC2"/>
</linearGradient>
<linearGradient id="paint15_linear_610_1502" x1="336.35" y1="574.322" x2="310.905" y2="593.852" gradientUnits="userSpaceOnUse">
<stop stop-color="#4F395F"/>
<stop offset="0.6286" stop-color="#45294F"/>
<stop offset="1" stop-color="#3E1E43"/>
</linearGradient>
<linearGradient id="paint16_linear_610_1502" x1="323.725" y1="618.537" x2="329.616" y2="611.115" gradientUnits="userSpaceOnUse">
<stop offset="0.0081" stop-color="#F3D6D2"/>
<stop offset="1" stop-color="#A59AC2"/>
</linearGradient>
<linearGradient id="paint17_linear_610_1502" x1="290.348" y1="576.681" x2="314.897" y2="625.155" gradientUnits="userSpaceOnUse">
<stop stop-color="#4F395F"/>
<stop offset="0.6286" stop-color="#45294F"/>
<stop offset="1" stop-color="#3E1E43"/>
</linearGradient>
<linearGradient id="paint18_linear_610_1502" x1="307.456" y1="673.204" x2="204.283" y2="588.944" gradientUnits="userSpaceOnUse">
<stop stop-color="#A59AC2"/>
<stop offset="0.9919" stop-color="#F3D6D2"/>
</linearGradient>
<linearGradient id="paint19_linear_610_1502" x1="291.997" y1="563.064" x2="318.234" y2="576.928" gradientUnits="userSpaceOnUse">
<stop offset="0.0081" stop-color="#F3D6D2"/>
<stop offset="1" stop-color="#A59AC2"/>
</linearGradient>
<linearGradient id="paint20_linear_610_1502" x1="315.842" y1="585.051" x2="290.22" y2="599.087" gradientUnits="userSpaceOnUse">
<stop stop-color="#4F395F"/>
<stop offset="0.6286" stop-color="#45294F"/>
<stop offset="1" stop-color="#3E1E43"/>
</linearGradient>
<linearGradient id="paint21_linear_610_1502" x1="302.507" y1="626.793" x2="308.398" y2="619.37" gradientUnits="userSpaceOnUse">
<stop offset="0.0081" stop-color="#F3D6D2"/>
<stop offset="1" stop-color="#A59AC2"/>
</linearGradient>
<linearGradient id="paint22_linear_610_1502" x1="257.042" y1="602.221" x2="299.087" y2="636.645" gradientUnits="userSpaceOnUse">
<stop stop-color="#4F395F"/>
<stop offset="0.6286" stop-color="#45294F"/>
<stop offset="1" stop-color="#3E1E43"/>
</linearGradient>
<linearGradient id="paint23_linear_610_1502" x1="335.596" y1="690.197" x2="207.16" y2="654.788" gradientUnits="userSpaceOnUse">
<stop stop-color="#A59AC2"/>
<stop offset="0.9919" stop-color="#F3D6D2"/>
</linearGradient>
<linearGradient id="paint24_linear_610_1502" x1="297.448" y1="674.469" x2="333.536" y2="579.689" gradientUnits="userSpaceOnUse">
<stop stop-color="#A59AC2"/>
<stop offset="0.9919" stop-color="white"/>
</linearGradient>
<linearGradient id="paint25_linear_610_1502" x1="302.325" y1="556.699" x2="302.325" y2="0.00291999" gradientUnits="userSpaceOnUse">
<stop stop-color="#A59AC2"/>
<stop offset="0.9919" stop-color="#FFEADC"/>
</linearGradient>
<linearGradient id="paint26_linear_610_1502" x1="348.616" y1="550.648" x2="348.616" y2="117.653" gradientUnits="userSpaceOnUse">
<stop stop-color="#A59AC2"/>
<stop offset="0.9919" stop-color="#FFEADC"/>
</linearGradient>
<linearGradient id="paint27_linear_610_1502" x1="385.227" y1="509.723" x2="434.768" y2="512.714" gradientUnits="userSpaceOnUse">
<stop offset="0.0081" stop-color="#F3D6D2"/>
<stop offset="1" stop-color="#A59AC2"/>
</linearGradient>
<linearGradient id="paint28_linear_610_1502" x1="406.277" y1="510.303" x2="453.935" y2="510.303" gradientUnits="userSpaceOnUse">
<stop offset="0.376" stop-color="#A59AC2"/>
<stop offset="0.9919" stop-color="white"/>
</linearGradient>
<linearGradient id="paint29_linear_610_1502" x1="436.526" y1="497.932" x2="454.655" y2="516.063" gradientUnits="userSpaceOnUse">
<stop stop-color="#A59AC2"/>
<stop offset="0.9919" stop-color="white"/>
</linearGradient>
<linearGradient id="paint30_linear_610_1502" x1="325.283" y1="536.925" x2="411.359" y2="566.049" gradientUnits="userSpaceOnUse">
<stop offset="0.0081" stop-color="#F3D6D2"/>
<stop offset="1" stop-color="#A59AC2"/>
</linearGradient>
<linearGradient id="paint31_linear_610_1502" x1="297.37" y1="559.528" x2="393.546" y2="559.528" gradientUnits="userSpaceOnUse">
<stop stop-color="#FFC293"/>
<stop offset="0.1375" stop-color="#E2AC82"/>
<stop offset="0.4362" stop-color="#997458"/>
<stop offset="0.8702" stop-color="#241C15"/>
<stop offset="1"/>
</linearGradient>
<linearGradient id="paint32_linear_610_1502" x1="349.534" y1="553.519" x2="447.398" y2="580.618" gradientUnits="userSpaceOnUse">
<stop stop-color="#A59AC2"/>
<stop offset="0.9919" stop-color="white"/>
</linearGradient>
<linearGradient id="paint33_linear_610_1502" x1="242.813" y1="588.512" x2="333.195" y2="678.907" gradientUnits="userSpaceOnUse">
<stop offset="0.0081" stop-color="#F3D6D2"/>
<stop offset="1" stop-color="#A59AC2"/>
</linearGradient>
<linearGradient id="paint34_linear_610_1502" x1="237.27" y1="594.083" x2="292.939" y2="649.759" gradientUnits="userSpaceOnUse">
<stop stop-color="#FFC293"/>
<stop offset="0.1375" stop-color="#E2AC82"/>
<stop offset="0.4362" stop-color="#997458"/>
<stop offset="0.8702" stop-color="#241C15"/>
<stop offset="1"/>
</linearGradient>
<linearGradient id="paint35_linear_610_1502" x1="248.148" y1="617.34" x2="308.544" y2="677.744" gradientUnits="userSpaceOnUse">
<stop stop-color="#A59AC2"/>
<stop offset="0.9919" stop-color="white"/>
</linearGradient>
<linearGradient id="paint36_linear_610_1502" x1="339.249" y1="612.916" x2="297.733" y2="667.635" gradientUnits="userSpaceOnUse">
<stop stop-color="#4F395F"/>
<stop offset="1" stop-color="#3E1E43"/>
</linearGradient>
<linearGradient id="paint37_linear_610_1502" x1="298.463" y1="437.667" x2="713.979" y2="290.223" gradientUnits="userSpaceOnUse">
<stop stop-color="#A59AC2"/>
<stop offset="0.2302" stop-color="#C2B3CA"/>
<stop offset="0.5498" stop-color="#E3D1D4"/>
<stop offset="0.8152" stop-color="#F8E3DA"/>
<stop offset="0.9919" stop-color="#FFEADC"/>
</linearGradient>
<linearGradient id="paint38_linear_610_1502" x1="261.151" y1="370.211" x2="686.314" y2="219.343" gradientUnits="userSpaceOnUse">
<stop stop-color="#A59AC2"/>
<stop offset="0.2302" stop-color="#C2B3CA"/>
<stop offset="0.5498" stop-color="#E3D1D4"/>
<stop offset="0.8152" stop-color="#F8E3DA"/>
<stop offset="0.9919" stop-color="#FFEADC"/>
</linearGradient>
<linearGradient id="paint39_linear_610_1502" x1="425.286" y1="570.318" x2="425.287" y2="512.605" gradientUnits="userSpaceOnUse">
<stop stop-color="#A59AC2"/>
<stop offset="0.9919" stop-color="#F3D6D2"/>
</linearGradient>
<linearGradient id="paint40_linear_610_1502" x1="412.87" y1="537.628" x2="431.559" y2="556.319" gradientUnits="userSpaceOnUse">
<stop stop-color="#A59AC2"/>
<stop offset="0.9919" stop-color="white"/>
</linearGradient>
<linearGradient id="paint41_linear_610_1502" x1="424.592" y1="609.643" x2="430.95" y2="573.29" gradientUnits="userSpaceOnUse">
<stop stop-color="#A59AC2"/>
<stop offset="0.9919" stop-color="#F3D6D2"/>
</linearGradient>
<linearGradient id="paint42_linear_610_1502" x1="425.451" y1="609.792" x2="431.808" y2="573.439" gradientUnits="userSpaceOnUse">
<stop offset="0.1334" stop-color="#A59AC2"/>
<stop offset="0.9919" stop-color="white"/>
</linearGradient>
<linearGradient id="paint43_linear_610_1502" x1="473.631" y1="582.757" x2="431.587" y2="617.181" gradientUnits="userSpaceOnUse">
<stop stop-color="#4F395F"/>
<stop offset="0.6286" stop-color="#45294F"/>
<stop offset="1" stop-color="#3E1E43"/>
</linearGradient>
<linearGradient id="paint44_linear_610_1502" x1="411.355" y1="614.821" x2="459.265" y2="662.732" gradientUnits="userSpaceOnUse">
<stop offset="0.0081" stop-color="#F3D6D2"/>
<stop offset="1" stop-color="#A59AC2"/>
</linearGradient>
<linearGradient id="paint45_linear_610_1502" x1="429.444" y1="612.469" x2="469.512" y2="681.878" gradientUnits="userSpaceOnUse">
<stop offset="0.1727" stop-color="#A59AC2"/>
<stop offset="0.9919" stop-color="white"/>
</linearGradient>
<linearGradient id="paint46_linear_610_1502" x1="412.492" y1="581.748" x2="412.493" y2="532.875" gradientUnits="userSpaceOnUse">
<stop stop-color="#A59AC2"/>
<stop offset="0.9919" stop-color="#F3D6D2"/>
</linearGradient>
<linearGradient id="paint47_linear_610_1502" x1="400.394" y1="549.32" x2="419.163" y2="568.092" gradientUnits="userSpaceOnUse">
<stop stop-color="#A59AC2"/>
<stop offset="0.9919" stop-color="white"/>
</linearGradient>
<linearGradient id="paint48_linear_610_1502" x1="405.751" y1="621.073" x2="409.588" y2="599.132" gradientUnits="userSpaceOnUse">
<stop stop-color="#A59AC2"/>
<stop offset="0.9919" stop-color="#F3D6D2"/>
</linearGradient>
<linearGradient id="paint49_linear_610_1502" x1="406.607" y1="621.223" x2="410.444" y2="599.283" gradientUnits="userSpaceOnUse">
<stop offset="0.1334" stop-color="#A59AC2"/>
<stop offset="0.9919" stop-color="white"/>
</linearGradient>
<linearGradient id="paint50_linear_610_1502" x1="442.7" y1="576.903" x2="418.151" y2="625.377" gradientUnits="userSpaceOnUse">
<stop stop-color="#4F395F"/>
<stop offset="0.6286" stop-color="#45294F"/>
<stop offset="1" stop-color="#3E1E43"/>
</linearGradient>
<linearGradient id="paint51_linear_610_1502" x1="410.345" y1="610.247" x2="500.216" y2="700.14" gradientUnits="userSpaceOnUse">
<stop offset="0.0081" stop-color="#F3D6D2"/>
<stop offset="1" stop-color="#A59AC2"/>
</linearGradient>
<linearGradient id="paint52_linear_610_1502" x1="412.261" y1="578.904" x2="475.191" y2="687.917" gradientUnits="userSpaceOnUse">
<stop offset="0.2402" stop-color="#A59AC2"/>
<stop offset="0.9919" stop-color="white"/>
</linearGradient>
<linearGradient id="paint53_linear_610_1502" x1="393.543" y1="598.942" x2="393.542" y2="560.298" gradientUnits="userSpaceOnUse">
<stop stop-color="#A59AC2"/>
<stop offset="0.9919" stop-color="#F3D6D2"/>
</linearGradient>
<linearGradient id="paint54_linear_610_1502" x1="383.107" y1="568.781" x2="398.781" y2="584.457" gradientUnits="userSpaceOnUse">
<stop stop-color="#A59AC2"/>
<stop offset="0.9919" stop-color="white"/>
</linearGradient>
<linearGradient id="paint55_linear_610_1502" x1="377.625" y1="640.718" x2="381.501" y2="623.302" gradientUnits="userSpaceOnUse">
<stop stop-color="#A59AC2"/>
<stop offset="0.9919" stop-color="#F3D6D2"/>
</linearGradient>
<linearGradient id="paint56_linear_610_1502" x1="378.488" y1="640.91" x2="382.363" y2="623.495" gradientUnits="userSpaceOnUse">
<stop offset="0.1334" stop-color="#A59AC2"/>
<stop offset="0.9919" stop-color="white"/>
</linearGradient>
<linearGradient id="paint57_linear_610_1502" x1="429.66" y1="614.096" x2="385.179" y2="645.309" gradientUnits="userSpaceOnUse">
<stop stop-color="#4F395F"/>
<stop offset="0.6286" stop-color="#45294F"/>
<stop offset="1" stop-color="#3E1E43"/>
</linearGradient>
<linearGradient id="paint58_linear_610_1502" x1="391.309" y1="673.579" x2="432.998" y2="715.274" gradientUnits="userSpaceOnUse">
<stop offset="0.0081" stop-color="#F3D6D2"/>
<stop offset="1" stop-color="#A59AC2"/>
</linearGradient>
<linearGradient id="paint59_linear_610_1502" x1="378.961" y1="643.047" x2="413.427" y2="702.752" gradientUnits="userSpaceOnUse">
<stop offset="0.1334" stop-color="#A59AC2"/>
<stop offset="0.9919" stop-color="white"/>
</linearGradient>
<linearGradient id="paint60_linear_610_1502" x1="414.948" y1="699.272" x2="414.948" y2="618.377" gradientUnits="userSpaceOnUse">
<stop/>
<stop offset="0.1298" stop-color="#241C15"/>
<stop offset="0.5638" stop-color="#997458"/>
<stop offset="0.8625" stop-color="#E2AC82"/>
<stop offset="1" stop-color="#FFC293"/>
</linearGradient>
<radialGradient id="paint61_radial_610_1502" cx="0" cy="0" r="1" gradientUnits="userSpaceOnUse" gradientTransform="translate(320.553 638.963) rotate(30.607) scale(27.5531 38.1027)">
<stop stop-color="#6800FF"/>
<stop offset="0.0984" stop-color="#6600FA"/>
<stop offset="0.2223" stop-color="#5F00EA"/>
<stop offset="0.36" stop-color="#5500D0"/>
<stop offset="0.5076" stop-color="#4600AC"/>
<stop offset="0.6633" stop-color="#33007E"/>
<stop offset="0.8256" stop-color="#1C0045"/>
<stop offset="0.9905" stop-color="#020004"/>
<stop offset="1"/>
</radialGradient>
<linearGradient id="paint62_linear_610_1502" x1="322.141" y1="644.007" x2="322.141" y2="594.739" gradientUnits="userSpaceOnUse">
<stop/>
<stop offset="0.4933" stop-color="#6C3A72"/>
<stop offset="0.8402" stop-color="#B360BB"/>
<stop offset="1" stop-color="#CE6FD8"/>
</linearGradient>
<linearGradient id="paint63_linear_610_1502" x1="295.11" y1="680.957" x2="294.53" y2="728.816" gradientUnits="userSpaceOnUse">
<stop offset="0.0081" stop-color="#F3D6D2"/>
<stop offset="1" stop-color="#A59AC2"/>
</linearGradient>
<linearGradient id="paint64_linear_610_1502" x1="344.282" y1="531.782" x2="366.496" y2="554" gradientUnits="userSpaceOnUse">
<stop offset="0.0081" stop-color="#F3D6D2"/>
<stop offset="0.0537" stop-color="#EED2D1"/>
<stop offset="0.4686" stop-color="#C7B4C9"/>
<stop offset="0.7984" stop-color="#AEA1C4"/>
<stop offset="1" stop-color="#A59AC2"/>
</linearGradient>
<linearGradient id="paint65_linear_610_1502" x1="330.463" y1="517.966" x2="356.135" y2="543.642" gradientUnits="userSpaceOnUse">
<stop stop-color="#A59AC2"/>
<stop offset="0.1689" stop-color="#AEA4C8"/>
<stop offset="0.4518" stop-color="#C5BDD7"/>
<stop offset="0.8118" stop-color="#EAE7F1"/>
<stop offset="0.9919" stop-color="white"/>
</linearGradient>
<linearGradient id="paint66_linear_610_1502" x1="337.873" y1="532.981" x2="348.576" y2="543.685" gradientUnits="userSpaceOnUse">
<stop stop-color="#FFC293"/>
<stop offset="0.1375" stop-color="#E2AC82"/>
<stop offset="0.4362" stop-color="#997458"/>
<stop offset="0.8702" stop-color="#241C15"/>
<stop offset="1"/>
</linearGradient>
<linearGradient id="paint67_linear_610_1502" x1="337.302" y1="536.856" x2="356.906" y2="536.856" gradientUnits="userSpaceOnUse">
<stop stop-color="#FFC293"/>
<stop offset="0.1375" stop-color="#E2AC82"/>
<stop offset="0.4362" stop-color="#997458"/>
<stop offset="0.8702" stop-color="#241C15"/>
<stop offset="1"/>
</linearGradient>
<linearGradient id="paint68_linear_610_1502" x1="495.307" y1="427.936" x2="520.791" y2="472.083" gradientUnits="userSpaceOnUse">
<stop stop-color="#FFC293"/>
<stop offset="0.1375" stop-color="#E2AC82"/>
<stop offset="0.4362" stop-color="#997458"/>
<stop offset="0.8702" stop-color="#241C15"/>
<stop offset="1"/>
</linearGradient>
<linearGradient id="paint69_linear_610_1502" x1="396.677" y1="251.104" x2="491.553" y2="415.458" gradientUnits="userSpaceOnUse">
<stop stop-color="#FFC293"/>
<stop offset="0.1375" stop-color="#E2AC82"/>
<stop offset="0.4362" stop-color="#997458"/>
<stop offset="0.8702" stop-color="#241C15"/>
<stop offset="1"/>
</linearGradient>
<linearGradient id="paint70_linear_610_1502" x1="65.7625" y1="484.917" x2="295.567" y2="508.134" gradientUnits="userSpaceOnUse">
<stop stop-color="#4F395F"/>
<stop offset="1" stop-color="#3E1E43"/>
</linearGradient>
<linearGradient id="paint71_linear_610_1502" x1="14.3781" y1="568.128" x2="238.709" y2="513.152" gradientUnits="userSpaceOnUse">
<stop stop-color="#4F395F"/>
<stop offset="1" stop-color="#3E1E43"/>
</linearGradient>
</defs>
</svg>
