<svg width="744" height="946" viewBox="0 0 744 946" fill="none" xmlns="http://www.w3.org/2000/svg">
<path opacity="0.03" d="M448.151 946C611.214 946 743.403 926.895 743.403 903.328C743.403 879.761 611.214 860.656 448.151 860.656C285.088 860.656 152.898 879.761 152.898 903.328C152.898 926.895 285.088 946 448.151 946Z" fill="black"/>
<path d="M478.191 389.966C492.084 397.903 509.692 394.923 524.532 388.947C539.377 382.971 553.237 374.225 568.86 370.773C578.553 368.631 589.467 369.164 598.376 373.116L615.165 332.428C566.236 334.399 520.179 362.688 478.191 389.966Z" fill="#618725"/>
<path d="M508.09 459.096C459.125 463.855 409.537 462.154 361.012 454.049C339.402 450.44 317.981 445.555 296.616 440.372L270.035 513.924C376.733 527.453 483.151 546.65 585.989 519.575C585.998 519.572 586.005 519.57 586.013 519.568L567.37 447.809C548.232 454.047 528.151 457.148 508.09 459.096Z" fill="#618725"/>
<path d="M329.005 639.622C326.529 626.654 323.467 613.771 319.451 601.041C307.902 599.869 296.417 598.628 284.988 597.241C289.686 610.97 293.685 625.396 297.961 639.547C308.308 639.545 318.662 639.542 329.005 639.622Z" fill="#618725"/>
<path d="M563.624 677.143C541.096 649.742 499.39 629.581 464.244 622.551C413.735 612.101 363.957 608.175 315.199 603.229C319.216 615.958 322.279 628.843 324.753 641.809C351.364 642.018 377.901 642.768 404.056 645.475C447.859 650.012 493.595 661.528 524.503 692.901C533.675 702.213 541.504 713.627 543.174 726.593C543.641 730.229 543.492 733.984 542.8 737.63C554.625 718.701 560.553 698.291 563.624 677.143Z" fill="#618725"/>
<path d="M440.295 565.795C423.135 563.619 390.267 561.39 372.988 560.584C348.84 559.457 325.517 560.142 302.707 561.028C303.07 565.263 303.414 569.493 303.764 573.71C308.287 583.432 312.057 593.282 315.197 603.23C363.954 608.176 413.732 612.102 464.242 622.552C499.388 629.582 541.094 649.742 563.622 677.144C567.544 650.123 566.827 621.901 567.781 594.014C528.24 577.606 482.958 571.202 440.295 565.795Z" fill="#8DB75C"/>
<path d="M541.731 51.2217H325.273V737.211H541.731V51.2217Z" fill="#E4BD86"/>
<path d="M339.748 613.77H323.601C317.058 613.77 311.703 619.123 311.703 625.668V768.443C311.703 774.986 317.058 780.341 323.601 780.341H365.478C356.523 758.565 350.473 735.433 348.137 710.903C345.466 678.84 342.413 646.392 339.748 613.77Z" fill="#F5D9A8"/>
<path d="M339.746 613.77C340.793 626.587 341.919 639.347 343.04 652.097C354.949 679.412 372.641 704.072 394.92 722.026C368.309 689.645 348.912 652.122 341.059 613.77H339.746Z" fill="#F5D9A8"/>
<path d="M540.739 613.77H341.062C348.915 652.122 368.312 689.645 394.923 722.026C423.274 744.872 459.058 756.853 499.838 749.571C527.266 745 542.193 726.365 552.639 703.289V625.666C552.638 619.123 547.284 613.77 540.739 613.77Z" fill="#F8E5BB"/>
<path d="M499.838 749.571C427.013 762.575 370.11 714.175 343.043 652.097C344.775 671.799 346.517 691.437 348.139 710.902C350.476 735.432 356.525 758.564 365.48 780.34H540.74C547.283 780.34 552.638 774.986 552.638 768.442V703.289C542.192 726.366 527.266 744.999 499.838 749.571Z" fill="#F5D9A8"/>
<path d="M333.718 436.789H323.601C317.058 436.789 311.703 442.142 311.703 448.687V591.462C311.703 598.005 317.058 603.36 323.601 603.36H338.912C334.549 547.944 331.558 492.084 333.718 436.789Z" fill="#F5D9A8"/>
<path d="M338.913 603.359H339.219C338.967 601.671 338.736 599.983 338.531 598.292C338.661 599.98 338.78 601.672 338.913 603.359Z" fill="#F8E5BB"/>
<path d="M375.608 473.067C347.846 505.729 336.409 542.892 337.211 580.485C337.63 586.425 338.075 592.36 338.534 598.292C338.738 599.983 338.969 601.671 339.221 603.359H540.741C547.285 603.359 552.639 598.005 552.639 591.461V524.027C508.569 462.365 422.731 417.373 375.608 473.067Z" fill="#F8E5BB"/>
<path d="M375.603 473.067C422.727 417.374 508.564 462.365 552.632 524.028V448.687C552.632 442.143 547.278 436.789 540.734 436.789H333.714C331.85 484.484 333.828 532.597 337.205 580.485C336.404 542.891 347.84 505.729 375.603 473.067Z" fill="#F5D9A8"/>
<path d="M323.601 259.806C317.058 259.806 311.703 265.16 311.703 271.704V414.48C311.703 421.023 317.058 426.378 323.601 426.378H334.19C337.081 369.833 345.638 313.949 363.916 259.807H323.601V259.806Z" fill="#F5D9A8"/>
<path d="M446.698 359.314C424.3 395.15 376.512 418.238 335.323 408.667C334.892 414.564 334.49 420.464 334.188 426.376H540.734C547.278 426.376 552.633 421.023 552.633 414.478V271.704C552.633 265.161 547.279 259.806 540.734 259.806H457.045C462.215 292.997 465.319 326.728 446.698 359.314Z" fill="#F8E5BB"/>
<path d="M335.328 408.668C376.519 418.239 424.306 395.151 446.703 359.315C465.325 326.728 462.22 292.997 457.051 259.807H363.918C347.552 308.288 339.018 358.169 335.328 408.668Z" fill="#F5D9A8"/>
<path d="M456.181 160.25C444.91 189.555 450.791 221.006 455.98 253.068H542.069C548.614 253.068 553.967 247.715 553.967 241.17V168.95C542.052 155.809 526.196 146.813 509.221 140.463C486.727 135.238 465.875 138.438 456.181 160.25Z" fill="#F8E5BB"/>
<path d="M401.676 175.496C387.192 200.845 375.547 226.747 366.238 253.068H455.978C450.788 221.006 444.908 189.554 456.179 160.25C465.874 138.438 486.724 135.237 509.22 140.463C502.246 137.855 495.104 135.645 487.937 133.854C452.242 127.905 416.548 145.752 401.676 175.496Z" fill="#F5D9A8"/>
<path d="M487.938 133.854C512.551 140.008 537.157 150.41 553.967 168.949V127.754C473.447 95.9565 370.901 96.95 313.035 162.249V241.17C313.035 247.714 318.389 253.068 324.933 253.068H366.241C375.55 226.744 387.195 200.844 401.68 175.496C416.551 145.752 452.245 127.905 487.938 133.854Z" fill="#F5D9A8"/>
<path d="M553.968 127.754V98.3961C553.968 91.8517 548.614 86.498 542.07 86.498H324.933C318.389 86.498 313.035 91.8517 313.035 98.3961V162.249C370.901 96.9512 473.448 95.9576 553.968 127.754Z" fill="#E4BD86"/>
<path d="M563.46 74.9521H298.578C291.867 74.9521 286.375 72.1313 286.375 68.6848V6.26731C286.375 2.81963 291.867 0 298.578 0H356.742L362.606 10.7073L369.773 0H563.46C570.171 0 575.663 2.82084 575.663 6.26731V68.6848C575.664 72.1313 570.172 74.9521 563.46 74.9521Z" fill="#F8E5BB"/>
<path d="M334.311 82.6826C338.601 56.2484 320.65 31.3416 294.216 27.0515C267.781 22.7614 242.874 40.7125 238.584 67.1468C234.294 93.581 252.246 118.488 278.68 122.778C305.114 127.068 330.021 109.117 334.311 82.6826Z" fill="#F8E5BB"/>
<path d="M298.581 104.159C314.74 97.4652 322.414 78.9392 315.72 62.7798C309.027 46.6204 290.501 38.9468 274.341 45.6404C258.182 52.334 250.508 70.8601 257.202 87.0195C263.895 103.179 282.422 110.852 298.581 104.159Z" fill="#E4BD86"/>
<path d="M298.576 87.2109C305.334 80.453 305.334 69.4964 298.576 62.7384C291.818 55.9805 280.861 55.9803 274.104 62.7383C267.346 69.4962 267.346 80.453 274.104 87.2109C280.861 93.9689 291.818 93.9688 298.576 87.2109Z" fill="#F8E5BB"/>
<path d="M623.604 82.6782C627.894 56.244 609.943 31.3369 583.509 27.0468C557.074 22.7567 532.167 40.7081 527.877 67.1424C523.587 93.5766 541.539 118.484 567.973 122.774C594.407 127.064 619.314 109.112 623.604 82.6782Z" fill="#F8E5BB"/>
<path d="M587.874 104.154C604.033 97.4599 611.707 78.934 605.013 62.7745C598.319 46.6151 579.794 38.9415 563.634 45.6351C547.475 52.3287 539.801 70.8547 546.495 87.0141C553.188 103.174 571.714 110.847 587.874 104.154Z" fill="#E4BD86"/>
<path d="M582.382 90.8818C591.212 87.2242 595.405 77.1011 591.747 68.2711C588.09 59.4412 577.966 55.2481 569.137 58.9057C560.307 62.5633 556.113 72.6864 559.771 81.5164C563.429 90.3463 573.552 94.5393 582.382 90.8818Z" fill="#F8E5BB"/>
<path opacity="0.57" d="M516.691 504.798C516.691 315.614 512.695 162.25 507.768 162.25C502.839 162.25 498.844 315.614 498.844 504.798C498.844 617.763 495.134 717.944 496.259 780.341H519.918C520.932 717.944 516.691 617.763 516.691 504.798Z" fill="#F5D9A8"/>
<path opacity="0.57" d="M451.449 504.798C451.449 315.614 447.453 162.25 442.526 162.25C437.597 162.25 433.602 315.614 433.602 504.798C433.602 617.763 429.892 717.944 431.017 780.341H454.675C455.69 717.944 451.449 617.763 451.449 504.798Z" fill="#F5D9A8"/>
<path opacity="0.57" d="M386.883 504.798C386.883 315.614 382.887 162.25 377.959 162.25C373.03 162.25 369.036 315.614 369.036 504.798C369.036 617.763 365.325 717.944 366.451 780.341H390.109C391.123 717.944 386.883 617.763 386.883 504.798Z" fill="#F5D9A8"/>
<path opacity="0.31" d="M422.117 49.8551H337.652C330.844 49.8551 325.273 44.2848 325.273 37.4754C325.273 30.6672 330.844 25.0957 337.652 25.0957H422.117C428.925 25.0957 434.495 30.666 434.495 37.4754C434.495 44.2848 428.925 49.8551 422.117 49.8551Z" fill="white"/>
<path d="M563.622 677.143C560.551 698.291 554.623 718.701 542.798 737.632C541.026 746.981 535.57 755.578 526.967 759.38L516.336 774.713C510.112 778.337 504.585 783.086 499.91 788.564C527.432 786.763 552.447 775.786 568.786 752.185C587.172 724.606 581.3 698.646 563.622 677.143Z" fill="#618725"/>
<path d="M303.765 573.71C303.415 569.492 303.072 565.263 302.709 561.027C241.888 563.387 184.732 567.177 125.432 541.902C114.294 537.155 101.622 526.483 106.662 515.473C107.83 512.923 109.743 511.097 112.027 509.708C109.552 510.538 107.086 511.852 104.616 513.827C87.8894 526.373 104.616 551.463 117.161 555.645C177.921 586.024 241.302 595.498 306.556 602.333C305.391 592.884 304.56 583.328 303.765 573.71Z" fill="#8DB75C"/>
<path d="M306.552 602.333C309.431 602.634 312.309 602.938 315.195 603.231C312.055 593.281 308.285 583.433 303.762 573.71C304.557 583.327 305.387 592.884 306.552 602.333Z" fill="#8DB75C"/>
<path d="M606.42 626.734C600.663 618.101 593.761 609.944 585.955 602.494C580.066 599.39 573.987 596.588 567.78 594.014C566.827 621.902 567.543 650.123 563.621 677.144C581.299 698.647 587.169 724.607 568.784 752.186C552.445 775.789 527.43 786.764 499.908 788.565C492.896 796.781 487.849 806.683 485.628 817.26C480.889 839.857 488.489 863.109 497.318 884.443C498.881 888.221 500.543 892.055 502.601 895.595C528.21 895.604 553.927 889.858 577.146 877.637C664.963 831.637 660.782 702.004 606.42 626.734Z" fill="#8DB75C"/>
<path d="M672.936 345.92C662.029 338.565 649.02 334.793 635.958 333.225C628.972 332.386 622.041 332.149 615.165 332.426L598.376 373.115C603.827 375.532 608.53 379.227 611.734 384.387C619.07 396.198 616.096 412.344 607.62 423.364C599.143 434.383 586.226 441.087 573.164 445.847C571.246 446.547 569.306 447.175 567.367 447.808L586.011 519.566C625.596 509.141 665.467 490.229 687.61 455.804C709.759 421.372 706.878 368.814 672.936 345.92Z" fill="#618725"/>
<path d="M121.413 553.456C108.867 549.275 92.1406 524.184 108.867 511.639C111.336 509.664 113.802 508.349 116.277 507.52C121.261 504.491 128.193 503.766 134.313 503.73C179.436 503.458 224.76 508.184 270.034 513.925L296.615 440.373C242.094 427.149 187.947 411.924 132.059 410.539C115.586 410.131 98.9937 410.951 82.9207 414.578C44.0149 423.358 7.30682 452.547 0.977814 491.925C-3.20562 517.942 6.39047 544.968 22.9608 565.458C39.53 585.949 62.4948 600.467 86.6661 610.965C152.638 639.615 225.142 639.57 297.962 639.548C293.686 625.397 289.687 610.971 284.989 597.242C228.817 590.426 174.126 579.813 121.413 553.456Z" fill="#618725"/>
<path d="M345.336 390.5C335.966 383.48 322.674 382.115 312.07 387.084C308.219 388.889 304.527 391.508 300.276 391.674C296.868 391.807 293.627 390.325 290.54 388.878C284.935 386.25 279.331 383.62 273.724 380.993C272.141 380.251 270.522 379.483 269.301 378.234C267.231 376.115 266.645 372.99 266.276 370.051C264.624 356.876 265.447 343.394 268.691 330.518C269.616 326.852 236.509 333.652 233.124 335.966C226.28 340.642 225.084 346.755 224.853 354.627C224.545 365.161 226.364 375.674 219.73 384.775C214.374 392.124 205.729 396.253 198.011 400.589C194.274 402.689 190.399 404.865 186.828 407.392C227.959 398.132 266.507 427.231 307.175 417.099C320.277 408.507 335.952 402.986 345.336 390.5Z" fill="#D9E286"/>
<path d="M186.828 407.392C182.066 410.761 177.862 414.771 175.399 420.238C171.353 429.221 173.133 439.827 170.066 449.189C179.155 495.308 212.375 459.584 233.999 458.133C244.599 457.421 255.306 455.578 264.792 450.798C280.205 443.033 290.914 428.37 305.053 418.475C305.742 417.993 306.47 417.56 307.175 417.099C266.507 427.23 227.958 398.132 186.828 407.392Z" fill="#EFF7BF"/>
<path d="M152.797 500.203C151.259 504.292 149.746 508.487 147.038 511.914C144.012 515.743 139.73 518.324 135.876 521.318C102.925 546.914 103.327 599.973 71.5158 626.973C65.9455 631.701 59.5741 635.428 54.0959 640.262C48.6176 645.095 43.9201 651.431 43.2714 658.709C42.6228 665.987 47.2466 674.017 54.459 675.186C58.6654 658.073 73.2331 645.919 85.2267 633.007C101.738 615.233 114.625 593.979 133.38 578.592C145.927 568.3 161.735 559.71 166.828 544.302C170.027 534.627 168.569 523.097 174.969 515.168C178.121 511.263 182.735 508.885 186.701 505.811C190.668 502.736 194.265 498.279 193.852 493.278C193.397 487.768 188.405 483.905 183.853 480.768C178.653 477.184 170.766 469.098 164.349 473.702C158.673 477.773 155.209 493.786 152.797 500.203Z" fill="#D9E286"/>
<path d="M551.9 434.91C556 434.379 559.905 432.89 563.767 431.414C564.174 434.254 561.82 436.768 559.312 438.163C553.199 441.565 545.381 441.219 539.68 445.275C543.193 447.527 546.799 449.866 549.188 453.288C551.576 456.711 552.471 461.525 550.237 465.049C547.487 459.182 540.282 455.807 534.014 457.451C532.421 457.869 530.881 458.572 529.237 458.678C527.349 458.799 525.511 458.124 523.74 457.46C521.486 456.614 519.231 455.767 516.976 454.921C514.43 453.965 511.799 452.954 509.892 451.016C502.366 443.361 519.303 439.637 524.9 437.196C533.874 433.281 542.46 436.134 551.9 434.91Z" fill="#D9E286"/>
<path d="M299.815 592C292.231 582.696 282.369 574.716 279.474 563.19C277.772 556.421 278.767 549.289 280.053 542.43C285.103 515.509 294.569 489.422 307.957 465.527C313.44 455.742 319.781 446.098 328.83 439.47C329.606 438.903 330.413 438.335 331.224 437.763C287.585 428.538 267.493 477.132 259.338 513.828C259.338 518.01 246.793 522.191 250.975 530.555C259.338 534.737 255.157 543.1 255.157 547.281C246.794 559.827 225.885 543.099 225.885 547.281C219.353 563.611 210.241 574.767 196.613 574.911C196.613 582.408 196.613 591.129 196.613 597.462C230.398 594.646 266.069 597.48 299.815 592Z" fill="#EFF7BF"/>
<path d="M299.814 592C266.068 597.48 230.397 594.645 196.612 597.461C196.612 591.13 196.612 582.407 196.612 574.911C195.228 574.925 193.813 574.865 192.332 574.646C191.973 577.37 191.346 579.997 190.336 582.462C187.421 589.581 182.485 595.643 178.143 601.991C172.305 610.521 167.458 619.727 163.723 629.363C162.849 631.617 162.018 634.093 163.486 636.396C163.554 636.504 194.769 656.667 219.069 666.722C227.081 670.036 235.732 673.05 244.261 671.49C250.771 670.301 256.501 666.558 261.825 662.632C276.976 651.465 290.512 638.111 301.885 623.115C304.425 619.764 306.929 616.175 307.643 612.031C308.617 606.373 306.083 600.676 302.812 595.958C301.876 594.603 300.865 593.29 299.814 592Z" fill="#EFF7BF"/>
<path d="M340.1 424.447C339.767 421.366 338.067 418.599 335.846 416.437C325.043 405.921 308.091 402.555 294.022 407.785C288.215 409.944 282.995 413.406 277.413 416.095C271.16 419.108 264.489 421.136 257.983 423.553C233.795 432.538 211.745 447.145 193.91 465.776C186.762 473.242 179.053 480.626 178.337 491.322C177.375 505.676 182.122 520.192 185.823 533.835C189.163 546.159 194.047 561.593 192.33 574.645C208.378 577.028 218.686 565.269 225.882 547.281C225.882 543.099 246.79 559.826 255.154 547.281C255.154 543.099 259.336 534.735 250.972 530.554C246.789 522.191 259.335 518.009 259.335 513.828C267.49 477.132 287.582 428.537 331.22 437.762C335.948 434.426 340.785 430.815 340.1 424.447Z" fill="#EFF7BF"/>
<path d="M395.627 430.854C408.343 433.181 420.898 437.656 433.805 436.915C440.509 436.531 447.048 434.741 453.705 433.854C467.475 432.017 481.75 434.139 494.389 439.902C498.847 441.935 503.511 444.928 504.636 449.696C506.341 456.915 499.039 464.058 500.87 471.247C508.056 469.07 509.659 459.867 513.664 453.516C518.099 446.48 526.03 442.645 533.172 438.384C540.315 434.124 547.57 428.242 548.795 420.016C540.817 423.622 532.694 426.908 524.452 429.86C522.77 430.463 521.063 431.056 519.284 431.224C515.486 431.582 511.809 429.984 508.329 428.42C491.757 420.975 475.184 413.529 458.611 406.085C452.527 403.351 446.356 400.592 439.773 399.519C433.581 398.509 427.258 399.031 420.992 399.319C398.79 400.341 376.452 398.394 354.763 393.544C347.766 391.979 340.743 390.102 333.573 390.17C321.288 390.285 309.21 396.51 301.989 406.449C290.5 422.261 297.061 454.812 320.696 442.588C343.756 430.664 369.946 426.155 395.627 430.854Z" fill="#EFF7BF"/>
<path d="M299.815 592C292.231 582.696 282.369 574.716 279.474 563.19C277.772 556.421 278.767 549.289 280.053 542.43C285.103 515.509 294.569 489.422 307.957 465.527C313.44 455.742 319.781 446.098 328.83 439.47C329.606 438.903 330.413 438.335 331.224 437.763C287.585 428.538 267.493 477.132 259.338 513.828C259.338 518.01 246.793 522.191 250.975 530.555C259.338 534.737 255.157 543.1 255.157 547.281C246.794 559.827 238.431 544.144 225.885 547.281C213.863 551.463 210.241 574.767 196.613 574.911C196.613 582.408 196.613 591.129 196.613 597.462C230.398 594.646 266.069 597.48 299.815 592Z" fill="#C1E588"/>
<path d="M563.161 759.351C551.676 751.691 539.305 749.771 526.222 758.974C504.882 773.983 459.797 780.445 420.48 772.006C469.626 794.938 529.863 797.743 563.161 759.351Z" fill="#618725"/>
<path d="M605.061 809.818C593.097 791.338 578.969 769.897 563.163 759.351C529.865 797.743 469.628 794.939 420.482 772.006C399.535 767.51 380.223 758.794 367.018 744.867C339.886 716.255 336.685 670.933 322.906 632.671C335.043 689.402 334.4 748.06 355.518 802.366C388.972 885.999 497.697 919.453 577.15 877.636C596.19 867.662 610.891 853.748 621.709 837.317C617.213 828.558 611.247 819.37 605.061 809.818Z" fill="#8DB75C"/>
<path d="M168.503 450.191C165.213 453.954 161.55 457.616 159.836 462.312C157.457 468.828 159.365 476.338 163.355 482.012C167.345 487.687 173.17 491.796 179.153 495.307C181.557 496.718 184.09 498.078 186.861 498.377C191.382 498.863 195.812 496.375 198.811 492.957C201.81 489.538 203.632 485.274 205.405 481.086C206.252 479.087 207.042 476.597 205.67 474.914C204.814 473.863 203.384 473.518 202.06 473.235C196.868 472.125 191.678 471.016 186.488 469.906C183.176 469.198 179.611 468.344 177.432 465.752C175.334 463.258 175.033 459.64 175.801 456.474C176.57 453.307 178.264 450.458 179.841 447.606C182.798 442.256 187.045 434.793 186.315 428.644C180.14 428.273 172.535 445.576 168.503 450.191Z" fill="#D9E286"/>
<path d="M231.828 494.62C244.112 500.057 259.271 497.335 269.688 488.852C276.044 483.678 280.767 476.526 283.032 468.649C283.973 465.382 284.506 461.981 285.852 458.859C287.362 455.355 289.831 452.358 292.387 449.525C299.977 441.114 308.65 433.682 318.125 427.471C322.719 424.459 328.163 420.438 327.416 414.997C326.757 410.19 321.094 407.414 316.293 408.117C311.492 408.82 307.455 411.963 303.694 415.028C296.583 420.82 289.513 426.786 283.844 433.997C277.024 442.673 272.428 452.91 265.788 461.725C259.148 470.541 249.495 478.21 238.458 478.23C234.771 478.236 230.901 477.268 228.285 474.67C221.533 467.965 228.425 458.261 224.475 452.021C220.888 446.354 215.991 453.082 214.305 457.686C209.14 471.787 218.429 489.037 231.828 494.62Z" fill="#D9E286"/>
<path d="M549.249 911.678C553.682 911.289 557.851 910.902 561.833 910.434C561.556 908.551 561.183 906.669 560.859 904.786C554.062 907.574 547.164 910.06 540.191 912.278C543.242 912.156 546.285 911.937 549.249 911.678Z" fill="#C1E588"/>
<path d="M502.602 895.594C504.668 899.15 507.135 902.407 510.311 905.012C518.466 911.7 529.386 912.707 540.189 912.277C547.162 910.06 554.06 907.574 560.857 904.785C559.802 898.626 558.593 892.467 557.192 886.309C539.586 892.561 521.072 895.6 502.602 895.594Z" fill="#C1E588"/>
<path d="M676.344 746.422C675.696 718.733 668.654 688.73 650.061 660.357C643.076 663.695 636.646 667.868 631.273 673.623C640.46 698.019 645.489 724.465 645.489 750.321C655.562 747.133 665.942 746.162 676.344 746.422Z" fill="#C1E588"/>
<path d="M631.275 673.622C636.647 667.866 643.076 663.694 650.063 660.356C643.565 650.443 635.686 640.724 626.138 631.378C614.154 619.646 600.591 610.204 585.957 602.492C593.761 609.943 600.665 618.101 606.42 626.734C616.553 640.766 624.904 656.705 631.275 673.622Z" fill="#C1E588"/>
<path d="M676.348 754.16C676.397 751.6 676.41 749.024 676.348 746.421C665.947 746.162 655.566 747.131 645.493 750.319C642.507 753.945 640.403 757.945 638.82 762.161C648.501 752.497 663.754 748.806 676.348 754.16Z" fill="#EFF7BF"/>
<path d="M638.816 762.162C630.922 783.203 637.309 810.2 626.387 829.65C633.68 832.724 640.465 836.476 646.909 840.68C663.353 816.757 672.536 788.832 676.191 759.381C676.271 757.654 676.312 755.909 676.342 754.161C663.748 748.806 648.496 752.497 638.816 762.162Z" fill="#C1E588"/>
<path d="M646.91 840.681C648.695 841.845 650.463 843.028 652.196 844.258C654.7 840.182 656.902 836.17 658.689 832.333C666.656 815.221 674.82 789.106 676.191 759.381C672.537 788.831 663.353 816.757 646.91 840.681Z" fill="#EFF7BF"/>
<path d="M646.912 840.681C640.468 836.478 633.683 832.725 626.39 829.65C615.284 849.431 599.088 866.144 577.148 877.636C570.677 881.041 563.999 883.893 557.195 886.309C558.595 892.468 559.804 898.627 560.861 904.785C573.639 899.545 586.075 893.293 598.058 885.999C618.786 873.75 634.808 858.295 646.912 840.681Z" fill="#C1E588"/>
<path d="M598.057 885.999C586.075 893.292 573.638 899.544 560.859 904.785C561.182 906.668 561.555 908.55 561.833 910.433C578.384 908.487 591.664 905.13 606.735 894.418C622.599 883.141 640.693 862.999 652.198 844.258C650.464 843.027 648.696 841.845 646.912 840.681C634.808 858.295 618.786 873.75 598.057 885.999Z" fill="#EFF7BF"/>
<path d="M170.848 614.844C174.368 616.561 177.931 618.07 181.51 619.483C185.103 607.295 189.996 595.293 196.136 583.572C185.677 591.75 177.25 602.485 170.848 614.844Z" fill="#EFF7BF"/>
<path d="M311.053 607.312C310.112 605.748 309.163 604.188 308.126 602.688C292.761 580.491 273.394 566.556 246.398 566.701C226.276 566.81 209.535 573.091 196.134 583.571C191.223 592.947 187.15 602.507 183.859 612.192C223.977 634.244 271.093 630.264 311.053 607.312Z" fill="#C1E588"/>
<path d="M311.053 607.312C271.094 630.263 223.976 634.244 183.86 612.191C183.038 614.616 182.227 617.041 181.508 619.481C224.894 636.592 272.191 631.766 315.211 614.757C313.914 612.214 312.517 609.741 311.053 607.312Z" fill="#EFF7BF"/>
<path d="M340.113 725.229C339.701 705.554 334.754 684.778 329.59 671.579C279.534 692.676 220.72 697.9 173.441 679.556C173.76 700.386 177.211 721.1 183.338 741.131C231.098 761.715 304.457 766.617 340.113 725.229Z" fill="#C1E588"/>
<path d="M183.34 741.133C184.944 746.377 186.691 751.586 188.661 756.724C239.221 770.541 291.932 762.585 339.349 741.058C340.019 735.988 340.229 730.648 340.115 725.229C304.459 766.617 231.1 761.716 183.34 741.133Z" fill="#EFF7BF"/>
<path d="M155.933 671.425C154.92 687.145 156.099 703.268 159.463 718.731C161.834 729.619 164.653 739.909 167.811 749.731C174.706 752.5 181.663 754.811 188.66 756.723C179.162 731.957 173.844 705.84 173.443 679.556C167.413 677.218 161.543 674.55 155.933 671.425Z" fill="#EFF7BF"/>
<path d="M462.794 883.42C445.899 874.175 417.271 870.73 399.443 860.532C380.617 878.621 358.79 892.887 334.055 901.669C365.032 914.382 397.65 922.106 430.414 924.591C449.083 916.845 471.018 905.348 462.794 883.42Z" fill="#C1E588"/>
<path d="M462.79 883.42C471.014 905.349 449.079 916.845 430.41 924.593C434.4 924.895 438.39 925.155 442.382 925.301C454.613 916.104 465.296 905.369 474 893.184C471.633 889.228 467.677 886.095 462.79 883.42Z" fill="#EFF7BF"/>
<path d="M315.406 907.187C346.876 919.315 379.223 925.513 408.884 928.263C417.462 929.058 426.493 929.663 435.792 930.031C438.041 928.508 440.229 926.92 442.384 925.299C405.619 923.957 368.805 915.929 334.054 901.668C327.999 903.818 321.818 905.734 315.406 907.187Z" fill="#EFF7BF"/>
<path d="M442.382 925.301C440.225 926.921 438.039 928.509 435.789 930.032C475.221 931.589 519.509 928.795 554.95 917.371C557.484 916.554 559.982 915.695 562.448 914.817C562.021 911.466 561.486 908.116 560.91 904.765C523.388 920.164 482.924 926.781 442.382 925.301Z" fill="#EFF7BF"/>
<path d="M546.562 884.553C527.121 884.648 496.802 897.061 474.001 893.183C465.297 905.368 454.614 916.103 442.383 925.3C481.133 926.714 519.783 920.639 555.89 906.661C556.911 897.407 553.991 888.779 546.562 884.553Z" fill="#C1E588"/>
<path d="M557.197 886.341C554.253 885.015 550.628 884.533 546.559 884.553C553.986 888.779 556.906 897.407 555.886 906.661C557.556 906.013 559.249 905.443 560.907 904.763C559.849 898.623 558.596 892.483 557.197 886.341Z" fill="#EFF7BF"/>
<path d="M610.183 843.782C598.107 853.702 592.105 869.8 577.146 877.636C570.673 881.041 564.003 883.922 557.199 886.341C558.598 892.483 559.852 898.623 560.909 904.765C573.669 899.528 586.09 893.283 598.055 886C608.539 879.806 617.736 872.737 625.919 865.038C626.556 854.279 621.341 843.694 610.183 843.782Z" fill="#C1E588"/>
<path d="M621.709 837.316C617.201 838.804 613.48 841.076 610.188 843.782C621.346 843.694 626.561 854.279 625.924 865.038C627.086 863.944 628.291 862.879 629.409 861.76C629.058 854.069 626.115 845.904 621.709 837.316Z" fill="#EFF7BF"/>
<path d="M598.055 885.999C586.09 893.283 573.67 899.527 560.91 904.763C561.486 908.114 562.021 911.465 562.448 914.816C583.892 907.185 602.459 897.544 612.513 890.79C625.354 882.162 629.89 872.421 629.406 861.759C620.41 870.766 610.03 878.925 598.055 885.999Z" fill="#EFF7BF"/>
<path d="M241.738 840.317C232.267 839.444 222.788 837.723 213.344 835.038C242.193 870.199 278.185 892.846 315.405 907.189C321.817 905.735 327.998 903.82 334.054 901.669C315.414 894.021 297.361 884.617 280.246 873.455C266.275 863.734 253.402 852.567 241.738 840.317Z" fill="#EFF7BF"/>
<path d="M388.973 856.727C390.402 853.87 391.29 849.997 391.576 845.687C381.902 831.584 368.842 822.334 360.201 812.661C322.937 832.09 282.388 844.063 241.738 840.316C253.402 852.567 266.275 863.735 280.247 873.455C291.195 880.595 302.558 886.934 314.183 892.635C345.179 898.956 377.521 879.626 388.973 856.727Z" fill="#C1E588"/>
<path d="M399.439 860.532C397.315 854.992 394.604 850.108 391.572 845.687C391.286 849.998 390.398 853.87 388.968 856.727C377.518 879.627 345.175 898.956 314.18 892.635C320.725 895.847 327.333 898.914 334.051 901.669C358.785 892.887 380.613 878.62 399.439 860.532Z" fill="#EFF7BF"/>
<path d="M358.421 786.991C347.746 836.738 277.145 835.981 232.316 829.813C235.367 833.388 238.49 836.906 241.737 840.317C282.387 844.063 322.936 832.09 360.2 812.661C362.004 806.936 360.975 797.426 358.421 786.991Z" fill="#EFF7BF"/>
<path d="M358.423 786.99C356.646 779.737 354.127 772.06 351.295 764.864C349.915 763.804 348.536 763.352 347.157 764.73C348.538 763.35 349.916 763.804 351.295 764.864C347.526 755.289 343.215 746.589 339.353 741.059C291.935 762.586 239.225 770.542 188.664 756.725C198.792 783.131 213.683 807.954 232.319 829.814C277.148 835.98 347.748 836.738 358.423 786.99Z" fill="#C1E588"/>
<path d="M167.812 749.731C178.897 784.209 194.63 812.23 213.344 835.037C222.788 837.724 232.266 839.444 241.739 840.316C218.646 816.061 200.449 787.45 188.663 756.724C181.664 754.812 174.708 752.5 167.812 749.731Z" fill="#EFF7BF"/>
<path d="M181.506 619.481C177.927 618.069 174.364 616.56 170.844 614.843C162.207 631.512 157.243 651.133 155.934 671.425C161.545 674.55 167.413 677.218 173.443 679.557C173.134 659.446 175.678 639.244 181.506 619.481Z" fill="#EFF7BF"/>
<path d="M328.502 650.865C324.901 635.263 317.159 618.589 315.207 614.757C272.187 631.766 224.89 636.594 181.504 619.481C176.816 635.376 174.288 651.556 173.625 667.744C224.608 693.695 298.959 695.371 328.502 650.865Z" fill="#C1E588"/>
<path d="M173.625 667.744C173.464 671.683 173.382 675.622 173.441 679.557C220.72 697.902 279.534 692.677 329.59 671.58C331.068 666.071 330.285 658.599 328.502 650.865C298.959 695.371 224.608 693.695 173.625 667.744Z" fill="#EFF7BF"/>
<path d="M198.603 556.315C199.104 555.5 199.865 554.872 200.376 554.063C200.881 553.262 201.117 552.324 201.514 551.465C201.911 550.605 202.551 549.768 203.469 549.537C204.209 549.35 204.995 549.595 205.672 549.949C208.332 551.338 209.897 554.56 209.344 557.509C207.674 566.416 194.584 562.847 198.603 556.315Z" fill="#C1E588"/>
<path d="M216.767 544.061C216.603 544.354 216.348 544.688 216.016 544.814C215.764 544.939 215.471 544.981 215.178 544.981C214.008 544.981 212.879 544.73 211.791 544.228C211.375 544.061 210.956 543.809 210.662 543.434C210.077 542.64 210.329 541.384 210.956 540.631C211.624 539.837 212.586 539.376 213.506 538.959L213.925 539.001C215.054 538.247 216.726 538.959 217.27 540.173C217.813 541.426 217.48 542.889 216.767 544.061Z" fill="#C1E588"/>
<path d="M220.209 554.108C220.688 554.78 221.398 555.254 222.14 555.618C223.498 556.283 225.175 556.605 226.488 555.856C227.647 555.195 228.261 553.86 229.332 553.067C230.391 552.282 231.775 552.109 233.092 552.065C234.408 552.02 235.76 552.071 237.005 551.642C238.252 551.214 239.395 550.155 239.448 548.838C239.508 547.39 238.284 546.221 237.045 545.469C233.813 543.51 228.292 542.498 224.702 544.208C221.716 545.629 217.92 550.903 220.209 554.108Z" fill="#EFF7BF"/>
<path d="M226.363 567.395C228.251 568.188 229.045 570.637 230.956 571.373C232.614 572.012 234.638 570.954 235.286 569.301C236.991 564.946 230.482 561.017 226.771 561.396C225.118 561.564 221.44 562.872 221.731 565.04C222.028 567.244 224.837 566.754 226.363 567.395Z" fill="#EFF7BF"/>
<path d="M271.033 513.227C270.189 513.209 269.319 513.249 268.548 513.593C267.024 514.272 266.24 515.937 265.583 517.471C265.052 518.709 264.512 519.977 264.425 521.323C264.337 522.667 264.786 524.126 265.886 524.905C267.415 525.986 269.794 525.537 271.037 526.94C271.539 527.506 271.742 528.269 272.068 528.951C272.394 529.635 272.951 530.311 273.707 530.366C274.164 530.399 274.607 530.19 274.982 529.927C276.462 528.89 277.158 526.855 276.622 525.13C276.107 523.471 274.591 522.063 274.775 520.335C274.905 519.121 275.85 518.18 276.422 517.102C278.488 513.21 273.356 513.276 271.033 513.227Z" fill="#EFF7BF"/>
<path opacity="0.25" d="M173.178 684.311C175.189 715.755 184.624 746.271 196.671 775.269C203.266 791.148 215.23 808.619 226.093 821.814C239.322 837.88 252.449 847.721 270.045 858.544C274.873 861.512 282.177 863.944 285.213 859.089C287.17 855.961 285.725 851.852 284.155 848.503C266.343 810.505 236.576 778.005 226.793 737.067C219.981 708.563 223.594 678.549 229.46 649.827C231.384 640.407 233.557 630.916 233.274 621.298C232.992 611.68 229.923 601.713 222.911 595.303C205.12 579.041 191.091 595.514 184.336 611.613C174.78 634.388 171.602 659.686 173.178 684.311Z" fill="white"/>
<path opacity="0.25" d="M183.881 439.947C183.801 441.438 183.912 443.01 184.695 444.282C186.028 446.452 189.012 447.123 191.476 446.483C193.94 445.843 195.992 444.175 197.899 442.489C203.161 437.837 230.119 410.472 207.543 410.563C197.092 410.605 184.364 430.966 183.881 439.947Z" fill="white"/>
<path opacity="0.72" d="M195.986 640.575C195.776 642.75 195.442 644.882 194.941 647.016C194.314 649.65 193.393 652.327 191.513 654.208C189.587 656.132 186.494 657.051 184.109 655.713C181.559 654.291 180.848 650.863 181.058 647.935C181.435 642.958 184.151 637.815 188.836 636.226L192.472 635.974C193.477 635.305 194.941 635.932 195.568 636.978C196.153 638.066 196.111 639.363 195.986 640.575Z" fill="white"/>
<path d="M201.939 321.994C194.145 319.834 185.67 315.678 183.63 307.852C182.278 302.668 184.202 297.157 186.981 292.577C189.759 287.996 193.394 283.964 195.985 279.275C199.914 272.163 201.285 263.828 205.463 256.86C208.057 252.533 211.636 248.898 215.179 245.309C223.044 237.341 231.008 229.295 240.527 223.403C250.046 217.511 261.423 213.893 272.477 215.662C282.025 217.19 290.983 222.621 300.633 222.008C306.525 221.633 312.011 219.02 317.328 216.452C322.204 214.098 327.079 211.743 331.954 209.39C335.166 207.838 339.393 206.422 341.95 208.908C343.016 209.945 343.48 211.436 343.895 212.864C345.636 218.851 347.205 225.02 346.788 231.24C346.253 239.2 342.53 246.534 339.434 253.886C336.846 260.03 334.655 266.34 332.877 272.764C331.561 277.524 330.6 283.058 333.516 287.042C337.564 292.571 345.878 291.473 352.625 292.67C360.117 293.999 366.853 299.057 370.219 305.881C373.584 312.706 373.494 321.129 369.985 327.881C368.978 329.819 367.413 331.801 365.235 331.962C364.107 332.045 363.013 331.616 361.958 331.207C357.26 329.388 352.295 327.839 347.274 328.243C338.493 328.95 331.319 335.402 325.549 342.059C319.779 348.716 314.391 356.155 306.536 360.142C304.716 361.066 302.638 361.796 300.66 361.297C296.279 360.189 295.477 354.505 294.328 350.136C291.584 339.693 282.18 332.051 271.986 328.497C261.792 324.943 250.77 324.805 239.973 324.705C227.023 324.586 214.519 325.482 201.939 321.994Z" fill="#7CA546"/>
<path d="M248.762 256.822C252.822 251.099 259.521 247.334 266.521 246.842C272.536 246.418 278.446 248.276 284.254 249.892C296.375 253.267 309.89 255.555 321.109 249.859C328.107 246.306 333.347 240.01 337.399 233.288C339.478 229.84 341.336 226.1 341.559 222.08C341.934 215.322 337.664 209.065 337.448 202.301C337.229 195.451 341.673 188.693 348.049 186.181C352.61 184.384 358.658 185.137 361.199 189.33C361.599 189.99 361.905 190.764 361.754 191.519C361.443 193.074 359.569 193.616 358.124 194.272C353.45 196.392 351.481 202.155 351.762 207.281C352.043 212.406 354.028 217.27 355.046 222.3C357.724 235.539 353.176 250.013 343.408 259.342C333.64 268.671 318.972 272.549 305.87 269.265C296.392 266.89 286.995 261.03 277.561 263.577C268.018 266.153 262.826 276.173 258.766 285.186C257.82 287.288 246.124 278.258 245.129 276.169C242.413 270.456 245.394 261.569 248.762 256.822Z" fill="#8DB75C"/>
<path d="M253.6 256.378C252.209 251.518 248.494 247.566 247.194 242.68C245.554 236.512 248.159 229.783 252.559 225.159C256.958 220.535 262.913 217.709 268.925 215.565C274.315 213.642 280.535 211.609 282.772 206.341C283.98 203.499 283.721 200.263 283.237 197.213C282.099 190.049 267.922 170.528 265.35 169.002C262.778 167.476 263.875 167.4 262.003 169.732C259.712 172.586 262.544 173.963 265.477 178.618C267.428 181.714 268.763 186.995 268.21 190.613C267.756 193.584 265.294 195.786 262.943 197.66C250.548 207.533 236.503 216.036 227.675 229.196C226.726 230.609 225.819 232.152 225.744 233.852C225.661 235.695 226.565 237.422 227.445 239.045C230.893 245.403 234.47 252.496 232.847 259.544C231.331 266.136 218.402 286.044 234.983 284.303C246.46 283.098 256.683 267.156 253.6 256.378Z" fill="#9DD15A"/>
<path d="M205.549 332.358C204.369 332.989 203.104 333.548 201.767 333.59C196.983 333.744 194.507 327.837 190.283 325.588C187.265 323.981 183.522 324.368 180.42 322.93C176.848 321.274 174.699 317.347 174.355 313.423C174.011 309.501 175.23 305.593 176.92 302.036C179.453 296.707 183.086 291.902 187.524 288.013C188.15 287.464 188.906 286.898 189.729 287.027C190.768 287.189 191.296 288.319 191.881 289.193C194.305 292.809 200.244 294.056 200.637 298.392C200.821 300.424 199.575 302.303 198.196 303.808C196.818 305.311 195.212 306.688 194.379 308.551C193.547 310.415 193.81 312.99 195.586 313.993C196.455 314.485 197.5 314.509 198.498 314.521C203.055 314.577 217.663 312.241 218.565 317.923C219.37 322.993 209.174 330.42 205.549 332.358Z" fill="#8DB75C"/>
<path d="M190.197 303.338C182.795 299.74 176.332 293.344 174.6 285.298C173.955 282.302 174.207 278.689 176.66 276.851C178.53 275.45 181.086 275.519 183.297 274.759C188.895 272.836 191.201 266.08 191.296 260.162C191.391 254.244 190.073 248.184 191.673 242.486C193.767 235.027 200.618 229.662 207.982 227.249C215.345 224.837 223.256 224.892 231.005 224.97C232.482 224.985 234.055 225.028 235.283 225.849C236.767 226.84 237.366 228.701 237.779 230.438C238.897 235.156 239.369 240.028 239.179 244.873C229.491 244.461 218.832 244.353 211.333 250.499C208.241 253.033 205.848 256.919 206.469 260.868C206.771 262.792 207.758 264.56 208.035 266.489C208.76 271.533 204.672 275.797 201.486 279.774C198.299 283.75 195.897 289.93 199.478 293.555C200.978 295.071 203.152 295.658 205.218 296.184C209.721 297.33 214.222 298.478 218.727 299.624C227.032 301.738 219.989 310.057 214.069 309.691C206.459 309.22 197.009 306.647 190.197 303.338Z" fill="#9DD15A"/>
<path d="M264.03 287.589C260.148 284.428 257.677 279.276 258.587 274.353C259.796 267.812 266.271 263.577 272.616 261.583C277.975 259.898 283.798 259.256 289.216 260.74C293.662 261.959 297.603 264.529 301.869 266.277C312.564 270.658 326.314 268.94 333.606 259.974C340.798 251.132 341.268 236.682 351.43 231.521C357.644 228.365 365.229 230.154 371.559 233.068C377.89 235.982 383.847 239.992 390.682 241.353C398.209 242.852 413.116 248.444 420.979 237.403C421.735 236.342 423.404 235.636 424.448 236.416C424.89 236.746 425.094 237.299 425.27 237.822C427.444 244.323 419.914 260.761 418.463 262.125C417.702 262.84 418.027 263.092 416.984 263.039C404.318 262.39 390.148 249.95 375.887 250.376C365.677 250.681 358.09 259.575 352.001 267.776C345.913 275.977 338.625 285.005 328.441 285.782C319.836 286.439 312.18 280.918 304.559 276.87C296.937 272.822 286.663 270.425 280.353 276.31C275.85 280.509 279.179 285.604 276.659 289.545C273.83 293.974 266.966 289.979 264.03 287.589Z" fill="#9DD15A"/>
<path d="M325.07 242.378C327.918 235.489 326.793 227.049 330.971 220.92C335.629 214.089 345.102 212.866 353.084 214.35C361.066 215.834 368.707 219.361 376.813 219.672C379.489 219.775 382.219 219.51 384.701 218.473C392.159 215.354 387.463 202.629 397.726 198.572C393.209 194.354 394.032 192.26 388.649 195.215C385.495 196.947 385.079 202.629 378.981 206.259C374.961 208.653 365.172 203.063 360.579 202.465C350.93 201.209 341.244 199.286 331.555 200.139C321.865 200.993 311.886 205.123 306.515 213.463C302.308 219.995 301.381 228.302 297.249 234.884C294.166 239.793 289.336 243.512 283.888 245.17C280.172 246.3 276.243 246.492 272.499 247.516C268.755 248.541 264.987 250.657 263.388 254.287C260.095 261.763 271.511 263.803 276.29 263.114C280.908 262.447 284.512 259.24 288.963 258.048C302.102 254.53 318.357 258.611 325.07 242.378Z" fill="#9DD15A"/>
<path d="M248.54 243.604C251.01 233.55 261.998 228.367 271.938 225.474C281.878 222.58 293.03 219.943 298.862 211.389C301.151 208.033 302.356 204.077 303.529 200.189C305.682 193.054 307.834 185.918 309.988 178.783C311.513 173.73 310.853 166.183 315.347 163.099C322.038 162.878 323.149 163.652 329.789 164.505C331.831 164.767 335.228 166.604 336.026 168.503C336.026 168.503 327.399 171.066 325.231 172.804C314.513 181.399 313.733 195.846 312.903 209.56C312.613 214.333 312.949 219.418 310.556 223.558C306.203 231.089 295.78 231.466 287.556 234.3C280.598 236.698 274.487 241.479 270.487 247.655C265.621 255.169 271.137 257.828 273.574 264.481C275.565 269.918 273.65 272.78 268.132 271.982C256.499 270.297 245.794 254.783 248.54 243.604Z" fill="#8DB75C"/>
<path d="M306.982 313.834C315.845 315.377 325.502 314.091 332.748 308.758C336.362 306.098 339.235 302.566 342.629 299.631C348.907 294.202 357.121 290.893 365.419 291.077C373.717 291.26 381.99 295.1 387.023 301.7C390.496 306.253 392.333 311.831 395.297 316.732C398.259 321.633 404.363 318.047 410.248 325.983C413.659 330.584 421.818 316.893 416.603 314.523C412.368 312.599 412.441 313.095 409.982 311.134C401.968 304.741 405.388 288.842 399.423 280.505C395.822 275.472 389.316 273.614 383.292 272.198C378.083 270.974 372.699 269.828 367.422 270.709C360.869 271.803 355.232 275.885 348.94 278.012C332.509 283.566 315.072 275.259 298.284 270.9C293.856 269.751 289.22 268.871 284.726 269.731C269.568 272.632 274.788 288.079 279.394 297.897C283.98 307.666 296.978 312.092 306.982 313.834Z" fill="#8DB75C"/>
<path d="M271.971 325.886C270.899 331.043 272.311 336.479 274.892 341.072C276.507 343.945 278.595 346.619 279.479 349.794C280.496 353.449 279.803 357.329 279.804 361.121C279.805 371.9 287.445 383.368 298.21 383.91C302.027 384.103 305.794 382.946 309.29 381.402C316.001 378.437 322.245 373.75 325.488 367.169C328.039 361.993 328.558 356.063 330.506 350.631C333.245 342.995 339.25 336.241 347.067 334.08C354.886 331.917 364.294 335.27 367.801 342.584C370.047 347.268 370.218 353.518 374.658 356.212C376.401 357.269 378.508 357.53 380.546 357.595C385.934 357.769 391.358 356.737 396.306 354.597C398.771 353.531 401.221 352.097 402.62 349.804C404.017 347.512 404.006 344.182 401.976 342.426C398.733 339.623 393.868 342.517 389.588 342.76C381.89 343.198 376.989 335.118 371.858 329.362C365.565 322.303 356.574 317.709 347.166 316.744C343.568 316.375 339.828 316.54 336.494 317.947C331.901 319.887 328.591 323.929 325.474 327.821C320.493 334.041 315.512 340.261 310.529 346.481C308.673 348.798 306.716 351.197 304.014 352.428C301.312 353.658 297.642 353.311 295.978 350.852C293.151 346.671 297.875 341.72 300.228 337.256C303.237 331.543 302.025 324.046 297.735 319.219C288.97 309.35 274.708 312.723 271.971 325.886Z" fill="#8DB75C"/>
<path d="M298.781 333.832C298.718 339.395 295.793 344.452 293.753 349.627C291.712 354.803 290.662 361.114 293.959 365.596C298.229 371.404 307.047 370.828 313.954 368.758C320.86 366.689 328.392 363.744 334.97 366.694C337.88 367.999 340.191 370.326 342.842 372.1C346.534 374.571 351.239 375.962 355.476 374.624C359.712 373.286 362.98 368.61 361.728 364.346C355.591 360.816 349.378 357.255 342.577 355.286C335.776 353.317 328.221 353.069 321.81 356.074C318.278 357.729 314.068 360.311 310.904 358.032C309.845 357.269 309.179 356.081 308.651 354.888C306.285 349.548 306.047 343.464 306.906 337.686C308.03 330.12 310.818 321.819 306.849 315.28C305.294 312.718 302.869 310.817 300.427 309.081C297.142 306.744 293.623 304.551 289.671 303.755C285.72 302.959 281.225 303.802 278.516 306.785C276.475 309.032 275.413 313.828 277.659 316.358C279.865 318.844 283.224 317.589 286.313 318.412C293.071 320.215 298.863 326.653 298.781 333.832Z" fill="#9DD15A"/>
<path d="M292.263 286.868C295.464 291.099 296.112 296.75 298.822 301.311C303.484 309.158 314.627 312.315 322.714 308.081C330.537 303.983 334.338 294.852 341.31 289.428C348.391 283.918 358.69 282.915 366.701 286.954C376.076 291.681 381.429 302.446 381.624 312.943C381.819 323.44 377.522 333.599 371.619 342.28C369.275 345.728 366.623 349.093 365.462 353.097C360.306 352.95 355.183 351.762 350.488 349.623C349.073 348.978 347.634 348.194 346.785 346.89C344.68 343.654 347.387 339.254 350.763 337.382C354.141 335.508 358.183 334.959 361.348 332.747C367.228 328.636 368.172 320.191 366.714 313.166C365.764 308.587 363.276 303.506 358.664 302.731C352.633 301.717 348.56 308.38 345.216 313.501C340.915 320.089 334.696 325.762 327.092 327.779C319.487 329.797 310.48 327.468 306.007 320.995C304.477 318.781 303.515 316.197 301.852 314.078C297.378 308.376 289.265 307.46 282.054 306.735C279.827 306.511 277.37 306.143 275.942 304.42C272.811 300.643 269.033 287.504 272.987 283.756C278.096 278.918 288.468 282.123 292.263 286.868Z" fill="#9DD15A"/>
<path d="M291.944 332.772C295.439 329.827 295.525 325.197 295.969 320.648C296.412 316.099 296.753 311.212 299.611 307.645C303.203 303.159 312.396 299.385 311.995 296.042C308.476 294.157 301.445 299.211 297.041 302.284C293.568 304.708 290.934 308.421 288.342 311.769C284.347 316.927 281.204 323.675 280.576 330.16C280.362 332.366 282.11 338.801 284.497 339.308C288.482 340.156 290.63 333.88 291.944 332.772Z" fill="#EFF7BF"/>
<path d="M204.481 332.772C200.986 329.827 200.9 325.197 200.456 320.648C200.013 316.099 199.672 311.212 196.815 307.645C193.222 303.159 184.03 299.385 184.431 296.042C187.95 294.157 194.981 299.211 199.384 302.284C202.857 304.708 205.492 308.421 208.084 311.769C212.078 316.927 215.221 323.675 215.849 330.16C216.063 332.366 214.316 338.801 211.928 339.308C207.943 340.156 205.795 333.88 204.481 332.772Z" fill="#EFF7BF"/>
<path d="M289.681 310.828C291.117 292.762 290.313 276.536 269.405 267.322C252.577 259.907 222.434 263.187 212.033 276.536C204.528 286.17 204.915 300.031 205.509 312.306C217.838 322.466 220.789 338.077 221.477 353.444C224.228 357.209 227.193 360.825 230.341 364.237C232.538 366.62 234.974 369.025 238.107 369.861C243.099 371.193 248.139 368.191 252.32 365.152C255.54 362.812 258.674 360.291 261.72 357.664C265.361 338.009 271.45 317.541 289.681 310.828Z" fill="#EFF7BF"/>
<path d="M261.719 357.664C273.937 347.134 284.259 334.305 288.332 318.873C289.028 316.234 289.466 313.542 289.68 310.83C271.448 317.541 265.36 338.009 261.719 357.664Z" fill="#D9E286"/>
<path d="M205.512 312.306C205.692 316.005 206.169 319.69 207.003 323.274C209.549 334.232 214.815 344.326 221.48 353.444C220.791 338.077 217.841 322.466 205.512 312.306Z" fill="#D9E286"/>
<path d="M444.389 273.641C444.617 274.54 444.777 275.681 444.025 276.224C443.686 276.469 443.246 276.512 442.828 276.528C440.07 276.631 437.287 275.879 434.956 274.403C432.978 273.149 431.356 271.415 429.759 269.702C424.463 264.021 419.169 258.341 413.873 252.66C413.261 252.003 412.625 251.301 412.431 250.424C411.953 248.252 414.258 246.616 416.083 245.343C421.46 241.59 424.953 235.786 428.957 230.595C431.568 227.209 436.734 220.668 441.48 220.363C447.775 219.96 442.984 230.669 442.422 234.522C440.524 247.522 441.17 260.898 444.389 273.641Z" fill="#7CA546"/>
<path d="M438.859 231.349C439.269 233.246 439.281 235.203 439.291 237.144C440.208 236.105 440.741 234.782 441.141 233.455C442.22 229.881 442.46 226.057 441.836 222.377C441.848 222.446 436.614 224.587 436.359 225.707C436.167 226.554 437.226 227.433 437.618 228.091C438.218 229.093 438.613 230.211 438.859 231.349Z" fill="#EFF7BF"/>
<path d="M445.008 226.672C445.354 228.27 445.364 229.921 445.372 231.556C446.145 230.68 446.594 229.565 446.932 228.446C447.841 225.434 448.043 222.211 447.518 219.109C447.527 219.167 443.117 220.972 442.902 221.917C442.74 222.631 443.633 223.372 443.964 223.926C444.467 224.772 444.801 225.713 445.008 226.672Z" fill="#EFF7BF"/>
<path d="M442.45 266.784C443.077 264.873 443.301 262.857 443.521 260.858C444.355 262.028 444.76 263.449 445.031 264.861C445.757 268.661 445.593 272.626 444.553 276.352C444.573 276.284 439.41 273.512 439.269 272.329C439.161 271.434 440.348 270.643 440.823 270.008C441.546 269.04 442.075 267.93 442.45 266.784Z" fill="#EFF7BF"/>
<path d="M422.185 234.367C423.047 232.202 423.406 229.849 424.409 227.746C426.847 222.636 432.483 220.017 437.69 217.794C439.55 217 441.497 216.19 443.516 216.327C445.533 216.464 447.62 217.87 447.803 219.885C445.428 222.375 441.775 223.243 439.207 225.535C436.546 227.912 435.382 231.49 434.2 234.857C431.547 242.414 427.196 250.676 419.37 252.378C424.313 256.771 429.309 261.222 433.057 266.671C434.739 269.116 436.411 271.946 439.256 272.791C441.152 273.354 443.184 272.891 445.105 272.421C446.471 273.899 446.097 276.452 444.66 277.863C443.223 279.274 441.043 279.687 439.042 279.47C431.909 278.694 427.585 271.538 422.235 266.757C417.256 262.306 410.701 259.657 404.028 259.397C403.465 255.567 403.209 251.145 404.069 247.334C404.968 243.352 405.485 244.136 409.212 243.761C414.776 243.203 420.084 239.637 422.185 234.367Z" fill="#9DD15A"/>
<path d="M411.771 193.433C412.17 193.674 412.63 194.025 412.555 194.484C412.521 194.691 412.378 194.863 412.235 195.016C411.288 196.027 410.029 196.745 408.674 197.041C407.524 197.294 406.332 197.248 405.156 197.202C401.257 197.049 397.358 196.895 393.459 196.741C393.008 196.723 392.532 196.699 392.153 196.453C391.214 195.847 391.458 194.448 391.658 193.348C392.25 190.107 391.443 186.8 391.035 183.532C390.769 181.399 390.299 177.238 391.884 175.45C393.988 173.08 396.067 178.595 397.23 180.17C401.152 185.48 406.115 190.024 411.771 193.433Z" fill="#7CA546"/>
<path d="M394.842 180.296C395.66 180.827 396.356 181.521 397.047 182.21C397.007 181.514 396.728 180.855 396.402 180.239C395.522 178.582 394.255 177.132 392.731 176.04C392.76 176.06 391.65 178.675 391.956 179.165C392.187 179.536 392.875 179.475 393.248 179.571C393.814 179.717 394.352 179.976 394.842 180.296Z" fill="#EFF7BF"/>
<path d="M395.381 176.452C396.069 176.9 396.658 177.485 397.239 178.066C397.205 177.48 396.97 176.924 396.695 176.405C395.955 175.008 394.886 173.787 393.601 172.866C393.625 172.883 392.69 175.088 392.947 175.501C393.142 175.813 393.723 175.762 394.037 175.842C394.516 175.964 394.968 176.183 395.381 176.452Z" fill="#EFF7BF"/>
<path d="M408.656 191.671C408.204 190.767 407.571 189.968 406.941 189.178C407.653 189.3 408.3 189.664 408.896 190.072C410.499 191.171 411.844 192.645 412.79 194.341C412.773 194.31 409.95 195.147 409.48 194.776C409.126 194.495 409.268 193.793 409.214 193.397C409.13 192.796 408.927 192.213 408.656 191.671Z" fill="#EFF7BF"/>
<path d="M389.957 187.272C389.499 186.193 388.795 185.228 388.409 184.123C387.471 181.436 388.556 178.508 389.628 175.873C390.01 174.932 390.419 173.954 391.188 173.29C391.956 172.624 393.198 172.388 393.976 173.042C394.01 174.771 393.012 176.372 392.907 178.099C392.798 179.889 393.649 181.577 394.418 183.197C396.144 186.832 397.514 191.32 395.324 194.696C398.642 194.514 401.999 194.336 405.264 194.954C406.728 195.231 408.327 195.649 409.641 194.944C410.517 194.474 411.079 193.59 411.597 192.743C412.607 192.788 413.377 193.829 413.363 194.841C413.35 195.853 412.718 196.771 411.927 197.402C409.107 199.648 405.033 198.624 401.433 198.81C398.082 198.983 394.805 200.357 392.331 202.626C390.775 201.458 389.119 199.971 388.079 198.307C386.991 196.568 387.453 196.665 388.65 195.213C390.44 193.046 391.073 189.895 389.957 187.272Z" fill="#9DD15A"/>
<path d="M361.359 392.208C361.167 392.838 360.845 393.591 360.188 393.645C359.893 393.671 359.609 393.535 359.35 393.391C357.635 392.442 356.217 390.964 355.341 389.21C354.596 387.722 354.247 386.072 353.903 384.443C352.766 379.045 351.629 373.647 350.492 368.248C350.36 367.624 350.23 366.963 350.435 366.359C350.942 364.862 352.945 364.712 354.521 364.607C359.168 364.297 363.423 362.047 367.764 360.359C370.595 359.258 376.137 357.174 379.137 358.73C383.115 360.795 376.271 365.552 374.514 367.689C368.589 374.901 364.075 383.274 361.359 392.208Z" fill="#7CA546"/>
<path d="M373.516 364.453C373.069 365.758 372.358 366.952 371.652 368.137C372.593 367.841 373.401 367.231 374.132 366.571C376.099 364.793 377.648 362.554 378.619 360.087C378.601 360.133 374.632 359.516 374.065 360.104C373.637 360.548 373.959 361.471 373.956 362.016C373.953 362.846 373.783 363.671 373.516 364.453Z" fill="#EFF7BF"/>
<path d="M378.969 363.864C378.593 364.964 377.994 365.97 377.398 366.969C378.191 366.72 378.872 366.206 379.488 365.649C381.146 364.149 382.452 362.264 383.27 360.184C383.254 360.222 379.909 359.702 379.431 360.198C379.071 360.573 379.342 361.351 379.339 361.81C379.337 362.508 379.194 363.204 378.969 363.864Z" fill="#EFF7BF"/>
<path d="M362.694 387.327C363.777 386.394 364.652 385.251 365.519 384.114C365.597 385.132 365.323 386.145 364.969 387.103C364.016 389.681 362.461 392.033 360.461 393.919C360.498 393.884 358.375 390.304 358.722 389.532C358.985 388.949 359.996 388.903 360.519 388.69C361.317 388.367 362.045 387.885 362.694 387.327Z" fill="#EFF7BF"/>
<path d="M362.261 360.172C363.58 359.172 364.661 357.871 366.043 356.96C369.401 354.745 373.79 355.22 377.774 355.779C379.197 355.978 380.678 356.2 381.855 357.024C383.033 357.847 383.786 359.468 383.159 360.761C380.8 361.405 378.26 360.591 375.857 361.044C373.366 361.514 371.345 363.263 369.391 364.878C365.004 368.502 359.327 371.932 353.94 370.096C355.336 374.582 356.742 379.122 357.022 383.813C357.148 385.916 357.128 388.253 358.548 389.81C359.495 390.848 360.901 391.312 362.242 391.731C362.53 393.132 361.367 394.547 359.975 394.878C358.583 395.209 357.105 394.662 355.967 393.794C351.912 390.704 351.907 384.766 350.408 379.894C349.011 375.36 345.996 371.343 342.031 368.737C343.094 366.2 344.56 363.416 346.482 361.414C348.491 359.322 348.518 359.989 350.921 361.127C354.513 362.828 359.049 362.606 362.261 360.172Z" fill="#9DD15A"/>
<path d="M424.312 344.445C424.12 345.076 423.799 345.829 423.142 345.883C422.846 345.908 422.562 345.773 422.302 345.629C420.587 344.68 419.169 343.201 418.293 341.448C417.548 339.959 417.199 338.31 416.856 336.681C415.719 331.283 414.581 325.884 413.445 320.486C413.313 319.861 413.183 319.201 413.388 318.597C413.895 317.1 415.898 316.95 417.475 316.846C422.121 316.536 426.376 314.286 430.717 312.597C433.549 311.496 439.09 309.412 442.09 310.968C446.068 313.033 439.224 317.79 437.468 319.927C431.542 327.139 427.028 335.513 424.312 344.445Z" fill="#7CA546"/>
<path d="M436.469 316.692C436.023 317.997 435.312 319.191 434.605 320.376C435.546 320.079 436.354 319.471 437.085 318.81C439.053 317.032 440.602 314.794 441.572 312.326C441.554 312.372 437.585 311.755 437.018 312.343C436.59 312.788 436.912 313.711 436.91 314.255C436.906 315.084 436.737 315.911 436.469 316.692Z" fill="#EFF7BF"/>
<path d="M441.922 316.101C441.546 317.201 440.947 318.208 440.352 319.207C441.144 318.957 441.826 318.444 442.442 317.886C444.099 316.388 445.405 314.502 446.223 312.421C446.207 312.46 442.863 311.94 442.385 312.436C442.024 312.811 442.295 313.589 442.293 314.048C442.29 314.747 442.148 315.443 441.922 316.101Z" fill="#EFF7BF"/>
<path d="M425.647 339.565C426.73 338.632 427.605 337.488 428.473 336.352C428.55 337.37 428.277 338.383 427.922 339.341C426.97 341.919 425.413 344.271 423.414 346.157C423.452 346.121 421.328 342.542 421.675 341.77C421.938 341.187 422.95 341.141 423.472 340.928C424.269 340.606 424.998 340.124 425.647 339.565Z" fill="#EFF7BF"/>
<path d="M425.213 312.409C426.532 311.41 427.613 310.109 428.995 309.198C432.353 306.983 436.742 307.457 440.726 308.016C442.149 308.216 443.63 308.438 444.807 309.262C445.985 310.085 446.738 311.706 446.111 312.999C443.752 313.642 441.212 312.829 438.809 313.282C436.317 313.751 434.296 315.501 432.343 317.116C427.957 320.74 422.277 324.169 416.892 322.334C418.287 326.82 419.692 331.36 419.974 336.051C420.1 338.154 420.08 340.49 421.501 342.048C422.447 343.086 423.853 343.55 425.195 343.968C425.483 345.37 424.32 346.784 422.928 347.116C421.537 347.446 420.058 346.899 418.92 346.032C414.866 342.943 414.86 337.004 413.361 332.132C411.965 327.598 408.949 323.581 404.984 320.975C406.047 318.438 407.514 315.654 409.435 313.652C411.444 311.56 411.471 312.227 413.874 313.365C417.465 315.067 422.001 314.844 425.213 312.409Z" fill="#8DB75C"/>
<path d="M348.761 161.547C349.308 161.915 349.934 162.442 349.795 163.086C349.732 163.377 349.519 163.608 349.306 163.815C347.896 165.177 346.068 166.101 344.135 166.425C342.494 166.701 340.814 166.553 339.157 166.404C333.661 165.913 328.166 165.421 322.672 164.929C322.037 164.872 321.367 164.803 320.849 164.431C319.566 163.509 320.008 161.549 320.369 160.011C321.432 155.477 320.527 150.75 320.181 146.106C319.956 143.075 319.584 137.166 321.95 134.755C325.086 131.555 327.634 139.491 329.164 141.795C334.327 149.57 341.014 156.336 348.761 161.547Z" fill="#7CA546"/>
<path d="M325.779 141.804C326.896 142.612 327.83 143.642 328.757 144.663C328.748 143.678 328.404 142.726 327.985 141.834C326.861 139.433 325.173 137.297 323.097 135.646C323.136 135.678 321.383 139.293 321.782 140.005C322.082 140.545 323.058 140.506 323.579 140.669C324.369 140.915 325.108 141.32 325.779 141.804Z" fill="#EFF7BF"/>
<path d="M326.806 136.415C327.748 137.096 328.535 137.964 329.316 138.826C329.31 137.996 329.018 137.193 328.665 136.441C327.717 134.417 326.295 132.617 324.546 131.226C324.578 131.251 323.102 134.299 323.436 134.9C323.689 135.355 324.512 135.322 324.95 135.459C325.619 135.667 326.242 136.006 326.806 136.415Z" fill="#EFF7BF"/>
<path d="M344.483 158.841C343.908 157.532 343.07 156.361 342.238 155.199C343.234 155.423 344.122 155.981 344.935 156.599C347.122 158.263 348.917 160.439 350.134 162.903C350.111 162.857 346.067 163.841 345.431 163.283C344.95 162.861 345.202 161.88 345.151 161.318C345.075 160.462 344.828 159.625 344.483 158.841Z" fill="#EFF7BF"/>
<path d="M318.389 151.312C317.818 149.758 316.892 148.343 316.425 146.756C315.29 142.896 317.028 138.838 318.727 135.192C319.333 133.889 319.979 132.538 321.111 131.652C322.242 130.767 324.014 130.52 325.066 131.498C324.991 133.943 323.471 136.133 323.201 138.564C322.921 141.084 324.003 143.528 324.975 145.869C327.157 151.123 328.776 157.557 325.444 162.17C330.143 162.148 334.895 162.133 339.463 163.235C341.511 163.73 343.739 164.433 345.644 163.53C346.914 162.929 347.769 161.72 348.562 160.56C349.986 160.694 350.999 162.22 350.908 163.648C350.817 165.076 349.861 166.328 348.7 167.163C344.56 170.137 338.879 168.405 333.782 168.415C329.039 168.423 324.314 170.132 320.662 173.161C318.548 171.402 316.314 169.185 314.961 166.763C313.548 164.23 314.193 164.399 315.986 162.434C318.663 159.499 319.779 155.096 318.389 151.312Z" fill="#8DB75C"/>
<path d="M322.257 350.404C322.066 351.035 321.744 351.788 321.087 351.842C320.792 351.867 320.507 351.732 320.247 351.588C318.532 350.639 317.114 349.16 316.238 347.407C315.494 345.918 315.144 344.269 314.801 342.64C313.664 337.242 312.527 331.843 311.39 326.445C311.258 325.82 311.129 325.16 311.333 324.556C311.84 323.059 313.843 322.909 315.419 322.804C320.065 322.494 324.32 320.244 328.661 318.556C331.493 317.455 337.034 315.371 340.034 316.927C344.012 318.992 337.168 323.749 335.412 325.886C329.488 333.098 324.974 341.472 322.257 350.404Z" fill="#7CA546"/>
<path d="M334.414 322.651C333.968 323.956 333.257 325.15 332.551 326.335C333.491 326.038 334.3 325.43 335.03 324.769C336.998 322.991 338.547 320.753 339.518 318.285C339.499 318.331 335.53 317.714 334.964 318.302C334.536 318.747 334.857 319.669 334.855 320.214C334.851 321.043 334.682 321.869 334.414 322.651Z" fill="#EFF7BF"/>
<path d="M339.868 322.06C339.491 323.16 338.892 324.167 338.297 325.166C339.09 324.916 339.771 324.403 340.387 323.845C342.045 322.346 343.35 320.461 344.169 318.38C344.153 318.419 340.808 317.899 340.33 318.395C339.969 318.77 340.24 319.548 340.238 320.007C340.237 320.706 340.094 321.402 339.868 322.06Z" fill="#EFF7BF"/>
<path d="M323.592 345.524C324.675 344.592 325.55 343.447 326.418 342.312C326.495 343.33 326.222 344.343 325.867 345.301C324.915 347.879 323.359 350.231 321.359 352.117C321.397 352.081 319.273 348.502 319.62 347.73C319.883 347.146 320.895 347.101 321.417 346.888C322.215 346.564 322.943 346.083 323.592 345.524Z" fill="#EFF7BF"/>
<path d="M323.158 318.368C324.477 317.369 325.558 316.068 326.94 315.157C330.298 312.942 334.687 313.416 338.671 313.975C340.094 314.175 341.575 314.397 342.753 315.221C343.93 316.044 344.683 317.665 344.056 318.958C341.697 319.601 339.157 318.788 336.754 319.241C334.264 319.71 332.241 321.46 330.288 323.075C325.902 326.699 320.224 330.128 314.837 328.293C316.233 332.779 317.638 337.319 317.92 342.009C318.045 344.113 318.025 346.449 319.446 348.007C320.392 349.045 321.798 349.509 323.14 349.927C323.428 351.329 322.265 352.743 320.873 353.075C319.482 353.405 318.003 352.858 316.865 351.991C312.811 348.901 312.805 342.963 311.306 338.091C309.91 333.557 306.894 329.54 302.93 326.934C303.992 324.397 305.459 321.613 307.381 319.611C309.389 317.519 309.416 318.186 311.82 319.324C315.41 321.026 319.948 320.803 323.158 318.368Z" fill="#9DD15A"/>
<path d="M247.378 169.372C247.113 169.591 246.815 169.896 246.92 170.222C246.967 170.37 247.09 170.479 247.211 170.576C248.01 171.211 249.007 171.596 250.026 171.666C250.891 171.725 251.755 171.563 252.607 171.402C255.431 170.867 258.257 170.332 261.081 169.796C261.408 169.735 261.752 169.665 262.001 169.445C262.619 168.902 262.29 167.909 262.025 167.129C261.244 164.831 261.472 162.333 261.414 159.907C261.376 158.324 261.267 155.241 259.918 154.109C258.128 152.61 257.211 156.855 256.535 158.128C254.254 162.424 251.13 166.274 247.378 169.372Z" fill="#7CA546"/>
<path d="M258.291 157.96C257.753 158.437 257.32 159.018 256.892 159.595C256.846 159.083 256.977 158.572 257.149 158.088C257.61 156.786 258.376 155.592 259.368 154.631C259.35 154.649 260.443 156.434 260.273 156.825C260.145 157.12 259.637 157.15 259.375 157.261C258.977 157.428 258.614 157.674 258.291 157.96Z" fill="#EFF7BF"/>
<path d="M257.483 155.218C257.029 155.62 256.665 156.11 256.305 156.596C256.266 156.165 256.376 155.735 256.52 155.327C256.909 154.229 257.555 153.222 258.391 152.412C258.375 152.427 259.296 153.932 259.153 154.261C259.046 154.51 258.617 154.535 258.397 154.627C258.062 154.769 257.756 154.977 257.483 155.218Z" fill="#EFF7BF"/>
<path d="M249.459 167.75C249.69 167.042 250.065 166.393 250.437 165.748C249.932 165.915 249.5 166.249 249.11 166.612C248.061 167.586 247.24 168.806 246.734 170.145C246.744 170.12 248.891 170.425 249.194 170.103C249.421 169.86 249.241 169.363 249.238 169.069C249.235 168.622 249.319 168.174 249.459 167.75Z" fill="#EFF7BF"/>
<path d="M262.608 162.515C262.825 161.68 263.234 160.9 263.395 160.053C263.787 157.993 262.679 155.977 261.611 154.173C261.23 153.528 260.827 152.86 260.194 152.459C259.562 152.057 258.631 152.02 258.136 152.581C258.299 153.845 259.199 154.903 259.463 156.15C259.737 157.442 259.3 158.765 258.915 160.03C258.051 162.866 257.539 166.285 259.502 168.508C257.065 168.735 254.599 168.97 252.286 169.775C251.249 170.135 250.13 170.615 249.095 170.243C248.405 169.996 247.9 169.413 247.431 168.851C246.699 168.994 246.251 169.837 246.371 170.572C246.491 171.308 247.051 171.91 247.696 172.283C249.995 173.615 252.852 172.426 255.497 172.172C257.958 171.935 260.695 173.163 263.115 175.337C264.122 174.316 264.595 171.681 265.174 170.356C265.778 168.97 265.452 169.091 264.422 168.163C262.883 166.776 262.081 164.548 262.608 162.515Z" fill="#9DD15A"/>
<path d="M232.677 273.321C234.951 274.566 237.46 275.38 240.033 275.71C241.027 275.837 242.042 275.891 243.029 275.718C243.926 275.561 244.782 275.221 245.593 274.806C249.331 272.895 252.174 269.31 253.181 265.234C253.341 264.585 253.457 263.904 253.313 263.251C253.169 262.601 252.779 262.036 252.398 261.489C250.977 259.451 249.556 257.415 248.137 255.377C247.412 254.337 246.514 253.196 245.251 253.119C244.323 253.062 243.475 253.611 242.724 254.158C239.523 256.483 224.438 268.808 232.677 273.321Z" fill="#9DD15A"/>
<path d="M259.033 331.19C259.303 329.663 258.65 326.663 256.522 323.711C255.926 322.911 255.481 322.575 255.101 322.356C255.112 322.361 255.099 322.361 255.108 322.364C255.334 322.6 255.58 322.888 255.659 323.003C255.686 323.039 255.707 323.062 255.701 323.099C255.921 323.414 256.093 323.741 256.215 324.026C256.726 325.322 256.251 326.304 255.903 326.913C255.036 328.408 254.049 330.001 251.812 330.855C252.991 329.402 253.333 327.562 253.17 325.445C247.306 322.945 240.122 322.906 234.338 325.483C234.118 327.714 234.4 329.632 235.643 331.095C233.445 330.329 232.478 328.79 231.624 327.371C231.309 326.885 230.958 326.252 231.116 325.29C230.262 326.243 229.621 327.311 229.324 328.336C228.273 331.383 231.038 333.139 231.326 335.826C231.578 338.894 231.765 342.331 230.343 345.633C229.461 347.802 228.367 349.948 229.609 351.455C229.77 351.632 229.929 351.778 230.125 351.929C230.187 351.771 230.26 351.599 230.319 351.463C231.425 348.871 232.577 345.871 235.264 343.3C234.075 345.56 233.7 347.777 233.826 349.951C234.073 349.807 234.334 349.691 234.633 349.635C240.432 348.35 246.68 348.229 252.544 349.362C252.598 347.249 252.218 345.111 251.074 342.982C253.804 345.491 254.972 348.574 256.066 351.271C256.103 351.385 256.135 351.523 256.217 351.649C257.055 350.936 257.61 350.151 257.761 349.178C257.916 348.166 257.598 347.071 257.392 345.963C256.775 342.647 255.689 338.091 257.107 335.712C257.979 334.261 258.727 332.764 259.033 331.19Z" fill="#5E4327"/>
<path d="M252.746 322.13C252.773 321.969 252.826 321.865 252.907 321.739C252.706 321.687 252.527 321.685 252.271 321.604C247.666 320.239 242.589 319.98 237.787 321.528C236.923 321.822 235.8 322.136 234.704 322.66C234.712 323.026 234.622 323.432 234.556 323.841C234.456 324.404 234.378 324.941 234.336 325.483C240.106 322.908 247.313 322.941 253.168 325.445C253.123 324.809 253.042 324.158 252.907 323.489C252.806 323.022 252.693 322.538 252.746 322.13Z" fill="white"/>
<path d="M255.657 323.002C255.568 322.888 255.331 322.605 255.105 322.363C255.305 322.594 255.522 322.85 255.697 323.099C255.679 323.06 255.692 323.042 255.657 323.002Z" fill="white"/>
<path d="M234.453 353.715C239.156 355.183 244.326 355.732 249.216 354.683C250.096 354.511 250.986 354.25 251.844 353.958C251.891 353.653 251.965 353.36 252.052 353.06C252.371 351.839 252.51 350.606 252.542 349.361C246.68 348.232 240.428 348.36 234.631 349.634C234.343 349.697 234.061 349.807 233.824 349.95C233.89 351.021 233.996 352.075 234.3 353.127C234.335 353.324 234.405 353.517 234.453 353.715Z" fill="white"/>
<path d="M233.282 350.737C233.333 350.491 233.419 350.221 233.646 350.02C233.706 349.984 233.78 349.98 233.826 349.951C233.718 347.787 234.048 345.564 235.263 343.3C232.572 345.869 231.421 348.871 230.319 351.463C230.275 351.597 230.194 351.775 230.125 351.929C230.833 352.486 231.818 352.911 232.863 353.267C232.997 352.432 233.075 351.582 233.282 350.737Z" fill="white"/>
<path d="M233.279 350.736C233.075 351.585 232.994 352.432 232.859 353.267C232.939 353.292 233.012 353.319 233.082 353.349C233.513 353.495 234.006 353.574 234.452 353.714C234.401 353.515 234.365 353.326 234.299 353.126C234.011 352.078 233.877 351.019 233.824 349.95C233.761 349.984 233.699 349.981 233.645 350.019C233.391 350.218 233.32 350.488 233.279 350.736Z" fill="white"/>
<path d="M251.074 342.982C252.23 345.108 252.589 347.25 252.544 349.362C252.572 349.359 252.598 349.368 252.624 349.373C252.9 349.422 253.21 349.497 253.371 349.676C253.496 349.816 253.537 350.001 253.538 350.169C253.6 351.022 253.677 351.874 253.752 352.727C253.773 352.892 253.793 353.031 253.809 353.162C254.742 352.72 255.555 352.209 256.217 351.649C256.166 351.522 256.108 351.384 256.066 351.271C254.981 348.578 253.804 345.492 251.074 342.982Z" fill="white"/>
<path d="M251.844 353.958C252.524 353.727 253.173 353.455 253.808 353.163C253.804 353.035 253.767 352.888 253.751 352.728C253.704 351.877 253.63 351.028 253.537 350.17C253.516 350.004 253.513 349.823 253.37 349.677C253.198 349.499 252.9 349.416 252.623 349.374C252.597 349.369 252.572 349.366 252.543 349.363C252.511 350.607 252.368 351.841 252.053 353.062C251.975 353.359 251.901 353.656 251.844 353.958Z" fill="white"/>
<path d="M231.626 327.371C232.476 328.792 233.435 330.328 235.645 331.095C234.4 329.626 234.138 327.704 234.34 325.483C234.201 325.533 234.095 325.611 233.969 325.669C233.685 325.804 233.387 325.941 233.227 325.918C233.103 325.902 233.087 325.785 233.052 325.658C232.957 325.051 232.873 324.451 232.787 323.86C232.781 323.827 232.777 323.811 232.768 323.786C232.139 324.226 231.63 324.74 231.119 325.29C230.932 326.25 231.324 326.879 231.626 327.371Z" fill="white"/>
<path d="M234.706 322.66C234.034 322.968 233.372 323.345 232.766 323.784C232.774 323.81 232.786 323.826 232.784 323.858C232.858 324.446 232.972 325.053 233.049 325.656C233.078 325.77 233.085 325.901 233.224 325.917C233.408 325.94 233.678 325.793 233.966 325.667C234.105 325.606 234.211 325.522 234.338 325.482C234.385 324.943 234.442 324.403 234.558 323.84C234.632 323.432 234.702 323.028 234.706 322.66Z" fill="white"/>
<path d="M255.099 322.357C255.083 322.335 255.054 322.302 255.016 322.277C255.052 322.306 255.072 322.325 255.097 322.354C255.099 322.36 255.083 322.357 255.099 322.357Z" fill="white"/>
<path d="M255.107 322.364C255.098 322.361 255.095 322.36 255.101 322.357C255.109 322.349 255.109 322.355 255.098 322.354C255.106 322.355 255.109 322.365 255.107 322.364Z" fill="white"/>
<path d="M254.655 325.519C254.587 325.671 254.49 325.818 254.261 325.818C253.996 325.814 253.636 325.634 253.25 325.481C253.211 325.471 253.195 325.458 253.17 325.445C253.316 327.565 253.004 329.395 251.812 330.855C254.052 330.005 255.024 328.405 255.903 326.913C256.245 326.302 256.727 325.317 256.215 324.027C256.101 323.739 255.925 323.415 255.701 323.1C255.783 323.255 255.807 323.385 255.777 323.481C255.582 324.492 255.092 324.627 254.655 325.519Z" fill="white"/>
<path d="M252.907 321.74C252.839 321.861 252.767 321.977 252.746 322.131C252.683 322.538 252.826 323.019 252.907 323.488C253.033 324.161 253.103 324.809 253.168 325.444C253.179 325.454 253.224 325.466 253.248 325.48C253.61 325.647 253.99 325.811 254.259 325.817C254.485 325.82 254.595 325.671 254.653 325.518C255.086 324.622 255.577 324.492 255.774 323.479C255.797 323.394 255.788 323.255 255.698 323.098C255.514 322.839 255.326 322.589 255.106 322.362C255.097 322.362 255.094 322.353 255.097 322.352C254.467 322.013 253.875 321.979 252.907 321.74Z" fill="white"/>
<path d="M260.132 301.949C264.964 296.078 274.476 296.306 279.784 290.861C281.738 292.593 282.104 295.607 281.362 298.111C280.619 300.614 278.97 302.733 277.356 304.786C276.073 306.417 274.774 308.063 273.165 309.373C270.88 311.232 268.071 312.326 265.241 313.147C255.676 315.913 255.286 307.837 260.132 301.949Z" fill="#D9E286"/>
<path d="M255.727 311.04C256.104 312.404 260.226 317.328 265.778 315.791C271.33 314.253 276.211 306.835 275.833 305.471C275.456 304.107 270.648 304.247 265.096 305.785C259.544 307.322 255.348 309.675 255.727 311.04Z" fill="#FF0B06"/>
<path d="M230.052 301.949C225.22 296.078 215.707 296.306 210.399 290.861C208.445 292.593 208.079 295.607 208.821 298.111C209.564 300.614 211.214 302.733 212.828 304.786C214.111 306.417 215.408 308.063 217.019 309.373C219.303 311.232 222.112 312.326 224.943 313.147C234.508 315.913 234.897 307.837 230.052 301.949Z" fill="#D9E286"/>
<path d="M234.463 311.04C234.085 312.404 229.963 317.328 224.411 315.791C218.859 314.253 213.979 306.835 214.356 305.471C214.734 304.107 219.542 304.247 225.094 305.785C230.645 307.322 234.84 309.675 234.463 311.04Z" fill="#FF0B06"/>
<path d="M247.705 317.4C248.336 317.411 249.005 317.412 249.539 317.077C250.072 316.742 250.358 315.937 249.94 315.466C249.773 315.278 249.53 315.177 249.294 315.087C247.265 314.306 245.1 313.791 242.927 313.892C240.755 313.995 238.569 314.757 236.999 316.263C236.871 316.386 236.743 316.522 236.695 316.692C236.272 318.216 239.797 317.31 240.398 317.267C242.795 317.1 245.302 317.357 247.705 317.4Z" fill="#D9E286"/>
<path d="M265.981 281.816C263.185 281.22 261.144 278.859 259.51 276.514C258.79 275.481 258.083 274.357 258.02 273.1C257.891 270.504 260.403 268.669 261.791 266.472C264.368 262.393 263.047 256.793 265.379 252.567C267.055 249.53 270.369 247.726 273.72 246.828C276.629 246.047 280.363 246.149 281.894 248.743C283.846 252.048 282.798 265.377 281.274 269.161C279.21 274.294 272.117 283.127 265.981 281.816Z" fill="#9DD15A"/>
<path d="M222.905 271.459C222.855 270.931 222.757 270.389 222.464 269.946C222.113 269.414 221.528 269.093 220.996 268.744C216.129 265.555 214.733 258.117 218.114 253.381C222.068 247.842 230.623 246.676 233.729 240.622C224.298 239.336 214.331 242.984 207.96 250.055C206.817 251.325 205.769 252.722 205.185 254.328C204.466 256.312 204.499 258.487 204.726 260.584C205.276 265.7 206.916 270.728 206.651 275.866C206.549 277.847 205.361 283.471 207.966 284.533C209.239 285.051 213.562 283.295 214.881 282.907C219.743 281.473 223.41 276.618 222.905 271.459Z" fill="#9DD15A"/>
<path d="M532.535 750.32C536.936 745.372 540.539 740.015 543.919 734.32C547.237 728.729 551.381 720.407 552.636 710.162C553.088 706.478 558.881 705.243 562.511 704.47C562.823 704.404 558.63 708.681 558.939 708.763C559.992 709.044 560.233 710.407 560.242 711.497C560.346 724.064 556.597 736.62 549.718 747.137C542.838 757.655 532.865 766.103 521.408 771.266C517.305 773.115 512.916 774.508 508.423 774.947C506.803 775.106 495.816 775.207 496.185 772.567C496.371 771.237 506.471 768.187 508.031 767.461C512.133 765.551 516.129 763.396 519.893 760.88C524.128 758.044 529.143 754.133 532.535 750.32Z" fill="#618725"/>
</svg>
