<svg width="1382" height="848" viewBox="0 0 1382 848" fill="none" xmlns="http://www.w3.org/2000/svg">
<path d="M1151.68 478.784C1148.63 479.024 1145.62 479.131 1142.63 479.172L1136.12 536.367L1151.68 478.784Z" fill="#738090"/>
<path d="M1115.25 465.625C1037.75 448.404 970.673 399.541 906.607 351.937C857.896 422.511 807.248 498.992 807.305 584.746C807.332 623.816 818.082 662.051 821.816 700.942C855.002 695.363 876.244 702.439 900.129 711.076C987.107 680.067 1071.3 645.946 1131.26 583.025C1150.38 559.782 1128.86 513.093 1115.25 465.625Z" fill="#87788E"/>
<path d="M1284.36 523.333C1278.73 512.709 1272.78 501.86 1263.54 494.158C1252.48 484.942 1237.92 481.231 1223.72 478.868C1191.91 473.577 1159.37 473.717 1127.61 468.153C1123.46 467.424 1119.35 466.536 1115.25 465.625C1128.86 513.094 1150.38 559.781 1131.26 583.025C1071.3 645.946 987.111 680.067 900.133 711.076C910.346 714.768 921.03 718.741 933.355 722.139C975.095 733.652 1022.04 729.5 1065.07 729.85C1094.56 730.089 1365.15 722.537 1382 721.008C1354.53 653.477 1318.54 587.727 1284.36 523.333Z" fill="#6A5E72"/>
<path d="M1082.23 424.415C1076.98 422.598 1071.63 420.33 1068.02 416.113C1064.72 412.271 1063.23 407.227 1060.52 402.95C1049.8 386 1025.66 386.4 1005.65 385.149C990.406 384.197 975.307 381.089 960.901 376.032C951.976 372.9 914.857 346.793 906.606 351.936C889.198 362.789 954.23 426.879 963.664 436.076C984.044 455.946 1008.83 470.59 1033.36 485.034C1062.03 501.926 1090.99 518.945 1122.59 529.368C1154.23 539.802 1188.29 543.593 1219.52 554.378L1313.89 497.616C1246.55 464.571 1153.01 448.916 1082.23 424.415Z" fill="#B8AFCB"/>
<path d="M1313.89 497.618L1219.52 554.38C1229.26 557.742 1238.74 561.765 1247.76 566.909C1280.23 585.411 1303.56 616.175 1325.95 646.098C1344.63 671.068 1363.32 696.04 1382 721.01C1363.58 664.459 1370.5 602.979 1314.54 497.925C1314.33 497.819 1314.1 497.723 1313.89 497.618Z" fill="#AEA7C4"/>
<path d="M1255.8 531.42C1267.29 554.533 1278.78 577.647 1290.26 600.76C1280.45 586.774 1263.34 580.234 1247.26 574.453C1206.94 559.956 1166.62 545.46 1126.3 530.964C1121.88 529.374 1117.45 527.784 1113.03 526.195C1094.22 519.431 1075.4 512.663 1057.05 504.736C1021.17 489.236 986.931 469.127 958.453 442.352C942.39 427.251 927.708 403.479 916.914 384.221C926.928 396.859 950.233 424.416 971.792 441.208C1032.63 488.602 1184.93 542.273 1255.8 531.42Z" fill="#E0DAEF"/>
<path d="M865.448 843.666C870.121 844.902 874.936 846.156 879.962 846.145C885.219 846.136 890.221 844.745 895.062 843.378C922.12 835.737 949.179 828.096 976.237 820.456C981.053 819.095 985.963 817.697 989.878 815.384C996.765 811.314 1055.42 793.439 1057.78 787.507C1066.01 766.84 976.316 628.505 951.507 617.604C942.713 613.74 916.593 638.617 906.4 636.852C888.417 633.737 869.517 637.751 852.225 642.284C827.696 648.713 803.838 656.283 780.881 664.918C773.871 667.556 766.584 670.54 762.93 675.323C759.975 679.192 759.82 683.718 759.942 688.06C760.669 714.093 769.173 740.163 784.936 763.991C804.599 793.717 821.48 832.044 865.448 843.666Z" fill="#6A5E72"/>
<path d="M849.895 735.009C863.233 758.651 867.729 820.253 872.606 845.202C846.011 845.877 819.417 846.551 792.823 847.226C787.783 847.354 782.495 847.45 777.981 846.004C768.58 842.996 766.759 835.112 762.057 829.081C750.81 814.657 721.681 810.556 696.574 811.062C671.467 811.567 482.395 810.413 467.06 792.682C458.904 783.252 486.773 658.486 512.088 648.932C532.51 641.225 525.947 617.089 534.883 612.737C537.852 611.291 541.714 610.899 545.407 610.586C618.886 604.359 694.855 612.034 762.209 631.785C837.39 653.832 823.582 688.364 849.895 735.009Z" fill="#87788E"/>
<path d="M827.76 687.524C739.325 649.882 598.427 672.44 529.609 620.331C530.42 615.432 532.888 612.884 539.158 610.277C598.053 585.796 792.16 587.141 802.401 596.321C836.769 627.128 951.507 617.605 951.507 617.605C951.507 617.605 932.158 653.492 907.337 660.421C899.141 662.709 829.895 688.432 827.76 687.524Z" fill="#B8AFCB"/>
<path opacity="0.25" d="M659.515 596.251C644.542 595.819 628.506 595.564 615.845 600.914C613.078 602.082 610.46 603.572 609.147 605.573C606.526 609.568 610.058 614.388 615.384 616.917C620.71 619.447 627.38 620.264 633.782 621.148C650.965 623.521 667.858 626.829 684.238 631.029C711.041 637.9 738.696 647.354 766.932 643.872C801.614 639.594 811.263 610.24 776.476 600.7C763.384 597.111 744.609 598.71 730.869 598.313C707.086 597.626 683.301 596.939 659.515 596.251Z" fill="white"/>
<path d="M478.015 533.453C482.152 527.031 489.288 501.954 489.258 494.531C480.274 489.289 468.536 490.79 459.149 486.201C451.526 482.48 440.562 490.179 432.17 489.068C419.921 507.24 405.601 526.816 379.96 540.59C358.108 552.34 335.635 553.619 318.799 559.281C315.78 560.301 310.739 561.72 304.809 563.439C303.398 565.113 302.204 566.886 301.303 568.836C298.019 575.916 299.573 584.287 303.499 591.363C307.395 598.43 313.469 604.487 319.474 610.429C332.664 623.411 346.043 636.327 359.559 649.116C362 651.452 367.419 657.742 369.219 660.44C378.517 674.409 379.288 677.924 385.846 680.749C392.445 683.54 395.411 684.118 402.705 684.244C414.861 684.454 418.016 684.152 430.164 684.274C435.141 684.313 435.625 684.779 439.378 682.076C444.574 678.322 441.684 671.811 438.47 666.566C435.065 660.991 436.371 655.339 429.402 653.297C422.058 651.133 413.893 651.551 406.829 648.796C395.207 644.294 389.903 633.006 384.034 623.336C378.339 614.018 371.21 605.364 362.903 597.663C359.925 594.883 356.63 591.946 356.182 588.213C355.418 581.491 364.093 577.418 371.504 575.757C392.099 571.197 414.006 571.455 434.233 565.831C454.447 560.198 473.77 546.09 474.379 527.372C475.583 529.419 476.811 531.431 478.015 533.453Z" fill="#372F3D"/>
<path d="M721.002 63.6785C734.482 63.1166 747.692 72.6012 754.87 86.3464C746.47 79.8513 735.328 77.2351 724.814 74.7228C723.685 73.1141 722.407 71.5525 720.91 70.0504C720.941 67.9261 720.971 65.8027 721.002 63.6785Z" fill="#5F5368"/>
<path d="M740.189 94.9116C746.98 91.973 755.293 94.8356 759.788 101.693C759.026 96.2276 757.299 91.0319 754.868 86.3465C746.472 79.8496 735.326 77.2386 724.813 74.7229C733.221 86.7432 732.007 101.905 732.334 117.023C728.056 114.969 723.75 110.759 717.431 110.856C726.316 134.301 711.865 156.041 694.578 166.816C692.393 160.387 698.776 151.794 692.307 145.376C679.645 169.029 649.053 179.538 623.028 176.524C631.712 176.784 631.894 168.203 638.41 166.225C625.359 170.204 612.344 171.901 601.113 182.161C601.257 177.874 601.333 175.736 603.637 171.536C602.812 171.499 602.015 171.513 601.228 171.587C592.171 172.3 585.027 179.122 581.949 187.396C582.665 187.767 583.368 188.069 584.042 188.272C594.071 192.154 605.331 184.576 615.473 183.898C615.567 183.866 615.654 183.822 615.749 183.792C621.041 182.174 627.065 185.057 627.94 190.078C633.989 187.931 636.278 194.483 640.576 198.276C640.113 199.64 639.589 200.957 639.041 202.208C674.28 198.486 709.065 193.084 743.539 187.095C743.539 187.052 743.558 187.03 743.558 186.987C743.602 187.007 743.648 187.03 743.691 187.069C743.698 187.069 743.705 187.069 743.712 187.069C745.057 186.817 746.381 186.588 747.727 186.359C745.291 182.654 748.372 177.608 747.413 172.358C746.5 167.536 749.456 153.105 751.341 144.264C751.919 147.059 752.179 149.943 752.076 152.802C759.974 145.26 762.78 131.927 759.979 120.483C757.178 109.062 749.382 99.6984 740.189 94.9116Z" fill="#51465B"/>
<path d="M614.554 130.908C614.864 135.078 615.273 139.175 616.866 142.982C611.947 144.333 606.463 143.329 602.261 140.321C599.016 138.02 594.15 132.155 594.835 127.571C601.656 125.656 609.128 126.077 614.554 130.908Z" fill="#E7E6E8"/>
<path d="M613.436 120.162C614.143 123.663 614.288 127.315 614.551 130.909C609.125 126.08 601.651 125.654 594.832 127.572C594.865 127.275 594.938 126.976 595.036 126.679C596.483 122.177 605.038 118.384 608.884 117.158C609.484 116.967 610.144 116.803 610.758 116.822C611.095 116.836 611.454 116.915 611.767 117.074C612.788 117.649 613.195 118.951 613.436 120.162Z" fill="#5F5368"/>
<path d="M601.947 142.647C604.988 145.626 609.267 152.771 607.213 157.173C606.48 157.163 605.769 157.135 605.059 157.108C599.616 156.871 594.146 156.578 588.705 156.3C588.376 156.284 588.079 156.27 587.758 156.255C587.825 155.06 587.918 153.882 588.029 152.684C588.485 147.578 589.094 142.497 587.941 137.57C593.008 137.086 598.235 138.995 601.947 142.647Z" fill="#E7E6E8"/>
<path d="M612.234 112.801C622.4 117.408 629.552 129.091 629.029 140.859C628.859 144.736 627.916 148.612 626.077 151.991C620.98 161.344 610.239 165.298 600.218 168.238C600.02 168.295 599.846 168.352 599.65 168.408C596.5 169.35 593.102 170.222 589.941 169.56C590.093 167.871 590.245 166.183 590.396 164.494C590.871 164.513 591.37 164.476 591.826 164.411C595.873 163.875 605.07 161.536 607.165 157.301C607.185 157.261 607.209 157.217 607.213 157.173C609.516 157.198 611.806 157.005 613.905 155.987C621.686 152.118 621.599 137.84 615.217 131.533C615.01 131.307 614.782 131.111 614.553 130.909C614.292 127.316 614.143 123.663 613.438 120.162C613.197 118.951 612.787 117.65 611.769 117.074C611.456 116.919 611.099 116.835 610.76 116.822C611.252 115.481 611.744 114.141 612.234 112.801Z" fill="#5F5368"/>
<path d="M601.23 171.586C600.891 170.471 600.553 169.354 600.216 168.239C600.018 168.296 599.843 168.348 599.647 168.408C596.494 169.346 593.102 170.227 589.939 169.56C589.36 169.425 588.782 169.248 588.226 169.006C583.491 166.952 581.85 161.712 580.026 156.466C576.703 157.033 572.456 159.291 569.528 162.037C568.537 162.967 566.611 164.452 566.201 165.199C564.34 174.675 575.61 175.564 581.949 187.395C585.026 179.12 592.172 172.301 601.23 171.586Z" fill="#5F5368"/>
<path d="M607.162 157.301C605.073 161.536 595.871 163.876 591.823 164.411C591.363 164.476 590.869 164.514 590.393 164.494C589.849 164.47 589.32 164.314 588.898 163.972C587.952 163.239 587.746 161.877 587.688 160.652C587.638 159.19 587.652 157.709 587.754 156.254C588.079 156.269 588.378 156.285 588.701 156.299C594.142 156.579 599.612 156.87 605.054 157.108C605.761 157.14 606.476 157.165 607.208 157.172C607.208 157.214 607.186 157.257 607.162 157.301Z" fill="#5F5368"/>
<path d="M587.513 152.637C584.927 146.203 585.598 138.955 584.703 132.063C586.888 130.823 589.085 129.685 591.361 128.74C592.486 128.279 593.65 127.879 594.834 127.571C594.152 132.156 599.013 138.015 602.261 140.321C606.464 143.331 611.943 144.335 616.866 142.981C615.277 139.174 614.859 135.079 614.554 130.907C614.785 131.104 615.007 131.31 615.218 131.531C621.599 137.842 621.688 152.118 613.906 155.985C611.808 157.004 609.517 157.192 607.214 157.171C609.264 152.762 604.991 145.627 601.948 142.645C598.236 138.993 593.007 137.084 587.942 137.567C589.097 142.498 588.487 147.576 588.03 152.682C587.857 152.67 587.684 152.653 587.513 152.637Z" fill="#372F3D"/>
<path d="M587.752 156.255C587.653 157.711 587.634 159.191 587.687 160.653C587.745 161.881 587.951 163.241 588.897 163.973C589.315 164.314 589.85 164.47 590.391 164.495C590.24 166.184 590.088 167.872 589.937 169.56C589.355 169.424 588.777 169.247 588.224 169.006C583.493 166.955 581.847 161.715 580.023 156.466C582.563 156.108 585.213 156.131 587.752 156.255Z" fill="#5F5368"/>
<path d="M540.104 98.0065C529.582 102.393 520.504 120.305 508.726 111.227C508.052 107.995 508.529 104.399 509.067 101.064C509.471 98.4749 510.091 95.5555 512.216 94.2823C513.404 93.5553 514.832 93.5195 516.181 93.4915C521.384 93.3762 526.563 93.2267 531.758 93.0921C533.04 93.0528 536.638 96.3462 537.97 97.0085C538.667 97.3756 539.384 97.7042 540.104 98.0065Z" fill="#61576D"/>
<path d="M530.745 127.87C529.968 128.417 529.106 128.964 528.186 128.963C527.737 128.977 527.295 128.859 526.882 128.657C525.738 124.84 525.284 120.747 525.628 116.686C525.89 113.653 526.7 110.403 528.814 108.595C530.371 107.264 532.398 106.922 534.196 106.146C537.532 104.692 540.137 101.68 542.926 99.0857C543.707 99.3732 544.52 99.5952 545.33 99.7935C549.425 100.778 553.317 100.486 550.082 106.33C545.296 114.92 538.654 122.351 530.745 127.87Z" fill="#372F3D"/>
<path d="M525.46 127.828C521.626 125.191 517.92 122.363 514.35 119.361C512.657 117.92 510.948 116.414 509.869 114.414C509.318 113.403 508.945 112.342 508.723 111.228C520.503 120.302 529.572 102.392 540.101 98.0068C541.027 98.4079 541.974 98.7715 542.926 99.0878C540.143 101.684 537.531 104.691 534.196 106.148C532.399 106.931 530.372 107.262 528.815 108.597C526.698 110.404 525.895 113.656 525.628 116.688C525.283 120.744 525.738 124.839 526.882 128.659C526.382 128.451 525.91 128.14 525.46 127.828Z" fill="#372F3D"/>
<path d="M536.248 114.45C538.011 114.605 539.016 111.979 537.912 110.57C536.812 109.153 534.597 109.13 533.104 110.07C531.613 111.01 530.713 112.662 530.015 114.303C529.074 116.525 528.39 118.859 527.988 121.252C529.518 118.057 532.496 115.623 535.9 114.775L536.248 114.45Z" fill="#0B090C"/>
<path d="M737.302 164.81C736.474 171.354 732.985 177.526 727.751 181.628C727.417 179.338 726.385 177.151 724.819 175.428C719.746 186.858 709.64 196.032 697.561 200.063C700.159 195.152 701.573 189.64 701.684 184.1C698.312 186.997 694.191 189.05 689.806 190.008C690.039 187.759 690.269 185.515 690.502 183.271C688.088 184.659 685.355 185.507 682.57 185.743C682.977 181.935 681.655 177.965 679.039 175.127C695.541 166.132 711.858 156.941 727.972 147.557C731.966 145.236 735.722 142.892 736.855 148.487C737.853 153.389 737.926 159.854 737.302 164.81Z" fill="#51465B"/>
<path d="M599.699 134.504C601.569 138.137 605.383 140.572 609.284 140.645C610.679 140.666 612.38 140.119 612.698 138.672C612.858 137.959 612.612 137.195 612.348 136.495C611.685 134.627 611.04 132.737 610.376 130.87L609.828 130.136C609.671 130.291 609.388 130.279 609.164 130.221C606.619 129.571 604.112 128.253 601.538 128.633C600.975 128.715 600.394 128.883 599.941 129.241C598.501 130.378 598.818 132.814 599.699 134.504Z" fill="white"/>
<path d="M609.551 129.779L609.824 130.135C609.864 130.135 609.905 130.112 609.923 130.068C610.058 129.85 609.602 129.498 609.551 129.779Z" fill="white"/>
<path d="M593.027 147.412C593.712 149.966 595.238 152.301 597.382 153.65C599.525 155 602.301 155.258 604.549 154.115C604.827 153.977 605.105 153.818 605.258 153.534C605.43 153.229 605.439 152.842 605.407 152.479C605.202 149.76 603.791 147.273 601.974 145.355C598.445 141.644 590.631 138.561 593.027 147.412Z" fill="white"/>
<path d="M528.182 128.97C527.738 128.983 527.29 128.868 526.879 128.666C528.752 134.981 545.836 143.829 550.829 147.215C552.748 148.507 558.385 146.509 561.749 144.882C564.403 143.834 565.35 143.054 566.746 142.474C566.185 141.333 565.745 140.167 565.588 139.013C563.093 136.709 561.2 134.322 561.369 131.955C549.262 135.077 550.472 133.687 554.679 132.549C555.08 132.429 555.521 132.33 555.963 132.23C556.022 132.206 556.103 132.183 556.183 132.18C557.829 131.807 559.72 131.534 561.397 131.568C561.84 128.229 561.449 126.053 560.62 124.705C560.557 124.621 560.513 124.537 560.43 124.454C545.545 129.205 554.651 120.513 559.326 123.372C559.573 123.536 559.821 123.721 560.031 123.951C560.177 124.097 560.323 124.264 560.43 124.454L560.45 124.453C565.352 122.885 572.856 119.864 583.985 114.499C592.526 110.416 602.502 108.906 611.257 112.369C611.585 112.531 611.891 112.628 612.24 112.81C622.404 117.409 629.554 129.096 629.028 140.849C628.866 144.738 627.914 148.608 626.079 151.99C620.974 161.353 610.246 165.289 600.214 168.239C600.552 169.345 600.89 170.471 601.227 171.576C602.013 171.509 602.821 171.505 603.63 171.545C601.335 175.736 601.26 177.883 601.109 182.158C612.349 171.898 625.37 170.208 638.42 166.221C631.895 168.203 631.715 176.791 623.019 176.524C649.056 179.538 679.645 169.023 692.31 145.372C698.773 151.802 692.39 160.389 694.589 166.823C711.854 156.033 726.316 134.301 717.428 110.866C723.75 110.757 728.062 114.957 732.328 117.014C732.002 101.897 733.231 86.7326 724.818 74.7193C723.677 73.1237 722.416 71.5535 720.915 70.0549C720.95 67.9298 720.966 65.8048 721.001 63.6796C725.044 60.4858 729.603 58.3072 734.364 57.3871C725.939 50.8675 715.139 49.2275 705.718 52.9945C705.379 53.1335 705 53.2959 704.661 53.4348C704.936 51.8812 705.233 50.3495 705.508 48.8168C691.789 44.9064 677.612 43.8428 663.642 45.5197C652.973 46.7937 642.415 49.6949 632.31 54.1915C633.362 50.3179 635.559 46.9031 638.404 44.7771C626.535 44.5001 614.718 52.4614 608.535 64.8609C607.97 62.2822 607.385 59.6826 606.779 57.1049C595.801 60.8343 586.762 69.7177 585.893 83.434C585.759 85.6055 582.371 87.126 581.396 86.9634C566.994 87.1295 555.02 90.6326 550.448 92.4257C548.372 93.2409 544.665 97.4753 542.936 99.0945C543.712 99.3706 544.528 99.6031 545.322 99.7936C549.434 100.782 553.324 100.49 550.091 106.34C545.305 114.92 538.644 122.335 530.753 127.858C529.963 128.421 529.111 128.963 528.182 128.97Z" fill="#5F5368"/>
<path d="M554.679 132.549C550.471 133.687 549.261 135.077 561.369 131.955C561.366 131.87 561.363 131.762 561.38 131.676C561.38 131.655 561.379 131.612 561.398 131.589C559.74 131.554 557.849 131.828 556.183 132.18C556.103 132.183 556.022 132.206 555.963 132.23C555.52 132.329 555.08 132.451 554.679 132.549Z" fill="#5F5368"/>
<path d="M559.326 123.372C554.651 120.513 545.545 129.206 560.431 124.454C560.324 124.264 560.177 124.096 560.031 123.951C559.802 123.722 559.574 123.536 559.326 123.372Z" fill="#5F5368"/>
<path d="M555.963 132.23C555.522 132.33 555.081 132.429 554.68 132.549C555.082 132.451 555.522 132.33 555.963 132.23Z" fill="#5F5368"/>
<path d="M559.328 123.372C559.575 123.536 559.803 123.722 560.033 123.951C559.823 123.721 559.575 123.536 559.328 123.372Z" fill="#5F5368"/>
<path d="M556.188 132.18C557.854 131.828 559.745 131.555 561.402 131.589L561.401 131.567C559.724 131.534 557.833 131.808 556.188 132.18Z" fill="#5F5368"/>
<path d="M560.434 124.454C560.517 124.537 560.56 124.622 560.623 124.705C560.56 124.622 560.517 124.537 560.454 124.453L560.434 124.454Z" fill="#5F5368"/>
<path d="M560.453 124.453C560.516 124.537 560.56 124.621 560.623 124.705C561.452 126.053 561.842 128.229 561.4 131.568C561.804 131.556 562.189 131.587 562.575 131.639L562.595 131.638C566.783 130.522 572.411 128.932 579.818 126.686C580.077 126.592 580.338 126.519 580.599 126.468C581.322 126.317 582.069 126.294 582.707 126.66C583.754 127.228 584.119 128.547 584.358 129.742C584.482 130.51 584.607 131.279 584.712 132.07C586.896 130.822 589.083 129.682 591.358 128.732C592.495 128.268 593.655 127.889 594.837 127.573C594.869 127.272 594.939 126.969 595.032 126.687C596.489 122.179 605.039 118.374 608.881 117.162C609.482 116.971 610.143 116.801 610.77 116.824C611.254 115.479 611.738 114.134 612.243 112.809C611.894 112.627 611.587 112.529 611.26 112.368C602.505 108.905 592.529 110.415 583.988 114.498C572.859 119.864 565.355 122.885 560.453 124.453Z" fill="#5F5368"/>
<path d="M561.37 131.955C561.2 134.321 563.093 136.708 565.589 139.013C565.415 137.967 565.465 136.957 565.778 136.004C566.297 134.464 566.082 133.42 565.374 132.712C565.124 132.462 564.815 132.257 564.446 132.097C564.425 132.076 564.426 132.098 564.426 132.098C563.893 131.857 563.243 131.726 562.533 131.663C562.512 131.642 562.513 131.664 562.513 131.664C562.112 131.761 561.731 131.858 561.37 131.955Z" fill="#5F5368"/>
<path d="M561.381 131.677C561.363 131.763 561.367 131.87 561.369 131.956C561.73 131.859 562.111 131.762 562.512 131.663C562.167 131.609 561.782 131.579 561.399 131.591C561.378 131.612 561.38 131.655 561.381 131.677Z" fill="#5F5368"/>
<path d="M561.398 131.568L561.4 131.59C561.783 131.578 562.168 131.609 562.513 131.663C562.513 131.663 562.512 131.641 562.533 131.662C562.533 131.662 562.552 131.64 562.572 131.639C562.187 131.587 561.802 131.556 561.398 131.568Z" fill="#5F5368"/>
<path d="M562.574 131.64C562.554 131.641 562.535 131.663 562.535 131.663C563.245 131.727 563.895 131.857 564.428 132.098C563.895 131.857 563.264 131.705 562.596 131.64H562.574Z" fill="#5F5368"/>
<path d="M579.817 126.686C572.41 128.932 566.782 130.522 562.594 131.639C563.262 131.704 563.894 131.857 564.426 132.097C564.426 132.097 564.425 132.076 564.446 132.096C564.815 132.256 565.124 132.462 565.374 132.711C566.083 133.419 566.297 134.463 565.779 136.003C565.465 136.957 565.415 137.967 565.589 139.013C566.545 139.884 567.603 140.774 568.66 141.6L568.68 141.599C574.191 138.832 579.35 135.133 584.711 132.07C584.605 131.279 584.481 130.511 584.356 129.742C584.118 128.548 583.753 127.229 582.705 126.66C582.068 126.294 581.321 126.317 580.598 126.468C580.317 126.542 580.076 126.593 579.817 126.686Z" fill="#5F5368"/>
<path d="M565.59 139.013C565.746 140.167 566.187 141.333 566.748 142.475C567.386 142.219 568.023 141.92 568.66 141.6C567.604 140.775 566.546 139.885 565.59 139.013Z" fill="#6A5E72"/>
<path d="M568.659 141.6C568.022 141.92 567.385 142.218 566.746 142.475C568.274 145.495 570.867 148.312 572.872 149.774C574.608 151.029 576.515 151.935 578.552 152.495C577.919 150.948 577.186 149.49 576.277 148.167C574.987 146.318 571.805 144.056 568.679 141.6H568.659Z" fill="#E7E6E8"/>
<path d="M568.68 141.6C571.806 144.056 574.988 146.318 576.278 148.167C577.187 149.49 577.92 150.948 578.553 152.495C581.468 153.327 584.582 153.403 587.509 152.647C584.925 146.204 585.59 138.952 584.711 132.071C579.351 135.134 574.192 138.832 568.68 141.6ZM573.276 142.552C573.053 140.585 574.637 138.862 576.372 138.121C578.107 137.402 580.005 137.343 581.808 136.838L582.462 137.074C583.881 139.841 584.783 142.903 585.101 146.004C585.187 146.817 585.213 147.653 584.852 148.372C584.375 149.31 583.279 149.773 582.267 149.718C581.255 149.663 580.291 149.199 579.407 148.69C578.09 147.937 576.831 147.053 575.648 146.081C574.549 145.173 573.443 144.027 573.276 142.552Z" fill="#E7E6E8"/>
<path d="M576.371 138.122C574.635 138.862 573.052 140.585 573.275 142.552C573.442 144.027 574.548 145.174 575.647 146.083C576.83 147.055 578.089 147.939 579.406 148.693C580.29 149.202 581.254 149.665 582.266 149.72C583.278 149.775 584.374 149.311 584.85 148.374C585.212 147.655 585.186 146.819 585.1 146.006C584.782 142.905 583.88 139.843 582.46 137.077L581.807 136.84C580.003 137.344 578.106 137.403 576.371 138.122Z" fill="white"/>
<path d="M587.51 152.647C584.584 153.403 581.47 153.327 578.555 152.495C579.1 153.787 579.566 155.124 580.031 156.461C582.565 156.104 585.213 156.129 587.763 156.265C587.827 155.062 587.912 153.879 588.036 152.674C587.855 152.679 587.692 152.641 587.51 152.647Z" fill="#372F3D"/>
<path d="M690.828 77.2751C697.069 82.5897 700.236 90.3388 700.836 97.9253C701.142 101.76 700.781 105.613 700.049 109.402C699.668 111.297 699.165 113.17 698.56 115.016C697.996 116.875 697.335 118.712 696.589 120.522C698.487 120.477 700.384 120.431 702.281 120.381C701.313 118.24 700.348 116.099 699.385 113.956C697.707 110.224 696.036 106.489 694.376 102.751C694.041 106.84 693.701 110.93 693.362 115.019C693.097 118.226 692.007 121.401 690.294 124.192C688.598 126.996 686.253 129.443 683.437 131.128C684.78 131.891 686.125 132.65 687.471 133.409C687.314 131.51 687.085 129.615 686.898 127.713C686.762 126.351 686.627 124.988 686.492 123.628C685.418 124.316 684.344 125.002 683.267 125.689C679.706 127.961 675.849 129.888 671.755 131.284C667.67 132.74 663.361 133.657 658.895 134.219C663.334 135.028 667.955 134.956 672.499 134.255C677.031 133.498 681.513 132.097 685.672 129.966C684.46 129.291 683.248 128.616 682.04 127.938C682.039 129.846 682.002 131.756 682.028 133.663C682.049 135.105 682.072 136.546 682.093 137.989C683.418 137.308 684.742 136.629 686.066 135.947C689.828 134.003 693.062 131.103 695.433 127.584C697.789 124.066 699.295 119.921 699.674 115.599C697.667 115.957 695.658 116.311 693.648 116.663C694.647 118.789 695.649 120.913 696.655 123.035C697.679 125.202 698.708 127.363 699.737 129.527C700.612 127.315 701.483 125.104 702.353 122.893C703.921 118.902 705.08 114.706 705.632 110.376C706.243 106.059 706.176 101.601 705.34 97.2821C704.503 92.9419 702.773 88.8253 700.307 85.3046C697.842 81.7945 694.569 78.8725 690.828 77.2751Z" fill="#7B6F84"/>
<path d="M640.581 81.8985C629.852 89.79 633.293 95.1867 627.466 100.085C624.682 102.432 610.289 100.523 610.292 100.508C610.289 100.507 610.116 96.4493 612.977 91.4485C617.459 83.647 632.821 81.383 640.581 81.8985Z" fill="#0B090C"/>
<path d="M917.955 493.667C912.57 492.845 909.139 491.647 905.498 487.947C905.008 487.463 904.62 486.874 904.304 486.202C903.804 487.586 903.582 489.052 904.121 490.33C904.64 491.59 905.829 492.525 907.05 493.318C909.54 494.938 912.372 496.204 915.392 497.063C916.079 497.268 916.969 497.393 917.48 496.872C917.757 496.581 917.805 496.177 917.828 495.81C917.88 495.092 917.92 494.382 917.955 493.667Z" fill="#453C4F"/>
<path d="M916.632 474.262C913.093 470.662 906.273 481.81 904.94 484.672C904.698 485.176 904.48 485.69 904.305 486.202C904.62 486.876 905.009 487.459 905.499 487.946C909.137 491.644 912.569 492.845 917.955 493.667C918.114 490.756 918.08 487.85 917.925 484.947C917.842 483.447 918.041 479.955 917.694 477.306C917.521 475.97 917.188 474.831 916.632 474.262Z" fill="#E7E6E8"/>
<path d="M910.634 464.295C904.319 470.365 901.635 480.797 904.304 486.201C904.481 485.692 904.7 485.173 904.939 484.671C906.274 481.808 913.094 470.664 916.631 474.261C917.189 474.825 917.514 475.967 917.693 477.306C918.29 477.206 918.887 477.105 919.484 477.004C919.011 473.175 918.31 469.356 918.167 465.504C914.485 464.066 911.958 463.021 910.634 464.295Z" fill="#372F3D"/>
<path d="M919.857 484.79C925.892 481.398 930.575 476.046 932.702 470.136C932.839 469.735 932.978 469.354 933.072 468.977C931.422 468.854 929.978 468.701 928.799 468.533C924.556 467.899 921.019 466.576 918.168 465.504C918.31 469.36 919.01 473.175 919.485 477.005C919.811 479.579 920.01 482.172 919.857 484.79Z" fill="#E7E6E8"/>
<path d="M925.839 498.521C930.465 499.916 935.845 500.647 937.276 496.011C933.237 495.274 928.649 494.918 924.733 494.502C924.619 494.975 924.506 495.423 924.412 495.889C924.27 496.561 924.135 497.345 924.593 497.865C924.892 498.204 925.368 498.386 925.839 498.521Z" fill="#453C4F"/>
<path d="M743.742 423.86C736.45 453.276 748.279 483.24 714.586 495.637C716.74 491.946 712.711 488.438 712.81 484.806C706.404 494.063 697.834 503.316 693.345 512.471C684.877 520.01 703.748 512.279 693.345 512.471C691.111 519.793 716.089 519.186 707.555 524.85C722.23 524.467 734.989 514.923 747.531 507.113C743.01 512.193 739.04 517.218 734.694 521.975C739.524 520.307 749.413 515.072 753.863 516.79C753.679 519.836 770.78 515.206 783.434 514.924C783.283 520.293 805.011 518.442 813.614 508.583C813.326 510.911 812.263 513.223 810.58 515.143C821.678 518.479 834.324 518.428 845.996 515.116C848.077 515.707 850.237 516.099 852.433 516.328C865.374 517.657 878.864 513.285 891.603 515.536C895.907 516.3 900.967 519.806 899.023 523.886C904.217 525.153 910.323 520.445 910.477 515.063C914.35 517.944 911.595 525.741 906.583 525.984C913.361 529.384 923.732 528.518 930.935 525.884C930.995 525.858 931.08 525.827 931.143 525.802C929.221 513.187 917.263 504.623 904.957 500.765C903.904 500.437 902.86 500.143 901.816 499.89C893.262 497.267 899.949 503.744 898.069 507.598C893.35 499.068 884.538 491.011 874.015 488.497C874.269 493.917 878.876 502.501 876.794 502.722C858.159 508.355 840.95 497.203 832.368 485.241C832.526 490.673 832.677 496.097 836.941 499.354C809.663 496.316 788.839 477.629 790.734 453.955C788.786 463.146 788.845 470.397 788.921 479.457C769.04 466.434 742.957 443.517 743.742 423.86Z" fill="#372F3D"/>
<path d="M930.211 461.853C929.188 461.306 918.608 458.514 918.342 460.831C918.159 462.4 918.127 463.965 918.169 465.506C921.018 466.579 924.554 467.901 928.8 468.535C929.976 468.704 931.423 468.855 933.072 468.979C933.881 465.921 933.239 463.557 930.211 461.853Z" fill="#453C4F"/>
<path d="M924.73 494.503C928.646 494.922 933.239 495.274 937.273 496.012C937.39 495.612 937.481 495.164 937.548 494.664C937.773 492.945 935.615 475.616 935.112 475.811C931.121 477.318 928.988 481.235 927.64 484.85C926.43 488.025 925.483 491.243 924.73 494.503Z" fill="#E7E6E8"/>
<path d="M904.957 500.764C917.263 504.626 929.222 513.182 931.143 525.801C933.468 524.928 935.461 523.899 936.865 522.763C940.022 520.246 942.752 517.322 945.75 514.413C948.75 511.521 952.532 509.268 951.573 505.421C950.371 500.68 945.387 498.171 940.71 496.814C940.491 496.756 940.279 496.692 940.065 496.648C939.73 497.441 939.299 498.19 938.654 498.842C936.949 500.534 934.197 500.975 931.723 501.18C922.96 501.896 913.884 501.189 906.494 497.799C905.984 498.787 905.471 499.776 904.957 500.764Z" fill="#453C4F"/>
<path d="M956.233 467.076C955.263 467.456 954.291 467.798 953.276 468.072C949.751 469.025 943.539 469.325 937.957 469.202C938.368 475.528 939.131 481.828 940.209 488.043C940.199 487.868 944.893 484.356 946.718 482.877C947.32 482.266 947.917 481.669 948.537 481.054C948.615 480.969 948.671 480.91 948.751 480.842C950.282 479.096 951.653 477.224 952.783 475.277C954.009 473.189 955.929 469.795 956.233 467.076Z" fill="#E7E6E8"/>
<path d="M935.114 475.811C935.62 475.612 937.775 492.941 937.55 494.664C937.485 495.166 937.393 495.612 937.274 496.012C938.237 496.206 939.179 496.407 940.063 496.648C940.225 496.281 940.363 495.899 940.48 495.518C941.485 492.508 942.037 489.353 943.763 486.549C944.582 485.232 945.619 484.052 946.717 482.877C944.89 484.356 940.195 487.867 940.208 488.043C939.134 481.824 938.369 475.531 937.956 469.202C936.246 469.166 934.575 469.085 933.071 468.978C932.974 469.353 932.838 469.732 932.701 470.137C930.571 476.05 925.894 481.397 919.856 484.791C920.008 482.171 919.807 479.584 919.483 477.006C918.886 477.106 918.288 477.207 917.691 477.307C918.039 479.957 917.839 483.447 917.922 484.948C918.075 487.859 918.111 490.754 917.953 493.668C919.565 493.9 921.34 494.109 923.332 494.34C923.775 494.391 924.241 494.442 924.731 494.504C925.485 491.24 926.431 488.033 927.641 484.851C928.991 481.231 931.119 477.321 935.114 475.811Z" fill="#372F3D"/>
<path d="M937.767 466.518C937.818 467.424 937.866 468.303 937.956 469.202C943.538 469.326 949.75 469.023 953.275 468.072C954.293 467.797 955.267 467.455 956.232 467.076C956.228 467.059 956.228 467.059 956.231 467.059C956.481 464.674 955.525 462.811 951.821 462.751C947.386 462.681 942.974 464.054 938.652 465.377C938.371 465.468 938.065 465.566 937.896 465.809C937.744 466.011 937.748 466.266 937.767 466.518Z" fill="#453C4F"/>
<path d="M951.825 462.751C955.527 462.813 956.484 464.674 956.234 467.058C956.576 466.931 956.916 466.776 957.258 466.616C958.028 464.683 958.753 462.755 959.601 460.827C954.984 462.022 950.316 459.678 945.694 458.715C936.196 456.715 926.218 455.191 916.352 457.123C906.491 459.078 896.681 465.244 893.75 473.882C890.897 482.401 895.565 491.411 903.438 496.187C904.416 496.779 905.434 497.33 906.495 497.798C913.884 501.19 922.959 501.894 931.724 501.179C934.198 500.973 936.954 500.529 938.655 498.841C939.302 498.192 939.727 497.44 940.065 496.647C939.186 496.402 938.239 496.208 937.277 496.011C935.845 500.646 930.465 499.915 925.841 498.521C925.37 498.388 924.891 498.205 924.595 497.865C924.135 497.344 924.274 496.56 924.413 495.889C924.504 495.424 924.621 494.972 924.734 494.503C924.25 494.439 923.779 494.393 923.335 494.338C921.344 494.108 919.565 493.899 917.956 493.666C917.918 494.383 917.885 495.093 917.829 495.809C917.811 496.176 917.759 496.581 917.482 496.871C916.97 497.389 916.08 497.267 915.393 497.062C912.373 496.206 909.541 494.941 907.052 493.317C905.831 492.521 904.643 491.593 904.123 490.329C903.582 489.052 903.806 487.59 904.305 486.201C901.633 480.799 904.318 470.365 910.635 464.295C911.958 463.02 914.485 464.069 918.169 465.505C918.126 463.967 918.157 462.401 918.342 460.83C918.608 458.513 929.192 461.308 930.211 461.852C933.239 463.555 933.881 465.922 933.072 468.977C934.578 469.082 936.25 469.163 937.958 469.201C937.867 468.302 937.818 467.42 937.768 466.517C937.746 466.268 937.748 466.012 937.898 465.808C938.068 465.567 938.369 465.467 938.654 465.376C942.978 464.055 947.391 462.682 951.825 462.751Z" fill="#453C4F"/>
<path d="M955.62 426.157C955.227 426.344 954.855 426.523 954.461 426.711C954.852 426.527 955.248 426.356 955.62 426.157Z" fill="#6A5E72"/>
<path d="M956.875 425.534C956.463 425.742 956.034 425.954 955.621 426.157C962.19 430.584 967.079 436.987 976.081 438.691C981.751 439.038 986.223 437.018 988.892 433.294C989.032 430.901 988.576 428.464 988.066 426.138C987.584 423.866 986.848 421.321 984.537 420.39C983.274 419.866 981.749 419.987 980.286 420.092C974.716 420.532 969.151 420.928 963.588 421.32C962.211 421.423 958.422 424.742 957.014 425.478C956.973 425.501 956.917 425.528 956.875 425.534Z" fill="#473F4F"/>
<path d="M965.403 452.419C966.25 452.818 967.159 453.229 968.168 453.145C969.237 453.057 970.199 452.431 971.075 451.842C972.792 450.664 974.483 449.474 976.145 448.246C978.407 446.581 980.622 444.878 982.786 443.109C984.564 441.634 986.376 440.109 987.482 438.211C988.419 436.651 988.804 434.988 988.895 433.294C986.231 437.012 981.753 439.034 976.085 438.691C967.083 436.99 962.195 430.584 955.624 426.157C955.252 426.358 954.859 426.526 954.465 426.711C954.01 426.904 953.561 427.118 953.105 427.294C952.474 427.568 951.861 427.807 951.224 428.023C950.549 428.268 949.853 428.496 949.175 428.704C944.806 429.991 940.637 430.122 944.217 435.038C949.528 442.274 956.807 448.273 965.403 452.419Z" fill="#372F3D"/>
<path d="M971.074 451.842C970.197 452.432 969.238 453.054 968.167 453.145C967.155 453.23 966.251 452.818 965.402 452.419C956.806 448.278 949.527 442.27 944.215 435.036C940.635 430.12 944.801 429.993 949.173 428.702C949.851 428.498 950.549 428.267 951.222 428.022C951.859 427.802 952.496 427.564 953.103 427.293C953.562 427.116 954.009 426.922 954.463 426.71C954.855 426.522 955.227 426.34 955.622 426.156C956.031 425.95 956.467 425.743 956.876 425.533C954.169 425.661 951.735 425.709 950.269 425.486C945.034 424.718 939.969 421.85 934.711 423.05C933.753 423.275 932.8 423.625 931.819 423.556C929.954 423.429 928.638 421.824 927.505 420.321C923.742 415.373 920.019 410.387 916.328 405.415C914.367 402.765 911.098 399.854 908.276 401.77C910.166 401.767 910.694 404.864 909.235 406.194C907.771 407.504 905.513 407.151 904.033 406.023C902.55 404.881 901.598 403.16 900.519 401.62C895.676 394.852 887.033 391.429 878.895 393.073C881.24 395.211 879.965 396.244 880.661 399.472C875.814 394.353 872.66 392.455 866.031 390.446C862.945 389.5 858.207 389.491 856.39 392.138C855.025 390.786 853.487 389.593 851.86 388.574C845.254 384.407 837.235 382.543 829.402 380.674C823.431 379.245 817.458 377.795 811.5 376.313C808.797 375.651 805.538 374.241 805.827 371.591C803.775 376.326 805.389 382.053 809.624 384.907C811.521 386.177 813.785 386.908 815.629 388.213C818.456 390.2 819.835 393.118 820.686 396.367C817.941 395.376 815.15 394.452 812.343 393.62C813.011 395.148 811.09 391.151 809.272 391.38C807.451 391.608 805.885 387.316 804.37 386.486C799.115 383.572 797.267 371.763 792.724 367.983C790.9 366.462 766.743 368.085 764.903 366.582C759.79 373.812 745.593 394.006 740.84 401.502C741.046 406.813 741.425 412.115 741.96 417.413C741.958 417.418 743.957 417.3 743.956 415.487C743.958 418.223 743.86 421.024 743.744 423.858C742.958 443.512 769.041 466.435 788.921 479.453C788.843 470.395 788.786 463.145 790.734 453.95C788.839 477.626 809.665 496.311 836.943 499.35C832.673 496.097 832.523 490.664 832.369 485.237C840.953 497.2 858.16 508.352 876.795 502.717C878.88 502.496 874.272 493.909 874.016 488.493C884.539 491.01 893.349 499.069 898.07 507.593C899.945 503.741 893.265 497.266 901.817 499.886C902.863 500.143 903.908 500.433 904.958 500.761C905.471 499.773 905.984 498.784 906.496 497.795C905.438 497.323 904.42 496.774 903.439 496.185C895.568 491.403 890.898 482.396 893.751 473.88C896.686 465.244 906.489 459.073 916.353 457.12C926.222 455.188 936.202 456.713 945.695 458.713C950.311 459.678 956.622 462.797 961.241 461.6C961.278 461.541 959.652 460.69 959.688 460.63C960.035 460.58 960.364 460.532 960.714 460.477C960.33 460.627 959.965 460.737 959.601 460.826C958.752 462.755 958.028 464.68 957.258 466.615C965.163 463.047 971.368 455.826 976.144 448.244C974.479 449.474 972.79 450.664 971.074 451.842Z" fill="#453C4F"/>
<path d="M959.582 438.779C957.889 439.065 956.864 436.941 957.891 435.651C958.922 434.359 961.055 434.14 962.515 434.804C963.974 435.468 964.882 436.778 965.586 438.103C966.546 439.894 967.249 441.811 967.694 443.789C966.15 441.23 963.224 439.437 959.926 439.022L959.582 438.779Z" fill="#0B090C"/>
<path d="M878.875 424.117C889.45 429.85 886.267 434.698 892.02 438.323C894.772 440.067 908.614 437.194 908.61 437.182C908.613 437.182 908.676 433.742 905.786 429.774C901.26 423.588 886.356 423.012 878.875 424.117Z" fill="#0B090C"/>
<path d="M272.487 419.57C259.087 419.642 246.804 419.365 236.833 416.064C234.341 415.259 232.002 414.291 229.847 413.093L229.028 412.663L228.365 412.234C227.928 411.931 227.451 411.732 227.027 411.368L225.705 410.385L224.437 409.268C221.062 406.226 218.308 402.11 216.819 398.118C216.118 396.123 215.715 394.198 215.592 392.45C215.475 390.695 215.761 389.212 216.213 387.77C216.989 384.96 219.955 381.415 224.786 377.276C227.173 375.192 229.917 372.961 232.851 370.28C235.742 367.442 238.723 364.549 241.225 361.306C246.367 354.929 250.691 347.898 253.903 340.373C260.296 325.339 263.185 308.772 261.819 292.273C261.139 284.047 259.619 275.809 256.787 267.952C256.162 265.97 255.261 264.071 254.499 262.135C253.752 260.17 252.796 258.371 251.855 256.561C250.89 254.767 250.043 252.897 248.964 251.181L245.716 246.048C241.136 239.439 236.057 233.221 230.327 227.988L228.224 225.964L226.022 224.102C224.548 222.873 223.098 221.603 221.604 220.419C218.55 218.182 215.556 215.815 212.394 213.847C199.907 205.548 186.681 199.492 173.404 194.384C160.054 189.348 146.764 185.348 133.211 181.778C119.633 178.284 105.632 175.609 91.359 175.038C77.0974 174.53 62.6218 175.993 48.922 181.377C35.4425 186.799 23.2525 195.536 14.0853 207.303C4.94598 218.979 -0.844742 234.267 0.100731 250.031C0.346274 253.99 1.10126 258.07 2.6855 261.952C4.31605 265.814 6.68147 269.351 9.62187 272.145C15.535 277.8 22.8409 280.438 29.8236 281.909C36.857 283.379 43.9779 283.551 50.8006 283.317C57.6706 283.087 64.5239 282.604 71.3013 281.614C78.0839 280.66 84.7686 279.14 91.3362 277.302C94.6104 276.338 97.8899 275.433 101.118 274.351C104.353 273.295 107.562 272.192 110.847 271.32L110.475 270.141C97.661 274.56 84.0617 275.849 70.7368 276.968C64.0451 277.449 57.3429 277.703 50.6389 277.562C43.9044 277.462 37.3543 276.948 31.0384 275.307C24.794 273.699 18.7585 270.993 14.6026 266.569C12.515 264.392 10.9728 261.778 9.92246 258.994C8.91669 256.171 8.44997 253.054 8.39754 249.855C8.34249 243.407 9.5781 236.789 11.9645 230.82C14.3273 224.805 17.765 219.282 21.92 214.421C30.2554 204.695 41.3171 197.549 53.1853 193.456C59.1072 191.399 65.2947 190.296 71.6727 189.717C78.0166 189.16 84.4462 189.235 90.8871 189.807C103.779 190.958 116.672 194.039 129.468 198.003C142.272 202.041 155.14 206.61 167.368 211.914C179.588 217.291 191.405 223.458 201.87 231.165C204.56 233.003 206.972 235.141 209.49 237.146C210.698 238.201 211.843 239.315 213.025 240.39L214.786 242.011L216.416 243.745C220.925 248.23 224.622 253.323 227.939 258.553L230.244 262.583C231.019 263.92 231.56 265.378 232.239 266.761C232.892 268.159 233.575 269.546 234.018 270.979C234.49 272.413 235.113 273.779 235.486 275.249C237.298 281.011 238.11 287.113 238.344 293.181C238.843 305.368 236.052 317.613 230.956 328.205C228.391 333.511 225.093 338.3 221.372 342.52C219.555 344.71 217.464 346.477 215.396 348.392C213.18 350.248 210.528 352.229 207.642 354.517C204.753 356.84 201.596 359.439 198.469 362.897C195.369 366.308 192.288 370.604 190.236 375.813C188.161 380.93 187.05 386.57 187.075 391.998C187.091 397.426 188.005 402.636 189.489 407.485C192.588 417.119 197.777 425.368 204.505 432.161C205.364 432.996 206.211 433.842 207.099 434.648L209.881 436.96C210.794 437.742 211.843 438.396 212.829 439.105L214.337 440.14L215.779 441.008C219.611 443.355 223.607 445.228 227.595 446.731C235.597 449.789 243.528 451.315 251.068 452.277C258.62 453.213 265.824 453.542 272.681 453.843L272.487 419.57Z" fill="#372F3D"/>
<path d="M347.389 543.395C340.924 538.502 335.992 531.997 333.244 524.81C332.986 527.066 332.714 529.301 332.455 531.555C324.002 524.475 318.735 514.412 317.878 504.019C318.717 505.645 319.555 507.244 320.395 508.874C351.422 485.077 381.679 460.712 411.154 435.821C378.444 437.892 344.758 440.558 338.747 443.852C322.401 452.942 307.241 463.931 293.776 476.528C285.181 484.574 276.674 495.097 279.341 506.154C285.907 500.847 280.506 516.039 271.69 529.348C257.599 550.635 242.473 571.066 218.348 582.731C213.408 585.13 207.985 587.237 204.641 591.234C197.544 599.726 203.133 611.713 202.757 622.312C202.37 633.469 198.43 646.718 195.588 657.574C191.607 672.974 185.881 685.93 191.534 696.434C204.765 720.797 189.164 726.514 224.46 725.65C236.93 725.344 254.234 726.205 264.254 722.17C272.472 718.862 266.51 710.565 264.876 702.742C262.439 691.074 249.877 690.416 238.375 691.192C234.707 691.43 230.673 691.924 227.633 690.143C223.205 687.521 223.593 681.91 224.453 677.374C226.546 666.489 227.742 650.717 229.775 639.828C231.616 629.926 233.864 619.301 242.028 612.322C250.166 605.322 266.335 604.949 271.245 614.008C276.581 608.951 282.854 604.713 289.766 601.455C288.494 606.993 286.975 612.472 285.12 617.865C287.813 610.02 309.65 598.969 325.113 591.157C326.858 588.072 329.133 585.151 331.377 582.295C336.969 575.128 342.522 567.974 348.062 560.775C351.169 556.75 354.314 551.514 351.649 547.278C350.652 545.698 348.964 544.567 347.389 543.395Z" fill="#6A5E72"/>
<path d="M332.455 531.555C332.717 529.3 332.985 527.065 333.244 524.81C335.986 531.995 340.929 538.498 347.389 543.395C348.965 544.564 350.652 545.698 351.649 547.275C354.314 551.514 351.168 556.744 348.062 560.772C342.526 567.978 336.975 575.127 331.378 582.292C329.132 585.153 326.862 588.069 325.113 591.154C330.673 588.35 335.412 586.002 338.219 584.424C353.872 575.658 375.929 570.285 395.42 554.482C418.3 535.948 428.864 513.649 437.643 493.146C443.927 478.483 449.255 464.747 457.376 453.713C450.613 448.056 444.779 441.483 440.006 434.298C430.991 434.684 421.139 435.214 411.155 435.82C381.68 460.71 351.423 485.076 320.395 508.873C319.553 507.247 318.718 505.645 317.879 504.018C318.738 514.419 324 524.475 332.455 531.555Z" fill="#6A5E72"/>
<path d="M776.219 475.87C779.142 470.122 780.262 463.663 779.812 457.25C772.361 453.153 764.74 449.322 757.005 445.808C750.725 442.959 743.925 440.279 737.183 439.722C728.478 456.013 718.205 473.617 698.591 486.752C681.874 497.957 664.062 500.143 650.988 505.846C648.644 506.871 644.713 508.34 640.094 510.111C639.067 511.625 638.218 513.215 637.613 514.943C635.406 521.219 637.123 528.377 640.655 534.303C644.16 540.223 649.343 545.164 654.463 550.01C665.706 560.594 677.096 571.11 688.587 581.513C690.664 583.413 695.339 588.589 696.926 590.834C705.128 602.458 705.944 605.459 711.326 607.583C716.738 609.677 719.132 610.035 724.945 609.793C734.631 609.389 737.125 608.976 746.801 608.498C750.763 608.293 751.176 608.671 754.008 606.155C757.928 602.661 755.254 597.174 752.394 592.797C749.365 588.142 750.079 583.196 744.415 581.767C738.446 580.251 731.972 581.004 726.192 578.964C716.684 575.632 711.813 566.133 706.588 558.06C701.52 550.283 695.349 543.147 688.295 536.892C685.766 534.633 682.974 532.253 682.404 529.049C681.409 523.278 688.08 519.342 693.882 517.549C710.011 512.619 727.461 511.788 743.236 505.955C759 500.115 773.569 486.995 772.979 470.792C774.052 472.501 775.144 474.182 776.219 475.87Z" fill="#372F3D"/>
<path d="M431.906 418.979C425.176 424.728 418.402 430.45 411.59 436.144C421.483 435.517 431.249 434.974 440.18 434.571C436.87 429.658 434.1 424.421 431.906 418.979Z" fill="#6A5E72"/>
<path d="M463.852 458.42C461.607 456.876 459.43 455.234 457.332 453.512C449.258 464.328 443.935 477.787 437.664 492.145C446.117 491.717 454.913 493.72 463.083 496.001C473.145 498.817 483.11 502.009 492.893 505.536C490.478 492.516 481.899 480.468 469.238 474.026C471.958 474.08 474.684 474.152 477.401 474.194C472.24 467.637 464.765 462.622 456.316 460.051C458.845 459.495 461.349 458.957 463.852 458.42Z" fill="#5F5368"/>
<path d="M476.99 436.523C482.891 433.431 464.926 433.437 440.18 434.572C444.886 441.581 450.651 448.003 457.334 453.513C462.463 446.636 468.711 440.826 476.99 436.523Z" fill="#6A5E72"/>
<path d="M625.675 536.478C605.134 536.985 584.781 533.048 566.626 525.308C566.285 532.981 564.744 540.572 561.442 548.038C559.609 552.232 557.173 556.724 558.587 560.918C559.568 563.809 562.044 566.092 564.711 567.928C604.349 594.774 622.706 603.822 649.8 638.289C651.893 640.938 656.388 648.229 659.922 649.39C663.265 650.497 667.122 650.19 670.781 649.775C682.856 648.405 679.824 650.815 707.987 650.153C714.738 649.98 721.927 648.5 724.698 643.032C726.566 639.4 727.025 632.356 725.795 628.732C724.103 623.77 717.942 617.309 712.773 614.868C703.81 610.638 701.073 620.073 690.643 619.16C674.827 617.783 667.299 602.398 665.112 588.837C663.52 578.99 662.873 568.244 658.429 559.534C659.163 559.179 659.889 558.742 660.464 558.191C661.716 556.987 662.24 555.361 662.685 553.796C664.838 546.152 665.651 538.305 665.15 530.57C665.115 530.019 665.057 529.478 665.022 528.928C659.488 528.261 654.045 527.116 648.78 525.574C646.245 534.008 634.569 539.51 625.675 536.478Z" fill="#6A5E72"/>
<path d="M660.893 473.677C659.25 475.709 657.784 478.081 657.95 480.525C658.173 483.365 660.476 485.568 662.661 487.519C672.487 496.304 684.821 504.49 694.969 513.117C697.025 511.27 698.891 509.293 700.559 507.156C702.451 504.763 704.028 502.156 705.267 499.478C705.178 496.147 705.851 492.762 707.366 489.582C707.662 489.747 707.984 489.892 708.267 490.004C719.059 495.262 733.064 495.229 744.448 489.895C738.565 480.423 738.988 467.82 745.342 458.014C746.643 465.777 759.209 466.484 766.889 462.238C767.314 461.999 767.712 461.765 768.106 461.51C763.854 456.57 759.298 452.283 754.439 449.658C739.943 441.798 714.878 450.661 699.333 454.4C685.014 457.873 669.867 462.793 660.893 473.677Z" fill="#6A5E72"/>
<path d="M669.707 528.49C677.69 524.854 687.369 520.422 694.196 515.276C693.912 515.019 693.619 514.774 693.33 514.51C686.489 520.238 678.095 524.583 669.707 528.49Z" fill="#6A5E72"/>
<path d="M625.887 208.506C625.669 209.129 625.338 209.751 624.836 210.39C627.844 210.15 627.878 210.21 629.952 208.204C628.585 208.291 627.248 208.403 625.887 208.506Z" fill="#6A5E72"/>
<path d="M693.328 514.51C693.618 514.774 693.901 515.014 694.194 515.276C694.784 514.837 695.339 514.375 695.899 513.921C695.577 513.667 695.288 513.373 694.967 513.118C694.44 513.571 693.888 514.05 693.328 514.51Z" fill="#6A5E72"/>
<path d="M693.329 514.51C693.883 514.056 694.439 513.568 694.968 513.119C684.816 504.497 672.489 496.309 662.66 487.521C672.802 496.562 683.027 505.576 693.329 514.51Z" fill="#6A5E72"/>
<path d="M700.558 507.157C698.897 509.291 697.025 511.277 694.969 513.118C695.289 513.375 695.587 513.666 695.9 513.921C695.34 514.378 694.788 514.839 694.195 515.276C698.504 519.011 702.858 522.773 707.196 526.488C712.156 525.279 717.036 523.726 721.775 521.852C711.729 518.48 705.412 509.1 705.267 499.479C704.028 502.159 702.452 504.766 700.558 507.157Z" fill="#6A5E72"/>
<path d="M707.197 526.488C702.863 522.773 698.506 519.011 694.196 515.276C687.366 520.419 677.692 524.852 669.707 528.49C669.13 528.745 668.58 529.013 668.004 529.267C680.972 530.62 694.357 529.657 707.197 526.488Z" fill="#6A5E72"/>
<path d="M708.269 490.006C707.982 489.892 707.663 489.741 707.368 489.584C705.85 492.766 705.185 496.146 705.269 499.48C706.711 496.42 707.707 493.238 708.269 490.006Z" fill="#6A5E72"/>
<path d="M599.613 261.275C617.804 257.236 637.066 258.027 646.957 238.096C650.839 244.835 645.089 251.179 643.888 256.512C652.984 254.493 655.922 246.24 661.672 239.896C662.209 242.31 662.744 244.725 662.744 244.725C667.828 246.131 667.957 235.967 672.505 234.958C677.052 233.948 674.113 242.202 679.196 243.607C678.124 238.777 684.946 237.263 683.874 232.434C692.839 240.578 701.806 248.722 712.509 253.947C708.091 244.793 709.292 239.459 714.506 230.701C722.935 236.43 729.627 245.079 740.46 240.14C742.198 237.221 733.768 231.491 742.863 229.473C743.935 234.302 746.745 236.212 748.482 233.292C749.148 225.544 753.16 222.12 758.243 223.525C762.909 226.695 767.56 229.874 768.63 235.291C769.221 230.151 773.205 226.436 771.886 220.496C794.365 235.775 786.619 265.364 798.265 285.582C801.03 291.311 807.201 291.322 813.496 291.933C813.468 291.037 813.441 290.14 813.402 289.245C812.476 285.495 811.539 281.802 810.498 278.215C811.189 280.592 808.669 281.341 808.671 281.342C801.112 262.335 795.02 242.916 791.327 222.756C791.198 222.764 791.061 222.756 790.929 222.771C788.972 221.932 786.988 221.161 784.952 220.495C786.097 218.815 787.242 217.129 788.392 215.476C777.648 218.678 760.714 219.837 750.473 215.852C759.463 214.035 740.55 205.734 729.573 191.619C689.128 197.487 658.449 202.43 618.215 205.545C621.011 211.989 629.273 211.216 625.023 216.982C627.135 218.383 629.264 224.329 629.949 225.063C629.092 227.074 618.642 239.241 617.307 240.95C612.138 250.578 608.747 257.11 599.613 261.275Z" fill="#6A5E72"/>
<path d="M768.633 235.289C768.503 236.415 768.53 237.608 768.819 238.911C768.932 237.594 768.852 236.399 768.633 235.289Z" fill="#6A5E72"/>
<path d="M779.905 407.844C771.909 420.28 758.635 423.817 745.373 427.222C747.653 413.866 755.129 399.148 759.829 385.083C761.075 389.874 767.58 393.246 766.215 398.735C803.858 372.869 814.738 331.842 813.501 291.931C807.205 291.319 801.036 291.309 798.27 285.579C786.624 265.362 794.37 235.772 771.891 220.493C773.211 226.435 769.226 230.149 768.636 235.288C768.855 236.398 768.935 237.593 768.822 238.91C768.533 237.607 768.506 236.415 768.636 235.288C767.565 229.871 762.913 226.692 758.248 223.522C753.165 222.117 749.153 225.542 748.488 233.29C746.75 236.209 743.94 234.3 742.868 229.47C733.773 231.49 742.202 237.219 740.465 240.138C729.633 245.077 722.94 236.428 714.511 230.698C709.298 239.456 708.096 244.79 712.514 253.944C701.811 248.72 692.846 240.576 683.879 232.432C684.951 237.261 678.129 238.776 679.202 243.604C674.118 242.199 677.057 233.946 672.51 234.955C667.963 235.964 667.832 246.128 662.749 244.723C662.749 244.723 662.213 242.308 661.677 239.893C655.928 246.237 652.989 254.49 643.893 256.51C645.095 251.176 650.845 244.832 646.962 238.093C637.072 258.024 617.809 257.233 599.619 261.272C608.753 257.108 615.866 251.565 617.314 240.947C617.031 241.311 616.793 241.708 616.49 242.056C614.699 242.099 612.861 241.897 611.137 241.546C606.224 240.523 601.517 238.517 596.517 238.196C589.381 237.737 582.058 241.062 577.805 246.709C582.404 244.022 588.751 244.524 592.778 247.923C584.682 248.908 576.451 250.305 569.282 254.154C562.081 257.979 556.06 264.695 555.137 272.591C561.757 269.367 570.108 269.789 576.258 273.685C567.422 277.073 560.602 285.162 559.014 294.212C561.598 294.211 564.128 295.179 565.994 296.852C559.936 298.044 559.124 305.983 555.465 310.816C551.927 315.448 545.589 317.095 539.777 318.424C534.926 319.519 530.099 320.597 525.27 321.663C523.601 321.273 521.936 320.883 520.271 320.49C342.452 336.888 263.553 425.917 268.02 424.887C255.727 437.396 249.18 454.662 250.659 471.527C254.456 470.967 258.234 470.4 262.002 469.825C264.085 487.165 266.16 504.502 268.264 521.816C268.601 524.47 270.906 527.751 273.132 528.044C281.913 515.004 290.315 501.616 300.235 489.634C293.785 494.894 287.302 500.127 280.781 505.332C278.167 494.525 286.626 484.21 295.17 476.309C308.551 463.943 323.596 453.151 339.825 444.211C345.788 440.967 379.178 438.265 411.592 436.143C418.406 430.45 425.178 424.728 431.908 418.978C434.099 424.419 436.873 429.656 440.182 434.57C464.932 433.437 482.894 433.428 476.993 436.521C468.71 440.823 462.473 446.631 457.336 453.512C459.437 455.237 461.604 456.868 463.857 458.419C461.354 458.958 458.846 459.491 456.32 460.05C464.767 462.618 472.248 467.641 477.405 474.193C474.688 474.151 471.954 474.082 469.242 474.025C481.912 480.466 490.488 492.518 492.897 505.536C510.59 511.926 527.779 519.463 544.258 528.109C541.234 521.927 539.153 515.38 538.11 508.662C546.667 515.355 556.306 520.962 566.627 525.308C584.784 533.045 605.138 536.987 625.676 536.478C634.569 539.52 646.246 534.002 648.781 525.575C654.047 527.117 659.495 528.258 665.023 528.928C666.01 529.093 667.01 529.207 668.005 529.267C668.585 529.013 669.127 528.743 669.71 528.49C678.096 524.58 686.496 520.237 693.331 514.51C683.033 505.577 672.809 496.563 662.663 487.519C660.471 485.568 658.177 483.366 657.952 480.525C657.784 478.082 659.251 475.709 660.894 473.676C669.868 462.791 685.013 457.873 699.335 454.399C714.884 450.66 739.941 441.796 754.441 449.658C759.301 452.288 763.851 456.573 768.108 461.51C777.71 455.715 783.571 445.965 790.557 437.594C793.76 433.742 797.654 430 801.985 427.148C805.75 419.597 808.929 411.814 812.803 403.79C799.691 417.825 786.951 434.183 768.286 439.134C777.079 429.13 779.824 418.122 779.905 407.844Z" fill="#6A5E72"/>
<path d="M1026.17 334.563C1018.96 335.116 1014.1 334.587 1008.03 330.841C1007.22 330.355 1006.5 329.702 1005.84 328.916C1005.73 330.881 1006 332.868 1007.17 334.379C1008.32 335.873 1010.19 336.736 1012.06 337.406C1015.87 338.775 1019.98 339.576 1024.17 339.787C1025.13 339.846 1026.32 339.742 1026.78 338.903C1027.02 338.438 1026.93 337.894 1026.82 337.407C1026.62 336.452 1026.4 335.51 1026.17 334.563Z" fill="#6A5E72"/>
<path d="M1017.11 309.541C1011.21 305.897 1006.7 322.566 1006.07 326.719C1005.95 327.453 1005.87 328.192 1005.84 328.915C1006.5 329.704 1007.22 330.35 1008.03 330.84C1014.1 334.582 1018.96 335.118 1026.17 334.562C1025.27 330.701 1024.12 326.904 1022.82 323.147C1022.15 321.208 1021.08 316.573 1019.63 313.207C1018.9 311.509 1018.04 310.118 1017.11 309.541Z" fill="#E7E6E8"/>
<path d="M1005.64 298.3C999.85 308.167 1000.37 322.646 1005.84 328.916C1005.87 328.195 1005.96 327.449 1006.07 326.721C1006.7 322.565 1011.21 305.9 1017.11 309.542C1018.04 310.112 1018.89 311.509 1019.63 313.209C1020.35 312.897 1021.08 312.584 1021.81 312.272C1019.75 307.398 1017.4 302.608 1015.76 297.605C1010.49 296.836 1006.85 296.23 1005.64 298.3Z" fill="#372F3D"/>
<path d="M1025.24 322.358C1031.69 316.085 1035.66 307.656 1036.14 299.269C1036.17 298.703 1036.2 298.161 1036.18 297.639C1034.02 297.979 1032.11 298.215 1030.53 298.352C1024.85 298.807 1019.82 298.145 1015.75 297.605C1017.4 302.613 1019.74 307.398 1021.81 312.272C1023.2 315.544 1024.44 318.882 1025.24 322.358Z" fill="#E7E6E8"/>
<path d="M1038.12 338.533C1044.57 338.961 1051.75 338.289 1051.82 331.782C1046.37 332.041 1040.35 332.964 1035.17 333.605C1035.2 334.258 1035.23 334.879 1035.29 335.519C1035.36 336.444 1035.48 337.51 1036.27 338.052C1036.78 338.407 1037.46 338.499 1038.12 338.533Z" fill="#6A5E72"/>
<path d="M813.406 289.243C815.219 329.988 804.703 372.29 766.213 398.735C767.574 393.248 761.078 389.872 759.828 385.083C755.128 399.151 747.653 413.869 745.371 427.222C758.635 423.819 771.908 420.286 779.904 407.844C779.818 418.112 777.074 429.13 768.284 439.136C786.951 434.19 799.687 417.821 812.801 403.791C808.933 411.817 805.75 419.601 801.983 427.149C807.542 423.501 818.232 413.649 824.589 414.551C825.508 418.599 845.674 407.354 861.788 403.151C863.631 410.23 890.784 401.225 898.07 385.704C898.586 388.84 901.435 395.512 900.006 398.536C916.875 396.031 924.461 393.107 941.635 379.925C944.528 380.068 945.941 388.339 945.941 388.339C965.544 389.856 983.499 372.102 1000.68 371.191C1006.49 370.89 1014.31 373.95 1013.36 379.884C1020.5 379.971 1046.8 378.468 1055.03 372.836C1055.1 372.784 1055.19 372.717 1055.27 372.666C1048.02 356.721 1029.44 349.123 1012.2 347.797C1010.72 347.684 1009.27 347.616 1007.84 347.6C995.877 346.754 1006.91 353.215 1005.96 358.832C996.674 349.088 982.32 341.2 967.876 341.093C970.259 348.118 979.421 357.967 976.837 358.887C955.085 371.911 928.794 362.512 913.254 349.44C915.518 356.508 917.769 363.569 924.472 366.544C888.35 370.825 854.565 352.65 848.011 321.062C849.002 333.692 851.828 343.176 855.362 355.022C824.94 343.986 819.857 315.233 813.406 289.243Z" fill="#5F5368"/>
<path d="M1029.81 289.172C1028.29 288.765 1013.67 288.31 1014.21 291.426C1014.57 293.538 1015.12 295.599 1015.76 297.604C1019.82 298.145 1024.85 298.807 1030.53 298.351C1032.11 298.217 1034.02 297.976 1036.18 297.638C1036.06 293.389 1034.34 290.487 1029.81 289.172Z" fill="#6A5E72"/>
<path d="M1035.18 333.605C1040.35 332.968 1046.38 332.038 1051.83 331.782C1051.83 331.225 1051.77 330.61 1051.67 329.934C1051.3 327.613 1041.96 305.564 1041.39 305.973C1036.85 309.157 1035.6 314.933 1035.24 320.078C1034.9 324.604 1034.9 329.107 1035.18 333.605Z" fill="#E7E6E8"/>
<path d="M1012.2 347.798C1029.44 349.129 1048.02 356.718 1055.27 372.667C1057.92 370.819 1058.12 370.203 1059.49 368.29C1062.58 364.037 1061.86 359.309 1064.6 354.589C1067.35 349.892 1076.41 344.528 1073.72 339.779C1070.38 333.931 1063.04 332.154 1056.53 331.792C1056.23 331.783 1055.93 331.762 1055.64 331.77C1055.51 332.912 1055.25 334.023 1054.67 335.071C1053.12 337.805 1049.76 339.216 1046.67 340.233C1035.71 343.826 1023.81 345.648 1013.05 343.445C1012.76 344.897 1012.48 346.348 1012.2 347.798Z" fill="#6A5E72"/>
<path d="M1065.15 288.133C1064.05 288.925 1062.93 289.666 1061.74 290.333C1057.58 292.649 1049.73 294.924 1042.53 296.453C1045.45 304.616 1048.82 312.639 1052.56 320.454C1052.48 320.227 1057.17 314.204 1058.95 311.715C1059.49 310.733 1060.03 309.768 1060.59 308.775C1060.66 308.641 1060.71 308.546 1060.78 308.433C1062.08 305.681 1063.13 302.813 1063.84 299.921C1064.62 296.816 1065.79 291.788 1065.15 288.133Z" fill="#E7E6E8"/>
<path d="M1041.39 305.973C1041.96 305.56 1051.3 327.609 1051.67 329.934C1051.77 330.611 1051.83 331.224 1051.83 331.782C1053.13 331.746 1054.42 331.724 1055.64 331.772C1055.71 331.242 1055.74 330.7 1055.75 330.165C1055.89 325.917 1055.4 321.617 1056.55 317.421C1057.1 315.448 1057.98 313.589 1058.95 311.717C1057.16 314.207 1052.48 320.229 1052.56 320.456C1048.83 312.635 1045.46 304.621 1042.53 296.455C1040.32 296.927 1038.15 297.325 1036.18 297.64C1036.2 298.161 1036.17 298.7 1036.15 299.27C1035.66 307.662 1031.69 316.083 1025.24 322.358C1024.44 318.881 1023.2 315.55 1021.81 312.273C1021.08 312.585 1020.35 312.898 1019.62 313.21C1021.08 316.575 1022.14 321.209 1022.82 323.15C1024.12 326.917 1025.26 330.699 1026.17 334.565C1028.32 334.38 1030.68 334.116 1033.32 333.815C1033.91 333.748 1034.52 333.674 1035.17 333.606C1034.9 329.101 1034.9 324.614 1035.24 320.078C1035.6 314.928 1036.84 309.16 1041.39 305.973Z" fill="#372F3D"/>
<path d="M1041.27 292.994C1041.68 294.165 1042.07 295.304 1042.53 296.454C1049.73 294.926 1057.58 292.647 1061.74 290.334C1062.94 289.665 1064.06 288.923 1065.15 288.134C1065.14 288.113 1065.14 288.112 1065.14 288.111C1064.56 284.911 1062.63 282.761 1057.86 283.804C1052.14 285.056 1047.01 288.19 1041.97 291.233C1041.65 291.437 1041.29 291.657 1041.17 292.028C1041.05 292.337 1041.15 292.67 1041.27 292.994Z" fill="#6A5E72"/>
<path d="M1057.85 283.803C1062.62 282.763 1064.56 284.911 1065.14 288.111C1065.53 287.84 1065.91 287.535 1066.29 287.222C1066.54 284.456 1066.74 281.711 1067.09 278.928C1061.63 281.892 1054.75 280.235 1048.46 280.374C1035.53 280.631 1022.16 281.656 1010.24 287.174C998.346 292.723 988.11 303.773 987.631 315.976C987.205 328 996.608 338.389 1008.51 342.264C1009.99 342.743 1011.51 343.156 1013.04 343.447C1023.8 345.653 1035.7 343.828 1046.67 340.235C1049.76 339.217 1053.13 337.8 1054.67 335.073C1055.25 334.027 1055.51 332.911 1055.64 331.772C1054.42 331.718 1053.13 331.75 1051.82 331.782C1051.75 338.288 1044.57 338.962 1038.12 338.533C1037.46 338.502 1036.78 338.409 1036.27 338.053C1035.48 337.509 1035.36 336.44 1035.29 335.52C1035.23 334.883 1035.2 334.255 1035.17 333.605C1034.53 333.668 1033.91 333.75 1033.32 333.814C1030.68 334.115 1028.32 334.38 1026.17 334.564C1026.39 335.514 1026.62 336.453 1026.82 337.409C1026.93 337.896 1027.02 338.442 1026.77 338.905C1026.32 339.739 1025.13 339.849 1024.17 339.788C1019.97 339.581 1015.86 338.782 1012.06 337.408C1010.19 336.735 1008.31 335.88 1007.17 334.381C1005.99 332.87 1005.72 330.888 1005.84 328.918C1000.36 322.65 999.844 308.167 1005.64 298.302C1006.85 296.232 1010.49 296.84 1015.75 297.606C1015.12 295.604 1014.56 293.543 1014.2 291.429C1013.67 288.313 1028.29 288.77 1029.81 289.175C1034.33 290.488 1036.06 293.395 1036.18 297.641C1038.15 297.322 1040.32 296.923 1042.53 296.456C1042.07 295.307 1041.67 294.165 1041.26 292.997C1041.14 292.678 1041.05 292.342 1041.16 292.029C1041.29 291.662 1041.64 291.439 1041.97 291.234C1047.01 288.191 1052.14 285.055 1057.85 283.803Z" fill="#6A5E72"/>
<path d="M1048.84 234.712C1048.4 235.077 1048 235.424 1047.56 235.788C1047.99 235.429 1048.44 235.086 1048.84 234.712Z" fill="#6A5E72"/>
<path d="M1050.21 233.515C1049.76 233.912 1049.29 234.319 1048.84 234.712C1058.94 238.521 1067.64 245.43 1079.82 244.935C1087.22 243.673 1092.19 239.671 1094.2 233.985C1093.47 230.807 1091.96 227.752 1090.42 224.859C1088.94 222.028 1087.03 218.917 1083.72 218.397C1081.9 218.095 1079.99 218.714 1078.16 219.296C1071.18 221.559 1064.2 223.762 1057.22 225.961C1055.49 226.512 1051.89 232.009 1050.37 233.399C1050.32 233.442 1050.26 233.494 1050.21 233.515Z" fill="#61576D"/>
<path d="M1071.34 266.155C1072.58 266.421 1073.9 266.685 1075.16 266.269C1076.5 265.83 1077.49 264.719 1078.39 263.681C1080.15 261.618 1081.86 259.546 1083.53 257.435C1085.8 254.57 1087.99 251.666 1090.09 248.694C1091.81 246.224 1093.56 243.677 1094.25 240.855C1094.86 238.528 1094.73 236.231 1094.2 233.986C1092.2 239.664 1087.22 243.669 1079.83 244.936C1067.64 245.434 1058.94 238.522 1048.84 234.713C1048.44 235.088 1048 235.427 1047.57 235.788C1047.06 236.179 1046.56 236.596 1046.04 236.963C1045.34 237.513 1044.64 238.011 1043.91 238.488C1043.14 239.013 1042.33 239.522 1041.54 240C1036.43 243.009 1031.14 244.443 1037.59 249.8C1047.14 257.672 1058.75 263.327 1071.34 266.155Z" fill="#372F3D"/>
<path d="M801.395 223.551C798.115 222.786 794.687 222.523 791.328 222.754C793.704 235.725 797.084 248.387 801.199 260.835C804.447 249.576 808.195 238.528 812.005 227.505C808.594 225.859 805.11 224.4 801.395 223.551Z" fill="#5F5368"/>
<path d="M1078.39 263.681C1077.49 264.72 1076.5 265.825 1075.16 266.269C1073.89 266.686 1072.58 266.421 1071.34 266.154C1058.75 263.333 1047.14 257.667 1037.59 249.8C1031.13 244.443 1036.42 243.014 1041.54 240C1042.33 239.526 1043.14 239.012 1043.91 238.488C1044.64 238.006 1045.36 237.502 1046.04 236.963C1046.56 236.593 1047.06 236.203 1047.56 235.787C1047.99 235.423 1048.4 235.071 1048.84 234.712C1049.28 234.317 1049.76 233.915 1050.21 233.515C1046.79 234.504 1043.69 235.302 1041.72 235.455C1034.72 236.034 1027.14 233.811 1020.85 236.976C1019.71 237.561 1018.62 238.307 1017.34 238.515C1014.9 238.913 1012.6 237.21 1010.58 235.584C1003.88 230.241 1003.8 225.277 993.275 216.14C989.842 213.16 975.548 209.306 972.658 212.671C975.08 212.094 983.164 220.425 981.798 222.609C980.419 224.769 977.39 224.99 975.064 223.962C972.729 222.915 970.857 220.948 968.89 219.258C960.112 211.859 948.955 201.01 930.968 207.807C934.786 209.898 944.997 220.008 947.114 224.027C938.959 218.788 929.7 215.689 920.44 215.065C916.124 214.76 910.047 216.184 908.723 220.201C906.459 218.842 904.035 217.746 901.564 216.904C891.515 213.445 880.528 213.433 869.777 213.357C861.579 213.293 853.374 213.202 845.173 213.063C841.456 213.015 836.744 212.157 836.109 208.597C835.276 215.423 839.517 222.434 846.028 224.891C848.943 225.98 852.122 226.253 854.981 227.404C859.359 229.151 862.233 232.556 864.557 236.554C860.663 236.087 856.735 235.722 852.819 235.482C854.256 237.281 852.661 240.155 850.419 241.007C848.17 241.857 845.696 241.269 843.44 240.641C835.597 238.416 827.985 235.486 820.726 231.909C817.81 230.468 814.936 228.918 812.006 227.505C808.194 238.528 804.447 249.576 801.199 260.835C803.479 267.731 805.977 274.563 808.673 281.341C808.673 281.347 811.19 280.588 810.5 278.214C811.541 281.798 812.478 285.497 813.404 289.244C819.854 315.231 824.937 343.99 855.362 355.025C851.826 343.181 849.002 333.701 848.011 321.067C854.564 352.658 888.351 370.827 924.472 366.548C917.765 363.581 915.51 356.507 913.253 349.445C928.795 362.518 955.086 371.915 976.836 358.892C979.424 357.971 970.26 348.116 967.876 341.097C982.321 341.208 996.673 349.098 1005.96 358.837C1006.9 353.222 995.88 346.762 1007.84 347.605C1009.28 347.624 1010.73 347.689 1012.2 347.801C1012.48 346.351 1012.76 344.899 1013.04 343.45C1011.51 343.152 1009.99 342.741 1008.51 342.267C996.608 338.387 987.204 328.001 987.63 315.979C988.115 303.777 998.34 292.723 1010.24 287.176C1022.16 281.657 1035.53 280.632 1048.46 280.377C1054.75 280.242 1061.62 281.9 1067.09 278.932C1067.12 278.843 1067.11 278.741 1067.13 278.65C1067.55 278.479 1067.96 278.317 1068.39 278.139C1067.95 278.451 1067.52 278.706 1067.09 278.932C1066.74 281.717 1066.54 284.458 1066.28 287.226C1075.06 280.156 1080.28 268.817 1083.53 257.439C1081.86 259.547 1080.14 261.619 1078.39 263.681Z" fill="#6A5E72"/>
<path d="M1058.7 250.049C1056.64 250.935 1054.52 248.463 1055.35 246.463C1056.18 244.457 1058.83 243.523 1060.95 243.952C1063.07 244.38 1064.74 245.821 1066.14 247.345C1068.05 249.401 1069.68 251.7 1071 254.156C1068.05 251.271 1063.62 249.809 1059.23 250.264L1058.7 250.049Z" fill="#0B090C"/>
<path d="M378.831 408.53C379.675 405.53 381.779 402.743 384.537 400.635C387.333 398.568 390.719 397.119 394.368 396.402C398.002 395.724 402.028 395.916 405.668 396.914C409.336 397.913 412.779 399.582 415.777 401.748C421.82 405.996 426.224 412.193 428.83 418.585C431.516 425.005 432.658 431.622 433.385 437.94C428.121 438.414 422.855 438.871 417.588 439.313C417.243 437.798 416.308 436.231 414.969 435.048C413.626 433.865 412 433.061 410.518 432.83C414.095 429.545 417.661 426.256 421.213 422.958C422.812 427.942 424.39 433.091 425.649 438.473C426.949 443.842 427.86 449.487 428.07 455.336C428.307 461.232 427.668 467.258 425.946 473.226C424.259 479.194 421.254 485.115 416.834 490.286C411.399 496.648 405.926 502.992 400.414 509.318C400.349 501.457 400.276 493.598 400.196 485.74C400.176 483.552 399.758 481.294 398.904 479.146C398.061 476.998 396.751 475.004 395.179 473.261C400.111 471.697 405.035 470.121 409.951 468.529C408.864 476.138 406.53 483.53 403.159 490.446C399.773 497.363 395.348 503.786 390.093 509.543C379.577 520.996 365.533 529.784 350.203 533.633C363.184 525.477 373.446 515.186 380.697 503.735C384.341 498.027 387.215 492.016 389.267 485.88C391.337 479.754 392.577 473.479 392.94 467.252C393.274 461.564 393.599 455.879 393.92 450.19C398.491 454.315 403.079 458.429 407.684 462.531C410.961 465.452 413.535 468.955 415.426 472.737C417.31 476.527 418.47 480.653 418.698 484.923C413.15 483.428 407.614 481.917 402.084 480.389C407.208 473.9 409.329 465.029 409.177 456.004C409.106 451.431 408.452 446.734 407.579 441.912C406.66 437.096 405.463 432.165 404.29 427.082C403.261 422.619 402.232 418.157 401.205 413.693C405.79 414.885 410.38 416.066 414.978 417.234C420.126 418.543 424.473 421.301 427.62 424.825C430.775 428.345 432.897 432.708 433.34 437.473C428.077 437.946 422.811 438.404 417.547 438.843C417.63 433.064 417.321 427.529 416.105 422.374C414.886 417.222 412.639 412.536 408.998 408.645C405.39 404.857 400.523 401.976 394.822 401.729C391.966 401.569 388.963 401.995 386.165 403.103C384.783 403.678 383.407 404.359 382.156 405.262C380.94 406.186 379.814 407.277 378.831 408.53Z" fill="#7B6F84"/>
<path d="M590.098 302.089C590.368 304.834 591.016 306.819 591.801 308.427C592.593 310.027 593.538 311.173 594.433 311.954C596.163 313.496 597.999 314.442 599.586 315.17C614.194 321.878 628.908 328.46 643.728 334.919C628.221 333.284 612.761 331.505 597.351 329.586C595.494 329.357 593.307 329.226 590.634 329.418C589.306 329.524 587.847 329.705 586.224 330.023C584.589 330.347 582.836 330.821 580.729 331.536C580.315 329.463 580.672 327.379 581.453 325.438C582.246 323.498 583.513 321.705 585.108 320.198C588.28 317.155 592.796 315.174 597.646 314.936C596.907 319.741 596.16 324.544 595.402 329.349C588.455 327.958 583.161 322.605 582.023 316.256C581.486 313.086 582.08 309.954 583.52 307.391C584.963 304.849 587.254 302.78 590.098 302.089Z" fill="#7B6F84"/>
<path d="M616.644 460.47C617.121 463.951 615.295 467.68 612.632 470.498C609.979 473.387 606.535 475.586 602.962 477.375C595.914 480.705 588.707 483.159 584.881 487.487C580.984 491.82 579.419 498.165 577.325 504.892C575.267 511.551 573.082 518.18 570.811 524.79C567.221 524.115 563.632 523.431 560.049 522.742C561.442 516.122 562.21 509.409 562.287 502.695C562.473 495.939 561.698 489.375 560.746 482.462C559.731 475.582 558.693 468.418 558.961 461.077C559.2 457.406 559.725 453.702 560.958 450.159C562.182 446.62 564.048 443.28 566.585 440.507C563.576 447.2 563.31 454.065 564.373 460.713C564.838 464.051 565.627 467.373 566.52 470.695C567.428 474.06 568.334 477.425 569.245 480.789C571.2 487.573 572.547 494.921 572.831 502.221C573.134 509.546 572.507 516.947 570.968 524.231C567.377 523.556 563.791 522.873 560.205 522.182C562.537 515.593 564.91 509.015 567.373 502.463C568.614 499.225 569.771 495.855 571.478 492.365C573.141 488.907 575.421 485.322 578.779 482.375C582.158 479.419 586.162 477.475 589.974 476.233C593.805 474.953 597.495 474.061 600.992 472.997C604.43 472.017 607.7 470.568 610.594 468.597C613.442 466.634 615.876 463.925 616.644 460.47Z" fill="#7B6F84"/>
<path d="M684.501 507.141C684.175 512.024 681.972 516.634 678.902 520.703C675.801 524.772 671.745 528.292 667.13 531.016C662.517 533.752 657.33 535.694 651.979 536.614C646.641 537.505 641.102 537.442 636.07 535.703C640.527 533.565 644.976 531.415 649.418 529.252C653.553 527.191 657.461 525.051 661.292 522.808C665.122 520.556 668.849 518.171 672.609 515.587C676.401 513.007 680.129 510.217 684.501 507.141Z" fill="#7B6F84"/>
<path d="M742.557 181.385C745.066 180.671 752.536 214.689 754.765 217.445C751.308 219.514 740.994 221.517 728.545 223.135C725.618 210.3 722.681 197.466 719.738 184.635C729.389 183.554 740.18 182.067 742.557 181.385Z" fill="#DDDDDD"/>
<path d="M705.404 186.034C708.248 185.839 713.773 185.312 719.736 184.635C722.68 197.466 725.617 210.3 728.543 223.135C716.128 224.759 701.594 225.973 689.627 226.724C686.92 213.518 684.202 200.313 681.477 187.113C689.697 186.922 697.858 186.549 705.404 186.034Z" fill="#F7F7F7"/>
<path d="M681.477 187.113C684.202 200.314 686.92 213.517 689.627 226.723C683.743 227.093 678.487 227.358 674.392 227.539C671.401 214.105 668.404 200.671 665.406 187.238C670.685 187.283 676.09 187.237 681.477 187.113Z" fill="#DDDDDD"/>
<path d="M665.405 187.239C668.404 200.672 671.4 214.105 674.39 227.54C670.569 227.709 667.752 227.798 666.429 227.833C665.102 227.863 663.8 227.888 662.494 227.911C659.896 214.279 657.288 200.651 654.668 187.025C658.158 187.14 661.741 187.212 665.405 187.239Z" fill="#F7F7F7"/>
<path d="M632.312 185.488C638.635 186.243 646.332 186.753 654.671 187.023C657.291 200.65 659.899 214.279 662.497 227.91C654.828 228.048 647.437 228.043 640.16 227.741C635.865 214.04 634.825 199.599 632.312 185.488Z" fill="#DDDDDD"/>
<path d="M622.004 208.844C620.965 204.283 619.791 190.392 618.242 182.565C621.159 183.764 626.071 184.74 632.313 185.488C634.821 199.596 635.866 214.039 640.16 227.741C637.104 227.615 634.066 227.44 631.032 227.198C628.613 227.005 625.949 219.069 624.534 217.163C622.784 214.805 622.658 211.69 622.004 208.844Z" fill="#C4C4C4"/>
<path d="M866.59 283.819C860.876 292.11 859.733 301.857 861.644 310.436C862.608 314.774 864.39 318.86 866.591 322.741C867.708 324.67 868.974 326.535 870.348 328.33C871.673 330.157 873.119 331.913 874.65 333.61C872.338 334.303 870.026 334.993 867.712 335.679C868.137 332.947 868.56 330.217 868.981 327.487C869.713 322.727 870.435 317.97 871.147 313.212C872.977 317.574 874.807 321.937 876.64 326.299C878.075 329.716 880.499 332.784 883.543 335.181C886.576 337.591 890.253 339.378 894.248 340.119C892.887 341.482 891.525 342.846 890.161 344.206C889.693 342.055 889.307 339.885 888.876 337.72C888.567 336.171 888.257 334.619 887.948 333.071C889.486 333.408 891.025 333.74 892.565 334.073C897.67 335.179 902.987 335.776 908.431 335.712C913.878 335.711 919.409 335.029 924.999 333.888C919.909 336.521 914.3 338.259 908.561 339.271C902.815 340.214 896.911 340.433 891.141 339.717C892.372 338.501 893.603 337.284 894.831 336.067C895.493 338.164 896.203 340.246 896.83 342.353C897.305 343.947 897.78 345.541 898.255 347.135C896.417 346.907 894.578 346.678 892.741 346.444C887.519 345.783 882.593 343.858 878.503 340.919C874.428 337.968 871.164 334.015 869.201 329.404C871.758 329.012 874.311 328.617 876.866 328.215C876.396 330.941 875.92 333.668 875.442 336.396C874.957 339.175 874.465 341.955 873.972 344.735C872.144 342.647 870.321 340.557 868.497 338.466C865.212 334.698 862.344 330.534 860.17 325.992C857.921 321.49 856.451 316.563 855.961 311.488C855.464 306.395 856.126 301.19 857.89 296.355C859.652 291.534 862.61 287.039 866.59 283.819Z" fill="#7B6F84"/>
<path d="M949.684 255.283C965.414 259.591 963.175 266.906 971.924 269.913C976.114 271.365 992.767 263.408 992.76 263.395C992.763 263.394 991.539 258.868 986.329 254.544C978.178 247.81 958.854 251.569 949.684 255.283Z" fill="#0B090C"/>
<path d="M799.978 227.162C800.163 225.906 801.346 223.639 801.346 223.642C806.476 222.838 811.606 222.015 816.735 221.178C829.219 225.441 841.771 229.611 854.387 233.685C854.399 233.687 848.542 251.584 847.2 258.322C830.224 258.486 813.286 258.473 796.391 258.285C797.248 247.883 798.448 237.5 799.978 227.162Z" fill="#DDDDDD"/>
<path d="M796.39 258.286C813.285 258.474 830.223 258.487 847.199 258.323C847.136 258.646 847.066 258.977 847.03 259.247C845.586 268.797 845.681 278.466 846.188 287.998C846.396 291.96 846.676 295.915 847.021 299.856C829.649 302.586 812.273 305.128 794.895 307.488C794.534 291.102 795.032 274.67 796.39 258.286Z" fill="#F7F7F7"/>
<path d="M796.25 333.56C814.172 330.175 832.074 326.6 849.956 322.827C850.768 327.589 851.724 332.301 852.815 336.98C834.504 341.286 816.161 345.387 797.79 349.285C797.184 344.054 796.669 338.814 796.25 333.56Z" fill="#F7F7F7"/>
<path d="M852.818 336.98C856.405 352.35 861.561 367.214 868.892 381.127C847.802 385.864 826.676 390.334 805.519 394.539C802.101 379.629 799.55 364.513 797.793 349.285C816.163 345.387 834.508 341.286 852.818 336.98Z" fill="#DDDDDD"/>
<path d="M794.895 307.489C812.271 305.128 829.648 302.586 847.021 299.857C847.693 307.579 848.668 315.244 849.958 322.828C832.076 326.6 814.174 330.177 796.252 333.56C795.559 324.892 795.087 316.203 794.895 307.489Z" fill="#DDDDDD"/>
<path d="M805.52 394.538C826.676 390.334 847.802 385.865 868.893 381.127C872.556 388.069 876.727 394.792 881.536 401.206C873.739 404.813 858.036 411.318 858.032 411.306C858.032 411.336 832.251 415.768 819.611 418.414C818.124 418.729 816.526 419.033 815.171 418.514C813.813 417.993 813.004 416.764 812.335 415.569C809.378 410.258 807.815 404.346 806.403 398.451C806.087 397.149 805.819 395.844 805.52 394.538Z" fill="#C4C4C4"/>
<path d="M784.312 250.578C791.491 257.258 797.242 265.617 801.105 274.929C804.964 284.239 806.846 294.601 806.165 305.156C805.92 308.937 805.671 312.72 805.417 316.504C801.996 314.117 798.583 311.724 795.177 309.324C793.159 307.904 790.637 307.129 788.246 307.005C790.844 303.643 793.429 300.278 796.005 296.907C800.268 303.944 803.044 311.806 804.403 319.908C805.676 328.03 805.612 336.397 804.036 344.611C802.54 352.839 799.511 360.898 795.234 368.436C790.865 375.924 785.198 382.937 778.204 388.718C772.275 393.622 766.317 398.505 760.331 403.366C761.229 396.32 762.107 389.277 762.971 382.232C763.431 378.47 763.886 374.705 764.337 370.941C770.249 371.282 776.162 371.601 782.084 371.902C781.154 377.8 778.784 383.409 775.278 388.305C771.745 393.178 767.132 397.414 761.67 400.473C757.968 397.481 754.275 394.482 750.591 391.476C750.571 391.65 750.651 391.743 750.716 391.648C750.784 391.56 750.811 391.33 750.762 391.093C750.719 390.855 750.612 390.634 750.545 390.501C750.482 390.356 750.492 390.293 750.539 390.224C753.277 388.732 756.013 387.236 758.743 385.736C756.382 391.043 753.34 396.063 749.754 400.678C746.169 405.288 742.069 409.518 737.522 413.227C732.994 416.945 728.057 420.182 722.813 422.764C717.605 425.385 712.106 427.41 706.508 428.654C711.425 425.806 715.993 422.647 720.154 419.186C724.282 415.683 728.045 411.932 731.361 407.949C734.656 403.946 737.55 399.749 739.929 395.387C742.31 391.027 744.212 386.521 745.585 381.961C746.129 380.156 746.67 378.353 747.211 376.548C749.396 376.865 751.58 377.177 753.767 377.488C756.188 377.835 758.404 378.796 760.166 380.073C761.926 381.364 763.282 382.95 764.267 384.716C765.243 386.487 765.873 388.466 765.999 390.646C766.135 392.812 765.703 395.214 764.558 397.46C760.855 394.474 757.161 391.478 753.476 388.476C756.536 386.336 759.151 383.566 761.003 380.446C762.89 377.355 764.079 373.957 764.367 370.652C770.277 370.993 776.191 371.312 782.112 371.612C781.842 375.386 781.568 379.159 781.289 382.933C776.202 380.792 771.13 378.637 766.068 376.469C771.133 371.896 775.513 366.611 778.851 360.754C782.295 354.95 784.689 348.608 786.236 342.14C787.699 335.656 788.292 328.998 787.724 322.453C787.252 315.903 785.651 309.476 783.011 303.464C781.211 299.365 779.414 295.266 777.621 291.166C781.997 291.917 786.38 292.654 790.768 293.383C795.945 294.241 800.572 296.601 804.16 299.975C800.507 301.37 796.852 302.756 793.193 304.135C794.085 299.78 794.631 295.316 794.643 290.805C794.713 286.291 794.314 281.742 793.539 277.208C791.994 268.13 788.813 259.185 784.312 250.578Z" fill="#7B6F84"/>
<path d="M285.48 438.723C291.23 433.928 297.7 430.086 304.594 427.376C289.67 448.392 282.897 475.777 286.079 502.237C289.803 496.773 294.438 492.015 299.715 488.237C303.155 514.323 288.238 538.699 271.1 557.252C273.856 556.491 276.611 555.731 279.367 554.971C273.949 567.155 264.443 577.178 252.895 582.88C280.277 579.79 306.548 568.193 327.612 549.897C327.893 554.047 327.108 558.242 325.365 561.919C346.759 541.749 366.317 515.455 366.115 484.785C364.217 491.146 361.117 497.076 357.045 502.13C362.449 480.279 361.334 456.522 353.895 434.999C353.062 437.656 352.229 440.312 351.396 442.97C354.029 431.724 350.836 419.459 353.65 408.267C357.574 392.662 371.862 383.118 385.22 375.407C371.058 376.469 357.057 379.282 343.593 383.772C346.821 385.799 350.115 387.751 353.211 389.971C337.562 393.323 327.037 389.86 312.794 400.307C306.357 405.027 300.657 410.844 295.972 417.474C292.421 422.497 289.54 435.337 285.48 438.723Z" fill="#70647A"/>
<path d="M837.281 369.477C837.897 373.038 837.613 377.233 834.919 379.374C833.775 380.283 832.344 380.688 830.942 381.039C819.058 384.005 806.51 384.253 794.398 381.762C809.168 375.018 814.793 370.746 822.022 359.918C828.985 349.488 835.194 357.406 837.281 369.477Z" fill="#0B090C"/>
<path d="M720.814 201.195C723.453 201.65 726.335 202.978 727.23 205.65C727.61 206.785 727.572 208.012 727.502 209.201C726.902 219.286 724.246 229.173 719.764 238C718.362 224.663 716.631 219.134 710.661 210.623C704.909 202.425 711.869 199.65 720.814 201.195Z" fill="#0B090C"/>
<path d="M852.941 411.653C854.111 414.452 854.671 417.963 852.886 420.288C852.127 421.275 851.041 421.909 849.969 422.492C840.873 427.425 830.726 430.264 820.418 430.757C831.147 422.11 834.912 417.416 838.746 406.993C842.438 396.954 848.972 402.162 852.941 411.653Z" fill="#0B090C"/>
<path d="M745.517 194.954C747.29 193.817 749.625 193.085 751.439 194.248C752.209 194.741 752.778 195.516 753.309 196.284C757.812 202.805 761.009 210.308 762.62 218.14C755.372 210.695 751.691 208.225 744.078 206.2C736.744 204.249 739.506 198.807 745.517 194.954Z" fill="#0B090C"/>
<path d="M645.747 205.66C643.169 206.296 640.443 207.816 639.846 210.54C639.592 211.696 639.764 212.917 639.965 214.096C641.67 224.101 645.404 233.768 650.838 242.251C650.769 228.867 651.885 223.24 656.898 214.35C661.728 205.787 654.489 203.503 645.747 205.66Z" fill="#0B090C"/>
<path d="M622.067 202.083C620.063 201.375 617.612 201.185 616.136 202.72C615.51 203.372 615.149 204.252 614.822 205.118C612.056 212.462 610.803 220.469 611.173 228.441C616.378 219.585 619.346 216.363 626.245 212.694C632.892 209.16 628.863 204.486 622.067 202.083Z" fill="#0B090C"/>
<path d="M833.78 320.439C833.717 324.378 832.556 328.79 829.215 330.461C827.797 331.171 826.171 331.278 824.588 331.332C811.172 331.795 788.463 324.77 775.914 319.357C791.809 315.828 805.387 310.575 817.397 303.513C828.962 296.715 833.992 307.084 833.78 320.439Z" fill="#0B090C"/>
<path d="M689.532 200.477C692.388 201.09 695.474 202.66 696.341 205.605C696.709 206.855 696.619 208.188 696.495 209.477C695.44 220.412 687.983 237.808 682.75 247.202C681.833 233.821 679.423 222.072 675.537 211.335C671.796 200.997 679.851 198.4 689.532 200.477Z" fill="#0B090C"/>
<path d="M826.7 268.803C825.388 271.882 823.042 274.943 819.818 275.066C818.45 275.119 816.873 275.053 815.817 274.101C804.839 264.204 796.307 258.754 786.414 254.052C797.043 251.472 807.976 249.934 818.935 249.629C830.491 249.308 831.144 258.362 826.7 268.803Z" fill="#0B090C"/>
<path d="M830.883 234.159C829.183 235.968 826.743 237.479 824.399 236.679C823.404 236.34 822.287 235.86 821.765 234.899C816.326 224.906 811.547 218.72 805.605 212.687C813.871 213.791 822.098 215.715 830.04 218.515C838.414 221.468 836.649 228.026 830.883 234.159Z" fill="#0B090C"/>
<path d="M1021.43 304.686C1022.17 307.994 1023.21 311.238 1024.51 314.363C1025 315.545 1025.73 316.872 1026.94 317.025C1028.16 317.181 1029.13 316.015 1029.72 314.891C1030.98 312.511 1031.64 309.784 1031.71 307.032C1031.75 305.584 1031.61 304.045 1030.81 302.844C1029.88 301.449 1028.24 300.782 1026.66 300.487C1023.61 299.919 1020.56 300.864 1021.43 304.686Z" fill="white"/>
<path d="M1050.83 298.345C1049.59 299.953 1049.22 302.156 1049.38 304.247C1049.54 306.338 1050.2 308.359 1050.85 310.355C1051.08 311.072 1051.34 311.827 1051.89 312.318C1052.79 313.118 1054.19 312.914 1055.11 312.187C1056.02 311.46 1056.56 310.337 1057.07 309.249C1058.72 305.695 1060.32 301.993 1060.54 298.008C1060.89 291.874 1052.69 295.907 1050.83 298.345Z" fill="white"/>
<path d="M1038.57 327.585C1038.7 328.155 1038.86 328.747 1039.24 329.181C1040 330.044 1041.27 329.972 1042.35 329.783C1043.85 329.521 1045.52 329.022 1046.19 327.59C1046.67 326.558 1046.49 325.319 1046.29 324.17C1045.78 321.124 1045.26 318.05 1044.15 315.172C1043.82 314.322 1043.41 313.45 1042.69 312.927C1037.57 309.193 1038.07 325.396 1038.57 327.585Z" fill="white"/>
<path d="M1009.35 323.271C1009 324.295 1008.63 325.368 1008.77 326.462C1008.97 328.132 1010.32 329.478 1011.81 330.089C1013.31 330.7 1014.94 330.713 1016.53 330.699C1017.45 330.69 1018.47 330.64 1019.13 329.982C1019.9 329.219 1019.92 327.938 1019.83 326.809C1019.62 324.034 1019.08 315.374 1015.83 314.543C1012.19 313.611 1010.21 320.791 1009.35 323.271Z" fill="white"/>
<path opacity="0.17" d="M824.129 322.513C822.59 324.133 820.214 324.435 818.017 324.526C810.697 324.834 803.361 323.78 796.071 322.728C794.26 322.467 792.343 322.158 790.918 320.922C797.134 319.11 803.257 316.968 809.258 314.507C812.943 312.996 819.757 305.361 823.297 308.578C826.11 311.135 826.664 319.845 824.129 322.513Z" fill="white"/>
<path opacity="0.17" d="M824.323 363.407C825.045 362.328 825.907 361.095 827.172 361.06C828.563 361.022 829.574 362.445 830.319 363.708C831.502 365.711 832.705 367.766 833.189 370.056C833.673 372.346 833.305 374.957 831.703 376.522C830.583 377.617 829.034 378.062 827.547 378.473C824.851 379.218 822.144 379.965 819.369 380.33C815.771 380.803 805.947 381.498 810.981 375.725C814.996 371.122 820.649 368.895 824.323 363.407Z" fill="white"/>
<path opacity="0.17" d="M845.634 412.456C846.92 414.688 848.213 417.573 846.852 419.684C846.286 420.562 845.36 421.09 844.458 421.565C839.638 424.099 834.501 425.985 829.207 427.165C833.484 423.057 837.96 418.602 839.352 412.634C840.66 407.026 843.095 408.051 845.634 412.456Z" fill="white"/>
<path opacity="0.17" d="M823.72 263.688C822.547 266.51 819.564 268.653 816.703 267.831C814.709 267.258 813.258 265.473 811.785 263.922C807.733 259.655 802.569 256.578 797.051 255.142C802.821 254.274 808.59 253.405 814.36 252.537C821.813 251.415 827.295 255.087 823.72 263.688Z" fill="white"/>
<path opacity="0.17" d="M828.681 221.817C827.096 219.7 824.465 218.876 822.014 218.173C819.315 217.399 816.616 216.624 813.918 215.85C816.874 218.323 818.903 221.794 820.869 225.187C822.49 227.985 823.798 232.279 827.39 230.718C830.501 229.366 830.514 224.263 828.681 221.817Z" fill="white"/>
<path opacity="0.17" d="M616.232 207.883C614.916 211.529 613.577 215.321 613.853 219.254C615.414 216.761 617.449 214.608 619.807 212.957C620.811 212.253 621.888 211.628 622.706 210.695C623.524 209.761 624.051 208.42 623.694 207.18C623.537 206.636 623.222 206.151 622.852 205.733C619.904 202.418 617.453 204.503 616.232 207.883Z" fill="white"/>
<path opacity="0.17" d="M644.793 209.995C643.726 211.445 643.641 213.449 643.722 215.307C643.991 221.481 645.633 227.62 648.477 233.09C647.762 227.713 648.836 222.149 651.404 217.535C652.375 215.791 653.576 214.11 653.897 212.102C654.912 205.737 647.25 206.655 644.793 209.995Z" fill="white"/>
<path opacity="0.17" d="M679.279 210.273C680.642 218.55 684.783 226.39 684.731 234.753C688.73 228.807 691.163 221.677 691.697 214.332C691.877 211.862 691.801 209.202 690.485 207.11C689.095 204.9 685.035 202.42 682.462 202.638C678.929 202.936 678.792 207.305 679.279 210.273Z" fill="white"/>
<path opacity="0.17" d="M713.618 207.119C713.865 208.831 714.98 210.257 715.941 211.679C719.026 216.241 720.891 221.697 721.257 227.231C722.699 222.952 723.634 218.471 724.035 213.922C724.179 212.301 724.25 210.635 723.835 209.05C722.64 204.482 712.552 199.75 713.618 207.119Z" fill="white"/>
<path opacity="0.17" d="M743.747 199.095C743.203 200.45 743.931 202.094 745.027 203.055C746.124 204.015 747.517 204.475 748.836 205.029C751.261 206.046 753.549 207.446 755.598 209.17C754.728 208.438 754.119 205.338 753.609 204.24C752.796 202.492 751.889 200.77 750.705 199.262C748.991 197.082 745.208 195.453 743.747 199.095Z" fill="white"/>
<path d="M535.937 312.214C527.102 310.294 518.83 305.875 509.99 303.991C496.05 301.019 481.105 304.837 470.256 314.143C478.795 311.041 488.896 312.889 496.157 318.88C476.375 316.472 455.787 314.151 437.226 321.112C440.709 321.298 444.054 323.714 445.512 327.094C438.069 329.382 429.927 331.643 422.637 328.497C415.347 325.352 410.861 314.156 416.533 308.645C404.778 310.117 395.033 321.336 394.636 333.855C390.314 331.727 387.893 325.963 389.345 321.257C384.413 325.709 382.549 333.571 384.872 340.123C377.573 342.156 369.836 342.557 362.304 341.296C364.334 343.946 366.363 346.597 368.393 349.248C348.123 349.699 328.367 358.97 314.703 374.44C320.279 370.926 327.077 369.567 333.585 370.666C313.713 375.157 296.193 389.248 286.902 408.21C308.899 394.801 330.963 381.356 354.403 370.896C374.846 361.775 396.2 354.986 417.716 348.979C435.151 344.112 452.792 339.733 470.815 337.928C487.183 336.288 503.767 336.779 520.058 334.549C536.35 332.319 552.773 327.049 564.862 315.542C567.156 313.358 569.345 310.84 570.182 307.68C571.139 304.063 569.246 297.782 564.777 297.86C561.271 297.922 561.565 301.145 559.794 303.419C553.224 311.858 547.412 314.707 535.937 312.214Z" fill="#6A5E72"/>
<path d="M764.612 122.524C767.977 128.807 769.865 135.793 773.218 142.082C776.57 148.371 781.946 154.212 788.972 155.408C780.624 158.451 770.48 155.589 764.953 148.632C765.795 155.241 768.236 161.552 769.272 168.133C770.309 174.713 769.686 182.077 765.227 187.026C764.631 179.955 755.978 174.906 749.529 177.867C750.244 182.98 749.457 188.295 747.289 192.981C747.311 189.165 744.557 185.693 741.09 184.096C737.623 182.5 733.592 182.537 729.865 183.356C729.136 183.517 728.352 183.745 727.918 184.352C727.39 185.092 727.57 186.098 727.691 186.998C728.099 190.036 727.534 193.197 726.1 195.907C724.619 191.269 720.336 187.652 715.515 186.97C715.136 189.173 714.756 191.376 714.376 193.579C712.607 192.116 711.144 190.284 710.11 188.234C708.149 189.198 706.522 190.827 705.561 192.788C703.31 190.537 703.607 186.661 705.251 183.935C706.896 181.208 709.566 179.298 711.995 177.239C722.831 168.051 729.678 154.802 733.12 141.02C734.625 134.994 735.056 101.356 738.3 100.387C742.014 99.2772 751.083 106.849 753.702 109.075C758.124 112.834 761.871 117.404 764.612 122.524Z" fill="#51465B"/>
<path opacity="0.39" d="M512.944 104.817C514.183 106.731 516.862 107.314 519.053 106.688C521.242 106.042 523.017 104.463 524.553 102.785C525.259 102.012 525.941 101.175 526.275 100.178C526.609 99.1811 526.529 97.9815 525.819 97.2317C524.998 96.3562 523.687 96.2679 522.506 96.24C520.531 96.1936 518.576 96.1472 516.623 96.1L515.801 95.8894C514.692 95.4298 513.363 96.1578 512.752 97.1855C512.14 98.234 512.072 99.4809 512.066 100.703C512.067 102.12 512.178 103.618 512.944 104.817Z" fill="white"/>
<path opacity="0.39" d="M1078.39 223.107C1075.16 223.373 1072.04 224.868 1069.81 227.222C1068.81 228.283 1067.95 229.62 1067.99 231.081C1068.06 233.882 1071.2 235.474 1073.92 236.157C1077.27 236.999 1081.26 237.248 1083.76 234.853C1085.26 233.412 1085.9 231.281 1086.14 229.212C1086.33 227.598 1086.3 225.887 1085.53 224.454C1084.77 223.021 1083.1 221.971 1081.52 222.357C1081.02 222.479 1080.56 222.732 1080.04 222.771C1079.53 222.807 1078.39 223.107 1078.39 223.107Z" fill="white"/>
<path opacity="0.14" d="M978.506 423.266C975.832 422.983 973.063 423.718 970.882 425.29C969.899 425.999 968.99 426.954 968.797 428.149C968.427 430.443 970.734 432.223 972.842 433.199C975.445 434.404 978.657 435.224 981.061 433.66C982.509 432.718 983.354 431.082 983.871 429.435C984.274 428.149 984.513 426.75 984.111 425.466C983.71 424.18 982.514 423.068 981.169 423.138C980.745 423.16 980.325 423.294 979.904 423.246C979.483 423.198 979.038 422.869 979.081 422.447L978.506 423.266Z" fill="white"/>
<path d="M1067.19 285.111C1065.28 287.228 1062.46 288.482 1059.61 288.47C1058.05 288.463 1056.51 288.096 1054.96 287.924C1053.64 287.778 1052.3 287.772 1051.02 287.447C1047.97 286.678 1045.49 283.992 1044.97 280.889C1044.87 280.269 1044.84 279.616 1045.07 279.031C1045.49 277.944 1046.66 277.367 1047.76 276.965C1053.34 274.911 1059.42 274.778 1065.37 274.668C1068.23 274.615 1070.25 275.208 1069.85 278.238C1069.5 280.807 1068.97 283.119 1067.19 285.111Z" fill="#6A5E72"/>
<path opacity="0.39" d="M818.724 218.434C818.613 218.401 818.49 218.369 818.383 218.416C818.284 218.458 818.222 218.56 818.19 218.663C818.05 219.101 818.33 219.552 818.598 219.927C820.004 221.897 821.41 223.868 822.817 225.838C823.461 226.741 824.154 227.684 825.168 228.131C825.496 228.275 825.868 228.362 826.21 228.259C828.108 227.692 825.276 223.48 824.672 222.665C823.199 220.68 821.098 219.148 818.724 218.434Z" fill="white"/>
<path opacity="0.39" d="M812.896 255.887C815.572 256.304 818.141 257.22 820.767 257.881C821.248 258.002 821.79 258.107 822.217 257.853C822.717 257.554 822.848 256.871 822.748 256.297C822.551 255.167 821.678 254.241 820.653 253.727C819.628 253.212 818.464 253.053 817.32 252.975C813.098 252.688 808.878 253.416 804.722 254.219C803.969 254.365 803.126 254.572 802.736 255.233C802.633 255.409 806.369 255.857 807.211 255.763C809.1 255.552 811.019 255.595 812.896 255.887Z" fill="white"/>
<path opacity="0.39" d="M818.514 321.643C820.524 321.269 822.784 320.391 823.361 318.43C823.61 317.585 823.353 316.478 822.52 316.188C822.062 316.029 821.56 316.156 821.093 316.287C814.574 318.117 808.346 320.12 801.586 320.832C803.2 322.142 807.397 321.907 809.462 322.042C812.482 322.239 815.531 322.197 818.514 321.643Z" fill="white"/>
<path opacity="0.39" d="M829.204 375.497C827.92 376.58 826.263 377.092 824.656 377.576C820.373 378.868 815.848 380.17 811.492 379.155C817.928 378.658 824.158 375.818 828.754 371.285C829.061 370.982 829.384 370.658 829.801 370.547C832.243 369.899 829.985 374.836 829.204 375.497Z" fill="white"/>
<path opacity="0.39" d="M841.768 419.648C839.359 422.493 835.992 424.512 832.348 425.298C834.692 424.189 836.667 422.314 837.896 420.031C838.895 418.175 839.397 416.099 839.847 414.04C839.976 413.449 840.108 412.84 840.437 412.332C840.767 411.823 841.344 411.428 841.946 411.494C843.202 411.63 843.918 413.637 843.975 414.711C844.069 416.501 842.868 418.348 841.768 419.648Z" fill="white"/>
<path opacity="0.39" d="M616.684 211.347C615.471 213.268 614.663 215.411 613.895 217.548C614.372 215.565 614.633 213.533 615.182 211.569C615.73 209.606 616.6 207.669 618.083 206.269C619.19 205.224 621.856 204.605 620.908 206.844C620.232 208.437 617.692 209.751 616.684 211.347Z" fill="white"/>
<path opacity="0.39" d="M645.905 218.763C645.718 221.923 646.248 225.092 647.091 228.144C647.165 226.916 647.239 225.688 647.314 224.46C647.397 223.09 647.481 221.713 647.797 220.377C648.195 218.697 652.902 210.5 650.837 209.784C647.336 208.571 646.005 217.063 645.905 218.763Z" fill="white"/>
<path opacity="0.39" d="M687.829 218.924C687.802 223.613 686.828 228.247 685.633 232.781C689.81 227.799 691.679 221.229 692.213 214.751C692.422 212.218 692.406 209.518 691.107 207.334C689.908 205.317 684.129 202.634 685.172 206.772C686.243 211.025 687.855 214.349 687.829 218.924Z" fill="white"/>
<path opacity="0.39" d="M721.187 225.061C722.609 220.843 722.825 216.328 723.03 211.881C723.087 210.645 723.137 209.368 722.702 208.209C722.34 207.246 720.349 204.625 719.196 205.743C718.347 206.566 720.217 210.63 720.456 211.691C721.446 216.066 721.701 220.607 721.187 225.061Z" fill="white"/>
<path opacity="0.39" d="M751.328 202.539C753.334 204.952 754.5 208.014 756.713 210.239C757.23 207.208 756.306 204.078 754.808 201.393C754.13 200.178 753.316 199.011 752.218 198.159C751.118 197.307 749.699 196.797 748.325 197.018C746.301 197.346 746.245 198.454 747.374 199.431C748.652 200.536 750.162 201.137 751.328 202.539Z" fill="white"/>
<path d="M680.89 56.5902C676.99 59.9763 672.691 63.5317 667.537 63.8603C662.685 64.1696 658.039 61.4364 654.852 57.7646C651.665 54.0929 649.686 49.5541 647.755 45.0915C643.428 35.0915 639.101 25.0925 634.773 15.0925C640.174 19.4905 645.618 23.9172 651.76 27.1993C658.098 30.5862 665.113 32.7174 671.061 36.7518C677.008 40.7862 681.929 47.5365 680.95 54.6564L680.89 56.5902Z" fill="#372F3D"/>
<path d="M689.128 33.6114C682.435 30.8282 666.552 29.9283 659.804 27.2823C646.046 21.8865 633.989 12.2396 625.707 0C624.578 8.12827 630.189 21.3656 638.735 28.4147C646.683 34.971 661.443 38.752 666.18 47.9027C668.15 51.7073 669.031 56.0904 671.605 59.5141C676.511 66.0397 685.775 67.0612 693.939 67.1634C697.88 67.2123 702.071 67.1049 705.365 64.9413C719.342 55.7575 696.172 36.5404 689.128 33.6114Z" fill="#6A5E72"/>
<path d="M886.073 229.834C891.396 232.508 897.212 235.259 903.067 234.158C908.578 233.123 912.992 228.746 915.509 223.736C918.027 218.725 918.946 213.088 919.834 207.551C921.824 195.144 923.813 182.736 925.804 170.328C921.02 176.781 916.196 183.278 910.266 188.695C904.145 194.285 896.912 198.663 891.413 204.865C885.915 211.068 882.336 220.012 885.457 227.691L886.073 229.834Z" fill="#372F3D"/>
<path d="M870.317 206.498C877.005 201.482 894.501 195.956 901.29 191.077C915.132 181.131 925.861 166.917 931.634 150.881C935.21 159.644 932.705 176.035 925.16 186.347C918.142 195.936 902.723 204.364 900.033 215.938C898.914 220.751 899.177 225.901 897.275 230.46C893.649 239.15 883.587 242.929 874.491 245.366C870.101 246.542 865.386 247.615 861.088 246.135C842.853 239.85 863.278 211.776 870.317 206.498Z" fill="#6A5E72"/>
<path d="M524.282 704.833C524.012 704.743 523.768 704.599 523.489 704.53C520.759 703.859 517.89 704.388 515.129 704.919C490.189 709.711 464.263 714.932 444.067 730.329C430.561 740.625 420.763 754.648 412.203 769.474C442.148 776.989 463.456 808.3 491.932 800.164C492.532 799.945 493.063 799.682 493.653 799.457C536.189 783.126 548.342 746.808 524.282 704.833Z" fill="#B8AFCB"/>
<path d="M574.757 807.226C569.702 794.634 568.733 780.442 572.027 767.28C573.063 763.134 574.518 758.803 573.352 754.69C572.41 751.348 569.878 748.726 567.437 746.254C555.701 734.375 543.966 722.495 532.23 710.617C529.902 708.261 527.388 705.878 524.284 704.832C548.345 746.807 536.191 783.126 493.655 799.457C495.168 815.516 490.808 831.879 482.82 846.232C497.691 847.142 510.215 833.114 524.811 831.192C534.992 829.851 545.078 833.958 555.336 834.435C565.589 834.913 577.929 829.177 578.117 818.911C578.193 814.829 576.279 811.017 574.757 807.226Z" fill="#6A5E72"/>
<path d="M493.654 799.457C493.063 799.682 492.532 799.946 491.933 800.164C463.457 808.3 442.149 776.989 412.204 769.474C408.739 775.47 405.46 781.583 402.253 787.656C401.271 789.517 400.257 791.505 400.41 793.605C400.558 795.683 401.816 797.492 403.031 799.183C408.028 806.128 413.024 813.073 418.019 820.019C419.727 822.39 421.492 824.818 423.944 826.399C427.98 828.999 433.102 828.88 437.886 829.251C454.262 830.514 464.749 842.752 479.665 845.821C480.729 846.04 481.778 846.168 482.819 846.233C490.806 831.879 495.167 815.516 493.654 799.457Z" fill="#87788E"/>
<path d="M70.2862 278.387C57.7172 275.324 53.5281 262.873 55.9041 256.6C59.1363 248.064 72.0146 247.463 73.1279 247.426C80.4985 247.181 84.1607 250.588 98.5516 257.32C105.769 260.696 111.746 263.067 115.411 264.457C98.6879 268.591 87.0094 274.253 70.2862 278.387Z" fill="#372F3D"/>
<path d="M70.2859 278.387C61.6307 288 65.3557 301.189 70.8538 305.031C78.3345 310.259 89.3114 303.497 90.2517 302.9C96.4785 298.948 97.5831 294.07 105.676 280.397C109.734 273.541 113.167 267.671 115.411 264.456C99.453 265.654 86.8587 271.085 70.2859 278.387Z" fill="#372F3D"/>
</svg>
