<svg width="448" height="550" viewBox="0 0 448 550" fill="none" xmlns="http://www.w3.org/2000/svg">
<path d="M448.002 358.301C448.002 358.301 444.882 406.049 415.095 420.507C385.309 434.954 342.229 420.417 314.455 448.44C286.68 476.463 301.274 543.666 245.443 548.979C189.611 554.292 158.016 500.699 123.098 501.174C88.1794 501.649 70.4208 559.503 23.8138 547.656C-22.7932 535.81 11.9104 474.473 20.4789 428.714C29.0474 382.944 36.2594 294.545 31.8734 226.788C27.4874 159.043 37.2769 70.339 84.7091 27.7903C132.141 -14.7585 201.311 -10.7116 238.83 55.7002C276.348 122.112 266.073 224.064 292.185 271.225C318.275 318.386 391.956 360.415 448.002 358.301Z" fill="#F9BDBD"/>
<path d="M66.2799 126.95C62.2895 139.577 61.2947 178.124 87.5542 176.135C113.814 174.145 111.813 145.896 110.151 129.946C87.5544 131.596 66.2799 126.95 66.2799 126.95Z" fill="#F9A5A5"/>
<path d="M165.314 135.666C162.318 150.204 164.647 180.6 191.562 176.203C218.477 171.806 211.785 127.946 205.5 116.642C186.916 134.253 165.314 135.666 165.314 135.666Z" fill="#F9A5A5"/>
<path d="M111.016 72.6222C110.508 72.6222 109.988 72.5431 109.479 72.3735C106.857 71.5257 105.432 68.711 106.28 66.0884C106.619 65.0485 114.769 40.5411 138.847 20.1823C140.95 18.4076 144.092 18.6676 145.867 20.7701C147.642 22.8727 147.382 26.0153 145.279 27.79C123.349 46.3401 115.832 68.9371 115.764 69.1632C115.075 71.2883 113.119 72.6222 111.016 72.6222Z" fill="#F9A5A5"/>
<path d="M142.066 96.564C142.01 96.564 141.953 96.564 141.896 96.564C139.149 96.4622 136.99 94.1675 137.081 91.4093C138.415 52.2065 142.428 38.0651 142.597 37.4885C143.366 34.8434 146.124 33.3399 148.781 34.0973C151.415 34.866 152.929 37.6242 152.172 40.2693C152.093 40.552 148.328 54.3656 147.051 91.7484C146.949 94.4388 144.734 96.564 142.066 96.564Z" fill="#F9A5A5"/>
<path d="M310.214 390.144C309.083 390.144 307.953 389.771 307.026 388.991C244.65 337.014 215.044 264.091 219.012 172.256C219.136 169.509 221.442 167.384 224.212 167.486C226.959 167.61 229.095 169.928 228.982 172.686C225.15 261.254 253.557 331.452 313.413 381.326C315.527 383.09 315.809 386.232 314.057 388.346C313.062 389.533 311.638 390.144 310.214 390.144Z" fill="#F9A5A5"/>
<path d="M252.394 400.023C250.969 400.023 249.556 399.413 248.562 398.237C220.9 365.094 210.749 326.219 210.331 324.579C209.653 321.912 211.258 319.199 213.926 318.52C216.582 317.831 219.307 319.447 219.985 322.115C220.087 322.5 230.045 360.504 256.203 391.85C257.967 393.964 257.684 397.107 255.57 398.87C254.654 399.65 253.524 400.023 252.394 400.023Z" fill="#F9A5A5"/>
<path d="M215.174 483.867C213.681 483.867 212.212 483.2 211.228 481.934C177.18 437.871 153.577 363.84 152.594 360.709C151.769 358.086 153.227 355.283 155.85 354.457C158.472 353.632 161.276 355.079 162.101 357.713C162.338 358.459 186.167 433.202 219.119 475.852C220.803 478.023 220.396 481.154 218.226 482.85C217.31 483.528 216.236 483.867 215.174 483.867Z" fill="#F9A5A5"/>
<path d="M187.735 497.16C186.198 497.16 184.671 496.448 183.699 495.103C141.388 436.842 127.359 363.647 123.053 312.519C118.395 257.264 123.595 216.343 123.821 214.625C124.183 211.9 126.647 209.956 129.406 210.329C132.141 210.68 134.063 213.189 133.701 215.913C133.486 217.552 113.286 381.18 191.759 489.247C193.376 491.474 192.878 494.594 190.651 496.211C189.781 496.844 188.752 497.16 187.735 497.16Z" fill="#F9A5A5"/>
<path d="M85.6026 424.023C85.2861 424.023 84.9693 423.989 84.6415 423.933C81.9398 423.401 80.1764 420.79 80.6964 418.088C93.097 354.276 86.6312 239.053 86.5634 237.9C86.4051 235.153 88.5078 232.791 91.2547 232.633C94.0807 232.463 96.3642 234.577 96.5224 237.324C96.7937 242.105 103.124 354.966 90.4857 419.987C90.0223 422.373 87.9426 424.023 85.6026 424.023Z" fill="#F9A5A5"/>
<path d="M38.3721 474.892C54.9892 421.05 52.3327 333.986 47.6754 235.617C43.5833 149.208 49.7667 98.7015 63.0378 54.2197C34.2801 100.951 28.255 170.958 31.861 226.777C36.247 294.523 29.0234 382.933 20.4661 428.703C11.8976 474.474 -22.7947 535.799 23.801 547.645C27.0114 548.459 30.0747 548.912 33.0363 549.115C19.2792 537.743 26.774 512.478 38.3721 474.892Z" fill="#F9A5A5"/>
<path d="M421.873 383.837C402.6 415.07 366.043 411.746 330.152 420.394C294.261 429.03 288.937 464.921 278.311 496.833C269.527 523.183 262.519 543.18 224.413 548.221C231.037 549.329 238.012 549.68 245.427 548.979C301.258 543.654 286.665 476.463 314.439 448.44C342.213 420.417 385.293 434.965 415.08 420.507C444.866 406.049 447.986 358.3 447.986 358.3C391.94 360.426 318.26 318.397 292.158 271.225C266.057 224.052 276.321 122.112 238.803 55.6999C231.851 43.3897 223.802 33.2273 215.008 25.0996C241.482 68.9484 249.858 112.356 255.036 169.815C261.027 236.284 272.331 362.562 421.873 383.837Z" fill="#F9A5A5"/>
<path d="M65.4455 109.746C65.4455 109.746 92.9825 125.199 107.407 127.946C104.445 160.083 94.4632 168.494 76.0149 160.988C57.5665 153.493 65.4455 109.746 65.4455 109.746Z" fill="black"/>
<path d="M161.285 129.55C161.285 129.55 194.757 112.831 202.071 105.348C212.595 147.297 196.701 162.094 184.832 165.599C172.962 169.103 163.241 146.709 161.285 129.55Z" fill="black"/>
</svg>
