<svg width="556" height="511" viewBox="0 0 556 511" fill="none" xmlns="http://www.w3.org/2000/svg">
<path d="M230.453 298.683C256.987 261.777 303.606 246.247 340.155 219.215C381.759 188.446 409.674 143.207 440.253 101.467C465.178 67.4435 504.551 24.103 545.046 0.999862C551.997 -2.96549 559.241 5.73298 554.121 11.8807C545.361 22.3987 536.227 33.2683 531.622 39.8182C513.17 66.0654 494.586 92.5489 481.888 122.011C462.134 167.837 457.447 218.906 439.018 265.281C408.214 342.796 337.407 403.143 255.969 421.282C252.43 379.742 243.509 338.662 230.453 298.683Z" fill="#7FF5C6"/>
<mask id="mask0_610_2530" style="mask-type:luminance" maskUnits="userSpaceOnUse" x="230" y="0" width="326" height="422">
<path d="M230.449 298.683C256.983 261.777 303.603 246.247 340.151 219.215C381.755 188.446 409.67 143.207 440.249 101.467C465.174 67.4435 504.547 24.103 545.042 0.999862C551.993 -2.96549 559.237 5.73298 554.117 11.8807C545.357 22.3987 536.223 33.2683 531.618 39.8182C513.166 66.0654 494.582 92.5489 481.884 122.011C462.13 167.837 457.443 218.906 439.014 265.281C408.21 342.796 337.403 403.143 255.965 421.282C252.426 379.742 243.505 338.662 230.449 298.683Z" fill="white"/>
</mask>
<g mask="url(#mask0_610_2530)">
<path d="M284.675 291.379C284.675 291.379 339.967 261.175 362.557 228.771C385.147 196.368 469.727 60.9778 494.497 39.6774C519.264 18.377 558.831 -12.0859 558.831 -12.0859C572.582 4.69791 564.033 18.8466 538.371 30.9733C538.371 30.9733 515.129 51.2697 471.75 115.388C428.278 179.64 422.176 240.254 393.15 277.292C353.223 328.237 300.971 375.312 277.428 383.049C253.879 390.791 284.675 291.379 284.675 291.379Z" fill="#00AD64"/>
</g>
<mask id="mask1_610_2530" style="mask-type:luminance" maskUnits="userSpaceOnUse" x="84" y="168" width="225" height="271">
<path d="M177.644 172.831C177.644 172.831 104.691 213.458 93.1707 274.074C81.6508 334.691 71.3321 414.653 130.676 430.776C190.022 446.896 262.267 439.803 288.069 395.954C313.872 352.104 318.387 261.177 281.619 221.197C244.851 181.217 226.951 168.947 226.951 168.947L177.644 172.831Z" fill="white"/>
</mask>
<g mask="url(#mask1_610_2530)">
<path d="M177.644 172.831C177.644 172.831 104.691 213.458 93.1707 274.074C81.6508 334.691 71.3321 414.653 130.676 430.776C190.022 446.896 262.267 439.803 288.069 395.954C313.872 352.104 318.387 261.177 281.619 221.197C244.851 181.217 226.951 168.947 226.951 168.947L177.644 172.831Z" fill="#00AD64"/>
</g>
<mask id="mask2_610_2530" style="mask-type:luminance" maskUnits="userSpaceOnUse" x="84" y="168" width="225" height="271">
<path d="M177.644 172.831C177.644 172.831 104.691 213.458 93.1707 274.074C81.6508 334.691 71.3321 414.653 130.676 430.776C190.022 446.896 262.267 439.803 288.069 395.954C313.872 352.104 318.387 261.177 281.619 221.197C244.851 181.217 226.951 168.947 226.951 168.947L177.644 172.831Z" fill="white"/>
</mask>
<g mask="url(#mask2_610_2530)">
<path d="M144.224 319.427C146.004 319.427 147.448 317.984 147.448 316.204C147.448 314.424 146.004 312.981 144.224 312.981C142.443 312.981 141 314.424 141 316.204C141 317.984 142.443 319.427 144.224 319.427Z" fill="#006C36"/>
<path d="M162.575 302.056C162.575 303.026 161.787 303.813 160.817 303.813C159.846 303.813 159.059 303.026 159.059 302.056C159.059 301.085 159.846 300.298 160.817 300.298C161.79 300.298 162.575 301.085 162.575 302.056Z" fill="#006C36"/>
<path d="M167.665 329.318C167.665 331.691 165.741 333.618 163.364 333.618C160.99 333.618 159.062 331.694 159.062 329.318C159.062 326.944 160.987 325.018 163.364 325.018C165.738 325.018 167.665 326.941 167.665 329.318Z" fill="#006C36"/>
<path d="M182.283 314.056C182.283 315.243 181.321 316.204 180.134 316.204C178.946 316.204 177.984 315.243 177.984 314.056C177.984 312.869 178.946 311.907 180.134 311.907C181.321 311.904 182.283 312.869 182.283 314.056Z" fill="#006C36"/>
<path d="M191.848 294.333C191.848 295.312 191.055 296.108 190.076 296.108C189.097 296.108 188.301 295.315 188.301 294.333C188.301 293.354 189.094 292.559 190.076 292.559C191.055 292.559 191.848 293.354 191.848 294.333Z" fill="#006C36"/>
<path d="M143.495 351.716C144.873 351.716 145.991 350.599 145.991 349.221C145.991 347.843 144.873 346.727 143.495 346.727C142.117 346.727 141 347.843 141 349.221C141 350.599 142.117 351.716 143.495 351.716Z" fill="#006C36"/>
<path d="M177.201 361.989C177.201 365.431 174.411 368.224 170.964 368.224C167.521 368.224 164.73 365.434 164.73 361.989C164.73 358.547 167.521 355.754 170.964 355.754C174.411 355.757 177.201 358.547 177.201 361.989Z" fill="#006C36"/>
<path d="M175.793 344.966C175.793 345.49 175.368 345.911 174.848 345.911C174.324 345.911 173.902 345.487 173.902 344.966C173.902 344.443 174.327 344.021 174.848 344.021C175.368 344.019 175.793 344.443 175.793 344.966Z" fill="#006C36"/>
<path d="M183.143 333.832C183.143 334.664 182.468 335.336 181.638 335.336C180.805 335.336 180.133 334.661 180.133 333.832C180.133 333.002 180.808 332.327 181.638 332.327C182.468 332.327 183.143 332.999 183.143 333.832Z" fill="#006C36"/>
<path d="M142.506 334.476C143.93 334.476 145.085 333.322 145.085 331.897C145.085 330.473 143.93 329.318 142.506 329.318C141.081 329.318 139.926 330.473 139.926 331.897C139.926 333.322 141.081 334.476 142.506 334.476Z" fill="#006C36"/>
<path d="M152.699 304.034C152.699 305.128 151.813 306.013 150.719 306.013C149.624 306.013 148.738 305.128 148.738 304.034C148.738 302.94 149.624 302.054 150.719 302.054C151.813 302.057 152.699 302.942 152.699 304.034Z" fill="#006C36"/>
<path d="M185.976 270.116C185.976 271.731 184.668 273.036 183.056 273.036C181.441 273.036 180.133 271.728 180.133 270.116C180.133 268.505 181.441 267.197 183.056 267.197C184.668 267.194 185.976 268.502 185.976 270.116Z" fill="#006C36"/>
<path d="M213.185 278.536C213.185 279.487 212.414 280.258 211.463 280.258C210.512 280.258 209.738 279.487 209.738 278.536C209.738 277.586 210.509 276.812 211.463 276.812C212.414 276.815 213.185 277.586 213.185 278.536Z" fill="#006C36"/>
<path d="M175.779 285.126C176.293 285.126 176.71 284.71 176.71 284.196C176.71 283.681 176.293 283.265 175.779 283.265C175.265 283.265 174.848 283.681 174.848 284.196C174.848 284.71 175.265 285.126 175.779 285.126Z" fill="#006C36"/>
<path d="M194.216 365.796C194.659 365.796 195.018 365.438 195.018 364.995C195.018 364.552 194.659 364.193 194.216 364.193C193.773 364.193 193.414 364.552 193.414 364.995C193.414 365.438 193.773 365.796 194.216 365.796Z" fill="#006C36"/>
<path d="M204 311.367C204 311.665 203.759 311.904 203.463 311.904C203.168 311.904 202.926 311.665 202.926 311.367C202.926 311.072 203.168 310.83 203.463 310.83C203.759 310.83 204 311.072 204 311.367Z" fill="#006C36"/>
</g>
<mask id="mask3_610_2530" style="mask-type:luminance" maskUnits="userSpaceOnUse" x="84" y="168" width="225" height="271">
<path d="M177.644 172.831C177.644 172.831 104.691 213.458 93.1707 274.074C81.6508 334.691 71.3321 414.653 130.676 430.776C190.022 446.896 262.267 439.803 288.069 395.954C313.872 352.104 318.387 261.177 281.619 221.197C244.851 181.217 226.951 168.947 226.951 168.947L177.644 172.831Z" fill="white"/>
</mask>
<g mask="url(#mask3_610_2530)">
<path d="M122.172 202.172C122.172 202.172 199.863 220.55 251.628 189.114C303.393 157.678 140.753 175.573 122.172 202.172Z" fill="#006C36"/>
</g>
<path d="M299.367 369.733C307.874 342.612 310.805 308.664 306.023 278.39" stroke="#006C36" stroke-width="0.75" stroke-miterlimit="10" stroke-linecap="round"/>
<path d="M232.268 247.957C232.268 247.957 207.11 315.022 203.562 322.115C201.253 326.733 195.255 339.135 191.348 347.231C190.476 349.04 192.656 350.778 194.226 349.526L210.01 336.947L203.523 357.564C202.952 359.381 205.278 360.68 206.525 359.24L219.704 344.02L214.778 363.861C214.365 365.528 216.565 366.538 217.558 365.135L230.445 346.945V362.781C230.445 364.873 233.3 365.481 234.155 363.574L240.879 348.556L242.938 359.952C243.279 361.841 245.906 362.047 246.539 360.236L277.419 271.817" fill="#00AD64"/>
<path d="M232.268 247.957C232.268 247.957 207.11 315.022 203.562 322.115C201.253 326.733 195.255 339.135 191.348 347.231C190.476 349.04 192.656 350.778 194.226 349.526L210.01 336.947L203.523 357.564C202.952 359.381 205.278 360.68 206.525 359.24L219.704 344.02L214.778 363.861C214.365 365.528 216.565 366.538 217.558 365.135L230.445 346.945V362.781C230.445 364.873 233.3 365.481 234.155 363.574L240.879 348.556L242.938 359.952C243.279 361.841 245.906 362.047 246.539 360.236L277.419 271.817" stroke="#006C36" stroke-width="0.75" stroke-miterlimit="10" stroke-linecap="round"/>
<path d="M121.741 233.002C121.741 233.002 75.0253 287.31 69.2527 292.749C65.4944 296.29 55.592 305.869 49.1358 312.126C47.6927 313.524 49.1444 315.906 51.0489 315.27L70.2009 308.892L57.0099 326.016C55.8481 327.526 57.5838 329.546 59.252 328.623L76.868 318.867L65.4128 335.8C64.4507 337.223 66.1668 338.927 67.5847 337.952L85.9488 325.307L80.4942 340.176C79.774 342.139 82.244 343.694 83.704 342.195L95.1874 330.409L93.1957 341.816C92.8665 343.706 95.2605 344.805 96.4786 343.32L155.921 270.934" fill="#00AD64"/>
<path d="M84.2969 341.588L95.1838 330.415L93.1921 341.822C92.8629 343.712 95.2569 344.811 96.475 343.326L155.917 270.94" stroke="#006C36" stroke-width="0.75" stroke-miterlimit="10" stroke-linecap="round"/>
<path d="M121.741 233.002C121.741 233.002 109.085 247.716 96.1328 262.593" stroke="#006C36" stroke-width="0.75" stroke-miterlimit="10" stroke-linecap="round"/>
<path d="M233.503 371.858C206.069 384.758 187.268 414.209 185.203 445.915C179.608 456.725 172.935 466.979 165.317 476.476C163.705 478.487 165.644 481.37 168.111 480.622C172.069 479.424 175.886 477.753 179.451 475.649L167.843 497.808C166.628 500.125 169.09 502.614 171.439 501.461C177.099 498.679 182.438 495.251 187.316 491.255L182.438 508.641C181.929 510.457 184.149 511.782 185.507 510.471L203.14 493.463L203.208 507.133C203.219 509.611 206.28 510.758 207.931 508.908C214.466 501.576 220.59 493.907 226.267 486.038C229.342 481.775 231.685 477.039 233.314 472.041C240.64 449.562 254.509 429.058 272.707 413.947" fill="#00AD64"/>
<path d="M233.504 371.858C208.18 383.766 190.212 409.777 185.973 438.648" stroke="#006C36" stroke-width="0.75" stroke-miterlimit="10" stroke-linecap="round"/>
<path d="M146.38 393.803C128.182 408.913 114.313 429.418 106.987 451.897C105.358 456.894 103.015 461.63 99.9402 465.894C94.2633 473.762 88.139 481.432 81.604 488.763C79.9555 490.614 76.8947 489.466 76.8834 486.989L76.816 473.318L59.1831 490.327C57.8243 491.637 55.6047 490.313 56.1139 488.496L60.9919 471.11C56.1139 475.107 50.7746 478.535 45.1145 481.316C42.7683 482.469 40.3068 479.98 41.5192 477.663L53.1265 455.505C49.565 457.609 45.7475 459.279 41.7866 460.477C39.3194 461.225 37.3811 458.34 38.993 456.332C46.611 446.837 53.2868 436.584 58.8793 425.77C60.9442 394.064 79.7445 364.614 107.178 351.714" fill="#00AD64"/>
<path d="M85.1523 367.294C91.5832 360.882 98.9988 355.561 107.179 351.714" stroke="#006C36" stroke-width="0.75" stroke-miterlimit="10" stroke-linecap="round"/>
<path d="M146.378 393.803C135.421 402.901 126.033 413.953 118.699 426.217" stroke="#006C36" stroke-width="0.75" stroke-miterlimit="10" stroke-linecap="round"/>
<path d="M257.9 108.852C265.338 107.339 272.807 105.818 279.93 103.2C287.053 100.581 293.872 96.7988 299.116 91.3148C300.23 90.1505 301.318 88.8062 301.481 87.2032C301.645 85.6002 300.458 83.775 298.848 83.8594C306.292 81.9386 312.681 76.3111 315.519 69.1679C315.865 68.2989 316.164 67.3455 315.916 66.4456C315.671 65.5456 314.661 64.8003 313.8 65.1631C319.092 61.9712 323.185 56.8471 325.126 50.9807C325.557 49.6786 325.886 48.2612 325.486 46.9478C325.087 45.6345 323.722 44.5264 322.395 44.8667C324.693 42.2794 327.081 39.5064 327.686 36.1007C328.294 32.695 326.282 28.5778 322.839 28.2403C324.187 25.144 323.033 21.1646 320.24 19.2691C317.446 17.3736 313.322 17.7701 310.655 19.9497C309.775 18.6419 308.028 18.1245 306.464 18.3298C304.899 18.5351 303.482 19.3394 302.174 20.2196C296.604 23.9628 292.187 29.399 289.661 35.617C287.863 33.7525 284.755 34.4921 282.4 35.5664C274.878 38.9946 268.342 44.5574 263.76 51.4363C256.156 52.5387 249.264 57.7077 246.076 64.6991C234.632 66.2262 224.429 74.8009 220.004 84.9365C230.964 94.6333 242.791 103.34 257.9 108.852Z" fill="#7FF5C6"/>
<path d="M266.977 153.63C276.12 155.103 285.521 154.974 294.619 153.25C296.262 152.938 297.944 152.555 299.317 151.602C300.693 150.649 301.703 148.992 301.427 147.344C307.011 147.89 312.739 146.9 317.813 144.509C319.04 143.933 320.295 143.21 320.925 142.012C321.555 140.814 321.24 139.034 319.977 138.542C327.117 138.03 334.026 134.762 338.949 129.568C339.871 128.595 340.758 127.492 340.988 126.17C341.219 124.849 340.558 123.288 339.264 122.939C344.333 121.401 349.169 119.089 353.549 116.108C354.7 115.323 355.895 114.39 356.252 113.042C356.61 111.695 355.58 109.96 354.205 110.174C359.485 108.129 364.042 104.268 366.92 99.3943C367.651 98.1541 368.296 96.7817 368.231 95.3418C368.166 93.9019 367.187 92.417 365.761 92.223C368.208 90.17 370.763 87.9595 371.778 84.9278C372.791 81.899 371.517 77.8689 368.419 77.0899C370.929 74.6038 370.715 69.9945 368.158 67.2722C365.601 64.5499 361.012 64.0493 357.547 65.9504C356.658 63.7146 353.867 62.6994 351.51 63.1775C349.152 63.6556 347.194 65.2839 345.571 67.0585C343.948 68.833 342.538 70.8185 340.699 72.3681C337.641 71.3332 334.192 72.2556 331.491 74.0245C328.79 75.7935 326.697 78.3274 324.647 80.8219C317.42 80.2651 310.049 84.3991 306.758 90.8534C299.432 90.2403 291.896 93.5729 287.42 99.4056C286.039 96.8802 282.373 97.0742 279.597 97.8391C271.818 99.9849 264.532 103.894 256.574 109.952C255.482 125.583 260.934 140.851 266.977 153.63Z" fill="#7FF5C6"/>
<path d="M236.543 181.353C238.492 182.189 240.284 183.384 241.806 184.86C245.66 190.831 252.049 193.604 257.583 192.113C261.181 194.487 265.209 196.211 269.409 197.173C270.866 197.507 272.49 197.724 273.772 196.959C275.055 196.194 275.511 194.048 274.248 193.252C279.041 195.232 284.206 196.303 289.391 196.396C290.736 196.422 292.179 196.348 293.259 195.547C294.339 194.745 294.773 192.96 293.771 192.06C299.082 196.273 307.741 195.291 311.978 190.001C317.486 192.057 323.531 192.656 329.335 191.717C330.784 191.483 332.311 191.104 333.304 190.024C334.297 188.947 334.413 186.961 333.184 186.165C341.3 189.408 351.444 186.469 356.569 179.39C362.063 179.846 367.69 178.51 372.39 175.63C373.741 174.803 375.074 173.78 375.679 172.317C376.281 170.855 375.865 168.872 374.43 168.206C377.347 168.068 380.127 166.246 381.418 163.627C382.709 161.009 382.459 157.696 380.793 155.297C383.064 153.95 384.293 151.059 383.688 148.491C383.083 145.924 380.695 143.882 378.048 143.418C376.076 139.81 371.479 138.305 367.394 138.772C363.31 139.236 359.596 141.278 356.004 143.28C356.628 142.929 356.67 141.975 356.26 141.385C355.849 140.794 355.146 140.49 354.468 140.254C348.473 138.165 341.474 139.242 336.382 143.033C330.1 139.607 321.683 140.656 316.437 145.516C310.614 142.752 303.482 142.926 297.8 145.969C291.993 141.708 283.7 141.149 277.376 144.588C277.61 143.871 277.84 143.151 278.074 142.434C267.727 140.403 256.37 145.246 250.268 154.67C246.029 161.853 241.185 168.67 236.543 181.353Z" fill="#7FF5C6"/>
<path d="M229.875 75.9314C244.394 74.68 257.835 67.5817 269.465 58.8017C281.094 50.0245 291.286 39.5064 302.378 30.0599C305.906 27.0564 310.497 23.9797 314.821 25.6389C317.893 26.8173 319.699 30.178 319.941 33.4571C320.186 36.7363 319.148 39.9676 317.997 43.0471C307.082 72.2979 284.301 96.9281 255.984 110.095" fill="#006C36"/>
<path d="M257.504 108.158C288.921 105.478 319.596 94.5378 345.618 76.733C348.071 75.0541 350.524 73.2936 353.334 72.3205C356.142 71.3475 359.425 71.2631 361.937 72.8521C365.099 74.8488 366.289 79.0616 365.695 82.7542C365.102 86.4468 363.054 89.7287 360.913 92.7998C337.955 125.726 299.322 146.07 259.465 150.908" fill="#006C36"/>
<path d="M263.689 144.308C296.201 155.284 331.579 150.146 365.844 148.245C368.145 148.118 370.511 148.014 372.694 148.754C374.877 149.494 376.868 151.279 377.144 153.566C377.926 160.051 374.117 164.081 371.56 165.844C360.982 173.128 353.032 175.552 340.722 179.217C328.412 182.881 315.519 184.203 302.685 184.718C279.876 185.632 256.966 184.046 234.5 179.999" fill="#006C36"/>
<path d="M125.94 108.852C118.502 107.339 111.033 105.818 103.91 103.2C96.7871 100.581 89.968 96.7988 84.7242 91.3148C83.6102 90.1505 82.5215 88.8062 82.3584 87.2032C82.1952 85.6002 83.3824 83.775 84.9916 83.8594C77.5479 81.9386 71.1592 76.3111 68.3207 69.1679C67.9747 68.2989 67.6765 67.3455 67.9241 66.4456C68.1688 65.5456 69.1788 64.8003 70.0396 65.1631C64.7481 61.9712 60.6549 56.8471 58.7138 50.9807C58.2834 49.6786 57.9541 48.2612 58.3536 46.9478C58.7503 45.6345 60.1174 44.5264 61.4453 44.8667C59.1497 42.2794 56.7586 39.5064 56.1538 36.1007C55.5489 32.695 57.5576 28.5778 61.0009 28.2403C59.6534 25.144 60.8068 21.1646 63.6003 19.2691C66.3966 17.3736 70.5178 17.7701 73.1847 19.9497C74.0652 18.6419 75.8093 18.1245 77.3763 18.3298C78.9404 18.5351 80.3583 19.3394 81.6664 20.2196C87.2365 23.9628 91.6531 29.399 94.1793 35.617C95.9769 33.7525 99.0855 34.4921 101.44 35.5664C108.962 38.9946 115.497 44.5574 120.08 51.4363C127.684 52.5387 134.576 57.7077 137.764 64.6991C149.208 66.2262 159.411 74.8009 163.836 84.9365C152.876 94.6333 141.047 103.34 125.94 108.852Z" fill="#7FF5C6"/>
<path d="M116.86 153.63C107.717 155.103 98.3158 154.974 89.218 153.25C87.5751 152.938 85.8929 152.555 84.5201 151.602C83.1444 150.649 82.1345 148.992 82.4102 147.344C76.8261 147.89 71.0984 146.9 66.0235 144.509C64.797 143.933 63.5422 143.21 62.9121 142.012C62.2819 140.814 62.5971 139.034 63.8602 138.542C56.7204 138.03 49.8112 134.762 44.8882 129.568C43.9655 128.595 43.0794 127.492 42.8487 126.17C42.6181 124.849 43.2791 123.288 44.5731 122.939C39.5038 121.401 34.668 119.089 30.2879 116.108C29.1345 115.323 27.9417 114.39 27.5845 113.042C27.2272 111.695 28.2569 109.96 29.6325 110.174C24.3522 108.129 19.7948 104.268 16.917 99.3943C16.1856 98.1541 15.5413 96.7817 15.606 95.3418C15.6707 93.9019 16.6496 92.417 18.0787 92.223C15.6313 90.17 13.077 87.9595 12.0614 84.9278C11.0459 81.899 12.3231 77.8689 15.4204 77.0899C12.9139 74.6038 13.1248 69.9945 15.6819 67.2722C18.2391 64.5499 22.8275 64.0493 26.2933 65.9504C27.1822 63.7146 29.9729 62.6994 32.3303 63.1775C34.6877 63.6556 36.6456 65.2839 38.2688 67.0585C39.892 68.833 41.3015 70.8185 43.1413 72.3681C46.1992 71.3332 49.648 72.2556 52.3487 74.0245C55.0493 75.7935 57.1424 78.3274 59.1932 80.8219C66.4202 80.2651 73.7905 84.3991 77.0819 90.8534C84.4074 90.2403 91.9439 93.5729 96.4197 99.4056C97.8009 96.8802 101.466 97.0742 104.243 97.8391C112.021 99.9849 119.308 103.894 127.266 109.952C128.355 125.583 122.903 140.851 116.86 153.63Z" fill="#7FF5C6"/>
<path d="M147.296 181.353C145.346 182.189 143.554 183.384 142.032 184.86C138.178 190.831 131.79 193.604 126.256 192.113C122.658 194.487 118.632 196.211 114.43 197.173C112.972 197.507 111.349 197.724 110.066 196.959C108.783 196.194 108.328 194.048 109.591 193.252C104.8 195.232 99.6324 196.303 94.4505 196.396C93.1059 196.422 91.6627 196.348 90.5825 195.547C89.5022 194.745 89.0689 192.96 90.0704 192.06C84.7592 196.273 76.1003 195.291 71.8637 190.001C66.3555 192.057 60.3099 192.656 54.5064 191.717C53.0576 191.483 51.5302 191.104 50.5371 190.024C49.5441 188.947 49.4287 186.961 50.658 186.165C42.5421 189.408 32.3978 186.469 27.2723 179.39C21.781 179.846 16.1518 178.51 11.451 175.63C10.1007 174.803 8.7672 173.78 8.16237 172.317C7.56036 170.855 7.97679 168.872 9.4115 168.206C6.49425 168.068 3.71483 166.246 2.42359 163.627C1.13235 161.009 1.38267 157.696 3.04807 155.297C0.777845 153.95 -0.451483 151.059 0.153346 148.491C0.758176 145.924 3.14656 143.882 5.79375 143.418C7.76577 139.81 12.3624 138.305 16.4471 138.772C20.5319 139.236 24.2482 141.278 27.8406 143.28C27.2161 142.929 27.1739 141.975 27.5846 141.385C27.9953 140.794 28.6985 140.49 29.3765 140.254C35.3713 138.165 42.3705 139.242 47.4623 143.033C53.7441 139.607 62.1611 140.656 67.4077 145.516C73.2309 142.752 80.3622 142.926 86.0476 145.969C91.854 141.708 100.147 141.149 106.471 144.588C106.238 143.871 106.007 143.151 105.774 142.434C116.12 140.403 127.477 145.246 133.579 154.67C137.81 161.853 142.654 168.67 147.296 181.353Z" fill="#7FF5C6"/>
<path d="M236.539 97.8926C236.539 97.8926 271.481 84.7057 291.978 61.2061" stroke="#024924" stroke-width="1.25" stroke-miterlimit="10" stroke-linecap="round"/>
<path d="M261.668 131.671C261.668 131.671 311.498 119.727 331.313 103.995" stroke="#024924" stroke-width="1.25" stroke-miterlimit="10" stroke-linecap="round"/>
<path d="M256.426 164.637C256.426 164.637 294.887 171.254 324.904 168.085" stroke="#024924" stroke-width="1.25" stroke-miterlimit="10" stroke-linecap="round"/>
<path d="M153.958 75.9314C139.439 74.68 125.998 67.5817 114.368 58.8017C102.738 50.0245 92.5464 39.5064 81.4541 30.0599C77.9292 27.0564 73.3352 23.9797 69.0114 25.6389C65.9422 26.8173 64.1335 30.178 63.8916 33.4571C63.6468 36.7363 64.6848 39.9676 65.8354 43.0471C76.7505 72.2979 99.5315 96.9281 127.849 110.095" fill="#006C36"/>
<path d="M126.335 108.158C94.9175 105.478 64.2401 94.5378 38.2212 76.733C35.7681 75.0541 33.3149 73.2936 30.5046 72.3205C27.697 71.3475 24.4141 71.2631 21.902 72.8521C18.7372 74.8488 17.55 79.0616 18.1436 82.7542C18.7372 86.4468 20.7852 89.7287 22.926 92.7998C45.8842 125.726 84.5174 146.07 124.374 150.908" fill="#006C36"/>
<path d="M149.338 179.999C126.872 184.046 103.964 185.632 81.1523 184.718C68.3187 184.203 55.426 182.881 43.1156 179.217C30.8052 175.552 22.8553 173.128 12.2778 165.844C9.72062 164.084 5.91164 160.054 6.6937 153.566C6.96939 151.279 8.96102 149.494 11.144 148.754C13.327 148.014 15.6929 148.118 17.9941 148.245C52.2556 150.146 87.6366 155.284 120.148 144.308" fill="#006C36"/>
<path d="M147.294 97.8926C147.294 97.8926 112.352 84.7057 91.8555 61.2061" stroke="#024924" stroke-width="1.25" stroke-miterlimit="10" stroke-linecap="round"/>
<path d="M122.165 131.671C122.165 131.671 72.3354 119.727 52.5195 103.995" stroke="#024924" stroke-width="1.25" stroke-miterlimit="10" stroke-linecap="round"/>
<path d="M127.404 164.637C127.404 164.637 88.9422 171.254 58.9258 168.085" stroke="#024924" stroke-width="1.25" stroke-miterlimit="10" stroke-linecap="round"/>
<path d="M275.531 114.736C242.04 50.047 148.416 50.047 114.911 114.724C113.305 117.824 111.845 121.077 110.551 124.489C85.9804 189.38 162.321 193.466 195.218 193.466C228.115 193.466 304.456 189.383 279.886 124.489C278.592 121.08 277.132 117.832 275.531 114.736Z" fill="#00AD64"/>
<path d="M254.21 119.33C250.061 125.523 240.102 126.13 231.966 120.683C223.831 115.235 220.601 105.8 224.751 99.6046C228.9 93.4119 238.859 92.8044 246.994 98.2518C255.13 103.699 258.359 113.137 254.21 119.33Z" fill="black"/>
<path d="M244.635 108.227C243.513 109.903 240.815 110.069 238.612 108.592C236.41 107.116 235.535 104.562 236.657 102.886C237.78 101.21 240.477 101.044 242.68 102.521C244.886 103.994 245.758 106.551 244.635 108.227Z" fill="white"/>
<path d="M136.232 119.33C140.382 125.523 150.34 126.13 158.476 120.683C166.612 115.235 169.841 105.8 165.692 99.6046C161.542 93.4119 151.584 92.8044 143.448 98.2518C135.312 103.699 132.08 113.137 136.232 119.33Z" fill="black"/>
<path d="M145.807 108.227C146.93 109.903 149.628 110.069 151.83 108.592C154.033 107.119 154.908 104.562 153.785 102.886C152.663 101.21 149.965 101.044 147.762 102.521C145.557 103.994 144.682 106.551 145.807 108.227Z" fill="white"/>
<mask id="mask4_610_2530" style="mask-type:luminance" maskUnits="userSpaceOnUse" x="105" y="66" width="180" height="128">
<path d="M275.535 114.737C242.044 50.048 148.42 50.048 114.915 114.725C113.308 117.825 111.848 121.078 110.554 124.49C85.9843 189.381 162.325 193.467 195.222 193.467C228.119 193.467 304.46 189.384 279.89 124.49C278.596 121.081 277.136 117.833 275.535 114.737Z" fill="white"/>
</mask>
<g mask="url(#mask4_610_2530)">
<path d="M230.087 66.2188C230.087 73.6995 213.844 79.7656 193.806 79.7656C173.771 79.7656 157.527 73.7023 157.527 66.2188C157.527 58.738 173.771 52.6719 193.806 52.6719C213.844 52.6719 230.087 58.738 230.087 66.2188Z" fill="#006C36"/>
</g>
<path d="M192.303 98.981C192.303 100.216 191.305 101.214 190.07 101.214C188.835 101.214 187.836 100.216 187.836 98.981C187.836 97.7464 188.837 96.748 190.07 96.748C191.302 96.748 192.303 97.7464 192.303 98.981Z" fill="#006C36"/>
<path d="M190.216 113.329C190.216 114.468 189.29 115.393 188.151 115.393C187.011 115.393 186.086 114.471 186.086 113.329C186.086 112.187 187.009 111.265 188.151 111.265C189.293 111.265 190.216 112.187 190.216 113.329Z" fill="#006C36"/>
<path d="M203.696 110.936C203.696 111.4 203.322 111.774 202.858 111.774C202.394 111.774 202.02 111.4 202.02 110.936C202.02 110.472 202.397 110.098 202.858 110.098C203.319 110.098 203.696 110.472 203.696 110.936Z" fill="#006C36"/>
<path d="M204.791 102.088C205.032 102.088 205.228 101.892 205.228 101.652C205.228 101.411 205.032 101.216 204.791 101.216C204.551 101.216 204.355 101.411 204.355 101.652C204.355 101.892 204.551 102.088 204.791 102.088Z" fill="#006C36"/>
<path d="M201.435 121.025C201.435 121.669 200.912 122.189 200.27 122.189C199.626 122.189 199.105 121.666 199.105 121.025C199.105 120.381 199.626 119.86 200.27 119.86C200.914 119.86 201.435 120.381 201.435 121.025Z" fill="#006C36"/>
<path d="M210.938 111.774C211.575 111.774 212.092 111.258 212.092 110.621C212.092 109.984 211.575 109.468 210.938 109.468C210.301 109.468 209.785 109.984 209.785 110.621C209.785 111.258 210.301 111.774 210.938 111.774Z" fill="#006C36"/>
<path d="M183.24 108.14C183.24 108.534 182.922 108.852 182.528 108.852C182.134 108.852 181.816 108.534 181.816 108.14C181.816 107.746 182.134 107.429 182.528 107.429C182.919 107.429 183.24 107.746 183.24 108.14Z" fill="#006C36"/>
<path d="M194.598 106.85C194.598 107.565 194.019 108.141 193.307 108.141C192.592 108.141 192.016 107.562 192.016 106.85C192.016 106.136 192.595 105.56 193.307 105.56C194.019 105.56 194.598 106.136 194.598 106.85Z" fill="#006C36"/>
<path d="M207.56 119.86C207.56 120.504 207.039 121.024 206.395 121.024C205.751 121.024 205.23 120.501 205.23 119.86C205.23 119.216 205.751 118.695 206.395 118.695C207.037 118.693 207.56 119.216 207.56 119.86Z" fill="#006C36"/>
<path d="M184.214 129.842C185.148 129.842 185.905 129.086 185.905 128.152C185.905 127.219 185.148 126.462 184.214 126.462C183.28 126.462 182.523 127.219 182.523 128.152C182.523 129.086 183.28 129.842 184.214 129.842Z" fill="#006C36"/>
<path d="M192.59 122.189C192.912 122.189 193.172 121.928 193.172 121.607C193.172 121.285 192.912 121.024 192.59 121.024C192.269 121.024 192.008 121.285 192.008 121.607C192.008 121.928 192.269 122.189 192.59 122.189Z" fill="#006C36"/>
<path d="M206.969 129.318C207.291 129.318 207.551 129.057 207.551 128.735C207.551 128.414 207.291 128.153 206.969 128.153C206.647 128.153 206.387 128.414 206.387 128.735C206.387 129.057 206.647 129.318 206.969 129.318Z" fill="#006C36"/>
<path d="M209.792 99.0091C209.792 99.625 209.291 100.126 208.675 100.126C208.059 100.126 207.559 99.625 207.559 99.0091C207.559 98.3932 208.059 97.8926 208.675 97.8926C209.291 97.8926 209.792 98.3932 209.792 99.0091Z" fill="#006C36"/>
<path d="M183.242 100.497C183.242 101.319 182.575 101.985 181.754 101.985C180.932 101.985 180.266 101.319 180.266 100.497C180.266 99.6763 180.932 99.0098 181.754 99.0098C182.575 99.0098 183.242 99.6763 183.242 100.497Z" fill="#006C36"/>
<path d="M177.236 118.844C177.236 119.404 176.783 119.857 176.224 119.857C175.664 119.857 175.211 119.404 175.211 118.844C175.211 118.285 175.664 117.832 176.224 117.832C176.783 117.832 177.236 118.288 177.236 118.844Z" fill="#006C36"/>
<path d="M163.489 135.857C163.489 138.551 157.357 140.736 149.795 140.736C142.23 140.736 136.098 138.551 136.098 135.857C136.098 133.163 142.23 130.978 149.795 130.978C157.357 130.978 163.489 133.163 163.489 135.857Z" fill="#006C36"/>
<path d="M254.336 135.857C254.336 138.551 248.203 140.736 240.639 140.736C233.074 140.736 226.941 138.551 226.941 135.857C226.941 133.163 233.074 130.978 240.639 130.978C248.203 130.978 254.336 133.163 254.336 135.857Z" fill="#006C36"/>
<path d="M212.799 146.273C212.799 146.273 207.919 153.071 195.22 153.071C182.522 153.071 177.641 146.273 177.641 146.273" stroke="black" stroke-width="0.6776" stroke-miterlimit="10" stroke-linecap="round"/>
<path d="M182.902 164.638C182.902 164.638 194.625 159.118 207.543 164.638" stroke="#006C36" stroke-width="0.75" stroke-miterlimit="10" stroke-linecap="round"/>
</svg>
