<svg width="576" height="830" viewBox="0 0 576 830" fill="none" xmlns="http://www.w3.org/2000/svg">
<path d="M192.592 0.00420286C193.21 2.275 194.661 4.68456 194.295 6.78294C193.105 13.6163 184.098 21.5767 175.99 23.1873C174.653 15.3825 178.694 9.81907 183.24 4.50373C184.657 2.8469 186.436 1.49284 188.05 0C189.564 0.00420517 191.078 0.00420286 192.592 0.00420286Z" fill="#8D4CD4"/>
<path d="M407.297 390.277C415.102 390.773 422.915 391.143 430.703 391.795C440.556 392.619 446.939 388.082 451.224 379.533C454.374 373.246 457.465 366.82 461.552 361.152C464.399 357.207 468.566 353.936 472.755 351.337C475.303 349.756 478.995 349.617 482.183 349.562C485.77 349.499 488.444 351.648 489.399 355.164C490.391 358.822 488.612 361.741 485.547 363.44C473.449 370.138 467.751 382.169 460.539 392.951C460.459 393.073 460.623 393.364 460.816 394.171C470.698 391.198 479.983 387.098 488.553 381.425C489.739 380.643 490.488 379.175 491.384 377.985C495.971 371.888 504.592 370.429 510.832 374.785C514.129 377.085 516.287 380.138 515.761 384.339C515.202 388.801 512.531 392.051 508.183 392.745C494.945 394.865 483.924 402.405 471.741 407.081C470.648 407.501 469.66 408.208 467.57 409.373C475.232 411.193 481.674 412.854 488.188 414.179C489.693 414.486 491.447 413.683 493.062 413.288C493.511 413.178 493.852 412.674 494.273 412.4C501.552 407.657 506.791 407.514 511.459 411.925C515.311 415.563 515.992 420.05 513.448 425.007C509.878 431.967 503.579 435.478 496.783 433.678C480.719 429.427 464.71 424.961 448.701 420.504C416.939 411.656 384.837 407.606 352.415 416.042C327.252 422.589 329.03 421.088 315.755 443.598C306.091 459.982 300.511 478.068 296.579 496.912C303.825 503.476 312.571 506.676 321.789 508.089C333.917 509.948 345.931 508.892 357.386 503.926C368.702 499.018 379.905 493.8 391.422 489.414C406.612 483.632 422.461 480.873 438.768 480.671C454.223 480.482 468.81 484.208 482.666 490.583C522.603 508.964 545.513 539.914 549.991 583.854C553.721 620.485 541.989 653.13 522.056 682.969C497.965 719.037 463.92 741.4 421.502 749.811C398.731 754.327 376.196 751.11 355.443 739.861C329.888 726.009 318.888 695.425 331.015 668.987C342.903 643.066 362.785 625.682 391.322 619.745C405.766 616.742 419.736 619.745 432.082 627.2C444.244 634.547 448.857 646.616 446.397 660.51C443.495 676.906 434.189 688.995 419.151 696.434C417.36 697.322 415.405 697.923 413.466 698.436C409.194 699.571 405.325 698.68 402.591 695.131C399.824 691.54 400.14 687.368 402.318 683.743C404.105 680.77 406.78 678.327 409.093 675.673C415.278 668.562 414.547 663.441 406.595 658.403C395.741 651.527 382.444 654.534 375.018 666.132C369.131 675.32 366.948 685.623 368.34 696.535C369.169 703.011 372.966 707.616 378.256 711.039C388.63 717.755 400.043 720.652 412.175 718.167C419.509 716.665 427.032 714.584 433.609 711.127C466.35 693.899 490.135 668.369 502.414 633.121C507.258 619.219 509.214 604.795 506.304 589.951C500.656 561.108 480.307 543.917 451.72 540.444C436.144 538.551 420.522 539.388 405.115 543.11C399.236 544.527 394.543 546.848 390.914 551.991C386.128 558.774 381.111 565.54 375.283 571.41C356.974 589.863 335.006 602.714 309.918 609.143C271.293 619.042 232.534 618.777 194.225 606.889C179.726 602.39 166.084 595.88 153.557 587.184C150.681 585.191 147.745 583.282 144.638 581.2C132.615 589.783 120.16 597.567 110.975 609.27C108.183 612.827 105.572 616.582 103.301 620.489C93.8689 636.717 95.6056 652.339 106.577 667.103C115.395 678.966 126.186 688.646 138.969 696.258C159.764 708.638 180.579 720.929 202.821 730.614C205.588 731.821 208.241 733.284 210.974 734.579C221.311 739.47 229.174 746.648 234.612 757.006C240.688 768.582 247.795 779.634 254.742 790.735C255.722 792.3 258.236 793.145 260.217 793.792C266.062 795.706 267.824 799.175 264.96 804.671C261.432 811.437 255.953 816.202 248.573 818.346C244.574 819.507 240.469 819.339 237.299 816.029C234.305 812.905 234.486 809.352 235.941 805.487C236.597 803.75 237.072 801.341 236.378 799.797C232.677 791.543 228.96 783.25 224.465 775.416C222.185 771.45 218.262 768.427 213.985 763.789C215.407 774.041 216.752 782.354 217.627 790.714C218.014 794.406 217.677 798.221 217.253 801.934C216.706 806.702 214.078 811.101 218.035 816.122C220.238 818.914 218.199 823.384 214.818 825.167C211.134 827.11 206.946 828.826 202.863 829.133C192.522 829.902 186.736 823.182 188.456 812.955C189.204 808.498 190.802 804.192 191.685 799.751C192.951 793.389 193.914 786.963 195.003 780.567C194.486 780.424 193.969 780.285 193.456 780.143C192.581 782.09 191.744 784.049 190.832 785.975C186.643 794.798 180.529 802.064 172.884 808.09C170.546 809.932 168.675 811.765 167.657 815.024C164.961 823.632 156.505 827.169 148.225 823.3C144.478 821.547 140.328 819.179 138.124 815.903C131.602 806.202 137.998 794.331 149.768 793.271C165.828 791.824 173.792 780.567 169.448 764.974C166.538 754.529 161.337 745.168 152.249 738.982C143.33 732.91 134.011 727.275 124.369 722.448C108.145 714.323 91.6107 706.88 76.8001 696.174C65.4083 687.944 55.648 678.272 48.2469 666.304C35.8122 646.191 34.0335 625.157 43.4489 603.458C50.0342 588.277 60.1854 575.796 74.5545 567.382C85.3786 561.045 96.7242 555.599 108.343 549.493C107.241 548.185 105.61 546.179 103.915 544.232C80.2861 517.046 64.1887 486.041 57.2418 450.617C52.2208 425.016 54.0753 399.398 58.7262 373.931C60.3536 365.021 62.4772 356.202 64.3737 347.342C72.6957 346.114 80.3618 349.218 88.2339 350.954C88.0657 351.686 87.9311 352.43 87.7208 353.154C79.9328 380.096 74.5882 407.337 77.3131 435.613C78.5831 448.796 82.1448 461.269 88.8268 472.736C91.2574 476.908 94.159 480.835 99.9159 480.415C101.669 484.704 103.427 488.989 105.181 493.278C104.117 494.834 102.094 496.415 102.14 497.938C102.422 507.82 104.584 517.265 111.564 524.762C116.253 529.8 119.478 528.82 122.102 522.063C122.939 523.001 123.894 523.854 124.6 524.884C135.538 540.877 149.596 553.871 164.776 565.578C187.341 582.983 212.635 593.992 241.34 596.658C247.021 597.184 252.387 596.869 257.639 595.006C265.507 592.213 268.665 587.352 268.581 578.997C268.564 577.34 268.796 575.683 268.875 574.518C273.648 573.412 277.967 572.903 281.899 571.389C289.043 568.639 291.058 563.337 288.299 556.175C287.521 554.157 286.642 552.176 285.751 550.04C287.13 549.472 288.068 549.14 288.959 548.707C299.666 543.513 301.423 535.343 293.686 526.217C292.239 524.51 290.511 522.879 288.589 521.781C284.447 519.418 280.082 517.441 275.822 515.276C267.761 511.171 259.712 507.046 251.655 502.929C252.652 498.425 251.256 494.477 248.691 490.881C245.919 487.004 243.249 483.014 240.112 479.448C224.78 462.021 213.342 442.518 207.556 419.885C205.07 410.167 202.518 400.466 199.738 390.828C198.792 387.544 197.047 384.486 195.668 381.324C195.668 377.83 195.668 374.335 195.668 370.841C205.958 372.426 216.243 374.016 226.534 375.601C229.658 407.716 243.316 435.344 262.946 461.765C264.981 458.258 266.706 455.634 268.076 452.841C270.961 446.963 273.602 440.966 276.445 435.066C290.006 406.925 312.874 392.358 343.505 388.826C358.912 387.052 374.24 388.418 389.597 389.066C392.978 389.713 396.359 390.357 399.791 391.013C399.408 395.315 398.95 399.297 398.735 403.292C398.613 405.546 398.676 408.355 401.729 408.25C402.667 408.216 404.051 405.449 404.282 403.801C404.774 400.331 404.446 396.753 404.871 393.271C404.976 392.19 406.443 391.269 407.297 390.277ZM86.207 661.3C85.7991 661.292 85.3912 661.313 84.9875 661.359C77.8976 648.142 76.1903 634.665 83.0993 620.674C81.5182 618.437 79.4282 618.82 78.1667 620.552C76.5939 622.709 75.1853 625.279 74.6638 627.861C71.5688 643.163 75.1011 657.263 83.4399 670.186C85.1346 672.814 87.8091 675.072 90.5088 676.725C94.0874 678.911 97.4517 677.124 98.5534 673.108C99.9495 668.016 96.2531 660.48 91.3793 658.638C88.7511 657.646 86.9892 658.592 86.207 661.3ZM345.157 688.159C344.144 707.082 356.869 727.544 379.926 733.785C393.807 737.54 407.898 737.687 421.826 734.739C439.521 730.992 455.337 722.54 470.732 713.335C471.796 712.7 472.936 711.88 473.533 710.854C474.193 709.714 474.273 708.238 474.605 706.905C473.074 706.973 471.106 706.443 470.084 707.195C459.424 715.08 447.204 719.878 435.194 725.059C418.39 732.304 400.834 732.855 383.307 729.024C359.417 723.806 345.54 700.875 351.654 678.041C357.562 655.972 378.555 640.825 400.287 643.214C418.882 645.257 426.96 659.526 422.667 674.509C422.322 675.715 421.708 676.906 421.658 678.121C421.624 678.949 422.293 680.467 422.764 680.518C423.815 680.627 425.039 680.169 426.006 679.618C426.557 679.302 426.826 678.382 427.082 677.684C431.157 666.599 428.558 649.711 415.459 642.701C408.399 638.92 400.914 637.028 392.941 637.486C367.327 638.958 345.245 662.44 345.157 688.159ZM118.99 557.983C119.583 557.332 120.139 556.44 120.938 555.898C123.187 554.363 125.958 553.568 127.725 555.935C128.852 557.445 129.31 560.309 128.696 562.096C126.644 568.063 122.086 572.193 116.766 575.275C108.705 579.947 100.181 583.87 92.3633 588.908C83.7217 594.48 75.1811 600.401 67.4646 607.163C58.3856 615.119 55.1686 626.048 55.9844 637.953C58.0407 667.923 76.6571 685.964 101.03 699.735C102.91 700.799 104.844 701.262 106.459 697.915C105.126 696.868 103.73 695.652 102.216 694.605C97.0354 691.035 91.514 687.889 86.6612 683.924C76.3501 675.493 68.0155 665.295 63.9659 652.452C57.3007 631.309 61.9053 616.734 77.8682 604.816C84.3063 600.01 91.2743 595.876 98.1918 591.759C104.466 588.025 111.127 584.939 117.367 581.158C121.211 578.828 125.117 576.188 128.023 572.844C130.908 569.527 133.09 565.338 134.621 561.179C136.068 557.247 133.847 552.891 130.311 550.776C126.535 548.518 122.641 548.606 118.843 550.814C115.084 553 112.578 556.284 113.07 560.633C113.263 562.336 115.504 564.257 117.283 565.145C118.221 565.616 120.164 564.077 121.652 563.446C120.883 561.856 120.109 560.267 118.99 557.983ZM439.858 522.197C442.217 519.275 441.342 517.218 438.47 516.121C433.428 514.199 428.18 513.64 422.94 515.343C419.139 516.579 416.01 518.896 415.556 523.097C415.127 527.067 417.89 529.535 420.972 531.512C430.497 537.635 449.265 537.378 458.47 530.688C461.039 528.82 463.365 526.251 464.988 523.518C468.713 517.248 467.498 510.406 461.67 506.024C458.541 503.674 454.71 501.949 450.938 500.814C439.101 497.265 426.977 497.509 415.039 499.973C391.923 504.746 370.43 513.858 350.002 525.57C348.698 526.318 347.146 527.021 346.368 528.181C345.653 529.249 345.834 530.91 345.594 532.471C347.138 532.471 347.701 532.626 348.113 532.441C349.48 531.823 350.834 531.15 352.121 530.376C365.792 522.202 380.342 515.982 395.384 510.86C408.554 506.373 421.956 502.652 436.014 503.888C442.431 504.452 449.05 505.717 454.979 508.135C463.247 511.504 463.915 518.879 457.208 524.851C455.732 526.163 453.958 527.286 452.128 528.026C443.579 531.487 434.904 531.394 426.355 528.118C424.265 527.315 422.57 525.477 420.182 523.741C427.095 516.975 433.596 520.583 439.858 522.197ZM345.788 562.714C340.569 559.531 337.701 563.038 334.838 565.448C330.872 568.778 329.686 572.899 331.225 576.057C332.769 579.228 337.1 581.57 341.566 580.796C351.061 579.152 358.555 574.362 362.125 565.069C365.704 555.755 359.993 547.054 350.069 546.036C344.354 545.448 339.098 546.92 334.085 549.539C317.639 558.139 307.008 572.495 296.852 587.285C296.335 588.042 296.861 589.509 296.899 590.649C298.198 590.46 300.04 590.746 300.7 589.997C303.181 587.176 305.263 584.001 307.525 580.981C313.896 572.495 320.633 564.236 329.653 558.505C334.657 555.326 340.279 552.504 346.007 551.234C354.362 549.384 359.985 556.478 357.049 564.051C354.202 571.406 344.905 576.091 336.617 574.211C335.658 567.542 343.53 567.857 345.788 562.714ZM478.713 502.046C475.513 505.263 477.195 506.634 478.335 508.346C483.617 516.281 488.638 524.397 493.987 532.286C498.625 539.132 503.331 545.961 508.524 552.378C510.458 554.771 513.675 556.448 516.636 557.617C520.841 559.279 524.672 557.533 527.006 553.749C532.165 545.385 526.16 530.646 516.661 528.333C511.875 527.168 508.734 529.687 508.81 534.653C508.848 537.096 509.462 539.59 512.321 539.502C515.147 539.418 514.571 536.781 514.663 534.821C514.676 534.594 515.471 534.401 516.135 534.081C519.508 535.49 521.53 538.249 522.737 541.68C524.243 545.952 523.473 551.066 520.98 552.075C517.275 553.572 514.777 551.007 512.363 548.841C506.072 543.19 502.044 535.931 497.956 528.661C494.142 521.874 489.962 515.267 485.585 508.829C483.856 506.285 481.152 504.405 478.713 502.046ZM304.699 544.388C307 545.662 307.605 546.264 308.244 546.306C316.137 546.848 327.163 539.544 329.602 532.231C331.558 526.369 329.207 520.162 323.963 517.37C317.992 514.182 309.804 516.773 308.328 522.681C307.878 524.485 308.597 527.235 309.825 528.648C311.373 530.423 313.997 531.676 316.276 528.547C315.481 526.718 314.678 524.872 313.871 523.009C317.883 520.742 321.146 520.763 323.723 524.111C325.843 526.861 325.46 531.596 322.117 534.317C318.505 537.252 314.115 539.228 310.044 541.587C308.698 542.365 307.29 543.038 304.699 544.388ZM510.774 670.291C510.084 669.727 509.394 669.164 508.705 668.6C502.868 671.081 500.643 677.498 496.135 681.443C491.548 685.455 487.473 690.055 483.045 694.529C486.329 697.364 488.545 696.14 490.332 694.307C496.274 688.205 502.145 682.032 507.859 675.724C509.197 674.239 509.823 672.116 510.774 670.291ZM388.256 530.948C387.793 530.313 387.335 529.678 386.872 529.043C379.854 531.066 373.391 534.325 367.739 539.228C367.234 539.666 367.167 541.604 367.545 541.848C368.42 542.416 369.955 542.895 370.754 542.487C376.103 539.767 381.372 536.873 386.557 533.85C387.406 533.362 387.705 531.941 388.256 530.948ZM290.692 425.075C291.579 432.716 294.876 439.095 297.567 445.621C297.752 446.071 299.531 446.349 300.183 445.995C300.839 445.638 301.558 444.187 301.323 443.577C298.905 437.366 296.31 431.227 293.694 425.096C293.614 424.919 292.773 425.075 290.692 425.075ZM525.403 627.343C524.432 627.798 523.326 627.974 523.2 628.424C521.514 634.387 519.907 640.371 518.465 646.397C518.305 647.07 519.445 648.756 519.655 648.701C520.925 648.373 522.956 647.898 523.17 647.066C524.655 641.338 525.82 635.522 526.896 629.698C527.014 629.047 525.954 628.176 525.403 627.343ZM279.157 451.807C278.278 459.25 282.269 463.796 285.473 468.539C285.982 469.292 287.597 469.296 288.699 469.649C288.934 468.358 289.754 466.794 289.304 465.823C287.424 461.769 285.255 457.837 282.975 453.994C282.483 453.161 281.087 452.871 279.157 451.807ZM321.818 422.417C322.609 417.627 321.188 407.497 319.178 404.898C318.644 404.209 317.113 404.284 315.494 403.868C315.443 410.218 316.495 415.739 318.673 421.004C318.98 421.753 320.666 421.933 321.818 422.417ZM423.992 393.944C419.551 401.782 421.044 409.991 427.133 411.273C426.435 405.638 427.986 399.987 423.992 393.944ZM370.796 408.426C375.212 402.728 374.757 395.588 369.976 390.218C367.558 396.467 368.109 401.82 370.796 408.426ZM344.732 413.111C347.441 405.319 345.174 396.942 339.775 393.826C339.51 400.689 340.14 406.526 344.732 413.111ZM446.102 399.394C441.38 404.31 441.245 408.355 445.245 412.299C448.049 408.044 448.344 404.776 446.102 399.394Z" fill="#260944"/>
<path d="M248.36 169.83C249.39 174.187 250.194 178.619 251.56 182.871C252.094 184.532 253.848 185.827 255.122 187.219C257.641 189.965 260.887 192.29 262.649 195.448C269.226 207.219 262.826 218.699 249.361 219.796C246.893 219.998 244.391 219.826 241.872 219.826C234.786 233.278 232.902 247.113 237.284 261.596C239.609 269.291 244.853 275.203 250.059 280.973C258.272 290.077 268.6 296.486 279.432 301.948C286.333 305.43 293.705 305.506 300.441 301.385C304.907 298.656 309.382 295.594 312.973 291.839C330.096 273.938 345.117 254.401 357.943 233.152C361.95 226.512 362.228 220.793 357.762 214.321C351.383 205.074 347.413 194.746 346.156 183.514C345.474 177.433 345.895 171.441 348.502 165.76C350.395 161.639 353.431 158.695 357.758 157.455C362.564 156.075 365.155 158.8 363.851 163.56C363.717 164.044 363.603 164.57 363.325 164.969C355.479 176.411 362.489 186.289 365.975 196.537C366.53 196.638 367.085 196.743 367.636 196.849C370.096 189.603 372.417 182.303 375.062 175.129C376.879 170.2 378.67 165.15 381.336 160.671C384.658 155.091 390.861 152.951 396.34 154.435C400.92 155.676 402.93 160.079 399.507 162.825C390.646 169.935 390.121 180.839 385.97 190.061C384.759 192.749 384.343 195.793 384.364 199.145C391.5 190.894 398.582 182.589 405.81 174.422C408.46 171.428 411.189 168.375 414.397 166.058C416.731 164.372 419.83 163.401 422.728 162.904C428.48 161.912 432.812 163.872 434.464 167.56C436.209 171.441 435.108 177.555 431.626 180.856C429.654 182.728 427.24 184.246 424.809 185.503C418.19 188.922 412.77 193.611 408.161 199.464C400.369 209.359 391.719 218.627 384.515 228.917C374.129 243.749 364.145 258.925 355.037 274.569C345.731 290.548 335.34 305.514 322.834 319.173C306.282 337.251 279.302 341.666 256.893 331.187C247.994 327.028 240.644 321.204 234.883 313.286C233.192 310.96 231.317 308.769 228.533 305.27C224.256 327.671 223.495 348.369 225.72 369.214C216.321 367.785 206.923 366.355 197.528 364.925C202.44 361.712 202.553 356.586 202.36 351.662C202.154 346.481 201.532 341.267 200.484 336.195C199.706 332.423 197.961 328.849 196.645 325.186C197.823 314.459 198.937 303.723 200.207 293.008C200.976 286.528 202.251 280.103 202.814 273.606C203.163 269.569 202.583 265.262 198.735 262.857C194.757 260.368 190.989 262.344 187.495 264.548C185.308 265.923 183.184 267.395 180.724 269.026C180.245 264.606 180.035 261.104 179.442 257.668C178.87 254.35 177.608 250.607 173.84 250.599C171.271 250.591 168.382 252.584 166.204 254.371C163.853 256.301 162.158 259.03 159.694 261.995C159 259.228 158.542 257.542 158.159 255.839C156.528 248.576 155.552 247.845 148.53 246.28C143.883 245.246 139.901 246.608 136.536 249.262C133.227 251.873 129.766 254.872 127.777 258.475C121.225 270.334 114.497 282.209 109.363 294.703C103.164 309.778 98.5636 325.51 93.1305 340.909C92.5334 342.6 90.9986 343.958 89.9011 345.472C82.2182 343.828 74.5353 342.179 66.8525 340.535C74.8297 313.412 88.8959 289.362 105.275 265.628C101.305 264.855 97.996 264.131 94.657 263.568C56.6549 257.151 24.498 216.478 36.2473 172.143C42.1724 149.784 52.1722 130.483 68.4336 114.145C78.0593 104.474 87.6681 94.8648 99.3417 87.6109C101.524 86.2568 102.798 84.5873 103.652 81.896C104.821 78.1955 106.966 74.6084 109.4 71.5345C122.218 55.3572 135.258 39.3565 148.214 23.2928C150.334 20.6645 151.456 17.9942 150.901 14.2979C150.157 9.36103 151.902 6.99771 155.498 6.05575C159.808 4.92456 163.798 6.5772 165.274 10.9464C166.187 13.6503 166.709 17.1238 165.792 19.6721C164.03 24.5669 161.612 29.3945 158.58 33.6206C153.189 41.1395 147.142 48.1916 141.822 56.2697C144.816 54.8105 147.945 53.5784 150.771 51.8501C157.646 47.6449 164.471 43.3346 171.128 38.7972C173.357 37.2792 175.056 34.9747 176.935 32.9689C179.206 30.5467 181.927 29.2262 185.047 30.7275C188.369 32.3255 189.61 35.4667 188.975 38.9865C187.953 44.6508 185.11 49.4994 180.476 52.8551C176.01 56.0889 171.149 58.797 166.347 61.5346C157.878 66.3579 149.316 71.0299 141.099 77.2115C142.34 77.3418 143.605 77.7035 144.816 77.5647C154.833 76.4167 164.854 75.3065 174.833 73.8767C177.503 73.4941 179.955 71.6985 182.625 71.2107C184.644 70.8448 187.301 70.8532 188.87 71.9003C191.225 73.4731 191.09 76.5807 189.61 78.7421C187.81 81.3704 185.594 83.9271 183.025 85.769C177.966 89.3854 171.927 90.3778 165.83 90.8068C158.281 91.3366 150.737 91.9127 143.181 92.2954C134.8 92.7159 127.832 95.2601 121.827 101.816C116.276 107.876 109.434 112.876 102.71 117.724C91.3224 125.933 81.5454 135.642 73.6018 147.152C62.0039 163.96 59.0982 182.694 64.3631 202.017C70.9442 226.154 88.362 234.401 113.917 232.727C121.415 232.235 126.276 228.711 129.4 221.701C132.747 214.195 134.93 206.575 134.997 198.4C135.048 192.378 134.085 191.664 128.231 190.692C123.803 189.956 119.097 189.397 115.174 187.442C102.432 181.088 101.339 165.276 112.748 157.185C118.269 153.27 123.917 152.984 129.669 156.681C131.759 158.022 133.832 159.389 136.154 160.899C142.344 155.499 148.37 150.247 154.4 144.99C155.846 146.21 157.104 147.905 158.773 148.548C162.032 149.801 165.502 150.512 168.904 151.361C192.974 157.387 217.04 163.426 241.136 169.351C243.457 169.872 245.955 169.675 248.36 169.83ZM53.2782 158.926C53.2025 158.19 53.3707 157.274 52.9923 156.761C52.3699 155.911 51.4447 155.23 50.5196 154.696C50.3556 154.603 49.0772 155.848 49.1655 156.008C49.6786 156.946 50.3346 157.892 51.1756 158.539C51.6802 158.931 52.6012 158.779 53.3371 158.872C53.3287 160.058 53.0133 161.353 53.3918 162.396C53.8081 163.556 54.8593 164.486 55.6331 165.516C56.5288 164.759 58.0553 164.082 58.1604 163.228C58.295 162.143 57.5423 160.617 56.676 159.839C55.8939 159.145 54.4346 159.204 53.2782 158.926ZM170.279 196.76C175.216 199.027 178.924 201.76 182.932 202.294C187.188 202.862 191.721 201.348 196.279 200.722C203.811 210.284 206.317 211.02 218.558 207.61C222.961 209.271 226.54 211.163 230.341 211.937C237.759 213.442 237.809 213.181 239.26 208.207C234.66 205.944 227.915 209.115 224.458 202.883C225.774 201.15 227.221 199.7 228.121 197.967C229.958 194.426 231.935 190.856 233.037 187.063C234.016 183.691 231.674 179.666 229.05 178.926C225.472 177.913 222.885 179.952 221.716 182.786C220.03 186.882 219.151 191.319 218.041 195.637C217.557 197.521 217.89 199.834 216.893 201.314C214.689 204.599 208.495 205.141 205.224 202.786C201.044 199.775 200.745 196.84 204.231 192.071C207.095 188.152 209.841 184.077 209.101 179.002C208.815 177.059 207.423 174.645 205.808 173.733C204.572 173.035 201.83 173.867 200.417 174.91C198.693 176.18 197.099 178.207 196.443 180.226C195.295 183.758 195.098 187.589 194.114 191.188C193.647 192.891 192.667 195.015 191.271 195.806C186.145 198.716 180.396 197.029 176.662 192.294C178.651 188.337 180.914 184.687 182.369 180.743C184.492 174.986 182.713 169.645 178.836 168.375C174.951 167.105 170.068 170.419 168.668 176.323C167.545 181.067 167.646 186.096 167.125 191.84C164.034 194.372 159.501 195.284 155.233 193.093C150.725 190.776 149.749 186.003 150.313 181.277C150.817 177.063 151.995 172.93 152.747 168.741C153.025 167.185 152.932 165.558 153.012 163.964C152.508 163.695 152.003 163.426 151.503 163.157C150.296 164.422 148.513 165.486 147.979 166.992C145.59 173.703 144.539 180.709 145.704 187.786C147.15 196.558 155.09 201.42 163.71 199.06C166.12 198.404 168.437 197.412 170.279 196.76ZM222.974 247.567C219.168 245.565 214.631 248.829 211.674 243.858C213.251 242.21 215.228 240.679 216.498 238.698C218.63 235.372 220.808 231.928 222.053 228.223C223.314 224.468 221.271 220.751 218.26 219.283C215.102 217.748 211.578 218.657 209.139 222.332C207.503 224.792 206.367 227.693 205.552 230.553C204.673 233.623 204.429 236.873 203.924 239.947C195.569 240.658 193.146 239.396 190.543 234.182C192.541 228.034 194.555 222.967 195.674 217.706C196.002 216.15 194.24 213.324 192.659 212.382C190.161 210.898 187.348 212.517 186.401 214.922C184.879 218.8 183.723 222.954 183.281 227.088C182.469 234.733 176.704 237.828 169.299 233.812C171.006 230.801 173.008 227.908 174.358 224.741C176.872 218.842 175.115 212.959 170.863 211.844C166.41 210.675 162.079 214.426 160.952 220.906C160.359 224.308 160.481 227.836 160.291 231.18C153.672 233.694 149.694 232.374 147.146 226.785C144.951 221.974 144.997 217.046 146.856 212.105C147.596 210.137 149.715 207.601 146.242 206.537C143.323 205.642 142.424 208.556 141.864 210.633C140.271 216.562 139.959 222.614 142.184 228.438C144.329 234.043 148.315 237.824 154.652 237.668C159.82 237.542 164.61 236.924 169.522 240.229C171.835 241.785 176.313 240.402 179.749 239.922C181.624 239.661 183.378 238.509 185.228 237.744C189.669 243.215 195.077 246.015 201.889 245.448C204.454 245.233 206.048 246.163 207.537 248.219C210.156 251.84 214.193 252.546 218.323 252.407C221.018 252.311 223.154 251.217 222.974 247.567ZM249.828 203.043C249.454 202.9 249.079 202.753 248.705 202.61C248.705 200.856 248.936 199.065 248.621 197.37C248.423 196.315 247.208 194.523 246.792 194.616C245.539 194.893 243.499 195.89 243.465 196.676C243.301 200.616 243.007 204.767 244.042 208.484C245.429 213.476 250.105 214.14 253.057 209.838C255.446 206.365 257.044 202.294 258.6 198.337C258.987 197.357 257.86 195.78 257.427 194.477C256.157 194.956 254.386 195.066 253.713 195.986C252.141 198.131 251.089 200.667 249.828 203.043ZM120.397 173.59C120.397 170.146 120.637 168.22 120.321 166.391C120.069 164.914 119.14 163.556 118.513 162.143C117.256 163.127 114.976 164.052 114.918 165.104C114.686 169.288 114.577 173.644 115.502 177.69C116.646 182.673 121.335 183.556 124.451 179.557C126.595 176.807 128.235 173.602 129.699 170.419C130.17 169.393 129.367 167.782 129.148 166.441C127.794 166.685 126.053 166.491 125.174 167.274C123.606 168.666 122.554 170.642 120.397 173.59ZM360.23 257.63C359.499 256.617 359.162 255.637 358.666 255.549C355.95 255.065 353.195 254.686 350.445 254.573C349.919 254.552 348.864 255.91 348.906 256.579C348.948 257.311 350.02 258.602 350.58 258.568C352.905 258.433 355.184 257.529 357.384 259.325C357.657 259.548 359.129 258.303 360.23 257.63ZM245.421 311.81C246.561 310.481 247.872 309.614 247.856 308.778C247.839 307.962 246.476 306.549 245.686 306.536C244.845 306.524 243.428 307.756 243.289 308.609C243.163 309.387 244.412 310.388 245.421 311.81ZM373.296 227.294C371.875 226.129 371.017 224.876 370.171 224.88C369.284 224.884 368.405 226.104 367.522 226.789C368.25 227.639 368.876 229.027 369.73 229.186C370.567 229.342 371.635 228.244 373.296 227.294ZM54.8173 195.217C53.2866 194.187 52.3153 193.018 51.4742 193.106C50.6206 193.194 49.8973 194.523 49.1193 195.309C49.9436 196.071 50.7172 197.349 51.6045 197.437C52.4161 197.513 53.3497 196.293 54.8173 195.217ZM340.033 275.124C338.372 274.224 337.3 273.16 336.459 273.32C335.618 273.479 335.008 274.863 334.297 275.712C335.184 276.398 336.076 277.613 336.963 277.613C337.796 277.613 338.633 276.33 340.033 275.124ZM66.2553 224.636C66.6632 224.006 67.0753 223.371 67.4832 222.74C66.3268 222.319 65.1326 221.487 64.0308 221.6C63.0889 221.697 61.6213 222.815 61.5498 223.589C61.4699 224.434 62.5843 225.923 63.4505 226.159C64.1906 226.365 65.305 225.196 66.2553 224.636ZM253.713 300.136C253.348 299.56 252.978 298.984 252.612 298.408C251.645 297.865 250.627 296.835 249.727 296.927C248.928 297.007 248.255 298.336 247.528 299.114C248.65 299.728 249.714 300.603 250.913 300.872C251.75 301.053 252.771 300.409 253.713 300.136ZM343.923 274.573C343.002 275.935 341.803 277.008 342.005 277.579C342.325 278.471 343.561 279.501 344.469 279.564C345.125 279.606 346.48 278.126 346.429 277.399C346.366 276.566 345.1 275.817 343.923 274.573ZM315.387 296.091C314.251 297.495 313.259 298.269 312.998 299.24C312.876 299.707 314.201 301.137 314.768 301.082C315.757 300.985 316.669 300.077 317.611 299.509C317.01 298.584 316.408 297.655 315.387 296.091ZM74.9601 127.913C74.1022 129.381 73.2402 130.285 73.1476 131.256C73.0972 131.778 74.3797 132.425 75.0609 133.014C75.7758 132.169 76.7683 131.416 77.0837 130.445C77.2225 130.003 76.0198 129.129 74.9601 127.913ZM285.589 319.955C284.571 321.662 283.688 322.558 283.6 323.529C283.553 324.051 284.865 325.165 285.563 325.161C286.283 325.157 287.624 324.068 287.578 323.555C287.494 322.575 286.611 321.675 285.589 319.955ZM100.414 100.046C99.1735 98.9144 98.5426 97.8883 97.8277 97.8252C97.1928 97.7663 96.4569 98.7714 95.7672 99.3096C96.3097 99.9951 96.7471 101.08 97.4241 101.261C98.0801 101.433 98.98 100.676 100.414 100.046ZM285.698 309.526C284.579 310.779 283.6 311.465 283.318 312.365C283.179 312.815 284.601 314.316 284.828 314.215C285.799 313.794 286.779 313.075 287.342 312.196C287.536 311.894 286.522 310.821 285.698 309.526ZM45.7972 201.806C44.9856 200.595 44.6449 199.54 43.9931 199.283C43.3497 199.031 42.391 199.595 41.5668 199.801C41.9536 200.738 42.143 201.878 42.8116 202.53C43.1228 202.833 44.3591 202.189 45.7972 201.806ZM60.1873 231.903C58.9426 231.049 58.1646 230.103 57.517 230.183C56.8021 230.271 56.205 231.306 55.5532 231.928C56.2177 232.576 56.8189 233.623 57.5716 233.753C58.1688 233.85 58.9552 232.824 60.1873 231.903ZM73.1729 125.062C71.7558 124.255 70.8979 123.376 70.1914 123.481C69.5564 123.578 68.6102 124.814 68.6817 125.449C68.7532 126.063 69.9349 126.946 70.6498 126.971C71.3016 126.992 71.9871 126.017 73.1729 125.062ZM106.528 105.306C105.04 104.398 104.148 103.536 103.139 103.372C102.672 103.296 101.987 104.583 101.402 105.252C102.235 105.933 102.987 106.921 103.938 107.178C104.455 107.32 105.309 106.236 106.528 105.306ZM381.912 222.66C382.564 221.272 383.346 220.381 383.178 219.737C383.001 219.056 381.874 218.144 381.239 218.198C380.63 218.253 379.625 219.46 379.684 220.078C379.755 220.797 380.785 221.428 381.912 222.66ZM321.698 303.576C320.698 305.014 319.966 305.657 319.831 306.406C319.739 306.915 320.483 307.575 320.857 308.168C321.568 307.701 322.653 307.365 322.88 306.725C323.09 306.145 322.367 305.228 321.698 303.576Z" fill="#260945"/>
<path d="M248.369 169.829C245.964 169.674 243.466 169.871 241.162 169.304C217.066 163.378 193 157.34 168.929 151.314C165.527 150.46 162.054 149.754 158.799 148.501C157.134 147.861 155.872 146.162 154.426 144.943C155.343 142.735 155.654 139.821 157.273 138.429C171.385 126.331 185.687 114.451 200.052 102.652C202.747 100.44 205.838 98.602 208.98 97.0629C217.07 93.0932 221.629 92.7484 228.79 101.243C232.604 105.768 236.031 111.112 237.928 116.667C242.793 130.902 246.788 145.439 250.951 159.909C251.994 163.53 252.793 167.453 248.369 169.829ZM178.58 139.426C179.796 139.968 180.384 140.052 180.687 140.389C186.94 147.462 193.803 148.766 202.125 143.614C206.17 141.112 207.567 141.932 210.678 146.52C216.519 155.145 219.391 155.801 227.47 152.727C232.642 150.759 233.323 151.305 236.641 156.162C237.81 157.874 238.117 160.771 241.519 159.855C241.83 159.287 242.343 158.681 242.486 158.004C242.633 157.298 242.558 156.482 242.356 155.776C240.455 149.102 234.812 145.599 227.894 146.949C225.232 147.466 222.659 148.421 220.098 149.157C218.891 148.017 217.861 147.26 217.096 146.289C208.471 135.389 208.437 135.275 195.628 140.763C192.609 142.058 190.321 141.646 188.017 139.729C186.856 138.766 185.859 137.601 184.682 136.663C178.702 131.89 171.873 135.86 169.224 141.499C168.866 142.26 170.187 143.803 170.965 145.494C173.816 143.219 176.116 141.39 178.58 139.426ZM233.063 136.625C236.057 133.921 235.073 132.004 233.727 130.04C229.223 123.45 224.013 121.108 216.17 123.257C212.281 124.321 209.35 123.913 206.507 121.285C205.775 120.608 204.833 120.158 204.059 119.519C197.848 114.355 191.078 117.622 186.726 120.671C185.7 121.39 185.561 123.375 184.623 125.772C187.045 125.364 188.404 125.502 189.299 124.922C195.06 121.18 200.136 121.915 204.938 126.705C208.08 129.834 211.835 130.641 216.002 128.762C221.166 126.432 225.203 127.946 228.597 132.239C229.871 133.858 231.544 135.158 233.063 136.625ZM212.28 110.595C225.346 117.63 225.346 117.63 228.698 112.824C223.908 110.376 219.173 107.887 214.375 105.528C211.414 104.069 208.904 105.591 206.978 107.534C205.998 108.522 205.224 110.831 205.72 111.932C206.658 114.027 208.471 113.303 209.98 111.937C210.674 111.31 211.624 110.965 212.28 110.595Z" fill="#B8D56C"/>
<path d="M66.8735 340.514C74.5563 342.158 82.239 343.807 89.9135 345.447C93.8916 346.393 97.874 347.343 101.856 348.29C105.801 348.727 109.741 349.164 113.685 349.606C116.612 350.148 119.539 350.691 122.466 351.233C126.023 351.965 129.581 352.701 133.139 353.437C133.811 353.739 134.488 354.042 135.165 354.345C139.543 354.766 143.921 355.186 148.298 355.602C149.968 356.103 151.633 356.599 153.302 357.099C157.268 357.919 161.233 358.739 165.203 359.559C168.151 360.152 171.073 360.993 174.051 361.229C175.586 361.351 177.2 360.388 178.781 359.917C179.252 363.714 182.23 363.045 184.719 363.243C187.89 363.668 191.06 364.093 194.231 364.517C195.337 364.648 196.439 364.778 197.545 364.913C206.943 366.342 216.338 367.772 225.736 369.202C247.023 373.697 268.516 372.057 290.164 372.259C290.483 368.361 288.044 367.73 286.127 366.897C275.774 362.411 265.353 358.125 253.974 356.906C253.326 356.839 252.738 356.221 250.98 355.182C252.826 354.076 253.974 352.835 255.223 352.726C263.49 352.007 270.959 355.304 278.528 357.856C282.317 359.135 285.975 360.859 289.579 362.608C291.35 363.47 293.078 364.643 294.47 366.027C298.515 370.043 297.615 374.395 292.27 376.599C290.214 377.448 287.931 378.167 285.74 378.197C274.672 378.356 263.587 378.584 252.532 378.146C246.085 377.89 239.698 376.346 233.264 375.564C231.043 375.295 228.756 375.577 226.502 375.606C216.212 374.021 205.926 372.431 195.636 370.846C190.341 369.677 185.102 367.474 178.773 369.172C180.123 370.854 180.796 371.59 181.351 372.406C184.669 377.276 184.097 381.208 179.315 384.547C178.298 385.257 176.145 385.686 175.413 385.11C174.593 384.467 174.454 382.469 174.656 381.161C174.866 379.803 175.838 378.563 176.006 378.218C174.059 373.844 172.537 370.417 170.678 366.246C170.068 366.178 168.353 365.985 166.637 365.791C161.957 364.95 157.272 364.109 152.587 363.268C149.328 362.818 146.069 362.364 142.81 361.914C140.994 361.3 139.177 360.682 137.361 360.068C135.939 359.77 134.514 359.471 133.092 359.173C129.408 358.567 125.725 357.957 122.041 357.352C119.594 356.834 117.146 356.317 114.699 355.8C112.054 354.152 109.783 354.425 107.992 357.12C107.386 356.166 106.936 354.559 106.141 354.37C102.765 353.554 99.2868 353.159 95.847 352.608C93.2987 352.057 90.7504 351.511 88.2063 350.96C80.3342 349.223 72.6682 346.12 64.3503 347.348C63.3873 346.612 62.5253 345.472 61.4487 345.207C50.4943 342.52 39.3673 340.447 28.5769 337.234C20.709 334.892 12.8916 331.78 5.74705 327.777C-1.64984 323.63 -1.84755 318.038 4.81344 312.815C9.10271 309.455 14.1027 306.511 19.2541 304.846C30.6921 301.158 42.3825 298.202 54.0729 295.372C57.4076 294.564 61.1081 295.048 64.611 295.33C65.7884 295.422 66.865 296.722 69.5815 298.53C62.849 299.573 57.8575 300.426 52.8491 301.112C38.0007 303.143 24.0269 307.903 10.8521 314.9C5.01531 318 4.88075 321.545 10.7806 324.484C17.4542 327.806 24.5442 330.569 31.7392 332.512C43.3245 335.636 55.1494 337.89 66.8735 340.514Z" fill="#F4D9F8"/>
<path d="M179.534 688.551C178.222 684.867 176.691 681.259 175.653 677.516C173.293 668.988 173.39 669.035 164.673 668.829C162.074 668.765 159.488 668.168 155.262 667.592C158.046 663.534 159.576 660.376 161.935 658.055C166.881 653.177 167.999 647.979 165.22 641.608C163.929 638.648 163.109 635.402 162.625 632.206C162.402 630.717 163.041 628.413 164.126 627.614C165.173 626.844 167.734 626.907 168.866 627.698C172.751 630.414 176.296 633.61 180.459 637.021C183.356 634.649 186.367 632.185 189.563 629.565C194.151 632.668 193.129 637.13 191.998 640.561C190.19 646.036 191.695 649.695 195.753 653.185C198.802 655.809 201.716 658.673 204.231 661.802C205.24 663.059 205.598 665.473 205.131 667.024C204.883 667.84 202.208 668.286 200.64 668.257C197.654 668.198 194.681 667.411 191.704 667.416C186.931 667.424 185.539 668.786 185.114 673.656C184.849 676.663 185.03 679.703 185.009 682.731C184.997 685.393 184.618 687.823 179.534 688.551Z" fill="#F9DEFB"/>
<path d="M501.879 487.792C505.029 487.792 506.841 487.279 508.166 487.872C524.957 495.349 539.932 505.286 550.331 520.858C552.345 523.877 553.754 527.666 554.237 531.261C554.969 536.686 550.655 539.281 546.012 536.27C543.127 534.403 540.621 531.699 538.506 528.94C528.699 516.152 518.679 503.604 505.941 493.503C504.558 492.406 503.788 490.534 501.879 487.792Z" fill="#F9DA79"/>
<path d="M554.418 557.302C559.195 556.562 560.944 559.418 562.572 561.709C572.012 574.998 577.159 589.636 575.78 606.171C575.696 607.167 575.654 608.198 575.372 609.148C573.799 614.4 569.203 615.7 565.894 611.368C563.543 608.29 561.752 604.404 560.915 600.616C558.429 589.379 556.428 578.03 554.502 566.68C553.98 563.644 554.418 560.448 554.418 557.302Z" fill="#B7D56F"/>
<path d="M390.242 477.204C390.532 476.241 390.524 475.568 390.839 475.336C403.493 466.094 416.827 458.137 432.639 455.867C437.239 455.206 442.121 455.917 446.785 456.615C448.349 456.851 450.565 458.865 450.776 460.311C450.986 461.758 449.417 464.437 448.009 464.983C441.272 467.595 434.426 470.051 427.433 471.842C417.744 474.323 407.896 476.199 398.097 478.242C395.537 478.776 392.765 480.32 390.242 477.204Z" fill="#D86964"/>
<path d="M443.004 545.912C450.683 543.443 456.128 545.748 461.355 547.947C473.012 552.85 481.292 561.172 485.249 573.405C485.707 574.818 485.968 576.319 486.103 577.804C486.368 580.76 485.602 583.392 482.726 584.755C479.395 586.332 477.638 583.741 475.855 581.702C474.879 580.588 474.101 579.234 473.496 577.875C468.908 567.564 461.095 560.42 451.36 555.121C449.598 554.162 447.63 553.313 446.309 551.896C444.972 550.462 444.324 548.397 443.004 545.912Z" fill="#F9DA79"/>
<path d="M351.764 478.751C349.124 481.917 346.928 484.554 344.742 487.174C340.68 485.706 340.444 483.069 341.542 480.286C342.791 477.106 341.815 475.37 339.166 473.36C335.347 470.466 335.247 467.687 339.056 464.966C342.055 462.826 342.576 460.378 342.467 457.237C342.345 453.806 343.333 450.812 346.432 448.263C347.383 448.726 348.812 448.961 349.418 449.794C351.975 453.314 354.06 456.753 359.628 454.39C361.928 453.415 363.69 455.858 363.312 458.633C363.181 459.592 362.761 460.656 362.13 461.375C358.51 465.504 358.665 469.886 360.574 474.726C361.197 476.307 360.599 478.368 360.557 480.21C358.69 480.105 356.811 480.088 354.956 479.857C354.006 479.735 353.102 479.23 351.764 478.751Z" fill="#F9DEFB"/>
<path d="M490.031 587.046C491.377 588.939 493.248 590.646 493.984 592.749C498.08 604.502 498.917 616.373 493.744 628.051C492.55 630.742 490.717 633.333 488.601 635.364C487.399 636.516 484.711 637.252 483.265 636.693C481.898 636.163 480.847 633.795 480.447 632.059C480.01 630.166 480.25 628.022 480.599 626.062C482.659 614.451 484.825 602.858 487.003 591.268C487.226 590.074 487.785 588.943 488.189 587.782C488.799 587.534 489.413 587.29 490.031 587.046Z" fill="#B7D56F"/>
<path d="M401.546 552.438C403.279 552.022 405.121 551 406.727 551.29C416.017 552.959 424.696 556.088 431.378 563.207C432.408 564.305 433.46 565.407 434.322 566.63C436.105 569.166 437.795 572.072 435.575 574.915C433.161 577.997 430.1 576.222 427.371 574.923C426.244 574.389 425.163 573.699 424.183 572.921C416.551 566.849 408.943 560.739 401.332 554.641C401.408 553.906 401.479 553.174 401.546 552.438Z" fill="#D86964"/>
<path d="M30.0596 284.779C29.4414 282.05 29.0251 280.208 28.5037 277.896C27.6458 277.605 26.4936 277.294 25.4045 276.832C21.0395 274.994 20.1606 272.383 23.6719 269.801C27.4061 267.055 29.6307 264.275 29.3784 259.401C29.248 256.836 32.3766 254.599 33.8947 256.369C37.0443 260.04 41.9434 259.632 45.7954 262.61C42.2546 267.95 42.3135 273.295 46.8845 279.805C42.6541 279.485 40.1309 279.296 37.3765 279.09C35.2992 280.7 33.0242 282.471 30.0596 284.779Z" fill="#F9DEFB"/>
<path d="M375.653 153.829C374.324 151.087 372.987 149.527 372.865 147.875C372.213 139.04 373.251 130.415 377.129 122.307C377.558 121.407 378.045 120.524 378.621 119.713C380.274 117.383 382.204 115.28 385.417 116.353C388.407 117.349 388.314 120.179 388.373 122.635C388.415 124.359 388.243 126.205 387.654 127.808C385.169 134.595 382.583 141.348 379.824 148.026C379.122 149.733 377.646 151.113 375.653 153.829Z" fill="#8D4CD4"/>
<path d="M411.558 161.656C408.236 159.894 408.64 157.047 409.46 154.393C412.13 145.777 417.113 138.632 424.018 132.876C425.927 131.282 428.207 129.713 430.826 131.496C433.543 133.347 433.03 136.307 431.613 138.216C425.826 146.008 419.674 153.536 413.585 161.101C413.219 161.551 412.21 161.492 411.558 161.656Z" fill="#8D4CD4"/>
<path d="M259.414 413.205C262.16 414.42 264.43 415.312 266.583 416.43C267.631 416.973 269.346 418.104 269.241 418.689C268.674 421.763 267.261 424.694 266.823 427.772C266.205 432.133 264.397 433.171 260.141 432.04C258.388 431.573 256.083 433.163 253.909 433.857C251.861 431.182 249.797 428.491 247.219 425.131C251.088 421.346 255.133 417.393 259.414 413.205Z" fill="#F9DEFB"/>
<path d="M185.816 60.3151C186.771 58.3891 187.023 56.9972 187.86 56.337C193.747 51.665 200.631 49.5036 208.045 49.6297C209.811 49.6592 212.162 51.4337 213.045 53.0527C213.516 53.919 211.83 57.0014 210.438 57.6658C202.982 61.2234 195.265 63.8558 185.816 60.3151Z" fill="#8D4CD4"/>
<path d="M268.833 398.448C266.331 400.273 264.539 402.598 262.433 402.935C255.078 404.108 247.618 404.642 240.183 405.26C239.54 405.315 238.804 404.179 237.609 403.178C244.497 398.418 252.571 400.845 259.539 396.711C255.094 395.302 250.654 393.898 246.31 392.523C245.381 389.957 246.676 388.885 248.74 389.015C256.087 389.491 263.143 390.807 268.833 398.448Z" fill="#F9DEFB"/>
<path d="M50.5456 362.699C46.2395 362.977 43.0099 362.926 39.8812 363.461C37.0259 363.948 34.2799 365.071 30.7266 366.143C36.2143 372.556 43.9645 372.998 51.1848 377.224C49.1537 378.393 47.8752 379.777 46.7314 379.676C39.8097 379.053 33.6997 376.034 28.2498 371.963C24.9066 369.466 25.0412 364.171 28.3506 362.245C34.6121 358.595 41.3909 357.262 48.506 359.651C49.0274 359.827 49.2924 360.773 50.5456 362.699Z" fill="#F9DEFB"/>
<path d="M407.295 390.278C406.441 391.274 404.978 392.195 404.843 393.276C404.419 396.758 404.743 400.341 404.255 403.806C404.019 405.454 402.64 408.225 401.702 408.255C398.649 408.36 398.586 405.555 398.708 403.297C398.923 399.302 399.381 395.32 399.764 391.018C396.332 390.362 392.947 389.714 389.57 389.071C395.479 389.474 401.387 389.874 407.295 390.278Z" fill="#D86964"/>
<path d="M231.316 344.433C235.665 339.408 238.28 339.399 252.275 343.524C250.576 344.836 249.462 346.422 248.461 346.355C243.125 345.989 237.813 345.211 231.316 344.433Z" fill="#F9DEFB"/>
<path d="M95.8532 352.608C99.2931 353.159 102.771 353.554 106.147 354.37C106.938 354.563 107.388 356.165 107.998 357.12C104.091 361.813 100.832 366.901 105.407 372.667C108.923 377.09 108.25 380.291 105.151 384.643C100.349 391.38 102.935 398.095 110.76 400.707C111.858 401.073 113.624 400.395 114.629 399.622C115.046 399.298 114.671 397.006 113.969 396.371C112.14 394.71 109.924 393.474 107.691 391.947C110.222 388.154 111.719 385.871 113.258 383.621C115.294 380.64 116.11 377.153 113.649 374.504C108.507 368.97 109.314 363.949 113.658 358.626C114.259 357.89 114.369 356.754 114.705 355.804C117.152 356.321 119.6 356.838 122.043 357.356C122.064 357.856 122.018 358.369 122.115 358.857C123.33 364.95 125.104 367.738 127.909 367.326C132.569 366.636 132.194 362.435 133.098 359.181C134.52 359.479 135.941 359.778 137.362 360.076C137.283 362.738 136.139 366.094 137.337 367.919C140.079 372.099 139.898 375.232 137.442 379.5C134.478 384.651 138.834 391.737 144.747 392.275C145.756 392.368 147.35 391.619 147.787 390.795C148.195 390.021 147.758 388.339 147.097 387.566C145.832 386.094 144.145 384.988 142.657 383.751C142.896 382.767 142.884 381.926 143.275 381.371C146.799 376.321 147.442 371.397 143.351 366.224C142.585 365.257 142.968 363.386 142.817 361.931C146.076 362.381 149.335 362.831 152.589 363.285C151.059 374.113 151.538 384.946 153.666 395.581C154.73 400.904 157.114 406.035 159.427 411.005C160.747 413.839 163.498 415.589 166.954 414.744C170.575 413.852 171.412 410.879 171.332 407.708C171.223 403.448 170.941 399.176 170.432 394.941C169.267 385.215 167.917 375.513 166.643 365.8C168.359 365.993 170.074 366.186 170.684 366.254C172.539 370.425 174.065 373.852 176.012 378.226C175.844 378.566 174.873 379.807 174.662 381.169C174.46 382.477 174.603 384.47 175.419 385.118C176.151 385.694 178.304 385.265 179.322 384.555C184.103 381.216 184.675 377.284 181.357 372.414C180.802 371.598 180.129 370.863 178.779 369.18C185.108 367.482 190.348 369.681 195.642 370.854C195.642 374.349 195.642 377.843 195.638 381.338C190.861 381.153 190.671 384.353 190.613 387.898C190.419 399.773 191.723 411.48 194.078 423.112C198.821 446.53 206.723 468.616 220.89 488.157C225.722 494.823 231.899 499.822 239.052 503.763C243.455 506.185 247.639 506.374 251.625 502.943C259.678 507.06 267.731 511.185 275.793 515.289C280.048 517.455 284.413 519.431 288.559 521.795C290.481 522.892 292.214 524.524 293.656 526.231C301.394 535.356 299.636 543.527 288.929 548.72C288.038 549.153 287.1 549.481 285.721 550.053C286.612 552.19 287.491 554.166 288.269 556.189C291.028 563.354 289.013 568.653 281.869 571.403C277.937 572.917 273.618 573.426 268.846 574.532C268.761 575.696 268.534 577.353 268.551 579.01C268.635 587.362 265.477 592.227 257.609 595.019C252.357 596.882 246.991 597.197 241.31 596.672C212.606 594.006 187.316 582.997 164.747 565.591C149.562 553.88 135.504 540.886 124.57 524.898C123.868 523.868 122.913 523.014 122.072 522.076C120.247 517.228 118.767 512.207 116.501 507.573C113.801 502.051 110.954 496.442 105.151 493.292C103.397 489.003 101.639 484.718 99.8859 480.428C103.418 478.267 103.94 474.819 103.578 471.181C102.333 458.692 101.24 446.181 99.6042 433.743C96.0635 406.787 93.9567 379.799 95.8532 352.608ZM277.521 530.054C277.058 529.179 276.284 526.336 274.455 524.612C271.974 522.27 268.888 520.239 265.7 519.044C259.359 516.668 252.66 515.255 246.31 512.901C234.384 508.477 222.908 502.854 215.595 491.992C209.439 482.846 203.825 473.204 199.141 463.233C193.817 451.892 189.86 439.916 185.125 428.293C184.46 426.657 182.072 424.062 181.643 424.272C179.587 425.282 177.505 426.833 176.285 428.738C175.495 429.97 175.823 432.237 176.26 433.877C180.192 448.675 183.274 463.797 188.518 478.124C196.538 500.045 209.284 518.931 229.893 531.319C239.611 537.164 249.594 542.509 261.083 544.124C269.909 545.365 277.668 539.612 277.521 530.054ZM236.655 589.889C236.76 589.54 236.865 589.191 236.97 588.842C238.232 588.842 239.498 588.934 240.751 588.825C247.509 588.236 250.877 583.291 247.946 577.248C246.508 574.283 243.8 571.294 240.898 569.818C234.426 566.521 227.542 563.993 220.709 561.466C205.789 555.945 191.163 549.835 178.237 540.369C158.569 525.962 141.875 508.594 127.569 488.893C125.941 486.652 124.305 484.419 122.678 482.178C121.143 480.067 119.301 479.495 116.761 480.496C112.245 482.27 111.547 484.419 114.327 489.364C122.628 504.141 132.64 517.753 144.112 530.138C165.201 552.9 189.46 571.567 218.152 583.922C224.077 586.478 230.473 587.929 236.655 589.889ZM125.748 376.67C124.242 378.159 122.577 379.117 122.018 380.518C121.303 382.309 121.358 384.454 121.29 386.451C120.903 398.066 122.224 409.525 124.293 420.942C130.319 454.163 142.703 484.646 163.561 511.378C169.759 519.326 176.811 526.567 185.836 531.504C191.685 534.704 195.642 535.146 197.589 532.425C200.503 528.346 198.249 524.578 195.949 521.324C191.744 515.377 187.206 509.658 182.652 503.969C172.892 491.774 163.447 479.406 156.37 465.365C144.499 441.821 136.74 416.968 131.959 391.106C131.278 387.431 130.188 383.802 128.965 380.265C128.536 379.033 127.119 378.146 125.748 376.67ZM248.745 564.801C250.027 563.935 252.702 563.081 253.227 561.508C253.745 559.961 252.37 557.501 251.272 555.789C250.536 554.641 248.921 553.943 247.572 553.312C240.986 550.234 234.422 547.084 227.689 544.347C226.239 543.754 223.316 544.153 222.547 545.192C221.672 546.374 221.668 549.481 222.627 550.541C229.397 558.009 237.98 562.446 248.745 564.801ZM144.04 411.863C143.674 411.993 143.313 412.119 142.947 412.25C145.369 418.73 147.594 425.294 150.369 431.615C150.937 432.906 153.569 433.881 155.234 433.856C156.08 433.843 157.657 431.24 157.585 429.878C157.165 421.733 154.204 414.352 149.713 407.612C149.171 406.796 147.249 406.022 146.572 406.375C145.466 406.956 144.734 408.419 144.091 409.643C143.784 410.231 144.04 411.114 144.04 411.863ZM161.366 442.178C163.317 447.99 164.94 453.271 166.946 458.406C167.32 459.369 169.448 460.445 170.369 460.168C171.311 459.886 172.547 457.8 172.312 456.837C170.979 451.476 169.372 446.169 167.526 440.959C167.135 439.848 164.902 438.28 164.339 438.562C163.094 439.188 162.366 440.858 161.366 442.178ZM118.515 460.719C119.583 459.344 121.269 458.099 121.084 457.275C119.81 451.652 118.275 446.08 116.467 440.605C116.185 439.752 114.091 439.066 112.867 439.121C112.228 439.15 110.983 441.097 111.173 441.917C112.401 447.291 113.856 452.619 115.475 457.889C115.769 458.852 117.148 459.491 118.515 460.719ZM203.06 514.999C202.887 514.33 202.896 513.754 202.622 513.397C199.603 509.494 196.588 505.575 193.409 501.803C193.031 501.353 191.386 501.391 190.814 501.833C190.205 502.304 189.641 503.897 189.969 504.356C192.967 508.557 196.113 512.657 199.38 516.652C199.75 517.106 201.226 516.938 202.038 516.643C202.547 516.458 202.774 515.495 203.06 514.999ZM212.526 524.818C213.148 530.028 219.132 536.614 222.891 537.047C223.535 537.122 224.611 536.815 224.843 536.357C225.238 535.587 225.553 534.162 225.137 533.695C221.849 529.99 218.316 526.53 212.526 524.818ZM134.57 480.416C137.299 475.731 133.532 468.322 126.913 465.361C125.861 470.466 128.691 476.03 134.57 480.416ZM177.934 396.035C175.1 401.089 176.836 407.637 181.744 410.391C183.989 404.895 182.564 399.529 177.934 396.035ZM215.289 541.164C215.053 540.259 215.082 539.528 214.788 539.364C211.685 537.627 208.543 535.949 205.322 534.444C205.183 534.376 203.539 536.912 203.657 537.013C206.163 539.183 208.779 541.231 211.483 543.148C211.933 543.468 213.03 543.291 213.59 542.951C214.334 542.497 214.843 541.656 215.289 541.164ZM112.771 424.992C114.852 418.764 113.376 414.34 110.517 409.559C106.497 415.269 107.039 419.226 112.771 424.992ZM183.077 480.63C181.399 477.888 179.818 475.214 178.06 472.666C177.951 472.51 175.987 473.094 175.621 473.746C173.733 477.11 175.777 479.983 177.345 482.724C177.787 483.494 179.557 484.083 180.47 483.834C181.349 483.591 181.899 482.165 183.077 480.63ZM279.472 560.566C275.994 559.229 273.707 557.967 271.289 557.631C270.486 557.522 268.631 559.734 268.534 560.983C268.387 562.879 272.71 564.868 275.258 564.086C276.427 563.733 277.311 562.429 279.472 560.566ZM254.893 568.018C253.417 569.734 252.693 570.575 251.97 571.411C254.014 572.988 255.999 574.649 258.173 576.02C258.413 576.172 259.712 574.637 260.523 573.884C258.783 572.072 257.037 570.255 254.893 568.018ZM283.93 534.389C285.574 537.328 287.626 539.212 291.095 538.308C291.633 538.169 292.361 536.395 292.079 535.886C290.527 533.077 288.416 531.113 284.897 533.018C284.707 533.119 284.615 533.405 283.93 534.389Z" fill="#8D4CD1"/>
<path d="M95.8483 352.608C93.9517 379.794 96.0586 406.787 99.6035 433.734C101.239 446.173 102.337 458.683 103.577 471.173C103.939 474.806 103.418 478.254 99.8852 480.42C94.1283 480.84 91.2226 476.913 88.7962 472.741C82.1184 461.274 78.5524 448.805 77.2824 435.618C74.5575 407.342 79.9023 380.101 87.6902 353.159C87.9005 352.435 88.0351 351.695 88.2033 350.959C90.7558 351.51 93.3041 352.057 95.8483 352.608Z" fill="#F6D778"/>
<path d="M251.629 502.93C247.643 506.361 243.459 506.172 239.056 503.75C231.903 499.814 225.725 494.814 220.894 488.144C206.726 468.603 198.829 446.517 194.082 423.099C191.727 411.467 190.423 399.76 190.617 387.885C190.675 384.344 190.865 381.144 195.642 381.325C197.021 384.487 198.766 387.54 199.712 390.828C202.492 400.462 205.044 410.168 207.53 419.886C213.32 442.518 224.754 462.022 240.086 479.448C243.227 483.014 245.898 487.005 248.665 490.882C251.234 494.477 252.63 498.426 251.629 502.93Z" fill="#F6D778"/>
<path d="M345.158 688.16C345.246 662.441 367.328 638.959 392.937 637.487C400.91 637.029 408.395 638.921 415.456 642.702C428.559 649.716 431.158 666.604 427.079 677.685C426.822 678.383 426.553 679.304 426.002 679.619C425.035 680.17 423.816 680.628 422.76 680.519C422.285 680.468 421.62 678.95 421.654 678.122C421.705 676.907 422.319 675.721 422.663 674.51C426.957 659.527 418.879 645.259 400.283 643.215C378.551 640.826 357.559 655.973 351.651 678.042C345.536 700.876 359.418 723.807 383.303 729.026C400.83 732.856 418.387 732.306 435.191 725.06C447.2 719.879 459.421 715.077 470.081 707.197C471.098 706.444 473.071 706.974 474.601 706.906C474.269 708.235 474.189 709.715 473.529 710.855C472.932 711.885 471.792 712.701 470.729 713.336C455.333 722.541 439.518 730.994 421.822 734.74C407.895 737.688 393.808 737.541 379.922 733.786C356.869 727.545 344.144 707.083 345.158 688.16Z" fill="#8244CA"/>
<path d="M118.987 557.983C120.105 560.271 120.879 561.861 121.657 563.446C120.168 564.077 118.226 565.612 117.288 565.145C115.509 564.257 113.268 562.336 113.074 560.633C112.582 556.284 115.084 553 118.848 550.814C122.645 548.606 126.539 548.518 130.315 550.776C133.852 552.891 136.072 557.247 134.626 561.179C133.095 565.338 130.913 569.527 128.028 572.844C125.122 576.188 121.215 578.828 117.372 581.158C111.131 584.939 104.47 588.025 98.1964 591.759C91.2789 595.876 84.3109 600.01 77.8728 604.816C61.9099 616.734 57.3011 631.309 63.9705 652.453C68.02 665.295 76.3547 675.488 86.6658 683.924C91.5185 687.89 97.04 691.035 102.221 694.605C103.739 695.648 105.135 696.868 106.464 697.915C104.849 701.266 102.919 700.799 101.035 699.736C76.6618 685.964 58.0455 667.923 55.9891 637.953C55.1733 626.053 58.3902 615.123 67.4692 607.163C75.1814 600.401 83.7222 594.48 92.3681 588.908C100.181 583.87 108.709 579.951 116.771 575.275C122.09 572.193 126.649 568.063 128.701 562.096C129.315 560.309 128.856 557.445 127.729 555.936C125.963 553.568 123.192 554.367 120.942 555.898C120.135 556.44 119.575 557.332 118.987 557.983Z" fill="#E7CB73"/>
<path d="M439.852 522.198C433.591 520.583 427.09 516.979 420.185 523.754C422.573 525.491 424.264 527.328 426.358 528.131C434.907 531.407 443.582 531.5 452.131 528.039C453.961 527.299 455.735 526.176 457.211 524.864C463.919 518.893 463.246 511.517 454.983 508.148C449.053 505.735 442.434 504.469 436.017 503.901C421.959 502.665 408.557 506.386 395.387 510.873C380.345 515.995 365.795 522.219 352.124 530.389C350.837 531.159 349.483 531.836 348.117 532.454C347.704 532.639 347.141 532.484 345.598 532.484C345.837 530.924 345.656 529.263 346.371 528.194C347.149 527.03 348.701 526.332 350.005 525.583C370.429 513.872 391.926 504.763 415.042 499.986C426.98 497.522 439.108 497.274 450.941 500.827C454.718 501.958 458.544 503.682 461.673 506.037C467.501 510.419 468.712 517.261 464.991 523.531C463.368 526.264 461.042 528.834 458.473 530.701C449.268 537.391 430.504 537.648 420.975 531.525C417.893 529.544 415.13 527.076 415.559 523.11C416.013 518.905 419.146 516.588 422.943 515.356C428.183 513.653 433.427 514.212 438.473 516.134C441.341 517.219 442.211 519.275 439.852 522.198Z" fill="#E7CB73"/>
<path d="M345.791 562.716C343.537 567.859 335.661 567.547 336.619 574.217C344.908 576.097 354.201 571.416 357.052 564.057C359.988 556.484 354.365 549.389 346.01 551.24C340.286 552.506 334.66 555.331 329.656 558.511C320.636 564.242 313.899 572.501 307.528 580.987C305.266 584.002 303.184 587.177 300.703 590.003C300.043 590.756 298.201 590.466 296.902 590.655C296.864 589.515 296.338 588.048 296.855 587.291C307.011 572.501 317.637 558.145 334.088 549.545C339.1 546.925 344.357 545.458 350.072 546.042C359.996 547.064 365.711 555.76 362.128 565.075C358.558 574.368 351.064 579.158 341.569 580.802C337.103 581.576 332.776 579.229 331.228 576.063C329.689 572.905 330.871 568.784 334.841 565.453C337.704 563.039 340.572 559.528 345.791 562.716Z" fill="#D46563"/>
<path d="M478.71 502.048C481.149 504.407 483.853 506.287 485.586 508.831C489.963 515.273 494.143 521.875 497.957 528.662C502.045 535.937 506.073 543.195 512.364 548.843C514.778 551.009 517.276 553.578 520.981 552.077C523.479 551.068 524.244 545.954 522.738 541.682C521.527 538.25 519.505 535.496 516.136 534.083C515.472 534.402 514.677 534.596 514.665 534.823C514.568 536.783 515.144 539.419 512.322 539.503C509.463 539.587 508.849 537.098 508.811 534.655C508.74 529.688 511.876 527.17 516.662 528.334C526.166 530.643 532.167 545.386 527.007 553.75C524.673 557.535 520.838 559.28 516.637 557.619C513.676 556.45 510.459 554.772 508.525 552.38C503.332 545.962 498.626 539.129 493.988 532.287C488.639 524.398 483.618 516.282 478.336 508.347C477.192 506.636 475.51 505.269 478.71 502.048Z" fill="#E7CB73"/>
<path d="M86.2144 661.3C87.0008 658.597 88.7586 657.646 91.3826 658.639C96.2564 660.48 99.9527 668.016 98.5566 673.109C97.4548 677.124 94.0907 678.912 90.5121 676.725C87.8124 675.077 85.1379 672.814 83.4432 670.186C75.1044 657.263 71.572 643.163 74.667 627.861C75.1884 625.275 76.5972 622.71 78.1699 620.552C79.4315 618.82 81.5215 618.437 83.1026 620.674C76.1935 634.661 77.9007 648.138 84.9906 661.359C85.9873 665.935 88.7375 669.147 92.951 672.31C93.8846 668.357 92.4086 666.246 90.306 664.429C89.0108 663.302 87.5811 662.335 86.2144 661.3Z" fill="#E7CB73"/>
<path d="M105.147 493.284C110.95 496.434 113.797 502.044 116.496 507.565C118.763 512.199 120.239 517.22 122.068 522.069C119.444 528.826 116.219 529.802 111.53 524.768C104.549 517.27 102.392 507.826 102.106 497.944C102.06 496.417 104.078 494.836 105.147 493.284Z" fill="#EDAB57"/>
<path d="M304.695 544.389C307.286 543.035 308.694 542.366 310.044 541.584C314.115 539.225 318.505 537.244 322.117 534.313C325.465 531.597 325.847 526.858 323.724 524.108C321.146 520.764 317.878 520.739 313.871 523.006C314.678 524.869 315.482 526.715 316.276 528.544C313.993 531.668 311.369 530.419 309.826 528.645C308.598 527.236 307.879 524.486 308.329 522.678C309.809 516.774 317.992 514.179 323.963 517.367C329.203 520.163 331.558 526.366 329.602 532.228C327.159 539.54 316.133 546.845 308.244 546.302C307.601 546.265 306.996 545.663 304.695 544.389Z" fill="#D46563"/>
<path d="M510.764 670.292C509.809 672.122 509.187 674.245 507.85 675.721C502.135 682.033 496.26 688.206 490.323 694.304C488.536 696.137 486.319 697.361 483.035 694.527C487.467 690.052 491.542 685.456 496.126 681.44C500.634 677.496 502.863 671.079 508.695 668.598C509.385 669.165 510.074 669.729 510.764 670.292Z" fill="#8244CA"/>
<path d="M388.26 530.949C387.71 531.942 387.407 533.359 386.566 533.851C381.381 536.874 376.112 539.768 370.763 542.488C369.964 542.896 368.425 542.413 367.554 541.849C367.176 541.605 367.243 539.662 367.748 539.229C373.399 534.33 379.863 531.067 386.881 529.044C387.34 529.679 387.802 530.314 388.26 530.949Z" fill="#D46563"/>
<path d="M290.699 425.075C292.781 425.075 293.622 424.924 293.698 425.096C296.313 431.227 298.912 437.367 301.326 443.578C301.561 444.188 300.846 445.643 300.186 445.996C299.534 446.349 297.76 446.072 297.57 445.622C294.883 439.091 291.587 432.716 290.699 425.075Z" fill="#EDAB57"/>
<path d="M525.411 627.345C525.962 628.177 527.022 629.048 526.9 629.704C525.823 635.528 524.663 641.344 523.174 647.071C522.96 647.904 520.928 648.375 519.659 648.707C519.452 648.762 518.309 647.075 518.468 646.403C519.915 640.381 521.517 634.393 523.203 628.43C523.334 627.976 524.44 627.799 525.411 627.345Z" fill="#8244CA"/>
<path d="M279.159 451.808C281.089 452.872 282.485 453.162 282.973 453.99C285.256 457.838 287.426 461.765 289.301 465.819C289.751 466.795 288.931 468.355 288.696 469.646C287.594 469.293 285.979 469.288 285.471 468.536C282.271 463.797 278.28 459.251 279.159 451.808Z" fill="#EDAB57"/>
<path d="M321.815 422.418C320.667 421.934 318.98 421.753 318.669 421.009C316.491 415.744 315.44 410.223 315.49 403.873C317.113 404.289 318.644 404.214 319.174 404.903C321.18 407.498 322.601 417.628 321.815 422.418Z" fill="#EDAB57"/>
<path d="M423.991 393.945C427.99 399.988 426.434 405.64 427.132 411.275C421.039 409.996 419.55 401.784 423.991 393.945Z" fill="#EDAB57"/>
<path d="M370.788 408.427C368.101 401.82 367.55 396.471 369.968 390.218C374.75 395.588 375.204 402.729 370.788 408.427Z" fill="#EDAB57"/>
<path d="M344.724 413.111C340.136 406.53 339.501 400.693 339.766 393.826C345.166 396.942 347.428 405.319 344.724 413.111Z" fill="#EDAB57"/>
<path d="M446.11 399.395C448.351 404.777 448.057 408.045 445.252 412.3C441.253 408.352 441.383 404.306 446.11 399.395Z" fill="#EDAB57"/>
<path d="M86.216 661.3C87.5868 662.334 89.0124 663.306 90.3076 664.424C92.4143 666.241 93.8861 668.352 92.9526 672.305C88.739 669.147 85.9888 665.934 84.9922 661.355C85.4001 661.308 85.8081 661.292 86.216 661.3Z" fill="#2B0B4E"/>
<path d="M122.462 351.232C119.535 350.69 116.608 350.147 113.681 349.605C112.361 346.939 111.041 344.269 109.661 341.481C110.692 340.177 111.583 339 112.529 337.864C117.63 331.758 117.348 326.186 111.68 320.854C110.178 319.446 108.623 317.869 106.495 319.458C104.127 321.229 105.86 322.978 106.886 324.635C110.284 330.139 110.309 330.152 106.301 335.404C104.089 338.302 102.357 341.249 104.194 345.034C105.376 347.477 103.921 348.125 101.861 348.293C97.8783 347.343 93.8961 346.396 89.918 345.45C91.0239 343.941 92.5588 342.578 93.1559 340.888C98.589 325.488 103.19 309.757 109.388 294.681C114.527 282.188 121.255 270.312 127.802 258.454C129.791 254.85 133.252 251.852 136.562 249.24C139.926 246.587 143.908 245.22 148.555 246.259C155.578 247.823 156.553 248.555 158.185 255.817C158.567 257.52 159.03 259.211 159.72 261.973C162.184 259.009 163.874 256.28 166.229 254.349C168.407 252.562 171.292 250.569 173.866 250.577C177.634 250.586 178.899 254.328 179.467 257.646C180.06 261.086 180.27 264.589 180.75 269.005C183.21 267.373 185.333 265.905 187.52 264.526C191.014 262.323 194.782 260.346 198.76 262.836C202.608 265.241 203.188 269.551 202.839 273.584C202.276 280.077 201.002 286.506 200.232 292.987C198.958 303.701 197.848 314.437 196.67 325.169C192.839 325.547 191.872 328.646 191.397 331.51C190.464 337.124 189.803 342.809 189.505 348.491C189.202 354.29 190.148 359.916 194.236 364.517C191.065 364.092 187.894 363.667 184.728 363.242C186.271 356.699 180.359 353.697 177.65 349.235C178.449 348.146 179.009 347.317 179.631 346.544C185.203 339.656 183.916 334.786 175.56 332.048C174.164 331.59 172.369 332.36 170.758 332.561C171.351 334.008 171.637 335.724 172.617 336.825C173.71 338.053 175.43 338.722 176.881 339.639C170.035 350.068 170.039 350.068 178.37 359.29C178.538 359.475 178.647 359.706 178.786 359.916C177.205 360.387 175.586 361.35 174.055 361.228C171.082 360.993 168.155 360.147 165.207 359.559C164.825 354.794 164.572 350.017 164 345.278C163.727 343.003 162.752 340.341 159.955 340.812C158.416 341.073 156.473 343.016 155.977 344.597C154.707 348.646 154.152 352.919 153.307 357.103C151.637 356.602 149.968 356.106 148.303 355.606C147.218 351.346 146.133 347.086 144.821 341.939C145.456 340.921 146.776 339.088 147.798 337.107C150.342 332.17 149.093 326.922 144.417 323.911C143.231 323.15 141.309 323.533 139.728 323.386C139.833 324.908 139.333 327.112 140.149 327.839C143.647 330.955 143.109 333.844 140.481 336.994C137.281 340.829 137.621 344.727 140.031 348.84C140.834 350.211 141.036 351.935 141.675 354.029C139.06 354.155 137.113 354.248 135.17 354.344C134.493 354.041 133.82 353.739 133.143 353.436C133.244 347.658 133.475 341.88 133.349 336.106C133.32 334.862 132.159 332.793 131.234 332.616C129.804 332.347 127.752 332.974 126.659 333.979C125.473 335.068 124.754 336.96 124.421 338.621C123.585 342.793 123.088 347.027 122.462 351.232ZM132.962 267.785C137.331 266.671 141.011 265.094 143.921 269.888C148.092 276.759 148.429 276.557 155.948 274.097C162.289 272.024 163.176 272.07 166.309 277.608C168.269 281.073 170.683 282.503 174.244 281.183C179.375 279.286 183.496 279.168 185.846 285.245C186.153 286.04 188.268 286.494 189.496 286.401C189.972 286.363 190.771 284.303 190.615 283.289C189.728 277.512 184.395 273.685 178.546 274.475C176.368 274.77 174.215 275.249 171.843 275.682C166.856 265.161 158.9 266.776 150.603 270.35C146.89 265.468 144.682 258.605 136.734 261.217C134.24 262.032 131.389 263.033 132.962 267.785ZM120.725 315.451C122.659 312.932 124.434 311.435 125.157 309.538C128.463 300.884 131.604 292.158 134.472 283.348C134.964 281.839 134.455 279.025 133.353 278.172C130.994 276.343 129.245 278.504 128.017 280.459C127.226 281.717 126.688 283.159 126.179 284.568C123.631 291.637 121.103 298.718 118.627 305.812C118.055 307.452 117.205 309.244 117.42 310.842C117.605 312.187 119.144 313.352 120.725 315.451ZM154.539 284.858C153.799 283.958 153.071 282.263 151.961 281.961C150.842 281.654 148.828 282.343 148.13 283.281C146.978 284.829 146.456 286.889 145.872 288.798C143.811 295.518 141.839 302.263 139.821 308.996C139.459 310.198 138.664 311.414 138.753 312.57C138.849 313.886 139.476 316.014 140.296 316.241C141.667 316.62 143.786 316.233 144.842 315.308C146.044 314.252 146.629 312.322 147.129 310.665C149.303 303.457 151.351 296.208 153.437 288.975C153.778 287.772 154.08 286.557 154.539 284.858ZM162.07 322.616C164.543 319.639 166.418 318.26 167.07 316.439C169.589 309.374 171.894 302.217 173.841 294.98C174.227 293.546 172.701 291.599 172.058 289.887C170.46 290.77 167.911 291.296 167.428 292.596C164.543 300.325 161.99 308.184 159.711 316.115C159.324 317.448 160.809 319.319 162.07 322.616ZM192.411 297.701C191.586 296.704 190.543 294.353 189.311 294.248C187.974 294.135 185.581 295.85 185.169 297.221C183.168 303.899 181.746 310.749 179.967 317.499C179.265 320.173 178.967 322.696 182.213 323.52C185.009 324.231 186.296 322.015 186.893 319.761C188.744 312.776 190.413 305.749 192.411 297.701Z" fill="#8C4BD3"/>
<path d="M170.291 196.759C168.449 197.415 166.137 198.403 163.727 199.063C155.106 201.423 147.167 196.557 145.721 187.789C144.552 180.712 145.607 173.71 147.996 166.995C148.53 165.489 150.313 164.43 151.519 163.16C152.024 163.429 152.529 163.698 153.029 163.967C152.953 165.561 153.042 167.184 152.764 168.744C152.011 172.937 150.834 177.066 150.329 181.28C149.766 186.006 150.742 190.779 155.249 193.096C159.518 195.287 164.051 194.375 167.142 191.843C167.663 186.099 167.562 181.07 168.685 176.326C170.085 170.418 174.968 167.104 178.853 168.378C182.73 169.648 184.509 174.989 182.385 180.746C180.93 184.694 178.668 188.344 176.679 192.297C180.409 197.037 186.162 198.719 191.288 195.809C192.684 195.018 193.664 192.894 194.13 191.191C195.11 187.592 195.312 183.761 196.46 180.228C197.116 178.21 198.71 176.183 200.434 174.913C201.847 173.87 204.589 173.038 205.825 173.736C207.44 174.648 208.832 177.062 209.118 179.005C209.858 184.08 207.116 188.155 204.248 192.074C200.762 196.839 201.061 199.778 205.241 202.789C208.512 205.144 214.706 204.602 216.91 201.317C217.902 199.837 217.57 197.52 218.058 195.64C219.172 191.322 220.047 186.885 221.733 182.789C222.902 179.951 225.484 177.916 229.067 178.929C231.691 179.669 234.033 183.698 233.054 187.066C231.952 190.859 229.975 194.429 228.138 197.97C227.238 199.703 225.791 201.153 224.475 202.886C227.936 209.122 234.677 205.947 239.277 208.21C237.826 213.184 237.776 213.441 230.358 211.94C226.552 211.166 222.978 209.274 218.575 207.613C206.334 211.023 203.828 210.287 196.296 200.724C191.738 201.351 187.205 202.865 182.949 202.297C178.937 201.759 175.224 199.026 170.291 196.759ZM173.323 185.413C178.155 179.774 178.155 179.774 176.04 174.266C172.798 177.487 172.331 181.044 173.323 185.413ZM227.881 186.254C227.179 185.99 226.477 185.729 225.774 185.464C224.816 188.244 223.853 191.027 222.894 193.807C223.436 194.009 223.979 194.206 224.521 194.408C225.64 191.688 226.758 188.971 227.881 186.254ZM199.757 185.935C200.396 186.28 201.035 186.625 201.675 186.969C202.638 184.711 203.596 182.449 204.559 180.191C203.992 179.934 203.42 179.682 202.852 179.425C201.822 181.595 200.787 183.765 199.757 185.935Z" fill="#8244CA"/>
<path d="M222.987 247.566C223.163 251.216 221.027 252.314 218.327 252.406C214.194 252.549 210.161 251.838 207.541 248.218C206.057 246.161 204.463 245.232 201.894 245.446C195.081 246.014 189.673 243.214 185.233 237.743C183.382 238.508 181.629 239.66 179.753 239.921C176.318 240.4 171.839 241.784 169.526 240.228C164.619 236.923 159.829 237.545 154.657 237.667C148.32 237.818 144.333 234.042 142.189 228.437C139.96 222.608 140.271 216.557 141.869 210.632C142.428 208.555 143.328 205.64 146.247 206.536C149.724 207.604 147.601 210.136 146.861 212.104C145.002 217.045 144.951 221.977 147.151 226.784C149.703 232.373 153.681 233.693 160.296 231.178C160.49 227.835 160.367 224.311 160.956 220.905C162.083 214.421 166.414 210.674 170.868 211.843C175.119 212.957 176.877 218.84 174.362 224.74C173.013 227.907 171.011 230.796 169.304 233.811C176.709 237.827 182.474 234.732 183.286 227.087C183.723 222.957 184.884 218.798 186.406 214.921C187.352 212.512 190.165 210.897 192.663 212.381C194.244 213.323 196.011 216.149 195.678 217.705C194.56 222.966 192.546 228.037 190.548 234.181C193.155 239.395 195.577 240.657 203.929 239.946C204.433 236.872 204.677 233.622 205.556 230.552C206.376 227.692 207.512 224.791 209.143 222.331C211.582 218.655 215.106 217.747 218.264 219.282C221.275 220.745 223.319 224.467 222.057 228.222C220.813 231.927 218.639 235.371 216.502 238.697C215.232 240.678 213.256 242.209 211.679 243.857C214.644 248.823 219.185 245.564 222.987 247.566ZM216.061 224.328C210.779 228.02 210.216 229.543 211.86 235.703C215.321 232.549 218.147 229.522 216.061 224.328ZM169.135 216.767C166.23 220.237 164.867 223.214 166.099 227.802C169.341 224.509 170.742 221.54 169.135 216.767Z" fill="#8244CA"/>
<path d="M194.228 364.518C190.141 359.921 189.195 354.295 189.497 348.492C189.796 342.811 190.456 337.125 191.39 331.511C191.865 328.648 192.832 325.548 196.663 325.17C197.975 328.833 199.72 332.403 200.498 336.179C201.545 341.255 202.172 346.469 202.374 351.646C202.567 356.57 202.453 361.7 197.542 364.909C196.436 364.778 195.334 364.648 194.228 364.518Z" fill="#EDAB57"/>
<path d="M249.833 203.043C251.095 200.667 252.146 198.131 253.723 195.982C254.396 195.066 256.166 194.952 257.436 194.473C257.869 195.776 258.992 197.349 258.609 198.333C257.049 202.29 255.455 206.361 253.067 209.834C250.115 214.136 245.439 213.472 244.051 208.48C243.016 204.763 243.315 200.612 243.475 196.672C243.508 195.886 245.548 194.889 246.801 194.611C247.217 194.519 248.437 196.315 248.63 197.366C248.946 199.061 248.714 200.856 248.714 202.605C249.084 202.757 249.459 202.9 249.833 203.043Z" fill="#B4CA77"/>
<path d="M120.411 173.59C122.568 170.642 123.619 168.661 125.192 167.269C126.071 166.492 127.812 166.685 129.166 166.437C129.384 167.778 130.188 169.389 129.717 170.415C128.253 173.598 126.613 176.803 124.469 179.553C121.353 183.552 116.66 182.669 115.52 177.686C114.591 173.64 114.704 169.284 114.935 165.1C114.994 164.052 117.274 163.123 118.531 162.139C119.157 163.552 120.083 164.91 120.339 166.386C120.65 168.22 120.411 170.146 120.411 173.59Z" fill="#B4CA77"/>
<path d="M360.24 257.63C359.138 258.307 357.666 259.548 357.393 259.325C355.193 257.534 352.914 258.433 350.589 258.568C350.029 258.602 348.957 257.306 348.915 256.579C348.877 255.906 349.928 254.548 350.454 254.573C353.209 254.687 355.959 255.069 358.675 255.549C359.172 255.633 359.508 256.613 360.24 257.63Z" fill="#8244CA"/>
<path d="M53.2878 158.925C54.4442 159.199 55.8992 159.14 56.6771 159.838C57.5476 160.616 58.2961 162.142 58.1615 163.227C58.0564 164.081 56.53 164.758 55.6343 165.515C54.8606 164.484 53.8092 163.555 53.3929 162.395C53.0144 161.352 53.3298 160.056 53.3382 158.871L53.2878 158.925Z" fill="#8244CA"/>
<path d="M245.434 311.81C244.425 310.388 243.176 309.387 243.302 308.609C243.441 307.756 244.854 306.524 245.699 306.536C246.489 306.549 247.852 307.962 247.869 308.778C247.885 309.614 246.574 310.476 245.434 311.81Z" fill="#8244CA"/>
<path d="M373.301 227.294C371.636 228.24 370.568 229.342 369.731 229.19C368.878 229.035 368.251 227.643 367.523 226.793C368.407 226.104 369.285 224.888 370.173 224.884C371.026 224.88 371.884 226.133 373.301 227.294Z" fill="#8244CA"/>
<path d="M54.8307 195.217C53.3631 196.293 52.4296 197.513 51.618 197.433C50.7265 197.344 49.9528 196.066 49.1328 195.305C49.9108 194.519 50.634 193.19 51.4877 193.101C52.3287 193.017 53.3001 194.182 54.8307 195.217Z" fill="#8244CA"/>
<path d="M340.029 275.123C338.629 276.33 337.796 277.613 336.959 277.613C336.072 277.613 335.18 276.397 334.293 275.712C335.004 274.867 335.613 273.479 336.454 273.319C337.295 273.159 338.368 274.223 340.029 275.123Z" fill="#8244CA"/>
<path d="M66.26 224.636C65.3096 225.195 64.1953 226.364 63.4552 226.158C62.5931 225.918 61.4787 224.429 61.5544 223.588C61.6259 222.815 63.0935 221.696 64.0355 221.599C65.1372 221.486 66.3314 222.318 67.4879 222.739C67.08 223.37 66.6679 224.005 66.26 224.636Z" fill="#8244CA"/>
<path d="M253.717 300.137C252.775 300.41 251.753 301.053 250.917 300.868C249.718 300.599 248.65 299.729 247.531 299.111C248.259 298.333 248.932 297.004 249.731 296.924C250.635 296.836 251.648 297.862 252.615 298.404C252.981 298.984 253.351 299.56 253.717 300.137Z" fill="#8244CA"/>
<path d="M343.925 274.572C345.102 275.817 346.372 276.566 346.427 277.394C346.477 278.121 345.123 279.602 344.467 279.56C343.559 279.501 342.322 278.47 342.003 277.575C341.801 277.007 343.004 275.939 343.925 274.572Z" fill="#8244CA"/>
<path d="M315.401 296.091C316.418 297.655 317.024 298.585 317.629 299.51C316.687 300.077 315.775 300.986 314.787 301.082C314.219 301.137 312.89 299.707 313.016 299.24C313.273 298.273 314.269 297.495 315.401 296.091Z" fill="#8244CA"/>
<path d="M74.9623 127.913C76.0262 129.128 77.2289 130.003 77.0859 130.444C76.7748 131.415 75.7781 132.172 75.0632 133.013C74.3819 132.425 73.0994 131.777 73.1499 131.256C73.2382 130.284 74.1045 129.38 74.9623 127.913Z" fill="#8244CA"/>
<path d="M53.34 158.871C52.6041 158.779 51.6831 158.93 51.1785 158.539C50.3417 157.891 49.6857 156.945 49.1684 156.007C49.0801 155.848 50.3586 154.599 50.5226 154.695C51.4477 155.229 52.3728 155.911 52.9951 156.76C53.3736 157.277 53.2054 158.19 53.2811 158.926L53.34 158.871Z" fill="#8244CA"/>
<path d="M285.592 319.954C286.61 321.674 287.497 322.578 287.581 323.55C287.627 324.067 286.286 325.152 285.567 325.156C284.873 325.16 283.556 324.046 283.603 323.524C283.695 322.557 284.574 321.661 285.592 319.954Z" fill="#8244CA"/>
<path d="M100.412 100.044C98.9784 100.675 98.0743 101.432 97.4225 101.255C96.7455 101.075 96.3081 99.994 95.7656 99.3043C96.4553 98.766 97.1911 97.761 97.8261 97.8199C98.5452 97.8913 99.1719 98.9132 100.412 100.044Z" fill="#8244CA"/>
<path d="M285.699 309.525C286.527 310.816 287.541 311.893 287.343 312.196C286.78 313.075 285.8 313.794 284.828 314.214C284.601 314.311 283.176 312.814 283.319 312.364C283.6 311.464 284.58 310.779 285.699 309.525Z" fill="#8244CA"/>
<path d="M45.8004 201.807C44.3623 202.185 43.1259 202.833 42.8189 202.53C42.1503 201.878 41.9611 200.739 41.5742 199.801C42.3942 199.595 43.3572 199.031 44.0006 199.284C44.6524 199.54 44.9888 200.6 45.8004 201.807Z" fill="#8244CA"/>
<path d="M60.1887 231.902C58.9566 232.823 58.1702 233.849 57.5731 233.748C56.8204 233.622 56.2191 232.575 55.5547 231.923C56.2023 231.301 56.8035 230.271 57.5184 230.178C58.166 230.098 58.944 231.049 60.1887 231.902Z" fill="#8244CA"/>
<path d="M73.1747 125.062C71.9889 126.017 71.3034 126.992 70.6516 126.971C69.9325 126.946 68.755 126.063 68.6835 125.449C68.612 124.814 69.5582 123.578 70.1932 123.481C70.8997 123.372 71.7576 124.255 73.1747 125.062Z" fill="#8244CA"/>
<path d="M106.528 105.305C105.309 106.23 104.455 107.319 103.938 107.18C102.988 106.924 102.239 105.936 101.402 105.254C101.987 104.586 102.676 103.299 103.139 103.375C104.148 103.535 105.04 104.397 106.528 105.305Z" fill="#8244CA"/>
<path d="M381.926 222.658C380.799 221.426 379.769 220.795 379.702 220.076C379.643 219.458 380.648 218.251 381.258 218.197C381.893 218.142 383.015 219.055 383.196 219.736C383.364 220.375 382.578 221.266 381.926 222.658Z" fill="#8244CA"/>
<path d="M321.699 303.575C322.367 305.228 323.086 306.14 322.88 306.725C322.649 307.364 321.568 307.7 320.858 308.167C320.488 307.574 319.743 306.914 319.831 306.405C319.966 305.657 320.698 305.013 321.699 303.575Z" fill="#8244CA"/>
<path d="M178.581 139.427C176.121 141.386 173.817 143.22 170.961 145.495C170.183 143.808 168.863 142.261 169.22 141.5C171.87 135.861 178.699 131.891 184.678 136.664C185.856 137.606 186.853 138.766 188.013 139.729C190.313 141.647 192.605 142.059 195.625 140.764C208.433 135.276 208.471 135.39 217.092 146.289C217.857 147.257 218.888 148.018 220.094 149.157C222.651 148.417 225.229 147.467 227.891 146.95C234.808 145.6 240.452 149.103 242.352 155.776C242.554 156.483 242.63 157.299 242.483 158.005C242.34 158.686 241.831 159.288 241.516 159.855C238.118 160.772 237.807 157.875 236.638 156.163C233.324 151.31 232.639 150.76 227.466 152.728C219.388 155.797 216.516 155.146 210.675 146.521C207.567 141.933 206.167 141.113 202.122 143.615C193.8 148.766 186.937 147.463 180.684 140.39C180.385 140.053 179.796 139.969 178.581 139.427Z" fill="#71921E"/>
<path d="M233.057 136.626C231.543 135.159 229.869 133.859 228.591 132.24C225.197 127.947 221.16 126.433 215.996 128.763C211.829 130.642 208.074 129.831 204.932 126.706C200.13 121.921 195.054 121.181 189.293 124.923C188.402 125.504 187.039 125.365 184.617 125.773C185.551 123.376 185.69 121.391 186.72 120.672C191.072 117.623 197.847 114.356 204.054 119.52C204.827 120.163 205.765 120.609 206.501 121.286C209.344 123.914 212.275 124.322 216.164 123.258C224.007 121.109 229.217 123.456 233.721 130.041C235.062 132.005 236.046 133.922 233.057 136.626Z" fill="#71921E"/>
<path d="M212.275 110.597C211.619 110.967 210.669 111.307 209.975 111.934C208.461 113.3 206.649 114.024 205.715 111.93C205.223 110.828 205.993 108.519 206.973 107.531C208.899 105.588 211.409 104.066 214.37 105.525C219.168 107.888 223.907 110.374 228.692 112.821C225.341 117.632 225.341 117.632 212.275 110.597Z" fill="#71921E"/>
<path d="M166.646 365.796C167.92 375.506 169.27 385.211 170.435 394.938C170.944 399.168 171.226 403.441 171.335 407.705C171.415 410.871 170.578 413.848 166.958 414.74C163.501 415.589 160.751 413.84 159.43 411.002C157.117 406.027 154.733 400.897 153.669 395.577C151.541 384.942 151.066 374.11 152.593 363.281C157.281 364.114 161.966 364.955 166.646 365.796Z" fill="#71921E"/>
<path d="M114.703 355.803C114.367 356.753 114.253 357.888 113.656 358.624C109.312 363.948 108.505 368.969 113.648 374.503C116.112 377.152 115.292 380.643 113.257 383.62C111.718 385.874 110.221 388.157 107.689 391.946C109.922 393.472 112.134 394.713 113.967 396.37C114.67 397.009 115.044 399.301 114.628 399.62C113.623 400.398 111.856 401.075 110.759 400.705C102.933 398.094 100.351 391.378 105.149 384.642C108.253 380.289 108.921 377.089 105.406 372.665C100.83 366.9 104.089 361.808 107.996 357.119C109.787 354.428 112.058 354.154 114.703 355.803Z" fill="#FEFEFF"/>
<path d="M178.782 359.916C178.643 359.706 178.534 359.475 178.365 359.29C170.031 350.068 170.031 350.068 176.877 339.639C175.426 338.726 173.706 338.058 172.613 336.825C171.633 335.724 171.347 334.004 170.754 332.561C172.364 332.36 174.16 331.594 175.556 332.048C183.912 334.782 185.199 339.656 179.627 346.544C179 347.317 178.445 348.146 177.646 349.235C180.354 353.697 186.263 356.699 184.724 363.242C182.23 363.045 179.257 363.713 178.782 359.916Z" fill="#FEFEFF"/>
<path d="M135.156 354.344C137.103 354.251 139.05 354.154 141.662 354.028C141.022 351.934 140.821 350.21 140.017 348.839C137.608 344.727 137.267 340.828 140.467 336.993C143.096 333.844 143.63 330.95 140.135 327.839C139.319 327.111 139.82 324.908 139.715 323.385C141.296 323.528 143.218 323.146 144.403 323.911C149.08 326.918 150.328 332.17 147.784 337.107C146.762 339.092 145.442 340.921 144.807 341.938C146.119 347.081 147.204 351.341 148.289 355.605C143.911 355.185 139.534 354.764 135.156 354.344Z" fill="#F9DEFB"/>
<path d="M142.818 361.918C142.965 363.373 142.586 365.244 143.352 366.211C147.443 371.384 146.8 376.308 143.276 381.359C142.889 381.918 142.902 382.755 142.658 383.739C144.146 384.975 145.837 386.085 147.098 387.553C147.763 388.322 148.196 390.009 147.788 390.782C147.351 391.611 145.757 392.355 144.748 392.262C138.835 391.724 134.479 384.639 137.443 379.487C139.899 375.219 140.08 372.086 137.338 367.906C136.144 366.081 137.284 362.725 137.364 360.063C139.18 360.686 141.001 361.304 142.818 361.918Z" fill="#FEFEFF"/>
<path d="M101.859 348.289C103.924 348.12 105.379 347.473 104.193 345.03C102.36 341.245 104.088 338.297 106.3 335.4C110.308 330.152 110.282 330.139 106.885 324.63C105.859 322.969 104.126 321.22 106.494 319.454C108.621 317.864 110.182 319.441 111.679 320.85C117.347 326.182 117.629 331.754 112.528 337.86C111.582 338.991 110.69 340.173 109.66 341.476C111.039 344.264 112.36 346.935 113.68 349.601C109.744 349.168 105.8 348.73 101.859 348.289Z" fill="#F9DEFB"/>
<path d="M122.461 351.232C123.088 347.027 123.584 342.792 124.412 338.625C124.74 336.964 125.463 335.072 126.649 333.983C127.743 332.978 129.795 332.351 131.224 332.62C132.15 332.793 133.314 334.866 133.34 336.11C133.47 341.88 133.239 347.662 133.134 353.44C129.576 352.7 126.019 351.968 122.461 351.232Z" fill="#71921E"/>
<path d="M153.309 357.1C154.15 352.916 154.709 348.643 155.979 344.594C156.475 343.013 158.418 341.07 159.957 340.809C162.749 340.338 163.725 343 164.002 345.275C164.574 350.014 164.826 354.795 165.209 359.556C161.239 358.74 157.274 357.92 153.309 357.1Z" fill="#71921E"/>
<path d="M133.102 359.176C132.198 362.431 132.572 366.632 127.913 367.321C125.108 367.738 123.338 364.946 122.118 358.852C122.022 358.364 122.064 357.851 122.047 357.351C125.731 357.961 129.414 358.571 133.102 359.176Z" fill="#71921E"/>
<path d="M277.514 530.053C277.662 539.612 269.903 545.36 261.072 544.124C249.588 542.513 239.605 537.164 229.882 531.319C209.277 518.931 196.527 500.041 188.508 478.124C183.268 463.797 180.186 448.675 176.25 433.877C175.812 432.237 175.489 429.966 176.275 428.738C177.495 426.833 179.576 425.286 181.632 424.272C182.061 424.062 184.45 426.657 185.114 428.292C189.849 439.92 193.802 451.896 199.13 463.233C203.815 473.204 209.429 482.846 215.585 491.992C222.898 502.859 234.374 508.477 246.299 512.9C252.649 515.255 259.348 516.668 265.69 519.044C268.881 520.238 271.964 522.27 274.445 524.612C276.274 526.336 277.048 529.179 277.514 530.053Z" fill="#D66768"/>
<path d="M236.646 589.888C230.464 587.928 224.068 586.473 218.139 583.921C189.447 571.566 165.187 552.903 144.098 530.136C132.627 517.752 122.61 504.14 114.313 489.363C111.533 484.418 112.232 482.273 116.748 480.494C119.288 479.494 121.13 480.065 122.665 482.176C124.292 484.418 125.928 486.651 127.555 488.892C141.861 508.593 158.556 525.961 178.223 540.368C191.15 549.833 205.776 555.944 220.696 561.465C227.529 563.992 234.413 566.52 240.885 569.816C243.786 571.292 246.494 574.286 247.932 577.247C250.863 583.286 247.495 588.231 240.737 588.824C239.488 588.933 238.218 588.841 236.957 588.841C236.856 589.194 236.751 589.543 236.646 589.888Z" fill="#D66768"/>
<path d="M125.737 376.671C127.104 378.147 128.525 379.034 128.954 380.262C130.182 383.799 131.271 387.423 131.948 391.103C136.729 416.965 144.483 441.817 156.359 465.362C163.44 479.403 172.885 491.771 182.641 503.966C187.195 509.655 191.733 515.374 195.938 521.32C198.238 524.575 200.492 528.347 197.578 532.422C195.635 535.143 191.678 534.701 185.825 531.501C176.8 526.564 169.748 519.323 163.55 511.375C142.692 484.643 130.308 454.164 124.282 420.939C122.213 409.522 120.888 398.063 121.279 386.448C121.347 384.45 121.292 382.306 122.007 380.514C122.566 379.118 124.231 378.16 125.737 376.671Z" fill="#B7D56F"/>
<path d="M248.746 564.8C237.976 562.445 229.393 558.004 222.636 550.54C221.677 549.481 221.677 546.373 222.556 545.191C223.325 544.157 226.244 543.757 227.699 544.346C234.427 547.084 240.991 550.229 247.581 553.311C248.926 553.942 250.545 554.636 251.281 555.788C252.375 557.5 253.75 559.96 253.237 561.507C252.707 563.08 250.028 563.938 248.746 564.8Z" fill="#71921E"/>
<path d="M144.031 411.862C144.031 411.114 143.774 410.231 144.085 409.646C144.729 408.427 145.46 406.959 146.566 406.379C147.243 406.021 149.165 406.799 149.708 407.615C154.194 414.356 157.155 421.736 157.58 429.881C157.651 431.244 156.074 433.847 155.229 433.86C153.564 433.885 150.931 432.909 150.364 431.618C147.588 425.294 145.359 418.729 142.941 412.253C143.303 412.119 143.665 411.989 144.031 411.862Z" fill="#EDAB57"/>
<path d="M161.355 442.178C162.356 440.854 163.084 439.188 164.328 438.566C164.892 438.284 167.125 439.849 167.516 440.963C169.358 446.173 170.968 451.48 172.302 456.842C172.541 457.805 171.305 459.886 170.359 460.172C169.434 460.45 167.31 459.373 166.936 458.41C164.93 453.272 163.307 447.99 161.355 442.178Z" fill="#F9DEFB"/>
<path d="M118.501 460.718C117.139 459.49 115.76 458.851 115.461 457.884C113.842 452.615 112.391 447.287 111.159 441.913C110.974 441.097 112.215 439.146 112.854 439.116C114.073 439.066 116.172 439.747 116.454 440.601C118.258 446.076 119.797 451.648 121.071 457.27C121.252 458.094 119.57 459.343 118.501 460.718Z" fill="#F9DEFB"/>
<path d="M203.047 514.999C202.761 515.495 202.53 516.458 202.021 516.643C201.209 516.937 199.737 517.101 199.363 516.651C196.096 512.657 192.95 508.556 189.952 504.356C189.624 503.901 190.188 502.303 190.797 501.832C191.369 501.391 193.009 501.353 193.392 501.803C196.575 505.575 199.586 509.49 202.605 513.397C202.887 513.754 202.875 514.33 203.047 514.999Z" fill="#2B0B4E"/>
<path d="M212.523 524.819C218.314 526.53 221.846 529.995 225.139 533.696C225.555 534.163 225.236 535.588 224.845 536.358C224.609 536.816 223.537 537.123 222.893 537.048C219.13 536.614 213.146 530.029 212.523 524.819Z" fill="#2B0B4E"/>
<path d="M134.567 480.416C128.693 476.03 125.862 470.466 126.909 465.361C133.524 468.318 137.296 475.727 134.567 480.416Z" fill="#2B0B4E"/>
<path d="M177.929 396.036C182.564 399.53 183.985 404.896 181.739 410.392C176.832 407.638 175.095 401.09 177.929 396.036Z" fill="#2B0B4E"/>
<path d="M215.278 541.164C214.832 541.656 214.324 542.497 213.579 542.951C213.02 543.292 211.927 543.468 211.473 543.149C208.769 541.231 206.153 539.183 203.647 537.013C203.529 536.912 205.173 534.381 205.312 534.444C208.533 535.945 211.67 537.627 214.778 539.364C215.072 539.524 215.043 540.26 215.278 541.164Z" fill="#F9DEFB"/>
<path d="M112.766 424.992C107.034 419.226 106.491 415.273 110.512 409.559C113.371 414.34 114.847 418.764 112.766 424.992Z" fill="#2B0B4E"/>
<path d="M183.073 480.63C181.896 482.161 181.345 483.591 180.466 483.831C179.554 484.079 177.783 483.49 177.342 482.72C175.773 479.979 173.73 477.111 175.618 473.742C175.984 473.091 177.947 472.506 178.057 472.662C179.819 475.214 181.396 477.889 183.073 480.63Z" fill="#F9DEFB"/>
<path d="M279.465 560.566C277.303 562.433 276.42 563.733 275.251 564.09C272.703 564.868 268.38 562.879 268.527 560.987C268.624 559.738 270.478 557.522 271.281 557.635C273.699 557.963 275.987 559.225 279.465 560.566Z" fill="#F2D7F6"/>
<path d="M254.887 568.019C257.036 570.256 258.777 572.068 260.518 573.885C259.711 574.637 258.407 576.172 258.167 576.021C255.993 574.654 254.009 572.989 251.965 571.412C252.688 570.575 253.411 569.734 254.887 568.019Z" fill="#2B0B4E"/>
<path d="M283.93 534.39C284.611 533.406 284.708 533.12 284.897 533.019C288.417 531.114 290.528 533.078 292.079 535.887C292.361 536.396 291.633 538.17 291.095 538.309C287.626 539.213 285.578 537.329 283.93 534.39Z" fill="#2B0B4E"/>
<path d="M132.965 267.786C131.388 263.034 134.239 262.033 136.737 261.209C144.68 258.597 146.892 265.46 150.605 270.342C158.902 266.768 166.858 265.157 171.846 275.674C174.218 275.241 176.371 274.762 178.549 274.468C184.394 273.677 189.726 277.504 190.618 283.282C190.773 284.295 189.974 286.36 189.499 286.393C188.275 286.486 186.156 286.032 185.849 285.237C183.503 279.16 179.382 279.278 174.247 281.175C170.681 282.491 168.271 281.065 166.312 277.6C163.179 272.062 162.292 272.016 155.95 274.089C148.431 276.549 148.095 276.751 143.924 269.88C141.014 265.094 137.334 266.675 132.965 267.786Z" fill="#2B0B4E"/>
<path d="M120.718 315.45C119.137 313.352 117.598 312.187 117.417 310.841C117.202 309.243 118.052 307.456 118.624 305.812C121.101 298.713 123.624 291.636 126.176 284.567C126.685 283.158 127.219 281.716 128.014 280.459C129.246 278.503 130.991 276.342 133.35 278.171C134.452 279.025 134.961 281.838 134.469 283.348C131.601 292.158 128.46 300.883 125.154 309.537C124.427 311.434 122.652 312.931 120.718 315.45Z" fill="#EFCF7F"/>
<path d="M154.535 284.858C154.081 286.556 153.774 287.772 153.429 288.974C151.343 296.211 149.295 303.457 147.121 310.665C146.621 312.321 146.036 314.252 144.834 315.307C143.782 316.228 141.663 316.619 140.288 316.241C139.468 316.014 138.841 313.89 138.744 312.57C138.66 311.413 139.455 310.198 139.813 308.995C141.831 302.263 143.803 295.513 145.864 288.798C146.448 286.893 146.97 284.828 148.122 283.281C148.82 282.343 150.834 281.653 151.953 281.96C153.063 282.267 153.791 283.962 154.535 284.858Z" fill="#EFCF7F"/>
<path d="M162.073 322.617C160.811 319.32 159.327 317.449 159.71 316.111C161.989 308.185 164.541 300.321 167.426 292.592C167.91 291.293 170.462 290.767 172.056 289.884C172.7 291.595 174.226 293.542 173.839 294.976C171.888 302.213 169.588 309.371 167.069 316.435C166.421 318.26 164.541 319.64 162.073 322.617Z" fill="#EFCF7F"/>
<path d="M192.404 297.701C190.407 305.75 188.738 312.776 186.892 319.761C186.294 322.015 185.008 324.231 182.211 323.521C178.961 322.692 179.259 320.173 179.966 317.499C181.74 310.749 183.166 303.899 185.167 297.221C185.58 295.851 187.972 294.131 189.309 294.248C190.537 294.354 191.58 296.704 192.404 297.701Z" fill="#EFCF7F"/>
<path d="M173.319 185.414C172.327 181.045 172.793 177.487 176.036 174.266C178.151 179.775 178.151 179.775 173.319 185.414Z" fill="#2B0B4E"/>
<path d="M227.882 186.255C226.759 188.972 225.641 191.693 224.518 194.409C223.976 194.207 223.433 194.01 222.891 193.808C223.849 191.028 224.812 188.244 225.771 185.465C226.473 185.726 227.18 185.991 227.882 186.255Z" fill="#2B0B4E"/>
<path d="M199.746 185.936C200.776 183.766 201.811 181.596 202.841 179.426C203.409 179.683 203.981 179.935 204.548 180.192C203.585 182.45 202.627 184.712 201.664 186.97C201.024 186.626 200.385 186.281 199.746 185.936Z" fill="#2B0B4E"/>
<path d="M216.05 224.33C218.14 229.523 215.314 232.551 211.849 235.705C210.205 229.544 210.769 228.022 216.05 224.33Z" fill="#2B0B4E"/>
<path d="M169.135 216.768C170.741 221.54 169.341 224.509 166.099 227.802C164.866 223.214 166.229 220.237 169.135 216.768Z" fill="#2B0B4E"/>
</svg>
