<svg width="809" height="762" viewBox="0 0 809 762" fill="none" xmlns="http://www.w3.org/2000/svg">
<path d="M81.1091 366.732L67.7504 376.096C67.7504 376.096 25.765 506.104 0 540.932C0 540.932 99.7156 539.501 105.919 699.327C105.919 699.327 130.73 602.904 227.582 643.244C227.582 643.244 246.515 595.178 318.158 618.866C389.801 642.553 352.778 533.03 352.778 533.03C352.778 533.03 276.725 538.069 238.079 519.94C199.434 501.811 110.691 403.052 110.691 403.052L81.1091 366.732Z" fill="url(#paint0_linear_611_22758)"/>
<path d="M304.716 516.019C304.716 516.019 141.704 511.911 81.5872 301.352C81.5872 301.352 32.9225 348.173 9.30469 356.528C9.30469 356.528 25.5263 369.655 48.4284 360.827C71.3293 352.001 63.9342 351.286 63.9342 351.286C63.9342 351.286 38.8861 382.535 21.4709 387.067C21.4709 387.067 43.1793 392.793 67.7506 376.094C67.7506 376.094 135.214 471.091 171.187 491.59C175.812 494.226 177.344 500.162 174.645 504.75C155.732 536.903 96.6344 642.728 103.057 699.327C103.057 699.327 165.558 535.206 201.819 520.893C201.819 520.893 223.766 524.233 227.583 528.527C231.399 532.821 204.204 583.819 227.583 643.243C227.583 643.243 232.01 546.179 284.665 553.813C337.32 561.445 304.716 516.019 304.716 516.019Z" fill="#EF9337"/>
<path d="M727.614 366.732L740.973 376.096C740.973 376.096 782.958 506.104 808.723 540.932C808.723 540.932 709.006 539.501 702.805 699.327C702.805 699.327 677.995 602.904 581.142 643.244C581.142 643.244 562.209 595.178 490.567 618.866C418.924 642.554 455.946 533.03 455.946 533.03C455.946 533.03 531.999 538.069 570.645 519.94C609.291 501.811 698.034 403.052 698.034 403.052L727.614 366.732Z" fill="url(#paint1_linear_611_22758)"/>
<path d="M504.007 516.019C504.007 516.019 667.019 511.911 727.136 301.352C727.136 301.352 775.8 348.173 799.418 356.528C799.418 356.528 783.197 369.655 760.294 360.827C737.394 352.001 744.789 351.286 744.789 351.286C744.789 351.286 769.837 382.535 787.252 387.067C787.252 387.067 765.543 392.793 740.972 376.094C740.972 376.094 673.509 471.091 637.535 491.59C632.91 494.226 631.379 500.162 634.078 504.75C652.991 536.903 712.088 642.728 705.666 699.327C705.666 699.327 643.165 535.206 606.904 520.893C606.904 520.893 584.957 524.233 581.14 528.527C577.324 532.821 604.519 583.819 581.14 643.243C581.14 643.243 576.712 546.179 524.058 553.813C471.403 561.445 504.007 516.019 504.007 516.019Z" fill="#EF9337"/>
<path d="M614.18 300.565C609.317 303.076 603.928 305.181 597.991 306.823C591.84 308.529 586.226 309.517 581.105 309.861C538.326 312.856 529.974 271.87 530.65 236.242C530.79 228.631 531.348 221.268 532.067 214.633C533.881 198.037 536.715 185.971 536.715 185.971C536.715 185.971 537.198 185.778 538.057 185.359C538.283 185.252 538.529 185.134 538.798 184.995C539.12 184.824 539.485 184.63 539.882 184.416C540.064 184.319 540.247 184.212 540.44 184.104C540.504 184.061 540.569 184.029 540.633 183.997C540.901 183.836 541.181 183.675 541.47 183.492C542.104 183.117 542.78 182.687 543.499 182.215C543.736 182.054 543.982 181.893 544.229 181.722C545.228 181.046 546.291 180.272 547.407 179.403C547.686 179.188 547.965 178.974 548.256 178.727C548.546 178.502 548.835 178.266 549.125 178.019C549.415 177.793 549.704 177.536 550.005 177.278C550.896 176.516 551.808 175.69 552.742 174.798C553.247 174.326 553.751 173.821 554.267 173.306C554.396 173.166 554.525 173.038 554.664 172.898C554.964 172.587 555.265 172.275 555.565 171.942C555.888 171.609 556.199 171.266 556.521 170.911C557.315 170.031 558.11 169.108 558.904 168.141C559.172 167.819 559.441 167.486 559.698 167.154C559.966 166.821 560.235 166.478 560.492 166.134C560.793 165.759 561.082 165.372 561.372 164.974C562.135 163.944 562.886 162.871 563.637 161.744C564.71 160.134 565.774 158.416 566.804 156.602C567.267 155.797 567.706 154.981 568.147 154.133C568.394 153.67 568.629 153.209 568.866 152.738C569.574 151.331 570.272 149.86 570.938 148.336C571.164 147.831 571.379 147.327 571.593 146.801C571.818 146.285 572.033 145.759 572.237 145.223C572.978 143.387 573.665 141.477 574.319 139.479C574.523 138.878 574.716 138.267 574.909 137.644C575.092 137.086 575.253 136.516 575.414 135.937C575.876 134.391 576.294 132.803 576.691 131.171C576.798 130.752 576.895 130.323 576.991 129.894C577.11 129.411 577.217 128.938 577.324 128.445C577.324 128.412 577.335 128.381 577.346 128.337C577.475 127.736 577.604 127.135 577.722 126.523C577.807 126.137 577.882 125.751 577.958 125.354C577.958 125.31 577.969 125.268 577.98 125.225C578.227 123.926 578.452 122.595 578.667 121.231C578.73 120.845 578.796 120.448 578.849 120.05C578.945 119.417 579.031 118.774 579.117 118.118C579.202 117.485 579.288 116.841 579.364 116.186C579.417 115.778 579.461 115.359 579.503 114.94C579.663 113.416 579.814 111.849 579.933 110.26C579.986 109.606 580.029 108.95 580.062 108.285C580.104 107.781 580.137 107.276 580.158 106.772C581.082 89.1665 583.937 79.2481 587.931 74.6968C588.661 73.8592 589.434 73.205 590.239 72.7211C600.835 66.2701 617.216 88.6729 628.112 106.772C643.326 132.063 687.94 262.564 614.18 300.565Z" fill="url(#paint2_linear_611_22758)"/>
<path opacity="0.25" d="M629.466 228.739C618.249 269.574 598.474 294.758 581.105 309.861C538.326 312.857 529.974 271.871 530.65 236.243C531.155 209.61 536.715 185.972 536.715 185.972C536.715 185.972 576.821 170.224 580.16 106.772C581.083 89.1662 583.939 79.2477 587.932 74.6964C588.663 73.8588 589.435 73.2047 590.24 72.7207C598.045 82.2868 650.883 150.806 629.466 228.739Z" fill="url(#paint3_linear_611_22758)"/>
<path d="M622.347 174.562C622.273 176.569 622.122 178.587 621.907 180.606C621.446 184.975 620.823 189.129 620.038 193.079C616.389 211.865 609.539 226.003 602.305 236.382C599.449 240.493 596.529 244.026 593.728 247.009C584.239 257.121 576.101 261.115 576.101 261.115H547.02C547.02 261.115 531.927 242.168 530.648 236.242C530.788 228.632 531.346 221.268 532.065 214.634C533.879 198.037 536.713 185.972 536.713 185.972C536.713 185.972 537.196 185.779 538.056 185.36C538.281 185.252 538.527 185.134 538.797 184.995C539.119 184.824 539.483 184.631 539.88 184.416C540.063 184.32 540.245 184.212 540.438 184.105C540.502 184.061 540.567 184.03 540.631 183.997C540.899 183.837 541.179 183.675 541.469 183.493C542.102 183.117 542.778 182.688 543.498 182.216C543.734 182.054 543.981 181.894 544.228 181.722C545.226 181.046 546.289 180.273 547.406 179.404C547.685 179.189 547.974 178.963 548.254 178.728C548.544 178.502 548.834 178.267 549.123 178.019C549.413 177.783 549.714 177.537 550.003 177.278C550.894 176.517 551.806 175.69 552.741 174.798C553.245 174.315 553.75 173.822 554.265 173.306C554.394 173.166 554.523 173.038 554.662 172.898C554.963 172.587 555.263 172.276 555.564 171.943C555.886 171.609 556.197 171.267 556.52 170.912C557.314 170.032 558.108 169.109 558.902 168.142C559.17 167.82 559.439 167.487 559.696 167.155C559.964 166.822 560.233 166.479 560.491 166.135C560.791 165.759 561.081 165.372 561.37 164.975C562.133 163.944 562.884 162.86 563.636 161.744C564.709 160.134 565.772 158.417 566.803 156.603C567.265 155.798 567.705 154.982 568.145 154.133C568.393 153.671 568.628 153.21 568.864 152.738C569.573 151.332 570.271 149.861 570.937 148.336C571.162 147.832 571.377 147.317 571.591 146.801C571.817 146.275 572.032 145.749 572.236 145.224C572.977 143.388 573.663 141.477 574.317 139.48C574.521 138.879 574.715 138.267 574.908 137.644C575.079 137.087 575.252 136.517 575.412 135.938C575.874 134.392 576.292 132.803 576.689 131.172C576.797 130.753 576.893 130.323 576.99 129.895C577.108 129.423 577.215 128.939 577.323 128.445C577.323 128.412 577.334 128.381 577.345 128.338C577.474 127.737 577.603 127.136 577.72 126.524C577.806 126.137 577.88 125.751 577.957 125.354C577.957 125.311 577.967 125.268 577.978 125.225C578.226 123.926 578.45 122.595 578.665 121.231C578.729 120.845 578.794 120.448 578.847 120.051C578.944 119.417 579.029 118.774 579.115 118.119C579.201 117.485 579.287 116.842 579.363 116.186C579.406 115.778 579.459 115.36 579.501 114.941C579.662 113.417 579.813 111.85 579.931 110.26C579.975 109.606 580.017 108.951 580.06 108.286C580.102 107.781 580.135 107.277 580.157 106.772C581.08 89.167 583.936 79.2486 587.93 74.6973C591.182 79.4634 594.843 85.1745 598.526 91.6147C605.299 103.487 612.17 117.85 616.797 133.48C620.673 146.544 622.981 160.478 622.347 174.562Z" fill="url(#paint4_linear_611_22758)"/>
<path d="M205.936 300.565C210.799 303.076 216.188 305.181 222.125 306.823C228.276 308.529 233.891 309.517 239.012 309.861C281.79 312.856 290.142 271.87 289.467 236.242C289.327 228.631 288.769 221.268 288.05 214.633C286.235 198.037 283.402 185.971 283.402 185.971C283.402 185.971 282.919 185.778 282.059 185.359C281.834 185.252 281.587 185.134 281.318 184.995C280.996 184.824 280.632 184.63 280.234 184.416C280.052 184.319 279.87 184.212 279.677 184.104C279.613 184.061 279.548 184.029 279.484 183.997C279.216 183.836 278.936 183.675 278.646 183.492C278.012 183.117 277.337 182.687 276.617 182.215C276.381 182.054 276.134 181.893 275.887 181.722C274.889 181.046 273.825 180.272 272.709 179.403C272.43 179.188 272.15 178.974 271.861 178.727C271.571 178.502 271.281 178.266 270.992 178.019C270.702 177.793 270.412 177.536 270.112 177.278C269.221 176.516 268.308 175.69 267.374 174.798C266.87 174.326 266.365 173.821 265.85 173.306C265.721 173.166 265.593 173.038 265.453 172.898C265.152 172.587 264.852 172.275 264.551 171.942C264.229 171.609 263.918 171.266 263.595 170.911C262.801 170.031 262.007 169.108 261.212 168.141C260.944 167.819 260.674 167.486 260.417 167.154C260.149 166.821 259.88 166.478 259.623 166.134C259.323 165.759 259.033 165.372 258.743 164.974C257.981 163.944 257.23 162.871 256.478 161.744C255.405 160.134 254.342 158.416 253.311 156.602C252.848 155.797 252.409 154.981 251.969 154.133C251.721 153.67 251.485 153.209 251.249 152.738C250.541 151.331 249.843 149.86 249.177 148.336C248.951 147.831 248.736 147.327 248.523 146.801C248.297 146.285 248.082 145.759 247.878 145.223C247.137 143.387 246.45 141.477 245.796 139.479C245.592 138.878 245.399 138.267 245.206 137.644C245.024 137.086 244.862 136.516 244.702 135.937C244.239 134.391 243.822 132.803 243.425 131.171C243.317 130.752 243.221 130.323 243.124 129.894C243.006 129.411 242.898 128.938 242.791 128.445C242.791 128.412 242.78 128.381 242.769 128.337C242.64 127.736 242.512 127.135 242.394 126.523C242.308 126.137 242.233 125.751 242.157 125.354C242.157 125.31 242.146 125.268 242.135 125.225C241.889 123.926 241.664 122.595 241.449 121.231C241.385 120.845 241.32 120.448 241.266 120.05C241.17 119.417 241.084 118.774 240.999 118.118C240.913 117.485 240.827 116.841 240.751 116.186C240.698 115.778 240.655 115.359 240.612 114.94C240.452 113.416 240.301 111.849 240.183 110.26C240.13 109.606 240.086 108.95 240.053 108.285C240.01 107.781 239.979 107.276 239.957 106.772C239.034 89.1665 236.178 79.2481 232.184 74.6968C231.454 73.8592 230.681 73.205 229.876 72.7211C219.28 66.2701 202.9 88.6729 192.003 106.772C176.791 132.063 132.175 262.564 205.936 300.565Z" fill="url(#paint5_linear_611_22758)"/>
<path opacity="0.25" d="M190.651 228.739C201.868 269.574 221.643 294.758 239.012 309.861C281.791 312.857 290.143 271.871 289.467 236.243C288.963 209.61 283.402 185.972 283.402 185.972C283.402 185.972 243.296 170.224 239.957 106.772C239.034 89.1662 236.178 79.2477 232.185 74.6964C231.454 73.8588 230.682 73.2047 229.877 72.7207C222.073 82.2868 169.234 150.806 190.651 228.739Z" fill="url(#paint6_linear_611_22758)"/>
<path d="M197.768 174.562C197.843 176.569 197.994 178.587 198.209 180.606C198.67 184.975 199.293 189.129 200.077 193.079C203.727 211.865 210.576 226.003 217.811 236.382C220.667 240.493 223.586 244.026 226.388 247.009C235.877 257.121 244.014 261.115 244.014 261.115H273.096C273.096 261.115 288.189 242.168 289.467 236.242C289.327 228.632 288.77 221.268 288.05 214.634C286.236 198.037 283.402 185.972 283.402 185.972C283.402 185.972 282.919 185.779 282.06 185.36C281.834 185.252 281.588 185.134 281.319 184.995C280.997 184.824 280.632 184.631 280.235 184.416C280.053 184.32 279.871 184.212 279.677 184.105C279.613 184.061 279.548 184.03 279.484 183.997C279.216 183.837 278.936 183.675 278.647 183.493C278.013 183.117 277.337 182.688 276.618 182.216C276.381 182.054 276.135 181.894 275.888 181.722C274.889 181.046 273.826 180.273 272.71 179.404C272.431 179.189 272.141 178.963 271.861 178.728C271.572 178.502 271.282 178.267 270.992 178.019C270.702 177.783 270.402 177.537 270.112 177.278C269.222 176.517 268.309 175.69 267.375 174.798C266.87 174.315 266.366 173.822 265.85 173.306C265.721 173.166 265.593 173.038 265.453 172.898C265.153 172.587 264.852 172.276 264.552 171.943C264.23 171.609 263.918 171.267 263.596 170.912C262.802 170.032 262.008 169.109 261.212 168.142C260.944 167.82 260.675 167.487 260.418 167.155C260.15 166.822 259.881 166.479 259.624 166.135C259.323 165.759 259.034 165.372 258.744 164.975C257.981 163.944 257.23 162.86 256.478 161.744C255.405 160.134 254.342 158.417 253.311 156.603C252.849 155.798 252.41 154.982 251.969 154.133C251.722 153.671 251.485 153.21 251.25 152.738C250.541 151.332 249.844 149.861 249.178 148.336C248.952 147.832 248.737 147.317 248.523 146.801C248.298 146.275 248.083 145.749 247.879 145.224C247.138 143.388 246.451 141.477 245.797 139.48C245.593 138.879 245.4 138.267 245.207 137.644C245.035 137.087 244.863 136.517 244.702 135.938C244.24 134.392 243.822 132.803 243.425 131.172C243.318 130.753 243.221 130.323 243.125 129.895C243.006 129.423 242.899 128.939 242.791 128.445C242.791 128.412 242.781 128.381 242.77 128.338C242.641 127.737 242.513 127.136 242.394 126.524C242.309 126.137 242.234 125.751 242.158 125.354C242.158 125.311 242.147 125.268 242.136 125.225C241.89 123.926 241.664 122.595 241.449 121.231C241.385 120.845 241.32 120.448 241.267 120.051C241.171 119.417 241.085 118.774 240.999 118.119C240.913 117.485 240.828 116.842 240.752 116.186C240.709 115.778 240.655 115.36 240.613 114.941C240.452 113.417 240.302 111.85 240.183 110.26C240.14 109.606 240.098 108.951 240.054 108.286C240.011 107.781 239.979 107.277 239.958 106.772C239.034 89.167 236.179 79.2486 232.185 74.6973C228.932 79.4634 225.271 85.1745 221.589 91.6147C214.815 103.487 207.944 117.85 203.318 133.48C199.443 146.544 197.135 160.478 197.768 174.562Z" fill="url(#paint7_linear_611_22758)"/>
<path d="M521.48 732.361C527.685 740.948 526.729 752.401 526.729 752.401C514.802 765.756 457.553 763.372 449.436 755.74C449.436 755.74 451.347 746.197 446.495 732.843C443.068 723.383 423.738 723.013 412.734 723.604C407.622 723.878 402.514 723.878 397.403 723.604C386.399 723.013 367.068 723.383 363.642 732.843C358.79 746.197 360.7 755.74 360.7 755.74C357.803 758.466 348.591 760.528 337.427 761.429C324.008 762.524 307.755 761.945 296.182 758.863C296.129 758.852 296.086 758.842 296.031 758.82C290.406 757.317 285.909 755.203 283.407 752.4C283.407 752.4 283.364 751.928 283.364 751.102C283.332 748.954 283.494 744.447 285.049 739.648C285.833 737.2 286.982 734.678 288.656 732.359C288.656 732.359 277.309 726.069 267.529 712.865C263.535 707.465 259.789 700.896 257.213 693.134C257.202 693.123 257.202 693.124 257.202 693.124C253.671 682.55 252.275 669.743 255.248 654.597C256.011 650.691 256.922 647.04 257.942 643.605C262.226 629.188 268.549 618.55 275.14 609.329C276.117 607.966 277.094 606.635 278.071 605.325C280.99 601.428 283.911 597.747 286.68 594.064C290.996 588.353 294.936 582.653 297.963 576.234C300.647 570.567 302.611 564.34 303.47 557.03C303.696 555.119 303.845 553.133 303.921 551.062C304.533 532.372 306.702 505.901 308.946 481.974C310.374 466.666 311.844 452.39 312.96 441.858C313.423 437.489 313.829 433.765 314.152 430.876C314.613 426.604 314.893 424.156 314.893 424.156H366.42L405.066 454.696L443.196 424.564L443.712 424.156H495.239C495.239 424.156 495.39 425.444 495.636 427.784C495.979 430.844 496.516 435.717 497.172 441.857C498.266 452.194 499.705 466.16 501.111 481.157C503.377 505.299 505.588 532.156 506.211 551.06C506.844 570.017 514.359 581.997 523.451 594.063C534.969 609.338 549.022 624.743 554.883 654.595C565.376 708.036 521.48 732.361 521.48 732.361Z" fill="url(#paint8_linear_611_22758)"/>
<path d="M477.712 687.028C477.712 687.028 477.712 687.039 477.701 687.05C469.167 701.853 449.318 710.097 408.289 710.538L401.848 710.505V710.538C400.85 710.527 399.894 710.505 398.929 710.485H398.435C359.188 709.616 340.22 701.209 332.103 686.45C332.092 686.428 332.092 686.417 332.092 686.417C322.281 668.533 328.378 641.353 333.649 606.982C334.497 601.463 335.324 595.764 336.042 589.891C336.279 588.012 336.505 586.134 336.718 584.224C337.91 573.575 340.228 562.926 344.533 553.072C358.2 521.76 389.566 512.044 421.643 517.422C454.631 522.951 469.983 553.511 473.418 584.224C474.727 595.956 476.466 607.024 478.131 617.361C478.69 620.903 479.247 624.36 479.773 627.731C479.806 627.957 479.837 628.171 479.87 628.396C480.021 629.33 480.171 630.263 480.3 631.188C480.311 631.22 480.31 631.241 480.31 631.273C483.863 654.652 485.462 673.557 477.712 687.028Z" fill="url(#paint9_linear_611_22758)"/>
<path opacity="0.62" d="M345.198 677.872C342.815 679.729 338.466 680.813 337.522 677.958C335.3 679.063 333.776 681.156 332.166 683.046C330.556 684.925 328.558 686.77 326.09 687.007C323.621 687.244 320.883 685 321.539 682.605C319.735 682.487 319.574 685.45 318.038 686.406C316.729 687.222 314.926 686.127 314.378 684.678C313.841 683.239 314.152 681.629 314.356 680.105C315.505 671.388 312.821 662.51 308.377 654.932C303.933 647.354 297.803 640.923 291.534 634.762C287.057 630.36 282.409 625.981 279.264 620.538C277.246 617.049 275.936 613.261 275.141 609.331C276.117 607.967 277.095 606.637 278.071 605.326C280.991 601.429 283.912 597.748 286.68 594.066C290.996 588.354 294.936 582.654 297.963 576.236C300.647 570.568 302.611 564.342 303.47 557.031C325.242 573.058 343.748 593.335 355.417 617.585C358.198 623.349 360.591 629.361 361.633 635.673C364.21 651.304 357.672 668.103 345.198 677.872Z" fill="#E58CB0"/>
<path d="M295.569 748.108C296.02 752.488 296.095 756.105 296.03 758.822C290.404 757.319 285.907 755.205 283.405 752.402C283.405 752.402 283.363 751.93 283.363 751.104C283.33 748.957 283.492 744.449 285.048 739.65C286.874 739.413 294.624 738.962 295.569 748.108Z" fill="url(#paint10_linear_611_22758)"/>
<path d="M337.424 761.43C324.005 762.525 307.752 761.945 296.18 758.864C297.264 752.348 300.323 742.623 308.805 743.02C317.232 743.428 318.809 753.936 318.927 760.979C319.603 756.158 321.686 750.286 327.773 750.072C334.139 749.858 336.532 756.363 337.424 761.43Z" fill="url(#paint11_linear_611_22758)"/>
<path opacity="0.62" d="M356.191 742.023C354.816 746.542 317.512 758.125 283.365 751.104C283.332 749.15 283.472 745.243 284.664 740.938C285.447 738.093 286.692 735.088 288.657 732.362C288.657 732.362 277.311 726.071 267.531 712.867C263.537 707.468 259.791 700.898 257.215 693.137C257.752 694.017 282.474 733.628 342.805 734.691C342.805 734.691 357.779 736.838 356.191 742.023Z" fill="#E58CB0"/>
<path opacity="0.62" d="M339.005 739.177C337.76 739.488 310.107 746.38 284.664 740.938C285.447 738.093 286.693 735.088 288.658 732.361C288.658 732.361 314.68 742.376 339.005 739.177Z" fill="#E58CB0"/>
<path d="M473.418 584.224C474.728 595.956 476.467 607.024 478.131 617.361C471.766 581.636 455.094 529.595 405.069 529.595C369.676 529.595 347.819 563.205 336.043 589.891C336.28 588.012 336.505 586.134 336.719 584.224C337.91 573.575 340.229 562.926 344.534 553.072C358.2 521.76 389.567 512.044 421.643 517.422C454.632 522.951 469.983 553.511 473.418 584.224Z" fill="url(#paint12_linear_611_22758)"/>
<path d="M369.985 634.397C369.545 641.342 367.29 649.114 363.706 653.118C362.429 654.556 360.968 655.502 359.369 655.748C353.282 656.704 357.823 632.968 357.823 632.968C357.823 632.968 358.306 630.435 359.079 627.858C359.68 625.819 360.464 623.758 361.334 622.888C363.309 620.914 370.576 624.971 369.985 634.397Z" fill="url(#paint13_linear_611_22758)"/>
<path opacity="0.47" d="M363.706 653.117C362.429 654.556 360.968 655.501 359.369 655.747C353.282 656.703 357.823 632.968 357.823 632.968C357.823 632.968 358.306 630.434 359.079 627.857H362.236C362.236 627.857 369.985 634.396 363.706 653.117Z" fill="url(#paint14_linear_611_22758)"/>
<path d="M346.862 650.306C339.154 652.742 330.931 650.253 322.59 643.886C314.356 637.606 306.015 627.526 297.953 614.656C294.969 609.889 292.018 604.737 289.129 599.252C288.239 597.567 287.444 595.892 286.736 594.207C286.725 594.163 286.703 594.11 286.683 594.067C278.889 575.571 281.133 556.967 286.328 538.536C290.568 523.466 296.773 508.512 301.056 493.816C302.495 488.868 303.278 484.166 303.548 479.733C304.761 460.614 296.645 446.541 292.072 440.24C290.354 437.846 289.13 436.568 289.13 436.568L296.742 438.264L312.962 441.861L319.189 443.245C319.189 443.245 338.48 466.979 332.039 488.61C331.469 490.531 330.697 492.431 329.688 494.299C320.23 511.828 319.93 528.5 332.072 548.831C335.796 555.078 340.703 561.66 346.864 568.723C349.075 571.256 351.04 573.897 352.78 576.623C371.66 606.218 363.468 645.066 346.862 650.306Z" fill="url(#paint15_linear_611_22758)"/>
<path d="M362.073 653.838C359.991 661.459 353.925 664.014 350.319 664.862C348.687 665.248 347.559 665.291 347.559 665.291L346.604 645.604C345.541 640.934 348.343 636.973 351.66 634.311C355.041 631.617 358.937 630.275 359.839 630.94C361.633 632.251 365.089 642.748 362.073 653.838Z" fill="url(#paint16_linear_611_22758)"/>
<path opacity="0.47" d="M350.319 664.861C348.687 665.248 347.559 665.291 347.559 665.291L346.604 645.604C345.541 640.934 348.343 636.973 351.66 634.311C351.198 637.123 350.973 641.771 353.184 646.129C356.019 651.734 353.153 660.6 350.319 664.861Z" fill="url(#paint17_linear_611_22758)"/>
<path d="M348.516 663.853C346.294 670.519 336.622 677.304 338.93 668.351C338.983 668.169 339.037 667.985 339.09 667.792C341.957 658.013 332.885 651.573 332.885 651.573C330.18 648.578 331.093 645.497 333.411 643.242C336.804 639.915 343.234 638.412 345.649 641.674C349.708 647.161 350.781 657.058 348.516 663.853Z" fill="url(#paint18_linear_611_22758)"/>
<path opacity="0.47" d="M339.09 667.792C341.957 658.012 332.885 651.572 332.885 651.572C330.18 648.578 331.093 645.497 333.411 643.242C333.336 644.907 333.67 646.624 334.56 648.019C335.677 649.78 337.717 650.638 338.962 652.292C340.046 653.709 340.851 655.362 341.357 657.08C342.515 661.062 341.776 665.281 338.931 668.351C338.983 668.169 339.037 667.986 339.09 667.792Z" fill="url(#paint19_linear_611_22758)"/>
<path opacity="0.62" d="M464.937 677.872C467.32 679.729 471.669 680.813 472.612 677.958C474.834 679.063 476.359 681.156 477.969 683.046C479.579 684.925 481.577 686.77 484.045 687.007C486.514 687.244 489.25 685 488.596 682.605C490.399 682.487 490.561 685.45 492.095 686.406C493.405 687.222 495.208 686.127 495.756 684.678C496.293 683.239 495.982 681.629 495.778 680.105C494.629 671.388 497.313 662.51 501.757 654.932C506.201 647.354 512.331 640.923 518.6 634.762C523.077 630.36 527.725 625.981 530.87 620.538C532.888 617.049 534.198 613.261 534.992 609.331C534.015 607.967 533.038 606.637 532.061 605.326C529.142 601.429 526.221 597.748 523.452 594.066C519.136 588.354 515.198 582.654 512.169 576.236C509.485 570.568 507.521 564.342 506.662 557.031C484.891 573.058 466.385 593.335 454.716 617.585C451.935 623.349 449.541 629.361 448.5 635.673C445.926 651.304 452.463 668.103 464.937 677.872Z" fill="#E58CB0"/>
<path d="M514.563 748.108C514.113 752.488 514.037 756.105 514.102 758.822C519.728 757.319 524.225 755.205 526.727 752.402C526.727 752.402 526.771 751.93 526.771 751.104C526.803 748.957 526.642 744.449 525.086 739.65C523.26 739.413 515.508 738.962 514.563 748.108Z" fill="url(#paint20_linear_611_22758)"/>
<path d="M472.711 761.43C486.13 762.525 502.383 761.945 513.955 758.864C512.871 752.348 509.812 742.623 501.33 743.02C492.903 743.428 491.326 753.936 491.208 760.979C490.532 756.158 488.448 750.286 482.362 750.072C475.995 749.858 473.602 756.363 472.711 761.43Z" fill="url(#paint21_linear_611_22758)"/>
<path opacity="0.62" d="M453.946 742.023C455.32 746.542 492.625 758.125 526.773 751.104C526.806 749.15 526.666 745.243 525.474 740.938C524.691 738.093 523.446 735.088 521.481 732.362C521.481 732.362 532.827 726.071 542.607 712.867C546.601 707.468 550.348 700.898 552.923 693.137C552.386 694.017 527.664 733.628 467.333 734.691C467.333 734.691 452.357 736.838 453.946 742.023Z" fill="#E58CB0"/>
<path opacity="0.62" d="M471.133 739.177C472.378 739.488 500.031 746.38 525.474 740.938C524.691 738.093 523.445 735.088 521.48 732.361C521.48 732.361 495.459 742.376 471.133 739.177Z" fill="#E58CB0"/>
<path d="M440.151 634.397C440.592 641.342 442.845 649.114 446.431 653.118C447.708 654.556 449.168 655.502 450.768 655.748C456.854 656.704 452.314 632.968 452.314 632.968C452.314 632.968 451.831 630.435 451.057 627.858C450.456 625.819 449.673 623.758 448.803 622.888C446.828 620.914 439.561 624.971 440.151 634.397Z" fill="url(#paint22_linear_611_22758)"/>
<path opacity="0.47" d="M446.432 653.117C447.709 654.556 449.169 655.501 450.768 655.747C456.855 656.703 452.314 632.968 452.314 632.968C452.314 632.968 451.832 630.434 451.058 627.857H447.902C447.902 627.857 440.152 634.396 446.432 653.117Z" fill="url(#paint23_linear_611_22758)"/>
<path d="M463.275 650.306C470.982 652.742 479.205 650.253 487.547 643.886C495.781 637.606 504.122 627.526 512.183 614.656C515.168 609.889 518.119 604.737 521.007 599.252C521.898 597.567 522.692 595.892 523.401 594.207C523.412 594.163 523.433 594.11 523.454 594.067C531.247 575.571 529.003 556.967 523.809 538.536C519.569 523.466 513.364 508.512 509.08 493.816C507.641 488.868 506.858 484.166 506.59 479.733C505.377 460.614 513.493 446.541 518.066 440.24C519.783 437.846 521.007 436.568 521.007 436.568L513.396 438.264L497.176 441.861L490.949 443.245C490.949 443.245 471.658 466.979 478.1 488.61C478.668 490.531 479.442 492.431 480.451 494.299C489.909 511.828 490.209 528.5 478.068 548.831C474.344 555.078 469.437 561.66 463.276 568.723C461.065 571.256 459.1 573.897 457.361 576.623C438.476 606.218 446.668 645.066 463.275 650.306Z" fill="url(#paint24_linear_611_22758)"/>
<path d="M448.062 653.838C450.144 661.459 456.21 664.014 459.816 664.862C461.448 665.248 462.576 665.291 462.576 665.291L463.531 645.604C464.594 640.934 461.792 636.973 458.475 634.311C455.094 631.617 451.197 630.275 450.296 630.94C448.501 632.251 445.044 642.748 448.062 653.838Z" fill="url(#paint25_linear_611_22758)"/>
<path opacity="0.47" d="M459.818 664.861C461.45 665.248 462.578 665.291 462.578 665.291L463.533 645.604C464.596 640.934 461.794 636.973 458.477 634.311C458.939 637.123 459.164 641.771 456.953 646.129C454.118 651.734 456.984 660.6 459.818 664.861Z" fill="url(#paint26_linear_611_22758)"/>
<path d="M461.619 663.853C463.841 670.519 473.514 677.304 471.206 668.351C471.153 668.169 471.099 667.985 471.046 667.792C468.179 658.013 477.251 651.573 477.251 651.573C479.956 648.578 479.043 645.497 476.725 643.242C473.332 639.915 466.902 638.412 464.487 641.674C460.428 647.161 459.355 657.058 461.619 663.853Z" fill="url(#paint27_linear_611_22758)"/>
<path opacity="0.47" d="M471.045 667.792C468.179 658.012 477.25 651.572 477.25 651.572C479.955 648.578 479.043 645.497 476.724 643.242C476.799 644.907 476.466 646.624 475.575 648.019C474.458 649.78 472.419 650.638 471.173 652.292C470.089 653.709 469.284 655.362 468.779 657.08C467.62 661.062 468.36 665.281 471.205 668.351C471.153 668.169 471.1 667.986 471.045 667.792Z" fill="url(#paint28_linear_611_22758)"/>
<path opacity="0.4" d="M506.566 479.486C504.805 480.045 502.98 480.602 501.113 481.161C494.049 483.265 486.223 485.337 477.711 487.215C457.067 491.788 432.42 495.245 405.067 495.245C372.551 495.245 348.794 492.218 332.038 488.61C321.935 486.432 314.368 484.048 308.946 481.976C306.821 481.171 305.028 480.408 303.546 479.732C304.759 460.613 296.643 446.541 292.07 440.239L296.74 438.265L314.152 430.88L330.018 424.16L343.523 418.438L443.198 424.568L495.638 427.788C495.981 430.847 496.518 435.721 497.173 441.86L521.005 436.568C521.005 436.568 505.019 453.25 506.566 479.486Z" fill="#E58CB0"/>
<path d="M561.193 187.923C542.921 161.92 518.625 140.585 491.042 126.842C453.542 108.157 401.669 104.768 361.463 114.617C320.379 124.683 283.444 152.049 258.235 187.922C223.727 237.03 209.728 300.115 210.419 361.551C210.572 375.204 211.501 389.257 217.068 401.543C225.604 420.386 244.012 434.272 261.004 445.201C279.634 457.186 300.421 465.647 321.841 471.147C353.562 479.29 386.603 481.111 419.345 480.374C448.166 479.725 477.131 477.091 504.887 469.301C534.431 461.011 560.851 446.536 583.555 425.922C591.119 419.055 598.035 411.095 602.362 401.543C607.927 389.257 608.856 375.204 609.01 361.551C609.7 300.116 595.702 237.032 561.193 187.923Z" fill="url(#paint29_linear_611_22758)"/>
<path d="M480.301 631.186C480.161 630.37 480.022 629.436 479.871 628.395C480.022 629.329 480.172 630.263 480.301 631.186Z" fill="url(#paint30_linear_611_22758)"/>
<path opacity="0.4" d="M477.704 687.05C477.221 688.048 461.043 720.189 402.205 719.479C343.516 718.781 332.481 687.564 332.105 686.449C340.221 701.209 359.19 709.615 398.438 710.484H398.931C399.897 710.506 400.853 710.526 401.851 710.537V710.504L408.291 710.537C449.32 710.098 469.169 701.853 477.704 687.05Z" fill="#E58CB0"/>
<path opacity="0.36" d="M251.297 362.383C251.297 362.383 229.09 278.942 276.194 264.594C323.298 250.246 347.292 325.14 347.745 352.43C348.197 379.72 314.909 397.233 282.659 385.986C250.409 374.74 251.297 362.383 251.297 362.383Z" fill="#369999"/>
<path d="M282.042 385.82C270.609 384.329 260.722 380.357 256.02 374.818C240.272 356.3 239.8 300.491 266.035 279.731C293.474 258.025 335.77 291.41 340.74 342.936C340.762 343.151 340.784 343.355 340.793 343.559C343.822 379.197 308.729 389.299 282.042 385.82Z" fill="url(#paint31_radial_611_22758)"/>
<path d="M281.895 329.734C290.734 329.734 297.899 321.252 297.899 310.789C297.899 300.326 290.734 291.844 281.895 291.844C273.056 291.844 265.891 300.326 265.891 310.789C265.891 321.252 273.056 329.734 281.895 329.734Z" fill="white"/>
<path opacity="0.52" d="M289.438 368.719C288.376 373.413 281.085 375.763 273.155 373.968C265.224 372.173 259.657 366.912 260.72 362.219C261.782 357.525 269.072 355.175 277.003 356.97C284.933 358.764 290.501 364.024 289.438 368.719Z" fill="url(#paint32_linear_611_22758)"/>
<path opacity="0.14" d="M282.042 385.82C272.659 380.067 266.648 371.158 266.648 361.163C266.648 343.805 284.801 329.732 307.195 329.732C321.183 329.732 333.507 335.218 340.796 343.559C343.822 379.197 308.729 389.299 282.042 385.82Z" fill="url(#paint33_linear_611_22758)"/>
<path opacity="0.36" d="M240.034 337.332C240.034 337.332 227.374 373.472 263.94 390.648C263.94 390.648 238.602 389.932 233.592 369.894C228.583 349.855 240.034 337.332 240.034 337.332Z" fill="#369999"/>
<path opacity="0.36" d="M308.738 262.785C308.738 262.785 326.988 270.419 330.923 283.3C330.923 283.3 329.492 262.771 308.738 262.785Z" fill="#369999"/>
<path opacity="0.58" d="M288.76 230.784C285.933 224.492 272.53 224.382 258.824 230.54C245.118 236.697 236.298 246.79 239.125 253.081C241.952 259.373 255.355 259.483 269.061 253.325C282.768 247.169 291.587 237.076 288.76 230.784Z" fill="#369999"/>
<path opacity="0.36" d="M564.551 362.383C564.551 362.383 586.758 278.942 539.653 264.594C492.549 250.246 468.555 325.14 468.102 352.43C467.65 379.72 500.938 397.233 533.188 385.986C565.438 374.74 564.551 362.383 564.551 362.383Z" fill="#369999"/>
<path d="M533.81 385.82C545.242 384.329 555.13 380.357 559.832 374.818C575.58 356.3 576.052 300.491 549.816 279.731C522.377 258.025 480.082 291.41 475.112 342.936C475.09 343.151 475.069 343.355 475.058 343.559C472.03 379.197 507.123 389.299 533.81 385.82Z" fill="url(#paint34_radial_611_22758)"/>
<path d="M533.953 329.734C542.792 329.734 549.958 321.252 549.958 310.789C549.958 300.326 542.792 291.844 533.953 291.844C525.115 291.844 517.949 300.326 517.949 310.789C517.949 321.252 525.115 329.734 533.953 329.734Z" fill="white"/>
<path opacity="0.52" d="M526.411 368.719C527.473 373.413 534.763 375.763 542.694 373.968C550.625 372.173 556.193 366.912 555.13 362.219C554.067 357.525 546.777 355.175 538.846 356.97C530.917 358.764 525.349 364.024 526.411 368.719Z" fill="url(#paint35_linear_611_22758)"/>
<path opacity="0.14" d="M533.808 385.82C543.191 380.067 549.202 371.158 549.202 361.163C549.202 343.805 531.049 329.732 508.655 329.732C494.667 329.732 482.343 335.218 475.054 343.559C472.028 379.197 507.121 389.299 533.808 385.82Z" fill="url(#paint36_linear_611_22758)"/>
<path opacity="0.36" d="M575.813 337.332C575.813 337.332 588.472 373.472 551.906 390.648C551.906 390.648 577.244 389.932 582.254 369.894C587.264 349.855 575.813 337.332 575.813 337.332Z" fill="#369999"/>
<path opacity="0.36" d="M507.111 262.785C507.111 262.785 488.862 270.419 484.926 283.3C484.926 283.3 486.357 262.771 507.111 262.785Z" fill="#369999"/>
<path opacity="0.58" d="M527.09 230.784C529.917 224.492 543.32 224.382 557.026 230.54C570.732 236.697 579.552 246.79 576.725 253.081C573.898 259.373 560.495 259.483 546.789 253.325C533.082 247.169 524.263 237.076 527.09 230.784Z" fill="#369999"/>
<path opacity="0.36" d="M349.008 254.767C349.008 254.767 356.63 278.941 377.146 284.905C377.146 284.905 380.128 285.621 380.844 282.758C381.56 279.895 380.794 252.784 371.217 243.439C361.639 234.095 349.008 254.767 349.008 254.767Z" fill="#369999"/>
<path opacity="0.36" d="M365.027 215.845C365.027 215.845 394.442 269.996 406.608 271.784C418.775 273.573 457.808 204.902 456.601 197.551C455.394 190.201 434.085 185.191 434.085 185.191L392.418 186.861L365.027 215.845Z" fill="#369999"/>
<path opacity="0.36" d="M436.07 259.352C436.07 259.352 426.17 285.62 431.06 293.493C435.951 301.366 455.559 277.272 459.472 263.555L436.07 259.352Z" fill="#369999"/>
<path opacity="0.36" d="M393.059 301.953C393.059 301.953 395.702 347.881 406.224 350.982C416.746 354.083 419.399 297.674 419.399 297.674L408.994 294.873L393.059 301.953Z" fill="#369999"/>
<path d="M419.488 295.518C418.931 316.311 408.539 344.328 405.35 337.33C405.35 337.33 388.11 304.46 393.435 286.286C395.034 280.844 398.653 276.722 405.35 275.186C416.44 272.643 419.832 282.713 419.488 295.518Z" fill="url(#paint37_linear_611_22758)"/>
<path d="M434.4 286.158C434.4 286.158 431.834 258.378 441.271 249.091C444.126 246.268 448.098 245.152 453.584 247.041C457.642 248.436 459.756 250.948 460.476 254.083C463.932 269.036 435.537 297.998 434.4 286.158Z" fill="url(#paint38_linear_611_22758)"/>
<path d="M475.796 151.278C461.1 171.599 443.987 190.267 443.987 190.267H358.182C358.182 190.267 342.82 174.433 332.182 158.106C325.246 147.479 320.309 136.647 322.906 129.82C328.113 116.112 338.311 124.109 342.337 128.038C335.498 120.567 311.055 91.2932 330.925 74.3323C338.075 68.2241 347.275 75.8458 356.561 89.2209C351.784 72.721 351.279 59.3037 359.963 55.246C365.041 52.8732 369.937 53.6577 374.552 56.5012C395.067 69.1788 409.999 122.755 409.999 122.755C409.999 122.755 426.349 133.49 426.349 131.579C426.349 130.206 433.423 90.0355 447.915 70.3386C453.411 62.846 460.002 58.3152 467.678 60.0218C479.894 62.7374 478.123 82.6395 472.272 104.131C476.556 101.243 481.665 99.8056 487.795 100.567C506.143 102.854 492.531 128.134 475.796 151.278Z" fill="url(#paint39_radial_611_22758)"/>
<path opacity="0.38" d="M475.794 151.279C461.098 171.6 443.985 190.267 443.985 190.267H358.18C358.18 190.267 342.818 174.433 332.18 158.106C332.469 155.573 333.414 153.222 335.571 151.612C342.141 146.696 350.515 156.238 351.866 157.838C350.439 155.862 340.358 141.167 347.541 130.862C355.248 119.773 365.275 127.954 365.275 127.954C365.275 127.954 351.201 106.635 357.814 93.356C358.018 92.9372 358.255 92.5293 358.501 92.1214V92.1105C366.713 78.9828 377.963 84.35 377.963 84.35C377.963 84.35 370.019 69.2683 374.55 56.5039C395.065 69.1814 409.997 122.758 409.997 122.758C409.997 122.758 426.347 133.492 426.347 131.582C426.347 130.208 433.421 90.0382 447.913 70.3413C448.213 80.4215 448.374 93.5069 447.419 98.3044C447.419 98.3044 457.833 99.6139 462.008 115.941V115.952C463.414 121.437 463.865 126.096 463.865 129.853C463.854 137.304 462.008 141.243 462.008 141.243C462.008 141.243 470.414 143.881 475.794 151.279Z" fill="url(#paint40_radial_611_22758)"/>
<path d="M426.382 238.521C421.475 244.039 416.033 249.825 410.001 255.9H405.353C405.353 255.9 395.38 247.195 383.463 235.14C383.463 235.14 383.463 235.14 383.463 235.129C364.012 215.442 339.428 186.823 344.754 172.611C350.367 157.657 359.836 165.494 365.74 172.729C358.237 161.243 346.589 139.999 358.183 133.493C363.777 130.359 368.286 131.335 371.796 133.955C365.151 120.956 359.537 103.308 371.957 94.8488C376.52 91.7361 380.9 91.9401 384.958 94.1729C383.444 85.5205 383.003 75.3232 384.346 63.365C390.561 8.01682 407.051 -3.57685 423.002 0.857376C450.076 8.38253 444.257 77.2132 434.736 115.643C439.288 110.791 444.794 108.183 450.678 111.543C461.445 117.693 459.513 133.345 455.433 146.516C465.178 143.284 487.904 169.358 426.382 238.521Z" fill="url(#paint41_radial_611_22758)"/>
<path d="M376.248 279.964C356.668 273.621 348.09 258.667 347.564 247.084C347.188 238.636 351.106 231.981 358.181 231.777C366.812 231.529 373.017 244.841 376.152 257.54C379.103 269.52 379.318 280.952 376.248 279.964Z" fill="url(#paint42_linear_611_22758)"/>
<path opacity="0.38" d="M426.381 238.521C421.474 244.039 416.032 249.825 410 255.9H405.352C405.352 255.9 395.379 247.195 383.462 235.14C383.462 235.14 383.462 235.14 383.462 235.129C379.576 216.021 365.975 137.197 404.632 131.229C445.575 124.895 442.548 201.583 426.381 238.521Z" fill="url(#paint43_radial_611_22758)"/>
<path d="M431.652 193.969C427.809 228.588 408.036 269.058 406.823 267.823C387.714 248.361 382.046 215.019 385.159 188.387V188.376C385.749 183.309 386.661 178.479 387.853 174.045C391.331 161.067 397.256 151.373 404.814 148.508C409.205 146.843 414.165 147.488 419.51 151.149C431.286 159.2 433.67 175.773 431.652 193.969Z" fill="url(#paint44_linear_611_22758)"/>
<path opacity="0.51" d="M431.652 193.969C427.809 228.588 408.036 269.057 406.823 267.823C387.714 248.361 382.046 215.019 385.159 188.387C386.758 209.04 391.482 241.952 405.351 238.088C416.064 235.093 425.329 213.463 431.652 193.969Z" fill="#0F74CE"/>
<path opacity="0.51" d="M434.4 286.159C434.4 286.159 431.834 258.378 441.271 249.092C438.898 256.38 436.483 267.608 440.777 274.791C445.587 282.842 455.247 265.118 460.476 254.084C463.932 269.036 435.537 297.999 434.4 286.159Z" fill="#0F74CE"/>
<path opacity="0.39" d="M399.267 207.742C390.4 205.735 388.028 189.536 387.855 174.046C391.334 161.068 397.259 151.374 404.817 148.509C410.958 148.187 417.087 151.332 419.513 157.708C424.011 169.516 416.808 211.736 399.267 207.742Z" fill="#CFF1FF"/>
<path opacity="0.51" d="M419.488 295.519C418.931 316.312 408.539 344.329 405.35 337.33C405.35 337.33 388.11 304.461 393.435 286.287C395.152 295.175 399.199 310.418 406.821 310.784C411.706 311.021 416.119 303.645 419.488 295.519Z" fill="#0F74CE"/>
<path opacity="0.51" d="M376.251 279.966C356.671 273.622 348.093 258.669 347.566 247.086C352.515 256.908 359.751 267.826 367.426 267.857C372.643 267.879 375.112 263.295 376.153 257.541C379.106 269.521 379.32 280.953 376.251 279.966Z" fill="#0F74CE"/>
<path d="M391.723 435.646C384.617 434.144 378.541 431.836 373.72 429.538C372.915 420.993 373.505 410.033 381.568 409.153C390.306 408.198 391.744 424.59 391.723 435.646Z" fill="white"/>
<path d="M446.525 429.956C441.855 431.824 435.844 433.799 428.555 435.238C428.576 424.192 430.079 408.218 438.71 409.152C446.901 410.043 447.374 421.358 446.525 429.956Z" fill="white"/>
<path d="M361.289 422.035C388.389 436.087 417.027 436.087 445.877 428.229C450.023 427.181 453.977 425.647 458.141 424.536C454.719 427.151 451.109 429.595 447.249 431.654C420.396 445.773 382.983 445.004 361.289 422.035Z" fill="#191919"/>
<defs>
<linearGradient id="paint0_linear_611_22758" x1="397.247" y1="566.777" x2="20.4491" y2="524.909" gradientUnits="userSpaceOnUse">
<stop stop-color="#FBA824"/>
<stop offset="1" stop-color="#FECE97"/>
</linearGradient>
<linearGradient id="paint1_linear_611_22758" x1="446.382" y1="533.03" x2="808.723" y2="533.03" gradientUnits="userSpaceOnUse">
<stop stop-color="#FBA824"/>
<stop offset="1" stop-color="#FECE97"/>
</linearGradient>
<linearGradient id="paint2_linear_611_22758" x1="678.851" y1="212.059" x2="595.12" y2="193.451" gradientUnits="userSpaceOnUse">
<stop stop-color="#FEE2B1"/>
<stop offset="1" stop-color="#EF84AA"/>
</linearGradient>
<linearGradient id="paint3_linear_611_22758" x1="717.13" y1="239.292" x2="559.553" y2="184.481" gradientUnits="userSpaceOnUse">
<stop stop-color="#FEE2B1"/>
<stop offset="1" stop-color="#EF84AA"/>
</linearGradient>
<linearGradient id="paint4_linear_611_22758" x1="610.332" y1="81.2471" x2="576.639" y2="196.482" gradientUnits="userSpaceOnUse">
<stop stop-color="#A0E997"/>
<stop offset="1" stop-color="#3BD8DB"/>
</linearGradient>
<linearGradient id="paint5_linear_611_22758" x1="141.265" y1="212.059" x2="224.996" y2="193.451" gradientUnits="userSpaceOnUse">
<stop stop-color="#FEE2B1"/>
<stop offset="1" stop-color="#EF84AA"/>
</linearGradient>
<linearGradient id="paint6_linear_611_22758" x1="102.988" y1="239.292" x2="260.565" y2="184.481" gradientUnits="userSpaceOnUse">
<stop stop-color="#FEE2B1"/>
<stop offset="1" stop-color="#EF84AA"/>
</linearGradient>
<linearGradient id="paint7_linear_611_22758" x1="209.784" y1="81.2471" x2="243.477" y2="196.482" gradientUnits="userSpaceOnUse">
<stop stop-color="#A0E997"/>
<stop offset="1" stop-color="#3BD8DB"/>
</linearGradient>
<linearGradient id="paint8_linear_611_22758" x1="399.975" y1="338.263" x2="405.7" y2="711.828" gradientUnits="userSpaceOnUse">
<stop stop-color="#A0E997"/>
<stop offset="1" stop-color="#3BD8DB"/>
</linearGradient>
<linearGradient id="paint9_linear_611_22758" x1="410.374" y1="513.122" x2="400.695" y2="783.773" gradientUnits="userSpaceOnUse">
<stop stop-color="#A0E997"/>
<stop offset="1" stop-color="#3BD8DB"/>
</linearGradient>
<linearGradient id="paint10_linear_611_22758" x1="289.671" y1="754.767" x2="290.551" y2="737.383" gradientUnits="userSpaceOnUse">
<stop stop-color="#FF9A17"/>
<stop offset="1" stop-color="#FEDC6D"/>
</linearGradient>
<linearGradient id="paint11_linear_611_22758" x1="316.905" y1="758.116" x2="317.763" y2="741.17" gradientUnits="userSpaceOnUse">
<stop stop-color="#FF9A17"/>
<stop offset="1" stop-color="#FEDC6D"/>
</linearGradient>
<linearGradient id="paint12_linear_611_22758" x1="410.27" y1="514.608" x2="405.361" y2="651.876" gradientUnits="userSpaceOnUse">
<stop stop-color="#A0E997"/>
<stop offset="1" stop-color="#3BD8DB"/>
</linearGradient>
<linearGradient id="paint13_linear_611_22758" x1="356.195" y1="639.089" x2="370.019" y2="639.089" gradientUnits="userSpaceOnUse">
<stop stop-color="#FF9A17"/>
<stop offset="1" stop-color="#FEDC6D"/>
</linearGradient>
<linearGradient id="paint14_linear_611_22758" x1="361.765" y1="627.407" x2="360.372" y2="666.357" gradientUnits="userSpaceOnUse">
<stop stop-color="#FF9A17"/>
<stop offset="1" stop-color="#FEDC6D"/>
</linearGradient>
<linearGradient id="paint15_linear_611_22758" x1="277.369" y1="714.151" x2="336.408" y2="491.943" gradientUnits="userSpaceOnUse">
<stop stop-color="#A0E997"/>
<stop offset="1" stop-color="#38B5CF"/>
</linearGradient>
<linearGradient id="paint16_linear_611_22758" x1="346.375" y1="648.032" x2="363.263" y2="648.032" gradientUnits="userSpaceOnUse">
<stop stop-color="#FF9A17"/>
<stop offset="1" stop-color="#FEDC6D"/>
</linearGradient>
<linearGradient id="paint17_linear_611_22758" x1="350.861" y1="633.8" x2="349.314" y2="677.048" gradientUnits="userSpaceOnUse">
<stop stop-color="#FF9A17"/>
<stop offset="1" stop-color="#FEDC6D"/>
</linearGradient>
<linearGradient id="paint18_linear_611_22758" x1="331.227" y1="656.253" x2="349.683" y2="656.253" gradientUnits="userSpaceOnUse">
<stop stop-color="#FF9A17"/>
<stop offset="1" stop-color="#FEDC6D"/>
</linearGradient>
<linearGradient id="paint19_linear_611_22758" x1="336.958" y1="642.983" x2="335.72" y2="677.595" gradientUnits="userSpaceOnUse">
<stop stop-color="#FF9A17"/>
<stop offset="1" stop-color="#FEDC6D"/>
</linearGradient>
<linearGradient id="paint20_linear_611_22758" x1="520.462" y1="754.767" x2="519.582" y2="737.383" gradientUnits="userSpaceOnUse">
<stop stop-color="#FF9A17"/>
<stop offset="1" stop-color="#FEDC6D"/>
</linearGradient>
<linearGradient id="paint21_linear_611_22758" x1="493.23" y1="758.116" x2="492.372" y2="741.17" gradientUnits="userSpaceOnUse">
<stop stop-color="#FF9A17"/>
<stop offset="1" stop-color="#FEDC6D"/>
</linearGradient>
<linearGradient id="paint22_linear_611_22758" x1="453.941" y1="639.089" x2="440.117" y2="639.089" gradientUnits="userSpaceOnUse">
<stop stop-color="#FF9A17"/>
<stop offset="1" stop-color="#FEDC6D"/>
</linearGradient>
<linearGradient id="paint23_linear_611_22758" x1="448.372" y1="627.407" x2="449.765" y2="666.357" gradientUnits="userSpaceOnUse">
<stop stop-color="#FF9A17"/>
<stop offset="1" stop-color="#FEDC6D"/>
</linearGradient>
<linearGradient id="paint24_linear_611_22758" x1="446.033" y1="642.347" x2="484.677" y2="563.148" gradientUnits="userSpaceOnUse">
<stop stop-color="#A0E997"/>
<stop offset="1" stop-color="#38B5CF"/>
</linearGradient>
<linearGradient id="paint25_linear_611_22758" x1="463.759" y1="648.032" x2="446.871" y2="648.032" gradientUnits="userSpaceOnUse">
<stop stop-color="#FF9A17"/>
<stop offset="1" stop-color="#FEDC6D"/>
</linearGradient>
<linearGradient id="paint26_linear_611_22758" x1="459.276" y1="633.8" x2="460.822" y2="677.048" gradientUnits="userSpaceOnUse">
<stop stop-color="#FF9A17"/>
<stop offset="1" stop-color="#FEDC6D"/>
</linearGradient>
<linearGradient id="paint27_linear_611_22758" x1="478.909" y1="656.253" x2="460.453" y2="656.253" gradientUnits="userSpaceOnUse">
<stop stop-color="#FF9A17"/>
<stop offset="1" stop-color="#FEDC6D"/>
</linearGradient>
<linearGradient id="paint28_linear_611_22758" x1="473.179" y1="642.983" x2="474.416" y2="677.595" gradientUnits="userSpaceOnUse">
<stop stop-color="#FF9A17"/>
<stop offset="1" stop-color="#FEDC6D"/>
</linearGradient>
<linearGradient id="paint29_linear_611_22758" x1="405.55" y1="111.014" x2="411.275" y2="449.513" gradientUnits="userSpaceOnUse">
<stop stop-color="#A0E997"/>
<stop offset="1" stop-color="#3BD8DB"/>
</linearGradient>
<linearGradient id="paint30_linear_611_22758" x1="480.137" y1="628.362" x2="480" y2="632.218" gradientUnits="userSpaceOnUse">
<stop stop-color="#A0E997"/>
<stop offset="1" stop-color="#3BD8DB"/>
</linearGradient>
<radialGradient id="paint31_radial_611_22758" cx="0" cy="0" r="1" gradientUnits="userSpaceOnUse" gradientTransform="translate(336.17 380.627) scale(144.943 144.938)">
<stop offset="1.4e-07" stop-color="#005FA8"/>
<stop offset="1"/>
</radialGradient>
<linearGradient id="paint32_linear_611_22758" x1="271.844" y1="317.162" x2="283.294" y2="488.201" gradientUnits="userSpaceOnUse">
<stop stop-color="#B5F5F3"/>
<stop offset="1" stop-color="#4288D6"/>
</linearGradient>
<linearGradient id="paint33_linear_611_22758" x1="288.417" y1="335.088" x2="333.036" y2="397.348" gradientUnits="userSpaceOnUse">
<stop stop-color="#B5F5F3"/>
<stop offset="1" stop-color="#4288D6"/>
</linearGradient>
<radialGradient id="paint34_radial_611_22758" cx="0" cy="0" r="1" gradientUnits="userSpaceOnUse" gradientTransform="translate(479.682 380.627) rotate(180) scale(144.942 144.938)">
<stop offset="1.4e-07" stop-color="#005FA8"/>
<stop offset="1"/>
</radialGradient>
<linearGradient id="paint35_linear_611_22758" x1="544.005" y1="317.162" x2="532.555" y2="488.201" gradientUnits="userSpaceOnUse">
<stop stop-color="#B5F5F3"/>
<stop offset="1" stop-color="#4288D6"/>
</linearGradient>
<linearGradient id="paint36_linear_611_22758" x1="527.433" y1="335.088" x2="482.814" y2="397.348" gradientUnits="userSpaceOnUse">
<stop stop-color="#B5F5F3"/>
<stop offset="1" stop-color="#4288D6"/>
</linearGradient>
<linearGradient id="paint37_linear_611_22758" x1="402.112" y1="107.819" x2="406.406" y2="315.355" gradientUnits="userSpaceOnUse">
<stop stop-color="#B5F5F3"/>
<stop offset="1" stop-color="#4288D6"/>
</linearGradient>
<linearGradient id="paint38_linear_611_22758" x1="444.096" y1="106.95" x2="448.389" y2="314.487" gradientUnits="userSpaceOnUse">
<stop stop-color="#B5F5F3"/>
<stop offset="1" stop-color="#4288D6"/>
</linearGradient>
<radialGradient id="paint39_radial_611_22758" cx="0" cy="0" r="1" gradientUnits="userSpaceOnUse" gradientTransform="translate(375.295 -118.897) scale(227.069 227.061)">
<stop offset="5.7e-07" stop-color="#FEDC6D"/>
<stop offset="0.9838" stop-color="#FF9A17"/>
</radialGradient>
<radialGradient id="paint40_radial_611_22758" cx="0" cy="0" r="1" gradientUnits="userSpaceOnUse" gradientTransform="translate(403.987 123.384) scale(69.3891 69.3867)">
<stop offset="5.7e-07" stop-color="#FEDC6D"/>
<stop offset="0.9838" stop-color="#FF9A17"/>
</radialGradient>
<radialGradient id="paint41_radial_611_22758" cx="0" cy="0" r="1" gradientUnits="userSpaceOnUse" gradientTransform="translate(404.278 -33.0186) scale(290.366 290.356)">
<stop offset="5.7e-07" stop-color="#FEDC6D"/>
<stop offset="0.9838" stop-color="#FF9A17"/>
</radialGradient>
<linearGradient id="paint42_linear_611_22758" x1="359.871" y1="108.693" x2="364.164" y2="316.229" gradientUnits="userSpaceOnUse">
<stop stop-color="#B5F5F3"/>
<stop offset="1" stop-color="#4288D6"/>
</linearGradient>
<radialGradient id="paint43_radial_611_22758" cx="0" cy="0" r="1" gradientUnits="userSpaceOnUse" gradientTransform="translate(407.739 193.38) scale(48.9685 48.9668)">
<stop offset="5.7e-07" stop-color="#FEDC6D"/>
<stop offset="0.9838" stop-color="#FF9A17"/>
</radialGradient>
<linearGradient id="paint44_linear_611_22758" x1="406.561" y1="107.727" x2="410.855" y2="315.264" gradientUnits="userSpaceOnUse">
<stop stop-color="#B5F5F3"/>
<stop offset="1" stop-color="#4288D6"/>
</linearGradient>
</defs>
</svg>
