<svg width="1280" height="799" viewBox="0 0 1280 799" fill="none" xmlns="http://www.w3.org/2000/svg">
<path d="M804.295 99.7258C756.29 86.1762 701.619 76.7923 642.824 77.2746C642.824 77.2746 687.232 203.628 674.447 291.942C674.447 291.942 712.715 289.289 746.465 294.442C757.387 296.086 767.825 298.564 776.356 302.203C776.356 302.203 813.462 263.549 853.9 252.39C853.9 252.39 851.137 218.844 903.221 226.715C903.221 226.715 928.704 188.632 999.34 191.109C999.34 191.109 921.818 132.898 804.295 99.7258ZM682.167 176.419C678.285 175.608 678.614 157.586 682.167 160.37C688.526 165.347 686.048 177.253 682.167 176.419ZM716.158 254.253C696.64 251.578 690.478 230.706 690.478 230.706L705.983 242.348C705.983 242.348 696.005 230.706 692.956 220.73C689.908 210.776 689.82 176.573 692.956 178.634C726.356 200.559 716.158 254.253 716.158 254.253Z" fill="url(#paint0_radial_610_914)"/>
<path d="M668.588 295.655C668.588 295.655 688.533 174.357 625.375 80.8817C625.375 80.8817 642.827 51.5263 658.062 37.6785C673.296 23.8306 699.233 19.3996 700.167 20.6471C701.7 22.6905 674.682 42.6642 657.507 71.7434C657.507 71.7434 814.848 65.3895 999.339 191.116C999.339 191.116 860.002 85.0365 653.906 77.8363C653.906 77.8363 678.338 174.71 681.663 291.581L668.588 295.655Z" fill="url(#paint1_radial_610_914)"/>
<path d="M653.906 77.8359C653.906 77.8359 807.925 128.566 893.796 226.72C893.796 226.72 788.535 128.794 653.906 77.8359Z" fill="url(#paint2_radial_610_914)"/>
<path d="M654.984 82.3242C654.984 82.3242 729.529 136.898 821.08 311.199C821.08 311.199 734.733 154.387 654.984 82.3242Z" fill="url(#paint3_radial_610_914)"/>
<path d="M464.868 477.253C464.868 477.253 459.999 515.968 477.175 536.462C477.175 536.462 477.451 517.301 486.177 475.023L464.868 477.253Z" fill="url(#paint4_linear_610_914)"/>
<path d="M485.166 481.366C485.166 481.366 478.515 499.314 489.578 514.935C489.578 514.935 491.98 496.533 493.517 480.27L485.166 481.366Z" fill="url(#paint5_linear_610_914)"/>
<path d="M1045.04 739.739C1045.04 739.739 973.572 762.914 863.878 716.433C863.878 716.433 870.326 716.893 889.01 709.198C907.716 701.524 919.361 681.989 919.361 681.989C919.361 681.989 875.304 682.822 848.308 691.351L846.641 687.821C846.641 687.821 820.457 691.548 805.303 698.41C805.303 698.41 798.636 703.607 796.158 713.561C796.158 713.561 763.11 718.757 751.07 721.256C739.009 723.756 720.324 728.733 720.324 728.733C720.324 728.733 717.824 735.595 725.719 743.686C725.719 743.686 689.579 751.798 650.938 743.905C650.938 743.905 602.297 747.588 564.95 733.534C561.332 732.175 557.823 730.64 554.468 728.93C554.468 728.93 563.042 671.618 641.157 636.297C706.289 606.874 789.382 592.973 829.119 538.862C837.058 528.075 843.264 515.71 847.255 501.283C847.255 501.283 847.255 501.283 847.233 501.305C846.334 501.634 826.4 509.439 810.698 520.533L813.79 526.431L818.044 534.521L817.913 534.609C817.869 534.631 817.803 534.675 817.737 534.718C815.808 535.968 804.755 542.962 788.812 551.009C771.224 559.866 759.447 562.497 759.447 562.497C759.447 562.497 759.579 564.098 758.965 566.861H758.943C758.329 569.579 756.947 573.46 753.899 577.998L750.917 574.337V574.315L744.776 566.795L728.066 571.289C727.934 571.333 727.868 571.355 727.868 571.355L724.272 582.164C724.272 582.164 725.938 583.326 727.956 584.839C731.048 587.163 735.039 590.342 735.215 591.438C735.412 592.82 724.754 597.512 712.627 596.393C709.03 596.087 705.28 595.253 701.684 593.653L703.767 572.473C703.767 572.473 695.587 583.809 693.241 590.057C692.78 591.307 692.232 592.842 691.662 594.486L691.64 594.574C689.403 601.042 686.771 609.242 685.894 610.119C685.017 611.017 675.938 604.111 672.714 592.776L672.188 590.518C672.188 590.474 672.166 590.43 672.166 590.408L672.144 590.364C671.684 588.106 671.486 585.672 671.64 583.129C671.64 583.129 670.521 587.207 669.293 592.535C668.416 596.372 667.495 600.844 666.925 604.857C666.552 607.444 656.815 600.23 654.534 584.006C654.534 583.984 654.534 583.984 654.534 583.962C654.293 582.34 654.14 580.629 654.096 578.832C654.096 578.81 654.096 578.81 654.096 578.788C654.096 578.788 654.074 578.766 654.074 578.744C654.074 578.349 654.052 577.933 654.052 577.516C654.052 577.516 672.539 561.949 678.986 555.284C685.412 548.641 687.078 545.528 687.078 545.528C687.078 545.528 703.285 546.777 718.855 546.163C734.447 545.527 777.035 533.074 777.035 533.074L774.952 531.605C774.93 531.605 774.908 531.627 774.886 531.627C773.351 532 740.653 539.915 688.745 530.575C688.745 530.575 688.241 531.912 686.793 533.951C684.118 537.744 678.197 543.971 666.333 548.422C666.552 547.808 670.127 538.073 670.96 528.711C671.092 527.089 671.157 525.488 671.092 523.931C671.092 523.931 652.276 526.102 641.376 530.048C638.854 530.969 636.069 532.504 633.262 534.324C623.942 540.375 614.381 549.606 613.109 549.693C611.464 549.781 614.885 529.544 614.885 529.544L614.863 529.61C614.534 530.202 611.946 534.96 611.464 535.354C611.31 535.464 611.091 535.201 610.828 534.74C610.192 533.6 609.38 531.298 609.38 531.298L609.315 531.342C608.569 531.781 602.56 535.354 601.486 535.354C600.784 535.354 603.657 524.611 607.209 515.534C609.49 509.746 612.056 504.637 614.161 503.475C619.556 500.45 642.407 506.698 651.245 506.896C660.061 507.115 666.398 501.086 668.591 500.559C670.763 500.033 713.592 520.533 744.776 517.902C744.776 517.902 712.912 503.782 703.065 485.782C703.065 485.782 698.636 491.877 696.991 492.557C695.324 493.258 668.46 488.413 645.324 475.543L628.986 488.413L619.139 487.865C619.139 487.865 615.455 491.417 610.828 495.845L609.995 496.635C602.648 503.629 593.459 512.267 592.538 512.508C591.025 512.925 587.977 498.104 591.442 484.949L591.42 484.971C591.398 484.971 591.376 484.993 591.332 485.058C591.31 485.08 591.266 485.102 591.244 485.146C589.819 486.505 581.244 494.683 580.367 495.188C579.38 495.758 578.284 477.056 579.534 472.758C579.534 472.758 596.288 470.961 603.635 467.496C610.959 464.032 611.661 460.02 613.328 459.757C614.995 459.472 653.35 467.781 668.855 462.388L663.877 449.233C663.877 449.233 620.17 447.917 570.74 460.787L570.762 460.853C570.915 461.204 571.529 462.695 572.121 465.063L572.143 465.129C573.569 470.697 574.95 481.046 570.521 492.973L557.253 473.701C557.648 474.885 564.27 494.574 563.678 508.211C563.152 519.634 560.455 533.556 558.569 538.84C558.13 540.046 557.735 540.814 557.428 540.967C555.784 541.8 551.003 500.45 528.766 473.657C528.766 473.657 511.244 476.354 477.45 497.687C477.45 497.687 458.327 511.259 446.704 514.021L442.822 528.711L428.699 510.426C428.699 510.426 441.506 498.586 448.787 489.443C456.046 480.301 463.107 457.455 463.107 457.455C463.107 457.455 447.734 468.68 442.756 475.126C442.756 475.126 419.489 482.384 416.572 484.05C413.677 485.716 412.208 489.027 412.208 489.027C412.208 489.027 393.523 480.936 387.273 465.15L390.19 439.805C390.19 439.805 387.273 431.079 387.273 422.572C387.273 414.043 393.721 409.899 393.721 409.899C393.721 409.899 407.646 421.322 408.48 421.322C409.313 421.322 433.612 419.656 442.142 416.74C450.651 413.846 457.515 393.609 461.879 390.956C466.221 388.303 469.971 389.531 469.971 389.531C469.971 389.531 468.941 368.987 471.419 356.929C473.919 344.892 482.428 325.159 484.511 324.94C486.594 324.743 483.897 371.268 488.458 386.22C488.458 386.22 508.612 350.899 523.568 337.415C538.525 323.91 571.771 309.373 573.635 310.601C575.323 311.719 547.055 336.451 533.481 354.451C531.88 356.556 530.498 358.573 529.38 360.459C520.06 376.157 516.375 383.041 515.63 384.488V384.51C515.586 384.598 515.542 384.664 515.52 384.708C515.542 384.686 515.586 384.642 515.608 384.598C516.836 383.239 526.003 373.065 533.744 369.601C542.055 365.852 555.981 363.791 557.428 365.041C558.898 366.269 539.775 381.989 531.88 390.956C531.88 390.956 552.45 388.72 568.854 367.738C568.854 367.738 586.88 327.089 605.981 306.874C605.981 306.874 609.03 311.588 605.981 337.898L619.841 325.971C619.841 325.971 637.012 303.761 662.78 286.462L664.008 293.171L681.048 287.755C681.048 287.755 713.46 269.075 743.789 269.075L729.667 298.564C729.667 298.564 759.162 302.445 817.058 345.922C817.058 345.922 867.606 372.079 887.541 398.235C886.97 397.819 877.606 391.132 858.483 390.956C858.483 390.956 898.506 458.639 899.339 495.188C899.339 495.188 895.742 479.972 873.571 474.973L872.475 495.188C872.475 495.188 883.549 523.164 878.571 558.617C878.571 558.617 876.619 554.473 866.093 545.045C866.093 545.045 860.83 569.689 850.852 589.356C850.852 589.356 832.584 627.549 805.72 641.406C806.136 640.726 812.694 629.654 814.58 608.189C814.58 608.189 757.101 620.094 725.938 631.32C694.776 642.524 676.07 654.999 676.07 654.999L673.153 649.584L651.42 657.762C651.42 657.762 630.082 678.81 627.319 687.952L619.271 676.31L613.196 681.024C613.196 681.024 607.1 696.547 607.363 716.762C607.363 716.762 605.148 708.452 593.24 708.167C593.24 708.167 590.192 723.405 592.407 727.549C594.622 731.715 638.679 745.834 709.864 724.501C781.049 703.19 862.497 658.31 928.988 677.428C928.988 677.428 917.892 691 917.629 698.476C917.344 705.953 966.094 740.572 1045.04 739.739Z" fill="url(#paint6_radial_610_914)"/>
<path opacity="0.6" d="M477.242 423.604C477.242 423.604 493.343 398.182 513.808 393.277L511.835 396.082C511.835 396.082 519.418 399.684 522.951 406.969C522.951 406.969 511.212 416.956 498.644 420.486C486.071 424.021 477.242 423.604 477.242 423.604Z" fill="#747D81"/>
<path d="M774.951 531.604C774.93 531.604 774.908 531.626 774.886 531.626C773.351 531.999 740.653 539.914 688.745 530.574C688.745 530.574 688.24 531.911 686.793 533.95C684.117 537.743 678.196 543.97 666.332 548.421C666.551 547.807 670.126 538.072 670.959 528.71C671.091 527.088 671.157 525.487 671.091 523.931C671.091 523.931 652.275 526.101 641.376 530.048C638.854 530.969 636.069 532.503 633.262 534.323C625.323 539.476 617.187 546.952 614.183 549.101C614.161 549.122 614.161 549.123 614.161 549.123C613.656 549.473 613.284 549.671 613.108 549.693C611.463 549.78 614.884 529.544 614.884 529.544L614.862 529.609C614.534 530.201 611.946 534.959 611.463 535.354C611.31 535.463 611.091 535.2 610.827 534.74C610.191 533.6 609.38 531.297 609.38 531.297L609.314 531.341C608.569 531.78 602.56 535.354 601.485 535.354C600.783 535.354 603.656 524.61 607.209 515.533C609.49 509.745 612.055 504.637 614.161 503.475C619.555 500.449 642.407 506.698 651.244 506.895C660.06 507.114 666.398 501.085 668.591 500.559C670.762 500.032 713.591 520.532 744.776 517.901C744.776 517.901 712.911 503.782 703.065 485.781C707.824 476.704 709.732 454.977 709.732 454.977L735.28 460.151L728.219 465.15C743.175 515.621 774.951 531.604 774.951 531.604Z" fill="url(#paint7_linear_610_914)"/>
<path d="M1279.36 116.016C1275.02 113.298 1092.41 1.12922 817.34 70.0833C817.34 70.0833 812.011 81.4843 804.292 99.7259C784.818 145.681 750.037 235.003 746.463 294.442C746.09 300.712 746.046 306.632 746.419 312.135L746.463 312.157C747.91 312.618 794.599 328.272 828.985 359.471C828.985 359.471 841.047 351.732 862.867 343.203C862.867 343.203 865.63 312.267 878.262 307.29C890.894 302.291 893.613 333.074 893.613 333.074C897.209 332.087 900.938 331.122 904.797 330.224L893.416 254.911L891.924 244.979C910.631 266.159 924.754 304.79 924.754 304.79L926.618 294.398C932.846 303.541 937.539 324.216 937.539 324.216C951.596 322.374 966.793 321.256 983 321.3C983 321.3 985.368 313.012 992.057 302.203C992.057 302.203 985.587 281.945 992.057 276.551C998.504 271.136 1011.84 278.722 1011.84 278.722L1011.75 278.831C1026.49 265.852 1048.15 254.429 1079.38 252.39C1079.32 252.28 1079.25 252.192 1079.18 252.083C1076.36 247.325 1043.02 189.311 1079.38 141.537C1082.21 137.81 1085.74 134.499 1089.84 131.561C1139.97 95.6479 1275.87 115.534 1279.38 116.038C1279.38 116.016 1279.36 116.016 1279.36 116.016ZM941.793 297.95C941.793 297.95 908.964 258.682 907.714 224.83C907.714 224.83 945.105 258.682 941.793 297.95ZM1006.4 263.243C998.921 265.545 998.351 248.882 1000.52 248.092C1005.63 246.229 1013.88 260.962 1006.4 263.243ZM991.574 111.346C991.574 111.346 1025.11 115.052 1046.99 137.371C1046.99 137.371 1007.65 135.727 991.574 111.346ZM1035.89 111.346C1044.78 109.68 1046.99 115.775 1046.99 115.775C1039.23 118.274 1035.89 111.346 1035.89 111.346Z" fill="url(#paint8_radial_610_914)"/>
<path d="M708.723 303.699C708.723 303.699 721.221 324.319 746.427 312.133C746.427 312.133 769.695 149.288 823.989 78.3887C823.989 78.3887 998.506 -4.69607 1279.46 116.054C1279.46 116.054 1060.83 -2.20319 829.807 62.6027C829.807 62.6027 846.011 38.3011 850.79 31.8617C855.568 25.4223 877.176 1.32893 876.345 0.0813969C875.513 -1.16614 846.842 12.1292 828.145 26.045C809.447 39.9608 799.89 62.1862 799.473 65.0956C799.059 68.0029 791.995 111.623 768.311 180.998C744.626 250.373 708.723 303.699 708.723 303.699Z" fill="url(#paint9_radial_610_914)"/>
<path d="M428.695 510.428C428.695 510.428 442.766 511.98 461.799 503.78C480.832 495.582 502.104 470.27 500.996 443.96C500.996 443.96 476.619 450.608 466.924 454.484C466.924 454.484 454.18 497.966 428.695 510.428Z" fill="url(#paint10_linear_610_914)"/>
<path d="M486.176 414.326C486.176 414.326 498.779 419.174 499.748 402.557C499.748 402.557 492.408 408.095 486.176 414.326Z" fill="#FFB300"/>
<path d="M501.035 484.271C501.035 484.271 526.202 471.379 556.674 453.377C587.146 435.376 622.602 424.852 661.938 438.145L663.874 449.233C663.874 449.233 606.257 451.991 568.584 461.408C530.91 470.825 501.035 484.271 501.035 484.271Z" fill="url(#paint11_linear_610_914)"/>
<path opacity="0.6" d="M554.907 414.328C554.907 414.328 589.677 433.482 605.135 454.403L570.738 460.787L532.297 432.162L554.907 414.328Z" fill="#747D81"/>
<path d="M716.157 432.162C716.157 432.162 749.819 448.115 777.868 450.608C777.868 450.608 759.585 451.022 735.278 460.163L709.723 454.971V442.717C709.723 442.717 715.942 433.863 716.157 432.162Z" fill="url(#paint12_linear_610_914)"/>
<path d="M581.047 449.079C579.468 449.715 568.788 443.137 562.011 439.388C555.432 435.77 543.656 432.723 542.932 432.547C565.959 444.19 570.739 460.787 570.739 460.787L570.761 460.853L572.121 465.062L572.143 465.128C573.569 470.697 574.95 481.046 570.52 492.973L557.253 473.701C557.647 474.885 564.27 494.573 563.678 508.211C563.152 519.633 560.454 533.556 558.568 538.84C558.13 540.046 557.735 540.813 557.428 540.967C557.231 541.054 557.011 540.594 556.726 539.673C556.726 539.673 556.726 539.673 556.726 539.651C556.726 539.629 556.726 539.607 556.704 539.585C554.424 532.24 548.371 497.292 528.766 473.657C526.638 469.579 525.366 466.093 524.687 463.133V463.089C521.945 450.789 529.665 447.566 529.665 447.566C523.151 435.244 530.366 428.732 530.366 428.732C521.09 421.103 526.485 409.066 526.485 409.066C526.485 409.066 545.038 408.934 554.906 414.328C564.775 419.721 582.648 448.465 581.047 449.079Z" fill="url(#paint13_linear_610_914)"/>
<path d="M859.734 492.184C859.734 492.184 855.151 551.557 800.304 583.962C745.457 616.367 571.443 641.734 564.951 733.534C561.333 732.175 557.824 730.64 554.469 728.93C554.469 728.93 563.043 671.618 641.158 636.297C719.273 600.997 823.221 588.062 847.256 501.282L859.734 492.184Z" fill="url(#paint14_linear_610_914)"/>
<path d="M873.248 480.912L899.338 495.187C899.338 495.187 895.103 476.698 873.57 474.972L857.18 471.793L873.461 476.985L873.248 480.912Z" fill="#434200"/>
<path d="M864.829 550.342L878.572 558.616C878.572 558.616 871.802 547.816 864.829 543.039L857.164 538.088L864.829 545.946V550.342Z" fill="#434200"/>
<path d="M805.699 610.096L805.719 641.405C805.719 641.405 814.309 630.136 814.579 608.189L813.186 594.481L812.127 608.715L805.699 610.096Z" fill="#434200"/>
<path d="M670.922 650.423L676.069 654.998L674.819 648.138L673.496 643.519V648.914L670.922 650.423Z" fill="#434200"/>
<path d="M615.712 679.073L627.32 687.953C627.32 687.953 626.05 680.454 619.271 676.31L614.398 671.715L617.723 677.512L615.712 679.073Z" fill="#434200"/>
<path d="M592.905 709.982L607.362 716.761C607.362 716.761 603.903 705.847 593.241 707.787L586.004 707.373L593.094 708.965L592.905 709.982Z" fill="#434200"/>
<path d="M721.956 728.303L725.719 743.685C725.719 743.685 716.009 737.652 720.324 728.732L721.956 728.303Z" fill="#434200"/>
<path d="M796.158 713.56L805.303 698.41C805.303 698.41 795.888 702.475 796.158 713.56Z" fill="#434200"/>
<path d="M864.828 402.247L887.541 398.235C887.541 398.235 877.453 389.125 845.598 388.57L858.484 390.956L864.828 402.247Z" fill="#434200"/>
<path d="M691.661 594.486L691.639 594.574C689.403 601.042 686.771 609.242 685.894 610.119C685.017 611.017 675.938 604.111 672.714 592.776L672.188 590.518C672.67 591.68 676.464 599.616 691.661 594.486Z" fill="url(#paint15_linear_610_914)"/>
<path d="M654.074 578.743H654.096C654.096 578.743 654.096 578.765 654.096 578.787C654.096 578.787 654.074 578.765 654.074 578.743Z" fill="url(#paint16_linear_610_914)"/>
<path d="M669.294 592.535C668.417 596.372 667.496 600.844 666.926 604.857C666.553 607.444 656.816 600.23 654.535 584.006C655.676 588.128 659.119 593.061 669.294 592.535Z" fill="url(#paint17_linear_610_914)"/>
<path d="M735.213 591.438C735.41 592.82 724.752 597.511 712.625 596.393C712.625 596.393 723.546 593.433 727.954 584.861V584.839C731.046 587.163 735.037 590.342 735.213 591.438Z" fill="url(#paint18_linear_610_914)"/>
<path d="M758.944 566.86C758.33 569.579 756.949 573.46 753.9 577.998L750.918 574.337V574.315L758.944 566.86Z" fill="url(#paint19_linear_610_914)"/>
<path opacity="0.3" d="M285.621 543.392C285.621 543.392 248.917 557.553 212.353 505.742C175.789 453.931 46.9785 439.265 11.2436 543.392C-24.4913 647.518 36.5048 643.641 35.0925 687.952C33.6824 732.262 -16.1799 776.296 28.6955 795.406C73.5709 814.516 113.065 749.158 173.098 747.358C233.129 745.558 365.264 722.302 374.404 654.999C383.545 587.695 360.249 580.778 362.771 565.389C365.29 550 394.716 522.804 394.716 522.804L285.621 543.392Z" fill="url(#paint20_linear_610_914)"/>
<path d="M610.827 517.902L609.38 531.298L609.314 531.342C608.569 531.781 602.56 535.354 601.485 535.354C600.783 535.354 603.656 524.611 607.209 515.534L610.696 517.814L610.827 517.902Z" fill="#DBCC43"/>
<path d="M618.94 519.875L616.309 526.168L616.287 526.212L614.883 529.544L614.861 529.61C614.532 530.202 611.945 534.96 611.462 535.354C611.309 535.464 611.089 535.201 610.826 534.74C610.19 533.6 609.379 531.298 609.379 531.298C609.379 524.195 610.103 520.051 610.695 517.814C611.155 516.148 611.55 515.534 611.55 515.534L618.94 519.875Z" fill="#DBCC43"/>
<path d="M633.263 534.324C623.942 540.375 614.381 549.605 613.109 549.693C611.464 549.781 614.885 529.544 614.885 529.544L614.863 529.61C614.534 530.202 611.947 534.96 611.464 535.354C611.311 535.464 611.091 535.201 610.828 534.74L616.289 526.211L616.311 526.168C628.723 524.567 633.263 534.324 633.263 534.324Z" fill="#DBCC43"/>
<path d="M686.793 533.951C684.117 537.744 678.196 543.97 666.332 548.421C666.551 547.807 670.126 538.073 670.959 528.711C671.573 528.557 683.591 525.597 686.793 533.951Z" fill="#DBCC43"/>
<path d="M591.418 484.971L590.957 485.672C591.067 485.453 591.154 485.256 591.242 485.146C591.264 485.102 591.308 485.08 591.33 485.058C591.374 484.993 591.396 484.971 591.418 484.971Z" fill="url(#paint21_linear_610_914)"/>
<path d="M610.826 495.845L609.992 496.634C602.646 503.628 593.457 512.266 592.536 512.508C591.023 512.924 587.975 498.103 591.44 484.948L595.036 483.019C595.036 483.019 610.256 485.014 610.826 495.845Z" fill="url(#paint22_linear_610_914)"/>
<path d="M596.177 482.077L591.44 484.949L591.418 484.971L590.958 485.672C591.067 485.453 591.155 485.256 591.243 485.146C589.817 486.505 581.243 494.683 580.366 495.188C579.379 495.758 578.282 477.056 579.532 472.759C579.532 472.759 590.256 471.991 596.177 482.077Z" fill="url(#paint23_linear_610_914)"/>
<path d="M823.988 78.3887C823.988 78.3887 965.796 121.193 1079.38 252.39C1079.38 252.39 982.998 134.333 821.078 82.3242L823.988 78.3887Z" fill="url(#paint24_radial_610_914)"/>
<path d="M983.002 321.3C983.002 321.3 921.22 172.666 821.081 82.3242L820.016 83.8217C820.016 83.8217 904.336 158.759 983.002 321.3Z" fill="url(#paint25_radial_610_914)"/>
<path d="M828.985 359.471C828.985 359.471 834.319 185.632 820.012 83.8213C820.012 83.8213 830.751 208.395 828.985 359.471Z" fill="url(#paint26_radial_610_914)"/>
<path d="M466.921 454.483C466.921 454.483 461.741 471.993 438.888 486.101C416.034 500.21 331.185 544.871 266.779 548.419C202.375 551.966 189.493 532.859 189.493 532.859C189.493 532.859 191.987 517.097 172.458 512.515C152.929 507.932 129.659 533.56 140.464 566.858C140.464 566.858 142.82 553.076 153.622 552.797C164.425 552.521 165.256 562.49 165.256 562.49C165.256 562.49 138.802 562.626 99.3279 594.685C59.8539 626.742 102.236 674.795 105.146 687.95C108.054 701.102 82.5997 696.119 82.5997 696.119C82.5997 696.119 78.9681 714.398 96.8345 738.491C114.701 762.587 70.2422 763.416 70.2422 763.416C70.2422 763.416 102.098 771.032 128.692 747.353C128.692 747.353 111.795 731.982 115.12 697.364C118.444 662.747 145.037 658.868 156.394 669.116C167.752 679.364 173.57 692.102 185.758 694.04C197.947 695.979 204.873 690.717 204.873 690.717C204.873 690.717 204.873 707.334 181.881 710.379C181.881 710.379 205.98 720.627 248.641 696.255C248.641 696.255 247.671 635.049 293.378 643.773C293.378 643.773 283.821 648.965 286.731 671.71L293.794 679.829C293.794 679.829 292.132 660.804 322.049 651.666C322.049 651.666 271.356 633.032 285.068 612.854C298.781 592.677 401.905 526.91 448.789 489.438C495.673 451.966 500.998 443.955 500.998 443.955C500.998 443.955 472.877 451.438 466.921 454.483Z" fill="url(#paint27_linear_610_914)"/>
<g opacity="0.5">
<path d="M537.33 349.471C531.111 339.006 523.602 337.697 523.527 337.684L523.613 337.143C523.931 337.193 531.442 338.489 537.802 349.19L537.33 349.471Z" fill="#434200"/>
<path d="M485.517 357.15C477.416 351.335 471.848 356.88 471.615 357.119L471.223 356.738C471.284 356.674 477.348 350.616 485.837 356.705L485.517 357.15Z" fill="#434200"/>
<path d="M543.353 379.371C541.454 368.733 534.105 369.822 533.789 369.87L533.699 369.329C533.78 369.311 541.894 368.084 543.892 379.274L543.353 379.371Z" fill="#434200"/>
<path d="M559.612 438.188L559.109 437.965C565.234 424.134 559.23 418.009 559.169 417.947L559.552 417.555C559.816 417.813 565.905 423.983 559.612 438.188Z" fill="#434200"/>
<path d="M557.472 473.862L557.031 473.538C566.83 460.339 566.209 452.578 566.202 452.501L566.748 452.448C566.779 452.768 567.415 460.468 557.472 473.862Z" fill="#434200"/>
<path d="M546.807 505.996L546.605 505.487C562.239 499.311 561.606 492.286 561.597 492.216L562.141 492.15C562.182 492.453 562.891 499.642 546.807 505.996Z" fill="#434200"/>
<path d="M614.043 663.049C608.508 660.401 600.448 661.183 600.367 661.19L600.312 660.646C600.396 660.633 608.604 659.839 614.282 662.556L614.043 663.049Z" fill="#434200"/>
<path d="M651.14 642.668C640.572 640.09 633.342 640.335 633.272 640.335L633.25 639.787C633.325 639.789 640.621 639.537 651.27 642.137L651.14 642.668Z" fill="#434200"/>
<path d="M666.418 626.128L666.242 625.611C666.389 625.562 681.062 620.673 694.762 624.258L694.624 624.788C681.08 621.237 666.562 626.078 666.418 626.128Z" fill="#434200"/>
<path d="M722.355 614.86C715.171 611.655 702.123 613.117 701.991 613.13L701.93 612.586C702.063 612.567 715.257 611.091 722.579 614.36L722.355 614.86Z" fill="#434200"/>
<path d="M600.216 673.205C595.803 671.012 588.264 671.972 588.191 671.983L588.121 671.44C588.437 671.396 595.902 670.449 600.461 672.711L600.216 673.205Z" fill="#434200"/>
<path d="M582.942 690.394C577.231 689.532 572.499 690.383 572.45 690.392L572.352 689.852C572.398 689.844 577.224 688.982 583.023 689.85L582.942 690.394Z" fill="#434200"/>
<path d="M567.494 718.969C562.477 717.366 557.408 718.952 557.358 718.969L557.191 718.447C557.404 718.379 562.474 716.794 567.661 718.447L567.494 718.969Z" fill="#434200"/>
<path d="M754.822 604.525C746.32 600.958 728.166 603.641 727.98 603.668L727.898 603.124C728.651 603.012 746.392 600.39 755.035 604.018L754.822 604.525Z" fill="#434200"/>
<path d="M759.356 590.78L759.207 590.254C759.4 590.199 778.771 584.799 793.321 587.489L793.22 588.028C778.797 585.358 759.549 590.725 759.356 590.78Z" fill="#434200"/>
<path d="M797.209 569.695L796.938 569.219C797.065 569.146 809.955 561.867 824.96 564.465L824.865 565.005C810.078 562.457 797.339 569.622 797.209 569.695Z" fill="#434200"/>
<path d="M818.09 552.203L817.836 551.719C817.972 551.646 831.604 544.523 840.86 544.269L840.876 544.817C831.744 545.069 818.224 552.133 818.09 552.203Z" fill="#434200"/>
<path d="M839.144 523.027L838.828 522.578C838.887 522.536 844.905 518.359 854.026 516.445L854.14 516.98C845.129 518.875 839.203 522.986 839.144 523.027Z" fill="#434200"/>
<path d="M582.57 458.22L582.344 457.717C582.488 457.654 596.938 450.914 601.114 434.894L601.644 435.032C597.401 451.311 582.717 458.149 582.57 458.22Z" fill="#434200"/>
<path d="M607.586 454.643L607.332 454.159C607.486 454.078 622.685 445.974 626.148 432.096L626.679 432.229C623.159 446.347 607.742 454.562 607.586 454.643Z" fill="#434200"/>
<path d="M635.48 451.552L635.184 451.09C635.3 451.017 646.811 443.543 650.471 434.856L650.975 435.071C647.252 443.909 635.598 451.473 635.48 451.552Z" fill="#434200"/>
<path d="M712.29 455.731L712.105 455.213C712.211 455.176 722.663 451.33 729.921 437.947L730.404 438.208C723.04 451.784 712.395 455.691 712.29 455.731Z" fill="#434200"/>
<path d="M730.164 459.396V458.848C730.267 458.848 740.535 458.688 750.695 444.998L751.136 445.323C740.805 459.243 730.282 459.396 730.164 459.396Z" fill="#434200"/>
<path d="M754.963 454.672L754.895 454.129C754.96 454.12 761.408 453.267 765.842 448.685L766.237 449.066C761.664 453.793 755.031 454.666 754.963 454.672Z" fill="#434200"/>
<path d="M569.349 367.169L569.086 366.689L601.161 349.138L605.727 337.794L606.233 338L601.597 349.526L601.512 349.572L569.349 367.169Z" fill="#434200"/>
<path d="M616.995 328.737L616.879 328.202C617.26 328.119 655.059 319.923 663.616 311.076C663.754 309.908 665.131 297.553 662.513 286.525L663.046 286.397C665.805 298.029 664.164 311.105 664.147 311.234L664.136 311.324L664.074 311.388C655.526 320.381 618.563 328.401 616.995 328.737Z" fill="#434200"/>
<path d="M674.774 289.463L674.746 290.011L716.162 292.15L716.19 291.603L674.774 289.463Z" fill="#434200"/>
<path d="M543.644 387.741L543.598 387.195C579.521 384.204 587.155 357.131 587.23 356.857L587.758 357C587.686 357.276 579.949 384.72 543.644 387.741Z" fill="#434200"/>
<path d="M590.201 438.239L589.76 437.914C589.817 437.837 595.39 430.199 597.07 417.936C598.622 406.621 597.081 388.932 580.934 368.927L581.359 368.583C597.64 388.752 599.182 406.612 597.609 418.041C595.903 430.433 590.258 438.162 590.201 438.239Z" fill="#434200"/>
<path d="M587.756 377.693L587.232 377.538C590.272 367.397 585.497 361.752 585.449 361.695L585.861 361.335C585.912 361.392 590.881 367.266 587.756 377.693Z" fill="#434200"/>
<path d="M640.909 433.238L640.407 433.018C653.654 402.775 642.97 380.089 631.676 366.384C619.417 351.508 603.81 343.694 603.656 343.617L603.897 343.126C604.055 343.205 619.753 351.063 632.088 366.022C643.488 379.848 654.271 402.733 640.909 433.238Z" fill="#434200"/>
<path d="M614.228 433.095L614.09 432.565C614.167 432.545 621.748 430.506 628.829 423.177C635.364 416.415 642.805 403.63 641.119 381.135L641.665 381.094C643.366 403.81 635.825 416.735 629.2 423.58C622.013 431.006 614.305 433.076 614.228 433.095Z" fill="#434200"/>
<path d="M646.226 395.492L645.704 395.323C653.592 370.908 650.3 352.809 646.151 341.925C641.656 330.131 635.21 324.03 635.145 323.971L635.52 323.569C635.585 323.631 642.107 329.798 646.653 341.701C650.84 352.67 654.167 370.91 646.226 395.492Z" fill="#434200"/>
<path d="M648.557 347.89L648.094 347.594C658.899 330.679 650.668 318.851 650.583 318.732L651.028 318.412C651.116 318.535 659.57 330.648 648.557 347.89Z" fill="#434200"/>
<path d="M647.001 407.213L646.742 406.729C646.867 406.663 659.31 399.862 663.788 384.221C667.786 370.259 664.402 353.784 653.733 335.256L654.209 334.981C664.959 353.648 668.359 370.27 664.312 384.383C659.766 400.246 647.128 407.145 647.001 407.213Z" fill="#434200"/>
<path d="M658.477 343.58L658.117 343.166C672.411 330.678 661.108 313.699 660.992 313.528L661.446 313.219C661.565 313.394 673.133 330.774 658.477 343.58Z" fill="#434200"/>
<path d="M664.491 383.301L664.27 382.799C678.748 376.412 688.364 366.59 692.853 353.608C702.676 325.198 684.594 290.74 684.41 290.396L684.895 290.14C685.079 290.486 703.27 325.154 693.371 353.788C688.833 366.921 679.116 376.849 664.491 383.301Z" fill="#434200"/>
<path d="M661.735 438.325C661.617 438.193 649.911 424.806 653.7 401.335L654.242 401.423C650.494 424.637 662.027 437.829 662.143 437.961L661.735 438.325Z" fill="#434200"/>
<path d="M655.912 407.334C655.07 407.334 654.208 407.303 653.324 407.246L653.361 406.698C661.664 407.264 668.057 405.152 672.357 400.449C680.855 391.155 678.364 374.646 678.338 374.479L678.879 374.394C678.906 374.562 681.441 391.326 672.765 400.818C668.805 405.148 663.142 407.334 655.912 407.334Z" fill="#434200"/>
<path d="M677.736 391.019L677.652 390.477C693.409 388.031 703.289 382.118 707.019 372.898C714.205 355.145 696.036 330.82 695.852 330.574L696.288 330.245C696.475 330.491 714.83 355.06 707.53 373.102C703.721 382.512 693.696 388.539 677.736 391.019Z" fill="#434200"/>
<path d="M706.226 349.603L706.16 349.059C739.323 345.06 750.549 313.602 750.658 313.286L751.176 313.464C751.066 313.784 739.735 345.562 706.226 349.603Z" fill="#434200"/>
<path d="M694.56 318.771L694.176 318.379C694.274 318.282 703.943 308.563 697.974 291.06L698.492 290.883C704.579 308.73 694.66 318.673 694.56 318.771Z" fill="#434200"/>
<path d="M703.405 379.581L703.219 379.065C726.098 370.765 736.329 356.171 740.879 345.389C745.811 333.709 745.329 323.882 745.324 323.784L745.873 323.753C745.879 323.852 746.364 333.808 741.386 345.601C736.791 356.483 726.471 371.212 703.405 379.581Z" fill="#434200"/>
<path d="M734.76 357.18L734.547 356.675C757.6 347.059 771.812 323.86 771.955 323.628L772.424 323.911C772.284 324.145 757.981 347.495 734.76 357.18Z" fill="#434200"/>
<path d="M716.351 432.354L715.961 431.968C716.18 431.745 737.965 409.057 728.286 364.012L728.821 363.896C738.566 409.25 716.575 432.128 716.351 432.354Z" fill="#434200"/>
<path d="M730.299 379.561L730.031 379.083C744.159 371.144 740.023 354.485 739.979 354.319L740.509 354.181C740.553 354.354 744.801 371.414 730.299 379.561Z" fill="#434200"/>
<path d="M725.127 417.998L724.879 417.509C755.34 402.028 764.629 379.952 767.059 364.157C769.695 347.031 765.061 333.385 765.015 333.249L765.533 333.069C765.579 333.207 770.254 346.961 767.605 364.218C765.158 380.145 755.805 402.405 725.127 417.998Z" fill="#434200"/>
<path d="M768.296 351.758L767.949 351.335C779.425 341.931 777.614 325.715 777.594 325.553L778.138 325.487C778.158 325.652 780.002 342.166 768.296 351.758Z" fill="#434200"/>
<path d="M743.84 405.693L743.746 405.154C743.9 405.125 759.435 402.321 775.067 393.323C789.466 385.033 806.902 369.637 808.181 343.36L808.729 343.387C807.437 369.916 789.852 385.448 775.327 393.805C759.615 402.845 743.998 405.665 743.84 405.693Z" fill="#434200"/>
<path d="M760.684 447.871L760.285 447.494C760.436 447.334 775.428 430.947 771.553 395.437L772.097 395.378C776.002 431.16 760.838 447.709 760.684 447.871Z" fill="#434200"/>
<path d="M772.33 414.509L772.047 414.038C784.729 406.434 779.556 390.992 779.503 390.839L780.021 390.659C780.075 390.817 785.389 406.68 772.33 414.509Z" fill="#434200"/>
<path d="M794.941 377.886L794.871 377.343C795.266 377.292 834.338 372.146 841.961 360.43L842.422 360.73C834.659 372.657 796.56 377.678 794.941 377.886Z" fill="#434200"/>
<path d="M833.037 368.593L832.578 368.889L845.32 388.702L845.78 388.407L833.037 368.593Z" fill="#434200"/>
<path d="M857.453 471.83L856.909 471.758C856.962 471.379 861.97 433.433 850.402 389.579L850.933 389.44C862.527 433.402 857.503 471.451 857.453 471.83Z" fill="#434200"/>
<path d="M796.524 424.196C782.43 424.196 771.366 421.841 771.234 421.813L771.351 421.278C771.506 421.313 787.017 424.608 804.711 423.367C820.996 422.22 842.503 416.879 852.492 397.93L852.976 398.184C842.869 417.362 821.165 422.762 804.737 423.915C801.93 424.113 799.171 424.196 796.524 424.196Z" fill="#434200"/>
<path d="M847.087 419.151C846.348 419.151 845.638 419.019 844.991 418.708C842.929 417.715 841.896 415.088 841.918 410.898L842.467 410.903C842.445 414.86 843.374 417.32 845.228 418.213C849.026 420.035 855.583 414.821 855.646 414.768L855.991 415.196C855.756 415.386 851.028 419.151 847.087 419.151Z" fill="#434200"/>
<path d="M782.261 448.224C771.597 448.224 763.206 444.26 763.09 444.205L763.327 443.712C763.485 443.786 779.353 451.276 795.112 445.477C805.053 441.819 812.853 433.731 818.296 421.434L818.796 421.657C813.29 434.095 805.384 442.284 795.296 445.996C790.844 447.632 786.382 448.224 782.261 448.224Z" fill="#434200"/>
<path d="M810.325 435.236L810.32 434.688C831.902 434.554 835.952 415.126 835.989 414.929L836.527 415.034C836.489 415.236 832.362 435.102 810.325 435.236Z" fill="#434200"/>
<path d="M857.374 538.263L856.953 537.912C857.085 537.756 870.026 521.891 872.203 495.167L872.749 495.211C870.556 522.115 857.506 538.103 857.374 538.263Z" fill="#434200"/>
<path d="M813.27 594.742L813.105 594.22C813.437 594.115 846.406 583.288 864.582 545.827L865.075 546.066C846.792 583.749 813.603 594.637 813.27 594.742Z" fill="#434200"/>
<path d="M673.626 643.757L673.363 643.277C673.609 643.141 698.62 629.662 754.892 622.152L754.965 622.696C698.809 630.188 673.87 643.621 673.626 643.757Z" fill="#434200"/>
<path d="M863.855 494.953C861.195 494.953 859.574 492.44 859.504 492.33L859.967 492.037C859.982 492.063 861.607 494.593 864.168 494.391C866.166 494.223 869.291 492.26 872.833 483.865L873.337 484.08C870.408 491.026 867.335 494.679 864.208 494.937C864.087 494.946 863.969 494.953 863.855 494.953Z" fill="#434200"/>
<path d="M849.974 528.36C849.755 528.36 849.632 528.351 849.621 528.351L849.663 527.803C849.768 527.825 860.941 528.467 867.621 515.411L868.11 515.659C861.93 527.731 851.968 528.36 849.974 528.36Z" fill="#434200"/>
<path d="M842.654 565.635C834.248 565.635 829.281 560.149 829.211 560.07L829.623 559.706C829.722 559.822 839.829 570.949 855.674 560.842L855.97 561.304C850.922 564.523 846.439 565.635 842.654 565.635Z" fill="#434200"/>
<path d="M840.843 577.844C840.735 577.836 838.187 577.579 836.507 575.143C834.819 572.696 834.646 569.011 835.996 564.189L836.525 564.336C835.222 568.987 835.367 572.514 836.953 574.823C838.481 577.048 840.869 577.296 840.893 577.301L840.843 577.844Z" fill="#434200"/>
<path d="M821.733 589.6C820.005 589.6 818.369 589.188 816.845 588.37C811.396 585.435 809.262 578.373 809.172 578.074L809.698 577.921C809.718 577.991 811.858 585.066 817.106 587.89C819.54 589.201 822.284 589.401 825.253 588.5L825.413 589.022C824.148 589.41 822.918 589.6 821.733 589.6Z" fill="#434200"/>
<path d="M785.824 614.88C770.087 611.87 771.01 597.388 771.021 597.241L771.567 597.285C771.523 597.862 770.677 611.427 785.925 614.341L785.824 614.88Z" fill="#434200"/>
<path d="M767.884 619.011C767.834 618.789 766.691 613.51 771.961 605.783L772.415 606.092C767.292 613.604 768.406 618.837 768.417 618.888L767.884 619.011Z" fill="#434200"/>
<path d="M810.279 609.169C808.564 609.169 805.988 608.752 803.768 606.674C799.667 602.835 798.575 595.078 800.523 583.615L801.062 583.705C799.15 594.97 800.183 602.561 804.137 606.268C807.547 609.467 812.021 608.456 812.062 608.445L812.189 608.98C812.115 609 811.374 609.169 810.279 609.169Z" fill="#434200"/>
<path d="M721.45 628.314L720.91 628.219C722.533 618.941 732.921 610.763 733.024 610.682L733.36 611.114C733.259 611.192 723.035 619.243 721.45 628.314Z" fill="#434200"/>
<path d="M709.449 630.967C709.447 630.658 709.579 623.357 724.925 618.687L725.085 619.208C710.173 623.747 709.997 630.89 709.997 630.962L709.449 630.967Z" fill="#434200"/>
<path d="M651.145 657.767C651.141 657.66 651 646.763 663.702 636.526L664.046 636.954C651.568 647.009 651.689 657.647 651.693 657.754L651.145 657.767Z" fill="#434200"/>
<path d="M637.696 672.245C637.683 672.05 636.622 652.813 657.083 643.269L657.313 643.766C637.203 653.144 638.229 672.019 638.24 672.207L637.696 672.245Z" fill="#434200"/>
<path d="M781.555 494.959C759.561 494.959 746.741 486.478 739.828 479.293C732.201 471.363 729.92 463.242 729.898 463.161L730.427 463.016C730.449 463.097 732.703 471.104 740.243 478.936C747.081 486.035 759.769 494.415 781.555 494.415C781.938 494.415 782.324 494.411 782.712 494.406C825.869 493.823 857.439 463.205 857.753 462.896L858.139 463.286C857.823 463.597 826.094 494.369 782.719 494.954C782.329 494.956 781.941 494.959 781.555 494.959Z" fill="#434200"/>
<path d="M816.267 450.767C801.041 450.767 789.162 447.086 789.004 447.035L789.168 446.514C789.383 446.582 810.69 453.177 832.798 448.61C854.781 444.065 858.035 432.212 858.066 432.096L858.597 432.229C858.566 432.352 855.259 444.525 832.91 449.147C827.195 450.326 821.53 450.767 816.267 450.767Z" fill="#434200"/>
<path d="M828.53 509.697C823.255 509.697 819.214 508.125 816.508 505.021C811.312 499.059 812.9 489.375 812.918 489.276L813.457 489.371C813.442 489.465 811.898 498.899 816.922 504.663C819.665 507.81 823.85 509.344 829.407 509.134L829.424 509.682C829.124 509.693 828.823 509.697 828.53 509.697Z" fill="#434200"/>
<path d="M806.291 499.802C799.168 499.802 794.745 493.968 794.688 493.891L795.128 493.566C795.422 493.961 802.435 503.185 813.253 497.362L813.512 497.846C810.887 499.256 808.464 499.802 806.291 499.802Z" fill="#434200"/>
<path d="M807.816 520.87C791.046 520.87 782.463 514.049 778.176 508.145C773.27 501.385 772.787 494.323 772.785 494.253L773.333 494.218C773.336 494.288 773.814 501.21 778.636 507.842C783.083 513.957 792.248 521.082 810.685 520.256L810.709 520.804C809.72 520.848 808.755 520.87 807.816 520.87Z" fill="#434200"/>
<path d="M770.994 516.739C761.998 516.739 751.281 509.982 750.766 509.655L751.062 509.192C751.204 509.282 765.397 518.239 774.612 515.746C777.31 515.016 779.34 513.356 780.645 510.815L781.134 511.063C779.755 513.751 777.608 515.5 774.755 516.274C773.562 516.599 772.296 516.739 770.994 516.739Z" fill="#434200"/>
<path d="M786.963 522.377C783.275 522.377 779.531 520.134 775.836 515.709L776.257 515.358C779.843 519.651 783.444 521.828 786.961 521.828C786.992 521.828 787.02 521.828 787.049 521.826C791.222 521.782 793.81 518.61 793.836 518.579L794.264 518.921C794.152 519.059 791.485 522.331 787.055 522.374C787.027 522.377 786.996 522.377 786.963 522.377Z" fill="#434200"/>
</g>
<path opacity="0.6" d="M654.987 449.763C654.987 449.763 650.717 431.636 653.212 411.971C653.212 411.971 655.57 426.233 659.447 429.557C659.447 429.557 660.693 416.132 669.419 407.058C669.419 407.058 658.612 429.301 663.877 449.23L654.987 449.763Z" fill="#747D81"/>
<path opacity="0.6" d="M709.725 454.968L708.992 415.156L710.556 433.128C710.556 433.128 716.788 429.212 719.282 417.752C721.775 406.292 718.312 395.406 718.312 395.406C718.312 395.406 737.47 425.189 722.49 457.559L709.725 454.968Z" fill="#747D81"/>
<path opacity="0.6" d="M668.854 462.388C668.854 462.388 682.508 456.63 691.856 467.847C691.856 467.847 685.269 451.077 666.332 455.723L668.854 462.388Z" fill="url(#paint28_linear_610_914)"/>
<path opacity="0.6" d="M703.066 485.781C703.066 485.781 708.27 473.766 709.724 454.968L722.488 457.561C722.488 457.561 715.832 474.845 703.066 485.781Z" fill="#747D81"/>
<path opacity="0.6" d="M737.73 489.324C737.73 489.324 750.123 513.992 768.15 522.804C786.176 531.613 804.143 530.576 804.143 530.576L777.033 533.073C777.033 533.073 752.976 521.087 737.73 489.324Z" fill="url(#paint29_linear_610_914)"/>
<path opacity="0.6" d="M788.813 551.008C771.225 559.866 759.448 562.497 759.448 562.497C759.448 562.497 759.58 564.097 758.966 566.86H758.944C758.33 569.579 756.948 573.459 753.9 577.998L750.917 574.336V574.314L744.777 566.794L728.066 571.289C732.08 569.907 796.378 547.632 817.738 534.718C815.808 535.967 804.756 542.962 788.813 551.008Z" fill="#747D81"/>
<path opacity="0.6" d="M703.768 572.473L705.882 563.394C705.882 563.394 712.983 563.497 723.924 559.967C723.924 559.967 712.045 563.394 703.768 561.732C703.768 561.732 694.928 575.884 694.172 587.917C694.172 587.917 700.823 575.529 703.768 572.473Z" fill="#747D81"/>
<path opacity="0.6" d="M671.64 583.129V580.634C671.64 580.634 687 568.586 691.662 556.955L712.628 553.631C712.628 553.631 699.888 555.915 692.134 554.462C692.134 554.462 681.366 573.466 670.875 580.322L671.64 583.129Z" fill="#747D81"/>
<path opacity="0.6" d="M688.746 530.575L694.174 525.99C694.174 525.99 699.834 530.772 712.779 533.894C712.779 533.894 696.202 532.322 688.746 530.575Z" fill="#747D81"/>
<path opacity="0.6" d="M591.441 484.948C591.441 484.948 615.402 478.886 618.83 467.847L595.637 481.203L591.441 484.948Z" fill="#747D81"/>
<path d="M387.273 465.15C387.273 465.15 419.364 474.505 444.877 457.296C444.877 457.296 454.164 447.024 471.419 443.141C488.673 439.259 517.064 427.042 520.946 414.985C520.946 414.985 524.209 446.031 511.36 470.269C498.509 494.51 456.952 510.269 446.706 514.021L442.824 528.71L428.701 510.425C428.701 510.425 450.515 509.274 475.206 493.861C499.895 478.447 501.553 441.49 501.553 441.49C501.553 441.49 474.191 451.372 466.82 455.286C459.452 459.199 442.759 475.128 442.759 475.128C442.759 475.128 420.166 481.83 416.574 484.051C412.982 486.272 412.21 489.028 412.21 489.028C412.21 489.028 396.539 486.542 387.273 465.15Z" fill="url(#paint30_linear_610_914)"/>
<path opacity="0.6" d="M446.285 436.275C446.285 436.275 446.908 426.959 453.14 423.62C459.373 420.281 464.864 426.928 464.864 426.928L446.285 436.275Z" fill="#747D81"/>
<path opacity="0.6" d="M442.754 475.126C442.754 475.126 443.804 442.958 451.686 436.275L469.346 428.413C469.346 428.413 481.603 433.122 495.939 432.829C510.274 432.537 517.752 423.62 517.752 423.62C517.752 423.62 520.301 440.739 516.298 459.54C512.296 478.338 482.311 495.201 482.311 495.201L467.48 497.768C467.48 497.768 496.77 490.77 499.748 443.96C499.748 443.96 472.87 450.73 463.105 457.455C453.34 464.177 442.754 475.126 442.754 475.126Z" fill="url(#paint31_linear_610_914)"/>
<path opacity="0.6" d="M616.289 526.211L622.405 513.562C622.405 513.562 635.903 514.902 645.458 512.942C645.458 512.942 628.688 513.499 622.046 512.517L616.289 526.211Z" fill="#747D81"/>
<path opacity="0.6" d="M609.38 531.298C609.38 531.298 609.597 514.582 614.161 507.52L643.029 509.423C643.029 509.423 619.36 507.658 614.161 506.272C614.161 506.272 608.621 512.565 609.38 531.298Z" fill="#747D81"/>
<path opacity="0.6" d="M671.089 523.931L679.092 522.103L669.434 537.84C669.434 537.84 671.238 529.68 671.089 523.931Z" fill="#747D81"/>
<path opacity="0.6" d="M864.82 483.019C864.82 483.019 863.109 523.01 849.008 538.094C841.026 546.623 833.833 543.312 829.118 538.862C837.057 528.074 843.263 515.709 847.254 501.282C847.254 501.282 847.254 501.282 847.232 501.304C846.333 501.633 826.399 509.438 810.697 520.532L813.789 526.43L813.372 526.211L797.078 509.416C797.078 509.416 847.758 504.352 864.82 483.019Z" fill="#747D81"/>
<path opacity="0.6" d="M716.156 321.301C716.156 321.301 737.7 327.089 746.426 312.134C746.426 312.134 798.992 329.553 828.986 359.472L834.894 356.058L863.594 375.458C863.594 375.458 796.468 358.578 745.617 321.301C745.617 321.301 735.227 327.841 716.156 321.301Z" fill="#747D81"/>
<path opacity="0.6" d="M746.426 312.133C746.426 312.133 747.465 273.207 756.121 232.096C764.777 190.984 814.073 77.2569 814.073 77.2569C814.073 77.2569 1013.59 -9.95631 1279.46 116.055C1279.46 116.055 1043.74 2.01692 820.012 83.8235C820.012 83.8235 787.676 151.872 779.527 176.463C758.961 238.531 746.426 312.133 746.426 312.133Z" fill="url(#paint32_linear_610_914)"/>
<path opacity="0.6" d="M387.273 465.15L412.208 489.027C412.208 489.027 394.602 482.186 387.273 465.15Z" fill="url(#paint33_linear_610_914)"/>
<path opacity="0.5" d="M466.23 399.232C466.23 399.232 486.728 391.477 495.593 386.632C504.457 381.787 509.305 382.063 509.305 382.063L515.814 388.252L506.119 377.614C506.119 377.614 490.191 387.601 482.849 389.401C475.509 391.201 469.967 389.531 469.967 389.531C469.967 389.531 460.965 387.476 457.57 396.678C457.57 396.678 460.035 395.034 464.862 395.056C469.689 395.08 470.52 395.056 470.52 395.056L466.23 399.232Z" fill="url(#paint34_linear_610_914)"/>
<path opacity="0.5" d="M464.229 420.904C464.229 420.904 454.874 413.912 444.209 419.174C433.544 424.436 417.893 440.915 405.29 441.467C392.687 442.022 391.163 432.16 391.163 432.16L394.07 424.85C394.07 424.85 386.169 420.426 393.722 409.899L405.983 421.112C405.983 421.112 432.18 420.537 442.143 416.74C442.143 416.74 454.332 405.05 464.229 420.904Z" fill="url(#paint35_linear_610_914)"/>
<path opacity="0.2" d="M605.981 306.873C605.981 306.873 607.093 326.985 601.38 349.331L570.016 365.194C570.016 365.194 586.864 327.092 605.981 306.873Z" fill="url(#paint36_linear_610_914)"/>
<path opacity="0.5" d="M492.547 379.324C492.547 379.324 509.159 370.243 523.567 355.591C537.975 340.936 565.558 312.999 565.558 312.999C565.558 312.999 543.096 321.69 526.271 335.121C509.446 348.55 492.547 379.324 492.547 379.324Z" fill="url(#paint37_linear_610_914)"/>
<path opacity="0.5" d="M469.914 388.251C469.914 388.251 480.283 387.768 483.265 379.323C486.248 370.877 483.265 326.144 483.265 326.144C483.265 326.144 466.645 353.399 469.914 388.251Z" fill="url(#paint38_linear_610_914)"/>
<path opacity="0.6" d="M500.997 443.96L512.221 438.871C512.221 438.871 511.249 467.847 477.043 493.859C477.043 493.859 497.815 480.27 500.997 443.96Z" fill="url(#paint39_linear_610_914)"/>
<path opacity="0.6" d="M570.52 492.973C570.52 492.973 558.193 455.326 529.664 447.566C529.664 447.566 544.451 454.403 570.52 492.973Z" fill="url(#paint40_linear_610_914)"/>
<path opacity="0.6" d="M581.047 449.079C581.047 449.079 557.521 421.19 530.367 428.733L542.933 432.548C542.933 432.548 572.247 442.982 581.047 449.079Z" fill="url(#paint41_linear_610_914)"/>
<path opacity="0.6" d="M556.705 539.585C554.425 532.24 548.372 497.292 528.767 473.657C526.639 469.579 525.367 466.093 524.688 463.133V463.089C549.446 486.088 556.398 537.086 556.705 539.585Z" fill="url(#paint42_linear_610_914)"/>
<path opacity="0.5" d="M708.723 303.699C708.723 303.699 732.161 306.104 743.795 286.462C755.429 266.821 756.087 204.171 788.265 139.461L800.684 61.5791C800.684 61.5791 760.484 244.71 708.723 303.699Z" fill="url(#paint43_linear_610_914)"/>
<path opacity="0.5" d="M805.117 52.7694C805.117 52.7694 817.661 49.018 836.457 37.6784C855.254 26.3388 872.944 0.918945 872.944 0.918945C872.944 0.918945 823.084 21.6118 805.117 52.7694Z" fill="url(#paint44_linear_610_914)"/>
<path opacity="0.5" d="M625.375 80.8817C625.375 80.8817 644.489 76.7269 659.448 58.8646C674.406 41.0023 682.72 24.0762 682.72 24.0762C682.72 24.0762 666.235 29.3689 654.987 40.6493C645.636 50.0244 625.375 80.8817 625.375 80.8817Z" fill="url(#paint45_linear_610_914)"/>
<path opacity="0.5" d="M559.363 401.381C559.363 401.381 575.787 395.023 605.982 375.457C636.18 355.891 656.969 335.641 677.698 323.769C698.428 311.897 745.744 323.508 750.917 333.16C756.091 342.813 741.066 374.988 728.213 374.398C715.36 373.808 709.709 338.183 686.794 337.898C663.879 337.612 633.965 353.719 609.309 381.114C584.655 408.511 563.006 417.409 559.363 401.381Z" fill="url(#paint46_linear_610_914)"/>
<path opacity="0.5" d="M668.556 433.765C666.218 433.379 664.11 440.689 665.523 444.62C666.935 448.553 669.411 448.981 670.534 445.508C671.656 442.037 669.727 433.958 668.556 433.765Z" fill="url(#paint47_linear_610_914)"/>
<path opacity="0.6" d="M645.324 475.542C645.324 475.542 683.634 475.308 696.991 492.556C696.991 492.556 669.052 490.107 645.324 475.542Z" fill="#747D81"/>
<path opacity="0.6" d="M666.925 604.856C666.925 604.856 662.493 591.78 670.874 580.322L671.64 583.129C671.64 583.129 669.438 587.917 666.925 604.856Z" fill="#747D81"/>
<path opacity="0.6" d="M671.092 523.931C671.092 523.931 652.276 526.102 641.377 530.048C638.855 530.969 636.07 532.504 633.263 534.323C625.324 539.476 617.188 546.952 614.184 549.101C614.798 548.18 629.907 526.299 635.478 523.712C641.157 521.081 671.092 523.931 671.092 523.931Z" fill="#747D81"/>
<path opacity="0.6" d="M619.141 487.864L641.079 478.886L628.987 488.412L619.141 487.864Z" fill="#747D81"/>
<path d="M500.994 443.96L499.352 455.628L512.218 438.871L500.994 443.96Z" fill="#434200"/>
<path d="M442.754 475.126C442.754 475.126 462.254 452.449 464.866 451.32C467.476 450.19 496.044 443.277 501.548 441.488C507.053 439.699 515.814 435.441 515.814 435.441L512.217 438.868L500.993 443.957C500.993 443.957 479.901 449.458 468.201 455.281C456.504 461.109 450.133 469.728 442.754 475.126Z" fill="#434200"/>
<path opacity="0.5" d="M446.704 514.021C446.704 514.021 481.217 500.5 490.272 492.184C490.272 492.184 462.912 509.048 428.699 510.425L442.822 528.711L446.704 514.021Z" fill="#434200"/>
<path opacity="0.6" d="M477.242 423.604L511.835 396.082L513.808 393.277C513.808 393.277 496.563 394.939 477.242 423.604Z" fill="#747D81"/>
<path opacity="0.6" d="M529.379 360.459C520.059 376.157 516.375 383.041 515.629 384.489C516.945 373.351 532.296 354.254 532.296 354.254L533.48 354.451C531.879 356.556 530.497 358.573 529.379 360.459Z" fill="#747D81"/>
<path opacity="0.6" d="M531.88 390.956C522.692 393.411 515.828 388.259 515.828 388.259C515.499 387.185 515.455 385.957 515.608 384.597C516.836 383.238 526.003 373.065 533.744 369.601C542.056 365.852 555.981 363.791 557.429 365.04C558.898 366.268 539.775 381.988 531.88 390.956Z" fill="#747D81"/>
<path opacity="0.6" d="M605.98 337.898L620.653 324.951C620.653 324.951 618 338.409 601.379 349.332L605.98 337.898Z" fill="#747D81"/>
<path opacity="0.6" d="M681.047 287.755L664.014 309.906C664.014 309.906 664.414 298.632 664.008 293.17L681.047 287.755Z" fill="#747D81"/>
<path opacity="0.6" d="M685.891 285.185L710.862 301.173L728.553 270.342C728.553 270.342 711.299 272.431 685.891 285.185Z" fill="#747D81"/>
<path opacity="0.5" d="M750.84 464.764C750.84 464.764 757.184 464.483 768.213 461.78C779.241 459.077 782.467 454.402 782.467 454.402C782.467 454.402 751.145 457.125 750.84 464.764Z" fill="url(#paint48_linear_610_914)"/>
<path opacity="0.6" d="M777.869 450.607C792.426 449.919 818.314 452.458 835.378 460.162C835.378 460.162 781.921 426.485 754.93 454.402C754.93 454.402 767.618 451.092 777.869 450.607Z" fill="#747D81"/>
<path opacity="0.6" d="M1041.45 224.83L1079.39 252.39C1048.16 254.429 1026.49 265.852 1011.75 278.832L1011.84 278.722C1011.84 278.722 998.507 271.136 992.06 276.551C985.591 281.945 992.06 302.204 992.06 302.204C985.371 313.013 983.003 321.3 983.003 321.3C966.797 321.256 951.599 322.375 937.542 324.216C955.108 273.855 929.23 246.426 929.23 246.426L936.38 247.939L966.095 312.136L970.042 309.57L929.23 218.209L977.104 297.95L981.687 300.647L988.529 273.219L977.104 257.235L994.099 273.219L1001.2 271.136L994.099 267.584H1012.81L1019.3 263.462L994.099 227.549L1027.87 222.704L1063.88 248.992L1041.45 224.83Z" fill="url(#paint49_linear_610_914)"/>
<path opacity="0.6" d="M1058.88 131.561H1089.84C1085.74 134.499 1082.21 137.809 1079.38 141.537C1043.02 189.311 1076.36 247.325 1079.19 252.083C1053.35 212.179 950.238 130.574 950.238 130.574L1058.33 203.584L1032.7 160.085C1042.5 142.063 1058.88 131.561 1058.88 131.561Z" fill="url(#paint50_linear_610_914)"/>
<path opacity="0.6" d="M1279.39 116.038C1275.88 115.534 1139.98 95.6482 1089.84 131.561L1079.38 116.323L1091.03 124.348L1079.38 104.418L1149.21 92.2279L1207.28 101.108L1058.88 57.5645C1194.71 75.1702 1276.31 114.526 1279.36 116.016C1279.36 116.016 1279.39 116.017 1279.39 116.038Z" fill="url(#paint51_linear_610_914)"/>
<path opacity="0.6" d="M904.8 330.224C900.941 331.122 897.213 332.087 893.616 333.074C893.616 333.074 890.897 302.291 878.265 307.29C865.633 312.267 862.87 343.203 862.87 343.203C841.05 351.732 828.988 359.471 828.988 359.471C794.602 328.272 747.913 312.618 746.466 312.157L746.422 312.135L757.913 255.7L763.22 312.135L794.054 321.3L805.128 281.682L808.462 314.745L824.997 338.533L829.361 224.83L839.23 303.782L857.958 331.364L875.94 271.201L887.541 290.824L879.252 261.379L893.419 254.911L904.8 330.224Z" fill="url(#paint52_linear_610_914)"/>
<path opacity="0.5" d="M750.85 360.817C745.674 351.83 784.431 366.459 804.506 377.555C824.581 388.651 847.697 406.68 851.857 412.622C858.028 421.431 857.798 438.053 857.798 438.053C857.798 438.053 853.702 424.097 840.228 407.41C827.032 391.065 807.133 378.384 794.609 375.709C782.087 373.036 760.602 377.75 750.85 360.817Z" fill="url(#paint53_linear_610_914)"/>
<g opacity="0.4">
<path d="M671.326 374.363C670.888 375.821 670.515 377.36 670.78 378.893C670.888 379.511 671.162 380.081 671.785 380.329C672.37 380.564 673.103 380.366 673.688 380.233C675.114 379.908 676.267 378.974 677.287 377.977C678.171 377.111 678.741 375.685 678.603 374.436C678.539 373.857 678.197 373.274 677.94 372.758C677.752 372.381 677.539 372.127 677.212 371.868C676.657 371.432 676.107 371.235 675.414 371.173C674.671 371.107 673.901 371.445 673.302 371.87C671.776 372.954 671.061 375.113 670.75 376.854L671.326 374.363Z" fill="#C36881"/>
<path d="M671.69 383.091C672.089 382.892 672.453 382.558 672.842 382.874C673.035 383.032 673.186 383.236 673.21 383.482C673.258 383.968 673.002 384.551 672.495 384.648C672.041 384.736 671.749 384.633 671.44 384.288C671.052 383.856 671.357 383.319 671.673 382.938L671.69 383.091Z" fill="#C36881"/>
<path d="M730.383 367.208C730.087 367.636 729.813 367.963 729.554 368.513C729.311 369.03 729.015 369.725 728.826 370.287C728.427 371.484 728.552 372.282 728.774 372.705C728.945 373.03 729.219 373.483 729.664 372.953C729.903 372.668 730.184 372.33 730.421 371.944C730.629 371.604 730.822 371.175 731.026 370.809C731.412 370.114 731.782 369.414 732.085 368.585C732.366 367.82 732.701 367.035 732.732 366.371C732.765 365.59 732.403 365.224 732.059 365.242C731.513 365.268 730.853 366.224 730.164 367.316L730.383 367.208Z" fill="#C36881"/>
<path d="M726.695 378.178C726.895 377.667 727.103 377.165 727.323 376.671C727.516 376.759 727.994 375.963 728.075 376.391C728.116 376.608 728.007 376.961 727.844 377.294C727.682 377.627 727.458 378.002 727.287 378.162C726.974 378.456 726.921 378.171 726.93 377.704L726.695 378.178Z" fill="#C36881"/>
<path d="M672.249 182.982C674.299 184.725 676.929 187.369 679.843 187.483C681.501 187.549 683.22 185.896 683.343 184.266C683.58 181.131 682.025 178.647 680.284 176.24C679.315 174.9 678.694 173.337 677.462 172.203C676.389 171.217 674.863 170.355 673.455 169.952C671.944 169.518 669.907 169.226 668.418 169.967C667.565 170.392 666.418 171.857 666.15 172.811C665.628 174.676 666.652 176.847 667.435 178.472C669.087 181.901 671.661 184.589 674.916 186.591L672.249 182.982Z" fill="#C36881"/>
<path d="M677.29 199.662C678.463 199.905 680.086 200.717 681.141 199.94C681.733 199.504 682.117 198.853 681.952 198.107C681.729 197.095 679.674 195.365 678.691 195.095C677.834 194.858 676.415 195.084 676.108 196.018C675.674 197.34 676.933 198.802 677.821 199.555L677.29 199.662Z" fill="#C36881"/>
<path d="M597.627 413.33C597.772 412.613 597.774 412.3 598.362 411.898C598.947 411.499 599.561 411.359 600.261 411.313C601.831 411.208 603.544 411.519 604.616 412.784C606.211 414.665 604.654 417.239 602.789 418.211C602.075 418.583 601.221 418.906 600.476 418.454C599.601 417.923 598.822 417.327 598.274 416.441C597.912 415.856 597.664 415.117 597.509 414.45C597.43 414.115 597.469 413.47 597.739 413.209C597.772 413.218 597.803 413.227 597.627 413.33Z" fill="#C36881"/>
<path d="M640.801 380.43C641.171 380.167 641.443 379.851 641.906 379.932C642.22 379.987 642.467 380.136 642.698 380.359C643.057 380.71 642.88 381.254 642.511 381.532C642.202 381.767 641.88 381.734 641.61 381.471C641.426 381.289 641.397 381.072 641.288 380.846C641.185 380.631 641.033 380.432 640.992 380.191L640.801 380.43Z" fill="#C36881"/>
<path d="M653.541 388.741C653.438 389 653.412 389.261 653.46 389.524C653.899 389.697 654.294 389.574 654.267 389.059C654.256 388.866 654.234 388.68 654.101 388.528C653.809 388.197 653.53 388.419 653.234 388.629L653.541 388.741Z" fill="#C36881"/>
<path d="M653.414 383.929C653.691 384.322 654.029 385.078 654.491 385.31C654.673 385.4 655.083 385.383 655.292 385.433C655.915 385.584 656.458 385.484 656.956 385.054C657.934 384.21 658.298 382.416 657.61 381.302C657 380.318 655.888 379.768 654.717 379.978C653.39 380.215 653.037 381.776 653.154 382.938L653.414 383.929Z" fill="#C36881"/>
<path d="M907.1 77.9176C906.449 76.5978 905.993 76.008 907.034 75.3678C908.072 74.7297 909.57 74.5828 911.44 74.6289C915.64 74.7297 920.846 75.644 925.679 78.2246C932.868 82.0637 932.331 86.5999 928.589 88.0711C927.157 88.6346 925.265 89.0775 922.532 88.0865C919.324 86.9222 916.289 85.655 913.467 83.8834C911.602 82.7148 909.833 81.2787 908.418 79.9983C907.71 79.3537 906.872 78.15 907.234 77.7137C907.333 77.7335 907.434 77.7554 907.1 77.9176Z" fill="#C36881"/>
<path d="M897.059 72.3438C897.699 71.9207 897.991 71.3813 899.39 71.6203C900.344 71.7848 901.245 72.1092 902.214 72.5762C903.725 73.3042 904.034 74.293 903.425 74.7424C902.909 75.1239 901.969 75.0033 900.833 74.4552C900.056 74.0803 899.657 73.6659 899.019 73.2187C898.42 72.7977 897.706 72.3921 897.236 71.9295L897.059 72.3438Z" fill="#C36881"/>
<path d="M944.604 90.3883C944.696 90.8531 945.006 91.3376 945.532 91.8419C947.003 92.2497 947.918 92.094 947.089 91.1228C946.777 90.7566 946.44 90.4036 945.848 90.0945C944.552 89.4192 944.104 89.781 943.598 90.1208L944.604 90.3883Z" fill="#C36881"/>
<path d="M937.173 81.3219C938.517 82.1134 940.568 83.5999 942.191 84.1218C942.827 84.3257 943.938 84.3717 944.592 84.5054C946.542 84.9067 947.901 84.8256 948.651 84.1108C950.123 82.7098 948.495 79.4101 944.952 77.1891C941.816 75.2246 937.923 73.9793 934.984 74.1481C931.655 74.341 932.971 77.2044 935.002 79.4101L937.173 81.3219Z" fill="#C36881"/>
<path d="M768.415 415.761C770.562 417.154 775.428 420.403 778.029 418.221C779.141 417.29 778.924 415.579 778.529 414.273C777.964 412.392 776.58 410.499 775.192 409.077C773.207 407.042 770.678 406.959 767.887 406.954C765.174 406.952 759.575 406.005 760.797 410.414C761.268 412.115 763.849 413.345 765.33 414.185C767.426 415.376 768.942 417.373 771.512 417.333L768.415 415.761Z" fill="#C36881"/>
<path d="M783.399 276.338C784.903 276.705 787.6 277.06 789.208 277.853C790.771 278.627 792.256 279.954 793.616 281.019C795.543 282.528 797.719 283.931 797.806 286.569C797.931 290.287 795.002 291.304 791.85 290.416C787.903 289.307 785.276 285.472 783.361 282.107C781.85 279.45 780.896 277.29 784.401 275.771L783.399 276.338Z" fill="#C36881"/>
<path d="M694.39 360.07C694.002 360.684 693.124 361.721 693.311 362.581C693.429 363.12 694.166 362.931 694.585 362.885C695.907 362.738 697.247 361.949 698.258 361.118C699.083 360.439 699.958 359.752 700.535 358.834C700.697 358.575 701.155 357.845 700.883 357.529C700.739 357.362 700.192 357.439 700.015 357.417C699.706 357.38 699.471 357.395 699.166 357.463C698.26 357.663 697.513 357.97 696.699 358.402C696.138 358.7 695.541 358.994 695.063 359.421C694.243 360.149 693.64 361.083 694.39 360.07Z" fill="#C36881"/>
<path d="M872.598 290.553C871.677 290.998 869.8 291.662 869.585 292.563C869.449 293.127 870.64 293.228 871.28 293.342C873.304 293.703 875.721 293.451 877.677 293.035C879.276 292.693 880.949 292.366 882.32 291.7C882.703 291.513 883.796 290.983 883.574 290.575C883.456 290.36 882.611 290.226 882.361 290.136C881.929 289.985 881.576 289.908 881.089 289.856C879.646 289.702 878.374 289.715 876.936 289.823C875.94 289.895 874.901 289.952 873.953 290.182C872.339 290.573 870.923 291.241 872.598 290.553Z" fill="#C36881"/>
<path d="M705.583 353.254C705.219 353.545 704.954 353.898 704.785 354.317C705.52 354.324 706.355 354.238 706.829 353.572C706.991 353.342 706.998 353.098 706.678 353.006C706.32 352.905 706.066 353.26 705.785 353.372L705.583 353.254Z" fill="#C36881"/>
<path d="M823.19 230.099C822.354 230.465 820.317 231.131 820.141 231.971C819.911 233.076 822.909 233.181 823.957 233.168C825.924 233.142 828.376 232.559 830.091 231.943C830.894 231.655 832.054 231.259 832.128 230.579C832.26 229.404 829.865 229.077 828.517 229.226C827.688 229.318 826.896 229.463 826.082 229.594C825.058 229.761 823.104 230.211 822.609 230.853L823.19 230.099Z" fill="#C36881"/>
<path d="M835.578 226.587C836.135 226.174 837.453 224.868 838.771 225.269C839.236 225.409 839.133 226.153 838.896 226.424C838.497 226.887 835.398 227.896 835.863 226.775L835.578 226.587Z" fill="#C36881"/>
<path d="M953.773 229.345C953.453 229.91 953.258 230.494 953.188 231.092C953.76 231.169 953.861 231.629 954.37 231.789C955.091 232.017 956.308 231.682 956.938 231.465C957.988 231.103 959.462 230.252 959.552 229.426C959.628 228.731 959.188 228.244 958.179 228.088C956.212 227.788 954.453 228.678 953.481 229.722L953.773 229.345Z" fill="#C36881"/>
<path d="M887.605 289.21C887.285 289.776 887.09 290.359 887.02 290.955C887.592 291.032 887.693 291.493 888.202 291.653C888.923 291.883 890.14 291.545 890.77 291.328C891.82 290.966 893.292 290.116 893.384 289.289C893.46 288.594 893.02 288.107 892.011 287.952C890.044 287.651 888.285 288.541 887.313 289.585L887.605 289.21Z" fill="#C36881"/>
<path d="M860.15 207.637C859.737 208.279 858.838 209.088 859.43 209.792C859.731 210.149 860.163 210.311 860.753 210.307C861.928 210.298 862.845 209.79 863.325 209.123C863.727 208.566 864.172 208.123 864.191 207.492C864.213 206.834 864.367 206.113 863.194 205.948C861.56 205.72 860.472 207.279 859.86 208.014L860.15 207.637Z" fill="#C36881"/>
<path d="M870.246 203.352C870.865 203.471 872.336 203.955 872.777 203.33C873.016 202.991 872.867 202.629 872.448 202.412C871.987 202.171 871.803 202.23 871.248 202.39C870.886 202.495 870.211 202.627 870.248 202.973L870.246 203.352Z" fill="#C36881"/>
<path d="M767.775 481.342C767.029 482.403 765.985 483.6 765.996 484.996C766.003 485.676 766.275 486.529 766.856 486.827C768.393 487.614 770.593 485.683 771.457 484.534C772.325 483.378 772.742 481.313 772.04 479.982C770.74 477.516 768.15 480.445 767.198 481.624L767.775 481.342Z" fill="#C36881"/>
<path d="M401.517 459.614C400.771 460.675 399.727 461.872 399.738 463.269C399.745 463.949 400.017 464.801 400.598 465.1C402.135 465.887 404.335 463.955 405.199 462.806C406.067 461.651 406.484 459.585 405.782 458.255C404.482 455.788 401.892 458.717 400.94 459.897L401.517 459.614Z" fill="#C36881"/>
<path d="M775.945 426.663C773.937 426.242 771.386 425.429 770.13 426.532C769.518 427.069 769.121 428.185 769.66 429.384C771.09 432.563 775.926 434.732 778.178 435.284C780.446 435.839 782.908 434.929 783.141 432.725C783.573 428.641 777.283 426.593 774.88 425.92L775.945 426.663Z" fill="#C36881"/>
<path d="M683.028 305.174C681.019 304.753 678.468 303.94 677.212 305.042C676.6 305.58 676.203 306.696 676.742 307.895C678.172 311.074 683.008 313.242 685.26 313.795C687.528 314.35 689.99 313.437 690.223 311.236C690.655 307.152 684.365 305.104 681.962 304.431L683.028 305.174Z" fill="#C36881"/>
<path d="M862.953 218.818C863.392 218.369 863.822 217.917 864.243 217.461C864.824 217.533 865.203 217.441 865.556 217.698C865.955 217.987 865.868 218.279 865.583 218.579C864.951 219.241 863.846 219.07 862.955 218.632L862.953 218.818Z" fill="#C36881"/>
<path d="M833.234 233.571C833.3 234.121 833.592 234.597 834.109 235.001C835.072 234.667 836.092 234.93 836.971 234.356C837.493 234.016 837.844 233.613 837.348 233.168C836.333 232.26 834.074 233.014 833.234 233.571Z" fill="#C36881"/>
<path d="M838.684 483.973C839.526 484.387 840.89 485.411 841.784 484.573C842.146 484.236 842.284 483.661 842.081 483.196C841.567 482.023 839.585 481.469 839.262 483.113L838.684 483.973Z" fill="#C36881"/>
<path d="M910.131 216.623C910.037 217.121 909.423 218.313 910.112 218.708C910.454 218.903 910.94 218.938 911.386 218.886C911.666 218.853 912.127 218.695 912.421 218.627C912.688 218.566 913.285 218.423 913.504 218.305C914.342 217.855 913.283 217.507 912.706 217.254C911.811 216.86 911.208 216.643 910.131 216.623Z" fill="#C36881"/>
</g>
<path d="M863.879 716.433C863.879 716.433 949.755 738.768 983.549 743.685C1017.35 748.603 1045.04 739.739 1045.04 739.739C1045.04 739.739 988.531 766.516 863.879 716.433Z" fill="#434200"/>
<path d="M919.362 681.988L924.132 677.98C924.132 677.98 881.888 680.75 848.309 691.35C848.309 691.35 885.164 682.002 919.362 681.988Z" fill="#434200"/>
<path d="M475.038 452.289C475.038 452.289 452.518 506.261 345.732 533.893C238.944 561.523 233.959 565.264 209.027 553.63C184.097 541.999 179.525 556.537 169.139 562.769C158.751 569 103.904 579.03 89.7763 612.856C75.649 646.682 103.904 664.529 119.693 660.8C135.483 657.07 155.428 652.915 172.88 676.594C190.332 700.273 211.108 678.5 220.665 679.833C230.223 681.166 214.448 699.545 220.249 703.183C226.049 706.818 242.271 698.302 243.933 689.734C245.596 681.166 244.764 647.982 265.124 636.741C285.484 625.5 273.019 610.964 302.521 583.13C332.024 555.294 457.578 493.863 496.775 445.415L475.038 452.289Z" fill="url(#paint54_linear_610_914)"/>
<path d="M169.415 732.539C169.415 732.539 167.753 724.508 176.895 724.231L169.415 732.539Z" fill="#FF8400"/>
<path d="M198.225 502.335C198.225 502.335 195.218 476.06 169.297 487.012L198.225 502.335Z" fill="#FF8400"/>
<path d="M316.229 718.708C316.229 718.708 312.074 709.068 323.71 707.371L316.229 718.708Z" fill="#FF8400"/>
<path d="M70.2422 687.952C70.2422 687.952 28.6914 671.672 28.6914 704.045C28.6914 704.045 47.8056 690.999 70.2422 687.952Z" fill="#FF8400"/>
<path d="M434.176 425.694C434.176 425.694 441.503 417.378 446.286 414.401C451.068 411.423 455.575 413.164 455.575 413.164C455.575 413.164 450.757 415.813 444.875 418.209C438.994 420.608 434.176 425.694 434.176 425.694Z" fill="url(#paint55_linear_610_914)"/>
<path opacity="0.5" d="M391.16 432.161C391.16 432.161 398.812 424.384 406.573 421.898L419.257 420.434C419.257 420.434 405.145 422.951 391.16 432.161Z" fill="url(#paint56_linear_610_914)"/>
<path d="M466.23 399.232L506.119 377.614C506.119 377.614 487.693 392.58 466.23 399.232Z" fill="url(#paint57_linear_610_914)"/>
<path d="M482.092 487.066C482.092 487.066 478.553 475.019 479.283 474.396C480.013 473.773 488.346 477.253 488.346 477.253C488.346 477.253 487.702 483.951 482.092 487.066Z" fill="#FFC7D1"/>
<path d="M490.272 473.701C490.272 473.701 487.601 464.633 489.264 462.348C490.926 460.063 495.527 460.693 495.527 460.693C495.527 460.693 496.683 467.917 490.272 473.701Z" fill="#FFC7D1"/>
<path d="M460.487 500.463C460.487 500.463 459.447 495.773 462.044 493.859C464.64 491.947 468.068 496.308 468.068 496.308C468.068 496.308 462.877 500.048 460.487 500.463Z" fill="#FFC7D1"/>
<path d="M458.34 500.463C458.34 500.463 452.285 492.432 453.146 502.956C453.146 502.956 456.223 503.477 458.34 500.463Z" fill="#FFC7D1"/>
<path d="M452.039 503.405C452.039 503.405 450.357 499.524 448.833 499.224C447.309 498.923 446.844 505.742 446.844 505.742C446.844 505.742 450.377 506.141 452.039 503.405Z" fill="#FFC7D1"/>
<path d="M444.976 505.742C444.976 505.742 444.064 501.015 442.757 500.949C441.45 500.881 440.891 506.487 440.891 506.487C440.891 506.487 442.985 507.02 444.976 505.742Z" fill="#FFC7D1"/>
<defs>
<radialGradient id="paint0_radial_610_914" cx="0" cy="0" r="1" gradientUnits="userSpaceOnUse" gradientTransform="translate(821.082 189.73) scale(149.05 149.016)">
<stop stop-color="#FE9C7C"/>
<stop offset="1" stop-color="#FF3657"/>
</radialGradient>
<radialGradient id="paint1_radial_610_914" cx="0" cy="0" r="1" gradientUnits="userSpaceOnUse" gradientTransform="translate(744.932 146.249) scale(154.693 154.658)">
<stop stop-color="#D8AF43"/>
<stop offset="1" stop-color="#96933D"/>
</radialGradient>
<radialGradient id="paint2_radial_610_914" cx="0" cy="0" r="1" gradientUnits="userSpaceOnUse" gradientTransform="translate(730.601 145.893) scale(95.4863 95.4645)">
<stop stop-color="#D8AF43"/>
<stop offset="1" stop-color="#96933D"/>
</radialGradient>
<radialGradient id="paint3_radial_610_914" cx="0" cy="0" r="1" gradientUnits="userSpaceOnUse" gradientTransform="translate(708.085 186.947) scale(88.0645 88.0444)">
<stop stop-color="#D8AF43"/>
<stop offset="1" stop-color="#96933D"/>
</radialGradient>
<linearGradient id="paint4_linear_610_914" x1="475.202" y1="536.461" x2="475.202" y2="475.023" gradientUnits="userSpaceOnUse">
<stop stop-color="#D8AF43"/>
<stop offset="1" stop-color="#96933D"/>
</linearGradient>
<linearGradient id="paint5_linear_610_914" x1="488.35" y1="514.935" x2="488.349" y2="480.27" gradientUnits="userSpaceOnUse">
<stop stop-color="#D8AF43"/>
<stop offset="1" stop-color="#96933D"/>
</linearGradient>
<radialGradient id="paint6_radial_610_914" cx="0" cy="0" r="1" gradientUnits="userSpaceOnUse" gradientTransform="translate(597.562 487.707) scale(271.26 271.198)">
<stop stop-color="#C49A43"/>
<stop offset="1" stop-color="#5C632F"/>
</radialGradient>
<linearGradient id="paint7_linear_610_914" x1="601.379" y1="502.335" x2="774.951" y2="502.335" gradientUnits="userSpaceOnUse">
<stop stop-color="#FEF450"/>
<stop offset="1" stop-color="#BBAA3D"/>
</linearGradient>
<radialGradient id="paint8_radial_610_914" cx="0" cy="0" r="1" gradientUnits="userSpaceOnUse" gradientTransform="translate(943.125 223.532) scale(224.697 205.506)">
<stop stop-color="#FE5743"/>
<stop offset="1" stop-color="#BB0074"/>
</radialGradient>
<radialGradient id="paint9_radial_610_914" cx="0" cy="0" r="1" gradientUnits="userSpaceOnUse" gradientTransform="translate(891.187 144.444) scale(222.558 222.507)">
<stop stop-color="#C49A43"/>
<stop offset="1" stop-color="#5C632F"/>
</radialGradient>
<linearGradient id="paint10_linear_610_914" x1="464.866" y1="510.545" x2="464.866" y2="443.96" gradientUnits="userSpaceOnUse">
<stop stop-color="#FF7725"/>
<stop offset="1" stop-color="#600968"/>
</linearGradient>
<linearGradient id="paint11_linear_610_914" x1="501.036" y1="458.216" x2="663.874" y2="458.216" gradientUnits="userSpaceOnUse">
<stop stop-color="#B5BB3D"/>
<stop offset="1" stop-color="#D8AF43"/>
</linearGradient>
<linearGradient id="paint12_linear_610_914" x1="709.723" y1="446.161" x2="777.868" y2="446.161" gradientUnits="userSpaceOnUse">
<stop stop-color="#D8AF43"/>
<stop offset="1" stop-color="#B5BB3D"/>
</linearGradient>
<linearGradient id="paint13_linear_610_914" x1="524.097" y1="475.021" x2="581.147" y2="475.021" gradientUnits="userSpaceOnUse">
<stop stop-color="#97822F"/>
<stop offset="1" stop-color="#5C632F"/>
</linearGradient>
<linearGradient id="paint14_linear_610_914" x1="707.101" y1="733.534" x2="707.101" y2="492.183" gradientUnits="userSpaceOnUse">
<stop stop-color="#D8AF43"/>
<stop offset="1" stop-color="#777F22"/>
</linearGradient>
<linearGradient id="paint15_linear_610_914" x1="681.924" y1="610.197" x2="681.924" y2="590.517" gradientUnits="userSpaceOnUse">
<stop stop-color="#B5BB3D"/>
<stop offset="1" stop-color="#D8AF43"/>
</linearGradient>
<linearGradient id="paint16_linear_610_914" x1="654.085" y1="578.787" x2="654.085" y2="578.743" gradientUnits="userSpaceOnUse">
<stop stop-color="#B5BB3D"/>
<stop offset="1" stop-color="#D8AF43"/>
</linearGradient>
<linearGradient id="paint17_linear_610_914" x1="661.914" y1="605.37" x2="661.914" y2="584.006" gradientUnits="userSpaceOnUse">
<stop stop-color="#B5BB3D"/>
<stop offset="1" stop-color="#D8AF43"/>
</linearGradient>
<linearGradient id="paint18_linear_610_914" x1="723.92" y1="596.564" x2="723.92" y2="584.839" gradientUnits="userSpaceOnUse">
<stop stop-color="#B5BB3D"/>
<stop offset="1" stop-color="#D8AF43"/>
</linearGradient>
<linearGradient id="paint19_linear_610_914" x1="754.931" y1="577.998" x2="754.931" y2="566.86" gradientUnits="userSpaceOnUse">
<stop stop-color="#B5BB3D"/>
<stop offset="1" stop-color="#D8AF43"/>
</linearGradient>
<linearGradient id="paint20_linear_610_914" x1="-0.00232162" y1="632.335" x2="394.714" y2="632.335" gradientUnits="userSpaceOnUse">
<stop stop-color="#AE6668"/>
<stop offset="1" stop-color="white"/>
</linearGradient>
<linearGradient id="paint21_linear_610_914" x1="591.187" y1="485.672" x2="591.187" y2="484.97" gradientUnits="userSpaceOnUse">
<stop stop-color="#B5BB3D"/>
<stop offset="1" stop-color="#D8AF43"/>
</linearGradient>
<linearGradient id="paint22_linear_610_914" x1="600.336" y1="512.516" x2="600.336" y2="483.018" gradientUnits="userSpaceOnUse">
<stop stop-color="#B5BB3D"/>
<stop offset="1" stop-color="#D8AF43"/>
</linearGradient>
<linearGradient id="paint23_linear_610_914" x1="587.575" y1="495.2" x2="587.575" y2="472.745" gradientUnits="userSpaceOnUse">
<stop stop-color="#B5BB3D"/>
<stop offset="1" stop-color="#D8AF43"/>
</linearGradient>
<radialGradient id="paint24_radial_610_914" cx="0" cy="0" r="1" gradientUnits="userSpaceOnUse" gradientTransform="translate(903.659 157.928) scale(104.603 104.579)">
<stop stop-color="#C49A43"/>
<stop offset="1" stop-color="#5C632F"/>
</radialGradient>
<radialGradient id="paint25_radial_610_914" cx="0" cy="0" r="1" gradientUnits="userSpaceOnUse" gradientTransform="translate(872.121 191.565) scale(89.4886 89.4682)">
<stop stop-color="#C49A43"/>
<stop offset="1" stop-color="#5C632F"/>
</radialGradient>
<radialGradient id="paint26_radial_610_914" cx="0" cy="0" r="1" gradientUnits="userSpaceOnUse" gradientTransform="translate(823.192 209.826) scale(78.5556 78.5375)">
<stop stop-color="#C49A43"/>
<stop offset="1" stop-color="#5C632F"/>
</radialGradient>
<linearGradient id="paint27_linear_610_914" x1="70.2426" y1="604.273" x2="500.994" y2="604.273" gradientUnits="userSpaceOnUse">
<stop stop-color="#FE6639"/>
<stop offset="0.1983" stop-color="#FE932E"/>
<stop offset="1" stop-color="#FFBB00"/>
</linearGradient>
<linearGradient id="paint28_linear_610_914" x1="666.332" y1="461.378" x2="691.856" y2="461.378" gradientUnits="userSpaceOnUse">
<stop stop-color="#A4956B"/>
<stop offset="1" stop-color="white"/>
</linearGradient>
<linearGradient id="paint29_linear_610_914" x1="737.731" y1="511.199" x2="804.144" y2="511.199" gradientUnits="userSpaceOnUse">
<stop stop-color="#A4956B"/>
<stop offset="1" stop-color="white"/>
</linearGradient>
<linearGradient id="paint30_linear_610_914" x1="387.273" y1="471.847" x2="521.316" y2="471.847" gradientUnits="userSpaceOnUse">
<stop stop-color="#B5BB3D"/>
<stop offset="1" stop-color="#D8AF43"/>
</linearGradient>
<linearGradient id="paint31_linear_610_914" x1="442.754" y1="460.694" x2="518.552" y2="460.694" gradientUnits="userSpaceOnUse">
<stop stop-color="#A4956B"/>
<stop offset="1" stop-color="white"/>
</linearGradient>
<linearGradient id="paint32_linear_610_914" x1="746.426" y1="179.996" x2="1279.46" y2="179.996" gradientUnits="userSpaceOnUse">
<stop stop-color="#A4956B"/>
<stop offset="1" stop-color="white"/>
</linearGradient>
<linearGradient id="paint33_linear_610_914" x1="387.273" y1="477.088" x2="412.208" y2="477.088" gradientUnits="userSpaceOnUse">
<stop stop-color="#A4956B"/>
<stop offset="1" stop-color="white"/>
</linearGradient>
<linearGradient id="paint34_linear_610_914" x1="457.573" y1="388.423" x2="515.814" y2="388.423" gradientUnits="userSpaceOnUse">
<stop stop-color="#A4956B"/>
<stop offset="1" stop-color="#FFFF75"/>
</linearGradient>
<linearGradient id="paint35_linear_610_914" x1="390.451" y1="425.695" x2="464.229" y2="425.695" gradientUnits="userSpaceOnUse">
<stop stop-color="#A4956B"/>
<stop offset="1" stop-color="#FFFF75"/>
</linearGradient>
<linearGradient id="paint36_linear_610_914" x1="570.015" y1="336.033" x2="606.068" y2="336.033" gradientUnits="userSpaceOnUse">
<stop stop-color="#A4956B"/>
<stop offset="1" stop-color="#FFFF75"/>
</linearGradient>
<linearGradient id="paint37_linear_610_914" x1="529.054" y1="379.323" x2="529.054" y2="312.997" gradientUnits="userSpaceOnUse">
<stop stop-color="#A4956B"/>
<stop offset="1" stop-color="#FFFF75"/>
</linearGradient>
<linearGradient id="paint38_linear_610_914" x1="477.04" y1="388.252" x2="477.04" y2="326.146" gradientUnits="userSpaceOnUse">
<stop stop-color="#A4956B"/>
<stop offset="1" stop-color="#FFFF75"/>
</linearGradient>
<linearGradient id="paint39_linear_610_914" x1="494.633" y1="493.86" x2="494.633" y2="438.871" gradientUnits="userSpaceOnUse">
<stop stop-color="white"/>
<stop offset="1" stop-color="#A4956B"/>
</linearGradient>
<linearGradient id="paint40_linear_610_914" x1="529.664" y1="470.27" x2="570.519" y2="470.27" gradientUnits="userSpaceOnUse">
<stop stop-color="#A4956B"/>
<stop offset="1" stop-color="white"/>
</linearGradient>
<linearGradient id="paint41_linear_610_914" x1="530.367" y1="438.259" x2="581.047" y2="438.259" gradientUnits="userSpaceOnUse">
<stop stop-color="#A4956B"/>
<stop offset="1" stop-color="white"/>
</linearGradient>
<linearGradient id="paint42_linear_610_914" x1="524.687" y1="501.337" x2="556.705" y2="501.337" gradientUnits="userSpaceOnUse">
<stop stop-color="#A4956B"/>
<stop offset="1" stop-color="white"/>
</linearGradient>
<linearGradient id="paint43_linear_610_914" x1="754.703" y1="303.791" x2="754.703" y2="61.5787" gradientUnits="userSpaceOnUse">
<stop stop-color="#A4956B"/>
<stop offset="1" stop-color="#FFFF75"/>
</linearGradient>
<linearGradient id="paint44_linear_610_914" x1="839.03" y1="52.7696" x2="839.03" y2="0.919162" gradientUnits="userSpaceOnUse">
<stop stop-color="#A4956B"/>
<stop offset="1" stop-color="#FFFF75"/>
</linearGradient>
<linearGradient id="paint45_linear_610_914" x1="654.047" y1="80.8821" x2="654.047" y2="24.0764" gradientUnits="userSpaceOnUse">
<stop stop-color="#A4956B"/>
<stop offset="1" stop-color="#FFFF75"/>
</linearGradient>
<linearGradient id="paint46_linear_610_914" x1="559.363" y1="364.038" x2="751.964" y2="364.038" gradientUnits="userSpaceOnUse">
<stop stop-color="#FFFF75"/>
<stop offset="1"/>
</linearGradient>
<linearGradient id="paint47_linear_610_914" x1="667.969" y1="447.864" x2="667.969" y2="433.75" gradientUnits="userSpaceOnUse">
<stop stop-color="#A4956B"/>
<stop offset="1" stop-color="#FFFF75"/>
</linearGradient>
<linearGradient id="paint48_linear_610_914" x1="750.841" y1="459.583" x2="782.468" y2="459.583" gradientUnits="userSpaceOnUse">
<stop stop-color="#A4956B"/>
<stop offset="1" stop-color="#FFFF75"/>
</linearGradient>
<linearGradient id="paint49_linear_610_914" x1="863.87" y1="171.079" x2="1036.69" y2="311.253" gradientUnits="userSpaceOnUse">
<stop stop-color="white"/>
<stop offset="1" stop-color="#A4226B"/>
</linearGradient>
<linearGradient id="paint50_linear_610_914" x1="941.25" y1="75.674" x2="1114.07" y2="215.848" gradientUnits="userSpaceOnUse">
<stop stop-color="white"/>
<stop offset="1" stop-color="#A4226B"/>
</linearGradient>
<linearGradient id="paint51_linear_610_914" x1="1014.25" y1="-14.3252" x2="1187.07" y2="125.849" gradientUnits="userSpaceOnUse">
<stop stop-color="white"/>
<stop offset="1" stop-color="#A4226B"/>
</linearGradient>
<linearGradient id="paint52_linear_610_914" x1="768.897" y1="242.158" x2="893.957" y2="343.592" gradientUnits="userSpaceOnUse">
<stop stop-color="white"/>
<stop offset="1" stop-color="#A4226B"/>
</linearGradient>
<linearGradient id="paint53_linear_610_914" x1="763.399" y1="409.002" x2="846.643" y2="387.045" gradientUnits="userSpaceOnUse">
<stop/>
<stop offset="1" stop-color="#FFFF75"/>
</linearGradient>
<linearGradient id="paint54_linear_610_914" x1="85.9339" y1="574.729" x2="496.771" y2="574.729" gradientUnits="userSpaceOnUse">
<stop stop-color="#FE932E"/>
<stop offset="1" stop-color="#FFE300"/>
</linearGradient>
<linearGradient id="paint55_linear_610_914" x1="434.176" y1="419.177" x2="455.576" y2="419.177" gradientUnits="userSpaceOnUse">
<stop stop-color="#A4956B"/>
<stop offset="1" stop-color="#FFFF75"/>
</linearGradient>
<linearGradient id="paint56_linear_610_914" x1="391.16" y1="426.296" x2="419.257" y2="426.296" gradientUnits="userSpaceOnUse">
<stop stop-color="#A4956B"/>
<stop offset="1" stop-color="#FFFF75"/>
</linearGradient>
<linearGradient id="paint57_linear_610_914" x1="466.23" y1="388.423" x2="506.119" y2="388.423" gradientUnits="userSpaceOnUse">
<stop stop-color="#A4956B"/>
<stop offset="1" stop-color="#FFFF75"/>
</linearGradient>
</defs>
</svg>
