<svg width="676" height="1235" viewBox="0 0 676 1235" fill="none" xmlns="http://www.w3.org/2000/svg">
<path opacity="0.47" d="M256.992 343.737C221.282 295.275 177.405 244.972 155.892 188.749C143.01 155.079 135.655 119.596 128.352 84.2939C122.54 56.1959 116.728 28.098 110.916 0C68.017 131.329 92.5919 290.342 184.169 393.789C106.826 337.239 72.064 239.478 33.373 151.826C21.964 283.043 73.6201 418.334 169.578 508.557C99.5351 456.778 49.095 383.41 0 311.46C31.36 441.711 114.094 534.391 168.94 554.692C103.713 517.133 45.249 474.281 0 414.133C41.758 535.294 106.408 577.849 188.527 612.077C119.962 601.4 66.288 559.316 12.272 515.757C68.432 630.234 131.273 641.653 220.035 661.704C166.346 659.583 115.824 655.55 68.4309 630.234C117.709 693.527 162.467 703.021 218.455 701.268C190.447 714.442 158.625 719.382 127.941 715.319C166.987 751.848 220.695 737.936 246.505 715.076C230.993 741.34 203.205 760.924 174.455 771.117C223.499 779.878 245.549 768.911 265.04 743.697C259.874 778.79 247.135 792.66 216.89 824.062C253.338 817.403 274.595 807.173 284.165 773.097C286.793 800.223 275.14 825.404 255.938 849.212C290.861 839.555 302.357 824.636 314.347 795.833C318.686 818.774 305.34 851.787 288.149 867.585C360.484 835.588 373.558 787.564 374.607 754.043C274.482 739.426 191.62 646.669 188.342 545.537C187.573 521.834 190.941 497.323 202.966 476.882C214.991 456.442 236.856 440.785 260.574 440.794C289.218 440.806 305.95 462.157 329.011 473.868C333.492 433.442 278.719 373.223 256.992 343.737Z" fill="#C3A2D6"/>
<path d="M589.724 843.394C587.578 844.289 585.344 845.248 583.868 847.044C582.672 848.499 582.097 850.363 581.72 852.208C579.021 865.387 586.049 879.948 598.046 886.034C598.59 886.31 599.191 886.577 599.789 886.461C600.384 886.346 600.839 885.881 601.253 885.44C606.761 879.568 612.269 873.697 617.777 867.825C618.026 867.56 618.288 867.267 618.327 866.906C618.359 866.605 618.228 866.313 618.102 866.038C614.467 858.143 611.117 850.028 607.165 842.287C603.723 835.545 595.165 841.126 589.724 843.394Z" fill="#783B73"/>
<path d="M619.601 867.109C619.276 868.245 618.871 869.529 617.798 870.024C617.048 870.37 616.166 870.22 615.381 869.968C611.588 868.752 608.837 865.436 606.928 861.94C603.263 855.229 601.95 847.262 603.27 839.731C603.503 838.403 604.109 836.811 605.451 836.675C606.294 836.59 607.045 837.148 607.796 837.541C610.219 838.809 613.267 838.416 615.655 837.083C618.043 835.75 619.864 833.596 621.403 831.335C622.569 829.621 623.826 827.657 625.856 827.235C626.881 827.022 627.945 827.253 628.952 827.542C631.679 828.325 639.569 831.065 640.056 834.495C640.442 837.212 633.683 841.942 631.909 844.052C626.26 850.767 622.012 858.668 619.601 867.109Z" fill="#EDEDED"/>
<path d="M614.071 848.297C620.353 843.062 623.002 833.59 627.626 827.238C627.035 827.143 626.439 827.112 625.855 827.233C623.825 827.655 622.568 829.619 621.402 831.333C619.863 833.594 618.041 835.748 615.653 837.081C613.265 838.414 610.218 838.807 607.795 837.539C607.044 837.146 606.293 836.588 605.449 836.674C604.108 836.81 603.502 838.402 603.269 839.73C603.016 841.174 602.89 842.636 602.828 844.1C605.615 847.949 608.927 850.869 614.071 848.297Z" fill="#DEDDE0"/>
<path d="M249.082 866.237C245.392 864.549 243.046 860.936 240.255 857.991C232.676 849.991 220.944 846.628 210.005 847.958C199.066 849.288 188.948 854.921 180.908 862.458C167.282 875.232 159.183 895.486 165.459 913.077C168.084 920.434 173.819 927.361 181.542 928.525C188.932 929.639 196.117 925.237 201.237 919.793C206.357 914.349 210.156 907.754 215.422 902.452C225.647 892.156 241.34 887.635 255.476 890.911C257.916 891.477 260.405 892.263 262.876 891.856C265.337 891.451 267.447 889.913 269.379 888.335C274.733 883.962 292.781 863.956 283.588 856.683C275.229 850.069 260.292 871.364 249.082 866.237Z" fill="#783B73"/>
<path d="M648.61 682.168C647.574 686.335 647.437 690.666 647.304 694.958C647.272 695.988 647.249 697.06 647.679 697.996C648.473 699.725 650.527 700.446 652.399 700.784C659.328 702.036 666.74 700.348 672.442 696.217C673.092 695.746 673.733 695.231 674.156 694.55C674.58 693.867 674.757 693.062 674.891 692.269C675.605 688.079 675.346 683.726 674.139 679.65C673.709 678.2 673.141 676.749 672.134 675.621C670.769 674.092 668.764 673.327 666.833 672.64C657.021 669.151 651.207 671.722 648.61 682.168Z" fill="#783B73"/>
<path d="M563.543 741.24C573.384 721.031 582.659 700.545 591.352 679.815C593.03 675.813 594.89 671.553 598.554 669.228C604.154 665.675 611.513 668.016 617.519 670.829C623.525 673.642 630.149 676.934 636.479 674.955C639.835 673.905 643.196 671.402 646.504 672.593C649.589 673.704 650.766 677.607 650.248 680.845C656.863 676.808 664.893 675.147 672.567 676.229C668.249 669.213 657.709 669.138 651.928 663.269C649.589 660.894 648.009 657.558 644.944 656.246C642.872 655.359 640.518 655.592 638.271 655.772C628.497 656.555 618.218 655.922 609.663 651.13C607.038 649.66 604.442 647.764 601.435 647.674C599.353 647.612 597.359 648.439 595.441 649.252C592.548 650.477 589.656 651.702 586.763 652.927C585.555 653.439 584.323 653.966 583.347 654.844C580.854 657.088 580.715 660.858 579.729 664.064C577.724 670.579 571.971 675.077 566.922 679.657C555.955 689.607 547.06 701.831 540.968 715.328C540.246 716.929 539.554 718.58 539.391 720.328C539.183 722.551 539.842 724.754 540.494 726.89C542.582 733.734 544.729 742.005 549.551 747.525C555.628 754.485 560.537 747.415 563.543 741.24Z" fill="#C5BECC"/>
<path d="M375.365 575.231C363.076 602.646 354.258 632.037 350.953 661.855C352.794 668.487 354.973 675.016 357.523 681.382C364.72 699.347 374.479 716.426 378.935 735.259C394.382 729.701 409.83 724.143 425.277 718.586C414.438 684.772 403.503 648.751 412.279 614.343C418.507 589.928 434.141 568.985 451.351 550.581C460.132 541.19 469.976 532.092 481.137 525.589C490.385 520.201 513.169 520.002 519.193 514.793C526.476 508.496 525.301 496.977 527.398 486.678C464.206 472.842 399.109 519.265 375.365 575.231Z" fill="#602163"/>
<path d="M544.477 467.674C511.755 450.122 472.221 450.344 437.53 463.81C434.535 464.973 430.524 482.099 430.524 482.099C430.524 482.099 422.397 470.644 419.351 472.335C403.753 480.996 389.746 492.507 378.61 506.372C344.334 549.048 336.259 608.924 350.957 661.855C354.261 632.037 363.08 602.645 375.369 575.231C399.113 519.264 464.209 472.842 527.402 486.678C529.067 478.497 532.796 471.085 544.477 467.674Z" fill="url(#paint0_linear_606_3720)"/>
<path d="M271.554 1207.37C271.771 1211.01 271.763 1217.44 274.336 1219.12C276.909 1220.8 279.779 1221.54 282.629 1222.02C291.034 1223.43 305.802 1221.83 313.957 1218.99C313.829 1211.64 307.428 1197.18 302.746 1193.77C299.937 1191.73 290.587 1191.16 286.489 1191.77C279.486 1192.8 270.701 1193.07 271.554 1207.37Z" fill="#602163"/>
<path d="M252.918 915.317C240.383 938.569 247.599 966.958 253.423 992.723C259.247 1018.49 262.194 1048.91 244.054 1068.11C239.974 1072.43 234.747 1076.35 233.554 1082.17C232.288 1088.35 236.032 1094.29 239.118 1099.79C248.758 1116.96 253.25 1136.98 251.871 1156.63C251.458 1162.51 250.801 1169.24 254.862 1173.51C256.818 1175.57 259.56 1176.66 261.892 1178.29C267.442 1182.15 270.185 1189.39 269.208 1196.03C268.872 1198.31 271.14 1200.13 273.316 1199.36C282.523 1196.09 292.311 1194.47 302.08 1194.6C305.074 1189.93 297.928 1185.75 293.13 1182.97C283.155 1177.18 279.62 1164.74 276.95 1153.52C273.038 1137.07 269.098 1120.32 270.218 1103.45C273.206 1058.46 310.359 1023.88 327.096 982.012C331.658 970.599 334.721 958.555 340.4 947.655C347.656 933.729 359.149 922.048 372.956 914.567C374.705 913.619 376.626 912.594 377.383 910.754C378.14 908.914 376.699 906.223 374.767 906.698L252.918 915.317Z" fill="#C5BECC"/>
<path d="M454.645 656.995C469.171 659.69 487.388 655.531 492.22 641.57C495.945 630.809 490.098 619.346 484.822 609.255C480.712 601.395 476.865 592.211 477.898 583.789C465.794 572.788 458.334 557.175 460.836 540.371C462.926 526.331 473.305 513.195 487.198 510.286C491.158 509.457 495.199 509.46 499.242 509.808C495.753 508.049 491.645 507.384 487.686 507.325C464.789 506.984 444.714 523.096 431.125 541.528C420.154 556.409 411.975 573.289 406.631 590.988C404.413 598.332 402.69 605.91 401.789 613.541C410.881 635.434 431.238 652.651 454.645 656.995Z" fill="#EDEDED"/>
<path d="M507.38 663.842C518.54 657.642 522.044 645.489 519.648 633.216C507.704 620.629 493.769 609.309 490.96 592.907C486.239 590.428 481.824 587.356 477.899 583.79C476.866 592.211 480.713 601.395 484.823 609.256C490.099 619.347 495.946 630.81 492.221 641.571C487.389 655.532 469.172 659.691 454.646 656.996C431.239 652.652 410.882 635.435 401.79 613.544C400.686 622.896 400.822 632.327 402.845 641.508C405.014 651.356 409.287 660.612 414.316 669.368C443.249 682.332 479.4 680.873 507.38 663.842Z" fill="#DEDDE0"/>
<path d="M530.164 646.036C527.315 641.389 523.507 637.286 519.645 633.216C522.041 645.49 518.537 657.642 507.376 663.842C479.396 680.873 443.246 682.332 414.312 669.367C414.724 670.082 415.129 670.801 415.549 671.509C427.136 691.04 443.071 709.07 464.186 717.428C484.525 725.479 519.566 737.523 536.875 723.543C553.95 709.752 547.253 673.915 530.164 646.036Z" fill="#C5BECC"/>
<path d="M581.898 595.741C578.509 591.188 571.424 594.102 565.752 593.904C558.45 593.648 552.54 587.532 545.32 586.412C541.026 585.746 536.689 586.91 532.369 587.376C520.594 588.646 508.341 584.408 499.866 576.135C497.888 574.204 495.974 572 493.525 570.834C491.205 577.508 489.826 584.279 490.712 591.348C490.777 591.875 490.866 592.391 490.955 592.907C502.938 599.2 516.898 601.628 529.893 598.248C533.968 597.188 538.058 595.603 542.247 596.025C545.457 596.348 548.415 597.826 551.447 598.931C560.254 602.14 566.47 602.272 571.392 600.936C574.45 600.106 576.524 606.458 578.203 607.698C579.407 608.587 580.892 608.95 582.538 608.932C582.975 606.647 583.234 604.327 583.297 602.001C583.355 599.821 583.2 597.489 581.898 595.741Z" fill="#DEDDE0"/>
<path d="M606.352 565.155C603.383 559.871 596.566 556.308 591.066 558.853C572.418 554.149 555.756 542.01 545.561 525.703C543.693 522.714 541.946 519.495 539.08 517.444C536.18 515.368 532.513 514.762 528.989 514.212C522.18 513.149 515.371 512.087 508.562 511.025C505.479 510.544 502.359 510.076 499.241 509.808C500.659 510.523 501.985 511.4 503.141 512.519C508.191 517.408 509.005 525.281 507.926 532.228C505.835 545.681 497.961 558.08 493.527 570.833C495.976 571.999 497.89 574.202 499.868 576.134C508.343 584.407 520.597 588.645 532.372 587.375C536.692 586.909 541.029 585.745 545.323 586.411C552.543 587.531 558.452 593.648 565.754 593.903C571.426 594.101 578.511 591.187 581.9 595.74C583.201 597.488 583.357 599.82 583.297 601.999C583.234 604.325 582.976 606.645 582.539 608.93C590.836 608.844 603.298 598.901 605.396 595.781C607.911 592.043 608.549 587.378 608.891 582.885C609.35 576.843 609.321 570.44 606.352 565.155Z" fill="#EDEDED"/>
<path d="M493.528 570.834C493.091 570.626 492.643 570.441 492.169 570.307C487.388 568.962 482.39 572.472 480.044 576.849C478.855 579.068 478.191 581.4 477.898 583.789C481.822 587.356 486.237 590.427 490.959 592.906C490.87 592.39 490.781 591.874 490.716 591.347C489.829 584.278 491.208 577.507 493.528 570.834Z" fill="#DEDDE0"/>
<path d="M487.196 510.287C473.302 513.196 462.924 526.332 460.834 540.372C458.332 557.176 465.792 572.789 477.896 583.79C478.189 581.4 478.853 579.068 480.042 576.85C482.389 572.473 487.386 568.963 492.167 570.308C492.641 570.442 493.089 570.627 493.526 570.835C497.96 558.082 505.833 545.683 507.924 532.23C509.004 525.284 508.19 517.411 503.139 512.521C501.983 511.402 500.657 510.524 499.239 509.81C495.198 509.461 491.157 509.458 487.196 510.287Z" fill="#EDEDED"/>
<path d="M506.683 468.464C506.275 466.563 503.59 466.371 502.869 468.177C502.039 470.255 501.312 472.442 500.822 474.209C497.86 484.904 486.8 485.116 478.171 497.398C477.861 500.312 477.914 503.333 478.443 506.512C481.787 514.871 494.396 520.125 499.141 509.444C498.405 507.278 497.604 505.13 497.306 502.869C496.408 496.068 501.423 490.39 504.408 484.214C506.669 479.533 507.791 473.624 506.683 468.464Z" fill="#EDEDED"/>
<path d="M478.442 506.513C477.912 503.334 477.859 500.313 478.17 497.399C477.25 498.709 476.357 500.154 475.504 501.766C463.077 525.273 504.921 531.072 500.004 512.237C499.758 511.296 499.456 510.369 499.142 509.445C494.396 520.126 481.786 514.872 478.442 506.513Z" fill="#DEDDE0"/>
<path d="M603.683 573.346C603.806 574.45 602.333 575.162 601.254 574.892C600.15 574.622 599.291 573.788 598.309 573.248C596.125 572.07 593.131 572.169 591.684 570.181C590.236 568.193 591.512 565.028 593.818 564.169C596.125 563.31 598.849 564.414 600.37 566.353C601.892 568.291 603.708 570.868 603.683 573.346Z" fill="#362544"/>
<path d="M384.272 1219.5C384.489 1223.13 384.483 1229.57 387.056 1231.25C389.629 1232.93 392.499 1233.67 395.349 1234.15C403.754 1235.56 418.521 1233.96 426.677 1231.12C426.548 1223.77 420.146 1209.3 415.465 1205.9C412.656 1203.85 403.307 1203.29 399.209 1203.89C392.206 1204.92 383.419 1205.2 384.272 1219.5Z" fill="#783B73"/>
<path d="M391.923 948.454L392.932 948.125C360.293 927.674 323.525 914.334 308.456 880.848C302.434 865.793 311.442 849.486 310.458 834.011C301.437 838.782 292.383 843.496 283.577 848.484C276.498 852.494 269.398 856.832 264.189 863.081C259.054 869.24 256.075 876.872 253.329 884.406C246.131 904.158 239.87 924.781 240.77 945.785C241.044 952.191 242.02 958.678 244.785 964.464C249.447 974.222 258.572 980.907 266.584 988.169C269.725 991.015 273.417 994.243 277.378 997.781C314.533 977.745 355.177 957.737 396.545 953.909C395.207 951.953 393.686 950.113 391.923 948.454Z" fill="#EDEDED"/>
<path d="M400.525 999.635C401.28 997.126 401.944 994.589 402.471 992.01C405.111 979.088 403.85 964.561 396.546 953.908C355.178 957.735 314.533 977.743 277.379 997.78C286.497 1005.92 297.045 1015.74 305.683 1026.45C330.648 1004.15 367.172 994.232 400.525 999.635Z" fill="#DEDDE0"/>
<path d="M400.526 999.635C367.173 994.232 330.65 1004.15 305.684 1026.45C311.222 1033.31 315.981 1040.54 319.053 1047.94C324.677 1062.83 333.473 1085.12 328.741 1104.99C327.214 1111.4 329.642 1118.12 334.845 1122.17C338.369 1124.91 342.165 1128.18 344.822 1132.03C358.071 1151.22 358.493 1161.41 364.447 1182.88C366.503 1190.3 373.929 1193.69 381.311 1191.51C386.922 1189.85 383.728 1206.12 387.771 1207.61C392.017 1209.17 405.927 1206.34 410.396 1207.04C417.982 1208.23 410.344 1197.77 405.854 1191.54C398.399 1181.19 390.802 1180.89 384.153 1170.01C373.666 1152.84 365.937 1116.77 363.81 1096.77C361.684 1076.76 373.755 1059.69 385.63 1035.6C390.674 1023.64 396.804 1012.01 400.526 999.635Z" fill="#EDEDED"/>
<path d="M368.132 1181.04C364.515 1155.72 351.857 1134.02 341.007 1112.32C330.156 1092.43 351.858 1063.49 335.583 1045.41C330.072 1038.52 320.364 1032.69 312.055 1035.1C314.844 1039.3 317.246 1043.59 319.054 1047.94C324.678 1062.83 333.474 1085.12 328.742 1104.99C327.215 1111.41 329.643 1118.12 334.846 1122.17C338.37 1124.91 342.167 1128.18 344.824 1132.03C357.655 1150.61 358.47 1160.79 363.916 1180.91C363.914 1180.91 365.645 1191.54 368.132 1181.04Z" fill="#DEDDE0"/>
<path d="M398.874 1202.74C400.031 1194.64 392.306 1192.47 383.75 1192.42C385.02 1194.39 385.079 1198.83 385.548 1202.42C391.532 1202.83 397.449 1205.59 398.874 1202.74Z" fill="#DEDDE0"/>
<path d="M436.853 792.237C442.726 788.811 448.331 787.385 453.673 787.395C427.922 778.174 400.184 784.031 373.421 791.424C355.898 809.379 333.705 821.704 311.242 833.596C352.994 863.294 399.013 816.317 436.853 792.237Z" fill="#DEDDE0"/>
<path d="M473.02 797.662C466.735 793.092 460.268 789.757 453.672 787.395C448.33 787.385 442.724 788.811 436.852 792.237C399.012 816.317 352.993 863.294 311.241 833.596C310.98 833.734 310.72 833.873 310.46 834.011C311.334 847.759 304.346 862.162 306.993 875.762C309.244 873.652 312.931 872.695 315.691 873.615C357.284 906.166 413.343 895.315 458.553 875.423C485.679 862.764 503.762 819.363 473.02 797.662Z" fill="#EDEDED"/>
<path d="M548.296 787.256C544.93 781.548 540.169 776.816 535.461 772.152C527.945 764.706 520.428 757.259 512.718 750.014C506.165 743.856 499.365 737.77 491.327 733.737C480.789 728.449 468.726 727.004 456.935 726.953C430.525 726.838 403.17 733.919 383.484 751.526C373.968 760.037 366.6 770.633 359.325 781.123L376.713 787.926C375.636 789.117 374.536 790.28 373.419 791.423C407.037 782.136 442.198 775.246 473.019 797.661C503.761 819.362 485.678 862.763 458.552 875.421C413.343 895.313 357.283 906.163 315.69 873.613C312.93 872.693 309.243 873.651 306.992 875.76C307.325 877.468 307.784 879.166 308.457 880.846C323.525 914.332 360.293 927.672 392.933 948.123L419.351 939.507C432.004 925.431 449.2 914.438 468.091 913.267C476.062 912.773 484.279 913.997 491.908 911.634C501.951 908.523 509.087 899.84 515.606 891.592C532.407 870.336 549.815 847.715 553.647 820.893C555.284 809.437 554.174 797.225 548.296 787.256Z" fill="#DEDDE0"/>
<path d="M133.169 886.81C115.181 908.364 108.72 939.881 119.68 965.727C128.247 985.932 146.071 1000.94 165.396 1011.34C197.607 1028.68 236.682 1034.94 271.454 1023.59C292.694 1016.65 311.333 1003.69 330.757 992.641C350.181 981.596 371.678 972.151 393.987 973.404C416.296 974.657 439.162 989.579 442.878 1011.61C444.513 1021.31 441.658 1032.49 433.362 1037.77C425.067 1043.06 411.506 1038.9 410.008 1029.18C401.494 1036.18 405.382 1051.35 414.867 1056.97C424.352 1062.59 438.976 1063.99 449.506 1060.72C468.081 1054.96 484.474 1038.23 485.266 1018.79C485.888 1003.53 475.441 987.147 463.521 977.597C429.299 950.181 380.367 944.785 338.895 959.027C324.422 963.997 310.871 971.49 296.188 975.803C275.917 981.757 252.354 980.824 235.693 967.831C219.033 954.838 205.862 918.327 219.742 902.4C229.281 891.455 252.091 894.75 246.29 877.582C242.83 867.342 230.359 848.891 219.742 848.01C179.608 844.68 150.179 866.427 133.169 886.81Z" fill="#783B73"/>
<path d="M187.366 942.017C191.967 960.687 205.959 976.787 223.805 983.947C259.506 998.269 298.273 976.997 334.487 964.027C366.169 952.68 402.361 947.878 432.832 962.16C463.304 976.442 483.827 1014.76 469.625 1045.27C461.57 1062.57 446.512 1071.49 427.556 1073.71C408.6 1075.93 392.034 1060.72 394.101 1053.09C385.963 1065.57 396.362 1088.63 424.128 1092.51C445.312 1095.46 467.12 1088.87 485.272 1077.55C502.939 1066.54 517.918 1050.03 523.464 1029.97C529.009 1009.9 523.656 986.284 507.511 973.141C523.378 978.044 540.216 991.881 534.732 1014.94C565.308 981.34 546.677 943.256 525.21 928.699C469.246 890.753 413.612 910.956 366.14 931.217C326.786 948.014 308.998 956.635 266.214 957.276C250.839 957.506 231.995 953.967 227.142 939.377C219.727 917.084 224.729 895.445 246.809 889.555C260.223 885.977 210.354 876.328 201.764 886.491C190.082 900.309 183.176 925.014 187.366 942.017Z" fill="url(#paint1_linear_606_3720)"/>
<path d="M301.943 945.6C316.888 937.149 330.634 926.498 346.361 919.611C362.088 912.724 384.164 910.296 399.412 918.187C375.501 929.17 350.502 944.194 326.658 955.321C302.814 966.448 275.45 973.29 250.171 965.987C238.891 962.728 227.894 956.155 222.653 945.649C215.003 930.311 217.776 904.023 233.3 896.76C226.415 904.609 225.194 915.788 227.078 926.057C233.912 963.274 278.378 958.924 301.943 945.6Z" fill="#C3A2D6"/>
<path d="M465.769 682.378C431.659 692.619 400.668 662.587 382.861 631.744C358.97 590.363 354.06 538.505 369.76 493.376C376.921 472.792 388.28 451.182 381.654 430.419C378.628 420.936 372.121 413.005 365.491 405.58C324.404 359.559 273.526 323.456 229.03 280.722C184.534 237.988 145.101 185.411 137.002 124.251C108.702 168.156 99.2718 223.793 111.523 274.572C103.449 266.165 88.2798 269.148 80.6488 277.959C73.0188 286.77 66.8568 305.247 66.7848 316.903C66.6198 343.906 70.4019 367.538 91.8109 388.209C72.7579 382.85 60.1889 405.997 64.0719 425.406C67.9549 444.814 79.9167 459.629 95.1497 472.267C77.2337 469.049 63.6487 491.815 68.2657 509.422C72.8827 527.029 83.9637 540.359 102.869 550.267C88.7767 558.202 86.4559 577.859 91.4879 593.228C98.4319 614.435 121.036 624.327 121.036 624.327C113.148 644.727 131.886 679.483 184 684.137C188.696 701.327 202.054 715.91 218.766 722.093C215.708 731.556 216.075 742.44 220.964 751.1C229.538 766.286 251.239 770.807 251.239 770.807C251.239 770.807 260.222 787.505 272.035 799.741C284.198 812.34 317.499 825.107 336.936 824.117C371.109 822.377 398.845 797.096 423.4 773.267C438.338 758.771 453.275 744.274 468.213 729.778C481.557 739.241 501.738 737.293 513.026 725.453L465.769 682.378Z" fill="#EDEDED"/>
<path d="M326.54 434.178C348.241 483.004 324.732 537.256 333.773 591.507C344.624 651.184 409.725 707.243 467.593 685.543C469.542 684.708 471.465 683.804 473.376 682.871L465.766 679.999C431.656 690.24 400.665 662.587 382.858 631.745C358.967 590.364 354.057 538.506 369.757 493.377C376.918 472.793 388.277 451.183 381.651 430.42C378.625 420.937 372.118 413.006 365.488 405.581C324.4 359.56 273.522 323.457 229.027 280.723C209.567 262.033 191.076 241.461 175.75 219.112C181.496 242.111 199.486 262.818 214.419 280.467C256.013 329.292 299.415 376.309 326.54 434.178Z" fill="#EDEDED"/>
<path d="M473.377 682.87C471.466 683.803 469.544 684.707 467.594 685.542C459.937 688.413 452.152 689.911 444.384 690.231C436.225 695.553 427.708 700.149 418.768 703.626C357.283 727.135 279.522 698.201 259.63 629.482C241.547 560.763 259.63 493.853 257.822 425.135C257.822 410.668 256.013 394.392 252.397 379.925C237.05 335.421 209.991 300.029 195.517 257.18C186.769 245.386 179.135 232.649 175.752 219.11C156.035 190.357 141.558 158.662 137.001 124.25C108.701 168.155 99.2709 223.792 111.522 274.571C103.448 266.164 88.2788 269.147 80.6488 277.958C73.0178 286.77 66.8568 305.246 66.7848 316.902C66.6198 343.905 70.4019 367.537 91.8109 388.208C72.7569 382.849 60.1889 405.996 64.0719 425.405C67.9549 444.813 79.9168 459.628 95.1498 472.266C77.2338 469.049 63.6488 491.814 68.2658 509.421C72.8828 527.029 83.9638 540.358 102.868 550.267C88.7768 558.202 86.4549 577.859 91.4869 593.227C98.4299 614.434 121.035 624.327 121.035 624.327C113.147 644.726 131.885 679.483 183.999 684.137C188.695 701.326 202.053 715.91 218.765 722.092C215.707 731.555 216.074 742.439 220.963 751.099C229.537 766.285 251.237 770.806 251.237 770.806C251.237 770.806 260.221 787.504 272.033 799.74C284.197 812.339 317.497 825.106 336.934 824.116C371.107 822.376 398.844 797.095 423.399 773.266C438.337 758.769 453.274 744.273 468.212 729.777C481.556 739.24 501.737 737.293 513.025 725.453L473.377 682.87Z" fill="#EDEDED"/>
<path d="M254.016 767.263C249.078 774.556 249.436 785.023 254.862 791.962C260.288 798.9 270.361 801.771 278.629 798.735C278.776 807.527 281.672 816.934 288.876 821.977C296.08 827.02 308.049 825.231 311.259 817.045C313.62 827.199 323.356 835.147 333.777 835.427C344.198 835.707 354.347 828.296 357.252 818.284C365.437 824.071 377.106 824.418 385.621 819.128C394.136 813.838 398.995 803.222 397.433 793.321C403.917 798.141 413.811 797.62 419.753 792.146C425.695 786.672 427.024 776.854 422.75 769.997C432.158 774.301 444.573 770.096 449.429 760.96C451.388 757.274 444.981 751.106 441.96 748.225C438.939 745.344 434.738 744.11 430.667 743.19C413.383 739.282 395.484 739.307 377.763 739.35C360.219 739.393 342.675 739.436 325.131 739.479C302.817 739.535 266.526 748.787 254.016 767.263Z" fill="#EDEDED"/>
<path opacity="0.45" d="M264.294 453.752C233.202 425.193 196.24 396.464 173.878 360.654C160.486 339.21 150.657 315.774 140.887 292.455C133.111 273.895 125.334 255.336 117.558 236.776C105.676 332.938 143.958 439.089 220.894 497.989C160.058 469.457 122.993 406.836 84.5835 351.702C94.3625 443.555 148.097 529.739 226.271 578.947C171.101 552.718 126.523 508.994 83.0625 466.066C122.151 551.508 191.553 604.185 232.032 610.789C182.088 593.701 136.086 572.06 96.8584 536.739C141.882 614.527 192.101 635.131 253.225 647.657C204.595 649.521 161.995 627.766 118.96 605.041C172.999 676.292 217.79 675.708 281.582 677.583C244.341 683.337 209.024 687.35 173 676.292C215.425 713.237 247.508 713.758 285.811 705.028C268.302 717.86 247.062 725.536 225.396 726.862C257.181 746.759 292.28 729.967 306.974 710.763C299.826 730.926 283.329 748.14 264.911 759.019C299.847 758.459 313.55 747.947 323.578 727.973C324.738 752.822 317.832 764.081 301.233 789.76C325.426 780.279 338.683 770.381 340.691 745.64C346.145 763.958 341.508 782.857 331.491 801.825C354.232 790.485 360.139 778.671 364.521 757.234C370.591 772.442 365.84 796.959 356.13 810.143C401.621 778.399 403.192 729.049 399.41 705.835C328.527 709.228 260.003 671.052 244.157 601.88C240.444 585.668 239.468 568.344 244.998 552.658C250.528 536.972 263.474 523.258 279.801 520.076C299.519 516.235 313.906 528.684 331.353 533.646C329.006 505.218 283.212 471.128 264.294 453.752Z" fill="white"/>
<path d="M568.862 804.896C592.371 803.088 586.945 765.112 595.987 759.687C624.921 743.412 610.454 810.322 632.154 826.597C635.354 828.73 640.441 828.963 645.559 827.694C645.344 824.365 644.318 820.855 643.103 817.811C634.626 796.565 622.757 774.789 626.529 752.228C627.185 748.301 628.317 744.304 627.517 740.403C626.408 734.992 621.875 731.034 617.477 727.691C615.051 725.847 612.44 723.999 609.416 723.619C603.134 722.831 598.12 728.374 593.662 732.869C582.465 744.157 567.947 751.468 555.397 761.23C542.847 770.992 529.609 771.491 529.776 787.389L487.828 770.353C499.186 784.032 507.755 800.019 512.857 817.051C515.546 826.028 518.977 837.018 528.166 838.853C537.239 840.666 544.577 832.088 550.937 825.368C556.522 819.466 563.02 814.262 569.488 809.076C569.715 807.735 569.59 806.353 568.862 804.896Z" fill="#EDEDED"/>
<path d="M608.648 737.985C618.148 747.486 617.946 761.144 626.246 768.038C625.648 762.808 625.645 757.539 626.533 752.226C626.852 750.314 627.281 748.386 627.548 746.46C620.448 751.933 616.695 736.376 608.648 737.985Z" fill="#DEDDE0"/>
<path d="M632.156 826.596C610.455 810.321 624.922 743.411 595.988 759.686C586.946 765.111 592.371 803.087 568.863 804.895C569.591 806.352 569.717 807.734 569.492 809.074C581.819 799.192 594.038 789.377 599.63 774.937C600.584 772.474 601.378 769.824 603.247 767.959C605.117 766.093 608.523 765.429 610.311 767.373C611.194 768.332 611.485 769.679 611.742 770.957C614.322 783.769 616.902 796.581 619.482 809.394C620.331 813.608 621.144 818.168 619.308 822.055C618.586 823.582 617.46 824.997 617.346 826.682C617.165 829.345 619.508 831.42 621.631 833.037C627.586 837.573 636 842.177 641.916 837.591C644.949 835.24 645.813 831.591 645.561 827.694C640.443 828.963 635.356 828.729 632.156 826.596Z" fill="#EDEDED"/>
<path d="M645.562 827.693C640.443 828.963 635.356 828.729 632.157 826.596C610.456 810.321 624.924 743.411 595.99 759.686C588.596 764.123 590.868 790.32 579.086 800.711C579.186 800.785 579.282 800.864 579.382 800.936C587.966 793.513 595.559 785.454 599.631 774.938C600.585 772.475 601.378 769.825 603.247 767.96C605.117 766.094 608.523 765.43 610.311 767.374C611.194 768.333 611.485 769.68 611.742 770.958C614.322 783.77 616.903 796.582 619.483 809.395C620.332 813.609 621.144 818.169 619.308 822.056C618.586 823.583 617.46 824.998 617.346 826.683C617.165 829.346 619.509 831.421 621.632 833.038C627.587 837.574 636 842.178 641.916 837.592C644.95 835.24 645.813 831.59 645.562 827.693Z" fill="#DEDDE0"/>
<path d="M467.594 674.692C486.799 682.378 503.535 697.299 513.958 699.038C538.961 703.209 548.229 717.382 550.814 721.547C557.317 732.024 565.072 734.34 564.254 746.644C563.477 758.327 563.113 763.038 557.09 773.078C549.97 784.946 536.467 792.016 522.75 793.85C509.032 795.683 495.08 792.841 481.938 788.501C471.145 784.937 460.634 780.325 451.196 773.99C427.508 758.09 412.754 730.776 409.925 702.64C409.129 694.72 395.776 652.65 403.454 659.575C414.312 669.367 422.947 670.6 428.07 671.175C442.604 672.805 459.368 671.401 467.594 674.692Z" fill="#EDEDED"/>
<path d="M257.82 425.136C259.628 493.854 241.545 560.764 259.628 629.483C279.52 698.202 357.282 727.136 418.767 703.627C427.707 700.15 436.223 695.555 444.382 690.232C393.444 692.331 343.186 643.287 333.772 591.507C324.73 537.256 348.24 483.004 326.54 434.178C299.415 376.31 256.012 329.292 214.419 280.466C208.276 273.207 201.627 265.422 195.516 257.181C209.99 300.03 237.05 335.423 252.396 379.926C256.012 394.393 257.82 410.669 257.82 425.136Z" fill="#DEDDE0"/>
<path opacity="0.6" d="M436.096 632.232C425.93 624.43 421.524 611.113 420.443 598.344C419.132 582.858 422.008 566.908 429.487 553.284C436.966 539.66 449.151 528.503 463.726 523.107C469.121 521.109 476.339 520.441 479.549 525.215C482.195 529.148 480.462 534.455 478.382 538.715C474.862 545.924 470.53 552.747 467.57 560.203C458.722 582.494 464.912 603.196 467.048 625.813C469.165 648.218 449.658 642.639 436.096 632.232Z" fill="white"/>
<path d="M388.453 509.411C390.426 516.923 393.093 524.254 396.406 531.279C397.912 534.473 408.076 548.003 400.947 549.572C389.781 552.03 388.453 515.555 388.453 509.411Z" fill="#602163"/>
<path d="M409.16 507.32C410.572 511.859 412.404 516.268 414.622 520.473C415.63 522.385 422.216 530.379 417.9 531.533C411.14 533.342 409.328 511.077 409.16 507.32Z" fill="#602163"/>
<path opacity="0.31" d="M418.501 876.65C443.191 870.537 466.55 851.588 469.628 826.339C470.453 819.573 469.567 812.096 464.917 807.113C458.906 800.673 448.416 800.512 440.329 804.006C432.243 807.5 425.827 813.871 419.068 819.519C400.46 835.068 377.909 845.86 354.127 850.597C349.595 851.499 344.91 852.226 340.908 854.535C321.558 865.702 344.27 875.259 354.403 876.532C375.819 879.223 397.203 881.923 418.501 876.65Z" fill="white"/>
<path d="M130.835 944.803C126.921 968.006 135.818 992.884 152.25 1009.73C168.682 1026.57 194.341 1034.54 216.93 1027.95C194.883 1026.51 170.638 1009.95 160.775 990.177C150.911 970.407 149.621 954.729 152.951 932.887C155.199 918.143 164.675 897.722 174.623 886.369C176.592 884.12 138.471 899.534 130.835 944.803Z" fill="#C3A2D6"/>
<path d="M511 984.305C524.358 1003.69 524.345 1031.34 510.969 1050.71C524.834 1035.59 530.616 1013.45 525.913 993.476C521.21 973.503 506.16 956.267 487.003 948.916C467.846 941.565 445.129 944.308 428.273 956.008C456.981 948.327 493.846 959.412 511 984.305Z" fill="#783B73"/>
<path d="M436.095 552.402C432.295 555.386 429.542 559.678 428.412 564.375C427.627 567.641 428.062 571.855 431.119 573.249C433.374 574.278 436.141 573.185 437.794 571.338C439.447 569.491 440.24 567.052 440.989 564.69C441.787 562.174 442.596 559.569 442.314 556.944C442.033 554.321 440.682 549.691 436.095 552.402Z" fill="white"/>
<path d="M501.402 509.031C501.687 504.967 501.039 500.853 501.644 496.824C502.333 492.235 504.598 488.054 506.015 483.636C507.015 480.519 507.535 477.021 506.818 473.898C506.529 472.638 504.745 472.625 504.417 473.875C502.896 479.672 500.28 485.181 496.736 490.015C494.675 492.826 492.273 495.469 490.994 498.712C488.829 504.206 490.163 511.101 492.839 516.212C496.827 523.829 501.115 513.132 501.402 509.031Z" fill="#C5BECC"/>
<path opacity="0.45" d="M494.713 563.907C497.132 570.225 502.518 575.128 508.682 577.916C514.846 580.704 521.741 581.541 528.504 581.397C534.189 581.276 540.105 580.393 544.754 577.118C549.403 573.844 552.366 567.638 550.412 562.297C548.295 556.514 541.741 553.929 535.966 551.791C529.63 549.445 523.389 546.844 517.261 543.997C512.568 541.816 507.386 538.053 502.221 537.135C490.158 534.99 492.229 557.418 494.713 563.907Z" fill="white"/>
<path opacity="0.6" d="M487.868 496.847C489.402 494.49 491.633 492.653 493.183 490.307C493.43 489.934 493.661 489.444 493.424 489.065C493.237 488.765 492.838 488.683 492.486 488.689C491.1 488.71 489.904 489.614 488.831 490.491C487.241 491.79 485.678 493.122 484.143 494.485C481.918 496.459 479.66 498.643 478.827 501.498C477.949 504.506 481.329 514.705 485.498 510.957C487.061 509.552 485.689 505.956 485.707 504.223C485.734 501.624 486.445 499.033 487.868 496.847Z" fill="white"/>
<path opacity="0.6" d="M511.351 534.704C511.702 535.658 512.875 535.985 513.888 536.065C517.604 536.36 521.419 535.052 524.173 532.54C525.452 531.373 526.515 529.959 527.942 528.978C529.555 527.869 531.522 527.395 533.464 527.149C533.979 527.084 534.529 527.019 534.927 526.686C535.813 525.944 535.357 524.491 534.672 523.561C532.219 520.232 527.548 518.745 523.613 520.013C522.639 520.327 521.703 520.799 520.957 521.5C519.719 522.663 519.115 524.335 518.151 525.734C516.568 528.031 509.961 530.932 511.351 534.704Z" fill="white"/>
<path d="M525.175 531.136C526.582 529.815 527.77 528.244 529.358 527.147C530.946 526.049 533.135 525.509 534.797 526.489C536.251 527.345 536.894 529.077 537.943 530.399C539.622 532.517 542.411 533.644 543.761 535.985C543.98 536.364 544.159 536.799 544.086 537.231C543.935 538.118 542.817 538.497 541.931 538.343C541.044 538.189 540.242 537.695 539.352 537.559C536.684 537.15 534.554 539.956 531.879 540.318C528.348 540.796 525.623 536.996 522.1 536.465C520.325 536.197 516.365 537.876 515.457 535.687C519.044 534.632 522.319 533.816 525.175 531.136Z" fill="#362544"/>
<path d="M200.405 265.094C200.021 265.581 197.378 269.052 198.37 273.458C199.254 277.382 202.662 280.453 206.96 281.144C206.585 281.728 203.438 286.828 205.604 292.672C207.305 297.264 211.618 300.514 216.681 301.036C212.95 306.052 212.96 312.703 216.455 317.085C220.512 322.172 227.232 321.655 227.756 321.606C223.864 325.973 223.264 332.278 226.173 336.977C228.643 340.967 233.292 343.234 238.153 342.854C232.762 348.768 232.227 357.228 236.346 362.746C240.932 368.892 249.091 368.44 249.683 368.397C243.351 373.161 240.917 381.368 243.579 388.289C245.79 394.039 251.218 398.122 257.594 398.913C251.562 402.478 247.985 409.107 248.326 416.093C248.671 423.148 252.956 429.446 259.401 432.368C252.169 435.794 247.565 443.058 247.648 450.904C247.767 462.258 257.629 468.074 258.045 468.31C256.934 468.93 248.188 474.009 246.518 484.585C245.246 492.64 248.554 500.856 255.106 506.06C246.542 509.369 240.934 517.633 241.091 526.63C241.237 535.024 246.378 542.649 254.203 546.07C244.49 550.016 238.687 559.814 239.961 569.579C241.041 577.86 247.054 584.918 255.333 587.663C244.074 593.88 239.443 606.81 243.579 616.823C246.624 624.196 254.132 629.281 262.793 630.16C254.632 638.337 253.925 650.909 260.306 658.868C265.402 665.225 274.391 667.858 282.911 665.423C277.674 674.261 279.811 685.495 287.432 691.419C294.216 696.692 304.085 696.778 311.393 691.419C310.687 699.321 315.316 706.671 322.469 709.277C328.883 711.614 336.247 709.743 341.004 704.53C343.251 711.217 349.243 715.81 355.923 716.059C364.527 716.379 369.598 709.317 369.939 708.825C370.245 709.479 373.012 715.146 378.981 716.285C384.718 717.38 391.014 713.834 393.673 707.469C395.106 710.169 397.79 711.928 400.681 711.99C404.365 712.069 407.819 709.381 408.818 705.435C397.963 706.324 379.516 706.374 358.861 698.654C327.591 686.966 310.713 664.738 303.707 655.253C279.415 622.366 276.638 587.154 274.999 562.347C272.055 517.777 284.309 515.248 282.006 462.208C281.227 444.263 279.808 416.329 268.218 382.639C259.987 358.712 249.931 341.488 237.927 320.928C224.123 297.281 210.714 278.505 200.405 265.094Z" fill="#DEDDE0"/>
<path opacity="0.31" d="M270.107 938.39C264.728 934.782 262.745 927.852 261.971 921.421C259.971 904.802 263.554 887.561 272.01 873.115C273.74 870.16 275.73 867.253 278.526 865.277C281.322 863.301 285.082 862.398 288.239 863.722C293.084 865.755 294.595 871.726 295.785 876.843C297.651 884.863 300.232 892.717 303.487 900.28C307.623 909.889 316.243 923.176 306.208 931.714C298.092 938.62 279.715 944.834 270.107 938.39Z" fill="white"/>
<path opacity="0.31" d="M401.856 1225.44C404.994 1229.6 410.527 1232.16 415.566 1230.84C417.253 1230.39 418.937 1229.43 419.624 1227.83C420.021 1226.9 420.044 1225.86 420.061 1224.85C420.1 1222.49 420.131 1220.09 419.408 1217.84C418.12 1213.84 414.524 1210.87 410.548 1209.5C397.761 1205.1 394.926 1216.26 401.856 1225.44Z" fill="white"/>
<path opacity="0.31" d="M587.93 872.122C590.04 876.885 594.847 880.634 600.055 880.492C601.799 880.444 603.657 879.89 604.691 878.485C605.289 877.672 605.547 876.665 605.793 875.686C606.366 873.398 606.944 871.061 606.751 868.71C606.407 864.519 603.579 860.816 600.019 858.577C588.567 851.377 583.27 861.601 587.93 872.122Z" fill="white"/>
<path opacity="0.6" d="M503.205 781.545C505.441 781.627 507.775 781.656 509.758 782.694C513.872 784.849 514.777 790.195 515.656 794.755C517.087 802.177 519.704 809.37 523.379 815.975C526.693 821.932 532.53 828.091 539.173 826.559C541.59 826.002 543.657 824.471 545.549 822.868C552.598 816.897 558.31 809.356 562.149 800.952C555.645 805.789 547.875 810.894 540.048 808.786C533.238 806.951 528.957 800.148 526.818 793.428C524.678 786.708 523.966 779.503 520.89 773.156C520.33 772 519.638 770.823 518.512 770.207C517.292 769.539 515.811 769.658 514.427 769.795C497.751 771.443 482.138 770.656 465.766 768.884C471.787 780.027 491.997 781.136 503.205 781.545Z" fill="white"/>
<path opacity="0.6" d="M621.938 741.873C619.406 743.049 616.097 742.253 614.379 740.047L615.699 740.228C612.336 739.215 609.37 736.955 607.453 734.007C606.097 731.909 605.464 728.708 607.453 727.171C608.9 726.05 610.997 726.448 612.679 727.207C618.267 729.703 622.082 735.743 621.938 741.873Z" fill="white"/>
<path d="M564.255 755.101C556.333 756.716 551.001 764.395 548.712 772.149C546.422 779.903 546.332 788.153 544.306 795.98C539.203 791.526 538.021 783.817 539.635 777.239C541.249 770.661 545.177 764.928 549.031 759.358C553.826 752.426 558.621 745.495 563.416 738.563C563.296 744.188 563.177 749.813 563.057 755.438L564.255 755.101Z" fill="#DEDDE0"/>
<defs>
<linearGradient id="paint0_linear_606_3720" x1="343.953" y1="557.963" x2="544.476" y2="557.963" gradientUnits="userSpaceOnUse">
<stop stop-color="#783B73"/>
<stop offset="0.0483" stop-color="#7B407A"/>
<stop offset="0.2614" stop-color="#855292"/>
<stop offset="0.4845" stop-color="#8D5FA4"/>
<stop offset="0.7223" stop-color="#9267AF"/>
<stop offset="1" stop-color="#9369B2"/>
</linearGradient>
<linearGradient id="paint1_linear_606_3720" x1="227.432" y1="893.433" x2="556.766" y2="1050.06" gradientUnits="userSpaceOnUse">
<stop stop-color="#783B73"/>
<stop offset="0.0483" stop-color="#7B407A"/>
<stop offset="0.2614" stop-color="#855292"/>
<stop offset="0.4845" stop-color="#8D5FA4"/>
<stop offset="0.7223" stop-color="#9267AF"/>
<stop offset="1" stop-color="#9369B2"/>
</linearGradient>
</defs>
</svg>
