<svg width="666" height="879" viewBox="0 0 666 879" fill="none" xmlns="http://www.w3.org/2000/svg">
<path d="M413.259 549.283C409.271 549.957 405.481 551.47 401.725 552.972C400.825 553.332 399.89 553.716 399.243 554.44C398.05 555.776 398.201 557.821 398.614 559.564C400.142 566.017 404.391 571.78 410.105 575.148C410.756 575.532 411.442 575.892 412.189 576C412.939 576.109 413.7 575.958 414.435 575.776C418.321 574.815 421.982 572.952 425.046 570.375C426.137 569.458 427.175 568.422 427.769 567.127C428.574 565.372 428.481 563.354 428.346 561.428C427.664 551.643 423.255 547.593 413.259 549.283Z" fill="#2D1200"/>
<path d="M330.228 498.087C351.381 498.974 372.56 499.266 393.729 498.965C397.816 498.906 396.583 503.239 399.969 505.526C405.146 509.022 409.668 511.566 409.501 517.81C409.333 524.055 408.986 531.013 413.078 535.732C415.249 538.234 418.679 540.639 418.896 543.944C419.098 547.026 416.25 548.511 413.26 549.283C419.236 553.474 425.452 560.698 427.408 567.731C431.838 561.361 431.912 558.381 432.82 548.91C433.119 545.784 434.28 539.498 434.258 536.358C434.243 534.236 433.156 532.29 432.154 530.418C427.797 522.275 427.733 511.635 428.649 502.446C428.93 499.626 429.589 496.671 428.534 494.042C427.804 492.221 426.339 490.811 424.915 489.462C422.768 487.425 420.622 485.39 418.474 483.354C417.577 482.503 413.399 483.164 412.274 482.653C409.398 481.346 406.091 482.645 402.951 483.001C396.571 483.724 390.523 480.451 384.668 477.817C371.948 472.094 358.045 469.019 344.099 468.842C342.444 468.821 340.758 468.845 339.187 469.363C337.189 470.02 335.536 471.418 333.937 472.786C328.814 477.166 322.483 482.134 319.533 488.376C315.814 496.243 323.765 497.816 330.228 498.087Z" fill="#512101"/>
<path d="M564.867 184.571C564.114 184.13 563.402 183.543 563.059 182.742C562.87 182.3 562.803 181.816 562.737 181.34C562.443 179.183 562.149 177.026 561.855 174.869C561.808 174.519 561.763 174.149 561.902 173.824C562.138 173.279 562.782 173.073 563.304 172.788C564.789 171.98 565.491 170.28 566.299 168.796C567.106 167.311 568.406 165.783 570.095 165.854C572.079 165.936 573.227 168.1 573.848 169.987C574.821 172.941 577.581 180.281 575.76 183.217C573.81 186.36 567.521 186.125 564.867 184.571Z" fill="#FCC78D"/>
<path d="M340.19 109.589C338.579 97.5121 330.071 85.4376 317.989 83.8582C309.989 82.8123 298.482 84.2543 297.008 76.3221C296.652 74.4064 297.155 72.4334 297.021 70.4895C296.561 63.8109 288.83 59.8818 282.14 60.1177C270.215 60.5394 260.527 69.2755 250.829 76.227C241.131 83.1785 227.924 88.7399 217.688 82.608C214.239 80.5418 211.591 77.3548 208.237 75.1371C200.396 69.9517 189.606 70.935 181.465 75.6372C173.324 80.3393 167.455 88.1703 162.833 96.357C170.561 87.5664 182.763 78.0107 192.553 84.4242C197.395 87.5954 199.342 93.6014 202.574 98.4022C206.861 104.772 213.861 109.249 221.441 110.47C220.127 115.608 214.05 117.996 208.747 117.994C203.444 117.992 198.153 116.423 192.898 117.133C171.403 120.04 163.508 157.708 137.873 144.469C133.283 142.099 129.369 138.581 126.34 134.398C120.347 126.122 104.787 118.568 97.3125 127.183C126.218 141.985 111.468 150.946 126.193 162.926C135.386 170.305 149.524 169.019 162.564 163.389C174.276 158.33 187.942 160.204 198.008 168.042C202.061 171.197 206.4 173.906 211.177 175.843C223.184 180.714 238.796 179.265 246.698 168.997C250.536 164.01 252.139 157.609 255.855 152.532C264.267 141.037 280.889 139.41 294.936 141.771C305.525 143.55 327.107 153.297 336.061 145.369C341.485 140.566 341.039 115.946 340.19 109.589Z" fill="#703210"/>
<path d="M368.317 161.89C376.746 162.321 384.878 164.951 393.024 167.149C396.573 168.106 405.262 170.862 408.862 170.118C428.097 166.144 450.836 169.016 465.639 179.227C465.708 179.104 460.209 179.348 460.282 179.227L465.933 216.392C454.032 220.447 443.373 224.635 428.837 226.004C406.858 228.076 392.843 228.083 388.561 240.565C386.538 246.461 353.396 236.771 347.933 233.767C345.411 232.382 343.527 230.077 341.93 227.686C326.12 204.003 334.442 160.15 368.317 161.89Z" fill="#FCC78D"/>
<path d="M499.966 172.209C502.684 172.179 505.562 172.233 508.493 172.39C514.97 172.642 521.834 173.236 528.633 173.656C530.794 173.826 532.942 173.923 535.092 174.021C548.012 174.529 563.625 173.247 571.244 167.76C578.846 177.102 572.947 175.875 574.441 177.623C573.865 183.454 551.279 189.9 533.519 198.221C531.95 198.987 530.374 199.718 528.792 200.412C520.742 204.127 513.209 207.392 508.087 209.647C504.098 211.388 501.559 212.53 501.383 212.815C501.167 213.071 500.939 213.255 500.758 213.505C486.805 217.576 475.587 213.447 465.942 216.389L460.055 179.588C471.379 176.782 491.748 172.346 499.966 172.209Z" fill="#FCC78D"/>
<path d="M344.832 281.5C358.181 273.514 374.499 269.669 384.313 256.755C382.993 259.699 381.41 262.526 379.552 265.17L380.203 265.624C382.937 276.941 384.982 288.415 386.476 299.963C377.992 285.389 366.346 275.817 344.832 281.5Z" fill="#FCC78D"/>
<path d="M358.096 279.871C355.515 279.76 354.785 276.295 357.125 275.198C367.206 270.472 377.38 265.874 384.311 256.754C382.991 259.698 381.408 262.525 379.55 265.169L380.201 265.623C382.935 276.94 384.98 288.414 386.474 299.962C379.926 288.714 371.494 280.446 358.096 279.871Z" fill="#FAAD72"/>
<path d="M280.681 360.473C280.471 356.446 280.094 352.288 279.191 348.333C283.57 326.43 297.846 303.591 321.444 296.278C304.083 302.733 305.086 332.002 316.994 337.454C339.676 350.93 372.766 349.997 387.565 321.537C387.519 328.539 388.622 346.049 387.565 353.847L280.692 361.013C280.685 360.833 280.688 360.651 280.681 360.473Z" fill="#FAAD72"/>
<path d="M216.049 272.695C227.528 252.465 255.505 266.383 277.026 262.941C303.563 255.617 294.233 233.42 299.313 214.18C314.947 202.876 328.345 187.786 336.58 171.092C345.072 170.71 353.486 169.702 361.552 167.124C366.867 165.416 373.456 172.847 378.891 171.519C383.084 170.501 387.444 169.172 391.744 169.464C404.797 170.344 409.9 176.825 401.593 186.933L389.034 202.215C389.06 209.116 389.107 216.012 389.153 222.909C389.199 231.681 389.244 240.573 387.049 249.046C386.367 251.696 385.431 254.266 384.312 256.756C374.498 269.67 358.181 273.516 344.832 281.502C366.346 275.817 377.992 285.391 386.476 299.964C387.043 304.347 387.627 312.215 387.566 321.537C372.769 349.998 339.677 350.931 316.997 337.455C305.089 332.003 304.085 302.734 321.446 296.278C297.848 303.592 283.572 326.431 279.194 348.334C278.238 344.141 276.69 340.181 274.079 336.865C273.159 335.694 271.653 335.181 270.621 334.105C251.283 313.922 229.502 301.665 213.018 281.422C212.684 278.079 213.544 275.013 216.049 272.695Z" fill="#FCC78D"/>
<path d="M179.372 234.937C179.681 230.637 181.332 226.578 183.814 223.028C201.965 244.983 237.836 243.302 265.608 231.157C277.283 227.69 288.8 221.783 299.315 214.18C294.234 233.42 303.565 255.618 277.027 262.941C255.506 266.383 227.53 252.466 216.051 272.695C213.546 275.013 212.686 278.079 213.018 281.422C211.743 279.857 210.492 278.257 209.284 276.589C204.803 270.421 193.624 270.949 189.816 264.364C187.18 259.811 184.754 255.136 182.735 250.279C180.732 245.463 178.997 240.197 179.372 234.937Z" fill="#FAAD72"/>
<path d="M356.479 344.995C362.667 343.824 368.595 341.43 373.878 337.638C376.876 339.592 378.462 342.803 380.025 345.122L350.191 349.895C352.215 348.241 354.309 346.607 356.479 344.995Z" fill="#FAAD72"/>
<path d="M373.88 337.638C368.597 341.43 362.668 343.824 356.48 344.995C360.615 341.925 364.936 338.914 369.603 336.042C371.308 336.288 372.701 336.868 373.88 337.638Z" fill="#FCC78D"/>
<path d="M173.494 247.328C232.535 240.389 250.921 331.418 322.664 284.177C328.136 286.342 323.861 294.454 319.626 298.541C308.643 309.141 304.438 323.611 302.346 338.731C301.343 345.98 301.535 351.72 300.458 357.852L279.299 361.236C280.688 354.84 279.364 347.584 274.911 339.741C271.87 334.384 276.15 333.618 236.251 309.905C202.308 289.731 219.666 273.838 174.029 259.87C154.483 253.889 148.311 250.287 173.494 247.328Z" fill="#FAAD72"/>
<path d="M282.263 283.393C282.675 285.97 285.098 287.724 287.675 287.312C290.252 286.9 292.006 284.478 291.594 281.901C291.182 279.324 288.759 277.569 286.182 277.981C283.606 278.393 281.851 280.817 282.263 283.393Z" fill="#FAAD72"/>
<path d="M223.754 231.784C237.256 232.687 250.946 232.244 264.327 231.519C250.462 235.424 236.453 235.895 223.754 231.784Z" fill="#FCC78D"/>
<path d="M251.681 152.88C241.249 139.274 236.692 112.799 251.64 100.612C267.36 87.7947 293.5 88.446 310.227 98.434C329.232 109.781 339.98 133.233 336.866 155.147C336.165 160.077 334.654 165.07 332.209 169.4C321.229 170.333 304.024 165.758 298.492 152.803C289.324 158.288 282.804 166.616 275.576 171.782C266.342 167.12 257.94 161.042 251.681 152.88Z" fill="#FCC78D"/>
<path d="M332.21 169.4C329.95 173.403 326.897 176.843 322.877 179.084C313.742 184.177 302.358 181.929 292.423 178.655C286.695 176.767 280.995 174.516 275.578 171.781C282.806 166.615 289.327 158.287 298.493 152.802C304.026 165.758 321.23 170.333 332.21 169.4Z" fill="#FCC78D"/>
<path d="M233.459 219.633C232.958 218.971 232.898 218.237 233.038 216.819C233.379 213.34 238.209 212.813 241.674 213.284C254.973 215.091 268.274 216.898 281.573 218.705C266.053 224.709 249.797 223.233 233.459 219.633Z" fill="#FAAD72"/>
<path d="M377.484 319.49C377.804 321.489 371.848 326.157 368.742 327.709C367.249 328.455 365.21 329.507 364.075 330.731C359.107 336.091 364.634 341.348 361.895 348.123C361.452 344.786 360.984 342.144 359.529 339.11C358.073 336.074 355.43 333.411 352.116 332.817C350.179 332.469 348.019 332.296 346.059 332.476C340.074 333.026 330.26 331.73 330.966 329.555C337.269 329.573 342.207 328.918 346.057 327.504C354.185 324.518 352.324 318.678 351.498 313.426C355.72 312.624 356.588 322.321 360.754 323.16C367.863 324.591 375.619 320.422 377.484 319.49Z" fill="#FAAD72"/>
<path d="M364.118 300.063C364.26 301.611 360.15 305.036 357.692 306.066C356.511 306.561 354.896 307.262 353.964 308.141C349.886 311.991 355.626 316.848 351.425 321.192C349.4 322.464 349.987 317.622 349.027 315.223C348.068 312.824 347.191 311.619 344.685 310.995C343.22 310.63 341.575 310.386 340.065 310.424C335.454 310.539 327.021 307.785 338.947 306.368C347.117 305.396 344.703 296.336 343.523 294.545C346.797 294.147 348.216 301.702 351.304 302.754C353.111 303.367 362.642 300.682 364.118 300.063Z" fill="#FAAD72"/>
<path d="M369.204 220.616C372.688 219.792 376.883 219.524 379.322 222.147C380.396 223.302 380.938 224.849 381.319 226.38C384.058 237.409 379.472 249.439 371.36 257.397C363.247 265.356 352.088 269.624 340.849 271.309C337.502 271.811 333.879 272.055 330.929 270.395C318.608 263.463 332.085 246.296 337.487 239.399C345.228 229.517 357 223.502 369.204 220.616Z" fill="#FFD4A9"/>
<path d="M371.806 255.375C372.218 257.952 374.641 259.707 377.218 259.295C379.795 258.883 381.549 256.46 381.137 253.883C380.725 251.306 378.303 249.552 375.726 249.964C373.149 250.376 371.393 252.799 371.806 255.375Z" fill="#FAAD72"/>
<path d="M162.34 236.283C164.468 229.679 166.614 223.059 170.001 217.037C178.686 222.027 187.837 225.501 197.281 227.836C188.17 234.872 176.571 238.404 162.34 236.283Z" fill="#FCC78D"/>
<path d="M214.506 205.111C221.661 208.417 228.237 213.489 233.251 219.588C225.465 217.864 217.665 215.681 209.918 213.603C211.608 210.919 213.151 208.087 214.506 205.111Z" fill="#FAAD72"/>
<path d="M237.97 197.218C243.884 196.051 247.722 195.698 248.799 195.319C248.954 195.265 249.053 195.209 249.092 195.151C254.76 186.683 266.342 176.628 262.217 164.048C262.217 164.048 262.217 164.048 262.217 164.047L318.982 171.28C321.156 171.3 323.342 171.3 325.526 171.298C327.149 171.297 328.769 171.267 330.393 171.241C332.458 171.209 334.523 171.184 336.583 171.091C322.607 199.424 306.87 223.605 277.389 231.906C273.728 233.365 266.243 237.149 260.546 235.052C247.018 238.684 236.087 235.791 223.706 231.771C214.765 231.163 205.908 229.968 197.285 227.836C196.466 227.635 195.662 227.373 194.848 227.153L213.86 204.333C223.614 200.497 231.898 198.416 237.97 197.218Z" fill="#FAAD72"/>
<path d="M287.531 334.097C288.308 335.977 295.496 336.811 298.789 336.492C300.372 336.339 302.55 336.158 304.093 336.603C310.846 338.553 309.13 345.978 314.828 350.32C313.459 347.231 312.469 344.725 312.069 341.357C311.668 337.991 312.412 334.312 314.761 332.047C316.136 330.723 317.779 329.43 319.443 328.545C324.526 325.843 331.727 319.534 330.038 318.048C324.992 321.405 320.694 323.462 316.875 324.293C308.815 326.048 307.29 320.067 305.238 315.139C301.438 316.691 305.752 325.443 302.844 328.368C297.884 333.36 289.509 333.906 287.531 334.097Z" fill="#FAAD72"/>
<path d="M285.113 311.209C285.798 312.608 290.865 313.359 293.368 312.938C294.571 312.735 296.228 312.478 297.43 312.736C302.689 313.866 300.595 321.062 306.209 322.55C308.489 322.564 305.518 318.735 305.049 316.175C304.579 313.615 304.659 312.12 306.347 310.258C307.333 309.169 308.526 308.089 309.757 307.321C313.514 304.975 318.854 298.151 308.558 303.259C301.503 306.759 298.758 297.732 298.78 295.575C295.948 296.97 298.714 304.183 296.78 306.718C295.648 308.201 286.616 310.956 285.113 311.209Z" fill="#FAAD72"/>
<path d="M446.38 200.899C451.237 199.971 456.77 197.734 457.855 192.908C458.537 189.881 457.158 186.749 455.316 184.252C448.624 175.182 436.159 172.031 424.956 173.277C418.101 174.04 411.332 176.192 404.452 175.695C393.628 174.913 384.167 167.717 373.405 166.32C367.621 165.569 360.579 167.399 358.672 172.91C357.218 177.115 359.5 181.884 362.967 184.673C366.434 187.462 370.856 188.709 375.146 189.889C395.845 195.586 424.631 207.372 446.38 200.899Z" fill="#FFD4A9"/>
<path d="M267.509 143.577C266.671 151.75 270.424 159.804 270.06 168.012C269.535 179.872 259.222 190.504 247.384 191.387C237.827 192.101 228.87 187.274 220.085 183.443C202.043 175.576 178.602 172.463 164.648 186.347C162.955 188.031 161.412 189.959 159.283 191.041C153.656 193.903 145.959 187.773 147.49 181.648C148.916 185.073 154.24 184.785 156.925 182.224C159.611 179.663 160.644 175.872 162.471 172.643C165.983 166.434 172.829 162.249 179.956 161.953C194.803 161.337 209.941 175.962 222.785 168.49C233.723 162.126 231.813 146.127 235.618 134.058C238.869 123.746 259.195 100.337 272.169 104.039C291.92 109.671 268.689 132.059 267.509 143.577Z" fill="#5B270C"/>
<path d="M238.167 101.877C247.866 90.809 263.038 85.4174 277.752 85.6798C292.466 85.9421 306.725 91.3907 319.258 99.1047C329.466 105.387 333.067 120.553 335.299 132.33C330.907 127.067 326.777 125.36 321.258 120.157C315.74 114.955 310.062 108.531 302.48 108.343C301.484 108.318 300.473 108.411 299.543 108.766C297.423 109.574 296.043 111.581 294.763 113.453C283.503 129.927 270.938 153.116 255.053 165.193C220.548 191.424 224.678 117.271 238.167 101.877Z" fill="#703210"/>
<path d="M331.619 190.55C330.704 194.162 329.77 197.819 327.962 201.076C325.697 205.154 322.192 208.376 318.748 211.522C311.403 218.231 300.339 225.207 292.505 219.076C299.095 217.732 304.499 211.853 305.283 205.173C302.215 208.871 297.796 211.422 293.059 212.232C292.15 208.695 292.086 204.945 292.873 201.38C289.345 201.738 285.817 202.097 282.29 202.456C281.175 197.833 281.828 192.808 284.087 188.622C275.8 188.979 266.239 176.489 266.074 168.196C265.909 159.904 267.344 152.938 262.551 146.169C265.095 145.868 269.01 140.951 271.555 140.649C270.089 146.372 273.735 158.877 279.102 161.346C284.468 163.815 299.506 157.695 309.002 153.164C321.656 147.126 327.328 154.999 335.27 148.962C344.793 141.723 334.232 180.237 331.619 190.55Z" fill="#703210"/>
<path d="M310.708 170.376C312.105 170.731 316.024 170.097 317.443 169.75C319.216 169.317 321.023 168.873 322.831 168.427C324.111 168.129 325.416 167.785 326.493 167.019C327.559 166.22 328.317 164.874 327.985 163.604C327.6 161.969 325.749 161.196 324.112 160.926C322.464 160.622 321.113 160.449 319.82 159.403C319.82 159.403 318.08 158.072 315.603 159.075C314.445 159.543 314.297 160.4 313.561 161.394C312.114 163.35 309.502 164.447 308.855 165.56C308.555 166.128 308.221 166.708 308.14 167.354C307.992 168.792 309.312 170.021 310.708 170.376Z" fill="#FCC78D"/>
<path d="M307.418 141.797C305.841 139.272 303.408 137.13 300.481 136.587C297.816 136.093 295.076 136.955 292.374 136.742C289.741 136.534 286.783 135.393 284.676 136.985C287.367 140.058 290.944 142.345 294.862 143.497C296.808 144.07 298.847 144.375 300.682 145.239C303.781 146.697 306.055 149.785 306.527 153.177C306.525 153.161 310.717 152.967 310.927 151.934C311.281 150.199 308.278 143.173 307.418 141.797Z" fill="#FAAD72"/>
<path d="M321.559 142.404C322.863 140.643 325.023 139.791 326.904 138.68C328.791 137.601 330.639 135.855 330.598 133.701C330.013 133.423 329.397 132.948 329.397 132.948C326.898 132.099 323.891 132.918 322.189 134.945C320.493 137.005 320.248 140.116 321.559 142.404Z" fill="#FAAD72"/>
<path d="M401.984 215.118C407.168 212.354 414.841 216.684 420.258 218.956C423.555 220.338 437.07 221.756 435.854 223.872C434.1 226.922 410.68 228.207 407.215 228.811C399.947 230.077 396.39 234.853 389.823 237.342C389.483 229.951 395.365 218.646 401.984 215.118Z" fill="#FAAD72"/>
<path d="M195.796 208.21C196.939 208.274 198.1 208.362 199.217 208.111C200.377 207.851 201.421 207.24 202.464 206.671C212.313 201.293 223.816 198.995 234.975 200.176C236.444 200.331 237.95 200.559 239.228 201.301C240.54 202.062 241.497 203.296 242.419 204.498C245.122 208.021 247.856 211.595 249.554 215.697C253.768 225.87 250.411 238.657 241.744 245.449C234.083 251.454 223.795 252.561 214.101 253.443C207.676 254.028 201.221 254.612 194.782 254.201C182.218 253.399 170.236 248.854 158.477 244.359C153.687 242.527 148.657 240.525 145.478 236.501C136.862 225.594 151.831 219.205 159.798 215.401C170.954 210.077 183.445 207.525 195.796 208.21Z" fill="#FAAD72"/>
<path d="M440.895 17.716C440.556 20.2163 440.217 22.7166 439.878 25.2169C443.73 25.8772 447.581 26.5366 451.432 27.1969C454.146 21.448 456.859 15.6982 459.573 9.94838C452.109 6.63198 444.645 3.31641 437.181 0C432.592 5.16785 428.004 10.3348 423.414 15.5027C423.876 22.6461 425.676 34.858 433.316 47.1807C442.436 61.8884 454.97 69.8022 464.805 74.6549C478.701 81.5113 483.688 82.4771 498.122 90.3477C514.459 99.2563 525.387 109.161 530.362 115.024C550.937 139.271 555.761 166.276 558.402 180.827C564.832 179.85 573.192 179.073 579.621 178.096C577.212 165.514 570.604 144.613 556.441 123.032C547.016 108.671 525.542 84.6701 489.839 70.5073C472.466 63.6157 470.247 64.2293 464.06 60.9878C458.045 57.836 448.832 52.8856 441.112 42.755C433.588 32.8807 430.875 22.5379 429.825 15.6753C433.249 12.9487 436.672 10.223 440.096 7.49648C442.598 9.14632 445.1 10.7953 447.602 12.4451C447.362 14.4418 447.124 16.4376 446.884 18.4335C444.887 18.1931 442.892 17.9546 440.895 17.716Z" fill="#934B1B"/>
<path d="M571.101 238.976C573.28 232.6 574.947 226.281 576.22 220.189L557.311 223.064C555.681 232.728 552.803 242.998 547.836 253.223C545.622 257.781 541.292 264.702 534.734 272.513L555.01 270.223C563.254 258.256 568.332 247.082 571.101 238.976Z" fill="#AF5427"/>
<path d="M534.733 272.513C531.341 276.553 527.388 280.819 522.749 285.146C510.727 296.362 506.139 298.538 494.387 308.637C486.07 315.784 475.899 326.569 470.726 343.083C466.393 356.92 467.689 369.195 469.019 376.229C474.75 380.092 480.481 383.954 486.211 387.817C492.615 382.747 499.019 377.679 505.423 372.609C501.364 367.716 497.305 362.822 493.246 357.93C489.679 359.528 486.114 361.125 482.547 362.723C483.498 365.059 484.449 367.398 485.4 369.734C487.274 369.006 489.148 368.278 491.021 367.549C491.75 369.422 492.478 371.296 493.206 373.17C491.193 375.39 489.181 377.611 487.167 379.831C483.173 378.042 479.18 376.254 475.185 374.465C474.493 367.558 474.548 356.864 479.378 345.428C484.333 333.695 492.024 326.608 497.066 322.058C502.251 317.379 504.553 317.421 519.664 306.422C535.234 295.09 546.72 282.255 555.008 270.222L534.733 272.513Z" fill="#934B1B"/>
<path d="M579.625 178.096C573.155 178.751 564.876 180.171 558.406 180.825C559.089 190.303 560.243 205.692 557.312 223.064L576.221 220.189C579.827 202.942 580.213 187.545 579.625 178.096Z" fill="#934B1B"/>
<path d="M468.759 376.602L267.16 235.69L267.423 235.318L423.045 15.2405L423.786 15.7643L268.428 235.469L469.28 375.857L468.759 376.602Z" fill="#934B1B"/>
<path d="M588.126 172.631C588.275 174.092 588.362 175.681 587.581 176.998C586.768 178.37 585.222 179.103 583.781 179.745C582.523 180.304 581.002 180.849 579.946 180.106C577.039 178.061 577.591 166.62 579.573 163.413C585.981 153.044 587.645 167.875 588.126 172.631Z" fill="#FCC78D"/>
<path d="M258.306 236.017L626.215 177.146L625.45 172.364L257.541 231.235L258.306 236.017Z" fill="#A55E37"/>
<path d="M626.007 164.408L665.354 167.726L618.352 175.244L626.007 164.408Z" fill="#E6E6E6"/>
<path d="M629.082 183.637L617.781 175.584L618.351 175.244L665.354 167.726L666.002 167.871L629.082 183.637Z" fill="#D8D8D8"/>
<path d="M253.149 232.402C255.812 231.603 258.6 231.323 261.367 231.047C263.012 230.884 264.76 230.737 266.239 231.476C267.718 232.215 268.699 234.197 267.792 235.58C266.798 237.096 264.566 236.833 262.779 237.138C262.079 237.257 261.404 237.488 260.729 237.712C257.003 238.944 253.197 239.938 249.345 240.688C248.838 240.786 248.32 240.881 247.808 240.814C245.697 240.541 245.469 238.097 246.232 236.588C247.316 234.446 251.043 233.034 253.149 232.402Z" fill="#FCC78D"/>
<path d="M252.622 225.536C255.286 224.736 258.074 224.456 260.841 224.181C262.486 224.017 264.234 223.87 265.712 224.61C267.191 225.348 268.173 227.331 267.266 228.713C266.271 230.229 264.039 229.967 262.251 230.271C261.551 230.39 260.876 230.622 260.202 230.845C256.475 232.076 252.67 233.071 248.818 233.82C248.311 233.919 247.793 234.014 247.28 233.947C245.169 233.673 244.941 231.229 245.705 229.72C246.79 227.58 250.516 226.168 252.622 225.536Z" fill="#FCC78D"/>
<path d="M150.641 219.891C147.321 218.369 143.94 216.828 140.32 216.341C131.465 215.15 123.148 220.355 115.731 225.335C112.037 227.816 108.271 230.363 105.583 233.909C102.894 237.455 101.431 242.246 102.927 246.437C104.428 250.637 108.432 253.318 111.336 256.703C113.09 258.748 114.464 261.092 116.185 263.165C123.642 272.15 136.658 274.767 148.198 272.981C159.737 271.196 170.322 265.747 180.974 260.963C191.626 256.179 206.401 252.217 218.046 253.061C225.636 253.611 228.923 254.506 236.516 255.011C241.536 255.346 247.25 256.216 252.028 254.64C256.024 253.321 260.307 250.657 260.675 246.465C260.89 244.015 259.673 241.671 259.426 239.224C259.173 236.712 259.917 233.998 258.762 231.753C256.963 228.255 249.375 225.509 246.459 228.15C243.856 230.507 233.754 235.28 231.914 235.82C224.946 237.867 201.75 236.651 186.567 232.132C175.909 228.961 160.724 224.515 150.641 219.891Z" fill="#FCC78D"/>
<path d="M447.782 510.408C445.761 511.25 443.656 512.154 442.265 513.846C441.138 515.216 440.597 516.972 440.241 518.71C437.699 531.123 444.319 544.838 455.619 550.57C456.131 550.83 456.697 551.082 457.261 550.973C457.821 550.864 458.25 550.426 458.64 550.01C463.828 544.481 469.015 538.95 474.203 533.419C474.437 533.169 474.684 532.895 474.721 532.554C474.751 532.271 474.629 531.996 474.509 531.737C471.086 524.3 467.93 516.657 464.209 509.367C460.967 503.015 452.907 508.271 447.782 510.408Z" fill="#2D1200"/>
<path d="M475.922 532.744C475.617 533.814 475.236 535.024 474.225 535.49C473.519 535.816 472.689 535.675 471.948 535.438C468.376 534.292 465.784 531.169 463.986 527.876C460.534 521.555 459.299 514.051 460.542 506.957C460.761 505.706 461.332 504.206 462.595 504.078C463.389 503.998 464.097 504.524 464.805 504.893C467.088 506.087 469.957 505.718 472.206 504.462C474.456 503.207 476.172 501.177 477.621 499.048C478.72 497.434 479.904 495.583 481.815 495.186C482.781 494.986 483.782 495.204 484.73 495.476C487.298 496.214 494.73 498.794 495.189 502.024C495.552 504.583 489.186 509.038 487.516 511.026C482.195 517.352 478.193 524.794 475.922 532.744Z" fill="#844215"/>
<path d="M470.717 515.026C476.634 510.094 479.129 501.173 483.485 495.19C482.928 495.101 482.367 495.071 481.817 495.186C479.905 495.583 478.721 497.433 477.623 499.047C476.174 501.177 474.457 503.205 472.209 504.462C469.96 505.718 467.09 506.088 464.807 504.893C464.1 504.523 463.392 503.998 462.597 504.078C461.333 504.206 460.764 505.706 460.544 506.957C460.306 508.317 460.187 509.694 460.129 511.073C462.752 514.698 465.873 517.447 470.717 515.026Z" fill="#703210"/>
<path d="M126.936 531.923C123.461 530.333 121.252 526.93 118.624 524.156C111.485 516.621 100.435 513.453 90.1312 514.706C79.8272 515.959 70.2969 521.264 62.7247 528.362C49.8905 540.394 42.2619 559.471 48.1728 576.04C50.6449 582.969 56.047 589.493 63.3216 590.59C70.2819 591.638 77.0503 587.493 81.8731 582.365C86.6958 577.238 90.2737 571.026 95.2338 566.031C104.864 556.334 119.644 552.075 132.958 555.161C135.257 555.694 137.601 556.434 139.928 556.051C142.246 555.669 144.233 554.221 146.053 552.735C151.096 548.617 168.096 529.773 159.438 522.923C151.563 516.695 137.495 536.752 126.936 531.923Z" fill="#E8E8E8"/>
<path d="M148.105 853.23C148.309 856.653 148.303 862.715 150.726 864.298C153.149 865.881 155.853 866.58 158.538 867.031C166.454 868.36 180.363 866.851 188.045 864.174C187.924 857.255 181.894 843.63 177.485 840.422C174.84 838.497 166.033 837.965 162.173 838.533C155.577 839.503 147.301 839.76 148.105 853.23Z" fill="#2D1200"/>
<path d="M130.556 578.151C118.75 600.051 125.547 626.79 131.032 651.058C136.517 675.326 139.291 703.98 122.207 722.065C118.364 726.134 113.44 729.828 112.316 735.311C111.123 741.128 114.651 746.726 117.557 751.904C126.637 768.08 130.868 786.937 129.569 805.44C129.18 810.982 128.562 817.312 132.387 821.342C134.229 823.282 136.812 824.309 139.008 825.837C144.236 829.475 146.819 836.3 145.899 842.547C145.582 844.698 147.718 846.411 149.768 845.684C158.44 842.609 167.659 841.076 176.86 841.202C179.68 836.802 172.949 832.869 168.429 830.246C159.034 824.791 155.703 813.079 153.189 802.51C149.504 787.019 145.793 771.244 146.849 755.355C149.663 712.978 184.656 680.406 200.421 640.97C204.718 630.221 207.604 618.877 212.953 608.61C219.787 595.494 230.613 584.491 243.617 577.445C245.264 576.553 247.073 575.587 247.786 573.855C248.499 572.122 247.142 569.587 245.323 570.034L130.556 578.151Z" fill="#512101"/>
<path d="M394.38 337.638C391.697 333.262 391.144 318.972 387.507 315.139C389.763 326.699 380.737 335.452 370.226 341.291C343.872 357.333 309.822 358.707 282.57 346.495C282.958 347.169 283.34 347.846 283.735 348.513C294.648 366.91 309.656 383.892 329.545 391.763C348.702 399.346 381.707 410.69 398.009 397.523C414.092 384.533 410.476 363.897 394.38 337.638Z" fill="#703210"/>
<path d="M254.273 864.651C254.477 868.075 254.471 874.137 256.894 875.72C259.317 877.303 262.02 878.002 264.706 878.452C272.622 879.782 286.531 878.274 294.213 875.597C294.091 868.678 288.062 855.052 283.653 851.844C281.008 849.919 272.201 849.388 268.341 849.955C261.744 850.926 253.469 851.182 254.273 864.651Z" fill="#2D1200"/>
<path d="M261.48 609.361L262.43 609.052C231.688 589.789 197.058 577.225 182.864 545.685C177.192 531.506 185.677 516.146 184.751 501.571C176.254 506.064 167.726 510.504 159.433 515.203C152.765 518.979 146.078 523.065 141.171 528.951C136.335 534.752 133.528 541.94 130.942 549.037C124.163 567.641 118.265 587.065 119.113 606.848C119.372 612.882 120.291 618.992 122.895 624.442C127.286 633.632 135.881 639.928 143.427 646.768C146.385 649.449 149.864 652.489 153.594 655.821C188.589 636.949 226.872 618.105 265.835 614.499C264.572 612.657 263.14 610.924 261.48 609.361Z" fill="#844215"/>
<path d="M269.583 657.568C270.294 655.205 270.919 652.816 271.416 650.387C273.902 638.215 272.714 624.532 265.835 614.5C226.871 618.105 188.589 636.949 153.594 655.821C162.182 663.492 172.117 672.736 180.253 682.821C203.766 661.818 238.169 652.478 269.583 657.568Z" fill="#602801"/>
<path d="M269.581 657.568C238.167 652.478 203.764 661.818 180.25 682.82C185.466 689.285 189.948 696.093 192.842 703.065C198.139 717.09 206.424 738.088 201.967 756.803C200.53 762.841 202.816 769.168 207.716 772.978C211.036 775.559 214.612 778.644 217.113 782.267C229.592 800.34 229.99 809.936 235.597 830.161C237.534 837.148 244.527 840.342 251.481 838.29C256.765 836.73 253.758 852.047 257.566 853.45C261.565 854.923 274.667 852.259 278.877 852.919C286.022 854.04 278.827 844.185 274.599 838.318C267.578 828.574 260.421 828.284 254.16 818.035C244.282 801.867 237.001 767.892 234.998 749.053C232.996 730.213 244.367 714.136 255.551 691.443C260.302 680.181 266.075 669.221 269.581 657.568Z" fill="#844215"/>
<path d="M239.07 828.428C235.664 804.582 223.741 784.143 213.521 763.703C203.301 744.967 223.74 717.714 208.411 700.682C203.22 694.193 194.077 688.703 186.25 690.97C188.877 694.921 191.14 698.963 192.842 703.064C198.14 717.089 206.424 738.086 201.968 756.802C200.53 762.84 202.816 769.167 207.716 772.977C211.036 775.558 214.613 778.643 217.114 782.266C229.2 799.769 229.967 809.351 235.096 828.308C235.096 828.308 236.729 838.318 239.07 828.428Z" fill="#703210"/>
<path d="M268.026 848.867C269.116 841.24 261.839 839.193 253.781 839.15C254.977 841.007 255.033 845.182 255.475 848.566C261.111 848.958 266.683 851.552 268.026 848.867Z" fill="#703210"/>
<path d="M303.795 462.224C309.325 458.997 314.605 457.654 319.637 457.663C295.383 448.978 269.256 454.495 244.049 461.458C227.545 478.369 206.642 489.978 185.484 501.179C224.808 529.15 268.153 484.904 303.795 462.224Z" fill="#844215"/>
<path d="M337.859 467.333C331.94 463.028 325.847 459.888 319.635 457.663C314.603 457.655 309.325 458.997 303.793 462.224C268.152 484.904 224.807 529.151 185.483 501.179C185.237 501.309 184.992 501.439 184.747 501.57C185.57 514.518 178.988 528.084 181.481 540.894C183.601 538.907 187.074 538.005 189.673 538.872C228.849 569.53 281.651 559.311 324.232 540.575C349.782 528.652 366.815 487.773 337.859 467.333Z" fill="#844215"/>
<path d="M331.716 429.219C324.866 415.522 315.142 404.7 303.456 395.84C291.148 389.978 284.594 382.961 283.491 400.284C281.902 425.223 247.15 458.164 247.15 458.164C246.136 459.285 245.099 460.381 244.047 461.458C272.605 458.409 308.829 446.221 337.859 467.334C345.525 472.746 349.941 479.595 351.855 486.955C352.457 465.94 343.698 445.996 331.716 429.219Z" fill="#844215"/>
<path d="M408.763 457.532C405.593 452.156 401.108 447.699 396.675 443.306C389.596 436.293 382.516 429.279 375.253 422.455C369.081 416.655 362.676 410.923 355.106 407.124C345.18 402.144 333.819 400.783 322.713 400.734C315.195 400.702 308.79 398.377 303.46 395.839C315.146 404.699 324.871 415.521 331.719 429.219C343.702 445.995 352.46 465.94 351.859 486.955C357.175 507.394 343.021 531.807 324.236 540.574C281.654 559.311 228.852 569.53 189.677 538.871C187.078 538.004 183.605 538.907 181.484 540.894C181.797 542.503 182.231 544.103 182.863 545.684C197.057 577.224 231.687 589.788 262.429 609.051L287.312 600.935C299.229 587.677 315.426 577.324 333.219 576.22C340.727 575.755 348.466 576.908 355.651 574.682C365.111 571.752 371.832 563.573 377.973 555.804C393.798 535.784 410.194 514.477 413.803 489.214C415.345 478.424 414.3 466.922 408.763 457.532Z" fill="#703210"/>
<path d="M17.7636 551.3C0.821501 571.602 -5.26363 601.286 5.05887 625.63C13.1285 644.661 29.9156 658.795 48.1184 668.592C78.4573 684.921 115.261 690.825 148.012 680.127C168.017 673.592 185.574 661.382 203.869 650.98C222.164 640.578 242.412 631.68 263.424 632.861C284.436 634.041 305.974 648.095 309.474 668.848C311.014 677.983 308.325 688.511 300.511 693.488C292.698 698.465 279.925 694.549 278.515 685.393C270.496 691.992 274.158 706.278 283.092 711.571C292.026 716.865 305.8 718.184 315.718 715.104C333.213 709.672 348.653 693.916 349.399 675.612C349.984 661.239 340.145 645.804 328.919 636.81C296.685 610.988 250.598 605.905 211.536 619.32C197.904 624.001 185.141 631.058 171.312 635.12C152.219 640.729 130.026 639.85 114.334 627.612C98.6427 615.375 86.2363 580.986 99.31 565.984C108.294 555.675 129.778 558.779 124.315 542.608C121.056 532.963 109.309 515.584 99.31 514.755C61.5037 511.619 33.7848 532.102 17.7636 551.3Z" fill="#E8E8E8"/>
<path d="M68.8096 603.298C73.1428 620.883 86.3223 636.048 103.131 642.79C136.756 656.28 173.272 636.245 207.38 624.028C237.221 613.341 271.308 608.817 300.008 622.269C328.709 635.722 348.039 671.813 334.663 700.55C327.076 716.847 312.893 725.242 295.038 727.336C277.183 729.431 261.581 715.104 263.528 707.917C255.863 719.672 265.656 741.389 291.809 745.039C311.762 747.824 332.302 741.612 349.4 730.955C366.04 720.583 380.148 705.033 385.372 686.133C390.596 667.233 385.553 644.991 370.346 632.612C385.291 637.23 401.15 650.263 395.985 671.98C424.783 640.335 407.236 604.464 387.016 590.754C334.304 555.013 281.904 574.042 237.191 593.126C200.123 608.947 183.371 617.066 143.073 617.67C128.593 617.887 110.842 614.554 106.272 600.811C99.2876 579.814 103.999 559.432 124.796 553.886C137.43 550.515 90.4601 541.427 82.3693 550.999C71.368 564.014 64.8637 587.284 68.8096 603.298Z" fill="#C4C4C4"/>
<path d="M176.728 606.674C190.805 598.714 203.752 588.681 218.565 582.195C233.378 575.71 254.17 573.422 268.532 580.855C246.011 591.199 222.465 605.35 200.006 615.831C177.548 626.311 151.776 632.755 127.966 625.876C117.342 622.807 106.984 616.617 102.048 606.72C94.8421 592.274 97.4541 567.513 112.076 560.673C105.591 568.065 104.44 578.595 106.216 588.266C112.65 623.32 154.534 619.223 176.728 606.674Z" fill="#F7F7F7"/>
<path d="M428.134 474.146C450.276 472.443 445.167 436.675 453.683 431.565C480.936 416.236 467.31 479.256 487.749 494.586C490.763 496.595 495.554 496.815 500.376 495.619C500.173 492.483 499.206 489.177 498.063 486.311C490.079 466.3 478.899 445.789 482.452 424.539C483.07 420.84 484.136 417.075 483.383 413.402C482.338 408.305 478.069 404.577 473.927 401.428C471.642 399.691 469.183 397.951 466.335 397.594C460.418 396.851 455.695 402.072 451.496 406.305C440.95 416.936 427.276 423.824 415.455 433.017C403.634 442.211 391.166 442.681 391.322 457.656L351.812 441.61C362.511 454.494 370.581 469.552 375.387 485.594C377.919 494.049 381.15 504.4 389.805 506.129C398.352 507.836 405.263 499.758 411.253 493.428C416.515 487.869 422.634 482.967 428.726 478.082C428.937 476.821 428.82 475.52 428.134 474.146Z" fill="#844215"/>
<path d="M465.605 411.126C474.554 420.074 474.363 432.939 482.181 439.432C481.617 434.506 481.614 429.544 482.451 424.54C482.752 422.739 483.156 420.923 483.408 419.109C476.72 424.263 473.185 409.61 465.605 411.126Z" fill="#703210"/>
<path d="M487.752 494.587C467.313 479.257 480.939 416.236 453.686 431.565C445.17 436.675 450.28 472.444 428.137 474.147C428.823 475.519 428.94 476.821 428.729 478.083C440.34 468.774 451.849 459.531 457.116 445.93C458.014 443.61 458.762 441.115 460.523 439.357C462.283 437.6 465.492 436.974 467.176 438.805C468.008 439.709 468.282 440.978 468.524 442.182C470.954 454.249 473.385 466.316 475.815 478.385C476.614 482.354 477.378 486.649 475.649 490.31C474.97 491.748 473.91 493.081 473.801 494.668C473.631 497.176 475.839 499.13 477.838 500.653C483.446 504.926 491.37 509.262 496.943 504.942C499.8 502.728 500.614 499.291 500.377 495.62C495.557 496.815 490.766 496.595 487.752 494.587Z" fill="#703210"/>
<path d="M500.375 495.619C495.554 496.815 490.763 496.595 487.748 494.587C467.309 479.257 480.935 416.236 453.683 431.565C446.718 435.743 448.858 460.418 437.762 470.205C437.855 470.276 437.947 470.349 438.041 470.416C446.126 463.425 453.278 455.835 457.113 445.929C458.011 443.61 458.758 441.114 460.519 439.357C462.28 437.599 465.489 436.973 467.173 438.804C468.004 439.709 468.278 440.977 468.521 442.181C470.95 454.248 473.381 466.316 475.811 478.384C476.61 482.353 477.375 486.648 475.646 490.309C474.966 491.747 473.906 493.08 473.798 494.667C473.627 497.175 475.835 499.129 477.834 500.652C483.442 504.925 491.367 509.261 496.939 504.942C499.799 502.727 500.612 499.291 500.375 495.619Z" fill="#703210"/>
<path d="M339.165 353C357.255 360.239 370.204 370.825 380.021 372.463C403.571 376.392 408.696 391.72 411.132 395.643C417.256 405.511 424.561 407.692 423.791 419.281C423.059 430.285 422.716 434.722 417.043 444.179C410.337 455.357 397.619 462.017 384.699 463.743C371.778 465.47 358.637 462.792 346.26 458.705C336.094 455.348 326.194 451.004 317.304 445.037C294.993 430.06 281.096 404.334 278.432 377.833C277.682 370.374 270.446 335.005 277.679 341.526C287.906 350.749 290.698 347.655 295.523 348.197C309.21 349.733 331.418 349.9 339.165 353Z" fill="#844215"/>
<path opacity="0.17" d="M280.02 528.974C303.275 523.216 325.276 505.368 328.176 481.586C328.953 475.214 328.119 468.171 323.739 463.477C318.078 457.412 308.196 457.26 300.58 460.551C292.964 463.842 286.922 469.843 280.555 475.163C263.029 489.808 241.788 499.973 219.389 504.435C215.121 505.285 210.707 505.968 206.937 508.144C188.713 518.662 210.104 527.663 219.648 528.862C239.82 531.396 259.96 533.94 280.02 528.974Z" fill="#DB874D"/>
<path d="M15.5624 605.922C11.8763 627.776 20.2557 651.208 35.732 667.072C51.2082 682.936 75.3765 690.442 96.6528 684.238C75.8872 682.879 53.0519 667.279 43.7612 648.658C34.4705 630.037 33.2554 615.27 36.3923 594.697C38.5096 580.81 47.435 561.576 56.804 550.883C58.6607 548.766 22.7552 563.284 15.5624 605.922Z" fill="#F7F7F7"/>
<path d="M373.629 643.129C386.211 661.387 386.198 687.433 373.6 705.679C386.66 691.432 392.104 670.58 387.675 651.768C383.246 632.956 369.071 616.721 351.027 609.797C332.984 602.873 311.587 605.457 295.711 616.477C322.75 609.242 357.472 619.683 373.629 643.129Z" fill="#E8E8E8"/>
<path opacity="0.17" d="M146.739 599.882C141.672 596.484 139.804 589.957 139.076 583.9C137.193 568.247 140.568 552.007 148.531 538.401C150.16 535.617 152.034 532.88 154.669 531.019C157.303 529.158 160.843 528.306 163.817 529.555C168.381 531.469 169.804 537.093 170.925 541.913C172.682 549.467 175.113 556.864 178.179 563.988C182.075 573.039 190.195 585.553 180.742 593.595C173.097 600.099 155.789 605.952 146.739 599.882Z" fill="#DB874D"/>
<path d="M270.834 870.252C273.789 874.169 279.001 876.578 283.747 875.333C285.336 874.915 286.922 874.009 287.569 872.499C287.944 871.624 287.965 870.646 287.98 869.695C288.016 867.473 288.045 865.205 287.365 863.091C286.152 859.321 282.765 856.529 279.02 855.239C266.976 851.087 264.307 861.599 270.834 870.252Z" fill="white"/>
<path d="M446.094 537.467C448.081 541.953 452.609 545.483 457.513 545.349C459.155 545.304 460.906 544.782 461.879 543.459C462.443 542.693 462.686 541.745 462.917 540.823C463.458 538.667 464.002 536.465 463.82 534.252C463.496 530.305 460.831 526.817 457.478 524.709C446.694 517.926 441.704 527.557 446.094 537.467Z" fill="white"/>
<path opacity="0.17" d="M366.291 452.154C368.398 452.23 370.596 452.259 372.463 453.236C376.338 455.265 377.189 460.301 378.018 464.595C379.366 471.587 381.832 478.36 385.293 484.582C388.415 490.193 393.913 495.993 400.169 494.55C402.445 494.026 404.392 492.584 406.175 491.075C412.815 485.45 418.194 478.347 421.811 470.432C415.684 474.988 408.366 479.797 400.994 477.811C394.58 476.083 390.548 469.675 388.532 463.345C386.516 457.015 385.845 450.229 382.948 444.251C382.421 443.163 381.769 442.054 380.708 441.474C379.559 440.845 378.164 440.957 376.86 441.086C361.153 442.639 346.447 441.897 331.027 440.227C336.699 450.724 355.734 451.768 366.291 452.154Z" fill="#DB874D"/>
<path opacity="0.17" d="M478.124 414.788C475.739 415.895 472.623 415.145 471.005 413.068L472.248 413.237C469.08 412.283 466.287 410.154 464.481 407.379C463.204 405.403 462.608 402.388 464.481 400.94C465.844 399.884 467.82 400.259 469.403 400.974C474.666 403.325 478.26 409.014 478.124 414.788Z" fill="#DB874D"/>
<path d="M423.792 427.246C416.331 428.767 411.309 436.001 409.152 443.303C406.995 450.606 406.911 458.377 405.003 465.75C400.197 461.555 399.083 454.293 400.603 448.097C402.124 441.901 405.823 436.502 409.453 431.254C413.969 424.725 418.486 418.197 423.002 411.668C422.89 416.967 422.777 422.265 422.664 427.562L423.792 427.246Z" fill="#844215"/>
</svg>
