<svg width="607" height="746" viewBox="0 0 607 746" fill="none" xmlns="http://www.w3.org/2000/svg">
<path d="M105.198 426.179C105.198 426.179 131.285 483.918 145.349 473.984C159.413 464.051 151.229 421.214 151.229 421.214L143.982 439.219C143.982 439.219 133.071 438.285 120.793 413.453C108.515 388.621 95.4754 355.403 78.8482 353.541C62.2249 351.678 23.8863 382.098 24.1301 405.692C24.3738 429.285 29.9987 455.67 43.3012 458.152C56.5999 460.635 64.0185 445.736 62.7389 439.219C62.7389 439.219 74.758 438.599 71.9475 425.249C71.9475 425.249 94.8508 449.804 105.198 426.179Z" fill="#FF6A2E"/>
<path opacity="0.15" d="M43.311 458.154C56.6097 460.636 64.0282 445.738 62.7486 439.22C62.7486 439.22 74.7678 438.6 71.9573 425.251C71.9573 425.251 94.8529 449.81 105.204 426.18C105.204 426.18 131.291 483.919 145.355 473.986C150.055 470.667 152.263 463.668 153.132 455.829C150.218 452.209 146.441 450.804 141.52 453.725C122.852 464.815 105.459 416.561 105.459 416.561C105.459 416.561 105.459 423.074 97.0199 429.591C88.5806 436.109 73.3472 426.624 70.6776 414.295C68.0079 401.967 69.6532 389.237 80.1413 386.232C90.6257 383.228 93.6952 401.967 93.6952 401.967C93.6952 401.967 94.7196 376.821 77.5821 379.617C60.4485 382.409 66.8426 407.866 66.8426 407.866C66.8426 407.866 72.1857 431.242 63.7731 433.631C55.3605 436.021 43.8251 427.733 37.8231 412.835C31.8212 397.936 43.311 381.171 43.311 381.171C15.434 413.144 53.285 439.22 53.285 439.22C53.285 439.22 57.3752 450.707 46.8908 453.499C41.662 454.89 35.3477 449.644 30.3359 444.032C33.394 451.687 37.6518 457.095 43.311 458.154Z" fill="#B83D26"/>
<path d="M45.3984 63.7246C45.3984 63.7246 78.1768 -2.41412 120.461 0.0681646C162.745 2.55045 74.7683 101.061 74.7683 101.061C74.7683 101.061 137.511 -0.343241 163.769 11.2454C190.028 22.834 109.55 95.2686 109.55 95.2686C109.55 95.2686 166.983 13.2284 187.297 22.0066C207.611 30.7893 177.068 50.532 177.068 50.532L60.1062 123.632L45.3984 63.7246Z" fill="#F45479"/>
<path d="M377.23 96.0918C377.23 96.0918 511.584 102.189 414.399 140.736C317.214 179.283 418.04 146.731 418.04 146.731C418.04 146.731 572.304 186.665 446.633 187.322C320.966 187.978 447.475 189.416 447.475 189.416C447.475 189.416 525.222 228.952 446.45 231.434C367.679 233.916 353.359 129.203 353.359 129.203L377.23 96.0918Z" fill="#F45479"/>
<path opacity="0.36" d="M60.1024 123.632L112.848 90.6647C121.554 78.6925 145.957 46.2564 165.818 30.3642C168.769 24.2995 169.881 19.0668 168.16 15.3781C163.841 23.1809 148.022 29.0191 141.94 22.0021C141.014 20.9343 141.01 19.6123 141.658 18.1424C135.774 22.5753 129.551 28.5799 123.351 35.3611C107.394 64.5014 74.7645 101.061 74.7645 101.061C74.7645 101.061 98.8065 62.2179 123.351 35.3611C132.914 17.9019 136.452 3.13769 123.389 0.484375C141.879 23.5969 84.3273 42.0175 67.2355 43.5291C62.894 43.9127 60.2167 43.2563 58.6172 42.0545C50.2541 53.9436 45.3984 63.7248 45.3984 63.7248L60.1024 123.632Z" fill="#8486EA"/>
<path opacity="0.36" d="M446.633 187.321C496.499 187.063 502.269 180.614 491.111 172.936C488.304 179.491 470.896 181.308 456.002 177.194C437.927 172.206 441.393 153.351 441.393 153.351C428.315 149.394 418.04 146.731 418.04 146.731C418.04 146.731 317.214 179.283 414.399 140.736C444.885 128.643 452.582 119.745 448.796 113.227C434.736 138.767 399.825 119.301 392.658 110.611C387.691 104.588 393.804 100.123 398.362 97.8252C386.48 96.5124 377.23 96.0918 377.23 96.0918L353.359 129.203C353.359 129.203 367.683 233.921 446.45 231.434C480.12 230.371 485.185 222.54 479.956 213.919C477.957 220.848 466.97 225.129 459.41 220.899C450.202 215.745 457.704 196.252 457.704 196.252H459.391C452.879 192.161 447.475 189.415 447.475 189.415C447.475 189.415 320.966 187.978 446.633 187.321Z" fill="#8486EA"/>
<path d="M39.9836 188.08C39.9836 188.08 46.8881 168.522 39.9836 157.969C33.0791 147.415 49.7024 130.964 49.7024 130.964L239.213 130.654L221.397 181.876L110.316 212.607L39.9836 188.08Z" fill="#3C145B"/>
<path d="M136.146 591.322L125.402 539.028C125.402 539.028 125.913 532.339 146.12 533.268C166.323 534.202 162.233 562.247 162.233 562.247L136.146 591.322Z" fill="#B338AE"/>
<path d="M445.092 267.448C445.092 267.448 458.733 236.819 453.958 200.399C449.186 163.973 392.83 112.65 392.83 112.65C392.83 112.65 398.543 80.3661 241.769 38.1488C84.995 -4.06846 18.1587 89.4724 9.29293 96.0965C0.427132 102.721 -10.4837 125.898 20.8855 139.141C52.2586 152.385 125.23 150.73 149.101 150.73C172.971 150.73 203.659 162.318 221.39 143.278C221.39 143.278 194.111 194.602 157.285 193.775C120.458 192.947 109.543 195.827 75.4437 189.42C41.3438 183.013 37.9354 181.359 27.0207 192.947C16.1098 204.536 39.4664 202.673 42.0256 204.536C44.5848 206.399 69.6474 252.961 117.728 274.691C117.728 274.691 114.658 283.382 132.561 301.386C132.561 301.386 125.401 306.975 141.77 322.493L139.21 554.584C139.21 554.584 109.033 695.001 203.659 731.63C298.288 768.259 484.984 719.214 529.995 719.214C575.006 719.214 601.093 726.042 606.207 708.037C611.322 690.032 536.644 603.735 501.349 596.903C501.349 596.903 511.578 559.65 484.47 560.274C484.47 560.274 489.585 550.96 475.262 550.34C475.262 550.34 478.841 528.61 464.008 521.158C449.174 513.707 449.685 516.189 448.15 475.215C446.627 434.251 466.061 245.301 445.092 267.448Z" fill="url(#paint0_linear_610_19810)"/>
<path d="M177.02 153.305C177.02 153.305 212.867 156.42 220.286 138.416C227.701 120.411 226.935 113.269 217.727 121.031C217.727 121.031 224.121 104.269 230.515 108.305C236.909 112.34 230.576 131.986 220.316 144.36C210.057 156.735 202.128 160.941 202.128 160.941L177.02 153.305Z" fill="#151559"/>
<path opacity="0.15" d="M242.114 171.628C242.114 171.628 239.81 93.6097 268.113 92.9903C296.417 92.3663 336.82 128.801 352.422 168.115C368.025 207.43 364.274 205.155 364.274 205.155C364.274 205.155 351.923 264.966 303.371 261.24C254.811 257.514 239.303 195.013 242.114 171.628Z" fill="#B83D26"/>
<path d="M157.287 193.774C120.46 192.947 109.546 195.827 75.4459 189.42C41.346 183.013 37.9376 181.358 27.0229 192.947C16.112 204.536 39.4686 202.673 42.0278 204.535C44.587 206.398 69.6496 252.961 117.73 274.691C117.73 274.691 114.66 283.381 132.563 301.386C132.563 301.386 125.404 306.975 141.772 322.492L139.213 554.583C139.213 554.583 109.035 695.001 203.661 731.63C298.29 768.258 484.986 719.214 529.997 719.214C536.502 719.214 542.561 719.362 548.269 719.551C490.196 709.756 467.837 656.861 395.982 654.023C312.096 650.713 293.682 605.181 293.682 605.181C293.682 605.181 272.542 456.18 258.901 392.435C247.061 337.109 344.128 314.842 369.971 309.928C352.647 312.184 302.4 313.307 260.264 260.819C208.433 196.252 221.389 143.273 221.389 143.273C220.128 146.005 218.616 148.465 216.922 150.702C207.763 164.888 185.293 194.403 157.287 193.774Z" fill="url(#paint1_linear_610_19810)"/>
<path opacity="0.11" d="M246.242 386.231C229.04 340.159 170.349 338.171 141.578 340.145L140.035 480.156C291.946 475.889 269.248 447.858 246.242 386.231Z" fill="#B76B27"/>
<path opacity="0.11" d="M258.226 480.282C240.784 472.65 170.627 484.248 139.932 489.855L139.22 554.588C139.22 554.588 134.429 576.97 134.669 606.171C183.118 602.944 262.336 596.889 269.941 591.323C280.966 583.252 280.73 490.128 258.226 480.282Z" fill="#B76B27"/>
<path opacity="0.11" d="M271.182 601.095C238.548 600.582 187.357 654.781 155.953 692.186C166.411 708.901 181.617 723.102 203.664 731.635C232.428 742.77 269.708 745.978 308.922 745.063C310.678 704.931 311.287 601.729 271.182 601.095Z" fill="#B76B27"/>
<path opacity="0.11" d="M332.507 665.7C309.18 672.278 312.985 715.17 318.347 744.777C356.552 743.275 396.075 738.19 430.986 732.943C412.146 687.675 361.336 657.573 332.507 665.7Z" fill="#B76B27"/>
<path opacity="0.11" d="M419.177 665.699C408.54 665.755 425.658 707.686 436.527 732.106C463.711 727.955 487.803 723.827 505.881 721.401C481.888 685.308 431.66 665.635 419.177 665.699Z" fill="#B76B27"/>
<path d="M262.507 388.145C262.385 389.342 262.743 391.991 263.383 395.416C269 425.523 271.182 456.429 269.217 487.21C266.928 523.053 262.835 567.558 255.789 593.888C242.559 643.316 264.046 688.774 304.452 689.948C344.862 691.122 354.577 668.772 354.577 646.423C354.577 624.073 350.369 613.52 338.662 627.799C338.662 627.799 340.509 601.413 334.119 599.55C327.725 597.688 325.169 606.688 325.169 606.688C325.169 606.688 324.659 594.891 320.055 594.581C315.45 594.272 308.036 597.688 300.107 624.692C300.107 624.692 291.157 604.825 282.973 611.343C282.973 611.343 300.362 470.837 295.247 427.783C290.129 384.729 265.321 360.516 262.507 388.145Z" fill="url(#paint2_linear_610_19810)"/>
<g opacity="0.3">
<path opacity="0.36" d="M528.976 652.788C543.31 649.095 554.59 645.586 563.452 642.406C554.731 633.239 545.477 624.498 536.455 617.135C520.742 630.152 481.638 664.991 528.976 652.788Z" fill="#EF3826"/>
<path opacity="0.36" d="M422.975 144.513C417.373 137.787 411.809 131.69 407.003 126.67C391.534 142.202 367.698 169.918 422.975 144.513Z" fill="#EF3826"/>
<path opacity="0.36" d="M532.149 613.715C525.351 608.464 518.774 604.11 512.768 601.096C492.706 622.757 469.094 652.66 532.149 613.715Z" fill="#EF3826"/>
<path opacity="0.36" d="M573.142 652.996C558.765 658.636 522.613 674.089 548.414 677.62C573.256 681.027 576.444 671.86 592.397 677.278C587.015 669.619 580.431 661.303 573.142 652.996Z" fill="#EF3826"/>
<path opacity="0.36" d="M454.539 226.701C455.183 218.58 455.172 209.681 453.957 200.395C453.549 197.275 452.738 194.039 451.638 190.738C404.422 218.122 357.831 250.484 454.539 226.701Z" fill="#EF3826"/>
<path opacity="0.36" d="M373.479 439.836C301.196 437.464 380.01 485.464 448.278 458.455C448.571 449.081 449.146 437.566 449.843 424.85C426.228 433.845 397.958 440.64 373.479 439.836Z" fill="#EF3826"/>
<path opacity="0.36" d="M451.797 390.083C452.62 375.273 453.416 360.069 453.995 345.592C436.968 354.583 411.166 365.043 381.991 366.042C331.328 367.775 356.3 403.757 451.797 390.083Z" fill="#EF3826"/>
<path opacity="0.36" d="M449.824 185.865C445.577 175.589 438.726 164.879 431.22 154.908C395.673 187.196 332.47 239.777 449.824 185.865Z" fill="#EF3826"/>
<path opacity="0.36" d="M461.544 519.938C454.426 516.42 451.551 514.895 450.111 506.787C435.461 515.852 414.477 526.086 398.546 527.977C363.114 532.179 426.61 554.718 461.544 519.938Z" fill="#EF3826"/>
<path opacity="0.36" d="M449.202 498.697C448.799 493.044 448.543 485.505 448.159 475.224C448.109 473.93 448.083 472.483 448.075 470.902C432.328 477.979 413.632 483.822 395.474 484.539C332.557 487.021 399.096 522.795 449.202 498.697Z" fill="#EF3826"/>
</g>
<mask id="mask0_610_19810" style="mask-type:luminance" maskUnits="userSpaceOnUse" x="30" y="142" width="192" height="52">
<path d="M75.4489 189.415C109.549 195.821 120.46 192.941 157.29 193.769C194.117 194.596 221.396 143.273 221.396 143.273C203.664 162.313 172.973 150.724 149.106 150.724C127.448 150.724 65.372 152.083 30.6172 142.445C34.7607 154.103 40.5378 172.958 39.3763 184.787C45.9685 183.549 55.3828 185.647 75.4489 189.415Z" fill="white"/>
</mask>
<g mask="url(#mask0_610_19810)">
<path d="M30.5234 136.862C30.5234 136.862 34.6135 162.628 41.2628 162.628C47.9122 162.628 49.447 154.247 59.9313 162.628C70.4157 171.008 71.6953 117.304 71.6953 117.304V146.796C71.6953 146.796 71.4401 172.654 90.8779 186.221C110.316 199.783 104.432 156.729 125.404 148.349C125.404 148.349 143.307 176.597 150.981 177.216C158.655 177.836 169.394 145.552 169.394 145.552C169.394 145.552 182.183 175.973 190.622 175.973C199.061 175.973 215.94 140.893 215.94 140.893L238.957 130.959L208.011 195.216L189.853 184.973C189.853 184.973 176.12 163.908 169.905 165.415C163.689 166.927 154.82 174.928 158.4 193.765C161.976 212.601 150.726 195.216 150.726 195.216C150.726 195.216 135.637 161.481 126.006 160.136C112.201 158.208 102.901 209.805 102.901 209.805L88.8366 193.973C88.8366 193.973 60.0951 163.968 52.7755 163.779C45.4559 163.589 35.3828 174.914 40.4974 189.41C45.612 203.906 114.665 216.942 114.665 216.942L251.746 193.765V113.467L71.0174 96.498L30.5234 136.862Z" fill="url(#paint3_linear_610_19810)"/>
</g>
<mask id="mask1_610_19810" style="mask-type:luminance" maskUnits="userSpaceOnUse" x="30" y="142" width="192" height="52">
<path d="M75.4489 189.415C109.549 195.821 120.46 192.941 157.29 193.769C194.117 194.596 221.396 143.273 221.396 143.273C203.664 162.313 172.973 150.724 149.106 150.724C127.448 150.724 65.372 152.083 30.6172 142.445C34.7607 154.103 40.5378 172.958 39.3763 184.787C45.9685 183.549 55.3828 185.647 75.4489 189.415Z" fill="white"/>
</mask>
<g mask="url(#mask1_610_19810)">
<path opacity="0.36" d="M180.475 172.611C181.347 174.89 182.097 177.775 181.838 180.733C181.331 186.511 164.769 193.912 157.609 187.186C157.697 189.211 157.948 191.397 158.394 193.75C169.373 193.685 179.477 189.058 188.232 182.601C186.511 180.128 183.613 176.148 180.475 172.611Z" fill="#B83D26"/>
</g>
<mask id="mask2_610_19810" style="mask-type:luminance" maskUnits="userSpaceOnUse" x="30" y="142" width="192" height="52">
<path d="M75.4489 189.415C109.549 195.821 120.46 192.941 157.29 193.769C194.117 194.596 221.396 143.273 221.396 143.273C203.664 162.313 172.973 150.724 149.106 150.724C127.448 150.724 65.372 152.083 30.6172 142.445C34.7607 154.103 40.5378 172.958 39.3763 184.787C45.9685 183.549 55.3828 185.647 75.4489 189.415Z" fill="white"/>
</mask>
<g mask="url(#mask2_610_19810)">
<path opacity="0.36" d="M139.727 186.738C136.048 190.085 112.204 192.401 108.754 185.934C107.973 188.472 107.261 190.991 106.625 193.395C119.741 194.097 131.413 193.445 150.006 193.653C148.003 189.368 142.084 177.156 135.877 168.701C138.661 174.669 142.488 184.223 139.727 186.738Z" fill="#B83D26"/>
</g>
<mask id="mask3_610_19810" style="mask-type:luminance" maskUnits="userSpaceOnUse" x="30" y="142" width="192" height="52">
<path d="M75.4489 189.415C109.549 195.821 120.46 192.941 157.29 193.769C194.117 194.596 221.396 143.273 221.396 143.273C203.664 162.313 172.973 150.724 149.106 150.724C127.448 150.724 65.372 152.083 30.6172 142.445C34.7607 154.103 40.5378 172.958 39.3763 184.787C45.9685 183.549 55.3828 185.647 75.4489 189.415Z" fill="white"/>
</mask>
<g mask="url(#mask3_610_19810)">
<path opacity="0.36" d="M71.3574 183.215C69.2286 186.534 44.7829 184.477 39.4017 178.815C39.5236 180.927 39.554 182.961 39.375 184.787C45.9672 183.548 55.3853 185.642 75.4514 189.414C79.3055 190.14 82.8319 190.732 86.1642 191.235C81.3619 186.359 71.0223 176.12 62.8001 169.611C67.511 174.701 72.7208 181.089 71.3574 183.215Z" fill="#B83D26"/>
</g>
<mask id="mask4_610_19810" style="mask-type:luminance" maskUnits="userSpaceOnUse" x="30" y="142" width="192" height="52">
<path d="M75.4489 189.415C109.549 195.821 120.46 192.941 157.29 193.769C194.117 194.596 221.396 143.273 221.396 143.273C203.664 162.313 172.973 150.724 149.106 150.724C127.448 150.724 65.372 152.083 30.6172 142.445C34.7607 154.103 40.5378 172.958 39.3763 184.787C45.9685 183.549 55.3828 185.647 75.4489 189.415Z" fill="white"/>
</mask>
<g mask="url(#mask4_610_19810)">
<path opacity="0.36" d="M64.176 162.474C66.2782 160.297 67.8016 154.925 68.906 148.62C63.3458 148.13 57.8809 147.529 52.6406 146.799C54.2173 147.437 55.8054 148.357 57.3783 149.693C64.2942 155.582 64.8235 159.941 64.176 162.474Z" fill="#B83D26"/>
</g>
<mask id="mask5_610_19810" style="mask-type:luminance" maskUnits="userSpaceOnUse" x="30" y="142" width="192" height="52">
<path d="M75.4489 189.415C109.549 195.821 120.46 192.941 157.29 193.769C194.117 194.596 221.396 143.273 221.396 143.273C203.664 162.313 172.973 150.724 149.106 150.724C127.448 150.724 65.372 152.083 30.6172 142.445C34.7607 154.103 40.5378 172.958 39.3763 184.787C45.9685 183.549 55.3828 185.647 75.4489 189.415Z" fill="white"/>
</mask>
<g mask="url(#mask5_610_19810)">
<path opacity="0.36" d="M94.715 152.796C109.785 155.911 107.366 173.033 104.918 182.181C109.145 173.297 111.738 157.876 121.179 150.762C106.388 150.66 88.7549 150.24 71.7773 148.857C71.8992 150.827 72.2382 154.053 73.118 157.95C76.5378 154.178 83.012 150.374 94.715 152.796Z" fill="#B83D26"/>
</g>
<mask id="mask6_610_19810" style="mask-type:luminance" maskUnits="userSpaceOnUse" x="30" y="142" width="192" height="52">
<path d="M75.4489 189.415C109.549 195.821 120.46 192.941 157.29 193.769C194.117 194.596 221.396 143.273 221.396 143.273C203.664 162.313 172.973 150.724 149.106 150.724C127.448 150.724 65.372 152.083 30.6172 142.445C34.7607 154.103 40.5378 172.958 39.3763 184.787C45.9685 183.549 55.3828 185.647 75.4489 189.415Z" fill="white"/>
</mask>
<g mask="url(#mask6_610_19810)">
<path opacity="0.36" d="M45.7088 145.723C40.7008 144.873 35.9785 143.874 31.6484 142.719C32.1588 145.085 32.848 147.891 33.6782 150.656C34.7446 149.796 39.6192 146.162 45.7088 145.723Z" fill="#B83D26"/>
</g>
<mask id="mask7_610_19810" style="mask-type:luminance" maskUnits="userSpaceOnUse" x="30" y="142" width="192" height="52">
<path d="M75.4489 189.415C109.549 195.821 120.46 192.941 157.29 193.769C194.117 194.596 221.396 143.273 221.396 143.273C203.664 162.313 172.973 150.724 149.106 150.724C127.448 150.724 65.372 152.083 30.6172 142.445C34.7607 154.103 40.5378 172.958 39.3763 184.787C45.9685 183.549 55.3828 185.647 75.4489 189.415Z" fill="white"/>
</mask>
<g mask="url(#mask7_610_19810)">
<path opacity="0.36" d="M147.573 153.211C159.877 154.935 160.205 159.863 157.082 172.551C160.929 167.138 164.68 158.226 167.014 152.129C160.841 151.385 154.778 150.729 149.107 150.729C143.821 150.729 136.117 150.807 127 150.793C128.253 152.684 130.165 155.499 132.404 158.605C134.247 155.915 138.551 151.944 147.573 153.211Z" fill="#B83D26"/>
</g>
<mask id="mask8_610_19810" style="mask-type:luminance" maskUnits="userSpaceOnUse" x="30" y="142" width="192" height="52">
<path d="M75.4489 189.415C109.549 195.821 120.46 192.941 157.29 193.769C194.117 194.596 221.396 143.273 221.396 143.273C203.664 162.313 172.973 150.724 149.106 150.724C127.448 150.724 65.372 152.083 30.6172 142.445C34.7607 154.103 40.5378 172.958 39.3763 184.787C45.9685 183.549 55.3828 185.647 75.4489 189.415Z" fill="white"/>
</mask>
<g mask="url(#mask8_610_19810)">
<path opacity="0.36" d="M191.391 155.485C203.902 156.544 203.616 160.182 199.876 168.294C203.814 163.113 207.82 156.276 210.863 150.701C199.743 155.583 186.151 154.418 172.723 152.814C174.174 155.804 176.005 159.354 178.012 162.78C179.132 159.225 182.327 154.718 191.391 155.485Z" fill="#B83D26"/>
</g>
<path opacity="0.15" d="M221.393 243.646C221.393 243.646 153.151 320.084 119.844 284.68C121.889 288.892 125.655 294.438 132.564 301.386C132.564 301.386 164.447 318.152 221.393 243.646Z" fill="#B83D26"/>
<path opacity="0.15" d="M226.171 271.895C226.171 271.895 179.29 334.696 132.398 310.747C133.857 313.788 136.671 317.657 141.775 322.497C141.775 322.497 187.296 325.289 226.171 271.895Z" fill="#B83D26"/>
<path opacity="0.15" d="M117.73 274.691C117.73 274.691 145.352 280.423 183.713 255.207C183.713 255.207 106.366 291.29 53.7383 220.908C65.8145 236.925 87.0917 260.842 117.73 274.691Z" fill="#B83D26"/>
<path opacity="0.15" d="M315.51 85.3296C315.51 85.3296 349.267 131.693 350.973 168.114C350.973 168.114 405.2 159.257 418.837 211.076C432.471 262.894 344.834 294.766 344.834 294.766C344.834 294.766 451.631 262.066 382.034 300.974C382.034 300.974 459.099 266.208 424.641 304.284C390.184 342.364 377.361 485.745 409.518 522.909C441.676 560.074 477.482 535.654 451.223 579.942C451.223 579.942 489.581 544.344 461.536 599.393C461.536 599.393 507.831 558.831 493.846 612.637C493.846 612.637 522.832 597.045 553.523 655.335C584.21 713.625 586.659 717.198 548.267 719.551C582.059 720.674 601.832 723.438 606.207 708.036C611.322 690.031 536.644 603.734 501.349 596.902C501.349 596.902 511.578 559.649 484.47 560.273C484.47 560.273 489.585 550.959 475.262 550.339C475.262 550.339 478.841 528.609 464.008 521.157C449.175 513.706 449.685 516.188 448.15 475.214C446.615 434.236 466.053 245.291 445.081 267.438C445.081 267.438 458.722 236.809 453.946 200.384C449.174 163.958 392.819 112.635 392.819 112.635C392.819 112.635 397.172 87.9876 293.707 53.6055C293.829 53.6841 347.191 84.9182 315.51 85.3296Z" fill="#B83D26"/>
<path opacity="0.15" d="M407.921 721.497C356.12 742.266 192.068 762.475 164.447 692.523C164.447 692.523 162.74 673.899 207.073 672.244C251.402 670.589 249.7 614.296 239.467 581.601C233.534 562.63 179.398 576.119 134.982 590.791C132.796 634.991 139.807 706.922 203.661 731.638C298.291 768.267 484.986 719.222 529.997 719.222C530.123 719.222 530.237 719.227 530.359 719.227C494.892 716.495 452.018 703.816 407.921 721.497Z" fill="#B83D26"/>
<mask id="mask9_610_19810" style="mask-type:luminance" maskUnits="userSpaceOnUse" x="241" y="123" width="124" height="133">
<path d="M364.274 205.155C364.274 205.155 356.6 144.313 310.055 128.172C263.509 112.03 238.957 140.588 242.026 187.774C245.092 234.956 322.843 303.249 364.274 205.155Z" fill="white"/>
</mask>
<g mask="url(#mask9_610_19810)">
<path d="M364.274 205.155C364.274 205.155 356.6 144.313 310.055 128.172C263.509 112.03 238.957 140.588 242.026 187.774C245.092 234.956 322.843 303.249 364.274 205.155Z" fill="#FFFFF7"/>
</g>
<mask id="mask10_610_19810" style="mask-type:luminance" maskUnits="userSpaceOnUse" x="241" y="123" width="124" height="133">
<path d="M364.274 205.155C364.274 205.155 356.6 144.313 310.055 128.172C263.509 112.03 238.957 140.588 242.026 187.774C245.092 234.956 322.843 303.249 364.274 205.155Z" fill="white"/>
</mask>
<g mask="url(#mask10_610_19810)">
<path d="M344.014 208.723C334.12 234.3 309.312 245.468 288.61 233.671C267.908 221.87 259.145 191.569 269.039 165.993C278.933 140.417 303.741 129.249 324.443 141.05C345.149 152.846 353.912 183.147 344.014 208.723Z" fill="url(#paint4_linear_610_19810)"/>
<path d="M339.876 206.366C330.74 229.987 308.4 240.624 289.979 230.121C271.558 219.624 264.033 191.963 273.173 168.346C282.309 144.725 304.649 134.089 323.07 144.591C341.491 155.089 349.016 182.745 339.876 206.366Z" fill="url(#paint5_linear_610_19810)"/>
<path d="M330.04 200.759C323.596 217.409 307.849 224.907 294.862 217.506C281.876 210.106 276.571 190.608 283.015 173.953C289.458 157.303 305.206 149.805 318.192 157.206C331.175 164.606 336.48 184.109 330.04 200.759Z" fill="url(#paint6_linear_610_19810)"/>
<path opacity="0.22" d="M231.625 247.714C231.625 247.714 236.401 149.999 305.964 158.278C357.551 164.417 392.817 265.922 392.817 265.922L392.832 103.77L232.988 105.716L231.625 247.714Z" fill="#EF3826"/>
<path d="M323.051 165.812C323.043 158.999 334.674 165.826 332.377 169.053C330.081 172.274 323.062 176.083 323.051 165.812Z" fill="white"/>
</g>
<path d="M125.405 539.033C125.405 539.033 125.405 548.486 178.09 549.73C230.774 550.973 245.098 537.794 246.118 544.381C247.143 550.973 241.514 566.491 241.769 584.495C242.024 602.5 244.583 646.095 228.215 655.34C211.847 664.585 149.444 671.551 133.075 655.34C116.707 639.129 115.687 567.448 125.405 539.033Z" fill="#F44751"/>
<path d="M326.171 102.716C326.171 102.716 310.827 52.1181 279.88 66.0873C248.934 80.0519 297.524 56.1535 326.171 102.716Z" fill="#B83D26"/>
<path opacity="0.36" d="M133.075 655.34C149.443 671.551 211.847 664.585 228.215 655.34C244.583 646.095 242.024 602.5 241.769 584.495C241.514 566.491 247.139 550.968 246.118 544.381C245.794 542.296 244.13 542.195 240.344 542.985C243.384 545.717 244.69 549.619 240.832 555.11C230.942 569.181 159.334 568.77 145.692 565.044C145.692 565.044 179.453 577.876 223.1 570.424C223.1 570.424 232.991 609.332 221.055 638.306C211.291 662.005 151.694 670.733 128.406 648.429C129.8 651.263 131.346 653.625 133.075 655.34Z" fill="#8486EA"/>
<path opacity="0.15" d="M40.2383 99.9193C40.2383 99.9193 55.8714 67.6358 67.2355 87.5033L40.2383 99.9193Z" fill="#B83D26"/>
<path d="M40.2383 99.9189C41.0038 99.9189 54.8166 84.0869 65.3009 86.2595C75.789 88.4367 40.2383 99.9189 40.2383 99.9189Z" fill="#151559"/>
<path opacity="0.36" d="M245.265 70.4323C249.774 73.4184 267.095 60.2536 280.199 49.2705C272 46.7096 263.195 44.1025 253.758 41.4492C247.84 51.9978 240.455 67.2474 245.265 70.4323Z" fill="#EF3826"/>
<path opacity="0.36" d="M168.981 83.18C178.696 87.3217 206.839 47.0089 216.623 32.4157C205.282 30.2616 194.466 28.8378 184.161 28.0566C176.099 44.2261 159.906 79.3109 168.981 83.18Z" fill="#EF3826"/>
<path opacity="0.36" d="M226.99 34.5098C219.579 47.3973 205.739 73.2417 211.848 76.6392C217.697 79.8935 239.74 55.2463 251.843 40.9119C248.553 39.992 245.213 39.0722 241.77 38.143C236.751 36.7933 231.826 35.5914 226.99 34.5098Z" fill="#EF3826"/>
<path opacity="0.36" d="M134.783 78.707C133.149 160.008 164.499 52.16 155.218 27.4805C143.565 27.9335 132.673 29.2001 122.543 31.123C129.943 41.2556 135.228 56.4728 134.783 78.707Z" fill="#EF3826"/>
<path opacity="0.36" d="M93.8615 90.4793C105.172 126.086 119.594 64.1726 100.168 36.6641C79.1385 43.1864 62.1076 52.3067 48.668 61.4777C63.1092 60.5532 85.3956 63.8306 93.8615 90.4793Z" fill="#EF3826"/>
<path d="M304.45 689.944C344.861 691.118 354.576 668.768 354.576 646.418C354.576 624.068 350.368 613.515 338.661 627.794C338.661 627.794 340.508 601.409 334.117 599.546C327.723 597.683 325.168 606.683 325.168 606.683C325.168 606.683 324.658 594.886 320.053 594.577C315.449 594.267 308.034 597.683 300.105 624.688C300.105 624.688 291.156 604.82 282.972 611.338C282.972 611.338 283.097 610.316 283.307 608.574L281.757 618.845C296.762 608.911 301.53 643.677 301.53 643.677C313.804 641.195 321.653 657.628 321.653 657.628C321.31 649.64 332.51 647.403 332.51 647.403C337.572 631.261 346.205 629.19 350.295 638.712C354.385 648.23 344.838 680.102 305.624 682.173C280.839 683.481 265.941 667.94 258.316 656.315C266.695 676.057 282.872 689.319 304.45 689.944Z" fill="url(#paint7_linear_610_19810)"/>
<path opacity="0.15" d="M304.45 689.944C344.861 691.118 354.576 668.768 354.576 646.418C354.576 624.068 350.368 613.515 338.661 627.794C338.661 627.794 340.508 601.409 334.117 599.546C327.723 597.683 325.168 606.683 325.168 606.683C325.168 606.683 324.658 594.886 320.053 594.577C315.449 594.267 308.034 597.683 300.105 624.688C300.105 624.688 291.156 604.82 282.972 611.338C282.972 611.338 283.097 610.316 283.307 608.574L281.757 618.845C296.762 608.911 301.53 643.677 301.53 643.677C313.804 641.195 321.653 657.628 321.653 657.628C321.31 649.64 332.51 647.403 332.51 647.403C337.572 631.261 346.205 629.19 350.295 638.712C354.385 648.23 344.838 680.102 305.624 682.173C280.839 683.481 265.941 667.94 258.316 656.315C266.695 676.057 282.872 689.319 304.45 689.944Z" fill="#B83D26"/>
<path opacity="0.15" d="M321.435 649.839C321.435 649.839 316.404 642.554 308.521 640.682C308.521 640.682 303.794 627.678 300.207 626.87C300.207 626.87 309.096 630.466 312.356 637.27C312.356 637.27 318.62 629.819 323.994 609.951C323.994 609.951 321.309 631.991 316.194 639.753C316.194 639.753 320.917 641.648 322.459 645.341C322.459 645.341 331.154 642.549 336.398 629.199C336.398 629.199 334.093 647.042 321.435 649.839Z" fill="#B83D26"/>
<defs>
<linearGradient id="paint0_linear_610_19810" x1="0.000610137" y1="386.233" x2="453.398" y2="386.233" gradientUnits="userSpaceOnUse">
<stop stop-color="#FFFC2E"/>
<stop offset="0.1272" stop-color="#FFF42E"/>
<stop offset="0.3231" stop-color="#FFDF2E"/>
<stop offset="0.5633" stop-color="#FFBB2E"/>
<stop offset="0.8361" stop-color="#FF8B2E"/>
<stop offset="1" stop-color="#FF6A2E"/>
</linearGradient>
<linearGradient id="paint1_linear_610_19810" x1="-223.014" y1="444.249" x2="630.281" y2="444.249" gradientUnits="userSpaceOnUse">
<stop stop-color="white"/>
<stop offset="0.9411" stop-color="#FFFC2E"/>
</linearGradient>
<linearGradient id="paint2_linear_610_19810" x1="303.234" y1="550.919" x2="303.234" y2="237.31" gradientUnits="userSpaceOnUse">
<stop stop-color="#FF6A2E"/>
<stop offset="0.3091" stop-color="#FF942E"/>
<stop offset="1" stop-color="#FFFC2E"/>
</linearGradient>
<linearGradient id="paint3_linear_610_19810" x1="82.1762" y1="74.1667" x2="241.884" y2="205.745" gradientUnits="userSpaceOnUse">
<stop stop-color="#FFFCEA"/>
<stop offset="1" stop-color="#FFB586"/>
</linearGradient>
<linearGradient id="paint4_linear_610_19810" x1="288.612" y1="233.669" x2="337.242" y2="148.337" gradientUnits="userSpaceOnUse">
<stop stop-color="#009AAC"/>
<stop offset="0.1861" stop-color="#006C78"/>
<stop offset="0.3701" stop-color="#00454D"/>
<stop offset="0.547" stop-color="#00272C"/>
<stop offset="0.7149" stop-color="#001114"/>
<stop offset="0.8699" stop-color="#000405"/>
<stop offset="1"/>
</linearGradient>
<linearGradient id="paint5_linear_610_19810" x1="289.982" y1="230.124" x2="334.888" y2="151.325" gradientUnits="userSpaceOnUse">
<stop stop-color="#00FFFF"/>
<stop offset="0.1455" stop-color="#00E9ED"/>
<stop offset="0.4491" stop-color="#00B0BE"/>
<stop offset="0.7765" stop-color="#006C86"/>
</linearGradient>
<linearGradient id="paint6_linear_610_19810" x1="294.863" y1="217.507" x2="326.522" y2="161.954" gradientUnits="userSpaceOnUse">
<stop stop-color="#009AAC"/>
<stop offset="0.1861" stop-color="#006C78"/>
<stop offset="0.3701" stop-color="#00454D"/>
<stop offset="0.547" stop-color="#00272C"/>
<stop offset="0.7149" stop-color="#001114"/>
<stop offset="0.8699" stop-color="#000405"/>
<stop offset="1"/>
</linearGradient>
<linearGradient id="paint7_linear_610_19810" x1="306.446" y1="550.919" x2="306.446" y2="237.309" gradientUnits="userSpaceOnUse">
<stop stop-color="#FF6A2E"/>
<stop offset="0.3091" stop-color="#FF942E"/>
<stop offset="1" stop-color="#FFFC2E"/>
</linearGradient>
</defs>
</svg>
