<svg width="24" height="24" viewBox="0 0 24 24" fill="none" xmlns="http://www.w3.org/2000/svg">
<g clip-path="url(#clip0_346_222)">
<path d="M23.2 3.2H21.4C21.347 3.2 21.2961 3.17892 21.2586 3.14142C21.2211 3.10391 21.2 3.05304 21.2 3C21.2 2.94695 21.2211 2.89608 21.2586 2.85857C21.2961 2.82107 21.347 2.8 21.4 2.8H23.24C23.3482 2.79983 23.4552 2.77655 23.5537 2.73171C23.6522 2.68687 23.74 2.62151 23.8112 2.54C23.8822 2.45958 23.9351 2.36487 23.9663 2.26226C23.9976 2.15965 24.0065 2.05153 23.9924 1.9452C23.7924 0.425196 22.5524 0.0295959 21.5604 0.145196C21.2536 0.181596 20.944 0.225196 20.6404 0.276396C20.4209 0.117128 20.1607 0.0236015 19.89 0.00674378C19.6194 -0.0101139 19.3495 0.0503932 19.112 0.181196C18.4534 -0.0530714 17.7354 -0.0605332 17.072 0.159996C14.8356 0.855996 13.89 2.5344 14.4092 4.886C14.8584 6.9096 13.9292 7.5796 12.0808 8.9144C11.6928 9.1944 11.2532 9.5116 10.7944 9.8676C9.85056 10.6576 9.03429 11.5886 8.3744 12.6276C7.3664 14.0644 6.5704 15.2 4.8 15.2C3.342 15.2 2.4 14.1008 2.4 12.4C2.39865 11.7976 2.4794 11.1978 2.64 10.6172C2.68203 10.4598 2.66927 10.2928 2.60382 10.1437C2.53838 9.99453 2.42413 9.87208 2.27987 9.79645C2.1356 9.72083 1.9699 9.69654 1.81 9.72757C1.6501 9.7586 1.50551 9.8431 1.4 9.9672C0.518111 10.9743 0.0220319 12.2615 0 13.6C0 17.192 3.0136 18.8 6 18.8C7.72554 18.7653 9.43683 18.4795 11.08 17.9516C10.6763 18.4101 10.437 18.9902 10.4 19.6C10.4123 20.1291 10.5463 20.6483 10.7916 21.1172C11.0614 21.637 11.2015 22.2143 11.2 22.8C11.2 23.1183 11.3264 23.4235 11.5515 23.6485C11.7765 23.8736 12.0817 24 12.4 24H14.516C14.7775 24 15.0302 23.9056 15.2275 23.734C15.4248 23.5624 15.5535 23.3252 15.5897 23.0662C15.626 22.8073 15.5674 22.5439 15.4247 22.3248C15.2821 22.1056 15.0651 21.9453 14.8136 21.8736L14.2936 21.7256C14.1714 21.6954 14.0495 21.6638 13.928 21.6308C13.8332 21.6042 13.7497 21.5471 13.6904 21.4684C13.6312 21.3897 13.5994 21.2937 13.6 21.1952V20C13.6 19.4572 13.91 19.1724 14.5048 18.6752C15.2304 18.0688 16.1968 17.2552 16.37 15.3984C17.4657 14.67 18.2722 13.5815 18.65 12.3212C18.8376 12.3768 19.0319 12.4065 19.2276 12.4096C19.7033 12.4107 20.1656 12.2524 20.5408 11.96C20.9825 11.5783 21.399 11.1684 21.7876 10.7328C21.8643 10.6498 21.9209 10.5502 21.953 10.4418C21.9851 10.3334 21.9918 10.2191 21.9728 10.1077C21.9537 9.99631 21.9092 9.89078 21.8428 9.79928C21.7765 9.70778 21.69 9.63275 21.59 9.58C21.2829 9.42441 20.9382 9.35811 20.5953 9.38866C20.2523 9.41921 19.9248 9.54537 19.65 9.7528C19.5442 9.81468 19.421 9.83985 19.2994 9.82436C19.1779 9.80888 19.0649 9.75362 18.978 9.6672L18.8552 9.5472C18.8235 9.01309 18.7618 8.48118 18.6704 7.954C18.6188 7.5753 18.6423 7.19014 18.7396 6.82055C18.8369 6.45095 19.0062 6.10416 19.2376 5.8C19.3574 5.81918 19.4786 5.82854 19.6 5.828C19.9929 5.82979 20.3856 5.81056 20.7764 5.7704C21.3571 5.71241 21.9418 5.70598 22.5236 5.7512C22.7131 5.7695 22.9043 5.74743 23.0847 5.68645C23.265 5.62546 23.4304 5.52694 23.5699 5.39737C23.7094 5.26781 23.8199 5.11015 23.894 4.93479C23.9682 4.75942 24.0043 4.57034 24 4.38V4C24 3.78782 23.9157 3.58434 23.7657 3.43431C23.6157 3.28428 23.4122 3.2 23.2 3.2ZM13.9916 18.0616C13.406 18.5512 12.8 19.0576 12.8 20V21.1952C12.7997 21.4696 12.8896 21.7365 13.0558 21.9548C13.2221 22.1732 13.4554 22.3308 13.72 22.4036C13.8292 22.4328 13.9552 22.466 14.0876 22.4988L14.5924 22.6428C14.6582 22.6615 14.7151 22.7033 14.7526 22.7606C14.79 22.8179 14.8055 22.8868 14.7962 22.9546C14.7869 23.0224 14.7534 23.0845 14.702 23.1296C14.6505 23.1747 14.5844 23.1997 14.516 23.2H12.4C12.2939 23.2 12.1922 23.1579 12.1172 23.0828C12.0421 23.0078 12 22.9061 12 22.8C12.0011 22.1016 11.8366 21.4129 11.52 20.7904C11.3221 20.4239 11.2125 20.0163 11.2 19.6C11.2543 19.1145 11.4706 18.6615 11.814 18.314C12.0755 18.0111 12.228 17.6292 12.247 17.2295C12.266 16.8297 12.1504 16.4352 11.9188 16.1088C11.4589 15.5013 11.2068 14.7619 11.2 14C11.1908 13.7352 11.2358 13.4713 11.332 13.2245C11.4283 12.9776 11.574 12.753 11.76 12.5644C12.1537 12.1947 12.6756 11.9924 13.2156 12H13.2752C13.974 12.0184 15.6 12.3272 15.6 14.8C15.6 16.7176 14.7824 17.4 13.9916 18.0616ZM20.04 10.452C20.0792 10.4323 20.1164 10.4088 20.1512 10.382C20.2916 10.2772 20.4566 10.2103 20.6303 10.1877C20.804 10.165 20.9806 10.1875 21.1432 10.2528C20.8031 10.6347 20.4385 10.994 20.0516 11.3284C19.7924 11.5283 19.4696 11.6274 19.1429 11.6073C18.8162 11.5872 18.5079 11.4493 18.2752 11.2192L16.92 9.8832C16.8788 9.84137 16.8471 9.79117 16.827 9.736C16.8068 9.68083 16.7988 9.62199 16.8035 9.56345C16.8081 9.50492 16.8252 9.44806 16.8538 9.39674C16.8823 9.34542 16.9215 9.30083 16.9688 9.266C17.0537 9.21425 17.1539 9.1934 17.2524 9.20695C17.351 9.22051 17.4418 9.26764 17.5096 9.3404L18.4168 10.24C18.6266 10.4485 18.8992 10.5822 19.1925 10.6205C19.4859 10.6588 19.7836 10.5996 20.04 10.452ZM23.2 4.38C23.2019 4.45917 23.1877 4.53791 23.1584 4.61146C23.129 4.68502 23.0851 4.75187 23.0292 4.808C22.9658 4.86226 22.8919 4.90305 22.8122 4.92787C22.7325 4.95269 22.6486 4.96104 22.5656 4.9524C21.945 4.90533 21.3214 4.91256 20.702 4.974C20.3359 5.01163 19.968 5.02966 19.6 5.028C19.4662 5.03049 19.3329 5.01075 19.2056 4.9696H19.2012L19.2 4.9668C18.4208 4.72 18.4 3.6188 18.4 3.6C18.4 3.49391 18.3579 3.39217 18.2828 3.31715C18.2078 3.24214 18.1061 3.2 18 3.2C17.8939 3.2 17.7922 3.24214 17.7172 3.31715C17.6421 3.39217 17.6 3.49391 17.6 3.6C17.6 3.66 17.6132 4.886 18.48 5.4944C17.9597 6.25351 17.7454 7.18118 17.88 8.0916C17.9152 8.2968 17.9392 8.4888 17.9648 8.6824C17.7602 8.51272 17.5056 8.41479 17.24 8.40359C16.9745 8.3924 16.7126 8.46855 16.4944 8.6204C16.3543 8.72184 16.2379 8.85235 16.153 9.00299C16.068 9.15364 16.0167 9.32086 16.0024 9.4932C15.9882 9.66834 16.0122 9.84447 16.0727 10.0094C16.1332 10.1744 16.2288 10.3243 16.3528 10.4488L17.7092 11.7884C17.7742 11.848 17.8429 11.9034 17.9148 11.9544C17.6779 12.9063 17.1401 13.7564 16.3812 14.378C16.2156 12.1012 14.7096 11.238 13.2936 11.2012C12.9096 11.1857 12.5264 11.2477 12.1668 11.3835C11.8072 11.5193 11.4787 11.7261 11.2008 11.9916C10.9376 12.2542 10.7308 12.5678 10.5931 12.9131C10.4554 13.2585 10.3897 13.6283 10.4 14C10.41 14.9298 10.7151 15.8324 11.2712 16.5776C11.3601 16.7018 11.4172 16.8458 11.4376 16.9972C9.68897 17.6149 7.85395 17.9534 6 18C2.16 18 0.8 15.6296 0.8 13.6C0.813682 12.5806 1.15473 11.5927 1.7728 10.782C1.65708 11.3135 1.59914 11.856 1.6 12.4C1.6 14.52 2.916 16 4.8 16C6.9868 16 7.9788 14.5844 9.0292 13.0856C9.64341 12.1126 10.4044 11.2404 11.2852 10.5C11.7328 10.1524 12.1476 9.8532 12.5488 9.5636C14.4088 8.2208 15.7532 7.2508 15.1888 4.7136C14.7536 2.7432 15.4464 1.5036 17.3088 0.923996C17.86 0.736724 18.4614 0.762697 18.9944 0.996796C19.0682 1.02843 19.1495 1.03801 19.2286 1.02438C19.3077 1.01075 19.3811 0.97449 19.44 0.919996C19.5574 0.831787 19.703 0.789492 19.8495 0.801055C19.9959 0.812619 20.1331 0.877245 20.2352 0.982796C20.2806 1.0293 20.3367 1.06402 20.3986 1.08396C20.4605 1.10389 20.5264 1.10843 20.5904 1.0972C20.9444 1.0352 21.3 0.982911 21.6568 0.940396C22.16 0.879996 23.0256 0.940396 23.192 2H21.4C21.1348 2 20.8804 2.10535 20.6929 2.29289C20.5054 2.48043 20.4 2.73478 20.4 3C20.4 3.26521 20.5054 3.51957 20.6929 3.7071C20.8804 3.89464 21.1348 4 21.4 4H23.2V4.38Z" fill="black"/>
<ellipse cx="19.8047" cy="1.57031" rx="0.445312" ry="0.351562" fill="black"/>
</g>
<defs>
<clipPath id="clip0_346_222">
<rect width="24" height="24" fill="white"/>
</clipPath>
</defs>
</svg>
