<svg width="30" height="22" viewBox="0 0 30 22" fill="none" xmlns="http://www.w3.org/2000/svg">
<g clip-path="url(#clip0_896_508)">
<path d="M25.2667 2.93344H23.6167C23.568 2.93344 23.5214 2.91413 23.487 2.87974C23.4526 2.84536 23.4333 2.79873 23.4333 2.75011C23.4333 2.70149 23.4526 2.65485 23.487 2.62047C23.5214 2.58609 23.568 2.56678 23.6167 2.56678H25.3033C25.4025 2.56662 25.5006 2.54528 25.5909 2.50418C25.6812 2.46308 25.7617 2.40316 25.8269 2.32844C25.892 2.25472 25.9405 2.16791 25.9691 2.07385C25.9978 1.97979 26.0059 1.88068 25.993 1.78321C25.8097 0.389875 24.673 0.0272415 23.7637 0.133208C23.4825 0.166575 23.1987 0.206541 22.9204 0.253475C22.7192 0.107479 22.4806 0.0217466 22.2325 0.0062937C21.9844 -0.00915917 21.7371 0.0463056 21.5193 0.166208C20.9156 -0.0485369 20.2574 -0.0553769 19.6493 0.146775C17.5993 0.784775 16.7325 2.32331 17.2084 4.47894C17.6202 6.33391 16.7684 6.94808 15.0741 8.17164C14.7184 8.42831 14.3154 8.71908 13.8949 9.04541C13.0297 9.76961 12.2814 10.623 11.6765 11.5754C10.7525 12.8925 10.0229 13.9334 8.4 13.9334C7.0635 13.9334 6.2 12.9258 6.2 11.3668C6.19877 10.8146 6.27278 10.2648 6.42 9.73254C6.45853 9.58829 6.44683 9.43522 6.38684 9.29849C6.32684 9.16176 6.22212 9.04952 6.08988 8.9802C5.95763 8.91087 5.80574 8.88861 5.65916 8.91705C5.51259 8.94549 5.38005 9.02296 5.28333 9.13671C4.47493 10.0599 4.0202 11.2399 4 12.4668C4 15.7594 6.76247 17.2334 9.5 17.2334C11.0817 17.2016 12.6504 16.9396 14.1567 16.4557C13.7866 16.8761 13.5672 17.4078 13.5333 17.9668C13.5446 18.4518 13.6674 18.9277 13.8923 19.3575C14.1396 19.834 14.268 20.3633 14.2667 20.9001C14.2667 21.1918 14.3826 21.4716 14.5888 21.6779C14.7951 21.8842 15.0749 22.0001 15.3667 22.0001H17.3063C17.546 22.0002 17.7777 21.9135 17.9586 21.7562C18.1394 21.5989 18.2573 21.3816 18.2906 21.1442C18.3238 20.9068 18.2701 20.6654 18.1393 20.4645C18.0086 20.2636 17.8096 20.1167 17.5791 20.0509L17.1025 19.9152C16.9904 19.8876 16.8787 19.8586 16.7673 19.8283C16.6804 19.8039 16.6039 19.7516 16.5496 19.6795C16.4952 19.6073 16.4661 19.5193 16.4667 19.429V18.3334C16.4667 17.8359 16.7508 17.5748 17.2961 17.119C17.9612 16.5632 18.8471 15.8174 19.0058 14.1153C20.0102 13.4476 20.7495 12.4498 21.0958 11.2945C21.2678 11.3455 21.4459 11.3727 21.6253 11.3756C22.0613 11.3766 22.4852 11.2315 22.8291 10.9634C23.2339 10.6136 23.6157 10.2378 23.972 9.83851C24.0423 9.76239 24.0941 9.67114 24.1236 9.57179C24.153 9.47244 24.1592 9.36765 24.1417 9.26553C24.1242 9.1634 24.0834 9.06666 24.0226 8.98279C23.9618 8.89891 23.8825 8.83013 23.7908 8.78178C23.5093 8.63915 23.1934 8.57838 22.879 8.60639C22.5646 8.63439 22.2644 8.75003 22.0125 8.94018C21.9156 8.99691 21.8026 9.01997 21.6911 9.00578C21.5797 8.99159 21.4761 8.94093 21.3965 8.86171L21.2839 8.75171C21.2549 8.26211 21.1983 7.77453 21.1145 7.29128C21.0672 6.94414 21.0888 6.59108 21.178 6.25228C21.2672 5.91348 21.4223 5.59559 21.6345 5.31678C21.7443 5.33436 21.8554 5.34294 21.9667 5.34244C22.3268 5.34409 22.6868 5.32646 23.045 5.28964C23.5773 5.23649 24.1133 5.2306 24.6466 5.27204C24.8203 5.28882 24.9956 5.26859 25.161 5.21269C25.3263 5.15678 25.4779 5.06647 25.6058 4.9477C25.7337 4.82894 25.8349 4.68442 25.9029 4.52366C25.9708 4.36291 26.0039 4.18959 26 4.01511V3.66677C26 3.47228 25.9227 3.28576 25.7852 3.14823C25.6477 3.0107 25.4612 2.93344 25.2667 2.93344ZM16.8256 16.5566C16.2888 17.0054 15.7333 17.4696 15.7333 18.3334V19.429C15.7331 19.6806 15.8155 19.9252 15.9679 20.1254C16.1202 20.3255 16.3341 20.47 16.5767 20.5367C16.6768 20.5635 16.7923 20.5939 16.9136 20.624L17.3764 20.756C17.4367 20.7731 17.4888 20.8115 17.5232 20.864C17.5575 20.9165 17.5717 20.9797 17.5632 21.0418C17.5547 21.104 17.524 21.1609 17.4768 21.2023C17.4296 21.2436 17.3691 21.2665 17.3063 21.2668H15.3667C15.2694 21.2668 15.1762 21.2281 15.1074 21.1594C15.0386 21.0906 15 20.9974 15 20.9001C15.001 20.2599 14.8502 19.6286 14.56 19.058C14.3786 18.722 14.2782 18.3484 14.2667 17.9668C14.3164 17.5217 14.5147 17.1065 14.8295 16.7879C15.0692 16.5103 15.209 16.1602 15.2264 15.7938C15.2438 15.4274 15.1379 15.0657 14.9256 14.7665C14.504 14.2097 14.2729 13.5319 14.2667 12.8334C14.2583 12.5907 14.2994 12.3488 14.3877 12.1226C14.476 11.8963 14.6095 11.6904 14.78 11.5175C15.1409 11.1786 15.6193 10.9931 16.1143 11.0001H16.1689C16.8095 11.017 18.3 11.3 18.3 13.5668C18.3 15.3246 17.5505 15.9501 16.8256 16.5566ZM22.37 9.58111C22.4059 9.56302 22.4401 9.54153 22.4719 9.51694C22.6006 9.42089 22.7519 9.35955 22.9111 9.33881C23.0704 9.31807 23.2323 9.33862 23.3813 9.39851C23.0695 9.74859 22.7353 10.0779 22.3806 10.3845C22.1431 10.5677 21.8471 10.6586 21.5477 10.6402C21.2482 10.6217 20.9656 10.4953 20.7523 10.2844L19.51 9.05971C19.4722 9.02137 19.4431 8.97535 19.4247 8.92478C19.4063 8.87421 19.3989 8.82027 19.4032 8.76661C19.4074 8.71295 19.4231 8.66084 19.4493 8.61379C19.4754 8.56675 19.5114 8.52587 19.5547 8.49394C19.6326 8.44651 19.7244 8.42739 19.8147 8.43982C19.9051 8.45224 19.9883 8.49545 20.0505 8.56214L20.8821 9.38678C21.0744 9.57789 21.3243 9.70045 21.5932 9.73557C21.862 9.77069 22.135 9.71641 22.37 9.58111ZM25.2667 4.01511C25.2684 4.08769 25.2554 4.15986 25.2285 4.22729C25.2016 4.29471 25.1613 4.356 25.1101 4.40744C25.052 4.45718 24.9843 4.49457 24.9112 4.51733C24.8382 4.54008 24.7612 4.54773 24.6851 4.53981C24.1162 4.49666 23.5446 4.50329 22.9768 4.55961C22.6412 4.59411 22.304 4.61063 21.9667 4.60911C21.844 4.61139 21.7219 4.5933 21.6051 4.55557H21.6011L21.6 4.55301C20.8857 4.32678 20.8667 3.31734 20.8667 3.30011C20.8667 3.20286 20.828 3.1096 20.7593 3.04084C20.6905 2.97207 20.5972 2.93344 20.5 2.93344C20.4028 2.93344 20.3095 2.97207 20.2407 3.04084C20.172 3.1096 20.1333 3.20286 20.1333 3.30011C20.1333 3.35511 20.1454 4.47894 20.94 5.03664C20.463 5.7325 20.2666 6.58286 20.39 7.41741C20.4223 7.60551 20.4443 7.78151 20.4677 7.95898C20.2802 7.80344 20.0468 7.71367 19.8034 7.70341C19.5599 7.69314 19.3198 7.76295 19.1199 7.90214C18.9915 7.99513 18.8847 8.11476 18.8069 8.25286C18.729 8.39095 18.682 8.54423 18.6689 8.70221C18.6559 8.86276 18.6779 9.02421 18.7333 9.17544C18.7888 9.32667 18.8764 9.46407 18.9901 9.57818L20.2334 10.8061C20.293 10.8607 20.356 10.9116 20.4219 10.9583C20.2048 11.8309 19.7117 12.6101 19.0161 13.1799C18.8643 11.0929 17.4838 10.3016 16.1858 10.2679C15.8338 10.2537 15.4825 10.3105 15.1529 10.435C14.8233 10.5595 14.5222 10.749 14.2674 10.9924C14.0261 11.2331 13.8365 11.5206 13.7103 11.8371C13.5841 12.1537 13.5239 12.4928 13.5333 12.8334C13.5425 13.6858 13.8222 14.5131 14.3319 15.1962C14.4134 15.3101 14.4658 15.4421 14.4845 15.5809C12.8816 16.1471 11.1995 16.4574 9.5 16.5001C5.98 16.5001 4.73333 14.3272 4.73333 12.4668C4.74587 11.5324 5.0585 10.6268 5.62507 9.88361C5.51899 10.3708 5.46588 10.8681 5.46667 11.3668C5.46667 13.3101 6.673 14.6668 8.4 14.6668C10.4046 14.6668 11.3139 13.3691 12.2768 11.9952C12.8398 11.1033 13.5374 10.3038 14.3448 9.62511C14.7551 9.30648 15.1353 9.03221 15.5031 8.76674C17.2081 7.53584 18.4404 6.64668 17.9231 4.32091C17.5241 2.51471 18.1592 1.37841 19.8664 0.847108C20.3717 0.675443 20.9229 0.699251 21.4115 0.913842C21.4791 0.942836 21.5537 0.951617 21.6262 0.939123C21.6987 0.926628 21.766 0.893394 21.82 0.843442C21.9277 0.762583 22.0611 0.723813 22.1953 0.734413C22.3296 0.745013 22.4553 0.804254 22.5489 0.901008C22.5906 0.943636 22.642 0.975465 22.6988 0.993738C22.7555 1.01201 22.8158 1.01618 22.8745 1.00587C23.199 0.949042 23.525 0.901113 23.8521 0.862142C24.3133 0.806775 25.1068 0.862141 25.2593 1.83344H23.6167C23.3736 1.83344 23.1404 1.93002 22.9685 2.10193C22.7966 2.27384 22.7 2.50699 22.7 2.75011C22.7 2.99322 22.7966 3.22638 22.9685 3.39829C23.1404 3.5702 23.3736 3.66677 23.6167 3.66677H25.2667V4.01511Z" fill="#244A65"/>
<ellipse cx="22.1543" cy="1.43945" rx="0.408203" ry="0.322266" fill="#244A65"/>
</g>
<defs>
<clipPath id="clip0_896_508">
<rect width="22" height="22" fill="white" transform="translate(4)"/>
</clipPath>
</defs>
</svg>
