<svg width="496" height="444" viewBox="0 0 496 444" fill="none" xmlns="http://www.w3.org/2000/svg">
<path d="M261.358 390.24C261.358 390.24 279.588 411.583 283.423 418.058C287.261 424.533 289.301 436.286 303.809 434.37C318.318 432.454 322.156 417.814 314.72 404.152C307.287 390.477 303.088 390.951 300.091 376.922C297.094 362.903 258.962 379.452 261.358 390.24Z" fill="#6F797B"/>
<path d="M302.094 398.106C289.82 393.336 275.723 398.291 263.602 392.891C268.596 398.807 280.419 412.992 283.423 418.058C286.293 422.91 288.16 430.71 295.002 433.529C298.061 433.575 301.022 432.805 303.62 430.954C314.317 424.079 315.843 403.451 302.094 398.106Z" fill="#838A90"/>
<path d="M300.659 401.256C288.388 396.479 275.723 398.288 263.602 392.891C268.596 398.807 280.419 412.992 283.423 418.058C286.293 422.91 288.16 430.71 295.002 433.529C298.061 433.575 299.207 430.594 301.808 428.733C312.501 421.858 314.407 406.605 300.659 401.256Z" fill="#909599"/>
<path d="M300.787 434.961C291.098 434.961 287.776 427.901 285.107 422.225C284.428 420.799 283.791 419.435 283.093 418.253C279.317 411.878 261.249 390.702 261.067 390.491L261.006 390.409L260.986 390.322C260.564 388.419 261.266 386.314 263.077 384.054C268.4 377.426 282.1 371.146 291.27 371.146C296.488 371.146 299.67 373.123 300.466 376.848C302.31 385.48 304.642 388.607 307.866 392.926C309.912 395.667 312.23 398.768 315.059 403.968C319.3 411.761 319.982 420.046 316.887 426.135C314.426 430.967 309.922 433.942 303.862 434.74C302.791 434.893 301.758 434.961 300.787 434.961ZM261.71 390.062C263.077 391.666 280.015 411.563 283.749 417.87C284.47 419.081 285.113 420.452 285.798 421.903C288.51 427.661 291.585 434.195 300.787 434.201C301.723 434.201 302.726 434.127 303.758 433.993C309.561 433.227 313.864 430.392 316.202 425.8C319.183 419.932 318.504 411.911 314.387 404.338C311.588 399.187 309.285 396.105 307.256 393.39C303.973 388.99 301.602 385.818 299.722 377.014C298.823 372.808 294.634 371.921 291.273 371.921C282.291 371.921 268.88 378.056 263.678 384.544C262.042 386.561 261.386 388.419 261.71 390.062Z" fill="#575C60"/>
<path d="M155.199 363.296C155.199 363.296 132.495 386.645 124.344 390.481C116.191 394.319 116.986 397.998 110.592 396.397C104.195 394.793 86.7676 382.963 88.2094 377.211C89.6479 371.45 109.151 362.656 116.986 358.818C124.822 354.979 127.377 346.507 124.981 336.118C133.933 340.756 155.199 363.296 155.199 363.296Z" fill="#6F797B"/>
<path d="M117.278 383.593C124.152 379.014 129.634 376.325 133.452 365.637C135.3 360.088 134.17 356.593 133.452 350.858C127.124 344.763 129.348 338.375 124.98 336.118C127.377 346.507 124.818 354.983 116.986 358.818C109.15 362.656 89.6475 371.454 88.209 377.211C87.4556 380.225 91.8783 384.905 97.1778 388.906C108.066 395.491 110.634 388.464 117.278 383.593Z" fill="#838A90"/>
<path d="M115.291 380.725C122.165 376.146 126.058 371.567 129.877 360.873C131.725 355.33 134.17 356.593 133.452 350.858C127.124 344.763 129.348 338.375 124.98 336.118C127.377 346.507 124.818 354.983 116.986 358.818C109.15 362.656 89.6475 371.454 88.209 377.211C87.4556 380.225 91.8783 384.905 97.1778 388.906C103.737 389.737 108.65 385.596 115.291 380.725Z" fill="#909599"/>
<path d="M113.238 397.16C112.455 397.16 111.562 397.033 110.497 396.767C107.194 395.942 101.194 392.536 96.2254 388.668C92.7022 385.914 86.9222 380.764 87.8346 377.117C89.1692 371.788 104.727 364.306 114.02 359.834C115.056 359.334 116.001 358.882 116.819 358.483C124.2 354.862 127.041 346.743 124.609 336.209L124.424 335.403L125.155 335.777C134.068 340.388 154.607 362.11 155.477 363.036L155.727 363.302L155.474 363.562C154.542 364.52 132.627 387.005 124.505 390.821C121.372 392.299 119.599 393.734 118.173 394.887C116.54 396.209 115.358 397.16 113.238 397.16ZM125.532 336.852C127.717 347.367 124.687 355.469 117.154 359.165C116.332 359.564 115.39 360.016 114.348 360.516C105.775 364.637 89.8187 372.32 88.575 377.299C87.9938 379.627 91.0266 383.648 96.693 388.058C101.59 391.87 107.471 395.218 110.682 396.03C111.685 396.277 112.52 396.397 113.238 396.397C115.092 396.397 116.069 395.605 117.693 394.293C119.147 393.114 120.959 391.649 124.181 390.133C131.714 386.593 152.139 365.877 154.669 363.289C152.311 360.815 134.146 341.856 125.532 336.852Z" fill="#575C60"/>
<path d="M83.7586 383.612C83.9762 385.161 90.7272 388.317 92.104 385.742C93.4808 383.16 91.3831 378.487 88.3859 378.003C85.3855 377.529 83.5768 382.355 83.7586 383.612Z" fill="#CCD3D6"/>
<path d="M91.6359 380.611C90.8858 379.28 89.7266 378.221 88.3855 378.003C85.3883 377.529 83.5796 382.355 83.7582 383.612C83.7679 383.686 83.8069 383.771 83.8459 383.852C86.8755 383.917 90.1292 383.021 91.6359 380.611Z" fill="#E6ECEF"/>
<path d="M90.498 379.133C89.8843 378.549 89.1699 378.13 88.3873 378.003C85.4518 377.539 83.6594 382.144 83.7535 383.521C86.2799 382.901 88.9393 382.121 90.498 379.133Z" fill="white"/>
<path d="M90.0256 387.1C87.4961 387.1 83.5799 385.083 83.3786 383.667C83.252 382.79 83.9144 380.546 85.2295 379.03C86.1777 377.939 87.2655 377.445 88.4443 377.627C89.9087 377.861 91.2953 379.036 92.1558 380.774C93.0553 382.589 93.1657 384.56 92.4383 385.924C92.1493 386.46 91.4999 387.1 90.0256 387.1ZM87.9702 378.354C87.2103 378.354 86.4829 378.754 85.801 379.533C84.6255 380.891 84.0443 382.94 84.132 383.56C84.2424 384.339 87.522 386.336 90.0192 386.336C90.8991 386.336 91.4869 386.077 91.7597 385.564C92.3636 384.434 92.2532 382.683 91.4706 381.111C90.7205 379.601 89.5418 378.582 88.3209 378.384C88.204 378.364 88.0871 378.354 87.9702 378.354Z" fill="#8A9093"/>
<path d="M97.7567 394.64C98.3964 395.465 104.514 395.273 104.673 393.477C104.832 391.675 101.196 387.56 98.4386 388.398C95.6785 389.243 97.3606 394.12 97.7567 394.64Z" fill="#CCD3D6"/>
<path d="M90.4021 390.919C90.9541 391.63 95.7567 391.883 96.838 390.406C97.9161 388.921 95.9288 382.953 92.5257 383.563C89.1227 384.164 89.5675 389.841 90.4021 390.919Z" fill="#CCD3D6"/>
<path d="M95.3728 384.716C94.6162 383.884 93.6485 383.358 92.525 383.563C89.2031 384.154 89.5473 389.571 90.3461 390.824C93.3725 389.96 95.7462 387.752 95.3728 384.716Z" fill="#E6ECEF"/>
<path d="M94.6456 384.073C94.0286 383.641 93.3175 383.421 92.5251 383.56C89.4955 384.093 89.515 388.636 90.1482 390.393C92.6031 389.049 94.3273 386.827 94.6456 384.073Z" fill="white"/>
<path d="M93.1553 391.87C92.8987 391.87 90.6387 391.844 90.1029 391.159C89.4664 390.334 89.08 387.545 89.8626 385.495C90.3659 384.196 91.2621 383.398 92.4571 383.18C94.1197 382.881 95.6361 383.933 96.6558 385.934C97.4318 387.47 97.8702 389.633 97.1428 390.626C96.331 391.743 94.0872 391.87 93.1553 391.87ZM93.0059 383.898C92.8695 383.898 92.7331 383.911 92.5935 383.937C91.6583 384.102 90.9796 384.716 90.577 385.775C89.8821 387.577 90.2523 390.107 90.7036 390.685C90.8303 390.824 91.7038 391.104 93.1553 391.104C94.7951 391.104 96.1167 390.737 96.5291 390.178C96.935 389.62 96.8084 387.928 95.9771 386.285C95.6134 385.564 94.5938 383.898 93.0059 383.898Z" fill="#8A9093"/>
<path d="M97.7567 394.641C98.3964 395.466 104.514 395.274 104.673 393.478C104.832 391.676 101.196 387.561 98.4386 388.399C95.6785 389.244 97.3606 394.121 97.7567 394.641Z" fill="#CCD3D6"/>
<path d="M102.282 389.63C101.106 388.652 99.6839 388.019 98.437 388.399C95.6801 389.243 97.3589 394.121 97.7583 394.64C97.8103 394.696 97.9012 394.754 98.0116 394.813C99.9859 393.975 100.885 391.724 102.282 389.63Z" fill="#E6ECEF"/>
<path d="M100.799 388.684C100.01 388.317 99.1885 388.171 98.4352 388.399C96.0939 389.116 96.948 392.724 97.5032 394.127C99.2113 393.214 100.03 390.987 100.799 388.684Z" fill="white"/>
<path d="M100.118 395.491C99.3034 395.491 97.8714 395.41 97.4557 394.871C97.0921 394.397 96.0919 391.572 96.6991 389.695C96.9687 388.85 97.5304 388.279 98.3293 388.032C99.8295 387.581 101.82 388.438 103.431 390.195C104.275 391.12 105.148 392.478 105.057 393.511C104.915 395.073 101.888 395.491 100.118 395.491ZM99.206 388.672C98.9754 388.672 98.7546 388.704 98.55 388.766C97.985 388.938 97.6181 389.312 97.4233 389.919C96.907 391.536 97.8389 394.118 98.0597 394.404C98.1539 394.504 98.7839 394.728 100.115 394.728C102.317 394.728 104.233 394.137 104.291 393.449C104.35 392.809 103.775 391.705 102.862 390.708C101.697 389.435 100.33 388.672 99.206 388.672Z" fill="#8A9093"/>
<path d="M286.634 424.52C288.823 424.247 292.102 429.125 291.213 431.083C290.323 433.048 284.504 433.467 283.965 432.333C283.423 431.193 284.53 424.783 286.634 424.52Z" fill="#CCD3D6"/>
<path d="M289.664 426.413C288.736 425.251 287.583 424.403 286.631 424.523C284.67 424.763 283.576 430.365 283.878 432.035C286.644 431.08 288.814 429.216 289.664 426.413Z" fill="#E6ECEF"/>
<path d="M287.71 424.738C287.339 424.559 286.972 424.478 286.631 424.523C284.67 424.763 283.576 430.365 283.878 432.035C284.326 431.882 284.755 431.694 285.167 431.496C286.946 429.924 288.275 427.254 287.71 424.738Z" fill="white"/>
<path d="M286.175 433.337C285.191 433.337 283.947 433.191 283.616 432.493C283.142 431.489 283.691 427.729 284.818 425.679C285.334 424.741 285.928 424.221 286.587 424.137C288.013 423.952 289.61 425.527 290.549 426.985C291.383 428.278 292.085 430.073 291.559 431.239C290.861 432.778 287.958 433.337 286.175 433.337ZM286.815 424.89C286.769 424.89 286.724 424.897 286.681 424.903C286.285 424.949 285.873 425.348 285.487 426.053C284.395 428.044 283.993 431.502 284.308 432.174C284.369 432.307 284.912 432.58 286.175 432.58C288.071 432.58 290.4 431.954 290.861 430.937C291.189 430.213 290.802 428.8 289.909 427.404C288.938 425.897 287.695 424.89 286.815 424.89Z" fill="#8A9093"/>
<path d="M292.737 436.649C293.477 436.841 298.77 435.73 298.894 433.935C299.014 432.132 295.575 428.576 292.737 429.976C289.899 431.379 292.325 436.549 292.737 436.649Z" fill="#CCD3D6"/>
<path d="M296.108 430.223C295.059 429.645 293.851 429.424 292.738 429.976C290.234 431.207 291.825 435.374 292.517 436.406C294.741 434.926 296.303 432.616 296.108 430.223Z" fill="#E6ECEF"/>
<path d="M294.757 429.73C294.088 429.603 293.399 429.655 292.737 429.977C290.366 431.142 291.668 434.942 292.402 436.218C294.614 434.926 295.26 432.623 294.757 429.73Z" fill="white"/>
<path d="M292.976 437.056C292.836 437.056 292.729 437.043 292.644 437.023C292.086 436.877 291.199 434.74 291.034 433.143C290.855 431.431 291.388 430.22 292.57 429.635C293.05 429.395 293.57 429.281 294.112 429.281C295.401 429.281 296.833 429.986 297.95 431.178C298.834 432.123 299.33 433.162 299.275 433.961C299.136 436.023 294.138 437.056 292.976 437.056ZM292.894 436.286C292.914 436.286 292.943 436.286 292.976 436.286C294.255 436.286 298.428 435.188 298.512 433.909C298.551 433.331 298.109 432.47 297.392 431.701C296.038 430.249 294.239 429.658 292.911 430.311C292.277 430.629 291.914 431.168 291.8 431.973C291.56 433.675 292.55 435.877 292.894 436.286Z" fill="#8A9093"/>
<path d="M302.892 437.809C304.471 438.15 308.806 434.334 308.088 432.691C307.367 431.054 301.503 429.938 300.171 432.052C298.846 434.169 302.068 437.631 302.892 437.809Z" fill="#CCD3D6"/>
<path d="M304.059 430.934C302.432 430.781 300.799 431.054 300.172 432.051C298.88 434.12 301.903 437.449 302.818 437.786C304.51 435.711 305.825 432.645 304.059 430.934Z" fill="#E6ECEF"/>
<path d="M302.935 430.901C301.727 430.953 300.652 431.288 300.172 432.051C299.016 433.896 301.315 436.757 302.464 437.575C303.692 435.279 305.351 433.428 302.935 430.901Z" fill="white"/>
<path d="M303.106 438.209C303.002 438.209 302.901 438.202 302.81 438.183C302.063 438.024 300.489 436.348 299.833 434.795C299.352 433.652 299.358 432.639 299.849 431.847C300.394 430.983 301.596 430.509 303.239 430.509C305.32 430.509 307.905 431.321 308.434 432.538C308.681 433.104 308.516 433.851 307.957 434.708C306.921 436.293 304.525 438.209 303.106 438.209ZM303.239 431.278C301.888 431.278 300.888 431.632 300.498 432.256C300.138 432.834 300.151 433.587 300.537 434.5C301.203 436.085 302.641 437.367 302.973 437.436C303.012 437.449 303.057 437.449 303.106 437.449C304.132 437.449 306.333 435.799 307.317 434.289C307.72 433.675 307.873 433.152 307.736 432.85C307.418 432.12 305.382 431.278 303.239 431.278Z" fill="#8A9093"/>
<path d="M86.2852 18.7183C86.2852 18.7183 97.6764 17.4031 98.3973 18.7183C99.1181 20.04 94.4421 27.4734 94.4421 27.4734C94.4421 27.4734 87.8471 24.1156 86.2852 18.7183Z" fill="#64696D"/>
<path d="M94.5799 27.9772L94.2682 27.8181C93.9922 27.6785 87.5075 24.3238 85.9196 18.8291L85.793 18.3972L86.2411 18.342C86.293 18.3355 91.3684 17.751 94.9371 17.751C97.9018 17.751 98.5188 18.1472 98.7298 18.5369C99.4962 19.943 95.8853 25.8891 94.7618 27.6752L94.5799 27.9772ZM86.7899 19.0499C88.2771 23.3301 93.0472 26.2593 94.3039 26.9705C96.4276 23.5509 98.4246 19.5793 98.0609 18.9103C98.0317 18.8713 97.6842 18.5206 94.9371 18.5206C92.0373 18.5174 88.118 18.9071 86.7899 19.0499Z" fill="#575C60"/>
<path d="M95.9375 29.1982C95.9375 29.1982 107.345 30.3803 107.761 31.8287C108.176 33.2705 102 39.5154 102 39.5154C102 39.5154 96.2882 34.8033 95.9375 29.1982Z" fill="#64696D"/>
<path d="M102.021 40.0313L101.752 39.8072C101.515 39.6124 95.9099 34.9296 95.5527 29.2206L95.5234 28.7725L95.9716 28.8179C99.4785 29.1816 107.681 30.1981 108.123 31.7244C108.568 33.2637 103.752 38.2842 102.265 39.7846L102.021 40.0313ZM96.358 29.6233C96.8808 34.134 100.901 38.0212 101.972 38.9857C104.788 36.1084 107.603 32.6694 107.389 31.9322C107.054 31.2015 101.492 30.1851 96.358 29.6233Z" fill="#575C60"/>
<path d="M100.887 43.4932C100.887 43.4932 112.291 44.6785 112.707 46.1236C113.122 47.5655 106.946 53.8071 106.946 53.8071C106.946 53.8071 101.234 49.1015 100.887 43.4932Z" fill="#64696D"/>
<path d="M106.967 54.3266L106.701 54.1058C106.461 53.9077 100.859 49.2216 100.502 43.5158L100.473 43.0645L100.924 43.1131C104.431 43.4768 112.633 44.49 113.075 46.0196C113.517 47.5588 108.701 52.5794 107.214 54.083L106.967 54.3266ZM101.304 43.9217C101.83 48.4292 105.847 52.3164 106.922 53.2841C109.734 50.4101 112.549 46.9678 112.338 46.2306C112 45.5 106.438 44.4803 101.304 43.9217Z" fill="#575C60"/>
<path d="M106.579 59.1562C106.579 59.1562 117.649 62.1634 117.824 63.654C118.003 65.1446 110.901 70.3145 110.901 70.3145C110.901 70.3145 106.024 64.7451 106.579 59.1562Z" fill="#64696D"/>
<path d="M110.843 70.8274L110.616 70.5611C110.412 70.3338 105.635 64.8099 106.203 59.1171L106.249 58.6689L106.684 58.7858C110.087 59.7113 118.02 62.03 118.208 63.6083C118.396 65.1931 112.837 69.3725 111.129 70.6163L110.843 70.8274ZM106.927 59.6464C106.723 64.1799 110.064 68.6646 110.967 69.7947C114.211 67.4046 117.539 64.4591 117.448 63.6992C117.231 62.9263 111.905 61.0233 106.927 59.6464Z" fill="#575C60"/>
<path d="M109.693 77.3994C109.693 77.3994 120.759 80.4065 120.938 81.9036C121.113 83.3942 114.011 88.5576 114.011 88.5576C114.011 88.5576 109.137 82.9883 109.693 77.3994Z" fill="#64696D"/>
<path d="M113.956 89.0709L113.728 88.8111C113.524 88.5773 108.747 83.0534 109.312 77.3638L109.357 76.9189L109.793 77.0326C113.192 77.9581 121.129 80.2801 121.317 81.8519C121.509 83.4431 115.946 87.629 114.238 88.8663L113.956 89.0709ZM110.039 77.8931C109.832 82.4266 113.173 86.9114 114.079 88.035C117.32 85.6514 120.648 82.7059 120.557 81.946C120.343 81.1731 115.017 79.2701 110.039 77.8931Z" fill="#575C60"/>
<path d="M112.569 99.0859C112.569 99.0859 122.382 105.016 122.145 106.5C121.908 107.984 113.657 110.998 113.657 110.998C113.657 110.998 110.494 104.305 112.569 99.0859Z" fill="#64696D"/>
<path d="M113.454 111.479L113.308 111.16C113.175 110.881 110.1 104.259 112.21 98.9369L112.376 98.5244L112.763 98.7583C115.782 100.58 122.77 104.987 122.517 106.559C122.264 108.137 115.769 110.631 113.785 111.355L113.454 111.479ZM112.763 99.6481C111.318 103.954 113.298 109.189 113.857 110.514C117.63 109.111 121.64 107.195 121.764 106.442C121.77 105.636 117.172 102.347 112.763 99.6481Z" fill="#575C60"/>
<path d="M113.293 119.49C113.293 119.49 123.109 125.42 122.872 126.911C122.632 128.388 114.38 131.408 114.38 131.408C114.38 131.408 111.224 124.709 113.293 119.49Z" fill="#64696D"/>
<path d="M114.187 131.883L114.041 131.571C113.908 131.285 110.836 124.664 112.943 119.348L113.109 118.929L113.496 119.156C116.512 120.984 123.503 125.391 123.25 126.963C122.994 128.541 116.502 131.035 114.518 131.759L114.187 131.883ZM113.496 120.059C112.051 124.358 114.031 129.593 114.59 130.925C118.363 129.515 122.373 127.603 122.497 126.846C122.5 126.041 117.902 122.751 113.496 120.059Z" fill="#575C60"/>
<path d="M114.507 139.602C114.507 139.602 124.359 143.742 124.122 145.226C123.882 146.71 115.634 149.724 115.634 149.724C115.634 149.724 112.435 144.82 114.507 139.602Z" fill="#64696D"/>
<path d="M115.482 150.188L115.316 149.935C115.18 149.73 112.034 144.804 114.154 139.462L114.297 139.102L114.654 139.254C117.7 140.53 124.756 143.68 124.5 145.285C124.243 146.869 117.745 149.363 115.765 150.084L115.482 150.188ZM114.725 140.108C113.264 144.288 115.216 148.227 115.797 149.26C119.58 147.85 123.623 145.924 123.743 145.161C123.711 144.414 119.122 141.989 114.725 140.108Z" fill="#575C60"/>
<path d="M117.074 164.302C117.074 164.302 126.929 168.449 126.689 169.933C126.452 171.41 118.197 174.431 118.197 174.431C118.197 174.431 115.002 169.527 117.074 164.302Z" fill="#64696D"/>
<path d="M118.049 174.892L117.883 174.639C117.747 174.431 114.6 169.508 116.72 164.166L116.863 163.799L117.224 163.951C120.27 165.234 127.323 168.384 127.066 169.995C126.813 171.567 120.315 174.061 118.334 174.785L118.049 174.892ZM117.295 164.815C115.837 168.982 117.789 172.934 118.37 173.96C122.153 172.551 126.192 170.632 126.316 169.868C126.28 169.19 122.185 166.894 117.295 164.815Z" fill="#575C60"/>
<path d="M122.913 189.304C122.913 189.304 132.213 191.366 131.976 192.85C131.739 194.334 124.04 199.433 124.04 199.433C124.04 199.433 120.841 194.529 122.913 189.304Z" fill="#64696D"/>
<path d="M123.931 199.965L123.72 199.641C123.584 199.43 120.44 194.51 122.561 189.161L122.681 188.862L122.999 188.934C126.607 189.726 132.614 191.304 132.358 192.912C132.104 194.477 125.564 198.881 124.256 199.748L123.931 199.965ZM123.152 189.749C121.684 193.867 123.535 197.754 124.162 198.894C127.772 196.471 131.465 193.584 131.598 192.785C131.53 192.165 127.623 190.768 123.152 189.749Z" fill="#575C60"/>
<path d="M131.555 214.553C131.555 214.553 140.754 212.091 141.225 213.52C141.696 214.946 137.211 223.022 137.211 223.022C137.211 223.022 132.12 220.142 131.555 214.553Z" fill="#64696D"/>
<path d="M137.362 223.548L137.025 223.357C136.81 223.237 131.751 220.311 131.173 214.592L131.141 214.267L131.452 214.186C131.68 214.121 137.06 212.695 139.785 212.695C140.457 212.695 141.379 212.77 141.59 213.4C142.087 214.917 138.307 221.837 137.544 223.207L137.362 223.548ZM131.972 214.839C132.563 219.164 135.992 221.765 137.077 222.48C139.171 218.674 141.119 214.413 140.863 213.637C140.863 213.637 140.707 213.452 139.788 213.452C137.531 213.455 133.183 214.527 131.972 214.839Z" fill="#575C60"/>
<path d="M148.082 233.339C148.082 233.339 156.047 228.121 156.944 229.332C157.84 230.53 156.116 239.607 156.116 239.607C156.116 239.607 150.371 238.47 148.082 233.339Z" fill="#64696D"/>
<path d="M156.416 240.058L156.036 239.983C155.796 239.938 150.071 238.753 147.727 233.501L147.594 233.209L147.867 233.024C148.532 232.592 154.419 228.767 156.449 228.767C156.813 228.767 157.079 228.88 157.248 229.104C158.193 230.377 156.78 238.135 156.488 239.678L156.416 240.058ZM148.565 233.485C150.477 237.392 154.556 238.795 155.812 239.142C156.605 234.862 157.118 230.205 156.637 229.559C156.637 229.559 156.589 229.527 156.452 229.527C155.004 229.53 150.51 232.232 148.565 233.485Z" fill="#575C60"/>
<path d="M171.328 248.063C171.328 248.063 179.297 242.844 180.19 244.049C181.083 245.254 179.362 254.33 179.362 254.33C179.362 254.33 173.617 253.194 171.328 248.063Z" fill="#64696D"/>
<path d="M179.663 254.779L179.287 254.704C179.043 254.652 173.321 253.473 170.977 248.222L170.844 247.923L171.113 247.745C171.779 247.306 177.669 243.487 179.696 243.487C180.056 243.487 180.326 243.595 180.491 243.819C181.436 245.095 180.024 252.856 179.731 254.399L179.663 254.779ZM171.815 248.203C173.727 252.116 177.806 253.519 179.059 253.86C179.848 249.586 180.365 244.929 179.884 244.276C179.884 244.276 179.835 244.251 179.702 244.251C178.251 244.251 173.76 246.952 171.815 248.203Z" fill="#575C60"/>
<path d="M191.574 255.925C191.574 255.925 196.831 247.979 198.134 248.739C199.432 249.486 201.43 258.507 201.43 258.507C201.43 258.507 195.705 259.731 191.574 255.925Z" fill="#64696D"/>
<path d="M199.238 259.079C197.047 259.079 193.89 258.579 191.315 256.205L191.078 255.984L191.257 255.711C192.406 253.974 196.287 248.304 197.933 248.304C198.076 248.304 198.206 248.343 198.326 248.411C199.699 249.21 201.463 256.89 201.8 258.426L201.882 258.799L201.505 258.881C201.469 258.887 200.576 259.079 199.238 259.079ZM192.075 255.864C194.423 257.88 197.248 258.312 199.238 258.312C199.992 258.312 200.599 258.247 200.966 258.199C200.008 253.961 198.641 249.47 197.943 249.073C197.102 249.07 194.345 252.477 192.075 255.864Z" fill="#575C60"/>
<path d="M217.801 261.566C217.801 261.566 223.061 253.619 224.363 254.379C225.659 255.133 227.656 264.154 227.656 264.154C227.656 264.154 221.931 265.372 217.801 261.566Z" fill="#64696D"/>
<path d="M225.465 264.719C223.27 264.719 220.117 264.219 217.542 261.845L217.305 261.625L217.483 261.358C218.633 259.621 222.516 253.944 224.16 253.944C224.302 253.944 224.436 253.983 224.552 254.052C225.926 254.85 227.689 262.531 228.027 264.073L228.108 264.44L227.731 264.521C227.699 264.534 226.803 264.719 225.465 264.719ZM218.302 261.501C220.649 263.524 223.478 263.956 225.465 263.956C226.218 263.956 226.826 263.885 227.192 263.836C226.231 259.592 224.867 255.113 224.166 254.708C223.328 254.708 220.571 258.114 218.302 261.501Z" fill="#575C60"/>
<path d="M243.461 268.148C243.461 268.148 249.234 260.569 250.481 261.413C251.728 262.251 253.121 271.376 253.121 271.376C253.121 271.376 247.328 272.214 243.461 268.148Z" fill="#64696D"/>
<path d="M251.828 271.834C249.815 271.834 246.013 271.383 243.181 268.408L242.957 268.175L243.155 267.915C244.042 266.755 248.539 260.962 250.247 260.962C250.419 260.962 250.565 261.007 250.692 261.089C252.01 261.975 253.26 269.766 253.497 271.318L253.556 271.698L253.176 271.756C253.153 271.756 252.64 271.834 251.828 271.834ZM243.964 268.116C247.065 271.169 251.358 271.136 252.679 271.035C252.001 266.749 250.935 262.18 250.263 261.725C249.299 261.728 246.078 265.378 243.964 268.116Z" fill="#575C60"/>
<path d="M263.941 277.2C263.941 277.2 271.121 270.945 272.173 272.017C273.225 273.082 272.754 282.312 272.754 282.312C272.754 282.312 266.913 281.977 263.941 277.2Z" fill="#64696D"/>
<path d="M273.115 282.717L272.732 282.691C272.482 282.678 266.657 282.285 263.617 277.407L263.445 277.122L263.692 276.911C264.325 276.358 269.943 271.507 271.817 271.507C272.141 271.507 272.339 271.64 272.447 271.741C273.557 272.877 273.216 280.759 273.135 282.327L273.115 282.717ZM264.445 277.271C266.881 280.898 271.105 281.723 272.395 281.895C272.593 277.55 272.469 272.864 271.904 272.286C271.904 272.286 271.875 272.273 271.82 272.273C270.664 272.273 266.796 275.254 264.445 277.271Z" fill="#575C60"/>
<path d="M283.543 289.563C283.543 289.563 292.135 285.451 292.862 286.766C293.587 288.085 290.664 296.84 290.664 296.84C290.664 296.84 285.128 294.953 283.543 289.563Z" fill="#64696D"/>
<path d="M290.905 297.324L290.542 297.203C290.308 297.122 284.797 295.187 283.177 289.669L283.086 289.351L283.378 289.211C283.644 289.091 289.866 286.123 292.155 286.123C292.681 286.123 293.032 286.276 293.198 286.581C293.964 287.977 291.525 295.473 291.029 296.963L290.905 297.324ZM284.008 289.763C285.385 293.904 289.233 295.826 290.431 296.333C291.785 292.206 292.922 287.656 292.529 286.945C292.526 286.951 292.451 286.88 292.155 286.88C290.308 286.886 285.284 289.169 284.008 289.763Z" fill="#575C60"/>
<path d="M299.887 305.582C299.887 305.582 309.122 303.234 309.573 304.676C310.028 306.102 305.439 314.12 305.439 314.12C305.439 314.12 300.377 311.178 299.887 305.582Z" fill="#64696D"/>
<path d="M305.581 314.649L305.246 314.457C305.032 314.331 300.012 311.343 299.502 305.615L299.473 305.29L299.791 305.209C300.015 305.15 305.282 303.825 308.039 303.825C308.753 303.825 309.727 303.9 309.932 304.556C310.412 306.072 306.552 312.947 305.769 314.311L305.581 314.649ZM300.301 305.874C300.833 310.2 304.236 312.847 305.308 313.581C307.448 309.794 309.451 305.556 309.208 304.783C309.208 304.783 309.045 304.592 308.042 304.592C305.756 304.595 301.499 305.582 300.301 305.874Z" fill="#575C60"/>
<path d="M311.754 322.258C311.754 322.258 320.989 319.923 321.44 321.352C321.895 322.784 317.31 330.802 317.31 330.802C317.31 330.802 312.247 327.859 311.754 322.258Z" fill="#64696D"/>
<path d="M317.449 331.328L317.118 331.13C316.904 331.003 311.88 328.022 311.377 322.293L311.348 321.968L311.663 321.887C311.883 321.829 317.154 320.504 319.907 320.504C320.625 320.504 321.599 320.579 321.804 321.241C322.281 322.751 318.417 329.626 317.641 330.99L317.449 331.328ZM312.169 322.556C312.705 326.882 316.102 329.529 317.176 330.263C319.32 326.476 321.323 322.238 321.076 321.465C321.076 321.465 320.914 321.267 319.907 321.267C317.625 321.27 313.367 322.257 312.169 322.556Z" fill="#575C60"/>
<path d="M324.965 338.7C324.965 338.7 334.197 336.358 334.648 337.794C335.103 339.226 330.518 347.244 330.518 347.244C330.518 347.244 325.458 344.292 324.965 338.7Z" fill="#64696D"/>
<path d="M330.659 347.764L330.328 347.572C330.114 347.445 325.09 344.464 324.584 338.736L324.555 338.411L324.87 338.33C325.094 338.271 330.361 336.946 333.118 336.946C333.832 336.946 334.809 337.018 335.014 337.677C335.495 339.187 331.627 346.068 330.848 347.432L330.659 347.764ZM325.379 338.992C325.915 343.311 329.312 345.961 330.387 346.705C332.527 342.918 334.533 338.68 334.29 337.914C334.29 337.914 334.127 337.709 333.121 337.709C330.835 337.709 326.578 338.7 325.379 338.992Z" fill="#575C60"/>
<path d="M338.168 353.641C338.168 353.641 346.841 349.708 347.539 351.04C348.238 352.371 345.137 361.068 345.137 361.068C345.137 361.068 339.639 359.064 338.168 353.641Z" fill="#64696D"/>
<path d="M345.369 361.565L345.008 361.432C344.778 361.344 339.306 359.289 337.799 353.745L337.715 353.434L338.01 353.3C338.273 353.18 344.459 350.391 346.791 350.391C347.346 350.391 347.716 350.55 347.882 350.865C348.619 352.268 346.028 359.721 345.502 361.205L345.369 361.565ZM338.627 353.859C339.916 358.025 343.729 360.029 344.914 360.562C346.356 356.457 347.58 351.936 347.206 351.219C347.206 351.219 347.122 351.151 346.791 351.151C344.898 351.151 339.907 353.294 338.627 353.859Z" fill="#575C60"/>
<path d="M351.48 364.135C351.48 364.135 359.446 360.52 360.086 361.744C360.725 362.962 357.881 370.948 357.881 370.948C357.881 370.948 352.831 369.106 351.48 364.135Z" fill="#64696D"/>
<path d="M358.113 371.441L357.752 371.308C357.538 371.233 352.502 369.336 351.115 364.228L351.027 363.916L351.323 363.783C351.566 363.67 357.249 361.107 359.392 361.107C359.918 361.107 360.266 361.26 360.422 361.565C361.107 362.864 358.723 369.716 358.239 371.08L358.113 371.441ZM351.943 364.342C353.119 368.102 356.541 369.931 357.658 370.437C358.973 366.69 360.09 362.572 359.753 361.919C359.743 361.919 359.662 361.867 359.395 361.867C357.681 361.871 353.154 363.809 351.943 364.342Z" fill="#575C60"/>
<path d="M368.48 375.708C368.48 375.708 375.215 370.678 376.076 371.662C376.936 372.646 375.943 380.592 375.943 380.592C375.943 380.592 370.799 379.988 368.48 375.708Z" fill="#64696D"/>
<path d="M376.278 381.018L375.902 380.972C375.684 380.946 370.534 380.294 368.147 375.893L367.988 375.601L368.251 375.403C368.836 374.964 373.992 371.146 375.717 371.146C375.999 371.146 376.213 371.233 376.366 371.405C377.269 372.438 376.561 378.731 376.324 380.641L376.278 381.018ZM368.979 375.815C370.872 378.982 374.447 379.927 375.613 380.147C376.041 376.52 376.233 372.454 375.795 371.915C375.791 371.922 375.769 371.915 375.713 371.915C374.655 371.915 371.138 374.231 368.979 375.815Z" fill="#575C60"/>
<path d="M383.727 383.612C383.727 383.612 388.903 377.903 389.848 378.621C390.796 379.326 391.289 386.538 391.289 386.538C391.289 386.538 386.561 386.954 383.727 383.612Z" fill="#64696D"/>
<path d="M390.772 386.934C389.349 386.934 385.787 386.635 383.436 383.852L383.219 383.599L383.443 383.352C384.225 382.482 388.216 378.176 389.639 378.176C389.807 378.176 389.957 378.221 390.077 378.316C391.083 379.062 391.551 384.771 391.671 386.509L391.697 386.882L391.324 386.915C391.324 386.915 391.119 386.934 390.772 386.934ZM384.238 383.612C386.45 385.983 389.72 386.2 390.879 386.168C390.629 382.881 390.096 379.28 389.619 378.926C388.94 378.936 386.395 381.271 384.238 383.612Z" fill="#575C60"/>
<path d="M397.707 387.606C397.707 387.606 402.883 381.904 403.828 382.615C404.776 383.326 405.27 390.529 405.27 390.529C405.27 390.529 400.542 390.955 397.707 387.606Z" fill="#64696D"/>
<path d="M404.749 390.932C403.327 390.932 399.768 390.633 397.414 387.857L397.199 387.597L397.423 387.35C398.209 386.486 402.197 382.174 403.622 382.174C403.791 382.174 403.937 382.226 404.057 382.313C405.067 383.064 405.532 388.776 405.652 390.507L405.678 390.88L405.304 390.913C405.304 390.913 405.1 390.932 404.749 390.932ZM398.216 387.607C400.43 389.987 403.7 390.188 404.859 390.162C404.613 386.883 404.077 383.281 403.599 382.918C402.921 382.94 400.372 385.272 398.216 387.607Z" fill="#575C60"/>
<path d="M413.969 393.182C413.969 393.182 417.115 387.327 418.034 387.645C418.953 387.957 420.772 393.514 420.772 393.514C420.772 393.514 416.956 395.085 413.969 393.182Z" fill="#64696D"/>
<path d="M417.452 394.507C416.046 394.507 414.806 394.166 413.764 393.507L413.465 393.315L413.634 393.004C414.79 390.854 416.887 387.246 417.959 387.246C418.027 387.246 418.092 387.259 418.157 387.278C419.147 387.616 420.57 391.669 421.135 393.4L421.245 393.738L420.917 393.871C420.855 393.894 419.346 394.507 417.452 394.507ZM414.478 393.043C415.332 393.507 416.329 393.741 417.449 393.741C418.686 393.741 419.764 393.455 420.287 393.277C419.469 390.841 418.362 388.214 417.904 387.999C417.459 388.123 415.796 390.64 414.478 393.043Z" fill="#575C60"/>
<path d="M430.723 393.621C430.723 393.621 433.869 387.766 434.788 388.077C435.707 388.396 437.529 393.959 437.529 393.959C437.529 393.959 433.71 395.524 430.723 393.621Z" fill="#64696D"/>
<path d="M434.206 394.939C432.8 394.939 431.556 394.608 430.514 393.942L430.215 393.751L430.384 393.433C431.536 391.289 433.634 387.685 434.709 387.685C434.777 387.685 434.845 387.691 434.907 387.717C435.901 388.055 437.32 392.101 437.885 393.832L437.995 394.163L437.667 394.303C437.605 394.332 436.099 394.939 434.206 394.939ZM431.231 393.481C432.085 393.946 433.085 394.179 434.206 394.179C435.443 394.179 436.518 393.887 437.044 393.722C436.222 391.28 435.118 388.652 434.657 388.438C434.212 388.558 432.553 391.085 431.231 393.481Z" fill="#575C60"/>
<path d="M114.825 319.01C114.825 319.01 85.1584 288.78 88.1199 222.106C91.0813 155.433 96.358 106.023 90.1234 82.5176C83.8888 59.0157 75.2544 56.3756 75.2544 56.3756C68.5392 60.2173 54.7905 59.6555 45.9938 58.2136C37.2004 56.775 22.1301 63.8122 16.3727 59.3729C10.6187 54.9369 13.2132 50.5334 26.806 43.0643C11.3363 43.9021 2.34479 43.0642 1.02642 40.5474C-0.291945 38.0307 0.188644 30.1134 4.74448 26.395C9.30032 22.6767 24.0492 23.9952 28.6082 21.5986C33.1641 19.1987 38.9214 5.28659 51.3939 1.93197C63.8632 -1.42914 81.6092 -0.711457 89.6461 18.7148C98.2804 26.9893 114.429 58.2104 114.828 104.256C115.228 150.311 119.706 193.801 133.776 216.826C147.846 239.85 163.832 237.61 181.101 253.925C214.355 258.721 249.211 263.521 276.072 282.385C302.933 301.253 310.284 325.56 340.344 354.021C370.403 382.482 404.301 392.393 433.717 392.393C463.134 392.393 492.554 377.042 494.791 378.643C497.031 380.241 465.05 397.514 434.997 399.752C404.937 401.989 358.161 388.318 332.349 382.164C310.206 376.886 299.858 387.282 299.858 387.282C292.46 392.958 265.522 398.573 249.85 388.291C224.59 393.036 190.056 395.852 157.438 372.892C124.817 349.926 118.26 330.035 114.825 319.01Z" fill="#6F797B"/>
<path d="M494.79 378.644C492.553 377.046 463.62 394.94 434.204 394.94C404.784 394.94 367.772 384.437 337.716 355.977C307.657 327.516 302.932 301.257 276.071 282.389C249.21 263.525 214.355 258.725 181.1 253.929C163.831 237.617 143.565 243.17 129.495 220.142C115.425 197.118 111.876 151.053 111.473 105.004C111.074 58.9514 97.981 31.1954 89.3434 22.9209C82.6509 0.955142 63.8626 -1.42526 51.39 1.93585C38.9175 5.28723 33.1634 19.1993 28.6043 21.6024C24.0452 23.9958 9.29641 22.6806 4.74057 26.3989C0.184738 30.1172 -0.295851 38.0313 1.02252 40.5513C2.34088 43.0681 11.3357 43.9059 26.8021 43.0681C13.2125 50.5405 10.6148 54.9408 16.3688 59.3768C22.1261 63.8161 37.3231 52.8884 46.1165 54.327C54.91 55.7657 70.0452 59.156 81.115 45.6076C81.115 45.6076 83.8848 59.0196 90.1195 82.5215C96.3541 106.027 91.0774 155.437 88.116 222.11C85.1545 288.784 114.821 319.014 114.821 319.014C118.257 330.039 124.813 349.93 157.431 372.896C157.782 373.136 158.136 373.367 158.486 373.613C167.371 369.84 174.842 363.719 175.317 353.811C185.604 361.351 182.34 374.438 174.378 382.557C201.658 394.816 228.931 392.225 249.847 388.299C251.964 389.689 254.292 390.78 256.744 391.627C272.525 375.981 281.03 353.668 286.819 332.426C294.405 351.053 292.025 374.036 284.179 392.949C291.148 391.686 296.977 389.497 299.854 387.292C299.854 387.292 310.202 376.897 332.345 382.174C358.157 388.325 404.933 401.999 434.993 399.762C465.049 397.515 497.031 380.245 494.79 378.644Z" fill="#838A90"/>
<path d="M494.791 378.644C492.554 377.046 463.621 394.939 434.204 394.939C404.785 394.939 361.941 385.717 331.882 357.25C301.822 328.789 302.933 301.257 276.072 282.386C249.211 263.521 214.355 258.722 181.101 253.925C163.832 237.613 138.137 246.047 124.07 223.016C110 199.992 108.178 151.046 107.778 104.997C107.382 58.9448 94.9195 32.9262 86.2884 24.6484C82.0184 2.71509 63.8665 -1.43192 51.3939 1.9292C38.9214 5.28057 33.1673 19.1927 28.6082 21.5958C24.0492 23.9892 9.30032 22.674 4.74448 26.3923C0.188644 30.1107 -0.291945 38.0247 1.02642 40.5448C2.34479 43.0615 11.3396 43.8994 26.806 43.0615C13.2165 50.5339 10.6187 54.9342 16.3727 59.3702C22.1301 63.8095 37.7069 49.2576 46.5004 50.6962C55.2938 52.1348 70.179 55.0673 81.1221 43.4869C81.1221 43.4869 86.9379 56.061 90.1234 82.5115C93.0297 106.656 91.0813 155.427 88.1199 222.1C85.1584 288.774 114.825 319.004 114.825 319.004C118.26 330.029 124.817 349.92 157.435 372.886C157.786 373.126 158.139 373.357 158.49 373.604C167.375 369.83 174.846 363.709 175.32 353.801C185.608 361.341 182.344 374.429 174.382 382.547C201.662 394.806 228.935 392.215 249.85 388.289C251.968 389.679 254.296 390.77 256.748 391.617C272.529 375.971 281.033 353.658 286.823 332.416C294.409 351.044 292.028 374.026 284.183 392.939C291.152 391.676 296.98 389.487 299.858 387.282C299.858 387.282 310.206 376.887 332.349 382.164C358.161 388.315 404.937 401.99 434.997 399.752C465.05 397.515 497.031 380.245 494.791 378.644Z" fill="#909599"/>
<path d="M428.025 400.382C403.242 400.382 370.257 392.059 346.169 385.983C341.152 384.713 336.411 383.521 332.264 382.531C328.131 381.547 324.124 381.047 320.344 381.047C306.784 381.047 300.195 387.483 300.13 387.548C295.792 390.883 284.625 394.39 272.402 394.39C266.08 394.39 257.039 393.4 249.772 388.688C237.946 390.909 227.957 391.935 218.342 391.935C195.122 391.935 175.125 385.807 157.22 373.197C124.125 349.894 117.845 329.954 114.49 319.202C112.925 317.533 84.8756 286.653 87.7429 222.084C88.4735 205.632 89.3665 189.888 90.1491 175.999C92.6397 132.025 94.4386 100.255 89.7561 82.6087C84.106 61.3152 76.4263 57.2851 75.2866 56.7915C70.9678 59.1784 64.2558 59.685 59.3558 59.685C55.0142 59.685 50.2473 59.2953 45.935 58.5906C45.1525 58.4574 44.2725 58.3925 43.3145 58.3925C40.0673 58.3925 36.2324 59.1264 32.524 59.8311C28.9099 60.5229 25.1756 61.2372 22.0843 61.2372C19.4573 61.2372 17.5154 60.7242 16.1451 59.672C13.9857 58.0028 13.0018 56.3499 13.1349 54.5962C13.372 51.5079 16.9991 48.1663 25.1951 43.5257C21.9804 43.6816 19.0449 43.7529 16.4439 43.7529C6.91654 43.7529 1.76321 42.7592 0.691633 40.7166C-0.753376 37.953 -0.139643 29.8798 4.50712 26.09C7.16009 23.924 12.9044 23.4304 18.4571 22.9563C22.5973 22.6023 26.507 22.2646 28.4326 21.2546C29.9198 20.4688 31.644 18.2702 33.6411 15.7209C37.5799 10.6874 42.9768 3.79631 51.2929 1.55881C55.1246 0.526123 58.9271 0 62.59 0C71.5783 0 83.6157 3.21176 89.9672 18.4943C98.069 26.3336 114.802 57.4572 115.208 104.256C115.692 159.856 121.871 196.617 134.1 216.628C142.419 230.238 151.43 234.97 160.974 239.987C167.514 243.419 174.278 246.969 181.276 253.561L182.639 253.753C215.634 258.517 249.753 263.43 276.289 282.074C290.989 292.401 299.695 304.114 309.771 317.682C317.831 328.535 326.968 340.827 340.606 353.742C374.014 385.372 409.678 392.013 433.717 392.013C453.528 392.013 473.125 385.106 484.835 380.978C489.67 379.273 492.862 378.15 494.264 378.15C494.592 378.15 494.839 378.208 495.015 378.335C495.245 378.501 495.336 378.78 495.255 379.066C494.407 382.092 463.523 398.011 435.026 400.135C432.834 400.301 430.476 400.382 428.025 400.382ZM320.337 380.287C324.176 380.287 328.248 380.793 332.436 381.79C336.586 382.781 341.331 383.979 346.351 385.246C370.4 391.302 403.333 399.612 428.021 399.612C430.457 399.612 432.792 399.531 434.964 399.372C463.773 397.222 493.547 381.449 494.495 378.929C494.45 378.916 494.372 378.91 494.258 378.91C492.985 378.91 489.67 380.076 485.085 381.693C473.33 385.84 453.652 392.78 433.714 392.78C409.535 392.78 373.666 386.1 340.077 354.297C326.39 341.34 317.233 329.009 309.157 318.137C299.12 304.628 290.45 292.956 275.851 282.694C249.46 264.161 215.436 259.257 182.529 254.513L180.922 254.279L180.834 254.204C173.882 247.635 167.137 244.088 160.614 240.662C150.976 235.6 141.874 230.819 133.444 217.031C121.14 196.9 114.925 160.009 114.441 104.263C114.036 57.5969 97.3773 26.6616 89.3762 18.9911L89.2885 18.8644C83.1026 3.9099 71.3574 0.769645 62.5867 0.769645C58.9888 0.769645 55.2545 1.28277 51.491 2.29922C43.4184 4.47177 38.1125 11.2524 34.2386 16.1951C32.1052 18.9197 30.4199 21.076 28.7833 21.9333C26.7245 23.018 22.7402 23.3622 18.5188 23.7259C13.333 24.1708 7.45883 24.6709 4.98445 26.6908C0.694888 30.1916 0.0486873 37.8588 1.36381 40.3691C1.87687 41.3531 4.5201 42.9995 16.4406 42.9995C19.4638 42.9995 22.9448 42.8924 26.7895 42.6813L28.4618 42.5936L26.9941 43.399C18.1616 48.2572 14.1221 51.732 13.898 54.6612C13.7844 56.1355 14.6709 57.5741 16.6127 59.0679C17.8402 60.0194 19.6359 60.4806 22.0843 60.4806C25.1042 60.4806 28.6404 59.8019 32.3812 59.0875C36.1252 58.3698 39.9959 57.6359 43.3145 57.6359C44.3147 57.6359 45.2369 57.7008 46.0584 57.8404C50.3318 58.5386 55.0532 58.925 59.3558 58.925C64.2266 58.925 70.9061 58.4249 75.0658 56.0413L75.2054 55.9601L75.3645 56.0089C75.725 56.1193 84.2716 58.9803 90.49 82.4204C95.205 100.181 93.4028 132.009 90.9057 176.044C90.1231 189.927 89.2301 205.671 88.4995 222.123C85.5802 287.838 114.799 318.429 115.097 318.734L115.162 318.803L115.192 318.884C118.51 329.532 124.686 349.361 157.655 372.574C175.434 385.083 195.281 391.172 218.339 391.172C227.944 391.172 237.936 390.139 249.779 387.905L249.928 387.879L250.058 387.96C257.186 392.64 266.141 393.624 272.396 393.624C284.449 393.624 295.422 390.191 299.623 386.97C299.857 386.739 306.439 380.287 320.337 380.287Z" fill="#575C60"/>
<path d="M386.073 391.312C330.113 371.613 320.284 355.895 267.481 355.921C248.255 350.193 228.106 348.221 207.005 355.921C185.898 363.621 169.273 356.587 155.202 345.708C141.132 334.835 132.254 324.106 127.101 309.161C121.948 294.216 115.901 294.301 115.901 294.301C104.039 278.551 99.6524 248.018 100.89 194.373C102.12 140.722 111.641 81.2124 79.182 51.2871C78.1072 52.8719 76.805 54.8366 75.3633 56.4116C76.3569 56.8013 84.2931 60.5197 90.1316 82.5212C96.3662 106.026 91.0895 155.436 88.1281 222.11C85.1666 288.783 114.833 319.014 114.833 319.014C118.269 330.039 124.825 349.93 157.443 372.896C190.061 395.855 224.595 393.04 249.855 388.295C265.526 398.577 292.465 392.965 299.862 387.285C299.862 387.285 310.211 376.89 332.354 382.167C358.166 388.318 404.942 401.993 435.002 399.755C448.617 398.739 462.619 394.644 473.663 390.312C452.235 397.07 419.21 402.983 386.073 391.312Z" fill="#B2BBBF"/>
<path d="M267.482 355.918C248.255 350.189 228.106 348.218 207.005 355.918C196.819 359.63 187.681 359.909 179.368 357.987C182.979 363.449 182.255 370.265 179.086 376.189C205.31 386.636 230.509 381.294 251.034 377.432C254.847 379.933 259.552 381.579 264.588 382.57C270.547 374.604 275.213 365.576 278.996 356.184C275.385 356.009 271.56 355.918 267.482 355.918Z" fill="#C6CFD4"/>
<path d="M267.481 355.918C248.254 350.189 228.105 348.218 207.004 355.918C196.818 359.63 190.434 360.091 182.121 358.168C185.735 363.624 185.459 368.888 182.293 374.812C208.518 385.252 229.93 378.67 250.455 374.812C254.268 377.312 259.551 381.579 264.591 382.57C270.549 374.604 275.215 365.576 278.998 356.184C275.384 356.009 271.559 355.918 267.481 355.918Z" fill="#D5DCE0"/>
<path d="M174.955 356.749C167.795 354.359 161.258 350.394 155.199 345.708C141.128 334.835 132.251 324.106 127.097 309.161C121.944 294.216 115.898 294.301 115.898 294.301C104.036 278.551 99.6485 248.018 100.886 194.373C102.116 140.722 111.637 81.2124 79.1781 51.2871C78.1033 52.8719 76.8011 54.8366 75.3594 56.4116C76.353 56.8013 84.2892 60.5197 90.1277 82.5212C96.3623 106.026 91.0856 155.436 88.1242 222.11C85.1627 288.783 114.829 319.014 114.829 319.014C118.265 330.039 128.195 343.256 160.81 366.216C162.511 367.42 164.213 368.531 165.914 369.57C170.428 366.391 173.844 362.224 174.955 356.749Z" fill="#C6CFD4"/>
<path d="M174.955 356.749C167.795 354.359 161.258 350.394 155.199 345.708C141.128 334.835 132.251 324.106 127.097 309.161C121.944 294.216 115.898 294.301 115.898 294.301C104.036 278.551 99.6485 248.018 100.886 194.373C102.116 140.722 111.637 81.2124 79.1781 51.2871C78.1033 52.8719 76.8011 54.8366 75.3594 56.4116C76.353 56.8013 84.2892 60.5197 90.1277 82.5212C96.3623 106.026 91.0856 155.436 88.1242 222.11C85.1627 288.783 114.556 313.451 114.556 313.451C117.992 324.486 128.195 343.256 160.81 366.216C162.511 367.42 164.213 368.531 165.914 369.57C170.428 366.391 173.844 362.224 174.955 356.749Z" fill="#D5DCE0"/>
<path d="M386.071 391.312C339.769 375.01 325.049 361.439 291.441 357.253C291.476 365.937 290.103 374.766 287.645 383.138C295.379 382.167 301.851 380.203 304.751 377.975C304.751 377.975 307.664 372.698 329.81 377.975C355.622 384.126 404.94 401.993 435 399.756C448.615 398.739 462.617 394.644 473.661 390.312C452.233 397.07 419.209 402.984 386.071 391.312Z" fill="#C6CFD4"/>
<path d="M386.074 391.312C339.772 375.01 327.332 361.741 293.723 357.555C293.759 366.232 292.915 371.217 290.453 379.589C298.188 378.618 302.351 376.841 305.251 374.623C305.251 374.623 309.17 370.791 331.313 376.062C357.125 382.213 404.94 401.989 435.003 399.752C448.618 398.736 462.62 394.641 473.664 390.309C452.236 397.07 419.212 402.983 386.074 391.312Z" fill="#D5DCE0"/>
<path d="M428.025 400.382C403.242 400.382 370.254 392.059 346.169 385.983C341.152 384.713 336.411 383.522 332.265 382.531C328.131 381.547 324.124 381.047 320.344 381.047C306.787 381.047 300.195 387.483 300.13 387.548C295.792 390.883 284.625 394.391 272.402 394.391C266.08 394.391 257.04 393.4 249.773 388.688C237.946 390.909 227.958 391.936 218.343 391.936C195.122 391.936 175.126 385.808 157.221 373.198C124.125 349.894 117.845 329.955 114.491 319.202C112.925 317.533 84.8727 286.653 87.7433 222.084C88.4739 205.632 89.3669 189.889 90.1494 175.999C92.6401 132.026 94.439 100.256 89.7565 82.609C83.9505 60.7244 76.0955 57.1101 75.2188 56.7691L74.6992 56.5612L75.0759 56.1521C76.43 54.6712 77.6899 52.8006 78.703 51.2971L79.1057 50.6963L79.4337 51.0016C106.675 76.1142 104.463 122.585 102.326 167.53C101.904 176.386 101.466 185.537 101.265 194.373C100.021 248.541 104.457 278.336 116.098 293.934C117.247 294.061 122.758 295.418 127.457 309.035C132.318 323.135 140.683 334.004 155.428 345.396C167.238 354.531 178.084 358.779 189.55 358.773C195.177 358.773 201.003 357.695 206.867 355.551C216.248 352.132 225.698 350.466 235.758 350.466C245.694 350.466 256.088 352.122 267.535 355.532H267.6C303.345 355.532 319.295 362.686 343.438 373.513C355.015 378.702 368.137 384.587 386.194 390.948C398.667 395.339 412.146 397.563 426.262 397.563C441.598 397.563 457.507 395.001 473.544 389.939L473.798 390.656C464.339 394.362 449.937 399.015 435.023 400.126C432.831 400.301 430.477 400.382 428.025 400.382ZM320.338 380.287C324.176 380.287 328.248 380.794 332.437 381.791C336.584 382.781 341.328 383.973 346.351 385.246C370.397 391.302 403.333 399.613 428.022 399.613C430.457 399.613 432.792 399.531 434.964 399.372C444.81 398.635 454.438 396.352 462.553 393.816C450.252 396.817 438.088 398.333 426.262 398.333C412.059 398.333 398.495 396.099 385.941 391.673C367.854 385.304 354.716 379.42 343.123 374.218C319.068 363.43 303.176 356.298 267.597 356.298L267.366 356.279C255.972 352.885 245.632 351.235 235.754 351.235C225.789 351.235 216.421 352.885 207.124 356.279C201.178 358.441 195.265 359.546 189.547 359.546C177.902 359.546 166.907 355.246 154.961 346.01C140.088 334.517 131.646 323.538 126.733 309.285C121.758 294.866 115.955 294.684 115.897 294.684H115.708L115.591 294.525C103.759 278.827 99.2481 248.862 100.498 194.354C100.703 185.505 101.138 176.347 101.56 167.498C103.684 122.91 105.879 76.8026 79.2453 51.8622C78.3199 53.2326 77.2028 54.8758 75.9884 56.2755C78.0406 57.3504 85.1877 62.4034 90.4969 82.4142C95.2119 100.175 93.4097 132.003 90.9125 176.038C90.13 189.921 89.237 205.665 88.5064 222.116C85.5839 287.864 114.806 318.43 115.104 318.728L115.169 318.796L115.198 318.878C118.517 329.526 124.693 349.355 157.662 372.568C175.441 385.077 195.288 391.166 218.346 391.166C227.951 391.166 237.943 390.133 249.786 387.899L249.935 387.873L250.065 387.954C257.192 392.634 266.148 393.618 272.402 393.618C284.456 393.618 295.428 390.185 299.63 386.964C299.858 386.74 306.443 380.287 320.338 380.287Z" fill="#8A9093"/>
<path d="M114.446 319.076C111.345 301.893 119.495 283.412 119.495 283.412C119.424 283.597 112.137 301.984 115.199 318.943L114.446 319.076Z" fill="#8A9093"/>
<path d="M300.116 387.558L299.59 387.006C302.736 384.018 306.318 377.436 306.318 377.436C306.201 377.718 303.379 384.46 300.116 387.558Z" fill="#8A9093"/>
<path d="M74.5055 57.1846L74.0898 56.5449C79.0711 53.3202 81.1006 45.6854 81.1201 45.6074C81.1201 45.6074 81.2305 48.1664 79.9283 50.7027C78.7528 53.0019 76.9896 55.5739 74.5055 57.1846Z" fill="#575C60"/>
<path d="M29.3691 42.8632C29.3691 42.8632 14.5781 51.339 15.299 54.7813C16.0198 58.2171 33.1262 51.4982 43.9978 41.1875C35.8441 42.5449 29.3691 42.8632 29.3691 42.8632Z" fill="#660202"/>
<path d="M43.9969 41.1846C40.6295 41.7464 37.5609 42.1296 35.0995 42.3861C28.1408 45.5361 21.9743 50.0436 17.0938 55.6747C21.8736 55.7267 35.0476 49.6799 43.9969 41.1846Z" fill="#770202"/>
<path d="M17.1422 56.0674C15.5186 56.0674 15.038 55.4081 14.9211 54.8561C14.1677 51.2514 27.6371 43.4153 29.1763 42.5352L29.2543 42.4865L29.3452 42.48C29.4101 42.4768 35.8948 42.1488 43.9316 40.8076L44.3343 41.0577L44.2564 41.4603C35.0051 50.2414 21.8116 56.0674 17.1422 56.0674ZM29.4783 43.2432C23.8509 46.4777 15.1906 52.4043 15.6744 54.697C15.7751 55.1971 16.5284 55.3042 17.1454 55.3042C21.5356 55.3042 33.7614 49.9362 42.8114 41.7656C35.8266 42.8632 30.2576 43.1977 29.4783 43.2432Z" fill="#575C60"/>
<path d="M26.55 43.4611L26.5078 42.7013C26.6312 42.6948 38.8894 41.9933 43.9129 40.8145L44.085 41.5614C38.9933 42.75 27.0566 43.4319 26.55 43.4611Z" fill="#575C60"/>
<path d="M45.1997 43.9023C44.7061 40.7782 40.6633 39.6676 40.6211 39.6546C40.6211 39.6546 42.9461 39.4955 44.4301 40.9438C45.1607 41.6583 45.1997 43.9023 45.1997 43.9023Z" fill="#575C60"/>
<path d="M9.86048 34.0523C9.86048 35.361 9.07141 36.4262 8.10049 36.4262C7.12958 36.4262 6.34375 35.361 6.34375 34.0523C6.34375 32.737 7.12958 31.6719 8.10049 31.6719C9.07141 31.6719 9.86048 32.7338 9.86048 34.0523Z" fill="#770202"/>
<path d="M8.10085 36.8097C6.91887 36.8097 5.96094 35.5725 5.96094 34.0494C5.96094 32.5264 6.91887 31.2891 8.10085 31.2891C9.27959 31.2891 10.244 32.5264 10.244 34.0494C10.244 35.5725 9.27959 36.8097 8.10085 36.8097ZM8.10085 32.0522C7.35724 32.0522 6.72403 32.9648 6.72403 34.0494C6.72403 35.1308 7.35399 36.0433 8.10085 36.0433C8.84771 36.0433 9.47767 35.1308 9.47767 34.0494C9.47767 32.968 8.84771 32.0522 8.10085 32.0522Z" fill="#575C60"/>
<path d="M61.3474 27.5116C60.107 31.9021 56.3629 34.6949 52.9826 33.7402C49.6055 32.7854 47.8715 28.45 49.1119 24.0627C50.3523 19.6657 54.0964 16.8793 57.4702 17.8308C60.8538 18.7856 62.5846 23.121 61.3474 27.5116Z" fill="white"/>
<path d="M54.3375 34.3122C53.8439 34.3122 53.3536 34.2407 52.8827 34.1075C51.1292 33.6139 49.7394 32.2727 48.9633 30.3308C48.2002 28.4277 48.1223 26.1611 48.7425 23.9528C49.8368 20.0753 52.9379 17.2598 56.1202 17.2598C56.6137 17.2598 57.1041 17.328 57.5749 17.4611C61.1501 18.4711 63.0075 23.0272 61.7119 27.6159C60.6208 31.4966 57.5165 34.3122 54.3375 34.3122ZM56.1234 18.0261C53.2789 18.0261 50.4863 20.6079 49.4861 24.1639C48.9081 26.2065 48.9763 28.2946 49.6745 30.0515C50.3629 31.7629 51.5741 32.945 53.0905 33.3737C53.4964 33.4841 53.9153 33.5458 54.3407 33.5458C57.1853 33.5458 59.9779 30.964 60.9812 27.4081C62.1632 23.2286 60.5461 19.0913 57.3736 18.195C56.9677 18.0846 56.5456 18.0261 56.1234 18.0261Z" fill="#575C60"/>
<path d="M59.643 27.5973C58.9319 30.1108 56.792 31.7118 54.8566 31.1662C52.9213 30.6206 51.9309 28.1395 52.6388 25.626C53.3467 23.1092 55.4898 21.5115 57.4252 22.057C59.3605 22.6058 60.3509 25.087 59.643 27.5973Z" fill="#06BDF9"/>
<path d="M59.8114 25.1585C59.5841 23.642 58.7171 22.4209 57.4312 22.0572C55.4958 21.5116 53.3559 23.1061 52.6448 25.6261C52.359 26.6458 52.3525 27.6526 52.5733 28.5359C54.9633 29.8739 58.7625 27.6364 59.8114 25.1585Z" fill="#0691F9"/>
<path d="M55.6342 31.6531C55.3355 31.6531 55.04 31.614 54.7542 31.5328C52.6208 30.9288 51.507 28.2335 52.2734 25.5186C52.9293 23.1869 54.7283 21.5664 56.6506 21.5664C56.9493 21.5664 57.2448 21.6087 57.5306 21.6866C58.5827 21.9854 59.4205 22.7843 59.8816 23.9436C60.3329 25.0705 60.3752 26.4051 60.0115 27.6976C59.3523 30.0293 57.5533 31.6531 55.6342 31.6531ZM56.6506 22.3329C55.0952 22.3329 53.5625 23.7585 53.0072 25.7297C52.3545 28.0321 53.228 30.3119 54.9588 30.799C55.1764 30.8574 55.4004 30.8867 55.631 30.8867C57.1864 30.8867 58.7191 29.461 59.2743 27.4931C59.5926 26.3564 59.5569 25.1971 59.1672 24.2261C58.797 23.2941 58.1378 22.6543 57.3195 22.4205C57.1052 22.3653 56.8812 22.3329 56.6506 22.3329Z" fill="#0473B7"/>
<path d="M58.2511 27.2106C57.8257 28.7239 56.5333 29.6852 55.3675 29.354C54.205 29.0227 53.6043 27.5322 54.0329 26.0156C54.4583 24.4991 55.7507 23.5378 56.9197 23.869C58.079 24.2003 58.6797 25.6908 58.2511 27.2106Z" fill="black"/>
<path d="M58.3467 35.2086C54.0896 28.6715 44.7344 29.9315 44.7344 29.9315C44.7344 29.9315 48.3972 34.1954 51.0535 35.4132C53.7097 36.6472 58.3467 35.2086 58.3467 35.2086Z" fill="#909599"/>
<path d="M58.0279 35.4167C53.9494 29.1588 44.88 30.2987 44.7891 30.3149C44.7891 30.3149 46.8478 29.2855 49.5365 29.6882C51.3062 29.9544 53.3682 30.4318 55.1477 31.6204C57.1772 32.9746 58.0279 35.4167 58.0279 35.4167Z" fill="#575C60"/>
<path d="M89.3446 22.9203C89.3446 22.8911 89.5946 20.1729 88.6172 17.3282L89.3413 17.0781C90.3739 20.0885 89.3446 22.9203 89.3446 22.9203Z" fill="#575C60"/>
<path d="M141.445 320.894C141.445 320.894 128.813 335.793 131.213 359.782C127.092 388.85 120.663 401.674 117.143 409.825C113.626 417.983 112.746 425.098 112.746 425.098C117.062 431.492 121.458 435.493 132.171 435.97C142.883 436.451 147.92 435.889 147.202 428.537C146.481 421.178 148.521 413.625 154.034 406.425C159.551 399.232 160.75 398.878 161.951 392.396C163.149 385.927 165.189 377.883 171.063 371.888C176.94 365.894 179.22 358.938 175.742 353.063" fill="#6F797B"/>
<path d="M140.948 425.602C142.474 413.385 147.822 405.743 156.223 397.346C163.094 390.477 152.404 379.017 158.516 372.908C164.361 367.706 176.827 365.27 177.138 356.671C176.885 355.44 176.43 354.236 175.739 353.07L141.445 320.9C141.445 320.9 128.813 335.8 131.213 359.789C127.092 388.857 120.663 401.681 117.143 409.832C113.626 417.989 112.746 425.105 112.746 425.105C115.402 429.037 118.094 432.058 122.26 433.922C130.752 435.76 140.396 433.847 140.948 425.602Z" fill="#838A90"/>
<path d="M136.746 420.45C138.276 408.227 144.192 405.178 152.593 396.78C159.467 389.905 148.248 377.263 154.359 371.148C160.204 365.958 176.823 365.267 177.138 356.667C176.885 355.436 176.43 354.232 175.739 353.066L141.445 320.896C141.445 320.896 128.813 335.796 131.213 359.785C127.092 388.853 120.663 401.677 117.143 409.828C113.626 417.986 112.746 425.101 112.746 425.101C115.402 429.034 118.094 432.054 122.26 433.918C130.752 435.759 136.194 428.689 136.746 420.45Z" fill="#909599"/>
<path d="M136.878 436.477C135.468 436.477 133.9 436.425 132.156 436.351C121.57 435.876 116.907 431.944 112.429 425.309L112.352 425.189L112.368 425.049C112.378 424.981 113.293 417.795 116.794 409.676C117.086 409.004 117.398 408.293 117.729 407.546C121.444 399.102 127.058 386.35 130.828 359.779C128.464 335.936 141.736 321.141 141.736 321.141C141.609 321.287 129.24 336.212 131.591 359.75L131.595 359.795L131.588 359.841C127.802 386.544 122.161 399.368 118.427 407.854C118.096 408.601 117.784 409.312 117.492 409.984C114.303 417.372 113.287 423.978 113.144 425.01C117.56 431.525 121.934 435.139 132.189 435.597C139.427 435.922 143.713 435.711 145.645 433.675C146.678 432.577 147.055 430.96 146.821 428.583C146.051 420.717 148.376 413.19 153.731 406.204C154.767 404.853 155.653 403.736 156.413 402.785C159.725 398.618 160.615 397.501 161.573 392.331C162.849 385.443 164.94 377.598 170.788 371.629C176.926 365.368 178.611 358.671 175.406 353.261C175.406 353.261 177.104 354.943 177.387 356.031C178.702 361.081 176.598 366.79 171.331 372.161C165.625 377.984 163.576 385.697 162.323 392.471C161.329 397.829 160.329 399.086 157.007 403.266C156.247 404.211 155.367 405.315 154.335 406.666C149.1 413.498 146.827 420.841 147.574 428.505C147.827 431.086 147.376 432.95 146.194 434.194C144.544 435.932 141.625 436.477 136.878 436.477Z" fill="#575C60"/>
<path d="M119.599 432.457C119.599 432.457 120.314 429.424 118.333 426.842C116.355 424.267 112.748 424.958 112.748 424.958C110.27 428.251 110.838 431.401 111.111 432.184C111.381 432.963 117.833 433.171 119.599 432.457Z" fill="#CCD3D6"/>
<path d="M118.093 426.569C116.076 424.328 112.748 424.959 112.748 424.959C110.27 428.252 110.838 431.401 111.111 432.184C111.127 432.23 111.17 432.272 111.222 432.311C114.362 431.639 116.297 429.018 118.093 426.569Z" fill="#E6ECEF"/>
<path d="M116.418 425.378C114.628 424.605 112.748 424.959 112.748 424.959C110.459 427.995 110.771 430.915 111.043 431.954C114.024 430.473 116.158 429.132 116.418 425.378Z" fill="white"/>
<path d="M115.681 433.275C114.298 433.275 111.051 433.181 110.746 432.311C110.694 432.158 109.518 428.619 112.441 424.731L112.528 424.611L112.675 424.579C112.691 424.579 113.152 424.491 113.837 424.491C115.019 424.491 117.214 424.77 118.633 426.615C120.702 429.304 119.997 432.412 119.968 432.538L119.922 432.737L119.74 432.805C118.701 433.23 116.555 433.275 115.681 433.275ZM112.96 425.309C110.398 428.83 111.46 432.025 111.47 432.058C111.661 432.217 113.259 432.516 115.681 432.516C117.227 432.516 118.562 432.382 119.263 432.168C119.37 431.476 119.591 429.109 118.032 427.079C116.876 425.576 115.116 425.261 113.844 425.261C113.444 425.258 113.129 425.29 112.96 425.309Z" fill="#8A9093"/>
<path d="M119.548 436.478C120.195 437.218 126.111 436.484 126.9 435.461C127.689 434.435 126.117 428.72 122.591 428.168C119.071 427.612 118.707 435.52 119.548 436.478Z" fill="#CCD3D6"/>
<path d="M125.969 430.872C125.206 429.554 124.076 428.398 122.592 428.171C119.384 427.664 118.8 434.165 119.352 436.062C122.057 435 124.33 433.269 125.969 430.872Z" fill="#E6ECEF"/>
<path d="M123.844 428.619C123.458 428.398 123.046 428.239 122.591 428.167C119.405 427.66 118.808 434.071 119.34 436.02C122.263 434.341 124.26 432.369 123.844 428.619Z" fill="white"/>
<path d="M121.126 437.163C119.788 437.163 119.421 436.916 119.259 436.731C118.544 435.912 118.625 432.071 119.638 429.836C120.421 428.119 121.489 427.755 122.246 427.755C122.376 427.755 122.509 427.761 122.649 427.787C125.152 428.18 126.441 430.775 126.88 431.872C127.415 433.217 127.743 434.98 127.201 435.692C126.461 436.656 122.853 437.163 121.126 437.163ZM119.836 436.231C119.836 436.231 120.057 436.396 121.126 436.396C123.259 436.396 126.175 435.776 126.597 435.23C126.811 434.945 126.782 433.694 126.172 432.162C125.36 430.126 123.999 428.774 122.532 428.547C121.606 428.401 120.885 428.947 120.333 430.158C119.336 432.35 119.44 435.779 119.836 436.231Z" fill="#8A9093"/>
<path d="M127.232 436.643C127.82 437.348 133.437 436.663 134.337 435.458C135.236 434.247 132.509 428.463 129.301 428.882C126.092 429.301 126.635 435.926 127.232 436.643Z" fill="#CCD3D6"/>
<path d="M132.772 430.736C131.837 429.576 130.613 428.706 129.304 428.878C126.421 429.258 126.567 434.63 127.06 436.25C129.483 435.113 131.295 432.957 132.772 430.736Z" fill="#E6ECEF"/>
<path d="M130.913 429.177C130.403 428.93 129.861 428.81 129.302 428.878C126.49 429.245 126.561 434.363 127.026 436.111C129.305 434.383 130.783 432.438 130.913 429.177Z" fill="white"/>
<path d="M128.676 437.309C127.438 437.309 127.094 437.068 126.942 436.89C126.412 436.263 126.062 432.798 126.925 430.593C127.406 429.362 128.211 428.638 129.257 428.498C131.364 428.232 133.189 430.262 134.141 432.158C134.748 433.376 135.203 434.938 134.647 435.685C133.839 436.77 130.38 437.309 128.676 437.309ZM127.529 436.403C127.529 436.403 127.747 436.549 128.676 436.549C130.604 436.549 133.514 435.928 134.034 435.23C134.228 434.964 134.18 433.948 133.459 432.509C132.657 430.918 131.075 429.028 129.354 429.262C128.607 429.356 128.036 429.879 127.659 430.817C126.809 432.902 127.25 436.045 127.529 436.403Z" fill="#8A9093"/>
<path d="M130.832 359.808L131.592 359.756C131.855 363.867 133.433 365.618 133.449 365.634C133.449 365.634 131.115 364.221 130.832 359.808Z" fill="#575C60"/>
<path d="M247.643 322.602C247.643 322.602 219.149 354.505 227.303 383.517C231.541 398.595 242.812 420.483 240.896 424.51C238.977 428.537 235.129 435.805 247.647 439.175C260.161 442.524 272.394 439.409 275.271 433.778C278.148 428.141 273.952 426.458 273.952 420.103C273.952 413.748 275.751 399.832 269.033 390.957C277.427 380.049 292.962 354.112 287.594 330.805" fill="#6F797B"/>
<path d="M270.088 432.252C270.851 429.963 266.961 423.887 266.961 422.351C271.546 407.844 272.783 395.241 261.33 384.547C277.748 382.904 284.376 364.663 288.126 348.559C288.968 342.661 288.938 336.647 287.591 330.799L247.643 322.599C247.643 322.599 219.149 354.502 227.303 383.514C231.541 398.592 242.812 420.48 240.896 424.507C238.977 428.534 235.129 435.802 247.647 439.173C249.881 439.767 252.105 440.163 254.271 440.364C260.36 439.965 269.345 439.325 270.088 432.252Z" fill="#838A90"/>
<path d="M264.162 430.495C264.925 428.199 261.33 421.526 261.33 419.999C265.916 405.493 263.633 391.285 252.177 380.591C268.591 378.948 284.373 364.666 288.126 348.562C288.968 342.664 288.938 336.65 287.591 330.801L247.643 322.602C247.643 322.602 219.149 354.505 227.303 383.517C231.541 398.595 242.812 420.483 240.896 424.51C238.977 428.537 235.129 435.805 247.647 439.175C249.881 439.77 252.105 440.166 254.271 440.367C260.36 439.965 263.418 437.562 264.162 430.495Z" fill="#909599"/>
<path d="M258.097 440.961C254.788 440.961 251.216 440.523 247.543 439.539C243.013 438.321 240.143 436.444 239 433.963C237.503 430.703 239.247 427.062 240.4 424.653L240.546 424.341C241.594 422.139 238.113 413.446 234.434 404.236C231.746 397.527 228.703 389.915 226.933 383.615C221.208 363.243 233.577 341.291 241.465 330.006C244.76 325.287 247.927 322.852 247.927 322.852C247.644 323.17 219.666 354.933 227.67 383.404C229.43 389.665 232.467 397.257 235.142 403.954C239.214 414.128 242.429 422.168 241.237 424.675L241.088 424.981C239.929 427.397 238.344 430.709 239.692 433.645C240.734 435.908 243.442 437.643 247.738 438.795C260.454 442.209 272.271 438.789 274.927 433.593C276.541 430.427 275.833 428.608 274.937 426.306C274.294 424.65 273.563 422.779 273.563 420.097C273.563 419.106 273.605 417.966 273.654 416.645C273.92 409.452 274.323 398.579 268.722 391.184L268.546 390.951L268.725 390.723C272.872 385.333 293.254 357.106 287.215 330.879C287.215 330.879 288.971 336.497 289.062 339.391C289.796 362.821 273.557 385.648 269.507 390.957C275.086 398.563 274.684 409.445 274.417 416.677C274.369 417.989 274.326 419.126 274.326 420.097C274.326 422.639 275.028 424.435 275.648 426.026C276.577 428.41 277.379 430.466 275.603 433.944C273.55 437.974 266.731 440.961 258.097 440.961Z" fill="#575C60"/>
<path d="M269.428 392.185C268.321 390.269 265.438 386.977 265.438 386.977C265.58 387.097 268.909 389.756 270.094 391.796L269.428 392.185Z" fill="#575C60"/>
<path d="M242.712 437.429C242.712 437.429 241.852 432.877 238.806 430.954C235.101 433.714 235.039 436.072 235.159 437.069C235.279 438.063 241.102 438.173 242.712 437.429Z" fill="#CCD3D6"/>
<path d="M242.712 437.429C242.712 437.429 241.852 432.877 238.806 430.954C235.101 433.714 235.039 436.072 235.159 437.069C235.279 438.063 241.102 438.173 242.712 437.429Z" fill="#CCD3D6"/>
<path d="M241.628 434.322C241.02 433.097 240.118 431.779 238.806 430.954C235.101 433.714 235.039 436.072 235.159 437.069C235.179 437.228 235.348 437.361 235.607 437.468C238.166 437.176 241.014 436.884 241.628 434.322Z" fill="#E6ECEF"/>
<path d="M240.648 432.73C240.145 432.052 239.547 431.425 238.807 430.954C235.303 433.568 235.06 435.812 235.141 436.89C237.644 436.157 240.229 435.731 240.648 432.73Z" fill="white"/>
<path d="M239.052 438.299C237.51 438.299 234.902 438.14 234.779 437.121C234.594 435.591 235.107 433.233 238.578 430.652L238.789 430.499L239.007 430.632C242.16 432.623 243.049 437.166 243.085 437.361L243.144 437.653L242.871 437.78C242.166 438.101 240.741 438.299 239.052 438.299ZM238.818 431.421C236.448 433.25 235.315 435.175 235.535 437.023C235.675 437.208 236.899 437.53 239.049 437.53C240.374 437.53 241.578 437.397 242.264 437.189C242.02 436.185 241.082 433.003 238.818 431.421Z" fill="#8A9093"/>
<path d="M241.992 440.066C242.265 440.657 248.727 441.95 249.828 439.686C250.929 437.429 247.331 432.032 244.694 432.691C242.057 433.35 241.635 439.287 241.992 440.066Z" fill="#CCD3D6"/>
<path d="M249.256 436.072C248.207 434.088 246.282 432.298 244.697 432.691C242.158 433.325 241.674 438.849 241.966 439.946C244.908 439.534 247.425 438.322 249.256 436.072Z" fill="#E6ECEF"/>
<path d="M247.816 434.081C246.845 433.078 245.702 432.438 244.692 432.691C242.426 433.256 241.799 437.702 241.896 439.439C244.764 438.407 247.235 436.744 247.816 434.081Z" fill="white"/>
<path d="M246.413 441.356C244.738 441.356 241.997 440.904 241.685 440.232C241.367 439.54 241.555 436.374 242.533 434.344C243.075 433.214 243.783 432.535 244.64 432.321C244.819 432.276 245.004 432.253 245.192 432.253C246.816 432.253 248.381 433.831 249.306 435.309C250.154 436.666 250.839 438.576 250.212 439.855C249.732 440.836 248.42 441.356 246.413 441.356ZM245.189 433.023C245.062 433.023 244.939 433.036 244.825 433.068C244.198 433.221 243.659 433.766 243.221 434.679C242.27 436.663 242.208 439.544 242.38 439.911C242.578 440.063 244.455 440.589 246.416 440.589C248.085 440.589 249.189 440.216 249.524 439.524C249.927 438.693 249.589 437.202 248.657 435.725C247.644 434.107 246.254 433.023 245.189 433.023Z" fill="#8A9093"/>
<path d="M251.224 442.521C252.059 444.431 261.018 442.42 260.95 440.433C260.878 438.442 255.813 434.013 253.338 435.328C250.864 436.65 250.805 441.563 251.224 442.521Z" fill="#CCD3D6"/>
<path d="M256.853 435.87C255.587 435.159 254.275 434.831 253.337 435.331C250.865 436.65 250.804 441.567 251.226 442.525C251.346 442.797 251.629 442.989 252.018 443.109C255.11 441.583 258.181 439.167 256.853 435.87Z" fill="#E6ECEF"/>
<path d="M254.317 435.101C253.967 435.107 253.632 435.172 253.337 435.328C250.865 436.646 250.804 441.563 251.226 442.521C251.258 442.602 251.314 442.674 251.372 442.742C253.876 440.423 257.473 438.439 254.317 435.101Z" fill="white"/>
<path d="M253.509 443.677C252.051 443.677 251.165 443.34 250.876 442.68C250.431 441.664 250.408 436.458 253.158 434.994C253.512 434.805 253.925 434.708 254.379 434.708C257.159 434.708 261.257 438.407 261.328 440.424C261.341 440.761 261.189 441.096 260.88 441.42C259.653 442.687 255.912 443.677 253.509 443.677ZM254.383 435.471C254.051 435.471 253.766 435.539 253.519 435.669C251.343 436.828 251.181 441.472 251.574 442.372C251.687 442.638 252.256 442.911 253.509 442.911C255.967 442.911 259.344 441.914 260.331 440.888C260.442 440.774 260.572 440.602 260.568 440.45C260.517 438.972 256.834 435.471 254.383 435.471Z" fill="#8A9093"/>
<path d="M184.535 259.543C184.502 259.485 181.112 254.279 178.816 252.376L179.303 251.785C181.69 253.76 184.535 259.543 184.535 259.543Z" fill="#575C60"/>
<path d="M57.7905 24.6552C57.7905 25.519 57.0956 26.2139 56.2351 26.2139C55.3746 26.2139 54.6797 25.5157 54.6797 24.6552C54.6797 23.7978 55.3746 23.0996 56.2351 23.0996C57.0956 23.1029 57.7905 23.7978 57.7905 24.6552Z" fill="white"/>
<path d="M55.4137 26.7854C55.4137 27.3407 54.9656 27.7889 54.4136 27.7889C53.8583 27.7889 53.4102 27.3375 53.4102 26.7854C53.4102 26.2366 53.8583 25.7852 54.4136 25.7852C54.9656 25.7884 55.4137 26.2366 55.4137 26.7854Z" fill="white"/>
<path d="M34.6641 17.0785C34.6641 17.0785 49.4291 0.428743 66.2952 3.10465C57.4497 -0.526009 43.1945 3.56581 34.6641 17.0785Z" fill="#BEC6CC"/>
<path d="M244.527 330.802C244.527 330.802 256.331 315.149 272.401 319.124C260.871 312.814 248.788 321.465 244.527 330.802Z" fill="#BEC6CC"/>
</svg>
