<svg width="177" height="300" viewBox="0 0 177 300" fill="none" xmlns="http://www.w3.org/2000/svg">
<path d="M101.838 66.8589C101.772 66.7935 95.4576 60.3733 89.226 53.7874C79.5994 43.6139 77.1381 40.4541 76.5097 39.1971C74.3016 39.2495 67.9522 41.1611 63.7323 42.4311C59.7263 43.6401 58.2601 44.0591 57.6098 44.0591C55.9341 44.0591 39.622 37.6913 32.6878 34.9505L30.375 34.0383L32.5133 32.7682C32.8013 32.598 61.5984 15.7295 89.37 15.7295C93.7208 15.7295 97.8796 16.1441 101.737 16.9603C132.847 23.5418 145.001 48.7945 145.118 49.0476L145.319 49.471L145.179 49.9206C144.093 53.4819 141.422 61.914 140.135 63.2059L139.742 63.5943L126.747 62.7564L102.291 67.3172L101.838 66.8589Z" fill="#D0E5EE"/>
<path d="M89.3745 16.9515C93.4591 16.9515 97.5306 17.3181 101.489 18.1517C132.363 24.6896 144.019 49.5626 144.019 49.5626C144.019 49.5626 140.488 61.124 139.271 62.3461L126.677 61.5299L102.706 65.9991C102.706 65.9991 77.518 40.4016 77.518 38.3678C77.518 38.0928 77.1863 37.975 76.6059 37.975C72.8791 37.975 59.0195 42.837 57.61 42.837C55.9867 42.837 33.1375 33.8157 33.1375 33.8157C33.1375 33.8157 61.6117 16.9515 89.3745 16.9515ZM89.3745 14.5117C61.2757 14.5117 33.0851 31.0224 31.8938 31.7251L27.6172 34.2608L32.2473 36.0895C55.5285 45.2811 57.0994 45.2811 57.6144 45.2811C58.426 45.2811 59.565 44.9624 64.086 43.6007C67.6294 42.5314 73.3068 40.8249 75.8509 40.4801C77.0641 42.3438 80.2148 46.0405 88.3403 54.6297C94.585 61.2244 100.904 67.6532 100.969 67.7186L101.881 68.6439L103.156 68.4082L126.825 63.9914L139.114 64.7857L140.214 64.8556L140.999 64.0787C142.09 62.9832 143.892 58.3438 146.353 50.2827L146.628 49.388L146.231 48.5369C146.109 48.2664 143.068 41.8681 136.094 34.6231C129.675 27.9542 118.551 19.2733 101.999 15.773C98.0543 14.9351 93.8039 14.5117 89.3745 14.5117Z" fill="black"/>
<g opacity="0.46">
<path d="M130.73 61.7916C132.933 59.6356 135.56 57.6498 139.505 55.3584C140.544 54.7518 141.622 54.1931 142.713 53.665C143.463 51.3911 144.022 49.5625 144.022 49.5625C144.022 49.5625 132.366 24.6851 101.492 18.1516C70.6175 11.618 33.1406 33.8199 33.1406 33.8199C33.1406 33.8199 55.9898 42.8412 57.6132 42.8412C59.2365 42.8412 77.5211 36.3425 77.5211 38.372C77.5211 40.4058 102.709 66.0033 102.709 66.0033L126.68 61.5341L130.73 61.7916Z" fill="#A5B3C0"/>
</g>
<path d="M81.9854 201.969C43.1252 201.965 22.4448 182.434 13.6168 174.093C11.7228 172.304 9.76782 170.458 9.14379 170.336C9.26162 170.336 9.32271 170.323 9.38381 170.301L8.48048 168.035C8.17501 168.158 8.02664 168.385 7.99609 168.463C8.03537 168.363 8.1052 168.018 8.16629 167.743C8.52849 165.975 9.2878 162.292 13.2676 158.307L13.6866 157.888L14.2757 157.958C16.0169 158.163 17.7319 158.674 19.3116 159.446C20.8302 156.116 22.0216 152.55 23.1736 149.094C25.1592 143.136 27.2233 136.978 31.0067 131.723L31.5348 130.99L32.3901 131.283C37.5962 133.068 42.715 135.254 47.6156 137.781C48.7415 136.489 51.3293 133.273 52.6864 131.584C53.6334 130.41 54.3141 129.563 54.5542 129.284L55.3527 128.363L56.2779 129.157C61.8462 133.945 67.8421 138.318 74.113 142.163L84.7652 133.321L98.2931 143.232C98.7033 143.538 99.1702 143.878 99.5717 143.939C99.6284 143.948 99.6765 143.953 99.7288 143.953C100.252 143.953 100.885 143.595 101.54 143.197L113.89 135.673C115.74 134.547 118.633 132.548 120.959 130.946C125.174 128.035 125.227 128.035 125.703 128.005L125.777 128C126.532 128 126.732 128 138.34 139.387C139.667 140.684 140.941 141.932 141.7 142.674C142.495 141.862 144.009 140.186 146.461 137.349L147.369 136.293L148.299 137.34C154.548 144.415 157.07 147.187 157.999 148.142C159.584 147.44 164.013 145.161 165.937 143.603L166.745 142.953L167.517 143.638C168.883 144.852 172.898 149.181 173.386 153.079C173.653 155.204 166.125 178.536 161.473 180.775C132.257 194.842 105.52 201.973 81.9985 201.973C81.9985 201.973 81.9941 201.969 81.9854 201.969Z" fill="#D0E5EE"/>
<path d="M125.78 129.223C126.474 129.223 141.468 144.275 141.682 144.306C142.04 144.306 145.767 140.033 147.395 138.143C150.571 141.74 157.392 149.452 157.715 149.53C158.191 149.53 164.313 146.493 166.718 144.542C168.363 146.004 171.775 149.962 172.181 153.218C172.395 154.942 165.073 177.681 160.949 179.667C128.582 195.248 102.648 200.743 81.989 200.743C32.4592 200.743 13.3673 169.118 9.19106 169.118C9.09942 169.118 9.01215 169.135 8.93796 169.162C9.64054 168.882 8.93797 164.365 14.1353 159.167C16.1602 159.407 18.1239 160.083 19.8694 161.131C24.4297 151.795 25.8785 140.924 31.9966 132.435C37.4427 134.303 42.7448 136.594 47.8418 139.274C48.156 139.274 54.6974 130.99 55.4829 130.082C61.3436 135.114 67.6144 139.658 74.2213 143.656C77.7561 140.727 81.2864 137.794 84.8168 134.861C89.0715 137.978 93.3219 141.094 97.5767 144.214C98.1309 144.62 98.72 145.039 99.3964 145.14C99.5099 145.157 99.6277 145.166 99.7368 145.166C100.601 145.166 101.43 144.69 102.185 144.232C106.296 141.722 110.42 139.217 114.535 136.708C118.135 134.517 125.396 129.24 125.78 129.214C125.78 129.223 125.78 129.223 125.78 129.223ZM55.2254 126.652L53.6414 128.498C53.397 128.777 52.7991 129.528 51.7474 130.829C50.6085 132.243 48.5749 134.765 47.3138 136.267C42.627 133.897 37.7526 131.837 32.7908 130.135L31.0758 129.545L30.0198 131.012C26.1229 136.415 24.0369 142.665 22.0208 148.71C21.004 151.756 19.9567 154.885 18.6912 157.84C17.3166 157.29 15.8765 156.924 14.419 156.749L13.2407 156.609L12.4072 157.443C8.16555 161.69 7.35826 165.609 6.96988 167.494C6.92624 167.704 6.87384 167.97 6.84766 168.057C6.93057 167.787 7.28842 167.193 8.03028 166.896L9.83256 171.427C9.6231 171.51 9.40053 171.553 9.1867 171.553C8.91614 171.553 8.75904 171.483 8.75904 171.483C9.36126 171.745 11.1766 173.461 12.7781 174.971C21.7197 183.411 42.6401 203.174 81.9846 203.174C105.698 203.174 132.619 195.999 162 181.858C162.987 181.382 165.592 180.129 170.471 167.198C170.514 167.08 174.904 155.357 174.595 152.908C174.062 148.622 169.886 144.092 168.328 142.709L166.779 141.338L165.177 142.634C163.667 143.852 160.181 145.733 158.282 146.65C157.056 145.336 154.464 142.464 149.214 136.515L147.364 134.421L145.54 136.537C143.746 138.624 142.498 140.025 141.669 140.924C140.945 140.221 140.059 139.352 139.19 138.493C127.238 126.77 127.124 126.77 125.785 126.765H125.706L125.628 126.77C124.764 126.822 124.598 126.94 120.273 129.921C117.96 131.518 115.08 133.504 113.26 134.617L100.911 142.141C100.679 142.277 100.016 142.687 99.7499 142.717C99.5841 142.656 99.2132 142.386 99.0081 142.237L86.2481 132.884L84.712 131.763L83.2458 132.976L77.9524 137.371L74.0031 140.657C68.0595 136.956 62.3647 132.78 57.0626 128.223L55.2254 126.652Z" fill="black"/>
<g opacity="0.46">
<path d="M164.29 151.913C157.57 158.652 150.409 162.296 141.956 165.866C133.355 169.493 125.334 171.409 116.693 172.766C117.317 172.683 117.928 172.601 118.552 172.518C117.579 172.657 116.632 172.793 115.698 172.923C112.543 173.399 109.305 173.818 105.919 174.215C107.516 174.001 109.113 173.783 110.715 173.569C100.01 174.844 91.3656 174.953 79.4304 172.47C70.8685 170.689 62.3197 167.066 55.1062 162.13C44.9559 155.186 35.9271 146.628 29.8962 135.756C25.4669 143.647 23.861 152.974 19.8768 161.131C18.1312 160.083 16.1631 159.407 14.1427 159.167C8.94532 164.365 9.64789 168.882 8.94531 169.161C14.0423 167.141 49.2848 233.423 160.952 179.667C165.076 177.681 172.398 154.942 172.184 153.218C171.918 151.088 170.369 148.662 168.868 146.828C167.362 148.67 165.817 150.381 164.29 151.913Z" fill="#A5B3C0"/>
</g>
<g opacity="0.46">
<path d="M165.941 153.873C151.614 174.77 131.174 188.19 105.323 188.98C87.8147 189.517 69.1243 183.402 54.2043 174.547C44.115 168.563 34.8724 160.768 28.6801 150.695C27.6066 148.945 26.6421 147.125 25.7737 145.24C23.8886 150.573 22.3306 156.077 19.8651 161.131C18.1195 160.083 16.1514 159.407 14.131 159.167C8.9336 164.365 9.63618 168.882 8.93359 169.161C14.0306 167.141 49.2731 233.423 160.94 179.666C165.064 177.681 172.386 154.942 172.173 153.218C171.954 151.459 170.855 149.499 169.633 147.837C168.507 149.901 167.276 151.913 165.941 153.873Z" fill="#A5B3C0"/>
</g>
<path d="M83.2761 188.806C82.8877 188.806 82.5167 188.749 82.172 188.644C80.9807 188.269 80.1908 187.291 79.6672 186.645C72.4973 177.764 66.0345 168.219 60.4531 158.268C57.73 153.415 54.876 147.728 55.4521 141.644C56.1634 134.154 61.1513 128.921 65.9734 123.863C66.5887 123.221 67.1952 122.58 67.7975 121.943C69.3248 120.301 70.4245 118.564 71.5897 116.723C72.1133 115.902 72.6544 115.047 73.2436 114.191C73.5796 113.698 73.9243 113.222 74.2647 112.747C75.1637 111.507 76.0102 110.337 76.6517 108.976C76.7521 108.757 77.0008 107.806 77.1798 107.112C77.2321 106.916 77.2801 106.728 77.3238 106.553L69.8572 110.735C65.8948 112.952 62.2903 114.794 58.2668 114.794C57.8522 114.794 57.442 114.772 57.0318 114.728C52.0875 114.231 48.243 110.822 44.4115 107.077C43.4907 106.178 42.5482 105.288 41.6012 104.389C38.529 101.495 35.3521 98.4967 32.904 95.0662C31.7694 93.4819 30.3293 91.8322 28.8107 90.082C25.7953 86.6167 22.6839 83.0378 21.3005 79.28C19.2975 73.807 19.8255 67.6357 22.9108 60.4125C24.8222 55.9477 26.9954 51.5265 29.3649 47.2843C30.6697 44.9493 32.1273 42.5139 34.2568 40.6198C36.0242 39.0573 38.0926 38.0098 40.0957 36.9973C41.3786 36.347 42.7663 35.736 44.1104 35.1424C46.5847 34.047 49.1463 32.9209 51.193 31.5112C53.1611 30.1539 54.8237 27.9193 56.4252 25.7545C56.818 25.2264 57.2064 24.7071 57.586 24.2139L58.0704 23.581C62.1026 18.348 66.2614 12.9361 72.7635 10.1953C77.878 8.03922 83.599 7.70315 88.5302 7.65514C89.656 7.64205 90.7819 7.6333 91.9078 7.6333C98.3052 7.6333 105.689 7.91701 112.435 11.2864C120.199 15.162 127.678 26.5226 131.34 35.4392C131.597 36.0458 131.82 36.635 132.029 37.2068C134.434 43.8015 133.05 47.6029 131.305 52.4213C130.912 53.4862 130.511 54.5904 130.118 55.8124C128.477 60.8621 126.653 65.951 124.89 70.8697C121.975 78.992 118.968 87.3892 116.708 95.8256C114.115 105.48 117.943 113.982 121.992 122.986C125.086 129.855 128.281 136.956 128.267 144.528C128.259 149.814 124.868 154.292 121.202 158.342C112.789 167.634 103.446 176.158 93.4177 183.673C90.9565 185.515 88.3032 187.4 85.2529 188.417C84.7249 188.605 84.0266 188.806 83.2761 188.806Z" fill="#20B697"/>
<path d="M91.9079 8.81631C98.7853 8.81631 105.645 9.21343 111.921 12.3471C119.592 16.1747 126.849 27.5921 130.262 35.8933C130.502 36.4825 130.729 37.0586 130.929 37.6173C133.687 45.1678 131.248 48.5502 129.005 55.4591C124.654 68.8405 119.221 81.9294 115.573 95.5334C110.795 113.345 127.12 127.717 127.098 144.542C127.089 149.552 123.694 153.851 120.33 157.565C111.955 166.818 102.695 175.263 92.7108 182.748C90.2802 184.568 87.7622 186.357 84.8821 187.318C84.3671 187.492 83.8217 187.632 83.2805 187.632C83.0231 187.632 82.7743 187.601 82.5256 187.523C81.7095 187.27 81.1248 186.571 80.588 185.908C73.44 177.061 67.0426 167.612 61.483 157.696C58.7207 152.773 56.0937 147.374 56.6261 141.757C57.3854 133.74 63.4948 128.28 68.6616 122.746C70.9613 120.271 72.336 117.604 74.2124 114.855C75.443 113.057 76.7827 111.477 77.721 109.478C78.1006 108.666 78.9603 104.293 79.4796 104C76.0845 105.903 72.6851 107.806 69.29 109.705C65.8556 111.63 62.1551 113.615 58.2712 113.615C57.9003 113.615 57.5294 113.598 57.1541 113.559C52.4237 113.078 48.6402 109.565 45.2407 106.235C41.3482 102.425 36.9887 98.7631 33.8641 94.3812C30.4603 89.624 24.3946 84.2819 22.4177 78.8787C20.214 72.8732 21.5755 66.5535 24.0018 60.8754C25.9089 56.428 28.0428 52.081 30.4036 47.8606C31.6909 45.5606 33.0699 43.2518 35.0468 41.5016C36.6919 40.0483 38.6731 39.0401 40.6281 38.0494C44.224 36.2294 48.5878 34.7411 51.8607 32.4846C54.5052 30.669 56.5824 27.4438 58.5156 24.9386C62.6656 19.5572 66.7546 14.0143 73.2218 11.2866C78.0177 9.26582 83.3329 8.89046 88.5433 8.83809C89.6648 8.82499 90.7864 8.81631 91.9079 8.81631ZM91.9079 6.46387C90.7776 6.46387 89.6474 6.47255 88.5172 6.48564C83.4813 6.53365 77.6075 6.88286 72.3098 9.11746C65.5196 11.9762 61.2605 17.5146 57.141 22.8654L56.6522 23.4983C56.2726 23.9958 55.8798 24.5196 55.4827 25.0564C53.9379 27.1426 52.332 29.303 50.5254 30.5468C48.5747 31.8911 46.0611 32.9997 43.6348 34.069C42.2733 34.6669 40.8681 35.2866 39.5633 35.95C37.5909 36.9451 35.3566 38.0755 33.4758 39.7428C31.2022 41.7548 29.6923 44.2905 28.3351 46.7128C25.9437 50.9899 23.7575 55.446 21.8286 59.9545C18.6168 67.4657 18.0844 73.9207 20.1966 79.6905C21.6454 83.6534 24.8353 87.3152 27.9206 90.8591C29.4217 92.583 30.84 94.2154 31.9397 95.756C34.4576 99.2781 37.6782 102.316 40.7896 105.249C41.7191 106.126 42.6792 107.029 43.5868 107.92C47.5667 111.817 51.5858 115.361 56.9097 115.902C57.3592 115.946 57.813 115.968 58.2669 115.968C62.9188 115.968 67.2695 113.537 70.4377 111.76L75.3121 109.033C74.7492 110.076 74.0509 111.045 73.3135 112.062C72.9731 112.533 72.6196 113.017 72.2705 113.528C71.6727 114.401 71.1272 115.261 70.5991 116.094C69.4602 117.888 68.3823 119.586 66.9335 121.144C66.3357 121.781 65.7334 122.414 65.1225 123.056C60.3921 128.018 55.0289 133.639 54.2783 141.539C53.6717 147.955 56.6217 153.838 59.4277 158.844C65.0439 168.856 71.5461 178.458 78.7596 187.387C79.3312 188.099 80.2957 189.29 81.8274 189.766C82.2856 189.91 82.7743 189.984 83.2805 189.984C84.1969 189.984 85.013 189.749 85.6283 189.548C88.8401 188.479 91.5849 186.532 94.1203 184.629C104.21 177.07 113.614 168.494 122.071 159.145C125.898 154.92 129.433 150.229 129.446 144.546C129.463 136.716 126.212 129.498 123.07 122.519C119.108 113.711 115.364 105.397 117.847 96.1444C120.098 87.756 123.096 79.3806 126.003 71.2846C127.766 66.3571 129.594 61.2638 131.244 56.1923C131.632 54.9921 132.034 53.8967 132.413 52.8361C134.246 47.7952 135.69 43.8104 133.142 36.8185C132.924 36.2337 132.692 35.6271 132.435 35.0073C128.686 25.8943 120.997 14.2631 112.968 10.2522C105.986 6.75627 98.4362 6.46387 91.9079 6.46387Z" fill="black"/>
<g opacity="0.45">
<path d="M130.26 35.893C125.115 23.3801 120.416 10.8367 105.186 8.51044C94.9131 6.94361 84.4748 10.6185 75.6118 16.026C72.2167 18.0948 68.9264 20.4734 66.5524 23.6638C70.3795 24.9338 74.6255 26.5748 76.2271 30.2715C76.9733 31.9911 77.2308 34.2214 78.9283 35.0201C79.9364 35.5002 81.1364 35.2601 82.2187 34.9851C86.5127 33.8984 91.4919 32.5324 95.0222 35.2078C96.5801 36.3862 97.5445 38.18 98.4522 39.9127C101.023 44.7921 103.628 49.7806 104.531 55.2231C105.64 61.9051 103.231 67.5876 98.9279 72.5587C97.4704 74.239 95.8426 76.8969 93.6171 77.569C90.1129 78.634 86.7745 75.3563 83.8595 74.0644C83.2704 73.8026 82.6332 73.5887 81.9917 73.6367C80.5255 73.7545 79.5349 75.1293 78.7625 76.3776C78.4396 76.8882 78.1035 77.473 78.2301 78.0666C78.4221 78.9657 79.5523 79.3148 80.4775 79.245C81.3982 79.1795 82.3496 78.8827 83.2224 79.1839C84.4835 79.6247 85.0246 81.1566 84.9635 82.4921C84.8675 84.6045 84.3308 86.7344 83.2573 88.55C77.9072 97.6106 69.8864 105.065 60.4517 109.735C54.6478 112.607 50.956 108.565 46.4743 105.104C40.8187 100.736 35.3333 96.1572 30.0312 91.3737C33.7493 94.73 36.4636 99.6269 39.9634 103.284C43.1708 106.636 46.9325 109.696 50.8076 112.227C57.1047 116.334 63.5152 112.939 69.2842 109.704C72.6793 107.802 76.0787 105.899 79.4738 104C78.3261 104.646 78.3654 107.963 77.8592 109.085C76.7857 111.442 74.8001 113.999 73.0109 115.88C74.1281 114.139 76.3711 113.2 78.3872 113.628C79.3472 117.539 78.1734 121.663 76.4845 125.325C73.0589 132.771 67.4513 139.199 60.539 143.603C64.497 145.008 66.9146 149.124 67.831 153.227C68.7387 157.325 68.4769 161.593 68.8914 165.774C69.7118 173.936 75.6249 179.776 80.5822 185.908C81.119 186.571 81.7081 187.269 82.5198 187.522C83.2878 187.762 84.1126 187.566 84.8763 187.317C87.7564 186.357 90.2743 184.568 92.705 182.748C97.2871 179.313 103.728 175.472 106.512 170.427C109.803 164.448 109.641 158.172 109.99 151.612C110.112 149.268 111.077 147.16 111.234 144.856C111.474 141.382 109.868 137.781 108.982 134.486C107.83 130.235 106.054 123.579 107.643 119.254C108.389 117.22 110.601 115.548 112.67 116.194C114.228 116.674 115.157 118.224 115.951 119.647C118.037 123.391 120.045 127.197 122.209 130.903C123.645 133.368 126.913 135.913 127.756 138.588C125.643 131.915 122.078 126.281 119.325 119.913C115.982 112.192 113.298 103.956 115.563 95.5331C119.211 81.9335 124.644 68.8445 128.995 55.4588C131.242 48.5499 133.677 45.1674 130.919 37.617C130.727 37.0583 130.496 36.4822 130.26 35.893Z" fill="#20B697"/>
</g>
<g opacity="0.45">
<path d="M112.44 64.873C106.819 69.8092 101.971 75.7404 97.1185 81.3444C92.6499 86.5075 88.1289 91.4568 83.0756 96.0307C77.8171 100.788 72.2052 107.396 66.0391 110.913C70.4204 108.413 75.0417 106.505 79.4754 104C77.3677 105.192 77.9437 109.085 77.084 110.992C75.8185 113.803 73.4053 116.382 70.9964 118.268C74.6577 115.605 80.0907 112.72 83.8436 117.059C85.899 119.424 86.5492 122.654 87.8104 125.521C89.0672 128.389 91.5284 131.243 94.6529 131.086C95.3249 131.055 96.0013 130.872 96.5468 130.471C97.5505 129.729 97.9127 128.411 98.2924 127.219C99.7848 122.636 102.613 118.617 105.519 114.772C107.531 112.114 110.319 109.207 113.592 109.835C116.145 110.329 117.751 112.79 119.064 115.029C111.598 96.8338 121.338 78.3984 127.875 61.3727C128.595 59.4872 128.722 56.5325 126.719 56.2925C126.169 56.227 125.628 56.4365 125.117 56.6547C120.382 58.6624 116.232 61.5385 112.44 64.873Z" fill="#20B697"/>
</g>
<path d="M86.7512 186.767C85.2893 186.767 83.8841 186.606 82.5706 186.296C77.6962 185.139 74.0742 181.936 71.8966 179.448C68.9815 176.123 66.8825 172.16 65.2199 168.72C63.4787 165.12 62.2263 162.038 61.7899 158.717C60.8735 151.734 64.9755 146.056 68.951 140.561C70.474 138.453 71.914 136.463 73.0705 134.412C83.2383 116.404 81.3967 107.618 80.1268 104.677C80.0919 104.598 80.0657 104.537 80.0526 104.493L79.8825 104.035L80.2883 103.769C85.5642 100.273 93.4759 93.6563 101.431 86.0709L102.374 85.1719L102.461 86.4681C103.831 106.601 105.254 127.42 111.856 146.868C113.768 152.485 114.436 157.648 113.842 162.204C112.345 173.766 102.972 183.878 91.5558 186.244C89.9019 186.593 88.2829 186.767 86.7512 186.767Z" fill="#F0C706"/>
<path d="M101.851 86.5163C103.239 106.959 104.687 127.669 111.277 147.069C112.905 151.865 113.895 157.063 113.236 162.13C111.766 173.443 102.593 183.337 91.4257 185.65C89.8896 185.969 88.3186 186.152 86.752 186.152C85.3905 186.152 84.0377 186.012 82.711 185.703C78.6483 184.742 75.1048 182.181 72.3512 179.047C69.602 175.913 67.5816 172.212 65.7618 168.454C64.2476 165.325 62.838 162.082 62.3929 158.639C61.1667 149.299 69.3795 142.189 73.5993 134.713C85.5432 113.554 80.9262 105.096 80.6164 104.284C85.7832 100.862 93.5247 94.4508 101.851 86.5163ZM102.89 83.8408L101.004 85.6347C93.0709 93.1982 85.1941 99.7885 79.9444 103.267L79.137 103.804L79.4774 104.712C79.4905 104.76 79.5254 104.829 79.5647 104.921C80.7953 107.78 82.5714 116.347 72.5389 134.115C71.3955 136.136 69.9642 138.113 68.45 140.208C64.409 145.794 60.2284 151.573 61.1798 158.8C61.6292 162.204 62.8991 165.338 64.6665 168.991C66.3509 172.465 68.4718 176.476 71.4392 179.854C73.6735 182.407 77.3959 185.703 82.4318 186.894C83.7933 187.217 85.2465 187.383 86.752 187.383C88.323 187.383 89.9812 187.204 91.6744 186.855C103.335 184.437 112.913 174.106 114.445 162.296C115.052 157.644 114.371 152.389 112.429 146.684C105.848 127.311 104.434 106.532 103.064 86.4421L102.89 83.8408Z" fill="black"/>
<path opacity="0.64" d="M111.277 147.069C104.688 127.669 103.239 106.96 101.851 86.5166C93.5251 94.4468 85.7837 100.862 80.6212 104.28C80.9267 105.092 85.548 113.55 73.6041 134.709C69.3799 142.185 61.1671 149.295 62.3977 158.635C62.8472 162.083 64.2567 165.325 65.7666 168.45C67.5864 172.204 69.6068 175.909 72.356 179.043C75.1096 182.181 78.6531 184.738 82.7158 185.699C85.5654 186.375 88.5678 186.24 91.4305 185.646C102.602 183.333 111.77 173.439 113.241 162.126C113.896 157.068 112.905 151.865 111.277 147.069ZM103.693 144.948C103.274 145.319 102.79 145.589 102.222 145.738C100.647 146.148 98.9712 145.755 97.4177 145.258C94.3936 144.289 91.3563 142.901 88.1881 143.154C84.8411 143.425 81.4503 145.506 78.3345 144.249C74.7824 142.818 74.0754 138.113 75.965 135.137C77.0472 133.43 78.6182 132.099 79.8662 130.515C81.8911 127.935 83.017 124.657 83.0039 121.38C82.9995 119.822 82.8686 117.971 84.1036 117.02C85.2382 116.147 86.9008 116.592 88.1358 117.303C89.3795 118.019 90.5621 118.988 91.9847 119.115C93.7346 119.267 95.2882 118.12 96.8548 117.33C98.4214 116.535 100.621 116.208 101.703 117.587C102.615 118.757 102.187 120.424 101.969 121.895C100.935 128.769 110.134 139.235 103.693 144.948Z" fill="#FBD152"/>
<path opacity="0.79" d="M111.277 147.069C110.287 144.158 109.427 141.216 108.65 138.253C108.755 138.925 108.847 139.601 108.89 140.286C109.148 144.695 108.432 150.229 102.803 150.159C100.058 150.128 97.5355 148.762 95.0219 147.662C92.5083 146.563 89.6282 145.698 87.0623 146.672C85.2949 147.344 83.9421 148.806 82.2664 149.688C79.8663 150.953 76.829 150.914 74.4638 149.583C72.0986 148.252 70.4883 145.677 70.3225 142.971C70.0388 138.34 73.5823 134.499 76.2181 130.676C78.6269 127.184 80.4117 123.265 81.4765 119.163C82.4235 115.523 81.974 111.289 86.8877 110.578C88.6987 110.316 90.5315 110.883 92.3556 110.77C94.8256 110.617 97.3697 109.238 99.6607 110.198C103.248 111.699 103.139 117.295 103.741 120.511C104.23 123.125 104.435 125.923 105.321 128.424C105.91 130.1 107.062 131.562 107.472 133.382C104.029 118.076 102.916 102.211 101.851 86.5078C93.5251 94.438 85.7837 100.854 80.6212 104.271C80.9267 105.083 85.548 113.541 73.6041 134.7C69.3799 142.176 61.1671 149.286 62.3977 158.626C62.8472 162.074 64.2567 165.317 65.7666 168.442C67.5864 172.195 69.6068 175.9 72.356 179.034C75.1096 182.172 78.6531 184.73 82.7158 185.69C85.5654 186.366 88.5678 186.231 91.4305 185.637C102.602 183.324 111.77 173.43 113.241 162.117C113.896 157.068 112.905 151.865 111.277 147.069Z" fill="#FBD152"/>
<path d="M92.4267 256.372C69.6561 256.372 49.6565 249.446 34.6012 236.343C18.7778 222.578 9.60935 202.816 8.082 179.195L8.03399 178.493C7.33577 168.764 7.81581 166.87 9.15552 166.307C10.2814 165.836 11.464 165.343 12.6859 164.845C17.988 162.667 23.9926 160.197 28.387 157.526C35.1379 153.423 41.8146 148.583 48.8143 142.731C49.4645 142.185 50.3591 141.439 51.5373 141.277C51.6944 141.255 51.8515 141.247 52.0043 141.247C53.1214 141.247 54.112 141.775 54.9542 142.272C62.7175 146.851 69.8568 152.424 76.1844 158.84C80.0595 154.501 84.3317 150.491 88.905 146.907L89.6775 146.305L90.4281 146.92C96.4546 151.839 101.896 157.456 106.618 163.641C112.418 158.674 130.571 145.89 131.928 145.629L132.046 145.607H132.173C133.032 145.607 133.587 145.96 144.243 156.173C148.345 160.105 153.826 165.36 155.559 166.683C158.046 164.797 167.817 155.47 170.749 150.709L172.429 147.981L172.988 151.136C174.672 160.686 176.139 175.63 174.738 186.318C168.991 230.181 138.221 256.372 92.4267 256.372Z" fill="#C0A5A5"/>
<path d="M52.0014 142.46C52.8218 142.46 53.6117 142.892 54.3274 143.315C62.3743 148.055 69.758 153.899 76.2252 160.633C80.2836 155.963 84.7871 151.682 89.6572 147.863C95.9455 152.996 101.597 158.914 106.441 165.43C111.062 161 131.363 146.973 132.161 146.82C133.318 146.82 154.308 168.088 155.569 168.088C156.446 167.966 168.429 156.793 171.789 151.341C173.487 160.987 174.91 175.634 173.526 186.157C167.766 230.163 136.809 255.154 92.4282 255.154C48.0477 255.154 12.4561 227.894 9.30103 179.121C9.17884 177.21 8.3846 167.957 9.6283 167.433C15.7115 164.876 23.5272 161.903 29.0169 158.565C36.2086 154.191 42.9857 149.19 49.5926 143.664C50.221 143.141 50.893 142.591 51.6959 142.486C51.7963 142.469 51.901 142.46 52.0014 142.46ZM52.0014 140.024C51.7876 140.024 51.5737 140.038 51.3686 140.064C49.8413 140.269 48.7503 141.185 48.0259 141.792C41.0743 147.61 34.4412 152.411 27.7514 156.483C23.4399 159.101 17.4789 161.554 12.2292 163.715C11.0029 164.217 9.81161 164.705 8.68137 165.181C6.47762 166.111 6.11104 168.738 6.81799 178.576C6.83981 178.864 6.85727 179.099 6.866 179.274C8.41517 203.226 17.7276 223.281 33.8041 237.264C41.3972 243.876 50.3388 248.983 60.3626 252.439C70.286 255.857 81.0734 257.594 92.4282 257.594C138.89 257.594 170.114 231.006 175.944 186.475C177.362 175.647 175.883 160.555 174.185 150.922L173.077 144.607L169.712 150.067C167.09 154.322 158.698 162.423 155.556 165.098C153.383 163.235 148.691 158.739 145.091 155.291C133.715 144.384 133.545 144.384 132.183 144.38H131.943L131.699 144.424C131.28 144.507 130.407 144.673 119.327 152.529C115.893 154.968 110.298 159.005 106.803 161.882C102.208 156.025 96.971 150.682 91.2063 145.969L89.6921 144.738L88.1604 145.938C83.8663 149.303 79.8341 153.039 76.1467 157.063C69.9718 150.953 63.0638 145.628 55.5754 141.212C54.5935 140.64 53.4284 140.024 52.0014 140.024Z" fill="black"/>
<g opacity="0.14">
<path d="M172.523 156.073C172.441 156.688 172.353 157.299 172.249 157.91C171.808 161.882 171.131 165.766 170.328 168.861C167.784 178.641 162.591 187.571 155.339 194.585C144.381 205.173 130.211 209.607 115.257 209.978C102.488 210.292 90.8102 204.47 81.6417 196.055C80.254 194.781 78.9972 193.402 77.832 191.957C77.2866 191.447 76.7498 190.927 76.2218 190.39C72.8049 186.934 69.3443 182.447 67.1362 177.987C64.8932 173.456 62.3927 168.385 61.341 163.348C60.1977 157.858 59.2507 152.071 59.1503 146.362C57.5706 145.31 55.9691 144.284 54.3283 143.32C53.521 142.844 52.622 142.36 51.6925 142.486C50.8852 142.595 50.2132 143.141 49.5891 143.665C42.9823 149.194 36.2095 154.196 29.0135 158.565C23.5238 161.904 15.7081 164.871 9.62488 167.433C8.37681 167.957 9.17541 177.21 9.2976 179.121C12.4527 227.894 48.0443 255.154 92.4248 255.154C136.805 255.154 167.762 230.164 173.523 186.157C174.688 177.236 173.846 165.36 172.523 156.073Z" fill="#C0A5A5"/>
</g>
<g opacity="0.46">
<path d="M102.492 232.764C72.0979 228.679 49.768 204.099 44.3307 174.503C42.7815 166.071 41.852 157.674 42.3277 149.43C38.0162 152.703 33.6043 155.776 29.0135 158.564C23.5238 161.903 15.7081 164.871 9.62488 167.433C8.37681 167.957 9.17541 177.209 9.2976 179.121C12.4527 227.894 48.0443 255.154 92.4248 255.154C131.171 255.154 159.672 236.108 170.132 201.995C155.622 223.342 129.225 236.356 102.492 232.764Z" fill="#C0A5A5"/>
</g>
<path opacity="0.35" d="M98.6307 254.329C54.2458 254.329 18.6585 227.069 15.5035 178.296C15.3769 176.385 14.5827 167.132 15.8264 166.608C21.914 164.046 29.7297 161.078 35.215 157.744C37.5933 156.299 46.3865 151.014 48.6732 149.43C48.6863 148.173 46.7793 147.16 46.8535 145.908C42.5376 149.181 33.6004 155.771 29.0096 158.56C23.5199 161.899 15.7042 164.867 9.62097 167.429C8.37291 167.953 9.17151 177.205 9.2937 179.117C12.4488 227.889 48.0404 255.15 92.4209 255.15C98.4997 255.15 104.325 254.678 109.868 253.757C106.228 254.133 102.484 254.329 98.6307 254.329Z" fill="white"/>
<path d="M27.5901 83.0596C25.8576 83.0596 24.3433 82.4399 22.96 81.1568C18.535 77.0673 17.2957 70.669 20.0188 65.938C21.4719 63.4153 22.864 60.7922 24.2168 58.2565C26.9529 53.1152 29.7763 47.7993 33.2674 42.9504C35.1352 40.3579 37.2298 37.6651 40.5158 35.7142C40.6249 35.6487 40.8213 35.5134 41.0831 35.3432C42.5974 34.3306 43.8411 33.5581 44.8535 33.1129C44.1291 31.5286 44.0898 29.6869 44.8448 28.1637C45.5866 26.671 47.114 25.6061 48.7679 25.3704C48.6413 24.8336 48.5933 24.2662 48.6326 23.6945C48.7286 22.2586 49.3788 20.9362 50.4 20.0633C51.2946 19.2995 52.4902 18.8761 53.7514 18.8761C54.358 18.8761 54.9427 18.9722 55.4969 19.1511C55.7762 17.2918 57.0156 15.5766 58.4949 14.5771C60.4674 13.246 62.4791 13.0452 64.421 12.8488C64.9534 12.7965 65.4946 12.7441 66.04 12.6612C67.7856 12.408 69.5486 11.6268 71.2461 10.863C71.9487 10.5531 72.6775 10.2258 73.4019 9.94212C78.2501 8.0174 83.5348 7.71185 88.5227 7.65947C89.6485 7.64638 90.7744 7.6377 91.9003 7.6377C98.2977 7.6377 105.681 7.92134 112.428 11.2907C119.305 14.7255 125.943 23.258 129.194 29.7305C131.07 33.4621 127.736 36.1244 125.533 37.892C125.175 38.1757 124.83 38.4507 124.511 38.7256C121.976 40.8948 118.83 42.6885 114.902 44.2074C112.044 45.3116 109.072 46.1582 106.201 46.9788C104.163 47.5592 102.051 48.1616 100.021 48.8468C89.9933 52.2205 80.7506 57.9554 71.8091 63.4982C70.033 64.598 68.2612 65.6979 66.4764 66.7803C60.7859 70.2413 53.987 74.1649 46.6558 77.0454C44.6353 77.8398 42.5668 78.4028 40.5638 78.9484C39.0888 79.3499 37.5658 79.7689 36.1039 80.262C35.253 80.5545 34.3584 80.9516 33.4944 81.3357C31.5961 82.1824 29.628 83.0596 27.5901 83.0596Z" fill="#F0C706"/>
<path d="M91.908 8.81631C98.7854 8.81631 105.645 9.21343 111.921 12.3471C118.453 15.6117 124.907 23.7994 128.154 30.2588C129.843 33.6194 126.051 35.8671 123.76 37.8354C121.041 40.1617 117.812 41.8289 114.487 43.1121C109.656 44.9757 104.568 46.0799 99.6582 47.734C87.531 51.8191 76.8178 59.1296 65.8819 65.7766C59.5849 69.6086 53.1132 73.2486 46.2358 75.9545C42.7971 77.3075 39.2056 77.9665 35.7451 79.1493C32.9871 80.0876 30.2553 81.8815 27.5978 81.8815C26.3017 81.8815 25.0231 81.4538 23.7619 80.2928C19.9523 76.7663 18.5035 70.9442 21.052 66.523C25.442 58.8983 29.0727 50.8022 34.2352 43.6358C36.2382 40.8426 38.1757 38.4683 41.1214 36.7182C41.7585 36.3428 45.1666 33.8551 46.4845 33.8551C46.6503 33.8551 46.7813 33.8988 46.8729 33.9861C45.5376 32.6113 45.0619 30.3941 45.9129 28.6745C46.5631 27.3608 48.025 26.4879 49.4651 26.4879C49.9102 26.4879 50.3509 26.5708 50.7655 26.7498C49.3341 25.1349 49.5262 22.3504 51.1713 20.9538C51.8914 20.3428 52.8252 20.0503 53.7635 20.0503C54.9723 20.0503 56.1941 20.5392 56.9578 21.4863C56.0065 19.3957 57.2589 16.8381 59.1659 15.555C61.409 14.0449 63.7349 14.1889 66.2223 13.8267C68.8799 13.4426 71.376 12.0154 73.8459 11.0334C78.4891 9.196 83.5992 8.88609 88.5434 8.83809C89.6649 8.82499 90.7865 8.81631 91.908 8.81631ZM91.908 6.46387C90.7777 6.46387 89.6475 6.47255 88.5173 6.48564C83.4203 6.53365 78.0134 6.85226 72.9776 8.84681C72.227 9.13923 71.4938 9.47094 70.7781 9.78955C69.0719 10.5533 67.466 11.2691 65.8863 11.5004C65.367 11.5746 64.8564 11.627 64.3109 11.6793C62.3254 11.8757 60.0649 12.1071 57.848 13.5997C56.4472 14.5424 55.2341 16.0438 54.6493 17.7546C54.3613 17.7154 54.0602 17.6979 53.7635 17.6979C52.2187 17.6979 50.7611 18.2173 49.6527 19.1643C48.3916 20.238 47.593 21.8572 47.4751 23.6074C47.4533 23.8998 47.449 24.1922 47.4664 24.4803C45.8998 25.0171 44.5426 26.1562 43.8051 27.6401C43.0589 29.1415 42.9498 30.896 43.4037 32.5239C42.5483 32.9866 41.5752 33.6063 40.4406 34.3657C40.2006 34.5228 40.0217 34.6407 39.9213 34.7018C36.4476 36.7706 34.2614 39.5725 32.3238 42.2654C28.7891 47.1754 25.9438 52.5305 23.1902 57.7024C21.8418 60.2338 20.4541 62.8481 19.0097 65.3533C16.0161 70.5514 17.3427 77.5606 22.1691 82.0211C23.7575 83.4876 25.586 84.2339 27.5978 84.2339C29.8801 84.2339 31.9703 83.3043 33.9864 82.4096C34.8679 82.0211 35.6971 81.6502 36.5044 81.3752C37.927 80.8907 39.3671 80.4979 40.8944 80.0833C42.9236 79.5334 45.027 78.9573 47.0999 78.1455C54.5141 75.23 61.374 71.2758 67.1082 67.7887C68.893 66.7019 70.6996 65.5846 72.4495 64.5022C81.33 58.9943 90.5202 53.3031 100.413 49.9643C102.416 49.2921 104.511 48.6899 106.54 48.1138C109.438 47.2889 112.431 46.4335 115.342 45.3118C119.405 43.745 122.656 41.8857 125.296 39.6206C125.601 39.3543 125.942 39.0881 126.291 38.8087C128.634 36.9277 132.566 33.7853 130.262 29.2026C126.928 22.5643 120.094 13.7961 112.977 10.2391C105.986 6.75624 98.4363 6.46387 91.908 6.46387Z" fill="black"/>
<path d="M131.43 38.8348C129.235 29.8746 122.436 24.3492 113.76 22.0535C109.955 21.0497 106.416 19.0988 102.628 17.9422C100.337 17.2439 97.9414 16.6678 95.5631 16.982C93.1936 17.2919 90.824 18.6623 89.9381 20.8882C88.1315 19.8277 86.1939 18.8369 84.1036 18.7933C82.0134 18.7453 79.7616 19.9237 79.2161 21.9444C76.9731 19.1468 72.3605 19.0945 69.5545 21.3247C66.7529 23.5593 65.6707 27.4698 66.1333 31.0225C64.3528 29.5691 61.4814 30.3023 60.0064 32.0699C58.5358 33.8331 58.1867 36.2773 58.2259 38.5773C58.2652 40.873 58.6361 43.1775 58.3612 45.4601C57.7372 50.645 53.6221 54.3548 48.8742 55.9216C43.5197 57.6849 39.2432 60.4912 34.2465 62.8524C29.5598 65.0695 25.4272 68.1028 22.9878 72.8862C19.6407 79.4547 24.8948 84.788 30.2972 87.8126L131.43 38.8348Z" fill="#20B697"/>
<path d="M131.428 38.8347C130.263 34.6667 127.924 30.8653 124.664 28.1157C121.417 25.3355 117.437 23.6202 113.305 22.6077C108.993 21.4729 105.166 19.3737 101.069 18.3917C99.0438 17.8767 96.9666 17.5886 95.0857 18.0207C93.2224 18.4397 91.503 19.6356 90.8703 21.2591L90.4426 22.3546L89.4171 21.761C87.6628 20.7441 85.8606 19.8712 84.0845 19.8494C83.251 19.8363 82.3782 20.072 81.6712 20.4953C80.9643 20.923 80.4537 21.5384 80.2835 22.2236L79.7555 24.3666L78.3503 22.6339C77.4557 21.5297 75.9895 20.923 74.4709 20.875C72.9522 20.8226 71.39 21.3071 70.2423 22.2368C69.0509 23.1969 68.1869 24.5717 67.7025 26.0905C67.2138 27.6094 67.0785 29.2679 67.288 30.8696L67.6851 33.9204L65.3766 31.9302C64.5169 31.1838 62.911 31.293 61.7458 32.0655C60.5938 32.7812 59.865 34.2346 59.5726 35.7883C59.2628 37.3639 59.3457 39.053 59.4636 40.8337C59.5727 42.61 59.721 44.5129 59.3195 46.4594C58.9268 48.3885 58.0627 50.2172 56.8496 51.7273C56.2474 52.4867 55.571 53.1807 54.8335 53.7917C54.1047 54.4158 53.3061 54.9526 52.4814 55.4196C51.661 55.9041 50.7882 56.2837 49.9067 56.6198L48.615 57.0694C48.2048 57.2003 47.7946 57.3618 47.3887 57.5058C45.7523 58.1168 44.1595 58.8369 42.5711 59.6094C40.9826 60.3907 39.4029 61.2156 37.8013 62.023C36.2129 62.8479 34.5241 63.5812 32.9837 64.3493C29.881 65.9249 27.0183 68.0241 24.9323 70.8043C23.9112 72.1965 22.9773 73.7023 22.5671 75.3433C22.1526 76.9931 22.3402 78.7563 23.0166 80.345C23.6712 81.9511 24.8102 83.3477 26.0669 84.5741C27.3368 85.8136 28.7725 86.8786 30.2999 87.8082C28.7201 86.9833 27.2015 86.0057 25.8313 84.836C24.4829 83.6532 23.2391 82.2784 22.4537 80.6025C21.6507 78.9484 21.3322 77.0018 21.7074 75.1557C21.8253 74.7061 21.9213 74.2391 22.0784 73.7983C22.2573 73.3706 22.4188 72.9254 22.6195 72.5064C23.0253 71.6859 23.4879 70.8916 24.0072 70.1278C26.1019 67.0814 29.078 64.7508 32.268 62.9832C33.887 62.0972 35.4623 61.377 37.0246 60.5129C38.5868 59.6749 40.1535 58.7977 41.7506 57.9685C43.3478 57.1348 44.9843 56.3405 46.6818 55.6596C47.1095 55.4894 47.5328 55.3192 47.9692 55.1708L49.2041 54.7257C49.9809 54.4158 50.7489 54.0666 51.4603 53.6302C54.336 51.9542 56.5834 49.209 57.1463 46.0273C57.4431 44.4561 57.3384 42.7496 57.2205 40.9733C57.094 39.2013 56.9631 37.2853 57.334 35.3431C57.6962 33.4315 58.5864 31.3541 60.4934 30.1058C61.4055 29.5123 62.4528 29.1326 63.5787 29.0758C64.6958 29.0017 65.9308 29.3246 66.8865 30.0971L64.9751 31.1533C64.7351 29.2155 64.8966 27.234 65.5075 25.3616C66.1184 23.4937 67.2181 21.713 68.8197 20.4386C70.4649 19.1336 72.5333 18.5269 74.5713 18.6011C75.5924 18.6404 76.6222 18.8586 77.5779 19.2951C78.5423 19.7228 79.4282 20.3906 80.0915 21.2373L78.154 21.6432C78.5162 20.2946 79.5024 19.2383 80.5846 18.6186C81.68 17.9857 82.9019 17.6846 84.1499 17.7195C85.3544 17.7545 86.502 18.0687 87.5406 18.4964C88.588 18.9241 89.5437 19.4609 90.4557 20.0021L88.9982 20.4997C89.4913 19.2951 90.3641 18.2956 91.3677 17.5842C92.3758 16.8684 93.5148 16.4102 94.6974 16.1658C97.08 15.6944 99.3973 16.1265 101.527 16.7157C105.847 17.8679 109.626 20.1331 113.663 21.3333C117.883 22.4943 121.954 24.5412 125.161 27.5657C126.763 29.0671 128.133 30.8173 129.194 32.7245C130.25 34.6449 130.978 36.718 131.428 38.8347Z" fill="black"/>
<g opacity="0.45">
<path d="M33.1408 65.9294C34.0354 65.4318 34.9562 64.9822 35.8813 64.5763C40.8954 62.381 46.3197 61.1415 51.1548 58.5796C54.7725 56.6636 58.1894 53.7743 59.8956 49.9685C60.5677 48.4715 61.2921 46.5555 61.4884 44.9276C61.7677 42.6014 60.9866 40.166 61.0346 37.8223C61.0564 36.9058 61.1044 35.9587 61.4754 35.1207C62.0994 33.6936 63.6748 32.7552 65.2239 32.8774C66.7687 32.9996 68.1782 34.1867 68.571 35.6925C68.3877 33.7328 68.4008 31.7514 68.6015 29.7918C68.7935 27.9456 69.2692 25.9335 70.7791 24.8555C72.6861 23.4895 75.3132 24.2052 77.53 24.969C80.3272 25.9336 82.627 27.5048 85.6424 27.4961C90.1634 27.4873 94.6669 27.029 97.7696 31.0574C98.9871 32.6374 99.7551 34.5141 100.445 36.3821C102.421 41.7067 103.896 47.219 104.861 52.8142C102.823 50.2915 100.781 47.7689 98.7427 45.2419C97.4118 43.5921 95.8626 41.8114 93.7548 41.5496C91.9307 41.3226 90.1721 42.3133 88.7669 43.5004C87.0956 44.9145 85.6512 46.7869 85.4024 48.9604C85.8606 47.3368 86.1225 45.6129 85.769 43.9631C85.4111 42.3133 84.3595 40.7508 82.7928 40.1224C81.5229 39.6161 80.0872 39.7688 78.7693 40.1224C76.9365 40.6112 75.143 41.5277 74.0127 43.0509C72.1974 45.4994 72.4723 48.86 72.8214 51.8933C71.2853 50.0166 69.0248 48.5937 66.5985 48.6068C63.8798 48.6243 62.3045 50.3482 61.5015 52.6876C60.7989 54.7258 59.4942 56.428 58.0148 58.0646C54.947 61.4689 51.0283 63.8737 46.6033 65.0695C42.51 66.1825 38.2684 66.7149 34.2449 68.0723C30.2258 69.4253 26.3114 71.7733 24.2734 75.4918C25.683 71.2583 29.1784 68.1334 33.1408 65.9294Z" fill="#20B697"/>
</g>
<path d="M85.4008 76.6919C85.8939 76.7748 86.387 76.9407 86.8277 77.2244C87.2729 77.5081 87.6482 77.9314 87.8969 78.4203C88.3987 79.4154 88.4031 80.5414 88.3115 81.5801C88.0409 83.6751 87.2903 85.6041 86.4263 87.4416C84.6894 91.1208 82.4115 94.4552 80.0201 97.6674C78.7939 99.2517 77.5371 100.81 76.2366 102.329C74.9057 103.821 73.5878 105.323 72.1608 106.732C69.3854 109.513 66.2827 112.55 62.3203 113.545C64.1008 112.624 65.5452 111.311 66.946 109.923C67.6137 109.259 68.2639 108.504 68.8966 107.758L70.8037 105.497C72.0386 103.961 73.3172 102.46 74.526 100.902C75.7566 99.3652 76.9785 97.8158 78.1524 96.2403C79.3525 94.6865 80.5089 93.0979 81.6304 91.4918C82.765 89.8944 83.8167 88.249 84.8116 86.5862C85.7717 84.9058 86.6925 83.1862 87.1769 81.3662C87.4212 80.4671 87.5434 79.5245 87.2947 78.6559C87.0634 77.7874 86.3172 77.0934 85.4008 76.6919Z" fill="black"/>
<path d="M83.0175 79.0051C82.7556 78.608 82.7818 78.0625 82.9651 77.5824C83.1527 77.1067 83.5106 76.6964 83.947 76.404C84.379 76.1028 84.9506 75.9326 85.4569 75.8977C85.9762 75.8584 86.478 75.9326 86.9319 76.0679C87.8439 76.3429 88.5639 76.8622 89.1312 77.4034C89.7029 77.9621 90.1349 78.5382 90.6804 79.2671C89.7771 79.494 88.8869 79.2714 88.1494 79.0532C87.4032 78.8131 86.7835 78.5687 86.2249 78.3985C85.662 78.237 85.2212 78.1236 84.7237 78.1454C84.4663 78.1628 84.187 78.2196 83.8946 78.333C83.5892 78.4422 83.3055 78.6342 83.0175 79.0051Z" fill="black"/>
<path d="M65.1797 112.35C69.3297 110.028 73.3881 107.653 77.2719 105.044C79.2008 103.712 81.1427 102.403 82.993 100.971C83.9268 100.273 84.8433 99.5531 85.764 98.8417C86.6586 98.091 87.5881 97.3795 88.4565 96.5983C92.0262 93.5956 95.4082 90.3615 98.6112 86.9441C100.222 85.242 101.792 83.5225 103.11 81.6283C104.437 79.7429 105.484 77.6435 105.929 75.2998C106.03 77.6915 105.249 80.0963 104.14 82.2437C102.993 84.391 101.557 86.355 100.047 88.1924C98.5719 90.0822 96.9355 91.828 95.2903 93.5651C94.4437 94.4118 93.5928 95.2584 92.7069 96.0615C91.8341 96.882 90.9396 97.6807 90.0319 98.4575C86.3706 101.552 82.43 104.302 78.2713 106.658C74.1125 109.011 69.7225 110.957 65.1797 112.35Z" fill="black"/>
<path d="M112.124 136.336C111.857 138.733 112.643 147.671 114.223 149.491C109.697 154.231 104.151 158.215 100.511 163.763C97.3301 168.616 95.4056 174.407 95.7809 180.199C95.8158 180.749 95.9074 181.378 96.3613 181.696C96.6755 181.919 97.0944 181.941 97.4828 181.923C103.064 181.683 107.685 176.372 111.002 172.378C114.816 167.774 119.852 165.103 124.626 161.493C126.28 160.241 127.969 158.879 128.828 156.998C129.387 155.789 129.57 154.445 129.653 153.118C129.967 148.116 128.078 140.871 125.922 136.341H112.124V136.336Z" fill="#20B697"/>
<path d="M112.123 136.336C112.053 137.458 112.149 138.58 112.241 139.693C112.341 140.806 112.49 141.919 112.66 143.023C112.83 144.127 113.026 145.231 113.288 146.309C113.424 146.846 113.572 147.383 113.755 147.894C113.943 148.4 114.165 148.919 114.471 149.273L114.659 149.491L114.458 149.718C113.035 151.32 111.525 152.838 110.015 154.344C108.492 155.837 106.969 157.303 105.547 158.853C104.133 160.402 102.767 161.986 101.641 163.715C100.502 165.43 99.5508 167.28 98.7741 169.179C98.0017 171.082 97.4431 173.063 97.1332 175.075C96.9805 176.083 96.9107 177.092 96.8714 178.104C96.8714 178.61 96.8583 179.117 96.8889 179.619C96.9063 180.138 96.95 180.636 97.0241 180.749C97.0678 180.815 97.0242 180.749 97.0067 180.745C96.998 180.745 97.1158 180.775 97.3034 180.771C97.7311 180.749 98.2242 180.705 98.6737 180.605C99.5945 180.422 100.498 180.081 101.362 179.636C103.09 178.728 104.691 177.454 106.158 176.022C107.646 174.582 108.977 173.007 110.369 171.361C111.818 169.668 113.498 168.219 115.217 166.901C118.673 164.26 122.4 162.17 125.642 159.59C126.428 158.944 127.135 158.246 127.685 157.456C128.234 156.675 128.575 155.78 128.78 154.794C128.981 153.812 129.068 152.764 129.081 151.739C129.112 150.704 129.059 149.657 128.959 148.614C128.544 144.437 127.497 140.282 125.917 136.336C126.917 138.222 127.728 140.208 128.383 142.246C129.033 144.284 129.579 146.362 129.923 148.496C130.285 150.621 130.421 152.821 130.115 155.034C129.963 156.142 129.605 157.299 128.976 158.298C128.37 159.302 127.571 160.136 126.742 160.878C123.434 163.754 119.786 165.984 116.526 168.581C114.903 169.877 113.397 171.287 112.088 172.836C110.74 174.451 109.339 176.145 107.781 177.681C106.219 179.217 104.486 180.684 102.422 181.722C101.392 182.242 100.284 182.652 99.1144 182.879C98.5253 182.997 97.9536 183.049 97.3209 183.071C96.9849 183.071 96.5528 183.058 96.0554 182.835C95.5492 182.621 95.1302 182.133 94.9513 181.714C94.5891 180.845 94.6502 180.247 94.6153 179.71C94.5848 179.152 94.6022 178.593 94.6066 178.034C94.6502 176.921 94.7724 175.813 94.9644 174.717C95.3571 172.531 96.0117 170.41 96.8889 168.389C98.6213 164.347 101.331 160.755 104.447 157.783C105.992 156.282 107.62 154.885 109.221 153.489C110.84 152.11 112.442 150.73 113.969 149.26L113.96 149.705C113.554 149.177 113.371 148.627 113.188 148.081C113.013 147.531 112.887 146.977 112.773 146.418C112.542 145.31 112.394 144.188 112.271 143.066C112.158 141.945 112.084 140.823 112.04 139.701C112.018 138.584 111.992 137.454 112.123 136.336Z" fill="black"/>
<path opacity="0.45" d="M129.261 153.131C129.243 152.673 129.217 152.21 129.23 151.739C129.2 153.375 128.135 154.846 126.83 155.832C125.521 156.819 123.976 157.417 122.484 158.098C116.492 160.834 111.225 165.129 107.332 170.44C106.381 171.737 105.478 173.124 104.151 174.037C102.825 174.944 100.922 175.241 99.6521 174.255C96.6629 171.929 99.255 166.569 100.857 164.23C102.436 161.93 104.583 160.092 106.713 158.285C110.396 155.152 114.144 151.974 118.587 150.076C114.742 147.767 112.185 143.442 112.019 138.964C111.727 140.548 114.45 149.26 114.219 149.5C109.693 154.239 104.143 158.224 100.507 163.771C97.3262 168.625 95.4017 174.416 95.777 180.208C95.8119 180.758 95.9035 181.386 96.3574 181.705C96.6716 181.927 97.0905 181.949 97.4789 181.932C103.06 181.692 107.682 176.38 110.998 172.387C114.812 167.782 119.848 165.111 124.622 161.502C126.276 160.249 127.965 158.888 128.824 157.006C129.405 155.736 129.331 154.453 129.261 153.131Z" fill="#20B697"/>
<path d="M78.4905 113.55C68.3314 118.835 52.8397 127.52 44.9367 136.005C44.4916 136.476 44.0422 137.004 43.9549 137.646C43.8763 138.261 44.1556 138.855 44.4218 139.409C46.8481 144.446 49.9508 148.959 52.6739 153.729C55.3576 158.438 57.0028 164.553 60.5419 168.699C63.5835 172.269 67.7859 172.278 69.322 167.267C71.6086 159.83 67.895 148.631 61.3885 144.079C63.4569 142.495 69.4224 138.248 71.181 136.328L78.4905 113.55Z" fill="#20B697"/>
<path d="M78.4915 113.55C70.187 118.381 61.9219 123.313 54.3157 129.074C52.413 130.51 50.5889 132.029 48.8259 133.604C47.9706 134.421 47.1153 135.224 46.3167 136.079C45.9152 136.494 45.457 136.943 45.2301 137.288C45.1123 137.463 45.0468 137.615 45.0294 137.724C45.0119 137.825 45.0119 137.943 45.0643 138.122C45.1516 138.466 45.457 139.021 45.7189 139.549C45.9851 140.073 46.2643 140.596 46.5436 141.116C47.1153 142.15 47.7044 143.18 48.3154 144.197C49.5285 146.244 50.8027 148.278 52.0552 150.338C52.6879 151.376 53.2989 152.398 53.9055 153.48C54.5208 154.571 55.0619 155.68 55.5594 156.788C56.5543 159.01 57.4533 161.227 58.5006 163.313C59.0243 164.356 59.5785 165.373 60.2156 166.32C60.5298 166.787 60.8571 167.25 61.2149 167.678C61.5641 168.127 61.9088 168.503 62.3015 168.847C63.0739 169.533 63.9816 170.03 64.8544 170.104C65.7272 170.196 66.5258 169.864 67.1585 169.162C67.7956 168.455 68.2146 167.468 68.5113 166.39C68.8081 165.316 68.9695 164.186 69.0306 163.047C69.1615 160.764 68.8604 158.434 68.2975 156.173C67.7258 153.917 66.8618 151.717 65.6879 149.692C64.5271 147.662 63.039 145.803 61.18 144.371L60.7873 144.066L61.1669 143.8L66.2683 140.182C67.1149 139.575 67.9614 138.964 68.7862 138.335C69.6066 137.698 70.4358 137.061 71.1776 136.328C70.4794 137.105 69.6939 137.799 68.9084 138.484C68.1185 139.165 67.3156 139.832 66.5039 140.487L61.599 144.363L61.5859 143.787C63.6587 145.14 65.3519 146.999 66.7177 149.05C68.0749 151.115 69.1092 153.375 69.8379 155.741C70.5667 158.106 70.9638 160.59 70.9289 163.112C70.9114 164.374 70.7849 165.644 70.4838 166.896C70.187 168.136 69.7026 169.454 68.7557 170.571C68.28 171.117 67.6734 171.619 66.9578 171.929C66.2421 172.252 65.4304 172.374 64.6755 172.317C63.135 172.199 61.8433 171.462 60.8047 170.593C60.2854 170.157 59.801 169.655 59.4083 169.157C58.9937 168.664 58.6228 168.145 58.265 167.63C57.5493 166.582 56.9427 165.487 56.3798 164.391C55.2539 162.192 54.3331 159.953 53.3469 157.801C52.8625 156.723 52.3563 155.662 51.8021 154.65C51.2435 153.633 50.6238 152.594 50.0216 151.568C48.7997 149.517 47.5299 147.47 46.3167 145.367C45.7101 144.315 45.1341 143.25 44.5712 142.163C44.2919 141.622 44.0169 141.076 43.7507 140.522C43.4933 139.963 43.1966 139.475 42.9696 138.65C42.8736 138.253 42.83 137.751 42.9391 137.266C43.0482 136.79 43.2664 136.393 43.4933 136.079C43.9602 135.442 44.3879 135.075 44.8243 134.626C45.6796 133.735 46.6135 132.941 47.5255 132.125C49.3932 130.554 51.3133 129.065 53.2945 127.673C61.2498 122.152 69.7768 117.617 78.4915 113.55Z" fill="black"/>
<path opacity="0.45" d="M61.385 144.088C61.9261 144.463 67.7999 139.008 68.6247 138.41C70.7935 136.856 72.9406 135.08 73.8264 132.465C71.2779 134.717 68.7032 136.978 65.7882 138.728C62.8688 140.474 59.5479 141.7 56.1484 141.666C55.7033 141.661 55.1273 141.513 55.1011 141.068C56.7855 142.207 59.0722 143.529 60.233 145.227C61.2279 146.672 62.1749 148.265 63.0957 149.775C64.5838 152.228 65.7969 154.846 66.6435 157.591C67.2544 159.586 68.5331 163.078 66.5562 164.74C65.8711 165.316 64.9416 165.548 64.047 165.539C62.5676 165.522 61.1101 164.884 60.0977 163.811C58.8627 162.501 58.3478 160.699 57.7892 158.984C55.904 153.196 53.1068 147.702 49.5241 142.778C48.4113 141.242 45.2169 137.572 46.9799 135.743C55.2713 127.123 65.2296 121.131 75.6418 115.457C70.2175 118.255 64.8674 120.982 59.7311 124.304C54.477 127.712 49.2186 131.405 44.9289 136.009C44.4838 136.481 44.0343 137.009 43.9471 137.65C43.8685 138.266 44.1478 138.859 44.414 139.413C46.8403 144.45 49.943 148.963 52.666 153.733C55.3498 158.442 56.995 164.557 60.5341 168.703C63.5757 172.273 67.7781 172.282 69.3142 167.272C71.6008 159.835 67.8915 148.636 61.385 144.088Z" fill="#20B697"/>
<path opacity="0.25" d="M77.0336 65.8201C78.3995 73.8201 91.1202 80.2489 98.3904 73.7285C101.223 71.184 102.798 67.4874 103.575 63.7558C104.386 59.8321 104.347 55.4982 102.183 52.1289C99.7868 48.4016 92.5253 45.5473 88.947 49.1436C87.6989 50.4005 86.9178 52.0459 85.709 53.3422C83.9853 55.1971 81.524 56.2183 79.761 58.034C77.3129 60.5435 76.5885 63.2625 77.0336 65.8201Z" fill="#20B697"/>
<path d="M86.0065 64.1877C86.5738 66.3175 87.7477 68.264 89.5325 69.6214C92.9974 72.2531 98.6922 71.6377 101.027 67.9672C102.153 66.204 102.432 64.048 102.611 61.9661C103.257 54.3065 97.1649 47.3583 89.7332 52.5215C86.1592 55.0048 84.8893 59.9541 86.0065 64.1877Z" fill="#F34657"/>
<path opacity="0.25" d="M50.7634 65.9557C46.2643 67.5661 41.3549 68.1117 37.1787 70.4379C34.9488 71.6818 32.9065 73.5498 32.2213 76.0069C31.5624 78.3899 32.2606 80.9257 33.129 83.2432C36.1619 91.3043 41.3636 98.5449 48.036 103.992C50.0303 105.624 52.3344 107.156 54.9134 107.169C57.5798 107.182 59.9493 105.567 62.1225 104.022C66.2988 101.046 70.4924 98.0562 74.1537 94.4686C75.8731 92.7839 77.5575 90.75 77.6186 88.3365C77.7059 84.9846 74.6686 82.3922 73.774 79.1625C73.0889 76.6922 73.7042 74.0779 73.8919 71.5203C74.2846 66.2961 71.7885 57.8901 65.1031 57.9862C60.4337 58.0516 55.3149 64.3277 50.7634 65.9557Z" fill="#20B697"/>
<path d="M95.2475 193.799C95.3348 193.921 95.4265 194.043 95.5268 194.161C95.937 194.637 96.5872 195.064 97.1545 194.802C97.7873 194.519 97.8353 193.668 97.7917 192.982C97.604 189.858 97.4164 186.733 97.2287 183.612C97.22 185.951 97.9706 188.225 98.8696 190.381C99.4281 191.717 100.109 193.1 101.335 193.873C102.553 194.65 104.46 194.514 105.149 193.24C105.895 191.869 104.9 190.259 104.185 188.875C103.412 187.37 102.945 185.707 102.819 184.018C103.971 185.209 104.708 186.737 105.699 188.064C106.698 189.386 108.13 190.569 109.792 190.569C110.019 190.569 110.251 190.543 110.447 190.429C110.678 190.298 110.831 190.063 110.931 189.823C111.59 188.291 110.643 186.58 109.722 185.188C108.802 183.795 107.698 182.534 106.816 181.159C106.035 179.942 105.826 178.344 104.429 177.593C102.862 176.734 101.209 177.428 99.5634 177.345C97.8659 177.266 96.6658 176.847 95.3785 178.466C94.3966 179.697 94.0911 181.321 93.9297 182.883C93.7202 184.847 93.6809 186.833 93.8205 188.801C93.9471 190.556 94.2351 192.389 95.2475 193.799Z" fill="black"/>
<path d="M66.5516 182.77C66.4512 182.879 66.3377 182.988 66.2242 183.093C65.7617 183.512 65.0591 183.852 64.5223 183.525C63.9376 183.163 63.9987 182.316 64.1253 181.639C64.71 178.563 65.2948 175.49 65.8795 172.417C65.5915 174.739 64.5529 176.9 63.3834 178.925C62.659 180.177 61.808 181.461 60.4945 182.076C59.1854 182.691 57.3133 182.316 56.7896 180.963C56.2267 179.51 57.418 178.039 58.3039 176.76C59.2639 175.368 59.9403 173.775 60.2763 172.116C58.9846 173.151 58.0551 174.573 56.903 175.761C55.7466 176.943 54.1756 177.938 52.5348 177.725C52.3035 177.694 52.0766 177.637 51.8977 177.502C51.6839 177.34 51.566 177.092 51.4919 176.834C51.038 175.232 52.1945 173.657 53.2854 172.396C54.372 171.13 55.6288 170.021 56.6761 168.764C57.6056 167.656 58.0202 166.102 59.4952 165.53C61.1622 164.876 62.7113 165.775 64.3521 165.906C66.0497 166.041 67.2891 165.779 68.3669 167.551C69.1786 168.895 69.2702 170.545 69.2353 172.116C69.1917 174.093 68.9735 176.066 68.5982 178.004C68.2622 179.719 67.7342 181.5 66.5516 182.77Z" fill="black"/>
<path d="M79.0315 55.8211C78.8526 55.8211 78.665 55.8124 78.4773 55.7993C73.0574 55.3018 70.1205 48.3579 70.1685 43.7447C70.2209 38.2717 73.0749 34.2433 77.4475 33.4795C77.9537 33.3922 78.4861 33.3442 79.0228 33.3442C79.1886 33.3442 79.3545 33.3486 79.5247 33.3573C84.3991 33.5973 87.0567 35.8756 87.6284 40.3273C88.1084 44.0371 86.7207 50.1735 83.8885 53.4032C82.4747 55.0049 80.8469 55.8211 79.0315 55.8211Z" fill="white"/>
<path d="M79.0266 33.8201C79.1837 33.8201 79.3365 33.8245 79.4979 33.8288C83.8487 34.0427 86.5805 35.9325 87.1609 40.3886C87.7936 45.2332 85.0967 55.3456 79.031 55.3456C78.8652 55.3456 78.6906 55.3368 78.5204 55.3237C73.4714 54.8611 70.5956 48.2883 70.6393 43.7449C70.6873 38.9222 73.0962 34.7148 77.5255 33.9423C77.9968 33.8638 78.4986 33.8201 79.0266 33.8201ZM79.0266 32.873C78.4593 32.873 77.8964 32.921 77.3596 33.0127C72.7558 33.8201 69.7491 38.0231 69.688 43.7361C69.6443 48.5283 72.7296 55.7471 78.4332 56.2665C78.6339 56.2839 78.8346 56.297 79.031 56.297C80.9554 56.297 82.7577 55.4023 84.2458 53.7176C87.2525 50.2828 88.5922 44.0635 88.0991 40.2664C87.4925 35.6183 84.6211 33.1306 79.5459 32.8862C79.3714 32.8774 79.1968 32.873 79.0266 32.873Z" fill="black"/>
<path d="M87.1589 40.3928C86.5785 35.9323 83.8467 34.0469 79.4959 33.833C75.1932 33.6235 72.9851 37.3988 72.4352 41.1391C71.7675 45.6825 72.8149 54.3459 79.3476 53.7436C81.3855 53.5603 83.1921 52.2684 84.462 50.6667C86.8316 47.6683 87.6433 44.1549 87.1589 40.3928ZM82.0182 50.0731C77.9249 52.3513 75.0142 47.8778 74.6651 44.3426C74.3902 41.5625 74.7655 37.8876 77.5322 36.4429C81.8393 34.1909 85.9021 37.3377 85.9021 41.9116C85.9064 44.8183 84.7107 48.5717 82.0182 50.0731Z" fill="#E5E4E1"/>
<path d="M37.2334 63.5987C35.6449 65.327 34.8681 67.7624 35.6929 70.0494C35.0209 68.1814 38.1847 66.8284 39.2364 66.3221C40.3841 65.7635 42.5136 62.9877 40.9295 61.866C39.7469 61.0281 37.9752 62.7912 37.2334 63.5987Z" fill="black"/>
<g opacity="0.45">
<path d="M76.1956 44.9099C80.9697 43.7184 85.6041 41.9857 89.9941 39.7642C95.6977 48.2312 101.397 56.6983 107.1 65.1653C114.262 60.2728 122.143 55.1663 130.796 55.725C130.927 54.2454 131.062 52.7616 131.198 51.282C131.241 50.815 131.268 50.2869 130.962 49.9246C130.635 49.5231 130.046 49.4839 129.526 49.4882C125.346 49.5188 121.174 50.4659 117.39 52.2422C116.426 52.6961 115.2 53.1718 114.388 52.4779C113.96 52.1156 113.812 51.522 113.707 50.9677C111.971 42.2345 114.109 32.5891 109.924 24.7375C107.266 19.7402 102.313 16.2442 96.9588 14.3893C91.6131 12.5345 85.8616 12.1809 80.2016 12.2551C70.3917 12.3861 58.7576 13.9747 51.6489 21.5165C49.3491 23.9606 47.5643 28.4953 52.0155 29.3681C54.6469 29.8875 57.8281 28.5869 60.6341 29.0233C63.0647 29.3987 65.2641 30.3545 67.2322 31.821C71.5088 35.0157 74.1577 40.0959 76.1956 44.9099Z" fill="black"/>
</g>
<path d="M75.8989 39.9956C75.8727 40.0436 75.8509 40.0959 75.8291 40.1439C75.3272 41.4533 75.8247 43.5089 76.0735 44.8576C76.3833 46.5204 76.9288 48.1614 77.8932 49.5668C77.7186 49.3136 77.8015 48.5149 77.7928 48.2007C77.6663 45.8177 77.7317 43.4217 77.7797 41.0212C77.8015 40.0654 77.4917 39.1663 76.3833 39.6202C76.2611 39.6682 76.1302 39.7206 76.0342 39.8166C75.9731 39.8646 75.9338 39.9301 75.8989 39.9956Z" fill="black"/>
<path d="M105.52 58.4182C102.98 49.9294 99.8863 41.5191 96.3341 33.4012C90.9797 35.6707 85.4506 37.6304 79.8649 39.2321L78.4816 39.6293L78.3245 38.1933C77.7703 33.2397 76.16 28.3647 73.6508 24.0526L71.1765 24.3799C59.442 25.9249 46.1454 27.6838 34.9913 30.7825L31.5352 31.7427L33.6909 28.8753C38.9144 21.9227 45.9053 15.9565 55.6978 10.0863C65.2372 4.36453 77.072 1.21777 89.0246 1.21777C92.7252 1.21777 96.3777 1.52328 99.8819 2.12994C110.949 4.03284 120.885 9.50152 128.614 17.9467C134.522 24.4017 142.194 34.8677 145.218 48.0832L145.388 48.8208L135.142 57.1351L134.365 56.3102C132.131 53.9359 129.508 51.4002 126.558 51.4002C126.427 51.4002 126.292 51.4046 126.157 51.4133C124.996 51.5006 123.818 52.0112 122.679 52.5L105.913 59.7275L105.52 58.4182Z" fill="#C0A5A5"/>
<path d="M89.0203 2.43968C92.6292 2.43968 96.2032 2.73647 99.6725 3.3344C110.538 5.20675 120.274 10.6536 127.706 18.7715C131.616 23.0399 140.706 33.8245 144.022 48.3581C141.099 50.7323 138.17 53.1022 135.247 55.4764C132.855 52.9276 129.979 50.1824 126.554 50.1824C126.392 50.1824 126.231 50.1867 126.061 50.1998C124.712 50.3002 123.438 50.8458 122.194 51.3826C117.028 53.6084 111.856 55.8387 106.685 58.0646C104.006 49.1131 100.755 40.3362 96.9538 31.7993C91.2895 34.2609 85.4638 36.3514 79.5289 38.0536C78.9267 32.646 77.1157 27.3738 74.2792 22.7344C61.6458 24.4147 46.9352 26.191 34.6553 29.6084C40.385 21.9881 47.9956 16.1179 56.3175 11.1293C65.8962 5.39883 77.6088 2.43968 89.0203 2.43968ZM89.0203 0C76.8538 0 64.7965 3.21219 55.0694 9.04309C45.1417 14.9962 38.0373 21.0628 32.7134 28.1463L28.4062 33.8812L35.3186 31.9608C46.3897 28.8795 59.6515 27.1294 71.351 25.5844C71.9009 25.5145 72.4551 25.4404 73.0006 25.3705C75.1956 29.3596 76.6138 33.8113 77.1113 38.3285L77.4299 41.2004L80.2097 40.4017C85.4507 38.8959 90.648 37.0803 95.697 34.9897C99.0353 42.7235 101.946 50.7105 104.355 58.7672L105.14 61.3946L107.654 60.3123L114.008 57.5714L123.163 53.6259C124.206 53.172 125.293 52.7094 126.253 52.6352C126.357 52.6265 126.458 52.6265 126.558 52.6265C129.019 52.6265 131.42 54.9615 133.475 57.1524L135.033 58.8021L136.791 57.375L138.664 55.8518L145.567 50.2522L146.745 49.2964L146.405 47.8168C143.329 34.3394 135.522 23.6858 129.513 17.1261C121.605 8.48446 111.433 2.88492 100.096 0.934011C96.5087 0.31426 92.7863 0 89.0203 0Z" fill="black"/>
<g opacity="0.46">
<path d="M123.006 41.5497C115.854 43.0249 108.461 43.2431 101.23 42.1825C103.242 47.4111 105.079 52.7009 106.685 58.0648C111.856 55.8389 117.023 53.6086 122.194 51.3828C123.438 50.846 124.712 50.3048 126.061 50.2C129.709 49.9207 132.742 52.8056 135.247 55.4766C138.171 53.1024 141.099 50.7325 144.022 48.3583C143.001 43.8847 141.426 39.769 139.632 36.0811C134.313 38.7957 128.705 40.5983 123.006 41.5497Z" fill="#C0A5A5"/>
</g>
<g opacity="0.46">
<path d="M60.9402 14.7215C60.0762 13.1721 59.2732 11.5485 58.5401 9.87695C57.7852 10.2785 57.0433 10.6974 56.3146 11.1339C47.9927 16.1224 40.3821 21.9927 34.6523 29.613C44.7198 26.8154 56.3887 25.1219 67.2373 23.6729C64.8372 20.9102 62.712 17.9119 60.9402 14.7215Z" fill="#C0A5A5"/>
</g>
<g opacity="0.46">
<path d="M78.7695 33.7153C79.1055 35.1469 79.3674 36.6003 79.5289 38.058C81.0038 37.6346 82.4701 37.1894 83.9276 36.7181C82.1515 35.8103 80.4409 34.8064 78.7695 33.7153Z" fill="#C0A5A5"/>
</g>
<path d="M67.1755 298.044C60.8915 298.044 54.5246 296.385 48.5811 294.596C44.1212 293.247 39.7922 291.829 35.9259 289.284C31.4573 286.347 28.5029 282.345 27.5996 278.011L27.3945 277.042L28.3022 276.645C29.271 276.222 30.5583 275.798 32.0377 275.301C37.235 273.572 45.0987 270.958 50.1259 264.966L50.6801 264.307L51.4918 264.608C51.627 264.66 65.2117 269.714 73.9656 269.714H74.9475L75.1614 270.67C79.9703 292.466 79.8743 292.981 79.8088 293.291C79.4903 294.954 78.0939 296.163 75.6719 296.878C73.01 297.664 70.2345 298.044 67.1755 298.044Z" fill="#D0E5EE"/>
<path d="M51.0617 265.751C51.0617 265.751 64.8777 270.936 73.9632 270.936C73.9632 270.936 78.7198 292.488 78.6063 293.064C78.3271 294.517 76.7386 295.294 75.316 295.708C72.6497 296.494 69.9223 296.821 67.1774 296.821C61.068 296.821 54.8495 295.207 48.9321 293.426C44.6512 292.134 40.3266 290.724 36.5911 288.263C32.8513 285.801 29.7006 282.144 28.7885 277.758C33.0215 275.916 44.3631 273.738 51.0617 265.751ZM50.3067 262.862L49.1983 264.184C44.3893 269.91 36.7308 272.459 31.6599 274.144C30.1413 274.646 28.8409 275.082 27.8154 275.527L26 276.322L26.4102 278.26C27.379 282.908 30.521 287.185 35.2558 290.301C39.2618 292.937 43.8657 294.443 48.2382 295.761C54.2691 297.581 60.732 299.261 67.1861 299.261C70.315 299.261 73.2868 298.851 76.0142 298.048C79.6275 296.987 80.7272 295.002 81.0108 293.522C81.1287 292.898 81.2159 292.448 76.3546 270.408L75.9313 268.496H73.9719C65.4406 268.496 52.0566 263.512 51.9213 263.468L50.3067 262.862Z" fill="black"/>
<g opacity="0.46">
<path d="M68.3077 285.609C59.3793 282.209 52.1047 275.868 49.3773 267.536C42.6002 274.07 32.6899 276.064 28.793 277.762C29.705 282.144 32.8557 285.806 36.5955 288.267C40.331 290.729 44.6556 292.134 48.9365 293.43C57.5159 296.019 66.728 298.244 75.3204 295.713C76.7431 295.294 78.3315 294.522 78.6108 293.068C78.6501 292.88 78.1919 290.58 77.5547 287.521C74.5742 287.416 71.5021 286.823 68.3077 285.609Z" fill="#A5B3C0"/>
</g>
<g opacity="0.46">
<path d="M58.3367 288.106C52.8601 284.549 48.2912 278.997 47.2176 272.424C47.0649 271.482 46.982 270.535 46.9427 269.592C40.41 274.515 32.2409 276.256 28.7891 277.762C29.7011 282.144 32.8518 285.806 36.5916 288.267C40.3271 290.729 44.6517 292.134 48.9326 293.43C57.512 296.019 66.7241 298.244 75.3165 295.713C76.7391 295.294 78.3276 294.521 78.6069 293.068C78.62 293.011 78.5807 292.728 78.5065 292.3C71.6902 293.465 64.4549 292.077 58.3367 288.106Z" fill="#A5B3C0"/>
</g>
<path d="M69.2304 298.218C67.9082 298.218 66.5597 298.139 65.2069 297.987C59.8481 297.389 53.634 296.119 48.5763 294.595C47.4766 294.264 46.3463 293.971 45.155 293.666C41.7774 292.797 38.2863 291.903 35.3581 289.978C31.9587 287.739 27.4683 282.1 26.5606 277.897L26.3555 276.954L27.2239 276.535C27.7476 276.287 29.0916 276.09 34.1537 275.431C37.2695 275.03 40.7999 274.571 42.3709 274.231L43.0167 274.091L43.4836 274.563C55.1046 286.185 70.2385 287.014 70.3868 287.023L70.9803 287.049L71.3251 287.529C73.1317 290.056 78.1545 292.736 80.1662 292.92L82.7497 293.16L80.9125 294.997C78.9095 297.013 74.5369 298.218 69.2304 298.218Z" fill="#C0A5A5"/>
<path d="M42.6341 275.423C54.722 287.512 70.3446 288.237 70.3446 288.237C72.2953 290.96 77.641 293.91 80.0673 294.133C78.3567 295.844 74.2678 296.992 69.2406 296.992C67.9969 296.992 66.6921 296.922 65.3524 296.773C60.1376 296.189 53.9496 294.936 48.9399 293.426C44.659 292.134 39.7714 291.414 36.0403 288.957C32.846 286.853 28.6 281.498 27.7665 277.64C28.5956 277.238 39.3874 276.13 42.6341 275.423ZM43.4153 272.76L42.1105 273.044C40.5918 273.376 37.0964 273.83 34.0068 274.227C28.3294 274.96 27.3781 275.121 26.7017 275.436L24.9648 276.265L25.3751 278.15C26.3744 282.759 31.0874 288.616 34.6963 290.986C37.7946 293.024 41.3817 293.945 44.8597 294.84C46.0423 295.141 47.1507 295.429 48.233 295.757C53.3561 297.297 59.6488 298.585 65.0731 299.196C66.4695 299.353 67.8703 299.431 69.2319 299.431C74.8569 299.431 79.5437 298.096 81.7867 295.857L85.4611 292.182L80.2855 291.702C78.6142 291.549 73.8663 288.974 72.3258 286.814L71.6363 285.854L70.4537 285.797C70.3141 285.788 55.5948 284.928 44.3622 273.694L43.4153 272.76Z" fill="black"/>
<g opacity="0.46">
<path d="M54.1238 293.518C46.6092 289.616 40.6307 283.396 38.4314 276.099C34.05 276.701 28.3552 277.352 27.7617 277.64C28.5952 281.498 32.8412 286.857 36.0356 288.957C39.7667 291.418 44.6542 292.134 48.9352 293.426C52.5441 294.513 56.7727 295.464 60.8049 296.136C58.5182 295.495 56.2708 294.639 54.1238 293.518Z" fill="#C0A5A5"/>
</g>
<g opacity="0.46">
<path d="M42.5993 290.973C37.2317 287.486 33.0773 282.93 31.3056 277.042C29.4422 277.291 28.0371 277.509 27.7578 277.64C28.5913 281.498 32.8373 286.858 36.0317 288.957C38.5976 290.65 41.7091 291.514 44.7943 292.309C44.0568 291.89 43.3237 291.44 42.5993 290.973Z" fill="#C0A5A5"/>
</g>
<path d="M16.8832 265.267C15.8359 265.267 14.8017 265.192 13.8154 265.048C6.54524 263.983 2.9276 247.019 2.53922 245.085L1.86719 241.742L4.50734 243.903C16.0192 253.334 40.3564 253.443 40.6052 253.443H44.153L41.3558 255.625C40.8496 256.018 28.8533 265.267 16.8832 265.267Z" fill="#C0A5A5"/>
<path d="M3.73544 244.845C15.7186 254.661 40.6057 254.661 40.6057 254.661C40.6057 254.661 28.5702 264.045 16.8838 264.045C15.915 264.045 14.9506 263.979 13.9949 263.84C7.3618 262.871 3.73544 244.845 3.73544 244.845ZM0 238.639L1.34842 245.33C2.01173 248.621 5.71229 265.096 13.6414 266.257C14.6888 266.41 15.7797 266.489 16.8881 266.489C29.264 266.489 41.5876 256.992 42.1069 256.586L47.6926 252.226H40.6057C40.3657 252.226 16.443 252.108 5.28027 242.964L0 238.639Z" fill="black"/>
<g opacity="0.46">
<path d="M5.70249 246.286C5.01737 245.832 4.35404 245.356 3.73438 244.845C3.73438 244.845 7.36073 262.87 13.9982 263.844C18.2267 264.463 22.6386 263.608 26.6359 262.207C17.5285 260.793 8.81393 254.905 5.70249 246.286Z" fill="#C0A5A5"/>
</g>
<g opacity="0.46">
<path d="M15.8184 262.242C10.8174 259.139 7.46158 254.312 5.59821 248.799C5.23164 247.73 4.96543 246.665 4.77779 245.613C4.42431 245.36 4.06212 245.12 3.73047 244.85C3.73047 244.85 7.35683 262.875 13.9943 263.848C15.6918 264.097 17.4199 264.101 19.1393 263.935C18.009 263.473 16.9006 262.914 15.8184 262.242Z" fill="#C0A5A5"/>
</g>
<path d="M133.63 278.857C119.596 278.857 105.719 267.283 105.138 266.79L103.559 265.454L105.492 264.721C107.408 263.996 109.751 263.669 113.081 263.669C114.94 263.669 116.895 263.77 118.963 263.874C121.162 263.983 123.432 264.097 125.731 264.097C128.463 264.097 130.815 263.927 132.923 263.586C143.754 261.819 152.709 253.238 152.805 253.151L155.161 250.868L154.869 254.141C154.782 255.054 152.643 276.549 136.75 278.661C135.742 278.788 134.69 278.857 133.63 278.857Z" fill="#D0E5EE"/>
<path d="M153.645 254.024C153.645 254.024 151.699 275.436 136.583 277.448C135.601 277.579 134.619 277.64 133.628 277.64C119.878 277.64 105.922 265.86 105.922 265.86C107.908 265.109 110.347 264.887 113.079 264.887C116.889 264.887 121.257 265.315 125.73 265.315C128.187 265.315 130.678 265.184 133.122 264.782C144.477 262.931 153.645 254.024 153.645 254.024ZM156.674 247.687L151.952 252.274C151.865 252.356 143.163 260.675 132.734 262.377C130.683 262.709 128.396 262.87 125.734 262.87C123.469 262.87 121.213 262.757 119.027 262.648C116.941 262.543 114.973 262.443 113.088 262.443C109.605 262.443 107.131 262.792 105.067 263.573L101.188 265.044L104.356 267.719C104.958 268.226 119.162 280.075 133.637 280.075C134.75 280.075 135.854 280.005 136.914 279.866C153.763 277.622 155.998 255.202 156.085 254.246L156.674 247.687Z" fill="black"/>
<g opacity="0.46">
<path d="M129.77 271.145C125.533 270.076 122.073 267.938 119.371 265.109C114.108 264.848 109.339 264.564 105.922 265.856C105.922 265.856 121.955 279.39 136.578 277.443C143.883 276.474 148.107 270.975 150.525 265.55C144.882 270.661 137.272 273.04 129.77 271.145Z" fill="#A5B3C0"/>
</g>
<g opacity="0.46">
<path d="M113.894 264.895C110.844 264.852 108.108 265.031 105.926 265.86C105.926 265.86 121.959 279.394 136.582 277.447C137.839 277.282 139.004 276.972 140.077 276.557C129.779 278.386 120.724 273.118 113.894 264.895Z" fill="#A5B3C0"/>
</g>
<g opacity="0.45">
<path d="M86.82 83.47C87.0513 82.9026 87.2738 82.2785 87.0862 81.6937C86.5319 79.9697 83.2067 80.4411 82.9056 78.656C82.7398 77.6784 83.822 76.8535 84.817 76.8972C85.8119 76.9364 86.6716 77.5518 87.4702 78.141C88.8797 79.1841 90.2893 80.2228 91.7075 81.2659C90.1845 81.0477 89.3815 82.955 88.9713 84.4345C87.444 89.9861 84.1406 94.9223 80.1913 99.1122C76.8093 102.708 71.241 105.606 68.5703 109.556C76.8049 103.712 83.0889 92.6703 86.82 83.47Z" fill="#20B697"/>
</g>
<path d="M23.7471 121.912C23.6817 121.947 23.6162 121.982 23.5508 122.017C23.6468 121.951 23.6468 121.982 23.7471 121.912Z" fill="#20B697"/>
<path opacity="0.25" d="M111.505 134.181C112.74 137.855 114.324 141.412 116.223 144.791C116.794 145.807 117.414 146.833 118.313 147.593C119.207 148.343 120.434 148.797 121.568 148.492C122.777 148.169 123.65 147.03 123.981 145.816C124.313 144.603 124.195 143.315 124.016 142.072C123.104 135.643 120.469 126.39 115.193 122.082C107.36 115.693 110.349 130.75 111.505 134.181Z" fill="#20B697"/>
<path opacity="0.25" d="M103.437 165.317C102.887 166.12 102.329 166.979 102.276 167.948C102.224 168.917 102.883 169.995 103.852 170.039C104.55 170.065 105.148 169.585 105.68 169.131C109.459 165.901 113.422 162.886 117.541 160.105C119.592 158.717 127.783 154.99 123.489 151.844C117.14 147.182 106.199 161.279 103.437 165.317Z" fill="#20B697"/>
<path opacity="0.25" d="M59.306 127.546C56.3823 129.724 53.3756 132.304 52.577 135.861C52.446 136.445 52.4111 137.126 52.8213 137.563C53.0744 137.825 53.4454 137.938 53.7988 138.021C57.4427 138.876 61.3527 137.977 64.595 136.109C67.8417 134.237 70.4775 131.466 72.7162 128.463C74.501 126.067 78.4197 118.961 72.3583 119.254C68.4527 119.442 62.3695 125.264 59.306 127.546Z" fill="#20B697"/>
<path opacity="0.25" d="M60.2601 146.27C58.3181 143.822 55.6562 141.53 52.536 141.587C52.2218 142.639 52.6887 143.752 53.1513 144.751C55.5078 149.893 57.8643 155.034 60.2251 160.18C62.2412 164.566 67.0546 164.732 66.256 159.128C65.5971 154.528 63.1053 149.866 60.2601 146.27Z" fill="#20B697"/>
<g opacity="0.45">
<path d="M103.684 81.2702C103.81 81.0432 103.937 80.8163 104.055 80.5893C106.865 75.2298 108.157 69.4338 113.681 65.9946C113.633 77.4513 111.063 89.1392 107.17 99.8801C106.389 102.032 105.525 104.197 104.085 105.982C100.315 110.673 93.6686 111.66 87.6683 112.149C81.668 112.633 75.0785 113.205 70.8281 117.465C73.1322 113.096 75.1222 107.911 79.0977 105.213C83.6404 102.132 87.9258 98.7541 92.0103 95.0836C96.2782 91.2385 100.847 86.3635 103.684 81.2702Z" fill="black"/>
</g>
<path opacity="0.25" d="M107.717 14.4813C106.356 14.3547 105.081 14.6646 104.169 15.699C103.231 16.7683 103.044 18.2871 102.969 19.7099C102.62 25.986 103.585 32.5588 107.076 37.7874C111.876 44.9844 126.329 50.6975 127.132 37.8747C127.669 29.4033 118.78 20.2773 112.208 16.1441C110.885 15.3105 109.249 14.6166 107.717 14.4813Z" fill="#C4FDF1"/>
<path opacity="0.25" d="M85.7454 14.3461C87.4996 16.8033 91.0388 17.9075 93.7749 16.633C100.124 13.6783 96.2972 3.74921 89.4939 5.88342C86.3476 6.86979 83.6114 11.3565 85.7454 14.3461Z" fill="#C4FDF1"/>
<path opacity="0.35" d="M76.2227 160.633L91.5049 151.669L89.6546 147.863L76.2227 160.633Z" fill="white"/>
<path opacity="0.35" d="M155.582 168.088L158.833 171.23C164.842 166.203 169.193 159.774 171.89 151.948C166.976 158.796 161.595 164.335 155.582 168.088Z" fill="white"/>
<path opacity="0.78" d="M157.712 149.535L147.392 138.148L141.68 144.306V145.912L147.553 140.391L157.712 149.535Z" fill="white"/>
<path opacity="0.78" d="M126.055 129.371L141.359 144.306L127.224 131.859L126.055 129.371Z" fill="white"/>
<path opacity="0.25" d="M123.919 177.284C123.954 177.436 123.989 177.585 124.029 177.737C127.184 189.932 142.287 185.838 143.308 174.704C143.744 169.934 142.915 164.583 138.124 162.506C129.335 158.682 122.257 169.436 123.919 177.284Z" fill="#C4FDF1"/>
<path opacity="0.25" d="M110.826 178.676C110.696 176.088 113.89 174.198 116.329 175.084C118.76 175.966 120.078 178.811 119.842 181.386C119.716 182.774 119.118 184.232 117.887 184.891C117.189 185.266 116.355 185.341 115.574 185.253C112.14 184.887 109.413 181.277 110.002 177.873C107.828 178.816 109.6 176.655 110.826 178.676Z" fill="#C4FDF1"/>
<path opacity="0.25" d="M120.16 201.637C120.186 201.668 120.204 201.703 120.226 201.729C122.163 204.649 126.143 204.963 129.124 203.514C132.091 202.074 133.339 197.954 131.738 195.078C130.127 192.197 126.034 191.084 123.163 192.69C120.632 194.104 118.485 198.914 120.16 201.637Z" fill="#C4FDF1"/>
<path opacity="0.25" d="M78.6538 171.239C78.6713 171.265 78.6887 171.292 78.7018 171.322C80.1986 173.902 83.9428 174.936 86.5743 173.661C89.5373 172.221 90.7854 168.101 89.1838 165.225C85.2825 158.242 74.6565 164.147 78.6538 171.239Z" fill="#C4FDF1"/>
<g opacity="0.46">
<path d="M34.581 180.932C35.9207 180.007 36.331 178.235 36.5535 176.62C36.8197 174.717 36.9593 172.723 36.3091 170.912C34.3759 165.539 29.5495 167.97 27.6818 171.972C25.8446 175.905 28.86 184.887 34.581 180.932Z" fill="#C0A5A5"/>
</g>
<g opacity="0.46">
<path d="M46.8096 221.399C45.7885 220.348 44.5797 220.356 43.5324 220.505C42.2931 220.679 41.0493 220.989 40.1809 222.002C37.615 225.004 40.7526 228.994 43.8029 229.862C46.8053 230.709 51.1691 225.886 46.8096 221.399Z" fill="#C0A5A5"/>
</g>
<g opacity="0.46">
<path d="M41.2964 279.08C40.2753 278.028 39.0622 278.037 38.0192 278.185C36.7799 278.36 35.5361 278.665 34.6634 279.682C32.1018 282.689 35.235 286.674 38.2897 287.543C41.2921 288.394 45.6516 283.567 41.2964 279.08Z" fill="#C0A5A5"/>
</g>
<g opacity="0.46">
<path d="M35.9363 214.207C36.2199 213.334 35.8578 212.658 35.4694 212.108C35.0024 211.457 34.4657 210.842 33.6365 210.641C31.1971 210.043 29.9011 212.941 30.32 214.91C30.7302 216.843 34.7231 217.943 35.9363 214.207Z" fill="#C0A5A5"/>
</g>
<g opacity="0.46">
<path d="M57.6035 239.368C57.8871 238.491 57.5206 237.814 57.1322 237.264C56.6696 236.614 56.1285 235.999 55.3037 235.798C52.86 235.204 51.5683 238.102 51.9828 240.071C52.4017 242 56.3903 243.1 57.6035 239.368Z" fill="#C0A5A5"/>
</g>
<g opacity="0.46">
<path d="M38.194 195.846C35.1044 195.82 34.9953 191.18 37.3998 190.01C41.96 187.798 42.4924 195.885 38.194 195.846Z" fill="#C0A5A5"/>
</g>
<g opacity="0.46">
<path d="M11.2011 257.136C8.11152 257.109 8.00242 252.466 10.4113 251.3C14.9671 249.083 15.4952 257.175 11.2011 257.136Z" fill="#C0A5A5"/>
</g>
<g opacity="0.46">
<path d="M95.4958 248.42C92.4106 248.394 92.2971 243.75 94.7103 242.585C99.2662 240.372 99.7986 248.459 95.4958 248.42Z" fill="#C0A5A5"/>
</g>
<g opacity="0.46">
<path d="M67.0026 247.957C63.9173 247.931 63.8082 243.291 66.2127 242.122C70.7773 239.909 71.301 247.996 67.0026 247.957Z" fill="#C0A5A5"/>
</g>
<g opacity="0.46">
<path d="M68.3286 228.304C65.239 228.278 65.1255 223.634 67.5344 222.469C72.099 220.256 72.627 228.343 68.3286 228.304Z" fill="#C0A5A5"/>
</g>
<g opacity="0.46">
<path d="M19.5299 262.412C16.4447 262.386 16.3356 257.747 18.7401 256.577C23.3003 254.364 23.824 262.451 19.5299 262.412Z" fill="#C0A5A5"/>
</g>
<g opacity="0.46">
<path d="M49.0377 290.751C45.9525 290.725 45.8434 286.081 48.2479 284.915C52.8081 282.698 53.3361 290.79 49.0377 290.751Z" fill="#C0A5A5"/>
</g>
<g opacity="0.46">
<path d="M49.7801 209.419C45.6083 209.384 45.4555 203.113 48.711 201.537C54.8727 198.547 55.5884 209.476 49.7801 209.419Z" fill="#C0A5A5"/>
</g>
<g opacity="0.46">
<path d="M19.3561 192.424C20.098 200.022 31.8324 195.095 26.2772 190.264C25.7579 189.814 25.0335 189.478 24.2393 189.29C21.957 188.745 19.1336 189.447 19.3387 192.227C19.3387 192.293 19.3474 192.358 19.3561 192.424Z" fill="#C0A5A5"/>
</g>
<g opacity="0.46">
<path d="M76.0588 238.469C76.805 246.067 88.5395 241.14 82.9843 236.309C82.465 235.859 81.7406 235.523 80.9464 235.335C78.6641 234.794 75.8406 235.492 76.0414 238.273C76.0457 238.338 76.0545 238.403 76.0588 238.469Z" fill="#C0A5A5"/>
</g>
</svg>
