<svg width="446" height="418" viewBox="0 0 446 418" fill="none" xmlns="http://www.w3.org/2000/svg">
<path d="M337.14 285.564C338.675 288.721 339.624 292.186 341.15 295.35C344.53 302.383 348.407 309.312 353.284 315.43C355.852 318.665 358.813 321.785 362.39 323.942C362.39 323.942 369.802 326.009 363.39 332.479C356.486 339.457 334.468 355.402 324.71 345.267C320.163 340.531 316.661 334.692 313.311 329.078C309.527 322.738 306.062 316.22 302.645 309.683C299.368 303.421 296.674 296.884 296.352 289.736C296.211 286.802 297.964 282.633 299.624 280.291C304.446 273.506 314.645 271.375 322.327 273.373C324.451 273.921 326.823 274.807 328.672 276.004C331.815 278.034 334.554 280.962 336.41 284.197C336.677 284.649 336.907 285.101 337.14 285.564Z" fill="#4999CD"/>
<path d="M324.358 345.608C319.699 340.761 316.071 334.692 312.88 329.337C309.1 322.986 305.687 316.535 302.207 309.917C299.438 304.629 296.218 297.548 295.847 289.762C295.714 286.702 297.481 282.451 299.227 279.998C302.659 275.163 309.281 272.161 316.508 272.161C318.576 272.161 320.577 272.413 322.46 272.895C324.98 273.551 327.274 274.507 328.957 275.589C332.137 277.645 334.942 280.617 336.851 283.956C337.11 284.415 337.351 284.878 337.592 285.342C338.396 286.976 339.041 288.706 339.664 290.385C340.256 291.967 340.875 293.609 341.594 295.132C345.608 303.462 349.451 309.813 353.695 315.126C356.767 318.991 359.606 321.659 362.585 323.482C363.082 323.638 365.787 324.561 366.403 326.851C366.855 328.592 365.965 330.608 363.757 332.831C358.527 338.13 344.133 349.054 333.067 349.054C329.487 349.054 326.552 347.887 324.358 345.608ZM300.027 280.573C298.374 282.926 296.725 286.987 296.844 289.718C297.196 297.266 300.198 303.936 303.089 309.457C306.55 316.053 309.967 322.497 313.732 328.829C316.908 334.132 320.496 340.153 325.08 344.919C327.074 346.998 329.761 348.05 333.056 348.05C343.696 348.05 358.094 337.122 363.038 332.135C364.976 330.182 365.78 328.489 365.424 327.117C364.913 325.205 362.274 324.442 362.248 324.431C362.204 324.424 362.167 324.405 362.126 324.383C359.005 322.486 356.078 319.747 352.887 315.756C348.61 310.38 344.744 303.966 340.694 295.569C339.938 293.998 339.323 292.341 338.726 290.733C338.118 289.084 337.462 287.376 336.684 285.79C336.473 285.338 336.235 284.893 335.98 284.46C334.156 281.254 331.469 278.405 328.412 276.43C326.822 275.403 324.617 274.496 322.208 273.869C320.407 273.399 318.495 273.169 316.512 273.169C309.596 273.162 303.292 276.004 300.027 280.573Z" fill="#342F30"/>
<path d="M343.671 316.012C343.23 316.464 342.711 316.838 342.159 317.135C342.129 317.142 342.122 317.15 342.1 317.153C341.955 317.242 341.781 317.305 341.607 317.383C340.98 317.628 340.328 317.806 339.668 317.917C339.591 317.92 339.535 317.939 339.465 317.95C339.409 317.957 339.35 317.957 339.29 317.969C336.529 318.217 333.583 317.127 332.012 314.96C333.813 314.786 335.662 314.945 337.352 314.137C339.29 313.211 341.184 311.992 342.444 310.22C343.778 308.345 344.553 306.255 344.95 304.08C346.406 307.797 346.391 313.281 343.671 316.012Z" fill="#77B5E4"/>
<path d="M313.314 329.063C309.531 322.73 306.065 316.212 302.648 309.679C299.372 303.406 296.678 296.877 296.356 289.725C296.215 286.787 297.968 282.622 299.628 280.273C304.45 273.495 314.649 271.365 322.331 273.358C324.455 273.907 326.827 274.8 328.676 275.989C331.819 278.023 334.558 280.951 336.414 284.186C336.677 284.623 336.907 285.086 337.141 285.546C338.019 287.339 338.701 289.232 339.409 291.111C338.701 294.72 337.678 298.263 335.836 301.513C333.346 305.855 330.492 309.931 327.727 314.085C325.919 316.79 324.681 319.736 325.922 322.945C327.127 326.05 329.439 328.985 331.785 331.323C333.961 333.498 336.514 335.525 339.761 335.548C342.852 335.574 345.857 334.417 348.433 332.761C353.325 329.608 356.746 324.824 356.527 319.151C358.306 320.978 360.24 322.627 362.386 323.935C362.386 323.935 369.798 326.006 363.387 332.472C356.483 339.45 334.465 355.398 324.707 345.256C320.171 340.517 316.668 334.677 313.314 329.063Z" fill="#77B5E4"/>
<path d="M360.595 332.005C360.595 332.005 359.464 324.109 366.206 325.12C372.958 326.139 373.873 330.478 370.768 332.42C367.629 334.391 362.311 339.52 360.595 332.005Z" fill="#C1C7B8"/>
<path d="M360.083 332.076C360.076 331.92 359.568 328.203 361.451 326.039C362.54 324.787 364.167 324.301 366.291 324.627C369.971 325.183 372.454 326.817 372.914 329.004C373.225 330.486 372.532 331.92 371.035 332.846C370.612 333.102 370.153 333.435 369.66 333.78C367.862 335.036 365.828 336.452 363.96 336.452C362.055 336.455 360.754 334.999 360.083 332.076ZM362.199 326.925C360.624 328.748 361.069 332.357 361.069 332.357C361.881 335.911 363.411 336.4 363.941 336.4H363.952C365.509 336.4 367.484 334.547 369.074 333.428C369.582 333.08 370.056 332.279 370.497 331.994C371.613 331.297 372.139 330.26 371.928 329.215C371.646 327.851 369.967 326.195 366.146 325.617C365.772 325.558 365.405 325.532 365.075 325.532C363.838 325.532 362.878 326.154 362.199 326.925Z" fill="#1A1718"/>
<path d="M360.55 329.952C363.444 330.004 366.747 331.89 367.102 334.851C364.475 336.385 361.729 336.985 360.598 331.994C360.598 331.994 360.461 331.093 360.55 329.952Z" fill="#C1C7B8"/>
<path d="M351.953 337.411C351.953 337.411 350.83 329.515 357.582 330.534C364.323 331.545 365.25 335.888 362.13 337.837C359.002 339.794 353.661 344.922 351.953 337.411Z" fill="#C1C7B8"/>
<path d="M351.449 337.478C351.427 337.322 350.934 333.617 352.82 331.445C353.903 330.197 355.537 329.711 357.649 330.037C361.348 330.593 363.82 332.224 364.279 334.414C364.591 335.896 363.883 337.334 362.401 338.26C361.971 338.523 361.504 338.853 361 339.201C359.213 340.454 357.182 341.858 355.318 341.858C353.413 341.862 352.127 340.402 351.449 337.478ZM353.576 332.105C351.994 333.921 352.446 337.3 352.446 337.3C353.258 340.876 354.788 340.865 355.315 340.876C356.864 340.876 358.839 339.49 360.429 338.39C360.944 338.023 361.43 337.689 361.863 337.408C362.979 336.711 363.509 335.67 363.297 334.621C363.001 333.261 361.337 331.601 357.501 331.03C357.134 330.975 356.764 330.942 356.438 330.942C355.2 330.942 354.247 331.331 353.576 332.105Z" fill="#1A1718"/>
<path d="M351.894 335.573C354.507 335.985 357.183 338.078 357.72 340.665C355.333 341.858 352.984 341.921 351.957 337.397C351.957 337.397 351.838 336.615 351.894 335.573Z" fill="#C1C7B8"/>
<path d="M343.964 343.077C343.964 343.077 342.974 336.107 348.923 337.008C354.901 337.901 355.701 341.732 352.962 343.451C350.194 345.182 345.487 349.706 343.964 343.077Z" fill="#C1C7B8"/>
<path d="M343.468 343.148C343.445 343.007 343.001 339.709 344.687 337.767C345.665 336.652 347.111 336.222 349.019 336.511C352.288 337 354.497 338.464 354.908 340.413C355.179 341.743 354.563 343.044 353.237 343.874C352.855 344.107 352.433 344.4 352.003 344.704C350.405 345.816 348.608 347.072 346.944 347.072C345.224 347.075 344.075 345.764 343.468 343.148ZM345.432 338.216C344.075 339.794 344.45 342.544 344.45 342.544C345.161 345.641 346.492 345.226 346.936 345.226C348.289 345.226 350.024 344.433 351.421 343.466C351.88 343.148 352.299 343.277 352.688 343.025C353.659 342.425 354.115 341.532 353.926 340.624C353.667 339.449 352.218 338.001 348.86 337.5C348.526 337.452 348.211 337.419 347.926 337.419C346.84 337.419 346.036 337.537 345.432 338.216Z" fill="#1A1718"/>
<path d="M343.899 341.788C346.034 341.869 347.616 344.066 348.643 346.134C346.697 346.986 344.822 346.801 343.962 343.059C343.962 343.059 343.892 342.529 343.899 341.788Z" fill="#C1C7B8"/>
<path d="M337.806 314.093C337.45 314.089 337.098 314.063 336.75 314.048C337.221 313.859 337.684 313.644 338.129 313.366C341.379 311.417 343.695 308.523 344.729 305.01C345.782 309.75 342.246 312.773 337.806 314.093Z" fill="#2A4790"/>
<path d="M150.024 416.506C101.612 420.648 52.244 410.751 7.18965 393.398C5.27733 392.664 1.6676 390.815 0.633609 389.066C-2.13851 384.371 36.0079 385.976 100.582 374.919C175.374 362.124 184.513 297.37 187.155 300.208C203.406 317.687 250.973 351.663 246.111 381.781C245.551 385.227 231.213 392.131 228.263 393.846C221.851 397.544 215.117 400.513 208.235 403.255C194.671 408.65 180.336 412.437 165.883 414.627C160.609 415.431 155.313 416.057 150.024 416.506Z" fill="#77B5E4"/>
<path d="M7.0204 393.857C5.52316 393.287 1.4131 391.364 0.208639 389.326C-0.110081 388.777 -0.0025914 388.329 0.130826 388.055C1.0981 386.165 7.21677 385.52 24.713 383.934C41.8868 382.367 67.8588 380.014 100.509 374.422C115.452 371.865 160.94 364.08 184.11 304.81C185.722 300.694 186.174 299.612 186.979 299.612C187.127 299.612 187.331 299.656 187.516 299.86C191.011 303.621 195.895 308.082 201.54 313.24C222.193 332.116 250.463 357.97 246.598 381.855C246.146 384.709 238.296 389.081 230.977 392.946C229.902 393.516 229.027 393.972 228.52 394.272C222.949 397.489 216.76 400.398 208.437 403.71C195.058 409.039 180.771 412.874 165.958 415.12C160.747 415.909 155.399 416.543 150.063 417.002C142.773 417.625 135.264 417.94 127.767 417.94C89.1352 417.943 48.5022 409.843 7.0204 393.857ZM185.037 305.177C179.274 319.97 161.67 364.977 100.665 375.411C67.9959 381.01 41.9943 383.371 24.8019 384.935C11.4416 386.146 1.78377 387.024 1.03144 388.521C1.0055 388.559 0.960946 388.636 1.06842 388.818C1.95787 390.322 5.28968 392.127 7.37248 392.931C48.7505 408.865 89.2612 416.943 127.763 416.943C135.25 416.943 142.71 416.631 149.977 416.013C155.288 415.557 160.617 414.931 165.81 414.138C180.545 411.911 194.761 408.087 208.066 402.791C216.327 399.497 222.482 396.611 228.012 393.42C228.531 393.116 229.409 392.653 230.506 392.075C234.898 389.744 245.189 384.308 245.612 381.707C249.388 358.355 221.345 332.709 200.861 313.993C195.284 308.898 190.47 304.488 186.96 300.745C186.563 301.305 185.807 303.195 185.037 305.177Z" fill="#1A1718"/>
<path d="M117.221 393.242C116.58 392.523 116.783 391.819 117.454 391.208C117.565 391.108 117.684 391.022 117.814 390.941C118.147 390.552 118.788 390.289 119.367 390.241C120.441 390.148 122.242 390.726 122.591 391.845C123.128 393.524 120.493 394.469 119.266 394.291C118.492 394.168 117.754 393.831 117.221 393.242Z" fill="white"/>
<path d="M124.323 380.984C123.674 380.265 123.893 379.558 124.56 378.954C124.664 378.846 124.79 378.765 124.908 378.679C125.242 378.294 125.887 378.027 126.465 377.975C127.54 377.883 129.333 378.465 129.689 379.587C130.238 381.262 127.603 382.207 126.365 382.033C125.579 381.914 124.853 381.57 124.323 380.984Z" fill="white"/>
<path d="M72.9134 396.777C72.4761 395.914 72.8615 395.295 73.6583 394.876C73.788 394.809 73.9214 394.758 74.0696 394.709C74.4995 394.413 75.1741 394.32 75.767 394.42C76.8121 394.602 78.402 395.632 78.465 396.81C78.554 398.571 75.767 398.804 74.6293 398.319C73.8955 398.004 73.2877 397.481 72.9134 396.777Z" fill="white"/>
<path d="M116.162 402.202C115.643 402.302 115.168 402.269 114.872 402.087C112.745 400.787 116.184 399.082 117.622 399.56C117.889 399.656 118.159 399.79 118.293 400.071C118.782 401.146 117.377 402.002 116.162 402.202Z" fill="white"/>
<path d="M106.319 400.205C106.067 398.715 107.25 397.759 108.576 397.244C109.999 396.407 112.275 396.473 113.131 397.718C113.213 397.833 113.272 397.952 113.324 398.078C113.991 399.66 112.071 401.316 110.819 401.902C109.121 402.713 106.653 402.38 106.319 400.205Z" fill="white"/>
<path d="M151.011 379.109C150.507 377.446 151.371 376.467 152.909 375.989C153.175 375.9 153.439 375.863 153.691 375.823C154.536 375.437 155.777 375.489 156.763 375.86C158.575 376.519 161.055 378.824 160.795 380.929C160.395 384.067 155.392 383.593 153.528 382.366C152.345 381.585 151.423 380.469 151.011 379.109Z" fill="white"/>
<path d="M151.121 387.532C150.613 387.384 150.187 387.158 149.99 386.869C148.619 384.786 152.477 384.701 153.556 385.735C153.759 385.942 153.952 386.183 153.952 386.494C153.93 387.676 152.307 387.854 151.121 387.532Z" fill="white"/>
<path d="M143.029 381.536C143.444 380.091 144.908 379.717 146.328 379.813C147.988 379.669 150.004 380.677 150.26 382.17C150.289 382.307 150.304 382.44 150.289 382.574C150.234 384.297 147.777 384.982 146.405 384.986C144.512 385.001 142.421 383.66 143.029 381.536Z" fill="white"/>
<path d="M41.0422 394.343C41.5352 392.664 42.7989 392.319 44.3518 392.749C44.6186 392.827 44.8631 392.927 45.1077 393.024C46.012 393.161 47.0386 393.876 47.6649 394.724C48.836 396.255 49.6625 399.527 48.3209 401.153C46.2789 403.577 42.3208 400.479 41.424 398.441C40.8384 397.151 40.6679 395.71 41.0422 394.343Z" fill="white"/>
<path d="M36.5938 401.476C36.2417 401.083 36.012 400.668 36.012 400.32C35.975 397.826 39.2585 399.831 39.618 401.294C39.6884 401.587 39.7144 401.883 39.5402 402.143C38.8953 403.128 37.4166 402.398 36.5938 401.476Z" fill="white"/>
<path d="M33.0304 392.067C34.1607 391.082 35.5876 391.552 36.7402 392.401C38.2003 393.168 39.3715 395.125 38.7637 396.51C38.7193 396.644 38.6488 396.762 38.5858 396.859C37.5926 398.274 35.1688 397.526 33.9829 396.785C32.4004 395.784 31.3701 393.531 33.0304 392.067Z" fill="white"/>
<path d="M22.5941 396.807C36.5659 399.153 50.86 400.727 64.9949 401.317C81.2125 401.991 97.4747 401.606 113.67 400.49C121.379 399.957 129.098 399.193 136.7 397.711C142.748 396.54 148.981 395.303 154.54 392.498C159.57 389.959 164.447 386.098 166.1 380.473C167.708 375.074 166.592 369.56 165.488 364.191C163.835 356.143 163.064 347.168 165.314 339.142C182.024 318.958 185.66 298.589 187.154 300.204C203.405 317.683 250.972 351.659 246.109 381.777C245.55 385.224 231.211 392.127 228.261 393.843C221.85 397.541 215.116 400.509 208.234 403.251C194.669 408.646 180.334 412.433 165.881 414.623C160.607 415.427 155.311 416.053 150.023 416.502C101.611 420.645 52.2424 410.747 7.18799 393.394C6.62467 393.179 5.9242 392.861 5.17188 392.483C10.8199 394.465 16.7089 395.81 22.5941 396.807Z" fill="#77B5E4"/>
<path d="M64.6216 409.495C87.5361 412.948 110.892 413.7 133.988 411.633C141.452 410.962 148.953 410.125 156.294 408.409C163.214 406.786 171.678 404.451 176.452 398.738C178.353 396.481 179.605 393.706 179.528 390.708C179.365 384.942 174.747 380.844 172.242 375.993C166.538 364.951 165.022 352.619 165.018 340.313C165.093 339.92 165.204 339.531 165.315 339.142C182.025 318.958 185.661 298.589 187.155 300.204C203.406 317.683 250.973 351.659 246.11 381.777C245.551 385.224 231.212 392.127 228.262 393.843C221.851 397.541 215.117 400.509 208.235 403.251C194.671 408.646 180.335 412.433 165.882 414.623C160.608 415.427 155.312 416.053 150.024 416.502C114.22 419.566 77.8819 414.938 43.1562 405.3C50.2422 407.008 57.4097 408.409 64.6216 409.495Z" fill="#77B5E4"/>
<path d="M174.235 295.51C179.728 283.73 187.555 270.257 196.583 260.815C208.264 248.59 223.174 240.072 239.473 235.658C261.498 229.696 299.581 239.134 308.876 211.491C313.923 196.454 314.416 180.887 313.768 165.228C312.393 132.43 310.025 100.133 311.856 67.2763C312.045 63.871 315.832 42.6532 313.716 40.7449C324.011 49.9827 336.782 56.1005 349.616 61.5328C347.159 85.9854 345.655 121.492 350.836 159.918C356.613 202.824 363.722 247.386 350.291 289.636C346.652 301.109 341.259 312.292 334.8 322.449C326.765 335.088 317.518 346.909 308.342 358.714C296.298 374.189 284.012 390.689 266.39 400.212C248.816 409.739 227.795 407.557 209.624 400.468C190.23 392.887 173.69 378.713 168.142 358.17C162.572 337.589 165.285 314.7 174.235 295.51Z" fill="#77B5E4"/>
<path d="M209.428 400.946C187.622 392.431 172.775 377.271 167.65 358.296C162.22 338.238 164.451 315.278 173.783 295.295C177.645 287.013 185.687 271.479 196.22 260.47C207.72 248.446 222.651 239.697 239.354 235.173C245.925 233.398 253.778 232.986 262.087 232.553C281.7 231.527 301.975 230.467 308.409 211.328C313.731 195.483 313.868 179.145 313.294 165.246C313.023 158.876 312.741 152.533 312.445 146.192C311.215 120.413 309.988 93.7447 311.463 67.2429C311.5 66.3387 311.9 64.2673 312.274 61.6438C313.149 55.3815 313.839 42.3752 313.839 41.1153V41.1079C313.839 40.9227 313.379 40.6114 313.579 40.3965C313.753 40.1964 313.846 40.1778 314.053 40.3631C324.356 49.6083 337.331 55.778 349.806 61.0621C350.002 61.151 350.132 61.3511 350.11 61.566C347.767 84.8922 346.066 120.873 351.329 159.84L352.215 166.428C357.766 207.307 363.54 249.58 350.777 289.777C347.219 300.971 341.982 312.055 335.226 322.704C327.403 334.999 318.312 346.697 309.51 358.007L307.023 361.227C295.46 376.119 283.501 391.534 266.635 400.661C258.752 404.926 249.75 407.112 239.907 407.112C230.167 407.119 219.905 405.029 209.428 400.946ZM314.761 42.3233C315.15 45.4619 314.417 51.991 313.038 61.7883C312.686 64.3933 312.393 66.4462 312.334 67.3095C310.881 93.7594 312.16 120.395 313.379 146.163C313.701 152.499 314.001 158.843 314.272 165.209C314.843 179.201 314.724 195.653 309.347 211.65C302.702 231.434 281.147 232.56 262.128 233.553C253.864 233.991 246.081 234.395 239.61 236.144C223.077 240.624 208.324 249.265 196.95 261.156C186.502 272.065 178.523 287.472 174.691 295.702C165.463 315.464 163.236 338.16 168.606 357.988C173.661 376.645 188.281 391.49 209.795 399.89C220.146 403.929 230.278 405.874 239.903 405.874C249.587 405.874 258.411 403.855 266.16 399.671C282.841 390.645 294.73 375.426 306.23 360.612L308.717 357.399C317.5 346.108 326.587 334.44 334.363 322.174C341.089 311.599 346.292 300.601 349.817 289.488C362.506 249.498 356.777 207.344 351.218 166.576L350.332 159.984C345.088 121.125 346.73 85.2331 349.068 61.8514C337.157 56.7933 324.842 50.9238 314.761 42.3233Z" fill="#1A1718"/>
<path d="M195.175 277.756C194.138 276.826 194.334 275.8 195.175 274.829C195.324 274.662 195.479 274.529 195.642 274.388C196.043 273.78 196.917 273.302 197.747 273.136C199.245 272.839 201.898 273.373 202.591 274.907C203.636 277.208 200.03 278.979 198.255 278.916C197.125 278.883 196.028 278.505 195.175 277.756Z" fill="white"/>
<path d="M217.37 306.051C216.87 305.603 216.959 305.103 217.37 304.629C217.444 304.558 217.514 304.484 217.596 304.425C217.792 304.125 218.222 303.899 218.626 303.813C219.36 303.673 220.628 303.928 220.969 304.669C221.469 305.785 219.712 306.641 218.856 306.618C218.322 306.604 217.789 306.418 217.37 306.051Z" fill="white"/>
<path d="M297.475 244.985C296.963 244.536 297.067 244.04 297.475 243.566C297.538 243.492 297.619 243.421 297.69 243.354C297.901 243.062 298.32 242.828 298.72 242.75C299.45 242.598 300.732 242.854 301.07 243.606C301.57 244.722 299.821 245.574 298.953 245.544C298.409 245.533 297.879 245.355 297.475 244.985Z" fill="white"/>
<path d="M211.313 266.184C210.272 265.269 210.461 264.239 211.313 263.272C211.458 263.101 211.606 262.964 211.762 262.827C212.184 262.216 213.055 261.73 213.874 261.571C215.39 261.263 218.025 261.808 218.726 263.338C219.76 265.643 216.157 267.407 214.382 267.351C213.252 267.318 212.17 266.94 211.313 266.184Z" fill="white"/>
<path d="M176.882 347.042C175.855 346.119 176.041 345.096 176.882 344.122C177.023 343.963 177.193 343.818 177.349 343.677C177.76 343.073 178.631 342.592 179.454 342.421C180.958 342.128 183.605 342.658 184.309 344.196C185.35 346.501 181.733 348.268 179.962 348.213C178.839 348.172 177.745 347.802 176.882 347.042Z" fill="white"/>
<path d="M196.099 293.679C195.372 293.89 194.679 293.931 194.235 293.716C191.003 292.197 195.624 289.225 197.744 289.677C198.144 289.766 198.559 289.914 198.782 290.303C199.645 291.756 197.796 293.193 196.099 293.679Z" fill="white"/>
<path d="M179.564 298.778C178.993 296.71 180.509 295.15 182.328 294.205C184.218 292.797 187.45 292.519 188.877 294.157C189.018 294.302 189.129 294.457 189.203 294.628C190.411 296.777 187.943 299.441 186.268 300.482C183.963 301.894 180.42 301.813 179.564 298.778Z" fill="white"/>
<path d="M248.961 246.241C247.972 243.958 249.069 242.424 251.185 241.498C251.537 241.339 251.904 241.231 252.278 241.127C253.401 240.446 255.18 240.331 256.64 240.683C259.32 241.342 263.207 244.222 263.17 247.253C263.115 251.777 255.914 251.918 253.083 250.476C251.267 249.55 249.788 248.112 248.961 246.241Z" fill="white"/>
<path d="M250.46 271.212C249.715 271.097 249.078 270.831 248.755 270.456C246.476 267.707 251.931 266.97 253.64 268.274C253.973 268.526 254.292 268.837 254.333 269.285C254.496 270.96 252.198 271.479 250.46 271.212Z" fill="white"/>
<path d="M238.011 263.987C238.37 261.871 240.397 261.096 242.424 261.004C244.741 260.529 247.798 261.645 248.384 263.738C248.469 263.927 248.495 264.116 248.495 264.298C248.677 266.766 245.319 268.118 243.344 268.356C240.675 268.678 237.484 267.099 238.011 263.987Z" fill="white"/>
<path d="M292.648 369.794C310.193 350.477 324.291 327.803 332.6 303.009C341.616 276.115 344.274 247.608 344.1 219.376C343.933 190.788 341.535 162.108 338.948 133.646C336.621 108.129 333.704 81.7315 337.903 56.2561C341.75 58.1237 345.682 59.8541 349.614 61.5253C347.157 85.9594 345.652 121.477 350.833 159.903C356.611 202.805 363.719 247.368 350.289 289.625C346.649 301.097 341.257 312.273 334.797 322.434C326.763 335.073 317.516 346.89 308.34 358.7C296.295 374.17 284.01 390.671 266.387 400.201C260.676 403.299 254.565 405.148 248.324 406.004C264.879 396.362 279.852 383.856 292.648 369.794Z" fill="#EED688"/>
<path d="M174.236 295.498C179.729 283.719 187.556 270.242 196.584 260.807C208.265 248.579 223.175 240.064 239.474 235.643C261.499 229.681 299.582 239.13 308.877 211.476C313.924 196.446 314.417 180.865 313.769 165.213C312.394 132.412 310.026 100.114 311.857 67.2687C312.046 63.8597 315.833 42.6419 313.717 40.7373C324.012 49.9714 336.783 56.0855 349.617 61.5289C348.876 68.825 348.235 77.1365 347.809 86.2113C344.9 81.5868 340.567 77.9147 334.593 79.3153C327.937 80.868 325.584 87.1488 324.379 93.3036C321.237 109.215 323.631 125.542 323.745 141.612C323.842 155.512 324.364 169.452 323.416 183.34C322.482 197.128 320.336 211.617 313.95 224.045C307.435 236.677 295.976 246.178 283.376 252.692C279.725 254.363 275.945 255.812 272.046 256.976C258.604 260.993 243.828 263.171 231.521 270.197C222.545 275.3 215.08 282.729 209.799 291.596C198.892 309.898 196.495 332.431 200.427 353.13C200.527 353.59 201.127 353.571 201.35 353.249C205.834 346.701 211.612 340.205 219.361 337.6C226.225 335.277 233.281 336.34 240.208 337.856C246.534 339.246 252.879 341.117 258.775 343.87C260.072 345.793 261.521 347.338 263.115 348.428C266.554 350.766 269.912 353.241 273.069 355.935C276.475 358.844 279.506 362.216 283.138 364.839C286.092 366.97 289.62 368.927 293.026 366.655C296.702 364.198 299.515 360.497 302.084 356.962C304.73 353.323 307.161 349.539 309.481 345.686C312.446 340.754 316.33 336.359 318.609 331.027C322.897 321.007 316.952 311.121 311.397 302.739C317.278 306.611 322.2 311.995 329.671 312.636C334.019 313.011 338.229 311.929 341.953 309.853C339.767 314.181 337.373 318.395 334.797 322.437C326.762 335.077 317.516 346.894 308.34 358.703C296.295 374.174 284.009 390.674 266.387 400.205C248.813 409.717 227.792 407.534 209.622 400.446C190.228 392.872 173.688 378.702 168.14 358.162C162.573 337.578 165.286 314.685 174.236 295.498Z" fill="#77B5E4"/>
<path d="M348.103 76.2842C337.97 74.6316 328.62 70.1701 319.633 65.4048C307.051 58.7238 297.359 46.4289 298.479 31.6106C298.582 30.2507 298.779 28.9019 299.101 27.5494C301.91 15.7251 310.027 6.06485 321.875 2.68172C329.621 0.458415 337.503 -0.278986 345.382 1.50707C354.062 3.47099 362.467 7.12833 369.505 12.5643C382.417 22.5506 385.919 32.1701 386.927 32.2257C393.617 32.6037 400.58 33.7376 406.58 36.865C412.406 39.9035 419.17 46.8736 416.472 54.2438C412.028 66.3609 395.255 71.9895 383.955 74.3796C375.146 76.2545 366.036 76.9809 357.045 77.0105C354.043 77.0142 351.045 76.7585 348.103 76.2842Z" fill="#77B5E4"/>
<path d="M321.74 2.18896C330.338 -0.264086 338.117 -0.656848 345.495 1.01804C347.697 1.52199 349.906 2.12968 352.022 2.83743C358.678 5.05333 364.678 8.19188 369.807 12.1716C379.213 19.4418 383.657 26.5082 385.802 29.9062C386.317 30.7436 386.818 31.544 387.025 31.7256C395.26 32.1999 401.638 33.7154 406.797 36.413C412.445 39.3589 419.802 46.5772 416.933 54.4144C412.275 67.1354 394.326 72.6936 384.042 74.8651C375.952 76.5844 366.868 77.4775 357.04 77.5034C354.119 77.5182 351.073 77.2663 348.019 76.7771C344.843 76.2509 341.648 75.4543 338.257 74.3278C338.005 74.2352 337.765 74.1499 337.509 74.0684C338.717 74.098 339.903 74.1536 341.018 74.3648C341.9 74.5316 342.79 74.6946 343.657 74.8466C345.177 75.2245 346.678 75.5432 348.179 75.7803C351.184 76.2695 354.168 76.5066 357.043 76.5029C366.79 76.4658 375.807 75.5877 383.846 73.8868C393.922 71.7525 411.496 66.3387 416.003 54.0586C418.645 46.8255 411.678 40.0741 406.334 37.2912C404.803 36.4945 403.128 35.7868 401.379 35.1939C397.302 33.8377 392.562 33.0299 386.907 32.7038C386.859 32.7038 386.758 32.6853 386.725 32.6742C386.273 32.5186 385.888 31.9034 384.946 30.4212C382.841 27.0677 378.472 20.1051 369.195 12.9386C364.14 9.04415 358.259 5.94635 351.703 3.76751C349.62 3.06717 347.456 2.47058 345.28 1.97775C338.061 0.351031 330.453 0.725298 322.018 3.14129C310.87 6.33173 302.49 15.4917 299.585 27.6458C299.277 28.9501 299.07 30.2915 298.959 31.6366C298.054 43.8722 304.599 53.6992 312.656 60.1875C315.002 62.2812 317.574 64.1895 320.031 66.1646C319.827 66.0571 319.598 65.9348 319.394 65.8347C305.166 58.2792 296.946 45.1432 297.973 31.5588C298.069 30.1655 298.291 28.7686 298.61 27.4161C301.594 14.9137 310.24 5.48316 321.74 2.18896Z" fill="#1A1718"/>
<path d="M398.314 44.7541C397.021 43.4868 395.35 42.7717 393.296 43.2831C391.051 43.8537 389.857 46.3142 389.057 48.6375C389.023 45.8806 389.398 42.7309 391.784 41.66C394.742 40.3223 397.069 42.2196 398.314 44.7541Z" fill="#77B5E4"/>
<path d="M339.294 74.0796C343.293 75.2098 347.395 76.0324 351.565 75.9768C356.357 75.9212 361.482 75.8545 366.022 74.2315C366.47 74.0759 366.326 73.4496 365.959 73.3088C359.351 70.7446 353.688 66.2573 348.455 61.555C346.495 59.7949 344.616 58.8833 342.251 57.7642C341.069 57.2084 339.946 56.5785 338.879 55.9004C343.938 57.2269 349.764 56.7526 354.648 54.7146C353.262 55.6224 351.809 56.4451 350.253 57.1565C349.83 57.3492 349.949 57.9161 350.323 58.0792C363.921 64.108 380.12 66.4203 394.918 65.3235C401.845 64.8158 409.053 62.763 414.286 58.409C407.971 67.6802 393.851 72.2713 383.956 74.3686C375.146 76.2436 366.037 76.9699 357.046 76.9995C354.044 77.0106 351.046 76.755 348.103 76.2806C345.094 75.7878 342.174 75.0356 339.301 74.1166C339.294 74.1092 339.294 74.0944 339.294 74.0796Z" fill="#77B5E4"/>
<path d="M321.875 2.67818C326.103 1.46277 330.38 0.706857 334.687 0.554932C333.867 0.755029 333.06 0.977354 332.252 1.23303C321.652 4.56799 312.161 11.0971 308.292 21.8912C304.538 32.3185 305.427 43.3017 310.753 53.0101C313.332 57.7124 316.508 62.2886 320.752 65.657C321.185 66.0164 321.652 66.3536 322.116 66.6871C321.274 66.2609 320.455 65.8348 319.629 65.4013C307.047 58.7202 297.356 46.4254 298.475 31.6071C298.579 30.2471 298.775 28.8983 299.097 27.5458C301.91 15.7216 310.026 6.06131 321.875 2.67818Z" fill="#77B5E4"/>
<path d="M326.179 18.6711C327.844 14.1282 332.535 11.7492 337.19 13.4278C343.079 15.5548 347.934 22.573 346.818 28.7723C346.27 30.5325 345.462 32.1369 344.08 33.4524C343.813 33.7155 343.883 34.175 344.25 34.3009C347.23 35.3237 349.561 37.2691 351.647 39.5109C346.459 37.6285 341.07 36.2797 335.537 36.1129C330.764 35.9795 325.409 36.4316 321.188 38.8995C322.422 36.0463 324.616 33.7377 327.662 32.5779C327.895 32.4853 328.021 32.1184 327.888 31.9035C325.542 28.1906 324.616 22.8769 326.179 18.6711Z" fill="#77B5E4"/>
<path d="M356.564 33.0076C354.682 31.9219 352.284 31.0955 350.787 29.4725C349.182 27.7346 348.437 25.352 348.155 23.0324C347.596 18.3449 348.645 13.298 353.585 11.4527C363.78 7.63228 370.28 19.8012 367.104 28.3238C366.978 28.6425 367.23 28.9464 367.542 28.9834C369.569 29.2132 371.811 31.14 373.223 33.2077C370.099 32.7112 366.99 32.3999 363.806 33.367C360.63 34.3268 357.884 35.9498 355.538 38.1508C355.882 36.6168 356.32 35.1123 356.761 33.5893C356.828 33.3781 356.761 33.1262 356.564 33.0076Z" fill="#77B5E4"/>
<path d="M348.256 12.7979C346.652 10.8155 346.826 7.73621 349.109 6.1799C351.155 4.78292 352.859 5.1053 354.412 6.08355C354.357 6.09838 354.279 6.10579 354.216 6.12062C351.214 7.00253 349.654 10.1892 348.256 12.7979Z" fill="#77B5E4"/>
<path d="M329.73 5.6759C332.624 5.26459 335.363 6.20948 336.946 8.42167C335.426 7.87696 333.729 7.688 332.198 7.77693C328.214 8.01408 325.75 11.5121 323.285 14.2949C323.43 10.3449 325.375 6.30213 329.73 5.6759Z" fill="#77B5E4"/>
<path d="M403.774 47.5887C403.155 44.6836 404.393 41.545 407.969 41.5599C410.615 41.5784 412.246 43.1236 413.031 45.2209C412.776 44.9949 412.538 44.7762 412.242 44.591C408.558 42.0675 405.378 44.1611 403.774 47.5887Z" fill="#77B5E4"/>
<path d="M350.334 26.8639C353.143 31.5588 358.776 33.3633 362.879 30.8992C366.989 28.4239 368.034 22.6285 365.195 17.9225C362.371 13.2276 356.76 11.4231 352.65 13.8872C348.548 16.3625 347.506 22.1616 350.334 26.8639Z" fill="white"/>
<path d="M350.006 27.0529C347.078 22.1913 348.182 16.1439 352.455 13.5611C353.723 12.8052 355.175 12.405 356.684 12.405C360.164 12.405 363.547 14.4505 365.53 17.7335C368.447 22.5989 367.346 28.6537 363.08 31.2216C361.809 31.9849 360.349 32.3814 358.837 32.3814C355.372 32.3814 351.981 30.336 350.006 27.0529ZM352.848 14.2059C348.923 16.5663 347.934 22.1542 350.639 26.6638C352.481 29.7283 355.631 31.6292 358.833 31.6292C360.23 31.6292 361.528 31.2698 362.68 30.5768C366.609 28.2127 367.587 22.6285 364.874 18.1189C363.029 15.0545 359.882 13.1535 356.676 13.1535C355.301 13.1535 354.008 13.513 352.848 14.2059Z" fill="#1A1718"/>
<path d="M328.785 29.1094C331.612 33.8006 337.223 35.6163 341.337 33.1447C345.432 30.6768 346.492 24.8777 343.668 20.1754C340.844 15.4806 335.226 13.6611 331.116 16.1364C326.998 18.6043 325.961 24.4071 328.785 29.1094Z" fill="white"/>
<path d="M328.472 29.3021C327.056 26.9529 326.526 24.2627 326.986 21.717C327.441 19.1602 328.835 17.0555 330.914 15.8104C332.17 15.0545 333.631 14.6543 335.15 14.6543C338.611 14.6543 341.999 16.696 343.974 19.9754C346.906 24.8481 345.805 30.8955 341.532 33.4634C340.275 34.2231 338.804 34.627 337.303 34.627C333.831 34.627 330.447 32.5815 328.472 29.3021ZM331.303 16.4514C329.417 17.5927 328.142 19.5122 327.712 21.8541C327.293 24.2182 327.786 26.7157 329.109 28.9168C330.951 31.9701 334.09 33.8747 337.303 33.8747C338.686 33.8747 339.986 33.5227 341.143 32.8187C345.06 30.4657 346.057 24.8741 343.344 20.3645C341.495 17.3074 338.352 15.4065 335.15 15.4065C333.745 15.4065 332.459 15.7548 331.303 16.4514Z" fill="#1A1718"/>
<path d="M328.99 29.5541C330.932 32.7742 334.801 34.0155 337.621 32.3221C340.456 30.625 341.16 26.6416 339.218 23.4067C337.276 20.1754 333.415 18.9415 330.598 20.6312C327.778 22.3246 327.059 26.3192 328.99 29.5541Z" fill="#683222"/>
<path d="M330.118 28.6203C331.367 30.7214 333.869 31.5255 335.7 30.4212C337.545 29.3207 338.005 26.7342 336.734 24.6369C335.477 22.547 332.972 21.7355 331.145 22.8435C329.322 23.944 328.862 26.5341 330.118 28.6203Z" fill="#39180D"/>
<path d="M333.73 25.0482C334.252 25.9264 335.301 26.2637 336.065 25.8005C336.824 25.3447 337.021 24.2664 336.498 23.3882C335.976 22.51 334.927 22.1839 334.167 22.6397C333.4 23.0918 333.192 24.17 333.73 25.0482Z" fill="white"/>
<path d="M351.738 27.1789C353.676 30.4027 357.542 31.6514 360.358 29.9506C363.186 28.2572 363.905 24.2626 361.967 21.0277C360.017 17.8002 356.163 16.5626 353.335 18.256C350.497 19.9568 349.804 23.9477 351.738 27.1789Z" fill="#683222"/>
<path d="M352.864 26.2451C354.113 28.3424 356.614 29.1465 358.442 28.0534C360.276 26.9528 360.724 24.3627 359.468 22.2691C358.212 20.1717 355.714 19.3676 353.879 20.4645C352.052 21.5724 351.593 24.1626 352.864 26.2451Z" fill="#39180D"/>
<path d="M356.469 22.6768C356.999 23.555 358.036 23.8959 358.8 23.429C359.578 22.9695 359.767 21.8875 359.23 21.0167C358.722 20.1459 357.662 19.8013 356.902 20.2645C356.128 20.7203 355.946 21.7948 356.469 22.6768Z" fill="white"/>
<path d="M359.337 26.4043C359.589 26.8156 360.082 26.9713 360.441 26.7564C360.805 26.5414 360.886 26.0301 360.645 25.6113C360.393 25.2037 359.889 25.0444 359.541 25.263C359.185 25.478 359.081 25.9856 359.337 26.4043Z" fill="white"/>
<path d="M403.73 65.8051C403.73 65.8051 382.317 85.3035 348.262 60.1394C348.262 60.1394 368.412 70.4037 403.73 65.8051Z" fill="white"/>
<path d="M346.364 36.0796C346.364 36.0796 335.076 30.4917 324.477 35.9351C324.477 35.9351 334.746 33.5599 346.364 36.0796Z" fill="#0E73BD"/>
<path d="M357.086 33.697C357.086 33.697 363.49 27.8053 371.021 31.244C371.021 31.244 364.131 30.3472 357.086 33.697Z" fill="#0E73BD"/>
<path d="M393.751 50.4866C393.728 52.5876 394.351 54.2921 395.133 54.2921C395.919 54.2958 396.56 52.6061 396.582 50.5051C396.586 48.4078 395.97 46.6995 395.185 46.6921C394.395 46.6921 393.751 48.3819 393.751 50.4866Z" fill="#1A1718"/>
<path d="M406.758 50.5717C406.754 52.6728 407.38 54.3773 408.148 54.3773C408.933 54.3921 409.586 52.6876 409.604 50.5903C409.619 48.493 408.989 46.7884 408.211 46.781C407.421 46.7736 406.784 48.4707 406.758 50.5717Z" fill="#1A1718"/>
<path d="M406.816 42.6271C405.571 43.0903 404.785 44.1723 404.207 45.4433C403.566 46.6735 403.27 47.8704 403.27 47.8704C403.27 47.8704 403.314 40.8633 408.239 41.6488C411.642 42.1861 412.824 45.0579 413.157 46.2585C411.76 43.9277 409.685 41.5303 406.816 42.6271Z" fill="#1A1718"/>
<path d="M392.996 42.5272C391.739 42.9978 390.958 44.0835 390.376 45.3434C389.735 46.5736 389.449 47.7705 389.449 47.7705C389.449 47.7705 389.486 40.7671 394.408 41.5489C397.81 42.09 398.981 44.958 399.333 46.166C397.918 43.8278 395.861 41.4415 392.996 42.5272Z" fill="#1A1718"/>
<path d="M353.965 5.74247C357.823 5.48309 359.902 7.71753 362.437 10.2817C362.57 10.4263 362.415 10.4781 362.307 10.3781C359.776 8.114 357.185 6.40949 353.724 7.60266C351.597 8.34006 350.255 10.5226 349.273 12.3902C349.195 12.5273 348.828 12.2271 348.862 12.0937C349.532 9.21455 350.451 5.97221 353.965 5.74247Z" fill="#0E73BD"/>
<path d="M331.037 5.77228C334.71 5.50919 339.531 7.95853 341.095 11.3305C341.177 11.5195 340.906 11.3713 340.843 11.3231C337.827 8.37355 333.524 6.62083 329.455 8.46617C327.113 9.53706 325.423 12.2643 324.366 14.4802C324.296 14.621 323.896 14.2986 323.937 14.1615C324.767 10.4079 326.716 6.07613 331.037 5.77228Z" fill="#0E73BD"/>
<path d="M344.763 115.752C344.763 115.752 345.986 156.875 351.667 186.827C357.345 216.782 360.695 261.237 342.391 306.622C342.391 306.622 357.923 251.807 351.667 208.967C345.252 164.998 342.161 128.762 344.763 115.752Z" fill="white"/>
<path d="M158.53 351.155C158.53 351.155 137.216 374.311 90.4569 381.666C42.8231 389.148 2.67557 388.358 7.68985 389.533C12.693 390.715 66.7605 393.531 107.801 383.619C148.857 373.696 158.53 351.155 158.53 351.155Z" fill="#77B5E4"/>
<path d="M259.155 401.557C268.302 394.276 276.303 385.657 283.052 376.13C298.146 354.824 307.337 330.204 317.114 306.204C326.046 284.278 338.613 261.315 357.688 246.482C356.987 261.022 354.793 275.452 350.291 289.621C346.651 301.094 341.259 312.269 334.799 322.43C326.765 335.069 317.518 346.886 308.342 358.696C296.297 374.166 284.012 390.667 266.389 400.197C262.661 402.221 258.781 403.703 254.797 404.737C256.268 403.751 257.725 402.695 259.155 401.557Z" fill="#77B5E4"/>
<path d="M319.742 336.151C315.835 376.456 340.584 411.836 375.01 415.175C409.45 418.51 440.54 388.54 444.439 348.235C448.345 307.934 426.268 244.97 391.839 241.624C357.395 238.289 323.659 295.847 319.742 336.151Z" fill="#FAEAD5"/>
<path d="M319.395 336.118C321.366 315.793 330.813 291.352 344.051 272.331C350.97 262.397 358.697 254.337 366.402 249.042C375.03 243.088 383.591 240.479 391.881 241.287C400.146 242.083 408.047 246.289 415.389 253.782C421.919 260.474 427.971 269.852 432.829 280.932C442.172 302.142 446.76 327.936 444.781 348.276C440.868 388.707 409.566 418.873 374.989 415.527C340.419 412.17 315.492 376.556 319.395 336.118ZM366.791 249.606C359.153 254.864 351.474 262.853 344.625 272.713C331.439 291.659 322.044 315.971 320.088 336.188C316.211 376.241 340.86 411.518 375.056 414.83C409.233 418.143 440.204 388.251 444.081 348.202C446.041 327.988 441.498 302.316 432.199 281.206C427.344 270.204 421.363 260.896 414.881 254.267C407.669 246.897 399.905 242.754 391.8 241.972C383.702 241.187 375.278 243.758 366.791 249.606Z" fill="#746F69"/>
<path d="M319.742 336.151C315.835 376.456 340.584 411.836 375.01 415.175C409.45 418.51 440.54 388.54 444.439 348.235C448.345 307.934 426.268 244.97 391.839 241.624C357.395 238.289 323.659 295.847 319.742 336.151ZM340.84 326.621C343.686 297.203 370.563 255.434 398.458 258.128C426.35 260.833 444.691 306.993 441.837 336.403C439.006 365.818 414.068 387.473 386.172 384.775C358.281 382.066 337.983 356.035 340.84 326.621Z" fill="#D6D2D9"/>
<path d="M430.658 358.014C427.174 363.939 421.741 370.761 413.547 375.76C413.547 375.76 420.259 368.504 425.454 355.368C427.167 356.276 428.894 357.162 430.658 358.014Z" fill="#929D75"/>
<g opacity="0.7">
<path opacity="0.4" d="M431.833 357.017C432.248 356.168 432.745 355.891 433.49 355.464C434.361 354.953 435.606 354.838 436.558 354.79C438.041 354.72 439.371 355.546 440.124 356.932C440.716 358.003 440.872 359.6 440.59 360.975C440.961 362.575 441.065 364.739 439.531 365.451C438.511 365.914 437.173 365.655 436.21 365.262C434.131 364.413 432.478 362.661 431.737 360.293C431.414 359.303 431.344 358.003 431.833 357.017Z" fill="#165766"/>
<path opacity="0.4" d="M414.998 357.506C415.109 357.376 415.22 357.258 415.313 357.143C415.338 357.095 415.368 357.054 415.383 357.002C415.409 356.876 415.457 356.743 415.509 356.628C415.928 355.987 416.58 355.994 417.14 356.35C417.692 356.683 418.122 357.276 418.311 357.943C418.318 357.984 418.326 358.025 418.344 358.058C418.344 358.077 418.344 358.092 418.352 358.103C418.407 358.447 418.459 358.777 418.359 359.129C418.311 359.37 418.229 359.615 418.111 359.822C418.111 359.841 418.088 359.859 418.081 359.878C418.025 360.078 417.962 360.27 417.885 360.47C417.792 360.726 417.569 360.815 417.34 360.819C417.277 360.874 417.199 360.934 417.099 360.963C416.847 361.045 416.587 361.037 416.343 360.948C415.539 360.722 414.986 359.948 414.731 359.111C414.649 358.818 414.62 358.503 414.668 358.195C414.705 357.917 414.816 357.691 414.998 357.506Z" fill="#203450"/>
<path opacity="0.4" d="M413.849 336.125C414.161 335.907 414.505 335.736 414.817 335.621C416.477 335.043 418.36 337.285 418.397 339.027C418.46 341.921 417.574 348.368 413.901 348.02C411.092 347.753 408.635 344.285 408.264 341.343C407.879 338.312 411.296 334.895 413.849 336.125Z" fill="#203450"/>
<path opacity="0.4" d="M416.325 371.439C416.433 370.472 417.478 371.068 417.771 371.45C417.808 371.491 417.848 371.543 417.889 371.587C419.342 373.421 416.073 373.955 416.318 371.58C416.318 371.528 416.318 371.483 416.325 371.439Z" fill="#203450"/>
<path opacity="0.4" d="M393.676 345.371C394.525 343.881 395.881 341.947 397.534 341.672C399.702 341.309 401.289 343.251 402.052 345.296C403.004 347.838 403.012 352.007 401.722 354.564C401.648 354.846 401.563 355.135 401.466 355.427C400.811 357.436 398.972 358.073 397.268 357.632C394.985 357.032 393.102 354.079 392.524 351.696C391.994 349.465 392.594 347.309 393.676 345.371Z" fill="#203450"/>
<path opacity="0.4" d="M383.734 371.294C383.86 371.031 384.071 370.972 384.319 370.942C384.382 370.931 384.445 370.916 384.501 370.913C384.771 370.876 385.116 371.105 385.305 371.28C385.557 371.509 385.765 371.839 385.857 372.198C385.928 372.476 385.954 372.803 385.828 373.073C385.657 373.429 385.287 373.499 384.968 373.399C384.883 373.373 384.823 373.355 384.753 373.332C384.249 373.173 383.845 372.68 383.697 372.143C383.637 371.876 383.615 371.557 383.734 371.294Z" fill="#203450"/>
<path opacity="0.4" d="M371.236 342.358C371.733 341.813 372.511 341.065 373.197 340.909C374.765 340.568 376.069 342.228 376.273 343.833C376.391 344.896 376.377 345.912 376.176 346.931C376.236 347.479 376.169 348.042 375.891 348.531C373.805 352.281 369.487 348.413 369.806 344.97C369.902 343.925 370.58 343.055 371.236 342.358Z" fill="#203450"/>
<path opacity="0.4" d="M388.525 336.348C388.551 336.3 388.559 336.248 388.559 336.196C388.551 335.862 388.622 335.533 388.866 335.31C389.215 334.981 389.719 335.095 390.071 335.318C390.545 335.607 390.92 336.114 391.072 336.689C391.19 337.141 391.19 337.686 390.86 338.023C390.605 338.278 390.297 338.29 389.993 338.334C389.578 338.375 389.141 337.971 388.915 337.663C388.67 337.348 388.407 336.789 388.525 336.348Z" fill="#203450"/>
<path opacity="0.4" d="M437.605 337.119C437.634 337.093 437.642 337.067 437.649 337.044C437.846 336.652 438.138 336.381 438.513 336.24C438.928 336.111 439.339 336.118 439.747 336.259C440.24 336.352 440.77 336.811 441.148 337.107C441.533 337.419 441.956 338.063 442.193 338.519C442.43 338.99 442.571 339.505 442.619 340.042C442.667 340.557 442.593 340.876 442.423 341.339C442.352 341.532 442.193 341.669 442.074 341.828C442.011 341.899 441.93 341.965 441.837 342.01C441.377 342.373 440.688 342.358 440.199 342.199C439.676 342.025 439.291 341.702 438.835 341.343C438.235 340.854 437.753 339.987 437.531 339.197C437.364 338.579 437.279 337.708 437.605 337.119Z" fill="#203450"/>
<path opacity="0.4" d="M408.871 330.575C408.949 330.534 409.049 330.519 409.146 330.515C409.183 330.508 409.216 330.489 409.264 330.489C409.631 330.471 410.042 330.715 410.287 330.971C410.706 331.382 411.043 331.927 411.084 332.557C411.11 333.002 411.013 333.291 410.75 333.609C410.539 333.869 410.08 333.865 409.813 333.769C409.805 333.754 409.787 333.754 409.772 333.739C409.12 333.498 408.579 332.887 408.367 332.138C408.297 331.883 408.264 331.616 408.312 331.342C408.371 330.949 408.575 330.745 408.871 330.575Z" fill="#203450"/>
<path opacity="0.4" d="M422.712 379.661C422.916 378.309 423.961 377.175 424.906 376.36C425.454 375.886 426.11 375.437 426.796 375.296C428.13 375.037 429.42 375.971 430.054 377.242C430.187 377.49 430.528 378.361 430.187 377.553C430.402 378.068 430.398 378.094 430.502 378.631C430.547 378.909 430.517 379.206 430.502 379.491C430.472 379.876 430.387 380.28 430.269 380.669C430.317 380.814 430.346 380.988 430.383 381.155C430.498 381.892 430.32 382.73 430.05 383.4C429.587 384.527 428.523 385.023 427.493 385.142C424.936 385.453 422.252 382.578 422.712 379.661Z" fill="#165766"/>
<path opacity="0.4" d="M412.516 385.094C412.798 384.838 413.15 384.957 413.442 385.105C413.52 385.138 413.583 385.172 413.661 385.209C414.076 385.424 414.402 385.939 414.528 386.409C414.64 386.795 414.654 387.291 414.332 387.58C413.628 388.243 412.564 387.117 412.397 386.365C412.368 386.287 412.368 386.205 412.349 386.12C412.275 385.772 412.242 385.364 412.516 385.094Z" fill="#203450"/>
<path opacity="0.4" d="M411.496 396.01C411.503 395.962 411.522 395.903 411.522 395.851C411.522 395.843 411.522 395.843 411.529 395.836C411.529 394.732 411.963 393.69 413.097 393.716C414.135 393.735 414.913 394.465 415.51 395.317C415.673 395.465 415.814 395.632 415.947 395.81C416.095 395.999 416.221 396.221 416.325 396.458C416.381 396.551 416.44 396.647 416.503 396.777C416.673 397.059 416.77 397.385 416.877 397.696C417.203 398.582 416.988 399.797 416.092 400.149C415.88 400.238 415.669 400.275 415.461 400.282C415.198 400.442 414.876 400.534 414.528 400.542C413.053 400.62 411.7 398.76 411.526 397.225C411.451 396.822 411.44 396.436 411.496 396.01Z" fill="#203450"/>
<path opacity="0.4" d="M393.33 392.975C393.33 393.005 393.315 393.023 393.315 393.053C393.404 392.864 393.526 392.745 393.696 392.697C393.678 392.697 393.648 392.697 393.641 392.697C394.137 392.431 394.742 392.909 395.053 393.32C395.379 393.776 395.72 394.683 395.19 395.169C394.675 395.639 393.934 395.106 393.607 394.657C393.3 394.246 393.003 393.487 393.33 392.975Z" fill="#203450"/>
<path opacity="0.4" d="M396.704 402.421L396.756 402.169C396.938 401.087 397.679 400.401 398.668 400.401H398.98C400.74 400.394 402.315 402.02 403.097 403.625C403.79 405.007 404.172 407.16 402.912 408.379C402.908 408.387 402.893 408.409 402.879 408.416C401.937 409.317 400.547 408.972 399.602 408.394C398.372 407.642 397.249 406.215 396.871 404.688C396.701 403.918 396.578 403.221 396.704 402.421Z" fill="#203450"/>
<path opacity="0.4" d="M395.306 379.154C396.129 382.366 399.049 384.823 402.018 384.864C403.741 384.894 406.409 384.505 407.106 382.366C407.254 381.951 407.31 381.499 407.302 381.036C407.451 380.847 407.562 380.606 407.603 380.291C407.621 380.08 407.662 379.876 407.699 379.661C407.714 379.658 407.721 379.591 407.736 379.509C408.74 378.431 408.518 376.586 407.847 375.219C407.05 373.57 405.683 372.428 404.008 372.21C401.636 371.902 399.449 370.372 397.107 372.121C395.024 373.696 394.65 376.678 395.306 379.154ZM402.169 380.032C402.132 380.084 402.225 380.05 402.322 379.976C402.199 380.499 401.843 380.584 402.169 380.032Z" fill="#203450"/>
<path opacity="0.4" d="M372.256 374.311C372.282 374.281 372.289 374.251 372.312 374.237C372.319 374.211 372.345 374.185 372.356 374.166C372.53 373.918 372.719 373.662 372.897 373.414C373.401 372.984 373.95 372.78 374.561 372.81C376.066 372.836 377.441 373.922 378.356 375.167C379.272 376.419 379.954 378.131 379.694 379.802C379.587 380.484 379.327 381.058 378.842 381.522C378.36 381.948 377.811 382.148 377.189 382.129C375.606 382.274 374.246 380.984 373.264 379.791C372.53 378.894 372.019 377.564 371.93 376.334C371.852 375.622 371.967 374.952 372.256 374.311Z" fill="#203450"/>
<g opacity="0.4">
<path d="M383.303 403.128C383.448 402.821 383.677 402.669 383.952 402.606C384.904 402.391 385.686 403.214 386.149 404.047C386.435 404.57 386.576 405.363 386.283 405.93C386.031 406.452 385.412 406.652 384.938 406.437C384.585 406.274 384.408 406.215 384.104 405.93C383.692 405.552 383.455 405.089 383.251 404.544C383.251 404.529 383.251 404.514 383.251 404.514C383.14 404.062 383.092 403.566 383.303 403.128Z" fill="#203450"/>
<path d="M383.953 402.598C383.953 402.598 383.953 402.598 383.953 402.606C383.923 402.606 383.897 402.606 383.875 402.606C383.901 402.606 383.927 402.606 383.953 402.598Z" fill="#203450"/>
<path d="M384.25 402.558C384.157 402.569 384.046 402.584 383.953 402.598C384.046 402.572 384.131 402.561 384.238 402.558C384.238 402.558 384.238 402.558 384.25 402.558Z" fill="#203450"/>
</g>
<path opacity="0.4" d="M359.22 335.651C359.624 334.169 360.647 333.48 362.015 333.917C362.504 334.076 362.952 334.339 363.375 334.677C363.642 334.628 363.931 334.64 364.212 334.732C365.595 335.181 366.64 336.7 366.799 338.275C367.055 340.387 365.81 342.884 363.668 342.725C360.844 342.525 358.372 338.767 359.22 335.651Z" fill="#203450"/>
<path opacity="0.4" d="M356.534 378.049C357.75 378.164 358.921 381.073 357.357 380.929C356.16 380.81 354.977 377.894 356.534 378.049Z" fill="#203450"/>
<path opacity="0.4" d="M371.499 389.822C371.903 388.732 373.226 388.543 374.078 388.851C374.43 388.962 374.742 389.122 375.046 389.311C375.146 389.062 375.279 388.825 375.49 388.64C375.739 388.406 376.035 388.284 376.332 388.24C376.995 388.051 377.773 388.269 378.329 388.599C378.829 388.918 379.267 389.325 379.623 389.826C379.793 390.1 379.96 390.378 380.123 390.648C380.397 391.171 380.545 391.73 380.601 392.33C380.616 392.386 380.616 392.456 380.634 392.516C380.753 393.39 380.33 394.669 379.456 394.869C379.278 394.906 379.137 394.936 379.011 394.965C379.048 395.436 378.981 395.921 378.755 396.351C377.673 398.456 375.49 397.048 374.119 395.94C374.026 395.888 373.938 395.843 373.86 395.784C373.752 395.71 373.656 395.628 373.552 395.551C373.307 395.399 373.074 395.225 372.863 395.017C371.417 393.876 370.81 391.638 371.499 389.822Z" fill="#203450"/>
<path opacity="0.4" d="M336.385 355.62C336.704 354.953 337.408 354.505 338.083 354.572C338.935 354.66 339.673 355.005 340.321 355.624C341.044 356.295 341.618 357.202 341.9 358.203C342.126 358.992 342.189 359.937 341.815 360.689C341.478 361.367 340.781 361.816 340.106 361.745C339.254 361.664 338.52 361.308 337.86 360.689C337.142 360.022 336.563 359.114 336.297 358.107C336.078 357.317 336.007 356.376 336.385 355.62Z" fill="#203450"/>
<path opacity="0.4" d="M344.047 342.855C345.144 342.873 346.13 344.155 346.211 345.319C346.211 345.345 346.211 345.367 346.215 345.389C346.263 345.978 346.059 346.531 345.529 346.749C345.055 346.946 344.506 346.849 344.076 346.586C343.702 346.353 343.421 345.964 343.298 345.515C343.265 345.43 343.243 345.323 343.243 345.215C343.183 345.082 343.128 344.937 343.083 344.782C342.805 343.94 343.109 342.829 344.047 342.855Z" fill="#203450"/>
<path opacity="0.4" d="M321.695 336.922C322.029 336.222 322.755 335.766 323.467 335.825C324.356 335.914 325.12 336.296 325.809 336.929C326.554 337.63 327.147 338.578 327.443 339.623C327.677 340.446 327.74 341.424 327.358 342.225C327.017 342.925 326.28 343.388 325.579 343.318C324.679 343.221 323.926 342.858 323.233 342.221C322.489 341.517 321.899 340.576 321.584 339.531C321.366 338.701 321.303 337.726 321.695 336.922Z" fill="#203450"/>
<path opacity="0.4" d="M325.414 364.954C325.714 364.513 326.322 364.606 326.681 364.839C327.133 365.11 327.445 365.547 327.608 366.058C327.637 366.114 327.663 366.166 327.711 366.225C328.089 366.94 328.175 368.126 327.311 368.493L327.267 368.508C326.918 368.663 326.474 368.508 326.184 368.319C325.751 368.059 325.465 367.667 325.202 367.203C325.195 367.181 325.169 367.163 325.154 367.137C324.947 366.759 324.835 366.199 324.895 365.747C324.958 365.354 325.147 365.132 325.414 364.954Z" fill="#203450"/>
<path opacity="0.4" d="M335.088 379.25C336.44 379.38 337.574 380.58 337.967 382.003C338.29 383.093 337.967 384.812 336.622 384.682C335.254 384.553 334.128 383.348 333.728 381.925C333.416 380.832 333.731 379.113 335.088 379.25Z" fill="#203450"/>
<path opacity="0.4" d="M344.45 389.533C344.528 389.351 344.654 389.192 344.751 389.01C344.795 388.744 344.858 388.514 344.98 388.143C345.066 387.858 345.229 387.662 345.425 387.536C345.229 387.013 345.092 386.465 345.043 385.89C344.98 385.09 345.081 384.756 345.344 384.015C345.603 383.493 345.981 383.145 346.493 382.956C347.382 382.633 348.179 382.993 348.964 383.385C349.717 383.741 350.25 384.367 350.714 385.06C351.881 386.131 352.748 388.14 352.481 389.829C352.456 389.952 352.43 390.074 352.4 390.185C352.37 390.248 352.355 390.304 352.337 390.367C352.322 390.396 352.315 390.437 352.289 390.467C352.196 390.767 352.022 391.015 351.818 391.23C351.818 391.245 351.818 391.245 351.811 391.249C351.785 391.282 351.755 391.308 351.736 391.337C351.703 391.352 351.685 391.367 351.666 391.389C351.596 391.445 351.518 391.501 351.447 391.552C351.414 391.567 351.384 391.593 351.351 391.608C351.27 391.656 351.158 391.701 351.066 391.738C351.043 391.738 351.032 391.752 351.021 391.756C350.98 391.764 350.955 391.775 350.918 391.782C350.81 391.812 350.725 391.827 350.632 391.838C350.599 391.845 350.569 391.853 350.521 391.853C350.421 391.86 350.325 391.86 350.224 391.86C350.31 392.305 350.373 392.764 350.436 393.216C350.436 393.579 350.421 393.935 350.391 394.294C350.336 394.976 349.972 395.313 349.62 395.803C348.957 396.703 347.393 396.229 346.704 395.81C345.599 395.136 344.699 393.857 344.31 392.505C344.021 391.486 344.061 390.519 344.45 389.533Z" fill="#203450"/>
<path opacity="0.4" d="M343.945 371.669C343.956 371.635 343.964 371.606 343.964 371.576C344.097 371.046 344.364 370.809 344.857 370.757L344.942 370.753C346.132 370.65 347.781 373.11 346.621 374.185C345.465 375.267 343.615 372.98 343.945 371.669Z" fill="#203450"/>
<path opacity="0.4" d="M360.759 363.854C360.792 363.824 360.829 363.817 360.87 363.794C361.007 363.55 361.162 363.335 361.337 363.135C361.503 362.887 361.7 362.709 361.97 362.609C362.019 362.597 362.067 362.594 362.122 362.579C362.111 362.549 362.089 362.534 362.085 362.512C361.596 361.541 361.307 360.504 361.2 359.388C361.055 357.954 361.459 356.683 362.423 355.572C362.756 355.261 363.123 355.042 363.531 354.927C364.513 354.627 365.158 354.738 366.143 354.997C367.118 355.331 368.004 355.865 368.771 356.606C370.035 357.784 371.032 359.374 371.532 361.134C371.914 362.512 372.025 364.154 371.384 365.495C371.124 365.832 370.876 366.177 370.62 366.514C369.972 367.096 369.231 367.366 368.393 367.333C367.555 367.415 366.251 366.896 365.562 366.455C365.465 366.377 365.354 366.296 365.232 366.218C365.228 366.555 365.146 366.874 365.032 367.207C364.92 367.526 364.717 367.807 364.491 368.041C364.161 368.385 363.734 368.463 363.308 368.508C363.001 368.541 362.689 368.452 362.4 368.308C362.337 368.319 362.282 368.326 362.211 368.326C361.8 368.315 361.396 368.085 361.103 367.8C360.495 367.252 360.21 366.496 360.254 365.632C360.254 365.466 360.284 365.299 360.317 365.139C360.284 364.643 360.41 364.143 360.759 363.854Z" fill="#165766"/>
<g opacity="0.4">
<path d="M367.199 406.919C367.358 406.115 367.766 405.433 368.496 405.166C369.193 404.918 369.789 405.107 370.401 405.374C370.353 405.378 370.26 405.374 370.115 405.363C370.234 405.374 370.353 405.392 370.464 405.404C370.571 405.459 370.69 405.511 370.801 405.563C370.668 405.5 370.564 405.452 370.482 405.411C370.512 405.411 370.545 405.418 370.571 405.418C371.268 405.526 371.854 405.67 372.469 406.063C372.936 406.36 373.351 406.756 373.703 407.216C374.392 407.027 375.063 407.364 375.667 407.664C376.527 408.105 377.198 409.12 377.665 410.017C378.209 411.025 378.584 412.689 377.976 413.797C377.024 415.568 374.974 414.289 374.14 413.155C374.018 412.996 373.903 412.822 373.81 412.637C373.614 412.433 373.436 412.214 373.295 411.97C373.117 411.981 372.951 411.981 372.78 411.966C371.702 413.115 370.064 412.411 368.992 411.477C367.825 410.458 366.869 408.657 367.199 406.919Z" fill="#165766"/>
<path d="M370.434 405.374C370.13 405.199 370.568 405.333 370.434 405.374V405.374Z" fill="#203450"/>
<path d="M370.402 405.374H370.436C370.443 405.377 370.469 405.392 370.488 405.411C370.488 405.404 370.473 405.404 370.466 405.404C370.44 405.396 370.432 405.385 370.402 405.374Z" fill="#203450"/>
</g>
<path opacity="0.4" d="M356.439 401.365C357.721 401.491 358.977 404.596 357.299 404.437C356.005 404.307 354.764 401.202 356.439 401.365Z" fill="#203450"/>
<g opacity="0.4">
<path d="M383.546 410.754L383.531 410.721L383.546 410.743V410.754Z" fill="#203450"/>
<path d="M383.432 410.217C383.461 410.421 383.495 410.584 383.543 410.743V410.751C383.55 410.78 383.55 410.803 383.565 410.828C383.676 411.236 383.876 411.577 384.125 411.881C384.125 411.881 384.125 411.881 384.125 411.885C384.306 412.107 384.514 412.311 384.758 412.463C385.162 412.729 385.896 412.937 386.289 412.492C386.7 412.036 386.741 411.432 386.559 410.843C386.319 409.969 385.689 409.205 384.907 408.935C384.673 408.853 384.321 408.79 384.08 408.913C383.847 409.002 383.676 409.161 383.565 409.402C383.45 409.654 383.409 409.928 383.432 410.217Z" fill="#203450"/>
</g>
<path opacity="0.4" d="M324.103 351.499C324.196 351.236 324.277 350.962 324.355 350.692C324.607 350.195 324.981 349.847 325.46 349.673C325.99 349.502 326.523 349.517 327.042 349.695C327.635 349.906 328.184 350.24 328.673 350.706C328.965 351.025 329.258 351.351 329.533 351.696C330.366 352.693 330.922 354.334 330.711 355.724C330.515 356.947 329.629 357.762 328.528 357.743C327.224 357.71 326.038 356.769 325.23 355.69C324.785 355.072 324.44 354.393 324.211 353.638C324.018 352.993 323.973 352.333 324.066 351.659C324.077 351.603 324.096 351.555 324.103 351.499Z" fill="#165766"/>
<path opacity="0.4" d="M337.391 322.597C337.684 322.211 337.81 321.956 338.243 321.8C339.396 321.381 340.637 322.356 341.316 323.282C341.701 323.812 341.934 324.375 342.083 325.001C342.201 325.224 342.279 325.361 342.083 325.031V325.042C342.249 325.294 342.368 325.557 342.464 325.857C342.605 326.369 342.646 327.225 342.19 327.584C341.412 328.17 340.596 327.921 339.852 327.466C339.188 327.247 338.603 326.636 338.165 326.065C337.854 325.643 337.539 325.009 337.387 324.472C337.332 324.301 337.302 324.131 337.28 323.953C337.161 323.479 337.142 322.96 337.391 322.597Z" fill="#203450"/>
<g opacity="0.4">
<path d="M328.836 314.63C328.791 314.971 328.825 315.315 328.917 315.638C329.04 316.249 329.47 316.768 329.848 317.168C330.059 317.394 330.315 317.52 330.567 317.598C330.607 317.631 330.667 317.642 330.715 317.653C330.689 317.653 330.681 317.653 330.681 317.653C330.689 317.657 330.715 317.665 330.719 317.668C330.741 317.668 330.744 317.668 330.744 317.668C331.126 317.82 331.575 317.861 331.927 317.52C332.386 317.105 332.357 316.379 332.208 315.819C332.09 315.352 331.897 315.037 331.653 314.648C331.219 313.97 330.318 313.403 329.566 313.652C329.551 313.652 329.551 313.655 329.551 313.652C329.158 313.792 328.906 314.192 328.836 314.63Z" fill="#203450"/>
<path d="M330.727 317.672C330.727 317.672 330.726 317.672 330.749 317.672L330.753 317.687C330.749 317.676 330.745 317.672 330.727 317.672Z" fill="#203450"/>
</g>
</g>
<g opacity="0.7">
<path opacity="0.4" d="M423.931 310.758C425.11 308.571 427.074 307.171 429.283 306.741C430.291 306.541 431.677 306.548 432.574 307.189C433.953 308.182 433.434 310.291 432.763 311.795C432.763 313.188 432.311 314.73 431.533 315.664C430.521 316.879 429.061 317.442 427.612 317.087C426.7 316.853 425.499 316.509 424.743 315.838C424.102 315.267 423.668 314.9 423.416 313.989C423.123 312.929 423.446 311.662 423.931 310.758Z" fill="#165766"/>
<path opacity="0.4" d="M406.99 310.28C407.061 310.42 407.142 310.561 407.22 310.698C407.231 310.735 407.254 310.795 407.257 310.839C407.272 310.976 407.276 311.113 407.313 311.239C407.598 311.947 408.232 312.062 408.862 311.825C409.466 311.602 410.003 311.11 410.292 310.487C410.292 310.487 410.311 310.487 410.318 310.487C410.322 310.446 410.348 310.406 410.363 310.376C410.37 310.357 410.381 310.342 410.381 310.331C410.515 310.005 410.619 309.694 410.596 309.324C410.585 309.09 410.552 308.831 410.481 308.605C410.481 308.582 410.467 308.568 410.459 308.545C410.433 308.342 410.404 308.134 410.378 307.934C410.341 307.66 410.14 307.523 409.918 307.474C409.855 307.404 409.792 307.341 409.714 307.285C409.462 307.16 409.218 307.115 408.977 307.156C408.143 307.23 407.454 307.878 407.02 308.649C406.876 308.931 406.812 309.223 406.779 309.542C406.764 309.813 406.842 310.072 406.99 310.28Z" fill="#203450"/>
<path opacity="0.4" d="M401.758 331.038C402.017 331.312 402.314 331.549 402.595 331.72C404.122 332.613 406.413 330.771 406.765 329.063C407.38 326.247 407.754 319.751 404.096 319.38C401.269 319.099 398.189 322.037 397.255 324.842C396.31 327.751 399.012 331.757 401.758 331.038Z" fill="#203450"/>
<path opacity="0.4" d="M410.958 296.866C410.866 297.825 412.004 297.444 412.371 297.129C412.43 297.084 412.478 297.055 412.511 297.014C414.312 295.484 411.192 294.335 410.981 296.725C410.977 296.766 410.958 296.814 410.958 296.866Z" fill="#203450"/>
<path opacity="0.4" d="M383.813 311.658C384.832 309.438 387.26 306.896 389.617 306.752C391.362 306.637 393.034 307.615 393.3 309.72C393.345 310.028 393.378 310.328 393.378 310.617C394.16 313.366 393.345 317.461 391.929 319.784C390.78 321.633 388.861 323.241 386.796 322.467C385.218 321.867 384.269 319.721 383.724 318.091C383.038 315.986 382.857 313.755 383.813 311.658Z" fill="#203450"/>
<path opacity="0.4" d="M378.944 290.741C379.026 291.03 379.215 291.115 379.452 291.196C379.507 291.23 379.57 291.248 379.648 291.263C379.889 291.359 380.267 291.196 380.482 291.055C380.779 290.874 381.038 290.596 381.208 290.27C381.338 290.011 381.42 289.688 381.338 289.403C381.234 289.014 380.882 288.88 380.553 288.921C380.471 288.925 380.408 288.936 380.338 288.951C379.819 288.999 379.333 289.418 379.077 289.918C378.955 290.151 378.874 290.463 378.944 290.741Z" fill="#203450"/>
<path opacity="0.4" d="M361.123 316.746C361.508 317.372 362.127 318.265 362.772 318.543C364.24 319.18 365.844 317.806 366.352 316.271C366.682 315.264 366.845 314.252 366.852 313.214C367.015 312.681 367.056 312.118 366.882 311.588C365.548 307.504 360.578 310.48 360.226 313.907C360.118 314.952 360.611 315.931 361.123 316.746Z" fill="#203450"/>
<path opacity="0.4" d="M377.571 324.75C377.856 324.483 378.36 324.175 378.749 324.298C379.042 324.398 379.342 324.468 379.539 324.768C379.813 325.165 379.72 325.695 379.502 326.121C379.246 326.651 378.764 327.077 378.245 327.269C377.864 327.418 377.348 327.444 377.059 327.047C376.87 326.784 376.87 326.443 376.945 326.121C376.945 326.069 376.945 326.017 376.945 325.965C376.908 325.517 377.293 325.009 377.571 324.75Z" fill="#203450"/>
<path opacity="0.4" d="M429.035 335.351C429.035 335.377 429.057 335.395 429.057 335.425C429.183 335.848 429.409 336.174 429.761 336.381C430.128 336.585 430.539 336.655 430.954 336.603C431.462 336.607 432.077 336.251 432.507 336.025C432.945 335.803 433.486 335.255 433.804 334.851C434.131 334.436 434.353 333.961 434.512 333.443C434.672 332.95 434.653 332.627 434.56 332.131C434.535 331.931 434.397 331.76 434.32 331.59C434.271 331.497 434.205 331.431 434.131 331.36C433.753 330.912 433.056 330.804 432.559 330.867C432 330.934 431.559 331.175 431.058 331.442C430.365 331.805 429.728 332.568 429.357 333.298C429.075 333.869 428.816 334.699 429.035 335.351Z" fill="#203450"/>
<path opacity="0.4" d="M395.395 334.666C395.414 334.402 395.492 334.136 395.61 333.902C395.962 333.202 396.592 332.713 397.3 332.598C397.307 332.598 397.333 332.587 397.333 332.587C397.622 332.542 398.075 332.624 398.234 332.92C398.43 333.28 398.464 333.587 398.356 334.006C398.186 334.621 397.741 335.095 397.274 335.414C396.974 335.618 396.522 335.781 396.173 335.688C396.129 335.677 396.088 335.659 396.059 335.647C395.962 335.618 395.884 335.592 395.799 335.529C395.529 335.31 395.384 335.069 395.395 334.666Z" fill="#203450"/>
<path opacity="0.4" d="M426.159 283.993C427.504 284.426 428.831 285.394 429.15 287.039C429.339 288.032 429.368 289.225 429.009 290.181C428.927 290.411 428.831 290.611 428.738 290.815C428.783 291.37 428.801 291.941 428.72 292.486C428.657 292.868 428.62 293.275 428.486 293.646C428.208 294.357 428.216 294.398 427.775 295.035C428.471 294.031 427.767 295.12 427.519 295.428C426.318 296.984 424.31 297.914 422.564 297.207C421.678 296.844 420.893 296.043 420.281 295.258C419.221 293.898 418.095 292.082 418.176 290.17C418.321 286.079 422.746 282.881 426.159 283.993Z" fill="#165766"/>
<path opacity="0.4" d="M409.847 282.725C410.069 283.04 410.44 282.985 410.755 282.9C410.84 282.87 410.907 282.859 410.985 282.84C411.426 282.703 411.856 282.262 412.082 281.829C412.267 281.473 412.352 280.98 412.111 280.643C411.54 279.854 410.284 280.758 409.98 281.454C409.943 281.536 409.917 281.614 409.88 281.695C409.739 282.018 409.617 282.418 409.847 282.725Z" fill="#203450"/>
<path opacity="0.4" d="M411.352 265.398C411.812 263.931 413.491 262.36 414.943 262.723C415.284 262.808 415.577 262.949 415.807 263.157C416.003 263.201 416.211 263.275 416.396 263.401C417.204 263.924 417.186 265.15 416.711 265.965C416.533 266.254 416.381 266.555 416.159 266.807C416.055 266.907 416 266.996 415.922 267.07C415.77 267.277 415.603 267.477 415.425 267.637C415.266 267.789 415.088 267.926 414.903 268.041C414.143 268.763 413.242 269.33 412.23 269.145C411.1 268.948 410.863 267.848 411.089 266.755V266.751C411.089 266.699 411.096 266.644 411.096 266.588C411.1 266.147 411.189 265.784 411.352 265.398Z" fill="#203450"/>
<path opacity="0.4" d="M392.52 271.301C392.535 271.275 392.535 271.253 392.535 271.231C392.564 271.424 392.668 271.568 392.838 271.653C392.809 271.642 392.798 271.642 392.768 271.639C393.217 271.998 393.906 271.639 394.284 271.294C394.684 270.927 395.196 270.079 394.78 269.515C394.358 268.945 393.539 269.337 393.12 269.712C392.75 270.06 392.308 270.746 392.52 271.301Z" fill="#203450"/>
<path opacity="0.4" d="M396.157 256.598V256.85C396.131 257.958 396.713 258.766 397.688 258.962L397.999 259.018C399.722 259.359 401.572 258.073 402.661 256.642C403.588 255.409 404.388 253.374 403.38 251.937C403.376 251.922 403.354 251.907 403.347 251.899C402.594 250.832 401.179 250.899 400.134 251.288C398.777 251.788 397.402 252.963 396.739 254.408C396.424 255.123 396.176 255.787 396.157 256.598Z" fill="#203450"/>
<path opacity="0.4" d="M392.236 292.504C394.196 294.668 396.609 293.59 399.022 293.742C400.719 293.853 402.261 292.982 403.361 291.53C404.288 290.311 404.859 288.547 404.08 287.291C404.08 287.205 404.08 287.146 404.08 287.139C404.088 286.924 404.088 286.709 404.103 286.501C404.132 286.186 404.073 285.92 403.962 285.716C404.051 285.267 404.08 284.804 404.017 284.367C403.736 282.136 401.201 281.251 399.507 280.936C396.568 280.409 393.236 282.266 391.806 285.256C390.702 287.561 390.487 290.559 392.236 292.504ZM398.844 285.797C398.762 285.708 398.699 285.649 398.718 285.708C398.492 285.101 398.836 285.252 398.844 285.797Z" fill="#203450"/>
<path opacity="0.4" d="M371.587 276.467C371.617 276.493 371.617 276.511 371.628 276.548C371.647 276.574 371.654 276.596 371.665 276.611C371.798 276.9 371.917 277.182 372.054 277.464C372.458 277.979 372.966 278.279 373.577 278.375C375.056 278.646 376.605 277.834 377.743 276.785C378.873 275.744 379.889 274.18 379.941 272.494C379.993 271.802 379.818 271.198 379.451 270.649C379.055 270.138 378.551 269.841 377.939 269.734C376.416 269.289 374.834 270.293 373.64 271.279C372.74 272.02 371.995 273.232 371.665 274.414C371.454 275.092 371.446 275.778 371.587 276.467Z" fill="#203450"/>
<g opacity="0.4">
<path d="M384.628 259.418C384.717 259.748 384.913 259.94 385.169 260.063C386.073 260.455 386.989 259.796 387.6 259.058C387.978 258.61 388.271 257.854 388.097 257.243C387.956 256.683 387.378 256.368 386.87 256.494C386.485 256.579 386.314 256.609 385.951 256.828C385.491 257.12 385.143 257.528 384.854 258.028C384.854 258.039 384.854 258.047 384.839 258.062C384.646 258.477 384.505 258.958 384.628 259.418Z" fill="#203450"/>
<path d="M385.169 260.066C385.139 260.055 385.12 260.048 385.105 260.037C385.117 260.048 385.146 260.063 385.169 260.066Z" fill="#203450"/>
<path d="M385.451 260.17C385.365 260.133 385.261 260.103 385.168 260.066C385.253 260.103 385.347 260.133 385.451 260.167V260.17Z" fill="#203450"/>
</g>
<path opacity="0.4" d="M353.777 314.926C355.9 315.186 356.63 317.865 355.982 319.903C355.507 321.415 354.207 322.697 352.754 322.875C352.472 322.915 352.176 322.871 351.92 322.771C351.453 323.019 350.968 323.186 350.452 323.245C349.026 323.419 348.158 322.552 348.044 321.022C347.81 317.794 350.956 314.585 353.777 314.926Z" fill="#203450"/>
<path opacity="0.4" d="M353.564 278.898C354.765 279.016 356.481 276.378 354.913 276.233C353.698 276.115 351.997 278.749 353.564 278.898Z" fill="#203450"/>
<path opacity="0.4" d="M355.439 266.662C355.635 267.814 356.903 268.244 357.803 268.111C358.159 268.059 358.496 267.963 358.822 267.84C358.874 268.111 358.959 268.359 359.122 268.578C359.334 268.859 359.604 269.037 359.893 269.137C360.494 269.445 361.305 269.385 361.913 269.163C362.462 268.948 362.958 268.63 363.425 268.215C363.648 267.974 363.848 267.733 364.066 267.507C364.43 267.036 364.689 266.514 364.863 265.939C364.871 265.88 364.904 265.821 364.919 265.758C365.226 264.924 365.03 263.59 364.218 263.22C364.048 263.157 363.929 263.101 363.788 263.056C363.929 262.59 363.951 262.104 363.818 261.637C363.155 259.373 360.731 260.318 359.193 261.156C359.082 261.185 358.989 261.211 358.904 261.256C358.785 261.311 358.67 261.367 358.555 261.422C358.285 261.526 358.014 261.656 357.77 261.815C356.128 262.671 355.116 264.735 355.439 266.662Z" fill="#203450"/>
<path opacity="0.4" d="M341.627 297.874C341.816 298.585 342.416 299.159 343.098 299.222C343.958 299.311 344.744 299.096 345.496 298.622C346.334 298.096 347.071 297.321 347.534 296.388C347.92 295.658 348.157 294.754 347.938 293.931C347.742 293.208 347.141 292.634 346.474 292.567C345.607 292.486 344.825 292.693 344.065 293.171C343.235 293.698 342.49 294.476 342.023 295.406C341.649 296.136 341.416 297.051 341.627 297.874Z" fill="#203450"/>
<path opacity="0.4" d="M333.944 308.964C334.014 308.82 334.1 308.69 334.181 308.571C334.214 308.46 334.252 308.368 334.296 308.286C334.507 307.864 334.859 307.545 335.278 307.386C335.73 307.204 336.316 307.212 336.731 307.501C337.213 307.816 337.302 308.397 337.142 308.972C337.142 308.987 337.142 309.009 337.142 309.02C336.82 310.161 335.612 311.225 334.53 311.039C333.614 310.876 333.533 309.739 333.944 308.964Z" fill="#203450"/>
<path opacity="0.4" d="M339.966 282.736C339.966 282.77 339.966 282.803 339.966 282.837C340.003 283.374 340.207 283.667 340.678 283.8L340.756 283.826C341.916 284.163 344.017 282.062 343.079 280.776C342.134 279.505 339.903 281.395 339.966 282.736Z" fill="#203450"/>
<path opacity="0.4" d="M354.972 293.638C355.001 293.668 355.027 293.69 355.061 293.723C355.157 293.979 355.268 294.227 355.394 294.457C355.502 294.728 355.668 294.939 355.92 295.091C355.958 295.109 356.009 295.128 356.058 295.15C356.028 295.172 356.017 295.194 356.009 295.206C355.339 296.058 354.849 297.029 354.534 298.096C354.127 299.478 354.279 300.801 355.009 302.083C355.283 302.457 355.609 302.735 355.98 302.932C356.873 303.417 357.544 303.439 358.541 303.369C359.571 303.224 360.531 302.869 361.442 302.287C362.899 301.368 364.178 300.012 365.008 298.374C365.649 297.095 366.075 295.502 365.701 294.064C365.523 293.679 365.349 293.297 365.16 292.919C364.63 292.223 363.94 291.822 363.121 291.693C362.332 291.452 360.946 291.708 360.186 292.011C360.068 292.056 359.93 292.119 359.816 292.178C359.886 291.841 359.853 291.526 359.808 291.174C359.752 290.841 359.612 290.529 359.43 290.255C359.171 289.847 358.767 289.688 358.366 289.562C358.066 289.469 357.748 289.503 357.436 289.588C357.377 289.562 357.321 289.551 357.258 289.536C356.84 289.466 356.406 289.61 356.054 289.84C355.379 290.274 354.935 290.944 354.805 291.8C354.771 291.963 354.772 292.134 354.772 292.3C354.657 292.767 354.675 293.286 354.972 293.638Z" fill="#165766"/>
<g opacity="0.4">
<path d="M369.566 252.611C369.566 253.437 369.822 254.178 370.5 254.59C371.112 254.953 371.757 254.886 372.394 254.738C372.342 254.719 372.253 254.708 372.113 254.697C372.224 254.712 372.342 254.723 372.465 254.723C372.591 254.697 372.713 254.664 372.824 254.638C372.679 254.678 372.576 254.708 372.498 254.734C372.528 254.734 372.542 254.734 372.576 254.734C373.265 254.767 373.888 254.738 374.559 254.464C375.066 254.267 375.548 253.96 376 253.574C376.63 253.889 377.36 253.689 378.005 253.508C378.935 253.252 379.81 252.37 380.425 251.592C381.144 250.699 381.815 249.135 381.448 247.931C380.851 246.015 378.594 246.871 377.56 247.827C377.401 247.964 377.268 248.109 377.134 248.264C376.904 248.438 376.701 248.62 376.497 248.824C376.323 248.776 376.171 248.742 375.985 248.727C375.166 247.397 373.41 247.771 372.187 248.479C370.86 249.261 369.566 250.836 369.566 252.611Z" fill="#165766"/>
<path d="M372.43 254.753C372.095 254.861 372.552 254.812 372.43 254.753V254.753Z" fill="#203450"/>
<path d="M372.398 254.738C372.417 254.749 372.417 254.753 372.428 254.753C372.45 254.749 372.473 254.734 372.506 254.73C372.488 254.723 372.473 254.719 372.473 254.719C372.447 254.73 372.417 254.734 372.398 254.738Z" fill="#203450"/>
</g>
<g opacity="0.4">
<path d="M387.175 249.257L387.152 249.283L387.175 249.261V249.257Z" fill="#203450"/>
<path d="M386.927 250.591C387.016 250.847 387.142 251.032 387.346 251.158C387.568 251.325 387.92 251.336 388.169 251.295C388.991 251.184 389.744 250.558 390.151 249.747C390.433 249.198 390.515 248.602 390.2 248.064C389.903 247.56 389.132 247.616 388.695 247.797C388.428 247.912 388.187 248.068 387.954 248.257C387.946 248.257 387.946 248.261 387.946 248.261C387.65 248.505 387.387 248.813 387.194 249.18C387.19 249.206 387.183 249.228 387.168 249.257C387.168 249.261 387.168 249.261 387.168 249.261C387.083 249.406 387.02 249.554 386.949 249.761C386.875 250.036 386.875 250.31 386.927 250.591Z" fill="#203450"/>
</g>
<path opacity="0.4" d="M324.269 328.296C324.306 328.129 324.384 327.966 324.477 327.814C324.714 327.31 325.148 326.747 325.548 326.391C326.078 325.913 326.771 325.424 327.464 325.335C328.264 325.039 329.139 324.953 329.773 325.672C330.169 326.117 329.954 326.94 329.713 327.418C329.587 327.692 329.395 327.929 329.191 328.144C329.45 327.866 329.347 327.985 329.183 328.181C328.913 328.763 328.572 329.274 328.098 329.715C327.26 330.493 325.852 331.208 324.807 330.586C324.403 330.334 324.306 330.063 324.106 329.633C323.936 329.241 324.065 328.737 324.269 328.296Z" fill="#203450"/>
</g>
<path d="M383.693 241.935C380.777 243.017 377.971 244.366 375.292 246.019C369.129 249.828 364.01 255.116 359.656 260.863C353.789 268.592 348.43 276.693 344.102 285.39C339.999 293.623 336.967 302.224 335.025 311.209C331.468 327.54 330.552 345.011 334.629 361.345C338.531 376.964 347.663 391.53 361.935 399.556C368.676 403.351 376.318 405.559 384.075 405.592C392.258 405.63 400.152 403.276 407.427 399.615C414.079 396.277 420.035 391.756 424.982 386.19C429.852 380.714 433.647 374.429 437.26 368.07C439.417 364.272 441.456 360.385 443.249 356.387C436.245 392.501 407.078 418.28 375.014 415.175C340.588 411.84 315.839 376.456 319.745 336.151C323.333 299.033 352.251 247.29 383.693 241.935Z" fill="#D6D2D9"/>
<path d="M427.231 350.395C433.309 331.646 436.889 300.186 416.754 265.417C416.754 265.417 445.761 303.291 436.077 345.367C436.077 345.367 435.347 348.435 433.353 352.8C431.308 351.985 429.273 351.188 427.231 350.395Z" fill="#929D75"/>
<path d="M315.832 306.696C317.911 309.542 319.449 312.788 321.503 315.638C326.061 321.974 331.075 328.129 336.946 333.306C340.036 336.04 343.502 338.593 347.378 340.105C347.378 340.105 355.057 340.846 349.876 348.331C344.28 356.402 325.372 375.937 314.005 367.652C308.694 363.78 304.218 358.644 299.945 353.697C295.116 348.116 290.598 342.295 286.095 336.451C281.755 330.864 277.979 324.894 276.389 317.909C275.751 315.041 276.756 310.632 277.997 308.027C281.562 300.512 291.224 296.64 299.151 297.277C301.327 297.444 303.821 297.899 305.852 298.755C309.306 300.208 312.515 302.616 314.887 305.485C315.225 305.881 315.54 306.285 315.832 306.696Z" fill="#77B5E4"/>
<path d="M299.948 353.69C295.119 348.113 290.602 342.284 286.099 336.452C281.759 330.856 277.983 324.887 276.393 317.905C275.755 315.03 276.76 310.624 278.001 308.019C278.442 307.093 278.972 306.215 279.587 305.403C278.42 307.619 277.782 310.072 278.094 312.759C279.039 321.011 284.961 327.859 289.831 334.176C295.231 341.165 301.182 348.665 309.039 353C312.438 354.875 316.251 356.22 320.183 355.957C325.268 355.624 329.789 352.923 333.547 349.621C337.417 346.223 340.259 342.125 337.309 337.219C335.897 334.869 333.696 333.005 331.794 331.071C329.071 328.277 326.35 325.476 323.782 322.523C319.116 317.127 315.877 311.11 311.993 305.192C310.714 303.235 309.325 301.346 307.75 299.667C310.459 301.131 312.953 303.146 314.887 305.477C315.225 305.87 315.543 306.274 315.836 306.693C317.915 309.524 319.453 312.773 321.506 315.623C326.065 321.967 331.079 328.118 336.95 333.298C340.04 336.04 343.506 338.59 347.382 340.094C347.382 340.094 355.061 340.846 349.88 348.331C344.284 356.391 325.376 375.93 314.009 367.645C308.698 363.78 304.221 358.633 299.948 353.69Z" fill="#77B5E4"/>
<path d="M285.679 336.748C283.237 333.58 280.461 329.652 278.378 325.12C277.948 323.304 277.622 321.463 277.355 319.61C279.242 326.15 282.966 331.597 286.461 336.122C291.012 342.021 295.482 347.75 300.303 353.33C304.335 358.003 308.898 363.276 314.242 367.17C321.846 372.717 332.731 364.839 338.587 359.685C343.49 355.364 347.418 350.836 349.386 347.972C350.976 345.712 351.51 343.966 350.913 342.681C350.09 340.883 347.37 340.587 347.333 340.587L347.196 340.557C343.805 339.238 340.436 337.041 336.611 333.665C331.453 329.111 326.527 323.471 321.087 315.916C320.079 314.496 319.16 312.97 318.292 311.495C317.403 309.976 316.476 308.408 315.431 306.982C315.139 306.574 314.835 306.178 314.512 305.788C313.282 304.332 311.855 303.006 310.291 301.857C309.194 300.719 307.952 299.711 306.559 298.93C305.684 298.44 304.736 297.959 303.765 297.521C304.599 297.736 305.358 297.988 306.055 298.285C309.539 299.76 312.8 302.194 315.265 305.151C315.624 305.555 315.943 305.963 316.239 306.381C317.314 307.852 318.259 309.442 319.163 310.976C320.023 312.436 320.916 313.941 321.898 315.319C327.294 322.819 332.168 328.396 337.278 332.905C340.988 336.185 344.22 338.301 347.492 339.579C348 339.642 350.809 340.068 351.81 342.21C352.562 343.844 352.014 345.953 350.224 348.535C348.204 351.444 344.22 356.05 339.254 360.434C333.176 365.781 321.824 373.929 313.66 367.971C308.216 364.009 303.661 358.729 299.584 354.012C294.737 348.42 290.253 342.658 285.679 336.748Z" fill="#1A1718"/>
<path d="M347.026 348.354C347.026 348.354 344.547 340.776 351.358 340.609C358.181 340.431 359.849 344.541 357.114 346.99C354.386 349.476 350.02 355.446 347.026 348.354Z" fill="#C1C7B8"/>
<path d="M346.533 348.509C346.489 348.354 345.266 344.533 347.004 342.062C347.886 340.809 349.354 340.153 351.351 340.098C355.146 339.998 357.841 341.213 358.641 343.303C359.186 344.689 358.734 346.212 357.455 347.361C357.088 347.701 356.684 348.102 356.262 348.532C354.624 350.169 352.571 352.207 350.521 352.207C348.89 352.211 347.593 351.018 346.533 348.509ZM351.381 341.102C349.71 341.139 348.52 341.658 347.831 342.629C346.389 344.689 347.486 348.161 347.486 348.161C348.342 350.21 349.343 351.211 350.521 351.211C352.159 351.211 354.046 349.328 355.547 347.824C355.984 347.39 356.395 346.971 356.788 346.623C357.741 345.76 358.089 344.648 357.718 343.655C357.099 342.051 354.872 341.098 351.781 341.098C351.652 341.098 351.518 341.098 351.381 341.102Z" fill="#1A1718"/>
<path d="M346.637 346.341C349.49 345.889 353.063 347.171 353.934 350.021C351.61 351.992 349.016 353.056 347.026 348.346C347.026 348.346 346.733 347.483 346.637 346.341Z" fill="#C1C7B8"/>
<path d="M339.452 355.183C339.452 355.183 336.966 347.605 343.807 347.431C350.63 347.253 352.275 351.381 349.563 353.83C346.809 356.306 342.454 362.279 339.452 355.183Z" fill="#C1C7B8"/>
<path d="M338.966 355.338C338.932 355.179 337.694 351.355 339.455 348.894C340.326 347.642 341.786 346.986 343.783 346.934C343.939 346.931 344.087 346.923 344.221 346.923C347.745 346.923 350.313 348.131 351.084 350.128C351.625 351.529 351.184 353.048 349.898 354.204C349.52 354.538 349.116 354.949 348.683 355.375C346.945 357.095 345.006 359.044 342.968 359.044H342.957C341.33 359.044 340.037 357.84 338.966 355.338ZM343.813 347.927C342.134 347.968 340.956 348.491 340.251 349.461C338.802 351.511 339.911 354.994 339.911 354.994C340.781 357.043 341.786 358.036 342.953 358.036C344.591 358.036 346.474 356.168 347.971 354.664C348.408 354.219 348.824 353.808 349.227 353.452C350.173 352.585 350.521 351.481 350.154 350.492C349.531 348.88 347.315 347.924 344.217 347.924C344.084 347.927 343.946 347.927 343.813 347.927Z" fill="#1A1718"/>
<path d="M339.082 353.378C341.724 353.319 344.719 354.935 345.694 357.388C343.555 358.966 341.261 359.441 339.453 355.179C339.453 355.179 339.212 354.416 339.082 353.378Z" fill="#C1C7B8"/>
<path d="M332.576 362.153C332.576 362.153 330.382 355.464 336.416 355.309C342.434 355.153 343.895 358.784 341.501 360.952C339.073 363.138 335.23 368.404 332.576 362.153Z" fill="#C1C7B8"/>
<path d="M332.104 362.308C332.056 362.164 330.966 358.766 332.519 356.565C333.316 355.442 334.616 354.849 336.395 354.805L336.784 354.801C339.912 354.801 342.199 355.879 342.892 357.669C343.378 358.922 342.981 360.285 341.825 361.326C341.499 361.627 341.147 361.982 340.757 362.36C339.227 363.879 337.492 365.61 335.669 365.617C334.224 365.617 333.03 364.513 332.104 362.308ZM336.418 355.805C334.972 355.842 333.931 356.294 333.345 357.136C332.078 358.914 333.034 361.96 333.034 361.96C333.786 363.746 334.653 364.613 335.669 364.613C337.081 364.613 338.734 362.968 340.057 361.649C340.454 361.263 340.828 360.889 341.161 360.578C341.988 359.829 342.292 358.881 341.966 358.025C341.421 356.639 339.486 355.802 336.784 355.802L336.418 355.805Z" fill="#1A1718"/>
<path d="M332.301 360.897C334.417 360.608 336.352 362.497 337.738 364.358C335.944 365.532 334.069 365.669 332.579 362.138C332.579 362.138 332.412 361.63 332.301 360.897Z" fill="#C1C7B8"/>
<path d="M321.47 334.676C321.122 334.732 320.77 334.769 320.418 334.81C320.863 334.55 321.27 334.254 321.667 333.909C324.513 331.43 326.292 328.177 326.707 324.531C328.579 329.011 325.614 332.612 321.47 334.676Z" fill="#2A4790"/>
<path d="M327.262 326.906C327.262 326.906 326.236 334.458 314.766 336.829C314.766 336.829 317.63 341.658 324.475 337.204C331.306 332.746 327.262 326.906 327.262 326.906Z" fill="#77B5E4"/>
<path d="M264.647 402.313C263.116 402.728 261.589 403.176 260.092 403.588C245.753 407.549 227.316 406.93 215.697 396.877C206.188 388.643 197.605 374.077 201.233 361.152C202.975 354.909 208.663 346.038 214.211 342.484C219.756 338.93 228.346 334.984 234.999 334.48C248.611 333.465 261.552 340.346 272.885 347.064C279.753 351.14 286.242 356.105 293.239 359.911C299.932 363.535 307.311 366.685 314.786 368.259C318.837 369.112 323.11 369.631 327.223 369.034C327.223 369.034 334.269 365.895 333.435 374.966C332.597 384.23 329.621 396.099 323.618 403.354C316.88 411.488 307.229 409.265 298.402 406.545C287.509 403.184 276.091 399.163 264.647 402.313Z" fill="#77B5E4"/>
<path d="M201.233 361.137C202.489 356.643 205.788 350.799 209.605 346.538C208.511 348.995 207.855 351.644 207.763 354.471C207.514 361.871 210.572 369.108 215.52 374.559C219.359 378.783 224.336 382.574 229.814 384.345C236.403 386.476 242.285 384.931 248.696 382.981C256.497 380.61 263.832 379.524 271.952 380.988C279.508 382.348 286.665 384.931 293.869 387.454C299.78 389.522 307.063 392.894 313.396 390.596C317.977 388.929 320.901 384.797 322.161 380.21C323.251 376.319 323.758 371.991 320.167 369.253C320.082 369.19 319.993 369.13 319.908 369.067C322.35 369.323 324.811 369.364 327.22 369.012C327.22 369.012 334.265 365.884 333.431 374.952C332.594 384.219 329.618 396.088 323.614 403.336C316.876 411.473 307.226 409.25 298.398 406.526C287.506 403.165 276.087 399.145 264.643 402.298C263.113 402.713 261.586 403.158 260.088 403.573C245.75 407.534 227.312 406.919 215.694 396.862C206.188 388.636 197.605 374.07 201.233 361.137Z" fill="#77B5E4"/>
<path d="M201.233 361.137C202.141 357.899 204.116 353.967 206.566 350.425C204.353 358.521 204.464 367.025 207.889 375.178C212.688 386.616 223.132 395.106 235.102 398.089C238.201 398.863 241.621 399.567 244.831 399.326C247.881 399.085 250.768 398.259 253.662 397.281C257.672 395.936 261.623 394.569 265.903 394.546C269.969 394.528 273.975 395.124 277.922 396.006C287.513 398.152 296.993 403.336 306.989 403.125C311.351 403.032 315.375 401.731 318.221 398.289C321.738 394.042 321.412 387.902 322.55 382.803C323.432 378.779 325.834 375.326 326.757 371.335C326.942 370.512 327.023 369.734 326.96 369.034C327.057 369.026 327.138 369.026 327.223 369.008C327.223 369.008 334.269 365.88 333.435 374.948C332.597 384.215 329.621 396.084 323.618 403.332C316.88 411.469 307.229 409.246 298.402 406.522C287.509 403.162 276.091 399.141 264.647 402.294C263.116 402.71 261.589 403.154 260.092 403.569C245.753 407.53 227.316 406.915 215.697 396.858C206.188 388.636 197.605 374.07 201.233 361.137Z" fill="#77B5E4"/>
<path d="M215.367 397.248C213.807 395.888 212.276 394.357 210.809 392.694C211.728 393.298 212.699 393.824 213.699 394.306C214.459 395.073 215.248 395.803 216.038 396.481C228.157 406.982 247.276 406.604 259.969 403.099C260.673 402.899 261.396 402.695 262.13 402.495C262.912 402.261 263.72 402.039 264.528 401.817C275.368 398.834 286.097 402.165 296.441 405.404L298.579 406.059C307.514 408.816 316.813 410.865 323.298 403.039C326.159 399.556 328.579 394.817 330.358 388.933C332.03 383.359 332.712 378.231 333.004 374.922C333.242 372.173 332.738 370.353 331.581 369.523C329.973 368.371 327.46 369.46 327.431 369.475L327.297 369.512C323.702 370.038 319.689 369.794 314.689 368.734C307.955 367.311 300.669 364.487 293.001 360.33C288.999 358.158 285.115 355.568 281.361 353.071C278.522 351.181 275.579 349.232 272.637 347.475C261.526 340.891 248.558 333.954 235.039 334.966C233.96 335.04 232.782 335.232 231.592 335.488C228.839 335.721 226.092 336.274 223.391 337.107C227.223 335.492 231.31 334.239 234.968 333.965C248.762 332.928 261.908 339.953 273.144 346.619C276.117 348.372 279.067 350.343 281.905 352.229C285.663 354.723 289.536 357.302 293.498 359.452C301.066 363.561 308.266 366.351 314.897 367.752C319.759 368.782 323.635 369.027 327.108 368.53C327.582 368.341 330.258 367.329 332.189 368.704C333.66 369.76 334.279 371.887 334.001 375.007C333.694 378.368 333.03 383.571 331.307 389.218C329.502 395.236 327.03 400.086 324.065 403.666C317.194 411.973 307.522 409.865 298.264 407.004L296.14 406.341C285.923 403.162 275.357 399.871 264.784 402.784C263.987 402.991 263.182 403.221 262.397 403.451C261.678 403.651 260.955 403.855 260.236 404.058C252.613 406.167 244.311 406.849 236.829 405.978C228.227 404.97 220.811 401.95 215.367 397.248Z" fill="#1A1718"/>
<path d="M329.963 374.381C329.963 374.381 324.074 369.008 329.918 365.495C335.774 361.975 339.235 364.743 338.086 368.215C336.919 371.728 336.074 379.076 329.963 374.381Z" fill="#C1C7B8"/>
<path d="M329.626 374.752C329.507 374.64 326.557 371.909 326.857 368.904C326.994 367.389 327.947 366.092 329.67 365.065C333.291 362.886 336.73 362.886 338.176 364.869C338.861 365.821 338.998 367.063 338.565 368.374C338.402 368.86 338.253 369.404 338.087 369.983C337.305 372.843 336.315 376.404 333.413 376.404C332.309 376.404 331.09 375.871 329.626 374.752ZM330.171 365.921C328.751 366.774 327.973 367.811 327.851 369.008C327.598 371.502 330.278 373.977 330.278 373.977C331.49 374.918 332.539 375.396 333.41 375.396C335.541 375.396 336.415 372.247 337.138 369.716C337.294 369.112 337.449 368.548 337.616 368.056C337.942 367.059 337.853 366.136 337.357 365.451C336.845 364.743 335.963 364.369 334.825 364.369C333.469 364.369 331.875 364.902 330.171 365.921Z" fill="#1A1718"/>
<path d="M328.645 372.821C330.913 371.013 334.652 370.368 336.809 372.428C335.768 375.285 334.018 377.49 329.964 374.374C329.964 374.374 329.308 373.751 328.645 372.821Z" fill="#C1C7B8"/>
<path d="M326.754 384.049C326.754 384.049 320.857 378.676 326.713 375.166C332.557 371.643 336.034 374.422 334.881 377.89C333.703 381.403 332.865 388.747 326.754 384.049Z" fill="#C1C7B8"/>
<path d="M326.41 384.423C326.292 384.308 323.346 381.581 323.642 378.579C323.805 377.056 324.739 375.767 326.455 374.74C330.057 372.562 333.53 372.562 334.964 374.548C335.631 375.485 335.776 376.76 335.361 378.049C335.19 378.531 335.038 379.079 334.879 379.665C334.074 382.526 333.078 386.076 330.198 386.076C329.105 386.072 327.878 385.538 326.41 384.423ZM326.959 375.596C325.539 376.449 324.746 377.486 324.635 378.672C324.387 381.173 327.063 383.656 327.063 383.656C328.271 384.597 329.335 385.071 330.198 385.071C332.325 385.071 333.207 381.929 333.915 379.398C334.075 378.794 334.238 378.231 334.393 377.734C334.723 376.738 334.642 375.815 334.152 375.126C333.645 374.425 332.74 374.04 331.606 374.04C330.257 374.036 328.66 374.574 326.959 375.596Z" fill="#1A1718"/>
<path d="M325.547 382.659C327.819 381.31 331.217 381.229 333.266 382.892C332.192 385.32 330.428 386.868 326.755 384.045C326.755 384.045 326.177 383.504 325.547 382.659Z" fill="#C1C7B8"/>
<path d="M324.204 393.501C324.204 393.501 318.997 388.758 324.155 385.657C329.318 382.555 332.394 385.001 331.386 388.058C330.333 391.163 329.585 397.644 324.204 393.501Z" fill="#C1C7B8"/>
<path d="M323.867 393.872C323.752 393.772 321.121 391.341 321.395 388.662C321.521 387.302 322.385 386.146 323.9 385.223C327.128 383.289 330.204 383.289 331.49 385.068C332.098 385.916 332.239 387.065 331.842 388.221C331.701 388.64 331.575 389.133 331.427 389.655C330.723 392.186 329.845 395.336 327.251 395.336C326.257 395.336 325.171 394.872 323.867 393.872ZM324.423 386.087C323.174 386.835 322.488 387.736 322.392 388.762C322.17 390.941 324.512 393.109 324.512 393.109C325.579 393.927 326.495 394.339 327.254 394.339C329.078 394.339 329.848 391.589 330.471 389.381C330.612 388.847 330.756 388.34 330.901 387.906C331.19 387.046 331.12 386.242 330.686 385.653C330.252 385.045 329.474 384.716 328.488 384.716C327.31 384.719 325.909 385.19 324.423 386.087Z" fill="#1A1718"/>
<path d="M323.348 392.542C325.045 391.245 327.647 391.941 329.767 392.875C328.799 394.783 327.25 395.825 324.204 393.486C324.204 393.486 323.811 393.123 323.348 392.542Z" fill="#C1C7B8"/>
<path d="M301.001 375.074C300.72 375.296 300.438 375.5 300.16 375.715C300.401 375.267 300.627 374.803 300.794 374.311C302.043 370.746 301.995 367.04 300.56 363.668C304.396 366.637 303.588 371.231 301.001 375.074Z" fill="#2A4790"/>
<path d="M301.581 363.98C301.581 363.98 305.231 368.749 300.188 376.478C300.188 376.478 304.472 377.56 305.784 371.265C307.103 364.965 301.581 363.98 301.581 363.98Z" fill="#77B5E4"/>
<path d="M269.08 349.287C260.549 344.881 252.288 340.509 242.659 339.19C235.896 338.263 228.851 338.593 222.109 339.749C228.347 336.941 238.212 334.499 250.138 338.46C266.33 343.825 278.2 353.237 288.122 359.033C281.432 356.769 275.169 352.426 269.08 349.287Z" fill="#77B5E4"/>
<path d="M290.203 300.134C290.203 300.134 300.869 296.951 306.71 302.45C312.543 307.956 317.876 320.047 322.564 323.479C322.564 323.479 316.557 320.244 310.883 311.347C305.22 302.45 303.037 298.807 290.203 300.134Z" fill="#77B5E4"/>
</svg>
