<svg width="345" height="363" viewBox="0 0 345 363" fill="none" xmlns="http://www.w3.org/2000/svg">
<path d="M100.771 355.423C100.492 355.423 100.195 355.405 99.8853 355.362C99.6584 355.336 99.2919 355.309 98.8511 355.283C95.2291 355.043 92.1612 354.685 91.4106 352.695C91.1488 351.997 91.1007 350.888 92.3924 349.605C96.1322 345.843 98.5587 340.863 100.911 335.661C101.269 334.866 101.644 334.05 101.674 333.286C101.722 332.108 101.325 330.729 100.941 329.393C100.78 328.826 100.618 328.267 100.492 327.726L98.9861 321.406C98.6501 320.01 98.2444 318.604 97.843 317.243C96.9353 314.118 95.997 310.888 95.8355 307.366C95.7875 306.27 95.7832 304.83 96.2196 303.425C96.381 302.892 96.6081 302.39 96.8743 301.937C97.9783 300.064 99.9375 299.034 102.394 299.034C103.804 299.034 105.318 299.379 106.667 300.012C109.704 301.43 112.108 304.023 113.274 307.121C114.146 309.452 113.928 311.813 113.727 314.096C113.653 314.873 113.588 315.61 113.562 316.335C113.54 317.046 113.522 317.749 113.501 318.452C113.4 322.637 113.295 326.591 112.266 330.711C111.205 334.94 109.883 339.645 108.216 345.088C108.05 345.633 107.897 346.244 107.736 346.895C106.88 350.295 105.598 355.423 100.771 355.423Z" fill="#0462A9"/>
<path d="M102.39 300.527C103.655 300.527 104.96 300.858 106.034 301.36C108.678 302.6 110.851 304.896 111.877 307.641C112.902 310.382 112.165 313.411 112.069 316.282C111.916 321.096 111.977 325.697 110.817 330.349C109.638 335.058 108.233 339.929 106.789 344.647C105.776 347.96 105.192 353.934 100.771 353.934C100.544 353.934 100.317 353.917 100.073 353.886C98.4318 353.673 90.3717 353.729 93.4395 350.648C97.4324 346.641 99.9285 341.422 102.259 336.267C102.682 335.329 103.106 334.364 103.149 333.339C103.237 331.383 102.377 329.258 101.932 327.377C101.426 325.273 100.928 323.165 100.422 321.057C99.3221 316.448 97.533 312.145 97.3191 307.296C97.2624 306.148 97.3015 304.948 97.6332 303.861C97.7553 303.455 97.9256 303.062 98.1437 302.692C99.082 301.12 100.705 300.527 102.39 300.527ZM102.39 297.55C99.4312 297.55 96.9524 298.873 95.5865 301.177C95.2549 301.731 94.9888 302.347 94.788 302.993C94.2862 304.638 94.2949 306.318 94.3429 307.436C94.5088 311.137 95.4776 314.454 96.4071 317.662C96.8217 319.067 97.2056 320.394 97.5285 321.755L98.0697 324.034L99.0341 328.071C99.1694 328.656 99.3396 329.24 99.5011 329.803C99.8545 331.021 100.217 332.287 100.177 333.221C100.16 333.692 99.8328 334.408 99.5447 335.041C97.2493 340.117 94.8971 344.961 91.3231 348.549C89.3812 350.5 89.665 352.311 90.0097 353.219C91.1618 356.27 95.3683 356.544 98.746 356.767C99.1169 356.789 99.5316 356.819 99.6843 356.841C100.047 356.889 100.413 356.911 100.762 356.911C106.749 356.911 108.264 350.866 109.167 347.257C109.324 346.62 109.477 346.013 109.625 345.524C111.297 340.06 112.628 335.333 113.697 331.078C114.766 326.792 114.871 322.576 114.98 318.495C114.997 317.797 115.014 317.094 115.041 316.387C115.062 315.706 115.124 314.995 115.194 314.236C115.407 311.901 115.647 309.251 114.657 306.602C113.361 303.141 110.673 300.252 107.286 298.668C105.754 297.943 104.009 297.55 102.39 297.55Z" fill="black"/>
<path opacity="0.4" d="M99.0774 352.294C100.574 348.898 102.158 345.581 103.93 342.295C104.397 341.426 104.886 340.545 105.597 339.86C105.684 339.777 105.776 339.694 105.885 339.667C106.291 339.58 106.47 340.148 106.461 340.558C106.369 344.927 104.916 349.134 103.437 353.241C105.588 349.937 106.771 346.131 107.705 342.33C108.682 338.323 109.813 334.356 110.816 330.354C111.981 325.701 111.916 321.101 112.069 316.287C112.165 313.415 112.902 310.386 111.877 307.646C110.851 304.9 108.682 302.6 106.033 301.365C103.529 300.195 99.78 299.938 98.1479 302.701C97.9297 303.072 97.7595 303.464 97.6373 303.87C97.3056 304.957 97.2664 306.157 97.3187 307.305C97.5369 312.154 99.326 316.457 100.426 321.066C100.928 323.174 101.425 325.278 101.936 327.386C102.385 329.271 103.24 331.392 103.153 333.348C103.109 334.373 102.686 335.338 102.263 336.276C99.9327 341.431 97.4366 346.651 93.4436 350.657C90.8253 353.28 96.2714 353.629 98.9682 353.808C98.8504 353.341 98.8462 352.831 99.0774 352.294Z" fill="#828282"/>
<path d="M169.172 360.359C165.799 360.359 160.401 359.586 158.983 357.867C158.403 357.168 157.076 355.558 165.354 340.828C163.303 339.396 158.276 336.241 151.455 334.342C136.871 330.283 133.943 323.898 133.188 311.975C132.922 307.798 132.948 301.574 134.593 295.682C135.514 292.391 137.29 289.227 139.354 287.224C141.231 285.4 143.788 284.169 146.948 283.566C148.169 283.335 149.404 283.213 150.626 283.213C154.148 283.213 157.338 284.177 159.847 286.006C166.838 291.091 164.494 299.711 163.242 304.341C161.461 310.918 159.594 314.432 158.586 316.317C158.534 316.422 158.481 316.522 158.429 316.618C159.428 317.539 161.571 319.35 163.648 321.114C178.86 334.002 180.99 336.503 180.235 338.427C180.152 338.781 180.004 340.099 179.86 341.378C178.721 351.42 177.586 357.544 175.164 359.111C173.899 359.944 171.882 360.359 169.172 360.359Z" fill="#0462A9"/>
<path d="M150.625 284.71C153.605 284.71 156.577 285.474 158.968 287.22C164.659 291.353 163.406 298.061 161.805 303.962C159.605 312.088 157.332 315.296 156.638 316.872C156.385 317.452 179.797 335.735 178.833 337.93C178.396 338.929 177.432 355.881 174.351 357.876C173.251 358.587 171.292 358.875 169.167 358.875C165.335 358.875 160.971 357.95 160.125 356.924C158.802 355.327 167.295 340.418 167.295 340.418C167.295 340.418 161.255 335.534 151.842 332.92C138.227 329.131 135.403 323.554 134.67 311.896C134.343 306.746 134.627 301.09 136.023 296.092C136.782 293.382 138.345 290.288 140.387 288.306C142.224 286.521 144.707 285.522 147.221 285.042C148.338 284.819 149.481 284.71 150.625 284.71ZM150.625 281.733C149.307 281.733 147.98 281.86 146.671 282.109C143.215 282.768 140.4 284.13 138.318 286.159C136.075 288.337 134.151 291.75 133.161 295.285C131.459 301.378 131.424 307.781 131.699 312.075C132.493 324.444 135.696 331.51 151.052 335.778C156.651 337.337 161.011 339.772 163.398 341.312C162.608 342.757 161.569 344.712 160.557 346.742C156.852 354.179 156.241 356.889 157.838 358.818C160.312 361.817 169.084 361.852 169.175 361.852C172.178 361.852 174.464 361.354 175.979 360.376C178.929 358.465 180.098 352.542 181.342 341.561C181.464 340.488 181.604 339.279 181.678 338.847C182.507 336.499 180.727 334.286 175.573 329.524C172.256 326.465 168.028 322.877 164.62 319.992C163.079 318.692 161.421 317.282 160.291 316.295C161.373 314.222 163.066 310.709 164.685 304.739C165.938 300.117 168.547 290.493 160.727 284.81C157.951 282.794 154.46 281.733 150.625 281.733Z" fill="black"/>
<path opacity="0.4" d="M156.645 316.868C157.334 315.292 159.612 312.084 161.811 303.958C163.409 298.061 164.661 291.349 158.979 287.216C155.663 284.806 151.26 284.265 147.232 285.029C144.718 285.509 142.235 286.509 140.398 288.294C138.356 290.279 136.793 293.369 136.034 296.08C134.642 301.081 134.354 306.733 134.681 311.883C135.419 323.545 138.238 329.123 151.853 332.907C161.266 335.526 167.305 340.409 167.305 340.409C167.305 340.409 158.813 355.318 160.136 356.916C160.677 357.57 162.654 358.177 164.997 358.535C165.748 355.061 166.926 351.691 168.091 348.322C168.942 345.861 170.404 342.125 173.306 341.418C175.291 340.929 176.234 341.906 176.579 343.582C177.748 347.192 175.483 354.668 174.72 357.518C177.517 354.485 178.429 338.877 178.839 337.922C179.799 335.731 156.391 317.448 156.645 316.868Z" fill="#828282"/>
<path d="M110.31 332.392C107.928 332.392 105.811 332.104 104.018 331.532C97.6463 329.507 91.9952 323.13 87.4568 318.011C86.1607 316.549 84.9388 315.174 83.8914 314.122L83.3939 313.616C79.5624 309.78 73.1608 303.355 68.1947 303.355C67.479 303.355 66.8287 303.49 66.2221 303.774C65.4017 304.149 64.5596 304.363 63.7043 304.573C57.1411 306.148 50.1544 306.223 43.4035 306.297C42.2863 306.31 41.178 306.323 40.0826 306.34C37.3378 306.388 34.4533 306.41 31.2633 306.41H29.3389C28.9942 306.41 28.6844 306.423 28.3702 306.428C28.0255 306.441 27.6764 306.445 27.336 306.445C26.9127 306.445 26.5025 306.432 26.0967 306.388C23.7925 306.148 22.5922 304.983 21.4358 303.857C21.0343 303.473 20.6243 303.071 20.1573 302.7C19.4155 302.111 18.3682 301.827 17.2597 301.531C16.6357 301.365 15.9855 301.19 15.3484 300.95C13.6378 300.309 12.0187 299.231 10.4084 297.655C10.1248 297.376 9.36118 296.629 9.383 295.53C9.40482 294.543 10.0375 293.88 10.3517 293.557C16.2124 287.477 22.9459 282.31 28.1651 278.482C29.915 277.199 31.6866 275.942 33.4583 274.681C34.9376 273.629 36.4171 272.577 37.8834 271.512C42.6531 268.051 46.8992 266.637 52.5416 266.637C53.589 266.637 54.7017 266.681 55.9411 266.781C59.9864 267.095 63.8526 267.894 67.7888 268.754C76.1499 270.578 87.3695 283.829 93.4004 290.943C94.7183 292.501 95.7611 293.731 96.3022 294.273C98.4667 296.437 101.321 298.135 104.101 298.96C103.983 298.244 103.804 297.546 103.481 296.852C102.73 295.233 101.766 293.605 100.845 292.034C100.265 291.052 99.6929 290.074 99.1562 289.088C85.973 264.826 73.9028 240.175 61.6665 214.945C44.294 179.112 31.5252 151.52 20.2708 125.482C15.8284 115.208 10.7313 103.25 6.42413 91.2954C6.07065 90.296 5.64746 89.2267 5.21543 88.1137C3.26479 83.1034 1.04791 77.4252 1.5803 72.3319C2.30034 65.4841 4.3253 48.6897 7.59819 40.7552C10.7576 33.1043 19.9654 19.0421 25.5293 19.0421C26.2799 19.0421 26.9648 19.2777 27.5278 19.7229C31.0756 22.5031 33.5804 35.8496 27.6979 46.8C23.0592 55.4241 17.3032 67.5092 15.6057 73.6674C14.0173 81.5234 67.9764 210.135 107.055 281.027C84.9518 218.589 37.6651 70.704 41.0122 55.1578C43.0283 45.8223 48.5574 27.1556 52.3059 20.2816C55.7621 13.9313 64.9349 1.48828 70.4552 1.48828C71.376 1.48828 72.192 1.81123 72.8204 2.42662C75.7267 5.26351 77.2497 19.688 69.9795 30.2936C64.385 38.4551 57.237 51.8845 54.8195 57.9947C52.5721 65.3924 90.0751 201.258 120.037 278.587C109.52 217.598 84.9171 61.8791 91.1356 47.04C94.8143 38.2587 105.641 22.6427 110.171 17.078C114.491 11.7796 122.804 3.89307 128.01 3.89307C129.76 3.89307 130.737 4.75722 131.248 5.48172C133.456 8.62412 133.648 18.4267 124.161 27.9106C117.166 34.9068 107.683 46.7999 104.188 52.3602C101.002 58.968 115.813 187.597 131.087 270.482C131.065 269.648 131.034 268.811 131.004 267.959C127.718 171.37 124.755 67.4263 131.257 56.729C135.883 49.1087 147.565 33.3575 154.87 29.7001C160.089 27.0858 163.737 25.3705 166.709 25.3705C168.878 25.3705 170.505 26.3481 171.43 28.1899C173.455 32.2401 170.985 36.4911 165.046 43.9237C161.315 48.5981 156.013 52.9538 151.335 56.7989C148.114 59.4481 145.064 61.9576 143.371 63.9303C139.003 69.6958 137.388 186.309 142.393 263.739C146.491 209.52 156.877 92.8186 166.508 81.2703C172.22 74.4225 186.106 60.5872 193.874 58.0558C197.814 56.7727 201.895 55.4459 204.915 55.4459C208.545 55.4459 209.942 57.3924 210.474 59.0291C211.875 63.3368 208.798 67.1731 201.825 73.6369C197.435 77.7045 191.548 81.2223 186.351 84.3298C182.768 86.4684 179.382 88.4935 177.413 90.1956C172.465 94.7914 160.538 188.457 155.594 258.004C155.695 257.498 155.795 256.983 155.895 256.468C170.117 184.184 184.766 112.939 193.909 104.873C200.59 98.9725 216.426 87.4111 224.491 86.093C228.134 85.4951 231.124 85.0412 233.598 85.0412C237.857 85.0412 240.262 86.5731 240.755 89.5802C241.488 94.0494 237.862 97.3708 229.98 102.7C225.019 106.056 218.665 108.635 213.062 110.914C209.191 112.485 205.543 113.973 203.339 115.352C200.904 117.12 193.311 140.605 181.851 189.085C174.878 218.576 168.93 246.993 166.416 262.356C176.654 232.97 209.152 141.954 222.784 131.204C230.207 125.351 248.051 117.508 256.124 117.508C264.093 117.508 271.612 117.508 271.612 123.575C271.612 128.105 267.505 130.802 258.861 134.787C253.89 137.083 247.724 138.423 242.282 139.601C237.595 140.614 233.171 141.574 230.653 142.918C225.988 145.751 198.666 206.552 180.957 248.896C208.934 199.931 224.993 174.717 229.915 172.011C236.893 168.175 249.884 161.022 258.162 161.022C266.052 161.022 273.506 161.022 273.506 167.04C273.506 171.531 269.434 174.202 260.881 178.152C256.687 180.086 251.638 181.561 246.755 182.984C241.104 184.629 235.767 186.187 233.14 188.108C230.007 190.399 227.375 194.611 225.049 198.325C224.233 199.63 223.465 200.865 222.689 201.995C213.476 215.446 204.626 229.338 196.44 242.344C191.928 249.515 188.485 255.067 185.268 260.348C184.256 262.019 183.235 263.695 182.244 265.376C188.825 264.079 195.598 263.298 204.509 262.277L204.766 262.246C209.776 261.67 213.887 261.404 217.705 261.404C231.704 261.404 242.361 265.066 265.118 274.057C277.839 279.084 290.119 281.629 301.618 281.629C309.63 281.629 317.31 280.385 324.436 277.936C328.377 276.579 332.282 274.72 335.416 273.223C338.915 271.56 340.373 270.884 341.368 270.884C342.263 270.884 342.799 271.42 343.009 271.922C343.506 273.131 342.817 274.196 339.108 277.91C329.564 287.455 314.151 293.496 294.535 295.377C292.554 295.569 290.507 295.665 288.443 295.665C274.104 295.665 260.959 291.113 251.368 287.787C249.967 287.303 248.649 286.844 247.419 286.43L246.144 286.002C238.887 283.575 231.386 281.061 222.549 281.061C219.062 281.061 215.606 281.441 211.997 282.214C200.891 284.592 194.398 291.82 187.516 299.471C185.491 301.727 183.396 304.058 181.145 306.305C174.642 312.813 167.136 315.039 158.452 317.618C153.36 319.128 148.097 320.695 142.367 323.292C129.276 329.249 118.196 332.392 110.31 332.392Z" fill="#0586D6"/>
<path d="M70.4522 2.97658C70.9715 2.97658 71.4209 3.14241 71.7831 3.49157C74.1352 5.7829 75.7191 19.2734 68.7457 29.4513C63.0421 37.7699 55.8157 51.4263 53.433 57.4448C50.3608 65.2223 94.3486 221.042 123.992 292.47C113.349 233.755 86.3713 62.2588 92.5069 47.6117C95.9718 39.3411 106.428 24.0219 111.328 18.0165C116.526 11.6313 124.058 5.38137 128.011 5.38137C128.871 5.38137 129.569 5.67812 130.032 6.33715C131.926 9.02129 131.839 18.1343 123.115 26.8588C115.985 33.9903 106.375 46.0841 102.928 51.5702C98.7298 58.2522 117.481 211.165 132.803 287.268C132.916 287.202 133.03 287.141 133.139 287.08C131.023 222.587 125.057 69.8093 132.528 57.5016C137.18 49.842 148.609 34.4966 155.53 31.0312C160.007 28.7879 163.943 26.8588 166.71 26.8588C168.229 26.8588 169.39 27.4349 170.096 28.8577C171.571 31.795 170.175 35.1207 163.882 42.9941C157.59 50.872 146.462 58.0514 142.242 62.9614C136.687 69.4252 135.984 210.069 142.29 282.065C142.382 282.013 142.491 281.961 142.587 281.908C145.877 232.35 157.555 94.3375 167.653 82.2305C173.391 75.3478 186.976 61.8748 194.338 59.4787C198.501 58.1213 202.223 56.9429 204.92 56.9429C206.997 56.9429 208.464 57.6412 209.066 59.5005C210.083 62.621 208.215 65.7023 200.818 72.5589C193.421 79.4111 181.346 84.8535 176.446 89.0783C170.136 94.5164 156.573 210.004 152.912 276.885C153.082 276.806 153.256 276.728 153.427 276.649C163.21 227.754 184.074 115.544 194.896 105.999C201.617 100.068 217.091 88.8208 224.732 87.5682C228.083 87.0226 231.147 86.5382 233.599 86.5382C236.746 86.5382 238.88 87.3369 239.285 89.829C239.818 93.0718 237.505 95.8301 229.152 101.478C220.796 107.125 208.04 110.669 202.546 114.1C194.979 118.835 164.271 254.705 163.655 272.333C164 272.197 164.349 272.062 164.69 271.94C174.478 243.025 209.995 143.193 223.706 132.378C230.741 126.826 248.375 119.005 256.121 119.005C263.872 119.005 270.12 119.093 270.12 123.584C270.12 126.87 267.389 129.218 258.238 133.443C249.078 137.668 235.659 138.567 229.951 141.613C223.698 144.943 183.847 236.867 170.799 269.823C185.47 243.785 223.034 177.506 230.627 173.325C238.4 169.048 250.492 162.519 258.159 162.519C265.826 162.519 272.014 162.602 272.014 167.049C272.014 170.301 269.309 172.627 260.254 176.808C251.194 180.989 237.426 183.132 232.255 186.912C227.782 190.185 224.509 196.692 221.446 201.162C212.369 214.412 203.729 227.968 195.171 241.559C191.405 247.543 187.661 253.539 183.987 259.58C182.717 261.666 181.451 263.756 180.216 265.865C179.924 266.371 179.684 266.921 179.461 267.484C187.054 265.777 194.674 264.909 204.92 263.735C209.659 263.189 213.805 262.901 217.689 262.901C231.548 262.905 242.1 266.58 264.557 275.453C279.097 281.201 291.464 283.13 301.602 283.13C311.512 283.13 319.288 281.288 324.9 279.359C332.362 276.793 339.833 272.385 341.352 272.389C342.146 272.389 341.321 273.585 338.035 276.876C328.452 286.46 312.834 292.138 294.375 293.915C292.376 294.107 290.391 294.194 288.427 294.194C272.233 294.194 257.369 288.206 247.874 285.038C239.997 282.414 232.129 279.595 222.528 279.595C219.146 279.595 215.546 279.944 211.662 280.778C196.755 283.973 190.009 295.333 180.072 305.275C170.131 315.218 157.354 314.86 141.731 321.961C129.478 327.53 118.319 330.917 110.307 330.917C108.108 330.917 106.148 330.659 104.46 330.127C96.6526 327.639 89.557 317.697 84.9357 313.083C80.9384 309.081 74.0043 301.884 68.1829 301.884C67.2883 301.884 66.4199 302.054 65.5908 302.434C64.8751 302.762 64.1071 302.954 63.339 303.141C55.8681 304.939 47.6769 304.739 40.0402 304.865C37.1077 304.918 34.1752 304.935 31.2427 304.935C30.6055 304.935 29.9642 304.935 29.3271 304.931C29.314 304.931 29.3009 304.931 29.2834 304.931C28.6463 304.931 27.9741 304.97 27.3239 304.97C26.9529 304.97 26.5909 304.961 26.2374 304.922C23.7413 304.66 22.9251 303.023 21.0617 301.548C19.5911 300.387 17.5971 300.226 15.8472 299.567C14.1758 298.943 12.7095 297.852 11.4266 296.603C11.1429 296.32 10.8374 295.979 10.8505 295.573C10.8505 295.194 11.1298 294.875 11.4047 294.6C16.7505 289.048 22.8118 284.243 29.0216 279.695C32.229 277.339 35.5063 275.069 38.7356 272.73C43.4137 269.33 47.3846 268.138 52.5165 268.138C53.5551 268.138 54.646 268.191 55.8024 268.278C59.7343 268.588 63.6007 269.382 67.4496 270.22C77.2116 272.35 92.2102 292.322 95.2213 295.338C97.8396 297.952 101.785 300.296 105.795 300.876C105.642 299.349 105.537 297.812 104.804 296.237C103.561 293.553 101.854 290.995 100.44 288.389C87.231 264.084 75.0515 239.198 62.9811 214.307C48.6589 184.764 34.6422 155.042 21.6118 124.902C16.7504 113.65 11.9589 102.342 7.80449 90.8066C5.88875 85.482 2.42814 78.3505 3.03471 72.5021C3.96858 63.59 5.99343 48.5021 8.9434 41.34C12.4345 32.8817 21.2931 20.5478 25.5042 20.5478C25.9144 20.5478 26.2768 20.6612 26.5866 20.9057C29.17 22.9351 32.1985 35.2429 26.3597 46.1104C21.5856 54.992 15.8688 67.0422 14.1495 73.2834C11.8017 81.8115 76.6313 233.576 114.392 296.917C94.9464 245.596 38.9405 71.7514 42.449 55.4852C44.3386 46.7257 49.8765 27.8102 53.5901 21.0104C57.8667 13.1719 66.3501 2.97658 70.4522 2.97658ZM70.4522 0C63.8715 0 54.3362 13.4381 50.9935 19.5658C46.8915 27.0857 41.284 46.813 39.5559 54.8393C38.9625 57.5932 39.0498 64.6069 46.6123 93.5868C51.3122 111.59 58.3555 135.909 66.9872 163.915C77.2554 197.225 89.2995 234.218 99.188 263.054C85.2935 236.26 68.9946 201.952 52.7479 165.094C30.2304 114.021 16.9859 78.7608 17.0732 73.9075C18.7969 67.8104 24.4396 55.9827 28.9955 47.5026C35.3274 35.7143 32.4209 21.6738 28.4367 18.5489C27.6119 17.8986 26.5996 17.5538 25.5218 17.5538C18.5134 17.5538 8.86915 33.7459 6.2072 40.1878C2.85575 48.3013 0.809197 65.2615 0.0891602 72.1748C-0.482506 77.626 1.80424 83.4831 3.8247 88.6506C4.25673 89.7635 4.66671 90.8154 5.01582 91.7974C9.33168 103.787 14.442 115.771 18.8931 126.067C30.165 152.136 42.9423 179.745 60.3192 215.59C72.5642 240.839 84.6432 265.511 97.8395 289.795C98.3893 290.812 98.983 291.815 99.559 292.784C100.266 293.993 100.951 295.154 101.553 296.311C100.021 295.503 98.5684 294.439 97.3465 293.221C96.849 292.719 95.7755 291.449 94.5274 289.982C88.3875 282.729 76.9541 269.234 68.0955 267.3C64.2684 266.462 60.1839 265.62 56.0469 265.297C54.7727 265.201 53.6161 265.149 52.5295 265.149C46.5423 265.149 42.0432 266.646 36.9942 270.308C35.5323 271.368 34.0706 272.415 32.6 273.459C30.8501 274.702 29.0432 275.99 27.2671 277.286C22.0087 281.144 15.2011 286.36 9.26621 292.527C8.89965 292.911 7.91361 293.928 7.88306 295.499C7.84379 297.236 8.98707 298.353 9.36236 298.724C11.1254 300.448 12.9103 301.635 14.8129 302.347C15.5199 302.609 16.2005 302.796 16.8638 302.971C17.8239 303.229 18.7227 303.473 19.2333 303.875C19.6391 304.197 20.0059 304.551 20.3943 304.926C21.6074 306.105 23.1217 307.571 25.9407 307.868C26.364 307.911 26.8092 307.933 27.3372 307.933C27.695 307.933 28.057 307.925 28.4148 307.912C28.7116 307.903 29.0084 307.894 29.2965 307.894L31.2557 307.898C34.4806 307.898 37.374 307.877 40.1014 307.829C41.1968 307.811 42.3052 307.798 43.418 307.785C50.2562 307.711 57.3298 307.637 64.0502 306.017C64.9797 305.795 65.8963 305.559 66.8389 305.127C67.2491 304.939 67.6941 304.848 68.1959 304.848C72.5423 304.848 78.9179 311.233 82.3348 314.668L82.8454 315.174C83.8578 316.191 85.0708 317.553 86.3495 318.997C91.0101 324.252 96.8055 330.799 103.569 332.946C105.507 333.566 107.78 333.876 110.316 333.876C120.54 333.876 133.719 328.861 142.975 324.654C148.604 322.096 153.815 320.547 158.859 319.05C167.373 316.523 175.416 314.14 182.184 307.366C184.467 305.083 186.574 302.735 188.617 300.47C195.625 292.68 201.673 285.954 212.304 283.671C215.812 282.921 219.159 282.554 222.546 282.554C231.138 282.554 238.195 284.915 245.67 287.416L246.948 287.844C248.17 288.254 249.484 288.708 250.88 289.192C260.572 292.553 273.851 297.153 288.44 297.153C290.548 297.153 292.647 297.053 294.676 296.861C314.636 294.94 330.368 288.752 340.156 278.962C343.682 275.436 345.332 273.642 344.38 271.351C343.883 270.146 342.726 269.395 341.369 269.395C340.064 269.395 338.655 270.033 334.78 271.879C331.677 273.358 327.815 275.196 323.949 276.527C316.975 278.923 309.469 280.136 301.619 280.136C290.303 280.136 278.211 277.627 265.665 272.669C242.72 263.604 231.963 259.911 217.706 259.911C213.831 259.911 209.664 260.186 204.597 260.762L204.375 260.789C196.869 261.648 190.869 262.338 185.209 263.307C185.662 262.565 186.107 261.832 186.548 261.112C189.751 255.839 193.194 250.292 197.706 243.126C205.889 230.124 214.721 216.245 223.916 202.824C224.71 201.664 225.491 200.42 226.32 199.097C228.572 195.497 231.129 191.416 234.027 189.29C236.449 187.527 241.904 185.934 247.18 184.393C252.12 182.953 257.225 181.465 261.515 179.483C270.465 175.355 275.008 172.295 275.008 167.023C275.008 165.02 274.183 161.467 268.65 160.193C265.931 159.568 262.593 159.52 258.181 159.52C250.191 159.52 239.037 165.286 229.214 170.693C226.242 172.326 218.994 180.592 192.038 226.742C196.206 217.092 200.648 206.971 205.073 197.103C225.692 151.176 230.61 144.974 231.5 144.149C233.87 142.936 238.125 142.015 242.619 141.041C248.135 139.846 254.389 138.493 259.508 136.127C268.537 131.959 273.123 128.873 273.123 123.566C273.123 121.55 272.294 117.975 266.721 116.692C263.976 116.059 260.607 116.011 256.143 116.011C247.808 116.011 229.48 124.038 221.887 130.026C219.535 131.876 212.382 137.515 189.974 194.261C183.293 211.178 176.703 229.016 171.353 243.916C174.316 229.02 178.44 210.113 183.009 190.709C194.141 143.485 201.691 119.498 204.292 116.513C206.408 115.226 209.921 113.799 213.639 112.288C219.316 109.98 225.744 107.365 230.833 103.931C239.067 98.3571 243.095 94.5731 242.24 89.3358C241.803 86.6953 239.962 83.5486 233.612 83.5486C231.025 83.5486 227.979 84.0112 224.265 84.6178C215.419 86.0668 199.046 98.3615 192.941 103.752C189.699 106.606 184.584 115.981 173.67 163.496C168.682 185.205 163.555 210.283 159.121 232.529C161.094 209.698 163.642 185.026 166.44 161.965C172.632 110.931 176.913 93.5431 178.501 91.2213C180.399 89.6239 183.668 87.6686 187.129 85.5999C192.387 82.4575 198.339 78.8917 202.852 74.7193C210.144 67.9587 213.547 63.6074 211.907 58.5578C211.348 56.8338 209.694 53.9445 204.929 53.9445C201.905 53.9445 198.257 55.0575 193.426 56.6287C184.899 59.4045 170.594 74.0515 165.375 80.3057C163.599 82.44 158.187 88.9299 149.612 167.686C146.854 193.022 144.489 219.196 142.691 241.018C141.456 213.613 140.767 181.469 140.793 149.783C140.841 98.8896 142.739 68.6047 144.603 64.7683C146.235 62.9091 149.176 60.4912 152.288 57.938C157.018 54.0493 162.381 49.6368 166.208 44.8403C172.418 37.076 175.137 32.2576 172.763 27.5135C171.589 25.161 169.438 23.8691 166.71 23.8691C163.411 23.8691 159.619 25.6454 154.203 28.3558C146.187 32.3711 134.212 48.9822 129.984 55.9435C127.71 59.6882 125.214 72.6462 126.065 140.151C126.519 175.468 127.763 215.756 128.88 249.105C123.757 218.611 118.371 181.692 113.759 145.109C106.502 87.4853 104.429 57.0782 105.559 52.9582C109.033 47.4983 118.472 35.688 125.214 28.9493C134.548 19.6138 135.421 8.81181 132.462 4.60885C131.459 3.17731 129.875 2.39173 128.007 2.39173C121.836 2.39173 112.882 11.3737 109.015 16.1223C104.438 21.7437 93.4889 37.543 89.7622 46.4508C88.68 49.0346 85.3852 56.8949 99.0048 153.917C104.224 191.11 110.652 232.018 115.906 263.298C104.892 233.149 92.1012 193.807 79.8431 152.123C64.2947 99.23 55.6803 63.075 56.2563 58.3701C58.6564 52.3777 65.7958 39.0007 71.1939 31.1185C78.8743 19.915 77.4953 4.9013 73.8558 1.34864C72.9438 0.471385 71.7657 0 70.4522 0Z" fill="black"/>
<path d="M65.5998 302.421C66.9439 301.805 68.249 302.072 69.3617 301.29C70.5749 300.435 71.452 298.864 72.7263 297.934C75.3271 296.044 78.469 294.923 81.6503 294.534C86.6818 293.919 91.5998 294.172 96.5965 296.599C95.2306 295.324 92.6559 292.378 91.482 290.999C89.1299 288.228 86.7515 285.482 84.2597 282.838C79.8129 278.115 74.1051 271.66 67.4589 270.211C63.61 269.373 59.7436 268.575 55.8118 268.269C48.9823 267.737 44.374 268.631 38.7447 272.725C35.5198 275.064 32.2427 277.334 29.0309 279.691C22.8211 284.243 16.7552 289.044 11.4138 294.595C11.1389 294.87 10.8598 295.185 10.8598 295.569C10.8467 295.975 11.1476 296.315 11.4356 296.599C12.7186 297.847 14.1849 298.938 15.8562 299.562C17.6061 300.217 19.6005 300.383 21.0711 301.543C22.9344 303.019 23.7463 304.651 26.2468 304.917C27.2505 305.022 28.3237 304.926 29.3361 304.926C32.9058 304.935 36.4799 304.922 40.0495 304.861C47.6863 304.73 55.8772 304.935 63.3481 303.137C64.1161 302.945 64.8841 302.753 65.5998 302.421Z" fill="#E54A06"/>
<g opacity="0.4">
<path d="M53.4284 57.4447C55.8111 51.4261 63.0375 37.7697 68.7411 29.4511C75.7189 19.2776 74.1304 5.78711 71.7782 3.49141C68.5664 0.353378 58.4031 12.1854 53.6028 20.9928C49.8892 27.7926 44.3516 46.7081 42.462 55.4676C39.0669 71.2319 91.5292 234.885 112.48 291.728C112.659 292.125 112.803 292.535 112.929 292.941C112.982 293.081 113.034 293.234 113.091 293.373C113.414 293.452 113.737 293.504 114.055 293.613C116.704 291.75 119.676 290.916 122.591 291.209C122.87 291.156 123.145 291.117 123.42 291.086C93.7851 219.064 50.378 65.1697 53.4284 57.4447Z" fill="#476D84"/>
</g>
<g opacity="0.4">
<path d="M88.7578 264.56C91.0445 269.347 95.042 272.983 98.2276 277.177C100.933 280.743 103.425 284.641 107.453 286.718C108.068 287.037 108.609 287.386 109.115 287.752C70.9054 220.086 11.9279 81.4101 14.1665 73.2704C15.8859 67.0292 21.6024 54.979 26.3765 46.0974C32.2154 35.2299 29.1825 22.9178 26.6034 20.8927C23.0687 18.1169 12.792 32.0569 8.96049 41.327C6.00615 48.4891 3.98131 63.577 3.0518 72.4892C2.44086 78.3375 5.90121 85.469 7.82131 90.7936C11.9757 102.329 16.7672 113.637 21.6286 124.889C34.6591 155.03 48.676 184.751 62.9982 214.294C70.6611 230.098 78.4025 245.884 86.3884 261.539C87.3615 262.356 88.1862 263.359 88.7578 264.56Z" fill="#476D84"/>
</g>
<g opacity="0.4">
<path d="M142.992 275.934C143.276 275.611 143.555 275.288 143.839 274.965C146.706 271.765 150.088 270.818 153.23 271.355C157.301 203.842 170.305 94.3508 176.445 89.0611C181.346 84.8363 193.421 79.3938 200.818 72.5416C208.21 65.6895 210.082 62.6082 209.065 59.4832C207.678 55.2104 201.708 57.0653 194.337 59.4658C186.971 61.8618 173.391 75.3349 167.652 82.2176C157.934 93.875 146.749 222.137 142.992 275.934Z" fill="#476D84"/>
</g>
<g opacity="0.4">
<path d="M133.129 287.01C133.395 286.744 133.67 286.486 133.932 286.216C136.716 283.327 139.269 280.245 141.879 277.212C136.018 203.946 136.803 69.2812 142.241 62.9571C146.461 58.0471 157.588 50.8676 163.881 42.9898C170.174 35.1163 171.57 31.7906 170.095 28.8533C168.084 24.838 162.459 27.5614 155.529 31.0268C148.603 34.4921 137.179 49.8375 132.527 57.4971C125.052 69.8005 131.013 222.478 133.129 287.01Z" fill="#476D84"/>
</g>
<g opacity="0.4">
<path d="M230.637 173.308C223.493 177.236 189.826 236.125 173.645 264.769C177.262 263.119 180.666 261.112 184.166 259.296C187.783 253.347 191.467 247.442 195.176 241.55C203.729 227.955 212.37 214.399 221.451 201.153C224.51 196.684 227.783 190.176 232.26 186.903C237.431 183.124 251.199 180.981 260.259 176.799C269.314 172.614 272.019 170.292 272.019 167.041C272.019 162.598 265.831 162.51 258.164 162.51C250.501 162.506 238.409 169.031 230.637 173.308Z" fill="#476D84"/>
</g>
<g opacity="0.4">
<path d="M37.4687 302.822C37.3204 302.836 37.1764 302.844 37.0237 302.857C32.171 303.224 27.3009 302.993 22.457 303.237C23.404 304.044 24.997 304.778 26.245 304.909C27.2487 305.014 28.322 304.917 29.3344 304.917C32.9041 304.926 36.4781 304.913 40.0478 304.852C47.6845 304.725 55.8755 304.926 63.3464 303.128C64.1144 302.945 64.8824 302.753 65.5981 302.421C71.8079 299.58 80.3307 308.457 84.9433 313.07C89.5646 317.683 96.6603 327.626 104.467 330.113C112.283 332.597 126.125 329.048 141.739 321.948C157.362 314.842 170.139 315.2 180.08 305.258C190.016 295.32 196.763 283.959 211.67 280.765C226.581 277.57 237.229 281.476 247.881 285.024C258.529 288.577 275.923 295.674 294.382 293.902C312.841 292.125 328.46 286.447 338.043 276.863C342.184 272.717 342.398 271.9 340.412 272.612C330.93 284.81 313.963 289.637 297.965 290.637C281.4 291.676 267.296 286.033 253.044 280.132C245.852 278.146 238.747 275.252 231.307 274.506C224.076 273.786 216.282 274.641 209.209 276.256C203.47 277.565 197.697 278.87 193.224 283.017C190.152 285.862 187.786 289.659 183.998 291.44C181.524 292.601 178.696 292.762 175.956 292.701C170.396 292.566 164.85 291.58 159.587 289.782C152.448 296.162 145.243 302.871 139.103 310.194C135.905 314.004 130.319 315.877 125.326 316.095C119.714 316.335 113.81 317.094 108.211 316.885C102.42 316.667 96.9437 312.285 93.1559 308.213C89.8612 304.677 86.9551 300.736 83.2022 297.694C80.1562 295.228 72.7594 290.314 68.7621 292.566C64.5117 294.958 60.7848 298.371 56.1635 299.92C54.7714 300.392 53.327 300.675 51.8782 300.937C47.1085 301.819 42.2952 302.443 37.4687 302.822Z" fill="#828282"/>
</g>
<g opacity="0.4">
<path d="M54.0753 302.526C44.7323 304.328 34.7043 304.389 25.2391 303.909C24.3881 303.866 23.7989 304.01 23.7422 304.852C24.5495 304.756 25.3568 304.817 26.2557 304.909C27.255 305.013 28.3287 304.917 29.3411 304.917C32.9107 304.926 36.4848 304.913 40.0545 304.852C47.6912 304.725 55.8821 304.926 63.3531 303.128C64.1211 302.945 64.8891 302.753 65.6048 302.421C71.8146 299.58 80.3371 308.457 84.9497 313.07C89.571 317.683 96.6667 327.626 104.474 330.113C112.289 332.597 126.132 329.048 141.745 321.947C157.368 314.842 170.145 315.2 180.086 305.258C190.023 295.32 196.769 283.959 211.676 280.765C226.588 277.57 237.235 281.476 247.888 285.024C261.08 289.424 274.337 294.705 288.363 293.592C277.946 293.954 268.014 289.585 258.605 285.112C253.251 282.558 247.892 279.935 242.188 278.294C226.378 273.76 208.718 277.452 195.225 286.853C191.917 289.157 188.827 291.785 185.345 293.801C181.269 296.154 176.761 297.616 172.262 298.96C169.683 299.728 167.025 300.47 164.346 300.269C161.662 300.068 158.908 298.733 157.726 296.315C156.094 301.836 154.204 308.117 149.766 311.988C145.162 316.003 140.353 319.045 134.715 321.406C132.485 322.34 130.002 323.095 127.681 322.441C125.35 321.79 123.439 319.198 124.329 316.955C124.115 319.333 123.884 321.782 122.798 323.907C121.711 326.033 119.546 327.787 117.155 327.652C115.776 327.573 114.506 326.888 113.311 326.19C110.295 324.418 106.747 320.638 105.604 317.264C106.293 319.307 106.097 321.633 105.076 323.532C104.888 323.881 104.653 324.239 104.29 324.405C103.837 324.623 103.291 324.483 102.807 324.326C97.1859 322.476 92.8003 317.998 89.414 313.14C86.0276 308.282 83.4092 302.923 79.9181 298.135C78.8839 296.712 77.7144 295.303 76.1304 294.543C72.4909 292.81 71.8539 295.647 69.5803 297.428C65.247 300.837 59.3294 301.513 54.0753 302.526Z" fill="#828282"/>
</g>
<g opacity="0.4">
<path d="M172.627 265.249C187.211 229.129 223.973 144.786 229.96 141.6C235.672 138.554 249.091 137.659 258.247 133.43C267.398 129.205 270.129 126.857 270.129 123.57C270.129 119.079 263.88 118.992 256.13 118.992C248.388 118.992 230.754 126.813 223.711 132.365C210.022 143.158 174.6 242.685 164.742 271.778C165.501 271.556 166.265 271.42 167.033 271.342C167.705 268.893 169.464 266.689 172.627 265.249Z" fill="#476D84"/>
</g>
<g opacity="0.4">
<path d="M159.562 274.742C160.736 273.62 162.154 272.743 163.668 272.145C164.463 253.858 195.005 118.809 202.551 114.091C208.045 110.66 220.8 107.117 229.157 101.469C237.509 95.8213 239.822 93.063 239.29 89.8202C238.565 85.3859 232.386 86.3112 224.736 87.5594C217.095 88.812 201.621 100.059 194.9 105.99C184.44 115.221 164.567 220.522 154.426 271.647C156.324 272.206 158.091 273.301 159.562 274.742Z" fill="#476D84"/>
</g>
<g opacity="0.4">
<path d="M128.19 291.602C128.849 291.021 130.319 289.773 130.76 289.358C131.52 288.647 132.244 287.905 132.977 287.163C132.916 287.198 132.859 287.228 132.798 287.259C117.477 211.156 98.7253 58.2435 102.923 51.5615C106.371 46.0798 115.98 33.9816 123.11 26.8501C131.834 18.1256 131.921 9.01257 130.027 6.32844C127.444 2.65357 117.656 10.2347 111.324 18.0077C106.427 24.0132 95.9673 39.3367 92.5024 47.603C86.4148 62.141 112.917 231.049 123.73 291.039C125.258 290.912 126.763 291.117 128.19 291.602Z" fill="#476D84"/>
</g>
<path d="M158.513 289.642C158.513 289.642 152.923 300.828 153.91 313.686C154.804 325.352 157.99 331.676 174.686 334.709C186.067 336.778 192.189 340.632 192.189 340.632C192.189 340.632 183.104 357.116 184.697 358.718C186.294 360.315 198.181 361.668 201.908 359.669C205.634 357.675 205.634 339.1 206.171 338.105C207.332 335.905 180.18 319.246 180.485 318.665C181.315 317.09 184.068 313.882 186.734 305.755C189.392 297.629 189.663 287.342 189.663 287.342L158.513 289.642Z" fill="#0586D6"/>
<path d="M158.514 289.642C156.083 295.508 154.656 301.771 154.42 308.042C154.311 311.176 154.577 314.314 155.088 317.395C155.598 320.459 156.51 323.453 158.304 325.828C160.071 328.215 162.672 329.869 165.487 331.017C168.315 332.165 171.356 332.889 174.428 333.426C177.584 333.945 180.756 334.687 183.841 335.652C185.395 336.141 186.922 336.682 188.432 337.302C189.955 337.939 191.395 338.576 192.918 339.471L194.018 340.112L193.394 341.308C191.002 345.878 188.546 350.539 186.73 355.253C186.516 355.837 186.311 356.422 186.163 356.985C186.089 357.265 186.028 357.535 185.997 357.767C185.949 357.972 186.001 358.251 185.945 358.015C185.931 357.963 185.905 357.915 185.871 357.867C185.84 357.797 185.744 357.701 185.731 357.684C185.779 357.71 185.849 357.753 185.958 357.801C186.159 357.893 186.412 357.993 186.687 358.076C187.228 358.247 187.826 358.386 188.428 358.508C190.858 358.971 193.416 359.198 195.912 359.198C197.156 359.189 198.399 359.119 199.547 358.906C200.114 358.801 200.664 358.653 201.074 358.46L201.218 358.395C201.227 358.382 201.24 358.391 201.257 358.369C201.297 358.343 201.349 358.299 201.402 358.234C201.515 358.111 201.646 357.919 201.764 357.701C202.252 356.802 202.602 355.584 202.881 354.384C203.156 353.171 203.365 351.914 203.535 350.648C203.88 348.112 204.129 345.537 204.33 342.941C204.434 341.64 204.517 340.352 204.657 338.995L204.722 338.467C204.762 338.262 204.762 338.127 204.88 337.734C204.91 337.651 204.949 337.564 204.984 337.489C204.949 337.55 204.919 337.62 204.906 337.686C204.866 337.812 204.862 337.917 204.866 337.996C204.879 338.144 204.901 338.179 204.91 338.196C204.919 338.209 204.879 338.127 204.818 338.048C204.561 337.69 204.111 337.236 203.662 336.83C201.825 335.154 199.713 333.609 197.631 332.069C195.541 330.528 193.411 329.027 191.277 327.534L184.836 323.074L181.624 320.791C181.079 320.376 180.595 320.049 179.979 319.49C179.931 319.442 179.888 319.403 179.818 319.311C179.783 319.259 179.739 319.22 179.652 319.023C179.626 318.945 179.525 318.757 179.656 318.329C179.735 318.172 179.687 318.268 179.709 318.225L179.848 317.989L180.128 317.544L180.673 316.719C182.126 314.589 183.348 312.35 184.413 309.993C185.473 307.645 186.39 305.21 187.097 302.731C187.799 300.239 188.306 297.681 188.724 295.111C189.126 292.54 189.471 289.947 189.658 287.342C189.641 292.57 189.157 297.812 188.026 302.967C186.822 308.095 184.972 313.136 182.122 317.653L181.62 318.478L181.389 318.875L181.289 319.063C181.302 319.041 181.249 319.15 181.31 319.015C181.441 318.609 181.341 318.434 181.323 318.377C181.254 318.216 181.236 318.216 181.227 318.198C181.201 318.168 181.219 318.185 181.232 318.194C181.594 318.504 182.192 318.91 182.707 319.255L185.971 321.389L192.539 325.666C194.725 327.106 196.911 328.555 199.071 330.052C201.231 331.562 203.361 333.081 205.425 334.879C205.94 335.351 206.446 335.8 206.97 336.49C207.096 336.673 207.24 336.87 207.371 337.188C207.441 337.358 207.511 337.546 207.533 337.86C207.541 338.026 207.524 338.209 207.467 338.415C207.437 338.519 207.389 338.628 207.341 338.724C207.367 338.685 207.389 338.637 207.406 338.589C207.428 338.511 207.384 338.698 207.376 338.816L207.328 339.261C207.223 340.505 207.157 341.828 207.07 343.133C206.9 345.751 206.725 348.383 206.372 351.028C206.193 352.35 205.984 353.677 205.691 355.013C205.381 356.352 205.054 357.688 204.308 359.102C204.116 359.451 203.885 359.813 203.562 360.176C203.405 360.359 203.212 360.534 202.986 360.704C202.881 360.791 202.741 360.87 202.615 360.944L202.318 361.088C201.545 361.45 200.821 361.629 200.106 361.773C198.679 362.048 197.304 362.122 195.942 362.144C193.215 362.162 190.54 361.943 187.843 361.398C187.166 361.258 186.49 361.097 185.788 360.87C185.439 360.756 185.081 360.63 184.688 360.442C184.5 360.355 184.286 360.237 184.055 360.084C183.946 360.001 183.798 359.879 183.68 359.774C183.601 359.704 183.466 359.539 183.383 359.408C183.313 359.285 183.252 359.163 183.204 359.037C182.938 358.172 183.069 357.775 183.104 357.339C183.165 356.924 183.248 356.566 183.348 356.208C183.54 355.506 183.771 354.86 184.007 354.223C184.976 351.687 186.115 349.313 187.284 346.947C188.454 344.582 189.689 342.273 190.981 339.964L191.452 341.797C190.243 341.064 188.799 340.374 187.398 339.772C185.975 339.161 184.522 338.624 183.043 338.131C180.088 337.149 177.073 336.416 173.979 335.809C170.82 335.167 167.66 334.338 164.636 333.016C161.634 331.711 158.697 329.755 156.768 326.923C154.817 324.117 153.979 320.804 153.565 317.618C153.159 314.419 153.076 311.18 153.338 307.973C153.914 301.583 155.651 295.32 158.514 289.642Z" fill="black"/>
<path opacity="0.4" d="M199.023 336.115C196.501 334.853 193.856 333.836 191.312 332.623C186.425 330.284 181.795 327.477 179.303 322.493C178.762 321.415 179.202 320.416 179.936 319.822C180.093 319.451 180.324 319.111 180.634 318.858C180.533 318.766 180.477 318.696 180.49 318.665C181.319 317.09 184.072 313.882 186.739 305.756C188.035 301.801 188.759 297.341 189.165 293.797C189.121 293.871 189.086 293.941 189.047 294.015C187.297 302.185 183.034 310.827 177.047 316.475C171.4 323.606 163.628 329.485 157.78 321.446C153.451 315.488 153.521 305.419 155.633 297.629C154.451 301.95 153.451 307.619 153.918 313.686C154.813 325.347 157.998 331.676 174.694 334.709C186.075 336.778 192.198 340.632 192.198 340.632C192.198 340.632 183.112 357.116 184.705 358.718C185.478 359.486 188.641 360.198 192.133 360.507C191.914 360.193 191.775 359.827 191.801 359.408C192.185 353.28 193.433 341.618 200.284 339.244C201.615 338.786 202.549 339.641 202.798 340.702C203.125 340.955 203.374 341.317 203.435 341.793C204.186 347.309 203.836 354.419 201.257 359.949C201.493 359.862 201.72 359.774 201.916 359.67C204.919 358.063 205.503 345.699 205.896 340.435C203.653 338.912 201.462 337.328 199.023 336.115Z" fill="#828282"/>
<path d="M105.004 314.672C105.004 314.672 107.4 323.191 110.062 328.516C112.719 333.841 115.652 338.502 115.119 340.365C112.776 348.557 103.926 357.788 106.069 358.871C109.617 360.669 118.314 358.871 118.314 358.871C118.314 358.871 123.869 339.667 124.17 338.371C125.37 333.177 124.17 314.672 124.17 314.672H105.004Z" fill="#0586D6"/>
<path d="M105.003 314.672C105.881 317.072 106.806 319.451 107.792 321.795C108.756 324.147 109.812 326.447 111.021 328.642C112.23 330.873 113.552 333.042 114.748 335.355C115.328 336.542 115.944 337.668 116.249 339.217C116.315 339.615 116.358 340.064 116.236 340.618C116.14 340.994 116.053 341.286 115.952 341.618C115.751 342.259 115.525 342.892 115.285 343.512C114.298 345.982 113.002 348.261 111.684 350.482C110.38 352.695 108.896 354.847 107.748 356.933C107.478 357.426 107.229 358.015 107.203 358.246C107.19 358.29 107.212 358.29 107.181 358.133C107.164 357.976 106.941 357.662 106.758 357.587C106.854 357.627 107.137 357.749 107.36 357.81C108.337 358.098 109.533 358.177 110.716 358.185C113.112 358.198 115.634 357.897 118.016 357.456L116.921 358.469C117.964 354.864 119.072 351.276 120.168 347.685L121.826 342.303L122.66 339.619L123.057 338.301C123.17 337.886 123.24 337.467 123.327 337.04C123.846 333.47 123.899 329.668 124.012 325.936L124.165 314.672C124.663 318.403 125.029 322.148 125.287 325.915C125.422 327.796 125.514 329.677 125.548 331.571C125.579 333.474 125.627 335.359 125.417 337.319C125.348 337.817 125.287 338.332 125.177 338.825L124.833 340.226L124.134 342.962C123.681 344.787 123.183 346.598 122.69 348.409C121.713 352.036 120.739 355.667 119.697 359.277L119.452 360.123L118.601 360.289C115.974 360.8 113.417 361.136 110.703 361.158C109.346 361.14 107.971 361.057 106.491 360.612C106.107 360.49 105.798 360.376 105.322 360.132C104.859 359.905 104.436 359.311 104.344 358.849C104.235 358.377 104.275 358.054 104.314 357.784C104.523 356.758 104.873 356.195 105.191 355.562C106.527 353.192 107.993 351.163 109.358 349.033C110.729 346.925 112.003 344.773 113.028 342.552C113.286 341.998 113.517 341.439 113.727 340.872C113.827 340.597 113.941 340.282 114.011 340.042C114.037 339.977 114.054 339.776 114.024 339.545C113.897 338.567 113.382 337.371 112.876 336.254C111.846 333.98 110.668 331.693 109.581 329.367C107.443 324.623 106.099 319.669 105.003 314.672Z" fill="black"/>
<path opacity="0.4" d="M124.263 330.139C123.905 331.527 123.473 332.889 122.962 334.229C122.748 334.788 122.517 335.346 122.129 335.796C121.055 337.035 119.048 337.04 117.612 336.258C116.172 335.473 115.164 334.098 114.212 332.771C112.528 330.423 110.848 328.075 109.159 325.731C110.477 328.669 111.655 331.523 113.117 334.39C113.898 335.918 115.648 338.528 115.125 340.365C112.781 348.557 103.931 357.788 106.074 358.871C107.165 359.425 108.74 359.634 110.407 359.669C109.408 359.652 112.135 352.363 112.358 351.822C113.658 348.767 115.386 345.9 117.49 343.338C117.756 343.01 118.061 342.67 118.476 342.569C119.423 342.334 120.134 343.451 120.322 344.407C120.592 345.773 120.483 347.191 120.3 348.571C119.833 352.067 118.834 355.488 117.35 358.692C119.082 354.947 120.169 350.731 121.365 346.79C122.229 343.94 123.495 341.312 124.171 338.366C124.799 335.656 123.582 332.767 124.263 330.139Z" fill="#828282"/>
<path d="M139.151 308.112C139.269 308.112 139.404 308.112 139.531 308.112C140.801 308.086 142.101 308.034 143.305 308.435C144.51 308.837 145.614 309.801 145.784 311.062C145.815 309.483 145.514 307.894 144.911 306.432C144.667 305.851 144.379 305.288 143.999 304.782C143.528 304.162 142.913 303.643 142.228 303.276C141.639 302.966 140.892 302.888 140.395 302.443C139.203 301.4 138.815 299.606 137.659 298.497C136.088 296.996 133.805 296.079 132.16 294.539C131.658 294.072 131.139 293.461 131.279 292.793C132.701 292.92 134.115 292.54 135.538 292.413C136.96 292.287 138.54 292.479 139.531 293.504C140.53 294.526 140.683 296.114 141.499 297.288C143.58 300.269 145.884 297.345 148.271 298.571C150.698 299.82 151.806 303.425 151.104 305.904C152.413 304.437 153.364 302.613 153.665 300.666C154.529 295.071 151.104 293.029 147.215 290.205C145.81 289.188 144.588 287.543 144.929 285.84C146.622 285.072 148.525 284.295 150.275 284.924C150.899 285.146 151.457 285.544 152.09 285.753C153.796 286.312 155.93 285.469 157.322 286.604C157.776 286.975 158.077 287.512 158.514 287.914C159.356 288.69 160.573 288.861 161.712 288.992C165.112 289.389 168.651 289.773 171.889 288.656C173.124 288.228 174.324 287.582 175.633 287.495C177.378 287.372 179.102 288.315 180.211 289.681C181.315 291.047 181.873 292.793 182.1 294.534C181.921 291.793 181.729 288.992 180.695 286.447C179.661 283.898 177.623 281.598 174.943 280.983C172.997 280.533 170.946 281.009 168.961 280.791C166.691 280.538 164.523 278.591 163.96 276.4C166.268 276.684 168.978 278.626 171.348 278.36C172.613 278.207 173.176 277.382 174.293 276.832C175.576 276.199 177.086 276.033 178.483 275.872C180.298 275.658 182.349 275.514 183.732 276.71C184.4 277.29 184.819 278.12 185.46 278.735C186.813 280.04 188.851 280.175 190.693 280.555C192.381 280.909 194.061 281.55 195.318 282.733C196.584 283.911 197.365 285.696 197.033 287.39C198.984 286.015 200.031 283.462 199.608 281.109C199.185 278.761 197.313 276.732 194.995 276.129C194.035 275.876 193.018 275.85 192.08 275.505C191.146 275.161 190.269 274.353 190.291 273.358C190.3 273.009 190.422 272.651 190.322 272.315C190.221 271.957 189.89 271.708 189.562 271.521C188.437 270.866 187.106 270.574 185.81 270.7C190.492 269.321 195.72 268.221 200.084 270.386C200.699 270.687 201.297 271.067 201.677 271.634C202.1 272.258 202.213 273.044 202.61 273.681C203.54 275.178 205.587 275.366 207.302 275.767C209.017 276.173 210.963 277.57 210.452 279.259C211.665 278.259 212.311 276.614 212.093 275.056C211.875 273.506 210.81 272.092 209.374 271.46C208.536 271.089 207.493 270.901 207.044 270.102C206.599 269.308 206.961 268.33 207.022 267.422C207.088 266.515 206.424 265.349 205.565 265.646C207.511 265.083 209.531 264.511 211.534 264.817C213.537 265.114 215.523 266.549 215.781 268.566C215.824 268.898 215.82 269.251 215.99 269.544C216.33 270.137 217.151 270.172 217.831 270.229C221.785 270.556 225.067 274.497 224.67 278.447C224.687 278.259 226.664 276.754 226.93 276.37C227.401 275.702 228.021 274.676 228.305 273.904C229.33 271.106 227.545 267.392 224.966 266.022C227.192 265.773 229.492 265.629 231.621 266.327C236.02 267.772 238.529 272.424 239.699 276.906C240.183 278.779 240.685 280.926 242.378 281.851C243.535 278.735 243.207 275.108 241.527 272.25C241.344 271.935 241.139 271.573 241.265 271.237C241.348 271.032 241.54 270.888 241.746 270.805C244.215 269.731 246.816 274.026 248.064 275.475C249.64 277.308 251.438 279.268 253.838 279.599C253.593 277.788 253.358 275.977 253.118 274.166C259.297 275.933 260.384 285.531 266.545 287.346C264.804 284.404 263.94 280.944 264.102 277.531C268.238 280.049 272.375 282.567 276.517 285.085C277.215 285.513 277.978 285.954 278.79 285.867C277.996 284.147 277.211 282.427 276.421 280.708C279.851 281.611 283.438 281.904 286.968 281.581C278.044 280.442 269.386 277.325 261.086 274.07C251.259 270.22 241.292 266.17 230.888 264.149C222.287 262.482 213.594 262.731 204.928 263.726C194.681 264.904 187.062 265.773 179.469 267.475C179.691 266.912 179.927 266.362 180.224 265.856C181.459 263.748 182.724 261.661 183.994 259.571C187.669 253.53 191.408 247.529 195.179 241.55C203.732 227.955 212.372 214.399 221.453 201.153C224.513 196.684 227.785 190.176 232.263 186.903C237.434 183.123 251.202 180.98 260.261 176.799C269.316 172.614 272.022 170.292 272.022 167.04C272.022 162.597 265.834 162.51 258.167 162.51C250.499 162.51 238.411 169.035 230.635 173.316C223.042 177.493 185.478 243.776 170.806 269.814C183.85 236.858 223.701 144.939 229.959 141.604C235.671 138.558 249.09 137.663 258.245 133.434C267.396 129.209 270.128 126.861 270.128 123.575C270.128 119.084 263.879 118.996 256.129 118.996C248.387 118.996 230.753 126.817 223.71 132.369C209.998 143.18 174.485 243.017 164.697 271.931C164.357 272.058 164.008 272.193 163.663 272.324C164.278 254.691 194.987 118.822 202.554 114.091C208.048 110.66 220.803 107.116 229.16 101.469C237.512 95.8213 239.825 93.0629 239.293 89.8201C238.569 85.3858 232.389 86.3111 224.739 87.5593C217.098 88.8119 201.624 100.059 194.904 105.99C184.086 115.535 163.218 227.741 153.434 276.64C153.264 276.719 153.089 276.802 152.919 276.876C156.58 209.995 170.139 94.5075 176.453 89.0694C181.354 84.8447 193.429 79.4022 200.826 72.55C208.218 65.6978 210.09 62.6165 209.073 59.4916C207.686 55.2188 201.716 57.0737 194.345 59.4741C186.979 61.8702 173.399 75.3432 167.66 82.226C157.558 94.3329 145.885 232.345 142.594 281.904C142.498 281.956 142.389 282.008 142.298 282.061C135.996 210.065 136.694 69.4207 142.249 62.957C146.469 58.047 157.597 50.8675 163.89 42.9896C170.183 35.1162 171.579 31.7905 170.104 28.8532C168.092 24.8379 162.467 27.5613 155.537 31.0266C148.612 34.492 137.187 49.8374 132.536 57.497C125.06 69.8047 131.025 222.582 133.146 287.075C133.037 287.137 132.924 287.202 132.81 287.263C117.489 211.16 98.7374 58.2477 102.935 51.5658C106.383 46.084 115.992 33.9858 123.123 26.8543C131.846 18.1297 131.933 9.0168 130.039 6.33267C127.456 2.65781 117.668 10.2388 111.336 18.0119C106.44 24.0174 95.9794 39.341 92.5145 47.6072C86.3789 62.2543 113.352 233.751 124 292.466C94.3562 221.042 50.3684 65.2177 53.4406 57.4403C55.8232 51.4217 63.0497 37.7654 68.7532 29.4467C75.7311 19.2732 74.1425 5.78271 71.7904 3.48702C68.5786 0.348981 58.4153 12.181 53.615 20.9885C49.9014 27.7883 44.3637 46.7038 42.4742 55.4632C38.9656 71.7339 94.9713 245.574 114.417 296.895C76.6605 233.554 11.8266 81.7895 14.1744 73.2614C15.8937 67.0202 21.6105 54.97 26.3846 46.0884C32.2234 35.2209 29.1906 22.9088 26.6115 20.8837C23.0768 18.1079 12.7998 32.0479 8.9683 41.318C6.01396 48.4801 3.98911 63.5679 3.05961 72.4801C2.44867 78.3285 5.90929 85.46 7.82939 90.7846C11.9838 102.32 16.7753 113.628 21.6366 124.88C34.6671 155.021 48.6838 184.742 63.006 214.285C75.0764 239.176 87.2561 264.062 100.466 288.367C101.879 290.973 103.586 293.531 104.829 296.215C105.467 297.585 105.741 299.196 105.815 300.688C103.149 300.291 100.758 299.955 97.8559 297.507C100.544 301.064 104.489 304.891 109.11 304.699C111.907 304.586 115.01 303.534 117.319 305.122C117.773 305.437 118.165 305.838 118.659 306.083C119.601 306.554 120.718 306.384 121.765 306.449C125.156 306.663 128.08 309.854 128.01 313.249C128.215 311.704 128.42 310.133 128.202 308.588C127.709 305.031 125.06 303.704 122.171 302.347C120.478 301.552 118.92 300.064 117.724 298.659C118.846 299.239 120.103 299.562 121.36 299.588C124.637 299.667 128.102 298.109 130.655 301.002C132.326 302.905 132.396 305.096 134.578 306.681C136.079 307.78 137.34 308.108 139.151 308.112Z" fill="#044793"/>
<path d="M170.095 28.8533C168.084 24.838 162.459 27.5614 155.529 31.0268C148.603 34.4921 137.179 49.8375 132.527 57.4971C131.061 59.915 130.114 67.758 129.551 79.2583C131.654 77.6129 134.866 77.351 137.222 79.1623C138.148 79.8737 138.881 80.8644 139.47 81.9773C140.177 71.1972 141.111 64.2751 142.245 62.9571C146.465 58.0471 157.593 50.8676 163.886 42.9898C170.174 35.1163 171.57 31.7906 170.095 28.8533Z" fill="#E54A06"/>
<path d="M209.067 59.4871C207.68 55.2143 201.71 57.0692 194.339 59.4697C186.973 61.8657 173.393 75.3388 167.654 82.2215C166.205 83.9586 164.722 88.3448 163.242 94.634C166.554 92.3644 170.307 93.2635 172.319 96.7856C172.646 97.3574 172.913 97.9684 173.148 98.6012C174.374 93.2897 175.496 89.8854 176.452 89.0649C181.352 84.8401 193.427 79.3977 200.824 72.5455C208.216 65.6889 210.088 62.6077 209.067 59.4871Z" fill="#E54A06"/>
<path d="M239.29 89.8158C238.566 85.3815 232.387 86.3068 224.737 87.555C217.096 88.8076 201.621 100.055 194.901 105.986C193.186 107.501 191.205 111.642 189.066 117.678C191.27 116.657 193.701 117.172 195.363 119.804C196.354 121.366 197.022 123.274 197.423 125.233C199.57 118.9 201.355 114.837 202.551 114.086C208.045 110.656 220.8 107.112 229.157 101.464C237.51 95.8169 239.822 93.0586 239.29 89.8158Z" fill="#E54A06"/>
<path d="M256.128 118.992C248.386 118.992 230.752 126.813 223.709 132.365C221.086 134.429 217.669 139.78 213.785 147.23C215.448 147.152 217.193 147.946 218.289 149.892C219.676 152.354 219.969 155.409 219.899 158.425C224.717 148.81 228.391 142.42 229.958 141.591C235.67 138.545 249.089 137.65 258.244 133.421C267.395 129.196 270.127 126.848 270.127 123.562C270.131 119.079 263.882 118.992 256.128 118.992Z" fill="#E54A06"/>
<path d="M258.162 162.505C250.495 162.505 238.407 169.03 230.631 173.312C229.92 173.705 228.911 174.7 227.707 176.122C229.627 175.917 231.473 176.83 232.171 179.461C232.891 182.172 232.141 185.074 231.155 187.828C231.517 187.505 231.879 187.182 232.254 186.903C237.425 183.123 251.193 180.98 260.253 176.799C269.308 172.613 272.013 170.292 272.013 167.04C272.018 162.588 265.83 162.505 258.162 162.505Z" fill="#E54A06"/>
<path d="M26.6049 20.8878C23.0702 18.1121 12.7934 32.0521 8.96195 41.3222C6.00762 48.4843 3.98277 63.5721 3.05326 72.4843C2.61251 76.6524 4.24889 81.4663 5.92024 85.8177C6.12098 83.5089 6.97632 81.2787 8.78296 80.0479C11.9337 77.9094 14.2204 79.7162 16.0663 82.1167C14.5826 77.3943 13.8887 74.2868 14.168 73.2699C15.8874 67.0288 21.6039 54.9785 26.378 46.0969C32.2168 35.2251 29.1883 22.9173 26.6049 20.8878Z" fill="#E54A06"/>
<path d="M130.026 6.33284C127.443 2.65797 117.655 10.239 111.323 18.0121C106.427 24.0175 95.9664 39.3411 92.5015 47.6074C91.4236 50.1911 91.3712 57.6761 92.0826 68.5305C93.2695 66.7454 95.1679 65.5627 97.4894 65.9337C99.9681 66.3265 101.731 68.3691 102.905 70.7564C102.159 59.8497 102.093 52.8709 102.918 51.5615C106.365 46.0798 115.975 33.9816 123.105 26.8501C131.833 18.1299 131.92 9.01697 130.026 6.33284Z" fill="#E54A06"/>
<path d="M71.7781 3.49141C68.5663 0.353378 58.4029 12.1854 53.6027 20.9928C49.889 27.7926 44.3514 46.7081 42.4618 55.4676C41.8858 58.1386 42.9199 65.0824 45.128 75.0115C45.2676 74.9766 45.4116 74.9504 45.5512 74.9199C45.752 73.0432 46.6684 71.3628 48.7674 70.7867C50.5086 70.311 52.1365 70.8261 53.5417 71.7906C53.7555 71.8212 53.9693 71.8255 54.1788 71.8954C54.7592 72.0961 55.1956 72.4583 55.5883 72.8773C53.7293 64.2794 52.9044 58.7584 53.4237 57.4447C55.8064 51.4261 63.0331 37.7697 68.7366 29.4511C75.7188 19.2732 74.1302 5.78275 71.7781 3.49141Z" fill="#E54A06"/>
<path d="M14.6523 299.968C18.366 300.497 21.9313 300.043 25.5141 299.458L30.9209 298.472C32.7276 298.14 34.6389 297.878 36.4455 297.668C40.0981 297.232 43.6982 296.826 47.2329 296.115C50.7459 295.443 54.2064 294.103 57.8808 293.282C54.7083 295.233 51.4966 297.188 47.8397 298.358C44.2264 299.58 40.4777 300.182 36.799 300.623L31.3311 301.26C29.5027 301.474 27.6438 301.688 25.7586 301.758C22.0318 301.937 18.0256 301.701 14.6523 299.968Z" fill="black"/>
<path d="M48.5682 283.872C50.1436 283.606 51.3217 282.27 52.1509 280.904C55.0703 276.108 49.3101 271.093 44.8851 274.624C40.6784 277.98 42.7163 284.845 48.5682 283.872Z" fill="black"/>
<path d="M47.8483 275.942C47.3814 276.658 47.4949 277.714 48.1277 278.277C48.7125 278.796 49.4935 278.779 50.1437 278.412C50.903 277.989 50.9685 277.312 50.9031 276.483C50.7591 274.799 48.7167 274.615 47.8483 275.942Z" fill="white"/>
<path d="M45.6614 281.724C46.1545 281.305 46.3379 280.616 45.3298 280.275C44.7669 280.088 44.1035 280.633 44.1297 281.214C44.1689 282.327 45.1072 282.196 45.6614 281.724Z" fill="white"/>
<path opacity="0.32" d="M29.3865 294.919C33.0172 294.177 36.5607 292.985 39.7813 291.174C40.8941 290.545 41.998 289.821 42.7311 288.778C43.4642 287.73 43.7567 286.294 43.1807 285.155C42.8534 284.505 42.238 284.055 41.8889 283.423C41.6009 282.903 41.4438 282.288 41.2299 281.725C40.6626 280.258 40.4227 278.705 40.6365 277.142C40.7805 276.103 41.1165 275.078 41.7056 274.218C43.4599 271.665 47.1998 271.062 50.0669 272.228C55.8795 274.589 56.0541 281.131 60.0078 285.129C62.0981 287.237 65.1701 287.988 68.1069 288.372C71.0438 288.76 74.0811 288.891 76.7867 290.096C83.0576 292.889 86.7408 295.9 91.2268 300.963C92.3265 302.203 93.64 303.495 95.2982 303.569C95.1891 299.292 92.1693 295.713 89.324 292.518C84.3929 287.01 79.3353 281.843 73.9983 276.684C72.1655 274.912 70.2891 273.105 67.985 272.009C62.984 269.631 55.6002 268.365 50.093 268.885C40.9638 269.74 33.9859 275.881 27.1739 281.437C24.3898 283.706 21.5621 285.923 18.8172 288.241C17.3902 289.441 15.9893 290.668 14.6278 291.938C13.8772 292.636 10.5607 294.84 12.1841 295.826C12.9346 296.28 14.2571 296.031 15.108 296.04C16.4172 296.049 17.7219 296.045 19.0223 296.005C21.5577 295.935 24.0888 295.761 26.5981 295.399C27.5319 295.263 28.4657 295.106 29.3865 294.919Z" fill="#FAA940"/>
<path opacity="0.18" d="M107.058 310.988C106.953 311.373 106.87 311.805 106.822 312.285C106.521 315.418 107.787 318.473 109.139 321.315C110.85 324.911 112.792 328.477 115.65 331.244C116.069 331.65 116.536 332.056 117.112 332.152C118.465 332.392 119.455 330.93 119.931 329.642C122.218 323.41 121.576 315.65 116.501 311.019C113.534 308.309 108.319 306.458 107.058 310.988Z" fill="#D5FAFE"/>
<path opacity="0.1" d="M182.348 296.713C182.61 293.767 182.231 290.768 181.266 287.971C180.311 285.195 179.259 282.676 176.313 281.625C172.438 280.237 168.947 283.449 166.503 286.072C164.038 288.721 162.122 291.855 160.625 295.137C157.714 301.531 156.104 308.793 157.78 315.615C158.116 316.994 158.6 318.373 159.513 319.464C160.425 320.556 161.821 321.319 163.239 321.162C164.225 321.053 165.111 320.525 165.94 319.975C166.333 319.713 166.713 319.447 167.097 319.172C168.995 317.793 170.754 316.226 172.342 314.502C173.83 312.892 174.969 310.884 176.514 309.391C179.717 306.306 181.72 301.801 182.266 297.424C182.301 297.193 182.322 296.953 182.348 296.713Z" fill="#D5FAFE"/>
<g opacity="0.22">
<path d="M169.983 28.6699C164.105 33.6279 158.79 39.5592 153.195 44.7354C146.366 51.0552 136.482 61.1021 136.059 63.7077C135.421 67.6313 129.548 98.597 137.403 283.017C137.891 284.108 140.051 284.295 142.286 282.061C136.015 209.96 136.691 69.412 142.238 62.957C146.457 58.047 157.585 50.8675 163.878 42.9897C170.171 35.1162 171.567 31.7905 170.092 28.8533C170.062 28.7878 170.022 28.731 169.983 28.6699Z" fill="#044793"/>
</g>
<g opacity="0.22">
<path d="M102.923 51.5657C106.371 46.0839 115.98 33.9857 123.11 26.8542C130.856 19.1029 131.786 11.0549 130.568 7.47168C125.323 16.0129 117.909 22.7952 112.183 30.9829C107.03 38.3501 102.932 46.2672 96.1636 52.3469C94.741 53.6257 109.115 183.136 127.679 287.752C127.946 289.288 131.376 288.695 132.798 287.267C117.525 210.746 98.747 58.2083 102.923 51.5657Z" fill="#044793"/>
</g>
<g opacity="0.22">
<path d="M152.916 276.872C156.682 209.79 170.184 94.4641 176.45 89.0653C181.351 84.8405 193.426 79.398 200.822 72.5458C207.918 65.9686 209.917 62.8655 209.17 59.8628C194.787 68.9583 181.39 72.5764 170.69 85.8181C167.098 90.2611 145.711 273 149.028 278.901C149.757 280.197 152.916 278.962 152.916 276.872Z" fill="#044793"/>
</g>
<g opacity="0.22">
<path d="M202.553 114.086C208.047 110.656 220.802 107.112 229.159 101.464C237.511 95.8169 239.824 93.0585 239.292 89.8157C239.187 89.1436 238.938 88.6112 238.594 88.166C229.368 91.9893 206.881 102.835 200.514 110.556C181.929 133.076 158.412 274.755 158.73 274.742C158.198 278.574 162.776 275.715 163.701 271.634C165.001 251.497 195.069 118.765 202.553 114.086Z" fill="#044793"/>
</g>
<g opacity="0.22">
<path d="M271.971 166.495C256.999 167.062 245.465 172.762 231.88 178.589C230.213 179.304 173.588 268.78 174.12 268.959C171.65 272.446 176.708 271.425 180.195 267.322C179.95 267.37 179.711 267.418 179.471 267.47C179.693 266.907 179.929 266.358 180.225 265.851C181.46 263.743 182.726 261.657 183.996 259.566C187.67 253.526 191.41 247.525 195.18 241.546C203.733 227.95 212.374 214.394 221.455 201.148C224.514 196.679 227.787 190.172 232.264 186.898C237.436 183.119 251.204 180.976 260.263 176.795C269.318 172.609 272.024 170.287 272.024 167.036C272.019 166.844 271.993 166.669 271.971 166.495Z" fill="#044793"/>
</g>
<g opacity="0.22">
<path d="M228.315 137.148C227.962 137.419 227.621 137.702 227.285 138.004C222.97 141.932 220.543 148.116 217.921 153.249C211.593 165.635 205.863 178.336 200.33 191.097C190.463 213.875 181.268 236.954 172.475 260.169C171.197 263.547 169.198 268.038 167.95 271.425C167.269 273.454 170.629 272.381 171.157 268.911C184.554 235.23 223.755 144.895 229.956 141.596C235.668 138.549 249.087 137.655 258.243 133.425C267.394 129.201 270.125 126.852 270.125 123.566C270.125 123.378 270.099 123.199 270.078 123.025C262.759 126.931 254.76 129.388 246.766 131.483C240.499 133.133 233.591 133.12 228.315 137.148Z" fill="#044793"/>
</g>
<g opacity="0.22">
<path d="M53.4278 57.4447C55.8104 51.4261 63.0369 37.7697 68.7404 29.4511C74.9109 20.4516 74.3786 8.87715 72.5458 4.72656C68.3695 14.2891 62.8667 23.1008 57.6475 32.2051C51.6472 42.6666 50.9227 46.1102 47.5625 56.9253C54.2523 97.2397 100.64 246.94 118.397 294.08C119.401 295.084 122.307 294.137 123.983 292.461C94.3563 220.26 50.3774 65.1566 53.4278 57.4447Z" fill="#044793"/>
</g>
<g opacity="0.22">
<path d="M54.2455 188.365C56.8246 193.319 59.3776 198.277 61.9348 203.239C65.631 210.405 69.3184 217.581 73.0058 224.747C77.1515 232.813 81.2885 240.878 85.4342 248.943C89.3617 256.586 93.2891 264.232 97.2122 271.87C100.254 277.779 103.291 283.689 106.333 289.594C106.97 290.829 107.607 292.069 108.244 293.304C108.894 294.561 109.627 296.612 111.063 297.096C111.364 297.197 111.692 297.206 112.006 297.21C112.769 297.223 113.555 297.232 114.257 296.926C114.314 296.904 114.375 296.865 114.402 296.808C114.528 296.525 113.14 294.74 112.913 294.36C112.477 293.614 112.041 292.863 111.604 292.112C110.705 290.554 109.815 288.992 108.934 287.425C107.048 284.086 105.207 280.73 103.387 277.356C99.3724 269.928 95.4798 262.434 91.6615 254.901C87.5158 246.705 83.4529 238.465 79.46 230.19C75.3056 221.57 71.2123 212.919 67.1888 204.243C63.1522 195.545 59.1769 186.824 55.2625 178.074C51.4877 169.642 47.761 161.183 44.091 152.703C40.709 144.873 37.3705 137.026 34.0976 129.153C31.2393 122.27 28.4246 115.37 25.6884 108.435C23.4803 102.839 21.3202 97.2267 19.2779 91.5704C17.8553 87.6075 16.4545 83.6271 15.2894 79.5769C14.7701 77.7482 13.858 75.4132 14.1286 73.471C14.1373 73.4056 14.1506 73.3401 14.168 73.279C15.8874 67.0378 21.6039 54.9876 26.378 46.106C31.3572 36.8402 29.8865 26.5445 27.7438 22.4507C24.8419 31.9826 19.2301 40.8818 15.6343 50.0733C12.8632 57.1437 10.4194 64.3275 7.91016 71.4939C12.1649 90.0035 43.5803 167.87 54.2455 188.365Z" fill="#044793"/>
</g>
<path opacity="0.32" d="M43.1525 57.2657C43.0608 63.0442 44.549 68.3251 46.0021 73.9029C48.4284 83.1861 60.8522 129.279 64.963 143.018C66.9354 149.63 88.9425 219.492 89.5403 221.831C91.203 228.299 93.4854 234.632 95.6717 240.935C98.674 249.572 101.79 258.165 104.932 266.75C107.624 274.113 110.347 281.467 113.044 288.83C113.454 289.956 113.873 291.086 114.275 292.212C114.55 292.963 114.624 294.155 115.204 294.744C116.073 295.634 117.115 294.657 116.897 293.64C116.256 290.763 114.715 287.839 113.699 285.077C111.556 279.285 109.461 273.476 107.406 267.654C103.26 255.913 99.2674 244.112 95.3923 232.276C91.5957 220.679 87.9126 209.048 84.3255 197.386C80.9522 186.427 77.662 175.442 74.4458 164.439C71.57 154.606 68.751 144.751 65.9887 134.883C63.6889 126.656 61.4196 118.42 59.1984 110.171C57.5445 104.039 55.9125 97.8986 54.3066 91.7535C53.3815 88.1964 52.4606 84.6394 51.5616 81.078C51.4002 80.4408 51.2387 79.8036 51.0859 79.1621C49.659 73.3835 45.2689 58.0076 45.426 56.0218C45.5875 54.0883 50.6497 43.0943 52.513 39.5111C57.1605 30.5596 61.8254 21.595 67.0402 12.9622C68.4978 10.553 70.3744 7.81651 70.5795 4.93161C68.7685 3.93652 66.6824 6.36752 65.5609 7.52846C59.277 14.0097 54.9567 21.5645 51.47 29.8133C48.7339 36.2726 46.6348 43.0027 44.6406 49.7239C43.9292 52.1156 43.2398 54.5466 43.1613 57.0431C43.1569 57.1217 43.1568 57.1915 43.1525 57.2657Z" fill="#40DFFA"/>
<path opacity="0.32" d="M12.4444 37.6476C10.3149 41.4926 8.41229 45.5035 7.26023 49.7501C6.4791 52.6176 6.0557 55.5679 5.62804 58.5052C5.14802 61.8353 4.65923 65.161 4.17484 68.4911C3.77773 71.2494 3.37633 74.0732 3.92181 76.8054C5.46225 84.5086 9.23699 92.3471 12.1608 99.6139C16.7297 110.983 54.7216 196.583 61.023 208.428C63.0217 212.182 64.9767 215.961 66.9448 219.737C70.6584 226.864 74.3547 234.004 78.0334 241.153C82.262 249.362 86.4643 257.585 90.6187 265.829C94.1447 272.83 97.6575 279.839 101.031 286.918C103.056 291.174 105.146 295.42 107.223 299.623C107.267 299.711 107.31 299.802 107.398 299.846C107.48 299.89 107.581 299.876 107.677 299.859C110.483 299.274 108.305 296.206 107.555 294.705C106.477 292.531 105.259 290.436 104.133 288.289C102.017 284.234 99.9398 280.158 97.8713 276.082C94.7381 269.906 91.6399 263.717 88.559 257.52C84.6664 249.681 80.813 241.829 76.9858 233.96C72.5827 224.913 68.2233 215.848 63.9118 206.765C59.2643 196.963 54.6605 187.138 50.1264 177.284C45.4789 167.184 40.8968 157.05 36.402 146.876C32.0076 136.93 27.7004 126.944 23.5155 116.906C20.6615 110.041 17.8601 103.149 15.1458 96.2227C12.9944 90.7235 10.9215 85.1763 8.66974 79.7164C7.98026 78.0448 6.56624 76.7049 5.98149 75.0595C5.10871 72.5893 6.36991 69.412 7.17286 67.0857C10.3105 57.9553 13.8845 48.982 17.6156 40.0785C19.4833 35.6224 21.3903 31.1881 23.3104 26.7582C23.6639 25.9421 25.5971 22.7561 24.5497 21.8352C23.3279 20.7703 21.3075 24.2487 20.714 25.0255C17.6506 29.019 14.8882 33.2438 12.4444 37.6476Z" fill="#40DFFA"/>
<path opacity="0.32" d="M101.349 41.1957C107.45 32.1831 114.345 23.6986 121.929 15.8907C124.504 13.2414 127.293 10.422 127.947 6.78643C127.384 6.08375 126.263 6.58564 125.547 7.13992C114.559 15.6506 105.761 26.697 98.2641 38.4024C94.9389 43.5961 91.6485 49.1215 91.9802 55.4761C92.3773 63.0441 93.1628 70.5858 93.944 78.1232C94.6814 85.2242 94.7947 92.1244 95.8856 99.1686C98.1068 113.558 99.7827 128.031 101.515 142.49C103.182 156.443 105.338 170.331 107.515 184.219C108.489 190.42 109.335 196.531 109.763 202.733C110.234 209.633 112.39 216.808 113.66 223.616C113.983 225.336 114.301 227.06 114.537 228.793C114.882 231.376 115.03 233.982 115.318 236.574C115.706 240.171 116.357 243.736 117.007 247.298C119.036 258.436 121.571 274.781 123.601 285.923C124.111 288.734 124.177 291.03 126.018 288.668C126.027 285.788 125.551 282.925 125.08 280.084C122.723 265.903 120.371 251.728 118.019 237.552C115.157 220.308 113.149 203.038 111.251 185.698C110.845 181.984 109.872 178.663 109.261 175.018C108.118 168.179 107 161.327 106.18 154.44C105.744 150.774 105.307 147.112 104.862 143.446C103.099 128.794 101.297 114.147 99.4859 99.4959C99.3462 98.3262 99.2022 97.1522 99.0539 95.9782C97.9193 86.7692 97.3171 77.5602 96.4487 68.3382C96.1476 65.1565 96.069 61.8526 95.301 58.7582C94.6944 56.3228 93.8392 53.4642 94.5941 50.9371C95.0261 49.4794 96.5666 48.1613 97.4438 46.9436C98.7966 45.0538 100.053 43.1116 101.349 41.1957Z" fill="#40DFFA"/>
<path opacity="0.32" d="M151.604 44.8532C157.19 39.642 162.645 34.2869 167.951 28.7877C165.848 28.1112 163.548 28.7484 161.545 29.6867C158.259 31.2274 155.405 33.5361 152.603 35.8449C149.627 38.3021 146.359 40.6153 143.937 43.5875C141.253 46.8826 138.739 50.3087 136.4 53.8614C131.334 61.5864 130.849 70.3983 130.108 79.3628C127.716 108.085 131.015 223.376 132.621 252.3C133.167 262.12 133.786 274.13 134.541 283.937C134.581 284.396 134.676 284.946 135.104 285.12C135.872 285.43 136.308 284.234 136.274 283.401C135.632 268.662 135.03 251.723 134.388 236.989C133.769 222.744 133.328 183.97 133.101 179.828C132.809 174.399 132.77 152.733 132.756 147.308C132.726 135.76 132.281 124.221 132.22 112.672C132.172 103.751 132.547 94.8828 133.04 85.9226C133.289 81.3879 133.529 76.8489 133.778 72.3142C133.983 68.4953 133.503 64.013 135.562 60.5913C136.605 58.8499 138.674 57.8417 140.057 56.3142C143.71 52.2814 147.637 48.5455 151.604 44.8532Z" fill="#40DFFA"/>
<path opacity="0.32" d="M195.401 59.9629C187.354 63.9171 180.755 70.2281 174.288 76.4431C172.639 78.0274 170.64 79.5025 169.183 81.2177C167.485 83.2036 166.39 86.0536 165.504 88.4759C162.139 97.6936 161.24 108.103 159.905 117.77C155.956 146.383 152.648 175.066 149.99 203.798C148.637 218.458 147.765 232.428 146.416 247.088C145.893 252.806 144.505 271.848 144.287 274.851C144.234 275.566 142.725 283.414 145.212 280.965C145.539 280.647 145.609 280.154 145.657 279.695C146.154 275.148 146.848 270.617 147.289 266.052C148.005 258.698 148.638 251.335 149.257 243.968C149.929 235.92 150.588 227.863 151.238 219.811C151.749 213.535 152.251 207.259 152.792 200.983C152.958 199.071 153.346 197.072 153.346 195.156C156.554 170.497 159.045 145.729 162.79 121.139C163.837 114.169 164.941 107.212 166.171 100.273C167.04 95.3935 166.992 88.9298 169.789 84.6875C171.753 81.7023 174.873 80.2401 177.644 78.1714C180.734 75.8713 183.841 73.5974 187.013 71.4196C193.441 67.0115 200.175 62.9788 207.423 60.0721C205.926 58.4092 205.464 57.6454 203.068 57.6803C200.375 57.724 197.77 58.802 195.401 59.9629Z" fill="#40DFFA"/>
<path opacity="0.32" d="M232.352 86.8696C225.937 86.2018 217.781 90.4092 212.985 93.1719C207.055 96.5936 201.709 100.923 196.39 105.231C195.403 106.03 194.409 106.841 193.71 107.889C193.152 108.731 192.851 109.709 192.475 110.651C189.787 117.346 187.697 124.29 185.729 131.225C183.141 140.321 180.837 149.495 178.642 158.695C176.185 168.987 173.881 179.317 171.664 189.665C169.452 200.005 167.322 210.366 165.258 220.74C163.416 229.997 161.623 239.259 159.877 248.529C158.502 255.795 157.097 262.966 155.443 270.181C155.086 271.734 154.723 273.301 154.658 274.894C154.649 275.16 154.667 275.466 154.881 275.623C155.125 275.806 155.47 275.684 155.714 275.501C156.5 274.907 156.748 273.855 156.936 272.891C158.804 263.59 160.794 254.338 162.797 245.068C164.874 235.457 166.89 225.838 168.893 216.21C170.883 206.669 172.851 197.129 174.845 187.583C176.39 180.208 177.922 172.832 179.558 165.473C179.824 164.286 180.095 163.095 180.365 161.907C180.562 161.065 181.029 159.992 181.029 159.127C182.574 152.952 187.597 134.542 188.482 131.487C189.124 129.253 190.835 126.036 190.835 123.771C191.969 120.044 193.187 116.399 195.272 113.087C195.931 112.044 196.87 111.201 197.799 110.39C203.428 105.493 209.516 101.111 215.94 97.3181C219.147 95.4152 222.446 93.665 225.819 92.0632C227.617 91.2122 229.625 90.623 231.51 89.9814C232.33 89.7021 235.848 87.8254 236.411 88.1614C235.193 87.4282 233.818 87.0224 232.352 86.8696Z" fill="#40DFFA"/>
<path opacity="0.32" d="M240.754 123.98C237.691 125.242 234.662 126.599 231.682 128.052C229.129 129.296 226.572 130.636 224.525 132.609C223.259 133.827 222.221 135.262 221.243 136.72C214.501 146.785 209.592 158.167 204.7 169.257C193.127 195.492 183.138 222.534 173.424 249.506C173.328 249.781 173.223 250.052 173.132 250.327C170.762 256.917 168.388 263.494 165.957 270.063C165.8 270.495 165.683 271.08 166.062 271.341C166.481 271.625 167.014 271.202 167.319 270.796C169.117 268.439 169.719 264.961 170.718 262.172C176.095 247.232 181.471 232.284 187.441 217.576C189.3 212.989 196.103 195.535 197.857 191.35C201.811 181.918 205.573 172.391 210.163 163.239C212.921 157.761 215.959 152.432 219.101 147.169C221.911 142.473 224.35 137.562 228.836 134.25C232.528 131.535 237.176 130.579 241.644 129.558C246.257 128.506 250.346 127.76 254.705 125.805C258.986 123.889 263.302 121.746 268.041 121.331C266.265 120.38 265.152 119.847 263.088 119.59C259.519 119.14 255.888 119.476 252.379 120.214C248.391 121.052 244.524 122.431 240.754 123.98Z" fill="#40DFFA"/>
<path opacity="0.32" d="M247.666 170.37C251.764 168.742 255.888 167.106 260.195 166.167C263.407 165.465 266.715 165.155 270.005 165.251C266.588 164.387 263.101 163.514 259.584 163.741C257.127 163.893 254.736 164.574 252.397 165.329C245.991 167.394 239.986 169.528 234.248 172.989C228.413 176.502 225.131 180.731 221.697 186.628C214.623 198.783 206.912 210.545 199.376 222.412C191.888 234.191 184.914 246.229 177.976 258.318C176.051 261.674 174.179 265.066 172.359 268.483C172.167 268.845 172.146 269.487 172.551 269.456C172.7 269.447 172.813 269.325 172.909 269.212C174.716 267.073 175.842 264.45 177.304 262.058C179.032 259.221 180.764 256.376 182.497 253.535C185.962 247.856 189.422 242.174 192.891 236.491C199.057 226.375 205.228 216.254 211.765 206.372C217.381 197.879 223.268 189.565 229.408 181.443C231.245 179.007 233.362 176.336 236.154 174.975C239.838 173.181 243.857 171.885 247.666 170.37Z" fill="#40DFFA"/>
<path opacity="0.18" d="M165.578 276.776C168.471 275.898 171.39 275.113 174.327 274.415C155.65 282.55 144.906 313.341 121.411 308.592C120.167 308.339 113.434 304.935 115.707 303.102C130.444 291.235 147.485 282.257 165.578 276.776Z" fill="#D5FAFE"/>
<path opacity="0.18" d="M220.774 263.984C222.24 264.067 223.698 264.189 225.155 264.35C235.009 265.437 243.497 269.125 252.805 271.957C261.807 274.698 270.614 279.373 279.612 281.681C287.873 283.798 296.443 284.806 304.966 284.283C317.953 283.48 329.443 278.823 340.64 272.167C337.638 278.055 331.11 281.175 324.843 283.261C310.704 287.966 295.719 289.712 281.056 286.976C267.463 284.435 255.27 277.374 241.904 274.031C231.23 271.364 220.167 270.98 209.218 271.307C204.178 271.46 199.155 271.565 194.167 271.547C191.331 271.543 188.481 271.957 185.636 271.971C184.113 271.979 179.915 271.054 178.676 271.739C191.314 264.747 206.526 263.163 220.774 263.984Z" fill="#D5FAFE"/>
<path opacity="0.32" d="M53.6414 298.323C55.5353 297.214 56.8881 295.154 57.9834 293.295C49.1029 298.022 39.1841 300.811 29.1429 301.404C26.7209 301.548 24.2683 301.57 21.9336 302.233C30.7486 301.937 39.8603 302.294 48.5051 300.217C50.2856 299.785 52.0573 299.248 53.6414 298.323Z" fill="#FAA940"/>
<path d="M22.1754 289.607C20.7353 290.637 19.6052 292.108 19.0117 293.775C19.4874 292.789 20.4475 292.126 21.4512 291.685C22.5422 291.205 23.9603 291.052 24.9335 290.362C25.1909 290.183 25.4485 289.952 25.5096 289.642C25.8849 287.586 22.961 289.062 22.2846 289.533C22.2497 289.559 22.2103 289.581 22.1754 289.607Z" fill="black"/>
<path opacity="0.47" d="M115.824 304.39C115.881 304.403 115.924 304.411 115.972 304.424C117.155 304.739 118.054 305.86 119.289 306.179C121.034 306.637 122.976 305.895 124.669 306.532C127.345 307.541 127.585 310.552 127.868 312.931C127.602 310.735 126.036 308.741 123.958 307.968C121.938 307.218 119.699 307.514 117.622 307.021C115.702 306.572 113.856 305.773 111.914 305.372C111.059 305.197 110.199 305.022 109.344 304.843C109.863 304.809 110.382 304.769 110.902 304.686C111.225 304.634 111.547 304.568 111.879 304.516C113.009 304.341 114.676 304.136 115.824 304.39Z" fill="white"/>
<path opacity="0.47" d="M121.074 299.296C122.357 299.235 123.64 299.174 124.923 299.113C126.342 299.047 127.838 298.999 129.095 299.667C131.775 301.103 132.102 305.079 134.646 306.75C135.837 307.536 137.33 307.676 138.752 307.794C139.463 307.85 140.171 307.911 140.882 307.968C141.798 308.042 142.741 308.125 143.587 308.492C144.43 308.854 145.185 309.566 145.355 310.478C145.246 309.902 144.722 309.478 144.164 309.299C143.605 309.125 143.007 309.151 142.427 309.181C139.926 309.291 137.339 309.299 135.026 308.339C133.564 307.732 132.255 306.746 131.277 305.502C130.195 304.132 129.475 302.43 128.105 301.338C126.695 300.212 124.805 299.903 123.003 299.754C121.677 299.645 120.267 299.636 118.988 299.252C119.691 299.278 120.372 299.327 121.074 299.296Z" fill="white"/>
<path opacity="0.47" d="M140.107 293.731C140.368 294.089 140.539 294.504 140.7 294.91C140.927 295.468 141.154 296.018 141.372 296.573C141.603 297.149 141.852 297.751 142.332 298.139C142.969 298.659 143.877 298.694 144.684 298.58C145.5 298.467 146.308 298.236 147.124 298.305C148.747 298.441 150.082 299.781 150.658 301.308C151.234 302.836 151.187 304.516 151.038 306.144C151.195 305.031 151.235 303.883 150.925 302.805C150.615 301.727 149.912 300.723 148.9 300.252C148.18 299.911 147.355 299.859 146.561 299.868C145.732 299.872 144.903 299.946 144.091 300.073C143.436 300.173 142.756 300.317 142.114 300.138C141.66 300.016 141.267 299.746 140.914 299.444C140.286 298.925 139.74 298.297 139.435 297.546C139.116 296.756 139.064 295.857 138.627 295.128C138.043 294.159 136.934 293.749 135.874 293.531C135.132 293.373 134.294 293.264 133.53 293.199C132.758 293.129 131.894 292.828 131.156 292.793C131.789 292.824 132.422 292.767 133.037 292.623C133.443 292.531 133.849 292.396 134.263 292.343C134.665 292.295 135.066 292.322 135.463 292.343C137.1 292.444 138.994 292.234 140.107 293.731Z" fill="white"/>
<path opacity="0.47" d="M155.517 287.792C157.114 288.163 157.991 289.921 159.405 290.711C160.784 291.484 162.377 291.877 163.952 291.912C166.605 291.973 169.202 291.117 171.611 289.996C173.125 289.289 174.7 288.446 176.372 288.595C177.777 288.717 179.047 289.555 179.989 290.607C180.936 291.663 181.586 292.933 182.241 294.19C182.018 292.553 181.482 290.921 180.448 289.633C179.418 288.342 177.847 287.425 176.197 287.416C174.338 287.403 172.946 288.564 171.235 288.922C169.35 289.315 167.391 289.433 165.475 289.345C163.69 289.258 160.719 289.227 159.322 288.001C158.982 287.704 158.733 287.32 158.419 286.997C157.284 285.836 155.499 285.623 153.88 285.701C153.169 285.736 152.431 285.81 151.751 285.596C151.367 285.478 151.018 285.278 150.647 285.129C148.67 284.331 146.431 285.19 144.555 286.207C146.012 285.623 147.596 285.025 149.119 285.404C150.887 285.841 152.213 287.508 154.024 287.691C154.517 287.744 155.032 287.674 155.517 287.792Z" fill="white"/>
<path opacity="0.47" d="M191.825 280.555C190.498 280.101 189.111 279.874 187.758 279.516C186.972 279.307 186.187 279.045 185.532 278.556C184.921 278.106 184.472 277.478 183.909 276.967C181.945 275.174 178.96 274.995 176.351 275.545C175.43 275.741 174.509 276.02 173.741 276.575C173.056 277.072 172.506 277.788 171.716 278.124C170.455 278.665 169.024 278.08 167.758 277.552C166.541 277.042 165.406 276.61 164.066 276.535C165.611 277.609 167.265 278.521 169.002 279.246C169.748 279.556 170.516 279.835 171.311 279.948C172.951 280.18 174.81 279.669 175.975 278.456C177.184 277.203 179.135 276.845 180.863 277.011C182.368 277.159 183.865 277.906 184.664 279.193C185.118 279.918 185.331 280.791 185.921 281.41C186.75 282.292 188.085 282.432 189.294 282.423C190.743 282.414 192.209 282.275 193.627 282.567C195.05 282.855 196.459 283.676 197.005 285.02C196.193 282.982 193.841 281.245 191.825 280.555Z" fill="white"/>
<path opacity="0.47" d="M193.867 269.098C195.36 269.002 196.883 269.037 198.314 269.483C199.741 269.928 201.072 270.831 201.788 272.136C202.067 272.642 202.255 273.21 202.595 273.672C203.241 274.563 204.336 274.986 205.401 275.257C206.466 275.527 207.583 275.702 208.525 276.256C209.211 276.662 209.782 277.26 210.145 277.967C210.415 278.482 210.568 279.137 210.249 279.626C210.511 278.814 210.105 277.893 209.442 277.356C208.774 276.823 207.897 276.623 207.042 276.583C206.195 276.544 205.34 276.653 204.485 276.662C203.555 276.675 202.621 276.57 201.718 276.352C201.277 276.247 200.836 276.108 200.492 275.815C199.741 275.169 199.724 274.03 199.335 273.114C198.65 271.503 196.839 270.691 195.128 270.329C192.584 269.788 190.337 270.185 187.832 270.547C188.011 269.784 189.608 269.696 190.241 269.57C191.437 269.334 192.654 269.173 193.867 269.098Z" fill="white"/>
<path opacity="0.47" d="M213.765 267.776C213.062 266.057 208.716 264.263 207.027 265.328C208.498 264.403 210.606 264.402 212.286 264.581C213.202 264.677 214.145 264.913 214.852 265.507C215.833 266.34 216.165 267.719 216.156 269.007C216.156 269.173 216.152 269.352 216.217 269.509C216.287 269.67 216.414 269.793 216.558 269.893C217.418 270.521 218.587 270.456 219.643 270.644C221.284 270.927 222.794 271.901 223.736 273.275C224.683 274.65 225.037 276.413 224.71 278.046C224.762 276.719 224.299 275.405 223.553 274.31C222.851 273.284 221.873 272.424 220.721 271.975C218.976 271.294 217.007 271.582 215.166 271.242C214.939 271.198 214.712 271.141 214.529 270.997C214.311 270.814 214.215 270.53 214.158 270.251C213.983 269.435 214.083 268.553 213.765 267.776Z" fill="white"/>
<path opacity="0.47" d="M231.885 265.917C232.928 266.091 234.014 266.288 234.879 266.908C235.603 267.427 236.1 268.191 236.55 268.963C237.881 271.237 238.933 273.668 239.674 276.195C240.198 277.976 240.6 279.857 241.708 281.35C239.037 279.569 238.658 275.894 237.296 272.987C235.232 268.597 229.952 265.581 225.121 266.118C226.4 265.987 227.447 265.402 228.73 265.419C229.786 265.424 230.842 265.738 231.885 265.917Z" fill="white"/>
<path opacity="0.47" d="M249.243 276.348C250.307 277.675 251.638 278.91 253.297 279.298C250.945 278.744 248.706 277.924 246.882 276.287C244.848 274.463 243.635 272.001 240.969 270.945C241.881 270.583 242.92 270.67 243.836 271.01C246.515 272.001 247.576 274.262 249.243 276.348Z" fill="white"/>
<path opacity="0.47" d="M262.248 283.204C263.195 284.802 264.522 286.172 266.089 287.167C264.038 286.604 262.161 285.422 260.765 283.815C259.647 282.528 258.871 281.009 258.011 279.551C256.724 277.391 255.131 275.466 252.84 274.332C255.188 275.239 257.78 276.243 259.429 278.216C260.66 279.678 261.284 281.572 262.248 283.204Z" fill="white"/>
<path opacity="0.47" d="M97.3985 299.152C97.6036 299.204 97.8087 299.274 98.0138 299.37C99.5543 300.099 100.248 301.832 101.544 302.857C103.176 304.154 105.397 304.551 107.357 305.088C102.605 303.787 100.344 299.518 96.7178 296.616C94.1824 294.578 90.6868 294.351 87.4358 294.216C84.6865 294.098 81.898 293.98 79.2186 294.578C78.8302 294.665 78.4287 294.774 78.1538 295.054C77.8919 295.329 77.7872 295.717 77.5952 296.049C77.0105 297.07 75.745 297.428 74.6627 297.891C73.5761 298.353 72.4327 299.3 72.6422 300.461C73.8335 298.934 75.7669 298.013 77.7044 298.061C78.4376 298.078 79.1794 298.227 79.9082 298.148C80.8857 298.039 81.7627 297.537 82.6748 297.184C84.6123 296.42 86.7988 296.302 88.8061 296.847C90.8266 297.393 92.6681 298.589 94.7409 298.864C95.6224 298.977 96.5432 298.934 97.3985 299.152Z" fill="white"/>
<path opacity="0.47" d="M84.4982 298.633C84.5287 298.829 84.7033 298.969 84.8735 299.069C85.6022 299.501 86.4617 299.706 87.3127 299.649C87.6269 299.628 87.9631 299.553 88.1682 299.309C88.4606 298.942 88.2553 298.235 87.9498 297.921C87.5134 297.472 86.645 297.454 86.0646 297.506C85.8246 297.528 85.5804 297.572 85.3622 297.677C85.1048 297.808 84.4545 298.31 84.4982 298.633Z" fill="white"/>
<path opacity="0.47" d="M76.6347 296.211C76.7656 295.809 76.8616 295.146 76.3947 294.936C76.1765 294.836 75.9276 294.84 75.6963 294.871C75.2425 294.927 74.8891 295.124 74.6011 295.482C74.4091 295.717 74.3086 296.049 74.4133 296.337C74.4875 296.534 74.6621 296.695 74.8541 296.782C75.0505 296.874 75.2774 296.9 75.4912 296.892C75.7269 296.887 75.9625 296.843 76.172 296.73C76.3815 296.621 76.5561 296.442 76.6347 296.211Z" fill="white"/>
<path opacity="0.47" d="M95.575 300.474C95.5619 300.728 95.7191 300.963 95.8981 301.138C96.557 301.788 98.3635 302.273 98.4289 300.902C98.4725 300.021 97.962 299.466 97.0761 299.466C96.5219 299.471 95.6055 299.815 95.575 300.474Z" fill="white"/>
<path opacity="0.47" d="M75.2037 300.06C75.3521 300.156 75.5309 300.191 75.7055 300.222C76.1026 300.287 76.6176 300.318 76.875 299.938C77.1281 299.554 76.9231 299.082 76.5783 298.834C75.8365 298.301 74.3658 299.536 75.2037 300.06Z" fill="white"/>
</svg>
