<svg width="30" height="22" viewBox="0 0 30 22" fill="none" xmlns="http://www.w3.org/2000/svg">
<path d="M19.3771 10.245H17.2783V8.11063C17.2811 7.68016 16.9403 7.3288 16.517 7.32593H13.4872C13.0639 7.32593 12.7207 7.67493 12.7207 8.1054V10.2398H10.6271C10.2038 10.2369 9.8583 10.5835 9.85547 11.014V14.0953C9.85547 14.5258 10.1986 14.8748 10.6219 14.8748H12.7207V17.004C12.7179 17.4344 13.0587 17.7858 13.482 17.7887H16.5067C16.93 17.7887 17.2732 17.4397 17.2732 17.0092V14.8748H19.3719C19.7952 14.8777 20.1407 14.531 20.1435 14.1005V11.0245C20.1435 10.594 19.8004 10.245 19.3771 10.245ZM19.1147 13.8285H16.7639C16.6275 13.8285 16.4966 13.8836 16.4002 13.9817C16.3037 14.0798 16.2495 14.2129 16.2495 14.3517V16.7424H13.7495V14.3517C13.7495 14.2129 13.6953 14.0798 13.5988 13.9817C13.5024 13.8836 13.3715 13.8285 13.2351 13.8285H10.8843V11.2913H13.2351C13.3715 11.2913 13.5024 11.2362 13.5988 11.1381C13.6953 11.04 13.7495 10.9069 13.7495 10.7682V8.3722H16.2444V10.7629C16.2444 10.9017 16.2986 11.0347 16.395 11.1328C16.4915 11.231 16.6223 11.2861 16.7588 11.2861H19.1147V13.8285Z" fill="white"/>
<path d="M23.9506 3.41295H19.7119V1.57151C19.7386 0.731221 19.0904 0.027995 18.2641 0.000857266C18.2221 -0.0005272 18.1799 -0.000112743 18.1379 0.00209966H11.8621C11.0365 -0.0416477 10.3324 0.603511 10.2893 1.44308C10.2871 1.48585 10.2867 1.5287 10.2881 1.57151V3.40249H6.04938C4.41358 3.40249 2.5 4.34937 2.5 7.01213V18.3904C2.5 21.0531 4.41358 22 6.04938 22H23.9506C25.5864 22 27.5 21.0531 27.5 18.3904V7.0226C27.5 4.35983 25.5916 3.41295 23.9506 3.41295ZM11.3169 1.57151C11.3169 1.4198 11.3169 1.01175 11.8673 1.01175H18.1379C18.6883 1.01175 18.6883 1.41457 18.6883 1.57151V3.40249H11.3169V1.57151ZM26.4712 18.3904C26.4712 20.7026 24.7119 20.9537 23.9506 20.9537H6.04938C5.29321 20.9537 3.52881 20.7026 3.52881 18.3904V7.0226C3.52881 4.71033 5.28807 4.45923 6.04938 4.45923H23.9506C24.7068 4.45923 26.4712 4.71033 26.4712 7.0226V18.3904Z" fill="white"/>
</svg>
