<svg width="528" height="158" viewBox="0 0 528 158" fill="none" xmlns="http://www.w3.org/2000/svg">
<path d="M448.18 158H79.0026H39.1204C39.1204 133.609 0 132.699 0 79.0026C0 25.3008 39.1204 24.3907 39.1204 0H79.0026H448.18H488.063C488.063 24.3907 527.183 25.3008 527.183 79.0026C527.183 132.699 488.063 133.615 488.063 158H448.18Z" fill="#EFB07F"/>
<mask id="mask0_593_4710" style="mask-type:luminance" maskUnits="userSpaceOnUse" x="0" y="0" width="528" height="158">
<path d="M448.18 158H79.0026H39.1204C39.1204 133.609 0 132.699 0 79.0026C0 25.3008 39.1204 24.3907 39.1204 0H79.0026H448.18H488.063C488.063 24.3907 527.183 25.3008 527.183 79.0026C527.183 132.699 488.063 133.615 488.063 158H448.18Z" fill="white"/>
</mask>
<g mask="url(#mask0_593_4710)">
<path fill-rule="evenodd" clip-rule="evenodd" d="M516.591 158.454C514.046 158.454 511.988 156.391 511.988 153.851C511.988 151.307 514.052 149.243 516.591 149.243C519.136 149.243 521.194 151.307 521.194 153.851C521.2 156.396 519.136 158.454 516.591 158.454Z" fill="#DFA274"/>
<path fill-rule="evenodd" clip-rule="evenodd" d="M488.111 158.454C485.571 158.454 483.508 156.391 483.508 153.851C483.508 151.307 485.571 149.243 488.111 149.243C490.656 149.243 492.719 151.307 492.719 153.851C492.714 156.396 490.656 158.454 488.111 158.454Z" fill="#DFA274"/>
<path fill-rule="evenodd" clip-rule="evenodd" d="M459.654 158.454C457.109 158.454 455.051 156.391 455.051 153.851C455.051 151.307 457.114 149.243 459.654 149.243C462.193 149.243 464.257 151.307 464.257 153.851C464.262 156.396 462.199 158.454 459.654 158.454Z" fill="#DFA274"/>
<path fill-rule="evenodd" clip-rule="evenodd" d="M431.173 158.454C428.628 158.454 426.57 156.391 426.57 153.851C426.57 151.307 428.634 149.243 431.173 149.243C433.718 149.243 435.776 151.307 435.776 153.851C435.776 156.396 433.718 158.454 431.173 158.454Z" fill="#DFA274"/>
<path fill-rule="evenodd" clip-rule="evenodd" d="M402.716 158.454C400.171 158.454 398.113 156.391 398.113 153.851C398.113 151.307 400.171 149.243 402.716 149.243C405.261 149.243 407.319 151.307 407.319 153.851C407.319 156.396 405.261 158.454 402.716 158.454Z" fill="#DFA274"/>
<path fill-rule="evenodd" clip-rule="evenodd" d="M374.236 158.454C371.696 158.454 369.633 156.391 369.633 153.851C369.633 151.307 371.696 149.243 374.236 149.243C376.781 149.243 378.844 151.307 378.844 153.851C378.839 156.396 376.781 158.454 374.236 158.454Z" fill="#DFA274"/>
<path fill-rule="evenodd" clip-rule="evenodd" d="M345.759 158.454C343.214 158.454 341.156 156.391 341.156 153.851C341.156 151.307 343.214 149.243 345.759 149.243C348.299 149.243 350.362 151.307 350.362 153.851C350.362 156.396 348.304 158.454 345.759 158.454Z" fill="#DFA274"/>
<path fill-rule="evenodd" clip-rule="evenodd" d="M317.294 158.454C314.75 158.454 312.691 156.391 312.691 153.851C312.691 151.307 314.755 149.243 317.294 149.243C319.839 149.243 321.897 151.307 321.897 153.851C321.897 156.396 319.839 158.454 317.294 158.454Z" fill="#DFA274"/>
<path fill-rule="evenodd" clip-rule="evenodd" d="M288.822 158.454C286.277 158.454 284.219 156.391 284.219 153.851C284.219 151.307 286.277 149.243 288.822 149.243C291.367 149.243 293.425 151.307 293.425 153.851C293.425 156.396 291.367 158.454 288.822 158.454Z" fill="#DFA274"/>
<path fill-rule="evenodd" clip-rule="evenodd" d="M260.357 158.454C257.812 158.454 255.754 156.391 255.754 153.851C255.754 151.307 257.817 149.243 260.357 149.243C262.902 149.243 264.96 151.307 264.96 153.851C264.96 156.396 262.902 158.454 260.357 158.454Z" fill="#DFA274"/>
<path fill-rule="evenodd" clip-rule="evenodd" d="M231.88 158.454C229.335 158.454 227.277 156.391 227.277 153.851C227.277 151.307 229.335 149.243 231.88 149.243C234.425 149.243 236.483 151.307 236.483 153.851C236.489 156.396 234.425 158.454 231.88 158.454Z" fill="#DFA274"/>
<path fill-rule="evenodd" clip-rule="evenodd" d="M203.423 158.454C200.884 158.454 198.82 156.391 198.82 153.851C198.82 151.307 200.884 149.243 203.423 149.243C205.968 149.243 208.032 151.307 208.032 153.851C208.026 156.396 205.968 158.454 203.423 158.454Z" fill="#DFA274"/>
<path fill-rule="evenodd" clip-rule="evenodd" d="M174.943 158.454C172.398 158.454 170.34 156.391 170.34 153.851C170.34 151.307 172.398 149.243 174.943 149.243C177.488 149.243 179.546 151.307 179.546 153.851C179.551 156.396 177.488 158.454 174.943 158.454Z" fill="#DFA274"/>
<path fill-rule="evenodd" clip-rule="evenodd" d="M146.486 158.454C143.946 158.454 141.883 156.391 141.883 153.851C141.883 151.307 143.946 149.243 146.486 149.243C149.031 149.243 151.094 151.307 151.094 153.851C151.089 156.396 149.031 158.454 146.486 158.454Z" fill="#DFA274"/>
<path fill-rule="evenodd" clip-rule="evenodd" d="M118.005 158.454C115.46 158.454 113.402 156.391 113.402 153.851C113.402 151.307 115.46 149.243 118.005 149.243C120.55 149.243 122.608 151.307 122.608 153.851C122.608 156.396 120.55 158.454 118.005 158.454Z" fill="#DFA274"/>
<path fill-rule="evenodd" clip-rule="evenodd" d="M89.5444 158.454C86.9995 158.454 84.9414 156.391 84.9414 153.851C84.9414 151.307 87.0048 149.243 89.5444 149.243C92.0893 149.243 94.1527 151.307 94.1527 153.851C94.1474 156.396 92.0893 158.454 89.5444 158.454Z" fill="#DFA274"/>
<path fill-rule="evenodd" clip-rule="evenodd" d="M61.064 158.454C58.5191 158.454 56.4609 156.391 56.4609 153.851C56.4609 151.307 58.5191 149.243 61.064 149.243C63.6089 149.243 65.667 151.307 65.667 153.851C65.667 156.396 63.6089 158.454 61.064 158.454Z" fill="#DFA274"/>
<path fill-rule="evenodd" clip-rule="evenodd" d="M32.6069 158.454C30.0673 158.454 28.0039 156.391 28.0039 153.851C28.0039 151.307 30.0673 149.243 32.6069 149.243C35.1518 149.243 37.2152 151.307 37.2152 153.851C37.2099 156.396 35.1518 158.454 32.6069 158.454Z" fill="#DFA274"/>
<path fill-rule="evenodd" clip-rule="evenodd" d="M4.12645 158.454C1.58156 158.454 -0.476562 156.391 -0.476562 153.851C-0.476562 151.307 1.58156 149.243 4.12645 149.243C6.67134 149.243 8.72946 151.307 8.72946 153.851C8.72946 156.396 6.67134 158.454 4.12645 158.454Z" fill="#DFA274"/>
<path fill-rule="evenodd" clip-rule="evenodd" d="M530.4 144.427C527.855 144.427 525.797 142.364 525.797 139.824C525.797 137.279 527.855 135.216 530.4 135.216C532.939 135.216 535.003 137.279 535.003 139.824C535.003 142.364 532.945 144.427 530.4 144.427Z" fill="#DFA274"/>
<path fill-rule="evenodd" clip-rule="evenodd" d="M501.939 144.427C499.399 144.427 497.336 142.364 497.336 139.824C497.336 137.279 499.399 135.216 501.939 135.216C504.484 135.216 506.547 137.279 506.547 139.824C506.542 142.364 504.479 144.427 501.939 144.427Z" fill="#DFA274"/>
<path fill-rule="evenodd" clip-rule="evenodd" d="M473.458 144.427C470.914 144.427 468.855 142.364 468.855 139.824C468.855 137.279 470.914 135.216 473.458 135.216C476.003 135.216 478.062 137.279 478.062 139.824C478.062 142.364 476.003 144.427 473.458 144.427Z" fill="#DFA274"/>
<path fill-rule="evenodd" clip-rule="evenodd" d="M445.001 144.427C442.457 144.427 440.398 142.364 440.398 139.824C440.398 137.279 442.462 135.216 445.001 135.216C447.546 135.216 449.61 137.279 449.61 139.824C449.604 142.364 447.541 144.427 445.001 144.427Z" fill="#DFA274"/>
<path fill-rule="evenodd" clip-rule="evenodd" d="M416.521 144.427C413.976 144.427 411.918 142.364 411.918 139.824C411.918 137.279 413.981 135.216 416.521 135.216C419.061 135.216 421.124 137.279 421.124 139.824C421.124 142.364 419.061 144.427 416.521 144.427Z" fill="#DFA274"/>
<path fill-rule="evenodd" clip-rule="evenodd" d="M388.064 144.427C385.524 144.427 383.461 142.364 383.461 139.824C383.461 137.279 385.524 135.216 388.064 135.216C390.609 135.216 392.672 137.279 392.672 139.824C392.672 142.364 390.609 144.427 388.064 144.427Z" fill="#DFA274"/>
<path fill-rule="evenodd" clip-rule="evenodd" d="M359.584 144.427C357.039 144.427 354.98 142.364 354.98 139.824C354.98 137.279 357.044 135.216 359.584 135.216C362.128 135.216 364.187 137.279 364.187 139.824C364.187 142.364 362.123 144.427 359.584 144.427Z" fill="#DFA274"/>
<path fill-rule="evenodd" clip-rule="evenodd" d="M331.107 144.427C328.562 144.427 326.504 142.364 326.504 139.824C326.504 137.279 328.567 135.216 331.107 135.216C333.652 135.216 335.715 137.279 335.715 139.824C335.715 142.364 333.652 144.427 331.107 144.427Z" fill="#DFA274"/>
<path fill-rule="evenodd" clip-rule="evenodd" d="M302.642 144.427C300.097 144.427 298.039 142.364 298.039 139.824C298.039 137.279 300.102 135.216 302.642 135.216C305.187 135.216 307.245 137.279 307.245 139.824C307.245 142.364 305.182 144.427 302.642 144.427Z" fill="#DFA274"/>
<path fill-rule="evenodd" clip-rule="evenodd" d="M274.169 144.427C271.63 144.427 269.566 142.364 269.566 139.824C269.566 137.279 271.63 135.216 274.169 135.216C276.714 135.216 278.778 137.279 278.778 139.824C278.778 142.364 276.714 144.427 274.169 144.427Z" fill="#DFA274"/>
<path fill-rule="evenodd" clip-rule="evenodd" d="M245.705 144.427C243.16 144.427 241.102 142.364 241.102 139.824C241.102 137.279 243.165 135.216 245.705 135.216C248.249 135.216 250.308 137.279 250.308 139.824C250.313 142.364 248.249 144.427 245.705 144.427Z" fill="#DFA274"/>
<path fill-rule="evenodd" clip-rule="evenodd" d="M217.228 144.427C214.683 144.427 212.625 142.364 212.625 139.824C212.625 137.279 214.688 135.216 217.228 135.216C219.773 135.216 221.836 137.279 221.836 139.824C221.836 142.364 219.773 144.427 217.228 144.427Z" fill="#DFA274"/>
<path fill-rule="evenodd" clip-rule="evenodd" d="M188.771 144.427C186.226 144.427 184.168 142.364 184.168 139.824C184.168 137.279 186.226 135.216 188.771 135.216C191.311 135.216 193.374 137.279 193.374 139.824C193.374 142.364 191.311 144.427 188.771 144.427Z" fill="#DFA274"/>
<path fill-rule="evenodd" clip-rule="evenodd" d="M160.291 144.427C157.751 144.427 155.688 142.364 155.688 139.824C155.688 137.279 157.751 135.216 160.291 135.216C162.835 135.216 164.899 137.279 164.899 139.824C164.899 142.364 162.835 144.427 160.291 144.427Z" fill="#DFA274"/>
<path fill-rule="evenodd" clip-rule="evenodd" d="M131.834 144.427C129.289 144.427 127.23 142.364 127.23 139.824C127.23 137.279 129.294 135.216 131.834 135.216C134.378 135.216 136.436 137.279 136.436 139.824C136.442 142.364 134.378 144.427 131.834 144.427Z" fill="#DFA274"/>
<path fill-rule="evenodd" clip-rule="evenodd" d="M103.353 144.427C100.808 144.427 98.75 142.364 98.75 139.824C98.75 137.279 100.813 135.216 103.353 135.216C105.898 135.216 107.961 137.279 107.961 139.824C107.961 142.364 105.898 144.427 103.353 144.427Z" fill="#DFA274"/>
<path fill-rule="evenodd" clip-rule="evenodd" d="M74.8921 144.427C72.3472 144.427 70.2891 142.364 70.2891 139.824C70.2891 137.279 72.3472 135.216 74.8921 135.216C77.437 135.216 79.4951 137.279 79.4951 139.824C79.5004 142.364 77.437 144.427 74.8921 144.427Z" fill="#DFA274"/>
<path fill-rule="evenodd" clip-rule="evenodd" d="M46.4116 144.427C43.872 144.427 41.8086 142.364 41.8086 139.824C41.8086 137.279 43.872 135.216 46.4116 135.216C48.9565 135.216 51.0199 137.279 51.0199 139.824C51.0199 142.364 48.9565 144.427 46.4116 144.427Z" fill="#DFA274"/>
<path fill-rule="evenodd" clip-rule="evenodd" d="M17.9546 144.427C15.4097 144.427 13.3516 142.364 13.3516 139.824C13.3516 137.279 15.4097 135.216 17.9546 135.216C20.4942 135.216 22.5576 137.279 22.5576 139.824C22.5629 142.364 20.4995 144.427 17.9546 144.427Z" fill="#DFA274"/>
<path fill-rule="evenodd" clip-rule="evenodd" d="M516.591 130.801C514.046 130.801 511.988 128.737 511.988 126.198C511.988 123.653 514.052 121.595 516.591 121.595C519.136 121.595 521.194 123.658 521.194 126.198C521.2 128.737 519.136 130.801 516.591 130.801Z" fill="#DFA274"/>
<path fill-rule="evenodd" clip-rule="evenodd" d="M488.111 130.801C485.571 130.801 483.508 128.737 483.508 126.198C483.508 123.653 485.571 121.595 488.111 121.595C490.656 121.595 492.719 123.658 492.719 126.198C492.714 128.737 490.656 130.801 488.111 130.801Z" fill="#DFA274"/>
<path fill-rule="evenodd" clip-rule="evenodd" d="M459.654 130.801C457.109 130.801 455.051 128.737 455.051 126.198C455.051 123.653 457.114 121.595 459.654 121.595C462.193 121.595 464.257 123.658 464.257 126.198C464.262 128.737 462.199 130.801 459.654 130.801Z" fill="#DFA274"/>
<path fill-rule="evenodd" clip-rule="evenodd" d="M431.173 130.801C428.628 130.801 426.57 128.737 426.57 126.198C426.57 123.653 428.634 121.595 431.173 121.595C433.718 121.595 435.776 123.658 435.776 126.198C435.776 128.737 433.718 130.801 431.173 130.801Z" fill="#DFA274"/>
<path fill-rule="evenodd" clip-rule="evenodd" d="M402.716 130.801C400.171 130.801 398.113 128.737 398.113 126.198C398.113 123.653 400.171 121.595 402.716 121.595C405.261 121.595 407.319 123.658 407.319 126.198C407.319 128.737 405.261 130.801 402.716 130.801Z" fill="#DFA274"/>
<path fill-rule="evenodd" clip-rule="evenodd" d="M374.236 130.801C371.696 130.801 369.633 128.737 369.633 126.198C369.633 123.653 371.696 121.595 374.236 121.595C376.781 121.595 378.844 123.658 378.844 126.198C378.839 128.737 376.781 130.801 374.236 130.801Z" fill="#DFA274"/>
<path fill-rule="evenodd" clip-rule="evenodd" d="M345.759 130.801C343.214 130.801 341.156 128.737 341.156 126.198C341.156 123.653 343.214 121.595 345.759 121.595C348.299 121.595 350.362 123.658 350.362 126.198C350.362 128.737 348.304 130.801 345.759 130.801Z" fill="#DFA274"/>
<path fill-rule="evenodd" clip-rule="evenodd" d="M317.294 130.801C314.75 130.801 312.691 128.737 312.691 126.198C312.691 123.653 314.755 121.595 317.294 121.595C319.839 121.595 321.897 123.658 321.897 126.198C321.897 128.737 319.839 130.801 317.294 130.801Z" fill="#DFA274"/>
<path fill-rule="evenodd" clip-rule="evenodd" d="M288.822 130.801C286.277 130.801 284.219 128.737 284.219 126.198C284.219 123.653 286.277 121.595 288.822 121.595C291.367 121.595 293.425 123.658 293.425 126.198C293.425 128.737 291.367 130.801 288.822 130.801Z" fill="#DFA274"/>
<path fill-rule="evenodd" clip-rule="evenodd" d="M260.357 130.801C257.812 130.801 255.754 128.737 255.754 126.198C255.754 123.653 257.817 121.595 260.357 121.595C262.902 121.595 264.96 123.658 264.96 126.198C264.96 128.737 262.902 130.801 260.357 130.801Z" fill="#DFA274"/>
<path fill-rule="evenodd" clip-rule="evenodd" d="M231.88 130.801C229.335 130.801 227.277 128.737 227.277 126.198C227.277 123.653 229.335 121.595 231.88 121.595C234.425 121.595 236.483 123.658 236.483 126.198C236.489 128.737 234.425 130.801 231.88 130.801Z" fill="#DFA274"/>
<path fill-rule="evenodd" clip-rule="evenodd" d="M203.423 130.801C200.884 130.801 198.82 128.737 198.82 126.198C198.82 123.653 200.884 121.595 203.423 121.595C205.968 121.595 208.032 123.658 208.032 126.198C208.026 128.737 205.968 130.801 203.423 130.801Z" fill="#DFA274"/>
<path fill-rule="evenodd" clip-rule="evenodd" d="M174.943 130.801C172.398 130.801 170.34 128.737 170.34 126.198C170.34 123.653 172.398 121.595 174.943 121.595C177.488 121.595 179.546 123.658 179.546 126.198C179.551 128.737 177.488 130.801 174.943 130.801Z" fill="#DFA274"/>
<path fill-rule="evenodd" clip-rule="evenodd" d="M146.486 130.801C143.946 130.801 141.883 128.737 141.883 126.198C141.883 123.653 143.946 121.595 146.486 121.595C149.031 121.595 151.094 123.658 151.094 126.198C151.089 128.737 149.031 130.801 146.486 130.801Z" fill="#DFA274"/>
<path fill-rule="evenodd" clip-rule="evenodd" d="M118.005 130.801C115.46 130.801 113.402 128.737 113.402 126.198C113.402 123.653 115.46 121.595 118.005 121.595C120.55 121.595 122.608 123.658 122.608 126.198C122.608 128.737 120.55 130.801 118.005 130.801Z" fill="#DFA274"/>
<path fill-rule="evenodd" clip-rule="evenodd" d="M89.5444 130.801C86.9995 130.801 84.9414 128.737 84.9414 126.198C84.9414 123.653 87.0048 121.595 89.5444 121.595C92.0893 121.595 94.1527 123.658 94.1527 126.198C94.1474 128.737 92.0893 130.801 89.5444 130.801Z" fill="#DFA274"/>
<path fill-rule="evenodd" clip-rule="evenodd" d="M61.064 130.801C58.5191 130.801 56.4609 128.737 56.4609 126.198C56.4609 123.653 58.5191 121.595 61.064 121.595C63.6089 121.595 65.667 123.658 65.667 126.198C65.667 128.737 63.6089 130.801 61.064 130.801Z" fill="#DFA274"/>
<path fill-rule="evenodd" clip-rule="evenodd" d="M32.6069 130.801C30.0673 130.801 28.0039 128.737 28.0039 126.198C28.0039 123.653 30.0673 121.595 32.6069 121.595C35.1518 121.595 37.2152 123.658 37.2152 126.198C37.2099 128.737 35.1518 130.801 32.6069 130.801Z" fill="#DFA274"/>
<path fill-rule="evenodd" clip-rule="evenodd" d="M4.12645 130.801C1.58156 130.801 -0.476562 128.737 -0.476562 126.198C-0.476562 123.653 1.58156 121.595 4.12645 121.595C6.67134 121.595 8.72946 123.658 8.72946 126.198C8.72946 128.737 6.67134 130.801 4.12645 130.801Z" fill="#DFA274"/>
<path d="M530.4 116.768C532.942 116.768 535.003 114.707 535.003 112.165C535.003 109.622 532.942 107.562 530.4 107.562C527.858 107.562 525.797 109.622 525.797 112.165C525.797 114.707 527.858 116.768 530.4 116.768Z" fill="#DFA274"/>
<path fill-rule="evenodd" clip-rule="evenodd" d="M501.939 116.768C499.399 116.768 497.336 114.704 497.336 112.165C497.336 109.62 499.399 107.562 501.939 107.562C504.484 107.562 506.547 109.62 506.547 112.165C506.542 114.709 504.479 116.768 501.939 116.768Z" fill="#DFA274"/>
<path d="M473.458 116.768C476.001 116.768 478.062 114.707 478.062 112.165C478.062 109.622 476.001 107.562 473.458 107.562C470.916 107.562 468.855 109.622 468.855 112.165C468.855 114.707 470.916 116.768 473.458 116.768Z" fill="#DFA274"/>
<path fill-rule="evenodd" clip-rule="evenodd" d="M445.001 116.768C442.457 116.768 440.398 114.704 440.398 112.165C440.398 109.62 442.462 107.562 445.001 107.562C447.546 107.562 449.61 109.62 449.61 112.165C449.604 114.709 447.541 116.768 445.001 116.768Z" fill="#DFA274"/>
<path fill-rule="evenodd" clip-rule="evenodd" d="M416.521 116.768C413.976 116.768 411.918 114.704 411.918 112.165C411.918 109.62 413.981 107.562 416.521 107.562C419.061 107.562 421.124 109.62 421.124 112.165C421.124 114.709 419.061 116.768 416.521 116.768Z" fill="#DFA274"/>
<path fill-rule="evenodd" clip-rule="evenodd" d="M388.064 116.768C385.524 116.768 383.461 114.704 383.461 112.165C383.461 109.62 385.524 107.562 388.064 107.562C390.609 107.562 392.672 109.62 392.672 112.165C392.672 114.709 390.609 116.768 388.064 116.768Z" fill="#DFA274"/>
<path d="M359.584 116.768C362.126 116.768 364.187 114.707 364.187 112.165C364.187 109.622 362.126 107.562 359.584 107.562C357.041 107.562 354.98 109.622 354.98 112.165C354.98 114.707 357.041 116.768 359.584 116.768Z" fill="#DFA274"/>
<path fill-rule="evenodd" clip-rule="evenodd" d="M331.107 116.768C328.562 116.768 326.504 114.704 326.504 112.165C326.504 109.62 328.567 107.562 331.107 107.562C333.652 107.562 335.715 109.62 335.715 112.165C335.715 114.709 333.652 116.768 331.107 116.768Z" fill="#DFA274"/>
<path fill-rule="evenodd" clip-rule="evenodd" d="M302.642 116.768C300.097 116.768 298.039 114.704 298.039 112.165C298.039 109.62 300.102 107.562 302.642 107.562C305.187 107.562 307.245 109.62 307.245 112.165C307.245 114.709 305.182 116.768 302.642 116.768Z" fill="#DFA274"/>
<path fill-rule="evenodd" clip-rule="evenodd" d="M274.169 116.768C271.63 116.768 269.566 114.704 269.566 112.165C269.566 109.62 271.63 107.562 274.169 107.562C276.714 107.562 278.778 109.62 278.778 112.165C278.778 114.709 276.714 116.768 274.169 116.768Z" fill="#DFA274"/>
<path fill-rule="evenodd" clip-rule="evenodd" d="M245.705 116.768C243.16 116.768 241.102 114.704 241.102 112.165C241.102 109.62 243.165 107.562 245.705 107.562C248.249 107.562 250.308 109.62 250.308 112.165C250.313 114.709 248.249 116.768 245.705 116.768Z" fill="#DFA274"/>
<path fill-rule="evenodd" clip-rule="evenodd" d="M217.228 116.768C214.683 116.768 212.625 114.704 212.625 112.165C212.625 109.62 214.688 107.562 217.228 107.562C219.773 107.562 221.836 109.62 221.836 112.165C221.836 114.709 219.773 116.768 217.228 116.768Z" fill="#DFA274"/>
<path fill-rule="evenodd" clip-rule="evenodd" d="M188.771 116.768C186.226 116.768 184.168 114.704 184.168 112.165C184.168 109.62 186.226 107.562 188.771 107.562C191.311 107.562 193.374 109.62 193.374 112.165C193.374 114.709 191.311 116.768 188.771 116.768Z" fill="#DFA274"/>
<path fill-rule="evenodd" clip-rule="evenodd" d="M160.291 116.768C157.751 116.768 155.688 114.704 155.688 112.165C155.688 109.62 157.751 107.562 160.291 107.562C162.835 107.562 164.899 109.62 164.899 112.165C164.899 114.709 162.835 116.768 160.291 116.768Z" fill="#DFA274"/>
<path fill-rule="evenodd" clip-rule="evenodd" d="M131.834 116.768C129.289 116.768 127.23 114.704 127.23 112.165C127.23 109.62 129.294 107.562 131.834 107.562C134.378 107.562 136.436 109.62 136.436 112.165C136.442 114.709 134.378 116.768 131.834 116.768Z" fill="#DFA274"/>
<path fill-rule="evenodd" clip-rule="evenodd" d="M103.353 116.768C100.808 116.768 98.75 114.704 98.75 112.165C98.75 109.62 100.813 107.562 103.353 107.562C105.898 107.562 107.961 109.62 107.961 112.165C107.961 114.709 105.898 116.768 103.353 116.768Z" fill="#DFA274"/>
<path fill-rule="evenodd" clip-rule="evenodd" d="M74.8921 116.768C72.3472 116.768 70.2891 114.704 70.2891 112.165C70.2891 109.62 72.3472 107.562 74.8921 107.562C77.437 107.562 79.4951 109.62 79.4951 112.165C79.5004 114.709 77.437 116.768 74.8921 116.768Z" fill="#DFA274"/>
<path fill-rule="evenodd" clip-rule="evenodd" d="M46.4116 116.768C43.872 116.768 41.8086 114.704 41.8086 112.165C41.8086 109.62 43.872 107.562 46.4116 107.562C48.9565 107.562 51.0199 109.62 51.0199 112.165C51.0199 114.709 48.9565 116.768 46.4116 116.768Z" fill="#DFA274"/>
<path d="M17.9546 116.768C20.4968 116.768 22.5576 114.707 22.5576 112.165C22.5576 109.622 20.4968 107.562 17.9546 107.562C15.4124 107.562 13.3516 109.622 13.3516 112.165C13.3516 114.707 15.4124 116.768 17.9546 116.768Z" fill="#DFA274"/>
<path d="M516.591 103.189C519.133 103.189 521.194 101.129 521.194 98.5864C521.194 96.0442 519.133 93.9834 516.591 93.9834C514.049 93.9834 511.988 96.0442 511.988 98.5864C511.988 101.129 514.049 103.189 516.591 103.189Z" fill="#DFA274"/>
<path fill-rule="evenodd" clip-rule="evenodd" d="M488.111 103.189C485.571 103.189 483.508 101.126 483.508 98.5864C483.508 96.0415 485.571 93.9834 488.111 93.9834C490.656 93.9834 492.719 96.0468 492.719 98.5864C492.714 101.131 490.656 103.189 488.111 103.189Z" fill="#DFA274"/>
<path fill-rule="evenodd" clip-rule="evenodd" d="M459.654 103.189C457.109 103.189 455.051 101.126 455.051 98.5864C455.051 96.0415 457.114 93.9834 459.654 93.9834C462.193 93.9834 464.257 96.0468 464.257 98.5864C464.262 101.131 462.199 103.189 459.654 103.189Z" fill="#DFA274"/>
<path fill-rule="evenodd" clip-rule="evenodd" d="M431.173 103.189C428.628 103.189 426.57 101.126 426.57 98.5864C426.57 96.0415 428.634 93.9834 431.173 93.9834C433.718 93.9834 435.776 96.0468 435.776 98.5864C435.776 101.131 433.718 103.189 431.173 103.189Z" fill="#DFA274"/>
<path d="M402.716 103.189C405.258 103.189 407.319 101.129 407.319 98.5864C407.319 96.0442 405.258 93.9834 402.716 93.9834C400.174 93.9834 398.113 96.0442 398.113 98.5864C398.113 101.129 400.174 103.189 402.716 103.189Z" fill="#DFA274"/>
<path fill-rule="evenodd" clip-rule="evenodd" d="M374.236 103.189C371.696 103.189 369.633 101.126 369.633 98.5864C369.633 96.0415 371.696 93.9834 374.236 93.9834C376.781 93.9834 378.844 96.0468 378.844 98.5864C378.839 101.131 376.781 103.189 374.236 103.189Z" fill="#DFA274"/>
<path d="M345.759 103.189C348.301 103.189 350.362 101.129 350.362 98.5864C350.362 96.0442 348.301 93.9834 345.759 93.9834C343.217 93.9834 341.156 96.0442 341.156 98.5864C341.156 101.129 343.217 103.189 345.759 103.189Z" fill="#DFA274"/>
<path fill-rule="evenodd" clip-rule="evenodd" d="M317.294 103.189C314.75 103.189 312.691 101.126 312.691 98.5864C312.691 96.0415 314.755 93.9834 317.294 93.9834C319.839 93.9834 321.897 96.0468 321.897 98.5864C321.897 101.131 319.839 103.189 317.294 103.189Z" fill="#DFA274"/>
<path d="M288.822 103.189C291.364 103.189 293.425 101.129 293.425 98.5864C293.425 96.0442 291.364 93.9834 288.822 93.9834C286.28 93.9834 284.219 96.0442 284.219 98.5864C284.219 101.129 286.28 103.189 288.822 103.189Z" fill="#DFA274"/>
<path fill-rule="evenodd" clip-rule="evenodd" d="M260.357 103.189C257.812 103.189 255.754 101.126 255.754 98.5864C255.754 96.0415 257.817 93.9834 260.357 93.9834C262.902 93.9834 264.96 96.0468 264.96 98.5864C264.96 101.131 262.902 103.189 260.357 103.189Z" fill="#DFA274"/>
<path d="M231.88 103.189C234.423 103.189 236.483 101.129 236.483 98.5864C236.483 96.0442 234.423 93.9834 231.88 93.9834C229.338 93.9834 227.277 96.0442 227.277 98.5864C227.277 101.129 229.338 103.189 231.88 103.189Z" fill="#DFA274"/>
<path fill-rule="evenodd" clip-rule="evenodd" d="M203.423 103.189C200.884 103.189 198.82 101.126 198.82 98.5864C198.82 96.0415 200.884 93.9834 203.423 93.9834C205.968 93.9834 208.032 96.0468 208.032 98.5864C208.026 101.131 205.968 103.189 203.423 103.189Z" fill="#DFA274"/>
<path d="M174.943 103.189C177.485 103.189 179.546 101.129 179.546 98.5864C179.546 96.0442 177.485 93.9834 174.943 93.9834C172.401 93.9834 170.34 96.0442 170.34 98.5864C170.34 101.129 172.401 103.189 174.943 103.189Z" fill="#DFA274"/>
<path fill-rule="evenodd" clip-rule="evenodd" d="M146.486 103.189C143.946 103.189 141.883 101.126 141.883 98.5864C141.883 96.0415 143.946 93.9834 146.486 93.9834C149.031 93.9834 151.094 96.0468 151.094 98.5864C151.089 101.131 149.031 103.189 146.486 103.189Z" fill="#DFA274"/>
<path d="M118.005 103.189C120.548 103.189 122.608 101.129 122.608 98.5864C122.608 96.0442 120.548 93.9834 118.005 93.9834C115.463 93.9834 113.402 96.0442 113.402 98.5864C113.402 101.129 115.463 103.189 118.005 103.189Z" fill="#DFA274"/>
<path fill-rule="evenodd" clip-rule="evenodd" d="M89.5444 103.189C86.9995 103.189 84.9414 101.126 84.9414 98.5864C84.9414 96.0415 87.0048 93.9834 89.5444 93.9834C92.0893 93.9834 94.1527 96.0468 94.1527 98.5864C94.1474 101.131 92.0893 103.189 89.5444 103.189Z" fill="#DFA274"/>
<path fill-rule="evenodd" clip-rule="evenodd" d="M61.064 103.189C58.5191 103.189 56.4609 101.126 56.4609 98.5864C56.4609 96.0415 58.5191 93.9834 61.064 93.9834C63.6089 93.9834 65.667 96.0468 65.667 98.5864C65.667 101.131 63.6089 103.189 61.064 103.189Z" fill="#DFA274"/>
<path fill-rule="evenodd" clip-rule="evenodd" d="M32.6069 103.189C30.0673 103.189 28.0039 101.126 28.0039 98.5864C28.0039 96.0415 30.0673 93.9834 32.6069 93.9834C35.1518 93.9834 37.2152 96.0468 37.2152 98.5864C37.2099 101.131 35.1518 103.189 32.6069 103.189Z" fill="#DFA274"/>
<path d="M4.12645 103.189C6.66863 103.189 8.72946 101.129 8.72946 98.5864C8.72946 96.0442 6.66863 93.9834 4.12645 93.9834C1.58427 93.9834 -0.476562 96.0442 -0.476562 98.5864C-0.476562 101.129 1.58427 103.189 4.12645 103.189Z" fill="#DFA274"/>
<path d="M530.4 89.1554C532.942 89.1554 535.003 87.0944 535.003 84.5522C535.003 82.01 532.942 79.9492 530.4 79.9492C527.858 79.9492 525.797 82.01 525.797 84.5522C525.797 87.0944 527.858 89.1554 530.4 89.1554Z" fill="#DFA274"/>
<path fill-rule="evenodd" clip-rule="evenodd" d="M501.939 89.1611C499.399 89.1611 497.336 87.0977 497.336 84.5581C497.336 82.0185 499.399 79.9551 501.939 79.9551C504.484 79.9551 506.547 82.0185 506.547 84.5581C506.542 87.0977 504.479 89.1611 501.939 89.1611Z" fill="#DFA274"/>
<path d="M473.458 89.1554C476.001 89.1554 478.062 87.0944 478.062 84.5522C478.062 82.01 476.001 79.9492 473.458 79.9492C470.916 79.9492 468.855 82.01 468.855 84.5522C468.855 87.0944 470.916 89.1554 473.458 89.1554Z" fill="#DFA274"/>
<path fill-rule="evenodd" clip-rule="evenodd" d="M445.001 89.1611C442.457 89.1611 440.398 87.0977 440.398 84.5581C440.398 82.0185 442.462 79.9551 445.001 79.9551C447.546 79.9551 449.61 82.0185 449.61 84.5581C449.604 87.0977 447.541 89.1611 445.001 89.1611Z" fill="#DFA274"/>
<path fill-rule="evenodd" clip-rule="evenodd" d="M416.521 89.1611C413.976 89.1611 411.918 87.0977 411.918 84.5581C411.918 82.0185 413.981 79.9551 416.521 79.9551C419.061 79.9551 421.124 82.0185 421.124 84.5581C421.124 87.0977 419.061 89.1611 416.521 89.1611Z" fill="#DFA274"/>
<path fill-rule="evenodd" clip-rule="evenodd" d="M388.064 89.1611C385.524 89.1611 383.461 87.0977 383.461 84.5581C383.461 82.0185 385.524 79.9551 388.064 79.9551C390.609 79.9551 392.672 82.0185 392.672 84.5581C392.672 87.0977 390.609 89.1611 388.064 89.1611Z" fill="#DFA274"/>
<path d="M359.584 89.1554C362.126 89.1554 364.187 87.0944 364.187 84.5522C364.187 82.01 362.126 79.9492 359.584 79.9492C357.041 79.9492 354.98 82.01 354.98 84.5522C354.98 87.0944 357.041 89.1554 359.584 89.1554Z" fill="#DFA274"/>
<path fill-rule="evenodd" clip-rule="evenodd" d="M331.107 89.1611C328.562 89.1611 326.504 87.0977 326.504 84.5581C326.504 82.0185 328.567 79.9551 331.107 79.9551C333.652 79.9551 335.715 82.0185 335.715 84.5581C335.715 87.0977 333.652 89.1611 331.107 89.1611Z" fill="#DFA274"/>
<path fill-rule="evenodd" clip-rule="evenodd" d="M302.642 89.1611C300.097 89.1611 298.039 87.0977 298.039 84.5581C298.039 82.0185 300.102 79.9551 302.642 79.9551C305.187 79.9551 307.245 82.0185 307.245 84.5581C307.245 87.0977 305.182 89.1611 302.642 89.1611Z" fill="#DFA274"/>
<path fill-rule="evenodd" clip-rule="evenodd" d="M274.169 89.1611C271.63 89.1611 269.566 87.0977 269.566 84.5581C269.566 82.0185 271.63 79.9551 274.169 79.9551C276.714 79.9551 278.778 82.0185 278.778 84.5581C278.778 87.0977 276.714 89.1611 274.169 89.1611Z" fill="#DFA274"/>
<path fill-rule="evenodd" clip-rule="evenodd" d="M245.705 89.1611C243.16 89.1611 241.102 87.0977 241.102 84.5581C241.102 82.0185 243.165 79.9551 245.705 79.9551C248.249 79.9551 250.308 82.0185 250.308 84.5581C250.313 87.0977 248.249 89.1611 245.705 89.1611Z" fill="#DFA274"/>
<path fill-rule="evenodd" clip-rule="evenodd" d="M217.228 89.1611C214.683 89.1611 212.625 87.0977 212.625 84.5581C212.625 82.0185 214.688 79.9551 217.228 79.9551C219.773 79.9551 221.836 82.0185 221.836 84.5581C221.836 87.0977 219.773 89.1611 217.228 89.1611Z" fill="#DFA274"/>
<path fill-rule="evenodd" clip-rule="evenodd" d="M188.771 89.1611C186.226 89.1611 184.168 87.0977 184.168 84.5581C184.168 82.0185 186.226 79.9551 188.771 79.9551C191.311 79.9551 193.374 82.0185 193.374 84.5581C193.374 87.0977 191.311 89.1611 188.771 89.1611Z" fill="#DFA274"/>
<path fill-rule="evenodd" clip-rule="evenodd" d="M160.291 89.1611C157.751 89.1611 155.688 87.0977 155.688 84.5581C155.688 82.0185 157.751 79.9551 160.291 79.9551C162.835 79.9551 164.899 82.0185 164.899 84.5581C164.899 87.0977 162.835 89.1611 160.291 89.1611Z" fill="#DFA274"/>
<path fill-rule="evenodd" clip-rule="evenodd" d="M131.834 89.1611C129.289 89.1611 127.23 87.0977 127.23 84.5581C127.23 82.0185 129.294 79.9551 131.834 79.9551C134.378 79.9551 136.436 82.0185 136.436 84.5581C136.442 87.0977 134.378 89.1611 131.834 89.1611Z" fill="#DFA274"/>
<path fill-rule="evenodd" clip-rule="evenodd" d="M103.353 89.1611C100.808 89.1611 98.75 87.0977 98.75 84.5581C98.75 82.0185 100.813 79.9551 103.353 79.9551C105.898 79.9551 107.961 82.0185 107.961 84.5581C107.961 87.0977 105.898 89.1611 103.353 89.1611Z" fill="#DFA274"/>
<path fill-rule="evenodd" clip-rule="evenodd" d="M74.8921 89.1611C72.3472 89.1611 70.2891 87.0977 70.2891 84.5581C70.2891 82.0185 72.3472 79.9551 74.8921 79.9551C77.437 79.9551 79.4951 82.0185 79.4951 84.5581C79.5004 87.0977 77.437 89.1611 74.8921 89.1611Z" fill="#DFA274"/>
<path fill-rule="evenodd" clip-rule="evenodd" d="M46.4116 89.1611C43.872 89.1611 41.8086 87.0977 41.8086 84.5581C41.8086 82.0185 43.872 79.9551 46.4116 79.9551C48.9565 79.9551 51.0199 82.0185 51.0199 84.5581C51.0199 87.0977 48.9565 89.1611 46.4116 89.1611Z" fill="#DFA274"/>
<path d="M17.9546 89.1554C20.4968 89.1554 22.5576 87.0944 22.5576 84.5522C22.5576 82.01 20.4968 79.9492 17.9546 79.9492C15.4124 79.9492 13.3516 82.01 13.3516 84.5522C13.3516 87.0944 15.4124 89.1554 17.9546 89.1554Z" fill="#DFA274"/>
<path fill-rule="evenodd" clip-rule="evenodd" d="M516.591 75.5355C514.046 75.5355 511.988 73.4721 511.988 70.9325C511.988 68.3877 514.052 66.3242 516.591 66.3242C519.136 66.3242 521.194 68.3877 521.194 70.9325C521.2 73.4721 519.136 75.5355 516.591 75.5355Z" fill="#DFA274"/>
<path fill-rule="evenodd" clip-rule="evenodd" d="M488.111 75.5355C485.571 75.5355 483.508 73.4721 483.508 70.9325C483.508 68.3877 485.571 66.3242 488.111 66.3242C490.656 66.3242 492.719 68.3877 492.719 70.9325C492.714 73.4721 490.656 75.5355 488.111 75.5355Z" fill="#DFA274"/>
<path fill-rule="evenodd" clip-rule="evenodd" d="M459.654 75.5355C457.109 75.5355 455.051 73.4721 455.051 70.9325C455.051 68.3877 457.114 66.3242 459.654 66.3242C462.193 66.3242 464.257 68.3877 464.257 70.9325C464.262 73.4721 462.199 75.5355 459.654 75.5355Z" fill="#DFA274"/>
<path fill-rule="evenodd" clip-rule="evenodd" d="M431.173 75.5355C428.628 75.5355 426.57 73.4721 426.57 70.9325C426.57 68.3877 428.634 66.3242 431.173 66.3242C433.718 66.3242 435.776 68.3877 435.776 70.9325C435.776 73.4721 433.718 75.5355 431.173 75.5355Z" fill="#DFA274"/>
<path fill-rule="evenodd" clip-rule="evenodd" d="M402.716 75.5355C400.171 75.5355 398.113 73.4721 398.113 70.9325C398.113 68.3877 400.171 66.3242 402.716 66.3242C405.261 66.3242 407.319 68.3877 407.319 70.9325C407.319 73.4721 405.261 75.5355 402.716 75.5355Z" fill="#DFA274"/>
<path fill-rule="evenodd" clip-rule="evenodd" d="M374.236 75.5355C371.696 75.5355 369.633 73.4721 369.633 70.9325C369.633 68.3877 371.696 66.3242 374.236 66.3242C376.781 66.3242 378.844 68.3877 378.844 70.9325C378.839 73.4721 376.781 75.5355 374.236 75.5355Z" fill="#DFA274"/>
<path fill-rule="evenodd" clip-rule="evenodd" d="M345.759 75.5355C343.214 75.5355 341.156 73.4721 341.156 70.9325C341.156 68.3877 343.214 66.3242 345.759 66.3242C348.299 66.3242 350.362 68.3877 350.362 70.9325C350.362 73.4721 348.304 75.5355 345.759 75.5355Z" fill="#DFA274"/>
<path fill-rule="evenodd" clip-rule="evenodd" d="M317.294 75.5355C314.75 75.5355 312.691 73.4721 312.691 70.9325C312.691 68.3877 314.755 66.3242 317.294 66.3242C319.839 66.3242 321.897 68.3877 321.897 70.9325C321.897 73.4721 319.839 75.5355 317.294 75.5355Z" fill="#DFA274"/>
<path fill-rule="evenodd" clip-rule="evenodd" d="M288.822 75.5355C286.277 75.5355 284.219 73.4721 284.219 70.9325C284.219 68.3877 286.277 66.3242 288.822 66.3242C291.367 66.3242 293.425 68.3877 293.425 70.9325C293.425 73.4721 291.367 75.5355 288.822 75.5355Z" fill="#DFA274"/>
<path fill-rule="evenodd" clip-rule="evenodd" d="M260.357 75.5355C257.812 75.5355 255.754 73.4721 255.754 70.9325C255.754 68.3877 257.817 66.3242 260.357 66.3242C262.902 66.3242 264.96 68.3877 264.96 70.9325C264.96 73.4721 262.902 75.5355 260.357 75.5355Z" fill="#DFA274"/>
<path fill-rule="evenodd" clip-rule="evenodd" d="M231.88 75.5355C229.335 75.5355 227.277 73.4721 227.277 70.9325C227.277 68.3877 229.335 66.3242 231.88 66.3242C234.425 66.3242 236.483 68.3877 236.483 70.9325C236.489 73.4721 234.425 75.5355 231.88 75.5355Z" fill="#DFA274"/>
<path fill-rule="evenodd" clip-rule="evenodd" d="M203.423 75.5355C200.884 75.5355 198.82 73.4721 198.82 70.9325C198.82 68.3877 200.884 66.3242 203.423 66.3242C205.968 66.3242 208.032 68.3877 208.032 70.9325C208.026 73.4721 205.968 75.5355 203.423 75.5355Z" fill="#DFA274"/>
<path fill-rule="evenodd" clip-rule="evenodd" d="M174.943 75.5355C172.398 75.5355 170.34 73.4721 170.34 70.9325C170.34 68.3877 172.398 66.3242 174.943 66.3242C177.488 66.3242 179.546 68.3877 179.546 70.9325C179.551 73.4721 177.488 75.5355 174.943 75.5355Z" fill="#DFA274"/>
<path fill-rule="evenodd" clip-rule="evenodd" d="M146.486 75.5355C143.946 75.5355 141.883 73.4721 141.883 70.9325C141.883 68.3877 143.946 66.3242 146.486 66.3242C149.031 66.3242 151.094 68.3877 151.094 70.9325C151.089 73.4721 149.031 75.5355 146.486 75.5355Z" fill="#DFA274"/>
<path fill-rule="evenodd" clip-rule="evenodd" d="M118.005 75.5355C115.46 75.5355 113.402 73.4721 113.402 70.9325C113.402 68.3877 115.46 66.3242 118.005 66.3242C120.55 66.3242 122.608 68.3877 122.608 70.9325C122.608 73.4721 120.55 75.5355 118.005 75.5355Z" fill="#DFA274"/>
<path fill-rule="evenodd" clip-rule="evenodd" d="M89.5444 75.5355C86.9995 75.5355 84.9414 73.4721 84.9414 70.9325C84.9414 68.3877 87.0048 66.3242 89.5444 66.3242C92.0893 66.3242 94.1527 68.3877 94.1527 70.9325C94.1474 73.4721 92.0893 75.5355 89.5444 75.5355Z" fill="#DFA274"/>
<path fill-rule="evenodd" clip-rule="evenodd" d="M61.064 75.5355C58.5191 75.5355 56.4609 73.4721 56.4609 70.9325C56.4609 68.3877 58.5191 66.3242 61.064 66.3242C63.6089 66.3242 65.667 68.3877 65.667 70.9325C65.667 73.4721 63.6089 75.5355 61.064 75.5355Z" fill="#DFA274"/>
<path fill-rule="evenodd" clip-rule="evenodd" d="M32.6069 75.5355C30.0673 75.5355 28.0039 73.4721 28.0039 70.9325C28.0039 68.3877 30.0673 66.3242 32.6069 66.3242C35.1518 66.3242 37.2152 68.3877 37.2152 70.9325C37.2099 73.4721 35.1518 75.5355 32.6069 75.5355Z" fill="#DFA274"/>
<path fill-rule="evenodd" clip-rule="evenodd" d="M4.12645 75.5355C1.58156 75.5355 -0.476562 73.4721 -0.476562 70.9325C-0.476562 68.3877 1.58156 66.3242 4.12645 66.3242C6.67134 66.3242 8.72946 68.3877 8.72946 70.9325C8.72946 73.4721 6.67134 75.5355 4.12645 75.5355Z" fill="#DFA274"/>
<path fill-rule="evenodd" clip-rule="evenodd" d="M530.4 61.5023C527.855 61.5023 525.797 59.439 525.797 56.8941C525.797 54.3492 527.855 52.291 530.4 52.291C532.939 52.291 535.003 54.3545 535.003 56.8941C535.003 59.4443 532.945 61.5023 530.4 61.5023Z" fill="#DFA274"/>
<path fill-rule="evenodd" clip-rule="evenodd" d="M501.939 61.5023C499.399 61.5023 497.336 59.439 497.336 56.8941C497.336 54.3492 499.399 52.291 501.939 52.291C504.484 52.291 506.547 54.3545 506.547 56.8941C506.542 59.4443 504.479 61.5023 501.939 61.5023Z" fill="#DFA274"/>
<path fill-rule="evenodd" clip-rule="evenodd" d="M473.458 61.5023C470.914 61.5023 468.855 59.439 468.855 56.8941C468.855 54.3492 470.914 52.291 473.458 52.291C476.003 52.291 478.062 54.3545 478.062 56.8941C478.062 59.4443 476.003 61.5023 473.458 61.5023Z" fill="#DFA274"/>
<path fill-rule="evenodd" clip-rule="evenodd" d="M445.001 61.5023C442.457 61.5023 440.398 59.439 440.398 56.8941C440.398 54.3492 442.462 52.291 445.001 52.291C447.546 52.291 449.61 54.3545 449.61 56.8941C449.604 59.4443 447.541 61.5023 445.001 61.5023Z" fill="#DFA274"/>
<path fill-rule="evenodd" clip-rule="evenodd" d="M416.521 61.5023C413.976 61.5023 411.918 59.439 411.918 56.8941C411.918 54.3492 413.981 52.291 416.521 52.291C419.061 52.291 421.124 54.3545 421.124 56.8941C421.124 59.4443 419.061 61.5023 416.521 61.5023Z" fill="#DFA274"/>
<path fill-rule="evenodd" clip-rule="evenodd" d="M388.064 61.5023C385.524 61.5023 383.461 59.439 383.461 56.8941C383.461 54.3492 385.524 52.291 388.064 52.291C390.609 52.291 392.672 54.3545 392.672 56.8941C392.672 59.4443 390.609 61.5023 388.064 61.5023Z" fill="#DFA274"/>
<path fill-rule="evenodd" clip-rule="evenodd" d="M359.584 61.5023C357.039 61.5023 354.98 59.439 354.98 56.8941C354.98 54.3492 357.044 52.291 359.584 52.291C362.128 52.291 364.187 54.3545 364.187 56.8941C364.187 59.4443 362.123 61.5023 359.584 61.5023Z" fill="#DFA274"/>
<path fill-rule="evenodd" clip-rule="evenodd" d="M331.107 61.5023C328.562 61.5023 326.504 59.439 326.504 56.8941C326.504 54.3492 328.567 52.291 331.107 52.291C333.652 52.291 335.715 54.3545 335.715 56.8941C335.715 59.4443 333.652 61.5023 331.107 61.5023Z" fill="#DFA274"/>
<path fill-rule="evenodd" clip-rule="evenodd" d="M302.642 61.5023C300.097 61.5023 298.039 59.439 298.039 56.8941C298.039 54.3492 300.102 52.291 302.642 52.291C305.187 52.291 307.245 54.3545 307.245 56.8941C307.245 59.4443 305.182 61.5023 302.642 61.5023Z" fill="#DFA274"/>
<path fill-rule="evenodd" clip-rule="evenodd" d="M274.169 61.5023C271.63 61.5023 269.566 59.439 269.566 56.8941C269.566 54.3492 271.63 52.291 274.169 52.291C276.714 52.291 278.778 54.3545 278.778 56.8941C278.778 59.4443 276.714 61.5023 274.169 61.5023Z" fill="#DFA274"/>
<path fill-rule="evenodd" clip-rule="evenodd" d="M245.705 61.5023C243.16 61.5023 241.102 59.439 241.102 56.8941C241.102 54.3492 243.165 52.291 245.705 52.291C248.249 52.291 250.308 54.3545 250.308 56.8941C250.313 59.4443 248.249 61.5023 245.705 61.5023Z" fill="#DFA274"/>
<path fill-rule="evenodd" clip-rule="evenodd" d="M217.228 61.5023C214.683 61.5023 212.625 59.439 212.625 56.8941C212.625 54.3492 214.688 52.291 217.228 52.291C219.773 52.291 221.836 54.3545 221.836 56.8941C221.836 59.4443 219.773 61.5023 217.228 61.5023Z" fill="#DFA274"/>
<path fill-rule="evenodd" clip-rule="evenodd" d="M188.771 61.5023C186.226 61.5023 184.168 59.439 184.168 56.8941C184.168 54.3492 186.226 52.291 188.771 52.291C191.311 52.291 193.374 54.3545 193.374 56.8941C193.374 59.4443 191.311 61.5023 188.771 61.5023Z" fill="#DFA274"/>
<path fill-rule="evenodd" clip-rule="evenodd" d="M160.291 61.5023C157.751 61.5023 155.688 59.439 155.688 56.8941C155.688 54.3492 157.751 52.291 160.291 52.291C162.835 52.291 164.899 54.3545 164.899 56.8941C164.899 59.4443 162.835 61.5023 160.291 61.5023Z" fill="#DFA274"/>
<path fill-rule="evenodd" clip-rule="evenodd" d="M131.834 61.5023C129.289 61.5023 127.23 59.439 127.23 56.8941C127.23 54.3492 129.294 52.291 131.834 52.291C134.378 52.291 136.436 54.3545 136.436 56.8941C136.442 59.4443 134.378 61.5023 131.834 61.5023Z" fill="#DFA274"/>
<path fill-rule="evenodd" clip-rule="evenodd" d="M103.353 61.5023C100.808 61.5023 98.75 59.439 98.75 56.8941C98.75 54.3492 100.813 52.291 103.353 52.291C105.898 52.291 107.961 54.3545 107.961 56.8941C107.961 59.4443 105.898 61.5023 103.353 61.5023Z" fill="#DFA274"/>
<path fill-rule="evenodd" clip-rule="evenodd" d="M74.8921 61.5023C72.3472 61.5023 70.2891 59.439 70.2891 56.8941C70.2891 54.3492 72.3472 52.291 74.8921 52.291C77.437 52.291 79.4951 54.3545 79.4951 56.8941C79.5004 59.4443 77.437 61.5023 74.8921 61.5023Z" fill="#DFA274"/>
<path fill-rule="evenodd" clip-rule="evenodd" d="M46.4116 61.5023C43.872 61.5023 41.8086 59.439 41.8086 56.8941C41.8086 54.3492 43.872 52.291 46.4116 52.291C48.9565 52.291 51.0199 54.3545 51.0199 56.8941C51.0199 59.4443 48.9565 61.5023 46.4116 61.5023Z" fill="#DFA274"/>
<path fill-rule="evenodd" clip-rule="evenodd" d="M17.9546 61.5023C15.4097 61.5023 13.3516 59.439 13.3516 56.8941C13.3516 54.3492 15.4097 52.291 17.9546 52.291C20.4942 52.291 22.5576 54.3545 22.5576 56.8941C22.5629 59.4443 20.4995 61.5023 17.9546 61.5023Z" fill="#DFA274"/>
<path fill-rule="evenodd" clip-rule="evenodd" d="M516.591 48.3086C514.046 48.3086 511.988 46.2451 511.988 43.7055C511.988 41.1606 514.052 39.1025 516.591 39.1025C519.136 39.1025 521.194 41.1659 521.194 43.7055C521.2 46.2451 519.136 48.3086 516.591 48.3086Z" fill="#DFA274"/>
<path fill-rule="evenodd" clip-rule="evenodd" d="M488.111 48.3086C485.571 48.3086 483.508 46.2451 483.508 43.7055C483.508 41.1606 485.571 39.1025 488.111 39.1025C490.656 39.1025 492.719 41.1659 492.719 43.7055C492.714 46.2451 490.656 48.3086 488.111 48.3086Z" fill="#DFA274"/>
<path fill-rule="evenodd" clip-rule="evenodd" d="M459.654 48.3086C457.109 48.3086 455.051 46.2451 455.051 43.7055C455.051 41.1606 457.114 39.1025 459.654 39.1025C462.193 39.1025 464.257 41.1659 464.257 43.7055C464.262 46.2451 462.199 48.3086 459.654 48.3086Z" fill="#DFA274"/>
<path fill-rule="evenodd" clip-rule="evenodd" d="M431.173 48.3086C428.628 48.3086 426.57 46.2451 426.57 43.7055C426.57 41.1606 428.634 39.1025 431.173 39.1025C433.718 39.1025 435.776 41.1659 435.776 43.7055C435.776 46.2451 433.718 48.3086 431.173 48.3086Z" fill="#DFA274"/>
<path fill-rule="evenodd" clip-rule="evenodd" d="M402.716 48.3086C400.171 48.3086 398.113 46.2451 398.113 43.7055C398.113 41.1606 400.171 39.1025 402.716 39.1025C405.261 39.1025 407.319 41.1659 407.319 43.7055C407.319 46.2451 405.261 48.3086 402.716 48.3086Z" fill="#DFA274"/>
<path fill-rule="evenodd" clip-rule="evenodd" d="M374.236 48.3086C371.696 48.3086 369.633 46.2451 369.633 43.7055C369.633 41.1606 371.696 39.1025 374.236 39.1025C376.781 39.1025 378.844 41.1659 378.844 43.7055C378.839 46.2451 376.781 48.3086 374.236 48.3086Z" fill="#DFA274"/>
<path fill-rule="evenodd" clip-rule="evenodd" d="M345.759 48.3086C343.214 48.3086 341.156 46.2451 341.156 43.7055C341.156 41.1606 343.214 39.1025 345.759 39.1025C348.299 39.1025 350.362 41.1659 350.362 43.7055C350.362 46.2451 348.304 48.3086 345.759 48.3086Z" fill="#DFA274"/>
<path fill-rule="evenodd" clip-rule="evenodd" d="M317.294 48.3086C314.75 48.3086 312.691 46.2451 312.691 43.7055C312.691 41.1606 314.755 39.1025 317.294 39.1025C319.839 39.1025 321.897 41.1659 321.897 43.7055C321.897 46.2451 319.839 48.3086 317.294 48.3086Z" fill="#DFA274"/>
<path fill-rule="evenodd" clip-rule="evenodd" d="M288.822 48.3086C286.277 48.3086 284.219 46.2451 284.219 43.7055C284.219 41.1606 286.277 39.1025 288.822 39.1025C291.367 39.1025 293.425 41.1659 293.425 43.7055C293.425 46.2451 291.367 48.3086 288.822 48.3086Z" fill="#DFA274"/>
<path fill-rule="evenodd" clip-rule="evenodd" d="M260.357 48.3086C257.812 48.3086 255.754 46.2451 255.754 43.7055C255.754 41.1606 257.817 39.1025 260.357 39.1025C262.902 39.1025 264.96 41.1659 264.96 43.7055C264.96 46.2451 262.902 48.3086 260.357 48.3086Z" fill="#DFA274"/>
<path fill-rule="evenodd" clip-rule="evenodd" d="M231.88 48.3086C229.335 48.3086 227.277 46.2451 227.277 43.7055C227.277 41.1606 229.335 39.1025 231.88 39.1025C234.425 39.1025 236.483 41.1659 236.483 43.7055C236.489 46.2451 234.425 48.3086 231.88 48.3086Z" fill="#DFA274"/>
<path fill-rule="evenodd" clip-rule="evenodd" d="M203.423 48.3086C200.884 48.3086 198.82 46.2451 198.82 43.7055C198.82 41.1606 200.884 39.1025 203.423 39.1025C205.968 39.1025 208.032 41.1659 208.032 43.7055C208.026 46.2451 205.968 48.3086 203.423 48.3086Z" fill="#DFA274"/>
<path fill-rule="evenodd" clip-rule="evenodd" d="M174.943 48.3086C172.398 48.3086 170.34 46.2451 170.34 43.7055C170.34 41.1606 172.398 39.1025 174.943 39.1025C177.488 39.1025 179.546 41.1659 179.546 43.7055C179.551 46.2451 177.488 48.3086 174.943 48.3086Z" fill="#DFA274"/>
<path fill-rule="evenodd" clip-rule="evenodd" d="M146.486 48.3086C143.946 48.3086 141.883 46.2451 141.883 43.7055C141.883 41.1606 143.946 39.1025 146.486 39.1025C149.031 39.1025 151.094 41.1659 151.094 43.7055C151.089 46.2451 149.031 48.3086 146.486 48.3086Z" fill="#DFA274"/>
<path fill-rule="evenodd" clip-rule="evenodd" d="M118.005 48.3086C115.46 48.3086 113.402 46.2451 113.402 43.7055C113.402 41.1606 115.46 39.1025 118.005 39.1025C120.55 39.1025 122.608 41.1659 122.608 43.7055C122.608 46.2451 120.55 48.3086 118.005 48.3086Z" fill="#DFA274"/>
<path fill-rule="evenodd" clip-rule="evenodd" d="M89.5444 48.3086C86.9995 48.3086 84.9414 46.2451 84.9414 43.7055C84.9414 41.1606 87.0048 39.1025 89.5444 39.1025C92.0893 39.1025 94.1527 41.1659 94.1527 43.7055C94.1474 46.2451 92.0893 48.3086 89.5444 48.3086Z" fill="#DFA274"/>
<path fill-rule="evenodd" clip-rule="evenodd" d="M61.064 48.3086C58.5191 48.3086 56.4609 46.2451 56.4609 43.7055C56.4609 41.1606 58.5191 39.1025 61.064 39.1025C63.6089 39.1025 65.667 41.1659 65.667 43.7055C65.667 46.2451 63.6089 48.3086 61.064 48.3086Z" fill="#DFA274"/>
<path fill-rule="evenodd" clip-rule="evenodd" d="M32.6069 48.3086C30.0673 48.3086 28.0039 46.2451 28.0039 43.7055C28.0039 41.1606 30.0673 39.1025 32.6069 39.1025C35.1518 39.1025 37.2152 41.1659 37.2152 43.7055C37.2099 46.2451 35.1518 48.3086 32.6069 48.3086Z" fill="#DFA274"/>
<path fill-rule="evenodd" clip-rule="evenodd" d="M4.12645 48.3086C1.58156 48.3086 -0.476562 46.2451 -0.476562 43.7055C-0.476562 41.1606 1.58156 39.1025 4.12645 39.1025C6.67134 39.1025 8.72946 41.1659 8.72946 43.7055C8.72946 46.2451 6.67134 48.3086 4.12645 48.3086Z" fill="#DFA274"/>
<path fill-rule="evenodd" clip-rule="evenodd" d="M530.4 34.2764C527.855 34.2764 525.797 32.213 525.797 29.6734C525.797 27.1285 527.855 25.0703 530.4 25.0703C532.939 25.0703 535.003 27.1338 535.003 29.6734C535.003 32.2183 532.945 34.2764 530.4 34.2764Z" fill="#DFA274"/>
<path fill-rule="evenodd" clip-rule="evenodd" d="M501.939 34.2764C499.399 34.2764 497.336 32.213 497.336 29.6734C497.336 27.1285 499.399 25.0703 501.939 25.0703C504.484 25.0703 506.547 27.1338 506.547 29.6734C506.542 32.2183 504.479 34.2764 501.939 34.2764Z" fill="#DFA274"/>
<path fill-rule="evenodd" clip-rule="evenodd" d="M473.458 34.2764C470.914 34.2764 468.855 32.213 468.855 29.6734C468.855 27.1285 470.914 25.0703 473.458 25.0703C476.003 25.0703 478.062 27.1338 478.062 29.6734C478.062 32.2183 476.003 34.2764 473.458 34.2764Z" fill="#DFA274"/>
<path fill-rule="evenodd" clip-rule="evenodd" d="M445.001 34.2764C442.457 34.2764 440.398 32.213 440.398 29.6734C440.398 27.1285 442.462 25.0703 445.001 25.0703C447.546 25.0703 449.61 27.1338 449.61 29.6734C449.604 32.2183 447.541 34.2764 445.001 34.2764Z" fill="#DFA274"/>
<path fill-rule="evenodd" clip-rule="evenodd" d="M416.521 34.2764C413.976 34.2764 411.918 32.213 411.918 29.6734C411.918 27.1285 413.981 25.0703 416.521 25.0703C419.061 25.0703 421.124 27.1338 421.124 29.6734C421.124 32.2183 419.061 34.2764 416.521 34.2764Z" fill="#DFA274"/>
<path fill-rule="evenodd" clip-rule="evenodd" d="M388.064 34.2764C385.524 34.2764 383.461 32.213 383.461 29.6734C383.461 27.1285 385.524 25.0703 388.064 25.0703C390.609 25.0703 392.672 27.1338 392.672 29.6734C392.672 32.2183 390.609 34.2764 388.064 34.2764Z" fill="#DFA274"/>
<path fill-rule="evenodd" clip-rule="evenodd" d="M359.584 34.2764C357.039 34.2764 354.98 32.213 354.98 29.6734C354.98 27.1285 357.044 25.0703 359.584 25.0703C362.128 25.0703 364.187 27.1338 364.187 29.6734C364.187 32.2183 362.123 34.2764 359.584 34.2764Z" fill="#DFA274"/>
<path fill-rule="evenodd" clip-rule="evenodd" d="M331.107 34.2764C328.562 34.2764 326.504 32.213 326.504 29.6734C326.504 27.1285 328.567 25.0703 331.107 25.0703C333.652 25.0703 335.715 27.1338 335.715 29.6734C335.715 32.2183 333.652 34.2764 331.107 34.2764Z" fill="#DFA274"/>
<path fill-rule="evenodd" clip-rule="evenodd" d="M302.642 34.2764C300.097 34.2764 298.039 32.213 298.039 29.6734C298.039 27.1285 300.102 25.0703 302.642 25.0703C305.187 25.0703 307.245 27.1338 307.245 29.6734C307.245 32.2183 305.182 34.2764 302.642 34.2764Z" fill="#DFA274"/>
<path fill-rule="evenodd" clip-rule="evenodd" d="M274.169 34.2764C271.63 34.2764 269.566 32.213 269.566 29.6734C269.566 27.1285 271.63 25.0703 274.169 25.0703C276.714 25.0703 278.778 27.1338 278.778 29.6734C278.778 32.2183 276.714 34.2764 274.169 34.2764Z" fill="#DFA274"/>
<path fill-rule="evenodd" clip-rule="evenodd" d="M245.705 34.2764C243.16 34.2764 241.102 32.213 241.102 29.6734C241.102 27.1285 243.165 25.0703 245.705 25.0703C248.249 25.0703 250.308 27.1338 250.308 29.6734C250.313 32.2183 248.249 34.2764 245.705 34.2764Z" fill="#DFA274"/>
<path fill-rule="evenodd" clip-rule="evenodd" d="M217.228 34.2764C214.683 34.2764 212.625 32.213 212.625 29.6734C212.625 27.1285 214.688 25.0703 217.228 25.0703C219.773 25.0703 221.836 27.1338 221.836 29.6734C221.836 32.2183 219.773 34.2764 217.228 34.2764Z" fill="#DFA274"/>
<path fill-rule="evenodd" clip-rule="evenodd" d="M188.771 34.2764C186.226 34.2764 184.168 32.213 184.168 29.6734C184.168 27.1285 186.226 25.0703 188.771 25.0703C191.311 25.0703 193.374 27.1338 193.374 29.6734C193.374 32.2183 191.311 34.2764 188.771 34.2764Z" fill="#DFA274"/>
<path fill-rule="evenodd" clip-rule="evenodd" d="M160.291 34.2764C157.751 34.2764 155.688 32.213 155.688 29.6734C155.688 27.1285 157.751 25.0703 160.291 25.0703C162.835 25.0703 164.899 27.1338 164.899 29.6734C164.899 32.2183 162.835 34.2764 160.291 34.2764Z" fill="#DFA274"/>
<path fill-rule="evenodd" clip-rule="evenodd" d="M131.834 34.2764C129.289 34.2764 127.23 32.213 127.23 29.6734C127.23 27.1285 129.294 25.0703 131.834 25.0703C134.378 25.0703 136.436 27.1338 136.436 29.6734C136.442 32.2183 134.378 34.2764 131.834 34.2764Z" fill="#DFA274"/>
<path fill-rule="evenodd" clip-rule="evenodd" d="M103.353 34.2764C100.808 34.2764 98.75 32.213 98.75 29.6734C98.75 27.1285 100.813 25.0703 103.353 25.0703C105.898 25.0703 107.961 27.1338 107.961 29.6734C107.961 32.2183 105.898 34.2764 103.353 34.2764Z" fill="#DFA274"/>
<path fill-rule="evenodd" clip-rule="evenodd" d="M74.8921 34.2764C72.3472 34.2764 70.2891 32.213 70.2891 29.6734C70.2891 27.1285 72.3472 25.0703 74.8921 25.0703C77.437 25.0703 79.4951 27.1338 79.4951 29.6734C79.5004 32.2183 77.437 34.2764 74.8921 34.2764Z" fill="#DFA274"/>
<path fill-rule="evenodd" clip-rule="evenodd" d="M46.4116 34.2764C43.872 34.2764 41.8086 32.213 41.8086 29.6734C41.8086 27.1285 43.872 25.0703 46.4116 25.0703C48.9565 25.0703 51.0199 27.1338 51.0199 29.6734C51.0199 32.2183 48.9565 34.2764 46.4116 34.2764Z" fill="#DFA274"/>
<path fill-rule="evenodd" clip-rule="evenodd" d="M17.9546 34.2764C15.4097 34.2764 13.3516 32.213 13.3516 29.6734C13.3516 27.1285 15.4097 25.0703 17.9546 25.0703C20.4942 25.0703 22.5576 27.1338 22.5576 29.6734C22.5629 32.2183 20.4995 34.2764 17.9546 34.2764Z" fill="#DFA274"/>
<path fill-rule="evenodd" clip-rule="evenodd" d="M516.591 20.6543C514.046 20.6543 511.988 18.5909 511.988 16.0513C511.988 13.5064 514.052 11.4482 516.591 11.4482C519.136 11.4482 521.194 13.5117 521.194 16.0513C521.2 18.5909 519.136 20.6543 516.591 20.6543Z" fill="#DFA274"/>
<path fill-rule="evenodd" clip-rule="evenodd" d="M488.111 20.6543C485.571 20.6543 483.508 18.5909 483.508 16.0513C483.508 13.5064 485.571 11.4482 488.111 11.4482C490.656 11.4482 492.719 13.5117 492.719 16.0513C492.714 18.5909 490.656 20.6543 488.111 20.6543Z" fill="#DFA274"/>
<path fill-rule="evenodd" clip-rule="evenodd" d="M459.654 20.6543C457.109 20.6543 455.051 18.5909 455.051 16.0513C455.051 13.5064 457.114 11.4482 459.654 11.4482C462.193 11.4482 464.257 13.5117 464.257 16.0513C464.262 18.5909 462.199 20.6543 459.654 20.6543Z" fill="#DFA274"/>
<path fill-rule="evenodd" clip-rule="evenodd" d="M431.173 20.6543C428.628 20.6543 426.57 18.5909 426.57 16.0513C426.57 13.5064 428.634 11.4482 431.173 11.4482C433.718 11.4482 435.776 13.5117 435.776 16.0513C435.776 18.5909 433.718 20.6543 431.173 20.6543Z" fill="#DFA274"/>
<path fill-rule="evenodd" clip-rule="evenodd" d="M402.716 20.6543C400.171 20.6543 398.113 18.5909 398.113 16.0513C398.113 13.5064 400.171 11.4482 402.716 11.4482C405.261 11.4482 407.319 13.5117 407.319 16.0513C407.319 18.5909 405.261 20.6543 402.716 20.6543Z" fill="#DFA274"/>
<path fill-rule="evenodd" clip-rule="evenodd" d="M374.236 20.6543C371.696 20.6543 369.633 18.5909 369.633 16.0513C369.633 13.5064 371.696 11.4482 374.236 11.4482C376.781 11.4482 378.844 13.5117 378.844 16.0513C378.839 18.5909 376.781 20.6543 374.236 20.6543Z" fill="#DFA274"/>
<path fill-rule="evenodd" clip-rule="evenodd" d="M345.759 20.6543C343.214 20.6543 341.156 18.5909 341.156 16.0513C341.156 13.5064 343.214 11.4482 345.759 11.4482C348.299 11.4482 350.362 13.5117 350.362 16.0513C350.362 18.5909 348.304 20.6543 345.759 20.6543Z" fill="#DFA274"/>
<path fill-rule="evenodd" clip-rule="evenodd" d="M317.294 20.6543C314.75 20.6543 312.691 18.5909 312.691 16.0513C312.691 13.5064 314.755 11.4482 317.294 11.4482C319.839 11.4482 321.897 13.5117 321.897 16.0513C321.897 18.5909 319.839 20.6543 317.294 20.6543Z" fill="#DFA274"/>
<path fill-rule="evenodd" clip-rule="evenodd" d="M288.822 20.6543C286.277 20.6543 284.219 18.5909 284.219 16.0513C284.219 13.5064 286.277 11.4482 288.822 11.4482C291.367 11.4482 293.425 13.5117 293.425 16.0513C293.425 18.5909 291.367 20.6543 288.822 20.6543Z" fill="#DFA274"/>
<path fill-rule="evenodd" clip-rule="evenodd" d="M260.357 20.6543C257.812 20.6543 255.754 18.5909 255.754 16.0513C255.754 13.5064 257.817 11.4482 260.357 11.4482C262.902 11.4482 264.96 13.5117 264.96 16.0513C264.96 18.5909 262.902 20.6543 260.357 20.6543Z" fill="#DFA274"/>
<path fill-rule="evenodd" clip-rule="evenodd" d="M231.88 20.6543C229.335 20.6543 227.277 18.5909 227.277 16.0513C227.277 13.5064 229.335 11.4482 231.88 11.4482C234.425 11.4482 236.483 13.5117 236.483 16.0513C236.489 18.5909 234.425 20.6543 231.88 20.6543Z" fill="#DFA274"/>
<path fill-rule="evenodd" clip-rule="evenodd" d="M203.423 20.6543C200.884 20.6543 198.82 18.5909 198.82 16.0513C198.82 13.5064 200.884 11.4482 203.423 11.4482C205.968 11.4482 208.032 13.5117 208.032 16.0513C208.026 18.5909 205.968 20.6543 203.423 20.6543Z" fill="#DFA274"/>
<path fill-rule="evenodd" clip-rule="evenodd" d="M174.943 20.6543C172.398 20.6543 170.34 18.5909 170.34 16.0513C170.34 13.5064 172.398 11.4482 174.943 11.4482C177.488 11.4482 179.546 13.5117 179.546 16.0513C179.551 18.5909 177.488 20.6543 174.943 20.6543Z" fill="#DFA274"/>
<path fill-rule="evenodd" clip-rule="evenodd" d="M146.486 20.6543C143.946 20.6543 141.883 18.5909 141.883 16.0513C141.883 13.5064 143.946 11.4482 146.486 11.4482C149.031 11.4482 151.094 13.5117 151.094 16.0513C151.089 18.5909 149.031 20.6543 146.486 20.6543Z" fill="#DFA274"/>
<path fill-rule="evenodd" clip-rule="evenodd" d="M118.005 20.6543C115.46 20.6543 113.402 18.5909 113.402 16.0513C113.402 13.5064 115.46 11.4482 118.005 11.4482C120.55 11.4482 122.608 13.5117 122.608 16.0513C122.608 18.5909 120.55 20.6543 118.005 20.6543Z" fill="#DFA274"/>
<path fill-rule="evenodd" clip-rule="evenodd" d="M89.5444 20.6543C86.9995 20.6543 84.9414 18.5909 84.9414 16.0513C84.9414 13.5064 87.0048 11.4482 89.5444 11.4482C92.0893 11.4482 94.1527 13.5117 94.1527 16.0513C94.1474 18.5909 92.0893 20.6543 89.5444 20.6543Z" fill="#DFA274"/>
<path fill-rule="evenodd" clip-rule="evenodd" d="M61.064 20.6543C58.5191 20.6543 56.4609 18.5909 56.4609 16.0513C56.4609 13.5064 58.5191 11.4482 61.064 11.4482C63.6089 11.4482 65.667 13.5117 65.667 16.0513C65.667 18.5909 63.6089 20.6543 61.064 20.6543Z" fill="#DFA274"/>
<path fill-rule="evenodd" clip-rule="evenodd" d="M32.6069 20.6543C30.0673 20.6543 28.0039 18.5909 28.0039 16.0513C28.0039 13.5064 30.0673 11.4482 32.6069 11.4482C35.1518 11.4482 37.2152 13.5117 37.2152 16.0513C37.2099 18.5909 35.1518 20.6543 32.6069 20.6543Z" fill="#DFA274"/>
<path fill-rule="evenodd" clip-rule="evenodd" d="M4.12645 20.6543C1.58156 20.6543 -0.476562 18.5909 -0.476562 16.0513C-0.476562 13.5064 1.58156 11.4482 4.12645 11.4482C6.67134 11.4482 8.72946 13.5117 8.72946 16.0513C8.72946 18.5909 6.67134 20.6543 4.12645 20.6543Z" fill="#DFA274"/>
<path d="M530.4 6.62102C532.942 6.62102 535.003 4.56021 535.003 2.01803C535.003 -0.524145 532.942 -2.58496 530.4 -2.58496C527.858 -2.58496 525.797 -0.524145 525.797 2.01803C525.797 4.56021 527.858 6.62102 530.4 6.62102Z" fill="#DFA274"/>
<path fill-rule="evenodd" clip-rule="evenodd" d="M501.939 6.62102C499.399 6.62102 497.336 4.56292 497.336 2.01803C497.336 -0.526856 499.399 -2.58496 501.939 -2.58496C504.484 -2.58496 506.547 -0.521565 506.547 2.01803C506.542 4.56292 504.479 6.62102 501.939 6.62102Z" fill="#DFA274"/>
<path d="M473.458 6.62102C476.001 6.62102 478.062 4.56021 478.062 2.01803C478.062 -0.524145 476.001 -2.58496 473.458 -2.58496C470.916 -2.58496 468.855 -0.524145 468.855 2.01803C468.855 4.56021 470.916 6.62102 473.458 6.62102Z" fill="#DFA274"/>
<path fill-rule="evenodd" clip-rule="evenodd" d="M445.001 6.62102C442.457 6.62102 440.398 4.56292 440.398 2.01803C440.398 -0.526856 442.462 -2.58496 445.001 -2.58496C447.546 -2.58496 449.61 -0.521565 449.61 2.01803C449.604 4.56292 447.541 6.62102 445.001 6.62102Z" fill="#DFA274"/>
<path fill-rule="evenodd" clip-rule="evenodd" d="M416.521 6.62102C413.976 6.62102 411.918 4.56292 411.918 2.01803C411.918 -0.526856 413.981 -2.58496 416.521 -2.58496C419.061 -2.58496 421.124 -0.521565 421.124 2.01803C421.124 4.56292 419.061 6.62102 416.521 6.62102Z" fill="#DFA274"/>
<path fill-rule="evenodd" clip-rule="evenodd" d="M388.064 6.62102C385.524 6.62102 383.461 4.56292 383.461 2.01803C383.461 -0.526856 385.524 -2.58496 388.064 -2.58496C390.609 -2.58496 392.672 -0.521565 392.672 2.01803C392.672 4.56292 390.609 6.62102 388.064 6.62102Z" fill="#DFA274"/>
<path d="M359.584 6.62102C362.126 6.62102 364.187 4.56021 364.187 2.01803C364.187 -0.524145 362.126 -2.58496 359.584 -2.58496C357.041 -2.58496 354.98 -0.524145 354.98 2.01803C354.98 4.56021 357.041 6.62102 359.584 6.62102Z" fill="#DFA274"/>
<path fill-rule="evenodd" clip-rule="evenodd" d="M331.107 6.62102C328.562 6.62102 326.504 4.56292 326.504 2.01803C326.504 -0.526856 328.567 -2.58496 331.107 -2.58496C333.652 -2.58496 335.715 -0.521565 335.715 2.01803C335.715 4.56292 333.652 6.62102 331.107 6.62102Z" fill="#DFA274"/>
<path fill-rule="evenodd" clip-rule="evenodd" d="M302.642 6.62102C300.097 6.62102 298.039 4.56292 298.039 2.01803C298.039 -0.526856 300.102 -2.58496 302.642 -2.58496C305.187 -2.58496 307.245 -0.521565 307.245 2.01803C307.245 4.56292 305.182 6.62102 302.642 6.62102Z" fill="#DFA274"/>
<path fill-rule="evenodd" clip-rule="evenodd" d="M274.169 6.62102C271.63 6.62102 269.566 4.56292 269.566 2.01803C269.566 -0.526856 271.63 -2.58496 274.169 -2.58496C276.714 -2.58496 278.778 -0.521565 278.778 2.01803C278.778 4.56292 276.714 6.62102 274.169 6.62102Z" fill="#DFA274"/>
<path fill-rule="evenodd" clip-rule="evenodd" d="M245.705 6.62102C243.16 6.62102 241.102 4.56292 241.102 2.01803C241.102 -0.526856 243.165 -2.58496 245.705 -2.58496C248.249 -2.58496 250.308 -0.521565 250.308 2.01803C250.313 4.56292 248.249 6.62102 245.705 6.62102Z" fill="#DFA274"/>
<path fill-rule="evenodd" clip-rule="evenodd" d="M217.228 6.62102C214.683 6.62102 212.625 4.56292 212.625 2.01803C212.625 -0.526856 214.688 -2.58496 217.228 -2.58496C219.773 -2.58496 221.836 -0.521565 221.836 2.01803C221.836 4.56292 219.773 6.62102 217.228 6.62102Z" fill="#DFA274"/>
<path fill-rule="evenodd" clip-rule="evenodd" d="M188.771 6.62102C186.226 6.62102 184.168 4.56292 184.168 2.01803C184.168 -0.526856 186.226 -2.58496 188.771 -2.58496C191.311 -2.58496 193.374 -0.521565 193.374 2.01803C193.374 4.56292 191.311 6.62102 188.771 6.62102Z" fill="#DFA274"/>
<path fill-rule="evenodd" clip-rule="evenodd" d="M160.291 6.62102C157.751 6.62102 155.688 4.56292 155.688 2.01803C155.688 -0.526856 157.751 -2.58496 160.291 -2.58496C162.835 -2.58496 164.899 -0.521565 164.899 2.01803C164.899 4.56292 162.835 6.62102 160.291 6.62102Z" fill="#DFA274"/>
<path fill-rule="evenodd" clip-rule="evenodd" d="M131.834 6.62102C129.289 6.62102 127.23 4.56292 127.23 2.01803C127.23 -0.526856 129.294 -2.58496 131.834 -2.58496C134.378 -2.58496 136.436 -0.521565 136.436 2.01803C136.442 4.56292 134.378 6.62102 131.834 6.62102Z" fill="#DFA274"/>
<path fill-rule="evenodd" clip-rule="evenodd" d="M103.353 6.62102C100.808 6.62102 98.75 4.56292 98.75 2.01803C98.75 -0.526856 100.813 -2.58496 103.353 -2.58496C105.898 -2.58496 107.961 -0.521565 107.961 2.01803C107.961 4.56292 105.898 6.62102 103.353 6.62102Z" fill="#DFA274"/>
<path fill-rule="evenodd" clip-rule="evenodd" d="M74.8921 6.62102C72.3472 6.62102 70.2891 4.56292 70.2891 2.01803C70.2891 -0.526856 72.3472 -2.58496 74.8921 -2.58496C77.437 -2.58496 79.4951 -0.521565 79.4951 2.01803C79.5004 4.56292 77.437 6.62102 74.8921 6.62102Z" fill="#DFA274"/>
<path fill-rule="evenodd" clip-rule="evenodd" d="M46.4116 6.62102C43.872 6.62102 41.8086 4.56292 41.8086 2.01803C41.8086 -0.526856 43.872 -2.58496 46.4116 -2.58496C48.9565 -2.58496 51.0199 -0.521565 51.0199 2.01803C51.0199 4.56292 48.9565 6.62102 46.4116 6.62102Z" fill="#DFA274"/>
<path d="M17.9546 6.62102C20.4968 6.62102 22.5576 4.56021 22.5576 2.01803C22.5576 -0.524145 20.4968 -2.58496 17.9546 -2.58496C15.4124 -2.58496 13.3516 -0.524145 13.3516 2.01803C13.3516 4.56021 15.4124 6.62102 17.9546 6.62102Z" fill="#DFA274"/>
</g>
<path d="M352.789 128.72H174.414C164.986 128.72 157.277 121.011 157.277 111.588V41.4846C157.277 32.0617 164.986 24.3477 174.414 24.3477H352.784C362.212 24.3477 369.921 32.0564 369.921 41.4846V111.588C369.921 121.011 362.212 128.72 352.789 128.72Z" fill="#C99165"/>
<path fill-rule="evenodd" clip-rule="evenodd" d="M448.186 158H79.0078H39.1256C39.1256 156.312 38.9351 154.741 38.5859 153.254H488.608C488.258 154.741 488.068 156.312 488.068 158H448.186Z" fill="#F8BF8E"/>
<path fill-rule="evenodd" clip-rule="evenodd" d="M350.572 129.893H176.62C167.43 129.893 159.906 122.374 159.906 113.184V44.8162C159.906 35.6261 167.424 28.1025 176.62 28.1025H350.577C359.767 28.1025 367.291 35.6208 367.291 44.8162V113.184C367.285 122.374 359.767 129.893 350.572 129.893Z" fill="#F7B884"/>
<path fill-rule="evenodd" clip-rule="evenodd" d="M342.389 127.816L190.653 127.059C190.653 127.059 165.781 128.011 165.019 105.218C164.257 82.4307 166.538 52.4212 166.538 52.4212C166.538 52.4212 165.776 42.9295 177.172 42.1676C188.569 41.4057 345.431 39.5116 345.431 39.5116C345.431 39.5116 360.245 39.1307 359.674 54.3259C359.102 69.5159 359.108 118.705 359.108 118.705C359.108 118.705 357.949 128.17 342.389 127.816Z" fill="#F8BB8B"/>
<path fill-rule="evenodd" clip-rule="evenodd" d="M354.92 86.0369C355.111 92.6822 355.492 114.904 353.592 118.512C351.693 122.12 342.767 124.967 328.715 125.157C314.662 125.348 184.381 127.062 180.201 122.882C176.027 118.702 179.635 113.195 186.471 111.301C193.307 109.401 318.456 109.972 329.852 94.7772C341.249 79.582 359.576 51.4243 354.92 86.0369Z" fill="#F8BF94"/>
<path fill-rule="evenodd" clip-rule="evenodd" d="M349.656 105.076C349.656 105.076 349.084 120.647 337.312 121.974C325.535 123.302 197.349 125.583 194.878 121.974C192.407 118.366 290.594 119.318 311.101 114.567C331.614 109.821 348.709 94.822 349.656 105.076Z" fill="#FBD6B5"/>
<path fill-rule="evenodd" clip-rule="evenodd" d="M170.944 99.5712C170.373 91.7831 171.325 59.3133 182.15 54.9431C192.975 50.5728 233.804 53.6151 263.433 50.9538C293.062 48.2978 311.288 46.9646 315.087 51.9062C318.886 56.8425 305.024 67.0961 282.612 70.3235C260.2 73.5509 227.349 76.7835 211.588 84.9473C195.821 93.111 171.706 111.534 170.944 99.5712Z" fill="#F8BF94"/>
</svg>
