<svg width="581" height="468" viewBox="0 0 581 468" fill="none" xmlns="http://www.w3.org/2000/svg">
<path fill-rule="evenodd" clip-rule="evenodd" d="M32.5191 63.8999H548.399C566.285 63.8999 580.918 92.261 580.918 110.642V420.156C580.918 438.537 566.285 453.576 548.399 453.576H32.5191C14.633 453.576 0 438.537 0 420.156V110.425C0 92.0401 14.633 63.8999 32.5191 63.8999Z" fill="#C3230C"/>
<path fill-rule="evenodd" clip-rule="evenodd" d="M580.355 103.989C580.722 106.302 580.914 108.539 580.914 110.645V119.627H578.819C578.819 110.078 574.687 97.6934 568.159 88.3122C562.783 80.5841 555.835 74.9796 548.395 74.9796H32.5191C25.0618 74.9796 18.1034 80.552 12.7269 88.2445C6.21735 97.558 2.09501 109.864 2.09501 119.41H0V110.427C0 108.343 0.188834 106.134 0.548692 103.854C2.53326 97.5545 5.54752 91.2302 9.30643 85.8537C15.4133 77.1174 23.5297 70.7896 32.5191 70.7896H548.399C557.388 70.7896 565.498 77.1494 571.601 85.9214C575.353 91.3193 578.37 97.6685 580.355 103.989Z" fill="#E5390D"/>
<path fill-rule="evenodd" clip-rule="evenodd" d="M580.772 107.4C580.865 108.508 580.914 109.591 580.914 110.642V121.655H578.819C578.819 112.107 574.687 99.7219 568.159 90.3406C562.783 82.6126 555.835 77.0081 548.395 77.0081H32.5191C25.0618 77.0081 18.1034 82.5805 12.7269 90.2729C6.21735 99.5865 2.09501 111.893 2.09501 121.438H0V110.421C0 109.388 0.0498798 108.319 0.138954 107.229C2.1057 100.488 5.2803 93.6435 9.30287 87.8822C15.4098 79.1458 23.5262 72.8145 32.5155 72.8145H548.395C557.385 72.8145 565.494 79.1743 571.597 87.9463C575.627 93.7432 578.805 100.627 580.772 107.4Z" fill="#8C1101"/>
<path fill-rule="evenodd" clip-rule="evenodd" d="M32.5191 88.8408H548.399C566.285 88.8408 580.918 103.474 580.918 121.36V435.473C580.918 453.359 566.285 467.989 548.399 467.989H32.5191C14.633 467.989 0 453.356 0 435.473V121.36C0.00356295 103.474 14.6366 88.8408 32.5191 88.8408Z" fill="#C1230B"/>
<path fill-rule="evenodd" clip-rule="evenodd" d="M32.5191 88.8408H548.399C566.285 88.8408 580.918 103.474 580.918 121.36V407.387C580.918 425.273 566.285 439.906 548.399 439.906H32.5191C14.633 439.906 0 425.273 0 407.387V121.36C0 103.474 14.633 88.8408 32.5191 88.8408Z" fill="#D52A0E"/>
<path fill-rule="evenodd" clip-rule="evenodd" d="M449.23 88.8408H548.405C566.291 88.8408 580.924 103.474 580.924 121.36V407.387C580.924 425.273 566.291 439.906 548.405 439.906H371.551C604.946 434.554 557.323 103.221 449.23 88.8408Z" fill="#E1300D"/>
<path fill-rule="evenodd" clip-rule="evenodd" d="M32.5311 88.8408H123.81C15.7176 103.221 -31.9049 434.554 201.49 439.906H32.5347C14.6487 439.906 0.0156257 425.273 0.0156257 407.387V121.36C0.0120627 103.474 14.6451 88.8408 32.5311 88.8408Z" fill="#E1300D"/>
<path fill-rule="evenodd" clip-rule="evenodd" d="M290.459 133.225C325.45 133.225 357.129 147.409 380.06 170.34C402.991 193.271 417.175 224.949 417.175 259.941C417.175 294.929 402.991 326.611 380.06 349.542C357.129 372.473 325.45 386.657 290.459 386.657C255.467 386.657 223.789 372.473 200.857 349.542C177.926 326.611 163.742 294.933 163.742 259.941C163.742 224.949 177.926 193.271 200.857 170.34C223.789 147.409 255.467 133.225 290.459 133.225ZM370.183 180.213C349.782 159.811 321.592 147.191 290.459 147.191C259.326 147.191 231.135 159.811 210.734 180.213C190.332 200.614 177.713 228.801 177.713 259.937C177.713 291.071 190.332 319.261 210.734 339.662C231.135 360.064 259.326 372.687 290.459 372.687C321.592 372.687 349.782 360.067 370.183 339.662C390.585 319.261 403.205 291.074 403.205 259.937C403.205 228.804 390.585 200.614 370.183 180.213Z" fill="white"/>
<path fill-rule="evenodd" clip-rule="evenodd" d="M265.691 343.081H315.212V284.695H373.598V235.177H315.212V176.787H265.691V235.177H207.305V284.695H265.691V343.081Z" fill="white"/>
<path fill-rule="evenodd" clip-rule="evenodd" d="M162.84 71.0225H212.75L212.857 77.6638L209.949 81.1555H166.488L162.84 77.8491V71.0225Z" fill="#870E01"/>
<path d="M209.836 71.0225H166.375V81.1555H209.836V71.0225Z" fill="#D52A0E"/>
<path fill-rule="evenodd" clip-rule="evenodd" d="M169.371 67.2925H206.354C208.406 67.2925 212.753 68.9742 212.753 71.0229C212.753 73.0752 211.075 74.7569 209.019 74.7569H166.57C164.518 74.7569 162.84 73.0787 162.84 71.0229C162.84 68.9706 167.318 67.2925 169.371 67.2925Z" fill="#9E1505"/>
<path fill-rule="evenodd" clip-rule="evenodd" d="M418.071 71.0225H368.162L368.055 77.6638L370.966 81.1555H414.426L418.071 77.8491V71.0225Z" fill="#870E01"/>
<path d="M414.535 71.0225H371.074V81.1555H414.535V71.0225Z" fill="#D52A0E"/>
<path fill-rule="evenodd" clip-rule="evenodd" d="M411.547 67.2925H374.567C372.515 67.2925 368.168 68.9742 368.168 71.0229C368.168 73.0752 369.846 74.7569 371.902 74.7569H414.347C416.4 74.7569 418.081 73.0787 418.081 71.0229C418.078 68.9706 413.599 67.2925 411.547 67.2925Z" fill="#9E1505"/>
<path fill-rule="evenodd" clip-rule="evenodd" d="M373.149 67.7636L380.307 73.1687H389.592C389.592 56.9715 389.592 40.7743 389.592 24.5771C389.592 -0.00727351 395.396 0.00341798 373.146 0.00341798C318.394 0.00341798 263.638 0.00341798 208.887 0.00341798C186.636 0.00341798 192.44 -0.00727351 192.44 24.5771C192.44 40.7743 192.44 56.9715 192.44 73.1687H201.814L208.883 67.6853C208.883 51.4881 208.883 40.7743 208.883 24.5735C263.635 24.5735 318.39 24.5735 373.142 24.5735V67.7636H373.149Z" fill="#C3230C"/>
<path fill-rule="evenodd" clip-rule="evenodd" d="M208.888 24.5736C263.64 24.5736 318.395 24.5736 373.147 24.5736C373.147 24.5736 381.915 15.7482 381.538 14.4014C381.16 13.0582 231.342 12.5059 217.115 12.7838C202.888 13.0617 201.131 13.0617 200.479 14.4085C199.824 15.7589 208.888 24.5736 208.888 24.5736Z" fill="#9C1504"/>
<path fill-rule="evenodd" clip-rule="evenodd" d="M390.223 5.56889C389.842 -0.00356397 386.706 5.81643e-09 373.138 5.81643e-09C318.387 5.81643e-09 263.631 5.81643e-09 208.879 5.81643e-09C195.846 5.81643e-09 192.44 -1.27421e-06 191.855 4.93825C194.478 6.17816 199.584 6.77674 208.053 6.77674C228.009 6.77674 379.612 6.22448 379.612 6.22448C379.612 6.22448 386.083 6.62709 390.223 5.56889Z" fill="#E5340D"/>
<path fill-rule="evenodd" clip-rule="evenodd" d="M373.14 67.765L380.259 73.17V25.8682C380.259 25.8682 382.938 14.0428 381.459 14.4133C379.981 14.7839 373.051 24.5749 373.051 24.5749H373.136C373.14 40.772 373.14 51.5642 373.14 67.765Z" fill="#AE1C07"/>
<path fill-rule="evenodd" clip-rule="evenodd" d="M201.812 73.17L208.881 67.7115C208.881 51.5143 208.881 40.772 208.881 24.5749C208.881 24.5749 201.951 14.7803 200.472 14.4133C198.994 14.0428 201.673 25.8682 201.673 25.8682L201.812 73.17Z" fill="#AE1C07"/>
<path fill-rule="evenodd" clip-rule="evenodd" d="M39.383 86.624H79.11C80.7382 86.624 82.0672 87.953 82.0672 89.5813V124.427C82.0672 126.052 80.7382 127.384 79.11 127.384H39.383C37.7583 127.384 36.4258 126.055 36.4258 124.427V89.5813C36.4258 87.953 37.7583 86.624 39.383 86.624Z" fill="#C3230C"/>
<path fill-rule="evenodd" clip-rule="evenodd" d="M39.3816 85.229H79.1085C80.3021 85.229 81.3888 85.7171 82.1798 86.5081C82.9743 87.2955 83.4625 88.3858 83.4625 89.5829V124.429C83.4625 125.622 82.9743 126.709 82.1834 127.5L82.1798 127.507C81.3888 128.294 80.3021 128.783 79.1085 128.783H39.3816C38.1845 128.783 37.0942 128.294 36.3068 127.507C35.5194 126.712 35.0312 125.626 35.0312 124.432V89.5865C35.0312 88.3893 35.5194 87.2991 36.3068 86.5117C37.0942 85.7171 38.1845 85.229 39.3816 85.229ZM79.105 88.0224H39.3781C38.9505 88.0224 38.5586 88.2005 38.2771 88.482C37.9956 88.7635 37.8175 89.1554 37.8175 89.5829V124.429C37.8175 124.856 37.9921 125.248 38.2735 125.533C38.5586 125.811 38.9505 125.989 39.3781 125.989H79.105C79.5325 125.989 79.9244 125.815 80.2059 125.537L80.2095 125.53C80.4874 125.248 80.662 124.856 80.662 124.429V89.5829C80.662 89.1554 80.4838 88.7635 80.2024 88.482C79.928 88.197 79.5361 88.0224 79.105 88.0224Z" fill="#8C1101"/>
<path fill-rule="evenodd" clip-rule="evenodd" d="M39.3841 88.8407H79.111H82.2286C82.2784 88.6661 82.3354 88.4915 82.4103 88.3134C85.8699 79.8051 87.1633 73.2314 90.1668 63.8965H46.314C43.3104 73.2279 40.0753 79.8051 36.6156 88.3134C36.5444 88.4915 36.4838 88.6661 36.4375 88.8407H39.3841Z" fill="#9E1505"/>
<path fill-rule="evenodd" clip-rule="evenodd" d="M39.383 87.4439H81.2513C83.3392 82.2527 84.629 77.7455 86.0292 72.8393C86.7026 70.4878 87.401 68.0401 88.2561 65.2966H47.3213C45.2869 71.4605 43.1633 76.4272 40.9365 81.6256C40.1384 83.4926 39.326 85.3881 38.4781 87.4439H39.383ZM79.1064 90.2373H34.6016L35.0933 88.47L35.1966 88.1209L35.3213 87.7895C36.3296 85.3097 37.3629 82.8976 38.3747 80.5353C40.6942 75.1089 42.4543 71.3393 44.5386 64.8726L44.8522 63.8999H91.6302L91.4912 64.3275C90.433 67.6196 89.553 70.6838 88.7192 73.6054C87.2656 78.6933 85.9295 83.3607 83.7026 88.8406L83.5744 89.2147L83.2893 90.2408L79.1064 90.2373Z" fill="#8C1101"/>
<path fill-rule="evenodd" clip-rule="evenodd" d="M546.673 86.624H506.946C505.321 86.624 503.992 87.953 503.992 89.5813V124.427C503.992 126.052 505.321 127.384 506.946 127.384H546.673C548.298 127.384 549.63 126.055 549.63 124.427V89.5813C549.627 87.953 548.298 86.624 546.673 86.624Z" fill="#C3230C"/>
<path fill-rule="evenodd" clip-rule="evenodd" d="M546.667 85.229H506.94C505.746 85.229 504.66 85.7171 503.869 86.5081C503.074 87.2955 502.586 88.3858 502.586 89.5829V124.429C502.586 125.622 503.074 126.709 503.861 127.5L503.869 127.507C504.66 128.294 505.746 128.783 506.94 128.783H546.667C547.867 128.783 548.954 128.294 549.742 127.507C550.529 126.712 551.021 125.626 551.021 124.432V89.5865C551.021 88.3893 550.533 87.2991 549.742 86.5117C548.954 85.7171 547.864 85.229 546.667 85.229ZM506.94 88.0224H546.667C547.094 88.0224 547.486 88.2005 547.768 88.482C548.049 88.7635 548.227 89.1554 548.227 89.5829V124.429C548.227 124.856 548.053 125.248 547.771 125.533C547.486 125.811 547.094 125.989 546.667 125.989H506.94C506.512 125.989 506.12 125.815 505.839 125.537L505.832 125.53C505.554 125.248 505.379 124.856 505.379 124.429V89.5829C505.379 89.1554 505.554 88.7635 505.839 88.482C506.12 88.197 506.512 88.0224 506.94 88.0224Z" fill="#8C1101"/>
<path fill-rule="evenodd" clip-rule="evenodd" d="M546.67 88.8407H506.943H503.825C503.779 88.6661 503.718 88.4915 503.647 88.3134C500.188 79.8051 498.894 73.2314 495.891 63.8965H539.74C542.743 73.2279 545.979 79.8051 549.438 88.3134C549.509 88.4915 549.57 88.6661 549.616 88.8407H546.67Z" fill="#9E1505"/>
<path fill-rule="evenodd" clip-rule="evenodd" d="M546.673 87.4439H504.805C502.717 82.2527 501.427 77.7455 500.023 72.8393C499.35 70.4878 498.652 68.0401 497.797 65.2966H538.735C540.769 71.4605 542.893 76.4272 545.12 81.6256C545.918 83.4926 546.73 85.3881 547.578 87.4439H546.673ZM506.946 90.2373H551.455L550.963 88.47L550.86 88.1209L550.735 87.7895C549.727 85.3097 548.693 82.8976 547.682 80.5353C545.362 75.1089 543.602 71.3393 541.518 64.8726L541.204 63.8999H494.43L494.569 64.3275C495.63 67.6196 496.507 70.6838 497.341 73.6054C498.794 78.6933 500.13 83.3607 502.357 88.8406L502.489 89.2147L502.774 90.2408L506.946 90.2373Z" fill="#8C1101"/>
</svg>
