<svg width="97" height="153" viewBox="0 0 97 153" fill="none" xmlns="http://www.w3.org/2000/svg">
<path fill-rule="evenodd" clip-rule="evenodd" d="M48.3171 0.308594C74.7253 0.308594 96.1326 34.4617 96.1326 76.5915C96.1326 118.721 74.7253 152.874 48.3171 152.874C21.9089 152.874 0.496094 118.721 0.496094 76.5915C0.501751 34.4617 21.9089 0.308594 48.3171 0.308594Z" fill="#F4AD00"/>
<path fill-rule="evenodd" clip-rule="evenodd" d="M48.3171 0.308594C56.7012 0.308594 64.5761 3.75393 71.4328 9.80158C31.8148 -11.1361 3.766 24.5162 4.05452 78.3057C4.33738 132.101 39.4917 149.322 46.0372 149.893C52.5827 150.464 60.6953 147.047 62.4038 122.138C64.1123 97.235 70.3749 94.9551 70.092 109.189C69.8091 123.417 68.1007 139.648 76.779 133.951C85.1914 128.435 91.8726 107.916 92.28 106.643C84.9651 133.832 68.0384 152.874 48.3171 152.874C21.9089 152.874 0.496094 118.721 0.496094 76.5915C0.501751 34.4617 21.9089 0.308594 48.3171 0.308594Z" fill="#D59200"/>
<path fill-rule="evenodd" clip-rule="evenodd" d="M93.0189 49.4388C93.5903 51.8262 94.0881 54.2702 94.5068 56.7707C99.2645 87.388 86.8694 119.736 76.2054 118.441C64.6928 117.043 87.305 65.4998 68.2343 57.8116C49.1636 50.1233 70.5085 151.457 48.0264 142.637C-4.68254 121.954 4.21639 6.65837 56.5633 14.8332C83.311 19.0082 92.6342 48.1942 93.0189 49.4388Z" fill="#F0AE00"/>
<path fill-rule="evenodd" clip-rule="evenodd" d="M93.0325 49.4846C93.0325 49.4846 83.896 19.105 56.5656 14.8337C4.21867 6.65327 -4.68591 121.949 48.0287 142.638C70.5164 151.463 49.1659 50.1295 68.2366 57.8121C87.3073 65.4947 64.6951 117.038 76.2077 118.441C87.7203 119.844 101.258 82.0084 93.0325 49.4846Z" fill="#F6B400"/>
<path fill-rule="evenodd" clip-rule="evenodd" d="M47.6937 19.9095C67.2057 22.0875 45.0744 34.3072 42.9982 68.6357C40.9219 102.958 45.4421 127.794 38.3365 128.19C12.9975 129.604 7.79851 15.4515 47.6937 19.9095Z" fill="#FBBB00"/>
<path fill-rule="evenodd" clip-rule="evenodd" d="M33.3737 36.1817C43.6191 33.9018 28.8196 85.4228 30.2452 103.074C32.3441 129.154 12.4757 40.8264 33.3737 36.1817Z" fill="#FDCF65"/>
<path fill-rule="evenodd" clip-rule="evenodd" d="M61.3984 47.5698C65.0983 45.7199 78.0479 47.1455 81.182 62.0864C84.3105 77.0329 79.4735 91.5439 78.3364 99.3736C77.1993 107.203 87.5861 104.499 90.5788 87.1369C93.5658 69.7747 92.5702 52.1239 81.7534 44.1585C70.931 36.1817 61.3984 47.5698 61.3984 47.5698Z" fill="#FDCA49"/>
</svg>
