<svg width="380" height="563" viewBox="0 0 380 563" fill="none" xmlns="http://www.w3.org/2000/svg">
<path fill-rule="evenodd" clip-rule="evenodd" d="M189.682 0.529737C199.619 0.273204 241.362 -0.699543 245.674 0.889534C250.569 2.69595 341.656 31.5844 357.002 50.2436C372.347 68.9028 373.327 80.3363 372.347 108.024C371.367 135.712 359.289 181.154 360.921 214.257C362.553 247.36 359.289 328.307 366.144 364.721C372.999 401.134 381.486 433.938 378.875 448.079C376.263 462.224 367.124 482.084 326.314 482.686C285.504 483.288 262.651 481.935 258.244 491.865C253.836 501.794 255.468 513.232 255.468 513.232C255.468 513.232 255.792 515.188 244.858 514.436C237.212 513.908 210.568 514.119 195.236 514.293V514.436L189.685 514.361L184.138 514.436V514.293C168.806 514.122 142.163 513.912 134.517 514.436C123.582 515.188 123.906 513.232 123.906 513.232C123.906 513.232 125.538 501.794 121.131 491.865C116.723 481.935 93.8668 483.288 53.0603 482.686C12.2503 482.084 3.11136 462.224 0.499711 448.079C-2.11193 433.934 6.37501 401.134 13.2301 364.721C20.0853 328.307 16.8216 247.36 18.4534 214.257C20.0853 181.154 8.00685 135.712 7.02704 108.024C6.04723 80.3363 7.03063 68.9028 22.3727 50.2436C37.7148 31.5844 128.802 2.69595 133.701 0.889534C138.001 -0.699543 179.748 0.276767 189.682 0.529737ZM213.026 16.3813H166.341C161.67 16.3813 157.854 19.9015 157.854 24.2055C157.854 28.5096 161.673 32.0298 166.341 32.0298H213.026C217.697 32.0298 221.513 28.5096 221.513 24.2055C221.513 19.9015 217.694 16.3813 213.026 16.3813Z" fill="#F0EBDF"/>
<path fill-rule="evenodd" clip-rule="evenodd" d="M359.051 108.164C359.051 108.164 361.338 99.1351 362.478 95.9748C363.622 92.8144 362.315 75.3595 349.256 64.977C336.198 54.5946 303.387 46.6207 252.946 45.5661C216.718 44.8072 197.585 44.8286 189.679 44.8999H189.661C181.755 44.8286 162.622 44.8072 126.394 45.5661C75.9529 46.6207 43.1452 54.5946 30.0834 64.977C17.0252 75.3595 15.7176 92.8144 16.8613 95.9748C18.005 99.1351 20.2889 108.164 20.2889 108.164C37.9291 176.476 29.4386 245.088 32.0502 285.716C34.6618 326.345 17.3566 404.288 15.4005 411.207C13.4409 418.13 7.88982 425.804 18.8281 435.132C29.7664 444.46 100.608 460.408 125.585 464.323C150.558 468.236 184.024 467.334 184.024 467.334L189.672 231.495L195.319 467.334C195.319 467.334 228.786 468.236 253.758 464.323C278.731 460.411 349.577 444.464 360.515 435.132C371.453 425.804 365.902 418.13 363.943 411.207C361.987 404.288 344.678 326.341 347.293 285.716C349.905 245.091 341.414 176.48 359.051 108.164Z" fill="#D08383"/>
<path fill-rule="evenodd" clip-rule="evenodd" d="M189.681 0.529737C199.618 0.273204 241.362 -0.699543 245.673 0.889534C247.761 1.65913 265.533 7.35635 286.415 15.088C262.864 7.04637 242.192 2.30051 240.022 2.23282C235.287 2.08317 182.074 2.68536 182.074 2.68536L182.566 0.365877C185.584 0.43001 188.06 0.490545 189.681 0.529737ZM319.593 28.3171C336.745 35.8065 351.589 43.6629 357.001 50.2436C372.346 68.9028 373.326 80.3363 372.347 108.024C371.367 135.712 359.288 181.154 360.92 214.257C362.552 247.36 359.288 328.307 366.143 364.721C372.999 401.134 381.485 433.938 378.874 448.079C376.262 462.224 367.123 482.084 326.313 482.686C285.503 483.288 262.65 481.935 258.243 491.865C253.836 501.794 255.467 513.232 255.467 513.232C255.467 513.232 255.792 515.188 244.857 514.436C238.212 513.98 217.237 514.08 201.792 514.226L199.554 512.633C199.554 512.633 249.503 512.783 250.647 511.279C251.791 509.775 251.627 488.562 258.485 483.292C265.34 478.026 285.093 479.077 300.275 479.38C315.457 479.683 372.589 484.047 374.873 438.003C377.157 391.959 355.276 377.504 356.256 288.128C357.236 198.747 353.645 201.758 361.152 151.2C368.659 100.642 374.862 85.5988 356.253 55.2033C350.132 45.2056 335.99 36.0772 319.593 28.3171Z" fill="#D4D0C6"/>
<path fill-rule="evenodd" clip-rule="evenodd" d="M303.123 32.6322C303.123 32.6322 252.85 13.3708 237.505 12.1701C213.928 10.3209 165.422 10.3209 141.846 12.1701C126.501 13.3744 76.2274 32.6322 76.2274 32.6322C60.2297 38.65 87.326 38.0478 114.75 38.3506C191.795 39.195 187.559 39.195 264.601 38.3506C292.021 38.0478 319.121 38.65 303.123 32.6322ZM213.016 16.3815C217.687 16.3815 221.503 19.9017 221.503 24.2057C221.503 28.5098 217.684 32.03 213.016 32.03H166.331C161.66 32.03 157.844 28.5098 157.844 24.2057C157.844 19.9017 161.663 16.3815 166.331 16.3815H213.016Z" fill="#E1D9C9"/>
<path fill-rule="evenodd" clip-rule="evenodd" d="M303.136 32.6322C303.136 32.6322 252.863 13.3708 237.517 12.1701C213.941 10.3209 165.435 10.3209 141.859 12.1701C140.124 12.3055 137.936 12.676 135.432 13.2176H135.449C144.692 12.9361 167.078 12.5406 183.542 12.3518C200.003 12.5406 222.393 12.9397 231.635 13.2176C246.489 13.6701 263.142 20.5929 272.937 23.7533C282.731 26.9136 303.14 32.6357 301.504 34.2853C299.865 35.935 246.984 37.1464 246.984 37.1464C222.125 37.0253 193.811 37.1927 183.546 37.2675C173.281 37.1963 144.97 37.0253 120.111 37.1464C120.111 37.1464 85.7961 36.3625 71.5942 35.1939C69.5846 38.4754 92.0633 38.1048 114.766 38.3542C191.812 39.1986 187.575 39.1986 264.617 38.3542C292.034 38.0478 319.134 38.65 303.136 32.6322Z" fill="#B2ACA2"/>
<path fill-rule="evenodd" clip-rule="evenodd" d="M240.202 32.1067C244.923 32.1067 248.771 28.558 248.771 24.2076C248.771 19.8572 244.919 16.3086 240.202 16.3086C235.481 16.3086 231.633 19.8572 231.633 24.2076C231.633 28.558 235.481 32.1067 240.202 32.1067Z" fill="#D4CDBE"/>
<path fill-rule="evenodd" clip-rule="evenodd" d="M142.499 32.1067C147.219 32.1067 151.067 28.558 151.067 24.2076C151.067 19.8572 147.219 16.3086 142.499 16.3086C137.778 16.3086 133.93 19.8572 133.93 24.2076C133.93 28.558 137.778 32.1067 142.499 32.1067Z" fill="#D4CDBE"/>
<path fill-rule="evenodd" clip-rule="evenodd" d="M341.471 269.767C341.471 269.767 344.218 169.855 347.653 148.791C351.087 127.727 357.957 92.2146 357.957 92.2146C357.957 92.2146 360.704 59.1113 302.318 51.8891C261.532 46.844 214.391 47.6706 189.668 48.629C164.944 47.6706 117.803 46.844 77.0178 51.8891C18.6317 59.1113 21.3788 92.2146 21.3788 92.2146C21.3788 92.2146 28.2482 127.723 31.6828 148.791C35.1175 169.855 37.8645 269.767 37.8645 269.767C44.0498 367.267 16.2303 412.406 17.9476 422.939C19.665 433.471 46.4548 444.908 97.9715 456.341C111.689 459.388 124.744 461.468 136.523 462.89C138.967 465.972 141.073 470.173 141.611 475.756C143.082 490.952 142.647 514.225 142.647 514.225H155.674C155.674 514.225 155.242 490.952 156.71 475.756C157.131 471.391 158.51 467.871 160.259 465.07C168.29 465.576 175.088 465.765 180.29 465.812C181.826 468.484 183.012 471.769 183.397 475.752C184.865 490.948 184.434 514.221 184.434 514.221H197.456C197.456 514.221 197.025 490.948 198.497 475.752C198.885 471.747 200.079 468.455 201.621 465.776C207.062 465.683 213.903 465.438 221.827 464.885C223.63 467.714 225.062 471.291 225.493 475.752C226.965 490.948 226.53 514.221 226.53 514.221H239.556C239.556 514.221 239.125 490.948 240.593 475.752C241.16 469.927 243.422 465.608 246.005 462.491C256.929 461.087 268.869 459.113 281.357 456.341C332.873 444.908 359.663 433.471 361.381 422.939C363.105 412.41 335.286 367.267 341.471 269.767Z" fill="#900C1B"/>
<path fill-rule="evenodd" clip-rule="evenodd" d="M36.932 240.075C37.5306 257.217 37.8762 269.772 37.8762 269.772C44.0615 367.273 16.242 412.412 17.9593 422.944C19.6767 433.476 46.4665 444.913 97.9832 456.346C111.701 459.393 124.755 461.473 136.534 462.895C138.979 465.977 141.084 470.178 141.622 475.761C143.094 490.957 142.659 514.23 142.659 514.23H155.685C155.685 514.23 155.254 490.957 156.722 475.761C157.142 471.396 158.521 467.876 160.271 465.076C168.302 465.582 175.1 465.77 180.302 465.817C181.837 468.489 183.024 471.774 183.409 475.757C184.876 490.953 184.445 514.227 184.445 514.227H197.468C197.468 514.227 197.037 490.953 198.508 475.757C198.897 471.753 200.09 468.46 201.633 465.781C207.074 465.688 213.915 465.443 221.839 464.89C223.641 467.719 225.074 471.297 225.505 475.757C226.976 490.953 226.542 514.227 226.542 514.227H239.568C239.568 514.227 239.137 490.953 240.605 475.757C241.171 469.932 243.434 465.614 246.017 462.496C256.941 461.092 268.88 459.118 281.368 456.346C332.885 444.913 359.675 433.476 361.392 422.944C363.045 412.796 337.296 370.526 340.934 280.283L340.93 280.276C340.93 280.276 333.883 326.071 339.106 362.181C344.329 398.292 349.88 412.437 344.985 421.166C340.086 429.895 308.418 448.551 260.101 453.364C211.784 458.181 159.875 459.984 131.144 454.871C102.416 449.755 52.1387 441.329 36.4653 430.796C20.7955 420.264 22.103 413.042 28.6304 396.489C35.1577 379.939 52.4166 304.458 36.932 240.075Z" fill="#A90B21"/>
<path fill-rule="evenodd" clip-rule="evenodd" d="M134.113 462.596L136.543 462.895C138.987 465.977 141.093 470.178 141.631 475.761C143.103 490.957 142.668 514.23 142.668 514.23H155.694C155.694 514.23 155.263 490.957 156.731 475.761C157.151 471.397 158.53 467.876 160.28 465.076C162.357 465.208 164.352 465.315 166.262 465.407C165.36 463.394 164.063 462.243 162.207 462.5C154.415 463.576 153.211 507.283 153.371 509.463C153.535 511.644 151.664 512.335 147.902 512.021C144.72 512.467 145.208 509.463 145.044 496.07C144.88 482.677 143.576 466.202 141.047 463.644C139.579 462.158 136.839 462.243 134.113 462.596Z" fill="#6D090E"/>
<path fill-rule="evenodd" clip-rule="evenodd" d="M170.157 465.574C173.994 465.721 177.397 465.792 180.304 465.817C181.84 468.489 183.026 471.774 183.411 475.757C184.879 490.953 184.448 514.227 184.448 514.227H197.471C197.471 514.227 197.039 490.953 198.511 475.757C198.899 471.753 200.093 468.46 201.636 465.781C203.695 465.745 205.95 465.688 208.394 465.603C207.489 463.469 206.168 462.236 204.254 462.5C196.462 463.576 195.258 507.282 195.418 509.463C195.582 511.643 193.712 512.335 189.949 512.021C186.767 512.466 187.256 509.463 187.092 496.07C186.928 482.677 185.624 466.202 183.094 463.643C180.564 461.085 174.279 463.191 170.77 463.266C167.257 463.34 167.271 465.578 169.141 465.503C169.405 465.492 169.751 465.521 170.157 465.574Z" fill="#6D090E"/>
<path fill-rule="evenodd" clip-rule="evenodd" d="M210.925 465.504C214.274 465.361 217.93 465.165 221.845 464.891C223.648 467.72 225.08 471.297 225.512 475.758C226.983 490.954 226.548 514.227 226.548 514.227H239.575C239.575 514.227 239.143 490.954 240.611 475.758C241.178 469.933 243.44 465.614 246.023 462.497C238.231 463.573 237.027 507.279 237.187 509.46C237.351 511.64 235.481 512.332 231.718 512.018C228.54 512.464 229.025 509.46 228.861 496.067C228.697 482.674 227.389 466.199 224.86 463.64C222.33 461.082 216.045 463.188 212.535 463.263C209.022 463.337 209.037 465.575 210.907 465.5L210.925 465.504Z" fill="#6D090E"/>
<path fill-rule="evenodd" clip-rule="evenodd" d="M308.571 284.04C305.96 255.07 302.044 240.893 307.267 213.155C312.491 185.418 331.428 142.577 321.633 119.158C311.839 95.7347 283.763 101.589 252.419 101.589C221.079 101.589 192.348 110.218 145.99 104.671C99.6291 99.1232 56.5353 99.1231 60.4545 133.641C64.3738 168.159 85.9189 211.306 77.4319 248.906C68.945 286.506 62.4141 306.23 63.0696 329.037C63.7217 351.843 23.8879 417.177 37.6017 430.121C51.312 443.066 115.955 452.928 145.99 458.475C176.026 464.023 193 463.406 245.236 452.928C297.473 442.449 304 449.846 321.633 432.587C339.263 415.328 333.387 403.617 325.549 374.03C317.71 344.44 310.527 308.076 308.571 284.04Z" fill="#A90B21"/>
<path fill-rule="evenodd" clip-rule="evenodd" d="M211.544 473.653C206.065 473.653 201.586 478.132 201.586 483.608V493.937C201.586 499.413 206.065 503.896 211.544 503.896C217.021 503.896 221.503 499.417 221.503 493.937V483.608C221.503 478.132 217.024 473.653 211.544 473.653Z" fill="#F0EBDF"/>
<path fill-rule="evenodd" clip-rule="evenodd" d="M211.551 473.653C208.611 473.653 205.961 474.843 204.133 476.725C204.315 477.013 204.571 477.309 204.924 477.612C204.924 477.612 208.857 475.346 213.019 476.999C217.18 478.652 217.426 480.683 217.832 484.071C218.242 487.456 218.652 495.434 217.996 497.162C217.341 498.893 214.868 502.631 210.895 502.734C209.894 502.759 209.442 503.133 209.356 503.668C210.062 503.817 210.796 503.892 211.547 503.892C217.024 503.892 221.506 499.763 221.506 494.714V482.824C221.509 477.783 217.031 473.653 211.551 473.653Z" fill="#FFFAF2"/>
<path fill-rule="evenodd" clip-rule="evenodd" d="M211.551 472.516C208.476 472.516 205.679 473.677 203.651 475.544C201.621 477.418 200.359 479.998 200.359 482.83V494.72C200.359 497.556 201.621 500.132 203.644 502.003C205.675 503.873 208.472 505.035 211.551 505.035C214.625 505.035 217.422 503.873 219.45 502.006C221.481 500.132 222.738 497.552 222.738 494.72V482.83C222.738 479.994 221.477 477.418 219.453 475.548C217.426 473.677 214.629 472.516 211.551 472.516ZM211.551 474.792C213.948 474.792 216.129 475.697 217.711 477.151C219.293 478.612 220.273 480.625 220.273 482.834V494.724C220.273 496.933 219.293 498.946 217.715 500.403C216.129 501.86 213.948 502.765 211.551 502.765C209.153 502.765 206.972 501.86 205.39 500.406C203.808 498.946 202.828 496.933 202.828 494.724V482.834C202.828 480.625 203.808 478.612 205.387 477.155C206.972 475.694 209.153 474.792 211.551 474.792Z" fill="#DDD8CF"/>
<path fill-rule="evenodd" clip-rule="evenodd" d="M189.677 0.529737C179.743 0.273204 137.996 -0.699543 133.685 0.889534C131.597 1.65913 113.825 7.35635 92.9426 15.088C116.494 7.04637 137.166 2.30051 139.336 2.23282C144.071 2.08317 197.284 2.68536 197.284 2.68536L196.792 0.365877C193.774 0.43001 191.298 0.490545 189.677 0.529737ZM59.7645 28.3171C42.6124 35.8065 27.7691 43.6629 22.357 50.2436C7.01133 68.9028 6.0315 80.3363 7.01131 108.024C7.99112 135.712 20.0731 181.154 18.4377 214.257C16.8059 247.36 20.0696 328.307 13.2145 364.721C6.35939 401.134 -2.12756 433.938 0.484086 448.079C3.09573 462.224 12.2346 482.084 53.0447 482.686C93.8548 483.288 116.711 481.935 121.115 491.865C125.522 501.794 123.89 513.232 123.89 513.232C123.89 513.232 123.566 515.188 134.501 514.436C141.146 513.98 162.121 514.08 177.566 514.226L179.8 512.633C179.8 512.633 129.851 512.783 128.708 511.279C127.567 509.775 127.728 488.562 120.873 483.292C114.017 478.026 94.2645 479.077 79.0828 479.38C63.9011 479.683 6.76908 484.047 4.48523 438.003C2.20138 391.959 24.0815 377.504 23.1017 288.128C22.1219 198.747 25.7134 201.758 18.2062 151.2C10.6991 100.642 4.49597 85.5988 23.1053 55.2033C29.2264 45.2056 43.3678 36.0772 59.7645 28.3171Z" fill="#D4D0C6"/>
<path fill-rule="evenodd" clip-rule="evenodd" d="M321.326 472.746C350.546 469.885 361.973 462.952 366.704 449.872C371.44 436.792 360.501 439.037 338.3 448.368C308.87 460.736 244.605 462.852 244.605 485.687C244.605 490.208 248.956 485.127 254.222 480.407C267.391 468.606 298.709 474.959 321.326 472.746Z" fill="#DDD8CF"/>
<path fill-rule="evenodd" clip-rule="evenodd" d="M275.613 471.848C275.613 471.848 282.96 470.793 295.936 470.868C308.913 470.943 321.073 471.773 334.541 468.384C348.009 465 359.842 457.628 362.129 452.511C364.416 447.395 350.375 461.162 339.03 463.87C327.686 466.578 337.235 460.56 340.42 457.852C343.602 455.145 342.137 454.318 333.077 457.852C324.016 461.39 284.35 465.377 283.776 466.428C283.206 467.483 325.32 462.744 323.118 465.299C320.913 467.861 276.429 468.085 275.613 471.848Z" fill="#B4B0A7"/>
<path fill-rule="evenodd" clip-rule="evenodd" d="M354.866 65.275C354.866 65.275 339.848 53.3889 320.911 49.0243C301.977 44.6597 267.855 44.3568 271.938 42.554C276.021 40.7476 319.115 44.9625 317.319 37.2879C315.524 29.6133 246.837 10.149 252.84 8.39603C258.844 6.64306 323.961 32.9626 338.54 41.9519C353.123 50.9412 355.19 62.1146 354.866 65.275Z" fill="white"/>
<path fill-rule="evenodd" clip-rule="evenodd" d="M24.3864 65.275C24.3864 65.275 39.4043 53.3889 58.3414 49.0243C77.275 44.6597 111.397 44.3568 107.314 42.554C103.235 40.7476 60.1371 44.9625 61.9329 37.2879C63.7286 29.6133 132.415 10.149 126.412 8.39603C120.408 6.64306 55.2915 32.9626 40.7084 41.9519C26.1288 50.9412 24.0586 62.1146 24.3864 65.275Z" fill="white"/>
<path fill-rule="evenodd" clip-rule="evenodd" d="M251.633 19.2305C253.101 22.8433 255.876 26.4561 253.101 29.9157C250.325 33.3754 253.835 33.9776 263.223 33.9776C272.608 33.9776 295.788 34.0524 295.464 33.3006C295.136 32.5488 261.427 21.0369 251.633 19.2305Z" fill="#EDE5D7"/>
<path fill-rule="evenodd" clip-rule="evenodd" d="M128.55 19.2305C127.082 22.8433 124.307 26.4561 127.082 29.9157C129.858 33.3754 126.345 33.9776 116.96 33.9776C107.575 33.9776 84.3944 34.0524 84.7222 33.3006C85.0464 32.5488 118.755 21.0369 128.55 19.2305Z" fill="#EDE5D7"/>
<path fill-rule="evenodd" clip-rule="evenodd" d="M245.721 25.2568C245.721 25.2568 246.619 20.9314 242.086 19.3138C237.558 17.6962 232.374 21.986 234.212 25.7485C236.047 29.511 238.741 28.3066 238.702 27.0275C238.659 25.7484 237.64 23.2651 239.518 22.5489C241.392 21.8328 245.065 22.777 245.721 25.2568Z" fill="#E1D9C9"/>
<path fill-rule="evenodd" clip-rule="evenodd" d="M148.047 25.2568C148.047 25.2568 148.945 20.9314 144.413 19.3138C139.884 17.6962 134.7 21.986 136.535 25.7485C138.37 29.511 141.064 28.3066 141.025 27.0275C140.985 25.7484 139.963 23.2651 141.84 22.5489C143.722 21.8328 147.392 22.777 148.047 25.2568Z" fill="#E1D9C9"/>
<path fill-rule="evenodd" clip-rule="evenodd" d="M159.083 24.2043C159.083 22.3658 159.899 20.6948 161.21 19.4798C162.532 18.2649 164.345 17.5167 166.34 17.5167H213.026C215.021 17.5167 216.835 18.272 218.149 19.4798C219.464 20.6912 220.28 22.3622 220.28 24.2043C220.28 26.0428 219.461 27.7138 218.149 28.9252C216.835 30.1366 215.021 30.892 213.026 30.892H166.34C164.345 30.892 162.532 30.1366 161.217 28.9252C159.902 27.7138 159.083 26.0428 159.083 24.2043ZM159.475 17.8729C157.711 19.4976 156.617 21.7387 156.617 24.2007C156.617 26.6627 157.711 28.9038 159.471 30.5285C161.231 32.1568 163.665 33.1652 166.34 33.1652H213.026C215.702 33.1652 218.135 32.1568 219.895 30.5321C221.655 28.9109 222.749 26.6662 222.749 24.2007C222.749 21.7387 221.655 19.4976 219.895 17.8729C218.135 16.2446 215.702 15.2363 213.026 15.2363H166.34C163.668 15.2399 161.238 16.2517 159.475 17.8729Z" fill="#B2ACA2"/>
<path fill-rule="evenodd" clip-rule="evenodd" d="M57.0207 472.746C27.801 469.885 16.3746 462.952 11.6394 449.872C6.90425 436.792 17.8425 439.037 40.0432 448.368C69.4732 460.736 133.742 462.852 133.742 485.687C133.742 490.208 129.391 485.127 124.125 480.407C110.957 468.606 79.6419 474.959 57.0207 472.746Z" fill="#DDD8CF"/>
<path fill-rule="evenodd" clip-rule="evenodd" d="M102.731 471.848C102.731 471.848 95.3844 470.793 82.4082 470.868C69.4283 470.943 57.268 471.773 43.8 468.384C30.3321 465 18.4996 457.628 16.2121 452.511C13.9247 447.395 27.9663 461.162 39.3108 463.87C50.6552 466.578 41.1065 460.56 37.9248 457.852C34.743 455.145 36.2074 454.318 45.268 457.852C54.3286 461.39 93.995 465.377 94.5686 466.428C95.1387 467.483 53.0245 462.744 55.2264 465.299C57.4319 467.861 101.915 468.085 102.731 471.848Z" fill="#B4B0A7"/>
<path fill-rule="evenodd" clip-rule="evenodd" d="M209.005 503.593C208.991 503.59 203.454 501.235 202.628 497.123C201.684 492.441 201.901 482.141 201.901 482.112C201.901 482.141 200.269 492.413 201.27 497.383C202.389 502.923 208.995 503.593 209.013 503.597L209.005 503.593Z" fill="#B4B0A7"/>
<path fill-rule="evenodd" clip-rule="evenodd" d="M169.107 473.653C163.627 473.653 159.148 478.132 159.148 483.608V493.937C159.148 499.413 163.627 503.896 169.103 503.896C174.58 503.896 179.062 499.417 179.062 493.937V483.608C179.062 478.132 174.583 473.653 169.107 473.653Z" fill="#F0EBDF"/>
<path fill-rule="evenodd" clip-rule="evenodd" d="M169.113 473.653C166.174 473.653 163.523 474.843 161.695 476.725C161.877 477.013 162.134 477.309 162.486 477.612C162.486 477.612 166.42 475.346 170.581 476.999C174.743 478.652 174.989 480.683 175.395 484.071C175.805 487.456 176.214 495.434 175.559 497.162C174.903 498.89 172.431 502.631 168.458 502.734C167.457 502.759 167.004 503.133 166.919 503.668C167.624 503.817 168.358 503.892 169.11 503.892C174.586 503.892 179.068 499.763 179.068 494.714V482.824C179.068 477.783 174.59 473.653 169.113 473.653Z" fill="#FFFAF2"/>
<path fill-rule="evenodd" clip-rule="evenodd" d="M169.117 472.516C166.042 472.516 163.245 473.677 161.218 475.544C159.187 477.418 157.926 479.998 157.926 482.83V494.72C157.926 497.556 159.183 500.132 161.211 502.003C163.242 503.873 166.042 505.035 169.114 505.035C172.188 505.035 174.985 503.873 177.012 502.006C179.043 500.132 180.305 497.552 180.305 494.72V482.83C180.305 479.994 179.043 477.418 177.02 475.548C174.989 473.677 172.192 472.516 169.117 472.516ZM169.114 474.792C171.511 474.792 173.695 475.697 175.274 477.151C176.856 478.612 177.836 480.625 177.836 482.834V494.724C177.836 496.933 176.856 498.946 175.277 500.403C173.692 501.86 171.511 502.765 169.114 502.765C166.716 502.765 164.535 501.86 162.953 500.406C161.371 498.946 160.391 496.933 160.391 494.724V482.834C160.391 480.625 161.371 478.612 162.95 477.155C164.535 475.694 166.716 474.792 169.114 474.792Z" fill="#DDD8CF"/>
<path fill-rule="evenodd" clip-rule="evenodd" d="M166.568 503.593C166.554 503.59 161.02 501.235 160.19 497.123C159.246 492.441 159.463 482.141 159.463 482.112C159.463 482.141 157.832 492.413 158.833 497.383C159.952 502.923 166.557 503.593 166.575 503.597L166.568 503.593Z" fill="#B4B0A7"/>
<path fill-rule="evenodd" clip-rule="evenodd" d="M330.283 294.767C327.019 272.499 325.712 256.85 327.019 227.356C328.327 197.865 332.567 155.733 338.77 136.775C344.973 117.816 342.358 89.8295 335.179 78.0931C327.996 66.3567 286.858 62.4446 238.537 62.1418C190.216 61.8389 160.508 51.6097 135.372 60.0361C110.232 68.4625 129.821 85.9139 152.674 87.1217C175.526 88.326 186.301 90.4316 216.664 89.2273C247.028 88.023 306.771 86.8189 321.137 98.2559C335.503 109.689 335.827 138.279 326.36 172.287C316.89 206.288 304.701 241.198 330.283 294.767Z" fill="#7A0C0E"/>
<path fill-rule="evenodd" clip-rule="evenodd" d="M46.5663 331.174C45.9143 322.145 51.1376 295.666 49.1779 246.91C47.2183 198.158 42.6506 144.593 36.4475 128.642C30.2444 112.69 26.3251 92.2281 41.9985 81.3932C57.672 70.5582 72.6899 75.9775 93.5831 82.5975C114.476 89.2174 135.042 93.7317 153.654 93.7317C172.264 93.7317 147.779 98.5453 106.317 95.8374C64.8549 93.1296 51.7932 102.457 51.7932 124.127C51.7932 145.794 69.4227 199.056 64.1994 239.382C58.9761 279.707 46.5663 331.174 46.5663 331.174Z" fill="#7A0C0E"/>
<path fill-rule="evenodd" clip-rule="evenodd" d="M318.848 63.3332C318.848 63.3332 302.523 62.7311 280.65 59.7204C258.777 56.7097 233.312 56.4104 211.764 55.2062C190.218 54.0019 139.286 51.5968 127.532 56.4104C115.778 61.2239 114.474 67.5446 118.393 75.3689C122.309 83.1931 115.457 86.2003 104.683 80.4853C93.9083 74.7668 72.3774 66.2085 50.483 69.6539C28.5887 73.0993 25.9984 91.3202 25.9984 91.3202C25.9984 91.3202 18.8156 68.446 61.2575 60.3225C103.699 52.1989 167.362 47.3819 220.251 50.9947C273.139 54.604 303.175 54.3047 313.621 57.6147C324.068 60.9247 345.289 67.8474 349.208 78.0767C353.124 88.3095 344.872 67.2239 318.848 63.3332Z" fill="#BF0829"/>
<path fill-rule="evenodd" clip-rule="evenodd" d="M232.393 562.879H233.74H246.1C246.1 562.879 249.214 561.6 249.039 557.236C248.861 552.871 249.039 527.068 249.039 527.068L239.779 517.363V514.213H233.48H232.657H226.357V517.363L217.097 527.068C217.097 527.068 217.275 552.875 217.097 557.236C216.919 561.6 220.033 562.879 220.033 562.879H232.393Z" fill="#D4D0C6"/>
<path fill-rule="evenodd" clip-rule="evenodd" d="M231.699 515.001C233.779 515.04 236.149 514.89 237.168 515.564C238.187 516.241 237.781 517.146 235.411 517.067C233.045 516.992 227.252 517.481 228.802 517.819C230.352 518.158 237.371 517.481 239.249 519.173C241.126 520.865 247.735 526.092 246.631 526.919C245.526 527.745 217.208 526.994 218.434 527.671C219.656 528.348 247.244 529.139 247.735 530.268C248.224 531.397 247.247 557.393 246.513 558.408C245.779 559.424 238.351 558.066 231.004 558.369C223.657 558.668 219.332 558.668 219.007 556.413C218.68 554.158 218.273 531.586 218.273 530.61C218.273 529.63 218.355 527.222 221.619 523.912C224.883 520.602 227.088 518.097 227.088 516.162C227.088 514.228 227.986 514.88 231.699 515.001Z" fill="#F0EBDF"/>
<path fill-rule="evenodd" clip-rule="evenodd" d="M245.045 534.591C241.207 534.741 218.843 533.237 219.658 534.591C220.478 535.945 253.453 537.224 245.045 534.591Z" fill="white"/>
<path fill-rule="evenodd" clip-rule="evenodd" d="M245.045 537.824C241.207 537.973 218.843 536.47 219.658 537.824C220.478 539.181 253.453 540.457 245.045 537.824Z" fill="white"/>
<path fill-rule="evenodd" clip-rule="evenodd" d="M245.045 541.511C241.207 541.665 218.843 540.158 219.658 541.511C220.478 542.865 253.453 544.145 245.045 541.511Z" fill="white"/>
<path fill-rule="evenodd" clip-rule="evenodd" d="M245.045 545.018C241.207 545.172 218.843 543.664 219.658 545.018C220.478 546.372 253.453 547.651 245.045 545.018Z" fill="white"/>
<path fill-rule="evenodd" clip-rule="evenodd" d="M244.285 525.753C243.797 525.19 239.019 519.696 236.247 519.318C233.471 518.941 230.247 518.153 227.35 520.184C224.453 522.215 221.635 525.486 222.412 526.127C223.185 526.768 236.204 525.977 244.285 525.753Z" fill="#FAF7EB"/>
<path fill-rule="evenodd" clip-rule="evenodd" d="M243.222 548.735C238.896 549.113 232.205 549.263 228.856 548.586C225.51 547.909 221.673 547.681 221.345 549.338C221.021 550.994 219.221 556.186 221.997 556.335C224.773 556.485 242.484 557.162 243.792 556.713C245.099 556.264 245.997 548.96 243.222 548.735Z" fill="#DDD8CF"/>
<path fill-rule="evenodd" clip-rule="evenodd" d="M190.127 562.879H191.47H203.834C203.834 562.879 206.948 561.6 206.77 557.236C206.591 552.871 206.77 527.068 206.77 527.068L197.509 517.363V514.213H191.21H190.387H184.088V517.363L174.828 527.068C174.828 527.068 175.006 552.875 174.828 557.236C174.65 561.6 177.764 562.879 177.764 562.879H190.127Z" fill="#D4D0C6"/>
<path fill-rule="evenodd" clip-rule="evenodd" d="M189.433 515.001C191.513 515.04 193.883 514.89 194.902 515.564C195.921 516.241 195.515 517.146 193.145 517.067C190.776 516.992 184.982 517.481 186.532 517.819C188.082 518.158 195.101 517.481 196.979 519.173C198.857 520.865 205.466 526.092 204.361 526.919C203.26 527.745 174.939 526.994 176.164 527.671C177.386 528.348 204.974 529.139 205.466 530.268C205.954 531.397 204.978 557.393 204.244 558.408C203.51 559.424 196.081 558.066 188.734 558.369C181.391 558.668 177.066 558.668 176.738 556.413C176.41 554.158 176.004 531.586 176.004 530.61C176.004 529.63 176.086 527.222 179.35 523.912C182.617 520.602 184.819 518.097 184.819 516.162C184.819 514.228 185.716 514.88 189.433 515.001Z" fill="#F0EBDF"/>
<path fill-rule="evenodd" clip-rule="evenodd" d="M202.775 534.591C198.938 534.741 176.573 533.237 177.389 534.591C178.205 535.945 211.18 537.224 202.775 534.591Z" fill="white"/>
<path fill-rule="evenodd" clip-rule="evenodd" d="M202.775 537.824C198.938 537.973 176.573 536.47 177.389 537.824C178.205 539.181 211.18 540.457 202.775 537.824Z" fill="white"/>
<path fill-rule="evenodd" clip-rule="evenodd" d="M202.775 541.511C198.938 541.665 176.573 540.158 177.389 541.511C178.205 542.865 211.18 544.145 202.775 541.511Z" fill="white"/>
<path fill-rule="evenodd" clip-rule="evenodd" d="M202.775 545.018C198.938 545.172 176.573 543.664 177.389 545.018C178.205 546.372 211.18 547.651 202.775 545.018Z" fill="white"/>
<path fill-rule="evenodd" clip-rule="evenodd" d="M202.019 525.753C201.527 525.19 196.753 519.696 193.977 519.318C191.202 518.941 187.977 518.153 185.081 520.184C182.184 522.215 179.366 525.486 180.142 526.127C180.919 526.768 193.938 525.977 202.019 525.753Z" fill="#FAF7EB"/>
<path fill-rule="evenodd" clip-rule="evenodd" d="M200.953 548.735C196.628 549.113 189.933 549.263 186.587 548.586C183.242 547.909 179.404 547.681 179.077 549.338C178.749 550.994 176.953 556.186 179.729 556.335C182.504 556.485 200.216 557.162 201.523 556.713C202.831 556.264 203.729 548.96 200.953 548.735Z" fill="#DDD8CF"/>
<path fill-rule="evenodd" clip-rule="evenodd" d="M148.51 562.504H149.857H162.22C162.22 562.504 165.334 561.225 165.156 556.861C164.978 552.496 165.156 526.693 165.156 526.693L155.896 516.988V513.838H149.597H148.774H142.475V516.988L133.214 526.693C133.214 526.693 133.393 552.5 133.214 556.861C133.036 561.225 136.15 562.504 136.15 562.504H148.51Z" fill="#D4D0C6"/>
<path fill-rule="evenodd" clip-rule="evenodd" d="M147.816 514.624C149.897 514.66 152.266 514.51 153.285 515.187C154.304 515.864 153.898 516.766 151.528 516.694C149.163 516.619 143.369 517.108 144.919 517.446C146.469 517.785 153.488 517.108 155.366 518.8C157.243 520.492 163.853 525.719 162.748 526.546C161.647 527.373 133.325 526.621 134.551 527.298C135.773 527.975 163.361 528.766 163.853 529.895C164.344 531.024 163.365 557.02 162.631 558.035C161.897 559.051 154.468 557.693 147.121 557.993C139.774 558.295 135.449 558.292 135.125 556.036C134.797 553.781 134.391 531.21 134.391 530.233C134.391 529.257 134.473 526.845 137.736 523.535C141 520.225 143.205 517.72 143.205 515.786C143.202 513.851 144.103 514.507 147.816 514.624Z" fill="#F0EBDF"/>
<path fill-rule="evenodd" clip-rule="evenodd" d="M161.162 534.216C157.324 534.366 134.96 532.862 135.776 534.216C136.592 535.57 169.567 536.849 161.162 534.216Z" fill="white"/>
<path fill-rule="evenodd" clip-rule="evenodd" d="M161.162 537.452C157.324 537.601 134.96 536.098 135.776 537.452C136.592 538.806 169.567 540.085 161.162 537.452Z" fill="white"/>
<path fill-rule="evenodd" clip-rule="evenodd" d="M161.162 541.139C157.324 541.293 134.96 539.786 135.776 541.139C136.592 542.493 169.567 543.772 161.162 541.139Z" fill="white"/>
<path fill-rule="evenodd" clip-rule="evenodd" d="M161.162 544.647C157.324 544.8 134.96 543.293 135.776 544.647C136.592 546.001 169.567 547.28 161.162 544.647Z" fill="white"/>
<path fill-rule="evenodd" clip-rule="evenodd" d="M160.406 525.378C159.918 524.815 155.14 519.321 152.364 518.943C149.589 518.566 146.364 517.778 143.467 519.809C140.571 521.84 137.752 525.111 138.529 525.752C139.306 526.393 152.325 525.602 160.406 525.378Z" fill="#FAF7EB"/>
<path fill-rule="evenodd" clip-rule="evenodd" d="M159.339 548.363C155.013 548.741 148.322 548.891 144.973 548.214C141.627 547.537 137.79 547.309 137.462 548.965C137.138 550.622 135.339 555.813 138.114 555.963C140.89 556.113 158.601 556.79 159.905 556.341C161.216 555.885 162.114 548.588 159.339 548.363Z" fill="#DDD8CF"/>
<path fill-rule="evenodd" clip-rule="evenodd" d="M239.714 464.997C237.43 468.382 234.9 480.496 234.737 490.725C234.573 500.958 235.795 508.558 233.429 509.384C231.063 510.211 230.657 501.859 230.735 496.668C230.817 491.477 230.899 461.459 225.184 460.404C219.469 459.353 199.392 458.299 196.944 464.769C194.497 471.239 195.965 508.404 191.393 509.908C186.822 511.412 187.495 496.629 188.14 488.299C188.782 479.965 187.966 460.166 181.927 459.05C175.887 457.935 155.158 459.353 153.85 464.317C152.546 469.28 152.219 507.802 149.771 508.853C147.323 509.908 147.811 498.621 147.811 489.745C147.811 480.87 147.647 462.663 143.896 460.857C140.14 459.05 134.589 457.999 119.571 455.591C104.553 453.182 78.9821 447.239 84.9109 446.901C90.8397 446.562 137.201 456.795 156.138 455.591C175.075 454.387 223.556 458.602 240.694 457.846C257.835 457.094 298.481 448.818 292.603 451.376C286.727 453.941 240.694 459.506 239.714 464.997Z" fill="#D70228"/>
<path fill-rule="evenodd" clip-rule="evenodd" d="M290.893 133.886H88.4814C78.2522 133.886 69.8828 142.252 69.8828 152.481V350.916C69.8828 361.145 78.2522 369.511 88.4814 369.511H290.893C301.122 369.511 309.488 361.145 309.488 350.916V152.481C309.488 142.252 301.118 133.886 290.893 133.886Z" fill="#E5E5E5"/>
<path d="M298.005 144.404H293.598V171.49H298.005V144.404Z" fill="#000003"/>
<path d="M291.893 144.404H289.688V171.49H291.893V144.404Z" fill="#000003"/>
<path d="M288.339 144.404H286.137V171.49H288.339V144.404Z" fill="#000003"/>
<path d="M284.334 144.404H282.129V171.49H284.334V144.404Z" fill="#000003"/>
<path d="M280.046 144.404H277.438V171.49H280.046V144.404Z" fill="#000003"/>
<path d="M275.603 144.404H271.605V171.49H275.603V144.404Z" fill="#000003"/>
<path d="M270.25 144.404H269.395V171.49H270.25V144.404Z" fill="#000003"/>
<path d="M269.039 144.404H268.184V171.49H269.039V144.404Z" fill="#000003"/>
<path d="M266.546 144.404H263.938V171.49H266.546V144.404Z" fill="#000003"/>
<path d="M263.093 144.404H262.238V171.49H263.093V144.404Z" fill="#000003"/>
<path d="M261.076 144.404H257.078V171.49H261.076V144.404Z" fill="#000003"/>
<path d="M256.121 144.404H255.266V171.49H256.121V144.404Z" fill="#000003"/>
<path d="M254.117 144.404H253.262V171.49H254.117V144.404Z" fill="#000003"/>
<path d="M251.781 144.404H250.926V171.49H251.781V144.404Z" fill="#000003"/>
<path d="M249.44 144.404H246.832V171.49H249.44V144.404Z" fill="#000003"/>
<path d="M245.155 144.404H242.949V171.49H245.155V144.404Z" fill="#000003"/>
<path d="M240.866 144.404H238.258V171.49H240.866V144.404Z" fill="#000003"/>
<path d="M236.427 144.404H232.43V171.49H236.427V144.404Z" fill="#000003"/>
<path d="M230.287 144.404H226.289V171.49H230.287V144.404Z" fill="#000003"/>
<path d="M225.327 144.404H224.469V171.49H225.327V144.404Z" fill="#000003"/>
<path d="M223.332 144.404H222.477V171.49H223.332V144.404Z" fill="#000003"/>
<path d="M220.996 144.404H220.141V171.49H220.996V144.404Z" fill="#000003"/>
<path d="M218.655 144.404H216.047V171.49H218.655V144.404Z" fill="#000003"/>
<path d="M245.359 192.399H77.3555V208.076H245.359V192.399Z" fill="#7E7E7D"/>
<path d="M245.359 214.967H77.3555V222.805H245.359V214.967Z" fill="#7E7E7D"/>
<path d="M293.028 346.479H77.3555V354.318H293.028V346.479Z" fill="#7E7E7D"/>
<path opacity="0.2" fill-rule="evenodd" clip-rule="evenodd" d="M302.68 123.064C302.68 145.332 285.703 175.428 279.175 215.754C272.645 256.079 279.831 340.942 290.278 379.461C300.724 417.98 296.502 428.572 255.019 429.417C213.535 430.261 129.001 431.223 147.282 424.6C165.564 417.98 236.734 399.923 239.345 363.812C241.957 327.698 262.665 204.951 251.983 173.939C241.305 142.927 223.02 159.174 223.02 180.242C223.02 201.306 225.909 292.827 216.489 295.803C207.072 298.778 189.065 221.169 196.248 184.457C203.431 147.744 212.57 114.641 180.578 112.232C58.4291 103.033 302.68 69.4518 302.68 123.064Z" fill="white"/>
<path fill-rule="evenodd" clip-rule="evenodd" d="M248.369 105.297C263.711 109.512 287.871 109.512 287.543 127.266C287.219 145.02 277.097 169.398 273.83 194.976C270.566 220.555 271.546 238.612 267.954 229.886C264.363 221.161 264.691 183.842 266.974 163.982C269.258 144.119 276.117 129.977 259.792 123.956C243.47 117.938 188.949 97.1734 248.369 105.297Z" fill="white"/>
<path opacity="0.5" fill-rule="evenodd" clip-rule="evenodd" d="M100.153 126.061C80.5644 133.885 87.7473 150.135 92.3185 194.074C96.8898 238.012 93.6297 280.746 81.2235 333.709C68.8172 386.673 63.5939 401.117 76.0002 402.321C88.4064 403.525 102.117 379.451 105.38 330.097C108.647 280.743 109.3 200.694 121.05 198.887C132.804 197.081 124.966 279.538 137.372 268.101C149.778 256.664 131.493 201.292 149.126 172.404C166.756 143.512 157.613 126.057 100.153 126.061Z" fill="white"/>
</svg>
