<svg width="299" height="939" viewBox="0 0 299 939" fill="none" xmlns="http://www.w3.org/2000/svg">
<path d="M91.9073 878.225C72.88 882.086 53.637 880.713 46.82 890.91C42.5054 897.36 42.9008 904.738 43.3826 908.348C41.0599 907.449 43.6271 912.555 44.6123 912.698C58.1241 914.626 67.2351 918.552 84.0476 918.768C94.8413 918.904 147.436 903.027 149.823 902.861C149.823 902.861 136.923 912.109 138.569 925.426C138.569 933.416 139.476 932.833 139.476 932.833C174.747 944.08 200.699 936.558 226.551 930.352C228.147 925.347 232.973 921.68 231.304 915.251C224.271 888.156 228.406 879.857 222.826 871.221C200.915 872.731 157.309 876.808 155.605 864.159C152.915 844.19 114.537 849.842 91.9073 878.225Z" fill="url(#paint0_linear_578_2156)"/>
<path opacity="0.58" d="M210.04 904.708C201.878 902.249 192.753 900.961 174.107 900.264C168.426 900.048 153.282 906.7 158.991 906.391C175.869 905.492 200.253 905.132 210.263 906.391C215.901 907.11 215.534 906.369 210.04 904.708Z" fill="#64647C"/>
<path opacity="0.58" d="M79.0578 885.372C73.6933 883.437 49.8337 886.328 55.4139 887.572C66.6606 890.082 91.1458 892.246 101.357 890.154C112.417 887.889 94.9211 891.089 79.0578 885.372Z" fill="#64647C"/>
<path d="M183.628 933.09C159.502 933.09 138.584 926.072 138.246 925.935L137.311 925.562L137.246 924.555C136.434 911.388 142.064 907.678 146.587 904.693C147.882 903.838 149.061 903.054 150.039 902.126C149.018 902.658 148.026 902.903 147.084 903.025C139.461 903.989 132.982 905.887 126.129 907.9C122.843 908.864 119.492 909.849 115.925 910.755C98.3576 915.221 87.4777 917.587 68.0692 914.545C65.9407 914.214 62.6904 913.517 59.2459 912.783C53.3852 911.532 46.7407 910.115 43.2891 909.936L43.4545 906.75C47.1579 906.944 53.9317 908.39 59.9074 909.662C63.3088 910.389 66.5159 911.072 68.5582 911.388C87.3769 914.358 97.4803 912.143 115.134 907.663C118.665 906.764 121.973 905.794 125.223 904.837C132.205 902.788 138.8 900.853 146.681 899.854C148.32 899.645 151.743 899.214 155.59 886.968L155.893 886.011L157.884 885.666L158.445 886.486C158.589 886.694 158.596 887.191 158.51 887.874L158.632 887.917C158.546 888.197 158.46 888.471 158.366 888.737C157.554 892.965 154.548 901.378 154.497 901.465C153.066 904.212 150.665 905.801 148.335 907.332C144.042 910.166 139.979 912.841 140.367 923.311C151.218 927.179 201.447 938.901 230.096 916.249L232.074 918.752C218.152 929.804 200.139 933.09 183.628 933.09Z" fill="#8C8C96"/>
<path d="M232.586 921.55C233.032 919.464 230.666 918.472 228.933 919.709C212.948 931.135 196.02 930.948 192.439 931.632C189.8 932.142 154.989 931.732 138.421 925.318C137.896 925.117 136.364 926.598 136.364 926.598C136.004 930.157 137.745 932.156 139.492 932.825C154.586 938.564 192.734 942.763 226.366 931.998C226.366 931.998 230.278 931.977 232.572 921.658C232.572 921.622 232.579 921.586 232.586 921.55Z" fill="url(#paint1_linear_578_2156)"/>
<path opacity="0.63" d="M171.641 901.401C169.843 900.697 163.551 905.529 165.96 905.587C172.353 905.752 189.525 904.688 187.447 903.875C186.383 903.465 175.021 902.725 171.641 901.401Z" fill="#C7B9DA"/>
<path d="M231.52 919.544C230.952 919.544 230.449 919.142 230.341 918.559C229.104 911.764 227.917 904.86 226.767 898.173C225.508 890.852 224.293 883.783 223.107 877.405C222.984 876.758 223.416 876.132 224.063 876.01C224.703 875.909 225.336 876.319 225.458 876.967C226.645 883.352 227.86 890.428 229.125 897.763C230.276 904.45 231.463 911.347 232.692 918.128C232.807 918.782 232.376 919.4 231.729 919.523C231.664 919.537 231.592 919.544 231.52 919.544Z" fill="#1E0E09"/>
<path d="M146.175 902.501C130.88 904.4 114.787 910.757 99.7864 914.244C81.4854 918.494 62.1417 912.648 44.1427 908.592C43.5171 908.434 43.3517 906.694 43.3517 906.694C40.7845 907.449 42.4097 912.698 42.4097 912.698C42.4097 915.179 58.4024 922.348 89.2948 921.521C100.908 921.212 132.973 910.073 142.379 908.218C142.379 908.218 148.167 905.119 151.482 901.667C152.813 900.272 149.656 902.07 146.175 902.501Z" fill="url(#paint2_linear_578_2156)"/>
<path opacity="0.63" d="M74.9286 885.371C73.1308 884.667 61.4024 886.357 63.725 887.004C70.0459 888.766 85.4347 889.398 83.3565 888.593C82.2922 888.176 78.3083 886.694 74.9286 885.371Z" fill="#C7B9DA"/>
<path d="M242.064 666.286C243.725 661.892 85.7103 653.486 82.8843 656.002C75.7149 662.381 79.2457 675.145 80.3531 683.328C82.194 696.991 98.3089 830.182 100.042 837.265C97.2878 862.498 88.3998 878.326 90.1112 879.181C92.3188 880.282 105.557 886.905 112.727 889.659C131.754 894.901 138.844 887.789 154.096 886.07C154.736 886.128 182.256 891.859 185.262 892.139C205.116 891.586 229.249 883.59 231.73 877.801C235.038 872.839 228.005 847.189 230.213 822.919C232.881 808.66 235.98 778.882 236.002 764.457C236.03 746.896 232.593 739.029 229.853 721.67C229.911 717.938 239.921 671.967 242.064 666.286ZM164.02 851.611C161.978 858.917 160.158 868.711 159.605 863.196C159.605 863.196 155.046 845.046 155.19 840.034C156.556 792.595 158.497 749.579 151.882 716.896C150.738 711.251 157.404 684.4 157.26 685.457C151.472 728.063 172.426 821.56 164.02 851.611Z" fill="#2C5C69"/>
<path opacity="0.6" d="M233.529 768.326C233.558 750.765 228.545 737.146 225.806 719.787C225.863 716.04 239.929 671.967 242.079 666.286C243.445 662.669 233.845 660.08 209.813 669.04C209.504 672.858 203.384 688.376 203.197 692.202C202.644 703.233 204.772 713.509 204.298 713.164C226.359 719.779 222.03 806.955 214.365 834.367C212.682 840.393 216.019 848.433 191.613 854.222C189.578 854.704 187.377 865.08 186.651 867.043C183.631 875.176 183.113 886.178 184.997 886.344C204.851 885.79 226.086 882.209 228.567 876.413C231.875 871.451 223.052 851.043 225.259 826.774C227.92 812.536 233.507 782.758 233.529 768.326Z" fill="#77979F"/>
<g opacity="0.71">
<path d="M167.891 868.646C167.453 868.646 167.014 868.466 166.705 868.113C166.115 867.459 166.173 866.452 166.827 865.863C178.232 855.659 190.406 849.323 199.395 848.914C205.946 848.612 210.713 842.852 211.533 834.222C211.62 833.345 212.389 832.741 213.273 832.784C214.151 832.87 214.791 833.647 214.712 834.524C213.748 844.671 207.65 851.732 199.546 852.099C191.269 852.473 179.835 858.513 168.963 868.243C168.646 868.516 168.265 868.646 167.891 868.646Z" fill="#1F393D"/>
</g>
<g opacity="0.71">
<path d="M98.1135 874.715C97.7683 874.715 97.4232 874.607 97.1283 874.377C96.438 873.838 96.3085 872.831 96.855 872.14C100.551 867.416 110.266 856.241 120.729 854.451L123.505 853.983C133.845 852.265 135.996 851.905 138.505 843.693C138.764 842.852 139.656 842.384 140.497 842.636C141.338 842.895 141.813 843.786 141.554 844.628C138.469 854.731 134.536 855.378 124.022 857.126L121.268 857.593C111.899 859.197 102.831 869.667 99.3647 874.096C99.0554 874.506 98.5881 874.715 98.1135 874.715Z" fill="#77979F"/>
</g>
<g opacity="0.72">
<path d="M141.564 888.508H141.55C140.665 888.501 139.961 887.774 139.975 886.89C140.306 856.659 133.316 844.952 130.684 840.537C129.908 839.235 129.476 838.516 129.455 837.718C128.807 815.232 128.081 792.185 127.355 769.138C126.564 744.048 125.773 718.959 125.083 694.589C125.061 693.712 125.751 692.971 126.636 692.949C127.52 692.863 128.254 693.618 128.275 694.503C128.966 718.866 129.757 743.948 130.548 769.037C131.274 792.084 132 815.131 132.647 837.624C132.691 837.668 133.079 838.322 133.424 838.904C136.185 843.521 143.506 855.796 143.168 886.926C143.153 887.803 142.441 888.508 141.564 888.508Z" fill="#1F393D"/>
</g>
<g opacity="0.72">
<path d="M145.279 888.091C145.214 888.091 145.15 888.091 145.085 888.076C144.208 887.968 143.589 887.177 143.69 886.3C146.329 864.576 138.088 846.8 134.989 840.105C133.932 837.826 133.63 837.135 133.608 836.474C133.069 814.513 132.378 791.76 131.674 769.001C130.926 744.681 130.156 719.542 129.61 695.84C129.588 694.956 130.286 694.229 131.17 694.208C132.026 694.15 132.781 694.884 132.803 695.768C133.349 719.462 134.126 744.595 134.866 768.908C135.564 791.674 136.262 814.441 136.801 836.402C136.858 836.553 137.376 837.682 137.887 838.775C141.087 845.693 149.601 864.066 146.854 886.696C146.767 887.494 146.077 888.091 145.279 888.091Z" fill="#1F393D"/>
</g>
<path opacity="0.37" d="M155.002 870.379C153.19 861.836 150.141 846.864 150.242 843.333C151.608 795.895 153.55 744.055 147.488 717.024C145.697 709.064 154.247 690.432 156.656 685.887C152.557 687.505 149.832 688.929 149.142 690C139.211 705.447 137.485 716.564 139.211 723.647C157.066 766.728 142.21 856.32 141.138 857.126C137.83 859.607 122.657 877.944 123.765 884.013C123.765 890.219 145.69 884.013 154.456 877.002C154.528 874.794 154.743 872.579 155.002 870.379Z" fill="#77979F"/>
<path d="M223.874 880.231H223.852C222.975 880.217 222.263 879.498 222.277 878.613C222.45 864.742 220.544 855.933 219.279 850.108C218.423 846.168 217.812 843.32 218.157 840.774C227.045 775.38 226.132 769.03 223.111 748.004C222.148 741.302 220.954 732.96 219.803 720.764C219.012 712.394 218.969 707.518 221.954 698.99C222.241 698.156 223.154 697.717 223.989 698.012C224.823 698.3 225.261 699.213 224.967 700.047C222.176 708.015 222.22 712.387 222.982 720.469C224.125 732.593 225.312 740.892 226.275 747.558C229.339 768.929 230.266 775.38 221.321 841.213C221.047 843.205 221.616 845.822 222.399 849.447C223.694 855.415 225.65 864.433 225.47 878.663C225.463 879.534 224.744 880.231 223.874 880.231Z" fill="#1F393D"/>
<path d="M62.2645 529.915C60.9054 529.067 51.2336 501.784 26.9641 514.606C25.0657 515.605 18.6873 520.927 13.8622 527.571C9.05143 534.187 7.92961 556.392 1.72381 560.11C-1.34673 561.951 3.34898 563.749 6.68559 564.245C14.1858 565.367 17.019 550.503 17.8531 549.77C17.2994 552.941 12.4742 566.733 14.1282 571.278C14.9551 575.413 17.8532 576.793 22.2612 575.966C25.1232 575.434 30.3511 573.298 32.7385 571.695C36.0463 577.074 42.8705 580.547 49.2849 574.593C56.181 574.593 55.4978 574.384 56.4542 573.766C69.9157 565.022 63.2928 530.131 62.2645 529.915Z" fill="url(#paint3_linear_578_2156)"/>
<path d="M97.9809 16.1357C94.6731 15.7187 83.7571 17.1712 82.398 20.8242C80.9599 24.6858 79.3635 32.2723 79.9172 37.234C80.6506 43.8209 88.87 37.0614 91.3653 31.0282C92.6237 27.9793 100.613 16.4665 97.9809 16.1357Z" fill="#565452"/>
<path d="M83.9228 20.1333C82.4918 22.5351 80.277 35.5148 82.5422 38.197C84.8433 40.9224 83.6999 35.8024 86.4325 34.2564C88.0864 33.3215 95.6082 19.6874 95.8959 19.3423C97.6217 17.2857 85.6415 17.2353 83.9228 20.1333Z" fill="url(#paint4_linear_578_2156)"/>
<path d="M209.877 83.7016C204.088 83.4068 213.53 80.8756 210.898 81.9111C215.026 75.2522 231.666 76.108 227.581 61.5966C226.1 56.34 220.57 34.537 203.355 21.9672C182.156 3.55829 150.796 1.20684 146.165 0.753807C131.819 -0.648432 104.558 3.16277 95.5335 16.3007C82.8774 34.7239 74.4566 64.739 83.3375 67.6801C84.4161 75.77 74.1403 83.9317 73.8742 89.0157C73.0976 103.829 66.8918 156.776 99.8767 175.998C102.523 177.537 137.766 203.172 140.434 204.589C147.308 208.235 199.536 215.929 185.003 129.616C187.398 131.442 189.232 132.442 192.367 133.06C197.825 134.132 205.224 128.667 210.157 122.166C219.872 109.352 220.627 84.2553 209.877 83.7016Z" fill="url(#paint5_linear_578_2156)"/>
<path opacity="0.47" d="M133.692 184.778C131.764 184.498 129.276 177.882 128.449 175.128C128.162 174.179 170.092 148.651 168.992 145.897C167.777 142.848 98.6859 173.597 103.907 176.236C110.925 179.781 119.899 187.82 125.695 189.474C128.989 191.071 134.936 200.512 141.458 201.354C169.272 204.906 145.003 186.432 133.692 184.778Z" fill="#CF9E7F"/>
<path d="M138.242 199.39C135.114 199.426 121.954 191.947 119.215 190.286C117.057 188.985 112.434 235.855 111.592 250.093C110.945 260.959 106.213 285.61 105.998 286.832C104.099 297.87 109.701 336.644 111.211 345.237C112.405 352.025 127.384 345.431 126.398 339.794C125.579 335.105 156.176 280.562 163.065 260.607C163.374 260.01 202.781 170.425 192.433 152.641C191.124 150.398 139.486 198.563 138.242 199.39Z" fill="#F9F8F7"/>
<path d="M115.262 350.127C111.99 350.127 109.747 348.43 109.243 345.582C108.229 339.779 101.959 298.553 104.03 286.494L104.224 285.459C108.193 264.123 109.337 254.386 109.603 249.978C110.02 242.924 111.286 228.197 112.81 214.786C115.758 188.869 118.131 188.941 118.131 188.941C119.045 190.106 135.347 198.513 137.108 199.095C138.237 198.088 142.379 194.651 145.428 191.94C179.88 161.314 188.883 153.325 191.206 153.325L194.162 151.642C205.308 170.813 165.283 260.678 164.844 261.527C161.478 271.336 152.03 290.125 143.695 306.693C136.547 320.903 128.45 337.003 128.386 339.585C128.673 341.189 128.077 343.008 126.638 344.727C124.086 347.754 119.095 350.127 115.262 350.127ZM120.217 192.566C118.117 199.368 114.5 234.884 113.587 250.223C113.321 254.746 112.156 264.655 108.15 286.199L107.971 287.184C106.151 297.784 111.559 335.673 113.184 344.906C113.256 345.338 113.4 346.143 115.269 346.143C117.966 346.143 121.77 344.324 123.582 342.167C124.229 341.397 124.531 340.685 124.438 340.153C123.956 337.413 128.364 328.31 140.129 304.91C148.405 288.45 157.79 269.797 161.184 259.974C166.189 249.245 197.663 172.733 191.206 154.338C185.137 158.459 157.919 184.224 147.197 194.004C140.668 199.965 139.719 200.821 139.352 201.065L138.856 201.396L138.259 201.403C136.202 201.403 132.751 199.491 127.293 196.37C125.063 195.075 121.885 193.263 120.217 192.566Z" fill="#B2B2B2"/>
<path d="M146.095 222.969C147.857 221.178 136.919 202.518 136.991 201.461C137.408 195.672 127.787 212.938 126.651 218.424C124.961 226.55 127.305 224.666 129.549 232.9C127.866 236.006 111.909 265.151 109.277 277.987C109.069 279.015 101.18 296.396 105.552 306.945C106.588 311.835 111.959 334.177 113.822 334.249C118.057 334.407 141.486 298.934 141.586 297.122C141.673 295.634 147.368 288.313 147.468 285.825C148.152 269.717 138.638 234.144 138.638 234.144C138.559 233.051 145.024 224.062 146.095 222.969Z" fill="url(#paint6_linear_578_2156)"/>
<path d="M148.413 228.563C148.413 228.563 137.375 202.747 136.426 200.763L137.087 199.763C138.044 201.776 146.443 220.811 148.737 225.061C153.655 217.776 182.002 183.281 183.857 180.951L184.526 182.116C182.664 184.461 179.974 188.452 176.206 192.939C166.908 204.006 148.413 228.563 148.413 228.563Z" fill="#B2B2B2"/>
<path d="M123.774 228.399C123.774 228.399 117.827 218.274 116.339 216.57L116.281 214.75C118.086 216.828 123.961 223.336 123.961 223.336C129.57 207.574 131.749 201.548 137.085 199.771L136.919 200.936C133.058 202.224 130.692 209.558 125.766 223.408L123.774 228.399Z" fill="#B2B2B2"/>
<path d="M273.512 223.387C269.787 192.775 242.9 194.429 210.634 176.229C206.032 173.633 203.191 150.305 198.222 151.406C188.148 153.642 159.542 230.003 147.756 255.653C145.707 260.112 115.49 323.493 116.317 316.05C117.295 307.256 109.975 232.764 122.66 193.056C123.098 191.689 123.76 192.502 116.59 187.54C114.886 186.361 111.046 200.527 109.069 202.131C91.7527 216.196 63.2405 241.465 61.7089 248.21C46.5431 314.95 41.8547 356.866 37.7127 389.959C37.7127 389.959 22.2665 480.414 12.3429 517.922C10.8256 523.668 36.0588 524.538 43.5086 524.538C43.5086 524.538 48.1539 644.231 50.2249 682.94C50.5557 689.153 55.8338 693.921 62.0468 693.648L118.798 691.109C146.138 699.667 143.312 699.544 146.102 699.933C175.65 704.082 271.879 695.187 272.685 688.348C275.993 660.217 256.692 501.052 256.692 469.376C256.692 469.376 282.889 410.913 295.3 394.367C307.798 377.705 276.295 246.269 273.512 223.387Z" fill="url(#paint7_linear_578_2156)"/>
<path d="M225.305 553.013C225.211 553.005 225.118 553.005 225.024 552.998C224.19 552.689 205.889 553.602 203.013 553.401C202.61 553.214 193.247 535.265 188.458 538.494C186.79 539.573 185.229 554.789 179.628 546.253C175.529 540.011 174.565 549.36 177.557 556.385C181.691 566.107 188.314 564.036 193.276 561.764C193.47 561.678 193.693 568.797 209.823 562.382C209.823 562.382 212.742 564.504 215.82 563.209C219.379 561.721 231.539 553.286 225.305 553.013Z" fill="#DCB09D"/>
<path d="M137 510.199C130.852 461.94 117.419 326.843 117.419 316.877C117.419 312.188 105.432 338.068 105.561 341.419C106.115 356.039 103.296 452.966 103.908 468.829C104.922 495.342 116.794 681.15 120.454 689.455C122.122 693.238 156.308 704.348 184.986 697.725C177.917 692.964 155.201 653.047 137 510.199Z" fill="url(#paint8_linear_578_2156)"/>
<path d="M259.036 570.45L173.672 573.14C174.053 573.37 168.379 573.456 168.559 573.298L140.723 574.175L142.585 661.042L261.308 650.493L259.036 570.45Z" fill="white"/>
<path d="M140.529 577.073L123.148 574.794L126.665 655.872L143.211 661.251L140.529 577.073Z" fill="#96989A"/>
<path d="M175.269 575.133L259.036 570.451L237.319 568.38L123.148 574.795L140.522 577.067L166.064 575.643C172.378 575.212 174.341 575.212 175.269 575.133Z" fill="#C1C0B5"/>
<path d="M165.119 566.92C164.882 566.949 164.22 569.035 163.983 570.552C163.688 572.457 162.559 573.536 164.558 573.766C167.657 574.119 171.569 573.622 172.109 573.464C172.295 573.407 173.317 567.294 173.317 566.741C173.317 565.691 166.291 565.899 165.119 566.92ZM165.356 572.314C165.435 572.141 165.888 569.178 166.118 568.085C166.442 568.121 171.425 567.819 171.483 568.208C171.663 569.408 170.9 572.206 170.9 572.206C170.821 572.206 165.212 572.637 165.356 572.314Z" fill="#5F797B"/>
<path d="M229.397 563.34C229.16 563.369 228.433 566.331 228.196 567.841C227.901 569.747 228.261 570.991 228.771 571.056C232.029 571.487 234.668 572.177 236.315 570.754C236.466 570.624 236.617 563.541 236.617 562.987C236.617 561.945 230.562 562.319 229.397 563.34ZM234.042 569.898C233.481 569.941 229.397 569.984 229.57 569.61C229.641 569.459 230.001 565.785 230.245 564.533C230.792 564.555 234.754 564.382 234.812 564.778C234.999 565.972 234.057 569.898 234.042 569.898Z" fill="#5F797B"/>
<path d="M192.858 536.89C182.862 539.839 176.908 542.276 170.105 550.388C167.013 554.077 166.158 562.548 166.172 566.726C166.172 567.394 166.69 566.826 166.69 566.826C166.69 567.092 166.69 568.38 166.69 568.38C167.869 568.48 169.422 568.487 170.825 568.38C171.119 568.358 171.206 567.186 171.134 566.416C171.134 566.416 172.457 566.575 172.479 566.107C172.852 558.053 180.338 551.653 181.474 550.596C185.674 546.677 190.499 546.8 196.043 545.937C211.95 543.463 228.841 548.806 229.805 564.245C229.841 564.77 233.307 564.935 234.012 564.763C234.429 564.662 235.256 563.375 235.256 562.9C235.256 537.401 214.725 530.44 192.858 536.89Z" fill="#68574E"/>
<path d="M231.317 512.125C229.958 511.276 208.701 523.429 195.743 500.54C194.686 498.67 187.747 503.143 182.922 509.781C178.111 516.396 176.306 535.841 168.734 539.939C165.584 541.644 168.353 544.98 171.696 545.476C179.197 546.598 185.395 535.337 186.229 534.604C186.92 543.564 186.366 539.983 182.504 551.287C181.397 554.041 186.92 559.01 191.328 558.183C194.19 557.644 195.563 556.752 197.943 555.148C201.251 560.527 206.285 562.756 212.699 556.802C212.929 556.687 224.564 556.594 225.521 555.975C238.968 547.231 232.345 512.348 231.317 512.125Z" fill="url(#paint9_linear_578_2156)"/>
<path d="M232.538 506.748C221.781 512.127 201.402 495.098 197.375 488.547C194.11 483.226 188.422 499.485 188.422 499.485C194.081 508.704 208.204 516.571 222.608 515.025C234.192 513.781 235.753 505.144 232.538 506.748Z" fill="#F9F8F7"/>
<path d="M218.945 517.016C206.081 517.016 192.9 510.192 186.902 500.419L186.449 499.686L186.737 498.88C188.463 493.947 191.943 485.678 195.884 485.678C196.725 485.678 197.94 486.009 198.911 487.605C202.277 493.092 217.636 505.985 227.805 505.985C229.293 505.985 230.623 505.705 231.738 505.144C233.759 504.123 235.693 505.295 235.794 507.315C235.945 510.127 232.285 515.801 222.8 516.815C221.52 516.944 220.225 517.016 218.945 517.016ZM190.426 499.254C195.69 507.056 208.511 514.715 222.426 513.226C227.488 512.687 230.235 510.623 231.443 509.084C230.329 509.415 229.106 509.573 227.805 509.573C215.803 509.573 199.515 495.443 195.855 489.482C194.819 489.64 192.26 494.278 190.426 499.254Z" fill="#B2B2B2"/>
<path d="M199.343 153.892C195.496 154.489 182.257 181.836 180.589 185.331C173.822 199.497 153.508 245.562 146.942 259.793C143.635 266.963 120.595 311.913 117.157 319.91C115.82 323.024 169.536 229.095 171.758 231.662C178.928 239.939 191.066 250.97 191.066 250.97C202.651 245.455 195.481 194.161 203.751 172.099C205.139 168.396 201.651 153.525 199.343 153.892Z" fill="url(#paint10_linear_578_2156)"/>
<path d="M287.022 371.476C290.97 373.418 296.032 372.296 296.126 367.888C296.169 365.687 295.939 360.158 295.888 359.288C295.551 352.816 293.738 332.551 293.3 330.991C287.648 311.317 271.31 231.432 269.375 221.724C268.965 219.66 266.161 208.141 264.414 208.076C264.349 207.788 258.517 207.119 258.344 206.832C251.513 195.333 230.213 193.047 209.805 178.701C205.282 175.522 206.562 181.843 213.113 185.87C220.283 190.285 238.835 204.682 245.796 213.505C229.976 228.397 223.317 257.018 228.006 270.803C229.789 276.052 240.971 242.672 247.86 234.122C258.618 229.16 266.614 273.003 261.645 284.041C239.979 332.192 264.399 299.487 265.507 308.03C266.175 311.46 250.06 322.096 231.86 356.289C232.414 365.393 256.956 332.293 261.918 332.293C286.188 336.154 185.255 383.313 259.711 354.908C264.047 353.254 271.015 371.728 280.392 366.212C280.406 366.227 283.527 369.758 287.022 371.476Z" fill="url(#paint11_linear_578_2156)"/>
<path d="M116.047 189.187C112.186 199.664 84.5291 256.581 83.7812 257.58C78.4815 264.692 103.837 250.238 106.116 247.65C106.095 251.993 109.64 302.358 113.84 315.489C115.551 320.854 114.314 308.133 113.84 301.704C113.286 294.261 113.092 270.625 112.739 257.027C111.869 223.704 118.672 197.938 120.736 191.941C121.002 191.165 116.234 188.669 116.047 189.187Z" fill="url(#paint12_linear_578_2156)"/>
<path d="M205.954 243.24C205.954 243.24 205.631 243.686 205.034 244.52C204.423 245.34 203.538 246.577 202.582 248.216C202.057 249.007 201.575 249.935 201.086 250.971C200.547 251.977 200.072 253.113 199.626 254.35C198.699 256.802 197.893 259.65 197.426 262.828C196.361 269.192 197.059 276.757 198.411 284.754C199.13 288.766 199.892 292.915 200.784 297.122C201.668 301.293 202.682 305.557 203.653 309.814C205.674 318.328 207.694 326.842 209.593 334.832C211.419 342.835 213.045 350.335 214.396 356.771C217.014 369.672 218.1 378.38 218.1 378.38C218.1 378.38 217.582 376.252 216.669 372.527C216.201 370.671 215.633 368.413 214.986 365.825C214.31 363.243 213.555 360.331 212.728 357.16C209.463 344.446 204.66 327.612 200.597 310.541C198.533 302.012 196.699 293.376 195.52 285.214C194.283 277.038 194.082 269.07 195.549 262.49C196.225 259.204 197.21 256.263 198.44 253.833C199.022 252.603 199.612 251.481 200.259 250.503C200.856 249.496 201.431 248.598 202.042 247.835C203.157 246.239 204.192 245.153 204.904 244.405C205.58 243.643 205.954 243.24 205.954 243.24Z" fill="#2C5C69"/>
<path d="M183.32 283.229C183.32 283.229 183.335 284.013 183.363 285.38C183.363 286.76 183.565 288.644 184.025 290.888C184.406 293.139 185.298 295.663 186.405 298.273C186.944 299.589 187.62 300.898 188.318 302.221C189.015 303.544 189.785 304.86 190.605 306.147C192.172 308.765 194.035 311.224 195.725 313.561C197.486 315.848 199.083 318.041 200.579 319.832C202.024 321.665 203.232 323.19 204.08 324.261C204.907 325.347 205.382 325.973 205.382 325.973C205.382 325.973 204.785 325.469 203.735 324.578C202.729 323.657 201.219 322.399 199.572 320.73C196.228 317.451 191.928 312.813 188.57 307.413C187.743 306.061 186.959 304.673 186.254 303.278C185.535 301.883 184.945 300.452 184.442 299.042C183.888 297.655 183.579 296.224 183.248 294.893C183.025 293.534 182.73 292.276 182.687 291.068C182.558 289.881 182.544 288.781 182.644 287.803C182.695 286.832 182.745 285.998 182.896 285.329C183.169 283.999 183.32 283.229 183.32 283.229Z" fill="#2C5C69"/>
<path d="M255.547 473.042C253.418 480.399 250.722 487.654 246.767 494.342C244.796 497.678 242.395 500.821 239.417 503.446C236.469 506.063 232.766 508.084 228.703 508.666C224.647 509.27 220.498 508.436 216.831 506.876C213.149 505.287 209.863 503.029 206.828 500.555C203.801 498.06 201.032 495.305 198.429 492.422C197.127 490.984 195.862 489.51 194.632 488.021C193.403 486.554 192.187 484.979 191.015 483.635L190.332 482.843L190.814 481.88C192.108 479.298 193.438 476.746 194.553 474.071C195.761 471.446 196.732 468.706 197.796 466.017C198.774 463.284 199.745 460.551 200.586 457.769C201.5 455.014 202.226 452.188 203.031 449.391C206.015 438.13 208.281 426.66 210.258 415.133L213.235 397.825C214.235 392.036 215.062 386.283 216.162 380.466C217.32 374.677 219.089 368.96 221.778 363.682C223.123 361.05 224.748 358.54 226.69 356.311C228.631 354.082 230.954 352.191 233.528 350.789C228.523 353.917 225.036 358.857 222.641 364.099C220.225 369.384 218.859 375.072 217.845 380.782C216.939 386.506 216.255 392.381 215.407 398.163L212.89 415.579C211.028 427.171 208.842 438.734 205.922 450.161C205.131 453.001 204.419 455.863 203.52 458.682C202.693 461.515 201.722 464.312 200.752 467.11C199.702 469.878 198.695 472.668 197.422 475.351C196.257 478.083 194.862 480.708 193.503 483.354L193.302 481.599C194.632 483.16 195.732 484.641 196.948 486.123C198.141 487.597 199.357 489.049 200.608 490.466C203.11 493.292 205.757 495.981 208.619 498.398C211.473 500.807 214.566 502.921 217.895 504.452C221.203 505.991 224.834 506.833 228.401 506.43C231.975 506.042 235.355 504.38 238.195 502.029C241.071 499.692 243.437 496.715 245.566 493.594C249.83 487.295 252.822 480.19 255.547 473.042Z" fill="#2C5C69"/>
<path d="M119.896 310.534C117.444 314.532 115.323 318.724 113.158 322.873L106.837 335.436L106.859 335.378C104.946 350.098 105.104 364.984 105.205 379.811L105.464 402.089C105.55 409.503 105.349 416.989 105.119 424.381C104.831 431.809 104.881 439.209 104.874 446.623C104.975 454.044 105.039 461.458 105.27 468.879C105.622 483.714 106.255 498.541 106.916 513.376C108.311 543.032 110.159 572.666 112.302 602.278C114.496 631.884 116.861 661.489 120.234 690.95L120.414 692.496L118.86 692.568L87.4862 694.049L71.7956 694.79L63.9502 695.157C62.6774 695.229 61.2321 695.286 59.6788 695.006C58.2119 694.754 56.7952 694.229 55.5152 693.489C52.9408 692.022 50.8483 689.699 49.7409 686.938C49.18 685.564 48.8348 684.104 48.7413 682.63L48.5328 678.697L47.7274 663.013L46.1669 631.639C45.153 610.713 44.3189 589.788 43.535 568.855L42.5858 537.445L41.9746 506.027L41.8164 474.603C41.9602 464.125 41.8667 453.648 42.2335 443.178L42.6434 427.466L43.3553 411.761C43.7292 401.291 44.6425 390.842 45.3184 380.387C46.3179 369.953 47.1449 359.504 48.5759 349.12C49.7696 338.708 51.4163 328.36 53.0199 318.005C54.868 307.693 56.6011 297.36 58.8662 287.134C60.9084 276.858 63.4469 266.697 65.8415 256.508C63.5907 266.733 61.1961 276.93 59.2976 287.22C57.1763 297.475 55.5943 307.823 53.89 318.149C52.4375 328.511 50.9346 338.866 49.8919 349.279C48.6119 359.662 47.9503 370.111 46.9652 380.523C46.3395 390.965 45.4838 401.391 45.1602 411.854L44.5274 427.531L44.1894 443.221C43.873 453.677 44.0168 464.147 43.9234 474.61L44.2326 505.998L44.9948 537.387L46.095 568.768C46.9795 589.687 47.9144 610.598 49.029 631.502L50.7404 662.862L51.6249 678.546L51.8478 682.45C51.9197 683.587 52.2001 684.701 52.6316 685.751C53.4873 687.858 55.1054 689.627 57.0757 690.734C58.0609 691.295 59.1323 691.691 60.2469 691.885C61.2752 692.086 62.4689 692.086 63.7992 692.007L71.6445 691.676L87.3352 691.015L118.717 689.685L117.343 691.303C114.1 661.733 111.878 632.106 109.829 602.472C107.822 572.831 106.118 543.176 104.867 513.491C104.277 498.649 103.709 483.8 103.429 468.951C103.235 461.522 103.206 454.094 103.141 446.666C103.191 439.23 103.17 431.78 103.493 424.367C103.774 416.917 104.119 409.56 104.119 402.125L104.169 379.854C104.277 365.012 104.327 350.098 106.456 335.357L106.463 335.321L106.478 335.292L112.978 322.816C115.207 318.659 117.386 314.496 119.896 310.534Z" fill="#2C5C69"/>
<path d="M60.8797 274.679C59.7723 272.45 59.535 269.911 59.2905 267.474C59.0748 265.007 58.9956 262.526 59.1251 260.06C59.2401 257.586 59.4559 255.112 59.8873 252.624C60.1103 251.38 60.3763 250.136 60.8006 248.878C60.9947 248.245 61.2896 247.605 61.6707 246.958C62.0878 246.361 62.5983 245.484 63.9934 245.167L63.0801 245.707C66.2657 241.378 69.8325 237.444 73.4639 233.583C77.1385 229.764 80.885 226.032 84.7753 222.451C88.6152 218.827 92.6351 215.397 96.6548 211.967C98.6539 210.241 100.696 208.565 102.781 206.947C104.852 205.308 106.931 203.675 109.081 202.136C105.37 205.897 101.703 209.694 97.942 213.369L86.796 224.544L81.2445 230.131L75.7651 235.776C72.1408 239.551 68.5813 243.398 65.3166 247.411L64.4033 247.95C64.5615 247.878 64.2163 248.036 63.979 248.432C63.7345 248.835 63.4828 249.295 63.2671 249.813C62.8285 250.841 62.4905 251.97 62.1956 253.12C61.6132 255.422 61.2177 257.809 60.9301 260.211C60.6712 262.613 60.4123 265.029 60.326 267.452C60.2829 268.667 60.2756 269.883 60.3475 271.091C60.4194 272.292 60.4914 273.507 60.8797 274.679Z" fill="#2C5C69"/>
<path opacity="0.28" d="M148.58 221.315L139.066 201.051L172.159 193.184L148.58 221.315Z" fill="#B2B2B2"/>
<path opacity="0.28" d="M122.66 193.048L117.972 214.7L117.562 222.559L115.699 259.377L122.114 225.04L117.562 215.527L122.315 221.315L122.66 193.048Z" fill="#B2B2B2"/>
<path opacity="0.28" d="M145.291 260.823L138.676 234.144L146.118 222.969L149.016 228.348L159.566 213.046L147.772 235.172L145.291 260.823Z" fill="#B2B2B2"/>
<g opacity="0.57">
<path d="M144.071 261.893C143.697 260.261 143.338 258.622 142.978 256.968C142.295 253.832 141.583 250.582 140.771 247.44C140.44 246.181 139.951 243.384 139.476 240.673C139.023 238.077 138.549 235.395 138.29 234.496C138.002 233.503 137.319 232.784 136.24 232.374C134.241 231.612 131.552 232.101 130.106 233.022L129.258 231.677C131.005 230.562 134.256 229.908 136.816 230.886C138.362 231.476 139.404 232.569 139.829 234.057C140.109 235.042 140.569 237.638 141.051 240.4C141.518 243.075 142.007 245.843 142.317 247.037C143.144 250.215 143.856 253.473 144.546 256.63C144.905 258.276 145.258 259.916 145.632 261.541L144.071 261.893Z" fill="#2C5C69"/>
</g>
<g opacity="0.55">
<path d="M139.169 235.049L138.594 232.892C140.133 228.182 142.865 224.263 145.195 222.206L146.252 223.4C144.08 225.32 140.593 230.713 139.169 235.049Z" fill="#2C5C69"/>
</g>
<g opacity="0.74">
<path d="M244.284 271.645C244.284 271.645 243.45 276.57 241.113 283.704C239.912 287.249 238.395 291.355 236.568 295.662C235.619 297.798 234.641 299.999 233.642 302.242C232.635 304.457 231.527 306.715 230.7 308.937C228.96 313.604 227.457 318.249 226.105 322.7C224.797 327.144 223.589 331.308 222.683 334.918C221.741 338.528 220.957 341.534 220.41 343.641C219.849 345.747 219.461 346.934 219.461 346.934C219.461 346.934 219.634 345.697 219.928 343.54C220.266 341.39 220.612 338.29 221.316 334.616C222.575 327.252 224.905 317.465 228.479 308.124C229.421 305.694 230.528 303.493 231.578 301.271C232.642 299.071 233.685 296.914 234.699 294.821C236.719 290.643 238.51 286.695 239.905 283.251C240.595 281.525 241.228 279.943 241.789 278.541C242.35 277.138 242.767 275.887 243.148 274.873C243.874 272.824 244.284 271.645 244.284 271.645Z" fill="#2C5C69"/>
</g>
<g opacity="0.49">
<path d="M219.735 371.756C219.735 371.756 219.67 371.534 219.548 371.124C219.44 370.714 219.289 370.074 219.246 369.261C219.138 367.636 219.296 365.285 219.979 362.581C220.67 359.884 221.647 356.756 223.251 353.642C224.84 350.514 226.947 347.408 229.313 344.546C230.528 343.165 231.751 341.785 232.952 340.425C234.131 339.059 235.296 337.707 236.425 336.406C238.668 333.795 240.862 331.444 242.696 329.38C246.406 325.303 248.973 322.671 248.973 322.671C248.973 322.671 246.794 325.641 243.371 329.977C241.638 332.12 239.675 334.673 237.468 337.319C236.367 338.642 235.231 340.016 234.073 341.403C232.909 342.777 231.722 344.172 230.536 345.567C225.718 351.025 222.439 357.597 220.842 362.818C220.044 365.421 219.577 367.665 219.555 369.254C219.497 370.843 219.735 371.756 219.735 371.756Z" fill="#2C5C69"/>
</g>
<path opacity="0.8" d="M220.571 389.267C220.988 367.759 221.851 368.845 219.744 371.757C215.969 376.963 211.474 457.114 194.094 481.52L197.819 486.072C215.473 472.826 220.506 392.417 220.571 389.267Z" fill="url(#paint13_linear_578_2156)"/>
<path d="M256.694 571.968C249.525 573.967 162.449 577.901 144.867 578.311C139.223 578.44 143.832 581 145.903 580.791C164.369 578.943 247.77 574.916 255.939 573.55C257.176 573.349 259.369 571.22 256.694 571.968Z" fill="#C1C0B5"/>
<path d="M131.203 576.248L132.339 655.154L134.302 655.88L132.03 576.456C131.721 576.449 131.203 576.248 131.203 576.248Z" fill="white"/>
<path d="M83.945 344.805L66.1977 345.136C61.2863 345.229 57.4176 340.505 57.9281 335.061L61.7752 294.339L97.8595 292.325L93.9765 334.543C93.4371 340.303 89.1297 344.711 83.945 344.805Z" fill="url(#paint14_linear_578_2156)"/>
<path d="M163.927 340.951L146.179 341.282C141.268 341.376 137.392 336.651 137.91 331.208L141.757 290.485L177.841 288.472L173.958 330.69C173.419 336.443 169.111 340.851 163.927 340.951Z" fill="url(#paint15_linear_578_2156)"/>
<path d="M134.781 317.278L134.809 301.89C135.025 297.697 138.326 294.462 142.18 294.663L175.999 292.175C179.854 292.376 182.802 295.936 182.586 300.128L181.766 315.912C181.551 320.104 178.25 323.34 174.388 323.139L141.36 325.232C137.513 325.023 134.565 321.464 134.781 317.278Z" fill="white"/>
<path opacity="0.41" d="M155.381 313.136L155.474 298.394L140.309 299.221L140.582 313.841L155.381 313.136Z" fill="url(#paint16_linear_578_2156)"/>
<path opacity="0.44" d="M176.531 300.426L158.395 301.937L158.509 303.313L176.646 301.802L176.531 300.426Z" fill="#70706F"/>
<path opacity="0.44" d="M176.75 305.488L158.613 306.999L158.728 308.375L176.865 306.864L176.75 305.488Z" fill="#70706F"/>
<path d="M153.962 306.737C153.962 310.053 151.646 312.735 148.791 312.735C145.937 312.735 143.621 310.053 143.621 306.737C143.621 303.422 145.937 300.74 148.791 300.74C151.646 300.74 153.962 303.43 153.962 306.737Z" fill="url(#paint17_linear_578_2156)"/>
<path opacity="0.87" d="M259.668 649.393L179.488 655.807C194.934 607.822 257.812 595.691 257.812 595.691L259.668 649.393Z" fill="#E1DFCF"/>
<path d="M20.8925 524.263C18.4116 524.537 16.88 525.896 14.8234 528.952C12.3137 532.684 9.3079 554.048 4.06569 559.01C1.5057 561.433 6.08633 556.925 8.20047 555.422C11.2854 553.229 16.2257 533.633 17.8508 529.772C20.0656 524.537 24.1788 523.897 20.8925 524.263Z" fill="url(#paint18_linear_578_2156)"/>
<path d="M27.2394 560.938C25.1972 561.621 20.2282 563.469 18.7109 565.044C17.8336 565.957 16.4458 567.748 16.6112 569.179C17.0283 572.731 22.2705 564.799 29.1666 567.007C30.3747 567.395 33.8911 564.339 33.7257 562.908C33.3158 559.37 29.7203 560.111 27.2394 560.938Z" fill="url(#paint19_linear_578_2156)"/>
<path d="M43.6043 560.095C40.1886 560.03 35.6222 562.871 33.8604 566.178C32.3072 569.084 31.092 571.147 34.4142 569.486C36.0682 568.659 39.9296 563.698 43.7912 566.178C43.7912 566.178 44.345 560.109 43.6043 560.095Z" fill="url(#paint20_linear_578_2156)"/>
<path opacity="0.65" d="M33.5737 440.151C33.1638 447.184 20.2632 502.432 15.3733 517.095C14.9562 518.339 21.989 520.819 21.989 520.819C43.4972 431.055 38.9525 393.41 43.0873 369.004C43.7417 365.149 33.7175 437.685 33.5737 440.151Z" fill="url(#paint21_linear_578_2156)"/>
<path d="M216.245 29.8416C208.781 27.9288 210.845 29.3742 207.084 31.7544C204.229 29.9998 201.964 31.9198 201.13 32.0636C197.613 32.6821 193.025 28.763 188.509 31.0281C185.899 31.1432 184.993 32.4735 184.993 32.4735C182.304 30.8196 177.752 32.4735 175.688 34.336C173.574 36.2344 169.755 73.6849 168.871 78.733C167.728 85.2408 175.357 87.4629 174.573 90.8354C173.667 93.0143 169.633 116.45 169.281 117.068C167.922 119.463 176.551 113.573 178.586 111.898C180.729 110.136 183.001 96.6242 185.029 94.4309C186.065 94.172 203.064 84.0112 206.703 83.2849C212.297 81.4872 216.108 88.0238 216.432 88.8004C217.532 91.4179 217.532 100.385 217.676 99.968C219.56 94.3015 232.993 73.4764 232.64 67.1843C232.942 59.3246 223.192 27.0587 216.245 29.8416Z" fill="#565452"/>
<path opacity="0.62" d="M215.613 32.2567C212.823 28.8841 214.34 29.4666 207.343 31.4944C197.031 28.1866 200.965 61.3082 201.619 66.874C201.828 68.643 203.021 36.4562 192.961 29.97C186.597 29.4594 187.359 41.1663 187.359 41.1663C186.346 40.9146 180.003 29.1862 177.688 34.2918C172.862 44.9488 174.79 69.772 171.482 76.1144C168.426 81.9751 178.608 87.3611 177.824 90.7337C176.918 92.9125 170.252 114.795 169.893 115.413C168.533 117.808 176.544 113.572 178.579 111.897C180.722 110.135 183.512 94.8541 185.54 92.6608C218.158 74.0075 214.074 82.1405 211.787 63.559C216.878 71.4475 219.877 84.5207 217.943 87.8357C217.943 87.8357 218.877 93.2289 219.187 92.7975C222.775 87.8357 229.398 72.8928 229.045 66.6007C229.369 58.741 222.559 29.4738 215.613 32.2567Z" fill="url(#paint22_linear_578_2156)"/>
<path d="M169.258 117.075C162.434 143.343 134.935 152.253 125.997 156.726C120.517 159.473 110.723 159.523 109.264 156.603C106.847 151.778 99.7212 146.443 94.3783 146.443C88.1725 146.443 85.2746 156.783 85.2746 156.783C83.1389 157.035 76.3218 143.228 77.0049 144.372C87.3455 177.055 82.0027 182.117 84.764 181.664C106.524 183.951 164.152 152.26 169.546 147.723C173.436 144.458 178.254 117.887 178.764 112.516C178.951 110.596 170.085 116.039 169.258 117.075Z" fill="#9FA29E"/>
<path opacity="0.36" d="M124.613 64.4017C113.597 63.9918 112.763 66.2426 112.065 67.99C111.684 68.9464 118.774 76.6192 110.757 89.98C109.52 92.0366 152.766 101.529 146.402 79.7041C145.453 76.4538 126.26 64.4592 124.613 64.4017Z" fill="#CF9E7F"/>
<path d="M124.975 70.1184C116.605 70.1184 116.461 79.4523 115.713 80.9264C114.8 82.7314 119.172 85.9457 121.948 87.5493C123.321 88.3403 140.105 94.014 147.238 82.4941C147.238 82.4941 126.233 70.1184 124.975 70.1184Z" fill="#CF9E7F"/>
<path d="M116.616 81.9675C116.156 79.6232 119.622 76.8619 122.016 75.6322C130.394 71.3464 141.906 82.1401 143.15 83.3554C143.15 83.3554 137.448 90.2659 127.007 88.1733C124.461 87.6771 116.616 81.9675 116.616 81.9675Z" fill="#F9F4F2"/>
<path d="M156.495 75.6472C154.712 74.1227 143.861 60.3664 140.316 58.7484C136.49 57.001 113.148 57.3677 107.359 62.7466C107.359 62.7466 110.394 69.0027 113.227 69.2832C114.169 69.3767 126.523 58.885 147.902 72.1236C152.476 74.9569 156.495 75.6472 156.495 75.6472Z" fill="#565452"/>
<path opacity="0.61" d="M138.245 64.811C134.419 63.0636 115.902 58.8784 107.359 62.74C107.359 62.74 110.394 68.9961 113.227 69.2766C114.169 69.3701 126.523 58.8785 147.902 72.117C152.476 74.9575 141.79 66.4362 138.245 64.811Z" fill="#333231"/>
<path opacity="0.47" d="M212.29 94.1854C212.117 93.7324 208.601 87.1095 203.603 89.2236C201.733 90.0146 197.124 91.2946 187.883 98.8739C186.726 99.8231 184.849 106.18 185.539 105.633C198.735 95.0771 203.394 94.6025 204.221 94.3939C212.699 98.5287 209.183 100.391 209.183 100.391C203.905 90.9279 181.469 109.905 189.329 110.94C193.909 111.544 186.424 118.505 186.395 118.577C186.014 119.275 185.618 122.683 185.935 123.273C186.79 126.969 194.046 125.308 197.188 123.798C203.063 120.972 205.149 117.441 208.974 112.184C209.305 111.739 216.014 103.699 212.29 94.1854Z" fill="#CF9E7F"/>
<path d="M138.324 82.1127C138.324 85.9239 134.843 88.8434 130.564 89.0088C128.594 89.0879 122.899 87.8655 122.805 82.1127C122.748 78.3015 126.279 75.2166 130.564 75.2166C134.843 75.2166 138.324 78.3087 138.324 82.1127Z" fill="#565E75"/>
<path d="M137.402 83.5653C137.402 86.1181 134.914 88.1819 131.844 88.1819C128.773 88.1819 126.285 86.1109 126.285 83.5653C126.285 81.0125 128.773 78.9487 131.844 78.9487C134.914 78.9487 137.402 81.0125 137.402 83.5653Z" fill="#7986A8"/>
<path d="M133.808 82.2195C133.808 83.4204 133.147 84.7076 131.313 84.988C129.738 85.2254 128.199 83.7368 128.199 82.5431C128.199 81.3422 129.307 80.0479 130.903 80.0479C132.499 80.0479 133.808 81.0186 133.808 82.2195Z" fill="#14161A"/>
<path d="M115.758 81.4289C115.758 81.4289 115.902 80.9543 116.304 80.1201C118.879 74.806 124.387 72.886 129.967 74.0078C133.059 74.6262 134.936 75.8055 137.266 77.9269C139.1 79.588 144.845 84.3988 141.696 82.9174C135.058 79.7822 127.616 71.4335 119.238 77.8478C116.901 79.6383 116.053 81.5583 116.053 81.5583L115.758 81.4289Z" fill="#565452"/>
<path d="M137.473 84.399C137.207 85.0677 136.136 85.2835 135.072 84.8808C134.007 84.4781 133.36 83.608 133.626 82.9392C133.892 82.2705 134.971 82.0547 136.028 82.4574C137.092 82.8601 137.739 83.7302 137.473 84.399Z" fill="#F9F8F7"/>
<path opacity="0.36" d="M81.3453 63.7169C92.3619 63.307 98.2081 63.8823 98.9056 65.6225C99.2867 66.5789 105.004 76.1213 97.5538 85.7716C96.0868 87.67 66.1148 97.0758 83.9052 70.0522C85.4369 67.7223 79.6986 63.7744 81.3453 63.7169Z" fill="#CF9E7F"/>
<path d="M91.2111 65.3638C100.185 65.3638 101.415 75.5678 100.998 77.4949C100.538 79.6522 92.9512 85.6567 88.5863 85.218C85.8322 84.9448 81.9707 83.5641 80.8633 70.0523C80.8633 70.0523 89.8663 65.3638 91.2111 65.3638Z" fill="#CF9E7F"/>
<path d="M99.6499 76.9488C100.376 74.4536 95.6302 71.7857 94.2711 71.4334C79.3786 67.5718 83.0244 71.2823 81.9961 72.5336C81.9961 72.5336 82.9381 85.0459 91.9268 83.0108C96.2054 82.0472 99.6499 76.9488 99.6499 76.9488Z" fill="#F9F4F2"/>
<path d="M80.7578 49.0913C80.7578 49.0913 81.0382 50.3929 80.8584 52.3704C80.7218 54.3479 80.1321 56.8575 80.0387 59.2953C80.0027 59.8921 80.0459 60.4674 80.1538 61.0355C80.2544 61.6252 80.3623 62.2148 80.5205 62.7685C80.8009 63.8975 81.1317 64.9474 81.5272 65.7959C81.9083 66.6516 82.2679 67.3492 82.6203 67.7734C82.9583 68.2049 83.2387 68.3919 83.2387 68.3919C83.2531 68.3703 82.9079 68.3343 82.4189 67.9892C81.9515 67.6368 81.3186 67.0543 80.7649 66.2202C80.2184 65.3789 79.6432 64.3577 79.2045 63.1784C78.9888 62.5888 78.8019 61.9632 78.6509 61.3088C78.5142 60.64 78.4351 59.9209 78.4566 59.2306C78.5286 56.498 79.4418 54.0171 79.9596 52.1978C80.4989 50.3785 80.7578 49.0913 80.7578 49.0913Z" fill="#FFF8F2"/>
<path d="M79.1031 55.8508C79.3764 53.2333 94.9592 51.9892 98.1304 59.1586C98.1304 59.1586 100.201 66.5797 98.1304 65.6377C93.5785 63.5739 78.7723 58.9789 79.1031 55.8508Z" fill="#565452"/>
<path opacity="0.61" d="M81.0256 57.3691C84.4989 56.8441 94.9546 55.5785 97.7087 59.023C97.7087 59.023 99.1037 66.4728 97.2988 65.0922C92.6103 61.5039 77.6531 57.8796 81.0256 57.3691Z" fill="#333231"/>
<path d="M85.5234 76.9354C85.5234 80.6963 88.0978 83.5799 91.269 83.7525C92.7288 83.8316 96.9426 82.6235 97.0145 76.9354C97.0577 73.1746 94.4402 70.1184 91.269 70.1184C88.0978 70.1256 85.5234 73.1746 85.5234 76.9354Z" fill="#565E75"/>
<path d="M110.672 128.833C109.111 126.517 98.2098 116.939 97.2534 116.924C95.3622 116.896 82.7923 125.151 86.28 126.359C86.9559 126.596 90.8894 127.423 92.0615 128.387C92.155 128.459 84.6836 133.003 89.0269 134.593C91.817 135.614 100.008 136.908 102.884 136.318C105.609 135.743 111.829 130.544 110.672 128.833Z" fill="#CF9E7F"/>
<path d="M92.7631 82.5015C94.6019 82.5015 96.0925 80.4989 96.0925 78.0287C96.0925 75.5584 94.6019 73.5559 92.7631 73.5559C90.9243 73.5559 89.4336 75.5584 89.4336 78.0287C89.4336 80.4989 90.9243 82.5015 92.7631 82.5015Z" fill="#7986A8"/>
<path d="M89.8594 76.0214C89.8594 77.2079 90.3484 78.4807 91.7075 78.7539C92.8724 78.9912 94.0085 77.5243 94.0085 76.3378C94.0085 75.1513 93.1888 73.8785 92.0023 73.8785C90.8158 73.8713 89.8594 74.8349 89.8594 76.0214Z" fill="#14161A"/>
<path d="M100.02 76.4382C100.005 76.4597 99.9045 75.9564 99.5162 75.3452C99.1135 74.7052 98.3153 73.9285 97.1935 73.2238C96.0645 72.5407 94.6407 71.8935 93.0515 71.462C92.3036 71.2391 91.376 71.1672 90.5418 71.0521C89.6861 70.9587 88.816 70.9011 87.9531 70.9227C86.2273 70.9587 84.4943 71.2103 82.8476 71.5843C81.208 71.9438 79.6188 72.0085 78.2453 71.9726C75.4912 71.9151 73.5784 71.3038 73.5784 71.3038L73.5352 70.9874C73.5352 70.9874 75.2323 69.9232 77.8858 69.1753C79.2161 68.8014 80.7837 68.4562 82.5311 68.4778C84.2713 68.5137 86.1841 68.4993 88.0897 68.7654C90.0169 69.0315 91.7787 69.5852 93.4614 70.218C95.1153 70.8652 96.5319 71.6993 97.6537 72.5622C98.7611 73.4395 99.5378 74.3672 99.9045 75.115C100.286 75.906 100.293 76.3375 100.322 76.3375L100.02 76.4382Z" fill="#565452"/>
<path d="M92.873 77.7916C92.6573 78.295 93.2397 78.8703 94.1817 79.0788C95.1165 79.2873 96.0514 79.0572 96.2671 78.5539C96.4829 78.0505 95.9004 77.4752 94.9583 77.2667C94.0235 77.0581 93.0887 77.2883 92.873 77.7916Z" fill="#F9F8F7"/>
<path opacity="0.36" d="M99.2489 110.739C100.946 110.43 102.715 109.725 104.52 108.388C109.482 107.769 110.517 110.66 111.761 110.042C123.964 103.944 110.87 99.5499 110.87 99.5499C108.878 87.1311 115.479 83.0754 114.041 77.3658C113.207 74.0579 111.553 67.6508 109.259 66.7878C106.929 71.6561 99.5581 96.4937 83.9105 97.9103C83.9105 97.9103 81.5663 104.389 90.0445 109.84C92.7051 110.394 95.8404 111.357 99.2489 110.739Z" fill="url(#paint23_linear_578_2156)"/>
<path d="M89.2969 126.034C90.0016 126.962 105.29 125.502 107.282 127.681C106.289 128.349 104.937 128.702 103.765 129.004C99.4146 130.126 93.1584 130.377 89.8578 126.696C89.4982 126.3 89.3041 126.048 89.2969 126.034Z" fill="#76594C"/>
<path d="M124.799 129.07C120.714 126.617 108.044 118.11 101.428 113.35C99.1702 111.725 96.3729 112.084 93.9855 112.523C91.6268 113.242 76.4036 125.762 73.0957 126.38C69.565 127.042 70.3272 128.228 73.7141 128.451C79.5388 128.825 90.1096 127.631 95.6395 121.627C101.845 128.386 111.798 132.651 119.427 132.176C126.036 131.759 128.934 131.55 124.799 129.07Z" fill="#9FA29E"/>
<path opacity="0.34" d="M96.1974 119.138C93.1628 116.931 75.9189 128.292 79.3058 128.033C82.8869 127.76 90.1139 127.631 95.6437 121.619C102.259 127.962 104.201 128.609 111.363 131.269C116.562 133.204 102.662 123.848 96.1974 119.138Z" fill="#565452"/>
<path d="M115.908 82.1193C115.613 82.2128 118.971 86.6353 123.308 89.4613C125.458 90.9067 127.859 91.935 129.787 92.4168C130.743 92.6469 131.563 92.8483 132.153 92.9274C132.742 93.0208 133.08 93.0784 133.08 93.0784C133.08 93.0784 131.735 93.4523 129.643 93.3013C127.565 93.1862 124.76 92.3809 122.43 90.7845C120.064 89.2384 118.231 87.0667 117.159 85.2977C116.598 84.4276 116.282 83.6079 116.059 83.047C115.843 82.4861 115.836 82.0762 115.908 82.1193Z" fill="#CF9E7F"/>
<path d="M145.273 82.5293C145.273 82.5293 145.899 82.3927 146.733 82.2633C147.546 82.1338 148.639 81.9685 149.725 81.8031C150.789 81.6233 151.868 81.4651 152.702 81.3069C153.536 81.1559 154.169 81.084 154.169 81.084C154.169 81.084 153.802 81.6017 153.054 82.1339C152.313 82.666 151.184 83.1981 149.969 83.3779C148.761 83.5792 147.531 83.421 146.661 83.155C145.784 82.8961 145.273 82.5293 145.273 82.5293Z" fill="#CF9E7F"/>
<path d="M145.078 84.6011C145.078 84.6011 145.725 84.3926 146.747 84.4429C147.753 84.486 149.04 84.7521 150.22 85.126C151.406 85.4784 152.521 85.8667 153.42 86.0249C154.311 86.2047 155.002 86.255 155.002 86.255C155.002 86.255 154.462 86.708 153.441 86.9238C152.42 87.1539 151.011 87.046 149.767 86.6505C148.515 86.2766 147.394 85.7085 146.538 85.313C145.704 84.9031 145.078 84.6011 145.078 84.6011Z" fill="#CF9E7F"/>
<path d="M100.378 79.2217C100.378 79.2217 100.278 79.4158 100.17 79.7682C100.033 80.1062 99.918 80.6383 99.6735 81.2279C99.544 81.53 99.4074 81.8536 99.2636 82.1987C99.0982 82.5583 98.8681 82.9466 98.6524 83.2414C98.1418 83.9605 97.5162 84.579 96.8186 85.147C95.4164 86.2688 93.7193 86.9088 92.4249 87.1461C91.1305 87.405 90.2461 87.2828 90.2461 87.2828C90.2461 87.2828 90.994 86.8873 92.1229 86.2976C93.216 85.7151 94.5823 84.8594 95.8263 83.8886C96.4519 83.4212 97.0487 82.8603 97.5449 82.3713C97.8182 82.0477 98.0699 81.8464 98.2784 81.5803C98.4942 81.2999 98.7026 81.0338 98.8896 80.7893C99.6447 79.7754 100.364 79.1785 100.378 79.2217Z" fill="#CF9E7F"/>
<path d="M116.453 68.4281C119.991 67.2991 127.009 68.2339 128.706 72.1961C128.002 70.5566 120.293 69.7009 118.725 69.2694C117.934 69.0537 117.129 68.8811 116.453 68.4281Z" fill="#CF9E7F"/>
<path d="M185.867 103.477C187.003 102.147 187.485 100.133 188.521 98.6809C192.461 93.187 200.292 87.4773 207.375 88.9659C211.072 89.7425 214.645 94.9559 213.308 98.6449C212.668 96.5164 211.359 94.093 209.763 92.5254C207.275 90.0877 203.499 91.0153 200.666 92.2953C194.899 94.8984 189.944 98.6953 185.867 103.477Z" fill="#CF9E7F"/>
<path d="M191.495 104.391C194.386 102.392 198.478 96.3874 202.411 99.9541C205.23 102.514 203.641 108.044 202.059 110.87C199.686 115.098 195.083 117.579 190.366 118.068C189.338 118.176 188.741 118.104 188.727 118.104C190.481 118.313 194.048 115.551 195.364 114.588C198.024 112.639 200.491 109.971 201.426 106.735C202.044 104.592 202.576 100.299 199.197 100.422C196.478 100.522 193.609 102.931 191.495 104.391Z" fill="#CF9E7F"/>
<path d="M186.549 40.1326C186.549 40.1326 186.837 40.938 187.268 42.3618C187.477 43.0737 187.736 43.9438 188.03 44.9362C188.361 45.9141 188.613 47.0647 188.821 48.3447C189.023 49.6175 189.375 50.991 189.497 52.4795C189.598 53.9608 189.9 55.5213 189.778 57.168C189.742 57.9878 189.713 58.8219 189.677 59.6704C189.648 60.519 189.454 61.3675 189.346 62.2304L189.145 63.532L188.814 64.8192C188.598 65.6821 188.383 66.545 188.045 67.3648C187.426 69.0259 186.614 70.5935 185.909 72.0605C185.168 73.549 184.571 74.9584 184.169 76.3679C183.824 77.7845 183.55 79.1652 183.55 80.5458C183.471 81.229 183.536 81.8977 183.608 82.5521C183.665 83.2065 183.73 83.8465 183.788 84.4505C184.061 85.6586 184.248 86.7876 184.42 87.7943C184.629 88.7939 184.902 89.6496 185.082 90.3687C185.456 91.7997 185.636 92.641 185.636 92.641L185.485 92.7057C185.485 92.7057 185.19 91.9148 184.665 90.5269C184.413 89.8294 184.061 88.9952 183.752 88.01C183.478 87.0105 183.169 85.8887 182.824 84.6591C182.723 84.0262 182.623 83.3719 182.515 82.6959C182.4 82.02 182.292 81.3152 182.321 80.5818C182.242 79.122 182.4 77.5688 182.774 76.0155C183.558 72.8946 185.362 69.9607 186.491 66.7967C186.822 66.0201 187.045 65.2075 187.268 64.4021L187.606 63.194L187.822 61.9644C187.937 61.1446 188.145 60.3392 188.188 59.5338C188.239 58.7212 188.289 57.923 188.34 57.132C188.469 55.5572 188.282 54.0255 188.268 52.573C188.239 51.1204 187.966 49.7685 187.85 48.5101C187.707 47.2516 187.57 46.1011 187.34 45.0872C187.146 44.0732 186.973 43.1887 186.837 42.4625C186.556 41.0099 186.398 40.1757 186.398 40.1757L186.549 40.1326Z" fill="url(#paint24_linear_578_2156)"/>
<path d="M188.566 34.7534C188.566 34.7534 188.976 34.8972 189.667 35.1921C190.012 35.3215 190.415 35.53 190.853 35.8752C191.306 36.1844 191.846 36.5583 192.277 37.0545C193.277 37.9678 194.168 39.2765 194.923 40.7579C195.678 42.2464 196.218 43.9363 196.563 45.6477C197.239 49.0922 196.994 52.6158 196.275 55.1326C195.944 56.3982 195.455 57.3978 195.074 58.0521C194.643 58.6993 194.37 59.0229 194.37 59.0229C194.37 59.0229 194.6 57.3187 194.456 54.9097C194.348 52.4935 194.06 49.3223 193.435 46.259C192.895 43.1668 191.917 40.2401 190.832 38.1547C190.278 37.1121 189.81 36.2923 189.293 35.7026C188.818 35.113 188.566 34.7534 188.566 34.7534Z" fill="url(#paint25_linear_578_2156)"/>
<path d="M178.523 34.4438C178.523 34.4438 178.947 35.1917 179.523 36.558C180.012 37.9746 180.824 40.0096 181.356 42.4977C181.939 44.9858 182.435 47.9197 182.672 51.0909C182.981 54.2621 182.938 57.6635 182.773 61.072C182.6 62.7763 182.464 64.4733 182.183 66.1416C181.989 67.8171 181.558 69.4423 181.176 71.0171C180.882 72.5991 180.184 74.0804 179.71 75.4827C179.091 76.8705 178.523 78.1721 177.89 79.3298C177.193 80.4804 176.61 81.5159 175.819 82.3069C175.043 83.0979 174.496 83.8242 173.856 84.2916C172.576 85.2121 171.85 85.6148 171.85 85.6148L171.648 85.3703C171.648 85.3703 172.209 84.7806 173.202 83.7379C173.705 83.2274 174.093 82.4292 174.661 81.6094C175.237 80.7896 175.596 79.6966 176.15 78.5964C176.61 77.453 177.013 76.173 177.437 74.8211C177.739 73.4333 178.207 72.0095 178.43 70.4706C179.034 67.436 179.364 64.1353 179.587 60.8419C180.091 54.2478 179.875 47.6105 179.436 42.6703C179.221 40.1966 178.919 38.1544 178.674 36.7306C178.372 35.3139 178.199 34.5014 178.199 34.5014L178.523 34.4438Z" fill="url(#paint26_linear_578_2156)"/>
<path d="M202.078 44.4038C202.078 44.4038 202.488 44.7777 203.164 45.4681C203.826 46.1296 204.753 47.2586 205.602 48.6968C206.522 50.1206 207.292 51.9543 207.939 53.9678C208.564 55.9956 208.902 58.2321 209.097 60.4613C209.133 61.5759 209.176 62.6976 209.14 63.7907C209.161 64.8909 208.996 65.9551 208.924 66.9906C208.68 69.0472 208.334 70.9457 207.917 72.5421C207.126 75.742 206.22 77.7699 206.22 77.7699C206.22 77.7699 206.069 75.5479 206.098 72.312C206.105 70.7084 206.112 68.8387 206.12 66.8396C206.076 64.8549 206.084 62.7552 205.918 60.677C205.796 58.5988 205.53 56.5494 205.213 54.6294C204.991 53.6945 204.875 52.7453 204.624 51.8896C204.394 51.0267 204.199 50.1997 203.941 49.4519C203.466 47.9418 203.027 46.7193 202.639 45.8132C202.265 44.9287 202.078 44.4038 202.078 44.4038Z" fill="url(#paint27_linear_578_2156)"/>
<path d="M206.23 32.2727C206.23 32.2727 206.597 32.546 207.194 33.0565C207.805 33.5383 208.582 34.3581 209.445 35.4799C210.236 36.6017 211.092 38.0183 211.652 39.6794C212.285 41.3189 212.587 43.1814 212.753 44.9935C213.012 48.6537 212.566 52.0766 212.451 54.6366C212.372 55.9238 212.336 57.0096 212.328 57.7863C212.321 58.5629 212.3 59.0231 212.3 59.0231C212.3 59.0231 212.07 58.6348 211.71 57.9229C211.365 57.211 210.933 56.1395 210.631 54.8092C210.286 53.4861 210.07 51.9112 209.934 50.2717C209.776 48.625 209.747 46.9063 209.574 45.238C209.545 44.3967 209.438 43.5841 209.344 42.7787C209.193 41.9877 209.143 41.1895 208.956 40.4417C208.675 38.9244 208.222 37.5581 207.841 36.3356C207.388 35.185 207.036 34.1352 206.684 33.4233C206.382 32.7042 206.23 32.2727 206.23 32.2727Z" fill="url(#paint28_linear_578_2156)"/>
<path d="M208.699 31.7171C208.735 31.7603 209.131 30.9549 210.504 30.1639C211.187 29.79 212.223 29.5239 213.373 29.7684C214.524 29.9913 215.682 30.6601 216.688 31.5661C217.702 32.4722 218.644 33.5796 219.514 34.8093C220.385 36.0605 221.176 37.3405 222.017 38.7643C222.851 40.2744 223.448 42.0002 223.822 43.7117C224.181 45.4447 224.368 47.1993 224.469 48.9323C224.62 52.4128 224.447 55.8141 224.232 58.9709C224.045 62.1206 223.822 65.0257 223.786 67.521C223.772 70.009 223.815 72.1016 224.045 73.5542C224.246 75.0068 224.426 75.8481 224.426 75.8481C224.426 75.8481 223.973 75.1218 223.426 73.7124C222.923 72.303 222.24 70.2176 221.909 67.6432C221.104 62.5017 221.528 55.6271 221.305 49.0833C221.161 45.833 220.787 42.5899 219.601 40.0011C218.968 38.6277 218.278 37.2182 217.609 36.0173C216.926 34.7949 216.243 33.6659 215.473 32.7742C214.704 31.8897 213.92 31.149 213.071 30.8183C212.237 30.4659 211.389 30.4947 210.727 30.7032C210.051 30.8974 209.548 31.185 209.21 31.3863C208.872 31.6021 208.699 31.7171 208.699 31.7171Z" fill="url(#paint29_linear_578_2156)"/>
<path d="M236.304 58.0223C212.632 52.514 181.027 47.5379 154.601 44.6974C129.785 42.0368 102.962 40.3685 79.2968 35.3779C79.2968 35.3779 78.6784 48.408 80.3323 48.8251C103.602 54.6426 130.209 56.994 154.572 59.7697C179.151 62.5742 209.015 64.9112 232.874 70.0168C232.874 70.0168 237.448 58.2884 236.304 58.0223Z" fill="url(#paint30_linear_578_2156)"/>
<path d="M165.653 42.1666L177.755 43.9428C180.459 44.3383 182.228 46.9774 181.573 49.6309L178.1 61.2299C177.546 63.4735 175.986 64.5018 173.685 64.2645L160.058 61.8699C156.966 61.5535 155.053 58.3319 156.268 55.4699L160.712 44.9495C161.539 43.0008 163.567 41.8574 165.653 42.1666Z" fill="#36383F"/>
<path opacity="0.44" d="M174.657 132.795C156.176 151.269 138.328 160.732 124.881 167.132C117.366 170.706 81.8859 181.514 85.4455 181.751C93.7223 182.305 112.663 175.251 116.611 174.028C124.154 171.684 157.952 156.971 169.839 147.005C171.96 145.2 174.657 132.795 174.657 132.795Z" fill="#565452"/>
<path d="M168.246 41.628C166.01 57.7286 151.829 69.0615 136.577 66.9474C121.325 64.826 109.28 53.7807 111.524 37.6801C113.767 21.5796 129.156 8.80123 144.688 8.63584C165.111 8.40573 170.49 25.5274 168.246 41.628Z" fill="#A9B4C0"/>
<path opacity="0.71" d="M157.822 18.7522C156.441 18.5364 144.691 8.63449 129.684 24.8286C129.037 25.5261 123.543 32.6164 123.32 40.2604C122.975 51.9241 128.569 60.0355 138.378 60.0355C148.186 60.0355 161.302 53.9663 163.769 35.9889C164.74 28.9058 162.187 22.5922 157.822 18.7522Z" fill="#C1D7EA"/>
<path opacity="0.45" d="M157.488 43.6333C153.771 51.2054 145.199 54.7433 139.518 51.9533C133.837 49.1632 131.011 41.814 134.118 33.9686C138.389 23.1822 147.306 21.7296 152.987 24.5197C158.668 27.3098 161.206 36.054 157.488 43.6333Z" fill="#545F68"/>
<path opacity="0.64" d="M148.115 37.5067C147.375 42.8711 143.463 44.6833 140.536 44.6833C137.609 44.6833 136.214 42.2599 136.042 38.7795C135.84 34.6231 140.428 31.2002 143.348 31.2002C146.274 31.2002 148.59 34.055 148.115 37.5067Z" fill="#C1D7EA"/>
<path opacity="0.54" d="M144.439 37.6508C144.007 39.8152 141.685 41.5123 140.441 41.6489C138.549 41.8575 136.68 39.8368 136.996 37.6508C137.413 34.7528 139.779 33.6526 141.685 33.6526C143.583 33.6526 144.856 35.5798 144.439 37.6508Z" fill="#4D4C4C"/>
<path opacity="0.52" d="M98.9456 113.35C95.4939 112.315 91.4957 114.451 90.1006 116.371C88.159 119.031 93.1568 117.758 103.08 118.039C103.958 118.06 101.707 114.177 98.9456 113.35Z" fill="#C4C3C3"/>
<path d="M92.6092 147.542C92.6092 147.542 92.3503 148.038 91.8613 148.88C91.3076 149.692 90.7251 150.936 90.0635 152.303C89.7975 153.029 89.5171 153.813 89.215 154.647C89.0353 155.51 88.7404 156.373 88.6397 157.315C88.4456 158.235 88.4528 159.228 88.3737 160.22C88.3665 161.234 88.3449 162.255 88.4384 163.312C88.4887 165.419 88.726 167.591 88.6541 169.719C88.611 171.833 88.3665 173.868 87.7552 175.508C87.5251 176.342 87.1727 177.054 86.8204 177.665C86.5256 178.298 86.1877 178.794 85.8569 179.175C85.2457 179.952 84.8789 180.362 84.8789 180.362C84.8789 180.362 85.0299 179.83 85.2887 178.895C85.4541 178.449 85.5692 177.895 85.6699 177.248C85.7994 176.615 85.9216 175.911 85.9575 175.127C86.1229 173.581 86.0079 171.776 85.8353 169.813C85.6411 167.857 85.3606 165.692 85.2384 163.449C85.1736 161.212 85.2384 158.846 85.8928 156.718C86.0941 155.632 86.6335 154.676 87.0002 153.755C87.4676 152.871 87.9925 152.08 88.4815 151.368C89.6033 149.987 90.5813 149.009 91.3795 148.463C92.1489 147.866 92.6092 147.542 92.6092 147.542Z" fill="#C4C3C3"/>
<path d="M104.759 152.231C104.759 152.231 105.132 152.728 105.693 153.648C106.218 154.619 106.894 156.079 107.211 157.991C107.541 159.89 107.534 162.227 106.894 164.6C106.571 165.779 106.168 167.002 105.521 168.152C104.967 169.26 103.939 170.554 103.098 171.345C102.076 172.316 101.113 173.013 100.106 173.768C99.1209 174.502 98.0853 175.113 97.1074 175.717C95.1299 176.911 93.2387 177.889 91.5848 178.68C88.2985 180.262 86.0117 181.189 86.0117 181.189C86.0117 181.189 87.716 179.356 90.6068 177.127C92.0378 175.983 93.7349 174.725 95.5326 173.38C96.4171 172.704 97.3303 172.007 98.258 171.295C99.1424 170.597 100.106 169.821 100.825 169.101C101.753 168.246 102.256 167.627 102.839 166.635C103.371 165.707 103.867 164.744 104.219 163.759C104.967 161.803 105.298 159.832 105.391 158.114C105.463 156.388 105.276 154.921 105.111 153.885C104.881 152.835 104.759 152.231 104.759 152.231Z" fill="url(#paint31_linear_578_2156)"/>
<path d="M97.0139 147.27C97.0139 147.27 96.4962 147.529 95.7771 148.19C95.058 148.845 94.1807 149.931 93.5336 151.426C92.1313 154.396 91.8796 158.869 92.2895 163.227L92.4548 164.902C92.5627 165.47 92.6777 165.981 92.6993 166.621C92.8287 167.865 92.721 169.023 92.5412 170.166C92.1601 172.453 91.2108 174.438 90.1465 175.904C89.0895 177.386 87.9246 178.349 87.0976 178.961C86.2491 179.565 85.6953 179.809 85.6953 179.809C85.6953 179.809 85.9254 179.27 86.3281 178.321C86.7524 177.415 87.3133 176.135 87.9174 174.66C88.4854 173.172 89.0607 171.468 89.4274 169.584C89.6216 168.656 89.751 167.628 89.8517 166.65C89.9092 166.182 89.9092 165.571 89.9739 165.017L89.9452 163.32C89.9092 161.005 90.089 158.675 90.5205 156.532C90.9448 154.382 91.7214 152.433 92.6562 150.945C93.6126 149.456 94.7128 148.449 95.5829 147.939C96.4674 147.421 97.0139 147.27 97.0139 147.27Z" fill="#C4C3C3"/>
<path d="M100.588 149.751C100.588 149.751 100.624 152.016 100.674 155.41C100.696 157.114 100.645 159.092 100.494 161.235C100.408 162.306 100.271 163.428 100.041 164.593C99.8327 165.657 99.5308 166.822 99.1496 167.958C98.373 170.187 97.2009 172.294 95.7842 174.027C94.3532 175.753 92.7065 177.076 91.1677 177.947C89.6288 178.831 88.2194 179.255 87.2486 179.514C86.2778 179.78 85.6953 179.816 85.6953 179.816C85.6953 179.816 86.1843 179.521 87.04 179.011C87.8813 178.5 89.0319 177.709 90.2688 176.652C91.5056 175.595 92.8215 174.25 93.9793 172.625C95.1658 171.022 96.1869 169.138 96.9994 167.138C97.395 166.161 97.7761 165.168 98.0925 164.075C98.4449 163.097 98.6102 162.047 98.7972 161.019C99.1136 158.941 99.4156 156.999 99.6673 155.338C99.919 153.663 100.128 152.26 100.279 151.282C100.48 150.312 100.588 149.751 100.588 149.751Z" fill="#C4C3C3"/>
<path d="M122.126 129.896C122.126 129.896 121.917 129.968 121.522 130.098C121.155 130.22 120.486 130.364 119.702 130.321C118.106 130.278 115.848 129.76 113.382 128.638C110.901 127.538 108.204 125.905 105.486 123.914C104.817 123.403 104.141 122.871 103.472 122.31C102.825 121.763 102.235 121.332 101.531 120.85C100.172 119.937 98.7335 119.031 97.2666 118.405C96.5403 118.089 95.7996 117.837 95.1524 117.729C94.836 117.679 94.5484 117.665 94.347 117.686L93.0598 117.866C91.6576 118.146 90.2338 118.729 88.9107 119.462C86.286 120.965 84.028 123.108 81.8275 124.661C79.6775 126.287 77.5776 127.286 76.1035 127.804C75.3772 128.106 74.7588 128.199 74.3561 128.3C73.9534 128.394 73.7305 128.437 73.7305 128.437C73.7305 128.437 74.5287 128.027 75.8087 127.2C77.1102 126.409 78.7282 124.992 80.5547 123.166C82.41 121.368 84.3876 118.952 87.379 116.967C88.8603 115.968 90.6005 115.191 92.5853 114.767L93.8724 114.558C94.534 114.457 95.1237 114.508 95.6702 114.58C96.756 114.767 97.6692 115.133 98.5465 115.529C100.287 116.341 101.84 117.312 103.293 118.412C103.997 118.945 104.745 119.585 105.364 120.167C105.96 120.728 106.572 121.274 107.183 121.792C109.606 123.914 112.022 125.74 114.194 127.114C116.351 128.516 118.314 129.436 119.774 129.731C120.508 129.904 121.076 129.961 121.5 129.925C121.903 129.911 122.126 129.896 122.126 129.896Z" fill="#C4C3C3"/>
<path opacity="0.79" d="M101.416 71.9808C103.149 84.1048 88.595 95.56 84.8701 97.631C81.4472 99.5366 90.7955 100.09 93.1398 99.702C96.9582 99.0692 99.8058 96.7465 100.173 92.8778C100.999 84.1911 106.587 73.232 108.449 68.6801C109.945 65.0199 100.381 64.7467 101.416 71.9808Z" fill="url(#paint32_linear_578_2156)"/>
<path d="M83.6401 98.6665C83.6401 98.6665 83.7192 99.2633 83.9133 100.205C84.5533 103.369 86.8976 106.102 89.7308 107.555C93.0531 109.259 96.8211 108.619 100.309 107.878C103.904 107.116 107.831 106.31 111.519 106.785C108.83 108.058 105.637 108.381 102.84 109.482C98.3025 111.272 93.6787 112.962 89.0406 110.568C85.3013 108.633 82.3529 104.563 83.2014 100.205C83.4028 99.1842 83.6401 98.6665 83.6401 98.6665Z" fill="#B6846A"/>
<path d="M94.387 98.8738C94.387 99.6792 92.9488 100.326 91.1798 100.326C89.4108 100.326 87.9727 99.672 87.9727 98.8738C87.9727 98.0684 89.4108 97.4212 91.1798 97.4212C92.956 97.414 94.387 98.0684 94.387 98.8738Z" fill="white"/>
<path opacity="0.55" d="M105.453 130.514C104.662 129.04 93.3434 128.321 91.9052 129.896C90.8625 131.039 91.4738 129.745 90.8698 131.24C90.6612 131.758 103.195 133.031 105.036 131.967C106.338 131.219 106.179 131.859 105.453 130.514Z" fill="url(#paint33_linear_578_2156)"/>
<path d="M110.867 99.5435C110.867 99.5435 111.414 99.6657 112.363 99.8886C112.845 99.9821 113.398 100.191 114.046 100.464C114.707 100.701 115.433 101.025 116.138 101.507C117.627 102.362 119.18 103.664 120.633 105.246C122.064 106.857 123.307 108.784 124.386 110.79C125.378 112.84 126.256 114.939 126.831 116.982C127.435 119.017 127.78 120.965 128.025 122.634C128.478 125.985 128.305 128.235 128.305 128.235C128.305 128.235 128.205 127.689 128.018 126.725C127.852 125.769 127.529 124.417 127.14 122.806C126.357 119.592 124.933 115.407 122.97 111.516C121.963 109.582 120.805 107.748 119.561 106.145C118.892 105.39 118.295 104.599 117.619 103.959C116.951 103.312 116.318 102.693 115.642 102.24C114.995 101.73 114.384 101.312 113.808 100.989C113.247 100.629 112.737 100.334 112.269 100.169C111.378 99.7736 110.867 99.5435 110.867 99.5435Z" fill="#CF9E7F"/>
<path d="M83.4908 101.075C83.4908 101.075 83.2751 101.355 82.8868 101.852C82.4697 102.319 81.9808 103.052 81.348 103.879C80.1111 105.569 78.6944 107.928 77.6014 110.438C76.5012 112.94 75.6886 115.586 75.1996 117.629C74.7106 119.692 74.3871 121.066 74.3871 121.066C74.3871 121.066 74.1785 119.642 74.308 117.492C74.423 115.349 74.9479 112.458 76.1416 109.798C77.2922 107.115 79.1115 104.778 80.6719 103.297C81.4342 102.535 82.1749 101.995 82.671 101.629C83.196 101.276 83.4908 101.075 83.4908 101.075Z" fill="#CF9E7F"/>
<g opacity="0.79">
<path d="M81.5721 75.8413C81.5721 75.8413 81.3563 76.6826 81.0543 77.8332C80.7451 78.9981 80.4359 80.5298 80.2201 82.0471C80.026 83.5644 79.9613 85.0889 80.1626 86.2179C80.2777 86.7716 80.3783 87.2677 80.5221 87.5913C80.6659 87.9077 80.7451 88.1163 80.7451 88.1163C80.7451 88.1163 80.5653 88.0084 80.2705 87.7711C80.0116 87.5122 79.5945 87.1167 79.3213 86.5127C78.6957 85.3406 78.4079 83.5428 78.6452 81.8386C78.7891 80.99 78.9617 80.1487 79.2709 79.4152C79.537 78.6673 79.9324 78.0202 80.2416 77.4736C80.932 76.3878 81.5721 75.8413 81.5721 75.8413Z" fill="#FFEBD9"/>
</g>
<path d="M81.3754 75.7698C81.3754 75.7698 81.6846 76.2803 81.9147 77.0929C82.152 77.8983 82.3605 78.9338 82.5978 79.8758C82.8279 80.8178 83.1371 81.7167 83.4823 82.4214C83.8275 83.1189 84.1007 83.6583 84.1007 83.6583C84.1007 83.6583 83.511 83.536 82.7919 82.9967C82.4683 82.7019 82.0441 82.3639 81.7493 81.8749C81.4185 81.4075 81.2099 80.8322 81.0445 80.2641C80.7425 79.0992 80.8792 77.9558 81.0158 77.1433C81.174 76.3307 81.3754 75.7698 81.3754 75.7698Z" fill="#FFEBD9"/>
<path d="M78.832 79.9756C78.832 79.9756 78.5228 80.6515 77.8684 81.7733C76.0347 84.9158 73.8775 88.5616 73.5395 92.7324C73.1584 97.4497 73.3956 102.491 73.2087 107.215C72.9642 113.27 73.4748 119.274 73.5251 125.336C73.5179 124.38 72.8994 123.445 72.6621 122.546C72.1372 120.54 71.7706 118.483 71.4973 116.427C70.8429 111.53 71.3606 106.489 71.5404 101.556C71.7058 96.9966 71.5332 93.4371 73.0361 89.0722C73.6833 87.1953 74.3809 85.0452 75.6968 83.5783C76.5382 82.6578 78.2423 81.0686 78.832 79.9756Z" fill="#FFEBD9"/>
<path d="M85.1953 36.5062C85.1953 36.5062 85.2169 35.895 85.4901 34.8595C85.7634 33.824 86.1517 32.3354 86.8492 30.6455C88.1652 27.2298 90.2003 22.8074 92.7171 18.6007C93.3283 17.5508 94.1122 16.465 94.9032 15.5877C95.7229 14.6528 96.5714 13.8187 97.4416 13.0421C99.1961 11.5176 101.008 10.3311 102.583 9.39624C105.783 7.59131 108.055 6.72119 108.055 6.72119C108.055 6.72119 107.552 7.05199 106.66 7.64165C105.761 8.20974 104.51 9.06545 103.05 10.1153C101.584 11.158 99.9368 12.4668 98.3692 14.0344C96.8015 15.5949 95.2124 17.371 94.069 19.4061C91.6601 23.5481 89.3661 27.8123 87.6978 31.0123C86.8996 32.6303 86.1949 33.975 85.7994 34.9458C85.3751 35.9165 85.1953 36.5062 85.1953 36.5062Z" fill="#FFF8F2"/>
<path d="M118.215 22.1182C118.215 22.1182 117.805 22.7223 117.043 23.8728C116.252 25.0162 115.216 26.7205 114.095 29C112.894 31.2436 111.93 34.2278 111.513 37.6795C111.283 39.3981 111.283 41.2462 111.52 43.1446C111.851 45.0287 112.369 46.963 113.268 48.8183C114.936 52.5432 117.913 56.0452 121.53 58.8209C124.766 61.1077 129.606 62.3589 134.402 62.3373C139.242 62.2726 144.282 61.3665 148.705 59.3315C150.891 58.2816 152.983 57.1095 154.76 55.6138C155.68 54.8659 156.392 54.1324 157.334 53.0754C158.017 52.3275 158.801 51.1913 159.534 50.2637C162.454 46.2727 164.424 41.4691 165.51 36.6368C166.445 31.7901 166.653 26.7636 165.035 22.2908C164.252 20.076 163.123 17.9619 161.605 16.2001C160.153 14.4742 158.298 13.1223 156.262 12.0725C152.178 9.98709 147.504 9.33988 143.254 9.46212C138.983 9.68504 135.099 10.7205 131.813 12.0005C128.513 13.2805 125.909 15.0064 123.889 16.538C121.882 18.0985 120.451 19.5151 119.553 20.5362C118.661 21.543 118.215 22.1182 118.215 22.1182ZM117.697 21.7443C117.697 21.7443 118.143 21.1403 119.049 20.0832C119.948 19.0189 121.379 17.5448 123.407 15.9124C127.427 12.6981 134.157 8.86529 143.081 7.82979C147.497 7.35519 152.494 7.58528 157.305 9.51246C162.152 11.3605 166.373 15.4019 168.782 20.4859C171.241 25.5771 171.932 31.5816 171.141 37.3991C170.35 43.2309 168.156 48.9621 164.741 53.8879C161.354 58.8569 156.449 62.7688 150.92 64.8614C145.426 67.0115 139.536 67.7449 133.963 67.2344C128.412 66.7022 123.026 64.9333 119.049 61.4816C115.31 57.9724 112.549 53.8017 111.139 49.5302C109.643 45.2732 109.643 41.0089 110.291 37.4494C110.974 33.8755 112.124 30.8912 113.368 28.6117C114.562 26.3106 115.684 24.5704 116.489 23.463C117.273 22.3484 117.697 21.7443 117.697 21.7443Z" fill="#FFF8F2"/>
<path d="M236.117 59.6046C226.611 58.5188 209.82 55.2685 197.559 52.8955C190.232 51.4717 183.307 50.1341 182.329 50.1341L182.02 46.9629C182.947 46.8479 186.097 47.4303 198.163 49.7674C210.373 52.126 227.093 55.3692 236.477 56.4334L236.117 59.6046Z" fill="#FFF8F2"/>
<path d="M80.2001 34.7529C80.236 34.7313 80.1138 34.9255 80.3079 35.0477C80.4517 35.1843 80.7754 35.2994 81.1637 35.4288C81.9547 35.6805 83.1483 35.8531 84.5649 36.112C87.4054 36.5794 91.2309 37.0684 95.0349 37.658C98.8462 38.2261 102.65 38.8877 105.498 39.4054C108.345 39.9304 110.258 40.2755 110.258 40.2755C110.258 40.2755 109.769 40.3474 108.921 40.3546C108.072 40.3546 106.85 40.3906 105.397 40.2971C102.492 40.1605 98.6233 39.8297 94.7977 39.2328C90.9649 38.6576 87.1681 37.8234 84.3636 36.9821C82.9542 36.5794 81.818 36.0976 81.0486 35.7165C80.6674 35.5151 80.3798 35.3138 80.2432 35.0908C80.0778 34.8679 80.2432 34.7529 80.2001 34.7529Z" fill="#FFF8F2"/>
<path opacity="0.45" d="M172.019 97.0765C168.409 97.6518 158.781 113.134 158.234 114.73C151.511 121.842 141.961 133.204 143.615 134.865C147.685 138.935 164.569 124.855 165.123 124.107C166.238 122.612 174.55 96.681 172.019 97.0765Z" fill="url(#paint34_linear_578_2156)"/>
<path d="M123.492 377.071C122.91 381.407 119.458 384.162 115.884 383.744C112.31 383.327 110.448 379.329 111.037 374.993C111.62 370.65 112.936 367.543 116.531 367.292C122.291 366.896 124.082 372.735 123.492 377.071Z" fill="#617170"/>
<path d="M115.816 367.492C112.688 367.385 110.006 370.908 109.819 375.359C109.632 379.811 112.012 383.499 115.133 383.607C118.261 383.715 120.943 380.192 121.13 375.74C121.324 371.289 118.944 367.6 115.816 367.492ZM112.99 380.12L112.839 380.127C111.279 380.192 111.178 377.898 112.738 377.826L112.889 377.819C114.45 377.754 114.551 380.055 112.99 380.12ZM112.904 374.655C111.343 374.727 111.243 372.418 112.803 372.354C114.364 372.282 114.464 374.583 112.904 374.655ZM116.327 373.058C116.262 371.577 118.685 371.469 118.75 372.95L118.757 373.094C118.822 374.576 116.391 374.683 116.334 373.202L116.327 373.058ZM117.995 379.904L117.844 379.911C116.276 379.976 116.183 377.682 117.743 377.61L117.894 377.603C119.455 377.538 119.555 379.832 117.995 379.904Z" fill="url(#paint35_linear_578_2156)"/>
<path d="M112.654 379.559C112.603 379.559 112.56 379.559 112.51 379.544C112.179 379.48 111.97 379.178 112.035 378.869C112.337 377.466 116.537 372.886 117.349 372.375C117.63 372.203 118.004 372.274 118.191 372.533C118.378 372.799 118.299 373.159 118.018 373.331C117.378 373.734 113.437 378.135 113.229 379.091C113.164 379.365 112.927 379.552 112.654 379.559Z" fill="#F4F7F7"/>
<path d="M117.794 378.854C117.636 378.861 117.478 378.811 117.356 378.703C116.011 377.538 113.861 375.273 112.833 374.029C112.624 373.777 112.674 373.417 112.933 373.223C113.192 373.029 113.573 373.065 113.782 373.317C114.889 374.662 116.982 376.819 118.168 377.854C118.413 378.07 118.427 378.43 118.204 378.667C118.104 378.782 117.953 378.847 117.794 378.854Z" fill="#F4F7F7"/>
<path d="M123.539 448.291C122.956 452.627 119.505 455.381 115.931 454.964C112.357 454.547 110.495 450.556 111.084 446.213C111.667 441.876 112.983 438.763 116.578 438.511C122.338 438.116 124.121 443.947 123.539 448.291Z" fill="#617170"/>
<path d="M115.863 438.712C112.735 438.604 110.053 442.128 109.866 446.579C109.679 451.03 112.059 454.719 115.18 454.827C118.301 454.935 120.99 451.411 121.177 446.96C121.371 442.509 118.991 438.82 115.863 438.712ZM113.037 451.339L112.886 451.346C111.326 451.411 111.225 449.117 112.785 449.045L112.936 449.038C114.497 448.973 114.597 451.274 113.037 451.339ZM112.944 445.874C111.383 445.946 111.282 443.645 112.843 443.573C114.41 443.501 114.511 445.802 112.944 445.874ZM116.374 444.278C116.309 442.796 118.732 442.689 118.797 444.17L118.804 444.314C118.869 445.795 116.446 445.903 116.381 444.422L116.374 444.278ZM118.042 451.123L117.891 451.131C116.33 451.203 116.23 448.901 117.79 448.83L117.941 448.822C119.502 448.75 119.602 451.052 118.042 451.123Z" fill="url(#paint36_linear_578_2156)"/>
<path d="M112.712 450.778C112.662 450.778 112.619 450.778 112.568 450.764C112.238 450.699 112.029 450.397 112.094 450.088C112.396 448.686 116.603 444.098 117.408 443.595C117.688 443.422 118.062 443.494 118.249 443.753C118.436 444.019 118.357 444.378 118.077 444.551C117.437 444.946 113.496 449.355 113.287 450.311C113.223 450.584 112.985 450.771 112.712 450.778Z" fill="#F4F7F7"/>
<path d="M117.833 450.073C117.675 450.08 117.517 450.03 117.394 449.922C116.05 448.757 113.899 446.492 112.871 445.248C112.663 444.996 112.713 444.636 112.979 444.442C113.238 444.248 113.619 444.284 113.828 444.536C114.935 445.881 117.028 448.038 118.214 449.073C118.459 449.289 118.473 449.649 118.25 449.886C118.142 450.001 117.991 450.066 117.833 450.073Z" fill="#F4F7F7"/>
<path d="M126.68 526.37C126.097 530.706 122.645 533.46 119.072 533.043C115.498 532.626 113.635 528.628 114.225 524.292C114.807 519.955 116.123 516.842 119.719 516.59C125.479 516.195 127.269 522.034 126.68 526.37Z" fill="#617170"/>
<path d="M119.004 516.798C115.876 516.69 113.193 520.214 113.006 524.665C112.819 529.116 115.2 532.805 118.321 532.913C121.441 533.021 124.131 529.497 124.318 525.046C124.512 520.595 122.132 516.898 119.004 516.798ZM116.178 529.425L116.027 529.432C114.466 529.497 114.366 527.203 115.926 527.131L116.077 527.124C117.637 527.052 117.738 529.353 116.178 529.425ZM116.091 523.953C114.531 524.018 114.43 521.724 115.991 521.652C117.551 521.587 117.652 523.888 116.091 523.953ZM119.514 522.364C119.45 520.882 121.873 520.774 121.938 522.256L121.945 522.4C122.01 523.881 119.586 523.989 119.521 522.507L119.514 522.364ZM121.183 529.209L121.032 529.217C119.471 529.281 119.37 526.987 120.931 526.915L121.082 526.908C122.642 526.836 122.743 529.138 121.183 529.209Z" fill="url(#paint37_linear_578_2156)"/>
<path d="M115.848 528.864C115.798 528.864 115.748 528.864 115.697 528.85C115.366 528.785 115.158 528.483 115.223 528.174C115.532 526.772 119.731 522.191 120.537 521.681C120.817 521.508 121.191 521.58 121.378 521.839C121.565 522.105 121.486 522.464 121.205 522.637C120.565 523.04 116.625 527.44 116.416 528.397C116.359 528.663 116.122 528.85 115.848 528.864Z" fill="#F4F7F7"/>
<path d="M120.985 528.161C120.827 528.168 120.676 528.118 120.547 528.01C119.202 526.845 117.052 524.58 116.023 523.336C115.815 523.084 115.865 522.725 116.131 522.53C116.39 522.336 116.771 522.372 116.98 522.624C118.087 523.969 120.18 526.126 121.366 527.161C121.611 527.377 121.632 527.737 121.402 527.974C121.294 528.089 121.143 528.154 120.985 528.161Z" fill="#F4F7F7"/>
<defs>
<linearGradient id="paint0_linear_578_2156" x1="137.604" y1="928.269" x2="135.497" y2="871.253" gradientUnits="userSpaceOnUse">
<stop offset="0.0408" stop-color="#51342A"/>
<stop offset="1" stop-color="#35302C"/>
</linearGradient>
<linearGradient id="paint1_linear_578_2156" x1="136.314" y1="928.914" x2="232.645" y2="928.914" gradientUnits="userSpaceOnUse">
<stop stop-color="#3F3A36"/>
<stop offset="0.5306" stop-color="#0E0C0A"/>
<stop offset="1" stop-color="#35302C"/>
</linearGradient>
<linearGradient id="paint2_linear_578_2156" x1="53.3651" y1="913.834" x2="135.764" y2="910.764" gradientUnits="userSpaceOnUse">
<stop stop-color="#3F3A36"/>
<stop offset="0.5306" stop-color="#0E0C0A"/>
<stop offset="1" stop-color="#35302C"/>
</linearGradient>
<linearGradient id="paint3_linear_578_2156" x1="64.8942" y1="544.875" x2="1.0493" y2="543.742" gradientUnits="userSpaceOnUse">
<stop stop-color="#F0D6C1"/>
<stop offset="0.3467" stop-color="#CBAA97"/>
<stop offset="1" stop-color="#E1B995"/>
</linearGradient>
<linearGradient id="paint4_linear_578_2156" x1="81.5707" y1="28.4281" x2="96.0656" y2="28.4281" gradientUnits="userSpaceOnUse">
<stop offset="0.0969" stop-color="#9FA29E"/>
<stop offset="0.6388" stop-color="#FFF4DE"/>
<stop offset="1" stop-color="#7B7870"/>
</linearGradient>
<linearGradient id="paint5_linear_578_2156" x1="224.185" y1="104.911" x2="74.4492" y2="102.259" gradientUnits="userSpaceOnUse">
<stop stop-color="#F0D6C1"/>
<stop offset="0.1888" stop-color="#F1E1D6"/>
<stop offset="0.3467" stop-color="#F0D0B3"/>
<stop offset="0.6592" stop-color="#F0D4BC"/>
<stop offset="1" stop-color="#E1B995"/>
</linearGradient>
<linearGradient id="paint6_linear_578_2156" x1="106.18" y1="265.755" x2="149.628" y2="269.207" gradientUnits="userSpaceOnUse">
<stop offset="0.0765" stop-color="#166478"/>
<stop offset="0.5357" stop-color="#74A8C4"/>
<stop offset="0.6633" stop-color="#ADCADC"/>
</linearGradient>
<linearGradient id="paint7_linear_578_2156" x1="-6.0645" y1="426.181" x2="292.172" y2="426.181" gradientUnits="userSpaceOnUse">
<stop stop-color="white"/>
<stop offset="0.1378" stop-color="#B3CDEB"/>
<stop offset="0.1914" stop-color="#9DC2D8"/>
<stop offset="0.2398" stop-color="#86B6C4"/>
<stop offset="0.6378" stop-color="#8BB0C7"/>
<stop offset="1" stop-color="#D2E0F3"/>
</linearGradient>
<linearGradient id="paint8_linear_578_2156" x1="125.731" y1="662.24" x2="168.323" y2="351.029" gradientUnits="userSpaceOnUse">
<stop stop-color="#B3CDEB"/>
<stop offset="0.6327" stop-color="#EEF8FD"/>
<stop offset="1" stop-color="#B8D1EC"/>
</linearGradient>
<linearGradient id="paint9_linear_578_2156" x1="233.88" y1="530.831" x2="167.572" y2="529.653" gradientUnits="userSpaceOnUse">
<stop stop-color="#F0D6C1"/>
<stop offset="0.3467" stop-color="#F0D0B3"/>
<stop offset="0.6592" stop-color="#F0D4BC"/>
<stop offset="1" stop-color="#E1B995"/>
</linearGradient>
<linearGradient id="paint10_linear_578_2156" x1="117.135" y1="236.933" x2="204.07" y2="236.933" gradientUnits="userSpaceOnUse">
<stop stop-color="#B3CDEB"/>
<stop offset="0.6327" stop-color="#EEF8FD"/>
<stop offset="1" stop-color="#B8D1EC"/>
</linearGradient>
<linearGradient id="paint11_linear_578_2156" x1="212.327" y1="286.434" x2="308.371" y2="257.457" gradientUnits="userSpaceOnUse">
<stop stop-color="#B3CDEB"/>
<stop offset="0.6327" stop-color="#EEF8FD"/>
<stop offset="1" stop-color="#B8D1EC"/>
</linearGradient>
<linearGradient id="paint12_linear_578_2156" x1="99.6956" y1="284.098" x2="120.088" y2="197.229" gradientUnits="userSpaceOnUse">
<stop stop-color="#B3CDEB"/>
<stop offset="0.6327" stop-color="#EEF8FD"/>
<stop offset="1" stop-color="#B8D1EC"/>
</linearGradient>
<linearGradient id="paint13_linear_578_2156" x1="194.095" y1="428.126" x2="221.102" y2="428.126" gradientUnits="userSpaceOnUse">
<stop stop-color="#B3CDEB"/>
<stop offset="0.6327" stop-color="#EEF8FD"/>
<stop offset="1" stop-color="#B8D1EC"/>
</linearGradient>
<linearGradient id="paint14_linear_578_2156" x1="55.3149" y1="318.734" x2="97.0053" y2="318.734" gradientUnits="userSpaceOnUse">
<stop stop-color="white"/>
<stop offset="0.1378" stop-color="#B3CDEB"/>
<stop offset="0.1914" stop-color="#9DC2D8"/>
<stop offset="0.2398" stop-color="#86B6C4"/>
<stop offset="0.4592" stop-color="#A0BDD2"/>
<stop offset="1" stop-color="#D2E0F3"/>
</linearGradient>
<linearGradient id="paint15_linear_578_2156" x1="135.295" y1="314.874" x2="176.985" y2="314.874" gradientUnits="userSpaceOnUse">
<stop stop-color="white"/>
<stop offset="0.1378" stop-color="#B3CDEB"/>
<stop offset="0.1914" stop-color="#9DC2D8"/>
<stop offset="0.2398" stop-color="#86B6C4"/>
<stop offset="0.4592" stop-color="#A0BDD2"/>
<stop offset="1" stop-color="#D2E0F3"/>
</linearGradient>
<linearGradient id="paint16_linear_578_2156" x1="146.759" y1="313.906" x2="148.864" y2="297.518" gradientUnits="userSpaceOnUse">
<stop offset="0.1531" stop-color="#437479"/>
<stop offset="0.587" stop-color="#5DA0AC"/>
<stop offset="0.8616" stop-color="#B9E1E3"/>
</linearGradient>
<linearGradient id="paint17_linear_578_2156" x1="153.95" y1="307.196" x2="143.634" y2="306.284" gradientUnits="userSpaceOnUse">
<stop stop-color="#F0D6C1"/>
<stop offset="0.1888" stop-color="#F1E1D6"/>
<stop offset="0.3467" stop-color="#F0D0B3"/>
<stop offset="0.6592" stop-color="#F0D4BC"/>
<stop offset="1" stop-color="#E1B995"/>
</linearGradient>
<linearGradient id="paint18_linear_578_2156" x1="21.8" y1="542.107" x2="3.63135" y2="541.784" gradientUnits="userSpaceOnUse">
<stop stop-color="#F0D6C1"/>
<stop offset="0.3467" stop-color="#F0D0B3"/>
<stop offset="0.6592" stop-color="#F0D4BC"/>
<stop offset="1" stop-color="#E1B995"/>
</linearGradient>
<linearGradient id="paint19_linear_578_2156" x1="33.6919" y1="565.351" x2="16.6687" y2="565.049" gradientUnits="userSpaceOnUse">
<stop stop-color="#F0D6C1"/>
<stop offset="0.3467" stop-color="#F0D0B3"/>
<stop offset="0.6592" stop-color="#F0D4BC"/>
<stop offset="1" stop-color="#E1B995"/>
</linearGradient>
<linearGradient id="paint20_linear_578_2156" x1="43.9415" y1="565.191" x2="32.3856" y2="564.986" gradientUnits="userSpaceOnUse">
<stop stop-color="#F0D6C1"/>
<stop offset="0.3467" stop-color="#F0D0B3"/>
<stop offset="0.6592" stop-color="#F0D4BC"/>
<stop offset="1" stop-color="#E1B995"/>
</linearGradient>
<linearGradient id="paint21_linear_578_2156" x1="15.3553" y1="444.832" x2="43.1183" y2="444.832" gradientUnits="userSpaceOnUse">
<stop offset="0.6327" stop-color="#EEF8FD"/>
<stop offset="1" stop-color="#B8D1EC"/>
</linearGradient>
<linearGradient id="paint22_linear_578_2156" x1="169.744" y1="72.9921" x2="229.067" y2="72.9921" gradientUnits="userSpaceOnUse">
<stop offset="0.0969" stop-color="#9FA29E"/>
<stop offset="0.6388" stop-color="#FFF4DE"/>
<stop offset="1" stop-color="#7B7870"/>
</linearGradient>
<linearGradient id="paint23_linear_578_2156" x1="101.462" y1="78.6062" x2="99.443" y2="119.508" gradientUnits="userSpaceOnUse">
<stop offset="0.1429" stop-color="#CF9E7F"/>
<stop offset="0.5612" stop-color="#B8826E"/>
</linearGradient>
<linearGradient id="paint24_linear_578_2156" x1="181.55" y1="66.417" x2="189.349" y2="66.417" gradientUnits="userSpaceOnUse">
<stop offset="0.4133" stop-color="#99958B"/>
<stop offset="0.9388" stop-color="#565452"/>
</linearGradient>
<linearGradient id="paint25_linear_578_2156" x1="187.705" y1="46.8875" x2="197.15" y2="46.8875" gradientUnits="userSpaceOnUse">
<stop offset="0.4133" stop-color="#99958B"/>
<stop offset="0.9388" stop-color="#565452"/>
</linearGradient>
<linearGradient id="paint26_linear_578_2156" x1="170.729" y1="60.03" x2="181.758" y2="60.03" gradientUnits="userSpaceOnUse">
<stop offset="0.4133" stop-color="#99958B"/>
<stop offset="0.9388" stop-color="#565452"/>
</linearGradient>
<linearGradient id="paint27_linear_578_2156" x1="200.789" y1="61.0897" x2="209.207" y2="61.0897" gradientUnits="userSpaceOnUse">
<stop offset="0.4133" stop-color="#99958B"/>
<stop offset="0.9388" stop-color="#565452"/>
</linearGradient>
<linearGradient id="paint28_linear_578_2156" x1="204.981" y1="45.6465" x2="213.831" y2="45.6465" gradientUnits="userSpaceOnUse">
<stop offset="0.4133" stop-color="#99958B"/>
<stop offset="0.9388" stop-color="#565452"/>
</linearGradient>
<linearGradient id="paint29_linear_578_2156" x1="207.599" y1="52.7572" x2="225.911" y2="52.7572" gradientUnits="userSpaceOnUse">
<stop offset="0.4133" stop-color="#99958B"/>
<stop offset="0.9388" stop-color="#565452"/>
</linearGradient>
<linearGradient id="paint30_linear_578_2156" x1="79.181" y1="52.6909" x2="236.488" y2="52.6909" gradientUnits="userSpaceOnUse">
<stop offset="0.051" stop-color="#C9CBC7"/>
<stop offset="0.2092" stop-color="#798C91"/>
<stop offset="0.4592" stop-color="#8195AD"/>
<stop offset="0.898" stop-color="#CAC9C4"/>
</linearGradient>
<linearGradient id="paint31_linear_578_2156" x1="84.4067" y1="166.713" x2="107.936" y2="166.713" gradientUnits="userSpaceOnUse">
<stop offset="0.4133" stop-color="#99958B"/>
<stop offset="0.9388" stop-color="#565452"/>
</linearGradient>
<linearGradient id="paint32_linear_578_2156" x1="100.21" y1="64.8589" x2="92.7025" y2="100.777" gradientUnits="userSpaceOnUse">
<stop offset="0.0561" stop-color="#F0D0B3"/>
<stop offset="0.7041" stop-color="#FDE4DB"/>
</linearGradient>
<linearGradient id="paint33_linear_578_2156" x1="98.9941" y1="128.696" x2="98.119" y2="132.884" gradientUnits="userSpaceOnUse">
<stop offset="0.0561" stop-color="#F0D0B3"/>
<stop offset="0.7041" stop-color="#FDE4DB"/>
</linearGradient>
<linearGradient id="paint34_linear_578_2156" x1="158.413" y1="136.684" x2="157.535" y2="96.9104" gradientUnits="userSpaceOnUse">
<stop offset="0.1429" stop-color="#CF9E7F"/>
<stop offset="0.9235" stop-color="#BE8972"/>
</linearGradient>
<linearGradient id="paint35_linear_578_2156" x1="109.84" y1="374.44" x2="121.051" y2="376.943" gradientUnits="userSpaceOnUse">
<stop stop-color="#F9FAFA"/>
<stop offset="0.8316" stop-color="#759CA2"/>
<stop offset="1" stop-color="#DCE1E3"/>
</linearGradient>
<linearGradient id="paint36_linear_578_2156" x1="109.886" y1="445.66" x2="121.096" y2="448.163" gradientUnits="userSpaceOnUse">
<stop stop-color="#F9FAFA"/>
<stop offset="0.8316" stop-color="#759CA2"/>
<stop offset="1" stop-color="#DCE1E3"/>
</linearGradient>
<linearGradient id="paint37_linear_578_2156" x1="113.026" y1="523.741" x2="124.236" y2="526.247" gradientUnits="userSpaceOnUse">
<stop stop-color="#F9FAFA"/>
<stop offset="0.8316" stop-color="#759CA2"/>
<stop offset="1" stop-color="#DCE1E3"/>
</linearGradient>
</defs>
</svg>
