<svg width="459" height="1043" viewBox="0 0 459 1043" fill="none" xmlns="http://www.w3.org/2000/svg">
<path d="M226.009 880.599C223.126 878.953 173.177 879.068 169.028 883.224C164.08 884.001 191.759 935.222 174.579 954.228C167.64 961.908 229.152 979.411 231.755 979.015C229.605 948.914 230.388 929.901 230.921 920.962C232.74 890.386 233.107 884.655 226.009 880.599Z" fill="#D5D5D5"/>
<path opacity="0.52" d="M182.396 908.524C184.331 908.207 214.432 912.694 214.82 912.666C217.38 912.457 229.152 913.816 229.634 914.83C230.504 916.635 229.648 941.163 229.634 941.185C228.72 943.04 223.708 936.058 221.026 936.662C214.641 938.093 210.657 939.977 206.536 943.134C199.575 948.462 179.477 949.002 180.03 946.125C181.066 940.71 175.212 909.688 182.396 908.524Z" fill="#727370"/>
<path d="M307.646 882.929C304.762 881.081 260.991 878.723 256.834 883.39C251.887 884.26 265.931 930.958 260.142 959.506C251.872 1000.25 310.788 993.807 313.384 993.368C311.234 959.592 312.018 938.257 312.55 928.232C314.369 893.903 314.743 887.474 307.646 882.929Z" fill="#D5D5D5"/>
<path opacity="0.52" d="M264.956 917.181C266.89 916.828 296.991 921.862 297.38 921.826C299.94 921.596 311.704 923.12 312.193 924.249C313.063 926.27 312.207 953.797 312.193 953.819C311.28 955.897 311.855 939.228 304.412 940.472C297.919 941.551 304.412 951.23 289.096 956.005C280.337 958.737 262.036 962.591 262.59 959.363C263.625 953.294 257.779 918.482 264.956 917.181Z" fill="#727370"/>
<path d="M321.15 442.598C318.446 435.565 258.372 430.762 247.989 431.129C238.741 431.452 160.079 436.896 160.029 437.176C137.852 447.653 135.443 466.659 135.759 527.631C135.989 572.848 134.659 664.972 146.79 718.472L155.067 736.119L172.167 917.029C171.613 932.476 229.256 925.989 234.908 912.341C235.067 908.63 241.114 851.944 231.737 764.797C228.429 702.473 237.806 730.05 243.322 731.15C238.453 730.179 253.252 824.913 252.145 913.714C249.671 917.425 256.33 925.975 258.761 928.607C259.516 929.427 281.923 940.192 319.431 920.33C319.431 920.33 330.987 761.079 331.016 746.035C331.203 641.845 353.365 593.407 357.493 530.925C361.513 470.06 337.387 484.831 321.15 442.598Z" fill="url(#paint0_linear_578_5519)"/>
<path opacity="0.45" d="M213.801 534.247L181.536 531.766C178.522 530.91 165.126 537.282 167.47 539.209L191.466 554.101C195.098 555.288 199.736 561.544 183.197 562.371L160.027 559.89L180.709 573.956L191.876 698.467C215.455 728.662 235.727 847.385 235.727 847.385C235.727 847.385 235.727 814.292 228.694 735.695C227.177 718.724 243.256 725.333 243.86 727.835L253.927 918.949L274.745 931.908L269.783 759.82C270.337 746.028 257.652 750.997 256.437 724.146L251.856 578.083C250.777 571.719 293.161 567.117 284.122 564.018C279.088 562.292 253.503 564.19 252.115 560.437C251.274 558.157 294.29 540.446 294.29 540.446C294.29 540.446 255.2 544.523 258.306 542.236L265.555 536.893L213.801 534.247Z" fill="url(#paint1_linear_578_5519)"/>
<g opacity="0.74">
<path d="M225.38 574.379C225.38 571.92 224.69 569.518 224.208 567.116L222.583 559.911L219.131 545.544C217.938 540.762 216.859 535.951 215.744 531.147C214.63 526.344 213.537 521.533 212.516 516.708C210.445 507.058 208.46 497.378 206.899 487.577C206.116 482.673 205.375 477.754 204.929 472.728C204.728 470.204 204.57 467.673 204.649 464.998C204.706 463.646 204.778 462.294 205.159 460.683C205.404 459.863 205.583 458.979 206.525 457.771C206.993 457.195 207.834 456.498 208.92 456.232C209.999 455.966 210.962 456.153 211.624 456.383L213.68 457.102L213.702 459.31C213.781 466.802 213.414 474.188 212.933 481.558C212.472 488.922 211.94 496.264 211.3 503.584L209.495 525.546C208.949 532.866 208.323 540.172 207.935 547.5L206.849 545.975C207.906 546.392 208.819 546.824 209.769 547.305C210.703 547.78 211.617 548.298 212.516 548.844C214.306 549.93 216.003 551.174 217.578 552.562C220.706 555.323 223.345 558.912 224.273 563.054L223.518 562.672C224.934 562.212 226.293 561.982 227.696 561.81C229.091 561.623 230.486 561.558 231.881 561.515C234.671 561.457 237.454 561.666 240.215 561.997C242.976 562.313 245.695 562.867 248.398 563.464C251.095 564.096 253.756 564.859 256.402 565.678C253.734 564.945 251.052 564.283 248.341 563.751C245.623 563.255 242.897 562.802 240.15 562.586C237.411 562.349 234.649 562.241 231.917 562.399C230.55 562.486 229.184 562.608 227.839 562.823C226.502 563.018 225.128 563.305 223.928 563.73L223.359 563.931L223.173 563.341C221.993 559.595 219.325 556.539 216.212 554.216C214.644 553.051 212.969 552.03 211.214 551.16C210.337 550.721 209.445 550.318 208.546 549.944C207.654 549.585 206.698 549.225 205.85 548.974L204.8 548.664L204.771 547.449C204.577 540.064 204.526 532.672 204.721 525.301C204.85 517.923 205.152 510.56 205.526 503.21C205.842 495.854 206.303 488.519 206.684 481.199C207.022 473.878 207.396 466.565 207.453 459.353L209.531 462.279C209.618 462.315 209.948 462.409 210.423 462.294C210.905 462.179 211.236 461.87 211.307 461.769C211.466 461.524 211.257 461.848 211.185 462.207C210.977 462.998 210.876 464.12 210.826 465.22C210.739 467.471 210.854 469.866 211.027 472.253C211.365 477.042 211.926 481.896 212.573 486.743C213.918 496.429 215.471 506.137 217.075 515.845L219.498 530.414C220.289 535.275 221.152 540.129 221.878 545.004L224.079 559.638C224.417 562.083 224.783 564.521 225.042 566.98C225.258 569.432 225.668 571.913 225.38 574.379Z" fill="#D1ECF5"/>
</g>
<g opacity="0.74">
<path d="M226.375 577.616C226.375 577.616 227.109 582.872 228.007 592.12C228.87 601.367 230.157 614.577 231.236 630.455C232.272 646.318 233.487 664.821 234.781 684.653C235.508 694.534 236.133 704.795 237.32 714.999C237.636 717.523 237.988 720.098 238.521 722.399C238.657 722.96 238.808 723.506 238.959 723.894C239.024 724.081 239.117 724.232 239.067 724.146C239.002 724.074 238.995 723.973 238.521 723.621C238.305 723.485 237.931 723.276 237.406 723.204C236.788 723.161 237.298 723.204 237.377 723.197L237.499 723.204C239.93 723.6 240.635 724.779 241.318 725.512C241.943 726.325 242.339 727.058 242.691 727.778C244.029 730.618 244.69 733.264 245.352 735.946C245.985 738.621 246.495 741.275 246.956 743.928C248.746 754.549 249.875 765.142 250.796 775.583C251.658 786.024 252.306 796.307 252.816 806.253C253.758 826.15 254.132 844.731 254.111 860.659C254.147 868.62 253.952 875.926 253.801 882.391C253.629 888.862 253.42 894.5 253.197 899.138C252.716 908.415 252.155 913.7 252.155 913.7C252.155 913.7 252.212 908.393 252.025 899.124C251.953 894.486 251.817 888.862 251.579 882.405C251.299 875.955 250.982 868.677 250.637 860.746C249.868 844.875 248.861 826.373 247.373 806.59C246.661 796.696 245.827 786.485 244.762 776.144C243.712 765.811 242.576 755.305 240.75 745.021C239.815 739.981 238.751 734.616 236.953 730.539C236.73 730.071 236.486 729.64 236.299 729.41C236.184 729.122 235.867 729.295 236.96 729.518L236.838 729.503C236.838 729.503 237.262 729.532 236.565 729.475C235.881 729.395 235.342 729.108 234.997 728.878C234.249 728.346 234.033 727.972 233.789 727.634C233.379 726.994 233.206 726.541 233.041 726.109C232.732 725.261 232.552 724.542 232.379 723.822C231.754 720.996 231.43 718.365 231.114 715.718C229.956 705.176 229.417 694.922 228.971 684.962C228.065 665.065 227.669 646.52 227.346 630.613C226.763 598.822 226.375 577.616 226.375 577.616Z" fill="#D1ECF5"/>
</g>
<path d="M307.239 922.092L304.054 921.898C306.182 887.295 309.591 844.566 312.597 806.871C315.681 768.147 318.349 734.71 318.105 728.18C317.285 706.485 318.414 681.18 319.601 654.394C320.96 623.71 322.369 591.99 321.096 561.788C292.419 551.254 291.412 524.568 290.98 513.098L294.166 512.983C294.576 523.935 295.54 549.585 323.16 559.142L324.181 559.494L324.232 560.573C325.591 591.228 324.16 623.408 322.786 654.53C321.6 681.252 320.485 706.492 321.29 728.058C321.542 734.774 318.996 766.702 315.775 807.123C312.776 844.803 309.368 887.518 307.239 922.092Z" fill="#D1ECF5"/>
<path d="M355.281 495.919C355.281 495.919 355.411 496.314 355.67 497.084C355.943 497.846 356.281 498.989 356.677 500.514C357.446 503.556 358.287 508.122 358.539 513.997C358.834 519.865 358.546 527.012 358.165 535.117C357.849 543.264 356.605 552.519 355.087 562.392C353.548 572.308 351.686 583.001 349.665 594.298C347.616 605.574 345.451 617.46 343.215 629.764C342.187 635.956 341.079 642.054 340.633 648.396C340.144 654.803 339.656 661.289 339.159 667.826C338.217 680.921 337.254 694.224 336.297 707.527C334.305 734.134 332.314 760.74 330.444 785.686C328.423 810.624 326.546 833.894 324.928 853.842C323.231 873.79 321.822 890.408 320.83 902.043C320.377 907.868 320.024 912.434 319.78 915.555C319.557 918.676 319.442 920.344 319.442 920.344C319.442 920.344 319.427 918.676 319.399 915.548C319.348 912.412 319.377 907.824 319.499 901.978C319.787 890.3 320.11 873.603 321.031 853.597C321.887 833.592 323.073 810.257 324.619 785.283C325.345 772.793 326.216 759.892 327.129 746.783C328.006 733.674 328.963 720.363 330.034 707.053C331.077 693.742 332.098 680.432 333.306 667.344C333.924 660.793 334.536 654.293 335.147 647.871C335.708 641.363 336.981 634.942 338.153 628.829C343.007 604.222 348.076 581.455 351.751 561.817C353.534 551.958 355.217 543.063 355.864 534.966C356.677 526.854 357.324 519.843 357.331 514.026C357.345 508.222 356.935 503.656 356.353 500.593C356.073 499.061 355.814 497.889 355.591 497.112C355.382 496.321 355.281 495.919 355.281 495.919Z" fill="#45787F"/>
<path d="M170.013 919.317C167.726 873.625 156.357 739.802 153.179 733.682C146.527 724.816 136.935 694.024 136.366 659.471L136.352 658.601C135.971 634.03 134.597 550.765 133.059 511.136L136.244 511.014C137.783 550.679 139.157 633.972 139.545 658.551L139.559 659.421C140.106 692.852 149.497 723.464 155.789 731.848C159.816 737.213 171.444 883.959 173.206 919.151L170.013 919.317Z" fill="#45787F"/>
<path d="M233.266 956.192C200.583 967.359 180.801 966.41 179.902 959.78C177.205 939.811 175.35 958.263 129.845 986.94C110.818 990.802 91.575 989.428 84.758 999.625C80.4434 1006.08 80.8389 1013.45 81.3207 1017.06C81.9967 1022.1 81.5652 1021.27 82.5504 1021.41C96.0622 1023.34 105.173 1027.27 121.986 1027.48C128.098 1027.56 152.181 1028.17 193.967 1012.04C195.938 1011.27 197.707 1014.81 199.756 1014.93C213.822 1015.76 227.966 1010.49 235.747 1009.15C245.268 997.144 235.596 968.481 233.266 956.192Z" fill="#717373"/>
<path d="M231.463 958.672C198.78 969.84 179.135 969.171 178.236 962.534C176.424 949.101 170.721 958.701 163.616 963.915C170.915 967.179 175.582 971.997 182.385 976.089C186.038 978.282 186.031 981.561 182.37 979.361C174.892 974.859 166.018 971.479 157.554 968.884C154.858 971.098 152.14 973.515 148.731 976.053C156.627 978.376 162.358 983.992 168.744 988.091C172.325 990.385 172.188 993.254 168.593 990.946C161.258 986.243 148.731 979.771 139.361 981.015C139.174 981.036 139.534 984.603 139.361 984.596C136.564 986.509 135.133 987.257 131.919 989.284C112.891 993.146 92.4115 990.392 85.5872 1000.59C84.8825 1001.65 83.0057 1006.55 83.9333 1007.2C90.549 1011.89 102.939 1012.28 112.748 1012.73C125.562 1013.3 138.11 1012.34 150.673 1009.72C177.064 1004.22 201.944 993.347 227.422 984.848C231.478 983.496 241.48 999.093 237.266 998.654C207.755 995.62 170.894 1014.09 139.879 1018.26C126.986 1019.99 113.582 1020.18 100.667 1018.31C93.4614 1017.28 87.8236 1015.51 82.5454 1010.79C82.3441 1013.4 82.7684 1018.04 83.6457 1018.51C88.3342 1020.99 105.442 1024.92 122.254 1025.12C128.366 1025.2 152.729 1024.43 194.509 1008.3C196.479 1007.54 197.975 1012.6 200.024 1012.72C214.09 1013.55 227.271 1008.28 235.044 1006.93C244.565 994.936 233.793 970.962 231.463 958.672ZM233.671 974.672C227.055 974.946 197.86 982.072 201.678 980.188C210.458 975.859 223.819 969.775 233.117 966.676C233.944 966.396 234.9 974.615 233.671 974.672Z" fill="url(#paint2_linear_578_5519)"/>
<path d="M330.057 1017C323.025 989.902 319.508 976.822 313.928 968.185C296.138 942.952 274.22 952.466 258.91 973.147C261.082 985.249 248.26 1004.19 248.569 1004.17C248.569 1004.17 233.274 1010.71 234.921 1024.02C234.921 1032.01 234.921 1036.02 234.921 1036.02C270.193 1047.26 305.45 1041.4 331.309 1035.19C332.898 1030.19 331.726 1023.43 330.057 1017Z" fill="#717373"/>
<path d="M284.684 1021.28C269.072 1020.72 251.864 1021.83 236.835 1026.38C236.591 1028.82 237.108 1033.55 237.108 1033.55C272.38 1044.8 303.912 1039.62 329.771 1033.42C331.289 1031.34 330.433 1023.42 330.325 1021.97C322.465 1029.41 307.846 1022.1 284.684 1021.28Z" fill="url(#paint3_linear_578_5519)"/>
<path d="M328.41 1017.41C321.377 990.319 317.034 978.483 311.446 969.839C304.248 959.628 297.187 955.04 290.312 954.566C291.132 959.283 291.635 962.411 292.11 967.15C298.524 967.294 304.859 971.493 310.102 974.593C313.769 976.764 313.244 976.994 309.275 975.419C304.313 973.456 297.992 972.637 292.937 972.421C293.174 975.966 293.152 982.452 293.21 986.012C301.106 986.048 309.929 992.635 316.617 994.454C320.73 995.569 317.99 996.489 313.877 995.367C307.851 993.735 300.574 992.685 293.246 992.635C291.592 996.209 291.204 997.891 290.664 1000.45C290.247 1002.41 290.247 1003.76 289.837 1000.55C289.298 996.388 287.666 995.59 286.645 992.879C279.835 993.44 275.463 993.519 267.186 996.417C262.526 998.049 260.462 996.762 264.187 994.663C270.458 991.117 278.677 986.867 286.63 986.256C286.58 982.74 286.35 976.354 286.113 972.845C280.043 973.744 275.873 976.362 267.804 979.26C263.785 980.705 262.706 981.74 265.669 978.677C270.688 973.485 285.365 967.711 285.588 967.675C285.142 963.252 284.624 960.239 283.847 955.831C283.819 955.651 283.811 955.493 283.811 955.321C276.038 957.622 268.531 964.741 261.39 974.391C263.562 986.494 248.259 1004.2 248.568 1004.18C248.568 1004.18 235.891 1009.68 236.941 1022.45C251.948 1018.12 268.531 1014.83 284.006 1014.93C311.583 1015.11 316.962 1020.59 323.858 1020.45C328.827 1019.9 328.841 1019.05 328.41 1017.41Z" fill="url(#paint4_linear_578_5519)"/>
<path d="M191.066 469.716C191.066 469.716 194.719 482.171 199.501 500.982C201.903 510.366 204.7 521.311 207.699 533.047C208.461 535.959 209.26 538.922 210.122 541.87C210.993 544.725 211.935 547.961 213.006 550.197C213.085 550.398 213.337 550.693 213.078 550.398C212.92 550.269 213.1 550.399 212.56 550.046C212.208 549.802 211.352 549.773 211.712 549.802L212.309 549.852L214.703 550.053L219.507 550.449C222.678 550.607 225.835 550.852 229.042 550.945C235.449 551.247 241.863 551.448 248.191 551.456C254.52 551.477 260.754 551.52 266.787 551.412C278.861 551.233 290.144 550.859 299.823 550.485C319.174 549.679 332.124 548.874 332.124 548.874C332.124 548.874 331.333 549.039 329.845 549.349C328.356 549.658 326.178 550.14 323.38 550.629C317.793 551.65 309.789 552.973 300.125 554.138C290.467 555.339 279.149 556.41 266.981 557.036C260.898 557.309 254.606 557.647 248.199 557.625C241.791 557.69 235.276 557.575 228.761 557.323C225.504 557.187 222.21 556.899 218.953 556.698L214.149 556.245L211.762 556.015L211.165 555.957C211.323 555.993 210.288 555.856 209.756 555.54C209.015 555.137 209.087 555.073 208.778 554.814C207.958 553.951 207.829 553.527 207.541 553.03C205.894 549.5 205.269 546.573 204.413 543.445C203.629 540.374 202.924 537.354 202.256 534.377C199.624 522.476 197.581 511.33 195.942 501.752C192.62 482.602 191.066 469.716 191.066 469.716Z" fill="#45787F"/>
<path opacity="0.67" d="M94.9748 998.762C94.8166 997.36 103.482 994.843 111.492 995.044C119.251 995.238 127.406 998.014 127.054 999.387C126.385 1001.98 95.2768 1001.36 94.9748 998.762Z" fill="white"/>
<path opacity="0.56" d="M279.717 1001.97C296.637 1003.63 307.021 1004.72 308.121 1006.93C309.236 1009.15 287.203 1008.8 282.751 1009.14C264.551 1010.52 260.51 1008.4 260.963 1005.55C261.135 1004.5 262.897 1000.31 279.717 1001.97Z" fill="white"/>
<path d="M302.627 89.4137C301.678 89.5215 314.003 74.0322 310.019 60.9806C308.574 56.2561 310.81 44.7074 293.696 33.5039C272.633 17.0581 245.38 15.3611 240.749 14.9871C226.417 13.8222 199.149 17.4465 190.031 29.3547C177.777 45.369 169.63 75.7724 171.909 78.6632C172.391 79.2744 174.254 83.5602 173.427 86.6595C172.226 91.1539 168.055 92.9804 167.775 97.2734C166.897 110.627 160.425 156.167 193.267 173.26C195.899 174.634 233.903 198.199 236.563 199.457C243.273 202.635 291.337 226.747 280.018 153.665C279.774 152.076 280.867 132.358 282.499 132.984C282.499 132.984 284.671 133.681 286.009 133.911C291.452 134.839 298.895 129.863 303.864 123.966C313.665 112.353 313.313 88.1768 302.627 89.4137Z" fill="url(#paint5_linear_578_5519)"/>
<path d="M43.3935 331.549C53.3242 377.326 86.9708 444.066 103.79 444.893C114.958 444.475 131.504 438.687 131.922 437.45C131.922 437.45 129.441 463.927 130.677 475.922C130.26 490.814 131.095 506.943 135.229 535.074C136.545 544.042 143.29 550.262 190.111 549.413C191.247 549.392 187.22 496.48 190.111 469.435C190.521 465.617 206.744 552.433 213 553.275C261.287 559.804 358.746 547.27 364.823 543.754C372.999 542.395 362.205 457.585 367.167 399.115C369.238 378.843 370.201 369.61 371.582 360.78C372.682 361.053 374.343 368.496 375.997 372.501C375.997 372.501 357.797 391.118 307.604 431.381C282.795 451.278 355.561 504.297 368.555 488.47C377.378 477.712 440.019 418.034 448.806 409.865C464.252 395.527 454.25 362.29 447.548 339.854C447.548 339.854 445.081 334.979 414.052 281.902C401.863 261.048 405.782 252.944 377.651 219.024C353.935 196.409 324.273 195.697 296.437 184.141C296.523 180.495 289.131 167.458 289.131 167.458C289.339 165.466 272.03 176.698 258.792 184.968C258.792 184.968 236.967 194.863 234.386 194.899C234.386 194.899 223.628 190.764 219.493 187.866C219.493 187.866 206.37 178.496 205.845 181.25C200.602 190.073 206.398 201.658 188.198 210.755C182.683 213.509 166.992 223.181 154.688 233.924C131.936 253.778 125.73 317.073 122.005 313.348C106.609 297.952 106.746 300.512 102.978 298.866C102.978 298.866 88.6894 285.045 86.4315 280.248C79.8158 266.183 35.1383 307.135 37.2021 314.168C38.7553 319.496 43.0124 327.327 43.3935 331.549Z" fill="url(#paint6_linear_578_5519)"/>
<path d="M93.4302 404.356C93.1066 403.199 127.767 420.896 109.977 362.987C108.503 358.198 125.861 351.294 120.317 347.684C117.196 345.649 96.8244 323.839 95.9111 322.034C94.401 319.057 119.231 332.31 124.035 329.901C125.624 325.903 94.6024 300.454 104.591 303.841C131.478 312.945 150.174 358.226 151.749 357.615C153.575 342.83 150.426 274.085 148.031 259.983C144.723 240.539 155.812 275.35 155.891 275.293C156.351 274.559 153.82 248.816 161.27 245.925C165.656 244.221 164.168 256.683 161.27 274.056C161.27 274.078 173.588 255.194 167.476 269.921C167.339 270.496 157.135 339.415 154.654 365.892C154.525 367.273 133.218 420.5 131.902 434.975C131.485 439.527 114.529 441.591 111.221 442.835C103.598 445.69 89.7053 435.81 90.9493 431.258C91.352 429.776 98.392 422.147 93.4302 404.356Z" fill="url(#paint7_linear_578_5519)"/>
<path opacity="0.42" d="M203.474 205.382C203.474 205.382 203.057 199.593 206.782 182.213C206.782 182.213 207.609 183.04 220.848 192.554C223.515 194.466 229.534 196.278 235.323 197.515C235.323 197.515 235.51 215.148 235.596 215.989C230.217 221.627 264.31 200.945 275.7 192.899C280.741 189.339 296.468 181.177 294.749 183.306C288.795 190.698 246.627 224.258 233.942 220.951C227.542 232.032 224.982 257.761 220.021 271.963C211.708 295.751 188.172 367.114 192.717 475.906C192.817 478.287 183.757 463.085 182.786 458.533C178.464 438.161 164.722 366.28 219.122 228.566C221.61 222.295 216.662 221.051 203.474 205.382Z" fill="url(#paint8_linear_578_5519)"/>
<path d="M321.62 482.056C314.113 475.167 304.154 466.79 301.73 467.444C295.445 469.141 304.125 488.305 321.06 499.048C329.085 504.14 335.384 503.449 337.225 499.976C337.225 499.976 327.611 487.55 321.62 482.056Z" fill="#2D6A6D"/>
<path d="M58.6978 308.797C69.4554 303.835 81.9246 290.114 83.1039 288.525C88.8783 280.773 80.6518 278.372 71.5193 283.146C53.3189 292.66 39.879 309.322 40.0804 313.341C40.4327 320.158 51.8735 311.946 58.6978 308.797Z" fill="#2D6A6D"/>
<path d="M80.8844 288.532C82.5384 286.605 76.0665 281.535 76.7496 279.982C80.6111 271.159 77.1811 260.301 71.2341 237.786L49.4527 223.447C49.4527 223.447 44.2105 222.821 44.2105 229.516C44.2105 239.72 56.8953 241.101 58.276 243.855C61.9074 251.118 58.3551 250.305 57.4491 249.097C55.8527 246.961 47.2091 231.76 44.4909 228.962C38.9754 223.31 38.1485 224.001 32.633 222.893C20.8974 220.549 19.9481 229.236 25.7369 232.27C42.837 235.858 37.3143 236.685 30.6986 233.097C21.3935 228.056 5.36487 227.287 8.91002 236.405C17.1868 244.401 21.8682 239.526 24.3562 243.021C27.2254 247.062 27.0025 245.3 31.6622 252.808C32.9207 254.835 24.9818 247.263 21.3216 244.121C19.3872 242.467 14.7059 234.744 7.52934 236.951C5.17789 237.678 0.0866882 247.429 8.62956 250.19C12.2179 252.398 14.3033 254.361 14.972 257.913C14.3033 254.375 -2.40139 246.328 2.84083 263.155C5.01969 270.159 8.08304 268.944 8.08304 268.944C17.3666 282.204 17.1509 287.238 18.9774 290.15C26.8227 302.698 34.5386 304.158 42.4918 305.417C46.979 306.129 45.3179 313.607 48.6329 312.378C59.3762 308.387 68.9546 302.447 80.8844 288.532Z" fill="#F0D0B3"/>
<path d="M244.877 507.841C248.645 507.093 255.325 503.39 258.209 497.839C260.467 493.049 263.501 491.079 264.35 490.18C272.49 481.573 281.213 480.645 288.677 479.667C292.2 479.207 302.419 473.245 305.684 474.705C319.778 480.997 330.464 495.803 330.162 496.594C326.947 505.058 313.227 524.172 310.832 526.667C309.308 528.256 297.277 537.159 291.661 538.913C288.245 539.978 269.434 540.776 255.879 533.204C254.124 532.226 240.914 525.768 241.813 520.274C242.942 513.4 247.458 514.924 253.333 518.937C256.238 520.922 265.788 517.276 265.788 517.276C272.9 510.969 276.28 505.763 274.885 504.62C271.972 501.427 267.241 506.468 262.976 509.394C258.158 512.702 253.376 518.024 244.898 513.795C243.856 513.27 240.303 508.747 244.877 507.841Z" fill="#F0D0B3"/>
<path d="M437.212 389.047C442.821 412.878 407.118 406.873 404.946 410.555C399.338 420.069 333.404 449.588 325.522 452.061C311.047 456.613 355.444 392.909 373.098 382.424C374.809 381.41 403.293 399.388 405.781 391.521C406.744 388.465 388.939 383.668 389.644 380.353C390.219 377.642 418.789 372.465 418.573 371.185C415.302 351.762 383.604 387.372 379.713 373.73C370.746 342.299 335.676 303.769 332.138 302.029C302.907 287.69 308.969 247.975 316.145 249.082C317.396 249.276 319.885 273.596 328.83 275.559C335.201 276.954 331.527 255.029 333.245 254.597C342.069 252.39 337.804 256.618 348.274 279.823C355.818 296.55 371.185 308.602 389.644 324.638C404.422 337.473 419.091 340.019 421.903 352.538C425.714 369.61 433.344 372.644 437.212 389.047Z" fill="url(#paint9_linear_578_5519)"/>
<path d="M337.512 497.437C335.441 486.68 312.265 466.804 303.938 465.869C302.83 465.747 309.856 458.822 312.718 455.723C334.334 463.661 331.824 457.506 337.922 458.556C345.408 459.843 325.511 474.275 350.744 486.27C352.477 487.09 337.685 498.329 337.512 497.437Z" fill="url(#paint10_linear_578_5519)"/>
<path d="M296.403 184.148C296.72 184.429 297.158 184.551 297.554 184.716L298.158 184.939L298.467 185.04C298.546 185.069 298.712 185.105 298.726 185.119C298.633 185.378 298.539 185.112 298.446 185.141L298.151 185.011L297.554 184.767L296.346 184.299L296.468 183.976C307.578 187.449 318.609 191.138 329.676 194.726C340.743 198.314 351.795 201.946 362.819 205.664L362.984 205.721L363.179 205.836C369.449 209.611 375.446 213.984 380.753 219.118C386.06 224.245 390.77 229.962 394.92 236.024C399.076 242.086 402.679 248.486 405.871 255.066C407.497 258.345 408.949 261.688 410.416 265.025L412.48 270.087L413.487 272.532L414.551 274.992C417.449 281.176 421.109 287.461 424.676 293.652L435.527 312.363C439.101 318.655 442.588 325.034 445.788 331.606C447.385 334.907 448.931 338.164 450.24 341.796C451.484 345.291 452.57 348.785 453.548 352.323C455.503 359.385 457.071 366.561 458.035 373.889C458.97 381.209 459.379 388.717 458.099 396.318C457.431 400.1 456.273 403.933 454.202 407.457C453.735 408.355 453.051 409.161 452.469 410.009C451.8 410.772 451.059 411.642 450.391 412.267L446.407 415.999L430.522 430.655L398.781 459.951C393.51 464.848 388.268 469.781 383.083 474.757C380.48 477.23 377.884 479.719 375.353 482.257C374.087 483.523 372.829 484.795 371.614 486.097C370.427 487.37 369.126 488.765 368.335 490.03L368.09 490.411L367.788 490.527C365.171 491.505 362.251 492.296 359.339 492.231C356.426 492.209 353.607 491.497 350.968 490.476L351.457 490.397C349.135 492.087 346.711 493.633 344.295 495.15C341.886 496.682 339.441 498.163 337.212 499.961C339.326 498.027 341.692 496.394 344 494.719C346.323 493.058 348.617 491.361 350.825 489.577L351.033 489.412L351.321 489.505C353.931 490.332 356.635 490.836 359.31 490.692C361.999 490.577 364.516 489.743 367.04 488.628L366.494 489.124C367.529 487.276 368.694 486.003 369.873 484.572C371.046 483.177 372.254 481.826 373.469 480.488C375.899 477.799 378.373 475.174 380.861 472.556C385.866 467.35 390.95 462.237 396.041 457.139C406.217 446.921 416.608 436.932 426.955 426.901L442.545 411.951L446.385 408.233C447.529 407.068 448.42 405.954 449.197 404.559C450.736 401.84 451.685 398.662 452.21 395.354C453.21 388.695 452.814 381.655 451.901 374.723C450.952 367.77 449.406 360.845 447.478 354.042C446.515 350.641 445.451 347.261 444.257 343.982C443.128 340.839 441.531 337.589 440.029 334.396C436.958 327.996 433.564 321.711 430.055 315.462L419.326 296.737C415.716 290.438 412.228 284.196 409.107 277.286L408.072 274.769L407.058 272.202L405.124 267.225C403.743 263.954 402.377 260.667 400.852 257.46C397.832 251.039 394.502 244.775 390.677 238.85C386.844 232.925 382.494 227.359 377.568 222.339C372.62 217.349 367.105 212.912 361.165 209.065L361.525 209.237C350.623 205.182 339.75 201.047 328.892 196.869C318.034 192.684 307.139 188.614 296.324 184.314L296.454 183.99L297.626 184.544L298.208 184.824L298.503 184.975C298.575 185.097 298.74 184.918 298.748 185.299C298.546 185.277 298.51 185.227 298.388 185.191L298.086 185.069L297.496 184.803C297.137 184.601 296.705 184.457 296.403 184.148Z" fill="#699FA3"/>
<path d="M418.158 373.997C418.158 373.997 417.454 374.033 416.332 374.27C415.196 374.493 413.57 374.918 411.65 375.522C407.796 376.708 402.784 378.758 397.57 380.498C392.357 382.231 386.942 383.784 382.074 383.417C380.866 383.317 379.679 383.051 378.622 382.641C377.558 382.224 376.652 381.62 375.976 381.03C374.631 379.786 374.257 378.794 374.207 378.83L379.399 376.119C379.428 376.097 379.514 376.449 379.881 376.874C380.082 377.075 380.355 377.327 380.816 377.564C381.283 377.787 381.916 378.017 382.728 378.154C384.339 378.441 386.547 378.405 388.941 378.154C391.35 377.873 393.961 377.399 396.593 376.874C401.849 375.766 407.185 374.529 411.255 373.861C413.29 373.515 415.016 373.364 416.238 373.336C417.482 373.292 418.137 373.372 418.137 373.372L418.158 373.997Z" fill="#45787F"/>
<path d="M427.206 398.481C427.206 398.481 426.976 398.51 426.552 398.56C426.128 398.618 425.495 398.69 424.675 398.726C423.043 398.812 420.713 398.762 417.937 398.438C412.379 397.827 405.101 396.015 398.162 393.167C394.725 391.779 391.28 390.348 388.188 388.694C385.11 387.019 382.364 385.171 380.185 383.323C378.042 381.439 376.402 379.605 375.669 378.023C375.288 377.246 375.101 376.578 375.043 376.125C375.014 375.664 375 375.42 375 375.42L375.316 375.377C375.316 375.377 375.554 376.276 376.582 377.412C377.632 378.526 379.336 379.936 381.666 381.295C383.953 382.711 386.743 384.193 389.749 385.775C392.747 387.371 395.962 389.119 399.248 390.744C405.734 394.001 412.781 396.13 418.124 397.295C423.496 398.481 427.192 398.158 427.192 398.158L427.206 398.481Z" fill="#45787F"/>
<path d="M40.4805 317.899C47.5132 321.207 78.1252 303.833 87.6388 288.114C88.2357 287.122 100.46 299.699 100.46 299.699C87.3512 319.107 78.1252 322.451 78.1252 322.451C65.3037 330.72 50.4112 331.964 47.5133 331.555C45.3776 331.238 40.4805 317.899 40.4805 317.899Z" fill="url(#paint11_linear_578_5519)"/>
<path d="M101.715 299.281C101.715 299.281 102.089 299.202 102.793 299.123C103.513 299.08 104.598 299.094 105.914 299.454C108.546 300.159 112.005 302.086 115.557 305.048C122.669 310.988 130.529 320.523 137.13 330.807C138.82 333.352 140.395 335.998 141.912 338.53C143.451 341.061 145.048 343.535 146.493 346.008C149.441 350.913 151.901 355.759 153.296 360.239C154.799 364.683 154.669 368.883 153.634 371.428C152.62 374.01 151.282 374.945 151.354 374.988C151.354 374.988 151.548 374.664 151.922 374.053C152.231 373.42 152.706 372.493 152.986 371.227C153.274 369.976 153.396 368.401 153.123 366.639C152.835 364.885 152.332 362.929 151.491 360.872C149.851 356.744 147.032 352.308 143.998 347.547C142.459 345.153 140.862 342.679 139.245 340.169C137.677 337.638 136.08 335.071 134.491 332.496C131.234 327.427 127.84 322.451 124.424 317.963C121.059 313.44 117.664 309.406 114.421 306.3C111.221 303.164 108.18 300.914 105.735 299.986C104.519 299.519 103.505 299.317 102.808 299.267C102.096 299.253 101.715 299.281 101.715 299.281Z" fill="#162C2D"/>
<path d="M124.051 334.856C127.315 337.178 130.444 339.681 133.521 342.262C136.606 344.837 139.497 347.648 142.28 350.582C145.034 353.538 147.687 356.652 149.83 360.175C151.966 363.67 153.807 367.582 154.138 371.99L154.167 372.342L154.016 372.702C149.6 383.265 145.322 393.922 141.374 404.666C139.375 410.03 137.534 415.445 135.83 420.888C134.981 423.614 134.204 426.354 133.593 429.108C133.284 430.488 133.032 431.869 132.845 433.25C132.709 434.616 132.594 436.018 132.802 437.255L131.026 437.636C130.688 436.04 130.782 434.544 130.861 433.048C131.004 431.574 131.199 430.122 131.457 428.683C131.968 425.807 132.644 422.988 133.385 420.191C134.859 414.589 136.692 409.11 138.562 403.659C142.388 392.779 146.602 382.072 151.175 371.479L151.053 372.191C150.801 368.581 149.334 364.964 147.421 361.62C145.473 358.284 143.172 355.077 140.648 352.035C138.145 348.972 135.369 346.131 132.615 343.255C129.847 340.371 126.927 337.646 124.051 334.856Z" fill="#162C2D"/>
<path d="M332.011 306.063C332.011 306.063 331.011 305.818 329.17 305.214C327.293 304.646 324.762 303.625 321.835 302.115C320.376 301.352 318.851 300.432 317.305 299.361C315.788 298.253 314.17 297.095 312.71 295.664C311.164 294.32 309.776 292.738 308.36 291.134C307.08 289.43 305.663 287.776 304.591 285.892L302.909 283.131C302.434 282.167 301.96 281.211 301.485 280.261C300.478 278.399 299.817 276.414 299.069 274.552C298.263 272.704 297.875 270.791 297.3 269.051C296.717 267.303 296.423 265.592 296.077 264.031C295.775 262.464 295.366 261.047 295.229 259.753C295.049 258.466 294.891 257.344 294.761 256.423C294.503 254.582 294.352 253.525 294.352 253.525C294.352 253.525 294.546 254.568 294.891 256.402C295.063 257.315 295.272 258.422 295.509 259.695C295.703 260.975 296.171 262.37 296.552 263.909C296.969 265.441 297.343 267.131 297.997 268.828C298.645 270.525 299.119 272.394 299.996 274.178C300.816 275.976 301.557 277.888 302.628 279.665C303.132 280.571 303.635 281.477 304.146 282.397L305.907 285C307.029 286.769 308.467 288.308 309.769 289.883C311.2 291.357 312.595 292.81 314.127 294.011C315.579 295.305 317.168 296.326 318.643 297.304C320.146 298.253 321.62 299.044 323.022 299.699C325.826 300.979 328.286 301.842 329.997 302.266C331.716 302.74 332.794 302.963 332.794 302.963L332.011 306.063Z" fill="#2D5659"/>
<path d="M374.313 368.502C374.313 368.502 374.169 367.956 373.896 366.927C373.609 365.906 373.134 364.425 372.393 362.591C370.934 358.917 368.352 353.876 364.749 348.13C357.609 336.618 346.563 322.214 334.612 308.709L332.34 306.243L331.779 305.675C331.721 305.603 331.441 305.409 331.196 305.272L329.744 304.373C327.73 302.942 326.026 301.389 324.336 299.771C321.115 296.449 318.31 292.875 315.93 289.2C313.471 285.562 311.587 281.758 309.933 278.004C308.365 274.2 307.394 270.195 307.178 266.57C306.876 262.932 307.243 259.588 307.833 256.733C308.466 253.878 309.321 251.484 310.235 249.621C311.098 247.744 311.996 246.392 312.622 245.486C313.284 244.609 313.636 244.149 313.636 244.149C313.636 244.149 313.535 244.717 313.348 245.796C313.169 246.86 312.924 248.406 312.694 250.34C312.5 252.282 312.277 254.597 312.313 257.229C312.327 259.854 312.507 262.781 313.046 265.887C313.6 269.008 314.391 272.23 315.829 275.602C317.16 279.04 319.029 282.549 320.956 286.187C322.977 289.768 325.163 293.45 327.68 296.945C328.91 298.7 330.276 300.44 331.671 301.972L332.857 303.187C333.059 303.395 333.224 303.554 333.569 303.877L334.181 304.531L336.446 307.12C348.16 321.035 358.716 335.862 365.512 347.684C368.906 353.595 371.3 358.766 372.623 362.505C373.299 364.375 373.716 365.885 373.961 366.913C374.191 367.949 374.313 368.502 374.313 368.502Z" fill="#45787F"/>
<path d="M245.56 337.748L276.603 338.841C282.658 338.841 291.021 333.246 291.021 327.687L293.063 298.312C293.473 292.387 288.9 287.044 282.485 286.267C281.536 286.152 248.278 286.555 247.724 286.605C241.101 287.138 238.333 292.106 238.786 298.197L238.34 324.495C238.34 330.046 239.505 337.748 245.56 337.748Z" fill="url(#paint12_linear_578_5519)"/>
<g opacity="0.65">
<path d="M220.429 224.826C220.429 224.826 218.596 223.805 216.151 221.914C213.699 220.037 210.621 217.283 207.946 214.083C207.306 213.256 206.659 212.436 206.069 211.588C205.443 210.768 204.962 209.855 204.444 209.013C203.473 207.28 202.776 205.54 202.337 204.008C201.92 202.462 201.776 201.132 201.762 200.211C201.769 199.284 201.812 198.766 201.812 198.766C201.812 198.766 202.021 199.241 202.38 200.075C202.74 200.895 203.315 202.016 204.034 203.304C205.523 205.871 207.852 208.999 210.405 212.055C212.936 215.118 215.561 218.189 217.438 220.619C219.329 223.028 220.429 224.826 220.429 224.826Z" fill="#D1ECF5"/>
</g>
<path d="M296.418 184.148C284.97 212.689 219.777 269.29 218.871 269.433C218.842 269.318 218.727 269.268 218.576 269.254C211.385 249.478 199.75 219.312 198.923 203.039C198.873 202.119 196.715 204.513 196.715 205.8C196.715 221.793 207.078 252.002 214.29 271.842C214.305 271.878 214.333 271.9 214.362 271.929C213.643 274.072 213.132 276.258 212.859 278.508C212.823 278.688 212.888 278.803 213.061 278.868C213.844 279.414 214.089 279.465 215.06 279.227C214.182 283.096 210.508 297.428 209.062 300.326L203.554 300.678C199.225 300.678 195.716 303.785 195.716 307.61L191.797 340.214C191.797 344.047 195.306 347.146 199.635 347.146L215.484 347.908C219.813 347.908 223.322 344.802 223.322 340.976L227.694 307.61C227.694 303.785 224.185 300.678 219.856 300.678L212.572 300.527C213.053 300.146 217.418 283.082 218.159 279.846C218.468 279.652 221.251 279.889 221.467 279.637C222.035 279.285 223.955 271.986 223.955 271.986C241.86 259.474 272.357 232.687 298.763 185.666C299.92 183.602 296.814 183.163 296.418 184.148Z" fill="url(#paint13_linear_578_5519)"/>
<path d="M198.853 333.297L198.59 336.479L216.929 337.993L217.192 334.812L198.853 333.297Z" fill="#ADBEC0"/>
<path d="M198.716 328.012L198.453 331.194L216.792 332.708L217.055 329.526L198.716 328.012Z" fill="#ADBEC0"/>
<path d="M216.535 327.859L198.816 326.5L199.104 323.322L216.815 324.681L216.535 327.859Z" fill="#ADBEC0"/>
<path opacity="0.41" d="M206.035 320.417H219.295L222.395 307.178H208.415L206.035 320.417Z" fill="url(#paint14_linear_578_5519)"/>
<path d="M209.238 313.254C209.238 316.756 211.216 319.596 213.654 319.596C216.091 319.596 218.069 316.756 218.069 313.254C218.069 309.752 216.091 306.912 213.654 306.912C211.216 306.912 209.238 309.752 209.238 313.254Z" fill="#F5E0CD"/>
<path opacity="0.66" d="M217.824 311.248V306.912H209.569L209.238 313.254L211.82 310.083L217.824 311.248Z" fill="#51504E"/>
<path d="M216.793 237.432C216.793 240.294 219.238 242.609 222.258 242.609C225.278 242.609 227.723 240.294 227.723 237.432C227.723 234.57 225.278 232.254 222.258 232.254C219.238 232.247 216.793 234.57 216.793 237.432Z" fill="url(#paint15_linear_578_5519)"/>
<path opacity="0.64" d="M219.929 236.555L223.064 239.331C223.388 239.611 223.905 239.611 224.229 239.331C224.545 239.05 224.545 238.583 224.229 238.302L221.094 235.526C220.777 235.246 220.252 235.246 219.929 235.526C219.612 235.814 219.612 236.274 219.929 236.555Z" fill="#54615F"/>
<path d="M199.32 291.443C199.32 294.305 201.765 296.621 204.785 296.621C207.806 296.621 210.251 294.298 210.251 291.443C210.251 288.581 207.806 286.266 204.785 286.266C201.772 286.266 199.32 288.581 199.32 291.443Z" fill="url(#paint16_linear_578_5519)"/>
<path opacity="0.64" d="M202.461 290.573L205.597 293.349C205.92 293.629 206.438 293.629 206.762 293.349C207.078 293.068 207.078 292.601 206.762 292.321L203.626 289.545C203.303 289.264 202.785 289.264 202.461 289.545C202.138 289.825 202.138 290.286 202.461 290.573Z" fill="#54615F"/>
<path d="M184.965 360.506C184.965 363.368 187.41 365.683 190.43 365.683C193.45 365.683 195.895 363.368 195.895 360.506C195.895 357.644 193.45 355.328 190.43 355.328C187.417 355.328 184.965 357.644 184.965 360.506Z" fill="url(#paint17_linear_578_5519)"/>
<path opacity="0.64" d="M188.101 359.635L191.236 362.411C191.559 362.692 192.077 362.692 192.401 362.411C192.724 362.131 192.724 361.663 192.401 361.383L189.266 358.607C188.942 358.327 188.424 358.327 188.101 358.607C187.784 358.888 187.784 359.348 188.101 359.635Z" fill="#54615F"/>
<path d="M180.418 436.206C180.418 439.068 182.863 441.383 185.883 441.383C188.903 441.383 191.348 439.068 191.348 436.206C191.348 433.344 188.903 431.028 185.883 431.028C182.87 431.028 180.418 433.351 180.418 436.206Z" fill="url(#paint18_linear_578_5519)"/>
<path opacity="0.64" d="M183.559 435.335L186.694 438.111C187.011 438.391 187.536 438.391 187.859 438.111C188.183 437.831 188.183 437.363 187.859 437.083L184.724 434.307C184.4 434.027 183.883 434.027 183.559 434.307C183.236 434.587 183.236 435.055 183.559 435.335Z" fill="#54615F"/>
<path d="M263.368 340.68C260.305 340.68 257.321 340.565 254.631 340.32C245.952 339.544 240.58 337.624 238.667 334.611C235.546 329.707 236.222 316.382 237.351 300.77C237.567 297.807 237.761 295.096 237.869 292.86C237.912 291.976 238.674 291.206 239.544 291.343C240.422 291.386 241.105 292.134 241.062 293.011C240.954 295.269 240.753 298.009 240.537 300.993C239.746 311.938 238.552 328.477 241.364 332.885C241.91 333.748 244.132 335.862 252.862 336.919C266.46 338.544 284.172 336.351 286.012 334.589C289.946 330.325 290.5 313.203 290.874 301.87C290.945 299.576 291.017 297.455 291.104 295.614C291.147 294.73 291.923 294.018 292.772 294.097C293.649 294.14 294.332 294.888 294.289 295.765C294.203 297.592 294.131 299.699 294.059 301.971C293.534 318.194 292.743 332 288.35 336.761C286.092 339.213 274.277 340.68 263.368 340.68Z" fill="#D1ECF5"/>
<path d="M312.262 449.307C308.954 432.761 327.981 419.796 334.324 417.868C337.977 416.754 324.947 436.069 315.57 450.961C315.268 451.457 312.765 451.81 312.262 449.307Z" fill="url(#paint19_linear_578_5519)"/>
<path d="M298.494 476.001C297.89 476.001 297.315 475.663 297.049 475.08C293.827 468.17 300.026 461.791 304.556 457.139C305.757 455.902 306.907 454.715 307.698 453.716C304.973 449.732 304.973 438.413 306.195 434.113C309.05 424.125 333.708 404.616 351.714 390.371C359.524 384.194 367.592 377.808 368.347 376.355C368.75 375.586 369.713 375.248 370.49 375.643C371.274 376.032 371.605 376.959 371.223 377.743C370.281 379.706 364.867 384.035 353.699 392.873C337.03 406.061 311.848 425.98 309.273 434.991C307.806 440.132 309 450.854 310.395 452.055L312.315 452.63L311.164 454.291C310.309 455.808 308.705 457.455 306.85 459.361C302.751 463.575 297.653 468.817 299.947 473.728C300.32 474.526 299.975 475.476 299.177 475.85C298.947 475.95 298.717 476.001 298.494 476.001Z" fill="#D1ECF5"/>
<path d="M45.8549 286.878C40.5623 287.59 29.064 287.288 28.7548 282.463C27.9278 269.498 6.69285 244.955 23.5125 248.543C25.7202 249.018 29.0208 253.994 30.6819 253.232C32.8968 252.211 26.9714 241.043 30.6819 236.958C34.5291 232.723 63.3433 238.54 59.64 249.09C41.7201 300.117 56.0589 285.498 45.8549 286.878Z" fill="url(#paint20_linear_578_5519)"/>
<path d="M58.0106 246.479C59.8371 256.941 55.3283 266.477 47.936 267.764C40.5437 269.051 33.0723 261.616 31.2458 251.153C29.4193 240.69 33.928 231.155 41.3203 229.867C48.7126 228.58 56.1841 236.016 58.0106 246.479Z" fill="url(#paint21_linear_578_5519)"/>
<path d="M51.4477 247.012C53.6481 257.216 50.4266 266.571 44.2423 267.909C38.0581 269.246 31.2626 262.048 29.0622 251.844C26.8618 241.64 30.0905 232.284 36.2675 230.947C42.4446 229.609 49.24 236.8 51.4477 247.012Z" fill="#667380"/>
<path opacity="0.51" d="M50.8429 249.211C49.0596 240.956 43.5657 235.132 38.5607 236.21C33.5558 237.289 30.9455 244.861 32.7288 253.116C34.5122 261.371 40.0061 267.196 45.011 266.117C50.0159 265.039 52.6263 257.467 50.8429 249.211ZM39.6753 255.54C38.5535 254.188 37.3023 249.377 37.8776 246.774C38.3306 244.753 40.754 240.532 44.6228 244.753C47.0964 247.45 47.9953 251.016 47.7724 253.519C47.3193 258.459 43.9971 260.724 39.6753 255.54Z" fill="#A5BBCE"/>
<path d="M42.733 268.958C36.52 268.958 30.2566 261.681 28.1713 252.031C25.8701 241.352 29.4081 231.5 36.0669 230.062C36.6206 229.94 37.1887 229.882 37.7496 229.882C43.9698 229.882 50.2332 237.16 52.3114 246.817C54.6125 257.488 51.0745 267.34 44.4156 268.778C43.8691 268.9 43.3011 268.958 42.733 268.958ZM37.7496 231.68C37.311 231.68 36.8723 231.723 36.4409 231.817C30.7528 233.046 27.8261 241.942 29.9186 251.649C31.8314 260.494 37.3326 267.16 42.7258 267.16C43.1716 267.16 43.6103 267.117 44.0345 267.024C49.7226 265.794 52.6493 256.899 50.5567 247.198C48.6511 238.353 43.1429 231.68 37.7496 231.68Z" fill="#D2D5D8"/>
<path d="M44.9237 249.923C45.4918 252.67 44.672 255.158 43.09 255.489C41.508 255.812 39.7678 253.856 39.1997 251.109C38.6316 248.363 39.4514 245.874 41.0334 245.544C42.6226 245.213 44.3628 247.176 44.9237 249.923Z" fill="#2A333A"/>
<path opacity="0.94" d="M291.592 535.901C286.077 537.282 283.042 529.005 283.042 529.005C276.973 529.278 271.637 523.676 271.184 521.562C269.818 515.184 289.938 511.912 281.115 492.604C276.376 482.242 299.459 478.359 304.831 476.058C308.692 474.404 315.495 481.789 320.277 485.989C320.608 486.276 329.848 491.202 326.066 499.227C319.443 513.293 302.587 533.154 291.592 535.901Z" fill="url(#paint22_linear_578_5519)"/>
<path d="M190.248 472.613C189.931 474.195 189.881 475.798 189.794 477.402C189.715 478.998 189.679 480.602 189.679 482.206C189.651 485.413 189.766 488.62 189.816 491.827C189.931 498.241 190.19 504.656 190.521 511.063L191.47 530.284L192.081 539.87L192.448 544.638C192.592 546.184 192.743 547.881 193.002 549.168L193.354 550.894L191.686 551.102C181.856 552.332 171.767 552.533 161.922 550.872C157.011 550.045 152.143 548.815 147.548 546.896C142.96 544.983 138.609 542.466 134.855 539.259C138.976 541.955 143.377 544.141 148.022 545.601C152.653 547.082 157.406 548.147 162.231 548.664C171.889 549.722 181.64 549.276 191.297 548.01L189.981 549.944C189.586 548.082 189.478 546.572 189.298 544.918L188.903 540.078L188.371 530.421C188.047 523.985 187.939 517.549 187.846 511.113C187.846 504.677 187.91 498.234 188.126 491.798C188.234 488.577 188.471 485.362 188.745 482.148C189.047 478.955 189.32 475.712 190.248 472.613Z" fill="#D1ECF5"/>
<path d="M41.7378 227.862C41.7378 230.911 36.6251 234.205 32.3608 234.205C28.0966 234.205 25.1914 233.392 25.1914 230.343C25.1914 227.294 26.7159 223.728 30.9801 223.728C35.2444 223.728 41.7378 224.813 41.7378 227.862Z" fill="#F0D0B3"/>
<path d="M22.97 228.135C23.0203 228.085 22.9699 228.624 23.423 229.077C23.7394 229.501 24.5016 230.098 25.3502 230.652C26.249 231.206 27.342 231.731 28.5285 232.176C29.1326 232.349 29.7438 232.579 30.3766 232.673C31.0023 232.838 31.6423 232.881 32.2751 232.896C32.9007 232.924 33.5335 232.896 34.1303 232.781C34.7128 232.608 35.3384 232.579 35.8777 232.284C36.4458 232.09 36.9779 231.831 37.4669 231.508C37.9847 231.242 38.4521 230.918 38.8548 230.573C39.2503 230.228 39.7177 229.976 40.0269 229.652C40.3649 229.336 40.6525 229.063 40.8898 228.84C41.3932 228.387 41.7168 228.135 41.7168 228.135C41.7168 228.135 41.6377 228.516 41.4292 229.178C41.2206 229.839 40.9258 230.817 40.2067 231.817C39.8975 232.356 39.5092 232.91 38.9483 233.377C38.4449 233.909 37.8697 234.434 37.1218 234.801C35.7483 235.722 33.9146 236.074 32.1744 236.074C31.2971 236.009 30.4341 235.901 29.6216 235.643C28.7802 235.484 28.0755 235.024 27.3564 234.715C25.9902 233.931 24.8755 232.967 24.1061 231.982C23.3439 230.968 22.8908 230.062 22.8045 229.214C22.6895 228.459 23.0419 228.157 22.97 228.135Z" fill="#A47860"/>
<path d="M9.17562 235.03C9.17562 235.03 9.31942 235.411 9.51358 236.08C9.54953 236.454 9.90191 236.72 10.0745 237.044C10.2183 237.367 10.7217 237.648 11.0021 237.993C11.4551 238.244 11.8435 238.575 12.39 238.791C12.9077 239.043 13.4758 239.23 14.1014 239.409C14.6839 239.647 15.3958 239.654 16.0358 239.841C16.7189 239.898 17.3949 240.057 18.0996 240.028C19.4946 240.186 20.8681 239.992 22.1697 239.877C22.7737 239.69 23.4425 239.683 23.9818 239.467C24.5355 239.28 25.0964 239.136 25.5423 238.884C26.0385 238.683 26.4555 238.446 26.7935 238.18C27.1602 237.935 27.5054 237.712 27.6995 237.461C28.1957 236.972 28.4762 236.698 28.4762 236.698C28.4762 236.698 28.4259 237.079 28.2389 237.791C28.1742 238.165 27.98 238.568 27.6923 238.999C27.4479 239.474 27.0955 239.956 26.6065 240.38C26.1607 240.876 25.5854 241.272 24.9454 241.646C24.3198 242.077 23.5863 242.307 22.8312 242.609C22.0618 242.775 21.2636 243.091 20.4366 243.127C19.6097 243.221 18.7612 243.271 17.9198 243.221C16.2371 243.113 14.5545 242.746 13.0875 242.034C12.3396 241.725 11.6781 241.272 11.0884 240.79C10.47 240.373 10.0241 239.711 9.62862 239.208C9.3266 238.561 8.97425 238.101 8.9311 237.475C8.85919 236.907 8.75135 236.425 8.88079 236.109C9.05337 235.418 9.17562 235.03 9.17562 235.03Z" fill="#A47860"/>
<path d="M4.48931 245.508C4.48931 245.508 4.7266 245.803 5.14368 246.321C5.54637 246.817 6.13601 247.515 6.87668 248.205C7.62455 248.903 8.53783 249.557 9.57332 250.039C10.0911 250.283 10.6591 250.42 11.2272 250.585C11.522 250.643 11.8097 250.715 12.1117 250.744L12.3346 250.772L12.3922 250.779C12.2124 250.765 12.385 250.779 12.3634 250.772L12.5 250.779L13.0465 250.794C13.6721 250.823 14.0245 250.779 14.4847 250.614C14.8946 250.47 15.2398 250.276 15.549 249.917C16.1962 249.233 16.6061 248.09 16.9368 247.112C17.246 246.062 17.505 245.192 17.6847 244.581C17.8933 243.948 18.0083 243.581 18.0083 243.581C18.0083 243.581 18.6196 244.998 18.7562 247.328C18.7921 248.486 18.7921 249.974 17.8429 251.542C17.3755 252.29 16.6277 253.088 15.6856 253.455C14.8299 253.864 13.7009 254.001 12.874 253.979L12.3274 253.936L12.1908 253.922L12.0254 253.908L11.9463 253.893L11.6299 253.836C11.2128 253.771 10.803 253.656 10.3931 253.548C9.5805 253.303 8.83982 252.894 8.16387 252.469C6.83354 251.556 5.91311 250.37 5.39536 249.284C4.84166 248.205 4.6475 247.242 4.55402 246.566C4.47492 245.897 4.48931 245.508 4.48931 245.508Z" fill="#A47860"/>
<path d="M11.4023 252.403C11.4023 252.403 11.7044 252.439 12.2005 252.533C12.6823 252.612 13.4086 252.856 14.1924 253.295C14.9834 253.719 15.8248 254.381 16.5655 255.229C17.3133 256.071 17.903 257.092 18.4207 258.084C19.3699 260.112 19.9596 262.039 20.4774 263.549C20.9951 265.038 21.3259 266.196 21.3259 266.196C21.3259 266.196 20.1897 265.764 18.9385 264.542C17.6513 263.355 16.4432 261.349 15.5515 259.479C14.6742 257.595 13.8473 255.941 12.9772 254.654C12.5457 254.036 12.1861 253.468 11.8553 253.065C11.5605 252.662 11.4023 252.403 11.4023 252.403Z" fill="#A47860"/>
<path d="M4.76953 245.235C4.76953 245.235 5.50303 245.681 6.53853 246.127C7.60998 246.63 8.85401 246.645 9.90389 245.803C11.0401 244.947 11.8167 243.833 12.1762 242.725C12.5502 241.647 12.7659 240.82 12.7659 240.82C12.7659 240.82 13.0751 241.604 13.0607 242.884C13.0176 243.509 12.9313 244.307 12.5429 245.07C12.1618 245.854 11.5722 246.522 10.8531 247.083C10.1124 247.622 9.10568 247.996 8.17086 247.874C7.23603 247.766 6.55289 247.285 6.06391 246.882C5.09313 246.012 4.76953 245.235 4.76953 245.235Z" fill="#A47860"/>
<path d="M9.46722 253.505C9.46722 253.505 8.90631 253.556 7.94272 253.692C7.02947 253.829 5.57689 254.037 4.41195 254.828C3.20387 255.569 2.98093 256.978 3.49149 258.74C3.99486 260.48 5.03037 262.329 6.16654 264.076C6.73463 264.946 7.36744 265.809 8.00025 266.535C8.49642 267.118 9.28742 267.779 9.92022 268.045C10.5818 268.347 11.2002 268.477 11.8546 268.326C12.5161 268.196 13.2281 267.887 13.5804 267.52C14.4577 266.801 14.659 265.212 15.0546 264.299C15.3997 263.328 15.8096 262.889 15.8096 262.889C15.8096 262.889 15.7449 263.465 15.8312 264.414C15.8815 264.896 15.9391 265.464 15.9679 266.197C15.9822 266.909 15.8959 267.866 15.3206 268.844C14.6734 269.807 13.7889 270.49 12.6528 270.943C11.495 271.382 9.99212 271.404 8.74808 270.886C7.47528 270.339 6.51169 269.671 5.59125 268.606C4.82182 267.671 4.18184 266.722 3.56341 265.73C2.36971 263.738 1.37015 261.581 0.996223 259.258C0.83083 258.107 0.83804 256.849 1.31264 255.706C1.77287 254.541 2.80116 253.757 3.68565 253.405C5.54092 252.75 6.97912 253.016 7.96428 253.16C8.92787 253.347 9.46722 253.505 9.46722 253.505Z" fill="#A47860"/>
<path d="M4.22013 262.054C4.22013 262.054 4.65159 263.01 5.6727 264.067C6.14731 264.614 6.82325 265.153 7.53516 265.556C7.8947 265.757 8.27582 265.872 8.63537 265.923L8.77204 265.937C8.77204 265.937 8.88709 265.944 8.76485 265.944L8.85828 265.937L9.23941 265.915C9.52705 265.908 9.57019 265.822 9.74996 265.8C11.1234 265.347 11.67 263.212 11.821 261.809C12.0008 260.35 11.9288 259.292 11.9288 259.292C11.9288 259.292 12.5041 260.206 12.7127 261.802C12.7846 262.593 12.8637 263.564 12.5689 264.599C12.3316 265.621 11.5549 266.821 10.2749 267.303C9.95854 267.382 9.51988 267.49 9.29696 267.476L8.9302 267.497H8.83672C8.65694 267.49 8.71447 267.49 8.64975 267.483L8.41247 267.447C7.77966 267.339 7.24035 267.052 6.79451 266.742C5.91002 266.095 5.37069 265.283 4.9608 264.592C4.55092 263.895 4.38552 263.233 4.27765 262.78C4.17698 262.313 4.22013 262.054 4.22013 262.054Z" fill="#A47860"/>
<path d="M56.9028 242.754C56.8668 242.812 57.6003 243.107 58.5352 244.193C59.017 244.732 59.4844 245.465 59.887 246.422C60.2538 247.385 60.4696 248.565 60.4192 249.838C60.3185 252.376 59.3477 255.108 58.2763 257.783C57.2624 260.473 56.1909 263.342 55.1123 266.211C54.0336 269.081 52.9765 271.95 52.0992 274.639C51.2291 277.336 50.5604 279.86 50.3734 282.067C50.1721 284.275 50.3159 286.188 50.5316 287.518C50.7258 288.863 50.8337 289.632 50.8337 289.632C50.8337 289.632 50.4597 288.942 49.9492 287.669C49.4746 286.396 48.7626 284.498 48.59 282.053C48.2089 277.113 50.0211 270.914 52.1424 265.097C53.2786 262.17 54.3141 259.315 55.6372 256.626C56.8956 254.001 58.0606 251.693 58.5208 249.6C58.9594 247.536 58.6358 245.703 58.003 244.552C57.4349 243.387 56.8596 242.762 56.9028 242.754Z" fill="#A47860"/>
<path d="M49.7103 224.274C49.7103 224.274 49.7966 224.446 49.9045 224.763C50.0124 225.093 50.2496 225.41 50.5445 225.827C51.1269 226.632 52.2343 227.402 53.3849 228.092C54.557 228.754 55.8083 229.372 56.8078 229.739C57.793 230.134 58.5336 230.343 58.5336 230.343C58.5336 230.343 57.8073 230.652 56.6352 230.616C55.4775 230.602 53.9386 230.257 52.5867 229.466C51.9251 229.041 51.2707 228.595 50.7889 228.006C50.2784 227.452 49.9476 226.798 49.7463 226.23C49.5305 225.669 49.5593 225.086 49.5953 224.791C49.6528 224.461 49.7103 224.274 49.7103 224.274Z" fill="#A47860"/>
<path d="M242.769 510.049C242.769 510.049 242.826 510.215 242.934 510.524C243.064 510.819 243.265 511.236 243.617 511.682C244.3 512.602 245.688 513.451 247.544 513.781C249.406 514.098 251.664 513.976 253.929 513.321C255.058 512.99 256.173 512.509 257.223 511.926C257.755 511.631 258.237 511.3 258.733 510.912L260.351 509.661C262.522 508.007 264.78 506.296 267.11 504.987C269.44 503.664 271.827 502.714 273.978 502.326C276.12 501.909 277.954 502.038 279.169 502.276C279.781 502.369 280.241 502.578 280.557 502.65C280.867 502.743 281.032 502.794 281.032 502.794C281.032 502.794 280.32 502.801 279.141 502.894C278.544 502.973 277.839 503.045 277.048 503.247C276.257 503.398 275.394 503.707 274.474 504.052C272.64 504.778 270.641 505.914 268.599 507.338C266.556 508.769 264.471 510.459 262.292 512.178C261.746 512.624 261.178 513.026 260.631 513.429C260.034 513.868 259.373 514.292 258.711 514.637C257.388 515.363 255.971 515.795 254.598 516.075C251.844 516.636 249.14 516.384 247.026 515.565C244.883 514.774 243.466 513.22 243.056 511.991C242.596 510.761 242.819 510.035 242.769 510.049Z" fill="#A47860"/>
<path d="M244.824 525.769C244.824 525.769 245.421 526.071 246.493 526.473C247.564 526.869 249.088 527.444 250.922 527.984C251.828 528.278 252.821 528.544 253.849 528.782C254.949 529.091 256.078 529.35 257.193 529.551C259.487 530.004 261.953 530.227 264.384 530.126C269.266 529.932 274.005 528.005 277.543 526.423C281.117 524.791 283.504 523.698 283.504 523.698C283.504 523.698 281.656 525.611 278.406 527.926C276.774 529.077 274.775 530.313 272.43 531.349C271.244 531.838 269.985 532.277 268.669 532.636C267.339 532.96 265.966 533.175 264.571 533.269C261.781 533.477 259.012 533.082 256.531 532.464C255.258 532.126 254.101 531.752 253.065 531.371C251.943 530.968 250.958 530.45 250.059 529.975C248.297 528.954 246.953 527.94 246.083 527.135C245.198 526.358 244.824 525.769 244.824 525.769Z" fill="#A47860"/>
<path d="M257.242 534.046C257.242 534.046 257.774 534.096 258.695 534.226C259.594 534.355 260.881 534.542 262.427 534.765C265.483 535.16 269.474 535.599 273.379 535.218C277.283 534.93 281.109 533.809 283.993 532.759C286.934 531.673 288.89 530.947 288.89 530.947C288.89 530.947 288.53 531.335 287.854 531.982C287.178 532.629 286.164 533.499 284.827 534.391C282.202 536.225 278.074 538.044 273.652 538.396C271.459 538.576 269.251 538.447 267.252 538.066C265.239 537.735 263.448 537.116 261.959 536.527C260.471 535.915 259.277 535.304 258.493 534.822C257.688 534.341 257.242 534.046 257.242 534.046Z" fill="#A47860"/>
<path d="M254.15 503.635C254.15 503.635 254.322 503.757 254.596 503.994C254.847 504.253 255.286 504.526 255.631 505.116C255.825 505.389 256.02 505.699 256.149 506.08C256.329 506.432 256.429 506.864 256.422 507.345C256.429 507.798 256.329 508.345 256.084 508.776C255.854 509.244 255.516 509.596 255.164 509.941C253.639 511.128 251.878 511.322 250.641 511.343C249.375 511.358 248.562 511.085 248.562 511.085C248.562 511.085 249.332 510.833 250.49 510.459C251.058 510.308 251.683 510.006 252.338 509.754C252.978 509.459 253.625 509.136 254.136 508.719C254.366 508.503 254.603 508.295 254.725 508.043C254.869 507.798 254.984 507.547 255.013 507.266C255.106 506.72 255.02 506.044 254.826 505.54C254.682 505.015 254.473 504.505 254.33 504.181C254.215 503.843 254.15 503.635 254.15 503.635Z" fill="#A47860"/>
<path d="M279.188 539.626C279.188 539.626 279.935 539.051 280.971 538.511C282.014 537.936 283.38 537.368 284.789 536.922C286.206 536.505 287.666 536.21 288.867 536.124C290.046 536.009 290.981 536.117 290.981 536.117C290.981 536.117 290.549 536.958 289.614 537.799C288.694 538.655 287.27 539.504 285.717 539.978C284.164 540.446 282.503 540.532 281.251 540.323C279.986 540.129 279.188 539.626 279.188 539.626Z" fill="#A47860"/>
<path opacity="0.54" d="M275.864 129.957C275.591 139.608 275.929 139.852 279.172 155.327C279.503 156.902 280.855 132.359 282.48 132.992C282.48 132.992 278.899 131.338 275.864 129.957Z" fill="url(#paint23_linear_578_5519)"/>
<path opacity="0.54" d="M309.997 60.9813C308.552 56.2568 310.788 44.7081 293.674 33.5046C272.611 17.0588 245.358 15.3618 240.727 14.9878C226.395 13.8229 185.953 34.2668 179.057 49.4326C175.21 57.9035 188.988 30.1248 198.084 46.9517C198.674 48.0375 219.635 40.5589 232.831 43.6438C267.031 51.6402 255.13 71.9691 257.927 72.8751C267.304 75.9097 266.751 94.6638 263.997 116.172C265.428 115.589 268.16 112.641 270.066 112.037C270.476 108.204 277.285 96.4687 281.65 93.0098C289.647 86.6674 294.889 88.5946 302.612 89.4215C303.554 89.515 313.981 74.0329 309.997 60.9813Z" fill="url(#paint24_linear_578_5519)"/>
<path d="M199.758 46.6707C196.716 47.0302 202.8 36.0353 216.031 31.2245C237.266 23.5014 270.251 36.5674 270.913 50.8055C271.603 65.698 294.276 87.1918 293.248 87.2062C276.428 87.4794 250.073 58.0828 246.643 51.9057C234.232 29.5778 204.447 46.1242 199.758 46.6707Z" fill="url(#paint25_linear_578_5519)"/>
<path d="M177.949 52.1862C178.502 50.8055 186.283 44.0029 192.403 41.8672C204.26 37.7324 212.969 41.4285 227.207 44.2762C247.392 48.3175 308.112 80.4539 308.112 80.4539C308.112 80.4539 319.798 47.4618 315.972 43.6362C312.664 40.3283 304.388 28.7437 279.154 15.9222C257.143 4.74022 250.297 -0.696144 241.1 0.619803C229.515 2.27373 203.872 9.30649 203.872 9.30649C203.872 9.30649 188.038 26.7518 180.041 37.0852C170.47 49.4537 177.266 53.9049 177.949 52.1862Z" fill="url(#paint26_linear_578_5519)"/>
<path opacity="0.36" d="M227.401 71.2142C216.384 70.8043 215.622 73.0551 214.924 74.8025C214.543 75.7589 206.015 93.8226 209.826 100.172C212.925 105.343 240.301 96.1741 239.884 89.9683C238.921 75.6367 229.047 71.2789 227.401 71.2142Z" fill="#CF9E7F"/>
<path d="M218.314 81.8271C211.058 83.5457 209.764 89.9097 209.102 91.2257C208.29 92.8364 211.662 97.5034 215.732 98.2297C220.895 99.1501 229.654 101.861 236.004 91.5996C236.004 91.5996 228.453 79.4325 218.314 81.8271Z" fill="#CF9E7F"/>
<path d="M240.153 74.3908C238.485 72.6793 228.295 69.1486 235.191 69.7023C231.394 67.3292 215.61 69.9755 210.368 70.6659C209.311 70.4861 213.539 75.6276 214.23 75.7642C216.128 76.1454 220.227 75.3112 221.953 75.3544C226.037 75.455 230.639 75.7642 235.055 77.562C237.399 78.5184 239.937 76.8789 239.189 76.318C239.096 76.2461 236.263 74.8438 236.155 74.8007C237.348 74.175 240.52 74.7719 240.153 74.3908Z" fill="#3F3C3C"/>
<path opacity="0.47" d="M302.751 95.4831C302.578 95.0301 298.436 89.9245 293.445 92.0387C291.576 92.8297 290.483 92.729 281.242 100.315C280.085 101.265 278.488 105.004 279.171 104.45C292.367 93.894 293.855 95.9002 294.682 95.6917C303.16 99.8265 299.644 101.689 299.644 101.689C294.366 92.2257 271.93 111.203 279.79 112.238C284.37 112.842 276.885 119.803 276.856 119.875C276.475 120.572 276.539 119.292 276.856 119.875C277.712 123.571 286.405 124.758 287.858 124.305C294.085 122.363 295.61 118.739 299.443 113.482C299.759 113.044 306.468 105.004 302.751 95.4831Z" fill="#CF9E7F"/>
<path d="M295.581 108.312C293.791 102.523 296.933 102.775 296.545 101.696C295.423 98.5823 289.081 100.581 283.608 103.695C280.372 105.536 280.387 107.118 278.762 109.549C278.999 116.222 298.12 116.517 295.581 108.312Z" fill="#A47860"/>
<path opacity="0.66" d="M253.929 139.196C236.139 152.845 228.279 151.608 225.388 157.814C215.457 168.981 196.43 169.398 193.949 168.154C188.801 165.58 236.146 202.074 241.525 188.009C242.179 186.268 255.957 137.636 253.929 139.196Z" fill="url(#paint27_linear_578_5519)"/>
<path d="M210.095 92.3326C209.728 90.8585 215.589 86.9466 216.114 86.8028C222.226 85.1705 233.437 92.0306 233.437 93.3106C233.437 94.1735 228.719 97.8913 224.836 98.2221C216.236 98.9627 210.828 95.2666 210.095 92.3326Z" fill="white"/>
<path d="M293.779 108.168C294.16 101.862 281.921 99.6182 279.023 109.686C278.052 113.051 282.884 111.476 284.402 115.201C284.402 115.201 266.223 135.408 262.203 139.334C255.659 145.712 224.278 167.415 214.901 170.909C201.137 176.037 184.26 182.25 170.339 175.289C154.324 167.285 161.22 147.05 168.016 134.926L167.189 129.547C165.686 132.222 160.832 141.477 159.538 144.777C157.704 145.461 150.945 159.088 150.499 163.812C149.564 173.8 153.368 179.797 149.463 185.737C141.539 197.804 147.184 206.375 141.539 233.931C136.85 256.82 115.73 225.719 102.657 237.793C95.4878 244.408 91.6406 244.833 72.6133 244.279C72.6133 244.279 73.4115 248.277 74.411 248.471C77.4097 249.068 88.5916 248.824 96.588 246.336C105.742 243.495 106.238 236.959 118.096 239.439C122.727 240.41 134.297 248.529 137.95 245.509C152.289 233.651 146.788 201.442 149.535 195.316C152.289 189.16 157.941 189.635 164.341 188.139C183.196 183.745 202.669 180.315 220.402 172.254C236.28 165.042 250.791 155.061 264.116 143.879C268.84 139.916 281.684 124.823 283.625 122.435C285.171 120.573 293.513 112.569 293.779 108.168ZM153.684 187.873C155.065 183.184 154.331 177.978 153.986 171.88C153.62 165.38 154.641 159.21 156.913 153.378C154.9 162.82 156.072 172.34 165.341 177.41C170.856 180.423 176.99 181.624 183.275 181.66C178.968 182.695 159.279 185.816 153.684 187.873Z" fill="url(#paint28_linear_578_5519)"/>
<path d="M307.576 81.2304C294.582 72.7954 238.039 44.01 212.058 42.3345C197.597 41.3925 184.035 45.6855 177.261 51.4454L175.133 48.5187C182.575 42.1907 196.907 38.1637 212.26 39.1489C238.83 40.8603 296.272 70.293 309.439 78.8359L307.576 81.2304Z" fill="#D1ECF5"/>
<path d="M220.026 15.5122C216.588 17.2668 213.216 19.0861 209.965 21.114C206.729 23.1634 203.494 25.1912 200.416 27.4492C197.316 29.6784 194.375 32.0946 191.506 34.5683C188.644 37.0492 185.969 39.7314 183.56 42.5646L181.41 40.3714L184.819 37.8114L188.421 35.5319C189.665 34.8415 190.938 34.2087 192.204 33.5687L196.13 31.922L200.157 30.5701L204.263 29.5274L208.427 28.7796L212.612 28.2834C215.409 28.0605 218.213 28.0173 221.004 28.0533C223.794 28.1324 226.577 28.3121 229.345 28.5854C232.114 28.8587 234.853 29.3404 237.579 29.8294C240.304 30.3472 243.001 30.9368 245.676 31.6487L237.442 30.8002C234.695 30.5629 231.955 30.4694 229.216 30.3184C226.476 30.2249 223.743 30.2177 221.018 30.3112L216.941 30.5701L212.892 31.0087L208.88 31.62L204.925 32.4613L201.034 33.5328L197.23 34.8487L193.541 36.4451L189.982 38.3004L186.573 40.4073L183.344 42.7804L172.551 50.712L181.194 40.5943C183.776 37.5741 186.703 34.9494 189.708 32.4613C192.721 29.9732 195.943 27.7872 199.208 25.6946C202.494 23.638 205.823 21.6461 209.325 19.985C212.82 18.2879 216.373 16.7203 220.026 15.5122Z" fill="#D1ECF5"/>
<path d="M227.462 92.5927C227.462 94.4984 226.513 96.9217 225.499 98.2161C224.959 98.8992 220.709 98.9568 217.905 98.0795C216.754 97.7199 215.359 95.5698 215.359 92.5927C215.359 88.6233 217.315 85.9267 222.061 86.7896C225.362 87.3865 227.462 88.6233 227.462 92.5927Z" fill="url(#paint29_radial_578_5519)"/>
<path opacity="0.53" d="M223.196 97.7547C224.789 97.7547 226.08 96.2866 226.08 94.4756C226.08 92.6646 224.789 91.1965 223.196 91.1965C221.604 91.1965 220.312 92.6646 220.312 94.4756C220.312 96.2866 221.604 97.7547 223.196 97.7547Z" fill="url(#paint30_radial_578_5519)"/>
<path d="M221.489 94.7777C222.657 94.7777 223.603 93.6412 223.603 92.2393C223.603 90.8374 222.657 89.7009 221.489 89.7009C220.322 89.7009 219.375 90.8374 219.375 92.2393C219.375 93.6412 220.322 94.7777 221.489 94.7777Z" fill="#0C0D0D"/>
<path d="M226.683 92.3486C226.683 93.1396 226.058 93.7796 225.281 93.7796C224.505 93.7796 223.879 93.1396 223.879 92.3486C223.879 91.5576 224.512 90.9248 225.281 90.9248C226.051 90.9248 226.683 91.5576 226.683 92.3486Z" fill="white"/>
<path d="M233.682 94.5486C233.387 94.5486 227.828 86.3581 217.358 87.1491C212.828 87.4943 210.268 92.8587 209.384 92.7365C208.513 92.5999 208.391 92.5927 208.528 91.7297C209.031 88.4435 213.547 85.301 216.237 84.8696C222.924 83.7837 228.749 87.7172 233.006 90.5792C233.552 90.9459 234.07 91.2983 234.559 91.6147C235.3 92.0965 235.508 93.0817 235.027 93.8223C234.71 94.2897 234.2 94.5486 233.682 94.5486Z" fill="#474748"/>
<path d="M209.69 95.4839C209.69 95.4839 209.877 95.75 210.158 96.2317C210.431 96.7423 210.877 97.2888 211.474 97.9432C212.617 99.2664 214.458 100.611 216.493 101.754C218.521 102.905 220.707 103.926 222.361 104.753C223.195 105.192 223.885 105.551 224.367 105.803C224.856 106.062 225.129 106.242 225.129 106.242C225.129 106.242 223.842 106.313 221.951 106.062C220.067 105.803 217.586 105.113 215.306 103.833C214.192 103.149 213.099 102.402 212.243 101.488C211.38 100.589 210.69 99.6115 210.316 98.6767C209.884 97.7922 209.762 96.8718 209.712 96.3684C209.676 95.8147 209.69 95.4839 209.69 95.4839Z" fill="#CF9E7F"/>
<path d="M210.504 72.3201C210.504 72.3201 210.828 72.6508 211.345 73.2477C211.626 73.5281 212.021 73.7439 212.374 74.0459C212.805 74.3048 213.301 74.5924 213.841 74.8872C216.07 75.9946 219.313 77.0373 222.585 78.4755C224.196 79.2234 225.828 80.036 227.252 81.0211C228.676 81.9991 229.941 83.0705 230.797 84.1995C231.279 84.7101 231.595 85.2926 231.875 85.7887C232.185 86.2633 232.372 86.7236 232.487 87.1191C232.746 87.8885 232.846 88.32 232.846 88.32C232.846 88.32 232.523 88.0108 231.955 87.4642C231.444 86.9105 230.574 86.249 229.546 85.5442C227.475 84.1348 224.469 82.7613 221.276 81.3879C219.716 80.6472 218.09 79.9425 216.623 79.1011C215.142 78.2885 213.797 77.3537 212.769 76.3686C211.748 75.4122 211.065 74.2904 210.784 73.5425C210.59 72.7731 210.504 72.3201 210.504 72.3201Z" fill="#CF9E7F"/>
<path d="M210.93 71.5592C210.93 71.5592 211.376 71.6958 212.131 71.9763C212.505 72.041 212.958 72.1201 213.475 72.2063C214.029 72.1992 214.604 72.2854 215.266 72.2495C217.891 72.2207 221.414 71.667 225.06 71.3866C226.886 71.2859 228.727 71.1924 230.475 71.3147C232.215 71.3866 233.847 71.6598 235.199 72.0194C235.882 72.1488 236.486 72.4293 237.019 72.6234C237.551 72.8104 238.004 73.0261 238.363 73.2203C239.082 73.6014 239.471 73.8387 239.471 73.8387C239.471 73.8387 238.996 73.7884 238.219 73.6589C237.831 73.5798 237.364 73.5007 236.81 73.4863C236.256 73.4648 235.659 73.3785 234.991 73.3785C232.33 73.2634 228.821 73.4864 225.233 73.7812C221.659 74.0401 217.934 74.2198 215.122 73.623C213.727 73.3785 212.605 72.796 211.893 72.3933C211.275 71.8756 210.93 71.5592 210.93 71.5592Z" fill="#665C5D"/>
<path opacity="0.36" d="M173.953 74.5287C178.778 71.3575 188.881 70.2357 189.579 71.9831C189.96 72.9395 195.569 88.8387 189.91 96.2814C178.383 111.462 157.277 103.76 174.09 88.4576C181.813 81.4177 172.58 75.4348 173.953 74.5287Z" fill="#CF9E7F"/>
<path d="M170.993 70.321C174.509 66.1143 187.856 69.4222 192.71 70.1125C193.688 69.9327 190.243 73.2837 189.603 73.4204C187.849 73.8015 184.915 74.3408 183.318 74.3839C179.536 74.4846 175.272 74.7938 171.18 76.5916C169.016 77.548 169.936 72.1763 170.993 70.321Z" fill="#3F3C3C"/>
<path d="M182.657 79.627C189.827 80.3174 192.207 87.7744 192.207 89.2485C192.207 90.6292 188.985 96.195 184.908 96.9285C179.752 97.8489 169.145 100.179 174.661 87.9038C174.661 87.9038 174.416 78.836 182.657 79.627Z" fill="#CF9E7F"/>
<path d="M190.861 89.6583C191.227 88.1841 186.302 84.2722 185.784 84.1212C173.696 80.461 174.386 88.5508 174.386 89.8308C174.386 90.6937 175.911 94.4115 179.693 95.3463C185.223 96.7126 190.127 92.5922 190.861 89.6583Z" fill="white"/>
<path d="M177.02 89.3996C177.02 91.3052 178.321 93.8508 179.162 95.1452C179.608 95.8283 183.132 95.8858 185.462 95.0085C186.411 94.649 187.569 92.4989 187.569 89.5218C187.569 85.5524 183.873 83.6108 180.881 83.7475C177.847 83.8841 177.02 87.4652 177.02 89.3996Z" fill="url(#paint31_radial_578_5519)"/>
<path opacity="0.53" d="M181.352 91.859C181.352 93.4769 182.366 94.7929 183.61 94.7929C184.854 94.7929 185.868 93.4769 185.868 91.859C185.868 90.241 184.854 88.925 183.61 88.925C182.366 88.925 181.352 90.241 181.352 91.859Z" fill="url(#paint32_radial_578_5519)"/>
<path d="M181.368 92.233C182.385 92.233 183.209 91.1899 183.209 89.9031C183.209 88.6164 182.385 87.5732 181.368 87.5732C180.352 87.5732 179.527 88.6164 179.527 89.9031C179.527 91.1899 180.352 92.233 181.368 92.233Z" fill="#0C0D0D"/>
<path d="M184.036 89.1193C183.92 89.6514 184.438 90.2195 185.193 90.3849C185.948 90.5503 186.66 90.2555 186.775 89.7233C186.89 89.1912 186.373 88.6231 185.618 88.4577C184.863 88.2852 184.158 88.58 184.036 89.1193Z" fill="white"/>
<path d="M191.83 91.3556C191.471 91.3556 191.111 91.219 190.816 90.9457L191.24 90.1404C189.234 88.2635 186.66 85.3296 183.359 84.3588C181.561 83.8267 179.368 83.762 177.175 84.9557C175.873 85.6676 172.429 89.637 172.53 88.7597C172.767 86.7966 173.975 84.9701 175.866 83.726C178.16 82.2159 181.13 81.7988 183.805 82.5898C187.825 83.7835 190.744 86.5089 192.88 88.508C193.527 89.1121 193.613 90.1691 193.009 90.8163C192.686 91.1687 192.254 91.3556 191.83 91.3556Z" fill="#474748"/>
<path d="M191.364 91.2124C191.364 91.2124 191.371 91.5576 191.321 92.1472C191.249 92.6937 191.112 93.6501 190.681 94.5921C189.904 96.5697 188.056 98.7845 185.834 100.424C183.598 102.049 181.045 103.149 179.039 103.588C177.025 104.041 175.645 103.933 175.645 103.933C175.645 103.933 175.939 103.746 176.464 103.48C176.989 103.228 177.694 102.783 178.542 102.301C180.232 101.33 182.397 99.9782 184.425 98.4897C186.453 97.0083 188.322 95.3544 189.509 93.8802C190.12 93.1396 190.595 92.5427 190.882 92.0034C191.17 91.5 191.364 91.2124 191.364 91.2124Z" fill="#CF9E7F"/>
<path d="M194 69.4956C194 69.4956 193.95 69.8911 193.828 70.5599C193.799 70.8906 193.569 71.2861 193.339 71.7608C193.109 72.2713 192.742 72.6596 192.347 73.163C191.915 73.5801 191.433 74.105 190.858 74.479C190.297 74.896 189.693 75.3059 189.046 75.6439C187.773 76.3702 186.364 76.9454 185.04 77.5495C182.329 78.6569 179.892 79.8218 178.159 81.0803C177.332 81.7274 176.584 82.2883 176.138 82.7701C175.656 83.2232 175.34 83.4892 175.34 83.4892C175.34 83.4892 175.405 83.1081 175.592 82.4393C175.743 81.749 176.167 80.8358 176.828 79.8147C177.195 79.3472 177.562 78.7504 178.08 78.2973C178.576 77.8084 179.108 77.2762 179.741 76.8664C180.949 75.9315 182.38 75.2484 183.775 74.6156C185.206 74.0403 186.587 73.5297 187.874 73.0911C189.168 72.6524 190.247 72.185 191.203 71.7392C191.599 71.4587 192.102 71.2574 192.39 70.9985C192.684 70.7253 193.058 70.567 193.26 70.2722C193.72 69.7688 194 69.4956 194 69.4956Z" fill="#CF9E7F"/>
<path d="M190.871 71.5593C190.871 71.5593 189.562 72.0987 187.542 72.336C185.528 72.6092 182.911 72.6236 180.394 72.5948C177.877 72.5589 175.454 72.5589 173.606 72.8106C172.678 72.9184 171.88 73.0766 171.319 73.2132C170.758 73.3571 170.398 73.4218 170.398 73.4218C170.398 73.4218 170.593 73.1413 170.995 72.6667C171.405 72.2137 172.067 71.5881 173.009 71.0847C174.864 69.9558 177.712 69.3805 180.43 69.4092C183.155 69.4596 185.758 69.9845 187.664 70.5166C189.562 71.0344 190.871 71.5593 190.871 71.5593Z" fill="#665C5D"/>
<path opacity="0.36" d="M201.004 114.474C202.787 114.97 204.462 115.553 205.131 114.999C218.988 103.414 200.788 106.729 200.788 106.729C200.169 96.7986 208.921 83.5887 210.093 78.5982C211.747 71.5654 197.099 72.8742 194.992 71.5654C196.437 78.8067 194.417 103.853 180.517 104.248C180.517 104.248 175.411 111.698 184.033 116.66C188.002 117.559 194.237 117.559 198.508 113.971C199.307 114.028 200.169 114.244 201.004 114.474Z" fill="url(#paint33_linear_578_5519)"/>
<path opacity="0.25" d="M227.326 127.748C227.599 125.268 225.946 119.889 222.364 118.371C210.478 113.338 196.995 115.754 177.414 119.198C176.407 119.378 169.691 122.233 167.346 123.678C166.57 124.16 167.972 128.374 171.208 127.403C172.589 126.993 169.964 153.463 181.757 163.186C187.503 167.924 194.543 169.348 201.41 167.119C212.779 163.416 219.948 146.984 227.326 127.748ZM196.031 149.954C193.464 149.573 189.674 145.711 187.963 147.682C175.005 162.574 172.855 127.921 172.589 127.928C172.625 127.899 172.409 125.584 172.452 125.555C173.602 124.735 183.749 125.354 192.306 124.728C203.61 123.901 219.265 120.176 217.122 129.97C216.885 131.071 210.068 152.025 196.031 149.954Z" fill="url(#paint34_linear_578_5519)"/>
<path d="M199.007 125.204C192.456 125.6 192.528 130.446 188.53 129.547C186.674 129.13 185.43 124.787 181.087 126.649C180.303 126.987 178.11 127.369 177.98 127.822C178.513 128.239 184.078 129.929 185.567 130.302C190.176 131.467 191.866 131.079 198.252 130.374C203.214 129.821 213.971 126.649 215.834 126.031C215.985 125.973 199.906 125.147 199.007 125.204Z" fill="url(#paint35_linear_578_5519)"/>
<path opacity="0.45" d="M200.153 135.198C197.348 135.932 190.517 136.924 187.878 135.752C186.677 135.22 190.984 139.527 191.876 139.477C196.701 139.197 201.131 134.939 200.153 135.198Z" fill="url(#paint36_linear_578_5519)"/>
<path d="M194.995 71.5592C194.944 70.459 191.011 72.832 191.061 74.0401C191.428 81.9286 191.68 99.6903 181.958 103.617C180.174 104.336 181.354 105.932 184.438 104.444C196.109 98.8274 195.541 83.4243 194.995 71.5592Z" fill="url(#paint37_linear_578_5519)"/>
<path d="M199.544 107.341C198.631 107.614 197.883 109.254 198.408 109.096C200.285 108.542 207.692 108.456 208.13 107.542C208.583 106.615 201.428 106.787 199.544 107.341Z" fill="url(#paint38_linear_578_5519)"/>
<path d="M184.459 105.148C185.972 105.148 187.198 104.836 187.198 104.45C187.198 104.065 185.972 103.753 184.459 103.753C182.945 103.753 181.719 104.065 181.719 104.45C181.719 104.836 182.945 105.148 184.459 105.148Z" fill="#F6F5F5"/>
<path opacity="0.48" d="M208.15 128.857C205.813 128.928 190.345 132.157 188.159 131.337C187.282 131.007 182.917 130.237 180.299 129.266C180.026 129.166 182.917 133.955 185.398 134.782C188.792 135.911 191.56 136.213 194.084 136.026C201.326 135.487 209.25 128.821 208.15 128.857Z" fill="url(#paint39_linear_578_5519)"/>
<g opacity="0.64">
<path d="M216.285 118.372C216.285 118.372 217.551 118.315 219.363 118.645C220.276 118.804 221.369 119.134 222.462 119.774C223.002 120.091 223.57 120.479 224.037 120.968C224.533 121.443 224.936 121.996 225.346 122.557C226.007 123.744 226.511 124.988 226.691 126.182C226.849 126.764 226.834 127.339 226.877 127.879C226.935 128.418 226.877 128.921 226.849 129.389C226.719 131.244 226.216 132.438 226.216 132.438C226.216 132.438 226.058 132.15 225.835 131.654C225.619 131.158 225.353 130.453 225.029 129.64C224.72 128.821 224.368 127.893 223.987 126.958C223.598 126.016 223.16 125.089 222.642 124.247C221.642 122.593 220.111 121.349 218.644 120.321C217.191 119.321 216.285 118.372 216.285 118.372Z" fill="#A47860"/>
</g>
<g opacity="0.73">
<path d="M174.389 120.306C174.432 120.306 173.921 121.126 173.339 122.032C172.764 122.931 172.102 123.981 171.757 124.937C171.376 125.887 171.174 127.102 170.951 128.267C170.844 128.828 170.685 129.345 170.542 129.698C170.383 130.057 170.254 130.237 170.254 130.237C170.254 130.237 170.132 130.065 169.909 129.763C169.7 129.461 169.405 129.072 169.139 128.533C168.859 128.001 168.586 127.325 168.485 126.498C168.449 126.095 168.384 125.642 168.463 125.189C168.514 124.736 168.629 124.276 168.773 123.816C169.161 122.953 169.671 122.126 170.347 121.615C170.987 121.061 171.656 120.724 172.296 120.537C173.511 120.127 174.374 120.35 174.389 120.306Z" fill="#A47860"/>
</g>
<path d="M187.907 159.469C187.907 159.469 188.037 159.742 188.209 160.224C188.36 160.706 188.597 161.425 188.928 162.043C189.043 162.374 189.302 162.683 189.482 163.021C189.64 163.381 190 163.589 190.194 163.899C190.503 164.129 190.748 164.388 191.114 164.567C191.424 164.79 191.826 164.941 192.222 165.092C193.854 165.696 195.939 165.97 197.565 166.308C198.377 166.466 199.089 166.667 199.571 166.847C200.067 167.034 200.319 167.199 200.319 167.199C200.319 167.199 200.046 167.3 199.571 167.487C199.103 167.667 198.449 167.933 197.622 168.148C195.997 168.594 193.61 168.954 191.1 168.084C190.489 167.811 189.885 167.523 189.338 167.084C188.756 166.739 188.367 166.099 187.972 165.603C187.67 165.028 187.353 164.467 187.282 163.899C187.159 163.345 187.066 162.827 187.131 162.338C187.138 161.339 187.382 160.691 187.584 160.217C187.771 159.735 187.907 159.469 187.907 159.469Z" fill="#A47860"/>
<path opacity="0.87" d="M292.709 108.858C292.709 110.606 285.935 119.278 284.576 118.372C284.166 118.099 289.818 113.41 287.747 109.685C284.547 103.925 289.114 103.99 290.501 104.86C292.709 106.241 292.709 107.111 292.709 108.858Z" fill="#718C95"/>
<path opacity="0.69" d="M292.453 108.584C292.453 109.728 290.346 111.928 290.835 111.446C291.936 110.346 290.325 106.104 291.008 106.104C291.691 106.104 292.453 107.441 292.453 108.584Z" fill="#DBF0F6"/>
<path d="M243.967 156.93C243.838 156.743 242.047 157.721 239.955 159.123C237.869 160.525 236.28 161.813 236.41 162C236.539 162.186 238.33 161.208 240.422 159.806C242.508 158.411 244.097 157.124 243.967 156.93Z" fill="#DBF0F6"/>
<path d="M180.305 104.45C180.341 104.443 179.953 104.932 179.651 105.766C179.342 106.607 179.22 107.858 179.73 109.145C180.233 110.425 181.291 111.77 182.678 112.727C183.34 113.129 184.44 113.82 185.152 114.114C185.936 114.517 186.849 114.762 187.698 114.898C189.409 115.2 191.243 114.683 193.127 114.114C194.996 113.51 196.881 112.906 198.556 112.669C200.224 112.403 201.634 112.417 202.597 112.511C203.568 112.626 204.1 112.727 204.1 112.727C204.1 112.727 203.575 112.878 202.655 113.136C201.749 113.395 200.49 113.82 199.052 114.409C197.607 115.006 196.01 115.855 194.126 116.718C193.163 117.113 192.163 117.588 190.977 117.832C189.826 118.127 188.525 118.185 187.259 118.048C185.993 117.832 184.821 117.444 183.743 116.854C182.527 116.257 181.938 115.711 180.945 114.97C179.155 113.446 178.119 111.411 177.911 109.555C177.652 107.671 178.421 106.14 179.097 105.428C179.809 104.658 180.32 104.493 180.305 104.45Z" fill="#A47860"/>
<path d="M174.328 125.34C174.328 125.34 176.701 126.958 180.627 128.583C181.598 128.965 182.691 129.439 183.784 129.633C185 129.806 186.287 129.986 187.581 130.065C190.199 130.273 193.003 130.273 195.786 130.007C201.359 129.482 206.817 127.893 210.909 126.721C214.993 125.491 217.754 124.722 217.754 124.722C217.754 124.722 215.202 126.016 211.218 127.606C207.248 129.188 201.74 131.093 195.93 131.575C193.039 131.834 190.119 131.733 187.43 131.338C186.071 131.136 184.813 130.856 183.619 130.583C182.317 130.252 181.289 129.741 180.318 129.252C178.405 128.246 176.895 127.289 175.867 126.57C174.839 125.837 174.328 125.34 174.328 125.34Z" fill="#805948"/>
<defs>
<linearGradient id="paint0_linear_578_5519" x1="142.796" y1="684.417" x2="442.61" y2="677.612" gradientUnits="userSpaceOnUse">
<stop stop-color="#8ED3D6"/>
<stop offset="0.1531" stop-color="#548C92"/>
<stop offset="0.587" stop-color="#7BCDD1"/>
<stop offset="0.8081" stop-color="#80CED2"/>
<stop offset="0.8757" stop-color="#7BCDD1"/>
<stop offset="0.9156" stop-color="#91D4D8"/>
<stop offset="0.9739" stop-color="#B9E1E3"/>
</linearGradient>
<linearGradient id="paint1_linear_578_5519" x1="168.067" y1="736.348" x2="348.9" y2="722.582" gradientUnits="userSpaceOnUse">
<stop stop-color="#548C92"/>
<stop offset="0.0291" stop-color="#51888E"/>
<stop offset="0.255" stop-color="#3F6F74"/>
<stop offset="0.4878" stop-color="#315C62"/>
<stop offset="0.7297" stop-color="#2A5257"/>
<stop offset="0.9949" stop-color="#274E53"/>
</linearGradient>
<linearGradient id="paint2_linear_578_5519" x1="82.4922" y1="990.419" x2="238.91" y2="990.419" gradientUnits="userSpaceOnUse">
<stop stop-color="#8ED3D6"/>
<stop offset="0.1075" stop-color="#C0D0CF"/>
<stop offset="0.9739" stop-color="#B9E1E3"/>
</linearGradient>
<linearGradient id="paint3_linear_578_5519" x1="236.769" y1="1030.66" x2="330.664" y2="1030.66" gradientUnits="userSpaceOnUse">
<stop stop-color="#8ED3D6"/>
<stop offset="0.1075" stop-color="#C0D0CF"/>
<stop offset="0.9739" stop-color="#B9E1E3"/>
</linearGradient>
<linearGradient id="paint4_linear_578_5519" x1="236.173" y1="988.509" x2="330.223" y2="988.509" gradientUnits="userSpaceOnUse">
<stop stop-color="#8ED3D6"/>
<stop offset="0.1075" stop-color="#C0D0CF"/>
<stop offset="0.9739" stop-color="#B9E1E3"/>
</linearGradient>
<linearGradient id="paint5_linear_578_5519" x1="307.617" y1="110.827" x2="168.232" y2="107.01" gradientUnits="userSpaceOnUse">
<stop stop-color="#F0D6C1"/>
<stop offset="0.1888" stop-color="#F1E1D6"/>
<stop offset="0.3467" stop-color="#F0D0B3"/>
<stop offset="0.6592" stop-color="#F0D4BC"/>
<stop offset="1" stop-color="#E1B995"/>
</linearGradient>
<linearGradient id="paint6_linear_578_5519" x1="52.974" y1="325.961" x2="455.757" y2="401.516" gradientUnits="userSpaceOnUse">
<stop stop-color="#8ED3D6"/>
<stop offset="0.1531" stop-color="#548C92"/>
<stop offset="0.587" stop-color="#7BCDD1"/>
<stop offset="0.8081" stop-color="#80CED2"/>
<stop offset="0.8757" stop-color="#7BCDD1"/>
<stop offset="0.9156" stop-color="#91D4D8"/>
<stop offset="0.9739" stop-color="#B9E1E3"/>
</linearGradient>
<linearGradient id="paint7_linear_578_5519" x1="118.483" y1="451.415" x2="135.432" y2="260.424" gradientUnits="userSpaceOnUse">
<stop stop-color="#548C92"/>
<stop offset="0.0295" stop-color="#52898F"/>
<stop offset="0.6024" stop-color="#274E53"/>
<stop offset="1" stop-color="#4D8086"/>
</linearGradient>
<linearGradient id="paint8_linear_578_5519" x1="219.747" y1="478.583" x2="246.362" y2="178.678" gradientUnits="userSpaceOnUse">
<stop stop-color="#548C92"/>
<stop offset="0.0291" stop-color="#51888E"/>
<stop offset="0.255" stop-color="#3F6F74"/>
<stop offset="0.4878" stop-color="#315C62"/>
<stop offset="0.7297" stop-color="#2A5257"/>
<stop offset="0.9949" stop-color="#274E53"/>
</linearGradient>
<linearGradient id="paint9_linear_578_5519" x1="300.488" y1="347.022" x2="442.112" y2="373.588" gradientUnits="userSpaceOnUse">
<stop offset="0.1531" stop-color="#548C92"/>
<stop offset="0.9594" stop-color="#65B1B6"/>
</linearGradient>
<linearGradient id="paint10_linear_578_5519" x1="327.398" y1="485.423" x2="327.166" y2="436.329" gradientUnits="userSpaceOnUse">
<stop offset="0.1531" stop-color="#548C92"/>
<stop offset="0.9594" stop-color="#65B1B6"/>
</linearGradient>
<linearGradient id="paint11_linear_578_5519" x1="77.6628" y1="322.299" x2="64.3533" y2="300.067" gradientUnits="userSpaceOnUse">
<stop offset="0.1531" stop-color="#397D89"/>
<stop offset="0.9594" stop-color="#65B1B6"/>
</linearGradient>
<linearGradient id="paint12_linear_578_5519" x1="231.765" y1="312.057" x2="303.223" y2="312.791" gradientUnits="userSpaceOnUse">
<stop stop-color="#8ED3D6"/>
<stop offset="0.2148" stop-color="#7BCDD1"/>
<stop offset="0.5714" stop-color="#66AAAF"/>
<stop offset="0.9095" stop-color="#548C92"/>
</linearGradient>
<linearGradient id="paint13_linear_578_5519" x1="233.47" y1="337.476" x2="247.128" y2="202.664" gradientUnits="userSpaceOnUse">
<stop offset="0.1075" stop-color="white"/>
<stop offset="0.2688" stop-color="#C7C7C4"/>
<stop offset="0.8299" stop-color="#3D4D5E"/>
</linearGradient>
<linearGradient id="paint14_linear_578_5519" x1="207.977" y1="312.629" x2="220.938" y2="315.061" gradientUnits="userSpaceOnUse">
<stop stop-color="#8ED3D6"/>
<stop offset="0.1531" stop-color="#548C92"/>
<stop offset="0.587" stop-color="#7BCDD1"/>
<stop offset="0.8081" stop-color="#80CED2"/>
<stop offset="0.8757" stop-color="#7BCDD1"/>
<stop offset="0.9156" stop-color="#91D4D8"/>
<stop offset="0.9739" stop-color="#B9E1E3"/>
</linearGradient>
<linearGradient id="paint15_linear_578_5519" x1="221.553" y1="244.451" x2="222.935" y2="226.847" gradientUnits="userSpaceOnUse">
<stop offset="0.0204" stop-color="#6D94A4"/>
<stop offset="0.5153" stop-color="#F0F5E6"/>
<stop offset="0.8361" stop-color="#B9E1E3"/>
</linearGradient>
<linearGradient id="paint16_linear_578_5519" x1="204.084" y1="298.464" x2="205.466" y2="280.858" gradientUnits="userSpaceOnUse">
<stop offset="0.0204" stop-color="#6D94A4"/>
<stop offset="0.5153" stop-color="#F0F5E6"/>
<stop offset="0.8361" stop-color="#B9E1E3"/>
</linearGradient>
<linearGradient id="paint17_linear_578_5519" x1="189.727" y1="367.526" x2="191.109" y2="349.922" gradientUnits="userSpaceOnUse">
<stop offset="0.0204" stop-color="#6D94A4"/>
<stop offset="0.5153" stop-color="#F0F5E6"/>
<stop offset="0.8361" stop-color="#B9E1E3"/>
</linearGradient>
<linearGradient id="paint18_linear_578_5519" x1="185.181" y1="443.229" x2="186.564" y2="425.625" gradientUnits="userSpaceOnUse">
<stop offset="0.0204" stop-color="#6D94A4"/>
<stop offset="0.5153" stop-color="#F0F5E6"/>
<stop offset="0.8361" stop-color="#B9E1E3"/>
</linearGradient>
<linearGradient id="paint19_linear_578_5519" x1="313.523" y1="441.293" x2="333.866" y2="428.386" gradientUnits="userSpaceOnUse">
<stop offset="0.1531" stop-color="#548C92"/>
<stop offset="0.9594" stop-color="#65B1B6"/>
</linearGradient>
<linearGradient id="paint20_linear_578_5519" x1="17.0529" y1="261.689" x2="59.9722" y2="261.689" gradientUnits="userSpaceOnUse">
<stop offset="0.1429" stop-color="#CF9E7F"/>
<stop offset="0.9235" stop-color="#BE8972"/>
</linearGradient>
<linearGradient id="paint21_linear_578_5519" x1="38.3253" y1="229.913" x2="49.4267" y2="263.214" gradientUnits="userSpaceOnUse">
<stop offset="0.1828" stop-color="#384E5E"/>
<stop offset="0.2974" stop-color="#3A505F"/>
<stop offset="0.3398" stop-color="#415564"/>
<stop offset="0.3703" stop-color="#4D5F6D"/>
<stop offset="0.3951" stop-color="#5E6E79"/>
<stop offset="0.4164" stop-color="#748189"/>
<stop offset="0.4353" stop-color="#8F989C"/>
<stop offset="0.452" stop-color="#AFB3B3"/>
<stop offset="0.4624" stop-color="#C7C7C4"/>
<stop offset="0.8925" stop-color="#394F5F"/>
</linearGradient>
<linearGradient id="paint22_linear_578_5519" x1="271.114" y1="505.941" x2="326.965" y2="505.941" gradientUnits="userSpaceOnUse">
<stop offset="0.1429" stop-color="#CF9E7F"/>
<stop offset="0.9235" stop-color="#BE8972"/>
</linearGradient>
<linearGradient id="paint23_linear_578_5519" x1="218.81" y1="142.68" x2="299.452" y2="142.68" gradientUnits="userSpaceOnUse">
<stop offset="0.1613" stop-color="#5C5C5C"/>
<stop offset="0.3974" stop-color="#91847B"/>
<stop offset="0.5323" stop-color="#AA978A"/>
<stop offset="0.5776" stop-color="#97897F"/>
<stop offset="0.655" stop-color="#7D7570"/>
<stop offset="0.7348" stop-color="#6B6765"/>
<stop offset="0.8177" stop-color="#605F5E"/>
<stop offset="0.9086" stop-color="#5C5C5C"/>
<stop offset="1" stop-color="#E1B995"/>
</linearGradient>
<linearGradient id="paint24_linear_578_5519" x1="178.393" y1="65.554" x2="310.902" y2="65.554" gradientUnits="userSpaceOnUse">
<stop offset="0.1613" stop-color="#5C5C5C"/>
<stop offset="0.3974" stop-color="#91847B"/>
<stop offset="0.5323" stop-color="#AA978A"/>
<stop offset="0.5776" stop-color="#97897F"/>
<stop offset="0.655" stop-color="#7D7570"/>
<stop offset="0.7348" stop-color="#6B6765"/>
<stop offset="0.8177" stop-color="#605F5E"/>
<stop offset="0.9086" stop-color="#5C5C5C"/>
<stop offset="1" stop-color="#E1B995"/>
</linearGradient>
<linearGradient id="paint25_linear_578_5519" x1="198.989" y1="58.0727" x2="293.282" y2="58.0727" gradientUnits="userSpaceOnUse">
<stop offset="0.1613" stop-color="#5C5C5C"/>
<stop offset="0.3974" stop-color="#91847B"/>
<stop offset="0.5323" stop-color="#AA978A"/>
<stop offset="0.5776" stop-color="#97897F"/>
<stop offset="0.655" stop-color="#7D7570"/>
<stop offset="0.7348" stop-color="#6B6765"/>
<stop offset="0.8177" stop-color="#605F5E"/>
<stop offset="0.9086" stop-color="#5C5C5C"/>
<stop offset="1" stop-color="#E1B995"/>
</linearGradient>
<linearGradient id="paint26_linear_578_5519" x1="314.647" y1="41.0511" x2="170.927" y2="37.1745" gradientUnits="userSpaceOnUse">
<stop offset="0.0612" stop-color="#AEDEE4"/>
<stop offset="0.1532" stop-color="#ABDDE3"/>
<stop offset="0.2231" stop-color="#A1DADF"/>
<stop offset="0.2855" stop-color="#91D4D9"/>
<stop offset="0.3421" stop-color="#7BCDD1"/>
<stop offset="0.7653" stop-color="#67A7AC"/>
<stop offset="1" stop-color="#AEDEE4"/>
</linearGradient>
<linearGradient id="paint27_linear_578_5519" x1="241.07" y1="167.286" x2="200.286" y2="185.011" gradientUnits="userSpaceOnUse">
<stop offset="0.1429" stop-color="#CF9E7F"/>
<stop offset="0.9235" stop-color="#BE8972"/>
</linearGradient>
<linearGradient id="paint28_linear_578_5519" x1="72.6226" y1="175.766" x2="293.786" y2="175.766" gradientUnits="userSpaceOnUse">
<stop offset="0.1022" stop-color="#898F9A"/>
<stop offset="0.1828" stop-color="#384E5E"/>
<stop offset="0.304" stop-color="#3A505F"/>
<stop offset="0.3489" stop-color="#415564"/>
<stop offset="0.3811" stop-color="#4D5F6D"/>
<stop offset="0.4074" stop-color="#5E6E79"/>
<stop offset="0.4299" stop-color="#748189"/>
<stop offset="0.4498" stop-color="#8F989C"/>
<stop offset="0.4675" stop-color="#AFB3B3"/>
<stop offset="0.4785" stop-color="#C7C7C4"/>
<stop offset="0.8925" stop-color="#394F5F"/>
</linearGradient>
<radialGradient id="paint29_radial_578_5519" cx="0" cy="0" r="1" gradientUnits="userSpaceOnUse" gradientTransform="translate(221.405 92.6754) scale(5.66541 6.5298)">
<stop stop-color="#677946"/>
<stop offset="1" stop-color="#4A4328"/>
</radialGradient>
<radialGradient id="paint30_radial_578_5519" cx="0" cy="0" r="1" gradientUnits="userSpaceOnUse" gradientTransform="translate(223.199 94.4771) scale(2.88257 3.27729)">
<stop stop-color="#8D9F72"/>
<stop offset="0.3469" stop-color="#ACB284"/>
</radialGradient>
<radialGradient id="paint31_radial_578_5519" cx="0" cy="0" r="1" gradientUnits="userSpaceOnUse" gradientTransform="translate(182.292 89.6976) rotate(180) scale(4.80564 6.68039)">
<stop stop-color="#677946"/>
<stop offset="1" stop-color="#4A4328"/>
</radialGradient>
<radialGradient id="paint32_radial_578_5519" cx="0" cy="0" r="1" gradientUnits="userSpaceOnUse" gradientTransform="translate(183.61 91.8612) rotate(180) scale(2.26196 2.93255)">
<stop stop-color="#8D9F72"/>
<stop offset="0.3469" stop-color="#ACB284"/>
</radialGradient>
<linearGradient id="paint33_linear_578_5519" x1="194.697" y1="84.1445" x2="190.904" y2="126.148" gradientUnits="userSpaceOnUse">
<stop offset="0.1429" stop-color="#CF9E7F"/>
<stop offset="0.5612" stop-color="#B8826E"/>
</linearGradient>
<linearGradient id="paint34_linear_578_5519" x1="167.135" y1="141.825" x2="227.358" y2="141.825" gradientUnits="userSpaceOnUse">
<stop offset="0.0561" stop-color="#819F9D"/>
<stop offset="0.1633" stop-color="#828983"/>
<stop offset="0.5172" stop-color="#808782"/>
<stop offset="0.6483" stop-color="#7B807D"/>
<stop offset="0.7422" stop-color="#707475"/>
<stop offset="0.7755" stop-color="#6B6E71"/>
</linearGradient>
<linearGradient id="paint35_linear_578_5519" x1="196.904" y1="125.197" x2="196.9" y2="131.051" gradientUnits="userSpaceOnUse">
<stop offset="0.1429" stop-color="#CF9E7F"/>
<stop offset="0.5612" stop-color="#A36A5E"/>
</linearGradient>
<linearGradient id="paint36_linear_578_5519" x1="193.979" y1="135.181" x2="193.976" y2="139.474" gradientUnits="userSpaceOnUse">
<stop offset="0.1429" stop-color="#CF9E7F"/>
<stop offset="0.5612" stop-color="#B8826E"/>
</linearGradient>
<linearGradient id="paint37_linear_578_5519" x1="193.232" y1="70.9703" x2="185.933" y2="105.889" gradientUnits="userSpaceOnUse">
<stop offset="0.0561" stop-color="#F0D0B3"/>
<stop offset="0.7041" stop-color="#FDE4DB"/>
</linearGradient>
<linearGradient id="paint38_linear_578_5519" x1="203.596" y1="106.278" x2="202.809" y2="110.048" gradientUnits="userSpaceOnUse">
<stop offset="0.0561" stop-color="#F0D0B3"/>
<stop offset="0.7041" stop-color="#FDE4DB"/>
</linearGradient>
<linearGradient id="paint39_linear_578_5519" x1="194.898" y1="126.079" x2="192.718" y2="136.512" gradientUnits="userSpaceOnUse">
<stop offset="0.0561" stop-color="#F0D0B3"/>
<stop offset="0.7041" stop-color="#FDE4DB"/>
</linearGradient>
</defs>
</svg>
