<svg width="137" height="138" viewBox="0 0 137 138" fill="none" xmlns="http://www.w3.org/2000/svg">
<path fill-rule="evenodd" clip-rule="evenodd" d="M68.3005 137.406C105.916 137.406 136.595 106.727 136.595 69.1113C136.595 31.4959 105.916 0.816406 68.3005 0.816406C30.6851 0.816406 0 31.4959 0 69.1113C0 106.721 30.6851 137.406 68.3005 137.406Z" fill="#F6EAD1"/>
<path fill-rule="evenodd" clip-rule="evenodd" d="M68.297 132.148C103.016 132.148 131.336 103.827 131.336 69.1086C131.336 34.3898 103.016 6.06934 68.297 6.06934C33.5726 6.06934 5.25781 34.3898 5.25781 69.1086C5.25781 103.827 33.5782 132.148 68.297 132.148Z" fill="#FDF2DA"/>
<path fill-rule="evenodd" clip-rule="evenodd" d="M79.3366 7.02637C108.89 12.2424 131.344 38.0509 131.344 69.1038C131.344 100.185 108.845 126.016 79.2461 131.198C124.821 122.209 125.857 29.8875 79.3366 7.02637Z" fill="#FAEFD7"/>
<path d="M74.9452 3.09277H61.6562V134.896H74.9452V3.09277Z" fill="#F6EAD1"/>
<path fill-rule="evenodd" clip-rule="evenodd" d="M61.6562 6.41211L67.0986 10.887V128.44L61.6562 131.806V6.41211Z" fill="#F2E4CA"/>
<path fill-rule="evenodd" clip-rule="evenodd" d="M106.833 108.089C106.833 108.089 124.851 88.283 123.244 62.0784C121.638 35.8739 103.003 25.8661 93.3909 25.1929C83.7735 24.5197 121.536 51.6521 106.833 108.089Z" fill="#FFF8EA"/>
<path fill-rule="evenodd" clip-rule="evenodd" d="M57.0427 7.02637C27.489 12.2424 5.03516 38.0509 5.03516 69.1038C5.03516 100.185 27.5342 126.016 57.1331 131.198C11.558 122.209 10.5228 29.8875 57.0427 7.02637Z" fill="#FAEFD7"/>
<path fill-rule="evenodd" clip-rule="evenodd" d="M31.7163 35.7158C31.7163 35.7158 13.6979 55.5221 15.3045 81.7266C16.9169 107.931 35.5463 117.939 45.158 118.612C54.7754 119.285 17.013 92.153 31.7163 35.7158Z" fill="#FFF8EA"/>
</svg>
