<svg width="564" height="123" viewBox="0 0 564 123" fill="none" xmlns="http://www.w3.org/2000/svg">
<path fill-rule="evenodd" clip-rule="evenodd" d="M343.298 54.1216L333.902 42.7559C333.902 55.0801 333.902 67.4007 333.902 79.725L343.298 68.3591C343.298 63.6133 343.298 58.8674 343.298 54.1216Z" fill="#BDBEC3"/>
<path fill-rule="evenodd" clip-rule="evenodd" d="M67.0156 27.1396H325.54C331.344 27.1396 336.093 31.8891 336.093 37.6931V86.2883C336.093 91.2657 332.021 95.3346 327.047 95.3346H67.0156V27.1396Z" fill="#DFE0D9"/>
<path fill-rule="evenodd" clip-rule="evenodd" d="M67.0156 27.1396H325.54C331.344 27.1396 336.093 31.8891 336.093 37.6931V86.2883C336.093 91.2657 332.021 95.3346 327.047 95.3346H67.0156V88.6683C67.7959 84.1398 68.5548 81.065 68.8933 83.5769C69.7271 89.7444 75.0252 91.2906 75.0252 91.2906C75.0252 91.2906 321.026 91.9854 326.769 91.2906C332.509 90.5959 332.509 86.8263 332.509 86.8263C332.509 86.8263 332.798 46.6968 332.509 39.6207C332.217 32.5447 325.782 32.6053 325.782 32.6053C325.782 32.6053 112.091 31.4438 91.6784 32.6053C71.2662 33.7668 68.8933 40.4937 68.8933 40.4937C68.3233 40.5435 67.6855 40.066 67.0156 39.1967V27.1396Z" fill="#BDBEC3"/>
<path fill-rule="evenodd" clip-rule="evenodd" d="M336.087 83.8164V86.2891C336.087 91.2665 332.014 95.3354 327.04 95.3354H67.3653C67.3368 93.2903 67.604 91.1881 68.224 89.0325C68.224 89.0325 73.0946 93.4399 84.6956 93.9031C96.293 94.3663 312.251 94.6015 318.397 94.6015C324.543 94.6051 335.221 93.2119 336.087 83.8164Z" fill="#858687"/>
<path fill-rule="evenodd" clip-rule="evenodd" d="M67.4126 27.1396H325.531C331.335 27.1396 336.084 31.8891 336.084 37.6931V39.7846C335.218 30.3891 324.54 28.9995 318.394 28.9995C312.248 28.9995 96.2903 29.2312 84.6929 29.6979C73.0955 30.1611 68.2213 34.5685 68.2213 34.5685C67.4874 32.0138 67.2487 29.534 67.4126 27.1396Z" fill="#858687"/>
<path d="M323.916 33.0195H316.84V88.933H323.916V33.0195Z" fill="#000003" stroke="#1A1A18" stroke-width="0.5669" stroke-miterlimit="22.9256"/>
<path fill-rule="evenodd" clip-rule="evenodd" d="M314.635 31.1621C316.296 31.1621 317.65 32.5196 317.65 34.1764V88.7644C317.65 90.4212 316.292 91.7786 314.635 91.7786C312.975 91.7786 311.621 90.4212 311.621 88.7644V34.1764C311.621 32.5196 312.975 31.1621 314.635 31.1621Z" fill="#252626"/>
<path fill-rule="evenodd" clip-rule="evenodd" d="M326.466 31.1621C328.512 31.1621 330.179 32.8332 330.179 34.8748V88.0661C330.179 90.1076 328.508 91.7786 326.466 91.7786C324.425 91.7786 322.754 90.1076 322.754 88.0661V34.8748C322.754 32.8332 324.421 31.1621 326.466 31.1621Z" fill="#252626"/>
<path fill-rule="evenodd" clip-rule="evenodd" d="M6.16129 46.1818C6.85607 45.9715 7.90354 48.6901 15.3252 48.5868C22.7468 48.4835 152.178 38.9668 152.178 38.9668L311.61 40.2209V59.6675V62.7994V82.246L152.178 83.5001C152.178 83.5001 22.7468 73.9871 15.3252 73.8802C7.90354 73.7769 6.85963 76.4954 6.16129 76.2852C3.92019 75.6189 3.92019 46.8552 6.16129 46.1818Z" fill="#DFE0D9"/>
<path fill-rule="evenodd" clip-rule="evenodd" d="M311.621 58.18V59.6729V62.8047V64.3225L12.6435 63.5672C12.6435 63.5672 9.22299 64.3226 8.87383 66.7561C8.52466 69.1931 7.89404 72.3249 7.89404 72.3249V49.2441C7.89404 49.2441 7.60897 57.7097 12.2515 58.1764C16.8869 58.6432 311.621 58.18 311.621 58.18Z" fill="#CECECB"/>
<path fill-rule="evenodd" clip-rule="evenodd" d="M67.0156 45.1376C105.834 42.3799 152.188 38.9736 152.188 38.9736L311.619 40.2278V59.6744V62.8062V82.2528L152.188 83.507C152.188 83.507 105.834 80.1008 67.0156 77.3395V45.1376Z" fill="#CECECF"/>
<path fill-rule="evenodd" clip-rule="evenodd" d="M311.619 76.0947V82.2514L152.188 83.5055C152.188 83.5055 105.834 80.0994 67.0156 77.3381V72.4854L68.8933 65.8867C68.8933 65.8867 70.9135 73.3084 90.6308 75.3963C110.348 77.4842 145.607 80.0352 166.714 79.1088C187.821 78.1825 309.806 82.1267 311.619 76.0947Z" fill="#C2C3C3"/>
<path fill-rule="evenodd" clip-rule="evenodd" d="M67.0156 45.1376C105.834 42.3799 152.188 38.9736 152.188 38.9736L311.619 40.2278V46.4059C309.809 40.3739 187.825 44.318 166.718 43.3917C145.611 42.4653 110.348 45.0164 90.6344 47.1043C70.9171 49.1922 68.8969 56.6138 68.8969 56.6138L67.0192 50.0152V45.1376H67.0156Z" fill="#C2C3C3"/>
<path fill-rule="evenodd" clip-rule="evenodd" d="M311.619 58.1797V59.6726V62.8044V64.3222L67.0156 63.7058V58.3756C153.431 58.4255 311.619 58.1797 311.619 58.1797Z" fill="#ABABAB"/>
<path fill-rule="evenodd" clip-rule="evenodd" d="M3.94417 22.9639C6.11401 22.9639 7.88834 24.7382 7.88834 26.908V95.5698C7.88834 97.7396 6.11401 99.514 3.94417 99.514C1.77433 99.514 0 97.7396 0 95.5698V26.908C0 24.7382 1.77433 22.9639 3.94417 22.9639Z" fill="#E2E2E3"/>
<path fill-rule="evenodd" clip-rule="evenodd" d="M3.94417 22.9639C6.11401 22.9639 7.88834 24.7382 7.88834 26.908V31.2584C7.88834 31.2584 6.81234 26.5054 3.40616 27.2002C-2.25111e-05 27.895 2.94299 35.0851 2.59382 42.0471C2.24465 49.0056 2.35867 89.7729 2.24109 92.7871C2.12351 95.8014 6.92278 98.47 7.88834 93.5425V95.5698C7.88834 97.7396 6.11401 99.514 3.94417 99.514C1.77433 99.514 0 97.7396 0 95.5698V26.908C0 24.7382 1.77433 22.9639 3.94417 22.9639Z" fill="#C9C8C8"/>
<path fill-rule="evenodd" clip-rule="evenodd" d="M62.5065 0C66.016 0 68.8842 2.87166 68.8842 6.37761V116.099C68.8842 119.608 66.0125 122.476 62.5065 122.476C58.997 122.476 56.1289 119.605 56.1289 116.099V6.37761C56.1289 2.87166 59.0006 0 62.5065 0Z" fill="#E2E2E3"/>
<path fill-rule="evenodd" clip-rule="evenodd" d="M62.5101 0C64.1206 0 65.5992 0.605637 66.7251 1.60326C66.6859 1.59257 61.2844 0.0890147 60.1301 6.44176C58.9685 12.8194 59.8949 117.089 60.4721 118.889C61.0529 120.684 64.1349 122.548 67.7227 119.761C66.5648 121.4 64.6551 122.48 62.5066 122.48C58.9971 122.48 56.1289 119.608 56.1289 116.102V6.3812C56.1325 2.87169 59.0042 0 62.5101 0Z" fill="#C9C8C8"/>
<path fill-rule="evenodd" clip-rule="evenodd" d="M452.371 61.1198V59.3241H551.036C551.036 59.3241 554.863 58.7433 558.344 59.7302C564.665 61.5224 564.668 61.216 558.344 63.0082C554.863 63.9951 551.036 63.4143 551.036 63.4143H452.371V61.6151V61.1198Z" fill="#9B9897"/>
<path fill-rule="evenodd" clip-rule="evenodd" d="M551.27 60.1311C552.139 60.1311 554.43 59.3472 556.81 59.9565C559.186 60.5658 561.681 61.2891 561.681 61.2891C561.681 61.2891 557.042 63.1454 554.547 62.8533C552.053 62.5647 551.27 62.1869 551.27 62.1869V60.1311Z" fill="#000003"/>
<path d="M377.743 54.123H343.297V68.3108H377.743V54.123Z" fill="#BDBEC3"/>
<path fill-rule="evenodd" clip-rule="evenodd" d="M343.3 54.123H363.716C364.108 54.4936 364.439 54.8606 364.682 55.2169C366.075 57.2478 365.665 62.6386 365.608 66.1766C365.594 67.046 365.241 67.7407 364.668 68.3108H343.297V65.2894C346.621 65.1504 356.811 67.1849 358.76 66.5827C361.023 65.8879 359.687 57.4794 359.398 56.724C359.109 55.9687 350.352 55.4485 346.062 56.1433C344.637 56.3749 343.792 56.9342 343.297 57.5791V54.123H343.3Z" fill="#9597A3"/>
<path fill-rule="evenodd" clip-rule="evenodd" d="M365.332 50.3828H397.517C412.627 50.3828 429.252 54.9256 450.405 54.9256C456.968 62.2795 456.779 59.9315 450.405 67.5064C429.255 67.5064 412.627 72.0491 397.517 72.0491H365.332C365.268 72.0491 365.215 72.0064 365.215 71.9494V62.365V60.0705V50.4861C365.218 50.4255 365.268 50.3828 365.332 50.3828Z" fill="#0C0C0C"/>
<path fill-rule="evenodd" clip-rule="evenodd" d="M398.478 69.5367C398.478 69.5367 372.266 69.2267 371.165 68.3075C370.064 67.3918 370.816 66.1126 373.078 66.3478C375.341 66.5794 384.155 66.9855 384.505 64.552C384.854 62.115 385.837 55.6803 384.212 54.7503C382.588 53.8204 369.889 54.3442 369.252 53.1257C368.614 51.9071 380.382 52.2563 384.558 52.0817C388.734 51.9071 398.767 51.8501 401.493 52.4309C404.218 53.0116 429.79 56.3751 434.546 56.3751C439.303 56.3751 448.289 56.9559 449.161 57.9393C450.031 58.9262 451.424 63.6221 448.698 64.7836C445.969 65.9416 410.942 67.5058 398.478 69.5367Z" fill="#252626"/>
<path fill-rule="evenodd" clip-rule="evenodd" d="M313.137 42.0015C315.207 39.0478 316.151 43.0953 316.151 60.6036C316.151 65.2426 316.753 78.6001 315.25 84.4754C314.748 86.4351 313.682 83.9161 313.704 83.0325C313.704 83.0325 312.196 48.3507 313.137 42.0015Z" fill="#464545"/>
<path fill-rule="evenodd" clip-rule="evenodd" d="M324.491 39.8068C326.989 36.5467 328.125 41.0146 328.125 60.3401C328.125 65.46 328.852 80.2035 327.039 86.6916C326.433 88.8543 325.143 86.0752 325.172 85.0989C325.172 85.0989 323.355 46.8115 324.491 39.8068Z" fill="#464545"/>
<path fill-rule="evenodd" clip-rule="evenodd" d="M319.14 39.8068C320.383 36.5467 320.95 41.0146 320.95 60.3401C320.95 65.46 321.313 80.2035 320.408 86.6916C320.105 88.8543 319.467 86.0752 319.478 85.0989C319.478 85.0989 318.573 46.8115 319.14 39.8068Z" fill="#000003"/>
<path d="M311.615 40.1982H308.027V82.2554H311.615V40.1982Z" fill="#9C9B9C"/>
<path fill-rule="evenodd" clip-rule="evenodd" d="M336.909 61.2191C336.909 61.2191 336.271 50.5481 337.49 50.4911C338.708 50.4341 340.796 53.1598 340.796 55.5933C340.796 58.0303 341.202 67.8284 339.172 70.1479C337.141 72.4674 337.49 67.946 336.909 61.2191Z" fill="#9597A3"/>
<path fill-rule="evenodd" clip-rule="evenodd" d="M345.775 58.9257C350.125 58.6941 358.184 57.9958 358.359 59.3889C358.534 60.782 360.561 62.9839 355.865 62.6953C351.169 62.4032 341.948 62.1715 345.775 58.9257Z" fill="#D6D8DB"/>
<path fill-rule="evenodd" clip-rule="evenodd" d="M364.636 45.0342C366.296 45.0342 367.653 46.3917 367.653 48.0485V74.3786C367.653 76.0354 366.296 77.3929 364.639 77.3929C362.982 77.3929 361.625 76.0354 361.625 74.3786V48.0485C361.618 46.3917 362.975 45.0342 364.636 45.0342Z" fill="#252626"/>
<path fill-rule="evenodd" clip-rule="evenodd" d="M363.111 47.9678C364.037 46.9844 365.836 46.3431 366.068 51.1566C366.299 55.9702 365.872 76.6461 363.745 75.5131C361.618 74.38 363.111 47.9678 363.111 47.9678Z" fill="#474847"/>
<path fill-rule="evenodd" clip-rule="evenodd" d="M386.582 53.416C386.582 53.416 388.207 55.504 387.915 58.4042C387.622 61.3045 387.508 66.7557 386.753 66.9303C385.998 67.1049 393.423 67.3936 397.307 67.219C401.194 67.0444 403.107 63.9695 403.05 61.1298C402.989 58.2866 403.107 54.7521 402.006 54.1714C400.905 53.5906 393.366 53.5336 386.582 53.416Z" fill="#403F3F"/>
<path fill-rule="evenodd" clip-rule="evenodd" d="M408.375 54.5752C408.375 54.5752 409.419 58.1417 409.825 59.6774C410.231 61.213 408.2 66.5787 409.536 66.5787C410.869 66.5787 425.135 65.1286 431.107 64.7225C437.078 64.3163 445.953 64.3768 446.997 63.2153C448.041 62.0538 449.491 59.1001 447.054 58.5194C444.617 57.9386 433.658 57.1298 426.236 56.4885C418.814 55.8507 408.375 54.5752 408.375 54.5752Z" fill="#0C0C0C"/>
<path fill-rule="evenodd" clip-rule="evenodd" d="M62.5621 6.09225C65.4623 5.16589 66.9695 8.29419 66.6203 16.8773C66.2711 25.4605 67.201 115.927 65.4587 116.273C63.72 116.622 61.8638 108.039 62.4445 100.382C63.0253 92.7325 62.5621 6.09225 62.5621 6.09225Z" fill="#FAF9F9"/>
<path fill-rule="evenodd" clip-rule="evenodd" d="M13.0374 67.7966C13.0374 66.5211 12.4566 65.4771 20.1134 65.2455C27.7702 65.014 53.6338 64.6648 53.8653 65.8263C54.0969 66.9842 56.8796 71.9724 52.3582 72.3215C47.8333 72.6672 13.0374 67.7966 13.0374 67.7966Z" fill="#EBEBEC"/>
<path fill-rule="evenodd" clip-rule="evenodd" d="M13.0374 54.1044C13.0374 55.38 12.4566 56.4239 20.1134 56.6555C27.7702 56.8871 53.6338 57.2362 53.8653 56.0747C54.0969 54.9132 56.8796 49.9286 52.3582 49.5794C47.8333 49.2303 13.0374 54.1044 13.0374 54.1044Z" fill="#EBEBEC"/>
<path fill-rule="evenodd" clip-rule="evenodd" d="M4.66257 30.0792C6.11269 29.5484 6.8645 31.337 6.69348 36.2396C6.51889 41.1422 6.9821 92.8157 6.11274 93.0116C5.24338 93.2112 4.31343 88.3086 4.60559 83.9368C4.89419 79.5651 4.66257 30.0792 4.66257 30.0792Z" fill="#FAF9F9"/>
<path fill-rule="evenodd" clip-rule="evenodd" d="M305.133 29.0034C305.133 28.5189 305.525 28.127 306.009 28.127C306.494 28.127 306.886 28.5189 306.886 29.0034V52.665C306.886 53.1495 306.494 53.5415 306.009 53.5415C305.525 53.5415 305.133 53.1495 305.133 52.665V29.0034Z" fill="#1A1A18"/>
<path fill-rule="evenodd" clip-rule="evenodd" d="M297.895 29.0034C297.895 28.5189 298.286 28.127 298.771 28.127C299.256 28.127 299.648 28.5189 299.648 29.0034V52.665C299.648 53.1495 299.256 53.5415 298.771 53.5415C298.286 53.5415 297.895 53.1495 297.895 52.665V29.0034Z" fill="#1A1A18"/>
<path fill-rule="evenodd" clip-rule="evenodd" d="M290.754 29.0034C290.754 28.5189 291.146 28.127 291.63 28.127C292.115 28.127 292.507 28.5189 292.507 29.0034V62.9299C292.507 63.4145 292.115 63.8064 291.63 63.8064C291.146 63.8064 290.754 63.4145 290.754 62.9299V29.0034Z" fill="#1A1A18"/>
<path fill-rule="evenodd" clip-rule="evenodd" d="M283.559 29.0034C283.559 28.5189 283.951 28.127 284.435 28.127C284.92 28.127 285.312 28.5189 285.312 29.0034V52.665C285.312 53.1495 284.92 53.5415 284.435 53.5415C283.951 53.5415 283.559 53.1495 283.559 52.665V29.0034Z" fill="#1A1A18"/>
<path fill-rule="evenodd" clip-rule="evenodd" d="M276.309 29.0034C276.309 28.5189 276.701 28.127 277.185 28.127C277.67 28.127 278.062 28.5189 278.062 29.0034V52.665C278.062 53.1495 277.67 53.5415 277.185 53.5415C276.701 53.5415 276.309 53.1495 276.309 52.665V29.0034Z" fill="#1A1A18"/>
<path fill-rule="evenodd" clip-rule="evenodd" d="M269.238 29.0034C269.238 28.5189 269.63 28.127 270.115 28.127C270.599 28.127 270.991 28.5189 270.991 29.0034V52.665C270.991 53.1495 270.599 53.5415 270.115 53.5415C269.63 53.5415 269.238 53.1495 269.238 52.665V29.0034Z" fill="#1A1A18"/>
<path fill-rule="evenodd" clip-rule="evenodd" d="M261.984 29.0034C261.984 28.5189 262.376 28.127 262.861 28.127C263.345 28.127 263.737 28.5189 263.737 29.0034V52.665C263.737 53.1495 263.345 53.5415 262.861 53.5415C262.376 53.5415 261.984 53.1495 261.984 52.665V29.0034Z" fill="#1A1A18"/>
<path fill-rule="evenodd" clip-rule="evenodd" d="M255.266 29.0034C255.266 28.5189 255.658 28.127 256.142 28.127C256.627 28.127 257.019 28.5189 257.019 29.0034V62.9299C257.019 63.4145 256.627 63.8064 256.142 63.8064C255.658 63.8064 255.266 63.4145 255.266 62.9299V29.0034Z" fill="#1A1A18"/>
<path fill-rule="evenodd" clip-rule="evenodd" d="M247.609 29.0034C247.609 28.5189 248.001 28.127 248.486 28.127C248.97 28.127 249.362 28.5189 249.362 29.0034V52.665C249.362 53.1495 248.97 53.5415 248.486 53.5415C248.001 53.5415 247.609 53.1495 247.609 52.665V29.0034Z" fill="#1A1A18"/>
<path fill-rule="evenodd" clip-rule="evenodd" d="M240.359 29.0034C240.359 28.5189 240.751 28.127 241.236 28.127C241.72 28.127 242.112 28.5189 242.112 29.0034V52.665C242.112 53.1495 241.72 53.5415 241.236 53.5415C240.751 53.5415 240.359 53.1495 240.359 52.665V29.0034Z" fill="#1A1A18"/>
<path fill-rule="evenodd" clip-rule="evenodd" d="M233.273 29.0034C233.273 28.5189 233.665 28.127 234.15 28.127C234.634 28.127 235.026 28.5189 235.026 29.0034V52.665C235.026 53.1495 234.634 53.5415 234.15 53.5415C233.665 53.5415 233.273 53.1495 233.273 52.665V29.0034Z" fill="#1A1A18"/>
<path fill-rule="evenodd" clip-rule="evenodd" d="M226.035 29.0034C226.035 28.5189 226.427 28.127 226.912 28.127C227.396 28.127 227.788 28.5189 227.788 29.0034V52.665C227.788 53.1495 227.396 53.5415 226.912 53.5415C226.427 53.5415 226.035 53.1495 226.035 52.665V29.0034Z" fill="#1A1A18"/>
<path fill-rule="evenodd" clip-rule="evenodd" d="M219.301 29.0034C219.301 28.5189 219.693 28.127 220.177 28.127C220.662 28.127 221.054 28.5189 221.054 29.0034V62.9299C221.054 63.4145 220.662 63.8064 220.177 63.8064C219.693 63.8064 219.301 63.4145 219.301 62.9299V29.0034Z" fill="#1A1A18"/>
<path fill-rule="evenodd" clip-rule="evenodd" d="M212.34 29.0034C212.34 28.5189 212.732 28.127 213.216 28.127C213.701 28.127 214.093 28.5189 214.093 29.0034V52.665C214.093 53.1495 213.701 53.5415 213.216 53.5415C212.732 53.5415 212.34 53.1495 212.34 52.665V29.0034Z" fill="#1A1A18"/>
<path fill-rule="evenodd" clip-rule="evenodd" d="M205.105 29.0034C205.105 28.5189 205.497 28.127 205.982 28.127C206.467 28.127 206.858 28.5189 206.858 29.0034V52.665C206.858 53.1495 206.467 53.5415 205.982 53.5415C205.497 53.5415 205.105 53.1495 205.105 52.665V29.0034Z" fill="#1A1A18"/>
<path fill-rule="evenodd" clip-rule="evenodd" d="M198.02 29.0034C198.02 28.5189 198.411 28.127 198.896 28.127C199.381 28.127 199.773 28.5189 199.773 29.0034V52.665C199.773 53.1495 199.381 53.5415 198.896 53.5415C198.411 53.5415 198.02 53.1495 198.02 52.665V29.0034Z" fill="#1A1A18"/>
<path fill-rule="evenodd" clip-rule="evenodd" d="M190.77 29.0034C190.77 28.5189 191.161 28.127 191.646 28.127C192.131 28.127 192.523 28.5189 192.523 29.0034V52.665C192.523 53.1495 192.131 53.5415 191.646 53.5415C191.161 53.5415 190.77 53.1495 190.77 52.665V29.0034Z" fill="#1A1A18"/>
<path fill-rule="evenodd" clip-rule="evenodd" d="M184.047 29.0034C184.047 28.5189 184.439 28.127 184.923 28.127C185.408 28.127 185.8 28.5189 185.8 29.0034V62.9299C185.8 63.4145 185.408 63.8064 184.923 63.8064C184.439 63.8064 184.047 63.4145 184.047 62.9299V29.0034Z" fill="#1A1A18"/>
<path fill-rule="evenodd" clip-rule="evenodd" d="M176.168 29.0034C176.168 28.5189 176.56 28.127 177.044 28.127C177.529 28.127 177.921 28.5189 177.921 29.0034V52.665C177.921 53.1495 177.529 53.5415 177.044 53.5415C176.56 53.5415 176.168 53.1495 176.168 52.665V29.0034Z" fill="#1A1A18"/>
<path fill-rule="evenodd" clip-rule="evenodd" d="M168.918 29.0034C168.918 28.5189 169.31 28.127 169.794 28.127C170.279 28.127 170.671 28.5189 170.671 29.0034V52.665C170.671 53.1495 170.279 53.5415 169.794 53.5415C169.31 53.5415 168.918 53.1495 168.918 52.665V29.0034Z" fill="#1A1A18"/>
<path fill-rule="evenodd" clip-rule="evenodd" d="M161.832 29.0034C161.832 28.5189 162.224 28.127 162.709 28.127C163.193 28.127 163.585 28.5189 163.585 29.0034V52.665C163.585 53.1495 163.193 53.5415 162.709 53.5415C162.224 53.5415 161.832 53.1495 161.832 52.665V29.0034Z" fill="#1A1A18"/>
<path fill-rule="evenodd" clip-rule="evenodd" d="M154.582 29.0034C154.582 28.5189 154.974 28.127 155.459 28.127C155.943 28.127 156.335 28.5189 156.335 29.0034V52.665C156.335 53.1495 155.943 53.5415 155.459 53.5415C154.974 53.5415 154.582 53.1495 154.582 52.665V29.0034Z" fill="#1A1A18"/>
<path fill-rule="evenodd" clip-rule="evenodd" d="M147.859 29.0034C147.859 28.5189 148.251 28.127 148.736 28.127C149.22 28.127 149.612 28.5189 149.612 29.0034V62.9299C149.612 63.4145 149.22 63.8064 148.736 63.8064C148.251 63.8064 147.859 63.4145 147.859 62.9299V29.0034Z" fill="#1A1A18"/>
<path fill-rule="evenodd" clip-rule="evenodd" d="M285.48 73.257H296.109C295.884 73.0717 295.703 72.8117 295.564 72.4803C295.425 72.1526 295.353 71.8426 295.353 71.5469H297.559C297.598 71.8248 297.691 72.1204 297.83 72.4411C297.969 72.7582 298.158 73.0575 298.403 73.3318C298.642 73.6062 298.938 73.8164 299.283 73.9625V76.1787H285.484V73.257H285.48Z" fill="#1A1A18"/>
<path fill-rule="evenodd" clip-rule="evenodd" d="M249.055 70.2603H249.714C250.398 70.2603 251.014 70.3636 251.559 70.5773C252.105 70.7876 252.614 71.0618 253.077 71.3967C253.548 71.7317 254.007 72.0845 254.456 72.455C254.894 72.8149 255.343 73.1569 255.807 73.4847C256.27 73.809 256.769 74.0798 257.31 74.2828C257.852 74.4895 258.461 74.5927 259.134 74.5927C259.459 74.5927 259.736 74.5465 259.968 74.4467C260.2 74.3469 260.317 74.151 260.317 73.8445C260.317 73.3885 259.907 73.1569 259.088 73.1569H257.403V70.2567C257.524 70.2496 257.659 70.2424 257.809 70.2353C257.962 70.2281 258.108 70.2246 258.251 70.2246C259.245 70.2246 260.086 70.3279 260.777 70.5381C261.468 70.7483 261.995 71.1153 262.359 71.6462C262.722 72.1771 262.904 72.9218 262.904 73.8838C262.904 75.0275 262.583 75.9182 261.938 76.5524C261.297 77.1866 260.378 77.5037 259.188 77.5037C258.375 77.5037 257.67 77.4003 257.061 77.1865C256.451 76.9763 255.899 76.7021 255.4 76.3565C254.898 76.0109 254.403 75.6332 253.907 75.2199C253.558 74.9277 253.199 74.6462 252.832 74.3683C252.465 74.094 252.073 73.8517 251.656 73.645V77.4039H249.055V70.2603Z" fill="#1A1A18"/>
<path fill-rule="evenodd" clip-rule="evenodd" d="M212.258 73.7443C212.258 72.5294 212.582 71.6421 213.223 71.0898C213.865 70.5376 214.834 70.2598 216.131 70.2598H217.574V73.0887H216.124C215.757 73.0887 215.447 73.135 215.197 73.224C214.944 73.3167 214.82 73.5198 214.82 73.8404C214.82 74.1647 214.955 74.3714 215.229 74.4604C215.507 74.5495 215.953 74.5922 216.576 74.5922H216.922C217.396 74.5922 217.813 74.5139 218.165 74.3536C218.522 74.1932 218.7 73.8832 218.7 73.4165C218.7 73.3559 218.696 73.306 218.696 73.2633C218.693 73.217 218.693 73.1813 218.685 73.1492H221.162C221.162 73.6267 221.265 73.9901 221.479 74.2395C221.689 74.4889 222.045 74.6136 222.541 74.6136C223.321 74.6136 223.709 74.3892 223.709 73.9403C223.709 73.6481 223.595 73.4485 223.367 73.3488C223.139 73.2454 222.85 73.1955 222.505 73.1955H222.088V70.3452C222.152 70.3381 222.227 70.3345 222.316 70.331C222.405 70.3274 222.491 70.3274 222.576 70.3274C223.841 70.3274 224.767 70.6232 225.359 71.2111C225.95 71.799 226.246 72.7039 226.246 73.9188C226.246 76.2704 225.024 77.4462 222.58 77.4462C221.899 77.4462 221.34 77.3536 220.898 77.1683C220.453 76.9866 220.146 76.6481 219.968 76.1493C219.783 76.5412 219.541 76.8298 219.248 77.0222C218.956 77.2075 218.593 77.3321 218.158 77.3892C217.723 77.4497 217.196 77.4747 216.583 77.4747C215.204 77.4747 214.143 77.1897 213.391 76.6125C212.632 76.0388 212.258 75.0804 212.258 73.7443Z" fill="#1A1A18"/>
<path fill-rule="evenodd" clip-rule="evenodd" d="M177.086 74.1372H179.274V70.0469H181.426L190.892 72.6549V76.9519H181.575V77.6859H179.274V76.9519H177.086V74.1372ZM181.575 72.5053V74.1336H188.523L181.575 72.5053Z" fill="#1A1A18"/>
<path fill-rule="evenodd" clip-rule="evenodd" d="M141.402 73.8267C141.402 72.7685 141.666 71.9027 142.19 71.2293C142.713 70.5559 143.522 70.2246 144.609 70.2246H146.665V73.0928H145.482C145.236 73.0928 145.001 73.107 144.769 73.1355C144.541 73.164 144.349 73.2317 144.206 73.335C144.06 73.4383 143.985 73.6022 143.985 73.8267C143.985 74.126 144.085 74.322 144.285 74.4146C144.488 74.5073 144.744 74.5572 145.058 74.5572H147.769C147.994 74.5572 148.218 74.5428 148.436 74.5143C148.657 74.4858 148.838 74.4217 148.984 74.322C149.13 74.2222 149.205 74.0619 149.205 73.8445C149.205 73.3243 148.824 73.0607 148.069 73.0607V70.531H155.401V77.1047H152.814V73.1463H150.873C151.04 73.2816 151.19 73.4634 151.314 73.6985C151.443 73.9301 151.507 74.2044 151.507 74.5179C151.507 75.145 151.386 75.6581 151.147 76.0501C150.908 76.442 150.573 76.7483 150.146 76.9585C149.718 77.1687 149.223 77.3184 148.66 77.3968C148.094 77.4788 147.488 77.518 146.839 77.518C146.009 77.518 145.261 77.4752 144.595 77.3897C143.928 77.3041 143.355 77.1331 142.881 76.8801C142.403 76.6272 142.04 76.2531 141.787 75.7686C141.527 75.2769 141.402 74.6319 141.402 73.8267Z" fill="#1A1A18"/>
<path fill-rule="evenodd" clip-rule="evenodd" d="M142.055 79.2646H149.562V81.014H148.692C148.999 81.0924 149.234 81.2314 149.398 81.4238C149.562 81.6162 149.64 81.9012 149.64 82.2753C149.64 82.5746 149.573 82.8312 149.434 83.0414C149.295 83.2551 149.113 83.4048 148.885 83.4903C149.134 83.6257 149.32 83.7861 149.448 83.9714C149.576 84.1566 149.64 84.4203 149.64 84.7659C149.64 85.1827 149.551 85.5034 149.373 85.7278C149.195 85.9523 148.949 86.1091 148.632 86.1982C148.318 86.2873 147.951 86.33 147.538 86.33H142.055V84.5449H147.57C148.055 84.5449 148.293 84.4202 148.293 84.1744C148.293 84.0461 148.247 83.9428 148.162 83.8751C148.072 83.8039 147.966 83.7575 147.834 83.729C147.706 83.7041 147.574 83.6899 147.442 83.6899H142.055V81.9048H147.57C147.727 81.9048 147.884 81.887 148.04 81.8478C148.197 81.8086 148.276 81.7124 148.276 81.5556C148.276 81.4238 148.226 81.3169 148.13 81.2456C148.033 81.1708 147.912 81.121 147.77 81.096C147.627 81.0711 147.488 81.0568 147.353 81.0568H142.055V79.2646ZM142.055 87.0319H150.859V88.8526H142.055V87.0319Z" fill="#1A1A18"/>
<path opacity="0.5" fill-rule="evenodd" clip-rule="evenodd" d="M91.1934 37.4636C91.1934 37.4636 294.788 36.7688 303.207 36.7688C311.626 36.7688 327.079 34.9553 327.567 43.7523C328.055 52.5528 315.962 52.542 300.189 53.2368C284.416 53.9316 84.4595 48.1347 79.3573 47.4364C74.2552 46.7416 275.833 39.9399 91.1934 37.4636Z" fill="white"/>
<path opacity="0.5" fill-rule="evenodd" clip-rule="evenodd" d="M325.236 77.1328C323.643 80.7777 332.892 84.0913 287.194 86.1792C241.495 88.267 131.778 88.7943 126.672 85.4844C121.57 82.1744 230.828 82.4487 325.236 77.1328Z" fill="white"/>
<path fill-rule="evenodd" clip-rule="evenodd" d="M457.654 62.2893C457.173 62.2893 456.781 61.8974 456.781 61.4164C456.781 60.9354 457.173 60.5435 457.654 60.5435L548.933 60.1943C549.414 60.1943 549.806 60.5862 549.806 61.0672C549.806 61.5482 549.414 61.9401 548.933 61.9401L457.654 62.2893Z" fill="#E5E5E5"/>
</svg>
