<svg width="311" height="507" viewBox="0 0 311 507" fill="none" xmlns="http://www.w3.org/2000/svg">
<path d="M255.105 437.737L269.421 429.436L276.479 430.08L262.164 438.382L255.105 437.737Z" fill="#555136"/>
<path d="M276.479 430.08L262.164 438.382L281.507 449.552L295.823 441.246L276.479 430.08Z" fill="#706B47"/>
<path d="M292.512 459.337L292.498 462.739L306.818 454.438L306.827 451.03L292.512 459.337Z" fill="#656037"/>
<path d="M295.821 441.246L281.506 449.553L292.51 459.337L306.826 451.031L295.821 441.246Z" fill="#7B764E"/>
<path d="M281.507 449.552L292.511 459.337L292.498 462.744L255.096 441.149L255.105 437.737L262.164 438.382L281.507 449.552Z" fill="#4F4927"/>
<path d="M289.498 402.416L286.211 430.669C286.073 431.871 285.566 432.718 284.82 433.146L289.756 430.278C290.498 429.845 291.004 429.002 291.147 427.801L294.434 399.548L289.498 402.416Z" fill="#656037"/>
<path d="M286.639 389.428L291.575 386.56L294.434 399.549L289.498 402.417L286.639 389.428Z" fill="#746E49"/>
<path d="M284.798 386.771C285.663 387.287 286.405 388.35 286.639 389.432L289.499 402.421L286.211 430.674C285.907 433.313 283.826 434.238 281.367 432.82L279.921 431.987C277.449 430.559 275.381 427.239 275.091 424.26L272.016 392.315L274.967 382.682C275.206 381.876 275.957 381.674 276.804 382.166L284.798 386.771Z" fill="#4F4927"/>
<path d="M286.797 428.81L279.959 432.797L281.133 444.967L287.971 440.979L286.797 428.81Z" fill="#656037"/>
<path d="M285.98 425.83C285.505 424.757 284.861 423.74 284.106 422.879C283.461 422.147 282.738 421.53 281.979 421.088L280.519 420.245C279.174 419.472 277.945 419.389 277.056 419.904L270.219 423.892C271.107 423.376 272.337 423.454 273.681 424.233L275.141 425.075C275.901 425.513 276.624 426.13 277.268 426.866C278.023 427.727 278.668 428.745 279.142 429.818C279.57 430.794 279.86 431.811 279.957 432.797L286.795 428.809C286.698 427.824 286.413 426.806 285.98 425.83Z" fill="#827C52"/>
<path d="M279.958 432.797C279.668 429.799 277.601 426.498 275.142 425.08L273.682 424.237C271.223 422.819 269.147 423.726 268.838 426.364L267.586 437.148L281.132 444.971L279.958 432.797Z" fill="#4F4927"/>
<path d="M282.253 406.634L289.901 402.182L287.603 421.985L279.955 426.438L282.253 406.634Z" fill="#656037"/>
<path d="M279.393 393.645L287.041 389.192L289.9 402.182L282.252 406.634L279.393 393.645Z" fill="#746E49"/>
<path d="M291.319 385.785C291.13 385.362 290.877 384.961 290.578 384.62C290.32 384.33 290.034 384.082 289.73 383.902L283.74 380.444L281.746 379.293C281.221 378.989 280.738 378.952 280.383 379.155L275.447 382.023L268.195 386.246C268.55 386.038 269.047 386.08 269.577 386.384L277.565 391.011C277.865 391.186 278.15 391.426 278.408 391.72C278.703 392.052 278.951 392.448 279.14 392.867C279.251 393.12 279.338 393.383 279.398 393.645L291.581 386.563C291.521 386.301 291.434 386.039 291.319 385.785Z" fill="#827C52"/>
<path d="M269.577 386.384L277.565 391.012C278.417 391.5 279.158 392.563 279.393 393.645L282.253 406.634L279.955 426.438L266.929 418.919L264.77 396.523L267.721 386.891C267.965 386.085 268.729 385.891 269.577 386.384Z" fill="#4F4927"/>
<path d="M305.486 304.816L305.375 337.977C305.371 339.575 304.804 340.703 303.893 341.232L308.829 338.364C309.74 337.834 310.307 336.706 310.311 335.108L310.422 301.947L305.486 304.816Z" fill="#656037"/>
<path d="M290.076 307.188L290.016 329.109C290.006 332.328 292.263 336.255 295.081 337.881L300.284 340.883C303.088 342.499 305.372 341.196 305.381 337.977L305.482 307.188H290.076Z" fill="#4F4927"/>
<path d="M293.113 368.796L280.202 389.746C279.967 390.17 279.659 390.487 279.295 390.694L289.167 384.957C289.531 384.746 289.839 384.432 290.074 384.009L302.985 363.059L293.113 368.796Z" fill="#4F4927"/>
<path d="M294.163 356.161L293.113 368.796L302.985 363.058L304.035 350.424L294.163 356.161Z" fill="#656037"/>
<path d="M303.667 348.596C303.465 348.135 303.184 347.684 302.843 347.302C302.788 347.237 302.728 347.177 302.673 347.118L294.325 338.507C294.067 338.245 293.8 338.033 293.533 337.881C292.966 337.554 292.418 337.49 292.009 337.724L282.137 343.462C282.542 343.227 283.094 343.291 283.661 343.618C283.923 343.77 284.195 343.982 284.453 344.244L292.801 352.855C292.86 352.915 292.916 352.974 292.971 353.039C293.312 353.426 293.588 353.872 293.795 354.333C294.071 354.95 294.205 355.599 294.164 356.161L304.035 350.424C304.077 349.862 303.939 349.217 303.667 348.596Z" fill="#827C52"/>
<path d="M292.8 352.85L284.452 344.239C284.195 343.977 283.927 343.765 283.66 343.613C283.007 343.236 282.376 343.208 281.961 343.59L274.838 349.958L267.347 376.489C266.596 378.782 267.807 382.396 270.114 384.777L274.194 388.985C274.76 389.57 275.349 390.031 275.925 390.367C277.698 391.389 279.392 391.218 280.207 389.75L293.118 368.799L294.168 356.165C294.241 355.106 293.693 353.761 292.8 352.85Z" fill="#4F4927"/>
<path d="M294.763 330.43L294.712 347.895C294.712 348.645 294.445 349.17 294.021 349.414L303.893 343.677C304.317 343.429 304.579 342.904 304.584 342.153L304.635 324.688L294.763 330.43Z" fill="#656037"/>
<path d="M304.225 322.916C303.995 322.395 303.682 321.898 303.309 321.479C302.996 321.125 302.646 320.821 302.273 320.604L293.958 315.802C293.299 315.42 292.701 315.383 292.272 315.636L282.4 321.373C282.829 321.125 283.427 321.157 284.086 321.539L292.401 326.341C292.774 326.558 293.124 326.857 293.437 327.216C293.806 327.635 294.123 328.133 294.354 328.653C294.611 329.242 294.763 329.859 294.763 330.435L304.635 324.698C304.635 324.122 304.483 323.505 304.225 322.916Z" fill="#827C52"/>
<path d="M292.4 326.342L284.085 321.539C282.772 320.784 281.713 321.387 281.709 322.893L281.658 340.358C281.654 341.863 282.708 343.691 284.02 344.446L292.336 349.249C293.648 350.004 294.707 349.401 294.712 347.895L294.762 330.43C294.767 328.925 293.713 327.097 292.4 326.342Z" fill="#4F4927"/>
<path d="M259.358 243.144C259.087 242.942 258.815 242.762 258.548 242.605C257.061 241.744 255.689 241.661 254.694 242.237L235.111 253.647C236.106 253.071 237.478 253.154 238.965 254.015C239.232 254.172 239.504 254.351 239.776 254.554L263.424 272.751L283.007 261.341L259.358 243.144Z" fill="#78724B"/>
<path d="M305.574 304.784L295.702 310.521L290.835 313.358L290.725 346.519C290.72 348.117 290.154 349.245 289.242 349.774L294.178 346.906C295.09 346.376 295.656 345.248 295.661 343.65L295.716 326.48L305.51 320.789L307.513 314.334L305.574 304.784Z" fill="#656037"/>
<path d="M310.423 301.947L283.012 261.341L263.43 272.746L290.835 313.357L310.423 301.947Z" fill="#827C52"/>
<path d="M263.429 272.746L239.78 254.549C239.509 254.342 239.237 254.162 238.97 254.01C236.032 252.316 233.546 253.633 233.537 257.118L233.514 264.702C233.504 267.801 235.466 271.558 238.114 273.533L259.082 289.718L275.433 313.873L275.363 337.641C275.354 340.859 277.61 344.787 280.428 346.412L285.631 349.415C288.431 351.031 290.719 349.728 290.729 346.509L290.839 313.348L263.429 272.746Z" fill="#4F4927"/>
<path opacity="0.4" d="M302.843 347.301L292.971 353.038C293.311 353.425 293.588 353.871 293.795 354.332L303.667 348.595C303.46 348.134 303.183 347.688 302.843 347.301Z" fill="#8B855B"/>
<path opacity="0.4" d="M291.318 385.785C291.129 385.361 290.876 384.961 290.576 384.62L278.402 391.72C278.697 392.052 278.946 392.448 279.134 392.867L291.318 385.785Z" fill="#8B855B"/>
<path d="M287.27 343.691C287.27 346.09 285.364 346.933 283.011 345.574C280.658 344.216 278.752 341.172 278.752 338.773C278.752 336.375 280.658 335.532 283.011 336.89C285.364 338.249 287.27 341.292 287.27 343.691Z" fill="#292B2B"/>
<path d="M288.223 359.59C288.223 361.989 286.317 362.832 283.964 361.474C281.611 360.115 279.705 357.072 279.705 354.673C279.705 352.274 281.611 351.431 283.964 352.79C286.317 354.148 288.223 357.192 288.223 359.59Z" fill="#292B2B"/>
<path d="M279.299 383.585C279.299 385.983 277.393 386.826 275.04 385.468C272.687 384.11 270.781 381.066 270.781 378.667C270.781 376.268 272.687 375.426 275.04 376.784C277.389 378.138 279.299 381.186 279.299 383.585Z" fill="#292B2B"/>
<path d="M277.417 399.161C277.417 401.56 275.51 402.402 273.158 401.044C270.805 399.686 268.898 396.642 268.898 394.243C268.898 391.844 270.805 391.002 273.158 392.36C275.51 393.718 277.417 396.762 277.417 399.161Z" fill="#292B2B"/>
<path d="M276.819 432.921C276.819 434.62 275.47 435.214 273.803 434.257C272.136 433.294 270.787 431.139 270.787 429.44C270.787 427.741 272.136 427.143 273.803 428.105C275.465 429.067 276.819 431.222 276.819 432.921Z" fill="#292B2B"/>
<path d="M180.062 481.064L194.378 472.763L201.436 473.407L187.121 481.709L180.062 481.064Z" fill="#555136"/>
<path d="M201.436 473.407L187.121 481.709L206.464 492.879L220.78 484.573L201.436 473.407Z" fill="#706B47"/>
<path d="M217.464 502.659L217.455 506.067L231.775 497.765L231.784 494.357L217.464 502.659Z" fill="#656037"/>
<path d="M220.778 484.573L206.463 492.88L217.463 502.66L231.783 494.358L220.778 484.573Z" fill="#7B764E"/>
<path d="M206.464 492.879L217.464 502.659L217.455 506.067L180.053 484.472L180.062 481.064L187.121 481.709L206.464 492.879Z" fill="#4F4927"/>
<path d="M214.455 445.744L211.168 473.996C211.03 475.198 210.523 476.041 209.777 476.474L214.713 473.605C215.455 473.172 215.961 472.33 216.104 471.128L219.391 442.875L214.455 445.744Z" fill="#656037"/>
<path d="M211.596 432.754L216.532 429.886L219.391 442.875L214.455 445.743L211.596 432.754Z" fill="#746E49"/>
<path d="M209.755 430.093C210.62 430.609 211.362 431.673 211.596 432.755L214.456 445.744L211.168 473.997C210.864 476.63 208.783 477.56 206.324 476.142L204.878 475.309C202.406 473.881 200.339 470.562 200.048 467.583L196.973 435.637L199.924 426.004C200.164 425.199 200.914 424.996 201.761 425.489L209.755 430.093Z" fill="#4F4927"/>
<path d="M211.754 472.137L204.916 476.12L206.09 488.289L212.928 484.306L211.754 472.137Z" fill="#656037"/>
<path d="M210.937 469.157C210.463 468.085 209.818 467.067 209.058 466.206C208.414 465.474 207.695 464.857 206.936 464.415L205.476 463.572C204.131 462.799 202.902 462.716 202.013 463.231L195.176 467.219C196.064 466.703 197.294 466.782 198.638 467.56L200.098 468.402C200.858 468.84 201.581 469.457 202.221 470.193C202.976 471.054 203.625 472.072 204.095 473.145C204.523 474.121 204.813 475.139 204.91 476.124L211.747 472.141C211.655 471.151 211.37 470.129 210.937 469.157Z" fill="#827C52"/>
<path d="M204.915 476.119C204.625 473.121 202.558 469.82 200.099 468.402L198.639 467.559C196.181 466.141 194.104 467.048 193.795 469.686L192.543 480.47L206.089 488.293L204.915 476.119Z" fill="#4F4927"/>
<path d="M207.21 449.956L214.858 445.504L212.56 465.312L204.912 469.765L207.21 449.956Z" fill="#656037"/>
<path d="M204.35 436.972L211.998 432.52L214.857 445.504L207.209 449.957L204.35 436.972Z" fill="#746E49"/>
<path d="M216.276 429.112C216.087 428.689 215.834 428.288 215.535 427.948C215.277 427.657 214.991 427.409 214.687 427.229L208.697 423.771L206.703 422.62C206.178 422.316 205.695 422.279 205.34 422.482L200.404 425.351L193.152 429.573C193.507 429.366 194.004 429.407 194.534 429.711L202.522 434.338C202.822 434.513 203.107 434.757 203.365 435.048C203.66 435.384 203.908 435.775 204.097 436.199C204.208 436.452 204.295 436.714 204.355 436.977L216.538 429.895C216.478 429.623 216.391 429.361 216.276 429.112Z" fill="#827C52"/>
<path d="M194.533 429.706L202.522 434.334C203.373 434.826 204.115 435.89 204.35 436.967L207.209 449.956L204.916 469.76L191.89 462.241L189.73 439.845L192.682 430.213C192.921 429.411 193.686 429.218 194.533 429.706Z" fill="#4F4927"/>
<path d="M230.443 348.144L230.332 381.305C230.328 382.903 229.761 384.031 228.85 384.561L233.786 381.692C234.697 381.162 235.264 380.034 235.268 378.437L235.379 345.275L230.443 348.144Z" fill="#656037"/>
<path d="M215.031 350.511L214.967 372.433C214.958 375.651 217.214 379.579 220.032 381.204L225.235 384.206C228.034 385.822 230.323 384.519 230.332 381.301L230.433 350.511H215.031Z" fill="#4F4927"/>
<path d="M218.072 412.123L205.161 433.073C204.926 433.497 204.618 433.814 204.254 434.022L214.126 428.284C214.49 428.073 214.798 427.76 215.033 427.336L227.944 406.386L218.072 412.123Z" fill="#4F4927"/>
<path d="M219.12 399.488L218.07 412.123L227.942 406.386L228.992 393.751L219.12 399.488Z" fill="#656037"/>
<path d="M228.624 391.923C228.422 391.462 228.141 391.011 227.8 390.629C227.745 390.564 227.689 390.505 227.63 390.445L219.282 381.834C219.024 381.572 218.757 381.36 218.49 381.208C217.923 380.881 217.375 380.817 216.966 381.052L207.094 386.789C207.499 386.554 208.051 386.618 208.618 386.945C208.885 387.097 209.152 387.309 209.41 387.572L217.758 396.182C217.818 396.242 217.873 396.302 217.928 396.366C218.269 396.753 218.545 397.199 218.752 397.66C219.024 398.281 219.162 398.926 219.121 399.488L228.992 393.751C229.034 393.189 228.896 392.54 228.624 391.923Z" fill="#827C52"/>
<path d="M217.758 396.177L209.41 387.567C209.152 387.304 208.885 387.092 208.618 386.94C207.964 386.563 207.334 386.535 206.919 386.917L199.796 393.285L192.3 419.816C191.549 422.109 192.76 425.724 195.067 428.104L199.147 432.313C199.713 432.897 200.303 433.358 200.878 433.694C202.651 434.716 204.345 434.546 205.16 433.077L218.071 412.127L219.121 399.492C219.199 398.433 218.651 397.088 217.758 396.177Z" fill="#4F4927"/>
<path d="M219.72 373.758L219.669 391.223C219.665 391.974 219.402 392.498 218.979 392.742L228.85 387.005C229.274 386.757 229.537 386.232 229.541 385.481L229.592 368.017L219.72 373.758Z" fill="#656037"/>
<path d="M229.178 366.239C228.948 365.719 228.635 365.221 228.266 364.802C227.953 364.448 227.603 364.144 227.23 363.928L218.915 359.125C218.256 358.743 217.658 358.711 217.229 358.959L207.357 364.696C207.786 364.448 208.384 364.48 209.043 364.862L217.358 369.665C217.731 369.881 218.086 370.18 218.394 370.54C218.763 370.959 219.08 371.456 219.311 371.976C219.568 372.565 219.72 373.182 219.72 373.758L229.592 368.021C229.592 367.45 229.44 366.828 229.178 366.239Z" fill="#827C52"/>
<path d="M217.357 369.665L209.042 364.863C207.73 364.103 206.671 364.711 206.666 366.216L206.615 383.681C206.611 385.187 207.665 387.015 208.977 387.77L217.293 392.572C218.605 393.332 219.664 392.724 219.669 391.218L219.72 373.754C219.724 372.248 218.67 370.425 217.357 369.665Z" fill="#4F4927"/>
<path d="M184.315 286.467C184.044 286.264 183.772 286.085 183.505 285.928C182.018 285.072 180.646 284.984 179.651 285.56L160.068 296.97C161.063 296.394 162.435 296.477 163.922 297.338C164.189 297.49 164.461 297.67 164.733 297.877L188.381 316.074L207.964 304.664L184.315 286.467Z" fill="#78724B"/>
<path d="M230.531 348.111L220.659 353.848L215.792 356.685L215.682 389.846C215.677 391.444 215.111 392.572 214.199 393.101L219.135 390.233C220.047 389.703 220.613 388.575 220.618 386.977L220.673 369.807L230.467 364.116L232.47 357.661L230.531 348.111Z" fill="#656037"/>
<path d="M235.375 345.275L207.969 304.664L188.387 316.074L215.792 356.685L235.375 345.275Z" fill="#827C52"/>
<path d="M188.386 316.073L164.737 297.876C164.466 297.669 164.194 297.49 163.927 297.338C160.989 295.643 158.503 296.96 158.494 300.446L158.471 308.034C158.462 311.133 160.423 314.89 163.075 316.865L184.044 333.05L200.394 357.205L200.325 380.973C200.316 384.191 202.572 388.119 205.39 389.744L210.593 392.746C213.393 394.362 215.681 393.059 215.69 389.841L215.801 356.68L188.386 316.073Z" fill="#4F4927"/>
<path opacity="0.4" d="M227.8 390.629L217.928 396.366C218.268 396.753 218.545 397.199 218.752 397.66L228.624 391.923C228.417 391.458 228.14 391.011 227.8 390.629Z" fill="#8B855B"/>
<path opacity="0.4" d="M216.275 429.112C216.086 428.689 215.833 428.288 215.534 427.947L203.359 435.043C203.654 435.379 203.903 435.77 204.092 436.194L216.275 429.112Z" fill="#8B855B"/>
<path d="M212.227 387.019C212.227 389.418 210.321 390.261 207.968 388.902C205.615 387.544 203.709 384.501 203.709 382.102C203.709 379.703 205.615 378.86 207.968 380.218C210.321 381.572 212.227 384.62 212.227 387.019Z" fill="#292B2B"/>
<path d="M213.18 402.918C213.18 405.317 211.274 406.159 208.921 404.801C206.568 403.443 204.662 400.399 204.662 398C204.662 395.601 206.568 394.759 208.921 396.117C211.274 397.475 213.18 400.519 213.18 402.918Z" fill="#292B2B"/>
<path d="M204.256 426.907C204.256 429.306 202.35 430.148 199.997 428.79C197.645 427.432 195.738 424.388 195.738 421.989C195.738 419.59 197.645 418.748 199.997 420.106C202.346 421.464 204.256 424.508 204.256 426.907Z" fill="#292B2B"/>
<path d="M202.374 442.489C202.374 444.888 200.467 445.73 198.115 444.372C195.762 443.014 193.855 439.97 193.855 437.571C193.855 435.172 195.762 434.33 198.115 435.688C200.467 437.046 202.374 440.09 202.374 442.489Z" fill="#292B2B"/>
<path d="M201.776 476.248C201.776 477.947 200.427 478.546 198.76 477.584C197.093 476.621 195.744 474.466 195.744 472.767C195.744 471.068 197.093 470.47 198.76 471.432C200.422 472.39 201.776 474.549 201.776 476.248Z" fill="#292B2B"/>
<path d="M89.8379 343.051L104.153 334.749L111.212 335.394L96.8965 343.695L89.8379 343.051Z" fill="#555136"/>
<path d="M96.8965 343.695L111.212 335.394L130.555 346.559L116.24 354.866L96.8965 343.695Z" fill="#706B47"/>
<path d="M127.24 364.646L141.559 356.344L141.546 359.751L127.23 368.053L127.24 364.646Z" fill="#656037"/>
<path d="M116.238 354.866L130.554 346.56L141.558 356.344L127.238 364.646L116.238 354.866Z" fill="#7B764E"/>
<path d="M116.239 354.866L127.239 364.646L127.23 368.053L89.8281 346.458L89.8373 343.051L96.896 343.695L116.239 354.866Z" fill="#4F4927"/>
<path d="M109.312 313.159L110.975 330.186C111.265 333.165 113.332 336.485 115.805 337.913L117.251 338.746C119.709 340.164 121.786 339.239 122.094 336.6L124.199 318.252C119.18 317.11 114.156 315.134 109.312 313.159Z" fill="#4F4927"/>
<path d="M122.103 334.055L114.225 338.645L115.417 350.842L123.291 346.252L122.103 334.055Z" fill="#656037"/>
<path d="M121.298 331.108C120.824 330.03 120.17 329.008 119.41 328.142C118.761 327.406 118.038 326.784 117.274 326.342L115.828 325.509C114.483 324.735 113.254 324.652 112.361 325.168L104.482 329.759C105.371 329.243 106.605 329.326 107.95 330.099L109.395 330.933C110.155 331.375 110.883 331.996 111.532 332.733C112.292 333.599 112.945 334.621 113.42 335.698C113.848 336.665 114.133 337.669 114.225 338.645L122.104 334.055C122.012 333.083 121.726 332.075 121.298 331.108Z" fill="#827C52"/>
<path d="M114.226 338.645C113.935 335.666 111.854 332.356 109.395 330.933L107.95 330.1C105.491 328.681 103.4 329.579 103.106 332.245L101.867 343.02L115.413 350.843L114.226 338.645Z" fill="#4F4927"/>
<path d="M117.569 285.21C117.044 284.906 116.561 284.869 116.206 285.072L103.139 292.701C103.489 292.499 103.977 292.536 104.502 292.84L117.569 285.21Z" fill="#827C52"/>
<path d="M117.205 313.071L114.939 332.912L123.057 328.188L122.09 336.609C121.952 337.811 121.446 338.654 120.704 339.086L125.64 336.218C126.381 335.785 126.888 334.942 127.026 333.741L130.272 305.446L117.205 313.071Z" fill="#656037"/>
<path d="M125.558 289.805L117.569 285.21L104.502 292.835L112.491 297.43L125.558 289.805Z" fill="#746E45"/>
<path d="M130.273 305.442L127.4 292.444C127.34 292.186 127.253 291.933 127.142 291.684C126.954 291.256 126.696 290.851 126.396 290.51C126.139 290.22 125.853 289.971 125.554 289.801L112.486 297.43C112.786 297.605 113.071 297.849 113.329 298.139C113.628 298.48 113.886 298.881 114.075 299.314C114.185 299.562 114.273 299.815 114.328 300.073L117.201 313.072L130.273 305.442Z" fill="#827C52"/>
<path d="M114.332 300.073C114.083 298.987 113.337 297.923 112.49 297.43L104.501 292.835C103.65 292.343 102.904 292.55 102.664 293.351L99.7266 302.993L101.918 325.389L114.944 332.908L117.21 313.067L114.332 300.073Z" fill="#4F4927"/>
<path d="M121.636 282.953L114.315 247.891L104.443 253.628L111.764 288.691C112.299 290.979 111.797 292.77 110.595 293.47L120.467 287.733C121.669 287.033 122.17 285.242 121.636 282.953Z" fill="#656037"/>
<path d="M104.766 231.089L96.3946 230.048C96.1045 230.007 95.8513 230.058 95.6395 230.177L85.7676 235.915C85.9748 235.795 86.2326 235.744 86.5227 235.786L94.8936 236.826C95.1514 236.863 95.4185 236.96 95.6855 237.116L105.557 231.379C105.29 231.227 105.023 231.126 104.766 231.089Z" fill="#746E45"/>
<path d="M107.252 233.313C107.049 232.885 106.791 232.499 106.501 232.172C106.211 231.84 105.884 231.564 105.557 231.375L95.6855 237.112C96.0125 237.301 96.3394 237.573 96.6294 237.909C96.9195 238.236 97.1774 238.622 97.38 239.051L104.443 253.624L114.315 247.887L107.252 233.313Z" fill="#827C52"/>
<path d="M95.6848 237.116C96.3386 237.494 96.9694 238.194 97.3792 239.055L104.442 253.628L111.763 288.691C112.5 291.845 111.271 294.05 108.959 293.76L104.871 293.254C104.304 293.185 103.715 292.964 103.135 292.632C101.362 291.61 99.6768 289.483 98.871 287.079L86.1213 251.316L85.1452 237.512C85.0715 236.375 85.6286 235.666 86.5219 235.786L94.8928 236.826C95.1506 236.863 95.4223 236.96 95.6848 237.116Z" fill="#4F4927"/>
<path d="M91.5734 194.654L91.5274 214.951C91.5182 218.169 93.7743 222.078 96.5923 223.708L101.795 226.71C104.595 228.327 106.883 227.042 106.892 223.805L109.116 199.738C104.111 197.334 96.9053 196.275 91.5734 194.654Z" fill="#4F4927"/>
<path d="M96.5389 217.525L96.4882 234.99C96.4836 235.731 96.2212 236.261 95.793 236.505L105.665 230.768C106.093 230.519 106.356 229.994 106.36 229.253L106.411 211.788L96.5389 217.525Z" fill="#656037"/>
<path d="M95.7349 202.897C95.0764 202.514 94.4779 202.478 94.0497 202.731L84.1777 208.468C84.6059 208.219 85.2045 208.256 85.8629 208.634L94.1786 213.436L104.05 207.699L95.7349 202.897Z" fill="#954545"/>
<path d="M106.002 210.006C105.772 209.485 105.459 208.988 105.086 208.569C104.773 208.215 104.423 207.911 104.05 207.694L94.1777 213.431C94.5507 213.648 94.9052 213.947 95.2137 214.306C95.5821 214.725 95.8998 215.223 96.13 215.743C96.3879 216.332 96.5398 216.949 96.5398 217.52L106.412 211.783C106.412 211.217 106.26 210.595 106.002 210.006Z" fill="#827C52"/>
<path opacity="0.4" d="M105.085 208.569L95.2129 214.306C95.5812 214.725 95.899 215.223 96.1292 215.743L106.001 210.006C105.771 209.486 105.458 208.993 105.085 208.569Z" fill="#8B855B"/>
<path d="M94.1777 213.432C95.49 214.187 96.5444 216.015 96.5398 217.52L96.4892 234.985C96.4846 236.472 95.4255 237.098 94.1133 236.339L85.7976 231.536C84.4854 230.781 83.431 228.935 83.4356 227.448L83.4862 209.983C83.4908 208.477 84.5498 207.869 85.8621 208.629L94.1777 213.432Z" fill="#4F4927"/>
<path d="M95.4403 206.718L95.4219 213.344L106.938 206.654L106.887 223.801C106.882 225.408 106.316 226.531 105.404 227.061L110.34 224.192C111.252 223.663 111.818 222.539 111.823 220.932L111.892 197.164L95.4403 206.718Z" fill="#656037"/>
<path d="M90.8349 209.338L90.7658 233.106C90.7612 234.713 90.1949 235.837 89.2832 236.366L94.2192 233.498C95.1308 232.968 95.6972 231.845 95.7018 230.238L95.7708 206.47L90.8349 209.338Z" fill="#656037"/>
<path d="M124.084 170.025L96.5359 178.884L75.4844 191.059L106.412 191.376L124.084 170.025Z" fill="#656037"/>
<path d="M146.112 178.921L124.089 170.025L119.162 172.889C119.153 172.885 108.028 179.354 108.028 179.354C107.973 179.331 103.037 182.2 103.037 182.2L125.06 191.095L129.605 188.452C129.66 188.475 141.167 181.785 141.167 181.785C141.176 181.79 146.112 178.921 146.112 178.921Z" fill="#746E45"/>
<path d="M125.876 191.496C128.813 193.19 131.281 197.357 131.272 200.857L131.249 208.445C131.24 211.525 129.283 213.022 126.612 211.944L107.26 204.107L90.8404 209.343L90.7713 233.111C90.7621 236.348 88.4737 237.632 85.6742 236.016L80.4712 233.014C77.6532 231.389 75.3971 227.48 75.4063 224.256L75.4845 191.063L103.033 182.204L125.056 191.1C125.332 191.206 125.609 191.339 125.876 191.496Z" fill="#4F4927"/>
<path d="M151.385 184.612C150.855 183.41 150.128 182.268 149.281 181.306C148.567 180.491 147.766 179.805 146.923 179.321C146.656 179.165 146.38 179.031 146.108 178.921L125.057 191.095C125.333 191.206 125.605 191.339 125.872 191.496C126.71 191.979 127.511 192.665 128.229 193.48C129.076 194.442 129.799 195.584 130.333 196.786C130.927 198.126 131.273 199.54 131.268 200.856L131.245 208.445C131.24 210.139 130.642 211.355 129.666 211.926L150.717 199.751C151.698 199.18 152.292 197.965 152.297 196.27L152.32 188.687C152.324 187.365 151.979 185.952 151.385 184.612Z" fill="#827C52"/>
<path opacity="0.4" d="M149.284 181.307L128.232 193.481C129.08 194.443 129.803 195.585 130.337 196.787L151.388 184.613C150.854 183.411 150.127 182.269 149.284 181.307Z" fill="#8B855B"/>
<path opacity="0.4" d="M127.147 291.684C126.959 291.256 126.701 290.85 126.401 290.51L113.334 298.139C113.633 298.48 113.891 298.881 114.08 299.313L127.147 291.684Z" fill="#8B855B"/>
<path opacity="0.4" d="M96.6289 237.909L106.501 232.172C106.791 232.499 107.049 232.885 107.251 233.314L97.3794 239.051C97.1768 238.627 96.919 238.24 96.6289 237.909Z" fill="#8B855B"/>
<path d="M87.6959 228.871C87.6959 231.27 85.7897 232.112 83.4368 230.754C81.084 229.396 79.1777 226.352 79.1777 223.953C79.1777 221.554 81.084 220.712 83.4368 222.07C85.7897 223.428 87.6959 226.472 87.6959 228.871Z" fill="#292B2B"/>
<path d="M96.7897 246.818C96.7897 249.217 94.8834 250.06 92.5306 248.701C90.1777 247.343 88.2715 244.299 88.2715 241.9C88.2715 239.502 90.1777 238.659 92.5306 240.017C94.8834 241.376 96.7897 244.424 96.7897 246.818Z" fill="#292B2B"/>
<path d="M109.024 288.088C109.024 290.486 107.118 291.329 104.765 289.971C102.412 288.612 100.506 285.569 100.506 283.17C100.506 280.771 102.412 279.928 104.765 281.287C107.118 282.64 109.024 285.689 109.024 288.088Z" fill="#292B2B"/>
<path d="M112.444 304.982C112.444 307.381 110.538 308.224 108.185 306.865C105.832 305.507 103.926 302.463 103.926 300.065C103.926 297.666 105.832 296.823 108.185 298.181C110.538 299.535 112.444 302.583 112.444 304.982Z" fill="#292B2B"/>
<path d="M111.202 338.672C111.202 340.371 109.853 340.97 108.186 340.007C106.519 339.045 105.17 336.89 105.17 335.191C105.17 333.492 106.519 332.894 108.186 333.856C109.848 334.818 111.202 336.973 111.202 338.672Z" fill="#292B2B"/>
<path d="M14.7949 386.379L29.1101 378.077L36.1687 378.722L21.8535 387.024L14.7949 386.379Z" fill="#555136"/>
<path d="M21.8535 387.024L36.1687 378.722L55.512 389.887L41.1922 398.189L21.8535 387.024Z" fill="#706B47"/>
<path d="M52.1967 407.974L66.5165 399.672L66.5073 403.079L52.1875 411.381L52.1967 407.974Z" fill="#656037"/>
<path d="M41.1914 398.19L55.5112 389.888L66.5159 399.672L52.196 407.974L41.1914 398.19Z" fill="#7B764E"/>
<path d="M41.1916 398.189L52.1963 407.974L52.1871 411.381L14.7852 389.786L14.7944 386.379L21.853 387.024L41.1916 398.189Z" fill="#4F4927"/>
<path d="M34.2754 356.487L35.9376 373.515C36.2277 376.494 38.2951 379.813 40.7677 381.241L42.2134 382.074C44.6722 383.492 46.7488 382.567 47.0573 379.929L49.1615 361.58C44.1381 360.438 39.1147 358.463 34.2754 356.487Z" fill="#4F4927"/>
<path d="M47.0599 377.383L39.1816 381.973L40.3742 394.166L48.2478 389.575L47.0599 377.383Z" fill="#656037"/>
<path d="M46.2549 374.436C45.7806 373.358 45.1268 372.336 44.367 371.471C43.7178 370.734 42.9949 370.112 42.2306 369.67L40.7848 368.837C39.4403 368.063 38.2109 367.98 37.3177 368.496L29.4395 373.087C30.3281 372.571 31.5621 372.654 32.9066 373.427L34.3524 374.261C35.1167 374.703 35.8396 375.325 36.4888 376.061C37.2486 376.927 37.9024 377.949 38.3767 379.026C38.8049 379.993 39.0904 380.997 39.1824 381.973L47.0607 377.383C46.9686 376.411 46.6831 375.403 46.2549 374.436Z" fill="#827C52"/>
<path d="M39.1825 381.974C38.8925 378.995 36.8113 375.684 34.3525 374.261L32.9067 373.428C30.4479 372.01 28.3575 372.912 28.0628 375.573L26.8242 386.348L40.3705 394.171L39.1825 381.974Z" fill="#4F4927"/>
<path d="M42.526 328.533C42.0011 328.229 41.5176 328.193 41.1631 328.395L28.0957 336.025C28.4456 335.822 28.9337 335.859 29.4586 336.163L42.526 328.533Z" fill="#827C52"/>
<path d="M42.1619 356.394L39.8965 376.235L48.0141 371.511L47.0472 379.932C46.909 381.134 46.4026 381.977 45.6566 382.41L50.5926 379.541C51.3339 379.108 51.8404 378.266 51.9832 377.064L55.2293 348.77L42.1619 356.394Z" fill="#656037"/>
<path d="M50.5151 333.128L42.5264 328.533L29.459 336.163L37.4477 340.758L50.5151 333.128Z" fill="#746E45"/>
<path d="M55.2296 348.77L52.3565 335.771C52.2966 335.513 52.2091 335.26 52.1032 335.011C51.9144 334.583 51.6566 334.178 51.3573 333.842C51.0994 333.552 50.814 333.303 50.5147 333.133L37.4473 340.762C37.7466 340.937 38.032 341.181 38.2899 341.471C38.5892 341.812 38.847 342.213 39.0358 342.641C39.1463 342.89 39.2292 343.143 39.2891 343.401L42.1622 356.399L55.2296 348.77Z" fill="#827C52"/>
<path d="M39.2889 343.401C39.0357 342.314 38.2943 341.25 37.4471 340.758L29.4584 336.162C28.6112 335.67 27.8607 335.877 27.6212 336.678L24.6836 346.32L26.8753 368.716L39.9013 376.235L42.1667 356.394L39.2889 343.401Z" fill="#4F4927"/>
<path d="M46.5914 326.282L39.2704 291.219L29.3984 296.956L36.7195 332.019C37.2536 334.307 36.7517 336.098 35.55 336.798L45.4219 331.061C46.6237 330.361 47.1256 328.57 46.5914 326.282Z" fill="#656037"/>
<path d="M29.7206 274.417L21.3497 273.377C21.0596 273.335 20.8064 273.386 20.5946 273.505L10.7227 279.243C10.9299 279.123 11.1877 279.072 11.4778 279.114L19.8487 280.154C20.1065 280.191 20.3736 280.288 20.6406 280.444L30.5126 274.707C30.2455 274.551 29.9784 274.454 29.7206 274.417Z" fill="#746E45"/>
<path d="M32.207 276.642C32.0044 276.213 31.7466 275.827 31.4565 275.5C31.1618 275.168 30.8395 274.892 30.5126 274.703L20.6406 280.44C20.9675 280.629 21.2945 280.901 21.5845 281.237C21.8746 281.564 22.1325 281.95 22.3351 282.379L29.3983 296.952L39.2702 291.215L32.207 276.642Z" fill="#827C52"/>
<path d="M20.6411 280.439C21.2949 280.817 21.9257 281.517 22.3355 282.378L29.3987 296.951L36.7198 332.014C37.4565 335.168 36.2271 337.373 33.9157 337.083L29.827 336.577C29.256 336.503 28.6712 336.287 28.0911 335.955C26.3184 334.933 24.6331 332.806 23.8274 330.402L11.0776 294.64L10.1015 280.835C10.0324 279.698 10.585 278.989 11.4782 279.109L19.8491 280.149C20.107 280.191 20.3786 280.288 20.6411 280.439Z" fill="#4F4927"/>
<path d="M16.5305 237.982L16.4844 258.279C16.4752 261.497 18.7314 265.406 21.5493 267.036L26.7523 270.039C29.5518 271.655 31.8402 270.37 31.8494 267.133L34.0734 243.066C29.0683 240.662 21.8624 239.599 16.5305 237.982Z" fill="#4F4927"/>
<path d="M21.4959 260.848L21.4453 278.313C21.4453 279.054 21.1782 279.584 20.75 279.828L30.6219 274.091C31.0501 273.842 31.3126 273.317 31.3172 272.576L31.3678 255.111L21.4959 260.848Z" fill="#656037"/>
<path d="M20.6919 246.225C20.0335 245.843 19.4349 245.806 19.0067 246.059L9.13477 251.796C9.56758 251.547 10.1615 251.584 10.82 251.962L19.1356 256.764L29.0075 251.027L20.6919 246.225Z" fill="#954545"/>
<path d="M30.9583 253.334C30.7281 252.814 30.415 252.316 30.0466 251.897C29.7335 251.543 29.3836 251.239 29.0106 251.022L19.1387 256.76C19.5116 256.976 19.8616 257.275 20.1747 257.634C20.543 258.053 20.8607 258.551 21.091 259.071C21.3488 259.66 21.5008 260.277 21.5008 260.848L31.3727 255.111C31.3681 254.54 31.2161 253.923 30.9583 253.334Z" fill="#827C52"/>
<path opacity="0.4" d="M30.0418 251.897L20.1699 257.635C20.5383 258.054 20.856 258.551 21.0862 259.071L30.9581 253.334C30.7279 252.814 30.4102 252.316 30.0418 251.897Z" fill="#8B855B"/>
<path d="M19.1348 256.76C20.447 257.519 21.5015 259.343 21.4968 260.848L21.4462 278.313C21.4416 279.805 20.3826 280.427 19.0703 279.667L10.7547 274.864C9.44241 274.109 8.38799 272.263 8.39259 270.776L8.44325 253.311C8.44785 251.805 9.50687 251.198 10.8191 251.957L19.1348 256.76Z" fill="#4F4927"/>
<path d="M20.3973 250.046L20.3789 256.672L31.8946 249.982L31.8486 267.129C31.844 268.736 31.2776 269.859 30.366 270.389L35.3019 267.52C36.2136 266.991 36.7799 265.867 36.7845 264.26L36.8536 240.492L20.3973 250.046Z" fill="#656037"/>
<path d="M15.7978 252.666L15.7287 276.435C15.7241 278.042 15.1578 279.165 14.2461 279.695L19.1821 276.826C20.0937 276.296 20.6601 275.173 20.6647 273.566L20.7338 249.798L15.7978 252.666Z" fill="#656037"/>
<path d="M49.0413 213.354L21.4929 222.212L0.441406 234.387L31.3695 234.704L49.0413 213.354Z" fill="#656037"/>
<path d="M71.0648 222.249L49.0418 213.354L44.115 216.217L32.9815 222.682C32.9262 222.659 27.9902 225.528 27.9902 225.528L50.0133 234.423L54.5579 231.78C54.6131 231.804 66.1196 225.113 66.1196 225.113C66.1334 225.118 71.0648 222.249 71.0648 222.249Z" fill="#746E45"/>
<path d="M50.8326 234.82C53.7703 236.514 56.2382 240.681 56.229 244.181L56.206 251.764C56.1968 254.844 54.2399 256.341 51.5693 255.264L32.2169 247.427L15.7974 252.662L15.7283 276.43C15.7191 279.667 13.4307 280.952 10.6312 279.336L5.42821 276.333C2.61029 274.708 0.3541 270.799 0.363309 267.576L0.441595 234.382L27.99 225.523L50.013 234.419C50.2893 234.534 50.561 234.668 50.8326 234.82Z" fill="#4F4927"/>
<path d="M76.3419 227.94C75.8124 226.738 75.0849 225.596 74.2376 224.634C73.5194 223.819 72.7228 223.133 71.8802 222.65C71.6131 222.493 71.3369 222.36 71.0652 222.249L50.0137 234.423C50.2899 234.534 50.5616 234.667 50.8286 234.824C51.6667 235.307 52.4678 235.993 53.1861 236.808C54.0333 237.771 54.7562 238.913 55.2904 240.114C55.8797 241.454 56.2297 242.868 56.2251 244.185L56.202 251.768C56.1974 253.467 55.6035 254.678 54.6227 255.249L75.6742 243.075C76.655 242.504 77.2489 241.288 77.2535 239.594L77.2766 232.006C77.2812 230.689 76.9359 229.28 76.3419 227.94Z" fill="#827C52"/>
<path opacity="0.4" d="M74.241 224.635L53.1895 236.809C54.0367 237.771 54.7596 238.913 55.2937 240.115L76.3452 227.941C75.8111 226.739 75.0836 225.597 74.241 224.635Z" fill="#8B855B"/>
<path opacity="0.4" d="M52.1043 335.012C51.9156 334.584 51.6577 334.179 51.3584 333.843L38.291 341.472C38.5903 341.813 38.8482 342.214 39.0369 342.642L52.1043 335.012Z" fill="#8B855B"/>
<path opacity="0.4" d="M21.5859 281.237L31.4579 275.5C31.748 275.827 32.0058 276.214 32.2084 276.642L22.3365 282.379C22.1339 281.951 21.876 281.564 21.5859 281.237Z" fill="#8B855B"/>
<path d="M12.653 272.194C12.653 274.593 10.7467 275.436 8.39387 274.077C6.041 272.719 4.13477 269.675 4.13477 267.276C4.13477 264.878 6.041 264.035 8.39387 265.393C10.7467 266.752 12.653 269.8 12.653 272.194Z" fill="#292B2B"/>
<path d="M21.7467 290.146C21.7467 292.545 19.8405 293.388 17.4876 292.029C15.1348 290.671 13.2285 287.627 13.2285 285.229C13.2285 282.83 15.1348 281.987 17.4876 283.345C19.8405 284.704 21.7467 287.747 21.7467 290.146Z" fill="#292B2B"/>
<path d="M33.9811 331.416C33.9811 333.815 32.0749 334.657 29.722 333.299C27.3691 331.941 25.4629 328.897 25.4629 326.498C25.4629 324.099 27.3691 323.257 29.722 324.615C32.0749 325.969 33.9811 329.017 33.9811 331.416Z" fill="#292B2B"/>
<path d="M37.401 348.305C37.401 350.704 35.4948 351.547 33.1419 350.189C30.789 348.83 28.8828 345.787 28.8828 343.388C28.8828 340.989 30.789 340.146 33.1419 341.505C35.4948 342.863 37.401 345.906 37.401 348.305Z" fill="#292B2B"/>
<path d="M36.1588 382C36.1588 383.699 34.8097 384.298 33.1429 383.336C31.476 382.373 30.127 380.218 30.127 378.519C30.127 376.82 31.476 376.222 33.1429 377.184C34.8051 378.142 36.1588 380.301 36.1588 382Z" fill="#292B2B"/>
<path d="M185.053 145.626L142.291 120.937V109.177L185.053 133.866V145.626Z" fill="#5B552E"/>
<path d="M193.359 140.828L185.053 145.626V133.866L193.359 129.073V140.828Z" fill="#656037"/>
<path d="M185.053 133.866L142.291 109.177L150.597 104.384L193.359 129.073L185.053 133.866Z" fill="#78724B"/>
<path d="M255.611 186.361L212.85 161.672V149.917L255.611 174.606V186.361Z" fill="#5B552E"/>
<path d="M263.918 181.564L255.611 186.362V174.606L263.918 169.809V181.564Z" fill="#656037"/>
<path d="M255.611 174.606L212.85 149.917L221.156 145.119L263.917 169.808L255.611 174.606Z" fill="#78724B"/>
<path d="M199.736 295.874L190.514 311.216L274.149 262.929L283.367 247.592L199.736 295.874Z" fill="#292B2B"/>
<path d="M17.7773 191.408L37.1897 226.899L190.513 311.216L194.943 303.849L199.736 295.874L199.146 284.925L24.3571 180.201L17.7773 191.408Z" fill="#212322"/>
<path d="M202.178 278.911L296.297 224.21L296.352 242.789L202.228 297.485L202.178 278.911Z" fill="#656037"/>
<path d="M171.977 228.497L266.096 173.801L296.297 224.21L202.177 278.911L171.977 228.497Z" fill="#90895B"/>
<path d="M25.1602 143.678L119.284 88.9775L266.097 173.801L171.977 228.497L25.1602 143.678Z" fill="#78724B"/>
<path d="M202.177 278.91L171.977 228.496L25.1638 143.683L15.0202 164.55L15.0156 189.396L202.232 297.485L202.177 278.91Z" fill="#4F4927"/>
<path d="M259.102 177.944L239.772 166.783L160.939 212.303L180.471 223.634L187.682 237.798L266.759 192.144L259.102 177.944Z" fill="#827C52"/>
<path d="M259.101 177.944L239.771 166.783L266.758 192.144L259.101 177.944Z" fill="#4F4927"/>
<path opacity="0.4" d="M196.541 269.499L15.0195 164.697V165.724L197.48 271.069L196.541 269.499Z" fill="#35301B"/>
<path opacity="0.4" d="M296.31 237.429L202.219 291.752L15.0156 183.672V184.699L202.219 292.779L296.31 238.456V237.429Z" fill="#35301B"/>
<path d="M82.2029 205.005L39.4414 180.316V168.561L82.2029 193.245V205.005Z" fill="#5B552E"/>
<path d="M90.5141 200.207L82.2031 205.005V193.245L90.5141 188.452V200.207Z" fill="#656037"/>
<path d="M82.2029 193.245L39.4414 168.561L47.7524 163.763L90.5139 188.452L82.2029 193.245Z" fill="#78724B"/>
<path d="M152.761 245.74L110 221.051V209.296L152.761 233.985V245.74Z" fill="#5B552E"/>
<path d="M161.073 240.943L152.762 245.74V233.985L161.073 229.188V240.943Z" fill="#656037"/>
<path d="M152.761 233.985L110 209.296L118.311 204.498L161.073 229.187L152.761 233.985Z" fill="#78724B"/>
<path d="M147.428 166.747L114.272 185.892L55.1875 151.778L88.3441 132.632L147.428 166.747ZM134.094 106.217L100.937 125.362L160.026 159.476L193.183 140.331L134.094 106.217Z" fill="#404244"/>
<path d="M134.094 108.39L191.3 141.418L193.183 140.331L134.094 106.217L100.938 125.357L102.816 126.449L134.094 108.39Z" fill="#292B2B"/>
<path d="M55.1836 151.778L57.0622 152.865L88.3402 134.806L145.546 167.834L147.429 166.747L88.3402 132.633L55.1836 151.778Z" fill="#292B2B"/>
<path d="M194.395 182.32C203.281 177.19 203.281 168.87 194.395 163.741C185.508 158.611 171.096 158.611 162.21 163.741C153.323 168.87 153.323 177.19 162.21 182.32C171.096 187.449 185.504 187.449 194.395 182.32Z" fill="#827C52"/>
<path d="M155.542 172.908V175.427C155.487 178.83 157.711 182.241 162.205 184.838C171.091 189.968 185.503 189.968 194.39 184.838C198.778 182.306 201.002 178.991 201.052 175.666V173.148C201.002 176.467 198.778 179.783 194.39 182.32C185.503 187.449 171.091 187.449 162.205 182.32C157.711 179.723 155.491 176.311 155.542 172.908Z" fill="url(#paint0_linear_575_21493)"/>
<path d="M178.301 169.335C187.743 169.335 195.398 164.915 195.398 159.463C195.398 154.011 187.743 149.591 178.301 149.591C168.859 149.591 161.205 154.011 161.205 159.463C161.205 164.915 168.859 169.335 178.301 169.335Z" fill="#827C52"/>
<path d="M182.671 161.986C185.083 160.591 185.083 158.33 182.671 156.94C180.258 155.545 176.339 155.545 173.927 156.94C171.514 158.335 171.514 160.596 173.927 161.986C176.344 163.382 180.258 163.382 182.671 161.986Z" fill="#404244"/>
<path d="M161.2 159.371V170.215C161.159 172.77 162.83 175.335 166.205 177.287C172.881 181.141 183.711 181.141 190.388 177.287C193.684 175.381 195.356 172.894 195.397 170.399V159.555C195.356 162.051 193.689 164.542 190.388 166.443C183.711 170.297 172.886 170.297 166.205 166.443C162.83 164.491 161.163 161.927 161.2 159.371Z" fill="url(#paint1_linear_575_21493)"/>
<path d="M190.486 167.778C188.625 168.851 187.124 171.457 187.129 173.593C187.134 175.73 188.648 176.596 190.509 175.523C192.369 174.45 193.87 171.844 193.865 169.707C193.861 167.571 192.346 166.701 190.486 167.778Z" fill="#212121"/>
<path opacity="0.1" d="M190.361 169.095C189.169 169.781 188.206 171.452 188.211 172.824C188.216 174.196 189.182 174.749 190.375 174.058C191.568 173.368 192.535 171.701 192.53 170.329C192.525 168.961 191.554 168.404 190.361 169.095Z" fill="#D0D6D6"/>
<path opacity="0.1" d="M190.466 170.218C189.817 170.591 189.297 171.498 189.297 172.244C189.297 172.99 189.826 173.289 190.476 172.916C191.125 172.543 191.65 171.632 191.645 170.89C191.641 170.144 191.111 169.84 190.466 170.218Z" fill="#D0D6D6"/>
<path opacity="0.2" d="M190.279 170.687C190.039 170.826 189.846 171.162 189.846 171.438C189.846 171.714 190.044 171.825 190.283 171.687C190.523 171.548 190.716 171.212 190.716 170.936C190.716 170.66 190.518 170.549 190.279 170.687Z" fill="#D0D6D6"/>
<path opacity="0.5" d="M190.159 168.648C190.169 168.763 190.09 168.915 189.985 168.989C189.879 169.063 189.782 169.035 189.773 168.92C189.764 168.805 189.842 168.653 189.948 168.579C190.054 168.505 190.15 168.538 190.159 168.648ZM192.19 167.879C192.107 167.851 191.983 167.939 191.914 168.073C191.845 168.206 191.859 168.335 191.941 168.363C192.024 168.39 192.149 168.303 192.218 168.169C192.287 168.036 192.273 167.907 192.19 167.879ZM193.369 169.394C193.36 169.279 193.263 169.251 193.157 169.325C193.051 169.399 192.973 169.555 192.982 169.666C192.991 169.781 193.088 169.808 193.194 169.735C193.3 169.661 193.378 169.509 193.369 169.394ZM192.793 172.24C192.862 172.106 192.848 171.977 192.766 171.949C192.683 171.922 192.558 172.009 192.489 172.143C192.42 172.276 192.434 172.405 192.517 172.433C192.6 172.461 192.724 172.373 192.793 172.24ZM190.795 174.744C190.901 174.671 190.979 174.514 190.97 174.404C190.961 174.289 190.864 174.261 190.758 174.335C190.652 174.408 190.574 174.565 190.583 174.675C190.592 174.786 190.689 174.818 190.795 174.744ZM188.553 175.444C188.635 175.472 188.76 175.384 188.829 175.251C188.898 175.117 188.884 174.988 188.801 174.961C188.718 174.933 188.594 175.021 188.525 175.154C188.46 175.288 188.47 175.417 188.553 175.444ZM187.374 173.929C187.383 174.045 187.48 174.072 187.586 173.998C187.692 173.925 187.77 173.768 187.761 173.658C187.751 173.543 187.655 173.515 187.549 173.589C187.443 173.662 187.365 173.814 187.374 173.929ZM187.954 171.088C187.885 171.222 187.899 171.351 187.982 171.379C188.064 171.406 188.189 171.319 188.258 171.185C188.327 171.052 188.313 170.923 188.23 170.895C188.143 170.867 188.023 170.955 187.954 171.088Z" fill="#D84545"/>
<path d="M166.036 167.779C167.896 168.852 169.397 171.458 169.393 173.594C169.388 175.731 167.873 176.596 166.013 175.524C164.153 174.451 162.647 171.845 162.656 169.708C162.666 167.567 164.176 166.701 166.036 167.779Z" fill="#212121"/>
<g opacity="0.3">
<path opacity="0.1" d="M166.165 169.096C167.357 169.782 168.32 171.453 168.315 172.825C168.31 174.197 167.344 174.75 166.151 174.059C164.958 173.368 163.996 171.702 163.996 170.33C164.001 168.962 164.972 168.405 166.165 169.096Z" fill="#D0D6D6"/>
<path opacity="0.1" d="M166.06 170.219C166.709 170.592 167.234 171.499 167.229 172.245C167.229 172.991 166.7 173.29 166.05 172.917C165.401 172.544 164.876 171.633 164.881 170.891C164.881 170.145 165.41 169.841 166.06 170.219Z" fill="#D0D6D6"/>
<path opacity="0.2" d="M166.248 170.688C166.487 170.827 166.681 171.163 166.681 171.439C166.681 171.715 166.487 171.826 166.243 171.688C166.004 171.549 165.811 171.213 165.811 170.937C165.811 170.661 166.004 170.55 166.248 170.688Z" fill="#D0D6D6"/>
</g>
<path opacity="0.4" d="M166.579 168.585C166.685 168.658 166.763 168.815 166.754 168.925C166.745 169.04 166.648 169.068 166.542 168.994C166.436 168.921 166.358 168.764 166.367 168.654C166.376 168.539 166.468 168.506 166.579 168.585ZM164.309 168.17C164.378 168.304 164.502 168.391 164.585 168.364C164.668 168.336 164.682 168.207 164.613 168.074C164.544 167.94 164.419 167.852 164.337 167.88C164.249 167.908 164.24 168.037 164.309 168.17ZM163.333 169.74C163.439 169.814 163.535 169.786 163.545 169.671C163.554 169.556 163.476 169.404 163.37 169.331C163.264 169.257 163.167 169.284 163.158 169.4C163.144 169.51 163.222 169.662 163.333 169.74ZM164.01 172.434C164.093 172.406 164.106 172.277 164.037 172.144C163.968 172.01 163.844 171.923 163.761 171.95C163.678 171.978 163.664 172.107 163.733 172.241C163.802 172.374 163.922 172.462 164.01 172.434ZM165.939 174.676C165.948 174.561 165.87 174.409 165.764 174.336C165.658 174.262 165.561 174.29 165.552 174.405C165.543 174.52 165.621 174.672 165.727 174.745C165.833 174.819 165.93 174.787 165.939 174.676ZM167.997 175.155C167.928 175.022 167.808 174.934 167.721 174.962C167.638 174.989 167.624 175.118 167.693 175.252C167.762 175.385 167.887 175.473 167.969 175.445C168.052 175.418 168.066 175.289 167.997 175.155ZM168.973 173.59C168.867 173.516 168.771 173.544 168.761 173.659C168.752 173.774 168.83 173.926 168.936 173.999C169.042 174.078 169.139 174.045 169.148 173.93C169.157 173.815 169.079 173.663 168.973 173.59ZM168.296 170.896C168.213 170.924 168.2 171.053 168.269 171.186C168.338 171.32 168.462 171.407 168.545 171.38C168.628 171.352 168.642 171.223 168.573 171.089C168.504 170.956 168.379 170.868 168.296 170.896Z" fill="#BF2121"/>
<path d="M149.175 198.849C152.103 197.159 152.103 194.415 149.175 192.72C146.246 191.031 141.494 191.031 138.561 192.72C135.628 194.41 135.633 197.155 138.561 198.849C141.49 200.543 146.246 200.543 149.175 198.849Z" fill="#827C52"/>
<path d="M136.369 195.75V198.209C136.351 199.332 137.083 200.456 138.566 201.312C141.494 203.002 146.246 203.002 149.179 201.312C150.625 200.479 151.357 199.383 151.375 198.287V195.828C151.357 196.924 150.625 198.015 149.179 198.853C146.251 200.543 141.499 200.543 138.566 198.853C137.083 197.997 136.351 196.869 136.369 195.75Z" fill="url(#paint2_linear_575_21493)"/>
<path d="M147.857 188.406C150.058 187.135 150.058 185.073 147.857 183.802C145.656 182.531 142.088 182.531 139.887 183.802C137.686 185.073 137.686 187.135 139.887 188.406C142.088 189.677 145.656 189.677 147.857 188.406Z" fill="#827C52"/>
<path d="M138.235 186.071V194.861C138.221 195.704 138.773 196.551 139.883 197.191C142.084 198.462 145.652 198.462 147.853 197.191C148.94 196.565 149.492 195.741 149.506 194.921V186.131C149.492 186.955 148.945 187.775 147.853 188.401C145.652 189.672 142.084 189.672 139.883 188.401C138.773 187.761 138.221 186.914 138.235 186.071Z" fill="url(#paint3_linear_575_21493)"/>
<path opacity="0.8" d="M148.526 194.99L146.91 195.925V190.998L148.526 190.063V194.99Z" fill="#212121"/>
<path d="M139.312 194.99L140.929 195.925V190.998L139.312 190.063V194.99Z" fill="#212121"/>
<path d="M218.931 158.579C221.859 156.884 221.859 154.144 218.931 152.45C216.002 150.76 211.25 150.76 208.317 152.45C205.389 154.14 205.389 156.884 208.317 158.579C211.25 160.268 215.998 160.268 218.931 158.579Z" fill="#827C52"/>
<path d="M206.121 155.476V157.934C206.103 159.058 206.835 160.181 208.318 161.038C211.246 162.728 215.998 162.728 218.931 161.038C220.377 160.2 221.109 159.109 221.127 158.013V155.554C221.109 156.65 220.377 157.741 218.931 158.579C216.003 160.269 211.251 160.269 208.318 158.579C206.835 157.723 206.103 156.599 206.121 155.476Z" fill="url(#paint4_linear_575_21493)"/>
<path d="M217.609 148.131C219.81 146.86 219.81 144.797 217.609 143.526C215.408 142.256 211.84 142.256 209.639 143.526C207.438 144.797 207.438 146.86 209.639 148.131C211.84 149.402 215.408 149.402 217.609 148.131Z" fill="#827C52"/>
<path d="M207.987 145.801V154.586C207.973 155.429 208.525 156.276 209.635 156.916C211.836 158.187 215.404 158.187 217.605 156.916C218.692 156.29 219.244 155.466 219.258 154.646V145.861C219.244 146.685 218.697 147.504 217.605 148.131C215.404 149.401 211.836 149.401 209.635 148.131C208.525 147.486 207.973 146.643 207.987 145.801Z" fill="url(#paint5_linear_575_21493)"/>
<path opacity="0.8" d="M218.276 154.719L216.66 155.654V150.723L218.276 149.788V154.719Z" fill="#212121"/>
<path d="M209.064 154.719L210.681 155.654V150.723L209.064 149.788V154.719Z" fill="#212121"/>
<path d="M123.509 88.2506C123.74 88.9182 123.394 89.6411 122.487 90.1476C121.06 90.9488 118.785 90.9258 117.399 90.097C116.538 89.5813 116.225 88.8814 116.451 88.2275L113.191 97.6206C112.758 98.8684 113.357 100.213 115.005 101.198C117.657 102.782 122.022 102.828 124.753 101.295C126.493 100.319 127.147 98.9421 126.709 97.6575L123.509 88.2506Z" fill="url(#paint6_linear_575_21493)"/>
<path d="M122.561 87.2004C121.176 86.3716 118.901 86.3485 117.474 87.1497C116.051 87.9509 116.019 89.2677 117.4 90.0965C118.786 90.9253 121.06 90.9484 122.488 90.1472C123.915 89.346 123.947 88.0292 122.561 87.2004Z" fill="#938C61"/>
<path d="M121.221 1.61284C121.221 1.79702 121.097 1.9812 120.858 2.11934C121.35 1.83386 121.346 1.38262 120.853 1.09715C120.37 0.816278 119.578 0.811674 119.09 1.09715C118.611 1.37802 118.611 1.83847 119.094 2.11934C118.85 1.9766 118.73 1.79242 118.73 1.60364L118.8 88.6691C118.8 88.8533 118.919 89.0421 119.163 89.1848C119.656 89.4703 120.448 89.4657 120.927 89.1848C121.171 89.0421 121.291 88.8625 121.291 88.6783L121.221 1.61284Z" fill="#212322"/>
<path d="M45.1045 133.516C45.3347 134.184 44.9894 134.907 44.0823 135.413C42.6596 136.215 40.3804 136.192 38.9944 135.363C38.1334 134.852 37.8203 134.147 38.0459 133.498L34.786 142.891C34.3531 144.139 34.9563 145.483 36.6001 146.469C39.2523 148.057 43.6219 148.099 46.3523 146.565C48.0928 145.589 48.7466 144.208 48.3092 142.928L45.1045 133.516Z" fill="url(#paint7_linear_575_21493)"/>
<path d="M44.1569 132.467C42.7709 131.638 40.4963 131.615 39.069 132.416C37.6416 133.217 37.6139 134.534 38.9953 135.363C40.3812 136.192 42.6558 136.215 44.0832 135.414C45.5106 134.613 45.5428 133.296 44.1569 132.467Z" fill="#938C61"/>
<path d="M42.8159 46.8794C42.8159 47.0636 42.6916 47.2432 42.4476 47.3859C42.9402 47.1005 42.9356 46.6492 42.443 46.3638C41.9595 46.0829 41.1675 46.0783 40.6795 46.3638C40.2006 46.6446 40.2006 47.1051 40.6841 47.3859C40.44 47.2432 40.3203 47.059 40.3203 46.8702L40.3894 133.936C40.3894 134.124 40.5137 134.309 40.7531 134.451C41.2458 134.737 42.0378 134.732 42.5166 134.451C42.7607 134.309 42.8804 134.129 42.885 133.945L42.8159 46.8794Z" fill="#212322"/>
<defs>
<linearGradient id="paint0_linear_575_21493" x1="159.435" y1="180.797" x2="199.032" y2="180.797" gradientUnits="userSpaceOnUse">
<stop stop-color="#4F4927"/>
<stop offset="0.5279" stop-color="#5D5831"/>
<stop offset="1" stop-color="#656037"/>
</linearGradient>
<linearGradient id="paint1_linear_575_21493" x1="164.125" y1="169.774" x2="193.876" y2="169.774" gradientUnits="userSpaceOnUse">
<stop stop-color="#4F4927"/>
<stop offset="0.5279" stop-color="#5D5831"/>
<stop offset="1" stop-color="#656037"/>
</linearGradient>
<linearGradient id="paint2_linear_575_21493" x1="137.651" y1="199.163" x2="150.706" y2="199.163" gradientUnits="userSpaceOnUse">
<stop stop-color="#4F4927"/>
<stop offset="0.5279" stop-color="#5D5831"/>
<stop offset="1" stop-color="#656037"/>
</linearGradient>
<linearGradient id="paint3_linear_575_21493" x1="139.198" y1="192.108" x2="149.007" y2="192.108" gradientUnits="userSpaceOnUse">
<stop stop-color="#4F4927"/>
<stop offset="0.5279" stop-color="#5D5831"/>
<stop offset="1" stop-color="#656037"/>
</linearGradient>
<linearGradient id="paint4_linear_575_21493" x1="207.404" y1="158.891" x2="220.46" y2="158.891" gradientUnits="userSpaceOnUse">
<stop stop-color="#4F4927"/>
<stop offset="0.5279" stop-color="#5D5831"/>
<stop offset="1" stop-color="#656037"/>
</linearGradient>
<linearGradient id="paint5_linear_575_21493" x1="208.951" y1="151.836" x2="218.761" y2="151.836" gradientUnits="userSpaceOnUse">
<stop stop-color="#4F4927"/>
<stop offset="0.5279" stop-color="#5D5831"/>
<stop offset="1" stop-color="#656037"/>
</linearGradient>
<linearGradient id="paint6_linear_575_21493" x1="113.058" y1="95.3225" x2="126.848" y2="95.3225" gradientUnits="userSpaceOnUse">
<stop stop-color="#4F4927"/>
<stop offset="0.2373" stop-color="#554F2B"/>
<stop offset="1" stop-color="#656037"/>
</linearGradient>
<linearGradient id="paint7_linear_575_21493" x1="34.6534" y1="140.588" x2="48.4437" y2="140.588" gradientUnits="userSpaceOnUse">
<stop stop-color="#4F4927"/>
<stop offset="0.2373" stop-color="#554F2B"/>
<stop offset="1" stop-color="#656037"/>
</linearGradient>
</defs>
</svg>
