<svg width="497" height="485" viewBox="0 0 497 485" fill="none" xmlns="http://www.w3.org/2000/svg">
<path d="M496.125 69.1372L481.819 202.645L296.763 208.49H296.75C283.003 203.494 250.567 207.417 250.567 207.417L249.205 208.875L223.989 209.857L160.394 225.469C160.394 225.469 125.743 137.94 212.788 99.764L496.125 69.1372Z" fill="#FF8137"/>
<path d="M273.044 224.439H307.442L302.866 191.749L314.597 195.835L319.703 234.999L270.32 232.274L273.044 224.439Z" fill="#FF8137"/>
<path d="M377.601 295.966L346.608 286.089L348.353 266.535C348.353 266.535 339.297 234.998 352.265 214.281L353.421 197.874L369.086 195.833L377.601 295.966Z" fill="#FF8137"/>
<path d="M366.362 88.2144H365V202.988H366.362V88.2144Z" fill="#2A4A55"/>
<path d="M367.727 88.2144H363.641V202.988H367.727V88.2144Z" fill="#2A4A55"/>
<path d="M412.343 110.345C412.343 118.809 403.194 125.673 391.909 125.673C380.622 125.673 371.473 118.812 371.473 110.345C371.473 101.881 380.622 95.0195 391.909 95.0195C403.191 95.0222 412.343 101.881 412.343 110.345Z" fill="#2A4A55"/>
<path d="M482.643 105.582C482.643 114.043 473.494 120.905 462.206 120.905C450.921 120.905 441.77 114.046 441.77 105.582C441.77 97.1149 450.921 90.2563 462.206 90.2563C473.494 90.2563 482.643 97.1149 482.643 105.582Z" fill="#2A4A55"/>
<path d="M412.343 173.354C412.343 181.818 403.194 188.685 391.909 188.685C380.622 188.685 371.473 181.821 371.473 173.354C371.473 164.892 380.622 158.028 391.909 158.028C403.191 158.028 412.343 164.892 412.343 173.354Z" fill="#2A4A55"/>
<path d="M479.308 168.585C479.308 177.05 470.156 183.916 458.874 183.916C447.587 183.916 438.438 177.052 438.438 168.585C438.438 160.124 447.587 153.263 458.874 153.263C470.159 153.263 479.308 160.124 479.308 168.585Z" fill="#2A4A55"/>
<path d="M254.591 140.549L248.961 83.8819L305.59 74.7969V135.997L254.591 140.549ZM254.894 88.4499L259.483 134.643L300.139 131.02V81.1926L254.894 88.4499Z" fill="#2A4A55"/>
<path d="M262.997 130.8L258.59 92.2231L296.273 90.0181L298.939 125.309L262.997 130.8ZM261.619 94.7733L265.382 127.683L296.027 122.997L293.752 92.8947L261.619 94.7733Z" fill="#2A4A55"/>
<path d="M280.104 81.8872L274.664 82.2383L278.11 135.627L283.549 135.276L280.104 81.8872Z" fill="#2A4A55"/>
<path d="M319.556 106.081L254.316 109.007L254.56 114.45L319.8 111.524L319.556 106.081Z" fill="#2A4A55"/>
<path d="M228.858 197.216C223.295 190.02 219.476 179.723 221.352 170.606C221.74 168.708 224.547 166.054 222.92 165.155C223.945 165.722 224.148 167.66 224.314 168.647C224.892 172.07 224.057 177.392 221.071 179.619C222.709 179.498 224.346 179.372 225.984 179.252C229.163 176.616 231.456 176.664 232.872 179.41C233.712 180.831 232.95 182.95 232.524 184.379C231.472 187.914 228.561 192.014 225.248 193.7C221.938 195.391 227.143 195.209 228.494 194.516C233.782 191.821 242.944 181.468 236.83 175.867C232.637 172.027 222.939 176.188 220.461 180.213C219.762 181.342 224.823 180.258 225.374 179.846C230.704 175.878 233.164 159.431 222.765 163.244C208.312 168.537 217.343 191.066 223.594 199.151C224.44 200.245 229.763 198.385 228.858 197.216Z" fill="#2A4A55"/>
<path d="M243.87 178.936C244.695 178.725 244.333 178.931 243.79 178.42C243.266 177.922 242.947 177.245 242.656 176.6C241.96 175.059 241.703 173.317 241.526 171.647C241.294 169.375 241.235 164.333 243.437 162.795C242.551 163.415 242.883 162.966 243.581 163.496C244.143 163.924 244.542 164.561 244.847 165.179C245.583 166.653 245.789 168.462 245.778 170.084C245.768 171.845 244.893 178.262 242.332 178.326C241.05 178.361 239.412 178.717 238.642 179.867C237.916 180.949 239.249 181.585 240.172 181.564C246.597 181.39 250.499 176.849 251.294 170.705C251.947 165.639 249.988 159.393 243.887 159.862C232.286 160.745 233.225 184.757 244.641 181.808C248.016 180.935 247.234 178.067 243.87 178.936Z" fill="#2A4A55"/>
<path d="M257.364 171.748C258.188 171.537 257.83 171.746 257.284 171.229C256.759 170.734 256.441 170.057 256.152 169.412C255.456 167.868 255.194 166.129 255.023 164.459C254.787 162.187 254.728 157.145 256.931 155.607C256.042 156.227 256.377 155.775 257.078 156.308C257.637 156.731 258.036 157.373 258.343 157.991C259.077 159.465 259.28 161.274 259.272 162.896C259.259 164.657 258.381 171.069 255.825 171.138C254.544 171.173 252.906 171.529 252.135 172.677C251.41 173.758 252.743 174.4 253.666 174.371C260.088 174.208 263.995 169.661 264.787 163.517C265.438 158.451 263.476 152.211 257.377 152.674C245.78 153.557 246.716 177.569 258.135 174.614C261.512 173.747 260.73 170.876 257.364 171.748Z" fill="#2A4A55"/>
<path d="M270.655 165.246C270.013 162.206 269.397 159.169 268.94 156.096C268.637 154.076 268.519 152.042 268.552 150.003C268.57 148.866 269.325 147.71 268.343 148.293C267.401 148.55 266.459 148.796 265.52 149.051C264.291 149.005 264.896 148.882 265.581 149.982C266.258 151.068 266.767 152.27 267.31 153.431C268.086 155.09 268.798 156.824 269.788 158.379C270.981 160.258 274.661 158.574 275.185 156.934C275.79 155.034 275.838 152.915 276.101 150.945C276.248 149.824 276.451 148.721 276.695 147.614C276.807 147.089 276.968 146.573 277.174 146.072C277.845 144.4 274.233 145.457 275.183 146.747C277.736 150.204 277.053 157.274 277.056 161.328C277.059 164.055 282.697 163.041 282.697 160.796C282.692 156.121 283.783 144.303 277.864 142.674C269.89 140.479 270.866 153.319 269.544 157.467C271.343 156.982 273.144 156.506 274.942 156.022C273.01 152.984 271.597 144.889 266.836 145.339C258.921 146.091 264.171 162.54 265.062 166.752C265.554 169.094 271.163 167.651 270.655 165.246Z" fill="#2A4A55"/>
<path d="M285.741 196.871C282.18 189.019 280.959 179.415 283.638 171.138C284.401 168.781 287.941 162.663 288.115 168.128C288.222 171.593 286.022 177.127 282.688 178.561C284.077 178.634 285.463 178.711 286.852 178.786C290.454 175.195 294.358 180.491 293.593 183.739C292.718 187.467 287.885 192.019 284.272 192.894C280.975 193.689 281.486 195.509 284.765 194.719C290.804 193.258 301.391 186.308 299.108 178.917C297.122 172.495 284.933 176.011 281.773 179.164C280.282 180.649 285.474 179.581 285.937 179.38C292.174 176.702 298.685 159.966 287.443 162.982C273.046 166.838 275.54 188.219 280.146 198.375C280.788 199.79 286.21 197.909 285.741 196.871Z" fill="#2A4A55"/>
<path d="M305.693 182.87C303.282 182.915 303.67 177.119 303.807 175.776C304.072 173.11 304.931 168.853 307.323 167.21C306.36 167.871 306.707 167.293 307.518 167.935C308.094 168.398 308.383 169.07 308.626 169.739C309.212 171.355 308.982 173.172 308.658 174.812C308.251 176.884 306.325 182.418 303.502 181.829C301.676 181.446 296.884 184.248 300.087 184.92C306.255 186.204 311.123 182.099 313.448 176.728C315.394 172.238 315.313 164.438 308.832 164.205C302.806 163.988 299.736 169.244 298.538 174.44C297.553 178.706 297.486 186.215 303.534 186.102C304.813 186.081 306.459 185.709 307.224 184.561C307.952 183.475 306.611 182.851 305.693 182.87Z" fill="#2A4A55"/>
<path d="M320.493 179.016C318.082 179.059 318.472 173.263 318.604 171.925C318.869 169.254 319.728 165 322.117 163.359C321.157 164.015 321.502 163.437 322.313 164.084C322.891 164.547 323.18 165.216 323.42 165.883C324.009 167.502 323.774 169.316 323.455 170.959C323.046 173.028 321.122 178.567 318.299 177.973C316.476 177.593 311.683 180.397 314.884 181.066C321.055 182.353 325.917 178.248 328.245 172.872C330.191 168.387 330.11 160.581 323.629 160.351C317.603 160.132 314.533 165.393 313.337 170.584C312.355 174.855 312.286 182.359 318.331 182.252C319.61 182.225 321.256 181.856 322.021 180.71C322.751 179.619 321.413 179 320.493 179.016Z" fill="#2A4A55"/>
<path d="M333.736 175.725C333.827 172.329 333.939 168.944 334.287 165.567C334.442 164.039 334.715 162.535 335.044 161.036C335.183 160.434 335.347 159.838 335.528 159.244C336.181 157.017 331.616 158.168 332.095 159.211C333.527 162.326 333.42 166.008 334.546 169.23C335.32 171.451 339.109 170.14 339.992 168.698C341.004 167.055 341.525 165.05 342.213 163.252C342.655 162.093 343.15 160.962 343.701 159.851C343.896 159.466 344.11 159.094 344.341 158.724C345.186 157.33 341.871 157.782 342.451 159.04C344.335 163.126 341.919 170.113 340.934 174.253C340.337 176.75 346.037 175.971 346.572 173.721C347.407 170.226 351.56 156.541 345.759 155.219C338.191 153.498 337.426 163.822 334.694 168.27C336.511 168.093 338.325 167.914 340.142 167.737C339.077 164.678 339.377 155.904 335.009 155.535C326.963 154.868 328.218 171.663 328.097 176.266C328.025 178.974 333.677 177.984 333.736 175.725Z" fill="#2A4A55"/>
<path d="M319.703 124.825C314.929 124.825 311.188 118.464 311.188 110.348C311.188 102.234 314.929 95.876 319.703 95.876C324.479 95.876 328.218 102.234 328.218 110.348C328.218 118.461 324.479 124.825 319.703 124.825ZM319.703 98.5975C316.965 98.5975 313.912 103.425 313.912 110.348C313.912 117.276 316.965 122.098 319.703 122.098C322.44 122.098 325.493 117.276 325.493 110.348C325.493 103.422 322.443 98.5975 319.703 98.5975Z" fill="#2A4A55"/>
<path d="M322.426 108.951C322.426 112.598 321.436 115.558 320.213 115.558C318.99 115.558 318 112.601 318 108.951C318 105.303 318.99 102.344 320.213 102.344C321.439 102.344 322.426 105.303 322.426 108.951Z" fill="#2A4A55"/>
<path d="M208.332 48.0235H218.549C212.215 52.2302 205.512 55.5939 198.658 58.2351C198.658 58.2351 105.477 177.783 69.3086 130.741L91.1715 47.6783C136.128 6.13068 225.02 0 225.02 0L208.332 26.9072L226.724 21.119L208.332 48.0235Z" fill="#2A4A55"/>
<path d="M204.584 173.354C201.098 179.035 189.232 181.663 179.015 182.88C179.039 183.217 179.039 183.56 179.039 183.916C178.962 188.222 172.459 189.311 164.642 189.075C165.119 190.33 165.06 192.139 166.221 193.26C210.544 236.194 137.454 235.001 137.454 235.001L115.436 205.953L116.036 185.275C116.036 185.275 94.2369 193.451 90.1506 189.701C86.0644 185.955 90.1506 156.554 90.1506 156.554C90.1506 156.554 62.5637 166.881 54.0487 152.237C48.8332 143.273 57.2786 133.032 69.3073 130.741C76.9205 129.283 85.968 131.014 93.8944 138.274L105.134 64.0284C105.134 64.0284 154.993 75.2248 198.657 58.2349C208.044 76.9267 211.981 90.1569 212.784 99.761C214.745 123.098 198.208 125.223 196.069 132.823C193.005 143.725 211.058 162.797 204.584 173.354Z" fill="#FDC345"/>
<path d="M147.498 137.33C160.972 119.805 172.503 100.979 183.67 81.9365C188.829 73.1298 166.576 74.0825 163.94 74.4839C153.921 76.0012 142.002 79.8359 136.612 89.036C126.604 106.109 116.053 122.837 103.984 138.539C97.3206 147.21 109.662 149.65 116.021 149.482C126.064 149.203 140.955 145.842 147.498 137.33Z" fill="#707346"/>
<path d="M118.608 110.984C123.676 99.7291 130.479 89.3462 139.607 80.9757C142.944 77.917 136.666 77.6602 134.961 77.8047C130.623 78.1739 125.062 79.461 121.747 82.501C112.036 91.4067 104.54 102.499 99.1481 114.482C97.687 117.731 106.012 116.524 107.034 116.339C110.184 115.774 117.069 114.407 118.608 110.984Z" fill="#707346"/>
<path d="M109.308 157.892C114.93 151.451 124.457 150.565 132.349 151.831C136.772 152.538 141.021 154.189 145.086 156.006C147.278 156.988 149.368 158.195 151.453 159.385C153.813 160.734 154.104 159.76 152.932 161.245C150.254 164.646 147.578 168.048 144.896 171.452C144.222 172.305 145.911 172.112 146.323 172.059C155.394 170.868 176.644 170.183 177.065 184.441C177.313 192.787 144.872 185.728 139.518 184.497C138.584 184.286 135.126 185.781 136.282 186.046C143.352 187.665 150.559 188.821 157.779 189.533C164.3 190.175 174.752 191.286 179.949 186.116C182.216 183.857 180.795 179.196 179.122 177.052C176.262 173.392 171.959 171.877 167.557 170.924C160.944 169.495 153.735 169.683 147.051 170.56C147.524 170.761 148 170.964 148.477 171.168C151.428 167.421 154.38 163.675 157.334 159.931C157.449 159.781 157.661 159.546 157.401 159.391C143.326 150.785 118.942 143.043 105.733 158.162C104.898 159.12 108.679 158.612 109.308 157.892Z" fill="#2A4A55"/>
<path d="M106.205 144.17C101.98 149.035 97.4762 160.052 101.118 166.338C104.214 171.681 111.378 169.024 115.876 167.298C117.142 166.814 116.021 165.735 114.999 166.126C109.973 168.05 103.457 169.955 102.234 162.829C101.196 156.803 103.963 149.243 107.864 144.756C108.681 143.811 106.797 143.493 106.205 144.17Z" fill="#2A4A55"/>
<path d="M164.069 113.508C170.751 123.321 169.654 136.46 168.005 147.595C169.378 147.164 170.751 146.736 172.124 146.308C165.519 144.742 158.918 143.171 152.313 141.606C150.582 141.194 149.204 141.555 147.582 142.264C145.048 143.375 140.103 145.05 139.736 141.255C139.613 139.979 140.218 138.745 140.758 137.651C142.573 134.011 146.571 137.67 148.251 138.927C149.268 139.69 153.22 137.881 152.541 137.37C148.537 134.367 141.941 132.221 137.788 136.572C134.569 139.947 133.782 146.452 140.135 145.708C143.199 145.352 146.07 144.533 148.941 143.41C151.858 142.267 150.081 143.739 147.788 143.193C148.829 143.439 149.875 143.69 150.916 143.934C156.739 145.317 162.562 146.698 168.383 148.082C169.167 148.269 172.338 147.886 172.498 146.797C174.171 135.507 175.404 122.242 168.626 112.288C167.853 111.153 163.7 112.967 164.069 113.508Z" fill="#2A4A55"/>
<path d="M174.523 121.954C177.143 116.299 186.635 114.758 191.495 118.207C192.469 118.903 195.95 117.332 195.195 116.794C188.543 112.071 174.162 114.921 170.614 122.585C170.226 123.415 174.02 123.04 174.523 121.954Z" fill="#2A4A55"/>
<path d="M198.703 90.1205L168.766 108.84L172.376 114.615L202.313 95.895L198.703 90.1205Z" fill="#2A4A55"/>
<path d="M126.934 110.345L158.949 118.913C158.949 118.913 131.02 145.087 126.934 110.345Z" fill="#F1E7CE"/>
<path d="M119.131 102.638L117.223 109.179L161.763 122.174L163.672 115.634L119.131 102.638Z" fill="#2A4A55"/>
<path d="M154.461 118.79C154.461 120.84 152.261 122.497 149.545 122.497C146.829 122.497 144.629 120.84 144.629 118.79C144.629 116.743 146.829 115.082 149.545 115.082C152.261 115.082 154.461 116.743 154.461 118.79Z" fill="#2A4A55"/>
<path d="M160.256 144.408L148.953 156.062L150.081 157.155L161.384 145.501L160.256 144.408Z" fill="#2A4A55"/>
<path d="M54.6172 150.249C54.6172 150.249 56.2656 140.244 66.9642 139.283C77.6656 138.328 85.905 143.094 85.1156 149.187C84.3315 155.275 65.7627 159.23 69.9346 148.59L64.1919 149.235L71.9282 147.169C71.9282 147.169 67.3309 154.116 75.4365 154.156C83.5421 154.199 86.4268 147.046 81.3584 143.514C76.2874 139.987 62.4043 136.404 54.6172 150.249Z" fill="#2A4A55"/>
<path d="M264.868 419.254L240.348 473.409L355.804 461.487C355.804 461.487 350.695 406.313 282.92 452.632L289.393 416.87" fill="#707346"/>
<path d="M237.283 471.704L358.53 457.738L360.232 469.999L264.53 480.556C264.53 480.556 257.04 466.932 251.249 480.556H234.559L237.283 471.704Z" fill="#2A4A55"/>
<path d="M289.036 432.334L270.875 437.797L271.659 440.403L289.82 434.94L289.036 432.334Z" fill="#2A4A55"/>
<path d="M289.022 439.664L270.855 445.792L271.727 448.375L289.893 442.248L289.022 439.664Z" fill="#2A4A55"/>
<path d="M272.793 461.366C266.357 461.366 261.66 460.764 261.053 460.679L259.418 460.459L272.434 421.885L275.014 422.754L263.068 458.155C271.516 458.939 309.529 461.056 313.933 436.159L316.615 436.635C312.831 458.019 287.971 461.364 272.793 461.366Z" fill="#2A4A55"/>
<path d="M293.501 443.309L284.621 458.319L286.966 459.706L295.846 444.696L293.501 443.309Z" fill="#2A4A55"/>
<path d="M301.546 440.488L296.105 455.631L298.669 456.552L304.109 441.409L301.546 440.488Z" fill="#2A4A55"/>
<path d="M57.1126 432.201L35.3139 419.597L40.7623 456.042C40.7623 456.042 62.9008 439.012 66.9897 470.685C66.9897 470.685 23.0552 479.542 12.8355 466.938C2.61856 454.34 17.6041 385.54 17.6041 385.54C17.6041 385.54 35.9963 380.429 64.6054 408.361" fill="#707346"/>
<path d="M69.3758 467.278L73.8019 480.559C73.8019 480.559 23.7554 490.099 9.27286 478.172C-5.21232 466.256 1.60077 408.358 1.60077 408.358C1.60077 408.358 16.9262 403.731 3.98241 395.652L7.38895 378.387L22.032 382.47C22.032 382.47 6.7039 455.354 16.9235 465.231C27.1459 475.113 69.3758 467.278 69.3758 467.278Z" fill="#2A4A55"/>
<path d="M32.1129 411.848L29.8164 413.313L38.2183 426.481L40.5148 425.015L32.1129 411.848Z" fill="#2A4A55"/>
<path d="M41.8689 412.129L39.3164 413.082L44.9916 428.297L47.5441 427.344L41.8689 412.129Z" fill="#2A4A55"/>
<path d="M35.7446 453.026C33.8955 453.026 32.2364 452.472 30.7753 451.367C19.9161 443.141 25.549 405.326 25.7952 403.723L26.0735 401.906L63.8292 419.953L62.6544 422.41L28.225 405.958C26.6596 417.601 24.8961 443.494 32.4183 449.191C34.3424 450.65 36.815 450.668 39.9727 449.234L41.0993 451.715C39.1779 452.587 37.385 453.026 35.7446 453.026Z" fill="#2A4A55"/>
<path d="M26.1504 428.244L24.9297 430.679L38.8101 437.636L40.0308 435.201L26.1504 428.244Z" fill="#2A4A55"/>
<path d="M40.5377 442.64H27.6367V445.367H40.5377V442.64Z" fill="#2A4A55"/>
<path d="M175.635 370.211H257.036C257.036 370.211 225.361 419.597 231.831 430.496C238.302 441.39 311.528 416.87 311.528 416.87L323.787 316.06C323.787 316.06 270.657 312.311 192.663 337.513L138.511 325.257L134.085 422.321C134.085 422.321 102.412 382.815 72.4379 379.751C42.4667 376.687 53.366 442.418 53.366 442.418L204.242 475.453C204.242 475.453 198.451 376.687 172.568 356.591" fill="#4891A9"/>
<path d="M151.794 450.018C143.622 457.291 129.548 450.931 123.188 444.118C113.201 433.67 109.115 418.235 100.939 406.884C97.3027 401.888 89.5797 387.349 82.3171 391.898C79.1433 393.715 79.1433 405.522 75.0571 404.609C71.1341 403.817 68.26 391.574 66.9648 380.019C68.6266 379.637 70.4383 379.546 72.4426 379.749C102.414 382.816 134.09 422.319 134.09 422.319L135.858 383.573C143.421 394.649 150.697 406.571 154.074 420.044C155.883 427.77 158.607 443.665 151.794 450.018Z" fill="#2A4A55"/>
<path d="M283.94 396.886C277.579 409.144 264.418 418.235 254.421 426.405C251.71 428.61 249.066 430.817 246.436 433.014C238.956 433.71 233.412 433.154 231.833 430.496C225.362 419.597 257.038 370.211 257.038 370.211H228.02C229.518 366.149 231.204 362.625 232.173 361.017C237.174 351.03 244.881 344.674 254.884 339.218C259.869 336.943 268.954 330.59 275.318 331.958C296.201 337.406 267.595 375.555 265.318 385.537C273.49 388.713 292.112 381.903 283.94 396.886Z" fill="#2A4A55"/>
<path d="M320.969 339.301L312.344 410.17C300.562 400.127 293.709 379.567 292.114 366.016C290.302 350.567 293.925 338.766 310.736 338.306C313.776 338.306 317.306 338.648 320.969 339.301Z" fill="#2A4A55"/>
<path d="M283.192 317.775C271.53 321.848 260.318 328.359 250.794 334.222C240.797 340.131 232.172 347.396 222.188 353.757C217.186 356.928 212.648 360.567 211.288 353.757C210.622 349.705 216.71 338.439 223.7 328.594H223.713C247.024 322.707 267.182 319.507 283.192 317.775Z" fill="#2A4A55"/>
<path d="M167.23 382.366C164.587 390.892 148.416 383.415 136.234 375.24L137.176 354.546C141.958 356.864 146.454 360.134 149.984 362.834C153.607 365.553 169.056 376.912 167.23 382.366Z" fill="#2A4A55"/>
<path d="M110.924 437.756C108.65 441.84 101.837 439.118 98.2133 438.669C89.1256 436.857 80.9504 434.133 72.7779 430.496C70.217 429.565 67.1797 427.917 64.0969 426.844C62.9703 422.988 62.5609 419.212 63.2406 417.32C68.2421 403.696 95.0235 417.783 101.837 423.231C104.114 425.495 112.286 433.67 110.924 437.756Z" fill="#2A4A55"/>
<path d="M179.488 426.408C179.119 434.526 177.853 442.359 176.667 450.384C169.828 446.231 165.048 437.73 163.14 430.496C158.604 415.061 168.142 422.768 176.314 426.857C177.227 420.51 171.778 413.231 170.866 406.883C169.953 400.975 168.589 385.987 176.314 395.989C181.763 403.247 179.488 417.783 179.488 426.408Z" fill="#2A4A55"/>
<path d="M279.379 416.284C279.582 410.427 290.359 398.821 294.389 403.247C297.196 406.054 286.949 412.062 279.379 416.284Z" fill="#2A4A55"/>
<path d="M297.114 329.684C300.288 331.046 303.927 332.408 307.101 334.22C304.39 337.257 299.921 337.286 295.765 336.914C288.926 334.53 283.207 329.954 290.301 322.871C296.648 316.51 310.735 320.144 316.636 325.145C310.738 327.406 302.565 326.05 297.114 329.684Z" fill="#2A4A55"/>
<path d="M53.3672 442.415L204.243 475.45C204.243 475.45 198.452 376.685 172.57 356.588L201.291 471.589L53.3672 442.415Z" fill="#2A4A55"/>
<path d="M359.549 238.407C358.214 243.35 354.334 242.673 350.884 238.185L348.353 266.538C277.797 352.159 234.898 295.286 234.898 295.286L238.305 252.368L250.566 245.9L270.321 260.546L341.505 245.9C341.505 245.9 332.65 211.84 344.229 211.16C347.32 210.986 350.02 212.209 352.268 214.283C358.473 219.932 361.291 231.907 359.549 238.407Z" fill="#FDC345"/>
<path d="M320.383 274.167C313.233 284.723 300.286 272.805 292.117 271.1C281.22 268.716 271.683 281.317 262.828 269.738C259.882 265.609 257.157 257.733 256.438 250.246L270.318 260.543L321.403 250.042C323.664 258.814 324.552 267.916 320.383 274.167Z" fill="#707346"/>
<path d="M317.973 296.533C307.767 304.259 298.382 308.92 289.883 311.411C294.705 303.702 301.815 293.921 309.145 292.556C313.777 291.62 316.504 293.322 317.973 296.533Z" fill="#707346"/>
<path d="M274.473 313.785C263.983 313.908 255.414 310.775 248.957 307.039C253.113 299.372 258.55 292.725 264.866 288.47C277.446 280.161 275.308 299.466 274.473 313.785Z" fill="#707346"/>
<path d="M285.266 289.166C290.144 282.422 297.704 276.484 299.612 280.297C301.75 284.563 292.333 287.678 285.266 289.166Z" fill="#707346"/>
<path d="M340.18 246.245C339.907 245.191 333.56 220.427 339.351 212.463C340.549 210.815 342.163 209.919 344.143 209.801C348.216 209.563 351.957 211.447 355.048 215.241C360.507 221.947 362.463 232.817 360.866 238.76C359.718 243.031 356.988 243.278 355.872 243.187C350.948 242.793 344.823 233.987 343.549 221.516L346.26 221.241C347.419 232.587 352.856 240.211 356.092 240.47C357.076 240.567 357.78 239.735 358.235 238.051C359.629 232.865 357.796 222.929 352.937 216.959C350.386 213.823 347.467 212.33 344.301 212.52C343.142 212.584 342.267 213.079 341.553 214.064C337.37 219.812 341.044 238.747 342.816 245.558L340.18 246.245Z" fill="#2A4A55"/>
<path d="M363.98 218.993L360.062 274.167L377.604 279.308L388.843 229.213L363.98 218.993Z" fill="#FDC345"/>
<path d="M361.598 258.603L360.547 261.116L379.637 269.103L380.688 266.59L361.598 258.603Z" fill="#2A4A55"/>
<path d="M362.941 241.951L361.719 244.386L382.795 254.97L384.018 252.535L362.941 241.951Z" fill="#2A4A55"/>
<path d="M363.506 230.931L362.586 233.495L385.833 241.841L386.754 239.277L363.506 230.931Z" fill="#2A4A55"/>
<path d="M226.112 233.54L172.571 318.781C172.571 318.781 66.5558 217.791 62.9727 219.643C63.9815 210.625 71.2388 197.387 108.882 210.818L102.751 197.534H140.555V224.099C140.555 224.099 174.955 216.606 174.615 215.581C174.399 214.928 169.657 202.364 166.223 193.255L196.414 188.679L190.963 211.152L223.988 209.849C225.676 215.463 226.739 223.149 226.112 233.54Z" fill="#2A4A55"/>
<path d="M280.537 220.013C280.537 220.013 285.306 257.479 271 265.997C256.696 274.512 247.499 256.46 247.499 256.46C247.499 256.46 249.883 339.9 177.679 351.482C105.478 363.061 94.5763 286.431 94.5763 286.431C94.5763 286.431 49.3492 302.15 39.4025 268.721C30.9303 240.235 52.0466 225.292 62.9727 219.649C66.5532 217.797 69.0339 216.954 69.0339 216.954L171.209 292.222L226.112 233.543L249.204 208.872L250.566 207.414C250.566 207.414 283.004 203.491 296.748 208.487H296.761C298.696 209.183 300.262 210.071 301.311 211.158C309.826 220.013 280.537 220.013 280.537 220.013Z" fill="#FDC345"/>
<path d="M114.102 274.274C104.118 281.084 82.3192 254.303 75.0592 250.219C62.7951 243.853 57.799 261.119 48.7113 256.117C45.1415 254.057 43.1559 245.124 43.0703 236.88C48.6712 228.145 57.2397 222.614 62.9744 219.644C66.5549 217.792 69.0355 216.949 69.0355 216.949L117.003 252.285C118.501 262.259 118.354 271.186 114.102 274.274Z" fill="#707346"/>
<path d="M267.133 267.723C255.062 271.293 247.502 256.457 247.502 256.457C247.502 256.457 249.697 333.213 186.184 349.694C185.245 334.792 186.974 318.348 194.943 311.524C206.295 301.524 215.38 322.87 219.915 302.434C224.004 282.912 225.816 244.3 251.698 239.767C263.411 237.902 266.547 252.754 267.133 267.723Z" fill="#707346"/>
<path d="M160.398 352.598C138.845 351.793 124.159 342.028 114.242 330.243C111.039 321.795 108.574 312.584 110.932 307.885C116.833 296.076 135.005 325.595 140.903 329.234C140.903 327.867 142.265 324.682 142.715 323.32C149.525 328.321 154.077 340.577 158.163 347.843C158.923 349.422 159.659 351.017 160.398 352.598Z" fill="#707346"/>
<path d="M146.801 307.885C144.743 304.398 142.608 300.079 140.914 295.503C142.482 293.239 142.985 287.994 144.077 286.538C151.353 277.464 155.889 295.176 157.251 301.987C159.973 314.248 154.527 321.508 146.801 307.885Z" fill="#707346"/>
<path d="M87.237 288.376C81.885 289.538 74.2423 290.638 66.5461 289.862C66.8057 279.99 64.5552 262.874 75.5107 269.294C81.0233 272.385 84.7456 279.998 87.237 288.376Z" fill="#707346"/>
<path d="M62.6491 289.303C57.8805 288.404 53.251 286.659 49.2852 283.638C49.4083 281.673 49.7909 280.108 50.5402 279.278C55.1724 274.306 59.3389 282.902 62.6491 289.303Z" fill="#707346"/>
<path d="M272.774 216.553L258.801 263.891L261.414 264.662L275.386 217.324L272.774 216.553Z" fill="#2A4A55"/>
<path d="M270.667 230.925L269.984 233.562L280.505 236.286L281.188 233.649L270.667 230.925Z" fill="#2A4A55"/>
<path d="M264.698 247.887L263.781 250.452L278.317 255.645L279.233 253.079L264.698 247.887Z" fill="#2A4A55"/>
</svg>
