<svg width="349" height="394" viewBox="0 0 349 394" fill="none" xmlns="http://www.w3.org/2000/svg">
<path d="M37.6913 292.115L142.263 352.885C152.374 358.76 168.812 358.755 178.983 352.885L340.562 259.599C345.683 256.643 348.238 252.761 348.229 248.889L348.233 285.485C348.243 289.357 345.687 293.239 340.567 296.195L178.988 389.481C168.817 395.352 152.379 395.356 142.267 389.481L37.6959 328.711C32.6724 325.792 30.1584 321.975 30.1492 318.149L30.1445 281.553C30.1537 285.374 32.6678 289.196 37.6913 292.115Z" fill="#656037"/>
<path d="M37.6918 292.116L142.263 352.886C152.218 358.669 168.292 358.742 178.491 353.143L178.399 389.785C168.191 395.334 152.191 395.246 142.263 389.477L37.6918 328.708C32.6684 325.788 30.1543 321.971 30.1451 318.145L30.1406 281.549C30.1544 285.375 32.6684 289.197 37.6918 292.116Z" fill="#4F4927"/>
<path d="M37.8105 270.843L199.39 177.557C209.561 171.686 225.999 171.682 236.11 177.557L340.682 238.327C350.793 244.202 350.733 253.724 340.562 259.599L178.983 352.885C168.812 358.756 152.374 358.76 142.262 352.885L37.6908 292.116C27.5794 286.236 27.6393 276.714 37.8105 270.843Z" fill="#827C52"/>
<path d="M44.0681 270.613L198.971 181.181C208.723 175.55 224.479 175.545 234.176 181.181L334.429 239.441C344.121 245.073 344.066 254.203 334.314 259.834L179.411 349.266C169.659 354.898 153.903 354.898 144.206 349.266L43.9531 291.002C34.2607 285.371 34.3159 276.24 44.0681 270.613Z" fill="#3C403F"/>
<path d="M22.7921 261.68L22.4513 140.731C22.4191 129.035 30.6427 114.798 40.8139 108.928L202.393 15.6417C207.513 12.6856 212.15 12.4094 215.502 14.3571L193.875 1.86054C190.523 -0.0871392 185.886 0.18923 180.766 3.14528L19.1867 96.4312C9.01551 102.302 0.792082 116.539 0.824313 128.234L1.16507 249.184C1.18348 254.995 3.23243 259.079 6.53842 260.999L28.1655 273.495C24.8595 271.575 22.8105 267.491 22.7921 261.68Z" fill="#827C52"/>
<path d="M22.7921 261.68L22.4514 140.73C22.4191 129.219 30.394 115.258 40.3442 109.227L18.6251 96.79C8.71632 102.854 0.792086 116.76 0.824317 128.238L1.16507 249.188C1.18349 254.999 3.23243 259.083 6.53842 261.003L28.1655 273.499C24.8595 271.575 22.8105 267.491 22.7921 261.68Z" fill="#4F4927"/>
<path d="M41.2743 272.211L202.853 178.925C213.025 173.054 221.248 158.817 221.216 147.122L220.875 26.1723C220.843 14.477 212.564 9.76669 202.393 15.642L40.8138 108.928C30.6426 114.799 22.419 129.036 22.4513 140.731L22.792 261.68C22.8242 273.376 31.1031 278.086 41.2743 272.211Z" fill="#656037"/>
<path d="M44.6035 266.911L199.506 177.479C209.258 171.848 217.141 158.205 217.109 146.993L216.782 31.044C216.75 19.8322 208.816 15.3199 199.064 20.9465L44.1615 110.378C34.4093 116.01 26.5265 129.653 26.5587 140.865L26.8857 256.814C26.9179 268.026 34.8513 272.538 44.6035 266.911Z" fill="#343637"/>
<path d="M231.263 331.239L228.744 329.779L228.79 346.042L231.309 347.506L231.263 331.239Z" fill="#9AA0A4"/>
<path d="M300.946 291.01L298.428 289.546L228.744 329.78L231.263 331.239L300.946 291.01Z" fill="#C8CCCE"/>
<path d="M231.264 331.239L231.31 347.506L300.993 307.273L300.947 291.01L231.264 331.239Z" fill="#B9BFC2"/>
<path d="M285.033 303.612L285.056 312.177L290.517 315.349L290.494 306.785L285.033 303.612Z" fill="#9AA0A4"/>
<path d="M290.494 306.785L290.517 315.35L295.573 312.431L295.545 303.866L290.494 306.785Z" fill="#6B7374"/>
<path d="M285.033 303.613L290.494 306.785L295.545 303.866L290.084 300.693L285.033 303.613Z" fill="#C8CCCE"/>
<path d="M239.961 329.632L239.984 338.196L245.445 341.373L245.422 332.804L239.961 329.632Z" fill="#9AA0A4"/>
<path d="M239.961 329.632L245.422 332.805L250.477 329.885L245.017 326.713L239.961 329.632Z" fill="#C8CCCE"/>
<path d="M245.817 334.144H261.426C266.528 334.14 271.418 332.97 275.037 330.889L292.087 321.082C295.715 318.987 297.76 316.15 297.783 313.19L297.833 304.114L297.856 312.678L297.806 321.754C297.783 324.715 295.734 327.551 292.11 329.646L275.06 339.453C271.441 341.535 266.546 342.704 261.449 342.709H245.84C245.163 342.709 244.721 342.391 244.716 342.055L244.693 333.491C244.693 333.822 245.14 334.144 245.817 334.144Z" fill="#343637"/>
<path d="M245.027 333.035L245.422 332.804L250.478 329.885L250.971 329.6C251.183 329.476 251.473 329.406 251.768 329.402L258.14 329.406C263.246 329.406 268.141 328.237 271.765 326.142L283.934 319.116C287.553 317.025 289.598 314.193 289.616 311.233L289.63 307.54C289.639 307.37 289.759 307.204 289.966 307.084L290.491 306.78L295.547 303.861L295.91 303.649C296.624 303.235 297.835 303.525 297.83 304.105L297.78 313.18C297.757 316.141 295.708 318.977 292.084 321.072L275.034 330.88C271.415 332.961 266.52 334.131 261.423 334.135H245.814C244.815 334.144 244.322 333.445 245.027 333.035Z" fill="#505254"/>
<path d="M194.657 351.421L192.977 350.444L193.046 374.562L194.726 375.539L194.657 351.421Z" fill="#212322"/>
<path d="M214.106 340.19L212.43 339.214L192.977 350.444L194.657 351.42L214.106 340.19Z" fill="#505254"/>
<path d="M194.656 351.421L194.725 375.539L214.175 364.309L214.105 340.19L194.656 351.421Z" fill="#343637"/>
<path d="M312.227 283.675L310.551 282.699L310.62 306.817L312.296 307.793L312.227 283.675Z" fill="#212322"/>
<path d="M331.681 272.445L330.005 271.469L310.551 282.699L312.227 283.675L331.681 272.445Z" fill="#505254"/>
<path d="M312.227 283.676L312.296 307.794L331.75 296.563L331.68 272.445L312.227 283.676Z" fill="#343637"/>
<g opacity="0.2">
<path d="M220.157 314.359L159.314 349.486L99.7324 315.086L160.576 279.959L220.157 314.359ZM159.314 348.395L218.26 314.363L160.576 281.059L101.629 315.091L159.314 348.395Z" fill="#3C403F"/>
<path d="M334.688 248.235L273.849 283.362L214.268 248.962L275.106 213.835L334.688 248.235ZM273.849 282.266L332.791 248.235L275.106 214.931L216.165 248.962L273.849 282.266Z" fill="#3C403F"/>
<path d="M266.101 287.837L228.193 309.722L168.611 275.323L206.52 253.438L266.101 287.837ZM228.197 308.626L264.209 287.833L206.524 254.529L170.513 275.323L228.197 308.626Z" fill="#3C403F"/>
</g>
<g opacity="0.2">
<path d="M153.397 275.82L92.5538 310.947L60.7832 292.603L121.626 257.476L153.397 275.82ZM92.5585 309.851L151.504 275.82L121.631 258.571L62.6848 292.603L92.5585 309.851Z" fill="#3C403F"/>
<path d="M267.927 209.696L207.089 244.823L175.318 226.479L236.157 191.352L267.927 209.696ZM207.089 243.722L266.03 209.691L236.157 192.443L177.215 226.474L207.089 243.722Z" fill="#3C403F"/>
<path d="M199.339 249.293L161.431 271.178L129.66 252.834L167.569 230.949L199.339 249.293ZM161.435 270.083L197.447 249.289L167.573 232.04L131.562 252.834L161.435 270.083Z" fill="#3C403F"/>
</g>
<path d="M110.259 288.252L110.25 291.48C110.245 293.718 108.777 295.951 105.853 297.655C99.936 301.094 90.2942 301.094 84.3637 297.669C81.3662 295.937 79.8697 293.663 79.8789 291.393L79.8882 288.165C79.8836 290.435 81.3801 292.71 84.3729 294.436C90.3035 297.862 99.9451 297.862 105.862 294.422C108.786 292.723 110.255 290.49 110.259 288.252Z" fill="#343637"/>
<path d="M105.789 281.991C99.8351 278.551 90.1934 278.551 84.2997 281.977C78.383 285.416 78.4152 291.002 84.3687 294.436C90.2993 297.862 99.9411 297.862 105.858 294.423C111.756 291.001 111.724 285.416 105.789 281.991Z" fill="#3C403F"/>
<path d="M103.583 283.271C98.8539 280.54 91.1968 280.54 86.5187 283.261C81.8221 285.992 81.8451 290.426 86.5739 293.156C91.2842 295.878 98.9414 295.878 103.638 293.147C108.321 290.426 108.293 285.992 103.583 283.271Z" fill="#323235"/>
<path d="M95.2853 263.738C93.4481 263.738 91.9609 265.226 91.9609 267.063V288.11C91.9609 291.116 98.6098 291.052 98.6098 288.11V267.063C98.6052 265.226 97.1178 263.738 95.2853 263.738Z" fill="url(#paint0_linear_575_23905)"/>
<path d="M95.1707 273.459C99.1428 273.459 102.363 270.239 102.363 266.266C102.363 262.294 99.1428 259.074 95.1707 259.074C91.1986 259.074 87.9785 262.294 87.9785 266.266C87.9785 270.239 91.1986 273.459 95.1707 273.459Z" fill="#827C52"/>
<path d="M223.754 222.726L223.745 225.954C223.74 228.192 222.271 230.425 219.343 232.129C213.426 235.568 203.784 235.568 197.854 232.142C194.856 230.411 193.36 228.141 193.369 225.871L193.378 222.644C193.374 224.914 194.87 227.188 197.863 228.915C203.794 232.341 213.435 232.341 219.352 228.901C222.285 227.197 223.749 224.964 223.754 222.726Z" fill="#343637"/>
<path d="M219.287 216.464C213.333 213.025 203.691 213.025 197.798 216.45C191.881 219.89 191.913 225.475 197.867 228.91C203.797 232.336 213.439 232.336 219.356 228.896C225.25 225.475 225.217 219.89 219.287 216.464Z" fill="#3C403F"/>
<path d="M217.083 217.744C212.354 215.014 204.697 215.014 200.019 217.735C195.322 220.465 195.345 224.9 200.074 227.63C204.784 230.351 212.442 230.351 217.138 227.621C221.816 224.9 221.793 220.466 217.083 217.744Z" fill="#323235"/>
<path d="M208.782 198.212C206.944 198.212 205.457 199.699 205.457 201.536V222.583C205.457 225.59 212.101 225.525 212.101 222.583V201.536C212.106 199.699 210.619 198.212 208.782 198.212Z" fill="url(#paint1_linear_575_23905)"/>
<path d="M208.671 207.932C212.643 207.932 215.863 204.712 215.863 200.74C215.863 196.768 212.643 193.548 208.671 193.548C204.698 193.548 201.479 196.768 201.479 200.74C201.479 204.712 204.698 207.932 208.671 207.932Z" fill="#827C52"/>
<path d="M241.633 241.723L247.504 238.312L248.438 241.71L242.572 245.122L241.633 241.723Z" fill="#656037"/>
<path d="M237.539 239.357L243.41 235.945L247.503 238.312L241.632 241.724L237.539 239.357Z" fill="#827C52"/>
<path d="M241.632 241.724L242.572 245.122L236.586 241.664L237.539 239.357L241.632 241.724Z" fill="#4F4927"/>
<path d="M262.154 229.877L268.025 226.465L268.96 229.863L263.089 233.275L262.154 229.877Z" fill="#656037"/>
<path d="M258.057 227.511L263.927 224.099L268.025 226.465L262.155 229.877L258.057 227.511Z" fill="#827C52"/>
<path d="M262.155 229.877L263.089 233.275L257.104 229.817L258.057 227.511L262.155 229.877Z" fill="#4F4927"/>
<path d="M272.574 223.859L278.44 220.451L279.38 223.845L273.509 227.257L272.574 223.859Z" fill="#656037"/>
<path d="M268.477 221.497L274.347 218.085L278.441 220.452L272.574 223.859L268.477 221.497Z" fill="#827C52"/>
<path d="M272.574 223.859L273.509 227.257L267.523 223.799L268.477 221.497L272.574 223.859Z" fill="#4F4927"/>
<path d="M231.309 247.669L237.179 244.257L238.114 247.655L232.243 251.062L231.309 247.669Z" fill="#B9BFC2"/>
<path d="M227.211 245.302L233.082 241.89L237.18 244.256L231.309 247.668L227.211 245.302Z" fill="#C8CCCE"/>
<path d="M231.309 247.668L232.244 251.062L226.258 247.609L227.211 245.302L231.309 247.668Z" fill="#9AA0A4"/>
<path d="M251.887 235.785L257.757 232.373L258.692 235.771L252.826 239.183L251.887 235.785Z" fill="#B9BFC2"/>
<path d="M247.793 233.418L253.659 230.011L257.757 232.373L251.886 235.785L247.793 233.418Z" fill="#C8CCCE"/>
<path d="M251.887 235.785L252.826 239.183L246.836 235.725L247.794 233.418L251.887 235.785Z" fill="#9AA0A4"/>
<path d="M263.545 254.373L269.416 250.961L270.35 254.359L264.48 257.771L263.545 254.373Z" fill="#656037"/>
<path d="M259.447 252.011L265.318 248.599L269.416 250.961L263.545 254.373L259.447 252.011Z" fill="#827C52"/>
<path d="M263.545 254.373L264.48 257.771L258.494 254.313L259.447 252.011L263.545 254.373Z" fill="#4F4927"/>
<path d="M284.062 242.525L289.933 239.113L290.872 242.511L285.002 245.923L284.062 242.525Z" fill="#B9BFC2"/>
<path d="M279.969 240.163L285.839 236.751L289.933 239.113L284.062 242.525L279.969 240.163Z" fill="#C8CCCE"/>
<path d="M284.062 242.525L285.001 245.923L279.016 242.465L279.969 240.163L284.062 242.525Z" fill="#9AA0A4"/>
<path d="M294.482 236.512L300.353 233.101L301.288 236.499L295.422 239.906L294.482 236.512Z" fill="#B9BFC2"/>
<path d="M290.389 234.145L296.255 230.733L300.353 233.1L294.482 236.512L290.389 234.145Z" fill="#C8CCCE"/>
<path d="M294.483 236.512L295.422 239.906L289.432 236.452L290.389 234.146L294.483 236.512Z" fill="#9AA0A4"/>
<path d="M253.217 260.317L259.087 256.905L260.022 260.303L254.156 263.715L253.217 260.317Z" fill="#B9BFC2"/>
<path d="M249.123 257.95L254.989 254.538L259.087 256.905L253.216 260.317L249.123 257.95Z" fill="#C8CCCE"/>
<path d="M253.217 260.317L254.156 263.715L248.166 260.257L249.124 257.95L253.217 260.317Z" fill="#9AA0A4"/>
<path d="M273.799 248.438L279.669 245.026L280.604 248.424L274.733 251.832L273.799 248.438Z" fill="#B9BFC2"/>
<path d="M269.701 246.071L275.572 242.659L279.67 245.026L273.799 248.438L269.701 246.071Z" fill="#C8CCCE"/>
<path d="M273.799 248.438L274.734 251.831L268.748 248.378L269.701 246.071L273.799 248.438Z" fill="#9AA0A4"/>
<path d="M273.936 260.373L279.806 256.966L280.741 260.359L274.875 263.771L273.936 260.373Z" fill="#656037"/>
<path d="M269.842 258.011L275.708 254.599L279.806 256.965L273.935 260.373L269.842 258.011Z" fill="#827C52"/>
<path d="M273.936 260.373L274.875 263.771L268.885 260.313L269.843 258.011L273.936 260.373Z" fill="#4F4927"/>
<path d="M294.459 248.525L300.325 245.117L301.264 248.511L295.394 251.923L294.459 248.525Z" fill="#B9BFC2"/>
<path d="M290.361 246.163L296.232 242.751L300.325 245.118L294.459 248.525L290.361 246.163Z" fill="#C8CCCE"/>
<path d="M294.459 248.525L295.394 251.923L289.408 248.465L290.361 246.163L294.459 248.525Z" fill="#9AA0A4"/>
<path d="M304.879 242.512L310.745 239.101L311.684 242.499L305.813 245.911L304.879 242.512Z" fill="#B9BFC2"/>
<path d="M300.781 240.145L306.652 236.733L310.745 239.1L304.879 242.512L300.781 240.145Z" fill="#C8CCCE"/>
<path d="M304.879 242.512L305.814 245.91L299.828 242.452L300.781 240.146L304.879 242.512Z" fill="#9AA0A4"/>
<path d="M263.613 266.317L269.479 262.905L270.419 266.303L264.548 269.715L263.613 266.317Z" fill="#B9BFC2"/>
<path d="M259.516 263.955L265.386 260.543L269.48 262.905L263.614 266.317L259.516 263.955Z" fill="#C8CCCE"/>
<path d="M263.614 266.317L264.548 269.715L258.562 266.257L259.516 263.955L263.614 266.317Z" fill="#9AA0A4"/>
<path d="M284.191 254.438L290.062 251.026L290.997 254.424L285.126 257.832L284.191 254.438Z" fill="#B9BFC2"/>
<path d="M280.098 252.071L285.964 248.659L290.062 251.026L284.191 254.438L280.098 252.071Z" fill="#C8CCCE"/>
<path d="M284.192 254.438L285.126 257.831L279.141 254.378L280.098 252.071L284.192 254.438Z" fill="#9AA0A4"/>
<path d="M284.334 266.377L290.2 262.965L291.139 266.363L285.269 269.77L284.334 266.377Z" fill="#656037"/>
<path d="M280.236 264.01L286.107 260.598L290.2 262.964L284.334 266.376L280.236 264.01Z" fill="#827C52"/>
<path d="M284.334 266.376L285.269 269.77L279.283 266.316L280.236 264.01L284.334 266.376Z" fill="#4F4927"/>
<path d="M304.852 254.53L310.722 251.118L311.657 254.516L305.786 257.924L304.852 254.53Z" fill="#656037"/>
<path d="M300.754 252.163L306.625 248.751L310.723 251.118L304.852 254.53L300.754 252.163Z" fill="#827C52"/>
<path d="M304.852 254.53L305.787 257.923L299.801 254.47L300.754 252.163L304.852 254.53Z" fill="#4F4927"/>
<path d="M315.271 248.511L321.142 245.1L322.077 248.498L316.206 251.91L315.271 248.511Z" fill="#B9BFC2"/>
<path d="M311.174 246.145L317.045 242.737L321.142 245.099L315.272 248.511L311.174 246.145Z" fill="#C8CCCE"/>
<path d="M315.272 248.511L316.207 251.909L310.221 248.451L311.174 246.145L315.272 248.511Z" fill="#9AA0A4"/>
<path d="M274.006 272.316L279.876 268.909L280.811 272.303L274.941 275.715L274.006 272.316Z" fill="#B9BFC2"/>
<path d="M269.908 269.954L275.779 266.542L279.877 268.909L274.006 272.316L269.908 269.954Z" fill="#C8CCCE"/>
<path d="M274.006 272.316L274.941 275.714L268.955 272.256L269.908 269.954L274.006 272.316Z" fill="#9AA0A4"/>
<path d="M294.584 260.437L300.455 257.025L301.389 260.423L295.523 263.835L294.584 260.437Z" fill="#B9BFC2"/>
<path d="M290.49 258.07L296.356 254.663L300.454 257.025L294.583 260.437L290.49 258.07Z" fill="#C8CCCE"/>
<path d="M294.584 260.437L295.524 263.835L289.533 260.377L290.491 258.07L294.584 260.437Z" fill="#9AA0A4"/>
<path d="M36.0762 126.995L206.979 28.3223V156.621L36.0762 255.294V126.995Z" fill="#212322"/>
<path d="M212.569 264.341V265.304L211.625 265.842V264.88C211.625 262.302 209.825 259.18 207.596 257.904C206.491 257.269 205.492 257.214 204.76 257.628L205.704 257.085C206.431 256.666 207.435 256.726 208.54 257.361C210.769 258.646 212.569 261.763 212.569 264.341Z" fill="#434847"/>
<path d="M211.624 264.884C211.624 262.306 209.824 259.184 207.595 257.909C205.371 256.633 203.566 257.683 203.566 260.266V261.228L211.62 265.851V264.884H211.624Z" fill="#343637"/>
<path d="M200.831 260.198L204.805 257.919L199.395 252.55L195.426 254.829L200.831 260.198Z" fill="#C8CCCE"/>
<path d="M211.334 264.733V265.645L207.365 267.924V267.012C207.365 264.581 205.657 261.63 203.557 260.428C202.512 259.829 201.573 259.774 200.887 260.166L204.856 257.886C205.542 257.495 206.481 257.55 207.526 258.149C209.626 259.355 211.334 262.302 211.334 264.733Z" fill="#C8CCCE"/>
<path d="M207.365 267.013C207.365 264.582 205.657 261.63 203.557 260.428C202.484 259.811 201.522 259.774 200.831 260.203L195.421 254.834L194.924 256.123L200.021 261.184C199.846 261.584 199.749 262.077 199.749 262.652V263.564L207.36 267.929V267.013H207.365Z" fill="#9AA0A4"/>
<path d="M207.634 267.196V268.159L206.584 268.762V267.799C206.584 265.221 204.784 262.099 202.555 260.824C201.45 260.193 200.451 260.133 199.719 260.547L200.769 259.944C201.496 259.525 202.5 259.585 203.605 260.22C205.833 261.496 207.634 264.613 207.634 267.196Z" fill="#434847"/>
<path d="M206.583 267.794C206.583 265.216 204.783 262.094 202.554 260.819C200.33 259.543 198.525 260.593 198.525 263.176V264.138L206.583 268.761V267.794Z" fill="#343637"/>
<path d="M206.702 267.735V268.698L201.835 271.506V270.544C201.835 267.965 200.035 264.844 197.806 263.568C196.701 262.933 195.702 262.878 194.975 263.292L199.842 260.483C200.569 260.064 201.573 260.124 202.678 260.759C204.897 262.035 206.702 265.152 206.702 267.735Z" fill="#434847"/>
<path d="M201.831 270.54C201.831 267.961 200.031 264.839 197.802 263.564C195.578 262.288 193.773 263.338 193.773 265.921V266.884L201.831 271.506V270.54Z" fill="#343637"/>
<path d="M191.039 265.852L195.013 263.578L189.603 258.209L185.629 260.484L191.039 265.852Z" fill="#C8CCCE"/>
<path d="M201.541 270.392V271.304L197.572 273.583V272.671C197.572 270.24 195.864 267.289 193.764 266.087C192.719 265.489 191.78 265.433 191.094 265.825L195.063 263.546C195.749 263.154 196.688 263.209 197.733 263.808C199.833 265.01 201.541 267.957 201.541 270.392Z" fill="#C8CCCE"/>
<path d="M197.572 272.667C197.572 270.236 195.864 267.284 193.764 266.078C192.691 265.461 191.729 265.424 191.038 265.852L185.628 260.483L185.131 261.773L190.228 266.833C190.053 267.234 189.956 267.726 189.956 268.302V269.213L197.568 273.578L197.572 272.667Z" fill="#9AA0A4"/>
<path d="M197.841 272.851V273.814L196.791 274.417V273.455C196.791 270.876 194.991 267.754 192.762 266.479C191.657 265.843 190.658 265.788 189.926 266.203L190.976 265.599C191.703 265.18 192.707 265.24 193.812 265.876C196.04 267.151 197.841 270.273 197.841 272.851Z" fill="#434847"/>
<path d="M196.79 273.45C196.79 270.871 194.99 267.749 192.761 266.474C190.537 265.198 188.732 266.248 188.732 268.832V269.794L196.786 274.417V273.45H196.79Z" fill="#343637"/>
<path d="M196.906 273.39V274.352L192.039 277.161V276.198C192.039 273.62 190.239 270.498 188.01 269.223C186.905 268.587 185.906 268.532 185.174 268.946L190.041 266.137C190.768 265.718 191.772 265.778 192.877 266.414C195.106 267.689 196.906 270.806 196.906 273.39Z" fill="#434847"/>
<path d="M192.038 276.194C192.038 273.615 190.238 270.494 188.009 269.218C185.785 267.943 183.98 268.992 183.98 271.576V272.538L192.034 277.161V276.194H192.038Z" fill="#343637"/>
<path d="M181.227 271.52L185.196 269.241L179.785 263.872L175.816 266.151L181.227 271.52Z" fill="#C8CCCE"/>
<path d="M191.725 276.055V276.967L187.756 279.246V278.334C187.756 275.903 186.048 272.952 183.948 271.745C182.903 271.147 181.963 271.092 181.277 271.483L185.246 269.204C185.928 268.812 186.872 268.868 187.917 269.466C190.021 270.673 191.725 273.624 191.725 276.055Z" fill="#C8CCCE"/>
<path d="M187.756 278.335C187.756 275.904 186.047 272.952 183.948 271.746C182.875 271.129 181.913 271.087 181.222 271.52L175.812 266.151L175.314 267.441L180.412 272.501C180.237 272.901 180.14 273.394 180.14 273.97V274.881L187.751 279.246V278.335H187.756Z" fill="#9AA0A4"/>
<path d="M188.046 278.505V279.467L186.996 280.07V279.108C186.996 276.529 185.196 273.408 182.967 272.132C181.862 271.497 180.863 271.441 180.131 271.856L181.181 271.253C181.908 270.834 182.912 270.894 184.012 271.529C186.246 272.804 188.046 275.926 188.046 278.505Z" fill="#434847"/>
<path d="M186.995 279.108C186.995 276.529 185.195 273.408 182.966 272.132C180.742 270.857 178.938 271.907 178.938 274.49V275.452L186.995 280.07V279.108Z" fill="#343637"/>
<path d="M173.379 241.714V242.677L172.436 243.215V242.253C172.436 239.675 170.635 236.553 168.407 235.277C167.302 234.642 166.302 234.587 165.57 235.001L166.514 234.458C167.242 234.039 168.245 234.099 169.35 234.734C171.574 236.019 173.375 239.136 173.379 241.714Z" fill="#434847"/>
<path d="M172.431 242.258C172.431 239.679 170.63 236.557 168.402 235.282C166.178 234.006 164.373 235.061 164.373 237.639V238.602L172.426 243.22V242.258H172.431Z" fill="#343637"/>
<path d="M161.638 237.571L165.612 235.292L160.201 229.923L156.232 232.202L161.638 237.571Z" fill="#C8CCCE"/>
<path d="M172.141 242.106V243.018L168.172 245.297V244.385C168.172 241.954 166.464 239.003 164.364 237.796C163.319 237.198 162.379 237.142 161.693 237.534L165.662 235.254C166.344 234.863 167.288 234.918 168.333 235.517C170.437 236.723 172.141 239.675 172.141 242.106Z" fill="#C8CCCE"/>
<path d="M168.172 244.385C168.172 241.954 166.463 239.003 164.364 237.797C163.291 237.18 162.329 237.138 161.638 237.571L156.228 232.202L155.73 233.491L160.828 238.552C160.653 238.952 160.556 239.445 160.556 240.02V240.932L168.167 245.297V244.385H168.172Z" fill="#9AA0A4"/>
<path d="M168.44 244.565V245.528L167.391 246.131V245.168C167.391 242.59 165.59 239.468 163.362 238.193C162.257 237.562 161.257 237.502 160.525 237.916L161.575 237.313C162.303 236.894 163.306 236.954 164.407 237.59C166.64 238.87 168.44 241.987 168.44 244.565Z" fill="#434847"/>
<path d="M167.39 245.168C167.39 242.59 165.589 239.468 163.361 238.193C161.137 236.917 159.332 237.967 159.332 240.55V241.513L167.39 246.131V245.168Z" fill="#343637"/>
<path d="M167.509 245.103V246.066L162.643 248.874V247.912C162.643 245.334 160.842 242.212 158.614 240.936C157.509 240.305 156.509 240.246 155.777 240.66L160.644 237.851C161.372 237.432 162.376 237.492 163.481 238.128C165.705 239.408 167.509 242.525 167.509 245.103Z" fill="#434847"/>
<path d="M162.638 247.912C162.638 245.333 160.838 242.211 158.609 240.936C156.385 239.661 154.58 240.715 154.58 243.293V244.256L162.638 248.874V247.912Z" fill="#343637"/>
<path d="M151.845 243.225L155.819 240.946L150.408 235.577L146.439 237.856L151.845 243.225Z" fill="#C8CCCE"/>
<path d="M162.348 247.76V248.672L158.379 250.951V250.039C158.379 247.608 156.671 244.657 154.571 243.45C153.526 242.852 152.586 242.797 151.9 243.188L155.869 240.909C156.551 240.517 157.495 240.573 158.54 241.171C160.64 242.378 162.348 245.329 162.348 247.76Z" fill="#C8CCCE"/>
<path d="M158.379 250.04C158.379 247.609 156.67 244.657 154.571 243.451C153.498 242.838 152.536 242.797 151.845 243.225L146.435 237.856L145.938 239.146L151.035 244.206C150.86 244.607 150.763 245.099 150.763 245.675V246.586L158.374 250.952V250.04H158.379Z" fill="#9AA0A4"/>
<path d="M158.648 250.219V251.182L157.598 251.785V250.823C157.598 248.244 155.797 245.122 153.569 243.847C152.464 243.212 151.465 243.156 150.732 243.571L151.782 242.968C152.51 242.549 153.514 242.608 154.614 243.244C156.847 244.524 158.648 247.641 158.648 250.219Z" fill="#434847"/>
<path d="M157.597 250.823C157.597 248.244 155.797 245.123 153.568 243.847C151.344 242.572 149.539 243.626 149.539 246.205V247.167L157.597 251.785V250.823Z" fill="#343637"/>
<path d="M157.713 250.758V251.72L152.846 254.529V253.566C152.846 250.988 151.045 247.866 148.817 246.591C147.712 245.955 146.713 245.9 145.98 246.314L150.847 243.506C151.575 243.087 152.579 243.146 153.684 243.782C155.912 245.062 157.713 248.179 157.713 250.758Z" fill="#434847"/>
<path d="M152.845 253.566C152.845 250.987 151.045 247.866 148.816 246.59C146.592 245.315 144.787 246.365 144.787 248.948V249.91L152.84 254.528V253.566H152.845Z" fill="#343637"/>
<path d="M142.033 248.893L146.002 246.614L140.592 241.245L136.623 243.52L142.033 248.893Z" fill="#C8CCCE"/>
<path d="M152.532 253.428V254.34L148.562 256.619V255.707C148.562 253.276 146.854 250.325 144.755 249.118C143.709 248.52 142.77 248.465 142.084 248.856L146.053 246.577C146.739 246.185 147.678 246.241 148.724 246.839C150.828 248.046 152.532 250.997 152.532 253.428Z" fill="#C8CCCE"/>
<path d="M148.562 255.708C148.562 253.277 146.854 250.325 144.754 249.119C143.682 248.502 142.719 248.465 142.029 248.893L136.618 243.524L136.121 244.814L141.218 249.874C141.043 250.275 140.946 250.767 140.946 251.343V252.254L148.558 256.619V255.708H148.562Z" fill="#9AA0A4"/>
<path d="M148.853 255.878V256.84L147.803 257.443V256.481C147.803 253.902 146.002 250.781 143.774 249.505C142.669 248.874 141.67 248.814 140.938 249.229L141.987 248.626C142.715 248.207 143.719 248.267 144.819 248.902C147.052 250.177 148.853 253.295 148.853 255.878Z" fill="#434847"/>
<path d="M147.802 256.476C147.802 253.898 146.002 250.776 143.773 249.5C141.549 248.225 139.744 249.279 139.744 251.858V252.82L147.797 257.439V256.476H147.802Z" fill="#343637"/>
<path d="M166.898 338.925C165.485 339.74 163.408 340.062 161.479 339.763C158.491 339.303 156.713 337.521 157.514 335.799C157.768 335.251 158.27 334.749 158.96 334.348C160.374 333.533 162.45 333.211 164.38 333.51C167.368 333.971 169.15 335.753 168.344 337.475C168.091 338.023 167.594 338.525 166.898 338.925Z" fill="#343637"/>
<path d="M164.002 334.321C166.216 334.661 167.529 335.978 166.935 337.254C166.341 338.534 164.066 339.289 161.851 338.948C159.637 338.607 158.324 337.291 158.918 336.015C159.512 334.74 161.787 333.98 164.002 334.321Z" fill="#575D5B"/>
<path d="M179.164 331.838C177.75 332.653 175.674 332.976 173.744 332.681C170.756 332.221 168.979 330.439 169.78 328.717C170.033 328.169 170.535 327.667 171.226 327.266C172.639 326.451 174.716 326.129 176.645 326.428C179.634 326.889 181.415 328.671 180.61 330.393C180.356 330.941 179.859 331.443 179.164 331.838Z" fill="#343637"/>
<path d="M176.267 327.239C178.482 327.579 179.794 328.896 179.2 330.172C178.606 331.452 176.332 332.207 174.117 331.866C171.902 331.525 170.59 330.208 171.184 328.933C171.778 327.658 174.052 326.898 176.267 327.239Z" fill="#575D5B"/>
<path d="M191.431 324.758C190.018 325.573 187.941 325.895 186.012 325.596C183.024 325.135 181.246 323.353 182.048 321.631C182.301 321.083 182.803 320.581 183.493 320.185C184.907 319.37 186.984 319.048 188.913 319.347C191.901 319.808 193.683 321.59 192.877 323.312C192.624 323.86 192.127 324.362 191.431 324.758Z" fill="#343637"/>
<path d="M188.535 320.158C190.75 320.498 192.062 321.815 191.468 323.091C190.874 324.371 188.599 325.126 186.384 324.785C184.17 324.444 182.857 323.127 183.451 321.852C184.045 320.577 186.32 319.817 188.535 320.158Z" fill="#575D5B"/>
<path d="M203.697 317.676C202.284 318.491 200.207 318.813 198.278 318.518C195.289 318.058 193.512 316.276 194.313 314.554C194.567 314.006 195.068 313.504 195.759 313.103C197.173 312.288 199.249 311.966 201.178 312.265C204.167 312.726 205.949 314.508 205.143 316.23C204.89 316.778 204.392 317.28 203.697 317.676Z" fill="#343637"/>
<path d="M200.8 313.076C203.015 313.416 204.327 314.733 203.733 316.009C203.139 317.289 200.865 318.044 198.65 317.703C196.435 317.362 195.123 316.045 195.717 314.77C196.311 313.495 198.586 312.735 200.8 313.076Z" fill="#575D5B"/>
<path d="M154.548 331.793C153.135 332.608 151.058 332.93 149.129 332.635C146.141 332.175 144.359 330.393 145.164 328.671C145.418 328.123 145.92 327.621 146.61 327.22C148.024 326.405 150.1 326.083 152.03 326.382C155.018 326.843 156.795 328.625 155.994 330.347C155.741 330.89 155.239 331.392 154.548 331.793Z" fill="#343637"/>
<path d="M151.652 327.193C153.867 327.533 155.179 328.85 154.585 330.126C153.991 331.406 151.716 332.161 149.502 331.82C147.287 331.479 145.975 330.163 146.569 328.887C147.163 327.607 149.437 326.847 151.652 327.193Z" fill="#575D5B"/>
<path d="M166.814 324.711C165.4 325.526 163.324 325.848 161.394 325.549C158.406 325.088 156.624 323.306 157.43 321.584C157.683 321.036 158.185 320.534 158.876 320.138C160.289 319.323 162.366 319.001 164.295 319.3C167.284 319.761 169.061 321.543 168.26 323.265C168.006 323.808 167.505 324.31 166.814 324.711Z" fill="#343637"/>
<path d="M163.918 320.106C166.132 320.447 167.445 321.763 166.851 323.039C166.257 324.319 163.982 325.074 161.767 324.733C159.553 324.393 158.24 323.076 158.834 321.8C159.428 320.525 161.703 319.765 163.918 320.106Z" fill="#575D5B"/>
<path d="M179.081 317.629C177.668 318.444 175.591 318.767 173.662 318.467C170.674 318.007 168.892 316.225 169.698 314.503C169.951 313.955 170.453 313.453 171.143 313.052C172.557 312.237 174.634 311.915 176.563 312.214C179.551 312.675 181.328 314.457 180.527 316.179C180.274 316.727 179.772 317.229 179.081 317.629Z" fill="#343637"/>
<path d="M176.185 313.025C178.4 313.366 179.712 314.682 179.118 315.958C178.524 317.238 176.25 317.993 174.035 317.652C171.82 317.312 170.508 315.995 171.102 314.719C171.696 313.444 173.97 312.684 176.185 313.025Z" fill="#575D5B"/>
<path d="M191.347 310.543C189.934 311.358 187.857 311.68 185.928 311.381C182.939 310.92 181.158 309.138 181.963 307.416C182.217 306.868 182.718 306.366 183.409 305.97C184.823 305.155 186.899 304.833 188.828 305.132C191.817 305.593 193.599 307.375 192.793 309.097C192.54 309.645 192.038 310.147 191.347 310.543Z" fill="#343637"/>
<path d="M188.451 305.943C190.666 306.284 191.978 307.6 191.384 308.876C190.79 310.156 188.515 310.911 186.3 310.57C184.086 310.23 182.773 308.913 183.367 307.637C183.961 306.362 186.236 305.602 188.451 305.943Z" fill="#575D5B"/>
<path d="M201.569 284.817C200.644 285.351 199.285 285.563 198.019 285.369C196.062 285.066 194.893 283.901 195.422 282.773C195.588 282.413 195.915 282.087 196.371 281.824C197.296 281.29 198.655 281.078 199.921 281.272C201.878 281.575 203.047 282.74 202.518 283.868C202.347 284.228 202.021 284.559 201.569 284.817Z" fill="#343637"/>
<path d="M199.668 281.805C201.118 282.031 201.979 282.892 201.592 283.73C201.206 284.568 199.714 285.065 198.263 284.84C196.813 284.614 195.952 283.753 196.339 282.915C196.725 282.077 198.217 281.58 199.668 281.805Z" fill="#575D5B"/>
<path d="M212.518 278.496C211.593 279.03 210.23 279.242 208.968 279.048C207.012 278.744 205.842 277.579 206.372 276.451C206.537 276.092 206.864 275.765 207.32 275.503C208.246 274.969 209.608 274.757 210.87 274.955C212.827 275.259 213.996 276.424 213.467 277.552C213.301 277.906 212.974 278.233 212.518 278.496Z" fill="#343637"/>
<path d="M210.621 275.48C212.071 275.705 212.932 276.566 212.545 277.404C212.154 278.242 210.667 278.739 209.216 278.514C207.766 278.288 206.905 277.427 207.292 276.589C207.679 275.751 209.17 275.259 210.621 275.48Z" fill="#575D5B"/>
<path d="M223.472 272.173C222.546 272.708 221.188 272.919 219.922 272.726C217.965 272.422 216.795 271.257 217.325 270.129C217.49 269.77 217.817 269.443 218.273 269.181C219.199 268.646 220.562 268.435 221.828 268.628C223.785 268.932 224.954 270.097 224.425 271.225C224.254 271.584 223.927 271.911 223.472 272.173Z" fill="#343637"/>
<path d="M221.574 269.158C223.024 269.383 223.885 270.245 223.499 271.083C223.112 271.921 221.62 272.418 220.17 272.192C218.719 271.967 217.858 271.106 218.245 270.268C218.632 269.43 220.123 268.932 221.574 269.158Z" fill="#575D5B"/>
<path d="M211.405 290.5C210.48 291.034 209.121 291.245 207.855 291.052C205.898 290.748 204.729 289.583 205.258 288.455C205.424 288.096 205.751 287.769 206.207 287.507C207.132 286.973 208.495 286.761 209.757 286.954C211.714 287.258 212.883 288.423 212.354 289.551C212.188 289.91 211.856 290.237 211.405 290.5Z" fill="#343637"/>
<path d="M209.507 287.484C210.958 287.71 211.819 288.571 211.432 289.409C211.045 290.247 209.554 290.744 208.103 290.518C206.653 290.293 205.792 289.432 206.178 288.594C206.565 287.756 208.057 287.258 209.507 287.484Z" fill="#575D5B"/>
<path d="M222.358 284.174C221.433 284.708 220.075 284.919 218.808 284.726C216.851 284.422 215.682 283.257 216.211 282.129C216.377 281.77 216.704 281.443 217.16 281.181C218.085 280.646 219.448 280.435 220.715 280.628C222.671 280.932 223.841 282.097 223.311 283.225C223.136 283.584 222.81 283.916 222.358 284.174Z" fill="#343637"/>
<path d="M220.457 281.162C221.907 281.387 222.768 282.248 222.381 283.086C221.995 283.924 220.503 284.422 219.052 284.196C217.602 283.97 216.741 283.109 217.128 282.271C217.514 281.433 219.006 280.936 220.457 281.162Z" fill="#575D5B"/>
<path d="M233.308 277.851C232.383 278.385 231.02 278.597 229.754 278.404C227.797 278.1 226.627 276.935 227.157 275.807C227.323 275.448 227.649 275.121 228.105 274.858C229.031 274.324 230.394 274.112 231.655 274.306C233.612 274.61 234.782 275.775 234.252 276.903C234.091 277.262 233.764 277.589 233.308 277.851Z" fill="#343637"/>
<path d="M231.412 274.835C232.862 275.06 233.723 275.921 233.336 276.759C232.95 277.597 231.458 278.095 230.007 277.869C228.557 277.643 227.696 276.782 228.083 275.944C228.47 275.111 229.961 274.614 231.412 274.835Z" fill="#575D5B"/>
<path d="M221.239 296.176C220.314 296.711 218.951 296.922 217.689 296.729C215.732 296.425 214.563 295.26 215.092 294.132C215.258 293.773 215.585 293.446 216.041 293.184C216.966 292.649 218.329 292.438 219.591 292.631C221.548 292.935 222.717 294.1 222.188 295.228C222.022 295.587 221.695 295.914 221.239 296.176Z" fill="#343637"/>
<path d="M219.341 293.161C220.792 293.387 221.653 294.248 221.266 295.086C220.879 295.924 219.388 296.421 217.937 296.195C216.487 295.97 215.626 295.109 216.012 294.271C216.399 293.437 217.891 292.94 219.341 293.161Z" fill="#575D5B"/>
<path d="M232.192 289.855C231.267 290.389 229.909 290.601 228.642 290.408C226.685 290.104 225.516 288.939 226.045 287.811C226.211 287.452 226.538 287.125 226.994 286.862C227.919 286.328 229.282 286.116 230.549 286.31C232.505 286.614 233.675 287.778 233.145 288.907C232.97 289.266 232.644 289.593 232.192 289.855Z" fill="#343637"/>
<path d="M230.295 286.84C231.746 287.065 232.607 287.926 232.22 288.764C231.829 289.602 230.341 290.099 228.886 289.874C227.436 289.648 226.575 288.787 226.962 287.949C227.353 287.111 228.845 286.614 230.295 286.84Z" fill="#575D5B"/>
<path d="M243.146 283.533C242.221 284.067 240.858 284.279 239.592 284.085C237.635 283.781 236.465 282.616 236.995 281.488C237.16 281.129 237.487 280.802 237.943 280.54C238.869 280.006 240.232 279.794 241.498 279.987C243.455 280.291 244.624 281.456 244.095 282.584C243.924 282.939 243.597 283.27 243.146 283.533Z" fill="#343637"/>
<path d="M241.244 280.517C242.694 280.743 243.555 281.604 243.168 282.442C242.782 283.28 241.29 283.777 239.839 283.552C238.389 283.326 237.528 282.465 237.915 281.627C238.302 280.789 239.793 280.292 241.244 280.517Z" fill="#575D5B"/>
<path d="M231.075 301.854C230.15 302.388 228.791 302.6 227.525 302.407C225.568 302.103 224.399 300.938 224.928 299.81C225.094 299.451 225.421 299.124 225.877 298.861C226.802 298.327 228.165 298.115 229.431 298.313C231.388 298.617 232.558 299.782 232.028 300.91C231.858 301.265 231.531 301.596 231.075 301.854Z" fill="#343637"/>
<path d="M229.177 298.842C230.628 299.068 231.489 299.929 231.102 300.767C230.715 301.605 229.223 302.102 227.773 301.877C226.323 301.651 225.462 300.79 225.848 299.952C226.235 299.114 227.727 298.617 229.177 298.842Z" fill="#575D5B"/>
<path d="M242.029 295.532C241.103 296.066 239.741 296.278 238.474 296.084C236.517 295.78 235.348 294.615 235.877 293.487C236.043 293.128 236.37 292.801 236.826 292.539C237.752 292.005 239.114 291.793 240.376 291.986C242.333 292.29 243.502 293.455 242.973 294.583C242.812 294.942 242.485 295.269 242.029 295.532Z" fill="#343637"/>
<path d="M240.131 292.515C241.582 292.741 242.443 293.602 242.056 294.44C241.669 295.278 240.177 295.775 238.722 295.55C237.272 295.324 236.411 294.463 236.798 293.625C237.189 292.792 238.681 292.294 240.131 292.515Z" fill="#575D5B"/>
<path d="M252.983 289.21C252.058 289.744 250.695 289.956 249.433 289.758C247.476 289.454 246.307 288.289 246.836 287.161C247.002 286.802 247.329 286.475 247.785 286.213C248.71 285.679 250.073 285.467 251.34 285.66C253.296 285.964 254.466 287.129 253.936 288.257C253.761 288.621 253.435 288.948 252.983 289.21Z" fill="#343637"/>
<path d="M251.086 286.194C252.537 286.42 253.398 287.281 253.011 288.119C252.62 288.957 251.132 289.454 249.677 289.228C248.227 289.003 247.366 288.142 247.753 287.304C248.144 286.466 249.631 285.968 251.086 286.194Z" fill="#575D5B"/>
<path d="M163.315 262.734C162.39 263.268 161.032 263.48 159.765 263.287C157.808 262.983 156.639 261.818 157.168 260.69C157.334 260.331 157.661 260.004 158.117 259.741C159.042 259.207 160.401 258.995 161.672 259.189C163.628 259.492 164.798 260.657 164.268 261.786C164.098 262.145 163.771 262.472 163.315 262.734Z" fill="#343637"/>
<path d="M161.418 259.719C162.869 259.944 163.73 260.805 163.343 261.643C162.956 262.481 161.464 262.978 160.009 262.753C158.559 262.527 157.698 261.666 158.085 260.828C158.476 259.995 159.968 259.497 161.418 259.719Z" fill="#575D5B"/>
<path d="M174.268 256.413C173.343 256.947 171.985 257.159 170.718 256.965C168.762 256.661 167.592 255.496 168.122 254.368C168.287 254.009 168.614 253.682 169.07 253.42C169.996 252.886 171.354 252.674 172.62 252.867C174.577 253.171 175.747 254.336 175.217 255.464C175.051 255.823 174.72 256.15 174.268 256.413Z" fill="#343637"/>
<path d="M172.371 253.397C173.821 253.623 174.682 254.484 174.295 255.322C173.909 256.16 172.417 256.657 170.966 256.431C169.516 256.206 168.655 255.345 169.042 254.507C169.429 253.669 170.92 253.172 172.371 253.397Z" fill="#575D5B"/>
<path d="M185.224 250.09C184.298 250.624 182.94 250.836 181.674 250.643C179.717 250.339 178.547 249.174 179.077 248.046C179.242 247.687 179.569 247.36 180.025 247.098C180.951 246.563 182.314 246.352 183.58 246.545C185.537 246.849 186.706 248.014 186.177 249.142C186.002 249.496 185.675 249.828 185.224 250.09Z" fill="#343637"/>
<path d="M183.322 247.075C184.772 247.3 185.633 248.162 185.247 249C184.86 249.838 183.368 250.335 181.918 250.109C180.467 249.884 179.606 249.023 179.993 248.185C180.38 247.347 181.871 246.849 183.322 247.075Z" fill="#575D5B"/>
<path d="M241.392 218.901C239.979 219.716 237.902 220.038 235.973 219.739C232.985 219.278 231.207 217.496 232.009 215.774C232.262 215.226 232.764 214.725 233.454 214.324C234.868 213.509 236.945 213.187 238.874 213.486C241.862 213.946 243.644 215.728 242.838 217.45C242.58 217.998 242.083 218.5 241.392 218.901Z" fill="#343637"/>
<path d="M238.492 214.301C240.707 214.642 242.019 215.959 241.425 217.234C240.831 218.514 238.556 219.269 236.341 218.929C234.127 218.588 232.815 217.271 233.408 215.996C234.002 214.716 236.277 213.956 238.492 214.301Z" fill="#827C52"/>
<path d="M253.658 211.819C252.244 212.634 250.168 212.956 248.239 212.662C245.25 212.201 243.473 210.419 244.274 208.697C244.527 208.149 245.029 207.647 245.72 207.247C247.134 206.432 249.21 206.109 251.139 206.409C254.128 206.869 255.91 208.651 255.104 210.373C254.846 210.916 254.349 211.418 253.658 211.819Z" fill="#343637"/>
<path d="M250.757 207.219C252.972 207.56 254.284 208.877 253.69 210.152C253.096 211.432 250.822 212.187 248.607 211.847C246.392 211.506 245.08 210.189 245.674 208.914C246.268 207.634 248.543 206.874 250.757 207.219Z" fill="#827C52"/>
<path d="M229.039 211.768C227.625 212.583 225.548 212.905 223.619 212.606C220.631 212.146 218.849 210.364 219.655 208.641C219.908 208.094 220.41 207.592 221.1 207.191C222.514 206.376 224.591 206.054 226.52 206.353C229.508 206.814 231.29 208.595 230.484 210.318C230.231 210.865 229.729 211.367 229.039 211.768Z" fill="#343637"/>
<path d="M226.142 207.168C228.357 207.509 229.669 208.826 229.075 210.101C228.481 211.381 226.207 212.136 223.992 211.796C221.777 211.455 220.465 210.138 221.059 208.863C221.653 207.583 223.927 206.823 226.142 207.168Z" fill="#827C52"/>
<path d="M241.304 204.686C239.891 205.501 237.814 205.823 235.885 205.524C232.896 205.064 231.115 203.282 231.92 201.56C232.174 201.012 232.675 200.51 233.366 200.114C234.78 199.299 236.856 198.977 238.786 199.276C241.774 199.736 243.556 201.518 242.75 203.24C242.497 203.784 241.995 204.286 241.304 204.686Z" fill="#343637"/>
<path d="M238.408 200.086C240.623 200.427 241.935 201.744 241.341 203.019C240.747 204.299 238.472 205.054 236.258 204.714C234.043 204.373 232.731 203.056 233.325 201.781C233.918 200.501 236.193 199.741 238.408 200.086Z" fill="#827C52"/>
<path d="M126.443 285.265C125.029 286.08 122.953 286.403 121.023 286.108C118.035 285.647 116.253 283.866 117.059 282.144C117.312 281.596 117.814 281.094 118.505 280.693C119.918 279.878 121.995 279.556 123.924 279.855C126.912 280.316 128.69 282.098 127.889 283.82C127.635 284.368 127.133 284.865 126.443 285.265Z" fill="#343637"/>
<path d="M123.546 280.665C125.761 281.006 127.073 282.323 126.479 283.598C125.886 284.879 123.611 285.634 121.396 285.293C119.182 284.952 117.869 283.635 118.463 282.36C119.057 281.08 121.332 280.32 123.546 280.665Z" fill="#827C52"/>
<path d="M138.708 278.183C137.295 278.998 135.218 279.321 133.289 279.021C130.301 278.561 128.519 276.779 129.325 275.057C129.578 274.509 130.08 274.007 130.77 273.611C132.184 272.796 134.261 272.474 136.19 272.773C139.178 273.233 140.955 275.015 140.154 276.737C139.901 277.281 139.399 277.783 138.708 278.183Z" fill="#343637"/>
<path d="M135.812 273.583C138.027 273.924 139.339 275.241 138.745 276.516C138.151 277.796 135.877 278.552 133.662 278.211C131.447 277.87 130.135 276.553 130.729 275.278C131.323 273.998 133.597 273.238 135.812 273.583Z" fill="#827C52"/>
<path d="M114.089 278.132C112.676 278.947 110.599 279.269 108.67 278.97C105.682 278.51 103.9 276.728 104.705 275.006C104.959 274.458 105.461 273.956 106.151 273.555C107.565 272.74 109.641 272.418 111.571 272.717C114.559 273.178 116.341 274.96 115.535 276.682C115.282 277.234 114.785 277.732 114.089 278.132Z" fill="#343637"/>
<path d="M111.193 273.532C113.408 273.873 114.72 275.19 114.126 276.465C113.532 277.745 111.257 278.5 109.043 278.159C106.828 277.819 105.516 276.502 106.11 275.226C106.704 273.946 108.978 273.191 111.193 273.532Z" fill="#827C52"/>
<path d="M126.355 271.051C124.941 271.866 122.865 272.188 120.936 271.889C117.947 271.428 116.165 269.646 116.971 267.924C117.224 267.376 117.726 266.874 118.417 266.478C119.831 265.663 121.907 265.341 123.836 265.64C126.825 266.101 128.607 267.883 127.801 269.605C127.548 270.153 127.05 270.65 126.355 271.051Z" fill="#343637"/>
<path d="M123.459 266.451C125.673 266.791 126.986 268.108 126.392 269.384C125.798 270.664 123.523 271.419 121.308 271.078C119.094 270.737 117.781 269.42 118.375 268.145C118.969 266.865 121.244 266.105 123.459 266.451Z" fill="#827C52"/>
<path d="M179.846 297.277L130.21 325.931L110.264 314.415L159.9 285.757L179.846 297.277Z" fill="#526834"/>
<path opacity="0.3" d="M159.9 288.17L177.756 298.479L179.846 297.277L159.9 285.757L110.264 314.415L112.354 315.621L159.9 288.17Z" fill="#526834"/>
<defs>
<linearGradient id="paint0_linear_575_23905" x1="98.6346" y1="277.039" x2="91.5696" y2="277.039" gradientUnits="userSpaceOnUse">
<stop stop-color="#B9BFC2"/>
<stop offset="1" stop-color="#9AA0A4"/>
</linearGradient>
<linearGradient id="paint1_linear_575_23905" x1="212.132" y1="211.51" x2="205.067" y2="211.51" gradientUnits="userSpaceOnUse">
<stop stop-color="#B9BFC2"/>
<stop offset="1" stop-color="#9AA0A4"/>
</linearGradient>
</defs>
</svg>
