<svg width="519" height="317" viewBox="0 0 519 317" fill="none" xmlns="http://www.w3.org/2000/svg">
<path d="M217.869 53.0879C232.715 58.2709 234.73 62.1289 232.449 81.7959C255.532 81.7959 278.552 82.0709 301.558 81.6389C309.081 81.4979 313.383 84.0119 316.798 90.7299C322.05 101.061 326.013 112.092 332.862 121.593C333.94 126.897 338.235 125.189 341.401 125.235C354.22 125.424 367.043 125.344 379.864 125.364C380.035 143.375 368.003 146.912 352.418 146.43C356.458 154.833 366.446 155.92 368.151 164.258C366.221 166.431 364.594 169.011 362.313 170.712C342.528 185.464 330.536 205.2 324.586 228.889C316.055 227.918 307.065 228.928 299.652 223.121C298.161 214.811 295.268 206.238 305.557 199.738C294.679 201.947 292.091 194.948 288.399 187.284C287.615 199.855 277.406 198.23 270.475 201.37C268.965 201.44 267.455 201.509 265.945 201.579C252.196 180.821 235.242 164.103 210.239 157.644C203.712 155.958 197.114 154.549 190.549 153.013C190.286 149.441 190.792 145.967 191.225 142.406C192.55 131.494 197.037 120.958 196.012 109.85C195.165 100.672 197.911 97.0579 207.64 97.7579C218.42 98.5339 219.179 96.8118 215.872 86.0428C215.49 84.8348 214.802 83.6309 214.78 82.4149C214.6 72.5189 209.506 62.0809 217.869 53.0879ZM227.524 109.809C254.377 109.809 281.229 109.809 308.082 109.809C308.1 108.871 308.118 107.933 308.136 106.995C307.349 106.606 306.562 105.88 305.774 105.878C282.039 105.812 258.303 105.822 234.567 105.808C231.479 105.806 228.735 106.418 227.249 109.533C226.998 109.889 226.747 110.246 226.496 110.602C226.839 110.338 227.182 110.073 227.524 109.809ZM211.399 124.612C213.749 126.121 214.253 126.727 214.759 126.729C247.567 126.855 280.375 126.954 313.183 126.956C315.135 126.956 318.615 127.786 318.031 124.246C317.548 121.319 314.62 122.553 312.373 122.592C290.658 122.964 268.975 123.809 247.226 121.972C235.897 121.015 224.07 119.754 211.399 124.612ZM209.883 131.926C209.861 132.508 209.839 133.089 209.817 133.671C247.755 133.671 285.693 133.671 323.631 133.671C323.641 133.089 323.652 132.508 323.662 131.926C285.736 131.926 247.809 131.926 209.883 131.926ZM221.304 114.613C221.234 115.221 221.165 115.829 221.095 116.436C251.444 116.436 281.794 116.436 312.143 116.436C312.13 115.828 312.117 115.22 312.103 114.613C281.837 114.613 251.571 114.613 221.304 114.613ZM331.982 164.433C335.945 163.664 342.564 167.1 342.518 157.987C342.477 149.879 337.104 150.376 331.841 150.672C327.208 150.932 321.065 148.269 320.974 157.27C320.885 165.894 326.528 164.225 331.982 164.433ZM242.137 164.419C246.899 163.998 252.81 166.268 252.783 157.422C252.756 148.499 246.772 150.615 242.052 150.688C237.442 150.759 230.941 148.167 231.164 157.19C231.366 165.313 236.956 164.328 242.137 164.419ZM302.01 164.317C306.199 163.653 313.062 166.503 312.996 157.951C312.939 150.655 307.657 150.21 302.019 150.568C297.088 150.881 291.401 148.991 291.549 157.707C291.685 165.809 296.928 164.107 302.01 164.317ZM271.897 164.28C276.835 164.315 282.384 165.884 282.21 157.208C282.064 149.974 277.763 150.379 273.14 150.706C268.526 151.032 262.319 148.242 262.247 157.306C262.186 165.03 266.71 164.61 271.897 164.28Z" fill="#6C6D44"/>
<path d="M324.584 228.888C330.534 205.2 342.527 185.464 362.311 170.711C364.593 169.01 366.219 166.43 368.148 164.257C379.35 159.142 391.581 157.723 403.305 154.483C403.912 153.822 404.519 153.162 405.126 152.501L405.013 152.637C425.708 154.253 446.714 153.896 466.341 162.288C474.878 169.435 484.716 175.003 492.084 183.569C497.068 189.363 503.019 194.49 504.926 202.384C500.789 202.724 497.211 204.938 494.695 207.655C488.703 214.125 485.675 211.7 481.021 205.679C455.923 173.209 408.995 166.713 376.306 190.864C354.039 207.315 345.96 230.717 345.173 257.216C344.984 263.57 343.146 265.688 336.753 265.58C318.208 265.267 299.653 265.519 281.102 265.567C259.153 265.624 259.574 265.572 256.501 244.18C250.349 201.35 217.938 175.511 179.684 177.017C132.164 178.888 100.533 218.242 104.964 265.929C95.9395 270.273 87.5805 266.341 79.1055 263.851C80.3925 245.712 82.9025 227.839 90.5425 211.077C91.2765 209.859 92.0095 208.64 92.7435 207.422C100.941 193.037 110.534 179.844 124.431 170.328C144.557 157.254 166.867 152.523 190.545 153.012C197.11 154.548 203.708 155.957 210.235 157.643C235.238 164.102 252.192 180.821 265.943 201.578C269.27 207.638 270.054 215.295 276.958 219.107C276.141 238.468 277.884 240.375 296.412 240.395C301.277 240.4 306.231 239.82 310.987 240.541C320.415 241.972 324.927 238.464 324.584 228.888Z" fill="#B6B37E"/>
<path d="M239.002 286.933C230.773 294.158 224.43 303.556 214.018 308.266C186.438 320.742 160.415 319.151 136.647 299.402C133.3 296.621 131.514 296.338 127.767 298.788C81.031 329.356 33.145 306.018 27.75 250.214C34.496 256.878 42.674 258.338 51.673 256.808C51.41 257.296 51.467 257.734 51.84 258.132C51.404 275.671 59.414 288.701 74.548 296.556C89.814 304.48 104.96 303.517 118.45 291.654C119.125 291.038 119.8 290.423 120.475 289.808C121.65 288.994 122.571 287.607 121.408 286.678C119.936 285.503 119.492 287.334 118.961 288.365C118.351 288.975 117.733 289.583 117.114 290.19C85.498 304.956 60.051 292.486 55.594 260.041C60.485 260.009 64.772 262.043 69.084 263.987C71.262 276.401 77.921 284.776 90.736 286.997C100.172 288.632 108.015 284.549 114.266 278.05C118.215 273.944 114.397 269.721 112.315 265.846C112.199 256.444 111.071 246.961 112.84 237.666C120.875 195.459 163.897 171.842 205.268 186.652C233.511 196.762 253.495 233.51 247.383 262.24C245.535 270.938 240.022 278.125 239.002 286.933ZM237.321 252.489C237.347 221.275 213.753 196.14 184.009 195.696C155.91 195.276 129.918 221.807 129.742 251.089C129.565 280.623 154.542 306.41 183.635 306.731C212.48 307.049 237.297 281.976 237.321 252.489Z" fill="#2A2B1C"/>
<path d="M487.067 265.76C477.831 294.415 458.758 311.762 428.574 315.566C408.92 318.043 391.4 311.967 375.928 299.909C372.751 297.433 371.123 295.656 366.656 299.209C339.292 320.974 303.022 316.544 280.094 289.247C287.601 285.17 295.706 288.407 303.458 287.336C304.308 288.961 305.485 289.946 307.455 289.373L307.352 289.325C307.239 294.483 311.749 295.374 314.962 297.02C330.041 304.745 343.956 300.257 357.336 292.293C359.356 291.091 363.31 289.636 361.52 286.881C359.169 283.262 357.249 287.708 355.45 288.823C337.775 299.781 323.356 299.904 309.561 288.974C318.987 285.564 328.738 288.011 338.323 287.55C343.981 287.277 349.064 285.99 354.246 283.909C357.922 282.433 358.718 280.69 357.03 277.365C351.67 266.808 351.413 255.363 352.489 244.094C354.673 221.226 364.616 203.059 385.52 191.476C398.344 184.37 411.842 183.186 425.931 183.692C448.186 184.491 464.504 195.439 476.523 213.417C487.169 229.34 488.034 247.407 487.067 265.76ZM477.442 252.307C477.775 221.457 454.184 195.787 425.297 195.565C394.652 195.33 370.204 219.424 369.915 250.146C369.623 281.1 393.846 306.589 423.629 306.666C452.575 306.742 477.122 281.946 477.442 252.307Z" fill="#2A2B1C"/>
<path d="M487.066 265.76C488.033 247.407 487.168 229.339 476.522 213.416C464.503 195.438 448.185 184.49 425.93 183.691C411.841 183.185 398.343 184.369 385.519 191.475C364.615 203.058 354.672 221.225 352.488 244.093C351.412 255.362 351.669 266.807 357.029 277.364C358.717 280.689 357.921 282.432 354.245 283.908C349.063 285.989 343.979 287.277 338.322 287.549C328.737 288.011 318.986 285.563 309.559 288.975C308.822 289.093 308.086 289.209 307.35 289.325L307.453 289.373C306.661 287.634 305.098 287.408 303.456 287.335C295.703 288.406 287.599 285.169 280.092 289.246C270.771 285.415 261.033 288.414 251.528 287.529C247.37 287.142 243.178 287.12 239.002 286.932C240.022 278.124 245.534 270.936 247.384 262.241C253.496 233.51 233.512 196.763 205.269 186.653C163.898 171.843 120.876 195.459 112.841 237.667C111.071 246.962 112.2 256.445 112.314 265.847C109.864 265.873 107.416 265.9 104.968 265.927C100.536 218.24 132.167 178.887 179.687 177.015C217.941 175.509 250.352 201.348 256.504 244.178C259.577 265.57 259.156 265.622 281.105 265.565C299.656 265.517 318.211 265.265 336.756 265.578C343.15 265.686 344.988 263.568 345.176 257.214C345.963 230.715 354.042 207.313 376.309 190.862C408.998 166.711 455.926 173.208 481.024 205.677C485.678 211.698 488.706 214.123 494.698 207.653C497.214 204.936 500.792 202.722 504.929 202.382C505.319 203.154 505.711 203.926 506.102 204.699C502.431 207.352 499.099 210.882 495.013 212.455C488.636 214.909 489.166 218.18 491.203 223.462C496.397 236.926 498.175 250.972 496.518 265.38C493.368 265.507 490.217 265.634 487.066 265.76Z" fill="#515631"/>
<path d="M190.549 153.012C166.871 152.524 144.561 157.255 124.433 170.328C122.312 170.268 120.193 170.209 118.075 170.149C104.139 170.114 90.1991 170.235 76.2671 169.986C67.9091 169.837 59.425 167.965 51.242 168.933C40.835 170.164 30.708 170.609 20.496 168.288C18.956 152.165 20.4761 150.253 37.0151 148.908C48.8471 147.945 60.7071 147.338 72.555 146.572C103.242 146.582 133.846 149.782 164.564 148.886C170.983 148.699 175.706 147.754 174.23 139.723C177.361 130.961 180.492 122.199 183.623 113.437C186.753 112.458 186.211 109.854 186.248 107.505L185.679 107.395C191.603 99.167 191.087 97.356 181.665 95.969C163.123 93.24 144.448 92.083 125.708 91.833C121.706 91.78 116.765 92.9591 116.078 86.5961C118.557 80.4101 123.994 80.9151 129.171 80.7841C143.726 80.4171 158.289 83.193 172.838 80.665C179.042 83.937 185.684 81.6781 192.107 82.1951C192.362 84.6801 192.091 88.0191 195.6 87.8931C202.374 87.6491 209.476 90.388 215.876 86.042C219.181 96.812 218.422 98.5341 207.642 97.7581C197.913 97.0581 195.166 100.671 196.014 109.85C197.04 120.958 192.552 131.494 191.227 142.406C190.793 145.965 190.286 149.44 190.549 153.012Z" fill="#515631"/>
<path d="M176.917 46.5262C163.305 46.5652 149.636 47.4032 136.095 46.4392C119.271 45.2412 103.62 53.3992 86.6872 51.2972C80.9632 50.5862 76.1762 50.0712 72.9922 44.9062C77.4472 37.2322 75.2232 28.9883 75.0342 20.9193C74.5362 13.7743 77.8782 11.1162 84.9392 11.5732C114.954 13.5172 144.88 17.0982 175.029 16.6752C173.391 26.7692 174.749 36.6732 176.917 46.5262Z" fill="#959D72"/>
<path d="M176.917 46.5263C174.748 36.6733 173.391 26.7693 175.03 16.6763C187.878 0.950294 198.185 -2.92874 212.442 2.01626C221.184 5.04826 225.986 11.5962 229.671 19.4342C229.648 25.5092 229.624 31.5833 229.601 37.6572C225.857 42.9282 223.123 48.9673 217.867 53.0883C209.505 62.0813 214.599 72.5183 214.779 82.4143C214.801 83.6303 215.489 84.8343 215.871 86.0423C209.474 90.3873 202.371 87.6482 195.597 87.8922C192.088 88.0182 192.359 84.6793 192.105 82.1953C192.137 76.7863 192.426 71.3612 192.123 65.9702C191.83 60.7512 190.801 55.6592 184.117 54.8612C183.585 50.4702 180.93 47.9113 176.917 46.5263ZM201.747 45.2753C213.023 45.3603 221.464 37.4523 221.4 26.8633C221.341 17.0833 212.695 8.46134 202.633 8.14834C192.115 7.82134 184.105 16.2412 184.122 27.6062C184.138 38.4672 190.846 45.1923 201.747 45.2753Z" fill="#484827"/>
<path d="M466.346 162.288C446.717 153.896 425.712 154.253 405.017 152.637C405.746 149.893 409.616 149.024 409.258 144.746C407.078 144.746 404.864 144.389 402.807 144.806C392.61 146.875 388.142 141.161 385.7 132.547C385.008 130.106 384.401 127.641 383.754 125.187C392.353 125.187 400.952 125.186 409.551 125.189C413.417 125.191 417.449 125.519 418.634 120.419C428.718 115 439.824 112.475 450.76 109.77C463.122 106.712 465.681 109.181 465.942 121.99C465.975 123.612 466.117 125.233 466.208 126.854C459.067 127.035 451.914 127.01 444.792 127.471C440.026 127.779 438.718 129.368 444.028 131.795C444.047 133.423 444.066 135.051 444.085 136.678C440.154 136.918 436.223 137.159 432.293 137.399C443.15 142.186 454.395 139.889 465.403 140.713C465.39 141.461 465.377 142.21 465.363 142.958C454.636 142.985 443.908 142.942 433.182 143.092C430.828 143.125 427.026 142.248 427.213 146.041C427.39 149.638 431.122 148.641 433.513 148.671C444.239 148.803 454.967 148.768 465.695 148.794C465.789 149.485 465.884 150.175 465.978 150.866C466.083 151.935 466.187 153.005 466.291 154.074C466.389 155.045 466.488 156.016 466.587 156.986C466.507 158.753 466.426 160.521 466.346 162.288Z" fill="#6C6D44"/>
<path d="M229.602 37.657C229.625 31.583 229.649 25.508 229.672 19.434C243.014 19.495 256.358 19.715 269.697 19.553C276.888 19.466 283.446 19.649 290.723 15.151C297.926 10.698 308.464 13.5041 317.507 14.3111C320.549 14.5821 320.928 17.629 321.267 20.36C324.002 42.372 323.227 43.2811 301.106 43.1801C295.95 43.1571 290.66 43.9461 286.75 39.1031C284.927 36.8451 281.951 37.469 279.388 37.474C262.793 37.508 246.197 37.59 229.602 37.657Z" fill="#959D72"/>
<path d="M20.4937 168.288C30.7057 170.609 40.8327 170.163 51.2397 168.933C59.4227 167.965 67.9067 169.837 76.2647 169.986C90.1977 170.235 104.137 170.114 118.073 170.149C116.756 171.931 114.831 172.278 112.851 172.104C98.8427 170.875 85.0567 174.15 71.1037 174.155C68.8097 174.156 64.8307 172.759 64.6547 176.305C64.4547 180.32 68.5777 179.74 71.3557 179.808C77.2087 179.952 83.0667 179.843 88.9217 179.933C91.1447 179.967 94.0677 179.768 93.9637 182.968C93.8617 186.096 90.9537 185.802 88.7257 185.82C82.8707 185.868 77.0137 185.766 71.1597 185.862C69.3677 185.891 66.6847 185.257 66.4577 187.915C66.1997 190.926 68.9287 191.405 71.1997 191.482C77.0497 191.68 82.9097 191.575 88.7607 191.773C91.0517 191.85 93.7147 192.403 93.4857 195.391C93.2817 198.057 90.6297 197.431 88.8257 197.557C83.0327 197.96 77.0947 196.639 71.4777 199.094C69.3747 200.013 65.2307 198.818 66.0417 202.833C66.7637 206.409 70.1377 205.126 72.5337 204.474C79.7337 202.513 86.5627 202.643 92.7477 207.423C92.0137 208.641 91.2807 209.859 90.5467 211.078C76.8587 208.037 63.0757 206.238 49.0277 207.905C46.6597 207.838 44.2927 207.771 41.9247 207.703C38.6187 204.376 35.3207 204.402 32.0297 207.727C27.5907 207.515 23.1527 207.303 18.7137 207.092C17.4567 198.605 19.9957 189.918 16.3747 181.414C14.4257 176.838 16.4957 171.856 20.4937 168.288ZM61.1327 187.958C61.2017 187.957 61.2707 187.956 61.3387 187.955C61.2337 186.03 61.4317 184.026 60.9577 182.197C60.0597 178.732 60.6897 173.974 54.8527 174.08C49.1547 174.183 48.1197 178.221 47.7357 182.567C47.4257 186.079 47.5337 189.636 47.5907 193.17C47.6587 197.401 49.7447 199.605 54.1377 199.767C58.4847 199.928 60.8467 198.081 61.1127 193.742C61.2307 191.821 61.1327 189.887 61.1327 187.958ZM23.6907 187.588C25.4747 191.868 21.2277 199.202 26.9377 199.971C31.5577 200.593 31.6007 193.124 31.9167 188.926C32.3037 183.783 33.9477 175.19 27.6737 175.034C20.6197 174.859 25.7877 183.379 23.6907 187.588Z" fill="#2A2B1C"/>
<path d="M116.077 86.5947C116.764 92.9577 121.705 91.7788 125.707 91.8318C144.447 92.0818 163.122 93.2388 181.664 95.9678C191.086 97.3548 191.602 99.1658 185.682 107.395C186.552 101.458 181.84 102.335 178.658 101.99C160.887 100.064 143.088 98.4008 125.313 96.5128C121.78 96.1378 119.153 96.7087 116.936 99.8657C107.849 112.807 98.5537 125.601 87.2227 141.392C116.216 141.392 142.466 141.425 168.715 141.32C170.555 141.313 172.391 140.279 174.23 139.723C175.706 147.754 170.982 148.699 164.564 148.886C133.845 149.782 103.241 146.582 72.5547 146.572C86.2387 125.982 100.575 105.866 116.077 86.5947Z" fill="#2A2B1C"/>
<path d="M75.0362 20.9192C75.2242 28.9892 77.4482 37.2321 72.9942 44.9061C58.8162 57.3011 42.4582 55.9171 26.2872 51.1301C16.8522 48.3371 13.1462 40.0011 13.8192 30.3221C14.5052 20.4541 19.9642 13.9081 29.6042 11.8991C45.9022 8.50315 61.8742 7.96417 75.0362 20.9192ZM44.7692 43.6291C44.7712 43.4591 44.7742 43.2891 44.7772 43.1191C48.3532 43.1191 51.9832 43.5141 55.4932 43.0321C61.5832 42.1951 65.8192 38.9421 65.9742 32.2721C66.1142 26.2381 63.0152 22.7591 57.0392 21.3291C48.9632 19.3971 40.9422 19.4531 32.9012 21.0881C27.0792 22.2721 23.8432 25.6821 23.9762 31.9801C24.1072 38.1701 27.4192 41.7301 33.1052 42.8681C36.8922 43.6261 40.8742 43.4101 44.7692 43.6291Z" fill="#515631"/>
<path d="M51.6791 256.801C42.6761 258.338 34.4971 256.878 27.7511 250.214C25.6001 249.538 26.3161 247.765 26.2501 246.292C26.6641 242.086 31.9051 245.009 33.5811 241.23C31.2701 240.859 29.4701 240.53 27.6581 240.286C20.2561 239.292 10.1211 243.994 6.07113 237.741C2.51912 232.257 5.01112 222.859 4.83312 215.19C21.6671 216.205 38.5331 211.499 55.3491 215.471L55.3921 215.206C56.3511 216.393 57.3111 217.58 58.2711 218.767C54.7751 219.376 54.1421 223.095 51.6831 224.831C47.3571 223.085 43.1931 222.352 39.8471 226.725C33.5231 233.299 34.2051 239.963 39.5921 246.686C43.0781 251.511 47.3841 250.237 51.7761 248.324C54.2171 249.551 56.0871 251.35 57.2881 253.821C55.4201 254.814 53.5501 255.807 51.6791 256.801Z" fill="#A2A675"/>
<path d="M496.519 265.38C498.176 250.973 496.397 236.927 491.204 223.462C489.167 218.18 488.637 214.91 495.014 212.455C499.1 210.882 502.432 207.352 506.103 204.699C516.938 220.699 518.889 238.82 518.102 257.386C517.838 263.606 511.668 264.042 507.088 265.027C503.696 265.758 500.051 265.306 496.519 265.38Z" fill="#B6B37E"/>
<path d="M184.12 54.8608C190.804 55.6598 191.832 60.7518 192.125 65.9698C192.428 71.3608 192.139 76.7859 192.108 82.1949C185.684 81.6769 179.04 83.9349 172.837 80.6639C172.687 77.1419 172.729 73.5999 172.35 70.1029C171.381 61.1689 175.179 56.0678 184.12 54.8608Z" fill="#656241"/>
<path d="M418.634 120.419C417.45 125.519 413.418 125.191 409.551 125.189C400.952 125.185 392.353 125.187 383.753 125.187C382.333 122.526 381.118 124.354 379.865 125.364C367.044 125.345 354.221 125.424 341.402 125.235C338.236 125.188 333.941 126.897 332.863 121.593C361.452 121.202 390.043 120.811 418.634 120.419Z" fill="#484827"/>
<path d="M4.83353 215.19C5.01153 222.859 2.51952 232.258 6.07152 237.741C10.1215 243.993 20.2555 239.292 27.6585 240.286C29.4705 240.53 31.2705 240.859 33.5815 241.23C31.9055 245.009 26.6645 242.086 26.2505 246.292C25.6145 246.181 24.9815 245.991 24.3425 245.969C0.040514 245.106 -3.39648 240.236 2.52052 215.026C3.29052 215.081 4.06253 215.135 4.83353 215.19Z" fill="#767D4F"/>
<path d="M465.696 148.793C454.969 148.767 444.24 148.802 433.514 148.67C431.123 148.64 427.391 149.637 427.214 146.04C427.027 142.247 430.829 143.124 433.183 143.091C443.908 142.941 454.636 142.984 465.364 142.957C467.311 144.418 471.083 145.245 467.353 148.677C466.786 148.493 466.233 148.531 465.696 148.793Z" fill="#403F22"/>
<path d="M4.83289 215.19C4.06189 215.135 3.28988 215.081 2.51888 215.026C1.62788 211.063 3.57989 209.855 7.19889 210.032C11.0249 210.219 14.8579 210.24 18.6889 210.333C28.8039 212.133 38.9709 210.293 49.1049 210.766C51.8779 211.418 54.6979 212.007 55.3509 215.472C38.5329 211.499 21.6669 216.205 4.83289 215.19Z" fill="#403F22"/>
<path d="M465.403 140.713C454.395 139.89 443.15 142.186 432.293 137.399C436.224 137.159 440.155 136.918 444.086 136.679C451.845 136.781 459.603 136.881 467.362 136.981C468.206 139.011 466.478 139.69 465.403 140.713Z" fill="#2A2B1C"/>
<path d="M444.029 131.794C438.72 129.367 440.027 127.779 444.793 127.47C451.915 127.009 459.068 127.035 466.209 126.853C469.729 129.321 466.237 131.016 465.531 133.018C458.336 133.099 451.33 129.844 444.029 131.794Z" fill="#34371E"/>
<path d="M444.027 131.794C451.329 129.844 458.334 133.098 465.529 133.019C466.14 134.34 466.75 135.662 467.361 136.983C459.602 136.882 451.844 136.782 444.085 136.68C444.065 135.05 444.046 133.422 444.027 131.794Z" fill="#656241"/>
<path d="M49.1035 210.766C38.9695 210.292 28.8025 212.133 18.6875 210.333C18.6955 209.252 18.7035 208.171 18.7115 207.09C23.1505 207.302 27.5885 207.514 32.0285 207.723C35.3315 209.856 38.6295 210.023 41.9225 207.701C44.2905 207.768 46.6575 207.836 49.0295 207.899C49.0565 208.852 49.0805 209.809 49.1035 210.766Z" fill="#8A946A"/>
<path d="M466.589 156.986C466.49 156.015 466.391 155.045 466.293 154.074C467.355 154.946 467.469 155.915 466.589 156.986Z" fill="#B6B37E"/>
<path d="M465.695 148.793C466.232 148.532 466.786 148.493 467.352 148.678C466.893 149.408 466.435 150.137 465.977 150.866C465.883 150.174 465.789 149.484 465.695 148.793Z" fill="#B6B37E"/>
<path d="M379.864 125.364C381.117 124.354 382.333 122.526 383.752 125.187C384.399 127.641 385.006 130.106 385.698 132.547C388.141 141.161 392.608 146.875 402.805 144.806C404.862 144.389 407.076 144.746 409.256 144.746C409.615 149.023 405.744 149.893 405.015 152.637L405.128 152.502C404.521 153.163 403.914 153.823 403.307 154.484C391.582 157.724 379.352 159.143 368.15 164.258C366.446 155.92 356.457 154.832 352.418 146.43C368.003 146.912 380.034 143.375 379.864 125.364Z" fill="#C9C28A"/>
<path d="M324.587 228.888C324.93 238.463 320.418 241.971 310.992 240.541C306.236 239.819 301.282 240.4 296.417 240.395C277.889 240.374 276.146 238.467 276.964 219.107L276.839 219.182C278.564 219.244 280.288 219.307 282.013 219.369C284.417 225.905 287.911 219.667 290.834 220.122C293.681 221.394 296.301 223.336 299.653 223.122C307.067 228.927 316.056 227.918 324.587 228.888Z" fill="#515631"/>
<path d="M282.014 219.368C280.289 219.306 278.565 219.243 276.841 219.181C280.184 211.291 277.12 205.69 270.477 201.369C277.408 198.228 287.618 199.853 288.401 187.283C292.093 194.947 294.68 201.946 305.559 199.737C295.27 206.237 298.162 214.811 299.654 223.12C296.302 223.334 293.682 221.393 290.833 220.129C290.831 220.137 290.25 219.693 290.25 219.693C290.458 217.825 289.539 216.939 287.743 216.818C285.833 217.669 283.923 218.518 282.014 219.368Z" fill="#C9C28A"/>
<path d="M211.398 124.612C224.069 119.754 235.895 121.015 247.224 121.973C268.973 123.811 290.656 122.966 312.371 122.593C314.618 122.554 317.546 121.32 318.029 124.247C318.613 127.787 315.133 126.957 313.181 126.957C280.373 126.954 247.565 126.855 214.757 126.73C214.252 126.727 213.748 126.121 211.398 124.612Z" fill="#2A2B1C"/>
<path d="M209.882 131.926C247.808 131.926 285.735 131.926 323.661 131.926C323.651 132.508 323.64 133.089 323.63 133.671C285.692 133.671 247.754 133.671 209.816 133.671C209.838 133.089 209.86 132.508 209.882 131.926Z" fill="#403F22"/>
<path d="M221.303 114.613C251.57 114.613 281.836 114.613 312.102 114.613C312.115 115.221 312.128 115.829 312.142 116.436C281.793 116.436 251.443 116.436 221.094 116.436C221.164 115.828 221.233 115.22 221.303 114.613Z" fill="#34371E"/>
<path d="M227.246 109.53C228.736 106.418 231.479 105.806 234.568 105.808C258.304 105.822 282.039 105.813 305.775 105.878C306.563 105.88 307.35 106.606 308.137 106.995C308.119 107.933 308.101 108.871 308.083 109.809C281.23 109.809 254.378 109.809 227.525 109.809L227.246 109.53Z" fill="#34371E"/>
<path d="M331.983 164.433C326.53 164.225 320.887 165.894 320.974 157.27C321.065 148.269 327.208 150.932 331.841 150.672C337.105 150.376 342.477 149.88 342.518 157.987C342.565 167.099 335.945 163.664 331.983 164.433Z" fill="#34371E"/>
<path d="M242.135 164.41C236.957 164.329 231.367 165.314 231.166 157.191C230.942 148.167 237.444 150.76 242.054 150.689C246.774 150.616 252.757 148.5 252.785 157.423C252.811 166.267 246.9 163.998 242.135 164.41Z" fill="#34371E"/>
<path d="M302.008 164.317C296.926 164.107 291.683 165.809 291.546 157.706C291.399 148.99 297.086 150.88 302.016 150.567C307.654 150.209 312.937 150.654 312.993 157.95C313.059 166.503 306.197 163.653 302.008 164.317Z" fill="#34371E"/>
<path d="M271.898 164.28C266.711 164.61 262.187 165.03 262.247 157.305C262.319 148.242 268.526 151.031 273.14 150.705C277.763 150.378 282.065 149.973 282.21 157.207C282.385 165.884 276.836 164.315 271.898 164.28Z" fill="#34371E"/>
<path d="M270.477 201.369C277.12 205.691 280.183 211.292 276.841 219.181L276.965 219.106C270.06 215.294 269.276 207.637 265.949 201.577C267.456 201.509 268.967 201.439 270.477 201.369Z" fill="#656241"/>
<path d="M227.524 109.809C227.182 110.073 226.839 110.338 226.496 110.602C226.747 110.246 226.998 109.889 227.247 109.532C227.246 109.53 227.524 109.809 227.524 109.809Z" fill="#34371E"/>
<path d="M49.1053 210.766C49.0823 209.809 49.0583 208.852 49.0312 207.9C63.0752 206.237 76.8582 208.036 90.5462 211.077C82.9062 227.839 80.3963 245.712 79.1093 263.85C75.7673 263.896 72.4263 263.943 69.0853 263.989C64.7723 262.044 60.4863 260.011 55.5943 260.043C54.3423 259.406 53.0913 258.77 51.8403 258.133C51.4673 257.735 51.4102 257.296 51.6732 256.809C53.5482 255.808 55.4182 254.814 57.2892 253.821C60.7092 252.748 62.0063 250.035 63.2693 246.922C67.0643 237.566 65.1902 228.765 61.3022 220.046C60.8112 216.627 58.8333 215.023 55.3923 215.206C55.3923 215.206 55.3473 215.47 55.3493 215.472C54.6983 212.007 51.8783 211.418 49.1053 210.766Z" fill="#515631"/>
<path d="M92.7485 207.422C86.5625 202.643 79.7344 202.512 72.5344 204.473C70.1384 205.126 66.7644 206.408 66.0424 202.832C65.2324 198.817 69.3764 200.012 71.4784 199.093C77.0964 196.638 83.0345 197.959 88.8265 197.556C90.6305 197.43 93.2824 198.056 93.4864 195.39C93.7154 192.401 91.0525 191.849 88.7615 191.772C82.9115 191.575 77.0514 191.68 71.2004 191.481C68.9294 191.404 66.2004 190.926 66.4584 187.914C66.6854 185.256 69.3685 185.89 71.1605 185.861C77.0145 185.766 82.8715 185.868 88.7264 185.819C90.9545 185.801 93.8625 186.095 93.9645 182.967C94.0685 179.767 91.1454 179.966 88.9224 179.932C83.0674 179.842 77.2095 179.951 71.3565 179.807C68.5775 179.739 64.4555 180.318 64.6555 176.304C64.8315 172.759 68.8105 174.155 71.1045 174.154C85.0565 174.149 98.8424 170.874 112.851 172.103C114.831 172.277 116.756 171.93 118.073 170.148C120.192 170.207 122.311 170.267 124.432 170.326C110.539 179.844 100.946 193.037 92.7485 207.422Z" fill="#484827"/>
<path d="M69.0859 263.989C72.4269 263.943 75.7679 263.896 79.1099 263.85C87.5849 266.34 95.9439 270.272 104.969 265.928C107.418 265.901 109.866 265.875 112.315 265.848C114.398 269.723 118.216 273.946 114.267 278.052C108.016 284.551 100.173 288.634 90.7369 286.999C77.9229 284.778 71.2639 276.403 69.0859 263.989Z" fill="#484827"/>
<path d="M237.322 252.489C237.298 281.975 212.481 307.049 183.636 306.731C154.543 306.41 129.566 280.623 129.743 251.089C129.919 221.807 155.91 195.276 184.01 195.696C213.754 196.14 237.348 221.275 237.322 252.489ZM184.661 212.979C163.239 212.959 145.847 229.715 145.6 250.611C145.349 271.845 162.434 289.348 183.438 289.374C204.974 289.4 221.462 273.415 221.559 252.415C221.66 230.503 205.281 212.997 184.661 212.979Z" fill="#7A765E"/>
<path d="M51.8411 258.133C53.0921 258.769 54.3441 259.406 55.5951 260.043C60.0521 292.487 85.4991 304.958 117.117 290.202C117.563 290.694 118.007 291.175 118.451 291.657C104.96 303.519 89.8141 304.482 74.5481 296.558C59.4151 288.702 51.4051 275.672 51.8411 258.133Z" fill="#868A5F"/>
<path d="M118.953 288.364C119.493 287.336 119.936 285.505 121.409 286.68C122.573 287.609 121.652 288.996 120.476 289.81C119.968 289.327 119.461 288.846 118.953 288.364Z" fill="#868A5F"/>
<path d="M120.476 289.81C119.8 290.425 119.125 291.04 118.45 291.656C118.007 291.175 117.563 290.693 117.117 290.202C117.734 289.585 118.352 288.978 118.962 288.367C119.461 288.846 119.968 289.327 120.476 289.81Z" fill="#868A5F"/>
<path d="M477.441 252.307C477.122 281.946 452.575 306.742 423.627 306.667C393.845 306.59 369.622 281.101 369.913 250.147C370.202 219.425 394.65 195.33 425.295 195.566C454.183 195.787 477.773 221.458 477.441 252.307ZM424.947 212.947C402.699 212.772 385.732 229.168 385.605 250.964C385.475 273.301 401.083 289.266 423.163 289.384C444.739 289.499 461.567 272.412 461.621 250.334C461.671 229.586 445.508 213.109 424.947 212.947Z" fill="#7A765E"/>
<path d="M307.35 289.325C308.086 289.209 308.822 289.093 309.559 288.975C323.355 299.904 337.773 299.78 355.448 288.823C357.247 287.708 359.167 283.261 361.518 286.881C363.308 289.636 359.353 291.091 357.334 292.293C343.954 300.257 330.039 304.745 314.96 297.02C311.748 295.374 307.237 294.484 307.35 289.325Z" fill="#8A946A"/>
<path d="M303.457 287.336C305.098 287.409 306.662 287.634 307.454 289.374C305.483 289.946 304.307 288.962 303.457 287.336Z" fill="#8A946A"/>
<path d="M174.23 139.723C172.392 140.279 170.556 141.312 168.715 141.32C142.466 141.425 116.216 141.392 87.2227 141.392C98.5527 125.601 107.849 112.807 116.936 99.8662C119.153 96.7092 121.78 96.1383 125.313 96.5133C143.088 98.4013 160.887 100.064 178.658 101.99C181.84 102.335 186.552 101.458 185.682 107.395C185.678 107.395 186.247 107.505 186.247 107.505C183.615 108.705 184.451 111.439 183.623 113.437C180.491 122.199 177.36 130.961 174.23 139.723Z" fill="#B7D1D8"/>
<path d="M183.621 113.437C184.45 111.439 183.614 108.705 186.245 107.505C186.209 109.854 186.751 112.458 183.621 113.437Z" fill="#2A2B1C"/>
<path d="M201.75 45.2749C190.85 45.1929 184.141 38.4678 184.125 27.6058C184.109 16.2398 192.119 7.81993 202.636 8.14793C212.697 8.46093 221.343 17.0829 221.403 26.8629C221.467 37.4509 213.025 45.3599 201.75 45.2749Z" fill="#868A5F"/>
<path d="M61.1348 187.958C61.1348 189.886 61.2328 191.821 61.1148 193.742C60.8488 198.08 58.4868 199.927 54.1398 199.767C49.7468 199.605 47.6608 197.4 47.5928 193.17C47.5358 189.635 47.4278 186.079 47.7378 182.567C48.1218 178.221 49.1568 174.184 54.8548 174.08C60.6918 173.974 60.0618 178.732 60.9598 182.197C61.4338 184.027 61.2358 186.03 61.3408 187.955C61.2718 187.956 61.2038 187.957 61.1348 187.958Z" fill="#976938"/>
<path d="M23.6914 187.588C25.7884 183.379 20.6204 174.859 27.6744 175.034C33.9494 175.19 32.3054 183.782 31.9174 188.926C31.6014 193.124 31.5584 200.593 26.9384 199.971C21.2294 199.202 25.4754 191.869 23.6914 187.588Z" fill="#976938"/>
<path d="M41.9252 207.701C38.6322 210.023 35.3333 209.856 32.0312 207.723C35.3212 204.4 38.6192 204.374 41.9252 207.701Z" fill="#515631"/>
<path d="M44.7696 43.6292C40.8746 43.4092 36.8926 43.6262 33.1056 42.8682C27.4186 41.7302 24.1066 38.1701 23.9766 31.9801C23.8436 25.6821 27.0796 22.2722 32.9016 21.0882C40.9426 19.4532 48.9626 19.3971 57.0396 21.3291C63.0156 22.7581 66.1146 26.2371 65.9746 32.2721C65.8196 38.9421 61.5836 42.1951 55.4936 43.0321C51.9836 43.5141 48.3536 43.1192 44.7776 43.1192C44.7746 43.2892 44.7726 43.4592 44.7696 43.6292Z" fill="#FDFDFC"/>
<path d="M61.3036 220.045C65.1916 228.764 67.0656 237.566 63.2706 246.921C62.0076 250.034 60.7106 252.748 57.2906 253.82C56.0886 251.348 54.2186 249.549 51.7766 248.322C51.8516 247.806 51.9666 247.298 52.1216 246.799C57.8616 239.984 59.3016 233.186 52.0446 226.42C51.9366 225.887 51.8166 225.356 51.6836 224.828C54.1426 223.092 54.7756 219.373 58.2676 218.765C59.2776 219.193 60.2906 219.619 61.3036 220.045Z" fill="#8A946A"/>
<path d="M39.5932 246.686C34.2072 239.962 33.5242 233.299 39.8492 226.725L39.8922 226.786C42.4932 233.29 40.4102 239.802 39.9282 246.311L39.5932 246.686Z" fill="#403F22"/>
<path d="M52.1237 246.802C51.9677 247.3 51.8518 247.807 51.7778 248.323C47.3868 250.236 43.0798 251.51 39.5938 246.685L39.9268 246.31C43.6508 246.142 47.3748 245.973 51.0988 245.804C51.4388 246.138 51.7807 246.471 52.1237 246.802Z" fill="#403F22"/>
<path d="M51.6837 224.83C51.8167 225.358 51.9367 225.888 52.0447 226.422L51.5707 226.854C47.6767 226.831 43.7837 226.808 39.8897 226.786L39.8477 226.725C43.1937 222.351 47.3577 223.084 51.6837 224.83Z" fill="#403F22"/>
<path d="M61.3045 220.045C60.2915 219.619 59.2785 219.193 58.2695 218.766C57.3135 217.579 56.3535 216.392 55.3945 215.205C58.8355 215.022 60.8135 216.626 61.3045 220.045Z" fill="#403F22"/>
<path d="M282.012 219.368C283.922 218.518 285.831 217.668 287.743 216.819C288.579 217.777 289.414 218.735 290.249 219.693C290.249 219.693 290.83 220.137 290.832 220.129C287.909 219.667 284.415 225.904 282.012 219.368Z" fill="#656241"/>
<path d="M290.248 219.693C289.413 218.735 288.578 217.778 287.742 216.819C289.536 216.939 290.456 217.825 290.248 219.693Z" fill="#515631"/>
<path d="M184.661 212.979C205.281 212.998 221.661 230.504 221.559 252.414C221.462 273.414 204.974 289.4 183.438 289.373C162.435 289.347 145.35 271.844 145.6 250.61C145.847 229.715 163.239 212.959 184.661 212.979ZM152.971 251.424C152.913 269.019 166.142 282.98 183.033 283.149C199.838 283.317 214.849 268.581 215.152 251.618C215.44 235.487 200.558 219.469 184.949 219.11C167.467 218.708 153.031 233.295 152.971 251.424Z" fill="#2A2B1C"/>
<path d="M424.948 212.947C445.509 213.109 461.672 229.586 461.622 250.334C461.569 272.412 444.741 289.499 423.164 289.384C401.084 289.266 385.477 273.301 385.606 250.964C385.732 229.168 402.7 212.772 424.948 212.947ZM454.116 251.548C454.221 233.177 441.049 218.965 423.906 218.956C406.414 218.946 392.085 233.315 391.621 251.33C391.183 268.353 405.65 283.035 423.089 283.265C440.809 283.499 454.01 270.004 454.116 251.548Z" fill="#2A2B1C"/>
<path d="M52.0435 226.422C59.2995 233.188 57.8605 239.986 52.1205 246.801C51.7785 246.471 51.4365 246.139 51.1055 245.814C51.2665 239.5 51.4185 233.177 51.5705 226.854L52.0435 226.422Z" fill="#403F22"/>
<path d="M51.5716 226.854C51.4196 233.177 51.2676 239.5 51.1066 245.814C47.3736 245.974 43.6496 246.142 39.9256 246.311C40.4076 239.802 42.4916 233.29 39.8906 226.786C43.7846 226.808 47.6776 226.831 51.5716 226.854Z" fill="#656241"/>
<path d="M152.969 251.424C153.029 233.295 167.464 218.708 184.948 219.11C200.556 219.469 215.439 235.487 215.151 251.618C214.848 268.58 199.837 283.317 183.032 283.149C166.14 282.98 152.911 269.019 152.969 251.424ZM203.912 251.038C203.819 239.141 195.442 230.441 184.133 230.497C171.704 230.559 162.75 239.745 163.041 252.133C163.325 264.218 171.38 272.04 183.411 271.912C195.728 271.782 204.008 263.351 203.912 251.038Z" fill="#838054"/>
<path d="M454.114 251.548C454.008 270.005 440.807 283.499 423.087 283.265C405.648 283.035 391.18 268.352 391.619 251.33C392.083 233.314 406.412 218.946 423.904 218.956C441.047 218.965 454.219 233.176 454.114 251.548ZM402.781 250.913C402.708 263.796 410.533 271.958 422.892 271.891C434.694 271.827 443.834 262.841 443.994 251.145C444.141 240.399 433.474 229.123 423.332 229.304C412.352 229.5 402.845 239.496 402.781 250.913Z" fill="#838054"/>
<path d="M203.913 251.038C204.009 263.351 195.729 271.782 183.412 271.913C171.381 272.041 163.326 264.219 163.042 252.134C162.751 239.746 171.706 230.56 184.134 230.498C195.443 230.441 203.821 239.141 203.913 251.038Z" fill="#F7CEA3"/>
<path d="M402.782 250.913C402.847 239.496 412.353 229.5 423.333 229.303C433.475 229.122 444.143 240.398 443.995 251.144C443.835 262.84 434.694 271.826 422.893 271.89C410.533 271.958 402.709 263.796 402.782 250.913Z" fill="#F7CEA3"/>
</svg>
