<svg width="430" height="430" viewBox="0 0 430 430" fill="none" xmlns="http://www.w3.org/2000/svg">
<path d="M417.6 326.246L329.761 309.951C326.975 309.431 324.084 308.298 321.206 306.641C317.214 304.334 313.249 301.009 309.616 296.875C309.105 296.294 308.604 295.696 308.106 295.088C304.607 290.769 301.655 285.898 299.431 280.865C297.479 276.449 296.093 271.909 295.389 267.517C293.86 258.101 295.605 250.19 300.15 245.816C300.886 245.111 301.688 244.513 302.539 244.016L284.149 254.703C283.297 255.2 282.496 255.798 281.76 256.503C277.215 260.877 275.465 268.788 276.999 278.204C277.698 282.596 279.089 287.136 281.041 291.552C283.265 296.585 286.217 301.456 289.716 305.77C290.213 306.383 290.715 306.977 291.226 307.562C294.855 311.696 298.824 315.021 302.816 317.328C305.693 318.99 308.58 320.118 311.371 320.638L399.21 336.933C401.457 337.348 403.423 337.03 405.011 336.105L423.401 325.418C421.813 326.343 419.847 326.661 417.6 326.246Z" fill="#1B1B1B"/>
<path d="M401.683 335.505C408.824 336.818 413.097 330.749 411.569 321.333C410.151 312.465 403.981 303.21 396.94 299.149C396.521 298.905 396.093 298.679 395.67 298.476L303.295 253.965C302.213 253.436 301.126 252.971 300.072 252.616C293.792 250.526 288.147 251.355 284.242 255.075C279.697 259.449 277.948 267.355 279.481 276.776C280.982 286.178 285.628 296.239 292.198 304.347C296.223 309.315 300.744 313.271 305.298 315.9C308.176 317.562 311.063 318.69 313.853 319.21L401.683 335.505Z" fill="#4F4927"/>
<path d="M396.857 300.461C389.113 295.99 382.841 299.595 382.818 308.496C382.795 317.359 389.025 328.184 396.77 332.655C404.515 337.126 410.786 333.521 410.809 324.653C410.832 315.752 404.602 304.932 396.857 300.461ZM396.77 331.813C389.43 327.577 383.527 317.318 383.551 308.915C383.574 300.479 389.518 297.063 396.857 301.299C404.197 305.535 410.1 315.794 410.077 324.229C410.049 332.632 404.109 336.049 396.77 331.813Z" fill="#494222"/>
<path d="M369.934 299.522L347.98 289.53C346.608 288.904 345.356 287.011 345.185 285.303C345.015 283.595 345.987 282.715 347.363 283.342L369.317 293.333C370.689 293.959 371.942 295.852 372.112 297.56C372.283 299.268 371.306 300.148 369.934 299.522Z" fill="#35301B"/>
<path d="M319.05 242.376C312.268 239.13 305.941 238.895 301.199 241.649L282.809 252.336C287.551 249.577 293.878 249.812 300.66 253.058L393.062 297.588L403.846 293.868L411.452 286.901L319.05 242.376Z" fill="#2C2C2C"/>
<path d="M429.378 312.718C428.922 309.863 428.029 306.971 426.8 304.19C425.138 300.429 422.863 296.869 420.234 293.872C417.978 291.307 415.464 289.152 412.844 287.637C412.383 287.37 411.923 287.126 411.462 286.905L393.072 297.592C393.537 297.818 393.998 298.062 394.454 298.324C397.073 299.835 399.592 301.989 401.844 304.559C404.477 307.556 406.747 311.115 408.41 314.877C409.639 317.658 410.532 320.55 410.988 323.405C412.167 330.675 410.284 336.196 406.379 338.466L424.769 327.779C428.674 325.509 430.557 319.993 429.378 312.718Z" fill="#333333"/>
<path opacity="0.4" d="M314.902 259.923L314.096 259.536L332.55 248.882L333.356 249.269L314.902 259.923ZM360.596 262.396L359.79 262.009L341.336 272.664L342.141 273.05L360.596 262.396ZM374.216 268.962L373.41 268.575L354.956 279.23L355.761 279.616L374.216 268.962ZM308.124 239.788L289.609 250.48C290.061 250.461 290.507 250.429 290.972 250.447L309.468 239.77C309.008 239.751 308.57 239.774 308.124 239.788ZM319.05 242.376C318.921 242.32 300.462 252.98 300.462 252.98C300.655 253.063 301.277 253.362 301.277 253.362L319.732 242.707L319.05 242.376ZM346.976 255.834L346.17 255.448L327.716 266.102L328.521 266.489L346.976 255.834ZM428.645 309.582C428.581 309.334 428.544 309.08 428.47 308.832L410.066 319.459C410.14 319.707 410.172 319.961 410.241 320.209L428.645 309.582ZM395.521 299.089C395.746 299.236 395.963 299.406 396.184 299.558L414.629 288.908C414.408 288.752 414.192 288.586 413.966 288.439L395.521 299.089ZM429.092 321.65C429.179 321.328 429.258 320.997 429.327 320.66L410.955 331.269C410.886 331.61 410.807 331.937 410.72 332.259L429.092 321.65ZM401.461 282.089L400.655 281.702L382.2 292.357L383.006 292.744L401.461 282.089ZM387.841 275.523L387.035 275.136L368.58 285.791L369.386 286.178L387.841 275.523ZM423.041 297.629L404.615 308.27C404.757 308.477 404.923 308.657 405.061 308.868L423.488 298.228C423.35 298.016 423.184 297.836 423.041 297.629Z" fill="#2C2C2C"/>
<path opacity="0.1" d="M420.23 293.872L401.84 304.559C404.474 307.557 406.744 311.116 408.406 314.878L426.796 304.191C425.134 300.429 422.859 296.87 420.23 293.872Z" fill="#ADADAD"/>
<path d="M410.983 323.405C409.381 313.385 402.387 302.91 394.444 298.324C393.988 298.062 393.523 297.813 393.063 297.592L300.661 253.063C292.552 249.181 285.098 249.605 280.217 254.297C275.336 258.956 273.476 267.438 275.115 277.558C276.727 287.66 281.732 298.444 288.772 307.142C293.091 312.492 297.94 316.742 302.807 319.555C304.75 320.674 306.693 321.568 308.613 322.212C309.75 322.613 310.864 322.903 311.974 323.101L399.813 339.396C407.903 340.897 412.705 334.018 410.983 323.405ZM399.21 336.933L311.371 320.637C308.585 320.117 305.693 318.984 302.816 317.327C298.262 314.698 293.745 310.743 289.716 305.774C283.145 297.666 278.504 287.605 277.003 278.203C275.47 268.787 277.22 260.881 281.764 256.502C285.669 252.782 291.318 251.953 297.594 254.043C298.649 254.398 299.735 254.863 300.817 255.393L393.192 299.904C393.62 300.111 394.044 300.332 394.467 300.576C401.507 304.637 407.673 313.892 409.091 322.76C410.629 332.181 406.356 338.245 399.21 336.933Z" fill="#252525"/>
<path d="M297.897 321.163L157.457 240.079C154.326 238.269 151.365 235.732 148.731 232.73C145.596 229.162 142.921 224.939 140.968 220.524C138.767 215.546 137.487 210.325 137.501 205.518C137.52 199.265 139.744 194.785 143.367 192.681L120.948 205.711C117.325 207.815 115.101 212.296 115.082 218.548C115.068 223.36 116.348 228.582 118.549 233.554C120.502 237.97 123.177 242.192 126.312 245.761C128.946 248.763 131.907 251.3 135.038 253.109L275.478 334.194C283.54 338.849 290.861 339.272 296.152 336.197L318.571 323.171C313.28 326.242 305.959 325.818 297.897 321.163Z" fill="#1B1B1B"/>
<path d="M278.093 332.688L137.653 251.603C126.602 245.222 117.665 229.709 117.697 217.042C117.73 205.527 125.253 200.024 135.199 204.297L274.562 263.985C275.782 264.533 277.034 265.159 278.282 265.877C285.363 269.966 292.155 276.827 297.446 285.248C303.731 295.235 307.285 306.461 307.258 316.066C307.207 334.474 294.112 341.933 278.093 332.688Z" fill="#4F4927"/>
<path d="M154.759 190.364C149.749 188.219 145.301 188.315 141.945 190.268L119.525 203.294C122.882 201.341 127.335 201.245 132.34 203.39L271.675 263.064L294.094 250.033L154.759 190.364Z" fill="#2C2C2C"/>
<path d="M323.673 282.338C322.236 279.092 320.537 275.878 318.59 272.775C316.504 269.455 314.192 266.356 311.724 263.548C307.516 258.754 302.856 254.808 298.095 252.059C296.76 251.291 295.429 250.618 294.099 250.038L271.68 263.069C273.015 263.649 274.346 264.321 275.681 265.09C280.442 267.839 285.102 271.785 289.31 276.578C291.778 279.387 294.09 282.486 296.175 285.805C298.123 288.909 299.827 292.118 301.259 295.369C304.763 303.298 306.669 311.443 306.65 318.732C306.623 328.512 303.156 335.4 297.575 338.641L319.994 325.611C325.575 322.369 329.042 315.481 329.069 305.701C329.088 298.412 327.177 290.267 323.673 282.338Z" fill="#333333"/>
<path d="M296.171 285.801C290.521 276.818 283.228 269.446 275.676 265.086C274.346 264.317 273.01 263.644 271.675 263.064L132.34 203.391C121.395 198.703 113.116 204.726 113.084 217.393C113.043 231.335 122.896 248.399 135.033 255.407L275.474 336.491C292.607 346.382 306.59 338.411 306.646 318.727C306.673 308.455 302.87 296.479 296.171 285.801ZM275.483 334.194L135.043 253.11C123.992 246.728 115.05 231.215 115.087 218.549C115.119 207.033 122.643 201.531 132.589 205.803L271.951 265.491C273.171 266.039 274.424 266.66 275.672 267.383C282.753 271.472 289.545 278.333 294.835 286.759C301.12 296.746 304.675 307.971 304.647 317.576C304.592 335.98 291.502 343.444 275.483 334.194Z" fill="#252525"/>
<path opacity="0.4" d="M217.615 239.913L216.579 239.466L239.081 226.472L240.117 226.914L217.615 239.913ZM222.579 219.409L221.543 218.962L199.041 231.956L200.077 232.403L222.579 219.409ZM257.655 234.429L256.619 233.987L234.117 246.981L235.153 247.427L257.655 234.429ZM205.04 211.895L204.004 211.448L181.502 224.442L182.538 224.888L205.04 211.895ZM147.462 209.869L169.964 196.875L168.928 196.428L146.426 209.422L147.462 209.869ZM275.194 241.939L274.158 241.492L251.656 254.486L252.692 254.932L275.194 241.939ZM187.502 204.385L186.466 203.943L163.964 216.937L165 217.379L187.502 204.385ZM316.661 269.957C316.491 269.708 316.325 269.455 316.15 269.211L293.69 282.177C293.865 282.421 294.03 282.679 294.201 282.923L316.661 269.957ZM326.621 318.082L304.243 331.002C303.999 331.537 303.709 332.025 303.428 332.517L325.778 319.616C326.068 319.109 326.367 318.626 326.621 318.082ZM306.614 319.39C306.605 319.758 306.577 320.104 306.564 320.463L328.978 307.52C328.997 307.161 329.019 306.811 329.029 306.447L306.614 319.39ZM129.656 202.511L152.167 189.512C151.776 189.402 151.366 189.236 150.984 189.153L128.445 202.165C128.837 202.248 129.251 202.4 129.656 202.511ZM306.366 258.174L283.891 271.149C284.126 271.361 284.356 271.573 284.591 271.789L307.066 258.814C306.831 258.598 306.6 258.386 306.366 258.174ZM292.732 249.453L291.696 249.006L269.194 262L270.23 262.442L292.732 249.453ZM327.689 294.25L305.251 307.207C305.325 307.524 305.357 307.833 305.426 308.151L327.859 295.198C327.79 294.881 327.763 294.572 327.689 294.25ZM323.476 281.928C323.351 281.657 323.204 281.385 323.08 281.113L300.628 294.075C300.753 294.346 300.9 294.618 301.024 294.89L323.476 281.928Z" fill="#2C2C2C"/>
<path opacity="0.1" d="M299.876 292.533L322.296 279.507C321.172 277.228 319.966 274.972 318.589 272.775C316.503 269.455 314.192 266.357 311.724 263.548L289.305 276.578C291.773 279.387 294.084 282.486 296.17 285.806C297.547 287.997 298.753 290.254 299.876 292.533Z" fill="#ADADAD"/>
<path d="M131.6 206.065L41.9375 258.22L77.4377 262.47L167.1 210.311L131.6 206.065Z" fill="#716B42"/>
<path d="M167.1 210.311L77.4375 262.47L186.65 325.523L255.174 338.678L276.313 273.364L167.1 210.311Z" fill="#827C52"/>
<path d="M296.908 297.768C294.477 292.265 291.144 287.012 287.239 282.564C283.942 278.807 280.231 275.63 276.313 273.364L186.65 325.523C190.573 327.789 194.28 330.966 197.577 334.723C201.481 339.171 204.815 344.429 207.246 349.927C209.986 356.129 211.584 362.64 211.565 368.658C211.542 376.527 208.761 382.066 204.281 384.667L293.943 332.508C298.423 329.902 301.204 324.368 301.227 316.499C301.246 310.485 299.648 303.97 296.908 297.768Z" fill="url(#paint0_linear_575_21185)"/>
<path opacity="0.4" d="M287.238 282.563L197.576 334.723C201.481 339.17 204.814 344.429 207.246 349.926L296.908 297.767C294.477 292.27 291.143 287.011 287.238 282.563Z" fill="#8B855B"/>
<path d="M186.65 325.523L77.4416 262.47L41.9414 258.225L41.8262 299.407L186.489 382.927C200.288 390.892 211.523 384.515 211.569 368.658C211.611 352.8 200.445 333.489 186.65 325.523Z" fill="#4F4927"/>
<path d="M185.342 386.149L44.902 305.065C41.771 303.26 38.8104 300.719 36.1767 297.716C33.041 294.148 30.3658 289.921 28.4135 285.51C26.2126 280.533 24.9326 275.311 24.9464 270.504C24.9649 264.251 27.1887 259.771 30.8124 257.667L8.39346 270.693C4.76976 272.797 2.54587 277.277 2.52745 283.53C2.51364 288.342 3.79363 293.559 5.99456 298.536C7.94684 302.952 10.622 307.174 13.7577 310.742C16.3914 313.745 19.352 316.282 22.483 318.091L162.928 399.175C170.99 403.83 178.311 404.254 183.602 401.178L206.021 388.152C200.726 391.228 193.405 390.805 185.342 386.149Z" fill="#1B1B1B"/>
<path d="M175.816 391.735L35.3756 310.651C24.3249 304.269 15.3878 288.757 15.42 276.09C15.4522 264.57 22.9759 259.072 32.9215 263.345L172.284 323.032C173.504 323.58 174.757 324.202 176.005 324.925C183.086 329.013 189.878 335.874 195.168 344.295C201.453 354.283 205.008 365.508 204.98 375.113C204.93 393.522 191.839 400.985 175.816 391.735Z" fill="#4F4927"/>
<path d="M154.8 326.03C159.925 323.056 167.011 323.475 174.852 328.001C190.461 337.012 203.018 358.827 202.967 376.766C202.944 385.653 199.804 391.915 194.734 394.862L185.544 400.267C190.613 397.321 193.749 391.059 193.776 382.172C193.827 364.233 181.271 342.417 165.662 333.406C157.82 328.88 150.73 328.461 145.609 331.44L154.8 326.03Z" fill="#494222"/>
<path d="M165.662 333.406C181.271 342.417 193.828 364.233 193.777 382.172C193.726 400.041 181.087 407.312 165.478 398.296C149.869 389.285 137.313 367.47 137.363 349.6C137.414 331.665 150.053 324.39 165.662 333.406Z" fill="#665F34"/>
<mask id="mask0_575_21185" style="mask-type:luminance" maskUnits="userSpaceOnUse" x="141" y="335" width="49" height="63">
<path d="M141.322 352.28C141.364 336.874 152.258 330.667 165.666 338.407C179.037 346.124 189.858 364.874 189.816 380.28C189.775 395.645 178.881 401.852 165.51 394.13C152.101 386.39 141.276 367.645 141.322 352.28Z" fill="white"/>
</mask>
<g mask="url(#mask0_575_21185)">
<path d="M148.396 336.713L172.859 322.494C168.503 325.027 165.805 330.409 165.782 338.062C165.741 353.427 176.561 372.171 189.969 379.912C196.696 383.798 202.797 384.152 207.204 381.592L182.74 395.811C178.334 398.371 172.233 398.016 165.506 394.13C152.098 386.39 141.277 367.641 141.318 352.28C141.342 344.628 144.044 339.245 148.396 336.713Z" fill="#776F3D"/>
</g>
<mask id="mask1_575_21185" style="mask-type:luminance" maskUnits="userSpaceOnUse" x="141" y="335" width="49" height="63">
<path d="M141.322 352.28C141.364 336.874 152.258 330.667 165.666 338.407C179.037 346.124 189.858 364.874 189.816 380.28C189.775 395.645 178.881 401.852 165.51 394.13C152.101 386.39 141.276 367.645 141.322 352.28Z" fill="white"/>
</mask>
<g mask="url(#mask1_575_21185)">
<path d="M150.618 335.483C150.572 335.502 159.044 330.575 159.044 330.575C163.455 328.01 169.565 328.374 176.302 332.265C189.696 340 200.521 358.75 200.479 374.142C200.456 381.79 197.758 387.168 193.403 389.701L184.93 394.627C185.534 394.277 186.022 393.743 186.56 393.283C182.094 397.095 175.335 397.362 167.668 392.938C154.274 385.202 143.449 366.453 143.49 351.06C143.518 343.389 146.239 338.002 150.618 335.483Z" fill="#5A552D"/>
</g>
<mask id="mask2_575_21185" style="mask-type:luminance" maskUnits="userSpaceOnUse" x="141" y="335" width="49" height="63">
<path d="M141.322 352.28C141.364 336.874 152.258 330.667 165.666 338.407C179.037 346.124 189.858 364.874 189.816 380.28C189.775 395.645 178.881 401.852 165.51 394.13C152.101 386.39 141.276 367.645 141.322 352.28Z" fill="white"/>
</mask>
<g mask="url(#mask2_575_21185)">
<path d="M169.147 352.709C162.342 348.247 156.485 350.342 156.084 357.373C155.684 364.408 160.896 373.756 167.697 378.217C174.497 382.679 180.359 380.584 180.759 373.548C181.16 366.517 175.948 357.166 169.147 352.709ZM167.747 377.375C161.393 373.208 156.526 364.473 156.899 357.902C157.272 351.332 162.747 349.38 169.101 353.542C175.455 357.704 180.322 366.444 179.949 373.01C179.571 379.585 174.101 381.542 167.747 377.375Z" fill="#494222"/>
<path d="M168.89 348.555C167.508 347.648 166.449 345.751 166.532 344.324C166.615 342.896 167.803 342.473 169.184 343.375C170.566 344.282 171.625 346.179 171.542 347.607C171.459 349.039 170.271 349.462 168.89 348.555ZM183.679 362.949C184.711 362.58 184.807 360.932 183.886 359.284C183.44 358.482 182.827 357.801 182.16 357.364C181.492 356.926 180.843 356.779 180.346 356.958C179.844 357.138 179.544 357.617 179.508 358.312C179.466 359.003 179.692 359.822 180.138 360.624C180.585 361.425 181.197 362.106 181.87 362.544C182.537 362.986 183.182 363.128 183.679 362.949ZM183.679 362.949C184.711 362.58 184.807 360.932 183.886 359.284C183.44 358.482 182.827 357.801 182.16 357.364C181.492 356.926 180.843 356.779 180.346 356.958C179.844 357.138 179.544 357.617 179.508 358.312C179.466 359.003 179.692 359.822 180.138 360.624C180.585 361.425 181.197 362.106 181.87 362.544C182.537 362.986 183.182 363.128 183.679 362.949ZM189.531 378.825C189.614 377.398 188.555 375.5 187.174 374.593C185.793 373.686 184.6 374.11 184.522 375.542C184.439 376.969 185.498 378.871 186.879 379.778C188.261 380.68 189.449 380.257 189.531 378.825ZM189.531 378.825C189.614 377.398 188.555 375.5 187.174 374.593C185.793 373.686 184.6 374.11 184.522 375.542C184.439 376.969 185.498 378.871 186.879 379.778C188.261 380.68 189.449 380.257 189.531 378.825ZM182.804 390.557C183.836 390.184 183.932 388.54 183.012 386.892C182.565 386.091 181.953 385.409 181.285 384.972C180.617 384.534 179.973 384.387 179.471 384.567C178.439 384.935 178.343 386.579 179.263 388.232C179.71 389.028 180.322 389.71 180.99 390.147C181.658 390.589 182.302 390.737 182.804 390.557ZM182.804 390.557C183.836 390.184 183.932 388.54 183.012 386.892C182.565 386.091 181.953 385.409 181.285 384.972C180.617 384.534 179.973 384.387 179.471 384.567C178.439 384.935 178.343 386.579 179.263 388.232C179.71 389.028 180.322 389.71 180.99 390.147C181.658 390.589 182.302 390.737 182.804 390.557ZM170.299 386.652C170.382 385.225 169.323 383.323 167.941 382.421C166.56 381.514 165.367 381.942 165.289 383.369C165.206 384.797 166.265 386.698 167.647 387.606C169.028 388.508 170.216 388.08 170.299 386.652ZM170.299 386.652C170.382 385.225 169.323 383.323 167.941 382.421C166.56 381.514 165.367 381.942 165.289 383.369C165.206 384.797 166.265 386.698 167.647 387.606C169.028 388.508 170.216 388.08 170.299 386.652ZM156.481 374.013C156.983 373.838 157.277 373.355 157.319 372.664C157.36 371.973 157.135 371.154 156.688 370.353C156.241 369.552 155.629 368.87 154.961 368.433C154.294 367.995 153.649 367.848 153.147 368.027C152.116 368.396 152.019 370.044 152.94 371.693C153.382 372.489 153.999 373.171 154.667 373.608C155.334 374.045 155.979 374.193 156.481 374.013ZM156.481 374.013C156.983 373.838 157.277 373.355 157.319 372.664C157.36 371.973 157.135 371.154 156.688 370.353C156.241 369.552 155.629 368.87 154.961 368.433C154.294 367.995 153.649 367.848 153.147 368.027C152.116 368.396 152.019 370.044 152.94 371.693C153.382 372.489 153.999 373.171 154.667 373.608C155.334 374.045 155.979 374.193 156.481 374.013ZM152.309 355.434C152.392 354.007 151.333 352.105 149.952 351.198C148.57 350.291 147.378 350.719 147.299 352.147C147.217 353.574 148.276 355.471 149.657 356.378C151.038 357.285 152.226 356.862 152.309 355.434ZM152.309 355.434C152.392 354.007 151.333 352.105 149.952 351.198C148.57 350.291 147.378 350.719 147.299 352.147C147.217 353.574 148.276 355.471 149.657 356.378C151.038 357.285 152.226 356.862 152.309 355.434ZM157.36 346.405C158.392 346.037 158.488 344.388 157.567 342.74C157.121 341.939 156.508 341.257 155.841 340.82C155.169 340.382 154.524 340.235 154.027 340.415C152.995 340.783 152.898 342.431 153.819 344.08C154.266 344.876 154.878 345.558 155.546 345.995C156.214 346.442 156.858 346.585 157.36 346.405ZM157.36 346.405C158.392 346.037 158.488 344.388 157.567 342.74C157.121 341.939 156.508 341.257 155.841 340.82C155.169 340.382 154.524 340.235 154.027 340.415C152.995 340.783 152.898 342.431 153.819 344.08C154.266 344.876 154.878 345.558 155.546 345.995C156.214 346.442 156.858 346.585 157.36 346.405Z" fill="#494222"/>
</g>
<path d="M17.5753 267.489C21.0747 265.453 25.9233 265.739 31.2828 268.833C41.9513 274.994 50.534 289.903 50.4972 302.165C50.4788 308.238 48.3376 312.52 44.8705 314.532L38.59 318.225C42.0525 316.213 44.1983 311.931 44.2167 305.857C44.2535 293.596 35.6708 278.687 25.0023 272.526C19.6427 269.432 14.7989 269.146 11.2949 271.181L17.5753 267.489Z" fill="#494222"/>
<path d="M24.9976 272.53C35.6661 278.691 44.2488 293.6 44.212 305.862C44.1752 318.073 35.5373 323.041 24.8688 316.885C14.2003 310.724 5.61758 295.815 5.65442 283.604C5.69125 271.342 14.3291 266.374 24.9976 272.53Z" fill="#665F34"/>
<mask id="mask3_575_21185" style="mask-type:luminance" maskUnits="userSpaceOnUse" x="8" y="273" width="34" height="44">
<path d="M8.36141 285.432C8.39364 274.901 15.8389 270.656 25.0018 275.951C34.1416 281.228 41.5363 294.042 41.5087 304.568C41.4811 315.07 34.0311 319.311 24.8958 314.034C15.7284 308.749 8.33378 295.934 8.36141 285.432Z" fill="white"/>
</mask>
<g mask="url(#mask3_575_21185)">
<path d="M13.1968 274.791L29.9156 265.075C26.9365 266.806 25.0946 270.485 25.0762 275.716C25.0486 286.219 32.4434 299.028 41.6063 304.319C46.2061 306.976 50.3731 307.22 53.389 305.47L36.6702 315.185C33.6589 316.935 29.4873 316.691 24.8875 314.034C15.7246 308.744 8.3253 295.93 8.35753 285.431C8.37594 280.201 10.2223 276.522 13.1968 274.791Z" fill="#776F3D"/>
</g>
<mask id="mask4_575_21185" style="mask-type:luminance" maskUnits="userSpaceOnUse" x="8" y="273" width="34" height="44">
<path d="M8.36141 285.432C8.39364 274.901 15.8389 270.656 25.0018 275.951C34.1416 281.228 41.5363 294.042 41.5087 304.568C41.4811 315.07 34.0311 319.311 24.8958 314.034C15.7284 308.749 8.33378 295.934 8.36141 285.432Z" fill="white"/>
</mask>
<g mask="url(#mask4_575_21185)">
<path d="M14.7205 273.953C14.6883 273.966 20.4807 270.601 20.4807 270.601C23.4966 268.851 27.6683 269.095 32.2774 271.756C41.431 277.042 48.8303 289.856 48.8027 300.377C48.7888 305.604 46.9425 309.282 43.968 311.009L38.1755 314.375C38.5899 314.136 38.9215 313.767 39.2898 313.454C36.2371 316.06 31.6143 316.244 26.379 313.219C17.2254 307.933 9.82597 295.119 9.85359 284.598C9.86741 279.354 11.7276 275.675 14.7205 273.953Z" fill="#5A552D"/>
</g>
<mask id="mask5_575_21185" style="mask-type:luminance" maskUnits="userSpaceOnUse" x="8" y="273" width="34" height="44">
<path d="M8.36141 285.432C8.39364 274.901 15.8389 270.656 25.0018 275.951C34.1416 281.228 41.5363 294.042 41.5087 304.568C41.4811 315.07 34.0311 319.311 24.8958 314.034C15.7284 308.749 8.33378 295.934 8.36141 285.432Z" fill="white"/>
</mask>
<g mask="url(#mask5_575_21185)">
<path d="M27.384 285.722C22.7335 282.674 18.7276 284.106 18.456 288.913C18.1843 293.72 21.7435 300.111 26.394 303.159C31.0445 306.207 35.0458 304.775 35.322 299.968C35.5891 295.161 32.0299 288.77 27.384 285.722ZM26.4262 302.583C22.0842 299.738 18.7553 293.766 19.0131 289.277C19.2664 284.787 23.0098 283.452 27.3518 286.298C31.6938 289.143 35.0181 295.115 34.7649 299.604C34.507 304.094 30.7682 305.434 26.4262 302.583Z" fill="#494222"/>
<path d="M27.2035 282.886C26.2596 282.269 25.5367 280.97 25.5919 279.994C25.6472 279.018 26.4622 278.728 27.4061 279.345C28.35 279.962 29.073 281.26 29.0177 282.236C28.9625 283.217 28.1474 283.507 27.2035 282.886ZM37.3149 292.725C38.0194 292.472 38.0839 291.349 37.4577 290.22C37.1538 289.673 36.7347 289.207 36.2743 288.908C35.8184 288.609 35.3765 288.508 35.0358 288.632C34.695 288.756 34.4877 289.083 34.4647 289.557C34.4371 290.032 34.5891 290.589 34.8976 291.137C35.2015 291.685 35.6205 292.15 36.0809 292.449C36.5322 292.748 36.9696 292.845 37.3149 292.725ZM37.3149 292.725C38.0194 292.472 38.0839 291.349 37.4577 290.22C37.1538 289.673 36.7347 289.207 36.2743 288.908C35.8184 288.609 35.3765 288.508 35.0358 288.632C34.695 288.756 34.4877 289.083 34.4647 289.557C34.4371 290.032 34.5891 290.589 34.8976 291.137C35.2015 291.685 35.6205 292.15 36.0809 292.449C36.5322 292.748 36.9696 292.845 37.3149 292.725ZM41.3115 303.578C41.3668 302.602 40.644 301.303 39.7001 300.686C38.7562 300.069 37.9411 300.359 37.8859 301.336C37.8306 302.312 38.5535 303.61 39.4974 304.232C40.4414 304.853 41.2563 304.554 41.3115 303.578ZM41.3115 303.578C41.3668 302.602 40.644 301.303 39.7001 300.686C38.7562 300.069 37.9411 300.359 37.8859 301.336C37.8306 302.312 38.5535 303.61 39.4974 304.232C40.4414 304.853 41.2563 304.554 41.3115 303.578ZM36.7163 311.594C37.4208 311.341 37.4853 310.218 36.8591 309.089C36.5552 308.542 36.1361 308.076 35.6757 307.777C35.2198 307.478 34.7779 307.377 34.4372 307.501C33.7327 307.754 33.6682 308.878 34.2944 310.006C34.5983 310.549 35.0172 311.019 35.4777 311.318C35.9335 311.617 36.371 311.714 36.7163 311.594ZM36.7163 311.594C37.4208 311.341 37.4853 310.218 36.8591 309.089C36.5552 308.542 36.1361 308.076 35.6757 307.777C35.2198 307.478 34.7779 307.377 34.4372 307.501C33.7327 307.754 33.6682 308.878 34.2944 310.006C34.5983 310.549 35.0172 311.019 35.4777 311.318C35.9335 311.617 36.371 311.714 36.7163 311.594ZM28.1659 308.924C28.2212 307.948 27.4982 306.649 26.5543 306.032C25.6104 305.415 24.7954 305.705 24.7401 306.681C24.6849 307.657 25.4078 308.956 26.3517 309.578C27.3002 310.19 28.1107 309.9 28.1659 308.924ZM28.1659 308.924C28.2212 307.948 27.4982 306.649 26.5543 306.032C25.6104 305.415 24.7954 305.705 24.7401 306.681C24.6849 307.657 25.4078 308.956 26.3517 309.578C27.3002 310.19 28.1107 309.9 28.1659 308.924ZM18.7267 300.286C19.0674 300.166 19.2701 299.835 19.2978 299.365C19.3254 298.891 19.1734 298.333 18.8695 297.786C18.5656 297.238 18.1466 296.773 17.6862 296.473C17.2257 296.174 16.7882 296.077 16.4429 296.197C15.7384 296.45 15.6741 297.574 16.3003 298.702C16.6042 299.245 17.0231 299.71 17.4789 300.014C17.944 300.309 18.3814 300.405 18.7267 300.286ZM18.7267 300.286C19.0674 300.166 19.2701 299.835 19.2978 299.365C19.3254 298.891 19.1734 298.333 18.8695 297.786C18.5656 297.238 18.1466 296.773 17.6862 296.473C17.2257 296.174 16.7882 296.077 16.4429 296.197C15.7384 296.45 15.6741 297.574 16.3003 298.702C16.6042 299.245 17.0231 299.71 17.4789 300.014C17.944 300.309 18.3814 300.405 18.7267 300.286ZM15.872 287.587C15.9272 286.611 15.2043 285.312 14.2604 284.695C13.3165 284.074 12.5016 284.368 12.4463 285.344C12.3911 286.32 13.114 287.619 14.0579 288.236C15.0018 288.853 15.8167 288.563 15.872 287.587ZM15.872 287.587C15.9272 286.611 15.2043 285.312 14.2604 284.695C13.3165 284.074 12.5016 284.368 12.4463 285.344C12.3911 286.32 13.114 287.619 14.0579 288.236C15.0018 288.853 15.8167 288.563 15.872 287.587ZM19.3253 281.417C20.0298 281.164 20.0943 280.04 19.4681 278.912C19.1642 278.364 18.7452 277.899 18.2848 277.6C17.8289 277.3 17.3868 277.204 17.0415 277.323C16.337 277.577 16.2725 278.7 16.8987 279.828C17.2026 280.372 17.6217 280.837 18.0775 281.14C18.5426 281.44 18.9846 281.541 19.3253 281.417ZM19.3253 281.417C20.0298 281.164 20.0943 280.04 19.4681 278.912C19.1642 278.364 18.7452 277.899 18.2848 277.6C17.8289 277.3 17.3868 277.204 17.0415 277.323C16.337 277.577 16.2725 278.7 16.8987 279.828C17.2026 280.372 17.6217 280.837 18.0775 281.14C18.5426 281.44 18.9846 281.541 19.3253 281.417Z" fill="#494222"/>
</g>
<path d="M42.2038 255.347C37.1942 253.201 32.7463 253.298 29.3897 255.25L6.9707 268.276C10.3273 266.324 14.7752 266.227 19.7848 268.373L159.12 328.046L181.539 315.02L42.2038 255.347Z" fill="#2C2C2C"/>
<path d="M211.118 347.321C209.682 344.075 207.983 340.861 206.035 337.757C203.949 334.437 201.633 331.339 199.17 328.53C194.961 323.737 190.302 319.791 185.541 317.042C184.205 316.273 182.875 315.601 181.544 315.021L159.125 328.046C160.46 328.627 161.791 329.299 163.122 330.068C167.883 332.817 172.542 336.763 176.751 341.556C179.219 344.365 181.53 347.463 183.616 350.783C185.564 353.887 187.267 357.096 188.699 360.347C192.203 368.276 194.11 376.421 194.091 383.71C194.063 393.489 190.596 400.378 185.016 403.619L207.435 390.593C213.015 387.352 216.483 380.464 216.51 370.684C216.529 363.395 214.622 355.25 211.118 347.321Z" fill="#333333"/>
<path d="M183.615 350.787C177.966 341.804 170.672 334.432 163.121 330.072C161.79 329.303 160.455 328.631 159.124 328.051L19.7892 268.377C8.84439 263.69 0.565564 269.712 0.533333 282.379C0.491893 296.321 10.3454 313.386 22.4827 320.393L162.923 401.478C180.056 411.368 194.04 403.398 194.095 383.714C194.118 373.437 190.315 361.46 183.615 350.787ZM162.923 399.176L22.4781 318.091C11.4274 311.709 2.49025 296.197 2.52248 283.53C2.55472 272.01 10.0784 266.512 20.024 270.785L159.391 330.473C160.611 331.016 161.864 331.642 163.112 332.365C170.193 336.454 176.985 343.314 182.275 351.736C188.56 361.723 192.115 372.949 192.087 382.553C192.037 400.967 178.946 408.426 162.923 399.176Z" fill="#252525"/>
<path d="M60.961 307.059C63.2172 305.747 66.339 305.931 69.7924 307.925C76.6668 311.894 82.1968 321.503 82.1783 329.404C82.1691 333.318 80.7832 336.076 78.5547 337.375L73.126 340.552C75.3591 339.253 76.7404 336.495 76.7543 332.581C76.7773 324.68 71.2475 315.071 64.3684 311.102C60.9151 309.108 57.7933 308.924 55.5371 310.236L60.961 307.059Z" fill="#494222"/>
<path d="M64.3647 311.106C71.2391 315.075 76.7691 324.684 76.7507 332.586C76.7276 340.455 71.1609 343.659 64.2864 339.69C57.412 335.721 51.8774 326.112 51.9005 318.238C51.9189 310.337 57.4857 307.132 64.3647 311.106Z" fill="#665F34"/>
<mask id="mask6_575_21185" style="mask-type:luminance" maskUnits="userSpaceOnUse" x="53" y="311" width="22" height="29">
<path d="M53.6407 319.418C53.6591 312.631 58.457 309.896 64.3645 313.308C70.2536 316.706 75.0191 324.966 75.0007 331.753C74.9823 338.521 70.1844 341.256 64.2953 337.854C58.3878 334.447 53.6223 326.186 53.6407 319.418Z" fill="white"/>
</mask>
<g mask="url(#mask6_575_21185)">
<path d="M56.7579 312.562L67.5323 306.3C65.6122 307.414 64.4243 309.785 64.4151 313.156C64.3966 319.924 69.1622 328.18 75.0697 331.592C78.035 333.305 80.7195 333.461 82.6625 332.333L71.8881 338.595C69.9451 339.723 67.2606 339.567 64.2953 337.854C58.3878 334.447 53.6223 326.186 53.6407 319.418C53.6499 316.047 54.8378 313.676 56.7579 312.562Z" fill="#776F3D"/>
</g>
<mask id="mask7_575_21185" style="mask-type:luminance" maskUnits="userSpaceOnUse" x="53" y="311" width="22" height="29">
<path d="M53.6407 319.418C53.6591 312.631 58.457 309.896 64.3645 313.308C70.2536 316.706 75.0191 324.966 75.0007 331.753C74.9823 338.521 70.1844 341.256 64.2953 337.854C58.3878 334.447 53.6223 326.186 53.6407 319.418Z" fill="white"/>
</mask>
<g mask="url(#mask7_575_21185)">
<path d="M57.738 312.023C57.7196 312.032 61.4492 309.864 61.4492 309.864C63.3922 308.736 66.0812 308.892 69.0511 310.61C74.9494 314.017 79.7195 322.277 79.7011 329.055C79.6919 332.421 78.504 334.792 76.5839 335.906L72.8497 338.075C73.1167 337.919 73.3332 337.684 73.568 337.481C71.6019 339.162 68.6228 339.277 65.2477 337.329C59.3494 333.922 54.5793 325.662 54.5977 318.884C54.6115 315.504 55.8087 313.133 57.738 312.023Z" fill="#5A552D"/>
</g>
<mask id="mask8_575_21185" style="mask-type:luminance" maskUnits="userSpaceOnUse" x="53" y="311" width="22" height="29">
<path d="M53.6407 319.418C53.6591 312.631 58.457 309.896 64.3645 313.308C70.2536 316.706 75.0191 324.966 75.0007 331.753C74.9823 338.521 70.1844 341.256 64.2953 337.854C58.3878 334.447 53.6223 326.186 53.6407 319.418Z" fill="white"/>
</mask>
<g mask="url(#mask8_575_21185)">
<path d="M65.8978 319.606C62.9003 317.64 60.3218 318.566 60.1422 321.66C59.9672 324.759 62.2602 328.875 65.2577 330.841C68.2552 332.807 70.8336 331.882 71.0086 328.783C71.1882 325.689 68.8952 321.572 65.8978 319.606ZM65.2945 330.238C62.6239 328.488 60.575 324.814 60.7315 322.051C60.8881 319.289 63.1902 318.469 65.8608 320.219C68.5314 321.968 70.5803 325.643 70.4238 328.405C70.2672 331.163 67.9651 331.988 65.2945 330.238Z" fill="#494222"/>
</g>
<path d="M87.6363 322.461C89.8925 321.149 93.0143 321.333 96.4677 323.327C103.342 327.296 108.872 336.906 108.849 344.807C108.84 348.721 107.459 351.479 105.225 352.777L99.7968 355.954C102.03 354.656 103.411 351.898 103.42 347.984C103.443 340.083 97.9135 330.473 91.0344 326.504C87.5811 324.51 84.4593 324.326 82.2031 325.638L87.6363 322.461Z" fill="#494222"/>
<path d="M91.0385 326.508C97.913 330.477 103.448 340.087 103.424 347.988C103.401 355.857 97.8347 359.062 90.9603 355.093C84.0858 351.124 78.5513 341.514 78.5743 333.641C78.5973 325.739 84.1641 322.535 91.0385 326.508Z" fill="#665F34"/>
<mask id="mask9_575_21185" style="mask-type:luminance" maskUnits="userSpaceOnUse" x="80" y="327" width="22" height="28">
<path d="M80.3145 334.82C80.3329 328.033 85.1308 325.298 91.0383 328.71C96.9274 332.108 101.698 340.368 101.675 347.155C101.656 353.924 96.8583 356.659 90.9692 353.256C85.0663 349.844 80.2961 341.588 80.3145 334.82Z" fill="white"/>
</mask>
<g mask="url(#mask9_575_21185)">
<path d="M83.4317 327.964L94.2061 321.702C92.2861 322.816 91.0981 325.188 91.0889 328.558C91.0705 335.327 95.8361 343.582 101.744 346.994C104.709 348.707 107.393 348.864 109.336 347.736L98.562 353.998C96.6189 355.126 93.9344 354.969 90.9692 353.256C85.0617 349.844 80.2961 341.589 80.3145 334.82C80.3237 331.45 81.5163 329.078 83.4317 327.964Z" fill="#776F3D"/>
</g>
<mask id="mask10_575_21185" style="mask-type:luminance" maskUnits="userSpaceOnUse" x="80" y="327" width="22" height="28">
<path d="M80.3145 334.82C80.3329 328.033 85.1308 325.298 91.0383 328.71C96.9274 332.108 101.698 340.368 101.675 347.155C101.656 353.924 96.8583 356.659 90.9692 353.256C85.0663 349.844 80.2961 341.588 80.3145 334.82Z" fill="white"/>
</mask>
<g mask="url(#mask10_575_21185)">
<path d="M84.4118 327.421C84.3934 327.43 88.123 325.261 88.123 325.261C90.0661 324.133 92.7551 324.29 95.7249 326.007C101.623 329.414 106.393 337.675 106.375 344.452C106.366 347.818 105.178 350.19 103.258 351.304L99.5235 353.473C99.7906 353.316 100.007 353.081 100.242 352.879C98.2757 354.559 95.2966 354.674 91.9216 352.727C86.0233 349.319 81.2531 341.059 81.2715 334.281C81.2854 330.902 82.4825 328.535 84.4118 327.421Z" fill="#5A552D"/>
</g>
<mask id="mask11_575_21185" style="mask-type:luminance" maskUnits="userSpaceOnUse" x="80" y="327" width="22" height="28">
<path d="M80.3145 334.82C80.3329 328.033 85.1308 325.298 91.0383 328.71C96.9274 332.108 101.698 340.368 101.675 347.155C101.656 353.924 96.8583 356.659 90.9692 353.256C85.0663 349.844 80.2961 341.588 80.3145 334.82Z" fill="white"/>
</mask>
<g mask="url(#mask11_575_21185)">
<path d="M92.5755 335.009C89.578 333.042 86.9995 333.968 86.8199 337.062C86.645 340.161 88.9381 344.277 91.9356 346.243C94.9331 348.21 97.5115 347.284 97.6865 344.185C97.8661 341.091 95.5684 336.975 92.5755 335.009ZM91.9678 345.636C89.2972 343.886 87.2482 340.212 87.4048 337.449C87.5613 334.686 89.8635 333.862 92.534 335.616C95.2046 337.366 97.2536 341.04 97.097 343.803C96.9451 346.566 94.6429 347.39 91.9678 345.636Z" fill="#494222"/>
</g>
<path d="M114.309 337.859C116.566 336.547 119.687 336.731 123.141 338.724C130.015 342.694 135.545 352.303 135.527 360.204C135.518 364.118 134.132 366.876 131.903 368.175L126.474 371.352C128.708 370.053 130.089 367.295 130.098 363.381C130.121 355.48 124.591 345.871 117.712 341.902C114.259 339.908 111.137 339.724 108.881 341.036L114.309 337.859Z" fill="#494222"/>
<path d="M117.712 341.906C124.587 345.875 130.117 355.484 130.098 363.386C130.075 371.255 124.509 374.459 117.634 370.49C110.76 366.521 105.225 356.912 105.248 349.038C105.271 341.141 110.838 337.937 117.712 341.906Z" fill="#665F34"/>
<mask id="mask12_575_21185" style="mask-type:luminance" maskUnits="userSpaceOnUse" x="106" y="342" width="23" height="29">
<path d="M106.994 350.221C107.013 343.434 111.81 340.699 117.718 344.111C123.607 347.509 128.373 355.77 128.354 362.557C128.336 369.325 123.538 372.06 117.649 368.658C111.741 365.246 106.976 356.99 106.994 350.221Z" fill="white"/>
</mask>
<g mask="url(#mask12_575_21185)">
<path d="M110.111 343.366L120.886 337.104C118.966 338.218 117.778 340.589 117.769 343.96C117.75 350.728 122.516 358.984 128.423 362.396C131.389 364.109 134.073 364.265 136.016 363.137L125.242 369.399C123.298 370.527 120.614 370.371 117.649 368.658C111.741 365.246 106.976 356.99 106.994 350.222C107.003 346.851 108.191 344.48 110.111 343.366Z" fill="#776F3D"/>
</g>
<mask id="mask13_575_21185" style="mask-type:luminance" maskUnits="userSpaceOnUse" x="106" y="342" width="23" height="29">
<path d="M106.994 350.221C107.013 343.434 111.81 340.699 117.718 344.111C123.607 347.509 128.373 355.77 128.354 362.557C128.336 369.325 123.538 372.06 117.649 368.658C111.741 365.246 106.976 356.99 106.994 350.221Z" fill="white"/>
</mask>
<g mask="url(#mask13_575_21185)">
<path d="M111.091 342.822C111.073 342.831 114.803 340.662 114.803 340.662C116.746 339.534 119.435 339.691 122.404 341.408C128.303 344.816 133.073 353.076 133.055 359.854C133.045 363.22 131.857 365.591 129.937 366.705L126.203 368.874C126.47 368.717 126.687 368.483 126.922 368.28C124.955 369.961 121.976 370.076 118.601 368.128C112.703 364.721 107.933 356.46 107.951 349.683C107.96 346.303 109.162 343.932 111.091 342.822Z" fill="#5A552D"/>
</g>
<mask id="mask14_575_21185" style="mask-type:luminance" maskUnits="userSpaceOnUse" x="106" y="342" width="23" height="29">
<path d="M106.994 350.221C107.013 343.434 111.81 340.699 117.718 344.111C123.607 347.509 128.373 355.77 128.354 362.557C128.336 369.325 123.538 372.06 117.649 368.658C111.741 365.246 106.976 356.99 106.994 350.221Z" fill="white"/>
</mask>
<g mask="url(#mask14_575_21185)">
<path d="M119.251 350.41C116.253 348.444 113.675 349.369 113.5 352.464C113.325 355.562 115.618 359.679 118.615 361.645C121.613 363.611 124.191 362.685 124.371 359.587C124.541 356.492 122.248 352.376 119.251 350.41ZM118.647 361.037C115.977 359.287 113.928 355.613 114.084 352.85C114.241 350.088 116.543 349.263 119.214 351.018C121.884 352.767 123.933 356.442 123.777 359.204C123.62 361.967 121.318 362.791 118.647 361.037Z" fill="#494222"/>
</g>
<path opacity="0.4" d="M105.059 304.895L104.023 304.449L126.525 291.455L127.561 291.901L105.059 304.895ZM110.023 284.392L108.987 283.95L86.4847 296.943L87.5208 297.39L110.023 284.392ZM145.099 299.416L144.063 298.969L121.561 311.963L122.597 312.405L145.099 299.416ZM92.4844 276.882L91.4484 276.435L68.9465 289.429L69.9825 289.875L92.4844 276.882ZM34.9058 274.851L57.4077 261.857L56.3718 261.415L33.8698 274.409L34.9058 274.851ZM162.638 306.926L161.602 306.479L139.1 319.473L140.136 319.915L162.638 306.926ZM74.9461 269.372L73.9101 268.925L51.4082 281.919L52.4441 282.366L74.9461 269.372ZM204.105 334.944C203.935 334.695 203.769 334.442 203.594 334.198L181.134 347.164C181.309 347.408 181.474 347.666 181.645 347.91L204.105 334.944ZM214.065 383.065L191.687 395.985C191.443 396.519 191.153 397.007 190.872 397.5L213.222 384.598C213.512 384.096 213.811 383.608 214.065 383.065ZM194.058 384.372C194.054 384.741 194.022 385.086 194.008 385.445L216.422 372.507C216.441 372.148 216.464 371.798 216.473 371.434L194.058 384.372ZM17.1004 267.493L39.6115 254.495C39.2202 254.384 38.8104 254.219 38.4282 254.136L15.8848 267.148C16.2807 267.231 16.6952 267.383 17.1004 267.493ZM193.81 323.156L171.335 336.132C171.57 336.343 171.805 336.555 172.035 336.772L194.51 323.796C194.275 323.585 194.045 323.368 193.81 323.156ZM180.176 314.436L179.14 313.989L156.638 326.983L157.674 327.429L180.176 314.436ZM215.133 359.232L192.696 372.189C192.769 372.507 192.801 372.815 192.87 373.133L215.303 360.181C215.234 359.863 215.207 359.555 215.133 359.232ZM210.92 346.911C210.796 346.639 210.648 346.367 210.524 346.096L188.073 359.057C188.202 359.329 188.344 359.601 188.469 359.872L210.92 346.911Z" fill="#2C2C2C"/>
<path opacity="0.1" d="M187.322 357.515L209.741 344.484C208.617 342.205 207.411 339.949 206.034 337.753C203.949 334.433 201.632 331.334 199.169 328.525L176.75 341.556C179.218 344.365 181.529 347.463 183.615 350.783C184.992 352.98 186.198 355.24 187.322 357.515Z" fill="#ADADAD"/>
<path d="M262.715 415.67L174.876 399.375C172.09 398.855 169.199 397.722 166.321 396.064C162.329 393.757 158.365 390.433 154.732 386.298C154.221 385.718 153.719 385.119 153.221 384.507C149.722 380.188 146.771 375.317 144.547 370.284C142.594 365.868 141.208 361.328 140.504 356.936C138.975 347.52 140.72 339.609 145.265 335.235C146.002 334.53 146.803 333.932 147.655 333.435L129.265 344.121C128.413 344.619 127.611 345.217 126.875 345.922C122.33 350.296 120.58 358.202 122.114 367.623C122.814 372.015 124.204 376.555 126.156 380.971C128.38 386.004 131.332 390.875 134.831 395.189C135.329 395.802 135.83 396.396 136.341 396.981C139.97 401.115 143.939 404.44 147.931 406.747C150.809 408.409 153.696 409.537 156.486 410.057L244.325 426.352C246.572 426.767 248.538 426.449 250.127 425.523L268.517 414.837C266.928 415.767 264.962 416.084 262.715 415.67Z" fill="#1B1B1B"/>
<path d="M253.952 420.799C261.099 422.111 265.367 416.047 263.838 406.631C262.42 397.763 256.25 388.508 249.21 384.447C248.791 384.202 248.363 383.977 247.939 383.774L155.565 339.263C154.483 338.734 153.401 338.269 152.342 337.914C146.061 335.824 140.416 336.652 136.512 340.373C131.967 344.747 130.217 352.653 131.75 362.074C133.252 371.476 137.898 381.537 144.468 389.645C148.492 394.613 153.014 398.568 157.568 401.197C160.445 402.86 163.332 403.988 166.123 404.508L253.952 420.799Z" fill="#4F4927"/>
<path d="M135.979 341.4C140.767 338.619 147.398 339.01 154.728 343.242C169.324 351.668 181.061 372.065 181.015 388.839C180.992 397.146 178.059 403.003 173.321 405.756L169.623 407.985C174.361 405.231 177.294 399.374 177.317 391.068C177.363 374.294 165.627 353.896 151.031 345.47C143.7 341.239 137.07 340.847 132.281 343.628L135.979 341.4Z" fill="#494222"/>
<path d="M151.03 345.471C165.626 353.897 177.367 374.294 177.316 391.068C177.27 407.773 165.451 414.574 150.859 406.148C136.263 397.722 124.522 377.324 124.572 360.615C124.618 343.841 136.438 337.045 151.03 345.471Z" fill="#665F34"/>
<mask id="mask15_575_21185" style="mask-type:luminance" maskUnits="userSpaceOnUse" x="128" y="347" width="46" height="59">
<path d="M128.274 363.119C128.315 348.716 138.5 342.91 151.038 350.148C163.539 357.368 173.66 374.897 173.618 389.3C173.577 403.665 163.392 409.472 150.891 402.252C138.353 395.014 128.232 377.485 128.274 363.119Z" fill="white"/>
</mask>
<g mask="url(#mask15_575_21185)">
<path d="M134.89 348.564L157.765 335.271C153.695 337.637 151.167 342.67 151.148 349.825C151.107 364.191 161.227 381.72 173.765 388.958C180.055 392.591 185.76 392.923 189.881 390.528L167.006 403.821C162.885 406.216 157.18 405.884 150.891 402.251C138.353 395.013 128.237 377.484 128.274 363.118C128.292 355.963 130.82 350.93 134.89 348.564Z" fill="#776F3D"/>
</g>
<mask id="mask16_575_21185" style="mask-type:luminance" maskUnits="userSpaceOnUse" x="128" y="347" width="46" height="59">
<path d="M128.274 363.119C128.315 348.716 138.5 342.91 151.038 350.148C163.539 357.368 173.66 374.897 173.618 389.3C173.577 403.665 163.392 409.472 150.891 402.252C138.353 395.014 128.232 377.485 128.274 363.119Z" fill="white"/>
</mask>
<g mask="url(#mask16_575_21185)">
<path d="M136.971 347.412C136.93 347.431 144.85 342.826 144.85 342.826C148.975 340.428 154.685 340.768 160.988 344.406C173.512 351.639 183.637 369.168 183.596 383.562C183.578 390.713 181.05 395.741 176.979 398.107L169.055 402.712C169.622 402.385 170.077 401.883 170.579 401.455C166.408 405.019 160.081 405.267 152.917 401.133C140.392 393.904 130.267 376.37 130.309 361.976C130.332 354.803 132.873 349.77 136.971 347.412Z" fill="#5A552D"/>
</g>
<mask id="mask17_575_21185" style="mask-type:luminance" maskUnits="userSpaceOnUse" x="128" y="347" width="46" height="59">
<path d="M128.274 363.119C128.315 348.716 138.5 342.91 151.038 350.148C163.539 357.368 173.66 374.897 173.618 389.3C173.577 403.665 163.392 409.472 150.891 402.252C138.353 395.014 128.232 377.485 128.274 363.119Z" fill="white"/>
</mask>
<g mask="url(#mask17_575_21185)">
<path d="M154.29 363.519C147.926 359.348 142.452 361.309 142.079 367.884C141.706 374.459 146.577 383.203 152.936 387.375C159.295 391.546 164.774 389.585 165.147 383.01C165.525 376.43 160.653 367.686 154.29 363.519ZM152.982 386.583C147.042 382.687 142.488 374.519 142.838 368.377C143.188 362.235 148.304 360.407 154.248 364.302C160.193 368.197 164.737 376.366 164.392 382.503C164.042 388.65 158.926 390.478 152.982 386.583Z" fill="#494222"/>
<path d="M154.05 359.638C152.756 358.79 151.771 357.013 151.844 355.678C151.918 354.342 153.032 353.946 154.326 354.794C155.615 355.641 156.605 357.418 156.532 358.749C156.453 360.084 155.339 360.485 154.05 359.638ZM167.882 373.096C168.849 372.751 168.936 371.213 168.075 369.671C167.661 368.925 167.085 368.285 166.459 367.875C165.833 367.465 165.229 367.332 164.76 367.497C164.29 367.663 164.014 368.114 163.977 368.759C163.94 369.408 164.152 370.172 164.566 370.918C164.981 371.664 165.556 372.304 166.183 372.714C166.809 373.124 167.412 373.262 167.882 373.096ZM167.882 373.096C168.849 372.751 168.936 371.213 168.075 369.671C167.661 368.925 167.085 368.285 166.459 367.875C165.833 367.465 165.229 367.332 164.76 367.497C164.29 367.663 164.014 368.114 163.977 368.759C163.94 369.408 164.152 370.172 164.566 370.918C164.981 371.664 165.556 372.304 166.183 372.714C166.809 373.124 167.412 373.262 167.882 373.096ZM173.352 387.941C173.43 386.606 172.44 384.833 171.146 383.986C169.852 383.139 168.743 383.535 168.664 384.87C168.586 386.205 169.576 387.982 170.87 388.83C172.164 389.672 173.273 389.276 173.352 387.941ZM173.352 387.941C173.43 386.606 172.44 384.833 171.146 383.986C169.852 383.139 168.743 383.535 168.664 384.87C168.586 386.205 169.576 387.982 170.87 388.83C172.164 389.672 173.273 389.276 173.352 387.941ZM167.062 398.909C168.029 398.563 168.116 397.026 167.255 395.483C166.836 394.733 166.265 394.097 165.639 393.687C165.013 393.278 164.41 393.144 163.945 393.31C162.978 393.655 162.89 395.193 163.751 396.736C164.166 397.481 164.741 398.117 165.368 398.527C165.989 398.941 166.592 399.075 167.062 398.909ZM167.062 398.909C168.029 398.563 168.116 397.026 167.255 395.483C166.836 394.733 166.265 394.097 165.639 393.687C165.013 393.278 164.41 393.144 163.945 393.31C162.978 393.655 162.89 395.193 163.751 396.736C164.166 397.481 164.741 398.117 165.368 398.527C165.989 398.941 166.592 399.075 167.062 398.909ZM155.367 395.253C155.445 393.918 154.455 392.145 153.161 391.298C151.872 390.45 150.758 390.846 150.679 392.182C150.601 393.517 151.591 395.294 152.885 396.142C154.179 396.989 155.293 396.588 155.367 395.253ZM155.367 395.253C155.445 393.918 154.455 392.145 153.161 391.298C151.872 390.45 150.758 390.846 150.679 392.182C150.601 393.517 151.591 395.294 152.885 396.142C154.179 396.989 155.293 396.588 155.367 395.253ZM142.451 383.438C142.921 383.272 143.197 382.821 143.234 382.176C143.271 381.532 143.064 380.763 142.645 380.017C142.23 379.271 141.655 378.631 141.028 378.221C140.402 377.811 139.799 377.678 139.329 377.844C138.363 378.189 138.275 379.727 139.136 381.269C139.55 382.015 140.126 382.651 140.752 383.06C141.378 383.47 141.982 383.604 142.451 383.438ZM142.451 383.438C142.921 383.272 143.197 382.821 143.234 382.176C143.271 381.532 143.064 380.763 142.645 380.017C142.23 379.271 141.655 378.631 141.028 378.221C140.402 377.811 139.799 377.678 139.329 377.844C138.363 378.189 138.275 379.727 139.136 381.269C139.55 382.015 140.126 382.651 140.752 383.06C141.378 383.47 141.982 383.604 142.451 383.438ZM138.547 366.065C138.625 364.73 137.635 362.953 136.341 362.105C135.052 361.258 133.938 361.659 133.859 362.994C133.786 364.329 134.776 366.107 136.065 366.954C137.359 367.797 138.473 367.401 138.547 366.065ZM138.547 366.065C138.625 364.73 137.635 362.953 136.341 362.105C135.052 361.258 133.938 361.659 133.859 362.994C133.786 364.329 134.776 366.107 136.065 366.954C137.359 367.797 138.473 367.401 138.547 366.065ZM143.271 357.625C144.238 357.28 144.325 355.742 143.464 354.2C143.05 353.454 142.474 352.814 141.848 352.404C141.222 351.994 140.619 351.861 140.149 352.026C139.182 352.372 139.095 353.91 139.956 355.452C140.37 356.198 140.946 356.833 141.572 357.248C142.198 357.658 142.801 357.791 143.271 357.625ZM143.271 357.625C144.238 357.28 144.325 355.742 143.464 354.2C143.05 353.454 142.474 352.814 141.848 352.404C141.222 351.994 140.619 351.861 140.149 352.026C139.182 352.372 139.095 353.91 139.956 355.452C140.37 356.198 140.946 356.833 141.572 357.248C142.198 357.658 142.801 357.791 143.271 357.625Z" fill="#494222"/>
</g>
<path d="M232.988 386.74C235.654 385.188 239.347 385.409 243.426 387.767C251.553 392.459 258.087 403.813 258.064 413.151C258.05 417.779 256.415 421.039 253.777 422.572L250.816 424.335C253.455 422.802 255.089 419.542 255.103 414.915C255.131 405.577 248.592 394.222 240.466 389.53C236.386 387.173 232.693 386.956 230.027 388.504L232.988 386.74Z" fill="#494222"/>
<path d="M240.466 389.525C248.593 394.217 255.127 405.572 255.103 414.91C255.076 424.211 248.496 427.996 240.374 423.304C232.252 418.612 225.713 407.257 225.736 397.952C225.759 388.618 232.339 384.834 240.466 389.525Z" fill="#665F34"/>
<mask id="mask18_575_21185" style="mask-type:luminance" maskUnits="userSpaceOnUse" x="227" y="390" width="27" height="33">
<path d="M227.795 399.351C227.818 391.33 233.491 388.098 240.466 392.127C247.428 396.147 253.06 405.904 253.037 413.925C253.014 421.922 247.341 425.155 240.384 421.135C233.408 417.111 227.772 407.349 227.795 399.351Z" fill="white"/>
</mask>
<g mask="url(#mask18_575_21185)">
<path d="M231.479 391.248L244.214 383.849C241.949 385.166 240.54 387.97 240.531 391.952C240.508 399.95 246.144 409.707 253.119 413.741C256.623 415.762 259.801 415.951 262.094 414.616L249.358 422.015C247.065 423.35 243.888 423.161 240.384 421.14C233.403 417.111 227.772 407.35 227.795 399.352C227.809 395.369 229.213 392.565 231.479 391.248Z" fill="#776F3D"/>
</g>
<mask id="mask19_575_21185" style="mask-type:luminance" maskUnits="userSpaceOnUse" x="227" y="390" width="27" height="33">
<path d="M227.795 399.351C227.818 391.33 233.491 388.098 240.466 392.127C247.428 396.147 253.06 405.904 253.037 413.925C253.014 421.922 247.341 425.155 240.384 421.135C233.408 417.111 227.772 407.349 227.795 399.351Z" fill="white"/>
</mask>
<g mask="url(#mask19_575_21185)">
<path d="M232.638 390.607C232.615 390.617 237.026 388.052 237.026 388.052C239.324 386.717 242.501 386.905 246.01 388.931C252.981 392.956 258.617 402.717 258.593 410.733C258.584 414.712 257.175 417.516 254.91 418.833L250.499 421.397C250.812 421.213 251.07 420.937 251.351 420.697C249.025 422.682 245.508 422.82 241.516 420.518C234.545 416.494 228.909 406.732 228.932 398.716C228.941 394.724 230.359 391.92 232.638 390.607Z" fill="#5A552D"/>
</g>
<mask id="mask20_575_21185" style="mask-type:luminance" maskUnits="userSpaceOnUse" x="227" y="390" width="27" height="33">
<path d="M227.795 399.351C227.818 391.33 233.491 388.098 240.466 392.127C247.428 396.147 253.06 405.904 253.037 413.925C253.014 421.922 247.341 425.155 240.384 421.135C233.408 417.111 227.772 407.349 227.795 399.351Z" fill="white"/>
</mask>
<g mask="url(#mask20_575_21185)">
<path d="M242.281 399.573C238.74 397.252 235.687 398.339 235.48 402.004C235.273 405.665 237.985 410.531 241.525 412.857C245.066 415.177 248.119 414.086 248.326 410.426C248.534 406.765 245.821 401.898 242.281 399.573ZM241.567 412.134C238.408 410.062 235.991 405.72 236.175 402.455C236.359 399.191 239.08 398.219 242.239 400.291C245.398 402.363 247.815 406.701 247.631 409.965C247.447 413.234 244.726 414.206 241.567 412.134Z" fill="#494222"/>
</g>
<path d="M214.296 389.383L192.342 379.391C190.97 378.765 189.717 376.873 189.547 375.164C189.376 373.456 190.348 372.577 191.725 373.203L213.679 383.194C215.051 383.821 216.303 385.713 216.474 387.417C216.644 389.13 215.668 390.004 214.296 389.383Z" fill="#35301B"/>
<path d="M164.165 331.8C157.383 328.549 151.057 328.319 146.314 331.072L127.924 341.759C132.666 339.001 138.993 339.236 145.775 342.482L238.177 387.011L248.961 383.291L256.567 376.325L164.165 331.8Z" fill="#2C2C2C"/>
<path d="M274.49 402.142C274.034 399.287 273.14 396.395 271.911 393.614C270.249 389.852 267.974 386.293 265.345 383.296C263.089 380.726 260.575 378.576 257.955 377.061C257.495 376.794 257.034 376.55 256.574 376.329L238.184 387.016C238.649 387.242 239.109 387.486 239.565 387.748C242.185 389.258 244.703 391.413 246.955 393.983C249.589 396.98 251.859 400.539 253.521 404.301C254.75 407.082 255.644 409.974 256.099 412.829C257.278 420.099 255.395 425.62 251.49 427.89L269.881 417.203C273.785 414.933 275.668 409.417 274.49 402.142Z" fill="#333333"/>
<path opacity="0.4" d="M160.012 349.352L159.206 348.965L177.661 338.31L178.467 338.697L160.012 349.352ZM205.711 351.82L204.905 351.433L186.451 362.088L187.257 362.474L205.711 351.82ZM219.331 358.386L218.525 357.999L200.071 368.653L200.877 369.04L219.331 358.386ZM153.239 329.212L134.725 339.903C135.176 339.885 135.622 339.853 136.087 339.871L154.584 329.193C154.123 329.175 153.681 329.198 153.239 329.212ZM164.165 331.8C164.036 331.744 145.577 342.404 145.577 342.404C145.771 342.486 146.392 342.786 146.392 342.786L164.847 332.131L164.165 331.8ZM192.091 345.258L191.286 344.872L172.831 355.526L173.637 355.913L192.091 345.258ZM273.756 399.006C273.691 398.753 273.654 398.504 273.581 398.255L255.177 408.882C255.25 409.136 255.283 409.384 255.352 409.638L273.756 399.006ZM240.636 388.512C240.862 388.66 241.078 388.826 241.299 388.982L259.744 378.332C259.523 378.175 259.307 378.01 259.081 377.862L240.636 388.512ZM274.202 411.074C274.29 410.752 274.368 410.42 274.437 410.084L256.066 420.693C255.996 421.034 255.918 421.361 255.831 421.683L274.202 411.074ZM246.571 371.513L245.765 371.126L227.311 381.781L228.117 382.167L246.571 371.513ZM232.951 364.947L232.145 364.56L213.691 375.215L214.497 375.602L232.951 364.947ZM268.152 387.053L249.725 397.689C249.868 397.896 250.034 398.076 250.172 398.288L268.599 387.647C268.461 387.44 268.295 387.26 268.152 387.053Z" fill="#2C2C2C"/>
<path opacity="0.1" d="M265.339 383.296L246.949 393.983C249.583 396.98 251.853 400.54 253.515 404.301L271.905 393.614C270.248 389.853 267.973 386.293 265.339 383.296Z" fill="#ADADAD"/>
<path d="M256.099 412.829C254.496 402.809 247.502 392.334 239.559 387.748C239.103 387.481 238.638 387.237 238.178 387.016L145.776 342.487C137.668 338.605 130.213 339.029 125.332 343.72C120.452 348.38 118.591 356.862 120.231 366.982C121.842 377.084 126.847 387.868 133.887 396.566C138.206 401.916 143.055 406.166 147.922 408.979C149.865 410.103 151.808 410.991 153.728 411.636C154.865 412.037 155.98 412.327 157.089 412.525L244.928 428.82C253.018 430.321 257.821 423.442 256.099 412.829ZM244.325 426.356L156.486 410.061C153.7 409.541 150.809 408.408 147.931 406.751C143.377 404.122 138.86 400.166 134.831 395.198C128.261 387.09 123.619 377.029 122.118 367.627C120.585 358.211 122.335 350.3 126.879 345.926C130.784 342.206 136.434 341.372 142.714 343.467C143.769 343.822 144.851 344.287 145.937 344.816L238.312 389.327C238.74 389.53 239.163 389.756 239.582 390C246.623 394.061 252.788 403.316 254.211 412.184C255.739 421.605 251.466 427.669 244.325 426.356Z" fill="#252525"/>
<path opacity="0.3" d="M204.267 237.238C182.538 224.695 147.19 224.695 125.461 237.238C114.894 243.339 109.074 251.461 109.074 260.113C109.074 268.765 114.894 276.887 125.461 282.988C136.323 289.259 150.597 292.395 164.866 292.395C179.135 292.395 193.4 289.259 204.267 282.988C214.834 276.887 220.654 268.765 220.654 260.113C220.654 251.461 214.834 243.339 204.267 237.238ZM204.046 282.606C182.446 295.079 147.282 295.079 125.682 282.606C115.258 276.588 109.512 268.599 109.512 260.108C109.512 251.622 115.253 243.629 125.682 237.611C136.484 231.376 150.675 228.255 164.866 228.255C179.057 228.255 193.243 231.376 204.046 237.611C214.47 243.629 220.212 251.618 220.212 260.108C220.216 268.599 214.475 276.588 204.046 282.606Z" fill="#494222"/>
<path d="M198.883 241.52C180.097 252.368 149.638 252.368 130.847 241.52C112.061 230.672 112.061 213.088 130.847 202.24C149.634 191.391 180.092 191.391 198.883 202.24C217.669 213.088 217.669 230.677 198.883 241.52Z" fill="#252525"/>
<path d="M212.972 221.624V259.652C213.087 266.844 208.391 274.059 198.883 279.548C180.097 290.396 149.638 290.396 130.847 279.548C121.565 274.188 116.873 267.185 116.758 260.163V222.135C116.868 229.157 121.565 236.16 130.847 241.52C149.634 252.368 180.092 252.368 198.883 241.52C208.391 236.031 213.083 228.821 212.972 221.624Z" fill="#3D381F"/>
<path d="M260.122 227.914L170.211 279.824V269.63L260.122 217.72V227.914Z" fill="#656037"/>
<path d="M170.212 269.63L49.041 199.67L138.947 147.76L260.123 217.72L170.212 269.63Z" fill="#827C52"/>
<path d="M49.041 199.67V209.864L84.8084 230.515V250.623L158.935 281.813L170.212 279.824V269.63L49.041 199.67Z" fill="#4F4927"/>
<path d="M125.774 223.033L67.127 189.177L72.4819 179.903L125.774 210.67V223.033Z" fill="#4F4927"/>
<path d="M180.635 191.359L125.773 223.033V210.67L180.635 178.996V191.359Z" fill="#D5D5D5"/>
<path d="M125.774 210.67L72.4824 179.903L127.344 148.229L180.636 178.996L125.774 210.67Z" fill="#827C52"/>
<path d="M234.186 162.746L234.029 217.719L247.087 210.135L247.244 155.158L234.186 162.746Z" fill="#656037"/>
<path d="M218.254 91.9443L205.195 99.5325L234.185 162.747L247.243 155.159L218.254 91.9443Z" fill="#938C61"/>
<path d="M218.056 60.7262C215.694 55.3758 212.453 50.2602 208.654 45.9367C205.449 42.2899 201.844 39.1958 198.036 36.9994C191.277 33.0995 185.153 32.7357 180.728 35.305L167.67 42.8931C172.095 40.3239 178.219 40.6876 184.978 44.5876C188.791 46.7885 192.391 49.8781 195.596 53.5248C199.395 57.853 202.636 62.9639 204.998 68.3143C207.664 74.3507 209.22 80.691 209.202 86.5479C209.188 92.1883 207.706 96.5855 205.196 99.537L218.254 91.9489C220.764 88.9974 222.246 84.6002 222.26 78.9597C222.274 73.1029 220.722 66.7626 218.056 60.7262Z" fill="url(#paint1_linear_575_21185)"/>
<path d="M205.196 99.5326C207.705 96.5858 209.183 92.1839 209.202 86.5435C209.248 71.1186 198.4 52.3325 184.973 44.5786C171.547 36.8293 160.62 43.0407 160.574 58.4702C160.561 64.0692 161.988 70.0964 164.47 75.9533C164.801 76.7406 165.165 77.5096 165.529 78.2785L193.432 139.573L193.275 194.195L234.02 217.72L234.176 162.742L205.196 99.5326Z" fill="#4F4927"/>
<path opacity="0.4" d="M208.65 45.9321L195.592 53.5202C199.39 57.8484 202.632 62.9594 204.994 68.3097L218.052 60.7216C215.69 55.3712 212.453 50.2603 208.65 45.9321Z" fill="#8B855B"/>
<path d="M181.452 138.556L118.362 122.168L93.5254 108.792L156.62 125.175L181.452 138.556Z" fill="#4F4927"/>
<path d="M163.237 55.9932L100.146 39.6059L127.704 24.333L190.794 40.7156L163.237 55.9932Z" fill="#827C52"/>
<path d="M149.077 90.987L85.9824 74.6043L100.146 39.606L163.236 55.9932L149.077 90.987Z" fill="#726C43"/>
<path d="M156.619 125.175L93.5245 108.792L85.9824 74.6045L149.077 90.9871L156.619 125.175Z" fill="#665F34"/>
<path d="M190.793 40.7158L215.629 54.0963L223.171 88.2843L209.008 123.278L181.45 138.556L156.618 125.175L149.076 90.9871L163.235 55.9934L190.793 40.7158Z" fill="#938C61"/>
<path d="M192.388 103.069C190.762 102.645 188.948 102.876 187.157 103.87C182.507 106.449 179.753 113.231 181.029 119.014C181.816 122.578 183.943 124.926 186.554 125.603L277.952 149.321C275.346 148.644 273.214 146.295 272.427 142.732C271.151 136.948 273.91 130.161 278.555 127.583C280.347 126.593 282.161 126.363 283.786 126.782L192.388 103.069Z" fill="url(#paint2_linear_575_21185)"/>
<path d="M278.555 127.583C283.22 125 288.027 127.588 289.302 133.375C290.578 139.159 287.838 145.936 283.174 148.519C278.523 151.098 273.702 148.515 272.427 142.727C271.151 136.944 273.91 130.161 278.555 127.583Z" fill="#404244"/>
<path d="M281.934 124.585C280.088 124.107 278.034 124.364 275.999 125.493C270.722 128.416 267.596 136.115 269.046 142.681C269.94 146.724 272.357 149.39 275.313 150.154L284.301 152.378C281.34 151.609 278.923 148.948 278.034 144.905C276.584 138.344 279.715 130.64 284.987 127.717C287.017 126.588 289.076 126.331 290.922 126.809L281.934 124.585Z" fill="url(#paint3_linear_575_21185)"/>
<path d="M284.992 127.716C290.282 124.783 295.743 127.725 297.189 134.287C298.639 140.853 295.527 148.542 290.232 151.475C284.955 154.399 279.485 151.466 278.034 144.905C276.584 138.343 279.715 130.64 284.992 127.716Z" fill="#404244"/>
<g opacity="0.6">
<path d="M285.627 130.613C289.628 128.394 293.758 130.617 294.854 135.586C295.95 140.549 293.597 146.369 289.591 148.589C285.599 150.799 281.46 148.584 280.364 143.616C279.272 138.648 281.639 132.823 285.627 130.613Z" fill="#212322"/>
</g>
<path d="M208.323 66.3717C206.698 65.9481 204.884 66.1783 203.093 67.1728C198.442 69.7513 195.689 76.5337 196.964 82.3169C197.752 85.8807 199.879 88.229 202.489 88.9058L293.888 112.623C291.282 111.946 289.15 109.598 288.362 106.034C287.087 100.251 289.845 93.4642 294.491 90.8903C296.282 89.8958 298.096 89.6702 299.722 90.0892L208.323 66.3717Z" fill="url(#paint4_linear_575_21185)"/>
<path d="M294.491 90.8901C299.156 88.307 303.963 90.8947 305.238 96.6825C306.513 102.466 303.769 109.243 299.109 111.827C294.459 114.405 289.638 111.822 288.363 106.034C287.087 100.251 289.841 93.464 294.491 90.8901Z" fill="#404244"/>
<path d="M297.87 87.8882C296.023 87.4094 293.97 87.6672 291.935 88.7953C286.658 91.7191 283.532 99.4178 284.982 105.984C285.875 110.026 288.293 112.688 291.249 113.457L300.236 115.681C297.28 114.912 294.859 112.246 293.97 108.208C292.519 101.642 295.651 93.9431 300.923 91.0193C302.953 89.8912 305.011 89.6333 306.858 90.1122L297.87 87.8882Z" fill="url(#paint5_linear_575_21185)"/>
<path d="M300.923 91.0237C306.214 88.0907 311.675 91.033 313.121 97.5943C314.571 104.16 311.458 111.85 306.163 114.783C300.887 117.706 295.416 114.773 293.966 108.212C292.52 101.646 295.651 93.9476 300.923 91.0237Z" fill="#404244"/>
<g opacity="0.6">
<path d="M301.562 93.9156C305.563 91.6963 309.693 93.9202 310.789 98.8884C311.885 103.852 309.532 109.672 305.527 111.887C301.535 114.097 297.395 111.882 296.299 106.919C295.203 101.955 297.57 96.1304 301.562 93.9156Z" fill="#212322"/>
</g>
<path d="M169.71 88.6661C168.085 88.2425 166.271 88.4727 164.479 89.4673C159.829 92.0458 157.075 98.8281 158.351 104.611C159.138 108.175 161.27 110.519 163.876 111.2L255.275 134.918C252.668 134.241 250.537 131.893 249.749 128.329C248.474 122.546 251.232 115.759 255.878 113.185C257.669 112.19 259.483 111.965 261.108 112.384L169.71 88.6661Z" fill="url(#paint6_linear_575_21185)"/>
<path d="M255.878 113.181C260.542 110.598 265.349 113.185 266.624 118.973C267.9 124.756 265.16 131.534 260.496 134.117C255.85 136.696 251.024 134.112 249.749 128.325C248.474 122.541 251.232 115.759 255.878 113.181Z" fill="#404244"/>
<path d="M259.257 110.183C257.41 109.704 255.357 109.962 253.321 111.09C248.045 114.014 244.918 121.713 246.369 128.279C247.262 132.321 249.679 134.987 252.635 135.752L261.623 137.976C258.667 137.207 256.245 134.545 255.357 130.503C253.906 123.937 257.037 116.238 262.309 113.314C264.34 112.186 266.398 111.928 268.244 112.407L259.257 110.183Z" fill="url(#paint7_linear_575_21185)"/>
<path d="M262.309 113.314C267.6 110.381 273.061 113.323 274.507 119.884C275.957 126.446 272.844 134.14 267.554 137.073C262.277 139.997 256.802 137.064 255.357 130.502C253.906 123.941 257.037 116.242 262.309 113.314Z" fill="#404244"/>
<g opacity="0.6">
<path d="M262.949 116.211C266.95 113.991 271.08 116.215 272.176 121.183C273.272 126.147 270.919 131.967 266.913 134.186C262.926 136.396 258.782 134.182 257.686 129.213C256.595 124.245 258.961 118.421 262.949 116.211Z" fill="#212322"/>
</g>
<path d="M182.303 56.2003C180.678 55.7767 178.864 56.0069 177.073 57.0014C172.427 59.5799 169.669 66.3623 170.944 72.1501C171.732 75.7093 173.859 78.0622 176.47 78.739L267.868 102.457C265.262 101.78 263.13 99.4314 262.342 95.8676C261.067 90.0844 263.825 83.2974 268.471 80.7235C270.262 79.729 272.076 79.5034 273.702 79.9224L182.303 56.2003Z" fill="url(#paint8_linear_575_21185)"/>
<path d="M268.471 80.7141C273.136 78.131 277.943 80.7233 279.218 86.5065C280.493 92.2897 277.749 99.0674 273.09 101.65C268.444 104.229 263.618 101.646 262.343 95.8581C261.063 90.0795 263.821 83.2926 268.471 80.7141Z" fill="#404244"/>
<path d="M271.85 77.7168C270.004 77.238 267.946 77.4958 265.915 78.6239C260.638 81.5477 257.512 89.2464 258.962 95.8123C259.856 99.855 262.273 102.521 265.229 103.285L274.217 105.509C271.261 104.74 268.839 102.079 267.95 98.0363C266.505 91.4703 269.631 83.7717 274.908 80.8479C276.938 79.7198 278.996 79.4619 280.843 79.9408L271.85 77.7168Z" fill="url(#paint9_linear_575_21185)"/>
<path d="M274.903 80.8524C280.194 77.9193 285.65 80.8616 287.101 87.4229C288.546 93.9888 285.438 101.678 280.148 104.611C274.871 107.535 269.397 104.602 267.951 98.0407C266.5 91.4748 269.627 83.7762 274.903 80.8524Z" fill="#404244"/>
<g opacity="0.6">
<path d="M275.543 83.7438C279.544 81.5245 283.674 83.7484 284.77 88.712C285.866 93.6756 283.513 99.4956 279.507 101.715C275.515 103.925 271.375 101.71 270.28 96.7422C269.184 91.7786 271.55 85.9586 275.543 83.7438Z" fill="#212322"/>
</g>
<path d="M167.781 255.969L127.156 232.514V190.857L167.781 214.317V255.969Z" fill="#938C61"/>
<path d="M234.145 217.656L167.781 255.969V214.317L234.145 176.004L238.192 187.441L234.145 217.656Z" fill="#656037"/>
<path d="M167.781 214.317L127.156 190.858L193.515 152.544L234.145 176.004L167.781 214.317Z" fill="#827C52"/>
<path d="M241.58 202.414L211.711 219.662V204.357L241.58 187.113V202.414Z" fill="#343637"/>
<path d="M157.307 207.134L157.15 262.107L170.209 254.523L170.36 199.546L157.307 207.134Z" fill="#656037"/>
<path d="M141.375 136.331L128.316 143.919L157.306 207.134L170.36 199.545L141.375 136.331Z" fill="#938C61"/>
<path d="M141.178 105.113C138.811 99.763 135.574 94.6474 131.775 90.3239C128.57 86.6771 124.965 83.583 121.157 81.3866C114.398 77.4867 108.274 77.1229 103.849 79.6922L90.791 87.2803C95.2159 84.711 101.34 85.0748 108.099 88.9748C111.912 91.1757 115.512 94.2653 118.717 97.912C122.516 102.24 125.757 107.351 128.119 112.701C130.785 118.738 132.342 125.078 132.323 130.935C132.309 136.575 130.827 140.973 128.317 143.924L141.376 136.336C143.885 133.389 145.363 128.987 145.381 123.347C145.395 117.49 143.844 111.15 141.178 105.113Z" fill="url(#paint10_linear_575_21185)"/>
<path d="M128.316 143.92C130.826 140.973 132.304 136.571 132.322 130.93C132.364 115.506 121.52 96.7195 108.094 88.9702C94.6717 81.2209 83.7408 87.4323 83.6994 102.862C83.681 108.461 85.1129 114.488 87.5947 120.345C87.9262 121.132 88.29 121.901 88.6537 122.67L116.557 183.964L116.4 238.587L157.145 262.111L157.301 207.134L128.316 143.92Z" fill="#4F4927"/>
<path opacity="0.4" d="M131.769 90.3193L118.711 97.9075C122.51 102.236 125.751 107.347 128.113 112.697L141.172 105.109C138.809 99.7585 135.568 94.6475 131.769 90.3193Z" fill="#8B855B"/>
<path d="M119.526 123.181C119.526 131.368 113.78 134.688 106.689 130.594C99.5979 126.501 93.8516 116.546 93.8516 108.36C93.8516 100.173 99.5979 96.853 106.689 100.946C113.78 105.04 119.526 114.995 119.526 123.181Z" fill="#292B2B"/>
<path d="M140.703 235.852C140.703 239.665 138.023 241.212 134.721 239.306C131.42 237.399 128.74 232.763 128.74 228.95C128.74 225.138 131.415 223.591 134.721 225.497C138.027 227.403 140.703 232.04 140.703 235.852Z" fill="#292B2B"/>
<path d="M161.228 48.1054L134.2 41.0882L129.094 17.9463L156.122 24.9635L161.228 48.1054Z" fill="#665F34"/>
<path d="M156.122 24.9634L129.094 17.9463L138.915 12.7847L165.943 19.8018L156.122 24.9634Z" fill="#827C52"/>
<path d="M165.942 19.8018L171.049 42.9437L161.227 48.1053L156.121 24.9633L165.942 19.8018Z" fill="#938C61"/>
<path d="M152.632 42.976L125.608 35.9588L120.502 12.8169L147.526 19.8341L152.632 42.976Z" fill="#212322"/>
<path d="M147.526 19.8343L120.502 12.8171L142.608 0.560059L169.636 7.57723L147.526 19.8343Z" fill="#404244"/>
<path d="M169.636 7.57715L174.742 30.7191L152.632 42.9761L147.525 19.8342L169.636 7.57715Z" fill="#343637"/>
<path d="M154.478 30.6407C155.431 30.1112 156.416 30.6453 156.679 31.8241C156.941 33.0074 156.379 34.398 155.422 34.9275C154.469 35.457 153.483 34.9229 153.221 33.7441C152.963 32.5562 153.525 31.1656 154.478 30.6407Z" fill="#212322"/>
<path d="M158.557 27.2981C159.432 31.2672 162.743 33.0261 165.92 31.2626C169.115 29.4898 170.994 24.8532 170.119 20.8887C169.249 16.9473 165.957 15.1516 162.757 16.9243C159.58 18.6878 157.687 23.3567 158.557 27.2981Z" fill="#212322"/>
<g opacity="0.4">
<path d="M159.815 26.6027C160.501 29.7061 163.088 31.0874 165.579 29.706C168.084 28.3201 169.553 24.6872 168.867 21.5838C168.185 18.4988 165.607 17.0899 163.102 18.4758C160.611 19.8617 159.133 23.5177 159.815 26.6027Z" fill="#6696A7"/>
</g>
<g opacity="0.3">
<path d="M161.421 25.7141C161.863 27.717 163.53 28.6057 165.137 27.7124C166.748 26.8192 167.697 24.4801 167.255 22.4772C166.817 20.4881 165.155 19.581 163.543 20.4789C161.936 21.3675 160.983 23.7204 161.421 25.7141Z" fill="#D5D5D5"/>
</g>
<g opacity="0.3">
<path d="M162.398 23.9461C162.619 24.9452 163.452 25.3919 164.253 24.9452C165.059 24.4986 165.533 23.3291 165.312 22.3299C165.091 21.3353 164.263 20.8841 163.457 21.3307C162.656 21.7728 162.177 22.9515 162.398 23.9461Z" fill="#D5D5D5"/>
</g>
<path d="M151.859 27.5559C152.122 28.7392 153.107 29.2687 154.06 28.7392C155.013 28.2097 155.575 26.8192 155.317 25.6358C155.05 24.4295 154.069 23.923 153.116 24.4479C152.163 24.982 151.597 26.3495 151.859 27.5559Z" fill="#212322"/>
<path opacity="0.4" d="M235.461 192.897C238.067 191.442 240.153 192.717 240.116 195.737C240.079 198.763 237.934 202.391 235.328 203.846C232.717 205.301 230.636 204.025 230.672 201.005C230.709 197.98 232.855 194.352 235.461 192.897Z" fill="#565656"/>
<mask id="mask21_575_21185" style="mask-type:luminance" maskUnits="userSpaceOnUse" x="230" y="192" width="11" height="13">
<path d="M235.461 192.897C238.067 191.442 240.153 192.717 240.116 195.737C240.079 198.763 237.934 202.391 235.328 203.846C232.717 205.301 230.636 204.025 230.672 201.005C230.709 197.98 232.855 194.352 235.461 192.897Z" fill="white"/>
</mask>
<g mask="url(#mask21_575_21185)">
<path opacity="0.5" d="M234.558 192.897C232.168 194.278 230.239 197.621 230.248 200.365C230.257 203.109 232.196 204.219 234.586 202.842C236.975 201.461 238.909 198.118 238.9 195.369C238.895 192.625 236.948 191.52 234.558 192.897Z" fill="#6E6E6E"/>
<path d="M234.562 193.642C232.531 194.817 230.887 197.662 230.897 199.997C230.901 202.331 232.554 203.275 234.589 202.101C236.62 200.927 238.264 198.081 238.259 195.747C238.25 193.408 236.592 192.468 234.562 193.642Z" fill="#212121"/>
<path opacity="0.4" d="M234.425 195.079C233.122 195.83 232.068 197.658 232.072 199.154C232.077 200.651 233.136 201.259 234.439 200.503C235.742 199.753 236.796 197.925 236.792 196.429C236.792 194.932 235.728 194.329 234.425 195.079Z" fill="#6696A7"/>
<path opacity="0.3" d="M234.54 196.309C233.831 196.718 233.26 197.708 233.26 198.523C233.264 199.338 233.84 199.665 234.544 199.255C235.253 198.846 235.824 197.856 235.824 197.041C235.824 196.226 235.249 195.899 234.54 196.309Z" fill="#D5D5D5"/>
<path opacity="0.3" d="M234.334 196.82C234.071 196.972 233.859 197.34 233.859 197.639C233.859 197.939 234.071 198.063 234.334 197.911C234.596 197.759 234.808 197.391 234.808 197.092C234.812 196.792 234.601 196.668 234.334 196.82Z" fill="#D5D5D5"/>
</g>
<defs>
<linearGradient id="paint0_linear_575_21185" x1="217.384" y1="283.348" x2="258.369" y2="354.336" gradientUnits="userSpaceOnUse">
<stop offset="0.5123" stop-color="#938C61"/>
<stop offset="0.6473" stop-color="#8E875C"/>
<stop offset="0.813" stop-color="#7F794E"/>
<stop offset="0.9943" stop-color="#666138"/>
<stop offset="1" stop-color="#656037"/>
</linearGradient>
<linearGradient id="paint1_linear_575_21185" x1="182.827" y1="34.0876" x2="216.759" y2="92.8587" gradientUnits="userSpaceOnUse">
<stop offset="0.5123" stop-color="#938C61"/>
<stop offset="0.6473" stop-color="#8E875C"/>
<stop offset="0.813" stop-color="#7F794E"/>
<stop offset="0.9943" stop-color="#666138"/>
<stop offset="1" stop-color="#656037"/>
</linearGradient>
<linearGradient id="paint2_linear_575_21185" x1="233.853" y1="114.227" x2="228.147" y2="136.5" gradientUnits="userSpaceOnUse">
<stop stop-color="#343637"/>
<stop offset="0.5032" stop-color="#2D2F2F"/>
<stop offset="1" stop-color="#212322"/>
</linearGradient>
<linearGradient id="paint3_linear_575_21185" x1="281.595" y1="125.024" x2="275.181" y2="150.058" gradientUnits="userSpaceOnUse">
<stop stop-color="#343637"/>
<stop offset="0.5032" stop-color="#2D2F2F"/>
<stop offset="1" stop-color="#212322"/>
</linearGradient>
<linearGradient id="paint4_linear_575_21185" x1="249.787" y1="77.5328" x2="244.081" y2="99.8059" gradientUnits="userSpaceOnUse">
<stop stop-color="#343637"/>
<stop offset="0.5032" stop-color="#2D2F2F"/>
<stop offset="1" stop-color="#212322"/>
</linearGradient>
<linearGradient id="paint5_linear_575_21185" x1="297.529" y1="88.3289" x2="291.115" y2="113.363" gradientUnits="userSpaceOnUse">
<stop stop-color="#343637"/>
<stop offset="0.5032" stop-color="#2D2F2F"/>
<stop offset="1" stop-color="#212322"/>
</linearGradient>
<linearGradient id="paint6_linear_575_21185" x1="211.175" y1="99.825" x2="205.468" y2="122.099" gradientUnits="userSpaceOnUse">
<stop stop-color="#343637"/>
<stop offset="0.5032" stop-color="#2D2F2F"/>
<stop offset="1" stop-color="#212322"/>
</linearGradient>
<linearGradient id="paint7_linear_575_21185" x1="258.916" y1="110.622" x2="252.503" y2="135.657" gradientUnits="userSpaceOnUse">
<stop stop-color="#343637"/>
<stop offset="0.5032" stop-color="#2D2F2F"/>
<stop offset="1" stop-color="#212322"/>
</linearGradient>
<linearGradient id="paint8_linear_575_21185" x1="223.766" y1="67.361" x2="218.06" y2="89.6341" gradientUnits="userSpaceOnUse">
<stop stop-color="#343637"/>
<stop offset="0.5032" stop-color="#2D2F2F"/>
<stop offset="1" stop-color="#212322"/>
</linearGradient>
<linearGradient id="paint9_linear_575_21185" x1="271.508" y1="78.157" x2="265.095" y2="103.192" gradientUnits="userSpaceOnUse">
<stop stop-color="#343637"/>
<stop offset="0.5032" stop-color="#2D2F2F"/>
<stop offset="1" stop-color="#212322"/>
</linearGradient>
<linearGradient id="paint10_linear_575_21185" x1="105.947" y1="78.4752" x2="139.879" y2="137.246" gradientUnits="userSpaceOnUse">
<stop offset="0.5123" stop-color="#938C61"/>
<stop offset="0.6473" stop-color="#8E875C"/>
<stop offset="0.813" stop-color="#7F794E"/>
<stop offset="0.9943" stop-color="#666138"/>
<stop offset="1" stop-color="#656037"/>
</linearGradient>
</defs>
</svg>
