<svg width="369" height="608" viewBox="0 0 369 608" fill="none" xmlns="http://www.w3.org/2000/svg">
<path d="M88.8984 128.2C90.8084 104.973 92.1544 81.5593 103.339 60.3953C107.079 53.3183 112.224 46.9823 116.726 40.3083C122.603 40.4653 128.48 40.6223 134.354 40.7773C126.336 47.4743 121.926 55.7893 124.348 66.3403C124.949 68.9563 127.738 72.3653 130.102 72.9163C132.445 73.4623 137.15 71.5283 137.974 69.5163C140.604 63.0983 142.66 56.2303 143.494 49.3603C144.169 43.8033 140.59 40.3423 134.423 40.7993C131.994 30.6553 138.369 30.1463 145.606 30.5793C153.867 39.8163 161.725 39.2153 171.558 28.5973C191.983 29.3153 200.285 13.7253 209.995 0.0273183C264.652 -0.892682 308.287 21.3973 326.233 71.0113C326.553 71.8963 326.609 72.8773 326.788 73.8133C326.297 77.8413 325.748 81.8633 325.327 85.8993C324.046 98.1633 320.274 108.866 307.845 114.242C283.126 104.516 256.931 102.552 230.925 101.256C210.32 100.229 189.245 100.184 168.953 103.367C140.424 107.842 108.299 106.809 92.3024 139.573C90.9644 135.103 89.9314 131.652 88.8984 128.2ZM243.57 90.1693C242.4 86.9183 242.183 84.0223 240.632 82.4003C233.901 75.3533 234.643 66.2253 234.108 57.8713C233.631 50.4263 230.423 46.6693 223.837 46.3493C217.198 46.0263 209.806 45.7143 204.079 48.3243C200.981 49.7363 200.687 57.2683 199.086 62.0243C198.778 62.9393 198.176 63.7563 197.878 64.6733C195.224 72.8323 192.607 81.0043 189.659 90.1693C207.373 90.1693 224.63 90.1693 243.57 90.1693ZM136.255 72.9753C134.181 77.3053 132.181 79.6673 132.252 81.9653C132.3 83.5333 135.242 85.0123 136.889 86.5323C138.513 84.4173 140.999 82.4683 141.448 80.1283C141.734 78.6393 138.998 76.5693 136.255 72.9753Z" fill="#858765"/>
<path d="M113.083 200.372C107.556 196.662 102.173 192.706 96.4409 189.347C93.5069 187.627 89.946 186.976 86.668 185.842C89.478 180.579 98.7289 179.757 96.7639 171.201L96.7539 171.215C103.722 166.333 110.689 161.452 118.203 156.188C120.045 163.504 121.253 168.302 122.461 173.1C128.876 193.015 139.993 209.819 155.696 223.648C157.576 225.304 158.572 228.887 160.529 229.377C170.898 231.975 181.444 233.869 191.928 236.008C192.142 239.472 192.357 242.937 192.6 246.86C206.956 246.86 220.611 246.86 234.644 246.86C235.07 242.815 235.433 239.359 235.797 235.902C260.842 232.082 280.836 220.586 293.584 197.993C294.674 196.061 296.205 194.378 297.531 192.58C307.701 192.101 317.871 191.622 328.041 191.144C326.803 198.678 319.548 195.937 315.419 198.533C305.293 212.589 295.168 226.645 285.77 239.691C293.976 250.444 301.755 260.639 309.534 270.833C309.534 272.977 309.534 275.12 309.534 277.812C299.82 268.123 290.735 259.062 281.649 250.001C280.073 250.663 278.498 251.326 276.922 251.988C276.922 259.449 276.922 266.91 276.922 274.37C276.742 284.232 276.561 294.091 276.381 303.952C275.056 304.01 273.731 304.068 272.406 304.126C269.578 301.527 266.751 298.928 262.794 295.294C255.214 301.564 247.854 307.651 240.494 313.739C233.162 311.833 228.709 307.345 224.551 300.726C221.224 295.428 213.226 293.307 208.448 288.609C203.918 284.153 201.504 277.554 197.002 273.058C192.866 268.927 187.061 263.487 182.213 263.699C173.392 264.084 164.735 268.228 156.393 270.692C164.555 278.912 172.551 286.964 180.547 295.015C179.361 297.384 178.174 299.755 176.988 302.126C165.903 304.678 154.818 307.232 143.733 309.785L143.767 309.842C151.33 300.573 151.273 263.663 143.152 249.106C136.025 255.826 129.086 262.368 122.146 268.911C127.776 258.392 133.406 247.873 139.858 235.817C131.972 225.375 122.527 212.874 113.083 200.372Z" fill="#4F4E3A"/>
<path d="M180.548 295.014C172.552 286.962 164.557 278.91 156.395 270.689C164.737 268.226 173.394 264.08 182.215 263.695C187.063 263.484 192.867 268.925 197.004 273.055C201.507 277.551 203.92 284.149 208.45 288.605C213.227 293.304 221.225 295.426 224.553 300.723C228.71 307.342 233.164 311.829 240.496 313.735C244.62 317.561 248.744 321.388 252.868 325.214C254.025 334.15 260.082 335.484 267.675 335.327C270.473 335.269 273.309 337.028 276.128 337.958C274.731 340.467 273.334 342.975 272.827 343.886C276.534 352.412 279.369 360.561 283.564 367.937C285.905 372.053 290.507 374.884 294.091 378.294C299.374 385.224 304.22 392.551 310.065 398.969C315.677 405.132 323.23 406.113 331.16 403.617C331.16 406.805 331.16 409.993 331.16 413.307C327.754 414.29 325.027 415.078 322.205 415.893C324.495 424.827 326.779 433.74 329.064 442.653C325.26 439.146 321.415 435.682 317.661 432.122C311.077 425.878 304.644 427.8 301.702 436.941L301.499 437.107C298.139 432.845 294.613 428.702 291.461 424.292C287.376 418.579 282.746 417.07 276.864 421.544C270.85 413.692 264.837 405.841 258.824 397.989C258.285 393.272 257.205 388.541 257.32 383.839C257.561 373.951 253.077 368.919 243.288 368.447C238.675 365.574 238.84 355.327 231.01 358.514C225.828 360.624 222.135 366.389 217.774 370.518C215.927 371.147 214.08 371.775 212.233 372.404C210.851 373.08 209.469 373.757 208.087 374.434C205.06 377.118 202.032 379.801 199.172 382.337C200.311 385.949 201.248 388.923 202.186 391.897C196.974 393.216 191.761 394.535 186.549 395.854C184.618 395.819 182.686 395.785 180.755 395.751C173.558 388.752 169.033 380.729 170.97 370.227C183.397 361.122 195.824 352.017 208.59 342.664C201.923 340.129 195.126 337.545 188.329 334.96C188.42 333.642 188.51 332.324 188.601 331.007C193.452 326.54 198.303 322.074 202.534 318.178C194.217 309.419 187.383 302.216 180.548 295.014ZM305.773 419.218C305.132 418.564 304.49 417.91 303.849 417.256C303.522 414.045 304.369 409.9 302.677 407.773C291.374 393.558 279.529 379.773 267.839 365.866C266.798 367.391 265.757 368.917 264.716 370.442C264.446 370.292 264.175 370.142 263.906 369.992C264.184 370.134 264.464 370.275 264.742 370.417C272.798 390.173 288.753 403.368 303.742 417.365C304.394 418.007 305.047 418.65 305.699 419.292C306.344 420.609 306.988 421.925 307.635 423.24C307.942 423.495 308.248 423.75 308.554 424.005C308.299 423.699 308.044 423.393 307.789 423.088C307.117 421.797 306.445 420.507 305.773 419.218ZM258.873 356.747C258.588 356.598 258.304 356.449 258.019 356.3C258.299 356.454 258.578 356.608 258.858 356.762C259.112 357.614 259.365 358.466 259.619 359.318C259.868 359.153 260.117 358.988 260.367 358.824C259.869 358.131 259.371 357.439 258.873 356.747Z" fill="#686346"/>
<path d="M258.822 397.991C264.835 405.843 270.849 413.694 276.862 421.546C277.44 425.012 278.018 428.477 278.598 431.948C275.183 433.579 271.912 435.957 268.316 436.651C263.187 437.64 258.156 438.308 258.983 444.998C260.58 457.923 262.687 470.785 264.583 483.673C271.153 485.649 277.724 487.625 284.294 489.602C284.045 492.199 283.796 494.796 283.547 497.393C265.476 488.346 248.056 487.952 231.67 501.297C231.681 496.071 231.692 490.845 231.703 485.619C234.441 483.067 237.626 480.848 239.831 477.897C245.444 470.382 244.232 466.037 235.6 462.376C232.749 461.167 229.44 461.039 226.341 460.417C224.727 454.16 223.513 447.76 221.333 441.707C220.208 438.583 217.844 434.394 215.2 433.643C209.72 432.085 207.588 436.461 206.392 441.419C203.442 453.648 200.15 465.795 196.996 477.975C184.966 475.789 179.331 468.298 182.16 457.262C184.98 446.261 186.28 435.833 176.676 427.236C176.05 425.842 175.423 424.447 174.797 423.053C174.934 418.536 175.07 414.02 175.207 409.503C177.056 404.92 178.904 400.336 180.753 395.753C182.684 395.788 184.615 395.822 186.547 395.856C187.791 399.151 188.344 403.021 190.473 405.579C192.61 408.147 196.318 409.407 199.338 411.24C200.953 408.533 203.603 405.942 203.924 403.089C204.332 399.47 202.85 395.639 202.183 391.899C201.245 388.925 200.308 385.951 199.169 382.339C202.029 379.803 205.057 377.12 208.084 374.435C209.466 373.758 210.848 373.082 212.23 372.406C214.077 371.777 215.924 371.149 217.772 370.519C223.908 369.784 230.043 369.049 236.191 368.314C236.657 372.567 236.97 375.428 237.284 378.289C235.996 387.373 234.708 396.456 233.421 405.541C232.926 406.225 232.422 406.904 231.967 407.614C231.95 407.641 232.411 407.974 232.65 408.165C232.942 407.321 233.234 406.477 233.526 405.633C237.168 403.27 242.7 398.131 244.088 399.076C247.884 401.662 249.933 406.81 253.271 411.843C255.422 406.473 257.122 402.232 258.822 397.991Z" fill="#858765"/>
<path d="M114.255 419.334C109.312 417.116 104.368 414.898 99.2534 412.603C92.4234 421.624 86.2794 422.675 78.2174 415.564C71.4234 409.571 64.7494 403.439 57.8944 397.516C51.8834 392.323 50.2724 386.393 54.6074 379.498C61.4974 368.54 68.3034 357.516 75.6384 346.858C80.6784 339.535 87.4544 338.284 94.9504 343.652C99.1624 346.668 103.705 349.34 107.459 352.851C113.402 358.41 117.938 357.686 121.968 350.933C123.996 350.86 126.025 350.788 128.053 350.716C135.964 350.148 144.995 355.961 151.368 346.624C152.701 356.517 154.035 366.41 155.368 376.303C152.15 389.998 148.932 403.693 145.715 417.388C144.335 421.129 142.955 424.871 141.576 428.612C132.469 425.52 123.362 422.427 114.255 419.334Z" fill="#413E32"/>
<path d="M331.16 403.619C323.23 406.115 315.677 405.133 310.065 398.971C304.22 392.553 299.374 385.226 294.091 378.295C294.772 374.999 288.058 370.536 295.662 368.332C301.271 368.332 306.881 368.332 312.37 368.332C313.029 357.461 308.103 353.933 299.008 354.756C296.157 355.014 293.259 354.754 290.382 354.731C288.991 350.514 287.781 346.226 286.16 342.099C284.414 337.656 282.068 333.446 280.369 328.988C277.744 322.1 275.446 315.087 273.01 308.128C272.81 306.793 272.61 305.459 272.41 304.124C273.735 304.066 275.06 304.009 276.386 303.952C286.732 295.981 286.957 283.673 276.927 274.37C276.927 266.909 276.927 259.448 276.927 251.987C278.503 251.325 280.078 250.662 281.654 250C290.739 259.062 299.824 268.123 309.539 277.812C309.539 275.12 309.539 272.976 309.54 270.832C310.845 269.131 312.965 267.583 313.318 265.703C315.569 253.712 317.322 241.628 319.459 229.614C320.985 221.031 322.853 212.51 324.568 203.961C326.725 211.613 331.453 219.584 330.554 226.859C327.902 248.312 322.824 269.455 319.148 290.797C318.194 296.34 318.111 302.29 318.973 307.844C323.188 335.02 328.021 362.1 332.21 389.28C332.919 393.895 331.562 398.831 331.16 403.619ZM285.629 329.896C285.67 329.644 285.712 329.391 285.753 329.139C285.442 329.206 285.132 329.272 284.821 329.339C284.901 329.575 284.943 329.838 285.083 330.032C285.123 330.089 285.439 329.947 285.629 329.896Z" fill="#858765"/>
<path d="M114.253 419.334C123.36 422.427 132.466 425.52 141.574 428.617C155.162 439.47 165.113 452.721 168.917 470.03C167.485 474.395 166.048 478.758 164.622 483.125C163.497 486.569 162.384 490.018 161.266 493.464C156.998 495.448 152.198 496.74 148.554 499.536C132.508 511.854 125.219 556.04 137.926 579.448C136.651 585.729 135.377 592.01 134.102 598.292C132.074 598.441 130.046 598.588 128.018 598.737C118.497 573.01 114.256 546.795 121.857 519.503C114.862 517.084 108.848 515.004 102.835 512.925C97.673 507.205 92.5099 501.485 87.3469 495.766C88.0349 494.322 88.7219 492.879 89.4099 491.435C92.6519 493.246 96.058 494.818 99.099 496.92C104.116 500.387 108.819 504.306 113.799 507.831C119.998 512.219 125.684 512.134 130.605 505.599C135.249 499.432 140.028 493.363 144.899 487.375C149.644 481.542 148.595 475.548 142.779 472.532C133.228 467.579 122.797 464.322 112.737 460.35C107.104 453.975 102.228 446.486 95.4099 441.857C93.1529 440.325 85.9139 446.205 80.9089 448.603C79.2039 449.42 77.363 449.951 75.584 450.612C70.08 452.225 64.642 454.132 59.054 455.363C53.773 456.527 47.022 463.66 44 452.485C63.923 436.706 84.2519 421.807 111.192 420.92C112.229 420.885 113.234 419.885 114.253 419.334Z" fill="#858765"/>
<path d="M88.8977 128.2C89.9307 131.651 90.9637 135.103 92.3017 139.572C108.299 106.808 140.424 107.841 168.953 103.366C189.245 100.183 210.32 100.228 230.925 101.255C256.931 102.552 283.126 104.515 307.843 114.245C310.399 116.958 312.957 119.667 315.514 122.376C312.393 125.618 309.492 128.217 304.922 123.854C303.784 122.767 300.321 124.115 297.926 124.344C292.699 123.717 287.472 123.09 282.246 122.461C279.019 121.775 275.792 121.09 272.564 120.405C261.255 118.457 250.017 115.614 238.625 114.723C199.462 111.658 160.689 118.116 121.759 120.67C118.933 120.855 114.863 123.533 113.829 126.058C107.733 140.945 102.366 156.13 96.7537 171.215L96.7637 171.201C92.3177 175.282 82.8487 175.045 85.0447 184.835C72.8527 179.182 71.9487 177.324 74.7527 165.055C75.6897 160.958 76.8947 156.73 76.7337 152.611C76.3217 142.075 82.5467 135.181 88.8977 128.2Z" fill="#4F4E3A"/>
<path d="M134.102 598.289C135.377 592.008 136.651 585.728 137.925 579.447C142.82 573.523 147.03 566.795 152.792 561.889C159.366 556.291 165.856 551.455 163.07 540.565C172.033 540.565 179.685 540.565 187.337 540.565C190.375 541.939 193.291 543.794 196.472 544.601C208.675 547.695 210.32 550.878 206.336 563.137C203.975 570.401 202.296 577.887 200.31 585.273C198.02 593.315 198.216 602.46 190.234 607.975C181.789 607.862 173.343 607.803 164.9 607.616C159.131 607.488 153.367 607.181 147.6 606.954C143.101 604.066 138.602 601.177 134.102 598.289Z" fill="#413E32"/>
<path d="M44.0024 452.485C47.0244 463.659 53.7754 456.527 59.0564 455.362C64.6444 454.13 70.0824 452.222 75.5834 450.609C77.6474 461.608 86.5863 466.217 93.9653 471.654C100.766 467.559 106.752 463.954 112.739 460.349C122.799 464.321 133.23 467.578 142.781 472.531C148.597 475.547 149.646 481.542 144.901 487.374C140.029 493.362 135.25 499.432 130.607 505.598C125.686 512.133 120 512.218 113.801 507.83C108.821 504.305 104.119 500.386 99.1014 496.919C96.0604 494.818 92.6544 493.244 89.4073 491.434C80.3423 481.593 71.3754 471.66 62.0754 462.05C61.1574 461.102 57.4973 461.331 56.3093 462.376C51.0483 467.007 46.2244 472.136 41.2424 477.085C33.5534 484.09 25.9514 491.194 18.1364 498.055C14.5224 501.227 10.4904 503.923 6.64844 506.835C16.7584 492.004 26.8574 477.164 36.9894 462.347C39.2664 459.017 41.6614 455.77 44.0024 452.485Z" fill="#969370"/>
<path d="M128.052 350.717C126.024 350.789 123.995 350.862 121.967 350.934C109.94 347.873 105.028 338.834 105.204 327.763C105.805 290.137 107.046 252.517 108.491 214.912C108.679 210.014 111.487 205.216 113.082 200.372C122.527 212.873 131.971 225.375 139.858 235.814C133.405 247.87 127.776 258.389 122.146 268.908L122.2 268.847C121.521 269.559 120.841 270.271 120.162 270.983C116.968 281.119 113.774 291.255 111.028 299.971C123.755 303.807 133.761 306.823 143.767 309.839L143.732 309.782C132.177 321.004 128.614 335.286 128.052 350.717Z" fill="#7A7A5C"/>
<path d="M276.919 540.963C276.125 546.416 276.166 552.164 274.36 557.257C270.892 567.036 275.64 570.996 283.679 574.635C291.649 578.243 301.593 580.135 303.703 591.122C301.331 593.052 298.997 596.6 296.581 596.656C277.127 597.113 257.657 596.912 237.859 596.912C238.191 592.122 238.434 588.623 238.677 585.123C238.622 569.604 238.566 554.086 238.511 538.567C245.217 538.526 251.944 538.144 258.624 538.544C264.749 538.911 270.823 540.123 276.919 540.963Z" fill="#454236"/>
<path d="M231.668 501.295C248.054 487.95 265.474 488.344 283.545 497.391C288.53 509.329 292.694 521.241 282.425 532.695C281.046 532.107 279.673 531.025 278.287 531.007C263.004 530.809 247.718 530.777 232.433 530.699C232.178 520.899 231.923 511.097 231.668 501.295Z" fill="#84805F"/>
<path d="M297.926 124.344C300.321 124.115 303.783 122.767 304.922 123.854C309.492 128.217 312.392 125.618 315.514 122.377C321.097 125.801 326.681 129.226 331.985 132.479C333.185 128.735 334.222 125.503 335.258 122.271C336.2 124.649 336.46 127.886 338.196 129.267C349.959 138.625 350.49 151.973 351.663 165.166C343.524 164.568 335.386 163.97 327.248 163.373C326.967 163.229 326.685 163.085 326.404 162.94C326.671 163.098 326.938 163.256 327.206 163.414C327.871 166.008 328.536 168.602 329.201 171.196L329.163 171.228C326.643 169.053 324.123 166.879 321.268 164.416C316.904 164.884 311.941 165.416 307.211 165.923C305.987 169.298 304.939 172.185 303.892 175.073C303.1 165.357 302.308 155.642 301.515 145.926C300.243 139.645 298.971 133.365 297.699 127.084C297.774 126.172 297.85 125.258 297.926 124.344Z" fill="#454236"/>
<path d="M301.699 436.942C304.641 427.802 311.076 425.879 317.659 432.123C321.413 435.683 325.257 439.147 329.061 442.654C330.987 445.229 332.384 448.684 334.936 450.222C344.033 455.706 353.385 460.818 362.914 465.515C368.885 468.457 370.148 471.277 364.954 476.11C358.843 481.796 352.961 487.73 346.98 493.556C336.656 479.571 326.535 465.43 315.906 451.68C311.758 446.314 306.468 441.829 301.699 436.942Z" fill="#7A7A5C"/>
<path d="M35.9632 589.455C29.5432 582.835 23.1232 576.214 16.7032 569.594C8.61921 555.008 5.7102 539.262 6.8392 522.801C7.0852 519.208 8.2942 514.851 10.6672 512.402C16.0312 506.866 22.3973 502.301 28.3563 497.341C26.4203 514.927 23.1962 532.498 22.9832 550.106C22.8312 562.616 27.8282 574.566 40.0582 581.441C40.3572 581.696 40.6563 581.952 40.9553 582.208C40.7013 581.907 40.4472 581.607 40.1932 581.306C40.1112 580.128 40.0283 578.95 39.9463 577.772C46.7573 580.688 54.0173 582.881 60.2363 586.748C65.2133 589.843 67.9423 594.931 59.8623 598.631C51.8953 595.572 43.9292 592.513 35.9632 589.455Z" fill="#858765"/>
<path d="M324.562 203.96C322.847 212.509 320.979 221.031 319.454 229.613C317.318 241.627 315.565 253.711 313.312 265.702C312.959 267.582 310.839 269.129 309.535 270.831C301.755 260.637 293.976 250.443 285.77 239.69C295.168 226.645 305.293 212.589 315.419 198.532C318.467 200.342 321.514 202.151 324.562 203.96Z" fill="#707356"/>
<path d="M134.359 40.7793C128.482 40.6223 122.604 40.4653 116.727 40.3083C135.029 16.0073 160.553 5.17934 189.751 1.40734C196.447 0.542341 203.245 0.466344 209.996 0.0273438C200.287 13.7253 191.984 29.3153 171.559 28.5973C173.706 23.8293 173.424 19.7263 168.022 17.4693C159.44 13.8843 147.427 20.9773 145.609 30.5793C138.372 30.1463 131.997 30.6553 134.426 40.7993L134.359 40.7793Z" fill="#7A7A5C"/>
<path d="M294.01 442.626C293.508 446.713 292.496 450.815 292.619 454.883C292.822 461.571 294.484 468.282 294.062 474.89C293.873 477.853 290.134 480.589 288.006 483.428C282.226 482.823 276.446 482.218 270.666 481.614C268.501 468.505 266.336 455.396 263.895 440.611C272.881 440.611 280.004 440.611 287.128 440.611C289.423 441.283 291.716 441.954 294.01 442.626Z" fill="#858765"/>
<path d="M28.3553 497.341C22.3973 502.301 16.0302 506.866 10.6662 512.402C8.2942 514.851 7.08419 519.208 6.83819 522.801C5.70919 539.262 8.61921 555.008 16.7022 569.594C13.3682 567.994 7.54618 566.901 7.09918 564.712C3.98318 549.435 1.44527 533.981 0.0172702 518.464C-0.31773 514.822 4.30418 510.724 6.64618 506.835C10.4892 503.923 14.5212 501.227 18.1352 498.055C25.9512 491.194 33.5523 484.09 41.2463 477.094C42.9403 478.036 44.6303 478.969 46.3193 479.903C40.3313 485.715 34.3433 491.528 28.3553 497.341Z" fill="#4D4939"/>
<path d="M335.259 122.27C334.223 125.502 333.186 128.735 331.986 132.479C326.682 129.226 321.098 125.801 315.515 122.376C312.957 119.667 310.4 116.958 307.844 114.245C320.275 108.864 324.048 98.1625 325.328 85.8985C325.75 81.8635 326.298 77.8405 326.789 73.8125C329.613 89.9655 332.436 106.118 335.259 122.27Z" fill="#5B5A41"/>
<path d="M301.699 436.942C306.469 441.829 311.758 446.313 315.907 451.68C326.536 465.429 336.657 479.571 346.981 493.556C346.776 495.578 346.572 497.6 346.367 499.623C345.535 499.973 344.704 500.322 343.872 500.672C329.887 480.705 315.902 460.739 301.916 440.771C301.776 439.55 301.636 438.329 301.496 437.108L301.699 436.942Z" fill="#686346"/>
<path d="M327.246 163.372C335.384 163.97 343.522 164.568 351.661 165.165C354.553 178.319 353.732 179.957 340.885 186.641C336.989 181.493 333.094 176.344 329.198 171.196C328.533 168.602 327.868 166.008 327.203 163.414L327.246 163.372Z" fill="#4F4E3A"/>
<path d="M301.495 437.109C301.635 438.33 301.775 439.55 301.915 440.772C299.279 441.391 296.644 442.009 294.008 442.627C291.715 441.955 289.421 441.283 287.122 440.611C284.275 437.721 281.434 434.833 278.593 431.944C278.015 428.478 277.437 425.012 276.859 421.547C282.742 417.073 287.372 418.582 291.457 424.295C294.61 428.703 298.135 432.847 301.495 437.109Z" fill="#ECBF97"/>
<path d="M329.198 171.196C333.094 176.344 336.989 181.493 340.885 186.641C336.603 188.142 332.321 189.642 328.04 191.143C317.87 191.622 307.701 192.101 297.531 192.58C299.069 189.372 300.607 186.163 302.145 182.955C305.942 183.271 309.818 183.205 313.522 183.972C327.153 186.797 329.142 185.27 329.161 171.228L329.198 171.196Z" fill="#454236"/>
<path d="M232.434 530.7C247.719 530.777 263.005 530.81 278.288 531.008C279.674 531.026 281.047 532.108 282.426 532.696C280.591 535.452 278.756 538.207 276.921 540.963C270.825 540.123 264.751 538.911 258.627 538.544C251.947 538.143 245.22 538.526 238.514 538.567C236.487 535.945 234.461 533.322 232.434 530.7Z" fill="#66664D"/>
<path d="M270.67 481.613C276.45 482.218 282.23 482.823 288.01 483.427C286.772 485.484 285.533 487.542 284.295 489.6C277.725 487.624 271.154 485.648 264.586 483.672C266.615 482.987 268.642 482.3 270.67 481.613Z" fill="#5B5A41"/>
<path d="M85.0444 184.835C82.8484 175.045 92.3173 175.282 96.7633 171.201C98.7293 179.757 89.4783 180.579 86.6673 185.842C86.1263 185.506 85.5854 185.17 85.0444 184.835Z" fill="#413E32"/>
<path d="M243.568 90.1695C224.628 90.1695 207.371 90.1695 189.656 90.1695C192.605 81.0045 195.221 72.8335 197.875 64.6735C198.173 63.7565 198.775 62.9395 199.083 62.0245C200.684 57.2675 200.978 49.7365 204.076 48.3245C209.803 45.7135 217.195 46.0265 223.834 46.3495C230.421 46.6705 233.628 50.4275 234.105 57.8715C234.64 66.2255 233.898 75.3535 240.629 82.4005C242.18 84.0225 242.398 86.9185 243.568 90.1695Z" fill="#595646"/>
<path d="M134.422 40.7983C140.589 40.3403 144.168 43.8023 143.493 49.3593C142.659 56.2293 140.603 63.0983 137.973 69.5153C137.148 71.5273 132.444 73.4613 130.101 72.9153C127.737 72.3643 124.947 68.9563 124.347 66.3393C121.925 55.7883 126.335 47.4733 134.353 40.7763C134.356 40.7793 134.422 40.7983 134.422 40.7983Z" fill="#EFE9DE"/>
<path d="M145.605 30.5793C147.423 20.9773 159.437 13.8843 168.019 17.4693C173.422 19.7263 173.703 23.8283 171.556 28.5973C161.724 39.2153 153.866 39.8153 145.605 30.5793Z" fill="#EFE9DE"/>
<path d="M136.255 72.9753C138.998 76.5693 141.734 78.6393 141.448 80.1283C140.998 82.4683 138.512 84.4173 136.889 86.5323C135.241 85.0133 132.3 83.5343 132.252 81.9653C132.181 79.6673 134.182 77.3053 136.255 72.9753Z" fill="#D7D6CC"/>
<path d="M302.145 182.955C300.607 186.163 299.069 189.372 297.531 192.58C296.205 194.378 294.674 196.061 293.584 197.993C280.836 220.586 260.842 232.081 235.796 235.901C221.173 235.936 206.551 235.972 191.928 236.007C181.444 233.869 170.898 231.974 160.529 229.376C158.572 228.886 157.576 225.302 155.696 223.646C139.993 209.817 128.876 193.014 122.461 173.099C123.055 164.026 123.649 154.952 124.243 145.878C132.188 143.771 140.134 141.664 148.079 139.557C157.654 137.069 167.229 134.581 176.804 132.093C178.232 132.389 179.681 133.018 181.084 132.93C194.182 132.11 207.263 130.686 220.369 130.42C229.942 130.226 239.544 131.51 249.133 132.136C258.786 134.679 268.44 137.222 278.093 139.765C285.9 141.819 293.707 143.872 301.514 145.926C302.306 155.642 303.099 165.357 303.891 175.073C303.309 177.701 302.727 180.328 302.145 182.955ZM266.348 172.821C263.737 174.243 261.254 176.034 258.483 176.996C254.935 178.228 251.156 178.793 247.477 179.646C247.417 180.978 247.358 182.309 247.298 183.641C253.151 185.348 259.029 188.358 264.847 188.246C268.062 188.184 271.177 182.89 274.337 179.955C271.641 177.596 268.944 175.238 266.248 172.879C267.709 171.208 270.393 169.543 270.4 167.866C270.421 162.954 270.921 156.933 268.384 153.384C264.693 148.22 257.422 147.534 253.362 152.888C250.653 156.461 249.468 163.044 250.734 167.361C252.907 174.768 260.22 173.402 266.348 172.821ZM166.033 149.703C159.159 150.505 154.081 153.974 154.025 161.239C153.971 168.29 158.274 172.862 165.638 173.018C173.029 173.175 177.496 168.64 177.715 161.7C177.939 154.629 173.392 150.494 166.033 149.703ZM165.075 172.476C159.903 175.311 155.785 177.567 151.667 179.824C156.082 182.801 160.463 188.05 164.921 188.116C169.394 188.182 173.943 183.08 178.458 180.242C174.345 177.856 170.231 175.469 165.075 172.476ZM238.184 185.553C233.044 196.09 225.652 202.684 213.418 203.075C201.074 203.47 194.932 195.205 189.157 185.942C189.77 198.73 200.532 207.606 213.35 207.412C227.193 207.202 238.239 198.129 238.184 185.553Z" fill="#F5CFAC"/>
<path d="M128.055 350.717C128.618 335.286 132.18 321.004 143.735 309.783C154.821 307.229 165.906 304.676 176.991 302.123C180.86 311.752 184.729 321.381 188.599 331.009C188.508 332.327 188.418 333.645 188.329 334.965C176.01 338.854 163.69 342.739 151.37 346.625C144.997 355.961 135.966 350.149 128.055 350.717Z" fill="#858765"/>
<path d="M143.77 309.839C133.764 306.823 123.758 303.807 111.031 299.971C113.777 291.255 116.971 281.119 120.166 270.981C120.845 270.268 121.524 269.558 122.203 268.847L122.149 268.908C129.088 262.365 136.028 255.823 143.155 249.103C151.276 263.661 151.333 300.57 143.77 309.839Z" fill="#858765"/>
<path d="M124.243 145.88C123.649 154.954 123.055 164.027 122.461 173.1C121.253 168.302 120.045 163.504 118.203 156.187C110.689 161.452 103.721 166.333 96.7539 171.215C102.366 156.13 107.733 140.945 113.829 126.058C114.863 123.533 118.933 120.855 121.759 120.67C160.689 118.116 199.462 111.658 238.625 114.723C250.016 115.614 261.255 118.457 272.564 120.405C272.217 120.869 271.871 121.335 271.527 121.802C227.948 114.517 184.505 115.021 141.219 124.123C125.854 127.354 124.28 129.408 124.243 145.88Z" fill="#413E32"/>
<path d="M272.407 304.124C272.607 305.459 272.807 306.793 273.007 308.128C266.294 313.824 259.581 319.52 252.868 325.216C248.744 321.39 244.62 317.563 240.496 313.737C247.856 307.649 255.215 301.562 262.796 295.292C266.752 298.927 269.579 301.525 272.407 304.124Z" fill="#EFE9DE"/>
<path d="M191.93 236.008C206.553 235.973 221.175 235.937 235.798 235.902C235.435 239.359 235.071 242.816 234.646 246.861C220.614 246.861 206.959 246.861 192.602 246.861C192.359 242.936 192.145 239.472 191.93 236.008Z" fill="#CEA886"/>
<path d="M188.596 331.009C184.726 321.38 180.857 311.752 176.988 302.123C178.175 299.752 179.361 297.382 180.547 295.013C187.381 302.217 194.215 309.419 202.529 318.18C198.298 322.076 193.447 326.543 188.596 331.009Z" fill="#ECBF97"/>
<path d="M276.924 274.369C286.955 283.672 286.73 295.98 276.383 303.951C276.564 294.09 276.744 284.229 276.924 274.369Z" fill="#66664D"/>
<path d="M151.367 346.625C163.687 342.739 176.008 338.854 188.326 334.965C195.121 337.546 201.919 340.131 208.585 342.666C195.819 352.019 183.392 361.124 170.965 370.231C167.629 372.894 164.292 375.554 160.959 378.215C160.395 378.197 159.829 378.206 159.263 378.242C157.964 377.596 156.666 376.95 155.367 376.304C154.034 366.411 152.701 356.518 151.367 346.625Z" fill="#4F4E3A"/>
<path d="M252.867 325.215C259.58 319.519 266.293 313.823 273.006 308.127C275.443 315.087 277.74 322.1 280.365 328.987C282.064 333.445 284.41 337.655 286.156 342.098C287.777 346.224 288.987 350.513 290.376 354.73C292.135 359.264 293.897 363.797 295.659 368.33C288.055 370.534 294.769 374.997 294.088 378.293C290.505 374.884 285.903 372.053 283.562 367.937C279.367 360.561 276.533 352.411 272.825 343.886C273.332 342.975 274.729 340.466 276.126 337.958C273.307 337.028 270.471 335.269 267.673 335.327C260.081 335.485 254.024 334.152 252.867 325.215Z" fill="#4D4939"/>
<path d="M258.82 397.991C257.12 402.232 255.42 406.473 253.268 411.843C249.931 406.811 247.881 401.662 244.085 399.076C242.698 398.131 237.165 403.27 233.523 405.633L233.418 405.541C234.706 396.457 235.994 387.374 237.283 378.29C240.92 379.248 244.557 380.207 249.252 381.445C246.895 376.312 245.089 372.381 243.284 368.45C253.073 368.922 257.557 373.954 257.316 383.842C257.201 388.543 258.281 393.273 258.82 397.991Z" fill="#5B5A41"/>
<path d="M160.958 378.215C164.294 375.555 167.631 372.894 170.967 370.232C169.03 380.731 173.556 388.755 180.753 395.753C178.904 400.336 177.056 404.919 175.203 409.502C162.329 403.865 157.778 393.709 159.308 380.249C160.694 380.089 162.079 379.929 165.446 379.54C162.624 378.707 161.791 378.461 160.958 378.215Z" fill="#7A7A5C"/>
<path d="M303.74 417.366C288.753 403.367 272.798 390.172 264.741 370.416L264.715 370.442C265.756 368.917 266.797 367.391 267.849 365.857C279.528 379.773 291.373 393.558 302.677 407.773C304.368 409.9 303.521 414.045 303.848 417.256L303.74 417.366Z" fill="#7A7A5C"/>
<path d="M243.284 368.449C245.089 372.38 246.895 376.311 249.252 381.444C244.558 380.206 240.921 379.247 237.283 378.289C236.969 375.428 236.655 372.567 236.189 368.314C230.042 369.05 223.906 369.784 217.77 370.519C222.129 366.391 225.822 360.625 231.005 358.516C238.835 355.329 238.671 365.576 243.284 368.449Z" fill="#4D4939"/>
<path d="M202.183 391.899C202.85 395.639 204.332 399.47 203.924 403.089C203.602 405.942 200.953 408.533 199.338 411.24C196.318 409.407 192.61 408.147 190.473 405.579C188.344 403.021 187.791 399.15 186.547 395.856C191.759 394.537 196.971 393.218 202.183 391.899Z" fill="#6B6D50"/>
<path d="M258.874 356.747C259.372 357.439 259.87 358.131 260.368 358.823C260.119 358.988 259.87 359.153 259.62 359.317C259.366 358.465 259.113 357.613 258.859 356.761L258.874 356.747Z" fill="#7A7A5C"/>
<path d="M307.633 423.241C306.988 421.924 306.344 420.608 305.699 419.291L305.774 419.217C306.446 420.507 307.117 421.797 307.789 423.087L307.633 423.241Z" fill="#7A7A5C"/>
<path d="M264.741 370.416C264.463 370.274 264.184 370.133 263.906 369.991C264.176 370.141 264.446 370.291 264.715 370.441L264.741 370.416Z" fill="#7A7A5C"/>
<path d="M258.859 356.762C258.579 356.608 258.3 356.454 258.02 356.3C258.305 356.449 258.589 356.598 258.874 356.747L258.859 356.762Z" fill="#7A7A5C"/>
<path d="M305.7 419.291C305.048 418.649 304.395 418.007 303.742 417.365L303.849 417.256C304.491 417.91 305.132 418.564 305.774 419.217L305.7 419.291Z" fill="#7A7A5C"/>
<path d="M307.788 423.087C308.043 423.393 308.298 423.698 308.553 424.004C308.247 423.749 307.94 423.494 307.633 423.24L307.788 423.087Z" fill="#7A7A5C"/>
<path d="M168.917 470.03C165.113 452.721 155.162 439.47 141.574 428.617C142.953 424.872 144.333 421.131 145.711 417.389C151.856 417.354 158.107 416.629 164.11 417.537C167.864 418.104 171.246 421.13 174.795 423.053C175.421 424.447 176.048 425.842 176.675 427.234C175.432 431.408 173.301 435.545 173.115 439.768C172.614 451.141 172.944 462.55 172.944 475.385C170.818 472.557 169.868 471.293 168.917 470.03Z" fill="#6B6D50"/>
<path d="M168.917 470.03C169.867 471.293 170.818 472.557 172.945 475.384C172.945 462.549 172.615 451.14 173.116 439.767C173.302 435.544 175.433 431.407 176.676 427.233C186.279 435.832 184.978 446.26 182.158 457.261C179.329 468.297 184.964 475.788 196.994 477.974C196.07 482.454 195.146 486.933 194.222 491.412C186.354 488.112 178.486 484.812 170.527 481.474C169.162 486.404 168.167 490.001 167.171 493.598C165.203 493.553 163.235 493.507 161.266 493.462C162.384 490.016 163.497 486.568 164.622 483.124C166.049 478.758 167.485 474.395 168.917 470.03Z" fill="#5D5D45"/>
<path d="M174.799 423.052C171.25 421.129 167.868 418.103 164.114 417.536C158.11 416.629 151.86 417.353 145.715 417.388C148.934 403.694 152.152 389.998 155.37 376.303C156.669 376.949 157.967 377.595 159.266 378.241C159.281 378.91 159.295 379.579 159.31 380.248C157.78 393.708 162.332 403.864 175.205 409.501C175.072 414.019 174.935 418.536 174.799 423.052Z" fill="#5B5A41"/>
<path d="M270.667 481.613C268.639 482.3 266.611 482.986 264.582 483.672C262.685 470.783 260.577 457.921 258.98 444.996C258.154 438.306 263.184 437.639 268.313 436.649C271.909 435.955 275.181 433.577 278.595 431.946C281.434 434.83 284.275 437.719 287.122 440.608C280.004 440.609 272.881 440.609 263.895 440.609C266.338 455.395 268.502 468.504 270.667 481.613Z" fill="#707356"/>
<path d="M231.704 485.617C229.918 477.216 228.132 468.815 226.344 460.415C229.441 461.038 232.75 461.166 235.601 462.375C244.233 466.035 245.445 470.381 239.832 477.896C237.627 480.847 234.442 483.065 231.704 485.617Z" fill="#5D5D45"/>
<path d="M233.524 405.633C233.232 406.477 232.94 407.321 232.648 408.166C232.409 407.975 231.948 407.642 231.965 407.615C232.42 406.905 232.924 406.227 233.419 405.542L233.524 405.633Z" fill="#5B5A41"/>
<path d="M295.662 368.332C293.9 363.799 292.139 359.265 290.379 354.732C293.258 354.754 296.156 355.014 299.007 354.756C308.102 353.933 313.028 357.461 312.369 368.332C306.88 368.332 301.271 368.332 295.662 368.332Z" fill="#7A7A5C"/>
<path d="M285.628 329.896C285.438 329.947 285.123 330.088 285.082 330.032C284.943 329.839 284.9 329.576 284.82 329.339C285.131 329.272 285.441 329.205 285.752 329.139C285.71 329.391 285.669 329.644 285.628 329.896Z" fill="#4D4939"/>
<path d="M46.3175 479.902C44.6285 478.969 42.9385 478.035 41.2445 477.093C46.2215 472.136 51.0454 467.007 56.3064 462.375C57.4944 461.33 61.1545 461.101 62.0725 462.049C71.3725 471.659 80.3394 481.591 89.4044 491.433C88.7214 492.877 88.0344 494.321 87.3454 495.763C82.6334 508.073 76.5675 520.058 73.5065 532.767C67.8425 556.283 71.3914 579.628 78.7674 602.435C72.4644 601.167 66.1625 599.899 59.8595 598.631C67.9395 594.931 65.2104 589.843 60.2334 586.748C54.0144 582.881 46.7544 580.688 39.9444 577.77C26.6494 560.084 28.4564 540.094 31.7534 520.179C34.4184 504.08 41.5105 491.306 60.1725 489.554C61.8795 489.394 63.4585 487.874 65.0315 487.022C60.7525 475.092 58.5025 474.285 46.3175 479.902ZM64.5714 535.288C56.2654 533.868 48.7534 532.245 41.1544 531.523C39.2714 531.344 35.7814 533.818 35.4314 535.556C35.0384 537.508 37.0034 541.651 38.5694 541.996C46.9014 543.831 55.4294 544.774 64.5714 546.127C64.5714 542.132 64.5714 539.058 64.5714 535.288ZM36.5284 557.896C39.1644 571.247 43.7325 573.922 64.9275 575.796C67.0105 568.025 64.1565 563.625 56.1615 562.197C49.9405 561.085 43.8014 559.509 36.5284 557.896ZM70.9934 508.478C55.8964 500.917 44.5764 504.139 43.2004 516.389C71.0114 517.46 70.3494 518.54 70.9934 508.478Z" fill="#595646"/>
<path d="M78.7698 602.435C71.3938 579.629 67.8448 556.283 73.5088 532.767C76.5698 520.058 82.6358 508.073 87.3478 495.763C92.5118 501.484 97.6747 507.204 102.835 512.924C100.651 521.653 98.6168 530.422 96.2548 539.101C92.1858 554.049 87.3307 568.91 98.8287 582.999C103.2 588.355 107.076 594.114 112.045 600.869C106.417 600.869 102.287 600.634 98.1958 600.933C93.8408 601.251 89.5227 602.076 85.1887 602.679C83.0477 602.598 80.9088 602.517 78.7698 602.435Z" fill="#B4AC89"/>
<path d="M161.266 493.462C163.234 493.507 165.202 493.553 167.17 493.597C164.609 502.899 161.559 512.101 159.616 521.531C157.378 532.397 162.855 536.787 173.487 535.447C186.234 533.84 194.043 527.962 196.082 515.068C198.074 525.25 195.027 533.704 187.337 540.566C179.685 540.566 172.033 540.566 163.07 540.566C165.855 551.456 159.365 556.292 152.792 561.89C147.03 566.797 142.82 573.524 137.925 579.448C125.219 556.04 132.508 511.854 148.554 499.536C152.198 496.738 156.998 495.447 161.266 493.462Z" fill="#707356"/>
<path d="M85.1875 602.68C89.5215 602.077 93.8396 601.253 98.1946 600.934C102.286 600.635 106.416 600.87 112.044 600.87C107.075 594.116 103.199 588.356 98.8275 583C87.3295 568.911 92.1855 554.05 96.2535 539.102C98.6155 530.423 100.649 521.654 102.833 512.925C108.849 515.003 114.863 517.082 121.858 519.501C114.256 546.793 118.498 573.008 128.019 598.735C113.743 600.049 99.4645 601.365 85.1875 602.68Z" fill="#969370"/>
<path d="M112.738 460.348C106.751 463.953 100.764 467.558 93.964 471.653C86.584 466.217 77.646 461.607 75.582 450.608C77.364 449.948 79.206 449.417 80.91 448.601C85.916 446.203 93.154 440.321 95.411 441.854C102.23 446.483 107.105 453.973 112.738 460.348Z" fill="#4F4E3A"/>
<path d="M297.925 124.344C297.849 125.258 297.773 126.171 297.698 127.082C292.355 125.812 287.012 124.545 281.668 123.277C281.861 123.006 282.053 122.734 282.244 122.462C287.471 123.09 292.698 123.717 297.925 124.344Z" fill="#413E32"/>
<path d="M272.563 120.405C275.791 121.09 279.018 121.775 282.245 122.461C282.053 122.735 281.861 123.006 281.671 123.274C278.291 122.781 274.909 122.291 271.527 121.802C271.87 121.335 272.215 120.87 272.563 120.405Z" fill="#413E32"/>
<path d="M122.202 268.848C121.523 269.559 120.844 270.27 120.164 270.982C120.843 270.272 121.523 269.56 122.202 268.848Z" fill="#4F4E3A"/>
<path d="M271.526 121.802C274.908 122.292 278.29 122.781 281.67 123.274C287.011 124.545 292.354 125.812 297.697 127.082C298.968 133.365 300.24 139.646 301.513 145.926C293.706 143.872 285.899 141.819 278.092 139.765C278.5 127.628 268.246 127.282 260.651 124.079C252.67 120.713 248.255 122.709 249.132 132.136C239.543 131.511 229.94 130.226 220.368 130.42C207.262 130.686 194.181 132.11 181.083 132.93C179.679 133.018 178.231 132.389 176.803 132.093C175.349 128.926 174.584 123.723 172.316 122.954C163.67 120.022 149.618 130.216 148.078 139.557C140.133 141.664 132.187 143.771 124.242 145.878C124.278 129.406 125.853 127.353 141.219 124.121C184.503 115.021 227.946 114.517 271.526 121.802Z" fill="#CEA886"/>
<path d="M302.145 182.955C302.727 180.328 303.308 177.701 303.89 175.074C304.938 172.186 305.984 169.298 307.208 165.923C311.938 165.416 316.901 164.885 321.266 164.417C324.12 166.88 326.641 169.054 329.161 171.229C329.142 185.271 327.153 186.797 313.522 183.972C309.819 183.205 305.942 183.271 302.145 182.955Z" fill="#4F4E3A"/>
<path d="M327.204 163.414C326.937 163.256 326.67 163.098 326.402 162.94C326.683 163.084 326.965 163.229 327.246 163.373L327.204 163.414Z" fill="#4F4E3A"/>
<path d="M46.3179 479.902C58.5029 474.285 60.7528 475.092 65.0308 487.02C63.4578 487.873 61.8789 489.392 60.1719 489.552C41.5099 491.303 34.4188 504.078 31.7528 520.177C28.4558 540.092 26.6489 560.082 39.9439 577.768C40.0249 578.948 40.1078 580.126 40.1898 581.304L40.0539 581.441C27.8249 574.565 22.8289 562.614 22.9799 550.105C23.1929 532.498 26.4168 514.927 28.3528 497.34C34.3418 491.528 40.3299 485.715 46.3179 479.902Z" fill="#A8A17C"/>
<path d="M40.1936 581.305C40.4476 581.606 40.7017 581.906 40.9557 582.207C40.6567 581.951 40.3576 581.695 40.0586 581.44C40.0576 581.442 40.1936 581.305 40.1936 581.305Z" fill="#A8A17C"/>
<path d="M166.032 149.703C173.39 150.494 177.937 154.629 177.714 161.7C177.494 168.64 173.027 173.175 165.637 173.018C158.273 172.862 153.97 168.29 154.024 161.239C154.08 153.974 159.158 150.506 166.032 149.703Z" fill="#413E32"/>
<path d="M266.344 172.819C260.22 173.403 252.907 174.769 250.734 167.36C249.468 163.043 250.653 156.459 253.362 152.887C257.422 147.533 264.692 148.219 268.384 153.383C270.921 156.933 270.422 162.953 270.4 167.865C270.393 169.542 267.709 171.208 266.248 172.878L266.344 172.819Z" fill="#413E32"/>
<path d="M165.075 172.476C170.232 175.468 174.345 177.856 178.459 180.243C173.943 183.08 169.394 188.183 164.922 188.117C160.464 188.051 156.083 182.802 151.668 179.825C155.785 177.568 159.903 175.311 165.075 172.476Z" fill="#ECBF97"/>
<path d="M238.186 185.553C238.241 198.129 227.195 207.202 213.353 207.412C200.535 207.607 189.774 198.73 189.16 185.942C194.934 195.204 201.077 203.469 213.421 203.075C225.654 202.684 233.046 196.09 238.186 185.553Z" fill="#454236"/>
<path d="M266.247 172.878C268.944 175.237 271.64 177.595 274.336 179.954C271.176 182.889 268.061 188.183 264.846 188.245C259.028 188.357 253.15 185.347 247.297 183.64C247.357 182.308 247.416 180.977 247.476 179.645C251.155 178.792 254.934 178.227 258.482 176.995C261.253 176.033 263.736 174.242 266.345 172.819C266.343 172.819 266.247 172.878 266.247 172.878Z" fill="#ECBF97"/>
<path d="M148.078 139.558C149.618 130.216 163.67 120.023 172.316 122.955C174.584 123.724 175.348 128.927 176.803 132.094C167.227 134.582 157.653 137.07 148.078 139.558Z" fill="#413E32"/>
<path d="M249.133 132.137C248.256 122.709 252.671 120.714 260.652 124.08C268.247 127.283 278.501 127.629 278.093 139.766C268.44 137.223 258.786 134.68 249.133 132.137Z" fill="#413E32"/>
<path d="M159.31 380.249C159.295 379.58 159.28 378.911 159.266 378.242C159.832 378.206 160.398 378.197 160.962 378.215C161.793 378.461 162.626 378.707 165.448 379.54C162.081 379.929 160.695 380.089 159.31 380.249Z" fill="#686346"/>
<path d="M196.083 515.068C194.045 527.962 186.234 533.841 173.487 535.447C162.855 536.787 157.377 532.397 159.616 521.531C161.559 512.101 164.608 502.899 167.17 493.597C168.166 490.001 169.162 486.404 170.526 481.474C178.485 484.812 186.353 488.112 194.221 491.412C194.841 499.297 195.462 507.183 196.083 515.068Z" fill="#858765"/>
<path d="M64.5739 535.288C64.5739 539.058 64.5739 542.132 64.5739 546.127C55.4319 544.774 46.9039 543.831 38.5719 541.996C37.0059 541.651 35.0399 537.508 35.4339 535.556C35.7839 533.818 39.2739 531.344 41.1569 531.523C48.7559 532.245 56.2679 533.868 64.5739 535.288Z" fill="#A8A17C"/>
<path d="M36.5312 557.896C43.8042 559.509 49.9433 561.086 56.1643 562.198C64.1593 563.626 67.0133 568.027 64.9303 575.797C43.7353 573.923 39.1672 571.247 36.5312 557.896Z" fill="#969370"/>
<path d="M70.9961 508.478C70.3531 518.54 71.0141 517.46 43.2031 516.389C44.5791 504.139 55.8981 500.917 70.9961 508.478Z" fill="#A8A17C"/>
</svg>
