<svg width="892" height="658" viewBox="0 0 892 658" fill="none" xmlns="http://www.w3.org/2000/svg">
<path d="M415.555 325.82C420.367 324.467 425.161 322.018 429.995 321.936C467.175 321.31 504.363 320.956 541.547 321.001C548.436 321.009 550.776 318.438 550.588 312.207C551.164 312.21 551.741 312.22 552.317 312.237C553.784 314.812 554.813 319.141 556.8 319.638C563.237 321.248 569.342 320.131 571.539 312.279C572.292 321.694 578.831 316.61 583.211 316.936C583.316 327.746 583.421 338.557 583.527 349.367C578.333 350.636 573.139 351.905 567.945 353.174C567.939 354.478 567.932 355.782 567.926 357.086C568.629 359.868 569.332 362.65 570.035 365.431C569.246 377.629 568.457 389.828 567.668 402.026C562.217 402.481 556.746 402.766 551.32 403.424C534.073 405.513 516.842 407.74 499.605 409.913C498.094 409.139 496.584 408.364 495.073 407.59C494.675 400.007 494.277 392.423 493.879 384.84C493.728 381.982 493.576 379.124 493.425 376.266C492.278 376.279 491.131 376.292 489.984 376.305C489.984 381.711 489.984 387.117 489.984 392.522L490.13 392.453C488.609 393.092 487.088 393.73 485.566 394.369C483.171 391.873 481.093 387.698 478.326 387.178C467.391 385.122 456.16 382.703 445.194 383.293C433.898 383.9 422.782 387.853 411.587 390.341C410.876 386.569 410.164 382.796 409.453 379.024C412.133 376.743 417.112 374.471 417.122 372.179C417.19 356.729 416.202 341.274 415.555 325.82ZM461.525 351.178C461.525 351.205 461.525 351.231 461.525 351.258C464.774 351.258 468.091 351.649 471.245 351.103C472.98 350.802 474.443 348.924 476.028 347.757C474.354 346.347 472.755 343.842 470.993 343.722C464.529 343.282 457.993 343.395 451.525 343.863C449.963 343.976 448.558 346.251 447.081 347.532C448.646 348.747 450.078 350.704 451.807 351.016C454.953 351.585 458.276 351.178 461.525 351.178ZM560.233 341.964C560.216 341.575 560.199 341.185 560.182 340.796C536.007 340.796 511.832 340.796 487.657 340.796C487.683 341.185 487.709 341.575 487.734 341.964C511.9 341.964 536.066 341.964 560.233 341.964Z" fill="#574D3F"/>
<path d="M583.526 349.368C583.421 338.558 583.316 327.747 583.21 316.937C583.949 314.795 584.687 312.654 585.426 310.512C592.749 309.851 600.072 309.19 607.395 308.529C606.047 314.68 610.078 313.948 613.741 313.361C646.667 308.092 679.578 302.726 712.509 297.488C730.087 294.692 747.671 291.909 765.317 289.61C767.794 289.287 770.637 291.769 773.31 292.953C773.31 292.953 773.78 293.318 773.775 293.314C773.528 306.176 773.286 319.041 773.044 331.907C771.997 336.982 770.95 342.057 769.903 347.131C767.651 347.189 765.4 347.248 763.148 347.306C759.782 346.687 756.423 345.583 753.049 345.533C739.23 345.33 725.407 345.448 711.213 345.448C709.778 335.897 708.53 327.59 707.282 319.283C706.762 319.406 706.242 319.529 705.722 319.653C706.413 327.822 707.104 335.99 707.898 345.379C698.854 345.379 690.219 345.379 681.585 345.379C681.598 346.075 681.611 346.77 681.625 347.466C686.076 347.466 690.527 347.466 694.978 347.466C694.593 350.297 694.208 353.127 693.467 358.571C725.503 359.416 757.05 360.249 788.596 361.081C788.596 364.806 788.596 368.53 788.596 372.936C757.181 371.893 726.997 370.89 696.813 369.887C689.914 368.891 683.017 367.135 676.115 367.115C669.345 367.095 667.063 364.867 667.404 358.208C667.718 352.069 669.399 344.996 661.585 341.501C657.973 337.509 654.361 333.516 650.748 329.524C649.893 330.192 649.038 330.86 648.183 331.527C648.183 343.969 648.183 356.412 648.183 368.854C647.432 368.864 646.681 368.875 645.93 368.885C645.93 356.784 645.93 344.684 645.93 333.043C636.023 329.666 633.372 333.518 634.239 341.466C632.985 341.477 631.731 341.488 630.477 341.499C628.973 339.602 627.469 337.705 625.965 335.808C623.576 338.123 619.464 340.2 619.103 342.797C617.735 352.654 617.581 362.68 616.974 372.643C621.443 376.414 617.511 385.97 626.572 386.579C626.151 387.741 625.73 388.902 625.309 390.064C621.797 389.513 618.286 388.962 614.774 388.412C608.101 381.335 601.428 374.258 594.755 367.181C594.91 366.555 594.928 365.926 594.811 365.292C600.48 364.071 606.149 362.85 611.818 361.629C600.005 360.859 591.034 358.283 595.702 342.964C589.327 347.421 599.355 358.093 587.927 358.668C581.236 359.005 583.518 353.219 583.526 349.368ZM704.925 311.912C705.417 312.016 705.909 312.12 706.401 312.225C706.286 310.355 706.172 308.484 706.057 306.614C705.68 306.634 705.302 306.654 704.925 306.674C704.925 308.42 704.925 310.166 704.925 311.912Z" fill="#5A5642"/>
<path d="M466.486 233.903C452.972 275.814 421.877 295.661 380.41 302.493C363.522 302.33 346.634 302.168 329.746 302.006C335.122 301.504 340.503 300.558 345.872 300.624C351.379 300.691 353.089 298.587 353.183 293.2C353.597 269.642 354.511 246.092 354.989 222.534C355.265 208.94 355.056 195.336 355.065 181.737C366.129 182.224 377.194 182.71 388.258 183.199C389.843 193.159 398.649 189.294 404.254 191.557C403.596 193.717 401.914 196.193 402.465 197.979C404.444 204.385 405.52 212.76 410.091 216.201C414.696 219.667 423.501 219.906 429.66 218.357C437.235 216.452 439.457 208.924 439.152 201.122C438.855 193.516 435.24 188.353 428.41 185.292C418.682 180.932 410.915 184.172 404.236 191.575C403.5 188.663 402.766 185.754 402.032 182.844C405.851 181.82 409.669 180.796 413.488 179.771C418.232 180.308 422.967 181.179 427.722 181.319C441.27 181.716 452.528 185.646 457.682 199.611C461.031 208.684 464.246 217.806 467.522 226.906C467.177 229.236 466.832 231.569 466.486 233.903Z" fill="#FBE0B7"/>
<path d="M354.871 0C367.222 0.775 379.573 1.55 391.924 2.321C393.188 3.668 394.227 5.383 395.747 6.314C413.855 17.409 427.349 32.423 435.252 52.268C435.894 53.025 436.537 53.781 437.18 54.538C437.238 55.061 437.275 55.586 437.292 56.113C432.662 56.765 428.032 57.416 423.403 58.068C419.91 62.728 420.182 66.79 425.313 70.079L425.305 70.061C425.963 70.719 426.622 71.378 427.28 72.036L427.261 72.028C431.709 73.813 436.158 75.597 440.606 77.382C442.026 87.054 443.691 96.702 444.657 106.419C444.847 108.332 442.346 110.513 441.086 112.571C424.726 110.454 408.365 108.336 392.004 106.218C389.796 105.351 387.589 104.484 384.346 103.21C384.346 113.26 384.346 121.98 384.346 130.7C383.676 130.688 383.006 130.676 382.336 130.664C382.284 122.108 382.232 113.552 382.179 104.996C373.185 103.684 364.191 102.372 355.197 101.061C355.089 67.374 354.98 33.687 354.871 0Z" fill="#C8B478"/>
<path d="M354.873 0C354.982 33.687 355.091 67.374 355.2 101.062C346.032 102.265 336.864 103.467 327.696 104.668C324.457 105.583 321.218 106.497 317.979 107.41C316.649 106.682 315.32 105.956 313.991 105.23L313.983 105.211C305.816 96.068 297.648 86.925 289.069 77.322C291.445 76.327 293.606 75.422 298.644 73.312C293.226 70.166 289.751 68.147 286.275 66.129C283.842 62.111 281.409 58.093 278.976 54.074C278.28 44.131 277.687 34.18 276.813 24.253C276.602 21.855 275.462 19.539 274.75 17.185C292.17 12.03 309.434 6.223 327.076 1.993C335.988 -0.141996 345.585 0.574 354.873 0Z" fill="#9E8957"/>
<path d="M271.126 612.9C269.475 610.722 268.257 607.526 266.074 606.599C262.645 605.142 258.567 605.213 253.46 604.44C254.771 585.749 256.072 567.208 257.361 548.826C245.019 543.844 244.216 541.947 247.777 526.325C251.118 526.325 254.568 526.325 259.893 526.325C260.31 514.46 260.735 502.395 261.16 490.33C260.949 488.392 260.738 486.454 260.208 481.578C264.906 485.63 267.236 488.164 270.044 489.949C275.46 493.391 281.145 496.408 286.718 499.602C291.912 500.922 297.107 502.241 302.301 503.56C299.22 504.81 296.138 506.06 292.96 507.349C292.166 515.994 291.386 524.48 290.607 532.967C290.295 535.519 290.316 538.168 289.608 540.605C287.459 547.994 288.544 552.303 297.695 552.684C304.69 552.975 311.596 555.193 318.563 556.433C324.562 557.501 329.127 559.628 327.659 567.055C325.998 575.46 319.613 571.995 315.345 571.258C307.284 569.866 299.44 567.216 290.593 564.844C290.593 577.298 290.953 588.295 290.471 599.255C290.123 607.162 293.538 609.318 300.874 609.21C308.471 609.098 316.087 610.23 323.694 610.817C320.647 610.99 317.599 611.163 314.552 611.336C301.352 611.884 288.152 612.431 274.952 612.978C273.677 612.953 272.402 612.926 271.126 612.9Z" fill="#4F4B3C"/>
<path d="M317.979 107.413C321.218 106.498 324.457 105.584 327.695 104.673C327.705 110.831 327.68 116.985 327.733 123.139C327.825 133.942 329.663 136.566 340.247 134.081C349.663 131.87 356.82 135.921 364.793 138.349C361.582 138.416 358.371 138.483 355.16 138.55C329.732 141.115 304.303 143.679 278.875 146.244C277.547 146.265 276.22 146.286 274.892 146.307C274.293 146.266 273.695 146.28 273.098 146.347C249.182 149.52 225.266 152.693 201.35 155.866C200.193 152.597 199.036 149.328 197.81 145.864C195.573 150.263 193.639 154.95 190.871 159.078C189.768 160.723 186.823 161.133 184.717 162.105C184.264 159.813 182.801 157.118 183.527 155.295C187.451 145.44 191.773 135.733 196.234 126.104C201.353 115.054 206.761 104.138 212.044 93.165C209.943 104.401 207.842 115.636 205.692 127.134C222.351 124.356 239.141 121.636 255.9 118.739C273.988 115.612 292.047 112.319 310.119 109.098C312.739 108.536 315.359 107.974 317.979 107.413Z" fill="#4F4B3C"/>
<path d="M661.588 341.502C669.403 344.997 667.722 352.07 667.408 358.209C667.067 364.868 669.35 367.096 676.119 367.116C683.021 367.136 689.918 368.892 696.817 369.888C687.237 369.888 677.657 369.888 667.979 369.888C673.193 396.964 707.661 418.038 742.135 415.718C783.741 412.917 820.332 374.619 820.049 333.679C816.096 329.108 812.143 324.538 808.189 319.967C809.648 317.496 811.107 315.024 812.896 311.993C805.427 311.051 799.513 310.305 792.527 309.424C792.527 303.529 792.527 298.08 792.527 292.631C796.44 289.193 805.202 297.303 806.189 286.895C807.427 287.236 808.666 287.577 809.904 287.918C809.41 292.165 804.009 298.32 814.013 298.483C814.842 303.138 816.565 305.791 821.799 302.698C823.886 301.465 826.433 300.837 828.855 300.372C845.551 297.165 862.312 294.274 878.938 290.745C881.675 290.164 883.85 286.941 886.285 284.94C887.004 284.901 887.723 284.862 888.442 284.823C889.489 288.87 890.536 292.917 891.925 298.287C870.493 301.966 849.593 305.553 830.329 308.859C827.414 326.525 826.271 343.9 821.532 360.232C806.919 410.592 743.722 438.543 696.033 416.576C681.42 409.845 670.567 398.904 662.817 384.826C661.318 382.104 659.499 379.559 657.828 376.933C658.477 374.261 659.127 371.589 659.776 368.917C660.381 359.778 660.984 350.64 661.588 341.502Z" fill="#4F4B3C"/>
<path d="M214.465 460.611C211.267 456.712 208.623 452.118 204.768 449.043C193.157 439.78 181.075 431.107 169.177 422.204C168.293 414.082 169.555 405.581 162.034 399.176C153.72 392.097 146.129 384.169 138.223 376.611C142.089 377.198 145.956 377.785 149.822 378.371C151.775 376.283 154.484 374.512 155.522 372.04C157.618 367.044 158.849 361.68 160.36 356.445C165.887 337.296 165.876 337.293 185.352 339.354C188.168 340.063 190.951 340.971 193.805 341.449C210.284 344.207 210.124 344.52 206.493 360.652C204.606 369.037 200.919 372.273 192.551 370.13C189.807 369.427 186.905 369.338 180.822 368.543C182.811 374.339 183.647 381.472 185.647 381.815C195.701 383.538 194.867 388.867 192.095 395.809C190.457 399.912 189.006 404.089 187.508 408.135C181.863 407.413 176.862 406.773 171.862 406.134C171.558 406.984 171.253 407.835 170.948 408.685C183.494 417.643 196.041 426.6 208.587 435.558C213.525 438.989 218.882 441.963 223.264 445.997C226.632 449.097 231.447 453.964 230.909 457.281C229.757 464.387 223.341 461.954 218.325 460.676C217.112 460.365 215.756 460.617 214.465 460.611Z" fill="#484234"/>
<path d="M310.118 109.097C292.046 112.318 273.987 115.611 255.899 118.738C239.14 121.635 222.35 124.355 205.691 127.133C207.841 115.635 209.942 104.399 212.043 93.164C212.043 93.164 212.015 93.291 212.017 93.291C212.239 92.738 212.459 92.184 212.678 91.631C220.27 77.538 227.861 63.446 235.453 49.354C236.338 52.715 236.185 57.032 238.266 59.286C259.062 81.803 283.556 98.461 313.981 105.212L313.99 105.23C312.7 106.519 311.409 107.808 310.118 109.097Z" fill="#7A694C"/>
<path d="M201.351 155.867C225.267 152.694 249.183 149.521 273.098 146.347C273.695 146.333 274.294 146.321 274.893 146.308C276.221 146.287 277.548 146.266 278.876 146.245C278.877 150.141 278.878 154.037 278.879 157.932C278.217 158.587 277.556 159.241 276.894 159.896C267.708 161.286 258.404 162.182 249.402 164.34C246.362 165.069 242.105 168.791 241.828 171.495C240.899 180.573 241.515 189.808 241.54 198.983C241.412 205.427 241.284 211.871 241.157 218.315C239.436 215.198 236.78 212.254 236.165 208.932C234.243 198.555 233.092 188.035 231.543 176.854C226.764 184.195 222.56 190.651 218.356 197.107L218.406 196.989C217.742 197.941 217.078 198.894 216.414 199.846L216.569 200.579C207.315 210.553 198.062 220.528 188.808 230.502L188.917 230.39C188.198 229.715 187.479 229.041 186.76 228.366C185.651 228.502 184.542 228.639 183.433 228.775C182.361 224.512 181.29 220.25 180.219 215.987C181.599 206.107 182.802 196.198 184.405 186.354C186.173 175.495 187.678 164.349 200.538 160.132C201.204 159.913 201.098 157.342 201.351 155.867Z" fill="#7A694C"/>
<path d="M214.463 460.611C215.754 460.617 217.11 460.365 218.324 460.674C223.34 461.952 229.756 464.384 230.908 457.279C231.446 453.962 226.631 449.095 223.263 445.995C218.88 441.961 213.523 438.987 208.586 435.556C211.3 418.657 219.129 406.382 237.47 403.611C242.16 404.392 246.849 405.172 251.538 405.951C252.829 406.617 254.12 407.283 255.411 407.949C256.014 408.645 256.617 409.342 257.22 410.039C257.251 413.949 257.281 417.859 257.312 421.769C255.419 437.617 250.871 453.693 261.327 468.48C266.988 479.494 273.119 490.042 286.263 493.639C286.407 494.922 286.552 496.205 286.696 497.488C286.703 498.193 286.711 498.898 286.718 499.603C281.145 496.41 275.46 493.392 270.045 489.95C267.237 488.166 264.907 485.631 260.208 481.579C260.738 486.455 260.949 488.393 261.16 490.331C252.116 499.531 236.841 500.029 227.541 490.813C219.269 482.615 214.504 472.547 214.463 460.611ZM229.978 438.414C232.686 441.136 234.582 443.041 236.477 444.947C238.22 442.894 241.642 440.519 241.324 438.86C240.811 436.184 237.836 433.979 235.9 431.576C234.281 433.445 232.662 435.314 229.978 438.414Z" fill="#7A694C"/>
<path d="M411.588 390.341C422.783 387.852 433.899 383.9 445.195 383.293C456.162 382.703 467.393 385.122 478.327 387.178C481.093 387.698 483.172 391.873 485.57 394.368C485.719 395.668 485.865 396.969 486.011 398.27L486.021 398.236C484.679 398.856 483.336 399.476 481.994 400.096C470.757 395.983 457.292 397.284 452.933 404.604C462.887 403.672 471.484 402.867 480.081 402.062C480.87 403.564 481.659 405.066 482.448 406.568L482.232 407.25C477.78 408.092 473.314 408.865 468.882 409.801C466.092 410.39 463.354 411.223 460.593 411.947C460.1 417.236 459.607 422.525 459.113 427.815C459.013 428.362 458.818 428.873 458.528 429.349C457.11 430.397 455.316 431.178 454.348 432.544C451.948 435.932 449.926 439.587 447.753 443.135C446.8 443.796 445.848 444.456 444.896 445.117L444.948 445.086C431.777 446.919 421.521 439.204 410.264 434.644C404.11 432.151 401.166 428.638 401.713 421.487C402.457 411.78 401.972 401.978 402.014 392.218C405.205 391.592 408.397 390.967 411.588 390.341Z" fill="#7A694C"/>
<path d="M515.57 162.204C523.323 179.981 525.468 198.725 524.754 217.864C524.647 220.741 522.625 223.546 521.488 226.385C513.896 218.656 505.523 211.535 498.919 203.039C491.226 193.142 485.08 182.042 478.263 171.463C473.636 168.198 469.009 164.934 464.383 161.671C464.407 157.158 464.43 152.643 464.454 148.128C466.4 148.032 468.347 147.935 470.293 147.839C486.279 149.809 504.593 144.444 515.57 162.204Z" fill="#C8B478"/>
<path d="M435.255 52.269C427.352 32.424 413.857 17.41 395.749 6.31503C394.229 5.38403 393.19 3.66902 391.926 2.32202C399.815 4.58502 407.705 6.84403 415.595 9.10503C416.303 10.164 416.786 11.533 417.752 12.233C437.624 26.62 451.731 46.099 462.587 67.397C470.873 83.653 475.673 101.686 482.024 118.928C481.344 119.045 480.664 119.161 479.984 119.278C467.019 117.042 454.053 114.807 441.088 112.571C442.348 110.514 444.849 108.333 444.659 106.42C443.693 96.703 442.028 87.055 440.611 77.386C442.078 76.256 443.543 75.124 445.008 73.991L444.887 74.079C445.581 73.384 446.275 72.688 446.969 71.993L446.867 72.123C446.862 68.177 446.857 64.231 446.852 60.285C443.666 58.895 440.48 57.504 437.294 56.114C437.277 55.588 437.24 55.063 437.181 54.538C436.538 53.78 435.896 53.024 435.255 52.269Z" fill="#DED099"/>
<path d="M148.571 463.419C148.103 465.938 147.594 468.45 147.174 470.977C142.89 496.767 130.461 497.437 108.912 488.207C93.3912 480.088 87.7302 467.837 93.2352 450.877C93.4232 450.297 93.2523 449.599 93.2483 448.957C95.8753 448.949 98.5032 448.942 101.13 448.935C105.913 451.49 110.473 454.701 115.54 456.414C120.561 458.112 125.108 456.804 126.311 450.336C129.535 433.008 132.882 415.704 136.18 398.39C136.84 398.366 137.5 398.342 138.16 398.318L138.13 398.238C139.468 398.864 140.807 399.491 142.145 400.118C143.496 401.445 144.847 402.772 146.198 404.099C142.253 415.369 138.131 426.58 134.406 437.922C129.328 453.382 129.465 453.409 143.61 460.433C145.333 461.288 146.921 462.417 148.571 463.419Z" fill="#A09465"/>
<path d="M313.981 105.212C283.556 98.46 259.063 81.802 238.266 59.286C236.184 57.032 236.337 52.714 235.453 49.354C245.645 35.081 258.443 23.991 274.748 17.187C275.461 19.541 276.6 21.857 276.811 24.255C277.685 34.182 278.278 44.134 278.974 54.079C276.395 54.197 273.113 53.349 271.375 54.616C266.99 57.816 261.097 61.455 260.061 65.908C259.292 69.212 264.482 76.407 268.322 77.574C272.169 78.743 277.864 74.998 282.285 72.564C284.211 71.503 284.979 68.339 286.273 66.13C289.749 68.148 293.224 70.167 298.642 73.313C293.604 75.423 291.443 76.328 289.067 77.323C297.646 86.927 305.813 96.07 313.981 105.212Z" fill="#897A50"/>
<path d="M475.485 653.904C472.614 654.995 469.755 656.993 466.869 657.033C444.462 657.345 422.049 657.394 399.641 657.179C396.925 657.153 394.229 655.075 391.523 653.948C391.79 651.332 392.058 648.715 392.325 646.099C392.33 636.407 392.336 626.714 392.342 617.022C392.248 615.692 392.154 614.363 392.06 613.033C395.566 612.615 399.076 611.815 402.578 611.853C412.44 611.962 422.297 612.415 432.156 612.733C437.001 612.868 441.847 613.004 446.693 613.139C433.845 619.986 427.766 633.073 430.328 649.898C444.915 649.898 459.705 649.898 474.496 649.898C474.825 651.234 475.155 652.569 475.485 653.904Z" fill="#7A694C"/>
<path d="M146.201 404.098C144.85 402.771 143.499 401.444 142.148 400.117C140.81 399.491 139.471 398.864 138.133 398.237L138.163 398.316C132.265 384.619 120.542 376.718 108.817 368.819C107.488 366.74 106.406 364.445 104.795 362.614C74.2306 327.889 49.8796 289.044 28.6836 248.099C28.7416 247.237 28.7995 246.375 28.8575 245.513C30.6705 245.663 32.4835 245.813 34.2955 245.963C57.7935 279.815 81.2475 313.697 104.864 347.467C107.058 350.605 110.274 353.028 113.015 355.783C117.919 360.22 122.824 364.657 127.732 369.095C131.231 371.6 134.727 374.105 138.224 376.61C146.13 384.168 153.721 392.096 162.035 399.175C169.556 405.58 168.294 414.081 169.178 422.203C168.105 422.201 167.031 422.199 165.958 422.197C159.371 416.164 152.786 410.131 146.201 404.098Z" fill="#626147"/>
<path d="M445.542 556.675C447.524 572.478 449.506 588.282 451.601 604.978C445.025 605.74 440.026 606.32 435.027 606.899C434.424 607.043 433.821 607.188 433.219 607.332L433.356 607.244C424.209 607.801 415.062 608.359 405.915 608.918C404.628 595.567 403.099 582.231 402.227 568.851C402.01 565.525 404.003 559.087 404.832 559.111C415.046 559.413 425.937 554.542 435.362 562.184C437.973 573.976 440.584 585.768 443.194 597.56C443.746 597.446 444.298 597.333 444.851 597.219C442.817 583.017 440.784 568.815 438.75 554.613C440.119 553.27 441.488 551.926 442.857 550.583L442.876 550.585C443.764 552.616 444.653 554.646 445.542 556.675Z" fill="#7A694C"/>
<path d="M482.023 118.928C475.672 101.686 470.871 83.653 462.586 67.397C451.73 46.098 437.624 26.62 417.751 12.233C416.784 11.533 416.302 10.165 415.594 9.10498C452.698 22.378 477.078 48.516 491.5 84.553C494.601 92.303 496.928 100.363 499.611 108.282C499.907 113.587 500.203 118.889 500.53 124.752C494.071 122.718 488.047 120.823 482.023 118.928Z" fill="#C8B478"/>
<path d="M460.594 411.947C463.355 411.223 466.093 410.39 468.883 409.801C473.315 408.865 477.781 408.092 482.232 407.251C486.513 407.365 490.795 407.478 495.076 407.591C496.587 408.365 498.097 409.14 499.607 409.914C499.72 423.937 510.393 417.247 515.973 417.171C532.746 416.941 549.497 415.071 566.257 413.84C564.878 416.427 563.499 419.013 562.12 421.6C560.423 420.192 558.727 418.784 557.029 417.377C549.163 427.865 551.503 444.541 568.087 496.179C565.434 497.307 562.78 498.434 560.127 499.561C560.137 493.904 560.936 488.114 560.011 482.614C557.073 465.143 553.754 447.722 549.929 430.426C549.209 427.171 545.478 424.582 543.137 421.685C541.704 423.997 538.707 426.603 539.078 428.575C543.193 450.417 547.681 472.194 552.542 493.883C553.07 496.241 556.573 497.932 558.695 499.932C556.887 500.694 555.078 501.456 553.269 502.218C547.736 480.158 541.301 458.27 537.029 435.969C534.707 423.848 534.355 422.011 520.94 425.29C523.378 453.497 528.288 481.254 538.797 507.882C536.853 508.756 534.91 509.629 532.966 510.502C531.995 504.475 531.178 498.418 530.026 492.426C526.439 473.776 522.314 455.218 519.22 436.489C517.449 425.769 516.257 424.351 503.923 426.922C505.754 438.266 506.777 449.854 509.614 460.978C514.132 478.693 519.859 496.099 525.075 513.636C519.077 518.5 517.991 513.241 517.004 509.362C511.005 485.771 505.228 462.123 499.353 438.5C498.899 436.672 498.264 434.89 497.713 433.087C497.714 426.125 497.714 419.161 497.714 411.947C483.945 411.947 472.269 411.947 460.594 411.947Z" fill="#484234"/>
<path d="M564.263 279.94C566.709 279.359 569.155 278.778 571.793 278.152C571.793 274.171 571.793 270.334 571.793 266.558C591.782 261.57 591.782 261.57 594.604 275.219C599.188 274.827 603.978 274.791 608.622 273.948C621.26 271.654 621.704 271.844 624.379 284.917C624.138 285.112 623.662 285.413 623.694 285.484C623.909 285.96 624.233 286.386 624.522 286.828C624.652 288.107 624.783 289.385 624.913 290.664C625.023 291.269 625.134 291.875 625.245 292.48C625.552 295.161 625.86 297.842 626.167 300.523C606.943 300.512 587.719 300.373 568.497 300.536C556.213 300.64 556.215 300.841 556.215 287.634C556.215 285.372 556.215 283.109 556.215 280.847C557.478 280.763 558.742 280.679 560.005 280.595C561.424 280.378 562.844 280.159 564.263 279.94Z" fill="#4F4B3C"/>
<path d="M127.726 369.096C122.821 364.659 117.916 360.221 113.012 355.784C118.751 336.092 124.465 316.393 130.26 296.717C130.873 294.637 131.954 292.695 132.819 290.69C141.793 293.231 150.767 295.771 159.742 298.31C159.411 300.206 159.479 302.291 158.687 303.97C148.438 325.712 138.067 347.397 127.726 369.096Z" fill="#9E8957"/>
<path d="M146.199 404.098C152.784 410.131 159.369 416.164 165.954 422.197C164.446 426.371 162.937 430.546 161.468 434.611C175.074 445.163 175.235 449.804 162.365 468.507C157.918 466.867 153.243 465.144 148.569 463.42C146.92 462.418 145.332 461.288 143.609 460.433C129.464 453.409 129.327 453.382 134.405 437.922C138.132 426.579 142.254 415.368 146.199 404.098Z" fill="#484234"/>
<path d="M271.126 612.9C272.402 612.927 273.678 612.954 274.954 612.981C283.708 618.352 292.648 623.449 301.143 629.202C305.774 632.339 309.651 636.588 313.869 640.336C313.811 642.307 313.753 644.277 313.695 646.247C311.592 647.538 309.514 649.9 307.383 649.947C293.08 650.266 278.758 650.318 264.467 649.794C262.684 649.729 259.706 645.849 259.57 643.599C259.011 634.352 259.336 625.051 259.336 615.918C262.395 615.04 265.705 614.09 269.015 613.14C269.718 613.06 270.422 612.98 271.126 612.9Z" fill="#897A50"/>
<path d="M269.011 613.14C265.701 614.09 262.391 615.04 259.332 615.918C259.332 625.051 259.007 634.352 259.566 643.599C259.702 645.849 262.68 649.729 264.463 649.794C278.754 650.318 293.076 650.266 307.379 649.947C309.509 649.899 311.588 647.538 313.691 646.247C313.946 648.821 314.2 651.394 314.454 653.968C312.257 654.998 310.074 656.889 307.86 656.925C284.819 657.305 261.772 657.526 238.73 657.342C236.313 657.323 233.918 654.419 231.512 652.855C232.975 642.823 234.439 632.79 235.903 622.756C245.264 613.781 256.632 611.721 269.011 613.14Z" fill="#7A694C"/>
<path d="M806.188 286.894C805.201 297.302 796.439 289.192 792.526 292.631C786.278 292.86 780.03 293.089 773.782 293.318L773.312 292.953C774.548 274.632 775.783 256.311 777.004 238.18C793.615 234.158 795.514 235.215 798.723 250.564C800.701 260.026 802.369 269.553 804.177 279.051C804.589 280.341 805.003 281.631 805.415 282.922C805.673 284.247 805.93 285.571 806.188 286.894Z" fill="#574D3F"/>
<path d="M474.498 649.899C459.707 649.899 444.917 649.899 430.33 649.899C427.768 633.074 433.847 619.987 446.695 613.14C463.363 612.685 473.383 621.684 474.505 638.303C474.765 642.151 474.514 646.033 474.498 649.899Z" fill="#B2A167"/>
<path d="M415.557 325.82C416.204 341.274 417.192 356.729 417.126 372.179C417.116 374.472 412.137 376.743 409.459 379.022C407.722 378.332 405.984 377.644 404.245 376.956C395.869 364.374 394.837 349.638 392.061 335.413C390.769 328.316 389.476 321.219 388.184 314.122C397.308 318.022 406.433 321.921 415.557 325.82Z" fill="#626147"/>
<path d="M478.261 171.463C485.078 182.041 491.224 193.141 498.917 203.039C505.521 211.535 513.895 218.656 521.486 226.385C515.057 229.381 508.83 234.204 502.15 234.943C492.329 236.03 482.186 234.202 472.18 233.616C472.813 232.162 473.231 230.56 474.113 229.278C483.054 216.289 486.077 202.47 481.068 187.081C479.447 182.098 479.159 176.681 478.261 171.463Z" fill="#9E8957"/>
<path d="M538.798 507.881C528.288 481.253 523.378 453.496 520.941 425.289C534.356 422.01 534.709 423.847 537.031 435.968C541.303 458.27 547.737 480.157 553.271 502.217C548.447 504.106 543.622 505.994 538.798 507.881Z" fill="#574D3F"/>
<path d="M556.217 280.849C556.217 283.111 556.217 285.374 556.217 287.636C556.216 300.843 556.215 300.642 568.499 300.538C587.721 300.375 606.946 300.514 626.169 300.525C623.707 312.095 613.971 306.603 607.397 308.529C600.074 309.19 592.751 309.851 585.428 310.512C581.002 310.506 576.576 310.5 572.15 310.494C565.539 311.075 558.929 311.656 552.318 312.238C551.742 312.221 551.165 312.211 550.589 312.208C545.772 311.281 540.956 310.354 534.534 309.119C533.842 304.136 532.994 298.022 531.871 289.926C543.666 294.34 545.35 277.844 556.217 280.849Z" fill="#484234"/>
<path d="M437.559 497.967C438.737 506.915 439.915 515.863 441.094 524.812C432.61 526.846 424.125 528.879 415.641 530.913C412.369 530.924 409.097 530.935 405.826 530.946C403.392 522.213 400.958 513.48 399.125 506.903C411.336 501.52 422.264 496.702 433.192 491.884C434.647 493.912 436.103 495.939 437.559 497.967Z" fill="#7A694C"/>
<path d="M525.074 513.636C519.858 496.099 514.131 478.693 509.613 460.978C506.776 449.853 505.753 438.266 503.922 426.922C516.256 424.35 517.448 425.769 519.219 436.489C522.313 455.218 526.438 473.776 530.025 492.426C531.177 498.418 531.994 504.474 532.965 510.502C530.335 511.547 527.705 512.591 525.074 513.636Z" fill="#574D3F"/>
<path d="M437.559 497.967C436.103 495.939 434.647 493.912 433.191 491.884C429.92 479.469 426.649 467.054 423.379 454.641C423.432 454.186 423.469 453.728 423.49 453.269C423.015 447.965 425.63 447.019 430.507 447.152C435.299 447.282 440.133 445.838 444.949 445.085L444.897 445.116C445.85 444.455 446.802 443.795 447.754 443.134C449.928 439.586 451.95 435.931 454.349 432.543C455.317 431.177 457.111 430.396 458.529 429.348C461.751 438.932 465.136 448.506 460.29 458.577C454.075 458.578 447.859 458.578 440.771 458.578C442.57 469.105 439.843 480.66 450.783 487.948C446.375 491.288 441.967 494.628 437.559 497.967Z" fill="#9E8957"/>
<path d="M93.2459 448.957C93.2499 449.6 93.4218 450.297 93.2328 450.877C87.7268 467.837 93.3888 480.087 108.91 488.207C98.1128 485.132 87.1848 482.446 76.5568 478.869C66.7428 475.566 62.8589 467.517 62.8869 457.69C62.9149 447.733 67.3928 444.287 77.3848 444.099C80.2318 444.045 83.0218 440.99 85.8388 439.311C89.1028 441.916 85.1049 450.098 93.2459 448.957Z" fill="#897A50"/>
<path d="M34.2929 245.965C32.4799 245.815 30.6669 245.665 28.8549 245.518C27.7609 244.901 26.736 244.045 25.561 243.699C13.396 240.118 4.79495 233.565 4.74695 219.522C4.74295 218.324 3.82794 217.13 3.33594 215.934C14.2359 215.617 25.154 214.884 36.023 215.327C38.257 215.418 41.6309 219.627 42.2089 222.409C44.0999 231.513 41.4849 239.641 34.2929 245.965Z" fill="#A6A875"/>
<path d="M482.026 118.928C488.05 120.823 494.074 122.718 500.533 124.751C500.206 118.889 499.91 113.586 499.614 108.281C505.84 124.903 512.125 141.506 518.134 158.208C518.46 159.115 516.477 160.853 515.57 162.204C504.594 144.444 486.28 149.81 470.293 147.84C470.921 146.672 471.55 145.504 472.178 144.335C477.105 144.905 482.031 145.474 490.532 146.457C486.126 137.329 483.028 130.913 479.931 124.497C479.949 122.757 479.967 121.018 479.986 119.278C480.666 119.161 481.346 119.044 482.026 118.928Z" fill="#6E7052"/>
<path d="M93.2469 448.957C85.1049 450.098 89.1038 441.916 85.8398 439.312C91.5958 422.33 97.3519 405.347 103.108 388.366C106.355 389.617 109.603 390.867 112.85 392.118C112.332 395.287 111.94 398.482 111.275 401.62C107.932 417.4 104.518 433.165 101.129 448.936C98.5019 448.942 95.8749 448.949 93.2469 448.957Z" fill="#9E8957"/>
<path d="M888.444 284.821C887.725 284.86 887.006 284.899 886.287 284.938C878.408 286.233 870.497 287.36 862.657 288.859C846.423 291.962 830.226 295.263 814.014 298.483C804.009 298.32 809.41 292.165 809.905 287.918C835.598 283.167 861.292 278.416 887.897 273.497C888.14 278.532 888.292 281.676 888.444 284.821Z" fill="#6E7052"/>
<path d="M568.084 496.179C551.5 444.542 549.16 427.865 557.026 417.377C558.723 418.784 560.42 420.192 562.117 421.6C562.807 422.269 563.497 422.938 564.187 423.607C568.072 446.76 571.957 469.913 576.027 494.17C574.053 494.669 571.069 495.424 568.084 496.179Z" fill="#574D3F"/>
<path d="M558.695 499.932C556.572 497.932 553.07 496.241 552.542 493.883C547.681 472.194 543.193 450.417 539.078 428.575C538.707 426.603 541.704 423.997 543.137 421.685C545.479 424.581 549.209 427.17 549.929 430.426C553.755 447.722 557.073 465.143 560.011 482.614C560.936 488.114 560.137 493.904 560.127 499.561L559.485 500.032L558.695 499.932Z" fill="#574D3F"/>
<path d="M405.823 530.945C409.095 530.934 412.367 530.923 415.638 530.913C414.441 533.993 413.246 537.073 412.05 540.153C414.936 541.005 417.775 542.256 420.721 542.607C424.247 543.028 428.284 543.712 431.361 542.464C438.938 539.39 449.4 545.117 454.535 534.908C454.535 537.688 454.535 540.467 454.535 543.247C453.953 542.84 453.371 542.433 452.79 542.026C450.104 544.84 447.418 547.655 444.732 550.47C444.114 550.512 443.495 550.551 442.876 550.588L442.857 550.585C440.71 548.679 438.37 544.956 436.444 545.159C422.1 546.668 407.714 548.35 393.599 551.24C385.929 552.81 379.213 553.021 372.688 548.549C372.538 547.283 372.388 546.016 372.238 544.75C376.292 542.095 380.046 538.656 384.469 536.965C391.349 534.333 398.682 532.891 405.823 530.945Z" fill="#484234"/>
<path d="M460.594 411.947C472.27 411.947 483.945 411.947 497.716 411.947C497.716 419.161 497.716 426.124 497.715 433.087C484.847 431.329 471.98 429.572 459.113 427.815C459.607 422.526 460.1 417.237 460.594 411.947Z" fill="#E6A988"/>
<path d="M625.312 390.064C625.734 388.902 626.154 387.741 626.574 386.578C636.258 385.238 645.944 383.899 655.629 382.56C660.164 404.037 660.163 404.037 639.287 406.813C626.001 408.58 626.014 408.58 625.763 394.869C625.733 393.265 625.469 391.666 625.312 390.064Z" fill="#4F4B3C"/>
<path d="M478.259 171.463C479.157 176.681 479.445 182.098 481.067 187.081C486.077 202.47 483.053 216.288 474.112 229.278C473.23 230.56 472.812 232.162 472.179 233.616C470.28 233.711 468.381 233.807 466.483 233.903C466.83 231.57 467.175 229.237 467.514 226.902C476.457 205.368 470.985 184.543 464.411 163.772C464.4 163.071 464.39 162.37 464.379 161.67C469.006 164.934 473.633 168.198 478.259 171.463Z" fill="#7A694C"/>
<path d="M180.22 215.986C181.291 220.249 182.363 224.511 183.434 228.774C177.373 249.458 171.312 270.142 165.25 290.826C162.637 289.707 160.023 288.588 157.41 287.468C165.014 263.641 172.617 239.814 180.22 215.986Z" fill="#6E7052"/>
<path d="M594.757 367.181C601.43 374.258 608.103 381.335 614.776 388.412C607.855 393.647 600.934 398.881 594.009 404.116C590.947 399.081 587.06 394.364 584.99 388.952C579.268 373.994 579.954 373.03 594.757 367.181Z" fill="#FADCB2"/>
<path d="M329.745 302.006C346.633 302.168 363.521 302.331 380.409 302.493C381.81 305.73 383.211 308.966 384.612 312.202C384.488 312.853 384.363 313.504 384.239 314.155C363.443 314.098 342.647 314.042 321.851 313.985C321.207 312.826 320.562 311.666 319.918 310.507C322.133 307.889 324.348 305.271 326.563 302.653C327.623 302.437 328.684 302.221 329.745 302.006Z" fill="#484234"/>
<path d="M655.626 382.56C645.941 383.899 636.256 385.237 626.572 386.578C617.512 385.971 621.444 376.415 616.973 372.645C627.256 375.001 630.215 372.89 630.371 362.921C630.482 355.782 630.449 348.641 630.479 341.5C631.733 341.489 632.987 341.478 634.242 341.467C634.284 347.923 634.278 354.379 634.376 360.834C634.529 370.858 636.13 371.951 645.932 368.887C646.683 368.877 647.434 368.866 648.183 368.856C652.046 368.876 655.911 368.896 659.777 368.916C659.128 371.588 658.478 374.26 657.829 376.932C657.094 378.808 656.36 380.684 655.626 382.56Z" fill="#6E7052"/>
<path d="M454.536 534.908C449.401 545.118 438.938 539.39 431.362 542.464C428.285 543.713 424.248 543.028 420.722 542.607C417.776 542.255 414.937 541.005 412.051 540.153C413.247 537.073 414.442 533.994 415.639 530.913C424.124 528.879 432.608 526.845 441.093 524.811C441.726 525.016 442.359 525.22 442.992 525.425C443.607 525.415 444.221 525.405 444.836 525.395C447.472 526.05 450.108 526.704 452.744 527.359C453.325 527.906 453.905 528.453 454.485 529C454.501 530.969 454.518 532.938 454.536 534.908Z" fill="#574D3F"/>
<path d="M564.187 423.607C563.497 422.938 562.807 422.269 562.117 421.6C563.496 419.013 564.875 416.427 566.254 413.84C566.725 409.902 567.196 405.965 567.667 402.028C568.456 389.83 569.245 377.631 570.034 365.433L570.893 365.348L571.733 365.548C572.619 369.62 573.569 373.68 574.38 377.767C576.817 390.041 579.199 402.326 581.603 414.607C575.798 417.607 569.993 420.607 564.187 423.607Z" fill="#FBEDBD"/>
<path d="M112.851 392.117C109.604 390.867 106.356 389.616 103.109 388.365C105.011 381.85 106.913 375.335 108.814 368.82C120.539 376.719 132.262 384.62 138.16 398.317C137.5 398.341 136.84 398.365 136.18 398.389C128.403 396.298 120.627 394.208 112.851 392.117Z" fill="#484234"/>
<path d="M157.41 287.469C160.023 288.588 162.637 289.707 165.25 290.826C172.989 292.125 180.803 293.103 188.437 294.859C192.286 295.744 199.704 293.866 196.84 302.531C188.354 301.888 179.868 301.245 171.382 300.602C167.502 299.838 163.622 299.074 159.742 298.31C150.768 295.77 141.794 293.231 132.819 290.69C131.674 283.395 134.564 282.298 141.095 284.472C146.291 286.201 151.955 286.522 157.41 287.469Z" fill="#4F4B3C"/>
<path d="M581.605 414.607C579.201 402.326 576.819 390.041 574.382 377.767C573.571 373.68 572.621 369.62 571.734 365.548C579.427 365.463 587.12 365.377 594.813 365.292C594.931 365.926 594.912 366.555 594.757 367.181C579.954 373.03 579.268 373.994 584.99 388.951C587.06 394.363 590.947 399.081 594.009 404.115C589.877 407.613 585.741 411.11 581.605 414.607Z" fill="#E6A988"/>
<path d="M450.781 487.949C439.841 480.661 442.57 469.106 440.77 458.579C447.858 458.579 454.073 458.579 460.288 458.578C457.119 468.368 453.95 478.159 450.781 487.949Z" fill="#C8B478"/>
<path d="M405.915 608.917C415.062 608.36 424.208 607.802 433.355 607.245C432.966 609.079 432.577 610.913 432.172 612.74C422.297 612.416 412.439 611.962 402.578 611.854C399.077 611.815 395.567 612.616 392.06 613.034C388.285 612.701 384.509 612.368 379.971 611.968C377.698 594.118 375.423 576.249 373.148 558.38C374.262 559.736 376.108 560.966 376.368 562.47C377.852 571.043 378.839 579.7 380.214 588.293C383.607 609.488 383.654 609.481 405.915 608.917Z" fill="#574D3F"/>
<path d="M384.238 314.155C384.362 313.504 384.487 312.853 384.611 312.202C385.293 312.277 385.975 312.352 386.657 312.427C387.221 313.034 387.785 313.64 388.349 314.247L388.179 314.121C389.471 321.219 390.764 328.316 392.056 335.412C390.15 336.211 388.244 337.009 386.339 337.808C380.589 337.637 374.838 337.466 369.088 337.296C369.07 334.276 369.053 331.256 369.035 328.235C372.453 327.226 375.904 326.317 379.28 325.184C384.837 323.321 387.457 320.019 384.238 314.155Z" fill="#E8E8EB"/>
<path d="M3.33909 215.933C3.83109 217.129 4.7451 218.323 4.7501 219.521C4.7981 233.564 13.3981 240.118 25.5641 243.698C26.7391 244.044 27.7641 244.9 28.8581 245.517C28.7991 246.376 28.7411 247.239 28.6831 248.1C26.4591 247.892 24.2371 247.534 22.0111 247.501C2.69808 247.22 -5.01091 234.214 3.33909 215.933Z" fill="#7A694C"/>
<path d="M442.879 550.587C443.498 550.551 444.116 550.511 444.735 550.469C445.004 552.536 445.272 554.603 445.543 556.673C444.656 554.646 443.767 552.616 442.879 550.587Z" fill="#626147"/>
<path d="M624.525 286.83C624.236 286.388 623.912 285.961 623.697 285.486C623.665 285.415 624.141 285.114 624.382 284.919C624.429 285.555 624.477 286.192 624.525 286.83Z" fill="#484234"/>
<path d="M625.246 292.482C625.136 291.877 625.025 291.271 624.914 290.666C625.025 291.271 625.135 291.877 625.246 292.482Z" fill="#484234"/>
<path d="M433.219 607.333C433.822 607.189 434.425 607.044 435.027 606.9C434.442 607.115 433.839 607.259 433.219 607.333Z" fill="#574D3F"/>
<path d="M444.836 525.395C444.221 525.405 443.607 525.415 442.992 525.425C443.602 525.105 444.216 525.094 444.836 525.395Z" fill="#484234"/>
<path d="M212.681 91.6309C212.461 92.1839 212.241 92.7379 212.02 93.2909C212.043 92.6599 212.264 92.1059 212.681 91.6309Z" fill="#4F4B3C"/>
<path d="M404.242 376.956C405.981 377.644 407.719 378.331 409.456 379.022C410.166 382.797 410.877 386.57 411.588 390.342C408.396 390.967 405.203 391.592 402.01 392.218C394.958 392.238 387.908 392.256 380.856 392.275C361.833 392.837 342.812 393.581 323.785 393.778C320.654 393.811 317.497 391.444 314.352 390.186C321.261 391.383 325.703 388.383 330.005 382.948C332.864 379.335 338.104 375.458 342.309 375.423C362.948 375.249 383.596 376.323 404.242 376.956Z" fill="#9E8957"/>
<path d="M567.668 402.028C567.197 405.965 566.726 409.903 566.255 413.84C549.495 415.071 532.745 416.942 515.972 417.171C510.393 417.247 499.718 423.937 499.605 409.914C516.843 407.741 534.074 405.514 551.322 403.425C556.748 402.768 562.218 402.483 567.668 402.028Z" fill="#626147"/>
<path d="M594.812 365.292C587.119 365.377 579.425 365.463 571.733 365.548L570.894 365.348L570.035 365.433C569.332 362.651 568.629 359.869 567.926 357.088C568.961 356.285 569.997 355.481 571.032 354.678C570.003 354.177 568.974 353.676 567.945 353.175C573.139 351.906 578.333 350.637 583.527 349.368C583.52 353.219 581.237 359.005 587.929 358.668C599.357 358.092 589.329 347.421 595.704 342.964C591.036 358.283 600.008 360.859 611.82 361.629C606.15 362.85 600.481 364.071 594.812 365.292Z" fill="#484234"/>
<path d="M461.526 351.178C458.277 351.178 454.955 351.585 451.808 351.016C450.079 350.703 448.648 348.747 447.082 347.532C448.559 346.251 449.964 343.976 451.526 343.863C457.994 343.395 464.53 343.282 470.994 343.722C472.755 343.842 474.355 346.347 476.029 347.757C474.444 348.924 472.981 350.803 471.246 351.103C468.092 351.649 464.775 351.258 461.526 351.258C461.526 351.231 461.526 351.205 461.526 351.178Z" fill="#A6A875"/>
<path d="M560.232 341.964C536.066 341.964 511.899 341.964 487.733 341.964C487.707 341.575 487.681 341.185 487.656 340.796C511.831 340.796 536.006 340.796 560.181 340.796C560.198 341.186 560.215 341.575 560.232 341.964Z" fill="#767E60"/>
<path d="M495.074 407.591C490.792 407.478 486.51 407.365 482.23 407.251L482.448 406.566C483.639 403.788 484.83 401.012 486.021 398.236L486.011 398.27C487.384 396.331 488.757 394.392 490.131 392.453L489.984 392.521C491.282 389.96 492.581 387.4 493.88 384.84C494.278 392.424 494.676 400.008 495.074 407.591Z" fill="#E6A988"/>
<path d="M552.316 312.237C558.927 311.656 565.537 311.075 572.148 310.493C571.998 311.106 571.794 311.702 571.538 312.279C569.341 320.131 563.236 321.248 556.799 319.638C554.812 319.141 553.784 314.812 552.316 312.237Z" fill="#6E7052"/>
<path d="M571.539 312.28C571.795 311.703 571.999 311.107 572.149 310.494C576.575 310.5 581.001 310.506 585.427 310.512C584.688 312.654 583.95 314.795 583.211 316.937C578.831 316.611 572.292 321.695 571.539 312.28Z" fill="#E8E8EB"/>
<path d="M493.88 384.841C492.581 387.401 491.282 389.961 489.984 392.522C489.985 387.117 489.985 381.711 489.985 376.306C491.132 376.293 492.279 376.28 493.426 376.267C493.578 379.125 493.729 381.983 493.88 384.841Z" fill="#484234"/>
<path d="M567.945 353.175C568.974 353.676 570.003 354.177 571.032 354.678C569.997 355.482 568.961 356.285 567.926 357.088C567.932 355.783 567.939 354.479 567.945 353.175Z" fill="#5A5642"/>
<path d="M490.13 392.454C488.757 394.393 487.384 396.332 486.011 398.271C485.865 396.97 485.719 395.669 485.57 394.369C487.088 393.731 488.609 393.092 490.13 392.454Z" fill="#484234"/>
<path d="M808.19 319.967C812.143 324.538 816.096 329.108 820.05 333.679C820.333 374.618 783.742 412.917 742.136 415.718C707.662 418.038 673.194 396.964 667.98 369.888C677.658 369.888 687.238 369.888 696.818 369.888C727.002 370.89 757.187 371.893 788.601 372.936C788.601 368.531 788.601 364.806 788.601 361.081C789.208 356.784 789.814 352.486 790.57 347.132C782.756 347.132 776.332 347.132 769.907 347.132C770.954 342.057 772.001 336.982 773.048 331.908C780.094 331.908 787.141 331.908 794.591 331.908C794.289 327.908 794.032 324.491 793.69 319.967C798.729 319.967 803.459 319.967 808.19 319.967Z" fill="#FDFDFD"/>
<path d="M769.908 347.132C776.332 347.132 782.757 347.132 790.571 347.132C789.815 352.487 789.209 356.784 788.602 361.081C757.056 360.249 725.509 359.416 693.473 358.571C694.214 353.127 694.599 350.297 694.983 347.466C717.706 347.412 740.43 347.36 763.154 347.307C765.405 347.248 767.657 347.19 769.908 347.132Z" fill="#767E60"/>
<path d="M808.189 319.967C803.458 319.967 798.728 319.967 793.689 319.967C794.03 324.491 794.288 327.907 794.59 331.908C787.14 331.908 780.094 331.908 773.047 331.908C773.289 319.043 773.531 306.177 773.778 293.315C780.031 293.09 786.279 292.861 792.527 292.632C792.527 298.08 792.527 303.53 792.527 309.424C799.514 310.305 805.428 311.051 812.896 311.993C811.107 315.024 809.648 317.496 808.189 319.967Z" fill="#484234"/>
<path d="M630.479 341.5C630.448 348.64 630.482 355.782 630.371 362.921C630.215 372.89 627.256 375.001 616.973 372.645C617.583 362.681 617.737 352.655 619.105 342.798C619.465 340.201 623.577 338.125 625.967 335.809C627.47 337.706 628.974 339.603 630.479 341.5Z" fill="#8B805C"/>
<path d="M659.778 368.916C655.913 368.896 652.048 368.876 648.184 368.856C648.186 356.413 648.186 343.971 648.186 331.529C649.041 330.861 649.896 330.193 650.751 329.526C654.364 333.518 657.976 337.511 661.588 341.503C660.984 350.64 660.381 359.778 659.778 368.916Z" fill="#8B805C"/>
<path d="M645.934 368.886C636.132 371.95 634.531 370.857 634.378 360.833C634.28 354.379 634.285 347.922 634.244 341.466C633.376 333.518 636.026 329.666 645.934 333.043C645.934 344.685 645.934 356.786 645.934 368.886Z" fill="#8B805C"/>
<path d="M763.153 347.307C740.429 347.36 717.705 347.413 694.982 347.466C690.532 347.467 686.081 347.467 681.63 347.467C681.617 346.771 681.604 346.076 681.59 345.38C690.225 345.38 698.859 345.38 707.903 345.38C707.109 335.991 706.418 327.823 705.727 319.654C706.247 319.531 706.767 319.408 707.287 319.284C708.535 327.591 709.783 335.898 711.218 345.449C725.411 345.449 739.235 345.331 753.054 345.534C756.428 345.583 759.787 346.687 763.153 347.307Z" fill="#484234"/>
<path d="M704.926 311.912C704.926 310.166 704.926 308.42 704.926 306.674C705.303 306.654 705.681 306.634 706.058 306.614C706.173 308.484 706.287 310.354 706.402 312.225C705.91 312.12 705.418 312.016 704.926 311.912Z" fill="#484234"/>
<path d="M329.746 302.006C328.685 302.222 327.625 302.437 326.564 302.653C304.253 298.291 283.005 291.061 268.13 272.945C258.836 261.625 251.846 248.413 243.822 236.049C242.933 230.138 242.045 224.227 241.156 218.316C241.284 211.872 241.412 205.428 241.54 198.984C245.354 194.959 248.669 190.252 253.074 187.039C265.527 177.956 279.019 180.406 292.451 184.771C278.01 189.958 273.28 205.607 283.295 215.369C289.549 221.465 297.01 222.695 304.823 219.092C312.94 215.349 315.803 208.255 314.715 199.758C313.521 190.434 307.497 185.659 298.484 184.266C298.471 183.146 298.457 182.026 298.443 180.906C304.072 180.888 309.701 180.87 315.33 180.852C328.574 181.147 341.818 181.443 355.062 181.738C355.053 195.337 355.262 208.941 354.986 222.535C354.508 246.093 353.594 269.642 353.18 293.201C353.085 298.588 351.376 300.692 345.869 300.625C340.503 300.558 335.121 301.504 329.746 302.006Z" fill="#FADCB2"/>
<path d="M355.063 181.736C341.819 181.441 328.575 181.145 315.332 180.85C319.723 172.329 316.799 166.734 308.476 162.978C305.617 161.688 303.099 159.642 300.426 157.941C318.542 157.852 336.657 157.763 354.773 157.673C371.365 158.459 387.956 159.244 404.548 160.03C397.624 165.654 390.745 171.292 398.124 181.247C394.835 181.897 391.546 182.546 388.257 183.195C377.192 182.71 366.127 182.223 355.063 181.736Z" fill="#E6A988"/>
<path d="M464.411 163.771C470.986 184.542 476.457 205.367 467.515 226.901C464.246 217.802 461.03 208.68 457.682 199.607C452.527 185.642 441.269 181.713 427.722 181.315C422.966 181.176 418.232 180.304 413.488 179.767C417.314 178.03 421.302 176.578 424.928 174.493C430.72 171.162 437.518 168.439 437.084 159.851C446.191 161.158 455.301 162.465 464.411 163.771Z" fill="#E6A988"/>
<path d="M404.238 191.573C410.915 184.169 418.683 180.928 428.41 185.288C435.239 188.349 438.855 193.513 439.152 201.118C439.457 208.92 437.235 216.448 429.66 218.353C423.501 219.902 414.696 219.664 410.091 216.197C405.52 212.756 404.444 204.381 402.465 197.975C401.913 196.189 403.596 193.713 404.252 191.551C404.25 191.549 403.845 191.221 403.845 191.221L404.238 191.573Z" fill="#5A5642"/>
<path d="M437.081 159.851C437.515 168.44 430.717 171.162 424.925 174.493C421.3 176.578 417.311 178.03 413.485 179.767C409.666 180.792 405.848 181.816 402.029 182.841C400.726 182.31 399.424 181.779 398.121 181.247C390.742 171.292 397.621 165.654 404.541 160.029C415.386 159.97 426.234 159.911 437.081 159.851Z" fill="#7A694C"/>
<path d="M398.122 181.248C399.425 181.779 400.727 182.311 402.03 182.842C402.764 185.751 403.498 188.66 404.234 191.572C404.236 191.574 403.842 191.224 403.842 191.224C403.842 191.224 404.247 191.552 404.249 191.554C398.645 189.293 389.839 193.159 388.254 183.198C391.544 182.547 394.833 181.898 398.122 181.248Z" fill="#FADCB2"/>
<path d="M479.985 119.277C479.967 121.017 479.949 122.756 479.931 124.499C451.804 120.005 423.675 115.509 394.17 110.792C394.17 117.449 394.65 122.925 394.051 128.28C393.263 135.327 397.245 137.605 402.913 138.139C425.991 140.316 449.087 142.287 472.177 144.334C471.549 145.503 470.92 146.671 470.292 147.839C468.346 147.934 466.4 148.031 464.453 148.127C459.248 148.021 453.992 148.346 448.849 147.726C435.24 146.085 421.712 143.751 408.092 142.226C393.695 140.613 379.229 139.615 364.793 138.349C356.82 135.921 349.663 131.87 340.247 134.081C329.663 136.566 327.825 133.942 327.733 123.139C327.68 116.985 327.704 110.831 327.695 104.673C336.864 103.467 346.031 102.265 355.2 101.063C364.194 102.374 373.188 103.686 382.183 104.999C372.994 104.56 363.805 104.119 354.559 103.676C355.955 130.929 355.955 130.929 382.339 130.665C383.009 130.677 383.679 130.689 384.349 130.701C385.452 133.278 386.555 135.855 387.657 138.432C389.107 137.424 390.557 136.416 392.006 135.408C392.006 125.678 392.006 115.948 392.006 106.219C408.366 108.337 424.727 110.455 441.088 112.572C454.054 114.806 467.019 117.042 479.985 119.277ZM381.845 135.69C382.115 135.783 382.387 135.941 382.654 135.934C382.745 135.931 382.824 135.511 382.908 135.282C382.638 135.189 382.366 135.031 382.099 135.039C382.008 135.04 381.929 135.46 381.845 135.69Z" fill="#626147"/>
<path d="M382.339 130.665C355.955 130.928 355.955 130.928 354.559 103.676C363.805 104.119 372.995 104.559 382.183 104.999C382.235 113.553 382.287 122.109 382.339 130.665Z" fill="#8C946E"/>
<path d="M437.295 56.113C440.481 57.503 443.667 58.894 446.853 60.284C446.858 64.23 446.863 68.176 446.868 72.122L446.969 71.993C446.275 72.688 445.581 73.384 444.888 74.079L445.008 73.991C439.093 73.337 433.178 72.683 427.264 72.029L427.283 72.037C426.625 71.379 425.966 70.72 425.308 70.062L425.316 70.08C424.68 66.076 424.043 62.073 423.406 58.069C428.035 57.417 432.665 56.765 437.295 56.113Z" fill="#B2A167"/>
<path d="M392.005 106.218C392.005 115.948 392.005 125.678 392.005 135.407C390.555 136.415 389.105 137.423 387.656 138.431C386.553 135.854 385.45 133.277 384.348 130.7C384.348 121.98 384.348 113.26 384.348 103.21C387.59 104.484 389.797 105.351 392.005 106.218Z" fill="#8B805C"/>
<path d="M427.262 72.0281C433.177 72.6821 439.091 73.3361 445.006 73.9901C443.542 75.1231 442.077 76.2561 440.609 77.3851C436.159 75.5981 431.711 73.8131 427.262 72.0281Z" fill="#897A50"/>
<path d="M423.406 58.0691C424.042 62.0731 424.679 66.0761 425.316 70.0801C420.185 66.7901 419.912 62.7291 423.406 58.0691Z" fill="#897A50"/>
<path d="M435.254 52.269C435.896 53.025 436.538 53.78 437.18 54.537C436.539 53.782 435.897 53.025 435.254 52.269Z" fill="#B2A167"/>
<path d="M286.277 66.1309C284.983 68.3399 284.215 71.5049 282.289 72.5649C277.868 74.9989 272.173 78.7429 268.326 77.5749C264.485 76.4079 259.296 69.2129 260.065 65.9089C261.101 61.4559 266.994 57.8159 271.379 54.6169C273.117 53.3489 276.399 54.1969 278.978 54.0799C281.411 58.0939 283.844 62.1119 286.277 66.1309Z" fill="#574D3F"/>
<path d="M310.117 109.097C311.408 107.808 312.698 106.519 313.989 105.23C315.318 105.956 316.647 106.682 317.977 107.41C315.357 107.974 312.737 108.536 310.117 109.097Z" fill="#897A50"/>
<path d="M372.238 544.748C370.963 537.819 369.687 530.89 368.298 523.338C358.257 523.338 348.088 523.338 337.799 523.338C334.419 547.98 331.2 572.267 327.667 596.508C326.959 601.368 325.049 606.052 323.693 610.818C316.086 610.23 308.47 609.098 300.873 609.211C293.537 609.319 290.122 607.163 290.471 599.256C290.954 588.296 290.592 577.299 290.592 564.845C299.439 567.217 307.282 569.867 315.344 571.259C319.612 571.996 325.996 575.46 327.658 567.056C329.126 559.629 324.561 557.502 318.562 556.434C311.595 555.194 304.689 552.976 297.694 552.685C288.543 552.305 287.458 547.995 289.607 540.606C290.315 538.169 290.294 535.52 290.606 532.967C300.519 534.947 310.433 536.928 323.111 539.461C321.105 523.227 319.353 509.049 317.601 494.871C318.643 493.242 319.686 491.614 320.728 489.985C321.327 489.731 321.719 489.291 321.903 488.664C323.214 486.502 324.525 484.34 325.835 482.179L325.809 482.258L326.753 482.312L327.684 482.142C327.736 482.71 327.751 483.278 327.73 483.848C331.815 488.741 348.672 489.882 358.6 485.586C357.059 484.883 355.984 484.392 354.908 483.901C354.304 470.947 353.699 457.994 353.095 445.041C357.9 444.383 362.706 443.725 367.504 443.068C365.215 448.932 362.932 454.796 360.65 460.659C360.212 464.046 358.772 467.672 359.513 470.778C362.543 483.494 370.009 492.787 382.499 497.578C393.081 502.852 401.552 497.856 409.837 491.957L409.732 492.031C410.417 491.346 411.102 490.662 411.786 489.977L411.694 490.071C412.38 489.385 413.065 488.7 413.751 488.014L413.67 488.128C414.648 486.801 415.626 485.475 416.604 484.148C418.148 481.443 419.691 478.738 421.235 476.034C421.926 469.629 422.617 463.224 423.308 456.818C423.331 456.091 423.354 455.364 423.378 454.637C426.649 467.052 429.919 479.467 433.19 491.882C422.262 496.699 411.334 501.517 399.123 506.9C400.956 513.477 403.39 522.21 405.824 530.943C398.683 532.888 391.35 534.33 384.471 536.961C380.046 538.654 376.292 542.093 372.238 544.748Z" fill="#626147"/>
<path d="M317.6 494.872C319.352 509.05 321.104 523.228 323.11 539.462C310.432 536.929 300.518 534.948 290.605 532.968C291.385 524.482 292.164 515.995 292.958 507.35C296.136 506.061 299.218 504.811 302.3 503.561C307.401 500.664 312.5 497.768 317.6 494.872Z" fill="#574D3F"/>
<path d="M314.554 611.337C314.325 621.003 314.097 630.669 313.868 640.335C309.651 636.587 305.774 632.338 301.142 629.201C292.647 623.448 283.707 618.35 274.953 612.98C288.153 612.433 301.354 611.885 314.554 611.337Z" fill="#7A694C"/>
<path d="M317.601 494.872C312.501 497.768 307.401 500.665 302.3 503.561C297.105 502.241 291.911 500.922 286.717 499.603C286.71 498.898 286.703 498.193 286.695 497.489C290.533 497.545 294.372 497.6 298.211 497.654C302.608 496.311 307.034 495.056 311.391 493.594C314.551 492.534 317.62 491.199 320.729 489.986C319.685 491.614 318.643 493.243 317.601 494.872Z" fill="#BCA877"/>
<path d="M364.794 138.349C379.23 139.616 393.696 140.614 408.093 142.226C421.713 143.752 435.241 146.085 448.85 147.726C453.993 148.346 459.249 148.021 464.454 148.127C464.431 152.642 464.407 157.157 464.383 161.67C464.393 162.369 464.404 163.07 464.415 163.771C455.305 162.464 446.195 161.158 437.085 159.851C426.237 159.91 415.39 159.97 404.546 160.03C387.958 159.245 371.367 158.459 354.777 157.675C354.907 151.301 355.034 144.926 355.162 138.55C358.372 138.484 361.583 138.416 364.794 138.349Z" fill="#BAA56D"/>
<path d="M355.163 138.551C355.035 144.927 354.908 151.302 354.778 157.676C336.661 157.763 318.545 157.853 300.429 157.942C293.246 157.939 286.064 157.935 278.882 157.932C278.881 154.036 278.88 150.14 278.879 146.245C304.306 143.68 329.734 141.115 355.163 138.551Z" fill="#897A50"/>
<path d="M274.893 146.307C274.294 146.32 273.696 146.332 273.098 146.346C273.696 146.28 274.294 146.267 274.893 146.307Z" fill="#897A50"/>
<path d="M814.012 298.483C830.224 295.263 846.42 291.963 862.655 288.859C870.495 287.36 878.406 286.233 886.285 284.938C883.85 286.94 881.674 290.163 878.938 290.744C862.312 294.274 845.551 297.164 828.855 300.371C826.433 300.836 823.886 301.464 821.799 302.697C816.563 305.791 814.841 303.138 814.012 298.483Z" fill="#574D3F"/>
<path d="M243.825 236.048C251.849 248.411 258.839 261.623 268.133 272.944C283.007 291.061 304.255 298.29 326.567 302.652C324.352 305.27 322.137 307.888 319.922 310.506C312.755 312.298 305.587 314.09 298.42 315.881C290.533 319.82 280.474 321.881 275.152 328.037C256.244 349.907 245.675 376.448 237.618 403.98L237.472 403.607C219.133 406.38 211.304 418.654 208.59 435.554C196.043 426.597 183.497 417.639 170.951 408.682C171.256 407.832 171.56 406.981 171.865 406.131C176.865 406.771 181.865 407.41 187.511 408.132C189.01 404.086 190.46 399.909 192.098 395.806C194.869 388.864 195.703 383.536 185.65 381.812C183.65 381.469 182.814 374.337 180.825 368.54C186.909 369.335 189.81 369.424 192.554 370.127C200.923 372.271 204.609 369.034 206.496 360.649C210.126 344.517 210.287 344.204 193.808 341.446C190.953 340.968 188.171 340.061 185.355 339.352C189.185 327.078 193.015 314.803 196.844 302.529C199.708 293.863 192.291 295.742 188.441 294.856C180.806 293.1 172.993 292.122 165.254 290.823C171.315 270.139 177.376 249.455 183.437 228.771C184.546 228.634 185.655 228.498 186.764 228.362C187.483 229.037 188.202 229.711 188.921 230.386L188.812 230.497C197.457 238.574 208.116 236.133 218.305 236.146C220.317 236.204 222.33 236.262 224.342 236.32C230.835 236.232 237.33 236.14 243.825 236.048Z" fill="#FDFDFD"/>
<path d="M159.743 298.31C163.623 299.074 167.503 299.838 171.383 300.602C171.072 302.478 170.939 304.405 170.422 306.223C163.587 330.282 156.697 354.325 149.821 378.372C145.955 377.785 142.088 377.198 138.222 376.612C134.726 374.107 131.229 371.602 127.73 369.097C138.068 347.398 148.439 325.713 158.688 303.971C159.48 302.291 159.412 300.206 159.743 298.31Z" fill="#D2BD8C"/>
<path d="M149.82 378.372C156.696 354.325 163.585 330.282 170.421 306.223C170.937 304.405 171.071 302.478 171.382 300.602C179.868 301.245 188.354 301.888 196.84 302.531C193.01 314.806 189.181 327.08 185.351 339.355C165.874 337.293 165.886 337.297 160.359 356.446C158.848 361.681 157.616 367.045 155.521 372.041C154.483 374.513 151.773 376.283 149.82 378.372Z" fill="#A09465"/>
<path d="M292.451 184.769C279.019 180.404 265.527 177.954 253.074 187.037C248.669 190.25 245.353 194.957 241.54 198.982C241.514 189.807 240.899 180.572 241.827 171.494C242.104 168.79 246.361 165.067 249.401 164.339C258.403 162.181 267.707 161.284 276.893 159.895C273.198 165.342 277.004 168.385 280.852 170.84C286.54 174.47 292.563 177.575 298.444 180.903C298.458 182.023 298.471 183.143 298.485 184.263C296.473 184.432 294.462 184.6 292.451 184.769Z" fill="#E6A988"/>
<path d="M243.823 236.048C237.328 236.14 230.834 236.232 224.339 236.323C223.575 229.014 223.047 221.671 221.972 214.408C221.111 208.59 219.586 202.871 218.355 197.107C222.559 190.65 226.763 184.194 231.542 176.853C233.091 188.034 234.243 198.554 236.165 208.931C236.78 212.253 239.435 215.197 241.156 218.314C242.044 224.226 242.934 230.137 243.823 236.048Z" fill="#9E8957"/>
<path d="M298.446 180.904C292.565 177.576 286.542 174.471 280.854 170.841C277.005 168.385 273.199 165.343 276.895 159.896C277.556 159.241 278.218 158.587 278.88 157.932C286.062 157.935 293.245 157.939 300.428 157.942C303.102 159.643 305.62 161.689 308.479 162.979C316.802 166.735 319.726 172.33 315.335 180.851C309.704 180.868 304.075 180.886 298.446 180.904Z" fill="#626147"/>
<path d="M218.302 236.149C208.113 236.136 197.453 238.577 188.809 230.5C198.063 220.526 207.316 210.552 216.568 200.582C212.996 212.643 214.441 224.455 218.302 236.149Z" fill="#9E8957"/>
<path d="M218.302 236.149C214.441 224.455 212.996 212.643 216.567 200.582C216.569 200.578 216.414 199.845 216.416 199.839C217.08 198.885 217.743 197.936 218.407 196.988L218.358 197.106C219.588 202.87 221.113 208.59 221.973 214.408C223.048 221.671 223.575 229.014 224.339 236.323C222.327 236.265 220.314 236.207 218.302 236.149Z" fill="#574D3F"/>
<path d="M218.405 196.989C217.742 197.937 217.078 198.886 216.414 199.84C217.077 198.893 217.741 197.941 218.405 196.989Z" fill="#9E8957"/>
<path d="M320.726 489.986C317.617 491.199 314.549 492.534 311.388 493.594C307.031 495.056 302.605 496.31 298.21 497.655C296.832 493.204 295.451 488.752 294.071 484.299C291.467 487.412 288.864 490.525 286.26 493.638C273.116 490.041 266.985 479.493 261.324 468.479C262.008 466.468 262.692 464.457 263.375 462.448C283.928 465.988 304.483 469.527 325.318 473.114C325.502 476.549 325.655 479.404 325.808 482.259L325.834 482.18C324.523 484.342 323.212 486.503 321.902 488.665C321.717 489.292 321.325 489.732 320.726 489.986Z" fill="#9E8957"/>
<path d="M263.38 462.446C262.696 464.457 262.012 466.468 261.328 468.479C250.872 453.693 255.42 437.616 257.314 421.766C262.685 421.401 270.663 426.859 272.004 416.986C273.005 409.616 271.611 401.922 271.282 394.371C273.549 392.994 275.817 391.618 278.084 390.242C282.864 403.346 287.644 416.449 292.425 429.553C290.999 431.382 289.82 434.511 288.107 434.838C272.681 437.781 267.612 449.676 263.38 462.446Z" fill="#897A50"/>
<path d="M271.281 394.372C271.609 401.922 273.002 409.617 272.002 416.986C270.661 426.86 262.683 421.401 257.312 421.766C257.281 417.858 257.25 413.948 257.219 410.038C257.491 409.744 257.759 409.446 258.019 409.151C260.967 412.731 263.92 416.306 268.519 421.874C269.639 410.718 270.46 402.545 271.281 394.372Z" fill="#A09465"/>
<path d="M286.262 493.638C288.866 490.525 291.469 487.412 294.073 484.299C295.453 488.751 296.834 493.204 298.212 497.655C294.372 497.599 290.533 497.545 286.695 497.489C286.551 496.204 286.406 494.921 286.262 493.638Z" fill="#4F4B3C"/>
<path d="M229.977 438.414C232.661 435.315 234.28 433.445 235.899 431.576C237.835 433.98 240.81 436.184 241.323 438.86C241.641 440.518 238.219 442.893 236.476 444.947C234.581 443.041 232.685 441.136 229.977 438.414Z" fill="#5A5642"/>
<path d="M251.537 405.951C246.848 405.172 242.159 404.392 237.469 403.611C237.467 403.609 237.615 403.982 237.615 403.982C242.249 404.65 246.882 405.318 251.515 405.986L251.537 405.951Z" fill="#A09465"/>
<path d="M255.412 407.949C254.121 407.283 252.83 406.617 251.539 405.951L251.516 405.985C252.96 406.478 254.405 406.971 255.849 407.463L255.412 407.949Z" fill="#A09465"/>
<path d="M257.219 410.039C256.616 409.342 256.013 408.646 255.41 407.949C255.41 407.949 255.847 407.464 255.844 407.468C256.568 408.03 257.296 408.588 258.023 409.146C257.759 409.447 257.491 409.745 257.219 410.039Z" fill="#A09465"/>
<path d="M380.859 392.275C387.91 392.256 394.961 392.237 402.014 392.218C401.973 401.978 402.458 411.78 401.714 421.487C401.166 428.638 404.111 432.151 410.265 434.644C421.522 439.203 431.779 446.918 444.949 445.086C440.133 445.839 435.299 447.283 430.507 447.153C425.629 447.02 423.014 447.966 423.489 453.265C419.311 449.161 415.808 443.099 410.813 441.383C401.097 438.045 390.544 437.145 380.338 435.235C380.237 432.608 380.136 429.98 380.035 427.353C380.31 415.659 380.584 403.967 380.859 392.275Z" fill="#574D3F"/>
<path d="M480.082 402.062C471.485 402.867 462.889 403.672 452.934 404.604C457.293 397.284 470.758 395.983 481.995 400.096C481.357 400.751 480.72 401.406 480.082 402.062Z" fill="#4F4B3C"/>
<path d="M480.082 402.062C480.72 401.407 481.358 400.752 481.995 400.097C483.337 399.477 484.68 398.857 486.022 398.237C484.83 401.013 483.639 403.789 482.448 406.566C481.66 405.065 480.871 403.563 480.082 402.062Z" fill="#484234"/>
<path d="M446.867 72.1219C446.862 68.1759 446.857 64.2299 446.852 60.2839C446.858 64.2299 446.862 68.1759 446.867 72.1219Z" fill="#897A50"/>
<path d="M444.887 74.0789C445.581 73.3839 446.274 72.6889 446.968 71.9929C446.275 72.6879 445.581 73.3829 444.887 74.0789Z" fill="#897A50"/>
<path d="M112.85 392.117C120.626 394.208 128.402 396.298 136.179 398.389C132.881 415.703 129.534 433.007 126.31 450.335C125.107 456.802 120.56 458.111 115.539 456.413C110.472 454.7 105.911 451.489 101.129 448.934C104.518 433.163 107.932 417.398 111.275 401.618C111.939 398.481 112.331 395.286 112.85 392.117Z" fill="#D2BD8C"/>
<path d="M373.151 558.38C372.998 555.102 372.844 551.825 372.691 548.547C379.215 553.02 385.931 552.808 393.602 551.238C407.717 548.349 422.104 546.666 436.448 545.157C438.375 544.954 440.713 548.677 442.86 550.583C441.49 551.927 440.122 553.271 438.755 554.613C437.626 557.136 436.496 559.661 435.365 562.185C425.94 554.542 415.047 559.414 404.834 559.111C404.006 559.087 402.012 565.525 402.229 568.851C403.101 582.23 404.63 595.567 405.917 608.918C383.658 609.48 383.611 609.487 380.219 588.291C378.844 579.698 377.855 571.041 376.372 562.468C376.111 560.965 374.265 559.736 373.151 558.38Z" fill="#626147"/>
<path d="M435.363 562.186C436.494 559.661 437.624 557.137 438.753 554.614C440.785 568.817 442.818 583.019 444.852 597.221C444.3 597.335 443.748 597.448 443.195 597.562C440.584 585.77 437.973 573.978 435.363 562.186Z" fill="#A6A875"/>
<path d="M404.243 376.956C383.598 376.323 362.949 375.25 342.311 375.423C338.106 375.458 332.866 379.336 330.007 382.948C325.705 388.383 321.263 391.384 314.354 390.186C311.964 380.493 309.574 370.8 307.184 361.108C333.89 359.97 360.596 358.832 388.641 357.637C387.725 349.734 387.033 343.771 386.342 337.808C388.248 337.009 390.154 336.211 392.059 335.412C394.835 349.638 395.866 364.374 404.243 376.956Z" fill="#4F4B3C"/>
<path d="M380.335 435.233C390.541 437.143 401.094 438.043 410.81 441.381C415.806 443.097 419.308 449.16 423.486 453.263C423.466 453.728 423.429 454.186 423.376 454.641C423.352 455.366 423.329 456.092 423.307 456.819C412.083 452.319 400.394 448.69 389.785 443.037C381.715 438.736 374.949 437.632 367.511 443.067C362.706 443.725 357.9 444.383 353.095 445.041C342.655 444.389 332.215 443.736 321.775 443.084C319.197 441.139 316.62 439.195 314.043 437.25C317.291 437.142 320.538 437.033 323.786 436.925C331.854 437.027 339.932 437.423 347.988 437.153C356.851 436.856 365.694 435.946 374.546 435.303C376.475 435.28 378.405 435.257 380.335 435.233Z" fill="#8B805C"/>
<path d="M472.175 144.335C449.085 142.288 425.988 140.318 402.911 138.14C397.243 137.605 393.261 135.328 394.049 128.281C394.648 122.926 394.168 117.45 394.168 110.793C423.673 115.509 451.802 120.006 479.929 124.5C483.025 130.914 486.123 137.33 490.529 146.458C482.028 145.474 477.102 144.904 472.175 144.335Z" fill="#8B805C"/>
<path d="M384.24 314.155C387.46 320.02 384.84 323.322 379.283 325.185C375.907 326.318 372.455 327.226 369.036 328.236C355.522 327.528 341.979 327.131 328.518 325.871C325.517 325.59 322.8 322.276 319.953 320.358C320.586 318.234 321.219 316.11 321.851 313.985C342.648 314.041 363.444 314.098 384.24 314.155Z" fill="#626147"/>
<path d="M321.85 313.985C321.217 316.109 320.584 318.234 319.952 320.357C318.532 324.141 316.391 327.838 315.92 331.738C315.545 334.846 317.208 338.2 317.966 341.445C313.521 344.046 309.075 346.647 304.63 349.248C301.949 340.348 303.709 329.201 292.234 324.752C294.294 321.796 296.355 318.839 298.415 315.883C305.582 314.091 312.75 312.299 319.917 310.508C320.561 311.666 321.206 312.825 321.85 313.985Z" fill="#4F4B3C"/>
<path d="M304.629 349.247C309.074 346.646 313.52 344.045 317.965 341.444C323.097 340.896 328.22 340.22 333.365 339.824C345.267 338.909 357.18 338.13 369.088 337.295C374.838 337.466 380.589 337.637 386.339 337.807C387.031 343.77 387.722 349.733 388.638 357.636C360.593 358.831 333.887 359.969 307.183 361.107C306.334 357.155 305.482 353.201 304.629 349.247Z" fill="#6E7052"/>
<path d="M369.09 337.296C357.182 338.13 345.269 338.91 333.367 339.825C328.223 340.221 323.101 340.897 317.968 341.445C317.21 338.2 315.546 334.846 315.921 331.737C316.391 327.838 318.532 324.14 319.953 320.356C322.801 322.275 325.517 325.589 328.518 325.87C341.979 327.13 355.521 327.527 369.036 328.235C369.055 331.256 369.073 334.276 369.09 337.296Z" fill="#D2BD8C"/>
<path d="M304.63 349.247C305.482 353.201 306.334 357.155 307.184 361.108C309.572 370.8 311.962 380.493 314.352 390.186C317.497 391.444 320.654 393.811 323.785 393.778C342.812 393.581 361.833 392.837 380.856 392.275C380.581 403.967 380.307 415.659 380.032 427.351C354.715 428.166 329.398 428.982 304.081 429.798C300.195 429.716 296.308 429.635 292.422 429.553C287.642 416.449 282.862 403.346 278.08 390.243C277.665 373.304 276.561 356.34 277.134 339.434C277.413 331.189 282.9 325.234 292.233 324.751C303.709 329.2 301.95 340.347 304.63 349.247ZM306.451 402.159C312.374 397.451 310.569 385.516 303.433 377.274C297.201 386.402 302.634 393.565 306.451 402.159Z" fill="#FBE0B7"/>
<path d="M292.451 184.769C294.462 184.601 296.473 184.432 298.485 184.264C307.497 185.657 313.522 190.433 314.716 199.756C315.804 208.253 312.94 215.347 304.824 219.09C297.011 222.693 289.55 221.463 283.296 215.367C273.279 205.604 278.01 189.956 292.451 184.769Z" fill="#574D3F"/>
<path d="M381.844 135.69C381.928 135.461 382.007 135.041 382.098 135.038C382.365 135.03 382.637 135.188 382.907 135.281C382.823 135.51 382.744 135.931 382.653 135.933C382.386 135.941 382.114 135.783 381.844 135.69Z" fill="#8B805C"/>
<path d="M292.426 429.553C296.312 429.635 300.199 429.716 304.087 429.795C307.408 432.278 310.727 434.764 314.046 437.251C316.624 439.196 319.201 441.14 321.779 443.085C328.194 455.432 331.662 468.224 327.688 482.143L326.757 482.313L325.812 482.259C325.659 479.404 325.506 476.549 325.322 473.114C304.487 469.527 283.932 465.989 263.379 462.448C267.613 449.675 272.682 437.781 288.108 434.838C289.821 434.512 290.999 431.383 292.426 429.553Z" fill="#BCA877"/>
<path d="M382.499 497.579C370.009 492.787 362.543 483.494 359.513 470.779C358.773 467.673 360.212 464.047 360.651 460.66C374.167 463.268 387.772 465.494 401.159 468.641C408.049 470.26 414.554 473.519 421.233 476.036C419.689 478.741 418.145 481.446 416.599 484.151C415.62 485.478 414.644 486.804 413.667 488.13L413.749 488.017C413.063 488.703 412.377 489.388 411.692 490.073L411.785 489.979C411.1 490.664 410.416 491.348 409.731 492.033L409.835 491.958C403.92 492.58 398.004 493.202 392.089 493.824C395.799 486.604 393.229 483.242 384.895 482.536C384.495 486.679 384.138 490.371 383.781 494.062C383.354 495.234 382.927 496.406 382.499 497.579Z" fill="#9E8957"/>
<path d="M421.233 476.035C414.554 473.517 408.049 470.259 401.159 468.64C387.771 465.493 374.168 463.267 360.652 460.659C362.932 454.796 365.214 448.932 367.504 443.068C374.949 437.633 381.714 438.737 389.785 443.037C400.395 448.691 412.083 452.32 423.307 456.819C422.615 463.225 421.924 469.63 421.233 476.035Z" fill="#C8B478"/>
<path d="M327.686 482.142C331.66 468.224 328.192 455.431 321.777 443.084C332.217 443.736 342.657 444.388 353.097 445.041C353.702 457.994 354.306 470.948 354.912 483.904C345.853 483.887 336.792 483.868 327.732 483.849C327.754 483.279 327.738 482.71 327.686 482.142Z" fill="#4F4B3C"/>
<path d="M382.5 497.579C382.928 496.407 383.356 495.234 383.789 494.061C386.56 493.981 389.326 493.903 392.092 493.824C398.007 493.202 403.922 492.58 409.837 491.958C401.552 497.856 393.082 502.853 382.5 497.579Z" fill="#BAA56D"/>
<path d="M327.73 483.848C336.79 483.867 345.851 483.886 354.911 483.903C355.985 484.392 357.06 484.882 358.602 485.585C348.673 489.882 331.815 488.741 327.73 483.848Z" fill="#7A694C"/>
<path d="M321.902 488.665C323.213 486.503 324.524 484.342 325.834 482.18C324.523 484.341 323.212 486.503 321.902 488.665Z" fill="#BCA877"/>
<path d="M413.668 488.129C414.645 486.803 415.621 485.477 416.6 484.15C415.624 485.476 414.646 486.803 413.668 488.129Z" fill="#BAA56D"/>
<path d="M292.235 324.751C282.902 325.234 277.415 331.189 277.136 339.434C276.563 356.34 277.667 373.304 278.082 390.243C275.816 391.619 273.548 392.995 271.281 394.371C270.461 402.545 269.64 410.718 268.52 421.874C263.921 416.306 260.969 412.731 258.02 409.151C257.297 408.588 256.57 408.029 255.846 407.467C254.405 406.97 252.961 406.477 251.517 405.985C246.884 405.317 242.251 404.649 237.617 403.981C245.673 376.448 256.242 349.908 275.149 328.038C280.471 321.882 290.531 319.821 298.417 315.882C296.356 318.838 294.295 321.795 292.235 324.751Z" fill="#484234"/>
<path d="M314.045 437.251C310.726 434.765 307.407 432.279 304.086 429.795C329.402 428.982 354.719 428.166 380.036 427.351C380.137 429.979 380.238 432.606 380.339 435.233C378.409 435.256 376.479 435.28 374.549 435.303C369.719 435.275 364.882 435.071 360.06 435.255C347.966 435.718 335.879 436.357 323.789 436.925C320.54 437.034 317.292 437.142 314.045 437.251Z" fill="#E6A988"/>
<path d="M323.785 436.925C335.875 436.357 347.962 435.718 360.056 435.255C364.878 435.07 369.715 435.275 374.545 435.303C365.693 435.946 356.85 436.856 347.987 437.153C339.931 437.424 331.853 437.028 323.785 436.925Z" fill="#BCA877"/>
<path d="M306.452 402.159C302.636 393.565 297.201 386.402 303.433 377.274C310.569 385.516 312.375 397.451 306.452 402.159Z" fill="#E8E8EB"/>
<path d="M392.092 493.824C389.326 493.903 386.56 493.981 383.789 494.061C384.141 490.37 384.497 486.678 384.898 482.536C393.232 483.242 395.802 486.604 392.092 493.824Z" fill="#484234"/>
</svg>
