<svg width="310" height="674" viewBox="0 0 310 674" fill="none" xmlns="http://www.w3.org/2000/svg">
<path d="M186.5 98.5892C186.495 98.5822 190.6 100.554 194.15 98.5892C197.7 96.6242 196.988 90.9322 196.353 90.2742C195.718 89.6162 186.5 98.5892 186.5 98.5892Z" fill="#A39083"/>
<path d="M205.902 48.7741C205.902 48.7741 202.302 88.6741 193.502 95.9741C184.702 103.274 172.102 92.9741 172.102 92.9741C172.102 92.9741 172.702 48.5741 205.902 48.7741Z" fill="#3D3D3D"/>
<path d="M189.499 74.7744C189.899 75.9244 196.723 90.5504 196.336 92.2624C195.949 93.9744 192.763 97.7764 190.431 97.8004C188.299 92.6744 184.699 82.2744 184.699 82.2744L189.499 74.7744Z" fill="#696969"/>
<path d="M192.602 64.3245C192.602 64.3245 197.252 65.0245 197.902 65.4745C198.552 65.9245 201.479 77.0345 201.479 77.0345C201.479 77.0345 206.691 75.6945 206.769 75.0935C206.847 74.4925 204.402 51.8235 204.402 51.6235C204.402 51.4235 196.202 53.5735 196.202 53.5735L192.602 64.3245Z" fill="#696969"/>
<path d="M203.401 51.4743C203.401 51.4743 200.301 62.6742 201.001 66.8742C201.701 71.0742 206.768 75.0942 206.768 75.0942C206.768 75.0942 209.901 51.2743 209.201 49.4743C208.501 47.6743 203.401 51.4743 203.401 51.4743Z" fill="#FCAD37"/>
<path d="M198.65 57.0243C198.65 57.0243 213.2 50.1243 214.4 48.9243C215.6 47.7243 217.849 10.8243 185.299 2.4243C152.749 -5.9757 114.5 5.8743 122 63.0243C162.95 93.3243 198.65 57.0243 198.65 57.0243Z" fill="#A39083"/>
<path d="M126.8 81.3244C127.229 82.4554 175.437 93.0404 184.493 87.1074C193.55 81.1744 194.3 61.0744 198.65 57.0244C170.75 73.2244 122 63.0244 122 63.0244C122 63.0244 122.729 70.5934 126.8 81.3244Z" fill="#786960"/>
<path d="M59.0007 582.774L45.0508 642.474C45.0508 642.474 12.8008 670.674 12.8008 671.124C12.8008 671.574 80.3007 672.324 81.2007 671.124C82.1007 669.924 77.3008 639.774 77.3008 639.774C77.3008 639.774 87.5007 592.074 87.5007 589.524C87.5007 586.974 59.0007 582.774 59.0007 582.774Z" fill="#3D3D3D"/>
<path d="M205.102 580.974L222.502 640.074C222.502 640.074 217.102 670.47 218.902 671.772C220.702 673.074 296.31 673.77 297.802 671.772C299.294 669.774 249.98 633.774 249.741 631.674C249.502 629.574 241.102 572.874 241.102 572.874L205.102 580.974Z" fill="#3D3D3D"/>
<path d="M278.902 215.274C278.902 215.274 275.487 191.65 274.095 184.362C272.702 177.074 225.004 132.874 225.004 132.874C225.004 132.874 211.974 118.22 208.502 115.474C205.03 112.728 183.902 154.674 197.702 179.074C211.502 203.474 271.302 224.474 278.902 215.274Z" fill="#A39083"/>
<path d="M202.5 162.274L214.5 182.074C214.5 182.074 213.717 157.474 216.109 160.274C218.5 163.074 222.5 180.101 226.3 195.188C230.1 210.274 232.7 186.049 236.1 189.062C239.5 192.074 243.1 204.875 244.1 206.074C245.1 207.274 275.254 206.98 277.177 212.327C279.1 217.674 272.5 232.117 266.9 237.695C261.3 243.274 221.616 257.214 217.758 257.744C213.9 258.274 189.861 234.404 189.18 221.739C188.5 209.074 202.5 162.274 202.5 162.274Z" fill="#786960"/>
<path d="M165.035 275.907C165.276 276.084 170.001 279.006 170.105 284.481L171.169 283.873C171.169 283.873 173.361 278.389 169.178 274.618C167.894 274.137 165.035 275.907 165.035 275.907Z" fill="#3C4045"/>
<path d="M241.597 218.551L186.529 250.053L179.637 238.397L234.704 206.894L241.597 218.551Z" fill="#3C4045"/>
<path d="M22.9924 331.398L10.1484 309.677L16.7324 305.91L41.4995 315.231L44.4025 320.14L38.4194 323.233L19.8514 314.565L27.9744 328.457L22.9924 331.398Z" fill="#6F7B82"/>
<path d="M50.9257 323.338L13.9346 344.499L9.64062 337.236L46.6317 316.075L50.9257 323.338Z" fill="#3C4045"/>
<path d="M137.887 277.879L104.791 296.812L95.1016 280.426L128.198 261.493L137.887 277.879Z" fill="#3C4045"/>
<path d="M130.879 304.328C130.879 304.328 150.235 355.292 150.686 358.514C150.83 358.552 178.123 351.458 178.379 351.072C178.052 349.699 159.445 295.906 158.531 295.589C157.618 295.271 130.879 304.328 130.879 304.328Z" fill="#484F54"/>
<path d="M130.68 303.783L132.748 309.257L160.428 300.052L158.324 294.209L130.68 303.783Z" fill="#3C4045"/>
<path d="M190.865 269.831C190.865 269.831 186.79 264.783 187.151 261.246C187.512 257.71 192.711 254.826 194.232 253.865L182.609 234.055L175.669 231.996L103.859 273.076L115.192 292.242C115.192 292.242 120.348 290.823 123.028 295.049C125.709 299.275 129.867 306.616 129.867 306.616L160.712 296.26L182.003 284.8C182.003 284.8 204.214 298.553 204.356 299.101C204.498 299.649 204.4 301.326 204.4 301.326L206.942 303.472C206.942 303.472 224.669 288.291 224.996 287.924C225.325 287.556 190.865 269.831 190.865 269.831ZM176.667 284.388L161.939 292.814C160.625 293.566 158.934 292.976 158.379 291.573L156.173 285.995C155.729 284.872 156.176 283.602 157.228 283L170.88 275.19C172.019 274.539 173.481 274.886 174.205 275.98L177.487 280.943C178.264 282.117 177.89 283.688 176.667 284.388Z" fill="#484F54"/>
<path d="M190.828 272.374C190.828 272.374 184.633 278.078 184.945 283.419C185.447 283.552 204.441 294.885 204.441 294.885L216.11 285.33L190.828 272.374Z" fill="#6F7B82"/>
<path d="M142.182 229.736L141.078 244.767L145.553 251.567L176.842 233.667L172.703 230.815L170.091 232.129L165.464 226.406L160.69 228.777L156.533 222.515C156.533 222.515 152.16 221.418 142.182 229.736Z" fill="#6F7B82"/>
<path d="M116.164 296.277L50.4579 333.865L37.3359 311.672L103.042 274.085L116.164 296.277Z" fill="#3C4045"/>
<path d="M100.584 280.02L96.3084 282.466L93.8694 278.341L90.7254 280.14L93.1634 284.265L88.8874 286.711L86.4494 282.586L83.1454 284.476L85.5844 288.601L81.3084 291.047L78.8694 286.922L75.7254 288.721L78.1634 292.846L73.8874 295.292L71.4494 291.167L68.0534 293.11L70.4914 297.235L66.2154 299.681L63.7774 295.556L60.6324 297.355L63.0714 301.48L58.7954 303.926L56.3564 299.801L53.0534 301.691L55.4914 305.816L51.2154 308.262L48.7774 304.137L45.6324 305.936L48.0714 310.061L43.7954 312.507L41.3564 308.382L36.8984 310.933L50.7754 334.403L55.2334 331.852L52.3174 326.921L56.5934 324.474L59.5094 329.406L62.6544 327.607L59.7384 322.675L64.0144 320.229L66.9304 325.161L70.2334 323.271L67.3174 318.34L71.5934 315.893L74.5094 320.825L77.6544 319.026L74.7384 314.095L79.0144 311.648L81.9304 316.58L85.3264 314.637L82.4104 309.706L86.6864 307.259L89.6024 312.191L92.7474 310.392L89.8314 305.461L94.1074 303.014L97.0234 307.946L100.326 306.056L97.4104 301.125L101.686 298.678L104.602 303.61L107.747 301.811L104.831 296.879L109.107 294.433L112.023 299.365L116.481 296.815L102.604 273.345L98.1454 275.895L100.584 280.02Z" fill="#484F54"/>
<path d="M17.6411 343.548L5.28802 350.615L0 341.671L12.353 334.604L17.6411 343.548Z" fill="#484F54"/>
<path d="M12.0197 339.624L3.98767 344.219L2.84766 342.291L10.8797 337.696L12.0197 339.624Z" fill="#3C4045"/>
<path d="M14.379 343.614L6.34705 348.209L5.20703 346.281L13.2391 341.686L14.379 343.614Z" fill="#3C4045"/>
<path d="M110.556 288.595L46.2117 325.404L41.7188 317.805L106.063 280.996L110.556 288.595Z" fill="#6F7B82"/>
<path d="M137.02 310.716L152.102 351.586L172.005 346.5C172.005 346.5 157.867 304.19 157.38 304.289C156.894 304.387 137.02 310.716 137.02 310.716Z" fill="#6F7B82"/>
<path d="M217.758 213.769L227.381 230.043C227.381 230.043 238.372 221.595 243.926 229.758L260.261 220.414L286.953 218.242L306.95 227.483L309.936 225.775C309.936 225.775 291.772 186.248 282.962 176.469L280.609 177.815L217.758 213.769Z" fill="#484F54"/>
<path d="M239.156 223.066L287.889 195.188L297.75 211.866C297.75 211.866 270.925 207.053 245.038 225.641C244.879 225.372 239.156 223.066 239.156 223.066Z" fill="#3C4045"/>
<path d="M188.322 248.006L115.491 289.67L108.492 277.834L181.323 236.17L188.322 248.006Z" fill="#6F7B82"/>
<path d="M286.483 189.331L229.832 221.74L224.504 212.73L281.155 180.322L286.483 189.331Z" fill="#6F7B82"/>
<path d="M77.3366 446.574C77.3366 446.574 73.8006 473.774 74.4006 479.574C75.0006 485.374 118.086 494.133 120.101 488.774C122.116 483.415 128.601 452.674 127.501 448.574C126.401 444.474 77.8146 442.767 77.3366 446.574Z" fill="#484F54"/>
<path d="M182.301 452.124C182.238 453.359 188.001 487.662 190.401 490.443C192.801 493.224 230.901 489.024 232.701 484.374C234.501 479.724 229.401 445.974 227.601 442.074C225.801 438.174 182.751 443.274 182.301 452.124Z" fill="#484F54"/>
<path d="M92.7009 312.274C92.7009 312.274 82.4009 334.604 83.9009 351.585C74.6009 383.912 66.5009 419.274 68.0009 431.874C69.5009 444.474 80.5759 453.774 80.2879 454.974C80.0009 456.174 76.7509 464.274 76.7509 464.274C76.7509 464.274 67.1009 486.774 56.3009 505.974C45.5009 525.174 41.3009 566.874 46.1009 576.474C50.9009 586.074 74.3009 601.074 82.1009 600.474C89.9009 599.874 106.401 596.574 110.601 588.174C114.801 579.774 123.201 503.274 122.601 489.774C122.001 476.274 119.001 469.674 120.801 466.974C122.601 464.274 122.359 466.674 130.88 450.174C139.401 433.674 149.574 362.157 150.801 360.174C152.028 358.191 160.153 360.174 160.427 360.174C160.701 360.174 165.771 423.174 165.036 438.174C164.301 453.174 186.544 465.774 188.323 468.474C190.102 471.174 190.443 474.774 190.443 474.774C190.443 474.774 182.601 493.974 181.701 520.674C180.801 547.374 185.685 577.374 190.443 581.574C195.201 585.774 209.601 591.174 222.801 587.874C236.001 584.574 243.501 579.474 247.701 566.874C251.901 554.274 251.001 487.674 231.501 472.374C227.001 467.574 226.701 460.674 226.701 460.674C226.701 460.674 235.101 445.674 236.601 435.174C238.101 424.674 208.901 313.274 208.901 313.274C208.901 313.274 110.801 305.774 92.7009 312.274Z" fill="#A39083"/>
<path d="M95.1022 297.435L92.6992 312.274C92.6992 312.274 203.099 324.474 208.899 313.274C206.944 303.471 207.299 299.559 207.299 299.559L95.1022 297.435Z" fill="#E8C687"/>
<path d="M76.0983 115.474C76.0983 115.474 63.1983 133.674 58.9983 152.874C54.7983 172.074 42.7983 200.007 46.0983 225.641C49.3983 251.274 54.5623 254.304 63.1983 261.493C71.8343 268.683 114.198 240.317 118.698 231.996C123.198 223.674 76.0983 115.474 76.0983 115.474Z" fill="#A39083"/>
<path d="M86.2993 164.874C84.9303 164.016 66.8863 177.774 72.5423 199.074C78.1983 220.374 72.4983 237.174 67.3993 242.874C62.2993 248.574 57.4633 255.41 51.7383 248.754C65.5993 278.124 73.7743 289.11 76.1363 293.142C78.4993 297.174 103.683 298.366 108.491 289.67C113.299 280.974 108.799 178.974 86.2993 164.874Z" fill="#786960"/>
<path d="M221.698 245.874C218.698 236.274 207.198 225.641 207.198 225.641L205.098 154.374C205.098 154.374 212.898 120.874 208.498 115.474C204.098 110.074 185.298 105.474 185.298 105.474C185.298 105.474 186.698 88.0742 183.098 84.2742C171.298 76.2742 118.298 76.8742 114.698 78.8742C111.098 80.8742 114.098 99.2742 112.698 99.6742C111.298 100.074 77.2311 113.177 76.0981 115.474C62.6331 142.779 87.2011 216.507 91.1841 227.19C91.1841 227.19 80.373 234.074 76.136 240.074C71.899 246.074 69.8761 286.31 73.8871 295.292C76.1161 300.283 84.5941 302.503 91.6911 303.492C109.051 307.352 176.408 308.344 201.306 307.472C201.306 307.472 220.699 307.475 223.099 303.2C225.499 298.925 224.698 255.474 221.698 245.874Z" fill="#A39083"/>
<path d="M221.584 258.761C216.658 260.932 210.777 260.154 205.776 258.175C205.541 253.654 205.308 250.242 205.099 249.024C204.199 243.774 199.09 240.16 200.52 237.017C201.949 233.874 209.236 227.645 208.86 227.267C208.485 226.889 207.199 225.641 207.199 225.641C207.199 225.641 196.399 234.624 192.349 234.624C188.299 234.624 172.941 232.301 169.699 242.674C166.457 253.047 169.648 302.851 166.949 304.288C164.249 305.724 143.764 302.746 141.076 300.92C138.388 299.094 136.849 244.224 134.599 238.824C132.349 233.424 113.661 233.724 110.555 233.874C102.499 230.724 91.1853 227.19 91.1853 227.19L89.2643 228.473C89.2643 228.473 100.099 232.059 103.099 237.016C106.099 241.973 99.3493 243.757 97.0993 251.565C96.7323 252.838 96.4043 254.917 96.1143 257.499C94.3073 257.599 92.5533 258.153 90.7363 258.307C88.4113 258.503 86.0543 258.416 83.7523 258.034C81.8263 257.714 79.9323 257.2 78.1013 256.525C76.4083 255.901 74.8283 254.734 73.0043 254.756C72.6343 254.76 72.4393 255.147 72.5993 255.461C74.2973 258.793 80.7523 259.995 84.0883 260.465C87.6253 260.964 92.3883 261.23 95.8843 259.745C94.5833 273.564 94.2333 297.641 95.1023 299.423C96.1993 301.673 91.6913 303.491 91.6913 303.491C91.6913 303.491 111.959 307.111 134.004 306.942C172.401 307.743 207.197 308.138 213.948 306.614C208.998 305.689 207.349 303.44 207.349 301.732C207.349 300.474 206.617 275.336 205.871 260.074C211.102 262.549 218.387 264.378 222.856 260.41C223.818 259.556 222.593 258.317 221.584 258.761Z" fill="#786960"/>
<path d="M111.9 237.017C111.212 237.138 102.4 244.374 100.2 253.474C97.9999 262.574 96.8999 299.291 100.2 301.732C103.5 304.173 132.6 307.774 133.4 302.874C134.2 297.974 132.6 248.774 131.8 243.374C131 237.974 121.9 235.26 111.9 237.017Z" fill="#A39083"/>
<path d="M194.798 237.974C194.798 237.974 199.798 240.174 201.698 250.674C203.598 261.174 207.598 302.301 204.298 304.288C200.998 306.274 179.287 307.65 177.893 305.312C176.498 302.974 173.898 248.074 176.298 242.674C178.698 237.274 191.998 237.374 194.798 237.974Z" fill="#A39083"/>
<path d="M132.281 259.232C126.607 262.026 120.465 263.723 114.136 264.035C109.833 264.247 98.1794 264.708 97.6284 258.463C97.5454 257.517 96.1814 257.492 96.1374 258.463C95.8094 265.722 105.087 266.285 110.443 266.462C118.447 266.725 126.327 264.822 133.487 261.296C134.867 260.617 133.658 258.554 132.281 259.232Z" fill="#786960"/>
<path d="M202.61 262.051C200.039 266.074 192.901 265.846 188.706 265.413C183.806 264.906 179.11 263.055 174.781 260.768C174.081 260.398 173.212 261.369 173.889 261.924C178.543 265.735 184.195 267.589 190.189 267.916C194.693 268.162 202.309 267.981 204.585 263.206C205.214 261.887 203.412 260.795 202.61 262.051Z" fill="#786960"/>
<path d="M112.7 99.6743C112.7 99.6743 108.65 101.574 134.6 104.124C160.55 106.674 185.3 105.474 185.3 105.474L188.98 106.469C188.98 106.469 159.05 113.724 135.2 109.824C111.35 105.924 108.784 102.018 109.392 100.896C110 99.7743 112.7 99.6743 112.7 99.6743Z" fill="#786960"/>
<path d="M96.1306 106.118C95.3786 106.425 75.9256 179.322 83.5566 203.256C80.5706 192.25 79.5906 184.404 75.8966 171.639C72.2026 158.874 81.4546 114.368 83.5786 111.421C85.7016 108.474 96.1306 106.118 96.1306 106.118Z" fill="#E8C687"/>
<path d="M185.301 105.474C185.301 105.474 187.796 196.114 206.649 206.894C206.516 202.367 206.976 199.339 206.649 197.574C206.322 195.809 198.603 113.156 198.003 109.455C194.534 106.809 185.301 105.474 185.301 105.474Z" fill="#E8C687"/>
<path d="M82.2695 198.655C82.2695 198.655 202.333 202.247 206.652 203.256C206.883 206.555 206.769 211.13 206.769 211.13C206.769 211.13 114.332 218.482 84.8486 207.7C83.2656 206.519 82.2695 198.655 82.2695 198.655Z" fill="#E8C687"/>
<path d="M144.533 118.074C144.453 118.809 138.301 174.286 151.901 192.68C148.085 200.754 140.877 179.074 137.889 174.874C134.901 170.674 142.301 198.101 135.301 195.188C128.301 192.275 129.494 154.474 134.097 134.674C138.701 114.874 145.319 110.854 144.533 118.074Z" fill="#786960"/>
<path d="M115.251 465.024C115.251 465.024 122.86 459.191 122.206 455.057C121.551 450.924 91.5509 439.974 84.8009 439.674C78.0509 439.374 93.8009 451.374 92.6009 451.074C91.4009 450.774 81.7309 445.046 80.9009 449.724C80.0699 454.402 93.5009 462.705 93.0509 462.665C92.6009 462.624 75.8728 465.924 77.3368 469.074C78.8008 472.224 99.9509 468.474 112.401 477.324C122.586 479.421 115.251 465.024 115.251 465.024Z" fill="#786960"/>
<path d="M203.9 465.174C203.9 465.174 189.5 467.205 188.6 462.665C187.7 458.124 214.55 437.263 215 439.669C215.45 442.075 210.8 450.625 210.8 450.625C210.8 450.625 229.641 440.379 228.321 444.452C227 448.525 220.7 461.275 220.7 461.275C220.7 461.275 231.22 472.825 229.935 474.775C228.65 476.725 204.483 472.449 195.2 481.075C189.05 482.275 193.7 474.025 200.45 469.375C207.2 464.724 203.9 465.174 203.9 465.174Z" fill="#786960"/>
<path d="M120.318 470.927C120.318 470.927 85.3219 462.983 77.3359 462.804C78.2749 458.874 80.069 454.402 80.069 454.402C80.069 454.402 114.084 457.543 122.204 465.221C121.85 467.124 120.318 470.927 120.318 470.927Z" fill="#E8C687"/>
<path d="M190.441 474.774C190.441 474.774 223.718 468.788 229.933 470.394C229.548 467.724 226.915 460.289 227.22 459.714C227.525 459.139 197.752 460.969 187.812 467.909C187.848 468.774 190.441 474.774 190.441 474.774Z" fill="#E8C687"/>
<path d="M125.151 351.586C126.74 351.259 189.801 351.573 187.551 358.515C186.907 360.502 164.826 361.6 164.826 361.6C164.826 361.6 170.751 363.1 168.951 364.075C167.151 365.05 160.913 364.895 160.913 364.895C160.913 364.895 160.251 360.775 160.026 360.55C159.801 360.325 152.534 359.985 151.476 360.775C150.418 361.565 149.518 366.235 149.518 366.235C149.518 366.235 136.776 364.3 135.426 362.95C134.076 361.6 139.026 360.775 138.801 360.55C138.576 360.324 119.676 352.711 125.151 351.586Z" fill="#786960"/>
<path d="M214.535 37.5083C214.535 37.5083 164.899 42.7743 121.203 44.1213C120.311 45.9263 121.047 56.4243 121.047 56.4243C121.047 56.4243 152.3 57.3243 177.35 53.8743C202.4 50.4243 214.963 44.2743 214.963 44.2743C214.963 44.2743 215.118 38.6533 214.535 37.5083Z" fill="#696969"/>
</svg>
