<svg width="282" height="428" viewBox="0 0 282 428" fill="none" xmlns="http://www.w3.org/2000/svg">
<path d="M212.559 353.566L133.942 308.175C132.193 307.162 130.535 305.74 129.057 304.064C127.303 302.065 125.806 299.703 124.71 297.231C123.481 294.445 122.763 291.521 122.772 288.832C122.781 285.333 124.029 282.823 126.055 281.645L113.508 288.938C111.482 290.117 110.234 292.622 110.225 296.126C110.215 298.819 110.934 301.738 112.163 304.524C113.254 306.997 114.755 309.359 116.51 311.357C117.983 313.038 119.641 314.456 121.395 315.469L200.011 360.859C204.524 363.465 208.622 363.7 211.582 361.978L224.129 354.685C221.169 356.412 217.071 356.172 212.559 353.566Z" fill="#1B1B1B"/>
<path d="M201.47 360.017L122.854 314.626C116.666 311.053 111.665 302.369 111.684 295.278C111.702 288.832 115.915 285.752 121.482 288.146L199.495 321.56C200.177 321.864 200.881 322.214 201.576 322.619C205.541 324.908 209.344 328.748 212.305 333.463C215.822 339.053 217.812 345.338 217.798 350.711C217.77 361.016 210.44 365.197 201.47 360.017Z" fill="#4F4927"/>
<path d="M132.431 280.35C129.626 279.149 127.135 279.204 125.257 280.295L112.705 287.589C114.584 286.497 117.075 286.442 119.879 287.644L197.874 321.049L210.421 313.756L132.431 280.35Z" fill="#2C2C2C"/>
<path d="M226.988 331.832C226.186 330.014 225.229 328.218 224.142 326.477C222.972 324.617 221.679 322.886 220.297 321.311C217.94 318.627 215.334 316.421 212.668 314.879C211.922 314.446 211.176 314.068 210.43 313.746L197.883 321.04C198.629 321.362 199.375 321.739 200.121 322.172C202.787 323.71 205.393 325.92 207.75 328.605C209.131 330.175 210.425 331.911 211.595 333.771C212.686 335.507 213.639 337.307 214.44 339.126C216.402 343.564 217.47 348.123 217.456 352.202C217.443 357.677 215.499 361.531 212.378 363.35L224.925 356.056C228.047 354.242 229.99 350.384 230.003 344.909C230.013 340.829 228.944 336.271 226.988 331.832Z" fill="#333333"/>
<path d="M211.591 333.771C208.427 328.743 204.348 324.617 200.121 322.172C199.375 321.739 198.629 321.366 197.883 321.04L119.888 287.634C113.76 285.01 109.128 288.38 109.109 295.471C109.086 303.276 114.603 312.83 121.394 316.748L200.01 362.139C209.601 367.673 217.429 363.216 217.461 352.193C217.471 346.452 215.343 339.747 211.591 333.771ZM200.01 360.859L121.394 315.468C115.206 311.895 110.205 303.211 110.224 296.12C110.242 289.674 114.455 286.594 120.022 288.988L198.035 322.402C198.716 322.706 199.421 323.056 200.116 323.461C204.081 325.75 207.884 329.59 210.845 334.305C214.362 339.895 216.352 346.18 216.338 351.553C216.305 361.863 208.975 366.039 200.01 360.859Z" fill="#252525"/>
<path opacity="0.4" d="M167.618 308.083L167.038 307.834L179.636 300.564L180.216 300.813L167.618 308.083ZM170.394 296.609L169.814 296.36L157.217 303.63L157.797 303.879L170.394 296.609ZM190.032 305.016L189.452 304.768L176.855 312.038L177.435 312.287L190.032 305.016ZM160.578 292.405L159.998 292.156L147.4 299.427L147.98 299.675L160.578 292.405ZM128.347 291.268L140.944 283.992L140.364 283.744L127.767 291.014L128.347 291.268ZM199.849 309.22L199.269 308.972L186.671 316.242L187.251 316.491L199.849 309.22ZM150.761 288.196L150.181 287.948L137.583 295.223L138.163 295.471L150.761 288.196ZM223.06 324.903C222.963 324.765 222.871 324.622 222.775 324.484L210.2 331.745C210.297 331.883 210.389 332.026 210.485 332.164L223.06 324.903ZM228.636 351.844L216.112 359.077C215.974 359.376 215.813 359.648 215.656 359.924L228.166 352.7C228.328 352.419 228.493 352.148 228.636 351.844ZM217.438 352.571C217.433 352.778 217.42 352.972 217.41 353.174L229.958 345.932C229.967 345.734 229.981 345.536 229.985 345.333L217.438 352.571ZM118.378 287.147L130.98 279.872C130.759 279.807 130.534 279.715 130.317 279.669L117.701 286.953C117.922 287.004 118.152 287.087 118.378 287.147ZM217.295 318.309L204.716 325.571C204.85 325.686 204.978 325.81 205.107 325.93L217.691 318.664C217.558 318.544 217.429 318.425 217.295 318.309ZM209.666 313.424L209.086 313.176L196.488 320.446L197.068 320.695L209.666 313.424ZM229.235 338.5L216.674 345.752C216.715 345.932 216.734 346.102 216.77 346.281L229.327 339.034C229.29 338.854 229.276 338.68 229.235 338.5ZM226.877 331.603C226.808 331.451 226.725 331.299 226.656 331.147L214.091 338.403C214.16 338.555 214.243 338.707 214.312 338.859L226.877 331.603Z" fill="#2C2C2C"/>
<path opacity="0.1" d="M213.668 337.538L226.215 330.244C225.585 328.969 224.912 327.707 224.139 326.478C222.969 324.617 221.675 322.886 220.294 321.312L207.742 328.605C209.124 330.175 210.417 331.911 211.587 333.771C212.361 335.001 213.037 336.267 213.668 337.538Z" fill="#ADADAD"/>
<path d="M173.756 342.451L112.623 307.158L92.7499 304.782L92.6855 327.832L173.664 374.586C181.385 379.043 187.68 375.474 187.703 366.597C187.73 357.724 181.482 346.913 173.756 342.451Z" fill="#4F4927"/>
<path d="M139.065 291.673L119.192 289.297L23.4746 344.776L43.3473 347.152L79.1975 326.372L88.8945 323.526L109.094 309.045L139.065 291.673Z" fill="#716B42"/>
<path d="M127.355 377.5L110.342 367.679V359.409L127.355 369.235V377.5Z" fill="#4F4927"/>
<path d="M173.833 350.665L127.355 377.5V369.235L173.833 342.4V350.665Z" fill="#656037"/>
<path d="M127.355 369.235L110.342 359.409L156.824 332.579L173.832 342.4L127.355 369.235Z" fill="#827C52"/>
<path d="M83.2256 352.023L66.2168 342.202V333.933L83.2256 343.759V352.023Z" fill="#4F4927"/>
<path d="M129.708 325.189L83.2266 352.024V343.759L129.708 316.924V325.189Z" fill="#656037"/>
<path d="M139.065 291.673L66.2129 333.932L83.2263 343.754L129.621 316.97L161.064 335.125L173.759 342.451C180.095 346.107 185.376 354.035 187.08 361.665L188.369 363.525L200.202 326.966L139.065 291.673Z" fill="#827C52"/>
<path d="M211.727 340.632C210.364 337.552 208.5 334.61 206.313 332.119C204.466 330.014 202.39 328.237 200.193 326.971L173.75 342.455C175.946 343.722 178.018 345.504 179.865 347.603C182.052 350.094 183.917 353.036 185.28 356.117C186.813 359.589 187.706 363.235 187.697 366.601C187.683 371.008 186.127 374.106 183.617 375.566L210.061 360.081C212.57 358.622 214.126 355.523 214.14 351.116C214.154 347.746 213.261 344.099 211.727 340.632Z" fill="url(#paint0_linear_575_22801)"/>
<path opacity="0.4" d="M206.316 332.118L179.873 347.603C182.06 350.094 183.925 353.036 185.288 356.116L211.731 340.632C210.368 337.551 208.499 334.609 206.316 332.118Z" fill="#8B855B"/>
<path d="M69.791 331.667L43.3477 347.152L104.481 382.449L119.091 403.524L130.924 366.965L69.791 331.667Z" fill="#827C52"/>
<path d="M142.453 380.626C141.09 377.546 139.226 374.604 137.039 372.113C135.192 370.008 133.116 368.231 130.924 366.965L104.48 382.45C106.677 383.716 108.749 385.498 110.595 387.597C112.782 390.088 114.647 393.031 116.01 396.111C117.543 399.583 118.437 403.229 118.427 406.595C118.413 411.002 116.857 414.101 114.348 415.56L140.791 400.075C143.301 398.616 144.857 395.517 144.871 391.111C144.88 387.74 143.987 384.098 142.453 380.626Z" fill="url(#paint1_linear_575_22801)"/>
<path opacity="0.4" d="M137.039 372.112L110.596 387.597C112.783 390.088 114.648 393.03 116.011 396.111L142.454 380.626C141.096 377.546 139.226 374.603 137.039 372.112Z" fill="#8B855B"/>
<path d="M104.481 382.449L43.3473 347.156L23.4747 344.78L23.4102 367.83L104.389 414.584C112.115 419.045 118.404 415.472 118.427 406.595C118.455 397.718 112.207 386.906 104.481 382.449Z" fill="#4F4927"/>
<path d="M103.754 416.389L25.1375 370.999C23.3878 369.986 21.7256 368.563 20.2522 366.887C18.4979 364.889 17.0014 362.526 15.9056 360.054C14.6762 357.268 13.9579 354.344 13.9671 351.655C13.9764 348.156 15.2241 345.647 17.25 344.468L4.70304 351.761C2.67708 352.94 1.42922 355.445 1.42001 358.949C1.4108 361.642 2.12905 364.562 3.35843 367.347C4.44969 369.82 5.94613 372.182 7.70503 374.18C9.17845 375.861 10.8361 377.284 12.5904 378.292L91.2067 423.683C95.719 426.289 99.817 426.524 102.778 424.806L115.329 417.513C112.364 419.23 108.266 418.991 103.754 416.389Z" fill="#1B1B1B"/>
<path d="M98.4176 419.516L19.8013 374.125C13.6129 370.552 8.61249 361.868 8.63091 354.777C8.64933 348.331 12.8624 345.251 18.4291 347.645L96.4422 381.059C97.1283 381.363 97.8281 381.713 98.5234 382.118C102.488 384.407 106.291 388.247 109.252 392.962C112.77 398.552 114.759 404.837 114.745 410.215C114.717 420.515 107.387 424.691 98.4176 419.516Z" fill="#4F4927"/>
<path d="M86.6528 382.731C89.5214 381.065 93.4905 381.3 97.8785 383.832C106.618 388.878 113.644 401.089 113.617 411.132C113.603 416.104 111.848 419.613 109.007 421.262L103.864 424.287C106.701 422.638 108.46 419.13 108.473 414.157C108.501 404.115 101.475 391.904 92.7353 386.862C88.3473 384.329 84.3783 384.094 81.5098 385.761L86.6528 382.731Z" fill="#494222"/>
<path d="M92.7359 386.861C101.475 391.908 108.501 404.119 108.474 414.157C108.446 424.157 101.369 428.228 92.6346 423.181C83.8953 418.135 76.8689 405.924 76.8966 395.923C76.9242 385.885 83.9966 381.82 92.7359 386.861Z" fill="#665F34"/>
<mask id="mask0_575_22801" style="mask-type:luminance" maskUnits="userSpaceOnUse" x="79" y="387" width="28" height="36">
<path d="M79.1114 397.429C79.1344 388.805 85.2354 385.328 92.7407 389.661C100.228 393.98 106.282 404.478 106.259 413.102C106.236 421.703 100.135 425.175 92.6531 420.856C85.1433 416.523 79.0838 406.03 79.1114 397.429Z" fill="white"/>
</mask>
<g mask="url(#mask0_575_22801)">
<path d="M83.0706 388.712L96.7642 380.756C94.3284 382.174 92.8137 385.185 92.8044 389.472C92.7814 398.073 98.8407 408.567 106.341 412.899C110.108 415.073 113.524 415.275 115.992 413.839L102.299 421.795C99.8307 423.227 96.4188 423.029 92.6524 420.856C85.1472 416.523 79.0877 406.03 79.1153 397.429C79.1199 393.146 80.6348 390.131 83.0706 388.712Z" fill="#776F3D"/>
</g>
<mask id="mask1_575_22801" style="mask-type:luminance" maskUnits="userSpaceOnUse" x="79" y="387" width="28" height="36">
<path d="M79.1114 397.429C79.1344 388.805 85.2354 385.328 92.7407 389.661C100.228 393.98 106.282 404.478 106.259 413.102C106.236 421.703 100.135 425.175 92.6531 420.856C85.1433 416.523 79.0838 406.03 79.1114 397.429Z" fill="white"/>
</mask>
<g mask="url(#mask1_575_22801)">
<path d="M84.3137 388.027C84.2861 388.036 89.0334 385.278 89.0334 385.278C91.5014 383.842 94.9224 384.044 98.6935 386.222C106.194 390.55 112.254 401.048 112.226 409.663C112.212 413.945 110.702 416.957 108.266 418.37L103.523 421.128C103.86 420.93 104.136 420.631 104.435 420.378C101.935 422.51 98.15 422.662 93.8587 420.184C86.3627 415.856 80.2986 405.358 80.3263 396.743C80.3401 392.452 81.8641 389.436 84.3137 388.027Z" fill="#5A552D"/>
</g>
<mask id="mask2_575_22801" style="mask-type:luminance" maskUnits="userSpaceOnUse" x="79" y="387" width="28" height="36">
<path d="M79.1114 397.429C79.1344 388.805 85.2354 385.328 92.7407 389.661C100.228 393.98 106.282 404.478 106.259 413.102C106.236 421.703 100.135 425.175 92.6531 420.856C85.1433 416.523 79.0838 406.03 79.1114 397.429Z" fill="white"/>
</mask>
<g mask="url(#mask2_575_22801)">
<path d="M94.687 397.669C90.8791 395.173 87.6007 396.343 87.3751 400.279C87.1541 404.216 90.0686 409.452 93.8765 411.947C97.6844 414.443 100.963 413.273 101.188 409.336C101.409 405.4 98.4949 400.164 94.687 397.669ZM93.8995 411.478C90.3449 409.143 87.6191 404.253 87.8263 400.579C88.0335 396.904 91.1 395.809 94.6547 398.138C98.2139 400.468 100.935 405.358 100.728 409.037C100.521 412.716 97.4588 413.807 93.8995 411.478Z" fill="#494222"/>
<path d="M94.5403 395.343C93.7668 394.837 93.1729 393.773 93.2189 392.972C93.265 392.171 93.9326 391.936 94.7062 392.443C95.4797 392.949 96.0736 394.013 96.0276 394.814C95.9815 395.615 95.3139 395.85 94.5403 395.343ZM102.824 403.401C103.404 403.194 103.455 402.273 102.939 401.352C102.69 400.906 102.345 400.523 101.972 400.279C101.599 400.035 101.235 399.952 100.954 400.054C100.673 400.155 100.508 400.422 100.485 400.809C100.462 401.196 100.586 401.656 100.839 402.103C101.088 402.549 101.433 402.932 101.806 403.18C102.179 403.42 102.543 403.502 102.824 403.401ZM102.824 403.401C103.404 403.194 103.455 402.273 102.939 401.352C102.69 400.906 102.345 400.523 101.972 400.279C101.599 400.035 101.235 399.952 100.954 400.054C100.673 400.155 100.508 400.422 100.485 400.809C100.462 401.196 100.586 401.656 100.839 402.103C101.088 402.549 101.433 402.932 101.806 403.18C102.179 403.42 102.543 403.502 102.824 403.401ZM106.098 412.288C106.144 411.487 105.55 410.428 104.776 409.916C104.002 409.41 103.335 409.645 103.293 410.446C103.247 411.247 103.841 412.311 104.615 412.817C105.384 413.328 106.052 413.089 106.098 412.288ZM106.098 412.288C106.144 411.487 105.55 410.428 104.776 409.916C104.002 409.41 103.335 409.645 103.293 410.446C103.247 411.247 103.841 412.311 104.615 412.817C105.384 413.328 106.052 413.089 106.098 412.288ZM102.331 418.854C102.911 418.646 102.962 417.726 102.446 416.805C102.198 416.358 101.852 415.976 101.479 415.732C101.106 415.488 100.743 415.405 100.462 415.506C99.8815 415.714 99.8309 416.634 100.347 417.56C100.595 418.007 100.941 418.389 101.314 418.633C101.691 418.872 102.05 418.955 102.331 418.854ZM102.331 418.854C102.911 418.646 102.962 417.726 102.446 416.805C102.198 416.358 101.852 415.976 101.479 415.732C101.106 415.488 100.743 415.405 100.462 415.506C99.8815 415.714 99.8309 416.634 100.347 417.56C100.595 418.007 100.941 418.389 101.314 418.633C101.691 418.872 102.05 418.955 102.331 418.854ZM95.3323 416.667C95.3783 415.865 94.7844 414.806 94.0109 414.3C93.2373 413.793 92.5697 414.028 92.5237 414.829C92.4776 415.631 93.0715 416.694 93.8451 417.201C94.6186 417.707 95.2863 417.468 95.3323 416.667ZM95.3323 416.667C95.3783 415.865 94.7844 414.806 94.0109 414.3C93.2373 413.793 92.5697 414.028 92.5237 414.829C92.4776 415.631 93.0715 416.694 93.8451 417.201C94.6186 417.707 95.2863 417.468 95.3323 416.667ZM87.5969 409.594C87.8777 409.493 88.0434 409.226 88.0665 408.839C88.0895 408.452 87.9652 407.992 87.7119 407.545C87.4633 407.099 87.118 406.716 86.7451 406.472C86.3721 406.228 86.0083 406.145 85.7274 406.247C85.1473 406.454 85.0967 407.375 85.6123 408.296C85.861 408.742 86.2063 409.125 86.5792 409.369C86.9568 409.613 87.316 409.695 87.5969 409.594ZM87.5969 409.594C87.8777 409.493 88.0434 409.226 88.0665 408.839C88.0895 408.452 87.9652 407.992 87.7119 407.545C87.4633 407.099 87.118 406.716 86.7451 406.472C86.3721 406.228 86.0083 406.145 85.7274 406.247C85.1473 406.454 85.0967 407.375 85.6123 408.296C85.861 408.742 86.2063 409.125 86.5792 409.369C86.9568 409.613 87.316 409.695 87.5969 409.594ZM85.2625 399.193C85.3085 398.392 84.7145 397.328 83.9409 396.821C83.1674 396.315 82.4997 396.554 82.4537 397.351C82.4076 398.152 83.0015 399.211 83.7751 399.722C84.5486 400.233 85.2164 399.994 85.2625 399.193ZM85.2625 399.193C85.3085 398.392 84.7145 397.328 83.9409 396.821C83.1674 396.315 82.4997 396.554 82.4537 397.351C82.4076 398.152 83.0015 399.211 83.7751 399.722C84.5486 400.233 85.2164 399.994 85.2625 399.193ZM88.0895 394.142C88.6697 393.934 88.7203 393.014 88.2046 392.093C87.956 391.646 87.6107 391.264 87.2377 391.02C86.8647 390.776 86.501 390.693 86.2201 390.794C85.6399 391.001 85.5893 391.922 86.105 392.848C86.3536 393.294 86.6989 393.677 87.0719 393.921C87.4495 394.16 87.8086 394.243 88.0895 394.142ZM88.0895 394.142C88.6697 393.934 88.7203 393.014 88.2046 392.093C87.956 391.646 87.6107 391.264 87.2377 391.02C86.8647 390.776 86.501 390.693 86.2201 390.794C85.6399 391.001 85.5893 391.922 86.105 392.848C86.3536 393.294 86.6989 393.677 87.0719 393.921C87.4495 394.16 87.8086 394.243 88.0895 394.142Z" fill="#494222"/>
</g>
<path d="M9.83619 349.966C11.7977 348.829 14.5096 348.99 17.5071 350.721C23.4791 354.17 28.2815 362.518 28.2631 369.378C28.2539 372.776 27.0522 375.175 25.1137 376.299L21.5959 378.366C23.5343 377.238 24.7362 374.844 24.7454 371.441C24.7638 364.58 19.9614 356.233 13.9894 352.784C10.9919 351.053 8.27525 350.891 6.31836 352.029L9.83619 349.966Z" fill="#494222"/>
<path d="M13.9949 352.789C19.9669 356.237 24.7693 364.585 24.7509 371.446C24.7325 378.283 19.8979 381.064 13.926 377.616C7.95399 374.167 3.15156 365.819 3.16997 358.986C3.18839 352.121 8.02298 349.34 13.9949 352.789Z" fill="#665F34"/>
<mask id="mask3_575_22801" style="mask-type:luminance" maskUnits="userSpaceOnUse" x="4" y="353" width="20" height="25">
<path d="M4.68561 360.008C4.70403 354.115 8.87096 351.739 14.0003 354.7C19.1158 357.651 23.2553 364.825 23.2415 370.718C23.2231 376.598 19.056 378.97 13.9404 376.018C8.80649 373.062 4.66719 365.888 4.68561 360.008Z" fill="white"/>
</mask>
<g mask="url(#mask3_575_22801)">
<path d="M7.39291 354.055L16.7537 348.617C15.0869 349.584 14.0556 351.647 14.0464 354.575C14.028 360.455 18.172 367.624 23.3013 370.59C25.8752 372.077 28.2096 372.21 29.8948 371.234L20.534 376.672C18.8488 377.653 16.5143 377.515 13.9404 376.027C8.81107 373.067 4.67177 365.893 4.68558 360.018C4.69019 357.08 5.7261 355.022 7.39291 354.055Z" fill="#776F3D"/>
</g>
<mask id="mask4_575_22801" style="mask-type:luminance" maskUnits="userSpaceOnUse" x="4" y="353" width="20" height="25">
<path d="M4.68561 360.008C4.70403 354.115 8.87096 351.739 14.0003 354.7C19.1158 357.651 23.2553 364.825 23.2415 370.718C23.2231 376.598 19.056 378.97 13.9404 376.018C8.80649 373.062 4.66719 365.888 4.68561 360.008Z" fill="white"/>
</mask>
<g mask="url(#mask4_575_22801)">
<path d="M8.2402 353.585C8.22179 353.59 11.4634 351.707 11.4634 351.707C13.1532 350.726 15.4876 350.864 18.0661 352.351C23.1908 355.312 27.3349 362.486 27.3164 368.375C27.3072 371.299 26.2759 373.361 24.6091 374.328L21.3675 376.211C21.5978 376.078 21.7866 375.871 21.9892 375.696C20.2809 377.155 17.6932 377.257 14.7602 375.562C9.63542 372.602 5.49141 365.428 5.50983 359.539C5.52364 356.606 6.56419 354.548 8.2402 353.585Z" fill="#5A552D"/>
</g>
<mask id="mask5_575_22801" style="mask-type:luminance" maskUnits="userSpaceOnUse" x="4" y="353" width="20" height="25">
<path d="M4.68561 360.008C4.70403 354.115 8.87096 351.739 14.0003 354.7C19.1158 357.651 23.2553 364.825 23.2415 370.718C23.2231 376.598 19.056 378.97 13.9404 376.018C8.80649 373.062 4.66719 365.888 4.68561 360.008Z" fill="white"/>
</mask>
<g mask="url(#mask5_575_22801)">
<path d="M15.3301 360.175C12.7286 358.466 10.4863 359.267 10.3343 361.961C10.1824 364.65 12.1761 368.228 14.7776 369.936C17.3791 371.644 19.6214 370.843 19.7734 368.149C19.9253 365.456 17.9316 361.878 15.3301 360.175ZM14.7914 369.609C12.3602 368.016 10.5 364.673 10.6427 362.159C10.7855 359.645 12.8805 358.899 15.3117 360.492C17.7428 362.085 19.603 365.428 19.4603 367.942C19.3176 370.456 17.2225 371.207 14.7914 369.609Z" fill="#494222"/>
<path d="M15.229 358.586C14.6995 358.24 14.2944 357.513 14.3266 356.965C14.3588 356.417 14.8147 356.256 15.3396 356.601C15.8691 356.947 16.2742 357.674 16.242 358.222C16.2144 358.77 15.7585 358.931 15.229 358.586ZM20.8879 364.093C21.2839 363.95 21.3207 363.324 20.9661 362.693C20.7958 362.389 20.561 362.127 20.3032 361.956C20.0453 361.79 19.8013 361.731 19.6079 361.8C19.4145 361.869 19.304 362.053 19.2856 362.315C19.2718 362.578 19.3546 362.896 19.525 363.199C19.6954 363.503 19.9301 363.766 20.188 363.936C20.4504 364.106 20.6991 364.162 20.8879 364.093ZM20.8879 364.093C21.2839 363.95 21.3207 363.324 20.9661 362.693C20.7958 362.389 20.561 362.127 20.3032 361.956C20.0453 361.79 19.8013 361.731 19.6079 361.8C19.4145 361.869 19.304 362.053 19.2856 362.315C19.2718 362.578 19.3546 362.896 19.525 363.199C19.6954 363.503 19.9301 363.766 20.188 363.936C20.4504 364.106 20.6991 364.162 20.8879 364.093ZM23.1256 370.166C23.1578 369.618 22.7527 368.895 22.2232 368.545C21.6937 368.2 21.2378 368.361 21.2102 368.909C21.178 369.457 21.5831 370.184 22.1126 370.53C22.6421 370.875 23.098 370.714 23.1256 370.166ZM23.1256 370.166C23.1578 369.618 22.7527 368.895 22.2232 368.545C21.6937 368.2 21.2378 368.361 21.2102 368.909C21.178 369.457 21.5831 370.184 22.1126 370.53C22.6421 370.875 23.098 370.714 23.1256 370.166ZM20.5518 374.655C20.9477 374.512 20.9846 373.886 20.63 373.255C20.4597 372.947 20.2249 372.689 19.9671 372.519C19.7092 372.353 19.4652 372.298 19.2718 372.367C18.8758 372.51 18.839 373.136 19.1935 373.771C19.3639 374.075 19.5986 374.337 19.8565 374.503C20.1143 374.664 20.363 374.72 20.5518 374.655ZM20.5518 374.655C20.9477 374.512 20.9846 373.886 20.63 373.255C20.4597 372.947 20.2249 372.689 19.9671 372.519C19.7092 372.353 19.4652 372.298 19.2718 372.367C18.8758 372.51 18.839 373.136 19.1935 373.771C19.3639 374.075 19.5986 374.337 19.8565 374.503C20.1143 374.664 20.363 374.72 20.5518 374.655ZM15.7677 373.159C15.8 372.611 15.3949 371.888 14.8653 371.538C14.3358 371.193 13.88 371.354 13.8524 371.902C13.8201 372.45 14.2252 373.177 14.7548 373.523C15.2843 373.868 15.7401 373.707 15.7677 373.159ZM15.7677 373.159C15.8 372.611 15.3949 371.888 14.8653 371.538C14.3358 371.193 13.88 371.354 13.8524 371.902C13.8201 372.45 14.2252 373.177 14.7548 373.523C15.2843 373.868 15.7401 373.707 15.7677 373.159ZM10.4818 368.324C10.6752 368.255 10.7857 368.071 10.8041 367.808C10.8179 367.546 10.7351 367.228 10.5647 366.924C10.3943 366.62 10.1596 366.358 9.90174 366.188C9.64389 366.022 9.39985 365.967 9.20646 366.036C8.81048 366.178 8.77365 366.805 9.12819 367.435C9.29856 367.739 9.53327 368.002 9.78651 368.168C10.0444 368.338 10.293 368.393 10.4818 368.324ZM10.4818 368.324C10.6752 368.255 10.7857 368.071 10.8041 367.808C10.8179 367.546 10.7351 367.228 10.5647 366.924C10.3943 366.62 10.1596 366.358 9.90174 366.188C9.64389 366.022 9.39985 365.967 9.20646 366.036C8.81048 366.178 8.77365 366.805 9.12819 367.435C9.29856 367.739 9.53327 368.002 9.78651 368.168C10.0444 368.338 10.293 368.393 10.4818 368.324ZM8.88875 361.215C8.92098 360.667 8.51573 359.939 7.98621 359.594C7.4567 359.249 7.00082 359.41 6.96859 359.958C6.93636 360.506 7.34162 361.229 7.87113 361.579C8.40064 361.924 8.85652 361.763 8.88875 361.215ZM8.88875 361.215C8.92098 360.667 8.51573 359.939 7.98621 359.594C7.4567 359.249 7.00082 359.41 6.96859 359.958C6.93636 360.506 7.34162 361.229 7.87113 361.579C8.40064 361.924 8.85652 361.763 8.88875 361.215ZM10.818 357.762C11.214 357.619 11.2509 356.993 10.8963 356.357C10.7259 356.053 10.4911 355.791 10.2332 355.62C9.97536 355.455 9.73132 355.399 9.53794 355.469C9.14196 355.611 9.10513 356.237 9.45967 356.868C9.63003 357.172 9.86492 357.435 10.1228 357.6C10.3806 357.775 10.6293 357.831 10.818 357.762ZM10.818 357.762C11.214 357.619 11.2509 356.993 10.8963 356.357C10.7259 356.053 10.4911 355.791 10.2332 355.62C9.97536 355.455 9.73132 355.399 9.53794 355.469C9.14196 355.611 9.10513 356.237 9.45967 356.868C9.63003 357.172 9.86492 357.435 10.1228 357.6C10.3806 357.775 10.6293 357.831 10.818 357.762Z" fill="#494222"/>
</g>
<path d="M23.6278 343.17C20.8237 341.968 18.3327 342.023 16.4541 343.114L3.90234 350.408C5.78096 349.317 8.27203 349.261 11.0761 350.463L89.0708 383.868L101.622 376.575L23.6278 343.17Z" fill="#2C2C2C"/>
<path d="M118.18 394.652C117.378 392.833 116.425 391.037 115.334 389.297C114.164 387.441 112.871 385.705 111.489 384.13C109.132 381.446 106.526 379.236 103.86 377.698C103.114 377.27 102.368 376.892 101.622 376.565L89.0703 383.859C89.8162 384.181 90.5621 384.559 91.308 384.992C93.974 386.529 96.5802 388.74 98.9377 391.424C100.319 392.999 101.613 394.73 102.782 396.59C103.874 398.326 104.827 400.126 105.628 401.945C107.589 406.384 108.658 410.942 108.644 415.022C108.63 420.496 106.687 424.35 103.565 426.169L116.112 418.876C119.234 417.061 121.177 413.203 121.191 407.728C121.209 403.649 120.141 399.09 118.18 394.652Z" fill="#333333"/>
<path d="M102.787 396.59C99.6234 391.562 95.5439 387.437 91.3124 384.992C90.5665 384.559 89.8205 384.181 89.0745 383.859L11.0799 350.454C4.95136 347.829 0.319271 351.2 0.300853 358.29C0.277831 366.095 5.79395 375.649 12.5855 379.572L91.2018 424.963C100.793 430.497 108.62 426.04 108.653 415.017C108.667 409.271 106.535 402.567 102.787 396.59ZM91.2018 423.678L12.5855 378.287C6.39713 374.714 1.39673 366.03 1.41515 358.94C1.43357 352.493 5.64673 349.413 11.2135 351.807L89.2266 385.217C89.9126 385.521 90.6125 385.876 91.3078 386.276C95.2722 388.565 99.0754 392.405 102.036 397.12C105.554 402.709 107.543 408.995 107.529 414.368C107.502 424.682 100.171 428.858 91.2018 423.678Z" fill="#252525"/>
<path d="M34.1268 372.114C35.3885 371.381 37.1382 371.483 39.072 372.597C42.9214 374.821 46.0156 380.199 46.0064 384.619C46.0018 386.811 45.2282 388.353 43.9758 389.081L40.9368 390.863C42.1846 390.135 42.9582 388.593 42.9674 386.401C42.9812 381.981 39.8824 376.598 36.0331 374.379C34.0992 373.265 32.3541 373.159 31.0879 373.896L34.1268 372.114Z" fill="#494222"/>
<path d="M36.0323 374.379C39.8816 376.603 42.9759 381.981 42.9667 386.402C42.9529 390.808 39.8356 392.599 35.9909 390.38C32.1416 388.156 29.0475 382.778 29.0567 378.372C29.0659 373.951 32.183 372.16 36.0323 374.379Z" fill="#665F34"/>
<mask id="mask6_575_22801" style="mask-type:luminance" maskUnits="userSpaceOnUse" x="30" y="374" width="12" height="17">
<path d="M30.0274 379.034C30.0366 375.236 32.7255 373.707 36.0315 375.613C39.3283 377.515 41.9989 382.138 41.985 385.936C41.9758 389.726 39.2868 391.254 35.99 389.353C32.6887 387.447 30.0182 382.824 30.0274 379.034Z" fill="white"/>
</mask>
<g mask="url(#mask6_575_22801)">
<path d="M31.7725 375.194L37.8043 371.69C36.7314 372.317 36.0638 373.643 36.0592 375.531C36.05 379.32 38.7159 383.943 42.0219 385.849C43.6795 386.807 45.1852 386.894 46.2718 386.263L40.24 389.767C39.1533 390.398 37.6477 390.311 35.9901 389.353C32.6841 387.442 30.0136 382.824 30.0274 379.035C30.032 377.147 30.6996 375.821 31.7725 375.194Z" fill="#776F3D"/>
</g>
<mask id="mask7_575_22801" style="mask-type:luminance" maskUnits="userSpaceOnUse" x="30" y="374" width="12" height="17">
<path d="M30.0274 379.034C30.0366 375.236 32.7255 373.707 36.0315 375.613C39.3283 377.515 41.9989 382.138 41.985 385.936C41.9758 389.726 39.2868 391.254 35.99 389.353C32.6887 387.447 30.0182 382.824 30.0274 379.034Z" fill="white"/>
</mask>
<g mask="url(#mask7_575_22801)">
<path d="M32.3201 374.895C32.3109 374.899 34.3967 373.684 34.3967 373.684C35.4833 373.053 36.9891 373.14 38.6513 374.098C41.9526 376.004 44.6233 380.627 44.6141 384.426C44.6095 386.309 43.9418 387.64 42.869 388.261L40.7785 389.477C40.9259 389.39 41.0502 389.261 41.1791 389.145C40.0787 390.085 38.4118 390.154 36.5193 389.063C33.218 387.156 30.5475 382.533 30.5567 378.735C30.5705 376.842 31.2427 375.516 32.3201 374.895Z" fill="#5A552D"/>
</g>
<mask id="mask8_575_22801" style="mask-type:luminance" maskUnits="userSpaceOnUse" x="30" y="374" width="12" height="17">
<path d="M30.0274 379.034C30.0366 375.236 32.7255 373.707 36.0315 375.613C39.3283 377.515 41.9989 382.138 41.985 385.936C41.9758 389.726 39.2868 391.254 35.99 389.353C32.6887 387.447 30.0182 382.824 30.0274 379.034Z" fill="white"/>
</mask>
<g mask="url(#mask8_575_22801)">
<path d="M36.8877 379.14C35.2117 378.04 33.7659 378.555 33.6692 380.291C33.5725 382.027 34.8572 384.329 36.5332 385.43C38.2092 386.53 39.655 386.015 39.7517 384.279C39.853 382.543 38.5683 380.241 36.8877 379.14ZM36.5516 385.089C35.0552 384.108 33.9087 382.05 33.9962 380.508C34.0836 378.961 35.3729 378.5 36.8693 379.481C38.3657 380.462 39.5122 382.52 39.4247 384.062C39.3373 385.609 38.048 386.07 36.5516 385.089Z" fill="#494222"/>
</g>
<path d="M49.0558 380.738C50.3174 380.006 52.0671 380.107 54.001 381.221C57.8503 383.445 60.9444 388.823 60.9352 393.243C60.9306 395.435 60.1571 396.977 58.9047 397.705L55.8658 399.487C57.1136 398.759 57.8916 397.217 57.8963 395.025C57.9101 390.6 54.8113 385.222 50.9665 383.003C49.0327 381.889 47.2831 381.783 46.0215 382.52L49.0558 380.738Z" fill="#494222"/>
<path d="M50.9629 383.003C54.8122 385.226 57.9064 390.604 57.8926 395.025C57.8788 399.431 54.7661 401.222 50.9168 398.998C47.0675 396.774 43.9732 391.396 43.9824 386.99C43.9963 382.57 47.1136 380.779 50.9629 383.003Z" fill="#665F34"/>
<mask id="mask9_575_22801" style="mask-type:luminance" maskUnits="userSpaceOnUse" x="44" y="383" width="13" height="16">
<path d="M44.959 387.654C44.9682 383.855 47.6573 382.322 50.9633 384.232C54.2601 386.134 56.9306 390.757 56.9168 394.556C56.9076 398.345 54.2186 399.874 50.9218 397.972C47.6204 396.066 44.9498 391.443 44.959 387.654Z" fill="white"/>
</mask>
<g mask="url(#mask9_575_22801)">
<path d="M46.7041 383.818L52.7359 380.314C51.6631 380.936 50.9955 382.267 50.9908 384.155C50.9816 387.944 53.6477 392.567 56.9537 394.473C58.6113 395.431 60.1169 395.518 61.2036 394.887L55.1718 398.391C54.0851 399.022 52.5795 398.935 50.9219 397.977C47.6159 396.066 44.9452 391.448 44.959 387.659C44.9636 385.771 45.6313 384.44 46.7041 383.818Z" fill="#776F3D"/>
</g>
<mask id="mask10_575_22801" style="mask-type:luminance" maskUnits="userSpaceOnUse" x="44" y="383" width="13" height="16">
<path d="M44.959 387.654C44.9682 383.855 47.6573 382.322 50.9633 384.232C54.2601 386.134 56.9306 390.757 56.9168 394.556C56.9076 398.345 54.2186 399.874 50.9218 397.972C47.6204 396.066 44.9498 391.443 44.959 387.654Z" fill="white"/>
</mask>
<g mask="url(#mask10_575_22801)">
<path d="M47.2518 383.514C47.238 383.518 49.3283 382.303 49.3283 382.303C50.415 381.672 51.9207 381.76 53.5829 382.717C56.8843 384.624 59.5548 389.246 59.5456 393.045C59.541 394.933 58.8733 396.259 57.8005 396.881L55.7102 398.096C55.8575 398.009 55.9817 397.88 56.1107 397.765C55.0102 398.704 53.3434 398.773 51.451 397.682C48.1496 395.775 45.4791 391.153 45.4883 387.354C45.5021 385.461 46.1743 384.135 47.2518 383.514Z" fill="#5A552D"/>
</g>
<mask id="mask11_575_22801" style="mask-type:luminance" maskUnits="userSpaceOnUse" x="44" y="383" width="13" height="16">
<path d="M44.959 387.654C44.9682 383.855 47.6573 382.322 50.9633 384.232C54.2601 386.134 56.9306 390.757 56.9168 394.556C56.9076 398.345 54.2186 399.874 50.9218 397.972C47.6204 396.066 44.9498 391.443 44.959 387.654Z" fill="white"/>
</mask>
<g mask="url(#mask11_575_22801)">
<path d="M51.8252 387.759C50.1492 386.659 48.7034 387.175 48.6067 388.91C48.51 390.646 49.7947 392.949 51.4707 394.049C53.1467 395.149 54.5925 394.634 54.6892 392.898C54.7859 391.167 53.5012 388.86 51.8252 387.759ZM51.4845 393.708C49.988 392.728 48.8415 390.669 48.929 389.127C49.0165 387.58 50.3057 387.119 51.8022 388.1C53.2986 389.081 54.4452 391.139 54.3577 392.681C54.2703 394.229 52.9809 394.689 51.4845 393.708Z" fill="#494222"/>
</g>
<path d="M63.9888 389.357C65.2504 388.625 67.0001 388.726 68.934 389.84C72.7833 392.064 75.8775 397.442 75.8637 401.862C75.8591 404.054 75.0855 405.597 73.8331 406.324L70.7941 408.101C72.0419 407.374 72.8155 405.831 72.8247 403.64C72.8385 399.215 69.7398 393.837 65.8905 391.618C63.9566 390.503 62.2115 390.397 60.9453 391.134L63.9888 389.357Z" fill="#494222"/>
<path d="M65.8956 391.622C69.7449 393.846 72.8392 399.224 72.83 403.644C72.8161 408.05 69.6989 409.842 65.8542 407.622C62.0048 405.398 58.9107 400.02 58.9199 395.614C58.9292 391.194 62.0463 389.398 65.8956 391.622Z" fill="#665F34"/>
<mask id="mask12_575_22801" style="mask-type:luminance" maskUnits="userSpaceOnUse" x="59" y="392" width="13" height="16">
<path d="M59.8906 396.278C59.8999 392.479 62.5888 390.946 65.8948 392.856C69.1916 394.758 71.8621 399.381 71.8483 403.18C71.8391 406.969 69.1501 408.498 65.8533 406.596C62.5519 404.685 59.8814 400.067 59.8906 396.278Z" fill="white"/>
</mask>
<g mask="url(#mask12_575_22801)">
<path d="M61.6358 392.438L67.6676 388.934C66.5947 389.555 65.9271 390.886 65.9225 392.774C65.9133 396.563 68.5793 401.186 71.8853 403.092C73.5429 404.05 75.0484 404.138 76.1351 403.507L70.1033 407.011C69.0166 407.641 67.511 407.554 65.8534 406.596C62.5474 404.685 59.8769 400.067 59.8907 396.278C59.8953 394.39 60.5629 393.064 61.6358 392.438Z" fill="#776F3D"/>
</g>
<mask id="mask13_575_22801" style="mask-type:luminance" maskUnits="userSpaceOnUse" x="59" y="392" width="13" height="16">
<path d="M59.8906 396.278C59.8999 392.479 62.5888 390.946 65.8948 392.856C69.1916 394.758 71.8621 399.381 71.8483 403.18C71.8391 406.969 69.1501 408.498 65.8533 406.596C62.5519 404.685 59.8814 400.067 59.8906 396.278Z" fill="white"/>
</mask>
<g mask="url(#mask13_575_22801)">
<path d="M62.1834 392.134C62.1696 392.139 64.2601 390.923 64.2601 390.923C65.3468 390.292 66.8523 390.38 68.5145 391.337C71.8159 393.244 74.4866 397.866 74.4774 401.661C74.4728 403.548 73.8051 404.874 72.7323 405.496L70.6418 406.712C70.7892 406.624 70.9135 406.495 71.0424 406.38C69.942 407.319 68.2752 407.388 66.3828 406.297C63.0814 404.391 60.4107 399.768 60.4199 395.969C60.4338 394.082 61.106 392.756 62.1834 392.134Z" fill="#5A552D"/>
</g>
<mask id="mask14_575_22801" style="mask-type:luminance" maskUnits="userSpaceOnUse" x="59" y="392" width="13" height="16">
<path d="M59.8906 396.278C59.8999 392.479 62.5888 390.946 65.8948 392.856C69.1916 394.758 71.8621 399.381 71.8483 403.18C71.8391 406.969 69.1501 408.498 65.8533 406.596C62.5519 404.685 59.8814 400.067 59.8906 396.278Z" fill="white"/>
</mask>
<g mask="url(#mask14_575_22801)">
<path d="M66.751 396.383C65.075 395.283 63.6292 395.799 63.5325 397.534C63.4358 399.27 64.7205 401.573 66.3965 402.673C68.0725 403.773 69.5183 403.258 69.615 401.522C69.7163 399.786 68.4316 397.479 66.751 396.383ZM66.4149 402.332C64.9184 401.352 63.772 399.293 63.8594 397.751C63.9469 396.204 65.2361 395.743 66.7326 396.724C68.229 397.705 69.3755 399.763 69.288 401.306C69.2005 402.853 67.9113 403.313 66.4149 402.332Z" fill="#494222"/>
</g>
<path opacity="0.4" d="M58.8086 370.903L58.2286 370.654L70.8263 363.384L71.4065 363.632L58.8086 370.903ZM61.5897 359.428L61.0096 359.18L48.4118 366.455L48.992 366.703L61.5897 359.428ZM81.2231 367.836L80.6429 367.587L68.0452 374.858L68.6254 375.106L81.2231 367.836ZM51.7731 355.22L51.1929 354.971L38.5952 362.242L39.1754 362.49L51.7731 355.22ZM19.542 354.087L32.1397 346.812L31.5595 346.564L18.9618 353.834L19.542 354.087ZM91.0398 372.04L90.4597 371.791L77.8618 379.062L78.442 379.31L91.0398 372.04ZM41.9565 351.016L41.3763 350.767L28.7784 358.038L29.3586 358.286L41.9565 351.016ZM114.255 387.723C114.159 387.584 114.067 387.442 113.97 387.304L101.4 394.56C101.496 394.698 101.589 394.841 101.685 394.979L114.255 387.723ZM119.827 414.663L107.303 421.892C107.165 422.192 107.003 422.463 106.847 422.739L119.357 415.515C119.518 415.239 119.684 414.967 119.827 414.663ZM108.629 415.395C108.624 415.603 108.61 415.796 108.601 415.994L121.148 408.751C121.157 408.553 121.171 408.355 121.176 408.148L108.629 415.395ZM9.57335 349.971L22.1757 342.696C21.9547 342.631 21.7292 342.539 21.5128 342.493L8.89648 349.777C9.11289 349.823 9.34773 349.906 9.57335 349.971ZM108.491 381.129L95.9113 388.395C96.0449 388.51 96.1737 388.634 96.3027 388.754L108.882 381.488C108.753 381.364 108.62 381.244 108.491 381.129ZM100.861 376.244L100.281 375.995L87.6832 383.266L88.2633 383.514L100.861 376.244ZM120.425 401.32L107.865 408.572C107.906 408.751 107.924 408.922 107.961 409.101L120.517 401.854C120.481 401.674 120.467 401.499 120.425 401.32ZM118.068 394.427C117.999 394.275 117.916 394.123 117.847 393.971L105.281 401.227C105.35 401.379 105.433 401.531 105.502 401.683L118.068 394.427Z" fill="#2C2C2C"/>
<path opacity="0.1" d="M104.859 400.362L117.407 393.068C116.776 391.793 116.104 390.531 115.33 389.302C114.161 387.446 112.867 385.71 111.485 384.136L98.9336 391.429C100.315 393.004 101.609 394.735 102.778 396.595C103.556 397.82 104.233 399.086 104.859 400.362Z" fill="#ADADAD"/>
<path d="M164.537 288.468L150.737 232.795C150.452 231.607 150.046 230.438 149.545 229.305C148.605 227.182 147.334 225.207 145.879 223.549C144.604 222.099 143.195 220.897 141.745 220.059C140.773 219.498 139.783 219.102 138.811 218.904C137.32 218.6 136.03 218.793 134.994 219.396L130.768 221.86C131.804 221.257 133.093 221.063 134.585 221.372C135.561 221.57 136.546 221.966 137.518 222.527C138.968 223.365 140.382 224.567 141.652 226.018C143.107 227.675 144.378 229.65 145.318 231.773C145.82 232.906 146.225 234.08 146.51 235.263L160.31 290.936C161.511 295.858 160.374 299.306 158.026 300.669L162.253 298.206C164.601 296.838 165.738 293.39 164.537 288.468Z" fill="#343637"/>
<path d="M160.313 290.93L146.514 235.258C145.22 229.899 141.513 224.824 137.521 222.522C136.55 221.961 135.56 221.564 134.588 221.367C129.602 220.344 126.853 224.917 128.451 231.575L142.356 287.394C143.259 291.082 145.381 294.826 148.112 297.524C149.203 298.606 150.294 299.449 151.349 300.056C157.44 303.574 162.395 299.467 160.313 290.93Z" fill="#212322"/>
<path d="M164.478 294.426L156.107 299.288L161.112 318.433L169.479 313.566L164.478 294.426Z" fill="#656037"/>
<path d="M163.331 291.157C162.364 288.974 161.052 286.916 159.528 285.185C158.216 283.689 156.747 282.436 155.214 281.552C152.474 279.968 149.992 279.825 148.201 280.866L139.83 285.728C141.621 284.688 144.103 284.83 146.843 286.414C148.371 287.298 149.84 288.551 151.152 290.047C152.677 291.779 153.989 293.837 154.956 296.019C155.425 297.087 155.817 298.183 156.102 299.288L164.473 294.426C164.192 293.321 163.801 292.225 163.331 291.157Z" fill="#827C52"/>
<path d="M146.847 286.414C151.019 288.822 154.725 293.979 156.107 299.288L161.107 318.433L136.92 304.468L136.957 292.05C136.975 285.797 141.4 283.264 146.847 286.414Z" fill="#4F4927"/>
<path opacity="0.4" d="M159.527 285.181L151.156 290.043C152.68 291.774 153.993 293.832 154.96 296.015L163.33 291.153C162.364 288.975 161.051 286.917 159.527 285.181Z" fill="#8B855B"/>
<path d="M187.757 223.633C184.304 217.237 179.386 212.043 174.413 209.17C171.683 207.591 168.934 206.716 166.397 206.721C162.667 206.725 159.964 208.489 158.288 211.371L116.319 222.238C109.159 224.084 107.547 234.67 112.718 245.872C115.835 252.622 120.702 258.051 125.638 260.901C128.903 262.784 132.2 263.544 135.05 262.807L177.033 251.946C179.8 253.064 182.535 253.419 184.967 252.793C193.558 250.569 195.055 237.152 187.757 223.633Z" fill="#4F4927"/>
<path d="M150.175 296.761L136.376 241.088C136.09 239.9 135.685 238.726 135.183 237.598C134.244 235.476 132.973 233.5 131.518 231.843C130.243 230.392 128.834 229.19 127.383 228.352C126.412 227.791 125.422 227.395 124.45 227.197C122.958 226.893 121.669 227.086 120.633 227.685L116.406 230.148C117.442 229.545 118.732 229.352 120.223 229.655C121.2 229.853 122.185 230.249 123.156 230.811C124.607 231.649 126.02 232.851 127.291 234.301C128.746 235.959 130.017 237.934 130.956 240.057C131.458 241.19 131.863 242.364 132.149 243.547L145.948 299.219C147.15 304.142 146.013 307.59 143.665 308.953L147.891 306.49C150.24 305.132 151.377 301.683 150.175 296.761Z" fill="#343637"/>
<path d="M145.948 299.224L132.149 243.552C130.855 238.192 127.148 233.118 123.156 230.816C122.185 230.254 121.195 229.858 120.223 229.66C115.237 228.638 112.488 233.21 114.085 239.868L127.991 295.693C128.893 299.381 131.021 303.124 133.746 305.823C134.838 306.905 135.929 307.743 136.983 308.355C143.08 311.868 148.034 307.761 145.948 299.224Z" fill="#212322"/>
<path d="M154.066 261.412L141.984 268.388L143.458 279.95L158.1 271.496L154.066 261.412Z" fill="#343637"/>
<path d="M189.58 226.658C189.115 225.608 188.599 224.554 188.028 223.495C186.49 220.645 184.658 218.034 182.659 215.759C180.177 212.932 177.433 210.625 174.675 209.032C171.949 207.457 169.205 206.583 166.677 206.592C164.845 206.592 163.252 207.025 161.912 207.803L155.152 211.73C156.492 210.952 158.081 210.519 159.918 210.519C162.446 210.51 165.19 211.39 167.916 212.964C170.674 214.558 173.414 216.864 175.9 219.692C177.898 221.966 179.731 224.577 181.269 227.427C181.84 228.486 182.355 229.54 182.82 230.59C187.747 241.733 186.716 252.185 180.707 255.68L187.466 251.752C193.48 248.257 194.506 237.801 189.58 226.658Z" fill="#C8CCCE"/>
<path d="M168.045 212.91C158.118 207.182 150.074 211.823 150.074 223.288C150.074 234.749 158.118 248.686 168.045 254.414C177.972 260.147 186.017 255.501 186.017 244.04C186.017 232.575 177.972 218.642 168.045 212.91Z" fill="#8E9397"/>
<path opacity="0.6" d="M167.273 217.229C159.104 212.514 152.479 216.335 152.479 225.77C152.479 235.204 159.1 246.674 167.273 251.389C175.441 256.104 182.067 252.282 182.067 242.848C182.067 233.418 175.441 221.943 167.273 217.229ZM167.273 250.661C159.454 246.149 153.114 235.167 153.114 226.138C153.114 217.109 159.454 213.448 167.273 217.965C175.091 222.482 181.431 233.459 181.431 242.489C181.431 251.513 175.095 255.174 167.273 250.661Z" fill="#8E9397"/>
<path d="M143.131 301.365C143.131 305.371 140.318 306.992 136.851 304.989C133.384 302.986 130.57 298.119 130.57 294.113C130.57 290.107 133.384 288.486 136.851 290.489C140.322 292.497 143.131 297.364 143.131 301.365Z" fill="#4F4927"/>
<path d="M213.938 175.259L235.077 162.975L234.994 192.236L213.855 204.52L213.938 175.259Z" fill="#656037"/>
<path d="M197.17 135.338L218.309 123.054L235.078 162.974L213.939 175.259L197.17 135.338Z" fill="#90895B"/>
<path d="M148.412 107.187L169.551 94.9023L218.308 123.054L197.169 135.339L148.412 107.187Z" fill="#827C52"/>
<path d="M197.169 135.338L213.939 175.259L213.856 204.52L148.408 166.736L148.413 107.187L197.169 135.338Z" fill="#4F4927"/>
<path d="M215.756 179.44L215.705 197.301C215.7 198.908 217.446 199.916 218.836 199.11L230.835 192.139C232.295 191.292 233.197 189.731 233.202 188.037L233.253 170.176C233.257 168.569 231.512 167.561 230.122 168.371L218.122 175.342C216.663 176.189 215.76 177.75 215.756 179.44Z" fill="#292B2B"/>
<path d="M226.926 189.878C228.386 189.031 229.288 187.47 229.293 185.776L229.339 168.817L218.118 175.337C216.658 176.184 215.756 177.745 215.751 179.44L215.705 196.398L226.926 189.878Z" fill="#212322"/>
<path d="M150.88 251.393L132.619 291.465C131.767 293.33 130.542 294.707 129.041 295.582L184.11 263.636C185.611 262.761 186.841 261.385 187.688 259.52L205.949 219.447L150.88 251.393Z" fill="#5C562C"/>
<path d="M135.431 178.73L80.3574 210.676L150.879 251.393L205.948 219.448L135.431 178.73Z" fill="#443F22"/>
<path d="M233.31 214.531L237.127 206.727L237.104 215.816L233.264 230.605L233.31 214.531Z" fill="#867E50"/>
<path d="M203.293 143.332L210.191 142.835L237.127 206.726L233.309 214.531L203.293 143.332Z" fill="#A1996A"/>
<path d="M137.518 105.359L148.453 107.187L210.189 142.835L203.292 143.332L137.518 105.359Z" fill="#999161"/>
<path d="M169.196 254.93L186.619 257.365L161.17 258.332L148.854 255.708L169.196 254.93Z" fill="#443E1D"/>
<path d="M186.665 241.291L233.308 214.53L233.262 230.604L186.619 257.365L186.665 241.291Z" fill="#656037"/>
<path d="M169.225 245.841L186.667 241.292L186.621 257.366L169.197 254.93L169.225 245.841Z" fill="#5A5531"/>
<path d="M156.65 170.093L203.293 143.332L233.31 214.531L186.667 241.292L156.65 170.093Z" fill="#90895B"/>
<path d="M161.502 171.732L201.441 148.82L228.455 212.891L188.516 235.807L161.502 171.732Z" fill="#827C52"/>
<path d="M90.875 132.12L137.518 105.359L203.292 143.332L156.65 170.093L90.875 132.12Z" fill="#827C52"/>
<path d="M142.289 181.949L156.65 170.093L186.667 241.291L169.225 245.841L142.289 181.949Z" fill="#867E50"/>
<path d="M169.224 245.841L142.288 181.949L80.5474 146.302L80.3632 210.677L80.1836 273.057L117.176 294.418C123.926 298.317 130.027 297.153 132.619 291.461L148.914 255.703L169.197 254.93L169.224 245.841Z" fill="#4F4927"/>
<path d="M80.5469 146.302L90.8747 132.12L156.649 170.093L142.288 181.949L80.5469 146.302Z" fill="#766E40"/>
<path d="M125.013 226.599L146.156 214.314L146.069 243.576L124.93 255.86L125.013 226.599Z" fill="#656037"/>
<path d="M108.248 186.678L129.387 174.394L146.156 214.314L125.013 226.599L108.248 186.678Z" fill="#90895B"/>
<path d="M59.4902 158.527L80.6293 146.242L129.386 174.394L108.247 186.678L59.4902 158.527Z" fill="#827C52"/>
<path d="M108.247 186.678L125.012 226.598L124.929 255.86L59.4863 218.076L59.491 158.526L108.247 186.678Z" fill="#4F4927"/>
<path d="M126.822 230.788L126.771 248.649C126.767 250.261 128.512 251.264 129.902 250.459L141.902 243.487C143.366 242.64 144.264 241.079 144.268 239.385L144.319 221.524C144.324 219.913 142.579 218.909 141.188 219.715L129.189 226.686C127.725 227.538 126.827 229.099 126.822 230.788Z" fill="#292B2B"/>
<path d="M137.993 241.227C139.452 240.38 140.355 238.819 140.359 237.124L140.405 220.166L129.184 226.686C127.725 227.533 126.822 229.099 126.818 230.789L126.771 247.747L137.993 241.227Z" fill="#212322"/>
<path d="M84.521 334.67L70.7215 278.998C70.436 277.81 70.0308 276.635 69.5289 275.507C68.5896 273.385 67.3188 271.409 65.8638 269.752C64.5884 268.301 63.1794 267.1 61.729 266.262C60.7574 265.7 59.7675 265.304 58.796 265.106C57.3041 264.802 56.0148 264.995 54.9788 265.594L50.752 268.057C51.788 267.454 53.0772 267.261 54.5691 267.569C55.5452 267.767 56.5305 268.163 57.5021 268.725C58.9525 269.563 60.3661 270.765 61.6369 272.215C63.0919 273.873 64.3627 275.848 65.302 277.971C65.8039 279.103 66.2091 280.278 66.4946 281.461L80.2941 337.133C81.4959 342.055 80.3586 345.504 78.0103 346.867L82.2372 344.404C84.5809 343.036 85.7228 339.587 84.521 334.67Z" fill="#343637"/>
<path d="M80.2939 337.134L66.4943 281.461C65.2005 276.102 61.4939 271.028 57.5019 268.725C56.5303 268.164 55.5404 267.768 54.5689 267.57C49.5822 266.547 46.8334 271.12 48.4311 277.778L62.3366 333.602C63.2391 337.29 65.3663 341.034 68.0922 343.732C69.1834 344.814 70.2747 345.652 71.3291 346.264C77.4208 349.773 82.3797 345.666 80.2939 337.134Z" fill="#212322"/>
<path d="M84.4626 340.623L76.0918 345.485L81.0922 364.631L89.4631 359.768L84.4626 340.623Z" fill="#656037"/>
<path d="M83.3116 337.354C82.3447 335.172 81.0325 333.114 79.5084 331.382C78.1962 329.886 76.7273 328.633 75.194 327.749C72.4544 326.165 69.9725 326.023 68.1814 327.063L59.8105 331.926C61.6017 330.885 64.0835 331.032 66.8232 332.612C68.3518 333.496 69.8206 334.748 71.1374 336.245C72.6569 337.976 73.9739 340.034 74.9408 342.221C75.4105 343.289 75.8018 344.385 76.0873 345.49L84.4581 340.628C84.1726 339.518 83.7859 338.422 83.3116 337.354Z" fill="#827C52"/>
<path d="M66.8315 332.611C71.0031 335.019 74.7098 340.176 76.0911 345.49L81.0915 364.635L56.9043 350.67L56.9413 338.247C56.9597 331.999 61.3798 329.466 66.8315 332.611Z" fill="#4F4927"/>
<path opacity="0.4" d="M79.5115 331.382L71.1406 336.244C72.6601 337.975 73.9769 340.034 74.9438 342.221L83.3148 337.358C82.3479 335.171 81.0309 333.113 79.5115 331.382Z" fill="#8B855B"/>
<path d="M49.8189 260.579C49.1052 260.764 48.4468 261.035 47.8436 261.385L34.3203 269.24C34.9235 268.89 35.582 268.619 36.2957 268.435L78.2652 257.568L91.7885 249.713L49.8189 260.579Z" fill="#5C562C"/>
<path d="M121.598 265.829C121.137 264.784 120.622 263.729 120.051 262.679C118.513 259.825 116.68 257.209 114.682 254.935C112.2 252.108 109.46 249.805 106.702 248.212C103.972 246.638 101.223 245.758 98.6859 245.763C96.8533 245.763 95.2648 246.191 93.9249 246.969L81.6172 254.129C82.9571 253.351 84.541 252.923 86.3782 252.923C88.9152 252.918 91.6641 253.797 94.3945 255.372C97.1526 256.965 99.8923 259.268 102.37 262.095C104.368 264.369 106.2 266.985 107.738 269.839C108.305 270.894 108.82 271.944 109.285 272.989C114.207 284.127 113.176 294.597 107.163 298.092L119.47 290.932C125.488 287.438 126.52 276.962 121.598 265.829Z" fill="url(#paint2_linear_575_22801)"/>
<path d="M107.742 269.835C104.289 263.439 99.3756 258.246 94.3982 255.372C91.6678 253.798 88.9189 252.918 86.3819 252.923C82.6523 252.927 79.9495 254.691 78.2689 257.573L36.2994 268.44C29.1395 270.286 27.5279 280.872 32.6987 292.074C35.8205 298.825 40.6828 304.253 45.6188 307.103C48.8833 308.987 52.1801 309.746 55.0303 309.01L97.0135 298.148C99.7854 299.267 102.516 299.621 104.947 298.995C113.544 296.766 115.04 283.354 107.742 269.835Z" fill="#4F4927"/>
<path d="M70.1616 342.958L56.3621 287.286C56.0766 286.098 55.6714 284.923 55.1695 283.795C54.2348 281.673 52.9594 279.697 51.5044 278.04C50.229 276.589 48.82 275.388 47.3696 274.55C46.398 273.988 45.4081 273.592 44.4366 273.394C42.9447 273.09 41.6555 273.283 40.6195 273.887L36.3926 276.35C37.4286 275.747 38.7179 275.553 40.2097 275.857C41.1859 276.055 42.1712 276.451 43.1427 277.013C44.5931 277.851 46.0067 279.053 47.2775 280.503C48.7326 282.161 50.0033 284.136 50.9426 286.259C51.4445 287.391 51.8497 288.565 52.1352 289.749L65.9346 345.421C67.1364 350.343 65.9992 353.792 63.651 355.155L67.8778 352.692C70.2215 351.329 71.3634 347.88 70.1616 342.958Z" fill="#343637"/>
<path d="M65.9344 345.426L52.135 289.753C50.8411 284.394 47.1345 279.32 43.1425 277.017C42.1709 276.456 41.181 276.06 40.2095 275.862C35.2229 274.839 32.474 279.412 34.0717 286.07L47.9771 341.894C48.8796 345.582 51.0068 349.326 53.7326 352.024C54.8239 353.106 55.9152 353.948 56.9696 354.556C63.0613 358.065 68.0202 353.958 65.9344 345.426Z" fill="#212322"/>
<path d="M74.0508 307.609L61.9688 314.585L63.4422 326.147L78.0797 317.698L74.0508 307.609Z" fill="#343637"/>
<path d="M109.564 272.86C109.099 271.81 108.583 270.756 108.012 269.697C106.474 266.846 104.642 264.236 102.644 261.961C100.162 259.134 97.4176 256.827 94.6595 255.234C91.9337 253.659 89.1894 252.784 86.6616 252.789C84.829 252.789 83.2359 253.222 81.896 254L75.1367 257.928C76.4766 257.149 78.0652 256.721 79.9023 256.717C82.4302 256.707 85.1744 257.582 87.9003 259.157C90.6583 260.75 93.3979 263.057 95.8843 265.884C97.8826 268.159 99.7152 270.769 101.253 273.62C101.824 274.679 102.34 275.733 102.805 276.783C107.732 287.921 106.7 298.378 100.691 301.872L107.451 297.945C113.46 294.455 114.486 283.998 109.564 272.86Z" fill="#343637"/>
<path d="M88.0297 259.111C78.1025 253.379 70.0586 258.024 70.0586 269.485C70.0586 280.945 78.1025 294.883 88.0297 300.611C97.9569 306.343 106.001 301.698 106.001 290.237C106.001 278.777 97.9522 264.839 88.0297 259.111Z" fill="#212322"/>
<path opacity="0.6" d="M87.2569 263.43C79.0886 258.715 72.4629 262.536 72.4629 271.971C72.4629 281.405 79.084 292.875 87.2569 297.59C95.4252 302.305 102.051 298.483 102.051 289.049C102.046 279.614 95.4252 268.145 87.2569 263.43ZM87.2569 296.858C79.4385 292.341 73.0982 281.364 73.0982 272.335C73.0982 263.305 79.4385 259.645 87.2569 264.157C95.0752 268.674 101.416 279.651 101.416 288.68C101.416 297.714 95.0752 301.375 87.2569 296.858Z" fill="#212322"/>
<path opacity="0.4" d="M120.068 262.749C118.525 259.899 116.693 257.283 114.695 255.009L95.8809 265.884C97.8792 268.159 99.7117 270.77 101.25 273.62C101.821 274.679 102.336 275.733 102.801 276.783L121.606 265.884C121.15 264.848 120.634 263.799 120.068 262.749Z" fill="#8B855B"/>
<path d="M48.9144 291.609C48.9144 295.615 46.1057 297.236 42.6339 295.233C39.1621 293.23 36.3535 288.363 36.3535 284.357C36.3535 280.351 39.1621 278.731 42.6339 280.734C46.1057 282.736 48.9144 287.608 48.9144 291.609Z" fill="#4F4927"/>
<path d="M63.3578 347.425C63.3578 351.43 60.5445 353.051 57.0774 351.048C53.6103 349.045 50.7969 344.179 50.7969 340.173C50.7969 336.167 53.6103 334.546 57.0774 336.549C60.5445 338.552 63.3578 343.423 63.3578 347.425Z" fill="#4F4927"/>
<path d="M194.77 247.277C194.77 245.499 196.017 243.34 197.555 242.451C199.093 241.563 200.341 242.281 200.341 244.058C200.341 245.836 199.093 247.995 197.555 248.884C196.017 249.772 194.77 249.054 194.77 247.277Z" fill="#343637"/>
<path d="M195.604 249.091L193.242 247.728C192.726 247.443 192.408 246.812 192.408 245.914C192.408 244.137 193.656 241.977 195.194 241.089C195.954 240.651 196.644 240.605 197.146 240.881L199.508 242.244C199.006 241.963 198.316 242.01 197.556 242.452C196.018 243.34 194.77 245.5 194.77 247.277C194.77 248.175 195.093 248.806 195.604 249.091Z" fill="url(#paint3_linear_575_22801)"/>
<path d="M206.126 251.256C206.881 250.45 207.631 249.593 208.386 248.732L199.048 243.341C198.703 243.147 198.224 243.18 197.704 243.483C196.64 244.096 195.779 245.588 195.779 246.812C195.779 247.434 196 247.867 196.355 248.065L204.675 252.867C205.163 252.338 205.633 251.785 206.126 251.256Z" fill="url(#paint4_linear_575_22801)"/>
<path d="M235.957 270.295C235.957 268.9 236.938 267.201 238.149 266.501C239.36 265.801 240.34 266.368 240.34 267.767C240.34 269.167 239.36 270.862 238.149 271.561C236.938 272.257 235.957 271.69 235.957 270.295Z" fill="#343637"/>
<path d="M236.611 271.718L200.084 250.629C199.678 250.404 199.43 249.911 199.43 249.202C199.43 247.807 200.41 246.108 201.621 245.408C202.22 245.063 202.759 245.026 203.155 245.247L239.682 266.335C239.286 266.114 238.747 266.151 238.148 266.496C236.937 267.196 235.957 268.891 235.957 270.29C235.957 270.999 236.205 271.497 236.611 271.718Z" fill="url(#paint5_linear_575_22801)"/>
<path d="M249.48 273.136L237.016 265.912L240.165 264.646L252.629 271.875L249.48 273.136Z" fill="#4E5153"/>
<path d="M246.341 279.421L233.876 272.197L233.867 268.283L246.331 275.512L246.341 279.421Z" fill="#212322"/>
<path d="M246.331 275.512L233.867 268.283L237.017 265.912L249.481 273.136L246.331 275.512Z" fill="#404244"/>
<path d="M249.481 273.137L252.631 271.875L252.64 275.784L249.495 278.151L246.341 279.422L246.332 275.512L249.481 273.137Z" fill="#343637"/>
<path d="M247.771 276.631C247.771 275.544 248.536 274.223 249.475 273.68C250.414 273.136 251.179 273.578 251.179 274.665C251.179 275.752 250.414 277.073 249.475 277.616C248.536 278.16 247.771 277.722 247.771 276.631Z" fill="#212322"/>
<path d="M245.235 277.975L241.298 275.705C241.008 275.539 240.778 275.171 240.778 274.881V273.706C240.778 273.416 241.012 273.32 241.298 273.485L245.235 275.755C245.525 275.921 245.76 276.289 245.76 276.58V277.754C245.76 278.044 245.525 278.14 245.235 277.975ZM239.387 274.075V272.901C239.387 272.611 239.152 272.242 238.862 272.076L234.925 269.806C234.635 269.641 234.4 269.737 234.4 270.027V271.202C234.4 271.492 234.635 271.86 234.925 272.026L238.862 274.296C239.157 274.466 239.387 274.365 239.387 274.075Z" fill="#212322"/>
<path d="M223.191 230.872C223.191 229.094 224.439 226.935 225.977 226.046C227.515 225.158 228.763 225.88 228.763 227.653C228.763 229.431 227.515 231.59 225.977 232.479C224.439 233.363 223.191 232.644 223.191 230.872Z" fill="#343637"/>
<path d="M224.026 232.681L221.663 231.318C221.148 231.033 220.83 230.402 220.83 229.504C220.83 227.727 222.078 225.567 223.616 224.679C224.375 224.241 225.066 224.195 225.568 224.471L227.93 225.834C227.428 225.553 226.737 225.599 225.978 226.041C224.44 226.93 223.192 229.09 223.192 230.867C223.192 231.769 223.51 232.396 224.026 232.681Z" fill="url(#paint6_linear_575_22801)"/>
<path d="M234.542 234.849C235.297 234.044 236.047 233.187 236.802 232.326L227.464 226.934C227.119 226.741 226.645 226.773 226.12 227.077C225.056 227.69 224.195 229.181 224.195 230.406C224.195 231.028 224.416 231.461 224.771 231.659L233.091 236.461C233.584 235.927 234.049 235.374 234.542 234.849Z" fill="url(#paint7_linear_575_22801)"/>
<path d="M264.375 253.884C264.375 252.489 265.356 250.79 266.567 250.09C267.778 249.39 268.758 249.956 268.758 251.356C268.758 252.756 267.778 254.45 266.567 255.15C265.356 255.846 264.375 255.279 264.375 253.884Z" fill="#343637"/>
<path d="M265.033 255.311L228.505 234.223C228.1 233.997 227.852 233.505 227.852 232.796C227.852 231.401 228.832 229.702 230.043 229.002C230.642 228.656 231.181 228.619 231.577 228.84L268.104 249.929C267.708 249.708 267.164 249.745 266.57 250.09C265.359 250.79 264.379 252.489 264.379 253.884C264.374 254.593 264.627 255.086 265.033 255.311Z" fill="url(#paint8_linear_575_22801)"/>
<path d="M277.896 256.725L265.432 249.501L268.581 248.239L281.05 255.464L277.896 256.725Z" fill="#4E5153"/>
<path d="M274.761 263.015L262.297 255.791L262.283 251.877L274.747 259.101L274.761 263.015Z" fill="#212322"/>
<path d="M274.747 259.101L262.283 251.877L265.433 249.501L277.897 256.725L274.747 259.101Z" fill="#404244"/>
<path d="M277.897 256.725L281.051 255.464L281.061 259.378L277.911 261.744L274.762 263.015L274.748 259.101L277.897 256.725Z" fill="#343637"/>
<path d="M276.193 260.225C276.193 259.138 276.958 257.817 277.897 257.273C278.836 256.73 279.601 257.172 279.601 258.259C279.601 259.345 278.836 260.667 277.897 261.21C276.958 261.754 276.193 261.312 276.193 260.225Z" fill="#212322"/>
<path d="M273.657 261.564L269.72 259.294C269.43 259.128 269.2 258.76 269.2 258.47V257.296C269.2 257.005 269.435 256.909 269.72 257.075L273.657 259.345C273.947 259.51 274.177 259.879 274.177 260.169V261.343C274.177 261.633 273.943 261.73 273.657 261.564ZM267.81 257.669V256.494C267.81 256.204 267.575 255.836 267.289 255.67L263.352 253.4C263.062 253.234 262.832 253.331 262.832 253.621V254.795C262.832 255.085 263.067 255.454 263.352 255.62L267.289 257.89C267.575 258.055 267.81 257.954 267.81 257.669Z" fill="#212322"/>
<path d="M110.174 127.953L144.32 108.107L160.293 117.33L126.147 137.175L110.174 127.953Z" fill="#999161"/>
<path d="M126.146 137.175L160.293 117.33L168.111 129.979L133.965 149.819L126.146 137.175Z" fill="#A1996A"/>
<path d="M129.98 137.746L159.113 120.839L164.371 129.348L135.243 146.255L129.98 137.746Z" fill="#827C52"/>
<path d="M126.146 137.175L133.964 149.819L106.572 134.007L110.173 127.952L126.146 137.175Z" fill="#4F4927"/>
<path d="M154.385 123.583L164.372 129.348L159.113 120.839L154.385 123.583Z" fill="#4F4927"/>
<path d="M95.0287 146.504L80.1288 86.0292C79.917 85.1452 79.6131 84.2703 79.2401 83.4277C78.5403 81.8484 77.5963 80.3749 76.5143 79.1455C75.5657 78.0681 74.516 77.1702 73.434 76.5486C72.7111 76.1296 71.9744 75.835 71.2515 75.6876C70.1418 75.462 69.1795 75.6047 68.4105 76.0513L65.2656 77.8885C66.0346 77.4419 66.9969 77.2946 68.1066 77.5248C68.8341 77.6721 69.5662 77.9668 70.2891 78.3858C71.3665 79.0074 72.421 79.9053 73.3695 80.9827C74.4515 82.2167 75.4 83.6855 76.0952 85.2649C76.4682 86.1075 76.7676 86.9823 76.984 87.8663L91.8839 148.341C92.7772 152.006 91.93 154.571 90.1803 155.589L93.3251 153.756C95.0748 152.738 95.9266 150.169 95.0287 146.504Z" fill="#343637"/>
<path d="M91.8838 148.341L76.9839 87.8663C76.0215 83.8788 73.2588 80.0986 70.289 78.3812C69.5661 77.9621 68.8294 77.6675 68.1065 77.5201C64.3953 76.7604 62.3463 80.1631 63.5388 85.1174L78.5217 145.703C79.1939 148.447 80.7778 151.237 82.8038 153.245C83.6188 154.051 84.4292 154.677 85.212 155.128C89.7473 157.753 93.4355 154.695 91.8838 148.341Z" fill="#212322"/>
<path d="M94.9818 150.938L88.752 154.562L92.4769 168.813L98.7067 165.194L94.9818 150.938Z" fill="#656037"/>
<path d="M94.1291 148.507C93.4108 146.882 92.4299 145.348 91.2972 144.059C90.3211 142.945 89.2253 142.01 88.088 141.352C86.0482 140.173 84.2018 140.067 82.8665 140.841L76.6367 144.46C77.972 143.686 79.8184 143.792 81.8582 144.971C82.9955 145.629 84.0913 146.564 85.0674 147.678C86.2001 148.967 87.181 150.501 87.8993 152.126C88.2492 152.923 88.5392 153.738 88.7556 154.557L94.9855 150.938C94.7691 150.119 94.479 149.299 94.1291 148.507Z" fill="#827C52"/>
<path d="M81.8589 144.975C84.9623 146.766 87.7204 150.606 88.7518 154.561L92.4768 168.812L74.4688 158.415L74.4964 149.17C74.5102 144.519 77.8024 142.631 81.8589 144.975Z" fill="#4F4927"/>
<path opacity="0.4" d="M91.2982 144.06L85.0684 147.679C86.2011 148.968 87.1819 150.501 87.9002 152.127L94.13 148.507C93.4117 146.882 92.4309 145.349 91.2982 144.06Z" fill="#8B855B"/>
<path d="M84.3361 152.679L69.4361 92.204C69.2243 91.3199 68.9205 90.4451 68.5475 89.6025C67.8476 88.0231 66.9037 86.5498 65.8216 85.3204C64.8731 84.2429 63.8233 83.3451 62.7412 82.7235C62.0183 82.3045 61.2816 82.0097 60.5541 81.8624C59.4444 81.6368 58.4822 81.7796 57.7133 82.2262L54.5684 84.0587C55.3373 83.6121 56.2997 83.4648 57.4093 83.695C58.1368 83.8424 58.869 84.137 59.5965 84.556C60.6739 85.1776 61.7283 86.0755 62.6769 87.1529C63.7589 88.3869 64.7073 89.8558 65.4026 91.4351C65.7756 92.2777 66.0748 93.1526 66.2912 94.0366L81.1913 154.511C82.0846 158.176 81.2373 160.741 79.4922 161.759L82.6371 159.926C84.3822 158.909 85.2293 156.344 84.3361 152.679Z" fill="#343637"/>
<path d="M81.1914 154.511L66.2913 94.0363C65.329 90.0488 62.5664 86.2686 59.5965 84.5511C58.8736 84.1321 58.1369 83.8374 57.4094 83.6901C53.6982 82.9303 51.6538 86.3331 52.8418 91.2874L67.82 151.873C68.4922 154.617 70.0763 157.407 72.1022 159.415C72.9172 160.221 73.7275 160.847 74.5149 161.298C79.0549 163.927 82.7431 160.87 81.1914 154.511Z" fill="#212322"/>
<path d="M82.6103 107.339L73.6133 112.528L79.3365 140.164L90.2353 133.87L82.6103 107.339Z" fill="#343637"/>
<path d="M79.3353 156.012C79.3353 158.991 77.245 160.202 74.6619 158.71C72.0788 157.218 69.9883 153.594 69.9883 150.615C69.9883 147.636 72.0788 146.425 74.6619 147.917C77.245 149.409 79.3353 153.033 79.3353 156.012Z" fill="#4F4927"/>
<path d="M64.6146 51.2891C64.2324 51.0681 63.7075 51.1004 63.1274 51.4365L29.3906 70.9133L101.395 112.772L135.132 93.2955C135.712 92.9594 136.241 92.9271 136.619 93.1481L64.6146 51.2891Z" fill="#827C52"/>
<path d="M101.396 112.772L29.3913 70.9131C28.2355 71.5807 27.2962 73.2015 27.3008 74.5506L27.3607 95.0127C27.3607 95.6712 27.5955 96.1362 27.973 96.3573L99.9773 138.216C99.5998 137.995 99.3696 137.535 99.365 136.872L99.3051 116.41C99.3005 115.06 100.24 113.44 101.396 112.772Z" fill="#4F4927"/>
<path d="M29.3913 70.9131C28.2355 71.5807 27.2962 73.2015 27.3008 74.5506L99.3051 116.405C99.3005 115.061 100.24 113.44 101.396 112.767L29.3913 70.9131Z" fill="#766E40"/>
<path d="M137.236 94.5067C137.232 93.1622 136.288 92.6235 135.132 93.2911L101.395 112.768C100.239 113.436 99.3001 115.056 99.3047 116.405L99.3646 136.868C99.3692 138.198 100.313 138.737 101.469 138.065L135.206 118.588C136.361 117.92 137.301 116.3 137.296 114.969L137.236 94.5067Z" fill="#656037"/>
<path d="M132.829 110.612C134.395 109.71 135.67 107.513 135.666 105.718C135.661 103.917 134.376 103.204 132.811 104.106C131.245 105.009 129.984 107.196 129.988 108.996C129.993 110.796 131.259 111.515 132.829 110.612Z" fill="url(#paint9_linear_575_22801)"/>
<path d="M132.83 111.488C131.265 112.39 130.003 114.578 130.008 116.378C130.012 118.178 131.283 118.915 132.849 118.013C134.414 117.11 135.69 114.9 135.685 113.1C135.681 111.299 134.396 110.586 132.83 111.488Z" fill="url(#paint10_linear_575_22801)"/>
<path d="M125.632 107.371C127.198 106.468 128.459 104.281 128.455 102.481C128.45 100.681 127.179 99.9577 125.614 100.86C124.048 101.763 122.773 103.959 122.777 105.759C122.782 107.555 124.067 108.273 125.632 107.371Z" fill="url(#paint11_linear_575_22801)"/>
<path d="M125.652 114.752C127.217 113.849 128.479 111.662 128.474 109.862C128.47 108.061 127.199 107.339 125.633 108.241C124.068 109.143 122.792 111.34 122.797 113.14C122.801 114.94 124.086 115.659 125.652 114.752Z" fill="url(#paint12_linear_575_22801)"/>
<path d="M125.657 115.632C124.091 116.534 122.816 118.73 122.82 120.526C122.825 122.326 124.11 123.059 125.675 122.151C127.241 121.249 128.502 119.048 128.498 117.248C128.493 115.447 127.222 114.725 125.657 115.632Z" fill="url(#paint13_linear_575_22801)"/>
<path d="M118.464 118.905C120.03 118.003 121.291 115.815 121.287 114.015C121.282 112.215 120.011 111.492 118.446 112.394C116.88 113.297 115.605 115.493 115.609 117.289C115.614 119.094 116.899 119.807 118.464 118.905Z" fill="url(#paint14_linear_575_22801)"/>
<path d="M118.445 111.52C120.01 110.618 121.272 108.431 121.267 106.63C121.263 104.83 119.992 104.107 118.426 105.01C116.861 105.912 115.585 108.108 115.59 109.904C115.594 111.709 116.875 112.423 118.445 111.52Z" fill="url(#paint15_linear_575_22801)"/>
<path d="M118.469 119.78C116.904 120.683 115.628 122.879 115.633 124.675C115.637 126.475 116.922 127.207 118.488 126.3C120.053 125.398 121.315 123.197 121.31 121.396C121.301 119.601 120.035 118.878 118.469 119.78Z" fill="url(#paint16_linear_575_22801)"/>
<path d="M111.253 115.669C112.819 114.766 114.08 112.579 114.076 110.779C114.071 108.978 112.8 108.256 111.235 109.158C109.669 110.06 108.408 112.248 108.412 114.048C108.417 115.848 109.688 116.576 111.253 115.669Z" fill="url(#paint17_linear_575_22801)"/>
<path d="M111.276 123.928C109.71 124.831 108.449 127.018 108.453 128.818C108.458 130.619 109.729 131.355 111.294 130.453C112.86 129.551 114.121 127.35 114.117 125.549C114.112 123.749 112.841 123.026 111.276 123.928Z" fill="url(#paint18_linear_575_22801)"/>
<path d="M111.277 123.054C112.842 122.152 114.104 119.965 114.099 118.164C114.094 116.364 112.824 115.641 111.258 116.544C109.693 117.446 108.431 119.633 108.436 121.434C108.44 123.234 109.711 123.957 111.277 123.054Z" fill="url(#paint19_linear_575_22801)"/>
<path d="M104.089 127.203C105.655 126.3 106.93 124.104 106.925 122.304C106.921 120.503 105.636 119.79 104.071 120.692C102.505 121.595 101.243 123.782 101.248 125.582C101.253 127.382 102.524 128.11 104.089 127.203Z" fill="url(#paint20_linear_575_22801)"/>
<path d="M104.066 119.822C105.631 118.919 106.907 116.723 106.902 114.923C106.897 113.122 105.613 112.409 104.047 113.311C102.482 114.214 101.22 116.401 101.225 118.201C101.229 120.002 102.5 120.724 104.066 119.822Z" fill="url(#paint21_linear_575_22801)"/>
<path d="M104.088 128.082C102.523 128.984 101.261 131.171 101.266 132.972C101.27 134.772 102.541 135.509 104.107 134.606C105.672 133.704 106.948 131.494 106.943 129.693C106.938 127.893 105.654 127.175 104.088 128.082Z" fill="url(#paint22_linear_575_22801)"/>
<path d="M132.806 103.227C134.371 102.325 135.647 100.128 135.642 98.328C135.638 96.5277 134.353 95.8141 132.787 96.7165C131.222 97.619 129.96 99.8061 129.965 101.606C129.969 103.407 131.24 104.13 132.806 103.227Z" fill="url(#paint23_linear_575_22801)"/>
<path d="M182.918 95.7628L168.018 35.288C167.806 34.4039 167.502 33.5291 167.13 32.6865C166.43 31.1071 165.486 29.6338 164.404 28.4044C163.455 27.3269 162.405 26.429 161.323 25.8074C160.6 25.3884 159.864 25.0937 159.136 24.9464C158.026 24.7208 157.064 24.8635 156.295 25.3101L153.15 27.1427C153.919 26.6961 154.882 26.5487 155.991 26.7789C156.719 26.9263 157.451 27.221 158.178 27.64C159.256 28.2616 160.31 29.1595 161.259 30.2369C162.341 31.4709 163.289 32.9397 163.985 34.519C164.358 35.3616 164.657 36.2365 164.873 37.1205L179.773 97.5953C180.667 101.26 179.819 103.825 178.074 104.843L181.219 103.01C182.964 101.993 183.811 99.4279 182.918 95.7628Z" fill="#343637"/>
<path d="M179.773 97.6002L164.873 37.1254C163.911 33.138 161.148 29.3577 158.178 27.6448C157.455 27.2258 156.719 26.9312 155.991 26.7838C152.28 26.0241 150.231 29.4267 151.424 34.3811L166.402 94.9664C167.074 97.7107 168.658 100.501 170.684 102.508C171.499 103.314 172.309 103.94 173.092 104.392C177.632 107.012 181.325 103.954 179.773 97.6002Z" fill="#212322"/>
<path d="M182.872 100.197L176.643 103.821L180.363 118.072L186.597 114.448L182.872 100.197Z" fill="#656037"/>
<path d="M182.021 97.7661C181.303 96.1408 180.322 94.6075 179.19 93.3182C178.214 92.2039 177.118 91.2692 175.981 90.6154C173.941 89.4366 172.094 89.3308 170.759 90.1043L164.529 93.7234C165.865 92.9499 167.711 93.0558 169.751 94.2345C170.888 94.893 171.984 95.8277 172.96 96.9419C174.093 98.2312 175.073 99.7645 175.792 101.39C176.142 102.186 176.432 103.001 176.648 103.821L182.878 100.202C182.662 99.3776 182.371 98.5581 182.021 97.7661Z" fill="#827C52"/>
<path d="M169.746 94.2348C172.849 96.0259 175.607 99.866 176.639 103.821L180.364 118.072L162.355 107.675L162.383 98.4294C162.397 93.7789 165.694 91.8911 169.746 94.2348Z" fill="#4F4927"/>
<path opacity="0.4" d="M179.189 93.3184L172.959 96.9374C174.092 98.2267 175.072 99.76 175.791 101.385L182.02 97.7663C181.302 96.1409 180.321 94.6076 179.189 93.3184Z" fill="#8B855B"/>
<path d="M172.226 101.938L157.326 41.4628C157.114 40.5787 156.81 39.7039 156.437 38.8613C155.742 37.2819 154.794 35.8085 153.712 34.5791C152.763 33.5017 151.713 32.6038 150.631 31.9822C149.908 31.5632 149.172 31.2685 148.449 31.1212C147.339 30.8956 146.377 31.0383 145.608 31.4849L142.463 33.3175C143.232 32.8708 144.194 32.7235 145.304 32.9537C146.031 33.1011 146.763 33.3958 147.491 33.8148C148.568 34.4364 149.623 35.3343 150.571 36.4117C151.653 37.6457 152.602 39.1145 153.297 40.6938C153.67 41.5364 153.969 42.4113 154.186 43.2953L169.086 103.77C169.979 107.435 169.132 110 167.387 111.017L170.532 109.18C172.272 108.167 173.119 105.598 172.226 101.938Z" fill="#343637"/>
<path d="M169.082 103.77L154.182 43.2953C153.22 39.3079 150.457 35.5276 147.487 33.8147C146.764 33.3957 146.027 33.1011 145.3 32.9537C141.589 32.194 139.544 35.5967 140.732 40.551L155.711 101.136C156.383 103.881 157.967 106.671 159.993 108.678C160.808 109.484 161.618 110.11 162.406 110.562C166.941 113.182 170.629 110.124 169.082 103.77Z" fill="#212322"/>
<path d="M170.496 56.5928L161.504 61.7866L167.227 89.4225L178.126 83.1282L170.496 56.5928Z" fill="#343637"/>
<path d="M167.226 105.271C167.226 108.25 165.135 109.461 162.552 107.969C159.969 106.477 157.879 102.853 157.879 99.8741C157.879 96.895 159.969 95.6841 162.552 97.1759C165.131 98.6631 167.226 102.291 167.226 105.271Z" fill="#4F4927"/>
<path d="M152.507 0.547939C152.125 0.326926 151.6 0.359146 151.02 0.695271L117.283 20.1721L189.288 62.0311L223.024 42.5543C223.604 42.2182 224.134 42.1859 224.511 42.4069L152.507 0.547939Z" fill="#827C52"/>
<path d="M189.286 62.0269L117.282 20.168C116.126 20.8356 115.187 22.4564 115.191 23.8009L115.251 44.263C115.251 44.9215 115.486 45.3865 115.864 45.6075L187.868 87.4665C187.49 87.2455 187.256 86.785 187.256 86.122L187.196 65.6598C187.191 64.3199 188.126 62.6992 189.286 62.0269Z" fill="#4F4927"/>
<path d="M117.278 20.1719C116.122 20.8395 115.183 22.4603 115.188 23.8048L187.192 65.6638C187.187 64.3193 188.122 62.6985 189.282 62.0263L117.278 20.1719Z" fill="#766E40"/>
<path d="M225.129 43.7655C225.124 42.421 224.18 41.8823 223.024 42.5499L189.288 62.0267C188.132 62.6943 187.193 64.3152 187.197 65.6643L187.257 86.1264C187.262 87.4571 188.206 87.9958 189.361 87.3235L223.098 67.8468C224.254 67.1791 225.193 65.5584 225.188 64.2277L225.129 43.7655Z" fill="#656037"/>
<path d="M220.718 59.8671C222.283 58.9646 223.559 56.7683 223.554 54.9726C223.55 53.1722 222.265 52.4586 220.699 53.3611C219.134 54.2635 217.872 56.4506 217.877 58.251C217.882 60.0513 219.152 60.7742 220.718 59.8671Z" fill="url(#paint24_linear_575_22801)"/>
<path d="M220.723 60.7469C219.157 61.6493 217.896 63.8365 217.9 65.6368C217.905 67.4372 219.176 68.1739 220.741 67.2714C222.307 66.3689 223.582 64.1588 223.578 62.3584C223.573 60.5581 222.288 59.8398 220.723 60.7469Z" fill="url(#paint25_linear_575_22801)"/>
<path d="M213.521 56.6257C215.086 55.7232 216.348 53.5361 216.343 51.7357C216.339 49.9354 215.068 49.2126 213.502 50.115C211.937 51.0175 210.661 53.2138 210.666 55.0096C210.671 56.8145 211.955 57.5328 213.521 56.6257Z" fill="url(#paint26_linear_575_22801)"/>
<path d="M213.544 64.0114C215.11 63.1089 216.371 60.9218 216.367 59.1215C216.362 57.3211 215.091 56.5983 213.526 57.5008C211.96 58.4032 210.685 60.5995 210.689 62.3952C210.694 64.2002 211.979 64.9139 213.544 64.0114Z" fill="url(#paint27_linear_575_22801)"/>
<path d="M213.543 64.8866C211.978 65.7891 210.702 67.9854 210.707 69.7812C210.712 71.5815 211.996 72.3136 213.562 71.4065C215.127 70.504 216.389 68.3031 216.384 66.5028C216.38 64.707 215.109 63.9841 213.543 64.8866Z" fill="url(#paint28_linear_575_22801)"/>
<path d="M206.357 68.1599C207.922 67.2574 209.184 65.0703 209.179 63.27C209.175 61.4696 207.904 60.7467 206.338 61.6492C204.773 62.5517 203.497 64.748 203.502 66.5484C203.507 68.3487 204.791 69.067 206.357 68.1599Z" fill="url(#paint29_linear_575_22801)"/>
<path d="M206.333 60.779C207.899 59.8765 209.16 57.6895 209.156 55.8891C209.151 54.0888 207.88 53.3659 206.315 54.2683C204.749 55.1708 203.474 57.3671 203.479 59.1629C203.483 60.9632 204.768 61.6815 206.333 60.779Z" fill="url(#paint30_linear_575_22801)"/>
<path d="M206.356 69.0399C204.79 69.9424 203.515 72.1387 203.52 73.939C203.524 75.7393 204.809 76.4714 206.374 75.5644C207.94 74.6619 209.201 72.461 209.197 70.6606C209.192 68.8603 207.921 68.1328 206.356 69.0399Z" fill="url(#paint31_linear_575_22801)"/>
<path d="M199.146 64.9275C200.711 64.025 201.973 61.8379 201.968 60.0376C201.963 58.2372 200.693 57.5143 199.127 58.4168C197.562 59.3192 196.3 61.5063 196.305 63.3067C196.309 65.107 197.58 65.8299 199.146 64.9275Z" fill="url(#paint32_linear_575_22801)"/>
<path d="M199.168 73.1883C197.603 74.0907 196.341 76.2778 196.346 78.0782C196.35 79.8785 197.621 80.6152 199.187 79.7127C200.752 78.8103 202.014 76.6093 202.009 74.809C202.004 73.0086 200.734 72.2858 199.168 73.1883Z" fill="url(#paint33_linear_575_22801)"/>
<path d="M199.169 72.3132C200.735 71.4107 201.996 69.2236 201.992 67.4233C201.987 65.623 200.716 64.9 199.151 65.8025C197.585 66.705 196.324 68.8921 196.328 70.6924C196.333 72.4927 197.604 73.2157 199.169 72.3132Z" fill="url(#paint34_linear_575_22801)"/>
<path d="M191.976 76.4616C193.541 75.5591 194.817 73.3628 194.812 71.5624C194.807 69.7621 193.523 69.0484 191.957 69.9509C190.392 70.8534 189.13 73.0405 189.135 74.8408C189.139 76.6412 190.41 77.3687 191.976 76.4616Z" fill="url(#paint35_linear_575_22801)"/>
<path d="M191.958 69.0807C193.524 68.1783 194.799 65.9819 194.794 64.1816C194.79 62.3812 193.505 61.6676 191.94 62.5701C190.374 63.4725 189.113 65.6596 189.117 67.46C189.122 69.2603 190.393 69.9832 191.958 69.0807Z" fill="url(#paint36_linear_575_22801)"/>
<path d="M191.981 77.3368C190.415 78.2393 189.154 80.4264 189.158 82.2267C189.163 84.027 190.434 84.7637 191.999 83.8613C193.565 82.9588 194.84 80.7486 194.836 78.9483C194.831 77.1526 193.546 76.4343 191.981 77.3368Z" fill="url(#paint37_linear_575_22801)"/>
<path d="M220.698 52.4865C222.264 51.584 223.539 49.3876 223.535 47.5919C223.53 45.7962 222.245 45.0779 220.68 45.9803C219.114 46.8828 217.853 49.07 217.857 50.8703C217.862 52.666 219.133 53.3889 220.698 52.4865Z" fill="url(#paint38_linear_575_22801)"/>
<path d="M201.441 148.82L228.455 212.891L228.179 213.052L176.835 183.409V162.937L201.441 148.82ZM176.83 154.451L196.224 143.322L182.18 135.214L176.83 138.285V154.451Z" fill="#4F4927"/>
<path d="M176.832 162.937V183.409L168.461 188.243L161.499 171.736L176.832 162.937ZM176.832 138.285L142.611 157.918L156.655 166.027L176.832 154.447V138.285Z" fill="#656037"/>
<path opacity="0.6" d="M161.502 171.732L201.441 148.82L228.455 212.891L188.516 235.807L161.502 171.732Z" fill="#212322"/>
<path opacity="0.6" d="M142.611 157.919L182.182 135.219L196.226 143.323L156.655 166.032L142.611 157.919Z" fill="#212322"/>
<path d="M95.258 198.254C94.991 197.646 94.6917 197.033 94.3601 196.421C93.4669 194.763 92.3986 193.244 91.2383 191.918C89.7971 190.274 88.204 188.934 86.6017 188.009C85.0131 187.092 83.4154 186.581 81.942 186.586C80.8738 186.586 79.9528 186.835 79.1747 187.286L68.9805 193.235C69.7586 192.784 70.6841 192.53 71.7523 192.53C73.2211 192.526 74.8143 193.037 76.4028 193.948C78.0052 194.874 79.5983 196.214 81.0441 197.858C82.2044 199.179 83.2681 200.699 84.1659 202.356C84.4975 202.969 84.7967 203.586 85.0683 204.193C87.9323 210.667 87.3337 216.75 83.839 218.78L92.5874 213.715C92.7163 213.628 94.0287 212.841 94.0287 212.841C97.5188 210.815 98.122 204.727 95.258 198.254Z" fill="url(#paint39_linear_575_22801)"/>
<path opacity="0.5" d="M76.4767 193.926C70.7073 190.597 66.0293 193.295 66.0293 199.958C66.0293 206.62 70.7073 214.724 76.4767 218.053C82.2461 221.387 86.9242 218.684 86.9242 212.021C86.9242 205.359 82.2461 197.255 76.4767 193.926Z" fill="#5A5531"/>
<path opacity="0.4" d="M94.369 196.462C93.4712 194.805 92.4075 193.285 91.2472 191.964L81.0391 197.867C82.1994 199.188 83.2631 200.708 84.1609 202.365C84.4924 202.978 84.7918 203.595 85.0635 204.203L95.2668 198.29C94.9997 197.683 94.7005 197.075 94.369 196.462Z" fill="#8B855B"/>
<defs>
<linearGradient id="paint0_linear_575_22801" x1="179.087" y1="325.701" x2="202.03" y2="365.439" gradientUnits="userSpaceOnUse">
<stop offset="0.5123" stop-color="#938C61"/>
<stop offset="0.6473" stop-color="#8E875C"/>
<stop offset="0.813" stop-color="#7F794E"/>
<stop offset="0.9943" stop-color="#666138"/>
<stop offset="1" stop-color="#656037"/>
</linearGradient>
<linearGradient id="paint1_linear_575_22801" x1="109.812" y1="365.697" x2="132.755" y2="405.435" gradientUnits="userSpaceOnUse">
<stop offset="0.5123" stop-color="#938C61"/>
<stop offset="0.6473" stop-color="#8E875C"/>
<stop offset="0.813" stop-color="#7F794E"/>
<stop offset="0.9943" stop-color="#666138"/>
<stop offset="1" stop-color="#656037"/>
</linearGradient>
<linearGradient id="paint2_linear_575_22801" x1="94.1675" y1="246.832" x2="119.612" y2="290.904" gradientUnits="userSpaceOnUse">
<stop stop-color="#797349"/>
<stop offset="1" stop-color="#656037"/>
</linearGradient>
<linearGradient id="paint3_linear_575_22801" x1="197.369" y1="241.015" x2="193.431" y2="247.836" gradientUnits="userSpaceOnUse">
<stop stop-color="#404244"/>
<stop offset="0.3577" stop-color="#393B3C"/>
<stop offset="0.9121" stop-color="#252726"/>
<stop offset="1" stop-color="#212322"/>
</linearGradient>
<linearGradient id="paint4_linear_575_22801" x1="203.045" y1="245.649" x2="200.326" y2="250.357" gradientUnits="userSpaceOnUse">
<stop stop-color="#827C52"/>
<stop offset="0.3234" stop-color="#6C6640"/>
<stop offset="0.7331" stop-color="#57512E"/>
<stop offset="1" stop-color="#4F4927"/>
</linearGradient>
<linearGradient id="paint5_linear_575_22801" x1="220.663" y1="255.36" x2="217.566" y2="260.725" gradientUnits="userSpaceOnUse">
<stop stop-color="#404244"/>
<stop offset="0.3577" stop-color="#393B3C"/>
<stop offset="0.9121" stop-color="#252726"/>
<stop offset="1" stop-color="#212322"/>
</linearGradient>
<linearGradient id="paint6_linear_575_22801" x1="225.79" y1="224.606" x2="221.851" y2="231.427" gradientUnits="userSpaceOnUse">
<stop stop-color="#404244"/>
<stop offset="0.3577" stop-color="#393B3C"/>
<stop offset="0.9121" stop-color="#252726"/>
<stop offset="1" stop-color="#212322"/>
</linearGradient>
<linearGradient id="paint7_linear_575_22801" x1="231.464" y1="229.239" x2="228.745" y2="233.948" gradientUnits="userSpaceOnUse">
<stop stop-color="#827C52"/>
<stop offset="0.3234" stop-color="#6C6640"/>
<stop offset="0.7331" stop-color="#57512E"/>
<stop offset="1" stop-color="#4F4927"/>
</linearGradient>
<linearGradient id="paint8_linear_575_22801" x1="249.082" y1="238.951" x2="245.985" y2="244.315" gradientUnits="userSpaceOnUse">
<stop stop-color="#404244"/>
<stop offset="0.3577" stop-color="#393B3C"/>
<stop offset="0.9121" stop-color="#252726"/>
<stop offset="1" stop-color="#212322"/>
</linearGradient>
<linearGradient id="paint9_linear_575_22801" x1="134.82" y1="103.893" x2="130.823" y2="110.816" gradientUnits="userSpaceOnUse">
<stop stop-color="#443E1D"/>
<stop offset="1" stop-color="#57502D"/>
</linearGradient>
<linearGradient id="paint10_linear_575_22801" x1="134.843" y1="111.279" x2="130.844" y2="118.207" gradientUnits="userSpaceOnUse">
<stop stop-color="#443E1D"/>
<stop offset="1" stop-color="#57502D"/>
</linearGradient>
<linearGradient id="paint11_linear_575_22801" x1="127.617" y1="100.656" x2="123.62" y2="107.578" gradientUnits="userSpaceOnUse">
<stop stop-color="#443E1D"/>
<stop offset="1" stop-color="#57502D"/>
</linearGradient>
<linearGradient id="paint12_linear_575_22801" x1="127.638" y1="108.04" x2="123.642" y2="114.962" gradientUnits="userSpaceOnUse">
<stop stop-color="#443E1D"/>
<stop offset="1" stop-color="#57502D"/>
</linearGradient>
<linearGradient id="paint13_linear_575_22801" x1="127.662" y1="115.425" x2="123.662" y2="122.353" gradientUnits="userSpaceOnUse">
<stop stop-color="#443E1D"/>
<stop offset="1" stop-color="#57502D"/>
</linearGradient>
<linearGradient id="paint14_linear_575_22801" x1="120.45" y1="112.19" x2="116.453" y2="119.113" gradientUnits="userSpaceOnUse">
<stop stop-color="#443E1D"/>
<stop offset="1" stop-color="#57502D"/>
</linearGradient>
<linearGradient id="paint15_linear_575_22801" x1="120.428" y1="104.807" x2="116.432" y2="111.729" gradientUnits="userSpaceOnUse">
<stop stop-color="#443E1D"/>
<stop offset="1" stop-color="#57502D"/>
</linearGradient>
<linearGradient id="paint16_linear_575_22801" x1="120.473" y1="119.576" x2="116.474" y2="126.504" gradientUnits="userSpaceOnUse">
<stop stop-color="#443E1D"/>
<stop offset="1" stop-color="#57502D"/>
</linearGradient>
<linearGradient id="paint17_linear_575_22801" x1="113.242" y1="108.958" x2="109.249" y2="115.875" gradientUnits="userSpaceOnUse">
<stop stop-color="#443E1D"/>
<stop offset="1" stop-color="#57502D"/>
</linearGradient>
<linearGradient id="paint18_linear_575_22801" x1="113.285" y1="123.727" x2="109.289" y2="130.649" gradientUnits="userSpaceOnUse">
<stop stop-color="#443E1D"/>
<stop offset="1" stop-color="#57502D"/>
</linearGradient>
<linearGradient id="paint19_linear_575_22801" x1="113.263" y1="116.343" x2="109.27" y2="123.258" gradientUnits="userSpaceOnUse">
<stop stop-color="#443E1D"/>
<stop offset="1" stop-color="#57502D"/>
</linearGradient>
<linearGradient id="paint20_linear_575_22801" x1="106.08" y1="120.487" x2="102.083" y2="127.41" gradientUnits="userSpaceOnUse">
<stop stop-color="#443E1D"/>
<stop offset="1" stop-color="#57502D"/>
</linearGradient>
<linearGradient id="paint21_linear_575_22801" x1="106.058" y1="113.104" x2="102.062" y2="120.025" gradientUnits="userSpaceOnUse">
<stop stop-color="#443E1D"/>
<stop offset="1" stop-color="#57502D"/>
</linearGradient>
<linearGradient id="paint22_linear_575_22801" x1="106.102" y1="127.872" x2="102.102" y2="134.8" gradientUnits="userSpaceOnUse">
<stop stop-color="#443E1D"/>
<stop offset="1" stop-color="#57502D"/>
</linearGradient>
<linearGradient id="paint23_linear_575_22801" x1="134.798" y1="96.5098" x2="130.802" y2="103.432" gradientUnits="userSpaceOnUse">
<stop stop-color="#443E1D"/>
<stop offset="1" stop-color="#57502D"/>
</linearGradient>
<linearGradient id="paint24_linear_575_22801" x1="222.711" y1="53.152" x2="218.715" y2="60.0739" gradientUnits="userSpaceOnUse">
<stop stop-color="#443E1D"/>
<stop offset="1" stop-color="#57502D"/>
</linearGradient>
<linearGradient id="paint25_linear_575_22801" x1="222.734" y1="60.5369" x2="218.734" y2="67.4652" gradientUnits="userSpaceOnUse">
<stop stop-color="#443E1D"/>
<stop offset="1" stop-color="#57502D"/>
</linearGradient>
<linearGradient id="paint26_linear_575_22801" x1="215.508" y1="49.9143" x2="211.511" y2="56.8366" gradientUnits="userSpaceOnUse">
<stop stop-color="#443E1D"/>
<stop offset="1" stop-color="#57502D"/>
</linearGradient>
<linearGradient id="paint27_linear_575_22801" x1="215.529" y1="57.2986" x2="211.533" y2="64.2209" gradientUnits="userSpaceOnUse">
<stop stop-color="#443E1D"/>
<stop offset="1" stop-color="#57502D"/>
</linearGradient>
<linearGradient id="paint28_linear_575_22801" x1="215.551" y1="64.684" x2="211.552" y2="71.6119" gradientUnits="userSpaceOnUse">
<stop stop-color="#443E1D"/>
<stop offset="1" stop-color="#57502D"/>
</linearGradient>
<linearGradient id="paint29_linear_575_22801" x1="208.341" y1="61.4484" x2="204.345" y2="68.3708" gradientUnits="userSpaceOnUse">
<stop stop-color="#443E1D"/>
<stop offset="1" stop-color="#57502D"/>
</linearGradient>
<linearGradient id="paint30_linear_575_22801" x1="208.32" y1="54.0648" x2="204.323" y2="60.9867" gradientUnits="userSpaceOnUse">
<stop stop-color="#443E1D"/>
<stop offset="1" stop-color="#57502D"/>
</linearGradient>
<linearGradient id="paint31_linear_575_22801" x1="208.363" y1="68.8345" x2="204.363" y2="75.7624" gradientUnits="userSpaceOnUse">
<stop stop-color="#443E1D"/>
<stop offset="1" stop-color="#57502D"/>
</linearGradient>
<linearGradient id="paint32_linear_575_22801" x1="201.132" y1="58.216" x2="197.139" y2="65.1318" gradientUnits="userSpaceOnUse">
<stop stop-color="#443E1D"/>
<stop offset="1" stop-color="#57502D"/>
</linearGradient>
<linearGradient id="paint33_linear_575_22801" x1="201.176" y1="72.9852" x2="197.179" y2="79.9075" gradientUnits="userSpaceOnUse">
<stop stop-color="#443E1D"/>
<stop offset="1" stop-color="#57502D"/>
</linearGradient>
<linearGradient id="paint34_linear_575_22801" x1="201.154" y1="65.5999" x2="197.161" y2="72.5163" gradientUnits="userSpaceOnUse">
<stop stop-color="#443E1D"/>
<stop offset="1" stop-color="#57502D"/>
</linearGradient>
<linearGradient id="paint35_linear_575_22801" x1="193.969" y1="69.7451" x2="189.973" y2="76.6674" gradientUnits="userSpaceOnUse">
<stop stop-color="#443E1D"/>
<stop offset="1" stop-color="#57502D"/>
</linearGradient>
<linearGradient id="paint36_linear_575_22801" x1="193.949" y1="62.361" x2="189.953" y2="69.2833" gradientUnits="userSpaceOnUse">
<stop stop-color="#443E1D"/>
<stop offset="1" stop-color="#57502D"/>
</linearGradient>
<linearGradient id="paint37_linear_575_22801" x1="193.992" y1="77.1305" x2="189.993" y2="84.0588" gradientUnits="userSpaceOnUse">
<stop stop-color="#443E1D"/>
<stop offset="1" stop-color="#57502D"/>
</linearGradient>
<linearGradient id="paint38_linear_575_22801" x1="222.689" y1="45.7681" x2="218.693" y2="52.69" gradientUnits="userSpaceOnUse">
<stop stop-color="#443E1D"/>
<stop offset="1" stop-color="#57502D"/>
</linearGradient>
<linearGradient id="paint39_linear_575_22801" x1="77.7865" y1="188.091" x2="92.5907" y2="213.733" gradientUnits="userSpaceOnUse">
<stop offset="0.5123" stop-color="#938C61"/>
<stop offset="0.6473" stop-color="#8E875C"/>
<stop offset="0.813" stop-color="#7F794E"/>
<stop offset="0.9943" stop-color="#666138"/>
<stop offset="1" stop-color="#656037"/>
</linearGradient>
</defs>
</svg>
