<svg width="356" height="427" viewBox="0 0 356 427" fill="none" xmlns="http://www.w3.org/2000/svg">
<path d="M273.989 73.501L251.367 60.4428V25.7207L273.989 38.7789V73.501Z" fill="#4F4927"/>
<path d="M289.464 64.5678L273.988 73.5005V38.7783L289.464 29.8457V64.5678Z" fill="#656037"/>
<path d="M273.989 38.7787L251.367 25.7205L266.843 16.7832L289.464 29.846L273.989 38.7787Z" fill="#827C52"/>
<path d="M263.988 44.5205L263.887 79.3255L274.675 73.0542L274.772 38.2539L263.988 44.5205Z" fill="#656037"/>
<path d="M213.625 2.94714C209.412 0.515991 205.594 0.290322 202.841 1.88806L192.053 8.15475C194.806 6.5524 198.623 6.778 202.836 9.21375L263.983 44.5161L274.772 38.2494L213.625 2.94714Z" fill="#827C52"/>
<path d="M202.836 9.21789C194.465 4.38783 187.664 8.26473 187.637 17.865C187.609 27.4837 194.368 39.1882 202.739 44.0229L263.886 79.3297L263.983 44.5248L202.836 9.21789Z" fill="#4F4927"/>
<path d="M276.803 66.1708C276.803 63.7535 278.502 60.8113 280.592 59.6049C282.687 58.394 284.386 59.3747 284.386 61.7921C284.386 64.2094 282.687 67.1516 280.592 68.358C278.502 69.5689 276.803 68.5882 276.803 66.1708Z" fill="#343637"/>
<path d="M277.939 68.6387L274.725 66.783C274.025 66.3917 273.588 65.5353 273.588 64.3152C273.588 61.8978 275.287 58.9555 277.382 57.7492C278.418 57.1506 279.353 57.0907 280.039 57.4683L283.253 59.3239C282.567 58.9417 281.632 59.0062 280.596 59.6048C278.501 60.8157 276.806 63.7533 276.806 66.1707C276.802 67.3955 277.235 68.2473 277.939 68.6387Z" fill="url(#paint0_linear_575_22526)"/>
<path d="M292.258 71.5853C293.285 70.4848 294.307 69.32 295.338 68.1459L282.626 60.8064C282.151 60.544 281.507 60.5854 280.793 60.9998C279.347 61.8332 278.178 63.8637 278.178 65.5351C278.178 66.3777 278.477 66.9717 278.96 67.2387L290.287 73.7771C290.95 73.0542 291.586 72.3082 292.258 71.5853Z" fill="url(#paint1_linear_575_22526)"/>
<path d="M305.479 81.6876C305.479 79.7859 306.814 77.4746 308.458 76.5215C310.106 75.5683 311.441 76.3419 311.441 78.2435C311.441 80.1451 310.106 82.4566 308.458 83.4097C306.814 84.3628 305.479 83.5892 305.479 81.6876Z" fill="#343637"/>
<path d="M306.372 83.6309L284.036 70.7339C283.483 70.4254 283.143 69.7531 283.143 68.7908C283.143 66.8892 284.478 64.5778 286.126 63.6247C286.941 63.1551 287.678 63.1044 288.217 63.4037L310.553 76.3007C310.014 76.0014 309.277 76.0521 308.462 76.5217C306.814 77.4703 305.483 79.7862 305.483 81.6878C305.479 82.6502 305.819 83.3224 306.372 83.6309Z" fill="url(#paint2_linear_575_22526)"/>
<path d="M323.892 85.5597L306.92 75.7201L311.211 73.998L328.183 83.8377L323.892 85.5597Z" fill="#4E5153"/>
<path d="M319.619 94.1192L302.647 84.2796L302.633 78.9521L319.605 88.7918L319.619 94.1192Z" fill="#212322"/>
<path d="M319.605 88.7917L302.633 78.952L306.92 75.7197L323.892 85.5594L319.605 88.7917Z" fill="#404244"/>
<path d="M323.892 85.5599L328.184 83.8379L328.197 89.1653L323.911 92.3883L319.619 94.1196L319.605 88.7922L323.892 85.5599Z" fill="#343637"/>
<path d="M321.57 90.3212C321.57 88.8386 322.611 87.0429 323.891 86.3016C325.171 85.5603 326.212 86.1634 326.212 87.6414C326.212 89.124 325.171 90.9198 323.891 91.6612C322.606 92.3979 321.57 91.7992 321.57 90.3212Z" fill="#212322"/>
<path d="M318.113 92.1487L312.754 89.0546C312.362 88.8289 312.04 88.3271 312.04 87.9311V86.3288C312.04 85.9374 312.358 85.7993 312.754 86.0295L318.113 89.1237C318.505 89.3493 318.827 89.8511 318.827 90.2471V91.8494C318.827 92.2408 318.505 92.3743 318.113 92.1487ZM310.152 86.8399V85.2376C310.152 84.8462 309.834 84.3442 309.438 84.114L304.079 81.0198C303.688 80.7942 303.365 80.9277 303.365 81.3191V82.9214C303.365 83.3128 303.683 83.8148 304.079 84.045L309.438 87.1392C309.834 87.3694 310.152 87.2313 310.152 86.8399Z" fill="#212322"/>
<path d="M276.803 48.9775C276.803 46.5602 278.502 43.6179 280.592 42.4116C282.687 41.2006 284.386 42.1813 284.386 44.5986C284.386 47.016 282.687 49.9583 280.592 51.1646C278.502 52.3756 276.803 51.3948 276.803 48.9775Z" fill="#343637"/>
<path d="M277.939 51.4453L274.725 49.5897C274.025 49.1983 273.588 48.3465 273.588 47.1217C273.588 44.7044 275.287 41.7622 277.382 40.5558C278.418 39.9572 279.353 39.8973 280.039 40.2749L283.253 42.1305C282.567 41.7483 281.632 41.8128 280.596 42.4114C278.501 43.6224 276.806 46.56 276.806 48.9773C276.802 50.2021 277.235 51.0585 277.939 51.4453Z" fill="url(#paint3_linear_575_22526)"/>
<path d="M292.258 54.3972C293.285 53.2968 294.307 52.1318 295.338 50.9623L282.626 43.6228C282.151 43.3604 281.507 43.4018 280.793 43.8162C279.347 44.6496 278.178 46.6801 278.178 48.3516C278.178 49.1988 278.477 49.7881 278.96 50.0552L290.287 56.5936C290.95 55.8661 291.586 55.1155 292.258 54.3972Z" fill="url(#paint4_linear_575_22526)"/>
<path d="M332.873 80.3146C332.873 78.413 334.208 76.1015 335.857 75.1484C337.505 74.1953 338.84 74.9688 338.84 76.8704C338.84 78.7721 337.505 81.0836 335.857 82.0367C334.208 82.9898 332.873 82.2163 332.873 80.3146Z" fill="#343637"/>
<path d="M333.767 82.2579L284.03 53.5446C283.477 53.2361 283.137 52.5638 283.137 51.6015C283.137 49.6999 284.472 47.3884 286.12 46.4353C286.935 45.9656 287.672 45.9149 288.211 46.2142L337.948 74.9276C337.409 74.6283 336.673 74.679 335.858 75.1486C334.209 76.0971 332.874 78.4132 332.874 80.3148C332.874 81.2772 333.219 81.9494 333.767 82.2579Z" fill="url(#paint5_linear_575_22526)"/>
<path d="M351.293 84.1867L334.316 74.347L338.608 72.625L355.58 82.4647L351.293 84.1867Z" fill="#4E5153"/>
<path d="M347.02 92.7462L330.048 82.9065L330.029 77.5791L347.006 87.4189L347.02 92.7462Z" fill="#212322"/>
<path d="M347.006 87.4188L330.029 77.579L334.316 74.3467L351.293 84.1863L347.006 87.4188Z" fill="#404244"/>
<path d="M351.293 84.1869L355.579 82.4648L355.598 87.7922L351.311 91.0153L347.02 92.7466L347.006 87.4193L351.293 84.1869Z" fill="#343637"/>
<path d="M348.967 88.9483C348.967 87.4656 350.007 85.6652 351.287 84.9285C352.572 84.1872 353.608 84.7904 353.608 86.2685C353.608 87.7511 352.567 89.5468 351.287 90.2881C350.007 91.0248 348.967 90.4263 348.967 88.9483Z" fill="#212322"/>
<path d="M345.514 90.7757L340.154 87.6815C339.763 87.4559 339.44 86.9541 339.44 86.5581V84.9558C339.44 84.5644 339.758 84.4262 340.154 84.6565L345.514 87.7506C345.905 87.9763 346.227 88.4781 346.227 88.8741V90.4765C346.223 90.8679 345.905 91.0013 345.514 90.7757ZM337.553 85.4668V83.8645C337.553 83.4731 337.235 82.9712 336.839 82.7409L331.479 79.6468C331.088 79.4212 330.766 79.5547 330.766 79.9461V81.5484C330.766 81.9398 331.083 82.4417 331.479 82.672L336.839 85.7661C337.235 85.9964 337.553 85.8582 337.553 85.4668Z" fill="#212322"/>
<path d="M218.81 30.7627C218.474 30.003 218.101 29.2387 217.691 28.4789C216.572 26.4115 215.246 24.5145 213.795 22.8615C211.995 20.8125 210.011 19.1411 208.008 17.9854C206.028 16.8388 204.034 16.2034 202.192 16.208C200.862 16.208 199.711 16.5211 198.739 17.0829L186.021 24.5053C186.993 23.9389 188.149 23.6304 189.479 23.6258C191.312 23.6212 193.301 24.2566 195.281 25.3985C197.284 26.5542 199.268 28.2256 201.073 30.2792C202.524 31.9276 203.85 33.8247 204.969 35.8921C205.383 36.6564 205.756 37.4254 206.092 38.1851C209.665 46.2659 208.919 53.8494 204.559 56.3864L215.476 50.0646C215.637 49.9541 217.276 48.9733 217.276 48.9733C221.632 46.4363 222.378 38.8389 218.81 30.7627Z" fill="url(#paint6_linear_575_22526)"/>
<path d="M195.373 25.362C188.172 21.2042 182.338 24.5746 182.338 32.8902C182.338 41.2059 188.176 51.3126 195.373 55.4705C202.57 59.6283 208.408 56.2578 208.408 47.9421C208.408 39.6265 202.57 29.5198 195.373 25.362Z" fill="#4F4927"/>
<path opacity="0.4" d="M217.7 28.5299C216.581 26.4625 215.25 24.5654 213.804 22.917L201.068 30.2795C202.519 31.9279 203.845 33.825 204.964 35.8924C205.378 36.6567 205.751 37.4256 206.087 38.1854L218.819 30.809C218.482 30.0539 218.109 29.2896 217.7 28.5299Z" fill="#8B855B"/>
<path d="M202.491 268.913L177.517 167.56C177.158 166.078 176.656 164.618 176.03 163.205C174.86 160.557 173.272 158.089 171.457 156.026C169.869 154.217 168.105 152.716 166.296 151.67C165.085 150.971 163.851 150.478 162.635 150.229C160.775 149.847 159.164 150.091 157.87 150.842L152.598 153.917C153.887 153.167 155.498 152.923 157.363 153.305C158.579 153.549 159.813 154.046 161.024 154.746C162.833 155.791 164.597 157.292 166.185 159.102C168 161.169 169.588 163.637 170.758 166.28C171.384 167.694 171.886 169.158 172.245 170.636L197.219 271.989C198.72 278.132 197.298 282.432 194.369 284.136L199.641 281.06C202.57 279.356 203.988 275.056 202.491 268.913Z" fill="#343637"/>
<path d="M197.22 271.989L172.245 170.636C170.629 163.95 166.006 157.619 161.024 154.741C159.813 154.042 158.579 153.544 157.363 153.3C151.138 152.025 147.713 157.73 149.706 166.036L174.814 267.573C175.938 272.173 178.59 276.847 181.993 280.213C183.356 281.566 184.714 282.612 186.031 283.371C193.633 287.764 199.816 282.639 197.22 271.989Z" fill="#212322"/>
<path d="M161.333 278.846L138.941 291.863L150.987 287.567L173.378 274.555L161.333 278.846Z" fill="#363937"/>
<path d="M163.302 294.681L163.27 305.907L185.666 292.895L185.698 281.669L163.302 294.681Z" fill="#6E7175"/>
<path d="M173.378 274.555L150.986 287.567L163.303 294.681L185.699 281.668L173.378 274.555Z" fill="#404244"/>
<path d="M150.986 287.566L138.941 291.862L138.895 301.638L163.275 315.718L163.303 294.68L150.986 287.566Z" fill="#212322"/>
<path d="M224.547 275.724L246.938 288.736L229.487 287.567L207.096 274.55L224.547 275.724Z" fill="#4E5153"/>
<path d="M217.165 294.676L217.197 305.907L194.806 292.894L194.773 281.664L217.165 294.676Z" fill="#6E7175"/>
<path d="M207.095 274.55L229.486 287.567L217.165 294.676L194.773 281.664L207.095 274.55Z" fill="#404244"/>
<path d="M246.936 288.736L229.486 287.566L217.164 294.676L217.192 315.713L246.982 298.516L246.936 288.736Z" fill="#343637"/>
<path d="M189.332 337.759L157.414 319.328V294.993L189.332 313.425V337.759Z" fill="#4F4927"/>
<path d="M221.895 318.96L189.332 337.759V313.425L221.895 294.625V318.96Z" fill="#656037"/>
<path d="M189.332 313.425L157.414 294.993L189.977 276.193L221.895 294.625L189.332 313.425Z" fill="#827C52"/>
<path d="M217.198 300.491L194.807 313.503L211.12 322.919L233.512 309.907L217.198 300.491Z" fill="#404244"/>
<path d="M228.521 344.215L228.475 354.014L250.871 340.997L250.912 331.203L228.521 344.215Z" fill="#343637"/>
<path d="M233.513 309.907L211.121 322.919L228.521 344.215L250.913 331.203L233.513 309.907Z" fill="#4E5153"/>
<path d="M228.521 344.215L211.12 322.919L194.807 313.503L194.779 334.559L228.475 354.013L228.521 344.215Z" fill="#212322"/>
<path d="M161.829 300.68L184.221 313.692L171.904 320.806L149.508 307.794L161.829 300.68Z" fill="#404244"/>
<path d="M154.499 342.102L154.545 351.9L132.153 338.883L132.107 329.085L154.499 342.102Z" fill="#212322"/>
<path d="M149.508 307.794L171.904 320.806L154.499 342.102L132.107 329.085L149.508 307.794Z" fill="#363937"/>
<path d="M171.903 320.806L154.498 342.102L154.544 351.9L184.247 334.748L184.22 313.692L171.903 320.806Z" fill="#343637"/>
<path d="M202.412 276.345L191.969 282.413L198.212 306.301L208.655 300.228L202.412 276.345Z" fill="#656037"/>
<path d="M200.981 272.266C199.779 269.54 198.135 266.975 196.238 264.811C194.599 262.946 192.766 261.381 190.855 260.276C187.434 258.3 184.34 258.121 182.107 259.419L171.664 265.488C173.897 264.189 176.996 264.369 180.413 266.344C182.323 267.449 184.156 269.01 185.795 270.88C187.692 273.044 189.336 275.608 190.538 278.334C191.127 279.665 191.611 281.037 191.97 282.414L202.413 276.345C202.053 274.968 201.57 273.596 200.981 272.266Z" fill="#827C52"/>
<path d="M180.416 266.349C185.62 269.351 190.242 275.788 191.974 282.414L198.213 306.302L168.035 288.879L168.077 273.38C168.1 265.585 173.616 262.422 180.416 266.349Z" fill="#4F4927"/>
<path opacity="0.4" d="M196.238 264.812L185.795 270.88C187.692 273.044 189.336 275.609 190.538 278.335L200.98 272.266C199.779 269.545 198.139 266.976 196.238 264.812Z" fill="#8B855B"/>
<path d="M223.709 156.127C219.404 148.143 213.266 141.665 207.059 138.078C203.652 136.112 200.222 135.016 197.058 135.021C192.403 135.025 189.033 137.231 186.938 140.822L134.567 154.382C125.634 156.685 123.622 169.895 130.073 183.874C133.964 192.295 140.032 199.073 146.193 202.628C150.268 204.981 154.38 205.924 157.934 205.008L210.319 191.457C213.773 192.852 217.189 193.294 220.219 192.512C230.947 189.735 232.816 172.998 223.709 156.127Z" fill="#4F4927"/>
<path d="M184.571 279.259L159.601 177.906C159.242 176.423 158.74 174.959 158.114 173.55C156.944 170.903 155.356 168.435 153.541 166.372C151.953 164.562 150.189 163.061 148.38 162.016C147.169 161.316 145.935 160.824 144.719 160.575C142.859 160.193 141.248 160.437 139.954 161.187L134.682 164.263C135.971 163.513 137.582 163.269 139.447 163.651C140.663 163.895 141.897 164.392 143.108 165.092C144.917 166.137 146.681 167.638 148.269 169.448C150.084 171.515 151.672 173.983 152.842 176.626C153.468 178.04 153.97 179.504 154.329 180.982L179.299 282.335C180.8 288.477 179.377 292.778 176.449 294.481L181.721 291.406C184.649 289.702 186.067 285.397 184.571 279.259Z" fill="#343637"/>
<path d="M179.299 282.335L154.329 180.982C152.713 174.296 148.09 167.965 143.108 165.087C141.897 164.387 140.663 163.895 139.447 163.646C133.222 162.371 129.797 168.075 131.79 176.382L156.898 277.919C158.022 282.519 160.674 287.192 164.077 290.558C165.44 291.912 166.798 292.957 168.115 293.717C175.712 298.105 181.9 292.985 179.299 282.335Z" fill="#212322"/>
<path d="M181.671 203.268L166.596 211.97L176.191 258.282L194.457 247.737L181.671 203.268Z" fill="#343637"/>
<path d="M225.982 159.903C225.402 158.591 224.757 157.274 224.044 155.957C222.124 152.402 219.84 149.142 217.344 146.302C214.245 142.77 210.824 139.892 207.385 137.908C203.982 135.942 200.561 134.85 197.407 134.859C195.119 134.859 193.134 135.398 191.463 136.37L183.027 141.273C184.699 140.302 186.683 139.768 188.972 139.763C192.126 139.754 195.547 140.845 198.95 142.811C202.389 144.796 205.81 147.678 208.909 151.205C211.4 154.042 213.688 157.302 215.608 160.861C216.322 162.178 216.967 163.494 217.547 164.807C223.694 178.708 222.409 191.752 214.909 196.112L223.344 191.209C230.845 186.848 232.129 173.804 225.982 159.903Z" fill="#C8CCCE"/>
<path d="M199.111 142.746C186.725 135.596 176.688 141.393 176.688 155.694C176.688 169.995 186.73 187.382 199.111 194.533C211.497 201.683 221.535 195.886 221.535 181.585C221.535 167.283 211.497 149.897 199.111 142.746Z" fill="#8E9397"/>
<path opacity="0.6" d="M198.149 148.134C187.954 142.249 179.689 147.02 179.689 158.789C179.689 170.558 187.954 184.873 198.149 190.757C208.343 196.642 216.603 191.871 216.603 180.103C216.603 168.334 208.338 154.023 198.149 148.134ZM198.149 189.85C188.392 184.214 180.481 170.516 180.481 159.249C180.481 147.982 188.392 143.414 198.149 149.05C207.906 154.681 215.816 168.384 215.816 179.651C215.816 190.914 207.906 195.481 198.149 189.85Z" fill="#8E9397"/>
<path d="M236.181 107.422L262.56 92.0986L262.454 128.607L236.08 143.935L236.181 107.422Z" fill="#656037"/>
<path d="M215.258 57.616L241.632 42.2832L262.559 92.0987L236.18 107.422L215.258 57.616Z" fill="#90895B"/>
<path d="M154.42 22.4883L180.799 7.16016L241.633 42.2829L215.258 57.6157L154.42 22.4883Z" fill="#827C52"/>
<path d="M215.258 57.6157L236.181 107.422L236.08 143.935L154.42 96.7902V22.4883L215.258 57.6157Z" fill="#4F4927"/>
<path d="M238.451 112.643L238.387 134.929C238.382 136.937 240.555 138.193 242.291 137.185L257.26 128.487C259.084 127.428 260.207 125.481 260.216 123.372L260.281 101.086C260.285 99.0787 258.112 97.8218 256.376 98.8302L241.407 107.528C239.584 108.587 238.456 110.535 238.451 112.643Z" fill="#292B2B"/>
<path d="M252.388 125.669C254.211 124.61 255.335 122.663 255.344 120.554L255.404 99.3916L241.407 107.528C239.583 108.587 238.46 110.534 238.45 112.643L238.391 133.805L252.388 125.669Z" fill="#212322"/>
<path d="M157.505 202.421L134.722 252.421C133.663 254.746 132.13 256.468 130.256 257.559L198.973 217.699C200.847 216.607 202.38 214.89 203.439 212.56L226.222 162.561L157.505 202.421Z" fill="#5C562C"/>
<path d="M138.227 111.76L69.5098 151.621L157.505 202.421L226.217 162.561L138.227 111.76Z" fill="#443F22"/>
<path d="M260.354 156.427L265.115 146.688L265.083 158.029L260.299 176.484L260.354 156.427Z" fill="#867E50"/>
<path d="M222.902 67.5884L231.508 66.9668L265.116 146.688L260.355 156.427L222.902 67.5884Z" fill="#A1996A"/>
<path d="M140.832 20.209L154.47 22.4928L231.507 66.9671L222.902 67.5888L140.832 20.209Z" fill="#999161"/>
<path d="M180.356 206.836L202.094 209.87L170.342 211.081L154.977 207.803L180.356 206.836Z" fill="#443E1D"/>
<path d="M202.154 189.818L260.354 156.427L260.299 176.484L202.094 209.871L202.154 189.818Z" fill="#656037"/>
<path d="M206.934 192.595L255.543 164.706L255.515 173.703L206.906 201.592L206.934 192.595Z" fill="#212322"/>
<path d="M180.39 195.496L202.155 189.818L202.095 209.871L180.357 206.836L180.39 195.496Z" fill="#5A5531"/>
<path d="M164.701 100.98L222.901 67.5889L260.354 156.427L202.154 189.818L164.701 100.98Z" fill="#90895B"/>
<path d="M170.756 103.024L220.59 74.4355L254.294 154.383L204.46 182.971L170.756 103.024Z" fill="#212322"/>
<path d="M82.627 53.5958L140.832 20.209L222.901 67.5888L164.701 100.98L82.627 53.5958Z" fill="#827C52"/>
<path d="M146.781 115.775L164.702 100.98L202.154 189.819L180.389 195.496L146.781 115.775Z" fill="#867E50"/>
<path d="M180.389 195.495L146.781 115.774L69.7442 71.2949L69.5186 151.619L69.293 229.458L115.448 256.108C123.874 260.97 131.485 259.52 134.722 252.42L155.055 207.803L180.361 206.836L180.389 195.495Z" fill="#4F4927"/>
<path d="M69.7441 71.2952L82.6274 53.5957L164.702 100.98L146.781 115.774L69.7441 71.2952Z" fill="#766E40"/>
<path d="M125.228 171.484L151.607 156.155L151.501 192.664L125.127 207.992L125.228 171.484Z" fill="#656037"/>
<path d="M104.305 121.673L130.679 106.345L151.606 156.156L125.227 171.484L104.305 121.673Z" fill="#90895B"/>
<path d="M43.4707 86.5498L69.845 71.2217L130.679 106.344L104.305 121.673L43.4707 86.5498Z" fill="#827C52"/>
<path d="M104.305 121.673L125.228 171.483L125.127 207.992L43.4668 160.847L43.4714 86.5498L104.305 121.673Z" fill="#4F4927"/>
<path d="M127.48 176.714L127.416 198.999C127.411 201.007 129.585 202.264 131.321 201.256L146.29 192.558C148.113 191.499 149.236 189.551 149.246 187.442L149.31 165.157C149.315 163.149 147.141 161.892 145.406 162.9L130.437 171.598C128.613 172.657 127.49 174.605 127.48 176.714Z" fill="#292B2B"/>
<path d="M141.423 189.739C143.247 188.68 144.37 186.733 144.379 184.624L144.439 163.462L130.442 171.598C128.618 172.657 127.495 174.605 127.486 176.713L127.426 197.876L141.423 189.739Z" fill="#212322"/>
<path opacity="0.4" d="M220.591 74.4355L209.08 81.0383V128.676L253.95 154.581L254.296 154.383L220.591 74.4355Z" fill="#4F4927"/>
<path opacity="0.4" d="M186.956 141.448L209.081 128.676V81.0381L170.758 103.024L186.956 141.448Z" fill="#656037"/>
<path d="M76.7427 341.512L51.7728 240.159C51.4136 238.676 50.9117 237.212 50.2855 235.803C49.116 233.156 47.5275 230.688 45.7133 228.625C44.1248 226.815 42.3613 225.314 40.5517 224.269C39.3408 223.569 38.1068 223.077 36.8912 222.828C35.031 222.446 33.4195 222.69 32.1256 223.44L26.8535 226.516C28.1428 225.766 29.7543 225.522 31.6145 225.904C32.8301 226.148 34.0641 226.645 35.2751 227.345C37.0846 228.39 38.8481 229.891 40.4366 231.701C42.2508 233.768 43.8393 236.236 45.0088 238.879C45.635 240.293 46.1369 241.757 46.4961 243.235L71.466 344.588C72.967 350.726 71.5443 355.031 68.6158 356.734L73.8879 353.659C76.8209 351.96 78.2391 347.654 76.7427 341.512Z" fill="#343637"/>
<path d="M71.4669 344.588L46.497 243.235C44.8808 236.549 40.258 230.218 35.2759 227.34C34.065 226.64 32.831 226.148 31.6154 225.899C25.3902 224.624 21.9645 230.328 23.9582 238.635L49.0663 340.172C50.1897 344.772 52.8419 349.446 56.2446 352.811C57.6075 354.165 58.9704 355.21 60.2827 355.97C67.8846 360.363 74.0684 355.238 71.4669 344.588Z" fill="#212322"/>
<path d="M35.5848 351.449L13.1934 364.461L25.234 360.17L47.63 347.153L35.5848 351.449Z" fill="#363937"/>
<path d="M37.5537 367.284L37.5215 378.51L59.9129 365.498L59.9451 354.268L37.5537 367.284Z" fill="#6E7175"/>
<path d="M47.6285 347.153L25.2324 360.17L37.5539 367.284L59.9453 354.267L47.6285 347.153Z" fill="#404244"/>
<path d="M25.2332 360.17L13.1925 364.461L13.1465 374.241L37.527 388.317L37.5547 367.284L25.2332 360.17Z" fill="#212322"/>
<path d="M98.7985 348.323L121.19 361.34L103.739 360.165L81.3477 347.153L98.7985 348.323Z" fill="#4E5153"/>
<path d="M91.4168 367.28L91.449 378.51L69.0576 365.493L69.0254 354.268L91.4168 367.28Z" fill="#6E7175"/>
<path d="M81.3469 347.153L103.738 360.165L91.4168 367.279L69.0254 354.267L81.3469 347.153Z" fill="#404244"/>
<path d="M121.188 361.339L103.737 360.165L91.416 367.279L91.4436 388.317L121.23 371.119L121.188 361.339Z" fill="#343637"/>
<path d="M63.584 410.358L31.666 391.927V367.597L63.584 386.024V410.358Z" fill="#4F4927"/>
<path d="M96.1466 391.558L63.584 410.358V386.024L96.1466 367.224V391.558Z" fill="#656037"/>
<path d="M63.584 386.024L31.666 367.597L64.224 348.797L96.1467 367.224L63.584 386.024Z" fill="#827C52"/>
<path d="M91.45 373.09L69.0586 386.107L85.3675 395.523L107.764 382.51L91.45 373.09Z" fill="#404244"/>
<path d="M102.773 416.814L102.727 426.612L125.118 413.6L125.164 403.802L102.773 416.814Z" fill="#343637"/>
<path d="M107.763 382.511L85.3672 395.523L102.772 416.814L125.163 403.802L107.763 382.511Z" fill="#4E5153"/>
<path d="M102.773 416.814L85.3678 395.523L69.0589 386.106L69.0312 407.158L102.727 426.612L102.773 416.814Z" fill="#212322"/>
<path d="M36.0813 373.283L58.4727 386.295L46.1512 393.409L23.7598 380.392L36.0813 373.283Z" fill="#404244"/>
<path d="M28.7508 414.701L28.7968 424.499L6.40543 411.487L6.35938 401.688L28.7508 414.701Z" fill="#212322"/>
<path d="M23.7596 380.393L46.151 393.409L28.7508 414.7L6.35938 401.688L23.7596 380.393Z" fill="#363937"/>
<path d="M46.1548 393.409L28.75 414.7L28.7961 424.498L58.4993 407.351L58.4717 386.295L46.1548 393.409Z" fill="#343637"/>
<path d="M76.6636 348.948L66.2207 355.012L72.4597 378.9L82.9026 372.832L76.6636 348.948Z" fill="#656037"/>
<path d="M75.2325 344.869C74.0308 342.143 72.387 339.579 70.4899 337.414C68.8508 335.55 67.0182 333.984 65.1073 332.879C61.6862 330.904 58.5921 330.724 56.3589 332.023L45.916 338.091C48.1492 336.793 51.248 336.972 54.6645 338.948C56.5753 340.048 58.4079 341.614 60.0471 343.483C61.9441 345.647 63.5879 348.212 64.7896 350.938C65.379 352.268 65.8625 353.641 66.2216 355.017L76.6645 348.949C76.3054 347.567 75.8219 346.2 75.2325 344.869Z" fill="#827C52"/>
<path d="M54.6685 338.948C59.8715 341.95 64.4943 348.387 66.2256 355.013L72.4646 378.9L42.2871 361.477L42.3285 345.979C42.3516 338.183 47.8677 335.025 54.6685 338.948Z" fill="#4F4927"/>
<path opacity="0.4" d="M70.4898 337.414L60.0469 343.483C61.9439 345.647 63.5877 348.212 64.7895 350.937L75.2324 344.869C74.0306 342.143 72.3868 339.578 70.4898 337.414Z" fill="#8B855B"/>
<path d="M25.6902 217.183C24.797 217.413 23.9774 217.749 23.2223 218.187L6.35156 227.99C7.10209 227.552 7.92628 227.216 8.81954 226.986L61.1905 213.426L78.0612 203.623L25.6902 217.183Z" fill="#5C562C"/>
<path d="M126.296 217.354C125.72 216.046 125.076 214.734 124.367 213.421C122.447 209.862 120.163 206.598 117.667 203.761C114.573 200.234 111.152 197.361 107.712 195.372C104.305 193.406 100.875 192.31 97.7114 192.314C95.423 192.319 93.4431 192.853 91.7717 193.82L65.3652 209.13C67.0366 208.158 69.0165 207.624 71.305 207.624C74.4682 207.62 77.8985 208.716 81.3058 210.682C84.7453 212.666 88.1618 215.544 91.2606 219.071C93.7516 221.907 96.04 225.172 97.9601 228.731C98.6692 230.043 99.3138 231.356 99.8893 232.663C106.032 246.559 104.747 259.627 97.2418 263.987L123.648 248.677C131.154 244.317 132.438 231.25 126.296 217.354Z" fill="url(#paint7_linear_575_22526)"/>
<path d="M97.9608 228.731C93.6557 220.747 87.518 214.268 81.3112 210.681C77.9039 208.715 74.4736 207.619 71.3103 207.624C66.6552 207.629 63.2848 209.83 61.1898 213.426L8.8188 226.986C-0.113824 229.288 -2.12596 242.498 4.32487 256.477C8.21563 264.899 14.2843 271.677 20.445 275.231C24.52 277.584 28.6317 278.528 32.1864 277.612L84.5711 264.061C88.0291 265.456 91.4409 265.898 94.4707 265.115C105.199 262.339 107.068 245.597 97.9608 228.731Z" fill="#4F4927"/>
<path d="M58.8227 351.859L33.8528 250.506C33.4937 249.023 32.9918 247.559 32.3656 246.15C31.1961 243.502 29.6076 241.034 27.7934 238.972C26.2049 237.162 24.4414 235.661 22.6318 234.616C21.4208 233.916 20.1869 233.419 18.9713 233.175C17.1111 232.792 15.4995 233.036 14.2057 233.787L8.93359 236.863C10.2228 236.112 11.8344 235.868 13.6946 236.25C14.9102 236.494 16.1441 236.992 17.3551 237.691C19.1647 238.737 20.9282 240.238 22.5167 242.047C24.3308 244.115 25.9194 246.583 27.0889 249.226C27.7151 250.639 28.217 252.103 28.5761 253.581L53.5461 354.935C55.0471 361.077 53.6243 365.377 50.6959 367.081L55.968 364.005C58.901 362.306 60.3192 358.001 58.8227 351.859Z" fill="#343637"/>
<path d="M53.5509 354.934L28.581 253.581C26.9694 246.896 22.3419 240.56 17.3599 237.687C16.149 236.987 14.915 236.494 13.6994 236.246C7.4742 234.97 4.04848 240.675 6.0422 248.982L31.1502 350.519C32.2737 355.119 34.9259 359.792 38.3286 363.158C39.6915 364.512 41.0544 365.557 42.3667 366.317C49.964 370.709 56.1478 365.585 53.5509 354.934Z" fill="#212322"/>
<path d="M55.9226 275.866L40.8477 284.573L50.4433 330.885L68.7045 320.341L55.9226 275.866Z" fill="#343637"/>
<path d="M100.235 232.507C99.6553 231.199 99.0106 229.877 98.3015 228.561C96.3815 225.006 94.0977 221.746 91.6021 218.905C88.5033 215.373 85.0822 212.496 81.6427 210.511C78.24 208.545 74.8189 207.454 71.6648 207.463C69.3764 207.463 67.3919 208.002 65.7205 208.973L57.2852 213.877C58.9566 212.905 60.9411 212.371 63.2295 212.367C66.3835 212.357 69.8046 213.449 73.2073 215.415C76.6468 217.404 80.068 220.282 83.1667 223.809C85.6578 226.645 87.9461 229.905 89.8662 233.464C90.5799 234.781 91.2245 236.103 91.8047 237.41C97.947 251.311 96.667 264.356 89.1663 268.716L97.6017 263.812C105.098 259.452 106.382 246.407 100.235 232.507Z" fill="#343637"/>
<path d="M73.3631 215.35C60.9772 208.199 50.9395 213.996 50.9395 228.298C50.9395 242.599 60.9772 259.985 73.3631 267.136C85.7491 274.287 95.7868 268.49 95.7868 254.188C95.7868 239.887 85.7491 222.501 73.3631 215.35Z" fill="#212322"/>
<path opacity="0.6" d="M72.396 220.737C62.2018 214.853 53.9414 219.623 53.9414 231.392C53.9414 243.161 62.2064 257.476 72.396 263.361C82.5903 269.245 90.8552 264.475 90.8552 252.706C90.8552 240.937 82.5903 226.622 72.396 220.737ZM72.396 262.449C62.6392 256.818 54.7288 243.115 54.7288 231.848C54.7288 220.581 62.6392 216.013 72.396 221.649C82.1528 227.285 90.0633 240.983 90.0633 252.25C90.0633 263.517 82.1574 268.085 72.396 262.449Z" fill="#212322"/>
<path opacity="0.4" d="M124.39 213.513C122.466 209.954 120.177 206.694 117.686 203.857L83.1621 223.808C85.6531 226.645 87.9415 229.905 89.8615 233.464C90.5752 234.781 91.2199 236.102 91.8 237.41L126.315 217.436C125.739 216.133 125.099 214.825 124.39 213.513Z" fill="#8B855B"/>
<path d="M24.6038 255.879C24.6038 260.875 21.0952 262.901 16.7716 260.4C12.4434 257.9 8.93945 251.827 8.93945 246.831C8.93945 241.835 12.448 239.809 16.7716 242.309C21.0952 244.81 24.6038 250.883 24.6038 255.879Z" fill="#4F4927"/>
<path d="M50.3753 357.411C50.3753 362.407 46.8667 364.433 42.5431 361.933C38.2149 359.437 34.7109 353.359 34.7109 348.363C34.7109 343.368 38.2195 341.341 42.5431 343.842C46.8667 346.337 50.3753 352.415 50.3753 357.411Z" fill="#4F4927"/>
<path d="M175.782 285.007C175.782 290.002 172.273 292.028 167.949 289.528C163.621 287.028 160.117 280.955 160.117 275.959C160.117 270.963 163.626 268.937 167.949 271.437C172.273 273.938 175.782 280.011 175.782 285.007Z" fill="#4F4927"/>
<path d="M67.9445 117.86C67.6084 117.101 67.2354 116.336 66.8256 115.577C65.7067 113.505 64.3806 111.612 62.9302 109.959C61.1299 107.91 59.1454 106.239 57.1425 105.083C55.1625 103.937 53.1642 103.301 51.327 103.306C49.9964 103.306 48.8453 103.619 47.8737 104.181L35.1562 111.603C36.1278 111.037 37.2835 110.728 38.6142 110.723C40.4468 110.719 42.4359 111.354 44.4158 112.496C46.4141 113.652 48.4032 115.323 50.2082 117.377C51.6586 119.025 52.9846 120.922 54.1035 122.99C54.5179 123.759 54.8909 124.523 55.227 125.283C58.8001 133.364 58.0542 140.947 53.6937 143.484L64.6109 137.162C64.772 137.052 66.4066 136.071 66.4066 136.071C70.7716 133.534 71.5175 125.941 67.9445 117.86Z" fill="url(#paint8_linear_575_22526)"/>
<path d="M44.5078 112.46C37.3065 108.302 31.4727 111.672 31.4727 119.988C31.4727 128.304 37.3111 138.41 44.5078 142.568C51.7092 146.726 57.543 143.355 57.543 135.04C57.543 126.724 51.7092 116.617 44.5078 112.46Z" fill="#4F4927"/>
<path opacity="0.4" d="M66.839 115.627C65.7201 113.56 64.3894 111.663 62.939 110.015L50.2031 117.377C51.6535 119.026 52.9796 120.923 54.0985 122.99C54.5129 123.759 54.8858 124.523 55.222 125.283L67.9533 117.907C67.6217 117.151 67.2488 116.392 66.839 115.627Z" fill="#8B855B"/>
<path d="M88.4521 145.864L88.3555 180.669L99.1391 174.398L99.2404 139.598L88.4521 145.864Z" fill="#656037"/>
<path d="M38.0894 104.296C33.8763 101.865 30.0592 101.639 27.3058 103.237L16.5176 109.503C19.271 107.901 23.0881 108.127 27.3012 110.562L88.4482 145.865L99.2364 139.598L38.0894 104.296Z" fill="#827C52"/>
<path d="M27.3048 110.563C18.9339 105.733 12.1332 109.609 12.1056 119.21C12.0779 128.828 18.8372 140.533 27.2081 145.368L88.3552 180.674L88.4518 145.869L27.3048 110.563Z" fill="#4F4927"/>
<path d="M73.6477 189.17L51.0215 176.107V141.385L73.6477 154.447V189.17Z" fill="#4F4927"/>
<path d="M89.124 180.237L73.6484 189.17V154.448L89.124 145.511V180.237Z" fill="#656037"/>
<path d="M73.6477 154.447L51.0215 141.385L66.497 132.452L89.1233 145.51L73.6477 154.447Z" fill="#827C52"/>
<path d="M85.584 176.572C85.584 174.155 87.283 171.213 89.3781 170.006C91.4731 168.795 93.1721 169.776 93.1721 172.193C93.1721 174.611 91.4731 177.553 89.3781 178.759C87.2784 179.97 85.584 178.99 85.584 176.572Z" fill="#343637"/>
<path d="M86.7164 179.04L83.5025 177.184C82.8027 176.793 82.3652 175.941 82.3652 174.716C82.3652 172.299 84.0643 169.357 86.1593 168.151C87.1953 167.552 88.13 167.492 88.8161 167.87L92.03 169.725C91.3439 169.343 90.4092 169.407 89.3732 170.006C87.2782 171.217 85.5791 174.155 85.5791 176.572C85.5837 177.797 86.0166 178.649 86.7164 179.04Z" fill="url(#paint9_linear_575_22526)"/>
<path d="M101.041 181.987C102.068 180.887 103.09 179.722 104.122 178.552L91.4088 171.213C90.9346 170.95 90.29 170.992 89.5763 171.406C88.1305 172.239 86.9609 174.27 86.9609 175.941C86.9609 176.789 87.2602 177.378 87.7437 177.645L99.0706 184.183C99.729 183.456 100.369 182.705 101.041 181.987Z" fill="url(#paint10_linear_575_22526)"/>
<path d="M114.256 192.089C114.256 190.187 115.591 187.876 117.235 186.923C118.883 185.97 120.219 186.743 120.219 188.645C120.219 190.546 118.883 192.858 117.235 193.811C115.591 194.764 114.256 193.991 114.256 192.089Z" fill="#343637"/>
<path d="M115.149 194.032L92.8132 181.135C92.2607 180.827 91.9199 180.155 91.9199 179.192C91.9199 177.291 93.2552 174.979 94.9036 174.026C95.7186 173.556 96.4553 173.506 96.994 173.805L119.33 186.702C118.791 186.403 118.055 186.453 117.24 186.923C115.591 187.876 114.261 190.188 114.261 192.089C114.256 193.052 114.601 193.724 115.149 194.032Z" fill="url(#paint11_linear_575_22526)"/>
<path d="M132.669 195.961L115.697 186.122L119.989 184.404L136.961 194.239L132.669 195.961Z" fill="#4E5153"/>
<path d="M128.402 204.521L111.43 194.682L111.416 189.354L128.388 199.194L128.402 204.521Z" fill="#212322"/>
<path d="M128.388 199.194L111.416 189.355L115.698 186.122L132.67 195.962L128.388 199.194Z" fill="#404244"/>
<path d="M132.671 195.961L136.962 194.239L136.981 199.567L132.694 202.79L128.402 204.521L128.389 199.194L132.671 195.961Z" fill="#343637"/>
<path d="M130.348 200.723C130.348 199.24 131.388 197.44 132.668 196.703C133.953 195.962 134.989 196.565 134.989 198.043C134.989 199.526 133.948 201.321 132.668 202.062C131.388 202.799 130.348 202.201 130.348 200.723Z" fill="#212322"/>
<path d="M126.894 202.55L121.535 199.456C121.144 199.23 120.821 198.728 120.821 198.332V196.73C120.821 196.339 121.139 196.201 121.535 196.431L126.894 199.525C127.286 199.751 127.608 200.253 127.608 200.648V202.251C127.604 202.642 127.286 202.776 126.894 202.55ZM118.933 197.241V195.639C118.933 195.248 118.616 194.746 118.22 194.515L112.86 191.421C112.469 191.196 112.146 191.329 112.146 191.72V193.323C112.146 193.714 112.464 194.216 112.86 194.446L118.22 197.541C118.616 197.766 118.933 197.633 118.933 197.241Z" fill="#212322"/>
<path d="M85.584 159.379C85.584 156.962 87.283 154.019 89.3781 152.813C91.4731 151.602 93.1721 152.583 93.1721 155C93.1721 157.417 91.4731 160.36 89.3781 161.566C87.2784 162.777 85.584 161.796 85.584 159.379Z" fill="#343637"/>
<path d="M86.7164 161.847L83.5025 159.991C82.8027 159.6 82.3652 158.743 82.3652 157.523C82.3652 155.106 84.0643 152.164 86.1593 150.957C87.1953 150.359 88.13 150.299 88.8161 150.676L92.03 152.532C91.3439 152.15 90.4092 152.214 89.3732 152.813C87.2782 154.024 85.5791 156.961 85.5791 159.379C85.5837 160.604 86.0166 161.46 86.7164 161.847Z" fill="url(#paint12_linear_575_22526)"/>
<path d="M101.041 164.799C102.068 163.698 103.09 162.533 104.122 161.364L91.4088 154.024C90.9346 153.762 90.29 153.803 89.5763 154.218C88.1305 155.051 86.9609 157.081 86.9609 158.753C86.9609 159.595 87.2602 160.19 87.7437 160.457L99.0706 166.995C99.729 166.267 100.369 165.517 101.041 164.799Z" fill="url(#paint13_linear_575_22526)"/>
<path d="M141.656 190.716C141.656 188.814 142.992 186.503 144.64 185.55C146.288 184.601 147.624 185.37 147.624 187.272C147.624 189.173 146.288 191.485 144.64 192.438C142.992 193.391 141.656 192.618 141.656 190.716Z" fill="#343637"/>
<path d="M142.55 192.659L92.8132 163.946C92.2607 163.637 91.9199 162.965 91.9199 162.003C91.9199 160.101 93.2552 157.79 94.9036 156.837C95.7186 156.367 96.4553 156.316 96.994 156.616L146.731 185.329C146.193 185.03 145.456 185.08 144.641 185.55C142.992 186.498 141.657 188.814 141.657 190.716C141.657 191.678 141.998 192.351 142.55 192.659Z" fill="url(#paint14_linear_575_22526)"/>
<path d="M160.072 194.588L143.1 184.749L147.391 183.026L164.363 192.866L160.072 194.588Z" fill="#4E5153"/>
<path d="M155.803 203.147L138.826 193.308L138.812 187.98L155.784 197.82L155.803 203.147Z" fill="#212322"/>
<path d="M155.784 197.821L138.812 187.981L143.099 184.749L160.071 194.589L155.784 197.821Z" fill="#404244"/>
<path d="M160.072 194.588L164.363 192.866L164.377 198.193L160.095 201.417L155.804 203.148L155.785 197.821L160.072 194.588Z" fill="#343637"/>
<path d="M157.75 199.345C157.75 197.867 158.791 196.066 160.071 195.325C161.355 194.584 162.391 195.187 162.391 196.665C162.391 198.147 161.351 199.943 160.071 200.685C158.791 201.426 157.75 200.827 157.75 199.345Z" fill="#212322"/>
<path d="M154.297 201.177L148.937 198.083C148.546 197.857 148.224 197.355 148.224 196.959V195.357C148.224 194.966 148.541 194.828 148.937 195.058L154.297 198.152C154.688 198.378 155.011 198.879 155.011 199.275V200.878C155.006 201.269 154.688 201.403 154.297 201.177ZM146.336 195.868V194.266C146.336 193.874 146.018 193.373 145.622 193.142L140.263 190.048C139.871 189.823 139.549 189.956 139.549 190.347V191.95C139.549 192.341 139.867 192.843 140.263 193.073L145.622 196.167C146.018 196.393 146.336 196.259 146.336 195.868Z" fill="#212322"/>
<path d="M106.711 48.4024L149.32 23.6396L169.249 35.1508L126.644 59.9089L106.711 48.4024Z" fill="#999161"/>
<path d="M126.643 59.9086L169.248 35.1504L179 50.9253L136.395 75.688L126.643 59.9086Z" fill="#A1996A"/>
<path d="M131.426 60.6183L167.773 39.5254L174.339 50.1432L137.992 71.2362L131.426 60.6183Z" fill="#827C52"/>
<path d="M126.643 59.9089L136.395 75.6883L102.221 55.9536L106.71 48.4023L126.643 59.9089Z" fill="#4F4927"/>
<path d="M161.875 42.951L174.339 50.1432L167.773 39.5254L161.875 42.951Z" fill="#4F4927"/>
<defs>
<linearGradient id="paint0_linear_575_22526" x1="280.339" y1="57.6428" x2="274.977" y2="66.9304" gradientUnits="userSpaceOnUse">
<stop stop-color="#404244"/>
<stop offset="0.3577" stop-color="#393B3C"/>
<stop offset="0.9121" stop-color="#252726"/>
<stop offset="1" stop-color="#212322"/>
</linearGradient>
<linearGradient id="paint1_linear_575_22526" x1="288.065" y1="63.9512" x2="284.363" y2="70.3629" gradientUnits="userSpaceOnUse">
<stop stop-color="#827C52"/>
<stop offset="0.3234" stop-color="#6C6640"/>
<stop offset="0.7331" stop-color="#57512E"/>
<stop offset="1" stop-color="#4F4927"/>
</linearGradient>
<linearGradient id="paint2_linear_575_22526" x1="298.356" y1="69.2656" x2="294.138" y2="76.5696" gradientUnits="userSpaceOnUse">
<stop stop-color="#404244"/>
<stop offset="0.3577" stop-color="#393B3C"/>
<stop offset="0.9121" stop-color="#252726"/>
<stop offset="1" stop-color="#212322"/>
</linearGradient>
<linearGradient id="paint3_linear_575_22526" x1="280.339" y1="40.4508" x2="274.977" y2="49.7384" gradientUnits="userSpaceOnUse">
<stop stop-color="#404244"/>
<stop offset="0.3577" stop-color="#393B3C"/>
<stop offset="0.9121" stop-color="#252726"/>
<stop offset="1" stop-color="#212322"/>
</linearGradient>
<linearGradient id="paint4_linear_575_22526" x1="288.065" y1="46.7594" x2="284.363" y2="53.1715" gradientUnits="userSpaceOnUse">
<stop stop-color="#827C52"/>
<stop offset="0.3234" stop-color="#6C6640"/>
<stop offset="0.7331" stop-color="#57512E"/>
<stop offset="1" stop-color="#4F4927"/>
</linearGradient>
<linearGradient id="paint5_linear_575_22526" x1="312.054" y1="59.9825" x2="307.837" y2="67.2865" gradientUnits="userSpaceOnUse">
<stop stop-color="#404244"/>
<stop offset="0.3577" stop-color="#393B3C"/>
<stop offset="0.9121" stop-color="#252726"/>
<stop offset="1" stop-color="#212322"/>
</linearGradient>
<linearGradient id="paint6_linear_575_22526" x1="197.007" y1="18.083" x2="215.479" y2="50.0779" gradientUnits="userSpaceOnUse">
<stop offset="0.5123" stop-color="#938C61"/>
<stop offset="0.6473" stop-color="#8E875C"/>
<stop offset="0.813" stop-color="#7F794E"/>
<stop offset="0.9943" stop-color="#666138"/>
<stop offset="1" stop-color="#656037"/>
</linearGradient>
<linearGradient id="paint7_linear_575_22526" x1="86.5457" y1="196.842" x2="118.294" y2="251.832" gradientUnits="userSpaceOnUse">
<stop stop-color="#797349"/>
<stop offset="1" stop-color="#656037"/>
</linearGradient>
<linearGradient id="paint8_linear_575_22526" x1="46.1461" y1="105.182" x2="64.6183" y2="137.177" gradientUnits="userSpaceOnUse">
<stop offset="0.5123" stop-color="#938C61"/>
<stop offset="0.6473" stop-color="#8E875C"/>
<stop offset="0.813" stop-color="#7F794E"/>
<stop offset="0.9943" stop-color="#666138"/>
<stop offset="1" stop-color="#656037"/>
</linearGradient>
<linearGradient id="paint9_linear_575_22526" x1="89.12" y1="168.044" x2="83.7576" y2="177.332" gradientUnits="userSpaceOnUse">
<stop stop-color="#404244"/>
<stop offset="0.3577" stop-color="#393B3C"/>
<stop offset="0.9121" stop-color="#252726"/>
<stop offset="1" stop-color="#212322"/>
</linearGradient>
<linearGradient id="paint10_linear_575_22526" x1="96.8471" y1="174.353" x2="93.1452" y2="180.765" gradientUnits="userSpaceOnUse">
<stop stop-color="#827C52"/>
<stop offset="0.3234" stop-color="#6C6640"/>
<stop offset="0.7331" stop-color="#57512E"/>
<stop offset="1" stop-color="#4F4927"/>
</linearGradient>
<linearGradient id="paint11_linear_575_22526" x1="107.136" y1="179.667" x2="102.919" y2="186.971" gradientUnits="userSpaceOnUse">
<stop stop-color="#404244"/>
<stop offset="0.3577" stop-color="#393B3C"/>
<stop offset="0.9121" stop-color="#252726"/>
<stop offset="1" stop-color="#212322"/>
</linearGradient>
<linearGradient id="paint12_linear_575_22526" x1="89.1195" y1="150.852" x2="83.7575" y2="160.139" gradientUnits="userSpaceOnUse">
<stop stop-color="#404244"/>
<stop offset="0.3577" stop-color="#393B3C"/>
<stop offset="0.9121" stop-color="#252726"/>
<stop offset="1" stop-color="#212322"/>
</linearGradient>
<linearGradient id="paint13_linear_575_22526" x1="96.8471" y1="157.161" x2="93.1452" y2="163.573" gradientUnits="userSpaceOnUse">
<stop stop-color="#827C52"/>
<stop offset="0.3234" stop-color="#6C6640"/>
<stop offset="0.7331" stop-color="#57512E"/>
<stop offset="1" stop-color="#4F4927"/>
</linearGradient>
<linearGradient id="paint14_linear_575_22526" x1="120.836" y1="170.384" x2="116.619" y2="177.687" gradientUnits="userSpaceOnUse">
<stop stop-color="#404244"/>
<stop offset="0.3577" stop-color="#393B3C"/>
<stop offset="0.9121" stop-color="#252726"/>
<stop offset="1" stop-color="#212322"/>
</linearGradient>
</defs>
</svg>
