<svg width="315" height="768" viewBox="0 0 315 768" fill="none" xmlns="http://www.w3.org/2000/svg">
<path d="M233.527 671.924C233.527 672.824 264.727 701.024 264.727 701.024L270.727 738.524L253.927 766.124C253.927 766.124 277.627 767.924 279.727 766.124C281.827 764.324 314.527 699.824 314.227 696.524C313.927 693.224 280.327 680.624 280.027 679.424C279.727 678.224 254.227 645.824 254.227 645.824L233.527 671.924Z" fill="#3D3D3D"/>
<path d="M87.4302 677.024L74.2301 733.424C74.2301 733.424 19.1802 765.674 18.4302 766.724C17.6802 767.774 113.23 768.974 113.53 766.724C113.83 764.474 104.38 735.674 104.38 735.674C104.38 735.674 119.822 683.924 118.851 683.324C117.88 682.723 87.4302 677.024 87.4302 677.024Z" fill="#3D3D3D"/>
<path d="M153.429 596.924C154.629 596.924 170.229 620.324 170.229 616.924C170.229 613.524 181.029 573.524 211.029 575.124C209.829 567.124 201.829 563.324 201.229 563.324C200.629 563.324 215.829 554.761 218.029 537.043C220.229 519.324 251.429 438.124 250.429 434.324C249.429 430.524 160.429 466.924 141.229 501.324C122.029 535.723 153.429 596.924 153.429 596.924Z" fill="#786960"/>
<path d="M159.356 561.524C159.356 561.524 200.831 564.074 205.631 565.274C207.131 564.749 204.281 562.949 204.281 562.949C204.281 562.949 207.829 561.021 207.431 559.724C207.033 558.427 171.131 548.399 163.856 548.474C156.581 548.549 159.356 561.524 159.356 561.524Z" fill="#B09666"/>
<path d="M171.431 399.973C171.431 399.973 104.073 492.923 118.852 528.123C114.431 532.523 110.831 554.221 102.031 574.972C93.2305 595.723 75.6305 664.923 80.0305 674.923C84.4305 684.923 121.631 693.323 130.031 683.723C138.431 674.123 180.431 576.923 164.031 545.323C222.031 486.923 245.654 450.823 244.542 443.623C259.93 434.323 266.23 422.623 260.98 387.523C253.03 380.924 171.431 399.973 171.431 399.973Z" fill="#A39083"/>
<path d="M171.43 390.073V399.973C171.43 399.973 258.88 394.873 260.98 387.523C262.63 380.173 260.98 371.773 260.98 371.773L171.43 390.073Z" fill="#E8C687"/>
<path d="M152.381 332.473C152.381 332.473 144.366 337.273 142.299 346.723C140.231 356.173 153.226 391.573 159.403 394.573C165.581 397.573 181.931 392.773 181.931 392.773L152.381 332.473Z" fill="#786960"/>
<path d="M128.789 240.524C128.829 241.724 167.741 388.524 170.285 390.524C172.83 392.524 261.63 383.324 262.83 376.124C264.03 368.924 241.23 243.513 241.23 243.513L128.789 240.524Z" fill="#786960"/>
<path d="M173.418 182.463C173.418 182.463 95.3654 192.977 95.6534 192.262C95.9414 191.548 71.9624 99.5493 71.9624 99.5493C71.9624 99.5493 53.2644 91.5173 53.6374 92.3513C54.0104 93.1843 44.4554 236.386 48.6264 243.078C52.7974 249.77 145.561 250.627 145.85 250.942C146.139 251.257 159.57 307.806 166.912 304.955C174.254 302.105 238.011 230.831 237.012 225.669C236.013 220.507 217.283 199.35 214.53 197.864C211.776 196.378 173.418 182.463 173.418 182.463Z" fill="#786960"/>
<path d="M187.063 191.01C185.672 191.275 153.754 215.967 153.979 250.325C149.602 250.47 144.363 247.794 144.363 247.794C144.363 247.794 149.259 211.124 182.396 188.295C185.097 187.034 187.063 191.01 187.063 191.01Z" fill="#B09666"/>
<path d="M167.1 139.09C167.1 139.09 146.567 165.65 146.3 169.79C146.033 173.93 166.182 190.653 166.182 190.653L179.732 222.732L215.723 208.179C215.723 208.179 219.341 166.235 216.018 154.82C212.694 143.405 167.1 139.09 167.1 139.09Z" fill="#3D3D3D"/>
<path d="M198.255 165.294C196.905 164.816 153.232 167.194 152.806 167.058C152.38 166.922 151.848 175.344 151.848 175.344C151.848 175.344 192.781 177.206 195.047 176.029C197.313 174.852 198.255 165.294 198.255 165.294Z" fill="#696969"/>
<path d="M167.094 132.938L167.099 139.09C167.099 139.09 180.256 162.264 181.75 163.023C183.245 163.782 187.04 161.897 187.04 161.897L202.348 183.152C202.348 183.152 216.39 167.899 219.763 160.432C223.136 152.965 189.416 125.379 189.416 125.379L167.094 132.938Z" fill="#696969"/>
<path d="M178.447 118.725C178.447 118.725 167.725 132.294 167.096 132.938C166.952 133.086 167.531 134.241 168.528 135.953C171.872 141.7 179.912 153.715 181.016 154.9C182.449 156.438 194.342 157.422 204.341 142.59C198.741 135.729 178.447 118.725 178.447 118.725Z" fill="#FCAD37"/>
<path d="M175.262 118.623C175.794 118.722 200.46 140.481 200.816 143.553C201.172 146.625 192.212 168.269 191.104 173.056C189.996 177.843 212.235 209.178 215.723 208.18C219.211 207.182 250.387 189.188 248.511 157.601C246.635 126.014 212.389 105.269 201.57 103.471C190.751 101.673 175.262 118.623 175.262 118.623Z" fill="#A39083"/>
<path d="M181.355 112.816C181.697 112.524 227.682 159.961 239.567 187.668C242.59 184.935 243.707 180.736 243.707 180.736C243.707 180.736 230.451 146.06 187.213 106.812C186.365 107.242 181.355 112.816 181.355 112.816Z" fill="#696969"/>
<path d="M190.443 102.559L177.785 114.03C177.785 114.03 181.577 117.59 181.614 117.766C181.652 117.942 194.585 105.902 194.585 105.902L190.443 102.559Z" fill="#3D3D3D"/>
<path d="M155.511 166.203C155.19 165.959 148.218 161.812 147.521 162.598C146.824 163.384 144.201 168.721 144.076 169.995C143.951 171.269 149.147 176.898 149.997 177.029C150.847 177.16 154.78 177.854 155.539 176.289C156.297 174.723 155.511 166.203 155.511 166.203Z" fill="#A39083"/>
<path d="M109.611 145.364C109.494 145.639 107.744 150.912 102.441 152.279L103.279 153.173C103.279 153.173 109.121 154.038 111.823 149.096C111.995 147.737 109.611 145.364 109.611 145.364Z" fill="#3C4045"/>
<path d="M183.112 206.596L139.734 160.301L149.481 150.901L192.859 197.196L183.112 206.596Z" fill="#3C4045"/>
<path d="M22.7891 19.995L40.953 2.47803L46.139 8.01306L42.796 34.264L38.691 38.223L34.2991 33.1171L38.4401 13.0481L26.801 24.1631L22.7891 19.995Z" fill="#6F7B82"/>
<path d="M37.0872 45.3091L7.94922 14.2111L14.0232 8.354L43.1611 39.452L37.0872 45.3091Z" fill="#3C4045"/>
<path d="M101.418 119.409L75.3477 91.5851L89.0507 78.3711L115.121 106.194L101.418 119.409Z" fill="#3C4045"/>
<path d="M74.0658 118.703C74.0658 118.703 28.9558 149.315 25.9258 150.499C25.9218 150.647 39.1327 175.562 39.5677 175.722C40.8278 175.086 88.8638 144.55 88.9608 143.587C89.0578 142.624 74.0658 118.703 74.0658 118.703Z" fill="#484F54"/>
<path d="M74.5472 118.382L69.6992 121.658L85.0532 146.462L90.2522 143.064L74.5472 118.382Z" fill="#3C4045"/>
<path d="M121.493 169.093C121.493 169.093 125.463 163.961 128.987 163.495C132.511 163.029 136.518 167.42 137.804 168.678L154.391 152.791L154.79 145.563L98.2244 85.1943L82.1974 100.65C82.1974 100.65 84.7704 105.338 81.2784 108.923C77.7864 112.508 71.6055 118.251 71.6055 118.251L88.8104 145.867L104.881 163.932C104.881 163.932 96.6354 188.72 96.1344 188.986C95.6344 189.252 93.9805 189.543 93.9805 189.543L92.4805 192.512C92.4805 192.512 111.347 206.25 111.78 206.483C112.213 206.717 121.493 169.093 121.493 169.093ZM104.048 158.644L92.4464 146.262C91.4114 145.157 91.5944 143.376 92.8314 142.512L97.7484 139.077C98.7384 138.385 100.077 138.527 100.906 139.411L111.66 150.888C112.557 151.846 112.557 153.348 111.66 154.305L107.59 158.645C106.627 159.672 105.012 159.672 104.048 158.644Z" fill="#484F54"/>
<path d="M119.009 169.641C119.009 169.641 112.028 164.932 106.903 166.47C106.89 166.989 100.254 188.089 100.254 188.089L112.248 197.233L119.009 169.641Z" fill="#6F7B82"/>
<path d="M149.249 112.457L134.37 114.858L128.789 120.783L153.436 147.088L155.254 142.402L153.372 140.165L157.87 134.34L154.459 130.243L159.59 124.751C159.59 124.751 159.648 120.242 149.249 112.457Z" fill="#6F7B82"/>
<path d="M78.4963 102.525L26.7383 47.2871L45.2963 29.3911L97.0543 84.6292L78.4963 102.525Z" fill="#3C4045"/>
<path d="M90.712 83.611L87.344 80.0159L90.793 76.6899L88.316 74.0459L84.8671 77.3719L81.499 73.778L84.948 70.4509L82.3461 67.674L78.897 71.001L75.5281 67.4059L78.978 64.08L76.5 61.4359L73.051 64.762L69.683 61.1669L73.1321 57.8409L70.457 54.986L67.0081 58.3119L63.639 54.7169L67.089 51.3909L64.6111 48.7479L61.162 52.074L57.7941 48.4789L61.243 45.153L58.641 42.376L55.192 45.7019L51.824 42.1069L55.2731 38.7809L52.796 36.137L49.347 39.4629L45.978 35.8689L49.427 32.543L45.916 28.7949L26.2891 47.7209L29.801 51.4689L33.925 47.4919L37.293 51.0869L33.1691 55.064L35.646 57.7079L39.77 53.731L43.139 57.3259L39.015 61.3019L41.6171 64.079L45.741 60.1019L49.109 63.6969L44.985 67.674L47.462 70.3179L51.5861 66.3409L54.954 69.9359L50.8301 73.913L53.505 76.7679L57.63 72.7909L60.998 76.3859L56.874 80.3629L59.3511 83.0059L63.475 79.0289L66.843 82.6239L62.719 86.601L65.321 89.3779L69.4451 85.4009L72.8141 88.996L68.6901 92.9729L71.167 95.6169L75.291 91.6389L78.6591 95.2339L74.535 99.2109L78.047 102.959L97.6741 84.033L94.162 80.2849L90.712 83.611Z" fill="#484F54"/>
<path d="M9.73108 17.598L0 7.21301L7.4801 0L17.2101 10.385L9.73108 17.598Z" fill="#484F54"/>
<path d="M12.2488 11.222L5.92188 4.47009L7.53381 2.91504L13.8608 9.66809L12.2488 11.222Z" fill="#3C4045"/>
<path d="M8.91296 14.4398L2.58594 7.68774L4.19788 6.13281L10.5249 12.8848L8.91296 14.4398Z" fill="#3C4045"/>
<path d="M84.6733 95.2943L33.9883 41.2013L40.3433 35.0732L91.0283 89.1663L84.6733 95.2943Z" fill="#6F7B82"/>
<path d="M69.2692 126.152L32.9922 150.273L42.5411 168.462C42.5411 168.462 80.4371 144.927 80.2291 144.476C80.0211 144.025 69.2692 126.152 69.2692 126.152Z" fill="#6F7B82"/>
<path d="M182.254 182.297L168.645 195.421C168.645 195.421 179.404 204.162 172.746 211.452L185.614 225.184L193.896 250.651L189.527 272.243L191.88 274.754C191.88 274.754 226.137 247.945 233.615 237.113L231.763 235.135L182.254 182.297Z" fill="#484F54"/>
<path d="M178.154 205.263L216.542 246.232L202.595 259.681C202.595 259.681 201.077 232.469 177.008 211.581C177.234 211.364 178.154 205.263 178.154 205.263Z" fill="#3C4045"/>
<path d="M142.14 161.571L84.7695 100.343L94.6665 90.7988L152.037 152.027L142.14 161.571Z" fill="#6F7B82"/>
<path d="M221.914 243.512L177.289 195.886L184.823 188.621L229.449 236.247L221.914 243.512Z" fill="#6F7B82"/>
<path d="M73.9808 106.198C73.9808 106.198 86.2908 92.3441 86.0238 91.5501C85.7568 90.7551 72.9118 97.2802 74.0888 96.2042C75.2658 95.1282 86.1568 83.7622 83.9588 83.2062C81.7608 82.6502 69.5537 92.4672 70.9687 89.8762C72.3847 87.2852 82.4518 79.6351 80.5608 77.8581C78.6698 76.0811 62.3578 85.8762 65.0038 83.3242C67.6498 80.7722 78.5978 70.0832 76.1098 69.4042C73.6218 68.7252 53.9088 78.2042 52.2278 85.3152C50.5458 92.4252 66.6468 115.798 73.9808 106.198Z" fill="#3D3D3D"/>
<path d="M237.012 225.669C237.012 225.669 224.054 216.22 202.174 234.23C180.294 252.24 169.863 267.254 170.285 266.263C170.707 265.272 152.907 200.943 140.999 193.344C139.576 194.49 124.184 204.565 124.184 204.565C124.184 204.565 131.724 349.788 151.957 354.409C172.191 359.03 237.948 272.565 242.788 266.003C247.627 259.442 241.373 231.21 237.012 225.669Z" fill="#A39083"/>
<path d="M131.946 165.728C131.591 165.234 107.322 145.389 105.191 147.671C103.06 149.953 106.608 155.602 106.608 155.602C106.608 155.602 99.0812 159.477 98.9622 160.306C98.8432 161.135 101.247 165.081 100.934 165.333C100.621 165.585 96.8702 167.919 96.6302 169.656C96.3912 171.393 98.3763 173.793 98.1643 174.005C97.9523 174.218 94.8572 178.897 95.1752 179.919C95.4932 180.941 122.191 206.103 124.24 205.604C126.289 205.104 142.074 198.009 143.208 195.31C144.344 192.612 131.946 165.728 131.946 165.728Z" fill="#3D3D3D"/>
<path d="M170.285 266.263C170.285 266.263 178.329 286.053 181.484 291.734C184.639 297.414 203.171 299.918 170.285 266.263Z" fill="#786960"/>
<path d="M159.402 354.589C159.402 354.589 181.697 344.924 187.064 337.124C191.63 340.324 198.321 388.08 196.776 390.802C195.231 393.524 174.542 395.524 170.286 392.124C166.03 388.723 159.402 354.589 159.402 354.589Z" fill="#A39083"/>
<path d="M193.23 330.924C195.43 328.724 209.23 312.724 209.23 312.724C209.23 312.724 222.031 308.124 225.431 309.924C228.831 311.724 243.39 378.889 239.41 383.406C235.431 387.924 207.71 395.915 203.37 388.419C199.03 380.924 193.23 330.924 193.23 330.924Z" fill="#A39083"/>
<path d="M234.628 309.506C234.628 309.924 244.828 382.324 248.428 383.724C252.028 385.124 273.228 380.924 275.028 372.324C276.828 363.724 269.92 320.924 262.874 310.324C256.628 302.524 239.481 305.172 235.103 307.612C234.558 307.914 234.628 309.506 234.628 309.506Z" fill="#A39083"/>
<path d="M133.929 534.024C134.629 534.024 168.329 541.324 168.529 542.124C168.729 542.924 164.829 545.601 164.829 545.601C164.829 545.601 166.493 549.902 166.111 550.713C165.729 551.524 132.629 549.224 132.629 548.624C132.629 548.024 133.929 534.024 133.929 534.024Z" fill="#E8C687"/>
<path d="M117.325 522.965C117.325 522.965 133.928 523.224 136.328 529.024C138.728 534.824 133.728 558.724 127.928 564.624C122.128 570.524 106.428 568.224 105.328 564.624C104.228 561.024 102.423 533.806 117.325 522.965Z" fill="#484F54"/>
<path d="M169.406 616.924C169.406 616.924 215.678 680.324 227.528 682.574C239.378 684.824 261.128 657.824 260.678 648.224C260.228 638.624 218.678 578.824 211.028 575.124C203.378 571.424 181.335 573.474 169.406 616.924Z" fill="#A39083"/>
</svg>
