<svg width="340" height="308" viewBox="0 0 340 308" fill="none" xmlns="http://www.w3.org/2000/svg">
<path d="M213.859 102.93L163.699 73.9667V57.2305L212.388 85.3371L213.705 86.0995L213.859 102.93Z" fill="#36402F"/>
<path d="M7.93503 145.695L3.80664 143.314V131.76L73.4694 96.2876L7.93503 145.695Z" fill="#383838"/>
<path d="M80.4248 103.822L7.93555 145.695V134.131L80.4248 92.2681V103.822Z" fill="#050505"/>
<path d="M80.4243 92.2682L7.93503 134.131L3.80664 131.76L76.296 89.8921L80.4243 92.2682Z" fill="#575757"/>
<path d="M23.0142 151.317L24.9003 149.125L22.252 150.496L23.0142 151.317Z" fill="#535359"/>
<path d="M20.7283 158.599L22.6043 156.426L19.9512 157.797L20.7283 158.599Z" fill="#535359"/>
<path d="M21.4873 168.084L23.3634 165.901L20.7051 167.268L21.4873 168.084Z" fill="#535359"/>
<path d="M34.2927 190.705L36.4609 189.463L33.5156 189.889L34.2927 190.705Z" fill="#535359"/>
<path d="M42.0715 195.998L44.2396 194.745L40.834 194.478L42.0715 195.998Z" fill="#535359"/>
<path d="M49.5832 197.617L53.7115 195.29L48.3555 196.102L49.5832 197.617Z" fill="#535359"/>
<path d="M73.3703 167.519L74.2563 167.603L72.6476 162.222L71.7862 162.143C71.2566 160.703 70.6379 159.297 69.9399 157.901L70.5933 157.525L67.6331 152.411L67.0044 152.778C66.1183 151.451 65.1877 150.189 64.1878 148.976L64.5343 148.253L60.6633 144.189L60.3317 144.912C59.2773 143.947 58.1834 143.056 57.0696 142.274V141.298L52.8917 138.893V139.858C51.7433 139.338 50.6294 138.962 49.5503 138.714L49.2285 137.645L45.3774 137.269L45.6942 138.343C44.7141 138.412 43.7835 138.596 42.9222 138.898L42.333 137.893L39.3829 139.605L39.9818 140.645C39.2789 141.254 38.6403 141.981 38.1008 142.823L36.1999 142.011L27.2402 147.397L32.6061 147.674C32.3091 148.728 33.7546 148.12 33.6407 149.347L32.6061 149.803L35.0415 154.124L35.9525 154.654C36.0762 156.045 36.3038 157.451 36.6206 158.871L35.789 158.777L37.3879 164.168L38.2591 164.257C38.8135 165.678 39.4224 167.088 40.1154 168.469L39.4472 168.87L42.4024 173.974L43.1053 173.568C43.9765 174.88 44.9072 176.132 45.8923 177.31L45.5209 178.152L49.377 182.211L49.7781 181.35C50.8127 182.285 51.8768 183.156 52.9807 183.924V185.102L56.3567 187.656L57.1587 186.31C58.2824 186.81 55.644 188.676 56.7082 188.908L53.9658 194.913L62.7474 191.022L64.2719 187.785C65.2124 187.72 66.1184 187.537 66.9698 187.245L67.7023 188.522L70.6676 186.81L69.9201 185.528C70.6181 184.924 71.2467 184.231 71.7764 183.409L72.7168 184.399L74.3108 180.855L73.3653 179.865C73.6673 178.83 73.8851 177.731 74.0138 176.528L75.0038 177.098V172.271L74.0336 171.702C73.9099 170.316 73.6772 168.93 73.3703 167.519Z" fill="#121214"/>
<path d="M27.25 146.382L27.834 147.392L42.927 138.892L42.3378 137.888L27.25 146.382Z" fill="#303033"/>
<path d="M54.8438 194.013L55.5714 195.29L70.6694 186.79L69.9219 185.513L54.8438 194.013Z" fill="#303033"/>
<path d="M58.2798 176.017L59.1707 176.096L57.567 170.721L56.7106 170.641C56.176 169.206 55.5474 167.79 54.8593 166.409L55.5127 166.038L52.5526 160.914L51.909 161.281C51.0428 159.959 50.1071 158.692 49.1072 157.479L49.439 156.747L45.5729 152.677L45.2461 153.41C44.1819 152.445 43.1028 151.544 41.9692 150.767V149.796L37.7962 147.381V148.356C36.6478 147.836 35.5341 147.455 34.4599 147.203L34.143 146.143L30.2771 145.767L30.6087 146.841C29.6335 146.906 28.688 147.094 27.8316 147.396L27.2476 146.391L24.2973 148.099L24.8963 149.133C24.1884 149.752 23.5548 150.475 23.0102 151.321L22.248 150.504L20.6541 154.039L21.4559 154.895C21.1639 155.949 20.9312 157.068 20.8174 158.301L19.9512 157.801V162.617L20.8669 163.137C20.9907 164.528 21.2232 165.939 21.5351 167.354L20.7035 167.27L22.3024 172.651L23.1935 172.74C23.733 174.166 24.3418 175.572 25.0398 176.968L24.3667 177.344L27.3218 182.477L28.0247 182.061C28.9009 183.368 29.8217 184.616 30.8117 185.794L30.4354 186.645L34.2915 190.709L34.6926 189.833C35.7321 190.769 36.7964 191.645 37.8903 192.412V193.59L42.0732 195.996V194.788C43.1968 195.293 44.2661 195.659 45.3353 195.907L45.7264 197.258L49.5825 197.619L49.1864 196.273C50.1319 196.204 51.0427 196.021 51.8843 195.724L52.6267 197.011L55.5721 195.298L54.8444 194.016C55.5324 193.422 56.1562 192.714 56.6859 191.892L57.6362 192.887L59.2253 189.338L58.2798 188.343C58.5817 187.328 58.8045 186.215 58.9233 185.017L59.9134 185.576V180.759L58.9431 180.19C58.8243 178.814 58.6015 177.413 58.2798 176.017Z" fill="#303033"/>
<path d="M42.1503 184.666C35.2647 180.691 29.6859 171.013 29.6859 163.068C29.6859 159.737 30.671 157.227 32.3194 155.752C29.3493 156.663 27.4238 159.687 27.4238 164.355C27.4238 172.305 32.9926 181.973 39.8881 185.958C43.868 188.254 47.4371 188.141 49.7141 186.076C47.6301 186.725 44.9966 186.309 42.1503 184.666Z" fill="#121214"/>
<path d="M39.8897 157.148C37.0384 155.514 34.4199 155.094 32.321 155.747C30.6726 157.227 29.6875 159.737 29.6875 163.063C29.6875 171.008 35.2663 180.685 42.1519 184.66C44.9982 186.304 47.6316 186.72 49.7206 186.071C51.364 184.581 52.3491 182.086 52.3491 178.745C52.3442 170.79 46.7654 161.133 39.8897 157.148Z" fill="#939598"/>
<path d="M41.6298 176.716C38.4172 174.875 35.8235 170.385 35.8235 166.692C35.8235 165.687 36.0115 164.86 36.3432 164.207C34.967 164.638 34.0859 166.039 34.0859 168.202C34.0859 171.9 36.6797 176.394 39.8825 178.246C42.2387 179.597 44.2584 179.156 45.1543 177.364C44.194 177.691 42.9614 177.498 41.6298 176.716Z" fill="#535359"/>
<path d="M39.8853 164.856C38.5587 164.084 37.3212 163.891 36.346 164.208C36.0143 164.861 35.8262 165.688 35.8262 166.693C35.8262 170.385 38.42 174.875 41.6327 176.717C42.9593 177.494 44.1969 177.687 45.1622 177.365C45.5087 176.716 45.6918 175.895 45.6918 174.89C45.6868 171.202 43.0781 166.703 39.8853 164.856Z" fill="#A7A9AC"/>
<path d="M57.5703 170.717L59.174 176.093L74.262 167.598L72.6533 162.223L57.5703 170.717Z" fill="#535359"/>
<path d="M59.9102 185.572L75.0029 177.087V172.261L59.9102 180.76V185.572Z" fill="#535359"/>
<path d="M57.6387 192.884L72.7167 184.385L74.3157 180.841L59.2277 189.335L57.6387 192.884Z" fill="#535359"/>
<path d="M52.5527 160.911L55.5129 166.034L70.5958 157.525L67.6357 152.412L52.5527 160.911Z" fill="#535359"/>
<path d="M45.5723 152.674L49.4383 156.742L64.5361 148.253L60.665 144.189L45.5723 152.674Z" fill="#535359"/>
<path d="M37.7988 147.378L41.9669 149.793L57.0646 141.294L52.8868 138.888L37.7988 147.378Z" fill="#535359"/>
<path d="M30.2773 145.759L34.1433 146.14L49.2264 137.64L45.3751 137.264L30.2773 145.759Z" fill="#535359"/>
<path d="M49.1113 157.481L64.1943 148.982L64.5408 148.254L49.4431 156.744L49.1113 157.481Z" fill="#303033"/>
<path d="M56.709 170.642L57.5654 170.716L72.6483 162.222L71.787 162.143L56.709 170.642Z" fill="#303033"/>
<path d="M58.9434 180.192L59.9137 180.761L75.0064 172.262L74.0363 171.692L58.9434 180.192Z" fill="#303033"/>
<path d="M58.2754 188.34L59.2259 189.334L74.3138 180.84L73.3633 179.85L58.2754 188.34Z" fill="#303033"/>
<path d="M41.9648 150.763L57.0626 142.269V141.293L41.9648 149.793V150.763Z" fill="#303033"/>
<path d="M34.1445 146.14L34.4663 147.195L49.5542 138.71L49.2276 137.641L34.1445 146.14Z" fill="#303033"/>
<path d="M64.442 175.241L66.3231 173.043L63.6699 174.415L64.442 175.241Z" fill="#535359"/>
<path d="M62.1658 182.528L64.037 180.345L61.3887 181.716L62.1658 182.528Z" fill="#535359"/>
<path d="M62.9149 192.008L64.786 189.82L62.1328 191.186L62.9149 192.008Z" fill="#535359"/>
<path d="M75.7206 214.619L77.8887 213.381L74.9434 213.812L75.7206 214.619Z" fill="#535359"/>
<path d="M83.509 219.916L85.6771 218.659L82.2715 218.396L83.509 219.916Z" fill="#535359"/>
<path d="M91.0207 221.536L95.1392 219.209L89.7832 220.021L91.0207 221.536Z" fill="#535359"/>
<path d="M114.803 191.443L115.694 191.527L114.085 186.146L113.219 186.057C112.694 184.626 112.075 183.22 111.382 181.824L112.026 181.458L109.071 176.335L108.437 176.701C107.556 175.374 106.625 174.112 105.625 172.9L105.967 172.172L102.101 168.108L101.769 168.83C100.71 167.865 99.6208 166.974 98.5021 166.192V165.217L94.3193 162.811V163.776C93.1708 163.257 92.067 162.876 90.983 162.628L90.666 161.559L86.8099 161.183L87.1267 162.262C86.1466 162.326 85.221 162.509 84.3547 162.811L83.7707 161.811L80.8204 163.524L81.4193 164.559C80.7164 165.167 80.0778 165.895 79.5333 166.732L77.6374 165.93L68.6777 171.31L74.0387 171.588C73.7368 172.647 75.1871 172.033 75.0732 173.271L74.0387 173.716L76.4742 178.048L77.385 178.567C77.5137 179.958 77.7413 181.359 78.0581 182.785L77.2265 182.686L78.8206 188.081L79.6967 188.171C80.2462 189.591 80.86 191.002 81.548 192.383L80.8797 192.784L83.835 197.898L84.5379 197.482C85.4042 198.789 86.3397 200.046 87.3248 201.224L86.9486 202.066L90.8097 206.135L91.2106 205.258C92.2403 206.199 93.3045 207.07 94.4134 207.837V209.015L97.7942 211.575L98.5912 210.218C99.705 210.713 97.0814 212.585 98.1358 212.822L95.3985 218.822L104.17 214.931L105.695 211.693C106.65 211.634 107.551 211.451 108.397 211.154L109.13 212.431L112.1 210.713L111.353 209.431C112.046 208.832 112.679 208.139 113.199 207.313L114.154 208.308L115.743 204.763L114.798 203.783C115.09 202.739 115.308 201.635 115.446 200.437L116.431 201.006V196.18L115.456 195.611C115.342 194.244 115.105 192.853 114.803 191.443Z" fill="#121214"/>
<path d="M68.6777 170.3L69.2618 171.31L84.3497 162.811L83.7657 161.811L68.6777 170.3Z" fill="#303033"/>
<path d="M96.2715 217.936L97.009 219.209L112.102 210.704L111.354 209.427L96.2715 217.936Z" fill="#303033"/>
<path d="M99.7027 199.934L100.594 200.018L98.9948 194.642L98.1384 194.563C97.6087 193.137 96.9851 191.712 96.2921 190.335L96.9404 189.959L93.9803 184.836L93.3467 185.202C92.4656 183.885 91.54 182.613 90.5351 181.4L90.8717 180.668L87.0106 176.599L86.6789 177.331C85.6195 176.381 84.5306 175.475 83.4069 174.698V173.723L79.2289 171.297V172.282C78.0855 171.763 76.9718 171.386 75.8976 171.134L75.5709 170.079L71.7098 169.693L72.0364 170.768C71.0662 170.827 70.1208 171.025 69.2595 171.322L68.6754 170.317L65.7251 172.025L66.319 173.059C65.6161 173.678 64.9826 174.401 64.4331 175.252L63.6659 174.431L62.0818 177.965L62.8837 178.821C62.5867 179.876 62.3591 180.999 62.2403 182.232L61.3789 181.727V186.543L62.2897 187.063C62.4184 188.459 62.6462 189.865 62.963 191.281L62.1264 191.197L63.7253 196.577L64.6162 196.667C65.1607 198.087 65.7697 199.498 66.4627 200.894L65.7894 201.27L68.7447 206.403L69.4526 205.988C70.3238 207.294 71.2495 208.547 72.2444 209.73L71.8681 210.571L75.7244 214.63L76.1203 213.769C77.1598 214.7 78.2241 215.571 79.3181 216.343V217.521L83.5059 219.927V218.724C84.6197 219.224 85.6987 219.59 86.763 219.838L87.1591 221.189L91.0152 221.551L90.6193 220.204C91.5548 220.14 92.4655 219.952 93.312 219.66L94.0546 220.942L97.0048 219.229L96.2723 217.952C96.9603 217.353 97.5839 216.645 98.1136 215.823L99.0591 216.818L100.658 213.269L99.7027 212.274C100.019 211.259 100.237 210.146 100.361 208.943L101.351 209.517V204.691L100.371 204.121C100.252 202.73 100.029 201.334 99.7027 199.934Z" fill="#303033"/>
<path d="M83.5732 208.585C76.6975 204.615 71.1088 194.937 71.1088 186.987C71.1088 183.656 72.0987 181.156 73.7421 179.666C70.7721 180.577 68.8516 183.601 68.8516 188.269C68.8516 196.214 74.4203 205.887 81.3208 209.867C85.3056 212.168 88.8648 212.05 91.1418 209.99C89.0529 210.644 86.4195 210.223 83.5732 208.585Z" fill="#121214"/>
<path d="M81.3223 181.076C78.471 179.433 75.8524 179.017 73.7486 179.665C72.1052 181.155 71.1152 183.655 71.1152 186.987C71.1152 194.941 76.7038 204.619 83.5795 208.584C86.4258 210.222 89.0594 210.643 91.1483 209.995C92.7967 208.505 93.7867 206.01 93.7867 202.669C93.7817 194.709 88.198 185.051 81.3223 181.076Z" fill="#939598"/>
<path d="M83.0627 200.634C79.855 198.798 77.2562 194.303 77.2562 190.611C77.2562 189.606 77.4393 188.779 77.7759 188.125C76.3898 188.556 75.5137 189.952 75.5137 192.12C75.5137 195.813 78.1026 200.313 81.3152 202.164C83.6615 203.515 85.6911 203.075 86.5871 201.283C85.6218 201.61 84.3943 201.412 83.0627 200.634Z" fill="#535359"/>
<path d="M81.3226 188.774C79.9861 188.006 78.7585 187.808 77.7833 188.125C77.4467 188.779 77.2637 189.605 77.2637 190.61C77.2637 194.303 79.8623 198.798 83.07 200.634C84.4016 201.406 85.6293 201.604 86.5995 201.282C86.9411 200.634 87.1242 199.812 87.1242 198.807C87.1242 195.12 84.5155 190.62 81.3226 188.774Z" fill="#A7A9AC"/>
<path d="M98.998 194.635L100.597 200.011L115.695 191.522L114.086 186.146L98.998 194.635Z" fill="#535359"/>
<path d="M101.357 209.5L116.436 201.005V196.179L101.357 204.678V209.5Z" fill="#535359"/>
<path d="M99.0664 216.803L114.159 208.304L115.753 204.76L100.665 213.254L99.0664 216.803Z" fill="#535359"/>
<path d="M93.9805 184.83L96.9406 189.953L112.024 181.454L109.068 176.331L93.9805 184.83Z" fill="#535359"/>
<path d="M87.0098 176.593L90.8708 180.662L105.964 172.167L102.098 168.103L87.0098 176.593Z" fill="#535359"/>
<path d="M79.2266 171.287L83.4046 173.712L98.4924 165.213L94.3145 162.807L79.2266 171.287Z" fill="#535359"/>
<path d="M71.7148 169.677L75.5759 170.068L90.6639 161.559L86.8076 161.183L71.7148 169.677Z" fill="#535359"/>
<path d="M90.5391 181.4L105.627 172.901L105.968 172.168L90.8756 180.663L90.5391 181.4Z" fill="#303033"/>
<path d="M98.1367 194.561L98.9931 194.635L114.081 186.146L113.215 186.057L98.1367 194.561Z" fill="#303033"/>
<path d="M100.371 204.106L101.356 204.68L116.434 196.181L115.459 195.611L100.371 204.106Z" fill="#303033"/>
<path d="M99.7031 212.258L100.663 213.253L115.751 204.758L114.801 203.778L99.7031 212.258Z" fill="#303033"/>
<path d="M83.4023 174.686L98.4901 166.187V165.212L83.4023 173.711V174.686Z" fill="#303033"/>
<path d="M75.5723 170.069L75.899 171.124L90.982 162.629L90.6602 161.56L75.5723 170.069Z" fill="#303033"/>
<path d="M130.14 180.325C130.15 180.33 130.165 180.345 130.185 180.345L161.643 198.542L140.412 228.762L108.939 210.56V210.55C108.162 210.065 107.672 209.07 107.672 207.669V197.061C107.672 194.18 109.716 190.651 112.211 189.211L126.957 180.647C128.195 179.939 129.319 179.86 130.14 180.325Z" fill="#808080"/>
<path opacity="0.1" d="M143.787 207.467L112.215 189.211L126.961 180.647C128.199 179.939 129.322 179.865 130.144 180.325C130.154 180.33 130.169 180.345 130.189 180.345L161.647 198.542L143.787 207.467Z" fill="black"/>
<path d="M143.782 207.468C141.292 208.904 139.258 212.443 139.258 215.324V225.927C139.258 228.808 141.292 229.986 143.792 228.546L158.533 219.992C161.038 218.542 163.073 215.007 163.073 212.131V201.523C163.073 198.642 161.028 197.464 158.533 198.904L143.782 207.468Z" fill="#575757"/>
<path d="M150.568 208.303L0.0546875 121.408L69.5591 81.2729L220.067 168.172L150.568 208.303Z" fill="#575757"/>
<path d="M71.9402 47.7518L3.08415 90.6644L0.0546875 86.4865L69.5591 46.3608L71.9402 47.7518Z" fill="#6A9176"/>
<path d="M10.8212 105.544L2.44061 122.795L0.0546875 121.409V86.4863L2.44061 87.8772L10.8212 105.544Z" fill="#4A6653"/>
<path d="M71.9429 82.6661L2.44336 122.797V87.8784L71.9429 47.7529V82.6661Z" fill="#34473A"/>
<path d="M69.5586 49.137L214.651 136.036L217.681 131.848L71.9397 47.751L69.5586 49.137Z" fill="#6A9176"/>
<path d="M206.924 150.905L215.304 168.161L217.685 166.765V131.847L215.304 133.238L206.924 150.905Z" fill="#34473A"/>
<path d="M69.5586 84.0587L215.3 168.161V133.238L69.5586 49.1357V84.0587Z" fill="#4A6653"/>
<path d="M69.6666 1.89908L67.9143 0.894189C67.5381 0.701135 67.1124 0.592285 66.6372 0.592285C65.9392 0.592285 65.1472 0.814991 64.3106 1.3001L10.0821 32.5947C7.19618 34.2629 4.83008 38.3467 4.83008 41.6781V121.424L6.64671 120.375L7.61202 42.0296C7.61202 39.3664 9.08715 35.9954 11.3988 34.6688L65.2164 2.87428C65.8846 2.48817 66.355 2.40892 66.6322 2.40892C67.5875 2.40892 67.736 3.60685 67.736 4.32956V85.1054L69.4388 86.0855L69.5527 84.0561V4.32956C69.5527 3.72565 69.4734 3.19109 69.3299 2.72578L69.6666 1.89908Z" fill="#666666"/>
<path d="M8.36264 121.361V42.6645C8.36264 39.9964 10.3872 36.4917 12.694 35.1552L66.9273 3.86559C67.5956 3.47453 68.0659 3.39034 68.3481 3.39034C69.3035 3.39034 69.4469 4.5982 69.4469 5.31597V86.0918L71.2637 85.0423V5.31597C71.2637 2.94982 70.0757 1.57861 68.3481 1.57861C67.6402 1.57861 66.8532 1.80634 66.0215 2.28651L11.7831 33.5811C8.90217 35.2444 6.54102 39.3331 6.54102 42.6596V122.411L8.36264 121.361Z" fill="#383838"/>
<path d="M117.675 29.6008L115.923 28.6058C115.542 28.4078 115.121 28.2939 114.651 28.2939C113.953 28.2939 113.151 28.5266 112.319 29.0117L58.0909 60.3063C55.2049 61.9696 52.8438 66.0534 52.8438 69.3897V149.131L54.6605 148.087L55.4969 69.4393C55.4969 66.7712 56.9771 63.7566 59.2838 62.42L113.225 30.5759C113.893 30.1948 114.374 30.1057 114.646 30.1057C115.601 30.1057 115.75 31.3135 115.75 32.0313V112.812L117.453 113.792L117.561 111.763V32.0313C117.561 31.4323 117.482 30.8928 117.339 30.4274L117.675 29.6008Z" fill="#666666"/>
<path d="M56.3666 149.062V70.3706C56.3666 67.7074 58.3962 64.1929 60.7029 62.8613L114.936 31.5618C115.605 31.1806 116.08 31.0964 116.357 31.0964C117.312 31.0964 117.461 32.3043 117.461 33.0221V113.798L119.273 112.748V33.0221C119.273 30.6509 118.084 29.2798 116.357 29.2798C115.654 29.2798 114.857 29.5074 114.021 29.9876L59.797 61.2872C56.9111 62.9504 54.5449 67.0342 54.5449 70.3656V150.107L56.3666 149.062Z" fill="#383838"/>
<path d="M165.697 57.3049L163.945 56.3099C163.568 56.1169 163.148 55.998 162.667 55.998C161.964 55.998 161.172 56.2307 160.341 56.7158L106.112 88.0054C103.221 89.6736 100.865 93.7625 100.865 97.0889V176.835L102.672 175.786L103.598 97.0394C103.598 94.3713 105.231 91.5596 107.533 90.223L161.257 58.285C161.925 57.894 162.39 57.8148 162.677 57.8148C163.633 57.8148 163.766 59.0225 163.766 59.7403V140.516L165.479 141.501L165.593 139.462V59.7403C165.593 59.1364 165.509 58.5969 165.37 58.1365L165.697 57.3049Z" fill="#666666"/>
<path d="M104.378 176.776V98.0796C104.378 95.4115 106.413 91.9018 108.724 90.5653L162.953 59.2708C163.621 58.8847 164.096 58.8055 164.378 58.8055C165.334 58.8055 165.477 60.0034 165.477 60.7311V141.507L167.289 140.452V60.7311C167.289 58.36 166.101 56.9888 164.378 56.9888C163.675 56.9888 162.873 57.2165 162.042 57.6967L107.814 88.9912C104.923 90.6544 102.566 94.7482 102.566 98.0796V177.821L104.378 176.776Z" fill="#383838"/>
<path d="M213.699 85.0159L211.951 84.011C211.57 83.8179 211.14 83.709 210.669 83.709C209.966 83.709 209.179 83.9466 208.343 84.4169L154.114 115.716C151.228 117.38 148.867 121.463 148.867 124.8V204.541L150.679 203.487L151.535 124.755C151.535 122.087 153.001 119.617 155.317 118.281L209.249 85.991C209.927 85.6049 210.392 85.5207 210.669 85.5207C211.625 85.5207 211.773 86.7236 211.773 87.4463V168.227L213.476 169.202L213.595 167.173V87.4414C213.595 86.8424 213.506 86.3077 213.372 85.8325L213.699 85.0159Z" fill="#666666"/>
<path d="M152.385 204.488V125.781C152.385 123.123 154.419 119.609 156.721 118.277L210.96 86.9822C211.628 86.5961 212.093 86.5071 212.37 86.5071C213.326 86.5071 213.474 87.7149 213.474 88.4326V169.209L215.296 168.164V88.4326C215.296 86.0615 214.108 84.6904 212.37 84.6904C211.667 84.6904 210.88 84.923 210.044 85.4081L155.815 116.703C152.925 118.366 150.568 122.455 150.568 125.781V205.532L152.385 204.488Z" fill="#383838"/>
<path d="M213.479 152.951V169.207L215.3 168.162V151.901L213.479 152.951Z" fill="#5D6E52"/>
<path d="M150.578 189.259V205.53L152.39 204.486V188.22L150.578 189.259Z" fill="#5D6E52"/>
<path d="M2.44336 87.8772L147.546 174.766L150.57 170.589L4.82936 86.4863L2.44336 87.8772Z" fill="#6A9176"/>
<path d="M139.799 189.645L148.17 206.901L150.565 205.505V170.587L148.179 171.973L139.799 189.645Z" fill="#34473A"/>
<path d="M2.44336 122.795L148.175 206.902L148.185 171.974L2.44336 87.8765V122.795Z" fill="#4A6653"/>
<path d="M72.4963 158.14V159.754L4.95703 120.757V92.3286L6.35295 93.1305V119.95L72.4963 158.14Z" fill="#6A9176"/>
<path d="M72.4929 131.314V158.138L6.34961 119.948V93.1284L72.4929 131.314Z" fill="#55755F"/>
<path d="M145.177 200.105V201.699L77.6328 162.717V134.284L79.0238 135.086V161.905L145.177 200.105Z" fill="#6A9176"/>
<path d="M145.179 173.271V200.106L79.0254 161.906V135.086L145.179 173.271Z" fill="#55755F"/>
<path d="M220.067 133.255L151.211 176.173L148.182 171.99L217.681 131.869L220.067 133.255Z" fill="#6A9176"/>
<path d="M158.948 191.052L150.568 208.303L148.182 206.912V171.989L150.568 173.385L158.948 191.052Z" fill="#4A6653"/>
<path d="M220.07 168.172L150.57 208.302V173.384L220.07 133.254V168.172Z" fill="#34473A"/>
<path d="M253.579 162.504L195.826 199.185L196.371 161.336L253.579 156.445V162.504Z" fill="#7B916D"/>
<path d="M283.17 204.354C269.528 210.68 268.656 227.475 268.656 227.574L283.417 219.045C284.021 218.036 285.897 212.283 289.308 207.64L283.17 204.354Z" fill="#9C251F"/>
<path d="M278.851 223.193L280.742 221L278.084 222.371L278.851 223.193Z" fill="#535359"/>
<path d="M276.57 230.48L278.446 228.292L275.793 229.673L276.57 230.48Z" fill="#535359"/>
<path d="M277.314 239.964L279.19 237.771L276.537 239.148L277.314 239.964Z" fill="#535359"/>
<path d="M290.125 262.58L292.298 261.333L289.348 261.769L290.125 262.58Z" fill="#535359"/>
<path d="M297.908 267.868L300.077 266.62L296.666 266.363L297.908 267.868Z" fill="#535359"/>
<path d="M305.41 269.487L309.539 267.165L304.188 267.977L305.41 269.487Z" fill="#535359"/>
<path d="M329.212 239.394L330.103 239.478L328.489 234.097L327.633 234.018C327.098 232.578 326.48 231.172 325.787 229.776L326.435 229.405L323.475 224.286L322.841 224.653C321.96 223.326 321.03 222.059 320.03 220.851L320.371 220.123L316.505 216.069L316.173 216.792C315.119 215.822 314.025 214.936 312.907 214.153V213.173L308.739 210.768V211.733C307.58 211.213 306.471 210.832 305.387 210.594L305.07 209.525L301.214 209.149L301.531 210.223C300.556 210.287 299.63 210.471 298.764 210.777L298.175 209.773L295.225 211.485L295.829 212.52C295.126 213.129 294.482 213.856 293.948 214.703L292.047 213.891L283.082 219.272L288.443 219.559C288.141 220.608 289.596 219.99 289.488 221.232L288.443 221.678L290.874 226.004L291.794 226.529C291.913 227.925 292.136 229.325 292.463 230.746L291.631 230.657L293.22 236.048L294.096 236.132C294.65 237.553 295.264 238.963 295.952 240.349L295.284 240.745L298.244 245.854L298.947 245.443C299.813 246.755 300.744 248.002 301.724 249.185L301.358 250.027L305.214 254.096L305.615 253.22C306.635 254.155 307.714 255.031 308.818 255.799V256.977L312.199 259.536L313.001 258.185C314.124 258.685 311.486 260.551 312.54 260.788L309.808 266.788L318.584 262.902L320.114 259.66C321.054 259.6 321.955 259.417 322.812 259.12L323.539 260.397L326.509 258.685L325.767 257.403C326.455 256.804 327.089 256.106 327.623 255.289L328.564 256.279L330.153 252.73L329.212 251.745C329.514 250.71 329.717 249.601 329.856 248.403L330.846 248.967V244.141L329.88 243.577C329.752 242.196 329.519 240.81 329.212 239.394Z" fill="#121214"/>
<path d="M283.082 218.252L283.676 219.262L298.759 210.768L298.17 209.763L283.082 218.252Z" fill="#303033"/>
<path d="M310.676 265.888L311.408 267.165L326.506 258.665L325.759 257.383L310.676 265.888Z" fill="#303033"/>
<path d="M314.122 247.893L315.013 247.972L313.404 242.591L312.543 242.512C312.013 241.081 311.389 239.666 310.701 238.285L311.345 237.903L308.384 232.785L307.751 233.146C306.885 231.835 305.939 230.557 304.939 229.355L305.271 228.617L301.415 224.548L301.083 225.281C300.029 224.32 298.94 223.419 297.816 222.642V221.667L293.638 219.251V220.227C292.495 219.707 291.381 219.326 290.302 219.078L289.99 218.019L286.124 217.638L286.446 218.717C285.48 218.771 284.53 218.964 283.674 219.266L283.084 218.256L280.139 219.969L280.738 221.004C280.03 221.622 279.397 222.35 278.847 223.197L278.08 222.375L276.491 225.914L277.293 226.766C277.001 227.815 276.773 228.944 276.659 230.176L275.793 229.671V234.493L276.704 235.008C276.823 236.404 277.06 237.814 277.372 239.225L276.54 239.146L278.139 244.527L279.03 244.616C279.57 246.041 280.184 247.447 280.877 248.838L280.194 249.209L283.164 254.343L283.867 253.922C284.738 255.234 285.654 256.486 286.654 257.664L286.277 258.511L290.133 262.58L290.534 261.704C291.569 262.634 292.638 263.515 293.732 264.283V265.451L297.915 267.861V266.659C299.039 267.158 300.103 267.53 301.172 267.772L301.558 269.124L305.414 269.485L305.028 268.134C305.969 268.074 306.885 267.891 307.716 267.594L308.459 268.871L311.409 267.164L310.676 265.886C311.369 265.287 311.988 264.58 312.523 263.763L313.463 264.753L315.062 261.209L314.122 260.209C314.419 259.199 314.641 258.075 314.765 256.882L315.755 257.446V252.62L314.78 252.056C314.651 250.69 314.429 249.284 314.122 247.893Z" fill="#303033"/>
<path d="M297.977 256.541C291.092 252.566 285.513 242.889 285.513 234.944C285.513 231.608 286.503 229.103 288.147 227.618C285.177 228.533 283.256 231.558 283.256 236.221C283.256 244.166 288.825 253.843 295.73 257.818C299.7 260.125 303.269 260.001 305.546 257.942C303.462 258.595 300.824 258.18 297.977 256.541Z" fill="#121214"/>
<path d="M295.732 229.029C292.875 227.395 290.252 226.975 288.153 227.623C286.51 229.108 285.52 231.613 285.52 234.949C285.52 242.894 291.098 252.577 297.984 256.547C300.83 258.185 303.464 258.601 305.553 257.952C307.196 256.467 308.186 253.963 308.186 250.626C308.186 242.671 302.607 232.999 295.732 229.029Z" fill="#939598"/>
<path d="M297.467 248.596C294.254 246.755 291.665 242.265 291.665 238.567C291.665 237.567 291.839 236.74 292.185 236.082C290.809 236.513 289.928 237.919 289.928 240.082C289.928 243.78 292.517 248.274 295.729 250.126C298.066 251.477 300.1 251.036 301.001 249.244C300.021 249.566 298.798 249.373 297.467 248.596Z" fill="#535359"/>
<path d="M295.732 236.73C294.39 235.958 293.168 235.76 292.188 236.077C291.841 236.735 291.668 237.562 291.668 238.562C291.668 242.259 294.252 246.749 297.469 248.59C298.806 249.368 300.029 249.561 301.004 249.239C301.335 248.581 301.524 247.759 301.524 246.759C301.524 243.076 298.925 238.576 295.732 236.73Z" fill="#A7A9AC"/>
<path d="M313.402 242.592L315.016 247.973L330.099 239.478L328.485 234.098L313.402 242.592Z" fill="#535359"/>
<path d="M315.752 257.452L330.84 248.952V244.131L315.752 252.625V257.452Z" fill="#535359"/>
<path d="M313.461 264.755L328.559 256.265L330.148 252.716L315.06 261.215L313.461 264.755Z" fill="#535359"/>
<path d="M308.385 232.786L311.34 237.904L326.428 229.405L323.473 224.287L308.385 232.786Z" fill="#535359"/>
<path d="M301.414 224.543L305.27 228.617L320.368 220.123L316.497 216.069L301.414 224.543Z" fill="#535359"/>
<path d="M293.631 219.248L297.809 221.664L312.897 213.169L308.729 210.759L293.631 219.248Z" fill="#535359"/>
<path d="M286.119 217.634L289.985 218.015L305.063 209.515L301.207 209.139L286.119 217.634Z" fill="#535359"/>
<path d="M304.934 229.354L320.022 220.85L320.368 220.122L305.27 228.616L304.934 229.354Z" fill="#303033"/>
<path d="M312.541 242.512L313.397 242.591L328.48 234.097L327.624 234.022L312.541 242.512Z" fill="#303033"/>
<path d="M314.785 252.062L315.76 252.626L330.848 244.132L329.883 243.562L314.785 252.062Z" fill="#303033"/>
<path d="M314.117 260.214L315.058 261.214L330.146 252.715L329.205 251.73L314.117 260.214Z" fill="#303033"/>
<path d="M297.807 222.643L312.895 214.149V213.168L297.807 221.663V222.643Z" fill="#303033"/>
<path d="M289.986 218.015L290.298 219.075L305.381 210.585L305.064 209.516L289.986 218.015Z" fill="#303033"/>
<path d="M289.314 207.645L318.351 224.044L322.029 220.881L332.593 234.9L336.795 237.326V212.362L305.154 194.091C299.986 191.116 295.719 191.354 292.229 193.289L277.869 201.596L283.171 204.358L289.314 207.645Z" fill="#9CB88A"/>
<path d="M336.79 237.332L318.529 247.865L316.059 237.332L318.529 222.907L336.79 212.368V237.332Z" fill="#5D6E52"/>
<path d="M250.484 130.091L196.369 161.336L194.414 161.742L158.951 139.729L213.071 108.489L250.484 130.091Z" fill="#9CB88A"/>
<path d="M250.482 130.092L253.576 156.447L199.471 187.692L196.367 161.337L250.482 130.092Z" fill="#5D6E52"/>
<path d="M200.67 183.365L200.883 185.132L225.594 170.866L222.926 147.848L221.505 148.67L223.96 169.921L200.67 183.365Z" fill="#00537D"/>
<path d="M198.213 162.129L200.668 183.365L223.958 169.921L221.503 148.67L198.213 162.129Z" fill="#003552"/>
<path d="M226.977 168.191L227.165 169.943L251.9 155.677L249.237 132.664L247.807 133.491L250.267 154.737L226.977 168.191Z" fill="#00537D"/>
<path d="M224.512 146.945L226.972 168.191L250.262 154.737L247.802 133.491L224.512 146.945Z" fill="#003552"/>
<path d="M232.266 142.462L249.373 152.338L247.24 133.814L232.266 142.462Z" fill="#295E87"/>
<path d="M199.473 187.691L196.369 161.336L158.951 139.729V206.427L199.473 229.826V187.691Z" fill="#7B916D"/>
<path d="M174.459 153.506V172.891L195.304 184.925L195.195 183.618L175.538 172.277V154.125L174.459 153.506Z" fill="#003552"/>
<path d="M175.541 154.125V172.277L195.198 183.618L193.46 164.471L175.541 154.125Z" fill="#295E87"/>
<path d="M214.788 243.509L158.951 211.273V231.712L204.022 257.73L214.788 243.509Z" fill="#687A5C"/>
<path d="M272.044 221.717L312.521 198.348L246.764 160.38L206.287 183.755L272.044 221.717Z" fill="#9CB88A"/>
<path d="M199.471 193.75L193.08 215.966L199.471 229.827L256.065 262.502L257.011 267.893L265.218 272.63L265.228 231.712L199.471 193.75Z" fill="#7B916D"/>
<path d="M265.228 231.712L199.471 193.75L206.287 183.755L272.044 221.718L265.228 231.712Z" fill="#8AA37B"/>
<path d="M319.351 200.461L253.579 162.504L246.768 160.38L312.525 198.348L319.351 200.461Z" fill="#8AA37B"/>
<path d="M226.406 189.276V193.108L265.319 207.493L287.872 194.479V193.806L226.406 189.276Z" fill="#7B916D"/>
<path d="M262.938 168.183L226.406 189.275L265.319 206.813L287.872 193.804L262.938 168.183Z" fill="#ABC997"/>
<path d="M319.429 205.437L280.7 227.801L269.092 231.712L274.789 274.683L322.845 246.948V206.496L319.429 205.437Z" fill="#5D6E52"/>
<path d="M279.45 242.637L285.375 239.216C285.786 238.979 286.118 238.409 286.118 237.939C286.118 237.553 285.895 237.35 285.588 237.424C285.608 237.494 285.623 237.563 285.623 237.657C285.623 238.127 285.291 238.696 284.89 238.929L278.955 242.35C278.876 242.394 278.811 242.424 278.742 242.444C278.826 242.736 279.118 242.83 279.45 242.637Z" fill="#8AA37B"/>
<path d="M278.951 242.344L284.886 238.924C285.287 238.691 285.618 238.122 285.618 237.652C285.618 237.558 285.603 237.488 285.584 237.419C285.514 237.439 285.45 237.468 285.371 237.513L279.446 240.933C279.035 241.166 278.713 241.745 278.713 242.216C278.713 242.3 278.728 242.369 278.738 242.438C278.807 242.418 278.876 242.389 278.951 242.344Z" fill="#383838"/>
<path d="M312.36 223.638L318.295 220.217C318.711 219.979 319.028 219.405 319.028 218.94C319.028 218.554 318.805 218.351 318.498 218.42C318.533 218.489 318.533 218.559 318.533 218.648C318.533 219.123 318.211 219.692 317.8 219.925L311.865 223.345C311.796 223.39 311.732 223.415 311.652 223.435C311.741 223.732 312.023 223.831 312.36 223.638Z" fill="#8AA37B"/>
<path d="M311.856 223.347L317.791 219.926C318.202 219.694 318.523 219.124 318.523 218.649C318.523 218.56 318.523 218.491 318.489 218.421C318.429 218.436 318.355 218.466 318.286 218.506L312.351 221.936C311.94 222.169 311.623 222.738 311.623 223.213C311.623 223.302 311.633 223.371 311.643 223.436C311.722 223.416 311.786 223.391 311.856 223.347Z" fill="#383838"/>
<path d="M287.958 237.736L296.987 232.513C297.398 232.276 297.72 231.702 297.72 231.236C297.729 230.85 297.497 230.652 297.2 230.717C297.22 230.781 297.23 230.86 297.23 230.944C297.23 231.419 296.898 231.984 296.487 232.221L287.463 237.444C287.384 237.483 287.319 237.513 287.25 237.528C287.339 237.825 287.621 237.924 287.958 237.736Z" fill="#8AA37B"/>
<path d="M287.459 237.444L296.483 232.222C296.893 231.984 297.225 231.42 297.225 230.944C297.225 230.86 297.215 230.781 297.195 230.717C297.126 230.732 297.052 230.766 296.982 230.806L287.953 236.028C287.543 236.261 287.211 236.83 287.211 237.305C287.211 237.39 287.226 237.459 287.246 237.528C287.315 237.513 287.384 237.484 287.459 237.444Z" fill="#383838"/>
<path d="M300.768 230.33L309.792 225.118C310.203 224.875 310.525 224.306 310.525 223.835C310.535 223.454 310.302 223.256 310.005 223.321C310.025 223.39 310.04 223.459 310.04 223.548C310.04 224.024 309.708 224.593 309.297 224.83L300.268 230.053C300.189 230.092 300.125 230.112 300.061 230.137C300.145 230.434 300.432 230.528 300.768 230.33Z" fill="#8AA37B"/>
<path d="M300.264 230.053L309.293 224.831C309.704 224.593 310.035 224.024 310.035 223.549C310.035 223.46 310.021 223.39 310.001 223.321C309.932 223.341 309.857 223.375 309.788 223.41L300.764 228.622C300.353 228.865 300.021 229.434 300.021 229.91C300.021 229.989 300.031 230.063 300.056 230.132C300.12 230.107 300.185 230.093 300.264 230.053Z" fill="#383838"/>
<path d="M279.45 245.953L285.375 242.527C285.786 242.295 286.118 241.721 286.118 241.255C286.118 240.864 285.895 240.666 285.588 240.74C285.608 240.805 285.623 240.874 285.623 240.968C285.623 241.443 285.291 242.008 284.89 242.24L278.955 245.671C278.876 245.71 278.811 245.735 278.742 245.755C278.826 246.047 279.118 246.146 279.45 245.953Z" fill="#8AA37B"/>
<path d="M278.951 245.665L284.886 242.235C285.287 242.002 285.618 241.438 285.618 240.963C285.618 240.874 285.603 240.799 285.584 240.735C285.514 240.75 285.45 240.779 285.371 240.824L279.446 244.245C279.035 244.482 278.713 245.051 278.713 245.527C278.713 245.611 278.728 245.68 278.738 245.749C278.807 245.73 278.876 245.705 278.951 245.665Z" fill="#383838"/>
<path d="M312.36 226.954L318.295 223.528C318.711 223.291 319.028 222.721 319.028 222.256C319.028 221.865 318.805 221.667 318.498 221.736C318.533 221.806 318.533 221.875 318.533 221.969C318.533 222.444 318.211 223.008 317.8 223.241L311.865 226.662C311.796 226.706 311.732 226.736 311.652 226.751C311.741 227.048 312.023 227.142 312.36 226.954Z" fill="#8AA37B"/>
<path d="M311.856 226.658L317.791 223.237C318.202 223.005 318.523 222.44 318.523 221.965C318.523 221.876 318.523 221.802 318.489 221.732C318.429 221.752 318.355 221.782 318.286 221.822L312.351 225.242C311.94 225.475 311.623 226.049 311.623 226.524C311.623 226.603 311.633 226.678 311.643 226.747C311.722 226.732 311.786 226.702 311.856 226.658Z" fill="#383838"/>
<path d="M287.958 241.041L296.987 235.819C297.398 235.586 297.72 235.007 297.72 234.542C297.729 234.161 297.497 233.958 297.2 234.027C297.22 234.096 297.23 234.171 297.23 234.255C297.23 234.73 296.898 235.294 296.487 235.537L287.463 240.754C287.384 240.794 287.319 240.824 287.25 240.843C287.339 241.145 287.621 241.229 287.958 241.041Z" fill="#8AA37B"/>
<path d="M287.459 240.755L296.483 235.538C296.893 235.296 297.225 234.731 297.225 234.256C297.225 234.172 297.215 234.098 297.195 234.028C297.126 234.043 297.052 234.078 296.982 234.117L287.953 239.34C287.543 239.572 287.211 240.147 287.211 240.627C287.211 240.706 287.226 240.775 287.246 240.845C287.315 240.825 287.384 240.795 287.459 240.755Z" fill="#383838"/>
<path d="M300.768 233.648L309.792 228.43C310.203 228.192 310.525 227.618 310.525 227.153C310.535 226.767 310.302 226.569 310.005 226.638C310.025 226.703 310.04 226.772 310.04 226.866C310.04 227.341 309.708 227.905 309.297 228.143L300.268 233.36C300.189 233.405 300.125 233.435 300.061 233.45C300.145 233.747 300.432 233.841 300.768 233.648Z" fill="#8AA37B"/>
<path d="M300.264 233.361L309.293 228.144C309.704 227.906 310.035 227.342 310.035 226.867C310.035 226.773 310.021 226.704 310.001 226.639C309.932 226.654 309.857 226.689 309.788 226.728L300.764 231.951C300.353 232.183 300.021 232.757 300.021 233.228C300.021 233.312 300.031 233.381 300.056 233.451C300.12 233.431 300.185 233.406 300.264 233.361Z" fill="#383838"/>
<path d="M279.45 249.265L285.375 245.839C285.786 245.606 286.118 245.037 286.118 244.567C286.118 244.186 285.895 243.978 285.588 244.052C285.608 244.121 285.623 244.191 285.623 244.28C285.623 244.755 285.291 245.319 284.89 245.552L278.955 248.982C278.876 249.022 278.811 249.052 278.742 249.066C278.826 249.363 279.118 249.463 279.45 249.265Z" fill="#8AA37B"/>
<path d="M278.951 248.977L284.886 245.547C285.287 245.314 285.618 244.75 285.618 244.275C285.618 244.185 285.603 244.116 285.584 244.047C285.514 244.062 285.45 244.096 285.371 244.136L279.446 247.561C279.035 247.794 278.713 248.373 278.713 248.843C278.713 248.923 278.728 248.992 278.738 249.061C278.807 249.046 278.876 249.017 278.951 248.977Z" fill="#383838"/>
<path d="M312.36 230.262L318.295 226.846C318.711 226.609 319.028 226.035 319.028 225.569C319.028 225.178 318.805 224.98 318.498 225.054C318.533 225.124 318.533 225.193 318.533 225.282C318.533 225.757 318.211 226.322 317.8 226.554L311.865 229.98C311.796 230.024 311.732 230.044 311.652 230.069C311.741 230.366 312.023 230.46 312.36 230.262Z" fill="#8AA37B"/>
<path d="M311.856 229.974L317.791 226.549C318.202 226.316 318.523 225.752 318.523 225.276C318.523 225.187 318.523 225.118 318.489 225.049C318.429 225.064 318.355 225.093 318.286 225.138L312.351 228.558C311.94 228.796 311.623 229.37 311.623 229.84C311.623 229.925 311.633 229.994 311.643 230.063C311.722 230.038 311.786 230.019 311.856 229.974Z" fill="#383838"/>
<path d="M287.958 244.355L296.987 239.137C297.398 238.895 297.72 238.331 297.72 237.86C297.729 237.474 297.497 237.271 297.2 237.341C297.22 237.41 297.23 237.484 297.23 237.578C297.23 238.044 296.898 238.608 296.487 238.85L287.463 244.073C287.384 244.112 287.319 244.137 287.25 244.157C287.339 244.459 287.621 244.543 287.958 244.355Z" fill="#8AA37B"/>
<path d="M287.459 244.074L296.483 238.852C296.893 238.609 297.225 238.045 297.225 237.579C297.225 237.49 297.215 237.411 297.195 237.342C297.126 237.362 297.052 237.396 296.982 237.431L287.953 242.648C287.543 242.886 287.211 243.46 287.211 243.931C287.211 244.015 287.226 244.084 287.246 244.153C287.315 244.138 287.384 244.114 287.459 244.074Z" fill="#383838"/>
<path d="M300.768 236.965L309.792 231.737C310.203 231.51 310.525 230.93 310.525 230.465C310.535 230.084 310.302 229.881 310.005 229.945C310.025 230.015 310.04 230.089 310.04 230.173C310.04 230.648 309.708 231.213 309.297 231.455L300.268 236.673C300.189 236.712 300.125 236.742 300.061 236.762C300.145 237.064 300.432 237.153 300.768 236.965Z" fill="#8AA37B"/>
<path d="M300.264 236.678L309.293 231.46C309.704 231.218 310.035 230.654 310.035 230.178C310.035 230.094 310.021 230.02 310.001 229.951C309.932 229.966 309.857 230 309.788 230.04L300.764 235.262C300.353 235.495 300.021 236.069 300.021 236.544C300.021 236.623 300.031 236.698 300.056 236.767C300.12 236.742 300.185 236.713 300.264 236.678Z" fill="#383838"/>
<path d="M279.45 252.581L285.375 249.161C285.786 248.918 286.118 248.349 286.118 247.879C286.118 247.498 285.895 247.29 285.588 247.359C285.608 247.428 285.623 247.497 285.623 247.587C285.623 248.062 285.291 248.626 284.89 248.864L278.955 252.289C278.876 252.334 278.811 252.359 278.742 252.373C278.826 252.68 279.118 252.774 279.45 252.581Z" fill="#8AA37B"/>
<path d="M278.951 252.288L284.886 248.863C285.287 248.625 285.618 248.061 285.618 247.586C285.618 247.496 285.603 247.427 285.584 247.358C285.514 247.378 285.45 247.407 285.371 247.452L279.446 250.872C279.035 251.105 278.713 251.684 278.713 252.15C278.713 252.239 278.728 252.308 278.738 252.372C278.807 252.358 278.876 252.333 278.951 252.288Z" fill="#383838"/>
<path d="M312.36 233.583L318.295 230.162C318.711 229.919 319.028 229.35 319.028 228.88C319.028 228.499 318.805 228.291 318.498 228.365C318.533 228.434 318.533 228.504 318.533 228.593C318.533 229.068 318.211 229.632 317.8 229.87L311.865 233.295C311.796 233.335 311.732 233.365 311.652 233.379C311.741 233.681 312.023 233.776 312.36 233.583Z" fill="#8AA37B"/>
<path d="M311.856 233.29L317.791 229.865C318.202 229.627 318.523 229.063 318.523 228.588C318.523 228.504 318.523 228.429 318.489 228.36C318.429 228.38 318.355 228.404 318.286 228.454L312.351 231.875C311.94 232.107 311.623 232.681 311.623 233.152C311.623 233.241 311.633 233.305 311.643 233.374C311.722 233.359 311.786 233.33 311.856 233.29Z" fill="#383838"/>
<path d="M287.958 247.671L296.987 242.449C297.398 242.211 297.72 241.637 297.72 241.172C297.729 240.785 297.497 240.587 297.2 240.657C297.22 240.721 297.23 240.795 297.23 240.889C297.23 241.355 296.898 241.924 296.487 242.161L287.463 247.384C287.384 247.429 287.319 247.453 287.25 247.468C287.339 247.77 287.621 247.864 287.958 247.671Z" fill="#8AA37B"/>
<path d="M287.459 247.385L296.483 242.162C296.893 241.925 297.225 241.356 297.225 240.89C297.225 240.796 297.215 240.722 297.195 240.658C297.126 240.673 297.052 240.707 296.982 240.747L287.953 245.969C287.543 246.202 287.211 246.771 287.211 247.251C287.211 247.33 287.226 247.4 287.246 247.469C287.315 247.449 287.384 247.425 287.459 247.385Z" fill="#383838"/>
<path d="M300.768 240.275L309.792 235.057C310.203 234.815 310.525 234.245 310.525 233.775C310.535 233.394 310.302 233.191 310.005 233.261C310.025 233.33 310.04 233.404 310.04 233.488C310.04 233.963 309.708 234.528 309.297 234.77L300.268 239.993C300.189 240.032 300.125 240.057 300.061 240.077C300.145 240.374 300.432 240.468 300.768 240.275Z" fill="#8AA37B"/>
<path d="M300.264 239.994L309.293 234.771C309.704 234.529 310.035 233.965 310.035 233.489C310.035 233.405 310.021 233.331 310.001 233.262C309.932 233.282 309.857 233.316 309.788 233.351L300.764 238.568C300.353 238.806 300.021 239.375 300.021 239.85C300.021 239.934 300.031 240.004 300.056 240.073C300.12 240.053 300.185 240.028 300.264 239.994Z" fill="#383838"/>
<path d="M279.45 255.892L285.375 252.466C285.786 252.234 286.118 251.659 286.118 251.194C286.118 250.808 285.895 250.605 285.588 250.679C285.608 250.744 285.623 250.813 285.623 250.907C285.623 251.382 285.291 251.946 284.89 252.179L278.955 255.61C278.876 255.654 278.811 255.674 278.742 255.694C278.826 255.991 279.118 256.085 279.45 255.892Z" fill="#8AA37B"/>
<path d="M278.951 255.604L284.886 252.174C285.287 251.941 285.618 251.377 285.618 250.902C285.618 250.808 285.603 250.738 285.584 250.674C285.514 250.689 285.45 250.723 285.371 250.763L279.446 254.184C279.035 254.421 278.713 254.995 278.713 255.471C278.713 255.55 278.728 255.619 278.738 255.688C278.807 255.668 278.876 255.649 278.951 255.604Z" fill="#383838"/>
<path d="M312.36 236.893L318.295 233.468C318.711 233.23 319.028 232.661 319.028 232.191C319.028 231.81 318.805 231.602 318.498 231.676C318.533 231.745 318.533 231.815 318.533 231.909C318.533 232.379 318.211 232.948 317.8 233.181L311.865 236.606C311.796 236.656 311.732 236.676 311.652 236.691C311.741 236.992 312.023 237.081 312.36 236.893Z" fill="#8AA37B"/>
<path d="M311.856 236.601L317.791 233.176C318.202 232.943 318.523 232.374 318.523 231.904C318.523 231.809 318.523 231.74 318.489 231.671C318.429 231.691 318.355 231.72 318.286 231.76L312.351 235.181C311.94 235.413 311.623 235.992 311.623 236.463C311.623 236.547 311.633 236.616 311.643 236.685C311.722 236.671 311.786 236.651 311.856 236.601Z" fill="#383838"/>
<path d="M287.958 250.982L296.987 245.759C297.398 245.527 297.72 244.957 297.72 244.487C297.729 244.101 297.497 243.898 297.2 243.968C297.22 244.042 297.23 244.111 297.23 244.2C297.23 244.67 296.898 245.24 296.487 245.477L287.463 250.695C287.384 250.739 287.319 250.764 287.25 250.779C287.339 251.086 287.621 251.175 287.958 250.982Z" fill="#8AA37B"/>
<path d="M287.459 250.696L296.483 245.478C296.893 245.241 297.225 244.672 297.225 244.201C297.225 244.112 297.215 244.043 297.195 243.969C297.126 243.989 297.052 244.018 296.982 244.053L287.953 249.275C287.543 249.513 287.211 250.087 287.211 250.562C287.211 250.641 287.226 250.711 287.246 250.775C287.315 250.76 287.384 250.736 287.459 250.696Z" fill="#383838"/>
<path d="M300.768 243.591L309.792 238.369C310.203 238.136 310.525 237.557 310.525 237.096C310.535 236.705 310.302 236.507 310.005 236.577C310.025 236.641 310.04 236.71 310.04 236.804C310.04 237.275 309.708 237.844 309.297 238.082L300.268 243.304C300.189 243.348 300.125 243.373 300.061 243.388C300.145 243.69 300.432 243.779 300.768 243.591Z" fill="#8AA37B"/>
<path d="M300.264 243.305L309.293 238.083C309.704 237.845 310.035 237.276 310.035 236.805C310.035 236.711 310.021 236.642 310.001 236.578C309.932 236.592 309.857 236.627 309.788 236.667L300.764 241.889C300.353 242.122 300.021 242.691 300.021 243.171C300.021 243.25 300.031 243.32 300.056 243.389C300.12 243.369 300.185 243.344 300.264 243.305Z" fill="#383838"/>
<path d="M279.45 259.204L285.375 255.779C285.786 255.541 286.118 254.967 286.118 254.502C286.118 254.121 285.895 253.913 285.588 253.982C285.608 254.051 285.623 254.126 285.623 254.21C285.623 254.685 285.291 255.249 284.89 255.492L278.955 258.912C278.876 258.957 278.811 258.982 278.742 259.001C278.826 259.303 279.118 259.397 279.45 259.204Z" fill="#8AA37B"/>
<path d="M278.951 258.916L284.886 255.496C285.287 255.253 285.618 254.689 285.618 254.214C285.618 254.129 285.603 254.055 285.584 253.986C285.514 254.001 285.45 254.035 285.371 254.075L279.446 257.501C279.035 257.733 278.713 258.312 278.713 258.782C278.713 258.862 278.728 258.931 278.738 259.005C278.807 258.985 278.876 258.961 278.951 258.916Z" fill="#383838"/>
<path d="M312.36 240.206L318.295 236.785C318.711 236.548 319.028 235.973 319.028 235.508C319.028 235.122 318.805 234.919 318.498 234.993C318.533 235.062 318.533 235.127 318.533 235.221C318.533 235.696 318.211 236.26 317.8 236.493L311.865 239.923C311.796 239.963 311.732 239.988 311.652 240.013C311.741 240.305 312.023 240.399 312.36 240.206Z" fill="#8AA37B"/>
<path d="M311.856 239.918L317.791 236.488C318.202 236.255 318.523 235.691 318.523 235.215C318.523 235.121 318.523 235.057 318.489 234.988C318.429 235.003 318.355 235.037 318.286 235.077L312.351 238.497C311.94 238.735 311.623 239.304 311.623 239.784C311.623 239.864 311.633 239.933 311.643 240.007C311.722 239.982 311.786 239.958 311.856 239.918Z" fill="#383838"/>
<path d="M287.958 254.293L296.987 249.076C297.398 248.838 297.72 248.269 297.72 247.799C297.729 247.412 297.497 247.209 297.2 247.284C297.22 247.348 297.23 247.422 297.23 247.516C297.23 247.982 296.898 248.556 296.487 248.789L287.463 254.011C287.384 254.055 287.319 254.075 287.25 254.095C287.339 254.397 287.621 254.491 287.958 254.293Z" fill="#8AA37B"/>
<path d="M287.459 254.01L296.483 248.788C296.893 248.555 297.225 247.981 297.225 247.516C297.225 247.427 297.215 247.348 297.195 247.283C297.126 247.303 297.052 247.333 296.982 247.372L287.953 252.585C287.543 252.822 287.211 253.397 287.211 253.872C287.211 253.951 287.226 254.02 287.246 254.095C287.315 254.07 287.384 254.05 287.459 254.01Z" fill="#383838"/>
<path d="M300.768 246.903L309.792 241.68C310.203 241.448 310.525 240.869 310.525 240.408C310.535 240.022 310.302 239.819 310.005 239.888C310.025 239.958 310.04 240.032 310.04 240.116C310.04 240.591 309.708 241.156 309.297 241.398L300.268 246.616C300.189 246.655 300.125 246.685 300.061 246.7C300.145 247.007 300.432 247.091 300.768 246.903Z" fill="#8AA37B"/>
<path d="M300.264 246.612L309.293 241.395C309.704 241.152 310.035 240.588 310.035 240.113C310.035 240.028 310.021 239.954 310.001 239.885C309.932 239.9 309.857 239.934 309.788 239.974L300.764 245.196C300.353 245.429 300.021 246.008 300.021 246.473C300.021 246.562 300.031 246.632 300.056 246.696C300.12 246.681 300.185 246.652 300.264 246.612Z" fill="#383838"/>
<path d="M279.45 262.516L285.375 259.095C285.786 258.852 286.118 258.283 286.118 257.813C286.118 257.432 285.895 257.229 285.588 257.298C285.608 257.367 285.623 257.437 285.623 257.526C285.623 258.001 285.291 258.565 284.89 258.808L278.955 262.228C278.876 262.273 278.811 262.298 278.742 262.323C278.826 262.62 279.118 262.709 279.45 262.516Z" fill="#8AA37B"/>
<path d="M278.951 262.23L284.886 258.809C285.287 258.567 285.618 258.002 285.618 257.527C285.618 257.443 285.603 257.369 285.584 257.299C285.514 257.319 285.45 257.354 285.371 257.393L279.446 260.814C279.035 261.047 278.713 261.626 278.713 262.101C278.713 262.18 278.728 262.249 278.738 262.324C278.807 262.294 278.876 262.269 278.951 262.23Z" fill="#383838"/>
<path d="M312.36 243.518L318.295 240.092C318.711 239.854 319.028 239.285 319.028 238.815C319.028 238.434 318.805 238.231 318.498 238.3C318.533 238.369 318.533 238.439 318.533 238.528C318.533 239.003 318.211 239.567 317.8 239.805L311.865 243.23C311.796 243.275 311.732 243.3 311.652 243.315C311.741 243.616 312.023 243.711 312.36 243.518Z" fill="#8AA37B"/>
<path d="M311.856 243.232L317.791 239.806C318.202 239.569 318.523 239.004 318.523 238.529C318.523 238.44 318.523 238.371 318.489 238.301C318.429 238.316 318.355 238.351 318.286 238.39L312.351 241.816C311.94 242.054 311.623 242.628 311.623 243.098C311.623 243.177 311.633 243.246 311.643 243.316C311.722 243.301 311.786 243.276 311.856 243.232Z" fill="#383838"/>
<path d="M287.958 257.61L296.987 252.388C297.398 252.155 297.72 251.581 297.72 251.115C297.729 250.724 297.497 250.526 297.2 250.596C297.22 250.665 297.23 250.734 297.23 250.828C297.23 251.294 296.898 251.868 296.487 252.101L287.463 257.323C287.384 257.367 287.319 257.392 287.25 257.412C287.339 257.709 287.621 257.803 287.958 257.61Z" fill="#8AA37B"/>
<path d="M287.459 257.319L296.483 252.097C296.893 251.864 297.225 251.29 297.225 250.824C297.225 250.73 297.215 250.661 297.195 250.592C297.126 250.612 297.052 250.641 296.982 250.686L287.953 255.903C287.543 256.141 287.211 256.715 287.211 257.185C287.211 257.265 287.226 257.334 287.246 257.408C287.315 257.388 287.384 257.364 287.459 257.319Z" fill="#383838"/>
<path d="M300.768 250.215L309.792 244.998C310.203 244.76 310.525 244.191 310.525 243.716C310.535 243.335 310.302 243.132 310.005 243.206C310.025 243.27 310.04 243.345 310.04 243.439C310.04 243.904 309.708 244.478 309.297 244.711L300.268 249.933C300.189 249.978 300.125 249.998 300.061 250.017C300.145 250.319 300.432 250.413 300.768 250.215Z" fill="#8AA37B"/>
<path d="M300.264 249.928L309.293 244.705C309.704 244.473 310.035 243.899 310.035 243.433C310.035 243.344 310.021 243.265 310.001 243.201C309.932 243.22 309.857 243.25 309.788 243.285L300.764 248.502C300.353 248.745 300.021 249.314 300.021 249.789C300.021 249.868 300.031 249.938 300.056 250.012C300.12 249.992 300.185 249.972 300.264 249.928Z" fill="#383838"/>
<path d="M279.45 265.827L285.375 262.406C285.786 262.169 286.118 261.594 286.118 261.134C286.118 260.743 285.895 260.545 285.588 260.614C285.608 260.679 285.623 260.753 285.623 260.842C285.623 261.312 285.291 261.881 284.89 262.119L278.955 265.54C278.876 265.589 278.811 265.609 278.742 265.629C278.826 265.931 279.118 266.025 279.45 265.827Z" fill="#8AA37B"/>
<path d="M278.951 265.541L284.886 262.12C285.287 261.882 285.618 261.313 285.618 260.843C285.618 260.754 285.603 260.68 285.584 260.615C285.514 260.63 285.45 260.665 285.371 260.704L279.446 264.125C279.035 264.367 278.713 264.937 278.713 265.412C278.713 265.491 278.728 265.56 278.738 265.635C278.807 265.605 278.876 265.585 278.951 265.541Z" fill="#383838"/>
<path d="M312.36 246.828L318.295 243.408C318.711 243.165 319.028 242.596 319.028 242.125C319.028 241.744 318.805 241.546 318.498 241.606C318.533 241.675 318.533 241.749 318.533 241.838C318.533 242.309 318.211 242.878 317.8 243.116L311.865 246.536C311.796 246.58 311.732 246.605 311.652 246.625C311.741 246.932 312.023 247.021 312.36 246.828Z" fill="#8AA37B"/>
<path d="M311.856 246.54L317.791 243.12C318.202 242.882 318.523 242.313 318.523 241.843C318.523 241.753 318.523 241.679 318.489 241.61C318.429 241.63 318.355 241.664 318.286 241.704L312.351 245.125C311.94 245.367 311.623 245.936 311.623 246.411C311.623 246.491 311.633 246.56 311.643 246.634C311.722 246.61 311.786 246.585 311.856 246.54Z" fill="#383838"/>
<path d="M287.958 260.92L296.987 255.698C297.398 255.465 297.72 254.896 297.72 254.426C297.729 254.035 297.497 253.837 297.2 253.911C297.22 253.975 297.23 254.049 297.23 254.139C297.23 254.614 296.898 255.178 296.487 255.411L287.463 260.633C287.384 260.678 287.319 260.702 287.25 260.722C287.339 261.024 287.621 261.113 287.958 260.92Z" fill="#8AA37B"/>
<path d="M287.459 260.628L296.483 255.405C296.893 255.173 297.225 254.608 297.225 254.133C297.225 254.044 297.215 253.97 297.195 253.905C297.126 253.92 297.052 253.95 296.982 253.994L287.953 259.212C287.543 259.449 287.211 260.024 287.211 260.499C287.211 260.578 287.226 260.652 287.246 260.721C287.315 260.697 287.384 260.672 287.459 260.628Z" fill="#383838"/>
<path d="M300.768 253.53L309.792 248.308C310.203 248.075 310.525 247.501 310.525 247.035C310.535 246.644 310.302 246.446 310.005 246.516C310.025 246.58 310.04 246.654 310.04 246.748C310.04 247.214 309.708 247.788 309.297 248.021L300.268 253.243C300.189 253.287 300.125 253.312 300.061 253.332C300.145 253.619 300.432 253.723 300.768 253.53Z" fill="#8AA37B"/>
<path d="M300.264 253.239L309.293 248.016C309.704 247.784 310.035 247.21 310.035 246.744C310.035 246.65 310.021 246.576 310.001 246.512C309.932 246.532 309.857 246.561 309.788 246.601L300.764 251.823C300.353 252.061 300.021 252.635 300.021 253.1C300.021 253.184 300.031 253.254 300.056 253.328C300.12 253.308 300.185 253.283 300.264 253.239Z" fill="#383838"/>
<path d="M319.428 205.436L280.699 227.8L272.041 221.717L312.518 198.347L319.428 205.436Z" fill="#8AA37B"/>
<path d="M274.798 236.449L265.225 231.712L272.041 221.718L280.699 227.801L274.798 236.449Z" fill="#7B916D"/>
<path d="M319.432 205.436L312.521 198.347L319.348 200.461L322.848 206.495L319.432 205.436Z" fill="#7B916D"/>
<path d="M274.788 274.684L265.215 272.63L265.225 231.712L274.798 236.45L274.788 274.684Z" fill="#687A5C"/>
<path d="M254.137 261.383L158.951 206.427V211.273L254.137 266.225V261.383Z" fill="#36402F"/>
<path d="M215.788 238.212C202.146 244.528 201.27 261.334 201.27 261.428L216.031 252.904C216.63 251.894 218.506 246.142 221.922 241.494L215.788 238.212Z" fill="#383838"/>
<path d="M212.493 261.505L214.374 259.312L211.721 260.684L212.493 261.505Z" fill="#535359"/>
<path d="M210.197 268.793L212.088 266.605L209.42 267.981L210.197 268.793Z" fill="#535359"/>
<path d="M210.951 278.277L212.827 276.089L210.174 277.456L210.951 278.277Z" fill="#535359"/>
<path d="M223.771 300.893L225.944 299.646L222.994 300.077L223.771 300.893Z" fill="#535359"/>
<path d="M231.55 306.186L233.718 304.928L230.303 304.666L231.55 306.186Z" fill="#535359"/>
<path d="M239.057 307.805L243.185 305.478L237.824 306.29L239.057 307.805Z" fill="#535359"/>
<path d="M262.854 277.702L263.745 277.796L262.131 272.416L261.265 272.327C260.745 270.896 260.121 269.49 259.428 268.084L260.077 267.718L257.116 262.6L256.483 262.966C255.602 261.639 254.671 260.372 253.671 259.164L254.013 258.437L250.147 254.372L249.815 255.095C248.761 254.13 247.667 253.239 246.548 252.462V251.477L242.365 249.071V250.041C241.222 249.521 240.108 249.14 239.029 248.898L238.712 247.833L234.856 247.452L235.173 248.531C234.198 248.601 233.272 248.774 232.405 249.086L231.816 248.081L228.866 249.789L229.47 250.828C228.767 251.437 228.124 252.17 227.579 253.006L225.688 252.204L216.729 257.585L222.09 257.867C221.788 258.922 223.243 258.303 223.124 259.545L222.09 259.991L224.52 264.317L225.436 264.847C225.564 266.238 225.787 267.639 226.104 269.064L225.282 268.975L226.871 274.361L227.748 274.445C228.302 275.871 228.916 277.282 229.604 278.663L228.935 279.064L231.886 284.172L232.599 283.761C233.465 285.073 234.395 286.32 235.381 287.503L235.004 288.345L238.87 292.409L239.271 291.538C240.291 292.473 241.36 293.35 242.469 294.117V295.29L245.85 297.854L246.652 296.503C247.766 296.998 245.137 298.869 246.192 299.107L243.459 305.106L252.231 301.22L253.755 297.973C254.711 297.919 255.612 297.73 256.458 297.438L257.191 298.711L260.161 296.998L259.418 295.716C260.106 295.117 260.74 294.424 261.265 293.597L262.205 294.597L263.804 291.048L262.849 290.058C263.151 289.028 263.373 287.919 263.507 286.721L264.497 287.286V282.459L263.517 281.895C263.383 280.509 263.151 279.123 262.854 277.702Z" fill="#121214"/>
<path d="M216.719 256.57L217.308 257.575L232.396 249.086L231.807 248.076L216.719 256.57Z" fill="#303033"/>
<path d="M244.312 304.201L245.05 305.478L260.148 296.973L259.4 295.691L244.312 304.201Z" fill="#303033"/>
<path d="M247.753 286.21L248.644 286.284L247.046 280.909L246.184 280.829C245.655 279.399 245.031 277.978 244.343 276.597L244.986 276.216L242.026 271.098L241.393 271.459C240.516 270.147 239.581 268.87 238.581 267.662L238.913 266.93L235.056 262.861L234.725 263.593C233.67 262.628 232.581 261.732 231.458 260.955V259.98L227.28 257.559V258.539C226.136 258.019 225.023 257.643 223.943 257.391L223.622 256.331L219.756 255.95L220.087 257.029C219.122 257.084 218.172 257.282 217.315 257.579L216.726 256.574L213.766 258.282L214.37 259.316C213.667 259.935 213.033 260.658 212.489 261.509L211.722 260.687L210.133 264.227L210.935 265.078C210.643 266.128 210.415 267.261 210.291 268.494L209.42 267.984V272.805L210.341 273.325C210.459 274.721 210.697 276.132 211.009 277.543L210.177 277.458L211.776 282.839L212.667 282.928C213.207 284.349 213.811 285.755 214.514 287.161L213.83 287.532L216.791 292.665L217.503 292.244C218.375 293.556 219.29 294.809 220.295 295.987L219.909 296.833L223.775 300.902L224.166 300.026C225.211 300.961 226.265 301.838 227.374 302.6V303.778L231.557 306.189V304.981C232.671 305.486 233.745 305.852 234.814 306.1L235.2 307.446L239.056 307.808L238.66 306.456C239.601 306.397 240.516 306.209 241.358 305.917L242.1 307.194L245.051 305.486L244.318 304.209C245.011 303.61 245.63 302.902 246.164 302.085L247.105 303.075L248.704 299.526L247.753 298.531C248.065 297.511 248.283 296.397 248.407 295.205L249.397 295.769V290.943L248.422 290.378C248.293 289.002 248.07 287.601 247.753 286.21Z" fill="#303033"/>
<path d="M231.624 294.849C224.738 290.879 219.16 281.201 219.16 273.256C219.16 269.92 220.145 267.415 221.793 265.935C218.823 266.846 216.902 269.875 216.902 274.538C216.902 282.483 222.471 292.161 229.367 296.136C233.347 298.442 236.911 298.319 239.193 296.259C237.104 296.908 234.47 296.492 231.624 294.849Z" fill="#121214"/>
<path d="M229.368 267.342C226.522 265.708 223.903 265.288 221.8 265.936C220.151 267.421 219.166 269.926 219.166 273.257C219.166 281.202 224.745 290.885 231.63 294.85C234.477 296.488 237.11 296.904 239.199 296.26C240.843 294.771 241.833 292.271 241.833 288.934C241.828 280.979 236.249 271.317 229.368 267.342Z" fill="#939598"/>
<path d="M231.109 286.909C227.896 285.067 225.307 280.578 225.307 276.88C225.307 275.875 225.48 275.053 225.827 274.395C224.436 274.826 223.555 276.226 223.555 278.395C223.555 282.092 226.144 286.582 229.361 288.434C231.708 289.785 233.742 289.344 234.638 287.552C233.668 287.874 232.445 287.676 231.109 286.909Z" fill="#535359"/>
<path d="M229.369 275.043C228.032 274.276 226.799 274.078 225.834 274.395C225.488 275.053 225.314 275.875 225.314 276.88C225.314 280.577 227.903 285.067 231.116 286.908C232.452 287.676 233.675 287.874 234.65 287.552C234.982 286.899 235.17 286.077 235.17 285.077C235.17 281.389 232.566 276.885 229.369 275.043Z" fill="#A7A9AC"/>
<path d="M247.039 280.905L248.638 286.281L263.736 277.791L262.122 272.411L247.039 280.905Z" fill="#535359"/>
<path d="M249.398 295.765L264.486 287.265V282.444L249.398 290.943V295.765Z" fill="#535359"/>
<path d="M247.107 303.072L262.195 294.578L263.794 291.029L248.706 299.523L247.107 303.072Z" fill="#535359"/>
<path d="M242.031 271.099L244.987 276.217L260.074 267.718L257.114 262.6L242.031 271.099Z" fill="#535359"/>
<path d="M235.051 262.861L238.912 266.931L254.005 258.436L250.139 254.372L235.051 262.861Z" fill="#535359"/>
<path d="M227.277 257.556L231.455 259.982L246.543 251.478L242.36 249.067L227.277 257.556Z" fill="#535359"/>
<path d="M219.756 255.947L223.622 256.328L238.71 247.828L234.849 247.447L219.756 255.947Z" fill="#535359"/>
<path d="M238.58 267.664L253.668 259.17L254.01 258.438L238.917 266.932L238.58 267.664Z" fill="#303033"/>
<path d="M246.178 280.83L247.039 280.904L262.122 272.41L261.256 272.326L246.178 280.83Z" fill="#303033"/>
<path d="M248.422 290.375L249.402 290.944L264.49 282.445L263.505 281.88L248.422 290.375Z" fill="#303033"/>
<path d="M247.754 298.528L248.704 299.522L263.792 291.028L262.837 290.038L247.754 298.528Z" fill="#303033"/>
<path d="M231.453 260.956L246.541 252.462V251.477L231.453 259.981V260.956Z" fill="#303033"/>
<path d="M223.613 256.328L223.935 257.388L239.018 248.893L238.701 247.829L223.613 256.328Z" fill="#303033"/>
<path d="M222.943 245.962L251.99 262.362L255.668 259.204L266.231 273.218L270.835 275.411V250.442L265.212 247.665L238.783 232.404C233.625 229.424 229.358 229.657 225.868 231.592L211.508 239.913L216.809 242.671L222.943 245.962Z" fill="#9CB88A"/>
<path d="M270.836 275.41L255.668 284.162L252.906 275.074L255.668 259.199L270.836 250.442V275.41Z" fill="#5D6E52"/>
<path d="M224.026 240.933C204.859 229.864 197.924 263.134 197.924 263.362L202.305 265.886C203.517 263.822 210.052 242.091 224.031 250.165L245.757 262.703L251.479 281.737L255.682 284.162V259.199L224.026 240.933Z" fill="#7B916D"/>
<path d="M322.845 246.949L274.789 274.684L270.804 273.303L255.672 282.035V298.153L271.76 292.549V292.554L325.869 261.319L339.195 236.554L336.794 235.192L322.81 243.271L322.845 246.949Z" fill="#666666"/>
<path d="M276.875 279.361V295.483L330.995 264.248V248.131L276.875 279.361Z" fill="#383838"/>
<path d="M330.996 248.132V264.249L339.198 252.666V236.553L330.996 248.132Z" fill="#575757"/>
<path d="M258.08 283.396V299.508L276.876 295.469V279.361L258.08 283.396Z" fill="#575757"/>
<path d="M258.078 299.509L255.672 298.152V282.035L258.078 283.396V299.509Z" fill="#383838"/>
<path d="M264.563 261.176C261.806 262.77 259.559 266.656 259.559 269.853C259.559 273.051 261.806 274.343 264.563 272.754C267.33 271.15 269.588 267.264 269.588 264.067C269.588 260.864 267.33 259.567 264.563 261.176Z" fill="#4E5C44"/>
<path d="M267.236 260.309C266.336 259.789 265.078 259.858 263.702 260.67C260.93 262.254 258.688 266.15 258.688 269.343C258.688 271.026 259.306 272.189 260.306 272.674L260.999 273.085C260.098 272.55 259.554 271.427 259.554 269.853C259.554 266.655 261.801 262.769 264.558 261.175C265.885 260.418 267.058 260.304 267.949 260.735L267.246 260.319L267.236 260.309Z" fill="#7B916D"/>
<path d="M267.274 261.993C267.853 262.458 268.19 263.285 268.19 264.389C268.19 266.948 266.398 270.056 264.185 271.329C263.141 271.938 262.195 272.027 261.473 271.67C262.205 272.279 263.314 272.294 264.561 271.571C266.784 270.299 268.566 267.19 268.566 264.641C268.566 263.3 268.076 262.374 267.274 261.993Z" fill="#9CB88A"/>
<path d="M264.557 262.334C262.359 263.616 260.562 266.714 260.562 269.264C260.562 270.382 260.894 271.199 261.468 271.67C262.191 272.021 263.136 271.937 264.181 271.328C266.389 270.051 268.186 266.942 268.186 264.388C268.186 263.279 267.854 262.452 267.27 261.992C266.562 261.641 265.611 261.735 264.557 262.334Z" fill="#FFEC7A"/>
<path d="M329.776 223.801C327.019 225.395 324.771 229.286 324.771 232.479C324.771 235.677 327.019 236.968 329.776 235.38C332.548 233.776 334.8 229.89 334.8 226.692C334.8 223.499 332.548 222.197 329.776 223.801Z" fill="#4E5C44"/>
<path d="M332.449 222.939C331.548 222.424 330.291 222.489 328.915 223.3C326.143 224.889 323.9 228.775 323.9 231.978C323.9 233.661 324.524 234.814 325.524 235.3L326.212 235.71C325.311 235.181 324.767 234.062 324.767 232.478C324.767 229.285 327.014 225.394 329.771 223.8C331.093 223.048 332.271 222.934 333.162 223.36L332.464 222.944L332.449 222.939Z" fill="#7B916D"/>
<path d="M332.487 224.618C333.066 225.088 333.403 225.915 333.403 227.023C333.403 229.578 331.611 232.686 329.398 233.954C328.354 234.567 327.408 234.651 326.686 234.295C327.413 234.909 328.527 234.919 329.774 234.206C331.997 232.929 333.784 229.825 333.784 227.276C333.789 225.934 333.289 225.009 332.487 224.618Z" fill="#9CB88A"/>
<path d="M329.77 224.969C327.572 226.246 325.775 229.345 325.775 231.889C325.775 233.013 326.107 233.83 326.681 234.295C327.399 234.646 328.35 234.567 329.394 233.953C331.602 232.681 333.399 229.573 333.399 227.023C333.399 225.91 333.067 225.083 332.483 224.618C331.77 224.271 330.825 224.355 329.77 224.969Z" fill="#FFEC7A"/>
<path d="M207.191 207.927L200.657 204.155C196.9 201.982 193.949 196.883 193.949 192.552V156.446H198.8V192.557C198.8 195.185 200.8 198.64 203.077 199.962L209.611 203.734L207.191 207.927Z" fill="#383838"/>
<path d="M198.081 157.435C197.136 157.984 195.601 157.984 194.656 157.44C193.701 156.89 193.701 155.999 194.656 155.46C195.601 154.915 197.136 154.915 198.081 155.46C199.027 155.999 199.027 156.89 198.081 157.435Z" fill="#666666"/>
<path d="M198.079 160.231C197.134 160.776 195.599 160.776 194.654 160.231C193.699 159.692 193.699 158.801 194.654 158.256C195.599 157.712 197.134 157.712 198.079 158.256C199.025 158.801 199.025 159.692 198.079 160.231Z" fill="#050505"/>
<path d="M201.152 155.644L199.533 152.58L193.252 152.521L191.494 155.802H191.504C190.94 156.822 191.351 157.985 192.752 158.792C194.752 159.941 197.999 159.941 199.999 158.792C201.469 157.941 201.855 156.698 201.142 155.639L201.152 155.644Z" fill="#383838"/>
<path d="M198.694 151.772C197.417 151.03 195.323 151.03 194.036 151.772C192.759 152.515 192.759 153.718 194.036 154.465C195.328 155.203 197.422 155.203 198.694 154.465C199.981 153.723 199.981 152.52 198.694 151.772Z" fill="#808080"/>
<path d="M198.244 152.054C197.209 151.465 195.541 151.465 194.506 152.054C193.907 152.395 193.66 152.87 193.754 153.316C193.818 152.989 194.071 152.672 194.506 152.42C195.541 151.821 197.209 151.821 198.244 152.42C198.674 152.672 198.922 152.984 198.996 153.316C199.09 152.87 198.833 152.395 198.244 152.054Z" fill="#383838"/>
<path d="M198.244 152.421C197.209 151.822 195.541 151.822 194.506 152.421C194.071 152.673 193.813 152.985 193.754 153.317C193.818 153.639 194.071 153.96 194.506 154.213C195.541 154.807 197.209 154.807 198.244 154.213C198.674 153.96 198.922 153.644 198.996 153.317C198.917 152.985 198.674 152.673 198.244 152.421Z" fill="#666666"/>
<path d="M207.47 195.942L229.815 208.808L222.108 222.138L199.773 209.283C198.773 208.709 198.174 207.491 198.174 205.748C198.174 202.288 200.609 198.056 203.614 196.324C205.109 195.457 206.48 195.378 207.47 195.942Z" fill="#666666"/>
<path d="M222.404 207.125C219.394 208.857 216.954 213.08 216.954 216.555C216.954 218.292 217.568 219.51 218.543 220.069L217.899 219.708C216.924 219.133 216.311 217.916 216.311 216.173C216.311 212.713 218.746 208.481 221.761 206.748C223.26 205.882 224.617 205.808 225.607 206.382L226.25 206.748C225.26 206.174 223.904 206.253 222.404 207.125Z" fill="#383838"/>
<path d="M206.955 198.209C203.955 199.952 201.515 204.174 201.515 207.644C201.515 209.377 202.114 210.604 203.104 211.164L202.47 210.797C201.48 210.228 200.871 209.011 200.871 207.268C200.871 203.803 203.302 199.581 206.321 197.843C207.821 196.972 209.187 196.898 210.163 197.462L210.796 197.828C209.826 197.269 208.47 197.348 206.955 198.209Z" fill="#383838"/>
<path d="M225.956 209.183C222.956 210.915 220.516 215.138 220.516 218.603C220.516 222.078 222.951 223.488 225.956 221.751C228.965 220.008 231.406 215.796 231.406 212.326C231.406 208.856 228.97 207.45 225.956 209.183Z" fill="#383838"/>
<path d="M215.3 103.723V88.4268C215.3 86.0557 214.112 84.6844 212.374 84.6844C211.671 84.6844 207.112 83.2242 206.285 83.7043L153.572 108.643C150.681 110.316 143.617 122.37 143.617 125.696L150.577 141.081L215.3 103.723Z" fill="#5D6E52"/>
<path d="M69.6666 1.89848C69.6666 1.89848 68.3399 1.09161 67.736 0.799554C67.0331 0.552049 66.6372 0.591689 66.6372 0.591689C65.9392 0.591689 65.1472 0.814394 64.3106 1.2995L10.0821 32.5941C7.19618 34.2623 4.83008 38.3461 4.83008 41.6775V56.9882L150.571 141.086V125.775C150.571 122.448 152.927 118.36 155.818 116.696L210.047 85.4018C210.883 84.9167 211.67 84.6841 212.373 84.6841C213.175 84.7138 213.7 85.0108 213.7 85.0108C213.7 85.0108 70.028 2.19054 69.6666 1.89848Z" fill="#9CB88A"/>
<path d="M10.0919 32.5933C7.20602 34.2614 4.83984 38.3452 4.83984 41.6767V56.9874L150.581 141.085V125.774C150.581 122.448 152.937 118.359 155.828 116.696L10.0919 32.5933Z" fill="#8AA37B"/>
</svg>
