<svg width="25" height="24" viewBox="0 0 25 24" fill="none" xmlns="http://www.w3.org/2000/svg">
<g clip-path="url(#clip0_346_237)">
<path d="M8.13629 0.0189581C7.87066 -0.0560873 7.59447 0.0983628 7.51929 0.363951L1.01945 23.3635C0.944401 23.6292 1.09885 23.9053 1.36444 23.9805C1.40869 23.9932 1.45444 23.9997 1.50042 24C1.60935 24 1.71529 23.9643 1.80211 23.8985C1.88893 23.8327 1.95188 23.7404 1.9814 23.6355L8.48129 0.635962C8.55633 0.370326 8.40188 0.0941441 8.13629 0.0189581ZM23.981 23.364L17.4811 0.364467C17.406 0.0986909 17.1296 -0.0558998 16.8639 0.0192393C16.5981 0.0943316 16.4435 0.370701 16.5186 0.636477L23.0185 23.636C23.0364 23.6992 23.0666 23.7583 23.1073 23.8098C23.148 23.8614 23.1984 23.9044 23.2558 23.9364C23.3131 23.9685 23.3762 23.9889 23.4415 23.9966C23.5067 24.0042 23.5728 23.9989 23.636 23.981C23.9016 23.9059 24.056 23.6297 23.981 23.364ZM12.5002 19.0001C12.2241 19.0001 12.0002 19.224 12.0002 19.5001V23.5C12.0002 23.7761 12.2241 24 12.5002 24C12.7764 24 13.0002 23.7761 13.0002 23.5V19.5001C13.0002 19.224 12.7764 19.0001 12.5002 19.0001ZM12.5002 11.0002C12.2241 11.0002 12.0002 11.2241 12.0002 11.5002V15.5002C12.0002 15.7763 12.2241 16.0002 12.5002 16.0002C12.7764 16.0002 13.0002 15.7763 13.0002 15.5002V11.5002C13.0002 11.2241 12.7764 11.0002 12.5002 11.0002ZM12.5002 4.0004C12.2241 4.0004 12.0002 4.22427 12.0002 4.5004V7.50034C12.0002 7.77648 12.2241 8.00035 12.5002 8.00035C12.7764 8.00035 13.0002 7.77648 13.0002 7.50034V4.5004C13.0002 4.22427 12.7764 4.0004 12.5002 4.0004ZM12.5002 0.00048968C12.2241 0.00048968 12.0002 0.22436 12.0002 0.500495V1.50046C12.0002 1.7766 12.2241 2.00047 12.5002 2.00047C12.7764 2.00047 13.0002 1.7766 13.0002 1.50046V0.500449C13.0002 0.224313 12.7764 0.00048968 12.5002 0.00048968Z" fill="black"/>
</g>
<defs>
<clipPath id="clip0_346_237">
<rect width="24" height="24" fill="white" transform="translate(0.5)"/>
</clipPath>
</defs>
</svg>
