<svg width="139" height="475" viewBox="0 0 139 475" fill="none" xmlns="http://www.w3.org/2000/svg">
<path d="M97.5463 29.0509C89.9729 21.1165 81.6926 14.3674 73.0163 9.34439C54.8165 -1.19371 38.3443 -2.11845 26.4884 4.90949C24.5032 6.08563 18.9531 9.15701 18.9531 9.15701L87.9085 34.3375L111.179 169.182C111.179 169.182 116.535 166.188 119.014 164.769C130.873 157.984 138.23 143.369 138.27 122.546C138.329 90.9785 121.465 54.1096 97.5463 29.0509Z" fill="#C9C8C3"/>
<path d="M66.4153 407.411C66.4214 407.487 66.426 407.563 66.4382 407.633C66.4488 407.721 66.4793 407.808 66.5022 407.897C66.5189 407.967 66.5311 408.043 66.5555 408.119C66.5844 408.201 66.6317 408.288 66.6667 408.376C66.6956 408.446 66.72 408.517 66.7612 408.588C66.8084 408.683 66.8602 408.763 66.9196 408.852C66.9608 408.916 66.9958 408.987 67.043 409.057C67.1024 409.144 67.1847 409.234 67.2548 409.321C67.3081 409.38 67.3492 409.444 67.4071 409.502C67.4894 409.595 67.5823 409.684 67.6768 409.772C67.7362 409.825 67.7819 409.883 67.8459 409.937C67.9526 410.029 68.0683 410.118 68.1872 410.206C68.2512 410.253 68.3045 410.299 68.3685 410.346C68.5559 410.476 68.7554 410.604 68.9718 410.727C72.3844 412.697 77.8904 412.697 81.2787 410.727C81.4904 410.604 81.69 410.48 81.8774 410.346C81.9353 410.305 81.9886 410.259 82.048 410.212C82.1653 410.124 82.2887 410.036 82.3939 409.943C82.4578 409.885 82.5112 409.825 82.5691 409.766C82.6575 409.684 82.7503 409.595 82.8265 409.514C82.8844 409.45 82.9256 409.386 82.9789 409.321C83.049 409.234 83.1206 409.15 83.1846 409.068C83.2318 408.998 83.2607 408.934 83.3019 408.862C83.3537 408.78 83.4131 408.693 83.4603 408.605C83.4954 408.535 83.5197 408.463 83.5487 408.393C83.5837 408.311 83.6309 408.224 83.6599 408.136C83.6827 408.06 83.6949 407.989 83.7132 407.918C83.7361 407.831 83.7604 407.741 83.7787 407.654C83.7894 407.584 83.7894 407.508 83.7955 407.432C83.9189 406.055 83.0749 404.647 81.2451 403.597C77.8325 401.621 72.3159 401.621 68.9261 403.597C67.238 404.577 66.394 405.86 66.3986 407.15C66.397 407.235 66.4092 407.322 66.4153 407.411Z" fill="#EBEBEB"/>
<path d="M83.7963 407.434C83.7902 407.51 83.7902 407.586 83.7796 407.656C83.7613 407.743 83.7384 407.833 83.714 407.92C83.6973 407.99 83.6851 408.061 83.6607 408.138C83.6318 408.226 83.5845 408.313 83.5495 408.395C83.5206 408.465 83.4962 408.537 83.4611 408.607C83.4139 408.695 83.356 408.782 83.3027 408.864C83.2615 408.936 83.2311 409 83.1854 409.07C83.1214 409.152 83.0513 409.235 82.9797 409.323C82.9279 409.387 82.8853 409.452 82.8274 409.516C82.7512 409.599 82.6567 409.687 82.5699 409.768C82.5105 409.827 82.4586 409.885 82.3946 409.944C82.2895 410.039 82.1661 410.126 82.0488 410.214C81.9894 410.261 81.9376 410.307 81.8782 410.348C81.6908 410.484 81.4912 410.606 81.2794 410.729C77.8912 412.699 72.3852 412.699 68.9726 410.729C68.7562 410.606 68.5566 410.478 68.3693 410.348C68.3053 410.301 68.252 410.255 68.188 410.208C68.0707 410.12 67.9534 410.031 67.8467 409.938C67.7827 409.885 67.7355 409.827 67.6776 409.774C67.5832 409.685 67.4902 409.597 67.408 409.504C67.3485 409.445 67.3089 409.381 67.2556 409.323C67.1855 409.236 67.1032 409.146 67.0438 409.059C66.9966 408.989 66.9616 408.918 66.9204 408.854C66.8625 408.765 66.8092 408.683 66.762 408.59C66.7208 408.519 66.6964 408.448 66.6675 408.378C66.6325 408.29 66.5852 408.203 66.5563 408.121C66.5334 408.045 66.5212 407.969 66.503 407.898C66.4801 407.812 66.4496 407.723 66.439 407.635C66.4268 407.565 66.4207 407.489 66.4161 407.412C66.4101 407.324 66.3978 407.236 66.3978 407.153V407.137L66.375 469.69C66.375 470.991 67.2312 472.294 68.9497 473.284C72.3624 475.254 77.8744 475.254 81.2627 473.284C82.9523 472.305 83.7963 471.02 83.7963 469.738L83.8192 407.19C83.8207 407.269 83.8024 407.352 83.7963 407.434Z" fill="#C9C8C3"/>
<path d="M80.8621 153.78C80.8621 153.78 80.8544 153.788 80.8544 153.794C80.7859 154.001 80.6823 154.201 80.5452 154.401C80.5375 154.401 80.5375 154.408 80.5375 154.408C80.3928 154.608 80.2207 154.801 80.0135 154.987H80.0058C79.7925 155.173 79.5503 155.353 79.2684 155.511C76.9999 156.835 73.3055 156.835 71.0172 155.511C70.8724 155.435 70.7414 155.347 70.618 155.257C70.5769 155.229 70.5494 155.202 70.5083 155.175C70.426 155.112 70.3422 155.05 70.2676 154.981C70.2188 154.94 70.1777 154.891 70.1305 154.85C70.0756 154.801 70.0193 154.746 69.972 154.698C69.9309 154.649 69.8959 154.6 69.8623 154.561C69.8212 154.506 69.7725 154.449 69.7313 154.394C69.6963 154.347 69.6765 154.299 69.649 154.25C69.6079 154.195 69.5744 154.14 69.5454 154.085C69.518 154.036 69.5043 153.982 69.4769 153.933C69.4571 153.878 69.4297 153.823 69.4083 153.767C69.3946 153.71 69.3809 153.663 69.3733 153.608C69.3596 153.553 69.3398 153.499 69.3321 153.442C69.3184 153.394 69.3184 153.339 69.3184 153.29C69.3123 153.235 69.3047 153.173 69.3047 153.118V153.11L69.2423 406.638C69.2346 407.507 69.8136 408.375 70.9593 409.044C73.2476 410.36 76.9421 410.36 79.2106 409.044C80.341 408.389 80.9062 407.527 80.9062 406.666L80.9687 153.138V153.151C80.9656 153.366 80.9306 153.573 80.8621 153.78Z" fill="#C9C8C3"/>
<path d="M69.3058 153.291C69.3058 153.34 69.3059 153.395 69.3196 153.444C69.3257 153.498 69.347 153.553 69.3607 153.61C69.3683 153.665 69.382 153.713 69.3957 153.768C69.417 153.823 69.4445 153.878 69.4643 153.934C69.4917 153.981 69.5054 154.038 69.5328 154.087C69.5603 154.141 69.5938 154.196 69.6365 154.251C69.6639 154.298 69.6852 154.347 69.7187 154.396C69.7598 154.451 69.8086 154.506 69.8497 154.562C69.8848 154.603 69.9183 154.652 69.9594 154.699C70.0066 154.746 70.063 154.803 70.1179 154.851C70.1651 154.892 70.2077 154.941 70.255 154.982C70.3311 155.051 70.4134 155.113 70.4957 155.176C70.5368 155.203 70.5643 155.231 70.6054 155.258C70.7303 155.348 70.8598 155.438 71.0045 155.513C73.2944 156.837 76.9889 156.837 79.2559 155.513C79.5377 155.354 79.7799 155.176 79.9932 154.996L80.0008 154.99C80.208 154.804 80.3802 154.611 80.5249 154.417C80.5249 154.417 80.5249 154.403 80.5325 154.403C80.6697 154.204 80.7733 154.004 80.8418 153.797C80.8418 153.79 80.8418 153.783 80.8418 153.783C80.918 153.576 80.9516 153.371 80.9516 153.156C80.9592 152.281 80.3863 151.405 79.2284 150.736C76.9462 149.419 73.2593 149.419 70.9847 150.743C69.8543 151.398 69.2891 152.26 69.2891 153.121C69.2921 153.174 69.2998 153.236 69.3058 153.291Z" fill="#EBEBEB"/>
<path d="M65.5583 13.5463C29.503 -7.3303 0.230387 9.52421 0.195347 51.1814C0.158783 92.8082 29.3827 143.46 65.4806 164.332C101.483 185.15 130.734 168.321 130.812 126.747C130.888 85.1877 101.633 34.4351 65.5583 13.5463Z" fill="#F0F0F0"/>
<path d="M66.4441 153.75C67.9798 154.484 70.7038 156.006 73.3639 157.015C79.9698 159.521 86.1598 160.397 92.1335 160.069C96.7131 159.82 100.731 158.42 104.346 156.293C109.785 153.095 114.258 148.386 116.994 141.278C120.635 131.821 121.597 120.585 119.56 107.329C117.536 94.164 112.599 81.1579 105.626 68.3939C100.301 58.6465 93.9297 49.8955 86.8728 42.3542C78.1142 32.9938 68.9457 25.9247 59.3689 21.9133C52.7752 19.1511 46.5958 17.7008 40.5673 17.713C31.9915 17.7297 25.0154 20.8849 19.5536 26.8403C10.827 36.3531 8.14712 51.2134 10.9458 70.3532C12.9264 83.8987 18.1565 97.3391 25.4755 110.464C30.6584 119.757 36.8332 128.051 43.5367 135.399C50.4016 142.924 57.7403 148.721 66.4441 153.75Z" fill="#F0F0F0"/>
<path d="M66.4435 153.75C57.7397 148.721 50.4009 142.924 43.536 135.398C36.8326 128.051 30.6578 119.758 25.4748 110.463C18.1559 97.3391 12.9242 83.8972 10.9452 70.3517C8.148 51.2119 10.8263 36.3531 19.553 26.8388C25.0147 20.885 31.9893 17.7298 40.5667 17.7115C46.5967 17.6993 52.7745 19.1497 59.3683 21.9118C68.945 25.9232 78.1135 32.9938 86.8722 42.3527C93.929 49.8941 100.299 58.6451 105.625 68.3925C112.598 81.1565 117.536 94.1626 119.559 107.327C121.596 120.583 120.635 131.818 116.993 141.277C114.257 148.383 109.784 153.092 104.345 156.291C100.73 158.416 96.7125 159.817 92.1328 160.068C86.1592 160.394 79.9691 159.518 73.3632 157.013C70.7017 156.006 67.9792 154.484 66.4435 153.75ZM24.8426 80.8807C51.6243 96.2026 78.1394 111.374 104.703 126.571C104.703 117.538 104.703 108.688 104.703 99.8179C77.9901 84.534 51.4186 69.3325 24.8426 54.1279C24.8426 63.144 24.8426 71.9286 24.8426 80.8807Z" fill="#ED1C24"/>
<path d="M24.8438 80.8807C24.8438 71.9286 24.8438 63.144 24.8438 54.1279C51.4213 69.3325 77.9913 84.5356 104.704 99.8179C104.704 108.686 104.704 117.536 104.704 126.571C78.1421 111.372 51.6255 96.2026 24.8438 80.8807Z" fill="#F0F0F0"/>
</svg>
