<svg width="137" height="485" viewBox="0 0 137 485" fill="none" xmlns="http://www.w3.org/2000/svg">
<path d="M65.6043 417.035C65.6103 417.112 65.6164 417.188 65.6271 417.258C65.6378 417.346 65.6682 417.435 65.6911 417.521C65.7078 417.591 65.72 417.668 65.7444 417.744C65.7734 417.826 65.8206 417.914 65.8556 418.003C65.8846 418.073 65.9089 418.143 65.9501 418.215C65.9973 418.309 66.0506 418.39 66.1085 418.478C66.1497 418.542 66.1847 418.614 66.2319 418.684C66.2913 418.772 66.3736 418.861 66.4437 418.947C66.497 419.007 66.5382 419.071 66.5961 419.129C66.6783 419.222 66.7712 419.31 66.8657 419.398C66.9236 419.452 66.9708 419.51 67.0348 419.563C67.1399 419.656 67.2572 419.744 67.3745 419.833C67.4385 419.88 67.4919 419.927 67.5558 419.973C67.7432 420.102 67.9428 420.23 68.1592 420.354C71.5718 422.324 77.0778 422.324 80.466 420.354C80.6778 420.23 80.8774 420.107 81.0648 419.973C81.1227 419.932 81.176 419.884 81.2339 419.839C81.3512 419.75 81.4746 419.663 81.5797 419.569C81.6437 419.511 81.6971 419.452 81.7549 419.392C81.8418 419.31 81.9362 419.222 82.0124 419.141C82.0703 419.077 82.1114 419.013 82.1648 418.947C82.2348 418.859 82.3064 418.777 82.3704 418.694C82.4177 418.624 82.4466 418.56 82.4878 418.489C82.5396 418.407 82.599 418.318 82.6462 418.231C82.6812 418.161 82.7056 418.09 82.7345 418.02C82.7696 417.937 82.8153 417.849 82.8458 417.762C82.8686 417.686 82.8808 417.614 82.8991 417.544C82.9219 417.457 82.9463 417.369 82.9646 417.281C82.9768 417.211 82.9768 417.134 82.9829 417.058C83.1063 415.679 82.2623 414.273 80.4325 413.224C77.0199 411.248 71.5033 411.248 68.1134 413.224C66.4254 414.203 65.5814 415.486 65.586 416.776C65.586 416.859 65.5982 416.947 65.6043 417.035Z" fill="#EBEBEB"/>
<path d="M82.9823 417.058C82.9762 417.135 82.9762 417.211 82.964 417.281C82.9457 417.369 82.9229 417.458 82.8985 417.544C82.8817 417.614 82.8696 417.686 82.8452 417.762C82.8162 417.849 82.769 417.937 82.7339 418.02C82.705 418.09 82.6806 418.161 82.6456 418.231C82.5983 418.32 82.5405 418.408 82.4872 418.489C82.446 418.561 82.4155 418.625 82.3698 418.695C82.3058 418.777 82.2358 418.859 82.1642 418.948C82.1124 419.012 82.0712 419.077 82.0118 419.141C81.9356 419.223 81.8412 419.312 81.7543 419.392C81.6949 419.452 81.6431 419.51 81.5791 419.569C81.474 419.664 81.3506 419.75 81.2333 419.839C81.1739 419.886 81.1221 419.932 81.0642 419.973C80.8768 420.108 80.6772 420.23 80.4654 420.354C77.0772 422.324 71.5712 422.324 68.1585 420.354C67.9422 420.23 67.7426 420.102 67.5552 419.973C67.4897 419.926 67.4379 419.878 67.3739 419.833C67.2566 419.744 67.1393 419.657 67.0342 419.563C66.9702 419.51 66.923 419.452 66.8651 419.398C66.7706 419.31 66.6777 419.222 66.5955 419.129C66.536 419.069 66.4949 419.005 66.4431 418.948C66.373 418.859 66.2907 418.771 66.2313 418.684C66.1841 418.614 66.1491 418.542 66.1079 418.478C66.05 418.39 65.9967 418.309 65.9495 418.215C65.9083 418.145 65.8855 418.073 65.855 418.003C65.82 417.915 65.7727 417.826 65.7438 417.744C65.7209 417.668 65.7088 417.592 65.6905 417.522C65.6676 417.435 65.6372 417.346 65.6265 417.258C65.6143 417.188 65.6082 417.112 65.6036 417.036C65.5976 416.947 65.5854 416.859 65.5854 416.778V416.76L65.5625 479.313C65.5625 480.614 66.4187 481.917 68.1357 482.907C71.5484 484.877 77.0604 484.877 80.4487 482.907C82.1382 481.928 82.9823 480.643 82.9823 479.361L83.0051 416.813C83.0051 416.894 82.9884 416.976 82.9823 417.058Z" fill="#C9C8C3"/>
<path d="M80.0448 163.405C80.0448 163.405 80.0372 163.413 80.0372 163.419C79.9686 163.626 79.865 163.826 79.7279 164.025C79.7203 164.025 79.7203 164.033 79.7203 164.033C79.5755 164.232 79.4034 164.426 79.1962 164.612H79.1886C78.9753 164.798 78.733 164.977 78.4512 165.136C76.1827 166.46 72.4882 166.46 70.1999 165.136C70.0551 165.06 69.9241 164.971 69.8007 164.881C69.7596 164.854 69.7306 164.826 69.691 164.799C69.6087 164.737 69.525 164.676 69.4488 164.606C69.4016 164.564 69.3589 164.516 69.3117 164.475C69.2568 164.426 69.2005 164.371 69.1532 164.322C69.1121 164.273 69.077 164.225 69.0435 164.185C69.0024 164.13 68.9536 164.074 68.9125 164.019C68.8775 163.972 68.8577 163.923 68.8302 163.874C68.7891 163.819 68.7541 163.765 68.7266 163.71C68.6992 163.661 68.6855 163.606 68.6581 163.557C68.6383 163.503 68.6093 163.448 68.588 163.393C68.5743 163.336 68.5606 163.289 68.553 163.234C68.5393 163.18 68.5194 163.125 68.5118 163.068C68.4981 163.02 68.4981 162.965 68.4981 162.916C68.492 162.861 68.4844 162.799 68.4844 162.744V162.736L68.4219 416.264C68.4143 417.133 68.9933 418.001 70.1389 418.67C72.4272 419.986 76.1218 419.986 78.3903 418.67C79.5207 418.015 80.0859 417.153 80.0859 416.292L80.1484 162.764V162.777C80.1468 162.991 80.1133 163.198 80.0448 163.405Z" fill="#C9C8C3"/>
<path d="M68.4903 162.914C68.4903 162.963 68.4903 163.018 68.504 163.067C68.5116 163.122 68.5314 163.177 68.5451 163.233C68.5527 163.288 68.5664 163.336 68.5802 163.391C68.6015 163.446 68.6289 163.501 68.6502 163.556C68.6777 163.605 68.6914 163.659 68.7188 163.708C68.7462 163.763 68.7797 163.818 68.8224 163.873C68.8498 163.92 68.8696 163.969 68.9047 164.017C68.9458 164.072 68.9945 164.127 69.0357 164.184C69.0707 164.225 69.1042 164.273 69.1454 164.321C69.1926 164.368 69.249 164.424 69.3038 164.473C69.3526 164.514 69.3937 164.563 69.4409 164.604C69.5171 164.673 69.5994 164.735 69.6832 164.798C69.7243 164.825 69.7517 164.852 69.7929 164.88C69.9163 164.97 70.0473 165.06 70.192 165.134C72.4818 166.458 76.1748 166.458 78.4433 165.134C78.7252 164.976 78.9674 164.798 79.1807 164.618L79.1883 164.61C79.3955 164.424 79.5677 164.231 79.7124 164.037C79.7124 164.037 79.7124 164.024 79.72 164.024C79.8571 163.824 79.9607 163.624 80.0293 163.417C80.0293 163.41 80.0293 163.404 80.0293 163.404C80.1055 163.196 80.139 162.989 80.139 162.776C80.1466 161.9 79.5738 161.025 78.4159 160.357C76.1337 159.039 72.4468 159.039 70.1722 160.363C69.0418 161.018 68.4766 161.88 68.4766 162.741C68.4766 162.797 68.4842 162.86 68.4903 162.914Z" fill="#EBEBEB"/>
<path d="M98.0684 31.2273L43.9824 0L38.7735 2.76821L38.9761 2.884L16.1875 16.0121V78.4652L54.4336 144.709L108.52 175.936L136.314 159.924V97.4709L98.0684 31.2273Z" fill="#C9C8C3"/>
<path d="M38.768 153.545L0.523438 87.3015V24.8484L38.768 2.76819L92.8556 33.994L131.102 100.238V162.691L92.8556 184.771L38.768 153.545Z" fill="#EFEEE8"/>
<path d="M125.923 101.231C125.917 100.324 125.688 99.5566 125.132 98.5968C113.745 78.9115 102.377 59.2172 91.0191 39.5167C90.4981 38.6133 89.9862 38.0541 89.2381 37.6215C73.3007 28.4103 57.3648 19.1748 41.429 9.91193C40.6017 9.4305 40.0319 9.39851 39.4606 9.73977C28.3329 16.3731 17.193 22.9821 6.0364 29.5652C5.50774 29.876 5.3173 30.3726 5.32035 31.2258C5.34472 40.5024 5.33558 49.7592 5.33558 59.0222C5.47878 59.1044 5.62048 59.1867 5.76369 59.269C5.76369 68.6142 5.7515 77.9533 5.79263 87.3228C5.79568 87.9353 6.08361 88.8631 6.46144 89.5182C17.8588 109.313 29.282 129.094 40.7266 148.863C41.1045 149.515 41.7672 150.224 42.2974 150.533C58.3064 159.851 74.3139 169.129 90.3214 178.366C90.8866 178.692 91.6026 178.782 91.9972 178.55C103.242 171.944 114.458 165.29 125.651 158.597C126.026 158.373 126.308 157.767 126.304 157.153C126.198 138.523 126.045 119.868 125.923 101.231Z" fill="#ED1C24"/>
<path d="M87.8343 84.9537C80.7043 76.9812 73.6231 76.1737 70.1754 82.6806C66.5692 89.4861 66.848 98.8983 70.5547 109.855C73.9765 119.967 82.1532 126.765 88.1223 126.689C91.5883 126.644 93.7075 124.384 95.1792 121.207C96.4711 118.416 96.7925 114.846 96.9662 111.102C96.6463 108.129 96.5275 105.216 95.9622 102.171C94.8227 96.0448 92.3531 90.0071 87.8343 84.9537ZM89.4523 114.571C88.8459 116.099 87.9364 117.362 86.9583 118.465C84.9534 120.726 79.5754 117.912 77.1378 112.957C74.9668 108.547 74.0893 104.391 73.9476 100.361C73.9171 99.5138 73.943 98.6987 73.943 97.8669C73.812 94.4314 74.1593 91.3478 75.2715 88.8676C76.4964 86.1374 78.5364 85.0146 81.946 86.8047C85.3769 88.6055 87.9989 92.2604 89.2146 97.259C89.7768 99.5717 90.0678 101.871 90.211 104.046C90.4639 107.876 90.5934 111.697 89.4523 114.571Z" fill="#F0F0F0"/>
<path d="M25.2242 66.1628C23.3015 64.2721 21.3484 62.3921 19.5461 60.2775C17.9113 58.3594 17.3933 56.1518 17.7072 54.2916C18.0271 52.4009 19.2368 51.8433 20.9797 52.3065C25.1998 53.4293 28.9278 56.7246 32.0479 61.5953C33.3704 60.8762 34.6669 60.1693 36.0472 59.4167C35.3951 58.4035 34.7324 57.2548 33.9721 56.2112C29.7017 50.3533 24.9545 46.6847 19.9726 45.0698C12.7299 42.7206 9.85502 47.9218 12.2454 56.8648C13.321 60.8914 15.7662 64.4747 18.6411 67.3724C21.5297 70.2823 24.5401 72.8845 27.4911 75.639C29.2706 77.2996 30.5016 79.3853 30.59 81.5852C30.692 84.1203 30.4132 86.4452 28.195 86.5518C25.8001 86.6646 23.2756 85.103 20.7512 82.8665C18.0835 80.5035 15.6337 77.7399 13.6409 74.2054C12.1921 74.9199 10.7981 75.6085 9.25781 76.3672C9.96167 77.4733 10.53 78.4316 11.1546 79.3365C14.613 84.3458 18.5421 88.1927 22.8429 90.9655C27.1133 93.7184 30.9998 95.117 34.1245 92.9978C39.0165 89.6781 37.3741 78.5016 30.756 71.3914C28.9872 69.4901 27.0493 67.9575 25.2242 66.1628Z" fill="#F0F0F0"/>
<path d="M112.993 98.2204C109.295 96.284 105.584 94.0079 101.881 91.8826C101.459 91.6404 101.036 91.3966 100.517 91.095C100.517 91.715 100.514 92.163 100.517 92.6154C100.607 106.164 100.695 119.713 100.784 133.263C100.787 133.554 100.73 133.843 100.819 134.146C100.905 134.448 101.136 134.945 101.309 135.05C102.913 136.023 104.519 136.931 106.258 137.935C106.258 132.391 106.258 127.015 106.258 121.404C108.867 122.91 111.343 124.399 113.816 125.752C116.666 127.31 119.072 127.484 121.101 126.236C124.803 123.96 124.892 115.671 122.44 109.676C120.239 104.29 117.277 100.466 112.993 98.2204ZM116.104 119.447C115.517 119.708 114.667 119.763 113.916 119.371C111.373 118.049 108.823 116.486 106.154 114.945C106.154 110.079 106.154 105.358 106.154 100.396C107.508 101.178 108.825 101.944 110.141 102.695C110.932 103.146 111.728 103.635 112.515 104.002C115.914 105.591 117.541 108.446 118.267 112.543C118.881 116.015 118.234 118.5 116.104 119.447Z" fill="#F0F0F0"/>
<path d="M40.7203 63.7847C43.9074 65.6251 47.023 67.4228 50.294 69.312C50.1736 81.6311 50.0548 93.6972 49.936 105.833C51.7901 106.905 53.4552 107.864 55.1997 108.871C55.3322 96.7519 55.4648 84.7268 55.5973 72.586C56.1244 72.8907 56.5114 73.1086 56.8984 73.3371C59.4868 74.8804 62.0752 76.445 64.6622 77.9411C64.9867 78.1285 65.5869 78.1178 65.5961 77.9076C65.6692 76.0169 65.6387 74.0623 65.6387 71.9933C57.2579 66.9962 49.0158 62.0829 40.7188 57.1361C40.7203 59.4412 40.7203 61.5329 40.7203 63.7847Z" fill="#F0F0F0"/>
</svg>
