<svg width="533" height="421" viewBox="0 0 533 421" fill="none" xmlns="http://www.w3.org/2000/svg">
<path fill-rule="evenodd" clip-rule="evenodd" d="M422.117 117.54V2.86914H411.039V117.539C411.039 119.125 413.518 120.409 416.578 120.409C419.637 120.41 422.117 119.126 422.117 117.54Z" fill="#763A20"/>
<path fill-rule="evenodd" clip-rule="evenodd" d="M411.039 2.86914V115.946C411.039 117.531 413.518 118.816 416.578 118.816C417.258 118.816 417.907 118.753 418.508 118.637C418.778 118.299 418.928 117.928 418.928 117.539V2.86914H411.039Z" fill="#8A4526"/>
<path fill-rule="evenodd" clip-rule="evenodd" d="M416.578 5.7411C419.637 5.7411 422.117 4.45574 422.117 2.87055C422.117 1.28536 419.637 0 416.578 0C413.519 0 411.039 1.28536 411.039 2.87055C411.039 4.45495 413.519 5.7411 416.578 5.7411Z" fill="#BE7147"/>
<path fill-rule="evenodd" clip-rule="evenodd" d="M90.6161 277.105V167.625L84.875 170.215V277.104C84.875 278.69 86.1596 279.975 87.7456 279.975C89.3316 279.976 90.6161 278.69 90.6161 277.105Z" fill="#8A4526"/>
<path fill-rule="evenodd" clip-rule="evenodd" d="M331.5 134.851V26.0928H337.241V134.851C337.241 136.437 335.956 137.721 334.371 137.721C332.786 137.721 331.5 136.437 331.5 134.851Z" fill="#8A4526"/>
<path fill-rule="evenodd" clip-rule="evenodd" d="M172.82 211.864V104.259H167.078V211.864C167.078 213.45 168.363 214.735 169.949 214.735C171.535 214.735 172.82 213.45 172.82 211.864Z" fill="#8A4526"/>
<path fill-rule="evenodd" clip-rule="evenodd" d="M249.289 164.535V56.6406H255.031V164.535C255.031 166.12 253.746 167.405 252.16 167.405C250.574 167.405 249.289 166.12 249.289 164.535Z" fill="#8A4526"/>
<path fill-rule="evenodd" clip-rule="evenodd" d="M416.039 9.84863C407.54 10.4081 399.049 11.2326 390.565 12.3223C381.903 13.4372 373.247 14.8259 364.598 16.4932C355.95 18.1612 347.309 20.1046 338.675 22.3226C330.041 24.5422 321.414 27.0364 312.794 29.806C304.174 32.5747 295.562 35.6196 286.957 38.9384C278.352 42.2571 269.753 45.8496 261.161 49.7167C252.57 53.5839 243.986 57.7232 235.409 62.1371C226.832 66.5494 218.261 71.2372 209.699 76.1947C201.136 81.1523 192.579 86.3837 184.031 91.8849C175.481 97.3869 166.939 103.162 158.406 109.205C149.87 115.249 141.343 121.566 132.823 128.153C124.303 134.738 115.788 141.596 107.282 148.721C98.775 155.846 90.2755 163.241 81.7838 170.905C73.2913 178.569 64.8042 186.503 56.3275 194.704C47.8484 202.906 39.3773 211.376 30.9124 220.112C22.4483 228.849 13.9897 237.854 5.53906 247.124V252.314C132.399 109.608 289.653 19.1183 416.098 16.0284C416.25 16.045 416.409 16.0411 416.575 16.0127C418.067 15.7649 419.052 13.7323 419.052 12.1377C419.052 10.5422 418.226 9.91412 416.575 9.81391C416.385 9.80208 416.207 9.8147 416.039 9.84863Z" fill="#8A4526"/>
<path fill-rule="evenodd" clip-rule="evenodd" d="M416.038 9.84842C407.54 10.4078 399.049 11.2332 390.564 12.3229C381.902 13.437 373.246 14.8265 364.597 16.493C355.949 18.161 347.309 20.1044 338.674 22.3224C330.04 24.542 321.412 27.0354 312.793 29.8058C304.174 32.5745 295.561 35.6194 286.956 38.9382C278.351 42.2561 269.752 45.8494 261.161 49.7165C252.57 53.5836 243.985 57.7238 235.408 62.1369C226.831 66.5492 218.26 71.237 209.698 76.1937C201.135 81.1513 192.578 86.3827 184.031 91.8839C175.48 97.3859 166.938 103.161 158.406 109.205C149.87 115.249 141.342 121.566 132.822 128.152C124.302 134.737 115.788 141.595 107.282 148.719C98.775 155.845 90.2755 163.24 81.7838 170.904C73.2913 178.568 64.805 186.502 56.3275 194.703C47.8484 202.904 39.3773 211.374 30.9132 220.11C22.4483 228.847 13.9897 237.853 5.53906 247.122V249.301C132.399 106.594 289.654 16.104 416.098 13.0149C416.25 13.0306 416.409 13.0267 416.575 12.9991C417.569 12.8334 418.338 11.8763 418.74 10.7842C418.362 10.1617 417.642 9.87682 416.575 9.81133C416.385 9.80265 416.207 9.81449 416.038 9.84842Z" fill="#A86342"/>
<path fill-rule="evenodd" clip-rule="evenodd" d="M11.0774 354.852V240.182H0V354.852C0 356.437 2.47915 357.723 5.53907 357.723C8.5982 357.723 11.0774 356.437 11.0774 354.852Z" fill="#763A20"/>
<path fill-rule="evenodd" clip-rule="evenodd" d="M0 240.779V354.852C0 356.344 2.19273 357.568 4.99857 357.709C6.28945 357.183 7.11952 356.367 7.11952 355.45V240.779H0Z" fill="#8A4526"/>
<path fill-rule="evenodd" clip-rule="evenodd" d="M5.53907 243.052C8.5982 243.052 11.0774 241.766 11.0774 240.181C11.0774 238.595 8.5982 237.311 5.53907 237.311C2.47994 237.311 0 238.595 0 240.181C0 241.766 2.47994 243.052 5.53907 243.052Z" fill="#BE7147"/>
<path fill-rule="evenodd" clip-rule="evenodd" d="M416.576 113.133C407.898 113.691 399.228 114.528 390.565 115.641C381.903 116.755 373.247 118.146 364.598 119.812C355.95 121.48 347.309 123.423 338.675 125.642C330.041 127.86 321.414 130.355 312.794 133.125C304.174 135.894 295.562 138.939 286.957 142.257C278.352 145.576 269.753 149.169 261.161 153.036C252.57 156.903 243.986 161.042 235.409 165.456C226.832 169.868 218.261 174.556 209.699 179.513C201.136 184.47 192.579 189.702 184.031 195.204C175.481 200.706 166.939 206.481 158.406 212.525C149.87 218.569 141.343 224.886 132.823 231.472C124.303 238.057 115.788 244.914 107.282 252.039C98.775 259.165 90.2755 266.56 81.7838 274.224C73.2913 281.887 64.8042 289.821 56.3275 298.022C47.8484 306.224 39.3773 314.694 30.9124 323.43C22.4483 332.166 13.9897 341.173 5.53906 350.441L115.794 418.911C123.723 409.991 131.784 401.258 139.956 392.726C148.131 384.191 156.418 375.856 164.802 367.729C173.187 359.605 181.669 351.687 190.233 343.99C198.795 336.293 207.44 328.815 216.149 321.569C224.857 314.323 233.631 307.306 242.452 300.531C251.274 293.756 260.144 287.22 269.046 280.938C277.947 274.655 286.881 268.624 295.83 262.854C304.778 257.086 313.744 251.577 322.709 246.344C331.672 241.111 340.635 236.149 349.582 231.472C358.528 226.793 367.457 222.398 376.352 218.298C385.248 214.196 394.109 210.39 402.921 206.887C411.733 203.385 420.494 200.188 429.19 197.305C437.885 194.422 446.515 191.855 455.061 189.613C463.608 187.371 472.072 185.457 480.436 183.876C488.801 182.297 497.066 181.055 505.217 180.158C513.368 179.262 521.404 178.713 529.306 178.521L416.576 113.133Z" fill="#D09666"/>
<path fill-rule="evenodd" clip-rule="evenodd" d="M394.392 115.168L498.043 181.036C495.575 181.366 493.097 181.726 490.61 182.118L386.794 116.145C388.052 115.971 389.311 115.804 390.569 115.641C391.844 115.478 393.117 115.319 394.392 115.168ZM368.53 119.075C367.221 119.314 365.911 119.561 364.602 119.813C363.572 120.011 362.542 120.214 361.511 120.42L466.11 186.89C468.375 186.367 470.635 185.867 472.888 185.391L368.53 119.075ZM341.946 124.815C340.857 125.087 339.769 125.362 338.679 125.642C337.6 125.919 336.521 126.2 335.441 126.487L441.01 193.574C443.101 192.946 445.187 192.336 447.269 191.746L341.946 124.815ZM315.845 132.158C314.83 132.476 313.814 132.799 312.798 133.125C311.791 133.449 310.784 133.777 309.777 134.107L416.295 201.798C418.249 201.087 420.198 200.391 422.146 199.711L315.845 132.158ZM291.894 140.386C290.25 141 288.604 141.624 286.96 142.258L286.178 142.56L393.484 210.751C395.331 209.975 397.176 209.211 399.019 208.462L291.894 140.386ZM263.849 151.838L371.789 220.431C370.051 221.25 368.313 222.082 366.573 222.923L258.501 154.245C259.389 153.839 260.278 153.437 261.166 153.036C262.06 152.633 262.953 152.234 263.849 151.838ZM237.945 164.163L346.459 233.122C344.807 233.997 343.154 234.883 341.501 235.778L232.896 166.761C233.735 166.324 234.574 165.889 235.413 165.458C236.257 165.024 237.1 164.591 237.945 164.163ZM212.099 178.134L321.011 247.346C319.435 248.271 317.859 249.206 316.285 250.148L207.318 180.901C208.112 180.436 208.908 179.974 209.703 179.514C210.502 179.052 211.301 178.591 212.099 178.134ZM186.31 193.747L295.453 263.105C293.947 264.077 292.442 265.055 290.938 266.042L181.77 196.668C182.525 196.178 183.28 195.69 184.035 195.205L186.31 193.747ZM160.575 210.998C159.854 211.506 159.131 212.015 158.41 212.526L156.254 214.058L265.484 283.472C266.672 282.624 267.861 281.78 269.05 280.941L269.802 280.41L160.575 210.998ZM133.599 230.877L132.827 231.473C131.713 232.333 130.6 233.199 129.486 234.069L238.674 303.456C239.935 302.477 241.195 301.503 242.456 300.535L242.798 300.272L133.599 230.877ZM110.451 249.401C109.396 250.276 108.341 251.156 107.286 252.041L106.502 252.698L215.604 322.03L216.154 321.572C217.291 320.625 218.43 319.681 219.57 318.743L110.451 249.401ZM83.6791 272.524L192.689 341.798C191.871 342.528 191.054 343.261 190.237 343.994L188.901 345.197L79.9027 275.93L81.7885 274.225L83.6791 272.524ZM58.1456 296.272L167.105 365.514L164.807 367.733L163.483 369.019L54.523 299.777L56.3324 298.023L58.1456 296.272ZM32.6602 321.637L141.694 390.924L139.962 392.727L138.237 394.534L29.1797 325.23L30.918 323.432L32.6602 321.637Z" fill="#BE7147"/>
<path fill-rule="evenodd" clip-rule="evenodd" d="M532.367 180.818V66.1484H521.289V180.819C521.289 182.404 523.768 183.689 526.828 183.689C529.888 183.689 532.367 182.403 532.367 180.818Z" fill="#763A20"/>
<path fill-rule="evenodd" clip-rule="evenodd" d="M521.289 67.7422V180.819C521.289 182.404 523.768 183.689 526.828 183.689C527.508 183.689 528.157 183.626 528.758 183.51C529.029 183.172 529.179 182.801 529.179 182.413V67.7422H521.289Z" fill="#8A4526"/>
<path fill-rule="evenodd" clip-rule="evenodd" d="M526.828 69.0194C529.887 69.0194 532.367 67.7341 532.367 66.1489C532.367 64.5629 529.887 63.2783 526.828 63.2783C523.769 63.2783 521.289 64.5629 521.289 66.1489C521.289 67.7341 523.769 69.0194 526.828 69.0194Z" fill="#BE7147"/>
<path fill-rule="evenodd" clip-rule="evenodd" d="M526.831 176.411C518.153 176.97 509.483 177.808 500.82 178.92C492.158 180.034 483.502 181.424 474.854 183.091C466.207 184.759 457.566 186.701 448.931 188.92C440.297 191.138 431.67 193.633 423.051 196.403C414.432 199.173 405.819 202.217 397.213 205.536C388.608 208.854 380.009 212.447 371.418 216.315C362.827 220.182 354.242 224.32 345.666 228.735C337.089 233.147 328.518 237.834 319.956 242.792C311.393 247.749 302.836 252.981 294.288 258.482C285.739 263.983 277.197 269.759 268.663 275.803C260.127 281.846 251.6 288.164 243.08 294.75C234.56 301.335 226.045 308.192 217.54 315.317C209.033 322.443 200.533 329.838 192.042 337.501C183.549 345.165 175.062 353.099 166.585 361.3C158.105 369.501 149.634 377.971 141.17 386.707C132.705 395.444 124.247 404.45 115.797 413.72V418.911C242.673 276.185 399.952 185.69 526.404 182.623C526.542 182.636 526.685 182.633 526.832 182.609C528.324 182.36 529.309 180.118 529.309 178.522C529.307 176.929 528.797 176.28 526.831 176.411Z" fill="#A86342"/>
<path fill-rule="evenodd" clip-rule="evenodd" d="M441.747 198.129V89.3701H447.489V198.129C447.489 199.715 446.203 201 444.618 201C443.031 201 441.747 199.715 441.747 198.129ZM200.866 340.382V230.903L195.125 234.29V340.382C195.125 341.968 196.41 343.253 197.996 343.253C199.581 343.253 200.866 341.968 200.866 340.382ZM283.073 275.142V167.537H277.332V275.142C277.332 276.727 278.617 278.013 280.202 278.013C281.788 278.013 283.073 276.728 283.073 275.142ZM359.54 227.814V119.92H365.28V227.814C365.28 229.399 363.996 230.684 362.41 230.684C360.825 230.684 359.54 229.399 359.54 227.814Z" fill="#763A20"/>
<path fill-rule="evenodd" clip-rule="evenodd" d="M441.747 198.129V89.3701H444.476V198.129C444.476 199.163 443.93 200.068 443.112 200.573C442.292 200.068 441.747 199.163 441.747 198.129ZM197.854 340.382V232.681L195.125 234.291V340.383C195.125 341.416 195.671 342.322 196.489 342.827C197.308 342.322 197.854 341.416 197.854 340.382ZM280.061 275.142V167.537H277.332V275.142C277.332 276.175 277.878 277.08 278.696 277.586C279.516 277.08 280.061 276.176 280.061 275.142ZM362.269 119.92V227.814C362.269 228.846 361.722 229.752 360.904 230.257C360.086 229.752 359.541 228.847 359.541 227.814V119.92H362.269Z" fill="#8A4526"/>
<path fill-rule="evenodd" clip-rule="evenodd" d="M526.294 73.1264C517.795 73.6858 509.304 74.5111 500.82 75.6008C492.158 76.7157 483.502 78.1044 474.854 79.7717C466.207 81.4397 457.566 83.3832 448.931 85.6012C440.297 87.8208 431.67 90.3141 423.051 93.0845C414.432 95.8532 405.819 98.8982 397.213 102.217C388.608 105.535 380.009 109.128 371.418 112.995C362.827 116.862 354.242 121.002 345.666 125.416C337.089 129.828 328.518 134.516 319.956 139.472C311.393 144.43 302.836 149.661 294.288 155.163C285.739 160.665 277.197 166.44 268.663 172.485C260.127 178.529 251.6 184.846 243.08 191.431C234.56 198.017 226.045 204.874 217.54 211.998C209.033 219.124 200.533 226.519 192.042 234.183C183.549 241.846 175.062 249.781 166.585 257.982C158.105 266.183 149.634 274.653 141.17 283.389C132.705 292.126 124.247 301.131 115.797 310.401V315.592C242.657 172.885 399.911 82.3953 526.355 79.3062C526.508 79.3219 526.667 79.3188 526.833 79.2904C528.325 79.0418 529.31 77.01 529.31 75.4138C529.31 73.8191 528.484 73.1918 526.833 73.0901C526.64 73.0806 526.463 73.0924 526.294 73.1264Z" fill="#8A4526"/>
<path fill-rule="evenodd" clip-rule="evenodd" d="M526.294 73.1264C517.795 73.6858 509.304 74.5111 500.82 75.6008C492.158 76.7157 483.502 78.1044 474.854 79.7717C466.206 81.4397 457.566 83.3832 448.931 85.6012C440.297 87.8208 431.67 90.3141 423.05 93.0845C414.432 95.8532 405.819 98.8982 397.213 102.217C388.608 105.535 380.009 109.128 371.418 112.995C362.827 116.862 354.242 121.002 345.666 125.416C337.089 129.828 328.518 134.516 319.956 139.472C311.393 144.43 302.836 149.661 294.288 155.163C285.739 160.665 277.197 166.44 268.663 172.485C260.127 178.529 251.6 184.846 243.08 191.431C234.56 198.017 226.045 204.874 217.54 211.998C209.033 219.124 200.533 226.519 192.042 234.183C183.549 241.846 175.062 249.781 166.585 257.982C158.105 266.183 149.634 274.653 141.17 283.389C132.705 292.126 124.247 301.131 115.797 310.401V312.58C242.657 169.873 399.911 79.3827 526.355 76.2936C526.508 76.3094 526.667 76.3054 526.833 76.2778C527.827 76.1121 528.596 75.155 528.998 74.063C528.62 73.4404 527.899 73.1556 526.833 73.0901C526.64 73.0806 526.463 73.0924 526.294 73.1264Z" fill="#A86342"/>
<path fill-rule="evenodd" clip-rule="evenodd" d="M121.336 418.13V303.46H110.258V418.13C110.258 419.716 112.737 421 115.797 421C118.857 421 121.336 419.716 121.336 418.13Z" fill="#763A20"/>
<path fill-rule="evenodd" clip-rule="evenodd" d="M110.258 304.057V418.13C110.258 419.621 112.45 420.846 115.256 420.986C116.546 420.461 117.377 419.644 117.377 418.728V304.057H110.258Z" fill="#8A4526"/>
<path fill-rule="evenodd" clip-rule="evenodd" d="M115.797 306.331C118.856 306.331 121.336 305.046 121.336 303.46C121.336 301.875 118.856 300.59 115.797 300.59C112.738 300.59 110.258 301.875 110.258 303.46C110.258 305.046 112.738 306.331 115.797 306.331Z" fill="#BE7147"/>
</svg>
