<svg width="161" height="288" viewBox="0 0 161 288" fill="none" xmlns="http://www.w3.org/2000/svg">
<path d="M27.5014 89.666L149.344 22.4263L146.686 202.368L24.8438 269.608L27.5014 89.666ZM88.3843 164.018C106.741 153.889 120.175 134.066 120.583 106.615C120.966 80.7211 108.604 75.2734 88.1648 86.552L63.3052 100.269L61.5532 218.987L78.6278 209.565L79.2269 169.069L88.3843 164.018ZM80.1117 109.036L79.4986 150.549L87.2801 146.254C96.6882 141.061 102.693 132.481 102.934 116.358C103.139 102.463 97.6461 99.3597 87.6458 104.881L80.1117 109.036Z" fill="#0052A5"/>
<path d="M88.1581 86.5567C108.597 75.2746 120.959 80.7223 120.576 106.62C120.172 134.068 106.734 153.89 88.3775 164.023L79.2167 169.077L78.6245 209.569L61.5499 218.991L63.302 100.274L88.1581 86.5567ZM87.2768 146.255C96.6849 141.062 102.69 132.483 102.93 116.359C103.136 102.464 97.6428 99.3609 87.6426 104.882L80.1084 109.041L79.4954 150.55L87.2768 146.255ZM151.486 5.64545C156.303 2.98777 160.138 6.61379 160.034 13.73L157.293 199.29C157.188 206.435 153.182 214.387 148.365 217.048L22.6983 286.398C17.881 289.056 14.046 285.43 14.1505 278.286L16.8918 92.722C16.9963 85.6058 21.002 77.6536 25.8192 74.9925L151.486 5.64545ZM146.683 202.373L149.34 22.431L27.4981 89.6707L24.8405 269.613L146.683 202.373Z" fill="url(#paint0_linear_1347_53215)"/>
<path d="M155.972 5.01107L142.172 0.235599C142.154 0.228632 142.137 0.225145 142.119 0.218179C140.643 -0.272952 139.054 0.117167 137.689 0.869538L12.022 70.22C6.97484 73.0066 3.19557 81.3419 3.09455 87.9495L0.353267 273.514C0.304502 276.823 1.29373 281.177 4.42164 282.26L18.2221 287.035C15.0837 285.949 14.1049 281.609 14.1537 278.289L16.895 92.725C17.003 85.3441 21.3152 77.486 25.8224 74.9955L151.489 5.64501C152.858 4.88915 154.495 4.49904 155.972 5.01107Z" fill="url(#paint1_linear_1347_53215)"/>
<defs>
<linearGradient id="paint0_linear_1347_53215" x1="87.0915" y1="287.268" x2="87.0915" y2="4.77256" gradientUnits="userSpaceOnUse">
<stop stop-color="white"/>
<stop offset="1" stop-color="#D6E6EE"/>
</linearGradient>
<linearGradient id="paint1_linear_1347_53215" x1="78.1617" y1="287.03" x2="78.1617" y2="-0.00196747" gradientUnits="userSpaceOnUse">
<stop stop-color="#81879C"/>
<stop offset="1" stop-color="#B7BEC1"/>
</linearGradient>
</defs>
</svg>
