<svg width="275" height="484" viewBox="0 0 275 484" fill="none" xmlns="http://www.w3.org/2000/svg">
<path d="M219.292 480.195C219.292 482.151 183.372 483.739 139.06 483.739C94.7487 483.739 58.8281 482.151 58.8281 480.195C58.8281 478.237 94.7487 476.651 139.06 476.651C183.372 476.649 219.292 478.237 219.292 480.195Z" fill="#888787"/>
<path d="M157.788 233.966H119.141V479.219H157.788V233.966Z" fill="#C9C9CB"/>
<path d="M138.464 233.966H119.141V479.219H138.464V233.966Z" fill="#F2F0F0"/>
<path d="M12.0469 218.345L139.266 13.0273L260.042 218.345H12.0469Z" fill="#F2F0F0"/>
<path d="M139.062 218.345H260.041L139.265 13.0273L139.062 13.3537V218.345Z" fill="#E3E4EA"/>
<path d="M273.662 218.58C232.755 147.376 189.436 76.172 148.532 4.97085C146.047 0.64044 141.968 -0.559739 138.214 0.224104C135.446 0.501661 132.755 1.91772 130.874 4.97085C86.9402 76.1746 45.4221 147.376 1.4884 218.58C-2.61842 225.231 2.70657 233.966 10.3163 233.966C95.1563 233.966 179.994 233.966 264.831 233.966C272.621 233.966 277.517 225.292 273.662 218.58ZM139.386 30.1129C174.507 91.2475 212.041 152.382 247.16 213.514C174.319 213.514 101.481 213.514 28.6377 213.514C66.3624 152.382 101.663 91.2475 139.386 30.1129Z" fill="#D02032"/>
<path d="M139.067 213.514C102.26 213.514 65.4475 213.514 28.6377 213.514C66.2544 152.554 101.468 91.5945 139.067 30.6321V0.105957C138.784 0.141937 138.496 0.16763 138.214 0.22417C135.446 0.501727 132.755 1.91778 130.874 4.97092C86.9402 76.1747 45.4221 147.376 1.4884 218.58C-2.61842 225.231 2.70657 233.966 10.3163 233.966C53.2349 233.966 96.1509 233.966 139.069 233.966L139.067 213.514Z" fill="#EC1B36"/>
<path d="M139.236 116.881C155.327 121.054 165.478 135.364 165.478 135.364L175.614 129.402C163.689 104.956 139.236 101.975 139.236 101.975V94.8201L120.164 108.533L139.236 126.122V116.881Z" fill="#383636"/>
<path d="M117.119 154.528C108.697 140.203 111.632 122.902 111.632 122.902L100.25 119.952C91.3938 145.67 106.58 165.07 106.58 165.07L101.517 170.131L124.703 173.916L123.652 147.998L117.119 154.528Z" fill="#545453"/>
<path d="M175.265 140.177L151.73 151.087L160.272 154.613C150.275 167.887 133.172 171.809 133.172 171.809L134.801 183.451C161.953 181.767 174.047 160.3 174.047 160.3L180.668 163.037L175.265 140.177Z" fill="#383636"/>
<path d="M139.069 94.9412L120.164 108.536L139.069 125.968V94.9412Z" fill="#545453"/>
<path d="M139.075 169.886C135.567 171.264 133.18 171.811 133.18 171.811L134.809 183.453C136.284 183.361 137.693 183.188 139.075 182.985V169.886Z" fill="#545453"/>
</svg>
