<svg width="174" height="251" viewBox="0 0 174 251" fill="none" xmlns="http://www.w3.org/2000/svg">
<mask id="mask0_1347_53145" style="mask-type:luminance" maskUnits="userSpaceOnUse" x="37" y="237" width="56" height="13">
<path d="M37.6562 242.392C49.5165 246.676 63.5817 245.303 78.7476 237.236L92.3495 242.148C77.1836 250.211 63.115 251.584 51.2581 247.303C47.1793 245.829 41.7386 243.865 37.6562 242.392Z" fill="white"/>
</mask>
<g mask="url(#mask0_1347_53145)">
<path d="M51.2582 247.303L37.6562 242.392C37.6806 242.402 37.705 242.409 37.7294 242.419L51.3313 247.331C51.3069 247.32 51.2825 247.31 51.2582 247.303Z" fill="#434549"/>
<path d="M51.3363 247.33L37.7344 242.418C39.4446 243.032 41.2036 243.53 43.001 243.906L56.6029 248.817C54.8055 248.437 53.0465 247.943 51.3363 247.33Z" fill="#45474C"/>
<path d="M56.5941 248.815L42.9922 243.903C44.7547 244.273 46.5555 244.523 48.3981 244.656L62 249.567C60.1609 249.435 58.3566 249.184 56.5941 248.815Z" fill="#484A4E"/>
<path d="M62.0081 249.57L48.4062 244.659C50.2489 244.791 52.1333 244.808 54.049 244.701L67.6509 249.612C65.7352 249.716 63.8542 249.702 62.0081 249.57Z" fill="#4A4C51"/>
<path d="M67.641 249.609L54.0391 244.698C56.0106 244.586 58.0169 244.349 60.058 243.977L73.6599 248.888C71.6188 249.261 69.6124 249.501 67.641 249.609Z" fill="#4C4E53"/>
<path d="M73.6566 248.887L60.0547 243.976C62.2282 243.579 64.44 243.032 66.6867 242.332L80.2886 247.243C78.0419 247.947 75.8301 248.494 73.6566 248.887Z" fill="#4E5155"/>
<path d="M80.2972 247.248L66.6953 242.336C69.2171 241.549 71.7773 240.57 74.3792 239.393L87.9811 244.304C85.3827 245.482 82.819 246.46 80.2972 247.248Z" fill="#515358"/>
<path d="M87.9925 244.3L74.3906 239.389C75.8362 238.734 77.2921 238.017 78.7586 237.236L92.3605 242.148C90.894 242.928 89.4381 243.645 87.9925 244.3Z" fill="#53555A"/>
</g>
<path d="M95.9958 14.2833C139.64 -8.92175 174.211 23.2805 173.201 86.1801C172.191 149.108 135.986 218.942 92.342 242.151C48.6975 265.359 14.1476 233.143 15.1543 170.216C16.1644 107.313 52.3479 37.4884 95.9958 14.2833ZM146.917 119.431L147.54 80.5721C147.565 79.1057 146.76 78.3847 145.743 78.9281L43.302 133.398C42.3023 133.928 41.4629 135.523 41.4385 136.989L40.815 175.845C40.7906 177.283 41.5952 178.032 42.5914 177.503L145.032 123.032C146.053 122.492 146.892 120.869 146.917 119.431Z" fill="url(#paint0_linear_1347_53145)"/>
<path d="M145.745 78.9282C146.762 78.3883 147.567 79.1059 147.543 80.5758L146.919 119.434C146.895 120.873 146.055 122.496 145.038 123.036L42.5973 177.506C41.5976 178.036 40.7965 177.29 40.8209 175.848L41.4444 136.993C41.4687 135.527 42.3082 133.931 43.3079 133.402L145.745 78.9282Z" fill="white"/>
<path d="M96.0349 13.2389C140.014 -10.1438 174.964 22.3858 173.947 85.794C172.93 149.202 136.325 219.807 92.3461 243.193C48.3673 266.576 13.4343 234.008 14.4513 170.599C15.4719 107.191 52.0595 36.6216 96.0349 13.2389ZM92.367 242.148C136.012 218.939 172.219 149.105 173.226 86.1771C174.233 23.2775 139.665 -8.92473 96.0209 14.2804C52.3729 37.4854 16.1895 107.31 15.1828 170.209C14.1727 233.14 48.7191 265.356 92.367 242.148Z" fill="url(#paint1_linear_1347_53145)"/>
<path d="M136.978 7.91996C137.135 7.97569 137.302 8.00356 137.459 8.06277L137.386 8.03487C137.41 8.04532 137.435 8.05232 137.459 8.06277C120.914 2.08909 121.611 2.21101 117.013 1.42032C104.954 -0.652185 93.3583 2.514 82.4246 8.32746C71.9158 13.9145 62.0444 22.2429 53.8867 31.0031C45.0533 40.4879 37.3868 51.2022 30.8593 62.3415C22.8828 75.9573 15.8119 91.6352 10.5313 108.435C4.70743 126.983 1.14759 146.509 0.841069 165.688C0.506681 186.497 4.15011 210.2 16.3204 226.971C20.7336 233.053 26.6272 238.473 33.3428 241.758C36.4638 243.287 38.1218 243.743 50.9295 248.369C44.4577 246.031 39.2468 242.308 34.6943 237.585C21.9249 224.338 16.4179 204.125 14.9132 185.643C13.0392 162.626 16.6443 137.854 23.5759 115.129C29.271 96.4594 37.5923 78.0054 47.6727 61.9513C55.6701 49.2133 65.4266 36.8723 76.733 26.8686C93.3688 12.1451 115.989 0.640073 136.978 7.91996Z" fill="url(#paint2_linear_1347_53145)"/>
<defs>
<linearGradient id="paint0_linear_1347_53145" x1="94.178" y1="249.681" x2="94.178" y2="6.74813" gradientUnits="userSpaceOnUse">
<stop stop-color="#BB1111"/>
<stop offset="1" stop-color="#FF3111"/>
</linearGradient>
<linearGradient id="paint1_linear_1347_53145" x1="14.4343" y1="128.213" x2="173.972" y2="128.213" gradientUnits="userSpaceOnUse">
<stop stop-color="#BB1111"/>
<stop offset="1" stop-color="#FF3111"/>
</linearGradient>
<linearGradient id="paint2_linear_1347_53145" x1="69.1397" y1="248.366" x2="69.1397" y2="0.783588" gradientUnits="userSpaceOnUse">
<stop stop-color="#760000"/>
<stop offset="1" stop-color="#E70000"/>
</linearGradient>
</defs>
</svg>
