<svg width="251" height="493" viewBox="0 0 251 493" fill="none" xmlns="http://www.w3.org/2000/svg">
<path d="M125.998 492.525C170.309 492.525 206.23 490.939 206.23 488.982C206.23 487.024 170.309 485.438 125.998 485.438C81.6867 485.438 45.7656 487.024 45.7656 488.982C45.7656 490.939 81.6867 492.525 125.998 492.525Z" fill="#888787"/>
<path d="M144.705 242.719H106.055V487.972H144.705V242.719Z" fill="#C9C9CB"/>
<path d="M125.378 242.719H106.055V487.972H125.378V242.719Z" fill="#F2F0F0"/>
<path d="M251.004 126.176C251.004 195.393 194.896 251.495 125.682 251.495C56.4671 251.495 0.359375 195.393 0.359375 126.176C0.359375 56.9612 56.4697 0.853516 125.682 0.853516C194.896 0.853516 251.004 56.9612 251.004 126.176Z" fill="#1A85C4"/>
<path d="M125.078 0.866211C56.1433 1.1926 0.359375 57.164 0.359375 126.176C0.359375 195.19 56.1433 251.156 125.078 251.48V0.866211Z" fill="#29A3DA"/>
<path d="M216.381 124.377L164.041 76.3418V104.66H34.9766V147.684H164.041V176.006L216.381 124.377Z" fill="#E3E4EA"/>
<path d="M125.676 104.661H34.9766V147.682H125.676V104.661Z" fill="#F2F0F0"/>
</svg>
