<svg width="173" height="249" viewBox="0 0 173 249" fill="none" xmlns="http://www.w3.org/2000/svg">
<path d="M95.1193 13.1613C138.746 -10.0368 173.314 22.141 172.307 85.0685C171.297 147.996 135.092 217.803 91.4689 240.997C47.8244 264.206 13.2536 232.028 14.2638 169.101C15.2704 106.177 51.4748 36.3699 95.1193 13.1613ZM33.5816 165.687C34.2504 181.463 37.9878 194.152 43.9685 203.222L129.314 38.5712C120.881 34.2138 110.714 33.9351 99.5952 38.5469C99.3305 38.6583 99.1807 38.721 99.0309 38.7837C98.6373 38.9544 98.5049 39.0101 98.3761 39.0693C98.2576 39.1216 98.1392 39.1739 98.0208 39.2296C97.9059 39.2818 97.7909 39.3341 97.6794 39.3863C97.4739 39.4804 97.2649 39.5779 97.0559 39.6789C96.6519 39.874 96.4952 39.9506 96.3384 40.0272C95.9274 40.2293 95.7672 40.3129 95.6035 40.3965C95.1472 40.6298 94.9103 40.7517 94.6769 40.8771C61.6597 58.4325 34.2643 111.273 33.5015 158.878C33.4945 159.215 33.491 159.553 33.491 159.888C33.4876 160.441 33.4875 160.675 33.4875 160.905C33.4875 161.483 33.491 161.709 33.491 161.936C33.498 162.587 33.5015 162.89 33.5084 163.193C33.5119 163.339 33.5154 163.486 33.5189 163.629C33.5224 163.803 33.5259 163.977 33.5328 164.155C33.5363 164.332 33.5433 164.513 33.5503 164.691C33.5642 165.287 33.5712 165.489 33.5816 165.687ZM91.9112 213.261C124.928 195.705 152.303 142.904 153.066 95.2987C153.073 94.9608 153.076 94.6229 153.076 94.2885C153.08 93.7382 153.08 93.5118 153.08 93.2888C153.08 92.6828 153.076 92.4772 153.076 92.2717C153.069 91.6517 153.066 91.4184 153.062 91.1815C153.059 90.9412 153.052 90.7008 153.048 90.464C153.045 90.3177 153.041 90.1714 153.038 90.0251C153.034 89.837 153.027 89.6524 153.021 89.4643C153.003 88.9 152.993 88.6945 152.986 88.4925C152.317 72.7066 148.579 60.0208 142.599 50.9505L57.2534 215.601C65.6793 219.931 75.8537 220.199 86.9616 215.601C87.2682 215.476 87.4144 215.413 87.5572 215.351C87.9474 215.183 88.0762 215.124 88.2121 215.065C88.3166 215.02 88.4211 214.971 88.5221 214.926C88.6928 214.849 88.86 214.772 89.0306 214.692C89.1978 214.616 89.3616 214.539 89.5288 214.459C89.9398 214.26 90.0861 214.191 90.2289 214.121C90.6678 213.905 90.8245 213.825 90.9778 213.745C91.4445 213.508 91.6779 213.386 91.9112 213.261Z" fill="url(#paint0_linear_1347_53166)"/>
<path d="M15.6438 192.003C12.3905 169.22 15.1561 144.287 21.0184 122.137C27.0339 99.3641 37.1804 75.9604 50.859 55.7822C69.9016 27.6937 104.469 -3.45653 136.222 8.01016C136.197 7.99971 136.173 7.99274 136.149 7.98229L122.547 3.07098C108.952 -1.8055 94.2213 1.50006 81.525 8.2505C57.7696 20.8841 38.7723 45.6461 26.1352 69.4085C15.1248 90.1196 7.27718 112.868 3.36554 135.913C0.606848 152.121 -0.330169 169.359 1.83638 185.782C4.84238 208.555 15.1597 233.45 36.7555 241.245L50.3574 246.157C35.7384 240.879 20.3322 224.773 15.6438 192.003Z" fill="url(#paint1_linear_1347_53166)"/>
<path d="M153.065 95.2988C152.302 142.904 124.927 195.705 91.91 213.261C91.6766 213.386 91.4398 213.508 91.2099 213.627C80.1681 219.259 68.1302 221.185 57.2556 215.598L142.601 50.9472C150.846 63.4519 153.308 80.2653 153.065 95.2988ZM33.5002 158.874C33.2598 173.922 35.7155 190.711 43.9672 203.222L129.313 38.5714C120.88 34.2139 110.712 33.9352 99.4755 38.5923C64.539 53.1625 34.3013 108.81 33.5002 158.874Z" fill="url(#paint2_linear_1347_53166)"/>
<defs>
<linearGradient id="paint0_linear_1347_53166" x1="93.2837" y1="248.537" x2="93.2837" y2="5.63027" gradientUnits="userSpaceOnUse">
<stop stop-color="#BB1111"/>
<stop offset="1" stop-color="#FF3111"/>
</linearGradient>
<linearGradient id="paint1_linear_1347_53166" x1="68.4313" y1="246.158" x2="68.4313" y2="0.747001" gradientUnits="userSpaceOnUse">
<stop stop-color="#760000"/>
<stop offset="1" stop-color="#E70000"/>
</linearGradient>
<linearGradient id="paint2_linear_1347_53166" x1="93.2823" y1="218.945" x2="93.2823" y2="35.2024" gradientUnits="userSpaceOnUse">
<stop stop-color="white"/>
<stop offset="1" stop-color="#D6E6EE"/>
</linearGradient>
</defs>
</svg>
