<svg width="173" height="249" viewBox="0 0 173 249" fill="none" xmlns="http://www.w3.org/2000/svg">
<path d="M94.8246 41.1162C127.842 23.5609 153.98 47.9364 153.217 95.5412C152.454 143.146 125.08 195.948 92.0624 213.503C59.0452 231.059 32.8863 206.721 33.6491 159.117C34.4119 111.515 61.8039 58.6751 94.8246 41.1162Z" fill="url(#paint0_linear_1347_53182)"/>
<path d="M135.875 8.08181C136.031 8.13754 136.199 8.1654 136.355 8.22462L136.282 8.19677C136.307 8.20722 136.331 8.21417 136.355 8.22462C124.551 3.96118 121.029 2.55747 117.41 1.80162C105.313 -0.727185 92.5611 2.67242 81.6621 8.46847C67.374 16.0653 54.5907 28.462 44.6496 41.1479C30.6855 58.9714 18.5048 81.856 10.4098 107.618C4.70433 125.797 1.10617 145.233 0.799653 164.439C0.322455 194.297 9.04095 231.39 36.8543 241.47C36.8682 241.477 36.8857 241.484 36.8996 241.491L50.5015 246.402C22.2806 236.214 13.9209 199.303 14.4015 169.351C14.7081 150.28 18.2749 130.788 24.0152 112.519C31.3578 89.1568 42.9603 65.5791 58.2481 46.0627C68.2449 33.2968 81.063 20.9279 95.264 13.3798C107.929 6.64677 122.377 3.40387 135.875 8.08181Z" fill="url(#paint1_linear_1347_53182)"/>
<path d="M95.2599 13.3788C138.904 -9.82971 173.454 22.3864 172.448 85.3139C171.437 148.213 135.254 218.038 91.6094 241.246C47.965 264.455 13.3943 232.249 14.4044 169.35C15.411 106.419 51.6154 36.5839 95.2599 13.3788ZM92.0519 213.506C125.069 195.951 152.444 143.149 153.206 95.5441C153.969 47.9392 127.835 23.5602 94.814 41.119C61.7968 58.6743 34.4014 111.514 33.6385 159.119C32.8757 206.721 59.0346 231.061 92.0519 213.506Z" fill="url(#paint2_linear_1347_53182)"/>
<defs>
<linearGradient id="paint0_linear_1347_53182" x1="93.4312" y1="219.208" x2="93.4312" y2="35.4202" gradientUnits="userSpaceOnUse">
<stop stop-color="white"/>
<stop offset="1" stop-color="#D6E6EE"/>
</linearGradient>
<linearGradient id="paint1_linear_1347_53182" x1="68.5698" y1="246.399" x2="68.5698" y2="0.954151" gradientUnits="userSpaceOnUse">
<stop stop-color="#760000"/>
<stop offset="1" stop-color="#E70000"/>
</linearGradient>
<linearGradient id="paint2_linear_1347_53182" x1="93.4242" y1="248.778" x2="93.4242" y2="5.84538" gradientUnits="userSpaceOnUse">
<stop stop-color="#BB1111"/>
<stop offset="1" stop-color="#FF3111"/>
</linearGradient>
</defs>
</svg>
