<svg width="173" height="248" viewBox="0 0 173 248" fill="none" xmlns="http://www.w3.org/2000/svg">
<path d="M136.13 7.36435L136.057 7.3365C136.081 7.34695 136.106 7.35739 136.13 7.36435C124.301 3.09395 120.79 1.69372 117.185 0.941353C105.14 -1.577 92.2837 1.83646 81.4231 7.6116C69.4862 13.958 58.5663 23.6866 49.6981 33.8785C41.5056 43.2901 33.3932 54.9205 26.0506 68.7453C16.5032 86.7082 9.24074 106.392 4.89022 126.824C1.4523 142.997 -0.181324 159.897 0.9333 176.477C1.8459 190.1 4.5384 203.531 10.6758 215.67C16.329 226.855 24.8873 236.329 36.6257 240.585C36.6431 240.592 36.657 240.599 36.671 240.603L50.2729 245.514C38.5693 241.289 29.8892 231.679 24.2742 220.574C17.5586 207.29 14.7651 191.326 14.267 176.446C13.7445 160.893 15.5558 145.066 18.8405 130.189C23.0691 111 30.0738 91.6891 39.656 73.6601C45.3162 63.0119 51.7637 52.9246 59.4999 43.3389C69.211 31.3009 81.4858 19.7192 95.0319 12.5194C107.739 5.7655 122.647 2.48787 136.13 7.36435Z" fill="url(#paint0_linear_1347_53195)"/>
<path d="M95.0236 12.5229C138.672 -10.6856 173.218 21.5027 172.211 84.4301C171.201 147.358 135.018 217.154 91.3732 240.363C47.7253 263.571 13.1789 231.383 14.1855 168.455C15.1922 105.524 51.3757 35.728 95.0236 12.5229ZM91.8156 212.65C124.833 195.095 152.207 142.265 152.97 94.6602C153.21 79.7138 150.755 62.782 142.524 50.3017L57.1578 214.963C68.2622 220.696 80.6485 218.586 91.8156 212.65ZM43.8694 202.58L129.236 37.919C118.082 32.1891 105.689 34.3522 94.5778 40.2597C61.5605 57.815 34.1861 110.617 33.4233 158.222C33.2909 166.449 40.3374 197.227 43.8694 202.58Z" fill="url(#paint1_linear_1347_53195)"/>
<path d="M152.969 94.6608C152.206 142.266 124.832 195.095 91.8146 212.651C80.7137 218.555 68.2334 220.683 57.1603 214.964L142.527 50.3023C150.764 62.7965 153.21 79.683 152.969 94.6608ZM94.5768 40.2602C61.5596 57.8155 34.1851 110.617 33.4223 158.222C33.182 173.137 35.5923 190.031 43.8684 202.581L129.235 37.9195C118.092 32.1966 105.643 34.3771 94.5768 40.2602Z" fill="#0052A5"/>
<defs>
<linearGradient id="paint0_linear_1347_53195" x1="68.3597" y1="245.517" x2="68.3597" y2="0.101548" gradientUnits="userSpaceOnUse">
<stop stop-color="#760000"/>
<stop offset="1" stop-color="#E70000"/>
</linearGradient>
<linearGradient id="paint1_linear_1347_53195" x1="93.1967" y1="247.896" x2="93.1967" y2="4.98598" gradientUnits="userSpaceOnUse">
<stop stop-color="#BB1111"/>
<stop offset="1" stop-color="#FF3111"/>
</linearGradient>
</defs>
</svg>
