<svg width="131" height="280" viewBox="0 0 131 280" fill="none" xmlns="http://www.w3.org/2000/svg">
<path d="M122.369 16.4442C122.644 16.2979 122.87 16.5138 122.867 16.9074L119.694 214.805C119.687 215.199 119.446 215.662 119.175 215.809L110.624 220.358L95.4437 116.6L76.0667 126.903L76.2339 238.641L64.4119 244.928L68.2155 131.076L48.8385 141.38L30.0432 263.201L21.471 267.76C21.1958 267.907 20.9868 267.684 20.9938 267.287L24.167 69.3888C24.174 68.9952 24.3934 68.5424 24.6686 68.3961L122.369 16.4442ZM117.952 98.1078L118.179 83.8858L26.755 132.497L26.5251 146.719L35.0973 142.16L34.8709 156.326L42.2901 152.383L44.3556 137.238L100.118 107.589L101.731 120.776L109.129 116.844L109.356 102.678L117.952 98.1078ZM62.3916 53.5368L53.3841 111.821L69.1386 103.444L70.9638 48.9808L62.3916 53.5368ZM84.4891 41.7879L75.9169 46.3474L76.011 99.7902L91.748 91.4235L84.4891 41.7879ZM122.536 5.94578C126.841 3.65732 130.244 6.82705 130.147 13.0341L126.974 210.932C126.873 217.139 123.309 224.043 119.004 226.335L21.3003 278.287C17.0125 280.565 13.592 277.378 13.6895 271.171L16.8627 73.2725C16.9637 67.0655 20.5445 60.1792 24.8323 57.9012L122.536 5.94578ZM123.33 212.869L126.503 14.9708C126.556 11.6687 124.741 9.97586 122.449 11.195L24.7452 63.1469C22.4567 64.3661 20.5514 68.0338 20.4992 71.3359L17.326 269.234C17.2737 272.536 19.0885 274.229 21.3804 273.01L119.084 221.058C121.376 219.839 123.278 216.167 123.33 212.869Z" fill="url(#paint0_linear_1347_53200)"/>
<path d="M122.452 11.195L24.7484 63.1469C22.46 64.3661 20.5581 68.0338 20.5024 71.3359L17.3292 269.234C17.277 272.536 19.0917 274.229 21.3837 273.01L119.087 221.058C121.376 219.839 123.281 216.171 123.333 212.869L126.507 14.9708C126.559 11.6687 124.741 9.97587 122.452 11.195ZM119.69 214.802C119.683 215.196 119.443 215.659 119.171 215.805L110.616 220.354L95.4365 116.597L76.0595 126.9L76.2266 238.637L64.4047 244.925L68.2083 131.073L48.8313 141.376L30.0359 263.197L21.4638 267.757C21.1886 267.903 20.9796 267.677 20.9866 267.283L24.1598 69.3853C24.1667 68.9917 24.3862 68.5389 24.6614 68.3926L122.365 16.4407C122.64 16.2944 122.867 16.5104 122.863 16.904L119.69 214.802ZM76.0107 99.7902L75.9167 46.3474L84.4888 41.788L91.7478 91.4235L76.0107 99.7902ZM69.1418 103.441L53.3873 111.818L62.3949 53.5333L70.967 48.9738L69.1418 103.441ZM26.7582 132.494L118.178 83.8824L117.952 98.1043L109.359 102.674L109.132 116.84L101.734 120.773L100.121 107.586L44.3589 137.235L42.2933 152.379L34.8741 156.323L35.1005 142.156L26.5284 146.716L26.7582 132.494Z" fill="url(#paint1_linear_1347_53200)"/>
<path d="M126.582 5.43325L112.981 0.52193L112.974 0.518422C111.647 0.0447073 110.184 0.361689 108.926 1.03046L11.2224 52.9824C6.57927 55.452 3.34339 62.805 3.25282 68.3538L0.0796298 266.252C0.0343482 269.091 1.00615 272.915 3.65338 273.869L17.2553 278.781C14.5872 277.819 13.6362 273.974 13.6815 271.163L16.8547 73.2651C16.9488 67.4447 20.3902 60.2519 24.8243 57.8937L122.528 5.94179C123.761 5.29043 125.259 4.95606 126.582 5.43325Z" fill="url(#paint2_linear_1347_53200)"/>
<defs>
<linearGradient id="paint0_linear_1347_53200" x1="71.9168" y1="279.02" x2="71.9168" y2="5.20143" gradientUnits="userSpaceOnUse">
<stop stop-color="#408D4D"/>
<stop offset="1" stop-color="#316A2A"/>
</linearGradient>
<linearGradient id="paint1_linear_1347_53200" x1="71.9165" y1="273.402" x2="71.9165" y2="10.799" gradientUnits="userSpaceOnUse">
<stop stop-color="white"/>
<stop offset="1" stop-color="#D6E6EE"/>
</linearGradient>
<linearGradient id="paint2_linear_1347_53200" x1="63.3293" y1="278.785" x2="63.3293" y2="0.294117" gradientUnits="userSpaceOnUse">
<stop stop-color="#1D5B20"/>
<stop offset="1" stop-color="#59A957"/>
</linearGradient>
</defs>
</svg>
