<svg width="185" height="254" viewBox="0 0 185 254" fill="none" xmlns="http://www.w3.org/2000/svg">
<path d="M96.4282 126.736C90.3569 133.796 90.1271 134.928 90.3604 137.178C90.6635 140.066 93.6973 139.742 100.42 137.959C107.261 136.112 115.798 133.838 118.292 144.012C120.988 154.946 115.509 165.02 111.873 171.711C108.773 177.416 107.01 180.9 106.933 185.64L106.794 194.418L100.921 197.539L95.0906 200.639L95.2299 191.861C95.4285 179.558 100.625 169.966 104.084 163.623C107.585 157.172 107.491 156.858 107.111 155.242C106.637 153.368 101.472 154.744 98.0409 155.671C90.9456 157.569 80.2487 160.432 78.7718 146.026C77.2079 130.964 86.7588 119.842 91.8826 113.876C93.3838 112.124 95.836 109.281 96.5779 107.853L96.7068 99.8942L86.609 105.265C86.2363 105.464 85.9089 105.328 85.7417 104.973C85.571 104.614 85.6024 104.039 85.8044 103.485L102.308 59.3183C102.51 58.7924 102.827 58.3709 103.161 58.1933C103.513 58.0052 103.823 58.0923 103.994 58.4232L119.372 85.6374C119.56 85.9857 119.55 86.55 119.369 87.0934C119.184 87.6367 118.846 88.1244 118.494 88.3125L108.414 93.6732L108.281 101.97C108.093 113.144 101.054 121.337 96.4282 126.736ZM104.927 11.7309C103.896 10.7417 102.478 10.6546 100.974 11.4557C99.4481 12.2673 98.0235 13.8626 96.9228 15.9873L19.0071 166.277C17.9064 168.402 17.2864 170.774 17.2515 172.947C17.2167 175.121 17.7705 176.869 18.8225 177.848L93.2166 247.153C94.2686 248.132 95.6653 248.23 97.191 247.418C98.6992 246.617 100.141 245.011 101.221 242.897L179.158 92.5934C180.241 90.4791 180.861 88.1071 180.896 85.9335C180.931 83.76 180.377 82.0114 179.346 81.0222L104.927 11.7309ZM176.632 90.2457L98.6957 240.549C98.3161 241.312 97.8214 241.855 97.2746 242.145C96.7277 242.437 96.2227 242.423 95.8604 242.057L21.4453 172.763C21.0831 172.397 20.8776 171.805 20.8915 171.014C20.9054 170.223 21.1318 169.405 21.5115 168.642L99.4481 18.3385C99.8278 17.5757 100.343 17.0219 100.89 16.7328C101.437 16.4402 101.921 16.4645 102.287 16.8303L176.702 86.1251C177.064 86.4908 177.27 87.0829 177.256 87.8736C177.242 88.6643 177.015 89.4828 176.632 90.2457Z" fill="url(#paint0_linear_1347_53141)"/>
<path d="M181.977 75.9645C185.533 79.2492 185.397 87.7726 181.674 94.9549L103.758 245.248C101.894 248.839 99.491 251.42 97.1085 252.685C94.726 253.952 92.3644 253.907 90.5845 252.249L16.1903 182.947C12.6339 179.635 12.7698 171.112 16.4933 163.957L94.409 13.6361C96.2725 10.0449 98.6759 7.46383 101.058 6.19943C103.441 4.93155 105.803 4.97683 107.582 6.63483L181.977 75.9645ZM179.169 92.5968C180.253 90.4825 180.873 88.1104 180.907 85.9368C180.942 83.7633 180.388 82.0147 179.357 81.0255L104.942 11.7308C103.911 10.7416 102.494 10.6545 100.989 11.4556C99.4632 12.2672 98.0385 13.8625 96.9378 15.9872L19.0221 166.277C17.9215 168.402 17.3014 170.774 17.2666 172.947C17.2318 175.121 17.7856 176.869 18.8375 177.848L93.2317 247.153C94.2836 248.132 95.6804 248.23 97.206 247.418C98.7143 246.617 100.156 245.011 101.236 242.897L179.169 92.5968ZM102.295 16.8302L176.71 86.125C177.072 86.4907 177.278 87.0828 177.264 87.8735C177.25 88.6642 177.024 89.4827 176.644 90.2456L98.7073 240.549C98.3276 241.312 97.833 241.852 97.2862 242.144C96.7393 242.437 96.2342 242.423 95.872 242.057L21.4569 172.763C21.0946 172.397 20.8891 171.805 20.9031 171.014C20.917 170.223 21.1434 169.405 21.5231 168.642L99.4597 18.3384C99.8393 17.5756 100.355 17.0218 100.902 16.7327C101.449 16.4401 101.933 16.4609 102.295 16.8302ZM111.884 171.711C115.524 165.019 121.003 154.943 118.304 144.012C115.81 133.841 107.272 136.112 100.431 137.958C93.7089 139.742 90.675 140.069 90.372 137.178C90.1351 134.925 90.3685 133.796 96.4397 126.736C101.065 121.337 108.108 113.144 108.286 101.97L108.418 93.673L118.499 88.3124C118.851 88.1243 119.189 87.6366 119.373 87.0933C119.558 86.5499 119.565 85.9821 119.377 85.6373L103.998 58.4231C103.828 58.0922 103.521 58.0051 103.166 58.1932C102.831 58.3708 102.514 58.7888 102.312 59.3182L85.809 103.485C85.607 104.043 85.5756 104.614 85.7463 104.973C85.917 105.331 86.2444 105.464 86.6136 105.265L96.7114 99.8941L96.5826 107.853C95.8406 109.281 93.3885 112.124 91.8872 113.876C86.7669 119.846 77.216 130.964 78.7764 146.026C80.2533 160.432 90.9537 157.569 98.0455 155.671C101.476 154.741 106.639 153.368 107.116 155.242C107.499 156.858 107.589 157.172 104.089 163.623C100.63 169.966 95.4296 179.558 95.2346 191.861L95.0952 200.639L100.926 197.539L106.799 194.418L106.938 185.64C107.018 180.899 108.784 177.416 111.884 171.711Z" fill="url(#paint1_linear_1347_53141)"/>
<path d="M105.891 5.58606C105.358 5.39448 92.2266 0.615564 91.6727 0.500619C87.3431 -0.40153 82.902 4.6874 80.8086 8.72443L2.89294 159.045C-0.308118 165.186 -1.44713 174.277 2.58642 178.036C3.15418 178.565 77.1304 247.554 77.7887 247.961C78.4749 248.383 91.5055 253.022 92.2614 253.294C90.8333 252.778 17.296 183.982 16.1848 182.947C12.0851 179.13 13.346 169.997 16.4879 163.957L94.4036 13.6358C96.7164 9.17377 101.582 4.03258 105.895 5.58957L105.891 5.58606Z" fill="url(#paint2_linear_1347_53141)"/>
<defs>
<linearGradient id="paint0_linear_1347_53141" x1="99.0719" y1="247.965" x2="99.0719" y2="10.9137" gradientUnits="userSpaceOnUse">
<stop stop-color="#274158"/>
<stop offset="0.4181" stop-color="#1F3144"/>
<stop offset="0.9949" stop-color="#121622"/>
</linearGradient>
<linearGradient id="paint1_linear_1347_53141" x1="99.0835" y1="253.574" x2="99.0835" y2="5.31052" gradientUnits="userSpaceOnUse">
<stop stop-color="#FFDE13"/>
<stop offset="0.2893" stop-color="#FFDB14"/>
<stop offset="0.5124" stop-color="#FFD118"/>
<stop offset="0.7132" stop-color="#FFC11D"/>
<stop offset="0.8999" stop-color="#FFAA25"/>
<stop offset="1" stop-color="#FF9A2B"/>
</linearGradient>
<linearGradient id="paint2_linear_1347_53141" x1="52.9486" y1="253.294" x2="52.9486" y2="0.395779" gradientUnits="userSpaceOnUse">
<stop stop-color="#E24100"/>
<stop offset="1" stop-color="#FF9500"/>
</linearGradient>
</defs>
</svg>
