<svg width="198" height="284" viewBox="0 0 198 284" fill="none" xmlns="http://www.w3.org/2000/svg">
<path d="M108.482 44.2925L173.548 177.48L37.9922 249.557L108.482 44.2925Z" fill="url(#paint0_linear_1347_53176)"/>
<path d="M114.563 6.13439L114.553 6.13094C113.323 5.68509 100.832 1.01759 99.5296 0.920064C93.6081 0.491631 88.2231 8.62489 86.2691 14.3339L1.85371 260.185C-1.0269 268.573 0.234009 276.985 5.11049 278.747L18.7124 283.658C13.2681 281.69 13.0069 272.226 15.4556 265.096L99.8709 19.2452C102.24 12.3275 108.537 3.95739 114.563 6.13439Z" fill="url(#paint1_linear_1347_53176)"/>
<path d="M195.998 169.107C197.802 172.792 197.708 178.578 195.754 184.259C193.8 189.944 190.289 194.663 186.531 196.659L24.1997 282.973C20.4413 284.972 17.0243 283.934 15.22 280.249C13.4157 276.564 13.5098 270.778 15.4638 265.097L99.8792 19.2459C101.833 13.5334 105.344 8.81371 109.103 6.81435C112.861 4.81499 116.278 5.85296 118.082 9.56605L195.998 169.107ZM38.0106 249.559L173.566 177.481L108.5 44.2936L38.0106 249.559Z" fill="url(#paint2_linear_1347_53176)"/>
<defs>
<linearGradient id="paint0_linear_1347_53176" x1="105.77" y1="249.557" x2="105.77" y2="44.2911" gradientUnits="userSpaceOnUse">
<stop stop-color="white"/>
<stop offset="1" stop-color="#D6E6EE"/>
</linearGradient>
<linearGradient id="paint1_linear_1347_53176" x1="57.4452" y1="283.659" x2="57.4452" y2="0.904382" gradientUnits="userSpaceOnUse">
<stop stop-color="#760000"/>
<stop offset="1" stop-color="#E70000"/>
</linearGradient>
<linearGradient id="paint2_linear_1347_53176" x1="105.609" y1="283.977" x2="105.609" y2="5.81781" gradientUnits="userSpaceOnUse">
<stop stop-color="#BB1111"/>
<stop offset="1" stop-color="#FF3111"/>
</linearGradient>
</defs>
</svg>
