<svg width="164" height="287" viewBox="0 0 164 287" fill="none" xmlns="http://www.w3.org/2000/svg">
<path d="M89.9702 67.7189C92.0253 66.6251 95.5085 75.7407 95.3762 83.8704C95.3379 86.2704 95.1219 99.6459 94.8676 115.672C97.2049 116.358 101.301 117.539 106.108 118.929C105.996 116.247 105.979 112.45 106.059 107.483C106.118 107.386 107.254 105.532 109.407 104.386C111.657 103.188 112.66 103.906 112.712 103.944C112.569 112.833 112.249 118.208 111.709 120.594C124.322 124.324 138.766 128.731 139.759 129.657C141.518 131.294 140.679 138.706 140.637 139.093L94.4636 140.73C94.1606 159.581 93.8889 176.541 93.8401 179.645C93.76 184.723 93.0007 192.038 92.0323 199.297C94.481 200.289 101.576 203.146 101.918 203.693C102.883 205.222 102.377 209.13 102.35 209.339L89.8205 213.735C88.7302 220.022 87.7863 224.498 87.4519 224.675C87.1384 224.843 86.3234 221.304 85.4178 216.079L72.8155 225.045C72.7946 224.863 72.4079 221.429 73.439 218.837C73.8012 217.918 81.095 207.409 83.6343 203.762C82.8819 197.419 82.3491 190.794 82.4292 185.712C82.478 182.609 82.7496 165.649 83.0526 146.798L36.12 194.668C36.0886 194.319 35.4965 187.67 37.3356 184.117C38.3562 182.118 53.2121 162.134 66.1626 144.813C65.6889 142.966 65.5182 137.853 65.661 128.964C65.7167 128.87 66.7791 127.055 69.0293 125.857C71.1819 124.711 72.2791 125.38 72.3348 125.415C72.2547 130.382 72.1154 134.258 71.9134 137.108C76.8491 130.538 81.0532 124.944 83.4532 121.74C83.7109 105.71 83.9235 92.3346 83.9618 89.9382C84.0976 81.8084 87.9151 68.8126 89.9702 67.7189ZM26.1093 74.7584C21.1771 77.3813 17.053 85.309 16.9381 92.4496L13.9634 277.874C13.8484 284.987 17.788 288.627 22.7202 286.004L151.33 217.622C156.262 214.999 160.369 207.082 160.481 199.969L163.452 14.5443C163.567 7.40376 159.648 3.75336 154.716 6.37621L26.1093 74.7584ZM149.627 202.944L24.9111 269.257L27.7952 89.447L152.508 23.1339L149.627 202.944Z" fill="url(#paint0_linear_1347_53210)"/>
<path d="M27.786 89.4474L152.498 23.1343L149.614 202.944L24.8984 269.257L27.786 89.4474ZM140.628 139.093C140.673 138.703 141.509 131.295 139.75 129.658C138.757 128.731 124.312 124.325 111.7 120.594C112.243 118.208 112.56 112.834 112.703 103.945C112.651 103.906 111.648 103.192 109.397 104.387C107.245 105.533 106.109 107.386 106.05 107.483C105.97 112.451 105.987 116.247 106.099 118.929C101.288 117.543 97.1957 116.362 94.8585 115.672C95.1162 99.6428 95.3287 86.2673 95.367 83.8708C95.4959 75.7445 92.0162 66.629 89.9611 67.7192C87.906 68.813 84.0884 81.8088 83.956 89.9351C83.9177 92.335 83.7018 105.71 83.4475 121.737C81.0476 124.945 76.8434 130.535 71.9077 137.105C72.1097 134.255 72.2491 130.375 72.3292 125.411C72.27 125.377 71.1762 124.708 69.0236 125.854C66.7735 127.052 65.7111 128.863 65.6553 128.961C65.5125 137.85 65.6832 142.963 66.1569 144.809C53.2064 162.131 38.3506 182.115 37.33 184.114C35.4874 187.667 36.083 194.316 36.1143 194.664L83.047 146.795C82.7439 165.646 82.4722 182.606 82.4234 185.709C82.3433 190.788 82.8763 197.416 83.6286 203.759C81.0859 207.406 73.7956 217.911 73.4333 218.834C72.4023 221.426 72.789 224.86 72.8099 225.041L85.412 216.076C86.3176 221.3 87.1363 224.839 87.4463 224.672C87.7772 224.495 88.7246 220.019 89.8148 213.731L102.344 209.336C102.372 209.13 102.877 205.219 101.912 203.689C101.571 203.143 94.4754 200.286 92.0267 199.294C92.9985 192.035 93.7543 184.72 93.8344 179.641C93.8832 176.538 94.1549 159.578 94.4579 140.727L140.628 139.093Z" fill="url(#paint1_linear_1347_53210)"/>
<path d="M159.351 5.79498L159.344 5.79147C146.986 1.3295 149.755 2.32919 145.749 0.883658L145.742 0.88015C144.237 0.340254 142.52 0.712982 141.109 1.46187L12.4994 69.8441C7.22233 72.6515 3.43252 81.1261 3.32802 87.5352L0.353462 272.96C0.301214 276.304 1.31821 280.539 4.45309 281.671L18.055 286.583C14.9166 285.447 13.9031 281.198 13.9554 277.871L16.9299 92.4465C17.0518 84.78 21.5975 77.1518 26.1013 74.7553L154.711 6.37319C156.133 5.61734 157.832 5.24812 159.351 5.79498Z" fill="url(#paint2_linear_1347_53210)"/>
<defs>
<linearGradient id="paint0_linear_1347_53210" x1="88.7108" y1="286.855" x2="88.7108" y2="5.52667" gradientUnits="userSpaceOnUse">
<stop stop-color="white"/>
<stop offset="1" stop-color="#D6E6EE"/>
</linearGradient>
<linearGradient id="paint1_linear_1347_53210" x1="88.7019" y1="269.256" x2="88.7019" y2="23.1353" gradientUnits="userSpaceOnUse">
<stop stop-color="#408D4D"/>
<stop offset="1" stop-color="#316A2A"/>
</linearGradient>
<linearGradient id="paint2_linear_1347_53210" x1="79.8498" y1="286.585" x2="79.8498" y2="0.625875" gradientUnits="userSpaceOnUse">
<stop stop-color="#81879C"/>
<stop offset="1" stop-color="#B7BEC1"/>
</linearGradient>
</defs>
</svg>
