<svg width="185" height="254" viewBox="0 0 185 254" fill="none" xmlns="http://www.w3.org/2000/svg">
<path d="M138.414 134.937C142.162 132.944 146.178 131.725 150.121 131.642L126.937 176.143L108.323 186.039L113.701 164.098L87.5452 146.891C90.0183 151.256 92.2928 155.784 92.547 158.079C92.9162 161.576 91.2827 194.534 90.708 195.402L85.6956 198.066C85.5424 196.778 85.4483 167.533 84.9502 165.784C84.5635 164.422 81.0246 158.919 78.4958 155.676C78.3878 158.044 76.3398 203.04 75.4585 203.51C74.7932 203.866 69.9968 206.416 69.7425 206.548C68.9971 206.945 70.2268 154.46 70.2929 151.698C70.1083 151.465 66.5833 147.041 68.6 138.58C68.809 137.713 69.1191 136.487 69.5127 135.017L62.1213 130.133C62.2223 129.36 64.1172 114.665 65.096 112.773C66.2768 110.523 80.1539 97.043 80.3699 96.9037C80.7809 96.6181 81.2093 96.3569 81.6447 96.127C85.6295 94.0092 90.4363 94.2181 91.3523 99.4325C91.6066 101.874 96.4483 148.257 96.208 148.748L121.729 165.565C117.414 155.237 126.578 141.227 138.414 134.937ZM83.86 140.625L90.6209 145.059C90.1646 142.056 87.1725 120.426 87.068 117.235C86.9147 117.845 84.0202 129.43 81.9895 137.535C82.4807 138.34 83.1215 139.423 83.86 140.625ZM70.4008 131.753C72.0937 125.452 74.5006 116.842 76.1516 110.732L68.5304 117.723L66.5416 129.217L70.4008 131.753ZM97.3295 78.8816C97.4166 73.4652 94.435 70.6856 90.6766 72.6815C86.9182 74.6809 83.7938 80.7068 83.7067 86.1232C83.6196 91.5431 86.6012 94.3192 90.3596 92.3233C94.118 90.3239 97.2424 84.298 97.3295 78.8816ZM179.571 81.0343C180.623 82.013 181.177 83.7615 181.142 85.9351C181.107 88.1086 180.487 90.4807 179.387 92.6054L101.471 242.899C100.37 245.023 98.9457 246.619 97.4201 247.43C95.9119 248.231 94.4977 248.144 93.4666 247.155L19.0516 177.86C18.0206 176.871 17.4667 175.122 17.5015 172.949C17.5364 170.775 18.1564 168.403 19.2396 166.289L97.1762 15.9889C98.2595 13.8746 99.7016 12.2689 101.206 11.4677C102.732 10.6562 104.129 10.7538 105.181 11.7325L179.571 81.0343ZM176.882 90.2438C177.262 89.481 177.488 88.6624 177.502 87.8717C177.516 87.081 177.311 86.4924 176.949 86.1232L102.533 16.8284C102.171 16.4627 101.666 16.4487 101.119 16.7413C100.572 17.0339 100.078 17.5738 99.6772 18.3471L21.7615 168.637C21.3818 169.4 21.1554 170.218 21.1414 171.009C21.1275 171.799 21.3331 172.388 21.6954 172.757L96.0894 242.063C96.4726 242.418 96.9568 242.442 97.5036 242.15C98.0505 241.857 98.566 241.307 98.9457 240.544L176.882 90.2438Z" fill="url(#paint0_linear_1347_53119)"/>
<path d="M66.5532 129.218L68.542 117.723L76.1632 110.732C74.5122 116.842 72.1053 125.452 70.4124 131.753L66.5532 129.218ZM82.0011 137.539C82.4923 138.34 83.1366 139.427 83.8716 140.629L90.6325 145.063C90.1762 142.06 87.1841 120.429 87.0796 117.239C86.9298 117.848 84.0319 129.434 82.0011 137.539ZM101.131 16.7416C100.584 17.0342 100.089 17.5741 99.6888 18.3474L21.7731 168.637C21.3934 169.4 21.167 170.218 21.153 171.009C21.1391 171.8 21.3447 172.392 21.707 172.758L96.101 242.063C96.4842 242.418 96.9684 242.439 97.5152 242.15C98.0621 241.857 98.5776 241.307 98.9573 240.544L176.894 90.2407C177.274 89.4779 177.5 88.6593 177.514 87.8686C177.528 87.0779 177.322 86.4892 176.96 86.12L102.545 16.8252C102.183 16.4594 101.678 16.449 101.131 16.7416ZM126.945 176.143L108.331 186.039L113.709 164.098L87.5533 146.895C90.0264 151.259 92.301 155.784 92.5552 158.083C92.9245 161.58 91.2908 194.538 90.7161 195.405L85.7073 198.07C85.554 196.781 85.4599 167.536 84.9618 165.788C84.5751 164.426 81.0362 158.922 78.5074 155.68C78.3994 158.048 76.3514 203.048 75.4701 203.514C74.8049 203.87 70.0084 206.419 69.7541 206.552C69.0087 206.949 70.2384 154.464 70.3046 151.702C70.1199 151.468 66.5949 147.045 68.6116 138.584C68.8206 137.717 69.1307 136.491 69.5243 135.021L62.1329 130.137C62.234 129.364 64.1288 114.668 65.1076 112.777C66.2884 110.527 80.1655 97.0469 80.3815 96.9075C80.7925 96.6219 81.2209 96.3606 81.6563 96.1307C85.6411 94.0129 90.4479 94.2219 91.3639 99.4363C91.6182 101.878 96.4599 148.26 96.2196 148.751L121.741 165.568C117.425 155.241 126.59 141.231 138.425 134.937C142.173 132.945 146.19 131.726 150.133 131.642L126.945 176.143ZM90.6847 72.6818C94.4431 70.6824 97.4247 73.462 97.3376 78.8819C97.2505 84.2983 94.1261 90.3242 90.3677 92.3236C86.6093 94.323 83.6277 91.5434 83.7148 86.1235C83.8054 80.7071 86.9298 74.6812 90.6847 72.6818ZM107.833 6.62995C106.056 4.97195 103.691 4.92666 101.309 6.19455C98.926 7.46243 96.5226 10.0399 94.6591 13.6311L16.7433 163.952C13.0198 171.11 12.8839 179.63 16.4403 182.943L90.8345 252.248C92.6109 253.906 94.9761 253.948 97.3586 252.683C99.7411 251.415 102.144 248.838 104.008 245.246L181.924 94.9534C185.647 87.7676 185.787 79.2477 182.227 75.963L107.833 6.62995ZM179.398 92.6057L101.483 242.895C100.382 245.02 98.9573 246.615 97.4317 247.427C95.9235 248.228 94.5093 248.141 93.4782 247.152L19.0632 177.857C18.0322 176.868 17.4783 175.119 17.5132 172.946C17.548 170.772 18.168 168.4 19.2513 166.286L97.1878 15.9857C98.2711 13.8714 99.7132 12.2658 101.218 11.4646C102.744 10.653 104.14 10.7505 105.192 11.7293L179.586 81.0346C180.638 82.0133 181.192 83.7618 181.157 85.9354C181.119 88.1089 180.499 90.481 179.398 92.6057Z" fill="url(#paint1_linear_1347_53119)"/>
<path d="M91.493 0.439684C91.4512 0.436201 91.4129 0.425734 91.3711 0.422251C87.1181 0.0530315 83.0393 4.89466 81.0609 8.7227L3.1451 159.044C-0.00022763 165.087 -1.24718 174.223 2.8421 178.034L77.2362 247.339C77.7517 247.82 78.316 248.165 78.9151 248.381L92.517 253.292C91.9179 253.076 91.3536 252.731 90.8381 252.251L16.4439 182.945C12.3651 179.145 13.5877 170.026 16.747 163.955L94.6628 13.634C96.885 9.34969 101.692 3.9786 106.154 5.58784C105.011 5.17334 92.5798 0.561596 91.493 0.439684Z" fill="url(#paint2_linear_1347_53119)"/>
<defs>
<linearGradient id="paint0_linear_1347_53119" x1="99.3219" y1="247.968" x2="99.3219" y2="10.9171" gradientUnits="userSpaceOnUse">
<stop stop-color="#274158"/>
<stop offset="0.4181" stop-color="#1F3144"/>
<stop offset="0.9949" stop-color="#121622"/>
</linearGradient>
<linearGradient id="paint1_linear_1347_53119" x1="99.3335" y1="253.572" x2="99.3335" y2="5.30913" gradientUnits="userSpaceOnUse">
<stop stop-color="#FFDE13"/>
<stop offset="0.2893" stop-color="#FFDB14"/>
<stop offset="0.5124" stop-color="#FFD118"/>
<stop offset="0.7132" stop-color="#FFC11D"/>
<stop offset="0.8999" stop-color="#FFAA25"/>
<stop offset="1" stop-color="#FF9A2B"/>
</linearGradient>
<linearGradient id="paint2_linear_1347_53119" x1="53.2029" y1="253.292" x2="53.2029" y2="0.401696" gradientUnits="userSpaceOnUse">
<stop stop-color="#E24100"/>
<stop offset="1" stop-color="#FF9500"/>
</linearGradient>
</defs>
</svg>
