<svg width="323" height="157" viewBox="0 0 323 157" fill="none" xmlns="http://www.w3.org/2000/svg">
<path d="M90.3153 156.993C90.3153 156.993 91.2543 156.177 93.0084 154.652C93.8686 153.875 94.924 152.913 96.1711 151.775C96.7946 151.219 97.4181 150.551 98.158 149.935C98.943 149.383 99.7731 148.804 100.652 148.181C102.376 146.896 104.292 145.488 106.365 143.948C108.634 142.693 111.038 141.292 113.577 139.714C116.157 138.212 119.173 137.16 122.137 135.613C123.591 134.753 125.322 134.437 126.956 133.81C128.62 133.247 130.318 132.631 132.042 131.977C133.788 131.429 135.674 131.139 137.514 130.643C139.392 130.268 141.225 129.498 143.227 129.329C147.198 128.961 151.209 127.86 155.48 127.98C163.954 127.143 172.927 128.311 181.979 129.911C184.21 130.505 186.46 131.057 188.751 131.556C191.024 132.093 193.168 133.134 195.426 133.825L198.806 134.941L202.018 136.496C204.144 137.574 206.427 138.374 208.523 139.553C217.012 144.154 224.75 150.25 232.052 157L322.348 66.6998C306.325 51.2209 288.404 37.5299 268.94 27.0467C264.106 24.3911 259.039 22.2276 254.1 19.8876C251.598 18.7645 249.119 17.6489 246.64 16.5259C244.079 15.6094 241.536 14.6929 238.997 13.7839C233.877 12.0524 228.859 10.0879 223.709 8.72821C218.56 7.40606 213.418 6.14402 208.309 4.9571C187.775 0.923052 167.439 -0.962486 148.279 0.483611C138.66 0.667659 129.446 2.39919 120.503 3.66875C116.03 4.27724 111.744 5.57682 107.488 6.52336C103.263 7.59385 99.067 8.51037 95.0592 9.74237C62.9258 19.6885 38.4699 34.5251 23.2014 46.6423C21.237 48.1184 19.3852 49.5044 17.6424 50.8077C15.9634 52.1862 14.4722 53.5722 13.0487 54.8192C10.2316 57.3583 7.83148 59.5144 5.8971 61.2685C2.05461 64.803 0 66.696 0 66.696L90.3153 156.993Z" fill="#A8A8A8"/>
<path d="M85.0017 151.678C85.0017 151.678 86.0009 150.799 87.8789 149.162C88.8029 148.316 89.941 147.291 91.2744 146.074C91.943 145.473 92.6304 144.759 93.4229 144.11C94.2605 143.509 95.147 142.878 96.0935 142.209C97.949 140.831 100.011 139.309 102.25 137.66C104.676 136.304 107.268 134.791 109.999 133.104C112.786 131.497 116.016 130.347 119.212 128.695C120.782 127.786 122.63 127.425 124.399 126.749C126.184 126.11 128.002 125.457 129.865 124.784C131.75 124.199 133.76 123.861 135.747 123.338C137.771 122.937 139.743 122.121 141.888 121.93C146.151 121.505 150.478 120.375 155.057 120.476C164.154 119.605 173.807 120.807 183.528 122.553C185.921 123.184 188.347 123.77 190.807 124.323C193.256 124.908 195.555 126.001 197.981 126.756L201.621 127.966L205.092 129.619C207.379 130.779 209.832 131.658 212.082 132.928C221.224 137.871 229.555 144.418 237.368 151.678L317.042 72.0001C301.533 57.0359 284.214 43.7918 265.392 33.6541C260.727 31.085 255.818 29.0041 251.044 26.7354C248.636 25.6574 246.232 24.5719 243.832 23.4864C241.36 22.6074 238.896 21.7172 236.436 20.8383C231.493 19.1669 226.637 17.2513 221.66 15.9442C216.657 14.7197 211.691 13.5027 206.767 12.297C186.908 8.40188 167.234 6.56143 148.709 7.96996C139.409 8.13898 130.492 9.83295 121.845 11.0499C117.518 11.6209 113.379 12.898 109.262 13.8069C105.176 14.8474 101.119 15.7301 97.2467 16.917C66.1725 26.5439 42.5128 40.8696 27.7589 52.6074C25.8658 54.0234 24.0704 55.3643 22.3802 56.6264C20.765 57.9598 19.3227 59.3045 17.9405 60.514C15.2173 62.9629 12.8998 65.055 11.0217 66.7415C7.30319 70.1671 5.3125 71.9926 5.3125 71.9926L85.0017 151.678Z" fill="#575757"/>
<path d="M47.8192 114.495L42.5156 109.177C45.7834 105.916 50.5236 101.698 53.2205 99.5047C54.291 98.6295 55.9625 97.3412 57.5926 96.0866C58.8021 95.1589 59.989 94.2461 60.8679 93.5437L64.5188 90.8506L68.9736 96.9016L65.4391 99.5009C64.6428 100.139 63.422 101.078 62.175 102.04C60.6125 103.238 59.0124 104.47 57.9757 105.319C55.4666 107.362 50.8805 111.445 47.8192 114.495Z" fill="white"/>
<path d="M274.425 114.62C271.014 111.221 267.408 107.934 263.701 104.847L268.509 99.0738C272.381 102.3 276.156 105.741 279.724 109.302L274.425 114.62ZM230.155 83.3019L228.683 82.6108C217.238 77.2659 205.019 73.2882 192.331 70.7716L193.792 63.4059C207.074 66.0352 219.871 70.2082 231.834 75.7935L233.408 76.5298L230.155 83.3019ZM113.438 74.8658L111.016 67.7555L112.049 67.4024C112.8 67.0944 114.036 66.7338 115.527 66.4071L127.234 63.5411C128.985 63.0566 130.878 62.8087 132.876 62.542C133.898 62.4068 134.957 62.2716 136.035 62.0876C137.282 61.9261 138.39 61.757 139.528 61.5805C141.737 61.2424 144.024 60.8931 146.507 60.7166L152.194 60.4424L152.554 67.9471L146.965 68.2137C144.866 68.3677 142.728 68.6945 140.662 69.01C139.453 69.194 138.274 69.3744 137.128 69.5171C136.118 69.6936 134.968 69.8476 133.853 69.9941C132.117 70.2232 130.48 70.4374 129.124 70.813L117.221 73.7239C115.651 74.0695 114.903 74.3362 114.652 74.4376L113.438 74.8658Z" fill="white"/>
<path d="M14.5741 81.3518L12.0312 78.5873L25.3654 66.4927C26.2894 65.6588 27.2585 64.7911 28.3064 63.9272L33.4861 60.0622C43.8304 51.8176 66.2918 36.3575 99.9577 25.9193C102.61 25.1004 105.382 24.4319 108.06 23.7821L111.463 22.9445C112.773 22.6515 114.032 22.336 115.298 22.0205C117.972 21.3481 120.74 20.657 123.621 20.2739C125.492 20.0185 127.388 19.7293 129.297 19.44C135.734 18.4635 142.398 17.4531 149.32 17.3366C165.772 16.0596 183.963 17.4155 204.813 21.4721L219.03 24.9577C222.388 25.8291 225.667 26.9973 228.841 28.1279C230.287 28.6462 231.737 29.1608 233.201 29.6528L240.259 32.1657L247.223 35.3095C248.616 35.9743 249.984 36.6016 251.358 37.2327C254.536 38.69 257.823 40.1962 260.978 41.939C278.049 51.1339 294.681 63.4765 310.389 78.6173L307.786 81.3254C292.322 66.4212 275.968 54.2816 259.179 45.2407C256.132 43.5579 252.91 42.078 249.792 40.6469C248.406 40.0122 247.02 39.3774 245.645 38.7201L238.851 35.6476L231.973 33.2061C230.523 32.7216 229.051 32.1995 227.582 31.6737C224.483 30.5694 221.28 29.4313 218.113 28.6049L204.009 25.1493C183.587 21.1791 165.731 19.8532 149.501 21.0965C142.713 21.2129 136.181 22.2045 129.864 23.1623C127.937 23.4553 126.029 23.7408 124.128 24.0075C121.45 24.3643 118.791 25.0253 116.218 25.6714C114.918 25.9982 113.626 26.3212 112.334 26.6066L108.954 27.4405C106.212 28.1053 103.62 28.7326 101.077 29.5176C68.0008 39.7718 45.9751 54.9314 35.7848 63.0483L30.6315 66.8908C29.6962 67.6645 28.7684 68.4984 27.8858 69.2947L14.5741 81.3518Z" fill="white"/>
<path d="M78.2984 145.112L75.7969 142.31L83.5345 135.346C84.0378 134.873 84.5599 134.385 85.127 133.908L88.0193 131.831C93.6684 127.203 106.041 118.545 126.05 112.205C127.353 111.792 128.709 111.484 130.08 111.176C130.929 110.984 131.785 110.793 132.638 110.567C133.532 110.379 134.321 110.162 135.113 109.944C136.571 109.542 138.077 109.129 139.718 108.971C141.262 108.806 142.839 108.562 144.428 108.314C147.643 107.81 150.96 107.333 154.468 107.341C163.081 106.545 172.926 107.251 186.204 109.681L194.35 111.657C196.082 112.073 197.746 112.689 199.35 113.29C200.364 113.666 201.374 114.042 202.407 114.369L206.456 115.736L210.494 117.629C211.542 118.155 212.579 118.613 213.615 119.071C215.178 119.766 216.793 120.483 218.352 121.359C227.705 126.422 236.963 133.284 246.632 142.333L244.062 145.075C234.631 136.248 225.627 129.566 216.53 124.645C215.073 123.823 213.578 123.161 212.087 122.504C210.997 122.02 209.912 121.535 208.849 121.009L205.052 119.214L201.239 117.937C200.184 117.606 199.113 117.208 198.039 116.81C196.465 116.224 194.982 115.672 193.46 115.308L185.422 113.354C172.595 111.01 163.058 110.301 154.615 111.086C151.073 111.056 148.06 111.54 145.003 112.017C143.354 112.273 141.72 112.528 140.094 112.704C138.753 112.832 137.464 113.189 136.101 113.561C135.23 113.805 134.366 114.038 133.494 114.218C132.694 114.436 131.793 114.635 130.903 114.838C129.637 115.123 128.386 115.401 127.18 115.784C107.773 121.933 95.8431 130.276 90.4569 134.696L87.4145 136.879C87.0163 137.217 86.5506 137.656 86.0999 138.077L78.2984 145.112Z" fill="white"/>
</svg>
