<svg width="147" height="365" viewBox="0 0 147 365" fill="none" xmlns="http://www.w3.org/2000/svg">
<path d="M146.681 97.4142C146.56 91.097 145.425 85.0389 144.588 79.1682C144.189 76.2292 143.335 73.416 142.713 70.6201C142.005 67.8415 141.405 65.0876 140.593 62.4546C134.064 41.3361 124.319 25.2691 116.351 15.2404C115.383 13.9523 114.475 12.7382 113.614 11.5907C112.708 10.4876 111.798 9.50797 110.979 8.57025C109.313 6.72195 107.894 5.14512 106.742 3.8718C104.419 1.34489 103.178 0 103.178 0L43.8501 59.328C43.8501 59.328 44.3832 59.9425 45.385 61.0949C45.8958 61.66 46.53 62.3559 47.2753 63.1751C47.6429 63.5848 48.0822 63.9944 48.4844 64.4805C48.8472 64.9938 49.2297 65.5416 49.6393 66.1191C50.4783 67.2517 51.4062 68.5103 52.4204 69.8749C53.2421 71.3654 54.1626 72.9447 55.2015 74.6079C56.1861 76.3057 56.8746 78.2872 57.8937 80.2342C58.4588 81.1892 58.6661 82.3269 59.0782 83.4003C59.4508 84.496 59.8506 85.6039 60.2824 86.7391C60.6477 87.8865 60.8352 89.1203 61.1609 90.3369C61.4077 91.5707 61.9161 92.7726 62.0222 94.0878C62.2665 96.6962 62.987 99.3366 62.9081 102.142C63.4583 107.705 62.6958 113.602 61.6396 119.547C61.2522 121.013 60.8919 122.491 60.5613 123.999C60.2059 125.494 59.5248 126.898 59.0708 128.381L58.3404 130.602L57.3187 132.717C56.6081 134.111 56.0849 135.614 55.3076 136.991C52.2871 142.565 48.2821 147.651 43.8477 152.444L43.823 152.419H43.8205C33.6537 162.944 24.6589 174.717 17.7692 187.509C16.0245 190.683 14.6056 194.014 13.0682 197.259C12.3304 198.898 11.5975 200.529 10.8621 202.158C10.2575 203.838 9.65544 205.511 9.05579 207.182C7.92066 210.545 6.63006 213.84 5.73675 217.22C4.8706 220.608 4.04144 223.984 3.25672 227.34C0.606428 240.829 -0.632335 254.194 0.317723 266.779C0.441107 273.096 1.57622 279.154 2.4103 285.027C2.81006 287.966 3.66389 290.779 4.28328 293.575C4.9915 296.354 5.59117 299.11 6.40304 301.741C12.9325 322.857 22.6799 338.926 30.6455 348.955C31.6104 350.243 32.521 351.46 33.3822 352.607C34.2879 353.708 35.1984 354.69 36.0177 355.625C37.6858 357.476 39.1023 359.05 40.2547 360.324C42.5793 362.848 43.8205 364.196 43.8205 364.196L103.149 304.867C103.149 304.867 102.616 304.253 101.614 303.101C101.103 302.535 100.469 301.84 99.7234 301.02C99.3558 300.611 98.9165 300.199 98.5118 299.715C98.149 299.202 97.7666 298.654 97.3569 298.076C96.5154 296.941 95.5876 295.685 94.5758 294.321C93.7541 292.83 92.8336 291.251 91.7947 289.588C90.8126 287.89 90.1217 285.908 89.1025 283.961C88.5374 283.006 88.3301 281.869 87.918 280.795C87.5454 279.7 87.1457 278.592 86.7138 277.456C86.3511 276.309 86.161 275.075 85.8353 273.859C85.5885 272.625 85.0827 271.423 84.9741 270.108C84.7273 267.499 84.0068 264.859 84.0857 262.053C83.5354 256.491 84.2979 250.593 85.3541 244.649C85.7415 243.183 86.1018 241.705 86.4325 240.197C86.7854 238.701 87.4689 237.297 87.9254 235.814L88.6559 233.593L89.675 231.479C90.3857 230.084 90.9088 228.582 91.6886 227.205C94.7091 221.63 98.7142 216.544 103.149 211.752L103.176 211.777H103.178C113.345 201.252 122.34 189.479 129.23 176.686C130.972 173.513 132.393 170.181 133.93 166.936C134.668 165.298 135.401 163.667 136.137 162.038C136.741 160.357 137.343 158.684 137.943 157.014C139.078 153.65 140.369 150.356 141.262 146.975C142.126 143.587 142.955 140.211 143.742 136.855C146.395 123.367 147.633 110.002 146.681 97.4142Z" fill="#A8A8A8"/>
<path d="M141.763 97.6956C141.65 91.5832 140.539 85.7298 139.742 80.0467C139.362 77.204 138.526 74.487 137.926 71.78C137.242 69.0927 136.665 66.43 135.878 63.8858C129.558 43.4707 120.144 27.9317 112.437 18.2362C111.504 16.9925 110.623 15.8129 109.797 14.7024C108.921 13.6364 108.037 12.6913 107.24 11.7857C105.629 9.99415 104.259 8.47403 103.144 7.24019C100.896 4.79471 99.6966 3.48926 99.6966 3.48926L47.3496 55.8388C47.3496 55.8388 47.9246 56.4976 49.0029 57.729C49.5557 58.336 50.2343 59.0837 51.0314 59.9622C51.4312 60.4015 51.8951 60.8457 52.3269 61.3688C52.7193 61.9216 53.1339 62.5064 53.5731 63.1258C54.4787 64.3473 55.4757 65.6996 56.5639 67.1703C57.4523 68.7669 58.4443 70.4697 59.5548 72.2612C60.606 74.0873 61.3685 76.2144 62.4518 78.3119C63.049 79.3459 63.2859 80.5576 63.7276 81.7198C64.1496 82.892 64.579 84.0863 65.0182 85.3103C65.4081 86.5491 65.6228 87.8693 65.9683 89.1772C66.2348 90.5048 66.7678 91.8027 66.8912 93.2093C67.17 96.0101 67.9128 98.853 67.8486 101.864C68.4211 107.84 67.6315 114.175 66.484 120.564C66.0719 122.141 65.6845 123.732 65.3242 125.346C64.9368 126.955 64.2211 128.468 63.7227 130.062L62.9281 132.453L61.8398 134.731C61.0798 136.233 60.5073 137.845 59.6683 139.325C56.4233 145.327 52.1221 150.803 47.352 155.93L47.3274 155.906L47.3249 155.908C37.4937 166.092 28.7926 177.471 22.1348 189.844C20.4469 192.909 19.0773 196.132 17.5918 199.268C16.8786 200.852 16.1655 202.429 15.4573 204.006C14.8749 205.63 14.295 207.246 13.7151 208.862C12.6194 212.112 11.3609 215.3 10.5021 218.573C9.69766 221.86 8.89815 225.119 8.10602 228.359C5.5495 241.404 4.33538 254.327 5.26323 266.5C5.37427 272.612 6.4872 278.468 7.28426 284.149C7.66428 286.992 8.50085 289.709 9.10049 292.416C9.78404 295.103 10.3615 297.766 11.1462 300.31C17.4659 320.725 26.8802 336.266 34.5867 345.959C35.5195 347.206 36.4005 348.385 37.2271 349.493C38.1056 350.559 38.9866 351.507 39.7837 352.412C41.3951 354.201 42.7671 355.722 43.8776 356.958C46.1256 359.403 47.3249 360.704 47.3249 360.704L99.6719 308.354C99.6719 308.354 99.0969 307.695 98.0186 306.464C97.4658 305.857 96.7872 305.109 95.9901 304.231C95.5903 303.792 95.1289 303.347 94.6946 302.824C94.3022 302.272 93.8876 301.687 93.4484 301.067C92.5452 299.846 91.5458 298.494 90.4576 297.023C89.5692 295.426 88.5772 293.723 87.4667 291.932C86.4155 290.106 85.653 287.979 84.5697 285.881C83.9725 284.847 83.7356 283.636 83.2939 282.473C82.8719 281.301 82.4425 280.107 82.0033 278.883C81.6134 277.644 81.3987 276.321 81.0532 275.016C80.7867 273.688 80.2537 272.39 80.1303 270.984C79.8515 268.183 79.1087 265.34 79.1728 262.33C78.6003 256.353 79.39 250.018 80.5375 243.63C80.9496 242.053 81.337 240.461 81.6973 238.847C82.0847 237.238 82.8003 235.726 83.2988 234.131L84.0934 231.74L85.1816 229.463C85.9417 227.96 86.5142 226.348 87.3532 224.868C90.6007 218.866 94.8994 213.391 99.6694 208.263L99.6941 208.287L99.6966 208.285C109.528 198.101 118.229 186.722 124.887 174.349C126.575 171.284 127.944 168.062 129.43 164.925C130.143 163.341 130.856 161.764 131.564 160.187C132.147 158.563 132.727 156.947 133.306 155.331C134.402 152.081 135.661 148.893 136.519 145.62C137.324 142.334 138.123 139.074 138.915 135.834C141.477 122.792 142.689 109.866 141.763 97.6956Z" fill="#575757"/>
<path d="M83.3222 45.3043L81.6121 42.9723C81.2839 42.5651 80.8743 41.9951 80.44 41.3831C79.6775 40.3072 78.8878 39.1968 77.9526 38.2541L71.6797 31.3224L75.3393 28.0107L81.5307 34.8561C82.6757 36.0011 83.6257 37.3411 84.4648 38.5206C84.8398 39.0487 85.1903 39.5447 85.5283 39.9667L87.2976 42.3727L83.3222 45.3043Z" fill="white"/>
<path d="M96.7297 153.332L92.2656 151.227L92.7296 150.238C96.2361 142.724 98.8494 134.696 100.503 126.36L105.344 127.32C103.615 136.043 100.878 144.453 97.2084 152.313L96.7297 153.332Z" fill="white"/>
<path d="M102.345 100.227L102.17 96.5555C102.069 95.1785 101.854 93.7793 101.647 92.4221C101.526 91.6275 101.407 90.8502 101.314 90.0951C101.2 89.4362 101.099 88.6885 101.003 87.9606C100.852 86.8156 100.709 85.7347 100.462 84.8414L98.5499 77.0164C98.3155 75.9627 98.1428 75.4889 98.0811 75.3309L97.8047 74.5536L102.459 72.9102L102.701 73.5937C102.9 74.0873 103.135 74.8966 103.357 75.896L105.237 83.5928C105.558 84.7452 105.723 85.9938 105.899 87.3165C105.988 87.9852 106.076 88.6737 106.197 89.3794C106.301 90.1987 106.414 90.9292 106.528 91.6793C106.75 93.1279 106.98 94.6282 107.098 96.2618L107.278 99.9954L102.345 100.227Z" fill="white"/>
<path d="M71.6615 336.19L65.4701 329.342C64.3251 328.197 63.3726 326.855 62.5336 325.673C62.1609 325.147 61.813 324.654 61.4724 324.229L59.7031 321.823L63.6786 318.896L65.3887 321.224C65.7193 321.633 66.1265 322.203 66.5584 322.815C67.3233 323.894 68.1105 325.004 69.0458 325.944L75.3211 332.881L71.6615 336.19Z" fill="white"/>
<path d="M44.5414 291.274L44.3095 290.6C44.1071 290.106 43.8727 289.297 43.6531 288.303L41.7727 280.608C41.4519 279.456 41.2865 278.207 41.1113 276.885C41.0225 276.216 40.9337 275.527 40.8127 274.822C40.7066 274.002 40.5956 273.272 40.4821 272.522C40.26 271.073 40.0305 269.573 39.912 267.939L39.7344 264.206L44.6648 263.974L44.84 267.641C44.9412 269.018 45.1559 270.417 45.3631 271.774C45.4841 272.569 45.6025 273.346 45.6963 274.101C45.8098 274.76 45.9085 275.508 46.0048 276.236C46.1553 277.381 46.2984 278.461 46.5452 279.355L48.4576 287.177C48.6896 288.226 48.8623 288.705 48.9265 288.865L49.2078 289.665L44.5414 291.274Z" fill="white"/>
<path d="M46.5057 237.846L41.6641 236.886C43.3939 228.163 46.133 219.753 49.8025 211.891L50.2812 210.867L54.7403 212.981L54.2813 213.966C50.7723 221.48 48.159 229.51 46.5057 237.846Z" fill="white"/>
<path d="M78.119 173.247C76.0857 175.69 73.924 178.059 71.6981 180.292C69.3736 182.621 67.1107 185.121 64.9688 187.72L68.7788 190.856C70.8196 188.378 72.9789 185.995 75.1924 183.776C77.5243 181.439 79.7847 178.959 81.9119 176.403L78.119 173.247Z" fill="white"/>
<path d="M76.4596 101.466C76.4917 99.1759 76.1536 96.9994 75.8254 94.8969C75.6626 93.8432 75.4997 92.8018 75.3911 91.7728C75.285 90.7092 75.0185 89.732 74.7594 88.7869C74.6138 88.2539 74.4682 87.7258 74.3448 87.1262C74.1918 86.5512 74.061 85.9737 73.9327 85.4012C73.7328 84.5178 73.533 83.6418 73.2664 82.7954C69.1059 69.6574 63.4179 61.5289 60.4468 57.9162L59.0106 55.9125C58.7022 55.5423 58.3838 55.2042 58.0779 54.8785L53.4953 49.7827L51.6495 51.4213L55.7187 55.9618C55.8964 56.1617 56.0864 56.364 56.2838 56.5713C56.5553 56.86 56.8391 57.1586 57.0587 57.4177L58.4949 59.419C61.4018 62.9577 66.8801 70.7951 70.9172 83.5357C71.1615 84.3155 71.3441 85.1273 71.5292 85.9466C71.6649 86.5463 71.8031 87.1509 71.9462 87.6864C72.0647 88.2687 72.2226 88.8511 72.383 89.4359C72.6248 90.3218 72.8543 91.1584 72.9407 92.0246C73.0542 93.1005 73.222 94.1813 73.3923 95.272C73.7032 97.2757 74.0265 99.3461 74.0018 101.56C74.5151 107.129 74.0536 113.392 72.5163 121.802L71.2331 127.083C70.9888 128.082 70.626 129.057 70.2435 130.091C69.9819 130.794 69.7204 131.5 69.5008 132.196L68.6667 134.698L67.4847 137.198C67.1367 137.894 66.8184 138.607 66.5025 139.32C66.0682 140.3 65.6314 141.284 65.091 142.244C61.8633 148.216 57.4757 154.129 51.6742 160.328C41.7171 170.662 33.5935 181.552 27.5649 192.755C26.4224 194.828 25.4304 196.99 24.4705 199.08C24.0584 199.978 23.6462 200.877 23.2144 201.787L21.144 206.37L19.4931 211.009C19.1748 211.954 18.8392 212.894 18.5061 213.829C17.7608 215.927 16.9884 218.099 16.4085 220.315L14.121 229.652C11.4559 243.338 10.57 255.289 11.4041 266.11C11.4781 270.668 12.1444 275.053 12.786 279.297C12.976 280.543 13.161 281.78 13.3313 282.999C13.583 284.886 14.0371 286.698 14.4738 288.447C14.6836 289.286 14.8934 290.118 15.0834 290.984C15.2759 291.742 15.4585 292.494 15.6411 293.247C16.0655 294.996 16.5023 296.805 17.0378 298.54C23.8905 320.65 34.0475 335.412 39.4666 342.213L42.0083 345.619C42.5808 346.309 43.1533 346.951 43.7036 347.561L51.6372 356.309L53.4559 354.64L45.5395 345.912C45.0114 345.325 44.4587 344.713 43.9503 344.096L41.421 340.708C36.0834 334.011 26.1263 319.533 19.3944 297.81C18.8811 296.151 18.4715 294.461 18.0372 292.667C17.8521 291.907 17.6695 291.144 17.482 290.414C17.292 289.56 17.0797 288.709 16.8626 287.848C16.4406 286.162 16.0038 284.422 15.7694 282.668C15.5991 281.429 15.4091 280.18 15.2191 278.924C14.5898 274.764 13.9359 270.46 13.8619 265.996C13.0402 255.321 13.9162 243.587 16.5245 230.18L18.7948 220.917C19.3426 218.819 20.0953 216.702 20.8232 214.654C21.1613 213.701 21.4994 212.749 21.8152 211.811L23.4192 207.293L25.4427 202.824C25.8696 201.925 26.2867 201.017 26.7037 200.109C27.6439 198.061 28.6161 195.941 29.7217 193.937C35.649 182.922 43.6666 172.19 53.4657 162.015C59.4129 155.661 63.9213 149.578 67.2404 143.436C67.8079 142.432 68.2793 141.376 68.7456 140.325C69.0492 139.646 69.3502 138.965 69.6932 138.279L70.9394 135.624L71.8352 132.966C72.0499 132.287 72.2991 131.619 72.5459 130.952C72.9382 129.899 73.3405 128.81 73.6193 127.67L74.9173 122.318C76.5164 113.609 76.9877 107.139 76.4596 101.466Z" fill="white"/>
<path d="M135.592 98.0884C135.516 93.5454 134.854 89.1702 134.215 84.9406C134.025 83.6821 133.838 82.4334 133.665 81.202C133.413 79.3068 132.957 77.4906 132.515 75.7336C132.305 74.902 132.098 74.0753 131.908 73.2141C131.715 72.4565 131.533 71.7039 131.35 70.9538C130.926 69.2042 130.487 67.3953 129.951 65.6605C123.103 43.5575 112.944 28.7909 107.522 21.9875L104.983 18.5845C104.42 17.9035 103.855 17.2718 103.315 16.6672L95.3566 7.89453L93.5379 9.56275L101.479 18.3156C101.997 18.8931 102.54 19.4976 103.046 20.1121L105.57 23.4953C110.908 30.195 120.868 44.6754 127.597 66.3935C128.108 68.0543 128.52 69.7446 128.954 71.5386C129.139 72.2987 129.322 73.0587 129.509 73.7891C129.697 74.638 129.912 75.4844 130.124 76.3383C130.548 78.0286 130.987 79.7757 131.222 81.5327C131.395 82.7838 131.585 84.0423 131.777 85.3082C132.404 89.4589 133.055 93.7502 133.129 98.2044C133.951 108.88 133.075 120.613 130.467 134.02L128.197 143.284C127.649 145.382 126.896 147.499 126.168 149.547C125.83 150.5 125.492 151.452 125.176 152.39L123.572 156.908L121.549 161.377C121.122 162.275 120.705 163.183 120.288 164.092C119.347 166.14 118.375 168.259 117.27 170.263C111.342 181.279 103.325 192.011 93.5231 202.185C87.5735 208.542 83.0651 214.627 79.7485 220.764C79.181 221.769 78.7096 222.825 78.2432 223.876C77.9397 224.555 77.6386 225.236 77.2956 225.922L76.0494 228.577L75.1537 231.232C74.939 231.916 74.6898 232.585 74.4405 233.253C74.0506 234.305 73.6459 235.39 73.3695 236.53L72.0715 241.883C70.4774 250.594 70.0061 257.066 70.5367 262.732C70.5046 265.022 70.8427 267.199 71.1709 269.301C71.3337 270.355 71.4966 271.396 71.6052 272.425C71.7113 273.486 71.9778 274.464 72.2369 275.411C72.3825 275.942 72.5281 276.472 72.6514 277.072C72.8044 277.647 72.9352 278.224 73.0636 278.797C73.2634 279.68 73.4633 280.556 73.7298 281.403C77.8903 294.541 83.5784 302.669 86.5494 306.282L87.9856 308.286C88.2941 308.656 88.6124 308.994 88.9184 309.32L93.5009 314.415L95.3467 312.777L91.2775 308.236C91.0999 308.036 90.9098 307.834 90.7124 307.627C90.441 307.338 90.1572 307.04 89.9376 306.78L88.5014 304.779C85.5945 301.241 80.1162 293.403 76.0791 280.662C75.8348 279.883 75.6522 279.071 75.4671 278.252C75.3314 277.652 75.1932 277.047 75.05 276.512C74.9316 275.927 74.7736 275.345 74.6132 274.76C74.3714 273.876 74.1419 273.037 74.0556 272.174C73.942 271.098 73.7742 270.017 73.604 268.926C73.293 266.922 72.9698 264.852 72.9945 262.639C72.4812 257.074 72.9451 250.811 74.48 242.396L75.7632 237.115C76.0075 236.118 76.3678 235.144 76.7503 234.112C77.0119 233.406 77.2759 232.698 77.4955 232L78.3296 229.5L79.5116 227C79.8595 226.304 80.1754 225.591 80.4938 224.878C80.9281 223.898 81.3648 222.914 81.9053 221.954C85.1305 215.987 89.5181 210.072 95.322 203.871C105.279 193.536 113.403 182.646 119.431 171.443C120.574 169.37 121.566 167.208 122.526 165.118C122.938 164.22 123.35 163.322 123.782 162.411L125.852 157.831L127.503 153.192C127.821 152.247 128.157 151.306 128.49 150.371C129.235 148.274 130.008 146.105 130.588 143.886L132.875 134.548C135.538 120.863 136.426 108.914 135.592 98.0884Z" fill="white"/>
</svg>
