<svg width="412" height="355" viewBox="0 0 412 355" fill="none" xmlns="http://www.w3.org/2000/svg">
<path d="M187.146 157.577L187.083 179.841L159.539 163.985L159.602 141.723L187.146 157.577Z" fill="#595A59"/>
<path d="M187.141 157.578L199.939 150.142L199.876 172.405L187.078 179.841L187.141 157.578Z" fill="#262626"/>
<path d="M159.602 141.723L172.4 134.283L199.943 150.141L187.145 157.577L159.602 141.723Z" fill="#494949"/>
<path d="M187.119 179.839L187.09 200.015L159.547 184.157L159.576 163.982L187.119 179.839Z" fill="#343533"/>
<path d="M187.122 179.839L199.92 172.403L199.892 192.578L187.094 200.016L187.122 179.839Z" fill="#222321"/>
<path d="M344.365 248.221L344.299 270.482L316.758 254.624L316.821 232.364L344.365 248.221Z" fill="#595A59"/>
<path d="M344.362 248.222L357.16 240.786L357.097 263.048L344.297 270.484L344.362 248.222Z" fill="#262626"/>
<path d="M316.812 232.365L329.609 224.927L357.154 240.785L344.356 248.221L316.812 232.365Z" fill="#494949"/>
<path d="M344.336 270.483L344.309 290.658L316.766 274.803L316.792 254.627L344.336 270.483Z" fill="#343533"/>
<path d="M344.332 270.484L357.129 263.048L357.101 283.224L344.305 290.658L344.332 270.484Z" fill="#222321"/>
<path d="M179.296 48.9133V100.356L178.463 100.297L178.461 48.4307L179.296 48.9133Z" fill="#E94A3B"/>
<path d="M179.312 48.9122L181.507 47.6406V99.0796L179.312 100.355V48.9122Z" fill="#7C120D"/>
<path d="M178.461 48.4307L180.656 47.1572L181.49 47.6417L179.296 48.9133L178.461 48.4307Z" fill="#94190D"/>
<path d="M163.741 39.9211L163.739 119.798L162.906 119.737V39.4385L163.741 39.9211Z" fill="#E94A3B"/>
<path d="M163.744 39.9209L165.937 38.6455V118.522L163.742 119.798L163.744 39.9209Z" fill="#7C120D"/>
<path d="M162.906 39.4375L165.099 38.1621L165.934 38.6447L163.741 39.9201L162.906 39.4375Z" fill="#94190D"/>
<path d="M168.47 125.581C168.478 122.595 168.804 119.734 169.432 117.026L164.899 119.66C164.269 122.369 163.945 125.228 163.938 128.218C163.928 131.475 164.302 134.96 165.045 138.605L169.577 135.972C168.834 132.329 168.461 128.842 168.47 125.581Z" fill="#7C120D"/>
<path d="M166.969 140.479L171.502 137.846L191.653 149.481L187.122 152.116L166.969 140.479Z" fill="#A51C16"/>
<path d="M165.055 138.602L169.587 135.969L182.001 135.371L177.47 138.004L165.055 138.602Z" fill="#A51C16"/>
<path d="M166.156 119.315L170.689 116.682L183.432 135.299L178.901 137.932L166.156 119.315Z" fill="#94190D"/>
<path d="M180.203 139.841L184.736 137.208L193.076 149.389L188.543 152.022L180.203 139.841Z" fill="#94190D"/>
<path d="M178.906 137.934L183.437 135.301L194.881 134.747L190.35 137.382L178.906 137.934Z" fill="#A51C16"/>
<path d="M165.516 117.338L170.048 114.703L187.261 120.14L182.728 122.775L165.516 117.338Z" fill="#A51C16"/>
<path d="M173.08 104.271L177.611 101.636C174.122 105.332 171.561 109.742 170.05 114.704L165.516 117.339C167.028 112.375 169.591 107.965 173.08 104.271Z" fill="#7C120D"/>
<path d="M185.5 125.422L190.033 122.789L195.623 133.502L191.088 136.135L185.5 125.422Z" fill="#94190D"/>
<path d="M172.336 101.476C172.405 101.436 172.493 101.382 172.564 101.344C173.998 100.511 175.432 99.6777 176.869 98.8428C176.924 98.8064 176.986 98.7987 177.049 98.8045L172.516 101.441C172.453 101.436 172.393 101.443 172.336 101.476Z" fill="#706F6F"/>
<path d="M174.516 104.359L179.048 101.726L188.926 120.671L184.395 123.304L174.516 104.359Z" fill="#94190D"/>
<path d="M184.391 123.302L188.922 120.669L199.494 124.009L194.963 126.642L184.391 123.302Z" fill="#A51C16"/>
<path d="M181.027 98.0179C182.537 97.1389 184.049 96.2599 185.558 95.3848C183.214 96.7463 181.085 98.3147 179.187 100.075L174.656 102.708C176.556 100.95 178.684 99.3795 181.027 98.0179Z" fill="#7C120D"/>
<path d="M174.656 102.708L179.189 100.075L195.365 110.267L190.834 112.902L174.656 102.708Z" fill="#A51C16"/>
<path d="M193.148 116.092L197.681 113.459L200.565 123.04L196.031 125.673L193.148 116.092Z" fill="#94190D"/>
<path d="M192.5 113.954L197.033 111.321L204.626 116.105L200.091 118.738L192.5 113.954Z" fill="#A51C16"/>
<path d="M187.141 96.1546L191.673 93.5215L197.032 111.323L192.499 113.957L187.141 96.1546Z" fill="#94190D"/>
<path d="M200.688 106.922L205.22 104.289L206.059 115.883L201.526 118.518L200.688 106.922Z" fill="#94190D"/>
<path d="M187.773 94.8958L192.306 92.2627L203.547 101.202L199.013 103.835L187.773 94.8958Z" fill="#A51C16"/>
<path d="M200.547 105.054L205.08 102.419L213.245 108.913L208.712 111.546L200.547 105.054Z" fill="#A51C16"/>
<path d="M199.695 93.182L204.23 90.5488L205.084 102.42L200.551 105.055L199.695 93.182Z" fill="#94190D"/>
<path d="M212.499 112.762C211.509 113.338 210.557 113.947 209.629 114.602C203.799 118.72 198.905 124.455 195.484 131.19C192.097 137.849 190.295 145.183 190.274 152.401C190.272 153.19 190.289 154.007 190.337 154.9L190.394 155.988L194.929 153.354L194.87 152.267C194.822 151.374 194.804 150.555 194.808 149.768C194.827 142.548 196.629 135.214 200.017 128.557C203.437 121.82 208.33 116.087 214.163 111.969C215.092 111.314 216.046 110.705 217.034 110.129C215.521 111.004 214.008 111.885 212.499 112.762Z" fill="#7C120D"/>
<path d="M210.699 104.59L215.232 101.957L214.822 108.627L210.289 111.26L210.699 104.59Z" fill="#94190D"/>
<path d="M200.523 92.1644L205.056 89.5312L213.881 98.6811L209.348 101.314L200.523 92.1644Z" fill="#A51C16"/>
<path d="M211.352 110.622C212.864 109.743 214.373 108.868 215.882 107.989C217.008 107.334 218.157 106.74 219.329 106.2L214.797 108.833C213.627 109.371 212.478 109.969 211.352 110.622Z" fill="#A51C16"/>
<path d="M210.812 102.838L215.345 100.205L220.439 105.487L215.906 108.12L210.812 102.838Z" fill="#A51C16"/>
<path d="M211.435 92.7435L215.966 90.1104L215.345 100.204L210.812 102.837L211.435 92.7435Z" fill="#94190D"/>
<path d="M219.006 101.608L223.539 98.9746L222.275 104.988L217.742 107.623L219.006 101.608Z" fill="#94190D"/>
<path d="M212.664 92.2347L217.197 89.6016L222.467 95.7851L217.936 98.4182L212.664 92.2347Z" fill="#A51C16"/>
<path d="M217.742 107.623L222.275 104.988C223.953 104.381 225.665 103.885 227.403 103.508L222.871 106.141C221.132 106.518 219.418 107.014 217.742 107.623Z" fill="#A51C16"/>
<path d="M219.328 100.041L223.859 97.4062L228.12 102.399L223.587 105.032L219.328 100.041Z" fill="#A51C16"/>
<path d="M220.575 94.1019L225.106 91.4668L223.859 97.4052L219.328 100.04L220.575 94.1019Z" fill="#94190D"/>
<path d="M226.017 102.467L230.548 99.832L229.73 103.078L225.195 105.715L226.017 102.467Z" fill="#94190D"/>
<path d="M225.195 105.715L229.728 103.078C230.63 102.944 231.538 102.838 232.447 102.764L227.915 105.397C227.005 105.473 226.097 105.577 225.195 105.715Z" fill="#A51C16"/>
<path d="M221.727 93.6077L226.259 90.9707L229.678 96.2331L225.145 98.8682L221.727 93.6077Z" fill="#A51C16"/>
<path d="M226.422 100.844L230.953 98.209L233.661 102.376L229.128 105.013L226.422 100.844Z" fill="#A51C16"/>
<path d="M227.556 96.3275L232.088 93.6943L230.953 98.208L226.422 100.843L227.556 96.3275Z" fill="#94190D"/>
<path d="M231.589 102.769L236.12 100.134L235.416 102.633L230.883 105.268L231.589 102.769Z" fill="#94190D"/>
<path d="M230.883 105.266L235.416 102.631C236.18 102.629 236.946 102.644 237.714 102.681L233.181 105.314C232.413 105.278 231.649 105.262 230.883 105.266Z" fill="#A51C16"/>
<path d="M228.32 95.2279L232.853 92.5947L235.31 96.5282L230.779 99.1613L228.32 95.2279Z" fill="#94190D"/>
<path d="M232.031 101.17L236.562 98.5352L239 102.432L234.465 105.067L232.031 101.17Z" fill="#A51C16"/>
<path d="M232.977 97.8236L237.512 95.1904L236.562 98.5359L232.031 101.171L232.977 97.8236Z" fill="#94190D"/>
<path d="M237.005 104.48L241.536 101.847L240.916 102.967L236.383 105.604L237.005 104.48Z" fill="#94190D"/>
<path d="M236.383 105.602L240.918 102.965C241.391 103.024 241.862 103.091 242.337 103.172L237.804 105.805C237.329 105.724 236.856 105.661 236.383 105.602Z" fill="#A51C16"/>
<path d="M233.914 96.9818L238.445 94.3486L241.07 98.6938L236.538 101.327L233.914 96.9818Z" fill="#A51C16"/>
<path d="M237.68 103.24L242.214 100.603L243.748 103.153L239.216 105.786L237.68 103.24Z" fill="#A51C16"/>
<path d="M241.477 106.546L246.007 103.913C246.865 104.126 247.729 104.365 248.593 104.627L244.06 107.261C243.196 106.998 242.333 106.759 241.477 106.546Z" fill="#A51C16"/>
<path d="M242.899 105.217L247.432 102.584L246.007 103.913L241.477 106.546L242.899 105.217Z" fill="#94190D"/>
<path d="M239.685 99.5979L244.218 96.9629L242.214 100.601L237.68 103.238L239.685 99.5979Z" fill="#94190D"/>
<path d="M243.812 104.359L248.345 101.726L249.862 104.386L245.329 107.019L243.812 104.359Z" fill="#A51C16"/>
<path d="M241.219 99.7961L245.754 97.1592L247.284 99.8555L242.751 102.489L241.219 99.7961Z" fill="#A51C16"/>
<path d="M247.047 108.283L251.582 105.647C252.292 105.914 253.003 106.197 253.713 106.496L249.182 109.129C248.468 108.83 247.759 108.547 247.047 108.283Z" fill="#A51C16"/>
<path d="M248.255 107.095L252.788 104.462C252.298 104.958 251.903 105.345 251.582 105.647L247.047 108.282C247.369 107.978 247.765 107.593 248.255 107.095Z" fill="#94190D"/>
<path d="M246.065 102.253L250.599 99.6221L248.345 101.723L243.812 104.356L246.065 102.253Z" fill="#94190D"/>
<path d="M249.188 106.146L253.72 103.513L255.078 106.496L250.545 109.129L249.188 106.146Z" fill="#A51C16"/>
<path d="M247.648 102.738L252.179 100.104L252.802 101.472L248.269 104.105L247.648 102.738Z" fill="#94190D"/>
<path d="M252.164 110.495L256.697 107.86C257.26 108.138 257.817 108.421 258.376 108.714L253.844 111.349C253.284 111.056 252.727 110.773 252.164 110.495Z" fill="#A51C16"/>
<path d="M253.022 109.732L257.555 107.097L256.697 107.859L252.164 110.494L253.022 109.732Z" fill="#94190D"/>
<path d="M250.505 104.779L255.038 102.144C254.546 102.657 254.113 103.105 253.72 103.513L249.188 106.146C249.578 105.738 250.011 105.29 250.505 104.779Z" fill="#94190D"/>
<path d="M253.977 108.881L258.507 106.248L259.944 109.071L255.411 111.704L253.977 108.881Z" fill="#A51C16"/>
<path d="M251.969 104.963L256.502 102.33L257.511 104.316L252.98 106.951L251.969 104.963Z" fill="#A51C16"/>
<path d="M257.031 113.144L261.562 110.511C262.357 110.988 263.148 111.484 263.941 112.001L259.408 114.636C258.617 114.117 257.824 113.621 257.031 113.144Z" fill="#A51C16"/>
<path d="M258.152 112.332L262.686 109.699L261.562 110.511L257.031 113.144L258.152 112.332Z" fill="#4A4949"/>
<path d="M255.526 107.511L260.059 104.876L258.507 106.249L253.977 108.882L255.526 107.511Z" fill="#94190D"/>
<path d="M259.148 111.603L263.679 108.97L265.931 113.104L261.397 115.741L259.148 111.603Z" fill="#A51C16"/>
<path d="M257.102 107.844L261.632 105.211L262.655 107.091L258.122 109.727L257.102 107.844Z" fill="#A51C16"/>
<path d="M262.984 117.135L267.517 114.502C267.898 114.782 268.285 115.071 268.67 115.366L264.139 118.001C263.754 117.706 263.365 117.419 262.984 117.135Z" fill="#A51C16"/>
<path d="M263.507 116.674L268.042 114.041L267.517 114.501L262.984 117.134L263.507 116.674Z" fill="#94190D"/>
<path d="M260.594 110.554L265.127 107.921L263.679 108.968L259.148 111.602L260.594 110.554Z" fill="#4A4949"/>
<path d="M321.484 215.116L326.019 212.481C327.024 217.589 327.553 222.29 327.543 226.402C327.542 226.637 327.542 226.877 327.538 227.112L323.005 229.745C323.011 229.513 323.011 229.27 323.011 229.035C323.02 224.923 322.492 220.224 321.484 215.116Z" fill="#94190D"/>
<path d="M264.484 115.825L269.017 113.191L270.856 117.044L266.321 119.678L264.484 115.825Z" fill="#A51C16"/>
<path d="M262.156 110.948L266.687 108.314L268.076 111.227L263.541 113.86L262.156 110.948Z" fill="#A51C16"/>
<path d="M268.023 121.131L272.554 118.496C273.449 119.258 274.343 120.045 275.233 120.859L270.701 123.496C269.81 122.68 268.916 121.895 268.023 121.131Z" fill="#A51C16"/>
<path d="M269.253 120.39L273.786 117.757L272.552 118.496L268.023 121.131L269.253 120.39Z" fill="#706F6F"/>
<path d="M322.984 229.746L327.517 227.113L336.008 224.547L331.475 227.182L322.984 229.746Z" fill="#A51C16"/>
<path d="M266.357 114.183L270.888 111.55L269.017 113.191L264.484 115.824L266.357 114.183Z" fill="#94190D"/>
<path d="M270.336 119.756L274.871 117.123L277.412 122.571L272.879 125.206L270.336 119.756Z" fill="#A51C16"/>
<path d="M321.398 213.033L325.933 210.398L337.343 224.15L332.808 226.787L321.398 213.033Z" fill="#94190D"/>
<path d="M274.25 126.889L278.783 124.252C279.271 124.738 279.759 125.232 280.248 125.736L275.715 128.371C275.225 127.867 274.738 127.373 274.25 126.889Z" fill="#A51C16"/>
<path d="M268.07 114.916L272.603 112.283L273.961 115.188L269.428 117.821L268.07 114.916Z" fill="#A51C16"/>
<path d="M317.18 199.06L321.711 196.427C323.074 200.548 324.215 204.543 325.117 208.355L320.583 210.988C319.683 207.178 318.541 203.185 317.18 199.06Z" fill="#94190D"/>
<path d="M272.875 125.204L277.408 122.569L278.947 121.805L274.417 124.438L272.875 125.204Z" fill="#B71C1C"/>
<path d="M276.242 125.901L280.775 123.266L282.135 127.333L277.602 129.968L276.242 125.901Z" fill="#A51C16"/>
<path d="M278.844 131.725L283.377 129.092C284.164 129.963 284.943 130.852 285.726 131.761L281.192 134.396C280.41 133.485 279.631 132.596 278.844 131.725Z" fill="#A51C16"/>
<path d="M324.523 231.457L329.056 228.824L349.208 240.46L344.675 243.093L324.523 231.457Z" fill="#94190D"/>
<path d="M272.437 118.499L276.971 115.864L274.871 117.122L270.336 119.756L272.437 118.499Z" fill="#706F6F"/>
<path d="M311.859 185L316.392 182.367C317.809 185.718 319.108 189.033 320.278 192.297L315.745 194.932C314.577 191.668 313.276 188.352 311.859 185Z" fill="#94190D"/>
<path d="M284.078 137.873L288.611 135.238C289.545 136.397 290.472 137.578 291.39 138.785L286.857 141.418C285.941 140.213 285.013 139.032 284.078 137.873Z" fill="#94190D"/>
<path d="M274.039 119.299L278.574 116.666L280.094 121.229L275.562 123.865L274.039 119.299Z" fill="#A51C16"/>
<path d="M334.242 228.527L338.775 225.894L351.052 240.683L346.517 243.316L334.242 228.527Z" fill="#94190D"/>
<path d="M277.602 129.967L282.134 127.332L284.586 126.258L280.049 128.893L277.602 129.967Z" fill="#B71C1C"/>
<path d="M348.059 245.21L352.593 242.577L352.199 243.853L347.664 246.486L348.059 245.21Z" fill="#94190D"/>
<path d="M281.742 130.45L286.275 127.816L287.447 133.431L282.914 136.064L281.742 130.45Z" fill="#A51C16"/>
<path d="M289.086 144.416L293.619 141.781C295.379 144.202 297.112 146.722 298.803 149.307L294.268 151.942C292.579 149.355 290.848 146.835 289.086 144.416Z" fill="#94190D"/>
<path d="M303.812 168.081L308.347 165.446C310.714 169.908 312.901 174.409 314.887 178.874L310.356 181.509C308.368 177.042 306.179 172.543 303.812 168.081Z" fill="#94190D"/>
<path d="M297.102 156.388L301.634 153.751C303.197 156.285 304.721 158.879 306.194 161.516L301.661 164.153C300.189 161.513 298.668 158.92 297.102 156.388Z" fill="#94190D"/>
<path d="M327.841 208.001L332.373 205.366L325.933 210.399L321.398 213.034L327.841 208.001Z" fill="#7C120D"/>
<path d="M275.57 123.866L280.103 121.231L282.723 119.933L278.19 122.566L275.57 123.866Z" fill="#B71C1C"/>
<path d="M282.922 136.065L287.455 133.432L290.176 132.401L285.643 135.035L282.922 136.065Z" fill="#B71C1C"/>
<path d="M316.859 197.012L321.392 194.379L331.819 203.125L327.287 205.756L316.859 197.012Z" fill="#94190D"/>
<path d="M287.336 136.642L291.869 134.009L292.981 139.844L288.45 142.477L287.336 136.642Z" fill="#94190D"/>
<path d="M280.508 124.476L285.043 121.841L285.845 125.7L281.314 128.333L280.508 124.476Z" fill="#A51C16"/>
<path d="M281.312 128.333L285.843 125.7L288.293 124.622L283.76 127.255L281.312 128.333Z" fill="#B71C1C"/>
<path d="M288.453 142.478L292.984 139.844L297.253 139.777L292.724 142.41L288.453 142.478Z" fill="#A51C16"/>
<path d="M320.408 189.471L324.939 186.836L321.392 194.377L316.859 197.01L320.408 189.471Z" fill="#7C120D"/>
<path d="M294.43 144.333L298.961 141.7L300.617 151.771L296.084 154.406L294.43 144.333Z" fill="#94190D"/>
<path d="M311.789 183.225L316.32 180.592L323.917 184.571L319.384 187.208L311.789 183.225Z" fill="#94190D"/>
<path d="M285.898 129.158L290.431 126.523L291.456 131.908L286.923 134.543L285.898 129.158Z" fill="#A51C16"/>
<path d="M296.07 154.406L300.603 151.771L305.707 152.378L301.176 155.011L296.07 154.406Z" fill="#A51C16"/>
<path d="M302.766 157.065L307.298 154.432L307.773 163.478L303.239 166.111L302.766 157.065Z" fill="#94190D"/>
<path d="M286.93 134.544L291.462 131.909L294.867 130.62L290.335 133.253L286.93 134.544Z" fill="#B71C1C"/>
<path d="M303.227 166.113L307.761 163.479L315.933 166.419L311.4 169.056L303.227 166.113Z" fill="#A51C16"/>
<path d="M312.793 171.317L317.327 168.682L316.32 180.591L311.789 183.224L312.793 171.317Z" fill="#7C120D"/>
<path d="M293.047 135.86L297.58 133.225L298.65 139.759L294.119 142.394L293.047 135.86Z" fill="#94190D"/>
<path d="M332.797 226.787L337.332 224.151L350.135 220.282L345.604 222.915L332.797 226.787Z" fill="#A51C16"/>
<path d="M294.102 142.392L298.632 139.757L303.878 139.677L299.343 142.31L294.102 142.392Z" fill="#A51C16"/>
<path d="M328.93 207.147L333.461 204.51L350.675 218.951L346.142 221.588L328.93 207.147Z" fill="#94190D"/>
<path d="M302.156 145.336L306.687 142.703L307.202 152.554L302.671 155.189L302.156 145.336Z" fill="#7C120D"/>
<path d="M302.664 155.189L307.195 152.554L315.977 153.605L311.444 156.238L302.664 155.189Z" fill="#A51C16"/>
<path d="M313.818 159.256L318.351 156.623L317.47 166.972L312.938 169.609L313.818 159.256Z" fill="#7C120D"/>
<path d="M338.566 199.617L343.099 196.982L333.461 204.51L328.93 207.147L338.566 199.617Z" fill="#7C120D"/>
<path d="M321.047 188.077L325.582 185.442L341.633 193.857L337.1 196.492L321.047 188.077Z" fill="#94190D"/>
<path d="M312.938 169.609L317.47 166.972L328.633 170.991L324.1 173.622L312.938 169.609Z" fill="#A51C16"/>
<path d="M326.267 176.985L330.798 174.35L325.582 185.443L321.047 188.078L326.267 176.985Z" fill="#7C120D"/>
<path d="M346.586 201.425C341.854 189.897 334.935 177.443 326.569 165.394C317.798 152.772 307.821 141.02 296.907 130.466C285.179 119.124 272.95 109.746 260.554 102.59C257.303 100.711 254.059 99.0027 250.284 97.1968C241.408 92.9991 232.66 90.0692 224.167 88.4682C213.229 86.4077 203.215 86.6164 194.404 89.0887C190.752 90.1132 187.371 91.5303 184.322 93.3036C182.811 94.1826 181.3 95.0616 179.789 95.9368C182.838 94.1673 186.218 92.7464 189.872 91.7218C198.679 89.2534 208.694 89.0408 219.633 91.1052C228.126 92.7023 236.873 95.6304 245.75 99.8319C249.524 101.638 252.768 103.346 256.022 105.223C268.417 112.381 280.645 121.757 292.372 133.103C303.286 143.655 313.263 155.409 322.032 168.029C330.4 180.076 337.319 192.532 342.049 204.062C346.879 215.824 349.415 226.622 349.392 235.284C349.382 238.861 348.934 242.195 348.07 245.213L352.605 242.58C353.47 239.562 353.913 236.228 353.922 232.649C353.945 223.986 351.412 213.187 346.586 201.425Z" fill="#94190D"/>
<path d="M342.038 204.062C346.867 215.824 349.403 226.622 349.38 235.284C349.37 238.861 348.922 242.195 348.058 245.213L347.664 246.489L321.134 231.479L321.195 230.458C321.245 229.623 321.273 228.83 321.275 228.041C321.296 220.824 319.542 211.436 316.204 200.894C312.832 190.239 307.987 178.881 302.194 168.052C296.323 157.079 289.54 146.801 282.508 138.216C282.094 137.879 281.945 137.659 281.853 137.423C281.696 137.239 281.545 137.048 281.388 136.864C273.088 126.977 264.539 119.455 255.979 114.514C247.427 109.577 238.863 107.216 230.529 107.501C230.132 107.689 229.569 107.647 229.43 107.566C225.167 107.833 221.004 108.815 217.066 110.471C214.295 111.664 211.89 113.005 209.613 114.604C203.784 118.721 198.889 124.457 195.469 131.192C192.081 137.85 190.279 145.185 190.258 152.402C190.256 153.191 190.274 154.009 190.321 154.902L190.379 155.989L163.933 140.717L163.49 138.754C162.627 134.704 162.192 130.828 162.203 127.22C162.228 118.559 164.821 110.724 169.699 104.566C170.43 103.637 171.217 102.748 172.052 101.9C172.205 101.498 172.341 101.431 172.504 101.446C177.05 96.9879 182.97 93.6596 189.856 91.7255C198.663 89.257 208.679 89.0445 219.617 91.1088C228.11 92.706 236.858 95.634 245.734 99.8355C249.508 101.641 252.752 103.35 256.006 105.226C268.402 112.385 280.629 121.76 292.357 133.107C303.27 143.659 313.248 155.413 322.016 168.033C330.391 180.074 337.31 192.529 342.038 204.062ZM327.826 208.001L321.384 213.033L332.794 226.787L345.602 222.917L327.826 208.001ZM178.902 137.933L190.346 137.381L183.835 124.899L166.16 119.315L178.902 137.933ZM346.136 221.588C344.642 214.83 342.07 207.401 338.56 199.617L328.924 207.147L346.136 221.588ZM173.077 104.269C169.586 107.963 167.023 112.373 165.512 117.337L182.725 122.775L173.077 104.269ZM184.393 123.302L194.965 126.642L191.472 115.041L174.515 104.357L184.393 123.302ZM320.396 189.471L316.848 197.012L327.275 205.756L336.995 198.165L320.396 189.471ZM163.933 128.216C163.923 131.473 164.296 134.959 165.039 138.603L177.454 138.005L164.896 119.658C164.266 122.367 163.942 125.228 163.933 128.216ZM346.513 243.315C347.262 240.56 347.649 237.53 347.658 234.29C347.668 231.331 347.363 228.137 346.764 224.742L334.238 228.528L346.513 243.315ZM185.653 95.7163C181.42 97.4935 177.732 99.8528 174.653 102.706L190.829 112.9L185.653 95.7163ZM337.105 196.492C334.075 190.145 330.442 183.584 326.27 176.983L321.049 188.077L337.105 196.492ZM192.495 113.955L200.086 118.739L199.148 105.699L187.137 96.153L192.495 113.955ZM312.794 171.317L311.788 183.224L319.385 187.208L324.822 175.647L312.794 171.317ZM166.958 140.48L187.112 152.115L178.755 139.911L166.958 140.48ZM324.533 231.458L344.684 243.091L332.924 228.922L324.533 231.458ZM321.472 215.117C322.478 220.224 323.008 224.924 322.997 229.035C322.997 229.271 322.995 229.514 322.991 229.746L331.482 227.181L321.472 215.117ZM188.546 152.023C188.542 151.822 188.542 151.612 188.544 151.409C188.556 147.322 189.102 143.272 190.124 139.365L180.206 139.842L188.546 152.023ZM303.228 166.112L311.401 169.055L312.324 158.209L302.757 157.064L303.228 166.112ZM208.715 111.546L209.236 103.07L199.693 93.1809L200.548 105.054L208.715 111.546ZM190.886 93.9028C189.82 94.1977 188.784 94.5309 187.774 94.8948L199.014 103.834L198.19 92.4283C195.674 92.7557 193.232 93.2441 190.886 93.9028ZM313.822 159.256L312.941 169.609L324.104 173.623C323.093 172.091 322.051 170.553 320.986 169.019C318.682 165.7 316.289 162.443 313.822 159.256ZM209.345 101.314L209.92 92.0261C206.677 91.8423 203.544 91.8902 200.523 92.1621L209.345 101.314ZM320.576 210.988L326.174 206.616L317.171 199.062C318.533 203.185 319.674 207.177 320.576 210.988ZM302.144 145.336L302.661 155.191L311.442 156.24C308.449 152.502 305.344 148.862 302.144 145.336ZM191.084 136.134C191.997 133.411 193.142 130.778 194.508 128.273L185.496 125.424L191.084 136.134ZM294.423 144.333L296.076 154.406L301.181 155.011L300.62 144.235L294.423 144.333ZM215.91 108.12L217.616 99.9868L211.438 92.7443L210.816 102.838L215.91 108.12ZM310.346 181.509L311.258 170.762L303.803 168.082C306.17 172.544 308.358 177.043 310.346 181.509ZM201.522 118.518C203.504 116.393 205.68 114.464 208.037 112.773L200.683 106.923L201.522 118.518ZM315.747 194.931L318.728 188.596L311.863 185C313.278 188.353 314.578 191.67 315.747 194.931ZM196.022 125.673C197.192 123.808 198.485 122.03 199.893 120.351L193.14 116.092L196.022 125.673ZM223.585 105.031L224.728 100.498L220.573 94.102L219.326 100.042L223.585 105.031ZM287.33 136.642L288.444 142.479L292.715 142.412L291.51 135.056L287.33 136.642ZM219.058 93.0985C216.888 92.7194 214.759 92.4283 212.671 92.2349L217.942 98.4184L219.058 93.0985ZM299.346 142.31C297.28 140.116 295.178 137.963 293.033 135.861L294.107 142.393L299.346 142.31ZM289.094 144.417C290.855 146.836 292.588 149.356 294.277 151.943L293.033 144.352L289.094 144.417ZM217.737 107.624C219.412 107.015 221.126 106.519 222.865 106.14L219 101.607L217.737 107.624ZM297.102 156.388C298.669 158.919 300.189 161.512 301.662 164.153L301.279 156.884L297.102 156.388ZM210.295 111.259C211.754 110.353 213.257 109.543 214.799 108.834L210.707 104.589L210.295 111.259ZM281.746 130.449L282.918 136.064L285.639 135.033L284.532 129.223L281.746 130.449ZM229.129 105.012L230.33 100.764L227.557 96.3272L226.423 100.843L229.129 105.012ZM237.679 103.238L239.213 105.785L241.82 103.351L239.684 99.5961L237.679 103.238ZM270.321 119.755L272.864 125.206L274.404 124.439L272.421 118.499L270.321 119.755ZM234.466 105.067L235.843 102.576L232.978 97.8228L232.032 101.17L234.466 105.067ZM276.238 125.901L277.596 129.968L280.045 128.892L279.12 124.462L276.238 125.901ZM221.722 93.6079L225.14 98.8684L226.201 94.6516C224.701 94.2628 223.21 93.9162 221.722 93.6079ZM264.476 115.824L266.311 119.677L268.346 118.461L266.349 114.183L264.476 115.824ZM285.903 129.158L286.928 134.543L290.333 133.252C288.866 131.856 287.387 130.495 285.903 129.158ZM243.804 104.357L245.318 107.017C245.774 106.607 246.519 105.875 247.325 105.06L246.056 102.254L243.804 104.357ZM261.395 115.74L262.571 114.707L260.593 110.554L259.147 111.603L261.395 115.74ZM238.084 98.5161C236.687 97.9741 235.293 97.4628 233.905 96.9802L236.529 101.327L238.084 98.5161ZM278.182 122.565C276.805 121.45 275.422 120.359 274.04 119.3L275.56 123.865L278.182 122.565ZM255.403 111.705L257.121 110.458L255.518 107.511L253.969 108.884L255.403 111.705ZM250.541 109.129L252.032 107.798L250.499 104.778C250.006 105.289 249.574 105.738 249.181 106.145L250.541 109.129ZM228.321 95.228L230.78 99.1633L231.615 96.2238C230.51 95.8676 229.416 95.5382 228.321 95.228ZM281.305 128.333L283.753 127.255C282.671 126.316 281.589 125.382 280.499 124.476L281.305 128.333ZM284.08 137.871C285.015 139.028 285.943 140.211 286.859 141.416L286.041 137.126L284.08 137.871ZM225.19 105.715C226.09 105.577 226.999 105.473 227.909 105.397L226.009 102.467L225.19 105.715ZM278.846 131.724C279.633 132.596 280.413 133.484 281.194 134.396L280.486 131.004L278.846 131.724ZM244.217 101.115C243.216 100.657 242.214 100.22 241.213 99.7972L242.745 102.488L244.217 101.115ZM230.872 105.266C231.638 105.263 232.4 105.278 233.17 105.314L231.576 102.767L230.872 105.266ZM268.021 121.13C268.913 121.894 269.808 122.68 270.698 123.495L269.25 120.389L268.021 121.13ZM270.886 116.942C269.945 116.255 269.005 115.579 268.061 114.914L269.419 117.821L270.886 116.942ZM264.848 112.712C263.951 112.111 263.051 111.529 262.153 110.946L263.538 113.859L264.848 112.712ZM241.46 106.546C242.316 106.758 243.179 106.998 244.043 107.26L242.881 105.219L241.46 106.546ZM247.042 108.283C247.754 108.547 248.463 108.83 249.175 109.129L248.25 107.093C247.76 107.593 247.364 107.978 247.042 108.283ZM257.019 113.143C257.812 113.62 258.605 114.116 259.396 114.635L258.139 112.331L257.019 113.143ZM253.991 106.061C253.317 105.688 252.649 105.322 251.975 104.964L252.986 106.952L253.991 106.061ZM259.08 109.033C258.423 108.629 257.76 108.239 257.101 107.846L258.122 109.727L259.08 109.033ZM274.25 126.889C274.739 127.373 275.227 127.867 275.715 128.371L275.083 126.469L274.25 126.889ZM252.157 110.494C252.72 110.772 253.277 111.056 253.836 111.349L253.015 109.73L252.157 110.494ZM236.373 105.604C236.846 105.663 237.321 105.726 237.794 105.805L236.996 104.479L236.373 105.604ZM248.961 103.392C248.516 103.164 248.078 102.953 247.639 102.737L248.262 104.106C248.499 103.874 248.729 103.627 248.961 103.392ZM262.986 117.134C263.367 117.415 263.754 117.704 264.141 117.999L263.509 116.674L262.986 117.134Z" fill="#E94A3B"/>
<path d="M218.247 71.1418V89.9376L217.416 89.8763L217.414 70.6611L218.247 71.1418Z" fill="#E94A3B"/>
<path d="M218.25 71.1417L220.445 69.8701V88.6621L218.25 89.9375V71.1417Z" fill="#7C120D"/>
<path d="M217.414 70.6602L219.607 69.3867L220.442 69.8693L218.247 71.1409L217.414 70.6602Z" fill="#94190D"/>
<path d="M240.446 84.2726V95.6209L239.611 95.5596L239.609 83.7881L240.446 84.2726Z" fill="#E94A3B"/>
<path d="M240.453 84.2715L242.646 82.9961V94.3444L240.453 95.6198V84.2715Z" fill="#7C120D"/>
<path d="M239.609 83.7872L241.806 82.5137L242.639 82.9963L240.446 84.2716L239.609 83.7872Z" fill="#94190D"/>
<path d="M261.296 95.9865L261.294 106.111L260.461 105.617V95.5039L261.296 95.9865Z" fill="#E94A3B"/>
<path d="M261.307 95.9873L263.499 94.7119V104.837L261.305 106.112L261.307 95.9873Z" fill="#7C120D"/>
<path d="M260.461 95.5049L262.656 94.2295L263.489 94.7121L261.296 95.9875L260.461 95.5049Z" fill="#94190D"/>
<path d="M282.185 108.316V121.05L281.352 120.558V107.833L282.185 108.316Z" fill="#E94A3B"/>
<path d="M282.195 108.314L284.388 107.039V119.778L282.195 121.049V108.314Z" fill="#7C120D"/>
<path d="M281.352 107.833L283.542 106.558L284.377 107.04L282.185 108.316L281.352 107.833Z" fill="#94190D"/>
<path d="M303.052 120.354V141.187L302.221 140.344L302.219 119.871L303.052 120.354Z" fill="#E94A3B"/>
<path d="M303.055 120.354L305.249 119.078V139.913L303.055 141.187V120.354Z" fill="#7C120D"/>
<path d="M302.219 119.87L304.411 118.595L305.246 119.077L303.052 120.353L302.219 119.87Z" fill="#94190D"/>
<path d="M325.819 133.493V169.848L324.984 169.005V133.011L325.819 133.493Z" fill="#E94A3B"/>
<path d="M325.828 133.494L328.021 132.221V168.573L325.828 169.849V133.494Z" fill="#7C120D"/>
<path d="M324.984 133.011L327.177 131.739L328.012 132.22L325.819 133.493L324.984 133.011Z" fill="#94190D"/>
<path d="M351.04 148.062L351.038 226.062L350.203 221.824V147.581L351.04 148.062Z" fill="#E94A3B"/>
<path d="M351.057 148.062L353.249 146.786V224.786L351.055 226.062L351.057 148.062Z" fill="#7C120D"/>
<path d="M350.203 147.581L352.398 146.308L353.233 146.786L351.04 148.062L350.203 147.581Z" fill="#94190D"/>
<path d="M196.585 58.8889L196.583 89.9407L195.75 89.8794V58.4082L196.585 58.8889Z" fill="#E94A3B"/>
<path d="M196.596 58.8868L198.79 57.6152V88.6632L196.594 89.9386L196.596 58.8868Z" fill="#7C120D"/>
<path d="M195.75 58.4073L197.943 57.1338L198.78 57.6164L196.585 58.8879L195.75 58.4073Z" fill="#94190D"/>
<path d="M75.5989 221.922L75.5357 244.185L47.9922 228.325L48.0554 206.063L75.5989 221.922Z" fill="#595A59"/>
<path d="M75.6101 221.922L88.4081 214.484L88.3449 236.748L75.5469 244.186L75.6101 221.922Z" fill="#262626"/>
<path d="M48.0547 206.063L60.8508 198.625L88.3962 214.483L75.5982 221.921L48.0547 206.063Z" fill="#494949"/>
<path d="M75.5938 244.187L75.567 264.36L48.0234 248.504L48.0483 228.329L75.5938 244.187Z" fill="#343533"/>
<path d="M75.5971 244.186L88.3951 236.748L88.3683 256.921L75.5703 264.359L75.5971 244.186Z" fill="#222321"/>
<path d="M232.82 312.561L232.756 334.823L205.211 318.967L205.274 296.707L232.82 312.561Z" fill="#595A59"/>
<path d="M232.813 312.564L245.609 305.128L245.546 327.388L232.75 334.826L232.813 312.564Z" fill="#262626"/>
<path d="M205.266 296.708L218.064 289.269L245.607 305.127L232.811 312.563L205.266 296.708Z" fill="#494949"/>
<path d="M232.791 334.825L232.764 355L205.219 339.141L205.247 318.969L232.791 334.825Z" fill="#343533"/>
<path d="M232.785 334.827L245.583 327.389L245.556 347.565L232.758 355.001L232.785 334.827Z" fill="#222321"/>
<path d="M67.7803 113.257V164.698L66.9472 164.639L66.9453 112.774L67.7803 113.257Z" fill="#E94A3B"/>
<path d="M67.7812 113.257L69.9739 111.983V163.422L67.7812 164.698V113.257Z" fill="#7C120D"/>
<path d="M66.9453 112.774L69.1399 111.501L69.9729 111.984L67.7803 113.257L66.9453 112.774Z" fill="#94190D"/>
<path d="M52.1943 104.262V184.139L51.3594 184.079V103.779L52.1943 104.262Z" fill="#E94A3B"/>
<path d="M52.1953 104.261L54.388 102.985V182.862L52.1953 184.138V104.261Z" fill="#7C120D"/>
<path d="M51.3594 103.777L53.554 102.504L54.387 102.985L52.1943 104.26L51.3594 103.777Z" fill="#94190D"/>
<path d="M56.9471 189.921C56.9528 186.937 57.2803 184.074 57.9065 181.366L53.3756 183.999C52.7475 186.707 52.4219 189.568 52.4142 192.558C52.4047 195.815 52.7781 199.304 53.5192 202.944L58.052 200.309C57.309 196.667 56.9356 193.182 56.9471 189.921Z" fill="#7C120D"/>
<path d="M55.4297 204.821L59.9625 202.188L80.116 213.823L75.5813 216.456L55.4297 204.821Z" fill="#A51C16"/>
<path d="M53.5156 202.944L58.0484 200.309L70.4615 199.712L65.9306 202.345L53.5156 202.944Z" fill="#A51C16"/>
<path d="M54.6172 183.657L59.15 181.021L71.8925 199.639L67.3596 202.274L54.6172 183.657Z" fill="#94190D"/>
<path d="M68.6797 204.181L73.2125 201.548L81.5504 213.729L77.0176 216.362L68.6797 204.181Z" fill="#94190D"/>
<path d="M67.3672 202.273L71.9 199.638L83.3441 199.087L78.8113 201.72L67.3672 202.273Z" fill="#A51C16"/>
<path d="M53.9844 181.675L58.5191 179.042L75.7312 184.481L71.1984 187.114L53.9844 181.675Z" fill="#A51C16"/>
<path d="M61.5486 168.609L66.0815 165.976C62.5923 169.67 60.03 174.08 58.5191 179.044L53.9844 181.677C55.4972 176.713 58.0614 172.309 61.5486 168.609Z" fill="#7C120D"/>
<path d="M73.9688 189.764L78.5016 187.131L84.0896 197.843L79.5567 200.48L73.9688 189.764Z" fill="#94190D"/>
<path d="M60.7969 165.819C60.8658 165.778 60.9558 165.725 61.0248 165.686C62.4591 164.851 63.8954 164.016 65.3316 163.182C65.3891 163.151 65.4465 163.141 65.5116 163.147L60.9788 165.784C60.9156 165.776 60.8543 165.784 60.7969 165.819Z" fill="#706F6F"/>
<path d="M62.9844 168.701L67.5153 166.067L77.3929 185.011L72.862 187.644L62.9844 168.701Z" fill="#94190D"/>
<path d="M72.8594 187.641L77.3903 185.008L87.9649 188.349L83.4321 190.983L72.8594 187.641Z" fill="#A51C16"/>
<path d="M69.4943 162.358C71.0052 161.479 72.5162 160.6 74.0271 159.721C71.6832 161.086 69.5537 162.654 67.6559 164.411L63.125 167.048C65.0228 165.29 67.1503 163.719 69.4943 162.358Z" fill="#7C120D"/>
<path d="M63.125 167.047L67.6559 164.412L83.832 174.608L79.2991 177.243L63.125 167.047Z" fill="#A51C16"/>
<path d="M81.6172 180.436L86.15 177.799L89.034 187.382L84.5012 190.017L81.6172 180.436Z" fill="#94190D"/>
<path d="M80.9688 178.297L85.5035 175.662L93.0927 180.448L88.5617 183.081L80.9688 178.297Z" fill="#A51C16"/>
<path d="M75.6094 160.496L80.1422 157.859L85.5004 175.661L80.9656 178.296L75.6094 160.496Z" fill="#94190D"/>
<path d="M89.1484 171.265L93.6813 168.632L94.52 180.225L89.9872 182.858L89.1484 171.265Z" fill="#94190D"/>
<path d="M76.2344 159.236L80.7691 156.603L92.0064 165.54L87.4736 168.175L76.2344 159.236Z" fill="#A51C16"/>
<path d="M89.0156 169.394L93.5484 166.761L101.714 173.255L97.1812 175.888L89.0156 169.394Z" fill="#A51C16"/>
<path d="M88.1641 157.521L92.695 154.886L93.551 166.759L89.0182 169.392L88.1641 157.521Z" fill="#94190D"/>
<path d="M100.947 177.102C99.9566 177.678 99.0068 178.287 98.0761 178.942C92.2449 183.059 87.3502 188.793 83.93 195.53C80.5423 202.188 78.7403 209.523 78.7192 216.741C78.7154 217.53 78.7345 218.349 78.7824 219.24L78.8399 220.327L83.3727 217.694L83.3152 216.607C83.2674 215.714 83.2482 214.895 83.252 214.107C83.2731 206.888 85.0751 199.553 88.4628 192.895C91.8811 186.158 96.7758 180.426 102.609 176.305C103.536 175.654 104.488 175.045 105.48 174.469C103.969 175.348 102.46 176.227 100.947 177.102Z" fill="#7C120D"/>
<path d="M99.1754 168.93L103.708 166.297L103.298 172.965L98.7656 175.598L99.1754 168.93Z" fill="#94190D"/>
<path d="M88.9844 156.506L93.5172 153.873L102.342 163.021L97.8087 165.656L88.9844 156.506Z" fill="#A51C16"/>
<path d="M99.8125 174.964C101.323 174.085 102.834 173.208 104.345 172.331C105.469 171.678 106.62 171.08 107.788 170.54L103.256 173.175C102.086 173.715 100.937 174.311 99.8125 174.964Z" fill="#A51C16"/>
<path d="M99.2812 167.178L103.816 164.545L108.908 169.825L104.375 172.46L99.2812 167.178Z" fill="#A51C16"/>
<path d="M99.9036 157.084L104.435 154.451L103.816 164.547L99.2812 167.18L99.9036 157.084Z" fill="#94190D"/>
<path d="M107.467 165.948L112 163.314L110.736 169.331L106.203 171.963L107.467 165.948Z" fill="#94190D"/>
<path d="M101.141 156.577L105.673 153.944L110.944 160.126L106.413 162.759L101.141 156.577Z" fill="#A51C16"/>
<path d="M106.203 171.963L110.736 169.332C112.412 168.721 114.126 168.225 115.866 167.852L111.332 170.483C109.593 170.858 107.881 171.354 106.203 171.963Z" fill="#A51C16"/>
<path d="M107.797 164.381L112.328 161.746L116.589 166.737L112.056 169.37L107.797 164.381Z" fill="#A51C16"/>
<path d="M109.044 158.443L113.576 155.808L112.328 161.748L107.797 164.383L109.044 158.443Z" fill="#94190D"/>
<path d="M114.484 166.808L119.016 164.175L118.195 167.421L113.664 170.052L114.484 166.808Z" fill="#94190D"/>
<path d="M113.664 170.054L118.197 167.422C119.099 167.285 120.008 167.181 120.916 167.106L116.383 169.74C115.474 169.814 114.564 169.92 113.664 170.054Z" fill="#A51C16"/>
<path d="M110.188 157.946L114.718 155.314L118.139 160.575L113.608 163.212L110.188 157.946Z" fill="#A51C16"/>
<path d="M114.891 165.184L119.422 162.549L122.129 166.716L117.597 169.349L114.891 165.184Z" fill="#A51C16"/>
<path d="M116.024 160.667L120.559 158.034L119.422 162.55L114.891 165.185L116.024 160.667Z" fill="#94190D"/>
<path d="M120.05 167.109L124.585 164.474L123.877 166.971L119.344 169.604L120.05 167.109Z" fill="#94190D"/>
<path d="M119.344 169.603L123.877 166.97C124.641 166.97 125.407 166.985 126.176 167.021L121.642 169.655C120.874 169.618 120.11 169.603 119.344 169.603Z" fill="#A51C16"/>
<path d="M116.781 159.569L121.314 156.934L123.769 160.867L119.238 163.502L116.781 159.569Z" fill="#94190D"/>
<path d="M120.492 165.512L125.023 162.879L127.461 166.774L122.928 169.407L120.492 165.512Z" fill="#A51C16"/>
<path d="M121.438 162.167L125.973 159.528L125.023 162.88L120.492 165.513L121.438 162.167Z" fill="#94190D"/>
<path d="M125.472 168.822L130.005 166.188L129.386 167.307L124.852 169.944L125.472 168.822Z" fill="#94190D"/>
<path d="M124.852 169.943L129.386 167.306C129.859 167.365 130.332 167.432 130.803 167.511L126.273 170.144C125.798 170.067 125.326 170.002 124.852 169.943Z" fill="#A51C16"/>
<path d="M122.383 161.325L126.918 158.687L129.541 163.036L125.008 165.671L122.383 161.325Z" fill="#A51C16"/>
<path d="M126.148 167.576L130.679 164.942L132.215 167.493L127.682 170.126L126.148 167.576Z" fill="#A51C16"/>
<path d="M129.938 170.885L134.47 168.252C135.33 168.465 136.192 168.704 137.056 168.966L132.525 171.599C131.659 171.339 130.795 171.1 129.938 170.885Z" fill="#A51C16"/>
<path d="M131.36 169.557L135.893 166.922L134.47 168.251L129.938 170.884L131.36 169.557Z" fill="#94190D"/>
<path d="M128.152 163.937L132.686 161.304L130.679 164.944L126.148 167.577L128.152 163.937Z" fill="#94190D"/>
<path d="M132.273 168.701L136.808 166.067L138.323 168.725L133.788 171.36L132.273 168.701Z" fill="#A51C16"/>
<path d="M129.688 164.135L134.22 161.502L135.75 164.194L131.22 166.829L129.688 164.135Z" fill="#A51C16"/>
<path d="M135.516 172.624L140.05 169.989C140.761 170.255 141.471 170.537 142.182 170.838L137.651 173.473C136.937 173.172 136.228 172.887 135.516 172.624Z" fill="#A51C16"/>
<path d="M136.724 171.436L141.259 168.801C140.767 169.299 140.372 169.686 140.05 169.99L135.516 172.625C135.835 172.319 136.232 171.932 136.724 171.436Z" fill="#94190D"/>
<path d="M134.527 166.595L139.058 163.962L136.808 166.065L132.273 168.698L134.527 166.595Z" fill="#94190D"/>
<path d="M137.648 170.486L142.179 167.851L143.539 170.838L139.004 173.471L137.648 170.486Z" fill="#A51C16"/>
<path d="M136.109 167.076L140.642 164.443L141.263 165.813L136.732 168.448L136.109 167.076Z" fill="#94190D"/>
<path d="M140.633 174.833L145.166 172.2C145.729 172.478 146.286 172.761 146.845 173.054L142.31 175.689C141.753 175.396 141.194 175.111 140.633 174.833Z" fill="#A51C16"/>
<path d="M141.489 174.073L146.022 171.439L145.164 172.202L140.633 174.835L141.489 174.073Z" fill="#94190D"/>
<path d="M138.966 169.118L143.499 166.484C143.009 166.998 142.574 167.446 142.181 167.852L137.648 170.487C138.041 170.079 138.474 169.627 138.966 169.118Z" fill="#94190D"/>
<path d="M142.438 173.223L146.968 170.588L148.403 173.413L143.874 176.046L142.438 173.223Z" fill="#A51C16"/>
<path d="M140.438 169.304L144.97 166.671L145.981 168.657L141.449 171.29L140.438 169.304Z" fill="#A51C16"/>
<path d="M145.5 177.49L150.033 174.854C150.826 175.329 151.618 175.827 152.409 176.342L147.877 178.976C147.086 178.459 146.293 177.964 145.5 177.49Z" fill="#A51C16"/>
<path d="M146.622 176.672L151.155 174.039L150.033 174.853L145.5 177.488L146.622 176.672Z" fill="#4A4949"/>
<path d="M143.987 171.849L148.52 169.216L146.968 170.589L142.438 173.224L143.987 171.849Z" fill="#94190D"/>
<path d="M147.617 175.942L152.148 173.309L154.4 177.443L149.865 180.076L147.617 175.942Z" fill="#A51C16"/>
<path d="M145.562 172.184L150.093 169.553L151.116 171.435L146.583 174.07L145.562 172.184Z" fill="#A51C16"/>
<path d="M151.469 181.476L156.003 178.843C156.385 179.122 156.769 179.412 157.156 179.706L152.624 182.34C152.237 182.045 151.85 181.755 151.469 181.476Z" fill="#A51C16"/>
<path d="M151.99 181.016L156.524 178.383L156.002 178.842L151.469 181.476L151.99 181.016Z" fill="#94190D"/>
<path d="M149.063 174.891L153.596 172.258L152.148 173.309L147.617 175.942L149.063 174.891Z" fill="#4A4949"/>
<path d="M209.945 279.458L214.478 276.823C215.484 281.932 216.014 286.634 216.002 290.745C216.001 290.981 216.001 291.22 215.999 291.456L211.464 294.089C211.468 293.857 211.47 293.614 211.47 293.378C211.479 289.267 210.949 284.568 209.945 279.458Z" fill="#94190D"/>
<path d="M152.945 180.165L157.478 177.532L159.315 181.385L154.78 184.018L152.945 180.165Z" fill="#A51C16"/>
<path d="M150.617 175.287L155.148 172.654L156.536 175.569L152.002 178.202L150.617 175.287Z" fill="#A51C16"/>
<path d="M156.492 185.475L161.023 182.838C161.917 183.6 162.814 184.387 163.704 185.201L159.171 187.836C158.281 187.02 157.386 186.233 156.492 185.475Z" fill="#A51C16"/>
<path d="M157.724 184.728L162.256 182.095L161.023 182.836L156.492 185.473L157.724 184.728Z" fill="#706F6F"/>
<path d="M211.461 294.085L215.996 291.452L224.485 288.888L219.952 291.523L211.461 294.085Z" fill="#A51C16"/>
<path d="M154.816 178.525L159.351 175.892L157.478 177.533L152.945 180.166L154.816 178.525Z" fill="#94190D"/>
<path d="M158.797 184.096L163.332 181.463L165.873 186.909L161.342 189.546L158.797 184.096Z" fill="#A51C16"/>
<path d="M209.859 277.374L214.39 274.737L225.802 288.493L221.269 291.126L209.859 277.374Z" fill="#94190D"/>
<path d="M162.711 191.229L167.244 188.594C167.73 189.078 168.22 189.572 168.709 190.076L164.174 192.709C163.69 192.209 163.197 191.711 162.711 191.229Z" fill="#A51C16"/>
<path d="M156.531 179.255L161.064 176.622L162.422 179.529L157.889 182.162L156.531 179.255Z" fill="#A51C16"/>
<path d="M205.641 263.401L210.173 260.768C211.537 264.889 212.678 268.883 213.578 272.694L209.046 275.329C208.144 271.517 207.002 267.522 205.641 263.401Z" fill="#94190D"/>
<path d="M161.336 189.547L165.867 186.91L167.41 186.146L162.876 188.779L161.336 189.547Z" fill="#B71C1C"/>
<path d="M164.711 190.24L169.246 187.604L170.603 191.674L166.071 194.311L164.711 190.24Z" fill="#A51C16"/>
<path d="M167.312 196.065L171.847 193.432C172.632 194.301 173.41 195.19 174.197 196.101L169.662 198.736C168.879 197.823 168.101 196.936 167.312 196.065Z" fill="#A51C16"/>
<path d="M213 295.798L217.533 293.165L237.684 304.797L233.152 307.43L213 295.798Z" fill="#94190D"/>
<path d="M160.9 182.841L165.432 180.206L163.332 181.464L158.797 184.097L160.9 182.841Z" fill="#706F6F"/>
<path d="M200.32 249.341L204.853 246.708C206.272 250.059 207.571 253.372 208.741 256.637L204.208 259.272C203.036 256.011 201.739 252.692 200.32 249.341Z" fill="#94190D"/>
<path d="M172.539 202.212L177.074 199.579C178.008 200.738 178.935 201.921 179.852 203.126L175.318 205.761C174.4 204.552 173.476 203.371 172.539 202.212Z" fill="#94190D"/>
<path d="M162.508 183.641L167.041 181.008L168.561 185.569L164.028 188.204L162.508 183.641Z" fill="#A51C16"/>
<path d="M222.703 292.868L227.236 290.235L239.513 305.025L234.98 307.656L222.703 292.868Z" fill="#94190D"/>
<path d="M166.07 194.311L170.603 191.674L173.052 190.598L168.52 193.233L166.07 194.311Z" fill="#B71C1C"/>
<path d="M236.529 309.553L241.06 306.92L240.668 308.193L236.133 310.828L236.529 309.553Z" fill="#94190D"/>
<path d="M170.211 194.791L174.744 192.158L175.916 197.771L171.385 200.404L170.211 194.791Z" fill="#A51C16"/>
<path d="M177.562 208.757L182.097 206.124C183.857 208.548 185.59 211.061 187.281 213.65L182.748 216.285C181.057 213.696 179.326 211.18 177.562 208.757Z" fill="#94190D"/>
<path d="M192.273 232.419L196.806 229.786C199.175 234.248 201.362 238.748 203.348 243.214L198.817 245.847C196.829 241.381 194.642 236.881 192.273 232.419Z" fill="#94190D"/>
<path d="M185.578 220.728L190.109 218.093C191.672 220.626 193.196 223.223 194.669 225.858L190.136 228.493C188.665 225.856 187.143 223.261 185.578 220.728Z" fill="#94190D"/>
<path d="M216.301 272.338L220.832 269.705L214.39 274.736L209.859 277.373L216.301 272.338Z" fill="#7C120D"/>
<path d="M164.031 188.206L168.564 185.571L171.184 184.274L166.653 186.908L164.031 188.206Z" fill="#B71C1C"/>
<path d="M171.398 200.403L175.929 197.769L178.652 196.737L174.118 199.372L171.398 200.403Z" fill="#B71C1C"/>
<path d="M205.328 261.354L209.859 258.719L220.284 267.465L215.753 270.1L205.328 261.354Z" fill="#94190D"/>
<path d="M175.812 200.98L180.345 198.347L181.458 204.186L176.927 206.819L175.812 200.98Z" fill="#94190D"/>
<path d="M168.969 188.818L173.502 186.181L174.304 190.039L169.771 192.671L168.969 188.818Z" fill="#A51C16"/>
<path d="M169.781 192.669L174.314 190.038L176.761 188.962L172.231 191.597L169.781 192.669Z" fill="#B71C1C"/>
<path d="M176.914 206.818L181.445 204.185L185.715 204.116L181.185 206.751L176.914 206.818Z" fill="#A51C16"/>
<path d="M208.875 253.81L213.406 251.175L209.859 258.716L205.328 261.351L208.875 253.81Z" fill="#7C120D"/>
<path d="M182.898 208.675L187.429 206.042L189.084 216.115L184.551 218.746L182.898 208.675Z" fill="#94190D"/>
<path d="M200.258 247.564L204.791 244.931L212.387 248.912L207.855 251.545L200.258 247.564Z" fill="#94190D"/>
<path d="M174.375 193.498L178.908 190.865L179.934 196.248L175.401 198.883L174.375 193.498Z" fill="#A51C16"/>
<path d="M184.547 218.745L189.08 216.114L194.185 216.719L189.652 219.353L184.547 218.745Z" fill="#A51C16"/>
<path d="M191.234 221.404L195.767 218.771L196.24 227.819L191.705 230.452L191.234 221.404Z" fill="#94190D"/>
<path d="M175.406 198.886L179.939 196.251L183.342 194.96L178.809 197.595L175.406 198.886Z" fill="#B71C1C"/>
<path d="M191.688 230.452L196.222 227.819L204.392 230.759L199.859 233.394L191.688 230.452Z" fill="#A51C16"/>
<path d="M201.265 235.657L205.798 233.023L204.791 244.931L200.258 247.564L201.265 235.657Z" fill="#7C120D"/>
<path d="M181.508 200.201L186.041 197.566L187.111 204.095L182.58 206.73L181.508 200.201Z" fill="#94190D"/>
<path d="M221.266 291.126L225.798 288.493L238.606 284.621L234.071 287.256L221.266 291.126Z" fill="#A51C16"/>
<path d="M182.562 206.729L187.093 204.094L192.339 204.016L187.804 206.649L182.562 206.729Z" fill="#A51C16"/>
<path d="M217.406 271.485L221.937 268.852L239.149 283.293L234.616 285.926L217.406 271.485Z" fill="#94190D"/>
<path d="M190.617 209.676L195.148 207.043L195.665 216.898L191.132 219.529L190.617 209.676Z" fill="#7C120D"/>
<path d="M191.125 219.529L195.658 216.897L204.44 217.945L199.907 220.58L191.125 219.529Z" fill="#A51C16"/>
<path d="M202.279 223.598L206.812 220.965L205.931 231.314L201.398 233.95L202.279 223.598Z" fill="#7C120D"/>
<path d="M227.041 263.957L231.573 261.322L221.937 268.85L217.406 271.483L227.041 263.957Z" fill="#7C120D"/>
<path d="M209.516 252.419L214.05 249.784L230.104 258.199L225.571 260.83L209.516 252.419Z" fill="#94190D"/>
<path d="M201.398 233.95L205.931 231.313L217.094 235.331L212.561 237.964L201.398 233.95Z" fill="#A51C16"/>
<path d="M214.734 241.324L219.267 238.69L214.05 249.784L209.516 252.419L214.734 241.324Z" fill="#7C120D"/>
<path d="M235.045 265.766C230.315 254.236 223.394 241.783 215.028 229.735C206.259 217.114 196.282 205.359 185.366 194.808C173.64 183.463 161.411 174.085 149.013 166.929C145.764 165.052 142.518 163.344 138.743 161.538C129.867 157.342 121.119 154.41 112.628 152.811C101.69 150.749 91.6743 150.958 82.8653 153.432C79.2134 154.455 75.8315 155.872 72.7828 157.645C71.2719 158.522 69.7629 159.399 68.25 160.278C71.2987 158.507 74.6806 157.088 78.3325 156.065C87.1396 153.593 97.157 153.382 108.096 155.447C116.589 157.046 125.334 159.974 134.21 164.173C137.985 165.979 141.231 167.685 144.483 169.564C156.878 176.72 169.108 186.098 180.833 197.443C191.747 207.996 201.724 219.749 210.493 232.368C218.863 244.416 225.78 256.871 230.51 268.401C235.34 280.165 237.874 290.96 237.851 299.623C237.839 303.201 237.395 306.533 236.531 309.551L241.064 306.918C241.93 303.9 242.374 300.566 242.383 296.99C242.408 288.327 239.873 277.528 235.045 265.766Z" fill="#94190D"/>
<path d="M230.508 268.403C235.338 280.167 237.872 290.962 237.849 299.625C237.837 303.202 237.393 306.534 236.529 309.553L236.133 310.828L209.604 295.818L209.664 294.799C209.715 293.964 209.742 293.172 209.746 292.383C209.767 285.163 208.013 275.776 204.673 265.234C201.303 254.578 196.456 243.221 190.663 232.391C184.791 221.418 178.01 211.138 170.977 202.555C170.563 202.218 170.415 201.998 170.322 201.763C170.167 201.575 170.013 201.387 169.856 201.201C161.557 191.316 153.006 183.794 144.45 178.853C135.898 173.915 127.332 171.555 118.998 171.839C118.601 172.03 118.038 171.984 117.9 171.904C113.637 172.172 109.474 173.154 105.537 174.809C102.766 176 100.359 177.344 98.0857 178.943C92.2545 183.061 87.3598 188.794 83.9396 195.531C80.5519 202.19 78.7499 209.524 78.7288 216.742C78.725 217.531 78.7442 218.35 78.792 219.241L78.8495 220.329L52.4033 205.058L51.9609 203.092C51.0953 199.045 50.6606 195.167 50.6721 191.559C50.697 182.9 53.2918 175.062 58.1693 168.905C58.899 167.974 59.686 167.088 60.521 166.239C60.6742 165.837 60.8121 165.768 60.9748 165.785C65.5191 161.329 71.4384 157.999 78.3248 156.067C87.1319 153.594 97.1493 153.384 108.088 155.448C116.581 157.047 125.327 159.975 134.203 164.175C137.977 165.981 141.223 167.687 144.475 169.566C156.871 176.722 169.1 186.1 180.825 197.444C191.739 207.998 201.716 219.75 210.485 232.37C218.861 244.417 225.778 256.873 230.508 268.403ZM216.297 272.342L209.855 277.377L221.265 291.13L234.07 287.26L216.297 272.342ZM67.369 202.276L78.815 201.722L72.3059 189.24L54.6304 183.658L67.369 202.276ZM234.605 285.927C233.111 279.175 230.541 271.745 227.029 263.96L217.393 271.486L234.605 285.927ZM61.5455 168.61C58.0564 172.31 55.4941 176.714 53.9831 181.678L71.1971 187.117L61.5455 168.61ZM72.8613 187.643L83.434 190.983L79.9411 179.38L62.9837 168.698L72.8613 187.643ZM208.865 253.812L205.318 261.354L215.744 270.1L225.464 262.507L208.865 253.812ZM52.4013 192.559C52.3918 195.816 52.7652 199.306 53.5063 202.946L65.9213 202.347L53.3627 184.001C52.7365 186.709 52.4109 189.57 52.4013 192.559ZM234.984 307.657C235.733 304.901 236.119 301.871 236.129 298.631C236.137 295.671 235.834 292.478 235.235 289.085L222.709 292.869L234.984 307.657ZM74.1233 160.06C69.8892 161.837 66.2009 164.196 63.1235 167.049L79.2976 177.243L74.1233 160.06ZM225.575 260.831C222.546 254.487 218.913 247.924 214.74 241.323L209.522 252.418L225.575 260.831ZM80.9637 178.298L88.5547 183.082L87.6164 170.042L75.6055 160.498L80.9637 178.298ZM201.264 235.658L200.257 247.568L207.854 251.549L213.291 239.99L201.264 235.658ZM55.4271 204.823L75.5787 216.458L67.2235 204.254L55.4271 204.823ZM213.001 295.801L233.153 307.433L221.395 293.265L213.001 295.801ZM209.943 279.458C210.949 284.567 211.479 289.267 211.466 293.378C211.466 293.614 211.464 293.857 211.46 294.089L219.951 291.527L209.943 279.458ZM77.0149 216.365C77.013 216.162 77.013 215.953 77.0149 215.748C77.0264 211.663 77.5722 207.613 78.5967 203.704L68.6789 204.183L77.0149 216.365ZM191.697 230.455L199.868 233.397L200.793 222.552L191.226 221.407L191.697 230.455ZM97.1838 175.889L97.7066 167.413L88.166 157.524L89.0201 169.395L97.1838 175.889ZM79.357 158.246C78.2903 158.543 77.2524 158.874 76.2451 159.238L87.4843 168.177L86.6627 156.77C84.1445 157.097 81.7009 157.587 79.357 158.246ZM202.291 223.599L201.408 233.952L212.572 237.966C211.559 236.432 210.52 234.898 209.455 233.362C207.151 230.043 204.759 226.786 202.291 223.599ZM97.8138 165.657L98.3864 156.369C95.1462 156.184 92.0132 156.233 88.9894 156.505L97.8138 165.657ZM209.045 275.329L214.643 270.957L205.64 263.403C207.002 267.524 208.143 271.519 209.045 275.329ZM190.613 209.677L191.128 219.528L199.91 220.579C196.917 216.843 193.817 213.205 190.613 209.677ZM79.5523 200.481C80.4658 197.754 81.6109 195.121 82.9763 192.617L73.9643 189.767L79.5523 200.481ZM182.894 208.676L184.548 218.747L189.652 219.354L189.089 208.574L182.894 208.676ZM104.378 172.463L106.085 164.33L99.9069 157.087L99.2864 167.181L104.378 172.463ZM198.815 245.85L199.723 235.105L192.271 232.424C194.64 236.884 196.827 241.384 198.815 245.85ZM89.991 182.86C91.9711 180.732 94.1485 178.805 96.5058 177.115L89.1522 171.264L89.991 182.86ZM204.217 259.274L207.197 252.939L200.33 249.343C201.749 252.694 203.045 256.013 204.217 259.274ZM84.493 190.018C85.6631 188.149 86.9538 186.374 88.3632 184.694L81.609 180.437L84.493 190.018ZM112.054 169.372L113.199 164.839L109.041 158.443L107.797 164.384L112.054 169.372ZM175.799 200.981L176.911 206.82L181.182 206.753L179.977 199.398L175.799 200.981ZM107.527 157.442C105.355 157.064 103.228 156.775 101.138 156.578L106.41 162.762L107.527 157.442ZM187.815 206.652C185.749 204.451 183.644 202.305 181.501 200.204L182.574 206.732L187.815 206.652ZM177.56 208.758C179.322 211.182 181.055 213.697 182.746 216.286L181.501 208.697L177.56 208.758ZM106.205 171.965C107.881 171.356 109.593 170.86 111.334 170.485L107.469 165.952L106.205 171.965ZM185.573 220.729C187.135 223.262 188.658 225.859 190.13 228.494L189.747 221.229L185.573 220.729ZM98.7636 175.6C100.223 174.69 101.724 173.884 103.266 173.175L99.1735 168.93L98.7636 175.6ZM170.214 194.792L171.388 200.407L174.108 199.376L173.001 193.566L170.214 194.792ZM117.598 169.351L118.798 165.106L116.026 160.67L114.89 165.186L117.598 169.351ZM126.15 167.578L127.684 170.129L130.29 167.697L128.153 163.937L126.15 167.578ZM158.789 184.099L161.335 189.549L162.874 188.783L160.89 182.842L158.789 184.099ZM122.937 169.409L124.312 166.919L121.447 162.168L120.501 165.513L122.937 169.409ZM164.707 190.242L166.067 194.313L168.516 193.235L167.591 188.806L164.707 190.242ZM110.19 157.947L113.611 163.214L114.672 158.995C113.17 158.604 111.678 158.261 110.19 157.947ZM152.945 180.167L154.779 184.02L156.815 182.804L154.816 178.526L152.945 180.167ZM174.372 193.501L175.398 198.886L178.801 197.596C177.334 196.198 175.856 194.836 174.372 193.501ZM132.272 168.7L133.787 171.362C134.245 170.95 134.988 170.219 135.796 169.405L134.526 166.599L132.272 168.7ZM149.864 180.079L151.039 179.049L149.059 174.893L147.614 175.944L149.864 180.079ZM126.554 162.857C125.158 162.317 123.764 161.806 122.376 161.327L125.001 165.672L126.554 162.857ZM166.653 186.908C165.276 185.791 163.893 184.702 162.51 183.643L164.031 188.208L166.653 186.908ZM143.874 176.048L145.589 174.801L143.986 171.852L142.437 173.227L143.874 176.048ZM139.009 173.472L140.501 172.141L138.969 169.119C138.477 169.631 138.044 170.081 137.652 170.489L139.009 173.472ZM116.792 159.571L119.248 163.505L120.083 160.565C118.98 160.207 117.885 159.879 116.792 159.571ZM169.772 192.672L172.221 191.598C171.139 190.656 170.057 189.723 168.968 188.817L169.772 192.672ZM172.549 202.213C173.485 203.371 174.41 204.555 175.327 205.761L174.51 201.47L172.549 202.213ZM113.66 170.054C114.562 169.92 115.47 169.815 116.38 169.74L114.48 166.812L113.66 170.054ZM167.315 196.067C168.104 196.939 168.882 197.825 169.665 198.739L168.954 195.347L167.315 196.067ZM132.688 165.456C131.685 164.998 130.683 164.562 129.683 164.137L131.215 166.831L132.688 165.456ZM119.34 169.604C120.104 169.604 120.87 169.619 121.638 169.656L120.047 167.107L119.34 169.604ZM156.488 185.475C157.382 186.234 158.276 187.023 159.167 187.837L157.719 184.731L156.488 185.475ZM159.353 181.287C158.412 180.598 157.474 179.92 156.528 179.257L157.886 182.164L159.353 181.287ZM153.316 177.051C152.42 176.452 151.52 175.87 150.624 175.29L152.008 178.202L153.316 177.051ZM129.928 170.887C130.786 171.1 131.65 171.339 132.514 171.601L131.351 169.56L129.928 170.887ZM135.511 172.626C136.223 172.89 136.932 173.173 137.644 173.474L136.719 171.437C136.229 171.933 135.832 172.319 135.511 172.626ZM145.488 177.49C146.279 177.965 147.073 178.459 147.864 178.976L146.608 176.674L145.488 177.49ZM142.462 170.402C141.786 170.027 141.118 169.663 140.444 169.305L141.455 171.291L142.462 170.402ZM147.548 173.373C146.892 172.97 146.231 172.582 145.57 172.185L146.591 174.07L147.548 173.373ZM162.719 191.23C163.206 191.713 163.698 192.211 164.182 192.71L163.552 190.811L162.719 191.23ZM140.628 174.836C141.189 175.115 141.748 175.399 142.305 175.692L141.484 174.074L140.628 174.836ZM124.842 169.945C125.317 170.004 125.788 170.067 126.263 170.146L125.463 168.823L124.842 169.945ZM137.43 167.735C136.985 167.507 136.547 167.296 136.108 167.08L136.731 168.451C136.97 168.216 137.2 167.97 137.43 167.735ZM151.457 181.477C151.84 181.757 152.227 182.046 152.612 182.341L151.98 181.019L151.457 181.477Z" fill="#E94A3B"/>
<path d="M106.702 135.487V154.28L105.867 154.219V135.006L106.702 135.487Z" fill="#E94A3B"/>
<path d="M106.703 135.486L108.896 134.213V153.005L106.703 154.28V135.486Z" fill="#7C120D"/>
<path d="M105.867 135.006L108.06 133.729L108.895 134.213L106.702 135.486L105.867 135.006Z" fill="#94190D"/>
<path d="M128.911 148.613V159.962L128.078 159.902V148.133L128.911 148.613Z" fill="#E94A3B"/>
<path d="M128.914 148.612L131.109 147.339V158.687L128.914 159.961V148.612Z" fill="#7C120D"/>
<path d="M128.078 148.133L130.271 146.857L131.106 147.34L128.911 148.613L128.078 148.133Z" fill="#94190D"/>
<path d="M149.755 160.327V170.454L148.922 169.96V159.847L149.755 160.327Z" fill="#E94A3B"/>
<path d="M149.766 160.326L151.96 159.053V169.177L149.766 170.453V160.326Z" fill="#7C120D"/>
<path d="M148.922 159.847L151.115 158.571L151.949 159.054L149.755 160.327L148.922 159.847Z" fill="#94190D"/>
<path d="M170.646 172.654V185.397L169.812 184.899V172.174L170.646 172.654Z" fill="#E94A3B"/>
<path d="M170.656 172.653L172.849 171.38V184.117L170.656 185.396V172.653Z" fill="#7C120D"/>
<path d="M169.812 172.173L172.005 170.899L172.838 171.38L170.646 172.654L169.812 172.173Z" fill="#94190D"/>
<path d="M191.507 184.695V205.529L190.672 204.688V184.213L191.507 184.695Z" fill="#E94A3B"/>
<path d="M191.523 184.695L193.716 183.42V204.255L191.523 205.529V184.695Z" fill="#7C120D"/>
<path d="M190.672 184.214L192.866 182.938L193.7 183.421L191.507 184.696L190.672 184.214Z" fill="#94190D"/>
<path d="M214.288 197.839V234.19L213.455 233.351L213.453 197.354L214.288 197.839Z" fill="#E94A3B"/>
<path d="M214.289 197.839L216.482 196.562V232.914L214.289 234.189V197.839Z" fill="#7C120D"/>
<path d="M213.453 197.354L215.648 196.08L216.481 196.561L214.288 197.838L213.453 197.354Z" fill="#94190D"/>
<path d="M239.513 212.404V290.405L238.68 286.167V211.922L239.513 212.404Z" fill="#E94A3B"/>
<path d="M239.523 212.402L241.718 211.127V289.125L239.523 290.402V212.402Z" fill="#7C120D"/>
<path d="M238.68 211.921L240.87 210.647L241.707 211.128L239.513 212.404L238.68 211.921Z" fill="#94190D"/>
<path d="M85.0518 123.23V154.281L84.2188 154.22V122.747L85.0518 123.23Z" fill="#E94A3B"/>
<path d="M85.0547 123.229L87.2493 121.957V153.005L85.0547 154.28V123.229Z" fill="#7C120D"/>
<path d="M84.2188 122.747L86.4114 121.476L87.2464 121.958L85.0518 123.23L84.2188 122.747Z" fill="#94190D"/>
<path d="M385.978 195.665L411.697 180.693L411.687 184.085L385.969 199.056L385.978 195.665Z" fill="#564C49"/>
<path d="M84.4141 21.8328L110.131 6.85938L411.715 180.692L385.997 195.664L84.4141 21.8328Z" fill="#8C8785"/>
<path d="M327.301 229.816L327.292 233.208L25.7109 59.3769L25.7205 55.9873L327.301 229.816Z" fill="#4F4F4F"/>
<path d="M327.299 229.817L385.965 195.669L385.955 199.06L327.289 233.209L327.299 229.817Z" fill="#1E1E1E"/>
<path d="M25.7344 55.9882L84.3987 21.8379L385.981 195.669L327.315 229.817L25.7344 55.9882Z" fill="#3F3F3F"/>
<path d="M27.6868 58.804C27.6868 59.2234 27.3938 59.3958 27.0318 59.1832C26.6699 58.9725 26.375 58.4632 26.375 58.0457C26.375 57.6263 26.668 57.4559 27.0318 57.6665C27.3938 57.8791 27.6868 58.3846 27.6868 58.804Z" fill="#141412"/>
<path d="M38.2102 64.8747C38.2102 65.2941 37.9172 65.4626 37.5553 65.252C37.1933 65.0433 36.8984 64.5339 36.8984 64.1145C36.8984 63.6951 37.1914 63.5266 37.5534 63.7372C37.9153 63.9479 38.2102 64.4554 38.2102 64.8747Z" fill="#141412"/>
<path d="M48.7024 70.9431C48.7024 71.3606 48.4113 71.5329 48.0475 71.3223C47.6855 71.1136 47.3906 70.6042 47.3906 70.1848C47.3906 69.7654 47.6855 69.5969 48.0475 69.8075C48.4094 70.0182 48.7024 70.5257 48.7024 70.9431Z" fill="#141412"/>
<path d="M59.2258 77.0147C59.2258 77.4341 58.9309 77.6045 58.569 77.3938C58.2071 77.1851 57.9141 76.6757 57.9141 76.2563C57.9141 75.8369 58.2071 75.6665 58.569 75.8752C58.9309 76.0878 59.2258 76.5972 59.2258 77.0147Z" fill="#141412"/>
<path d="M69.7434 83.084C69.7434 83.5015 69.4504 83.6738 69.0865 83.4632C68.7246 83.2525 68.4297 82.7431 68.4297 82.3257C68.4297 81.9063 68.7227 81.7358 69.0865 81.9446C69.4504 82.1552 69.7434 82.6646 69.7434 83.084Z" fill="#141412"/>
<path d="M80.2453 89.1516C80.2453 89.571 79.9523 89.7415 79.5884 89.5289C79.2265 89.3202 78.9297 88.8108 78.9297 88.3952C78.9316 87.9739 79.2265 87.8035 79.5884 88.0141C79.9523 88.2229 80.2453 88.7322 80.2453 89.1516Z" fill="#141412"/>
<path d="M90.7668 95.223C90.7668 95.6405 90.4738 95.8109 90.11 95.6003C89.748 95.3935 89.4531 94.8841 89.4531 94.4628C89.4531 94.0453 89.7461 93.8749 90.11 94.0855C90.4719 94.2942 90.7668 94.8036 90.7668 95.223Z" fill="#141412"/>
<path d="M101.281 101.295C101.281 101.713 100.988 101.883 100.624 101.672C100.262 101.464 99.9688 100.954 99.9688 100.537C99.9688 100.118 100.262 99.9471 100.624 100.158C100.988 100.366 101.281 100.876 101.281 101.295Z" fill="#141412"/>
<path d="M111.782 107.365C111.782 107.782 111.489 107.953 111.128 107.742C110.766 107.533 110.471 107.024 110.469 106.604C110.469 106.185 110.766 106.017 111.128 106.225C111.489 106.434 111.782 106.943 111.782 107.365Z" fill="#141412"/>
<path d="M122.304 113.434C122.304 113.849 122.013 114.022 121.649 113.809C121.287 113.602 120.992 113.093 120.992 112.674C120.992 112.254 121.285 112.084 121.649 112.294C122.011 112.507 122.304 113.016 122.304 113.434Z" fill="#141412"/>
<path d="M132.823 119.501C132.823 119.92 132.529 120.088 132.167 119.88C131.805 119.671 131.508 119.16 131.508 118.74C131.51 118.325 131.805 118.156 132.167 118.365C132.529 118.574 132.823 119.083 132.823 119.501Z" fill="#141412"/>
<path d="M143.335 125.571C143.335 125.99 143.042 126.159 142.68 125.95C142.318 125.741 142.023 125.23 142.023 124.81C142.023 124.393 142.318 124.223 142.68 124.433C143.044 124.644 143.337 125.153 143.335 125.571Z" fill="#141412"/>
<path d="M153.837 131.638C153.837 132.059 153.544 132.228 153.18 132.017C152.818 131.809 152.523 131.299 152.523 130.88C152.523 130.46 152.818 130.292 153.18 130.501C153.544 130.713 153.837 131.223 153.837 131.638Z" fill="#141412"/>
<path d="M164.361 137.711C164.361 138.128 164.068 138.301 163.706 138.09C163.344 137.881 163.047 137.372 163.047 136.952C163.049 136.533 163.342 136.364 163.706 136.575C164.068 136.784 164.361 137.291 164.361 137.711Z" fill="#141412"/>
<path d="M174.876 143.779C174.876 144.198 174.583 144.371 174.219 144.16C173.859 143.951 173.562 143.442 173.562 143.022C173.564 142.603 173.857 142.431 174.219 142.645C174.583 142.854 174.878 143.359 174.876 143.779Z" fill="#141412"/>
<path d="M185.374 149.849C185.374 150.268 185.081 150.437 184.719 150.23C184.357 150.021 184.062 149.508 184.062 149.09C184.062 148.673 184.357 148.5 184.719 148.711C185.083 148.922 185.374 149.429 185.374 149.849Z" fill="#141412"/>
<path d="M195.923 155.936C195.923 156.356 195.628 156.526 195.266 156.315C194.904 156.107 194.609 155.597 194.609 155.178C194.609 154.759 194.904 154.59 195.266 154.801C195.63 155.008 195.923 155.519 195.923 155.936Z" fill="#141412"/>
<path d="M206.445 162.006C206.445 162.425 206.152 162.596 205.79 162.385C205.428 162.177 205.133 161.665 205.133 161.246C205.133 160.828 205.426 160.66 205.79 160.867C206.152 161.079 206.445 161.587 206.445 162.006Z" fill="#141412"/>
<path d="M216.947 168.077C216.947 168.495 216.654 168.667 216.29 168.455C215.928 168.246 215.633 167.738 215.633 167.319C215.635 166.898 215.928 166.727 216.29 166.938C216.654 167.147 216.947 167.658 216.947 168.077Z" fill="#141412"/>
<path d="M227.46 174.146C227.46 174.564 227.167 174.734 226.805 174.523C226.443 174.315 226.148 173.805 226.148 173.388C226.148 172.967 226.441 172.798 226.805 173.009C227.167 173.217 227.46 173.727 227.46 174.146Z" fill="#141412"/>
<path d="M237.986 180.218C237.986 180.636 237.691 180.806 237.329 180.595C236.965 180.387 236.672 179.877 236.672 179.458C236.672 179.04 236.965 178.87 237.329 179.081C237.691 179.289 237.986 179.799 237.986 180.218Z" fill="#141412"/>
<path d="M215.023 128.674L205.617 123.243L207.987 121.874L217.394 127.305L215.023 128.674ZM196.486 117.975L187.079 112.544L189.448 111.175L198.857 116.606L196.486 117.975ZM177.95 107.272L168.544 101.843L170.915 100.474L180.319 105.905L177.95 107.272ZM270.629 160.777L261.223 155.35L263.593 153.981L273 159.412L270.629 160.777ZM252.094 150.078L242.687 144.649L245.058 143.28L254.465 148.709L252.094 150.078ZM233.558 139.375L224.152 133.944L226.521 132.579L235.929 138.008L233.558 139.375ZM327.074 192.576L317.665 187.147L320.036 185.778L329.443 191.209L327.074 192.576ZM308.539 181.875L299.132 176.444L301.501 175.077L310.907 180.508L308.539 181.875ZM290.003 171.172L280.597 165.743L282.966 164.376L292.372 169.803L290.003 171.172ZM359.302 211.182L354.738 208.547L357.107 207.176L361.67 209.815L359.302 211.182ZM345.611 203.279L336.205 197.848L338.575 196.479L347.982 201.91L345.611 203.279ZM159.413 96.571L150.007 91.14L152.378 89.7708L161.786 95.2037L159.413 96.571ZM140.88 85.868L131.473 80.4371L133.842 79.0678L143.249 84.4988L140.88 85.868ZM122.343 75.167L112.936 69.736L115.307 68.3668L124.713 73.7978L122.343 75.167ZM103.807 64.4659L94.4007 59.035L96.7715 57.6657L106.178 63.0967L103.807 64.4659ZM85.2719 53.763L75.8654 48.3339L78.2362 46.9647L87.6427 52.3956L85.2719 53.763ZM66.7346 43.0619L57.3281 37.6329L59.6989 36.2617L69.1054 41.6927L66.7346 43.0619Z" fill="white"/>
<path d="M301.594 244.785L301.585 248.178L0 74.3456L0.0114901 70.9561L301.594 244.785Z" fill="#726865"/>
<path d="M301.588 244.785L327.304 229.813L327.295 233.205L301.578 248.178L301.588 244.785Z" fill="#564C49"/>
<path d="M0.015625 70.9558L25.7341 55.9805L327.315 229.813L301.598 244.785L0.015625 70.9558Z" fill="#8C8785"/>
<path d="M1.96213 73.7747C1.96213 74.1922 1.67105 74.3626 1.3072 74.1519C0.943348 73.9432 0.648438 73.4338 0.648438 73.0183C0.648438 72.597 0.943348 72.4265 1.30528 72.6372C1.66914 72.8478 1.96213 73.3553 1.96213 73.7747Z" fill="#141412"/>
<path d="M12.4837 79.8423C12.4837 80.2598 12.1907 80.4302 11.8268 80.2196C11.4649 80.0108 11.1719 79.5014 11.1719 79.084C11.1719 78.6627 11.463 78.4922 11.8268 78.7048C12.1926 78.9155 12.4837 79.4248 12.4837 79.8423Z" fill="#141412"/>
<path d="M22.9778 85.9148C22.9778 86.3303 22.6828 86.5027 22.3209 86.292C21.959 86.0833 21.6641 85.572 21.6641 85.1545C21.6641 84.7351 21.9571 84.5666 22.3209 84.7773C22.6828 84.986 22.9778 85.4935 22.9778 85.9148Z" fill="#141412"/>
<path d="M33.5031 91.9815C33.5031 92.4009 33.2082 92.5732 32.8463 92.3607C32.4843 92.1539 32.1875 91.6445 32.1875 91.2251C32.1875 90.8057 32.4824 90.6353 32.8463 90.844C33.2101 91.0546 33.5031 91.5679 33.5031 91.9815Z" fill="#141412"/>
<path d="M44.0149 98.0505C44.0149 98.4699 43.7219 98.6403 43.3581 98.4316C42.998 98.2209 42.7031 97.7116 42.7031 97.2903C42.7031 96.8709 42.998 96.7024 43.3581 96.913C43.7219 97.1237 44.0149 97.633 44.0149 98.0505Z" fill="#141412"/>
<path d="M54.5168 104.122C54.5168 104.541 54.2238 104.713 53.86 104.499C53.498 104.292 53.2031 103.781 53.2031 103.363C53.2031 102.942 53.498 102.774 53.86 102.984C54.2238 103.195 54.5168 103.702 54.5168 104.122Z" fill="#141412"/>
<path d="M65.0383 110.192C65.0383 110.61 64.7453 110.78 64.3815 110.569C64.0176 110.361 63.7266 109.851 63.7266 109.432C63.7266 109.012 64.0176 108.844 64.3815 109.055C64.7434 109.265 65.0383 109.773 65.0383 110.192Z" fill="#141412"/>
<path d="M75.5559 116.263C75.5559 116.682 75.2591 116.851 74.8971 116.64C74.5333 116.432 74.2422 115.922 74.2422 115.505C74.2422 115.083 74.5333 114.915 74.8971 115.124C75.261 115.336 75.5559 115.842 75.5559 116.263Z" fill="#141412"/>
<path d="M86.0715 122.33C86.0715 122.749 85.7785 122.92 85.4166 122.711C85.0565 122.502 84.7597 121.989 84.7578 121.573C84.7597 121.154 85.0546 120.984 85.4166 121.196C85.7785 121.407 86.0715 121.914 86.0715 122.33Z" fill="#141412"/>
<path d="M96.5774 128.4C96.5774 128.82 96.2863 128.992 95.9206 128.78C95.5605 128.571 95.2656 128.061 95.2656 127.644C95.2656 127.225 95.5605 127.054 95.9206 127.263C96.2863 127.474 96.5774 127.981 96.5774 128.4Z" fill="#141412"/>
<path d="M107.093 134.472C107.093 134.891 106.798 135.061 106.436 134.849C106.076 134.642 105.781 134.131 105.781 133.711C105.781 133.292 106.076 133.125 106.438 133.334C106.798 133.543 107.093 134.052 107.093 134.472Z" fill="#141412"/>
<path d="M117.609 140.539C117.609 140.957 117.318 141.129 116.954 140.918C116.592 140.71 116.297 140.2 116.297 139.783C116.297 139.365 116.592 139.193 116.954 139.403C117.318 139.612 117.609 140.122 117.609 140.539Z" fill="#141412"/>
<path d="M128.109 146.607C128.109 147.026 127.816 147.199 127.452 146.986C127.09 146.779 126.797 146.27 126.797 145.851C126.797 145.431 127.09 145.263 127.452 145.471C127.816 145.682 128.111 146.191 128.109 146.607Z" fill="#141412"/>
<path d="M138.632 152.679C138.632 153.098 138.339 153.271 137.977 153.06C137.613 152.851 137.32 152.338 137.32 151.923C137.32 151.503 137.613 151.333 137.977 151.543C138.339 151.752 138.632 152.26 138.632 152.679Z" fill="#141412"/>
<path d="M149.15 158.75C149.15 159.169 148.857 159.34 148.493 159.129C148.129 158.922 147.836 158.411 147.836 157.993C147.836 157.572 148.129 157.403 148.493 157.614C148.857 157.823 149.152 158.33 149.15 158.75Z" fill="#141412"/>
<path d="M159.648 164.817C159.648 165.237 159.355 165.407 158.991 165.197C158.631 164.988 158.336 164.478 158.336 164.059C158.336 163.642 158.629 163.469 158.991 163.68C159.355 163.89 159.648 164.4 159.648 164.817Z" fill="#141412"/>
<path d="M170.195 170.908C170.195 171.323 169.902 171.496 169.54 171.285C169.178 171.076 168.883 170.567 168.883 170.147C168.883 169.728 169.178 169.559 169.54 169.768C169.9 169.979 170.195 170.488 170.195 170.908Z" fill="#141412"/>
<path d="M180.716 176.974C180.716 177.394 180.425 177.566 180.063 177.355C179.701 177.146 179.406 176.637 179.406 176.218C179.406 175.798 179.699 175.63 180.063 175.839C180.425 176.049 180.716 176.557 180.716 176.974Z" fill="#141412"/>
<path d="M191.218 183.044C191.218 183.464 190.923 183.634 190.561 183.423C190.199 183.215 189.906 182.705 189.906 182.286C189.906 181.867 190.199 181.696 190.561 181.907C190.923 182.121 191.218 182.625 191.218 183.044Z" fill="#141412"/>
<path d="M201.736 189.115C201.736 189.531 201.443 189.703 201.081 189.494C200.717 189.285 200.422 188.774 200.422 188.355C200.424 187.935 200.717 187.767 201.081 187.977C201.443 188.188 201.736 188.696 201.736 189.115Z" fill="#141412"/>
<path d="M212.259 195.185C212.259 195.603 211.966 195.773 211.602 195.563C211.24 195.354 210.945 194.844 210.945 194.425C210.945 194.006 211.24 193.837 211.602 194.048C211.966 194.258 212.259 194.766 212.259 195.185Z" fill="#141412"/>
<path d="M222.767 201.253C222.767 201.674 222.474 201.844 222.11 201.634C221.748 201.425 221.453 200.914 221.453 200.496C221.453 200.077 221.748 199.908 222.11 200.119C222.474 200.324 222.767 200.835 222.767 201.253Z" fill="#141412"/>
<path d="M233.275 207.325C233.275 207.744 232.982 207.916 232.618 207.706C232.254 207.495 231.961 206.986 231.961 206.568C231.963 206.149 232.254 205.977 232.618 206.191C232.98 206.4 233.275 206.909 233.275 207.325Z" fill="#141412"/>
<path d="M243.788 213.393C243.788 213.812 243.495 213.984 243.133 213.774C242.771 213.565 242.477 213.052 242.477 212.636C242.477 212.217 242.771 212.046 243.133 212.255C243.495 212.466 243.788 212.973 243.788 213.393Z" fill="#141412"/>
<path d="M254.321 219.482C254.321 219.9 254.027 220.07 253.667 219.859C253.305 219.653 253.008 219.141 253.008 218.722C253.01 218.303 253.305 218.134 253.667 218.345C254.028 218.555 254.323 219.065 254.321 219.482Z" fill="#141412"/>
<path d="M264.843 225.549C264.843 225.968 264.55 226.14 264.188 225.93C263.826 225.721 263.531 225.21 263.531 224.792C263.531 224.373 263.824 224.204 264.188 224.415C264.55 224.626 264.843 225.131 264.843 225.549Z" fill="#141412"/>
<path d="M275.353 231.622C275.353 232.038 275.058 232.208 274.696 231.998C274.334 231.789 274.039 231.279 274.039 230.862C274.039 230.443 274.334 230.274 274.696 230.481C275.06 230.695 275.353 231.203 275.353 231.622Z" fill="#141412"/>
<path d="M285.874 237.689C285.874 238.109 285.581 238.281 285.219 238.07C284.857 237.862 284.562 237.348 284.562 236.929C284.562 236.512 284.857 236.343 285.219 236.554C285.583 236.762 285.874 237.27 285.874 237.689Z" fill="#141412"/>
<path d="M296.384 243.759C296.384 244.178 296.091 244.349 295.727 244.136C295.365 243.931 295.07 243.418 295.07 242.999C295.07 242.583 295.363 242.411 295.727 242.621C296.089 242.834 296.384 243.339 296.384 243.759Z" fill="#141412"/>
<path d="M2.44899 66.8534L3.73204 66.1104L3.71864 70.6125L2.4375 71.3575L2.44899 66.8534Z" fill="#7C120D"/>
<path d="M8.94118 70.5946L10.2242 69.8535L10.2108 74.3557L8.92969 75.1006L8.94118 70.5946Z" fill="#7C120D"/>
<path d="M15.4334 74.3407L16.7164 73.5977L16.703 78.1018L15.4219 78.8448L15.4334 74.3407Z" fill="#7C120D"/>
<path d="M21.904 78.0887L23.1833 77.3457L23.1718 81.8479L21.8906 82.5928L21.904 78.0887Z" fill="#7C120D"/>
<path d="M28.404 81.8319L29.6852 81.0889L29.6737 85.591L28.3906 86.336L28.404 81.8319Z" fill="#7C120D"/>
<path d="M34.904 85.5819L36.1852 84.8369L36.1718 89.3391L34.8906 90.084L34.904 85.5819Z" fill="#7C120D"/>
<path d="M41.3728 89.3279L42.6539 88.5811L42.6405 93.0832L41.3594 93.8301L41.3728 89.3279Z" fill="#7C120D"/>
<path d="M47.8709 93.0731L49.1558 92.3281L49.1405 96.8322L47.8594 97.5752L47.8709 93.0731Z" fill="#7C120D"/>
<path d="M54.3493 96.8172L55.6305 96.0723L55.619 100.576L54.3359 101.319L54.3493 96.8172Z" fill="#7C120D"/>
<path d="M60.8337 100.564L62.1149 99.8193L62.1014 104.323L60.8203 105.066L60.8337 100.564Z" fill="#7C120D"/>
<path d="M67.3337 104.311L68.6149 103.566L68.6034 108.071L67.3203 108.814L67.3337 104.311Z" fill="#7C120D"/>
<path d="M73.8084 108.055L75.0914 107.309L75.078 111.813L73.7969 112.558L73.8084 108.055Z" fill="#7C120D"/>
<path d="M80.3025 111.804L81.5836 111.056L81.5702 115.56L80.2891 116.303L80.3025 111.804Z" fill="#7C120D"/>
<path d="M86.8025 115.548L88.0817 114.803L88.0702 119.307L86.7891 120.052L86.8025 115.548Z" fill="#7C120D"/>
<path d="M93.2771 119.292L94.5602 118.547L94.5468 123.051L93.2656 123.796L93.2771 119.292Z" fill="#7C120D"/>
<path d="M99.7693 123.035L101.05 122.292L101.037 126.796L99.7578 127.543L99.7693 123.035Z" fill="#7C120D"/>
<path d="M106.256 126.783L107.537 126.038L107.525 130.544L106.242 131.289L106.256 126.783Z" fill="#7C120D"/>
<path d="M112.74 130.527L114.021 129.784L114.008 134.286L112.727 135.031L112.74 130.527Z" fill="#7C120D"/>
<path d="M119.24 134.275L120.521 133.53L120.508 138.034L119.227 138.779L119.24 134.275Z" fill="#7C120D"/>
<path d="M125.722 138.022L127.004 137.277L126.992 141.78L125.711 142.524L125.722 138.022Z" fill="#7C120D"/>
<path d="M132.207 141.766L133.49 141.023L133.476 145.528L132.195 146.271L132.207 141.766Z" fill="#7C120D"/>
<path d="M138.691 145.511L139.974 144.768L139.963 149.27L138.68 150.015L138.691 145.511Z" fill="#7C120D"/>
<path d="M145.172 149.256L146.451 148.513L146.439 153.015L145.156 153.762L145.172 149.256Z" fill="#7C120D"/>
<path d="M151.668 153.004L152.951 152.259L152.937 156.763L151.656 157.506L151.668 153.004Z" fill="#7C120D"/>
<path d="M158.16 156.75L159.441 156.005L159.43 160.507L158.148 161.25L158.16 156.75Z" fill="#7C120D"/>
<path d="M164.646 160.496L165.927 159.751L165.914 164.255L164.633 164.998L164.646 160.496Z" fill="#7C120D"/>
<path d="M171.131 164.241L172.412 163.496L172.4 168.002L171.117 168.745L171.131 164.241Z" fill="#7C120D"/>
<path d="M177.615 167.985L178.898 167.242L178.885 171.746L177.602 172.489L177.615 167.985Z" fill="#7C120D"/>
<path d="M184.105 171.733L185.39 170.988L185.375 175.492L184.094 176.237L184.105 171.733Z" fill="#7C120D"/>
<path d="M190.592 175.479L191.873 174.734L191.859 179.24L190.578 179.982L190.592 175.479Z" fill="#7C120D"/>
<path d="M197.076 179.221L198.355 178.477L198.344 182.981L197.062 183.728L197.076 179.221Z" fill="#7C120D"/>
<path d="M203.568 182.97L204.847 182.223L204.836 186.729L203.555 187.474L203.568 182.97Z" fill="#7C120D"/>
<path d="M210.06 186.713L211.339 185.97L211.328 190.472L210.047 191.217L210.06 186.713Z" fill="#7C120D"/>
<path d="M216.558 190.461L217.839 189.716L217.826 194.22L216.547 194.965L216.558 190.461Z" fill="#7C120D"/>
<path d="M223.029 194.204L224.31 193.461L224.297 197.963L223.016 198.708L223.029 194.204Z" fill="#7C120D"/>
<path d="M229.529 197.953L230.81 197.21L230.797 201.712L229.516 202.457L229.529 197.953Z" fill="#7C120D"/>
<path d="M236.029 201.697L237.308 200.954L237.295 205.456L236.016 206.201L236.029 201.697Z" fill="#7C120D"/>
<path d="M242.496 205.443L243.779 204.696L243.765 209.198L242.484 209.945L242.496 205.443Z" fill="#7C120D"/>
<path d="M248.998 209.188L250.281 208.445L250.267 212.947L248.984 213.692L248.998 209.188Z" fill="#7C120D"/>
<path d="M255.467 212.934L256.748 212.189L256.736 216.694L255.453 217.44L255.467 212.934Z" fill="#7C120D"/>
<path d="M261.959 216.682L263.242 215.938L263.228 220.44L261.945 221.185L261.959 216.682Z" fill="#7C120D"/>
<path d="M268.459 220.426L269.74 219.681L269.726 224.183L268.445 224.93L268.459 220.426Z" fill="#7C120D"/>
<path d="M274.927 224.174L276.209 223.427L276.197 227.933L274.914 228.676L274.927 224.174Z" fill="#7C120D"/>
<path d="M281.427 227.922L282.711 227.173L282.697 231.681L281.414 232.422L281.427 227.922Z" fill="#7C120D"/>
<path d="M287.918 231.662L289.201 230.919L289.187 235.423L287.906 236.162L287.918 231.662Z" fill="#7C120D"/>
<path d="M294.404 235.409L295.687 234.664L295.674 239.168L294.391 239.911L294.404 235.409Z" fill="#7C120D"/>
<path d="M300.888 239.156L302.17 238.411L302.156 242.915L300.875 243.658L300.888 239.156Z" fill="#7C120D"/>
<path d="M1.11719 62.9256L2.39833 62.1826L303.096 235.791L301.817 236.534L1.11719 62.9256Z" fill="#A51C16"/>
<path d="M301.816 236.534L303.096 235.791L303.09 238.945L301.812 239.69L301.816 236.534Z" fill="#7C120D"/>
<path d="M301.823 236.533L301.819 239.689L300.888 239.155L300.875 243.657L300.304 238.816L294.398 235.407L294.385 239.91L293.816 235.07L287.91 231.662L287.899 236.162L287.324 231.323L281.424 227.92L281.411 232.42L280.842 227.581L274.936 224.172L274.923 228.674L274.352 223.835L268.448 220.424L268.435 224.929L267.864 220.087L261.962 216.681L261.949 221.183L261.38 216.344L255.474 212.933L255.461 217.439L254.888 212.596L248.984 209.187L248.971 213.691L248.4 208.85L242.494 205.443L242.483 209.946L241.916 205.108L236.012 201.696L235.998 206.2L235.428 201.361L229.522 197.952L229.508 202.456L228.938 197.611L223.034 194.204L223.02 198.708L222.452 193.867L216.548 190.46L216.536 194.964L215.964 190.123L210.06 186.713L210.046 191.217L209.474 186.376L203.572 182.969L203.558 187.473L202.989 182.632L197.082 179.221L197.068 183.727L196.501 178.888L190.597 175.477L190.584 179.98L190.011 175.14L184.106 171.732L184.094 176.236L183.523 171.393L177.618 167.984L177.604 172.488L177.039 167.649L171.133 164.24L171.12 168.744L170.549 163.903L164.645 160.494L164.632 164.997L164.059 160.157L158.155 156.749L158.144 161.249L157.575 156.412L151.669 153.003L151.658 157.505L151.087 152.666L145.183 149.255L145.168 153.761L144.599 148.922L138.691 145.509L138.68 150.014L138.109 145.174L132.207 141.766L132.195 146.27L131.625 141.429L125.719 138.022L125.707 142.524L125.135 137.683L119.231 134.274L119.218 138.778L118.645 133.935L112.741 130.526L112.728 135.031L112.161 130.191L106.257 126.783L106.243 131.289L105.671 126.446L99.7668 123.035L99.7553 127.543L99.1827 122.698L93.2768 119.291L93.2654 123.795L92.6985 118.954L86.7945 115.547L86.7811 120.051L86.2066 115.21L80.3046 111.803L80.2912 116.302L79.7186 111.463L73.8146 108.054L73.8031 112.556L73.2344 107.719L67.3304 104.31L67.317 108.812L66.7463 103.971L60.8424 100.564L60.829 105.066L60.2583 100.227L54.3524 96.8166L54.339 101.319L53.7684 96.4795L47.8663 93.0727L47.8548 97.5749L47.2822 92.7357L41.3783 89.327L41.3649 93.8292L40.7942 88.9899L34.8902 85.5812L34.8768 90.0834L34.3042 85.2442L28.4003 81.8317L28.3869 86.3358L27.82 81.4984L21.9161 78.0878L21.9027 82.5919L21.3301 77.7527L15.4261 74.3402L15.4146 78.8442L14.842 74.005L8.93616 70.5944L8.92466 75.1004L8.35399 70.2612L2.45195 66.8525L2.44046 71.3566L1.86787 66.5116L1.11719 66.0827L1.12293 62.9248L301.823 236.533Z" fill="#E94A3B"/>
<path d="M108.506 4.67459L109.787 3.92773L109.773 8.42991L108.492 9.17677L108.506 4.67459Z" fill="#7C120D"/>
<path d="M115.006 8.41584L116.289 7.6709L116.275 12.175L114.992 12.9199L115.006 8.41584Z" fill="#7C120D"/>
<path d="M121.498 12.1648L122.779 11.418L122.766 15.9221L121.484 16.6651L121.498 12.1648Z" fill="#7C120D"/>
<path d="M127.967 15.908L129.248 15.1631L129.234 19.6691L127.953 20.4121L127.967 15.908Z" fill="#7C120D"/>
<path d="M134.467 19.6551L135.748 18.9102L135.734 23.4142L134.453 24.1573L134.467 19.6551Z" fill="#7C120D"/>
<path d="M140.959 23.4011L142.242 22.6543L142.226 27.1584L140.945 27.9014L140.959 23.4011Z" fill="#7C120D"/>
<path d="M147.429 27.1463L148.711 26.4014L148.697 30.9055L147.414 31.6504L147.429 27.1463Z" fill="#7C120D"/>
<path d="M153.935 30.8934L155.216 30.1484L155.203 34.6525L153.922 35.3956L153.935 30.8934Z" fill="#7C120D"/>
<path d="M160.426 34.6375L161.709 33.8926L161.695 38.3967L160.414 39.1416L160.426 34.6375Z" fill="#7C120D"/>
<path d="M166.896 38.3846L168.177 37.6396L168.164 42.1437L166.883 42.8887L166.896 38.3846Z" fill="#7C120D"/>
<path d="M173.396 42.1287L174.677 41.3838L174.666 45.8898L173.383 46.6328L173.396 42.1287Z" fill="#7C120D"/>
<path d="M179.873 45.8729L181.154 45.1299L181.141 49.6321L179.859 50.3789L179.873 45.8729Z" fill="#7C120D"/>
<path d="M186.355 49.6219L187.636 48.8789L187.625 53.3811L186.344 54.126L186.355 49.6219Z" fill="#7C120D"/>
<path d="M192.857 53.366L194.138 52.6211L194.125 57.1252L192.844 57.8701L192.857 53.366Z" fill="#7C120D"/>
<path d="M199.342 57.1102L200.623 56.3652L200.611 60.8655L199.328 61.6124L199.342 57.1102Z" fill="#7C120D"/>
<path d="M205.832 60.8544L207.115 60.1113L207.103 64.6135L205.82 65.3604L205.832 60.8544Z" fill="#7C120D"/>
<path d="M212.318 64.6014L213.599 63.8584L213.586 68.3606L212.305 69.1055L212.318 64.6014Z" fill="#7C120D"/>
<path d="M218.801 68.3475L220.082 67.6025L220.07 72.1047L218.789 72.8497L218.801 68.3475Z" fill="#7C120D"/>
<path d="M225.295 72.0945L226.576 71.3477L226.564 75.8518L225.281 76.5986L225.295 72.0945Z" fill="#7C120D"/>
<path d="M231.777 75.8387L233.06 75.0938L233.045 79.5978L231.766 80.3409L231.777 75.8387Z" fill="#7C120D"/>
<path d="M238.271 79.5867L239.552 78.8418L239.539 83.3459L238.258 84.0889L238.271 79.5867Z" fill="#7C120D"/>
<path d="M244.754 83.3328L246.035 82.584L246.023 87.0919L244.742 87.8349L244.754 83.3328Z" fill="#7C120D"/>
<path d="M251.246 87.0779L252.527 86.3311L252.516 90.8352L251.234 91.582L251.246 87.0779Z" fill="#7C120D"/>
<path d="M257.732 90.8221L259.013 90.0771L259 94.5812L257.719 95.3243L257.732 90.8221Z" fill="#7C120D"/>
<path d="M264.217 94.5672L265.498 93.8223L265.484 98.3264L264.203 99.0694L264.217 94.5672Z" fill="#7C120D"/>
<path d="M270.701 98.3143L271.982 97.5693L271.971 102.073L270.688 102.818L270.701 98.3143Z" fill="#7C120D"/>
<path d="M277.185 102.059L278.468 101.316L278.455 105.822L277.172 106.565L277.185 102.059Z" fill="#7C120D"/>
<path d="M283.683 105.807L284.968 105.059L284.953 109.567L283.672 110.311L283.683 105.807Z" fill="#7C120D"/>
<path d="M290.17 109.551L291.451 108.808L291.439 113.31L290.156 114.057L290.17 109.551Z" fill="#7C120D"/>
<path d="M296.654 113.298L297.937 112.555L297.922 117.057L296.641 117.802L296.654 113.298Z" fill="#7C120D"/>
<path d="M303.152 117.043L304.433 116.3L304.422 120.802L303.141 121.547L303.152 117.043Z" fill="#7C120D"/>
<path d="M309.623 120.789L310.906 120.044L310.892 124.548L309.609 125.291L309.623 120.789Z" fill="#7C120D"/>
<path d="M316.113 124.532L317.392 123.789L317.381 128.293L316.102 129.036L316.113 124.532Z" fill="#7C120D"/>
<path d="M322.623 128.28L323.902 127.537L323.891 132.039L322.609 132.784L322.623 128.28Z" fill="#7C120D"/>
<path d="M329.092 132.024L330.373 131.279L330.359 135.783L329.078 136.528L329.092 132.024Z" fill="#7C120D"/>
<path d="M335.582 135.774L336.863 135.025L336.851 139.529L335.57 140.276L335.582 135.774Z" fill="#7C120D"/>
<path d="M342.084 139.517L343.365 138.772L343.351 143.275L342.07 144.02L342.084 139.517Z" fill="#7C120D"/>
<path d="M348.552 143.263L349.834 142.517L349.822 147.021L348.539 147.766L348.552 143.263Z" fill="#7C120D"/>
<path d="M355.058 147.009L356.341 146.264L356.33 150.766L355.047 151.511L355.058 147.009Z" fill="#7C120D"/>
<path d="M361.521 150.754L362.802 150.011L362.789 154.515L361.508 155.258L361.521 150.754Z" fill="#7C120D"/>
<path d="M368.019 154.501L369.302 153.756L369.289 158.26L368.008 159.003L368.019 154.501Z" fill="#7C120D"/>
<path d="M374.521 158.245L375.802 157.498L375.791 162.004L374.508 162.747L374.521 158.245Z" fill="#7C120D"/>
<path d="M380.988 161.992L382.271 161.245L382.258 165.751L380.977 166.492L380.988 161.992Z" fill="#7C120D"/>
<path d="M387.482 165.738L388.763 164.991L388.75 169.497L387.469 170.24L387.482 165.738Z" fill="#7C120D"/>
<path d="M393.976 169.482L395.257 168.737L395.242 173.241L393.961 173.984L393.976 169.482Z" fill="#7C120D"/>
<path d="M400.449 173.227L401.732 172.482L401.721 176.987L400.438 177.731L400.449 173.227Z" fill="#7C120D"/>
<path d="M406.953 176.976L408.232 176.231L408.221 180.734L406.938 181.48L406.953 176.976Z" fill="#7C120D"/>
<path d="M107.172 0.746853L108.455 0L409.151 173.609L407.872 174.354L107.172 0.746853Z" fill="#A51C16"/>
<path d="M407.881 174.353L409.16 173.608L409.156 176.766L407.875 177.509L407.881 174.353Z" fill="#7C120D"/>
<path d="M407.878 174.353L407.872 177.509L406.945 176.975L406.93 181.479L406.359 176.637L400.453 173.227L400.442 177.731L399.871 172.89L393.967 169.481L393.952 173.983L393.381 169.142L387.481 165.737L387.467 170.239L386.897 165.398L380.991 161.991L380.979 166.492L380.409 161.653L374.503 158.244L374.489 162.746L373.919 157.907L368.017 154.5L368.005 159.002L367.435 154.163L361.529 150.752L361.515 155.256L360.945 150.415L355.039 147.008L355.027 151.511L354.457 146.671L348.551 143.263L348.537 147.765L347.972 142.926L342.066 139.517L342.053 144.019L341.482 139.18L335.577 135.773L335.565 140.275L334.994 135.432L329.088 132.024L329.075 136.528L328.508 131.688L322.604 128.28L322.591 132.784L322.018 127.945L316.114 124.532L316.103 129.036L315.53 124.197L309.624 120.788L309.611 125.29L309.044 120.453L303.136 117.041L303.125 121.545L302.556 116.705L296.652 113.297L296.639 117.801L296.066 112.96L290.162 109.549L290.149 114.055L289.578 109.212L283.672 105.805L283.661 110.309L283.094 105.468L277.188 102.058L277.175 106.564L276.606 101.721L270.7 98.3137L270.687 102.818L270.116 97.9767L264.212 94.5661L264.199 99.0682L263.632 94.229L257.726 90.8222L257.712 95.3244L257.142 90.4852L251.236 87.0765L251.224 91.5806L250.654 86.7394L244.748 83.3307L244.736 87.8329L244.166 82.9937L238.264 79.5869L238.25 84.0891L237.678 79.2479L231.774 75.8392L231.762 80.3414L231.19 75.5022L225.286 72.0935L225.272 76.5976L224.702 71.7545L218.796 68.3477L218.784 72.8499L218.217 68.0126L212.311 64.602L212.298 69.1061L211.729 64.2668L205.821 60.8543L205.81 65.3603L205.239 60.5192L199.333 57.1105L199.32 61.6126L198.753 56.7753L192.849 53.3666L192.836 57.8707L192.263 53.0296L186.359 49.619L186.348 54.123L185.775 49.28L179.871 45.8713L179.858 50.3773L179.291 45.5381L173.385 42.1275L173.372 46.6315L172.801 41.7904L166.897 38.3836L166.884 42.8877L166.313 38.0447L160.407 34.6359L160.396 39.14L159.823 34.2989L153.923 30.8921L153.91 35.3943L153.339 30.5551L147.435 27.1444L147.42 31.6485L146.851 26.8074L140.945 23.4006L140.932 27.9009L140.361 23.0617L134.457 19.6529L134.443 24.1551L133.877 19.3159L127.971 15.9072L127.957 20.4113L127.389 15.5702L121.483 12.1634L121.469 16.6636L120.897 11.8244L114.993 8.41569L114.979 12.9198L114.411 8.07865L108.509 4.67377L108.495 9.17595L107.923 4.3329L107.172 3.90011L107.178 0.746094L407.878 174.353Z" fill="#E94A3B"/>
</svg>
