<svg width="145" height="64" viewBox="0 0 145 64" fill="none" xmlns="http://www.w3.org/2000/svg">
<path d="M144.736 0H0V63.6623H144.736V0Z" fill="#61B0E6"/>
<path d="M89.8001 39.8463C82.8378 39.8463 76.7812 36.5155 73.7688 31.6454C70.7564 36.5155 64.6998 39.8463 57.7375 39.8463C47.7772 39.8463 39.6719 33.0286 39.6719 24.6426H43.7376C43.7376 30.7831 50.017 35.7835 57.7346 35.7835C65.4551 35.7835 71.7316 30.7831 71.7316 24.6426H75.7973C75.7973 30.7831 82.0767 35.7835 89.7943 35.7835C97.512 35.7835 103.791 30.7831 103.791 24.6426H107.857C107.863 33.0286 99.7604 39.8463 89.8001 39.8463Z" fill="#9AE5FF"/>
</svg>
