<svg width="195" height="240" viewBox="0 0 195 240" fill="none" xmlns="http://www.w3.org/2000/svg">
<path d="M194.179 239.338H75.7494C33.9812 239.338 0 205.357 0 163.589C0 121.818 33.9812 87.8366 75.7494 87.8366H116.531C123.195 87.8366 128.618 82.4137 128.618 75.7494C128.618 69.0851 123.195 63.6623 116.531 63.6623H0.732117V0H116.531C158.299 0 192.28 33.9812 192.28 75.7494C192.28 117.518 158.299 151.499 116.531 151.499H75.7494C69.0851 151.499 63.6623 156.922 63.6623 163.589C63.6623 170.253 69.0851 175.676 75.7494 175.676H194.181L194.179 239.338Z" fill="#61B0E6"/>
<path d="M122.613 39.8492C115.65 39.8492 109.594 36.5156 106.581 31.6483C103.566 36.5185 97.5123 39.8492 90.55 39.8492C80.5897 39.8492 72.4844 33.0286 72.4844 24.6426H76.5501C76.5501 30.786 82.8295 35.7835 90.55 35.7835C98.2676 35.7835 104.547 30.786 104.547 24.6426H108.613C108.613 30.786 114.892 35.7835 122.61 35.7835C130.327 35.7835 136.607 30.786 136.607 24.6426H140.672C140.675 33.0286 132.57 39.8492 122.613 39.8492Z" fill="#9AE5FF"/>
<path d="M122.613 216.124C115.65 216.124 109.594 212.793 106.581 207.923C103.566 212.793 97.5123 216.124 90.55 216.124C80.5897 216.124 72.4844 209.306 72.4844 200.92H76.5501C76.5501 207.06 82.8295 212.061 90.55 212.061C98.2676 212.061 104.547 207.06 104.547 200.92H108.613C108.613 207.06 114.892 212.061 122.61 212.061C130.327 212.061 136.607 207.06 136.607 200.92H140.672C140.675 209.306 132.57 216.124 122.613 216.124Z" fill="#9AE5FF"/>
<path d="M122.613 127.461C115.65 127.461 109.594 124.13 106.581 119.26C103.566 124.13 97.5123 127.461 90.55 127.461C80.5897 127.461 72.4844 120.643 72.4844 112.257H76.5501C76.5501 118.397 82.8295 123.398 90.55 123.398C98.2676 123.398 104.547 118.397 104.547 112.257H108.613C108.613 118.397 114.892 123.398 122.61 123.398C130.327 123.398 136.607 118.397 136.607 112.257H140.672C140.675 120.64 132.57 127.461 122.613 127.461Z" fill="#9AE5FF"/>
</svg>
