<svg width="355" height="139" viewBox="0 0 355 139" fill="none" xmlns="http://www.w3.org/2000/svg">
<path d="M76.7812 82.5891C76.7812 82.5891 159.328 42.9988 162.405 41.4034C165.483 39.808 181.245 46.3238 153.799 60.8423C127.441 74.7877 88.9093 94.0718 88.9093 94.0718L76.7812 82.5891Z" fill="#BD5941"/>
<path opacity="0.3" d="M153.086 56.5176C126.729 70.463 88.1968 89.747 88.1968 89.747L79.3421 81.357C77.7261 82.1315 76.7812 82.5859 76.7812 82.5859L88.9041 94.0685C88.9041 94.0685 127.441 74.7793 153.793 60.8391C170.016 52.2581 171.115 46.4909 168.689 43.5273C167.62 46.7181 163.417 51.05 153.086 56.5176Z" fill="#472219"/>
<path opacity="0.1" d="M162.405 41.4012C159.328 42.9965 76.7812 82.5869 76.7812 82.5869L83.803 86.0255L168.746 43.5852C167.083 41.489 163.675 40.7403 162.405 41.4012Z" fill="white"/>
<path d="M87.5015 94.186H6.00268C2.7293 94.186 0.0703125 91.5322 0.0703125 88.2537C0.0703125 84.9803 2.72413 82.3213 6.00268 82.3213H87.5015V94.186Z" fill="#BD5941"/>
<path opacity="0.3" d="M6.00268 82.3265C2.7293 82.3265 0.0703125 84.9803 0.0703125 88.2589C0.0703125 88.6822 0.230352 89.0539 0.312961 89.4515C0.880897 86.7667 3.15267 84.7118 6.00268 84.7118H87.5015V82.3213H6.00268V82.3265Z" fill="white"/>
<path opacity="0.3" d="M6.00268 94.1882H87.5015V88.2559H0.0703125C0.0703125 91.5344 2.7293 94.1882 6.00268 94.1882Z" fill="#472219"/>
<path d="M96.0696 17.2998H59.1641V105.17H96.0696V17.2998Z" fill="#BD5941"/>
<path opacity="0.2" d="M71.0236 17.2998H59.1641V105.17H71.0236V17.2998Z" fill="#472219"/>
<path d="M96.1465 104.806H90.5445H63.1959H57.5939L45.7344 127.688V139.001H63.1959H90.5445H108.011V127.688L96.1465 104.806Z" fill="#BD5941"/>
<path opacity="0.3" d="M108.011 133.616H45.7344V139.001H63.1959H90.5445H108.011V133.616Z" fill="#472219"/>
<path opacity="0.2" d="M76.8728 139.001V104.806H63.1959H57.5939L45.7344 127.688V139.001H63.1959H76.8728Z" fill="#472219"/>
<path opacity="0.3" d="M108.011 133.616H45.7344V139.001H63.1959H90.5445H108.011V133.616Z" fill="#472219"/>
<path opacity="0.2" d="M76.8728 139.001V104.806H63.1959H57.5939L45.7344 127.688V139.001H63.1959H76.8728Z" fill="#472219"/>
<path opacity="0.4" d="M56.3892 109.559H97.3167C97.7298 109.559 98.0912 109.383 98.37 109.125L96.1292 104.804H90.5273H63.1786H57.5767L55.3359 109.125C55.6147 109.383 55.9813 109.559 56.3892 109.559Z" fill="#472219"/>
<path d="M97.2915 107.696H56.3639C55.5017 107.696 54.8047 106.999 54.8047 106.137V103.323C54.8047 102.461 55.5017 101.764 56.3639 101.764H97.2915C98.1537 101.764 98.8507 102.461 98.8507 103.323V106.137C98.8507 106.999 98.1537 107.696 97.2915 107.696Z" fill="#BD5941"/>
<path opacity="0.1" d="M97.2915 101.764H56.3639C55.5017 101.764 54.8047 102.461 54.8047 103.323V103.411H98.8507V103.323C98.8507 102.461 98.1537 101.764 97.2915 101.764Z" fill="white"/>
<path opacity="0.4" d="M59.1641 31.0491L59.2157 31.0594H96.0128L96.0696 31.0491V17.3101L96.0128 17.2998H59.2157L59.1641 17.3101V31.0491Z" fill="#472219"/>
<path d="M95.9934 26.4461H59.1963C57.4564 26.4461 56.0469 25.0366 56.0469 23.2966V15.836C56.0469 14.096 57.4564 12.6865 59.1963 12.6865H95.9934C97.7334 12.6865 99.1429 14.096 99.1429 15.836V23.2966C99.1429 25.0366 97.7334 26.4461 95.9934 26.4461Z" fill="#BD5941"/>
<path opacity="0.3" d="M99.1429 18.2061H56.0469V21.5001H99.1429V18.2061Z" fill="#472219"/>
<path d="M59.2031 12.6856L68.8994 0H86.3092L96.0002 12.6856H59.2031Z" fill="#BD5941"/>
<path opacity="0.2" d="M68.8994 0L59.2031 12.6856H68.5431L78.2342 0H68.8994Z" fill="#472219"/>
<path opacity="0.3" d="M94.3222 10.4922C88.3538 10.4922 68.4966 10.4922 60.8811 10.4922L59.2031 12.6917H96.0002L94.3222 10.4922Z" fill="#472219"/>
<path d="M278.126 82.5891C278.126 82.5891 195.579 42.9988 192.501 41.4034C189.424 39.808 173.662 46.3238 201.108 60.8423C227.466 74.7877 265.998 94.0718 265.998 94.0718L278.126 82.5891Z" fill="#BD5941"/>
<path opacity="0.3" d="M201.823 56.5176C228.18 70.463 266.712 89.747 266.712 89.747L275.567 81.357C277.183 82.1315 278.128 82.5859 278.128 82.5859L266.005 94.0685C266.005 94.0685 227.468 74.7793 201.116 60.8391C184.893 52.2581 183.794 46.4909 186.22 43.5273C187.289 46.7181 191.492 51.05 201.823 56.5176Z" fill="#472219"/>
<path opacity="0.1" d="M192.512 41.4012C195.589 42.9965 278.136 82.5869 278.136 82.5869L271.114 86.0255L186.172 43.5852C187.834 41.489 191.242 40.7403 192.512 41.4012Z" fill="white"/>
<path d="M267.406 94.186H348.905C352.178 94.186 354.837 91.5322 354.837 88.2537C354.837 84.9803 352.184 82.3213 348.905 82.3213H267.406V94.186Z" fill="#BD5941"/>
<path opacity="0.3" d="M348.905 82.3265C352.178 82.3265 354.837 84.9803 354.837 88.2589C354.837 88.6822 354.683 89.0539 354.595 89.4515C354.027 86.7667 351.755 84.7118 348.905 84.7118H267.406V82.3213H348.905V82.3265Z" fill="white"/>
<path opacity="0.3" d="M348.905 94.1872H267.406V88.2549H354.837C354.837 91.5334 352.178 94.1872 348.905 94.1872Z" fill="#472219"/>
<path d="M258.821 105.167H295.727V17.297H258.821V105.167Z" fill="#BD5941"/>
<path opacity="0.2" d="M283.862 105.167H295.727V17.297H283.862V105.167Z" fill="#472219"/>
<path d="M258.786 104.804H264.388H291.737H297.339L309.199 127.686V138.999H291.737H264.388H246.922V127.686L258.786 104.804Z" fill="#BD5941"/>
<path opacity="0.3" d="M246.922 133.614H309.199V138.999H291.737H264.388H246.922V133.614Z" fill="#472219"/>
<path opacity="0.2" d="M278.062 138.999V104.804H291.74H297.341L309.201 127.686V138.999H291.74H278.062Z" fill="#472219"/>
<path opacity="0.3" d="M246.922 133.614H309.199V138.999H291.737H264.388H246.922V133.614Z" fill="#472219"/>
<path opacity="0.2" d="M278.062 138.999V104.804H291.74H297.341L309.201 127.686V138.999H291.74H278.062Z" fill="#472219"/>
<path opacity="0.4" d="M298.543 109.559H257.616C257.203 109.559 256.841 109.383 256.562 109.125L258.803 104.804H264.405H291.754H297.356L299.597 109.125C299.318 109.383 298.956 109.559 298.543 109.559Z" fill="#472219"/>
<path d="M257.591 107.696H298.518C299.38 107.696 300.077 106.999 300.077 106.137V103.323C300.077 102.461 299.38 101.764 298.518 101.764H257.591C256.728 101.764 256.031 102.461 256.031 103.323V106.137C256.031 106.999 256.728 107.696 257.591 107.696Z" fill="#BD5941"/>
<path opacity="0.1" d="M257.591 101.764H298.518C299.38 101.764 300.077 102.461 300.077 103.323V103.411H256.031V103.323C256.031 102.461 256.728 101.764 257.591 101.764Z" fill="white"/>
<path opacity="0.4" d="M295.726 31.0491L295.674 31.0594H258.877L258.82 31.0491V17.3101L258.877 17.2998H295.674L295.726 17.3101V31.0491Z" fill="#472219"/>
<path d="M258.913 26.4461H295.71C297.45 26.4461 298.864 25.0366 298.864 23.2966V15.836C298.864 14.096 297.455 12.6865 295.71 12.6865H258.913C257.173 12.6865 255.758 14.096 255.758 15.836V23.2966C255.763 25.0366 257.173 26.4461 258.913 26.4461Z" fill="#BD5941"/>
<path opacity="0.3" d="M298.859 18.2061H255.758V21.5001H298.859V18.2061Z" fill="#472219"/>
<path d="M295.695 12.6856L285.999 0H268.589L258.898 12.6856H295.695Z" fill="#BD5941"/>
<path opacity="0.2" d="M285.991 0L295.687 12.6856H286.347L276.656 0H285.991Z" fill="#472219"/>
<path opacity="0.3" d="M260.576 10.4922C266.545 10.4922 286.402 10.4922 294.018 10.4922L295.695 12.6917H258.898L260.576 10.4922Z" fill="#472219"/>
</svg>
