<svg width="268" height="201" viewBox="0 0 268 201" fill="none" xmlns="http://www.w3.org/2000/svg">
<path fill-rule="evenodd" clip-rule="evenodd" d="M201.746 82.9798C201.746 82.9798 198.036 40.1572 238.197 0.0178223C238.197 0.0178223 209.454 55.6782 220.679 140.572L207.796 143.107C207.796 143.107 202.202 105.397 201.746 82.9798Z" fill="#ABC83F"/>
<path fill-rule="evenodd" clip-rule="evenodd" d="M233.591 153.918C233.591 153.918 224.534 74.9527 262.785 69.6311C261.749 69.7755 259.981 68.9783 258.908 68.8549C255.608 68.4767 252.239 68.6986 249.004 69.4459C236.915 72.2354 228.202 82.0762 222.519 92.5973C217.634 101.645 214.239 111.486 212.416 121.602C210.535 132.034 209.515 143.716 211.747 154.157C219.027 153.99 226.311 153.993 233.591 153.918Z" fill="#ABC83F"/>
<path fill-rule="evenodd" clip-rule="evenodd" d="M188.38 153.724C188.38 153.724 198.36 66.7299 156.219 60.8672C157.36 61.0261 159.308 60.1475 160.49 60.0122C164.125 59.5959 167.837 59.8401 171.4 60.6623C184.719 63.7355 194.317 74.5771 200.577 86.1672C205.96 96.1354 209.698 106.976 211.707 118.121C213.778 129.614 214.902 142.483 212.443 153.985C204.425 153.803 196.4 153.807 188.38 153.724Z" fill="#ABC83F"/>
<path fill-rule="evenodd" clip-rule="evenodd" d="M211.881 123.45C211.881 123.45 211.696 123.14 211.572 122.502C206.453 96.0803 194.991 72.1238 176.227 62.5575C176.227 62.5575 188.356 63.8708 203.452 92.3019C203.452 92.3019 209.606 102.633 211.881 123.45Z" fill="#CDDF80"/>
<path fill-rule="evenodd" clip-rule="evenodd" d="M73.7074 82.9798C73.7074 82.9798 69.9972 40.1572 110.158 0.0178223C110.158 0.0178223 81.4154 55.6782 92.6405 140.572L79.7566 143.107C79.7566 143.107 74.1632 105.397 73.7074 82.9798Z" fill="#ABC83F"/>
<path fill-rule="evenodd" clip-rule="evenodd" d="M105.561 153.918C105.561 153.918 96.5028 74.9527 134.754 69.6311C133.717 69.7755 131.95 68.9783 130.877 68.8549C127.576 68.4767 124.208 68.6986 120.973 69.4459C108.884 72.2354 100.171 82.0762 94.4881 92.5973C89.6012 101.645 86.2076 111.486 84.3847 121.602C82.504 132.034 81.4836 143.716 83.7162 154.157C90.996 153.99 98.2811 153.993 105.561 153.918Z" fill="#ABC83F"/>
<path fill-rule="evenodd" clip-rule="evenodd" d="M60.3418 153.724C60.3418 153.724 70.3206 66.7299 28.1797 60.8672C29.321 61.0261 31.2686 60.1475 32.4506 60.0122C36.0872 59.5959 39.7974 59.8401 43.3618 60.6623C56.6803 63.7355 66.2782 74.5771 72.5388 86.1672C77.9222 96.1354 81.6599 106.976 83.6693 118.121C85.7404 129.614 86.866 142.483 84.4048 153.985C76.3869 153.803 68.3624 153.807 60.3418 153.724Z" fill="#ABC83F"/>
<path fill-rule="evenodd" clip-rule="evenodd" d="M83.8432 123.45C83.8432 123.45 83.658 123.14 83.5332 122.502C78.4138 96.0803 66.9524 72.1238 48.1875 62.5575C48.1875 62.5575 60.3174 63.8708 75.4129 92.3019C75.4129 92.3019 81.5685 102.633 83.8432 123.45Z" fill="#CDDF80"/>
<path d="M141.531 158.902C138.345 146.158 130.142 136.155 119.466 129.791C105.233 121.308 86.5986 119.297 69.5213 125.956C66.2524 127.001 62.9941 128.241 59.7357 129.585C57.2089 130.626 54.6767 131.737 52.1433 132.86C44.7046 136.158 37.2147 139.611 29.5566 142.191C26.3665 143.266 23.1489 144.2 19.8918 144.888C16.8659 146.359 14.1276 147.971 11.7229 149.701C7.1341 153.003 3.77454 156.738 1.92668 160.752C0.869445 163.047 0.296875 165.432 0.296875 167.884C0.296875 183.6 23.229 196.712 53.7154 199.744C58.0717 200.176 62.583 200.402 67.2072 200.398C70.3014 199.936 73.3983 199.588 76.4978 199.27C79.5972 198.952 82.702 198.662 85.8133 198.315C109.319 193.591 148.965 188.636 141.531 158.902Z" fill="#5F5648"/>
<path d="M141.533 158.902C138.347 146.158 130.145 136.155 119.467 129.791C125.083 137.584 126.95 147.855 124.188 158.902C116.754 176.248 99.4089 183.681 82.065 183.681C57.3573 185.927 -1.96465 194.281 1.92676 160.753C0.869525 163.049 0.296875 165.434 0.296875 167.886C0.296875 183.601 23.229 196.713 53.7154 199.746C58.0717 200.178 62.5831 200.404 67.2073 200.4C70.3015 199.937 73.397 199.589 76.4978 199.272C79.5973 198.954 82.7007 198.664 85.8133 198.317C109.321 193.591 148.966 188.636 141.533 158.902Z" fill="#3F3B32"/>
<path d="M119.465 129.791C105.232 121.308 86.5959 119.297 69.5186 125.956C66.2498 127.001 62.9926 128.241 59.7329 129.585C57.2061 130.626 54.6754 131.737 52.1406 132.86C69.3624 126.554 86.4882 123.684 99.4075 136.602C123.202 158.233 94.12 179.862 68.2158 185.006C73.4337 184.537 78.1775 184.033 82.0636 183.68C99.4088 183.68 116.753 176.246 124.186 158.901C126.947 147.855 125.08 137.584 119.465 129.791Z" fill="#524D40"/>
<path d="M5.14567 162.455C3.66554 166.836 4.51265 171.447 10.3439 174.988C13.9109 177.155 19.1038 178.751 24.7354 179.817C30.3669 180.884 36.445 181.448 42.5376 181.828C50.6002 182.331 58.7717 182.52 66.9223 182.394C68.2527 182.374 69.6685 182.332 70.7493 181.992C62.3847 181.232 53.9701 180.449 46.0888 179.025C38.2075 177.602 30.8082 175.483 25.8175 172.485C19.788 168.861 17.7209 164.185 18.6192 159.717C19.3087 156.291 21.6227 152.969 24.7235 149.786C25.1398 149.36 25.7019 148.964 26.0473 148.524C26.4111 148.058 26.6056 147.568 26.6161 147.077C26.6279 146.553 26.2667 146.105 25.0191 145.945C21.9288 145.55 19.5713 146.842 18.0846 147.832C12.3861 151.624 8.32657 155.87 6.06895 160.28C5.70647 160.993 5.39389 161.721 5.14567 162.455Z" fill="#6B6358"/>
<path d="M30.6388 147.834C29.0365 146.738 26.7343 146.047 24.4504 145.825C20.4421 145.435 16.4929 146.506 16.4929 149.475C15.9202 151.592 19.3533 153.286 22.215 153.711C22.6984 153.762 23.183 153.786 23.6623 153.787C27.1505 153.797 30.3998 152.493 31.6593 149.802C31.6908 149.086 31.3151 148.414 30.6388 147.834Z" fill="#958F75"/>
<path d="M53.8323 178.76C53.2177 178.34 52.3351 178.074 51.4591 177.989C49.9212 177.839 48.407 178.249 48.407 179.389C48.1876 180.201 49.5049 180.851 50.6016 181.014C50.7868 181.033 50.9719 181.043 51.1571 181.044C52.4954 181.048 53.7404 180.547 54.2237 179.515C54.2356 179.241 54.0924 178.982 53.8323 178.76Z" fill="#807854"/>
<path d="M34.0029 143.611C33.5236 143.284 32.8354 143.077 32.1537 143.011C30.956 142.894 29.7766 143.215 29.7766 144.102C29.6059 144.735 30.6316 145.241 31.4866 145.368C31.631 145.384 31.7755 145.391 31.92 145.391C32.9628 145.395 33.9333 145.005 34.3102 144.2C34.3181 143.986 34.2052 143.785 34.0029 143.611Z" fill="#958F75"/>
<path d="M267.126 152.674C265.742 147.135 262.176 142.788 257.536 140.022C251.35 136.335 243.251 135.461 235.829 138.355C234.408 138.81 232.993 139.348 231.576 139.932C230.478 140.386 229.377 140.868 228.275 141.356C225.042 142.79 221.787 144.29 218.458 145.412C217.071 145.879 215.674 146.285 214.258 146.583C212.943 147.223 211.752 147.923 210.708 148.675C208.714 150.111 207.254 151.734 206.45 153.478C205.99 154.476 205.742 155.513 205.742 156.579C205.742 163.41 215.709 169.108 228.959 170.427C230.853 170.615 232.814 170.713 234.823 170.71C236.168 170.509 237.514 170.358 238.861 170.221C240.208 170.083 241.557 169.957 242.91 169.806C253.126 167.752 270.357 165.598 267.126 152.674Z" fill="#5F5648"/>
<path d="M267.127 152.674C265.743 147.135 262.177 142.788 257.537 140.022C259.978 143.409 260.789 147.873 259.589 152.674C256.358 160.213 248.819 163.444 241.281 163.444C230.542 164.42 204.76 168.051 206.45 153.478C205.99 154.476 205.742 155.512 205.742 156.579C205.742 163.41 215.709 169.108 228.959 170.427C230.853 170.615 232.814 170.713 234.823 170.71C236.168 170.509 237.513 170.358 238.86 170.221C240.208 170.083 241.557 169.957 242.909 169.805C253.127 167.751 270.358 165.598 267.127 152.674Z" fill="#3F3B32"/>
<path d="M257.535 140.022C251.349 136.335 243.249 135.461 235.826 138.355C234.405 138.81 232.99 139.348 231.574 139.932C230.476 140.386 229.375 140.868 228.273 141.356C235.758 138.615 243.202 137.368 248.817 142.982C259.159 152.383 246.518 161.784 235.259 164.02C237.527 163.817 239.589 163.597 241.278 163.444C248.817 163.444 256.355 160.213 259.586 152.674C260.786 147.873 259.975 143.409 257.535 140.022Z" fill="#524D40"/>
<path d="M207.848 154.219C207.204 156.123 207.573 158.127 210.106 159.667C211.657 160.608 213.914 161.302 216.362 161.765C218.81 162.229 221.451 162.474 224.099 162.639C227.603 162.857 231.155 162.939 234.697 162.884C235.275 162.875 235.891 162.858 236.361 162.71C232.726 162.379 229.068 162.038 225.643 161.42C222.218 160.801 219.002 159.881 216.833 158.576C214.213 157.002 213.315 154.969 213.705 153.028C214.004 151.54 215.01 150.095 216.358 148.712C216.539 148.527 216.783 148.355 216.933 148.163C217.091 147.961 217.176 147.748 217.18 147.534C217.185 147.307 217.029 147.111 216.487 147.043C215.143 146.871 214.119 147.433 213.473 147.862C210.996 149.511 209.232 151.356 208.251 153.272C208.092 153.583 207.955 153.9 207.848 154.219Z" fill="#6B6358"/>
<path d="M218.933 147.864C218.237 147.387 217.236 147.087 216.243 146.99C214.5 146.821 212.785 147.286 212.785 148.577C212.537 149.497 214.029 150.234 215.273 150.418C215.483 150.44 215.693 150.451 215.902 150.451C217.417 150.456 218.83 149.889 219.377 148.719C219.39 148.409 219.227 148.116 218.933 147.864Z" fill="#958F75"/>
<path d="M229.009 161.306C228.742 161.123 228.357 161.007 227.978 160.971C227.309 160.905 226.651 161.084 226.651 161.579C226.555 161.932 227.128 162.214 227.605 162.285C227.685 162.295 227.766 162.297 227.846 162.298C228.428 162.3 228.969 162.083 229.179 161.634C229.183 161.514 229.122 161.403 229.009 161.306Z" fill="#807854"/>
<path d="M220.392 146.029C220.184 145.887 219.886 145.797 219.589 145.768C219.069 145.716 218.555 145.856 218.555 146.242C218.48 146.516 218.927 146.737 219.298 146.792C219.361 146.799 219.425 146.801 219.486 146.803C219.939 146.804 220.361 146.634 220.525 146.285C220.529 146.192 220.479 146.105 220.392 146.029Z" fill="#958F75"/>
<path d="M213.872 160.996C212.097 153.897 207.528 148.327 201.583 144.783C193.656 140.057 183.278 138.938 173.766 142.647C171.946 143.229 170.131 143.92 168.316 144.668C166.908 145.249 165.499 145.867 164.087 146.493C159.944 148.33 155.773 150.253 151.507 151.689C149.73 152.288 147.938 152.808 146.123 153.191C144.438 154.01 142.912 154.907 141.574 155.871C139.018 157.71 137.147 159.79 136.118 162.025C135.53 163.305 135.211 164.632 135.211 165.998C135.211 174.752 147.983 182.054 164.962 183.743C167.389 183.983 169.901 184.109 172.477 184.106C174.2 183.849 175.924 183.656 177.651 183.479C179.378 183.301 181.107 183.14 182.839 182.947C195.933 180.316 218.013 177.557 213.872 160.996Z" fill="#5F5648"/>
<path d="M213.87 160.996C212.096 153.897 207.528 148.327 201.582 144.783C204.709 149.123 205.749 154.843 204.211 160.996C200.071 170.655 190.41 174.796 180.751 174.796C166.99 176.048 133.952 180.7 136.119 162.027C135.53 163.306 135.211 164.634 135.211 166C135.211 174.753 147.983 182.055 164.962 183.744C167.389 183.984 169.901 184.11 172.477 184.108C174.2 183.85 175.924 183.657 177.651 183.48C179.378 183.303 181.107 183.141 182.839 182.948C195.932 180.316 218.011 177.557 213.87 160.996Z" fill="#3F3B32"/>
<path d="M201.582 144.783C193.654 140.057 183.275 138.938 173.765 142.647C171.945 143.229 170.13 143.92 168.315 144.668C166.907 145.249 165.498 145.867 164.086 146.493C173.677 142.979 183.216 141.381 190.41 148.577C203.663 160.624 187.466 172.67 173.038 175.536C175.944 175.274 178.585 174.995 180.749 174.798C190.409 174.798 200.07 170.658 204.21 160.997C205.749 154.843 204.71 149.123 201.582 144.783Z" fill="#524D40"/>
<path d="M137.91 162.975C137.085 165.415 137.557 167.983 140.805 169.955C142.792 171.162 145.684 172.051 148.82 172.645C151.956 173.239 155.342 173.554 158.734 173.765C163.225 174.045 167.777 174.151 172.316 174.081C173.056 174.069 173.846 174.046 174.447 173.857C169.789 173.433 165.102 172.998 160.712 172.205C156.323 171.412 152.202 170.232 149.423 168.562C146.065 166.545 144.914 163.939 145.415 161.45C145.798 159.543 147.088 157.693 148.815 155.92C149.047 155.682 149.36 155.463 149.552 155.217C149.754 154.957 149.863 154.685 149.868 154.411C149.875 154.119 149.674 153.87 148.979 153.78C147.259 153.56 145.945 154.279 145.117 154.831C141.942 156.943 139.682 159.308 138.425 161.764C138.223 162.161 138.048 162.567 137.91 162.975Z" fill="#6B6358"/>
<path d="M152.108 154.832C151.215 154.222 149.933 153.837 148.662 153.713C146.429 153.497 144.231 154.093 144.231 155.746C143.911 156.926 145.824 157.87 147.418 158.105C147.687 158.134 147.956 158.147 148.224 158.148C150.167 158.155 151.977 157.427 152.678 155.929C152.694 155.53 152.485 155.155 152.108 154.832Z" fill="#958F75"/>
<path d="M165.026 172.055C164.684 171.822 164.192 171.673 163.705 171.626C162.849 171.543 162.006 171.772 162.006 172.405C161.884 172.856 162.616 173.219 163.228 173.31C163.332 173.32 163.435 173.325 163.537 173.327C164.282 173.329 164.976 173.05 165.246 172.476C165.251 172.323 165.171 172.18 165.026 172.055Z" fill="#807854"/>
<path d="M153.981 152.48C153.715 152.297 153.331 152.183 152.952 152.145C152.284 152.081 151.628 152.258 151.628 152.753C151.532 153.105 152.105 153.388 152.58 153.458C152.661 153.466 152.742 153.47 152.822 153.472C153.402 153.473 153.943 153.256 154.152 152.808C154.156 152.689 154.094 152.577 153.981 152.48Z" fill="#958F75"/>
</svg>
