<svg width="96" height="190" viewBox="0 0 96 190" fill="none" xmlns="http://www.w3.org/2000/svg">
<path d="M93.9096 95.151C94.2619 94.7098 94.4683 94.1286 94.6274 93.5927C94.7978 93.0096 95.0307 92.4227 95.1595 91.8357C95.2996 91.1996 95.4663 90.5672 95.5307 89.9159C95.5553 89.666 95.5307 89.4142 95.5364 89.1623C95.5401 88.9295 95.6197 88.7553 95.5515 88.5262C95.5345 88.4751 95.4568 88.4883 95.4189 88.4997C95.2977 88.5357 95.1709 88.6 95.0478 88.6758C95.3091 88.0813 95.4492 87.4432 95.5667 86.7995C95.7598 85.7335 95.7087 84.6846 95.5686 83.6111C95.4985 83.0317 95.3527 82.4713 95.3015 81.8882C95.2618 81.3599 95.0648 80.8601 95.0459 80.3167C95.0421 80.2618 94.972 80.2656 94.9304 80.2807C94.527 80.4322 94.2316 80.9017 93.9854 81.2312C93.8774 81.3732 93.7638 81.519 93.6502 81.6647C93.9305 80.9529 94.1463 80.2107 94.3603 79.4874C94.4569 79.1618 94.4001 78.7793 94.419 78.4442C94.4418 77.9443 94.3736 77.4426 94.3149 76.9428C94.2713 76.5433 94.2202 76.1533 94.1426 75.7519C94.099 75.5417 94.0517 75.3297 94.0062 75.1233C93.9854 75.0229 93.9892 74.8279 93.9115 74.7465C93.8339 74.6651 93.6937 74.684 93.6066 74.7257C93.2506 74.8942 92.8472 74.9907 92.4798 75.1309C91.5481 75.4849 90.6164 75.7235 89.7472 76.2138C88.7075 76.8065 87.6413 77.5827 86.9141 78.5767C86.9444 78.448 86.9785 78.3154 87.0183 78.1886C87.1092 77.8951 87.2171 77.596 87.3288 77.3063C87.3876 77.1567 87.4406 77.1264 87.4065 76.9712C87.3497 76.7269 85.6074 77.5998 85.4805 77.6471C84.5128 78.0277 83.5944 78.4499 82.7365 79.0406C82.3104 79.3341 81.9695 79.7582 81.6703 80.1709C81.6078 80.258 81.5453 80.3432 81.4809 80.4284C81.5548 80.08 81.6343 79.7298 81.6646 79.3738C81.6722 79.3284 81.6211 79.3132 81.5832 79.3132C81.3597 79.3075 81.1742 79.4552 80.9753 79.5404C80.5947 79.7033 80.2178 79.8509 79.8429 80.0308C79.0323 80.4208 78.2445 80.8695 77.4946 81.3732C76.828 81.8219 76.3451 82.3142 75.9304 83.0166C75.705 83.4047 75.4096 83.8515 75.1994 84.3192C75.2164 84.2283 75.2259 84.1393 75.241 84.0504C75.2997 83.702 75.2922 83.3441 75.3187 82.992C75.3319 82.8254 75.3812 82.5584 75.2676 82.4221C75.2486 82.3994 75.2013 82.3975 75.1748 82.4031C74.8131 82.4959 74.4873 82.7439 74.1692 82.9276C73.7772 83.1567 73.389 83.4161 73.0405 83.719C72.2679 84.3817 71.7376 85.1788 71.2831 86.0819C71.0123 86.6139 70.84 87.1535 70.7131 87.7045C70.6222 87.3258 70.7131 86.5836 70.323 86.3962C70.2662 86.3659 70.1677 86.4 70.1393 86.4587C69.9745 86.8392 69.7037 87.1346 69.4386 87.4508C69.0712 87.8995 68.6887 88.3387 68.3194 88.7875C67.9937 89.1907 67.8119 89.6944 67.5941 90.1563C67.3611 90.6373 67.2172 91.1352 67.0979 91.654C66.9824 92.1652 66.9748 92.684 66.8555 93.1933C66.7476 93.6363 66.7873 94.1702 66.8423 94.617C66.8631 94.7837 66.8877 94.9465 66.9161 95.1093C66.7305 94.7401 66.5639 94.3614 66.348 94.0074C66.3158 93.9563 66.2438 93.9676 66.1984 93.9922C66.0355 94.085 65.9844 94.2668 65.9314 94.4353C65.8083 94.8253 65.7249 95.2456 65.6568 95.6489C65.511 96.605 65.4882 97.6672 65.6094 98.6252C65.7268 99.553 66.0639 100.589 66.6718 101.316C66.7154 101.369 66.7646 101.418 66.8082 101.469C66.7589 101.446 66.7078 101.422 66.6567 101.399C66.3783 101.274 66.0829 101.102 65.7912 101.018C65.7439 101.007 65.6492 101.041 65.6454 101.1C65.6359 101.395 65.8575 101.692 65.9541 101.971C66.1283 102.469 66.3309 102.961 66.5279 103.459C66.6927 103.881 66.8726 104.294 67.0316 104.716C67.1983 105.163 67.4426 105.557 67.6414 105.99C68.0296 106.84 68.4065 107.719 68.7171 108.603C68.8572 109.006 69.056 109.387 69.1829 109.805C69.2132 109.904 69.2568 109.995 69.3003 110.086C69.4689 110.614 69.6261 111.144 69.7643 111.68C70.3116 111.362 70.8892 111.099 71.41 110.871C71.7755 110.71 72.1504 110.563 72.5273 110.426C72.5273 110.426 72.5538 110.445 72.586 110.44C72.8852 110.364 73.1655 110.243 73.4363 110.105C74.6313 109.713 75.8433 109.387 77.0571 109.044C77.1897 109.008 77.3223 108.965 77.4548 108.925H77.4567C77.7787 108.898 78.2275 108.948 78.5078 108.758C78.5343 108.743 78.5759 108.715 78.5589 108.677C78.4585 108.457 78.1328 108.393 77.9453 108.26C77.9321 108.255 77.915 108.247 77.9055 108.238C77.9169 108.24 77.9283 108.243 77.9358 108.247C78.3752 108.329 78.9168 108.329 79.3675 108.317C79.7974 108.302 80.2235 108.139 80.6193 107.992C81.1647 107.793 81.7385 107.653 82.2877 107.463C83.2232 107.138 84.117 106.63 84.9333 106.081C85.7248 105.553 86.56 105.057 87.2304 104.37C87.2398 104.354 87.2569 104.326 87.2436 104.307C87.1717 104.175 87.024 104.139 86.88 104.129C86.4804 104.099 86.0771 103.945 85.6699 103.866C86.0733 103.803 86.4767 103.735 86.8706 103.627C87.8913 103.353 88.8287 102.872 89.6316 102.177C90.035 101.823 90.3835 101.41 90.7376 101.015C91.0993 100.611 91.4799 100.274 91.7564 99.8048C92.0386 99.3239 92.2337 98.8013 92.4912 98.3071C92.6768 97.9436 92.8908 97.5101 92.9343 97.0935C92.9381 97.0235 92.8302 97.0254 92.7904 97.0424C92.478 97.1749 92.1617 97.2904 91.8398 97.3984C92.1882 97.1446 92.5215 96.8739 92.8131 96.571C93.2317 96.1393 93.5328 95.6224 93.9096 95.151Z" fill="#7EA229"/>
<path d="M66.7514 102.353C67.1112 102.889 67.5524 103.364 67.9482 103.87C67.0733 101.639 66.4654 99.269 66.6017 96.8626C66.6131 96.7338 66.7949 96.7433 66.8025 96.8682C66.8423 97.4325 67.0032 97.9569 67.2191 98.4681C67.1547 97.9455 67.115 97.4154 67.1339 96.8853C67.1415 96.7887 67.2778 96.7565 67.3271 96.8455C67.5108 97.2053 67.6926 97.5669 67.8725 97.9285C67.6452 95.6205 67.9785 93.2577 68.5504 91.0178C68.5807 90.9099 68.7568 90.9364 68.7474 91.0481C68.6584 91.8547 68.7284 92.6499 68.8155 93.447C68.9841 92.3583 69.2454 91.2886 69.5238 90.2208C69.5541 90.109 69.7208 90.1431 69.7208 90.2548C69.7094 91.3416 69.7795 92.4151 69.9101 93.483C70.2378 90.6354 71.1335 87.9033 72.7773 85.4249C72.836 85.3359 72.9951 85.3965 72.9553 85.5082C72.7451 86.0971 72.603 86.6954 72.4913 87.2955C72.889 86.4852 73.3397 85.7052 73.7772 84.9592C73.8321 84.8645 73.9987 84.9365 73.9552 85.0406C73.7412 85.5859 73.5461 86.1387 73.4439 86.7124C73.6995 86.1179 73.9192 85.5045 74.2544 84.9459C74.3017 84.8683 74.4532 84.9005 74.44 85.0027C74.2771 85.991 74.1654 86.9888 74.0877 87.9828C74.8131 85.8793 76.0364 83.8857 77.8677 82.5698C77.9567 82.5092 78.0817 82.5963 78.0211 82.6966C77.2863 83.8989 77.0079 85.2602 76.7125 86.6177C77.1291 85.4969 77.5931 84.3912 78.2237 83.3688C78.271 83.2893 78.4169 83.3271 78.4055 83.4256C78.3354 84.1242 78.2407 84.8304 78.1385 85.5329C78.6555 84.1678 79.4471 82.9598 80.1477 81.6837C80.2102 81.5682 80.3731 81.6761 80.3144 81.7916C80.019 82.3729 79.9148 83.0015 79.8182 83.6376C80.2027 82.7648 80.6818 81.9374 81.3086 81.2123C81.3635 81.1498 81.4828 81.2085 81.4753 81.2899C81.4355 81.8125 81.356 82.3369 81.2764 82.8538C82.0907 80.8469 83.6985 79.2413 85.668 78.2909C85.7627 78.2454 85.8404 78.3458 85.7968 78.4329C85.5355 78.9478 85.3878 79.4704 85.2344 80.0062C85.4843 79.6124 85.7532 79.2356 86.0657 78.8816C86.1168 78.8191 86.2418 78.8778 86.2305 78.9592C86.115 79.7411 86.0335 80.5269 85.9426 81.3145C86.1756 80.7276 86.4558 80.1653 86.7153 79.5916C86.7569 79.495 86.9179 79.4988 86.9122 79.6219C86.8762 80.1444 86.8043 80.6651 86.7929 81.1896C87.6887 79.1485 88.9499 77.4256 90.891 76.2328C91.764 75.697 92.7147 75.2369 93.6218 74.7219C93.6161 74.7238 93.6123 74.7257 93.6066 74.7276C93.2506 74.8961 92.8472 74.9927 92.4798 75.1328C91.5481 75.4868 90.6164 75.7254 89.7472 76.2158C88.7075 76.8084 87.6413 77.5846 86.9141 78.5786C86.9444 78.4499 86.9785 78.3174 87.0183 78.1905C87.1092 77.897 87.2171 77.5979 87.3288 77.3082C87.3876 77.1586 87.4406 77.1283 87.4065 76.9731C87.3497 76.7289 85.6074 77.6017 85.4805 77.649C84.5128 78.0296 83.5944 78.4518 82.7365 79.0425C82.3104 79.336 81.9695 79.7601 81.6703 80.1728C81.6078 80.2599 81.5453 80.3451 81.4809 80.4303C81.5548 80.0819 81.6343 79.7317 81.6646 79.3757C81.6722 79.3303 81.6211 79.3151 81.5832 79.3151C81.3597 79.3095 81.1742 79.4572 80.9753 79.5424C80.5947 79.7052 80.2178 79.8529 79.8428 80.0327C79.0323 80.4228 78.2445 80.8715 77.4946 81.3751C76.828 81.8238 76.3451 82.3161 75.9304 83.0185C75.705 83.4066 75.4096 83.8535 75.1994 84.3211C75.2164 84.2302 75.2259 84.1413 75.241 84.0523C75.2997 83.7039 75.2922 83.3461 75.3187 82.9939C75.3319 82.8273 75.3812 82.5603 75.2675 82.424C75.2486 82.4013 75.2013 82.3994 75.1748 82.4051C74.813 82.4978 74.4873 82.7459 74.1692 82.9295C73.7772 83.1586 73.389 83.418 73.0405 83.7209C72.2679 84.3836 71.7376 85.1807 71.2831 86.0838C71.0123 86.6158 70.84 87.1554 70.7131 87.7064C70.6222 87.3277 70.7131 86.5856 70.323 86.3981C70.2662 86.3678 70.1677 86.4019 70.1393 86.4606C69.9745 86.8412 69.7037 87.1365 69.4386 87.4527C69.0712 87.9014 68.6887 88.3407 68.3194 88.7894C67.9937 89.1927 67.8119 89.6963 67.5941 90.1583C67.3611 90.6392 67.2172 91.1371 67.0979 91.6559C66.9824 92.1671 66.9748 92.6859 66.8555 93.1952C66.7476 93.6382 66.7873 94.1721 66.8423 94.619C66.8631 94.7856 66.8877 94.9484 66.9161 95.1112C66.7305 94.742 66.5639 94.3634 66.348 94.0093C66.3158 93.9582 66.2438 93.9696 66.1984 93.9942C66.0355 94.0869 65.9844 94.2687 65.9314 94.4372C65.8083 94.8272 65.7249 95.2476 65.6568 95.6508C65.511 96.607 65.4882 97.6691 65.6094 98.6271C65.7268 99.5549 66.0639 100.591 66.6718 101.318C66.7154 101.371 66.7646 101.42 66.8082 101.471C66.7589 101.448 66.7078 101.424 66.6567 101.401C66.3783 101.276 66.0829 101.104 65.7912 101.02C65.7439 101.009 65.6492 101.043 65.6454 101.102C65.6359 101.397 65.8575 101.694 65.9541 101.973C66.1283 102.471 66.3309 102.963 66.5279 103.461C66.6472 103.752 66.7646 104.05 66.882 104.341C66.7362 103.697 66.6283 103.05 66.5658 102.395C66.5544 102.283 66.7059 102.281 66.7514 102.353Z" fill="#589930"/>
<path d="M92.4911 98.311C92.6767 97.9475 92.8907 97.5139 92.9343 97.0974C92.938 97.0273 92.8301 97.0292 92.7903 97.0463C92.4779 97.1788 92.1616 97.2943 91.8397 97.4022C92.1881 97.1485 92.5214 96.8778 92.8131 96.5748C93.2316 96.1394 93.5308 95.6206 93.9076 95.1491C94.2599 94.708 94.4663 94.1267 94.6254 93.5909C94.7958 93.0078 95.0287 92.4209 95.1575 91.8339C95.2977 91.1978 95.4643 90.5654 95.5287 89.9141C95.5533 89.6642 95.5287 89.4123 95.5344 89.1605C95.5382 88.9276 95.6177 88.7535 95.5495 88.5244C95.5325 88.4733 95.4548 88.4865 95.417 88.4979C95.2958 88.5338 95.1689 88.5982 95.0458 88.6739C95.3071 88.0794 95.4473 87.4414 95.5647 86.7977C95.7578 85.7317 95.7067 84.6828 95.5666 83.6093C95.4965 83.0299 95.3507 82.4695 95.2996 81.8863C95.2598 81.3581 95.0628 80.8583 95.0439 80.3149C95.0401 80.26 94.97 80.2638 94.9284 80.2789C94.525 80.4304 94.2296 80.8999 93.9834 81.2294C93.8755 81.3714 93.7618 81.5171 93.6482 81.6629C93.9285 80.951 94.1444 80.2088 94.3584 79.4856C94.4549 79.1599 94.3981 78.7775 94.4171 78.4424C94.4398 77.9425 94.3716 77.4408 94.3129 76.941C94.2694 76.5415 94.2182 76.1514 94.1406 75.75C94.097 75.5399 94.0497 75.3278 94.0042 75.1215C93.9834 75.0211 93.9872 74.828 93.9133 74.7466C91.2583 78.7055 88.1942 82.3729 85.1585 86.0479C81.2744 90.7453 77.5494 95.5638 74.3585 100.765C72.9268 103.095 71.6296 105.53 70.7887 108.137C70.4233 109.268 70.1524 110.411 69.9688 111.57C70.4573 111.303 70.9554 111.076 71.4099 110.875C71.7754 110.714 72.1504 110.567 72.5272 110.43C72.5272 110.43 72.5537 110.449 72.5859 110.443C72.8851 110.368 73.1654 110.247 73.4362 110.108C74.6312 109.716 75.8432 109.391 77.0571 109.048C77.1896 109.012 77.3222 108.969 77.4547 108.929C77.7767 108.902 78.2274 108.952 78.5077 108.762C78.5342 108.747 78.5758 108.719 78.5588 108.681C78.4584 108.461 78.1327 108.397 77.9452 108.264C77.932 108.259 77.9149 108.251 77.9055 108.242C77.9168 108.243 77.9282 108.247 77.9358 108.251C78.3751 108.332 78.9167 108.332 79.3674 108.321C79.7973 108.306 80.2234 108.143 80.6192 107.995C81.1646 107.797 81.7384 107.657 82.2876 107.467C83.2231 107.142 84.117 106.634 84.9332 106.085C85.7248 105.557 86.5599 105.061 87.2303 104.373C87.2398 104.358 87.2568 104.33 87.2435 104.311C87.1716 104.178 87.0239 104.142 86.8799 104.133C86.4804 104.103 86.077 103.949 85.6698 103.87C86.0732 103.807 86.4766 103.739 86.8705 103.631C87.8912 103.357 88.8286 102.876 89.6316 102.181C90.0349 101.827 90.3834 101.414 90.7375 101.018C91.0992 100.615 91.4799 100.278 91.7563 99.8086C92.0404 99.3277 92.2336 98.8052 92.4911 98.311Z" fill="#476923"/>
<path opacity="0.5" d="M81.5479 107.526C78.7148 108.046 75.8326 107.27 73.0014 107.959C72.9181 107.98 72.8461 107.878 72.8954 107.81C72.9844 107.679 73.0734 107.552 73.1662 107.433C73.7135 105.74 75.0921 104.489 76.6204 103.552C75.9329 103.555 75.219 103.718 74.5372 103.618C74.4785 103.608 74.4179 103.555 74.4444 103.491C75.3667 101.174 77.7888 99.6248 80.2033 99.2178C79.4307 98.9641 78.641 98.7634 77.8399 98.6043C77.7699 98.5911 77.7434 98.4813 77.8021 98.4377C78.3058 98.0609 78.855 97.7978 79.4326 97.6065C80.2393 97.296 81.0896 97.1332 81.9513 97.0707C81.2941 96.7091 80.6162 96.3967 79.8871 96.1979C79.8019 96.1733 79.7886 96.0502 79.8644 96.0105C80.9741 95.4879 82.1766 95.3421 83.381 95.2758C83.3621 95.2664 83.3432 95.2531 83.3242 95.2418C82.5989 94.8896 81.8509 94.6094 81.0366 94.4977C80.9362 94.4863 80.9116 94.3689 80.9968 94.3083C82.2069 93.5359 83.6973 93.1061 85.165 92.8978C84.0666 92.6157 82.9 92.4737 81.8471 92.9092C81.7392 92.9527 81.6539 92.8334 81.7316 92.7501C82.794 91.599 83.6102 90.1487 84.862 89.1907C85.6384 88.5981 86.4982 88.1474 87.3598 87.6987C86.466 87.8615 85.6081 88.1361 84.8714 88.6814C84.7862 88.7438 84.6537 88.6548 84.7199 88.5564C85.6289 87.2519 86.6913 85.989 87.82 84.8682C88.3787 84.3191 88.9695 83.7966 89.6134 83.3478C89.7289 83.2626 89.8463 83.1888 89.9618 83.1074C90.2307 82.8556 90.4978 82.6 90.7553 82.3368C90.2289 82.723 89.7081 83.1112 89.0661 83.3119C88.9809 83.3403 88.9146 83.2305 88.9562 83.1604C89.8974 81.6931 90.9636 80.3469 91.7912 78.8076C92.5127 77.469 93.1736 76.1002 93.9406 74.7843C93.9406 74.7843 93.9255 74.7559 93.9103 74.7445C93.897 74.7275 93.88 74.718 93.8592 74.7104C93.6376 74.985 93.4179 75.2538 93.1907 75.5265C92.7589 76.102 92.3063 76.6568 91.8385 77.2002C89.3407 80.3053 86.8637 83.4274 84.1632 86.3582C84.1045 86.4207 83.9852 86.3658 83.9927 86.2825C84.0306 85.8944 84.0514 85.4987 84.0363 85.103C83.8734 85.7183 83.6916 86.3261 83.4284 86.8978C82.9341 87.9619 82.1387 88.7438 81.4362 89.6621C81.3775 89.7378 81.2544 89.7094 81.2544 89.6072C81.2544 89.2494 81.2544 88.8877 81.2601 88.5318C81.029 89.0657 80.7563 89.5826 80.4041 90.0559C79.4061 91.4002 78.2073 92.5665 77.3457 94.0206C77.3078 94.0793 77.2055 94.0793 77.1714 94.0092C76.9896 93.5946 76.9575 93.1402 76.9745 92.6877C76.6829 93.3995 76.3855 94.1209 76.3079 94.8915C76.2965 95.0183 76.109 95.0146 76.109 94.8858C76.1147 93.9978 76.1318 93.1099 76.1204 92.2238C75.931 93.2083 75.7549 94.1947 75.4576 95.1547C75.236 95.8969 74.9065 96.5614 74.5865 97.2638C74.2513 97.9928 73.9483 98.7387 73.5279 99.4241C73.4824 99.5037 73.3745 99.4715 73.348 99.3938C73.2135 98.9735 73.134 98.5418 73.0904 98.1045C72.8026 99.231 72.5374 100.356 72.2837 101.486C72.2609 101.583 72.1057 101.575 72.0905 101.478C72.0129 101.032 71.9504 100.577 71.8841 100.127C71.583 101.836 71.2118 103.525 70.5187 105.131C70.4884 105.191 70.4297 105.222 70.3691 105.186C69.5794 104.737 69.0832 103.8 68.7518 102.989C68.7064 102.883 68.6628 102.775 68.6212 102.664C68.6666 103.841 68.892 105.009 69.3105 106.119C69.3559 106.238 69.1988 106.325 69.1344 106.214C68.8389 105.708 68.5113 105.225 68.25 104.705C68.2405 104.708 68.2292 104.714 68.2292 104.714C68.356 105.854 68.5246 106.986 68.9867 108.031C69.0378 108.151 68.8711 108.238 68.8105 108.124C68.6098 107.762 68.3769 107.429 68.125 107.103C68.3352 107.601 68.5359 108.101 68.714 108.609C68.8541 109.012 69.0529 109.393 69.1798 109.811C69.2101 109.909 69.2537 110 69.2972 110.091C69.4658 110.619 69.623 111.15 69.7612 111.685C70.3085 111.367 70.8861 111.104 71.4069 110.877C71.7724 110.716 72.1473 110.568 72.5242 110.432C72.5242 110.432 72.5507 110.451 72.5829 110.445C72.8821 110.369 73.1624 110.248 73.4332 110.11C74.6281 109.718 75.8401 109.393 77.054 109.05C77.1866 109.014 77.3192 108.97 77.4517 108.931C77.7737 108.904 78.2244 108.953 78.5046 108.764C78.5312 108.749 78.5728 108.72 78.5558 108.683C78.4554 108.463 78.1297 108.399 77.9422 108.266C77.9289 108.26 77.9119 108.253 77.9024 108.243C77.9138 108.245 77.9252 108.249 77.9327 108.253C78.3721 108.334 78.9137 108.334 79.3644 108.323C79.7943 108.308 80.2204 108.145 80.6162 107.997C81.1616 107.798 81.7354 107.658 82.2846 107.469C82.6633 107.338 83.0364 107.172 83.4019 106.988C82.8129 107.225 82.1899 107.406 81.5479 107.526Z" fill="#30692D"/>
<path opacity="0.6" d="M92.4961 98.3109C92.6817 97.9474 92.8957 97.5138 92.9393 97.0973C92.943 97.0272 92.8351 97.0291 92.7953 97.0462C92.4829 97.1787 92.1666 97.2942 91.8447 97.4021C92.1931 97.1484 92.5264 96.8777 92.818 96.5747C93.2366 96.1393 93.5358 95.6205 93.9126 95.149C94.2649 94.7079 94.4713 94.1266 94.6304 93.5908C94.8008 93.0077 95.0337 92.4208 95.1625 91.8338C95.3027 91.1977 95.4693 90.5653 95.5337 89.914C95.5583 89.6641 95.5337 89.4122 95.5394 89.1604C95.5432 88.9275 95.6227 88.7534 95.5545 88.5243C95.5375 88.4731 95.4598 88.4864 95.422 88.4978C95.3008 88.5337 95.1739 88.5981 95.0508 88.6738C95.3121 88.0793 95.4523 87.4413 95.5697 86.7976C95.7628 85.7316 95.7117 84.6827 95.5716 83.6092C95.5015 83.0298 95.3557 82.4694 95.3046 81.8862C95.2648 81.358 95.0678 80.8582 95.0489 80.3148C95.0451 80.2599 94.975 80.2637 94.9334 80.2788C94.53 80.4303 94.2346 80.8998 93.9884 81.2293C93.8804 81.3713 93.7668 81.517 93.6532 81.6628C93.9335 80.9509 94.1494 80.2087 94.3634 79.4855C94.4599 79.1598 94.4031 78.7774 94.4221 78.4423C94.4448 77.9424 94.3766 77.4407 94.3179 76.9409C94.2743 76.5414 94.2232 76.1513 94.1456 75.7499C94.1058 75.5606 94.0641 75.3675 94.0206 75.1763C93.8274 76.7951 93.7043 78.4328 92.9184 79.8547C93.104 79.6729 93.2858 79.4931 93.4657 79.3132C93.532 79.245 93.6646 79.3227 93.6286 79.4135C93.3066 80.1936 92.8143 80.8657 92.2461 81.464C92.4469 81.3088 92.6571 81.1592 92.873 81.0229C92.9411 80.9793 93.0453 81.0626 93.0131 81.1403C92.8332 81.5833 92.6306 82.015 92.409 82.4429C92.6192 82.2725 92.8389 82.1097 93.0605 81.9544C93.1343 81.8995 93.2555 81.9506 93.2233 82.0547C93.0794 82.5091 92.8294 82.9067 92.5378 83.2759C93.032 82.9086 93.5263 82.5394 94.0225 82.1665C94.0944 82.1153 94.2175 82.1702 94.1816 82.2706C93.782 83.471 93.2688 84.6032 92.6722 85.6881C93.2385 85.2185 93.799 84.7414 94.352 84.2567C94.4372 84.1829 94.5622 84.287 94.5035 84.3817C94.1626 84.925 93.8445 85.4817 93.4714 86.0005C93.8823 85.7089 94.2762 85.3908 94.6853 85.0917C94.7478 85.05 94.869 85.0727 94.8519 85.1693C94.6758 86.2788 94.3709 87.3769 93.9676 88.4239C93.8823 88.6379 93.7952 88.8575 93.7043 89.0733C93.9505 88.8764 94.2024 88.6738 94.4448 88.4637C94.53 88.3879 94.6436 88.4921 94.5944 88.5868C94.316 89.1188 94.0092 89.6394 93.746 90.1753C94.0054 89.9329 94.2592 89.6906 94.5243 89.452C94.5849 89.399 94.7004 89.4406 94.6891 89.5277C94.4959 91.5176 93.3313 93.2368 91.9886 94.6927C92.3617 94.4334 92.7328 94.1797 93.1192 93.943C93.2025 93.8919 93.3104 94.0055 93.2498 94.085C92.3768 95.2153 91.269 96.1203 90.2766 97.137C90.8107 96.8417 91.3125 96.4857 91.856 96.2017C91.9602 96.143 92.0416 96.2794 91.9659 96.3608C91.1023 97.3264 90.1365 98.1632 89.1082 98.9225C89.7748 98.771 90.4357 98.6157 91.1118 98.5268C91.2159 98.5116 91.2671 98.6214 91.2027 98.699C90.7255 99.2443 90.1081 99.5889 89.4718 99.8994C89.7994 99.8142 90.127 99.7404 90.4641 99.6855C90.5569 99.6665 90.6346 99.7858 90.555 99.8559C89.451 100.801 88.2371 101.528 86.9512 102.111C87.3243 102.109 87.6955 102.134 88.0628 102.213C88.1329 102.226 88.1632 102.34 88.1026 102.382C86.9096 103.22 85.4779 103.701 84.0443 103.976C84.5518 104.074 85.0613 104.182 85.565 104.32C85.6578 104.347 85.6578 104.496 85.5574 104.513C84.5746 104.661 83.6012 104.858 82.6164 105.002C83.194 105.083 83.7678 105.136 84.3473 105.212C84.4363 105.225 84.4893 105.354 84.389 105.398C82.4554 106.269 80.3988 106.636 78.329 106.98C78.8857 106.992 79.4444 106.988 80.003 107.016C80.0921 107.022 80.1432 107.17 80.0447 107.204C78.8592 107.647 77.6188 107.88 76.3879 108.154C76.5905 108.158 76.7931 108.166 76.9977 108.181C77.0867 108.188 77.1416 108.332 77.0393 108.37C75.4789 108.944 73.943 109.595 72.5625 110.455C72.5739 110.459 72.5833 110.459 72.5966 110.455C72.8958 110.379 73.1761 110.258 73.4469 110.12C74.6418 109.728 75.8538 109.402 77.0677 109.059C77.2003 109.023 77.3329 108.98 77.4654 108.94C77.7874 108.914 78.2381 108.963 78.5183 108.773C78.5449 108.758 78.5865 108.73 78.5695 108.692C78.4691 108.472 78.1434 108.408 77.9559 108.276C77.9426 108.27 77.9256 108.262 77.9161 108.253C77.9275 108.255 77.9389 108.258 77.9464 108.262C78.3858 108.344 78.9274 108.344 79.3781 108.332C79.808 108.317 80.2341 108.154 80.6299 108.007C81.1753 107.808 81.7491 107.668 82.2983 107.478C83.2338 107.153 84.1276 106.645 84.9438 106.096C85.7354 105.568 86.5706 105.072 87.241 104.385C87.2504 104.37 87.2675 104.341 87.2542 104.322C87.1822 104.19 87.0345 104.154 86.8906 104.144C86.491 104.114 86.0877 103.961 85.6805 103.881C86.0839 103.819 86.4872 103.75 86.8811 103.643C87.9019 103.368 88.8393 102.887 89.6422 102.192C90.0456 101.838 90.3941 101.425 90.7482 101.03C91.1099 100.626 91.4905 100.289 91.767 99.8199C92.0454 99.3276 92.2386 98.8051 92.4961 98.3109Z" fill="#91BA30"/>
<path d="M91.0578 78.747C89.4045 80.6214 87.6036 82.3576 85.9522 84.2358C84.2005 86.2333 82.5151 88.2951 80.7047 90.2377C80.5323 90.4232 80.3581 90.605 80.1858 90.7886C78.3602 93.0644 76.6161 95.4084 75.0177 97.8451C72.1601 102.213 69.9463 106.874 68.6604 111.947C68.2665 113.499 67.99 115.095 67.8575 116.693C67.8044 117.333 67.6813 118.195 67.6719 119.024C68.3139 119.35 69.2816 119.259 69.9993 118.882C70.1432 117.793 70.0182 115.285 70.0372 114.851C70.3156 108.414 73.0577 102.556 76.5744 97.2714C79.2616 93.2367 82.2462 89.3459 85.4902 85.741C85.6682 85.5441 85.8424 85.3472 86.0166 85.1484C87.1283 83.8022 88.2494 82.4674 89.3421 81.108C90.217 80.0231 91.196 79.0235 92.0369 77.9102C92.4175 77.4103 92.8019 76.8745 93.1125 76.3027C92.4819 77.1699 91.7414 77.9689 91.0578 78.747Z" fill="#375725"/>
<path d="M89.9564 79.9607C87.2692 83.1699 84.5422 86.3507 81.872 89.5731C79.2719 92.7142 76.4047 95.7965 74.4333 99.3919C71.1041 105.456 68.521 112.261 68.7483 119.219C69.1782 119.196 69.6251 119.083 70.002 118.882C70.1459 117.793 70.0209 115.285 70.0398 114.851C70.3182 108.414 73.0604 102.556 76.5771 97.2714C79.2643 93.2367 82.2488 89.3459 85.4928 85.741C85.6708 85.5441 85.8451 85.3472 86.0193 85.1484C87.1309 83.8022 88.252 82.4674 89.3447 81.108C90.2196 80.0231 91.1987 79.0235 92.0395 77.9102C92.4202 77.4103 92.8046 76.8745 93.1152 76.3027C92.4865 77.168 91.746 77.967 91.0624 78.7451C90.7025 79.1598 90.3314 79.5612 89.9564 79.9607Z" fill="#2C481E"/>
<path d="M44.1924 154.662C44.537 154.846 44.9101 154.988 45.287 155.111C44.9745 155.105 44.6601 155.098 44.3514 155.069C44.3117 155.065 44.2113 155.1 44.2359 155.158C44.395 155.508 44.7037 155.83 44.9764 156.099C45.3438 156.459 45.6638 156.862 46.052 157.209C46.4289 157.544 46.8626 157.731 47.2905 157.977C47.7242 158.229 48.1446 158.494 48.6029 158.685C49.51 159.07 50.472 159.225 51.4511 159.174C51.828 159.151 52.2048 159.1 52.5798 159.038C52.2465 159.227 51.9321 159.477 51.5875 159.613C51.4644 159.666 51.3432 159.74 51.3185 159.878C51.3148 159.897 51.3356 159.922 51.3489 159.929C52.1348 160.346 53.0135 160.539 53.8638 160.78C54.7443 161.028 55.6723 161.219 56.5926 161.238C57.1324 161.249 57.6759 161.204 58.2118 161.224C58.6038 161.241 59.028 161.264 59.4086 161.151C59.8101 161.031 60.2836 160.878 60.6491 160.679C60.6566 160.672 60.6642 160.668 60.6718 160.664C60.6642 160.675 60.6528 160.685 60.6453 160.696C60.5127 160.861 60.2495 161.014 60.223 161.238C60.2154 161.272 60.2646 161.289 60.2892 161.296C60.5885 161.382 60.9729 161.207 61.2664 161.137C61.3914 161.134 61.5221 161.134 61.649 161.13C62.8155 161.082 63.9821 161.018 65.1467 161.022C65.427 161.064 65.7054 161.092 65.9894 161.073C66.0197 161.069 66.0368 161.058 66.0368 161.058C66.4061 161.058 66.781 161.081 67.1503 161.115C67.6749 161.166 68.26 161.232 68.8338 161.357C68.8035 160.844 68.7865 160.333 68.7846 159.818C68.796 159.723 68.8092 159.628 68.8092 159.534C68.8016 159.132 68.8641 158.739 68.8717 158.339C68.8925 157.474 68.9721 156.591 69.0706 155.732C69.1217 155.296 69.224 154.878 69.2429 154.437C69.2599 154.015 69.2978 153.602 69.3224 153.182C69.3546 152.689 69.3887 152.195 69.402 151.705C69.4076 151.434 69.5175 151.11 69.4266 150.851C69.4039 150.8 69.3111 150.8 69.2732 150.822C69.0384 150.978 68.8282 151.213 68.6199 151.406C68.5801 151.442 68.5422 151.476 68.5043 151.512C68.5308 151.455 68.5555 151.394 68.5801 151.336C68.9039 150.521 68.9077 149.512 68.7448 148.662C68.5725 147.786 68.2506 146.852 67.8453 146.053C67.6711 145.718 67.476 145.372 67.2563 145.063C67.1636 144.929 67.0632 144.781 66.8946 144.751C66.8473 144.743 66.781 144.754 66.7659 144.805C66.6769 145.178 66.6409 145.561 66.5841 145.94C66.5613 145.786 66.5367 145.635 66.5083 145.485C66.4269 145.072 66.3076 144.595 66.0841 144.234C65.8341 143.823 65.6789 143.367 65.4308 142.946C65.177 142.52 64.9081 142.126 64.5634 141.77C64.2377 141.426 63.9347 141.034 63.5295 140.78C63.0806 140.489 62.6186 140.205 62.1603 139.923C61.8364 139.716 61.5145 139.533 61.2588 139.247C61.2191 139.203 61.1225 139.203 61.0808 139.241C60.7911 139.519 61.0808 140.148 61.1111 140.508C60.8441 140.057 60.5335 139.631 60.1434 139.241C59.4806 138.576 58.7875 138.025 57.9145 137.66C57.5244 137.499 57.1077 137.38 56.6949 137.291C56.3578 137.221 56.0037 137.094 55.659 137.117C55.6325 137.119 55.5946 137.136 55.5833 137.156C55.5227 137.315 55.642 137.529 55.7026 137.677C55.8257 137.976 55.9223 138.294 56.0719 138.586C56.1116 138.656 56.1476 138.734 56.1893 138.807C55.8711 138.453 55.4848 138.143 55.1723 137.868C54.6042 137.368 54.0361 137.073 53.3183 136.871C52.5154 136.641 51.6916 136.475 50.8641 136.361C50.4853 136.308 50.1122 136.287 49.7259 136.253C49.5271 136.238 49.3169 136.159 49.1256 136.225C49.0934 136.238 49.0536 136.265 49.0688 136.303C49.2013 136.607 49.3699 136.895 49.5327 137.179C49.4551 137.124 49.3756 137.064 49.2941 137.007C48.9097 136.729 48.4893 136.454 48.0272 136.32C47.105 136.043 46.1732 135.935 45.2131 135.878C45.09 135.871 43.3023 135.604 43.325 135.839C43.3383 135.983 43.3913 135.994 43.4879 136.109C43.6697 136.331 43.8496 136.562 44.0106 136.797C44.0844 136.899 44.1526 137.003 44.2132 137.111C43.2909 136.441 42.1244 136.06 41.0412 135.842C40.1322 135.653 39.244 135.717 38.3217 135.668C37.9563 135.649 37.5756 135.687 37.212 135.634C37.1192 135.623 36.9942 135.647 36.945 135.742C36.9014 135.837 36.9639 136.009 36.9715 136.1C36.9942 136.297 37.0132 136.498 37.034 136.696C37.0794 137.067 37.1476 137.429 37.2234 137.796C37.3181 138.247 37.4014 138.711 37.5661 139.144C37.6779 139.436 37.7385 139.784 37.9146 140.048C38.3123 140.625 38.7156 141.216 39.1645 141.761C39.0243 141.666 38.8842 141.574 38.7478 141.479C38.4354 141.257 38.0396 140.932 37.6381 140.913C37.604 140.909 37.5377 140.93 37.551 140.975C37.6873 141.46 37.6627 141.96 37.7745 142.435C37.8975 142.959 37.9335 143.497 38.0358 144.029C38.2214 145.014 38.477 145.957 38.9524 146.839C39.2402 147.367 39.5451 147.893 39.9485 148.34C39.8178 148.306 39.6871 148.289 39.5659 148.293C39.5318 148.295 39.458 148.306 39.458 148.354C39.4656 148.573 39.583 148.708 39.6568 148.91C39.7307 149.132 39.7799 149.361 39.8746 149.577C40.1227 150.13 40.4484 150.639 40.7552 151.159C41.0355 151.64 41.4142 152.091 41.7286 152.549C42.0202 152.979 42.3725 153.433 42.808 153.719C43.2853 154.03 43.7 154.401 44.1924 154.662Z" fill="#7EA229"/>
<path d="M68.8098 152.275C68.6469 152.852 68.3932 153.394 68.1887 153.954C68.3212 151.737 68.1754 149.476 67.363 147.396C67.3194 147.28 67.1604 147.344 67.1888 147.456C67.3156 147.964 67.3251 148.473 67.2834 148.984C67.1869 148.503 67.0695 148.03 66.9009 147.568C66.8649 147.483 66.7381 147.494 66.721 147.585C66.6604 147.954 66.6055 148.323 66.5487 148.696C66.0904 146.597 65.1151 144.614 63.9675 142.802C63.9107 142.713 63.7611 142.791 63.8065 142.886C64.1152 143.567 64.2781 144.289 64.4334 145.018C63.9713 144.109 63.4335 143.24 62.8843 142.378C62.8256 142.287 62.6873 142.365 62.7214 142.463C63.0396 143.418 63.2876 144.383 63.4808 145.36C62.3692 142.948 60.7992 140.797 58.6404 139.088C58.5627 139.023 58.4415 139.127 58.5078 139.209C58.8601 139.667 59.163 140.152 59.4301 140.653C58.8449 140.055 58.2238 139.497 57.6253 138.963C57.5496 138.893 57.4246 139.002 57.4909 139.086C57.8393 139.502 58.1707 139.93 58.4264 140.407C58.0268 139.959 57.6575 139.483 57.203 139.086C57.1367 139.031 57.0136 139.105 57.0591 139.19C57.4814 140.017 57.8696 140.856 58.2219 141.714C56.9814 140.067 55.3282 138.664 53.3341 138.033C53.2413 138.003 53.1561 138.114 53.2413 138.186C54.2279 139.033 54.8661 140.157 55.5195 141.271C54.8283 140.4 54.103 139.557 53.2564 138.842C53.1902 138.783 53.0728 138.857 53.1125 138.942C53.3758 139.538 53.6598 140.133 53.9515 140.722C53.1087 139.663 52.0577 138.83 51.0767 137.908C50.9877 137.825 50.8779 137.965 50.9574 138.05C51.3854 138.476 51.6562 139.002 51.9251 139.533C51.34 138.874 50.6791 138.283 49.9159 137.823C49.8458 137.783 49.7644 137.868 49.7909 137.94C49.9803 138.391 50.198 138.824 50.4177 139.26C49.1243 137.724 47.2457 136.776 45.2383 136.501C45.1417 136.486 45.102 136.602 45.1663 136.662C45.5432 137.043 45.8235 137.463 46.1113 137.887C45.7799 137.611 45.4334 137.359 45.0584 137.138C44.9902 137.098 44.8993 137.183 44.9315 137.253C45.261 137.912 45.5565 138.58 45.8651 139.245C45.4902 138.796 45.083 138.38 44.6872 137.948C44.6228 137.878 44.4846 137.925 44.5244 138.029C44.7062 138.484 44.9183 138.921 45.0792 139.379C43.7044 137.836 42.1004 136.679 40.0456 136.189C39.1215 135.967 38.1519 135.833 37.2031 135.64H37.2202C37.5819 135.691 37.9644 135.655 38.3299 135.674C39.2503 135.721 40.1384 135.659 41.0493 135.848C42.1326 136.066 43.2991 136.446 44.2214 137.117C44.1608 137.009 44.0926 136.905 44.0187 136.802C43.8578 136.568 43.676 136.337 43.4961 136.115C43.3995 136 43.3464 135.99 43.3332 135.844C43.3105 135.611 45.0982 135.878 45.2213 135.884C46.1814 135.941 47.1131 136.051 48.0354 136.325C48.4975 136.46 48.9179 136.734 49.3023 137.013C49.3837 137.069 49.4633 137.13 49.5409 137.185C49.378 136.901 49.2095 136.613 49.0769 136.308C49.0618 136.27 49.1034 136.244 49.1337 136.231C49.325 136.164 49.5352 136.244 49.7341 136.259C50.1185 136.293 50.4916 136.312 50.8722 136.367C51.6998 136.481 52.5236 136.645 53.3265 136.876C54.0442 137.079 54.6124 137.376 55.1805 137.874C55.493 138.15 55.8793 138.461 56.1974 138.813C56.1577 138.739 56.1198 138.662 56.08 138.592C55.9304 138.3 55.8338 137.982 55.7107 137.683C55.652 137.535 55.5308 137.321 55.5914 137.162C55.6028 137.139 55.6407 137.122 55.6672 137.122C56.0119 137.098 56.366 137.227 56.7031 137.297C57.1178 137.386 57.5325 137.505 57.9226 137.666C58.7957 138.031 59.4888 138.582 60.1516 139.247C60.5417 139.637 60.8523 140.063 61.1193 140.513C61.089 140.155 60.7992 139.527 61.089 139.247C61.1288 139.207 61.2253 139.207 61.267 139.252C61.5227 139.538 61.8446 139.722 62.1684 139.928C62.6248 140.21 63.0869 140.494 63.5376 140.786C63.9429 141.042 64.2459 141.434 64.5716 141.776C64.9163 142.132 65.1852 142.526 65.4389 142.952C65.687 143.372 65.8423 143.829 66.0923 144.239C66.3139 144.601 66.435 145.078 66.5165 145.491C66.5449 145.64 66.5695 145.792 66.5922 145.945C66.6472 145.569 66.685 145.186 66.774 144.811C66.7892 144.76 66.8555 144.749 66.9028 144.756C67.0732 144.787 67.1736 144.934 67.2645 145.069C67.4823 145.377 67.6792 145.726 67.8535 146.059C68.2587 146.858 68.5807 147.791 68.753 148.668C68.9159 149.518 68.9121 150.527 68.5882 151.341C68.5636 151.4 68.539 151.461 68.5125 151.517C68.5504 151.481 68.5882 151.447 68.628 151.411C68.8344 151.218 69.0465 150.983 69.2814 150.828C69.3211 150.804 69.412 150.804 69.4347 150.857C69.5275 151.116 69.4158 151.442 69.4101 151.711C69.3969 152.203 69.3628 152.697 69.3306 153.187C69.3117 153.481 69.2927 153.772 69.2719 154.066C69.2208 153.46 69.128 152.856 68.9954 152.261C68.9651 152.155 68.8325 152.197 68.8098 152.275Z" fill="#589930"/>
<path d="M44.9728 156.099C44.7001 155.83 44.3915 155.508 44.2324 155.158C44.2059 155.099 44.3062 155.065 44.3479 155.069C44.6566 155.1 44.9709 155.107 45.2834 155.111C44.9066 154.988 44.5335 154.844 44.1888 154.662C43.6964 154.399 43.2817 154.03 42.8159 153.721C42.3803 153.435 42.0281 152.979 41.7364 152.551C41.4221 152.093 41.0452 151.642 40.763 151.161C40.4562 150.641 40.1305 150.131 39.8824 149.579C39.7859 149.365 39.7385 149.136 39.6647 148.912C39.5908 148.71 39.4734 148.575 39.4658 148.355C39.4658 148.308 39.5397 148.297 39.5738 148.295C39.695 148.291 39.8256 148.31 39.9563 148.342C39.5529 147.895 39.248 147.369 38.9602 146.841C38.4848 145.957 38.2273 145.014 38.0436 144.031C37.9413 143.499 37.9073 142.963 37.7823 142.437C37.6686 141.96 37.6952 141.46 37.5588 140.977C37.5455 140.932 37.6099 140.911 37.6459 140.915C38.0474 140.934 38.4432 141.259 38.7557 141.481C38.892 141.577 39.0321 141.67 39.1723 141.763C38.7235 141.218 38.3201 140.625 37.9224 140.049C37.7444 139.786 37.6838 139.44 37.574 139.146C37.4092 138.713 37.3259 138.249 37.2312 137.798C37.1573 137.431 37.0892 137.069 37.0418 136.698C37.0191 136.501 37.002 136.299 36.9793 136.102C36.9717 136.009 36.9092 135.839 36.9528 135.746C40.4297 138.472 44.1831 140.824 47.9119 143.19C52.6804 146.212 57.3466 149.387 61.653 153.057C63.5808 154.694 65.4216 156.47 66.9157 158.526C67.5596 159.414 68.1296 160.348 68.6201 161.319C68.1164 161.221 67.6126 161.164 67.1524 161.118C66.7832 161.082 66.4082 161.062 66.0389 161.046C66.0389 161.046 66.02 161.073 65.9916 161.077C65.7075 161.096 65.4291 161.067 65.1488 161.026C63.9842 161.022 62.8195 161.084 61.6511 161.134C61.5242 161.137 61.3935 161.137 61.2686 161.141C60.9769 161.211 60.5925 161.385 60.2914 161.3C60.2668 161.293 60.2175 161.274 60.2251 161.241C60.2516 161.018 60.5129 160.865 60.6474 160.7C60.655 160.689 60.6663 160.679 60.6739 160.668C60.6663 160.672 60.6588 160.675 60.6512 160.683C60.2857 160.88 59.8123 161.035 59.4108 161.154C59.0301 161.268 58.6059 161.245 58.2139 161.228C57.678 161.207 57.1345 161.253 56.5948 161.241C55.6744 161.223 54.7446 161.031 53.8659 160.783C53.0156 160.543 52.1369 160.35 51.351 159.933C51.3377 159.926 51.3169 159.899 51.3207 159.882C51.3472 159.746 51.4665 159.672 51.5896 159.617C51.9343 159.483 52.2486 159.231 52.5819 159.041C52.2089 159.104 51.832 159.157 51.4532 159.178C50.4742 159.229 49.514 159.074 48.605 158.689C48.1468 158.498 47.7245 158.233 47.2927 157.981C46.8628 157.735 46.431 157.548 46.0542 157.212C45.6603 156.864 45.3402 156.461 44.9728 156.099Z" fill="#476923"/>
<path opacity="0.5" d="M57.2688 161.075C59.9125 160.723 62.2285 159.212 64.9177 159.004C64.9953 158.996 65.0313 158.888 64.9688 158.839C64.8533 158.752 64.7378 158.667 64.6166 158.589C63.6507 157.25 62.0751 156.544 60.4598 156.156C61.0696 155.963 61.7475 155.904 62.3156 155.62C62.363 155.596 62.4028 155.531 62.3592 155.48C60.8802 153.704 58.3047 153.036 56.0606 153.365C56.6685 152.926 57.3048 152.523 57.9657 152.152C58.0244 152.117 58.013 152.011 57.9487 151.993C57.3995 151.803 56.8408 151.729 56.2746 151.726C55.4716 151.686 54.6782 151.782 53.9017 151.979C54.3733 151.472 54.8846 151 55.4678 150.614C55.5341 150.573 55.5133 150.457 55.43 150.448C54.3051 150.306 53.2048 150.52 52.1235 150.811C52.1367 150.794 52.1519 150.777 52.1633 150.76C52.6992 150.247 53.2806 149.779 53.9642 149.455C54.0494 149.416 54.0418 149.3 53.9472 149.277C52.6575 148.939 51.2239 148.986 49.8699 149.226C50.7562 148.664 51.7409 148.202 52.7977 148.287C52.9037 148.295 52.9435 148.164 52.8507 148.113C51.5857 147.403 50.4494 146.36 49.0708 145.875C48.2167 145.576 47.3285 145.425 46.4384 145.281C47.2736 145.163 48.1087 145.161 48.9155 145.428C49.0083 145.461 49.1011 145.343 49.012 145.277C47.8379 144.385 46.5407 143.58 45.2245 142.918C44.5731 142.592 43.9046 142.302 43.2096 142.088C43.0846 142.049 42.9558 142.015 42.8308 141.981C42.5222 141.833 42.2154 141.685 41.9105 141.526C42.49 141.719 43.0581 141.911 43.683 141.899C43.7645 141.899 43.7929 141.786 43.7323 141.74C42.4824 140.714 41.1587 139.832 39.9845 138.711C38.9657 137.741 37.9866 136.725 36.9375 135.789C36.9413 135.77 36.9451 135.753 36.9489 135.742C36.9602 135.723 36.9716 135.708 36.9867 135.698C37.2594 135.873 37.5359 136.054 37.8105 136.227C38.354 136.605 38.9127 136.967 39.4827 137.312C42.5752 139.328 45.6525 141.367 48.8738 143.175C48.942 143.213 49.0291 143.132 48.9969 143.06C48.8587 142.73 48.7242 142.384 48.6238 142.032C48.942 142.528 49.2772 143.012 49.6768 143.44C50.4153 144.232 51.3451 144.698 52.222 145.303C52.2977 145.354 52.4 145.294 52.3678 145.199C52.2636 144.885 52.1632 144.567 52.0553 144.253C52.4113 144.66 52.8014 145.033 53.2465 145.353C54.5115 146.25 55.9015 146.934 57.0775 147.965C57.1287 148.011 57.2177 147.979 57.2271 147.907C57.2707 147.49 57.1684 147.077 57.0188 146.684C57.4847 147.231 57.9487 147.776 58.2403 148.437C58.2876 148.547 58.4505 148.486 58.4183 148.376C58.1551 147.592 57.8899 146.816 57.6419 146.032C58.0926 146.846 58.5338 147.662 59.066 148.425C59.4788 149.014 59.9579 149.507 60.4408 150.035C60.9446 150.58 61.4275 151.15 61.9937 151.637C62.0562 151.688 62.1414 151.633 62.1414 151.555C62.1414 151.146 62.0884 150.745 61.9994 150.345C62.5751 151.252 63.1337 152.172 63.681 153.093C63.7284 153.174 63.8628 153.123 63.8477 153.034C63.7852 152.615 63.7151 152.199 63.6432 151.782C64.4007 153.204 65.2131 154.583 66.2868 155.8C66.3266 155.844 66.391 155.851 66.4345 155.806C66.9989 155.179 67.1674 154.213 67.228 153.403C67.2375 153.295 67.2413 153.189 67.2489 153.079C67.5443 154.132 67.6844 155.224 67.6333 156.324C67.6295 156.444 67.7886 156.472 67.8189 156.355C67.9306 155.823 68.0821 155.304 68.1635 154.772C68.173 154.776 68.1825 154.78 68.1938 154.78C68.3965 155.813 68.5764 156.862 68.4703 157.915C68.4571 158.034 68.6294 158.064 68.654 157.945C68.7203 157.568 68.8358 157.207 68.9608 156.851C68.921 157.347 68.887 157.847 68.8756 158.341C68.868 158.74 68.8055 159.134 68.8131 159.536C68.8131 159.632 68.7998 159.727 68.7885 159.82C68.7923 160.333 68.8093 160.844 68.8377 161.359C68.2639 161.234 67.6806 161.168 67.1542 161.116C66.7849 161.081 66.4099 161.06 66.0406 161.045C66.0406 161.045 66.0217 161.071 65.9933 161.075C65.7092 161.094 65.4309 161.065 65.1506 161.024C63.9859 161.02 62.8213 161.082 61.6528 161.132C61.5259 161.135 61.3953 161.135 61.2703 161.139C60.9787 161.209 60.5942 161.383 60.2931 161.298C60.2685 161.291 60.2193 161.272 60.2268 161.24C60.2533 161.016 60.5147 160.863 60.6491 160.698C60.6567 160.687 60.6681 160.677 60.6757 160.666C60.6681 160.67 60.6605 160.673 60.6529 160.681C60.2874 160.878 59.814 161.033 59.4125 161.152C59.0319 161.266 58.6077 161.243 58.2157 161.226C57.6797 161.205 57.1362 161.251 56.5965 161.24C56.2234 161.23 55.8485 161.196 55.4716 161.135C56.0663 161.173 56.6647 161.156 57.2688 161.075Z" fill="#30692D"/>
<path opacity="0.6" d="M44.98 156.099C44.7073 155.83 44.3986 155.508 44.2396 155.158C44.2131 155.099 44.3134 155.065 44.3551 155.069C44.6638 155.099 44.9781 155.107 45.2906 155.111C44.9137 154.988 44.5407 154.844 44.196 154.662C43.7036 154.399 43.2889 154.03 42.823 153.721C42.3875 153.435 42.0352 152.979 41.7436 152.551C41.4292 152.093 41.0524 151.642 40.7702 151.161C40.4634 150.641 40.1377 150.131 39.8896 149.579C39.793 149.365 39.7457 149.135 39.6718 148.912C39.598 148.709 39.4806 148.575 39.473 148.355C39.473 148.308 39.5469 148.297 39.5809 148.295C39.7021 148.291 39.8328 148.31 39.9635 148.342C39.5601 147.895 39.2552 147.369 38.9674 146.841C38.492 145.957 38.2345 145.014 38.0508 144.031C37.9485 143.499 37.9144 142.963 37.7895 142.437C37.6758 141.96 37.7023 141.46 37.566 140.977C37.5527 140.932 37.6171 140.911 37.6531 140.915C38.0546 140.934 38.4504 141.259 38.7628 141.481C38.8992 141.577 39.0393 141.67 39.1795 141.763C38.7307 141.218 38.3273 140.625 37.9296 140.049C37.7516 139.786 37.691 139.44 37.5811 139.146C37.4164 138.713 37.3331 138.249 37.2384 137.798C37.1645 137.431 37.0963 137.069 37.049 136.698C37.0263 136.516 37.0092 136.337 36.9922 136.155C37.6304 137.529 38.208 138.932 39.3101 139.96C39.0924 139.854 38.8803 139.748 38.67 139.639C38.5924 139.601 38.4958 139.705 38.5545 139.777C39.0621 140.369 39.687 140.82 40.3631 141.183C40.1415 141.106 39.9142 141.034 39.6832 140.977C39.6093 140.956 39.545 141.06 39.5942 141.119C39.8783 141.458 40.1832 141.78 40.5013 142.09C40.2646 142.005 40.0279 141.922 39.7874 141.846C39.7059 141.82 39.615 141.901 39.6737 141.982C39.9332 142.342 40.2665 142.621 40.6282 142.863C40.0885 142.677 39.5469 142.497 39.0015 142.312C38.9257 142.285 38.8272 142.371 38.8897 142.448C39.5885 143.387 40.365 144.241 41.202 145.021C40.5695 144.769 39.937 144.514 39.312 144.241C39.2155 144.201 39.134 144.332 39.2117 144.396C39.67 144.781 40.1112 145.18 40.5903 145.529C40.1415 145.392 39.7021 145.226 39.2609 145.078C39.1927 145.059 39.0943 145.116 39.134 145.192C39.6094 146.121 40.1907 147.002 40.8479 147.808C40.9842 147.975 41.1225 148.141 41.2702 148.306C40.9899 148.202 40.7153 148.098 40.4407 147.981C40.3403 147.937 40.2703 148.064 40.3422 148.134C40.7399 148.52 41.1584 148.889 41.5467 149.289C41.2512 149.151 40.952 149.011 40.6509 148.872C40.5827 148.84 40.4956 148.912 40.5278 148.992C41.2683 150.686 42.7852 151.868 44.3892 152.761C43.9877 152.642 43.5862 152.526 43.1791 152.426C43.0901 152.405 43.0295 152.536 43.1052 152.587C44.196 153.333 45.4326 153.814 46.5992 154.424C46.0424 154.314 45.4989 154.147 44.9403 154.051C44.8323 154.035 44.802 154.176 44.8891 154.225C45.9288 154.827 47.0196 155.287 48.1445 155.667C47.5158 155.719 46.8851 155.775 46.2659 155.889C46.1693 155.908 46.1541 156.018 46.2356 156.067C46.8113 156.412 47.4514 156.537 48.1009 156.629C47.7922 156.648 47.4798 156.675 47.1711 156.724C47.0821 156.737 47.0518 156.862 47.137 156.9C48.3793 157.415 49.6595 157.71 50.9605 157.856C50.6329 157.957 50.3109 158.087 50.0117 158.261C49.953 158.295 49.9606 158.401 50.025 158.424C51.3165 158.822 52.716 158.831 54.0587 158.663C53.6401 158.894 53.2235 159.136 52.8202 159.401C52.7463 159.448 52.788 159.583 52.8826 159.568C53.7898 159.416 54.7025 159.308 55.6077 159.153C55.1248 159.394 54.6306 159.604 54.1458 159.835C54.0681 159.874 54.0568 160.001 54.1628 160.015C56.1153 160.225 58.0336 159.956 59.9577 159.666C59.4672 159.835 58.9767 159.992 58.4938 160.177C58.4162 160.208 58.4124 160.353 58.509 160.355C59.6812 160.406 60.8402 160.255 62.001 160.145C61.8249 160.204 61.6469 160.268 61.4746 160.342C61.3988 160.374 61.3913 160.516 61.4916 160.52C63.0313 160.579 64.5728 160.713 66.0328 161.073L66.0025 161.082C65.7185 161.101 65.4401 161.073 65.1598 161.031C63.9952 161.028 62.8305 161.09 61.6621 161.139C61.5352 161.143 61.4045 161.143 61.2795 161.147C60.9879 161.217 60.6035 161.391 60.3024 161.306C60.2777 161.298 60.2285 161.279 60.2361 161.247C60.2626 161.024 60.5239 160.87 60.6584 160.706C60.666 160.694 60.6773 160.685 60.6849 160.673C60.6773 160.677 60.6697 160.681 60.6622 160.689C60.2967 160.886 59.8232 161.041 59.4218 161.16C59.0411 161.274 58.6169 161.251 58.2249 161.234C57.689 161.213 57.1455 161.258 56.6058 161.247C55.6854 161.228 54.7556 161.037 53.8769 160.789C53.0266 160.548 52.1479 160.355 51.362 159.939C51.3487 159.931 51.3279 159.905 51.3317 159.888C51.3582 159.751 51.4775 159.678 51.6006 159.623C51.9452 159.488 52.2596 159.236 52.5929 159.047C52.2198 159.11 51.843 159.163 51.4642 159.183C50.4852 159.235 49.525 159.079 48.616 158.695C48.1577 158.504 47.7354 158.239 47.3037 157.987C46.8738 157.741 46.442 157.553 46.0651 157.218C45.6675 156.864 45.3474 156.461 44.98 156.099Z" fill="#91BA30"/>
<path d="M40.6167 138.451C42.6108 139.631 44.6958 140.64 46.69 141.823C48.8053 143.081 50.8884 144.412 53.0378 145.602C53.2442 145.718 53.4487 145.83 53.6552 145.941C55.9163 147.424 58.1225 148.982 60.2378 150.677C64.0102 153.702 67.2977 157.175 69.8846 161.272C70.6781 162.529 71.3807 163.854 71.9602 165.225C72.1912 165.772 72.5415 166.497 72.7896 167.226C72.3162 167.7 71.4413 167.896 70.6989 167.77C70.2615 166.853 69.6479 164.602 69.5059 164.227C67.4114 158.64 63.3171 154.263 58.7001 150.616C55.174 147.833 51.4262 145.26 47.5346 143.018C47.3206 142.897 47.1123 142.77 46.8983 142.645C45.5329 141.78 44.1618 140.926 42.8078 140.044C41.7283 139.336 40.5769 138.737 39.5164 138.001C39.0392 137.667 38.543 137.304 38.1094 136.887C38.9066 137.472 39.7891 137.963 40.6167 138.451Z" fill="#375725"/>
<path d="M41.9442 139.207C45.2356 141.261 48.5496 143.276 51.8277 145.353C55.0206 147.373 58.4293 149.268 61.1999 151.866C65.8736 156.251 70.1005 161.507 71.8996 167.703C71.5151 167.808 71.089 167.828 70.6989 167.766C70.2615 166.85 69.6479 164.598 69.5059 164.224C67.4114 158.636 63.3171 154.259 58.7001 150.612C55.174 147.829 51.4262 145.256 47.5346 143.014C47.3206 142.893 47.1123 142.766 46.8983 142.641C45.5329 141.776 44.1618 140.922 42.8078 140.04C41.7283 139.332 40.5769 138.734 39.5164 137.997C39.0392 137.664 38.543 137.3 38.1094 136.884C38.9085 137.471 39.791 137.959 40.6186 138.448C41.0579 138.711 41.5011 138.963 41.9442 139.207Z" fill="#2C481E"/>
<path d="M73.2998 189.312C73.1805 189.329 73.0612 189.335 72.9381 189.333C71.9249 189.291 71.1371 188.439 71.1769 187.426C71.1996 186.902 73.1521 134.225 62.4183 91.5346C51.73 49.0368 35.7429 31.8511 35.5839 31.6807C34.8851 30.9479 34.9135 29.7854 35.6501 29.0887C36.383 28.3882 37.5458 28.4203 38.2427 29.155C38.9226 29.8725 55.0554 47.2155 65.9748 90.641C76.8411 133.854 74.8621 187.042 74.8413 187.574C74.8091 188.462 74.1463 189.176 73.2998 189.312Z" fill="#7EA229"/>
<path d="M63.2546 91.0746C52.3352 47.6472 36.2042 30.3062 35.5206 29.5886C35.4732 29.5337 35.4126 29.4939 35.3615 29.4485C34.9241 30.1396 34.9903 31.0654 35.5793 31.6826C35.7384 31.853 51.7254 49.0388 62.4137 91.5366C73.1475 134.227 71.195 186.902 71.1723 187.428C71.1496 188.023 71.4147 188.557 71.8427 188.907C72.0075 188.648 72.1097 188.337 72.1211 188.004C72.1457 187.472 74.1228 134.284 63.2546 91.0746Z" fill="#7EA229"/>
<path opacity="0.6" d="M65.973 90.641C55.0518 47.2155 38.9208 29.8725 38.241 29.155C37.5441 28.4203 36.3813 28.3882 35.6484 29.0887C35.5784 29.155 35.5196 29.2288 35.4609 29.3045C35.5651 29.3746 35.6579 29.456 35.745 29.5507C36.4267 30.2663 54.2242 48.2852 65.1436 91.7088C76.0099 134.922 72.3682 187.434 72.3493 187.966C72.3323 188.36 72.1902 188.716 71.9687 189.003C72.2414 189.198 72.5728 189.32 72.9345 189.333C73.0594 189.335 73.1788 189.329 73.2962 189.312C74.1427 189.176 74.8055 188.462 74.8377 187.574C74.8604 187.042 76.8394 133.854 65.973 90.641Z" fill="#2C5C1D"/>
<path d="M54.6325 36.6658C53.4299 35.9199 52.769 34.551 51.2635 34.3219C49.8034 34.0966 48.349 34.6684 47.1711 35.4939C46.1522 36.2114 45.48 37.461 44.4668 38.1597C44.4725 38.1199 44.4536 38.0915 44.3948 38.1142C44.1752 38.2032 43.9498 38.2657 43.7282 38.3357C43.3931 38.4096 43.0617 38.5061 42.7473 38.5459C42.0977 38.6292 41.1755 39.1385 40.6036 39.4547C39.1208 40.2726 37.6095 41.3443 36.4108 42.5522C35.4677 43.5064 34.8863 44.9851 34.9981 46.3256C35.1647 48.3193 38.689 48.6923 37.3255 50.97C38.189 50.7068 38.706 49.673 38.778 48.6809C38.7723 48.6525 38.7647 48.626 38.7553 48.5976C38.6057 48.2 38.314 47.8971 38.0735 47.5676C38.0072 46.8804 37.9409 46.2101 38.1246 45.5001C38.4049 44.4266 39.3347 43.8132 40.2153 43.2584C40.3233 43.1903 40.4369 43.1221 40.5505 43.0483C40.5089 43.4913 40.5789 43.9381 40.8554 44.4058C41.1546 44.9113 41.6319 45.3657 42.147 45.6327C42.8931 46.0227 43.5578 46.4468 43.5843 47.3726C43.59 47.4976 43.6563 47.5052 43.7339 47.4711C43.9309 47.0962 44.0407 46.6759 44.0634 46.2499C43.9479 45.8504 43.7055 45.4679 43.4574 45.1233C43.0067 44.5004 42.5257 44.0707 42.7738 43.2168C42.9367 42.6658 43.4745 42.1546 43.8419 41.7267C44.0615 41.5298 44.3002 41.3461 44.5501 41.1682C45.0652 40.8028 45.7337 40.5793 46.211 40.1893C46.8454 39.6724 47.4665 40.4714 48.0384 40.8349C48.9285 41.4048 49.3432 42.1546 49.5364 43.1562C49.7901 42.2985 50.2276 41.5014 49.8829 40.5661C49.8583 40.5036 49.8678 40.4468 49.8943 40.3976C49.8204 40.1515 49.7049 39.9205 49.5364 39.7236C49.0478 39.1499 48.3963 38.8242 47.6938 38.6368C47.9115 38.5289 48.1104 38.4134 48.2297 38.3547C49.7617 37.6125 50.9529 38.1635 52.4338 38.6463C53.5644 39.0155 55.032 38.8753 56.1456 38.527C56.8235 38.3244 57.4447 38.0101 58.0242 37.6049C58.473 37.2906 58.6851 36.8059 59.0676 36.4462C59.1453 36.3004 59.2115 36.1508 59.2684 36.0013C57.8708 36.8779 56.0925 37.5765 54.6325 36.6658Z" fill="#406722"/>
<path opacity="0.4" d="M49.888 40.4033C49.8141 40.1572 49.6986 39.9262 49.5301 39.7293C49.068 39.1821 48.4544 38.864 47.7878 38.6747C47.7727 38.6785 47.7556 38.6823 47.7424 38.6842C47.6477 38.7088 47.6079 38.5933 47.6477 38.527C48.729 36.6034 51.1833 37.5122 52.8896 37.7773C54.967 38.1029 57.427 37.7072 58.9647 36.1869C57.6221 36.9688 55.9897 37.5122 54.6299 36.6678C53.4274 35.9218 52.7665 34.5529 51.261 34.3238C49.8009 34.0985 48.3465 34.6703 47.1686 35.4958C46.1497 36.2134 45.4775 37.463 44.4643 38.1616C44.47 38.1219 44.451 38.0935 44.3923 38.1162C44.1727 38.2052 43.9473 38.2677 43.7257 38.3377C43.3905 38.4115 43.0591 38.5081 42.7448 38.5479C42.0952 38.6312 41.173 39.1405 40.601 39.4567C39.1182 40.2746 37.607 41.3462 36.4083 42.5542C35.4936 43.4762 34.9217 44.8962 34.9899 46.2026C35.0031 46.0663 35.0258 45.93 35.0543 45.7936C35.2247 45.0268 35.5656 44.349 36.039 43.7223C36.4499 43.1771 37.0105 42.4708 37.7472 42.4065C37.8305 42.397 37.8949 42.4917 37.8419 42.5636C37.5218 43.0067 37.0995 43.3512 36.8344 43.8378C36.539 44.3793 36.2833 45.0306 36.2852 45.6573C36.2909 46.7498 36.9859 47.4371 37.4745 48.3364C37.874 49.0691 38.1998 50.0972 37.7434 50.7655C38.3532 50.3452 38.7149 49.5008 38.7736 48.6829C38.7679 48.6545 38.7603 48.628 38.7509 48.5996C38.6012 48.202 38.3096 47.899 38.0691 47.5696C38.0028 46.8823 37.9365 46.2121 38.1202 45.5021C38.4005 44.4286 39.3303 43.8151 40.2109 43.2604C40.3189 43.1922 40.4325 43.124 40.5461 43.0502C40.5442 43.0616 40.5442 43.0729 40.5442 43.0824C40.9097 42.2531 41.5612 41.4787 42.3016 40.96C42.3925 40.8918 42.5118 40.9997 42.4437 41.0963C41.5669 42.3402 41.6104 43.6693 42.6046 44.8432C42.955 45.2541 43.4038 45.6876 43.578 46.214C43.6632 46.4828 43.7314 46.7592 43.7447 47.0451C43.7485 47.1758 43.7049 47.3348 43.6784 47.4863C43.6935 47.4844 43.7106 47.4768 43.7295 47.4711C43.9265 47.0963 44.0363 46.6759 44.059 46.2499C43.9435 45.8505 43.7011 45.468 43.453 45.1234C43.0023 44.5005 42.5213 44.0707 42.7694 43.2168C42.9323 42.6659 43.4701 42.1547 43.8375 41.7268C44.0571 41.5299 44.2958 41.3462 44.5457 41.1682C45.0608 40.8028 45.7293 40.5794 46.2065 40.1894C46.2577 40.1477 46.3145 40.1136 46.3675 40.0909C46.2122 40.0322 46.0513 39.9868 45.8827 39.9622C45.7937 39.947 45.7502 39.8012 45.8505 39.7691C46.8769 39.4529 47.9943 39.6801 48.7404 40.4866C49.0851 40.8596 49.3445 41.3027 49.4657 41.7987C49.5244 42.0354 49.585 42.2872 49.5661 42.5352C49.5509 42.7094 49.5187 42.8874 49.5111 43.0635C49.5187 43.0938 49.5263 43.124 49.532 43.1543C49.7857 42.2967 50.2232 41.4996 49.8785 40.5643C49.852 40.5094 49.8615 40.4507 49.888 40.4033Z" fill="#406722"/>
<path d="M60.8722 7.16391C60.4461 5.04527 60.0882 1.31351 57.3555 0.951887C56.5317 0.843967 56.2761 0.857219 55.5924 0.323299C55.3463 0.126392 54.977 -0.08566 54.6361 0.0355133C54.2271 0.1813 53.9411 0.399034 53.6002 0.675461C52.9488 1.21506 51.1819 0.656526 50.4149 0.5789C49.1688 0.446366 47.9076 0.58458 46.6937 0.87426C45.548 1.15447 44.7223 2.12386 44.0311 3.01183C42.2472 5.30845 42.3854 8.5593 42.9744 11.2611C44.0065 15.9566 45.1958 20.688 45.0045 25.5444C44.9515 26.8697 44.8397 28.2538 44.4383 29.5242C44.2413 30.1395 44.1447 30.8117 44.4667 31.427C44.7337 31.9382 45.1276 32.2184 45.5726 32.3434C45.5177 32.3736 45.4741 32.4286 45.5215 32.4664C46.0252 32.8678 46.8244 32.741 47.3849 32.5175C48.0137 32.2676 48.6594 32.1086 49.2806 31.8284C50.0684 31.4724 50.7956 30.9915 51.5474 30.5788C54.0301 29.2326 55.9939 27.1367 57.5657 24.8211C59.219 22.3863 60.4461 19.6069 61.1998 16.7631C62.0085 13.713 61.4858 10.2046 60.8722 7.16391Z" fill="#E8899A"/>
<path opacity="0.4" d="M42.8321 6.3783C43.0954 5.5263 43.5858 4.42817 44.4608 4.03625C44.5971 3.97755 44.7448 3.96809 44.8225 4.11766C45.0194 4.49443 45.5913 4.88067 46.0136 4.50011C46.2769 4.25777 46.3621 3.85259 46.595 3.57806C46.809 3.32435 47.1896 3.11041 47.5173 3.05739C48.2786 2.92865 48.3524 3.70113 48.5153 4.25587C48.6535 4.72163 49.1459 5.52819 49.7311 5.08705C50.1155 4.79926 50.356 4.35054 50.5851 3.9359C51.0832 3.04225 51.4998 2.14859 52.5243 1.80401C52.9466 1.66769 53.5356 1.88921 53.939 1.99713C54.223 2.07097 54.4616 2.14859 54.7609 2.10883C55.1453 2.05393 55.31 1.84377 55.5808 1.62035C56.4463 0.895206 56.9235 2.86806 57.2417 3.19371C57.8155 3.77875 58.0806 3.18046 58.3912 2.78665C58.59 2.54241 58.8836 2.52537 59.1638 2.59353C59.3759 2.64086 59.5615 2.72985 59.7301 2.84913C59.2377 1.86649 58.5086 1.11105 57.3515 0.955793C56.5277 0.847873 56.2721 0.861127 55.5884 0.327207C55.3422 0.1303 54.973 -0.081754 54.6321 0.0394194C54.223 0.185206 53.9371 0.40294 53.5962 0.679367C52.9447 1.21897 51.1779 0.660432 50.4109 0.582805C49.1648 0.450272 47.9036 0.588486 46.6897 0.878166C45.544 1.15838 44.7183 2.12777 44.0271 3.01574C43.0499 4.27291 42.6503 5.81977 42.5859 7.4007C42.6522 7.05422 42.7299 6.71342 42.8321 6.3783Z" fill="white"/>
<path opacity="0.6" d="M60.8686 7.16403C60.5978 5.82923 60.3573 3.84691 59.5259 2.47803C60.469 5.76485 60.6016 9.26373 60.1527 12.6698C60.1319 12.8099 59.9407 12.8062 59.9085 12.6717C59.2778 9.85635 58.6756 6.47296 56.6209 4.29373C56.4164 4.63264 56.2668 4.99616 56.1683 5.3824C56.1494 5.44299 56.0641 5.47707 56.0092 5.45056C55.0188 4.99237 53.6231 4.09115 52.5323 4.74624C51.4529 5.39187 50.9094 6.65283 50.2503 7.66955C49.7731 8.40227 49.1254 9.45117 48.2089 9.68027C47.2734 9.91125 46.7147 9.08955 46.1674 8.48747C44.9649 9.52691 44.7982 11.3407 44.607 12.8175C44.5975 12.9141 44.4555 12.9728 44.393 12.8838C43.2397 11.2158 42.9537 9.05168 42.895 7.07504C42.8761 6.49379 42.878 5.91443 42.895 5.33317C42.3742 7.23787 42.5636 9.38301 42.9727 11.2612C44.0047 15.9567 45.194 20.6881 45.0027 25.5445C44.9497 26.8698 44.838 28.2539 44.4365 29.5243C44.2396 30.1396 44.143 30.8118 44.4649 31.4271C44.7319 31.9383 45.1258 32.2185 45.5709 32.3435C45.516 32.3738 45.4724 32.4287 45.5197 32.4665C46.0235 32.8679 46.8226 32.7411 47.3832 32.5177C48.0119 32.2677 48.6577 32.1087 49.2788 31.8285C50.0666 31.4725 50.7938 30.9916 51.5457 30.5789C54.0284 29.2327 55.9922 27.1368 57.564 24.8213C59.2172 22.3864 60.4444 19.607 61.1981 16.7632C62.0048 13.7131 61.4822 10.2047 60.8686 7.16403Z" fill="#E76DA4"/>
<path d="M35.2973 41.4748C34.7122 36.4916 29.9343 33.4339 25.1241 32.7788C22.3649 32.402 19.566 32.5251 16.82 32.0101C13.5817 31.4004 10.9229 29.4105 8.67312 27.1007C8.14855 26.5611 7.53308 26.0631 6.94223 26.8507C6.5578 27.3638 6.20935 27.8466 5.63365 28.1761C5.03523 28.5188 4.93296 29.4313 4.17925 29.5923C3.32138 29.7778 2.8631 29.6567 2.6188 30.6431C2.4067 31.5045 2.13779 32.0972 1.44846 32.6898C0.997752 33.0703 0.698538 33.6629 0.480757 34.1988C-0.539974 36.7226 0.153138 39.591 1.72684 41.7645C3.42364 44.1123 6.01808 45.5455 8.71668 46.5054C13.4776 48.2 18.4733 47.774 23.2891 46.6304C25.696 46.0567 28.1011 45.3297 30.4759 44.6254C31.5269 44.3111 32.5666 43.9116 33.5172 43.372C34.0266 43.0823 34.5891 42.7983 35.0398 42.4064C35.0625 42.6601 35.0796 42.9138 35.0796 43.1675C35.0815 43.3757 35.3276 43.1864 35.339 43.0596C35.3579 42.7358 35.3579 42.4196 35.3428 42.1091C35.5113 42.0391 35.7083 41.7872 35.6742 41.6168L35.6496 41.5051C35.6136 41.312 35.4223 41.3764 35.2973 41.4748Z" fill="#E8899A"/>
<path opacity="0.4" d="M0.302808 36.5389C0.350151 36.4916 0.418327 36.4688 0.47514 36.5124C0.857677 36.7983 1.10386 37.4155 1.56026 37.5764C1.77236 37.6465 1.81781 36.6544 1.82917 36.5048C1.86704 35.9614 1.95984 35.276 2.61886 35.1852C3.09988 35.1189 3.48241 35.3006 3.9426 35.3783C4.55617 35.4824 5.18868 35.134 5.28905 34.477C5.397 33.7462 5.02203 33.0665 4.79857 32.3925C4.64518 31.9286 4.46716 31.3095 4.79857 30.8759C5.29663 30.2341 6.84003 30.289 6.84193 29.331C6.84382 28.7838 6.72641 28.3029 7.01236 27.803C7.19227 27.4888 7.43467 27.1839 7.77744 27.0344C7.99901 26.9378 8.22058 26.8924 8.44215 26.8791C7.9725 26.4493 7.44982 26.1767 6.9404 26.8526C6.55597 27.3657 6.20752 27.8485 5.63182 28.1779C5.0334 28.5206 4.93113 29.4332 4.17742 29.5941C3.31955 29.7797 2.86126 29.6585 2.61697 30.6449C2.40487 31.5064 2.13596 32.099 1.44663 32.6916C0.99592 33.0722 0.696708 33.6648 0.478927 34.2006C0.0907084 35.1549 -0.0456421 36.1621 0.0130641 37.1618C0.0547266 36.9289 0.139945 36.715 0.302808 36.5389Z" fill="white"/>
<path opacity="0.6" d="M35.6504 41.511C35.6106 41.3122 35.4212 41.3766 35.2943 41.475C34.7092 36.4918 29.9312 33.434 25.1211 32.7789C22.3619 32.4022 19.563 32.5252 16.817 32.0102C15.0066 31.6676 13.3761 30.8932 11.8971 29.8765C11.844 31.429 9.23256 31.8796 8.10388 32.406C5.80297 33.4795 5.42612 36.1169 6.17036 38.3188C6.85022 40.3239 8.10956 42.1793 9.67191 43.5993C9.76659 43.6845 9.69274 43.8814 9.55828 43.8133C8.33871 43.1733 7.17594 42.4482 6.10976 41.6019C7.36721 42.8307 8.81593 43.8815 10.0071 45.186C10.0885 45.2749 9.99574 45.3829 9.89916 45.3848C7.25169 45.4113 4.68566 43.9061 2.80138 42.1528C1.96624 41.3766 1.16707 40.4886 0.515625 39.5135C0.814838 40.3125 1.22389 41.0736 1.72573 41.7666C3.42253 44.1143 6.01697 45.5476 8.71556 46.5075C13.4764 48.202 18.4722 47.776 23.288 46.6325C25.6949 46.0588 28.1 45.3317 30.4748 44.6274C31.5258 44.3131 32.5654 43.9136 33.5161 43.374C34.0255 43.0844 34.588 42.8004 35.0387 42.4084C35.0614 42.6621 35.0785 42.9158 35.0785 43.1696C35.0803 43.3778 35.3265 43.1885 35.3379 43.0616C35.3568 42.7379 35.3568 42.4217 35.3417 42.1112C35.5102 42.0411 35.7072 41.7893 35.6731 41.6189L35.6504 41.511Z" fill="#E76DA4"/>
<path d="M27.8299 23.8801C26.2202 20.9208 24.4458 18.0618 22.0748 15.6384C20.6753 14.2108 17.6586 12.7662 16.35 15.0496C15.8027 16.0057 15.3406 16.3654 14.2006 16.585C13.6533 16.6892 13.1799 16.9069 12.7102 17.1985C11.608 17.8801 11.021 18.7434 10.4718 19.8643C9.9529 20.9246 8.66704 21.0874 8.23716 22.2726C7.78266 23.5241 8.19739 24.9403 8.89998 25.9968C10.7426 28.7592 13.0795 30.8873 16.0091 32.4247C17.4294 33.1725 18.7948 33.9924 20.2587 34.6588C21.9233 35.4199 23.6769 35.7304 25.4551 36.0826C26.2505 36.2416 26.9739 36.5294 27.7239 36.8229C27.7863 36.8494 27.8469 36.874 27.9151 36.9043C27.7201 36.963 27.4852 37.389 27.7239 37.425C28.3942 37.5329 29.6327 38.116 30.1516 37.4534C30.7766 36.6525 30.7368 34.9882 30.7292 34.0302C30.7084 30.4859 29.5097 26.9624 27.8299 23.8801Z" fill="#E8899A"/>
<path opacity="0.4" d="M8.55546 25.3286C8.47214 25.0711 7.90212 23.1209 8.74484 23.316C9.08003 23.3955 9.3622 23.7003 9.64816 23.8745C10.1197 24.1623 10.8261 24.255 10.8961 23.511C10.934 23.1437 10.6121 22.0701 11.2181 21.9887C11.8392 21.8978 12.4111 22.2841 13.0569 22.1478C13.8996 21.9736 14.5416 21.3658 14.7575 20.5252C14.9885 19.6334 14.6533 18.3516 15.3048 17.6038C16.0774 16.712 17.5565 17.1626 18.045 15.913C18.3594 15.1065 18.5109 14.2166 19.2438 13.9705C18.1284 13.694 17.013 13.8872 16.3482 15.0516C15.801 16.0077 15.3389 16.3674 14.1988 16.587C13.6515 16.6912 13.1781 16.9089 12.7085 17.2005C11.6063 17.8821 11.0192 18.7454 10.47 19.8663C9.95116 20.9266 8.6653 21.0894 8.23542 22.2746C7.83584 23.3822 8.11422 24.6167 8.66909 25.6201C8.63122 25.5236 8.58955 25.4289 8.55546 25.3286Z" fill="white"/>
<path opacity="0.6" d="M27.8288 23.8801C26.2191 20.9208 24.4446 18.0619 22.0737 15.6384C22.0434 15.6081 22.0112 15.5778 21.9809 15.5457C22.9202 16.9732 23.5716 18.628 23.6493 20.2487C23.6796 20.9151 23.4864 21.5873 22.8615 21.9243C21.9884 22.3882 20.8976 22.2746 20.0549 22.7895C19.1156 23.3594 19.2595 24.3989 19.4603 25.3285C19.6534 26.2241 19.8958 27.1234 19.7197 28.0417C19.2785 30.3269 16.8015 28.8558 15.4228 28.3711C15.4361 28.941 15.6766 29.473 15.7144 30.0391C15.722 30.1054 15.6841 30.1679 15.6122 30.1792C13.4666 30.4765 11.427 28.9107 10.1052 27.3809C9.35144 26.5156 8.61478 25.461 8.16406 24.3269C8.3042 24.9271 8.57122 25.5027 8.90073 26.0006C10.7433 28.763 13.0802 30.8911 16.0099 32.4285C17.4302 33.1764 18.7956 33.9962 20.2594 34.6626C21.924 35.4238 23.6777 35.7343 25.4559 36.0864C26.2513 36.2455 26.9747 36.5333 27.7246 36.8267C27.7871 36.8532 27.8477 36.8778 27.9159 36.9081C27.7208 36.9668 27.486 37.3928 27.7246 37.4288C28.395 37.5367 29.6335 38.1199 30.1524 37.4572C30.7773 36.6563 30.7376 34.9921 30.73 34.0341C30.7073 30.4859 29.5085 26.9625 27.8288 23.8801Z" fill="#E76DA4"/>
<path d="M40.6791 11.0414C40.3212 9.78427 39.7587 8.49869 38.8668 7.52363C38.2854 6.88179 36.8367 5.39741 35.8235 5.78365C35.2933 5.98056 34.9751 6.48987 34.4259 6.70381C33.64 7.01243 32.8863 6.60157 32.1515 6.82309C31.7046 6.95563 31.2785 7.07112 30.9604 7.43653C30.0987 8.42675 29.273 9.05912 27.9209 9.02315C26.7468 8.98907 26.2317 10.6325 25.4799 11.28C24.6845 11.9654 23.9592 11.7704 23.8721 13.0086C23.6259 16.4337 25.6484 19.268 27.1691 22.1932C28.2921 24.3535 28.9947 26.6122 29.9302 28.8426C30.3809 29.9293 30.9376 30.9877 31.4357 32.0555C31.4679 32.1199 31.5001 32.1881 31.5304 32.2525C31.1573 31.6295 30.7861 31.0066 30.451 30.3724C30.3146 30.1092 29.8696 30.5769 29.9813 30.8059C30.6952 32.2941 31.6573 33.6403 32.3788 35.1265C32.4981 35.3708 32.6344 35.579 32.7841 35.7684C32.7841 35.7684 32.7897 35.7816 32.7973 35.7816C33.3522 36.4651 34.1173 36.7643 35.1247 36.6734C36.1038 36.5806 36.8859 35.4465 37.4521 34.7668C38.4918 33.5191 39.5656 32.3206 40.3477 30.8855C43.6466 24.8135 42.4857 17.3955 40.6791 11.0414Z" fill="#E8899A"/>
<path opacity="0.4" d="M24.1321 12.7151C24.4521 12.8684 24.6964 13.2509 24.8915 13.5292C25.2058 13.959 25.4899 14.402 25.7948 14.8337C26.0542 15.1972 26.3194 15.6649 26.7682 15.8182C27.2227 15.9697 27.3988 15.6289 27.448 15.2256C27.5598 14.3528 27.3931 13.444 27.2378 12.5844C27.1564 12.1357 26.8231 11.0054 27.4973 10.8577C27.9139 10.7649 28.3324 10.9675 28.7528 10.977C29.1846 10.9921 29.5217 10.8615 29.7679 10.479C29.8929 10.284 30.0141 10.0417 30.211 9.89588C30.7621 9.48882 31.1105 9.76714 31.6749 9.99244C32.6274 10.3749 33.7561 10.4715 34.0837 9.22754C34.2314 8.66143 34.2163 7.82647 34.7257 7.41751C34.9113 7.26794 35.1158 7.15244 35.3601 7.12404C35.6328 7.08996 36.0703 7.16002 36.3165 7.01991C36.7804 6.75295 36.413 6.50303 36.6611 6.24554C36.7994 6.09975 36.949 6.04674 37.1289 6.0278C36.6782 5.77031 36.2142 5.6321 35.8203 5.78356C35.2901 5.98047 34.9719 6.48978 34.4227 6.70372C33.6368 7.01234 32.8831 6.60148 32.1483 6.823C31.7014 6.95554 31.2753 7.07103 30.9572 7.43644C30.0955 8.42666 29.2698 9.05903 27.9177 9.02306C26.7436 8.98898 26.2285 10.6324 25.4766 11.2799C24.7703 11.8915 24.115 11.8063 23.9219 12.6583C23.9787 12.6564 24.0525 12.6715 24.1321 12.7151Z" fill="white"/>
<path opacity="0.6" d="M40.6788 11.0415C40.3209 9.78432 39.7584 8.49875 38.8665 7.52369C38.6695 7.30217 38.3665 6.98787 38.0199 6.68115C38.3154 7.17342 38.5445 7.70923 38.6903 8.26398C38.8627 8.91907 38.999 9.6499 38.9157 10.3277C38.874 10.6382 38.874 11.1835 38.6089 11.4145C38.3817 11.6152 38.0237 11.583 37.7586 11.7193C37.6923 11.7572 36.9235 12.0203 36.9291 11.9938C36.7246 12.6489 36.7246 13.8209 35.9974 14.156C35.649 14.3132 35.1604 14.0254 34.8669 13.8739C34.3158 13.588 33.7495 13.1488 33.1473 12.986C31.8198 12.63 31.674 15.2296 31.5755 16.0532C31.4638 17.0093 31.3085 18.2362 30.4431 18.842C29.4185 19.5539 28.7444 18.9613 27.8278 18.4785C27.7937 18.9291 27.8316 19.3816 27.8448 19.8379C27.8467 19.9193 27.7691 20.0235 27.6782 19.9705C26.3317 19.2358 25.5193 17.8234 24.9322 16.4583C24.508 15.4795 24.1785 14.4722 23.8604 13.4612C23.8093 16.6855 25.7163 19.4006 27.1707 22.1989C28.2936 24.3592 28.9962 26.618 29.9317 28.8483C30.3825 29.9351 30.9392 30.9934 31.4373 32.0613C31.4695 32.1257 31.5017 32.1938 31.532 32.2582C31.1589 31.6353 30.7877 31.0124 30.4525 30.3781C30.3162 30.1149 29.8711 30.5826 29.9829 30.8117C30.6968 32.2998 31.6588 33.646 32.3804 35.1323C32.4997 35.3765 32.636 35.5848 32.7856 35.7741C32.7856 35.7741 32.7913 35.7874 32.7989 35.7874C33.3537 36.4709 34.1188 36.77 35.1263 36.6791C36.1054 36.5863 36.8875 35.4522 37.4537 34.7725C38.4934 33.5248 39.5671 32.3264 40.3493 30.8912C43.6463 24.8136 42.4854 17.3955 40.6788 11.0415Z" fill="#E76DA4"/>
<path d="M57.277 8.93991C56.5934 7.19047 54.8227 4.22929 53.1411 6.82506C52.9479 7.1242 52.7964 7.9781 52.429 8.04247C51.931 8.12578 51.378 8.2337 50.9367 8.48172C50.3781 8.78844 49.6244 9.38484 49.8346 10.0797C49.7683 10.1005 49.702 10.1195 49.6338 10.146C49.4502 10.2141 49.2816 10.3258 49.1055 10.4129C48.5317 10.7045 48.0052 11.0642 47.4996 11.4599C40.9264 16.6325 46.8538 24.7398 45.4165 31.3418C45.1002 32.794 44.4222 34.0398 43.7632 35.3576C43.2898 36.3099 41.0268 39.131 43.0171 39.3677C44.3825 39.5305 45.782 38.2544 46.9315 37.6656C48.5487 36.842 50.202 36.1547 51.645 35.0338C55.2526 32.2317 57.7751 28.0645 58.8583 23.6473C60.1328 18.4634 59.1954 13.8455 57.277 8.93991Z" fill="#E8899A"/>
<path opacity="0.6" d="M58.6711 13.1848C59.0233 15.5401 58.8888 18.0185 58.6086 20.3151C58.2942 22.9374 57.6257 25.8058 55.6278 27.6821C55.5539 27.754 55.4043 27.6783 55.429 27.5741C55.6486 26.6275 56.0312 25.7319 56.3001 24.8023C56.5595 23.8992 56.9042 22.6856 56.4061 21.7957C55.9403 22.7575 55.9971 23.9162 55.2509 24.7436C55.2036 24.7928 55.1373 24.8118 55.0786 24.7682C54.6071 24.418 54.4385 23.8443 54.1658 23.352C53.6223 22.3788 53.0087 24.0185 52.8591 24.5259C52.5713 25.5085 51.774 27.9074 50.2799 26.7619C49.5811 26.2261 49.225 25.3571 48.8861 24.5732C48.4202 23.5016 48.0282 22.3959 47.5547 21.3224C47.0586 20.2015 46.4867 19.0901 45.6799 18.1567C45.3921 17.8292 44.9262 17.3066 44.4111 16.9469C43.8903 21.4814 46.4204 26.7714 45.4243 31.3419C45.108 32.7941 44.4301 34.0399 43.771 35.3576C43.2976 36.31 41.0346 39.1311 43.0249 39.3677C44.3903 39.5305 45.7898 38.2544 46.9393 37.6656C48.5565 36.842 50.2098 36.1547 51.6528 35.0339C55.2604 32.2317 57.7829 28.0645 58.8661 23.6474C59.76 19.9781 59.5479 16.5928 58.6711 13.1848Z" fill="#E76DA4"/>
<path opacity="0.5" d="M46.5774 19.6958C46.799 19.9798 47.0073 20.2733 47.2062 20.5724C46.7839 19.711 46.2991 18.8798 45.6741 18.1547C45.3863 17.8271 44.9204 17.3046 44.4053 16.9448C44.3939 17.049 44.3826 17.155 44.375 17.2667C45.1571 18.0316 45.9108 18.8268 46.5774 19.6958Z" fill="#E35165"/>
<path opacity="0.6" d="M57.7583 26.7011C55.9819 29.9539 53.1981 32.5951 49.9579 34.371C49.8651 34.4183 49.7856 34.3312 49.7856 34.246C49.761 32.5383 50.0356 30.8248 49.9163 29.117C49.8121 27.6042 49.4352 26.0858 48.922 24.6506C48.9107 24.6241 48.8993 24.5995 48.8842 24.573C48.6361 23.9917 48.4032 23.4067 48.1702 22.8198C47.6267 21.6516 46.9753 20.5535 46.1477 19.5462C45.5853 18.8646 44.9793 18.2247 44.3562 17.5999C44.1214 21.9867 46.3712 26.9927 45.4243 31.3436C45.108 32.7957 44.4301 34.0416 43.771 35.3593C43.2976 36.3117 41.0346 39.1327 43.0249 39.3694C44.3903 39.5322 45.7898 38.2561 46.9393 37.6673C48.5565 36.8437 50.2098 36.1564 51.6528 35.0356C54.7074 32.6651 56.9799 29.312 58.2639 25.6579C58.1105 26.0081 57.9477 26.3584 57.7583 26.7011Z" fill="#E76DA4"/>
<path opacity="0.4" d="M45.2404 15.2541C46.0661 14.724 46.9467 15.2333 47.7459 15.5627C48.242 15.7653 49.0583 16.0039 49.509 15.5514C49.8517 15.2068 49.9294 14.6861 49.9388 14.2204C49.9559 13.5388 49.6529 12.5732 50.2399 12.043C50.5865 11.7287 50.9634 11.5394 51.3819 11.352C51.8932 11.121 52.1848 10.7575 52.3818 10.2311C52.6071 9.62903 52.6299 8.74485 53.4063 8.61421C54.0199 8.51386 54.5672 9.29013 55.0008 9.73885C54.9194 8.85087 54.302 6.84015 55.7015 7.28319C56.1655 7.42898 56.5651 7.73381 56.9135 8.11437C56.0803 6.44255 54.5804 4.60791 53.145 6.82311C52.9518 7.12226 52.8003 7.97615 52.4329 8.04053C51.9349 8.12383 51.3819 8.23175 50.9406 8.47978C50.382 8.7865 49.6283 9.3829 49.8385 10.0778C49.7722 10.0986 49.7059 10.1175 49.6377 10.144C49.454 10.2122 49.2855 10.3239 49.1094 10.411C48.5356 10.7026 48.0091 11.0623 47.5035 11.458C45.5605 12.9897 44.7083 14.7732 44.4375 16.6987L44.4413 16.7025C44.5568 16.1421 44.7727 15.5514 45.2404 15.2541Z" fill="white"/>
<path d="M41.2608 41.0659C41.0601 40.9106 40.7873 40.8784 40.5771 40.7156C40.1662 40.39 39.8121 39.9015 39.4485 39.5209C39.3973 39.4698 39.3292 39.4641 39.2648 39.4887C39.0565 39.2653 38.8254 39.0589 38.5565 38.8488C37.96 38.3849 37.4203 38.0195 36.9336 37.4231C36.4298 36.8135 35.9753 36.1205 35.3144 35.6793C32.6329 33.892 29.0499 33.3449 25.8987 33.2067C24.289 33.1366 22.6793 33.129 21.0696 33.1404C20.278 33.1442 19.4997 33.0893 18.729 32.9037C17.9109 32.7068 17.4488 32.1634 16.8428 31.6428C16.2406 31.1202 15.5759 30.9706 14.9661 31.5386C14.7729 31.7185 14.6536 32.0271 14.5987 32.2789C14.4207 33.1215 14.6536 32.597 13.862 32.6159C13.434 32.6254 13.1822 32.775 12.8754 33.0571C12.4 33.4982 11.2316 33.112 10.6313 33.0893C9.65789 33.0495 8.90418 33.8125 8.43074 34.568C7.10512 36.6999 7.80202 39.3941 9.12007 41.3082C10.7979 43.7506 13.9075 45.2558 16.5682 46.3577C19.7592 47.6812 23.2077 47.5524 26.5577 46.9939C30.3755 46.3559 34.0437 45.1006 37.6248 43.6616C38.8633 43.1599 40.4124 42.7699 41.2456 41.6471C41.3555 41.4995 41.4407 41.206 41.2608 41.0659Z" fill="#E8899A"/>
<path opacity="0.6" d="M41.2604 41.066C41.0597 40.9107 40.787 40.8786 40.5768 40.7157C40.1659 40.3901 39.8117 39.9016 39.4481 39.521C39.397 39.4699 39.3288 39.4642 39.2644 39.4889C39.0561 39.2654 38.8251 39.0591 38.5562 38.8489C37.9596 38.385 37.4199 38.0196 36.9332 37.4232C36.4295 36.8136 35.975 36.1206 35.3141 35.6795C32.6325 33.8922 29.0495 33.345 25.8983 33.2068C24.8719 33.1613 23.8455 33.1443 22.8191 33.1367C22.9801 34.5302 23.4592 35.9218 24.0141 37.09C24.6504 38.4399 25.4287 39.735 26.4153 40.8577C26.8926 41.4011 27.4039 41.8423 27.9758 42.2758C28.3659 42.5731 28.7428 42.8741 29.023 43.2831C29.0855 43.3778 29.023 43.4819 28.9132 43.4819C25.6597 43.48 23.1164 41.3727 20.4974 39.7104C21.1848 40.8805 22.0919 41.9881 23.1051 42.876C23.8891 43.569 24.8038 44.1578 25.3473 45.0761C25.3984 45.1651 25.3037 45.2503 25.2223 45.2503C22.6809 45.2427 20.6015 43.6447 18.5089 42.3857C18.7797 42.8912 19.2361 43.5955 19.0259 43.9855C18.6453 44.6974 17.0905 43.8852 16.6474 43.6561C16.049 43.3437 15.4998 42.9347 14.9506 42.5485C14.6552 42.3402 14.3578 42.1282 14.0473 41.9445C13.7405 41.759 13.2121 41.3879 13.3579 42.0449C13.5776 43.054 14.5245 43.7413 14.7385 44.7447C14.7536 44.8224 14.6798 44.9019 14.6059 44.8849C11.9244 44.4039 9.85261 42.4216 8.45312 40.1477C8.64818 40.5567 8.87354 40.9467 9.12351 41.3064C10.8014 43.7488 13.9109 45.2541 16.5716 46.356C19.7626 47.6794 23.2111 47.5507 26.5612 46.9921C30.379 46.3541 34.0472 45.0988 37.6282 43.6599C38.8667 43.1581 40.4158 42.7681 41.2491 41.6454C41.3551 41.4996 41.4404 41.2061 41.2604 41.066Z" fill="#E76DA4"/>
<path opacity="0.4" d="M8.26789 37.3134C8.61255 36.662 9.18257 37.1922 9.63139 37.4591C10.0215 37.6901 10.726 38.1123 10.8585 37.4061C10.9191 37.088 10.9324 36.7605 10.9778 36.4348C11.046 35.9483 11.3092 34.7574 12.0099 34.8388C12.3641 34.8823 12.6121 35.1436 12.8489 35.3897C13.2484 35.8119 13.6594 36.2171 14.0173 36.6753C14.8051 37.6826 15.4774 38.8526 16.447 39.7084C16.733 39.9621 17.7082 40.7763 17.5397 39.8807C17.4753 39.5323 17.3636 39.1934 17.2632 38.8507C17.0038 37.9571 16.7311 37.0596 16.5966 36.1376C16.5303 35.6756 16.3258 34.6248 16.9621 34.4487C17.32 34.3484 17.8427 34.8501 18.1192 35.0016C18.5585 35.2477 18.7858 35.261 19.0963 34.8577C19.2289 34.6835 19.2952 34.6475 19.513 34.6059C19.727 34.5661 19.9201 34.6892 20.1436 34.6362C20.3955 34.5737 20.6454 34.5018 20.884 34.3976C21.2495 34.2443 21.6018 34.0663 21.9673 33.9091C22.6888 33.6005 23.4198 33.4604 24.2076 33.4358C25.8949 33.3809 27.5633 33.6479 29.1957 34.0587C30.866 34.4828 32.5495 34.9751 34.0854 35.7816C34.7065 36.1054 35.3353 36.45 35.8617 36.9214C36.3124 37.319 36.7461 37.7488 37.2385 38.0934C37.5453 38.3111 37.871 38.527 38.1929 38.5743C37.7422 38.2222 37.3199 37.8946 36.9317 37.4251C36.4279 36.8154 35.9734 36.1225 35.3125 35.6813C32.631 33.894 29.048 33.3468 25.8968 33.2086C24.2871 33.1386 22.6774 33.131 21.0677 33.1423C20.2762 33.1461 19.4978 33.0912 18.7271 32.9057C17.909 32.7088 17.4469 32.1654 16.8409 31.6447C16.2387 31.1222 15.574 30.9726 14.9642 31.5406C14.771 31.7204 14.6517 32.0291 14.5968 32.2809C14.4188 33.1234 14.6517 32.599 13.8601 32.6179C13.4321 32.6274 13.1803 32.7769 12.8735 33.059C12.3982 33.5002 11.2297 33.1139 10.6294 33.0912C9.65601 33.0515 8.90229 33.8145 8.42885 34.5699C7.50281 36.0638 7.5672 37.8302 8.13722 39.4112C7.98761 38.7068 7.94027 37.9363 8.26789 37.3134Z" fill="white"/>
<path opacity="0.6" d="M41.2607 41.0659C41.06 40.9106 40.7873 40.8784 40.5771 40.7156C40.1661 40.39 39.812 39.9015 39.4484 39.5209C39.3973 39.4698 39.3291 39.4641 39.2647 39.4887C39.0564 39.2653 38.8254 39.0589 38.5565 38.8488C37.9599 38.3849 37.4202 38.0195 36.9335 37.4231C36.4298 36.8135 35.9753 36.1205 35.3144 35.6793C32.6328 33.892 29.0498 33.3449 25.8986 33.2067C24.2889 33.1366 22.6793 33.129 21.0696 33.1404C20.937 33.1404 20.8025 33.1366 20.6719 33.1328C21.0696 35.1076 21.8346 37.016 22.9368 38.6765C23.8666 40.0738 24.9423 41.3953 26.1959 42.5181C26.7603 43.0236 27.3208 43.4382 27.978 43.8093C28.4722 44.0914 28.957 44.3773 29.2733 44.8601C29.3093 44.915 29.3093 44.9851 29.2543 45.0305C28.0291 46.0624 26.4989 46.6758 24.9972 47.2173C25.518 47.1548 26.0407 47.081 26.5576 46.9939C30.3755 46.3559 34.0436 45.1006 37.6247 43.6616C38.8632 43.1599 40.4123 42.7699 41.2456 41.6471C41.3554 41.4995 41.4406 41.206 41.2607 41.0659Z" fill="#E76DA4"/>
<path d="M48.4466 24.6736C47.6437 21.3224 46.2631 18.3158 43.9925 15.72C43.3184 14.9513 42.0477 13.8115 40.9303 13.8286C39.6066 13.8456 38.2867 14.3644 37.1959 15.08C36.1145 15.7919 35.571 17.1835 34.8363 18.1946C34.5787 18.5467 34.0466 19.1185 33.5428 19.0863C33.3118 19.0674 33.0296 18.8686 32.7986 18.9046C32.2399 19.003 31.5752 19.0295 31.0734 19.3154C29.7894 20.0368 29.0679 21.9585 27.3256 21.6423C26.303 21.4606 26.1231 22.8579 25.2331 22.5511C22.7011 21.6802 21.1956 24.0469 20.4059 26.0576C19.3208 28.8124 20.1483 31.5975 21.2732 34.2008C22.5117 37.0598 24.4945 39.6991 27.0984 41.4447C28.3899 42.3081 30.0204 42.7208 31.4805 43.1695C39.8358 45.7331 47.3047 41.2743 48.636 33.2939C48.9693 31.304 48.9239 26.6559 48.4466 24.6736Z" fill="#E8899A"/>
<path opacity="0.6" d="M48.449 24.6734C47.7881 21.9186 46.7408 19.3967 45.1236 17.1455C46.0307 18.7208 46.5818 20.5137 46.8602 22.3124C47.2881 25.0748 47.5419 28.5188 45.9985 30.9934C45.953 31.0615 45.8527 31.0539 45.8034 30.999C45.2372 30.3667 44.938 29.5639 44.6672 28.746C45.0971 30.7586 45.3887 32.7807 44.5005 34.744C44.457 34.833 44.3566 34.8444 44.2903 34.7781C43.5404 34.0303 43.4798 32.7844 43.1257 31.8416C42.7072 30.7396 42.3152 29.5222 41.5539 28.5983C41.5652 29.8782 42.1977 31.1126 41.9042 32.3963C41.8853 32.4777 41.7868 32.5478 41.711 32.4815C40.9365 31.8113 40.7206 30.626 39.7851 30.1451C39.5105 30.7889 39.5219 31.5424 39.5578 32.224C39.609 33.1196 39.7245 34.0056 39.7927 34.8974C39.8968 36.164 40.107 38.0517 39.0371 39.0059C38.0201 39.9128 36.5695 39.6894 35.4011 39.1271C35.2742 39.0798 35.1492 39.0268 35.028 38.9719C33.8293 38.4228 32.782 37.6295 31.7026 36.8854C31.5511 36.7775 30.5038 36.0277 30.4792 36.4405C30.4565 36.8135 30.6231 37.2073 30.75 37.5556C30.7576 37.5708 30.7633 37.5935 30.7727 37.6162C31.2651 38.5288 31.7783 39.4376 31.5757 40.4903C31.5662 40.5452 31.5321 40.5944 31.4753 40.602C29.8524 40.7819 28.4207 39.6118 27.3659 38.5118C26.3262 37.4212 25.4343 36.1905 24.6389 34.9125C24.9059 36.6847 25.9569 38.2467 26.7504 39.8257C26.8016 39.9337 26.6898 40.0208 26.5913 39.9924C24.4135 39.3922 22.9004 37.1334 21.8361 35.2855C21.7093 35.0678 21.5862 34.8463 21.4688 34.621C22.7148 37.3171 24.6256 39.7841 27.1027 41.4464C28.3942 42.3098 30.0247 42.7225 31.4848 43.1713C39.84 45.7348 47.309 41.276 48.6403 33.2956C48.9717 31.3039 48.9262 26.6557 48.449 24.6734Z" fill="#E76DA4"/>
<path opacity="0.4" d="M21.1273 33.8259C20.4835 31.0484 20.3812 27.754 22.0591 25.3022C22.1329 25.1904 22.2787 25.2738 22.2787 25.3874C22.2731 26.1371 22.2181 27.0364 22.6423 27.6915C22.8412 26.9191 22.8317 25.802 23.6044 25.4025C24.4035 24.9879 24.9944 25.8531 25.4508 26.3927C26.1098 27.1728 27.3862 28.3978 28.5414 28.0797C29.6852 27.7654 30.2969 26.334 30.5184 25.2756C30.6775 24.5297 30.7665 23.5698 31.4464 23.1021C32.1168 22.6401 32.9273 23.6095 33.5958 23.6436C35.1449 23.725 34.5635 21.0156 35.3305 20.1428C35.9952 19.395 36.9099 19.5464 37.7848 19.7736C38.3037 19.9062 39.1369 20.1902 39.4872 19.59C39.7751 19.0958 39.794 18.5297 39.7637 17.975C39.7334 17.3407 39.5157 16.2691 40.0857 15.7882C40.7371 15.2429 41.9056 15.5344 42.6214 15.8109C44.0133 16.3429 45.1268 17.3767 46.0377 18.56C45.4545 17.566 44.7765 16.6193 43.9925 15.72C43.3183 14.9513 42.0476 13.8115 40.9303 13.8286C39.6066 13.8456 38.2866 14.3644 37.1958 15.08C36.1145 15.7919 35.571 17.1835 34.8362 18.1946C34.5786 18.5467 34.0465 19.1185 33.5428 19.0863C33.3117 19.0674 33.0296 18.8686 32.7985 18.9046C32.2399 19.003 31.5752 19.0295 31.0733 19.3154C29.7894 20.0368 29.0678 21.9585 27.3256 21.6423C26.303 21.4606 26.1231 22.8579 25.233 22.5511C22.701 21.6802 21.1955 24.0469 20.4058 26.0576C19.3662 28.6988 20.082 31.3646 21.1368 33.8714C21.1368 33.8714 21.1273 33.8449 21.1273 33.8259Z" fill="white"/>
</svg>
