<svg width="165" height="194" viewBox="0 0 165 194" fill="none" xmlns="http://www.w3.org/2000/svg">
<path d="M92.2865 109.884C90.0625 103.969 88.1279 96.573 83.9185 104.331L84.4605 105.022C83.6905 115.463 85.0182 123.899 82.2733 133.816C79.9037 142.381 76.0293 151.124 74.6577 159.869C73.7439 165.697 71.127 185.592 74.5384 190.282C78.2059 195.33 91.8884 192.357 96.3258 189.995C97.1712 181.169 92.0269 173.485 91.7691 164.547C91.4639 154.034 94.2685 148.339 95.7295 139.695C98.4516 123.598 95.5296 118.508 92.2865 109.884Z" fill="#541222"/>
<path d="M92.2812 109.884C90.0572 103.969 88.1226 96.573 83.9131 104.331L84.4551 105.022C83.9991 111.25 84.2359 116.773 83.9517 122.314C86.2406 121.183 88.8785 121.09 90.6307 123.628C93.2564 127.42 90.8324 130.733 88.9592 134.297C85.9565 140.022 91.42 142.307 88.8435 148.344C86.5967 153.611 84.6989 154.916 86.7949 160.327C87.4473 162.007 88.2857 164.377 87.9718 166.241C87.5157 168.932 83.7062 171.452 83.1993 173.973C82.8082 175.921 84.8743 177.893 85.0637 179.696C85.3198 182.116 85.6127 186.215 82.1171 187.574C77.2885 189.451 73.8368 186.948 73.3281 186.91C73.6 188.336 73.9771 189.519 74.5313 190.281C78.1988 195.329 91.8813 192.356 96.3188 189.993C97.1642 181.167 92.0198 173.483 91.762 164.545C91.4568 154.032 94.2614 148.337 95.7224 139.694C98.4463 123.598 95.5242 118.508 92.2812 109.884Z" fill="#3A0219"/>
<path d="M78.7414 178.061C78.0065 180.429 79.0676 187.492 82.8772 184.215C85.4397 182.012 81.1496 173.946 78.7414 178.061Z" fill="#3A0219"/>
<path d="M80.3797 164.038C78.9152 167.559 82.4353 169.519 84.1156 165.741C85.5451 162.522 81.1339 160.968 80.3797 164.038Z" fill="#3A0219"/>
<path d="M85.018 146.356C83.2623 149.61 85.546 152.035 87.5174 148.563C89.1924 145.602 86.1563 143.45 85.018 146.356Z" fill="#3A0219"/>
<path d="M86.8526 126.69C85.7107 128.802 87.2016 130.382 88.4767 128.118C89.5729 126.195 87.598 124.796 86.8526 126.69Z" fill="#3A0219"/>
<path d="M85.2017 138.327C84.8369 140.7 86.7733 141.684 87.2153 139.125C87.5959 136.943 85.2666 136.29 85.2017 138.327Z" fill="#3A0219"/>
<path d="M81.4387 152.441C80.2969 154.558 81.786 156.133 83.0663 153.874C84.1573 151.948 82.1824 150.552 81.4387 152.441Z" fill="#3A0219"/>
<path d="M77.0605 169.775C75.3294 171.897 78.169 173.791 80.1176 171.538C81.7839 169.617 78.1076 167.847 77.0605 169.775Z" fill="#3A0219"/>
<path d="M128.267 115.574C125.631 123.498 121.781 131.544 116.069 137.816C113.054 141.119 108.807 143.281 104.808 145.011C101.76 146.322 95.0126 150.29 92.2362 149.327L91.8801 148.964C90.2314 152.835 89.7754 157.307 89.4141 161.515C89.5298 161.454 90.4401 160.929 90.5348 160.922C91.7082 160.831 95.6844 157.993 96.9034 157.327C99.2484 156.043 101.481 154.62 103.745 153.275C108.521 150.451 113.159 147.198 117.424 143.555C121.127 140.394 124.923 136.499 127.575 132.428C129.946 128.785 134.064 120.22 132.1 115.927C130.884 115.544 129.621 115.387 128.267 115.574Z" fill="#3A0219"/>
<path d="M59.336 95.4289C59.0659 98.1001 62.3475 100.875 63.991 102.736C66.108 105.139 68.1355 107.671 70.1753 110.087C74.3287 114.998 77.0122 119.967 78.589 126.193C81.39 124.949 88.2058 113.751 90.1124 109.341C92.5731 103.623 94.1113 93.8767 93.308 89.8496C88.9881 93.3171 81.7215 95.0816 76.2282 95.6201C70.4577 96.1936 64.9434 95.6306 59.336 95.4289Z" fill="#9E1557"/>
<path d="M63.6526 37.9324C64.3525 45.1464 66.2643 52.2919 68.0077 59.3287C69.602 65.7253 70.3229 73.4076 72.3539 79.6498L72.6977 79.5814C74.299 76.0209 74.8884 71.2274 75.7039 67.2162C78.1296 55.2841 76.7984 43.2503 82.297 32.397C87.7991 21.5313 93.9589 10.9709 99.112 0C95.0797 2.42394 91.2438 5.19691 87.5325 8.27683C81.506 13.3054 75.7916 18.4883 70.1983 24.0693C65.4855 28.7769 63.0195 31.4305 63.6526 37.9324Z" fill="#9E1557"/>
<path d="M94.1883 8.00673C94.6478 7.42267 95.1898 7.04381 95.7616 6.81755C96.9069 4.56198 98.0329 2.29064 99.1116 0C95.0793 2.42394 91.2434 5.19691 87.5321 8.27683C81.5055 13.3054 75.7912 18.4883 70.1979 24.0693C65.4851 28.7769 63.0208 31.4305 63.6522 37.9324C64.352 45.1464 66.2638 52.2919 68.0072 59.3287C69.6016 65.7253 70.3224 73.4076 72.3535 79.6498L72.6973 79.5814C72.7095 79.5534 72.7236 79.5306 72.7306 79.5025C72.8727 76.2051 73.234 72.8954 73.5339 69.6839C74.2898 61.5211 73.4181 53.6898 73.4567 45.5428C73.4918 38.1113 74.7459 31.3043 79.3324 25.2655C83.9365 19.2126 89.5017 13.9929 94.1883 8.00673Z" fill="#840D4C"/>
<path d="M98.3433 0.491211C94.5882 2.79764 90.9979 5.39521 87.5321 8.27694C81.5055 13.3055 75.7912 18.4884 70.1979 24.0694C65.4851 28.777 63.0208 31.4307 63.6522 37.9325C64.352 45.1465 66.2638 52.292 68.0072 59.3288C69.6016 65.7254 70.3224 73.4077 72.3535 79.6499L72.6973 79.5815C72.706 79.5675 72.7095 79.5588 72.7148 79.5465C72.7148 76.8612 70.8819 40.4109 71.2503 34.6176C71.594 29.1628 90.4576 12.7056 98.3433 0.491211Z" fill="#BA2D7E"/>
<path d="M73.2565 26.6713C69.6872 30.1651 67.5194 29.4618 63.9361 32.9346C63.8624 33.2222 63.787 33.5116 63.7344 33.8203C66.118 34.0536 68.5332 34.0992 70.908 34.3868C71.0448 34.3272 71.1834 34.2746 71.3202 34.2115C72.49 28.3831 90.6486 12.4223 98.3501 0.490234C98.315 0.504266 98.2817 0.527061 98.2466 0.549862C98.0993 0.804183 97.9292 1.04624 97.7134 1.28477C90.6468 8.94422 80.7178 19.3837 73.2565 26.6713Z" fill="#EF70C5"/>
<path d="M83.5222 38.3884C80.8633 45.1305 79.3075 52.369 77.6676 59.4251C76.1697 65.8445 73.3126 73.0146 72.2812 79.499L72.6198 79.5937C75.6646 77.154 78.3744 73.1514 80.9229 69.9558C88.5122 60.4301 92.8058 49.1084 102.642 41.9454C112.485 34.7753 122.775 28.1735 132.359 20.7578C127.669 21.0788 122.982 21.7962 118.275 22.8626C110.626 24.5849 103.179 26.5984 95.663 29.0241C89.3208 31.0692 85.9181 32.311 83.5222 38.3884Z" fill="#9E1557"/>
<path d="M83.5222 38.3886C80.8633 45.1307 79.3075 52.3692 77.6676 59.4253C76.1697 65.8447 73.3126 73.0148 72.2812 79.4991L72.6198 79.5939C72.6426 79.5816 72.6619 79.5588 72.6847 79.5377C74.3123 76.6595 76.1382 73.8813 77.8693 71.1645C82.2594 64.2417 85.0464 56.8716 88.7858 49.6384C92.2007 43.0313 96.4102 37.5432 103.249 34.258C110.103 30.9484 117.435 28.8384 124.333 25.6427C125.012 25.327 125.664 25.2463 126.273 25.2989C128.327 23.8116 130.358 22.3067 132.359 20.7598C127.669 21.0807 122.982 21.7981 118.275 22.8645C110.626 24.5868 103.179 26.6003 95.663 29.026C89.3208 31.0694 85.9181 32.3112 83.5222 38.3886Z" fill="#840D4C"/>
<path d="M83.5222 38.388C80.8633 45.1301 79.3075 52.3686 77.6676 59.4247C76.1697 65.8441 73.3126 73.0143 72.2812 79.4986L72.6198 79.5933C72.6285 79.588 72.6426 79.581 72.6513 79.5705C73.8756 77.1851 88.8297 43.8883 91.7938 38.8931C94.5896 34.1961 118.873 28.1257 131.449 20.8398C127.064 21.1819 122.682 21.8659 118.275 22.8622C110.626 24.5845 103.179 26.5981 95.663 29.0237C89.3208 31.0688 85.9181 32.3106 83.5222 38.388Z" fill="#BA2D7E"/>
<path d="M97.1948 32.7335C92.4276 34.2191 90.8175 32.6037 86.045 34.0682C85.8486 34.2927 85.6486 34.5155 85.4609 34.7645C87.4762 36.0519 89.602 37.199 91.591 38.5338C91.74 38.5478 91.8856 38.5565 92.0365 38.5653C95.7267 33.9051 119.163 27.9575 131.447 20.8418C131.409 20.8418 131.37 20.8488 131.332 20.8488C131.09 21.0084 130.825 21.1505 130.523 21.2557C120.743 24.8636 107.15 29.6308 97.1948 32.7335Z" fill="#EF70C5"/>
<path d="M37.5974 36.4162C29.7152 35.9461 21.9944 35.8619 14.156 36.1057C9.3327 36.2531 4.62163 36.7284 0 37.5948C11.1375 42.3778 22.7468 46.1961 34.072 50.6722C45.3849 55.143 52.3761 65.0352 62.1087 72.3474C65.3816 74.8081 69.007 78.0038 72.5622 79.6052L72.8674 79.4333C70.2435 73.412 65.6815 67.1855 62.6331 61.3449C59.2691 54.9237 55.9524 48.3044 51.6921 42.4427C47.8527 37.1599 44.2501 36.8126 37.5974 36.4162Z" fill="#9E1557"/>
<path d="M37.5974 36.4162C29.7152 35.9461 21.9944 35.8619 14.156 36.1057C9.3327 36.2531 4.62163 36.7284 0 37.5948C2.32397 38.5928 4.66898 39.5417 7.02628 40.4713C7.60507 40.2608 8.25754 40.1784 8.99419 40.3169C16.4712 41.6868 24.0991 41.8972 31.5639 43.374C39.0023 44.8526 44.4571 49.113 49.4084 54.6449C54.8474 60.7135 59.3919 67.1522 65.371 72.756C67.7283 74.9642 70.1891 77.1917 72.4885 79.5718C72.5148 79.5823 72.5394 79.6034 72.5657 79.6069L72.8709 79.435C70.247 73.4137 65.685 67.1873 62.6366 61.3466C59.2726 54.9255 55.9559 48.3061 51.6956 42.4444C47.8527 37.1598 44.2501 36.8126 37.5974 36.4162Z" fill="#840D4C"/>
<path d="M37.5918 36.4162C29.7096 35.9461 21.9888 35.8619 14.1504 36.1057C9.64102 36.2478 5.22812 36.6863 0.890625 37.4528C14.8923 41.357 39.9228 41.1483 43.806 45.0017C47.926 49.0954 70.7412 77.5863 72.5232 79.5946C72.5355 79.5999 72.5443 79.6069 72.5566 79.6069L72.8617 79.435C70.2378 73.4137 65.6758 67.1873 62.6275 61.3466C59.2635 54.9255 55.9468 48.3061 51.6864 42.4444C47.8471 37.1598 44.2445 36.8126 37.5918 36.4162Z" fill="#BA2D7E"/>
<path d="M1.89037 37.6197C1.57291 37.5881 1.28526 37.5197 1.00638 37.4268C0.97306 37.4373 0.929212 37.4408 0.890625 37.4548C14.5661 41.2644 38.7459 41.1592 43.4833 44.7407C43.6288 44.7056 43.7674 44.6512 43.9095 44.6091C45.502 42.8114 47.2718 41.1732 48.8994 39.421C48.6591 39.228 48.4048 39.0597 48.161 38.8913C43.1781 38.6685 42.0222 40.6347 37.0375 40.3892C26.6174 39.884 12.2632 38.6616 1.89037 37.6197Z" fill="#EF70C5"/>
<path d="M29.6488 64.5168C23.9467 67.5897 18.5166 70.859 13.153 74.4107C9.84508 76.5979 6.76166 78.9657 3.90625 81.558C13.7458 80.0935 23.503 77.7537 33.3444 75.991C43.1752 74.2301 52.3185 78.1133 62.2756 79.0236C65.6168 79.3235 69.5299 79.997 72.7027 79.5813L72.8413 79.3235C68.4126 76.2576 62.5422 73.874 57.8907 71.1151C52.771 68.0807 47.5986 64.8921 42.093 62.633C37.1311 60.6002 34.4651 61.9157 29.6488 64.5168Z" fill="#9E1557"/>
<path d="M29.6488 64.5162C23.9467 67.5891 18.5166 70.8585 13.153 74.4102C9.84508 76.5974 6.76166 78.9652 3.90625 81.5575C5.95836 81.2576 8.00696 80.9085 10.0556 80.535C10.3695 80.1386 10.7905 79.8001 11.3605 79.5826C17.1713 77.3095 22.5874 74.1611 28.4421 71.9757C34.2704 69.7938 39.9146 70.4147 45.7675 72.1389C52.1746 74.0366 58.1293 76.571 64.7223 77.9023C67.3252 78.4267 70.0052 78.9161 72.6343 79.5896C72.6554 79.5861 72.6799 79.5826 72.701 79.5826L72.8395 79.3247C68.4108 76.2588 62.5404 73.8753 57.889 71.1163C52.7692 68.082 47.5969 64.8933 42.0912 62.6343C37.1311 60.5997 34.4651 61.9151 29.6488 64.5162Z" fill="#840D4C"/>
<path d="M29.6448 64.5162C23.9427 67.5891 18.5125 70.8585 13.149 74.4102C10.0568 76.4588 7.16631 78.6688 4.46875 81.0717C15.9325 77.7567 33.3175 66.8086 37.6901 67.8259C42.3293 68.9046 70.5606 78.9511 72.6654 79.586C72.6777 79.5825 72.6864 79.5826 72.6987 79.5826L72.8373 79.3247C68.4086 76.2588 62.5381 73.8753 57.8867 71.1163C52.7669 68.082 47.5946 64.8933 42.089 62.6343C37.1271 60.5997 34.4611 61.9151 29.6448 64.5162Z" fill="#BA2D7E"/>
<path d="M30.9725 67.5304C23.4814 71.6662 12.9333 77.0122 5.24224 80.7569C5.00546 80.8726 4.77393 80.9498 4.54242 81.0077C4.52137 81.0305 4.49506 81.048 4.46875 81.0708C15.6624 77.8278 32.4984 67.3235 37.3551 67.783C37.441 67.6935 37.5147 67.5953 37.5919 67.5006C37.9321 65.566 38.4601 63.6577 38.8424 61.7266C38.5846 61.6916 38.3443 61.6916 38.0953 61.6758C34.5155 63.677 34.5628 65.5449 30.9725 67.5304Z" fill="#EF70C5"/>
<path d="M97.7838 55.4658C93.0254 59.0333 88.83 63.4286 84.6451 67.6591C80.8408 71.502 75.7596 75.2905 72.25 79.379L72.4464 79.5947C75.6263 79.1948 79.2412 77.5601 82.3983 76.4148C91.7941 73.0174 99.6641 66.9523 109.623 66.1718C119.587 65.3966 129.62 65.1966 139.508 64.1285C136.09 62.3359 132.508 60.824 128.758 59.5472C122.672 57.467 116.595 55.6727 110.3 54.1328C104.982 52.8419 102.072 52.2473 97.7838 55.4658Z" fill="#9E1557"/>
<path d="M97.7838 55.4655C93.0254 59.033 88.83 63.4283 84.6451 67.6588C80.8408 71.5017 75.7596 75.2902 72.25 79.3787L72.4464 79.5944C72.4728 79.5892 72.4938 79.5821 72.5166 79.5821C74.8914 78.2667 77.361 77.1108 79.7446 75.948C85.7869 72.9979 90.9031 69.0462 96.628 65.591C101.855 62.4409 107.159 60.4151 113.352 61.0535C119.562 61.6885 125.601 63.3635 131.8 64.0949C132.405 64.1633 132.899 64.3895 133.303 64.6894C135.378 64.5263 137.447 64.3474 139.51 64.1299C136.092 62.3374 132.51 60.8255 128.76 59.5486C122.674 57.4685 116.597 55.6742 110.302 54.1342C104.982 52.8416 102.072 52.247 97.7838 55.4655Z" fill="#840D4C"/>
<path d="M97.7838 55.4655C93.0254 59.033 88.83 63.4283 84.6451 67.6588C80.8408 71.5017 75.7596 75.2902 72.25 79.3787L72.4464 79.5944C72.4605 79.5944 72.4728 79.5892 72.4815 79.5857C74.3582 78.4438 99.1309 61.5937 103.353 59.375C107.322 57.2878 126.911 63.4897 138.837 63.7897C135.62 62.155 132.265 60.7448 128.757 59.5486C122.67 57.4685 116.593 55.6742 110.298 54.1342C104.982 52.8416 102.072 52.247 97.7838 55.4655Z" fill="#BA2D7E"/>
<path d="M109.772 57.3907C105.799 56.3787 105.37 54.5563 101.404 53.5303C101.169 53.6022 100.932 53.6671 100.695 53.7723C101.549 55.5368 102.547 57.2486 103.358 59.0359C103.461 59.1113 103.556 59.1833 103.658 59.2517C108.241 57.5854 127.19 63.4962 138.833 63.7908C138.807 63.7873 138.777 63.7698 138.749 63.7558C138.512 63.7558 138.266 63.7435 138.01 63.6926C129.625 62.0088 118.066 59.5007 109.772 57.3907Z" fill="#EF70C5"/>
<path d="M46.6167 98.0157C43.5754 104.991 42.1021 111.931 41.2812 119.331C42.5827 117.969 50.8806 98.9646 53.9219 96.2794C55.5285 94.8587 70.5913 83.1599 73.3748 79.2135C73.2941 79.0662 73.1977 78.9259 73.1135 78.7803C70.1669 79.1907 66.5853 81.8111 63.9948 83.0529C57.2982 86.2731 49.6879 90.9877 46.6167 98.0157Z" fill="#840D4C"/>
<path d="M41.3299 119.102C44.3326 111.022 47.3143 101.443 52.527 93.3962C48.3737 90.0724 40.616 87.0504 36.6784 83.3496C36.4118 92.9822 36.7135 106.598 41.3299 119.102Z" fill="#9E1557"/>
<path d="M55.3328 80.6219C49.736 81.1621 42.259 81.8145 36.6797 83.3475C38.5441 86.1695 41.9836 89.4722 44.4163 91.8348C48.1171 95.4268 49.1309 95.1708 53.3702 92.9521C56.9868 91.0631 68.9276 82.5196 72.4074 79.5958C72.8073 79.231 73.0423 79.0205 73.1756 78.8837C73.1493 78.8434 73.1248 78.7978 73.0985 78.7627C73.0178 78.7855 72.9266 78.81 72.8582 78.8012C67.1754 79.6238 61.0507 80.0676 55.3328 80.6219Z" fill="#BA2D7E"/>
<path d="M37.8546 84.5233C37.6617 84.4093 37.4723 84.3268 37.2969 84.2146C39.2332 86.8262 42.0553 89.8956 44.4144 91.8337C48.6273 95.2872 51.2003 95.5398 51.2003 95.5398C54.482 92.3932 64.9109 85.3652 69.8149 81.6416C67.7628 82.5642 57.5952 88.5223 54.2522 89.8272C47.1873 92.5809 44.1513 88.3153 37.8546 84.5233Z" fill="#EF70C5"/>
<path d="M104.113 88.8292C98.9881 83.1184 90.2833 81.033 82.9168 80.0841C80.0386 79.707 75.7712 78.3354 72.8439 78.9019C72.8404 79.0703 72.8351 79.2404 72.8281 79.4C76.7587 82.2835 94.6629 88.631 96.6308 89.4764C100.363 91.069 122.624 106.081 124.294 106.961C121.461 97.9076 109.186 94.4927 104.113 88.8292Z" fill="#840D4C"/>
<path d="M124.299 106.963C124.753 93.6433 113.905 78.342 108.939 71.7822C106.366 76.5372 99.9539 81.8358 97.0547 86.2943C104.533 92.2945 118.903 100.233 124.299 106.963Z" fill="#9E1557"/>
<path d="M72.8438 78.8644C72.8438 78.9013 72.8438 78.9416 72.8438 78.9802C72.9981 79.0609 73.2875 79.1942 73.8417 79.4433C78.067 81.127 92.0809 85.482 96.115 86.1433C100.835 86.9203 101.875 86.8396 104.264 82.2653C105.832 79.2573 108.052 75.0444 108.936 71.7803C103.164 72.0767 95.8589 73.8061 90.3779 75.0531C84.7723 76.3247 78.8194 77.8261 73.1682 78.8224C73.0788 78.868 72.9525 78.8644 72.8438 78.8644Z" fill="#BA2D7E"/>
<path d="M94.3013 83.4565C90.7145 83.2671 79.1912 80.7958 76.9531 80.5696C82.7815 82.569 94.8889 85.9629 98.9914 87.9203C98.9914 87.9203 101.354 86.8661 104.269 82.2638C105.897 79.6855 107.61 75.8813 108.627 72.7979C108.499 72.954 108.343 73.096 108.198 73.2714C103.417 78.8419 101.866 83.8512 94.3013 83.4565Z" fill="#EF70C5"/>
<path d="M83.0471 85.3438C79.0622 83.9213 75.0369 81.1168 72.6235 79.0664C71.5325 82.8602 68.5438 86.4207 65.6445 89.2147C61.7613 92.9664 58.741 94.5239 59.2321 95.8762C60.6669 99.8857 81.7422 95.2413 84.9817 94.1222C86.883 93.4557 94.46 91.9123 93.2357 89.5076C92.3921 87.8677 85.8429 86.3418 83.0471 85.3438Z" fill="#BA2D7E"/>
<path d="M83.2005 92.5524C79.9364 93.5925 76.618 94.1309 73.2153 94.4378C70.2091 94.7079 66.2154 95.2534 63.6423 93.3258C63.0284 92.8593 62.7794 92.3331 62.7654 91.7929C60.3993 93.7819 58.8751 94.8851 59.2312 95.8743C60.6659 99.8838 81.7412 95.2394 84.9808 94.1204C86.882 93.4539 94.459 91.9104 93.2348 89.5058C92.8401 88.7428 91.195 87.9991 89.2744 87.3291C89.413 88.0412 89.2621 88.8129 88.6535 89.6443C87.5204 91.1825 84.9018 92.0104 83.2005 92.5524Z" fill="#EF70C5"/>
<path opacity="0.6" d="M102.523 92.9044C110.439 97.847 123.057 106.304 124.304 106.962C124.449 102.607 123.381 98.0399 121.71 93.6375C115.336 92.5869 108.932 91.9502 102.523 92.9044Z" fill="#440228"/>
<path d="M122.756 127.791C122.528 129.156 124.131 130.685 124.915 131.699C125.929 133 126.89 134.366 127.862 135.682C129.842 138.336 131.061 140.975 131.675 144.232C133.154 143.68 137.019 138.141 138.14 135.931C139.592 133.072 140.696 128.107 140.408 126.011C138.075 127.652 134.283 128.328 131.44 128.433C128.455 128.538 125.638 128.075 122.756 127.791Z" fill="#9E1557"/>
<path d="M126.811 98.3533C126.939 102.086 127.695 105.827 128.371 109.5C128.985 112.836 129.109 116.819 129.956 120.092L130.137 120.064C131.068 118.285 131.529 115.837 132.073 113.802C133.704 107.742 133.404 101.51 136.577 96.1013C139.757 90.6869 143.265 85.4514 146.266 79.9756C144.114 81.0946 142.048 82.3942 140.043 83.8588C136.784 86.2564 133.675 88.7418 130.619 91.4306C128.044 93.7019 126.697 94.9875 126.811 98.3533Z" fill="#9E1557"/>
<path d="M126.811 98.3532C126.939 102.086 127.695 105.827 128.371 109.499C128.985 112.835 129.109 116.819 129.956 120.091L130.137 120.063C130.142 120.051 130.146 120.037 130.154 120.025C130.332 118.332 130.623 116.643 130.881 114.996C131.533 110.825 131.337 106.772 131.615 102.582C131.87 98.7601 132.736 95.2996 135.283 92.3389C137.847 89.3713 140.878 86.8631 143.483 83.934C143.737 83.6516 144.028 83.471 144.323 83.3728C144.989 82.2503 145.638 81.1172 146.268 79.9736C144.116 81.0926 142.05 82.3923 140.045 83.8569C136.786 86.2545 133.676 88.7398 130.621 91.4286C128.044 93.7017 126.697 94.9874 126.811 98.3532Z" fill="#840D4C"/>
<path d="M126.811 98.3527C126.939 102.085 127.695 105.826 128.371 109.499C128.985 112.835 129.109 116.818 129.956 120.091L130.137 120.063C130.142 120.059 130.142 120.051 130.146 120.045C130.232 118.667 130.454 99.8541 130.83 96.8882C131.182 94.0906 141.413 86.2312 145.857 80.2012C143.853 81.2658 141.923 82.4866 140.047 83.8564C136.788 86.254 133.678 88.7393 130.623 91.4281C128.044 93.7012 126.697 94.9869 126.811 98.3527Z" fill="#BA2D7E"/>
<path d="M132.113 92.8667C130.163 94.5488 129.072 94.1208 127.118 95.7906C127.07 95.9361 127.019 96.0817 126.984 96.2378C128.205 96.4343 129.442 96.5378 130.657 96.7623C130.729 96.7342 130.803 96.7114 130.876 96.6833C131.662 93.7227 141.514 86.093 145.857 80.2051C145.836 80.2156 145.818 80.2226 145.801 80.2331C145.72 80.3559 145.622 80.4822 145.504 80.5892C141.623 84.3058 136.186 89.3554 132.113 92.8667Z" fill="#EF70C5"/>
<path d="M137.03 99.227C135.444 102.612 134.418 106.28 133.345 109.861C132.369 113.115 130.673 116.712 129.93 120.015L130.102 120.074C131.747 118.915 133.273 116.94 134.685 115.376C138.894 110.724 141.462 105.034 146.753 101.667C152.045 98.2956 157.547 95.2227 162.72 91.7148C160.294 91.7324 157.861 91.9516 155.406 92.3498C151.415 92.9987 147.52 93.788 143.572 94.7948C140.246 95.6437 138.456 96.1769 137.03 99.227Z" fill="#9E1557"/>
<path d="M137.03 99.2268C135.444 102.612 134.418 106.279 133.345 109.861C132.369 113.114 130.673 116.712 129.93 120.014L130.102 120.074C130.114 120.065 130.128 120.053 130.14 120.044C131.068 118.615 132.094 117.243 133.071 115.903C135.553 112.481 137.224 108.78 139.38 105.181C141.346 101.891 143.688 99.2022 147.308 97.7324C150.942 96.2503 154.781 95.3962 158.428 93.9685C158.789 93.8317 159.133 93.8106 159.441 93.858C160.541 93.1582 161.636 92.4478 162.718 91.7129C160.292 91.7304 157.859 91.9497 155.404 92.3478C151.414 92.9968 147.518 93.7861 143.57 94.7928C140.246 95.6435 138.456 96.1767 137.03 99.2268Z" fill="#840D4C"/>
<path d="M137.03 99.226C135.444 102.611 134.418 106.279 133.345 109.86C132.369 113.114 130.673 116.711 129.93 120.014L130.102 120.073C130.11 120.07 130.114 120.065 130.119 120.061C130.824 118.872 139.585 102.223 141.269 99.7487C142.858 97.4212 155.546 95.0762 162.246 91.7314C159.975 91.7665 157.702 91.977 155.404 92.3488C151.414 92.9978 147.518 93.7871 143.57 94.7938C140.246 95.6427 138.456 96.1759 137.03 99.226Z" fill="#BA2D7E"/>
<path d="M144.247 96.7479C141.748 97.3635 140.971 96.4831 138.471 97.0794C138.361 97.1917 138.254 97.2986 138.148 97.4179C139.139 98.1475 140.197 98.8053 141.177 99.5577C141.255 99.5665 141.332 99.5805 141.409 99.5875C143.456 97.3074 155.702 94.9957 162.248 91.7334C162.227 91.7334 162.209 91.7369 162.188 91.7334C162.058 91.8018 161.918 91.8667 161.758 91.9228C156.612 93.4575 149.465 95.4763 144.247 96.7479Z" fill="#EF70C5"/>
<path d="M113.452 96.7351C109.415 96.2457 105.447 95.9599 101.41 95.8301C98.9225 95.7512 96.4775 95.8476 94.0781 96.144C99.6539 98.9626 105.503 101.297 111.184 103.96C116.862 106.627 120.143 111.931 124.916 116.007C126.517 117.377 128.282 119.138 130.057 120.073L130.225 119.996C129.064 116.814 126.917 113.464 125.535 110.363C124.014 106.954 122.52 103.444 120.519 100.292C118.705 97.449 116.864 97.156 113.452 96.7351Z" fill="#9E1557"/>
<path d="M113.452 96.7351C109.415 96.2457 105.447 95.9599 101.41 95.8301C98.9225 95.7512 96.4775 95.8476 94.0781 96.144C95.2375 96.7316 96.4144 97.2946 97.6035 97.8489C97.9035 97.7577 98.2437 97.7401 98.6173 97.8295C102.42 98.7767 106.335 99.1275 110.128 100.131C113.908 101.125 116.579 103.493 118.949 106.494C121.547 109.793 123.681 113.247 126.577 116.323C127.719 117.532 128.913 118.763 130.022 120.059C130.034 120.064 130.043 120.073 130.057 120.077L130.225 119.999C129.064 116.818 126.917 113.468 125.535 110.367C124.014 106.957 122.52 103.447 120.519 100.296C118.705 97.4489 116.864 97.156 113.452 96.7351Z" fill="#840D4C"/>
<path d="M113.453 96.7361C109.415 96.2467 105.448 95.9609 101.41 95.8311C99.0826 95.7574 96.8024 95.8434 94.5469 96.0959C101.621 98.5514 114.505 99.253 116.373 101.358C118.365 103.592 129.189 118.98 130.043 120.071C130.048 120.071 130.052 120.074 130.057 120.074L130.225 119.997C129.064 116.815 126.918 113.465 125.535 110.364C124.015 106.955 122.52 103.445 120.519 100.293C118.706 97.45 116.864 97.157 113.453 96.7361Z" fill="#BA2D7E"/>
<path d="M113.044 98.7677C107.7 98.1696 100.356 97.0874 95.052 96.2157C94.8924 96.1947 94.7433 96.1438 94.6065 96.0859C94.5855 96.093 94.5679 96.0965 94.5469 96.0965C101.456 98.4959 113.9 99.2185 116.219 101.214C116.296 101.193 116.369 101.178 116.447 101.157C117.318 100.28 118.285 99.4991 119.179 98.6484C119.058 98.5397 118.939 98.445 118.814 98.3503C116.255 98.0749 115.599 99.0553 113.044 98.7677Z" fill="#EF70C5"/>
<path d="M108.467 110.935C105.435 112.337 102.541 113.84 99.6661 115.499C97.8911 116.52 96.2354 117.639 94.6797 118.882C99.7889 118.444 104.884 117.546 109.999 116.958C115.113 116.371 119.693 118.654 124.783 119.445C126.496 119.709 128.485 120.18 130.134 120.065L130.207 119.937C128.031 118.218 125.088 116.806 122.781 115.243C120.249 113.51 117.688 111.707 114.925 110.372C112.44 109.166 111.026 109.753 108.467 110.935Z" fill="#9E1557"/>
<path d="M108.467 110.936C105.435 112.337 102.541 113.84 99.6661 115.5C97.8911 116.52 96.2354 117.639 94.6797 118.883C95.7426 118.79 96.809 118.683 97.8736 118.553C98.049 118.36 98.277 118.195 98.5787 118.101C101.641 117.117 104.526 115.678 107.606 114.735C110.677 113.802 113.561 114.303 116.511 115.373C119.754 116.554 122.734 118.048 126.08 118.943C127.399 119.299 128.766 119.635 130.097 120.069C130.106 120.063 130.118 120.063 130.136 120.063L130.209 119.935C128.033 118.216 125.089 116.804 122.783 115.242C120.25 113.509 117.69 111.706 114.927 110.371C112.44 109.166 111.026 109.754 108.467 110.936Z" fill="#840D4C"/>
<path d="M108.467 110.935C105.434 112.337 102.54 113.84 99.6656 115.499C98.0064 116.457 96.4524 117.5 94.9844 118.647C100.993 117.311 110.284 112.239 112.499 112.902C114.853 113.605 129.049 119.673 130.112 120.065C130.118 120.065 130.125 120.065 130.133 120.065L130.207 119.937C128.03 118.218 125.087 116.806 122.781 115.243C120.248 113.51 117.687 111.707 114.925 110.372C112.44 109.166 111.026 109.753 108.467 110.935Z" fill="#BA2D7E"/>
<path d="M95.3966 118.515C95.2668 118.566 95.1475 118.598 95.0265 118.619C95.0142 118.629 95.0002 118.64 94.9844 118.65C100.848 117.345 109.845 112.482 112.327 112.869C112.375 112.826 112.417 112.773 112.461 112.736C112.697 111.745 113.027 110.788 113.287 109.797C113.157 109.779 113.032 109.767 112.908 109.751C111.001 110.667 110.963 111.628 109.054 112.534C105.07 114.422 99.4727 116.837 95.3966 118.515Z" fill="#EF70C5"/>
<path d="M143.812 108.467C141.248 110.146 138.95 112.273 136.661 114.317C134.583 116.172 131.847 117.96 129.914 119.949L130.007 120.064C131.652 119.966 133.564 119.231 135.227 118.751C140.169 117.304 144.409 114.434 149.558 114.348C154.708 114.266 159.877 114.49 165 114.254C163.295 113.222 161.504 112.333 159.614 111.554C156.549 110.29 153.48 109.172 150.29 108.18C147.596 107.341 146.119 106.947 143.812 108.467Z" fill="#9E1557"/>
<path d="M143.812 108.467C141.248 110.145 138.95 112.273 136.661 114.316C134.583 116.172 131.847 117.959 129.914 119.948L130.007 120.064C130.021 120.061 130.03 120.061 130.042 120.061C131.307 119.459 132.615 118.943 133.874 118.421C137.079 117.098 139.84 115.23 142.895 113.632C145.682 112.185 148.478 111.305 151.644 111.838C154.816 112.362 157.872 113.422 161.032 113.99C161.341 114.046 161.59 114.178 161.788 114.351C162.858 114.33 163.932 114.304 165.002 114.257C163.297 113.225 161.506 112.336 159.615 111.557C156.551 110.293 153.482 109.176 150.291 108.183C147.596 107.341 146.119 106.946 143.812 108.467Z" fill="#840D4C"/>
<path d="M143.812 108.467C141.248 110.146 138.95 112.273 136.661 114.317C134.583 116.172 131.847 117.96 129.914 119.949L130.007 120.064C130.012 120.064 130.021 120.061 130.021 120.061C131.026 119.531 144.31 111.66 146.548 110.655C148.662 109.706 158.54 113.521 164.665 114.064C163.063 113.112 161.378 112.277 159.614 111.554C156.549 110.29 153.48 109.172 150.29 108.18C147.596 107.341 146.119 106.947 143.812 108.467Z" fill="#BA2D7E"/>
<path d="M149.913 109.838C147.903 109.189 147.74 108.236 145.736 107.582C145.611 107.614 145.49 107.638 145.367 107.684C145.75 108.615 146.204 109.534 146.565 110.478C146.612 110.522 146.663 110.565 146.711 110.599C149.124 109.887 158.681 113.533 164.664 114.065C164.648 114.056 164.634 114.044 164.62 114.038C164.496 114.035 164.371 114.012 164.238 113.979C159.981 112.849 154.114 111.188 149.913 109.838Z" fill="#EF70C5"/>
<path d="M116.123 128.713C114.335 132.2 113.357 135.727 112.695 139.507C113.413 138.851 118.287 129.341 119.936 128.057C120.807 127.373 128.93 121.838 130.489 119.898C130.452 119.819 130.408 119.745 130.364 119.67C128.84 119.786 126.911 121.017 125.538 121.576C121.995 123.015 117.926 125.197 116.123 128.713Z" fill="#840D4C"/>
<path d="M112.736 139.391C114.54 135.329 116.379 130.499 119.316 126.524C117.285 124.679 113.393 122.881 111.487 120.847C111.04 125.795 110.761 132.812 112.736 139.391Z" fill="#9E1557"/>
<path d="M121.158 120.044C118.264 120.144 114.399 120.246 111.477 120.847C112.348 122.363 114.011 124.171 115.183 125.464C116.973 127.43 117.501 127.332 119.752 126.323C121.676 125.469 128.088 121.456 129.974 120.065C130.188 119.888 130.321 119.792 130.389 119.72C130.381 119.702 130.363 119.676 130.356 119.658C130.312 119.667 130.261 119.676 130.226 119.672C127.281 119.914 124.117 119.946 121.158 120.044Z" fill="#BA2D7E"/>
<path d="M112.057 121.497C111.962 121.432 111.867 121.381 111.781 121.314C112.692 122.723 114.049 124.394 115.196 125.462C117.254 127.374 118.573 127.588 118.573 127.588C120.36 126.069 125.946 122.796 128.589 121.037C127.507 121.444 122.086 124.184 120.321 124.745C116.601 125.941 115.175 123.642 112.057 121.497Z" fill="#EF70C5"/>
<path d="M146 125.831C143.548 122.726 139.137 121.376 135.378 120.651C133.914 120.373 131.758 119.529 130.232 119.727C130.228 119.81 130.22 119.901 130.211 119.981C132.139 121.593 141.145 125.427 142.132 125.922C143.997 126.862 154.97 135.299 155.799 135.8C154.633 131.056 148.431 128.9 146 125.831Z" fill="#840D4C"/>
<path d="M142.445 124.297C146.097 127.624 153.234 132.168 155.795 135.799C156.458 128.964 151.366 120.75 149.021 117.216C147.549 119.577 144.078 122.099 142.445 124.297Z" fill="#9E1557"/>
<path d="M130.247 119.7C130.242 119.725 130.242 119.74 130.242 119.761C130.316 119.805 130.461 119.883 130.737 120.028C132.863 121.028 139.929 123.718 141.985 124.19C144.386 124.741 144.923 124.732 146.298 122.456C147.199 120.959 148.48 118.86 149.037 117.213C146.056 117.181 142.243 117.834 139.384 118.299C136.463 118.776 133.354 119.36 130.411 119.69C130.367 119.711 130.3 119.704 130.247 119.7Z" fill="#BA2D7E"/>
<path d="M141.123 122.751C139.286 122.541 133.44 120.902 132.297 120.715C135.226 121.928 141.347 124.059 143.396 125.2C143.396 125.2 144.641 124.729 146.292 122.458C147.211 121.187 148.216 119.282 148.842 117.729C148.766 117.803 148.684 117.872 148.601 117.958C145.958 120.667 145.006 123.197 141.123 122.751Z" fill="#EF70C5"/>
<path d="M135.268 123.363C133.267 122.5 131.283 120.932 130.106 119.799C129.428 121.714 127.774 123.449 126.195 124.794C124.078 126.597 122.475 127.307 122.682 128.016C123.292 130.124 134.288 128.414 135.984 127.934C136.984 127.658 140.932 127.104 140.378 125.834C139.995 124.957 136.671 123.959 135.268 123.363Z" fill="#BA2D7E"/>
<path d="M138.416 124.582C138.458 124.952 138.355 125.347 138.014 125.75C137.388 126.508 136.013 126.852 135.12 127.078C133.405 127.504 131.679 127.674 129.923 127.725C128.368 127.764 126.298 127.923 125.035 126.841C124.73 126.59 124.623 126.308 124.632 126.029C123.353 126.98 122.532 127.497 122.681 128.014C123.292 130.123 134.287 128.413 135.983 127.932C136.983 127.657 140.931 127.102 140.377 125.833C140.202 125.424 139.377 124.985 138.416 124.582Z" fill="#EF70C5"/>
</svg>
