<svg width="201" height="207" viewBox="0 0 201 207" fill="none" xmlns="http://www.w3.org/2000/svg">
<path d="M186.506 56.4331C185.59 56.1802 184.64 55.9741 183.668 55.8115C183.572 48.8729 180.477 42.3642 174.223 38.7573C171 36.9027 167.26 36.0828 163.581 35.9102C161.357 35.8066 159.204 36.0728 157.083 36.5072C156.242 32.6319 154.796 28.888 152.644 25.5506C147.41 17.4469 137.489 13.6751 128.142 14.916C119.073 16.1191 110.478 20.8199 104.282 27.5123C99.8867 27.1236 95.4622 27.431 91.4331 28.3756C72.1968 32.8803 59.7609 55.3693 67.8269 73.6343C64.5653 78.1011 62.8789 83.6651 62.7196 89.2882C62.47 98.3489 67.6587 105.915 75.1398 110.631C77.2273 111.943 79.4061 112.94 81.6417 113.632C81.6584 113.752 81.6662 113.878 81.6829 114.007C82.8258 122.311 87.9198 129.161 95.9879 131.699C103.314 134.001 111.477 133.036 118.444 129.835C123.499 133.456 130.133 134.072 135.996 131.997C139.082 130.905 141.824 129.086 144.223 126.856C144.975 127.856 145.837 128.763 146.837 129.52C154.878 135.632 166.708 133.571 174.17 127.643C180.905 122.294 184.881 113.632 185.415 105.098C185.895 104.774 186.366 104.448 186.83 104.11C194.914 98.1952 199.832 88.6143 200.361 78.6458C200.869 69.0561 196.229 59.1209 186.506 56.4331Z" fill="#008A3B"/>
<path d="M172.577 61.9684C171.95 61.7936 171.298 61.651 170.634 61.5385C170.573 56.7921 168.452 52.342 164.175 49.8757C161.968 48.6059 159.413 48.0433 156.893 47.9241C155.371 47.854 153.899 48.0366 152.447 48.334C151.872 45.6818 150.886 43.1209 149.411 40.8396C145.831 35.2934 139.042 32.7135 132.65 33.5634C132.41 33.5935 132.175 33.6381 131.933 33.6748C131.605 33.2671 131.266 32.875 130.916 32.5319C128.703 30.3498 125.715 29.2592 122.674 28.9295C122.878 27.6351 122.98 26.3363 122.966 25.0508C122.939 22.1001 122.153 19.2418 120.761 16.7388C116.308 17.8092 112.803 20.9015 109.835 24.4538C109.251 33.2092 107.994 41.9569 107.456 50.6967C106.751 62.2057 106.276 73.8596 104.226 85.2272C103.102 91.4674 101.8 97.6017 101.021 103.9C100.388 109.019 99.4457 113.934 97.2602 118.644C95.5102 122.422 93.7323 125.912 92.6562 129.771C93.2656 129.487 93.8638 129.177 94.4341 128.813C100.428 125.015 103.374 117.682 103.276 110.815C103.263 109.65 103.143 108.5 102.939 107.366C104.639 110.21 107.258 112.392 110.651 113.46C115.663 115.038 121.249 114.376 126.012 112.187C129.472 114.659 134.013 115.085 138.02 113.665C140.134 112.916 142.009 111.675 143.648 110.15C144.162 110.831 144.755 111.452 145.435 111.971C150.938 116.151 159.029 114.739 164.136 110.687C168.745 107.028 171.465 101.101 171.827 95.2614C172.157 95.0419 172.478 94.8169 172.795 94.5841C178.326 90.5384 181.692 83.9862 182.055 77.1657C182.403 70.6036 179.23 63.8064 172.577 61.9684Z" fill="#066D2D"/>
<path d="M97.0232 110.814C96.9719 107.019 95.946 103.309 93.7505 100.202C92.8783 98.9618 91.8489 97.8511 90.7183 96.8531C91.5805 95.2702 92.1453 93.5224 92.5051 91.7702C93.2302 88.2514 93.0977 84.5854 92.2345 81.1156C90.4756 74.0444 85.1276 67.6293 78.2859 65.0339C74.9252 63.7629 70.9161 63.0321 67.3193 63.3173C63.4239 63.6281 59.3113 65.0305 55.7701 66.6134C54.0669 67.3753 52.4952 68.4002 51.075 69.6132C46.176 66.8975 39.9502 65.8326 34.8362 68.0203C29.4471 70.3206 25.2642 76.1152 24.4266 81.9845C22.8025 81.9878 21.1751 82.1437 19.5978 82.4222C15.9263 83.0738 12.5009 85.1948 9.6526 87.4995C6.63387 89.939 3.80004 93.0112 1.96875 96.4454C-1.88654 103.686 0.471625 112.968 4.3102 119.688C6.39881 123.344 9.2349 127.042 12.6079 129.591C15.7257 131.946 19.5198 133.306 23.306 134.102C28.2362 135.144 33.788 135.179 39.0569 134.085C42.3151 137.185 46.9668 138.72 51.476 138.743C58.5416 138.78 65.2474 134.713 69.0225 128.856C69.2754 128.462 69.5104 128.06 69.731 127.655C74.6957 132.162 82.531 132.392 88.1775 128.813C94.1726 125.014 97.1212 117.681 97.0232 110.814Z" fill="#56AF35"/>
<path d="M124.665 35.983C122.454 33.7986 119.464 32.7103 116.426 32.3839C116.63 31.085 116.726 29.7862 116.716 28.5019C116.652 21.7582 112.638 15.5224 106.459 12.8022C101.021 10.4117 94.6229 11.06 89.4755 13.866C89.0399 12.8111 88.5007 11.8041 87.8357 10.9041C83.6051 5.15066 75.782 3.2815 69.0015 3.46307C56.7194 3.79391 44.2301 12.8568 40.5631 24.7301C36.8359 25.6134 33.3961 27.4792 30.8296 30.3665C28.9983 32.4273 27.4756 35.6053 26.8797 38.8301C24.0492 39.4038 21.3368 40.5846 18.9084 42.1096C13.1416 45.7276 9.04015 51.7294 7.35255 58.2759C5.548 65.2959 6.68531 73.6124 11.3705 79.3101C16.0723 85.0279 23.5323 89.0257 30.9599 89.3287C32.5016 89.3922 34.0266 89.3109 35.5281 89.1026C35.5415 89.4401 35.5604 89.7732 35.5861 90.1074C35.8489 93.9972 36.9239 97.9794 39.4235 101.043C46.4791 109.698 60.5992 112.633 70.3494 106.867C73.4071 105.058 75.7764 102.247 77.5831 99.2304C78.5545 97.6219 79.4178 95.8274 80.016 93.9593C79.9469 94.1721 89.3529 93.1729 90.2629 92.9367C93.5791 92.0712 96.7516 90.7256 99.8628 89.3042C114.589 82.5917 132.929 70.6583 131.34 51.9811C130.914 46.9852 128.319 39.5787 124.665 35.983Z" fill="#849412"/>
<path d="M124.665 32.5318C122.454 30.3496 119.464 29.2591 116.426 28.9294C116.63 27.635 116.726 26.3362 116.716 25.0507C116.652 18.3081 112.638 12.069 106.459 9.35216C101.021 6.96057 94.6229 7.60558 89.4755 10.4149C89.0399 9.35555 88.5007 8.35414 87.8357 7.45297C83.6051 1.69845 75.782 -0.169661 69.0015 0.0119081C56.7194 0.339402 44.2301 9.40564 40.5631 21.2801C36.8359 22.1589 33.3961 24.0292 30.8296 26.9154C28.9983 28.9773 27.4756 32.1542 26.8797 35.379C24.0492 35.956 21.3368 37.1335 18.9084 38.6573C13.1416 42.2775 9.04015 48.2782 7.35255 54.8248C5.548 61.8447 6.68531 70.1623 11.3705 75.86C16.0723 81.5778 23.5323 85.5746 30.9599 85.8776C32.5016 85.9422 34.0266 85.8609 35.5281 85.6515C35.5415 85.9856 35.5604 86.3243 35.5861 86.6551C35.8489 90.5438 36.9239 94.525 39.4235 97.5916C46.4791 106.247 60.5992 109.18 70.3494 103.416C73.4071 101.608 75.7764 98.7957 77.5831 95.7803C78.5545 94.1718 79.4178 92.3751 80.016 90.5082C79.9469 90.7209 89.3529 89.7217 90.2629 89.4867C93.5791 88.6201 96.7516 87.2733 99.8628 85.852C114.589 79.1406 132.929 67.206 131.34 48.53C130.914 43.5318 128.319 36.1264 124.665 32.5318Z" fill="#CDD500"/>
<path d="M166.326 61.9682C165.7 61.7933 165.049 61.6507 164.383 61.5382C164.319 56.7918 162.201 52.3417 157.926 49.8755C155.721 48.6056 153.161 48.0431 150.642 47.9239C149.121 47.8537 147.65 48.0364 146.197 48.3338C145.624 45.6815 144.636 43.1207 143.162 40.8393C139.582 35.2931 132.791 32.7132 126.396 33.5632C120.194 34.3863 114.313 37.6011 110.074 42.1805C107.071 41.9143 104.041 42.1237 101.283 42.7675C88.1218 45.8542 79.6192 61.2386 85.1331 73.7368C82.9041 76.7878 81.7479 80.5975 81.6388 84.445C81.4672 90.6417 85.0183 95.8192 90.1368 99.0429C91.5659 99.9407 93.0576 100.626 94.5836 101.097C94.5937 101.181 94.6025 101.266 94.6148 101.352C95.3923 107.036 98.8778 111.723 104.4 113.456C109.413 115.034 114.997 114.373 119.759 112.184C123.217 114.656 127.757 115.081 131.767 113.661C133.882 112.912 135.759 111.671 137.398 110.147C137.912 110.827 138.505 111.449 139.185 111.968C144.686 116.147 152.779 114.736 157.886 110.683C162.494 107.024 165.215 101.097 165.575 95.2578C165.906 95.0383 166.227 94.8134 166.543 94.5806C172.076 90.5348 175.441 83.9827 175.803 77.1621C176.153 70.6033 172.979 63.8062 166.326 61.9682Z" fill="#ABBD00"/>
<path d="M125.627 113.799L125.481 108.059C125.481 108.059 101.371 134.689 101.061 131.42C100.75 128.155 103.333 112.08 106.763 105.852C112.363 95.689 122.598 86.566 122.598 86.566L120.647 84.6166L103.772 100.55L102.215 94.0939C103.561 91.338 106.197 85.1469 108.217 75.4557L106.37 73.9497C106.37 73.9497 103.973 80.514 100.519 87.0851L98.2318 77.5989H94.4344L100.188 103.909L92.3636 123.151C92.3636 123.151 88.4816 115.056 81.6143 105.473C81.5363 101.328 81.1854 90.6997 79.5702 80.4928C78.5442 80.4594 77.5217 80.3636 76.5169 80.1821C76.9079 84.9185 77.0839 91.2511 76.4301 98.7244C74.7703 96.7138 73.0025 94.7065 71.1233 92.7549L68.3942 94.2966C68.3942 94.2966 72.8176 100.349 77.5161 107.917C70.3179 107.185 62.7188 106.894 62.7188 106.894V110.902C68.6114 112.274 76.6863 113.456 81.1687 114.063C84.8803 120.626 88.0573 127.417 88.4482 131.981C89.443 143.598 88.4482 207 88.4482 207H103.775C103.775 207 101.654 152.911 103.259 143.483C105.334 131.321 125.627 113.799 125.627 113.799Z" fill="#8B513D"/>
<path d="M125.622 113.799L125.476 108.059C125.476 108.059 101.366 134.689 101.057 131.42C100.746 128.155 103.329 112.08 106.759 105.852C112.358 95.689 122.593 86.566 122.593 86.566L120.643 84.6166L103.768 100.55L102.21 94.0939C103.556 91.338 106.193 85.1468 108.212 75.4557L106.365 73.9497C106.365 73.9497 103.968 80.514 100.514 87.0851L98.2271 77.5989H94.4297L100.183 103.909L96.6665 112.56V206.999H103.769C103.769 206.999 101.648 152.91 103.253 143.482C105.329 131.321 125.622 113.799 125.622 113.799Z" fill="#6E412F"/>
</svg>
