<svg width="307" height="177" viewBox="0 0 307 177" fill="none" xmlns="http://www.w3.org/2000/svg">
<path d="M151.102 27.0791V30.8358L149.661 37.8124L143.119 50.0791V54.7711L142.506 59.9691L135.611 82.5398L134.155 83.4138L133.481 76.7284L132.898 65.6731L133.802 54.4338L138.384 44.0071H138.369L151.102 27.0791Z" fill="#A57C54"/>
<path d="M128.375 67.3903L131.026 90.1603L130.413 92.0003L128.543 87.477L123.701 84.3643L122.43 74.2903L119.947 69.6903L119.258 60.797L120.79 60.6437L129.386 56.9023L128.375 67.3903Z" fill="#A57C54"/>
<path d="M105.118 83.0605L113.055 100.771L109.133 102.718L106.405 100.771V103.147L104.459 102.212L103.693 104.098L101.64 105.539L100.031 104.512L106.329 94.2999L105.118 83.0605Z" fill="#A88C4E"/>
<path d="M148.202 140.376L157.595 176.164H37.3125L53.202 152.643L60.8633 134.412L68.0189 115L73.4585 113.804L85.7165 100.172L88.6125 88.0742L92.4738 99.9116L94.0673 104.772L102.066 112.27L104.962 118.404H108.7L124.023 129.812L125.555 137.31L133.385 143.106L139.514 139.012L148.202 140.376Z" fill="#4F5B56"/>
<path d="M167.353 32.2771L171.613 36.4478L176.118 44.7278V44.7431L175.949 48.8984C175.949 48.8984 176.041 58.0984 173.222 68.9084C170.418 79.7338 160.627 97.0144 160.627 97.0144L152.797 105.54L154.59 97.4438V85.5144L151.265 85.7751L149.472 83.9044L146.76 87.4771L142.5 59.9691L143.113 54.7711V50.0791L149.656 37.8124L151.096 30.8358V27.0791L153.394 28.1064L155.218 28.7811L157.056 29.4711L157.731 28.0144L161.393 29.0418L162.159 27.0791L166.679 29.2104L167.353 32.2771Z" fill="#A88C4E"/>
<path d="M179.615 56.9792L185.407 64.5692L189.911 66.1792L190.938 72.7418L198.002 77.5105L200.898 87.2318L208.391 88.0752L212.987 85.9438L222.778 88.0752L263.812 176.165H193.083L189.069 119.938L190.938 104.267L183.874 114.648L180.81 116.702L176.979 111.336L175.447 113.544C175.447 113.544 174.344 102.381 174.344 98.9772C174.344 95.5732 176.979 58.5125 176.979 58.5125L176.121 44.7432L177.316 46.9358L179.615 56.9792Z" fill="#A57C54"/>
<path d="M138.381 44.0068L133.799 54.4335L132.895 65.6728L133.477 76.7282L134.152 83.4135L133.048 84.0728L131.026 90.1602L128.375 67.3902L129.386 56.9022L133.477 50.5082L138.365 44.0068H138.381Z" fill="#A88C4E"/>
<path d="M114.064 61.333L119.258 60.7963L119.948 69.6897L122.43 74.2897L123.702 84.3637L121.649 83.045L120.193 86.541L119.013 86.1117L114.861 96.3237L116.286 81.6037L112.286 63.8017L109.222 58.527L105.82 43.0557L109.82 50.247L114.064 61.333Z" fill="#A88C4E"/>
<path d="M95.8473 38.7471V49.5724L93.2578 58.5271L93.7635 44.7271L94.1465 44.2057L95.8473 38.7471Z" fill="#D0A754"/>
<path d="M114.86 96.3237L113.051 100.77L105.114 83.0604L104.103 73.7684C104.103 73.7684 104.44 58.8644 104.103 58.5271C103.766 58.1897 104.103 53.6664 104.103 53.6664L101.805 49.4804V38.7471H103.429L105.819 43.0557L109.221 58.5271L112.285 63.8017L116.285 81.6037L114.86 96.3237Z" fill="#69645C"/>
<path d="M155.51 26.128L155.219 28.7807L153.396 28.106L151.097 27.0787L138.364 44.0067L133.476 50.508L129.385 56.902L120.789 60.6433L143.773 23L146.592 15.8393L150.668 13.8L156.797 0L157.671 9.12333L156.782 25.7447L155.51 26.128Z" fill="#D0A754"/>
<path d="M207.121 73.2473L212.99 85.9433L208.393 88.0747L200.9 87.2313L198.004 77.51L190.941 72.7413L189.914 66.1787L185.409 64.5687L179.617 56.9787L177.319 46.9353L176.124 44.7427V44.7273L171.619 36.4473L167.359 32.2767L166.685 29.21L166.164 26.6953L167.773 24.5947L167.313 23.4447L169.903 19.09L168.279 13.0947L168.784 3.25066L171.527 0L175.879 7.91201C175.879 7.91201 175.572 12.558 175.879 12.8647C176.17 13.156 179.449 21.8807 179.449 21.8807L180.215 33.304L192.212 54.602L207.121 73.2473Z" fill="#69645C"/>
<path d="M93.7618 44.7275L93.2562 58.5275L92.1989 62.1769L88.6135 88.0749L85.7175 100.173L73.4594 113.804L68.0199 115L60.8643 134.412L53.203 152.644L37.3135 176.165H4.50781L19.1562 154.008L22.7264 149.408H25.9594L26.986 146.173L43.6723 127.942L53.5401 112.271L65.2925 97.1062L71.253 93.3649L86.7441 65.5809L91.8465 47.3649L93.7618 44.7275Z" fill="#D0A754"/>
<path d="M176.123 44.7432L176.981 58.5125C176.981 58.5125 174.345 95.5732 174.345 98.9772C174.345 102.381 175.448 113.544 175.448 113.544L176.981 111.336L180.811 116.702L183.876 114.648L190.939 104.267L189.07 119.938L193.085 176.165H157.598L148.205 140.377L139.517 139.012L133.388 143.106L125.558 137.31L124.026 129.812L108.703 118.404H104.964L102.069 112.271L94.0701 104.773L92.4766 99.9125L97.1346 102.642L100.031 104.512L101.639 105.54L103.693 104.098L104.459 102.212L106.405 103.148V100.771L109.132 102.718L113.055 100.771L114.863 96.3245L119.015 86.1125L120.195 86.5418L121.651 83.0458L123.704 84.3645L128.546 87.4772L130.415 92.0005L131.028 90.1605L133.051 84.0732L134.154 83.4138L135.61 82.5398L142.505 59.9692L146.764 87.4772L149.477 83.9045L151.269 85.7752L154.594 85.5145V97.4438L152.802 105.54L160.631 97.0145C160.631 97.0145 170.423 79.7338 173.227 68.9085C176.046 58.0985 175.954 48.8985 175.954 48.8985L176.123 44.7432Z" fill="#69645C"/>
<path d="M165.122 110.797L163.53 117.648C163.53 117.648 156.828 135.365 156.331 137.029C155.835 138.691 154.742 144.306 154.742 144.306L155.814 143.452L156.901 146.634L158.699 146.079L163.666 142.042L160.464 149.423L153.829 170.451L136.876 172.287L137.517 153.43L133.472 151.492L129.88 152.596L126.901 148.618L127.248 144.731L121.43 136.917L119.603 136.37L119.084 132.95L116.272 128.117L116.203 125.509L118.08 127.524L119.222 128.861L119.858 129.599L121.071 129.195L121.721 128.386L122.534 129.128L122.882 127.967L123.93 129.318L126.131 128.941L127.663 127.033L131.182 122.653L131.696 123.034L132.917 121.539L133.728 122.484L135.638 124.713L135.891 127.196L136.46 126.386L138.337 123.709L138.972 123.548L139.811 123.333L146.476 113.316L144.538 127.377L146.384 126.027L146.986 127.204L148.649 127.562L146.907 133.389L144.849 137.081L149.919 134.062C149.919 134.062 157.226 127.053 160.177 122.176C163.133 117.307 164.432 112.799 164.432 112.799L165.122 110.797Z" fill="#4F5B56"/>
<path d="M157.732 28.014L157.057 29.4707L155.219 28.7807L155.51 26.128L156.782 25.7447L157.67 9.12333L156.797 0H171.522L168.779 3.25066L168.274 13.0947L169.898 19.09L167.308 23.4447L167.768 24.5947L166.159 26.6953L166.68 29.21L162.16 27.0787L161.394 29.0413L157.732 28.014Z" fill="#A57C54"/>
<path d="M105.12 83.0604L106.33 94.2997L100.033 104.512L97.1365 102.641L92.4785 99.9117L88.6172 88.0744L92.2027 62.1764L93.2599 58.5271L95.8494 49.5724V38.7471H101.81V49.4804L104.108 53.6664C104.108 53.6664 103.771 58.1897 104.108 58.5271C104.445 58.8644 104.108 73.7684 104.108 73.7684L105.12 83.0604Z" fill="#A57C54"/>
<path d="M254.138 101.829L251.135 106.122L249.924 110.262L242.141 113.206L254.138 101.829Z" fill="#7D983F"/>
<path d="M100.026 173.558L109.082 168.912L124.022 167.762L140.876 161.383L143.114 162.533L157.992 152.812L172.931 138.766L175.352 139.395L192.973 127.389L211.36 117.3L213.49 121.762L223.542 130.931L227.801 150.266L226.775 153.241L221.412 159.635L222.776 160.831L203.868 168.835L199.194 172.837L192.054 176.164H90.6797L96.5789 173.558H100.026Z" fill="#96A74B"/>
<path d="M281.274 160.356L285.366 168.146L284.278 176.165H275.712L255.931 165.002L249.802 155.756L245.971 154.99L238.938 144.762L236.395 132.496L226.435 127.65L217.594 121.655L226.174 120.965L242.141 113.206L249.924 110.262L251.135 106.122L254.138 101.829L258.291 91.9082L264.741 119.662L266.274 138.69L264.803 144.962L270.166 149.562L278.915 154.346L281.274 157.29V160.356Z" fill="#485621"/>
<path d="M85.3801 165.002L63.76 171.212H54.2293L49.9697 176.165H14.3906L19.1559 170.875L21.4543 171.212L29.1156 159.298L41.1132 150.006L43.1664 142.171L49.1116 146.081L59.8374 149.071L73.4592 158.271L79.2511 160.479L85.3801 165.002Z" fill="#467445"/>
<path d="M226.439 127.65L236.398 132.495L238.942 144.762L245.975 154.989L249.805 155.756L255.935 165.002L275.716 176.164H192.055L199.195 172.837L203.868 168.835L222.776 160.831L221.413 159.635L226.776 153.241L227.802 150.266L223.543 130.931L213.491 121.762L211.361 117.3H212.985L214.564 119.6L217.597 121.654L226.439 127.65Z" fill="#467445"/>
<path d="M244.889 104.451L245.655 101.2L246.681 95.3733L249.547 88.0747V85.606L242.912 79.6566L243.356 77.6787L239.909 68.6166L238.438 65.7646H239.71L243.464 71.0393L245.072 71.806L246.605 71.3L254.618 74.3666L258.801 83.2293L257.208 85.1L258.296 91.908L254.143 101.829L242.146 113.206L226.18 120.965L231.282 114.157L244.889 104.451Z" fill="#467445"/>
<path d="M258.797 83.2295L265.922 98.3788L267.806 109.879L277 126.5L284.309 131.269L306.113 176.165H284.278L285.366 168.145L281.275 160.356V157.289L278.915 154.345L270.166 149.561L264.803 144.961L266.274 138.69L264.742 119.662L258.291 91.9082L257.203 85.1002L258.797 83.2295Z" fill="#467445"/>
<path d="M43.1637 142.171L41.1105 150.006L29.1129 159.298L21.4516 171.212L19.1532 170.875L14.3879 176.165H0L16.9314 161L19.2298 161.767L34.9048 147.967L39.1492 146.173L43.1637 142.171Z" fill="#7D983F"/>
<path d="M239.907 68.6166L243.355 77.6787L242.911 79.6566L249.545 85.606V88.0747L246.68 95.3733L245.653 101.2L244.887 104.451L231.281 114.157L226.178 120.965L217.598 121.655L214.564 119.6L212.986 117.3H211.361L192.974 127.389L175.353 139.395L172.932 138.767L157.993 152.812L143.115 162.533L140.878 161.383L124.023 167.762L109.083 168.912L100.028 173.558H96.58L90.6808 176.165H49.9688L54.2284 171.212H63.7591L85.3792 165.002L146.501 149.147L150.424 141.665L175.108 129.643L177.575 126.837L180.042 128.279L191.105 119.677L204.558 100.771L207.96 98.4706L212.986 91.908L217.659 90.16L219.789 86.2807L229.503 79.6413L236.812 71.806L238.436 65.7646L239.907 68.6166Z" fill="#7D983F"/>
</svg>
