<svg width="162" height="304" viewBox="0 0 162 304" fill="none" xmlns="http://www.w3.org/2000/svg">
<path d="M73.2228 92.174C68.655 96.3162 61.0705 96.5999 56.2072 92.8096C55.4626 92.2291 54.7573 91.533 54.4526 90.6387C53.7014 88.427 55.6701 86.2377 57.665 85.0216C59.6587 83.8054 62.0437 82.7521 62.9026 80.5798C63.3833 79.3663 63.2835 78.007 63.5606 76.7318C63.8377 75.4565 64.74 74.1143 66.0454 74.0985C67.8118 74.0775 68.8533 76.4166 70.6145 76.5545C72.2995 76.6871 73.3593 74.8235 74.8001 73.9396C77.453 72.3137 81.1474 74.57 82.0103 77.5605C82.8745 80.5496 81.7279 83.741 80.2964 86.503C78.6205 89.7364 76.5271 92.7531 74.083 95.4534L73.2228 92.174Z" fill="#EE3A4B"/>
<path d="M73.9781 11.1306C74.6059 6.02964 78.3187 1.16241 83.3632 0.180036C89.5739 -1.02954 95.7571 4.03078 97.5117 10.1102C104.629 34.768 71.4841 31.419 73.9781 11.1306Z" fill="#EE3A4B"/>
<path d="M125.682 55.9546C119.831 53.4198 117.748 44.832 121.789 39.8991C124.73 36.3098 129.648 35.1159 134.242 34.4619C134.936 34.3634 135.661 34.2741 136.323 34.5039C136.982 34.7324 137.498 35.2499 137.946 35.7857C141.359 39.8781 141.895 46.1334 139.225 50.7472C136.555 55.3596 130.864 58.0113 125.615 57.0893L125.682 55.9546Z" fill="#EE3A4B"/>
<path d="M145.628 144.28C147.62 143.52 149.836 143.155 151.893 143.714C153.332 144.106 154.623 144.926 155.764 145.887C165.854 154.363 162.473 176.586 146.809 174.405C131.07 172.215 132.451 149.312 145.628 144.28Z" fill="#EE3A4B"/>
<path d="M92.466 32.1557C101.082 48.4253 106.251 66.3693 107.227 84.777C108.229 103.672 104.772 122.383 100.399 140.682C92.2362 174.841 82.8104 209.574 63.7999 239.489C61.9573 242.389 66.5934 245.006 68.4255 242.124C88.3606 210.755 98.2382 173.912 106.49 138.022C110.782 119.36 113.884 100.156 112.292 80.9592C110.794 62.8851 105.509 45.4282 97.0312 29.4174C95.4276 26.3902 90.8651 29.1311 92.466 32.1557Z" fill="#A6C63D"/>
<path d="M121.841 59.8265C118.912 66.5586 115.018 72.667 110.075 78.1002C107.771 80.631 111.569 84.3609 113.879 81.8209C119.118 76.0619 123.358 69.6016 126.465 62.461C127.82 59.3458 123.207 56.6876 121.841 59.8265Z" fill="#A6C63D"/>
<path d="M73.2904 97.9395C77.5561 117.411 85.4164 135.82 96.5206 152.375C98.421 155.207 103.001 152.493 101.086 149.637C90.2087 133.42 82.5861 115.542 78.4071 96.4686C77.673 93.1235 72.5575 94.5997 73.2904 97.9395Z" fill="#A6C63D"/>
<path d="M143.124 178.206C130.938 199.272 107.451 211.874 83.1805 210.58C79.7579 210.398 79.8315 215.721 83.2409 215.902C109.335 217.293 134.68 203.434 147.749 180.841C149.468 177.869 144.84 175.241 143.124 178.206Z" fill="#A6C63D"/>
<path d="M71.3551 90.4547C70.244 92.254 69.3549 94.3422 70.0878 96.4659C70.8455 98.6605 73.1938 100.279 75.5355 99.5273C77.7681 98.8115 78.916 96.3766 78.4734 94.1557C78.0781 92.1713 76.4653 90.7227 74.6857 89.9176C73.2581 89.2727 71.9724 89.6575 71.0557 90.9131C70.0181 92.3341 70.0799 94.4079 71.0334 95.8486C71.8266 97.0464 73.4131 97.5258 74.6844 96.7627C75.8769 96.047 76.3944 94.3146 75.5985 93.1116C75.2741 92.6218 75.4685 93.2863 75.5972 93.5385C75.6458 93.633 75.2899 94.0835 75.6812 93.549C74.4717 93.8813 73.2608 94.2122 72.0512 94.5445C72.4255 94.7139 72.7932 94.8938 73.1347 95.1236C72.9114 94.9726 73.4249 95.4782 73.2437 95.2261C73.5799 95.6949 73.249 95.3548 73.2765 95.0869C73.3015 94.8531 73.4683 94.7126 73.6534 94.5865C73.5352 94.6679 74.7015 94.2529 74.9615 94.5537C74.9615 94.5537 75.2662 94.9332 75.1047 94.907C74.9642 94.8846 75.9295 93.176 75.9807 93.0919C77.7852 90.1671 73.1518 87.5457 71.3551 90.4547Z" fill="#24A74A"/>
<path d="M123.301 53.4238C121.254 54.967 120.386 57.6725 121.656 60.0273C122.901 62.3374 125.746 62.977 128.012 61.8199C130.21 60.697 131.213 57.8655 129.904 55.688C128.622 53.5538 125.705 52.5754 123.524 53.9636C122.35 54.7109 121.803 56.3932 122.61 57.6146C123.387 58.7914 125.004 59.3286 126.261 58.5288C126.627 58.295 125.87 58.6246 125.691 58.6312C125.981 58.6325 125.91 58.6141 125.474 58.576C125.691 58.639 125.691 58.6285 125.476 58.5445C125.264 58.4473 125.26 58.4486 125.465 58.551C125.657 58.6732 125.659 58.6693 125.474 58.5393C125.297 58.3987 125.292 58.4053 125.46 58.5576C125.242 58.2569 125.187 58.1899 125.294 58.3567C125.398 58.5313 125.365 58.4447 125.198 58.098C125.272 58.3803 125.265 58.3094 125.179 57.8826C125.196 57.7591 125.213 57.637 125.231 57.5135C125.151 57.7893 125.18 57.7328 125.317 57.3414C125.124 57.7853 125.68 56.9462 125.309 57.3126C125.397 57.239 125.485 57.1668 125.573 57.0933C125.323 57.2325 125.381 57.2167 125.747 57.0473C125.667 57.0788 125.586 57.1038 125.502 57.1235C125.298 57.1734 125.393 57.1615 125.788 57.0906C125.285 57.1103 126.29 57.3113 125.826 57.1196C126.545 57.4164 125.7 56.9199 126.261 57.3901C125.849 57.0434 126.495 57.8064 126.26 57.3704C126.408 57.7394 126.439 57.7867 126.352 57.5109C126.366 57.6291 126.38 57.7486 126.395 57.8681C126.383 57.7499 126.38 57.6304 126.384 57.5109C126.369 57.6278 126.353 57.746 126.336 57.8629C126.357 57.7447 126.386 57.6291 126.424 57.5162C126.275 57.8471 126.248 57.9246 126.34 57.7473C126.44 57.5766 126.386 57.6357 126.178 57.9246C126.379 57.7223 126.332 57.7447 126.039 57.989C127.147 57.1537 127.803 55.6249 126.953 54.3379C126.225 53.2386 124.488 52.5268 123.301 53.4238Z" fill="#24A74A"/>
<path d="M94.516 23.9343C91.7645 22.3977 88.1069 24.562 88.0938 27.7285C88.0807 30.7176 91.0514 32.5431 93.7963 31.9771C96.5806 31.4031 97.9569 28.3536 97.2267 25.7506C96.7671 24.1102 95.4813 22.571 93.6479 22.6301C91.6398 22.6957 90.3041 24.3019 90.1702 26.2142C90.073 27.6063 91.5045 28.9209 92.8612 28.8448C94.3978 28.7581 95.388 27.6457 95.4918 26.1538C95.4156 27.2386 94.4661 28.2065 93.3287 27.911C92.9347 27.6877 92.5407 27.4631 92.1467 27.2399C91.6359 26.6896 92.2163 27.1966 92.1743 27.32C92.0495 27.0048 92.018 26.9418 92.0811 27.1296C92.1126 27.2202 92.1375 27.3134 92.1559 27.408C92.2006 27.3568 92.1612 26.8104 92.1087 27.366C92.0785 27.6864 92.2675 26.8433 92.0929 27.3069C92.2518 26.9628 92.2649 26.9195 92.1297 27.1795C92.1927 27.0994 92.2558 27.0193 92.3188 26.9378C91.934 27.387 92.7693 26.6777 92.3162 26.9365C92.4252 26.8866 92.5355 26.8354 92.6445 26.7855C92.4225 26.838 92.4317 26.8446 92.6747 26.8012C93.3327 26.7527 92.0706 26.8603 92.7207 26.796C92.9636 26.8314 92.9728 26.8249 92.7495 26.7763C92.8599 26.8249 92.9702 26.8748 93.0805 26.9234C93.0057 26.8906 92.9347 26.8512 92.8665 26.8078C92.6957 26.7014 92.7706 26.7566 93.091 26.9746C93.1619 27.0718 93.2342 27.169 93.3051 27.2662C93.1619 27.0245 93.183 27.0902 93.3655 27.4618C93.38 27.5853 93.3957 27.7088 93.4102 27.8335C93.3327 28.2354 93.3195 28.3339 93.3681 28.129C93.4561 27.8256 93.0923 28.636 93.3445 28.2302C93.116 28.5152 93.07 28.586 93.2092 28.4442C93.3524 28.3063 93.2854 28.3589 93.0083 28.5992C93.2092 28.4889 93.204 28.4863 92.9925 28.59C92.8257 28.6885 92.6432 28.7279 92.4436 28.7082C92.8993 28.682 91.9918 28.6202 91.8775 28.5571C93.0937 29.2361 94.8469 28.8474 95.5075 27.5616C96.1655 26.289 95.8135 24.6592 94.516 23.9343Z" fill="#24A74A"/>
<path d="M143.95 171.133C141.848 172.253 140.924 175.066 141.796 177.252C142.887 179.986 145.923 180.932 148.506 179.684C150.763 178.594 151.996 175.603 150.418 173.436C149.611 172.331 148.399 171.514 146.991 171.485C145.319 171.451 144.262 172.52 143.68 173.975C143.162 175.271 144.29 176.95 145.575 177.228C147.13 177.564 148.272 176.721 148.827 175.333C148.415 176.364 147.544 176.984 146.472 176.741C146.733 176.817 146.651 176.779 146.23 176.629C146.409 176.742 146.402 176.73 146.209 176.594C146.022 176.445 146.01 176.444 146.17 176.59C145.939 176.271 145.878 176.194 145.984 176.364C146.089 176.541 146.05 176.445 145.868 176.078C145.807 175.873 145.799 175.668 145.847 175.464C145.895 175.207 145.889 175.195 145.83 175.427C145.994 175.056 146.008 174.995 145.868 175.244C145.935 175.15 146.002 175.057 146.069 174.964C145.864 175.158 145.913 175.128 146.216 174.872C146.168 174.902 146.121 174.934 146.072 174.964C145.817 175.097 145.872 175.077 146.236 174.903C146.181 174.921 146.126 174.938 146.072 174.955C145.783 175.019 145.85 175.012 146.272 174.936C146.186 174.943 146.101 174.943 146.017 174.938C145.807 174.927 145.904 174.938 146.307 174.968C145.793 174.888 146.777 175.229 146.328 174.963C146.492 175.035 146.617 175.145 146.704 175.295C146.835 175.48 146.838 175.479 146.713 175.292C146.857 175.676 146.882 175.732 146.786 175.462C146.772 175.406 146.757 175.353 146.743 175.297C146.792 175.724 146.806 175.79 146.786 175.494C146.788 175.437 146.789 175.38 146.79 175.322C146.726 175.744 146.722 175.81 146.781 175.521C146.797 175.466 146.813 175.41 146.828 175.356C146.663 175.726 146.646 175.783 146.776 175.53C146.899 175.339 146.897 175.339 146.768 175.529C146.629 175.709 146.637 175.716 146.792 175.554C146.474 175.794 146.438 175.841 146.684 175.695C147.915 175.039 148.362 173.201 147.598 172.044C146.775 170.795 145.266 170.431 143.95 171.133Z" fill="#24A74A"/>
<path d="M21.534 156.157C18.2704 161.389 11.051 163.731 5.33668 161.411C4.462 161.057 3.59258 160.579 3.05674 159.803C1.73028 157.88 3.02786 155.237 4.61436 153.522C6.20087 151.807 8.20764 150.144 8.44142 147.82C8.57275 146.522 8.10653 145.24 8.02379 143.939C7.94105 142.636 8.44403 141.098 9.69563 140.728C11.3898 140.226 13.0289 142.192 14.7612 141.844C16.4173 141.512 16.9295 139.429 18.0747 138.186C20.1839 135.897 24.3524 137.061 25.9994 139.702C27.6463 142.343 27.4138 145.725 26.79 148.773C26.0598 152.341 24.8686 155.814 23.2545 159.079L21.534 156.157Z" fill="#EE3A4B"/>
<path d="M0.155125 77.9818C-0.632875 72.9032 1.61162 67.2073 6.19647 64.8867C11.8412 62.0288 19.1709 65.2097 22.5173 70.5786C36.0932 92.3589 3.29137 98.1796 0.155125 77.9818Z" fill="#EE3A4B"/>
<path d="M110.684 193.968C111.949 193.023 113.454 192.315 115.033 192.298C116.137 192.287 117.222 192.611 118.231 193.064C127.13 197.063 129.213 213.578 117.614 215.19C105.958 216.809 102.315 200.214 110.684 193.968Z" fill="#EE3A4B"/>
<path d="M23.6341 93.1286C35.5998 105.622 45.0769 120.375 51.1077 136.614C57.4248 153.623 59.6733 171.701 60.6477 189.723C62.6374 226.526 63.2902 264.767 52.6758 300.411C51.6961 303.701 56.847 305.045 57.8228 301.767C68.9099 264.533 68.223 224.098 65.7329 185.673C64.5457 167.349 61.8494 148.954 54.9426 131.835C48.5519 115.994 39.1616 101.651 27.3534 89.3225C24.9815 86.8442 21.2661 90.6555 23.6341 93.1286Z" fill="#A6C63D"/>
<path d="M59.4951 111.729C58.4983 119.013 56.4429 125.921 53.1766 132.516C51.6597 135.578 56.28 138.223 57.8022 135.15C61.2668 128.155 63.5835 120.826 64.6433 113.086C65.1017 109.731 59.9587 108.342 59.4951 111.729Z" fill="#A6C63D"/>
<path d="M23.1543 161.648C32.5669 179.215 45.1395 194.787 60.34 207.679C62.9404 209.885 66.6782 206.094 64.0607 203.873C49.1754 191.248 36.9377 176.114 27.7195 158.91C26.1001 155.889 21.5363 158.628 23.1543 161.648Z" fill="#A6C63D"/>
<path d="M112.275 219.809C106.314 243.398 87.1588 261.979 63.4479 267.346C60.1094 268.101 61.583 273.217 64.9202 272.462C90.3752 266.7 111.033 246.45 117.422 221.166C118.263 217.843 113.114 216.486 112.275 219.809Z" fill="#A6C63D"/>
<path d="M19.2887 154.97C18.6412 157.247 18.4232 159.661 20.0583 161.583C21.608 163.405 24.3949 163.849 26.2454 162.219C27.7347 160.906 28.046 158.698 27.2698 156.92C26.4188 154.967 24.4107 153.898 22.3789 153.597C20.8345 153.37 19.6866 154.017 19.1258 155.492C18.5112 157.112 19.093 159.145 20.4037 160.252C21.5016 161.179 23.1105 161.289 24.1664 160.21C25.1159 159.239 25.2262 157.378 24.1243 156.447C23.7277 156.112 24.106 156.464 24.1625 156.622C24.2294 156.81 24.0823 157.355 24.2741 156.849C23.1906 157.481 22.1057 158.112 21.0222 158.744C21.3965 158.799 21.7617 158.869 22.1242 158.975C22.4341 159.075 22.4814 159.092 22.262 159.028C22.5326 159.197 22.5773 159.216 22.396 159.082C22.6311 159.319 22.6547 159.339 22.4656 159.141C22.3513 158.846 22.3395 158.845 22.4275 159.138C22.3579 158.965 22.3566 158.79 22.4236 158.615C22.3435 158.911 22.3553 158.899 22.4591 158.581C22.6101 158.298 22.8491 158.102 23.1748 157.995C23.4848 157.888 23.7671 157.91 24.0219 158.06C24.2005 158.232 24.1756 158.207 23.9471 157.985C24.0364 158.048 24.0929 158.135 24.1178 158.242C24.0403 157.726 24.2373 157.025 24.4343 156.328C24.827 154.946 23.909 153.436 22.5391 153.074C21.1234 152.701 19.6827 153.583 19.2887 154.97Z" fill="#24A74A"/>
<path d="M59.1842 105.175C58.3988 106.207 57.9299 107.252 57.9457 108.576C57.9601 109.813 58.4697 111.036 59.2984 111.943C61.0688 113.883 64.1801 113.794 66.0069 111.975C67.8023 110.187 67.9664 107.194 65.9794 105.47C64.1814 103.91 61.2028 103.757 59.5466 105.632C58.6247 106.674 58.4815 108.401 59.5887 109.394C60.617 110.318 62.3677 110.466 63.3514 109.352C63.5457 109.147 63.4814 109.184 63.1596 109.461C63.3474 109.356 63.333 109.358 63.1137 109.465C62.8878 109.556 62.8772 109.57 63.0834 109.507C62.654 109.555 62.5463 109.576 62.7591 109.569C62.9705 109.57 62.8641 109.551 62.4399 109.511C62.5437 109.528 62.6461 109.553 62.7459 109.585C62.6317 109.536 62.5161 109.488 62.4018 109.439C62.4964 109.484 62.5883 109.535 62.675 109.594C62.3677 109.346 62.2876 109.292 62.432 109.43C62.5726 109.574 62.5135 109.494 62.2534 109.192C62.3585 109.382 62.3572 109.369 62.2495 109.153C62.151 108.988 62.109 108.808 62.1221 108.613C62.1602 109.069 62.1956 108.313 62.2876 108.141C62.0538 108.58 62.6803 107.799 62.2022 108.253C62.0577 108.386 62.1129 108.338 62.3677 108.114C62.1562 108.227 62.151 108.236 62.3519 108.14C62.5555 108.056 62.545 108.051 62.3204 108.124C62.7262 108.081 62.7801 108.065 62.482 108.076C62.6763 108.082 63.3146 108.401 62.9823 108.166C63.0729 108.237 63.1636 108.308 63.2555 108.378C63.0572 108.177 63.0861 108.231 63.3422 108.538C63.2923 108.47 63.2476 108.397 63.2082 108.323C63.1123 108.145 63.1465 108.227 63.3093 108.567C63.2712 108.458 63.241 108.348 63.2187 108.236C63.2371 108.358 63.2555 108.48 63.2752 108.602C63.2752 108.602 63.3698 107.956 63.2319 108.629C63.3107 108.353 63.2765 108.405 63.1307 108.784C63.2713 108.539 63.2253 108.576 62.9941 108.894C63.8347 107.788 64.1131 106.173 62.9521 105.131C61.9842 104.267 60.0838 103.99 59.1842 105.175Z" fill="#24A74A"/>
<path d="M23.4487 84.7076C20.3861 83.98 17.4048 86.9901 18.2571 90.0817C19.0464 92.9434 22.3823 93.935 24.8711 92.6545C27.3691 91.3687 27.9062 88.1748 26.5942 85.8489C25.7707 84.3911 24.1225 83.1486 22.3784 83.6372C20.3755 84.198 19.4588 86.1062 19.8423 88.0605C20.1116 89.429 21.8557 90.3129 23.1362 89.8821C24.5992 89.3909 25.2467 88.0552 24.9577 86.5883C25.114 87.9292 24.573 88.683 23.3306 88.8498C22.8814 88.7342 22.4322 88.6173 21.9831 88.5017C22.1814 88.6278 22.1906 88.6278 22.012 88.5017C21.8399 88.3665 21.8412 88.377 22.0159 88.5346C22.3009 89.0849 21.7598 88.0171 22.0277 88.5871C21.7467 87.9869 22.0724 88.6147 22.0198 88.6305C21.9121 88.6646 22.1367 87.9449 21.9949 88.5478C21.991 88.7566 22.0067 88.6673 22.0421 88.2811C21.9778 88.5044 21.987 88.511 22.0684 88.3021C22.1643 88.096 22.1577 88.0986 22.05 88.3087C22.121 88.2168 22.1919 88.1235 22.2641 88.0316C21.9266 88.4151 22.7382 87.7821 22.2825 88.0145C22.6424 87.874 22.7264 87.8372 22.5334 87.9016C22.4546 87.9292 22.3744 87.9515 22.293 87.9672C22.4191 87.9475 22.5438 87.9291 22.6699 87.9094C22.5596 87.9173 22.4493 87.916 22.3403 87.9068C22.469 87.9186 22.5977 87.9318 22.7264 87.9436C22.5136 87.8779 22.5189 87.8858 22.7422 87.9685C22.9589 88.0644 22.9707 88.0605 22.7776 87.9555C22.8761 88.0251 22.9746 88.0947 23.0731 88.1643C23.3463 88.4269 23.4501 88.7828 23.454 89.1506C23.4487 88.6003 23.2741 89.7271 23.4461 89.1939C23.2911 89.5354 23.2623 89.6181 23.3594 89.4408C23.4606 89.2701 23.4067 89.3357 23.1966 89.6365C23.4763 89.3068 22.8433 89.8177 22.7015 89.8637C23.1375 89.7218 22.2077 89.8834 22.0921 89.8558C23.4448 90.1776 25.0366 89.3883 25.3439 87.9607C25.642 86.5777 24.8974 85.0516 23.4487 84.7076Z" fill="#24A74A"/>
<path d="M111.158 212.784C109.251 214.62 109.338 217.719 111.011 219.662C112.804 221.743 116.066 221.567 117.952 219.713C119.929 217.768 119.952 214.368 117.424 212.872C116.439 212.289 115.211 212.022 114.09 212.341C112.526 212.786 111.79 214.081 111.638 215.61C111.5 216.999 113.001 218.315 114.329 218.241C115.901 218.153 116.812 217.039 116.959 215.55C116.874 216.408 116.425 217.203 115.561 217.457C115.05 217.508 114.936 217.531 115.221 217.527C114.758 217.454 114.632 217.443 114.844 217.496C115.068 217.556 114.249 217.152 114.727 217.459C114.899 217.567 114.815 217.501 114.472 217.263C114.616 217.414 114.607 217.397 114.446 217.211C114.3 217.064 114.204 216.885 114.158 216.678C114.116 216.187 114.098 216.106 114.104 216.436C114.115 216.32 114.125 216.205 114.136 216.091C114.049 216.368 114.067 216.324 114.192 215.959C114.024 216.398 114.528 215.661 114.145 215.993C114.574 215.622 114.243 216.042 114.069 215.996C114.392 215.865 114.459 215.828 114.27 215.887C114.069 215.94 114.154 215.933 114.526 215.867C113.978 215.895 115.035 216.058 114.511 215.875C115.185 216.109 114.373 215.657 114.954 216.109C114.553 215.798 115.182 216.532 114.97 216.106C115.118 216.485 115.144 216.537 115.048 216.265C115.034 216.21 115.02 216.155 115.005 216.099C115.052 216.523 115.066 216.587 115.043 216.293C115.043 216.236 115.045 216.179 115.045 216.121C114.978 216.544 114.972 216.612 115.031 216.324C115.101 216.108 115.096 216.108 115.017 216.327C114.925 216.54 114.932 216.546 115.039 216.347C114.79 216.657 114.765 216.709 114.963 216.504C115.969 215.536 115.969 213.682 114.921 212.742C113.82 211.754 112.23 211.751 111.158 212.784Z" fill="#24A74A"/>
</svg>
