<svg width="273" height="183" viewBox="0 0 273 183" fill="none" xmlns="http://www.w3.org/2000/svg">
<path d="M137.853 95.1991C135.435 90.5854 134.706 86.6664 129.482 84.3024C126.161 82.7999 117.676 80.7459 116.548 85.8088C114.31 95.8505 133.468 98.95 137.637 103.708L137.853 95.1991Z" fill="#A7CD3D"/>
<path d="M154.363 57.5563C141.73 67.3275 130.194 65.6964 117.812 56.9456C109.085 50.7782 96.1077 39.0055 99.2334 26.8664C103.726 9.4358 122.934 24.8911 125.324 34.6584C123.819 26.4724 123.508 7.34763 135.703 6.33899C149.902 5.16356 148.297 24.2673 148.891 32.4861C149.78 26.0259 154.783 12.2398 163.881 14.9058C171.209 17.0531 171.007 28.9624 169.632 34.6794C167.412 43.9095 161.891 51.7317 154.363 57.5563Z" fill="#F26D28"/>
<path d="M158.18 58.9957C149.192 66.9374 121.929 70.9786 116.648 56.0749C120.113 53.1409 126.269 55.275 129.689 57.6482C122.662 46.9406 134.512 44.4742 137.369 54.1863C137.294 46.0896 147.168 42.9678 145.25 54.8456C146.805 51.624 149.772 48.4194 153.535 48.2224C155.14 50.3448 154.165 53.0503 153.181 55.4642C157.441 48.8634 165.575 52.4619 158.18 58.9957Z" fill="#A7CD3D"/>
<path d="M136.381 63.5661C137.632 78.1021 136.037 94.1222 135.556 109.081C135.297 117.141 135.081 125.343 134.01 133.266C132.869 141.708 134.974 139.546 142.207 140.803C141.553 132.108 146.58 60.5718 138.251 61.9232L136.381 63.5661Z" fill="#A7CD3D"/>
<path d="M141.705 112.224C137.563 103.807 159.431 80.1207 167.512 92.2296C176.341 105.459 149.163 113.993 140.375 113.725L141.705 112.224Z" fill="#A7CD3D"/>
<path d="M248.559 52.3424C235.523 61.5686 224.066 59.4489 212.067 50.1807C203.61 43.6481 191.144 31.3356 194.782 19.3397C200.01 2.11529 218.545 18.373 220.518 28.2322C219.361 19.9898 219.862 0.86892 232.091 0.379047C246.326 -0.192253 243.912 18.8262 244.155 27.0634C245.317 20.6464 250.902 7.08626 259.878 10.1358C267.108 12.5931 266.4 24.4814 264.785 30.1353C262.175 39.2629 256.327 46.8435 248.559 52.3424Z" fill="#EF5473"/>
<path d="M252.311 53.9433C242.993 61.4963 215.584 64.3764 210.941 49.2613C214.528 46.477 220.587 48.8699 223.903 51.3863C217.337 40.3897 229.282 38.4289 231.724 48.2539C231.993 40.1612 241.99 37.4623 239.569 49.2482C241.26 46.0949 244.359 43.0203 248.127 42.9823C249.64 45.1703 248.553 47.8324 247.467 50.2016C252.003 43.7886 259.977 47.7286 252.311 53.9433Z" fill="#A7CD3D"/>
<path d="M230.337 57.5851C230.97 72.1618 228.695 88.0991 227.58 103.024C226.98 111.067 226.415 119.25 225.008 127.121C223.51 135.507 225.704 133.437 232.877 135C232.593 126.283 240.653 55.0254 232.272 56.0236L230.337 57.5851Z" fill="#A7CD3D"/>
<path d="M233.593 106.424C229.812 97.8389 252.666 75.1024 260.226 87.5436C268.484 101.135 240.968 108.508 232.199 107.867L233.593 106.424Z" fill="#A7CD3D"/>
<path d="M29.3007 61.6342C42.8478 70.9471 54.6625 68.8864 66.975 59.6695C75.6522 53.1737 88.4204 40.9098 84.5566 28.8757C79.0051 11.5962 60.0025 27.7765 58.0509 37.6409C59.1738 29.3919 58.4869 10.2395 45.8514 9.68004C31.142 9.02994 33.8028 28.0904 33.6242 36.3394C32.3673 29.9054 26.4797 16.294 17.2351 19.2989C9.78853 21.7194 10.6238 33.6313 12.343 39.3023C15.1207 48.4602 21.2277 56.0854 29.3007 61.6342Z" fill="#67C1A7"/>
<path d="M25.4405 63.2168C35.1315 70.8328 63.468 73.868 68.1317 58.7554C64.4031 55.9475 58.1661 58.3102 54.7619 60.8121C61.4468 49.8353 49.0923 47.8049 46.656 57.6312C46.3067 49.524 35.9576 46.766 38.5606 58.5834C36.7876 55.4156 33.5582 52.3201 29.6654 52.261C28.1223 54.4451 29.2688 57.1164 30.4114 59.4961C25.669 53.049 17.4672 56.9509 25.4405 63.2168Z" fill="#A7CD3D"/>
<path d="M48.1679 66.986C47.6426 81.581 50.1327 97.5564 51.4145 112.51C52.1053 120.569 52.7606 128.768 54.2828 136.66C55.9047 145.066 53.6195 142.981 46.2242 144.507C46.4409 135.778 37.4879 64.3659 46.1519 65.4113L48.1679 66.986Z" fill="#A7CD3D"/>
<path d="M45.2339 115.883C49.0636 107.305 25.2568 84.4074 17.558 96.8263C9.14742 110.394 37.6336 117.93 46.6851 117.335L45.2339 115.883Z" fill="#A7CD3D"/>
<path d="M71.5228 137.394C99.6662 134.585 127.325 132.709 156.15 131.207C182.041 129.857 245.901 121.056 265.461 141.741C283.656 160.981 261.079 166.221 245.248 169.133C217.043 174.319 187.61 181.146 158.873 182.431C127.971 183.812 96.987 182.115 66.5124 182.438C66.4901 182.438 66.4691 182.438 66.4468 182.438C51.0887 182.593 20.8373 181.849 9.24061 169.75C-25.8031 133.196 60.5735 138.486 71.5228 137.394Z" fill="#A7CD3D"/>
</svg>
