<svg width="503" height="190" viewBox="0 0 503 190" fill="none" xmlns="http://www.w3.org/2000/svg">
<path d="M487.872 155.32C471.04 122.424 453.269 87.9914 424.28 64.018C416.834 57.8646 408.087 52.8643 398.932 49.6892C390.499 46.7565 379.853 44.8347 370.903 45.6848C349.831 47.6861 331.168 60.4358 315.848 74.2211C307.551 81.6979 299.054 89.8071 292.013 98.4899C281.756 111.137 272.905 124.896 264.872 139.045C258.124 150.922 250.865 162.975 246.222 175.872C244.768 179.896 243.575 184.04 243.086 188.202L502.577 186.996C497.329 176.524 493.222 165.775 487.872 155.32Z" fill="#419740"/>
<path opacity="0.5" d="M281.914 137.767C288.453 124.207 295.982 111.101 304.919 98.9689C309.148 93.2226 313.666 87.6676 318.309 82.2546C322.979 76.7999 327.881 71.5118 333.291 66.7898C338.275 62.4484 343.659 58.5027 349.59 55.5472C354.853 52.9174 360.345 50.7059 365.979 49.0095C370.793 47.5517 376.088 46.285 381.404 45.8041C377.805 45.4425 374.236 45.3743 370.903 45.6848C349.831 47.6861 331.168 60.4358 315.848 74.2211C307.551 81.6979 299.054 89.8071 292.013 98.4899C281.756 111.137 272.905 124.896 264.872 139.045C258.124 150.922 250.865 162.975 246.222 175.872C244.768 179.896 243.575 184.04 243.086 188.202L261.395 188.12C267.599 171.071 274.024 154.114 281.914 137.767Z" fill="#5EB24D"/>
<path opacity="0.5" d="M390.461 47.5743C408.84 60.5171 420.327 80.5959 429.268 100.735C439.163 123.029 447.993 145.821 455.174 169.143C457.025 175.134 458.748 181.175 460.541 187.189L502.577 186.996C497.327 176.524 493.222 165.773 487.87 155.32C471.038 122.423 453.267 87.9913 424.278 64.0179C416.832 57.8646 408.084 52.8643 398.93 49.6892C396.106 48.7065 393.025 47.8413 389.844 47.1521C390.048 47.2941 390.26 47.4266 390.461 47.5743Z" fill="#419740"/>
<path opacity="0.5" d="M378.334 121.104C367.092 98.5733 354.132 76.6959 337.541 57.6963C329.733 62.4921 322.476 68.2611 315.848 74.2232C307.551 81.7 299.054 89.8091 292.013 98.4919C281.756 111.139 272.905 124.898 264.872 139.047C258.124 150.924 250.865 162.977 246.222 175.874C244.768 179.898 243.575 184.042 243.086 188.204L408.579 187.435C398.525 165.31 389.185 142.858 378.334 121.104Z" fill="#419740"/>
<path d="M384.933 145.488C362.642 101.919 339.099 56.3084 300.699 24.5553C290.835 16.4007 279.243 9.77406 267.125 5.56328C255.956 1.68763 241.849 -0.857012 229.996 0.267628C202.084 2.91072 177.352 19.8068 157.066 38.068C146.071 47.9683 134.816 58.7092 125.488 70.2112C111.902 86.9672 100.178 105.2 89.5366 123.942C80.6038 139.678 70.9874 155.633 64.8365 172.722C62.9105 178.054 61.3255 183.542 60.6797 189.056L404.414 187.458C397.46 173.574 392.02 159.34 384.933 145.488Z" fill="#82B337"/>
<path opacity="0.5" d="M97.8275 159.406C109.516 131.442 122.757 104.007 139.176 78.4926C147.141 66.1045 155.757 54.061 165.497 43.0039C175.136 32.0472 185.911 21.8156 198.327 14.053C207.862 8.09274 218.653 3.8725 229.504 1.01357C230.795 0.67277 232.089 0.354691 233.395 0.0517578C232.242 0.0971978 231.104 0.163464 229.996 0.265704C202.084 2.9088 177.352 19.8049 157.066 38.0661C146.071 47.9663 134.816 58.7072 125.488 70.2092C111.902 86.9652 100.178 105.198 89.5366 123.94C80.6038 139.676 70.9874 155.631 64.8365 172.72C62.9105 178.052 61.3255 183.54 60.6797 189.054L86.0749 188.934C89.8453 179.036 93.7389 169.179 97.8275 159.406Z" fill="#5EB24D"/>
<path d="M216.071 146.494C208.354 132.634 199.715 119.158 189.68 106.851C184.872 100.957 179.696 95.3357 173.979 90.2956C168.779 85.7251 163.465 81.342 157.526 77.7371C148.472 72.2502 138.589 68.7249 128.277 66.8618C127.332 67.9713 126.402 69.0884 125.488 70.2092C111.902 86.9652 100.178 105.198 89.5366 123.94C80.6038 139.676 70.9874 155.631 64.8365 172.72C62.9105 178.052 61.3255 183.54 60.6797 189.054L237.202 188.232C231.172 173.877 223.635 160.08 216.071 146.494Z" fill="#A3C433"/>
<path opacity="0.4" d="M251.26 2.25944C257.006 5.39101 261.82 9.1152 266.092 14.1041C288.06 39.7455 300.693 71.7391 310.754 103.615C319.439 131.15 325.564 159.361 330.368 187.795C337.983 187.757 404.414 187.454 404.414 187.454C397.464 173.572 392.023 159.338 384.936 145.486C362.645 101.919 339.102 56.3084 300.702 24.5553C290.838 16.4007 279.246 9.77408 267.128 5.56331C261.608 3.65104 255.364 2.06064 249.039 1.08179C249.781 1.46424 250.524 1.85427 251.26 2.25944Z" fill="#5EB24D"/>
<path d="M210.678 161.031C196.191 132.723 180.895 103.085 155.945 82.4611C149.538 77.1541 142.009 72.8505 134.132 70.1146C126.877 67.5965 117.714 65.9512 110.008 66.6726C91.8753 68.3955 75.8049 79.3749 62.6225 91.2386C55.485 97.6721 48.1694 104.647 42.1075 112.12C33.2827 123.003 25.6622 134.851 18.7462 147.029C12.9457 157.25 6.69629 167.623 2.69669 178.728C1.44871 182.192 0.422306 185.761 0 189.338L223.334 188.302C218.815 179.279 215.281 170.032 210.678 161.031Z" fill="#ACC028"/>
<path opacity="0.5" d="M17.8562 176.348C22.3595 162.384 27.7245 148.569 35.6858 136.173C37.8466 132.812 40.2479 129.613 42.5696 126.362C44.8743 123.126 47.1714 119.89 49.5386 116.706C53.9776 110.723 58.7006 104.954 63.7815 99.4992C73.4832 89.1162 84.6525 79.4716 97.6834 73.5322C104.351 70.4896 111.5 68.3482 118.837 67.8749C121.039 67.7348 123.238 67.7045 125.434 67.7499C120.274 66.6991 114.854 66.2144 110.008 66.6707C91.8753 68.3937 75.8049 79.3731 62.6225 91.2367C55.485 97.6703 48.1694 104.645 42.1075 112.118C33.2827 123.001 25.6622 134.85 18.7462 147.028C12.9457 157.248 6.69629 167.621 2.69669 178.726C1.44871 182.191 0.422306 185.76 0 189.336L13.8698 189.277C15.1614 184.953 16.4718 180.636 17.8562 176.348Z" fill="#C8DA3F"/>
<path d="M123.826 67.9715C127.556 70.0011 130.685 72.4284 133.461 75.6641C147.734 92.3235 155.946 113.109 162.481 133.825C168.122 151.708 172.105 170.047 175.226 188.522C180.167 188.499 223.331 188.3 223.331 188.3C218.814 179.281 215.28 170.033 210.677 161.033C196.19 132.725 180.894 103.087 155.944 82.463C149.537 77.156 142.008 72.8525 134.131 70.1166C130.543 68.8784 126.492 67.8427 122.375 67.2065C122.864 67.4546 123.345 67.7064 123.826 67.9715Z" fill="#C8DA3F"/>
<path d="M52.8033 135.58C52.2371 135.374 51.258 136.283 50.4721 137.214C49.4589 138.43 48.4931 139.763 47.7318 141.156C47.0198 142.465 46.7054 145.672 47.8568 147.026L47.8606 147.063C47.9004 147.234 48.0576 147.315 48.2129 147.346C48.2943 147.397 48.3757 147.453 48.4685 147.497C51.0137 148.635 54.6497 136.262 52.8033 135.58Z" fill="#C8DA3F"/>
<path d="M77.9526 130.233C77.7045 130.145 77.2803 130.544 76.9357 130.951C76.4887 131.479 76.0721 132.064 75.7388 132.67C75.4263 133.248 75.2938 134.641 75.7937 135.232C75.7937 135.232 75.7937 135.239 75.7937 135.247C75.8089 135.321 75.879 135.359 75.949 135.372C75.9831 135.395 76.0153 135.416 76.0608 135.438C77.1667 135.936 78.7556 130.529 77.9526 130.233Z" fill="#C8DA3F"/>
<path d="M64.7936 149.477C64.4982 149.366 63.9868 149.839 63.5797 150.335C63.0494 150.96 62.5457 151.662 62.148 152.388C61.775 153.075 61.6083 154.743 62.2105 155.453L62.2143 155.476C62.237 155.565 62.3184 155.601 62.3999 155.623C62.4396 155.654 62.4813 155.682 62.5324 155.697C63.8619 156.297 65.7632 149.833 64.7936 149.477Z" fill="#C8DA3F"/>
<path d="M73.1209 97.9068C72.6153 97.7213 71.7404 98.5354 71.0454 99.3666C70.1364 100.453 69.2728 101.644 68.5968 102.882C67.9567 104.051 67.6764 106.91 68.7047 108.123C68.7085 108.131 68.7123 108.146 68.7123 108.146C68.7502 108.309 68.8903 108.375 69.021 108.405C69.0948 108.456 69.1687 108.509 69.2501 108.545C71.5264 109.555 74.7704 98.5127 73.1209 97.9068Z" fill="#C8DA3F"/>
<path d="M99.4925 94.4269C99.1403 94.3019 98.5324 94.8699 98.0457 95.4549C97.4094 96.2047 96.8034 97.0415 96.33 97.9144C95.8831 98.7285 95.688 100.728 96.4038 101.58C96.4038 101.587 96.4076 101.595 96.4076 101.595C96.4341 101.707 96.5288 101.758 96.6254 101.781C96.6765 101.811 96.7295 101.847 96.7882 101.87C98.3771 102.581 100.65 94.8566 99.4925 94.4269Z" fill="#C8DA3F"/>
<path d="M96.0744 138.721C95.5593 138.528 94.6503 139.373 93.925 140.238C92.9857 141.359 92.0918 142.593 91.3911 143.888C90.7283 145.098 90.4367 148.059 91.5028 149.309C91.5066 149.324 91.5104 149.332 91.5104 149.332C91.5483 149.502 91.6903 149.576 91.8343 149.606C91.9081 149.657 91.982 149.71 92.071 149.746C94.4211 150.791 97.7863 139.35 96.0744 138.721Z" fill="#C8DA3F"/>
<path d="M103.298 124.332C103.002 124.22 102.483 124.701 102.078 125.186C101.546 125.822 101.044 126.517 100.645 127.25C100.275 127.929 100.109 129.605 100.711 130.307C100.711 130.307 100.711 130.323 100.711 130.33C100.734 130.419 100.815 130.455 100.897 130.478C100.94 130.508 100.982 130.536 101.029 130.559C102.358 131.152 104.26 124.686 103.298 124.332Z" fill="#C8DA3F"/>
<g opacity="0.4">
<path d="M167.104 61.4716C166.418 61.2198 165.225 62.3293 164.271 63.4653C163.03 64.944 161.856 66.5685 160.926 68.2687C160.059 69.8629 159.675 73.7707 161.078 75.4198L161.085 75.4633C161.129 75.6773 161.322 75.7663 161.512 75.8117C161.612 75.878 161.709 75.9443 161.822 75.9973C164.924 77.3756 169.355 62.299 167.104 61.4716Z" fill="#5EB24D"/>
<path d="M220.026 69.2285C219.731 69.1168 219.204 69.6053 218.792 70.0976C218.25 70.7413 217.737 71.4513 217.331 72.1973C216.955 72.8921 216.784 74.598 217.398 75.3213C217.398 75.3213 217.398 75.3288 217.402 75.3364C217.42 75.433 217.506 75.4689 217.587 75.4917C217.631 75.522 217.672 75.5428 217.723 75.5731C219.072 76.1808 221.009 69.592 220.026 69.2285Z" fill="#5EB24D"/>
<path d="M194.852 76.9987C194.494 76.8662 193.867 77.4494 193.373 78.042C192.723 78.8182 192.11 79.6646 191.623 80.5525C191.172 81.3875 190.972 83.4266 191.704 84.2919C191.704 84.2994 191.704 84.307 191.704 84.307C191.735 84.4263 191.829 84.4698 191.93 84.4926C191.981 84.5304 192.032 84.5664 192.091 84.5891C193.712 85.3124 196.03 77.4342 194.852 76.9987Z" fill="#5EB24D"/>
<path d="M200.646 21.1758C200.032 20.9467 198.968 21.9331 198.119 22.9536C197.01 24.2771 195.961 25.7236 195.135 27.2401C194.358 28.6639 194.014 32.1514 195.266 33.6301C195.266 33.6301 195.269 33.6528 195.273 33.668C195.313 33.8535 195.487 33.935 195.65 33.9709C195.739 34.0296 195.832 34.0902 195.93 34.1413C198.701 35.372 202.653 21.9104 200.646 21.1758Z" fill="#5EB24D"/>
<path d="M232.793 16.9328C232.363 16.7776 231.619 17.4724 231.018 18.1787C230.248 19.1026 229.511 20.1155 228.933 21.1815C228.388 22.1755 228.151 24.6141 229.022 25.6403C229.022 25.6403 229.03 25.663 229.03 25.6706C229.06 25.8031 229.178 25.8637 229.297 25.8845C229.356 25.9281 229.422 25.9735 229.49 26.0038C231.429 26.869 234.196 17.4516 232.793 16.9328Z" fill="#5EB24D"/>
<path d="M257.231 94.9742C256.761 94.8038 255.952 95.5593 255.301 96.3242C254.462 97.3295 253.665 98.439 253.038 99.5902C252.445 100.669 252.188 103.322 253.138 104.439L253.146 104.477C253.176 104.617 253.309 104.676 253.434 104.706C253.5 104.75 253.564 104.795 253.642 104.831C255.748 105.764 258.755 95.5366 257.231 94.9742Z" fill="#5EB24D"/>
<path d="M215.449 104.622C215.035 104.475 214.326 105.134 213.76 105.81C213.02 106.69 212.321 107.657 211.768 108.669C211.253 109.615 211.022 111.942 211.857 112.925C211.861 112.932 211.864 112.94 211.864 112.94C211.895 113.072 212.005 113.133 212.116 113.154C212.175 113.197 212.236 113.235 212.3 113.266C214.148 114.085 216.786 105.119 215.449 104.622Z" fill="#5EB24D"/>
<path d="M242.811 127.257C242.547 127.161 242.089 127.591 241.72 128.022C241.248 128.592 240.798 129.213 240.443 129.864C240.106 130.478 239.959 131.976 240.495 132.612L240.502 132.627C240.517 132.708 240.589 132.746 240.663 132.759C240.701 132.79 240.737 132.811 240.782 132.826C241.972 133.365 243.672 127.575 242.811 127.257Z" fill="#5EB24D"/>
<path d="M245.642 49.2236C245.284 49.0911 244.658 49.6742 244.161 50.2668C243.516 51.0393 242.902 51.8894 242.414 52.7774C241.963 53.6086 241.758 55.6515 242.495 56.5167C242.495 56.5167 242.495 56.5319 242.495 56.5394C242.521 56.6511 242.62 56.6947 242.72 56.7174C242.768 56.7553 242.824 56.7913 242.883 56.8102C244.506 57.5334 246.818 49.6534 245.642 49.2236Z" fill="#5EB24D"/>
</g>
<g opacity="0.4">
<path d="M352.835 70.1051C352.517 69.9934 351.966 70.5046 351.527 71.0215C350.959 71.7012 350.421 72.4566 349.991 73.2291C349.591 73.9618 349.413 75.7586 350.065 76.5159V76.5386C350.088 76.6352 350.177 76.6788 350.262 76.6939C350.309 76.7242 350.355 76.7602 350.406 76.7829C351.83 77.4209 353.871 70.4894 352.835 70.1051Z" fill="#5EB24D"/>
<path d="M376.146 89.4531C375.886 89.3565 375.436 89.7712 375.074 90.2066C374.604 90.7614 374.161 91.3824 373.811 92.0186C373.481 92.6206 373.337 94.1012 373.866 94.7222L373.869 94.745C373.888 94.8188 373.958 94.8567 374.032 94.8699C374.07 94.9002 374.104 94.921 374.15 94.9438C375.322 95.4701 376.996 89.7636 376.146 89.4531Z" fill="#5EB24D"/>
<path d="M420.679 122.52C420.369 122.401 419.829 122.905 419.394 123.423C418.835 124.09 418.305 124.824 417.886 125.593C417.49 126.311 417.316 128.081 417.952 128.821V128.844C417.975 128.94 418.064 128.984 418.148 128.999C418.191 129.029 418.237 129.058 418.288 129.088C419.693 129.709 421.7 122.889 420.679 122.52Z" fill="#5EB24D"/>
<path d="M371.045 55.3466C370.515 55.1478 369.591 56.0055 368.856 56.8821C367.898 58.0276 366.991 59.2866 366.275 60.5987C365.603 61.8256 365.306 64.8474 366.389 66.1197L366.393 66.1557C366.43 66.3185 366.578 66.3923 366.726 66.4226C366.8 66.4737 366.879 66.523 366.961 66.5665C369.362 67.6325 372.784 55.9828 371.045 55.3466Z" fill="#5EB24D"/>
<path d="M398.87 51.6754C398.497 51.5353 397.853 52.1412 397.334 52.7546C396.668 53.5536 396.028 54.4302 395.533 55.3542C395.06 56.2119 394.854 58.3229 395.611 59.2185C395.615 59.226 395.615 59.2336 395.615 59.2336C395.641 59.3529 395.744 59.404 395.844 59.4267C395.899 59.4646 395.954 59.5006 396.013 59.5309C397.69 60.2731 400.084 52.126 398.87 51.6754Z" fill="#5EB24D"/>
<path d="M384.02 105.81C383.751 105.713 383.277 106.15 382.902 106.601C382.414 107.186 381.948 107.83 381.582 108.494C381.238 109.127 381.086 110.666 381.641 111.323L381.645 111.331C381.66 111.42 381.741 111.456 381.815 111.471C381.853 111.501 381.889 111.529 381.935 111.545C383.16 112.088 384.91 106.135 384.02 105.81Z" fill="#5EB24D"/>
<path d="M401.73 122.416C401.378 122.289 400.76 122.859 400.272 123.444C399.63 124.213 399.03 125.046 398.552 125.919C398.102 126.74 397.905 128.755 398.626 129.597C398.63 129.613 398.63 129.62 398.63 129.62C398.656 129.732 398.755 129.783 398.851 129.806C398.899 129.836 398.952 129.872 399.011 129.895C400.607 130.61 402.891 122.846 401.73 122.416Z" fill="#5EB24D"/>
<path d="M393.676 146.234C393.449 146.153 393.053 146.522 392.735 146.901C392.322 147.397 391.934 147.925 391.627 148.495C391.339 149.027 391.208 150.322 391.674 150.865L391.678 150.881C391.693 150.954 391.756 150.985 391.818 151C391.849 151.023 391.885 151.043 391.922 151.058C392.953 151.515 394.428 146.509 393.676 146.234Z" fill="#5EB24D"/>
<path d="M414.101 91.4052C413.787 91.2859 413.247 91.7895 412.815 92.3083C412.253 92.9785 411.723 93.7093 411.308 94.478C410.912 95.2032 410.738 96.9659 411.374 97.7137V97.7365C411.397 97.833 411.486 97.869 411.567 97.8917C411.611 97.922 411.66 97.9504 411.711 97.9731C413.111 98.6017 415.12 91.7838 414.101 91.4052Z" fill="#5EB24D"/>
</g>
</svg>
