<svg width="250" height="288" viewBox="0 0 250 288" fill="none" xmlns="http://www.w3.org/2000/svg">
<path d="M194.703 146.738C193.046 147.307 191.397 147.897 189.748 148.553C183.82 150.905 177.712 152.742 171.808 155.162C173.285 152.582 175.253 150.185 175.923 147.241C175.405 147.281 174.878 147.298 174.354 147.326C172.929 149.527 171.152 151.856 169.171 153.603C167.356 155.213 164.995 156.063 162.794 157.011C157.436 159.287 151.916 161.141 146.5 163.263L139.207 166.75C139.207 166.75 156.377 148.347 156.752 148.221C158.978 146.915 161.416 144.575 163.908 144.06C166.691 143.483 170.096 142.89 172.857 142.223C178.381 140.9 183.936 139.665 189.503 138.525C194.036 137.014 198.217 134.89 202.445 132.687C202.326 132.289 202.201 131.89 202.077 131.49C197.339 133.595 192.421 135.029 187.365 136.124C188.201 134.835 189.081 133.567 189.937 132.289C190.261 131.811 191.52 129.613 189.99 129.802C189.402 129.881 189.096 130.508 188.772 130.921C188.212 131.628 187.634 132.319 187.05 133.004C186.021 134.195 184.984 135.412 184.21 136.793C178.162 138.013 172.058 139.025 165.981 140.142C168.807 138.082 176.297 131.177 177.555 130.162C179.029 128.969 180.499 127.765 182.054 126.675C190.772 120.569 193.93 121.802 199.812 118.805C199.819 118.543 199.753 117.452 199.782 117.192C196.559 118.223 193.31 119.143 190.04 120.012C191.307 118.585 192.095 116.702 193.001 115.029C193.943 113.312 194.675 111.593 195.37 109.767C194.904 109.509 194.416 109.304 193.926 109.185C192.374 111.245 190.879 113.369 189.225 115.353C187.444 117.492 185.437 119.29 183.266 121.031C183.043 121.27 182.813 121.504 182.593 121.743C182.048 118.662 182.472 115.336 181.792 112.334C181.277 112.396 180.373 112.477 179.779 112.773C179.527 113.794 179.638 114.942 179.606 115.986C179.572 117.064 179.527 118.15 179.517 119.228C179.51 120.306 179.534 121.38 179.628 122.452C179.687 123.046 179.76 123.632 179.866 124.214C179.907 124.47 179.956 124.574 179.832 124.785C179.299 125.692 178.285 126.423 177.499 127.101C176.645 127.83 175.78 128.539 174.951 129.293C171.713 132.227 168.299 134.948 164.694 137.413C161.011 139.941 157.084 142.115 153.56 144.876C152.866 145.522 152.188 146.182 151.532 146.874L145.37 151.502L147.077 144.203C148.37 140.945 148.202 136.705 150.946 134.172C154.106 131.262 157.977 129.332 161.72 127.297C165.41 125.294 169.218 123.097 171.73 119.627C172.944 117.933 174.269 116.186 175.036 114.256C175.784 112.374 176.102 110.297 176.457 108.305C176.54 107.843 176.609 107.308 176.853 106.897C177.141 106.394 177.919 106.002 178.379 105.676C179.636 104.792 180.961 104.01 182.246 103.181C185.045 101.389 187.244 99.244 189.142 96.5114C190.082 94.8041 190.985 93.0873 191.669 91.2724C191.51 91.1631 190.263 91.2329 190.122 91.1066C188.495 94.0973 187.619 95.654 185.316 97.6403C182.994 99.6435 180.269 101.11 177.996 103.181C178.409 101.869 178.854 100.575 179.238 99.2497C179.28 99.1253 179.319 99.0104 179.363 98.886C180.593 94.4291 181.62 89.8458 181.899 85.2174C181.394 85.1816 180.884 85.1307 180.386 85.0535C179.926 87.2734 179.206 89.4237 178.543 91.5928C177.872 93.76 177.28 95.9574 176.657 98.1434C175.963 101.112 175.177 104.072 174.325 107.006C173.217 104.913 171.19 102.945 169.793 101.032C167.973 97.3218 166.725 93.4434 166.476 89.2993C165.939 89.5161 165.41 89.7498 164.891 89.9834C164.462 93.8863 165.11 97.8061 167.01 101.247C168.817 104.517 171.297 107.342 173.253 110.51C172.384 113.169 171.54 115.741 169.527 117.778C167.579 119.759 165.606 121.659 163.263 123.102C160.536 124.781 152.388 130.145 149.736 131.948C148.477 132.792 153.185 120.111 162.236 107.528C161.886 107.478 160.595 107.334 160.242 107.272C158.821 109.036 157.679 111.003 156.243 112.745C154.805 114.486 153.488 116.261 152.293 118.172C151.928 116.715 151.327 115.325 150.84 113.909C150.797 113.772 150.748 113.642 150.701 113.506C150.369 112.609 150 111.731 149.5 110.938C149.154 111.211 148.83 111.509 148.515 111.806C149.174 113.293 150.857 119.412 150.627 120.867C150.622 120.901 150.609 120.918 150.599 120.948C150.601 120.971 150.607 120.982 150.612 121.005C146.975 127.442 143.711 135.186 143.824 138.397C141.964 136.486 139.384 135.19 137.984 132.868C136.859 131.019 136.721 128.856 136.853 126.756C136.45 126.762 136.041 126.756 135.634 126.737C134.607 129.962 135.182 133.352 137.046 136.149C138.742 138.682 141.231 140.53 143.67 142.294C142.27 148.325 139.661 154.084 136.009 159.084C133.148 162.986 129.489 165.955 125.816 169.075C124.246 159.306 125.557 149.435 126.841 139.641C127.446 135.037 128.379 131.349 130.092 127.024C131.78 122.767 133.222 117.963 136.853 115.057C138.679 113.597 140.639 111.782 142.467 110.321C144.301 108.855 146.031 107.257 147.574 105.482C149.591 103.175 151.332 100.524 152.242 97.5837C153.65 93.0307 154.928 88.3854 155.876 83.7117C156.004 83.0672 156.138 82.4208 156.187 81.7669C156.253 80.9056 155.52 81.1393 154.766 80.9282C153.663 83.9755 153.141 87.1811 152.133 90.2567C151.172 93.1852 149.759 95.9574 148.057 98.5204C147.951 96.1176 147.339 93.7902 146.704 91.4797C146.086 89.2145 145.658 86.8965 145.422 84.5578C145.013 84.7218 144.61 84.8877 144.209 85.0591C144.148 86.7496 144.073 88.4419 144.156 90.1323C144.241 91.9019 144.599 93.5848 145.002 95.3035C145.447 97.22 146.649 100.507 145.206 102.237C145.211 102.259 145.213 102.284 145.217 102.299C141.448 106.756 136.729 110.267 132.549 114.3C133.269 111.966 133.587 109.479 134 107.065C134.439 104.474 134.773 101.888 134.893 99.2628C134.46 99.359 134.023 99.4287 133.587 99.521C133.228 101.108 132.626 102.655 132.176 104.223C131.712 105.861 131.288 107.504 130.834 109.147C129.979 112.268 128.782 115.127 127.131 117.918C125.557 121.227 123.931 124.527 122.209 127.766C120.677 130.65 119.124 133.622 117.111 136.202C117.394 135.842 116.911 134.66 116.811 134.278C116.546 133.256 116.406 132.21 116.265 131.168C115.869 128.239 115.343 125.313 115.477 122.373C116.172 107.387 127.617 93.3436 129.926 88.9846C129.636 88.8772 128.816 88.0198 128.531 87.8878C126.089 91.5683 123.603 95.5748 121.17 99.261C119.357 102.012 117.597 104.802 115.882 107.615C115.993 105.697 118.291 89.1561 116.534 81.5483C116.018 81.6123 115.108 81.6236 114.586 81.6463C114.785 86.4348 114.733 95.1094 114.486 99.8848C114.326 103.126 113.302 108.61 112.767 111.806C112.266 114.808 111.678 117.797 110.999 120.76C110.792 121.655 110.587 122.546 110.334 123.424C110.28 123.63 110.223 123.835 110.136 124.029C110.018 124.308 109.586 122.991 109.537 122.865L103.512 111.309C103.687 111.139 104.076 110.538 104.087 110.512C106.26 104.994 107.106 99.5889 105.625 93.8411C105.225 93.9334 104.784 94.0427 104.407 94.218C104.39 97.4367 104.311 100.558 103.586 103.725C103.18 105.129 102.66 106.469 102.103 107.828C102.025 107.96 101.948 108.098 101.865 108.222C99.973 103.97 98.1676 99.6681 96.5526 95.3035C95.7573 93.1457 95.0148 90.9765 94.2836 88.798C93.5373 86.5837 92.7138 84.3863 92.1466 82.1211C91.5586 82.3774 90.9631 82.5904 90.3582 82.7431C90.7351 86.5498 91.6019 90.3208 92.5555 94.0182C93.5336 97.7948 94.6474 101.534 96.0664 105.169C93.6278 103.217 90.2677 102.029 88.6093 99.3006C86.6758 96.1346 85.8051 92.2882 84.3823 88.864C84.0054 89.2013 83.6153 89.5142 83.212 89.8157C83.7886 92.0979 84.4614 94.3536 85.202 96.5962C86.1349 99.4042 87.814 101.88 89.9058 103.957C92.6686 106.686 94.6361 108.763 96.9314 111.982C99.9391 116.193 102.436 122.226 103.761 127.201C108.847 146.301 109.105 157.823 108.7 160.949C108.131 160.653 102.472 154.027 101.547 153.017C98.9497 150.153 97.5307 148.788 96.4358 146.028C98.2902 143.694 100.033 141.354 101.153 138.535C101.716 137.119 102.006 135.642 101.637 134.14C101.213 132.404 100.74 131.013 99.7601 129.534C99.3719 129.655 98.9837 129.773 98.5879 129.877C99.2965 131.897 99.7469 134.048 99.1382 136.154C98.3919 138.729 96.285 140.657 95.028 142.975C94.1725 139.46 88.1646 131.956 82.3489 126.564C82.2283 126.449 82.1001 124.87 82.5147 123.522C82.7107 122.216 82.9331 120.914 82.8709 119.572C82.7691 117.53 82.624 115.459 82.2019 113.45C81.5951 110.602 80.6227 107.913 79.2715 105.369C79.0058 105.567 78.3066 106.207 78.0578 106.418C79.1301 108.273 79.7784 110.127 80.225 112.272C81.3256 117.494 80.5398 122.167 80.4003 124.21C80.3362 124.382 80.2778 124.559 80.2231 124.73C78.7551 123.464 77.1777 122.384 75.623 121.238C73.3276 119.196 70.9512 117.238 68.5032 115.319C68.2846 115.651 68.0528 115.971 67.8078 116.267C69.5454 118.417 71.3997 120.468 73.5971 122.173C75.9924 124.033 78.2764 126.031 80.5699 128.011C82.6184 130.122 84.469 132.44 86.2762 134.75C87.0187 135.704 87.7575 136.667 88.4698 137.638C88.5452 137.747 89.1879 138.834 89.2708 138.834C89.0239 138.829 88.5527 138.446 88.3304 138.339C87.9309 138.139 87.5332 137.952 87.1224 137.768C86.3026 137.404 85.4678 137.067 84.6216 136.752C82.9199 136.119 81.1937 136.158 79.4693 135.587C77.7223 135.005 75.7907 134.622 74.0098 134.121C72.0782 133.578 69.8865 132.745 67.9643 132.169C65.5785 130.97 63.6524 129.195 61.6454 127.414C61.6868 127.352 61.7208 127.29 61.7358 127.226C62.9966 124.248 64.0859 121.052 63.3 117.793C63.2982 117.663 63.2831 117.52 63.2774 117.383C63.2586 117.287 63.236 117.189 63.2171 117.087C62.0468 114.707 60.9444 112.276 59.3086 110.187C59.0089 110.342 58.7187 110.497 58.4417 110.672C59.1051 112.754 60.2735 114.656 60.7917 116.785C60.9519 118.17 61.0273 119.62 60.8445 121.007C60.6466 122.478 60.1849 123.907 59.9908 125.383C57.2036 121.766 54.258 118.24 51.9476 114.284C49.4468 110.01 46.7784 105.851 44.0496 101.713C44.0006 101.718 43.9553 101.724 43.9101 101.73C43.6406 101.952 43.3749 102.182 43.1167 102.404C45.2067 106.741 47.6716 110.862 50.3552 114.85C51.0807 116.014 51.8571 117.149 52.6147 118.302C49.8652 116.921 46.8462 116.241 44.0703 114.942C41.3188 113.657 39.0951 111.733 36.5811 110.074C36.4153 110.31 36.2344 110.536 36.0403 110.747C36.4756 111.311 36.9128 111.878 37.3538 112.441C39.0386 114.028 40.7497 115.557 42.6814 116.836C44.532 118.052 46.5239 118.845 48.6384 119.484C49.6353 119.787 50.6473 120.074 51.6461 120.379C52.1417 120.539 52.6355 120.698 53.1236 120.869C53.5759 121.035 54.258 121.184 54.6293 121.493C55.0872 121.875 55.2794 122.605 55.5546 123.112C56.0125 123.975 56.5798 124.796 57.1112 125.612C59.2992 128.95 61.9319 132.301 65.5897 134.091C69.6603 136.09 74.3754 137.607 78.6609 138.964C88.1099 141.961 91.6453 147.04 93.4752 149.437L97.0916 156.004L89.9077 153.208C89.0861 152.723 88.2569 152.271 87.4108 151.838C86.9924 151.666 86.5834 151.461 86.1858 151.255C84.0883 150.458 82.0568 149.378 80.421 147.825C78.561 146.058 77.4585 143.928 76.1978 141.772C75.5796 142.102 74.9747 142.445 74.5337 142.977C74.9973 144.512 76.177 145.756 76.929 147.153C70.4349 144.927 64.0162 142.473 57.6389 139.935C55.1004 138.919 52.6034 137.83 50.1026 136.727C46.0094 134.924 42.2253 132.476 39.1912 129.148C39.0103 128.942 38.835 128.743 38.6711 128.537C38.3149 128.76 37.9832 129.021 37.6704 129.325C38.7766 130.819 39.8715 132.22 41.17 133.548C42.5494 134.98 43.8931 136.677 45.576 137.754C42.1895 137.8 38.8124 137.794 35.4297 137.668C35.5296 137.913 35.6106 138.171 35.6935 138.422C37.595 138.798 39.5003 139.151 41.4206 139.432C43.4012 139.718 45.3894 139.803 47.3738 140.025C51.0939 140.447 54.6519 141.801 58.1081 143.186C60.9689 144.46 63.8522 145.67 66.7525 146.844C69.1666 148.191 71.5788 149.668 74.1794 150.631C66.8655 151.304 59.5705 152.132 52.251 152.561C49.607 153.017 46.9442 153.428 44.2663 153.617C41.4715 153.811 38.8369 153.411 36.0742 153.159C36.029 153.485 35.9856 153.811 35.9291 154.129C39.5719 155.592 43.8856 155.659 47.7526 155.563C52.1097 155.454 56.4686 155.113 60.82 154.855C64.966 154.598 69.0912 154.142 73.2315 153.754C76.8988 153.411 80.6434 153.315 84.2391 154.261C99.647 161.309 103.693 168.248 103.693 168.248L99.1816 167.632C93.3923 167.049 87.5803 166.759 81.8155 166.007C79.3732 165.698 76.7877 165.51 74.5601 164.375C72.2535 163.205 69.9863 161.522 68.049 159.817C67.5383 159.935 67.0333 160.056 66.5245 160.16C67.9605 162.813 72.9658 166.152 75.0859 168.235C71.2188 167.79 67.3084 167.771 63.4338 167.338C61.0499 167.076 58.681 166.733 56.3103 166.367C54.9195 166.145 53.4892 166.004 52.1229 165.647C50.8565 165.318 49.6277 164.826 48.3029 164.752C47.9109 165.762 47.649 166.814 47.485 167.881C51.224 168.423 54.9685 168.93 58.7263 169.352C62.4256 169.756 66.0552 170.402 69.7319 170.966C73.3898 171.531 77.1551 171.32 80.8488 171.371C84.7008 171.427 88.5584 171.548 92.3915 171.993C89.3706 172.705 86.4854 173.915 83.4513 174.629C80.3475 175.358 77.1985 175.909 74.0796 176.593C75.0218 177.064 76.0338 177.384 76.9535 177.887C81.8476 176.998 86.6155 175.543 91.4286 174.305C94.6662 173.478 98.4202 172.16 101.443 174.288C103.689 175.869 104.788 178.653 105.44 181.227C106.294 184.617 106.473 188.156 106.605 191.635C106.882 198.821 103.827 245.265 102.696 250.237C101.971 253.433 101.39 256.667 100.61 259.846C99.8279 262.995 98.8725 266.351 96.9107 268.993C95.8836 270.375 94.6021 271.357 92.906 271.754C91.845 272.005 90.7463 272.097 89.6778 272.286C88.3775 272.514 87.0923 272.749 85.79 272.924C84.3842 273.113 82.9802 273.284 81.58 273.524C80.3852 273.729 79.1244 273.872 78.0144 274.402C81.0504 275.035 84.028 276.006 87.1187 276.611C84.3635 277.99 81.6177 279.383 78.8644 280.77C76.3523 282.03 73.9043 283.598 71.9048 285.59C73.0129 285.796 74.2209 285.654 75.3327 285.562C77.1683 285.413 78.9963 285.18 80.8243 284.916C84.8006 284.352 88.7865 283.711 92.6253 282.507C95.8497 281.503 98.9667 280.169 101.948 278.576C102.819 278.114 103.674 277.624 104.528 277.133C104.971 276.876 105.274 276.482 105.54 277.02C105.563 277.014 105.581 277.003 105.602 276.989C105.84 277.526 106.275 278.013 106.629 278.469C107.257 279.268 107.913 280.055 108.58 280.819C109.869 282.313 111.211 283.695 112.726 284.95C113.589 285.656 114.45 286.369 115.323 287.068C115.617 287.296 115.914 287.524 116.218 287.752C116.487 287.946 116.553 288.095 116.706 287.722C117.294 286.297 116.757 284.641 116.591 283.18C116.397 281.48 116.084 279.79 116.025 278.073C117.092 279.631 118.519 280.442 120.271 281.069C139.448 284.094 147.569 283.695 149.738 283.438C148.468 282.228 144.529 278.604 144.261 278.446C144.137 278.457 143.044 276.848 143.199 276.744C143.457 276.569 144.261 276.673 144.582 276.643C145.153 276.603 145.72 276.552 146.295 276.505C148.992 276.277 151.679 275.998 154.372 275.7C158.395 275.267 162.487 274.947 166.478 274.246C166.163 273.761 164.884 273.531 164.377 273.367C163.18 272.979 161.974 272.636 160.764 272.306C157.751 271.471 154.717 270.72 151.677 269.979C149.22 269.374 146.711 268.876 144.271 268.179C141.216 267.295 138.717 265.35 137.21 262.543C135.753 259.821 135.202 256.682 134.843 253.651C134.37 249.617 134.064 245.567 133.618 241.532C132.487 231.338 131.661 221.136 131.32 210.887C131.155 205.878 130.866 200.85 130.795 195.84C130.734 191.545 130.812 186.95 132.932 183.098C134.703 179.885 137.466 177.352 140.272 175.051C141.683 173.887 143.127 172.775 144.548 171.633C146.121 170.355 147.648 168.932 149.553 168.18C151.619 167.362 153.929 167.381 156.108 167.443C158.516 167.523 160.919 167.534 163.331 167.489C165.268 167.453 167.202 167.323 169.141 167.332C169.761 167.338 170.398 167.402 170.865 166.933C171.548 166.266 172.377 165.747 173.091 165.101C169.936 165.278 166.791 165.604 163.634 165.734C160.489 165.872 157.349 165.495 154.216 165.627C158.284 163.948 162.5 162.677 166.721 161.451C168.83 160.834 170.96 160.252 173.048 159.583C175.066 158.933 176.951 157.945 178.848 157.016C182.497 157.832 186.434 158.49 190.052 158.307C190.346 157.891 190.644 157.467 190.953 157.058C188.915 156.44 186.111 155.379 183.503 154.97C187.804 153.194 192.093 151.419 196.341 149.525C195.886 148.543 195.357 147.607 194.703 146.738Z" fill="#925F2D"/>
<path opacity="0.3" d="M194.703 146.738C193.046 147.307 191.398 147.897 189.769 148.541C189.762 148.541 189.756 148.553 189.747 148.553C183.818 150.904 177.71 152.742 171.806 155.162C173.283 152.582 175.251 150.185 175.922 147.241C175.403 147.281 174.876 147.297 174.352 147.326C172.927 149.527 171.15 151.856 169.169 153.603C167.355 155.212 164.993 156.062 162.792 157.01C157.434 159.287 151.915 161.141 146.498 163.263L139.205 166.75C139.205 166.75 156.375 148.347 156.75 148.221C158.976 146.915 161.415 144.574 163.906 144.06C166.689 143.483 170.095 142.89 172.856 142.222C178.379 140.9 183.935 139.665 189.502 138.525C194.034 137.014 198.216 134.89 202.443 132.687C202.324 132.289 202.2 131.89 202.075 131.49C197.338 133.595 192.419 135.029 187.363 136.124C188.199 134.835 189.08 133.567 189.935 132.289C190.259 131.81 191.518 129.613 189.988 129.802C189.4 129.881 189.095 130.508 188.77 130.921C188.211 131.628 187.632 132.319 187.048 133.003C186.019 134.194 184.983 135.412 184.208 136.793C178.161 138.012 172.057 139.024 165.979 140.142C168.806 138.082 176.295 131.177 177.554 130.161C179.027 128.968 180.497 127.764 182.052 126.675C190.77 120.569 193.928 121.802 199.81 118.805C199.818 118.543 199.752 117.452 199.78 117.192C196.557 118.223 193.308 119.143 190.039 120.011C191.305 118.585 192.093 116.702 192.999 115.029C193.942 113.312 194.673 111.593 195.368 109.767C194.903 109.509 194.415 109.303 193.925 109.185C192.372 111.245 190.877 113.368 189.223 115.353C187.442 117.492 185.435 119.29 183.264 121.031C183.041 121.27 182.812 121.504 182.591 121.743C182.046 118.662 182.47 115.336 181.79 112.334C181.276 112.396 180.371 112.477 179.777 112.773C179.525 113.794 179.636 114.942 179.604 115.986C179.57 117.064 179.525 118.149 179.516 119.227C179.508 120.305 179.532 121.379 179.627 122.452C179.685 123.045 179.759 123.632 179.864 124.214C179.906 124.47 179.955 124.574 179.83 124.785C179.297 125.691 178.283 126.423 177.497 127.101C176.643 127.83 175.778 128.539 174.949 129.293C171.712 132.227 168.297 134.948 164.692 137.413C161.009 139.94 157.082 142.115 153.558 144.876C152.864 145.522 152.186 146.182 151.53 146.873L145.368 151.502L147.075 144.203C148.368 140.945 148.2 136.705 150.944 134.172C154.104 131.262 157.975 129.332 161.718 127.297C165.408 125.294 169.217 123.096 171.729 119.627C172.942 117.933 174.267 116.186 175.034 114.256C175.782 112.373 176.101 110.297 176.455 108.305C176.538 107.843 176.608 107.308 176.851 106.897C177.139 106.394 177.917 106.002 178.377 105.676C179.634 104.792 180.959 104.01 182.244 103.181C185.043 101.388 187.242 99.2438 189.14 96.5112C190.08 94.8038 190.983 93.087 191.667 91.2722C191.509 91.1629 190.261 91.2326 190.12 91.1064C188.493 94.0971 187.617 95.6538 185.314 97.64C182.992 99.6433 180.267 101.109 177.995 103.181C178.407 101.869 178.852 100.574 179.237 99.2494C179.278 99.1251 179.318 99.0101 179.361 98.8857C180.592 94.4288 181.619 89.8456 181.898 85.2172C181.393 85.1814 180.882 85.1305 180.384 85.0532C179.924 87.2732 179.205 89.4235 178.541 91.5926C177.87 93.7598 177.279 95.9572 176.655 98.1432C175.961 101.111 175.175 104.072 174.324 107.006C173.216 104.912 171.188 102.945 169.791 101.032C167.971 97.3215 166.723 93.4432 166.475 89.2991C165.937 89.5158 165.408 89.7495 164.89 89.9832C164.46 93.8861 165.108 97.8059 167.008 101.247C168.815 104.517 171.295 107.342 173.251 110.51C172.383 113.169 171.538 115.741 169.526 117.778C167.577 119.759 165.604 121.658 163.261 123.102C160.535 124.781 152.386 130.144 149.734 131.948C148.475 132.792 153.183 120.111 162.234 107.528C161.884 107.477 160.593 107.334 160.241 107.272C158.82 109.036 157.678 111.003 156.242 112.745C154.804 114.486 153.486 116.261 152.292 118.172C151.926 116.715 151.325 115.324 150.839 113.909C150.795 113.772 150.746 113.642 150.699 113.506C150.367 112.609 149.998 111.731 149.499 110.937C149.152 111.211 148.828 111.508 148.513 111.806C149.173 113.293 150.856 119.412 150.626 120.867C150.62 120.901 150.607 120.918 150.597 120.948C150.599 120.971 150.605 120.982 150.611 121.005C146.973 127.442 143.709 135.186 143.822 138.397C141.962 136.486 139.383 135.189 137.982 132.868C136.857 131.019 136.72 128.855 136.852 126.756C136.448 126.762 136.039 126.756 135.632 126.737C134.605 129.962 135.18 133.352 137.044 136.149C138.74 138.681 141.229 140.53 143.668 142.294C142.268 148.325 139.66 154.084 136.007 159.083C133.147 162.986 129.487 165.954 125.814 169.075C124.244 159.306 125.556 149.435 126.839 139.641C127.444 135.037 128.377 131.349 130.09 127.024C130.925 124.924 131.701 122.687 132.706 120.611C132.666 120.661 132.625 120.707 132.587 120.754C130.233 123.658 128.635 127.054 127.229 130.499C124.502 137.164 122.573 144.184 121.43 151.295C119.864 161.07 119.552 170.948 119.523 180.825C120.107 188.695 119.97 196.587 119.891 204.472C119.808 213.071 120.049 221.661 120.484 230.26C120.907 238.539 121.233 247.042 122.574 255.244C123.453 259.079 124.63 262.872 126.692 266.159C129.688 270.942 133.944 274.543 138.244 278.103C138.512 278.327 138.297 278.817 137.96 278.789C131.788 278.32 125.049 278.342 119.435 275.359C116.329 273.71 114.343 271.251 112.775 268.424C112.034 271.946 111.706 275.519 112.157 279.17C112.206 279.558 111.702 279.643 111.474 279.448C108.107 276.697 105.844 273.126 104.225 269.212C95.5596 276.814 83.8284 280.858 73.2109 285.692C73.9233 285.692 74.6432 285.618 75.3291 285.568C77.1647 285.419 78.9927 285.185 80.8207 284.921C84.797 284.358 88.7828 283.717 92.6216 282.513C95.846 281.508 98.963 280.174 101.944 278.582C102.815 278.12 103.671 277.63 104.524 277.138C104.967 276.882 105.271 276.488 105.536 277.025C105.559 277.019 105.578 277.008 105.599 276.995C105.836 277.532 106.271 278.018 106.626 278.474C107.253 279.273 107.909 280.061 108.576 280.824C109.865 282.319 111.207 283.7 112.722 284.955C113.585 285.662 114.446 286.374 115.319 287.073C115.613 287.301 115.911 287.529 116.214 287.757C116.484 287.951 116.55 288.1 116.702 287.727C117.29 286.303 116.753 284.646 116.587 283.186C116.393 281.486 116.08 279.795 116.022 278.078C117.088 279.637 118.515 280.447 120.268 281.075C139.445 284.1 147.565 283.7 149.734 283.444C148.464 282.234 144.525 278.61 144.258 278.452C144.133 278.463 143.04 276.853 143.195 276.75C143.453 276.575 144.258 276.678 144.578 276.648C145.149 276.608 145.716 276.558 146.291 276.51C148.988 276.282 151.675 276.004 154.368 275.706C158.392 275.272 162.483 274.952 166.475 274.251C166.16 273.767 164.88 273.537 164.373 273.373C163.177 272.985 161.971 272.642 160.761 272.312C157.747 271.477 154.713 270.725 151.673 269.984C149.216 269.379 146.708 268.882 144.267 268.185C141.212 267.301 138.713 265.356 137.206 262.548C135.749 259.827 135.199 256.687 134.839 253.657C134.366 249.622 134.061 245.572 133.614 241.537C132.483 231.344 131.658 221.141 131.317 210.893C131.151 205.884 130.863 200.856 130.791 195.845C130.731 191.55 130.808 186.956 132.928 183.104C134.699 179.89 137.462 177.358 140.268 175.057C141.68 173.892 143.123 172.78 144.544 171.638C146.118 170.36 147.644 168.938 149.55 168.186C151.615 167.368 153.925 167.387 156.104 167.449C158.512 167.528 160.915 167.539 163.327 167.494C165.265 167.458 167.198 167.328 169.137 167.338C169.757 167.343 170.394 167.407 170.862 166.938C171.544 166.271 172.373 165.753 173.087 165.106C169.933 165.283 166.787 165.609 163.631 165.74C160.485 165.877 157.346 165.5 154.212 165.632C158.281 163.953 162.496 162.683 166.718 161.456C168.826 160.84 170.956 160.257 173.044 159.588C175.062 158.938 176.947 157.951 178.845 157.022C182.493 157.838 186.43 158.495 190.048 158.313C190.342 157.896 190.64 157.472 190.949 157.063C188.912 156.445 186.108 155.384 183.499 154.975C187.8 153.2 192.089 151.425 196.337 149.531C195.886 148.543 195.357 147.607 194.703 146.738Z" fill="#62381A"/>
<path d="M189.57 148.623C187.063 149.614 188.665 148.981 189.57 148.623V148.623Z" fill="#925F2D"/>
<path d="M93.4844 106.451C93.4844 106.451 99.5959 112.306 103.243 123.102C106.882 133.899 109.352 150.019 109.352 162.112C109.352 162.112 112.475 154.056 111.173 141.177C109.874 128.302 104.023 108.795 93.4844 106.451Z" fill="url(#paint0_radial_677_2525)"/>
<path d="M86.678 115.685C86.678 115.685 89.6593 121.608 86.8702 129.448C84.5164 136.04 78.175 136.158 78.175 136.158C78.175 136.158 79.0588 147.211 64.5366 149.976C49.2323 152.874 46.3396 138.431 46.3396 138.431C46.3396 138.431 37.0319 143.122 32.1321 135.077C27.4339 127.354 35.4168 120.82 35.4168 120.82C35.4168 120.82 25.442 121.99 26.1355 112.438C26.1355 112.438 16.8975 113.077 13.9878 106.166C11.1064 99.3195 14.1876 96.734 14.1876 96.734C14.1876 96.734 4.63485 95.6202 5.51869 84.3111C6.11609 76.5506 13.592 74.1252 13.592 74.1252C13.592 74.1252 10.5372 71.3003 12.2785 68.3322C13.9388 65.4903 18.7067 65.6203 18.7067 65.6203C18.7067 65.6203 16.8165 64.7572 17.6136 62.7445C18.4089 60.7356 21.3469 62.0661 21.3469 62.0661C21.3469 62.0661 16.9013 54.0436 24.9803 45.7178C33.065 37.3863 40.9912 42.1748 40.9912 42.1748C40.9912 42.1748 40.637 39.8682 43.5241 40.2809C43.5241 40.2809 41.3362 36.199 45.4482 34.682C49.5508 33.1574 52.9524 38.0892 52.9524 38.0892C52.9524 38.0892 53.0806 34.3804 57.2077 32.9877C61.348 31.5838 63.6867 33.2327 63.6867 33.2327C63.6867 33.2327 62.3807 26.9102 67.3766 22.1159C72.3706 17.3179 79.643 17.7344 79.643 17.7344C79.643 17.7344 74.698 13.79 77.0574 10.6975C78.9363 8.22687 83.6496 11.2271 83.6496 11.2271C83.6496 11.2271 82.4585 4.471 87.6617 2.73723C92.8612 0.992148 95.6107 9.61955 95.6107 9.61955C95.6107 9.61955 99.7925 -1.11477 114.69 0.0950958C127.497 1.14101 131.737 9.80233 131.737 9.80233C131.737 9.80233 132.572 4.55768 137.53 5.28699C141.456 5.86366 141.676 11.3646 140.114 13.2247C140.114 13.2247 142.897 11.9583 144.352 13.562C145.8 15.1733 145.119 16.7657 145.119 16.7657C145.119 16.7657 147.944 15.3844 149.987 17.5176C152.024 19.6415 151.781 24.9483 151.781 24.9483C151.781 24.9483 154.461 18.6295 160.131 17.3518C165.793 16.0665 166.852 21.1755 166.852 21.1755C166.852 21.1755 168.644 17.4196 172.1 18.3562C175.56 19.2872 174.196 24.0852 174.196 24.0852C174.196 24.0852 185.55 14.8341 196.233 23.4973C206.915 32.1605 199.294 40.5542 199.294 40.5542C199.294 40.5542 205.019 40.0529 209.842 45.3522C214.664 50.6477 217.05 63.4475 203.202 67.6764C203.202 67.6764 209.325 74.6906 206.73 80.8134C204.137 86.9306 194.076 87.0606 194.076 87.0606C194.076 87.0606 204.733 102.19 193.75 112.82C182.774 123.44 170.283 111.32 170.283 111.32C170.283 111.32 170.886 116.399 165.962 116.529C161.034 116.655 159.903 111.262 159.903 111.262C159.903 111.262 151.915 118.864 143.794 116.399C136.709 114.247 141.75 105.026 141.75 105.026C141.75 105.026 137.538 106.206 135.853 104.419C133.467 101.892 137.962 98.5017 137.962 98.5017C137.962 98.5017 134.394 99.8548 132.858 97.1712C131.323 94.4838 135.001 91.0314 135.001 91.0314C135.001 91.0314 131.373 90.8448 130.861 88.1782C130.861 88.1782 130.277 97.663 117.912 99.8095C105.548 101.96 101.662 94.4857 101.662 94.4857C101.662 94.4857 101.255 98.8409 91.6683 100.58C91.6683 100.58 96.3268 100.831 96.3438 104.717C96.3607 108.601 90.204 110.274 90.204 110.274C90.204 110.274 95.1018 111.656 93.6526 113.915C92.1959 116.163 86.678 115.685 86.678 115.685Z" fill="#E63B1C"/>
<path d="M183.997 78.6051C183.997 78.6051 169.493 70.4489 162.688 84.4981C155.893 98.5492 173.342 106.029 173.342 106.029C173.342 106.029 170.223 111.526 174.476 114.754C178.724 117.982 183.997 113.731 183.997 113.731C183.997 113.731 182.636 131.747 205.072 131.069C227.509 130.396 226.376 113.395 226.376 113.395C226.376 113.395 247.225 117.063 249.776 98.2665C252.494 78.2075 229.55 78.3734 229.55 78.3734C229.55 78.3734 228.53 69.3691 218.838 66.8174C209.152 64.2714 203.326 71.3648 203.326 71.3648C203.326 71.3648 199.522 61.0997 190.231 64.1018C180.97 67.0888 183.997 78.6051 183.997 78.6051Z" fill="#EE7216"/>
<path d="M30.7246 156.935C30.7246 156.935 21.0437 151.487 16.5114 160.868C11.9716 170.238 23.6161 175.231 23.6161 175.231C23.6161 175.231 21.5356 178.9 24.3718 181.052C27.2061 183.213 30.7246 180.373 30.7246 180.373C30.7246 180.373 29.8125 192.391 44.7889 191.941C59.7577 191.49 59.0039 180.151 59.0039 180.151C59.0039 180.151 72.9136 182.599 74.6135 170.056C76.432 156.674 61.1184 156.787 61.1184 156.787C61.1184 156.787 60.4361 150.773 53.976 149.068C47.5064 147.368 43.6205 152.102 43.6205 152.102C43.6205 152.102 41.082 145.255 34.8819 147.251C28.7025 149.256 30.7246 156.935 30.7246 156.935Z" fill="#F6A10E"/>
<path d="M187.26 133.066C187.26 133.066 176.968 127.353 172.214 137.311C167.457 147.281 179.829 152.503 179.829 152.503C179.829 152.503 177.647 156.405 180.662 158.671C183.681 160.936 187.392 157.913 187.392 157.913C187.392 157.913 186.5 170.662 202.366 170.089C218.232 169.526 217.369 157.506 217.369 157.506C217.369 157.506 232.127 160.028 233.859 146.721C235.707 132.523 219.474 132.728 219.474 132.728C219.474 132.728 218.718 126.366 211.855 124.596C204.991 122.827 200.898 127.872 200.898 127.872C200.898 127.872 198.167 120.624 191.611 122.782C185.074 124.934 187.26 133.066 187.26 133.066Z" fill="#E9561A"/>
<path d="M13.5125 133.403C13.5125 133.403 4.89259 128.617 0.912459 136.958C-3.07333 145.3 7.28972 149.672 7.28972 149.672C7.28972 149.672 5.45985 152.937 7.98889 154.838C10.5142 156.738 13.6218 154.205 13.6218 154.205C13.6218 154.205 12.8717 164.883 26.1633 164.402C39.4436 163.929 38.7219 153.862 38.7219 153.862C38.7219 153.862 51.0769 155.973 52.5279 144.827C54.0733 132.94 40.4876 133.119 40.4876 133.119C40.4876 133.119 39.8507 127.789 34.1066 126.31C28.3607 124.833 24.9346 129.05 24.9346 129.05C24.9346 129.05 22.6468 122.986 17.1534 124.793C11.6788 126.589 13.5125 133.403 13.5125 133.403Z" fill="#EA5B1B"/>
<path d="M29.6601 139.628C29.6601 139.628 24.244 147.127 21.9185 141.575C17.667 148.942 14.0166 146.379 11.3952 144.326C8.77383 142.278 11.3425 134.985 11.3425 134.985C11.3425 134.985 4.03614 137.165 1.05858 128.901C-0.678958 123.276 4.88036 118.768 6.70459 119.126C4.00782 116.861 7.22472 114.093 9.05272 113.733C3.94564 112.261 1.55232 105.396 10.1062 98.5492C15.4432 94.1073 21.4963 96.9737 22.6647 98.651C22.8928 94.194 25.5933 94.2788 26.8276 98.3664C29.3963 90.342 39.1148 87.3701 47.3634 88.7741C55.6101 90.178 58.2937 97.198 57.7754 100.769C61.0658 97.8519 65.5115 101.368 63.0936 105.094C67.0436 104.146 68.2742 108.243 67.0229 111.081C73.304 110.949 77.7383 118.116 75.6125 124.171C73.4811 130.224 68.0122 129.118 68.0122 129.118C68.0122 129.118 72.1582 133.215 67.3357 134.45C70.6901 137.959 66.661 144.522 60.9641 144.585C55.2672 144.647 54.3305 141.068 54.3305 141.068C54.3305 141.068 51.9164 143.322 49.5174 139.739C48.2642 144.047 41.25 145.64 35.9375 138.398C34.9142 141.164 30.608 141.375 29.6601 139.628Z" fill="#EE7216"/>
<path d="M158.968 134.169C158.968 134.169 153.513 139.835 152.22 134.888C147.769 140.572 145.01 137.987 143.046 135.949C141.086 133.905 144.122 128.085 144.122 128.085C144.122 128.085 137.72 129.039 136.207 121.74C135.412 116.804 140.628 113.67 142.119 114.196C140.123 111.971 143.155 110.026 144.734 109.939C140.617 108.096 139.424 102.037 147.441 97.2995C152.457 94.2014 157.208 97.3354 157.986 98.8863C158.706 95.17 160.968 95.5582 161.52 99.1482C164.643 92.705 173.161 91.3651 179.928 93.5342C186.699 95.7033 188.118 101.922 187.257 104.868C190.372 102.808 193.693 106.3 191.215 109.136C194.643 108.812 195.189 112.4 193.8 114.643C199.098 115.289 201.973 121.84 199.456 126.672C196.94 131.517 192.473 129.925 192.473 129.925C192.473 129.925 195.47 133.869 191.271 134.325C193.668 137.685 189.498 142.719 184.704 142.085C179.905 141.458 179.54 138.337 179.54 138.337C179.54 138.337 177.245 139.946 175.65 136.643C174.084 140.118 167.999 140.615 164.394 133.897C163.199 136.102 159.553 135.761 158.968 134.169Z" fill="#F6A10E"/>
<defs>
<radialGradient id="paint0_radial_677_2525" cx="0" cy="0" r="1" gradientUnits="userSpaceOnUse" gradientTransform="translate(72.1547 145.725) scale(49.1774 49.1775)">
<stop offset="0.0022" stop-color="white"/>
<stop offset="1" stop-color="white"/>
</radialGradient>
</defs>
</svg>
