<svg width="318" height="274" viewBox="0 0 318 274" fill="none" xmlns="http://www.w3.org/2000/svg">
<path fill-rule="evenodd" clip-rule="evenodd" d="M318 241.014L307.465 245.137L262.646 262.716L137.425 257.981L68.0043 273.493L22.5064 260.358L0 251.783L13.1255 180.926L32.8283 176.085L35.3894 149.912L36.8833 134.623L38.9206 113.776L83.9528 77.1832L85.8542 69.2866L92.6546 40.9693L94.3814 33.8099L95.5358 28.9982L96.9037 23.3231L99.9983 10.4595L101.774 3.05762L151.491 11.0416L272.968 25.8454L273.734 32.51L274.53 39.4268L281.408 99.0591L297.356 100.99L299.442 115.143L300.752 124L301.072 126.183L302.595 136.544L302.721 137.388C302.721 137.398 301.76 143.238 301.76 143.238L300.674 149.883L304.36 148.563L304.942 152.483L308.58 177.114L312.189 201.609L318 241.014Z" fill="url(#paint0_linear_677_22759)"/>
<path opacity="0.46" fill-rule="evenodd" clip-rule="evenodd" d="M312.192 201.609C308.593 203.491 299.58 198.369 297.359 198.563C292.111 199.009 267.751 206.877 267.751 206.877L260.902 197.496C260.902 197.496 281.973 191.141 284.185 190.783C285.853 190.511 301.152 181.518 308.583 177.114L312.192 201.609Z" fill="#DE895F"/>
<path opacity="0.5" fill-rule="evenodd" clip-rule="evenodd" d="M149.172 30.8903V48.4007L95.5352 28.9986L99.9976 10.46L149.172 30.8903Z" fill="#4E223B"/>
<path opacity="0.46" fill-rule="evenodd" clip-rule="evenodd" d="M302.594 136.544C295.183 142.17 284.22 150.106 279.603 151.513C272.307 153.744 244.766 159.923 238.422 161.204C232.077 162.475 207.466 174.727 207.466 174.727L189.703 168.392C189.703 168.392 207.378 160.098 215.983 159.225C224.588 158.352 252.226 151.474 259.124 149.291C266.021 147.118 281.853 141.326 281.853 141.326C281.853 141.326 281.853 141.326 284.182 139.871C285.928 138.785 296.094 130.345 301.071 126.183L302.594 136.544Z" fill="#DE895F"/>
<path opacity="0.15" fill-rule="evenodd" clip-rule="evenodd" d="M302.723 137.388C302.723 137.398 301.763 143.238 301.763 143.238C297 148.137 290.306 154.346 285.95 155.568C278.558 157.634 261.28 164.406 254.548 166.676C247.815 168.936 168.335 185.777 168.335 185.777L161.418 177.754C161.418 177.754 182.896 172.516 191.86 173.059C200.833 173.612 240.152 163.979 246.913 162.572C253.675 161.175 284.185 152.716 286.901 149.291C289.627 145.877 302.723 137.388 302.723 137.388Z" fill="#C69F7B"/>
<path opacity="0.15" fill-rule="evenodd" clip-rule="evenodd" d="M300.753 124.001L281.409 139.154L278.499 137.058C278.499 137.058 221.893 153.88 217.44 154.404C212.988 154.918 197.126 162.747 194.177 164.405C191.228 166.064 76.7461 156.819 74.5828 157.382C72.4292 157.945 47.6624 153.055 43.6656 152.483C41.9 152.231 38.5726 151.096 35.3906 149.912L36.8846 134.623L88.8142 148.564C88.8142 148.564 193.906 154.995 194.177 155.607C194.449 156.218 221.379 146.817 221.379 146.817C221.379 146.817 263.598 136.602 267.614 134.769C271.63 132.935 279.605 133.236 279.605 133.236L284.183 130.791L299.443 115.144L300.753 124.001Z" fill="#C69F7B"/>
<path opacity="0.5" fill-rule="evenodd" clip-rule="evenodd" d="M115.55 48.4002L93.9849 73.4871L85.8555 69.2866L92.6559 40.9692L115.55 48.4002Z" fill="#4E223B"/>
<path opacity="0.15" fill-rule="evenodd" clip-rule="evenodd" d="M277.207 62.622C270.562 62.9324 258.222 63.6891 256.787 65.0666C254.808 66.9681 236.705 73.4871 236.705 73.4871L227.189 74.4961L221.378 75.1072L220.699 71.5469L219.457 65.0278C219.457 65.0278 235.842 64.3876 238.423 65.0278C241.013 65.6681 254.779 58.0334 256.088 56.6752C257.039 55.6954 269.379 53.7164 276.063 52.7075L277.207 62.622Z" fill="#C69F7B"/>
<path opacity="0.63" fill-rule="evenodd" clip-rule="evenodd" d="M318 241.015L307.465 245.137L297.356 198.563L256.786 205.286L243.418 154.821L235.454 157.751L240.615 172.186L198.861 176.085L194.176 143.946L297.356 100.99L302.721 137.388C302.721 137.398 300.674 149.883 300.674 149.883L304.36 148.564L304.942 152.483L318 241.015Z" fill="#FFE19F"/>
<path opacity="0.5" fill-rule="evenodd" clip-rule="evenodd" d="M244.082 137.623L262.514 206.876L280.313 202.182L256.047 134.766L244.082 137.623Z" fill="#4E223B"/>
<path opacity="0.5" fill-rule="evenodd" clip-rule="evenodd" d="M291.297 171.145L307.466 245.138L316.672 241.535L303.585 152.713L294.369 167.608L291.297 171.145Z" fill="#4E223B"/>
<path opacity="0.63" fill-rule="evenodd" clip-rule="evenodd" d="M281.406 99.0594L227.187 74.4964L220.697 71.5473L216.215 69.5198L210.113 34.2856L189.479 50.7289L187.374 36.1094L183.387 34.2856V47.4305L153.469 42.8419V26.7867L213.401 32.6267L272.966 25.8457L276.061 52.7079L277.205 62.6223L281.406 99.0594Z" fill="#FFE19F"/>
<path fill-rule="evenodd" clip-rule="evenodd" d="M101.773 3.05874L153.471 26.7817L210.119 34.2864L272.969 25.8436L204.959 0L101.773 3.05874Z" fill="#EE7D5B"/>
<path fill-rule="evenodd" clip-rule="evenodd" d="M110.218 43.1997L205.431 55.9216L297.359 100.991L194.173 143.941L38.9258 113.769L110.218 43.1997Z" fill="#EE7D5B"/>
<path fill-rule="evenodd" clip-rule="evenodd" d="M54.8686 149.187L13.125 180.92L210.586 187.59L240.604 172.18L54.8686 149.187Z" fill="#EE7D5B"/>
<path fill-rule="evenodd" clip-rule="evenodd" d="M253.737 195.19L216.215 217.493L240.604 225.227L270.622 217.493L297.356 198.572L253.737 195.19Z" fill="#EE7D5B"/>
<path fill-rule="evenodd" clip-rule="evenodd" d="M45.9587 205.292L16.8789 221.264L68.4719 237.625L126.866 226.358L113.498 216.077L45.9587 205.292Z" fill="#EE7D5B"/>
<path opacity="0.56" fill-rule="evenodd" clip-rule="evenodd" d="M210.59 187.59L216.218 217.492L253.74 195.19L240.608 172.18L210.59 187.59Z" fill="#4E223B"/>
<path fill-rule="evenodd" clip-rule="evenodd" d="M16.8774 221.264L13.125 256.831L68.0018 273.494L68.4704 237.625L16.8774 221.264Z" fill="#4E223B"/>
<path fill-rule="evenodd" clip-rule="evenodd" d="M56.4766 233.821L68.4719 247.378L82.8061 234.859L68.4719 237.625L56.4766 233.821Z" fill="#CC5656"/>
<path fill-rule="evenodd" clip-rule="evenodd" d="M113.5 216.077L120.554 227.576L126.868 226.358L113.5 216.077Z" fill="#F9A175"/>
<path fill-rule="evenodd" clip-rule="evenodd" d="M45.9587 205.292L24.5291 223.691L16.8789 221.264L45.9587 205.292Z" fill="#F9A175"/>
<path fill-rule="evenodd" clip-rule="evenodd" d="M68.4735 247.379L68.1562 261.85L77.6021 239.406L68.4735 247.379Z" fill="#F9A175"/>
<path fill-rule="evenodd" clip-rule="evenodd" d="M126.869 226.358L137.423 257.981L115.581 262.862L106.923 238.025L101.775 240.6L107.355 258.174H101.775L95.7139 240.6L89.2462 243.257L94.8602 267.493L82.8086 234.859L126.869 226.358Z" fill="#8B90A1"/>
<path fill-rule="evenodd" clip-rule="evenodd" d="M221.383 182.049L213.21 201.512L210.59 187.59L221.383 182.049Z" fill="#CC5656"/>
<path fill-rule="evenodd" clip-rule="evenodd" d="M210.587 187.59L191.859 187.024L217.667 183.956L210.587 187.59Z" fill="#F9A175"/>
<path fill-rule="evenodd" clip-rule="evenodd" d="M82.8045 234.859L45.957 218.458L98.2534 231.879L106.969 230.197L62.0792 214.491L89.2256 212.202L113.497 216.077L120.55 227.577L82.8045 234.859Z" fill="#F9A175"/>
<path fill-rule="evenodd" clip-rule="evenodd" d="M297.358 100.991L205.429 55.9217L143.953 55.2756L206.485 62.9792L198.956 69.9785L100.795 52.5254L72.8789 80.1588L188.076 103.052L99.1872 96.311L216.217 134.766L297.358 100.991Z" fill="#F9A175"/>
<path fill-rule="evenodd" clip-rule="evenodd" d="M302.72 137.386L300.836 146.822C300.836 146.822 291.782 160.153 289.841 161.202C287.901 162.252 259.121 182.049 259.121 182.049C259.121 182.049 294.368 163.222 295.338 162.575C296.308 161.928 300.674 149.883 300.674 149.883L302.72 137.386Z" fill="#4E223B"/>
<path fill-rule="evenodd" clip-rule="evenodd" d="M304.358 148.563L295.336 162.575L300.672 149.883L304.358 148.563Z" fill="#F9A175"/>
<path opacity="0.63" fill-rule="evenodd" clip-rule="evenodd" d="M270.627 217.492L262.649 262.716L307.467 245.137L297.362 198.571L260.902 197.5C260.902 197.5 289.52 199.925 289.035 200.733C288.55 201.541 270.627 217.492 270.627 217.492Z" fill="#FFE19F"/>
<path fill-rule="evenodd" clip-rule="evenodd" d="M240.605 225.227L262.645 262.716L270.623 217.492L240.605 225.227Z" fill="#CC5656"/>
<path fill-rule="evenodd" clip-rule="evenodd" d="M228.727 221.459L244.921 232.563L248.129 223.691L228.727 221.459Z" fill="#F9A175"/>
<path fill-rule="evenodd" clip-rule="evenodd" d="M216.215 217.492V243.093V260.961L251.497 262.294L244.082 239.406L235.351 234.039L235.836 247.874L229.53 242.77L228.722 230.107L216.215 217.492Z" fill="#8B90A1"/>
<path fill-rule="evenodd" clip-rule="evenodd" d="M272.969 172.555C272.969 172.555 288.008 158.975 289.301 157.38C290.595 155.785 300.835 146.822 300.835 146.822L289.841 161.202L272.969 172.555Z" fill="#CC5656"/>
<path fill-rule="evenodd" clip-rule="evenodd" d="M263.899 114.918C263.899 114.918 270.866 118.768 272.97 121.538C275.075 124.309 277.661 134.765 277.661 134.765L284.182 152.712L277.23 118.741L278.136 108.991L263.898 108.021L263.899 114.918Z" fill="#CC5656"/>
<path fill-rule="evenodd" clip-rule="evenodd" d="M58.6356 137.062L53.7812 116.656L64.5096 118.741L58.6356 137.062Z" fill="#CC5656"/>
<path opacity="0.5" fill-rule="evenodd" clip-rule="evenodd" d="M45.957 205.292L50.0072 187.024L86.6548 190.784L83.2536 205.377L97.4346 206.877L101.771 190.784L152.623 194.588L137.419 257.981L126.865 226.358L113.497 216.077L45.957 205.292Z" fill="#4E223B"/>
<path fill-rule="evenodd" clip-rule="evenodd" d="M38.9258 113.769L54.7773 120.846L64.5084 118.741L38.9258 113.769Z" fill="#F9A175"/>
<path opacity="0.15" fill-rule="evenodd" clip-rule="evenodd" d="M274.527 39.427C269.628 39.9508 259.558 41.2217 256.784 43.2007C253.078 45.8393 232.822 53.1345 230.232 52.0771C227.642 51.01 200.052 52.0771 200.052 52.0771C200.052 52.0771 157.765 44.1611 153.468 42.8417C150.286 41.8716 113.364 36.5264 94.3789 33.8101L95.5333 28.9983L96.9012 23.3232C115.576 27.2134 151.547 34.8869 153.468 36.6137C156.068 38.9419 202.575 48.8079 204.757 48.4004C206.95 47.993 229.291 51.3883 233.851 48.4004C238.42 45.4125 258.792 38.5927 260.897 36.6137C262.1 35.4786 268.493 33.7616 273.732 32.5101L274.527 39.427Z" fill="#C69F7B"/>
<path fill-rule="evenodd" clip-rule="evenodd" d="M210.117 34.2866L211.271 40.9696L272.967 25.8438L210.117 34.2866Z" fill="#F9A175"/>
<path fill-rule="evenodd" clip-rule="evenodd" d="M191.86 187.024L64.5071 182.655L144.433 177.757H72.8791L87.9516 166.674L191.86 173.064L54.8711 149.187L240.606 172.18L229.743 177.757H194.175L217.668 183.956L191.86 187.024Z" fill="#F9A175"/>
<path fill-rule="evenodd" clip-rule="evenodd" d="M204.959 0L149.902 1.63268L219.456 29.43L191.859 10.4597L203.769 7.2719L233.634 27.6557L246.911 25.8455L232.162 16.1435L272.968 25.8436L204.959 0Z" fill="#F9A175"/>
<path fill-rule="evenodd" clip-rule="evenodd" d="M58.6314 137.062L56.4758 143.941L50.0586 118.741L54.7743 120.846L58.6314 137.062Z" fill="#4E223B"/>
<path opacity="0.15" fill-rule="evenodd" clip-rule="evenodd" d="M216.216 231.452C216.216 231.452 234.867 238.731 236.808 240.104C238.748 241.476 243.734 241.747 244.798 241.612C245.863 241.477 249.964 241.146 249.964 241.146L253.738 247.566C253.738 247.566 240.683 248.039 237.778 247.566C234.871 247.092 219.993 242.447 219.993 242.447L215.984 240.105L216.216 231.452Z" fill="#C69F7B"/>
<path opacity="0.15" fill-rule="evenodd" clip-rule="evenodd" d="M266.951 238.317C266.951 238.317 281.92 234.847 284.183 233.877C286.446 232.907 294.691 228.713 297.36 227.01C300.029 225.308 302.777 223.529 302.777 223.529L304.496 231.451C304.496 231.451 285.8 239.044 284.183 239.613C282.566 240.182 265.898 244.28 265.898 244.28L266.951 238.317Z" fill="#C69F7B"/>
<path opacity="0.46" fill-rule="evenodd" clip-rule="evenodd" d="M216.215 248.753C216.215 248.753 235.675 254.897 239.556 255.382C243.436 255.867 258.332 255.382 258.332 255.382L262.644 262.716L216.215 260.961V248.753Z" fill="#DE895F"/>
<path opacity="0.46" fill-rule="evenodd" clip-rule="evenodd" d="M264.231 253.725C264.231 253.725 290.81 245.505 293.882 243.975C296.954 242.447 305.025 233.906 305.025 233.906L307.463 245.138L262.645 262.716L264.231 253.725Z" fill="#DE895F"/>
<path opacity="0.15" fill-rule="evenodd" clip-rule="evenodd" d="M15.7007 232.455C15.7007 232.455 41.4803 246.637 45.9612 248.638C50.4421 250.639 66.2975 258.532 68.1581 257.981C70.0188 257.43 91.0497 251.482 95.5374 252.291C100.026 253.1 110.38 250.517 115.551 248.638C120.721 246.759 131.216 239.38 131.216 239.38L133.835 247.227C133.835 247.227 111.387 253.295 106.581 255.735C101.776 258.174 87.5815 257.131 82.8086 257.981C78.0367 258.832 68.1581 261.85 68.1581 261.85C68.1581 261.85 55.2781 256.288 45.9612 254.326C36.6453 252.363 14.7539 241.436 14.7539 241.436L15.7007 232.455Z" fill="#C69F7B"/>
<path opacity="0.46" fill-rule="evenodd" clip-rule="evenodd" d="M13.9767 248.753C13.9767 248.753 33.569 258.292 37.9344 259.747C42.2999 261.202 68.1532 261.849 68.1532 261.849C68.1532 261.849 94.0384 262.093 98.4039 262.294C102.769 262.495 120.393 259.123 123.627 257.98C126.86 256.836 136.229 254.413 136.229 254.413L137.42 257.98L68.0009 273.493L13.125 256.83L13.9767 248.753Z" fill="#DE895F"/>
<path opacity="0.63" fill-rule="evenodd" clip-rule="evenodd" d="M210.588 187.59L201.238 240.6V187.59H210.588Z" fill="#FFE19F"/>
<path fill-rule="evenodd" clip-rule="evenodd" d="M185.12 259.785C185.12 259.785 162.985 233.069 161.417 231.453C159.848 229.836 122.355 202.673 122.355 202.673L152.627 237.156L166.634 259.086L185.12 259.785Z" fill="#4E223B"/>
<path fill-rule="evenodd" clip-rule="evenodd" d="M0 251.783L6.17277 218.458L14.7514 241.435L13.1274 256.831L0 251.783Z" fill="#4E223B"/>
<path fill-rule="evenodd" clip-rule="evenodd" d="M131.066 197.499C131.066 197.499 150.253 214.282 152.624 216.077C154.995 217.871 169.547 234.859 169.547 234.859C169.547 234.859 157.51 212.496 153.469 210.208C149.428 207.92 131.066 197.499 131.066 197.499Z" fill="#4E223B"/>
<path opacity="0.63" fill-rule="evenodd" clip-rule="evenodd" d="M122.355 202.673L161.417 231.453C161.417 231.453 143.132 212.374 137.424 208.817C131.715 205.259 122.355 202.673 122.355 202.673Z" fill="#FFE19F"/>
<path fill-rule="evenodd" clip-rule="evenodd" d="M224.315 141.163L220.602 146.822L243.54 141.163L237.796 138.276L224.315 141.163Z" fill="#ED896E"/>
<path fill-rule="evenodd" clip-rule="evenodd" d="M265.898 130.367L263.898 134.766L267.206 132.566L268.499 130.367H265.898Z" fill="#ED896E"/>
<path fill-rule="evenodd" clip-rule="evenodd" d="M270.621 164.605V168.388L272.966 164.605H270.621Z" fill="#ED896E"/>
<path fill-rule="evenodd" clip-rule="evenodd" d="M289.19 179.714L286.898 188.394L294.113 184.054V179.714H289.19Z" fill="#ED896E"/>
<path fill-rule="evenodd" clip-rule="evenodd" d="M110.113 149.882L135.579 151.485L118.778 146.821L110.113 149.882Z" fill="#CC5656"/>
<path fill-rule="evenodd" clip-rule="evenodd" d="M92.2617 141.163L95.5348 142.549L99.2911 139.875L94.3804 138.276L92.2617 141.163Z" fill="#CC5656"/>
<path fill-rule="evenodd" clip-rule="evenodd" d="M259.121 55.6771L275.564 48.4004L276.063 52.7077L259.121 55.6771Z" fill="#ED896E"/>
<path fill-rule="evenodd" clip-rule="evenodd" d="M233.855 55.6772L232.066 57.2284L234.86 59.0978L238.423 57.2284L233.855 55.6772Z" fill="#ED896E"/>
<path fill-rule="evenodd" clip-rule="evenodd" d="M253.738 34.2866V36.1385L256.787 35.2121L255.614 33.4067L253.738 34.2866Z" fill="#ED896E"/>
<path fill-rule="evenodd" clip-rule="evenodd" d="M204.766 43.1997V45.5163H207.384L204.766 43.1997Z" fill="#ED896E"/>
<path fill-rule="evenodd" clip-rule="evenodd" d="M153.469 36.6137L158.998 34.7725L172.78 39.1651L175.356 42.6546L153.469 36.6137Z" fill="#ED896E"/>
<path fill-rule="evenodd" clip-rule="evenodd" d="M284.18 219.811V222.951L286.9 221.827L285.54 218.458L284.18 219.811Z" fill="#ED896E"/>
<path fill-rule="evenodd" clip-rule="evenodd" d="M272.969 236.888L280.921 233.906L276.944 232.563L272.969 236.888Z" fill="#ED896E"/>
<path fill-rule="evenodd" clip-rule="evenodd" d="M299.105 206.876L297.359 227.011L302.776 223.53L299.105 206.876Z" fill="#ED896E"/>
<path fill-rule="evenodd" clip-rule="evenodd" d="M182.806 191.995L181.512 196.786L185.118 195.19L187.371 191.995H182.806Z" fill="#CC5656"/>
<path fill-rule="evenodd" clip-rule="evenodd" d="M187.371 218.458L181.512 221.459L184.441 222.644L187.371 218.458Z" fill="#CC5656"/>
<path fill-rule="evenodd" clip-rule="evenodd" d="M175.527 263.523C175.527 263.523 181.633 247.52 182.805 238.36C183.977 229.201 181.547 218.12 181.547 218.12L175.527 263.523Z" fill="#514D49"/>
<path fill-rule="evenodd" clip-rule="evenodd" d="M164.199 245.454C165.936 259.488 172.675 266.096 172.675 266.096C172.675 266.096 179.757 250.873 180.168 230.746C180.552 211.759 176.165 193.418 175.662 191.408C175.635 191.284 175.621 191.226 175.621 191.226L176.125 235.449L176.198 241.782C176.198 241.782 176.07 240.507 175.842 238.392C175.021 230.822 172.89 212.644 170.351 203.693C167.111 192.232 163.73 186.62 163.73 186.62L171.062 257.653C171.062 257.653 166.429 239.881 164.559 223.863C162.689 207.845 162.689 207.845 162.689 207.845C162.689 207.845 162.47 231.419 164.199 245.454Z" fill="url(#paint1_linear_677_22759)"/>
<path fill-rule="evenodd" clip-rule="evenodd" d="M177.727 265.336C177.727 265.336 180.219 260.937 184.3 241.259C188.381 221.58 187.144 199.576 187.144 199.576L177.727 265.336Z" fill="url(#paint2_linear_677_22759)"/>
<path fill-rule="evenodd" clip-rule="evenodd" d="M168.652 265.782C168.652 265.782 164.98 260.21 162.986 245.534C160.99 230.858 160.99 230.858 160.99 230.858C160.99 230.858 158.754 256.236 168.652 265.782Z" fill="#514D49"/>
<path fill-rule="evenodd" clip-rule="evenodd" d="M175.621 191.227L176.126 235.45C176.74 229.064 177.287 221.304 177.279 214.286C177.252 200.252 175.895 192.649 175.662 191.409C175.634 191.284 175.621 191.227 175.621 191.227Z" fill="#938663"/>
<path fill-rule="evenodd" clip-rule="evenodd" d="M171.84 231.079C174.618 244.495 174.626 248.227 174.616 248.694C174.691 248.183 175.244 244.096 175.842 238.392C175.022 230.822 172.89 212.644 170.351 203.693C167.111 192.232 163.73 186.62 163.73 186.62C163.73 186.62 168.832 216.629 171.84 231.079Z" fill="#938663"/>
<defs>
<linearGradient id="paint0_linear_677_22759" x1="156.791" y1="244.653" x2="236.932" y2="-63.0845" gradientUnits="userSpaceOnUse">
<stop stop-color="#5E1A45"/>
<stop offset="1" stop-color="#DB4A41"/>
</linearGradient>
<linearGradient id="paint1_linear_677_22759" x1="172.4" y1="243.886" x2="170.148" y2="196.834" gradientUnits="userSpaceOnUse">
<stop stop-color="#5B5943"/>
<stop offset="0.3212" stop-color="#58665A"/>
<stop offset="0.9694" stop-color="#518188"/>
</linearGradient>
<linearGradient id="paint2_linear_677_22759" x1="177.056" y1="258.575" x2="190.404" y2="200.039" gradientUnits="userSpaceOnUse">
<stop stop-color="#5B5943"/>
<stop offset="0.3212" stop-color="#58665A"/>
<stop offset="0.9694" stop-color="#518188"/>
</linearGradient>
</defs>
</svg>
