<svg width="179" height="284" viewBox="0 0 179 284" fill="none" xmlns="http://www.w3.org/2000/svg">
<path d="M106.018 282.097C106.018 282.097 95.8537 232.109 98.3913 191.023C99.2805 177.715 103.623 172.643 117.862 161.783C132.107 150.916 145.384 148.506 145.384 148.506L147.078 140.54L110.626 156.952C110.626 156.952 113.766 147.299 131.385 133.776L130.904 130.404L118.11 139.577L121.975 124.608L116.899 122.433C116.899 122.433 116.899 140.54 107.974 150.917C99.045 161.3 95.4178 166.125 95.4178 166.125C95.4178 166.125 92.2792 149.715 91.5569 137.641C90.8329 125.571 95.4179 114.47 99.5265 108.676C103.623 102.883 104.593 100.712 104.593 100.712L101.215 93.9536C101.215 93.9536 91.3162 114.713 86.0056 121.226C83.8353 109.163 84.0743 93.9536 86.0056 87.4357C83.1112 86.4727 83.1113 86.4727 83.1113 86.4727L78.2786 106.986L70.3143 90.8133L64.7648 91.7815C64.7648 91.7815 74.662 107.467 76.5933 116.642C78.5193 125.816 76.3473 147.782 76.3473 147.782C76.3473 147.782 66.6943 141.742 63.5539 135.954C60.4224 130.158 57.5193 121.47 57.5193 121.47H51.4864C51.4864 121.47 58.0044 134.746 60.4207 141.503C52.2105 139.811 45.4517 138.368 37.7247 127.262C33.8604 128.225 34.1046 129.432 34.1046 129.432C34.1046 129.432 41.5874 140.779 58.7284 148.02C73.4513 154.778 73.692 167.57 73.2052 180.124C72.729 192.677 71.2845 223.428 70.0139 245.347C68.7416 267.267 65.5731 282.517 65.5731 282.517C65.5731 282.517 94.3704 286.119 106.018 282.097Z" fill="#7D4C20"/>
<path d="M72.3501 90.4245C72.3501 90.4245 77.4323 94.0252 80.6061 89.7918C80.6061 89.7918 79.3408 95.7246 86.5406 89.5792C86.9623 99.1092 95.647 104.404 100.515 97.6242C100.309 111.184 122.118 104.829 121.907 95.9319C130.164 100.38 135.248 93.1817 135.248 93.1817C145.209 100.807 158.971 93.8144 155.159 86.402C169.348 79.8418 160.456 73.2695 160.456 73.2695C172.736 57.1794 158.551 42.3528 149.441 43.8324C150.926 40.0226 147.536 34.0898 141.396 36.4201C141.608 34.306 144.573 24.5581 137.16 17.9962C129.748 11.4308 117.041 6.34337 109.414 13.9737C108.569 10.3712 106.453 9.73677 102.214 12.7014C98.6117 1.47909 84.4177 0.206753 84.4177 0.206753C65.9974 -1.70346 56.6801 9.94589 58.3724 21.8061C51.8105 18.6288 38.678 23.5019 40.3686 31.7631C38.678 30.9161 35.0755 30.0655 35.0755 36.6309C30.2059 34.5116 20.8903 37.6906 23.8514 46.7953C20.2471 45.3156 15.5937 49.3381 18.9766 54.8456C2.03591 56.1179 6.27287 77.0829 14.5358 80.898C12.6309 87.4599 21.1011 88.0925 21.1011 88.0925C21.1011 88.0925 25.7545 96.5646 33.8049 89.3648C38.0453 96.9899 52.4449 93.8144 54.5643 89.5775C55.4078 98.2622 72.561 97.4151 72.3501 90.4245Z" fill="#388B31"/>
<path d="M119.901 128.439C119.901 128.439 111.764 131.398 108.807 125.293C105.847 119.19 111.024 115.672 111.024 115.672C111.024 115.672 102.517 112.901 104.737 102.917C106.954 92.9286 116.203 95.3344 116.203 95.3344C116.203 95.3344 115.465 86.6391 122.491 84.9785C126.004 83.6798 130.443 88.1171 130.443 88.1171C130.443 88.1171 139.324 78.689 148.939 80.9032C158.555 83.128 163.363 91.8162 163.363 98.1075C168.914 96.069 169.84 100.139 169.654 101.993C169.654 101.993 174.091 101.253 175.197 104.945C176.311 108.648 173.352 113.273 173.352 113.273C173.352 113.273 182.04 117.897 177.235 134.542C173.346 143.232 167.247 144.158 167.247 144.158C167.247 144.158 170.392 145.638 168.723 148.416C167.06 151.188 163.177 148.968 163.177 148.968C163.177 148.968 166.874 158.77 153.743 163.396C146.162 165.796 134.88 157.104 143.387 146.564C140.793 145.638 140.982 141.758 143.941 140.828C136.544 143.605 128.035 138.241 127.483 131.952C123.046 133.064 119.901 128.439 119.901 128.439Z" fill="#69AA27"/>
<path d="M36.8176 132.327C36.8176 132.327 35.3801 141.262 30.9165 137.436C30.4368 145.732 26.1278 145.094 22.9347 144.455C19.7487 143.817 18.7892 136.32 18.7892 136.32C18.7892 136.32 13.3608 141.423 7.13456 135.521C3.14894 131.37 6.02398 124.985 7.77779 124.506C4.42657 123.706 6.02393 119.88 7.45967 118.764C2.35111 119.722 -2.75216 114.774 1.71145 105.041C4.42477 98.8205 10.9708 98.6606 12.7211 99.6131C10.9726 95.6275 13.359 94.5098 16.234 97.5429C14.9564 89.4083 22.1334 82.5424 29.9588 80.1489C37.7754 77.7554 43.2037 82.7023 44.3214 86.0553C45.917 82.0627 51.3401 83.1821 50.8621 87.4928C53.8953 84.9376 56.7615 87.9655 56.9285 91.0039C62.3498 88.1254 69.3686 92.4344 70.1734 98.6606C70.9642 104.882 65.7011 106.319 65.7011 106.319C65.7011 106.319 71.1242 108.075 67.4584 111.266C71.9273 112.858 71.2893 120.36 66.3389 122.915C61.3903 125.469 59.0021 122.755 59.0021 122.755C59.0021 122.755 57.8827 125.783 54.2064 123.706C55.0112 128.017 49.5829 132.487 41.7663 128.497C42.0844 131.37 38.4132 133.447 36.8176 132.327Z" fill="#69AA27"/>
</svg>
